<svg xmlns="http://www.w3.org/2000/svg" xmlns:xlink="http://www.w3.org/1999/xlink" contentStyleType="text/css" height="543px" preserveAspectRatio="none" style="width:638px;height:543px;background:#FFFFFF;" version="1.1" viewBox="0 0 638 543" width="638px" zoomAndPan="magnify"><defs><filter height="300%" id="f18llunebb2a8r" width="300%" x="-1" y="-1"><feGaussianBlur result="blurOut" stdDeviation="2.0"/><feColorMatrix in="blurOut" result="blurOut2" type="matrix" values="0 0 0 0 0 0 0 0 0 0 0 0 0 0 0 0 0 0 .4 0"/><feOffset dx="4.0" dy="4.0" in="blurOut2" result="blurOut3"/><feBlend in="SourceGraphic" in2="blurOut3" mode="normal"/></filter></defs><g><!--cluster UI--><g id="cluster_UI"><polygon fill="none" filter="url(#f18llunebb2a8r)" points="421.22,337.012,442.1999,337.012,449.1999,362.0799,621.22,362.0799,621.22,534.352,421.22,534.352,421.22,337.012" style="stroke:#000000;stroke-width:1.5;"/><line style="stroke:#000000;stroke-width:1.5;" x1="421.22" x2="449.1999" y1="362.0799" y2="362.0799"/><text fill="#000000" font-family="sans-serif" font-size="14" lengthAdjust="spacing" textLength="14.9799" x="425.22" y="353.9779">UI</text></g><!--cluster UserStatistics--><g id="cluster_UserStatistics"><polygon fill="none" filter="url(#f18llunebb2a8r)" points="102.22,6.602,196.8957,6.602,203.8957,31.6699,397.22,31.6699,397.22,515.282,102.22,515.282,102.22,6.602" style="stroke:#000000;stroke-width:1.5;"/><line style="stroke:#000000;stroke-width:1.5;" x1="102.22" x2="203.8957" y1="31.6699" y2="31.6699"/><text fill="#000000" font-family="sans-serif" font-size="14" lengthAdjust="spacing" textLength="88.6757" x="106.22" y="23.5679">UserStatistics</text></g><!--entity database--><g id="elem_database"><path d="M6,73.642 C6,63.642 46.2189,63.642 46.2189,63.642 C46.2189,63.642 86.4378,63.642 86.4378,73.642 L86.4378,101.7099 C86.4378,111.7099 46.2189,111.7099 46.2189,111.7099 C46.2189,111.7099 6,111.7099 6,101.7099 L6,73.642 " fill="#FEFECE" filter="url(#f18llunebb2a8r)" style="stroke:#A80036;stroke-width:1.0;"/><path d="M6,73.642 C6,83.642 46.2189,83.642 46.2189,83.642 C46.2189,83.642 86.4378,83.642 86.4378,73.642 " fill="none" style="stroke:#A80036;stroke-width:1.0;"/><text fill="#000000" font-family="sans-serif" font-size="14" lengthAdjust="spacing" textLength="60.4378" x="16" y="102.6079">database</text></g><!--class GUI--><g id="elem_GUI"><rect codeLine="7" fill="#FEFECE" filter="url(#f18llunebb2a8r)" height="143.3396" id="GUI" style="stroke:#A80036;stroke-width:1.0;" width="168.0294" x="437.2" y="375.012"/><ellipse cx="504.3787" cy="391.012" fill="#ADD1B2" rx="11" ry="11" style="stroke:#A80036;stroke-width:1.0;"/><path d="M503.8475,397.9339 Q502.0975,397.9339 500.9569,397.1995 Q499.8319,396.4495 499.2694,395.1057 Q498.7225,393.7464 498.7225,391.9495 Q498.7225,389.9182 499.3787,388.4651 Q500.035,387.012 501.3162,386.2307 Q502.5975,385.4495 504.4725,385.4495 Q505.3631,385.4495 506.035,385.637 Q506.7069,385.8089 507.3944,386.1526 L506.5819,388.1682 Q505.9569,387.8557 505.41,387.7307 Q504.8787,387.6057 504.3944,387.6057 Q503.2225,387.6057 502.5194,388.137 Q501.8162,388.6682 501.5194,389.6214 Q501.2225,390.5745 501.2225,391.8401 Q501.2225,393.8557 501.9412,394.8245 Q502.66,395.7776 504.2537,395.7776 Q504.8475,395.7776 505.4725,395.6214 Q506.0975,395.4651 506.9256,395.0901 L506.9256,397.3089 Q506.1912,397.6214 505.3944,397.7776 Q504.6131,397.9339 503.8475,397.9339 Z " fill="#000000"/><text fill="#000000" font-family="sans-serif" font-size="14" lengthAdjust="spacing" textLength="25.1719" x="524.8787" y="396.444">GUI</text><line style="stroke:#A80036;stroke-width:1.0;" x1="438.2" x2="604.2294" y1="407.012" y2="407.012"/><line style="stroke:#A80036;stroke-width:1.0;" x1="438.2" x2="604.2294" y1="415.012" y2="415.012"/><text fill="#000000" font-family="sans-serif" font-size="14" lengthAdjust="spacing" textLength="122.8076" x="443.2" y="433.9779">drawProgressBar()</text><text fill="#000000" font-family="sans-serif" font-size="14" lengthAdjust="spacing" textLength="131.3055" x="443.2" y="453.0458">drawActivityMatrix()</text><text fill="#000000" font-family="sans-serif" font-size="14" lengthAdjust="spacing" textLength="125.7895" x="443.2" y="472.1138">loadProfilePicture()</text><text fill="#000000" font-family="sans-serif" font-size="14" lengthAdjust="spacing" textLength="124.7955" x="443.2" y="491.1817">calculateProgress()</text><text fill="#000000" font-family="sans-serif" font-size="14" lengthAdjust="spacing" textLength="156.0294" x="443.2" y="510.2496">calculateActivityMatrix()</text></g><!--class UserData--><g id="elem_UserData"><rect codeLine="16" fill="#FEFECE" filter="url(#f18llunebb2a8r)" height="124.2717" id="UserData" style="stroke:#A80036;stroke-width:1.0;" width="156.1295" x="225.15" y="190.742"/><ellipse cx="268.2884" cy="206.742" fill="#ADD1B2" rx="11" ry="11" style="stroke:#A80036;stroke-width:1.0;"/><path d="M267.7571,213.6639 Q266.0071,213.6639 264.8665,212.9295 Q263.7415,212.1795 263.179,210.8357 Q262.6321,209.4764 262.6321,207.6795 Q262.6321,205.6482 263.2884,204.1951 Q263.9446,202.742 265.2259,201.9607 Q266.5071,201.1795 268.3821,201.1795 Q269.2727,201.1795 269.9446,201.367 Q270.6165,201.5389 271.304,201.8826 L270.4915,203.8982 Q269.8665,203.5857 269.3196,203.4607 Q268.7884,203.3357 268.304,203.3357 Q267.1321,203.3357 266.429,203.867 Q265.7259,204.3982 265.429,205.3514 Q265.1321,206.3045 265.1321,207.5701 Q265.1321,209.5857 265.8509,210.5545 Q266.5696,211.5076 268.1634,211.5076 Q268.7571,211.5076 269.3821,211.3514 Q270.0071,211.1951 270.8352,210.8201 L270.8352,213.0389 Q270.1009,213.3514 269.304,213.5076 Q268.5227,213.6639 267.7571,213.6639 Z " fill="#000000"/><text fill="#000000" font-family="sans-serif" font-size="14" lengthAdjust="spacing" textLength="61.5998" x="288.5413" y="212.174">UserData</text><line style="stroke:#A80036;stroke-width:1.0;" x1="226.15" x2="380.2795" y1="222.742" y2="222.742"/><text fill="#000000" font-family="sans-serif" font-size="14" lengthAdjust="spacing" textLength="80.5277" x="231.15" y="241.7079">String name</text><text fill="#000000" font-family="sans-serif" font-size="14" lengthAdjust="spacing" textLength="64.4978" x="231.15" y="260.7758">Integer id</text><text fill="#000000" font-family="sans-serif" font-size="14" lengthAdjust="spacing" textLength="144.1295" x="231.15" y="279.8438">DateTime registration</text><text fill="#000000" font-family="sans-serif" font-size="14" lengthAdjust="spacing" textLength="83.5797" x="231.15" y="298.9117">List activities</text><line style="stroke:#A80036;stroke-width:1.0;" x1="226.15" x2="380.2795" y1="307.0136" y2="307.0136"/></g><!--class Activity--><g id="elem_Activity"><rect codeLine="22" fill="#FEFECE" filter="url(#f18llunebb2a8r)" height="105.2038" id="Activity" style="stroke:#A80036;stroke-width:1.0;" width="150.0115" x="228.21" y="394.082"/><ellipse cx="275.3408" cy="410.082" fill="#ADD1B2" rx="11" ry="11" style="stroke:#A80036;stroke-width:1.0;"/><path d="M274.8096,417.0039 Q273.0596,417.0039 271.919,416.2695 Q270.794,415.5195 270.2315,414.1757 Q269.6846,412.8164 269.6846,411.0195 Q269.6846,408.9882 270.3408,407.5351 Q270.9971,406.082 272.2783,405.3007 Q273.5596,404.5195 275.4346,404.5195 Q276.3252,404.5195 276.9971,404.707 Q277.669,404.8789 278.3565,405.2226 L277.544,407.2382 Q276.919,406.9257 276.3721,406.8007 Q275.8408,406.6757 275.3565,406.6757 Q274.1846,406.6757 273.4815,407.207 Q272.7783,407.7382 272.4815,408.6914 Q272.1846,409.6445 272.1846,410.9101 Q272.1846,412.9257 272.9033,413.8945 Q273.6221,414.8476 275.2158,414.8476 Q275.8096,414.8476 276.4346,414.6914 Q277.0596,414.5351 277.8877,414.1601 L277.8877,416.3789 Q277.1533,416.6914 276.3565,416.8476 Q275.5752,417.0039 274.8096,417.0039 Z " fill="#000000"/><text fill="#000000" font-family="sans-serif" font-size="14" lengthAdjust="spacing" textLength="47.2498" x="295.8408" y="415.514">Activity</text><line style="stroke:#A80036;stroke-width:1.0;" x1="229.21" x2="377.2215" y1="426.082" y2="426.082"/><text fill="#000000" font-family="sans-serif" font-size="14" lengthAdjust="spacing" textLength="138.0115" x="234.21" y="445.0479">DateTime timestamp</text><text fill="#000000" font-family="sans-serif" font-size="14" lengthAdjust="spacing" textLength="94.3176" x="234.21" y="464.1158">Integer lesson</text><text fill="#000000" font-family="sans-serif" font-size="14" lengthAdjust="spacing" textLength="81.9697" x="234.21" y="483.1838">Result result</text><line style="stroke:#A80036;stroke-width:1.0;" x1="229.21" x2="377.2215" y1="491.2857" y2="491.2857"/></g><!--class Result--><g id="elem_Result"><rect codeLine="27" fill="#FEFECE" filter="url(#f18llunebb2a8r)" height="48" id="Result" style="stroke:#A80036;stroke-width:1.0;" width="72.6278" x="117.9" y="228.872"/><ellipse cx="132.9" cy="244.872" fill="#EB937F" rx="11" ry="11" style="stroke:#A80036;stroke-width:1.0;"/><path d="M129.2594,251.372 L129.2594,239.2314 L136.9156,239.2314 L136.9156,241.3564 L131.6344,241.3564 L131.6344,244.0126 L136.65,244.0126 L136.65,246.1376 L131.6344,246.1376 L131.6344,249.247 L136.9156,249.247 L136.9156,251.372 L129.2594,251.372 Z " fill="#000000"/><text fill="#000000" font-family="sans-serif" font-size="14" lengthAdjust="spacing" textLength="40.6278" x="146.9" y="250.304">Result</text><line style="stroke:#A80036;stroke-width:1.0;" x1="118.9" x2="189.5278" y1="260.872" y2="260.872"/><line style="stroke:#A80036;stroke-width:1.0;" x1="118.9" x2="189.5278" y1="268.872" y2="268.872"/></g><!--class DataCollector--><g id="elem_DataCollector"><rect codeLine="29" fill="#FEFECE" filter="url(#f18llunebb2a8r)" height="86.1358" id="DataCollector" style="stroke:#A80036;stroke-width:1.0;" width="208.7973" x="172.82" y="44.602"/><ellipse cx="228.2458" cy="60.602" fill="#ADD1B2" rx="11" ry="11" style="stroke:#A80036;stroke-width:1.0;"/><path d="M227.7146,67.5239 Q225.9646,67.5239 224.8239,66.7895 Q223.6989,66.0395 223.1364,64.6957 Q222.5896,63.3364 222.5896,61.5395 Q222.5896,59.5082 223.2458,58.0551 Q223.9021,56.602 225.1833,55.8207 Q226.4646,55.0395 228.3396,55.0395 Q229.2302,55.0395 229.9021,55.227 Q230.5739,55.3989 231.2614,55.7426 L230.4489,57.7582 Q229.8239,57.4457 229.2771,57.3207 Q228.7458,57.1957 228.2614,57.1957 Q227.0896,57.1957 226.3864,57.727 Q225.6833,58.2582 225.3864,59.2114 Q225.0896,60.1645 225.0896,61.4301 Q225.0896,63.4457 225.8083,64.4145 Q226.5271,65.3676 228.1208,65.3676 Q228.7146,65.3676 229.3396,65.2114 Q229.9646,65.0551 230.7927,64.6801 L230.7927,66.8989 Q230.0583,67.2114 229.2614,67.3676 Q228.4802,67.5239 227.7146,67.5239 Z " fill="#000000"/><text fill="#000000" font-family="sans-serif" font-size="14" lengthAdjust="spacing" textLength="89.4457" x="248.7458" y="66.034">DataCollector</text><line style="stroke:#A80036;stroke-width:1.0;" x1="173.82" x2="380.6173" y1="76.602" y2="76.602"/><line style="stroke:#A80036;stroke-width:1.0;" x1="173.82" x2="380.6173" y1="84.602" y2="84.602"/><text fill="#000000" font-family="sans-serif" font-size="14" lengthAdjust="spacing" textLength="196.7973" x="178.82" y="103.5679">readUserDataFromDatabase()</text><text fill="#000000" font-family="sans-serif" font-size="14" lengthAdjust="spacing" textLength="71.2457" x="178.82" y="122.6358">sendData()</text></g><!--link UserData to GUI--><g id="link_UserData_GUI"><path codeLine="35" d="M381.33,315.512 C386.75,320.032 392.09,324.562 397.22,329.012 C413.85,343.442 431.31,359.352 447.69,374.662 " fill="none" id="UserData-GUI" style="stroke:#A80036;stroke-width:1.0;"/></g><!--link DataCollector to GUI--><g id="link_DataCollector_GUI"><path codeLine="36" d="M338.11,131.142 C359.29,147.972 382.03,168.602 399.22,190.742 C442.7,246.742 473.8141,315.1527 494.5441,368.9927 " fill="none" id="DataCollector-to-GUI" style="stroke:#A80036;stroke-width:1.0;"/><polygon fill="#A80036" points="496.7,374.592,497.199,364.7558,494.9034,369.9259,489.7333,367.6303,496.7,374.592" style="stroke:#A80036;stroke-width:1.0;"/></g><!--link Activity to GUI--><g id="link_Activity_GUI"><path codeLine="37" d="M378.58,446.682 C397.99,446.682 417.4,446.682 436.81,446.682 " fill="none" id="Activity-GUI" style="stroke:#A80036;stroke-width:1.0;"/></g><!--link Result to Activity--><g id="link_Result_Activity"><path codeLine="39" d="M172.19,277.012 C194.56,305.812 226.0587,346.3551 255.6687,384.4751 " fill="none" id="Result-to-Activity" style="stroke:#A80036;stroke-width:1.0;"/><polygon fill="none" points="263.03,393.952,262.5083,386.7598,255.6687,384.4751,256.1904,391.6673,263.03,393.952" style="stroke:#A80036;stroke-width:1.0;"/></g><!--reverse link UserData to Activity--><g id="link_UserData_Activity"><path codeLine="40" d="M303.22,327.352 C303.22,352.672 303.22,369.672 303.22,393.882 " fill="none" id="UserData-backto-Activity" style="stroke:#A80036;stroke-width:1.0;"/><polygon fill="none" points="303.22,315.352,299.22,321.352,303.22,327.352,307.22,321.352,303.22,315.352" style="stroke:#A80036;stroke-width:1.0;"/></g><!--link DataCollector to UserData--><g id="link_DataCollector_UserData"><path codeLine="42" d="M283.98,131.122 C286.86,149.162 290.26,170.552 293.4,190.272 " fill="none" id="DataCollector-UserData" style="stroke:#A80036;stroke-width:1.0;"/></g><!--link database to DataCollector--><g id="link_database_DataCollector"><path codeLine="44" d="M86.82,87.672 C115.33,87.672 143.84,87.672 172.35,87.672 " fill="none" id="database-DataCollector" style="stroke:#A80036;stroke-width:1.0;"/></g><!--SRC=[RLBRJiCm37tlL_WH7l87qoJkcWJInE03JEgLQ6aosIuNJVjtqf9a5tXfQn_dN9pAnWNWADGqMxGRx0XQL7n38PZDRlFdV0wxPdyOULsa6i1w5867N06qZ9zBZXsJo3NonMNjNbbr7qw_dr3PVMN0HspJ-DfvMZgh0rC6B7exU5GgPEVzV-ZsoL-r9yGhHNMYpigHrH4OCsM_gtGwT12mfwbU1AME65mxbMcINbnFmDGbAaw4CKp8Ooe1Vqquaac-Q1HlMQEIQ7g8OhyzaV8fNIPz9Xcy9h7nbIdlmj0NO7SYCyQuYTwJrSXPYmdR4l6UOr-kBwzFABHZg-whgVimxBftDUDTDgVC6PbFKCrsFDzaVyR46lx078qvTC-vJRsHFv2dTU8l_-8F]--></g></svg>