<svg xmlns="http://www.w3.org/2000/svg" xmlns:xlink="http://www.w3.org/1999/xlink" contentStyleType="text/css" height="651px" preserveAspectRatio="none" style="width:780px;height:651px;background:#FFFFFF;" version="1.1" viewBox="0 0 780 651" width="780px" zoomAndPan="magnify"><defs><filter height="300%" id="f44u1pm9etlun" width="300%" x="-1" y="-1"><feGaussianBlur result="blurOut" stdDeviation="2.0"/><feColorMatrix in="blurOut" result="blurOut2" type="matrix" values="0 0 0 0 0 0 0 0 0 0 0 0 0 0 0 0 0 0 .4 0"/><feOffset dx="4.0" dy="4.0" in="blurOut2" result="blurOut3"/><feBlend in="SourceGraphic" in2="blurOut3" mode="normal"/></filter></defs><g><!--cluster UI--><g id="cluster_UI"><polygon fill="#EFEFEF" filter="url(#f44u1pm9etlun)" points="573.22,6.602,594.1999,6.602,601.1999,31.6699,763.22,31.6699,763.22,477.152,573.22,477.152,573.22,6.602" style="stroke:#000000;stroke-width:1.5;"/><line style="stroke:#000000;stroke-width:1.5;" x1="573.22" x2="601.1999" y1="31.6699" y2="31.6699"/><text fill="#000000" font-family="sans-serif" font-size="14" lengthAdjust="spacing" textLength="14.9799" x="577.22" y="23.5679">UI</text></g><!--cluster us--><g id="cluster_us"><polygon fill="none" filter="url(#f44u1pm9etlun)" points="106.22,6.602,200.8957,6.602,207.8957,31.6699,549.22,31.6699,549.22,642.352,106.22,642.352,106.22,6.602" style="stroke:#000000;stroke-width:1.5;"/><line style="stroke:#000000;stroke-width:1.5;" x1="106.22" x2="207.8957" y1="31.6699" y2="31.6699"/><text fill="#000000" font-family="sans-serif" font-size="14" lengthAdjust="spacing" textLength="88.6757" x="110.22" y="23.5679">UserStatistics</text></g><!--entity database--><g id="elem_database"><path d="M6,191.172 C6,181.172 46.2189,181.172 46.2189,181.172 C46.2189,181.172 86.4378,181.172 86.4378,191.172 L86.4378,219.2399 C86.4378,229.2399 46.2189,229.2399 46.2189,229.2399 C46.2189,229.2399 6,229.2399 6,219.2399 L6,191.172 " fill="#FEFECE" filter="url(#f44u1pm9etlun)" style="stroke:#A80036;stroke-width:1.0;"/><path d="M6,191.172 C6,201.172 46.2189,201.172 46.2189,201.172 C46.2189,201.172 86.4378,201.172 86.4378,191.172 " fill="none" style="stroke:#A80036;stroke-width:1.0;"/><text fill="#000000" font-family="sans-serif" font-size="14" lengthAdjust="spacing" textLength="60.4378" x="16" y="220.1379">database</text></g><!--class GUI--><g id="elem_GUI"><rect codeLine="7" fill="#FEFECE" filter="url(#f44u1pm9etlun)" height="105.2038" id="GUI" style="stroke:#A80036;stroke-width:1.0;" width="143.3055" x="592.57" y="152.602"/><ellipse cx="647.3868" cy="168.602" fill="#ADD1B2" rx="11" ry="11" style="stroke:#A80036;stroke-width:1.0;"/><path d="M646.8556,175.5239 Q645.1056,175.5239 643.9649,174.7895 Q642.8399,174.0395 642.2774,172.6957 Q641.7306,171.3364 641.7306,169.5395 Q641.7306,167.5082 642.3868,166.0551 Q643.0431,164.602 644.3243,163.8207 Q645.6056,163.0395 647.4806,163.0395 Q648.3712,163.0395 649.0431,163.227 Q649.7149,163.3989 650.4024,163.7426 L649.5899,165.7582 Q648.9649,165.4457 648.4181,165.3207 Q647.8868,165.1957 647.4024,165.1957 Q646.2306,165.1957 645.5274,165.727 Q644.8243,166.2582 644.5274,167.2114 Q644.2306,168.1645 644.2306,169.4301 Q644.2306,171.4457 644.9493,172.4145 Q645.6681,173.3676 647.2618,173.3676 Q647.8556,173.3676 648.4806,173.2114 Q649.1056,173.0551 649.9337,172.6801 L649.9337,174.8989 Q649.1993,175.2114 648.4024,175.3676 Q647.6212,175.5239 646.8556,175.5239 Z " fill="#000000"/><text fill="#000000" font-family="sans-serif" font-size="14" lengthAdjust="spacing" textLength="25.1719" x="667.8868" y="174.034">GUI</text><line style="stroke:#A80036;stroke-width:1.0;" x1="593.57" x2="734.8755" y1="184.602" y2="184.602"/><line style="stroke:#A80036;stroke-width:1.0;" x1="593.57" x2="734.8755" y1="192.602" y2="192.602"/><text fill="#000000" font-family="sans-serif" font-size="14" lengthAdjust="spacing" textLength="122.8076" x="598.57" y="211.5679">drawProgressBar()</text><text fill="#000000" font-family="sans-serif" font-size="14" lengthAdjust="spacing" textLength="131.3055" x="598.57" y="230.6358">drawActivityMatrix()</text><text fill="#000000" font-family="sans-serif" font-size="14" lengthAdjust="spacing" textLength="125.7895" x="598.57" y="249.7038">loadProfilePicture()</text></g><!--class AggregatedData--><g id="elem_AggregatedData"><rect codeLine="12" fill="#FEFECE" filter="url(#f44u1pm9etlun)" height="143.3396" id="AggregatedData" style="stroke:#A80036;stroke-width:1.0;" width="158.8315" x="588.8" y="317.812"/><ellipse cx="611.8918" cy="333.812" fill="#ADD1B2" rx="11" ry="11" style="stroke:#A80036;stroke-width:1.0;"/><path d="M611.3606,340.7339 Q609.6106,340.7339 608.47,339.9995 Q607.345,339.2495 606.7825,337.9057 Q606.2356,336.5464 606.2356,334.7495 Q606.2356,332.7182 606.8918,331.2651 Q607.5481,329.812 608.8293,329.0307 Q610.1106,328.2495 611.9856,328.2495 Q612.8762,328.2495 613.5481,328.437 Q614.22,328.6089 614.9075,328.9526 L614.095,330.9682 Q613.47,330.6557 612.9231,330.5307 Q612.3918,330.4057 611.9075,330.4057 Q610.7356,330.4057 610.0325,330.937 Q609.3293,331.4682 609.0325,332.4214 Q608.7356,333.3745 608.7356,334.6401 Q608.7356,336.6557 609.4543,337.6245 Q610.1731,338.5776 611.7668,338.5776 Q612.3606,338.5776 612.9856,338.4214 Q613.6106,338.2651 614.4387,337.8901 L614.4387,340.1089 Q613.7043,340.4214 612.9075,340.5776 Q612.1262,340.7339 611.3606,340.7339 Z " fill="#000000"/><text fill="#000000" font-family="sans-serif" font-size="14" lengthAdjust="spacing" textLength="108.8496" x="627.69" y="339.244">AggregatedData</text><line style="stroke:#A80036;stroke-width:1.0;" x1="589.8" x2="746.6315" y1="349.812" y2="349.812"/><text fill="#000000" font-family="sans-serif" font-size="14" lengthAdjust="spacing" textLength="80.5277" x="594.8" y="368.7779">String name</text><text fill="#000000" font-family="sans-serif" font-size="14" lengthAdjust="spacing" textLength="64.4978" x="594.8" y="387.8458">Integer id</text><text fill="#000000" font-family="sans-serif" font-size="14" lengthAdjust="spacing" textLength="144.1295" x="594.8" y="406.9138">DateTime registration</text><text fill="#000000" font-family="sans-serif" font-size="14" lengthAdjust="spacing" textLength="94.4577" x="594.8" y="425.9817">Float progress</text><text fill="#000000" font-family="sans-serif" font-size="14" lengthAdjust="spacing" textLength="146.8315" x="594.8" y="445.0496">List[List] activityMatrix</text><line style="stroke:#A80036;stroke-width:1.0;" x1="589.8" x2="746.6315" y1="453.1516" y2="453.1516"/></g><!--class ServerConnector--><g id="elem_ServerConnector"><rect codeLine="19" fill="#FEFECE" filter="url(#f44u1pm9etlun)" height="48" id="ServerConnector" style="stroke:#A80036;stroke-width:1.0;" width="142.6976" x="588.87" y="44.602"/><ellipse cx="603.87" cy="60.602" fill="#ADD1B2" rx="11" ry="11" style="stroke:#A80036;stroke-width:1.0;"/><path d="M603.3388,67.5239 Q601.5888,67.5239 600.4481,66.7895 Q599.3231,66.0395 598.7606,64.6957 Q598.2138,63.3364 598.2138,61.5395 Q598.2138,59.5082 598.87,58.0551 Q599.5263,56.602 600.8075,55.8207 Q602.0888,55.0395 603.9638,55.0395 Q604.8544,55.0395 605.5263,55.227 Q606.1981,55.3989 606.8856,55.7426 L606.0731,57.7582 Q605.4481,57.4457 604.9013,57.3207 Q604.37,57.1957 603.8856,57.1957 Q602.7138,57.1957 602.0106,57.727 Q601.3075,58.2582 601.0106,59.2114 Q600.7138,60.1645 600.7138,61.4301 Q600.7138,63.4457 601.4325,64.4145 Q602.1513,65.3676 603.745,65.3676 Q604.3388,65.3676 604.9638,65.2114 Q605.5888,65.0551 606.4169,64.6801 L606.4169,66.8989 Q605.6825,67.2114 604.8856,67.3676 Q604.1044,67.5239 603.3388,67.5239 Z " fill="#000000"/><text fill="#000000" font-family="sans-serif" font-size="14" lengthAdjust="spacing" textLength="110.6976" x="617.87" y="66.034">ServerConnector</text><line style="stroke:#A80036;stroke-width:1.0;" x1="589.87" x2="730.5676" y1="76.602" y2="76.602"/><line style="stroke:#A80036;stroke-width:1.0;" x1="589.87" x2="730.5676" y1="84.602" y2="84.602"/></g><!--class UserData--><g id="elem_UserData"><rect codeLine="28" fill="#FEFECE" filter="url(#f44u1pm9etlun)" height="124.2717" id="UserData" style="stroke:#A80036;stroke-width:1.0;" width="156.1295" x="148.15" y="327.342"/><ellipse cx="191.2884" cy="343.342" fill="#ADD1B2" rx="11" ry="11" style="stroke:#A80036;stroke-width:1.0;"/><path d="M190.7571,350.2639 Q189.0071,350.2639 187.8665,349.5295 Q186.7415,348.7795 186.179,347.4357 Q185.6321,346.0764 185.6321,344.2795 Q185.6321,342.2482 186.2884,340.7951 Q186.9446,339.342 188.2259,338.5607 Q189.5071,337.7795 191.3821,337.7795 Q192.2727,337.7795 192.9446,337.967 Q193.6165,338.1389 194.304,338.4826 L193.4915,340.4982 Q192.8665,340.1857 192.3196,340.0607 Q191.7884,339.9357 191.304,339.9357 Q190.1321,339.9357 189.429,340.467 Q188.7259,340.9982 188.429,341.9514 Q188.1321,342.9045 188.1321,344.1701 Q188.1321,346.1857 188.8509,347.1545 Q189.5696,348.1076 191.1634,348.1076 Q191.7571,348.1076 192.3821,347.9514 Q193.0071,347.7951 193.8352,347.4201 L193.8352,349.6389 Q193.1009,349.9514 192.304,350.1076 Q191.5227,350.2639 190.7571,350.2639 Z " fill="#000000"/><text fill="#000000" font-family="sans-serif" font-size="14" lengthAdjust="spacing" textLength="61.5998" x="211.5413" y="348.774">UserData</text><line style="stroke:#A80036;stroke-width:1.0;" x1="149.15" x2="303.2795" y1="359.342" y2="359.342"/><text fill="#000000" font-family="sans-serif" font-size="14" lengthAdjust="spacing" textLength="80.5277" x="154.15" y="378.3079">String name</text><text fill="#000000" font-family="sans-serif" font-size="14" lengthAdjust="spacing" textLength="64.4978" x="154.15" y="397.3758">Integer id</text><text fill="#000000" font-family="sans-serif" font-size="14" lengthAdjust="spacing" textLength="144.1295" x="154.15" y="416.4438">DateTime registration</text><text fill="#000000" font-family="sans-serif" font-size="14" lengthAdjust="spacing" textLength="83.5797" x="154.15" y="435.5117">List activities</text><line style="stroke:#A80036;stroke-width:1.0;" x1="149.15" x2="303.2795" y1="443.6136" y2="443.6136"/></g><!--class Activity--><g id="elem_Activity"><rect codeLine="34" fill="#FEFECE" filter="url(#f44u1pm9etlun)" height="105.2038" id="Activity" style="stroke:#A80036;stroke-width:1.0;" width="150.0115" x="151.21" y="521.152"/><ellipse cx="198.3408" cy="537.152" fill="#ADD1B2" rx="11" ry="11" style="stroke:#A80036;stroke-width:1.0;"/><path d="M197.8096,544.0739 Q196.0596,544.0739 194.919,543.3395 Q193.794,542.5895 193.2315,541.2457 Q192.6846,539.8864 192.6846,538.0895 Q192.6846,536.0582 193.3408,534.6051 Q193.9971,533.152 195.2783,532.3707 Q196.5596,531.5895 198.4346,531.5895 Q199.3252,531.5895 199.9971,531.777 Q200.669,531.9489 201.3565,532.2926 L200.544,534.3082 Q199.919,533.9957 199.3721,533.8707 Q198.8408,533.7457 198.3565,533.7457 Q197.1846,533.7457 196.4815,534.277 Q195.7783,534.8082 195.4815,535.7614 Q195.1846,536.7145 195.1846,537.9801 Q195.1846,539.9957 195.9033,540.9645 Q196.6221,541.9176 198.2158,541.9176 Q198.8096,541.9176 199.4346,541.7614 Q200.0596,541.6051 200.8877,541.2301 L200.8877,543.4489 Q200.1533,543.7614 199.3565,543.9176 Q198.5752,544.0739 197.8096,544.0739 Z " fill="#000000"/><text fill="#000000" font-family="sans-serif" font-size="14" lengthAdjust="spacing" textLength="47.2498" x="218.8408" y="542.584">Activity</text><line style="stroke:#A80036;stroke-width:1.0;" x1="152.21" x2="300.2215" y1="553.152" y2="553.152"/><text fill="#000000" font-family="sans-serif" font-size="14" lengthAdjust="spacing" textLength="138.0115" x="157.21" y="572.1179">DateTime timestamp</text><text fill="#000000" font-family="sans-serif" font-size="14" lengthAdjust="spacing" textLength="94.3176" x="157.21" y="591.1858">Integer lesson</text><text fill="#000000" font-family="sans-serif" font-size="14" lengthAdjust="spacing" textLength="81.9697" x="157.21" y="610.2538">Result result</text><line style="stroke:#A80036;stroke-width:1.0;" x1="152.21" x2="300.2215" y1="618.3557" y2="618.3557"/></g><!--class Result--><g id="elem_Result"><rect codeLine="39" fill="#FEFECE" filter="url(#f44u1pm9etlun)" height="48" id="Result" style="stroke:#A80036;stroke-width:1.0;" width="72.6278" x="335.9" y="549.752"/><ellipse cx="350.9" cy="565.752" fill="#EB937F" rx="11" ry="11" style="stroke:#A80036;stroke-width:1.0;"/><path d="M347.2594,572.252 L347.2594,560.1114 L354.9156,560.1114 L354.9156,562.2364 L349.6344,562.2364 L349.6344,564.8926 L354.65,564.8926 L354.65,567.0176 L349.6344,567.0176 L349.6344,570.127 L354.9156,570.127 L354.9156,572.252 L347.2594,572.252 Z " fill="#000000"/><text fill="#000000" font-family="sans-serif" font-size="14" lengthAdjust="spacing" textLength="40.6278" x="364.9" y="571.184">Result</text><line style="stroke:#A80036;stroke-width:1.0;" x1="336.9" x2="407.5278" y1="581.752" y2="581.752"/><line style="stroke:#A80036;stroke-width:1.0;" x1="336.9" x2="407.5278" y1="589.752" y2="589.752"/></g><!--class DataCollector--><g id="elem_DataCollector"><rect codeLine="41" fill="#FEFECE" filter="url(#f44u1pm9etlun)" height="86.1358" id="DataCollector" style="stroke:#A80036;stroke-width:1.0;" width="208.7973" x="121.82" y="162.142"/><ellipse cx="177.2458" cy="178.142" fill="#ADD1B2" rx="11" ry="11" style="stroke:#A80036;stroke-width:1.0;"/><path d="M176.7146,185.0639 Q174.9646,185.0639 173.8239,184.3295 Q172.6989,183.5795 172.1364,182.2357 Q171.5896,180.8764 171.5896,179.0795 Q171.5896,177.0482 172.2458,175.5951 Q172.9021,174.142 174.1833,173.3607 Q175.4646,172.5795 177.3396,172.5795 Q178.2302,172.5795 178.9021,172.767 Q179.5739,172.9389 180.2614,173.2826 L179.4489,175.2982 Q178.8239,174.9857 178.2771,174.8607 Q177.7458,174.7357 177.2614,174.7357 Q176.0896,174.7357 175.3864,175.267 Q174.6833,175.7982 174.3864,176.7514 Q174.0896,177.7045 174.0896,178.9701 Q174.0896,180.9857 174.8083,181.9545 Q175.5271,182.9076 177.1208,182.9076 Q177.7146,182.9076 178.3396,182.7514 Q178.9646,182.5951 179.7927,182.2201 L179.7927,184.4389 Q179.0583,184.7514 178.2614,184.9076 Q177.4802,185.0639 176.7146,185.0639 Z " fill="#000000"/><text fill="#000000" font-family="sans-serif" font-size="14" lengthAdjust="spacing" textLength="89.4457" x="197.7458" y="183.574">DataCollector</text><line style="stroke:#A80036;stroke-width:1.0;" x1="122.82" x2="329.6173" y1="194.142" y2="194.142"/><line style="stroke:#A80036;stroke-width:1.0;" x1="122.82" x2="329.6173" y1="202.142" y2="202.142"/><text fill="#000000" font-family="sans-serif" font-size="14" lengthAdjust="spacing" textLength="196.7973" x="127.82" y="221.1079">readUserDataFromDatabase()</text><text fill="#000000" font-family="sans-serif" font-size="14" lengthAdjust="spacing" textLength="71.2457" x="127.82" y="240.1758">sendData()</text></g><!--class DataAggregator--><g id="elem_DataAggregator"><rect codeLine="45" fill="#FEFECE" filter="url(#f44u1pm9etlun)" height="86.1358" id="DataAggregator" style="stroke:#A80036;stroke-width:1.0;" width="168.0294" x="365.2" y="162.142"/><ellipse cx="393.4452" cy="178.142" fill="#ADD1B2" rx="11" ry="11" style="stroke:#A80036;stroke-width:1.0;"/><path d="M392.9139,185.0639 Q391.1639,185.0639 390.0233,184.3295 Q388.8983,183.5795 388.3358,182.2357 Q387.7889,180.8764 387.7889,179.0795 Q387.7889,177.0482 388.4452,175.5951 Q389.1014,174.142 390.3827,173.3607 Q391.6639,172.5795 393.5389,172.5795 Q394.4296,172.5795 395.1014,172.767 Q395.7733,172.9389 396.4608,173.2826 L395.6483,175.2982 Q395.0233,174.9857 394.4764,174.8607 Q393.9452,174.7357 393.4608,174.7357 Q392.2889,174.7357 391.5858,175.267 Q390.8827,175.7982 390.5858,176.7514 Q390.2889,177.7045 390.2889,178.9701 Q390.2889,180.9857 391.0077,181.9545 Q391.7264,182.9076 393.3202,182.9076 Q393.9139,182.9076 394.5389,182.7514 Q395.1639,182.5951 395.9921,182.2201 L395.9921,184.4389 Q395.2577,184.7514 394.4608,184.9076 Q393.6796,185.0639 392.9139,185.0639 Z " fill="#000000"/><text fill="#000000" font-family="sans-serif" font-size="14" lengthAdjust="spacing" textLength="106.5956" x="410.3886" y="183.574">DataAggregator</text><line style="stroke:#A80036;stroke-width:1.0;" x1="366.2" x2="532.2294" y1="194.142" y2="194.142"/><line style="stroke:#A80036;stroke-width:1.0;" x1="366.2" x2="532.2294" y1="202.142" y2="202.142"/><text fill="#000000" font-family="sans-serif" font-size="14" lengthAdjust="spacing" textLength="124.7955" x="371.2" y="221.1079">calculateProgress()</text><text fill="#000000" font-family="sans-serif" font-size="14" lengthAdjust="spacing" textLength="156.0294" x="371.2" y="240.1758">calculateActivityMatrix()</text></g><!--class AggregatedData--><g id="elem_AggregatedData"><rect codeLine="49" fill="#FEFECE" filter="url(#f44u1pm9etlun)" height="143.3396" id="AggregatedData" style="stroke:#A80036;stroke-width:1.0;" width="158.8315" x="369.8" y="317.812"/><ellipse cx="392.8918" cy="333.812" fill="#ADD1B2" rx="11" ry="11" style="stroke:#A80036;stroke-width:1.0;"/><path d="M392.3606,340.7339 Q390.6106,340.7339 389.47,339.9995 Q388.345,339.2495 387.7825,337.9057 Q387.2356,336.5464 387.2356,334.7495 Q387.2356,332.7182 387.8918,331.2651 Q388.5481,329.812 389.8293,329.0307 Q391.1106,328.2495 392.9856,328.2495 Q393.8762,328.2495 394.5481,328.437 Q395.22,328.6089 395.9075,328.9526 L395.095,330.9682 Q394.47,330.6557 393.9231,330.5307 Q393.3918,330.4057 392.9075,330.4057 Q391.7356,330.4057 391.0325,330.937 Q390.3293,331.4682 390.0325,332.4214 Q389.7356,333.3745 389.7356,334.6401 Q389.7356,336.6557 390.4543,337.6245 Q391.1731,338.5776 392.7668,338.5776 Q393.3606,338.5776 393.9856,338.4214 Q394.6106,338.2651 395.4387,337.8901 L395.4387,340.1089 Q394.7043,340.4214 393.9075,340.5776 Q393.1262,340.7339 392.3606,340.7339 Z " fill="#000000"/><text fill="#000000" font-family="sans-serif" font-size="14" lengthAdjust="spacing" textLength="108.8496" x="408.69" y="339.244">AggregatedData</text><line style="stroke:#A80036;stroke-width:1.0;" x1="370.8" x2="527.6315" y1="349.812" y2="349.812"/><text fill="#000000" font-family="sans-serif" font-size="14" lengthAdjust="spacing" textLength="80.5277" x="375.8" y="368.7779">String name</text><text fill="#000000" font-family="sans-serif" font-size="14" lengthAdjust="spacing" textLength="64.4978" x="375.8" y="387.8458">Integer id</text><text fill="#000000" font-family="sans-serif" font-size="14" lengthAdjust="spacing" textLength="144.1295" x="375.8" y="406.9138">DateTime registration</text><text fill="#000000" font-family="sans-serif" font-size="14" lengthAdjust="spacing" textLength="94.4577" x="375.8" y="425.9817">Float progress</text><text fill="#000000" font-family="sans-serif" font-size="14" lengthAdjust="spacing" textLength="146.8315" x="375.8" y="445.0496">List[List] activityMatrix</text><line style="stroke:#A80036;stroke-width:1.0;" x1="370.8" x2="527.6315" y1="453.1516" y2="453.1516"/></g><!--class ClientConnector--><g id="elem_ClientConnector"><rect codeLine="56" fill="#FEFECE" filter="url(#f44u1pm9etlun)" height="48" id="ClientConnector" style="stroke:#A80036;stroke-width:1.0;" width="138.2176" x="387.11" y="44.602"/><ellipse cx="402.11" cy="60.602" fill="#ADD1B2" rx="11" ry="11" style="stroke:#A80036;stroke-width:1.0;"/><path d="M401.5788,67.5239 Q399.8288,67.5239 398.6881,66.7895 Q397.5631,66.0395 397.0006,64.6957 Q396.4538,63.3364 396.4538,61.5395 Q396.4538,59.5082 397.11,58.0551 Q397.7663,56.602 399.0475,55.8207 Q400.3288,55.0395 402.2038,55.0395 Q403.0944,55.0395 403.7663,55.227 Q404.4381,55.3989 405.1256,55.7426 L404.3131,57.7582 Q403.6881,57.4457 403.1413,57.3207 Q402.61,57.1957 402.1256,57.1957 Q400.9538,57.1957 400.2506,57.727 Q399.5475,58.2582 399.2506,59.2114 Q398.9538,60.1645 398.9538,61.4301 Q398.9538,63.4457 399.6725,64.4145 Q400.3913,65.3676 401.985,65.3676 Q402.5788,65.3676 403.2038,65.2114 Q403.8288,65.0551 404.6569,64.6801 L404.6569,66.8989 Q403.9225,67.2114 403.1256,67.3676 Q402.3444,67.5239 401.5788,67.5239 Z " fill="#000000"/><text fill="#000000" font-family="sans-serif" font-size="14" lengthAdjust="spacing" textLength="106.2176" x="416.11" y="66.034">ClientConnector</text><line style="stroke:#A80036;stroke-width:1.0;" x1="388.11" x2="524.3276" y1="76.602" y2="76.602"/><line style="stroke:#A80036;stroke-width:1.0;" x1="388.11" x2="524.3276" y1="84.602" y2="84.602"/></g><!--link GUI to AggregatedData--><g id="link_GUI_AggregatedData"><path codeLine="60" d="M665.35,257.952 C665.76,276.472 666.23,297.692 666.66,317.552 " fill="none" id="GUI-AggregatedData" style="stroke:#A80036;stroke-width:1.0;"/></g><!--reverse link DataAggregator to AggregatedData--><g id="link_DataAggregator_AggregatedData"><path codeLine="61" d="M449.22,260.482 C449.22,280.992 449.22,294.182 449.22,317.522 " fill="none" id="DataAggregator-backto-AggregatedData" style="stroke:#A80036;stroke-width:1.0;"/><polygon fill="#A80036" points="449.22,248.482,445.22,254.482,449.22,260.482,453.22,254.482,449.22,248.482" style="stroke:#A80036;stroke-width:1.0;"/></g><!--reverse link DataCollector to DataAggregator--><g id="link_DataCollector_DataAggregator"><path codeLine="62" d="M336.75,205.202 C348.17,205.202 353.58,205.202 365,205.202 " fill="none" id="DataCollector-backto-DataAggregator" style="stroke:#A80036;stroke-width:1.0;"/><polygon fill="#A80036" points="330.75,205.202,339.75,209.202,335.75,205.202,339.75,201.202,330.75,205.202" style="stroke:#A80036;stroke-width:1.0;"/></g><!--reverse link ClientConnector to ServerConnector--><g id="link_ClientConnector_ServerConnector"><path codeLine="64" d="M531.55,68.602 C552.5,68.602 567.46,68.602 588.41,68.602 " fill="none" id="ClientConnector-backto-ServerConnector" style="stroke:#A80036;stroke-width:1.0;"/><polygon fill="#A80036" points="525.55,68.602,534.55,72.602,530.55,68.602,534.55,64.602,525.55,68.602" style="stroke:#A80036;stroke-width:1.0;"/></g><!--link ClientConnector to DataAggregator--><g id="link_ClientConnector_DataAggregator"><path codeLine="65" d="M455,93.052 C454.02,111.952 452.9215,133.0501 451.7415,155.7501 " fill="none" id="ClientConnector-to-DataAggregator" style="stroke:#A80036;stroke-width:1.0;"/><polygon fill="#A80036" points="451.43,161.742,455.8918,152.9618,451.6896,156.7487,447.9026,152.5465,451.43,161.742" style="stroke:#A80036;stroke-width:1.0;"/></g><!--reverse link ServerConnector to GUI--><g id="link_ServerConnector_GUI"><path codeLine="66" d="M661.0962,99.0494 C661.5762,115.3894 662.07,131.852 662.68,152.302 " fill="none" id="ServerConnector-backto-GUI" style="stroke:#A80036;stroke-width:1.0;"/><polygon fill="#A80036" points="660.92,93.052,657.186,102.1656,661.0668,98.0498,665.1825,101.9306,660.92,93.052" style="stroke:#A80036;stroke-width:1.0;"/></g><!--reverse link Activity to Result--><g id="link_Activity_Result"><path codeLine="68" d="M313.5,573.752 C324.83,573.752 324.15,573.752 335.48,573.752 " fill="none" id="Activity-backto-Result" style="stroke:#A80036;stroke-width:1.0;"/><polygon fill="none" points="301.5,573.752,307.5,577.752,313.5,573.752,307.5,569.752,301.5,573.752" style="stroke:#A80036;stroke-width:1.0;"/></g><!--reverse link UserData to Activity--><g id="link_UserData_Activity"><path codeLine="69" d="M226.22,463.932 C226.22,486.252 226.22,499.252 226.22,520.682 " fill="none" id="UserData-backto-Activity" style="stroke:#A80036;stroke-width:1.0;"/><polygon fill="none" points="226.22,451.932,222.22,457.932,226.22,463.932,230.22,457.932,226.22,451.932" style="stroke:#A80036;stroke-width:1.0;"/></g><!--reverse link DataCollector to UserData--><g id="link_DataCollector_UserData"><path codeLine="71" d="M226.22,260.482 C226.22,283.832 226.22,301.252 226.22,327.092 " fill="none" id="DataCollector-backto-UserData" style="stroke:#A80036;stroke-width:1.0;"/><polygon fill="#A80036" points="226.22,248.482,222.22,254.482,226.22,260.482,230.22,254.482,226.22,248.482" style="stroke:#A80036;stroke-width:1.0;"/></g><!--reverse link database to DataCollector--><g id="link_database_DataCollector"><path codeLine="73" d="M92.65,205.202 C104.28,205.202 109.91,205.202 121.54,205.202 " fill="none" id="database-backto-DataCollector" style="stroke:#A80036;stroke-width:1.0;"/><polygon fill="#A80036" points="86.65,205.202,95.65,209.202,91.65,205.202,95.65,201.202,86.65,205.202" style="stroke:#A80036;stroke-width:1.0;"/></g><!--SRC=[pLJ1Qjmm4BtxAmPws3QWVC6oa6wRif12w3QdqiFK7hiYihH8uxGbvDyxuyZQMkIOGp7OripepPld9wTxwo66H4rpmlOU1u8E6NzW8jXkF-JNtGuUcwTpoTq1tb2lbyG1MeSfmIU9wWgWY_ZhDeOXKahlCRvzLw9NBTi7oty-8qVxEoTSm4xAU-lerhOyHPeJJmNvQX2e0Paw9PIR70N13-1nf7bzy4m3HR3Tl9HA-cf70jbf4qTa6_oSkPP-3AVCRmxTICKtlNq7N35SqJXIVA2u3zvJoo7EF3IxyO49C87YRsHGs_SKoJEqeIFLJ-FaEz12rV4iPA9uPE6MsBP9CQPqLbIphp6nJhOCPYcjjStpvXu5XEMM6CVJgfKJnJBe5qgJOsccZmpvqK_ZadXSjT4nzi6vit8WMx5RHhoEOLpSbcsHH34D5JFyYxLOee2rwDh92Vl5U1cbn5-mtd_diBspOflQOMAOkyDbHT5C9wD7hfdIIwcBIgLc_G6s9jhX9vkwQbDfQynkRb8JA_khCw5iwbh5gDhK9sbhdcTfidUCevvDAEPioaa8KbcYrL0NabiAwzmpugxytFu2]--></g></svg>