<svg xmlns="http://www.w3.org/2000/svg" xmlns:xlink="http://www.w3.org/1999/xlink" contentStyleType="text/css" height="239px" preserveAspectRatio="none" style="width:382px;height:239px;background:#FFFFFF;" version="1.1" viewBox="0 0 382 239" width="382px" zoomAndPan="magnify"><defs><filter height="300%" id="fp97jvedgy3rj" width="300%" x="-1" y="-1"><feGaussianBlur result="blurOut" stdDeviation="2.0"/><feColorMatrix in="blurOut" result="blurOut2" type="matrix" values="0 0 0 0 0 0 0 0 0 0 0 0 0 0 0 0 0 0 .4 0"/><feOffset dx="4.0" dy="4.0" in="blurOut2" result="blurOut3"/><feBlend in="SourceGraphic" in2="blurOut3" mode="normal"/></filter></defs><g><!--cluster user statistics--><g id="cluster_user statistics"><polygon fill="none" filter="url(#fp97jvedgy3rj)" points="16,6.602,119.7196,6.602,126.7196,31.6699,365,31.6699,365,109.672,16,109.672,16,6.602" style="stroke:#000000;stroke-width:1.5;"/><line style="stroke:#000000;stroke-width:1.5;" x1="16" x2="126.7196" y1="31.6699" y2="31.6699"/><text fill="#000000" font-family="sans-serif" font-size="14" font-weight="bold" lengthAdjust="spacing" textLength="97.7196" x="20" y="23.5679">user statistics</text></g><!--entity UI--><g id="elem_UI"><rect fill="#FEFECE" filter="url(#fp97jvedgy3rj)" height="49.0679" style="stroke:#A80036;stroke-width:1.0;" width="54.9799" x="31.51" y="44.602"/><rect fill="#FEFECE" height="10" style="stroke:#A80036;stroke-width:1.0;" width="15" x="66.4899" y="49.602"/><rect fill="#FEFECE" height="2" style="stroke:#A80036;stroke-width:1.0;" width="4" x="64.4899" y="51.602"/><rect fill="#FEFECE" height="2" style="stroke:#A80036;stroke-width:1.0;" width="4" x="64.4899" y="55.602"/><text fill="#000000" font-family="sans-serif" font-size="14" lengthAdjust="spacing" textLength="14.9799" x="46.51" y="79.5679">UI</text></g><!--entity data collector--><g id="elem_data collector"><rect fill="#FEFECE" filter="url(#fp97jvedgy3rj)" height="49.0679" style="stroke:#A80036;stroke-width:1.0;" width="129.3477" x="219.33" y="44.602"/><rect fill="#FEFECE" height="10" style="stroke:#A80036;stroke-width:1.0;" width="15" x="328.6777" y="49.602"/><rect fill="#FEFECE" height="2" style="stroke:#A80036;stroke-width:1.0;" width="4" x="326.6777" y="51.602"/><rect fill="#FEFECE" height="2" style="stroke:#A80036;stroke-width:1.0;" width="4" x="326.6777" y="55.602"/><text fill="#000000" font-family="sans-serif" font-size="14" lengthAdjust="spacing" textLength="89.3477" x="234.33" y="79.5679">data collector</text></g><!--entity database--><g id="elem_database"><path d="M243.78,184.672 C243.78,174.672 283.9989,174.672 283.9989,174.672 C283.9989,174.672 324.2178,174.672 324.2178,184.672 L324.2178,212.7399 C324.2178,222.7399 283.9989,222.7399 283.9989,222.7399 C283.9989,222.7399 243.78,222.7399 243.78,212.7399 L243.78,184.672 " fill="#FEFECE" filter="url(#fp97jvedgy3rj)" style="stroke:#A80036;stroke-width:1.0;"/><path d="M243.78,184.672 C243.78,194.672 283.9989,194.672 283.9989,194.672 C283.9989,194.672 324.2178,194.672 324.2178,184.672 " fill="none" style="stroke:#A80036;stroke-width:1.0;"/><text fill="#000000" font-family="sans-serif" font-size="14" lengthAdjust="spacing" textLength="60.4378" x="253.78" y="213.6379">database</text></g><!--reverse link UI to data collector--><g id="link_UI_data collector"><path d="M92.59,69.142 C125.33,69.142 175.01,69.142 218.9,69.142 " fill="none" id="UI-backto-data collector" style="stroke:#A80036;stroke-width:1.0;"/><polygon fill="#A80036" points="86.59,69.142,95.59,73.142,91.59,69.142,95.59,65.142,86.59,69.142" style="stroke:#A80036;stroke-width:1.0;"/><text fill="#000000" font-family="sans-serif" font-size="13" lengthAdjust="spacing" textLength="96.8111" x="104.91" y="62.039">sends user data</text></g><!--link data collector to database--><g id="link_data collector_database"><path d="M284,94.132 C284,117.082 284,145.482 284,168.252 " fill="none" id="data collector-to-database" style="stroke:#A80036;stroke-width:1.0;"/><polygon fill="#A80036" points="284,174.252,288,165.252,284,169.252,280,165.252,284,174.252" style="stroke:#A80036;stroke-width:1.0;"/><text fill="#000000" font-family="sans-serif" font-size="13" lengthAdjust="spacing" textLength="88.9851" x="285" y="140.569">read user data</text></g><!--SRC=[POsn2iCm34HtVSMHtJyGIlT-GAUIGRL5CGbniPGfvDzhfHGAdawSxjxfd5VKea9lZZE_1CEcKg76bjLor04x0O_xRN99R8nObaMYbJhHGTHvvCQJjR5-bqFERCFW4ZhE29KrASvj_tLKX73zrfpN2bKu_UK_]--></g></svg>