<svg xmlns="http://www.w3.org/2000/svg" xmlns:xlink="http://www.w3.org/1999/xlink" contentStyleType="text/css" height="240px" preserveAspectRatio="none" style="width:372px;height:240px;background:#FFFFFF;" version="1.1" viewBox="0 0 372 240" width="372px" zoomAndPan="magnify"><defs><filter height="300%" id="fyvy8u6feur6w" width="300%" x="-1" y="-1"><feGaussianBlur result="blurOut" stdDeviation="2.0"/><feColorMatrix in="blurOut" result="blurOut2" type="matrix" values="0 0 0 0 0 0 0 0 0 0 0 0 0 0 0 0 0 0 .4 0"/><feOffset dx="4.0" dy="4.0" in="blurOut2" result="blurOut3"/><feBlend in="SourceGraphic" in2="blurOut3" mode="normal"/></filter></defs><g><!--cluster user statistics--><g id="cluster_user statistics"><rect fill="none" filter="url(#fyvy8u6feur6w)" height="103.07" style="stroke:#000000;stroke-width:1.5;" width="349" x="7" y="7"/><text fill="#000000" font-family="sans-serif" font-size="14" font-weight="bold" lengthAdjust="spacing" textLength="97.7196" x="132.6402" y="23.9659">user statistics</text></g><!--entity UI--><g id="elem_UI"><rect fill="#FEFECE" filter="url(#fyvy8u6feur6w)" height="49.0679" style="stroke:#A80036;stroke-width:1.0;" width="54.9799" x="22.51" y="45"/><rect fill="#FEFECE" height="10" style="stroke:#A80036;stroke-width:1.0;" width="15" x="57.4899" y="50"/><rect fill="#FEFECE" height="2" style="stroke:#A80036;stroke-width:1.0;" width="4" x="55.4899" y="52"/><rect fill="#FEFECE" height="2" style="stroke:#A80036;stroke-width:1.0;" width="4" x="55.4899" y="56"/><text fill="#000000" font-family="sans-serif" font-size="14" lengthAdjust="spacing" textLength="14.9799" x="37.51" y="79.9659">UI</text></g><!--entity data collector--><g id="elem_data collector"><rect fill="#FEFECE" filter="url(#fyvy8u6feur6w)" height="49.0679" style="stroke:#A80036;stroke-width:1.0;" width="129.3477" x="210.33" y="45"/><rect fill="#FEFECE" height="10" style="stroke:#A80036;stroke-width:1.0;" width="15" x="319.6777" y="50"/><rect fill="#FEFECE" height="2" style="stroke:#A80036;stroke-width:1.0;" width="4" x="317.6777" y="52"/><rect fill="#FEFECE" height="2" style="stroke:#A80036;stroke-width:1.0;" width="4" x="317.6777" y="56"/><text fill="#000000" font-family="sans-serif" font-size="14" lengthAdjust="spacing" textLength="89.3477" x="225.33" y="79.9659">data collector</text></g><!--entity database--><g id="elem_database"><path d="M234.78,185.07 C234.78,175.07 274.9989,175.07 274.9989,175.07 C274.9989,175.07 315.2178,175.07 315.2178,185.07 L315.2178,213.1379 C315.2178,223.1379 274.9989,223.1379 274.9989,223.1379 C274.9989,223.1379 234.78,223.1379 234.78,213.1379 L234.78,185.07 " fill="#FEFECE" filter="url(#fyvy8u6feur6w)" style="stroke:#A80036;stroke-width:1.0;"/><path d="M234.78,185.07 C234.78,195.07 274.9989,195.07 274.9989,195.07 C274.9989,195.07 315.2178,195.07 315.2178,185.07 " fill="none" style="stroke:#A80036;stroke-width:1.0;"/><text fill="#000000" font-family="sans-serif" font-size="14" lengthAdjust="spacing" textLength="60.4378" x="244.78" y="214.0359">database</text></g><!--reverse link UI to data collector--><g id="link_UI_data collector"><path d="M83.59,69.54 C116.33,69.54 166.01,69.54 209.9,69.54 " fill="none" id="UI-backto-data collector" style="stroke:#A80036;stroke-width:1.0;"/><polygon fill="#A80036" points="77.59,69.54,86.59,73.54,82.59,69.54,86.59,65.54,77.59,69.54" style="stroke:#A80036;stroke-width:1.0;"/><text fill="#000000" font-family="sans-serif" font-size="13" lengthAdjust="spacing" textLength="96.8111" x="95.91" y="62.437">sends user data</text></g><!--link data collector to database--><g id="link_data collector_database"><path d="M275,94.53 C275,117.48 275,145.88 275,168.65 " fill="none" id="data collector-to-database" style="stroke:#A80036;stroke-width:1.0;"/><polygon fill="#A80036" points="275,174.65,279,165.65,275,169.65,271,165.65,275,174.65" style="stroke:#A80036;stroke-width:1.0;"/><text fill="#000000" font-family="sans-serif" font-size="13" lengthAdjust="spacing" textLength="88.9851" x="276" y="140.967">read user data</text></g><!--SRC=[POr12W8n34NtESLdzhs0Y7iFCAjX5h4DKYmjD74btjrcH12wIlXv_qKVkQ8t5UeIZUkz29QdIeSQMrRBKHUy2DZMw-uZiJ5YAsNmhU_q9feoyk36Ebo_pIK7EpGuXybpWafDYkEttoOhGhXyQ-uRXIwS_lWF]--></g></svg>