<svg xmlns="http://www.w3.org/2000/svg" xmlns:xlink="http://www.w3.org/1999/xlink" contentStyleType="text/css" height="239px" preserveAspectRatio="none" style="width:694px;height:239px;background:#FFFFFF;" version="1.1" viewBox="0 0 694 239" width="694px" zoomAndPan="magnify"><defs><filter height="300%" id="f8n3opxcwxioa" width="300%" x="-1" y="-1"><feGaussianBlur result="blurOut" stdDeviation="2.0"/><feColorMatrix in="blurOut" result="blurOut2" type="matrix" values="0 0 0 0 0 0 0 0 0 0 0 0 0 0 0 0 0 0 .4 0"/><feOffset dx="4.0" dy="4.0" in="blurOut2" result="blurOut3"/><feBlend in="SourceGraphic" in2="blurOut3" mode="normal"/></filter></defs><g><!--cluster user statistics--><g id="cluster_user statistics"><polygon fill="none" filter="url(#f8n3opxcwxioa)" points="16,6.602,119.7196,6.602,126.7196,31.6699,677,31.6699,677,109.672,16,109.672,16,6.602" style="stroke:#000000;stroke-width:1.5;"/><line style="stroke:#000000;stroke-width:1.5;" x1="16" x2="126.7196" y1="31.6699" y2="31.6699"/><text fill="#000000" font-family="sans-serif" font-size="14" font-weight="bold" lengthAdjust="spacing" textLength="97.7196" x="20" y="23.5679">user statistics</text></g><!--entity UI--><g id="elem_UI"><rect fill="#FEFECE" filter="url(#f8n3opxcwxioa)" height="49.0679" style="stroke:#A80036;stroke-width:1.0;" width="54.9799" x="31.51" y="44.602"/><rect fill="#FEFECE" height="10" style="stroke:#A80036;stroke-width:1.0;" width="15" x="66.4899" y="49.602"/><rect fill="#FEFECE" height="2" style="stroke:#A80036;stroke-width:1.0;" width="4" x="64.4899" y="51.602"/><rect fill="#FEFECE" height="2" style="stroke:#A80036;stroke-width:1.0;" width="4" x="64.4899" y="55.602"/><text fill="#000000" font-family="sans-serif" font-size="14" lengthAdjust="spacing" textLength="14.9799" x="46.51" y="79.5679">UI</text></g><!--entity data collector--><g id="elem_data collector"><rect fill="#FEFECE" filter="url(#f8n3opxcwxioa)" height="49.0679" style="stroke:#A80036;stroke-width:1.0;" width="129.3477" x="531.33" y="44.602"/><rect fill="#FEFECE" height="10" style="stroke:#A80036;stroke-width:1.0;" width="15" x="640.6777" y="49.602"/><rect fill="#FEFECE" height="2" style="stroke:#A80036;stroke-width:1.0;" width="4" x="638.6777" y="51.602"/><rect fill="#FEFECE" height="2" style="stroke:#A80036;stroke-width:1.0;" width="4" x="638.6777" y="55.602"/><text fill="#000000" font-family="sans-serif" font-size="14" lengthAdjust="spacing" textLength="89.3477" x="546.33" y="79.5679">data collector</text></g><!--entity data aggregator--><g id="elem_data aggregator"><rect fill="#FEFECE" filter="url(#f8n3opxcwxioa)" height="49.0679" style="stroke:#A80036;stroke-width:1.0;" width="147.5336" x="257.23" y="44.602"/><rect fill="#FEFECE" height="10" style="stroke:#A80036;stroke-width:1.0;" width="15" x="384.7636" y="49.602"/><rect fill="#FEFECE" height="2" style="stroke:#A80036;stroke-width:1.0;" width="4" x="382.7636" y="51.602"/><rect fill="#FEFECE" height="2" style="stroke:#A80036;stroke-width:1.0;" width="4" x="382.7636" y="55.602"/><text fill="#000000" font-family="sans-serif" font-size="14" lengthAdjust="spacing" textLength="107.5336" x="272.23" y="79.5679">data aggregator</text></g><!--entity database--><g id="elem_database"><path d="M555.78,184.672 C555.78,174.672 595.9989,174.672 595.9989,174.672 C595.9989,174.672 636.2178,174.672 636.2178,184.672 L636.2178,212.7399 C636.2178,222.7399 595.9989,222.7399 595.9989,222.7399 C595.9989,222.7399 555.78,222.7399 555.78,212.7399 L555.78,184.672 " fill="#FEFECE" filter="url(#f8n3opxcwxioa)" style="stroke:#A80036;stroke-width:1.0;"/><path d="M555.78,184.672 C555.78,194.672 595.9989,194.672 595.9989,194.672 C595.9989,194.672 636.2178,194.672 636.2178,184.672 " fill="none" style="stroke:#A80036;stroke-width:1.0;"/><text fill="#000000" font-family="sans-serif" font-size="14" lengthAdjust="spacing" textLength="60.4378" x="565.78" y="213.6379">database</text></g><!--reverse link UI to data aggregator--><g id="link_UI_data aggregator"><path d="M92.83,69.142 C132.5,69.142 200.73,69.142 256.97,69.142 " fill="none" id="UI-backto-data aggregator" style="stroke:#A80036;stroke-width:1.0;"/><polygon fill="#A80036" points="86.83,69.142,95.83,73.142,91.83,69.142,95.83,65.142,86.83,69.142" style="stroke:#A80036;stroke-width:1.0;"/><text fill="#000000" font-family="sans-serif" font-size="13" lengthAdjust="spacing" textLength="134.9141" x="104.86" y="62.039">send aggregated data</text></g><!--reverse link data aggregator to data collector--><g id="link_data aggregator_data collector"><path d="M411.17,69.142 C450.67,69.142 492.82,69.142 530.87,69.142 " fill="none" id="data aggregator-backto-data collector" style="stroke:#A80036;stroke-width:1.0;"/><polygon fill="#A80036" points="405.17,69.142,414.17,73.142,410.17,69.142,414.17,65.142,405.17,69.142" style="stroke:#A80036;stroke-width:1.0;"/><text fill="#000000" font-family="sans-serif" font-size="13" lengthAdjust="spacing" textLength="90.5841" x="423.05" y="62.039">send user data</text></g><!--link data collector to database--><g id="link_data collector_database"><path d="M596,94.132 C596,117.082 596,145.482 596,168.252 " fill="none" id="data collector-to-database" style="stroke:#A80036;stroke-width:1.0;"/><polygon fill="#A80036" points="596,174.252,600,165.252,596,169.252,592,165.252,596,174.252" style="stroke:#A80036;stroke-width:1.0;"/><text fill="#000000" font-family="sans-serif" font-size="13" lengthAdjust="spacing" textLength="88.9851" x="597" y="140.569">read user data</text></g><!--SRC=[POv12i8m44NtESMd-rn0nBq7S2LTZCaGGaiZcN4btjrEMqsXguG__ps-37b2BSBkIM6WnEXUmXMYf5aq1-dmTi3zTktjYQI4KCQHWvRQkpMWb2edMfAFSvOzI6RNxsSIkvW6Puy3TeBm5Fy9HrZZg6zm6x6no-uTrGhm_h9IjcNkLwPz_mi0]--></g></svg>