<svg xmlns="http://www.w3.org/2000/svg" xmlns:xlink="http://www.w3.org/1999/xlink" contentStyleType="text/css" height="389px" preserveAspectRatio="none" style="width:608px;height:389px;background:#FFFFFF;" version="1.1" viewBox="0 0 608 389" width="608px" zoomAndPan="magnify"><defs><filter height="300%" id="f1tsvmtag9uwr1" width="300%" x="-1" y="-1"><feGaussianBlur result="blurOut" stdDeviation="2.0"/><feColorMatrix in="blurOut" result="blurOut2" type="matrix" values="0 0 0 0 0 0 0 0 0 0 0 0 0 0 0 0 0 0 .4 0"/><feOffset dx="4.0" dy="4.0" in="blurOut2" result="blurOut3"/><feBlend in="SourceGraphic" in2="blurOut3" mode="normal"/></filter></defs><g><!--cluster client--><g id="cluster_client"><polygon fill="none" filter="url(#f1tsvmtag9uwr1)" points="126,277.672,171.2839,277.672,178.2839,302.7399,212,302.7399,212,380.742,126,380.742,126,277.672" style="stroke:#000000;stroke-width:1.5;"/><line style="stroke:#000000;stroke-width:1.5;" x1="126" x2="178.2839" y1="302.7399" y2="302.7399"/><text fill="#000000" font-family="sans-serif" font-size="14" font-weight="bold" lengthAdjust="spacing" textLength="39.2839" x="130" y="294.6379">client</text></g><!--cluster oldclient--><g id="cluster_oldclient"><polygon fill="none" filter="url(#f1tsvmtag9uwr1)" points="16,277.672,83.0818,277.672,90.0818,302.7399,102,302.7399,102,380.742,16,380.742,16,277.672" style="stroke:#000000;stroke-width:1.5;"/><line style="stroke:#000000;stroke-width:1.5;" x1="16" x2="90.0818" y1="302.7399" y2="302.7399"/><text fill="#000000" font-family="sans-serif" font-size="14" font-weight="bold" lengthAdjust="spacing" textLength="61.0818" x="20" y="294.6379">oldclient</text></g><!--cluster user statistics--><g id="cluster_user statistics"><polygon fill="none" filter="url(#f1tsvmtag9uwr1)" points="92,6.602,195.7196,6.602,202.7196,31.6699,591,31.6699,591,109.672,92,109.672,92,6.602" style="stroke:#000000;stroke-width:1.5;"/><line style="stroke:#000000;stroke-width:1.5;" x1="92" x2="202.7196" y1="31.6699" y2="31.6699"/><text fill="#000000" font-family="sans-serif" font-size="14" font-weight="bold" lengthAdjust="spacing" textLength="97.7196" x="96" y="23.5679">user statistics</text></g><!--entity UI--><g id="elem_UI"><rect fill="#FEFECE" filter="url(#f1tsvmtag9uwr1)" height="49.0679" style="stroke:#A80036;stroke-width:1.0;" width="54.9799" x="141.51" y="315.672"/><rect fill="#FEFECE" height="10" style="stroke:#A80036;stroke-width:1.0;" width="15" x="176.4899" y="320.672"/><rect fill="#FEFECE" height="2" style="stroke:#A80036;stroke-width:1.0;" width="4" x="174.4899" y="322.672"/><rect fill="#FEFECE" height="2" style="stroke:#A80036;stroke-width:1.0;" width="4" x="174.4899" y="326.672"/><text fill="#000000" font-family="sans-serif" font-size="14" lengthAdjust="spacing" textLength="14.9799" x="156.51" y="350.6379">UI</text></g><!--entity oui--><g id="elem_oui"><rect fill="#FEFECE" filter="url(#f1tsvmtag9uwr1)" height="49.0679" style="stroke:#A80036;stroke-width:1.0;" width="54.9799" x="31.51" y="315.672"/><rect fill="#FEFECE" height="10" style="stroke:#A80036;stroke-width:1.0;" width="15" x="66.4899" y="320.672"/><rect fill="#FEFECE" height="2" style="stroke:#A80036;stroke-width:1.0;" width="4" x="64.4899" y="322.672"/><rect fill="#FEFECE" height="2" style="stroke:#A80036;stroke-width:1.0;" width="4" x="64.4899" y="326.672"/><text fill="#000000" font-family="sans-serif" font-size="14" lengthAdjust="spacing" textLength="14.9799" x="46.51" y="350.6379">UI</text></g><!--entity data collector--><g id="elem_data collector"><rect fill="#FEFECE" filter="url(#f1tsvmtag9uwr1)" height="49.0679" style="stroke:#A80036;stroke-width:1.0;" width="129.3477" x="445.33" y="44.602"/><rect fill="#FEFECE" height="10" style="stroke:#A80036;stroke-width:1.0;" width="15" x="554.6777" y="49.602"/><rect fill="#FEFECE" height="2" style="stroke:#A80036;stroke-width:1.0;" width="4" x="552.6777" y="51.602"/><rect fill="#FEFECE" height="2" style="stroke:#A80036;stroke-width:1.0;" width="4" x="552.6777" y="55.602"/><text fill="#000000" font-family="sans-serif" font-size="14" lengthAdjust="spacing" textLength="89.3477" x="460.33" y="79.5679">data collector</text></g><!--entity data aggregator--><g id="elem_data aggregator"><rect fill="#FEFECE" filter="url(#f1tsvmtag9uwr1)" height="49.0679" style="stroke:#A80036;stroke-width:1.0;" width="147.5336" x="263.23" y="44.602"/><rect fill="#FEFECE" height="10" style="stroke:#A80036;stroke-width:1.0;" width="15" x="390.7636" y="49.602"/><rect fill="#FEFECE" height="2" style="stroke:#A80036;stroke-width:1.0;" width="4" x="388.7636" y="51.602"/><rect fill="#FEFECE" height="2" style="stroke:#A80036;stroke-width:1.0;" width="4" x="388.7636" y="55.602"/><text fill="#000000" font-family="sans-serif" font-size="14" lengthAdjust="spacing" textLength="107.5336" x="278.23" y="79.5679">data aggregator</text></g><!--entity rest adapter--><g id="elem_rest adapter"><rect fill="#FEFECE" filter="url(#f1tsvmtag9uwr1)" height="49.0679" style="stroke:#A80036;stroke-width:1.0;" width="120.7377" x="107.63" y="44.602"/><rect fill="#FEFECE" height="10" style="stroke:#A80036;stroke-width:1.0;" width="15" x="208.3677" y="49.602"/><rect fill="#FEFECE" height="2" style="stroke:#A80036;stroke-width:1.0;" width="4" x="206.3677" y="51.602"/><rect fill="#FEFECE" height="2" style="stroke:#A80036;stroke-width:1.0;" width="4" x="206.3677" y="55.602"/><text fill="#000000" font-family="sans-serif" font-size="14" lengthAdjust="spacing" textLength="80.7377" x="122.63" y="79.5679">rest adapter</text></g><!--entity database--><g id="elem_database"><path d="M469.78,326.172 C469.78,316.172 509.9989,316.172 509.9989,316.172 C509.9989,316.172 550.2178,316.172 550.2178,326.172 L550.2178,354.2399 C550.2178,364.2399 509.9989,364.2399 509.9989,364.2399 C509.9989,364.2399 469.78,364.2399 469.78,354.2399 L469.78,326.172 " fill="#FEFECE" filter="url(#f1tsvmtag9uwr1)" style="stroke:#A80036;stroke-width:1.0;"/><path d="M469.78,326.172 C469.78,336.172 509.9989,336.172 509.9989,336.172 C509.9989,336.172 550.2178,336.172 550.2178,326.172 " fill="none" style="stroke:#A80036;stroke-width:1.0;"/><text fill="#000000" font-family="sans-serif" font-size="14" lengthAdjust="spacing" textLength="60.4378" x="479.78" y="355.1379">database</text></g><!--entity da--><g id="elem_da"><ellipse cx="510" cy="204.672" fill="#FEFECE" filter="url(#f1tsvmtag9uwr1)" rx="8" ry="8" style="stroke:#A80036;stroke-width:1.0;"/><text fill="#000000" font-family="sans-serif" font-size="14" lengthAdjust="spacing" textLength="132.2435" x="443.8782" y="236.6379">PostgreSQL adapter</text><text fill="#000000" font-family="sans-serif" font-size="14" lengthAdjust="spacing" textLength="74.7737" x="443.8782" y="255.7058">(Psycopg 3)</text></g><!--entity rest1--><g id="elem_rest1"><ellipse cx="277" cy="204.672" fill="#FF0000" filter="url(#f1tsvmtag9uwr1)" rx="8" ry="8" style="stroke:#A80036;stroke-width:1.0;"/><text fill="#000000" font-family="sans-serif" font-size="14" lengthAdjust="spacing" textLength="34.4119" x="247.4391" y="236.6379">HTTP</text><text fill="#000000" font-family="sans-serif" font-size="14" lengthAdjust="spacing" textLength="59.1217" x="247.4391" y="255.7058">(REST) v1</text></g><!--entity rest2--><g id="elem_rest2"><ellipse cx="59" cy="204.672" fill="#FFFF00" filter="url(#f1tsvmtag9uwr1)" rx="8" ry="8" style="stroke:#A80036;stroke-width:1.0;"/><text fill="#000000" font-family="sans-serif" font-size="14" lengthAdjust="spacing" textLength="34.4119" x="29.4391" y="236.6379">HTTP</text><text fill="#000000" font-family="sans-serif" font-size="14" lengthAdjust="spacing" textLength="59.1217" x="29.4391" y="255.7058">(REST) v2</text></g><!--entity rest3--><g id="elem_rest3"><ellipse cx="168" cy="204.672" fill="#ADFF2F" filter="url(#f1tsvmtag9uwr1)" rx="8" ry="8" style="stroke:#A80036;stroke-width:1.0;"/><text fill="#000000" font-family="sans-serif" font-size="14" lengthAdjust="spacing" textLength="34.4119" x="138.4391" y="236.6379">HTTP</text><text fill="#000000" font-family="sans-serif" font-size="14" lengthAdjust="spacing" textLength="59.1217" x="138.4391" y="255.7058">(REST) v3</text></g><!--link rest adapter to rest1--><g id="link_rest adapter_rest1"><path d="M187.49,94.012 C212.47,124.622 254.48,176.082 270.51,195.722 " fill="none" id="rest adapter-rest1" style="stroke:#A80036;stroke-width:1.0;"/></g><!--link rest adapter to rest2--><g id="link_rest adapter_rest2"><path d="M148.51,94.012 C123.53,124.622 81.52,176.082 65.49,195.722 " fill="none" id="rest adapter-rest2" style="stroke:#A80036;stroke-width:1.0;"/></g><!--link rest adapter to rest3--><g id="link_rest adapter_rest3"><path d="M168,94.012 C168,124.622 168,176.082 168,195.722 " fill="none" id="rest adapter-rest3" style="stroke:#A80036;stroke-width:1.0;"/></g><!--link data collector to da--><g id="link_data collector_da"><path d="M510,94.012 C510,124.622 510,176.082 510,195.722 " fill="none" id="data collector-da" style="stroke:#A80036;stroke-width:1.0;"/></g><!--link da to database--><g id="link_da_database"><path d="M510,213.632 C510,233.392 510,285.332 510,315.872 " fill="none" id="da-database" style="stroke:#A80036;stroke-width:1.0;"/></g><!--link rest3 to UI--><g id="link_rest3_UI"><path d="M168.06,213.632 C168.21,233.282 168.59,284.742 168.82,315.352 " fill="none" id="rest3-UI" style="stroke:#A80036;stroke-width:1.0;"/></g><!--link rest2 to oui--><g id="link_rest2_oui"><path d="M59,213.632 C59,233.282 59,284.742 59,315.352 " fill="none" id="rest2-oui" style="stroke:#A80036;stroke-width:1.0;"/></g><!--reverse link rest adapter to data aggregator--><g id="link_rest adapter_data aggregator"><path d="M234.73,69.142 C246.15,69.142 251.57,69.142 262.99,69.142 " fill="none" id="rest adapter-backto-data aggregator" style="stroke:#A80036;stroke-width:1.0;"/><polygon fill="#A80036" points="228.73,69.142,237.73,73.142,233.73,69.142,237.73,65.142,228.73,69.142" style="stroke:#A80036;stroke-width:1.0;"/></g><!--reverse link data aggregator to data collector--><g id="link_data aggregator_data collector"><path d="M417,69.142 C428.34,69.142 433.69,69.142 445.03,69.142 " fill="none" id="data aggregator-backto-data collector" style="stroke:#A80036;stroke-width:1.0;"/><polygon fill="#A80036" points="411,69.142,420,73.142,416,69.142,420,65.142,411,69.142" style="stroke:#A80036;stroke-width:1.0;"/></g><!--SRC=[VP4zJyCm48Pt_ufJij0XGvEL5G4IGsZJ0PKCXtr4LYqxiXsg2l7ViKcTq4AxsVS-zzwNsqaDrZXYFV8TTWHSIT8UFXd0TlFOigz9CKgCOj807PX1_aAomP45vz5BvoLtsUWZq2DmenHnRsmxXR3hB7MOOfQS1nJOUxAnC8lG6xhWcrxHC2fI1-OTUP1gutomMJy_fTnNVLEx0pTz1zKYYrqAF4bvQ9ewGAkxTRE0Z-KF4eil8L-Hk4oM4rb2_a9AcVrbk9hW2l9xIwIF6OoTJWg5C7jTZ1rSqKgu8bOGRC_sdFGmlS3qsQPLjY4X7h4O-gC52yUSl-LvjTlYdxEnFw6Pcplv1W00]--></g></svg>