<svg xmlns="http://www.w3.org/2000/svg" xmlns:xlink="http://www.w3.org/1999/xlink" contentStyleType="text/css" height="124px" preserveAspectRatio="none" style="width:410px;height:124px;background:#FFFFFF;" version="1.1" viewBox="0 0 410 124" width="410px" zoomAndPan="magnify"><defs/><g><line style="stroke:#C0C0C0;stroke-width:1.0;" x1="0" x2="0" y1="0" y2="16"/><line style="stroke:#C0C0C0;stroke-width:1.0;" x1="103.04" x2="103.04" y1="0" y2="16"/><text fill="#000000" font-family="sans-serif" font-size="14" font-weight="bold" lengthAdjust="spacing" textLength="32.0319" x="35.5041" y="14.9659">2020</text><line style="stroke:#C0C0C0;stroke-width:1.0;" x1="307.44" x2="307.44" y1="0" y2="16"/><text fill="#000000" font-family="sans-serif" font-size="14" font-weight="bold" lengthAdjust="spacing" textLength="32.0319" x="189.2241" y="14.9659">2021</text><text fill="#000000" font-family="sans-serif" font-size="14" font-weight="bold" lengthAdjust="spacing" textLength="32.0319" x="342.1041" y="14.9659">2022</text><line style="stroke:#C0C0C0;stroke-width:1.0;" x1="408.8" x2="408.8" y1="0" y2="16"/><line style="stroke:#C0C0C0;stroke-width:1.0;" x1="0" x2="0" y1="16" y2="32"/><line style="stroke:#C0C0C0;stroke-width:1.0;" x1="51.52" x2="51.52" y1="16" y2="32"/><text fill="#000000" font-family="sans-serif" font-size="14" lengthAdjust="spacing" textLength="18.9419" x="16.289" y="30.9659">Q3</text><line style="stroke:#C0C0C0;stroke-width:1.0;" x1="103.04" x2="103.04" y1="16" y2="32"/><text fill="#000000" font-family="sans-serif" font-size="14" lengthAdjust="spacing" textLength="18.9419" x="67.809" y="30.9659">Q4</text><line style="stroke:#C0C0C0;stroke-width:1.0;" x1="153.44" x2="153.44" y1="16" y2="32"/><text fill="#000000" font-family="sans-serif" font-size="14" lengthAdjust="spacing" textLength="18.9419" x="118.769" y="30.9659">Q1</text><line style="stroke:#C0C0C0;stroke-width:1.0;" x1="204.4" x2="204.4" y1="16" y2="32"/><text fill="#000000" font-family="sans-serif" font-size="14" lengthAdjust="spacing" textLength="18.9419" x="169.449" y="30.9659">Q2</text><line style="stroke:#C0C0C0;stroke-width:1.0;" x1="255.92" x2="255.92" y1="16" y2="32"/><text fill="#000000" font-family="sans-serif" font-size="14" lengthAdjust="spacing" textLength="18.9419" x="220.689" y="30.9659">Q3</text><line style="stroke:#C0C0C0;stroke-width:1.0;" x1="307.44" x2="307.44" y1="16" y2="32"/><text fill="#000000" font-family="sans-serif" font-size="14" lengthAdjust="spacing" textLength="18.9419" x="272.209" y="30.9659">Q4</text><line style="stroke:#C0C0C0;stroke-width:1.0;" x1="357.84" x2="357.84" y1="16" y2="32"/><text fill="#000000" font-family="sans-serif" font-size="14" lengthAdjust="spacing" textLength="18.9419" x="323.169" y="30.9659">Q1</text><text fill="#000000" font-family="sans-serif" font-size="14" lengthAdjust="spacing" textLength="18.9419" x="373.849" y="30.9659">Q2</text><line style="stroke:#C0C0C0;stroke-width:1.0;" x1="408.8" x2="408.8" y1="16" y2="32"/><line style="stroke:#C0C0C0;stroke-width:1.0;" x1="0" x2="408.8" y1="0" y2="0"/><line style="stroke:#C0C0C0;stroke-width:1.0;" x1="0" x2="408.8" y1="16" y2="16"/><line style="stroke:#C0C0C0;stroke-width:1.0;" x1="0" x2="408.8" y1="32" y2="32"/><rect fill="#FF0000" height="14.9819" style="stroke:none;stroke-width:1.0;" width="200.4" x="2" y="35"/><line style="stroke:#A80036;stroke-width:1.0;" x1="2" x2="202.4" y1="35" y2="35"/><line style="stroke:#A80036;stroke-width:1.0;" x1="2" x2="202.4" y1="49.9819" y2="49.9819"/><line style="stroke:#A80036;stroke-width:1.0;" x1="2" x2="2" y1="35" y2="49.9819"/><line style="stroke:#A80036;stroke-width:1.0;" x1="202.4" x2="202.4" y1="35" y2="49.9819"/><rect fill="#FFFF00" height="14.9819" style="stroke:none;stroke-width:1.0;" width="200.4" x="105.04" y="53.9819"/><line style="stroke:#A80036;stroke-width:1.0;" x1="105.04" x2="305.44" y1="53.9819" y2="53.9819"/><line style="stroke:#A80036;stroke-width:1.0;" x1="105.04" x2="305.44" y1="68.9638" y2="68.9638"/><line style="stroke:#A80036;stroke-width:1.0;" x1="105.04" x2="105.04" y1="53.9819" y2="68.9638"/><line style="stroke:#A80036;stroke-width:1.0;" x1="305.44" x2="305.44" y1="53.9819" y2="68.9638"/><rect fill="#ADFF2F" height="14.9819" style="stroke:none;stroke-width:1.0;" width="200.4" x="206.4" y="72.9638"/><line style="stroke:#A80036;stroke-width:1.0;" x1="206.4" x2="406.8" y1="72.9638" y2="72.9638"/><line style="stroke:#A80036;stroke-width:1.0;" x1="206.4" x2="406.8" y1="87.9457" y2="87.9457"/><line style="stroke:#A80036;stroke-width:1.0;" x1="206.4" x2="206.4" y1="72.9638" y2="87.9457"/><line style="stroke:#A80036;stroke-width:1.0;" x1="406.8" x2="406.8" y1="72.9638" y2="87.9457"/><text fill="#000000" font-family="sans-serif" font-size="11" lengthAdjust="spacing" textLength="11.8799" x="6" y="46.7589">v1</text><text fill="#000000" font-family="sans-serif" font-size="11" lengthAdjust="spacing" textLength="11.8799" x="109.04" y="65.7408">v2</text><text fill="#000000" font-family="sans-serif" font-size="11" lengthAdjust="spacing" textLength="11.8799" x="210.4" y="84.7227">v3</text><line style="stroke:#C0C0C0;stroke-width:1.0;" x1="0" x2="0" y1="89.9457" y2="105.9457"/><line style="stroke:#C0C0C0;stroke-width:1.0;" x1="51.52" x2="51.52" y1="89.9457" y2="105.9457"/><text fill="#000000" font-family="sans-serif" font-size="14" lengthAdjust="spacing" textLength="18.9419" x="16.289" y="104.9116">Q3</text><line style="stroke:#C0C0C0;stroke-width:1.0;" x1="103.04" x2="103.04" y1="89.9457" y2="105.9457"/><text fill="#000000" font-family="sans-serif" font-size="14" lengthAdjust="spacing" textLength="18.9419" x="67.809" y="104.9116">Q4</text><line style="stroke:#C0C0C0;stroke-width:1.0;" x1="153.44" x2="153.44" y1="89.9457" y2="105.9457"/><text fill="#000000" font-family="sans-serif" font-size="14" lengthAdjust="spacing" textLength="18.9419" x="118.769" y="104.9116">Q1</text><line style="stroke:#C0C0C0;stroke-width:1.0;" x1="204.4" x2="204.4" y1="89.9457" y2="105.9457"/><text fill="#000000" font-family="sans-serif" font-size="14" lengthAdjust="spacing" textLength="18.9419" x="169.449" y="104.9116">Q2</text><line style="stroke:#C0C0C0;stroke-width:1.0;" x1="255.92" x2="255.92" y1="89.9457" y2="105.9457"/><text fill="#000000" font-family="sans-serif" font-size="14" lengthAdjust="spacing" textLength="18.9419" x="220.689" y="104.9116">Q3</text><line style="stroke:#C0C0C0;stroke-width:1.0;" x1="307.44" x2="307.44" y1="89.9457" y2="105.9457"/><text fill="#000000" font-family="sans-serif" font-size="14" lengthAdjust="spacing" textLength="18.9419" x="272.209" y="104.9116">Q4</text><line style="stroke:#C0C0C0;stroke-width:1.0;" x1="357.84" x2="357.84" y1="89.9457" y2="105.9457"/><text fill="#000000" font-family="sans-serif" font-size="14" lengthAdjust="spacing" textLength="18.9419" x="323.169" y="104.9116">Q1</text><text fill="#000000" font-family="sans-serif" font-size="14" lengthAdjust="spacing" textLength="18.9419" x="373.849" y="104.9116">Q2</text><line style="stroke:#C0C0C0;stroke-width:1.0;" x1="408.8" x2="408.8" y1="89.9457" y2="105.9457"/><line style="stroke:#C0C0C0;stroke-width:1.0;" x1="0" x2="0" y1="105.9457" y2="121.9457"/><line style="stroke:#C0C0C0;stroke-width:1.0;" x1="103.04" x2="103.04" y1="105.9457" y2="121.9457"/><text fill="#000000" font-family="sans-serif" font-size="14" font-weight="bold" lengthAdjust="spacing" textLength="32.0319" x="35.5041" y="120.9116">2020</text><line style="stroke:#C0C0C0;stroke-width:1.0;" x1="307.44" x2="307.44" y1="105.9457" y2="121.9457"/><text fill="#000000" font-family="sans-serif" font-size="14" font-weight="bold" lengthAdjust="spacing" textLength="32.0319" x="189.2241" y="120.9116">2021</text><text fill="#000000" font-family="sans-serif" font-size="14" font-weight="bold" lengthAdjust="spacing" textLength="32.0319" x="342.1041" y="120.9116">2022</text><line style="stroke:#C0C0C0;stroke-width:1.0;" x1="408.8" x2="408.8" y1="105.9457" y2="121.9457"/><line style="stroke:#C0C0C0;stroke-width:1.0;" x1="0" x2="408.8" y1="89.9457" y2="89.9457"/><line style="stroke:#C0C0C0;stroke-width:1.0;" x1="0" x2="408.8" y1="105.9457" y2="105.9457"/><line style="stroke:#C0C0C0;stroke-width:1.0;" x1="0" x2="408.8" y1="121.9457" y2="121.9457"/><!--SRC=[TP1FJm8n5CJl_HGlyIA7nPP5bko928X1Y8H_YJ4UwkvphIujlBPh-FPsGQCIFJMPcJU_INlMINA5rCun-wOqaB78PcHUCNDmC2sqU8j7F8cuO5jIsjbCbWWx7qoaSiyUAl48X3kl22t4dKl8vTu6kVMt7F-R_WHALpD50DRCmy6fanoT05OMCbCQmXp2_Zdc5sUootdSELR-jk-nBCtxZqHycXWHeZw9zL3dnpzYipAyg-a4AYIhZ0RH38FQpUHy4ROjS0iy0H6defkA1Fh3nR8Ut6wmyz5i0jPuoX1oPHsf9-z2GOEDPILXxhLJ6qpXRejwFBZz4c2eAqL6Rr0xDbvFlmETTdIbQYI5AR2UiW4-Ir-wS96PNEaYXTNoEkgoYTI5bqNeVl6iRq8lxLEuMNq0]--></g></svg>