<svg xmlns="http://www.w3.org/2000/svg" xmlns:xlink="http://www.w3.org/1999/xlink" contentStyleType="text/css" height="329px" preserveAspectRatio="none" style="width:316px;height:329px;background:#FFFFFF;" version="1.1" viewBox="0 0 316 329" width="316px" zoomAndPan="magnify"><defs><filter height="300%" id="f68g2uunm3ixe" width="300%" x="-1" y="-1"><feGaussianBlur result="blurOut" stdDeviation="2.0"/><feColorMatrix in="blurOut" result="blurOut2" type="matrix" values="0 0 0 0 0 0 0 0 0 0 0 0 0 0 0 0 0 0 .4 0"/><feOffset dx="4.0" dy="4.0" in="blurOut2" result="blurOut3"/><feBlend in="SourceGraphic" in2="blurOut3" mode="normal"/></filter></defs><g><rect fill="#FFFFFF" filter="url(#f68g2uunm3ixe)" height="31.706" style="stroke:#A80036;stroke-width:1.0;" width="10" x="128.1571" y="198.892"/><rect fill="#FFFFFF" filter="url(#f68g2uunm3ixe)" height="31.706" style="stroke:#A80036;stroke-width:1.0;" width="10" x="276.7442" y="103.7739"/><rect fill="#FFFFFF" filter="url(#f68g2uunm3ixe)" height="31.706" style="stroke:#A80036;stroke-width:1.0;" width="10" x="276.7442" y="167.186"/><line style="stroke:#A80036;stroke-width:1.0;stroke-dasharray:5.0,5.0;" x1="21" x2="21" y1="70.0679" y2="248.598"/><line style="stroke:#A80036;stroke-width:1.0;stroke-dasharray:5.0,5.0;" x1="132.4832" x2="132.4832" y1="70.0679" y2="248.598"/><line style="stroke:#A80036;stroke-width:1.0;stroke-dasharray:5.0,5.0;" x1="281.5253" x2="281.5253" y1="70.0679" y2="248.598"/><rect fill="#FEFECE" filter="url(#f68g2uunm3ixe)" height="33.0679" style="stroke:#A80036;stroke-width:1.5;" width="28.9799" x="5" y="32"/><text fill="#000000" font-family="sans-serif" font-size="14" lengthAdjust="spacing" textLength="14.9799" x="12" y="53.9659">UI</text><rect fill="#FEFECE" filter="url(#f68g2uunm3ixe)" height="33.0679" style="stroke:#A80036;stroke-width:1.5;" width="28.9799" x="5" y="247.598"/><text fill="#000000" font-family="sans-serif" font-size="14" lengthAdjust="spacing" textLength="14.9799" x="12" y="269.5639">UI</text><rect fill="#FEFECE" filter="url(#f68g2uunm3ixe)" height="33.0679" style="stroke:#A80036;stroke-width:1.5;" width="103.3477" x="79.4832" y="32"/><text fill="#000000" font-family="sans-serif" font-size="14" lengthAdjust="spacing" textLength="89.3477" x="86.4832" y="53.9659">data collector</text><rect fill="#FEFECE" filter="url(#f68g2uunm3ixe)" height="33.0679" style="stroke:#A80036;stroke-width:1.5;" width="103.3477" x="79.4832" y="247.598"/><text fill="#000000" font-family="sans-serif" font-size="14" lengthAdjust="spacing" textLength="89.3477" x="86.4832" y="269.5639">data collector</text><text fill="#000000" font-family="sans-serif" font-size="14" lengthAdjust="spacing" textLength="60.4378" x="248.5253" y="65.9659">database</text><path d="M263.7442,15 C263.7442,5 281.7442,5 281.7442,5 C281.7442,5 299.7442,5 299.7442,15 L299.7442,41 C299.7442,51 281.7442,51 281.7442,51 C281.7442,51 263.7442,51 263.7442,41 L263.7442,15 " fill="#FEFECE" filter="url(#f68g2uunm3ixe)" style="stroke:#A80036;stroke-width:1.5;"/><path d="M263.7442,15 C263.7442,25 281.7442,25 281.7442,25 C281.7442,25 299.7442,25 299.7442,15 " fill="none" style="stroke:#A80036;stroke-width:1.5;"/><text fill="#000000" font-family="sans-serif" font-size="14" lengthAdjust="spacing" textLength="60.4378" x="248.5253" y="262.5639">database</text><path d="M263.7442,276.6659 C263.7442,266.6659 281.7442,266.6659 281.7442,266.6659 C281.7442,266.6659 299.7442,266.6659 299.7442,276.6659 L299.7442,302.6659 C299.7442,312.6659 281.7442,312.6659 281.7442,312.6659 C281.7442,312.6659 263.7442,312.6659 263.7442,302.6659 L263.7442,276.6659 " fill="#FEFECE" filter="url(#f68g2uunm3ixe)" style="stroke:#A80036;stroke-width:1.5;"/><path d="M263.7442,276.6659 C263.7442,286.6659 281.7442,286.6659 281.7442,286.6659 C281.7442,286.6659 299.7442,286.6659 299.7442,276.6659 " fill="none" style="stroke:#A80036;stroke-width:1.5;"/><rect fill="#FFFFFF" filter="url(#f68g2uunm3ixe)" height="31.706" style="stroke:#A80036;stroke-width:1.0;" width="10" x="128.1571" y="198.892"/><rect fill="#FFFFFF" filter="url(#f68g2uunm3ixe)" height="31.706" style="stroke:#A80036;stroke-width:1.0;" width="10" x="276.7442" y="103.7739"/><rect fill="#FFFFFF" filter="url(#f68g2uunm3ixe)" height="31.706" style="stroke:#A80036;stroke-width:1.0;" width="10" x="276.7442" y="167.186"/><polygon fill="#A80036" points="264.7442,99.7739,274.7442,103.7739,264.7442,107.7739,268.7442,103.7739" style="stroke:#A80036;stroke-width:1.0;"/><line style="stroke:#A80036;stroke-width:1.0;" x1="133.1571" x2="270.7442" y1="103.7739" y2="103.7739"/><text fill="#000000" font-family="sans-serif" font-size="13" lengthAdjust="spacing" textLength="81.6011" x="140.1571" y="97.9649">query activity</text><polygon fill="#A80036" points="144.1571,131.4799,134.1571,135.4799,144.1571,139.4799,140.1571,135.4799" style="stroke:#A80036;stroke-width:1.0;"/><line style="stroke:#A80036;stroke-width:1.0;" x1="138.1571" x2="280.7442" y1="135.4799" y2="135.4799"/><text fill="#000000" font-family="sans-serif" font-size="13" lengthAdjust="spacing" textLength="117.5331" x="150.1571" y="129.6709">aggregated activity</text><polygon fill="#A80036" points="264.7442,163.186,274.7442,167.186,264.7442,171.186,268.7442,167.186" style="stroke:#A80036;stroke-width:1.0;"/><line style="stroke:#A80036;stroke-width:1.0;" x1="133.1571" x2="270.7442" y1="167.186" y2="167.186"/><text fill="#000000" font-family="sans-serif" font-size="13" lengthAdjust="spacing" textLength="93.1191" x="140.1571" y="161.377">query progress</text><polygon fill="#A80036" points="149.1571,194.892,139.1571,198.892,149.1571,202.892,145.1571,198.892" style="stroke:#A80036;stroke-width:1.0;"/><line style="stroke:#A80036;stroke-width:1.0;" x1="143.1571" x2="280.7442" y1="198.892" y2="198.892"/><text fill="#000000" font-family="sans-serif" font-size="13" lengthAdjust="spacing" textLength="119.5871" x="155.1571" y="193.083">calculated progress</text><polygon fill="#A80036" points="32.49,226.598,22.49,230.598,32.49,234.598,28.49,230.598" style="stroke:#A80036;stroke-width:1.0;"/><line style="stroke:#A80036;stroke-width:1.0;" x1="26.49" x2="132.1571" y1="230.598" y2="230.598"/><text fill="#000000" font-family="sans-serif" font-size="13" lengthAdjust="spacing" textLength="82.6671" x="38.49" y="224.789">uset statistics</text><!--SRC=[PP0n3iCW34LtJc5roTGBPEZU0_G0Zh4YL0IfRIBbzeMeIeAwFJuFVmjzXmIIbTs2Oe72WidWzGHKAA4BRnuDWNACJ9RbrXHFhgKJAiC1BP-SymJtHwKHFeLb0oGBQx3DxO36pVBJBj48EC_2SutzQNg-kcwGb2lcbQMT1m0f2PJRGcxWvFVx_-P5SfsjsZLVgWaZbRXN7sfVVJBzffSmGb4sK4CBMd-fVqFk2m00]--></g></svg>