<svg xmlns="http://www.w3.org/2000/svg" xmlns:xlink="http://www.w3.org/1999/xlink" contentStyleType="text/css" height="429px" preserveAspectRatio="none" style="width:512px;height:429px;background:#FFFFFF;" version="1.1" viewBox="0 0 512 429" width="512px" zoomAndPan="magnify"><defs/><g><rect fill="#FFFFFF" height="92.2717" rx="5" ry="5" style="stroke:#FFFFFF;stroke-width:1.0;" width="176.8974" x="5" y="120.466"/><text fill="#000000" font-family="Verdana" font-size="14" font-weight="bold" lengthAdjust="spacing" textLength="39.6758" x="10" y="137.432">name</text><text fill="#000000" font-family="Verdana" font-size="14" lengthAdjust="spacing" textLength="45.7098" x="103.8177" y="137.432">Marvin</text><line style="stroke:#000000;stroke-width:1.0;" x1="98.8177" x2="98.8177" y1="120.466" y2="143.534"/><line style="stroke:#000000;stroke-width:1.0;" x1="5" x2="181.8974" y1="143.534" y2="143.534"/><text fill="#000000" font-family="Verdana" font-size="14" font-weight="bold" lengthAdjust="spacing" textLength="13.132" x="10" y="160.4999">id</text><text fill="#000000" font-family="Verdana" font-size="14" lengthAdjust="spacing" textLength="16.0159" x="103.8177" y="160.4999">42</text><line style="stroke:#000000;stroke-width:1.0;" x1="98.8177" x2="98.8177" y1="143.534" y2="166.6019"/><line style="stroke:#000000;stroke-width:1.0;" x1="5" x2="181.8974" y1="166.6019" y2="166.6019"/><text fill="#000000" font-family="Verdana" font-size="14" font-weight="bold" lengthAdjust="spacing" textLength="83.8177" x="10" y="183.5678">registration</text><text fill="#000000" font-family="Verdana" font-size="14" lengthAdjust="spacing" textLength="73.0797" x="103.8177" y="183.5678">2019-10-02</text><line style="stroke:#000000;stroke-width:1.0;" x1="98.8177" x2="98.8177" y1="166.6019" y2="189.6698"/><line style="stroke:#000000;stroke-width:1.0;" x1="5" x2="181.8974" y1="189.6698" y2="189.6698"/><text fill="#000000" font-family="Verdana" font-size="14" font-weight="bold" lengthAdjust="spacing" textLength="63.8118" x="10" y="206.6357">activities</text><text fill="#000000" font-family="Verdana" font-size="14" lengthAdjust="spacing" textLength="10.92" x="103.8177" y="206.6357">&#160;&#160;&#160;</text><line style="stroke:#000000;stroke-width:1.0;" x1="98.8177" x2="98.8177" y1="189.6698" y2="212.7377"/><rect fill="none" height="92.2717" rx="5" ry="5" style="stroke:#000000;stroke-width:1.0;" width="176.8974" x="5" y="120.466"/><rect fill="#FFFFFF" height="138.4075" rx="5" ry="5" style="stroke:#FFFFFF;stroke-width:1.0;" width="21.256" x="219" y="132.3981"/><text fill="#000000" font-family="Verdana" font-size="14" lengthAdjust="spacing" textLength="10.92" x="224" y="149.3641">&#160;&#160;&#160;</text><line style="stroke:#000000;stroke-width:1.0;" x1="219" x2="240.256" y1="155.466" y2="155.466"/><text fill="#000000" font-family="Verdana" font-size="14" lengthAdjust="spacing" textLength="11.256" x="224" y="172.432">...</text><line style="stroke:#000000;stroke-width:1.0;" x1="219" x2="240.256" y1="178.534" y2="178.534"/><text fill="#000000" font-family="Verdana" font-size="14" lengthAdjust="spacing" textLength="10.92" x="224" y="195.4999">&#160;&#160;&#160;</text><line style="stroke:#000000;stroke-width:1.0;" x1="219" x2="240.256" y1="201.6019" y2="201.6019"/><text fill="#000000" font-family="Verdana" font-size="14" lengthAdjust="spacing" textLength="10.92" x="224" y="218.5678">&#160;&#160;&#160;</text><line style="stroke:#000000;stroke-width:1.0;" x1="219" x2="240.256" y1="224.6698" y2="224.6698"/><text fill="#000000" font-family="Verdana" font-size="14" lengthAdjust="spacing" textLength="10.92" x="224" y="241.6357">&#160;&#160;&#160;</text><line style="stroke:#000000;stroke-width:1.0;" x1="219" x2="240.256" y1="247.7377" y2="247.7377"/><text fill="#000000" font-family="Verdana" font-size="14" lengthAdjust="spacing" textLength="10.92" x="224" y="264.7036">&#160;&#160;&#160;</text><rect fill="none" height="138.4075" rx="5" ry="5" style="stroke:#000000;stroke-width:1.0;" width="21.256" x="219" y="132.3981"/><rect fill="#FFFFFF" height="69.2038" rx="5" ry="5" style="stroke:#FFFFFF;stroke-width:1.0;" width="228.7391" x="277" y="5"/><text fill="#000000" font-family="Verdana" font-size="14" font-weight="bold" lengthAdjust="spacing" textLength="76.4677" x="282" y="21.9659">timestamp</text><text fill="#000000" font-family="Verdana" font-size="14" lengthAdjust="spacing" textLength="73.0797" x="368.4677" y="21.9659">2024-09-03</text><text fill="#000000" font-family="Verdana" font-size="14" lengthAdjust="spacing" textLength="3.64" x="441.5474" y="21.9659">&#160;</text><text fill="#000000" font-family="Verdana" font-size="14" lengthAdjust="spacing" textLength="55.5518" x="445.1874" y="21.9659">18:22:36</text><line style="stroke:#000000;stroke-width:1.0;" x1="363.4677" x2="363.4677" y1="5" y2="28.0679"/><line style="stroke:#000000;stroke-width:1.0;" x1="277" x2="505.7391" y1="28.0679" y2="28.0679"/><text fill="#000000" font-family="Verdana" font-size="14" font-weight="bold" lengthAdjust="spacing" textLength="44.3239" x="282" y="45.0339">lesson</text><text fill="#000000" font-family="Verdana" font-size="14" lengthAdjust="spacing" textLength="8.008" x="368.4677" y="45.0339">1</text><line style="stroke:#000000;stroke-width:1.0;" x1="363.4677" x2="363.4677" y1="28.0679" y2="51.1358"/><line style="stroke:#000000;stroke-width:1.0;" x1="277" x2="505.7391" y1="51.1358" y2="51.1358"/><text fill="#000000" font-family="Verdana" font-size="14" font-weight="bold" lengthAdjust="spacing" textLength="41.1319" x="282" y="68.1018">result</text><text fill="#000000" font-family="Verdana" font-size="14" lengthAdjust="spacing" textLength="50.1058" x="368.4677" y="68.1018">success</text><line style="stroke:#000000;stroke-width:1.0;" x1="363.4677" x2="363.4677" y1="51.1358" y2="74.2038"/><rect fill="none" height="69.2038" rx="5" ry="5" style="stroke:#000000;stroke-width:1.0;" width="228.7391" x="277" y="5"/><rect fill="#FFFFFF" height="69.2038" rx="5" ry="5" style="stroke:#FFFFFF;stroke-width:1.0;" width="228.7391" x="277" y="92"/><text fill="#000000" font-family="Verdana" font-size="14" font-weight="bold" lengthAdjust="spacing" textLength="76.4677" x="282" y="108.9659">timestamp</text><text fill="#000000" font-family="Verdana" font-size="14" lengthAdjust="spacing" textLength="73.0797" x="368.4677" y="108.9659">2024-09-20</text><text fill="#000000" font-family="Verdana" font-size="14" lengthAdjust="spacing" textLength="3.64" x="441.5474" y="108.9659">&#160;</text><text fill="#000000" font-family="Verdana" font-size="14" lengthAdjust="spacing" textLength="55.5518" x="445.1874" y="108.9659">09:02:42</text><line style="stroke:#000000;stroke-width:1.0;" x1="363.4677" x2="363.4677" y1="92" y2="115.0679"/><line style="stroke:#000000;stroke-width:1.0;" x1="277" x2="505.7391" y1="115.0679" y2="115.0679"/><text fill="#000000" font-family="Verdana" font-size="14" font-weight="bold" lengthAdjust="spacing" textLength="44.3239" x="282" y="132.0339">lesson</text><text fill="#000000" font-family="Verdana" font-size="14" lengthAdjust="spacing" textLength="16.0159" x="368.4677" y="132.0339">30</text><line style="stroke:#000000;stroke-width:1.0;" x1="363.4677" x2="363.4677" y1="115.0679" y2="138.1358"/><line style="stroke:#000000;stroke-width:1.0;" x1="277" x2="505.7391" y1="138.1358" y2="138.1358"/><text fill="#000000" font-family="Verdana" font-size="14" font-weight="bold" lengthAdjust="spacing" textLength="41.1319" x="282" y="155.1018">result</text><text fill="#000000" font-family="Verdana" font-size="14" lengthAdjust="spacing" textLength="50.1058" x="368.4677" y="155.1018">success</text><line style="stroke:#000000;stroke-width:1.0;" x1="363.4677" x2="363.4677" y1="138.1358" y2="161.2038"/><rect fill="none" height="69.2038" rx="5" ry="5" style="stroke:#000000;stroke-width:1.0;" width="228.7391" x="277" y="92"/><rect fill="#FFFFFF" height="69.2038" rx="5" ry="5" style="stroke:#FFFFFF;stroke-width:1.0;" width="228.7391" x="277" y="179"/><text fill="#000000" font-family="Verdana" font-size="14" font-weight="bold" lengthAdjust="spacing" textLength="76.4677" x="282" y="195.9659">timestamp</text><text fill="#000000" font-family="Verdana" font-size="14" lengthAdjust="spacing" textLength="73.0797" x="368.4677" y="195.9659">2024-09-28</text><text fill="#000000" font-family="Verdana" font-size="14" lengthAdjust="spacing" textLength="3.64" x="441.5474" y="195.9659">&#160;</text><text fill="#000000" font-family="Verdana" font-size="14" lengthAdjust="spacing" textLength="55.5518" x="445.1874" y="195.9659">12:09:51</text><line style="stroke:#000000;stroke-width:1.0;" x1="363.4677" x2="363.4677" y1="179" y2="202.0679"/><line style="stroke:#000000;stroke-width:1.0;" x1="277" x2="505.7391" y1="202.0679" y2="202.0679"/><text fill="#000000" font-family="Verdana" font-size="14" font-weight="bold" lengthAdjust="spacing" textLength="44.3239" x="282" y="219.0339">lesson</text><text fill="#000000" font-family="Verdana" font-size="14" lengthAdjust="spacing" textLength="16.0159" x="368.4677" y="219.0339">41</text><line style="stroke:#000000;stroke-width:1.0;" x1="363.4677" x2="363.4677" y1="202.0679" y2="225.1358"/><line style="stroke:#000000;stroke-width:1.0;" x1="277" x2="505.7391" y1="225.1358" y2="225.1358"/><text fill="#000000" font-family="Verdana" font-size="14" font-weight="bold" lengthAdjust="spacing" textLength="41.1319" x="282" y="242.1018">result</text><text fill="#000000" font-family="Verdana" font-size="14" lengthAdjust="spacing" textLength="36.3999" x="368.4677" y="242.1018">failed</text><line style="stroke:#000000;stroke-width:1.0;" x1="363.4677" x2="363.4677" y1="225.1358" y2="248.2038"/><rect fill="none" height="69.2038" rx="5" ry="5" style="stroke:#000000;stroke-width:1.0;" width="228.7391" x="277" y="179"/><rect fill="#FFFFFF" height="69.2038" rx="5" ry="5" style="stroke:#FFFFFF;stroke-width:1.0;" width="228.7391" x="277" y="266"/><text fill="#000000" font-family="Verdana" font-size="14" font-weight="bold" lengthAdjust="spacing" textLength="76.4677" x="282" y="282.9659">timestamp</text><text fill="#000000" font-family="Verdana" font-size="14" lengthAdjust="spacing" textLength="73.0797" x="368.4677" y="282.9659">2024-09-28</text><text fill="#000000" font-family="Verdana" font-size="14" lengthAdjust="spacing" textLength="3.64" x="441.5474" y="282.9659">&#160;</text><text fill="#000000" font-family="Verdana" font-size="14" lengthAdjust="spacing" textLength="55.5518" x="445.1874" y="282.9659">21:36:03</text><line style="stroke:#000000;stroke-width:1.0;" x1="363.4677" x2="363.4677" y1="266" y2="289.0679"/><line style="stroke:#000000;stroke-width:1.0;" x1="277" x2="505.7391" y1="289.0679" y2="289.0679"/><text fill="#000000" font-family="Verdana" font-size="14" font-weight="bold" lengthAdjust="spacing" textLength="44.3239" x="282" y="306.0339">lesson</text><text fill="#000000" font-family="Verdana" font-size="14" lengthAdjust="spacing" textLength="16.0159" x="368.4677" y="306.0339">41</text><line style="stroke:#000000;stroke-width:1.0;" x1="363.4677" x2="363.4677" y1="289.0679" y2="312.1358"/><line style="stroke:#000000;stroke-width:1.0;" x1="277" x2="505.7391" y1="312.1358" y2="312.1358"/><text fill="#000000" font-family="Verdana" font-size="14" font-weight="bold" lengthAdjust="spacing" textLength="41.1319" x="282" y="329.1018">result</text><text fill="#000000" font-family="Verdana" font-size="14" lengthAdjust="spacing" textLength="50.1058" x="368.4677" y="329.1018">success</text><line style="stroke:#000000;stroke-width:1.0;" x1="363.4677" x2="363.4677" y1="312.1358" y2="335.2038"/><rect fill="none" height="69.2038" rx="5" ry="5" style="stroke:#000000;stroke-width:1.0;" width="228.7391" x="277" y="266"/><rect fill="#FFFFFF" height="69.2038" rx="5" ry="5" style="stroke:#FFFFFF;stroke-width:1.0;" width="228.7391" x="277" y="353"/><text fill="#000000" font-family="Verdana" font-size="14" font-weight="bold" lengthAdjust="spacing" textLength="76.4677" x="282" y="369.9659">timestamp</text><text fill="#000000" font-family="Verdana" font-size="14" lengthAdjust="spacing" textLength="73.0797" x="368.4677" y="369.9659">2024-09-30</text><text fill="#000000" font-family="Verdana" font-size="14" lengthAdjust="spacing" textLength="3.64" x="441.5474" y="369.9659">&#160;</text><text fill="#000000" font-family="Verdana" font-size="14" lengthAdjust="spacing" textLength="55.5518" x="445.1874" y="369.9659">10:03:03</text><line style="stroke:#000000;stroke-width:1.0;" x1="363.4677" x2="363.4677" y1="353" y2="376.0679"/><line style="stroke:#000000;stroke-width:1.0;" x1="277" x2="505.7391" y1="376.0679" y2="376.0679"/><text fill="#000000" font-family="Verdana" font-size="14" font-weight="bold" lengthAdjust="spacing" textLength="44.3239" x="282" y="393.0339">lesson</text><text fill="#000000" font-family="Verdana" font-size="14" lengthAdjust="spacing" textLength="16.0159" x="368.4677" y="393.0339">42</text><line style="stroke:#000000;stroke-width:1.0;" x1="363.4677" x2="363.4677" y1="376.0679" y2="399.1358"/><line style="stroke:#000000;stroke-width:1.0;" x1="277" x2="505.7391" y1="399.1358" y2="399.1358"/><text fill="#000000" font-family="Verdana" font-size="14" font-weight="bold" lengthAdjust="spacing" textLength="41.1319" x="282" y="416.1018">result</text><text fill="#000000" font-family="Verdana" font-size="14" lengthAdjust="spacing" textLength="50.1058" x="368.4677" y="416.1018">success</text><line style="stroke:#000000;stroke-width:1.0;" x1="363.4677" x2="363.4677" y1="399.1358" y2="422.2038"/><rect fill="none" height="69.2038" rx="5" ry="5" style="stroke:#000000;stroke-width:1.0;" width="228.7391" x="277" y="353"/><path d="M228,143.6019 L241,143.6019 C272.4803,143.6019 252.9056,102.862 277,82.6019 C278.5229,81.3214 280.0877,80.0769 281.6894,78.8675 " fill="none" style="stroke:#000000;stroke-width:1.0;stroke-dasharray:3.0,3.0;"/><path d="M283.4864,81.4075 L283.5944,77.5198 L279.8925,76.3276 L288.0393,74.3752 L283.4864,81.4075 " fill="#000000" style="stroke:#000000;stroke-width:1.0;"/><ellipse cx="228" cy="143.6019" fill="#000000" rx="3" ry="3" style="stroke:#000000;stroke-width:1.0;"/><path d="M228,189.6019 L241,189.6019 C259.3033,189.6019 260.3927,177.2968 277,169.6019 C280.9345,167.7789 284.9699,165.9721 289.0648,164.1906 " fill="none" style="stroke:#000000;stroke-width:1.0;stroke-dasharray:3.0,3.0;"/><path d="M290.2538,166.9667 L291.1469,163.2988 L287.8757,161.4145 L296.005,161.218 L290.2538,166.9667 " fill="#000000" style="stroke:#000000;stroke-width:1.0;"/><ellipse cx="228" cy="189.6019" fill="#000000" rx="3" ry="3" style="stroke:#000000;stroke-width:1.0;"/><path d="M228,213.6019 L241,213.6019 C250.2468,213.6019 259.8143,213.6019 269.4356,213.6019 " fill="none" style="stroke:#000000;stroke-width:1.0;stroke-dasharray:3.0,3.0;"/><path d="M269.4356,216.6909 L271.7523,213.6019 L269.4356,210.5129 L277.1581,213.6019 L269.4356,216.6909 " fill="#000000" style="stroke:#000000;stroke-width:1.0;"/><ellipse cx="228" cy="213.6019" fill="#000000" rx="3" ry="3" style="stroke:#000000;stroke-width:1.0;"/><path d="M228,236.6019 L241,236.6019 C259.5233,236.6019 260.2758,249.6387 277,257.6019 C280.7003,259.3638 284.4935,261.1053 288.3443,262.8194 " fill="none" style="stroke:#000000;stroke-width:1.0;stroke-dasharray:3.0,3.0;"/><path d="M287.1226,265.6138 L290.4402,263.7357 L289.566,260.0249 L295.3304,265.8737 L287.1226,265.6138 " fill="#000000" style="stroke:#000000;stroke-width:1.0;"/><ellipse cx="228" cy="236.6019" fill="#000000" rx="3" ry="3" style="stroke:#000000;stroke-width:1.0;"/><path d="M228,259.6019 L241,259.6019 C282.0263,259.6019 247.4166,316.1768 277,344.6019 C278.2393,345.7926 279.5148,346.9512 280.8229,348.0782 " fill="none" style="stroke:#000000;stroke-width:1.0;stroke-dasharray:3.0,3.0;"/><path d="M278.9256,350.4516 L282.6029,349.5012 L282.7201,345.7048 L286.7563,352.8213 L278.9256,350.4516 " fill="#000000" style="stroke:#000000;stroke-width:1.0;"/><ellipse cx="228" cy="259.6019" fill="#000000" rx="3" ry="3" style="stroke:#000000;stroke-width:1.0;"/><path d="M170,201.6019 L183,201.6019 C192.5621,201.6019 203.2423,201.6019 211.903,201.6019 " fill="none" style="stroke:#000000;stroke-width:1.0;stroke-dasharray:3.0,3.0;"/><path d="M211.903,204.6348 L214.1776,201.6019 L211.903,198.569 L219.4852,201.6019 L211.903,204.6348 " fill="#000000" style="stroke:#000000;stroke-width:1.0;"/><ellipse cx="170" cy="201.6019" fill="#000000" rx="3" ry="3" style="stroke:#000000;stroke-width:1.0;"/><!--SRC=[xLPDRziu4BthLqnlxS5UIKwQH2WMYTsaQMgdHfLapumujbbJf4fHJhsB_FSTobOinSwtBmki0HaW-UPnFXw7FCmjCtREKkczinDC4JB9XF8KIp620JCp6WWUmKxe6HoBt1fcXLOHX7vmq0hybXzwBB5Y9gp0FF80Mc15YiIRPWuLxhJyWvRVWM0_2iEeyv4W01BptB44vSXWNaWRGLua2IsK9Ers-o6oq0V_8FB3Y9ogatNy1zasiUn344P4j1iqM7QQFesOaCWV8Ga32YhoEu-HFE5AnuV09uerbd0Zoo4gNfRCEroLR_dxbDkvn3_9pcXjuP-IeCkIwTZeGl6Ubjh0pKHOB5TEjBABkMj9eBkvSwe_NA7XJB5oydIUeUaBDQtGnOA0fl0-WPkxc8XagiZRPOb9IcEXO9S6j_HndHGfgih1X6LELSlHVOP5MM_B_n55XUOPm0ao_YoW5LRY7Su57uk_4SBm2KltASqhqm7xBT8Y_KjmEo4b-YNYqn_BSdZvLAYC6PR2aJ7wfg-b59dEwgbRGJRNQxN-6KUC5B5Mg3N4G2kTPon1VeVjwS88D3LiNunGKf2nEziudbDKkPQ2ro13Kfb8HCQK7JBEXHgJO6lhCVugK2Neg5o-kjfGyZS75qyOrpUEOiHaNW_hCiSkMXQxb84rfB1wsXPDPbwc-o51TvbfYd7TaKsQNqlaRRqORXjc5XlVjsq2VvUOAaExZTMUC0arajw4HaabuKTSgUe4y8DnKUHmqAIJZDJuQ2xU7dgvoP6rHbmN5f_o-466cC95RQc3l8RYP7NYNsXvkce1BxLqtOxEnBGqhhMyEkXhejMGoDWO6x2byZQMPStUY1cpRx6dv92S-EiPYcifabUPd-lNYUBxzK_oUI7UDP7UDjhEAhjRa7DigrG__ymqxIiT7ss5fRSLbkEji7pT2ilv6rYe-_TOZWkoYnSrY_zVg_-9r-fGqllXSj276PhSFVU2jkDixxsFcQKtH0R-7WITY78Vx47lEBuez_pWlVyox4DE5sA2m5rLtNr411-yCpPZyADGpiq8lcUepZv_goRWMCs4qSezDBspgy4Ay76drHLkIqEkmDN0MxwNo2BHxlAEuFBYfBNlzPaQ5zI28fWK7bt9offv1AUN_m80]--></g></svg>