<?xml version="1.0" encoding="UTF-8"?>
<!-- Do not edit this file with editors other than draw.io -->
<!DOCTYPE svg PUBLIC "-//W3C//DTD SVG 1.1//EN" "http://www.w3.org/Graphics/SVG/1.1/DTD/svg11.dtd">
<svg xmlns="http://www.w3.org/2000/svg" xmlns:xlink="http://www.w3.org/1999/xlink" version="1.1" width="171px" height="251px" viewBox="-0.5 -0.5 171 251" content="&lt;mxfile host=&quot;app.diagrams.net&quot; agent=&quot;Mozilla/5.0 (X11; Linux x86_64; rv:131.0) Gecko/20100101 Firefox/131.0&quot; scale=&quot;1&quot; border=&quot;0&quot; version=&quot;24.7.17&quot;&gt;&#xA;  &lt;diagram name=&quot;Page-1&quot; id=&quot;oO780dJOqp8suL3pReqf&quot;&gt;&#xA;    &lt;mxGraphModel dx=&quot;1114&quot; dy=&quot;1116&quot; grid=&quot;1&quot; gridSize=&quot;10&quot; guides=&quot;1&quot; tooltips=&quot;1&quot; connect=&quot;1&quot; arrows=&quot;1&quot; fold=&quot;1&quot; page=&quot;1&quot; pageScale=&quot;1&quot; pageWidth=&quot;600&quot; pageHeight=&quot;550&quot; math=&quot;0&quot; shadow=&quot;0&quot;&gt;&#xA;      &lt;root&gt;&#xA;        &lt;mxCell id=&quot;0&quot; /&gt;&#xA;        &lt;mxCell id=&quot;1&quot; parent=&quot;0&quot; /&gt;&#xA;        &lt;mxCell id=&quot;dF87N97zgkJI8jAJeoEE-47&quot; value=&quot;&quot; style=&quot;rounded=0;whiteSpace=wrap;html=1;sketch=1;curveFitting=1;jiggle=2;&quot; parent=&quot;1&quot; vertex=&quot;1&quot;&gt;&#xA;          &lt;mxGeometry x=&quot;225&quot; y=&quot;-30&quot; width=&quot;170&quot; height=&quot;250&quot; as=&quot;geometry&quot; /&gt;&#xA;        &lt;/mxCell&gt;&#xA;        &lt;mxCell id=&quot;dF87N97zgkJI8jAJeoEE-40&quot; value=&quot;&quot; style=&quot;rounded=0;whiteSpace=wrap;html=1;sketch=1;curveFitting=1;jiggle=2;fillStyle=solid;fillColor=#f5f5f5;fontColor=#333333;strokeColor=#666666;&quot; parent=&quot;1&quot; vertex=&quot;1&quot;&gt;&#xA;          &lt;mxGeometry x=&quot;240&quot; y=&quot;70&quot; width=&quot;140&quot; height=&quot;10&quot; as=&quot;geometry&quot; /&gt;&#xA;        &lt;/mxCell&gt;&#xA;        &lt;mxCell id=&quot;dF87N97zgkJI8jAJeoEE-49&quot; value=&quot;&quot; style=&quot;rounded=0;whiteSpace=wrap;html=1;sketch=1;curveFitting=1;jiggle=1;fillColor=#f5f5f5;strokeColor=#666666;fillWeight=2;hachureGap=-1;fillStyle=solid;fontColor=#333333;&quot; parent=&quot;1&quot; vertex=&quot;1&quot;&gt;&#xA;          &lt;mxGeometry x=&quot;240&quot; y=&quot;-20&quot; width=&quot;40&quot; height=&quot;60&quot; as=&quot;geometry&quot; /&gt;&#xA;        &lt;/mxCell&gt;&#xA;        &lt;mxCell id=&quot;dF87N97zgkJI8jAJeoEE-50&quot; value=&quot;&quot; style=&quot;rounded=0;whiteSpace=wrap;html=1;sketch=1;curveFitting=1;jiggle=2;fillColor=#f5f5f5;fontColor=#333333;strokeColor=#666666;fillStyle=solid;&quot; parent=&quot;1&quot; vertex=&quot;1&quot;&gt;&#xA;          &lt;mxGeometry x=&quot;240&quot; y=&quot;120&quot; width=&quot;140&quot; height=&quot;80&quot; as=&quot;geometry&quot; /&gt;&#xA;        &lt;/mxCell&gt;&#xA;        &lt;mxCell id=&quot;dF87N97zgkJI8jAJeoEE-51&quot; value=&quot;&quot; style=&quot;endArrow=none;html=1;rounded=0;sketch=1;curveFitting=1;jiggle=2;strokeWidth=3;&quot; parent=&quot;1&quot; edge=&quot;1&quot;&gt;&#xA;          &lt;mxGeometry width=&quot;50&quot; height=&quot;50&quot; relative=&quot;1&quot; as=&quot;geometry&quot;&gt;&#xA;            &lt;mxPoint x=&quot;380&quot; y=&quot;-10&quot; as=&quot;sourcePoint&quot; /&gt;&#xA;            &lt;mxPoint x=&quot;290&quot; y=&quot;-10&quot; as=&quot;targetPoint&quot; /&gt;&#xA;          &lt;/mxGeometry&gt;&#xA;        &lt;/mxCell&gt;&#xA;        &lt;mxCell id=&quot;dF87N97zgkJI8jAJeoEE-52&quot; value=&quot;&quot; style=&quot;endArrow=none;html=1;rounded=0;sketch=1;curveFitting=1;jiggle=2;&quot; parent=&quot;1&quot; edge=&quot;1&quot;&gt;&#xA;          &lt;mxGeometry width=&quot;50&quot; height=&quot;50&quot; relative=&quot;1&quot; as=&quot;geometry&quot;&gt;&#xA;            &lt;mxPoint x=&quot;360&quot; y=&quot;9.75&quot; as=&quot;sourcePoint&quot; /&gt;&#xA;            &lt;mxPoint x=&quot;290&quot; y=&quot;9.75&quot; as=&quot;targetPoint&quot; /&gt;&#xA;          &lt;/mxGeometry&gt;&#xA;        &lt;/mxCell&gt;&#xA;        &lt;mxCell id=&quot;dF87N97zgkJI8jAJeoEE-53&quot; value=&quot;&quot; style=&quot;endArrow=none;html=1;rounded=0;entryX=1;entryY=0;entryDx=0;entryDy=0;exitX=0;exitY=1;exitDx=0;exitDy=0;sketch=1;curveFitting=1;jiggle=2;&quot; parent=&quot;1&quot; source=&quot;dF87N97zgkJI8jAJeoEE-49&quot; target=&quot;dF87N97zgkJI8jAJeoEE-49&quot; edge=&quot;1&quot;&gt;&#xA;          &lt;mxGeometry width=&quot;50&quot; height=&quot;50&quot; relative=&quot;1&quot; as=&quot;geometry&quot;&gt;&#xA;            &lt;mxPoint x=&quot;270&quot; y=&quot;120&quot; as=&quot;sourcePoint&quot; /&gt;&#xA;            &lt;mxPoint x=&quot;320&quot; y=&quot;70&quot; as=&quot;targetPoint&quot; /&gt;&#xA;          &lt;/mxGeometry&gt;&#xA;        &lt;/mxCell&gt;&#xA;        &lt;mxCell id=&quot;dF87N97zgkJI8jAJeoEE-54&quot; value=&quot;&quot; style=&quot;endArrow=none;html=1;rounded=0;entryX=0;entryY=0;entryDx=0;entryDy=0;exitX=1;exitY=1;exitDx=0;exitDy=0;sketch=1;curveFitting=1;jiggle=1;&quot; parent=&quot;1&quot; source=&quot;dF87N97zgkJI8jAJeoEE-49&quot; target=&quot;dF87N97zgkJI8jAJeoEE-49&quot; edge=&quot;1&quot;&gt;&#xA;          &lt;mxGeometry width=&quot;50&quot; height=&quot;50&quot; relative=&quot;1&quot; as=&quot;geometry&quot;&gt;&#xA;            &lt;mxPoint x=&quot;250&quot; y=&quot;50&quot; as=&quot;sourcePoint&quot; /&gt;&#xA;            &lt;mxPoint x=&quot;290&quot; y=&quot;-10&quot; as=&quot;targetPoint&quot; /&gt;&#xA;          &lt;/mxGeometry&gt;&#xA;        &lt;/mxCell&gt;&#xA;        &lt;mxCell id=&quot;dF87N97zgkJI8jAJeoEE-55&quot; value=&quot;&quot; style=&quot;endArrow=none;html=1;rounded=0;entryX=0;entryY=0;entryDx=0;entryDy=0;exitX=1;exitY=1;exitDx=0;exitDy=0;sketch=1;curveFitting=1;jiggle=1;&quot; parent=&quot;1&quot; source=&quot;dF87N97zgkJI8jAJeoEE-50&quot; target=&quot;dF87N97zgkJI8jAJeoEE-50&quot; edge=&quot;1&quot;&gt;&#xA;          &lt;mxGeometry width=&quot;50&quot; height=&quot;50&quot; relative=&quot;1&quot; as=&quot;geometry&quot;&gt;&#xA;            &lt;mxPoint x=&quot;290&quot; y=&quot;50&quot; as=&quot;sourcePoint&quot; /&gt;&#xA;            &lt;mxPoint x=&quot;250&quot; y=&quot;-10&quot; as=&quot;targetPoint&quot; /&gt;&#xA;          &lt;/mxGeometry&gt;&#xA;        &lt;/mxCell&gt;&#xA;        &lt;mxCell id=&quot;dF87N97zgkJI8jAJeoEE-56&quot; value=&quot;&quot; style=&quot;endArrow=none;html=1;rounded=0;entryX=0.036;entryY=0.981;entryDx=0;entryDy=0;exitX=1;exitY=0;exitDx=0;exitDy=0;sketch=1;curveFitting=1;jiggle=1;entryPerimeter=0;&quot; parent=&quot;1&quot; source=&quot;dF87N97zgkJI8jAJeoEE-50&quot; target=&quot;dF87N97zgkJI8jAJeoEE-50&quot; edge=&quot;1&quot;&gt;&#xA;          &lt;mxGeometry width=&quot;50&quot; height=&quot;50&quot; relative=&quot;1&quot; as=&quot;geometry&quot;&gt;&#xA;            &lt;mxPoint x=&quot;390&quot; y=&quot;210&quot; as=&quot;sourcePoint&quot; /&gt;&#xA;            &lt;mxPoint x=&quot;250&quot; y=&quot;130&quot; as=&quot;targetPoint&quot; /&gt;&#xA;          &lt;/mxGeometry&gt;&#xA;        &lt;/mxCell&gt;&#xA;        &lt;mxCell id=&quot;dF87N97zgkJI8jAJeoEE-57&quot; value=&quot;&quot; style=&quot;endArrow=none;html=1;rounded=0;sketch=1;curveFitting=1;jiggle=2;exitX=1;exitY=0.5;exitDx=0;exitDy=0;dashed=1;dashPattern=12 12;&quot; parent=&quot;1&quot; edge=&quot;1&quot;&gt;&#xA;          &lt;mxGeometry width=&quot;50&quot; height=&quot;50&quot; relative=&quot;1&quot; as=&quot;geometry&quot;&gt;&#xA;            &lt;mxPoint x=&quot;380&quot; y=&quot;110.25&quot; as=&quot;sourcePoint&quot; /&gt;&#xA;            &lt;mxPoint x=&quot;240&quot; y=&quot;110&quot; as=&quot;targetPoint&quot; /&gt;&#xA;          &lt;/mxGeometry&gt;&#xA;        &lt;/mxCell&gt;&#xA;        &lt;mxCell id=&quot;dF87N97zgkJI8jAJeoEE-58&quot; value=&quot;&quot; style=&quot;endArrow=none;html=1;rounded=0;sketch=1;curveFitting=1;jiggle=2;dashed=1;dashPattern=12 12;&quot; parent=&quot;1&quot; edge=&quot;1&quot;&gt;&#xA;          &lt;mxGeometry width=&quot;50&quot; height=&quot;50&quot; relative=&quot;1&quot; as=&quot;geometry&quot;&gt;&#xA;            &lt;mxPoint x=&quot;230&quot; y=&quot;200&quot; as=&quot;sourcePoint&quot; /&gt;&#xA;            &lt;mxPoint x=&quot;230&quot; y=&quot;120&quot; as=&quot;targetPoint&quot; /&gt;&#xA;          &lt;/mxGeometry&gt;&#xA;        &lt;/mxCell&gt;&#xA;      &lt;/root&gt;&#xA;    &lt;/mxGraphModel&gt;&#xA;  &lt;/diagram&gt;&#xA;&lt;/mxfile&gt;&#xA;"><defs/><g><g data-cell-id="0"><g data-cell-id="1"><g data-cell-id="dF87N97zgkJI8jAJeoEE-47"><g><rect x="0" y="0" width="170" height="250" fill="none" stroke="none" pointer-events="all"/><path d="M 3.76 -2.75 L 166.06 3.13 L 168.99 247.21 L -2.3 252.82" fill="rgb(255, 255, 255)" stroke="none" pointer-events="all"/><path d="M 0 0 C 36.12 -2.72 80.34 3.18 170 0 M 0 0 C 67 -1.25 134.94 -1.86 170 0 M 170 0 C 170.77 71.78 167.03 146.37 170 250 M 170 0 C 174.88 91.59 172.83 182.13 170 250 M 170 250 C 105.06 245.58 41.4 247.72 0 250 M 170 250 C 102.62 249.43 37.27 250.89 0 250 M 0 250 C -1.09 150.88 -4.23 53.1 0 0 M 0 250 C -5.3 177.22 -2.68 106.15 0 0" fill="none" stroke="rgb(0, 0, 0)" stroke-linejoin="round" stroke-linecap="round" stroke-miterlimit="10" pointer-events="all"/></g></g><g data-cell-id="dF87N97zgkJI8jAJeoEE-40"><g><rect x="15" y="100" width="140" height="10" fill="none" stroke="none" pointer-events="all"/><path d="M 13.4 98.04 L 157.48 103.15 L 152.45 111.83 L 18.42 109.04" fill="#f5f5f5" stroke="none" pointer-events="all"/><path d="M 15 100 C 44.12 104.88 81.8 99.98 155 100 M 15 100 C 54.89 100.63 94.41 98.96 155 100 M 155 100 C 153.91 102.22 155.59 106.71 155 110 M 155 100 C 155.11 103.58 155.58 106.42 155 110 M 155 110 C 120.37 107.91 82.8 113.06 15 110 M 155 110 C 113.95 113.17 69.99 110.2 15 110 M 15 110 C 13.54 106.93 15.91 107.87 15 100 M 15 110 C 15.53 107.66 13.97 104.9 15 100" fill="none" stroke="#666666" stroke-linejoin="round" stroke-linecap="round" stroke-miterlimit="10" pointer-events="all"/></g></g><g data-cell-id="dF87N97zgkJI8jAJeoEE-49"><g><rect x="15" y="10" width="40" height="60" fill="none" stroke="none" pointer-events="all"/><path d="M 15.93 9.08 L 53.26 10.99 L 54.14 69.66 L 13.03 71.38" fill="#f5f5f5" stroke="none" pointer-events="all"/><path d="M 15 10 C 24.27 10.23 33.53 9.58 55 10 M 15 10 C 28.94 10.65 42.11 10.78 55 10 M 55 10 C 55.04 31.15 54.47 55.01 55 70 M 55 10 C 53.78 28.92 54.31 47.22 55 70 M 55 70 C 41.63 70.36 30.07 70.43 15 70 M 55 70 C 43.96 70.22 33.51 70.73 15 70 M 15 70 C 16.96 52.57 16.1 35.61 15 10 M 15 70 C 14.9 45.79 14.83 22.47 15 10" fill="none" stroke="#666666" stroke-linejoin="round" stroke-linecap="round" stroke-miterlimit="10" pointer-events="all"/></g></g><g data-cell-id="dF87N97zgkJI8jAJeoEE-50"><g><rect x="15" y="150" width="140" height="80" fill="none" stroke="none" pointer-events="all"/><path d="M 12 150.23 L 156.49 147.33 L 153.55 228.54 L 17.11 232.09" fill="#f5f5f5" stroke="none" pointer-events="all"/><path d="M 15 150 C 45.29 151.05 82.02 150.51 155 150 M 15 150 C 61.51 145.91 103.16 147.77 155 150 M 155 150 C 154.62 175.17 159.35 203.47 155 230 M 155 150 C 154.04 177.62 154.59 208.57 155 230 M 155 230 C 121.61 232.8 85.68 226.88 15 230 M 155 230 C 101.41 230.46 51.36 230.52 15 230 M 15 230 C 15.44 197.38 13.07 174.22 15 150 M 15 230 C 14.49 202.9 13.69 178.18 15 150" fill="none" stroke="#666666" stroke-linejoin="round" stroke-linecap="round" stroke-miterlimit="10" pointer-events="all"/></g></g><g data-cell-id="dF87N97zgkJI8jAJeoEE-51"><g><path d="M 155 20 L 65 20" fill="none" stroke="none" pointer-events="stroke"/><path d="M 155 20 C 137.3 20.88 109.97 20.74 65 20 M 155 20 C 119.48 17.89 83.87 18.19 65 20" fill="none" stroke="rgb(0, 0, 0)" stroke-width="3" stroke-linejoin="round" stroke-linecap="round" stroke-miterlimit="10" pointer-events="stroke"/></g></g><g data-cell-id="dF87N97zgkJI8jAJeoEE-52"><g><path d="M 135 39.75 L 65 39.75" fill="none" stroke="none" pointer-events="stroke"/><path d="M 135 39.75 C 119.68 37.47 102.67 37.73 65 39.75 M 135 39.75 C 114.7 39.12 99.07 41.85 65 39.75" fill="none" stroke="rgb(0, 0, 0)" stroke-linejoin="round" stroke-linecap="round" stroke-miterlimit="10" pointer-events="stroke"/></g></g><g data-cell-id="dF87N97zgkJI8jAJeoEE-53"><g><path d="M 15 70 L 55 10" fill="none" stroke="none" pointer-events="stroke"/><path d="M 15 70 C 22.09 52.59 36.41 39.24 55 10 M 15 70 C 29.84 48.87 41.44 29.79 55 10" fill="none" stroke="rgb(0, 0, 0)" stroke-linejoin="round" stroke-linecap="round" stroke-miterlimit="10" pointer-events="stroke"/></g></g><g data-cell-id="dF87N97zgkJI8jAJeoEE-54"><g><path d="M 55 70 L 15 10" fill="none" stroke="none" pointer-events="stroke"/><path d="M 55 70 C 43.29 57.2 35.26 43.72 15 10 M 55 70 C 46.41 57.2 38.66 44.44 15 10" fill="none" stroke="rgb(0, 0, 0)" stroke-linejoin="round" stroke-linecap="round" stroke-miterlimit="10" pointer-events="stroke"/></g></g><g data-cell-id="dF87N97zgkJI8jAJeoEE-55"><g><path d="M 155 230 L 15 150" fill="none" stroke="none" pointer-events="stroke"/><path d="M 155 230 C 124.06 212.71 91.51 194.76 15 150 M 155 230 C 116.56 207.61 77.36 184.11 15 150" fill="none" stroke="rgb(0, 0, 0)" stroke-linejoin="round" stroke-linecap="round" stroke-miterlimit="10" pointer-events="stroke"/></g></g><g data-cell-id="dF87N97zgkJI8jAJeoEE-56"><g><path d="M 155 150 L 20.04 228.48" fill="none" stroke="none" pointer-events="stroke"/><path d="M 155 150 C 122.9 167.57 90.35 186.83 20.04 228.48 M 155 150 C 107.11 178.89 59.19 206.87 20.04 228.48" fill="none" stroke="rgb(0, 0, 0)" stroke-linejoin="round" stroke-linecap="round" stroke-miterlimit="10" pointer-events="stroke"/></g></g><g data-cell-id="dF87N97zgkJI8jAJeoEE-57"><g><path d="M 155 140.25 L 15 140" fill="none" stroke="none" pointer-events="stroke"/><path d="M 155 140.25 C 119.91 134.37 90.78 136.57 15 140 M 155 140.25 C 121.69 139.07 92.84 137.93 15 140" fill="none" stroke="rgb(0, 0, 0)" stroke-linejoin="round" stroke-linecap="round" stroke-miterlimit="10" stroke-dasharray="12 12" pointer-events="stroke"/></g></g><g data-cell-id="dF87N97zgkJI8jAJeoEE-58"><g><path d="M 5 230 L 5 150" fill="none" stroke="none" pointer-events="stroke"/><path d="M 5 230 C 8.83 213.82 2.05 189.79 5 150 M 5 230 C 5.45 208.01 3.3 181.57 5 150" fill="none" stroke="rgb(0, 0, 0)" stroke-linejoin="round" stroke-linecap="round" stroke-miterlimit="10" stroke-dasharray="12 12" pointer-events="stroke"/></g></g></g></g></g></svg>