<?xml version="1.0" encoding="UTF-8"?>
<?xml-stylesheet href="https://cdnjs.cloudflare.com/ajax/libs/font-awesome/6.6.0/css/all.min.css" type="text/css"?>
<svg aria-roledescription="xychart" role="graphics-document document" viewBox="0 0 700 500" style="max-width: 100%;" xmlns="http://www.w3.org/2000/svg" width="100%" id="graph-div" height="100%" xmlns:xlink="http://www.w3.org/1999/xlink"><style>#graph-div{font-family:"trebuchet ms",verdana,arial,sans-serif;font-size:16px;fill:#ccc;}#graph-div .error-icon{fill:#a44141;}#graph-div .error-text{fill:#ddd;stroke:#ddd;}#graph-div .edge-thickness-normal{stroke-width:2px;}#graph-div .edge-thickness-thick{stroke-width:3.5px;}#graph-div .edge-pattern-solid{stroke-dasharray:0;}#graph-div .edge-pattern-dashed{stroke-dasharray:3;}#graph-div .edge-pattern-dotted{stroke-dasharray:2;}#graph-div .marker{fill:lightgrey;stroke:lightgrey;}#graph-div .marker.cross{stroke:lightgrey;}#graph-div svg{font-family:"trebuchet ms",verdana,arial,sans-serif;font-size:16px;}#graph-div :root{--mermaid-font-family:"trebuchet ms",verdana,arial,sans-serif;}</style><g></g><g class="main"><rect fill="transparent" class="background" height="500" width="700"></rect><g class="chart-title"><text transform="translate(350, 21.5) rotate(0)" text-anchor="middle" dominant-baseline="middle" font-size="20" fill="#2d2d2d" y="0" x="0">burndown chart</text></g><g class="plot"><g class="line-plot-0"><path stroke-width="2" stroke="#2ecc71" fill="none" d="M68.75,101.637L116.709,126.93L164.668,152.223L212.627,177.517L260.586,202.81L308.545,228.103L356.504,253.397L404.463,278.69L452.422,303.983L500.381,329.277L548.34,354.57L596.299,379.863L644.258,405.157L692.217,430.45"></path></g></g><g class="bottom-axis"><g class="axis-line"><path stroke-width="2" stroke="#2d2d2d" fill="none" d="M 60.96665954589844,439.50001525878906 L 700,439.50001525878906"></path></g><g class="label"><text transform="translate(68.74999237060547, 450.50001525878906) rotate(0)" text-anchor="middle" dominant-baseline="text-before-edge" font-size="14" fill="#2d2d2d" y="0" x="0">1</text><text transform="translate(116.70896735558142, 450.50001525878906) rotate(0)" text-anchor="middle" dominant-baseline="text-before-edge" font-size="14" fill="#2d2d2d" y="0" x="0">2</text><text transform="translate(164.66794234055737, 450.50001525878906) rotate(0)" text-anchor="middle" dominant-baseline="text-before-edge" font-size="14" fill="#2d2d2d" y="0" x="0">3</text><text transform="translate(212.62691732553336, 450.50001525878906) rotate(0)" text-anchor="middle" dominant-baseline="text-before-edge" font-size="14" fill="#2d2d2d" y="0" x="0">4</text><text transform="translate(260.5858923105093, 450.50001525878906) rotate(0)" text-anchor="middle" dominant-baseline="text-before-edge" font-size="14" fill="#2d2d2d" y="0" x="0">5</text><text transform="translate(308.54486729548523, 450.50001525878906) rotate(0)" text-anchor="middle" dominant-baseline="text-before-edge" font-size="14" fill="#2d2d2d" y="0" x="0">6</text><text transform="translate(356.50384228046124, 450.50001525878906) rotate(0)" text-anchor="middle" dominant-baseline="text-before-edge" font-size="14" fill="#2d2d2d" y="0" x="0">7</text><text transform="translate(404.4628172654372, 450.50001525878906) rotate(0)" text-anchor="middle" dominant-baseline="text-before-edge" font-size="14" fill="#2d2d2d" y="0" x="0">8</text><text transform="translate(452.42179225041315, 450.50001525878906) rotate(0)" text-anchor="middle" dominant-baseline="text-before-edge" font-size="14" fill="#2d2d2d" y="0" x="0">9</text><text transform="translate(500.3807672353891, 450.50001525878906) rotate(0)" text-anchor="middle" dominant-baseline="text-before-edge" font-size="14" fill="#2d2d2d" y="0" x="0">10</text><text transform="translate(548.339742220365, 450.50001525878906) rotate(0)" text-anchor="middle" dominant-baseline="text-before-edge" font-size="14" fill="#2d2d2d" y="0" x="0">11</text><text transform="translate(596.2987172053411, 450.50001525878906) rotate(0)" text-anchor="middle" dominant-baseline="text-before-edge" font-size="14" fill="#2d2d2d" y="0" x="0">12</text><text transform="translate(644.257692190317, 450.50001525878906) rotate(0)" text-anchor="middle" dominant-baseline="text-before-edge" font-size="14" fill="#2d2d2d" y="0" x="0">13</text><text transform="translate(692.216667175293, 450.50001525878906) rotate(0)" text-anchor="middle" dominant-baseline="text-before-edge" font-size="14" fill="#2d2d2d" y="0" x="0">14</text></g><g class="ticks"><path stroke-width="2" stroke="#2d2d2d" fill="none" d="M 68.74999237060547,440.50001525878906 L 68.74999237060547,445.50001525878906"></path><path stroke-width="2" stroke="#2d2d2d" fill="none" d="M 116.70896735558142,440.50001525878906 L 116.70896735558142,445.50001525878906"></path><path stroke-width="2" stroke="#2d2d2d" fill="none" d="M 164.66794234055737,440.50001525878906 L 164.66794234055737,445.50001525878906"></path><path stroke-width="2" stroke="#2d2d2d" fill="none" d="M 212.62691732553336,440.50001525878906 L 212.62691732553336,445.50001525878906"></path><path stroke-width="2" stroke="#2d2d2d" fill="none" d="M 260.5858923105093,440.50001525878906 L 260.5858923105093,445.50001525878906"></path><path stroke-width="2" stroke="#2d2d2d" fill="none" d="M 308.54486729548523,440.50001525878906 L 308.54486729548523,445.50001525878906"></path><path stroke-width="2" stroke="#2d2d2d" fill="none" d="M 356.50384228046124,440.50001525878906 L 356.50384228046124,445.50001525878906"></path><path stroke-width="2" stroke="#2d2d2d" fill="none" d="M 404.4628172654372,440.50001525878906 L 404.4628172654372,445.50001525878906"></path><path stroke-width="2" stroke="#2d2d2d" fill="none" d="M 452.42179225041315,440.50001525878906 L 452.42179225041315,445.50001525878906"></path><path stroke-width="2" stroke="#2d2d2d" fill="none" d="M 500.3807672353891,440.50001525878906 L 500.3807672353891,445.50001525878906"></path><path stroke-width="2" stroke="#2d2d2d" fill="none" d="M 548.339742220365,440.50001525878906 L 548.339742220365,445.50001525878906"></path><path stroke-width="2" stroke="#2d2d2d" fill="none" d="M 596.2987172053411,440.50001525878906 L 596.2987172053411,445.50001525878906"></path><path stroke-width="2" stroke="#2d2d2d" fill="none" d="M 644.257692190317,440.50001525878906 L 644.257692190317,445.50001525878906"></path><path stroke-width="2" stroke="#2d2d2d" fill="none" d="M 692.216667175293,440.50001525878906 L 692.216667175293,445.50001525878906"></path></g><g class="title"><text transform="translate(380.4833297729492, 476.6000061035156) rotate(0)" text-anchor="middle" dominant-baseline="text-before-edge" font-size="16" fill="#2d2d2d" y="0" x="0">day</text></g></g><g class="left-axis"><g class="axisl-line"><path stroke-width="2" stroke="#2d2d2d" fill="none" d="M 59.96665954589844,43 L 59.96665954589844,438.50001525878906"></path></g><g class="label"><text transform="translate(48.96665954589844, 51.04999542236328) rotate(0)" text-anchor="end" dominant-baseline="middle" font-size="14" fill="#2d2d2d" y="0" x="0">30</text><text transform="translate(48.96665954589844, 76.34333038330078) rotate(0)" text-anchor="end" dominant-baseline="middle" font-size="14" fill="#2d2d2d" y="0" x="0">28</text><text transform="translate(48.96665954589844, 101.63666534423828) rotate(0)" text-anchor="end" dominant-baseline="middle" font-size="14" fill="#2d2d2d" y="0" x="0">26</text><text transform="translate(48.96665954589844, 126.93000030517577) rotate(0)" text-anchor="end" dominant-baseline="middle" font-size="14" fill="#2d2d2d" y="0" x="0">24</text><text transform="translate(48.96665954589844, 152.2233352661133) rotate(0)" text-anchor="end" dominant-baseline="middle" font-size="14" fill="#2d2d2d" y="0" x="0">22</text><text transform="translate(48.96665954589844, 177.51667022705078) rotate(0)" text-anchor="end" dominant-baseline="middle" font-size="14" fill="#2d2d2d" y="0" x="0">20</text><text transform="translate(48.96665954589844, 202.81000518798828) rotate(0)" text-anchor="end" dominant-baseline="middle" font-size="14" fill="#2d2d2d" y="0" x="0">18</text><text transform="translate(48.96665954589844, 228.10334014892578) rotate(0)" text-anchor="end" dominant-baseline="middle" font-size="14" fill="#2d2d2d" y="0" x="0">16</text><text transform="translate(48.96665954589844, 253.39667510986328) rotate(0)" text-anchor="end" dominant-baseline="middle" font-size="14" fill="#2d2d2d" y="0" x="0">14</text><text transform="translate(48.96665954589844, 278.6900100708008) rotate(0)" text-anchor="end" dominant-baseline="middle" font-size="14" fill="#2d2d2d" y="0" x="0">12</text><text transform="translate(48.96665954589844, 303.98334503173834) rotate(0)" text-anchor="end" dominant-baseline="middle" font-size="14" fill="#2d2d2d" y="0" x="0">10</text><text transform="translate(48.96665954589844, 329.2766799926758) rotate(0)" text-anchor="end" dominant-baseline="middle" font-size="14" fill="#2d2d2d" y="0" x="0">8</text><text transform="translate(48.96665954589844, 354.5700149536133) rotate(0)" text-anchor="end" dominant-baseline="middle" font-size="14" fill="#2d2d2d" y="0" x="0">6</text><text transform="translate(48.96665954589844, 379.86334991455084) rotate(0)" text-anchor="end" dominant-baseline="middle" font-size="14" fill="#2d2d2d" y="0" x="0">4</text><text transform="translate(48.96665954589844, 405.1566848754883) rotate(0)" text-anchor="end" dominant-baseline="middle" font-size="14" fill="#2d2d2d" y="0" x="0">2</text><text transform="translate(48.96665954589844, 430.4500198364258) rotate(0)" text-anchor="end" dominant-baseline="middle" font-size="14" fill="#2d2d2d" y="0" x="0">0</text></g><g class="ticks"><path stroke-width="2" stroke="#2d2d2d" fill="none" d="M 58.96665954589844,51.04999542236328 L 53.96665954589844,51.04999542236328"></path><path stroke-width="2" stroke="#2d2d2d" fill="none" d="M 58.96665954589844,76.34333038330078 L 53.96665954589844,76.34333038330078"></path><path stroke-width="2" stroke="#2d2d2d" fill="none" d="M 58.96665954589844,101.63666534423828 L 53.96665954589844,101.63666534423828"></path><path stroke-width="2" stroke="#2d2d2d" fill="none" d="M 58.96665954589844,126.93000030517577 L 53.96665954589844,126.93000030517577"></path><path stroke-width="2" stroke="#2d2d2d" fill="none" d="M 58.96665954589844,152.2233352661133 L 53.96665954589844,152.2233352661133"></path><path stroke-width="2" stroke="#2d2d2d" fill="none" d="M 58.96665954589844,177.51667022705078 L 53.96665954589844,177.51667022705078"></path><path stroke-width="2" stroke="#2d2d2d" fill="none" d="M 58.96665954589844,202.81000518798828 L 53.96665954589844,202.81000518798828"></path><path stroke-width="2" stroke="#2d2d2d" fill="none" d="M 58.96665954589844,228.10334014892578 L 53.96665954589844,228.10334014892578"></path><path stroke-width="2" stroke="#2d2d2d" fill="none" d="M 58.96665954589844,253.39667510986328 L 53.96665954589844,253.39667510986328"></path><path stroke-width="2" stroke="#2d2d2d" fill="none" d="M 58.96665954589844,278.6900100708008 L 53.96665954589844,278.6900100708008"></path><path stroke-width="2" stroke="#2d2d2d" fill="none" d="M 58.96665954589844,303.98334503173834 L 53.96665954589844,303.98334503173834"></path><path stroke-width="2" stroke="#2d2d2d" fill="none" d="M 58.96665954589844,329.2766799926758 L 53.96665954589844,329.2766799926758"></path><path stroke-width="2" stroke="#2d2d2d" fill="none" d="M 58.96665954589844,354.5700149536133 L 53.96665954589844,354.5700149536133"></path><path stroke-width="2" stroke="#2d2d2d" fill="none" d="M 58.96665954589844,379.86334991455084 L 53.96665954589844,379.86334991455084"></path><path stroke-width="2" stroke="#2d2d2d" fill="none" d="M 58.96665954589844,405.1566848754883 L 53.96665954589844,405.1566848754883"></path><path stroke-width="2" stroke="#2d2d2d" fill="none" d="M 58.96665954589844,430.4500198364258 L 53.96665954589844,430.4500198364258"></path></g><g class="title"><text transform="translate(5, 240.75000762939453) rotate(270)" text-anchor="middle" dominant-baseline="text-before-edge" font-size="16" fill="#2d2d2d" y="0" x="0">ramining effort (task)</text></g></g></g><g class="mermaid-tmp-group"></g></svg>