<?xml version="1.0" encoding="UTF-8" standalone="no"?>
<!-- Created with Inkscape (http://www.inkscape.org/) -->

<svg
   version="1.1"
   id="svg1"
   width="776.4704"
   height="261.78296"
   viewBox="0 0 776.47039 261.78296"
   sodipodi:docname="car_based_on_publicdomainvectors.svg"
   inkscape:version="1.3.2 (091e20ef0f, 2023-11-25, custom)"
   xmlns:inkscape="http://www.inkscape.org/namespaces/inkscape"
   xmlns:sodipodi="http://sodipodi.sourceforge.net/DTD/sodipodi-0.dtd"
   xmlns="http://www.w3.org/2000/svg"
   xmlns:svg="http://www.w3.org/2000/svg">
  <defs
     id="defs1" />
  <sodipodi:namedview
     id="namedview1"
     pagecolor="#505050"
     bordercolor="#ffffff"
     borderopacity="1"
     inkscape:showpageshadow="0"
     inkscape:pageopacity="0"
     inkscape:pagecheckerboard="1"
     inkscape:deskcolor="#d1d1d1"
     inkscape:zoom="1.2936221"
     inkscape:cx="391.14978"
     inkscape:cy="200.98605"
     inkscape:window-width="1920"
     inkscape:window-height="1002"
     inkscape:window-x="0"
     inkscape:window-y="0"
     inkscape:window-maximized="1"
     inkscape:current-layer="group-R5">
    <inkscape:page
       x="0"
       y="0"
       inkscape:label="1"
       id="page1"
       width="776.4704"
       height="261.78296"
       margin="0"
       bleed="0" />
  </sodipodi:namedview>
  <g
     id="g1"
     inkscape:groupmode="layer"
     inkscape:label="1"
     transform="translate(0,-0.00370429)">
    <g
       id="group-R5">
      <path
         id="path27"
         d="m 218.43999,31.549949 -10.512,13.98134 3.29734,1.44266 10.312,-13.70266 z M 607.33998,176.09128 c -3.32133,1.088 -6.95866,2.23734 -10.28933,3.24267 0,0 -1.53866,0.45733 -2.59866,0.77333 -0.948,3.88134 -1.92,8.61733 -2.42267,13.50933 9.22667,-4.13466 18.53466,-8.10933 28.07466,-11.48133 -6.76933,3.708 -13.736,7.024 -20.74133,10.25067 -1.99466,0.9 -3.98666,1.80933 -5.98666,2.69066 3.90133,5.572 8.91466,13.344 13.17733,18.732 6.77866,-5.11066 13.63333,-10.12933 20.68266,-14.868 -1.54,-4.90133 0.67734,-10.90533 6.65334,-12.61466 -8.97867,-3.07067 -17.79734,-6.58667 -26.54934,-10.23467 m -392.35199,-74.468 c 8.86,0.028 17.9,0.001 26.744,0.18134 1.85467,0.0853 3.40534,-1.78267 2.988,-3.592 -0.632,-1.61067 -0.72133,-3.75334 -2.41866,-4.646671 -0.68134,-0.43733 -1.888,-0.34933 -2.652,-0.37733 -1.68667,-0.028 -6.288,-0.10267 -8.02267,-0.13334 -7.132,-0.124 -14.26267,-0.248 -21.39467,-0.23733 -2.09466,-0.176 -4.02266,1.853331 -3.62933,3.961331 0.22267,1.00267 0.488,1.688 0.78533,2.65067 0.50534,1.45333 2.128,2.33333 3.588,2.184 l 1.33734,0.003 z m 4.24134,21.61467 c -11.812,-11.12267 -26.31067,-18.692 -41.79067,-22.61067 -0.036,-1.952 -0.0573,-3.90266 0,-5.85333 0.012,-0.676 0.10534,-1.302671 0.32,-1.945331 1.68534,-5.10934 3.736,-10.10267 5.70134,-15.116 1.556,-4.02934 3.72933,-9.632 5.33866,-13.9 52.216,0.50933 104.42,4.716 156.3,10.34933 1.97333,0.22 7.80133,0.89067 13.504,1.54667 2.16933,6.83866 5.34133,18.01733 6.79066,28.882661 0.0267,0.196 0.052,0.404 0.0787,0.612 -28.74666,0.188 -53.32666,0.78267 -66.90133,2.05867 -42.59867,4.00533 -60.844,31.98533 -63.49067,36.444 -4.124,-7.608 -9.44533,-14.56267 -15.85066,-20.468 m 528.73465,74.176 c 2.25733,-5.94534 5.064,-11.63067 8.4,-17.044 -3.704,-2.008 -7.336,-4.17067 -10.704,-6.72267 -1.128,-0.97466 -2.48267,-1.8 -2.97067,-3.31466 -0.0427,-0.42534 0.0107,-0.77734 0.0173,-1.16934 0.448,-4.40666 1.72266,-11.16 2.46666,-15.592 1.89334,-10.66133 4.11334,-22.26133 6.36134,-32.82666 -11.03867,-8.51867 -24.64533,-15.18534 -39.62933,-20.424 -5.42,5.31466 -11.024,10.496 -16.76134,15.50133 2.144,1.50267 4.23734,3.12267 6.272,4.864 13.932,11.59733 23.87467,27.63067 28.712,45.03867 -2.60266,-8.63334 -6.37733,-16.90934 -11.30133,-24.44 -6.32267,-9.80134 -14.69467,-18.30267 -24.356,-24.876 -2.54533,2.20933 -5.11467,4.38533 -7.70667,6.51866 5.65334,3.456 10.9,7.62667 15.62267,12.476 15.84667,16.27867 24.15333,38.28267 23.41867,62.01067 z m -270.22399,-18.452 c -34.016,-0.236 -70.67867,-0.68267 -107.48933,-1.25867 0.0813,2.52 0.136,4.32267 0.16133,5.176 23.74533,0.532 47.484,1.308 71.212,2.388 26.86133,1.292 53.73733,2.91467 80.44266,6.18933 9.992,1.32 20.016,2.75867 29.75734,5.40134 0.003,0.001 0.007,0.001 0.009,0.003 1.36,-17.41866 2.72533,-34.83999 2.776,-52.32133 0.0827,-12.00933 -0.0373,-24.364 -1.72933,-36.37466 -15.81867,-0.35467 -113.95733,-2.46 -186.33333,-2.016 0.96266,8.404 1.82133,24.06266 2.484,39.10133 47.372,-3.88267 94.84,-6.48133 142.37466,-6.61067 12.95733,0.052 25.916,0.328 38.85067,1.04534 -12.94267,-0.56267 -25.89867,-0.68134 -38.85067,-0.57734 -47.51866,0.44534 -94.96666,3.28667 -142.33466,7.07734 0.528,12.09333 0.928,23.66933 1.152,30.62133 11.37333,0.148 22.096,0.29067 31.62266,0.41867 31.60934,0.196 63.252,1.49466 94.85067,0.78133 12.58266,-0.72533 25.25466,-2.416 37.152,-6.73067 5.90666,-2.184 11.664,-5.056 16.408,-9.27066 -4.69334,4.27333 -10.43067,7.22533 -16.328,9.488 -17.88267,6.67866 -37.28134,7.66133 -56.188,7.46933 m 294.18132,22.13866 c -0.97066,0.28267 -1.98,0.36 -2.98,0.46 -14.768,0.816 -30.57599,0.256 -45.37733,0.692 7.936,0.536 16.276,0.732 24.224,0.71467 7.06533,-0.0893 14.176,-0.14933 21.184,-1.156 0.99867,-0.16267 2.008,-0.33067 2.94933,-0.71067 m -65.94399,-5.28 c 0,-35.83199 -29.15067,-64.98533 -64.98267,-64.98533 -35.832,0 -64.984,29.15334 -64.984,64.98533 0,13.68667 3.272,24.84667 10.29734,35.11734 l 0.78666,-0.54 c -6.91066,-10.104 -10.12933,-21.09067 -10.12933,-34.57734 0,-35.30666 28.724,-64.03066 64.02933,-64.03066 35.30667,0 64.03067,28.724 64.03067,64.03066 0,7.172 -1.17734,14.21067 -3.49734,20.924 l 0.90267,0.31334 c 2.35467,-6.816 3.54667,-13.95867 3.54667,-21.23734 m -14.976,0.028 c 0.28666,-21.06133 -13.20534,-41.29066 -32.72134,-49.19733 -34.992,-14.604 -73.82533,11.28934 -73.86266,49.19733 0.0453,37.90934 38.86533,63.796 73.86,49.196 19.52,-7.904 33.008,-28.136 32.724,-49.196 m 85.07866,4.668 c -1.96933,2.84534 -35.88667,24.28934 -63.02133,20.788 l -11.08133,-4.404 c -8.73334,25.27467 -32.73867,43.42667 -60.98134,43.42667 -22.13333,0 -41.66399,-11.14667 -53.28133,-28.13067 -11.15866,-2.84533 -19.29466,-13.956 -19.29466,-13.956 l -2.62667,1.752 -197.67066,0.12934 c 4.816,-13.26934 2.66533,-33.63333 2.34266,-36.37467 37.156,0.88534 74.29067,2.284 111.38267,4.61467 23.40133,1.80933 47.05733,3.136 69.94533,8.60933 0.012,0.003 0.02,0.005 0.0307,0.008 -0.55334,7.08533 -1.10534,14.172 -1.568,21.26133 0.19066,-3.07066 0.55333,-6.12933 0.85466,-9.19333 l 0.94534,-9.188 c 0.088,-0.912 0.17733,-1.82667 0.26533,-2.74 3.05467,0.86 6.10267,1.83067 8.87733,3.39733 -2.76133,-1.60266 -5.812,-2.61333 -8.86666,-3.50933 2.28133,-23.572 3.95333,-47.25333 2.93733,-70.95066 -0.21333,-5.944 -0.708,-11.944 -1.61333,-17.87467 0.83066,0.0187 1.31466,0.0307 1.40533,0.032 l 0.0227,-0.95333 c -0.096,-0.003 -0.636,-0.0147 -1.58267,-0.036 -1.928,-12.024 -5.59333,-23.730671 -12.19333,-34.050671 1.852,-0.0413 3.61466,-0.092 5.15733,-0.156 -13.852,-0.504 -28.464,-0.27467 -42.26133,-1.084 -0.208,-0.0213 -0.432,-0.0587 -0.62667,-0.10533 -0.0227,-0.0787 -0.28533,-1.00134 -0.28533,-1.00134 -0.64534,-2.37066 -1.332,-4.91066 -2.04267,-7.516 0.656,0.43734 1.31467,0.868 1.96267,1.31867 -0.648,-0.46533 -1.31734,-0.92133 -1.97867,-1.38 -1.67733,-6.14533 -3.47733,-12.65333 -5.096,-18.18 1.28267,5.63867 2.68533,11.64267 4.148,17.52133 -32.19333,-21.84133 -80.05466,-34.60399 -118.10266,-37.91999 -2.704,-0.292 -6.424,-0.35867 -9.19067,-0.53334 -1.31867,-0.084 -3.25867,-0.0467 -4.604,-0.0493 l -4.60533,0.007 h -0.49067 c 3.948,10.52133 11.82933,31.14533 15.84933,41.64133 -3.664,-10.17867 -11.00666,-30.49733 -14.856,-40.94933 13.576,-0.0893 27.18267,1.372 40.556,3.70533 13.256,2.28133 27.25734,5.676 40.12667,9.612 19.25467,6.08933 38.388,13.44533 55.34,24.57466 0.81866,3.27867 1.65333,6.52134 2.5,9.63334 0.26133,0.464 0.85333,0.41333 1.28666,0.50266 8.164,0.68534 16.368,0.50267 24.544,0.54134 3.628,-0.0387 8.38667,-0.0853 12.66534,-0.18267 6.312,10.53067 9.67066,22.102671 11.44,34.033331 -16.31067,-0.364 -114.128,-2.456 -186.31067,-2.00933 -0.0307,-0.252 -0.0627,-0.49733 -0.0947,-0.732 -1.428,-10.716001 -4.52267,-21.729331 -6.69867,-28.637331 4.74133,0.544 9.22267,1.06 11.12,1.27333 -1.96267,-0.244 -6.43467,-0.81067 -11.16133,-1.40933 -1.328,-4.20534 -2.304,-6.85734 -2.32934,-6.92534 l -0.89466,0.332 c 0.024,0.0667 0.93066,2.52934 2.18133,6.46267 -5.54133,-0.70133 -11.20667,-1.416 -13.424,-1.69067 -46.104,-5.496 -92.62533,-9.544 -139.04933,-10.69866 -5.648,-0.13334 -11.29866,-0.20667 -16.95066,-0.24667 0.0133,-0.0347 0.0267,-0.0707 0.0387,-0.10667 3.324,-1.4 6.46134,-3.12933 9.40134,-5.20666 2.70933,-1.95467 5.26933,-4.27867 6.996,-7.164 26.43199,8.02133 54.26266,11.21733 81.75199,12.84666 66.34933,3.96267 133.04267,4.92934 199.48133,5.63867 -39.076,-0.632 -78.24266,-1.34133 -117.37333,-2.60667 -5.41733,-18.89999 -11.50933,-37.82533 -18.11867,-56.3426601 6.556,0.2186701 13.11067,0.5293301 19.66134,0.9426701 7.124,0.56666 14.81333,1.29866 21.85733,2.38 41.37867,6.60933 81.57466,20.03333 119.60533,37.48933 7.58933,3.56266 15.05733,7.388 22.29733,11.61733 7.19334,4.26267 14.35867,8.79333 20.34134,14.688 -5.95467,-5.928 -13.1,-10.49733 -20.27467,-14.8 -7.22267,-4.268 -14.67867,-8.13467 -22.25467,-11.74 -37.96533,-17.71866 -78.20266,-31.17866 -119.62266,-37.872 -7.06267,-1.10666 -14.76667,-1.832 -21.89867,-2.42533 -52.35466,-3.3999998 -104.91199,-0.23067 -157.11066,4.24533 -0.45867,0.0507 -1.932,0.17867 -2.352,0.23067 -2.432,0.32 -4.56933,1.52133 -6.76,2.488 -11.55333,5.61467 -22.672,12.036 -33.80266,18.42667 7.27866,4.67866 15.20133,7.99333 23.23466,11.01466 3.68934,1.34667 7.41334,2.58534 11.16667,3.72667 -0.87333,1.21067 -1.88267,2.30667 -2.96667,3.31866 -1.324,1.22267 -2.79466,2.272 -4.28266,3.28 -3.06267,2.00934 -6.384,3.7 -9.77734,5.05467 -0.10933,0.288 -0.212,0.57867 -0.32,0.86667 -48.688,-0.28267 -97.43293,2.96666 -145.577194,10.21466 -5.337067,-1.10133 -11.75,-1.3 -17.8928,-1.21733 10.2996,-4.37733 20.989066,-8.99733 31.838133,-13.74533 18.542671,-5.39467 37.508801,-9.28133 56.568131,-12.34 17.53653,-2.83333 35.23173,-4.796 52.9904,-5.4 2.53867,-0.068 5.07867,-0.056 7.62,-0.088 -2.54,-0.0453 -5.08,-0.136 -7.62267,-0.14533 -17.80533,0.0187 -35.56066,1.95066 -53.13773,4.69333 -18.67853,3.072 -37.27493,6.97867 -55.304665,12.79066 25.209465,-11.04133 51.155735,-22.70799 74.634935,-33.38533 -35.4792,14.76267 -72.776001,31.47467 -107.847467,47.624 -6.650933,0.1 -12.96192,0.51733 -17.21296,0.468 -0.788546,-0.028 -1.5776,-0.0533 -2.366146,-0.0973 l 104.787503,-48.79733 -17.69693,-5.032 C 160.10242,4.8920192 323.56109,-7.3613211 411.08908,5.3293492 c 68.644,9.9546698 168.052,71.3359998 168.052,71.3359998 0,0 52.51866,-1.78134 108.09733,10.87866 60.34133,13.742671 87.30933,40.106671 87.30933,40.106671 l -8.752,5.032 h -2.62533 c -2.844,-4.09333 -6.39734,-7.808 -10.11734,-11.124 -10.96666,-9.184 -24.94133,-16.328 -40.49199,-21.88533 0.67866,-0.66534 1.35866,-1.33067 2.03066,-2.00134 -0.77066,0.62934 -1.53333,1.26934 -2.30133,1.90534 -40.936,-14.561341 -92.724,-18.133341 -129.42933,-18.754671 36.98933,1.55467 87.88266,5.19333 128.68266,19.373331 -5.832,4.868 -11.55066,9.932 -17.108,15.144 -20.36533,-13.952 -45.312,-17.36266 -69.664,-11.832 -26.39599,5.42134 -51.70266,20.95467 -64.66666,45.09067 18.01333,-31.868 56.09466,-47.592 91.61066,-46.64667 15.05067,0.57067 29.60534,5.68667 42.06934,13.99867 -2.412,2.27467 -4.79467,4.576 -7.14,6.90267 -12.868,-7.832 -27.844,-11.94134 -43.61334,-11.8 -21.04666,0.196 -41.79599,8.904 -58.42533,24.51733 -15.98266,15.00667 -25.80533,34.468 -26.948,53.39333 l 0.95334,0.0573 c 2.41066,-39.91599 42.652,-76.62266 84.42933,-77.01333 15.524,-0.16266 30.24666,3.86267 42.91066,11.53067 -0.13066,0.13067 -0.26533,0.26 -0.39733,0.392 0.14667,-0.12 0.29467,-0.244 0.44133,-0.36533 5.69067,3.44933 10.964,7.63333 15.70534,12.50533 15.77466,16.20133 23.99066,38.15067 23.136,61.80266 l -0.0187,0.49467 h 40.68266 l 6.72267,-7.75467 c 1.20667,1.54667 5.56,7.44267 3.856,9.904 m -108.92666,-1.02666 c 3.32133,-0.51867 6.64,-1.064 9.952,-1.62934 2.50533,-2.99066 5.164,-6.30133 7.604,-9.368 0.464,-0.58666 2.572,-3.29466 2.98933,-3.81866 -3.744,-9.97467 -9.12533,-20.10667 -17.63067,-26.804 -4.944,-3.95333 -11.97866,-5.74667 -17.81466,-2.764 1.98533,-0.50667 4.01333,-0.72267 5.97866,-0.49467 12.49867,1.47734 20.86267,18.508 25.16134,29.40134 -0.69467,0.88133 -1.67467,2.13333 -1.67467,2.13333 -2.13867,2.74533 -4.44667,5.78133 -6.52933,8.58933 -0.87867,0.19733 -1.75867,0.39467 -2.636,0.596 0.26133,-10.49466 -0.128,-20.98933 -0.74,-31.46266 -6.76134,1.684 -13.70267,3.30133 -19.98134,6.39333 0.816,-2.43733 1.61334,-4.87867 2.39867,-7.32533 -1.50267,-3.60134 -3.22,-7.484 -4.824,-11.06134 -0.30667,-0.68133 -1.74133,-3.79733 -2.016,-4.412 -10.612,-1.25733 -22.01467,-1.144 -31.90933,3.33467 -5.78534,2.572 -10.61067,7.99467 -10.644,14.54667 0.46133,-1.992 1.2,-3.89467 2.30666,-5.53467 7.05734,-10.41867 26.02934,-10.01733 37.68,-8.82533 0.46534,1.02133 1.12267,2.468 1.12267,2.468 1.45333,3.16133 3.09067,6.60666 4.628,9.74933 -2.33067,8.93733 -4.50667,17.928 -6.15067,27.024 -2.188,-3.072 -6.08666,-4.92267 -10.024,-4.01733 -7.85066,-4.44134 -15.904,-8.508 -24.02133,-12.428 4.276,-5.25867 10.40933,-11.59734 14.78933,-16.46934 1.312,1.752 2.648,3.48534 3.97334,5.22667 4.72666,6.09733 9.528,12.132 14.66666,17.892 -5.528,-8.676 -11.608,-16.976 -17.828,-25.16267 l -0.69466,-0.89866 -0.74667,0.83066 c -2.89333,3.20534 -5.69333,6.47734 -8.37867,9.85734 -2.14666,2.764 -4.34666,5.536 -6.14133,8.54933 -0.81333,-0.392 -1.624,-0.784 -2.43867,-1.17333 -3.77199,0.99466 -7.85199,2.16133 -11.61599,3.25733 -0.71734,0.21067 -4.00134,1.204 -4.64667,1.39067 l -0.272,0.99466 c -2.80667,11.30267 -4.61333,26.56133 1.89333,36.852 2.292,3.55467 6.096,6.11467 10.24267,6.76267 -1.912,-0.73467 -3.69333,-1.72667 -5.16533,-3.048 -5.61867,-5.06134 -6.772,-13.84667 -6.19867,-22.52 2.272,3.224 4.61333,6.39066 7.06933,9.48 2.34934,2.89066 4.69067,5.84666 7.432,8.38266 -0.076,0.0573 -0.15333,0.11467 -0.22933,0.172 -0.85067,3.80667 -1.692,7.968 -2.448,11.81467 -0.14267,0.732 -0.77067,4.10667 -0.9,4.76533 7.908,7.13867 17.344,13.66267 27.976,15.704 6.208,1.23867 13.28,-0.40133 17.092,-5.72933 -1.53067,1.35867 -3.23067,2.484 -5.08134,3.184 -11.81066,4.424 -27.01733,-6.84267 -35.86,-14.552 0.212,-1.10133 0.508,-2.66267 0.508,-2.664 0.64134,-3.41867 1.292,-7.17733 1.852,-10.62933 6.24267,-5.23734 12.41067,-10.57067 18.37734,-16.12934 1.07866,2.488 3.19066,4.572 6.34933,5.45467 1.476,0.41867 2.956,0.432 4.35333,0.14 1.62267,5.408 3.43867,10.756 5.36267,16.06267 -3.708,5.63866 -9.08267,12.488 -12.896,17.732 -1.484,-1.60934 -2.99067,-3.196 -4.49067,-4.78934 -5.32933,-5.57466 -10.732,-11.08266 -16.43733,-16.28 6.39467,8.05734 13.3,15.684 20.332,23.18534 l 0.78533,0.82133 0.656,-0.90267 c 4.34,-6.168 8.95334,-12.42 12.24,-19.248 1.124,3.08534 2.28134,6.15867 3.45734,9.224 3.38133,1.932 7.10533,3.956 10.55333,5.808 0.65867,0.35334 3.69867,1.94667 4.28933,2.26534 9.148,-5.456 18.164,-12.556 23.24534,-22.11334 3.012,-5.56666 3.528,-12.80933 -0.44267,-18.02133 0.848,1.86267 1.424,3.82 1.54667,5.796 0.76533,12.55867 -14.50534,23.81733 -24.464,29.98267 -0.976,-0.51734 -2.39734,-1.26934 -2.39734,-1.26934 -3.08666,-1.62 -6.49333,-3.35466 -9.63333,-4.90933 -0.33333,-0.74 -0.66667,-1.47867 -1.004,-2.21867 9.56667,-1.78133 19.01867,-4.11466 28.42,-6.60933 l 1.09333,-0.30133 -0.48,-1.004 c -3.268,-6.57867 -6.46666,-13.34267 -10.89066,-19.236 m 23.848,-3.64134 c 0.19066,21.008 -13.336,41.136 -32.83334,48.93067 -34.69333,14.304 -73.09599,-11.37867 -72.98399,-48.93067 -0.104,-37.55333 38.28666,-63.23199 72.98399,-48.93066 19.49734,7.79333 33.02134,27.924 32.83334,48.93066 m -20.93467,-29.63333 c -5.56667,1.316 -12.84,2.75734 -18.37067,4.452 -2.216,6.61067 -4.572,13.176 -7.21866,19.63067 0.968,1.384 1.58533,3.00133 1.70666,4.72533 -0.40933,-3.93467 -4.39333,-7.00133 -8.284,-6.052 -7.21066,1.68 -7.22133,12.09867 0,13.768 3.89334,0.94267 7.872,-2.12667 8.284,-6.064 -0.29866,4.20533 -3.55466,7.79867 -7.58666,8.77733 3.716,6.85334 7.08933,13.88534 10.31866,20.976 6.78534,-2.32933 13.67467,-4.33333 20.59067,-6.24133 2.11467,-0.56533 4.22667,-1.14 6.348,-1.68533 -2.68267,-5.628 -6.012,-13.31467 -9.08267,-18.952 -6.97866,1.08266 -13.98133,2.03066 -21.01866,2.70266 8.816,-2.65866 17.76,-4.864 26.732,-6.90666 -0.988,-7.49467 -1.57334,-15.02533 -2.06,-22.56533 -0.12134,-2.188 -0.256,-4.376 -0.35867,-6.56534 m 86.34666,14.18134 c -2.24533,5.93466 -5.02533,11.61199 -8.34533,17.01733 h 17 l 6.49333,-7.49467 0.36134,0.31333 -10e-4,-10e-4 2.84534,-5.46933 c -5.28667,-1.168 -12.968,-3.06133 -18.31734,-4.34533 -0.012,-0.005 -0.024,-0.0133 -0.036,-0.02 m -3.55066,-58.61734 c -0.432,-0.34666 -0.876,-0.68666 -1.31867,-1.02933 -1.512,9.548 -3.87333,23.34 -5.508,32.97067 -0.67733,4.33333 -1.91467,11.24 -2.43067,15.52666 -0.005,0.30534 -0.052,0.65867 -0.0333,0.92267 0.44267,1.152 1.684,1.99467 2.61867,2.79867 3.18133,2.484 7.24533,4.88533 10.424,6.80133 5.32933,1.41733 12.91466,3.49867 18.152,4.992 l -0.87467,-24.28933 c 0,0 -11.37867,-8.53467 -16.412,-10.06667 1.31333,-5.688 4.15733,-17.724 4.15733,-17.724 h 1.53334 c -2.92667,-4.03733 -6.52667,-7.66533 -10.308,-10.90267 M 369.41332,66.325949 c -6.61733,-18.51466 -12.70266,-37.444 -18.132,-56.3426601 -4.40266,-0.14667 -8.80933,-0.236 -13.21333,-0.30267 2.69733,18.4426701 4.80667,37.1733301 6.264,55.7533301 8.35867,0.32667 16.71867,0.62133 25.08133,0.892 m -353.074787,25 c 0,2.62533 -11.597906,42.888001 -11.597906,42.888001 v 14.00533 l 0.116666,-0.464 c 0.616667,0.156 60.395372,15.17467 67.979637,16.068 2.0224,-11.99466 12.48853,-26.41866 26.808935,-36.88266 17.285865,-12.63067 38.072795,-18.51334 58.532795,-16.56934 6.47467,0.616 12.7,1.81734 18.63467,3.55467 -0.12533,-4.16933 -0.15733,-8.34 -0.0547,-12.512 -13.03466,-3.21867 -26.744,-3.86933 -40.11466,-1.87333 -28.23987,3.66 -60.71853,18.36133 -67.496668,48.67866 6.326668,-30.64266 38.969328,-45.81866 67.380668,-49.53866 13.42266,-2.05467 27.18133,-1.43067 40.26,1.788 0.144,-2.576 -0.0373,-5.24267 0.67466,-7.734671 1.884,-5.37467 6.08667,-17.73333 8.02534,-22.89067 0.728,-2.02 1.48133,-4.03066 2.23466,-6.04133 -21.42133,-0.188 -42.84666,0.248 -64.2508,1.46933 -26.97546,1.46267 -54.163462,4.292 -80.945328,7.872 7.402667,1.53734 12.716667,4.82 12.328133,11.512 -0.314,4.052 -2.310933,7.56 -4.214533,11.042671 -0.0021,0.112 0.0077,0.224 0,0.33733 -0.06147,-0.001 -0.1224,-0.003 -0.182266,-0.004 -0.298,0.54667 -0.5912,1.09067 -0.874534,1.63867 -6.7416,12.24267 -14.020799,24.21067 -22.531733,35.32267 l -0.06773,0.088 -0.110933,0.012 c -3.357333,0.372 -6.719867,0.70133 -10.080267,1.04533 l -10.081733,1.02533 10.048933,-1.31066 c 3.311467,-0.42934 6.6208,-0.87067 9.935467,-1.27334 2.759866,-3.68266 5.3432,-7.512 7.850533,-11.38 5.055733,-7.79866 9.800533,-15.79733 14.215066,-23.976 0.202134,-0.4 0.4136,-0.80133 0.6292,-1.20533 -11.215066,-0.128 -22.455733,-0.49333 -33.583866,-1.94667 11.0948,0.768 22.764533,0.98134 33.908266,1.028 -0.06667,-1.409331 -0.550933,-2.806661 -1.286933,-4.069331 -4.6864,-7.64133 -17.264533,-14.65467 -26.413599,-18.024 -0.236934,0.1 -0.478,0.204 -0.715067,0.304 0.227067,-0.10533 0.4568,-0.21067 0.684933,-0.316 -0.509333,-0.18667 -1.009866,-0.364 -1.4964,-0.528 -4.462,0.024 -8.925493,0.0813 -13.380693,-0.08 -0.881253,-0.009 -1.67604,-0.04 -2.366146,-0.0973 0,0 11.597906,16.41066 11.597906,19.03733 M 182.712,199.21661 c 2.73733,-0.436 5.47466,-0.88933 8.20666,-1.356 2.50667,-2.99066 5.16534,-6.30133 7.604,-9.368 0.464,-0.58666 2.572,-3.29466 2.99067,-3.81866 -3.744,-9.97467 -9.12667,-20.10667 -17.632,-26.804 -4.94267,-3.95333 -11.97733,-5.74667 -17.81333,-2.764 1.984,-0.50667 4.012,-0.72267 5.97733,-0.49467 4.99733,0.59067 9.33067,3.67334 13.01067,7.85067 -3.84934,0.96533 -7.66667,2.02 -11.45334,3.208 -2.428,0.792 -4.88133,1.572 -7.26666,2.512 0.576,-1.74667 1.14666,-3.49467 1.70933,-5.24533 -1.504,-3.60134 -3.22133,-7.484 -4.82533,-11.06134 -0.30667,-0.68133 -1.74134,-3.79733 -2.01467,-4.412 -10.61333,-1.25733 -22.016,-1.144 -31.90947,3.33467 -5.78493,2.572 -10.612,7.99467 -10.64693,14.54667 0.46467,-1.992 1.20373,-3.89467 2.30987,-5.53467 7.05893,-10.41867 26.02786,-10.01733 37.67853,-8.82533 0.46533,1.02133 1.124,2.468 1.124,2.468 1.45333,3.16133 3.09067,6.60666 4.628,9.74933 -0.57333,2.19467 -1.13733,4.39467 -1.68667,6.59867 -0.38533,0.196 -0.77066,0.39466 -1.14933,0.60533 0.35067,-0.12 0.72,-0.23733 1.088,-0.356 -1.65867,6.68133 -3.17867,13.39867 -4.40267,20.176 -2.18933,-3.072 -6.088,-4.92267 -10.02533,-4.01733 -7.848,-4.44 -15.89933,-8.50534 -24.01547,-12.42534 4.22347,-5.564 11.37947,-12.90933 16.3088,-18.39066 1.30934,1.752 2.64534,3.48533 3.972,5.22533 4.72534,6.09733 9.528,12.13333 14.668,17.892 -5.52933,-8.67467 -11.60933,-16.97467 -17.828,-25.16133 l -0.696,-0.89867 -0.74666,0.83067 c -2.89334,3.20533 -5.692,6.47733 -8.37867,9.85733 -2.63533,3.39067 -5.36187,6.79067 -7.30467,10.64267 -0.93226,-0.45067 -1.864,-0.9 -2.79786,-1.348 -3.77294,0.99466 -7.8536,2.16133 -11.61667,3.25733 -0.71773,0.21067 -4.00267,1.204 -4.64693,1.39067 l -0.2708,0.99466 c -2.80827,11.30267 -4.61347,26.56133 1.89266,36.852 2.2912,3.55467 6.0964,6.11467 10.24334,6.76267 -1.91147,-0.73467 -3.69427,-1.72667 -5.16667,-3.048 -5.61827,-5.06134 -6.7724,-13.84667 -6.19853,-22.52 2.27146,3.224 4.6136,6.39066 7.0688,9.48 2.34946,2.89066 4.6912,5.84666 7.43066,8.38266 -0.0755,0.0573 -0.15146,0.11467 -0.22706,0.172 -0.85147,3.80667 -1.69107,7.968 -2.44787,11.81467 -0.1432,0.732 -0.7708,4.10667 -0.90267,4.76533 7.91,7.13867 17.34694,13.66267 27.9776,15.704 6.208,1.23867 13.28,-0.40133 17.092,-5.72933 -1.52933,1.35867 -3.232,2.484 -5.08133,3.184 -11.80933,4.424 -27.01587,-6.84267 -35.85853,-14.552 0.20986,-1.10133 0.50786,-2.66267 0.50786,-2.664 0.638,-3.41867 1.29107,-7.17733 1.85107,-10.62933 6.24373,-5.23734 12.4116,-10.57067 18.37693,-16.12934 1.07867,2.488 3.19067,4.572 6.34934,5.45467 1.47733,0.41867 2.956,0.432 4.35466,0.14 1.68134,5.604 3.56934,11.144 5.572,16.63867 -3.34,4.956 -8.072,10.67733 -11.56533,15.25466 -1.48933,-1.61466 -3.00267,-3.20533 -4.508,-4.80666 -5.32933,-5.576 -10.7312,-11.084 -16.43853,-16.28 6.63173,8.34 13.78653,16.24266 21.09853,23.98533 2.57733,-3.33333 5.056,-6.732 7.35867,-10.26 1.50933,-2.36133 3.04933,-4.748 4.28,-7.276 1.048,2.85867 2.12,5.708 3.212,8.54933 3.38133,1.932 7.10533,3.956 10.55333,5.808 0.65867,0.35334 3.69733,1.94667 4.288,2.26534 9.14933,-5.456 18.16533,-12.556 23.24533,-22.11334 3.01334,-5.56666 3.52934,-12.80933 -0.44266,-18.02133 0.848,1.86267 1.42266,3.82 1.548,5.796 0.76533,12.55867 -14.50667,23.81733 -24.46534,29.98267 -0.97733,-0.51734 -2.396,-1.26934 -2.396,-1.26934 -3.08666,-1.62 -6.49333,-3.35466 -9.63466,-4.90933 -3.56667,-7.912 -7.276,-15.77067 -11.416,-23.40667 4.03066,-0.97866 7.28533,-4.572 7.584,-8.77733 -0.40934,3.93733 -4.38934,7.00667 -8.28134,6.064 -7.22266,-1.66933 -7.21333,-12.088 0,-13.768 3.88934,-0.94933 7.87334,2.11733 8.28267,6.052 -0.12133,-1.724 -0.73733,-3.34133 -1.70533,-4.72533 2.86266,-6.98533 5.38666,-14.10133 7.76266,-21.264 6.16534,-1.72 13.66667,-3.31467 19.34934,-4.72533 0.10266,2.18533 0.23733,4.36933 0.36,6.55333 0.49466,7.69733 1.08933,15.38933 2.116,23.03866 0.264,-9.54133 -0.048,-19.08399 -0.54134,-28.61199 4.37067,5.89866 7.65734,13.12133 9.868,18.724 -0.69333,0.88133 -1.676,2.13333 -1.676,2.13333 -2.13733,2.74533 -4.444,5.78133 -6.528,8.58933 -9.87866,2.21467 -19.73333,4.59333 -29.43466,7.51733 7.624,-0.728 15.20933,-1.77866 22.76933,-2.97733 2.90133,5.15733 6.2,12.152 8.824,17.31333 -2.10933,0.544 -4.21333,1.11734 -6.31867,1.68 -7.436,2.05067 -14.84533,4.196 -22.12666,6.76 10.12666,-1.81466 20.116,-4.28133 30.05333,-6.916 l 1.124,-0.31066 -0.524,-1.02 c -3.20267,-6.03467 -6.4,-12.196 -10.65733,-17.56534 m 22.10266,-3.368 c 0.19067,21.008 -13.336,41.136 -32.832,48.93067 -34.69333,14.304 -73.097195,-11.37867 -72.984795,-48.93067 -0.1052,-37.55333 38.286135,-63.23199 72.984795,-48.93066 19.49734,7.79333 33.02,27.924 32.832,48.93066 M 22.203066,72.892619 c 0.313067,-0.144 0.628134,-0.288 0.942267,-0.43334 -0.804667,0 -1.6084,0 -2.413067,0.005 0.465067,0.124 0.957867,0.26933 1.4708,0.428 M 156.40933,129.60294 c -42.99573,-3.18 -77.93333,35.93067 -69.5348,78.28533 -7.61986,-41.93466 26.89373,-80.55733 69.46813,-77.33866 36.672,2.35867 64.10667,35.25067 60.98133,71.684 -0.26933,5.008 -1.34933,9.94666 -3.09866,14.64666 1.832,-4.676 2.99866,-9.61466 3.35466,-14.628 3.76134,-36.83466 -24.14399,-70.21999 -61.17066,-72.64933 m 48.40533,66.24533 c 0.28667,-21.06133 -13.20533,-41.29066 -32.72133,-49.19733 -34.99067,-14.604 -73.8256,11.28934 -73.8616,49.19733 0.0443,37.90934 38.8656,63.796 73.86027,49.196 19.51866,-7.904 33.008,-28.136 32.72266,-49.196 M 76.7328,182.13528 c -10.516668,-3.86933 -21.282801,-6.24266 -32.229201,-8.24 -10.964,-1.87333 -21.920266,-3.35866 -33.124426,-3.19866 10.367227,4.288 21.170293,6.81333 32.125493,8.83466 10.977599,1.87734 22.023466,3.232 33.228134,2.604 m 290.43786,37.82 0.448,0.16667 -134.21067,0.0893 -7.76933,3.71867 -12.196,-4.848 c -9.39733,24.952 -33.48933,42.704 -61.728,42.704 -31.774,0 -58.298,-22.47334 -64.54493,-52.39334 C 67.257332,207.64325 17.870266,197.89125 3.208853,183.44725 L 1.89636,176.66592 c 0,0 7.8775998,-1.31333 8.75312,-3.72 C 11.52448,170.53925 0,164.62992 0,164.62992 v -14.296 L 4.740627,148.21925 4.625,148.68059 c 2.5724,0.648 63.055265,15.844 68.58127,16.13466 l 0.0255,-0.47733 0.47133,0.072 c 3.22667,-21.24 37.71359,-57.536 84.38493,-53.088 6.69733,0.63733 12.94666,1.85733 18.756,3.564 0.11333,3.39467 0.284,6.78667 0.49866,10.17733 0.264,-3.188 0.24534,-6.58 0.21334,-9.96533 35.98799,10.88533 54.78266,40.62133 57.12666,67.08 l 0.95067,-0.084 c -1.56134,-17.616 -9.63467,-34.408 -22.73467,-47.284 -9.75466,-9.588 -21.76,-16.58 -35.34933,-20.67867 -0.0173,-1.76133 -0.0293,-3.51733 0,-5.23466 0.02,-2.43734 -0.0467,-4.87467 -0.0973,-7.31334 15.264,3.884 29.57199,11.312 41.27733,22.19067 6.468,5.88267 11.85866,12.824 16.06266,20.42933 -0.032,0.056 -0.0507,0.0933 -0.056,0.10134 l 0.15067,0.0813 c 5.25333,9.55867 8.63467,20.16133 9.89867,31.04 -1.05334,-10.71733 -4.19067,-21.208 -9.18,-30.72267 0.756,-1.37333 18.30133,-32.284 63.056,-36.49066 13.56933,-1.27734 38.16266,-1.87067 66.92399,-2.05734 0.968,8.356 1.828,24.072 2.49334,39.17067 -29.80533,2.45467 -59.57467,5.41067 -89.29333,8.59067 l -19.30934,2.18133 c -0.58666,0.0533 -1.23066,0.11467 -1.816,0.28133 -2.53733,0.812 -4.61066,2.624 -6.51733,4.412 -2.33067,2.256 -4.43067,4.73734 -6.356,7.34 3.24267,-4.05866 9.18667,-11.64133 14.712,-11.80266 18.74133,-1.88534 39.356,-4.012 58.01467,-5.71067 16.85866,-1.53067 33.72799,-3.00267 50.60666,-4.35733 0.52533,12.03866 0.924,23.56933 1.14933,30.53333 -39.49466,-0.51467 -86.65199,-1.104 -119.23199,-1.368 37.65466,0.82933 78.53466,1.624 119.25999,2.26133 0.08,2.47734 0.13467,4.27067 0.16134,5.16934 -43.15333,-0.956 -86.328,-1.09734 -129.48667,-0.72134 43.17067,0.25067 86.36267,0.57334 129.532,1.59067 0.26933,2.26 2.55467,22.976 -2.33333,36.22933 M 339.09733,63.292619 c -0.49867,-9.37867 -1.66,-28.26533 -2.25334,-37.63867 l -0.0227,-0.35733 -0.36134,0.0107 c -24.45066,0.66933 -52.428,1.49466 -76.804,2.44533 l -0.212,0.007 -0.084,0.19066 c -3.29733,7.43867 -9.804,22.42667 -13.04133,29.89733 3.392,-7.30133 10.184,-21.97466 13.56667,-29.43066 17.724,-0.424 39.61333,-1.09467 57.39866,-1.69733 l 18.84267,-0.65467 c 0.72,9.488 2.16667,27.976 2.97067,37.228 m -99.092,-9.624 c 3.00933,-6.096 8.816,-18.15733 11.712,-24.31067 l 0.29466,-0.62266 -0.67866,0.0413 c -5.78,0.35467 -13.988,0.79067 -19.676,1.28 5.52,-0.0533 13.26933,-0.25467 19.03333,-0.44667 l -5.56667,11.4 -5.62666,11.82534 c -4.824,-0.10667 -10.19734,-0.19734 -15.00134,-0.22534 l -5.092,-0.0147 5.08134,0.31333 c 4.98133,0.28933 10.536,0.55866 15.52,0.76 m -28.47067,-5.51867 11.424,-15.18133 -4.78133,-2.656 -11.73734,15.60933 z M 338.04129,9.6809089 c 1.46533,18.5813301 3.56799,37.3120001 6.27199,55.7520001 -15.67733,-0.612 -31.34533,-1.33067 -46.99333,-2.18534 -30.68133,-1.668 -61.83333,-4.53333 -91.33466,-13.51733 0.0133,-0.0227 0.0267,-0.0427 0.0387,-0.0667 l -0.0827,-0.0467 c -0.0187,0.0293 -0.04,0.0547 -0.0573,0.0827 -2.23467,-0.68134 -4.45867,-1.39467 -6.672,-2.148 -9.07467,-3.18134 -18.31334,-6.82134 -26.492,-11.86934 10.688,-6.10533 21.40266,-12.236 32.48266,-17.596 1.95867,-0.88133 3.98933,-1.92533 6.06933,-2.36266 l 0.388,-0.0413 0.78,-0.08 c 0,0 1.56134,-0.15466 1.56134,-0.156 41.20533,-3.60533 82.652,-6.3840001 124.04,-5.7653301 M 50.504656,93.964909 c 1.618266,-2.976 3.200533,-6.06 3.451599,-9.37067 0.624,-10.36 -13.754133,-11.24133 -21.321332,-11.884 -3.107867,-0.19733 -6.221867,-0.24533 -9.3376,-0.24933 -0.348933,0.148 -0.703067,0.29866 -1.0504,0.44533 9.474933,2.96533 26.481733,11.74933 28.257733,21.05867 m 60.359864,85.369331 c 0,0 -1.53853,0.45733 -2.59893,0.77333 -0.9484,3.88134 -1.91974,8.61733 -2.42187,13.50933 9.2276,-4.13466 18.5344,-8.10933 28.0736,-11.48133 -6.76947,3.708 -13.73453,7.024 -20.7408,10.25067 -1.9948,0.9 -3.9844,1.80933 -5.98747,2.69066 3.9,5.572 8.9156,13.344 13.1776,18.732 6.77867,-5.11066 13.63334,-10.12933 20.68134,-14.868 -1.536,-4.90133 0.67866,-10.90533 6.65333,-12.61466 -8.97733,-3.07067 -17.7956,-6.58667 -26.5472,-10.23467 -3.32347,1.088 -6.95933,2.23734 -10.2896,3.24267 m 130.86746,-77.52933 c -8.848,-0.15467 -17.87333,-0.52534 -26.732,-0.832 l -2.67333,-0.0947 c 0,0 -1.336,-0.0467 -1.336,-0.048 -1.23467,0.0667 -2.36933,-0.54133 -2.78533,-1.704 -0.21734,-0.74267 -0.536,-1.74933 -0.696,-2.48533 -0.25867,-1.568 1.11333,-3.016001 2.72266,-2.869341 7.132,0.012 14.26267,-0.112 21.39467,-0.236 1.73333,-0.0307 6.35467,-0.10533 8.02267,-0.13333 0.888,0.0107 1.80533,-0.15067 2.592,0.28267 1.65066,0.832001 1.81733,2.977331 2.44266,4.534661 0.43067,1.79467 -1.10933,3.65734 -2.952,3.58534"
         style="fill:#100f0d;fill-opacity:1;fill-rule:nonzero;stroke:none;stroke-width:0.133333" />
    </g>
  </g>
</svg>
