<?xml version="1.0" encoding="UTF-8"?>
<!-- Do not edit this file with editors other than draw.io -->
<!DOCTYPE svg PUBLIC "-//W3C//DTD SVG 1.1//EN" "http://www.w3.org/Graphics/SVG/1.1/DTD/svg11.dtd">
<svg xmlns="http://www.w3.org/2000/svg" xmlns:xlink="http://www.w3.org/1999/xlink" version="1.1" width="162px" height="62px" viewBox="-0.5 -0.5 162 62" content="&lt;mxfile host=&quot;app.diagrams.net&quot; agent=&quot;Mozilla/5.0 (X11; Linux x86_64; rv:132.0) Gecko/20100101 Firefox/132.0&quot; version=&quot;24.8.3&quot; scale=&quot;1&quot; border=&quot;0&quot;&gt;&#xA;  &lt;diagram name=&quot;Page-1&quot; id=&quot;-ygT_HLLcLUaW2H94txu&quot;&gt;&#xA;    &lt;mxGraphModel dx=&quot;1114&quot; dy=&quot;566&quot; grid=&quot;1&quot; gridSize=&quot;10&quot; guides=&quot;1&quot; tooltips=&quot;1&quot; connect=&quot;1&quot; arrows=&quot;1&quot; fold=&quot;1&quot; page=&quot;1&quot; pageScale=&quot;1&quot; pageWidth=&quot;600&quot; pageHeight=&quot;550&quot; math=&quot;0&quot; shadow=&quot;0&quot;&gt;&#xA;      &lt;root&gt;&#xA;        &lt;mxCell id=&quot;0&quot; /&gt;&#xA;        &lt;mxCell id=&quot;1&quot; parent=&quot;0&quot; /&gt;&#xA;        &lt;mxCell id=&quot;EpidA8DErPcU7x6Moihq-1&quot; value=&quot;&quot; style=&quot;html=1;shadow=0;dashed=0;align=center;verticalAlign=middle;shape=mxgraph.arrows2.twoWayArrow;dy=0.6;dx=35;sketch=1;curveFitting=1;jiggle=2;fillColor=#cdeb8b;strokeColor=#36393d;fillStyle=solid;strokeWidth=2;&quot; vertex=&quot;1&quot; parent=&quot;1&quot;&gt;&#xA;          &lt;mxGeometry x=&quot;160&quot; y=&quot;40&quot; width=&quot;160&quot; height=&quot;60&quot; as=&quot;geometry&quot; /&gt;&#xA;        &lt;/mxCell&gt;&#xA;      &lt;/root&gt;&#xA;    &lt;/mxGraphModel&gt;&#xA;  &lt;/diagram&gt;&#xA;&lt;/mxfile&gt;&#xA;"><defs/><g><g data-cell-id="0"><g data-cell-id="1"><g data-cell-id="EpidA8DErPcU7x6Moihq-1"><g><path d="M 36 19 L 126 19 L 126 1 L 161 31 L 126 61 L 126 43 L 36 43 L 36 61 L 1 31 L 36 1 Z" fill="none" stroke="none" pointer-events="all"/><path d="M 36 19 C 61.53 19.06 74.56 13.21 126 19 C 124.49 12.33 128.2 9.41 126 1 C 136.73 9.58 146.05 9.75 161 31 C 147.49 45.91 134.6 55.82 126 61 C 123.61 58.6 121.1 50.5 126 43 C 110.52 43.22 89.35 42.36 36 43 C 41.04 46.57 32.01 53.47 36 61 C 29.11 52.77 6.14 44.74 1 31 C 7 25.02 22.38 14.1 36 1 C 35.24 5.93 41.01 9.06 36 19" fill="#cdeb8b" stroke="none" pointer-events="all"/><path d="M 36 19 C 66.73 18.05 91.4 24.22 126 19 M 36 19 C 61.51 17.21 86.06 17.93 126 19 M 126 19 C 125.86 11.96 124.64 3.44 126 1 M 126 19 C 124.93 14.01 126.84 7.07 126 1 M 126 1 C 133.77 12.95 149.54 22.12 161 31 M 126 1 C 138.49 14.13 153.44 23.26 161 31 M 161 31 C 154.75 43.56 143.76 44.68 126 61 M 161 31 C 147.66 41.85 135.41 53.91 126 61 M 126 61 C 126.66 53.99 127.76 48.77 126 43 M 126 61 C 125.3 53.26 125.29 45.95 126 43 M 126 43 C 103.36 44.07 83.23 38.37 36 43 M 126 43 C 94.08 46.39 63.88 45.18 36 43 M 36 43 C 39.8 47.78 33.07 51.78 36 61 M 36 43 C 36.94 45.98 37.86 52.59 36 61 M 36 61 C 23.48 45.44 9.39 36.8 1 31 M 36 61 C 21.21 48.37 11.1 40.39 1 31 M 1 31 C 18.1 17.38 27.3 12.96 36 1 M 1 31 C 14.35 20.02 25.11 8.8 36 1 M 36 1 C 32.71 6.55 37.21 13.65 36 19 M 36 1 C 35.15 5.88 35.47 10.94 36 19" fill="none" stroke="#36393d" stroke-width="2" stroke-linejoin="round" stroke-linecap="round" stroke-miterlimit="10" pointer-events="all"/></g></g></g></g></g></svg>