<svg xmlns="http://www.w3.org/2000/svg" xmlns:xlink="http://www.w3.org/1999/xlink" contentStyleType="text/css" height="528px" preserveAspectRatio="none" style="width:177px;height:528px;background:#FFFFFF;" version="1.1" viewBox="0 0 177 528" width="177px" zoomAndPan="magnify"><defs><filter height="300%" id="fxq90z2kykpq9" width="300%" x="-1" y="-1"><feGaussianBlur result="blurOut" stdDeviation="2.0"/><feColorMatrix in="blurOut" result="blurOut2" type="matrix" values="0 0 0 0 0 0 0 0 0 0 0 0 0 0 0 0 0 0 .4 0"/><feOffset dx="4.0" dy="4.0" in="blurOut2" result="blurOut3"/><feBlend in="SourceGraphic" in2="blurOut3" mode="normal"/></filter></defs><g><ellipse cx="75.1864" cy="20" fill="#000000" filter="url(#fxq90z2kykpq9)" rx="10" ry="10" style="stroke:#000000;stroke-width:1.0;"/><rect fill="#FEFECE" filter="url(#fxq90z2kykpq9)" height="36.3441" rx="12.5" ry="12.5" style="stroke:#A80036;stroke-width:1.5;" width="69.9323" x="40.2202" y="94"/><text fill="#000000" font-family="sans-serif" font-size="12" lengthAdjust="spacing" textLength="49.9323" x="50.2202" y="116.8281">planning</text><rect fill="#FEFECE" filter="url(#fxq90z2kykpq9)" height="36.3441" rx="12.5" ry="12.5" style="stroke:#A80036;stroke-width:1.5;" width="120.5727" x="14.9" y="150.3441"/><text fill="#000000" font-family="sans-serif" font-size="12" lengthAdjust="spacing" textLength="100.5727" x="24.9" y="173.1722">overview meeting</text><rect fill="#FEFECE" filter="url(#fxq90z2kykpq9)" height="36.3441" rx="12.5" ry="12.5" style="stroke:#A80036;stroke-width:1.5;" width="87.0085" x="31.6822" y="206.6882"/><text fill="#000000" font-family="sans-serif" font-size="12" lengthAdjust="spacing" textLength="67.0085" x="41.6822" y="229.5163">preparation</text><rect fill="#FEFECE" filter="url(#fxq90z2kykpq9)" height="36.3441" rx="12.5" ry="12.5" style="stroke:#A80036;stroke-width:1.5;" width="128.3728" x="11" y="263.0323"/><text fill="#000000" font-family="sans-serif" font-size="12" lengthAdjust="spacing" textLength="108.3728" x="21" y="285.8604">inspection meeting</text><rect fill="#FEFECE" filter="url(#fxq90z2kykpq9)" height="36.3441" rx="12.5" ry="12.5" style="stroke:#A80036;stroke-width:1.5;" width="59.7803" x="45.2962" y="319.3765"/><text fill="#000000" font-family="sans-serif" font-size="12" lengthAdjust="spacing" textLength="39.7803" x="55.2962" y="342.2045">rework</text><polygon fill="#FEFECE" filter="url(#fxq90z2kykpq9)" points="75.1864,50,87.1864,62,75.1864,74,63.1864,62,75.1864,50" style="stroke:#A80036;stroke-width:1.5;"/><polygon fill="#FEFECE" filter="url(#fxq90z2kykpq9)" points="32.0997,375.7206,118.2731,375.7206,130.2731,387.7206,118.2731,399.7206,32.0997,399.7206,20.0997,387.7206,32.0997,375.7206" style="stroke:#A80036;stroke-width:1.5;"/><text fill="#000000" font-family="sans-serif" font-size="11" lengthAdjust="spacing" textLength="17.0829" x="79.1864" y="411.4795">yes</text><text fill="#000000" font-family="sans-serif" font-size="11" lengthAdjust="spacing" textLength="86.1734" x="32.0997" y="391.9885">exit criteria met?</text><text fill="#000000" font-family="sans-serif" font-size="11" lengthAdjust="spacing" textLength="13.4529" x="130.2731" y="384.4976">no</text><rect fill="#FEFECE" filter="url(#fxq90z2kykpq9)" height="36.3441" rx="12.5" ry="12.5" style="stroke:#A80036;stroke-width:1.5;" width="72.9324" x="38.7202" y="432.9795"/><text fill="#000000" font-family="sans-serif" font-size="12" lengthAdjust="spacing" textLength="52.9324" x="48.7202" y="455.8076">follow-up</text><ellipse cx="75.1864" cy="500.3236" fill="none" filter="url(#fxq90z2kykpq9)" rx="11" ry="11" style="stroke:#000000;stroke-width:1.0;"/><ellipse cx="75.1864" cy="500.3236" fill="#000000" rx="6" ry="6" style="stroke:#000000;stroke-width:1.0;"/><line style="stroke:#A80036;stroke-width:1.5;" x1="75.1864" x2="75.1864" y1="130.3441" y2="150.3441"/><polygon fill="#A80036" points="71.1864,140.3441,75.1864,150.3441,79.1864,140.3441,75.1864,144.3441" style="stroke:#A80036;stroke-width:1.0;"/><line style="stroke:#A80036;stroke-width:1.5;" x1="75.1864" x2="75.1864" y1="186.6882" y2="206.6882"/><polygon fill="#A80036" points="71.1864,196.6882,75.1864,206.6882,79.1864,196.6882,75.1864,200.6882" style="stroke:#A80036;stroke-width:1.0;"/><line style="stroke:#A80036;stroke-width:1.5;" x1="75.1864" x2="75.1864" y1="243.0323" y2="263.0323"/><polygon fill="#A80036" points="71.1864,253.0323,75.1864,263.0323,79.1864,253.0323,75.1864,257.0323" style="stroke:#A80036;stroke-width:1.0;"/><line style="stroke:#A80036;stroke-width:1.5;" x1="75.1864" x2="75.1864" y1="299.3765" y2="319.3765"/><polygon fill="#A80036" points="71.1864,309.3765,75.1864,319.3765,79.1864,309.3765,75.1864,313.3765" style="stroke:#A80036;stroke-width:1.0;"/><line style="stroke:#A80036;stroke-width:1.5;" x1="75.1864" x2="75.1864" y1="74" y2="94"/><polygon fill="#A80036" points="71.1864,84,75.1864,94,79.1864,84,75.1864,88" style="stroke:#A80036;stroke-width:1.0;"/><line style="stroke:#A80036;stroke-width:1.5;" x1="130.2731" x2="151.3728" y1="387.7206" y2="387.7206"/><polygon fill="#A80036" points="147.3728,234.8603,151.3728,224.8603,155.3728,234.8603,151.3728,230.8603" style="stroke:#A80036;stroke-width:1.5;"/><line style="stroke:#A80036;stroke-width:1.5;" x1="151.3728" x2="151.3728" y1="62" y2="387.7206"/><line style="stroke:#A80036;stroke-width:1.5;" x1="151.3728" x2="87.1864" y1="62" y2="62"/><polygon fill="#A80036" points="97.1864,58,87.1864,62,97.1864,66,93.1864,62" style="stroke:#A80036;stroke-width:1.0;"/><line style="stroke:#A80036;stroke-width:1.5;" x1="75.1864" x2="75.1864" y1="355.7206" y2="375.7206"/><polygon fill="#A80036" points="71.1864,365.7206,75.1864,375.7206,79.1864,365.7206,75.1864,369.7206" style="stroke:#A80036;stroke-width:1.0;"/><line style="stroke:#A80036;stroke-width:1.5;" x1="75.1864" x2="75.1864" y1="30" y2="50"/><polygon fill="#A80036" points="71.1864,40,75.1864,50,79.1864,40,75.1864,44" style="stroke:#A80036;stroke-width:1.0;"/><line style="stroke:#A80036;stroke-width:1.5;" x1="75.1864" x2="75.1864" y1="399.7206" y2="432.9795"/><polygon fill="#A80036" points="71.1864,422.9795,75.1864,432.9795,79.1864,422.9795,75.1864,426.9795" style="stroke:#A80036;stroke-width:1.0;"/><line style="stroke:#A80036;stroke-width:1.5;" x1="75.1864" x2="75.1864" y1="469.3236" y2="489.3236"/><polygon fill="#A80036" points="71.1864,479.3236,75.1864,489.3236,79.1864,479.3236,75.1864,483.3236" style="stroke:#A80036;stroke-width:1.0;"/><!--SRC=[JOun3W8n30JxlC9bKl21kuAtMAS5h0jsv9WB_9uWA2XdDThTlekIMqVgmHx9qS2Hqj8ggufUrxJO0Jy4W-v0VACsFNOECPqasXks3_mfZc6-h-bNIUCc5PJnbA3D9U32Kuzp8UcKrGgf1UKNUfdx5wlLnkdHrldCsXi0]--></g></svg>