<svg xmlns="http://www.w3.org/2000/svg" xmlns:xlink="http://www.w3.org/1999/xlink" contentStyleType="text/css" data-diagram-type="GANTT" height="256px" preserveAspectRatio="none" style="width:1162px;height:256px;background:#FFFFFF;" version="1.1" viewBox="0 0 1162 256" width="1162px" zoomAndPan="magnify"><defs/><g><text fill="#000000" font-family="sans-serif" font-size="28" lengthAdjust="spacing" textLength="32.0319" x="66" y="65.9319">39</text><text fill="#000000" font-family="sans-serif" font-size="28" lengthAdjust="spacing" textLength="32.0319" x="144.4" y="65.9319">40</text><text fill="#000000" font-family="sans-serif" font-size="28" lengthAdjust="spacing" textLength="32.0319" x="222.8" y="65.9319">41</text><text fill="#000000" font-family="sans-serif" font-size="28" lengthAdjust="spacing" textLength="32.0319" x="301.2" y="65.9319">42</text><text fill="#000000" font-family="sans-serif" font-size="28" lengthAdjust="spacing" textLength="32.0319" x="379.6" y="65.9319">43</text><text fill="#000000" font-family="sans-serif" font-size="28" lengthAdjust="spacing" textLength="32.0319" x="458" y="65.9319">44</text><text fill="#000000" font-family="sans-serif" font-size="28" lengthAdjust="spacing" textLength="32.0319" x="536.4" y="65.9319">45</text><text fill="#000000" font-family="sans-serif" font-size="28" lengthAdjust="spacing" textLength="32.0319" x="614.8" y="65.9319">46</text><text fill="#000000" font-family="sans-serif" font-size="28" lengthAdjust="spacing" textLength="32.0319" x="693.2" y="65.9319">47</text><text fill="#000000" font-family="sans-serif" font-size="28" lengthAdjust="spacing" textLength="32.0319" x="771.6" y="65.9319">48</text><text fill="#000000" font-family="sans-serif" font-size="28" lengthAdjust="spacing" textLength="32.0319" x="850" y="65.9319">49</text><text fill="#000000" font-family="sans-serif" font-size="28" lengthAdjust="spacing" textLength="32.0319" x="928.4" y="65.9319">50</text><line style="stroke:#C0C0C0;stroke-width:2;" x1="56" x2="56" y1="36" y2="217.8551"/><line style="stroke:#C0C0C0;stroke-width:2;" x1="134.4" x2="134.4" y1="36" y2="217.8551"/><line style="stroke:#C0C0C0;stroke-width:2;" x1="212.8" x2="212.8" y1="36" y2="217.8551"/><line style="stroke:#C0C0C0;stroke-width:2;" x1="291.2" x2="291.2" y1="36" y2="217.8551"/><line style="stroke:#C0C0C0;stroke-width:2;" x1="369.6" x2="369.6" y1="36" y2="217.8551"/><line style="stroke:#C0C0C0;stroke-width:2;" x1="448" x2="448" y1="36" y2="217.8551"/><line style="stroke:#C0C0C0;stroke-width:2;" x1="526.4" x2="526.4" y1="36" y2="217.8551"/><line style="stroke:#C0C0C0;stroke-width:2;" x1="604.8" x2="604.8" y1="36" y2="217.8551"/><line style="stroke:#C0C0C0;stroke-width:2;" x1="683.2" x2="683.2" y1="36" y2="217.8551"/><line style="stroke:#C0C0C0;stroke-width:2;" x1="761.6" x2="761.6" y1="36" y2="217.8551"/><line style="stroke:#C0C0C0;stroke-width:2;" x1="840" x2="840" y1="36" y2="217.8551"/><line style="stroke:#C0C0C0;stroke-width:2;" x1="918.4" x2="918.4" y1="36" y2="217.8551"/><line style="stroke:#C0C0C0;stroke-width:2;" x1="940.8" x2="940.8" y1="36" y2="217.8551"/><line style="stroke:#C0C0C0;stroke-width:2;" x1="0" x2="0" y1="0" y2="36"/><line style="stroke:#C0C0C0;stroke-width:2;" x1="156.8" x2="156.8" y1="0" y2="36"/><text fill="#000000" font-family="sans-serif" font-size="28" font-weight="bold" lengthAdjust="spacing" textLength="121.1835" x="17.8082" y="29.9319">Sep 2025</text><line style="stroke:#C0C0C0;stroke-width:2;" x1="504" x2="504" y1="0" y2="36"/><text fill="#000000" font-family="sans-serif" font-size="28" font-weight="bold" lengthAdjust="spacing" textLength="120.0915" x="270.3543" y="29.9319">Oct 2025</text><line style="stroke:#C0C0C0;stroke-width:2;" x1="840" x2="840" y1="0" y2="36"/><text fill="#000000" font-family="sans-serif" font-size="28" font-weight="bold" lengthAdjust="spacing" textLength="127.5955" x="608.2023" y="29.9319">Nov 2025</text><line style="stroke:#C0C0C0;stroke-width:2;" x1="940.8" x2="940.8" y1="0" y2="36"/><text fill="#000000" font-family="sans-serif" font-size="28" font-weight="bold" lengthAdjust="spacing" textLength="51.6598" x="864.5701" y="29.9319">Dec</text><line style="stroke:#C0C0C0;stroke-width:2;" x1="0" x2="940.8" y1="0" y2="0"/><line style="stroke:#C0C0C0;stroke-width:2;" x1="0" x2="940.8" y1="36" y2="36"/><line style="stroke:#C0C0C0;stroke-width:2;" x1="0" x2="940.8" y1="66" y2="66"/><path d="M376,99.9638 L376,160.9094 L386,160.9094" fill="none" style="stroke:#A80036;stroke-width:3;"/><polygon fill="#A80036" points="384,152.9094,392,160.9094,384,168.9094,384,152.9094" style="stroke:#A80036;stroke-width:2;"/><rect fill="#FEFECE" height="29.9638" style="stroke:none;stroke-width:2;" width="384" x="4" y="70"/><rect fill="none" height="29.9638" style="stroke:#A80036;stroke-width:2;" width="384" x="4" y="70"/><polygon fill="#000000" points="386.4,107.9638,396.4,117.9638,386.4,127.9638,376.4,117.9638" style="stroke:#000000;stroke-width:2;"/><rect fill="#FEFECE" height="29.9638" style="stroke:none;stroke-width:2;" width="540.8" x="396" y="145.9276"/><rect fill="none" height="29.9638" style="stroke:#A80036;stroke-width:2;" width="540.8" x="396" y="145.9276"/><polygon fill="#000000" points="935.2,183.8913,945.2,193.8913,935.2,203.8913,925.2,193.8913" style="stroke:#000000;stroke-width:2;"/><text fill="#000000" font-family="sans-serif" font-size="22" lengthAdjust="spacing" textLength="228.4904" x="12" y="93.5178">requirements analysis</text><text fill="#000000" font-family="sans-serif" font-size="22" lengthAdjust="spacing" textLength="366.5834" x="402.4" y="131.4816">requirements analysis presentation</text><text fill="#000000" font-family="sans-serif" font-size="22" lengthAdjust="spacing" textLength="69.2775" x="404" y="169.4454">design</text><text fill="#000000" font-family="sans-serif" font-size="22" lengthAdjust="spacing" textLength="207.3705" x="951.2" y="207.4092">design presentation</text><line style="stroke:#C0C0C0;stroke-width:2;" x1="0" x2="940.8" y1="217.8551" y2="217.8551"/><line style="stroke:#C0C0C0;stroke-width:2;" x1="0" x2="0" y1="217.8551" y2="253.8551"/><line style="stroke:#C0C0C0;stroke-width:2;" x1="156.8" x2="156.8" y1="217.8551" y2="253.8551"/><text fill="#000000" font-family="sans-serif" font-size="28" font-weight="bold" lengthAdjust="spacing" textLength="121.1835" x="17.8082" y="247.787">Sep 2025</text><line style="stroke:#C0C0C0;stroke-width:2;" x1="504" x2="504" y1="217.8551" y2="253.8551"/><text fill="#000000" font-family="sans-serif" font-size="28" font-weight="bold" lengthAdjust="spacing" textLength="120.0915" x="270.3543" y="247.787">Oct 2025</text><line style="stroke:#C0C0C0;stroke-width:2;" x1="840" x2="840" y1="217.8551" y2="253.8551"/><text fill="#000000" font-family="sans-serif" font-size="28" font-weight="bold" lengthAdjust="spacing" textLength="127.5955" x="608.2023" y="247.787">Nov 2025</text><line style="stroke:#C0C0C0;stroke-width:2;" x1="940.8" x2="940.8" y1="217.8551" y2="253.8551"/><text fill="#000000" font-family="sans-serif" font-size="28" font-weight="bold" lengthAdjust="spacing" textLength="51.6598" x="864.5701" y="247.787">Dec</text><line style="stroke:#C0C0C0;stroke-width:2;" x1="0" x2="940.8" y1="253.8551" y2="253.8551"/><!--SRC=[VP1DJy9048Rlyolc9XnAsYeVzc1GYXgaaV1r8HpMTYmhPLjtjnZ-lTC2CSJePJSxEy_xJAPlhD0s5SfQC5kfKEU6mCGY8_G12YsLFRw-YBRP0M2Yym-ABTQWGT_rsuvxwtXTM6dwBAMc7J63GediOAHPep2ucjwlVnFSa-09CjYk5UQF62ouXol2obojSIEAWXH_sphxoY2f15O96PcgepAyD7gku_kNnkx92FLupbt5m3da7s5uzlNvEEuE9XdVYsYCUzA62VHQbRRLRKJyc561RW-zRj3k1DSz70ndytgi9ZIU9cCqUQbZmaGQg-LRMIcRC19xWTDIMRcZ05zPFmfVpWKSghtKkQgs1ADbzDFGkN4Uf6Mbvb5m6K58xwBCB1DndaYL1hYOFpez60kLbYBbx4q9WvnpzI70vyKt]--></g></svg>