<?xml version="1.0" encoding="UTF-8"?>
<!-- Do not edit this file with editors other than draw.io -->
<!DOCTYPE svg PUBLIC "-//W3C//DTD SVG 1.1//EN" "http://www.w3.org/Graphics/SVG/1.1/DTD/svg11.dtd">
<svg xmlns="http://www.w3.org/2000/svg" style="background: transparent; background-color: transparent; color-scheme: light;" xmlns:xlink="http://www.w3.org/1999/xlink" version="1.1" width="301px" height="261px" viewBox="-0.5 -0.5 301 261" content="&lt;mxfile host=&quot;app.diagrams.net&quot; agent=&quot;Mozilla/5.0 (X11; Linux x86_64; rv:142.0) Gecko/20100101 Firefox/142.0&quot; version=&quot;28.1.1&quot; scale=&quot;1&quot; border=&quot;5&quot;&gt;&#xA;  &lt;diagram name=&quot;Page-1&quot; id=&quot;66rux4UaQldsNaBm-1de&quot;&gt;&#xA;    &lt;mxGraphModel dx=&quot;553&quot; dy=&quot;286&quot; grid=&quot;1&quot; gridSize=&quot;10&quot; guides=&quot;1&quot; tooltips=&quot;1&quot; connect=&quot;1&quot; arrows=&quot;1&quot; fold=&quot;1&quot; page=&quot;1&quot; pageScale=&quot;1&quot; pageWidth=&quot;600&quot; pageHeight=&quot;550&quot; math=&quot;0&quot; shadow=&quot;0&quot;&gt;&#xA;      &lt;root&gt;&#xA;        &lt;mxCell id=&quot;0&quot; /&gt;&#xA;        &lt;mxCell id=&quot;1&quot; parent=&quot;0&quot; /&gt;&#xA;        &lt;mxCell id=&quot;wZlH-rWIr0H8PwmE7oVp-1&quot; value=&quot;&quot; style=&quot;shape=actor;whiteSpace=wrap;html=1;fillColor=#fff2cc;strokeColor=#d6b656;sketch=1;curveFitting=1;jiggle=2;fillStyle=solid;&quot; vertex=&quot;1&quot; parent=&quot;1&quot;&gt;&#xA;          &lt;mxGeometry x=&quot;160&quot; y=&quot;200&quot; width=&quot;60&quot; height=&quot;80&quot; as=&quot;geometry&quot; /&gt;&#xA;        &lt;/mxCell&gt;&#xA;        &lt;mxCell id=&quot;wZlH-rWIr0H8PwmE7oVp-2&quot; value=&quot;&quot; style=&quot;ellipse;shape=cloud;whiteSpace=wrap;html=1;sketch=1;curveFitting=1;jiggle=2;&quot; vertex=&quot;1&quot; parent=&quot;1&quot;&gt;&#xA;          &lt;mxGeometry x=&quot;210&quot; y=&quot;30&quot; width=&quot;240&quot; height=&quot;160&quot; as=&quot;geometry&quot; /&gt;&#xA;        &lt;/mxCell&gt;&#xA;        &lt;mxCell id=&quot;wZlH-rWIr0H8PwmE7oVp-3&quot; value=&quot;&quot; style=&quot;ellipse;whiteSpace=wrap;html=1;sketch=1;curveFitting=1;jiggle=1;&quot; vertex=&quot;1&quot; parent=&quot;1&quot;&gt;&#xA;          &lt;mxGeometry x=&quot;220&quot; y=&quot;170&quot; width=&quot;30&quot; height=&quot;20&quot; as=&quot;geometry&quot; /&gt;&#xA;        &lt;/mxCell&gt;&#xA;        &lt;mxCell id=&quot;wZlH-rWIr0H8PwmE7oVp-4&quot; value=&quot;&quot; style=&quot;ellipse;whiteSpace=wrap;html=1;sketch=1;curveFitting=1;jiggle=1;&quot; vertex=&quot;1&quot; parent=&quot;1&quot;&gt;&#xA;          &lt;mxGeometry x=&quot;210&quot; y=&quot;190&quot; width=&quot;10&quot; height=&quot;10&quot; as=&quot;geometry&quot; /&gt;&#xA;        &lt;/mxCell&gt;&#xA;        &lt;mxCell id=&quot;wZlH-rWIr0H8PwmE7oVp-6&quot; value=&quot;&quot; style=&quot;rounded=0;whiteSpace=wrap;html=1;fillColor=#dae8fc;strokeColor=#6c8ebf;sketch=1;curveFitting=1;jiggle=2;fillStyle=solid;&quot; vertex=&quot;1&quot; parent=&quot;1&quot;&gt;&#xA;          &lt;mxGeometry x=&quot;260&quot; y=&quot;80&quot; width=&quot;30&quot; height=&quot;20&quot; as=&quot;geometry&quot; /&gt;&#xA;        &lt;/mxCell&gt;&#xA;        &lt;mxCell id=&quot;wZlH-rWIr0H8PwmE7oVp-7&quot; value=&quot;&quot; style=&quot;rounded=0;whiteSpace=wrap;html=1;fillColor=#d5e8d4;strokeColor=#82b366;sketch=1;curveFitting=1;jiggle=2;fillStyle=solid;&quot; vertex=&quot;1&quot; parent=&quot;1&quot;&gt;&#xA;          &lt;mxGeometry x=&quot;260&quot; y=&quot;110&quot; width=&quot;30&quot; height=&quot;20&quot; as=&quot;geometry&quot; /&gt;&#xA;        &lt;/mxCell&gt;&#xA;        &lt;mxCell id=&quot;wZlH-rWIr0H8PwmE7oVp-8&quot; value=&quot;&quot; style=&quot;endArrow=classic;html=1;rounded=0;startSize=2;endSize=2;sketch=1;curveFitting=1;jiggle=2;&quot; edge=&quot;1&quot; parent=&quot;1&quot; source=&quot;wZlH-rWIr0H8PwmE7oVp-6&quot; target=&quot;wZlH-rWIr0H8PwmE7oVp-7&quot;&gt;&#xA;          &lt;mxGeometry width=&quot;50&quot; height=&quot;50&quot; relative=&quot;1&quot; as=&quot;geometry&quot;&gt;&#xA;            &lt;mxPoint x=&quot;220&quot; y=&quot;80&quot; as=&quot;sourcePoint&quot; /&gt;&#xA;            &lt;mxPoint x=&quot;270&quot; y=&quot;30&quot; as=&quot;targetPoint&quot; /&gt;&#xA;          &lt;/mxGeometry&gt;&#xA;        &lt;/mxCell&gt;&#xA;        &lt;mxCell id=&quot;wZlH-rWIr0H8PwmE7oVp-10&quot; value=&quot;&quot; style=&quot;rounded=0;whiteSpace=wrap;html=1;fillColor=#fff2cc;strokeColor=#d6b656;sketch=1;curveFitting=1;jiggle=2;fillStyle=solid;&quot; vertex=&quot;1&quot; parent=&quot;1&quot;&gt;&#xA;          &lt;mxGeometry x=&quot;310&quot; y=&quot;90&quot; width=&quot;30&quot; height=&quot;20&quot; as=&quot;geometry&quot; /&gt;&#xA;        &lt;/mxCell&gt;&#xA;        &lt;mxCell id=&quot;wZlH-rWIr0H8PwmE7oVp-11&quot; value=&quot;&quot; style=&quot;endArrow=classic;html=1;rounded=0;startSize=2;endSize=2;sketch=1;curveFitting=1;jiggle=2;&quot; edge=&quot;1&quot; parent=&quot;1&quot; source=&quot;wZlH-rWIr0H8PwmE7oVp-7&quot; target=&quot;wZlH-rWIr0H8PwmE7oVp-10&quot;&gt;&#xA;          &lt;mxGeometry width=&quot;50&quot; height=&quot;50&quot; relative=&quot;1&quot; as=&quot;geometry&quot;&gt;&#xA;            &lt;mxPoint x=&quot;240&quot; y=&quot;110&quot; as=&quot;sourcePoint&quot; /&gt;&#xA;            &lt;mxPoint x=&quot;240&quot; y=&quot;120&quot; as=&quot;targetPoint&quot; /&gt;&#xA;          &lt;/mxGeometry&gt;&#xA;        &lt;/mxCell&gt;&#xA;        &lt;mxCell id=&quot;wZlH-rWIr0H8PwmE7oVp-12&quot; value=&quot;&quot; style=&quot;rounded=0;whiteSpace=wrap;html=1;fillColor=#fff2cc;strokeColor=#d6b656;sketch=1;curveFitting=1;jiggle=2;fillStyle=solid;&quot; vertex=&quot;1&quot; parent=&quot;1&quot;&gt;&#xA;          &lt;mxGeometry x=&quot;310&quot; y=&quot;130&quot; width=&quot;30&quot; height=&quot;20&quot; as=&quot;geometry&quot; /&gt;&#xA;        &lt;/mxCell&gt;&#xA;        &lt;mxCell id=&quot;wZlH-rWIr0H8PwmE7oVp-13&quot; value=&quot;&quot; style=&quot;endArrow=classic;html=1;rounded=0;startSize=2;endSize=2;sketch=1;curveFitting=1;jiggle=2;&quot; edge=&quot;1&quot; parent=&quot;1&quot; source=&quot;wZlH-rWIr0H8PwmE7oVp-7&quot; target=&quot;wZlH-rWIr0H8PwmE7oVp-12&quot;&gt;&#xA;          &lt;mxGeometry width=&quot;50&quot; height=&quot;50&quot; relative=&quot;1&quot; as=&quot;geometry&quot;&gt;&#xA;            &lt;mxPoint x=&quot;300&quot; y=&quot;120&quot; as=&quot;sourcePoint&quot; /&gt;&#xA;            &lt;mxPoint x=&quot;330&quot; y=&quot;110&quot; as=&quot;targetPoint&quot; /&gt;&#xA;          &lt;/mxGeometry&gt;&#xA;        &lt;/mxCell&gt;&#xA;        &lt;mxCell id=&quot;wZlH-rWIr0H8PwmE7oVp-14&quot; value=&quot;&quot; style=&quot;rounded=0;whiteSpace=wrap;html=1;fillColor=#dae8fc;strokeColor=#6c8ebf;sketch=1;curveFitting=1;jiggle=2;fillStyle=solid;&quot; vertex=&quot;1&quot; parent=&quot;1&quot;&gt;&#xA;          &lt;mxGeometry x=&quot;360&quot; y=&quot;90&quot; width=&quot;30&quot; height=&quot;20&quot; as=&quot;geometry&quot; /&gt;&#xA;        &lt;/mxCell&gt;&#xA;        &lt;mxCell id=&quot;wZlH-rWIr0H8PwmE7oVp-15&quot; value=&quot;&quot; style=&quot;endArrow=classic;html=1;rounded=0;startSize=2;endSize=2;sketch=1;curveFitting=1;jiggle=2;&quot; edge=&quot;1&quot; parent=&quot;1&quot; source=&quot;wZlH-rWIr0H8PwmE7oVp-12&quot; target=&quot;wZlH-rWIr0H8PwmE7oVp-14&quot;&gt;&#xA;          &lt;mxGeometry width=&quot;50&quot; height=&quot;50&quot; relative=&quot;1&quot; as=&quot;geometry&quot;&gt;&#xA;            &lt;mxPoint x=&quot;300&quot; y=&quot;120&quot; as=&quot;sourcePoint&quot; /&gt;&#xA;            &lt;mxPoint x=&quot;330&quot; y=&quot;130&quot; as=&quot;targetPoint&quot; /&gt;&#xA;          &lt;/mxGeometry&gt;&#xA;        &lt;/mxCell&gt;&#xA;        &lt;mxCell id=&quot;wZlH-rWIr0H8PwmE7oVp-16&quot; value=&quot;&quot; style=&quot;endArrow=classic;html=1;rounded=0;startSize=2;endSize=2;sketch=1;curveFitting=1;jiggle=2;&quot; edge=&quot;1&quot; parent=&quot;1&quot; source=&quot;wZlH-rWIr0H8PwmE7oVp-10&quot; target=&quot;wZlH-rWIr0H8PwmE7oVp-14&quot;&gt;&#xA;          &lt;mxGeometry width=&quot;50&quot; height=&quot;50&quot; relative=&quot;1&quot; as=&quot;geometry&quot;&gt;&#xA;            &lt;mxPoint x=&quot;290&quot; y=&quot;118&quot; as=&quot;sourcePoint&quot; /&gt;&#xA;            &lt;mxPoint x=&quot;310&quot; y=&quot;110&quot; as=&quot;targetPoint&quot; /&gt;&#xA;          &lt;/mxGeometry&gt;&#xA;        &lt;/mxCell&gt;&#xA;        &lt;mxCell id=&quot;wZlH-rWIr0H8PwmE7oVp-17&quot; value=&quot;&quot; style=&quot;rounded=0;whiteSpace=wrap;html=1;fillColor=#d5e8d4;strokeColor=#82b366;sketch=1;curveFitting=1;jiggle=2;fillStyle=solid;&quot; vertex=&quot;1&quot; parent=&quot;1&quot;&gt;&#xA;          &lt;mxGeometry x=&quot;380&quot; y=&quot;130&quot; width=&quot;30&quot; height=&quot;20&quot; as=&quot;geometry&quot; /&gt;&#xA;        &lt;/mxCell&gt;&#xA;        &lt;mxCell id=&quot;wZlH-rWIr0H8PwmE7oVp-18&quot; value=&quot;&quot; style=&quot;endArrow=classic;html=1;rounded=0;startSize=2;endSize=2;sketch=1;curveFitting=1;jiggle=2;&quot; edge=&quot;1&quot; parent=&quot;1&quot; source=&quot;wZlH-rWIr0H8PwmE7oVp-14&quot; target=&quot;wZlH-rWIr0H8PwmE7oVp-17&quot;&gt;&#xA;          &lt;mxGeometry width=&quot;50&quot; height=&quot;50&quot; relative=&quot;1&quot; as=&quot;geometry&quot;&gt;&#xA;            &lt;mxPoint x=&quot;340&quot; y=&quot;130&quot; as=&quot;sourcePoint&quot; /&gt;&#xA;            &lt;mxPoint x=&quot;365&quot; y=&quot;110&quot; as=&quot;targetPoint&quot; /&gt;&#xA;          &lt;/mxGeometry&gt;&#xA;        &lt;/mxCell&gt;&#xA;      &lt;/root&gt;&#xA;    &lt;/mxGraphModel&gt;&#xA;  &lt;/diagram&gt;&#xA;&lt;/mxfile&gt;&#xA;"><defs/><g><g data-cell-id="0"><g data-cell-id="1"><g data-cell-id="wZlH-rWIr0H8PwmE7oVp-1"><g><path d="M 5 255 C 5 223 5 207 35 207 C 15 207 15 175 35 175 C 55 175 55 207 35 207 C 65 207 65 223 65 255 Z" fill="none" stroke="none" pointer-events="all"/><path d="M 5 255 C 8.6 220.29 9.85 203.88 35 207 C 19.89 204.65 20.03 172 35 175 C 52.68 172.56 59.5 204.03 35 207 C 67.59 207.4 61.18 221.66 65 255 C 51.39 258.69 29.3 251.05 5 255" fill="#fff2cc" style="fill: rgb(255, 242, 204);" stroke="none" pointer-events="all"/><path d="M 5 255 C 2.44 224.7 4.78 207.7 35 207 M 5 255 C 4.74 226.04 6.65 205.8 35 207 M 35 207 C 14.68 206.56 14.57 176.6 35 175 M 35 207 C 19.11 204.93 13.63 178.66 35 175 M 35 175 C 55.28 178.89 53.15 208.86 35 207 M 35 175 C 56.12 172.26 53.81 206.32 35 207 M 35 207 C 64.21 206.98 61.98 224.26 65 255 M 35 207 C 68.36 206.07 63.09 223.5 65 255 M 65 255 C 44.98 258.43 24.98 255.44 5 255 M 65 255 C 51.02 253.93 36.97 252.6 5 255" fill="none" stroke="#d6b656" style="stroke: rgb(214, 182, 86);" stroke-linejoin="round" stroke-linecap="round" stroke-miterlimit="10" pointer-events="all"/></g></g><g data-cell-id="wZlH-rWIr0H8PwmE7oVp-2"><g><path d="M 115 45 C 67 45 55 85 93.4 93 C 55 110.6 98.2 149 129.4 133 C 151 165 223 165 247 133 C 295 133 295 101 265 85 C 295 53 247 21 205 37 C 175 13 127 13 115 45 Z" fill="none" stroke="none" pointer-events="all"/><path d="M 115 45 C 64.66 42.77 58.94 82.74 93.4 93 C 51.07 106.8 98.21 152.41 129.4 133 C 155.03 164.89 222.83 169.44 247 133 C 290.68 135.22 296.55 102.68 265 85 C 292.4 49.15 243.75 19.37 205 37 C 178.79 15.16 125.48 7.48 115 45 C 115 45 115 45 115 45" fill="#ffffff" style="fill: rgb(255, 255, 255);" stroke="none" pointer-events="all"/><path d="M 115 45 C 64.44 47.38 51.59 83.42 93.4 93 M 115 45 C 64.36 42.7 54.72 87.11 93.4 93 M 93.4 93 C 55.22 112.58 94.56 151.46 129.4 133 M 93.4 93 C 53.46 115.11 98.45 149.28 129.4 133 M 129.4 133 C 149.04 168.14 225.5 163.83 247 133 M 129.4 133 C 154.05 161.12 222.61 166.8 247 133 M 247 133 C 291.12 132.05 292.48 100.46 265 85 M 247 133 C 296.59 131.59 293.91 100.1 265 85 M 265 85 C 291.68 54.86 247.77 24.24 205 37 M 265 85 C 294.5 48.44 242.81 18.26 205 37 M 205 37 C 173.91 15.73 123.83 9.1 115 45 M 205 37 C 173.74 14.22 129.91 8.59 115 45 M 115 45 C 115 45 115 45 115 45 M 115 45 C 115 45 115 45 115 45" fill="none" stroke="#000000" style="stroke: rgb(0, 0, 0);" stroke-linejoin="round" stroke-linecap="round" stroke-miterlimit="10" pointer-events="all"/></g></g><g data-cell-id="wZlH-rWIr0H8PwmE7oVp-3"><g><ellipse cx="80" cy="155" rx="15" ry="10" fill="transparent" stroke="none" pointer-events="all"/><path d="M 74.35 146.55 C 77.1 145.72 81.78 144.91 84.62 145.53 C 87.46 146.14 89.8 148.6 91.39 150.26 C 92.99 151.93 94.39 153.51 94.18 155.52 C 93.97 157.53 92.38 160.7 90.14 162.33 C 87.91 163.95 83.95 165.04 80.76 165.29 C 77.57 165.54 73.56 165.26 71 163.82 C 68.45 162.39 66.24 158.75 65.42 156.67 C 64.6 154.59 64.42 153.08 66.09 151.35 C 67.76 149.62 73.36 147.25 75.44 146.32 C 77.51 145.39 78.59 145.68 78.56 145.77 M 75.25 146.06 C 77.7 145.44 80.35 145.71 83.45 146.23 C 86.55 146.74 92.06 147.57 93.86 149.17 C 95.66 150.76 94.91 153.84 94.27 155.78 C 93.63 157.72 92.34 159.03 90.01 160.8 C 87.69 162.58 83.31 166.08 80.34 166.42 C 77.37 166.76 74.58 164.57 72.17 162.83 C 69.76 161.09 66.59 158.23 65.89 156 C 65.18 153.76 66.51 151.07 67.96 149.41 C 69.4 147.75 73.63 146.84 74.54 146.03 C 75.45 145.22 73.31 144.23 73.44 144.55" fill="#ffffff" style="fill: rgb(255, 255, 255);" stroke="none" pointer-events="all"/><path d="M 85.76 146.2 C 88.38 147.11 91.22 149.22 92.8 151.22 C 94.38 153.22 95.91 156.12 95.25 158.2 C 94.58 160.27 91.71 162.41 88.8 163.7 C 85.88 164.98 80.92 166.23 77.76 165.89 C 74.59 165.55 71.77 163.51 69.81 161.66 C 67.85 159.8 66.16 156.85 65.99 154.78 C 65.82 152.71 66.89 150.75 68.78 149.21 C 70.66 147.67 74.33 146.14 77.3 145.56 C 80.28 144.97 85.03 145.53 86.63 145.69 C 88.22 145.85 86.98 146.29 86.87 146.51 M 75.55 144.14 C 78.33 143.53 82.18 143.79 85.28 144.8 C 88.38 145.81 92.64 148.12 94.16 150.2 C 95.69 152.27 95.23 155 94.43 157.27 C 93.64 159.54 92.06 162.66 89.38 163.83 C 86.7 164.99 81.54 164.41 78.34 164.24 C 75.15 164.08 72.25 164.14 70.2 162.84 C 68.15 161.54 66.25 158.77 66.02 156.47 C 65.79 154.16 67.08 151.05 68.84 149.01 C 70.59 146.98 75.48 145.08 76.53 144.26 C 77.58 143.45 75.03 143.87 75.13 144.13" fill="none" stroke="#000000" style="stroke: rgb(0, 0, 0);" stroke-linejoin="round" stroke-linecap="round" stroke-miterlimit="10" pointer-events="all"/></g></g><g data-cell-id="wZlH-rWIr0H8PwmE7oVp-4"><g><ellipse cx="60" cy="170" rx="5" ry="5" fill="transparent" stroke="none" pointer-events="all"/><path d="M 59.72 165.58 C 60.76 165.52 62 164.7 63 165.29 C 64 165.88 65.53 167.85 65.72 169.14 C 65.91 170.43 64.97 172.05 64.15 173.05 C 63.33 174.06 61.77 175.02 60.82 175.18 C 59.88 175.35 59.19 174.68 58.49 174.06 C 57.78 173.44 57.23 172.17 56.59 171.45 C 55.96 170.74 54.63 170.69 54.68 169.77 C 54.72 168.85 55.78 166.85 56.86 165.94 C 57.93 165.04 60.33 164.49 61.12 164.33 C 61.92 164.18 61.74 164.8 61.63 165.01 M 58.45 165.53 C 59.31 165.21 61.19 166.01 62.23 166.18 C 63.26 166.35 64.26 165.59 64.67 166.53 C 65.09 167.48 64.96 170.6 64.71 171.84 C 64.46 173.09 63.85 173.25 63.17 174.02 C 62.48 174.79 61.78 176.24 60.59 176.48 C 59.4 176.71 56.8 176.12 56.02 175.44 C 55.23 174.77 56.15 173.89 55.88 172.41 C 55.62 170.93 54.09 167.58 54.43 166.56 C 54.76 165.54 57.07 166.32 57.89 166.29 C 58.7 166.26 59.02 166.46 59.31 166.38" fill="#ffffff" style="fill: rgb(255, 255, 255);" stroke="none" pointer-events="all"/><path d="M 60.87 165.42 C 61.96 165.62 63.07 165.7 63.6 166.35 C 64.12 166.99 64.04 168.03 64.04 169.31 C 64.04 170.59 64.06 173.04 63.61 174.05 C 63.16 175.05 62.32 175.16 61.36 175.33 C 60.39 175.5 58.81 175.78 57.83 175.08 C 56.84 174.37 55.77 172.22 55.46 171.12 C 55.16 170.01 55.73 169.46 56 168.46 C 56.27 167.46 56.22 165.7 57.06 165.11 C 57.89 164.52 59.96 164.89 61.01 164.92 C 62.05 164.95 63.32 165.12 63.32 165.28 M 59.28 164.84 C 60.23 164.28 61.47 164.01 62.19 164.33 C 62.9 164.66 63.02 165.57 63.55 166.8 C 64.08 168.03 65.37 170.64 65.35 171.71 C 65.33 172.79 64.28 172.51 63.44 173.25 C 62.61 173.99 61.25 176.03 60.33 176.18 C 59.4 176.32 58.89 174.98 57.91 174.14 C 56.93 173.3 54.95 172.17 54.45 171.11 C 53.95 170.06 54.12 168.96 54.92 167.82 C 55.72 166.67 58.71 164.41 59.23 164.23 C 59.75 164.05 58.44 166.28 58.05 166.75" fill="none" stroke="#000000" style="stroke: rgb(0, 0, 0);" stroke-linejoin="round" stroke-linecap="round" stroke-miterlimit="10" pointer-events="all"/></g></g><g data-cell-id="wZlH-rWIr0H8PwmE7oVp-6"><g><rect x="105" y="55" width="30" height="20" fill="none" stroke="none" pointer-events="all"/><path d="M 107.47 51.16 L 137.98 56.41 L 134.51 75.32 L 108.06 73.29" fill="#dae8fc" style="fill: rgb(218, 232, 252);" stroke="none" pointer-events="all"/><path d="M 105 55 C 109.36 52.44 122.61 56.09 135 55 M 105 55 C 111.76 53.39 120.54 55.87 135 55 M 135 55 C 134.81 63.8 137.39 66.21 135 75 M 135 55 C 135.13 63.01 134.99 67.8 135 75 M 135 75 C 125.92 73.01 108.96 73.1 105 75 M 135 75 C 124.77 74.81 115.9 76.47 105 75 M 105 75 C 102.07 69.69 101.42 56.99 105 55 M 105 75 C 105.36 69.07 104.4 67.64 105 55" fill="none" stroke="#6c8ebf" style="stroke: rgb(108, 142, 191);" stroke-linejoin="round" stroke-linecap="round" stroke-miterlimit="10" pointer-events="all"/></g></g><g data-cell-id="wZlH-rWIr0H8PwmE7oVp-7"><g><rect x="105" y="85" width="30" height="20" fill="none" stroke="none" pointer-events="all"/><path d="M 102.53 85.62 L 138.21 81.84 L 138.16 102.38 L 107.25 107.26" fill="#d5e8d4" style="fill: rgb(213, 232, 212);" stroke="none" pointer-events="all"/><path d="M 105 85 C 115.07 88.84 117.97 84.9 135 85 M 105 85 C 112.32 84.66 122.4 85.57 135 85 M 135 85 C 134.57 90.85 134.87 99.29 135 105 M 135 85 C 133.66 92.05 135.31 95.91 135 105 M 135 105 C 125.86 105.38 114.01 108.47 105 105 M 135 105 C 122.03 105.21 109.97 104.65 105 105 M 105 105 C 107.37 100.83 107.78 92.94 105 85 M 105 105 C 106.26 99.88 105.63 91.1 105 85" fill="none" stroke="#82b366" style="stroke: rgb(130, 179, 102);" stroke-linejoin="round" stroke-linecap="round" stroke-miterlimit="10" pointer-events="all"/></g></g><g data-cell-id="wZlH-rWIr0H8PwmE7oVp-8"><g><path d="M 120 75 L 120 81.63" fill="none" stroke="none" pointer-events="stroke"/><path d="M 120 83.88 L 118.5 80.88 L 120 81.63 L 121.5 80.88 Z" fill="none" stroke="none" pointer-events="all"/><path d="M 120 75 C 120.18 76.99 120.67 77.37 120 81.63 M 120 75 C 120.29 77.44 120.31 79.73 120 81.63" fill="none" stroke="#000000" style="stroke: rgb(0, 0, 0);" stroke-linejoin="round" stroke-linecap="round" stroke-miterlimit="10" pointer-events="stroke"/><path d="M 120 83.88 C 119.65 82.69 119.69 82.37 118.5 80.88 C 119.13 80.93 119.1 81.48 120 81.63 C 120.14 81.33 120.95 81.53 121.5 80.88 C 121.65 81.5 120.52 83.16 120 83.88" fill="#000000" style="fill: rgb(0, 0, 0);" stroke="none" pointer-events="all"/><path d="M 120 83.88 C 119.79 83.4 119.68 82.09 118.5 80.88 M 120 83.88 C 119.47 82.71 118.91 81.47 118.5 80.88 M 118.5 80.88 C 118.86 80.83 119.17 81.08 120 81.63 M 118.5 80.88 C 118.98 81.15 119.34 81.15 120 81.63 M 120 81.63 C 120.46 81.57 121.12 81.18 121.5 80.88 M 120 81.63 C 120.44 81.49 120.57 81.43 121.5 80.88 M 121.5 80.88 C 120.94 82.08 120.79 81.9 120 83.88 M 121.5 80.88 C 120.77 82.11 120.26 82.69 120 83.88" fill="none" stroke="#000000" style="stroke: rgb(0, 0, 0);" stroke-linejoin="round" stroke-linecap="round" stroke-miterlimit="10" pointer-events="all"/></g></g><g data-cell-id="wZlH-rWIr0H8PwmE7oVp-10"><g><rect x="155" y="65" width="30" height="20" fill="none" stroke="none" pointer-events="all"/><path d="M 153.19 61.1 L 181.22 62.25 L 187.44 82.08 L 153.32 87.13" fill="#fff2cc" style="fill: rgb(255, 242, 204);" stroke="none" pointer-events="all"/><path d="M 155 65 C 164.57 62.54 177.17 61.09 185 65 M 155 65 C 165.58 66.63 177.35 66.75 185 65 M 185 65 C 181.56 69.62 185.22 74.45 185 85 M 185 65 C 186.83 71.72 186.4 75.92 185 85 M 185 85 C 178.5 84.3 165.98 86.22 155 85 M 185 85 C 177.48 85.19 166.63 86.66 155 85 M 155 85 C 153.43 77.99 155.73 74.6 155 65 M 155 85 C 155.15 79.01 153.72 76.98 155 65" fill="none" stroke="#d6b656" style="stroke: rgb(214, 182, 86);" stroke-linejoin="round" stroke-linecap="round" stroke-miterlimit="10" pointer-events="all"/></g></g><g data-cell-id="wZlH-rWIr0H8PwmE7oVp-11"><g><path d="M 135 89 L 151.87 82.25" fill="none" stroke="none" pointer-events="stroke"/><path d="M 153.96 81.42 L 151.73 83.92 L 151.87 82.25 L 150.62 81.14 Z" fill="none" stroke="none" pointer-events="all"/><path d="M 135 89 C 138.39 90.29 144.41 87.2 151.87 82.25 M 135 89 C 137.38 89.1 141.54 86.31 151.87 82.25" fill="none" stroke="#000000" style="stroke: rgb(0, 0, 0);" stroke-linejoin="round" stroke-linecap="round" stroke-miterlimit="10" pointer-events="stroke"/><path d="M 153.96 81.42 C 153.39 81.74 152.99 82.43 151.73 83.92 C 151.67 83.5 152.21 83.26 151.87 82.25 C 151.64 81.79 150.98 81.47 150.62 81.14 C 151.85 82.06 152.24 81.46 153.96 81.42" fill="#000000" style="fill: rgb(0, 0, 0);" stroke="none" pointer-events="all"/><path d="M 153.96 81.42 C 152.86 82.77 152.28 83.38 151.73 83.92 M 153.96 81.42 C 153.24 82.28 152.84 82.58 151.73 83.92 M 151.73 83.92 C 151.42 83.72 151.58 82.96 151.87 82.25 M 151.73 83.92 C 151.76 83.6 151.91 83.06 151.87 82.25 M 151.87 82.25 C 151.66 82.08 151.39 81.51 150.62 81.14 M 151.87 82.25 C 151.45 81.89 151.05 81.44 150.62 81.14 M 150.62 81.14 C 152.51 80.82 152.98 81.75 153.96 81.42 M 150.62 81.14 C 152.22 81 153.37 81.55 153.96 81.42" fill="none" stroke="#000000" style="stroke: rgb(0, 0, 0);" stroke-linejoin="round" stroke-linecap="round" stroke-miterlimit="10" pointer-events="all"/></g></g><g data-cell-id="wZlH-rWIr0H8PwmE7oVp-12"><g><rect x="155" y="105" width="30" height="20" fill="none" stroke="none" pointer-events="all"/><path d="M 151.29 102.02 L 181.67 101.1 L 186.74 124.19 L 151.69 127.07" fill="#fff2cc" style="fill: rgb(255, 242, 204);" stroke="none" pointer-events="all"/><path d="M 155 105 C 168 106.15 175.89 105.5 185 105 M 155 105 C 164.69 102.76 173.08 103.76 185 105 M 185 105 C 188.28 111.72 187.38 120.62 185 125 M 185 105 C 183.88 109.8 187.04 112.14 185 125 M 185 125 C 178.38 129.03 168.07 128.95 155 125 M 185 125 C 171.99 124.79 162.78 125.81 155 125 M 155 125 C 156.04 116.28 152.46 110.49 155 105 M 155 125 C 153.75 116.62 152.99 111.89 155 105" fill="none" stroke="#d6b656" style="stroke: rgb(214, 182, 86);" stroke-linejoin="round" stroke-linecap="round" stroke-miterlimit="10" pointer-events="all"/></g></g><g data-cell-id="wZlH-rWIr0H8PwmE7oVp-13"><g><path d="M 135 101 L 151.87 107.75" fill="none" stroke="none" pointer-events="stroke"/><path d="M 153.96 108.58 L 150.62 108.86 L 151.87 107.75 L 151.73 106.08 Z" fill="none" stroke="none" pointer-events="all"/><path d="M 135 101 C 141.43 102.67 143.17 104.58 151.87 107.75 M 135 101 C 140.58 102.43 145.63 104.37 151.87 107.75" fill="none" stroke="#000000" style="stroke: rgb(0, 0, 0);" stroke-linejoin="round" stroke-linecap="round" stroke-miterlimit="10" pointer-events="stroke"/><path d="M 153.96 108.58 C 152.91 107.97 151.19 109.58 150.62 108.86 C 150.73 108.32 151.61 108.14 151.87 107.75 C 151.76 107.28 151.91 107.15 151.73 106.08 C 152.77 107.75 152.6 108.46 153.96 108.58" fill="#000000" style="fill: rgb(0, 0, 0);" stroke="none" pointer-events="all"/><path d="M 153.96 108.58 C 153.1 108.54 151.38 108.58 150.62 108.86 M 153.96 108.58 C 152.64 108.41 151.23 108.42 150.62 108.86 M 150.62 108.86 C 151.32 108.15 151.52 108.37 151.87 107.75 M 150.62 108.86 C 151.18 108.4 151.41 108.1 151.87 107.75 M 151.87 107.75 C 151.78 107.26 151.82 107.17 151.73 106.08 M 151.87 107.75 C 151.92 107.41 151.93 106.93 151.73 106.08 M 151.73 106.08 C 151.99 106.28 153.48 107.61 153.96 108.58 M 151.73 106.08 C 152.38 106.62 152.98 107.71 153.96 108.58" fill="none" stroke="#000000" style="stroke: rgb(0, 0, 0);" stroke-linejoin="round" stroke-linecap="round" stroke-miterlimit="10" pointer-events="all"/></g></g><g data-cell-id="wZlH-rWIr0H8PwmE7oVp-14"><g><rect x="205" y="65" width="30" height="20" fill="none" stroke="none" pointer-events="all"/><path d="M 207.39 62.93 L 232.12 67.95 L 236.04 86.3 L 208.06 87.01" fill="#dae8fc" style="fill: rgb(218, 232, 252);" stroke="none" pointer-events="all"/><path d="M 205 65 C 213.43 61.77 224.61 61.91 235 65 M 205 65 C 213.79 64.09 218.81 65.96 235 65 M 235 65 C 237 69.81 231.55 70.78 235 85 M 235 65 C 234.13 71.89 232.88 80.36 235 85 M 235 85 C 222.25 85.77 216.16 83.69 205 85 M 235 85 C 226.51 85.59 216.94 86.16 205 85 M 205 85 C 207.84 74.56 206.39 66.38 205 65 M 205 85 C 206.36 78.23 206.26 74.81 205 65" fill="none" stroke="#6c8ebf" style="stroke: rgb(108, 142, 191);" stroke-linejoin="round" stroke-linecap="round" stroke-miterlimit="10" pointer-events="all"/></g></g><g data-cell-id="wZlH-rWIr0H8PwmE7oVp-15"><g><path d="M 182.5 105 L 204.87 87.1" fill="none" stroke="none" pointer-events="stroke"/><path d="M 206.63 85.7 L 205.22 88.74 L 204.87 87.1 L 203.35 86.4 Z" fill="none" stroke="none" pointer-events="all"/><path d="M 182.5 105 C 186.15 102.51 200.57 97.39 204.87 87.1 M 182.5 105 C 189.27 98.75 197.25 93.57 204.87 87.1" fill="none" stroke="#000000" style="stroke: rgb(0, 0, 0);" stroke-linejoin="round" stroke-linecap="round" stroke-miterlimit="10" pointer-events="stroke"/><path d="M 206.63 85.7 C 205.97 85.61 205.63 87.64 205.22 88.74 C 204.8 88.76 205.35 88.37 204.87 87.1 C 204.25 86.99 204.6 86.47 203.35 86.4 C 204.91 87.11 204.83 85.66 206.63 85.7" fill="#000000" style="fill: rgb(0, 0, 0);" stroke="none" pointer-events="all"/><path d="M 206.63 85.7 C 205.63 87.2 206.41 88.26 205.22 88.74 M 206.63 85.7 C 206.26 86.57 206.01 87.55 205.22 88.74 M 205.22 88.74 C 205.24 88.1 205.17 87.89 204.87 87.1 M 205.22 88.74 C 205.29 88.1 204.88 87.6 204.87 87.1 M 204.87 87.1 C 204.12 87.12 203.69 86.97 203.35 86.4 M 204.87 87.1 C 204.25 86.97 203.83 86.61 203.35 86.4 M 203.35 86.4 C 204.46 85.67 205.5 86 206.63 85.7 M 203.35 86.4 C 203.78 85.99 204.5 86.07 206.63 85.7" fill="none" stroke="#000000" style="stroke: rgb(0, 0, 0);" stroke-linejoin="round" stroke-linecap="round" stroke-miterlimit="10" pointer-events="all"/></g></g><g data-cell-id="wZlH-rWIr0H8PwmE7oVp-16"><g><path d="M 185 75 L 201.63 75" fill="none" stroke="none" pointer-events="stroke"/><path d="M 203.88 75 L 200.88 76.5 L 201.63 75 L 200.88 73.5 Z" fill="none" stroke="none" pointer-events="all"/><path d="M 185 75 C 192.23 76.19 194.98 76.98 201.63 75 M 185 75 C 190.08 75.21 196.6 74.17 201.63 75" fill="none" stroke="#000000" style="stroke: rgb(0, 0, 0);" stroke-linejoin="round" stroke-linecap="round" stroke-miterlimit="10" pointer-events="stroke"/><path d="M 203.88 75 C 203.35 75.5 202.79 76.22 200.88 76.5 C 201.22 76.29 201.21 75.27 201.63 75 C 201.42 74.16 201.19 73.94 200.88 73.5 C 202.15 74.94 203.44 74.58 203.88 75" fill="#000000" style="fill: rgb(0, 0, 0);" stroke="none" pointer-events="all"/><path d="M 203.88 75 C 203.34 75.62 201.88 76.26 200.88 76.5 M 203.88 75 C 202.52 75.51 201.43 75.87 200.88 76.5 M 200.88 76.5 C 201.09 76.2 201.12 75.75 201.63 75 M 200.88 76.5 C 201.17 75.9 201.27 75.44 201.63 75 M 201.63 75 C 201.73 74.33 201.24 74.23 200.88 73.5 M 201.63 75 C 201.4 74.59 201.03 74.07 200.88 73.5 M 200.88 73.5 C 201.24 73.53 202.19 73.78 203.88 75 M 200.88 73.5 C 201.93 74.4 203.1 74.43 203.88 75" fill="none" stroke="#000000" style="stroke: rgb(0, 0, 0);" stroke-linejoin="round" stroke-linecap="round" stroke-miterlimit="10" pointer-events="all"/></g></g><g data-cell-id="wZlH-rWIr0H8PwmE7oVp-17"><g><rect x="225" y="105" width="30" height="20" fill="none" stroke="none" pointer-events="all"/><path d="M 228.55 108.31 L 252.8 102.23 L 258.98 125.47 L 225.61 122.92" fill="#d5e8d4" style="fill: rgb(213, 232, 212);" stroke="none" pointer-events="all"/><path d="M 225 105 C 234.57 103.78 246.7 105.13 255 105 M 225 105 C 233.45 105.48 240.4 106.66 255 105 M 255 105 C 254.68 108.96 258.39 120.04 255 125 M 255 105 C 253.71 109.01 253.84 118.69 255 125 M 255 125 C 250.05 124.88 243.3 123.79 225 125 M 255 125 C 242.28 126.79 231.17 124.69 225 125 M 225 125 C 226.95 117.99 228.68 116.22 225 105 M 225 125 C 225.86 120.65 222.76 111.18 225 105" fill="none" stroke="#82b366" style="stroke: rgb(130, 179, 102);" stroke-linejoin="round" stroke-linecap="round" stroke-miterlimit="10" pointer-events="all"/></g></g><g data-cell-id="wZlH-rWIr0H8PwmE7oVp-18"><g><path d="M 225 85 L 233.49 101.99" fill="none" stroke="none" pointer-events="stroke"/><path d="M 234.5 104 L 231.82 101.99 L 233.49 101.99 L 234.5 100.65 Z" fill="none" stroke="none" pointer-events="all"/><path d="M 225 85 C 225.83 87.58 228.77 94.62 233.49 101.99 M 225 85 C 226.77 91.17 231.95 96.29 233.49 101.99" fill="none" stroke="#000000" style="stroke: rgb(0, 0, 0);" stroke-linejoin="round" stroke-linecap="round" stroke-miterlimit="10" pointer-events="stroke"/><path d="M 234.5 104 C 233.95 103.34 232.5 102.85 231.82 101.99 C 232.37 102.05 232.74 102.42 233.49 101.99 C 233.6 101.28 234.38 101.44 234.5 100.65 C 234.95 102.59 235.06 103.37 234.5 104" fill="#000000" style="fill: rgb(0, 0, 0);" stroke="none" pointer-events="all"/><path d="M 234.5 104 C 233.25 102.84 232.45 102.5 231.82 101.99 M 234.5 104 C 233.56 103.5 233.12 102.79 231.82 101.99 M 231.82 101.99 C 232.3 102.14 233 101.65 233.49 101.99 M 231.82 101.99 C 232.38 102.14 232.65 102.09 233.49 101.99 M 233.49 101.99 C 233.82 101.86 233.75 101.73 234.5 100.65 M 233.49 101.99 C 233.89 101.5 234.03 101.49 234.5 100.65 M 234.5 100.65 C 234.32 101.4 234.79 103.65 234.5 104 M 234.5 100.65 C 234.22 101.8 234.42 102.06 234.5 104" fill="none" stroke="#000000" style="stroke: rgb(0, 0, 0);" stroke-linejoin="round" stroke-linecap="round" stroke-miterlimit="10" pointer-events="all"/></g></g></g></g></g></svg>