<svg xmlns="http://www.w3.org/2000/svg" xmlns:xlink="http://www.w3.org/1999/xlink" contentStyleType="text/css" height="329px" preserveAspectRatio="none" style="width:438px;height:329px;background:#FFFFFF;" version="1.1" viewBox="0 0 438 329" width="438px" zoomAndPan="magnify"><defs><filter height="300%" id="f164imz42kdob7" width="300%" x="-1" y="-1"><feGaussianBlur result="blurOut" stdDeviation="2.0"/><feColorMatrix in="blurOut" result="blurOut2" type="matrix" values="0 0 0 0 0 0 0 0 0 0 0 0 0 0 0 0 0 0 .4 0"/><feOffset dx="4.0" dy="4.0" in="blurOut2" result="blurOut3"/><feBlend in="SourceGraphic" in2="blurOut3" mode="normal"/></filter></defs><g><ellipse cx="261.2949" cy="20" fill="#000000" filter="url(#f164imz42kdob7)" rx="10" ry="10" style="stroke:#000000;stroke-width:1.0;"/><rect fill="#FEFECE" filter="url(#f164imz42kdob7)" height="36.3441" rx="12.5" ry="12.5" style="stroke:#A80036;stroke-width:1.5;" width="164.8051" x="178.8923" y="50"/><text fill="#000000" font-family="sans-serif" font-size="12" lengthAdjust="spacing" textLength="144.8051" x="188.8923" y="72.8281">progress = finished / total</text><polygon fill="#FEFECE" filter="url(#f164imz42kdob7)" points="222.3056,106.3441,300.2841,106.3441,312.2841,118.3441,300.2841,130.3441,222.3056,130.3441,210.3056,118.3441,222.3056,106.3441" style="stroke:#A80036;stroke-width:1.5;"/><text fill="#000000" font-family="sans-serif" font-size="11" lengthAdjust="spacing" textLength="77.9785" x="222.3056" y="122.6121">as percentage?</text><text fill="#000000" font-family="sans-serif" font-size="11" lengthAdjust="spacing" textLength="17.0829" x="193.2228" y="115.1211">yes</text><text fill="#000000" font-family="sans-serif" font-size="11" lengthAdjust="spacing" textLength="13.4529" x="312.2841" y="115.1211">no</text><polygon fill="#FEFECE" filter="url(#f164imz42kdob7)" points="143.2438,140.3441,167.2438,140.3441,179.2438,152.3441,167.2438,164.3441,143.2438,164.3441,131.2438,152.3441,143.2438,140.3441" style="stroke:#A80036;stroke-width:1.5;"/><text fill="#000000" font-family="sans-serif" font-size="11" lengthAdjust="spacing" textLength="21.8678" x="144.3099" y="156.6121">foo?</text><text fill="#000000" font-family="sans-serif" font-size="11" lengthAdjust="spacing" textLength="17.0829" x="114.161" y="149.1211">yes</text><text fill="#000000" font-family="sans-serif" font-size="11" lengthAdjust="spacing" textLength="13.4529" x="179.2438" y="149.1211">no</text><rect fill="#FEFECE" filter="url(#f164imz42kdob7)" height="36.3441" rx="12.5" ry="12.5" style="stroke:#A80036;stroke-width:1.5;" width="142.6049" x="11" y="174.3441"/><text fill="#000000" font-family="sans-serif" font-size="12" lengthAdjust="spacing" textLength="122.6049" x="21" y="197.1722">return progress * 100</text><rect fill="#FEFECE" filter="url(#f164imz42kdob7)" height="36.3441" rx="12.5" ry="12.5" style="stroke:#A80036;stroke-width:1.5;" width="109.1607" x="173.6049" y="174.3441"/><text fill="#000000" font-family="sans-serif" font-size="12" lengthAdjust="spacing" textLength="89.1607" x="183.6049" y="197.1722">return progress</text><polygon fill="#FEFECE" filter="url(#f164imz42kdob7)" points="155.2438,216.6882,167.2438,228.6882,155.2438,240.6882,143.2438,228.6882,155.2438,216.6882" style="stroke:#A80036;stroke-width:1.5;"/><rect fill="#FEFECE" filter="url(#f164imz42kdob7)" height="36.3441" rx="12.5" ry="12.5" style="stroke:#A80036;stroke-width:1.5;" width="109.1607" x="312.7655" y="140.3441"/><text fill="#000000" font-family="sans-serif" font-size="12" lengthAdjust="spacing" textLength="89.1607" x="322.7655" y="163.1722">return progress</text><polygon fill="#FEFECE" filter="url(#f164imz42kdob7)" points="261.2949,246.6882,273.2949,258.6882,261.2949,270.6882,249.2949,258.6882,261.2949,246.6882" style="stroke:#A80036;stroke-width:1.5;"/><ellipse cx="261.2949" cy="301.6882" fill="none" filter="url(#f164imz42kdob7)" rx="11" ry="11" style="stroke:#000000;stroke-width:1.0;"/><ellipse cx="261.2949" cy="301.6882" fill="#000000" rx="6" ry="6" style="stroke:#000000;stroke-width:1.0;"/><line style="stroke:#A80036;stroke-width:1.5;" x1="261.2949" x2="261.2949" y1="30" y2="50"/><polygon fill="#A80036" points="257.2949,40,261.2949,50,265.2949,40,261.2949,44" style="stroke:#A80036;stroke-width:1.0;"/><line style="stroke:#A80036;stroke-width:1.5;" x1="131.2438" x2="82.3024" y1="152.3441" y2="152.3441"/><line style="stroke:#A80036;stroke-width:1.5;" x1="82.3024" x2="82.3024" y1="152.3441" y2="174.3441"/><polygon fill="#A80036" points="78.3024,164.3441,82.3024,174.3441,86.3024,164.3441,82.3024,168.3441" style="stroke:#A80036;stroke-width:1.0;"/><line style="stroke:#A80036;stroke-width:1.5;" x1="179.2438" x2="228.1852" y1="152.3441" y2="152.3441"/><line style="stroke:#A80036;stroke-width:1.5;" x1="228.1852" x2="228.1852" y1="152.3441" y2="174.3441"/><polygon fill="#A80036" points="224.1852,164.3441,228.1852,174.3441,232.1852,164.3441,228.1852,168.3441" style="stroke:#A80036;stroke-width:1.0;"/><line style="stroke:#A80036;stroke-width:1.5;" x1="82.3024" x2="82.3024" y1="210.6882" y2="228.6882"/><line style="stroke:#A80036;stroke-width:1.5;" x1="82.3024" x2="143.2438" y1="228.6882" y2="228.6882"/><polygon fill="#A80036" points="133.2438,224.6882,143.2438,228.6882,133.2438,232.6882,137.2438,228.6882" style="stroke:#A80036;stroke-width:1.0;"/><line style="stroke:#A80036;stroke-width:1.5;" x1="228.1852" x2="228.1852" y1="210.6882" y2="228.6882"/><line style="stroke:#A80036;stroke-width:1.5;" x1="228.1852" x2="167.2438" y1="228.6882" y2="228.6882"/><polygon fill="#A80036" points="177.2438,224.6882,167.2438,228.6882,177.2438,232.6882,173.2438,228.6882" style="stroke:#A80036;stroke-width:1.0;"/><line style="stroke:#A80036;stroke-width:1.5;" x1="210.3056" x2="155.2438" y1="118.3441" y2="118.3441"/><line style="stroke:#A80036;stroke-width:1.5;" x1="155.2438" x2="155.2438" y1="118.3441" y2="140.3441"/><polygon fill="#A80036" points="151.2438,130.3441,155.2438,140.3441,159.2438,130.3441,155.2438,134.3441" style="stroke:#A80036;stroke-width:1.0;"/><line style="stroke:#A80036;stroke-width:1.5;" x1="312.2841" x2="367.3459" y1="118.3441" y2="118.3441"/><line style="stroke:#A80036;stroke-width:1.5;" x1="367.3459" x2="367.3459" y1="118.3441" y2="140.3441"/><polygon fill="#A80036" points="363.3459,130.3441,367.3459,140.3441,371.3459,130.3441,367.3459,134.3441" style="stroke:#A80036;stroke-width:1.0;"/><line style="stroke:#A80036;stroke-width:1.5;" x1="155.2438" x2="155.2438" y1="240.6882" y2="258.6882"/><line style="stroke:#A80036;stroke-width:1.5;" x1="155.2438" x2="249.2949" y1="258.6882" y2="258.6882"/><polygon fill="#A80036" points="239.2949,254.6882,249.2949,258.6882,239.2949,262.6882,243.2949,258.6882" style="stroke:#A80036;stroke-width:1.0;"/><line style="stroke:#A80036;stroke-width:1.5;" x1="367.3459" x2="367.3459" y1="176.6882" y2="258.6882"/><line style="stroke:#A80036;stroke-width:1.5;" x1="367.3459" x2="273.2949" y1="258.6882" y2="258.6882"/><polygon fill="#A80036" points="283.2949,254.6882,273.2949,258.6882,283.2949,262.6882,279.2949,258.6882" style="stroke:#A80036;stroke-width:1.0;"/><line style="stroke:#A80036;stroke-width:1.5;" x1="261.2949" x2="261.2949" y1="86.3441" y2="106.3441"/><polygon fill="#A80036" points="257.2949,96.3441,261.2949,106.3441,265.2949,96.3441,261.2949,100.3441" style="stroke:#A80036;stroke-width:1.0;"/><line style="stroke:#A80036;stroke-width:1.5;" x1="261.2949" x2="261.2949" y1="270.6882" y2="290.6882"/><polygon fill="#A80036" points="257.2949,280.6882,261.2949,290.6882,265.2949,280.6882,261.2949,284.6882" style="stroke:#A80036;stroke-width:1.0;"/><!--SRC=[PSmx3i9038JXVaynvOQ6q2P2d6L5l8b5PAziKt1x7f4G8ktydyPlB31rIXx58WtDT3PonncLXNsX2KU4Hbd7n1MvE1hPbIJAJ9SEiP0WFyYx1Bn1LVsVWS4exYRutXzmwllnrMXrGXRTt5v-Z4nSqw_SgyruQ7i2]--></g></svg>