<?xml version="1.0" encoding="UTF-8"?>
<!-- Do not edit this file with editors other than draw.io -->
<!DOCTYPE svg PUBLIC "-//W3C//DTD SVG 1.1//EN" "http://www.w3.org/Graphics/SVG/1.1/DTD/svg11.dtd">
<svg xmlns="http://www.w3.org/2000/svg" style="background: transparent; background-color: transparent; color-scheme: light;" xmlns:xlink="http://www.w3.org/1999/xlink" version="1.1" width="202px" height="202px" viewBox="0 0 202 202" content="&lt;mxfile host=&quot;app.diagrams.net&quot; agent=&quot;Mozilla/5.0 (X11; Linux x86_64; rv:145.0) Gecko/20100101 Firefox/145.0&quot; scale=&quot;1&quot; border=&quot;0&quot; version=&quot;29.0.3&quot;&gt;&#xA;  &lt;diagram name=&quot;Page-1&quot; id=&quot;4gvn3QyQ2n1BvgXgqgH-&quot;&gt;&#xA;    &lt;mxGraphModel dx=&quot;1106&quot; dy=&quot;571&quot; grid=&quot;1&quot; gridSize=&quot;10&quot; guides=&quot;1&quot; tooltips=&quot;1&quot; connect=&quot;1&quot; arrows=&quot;1&quot; fold=&quot;1&quot; page=&quot;1&quot; pageScale=&quot;1&quot; pageWidth=&quot;600&quot; pageHeight=&quot;550&quot; math=&quot;0&quot; shadow=&quot;0&quot;&gt;&#xA;      &lt;root&gt;&#xA;        &lt;mxCell id=&quot;0&quot; /&gt;&#xA;        &lt;mxCell id=&quot;1&quot; parent=&quot;0&quot; /&gt;&#xA;        &lt;mxCell id=&quot;ahl_oFsp3ZpYQsmE7bn_-1&quot; value=&quot;&quot; style=&quot;ellipse;whiteSpace=wrap;html=1;aspect=fixed;sketch=1;curveFitting=1;jiggle=1;fillColor=#f9f7ed;strokeColor=#36393d;fillStyle=solid;strokeWidth=2;&quot; parent=&quot;1&quot; vertex=&quot;1&quot;&gt;&#xA;          &lt;mxGeometry x=&quot;200&quot; y=&quot;40&quot; width=&quot;40&quot; height=&quot;40&quot; as=&quot;geometry&quot; /&gt;&#xA;        &lt;/mxCell&gt;&#xA;        &lt;mxCell id=&quot;ahl_oFsp3ZpYQsmE7bn_-2&quot; value=&quot;&quot; style=&quot;ellipse;whiteSpace=wrap;html=1;aspect=fixed;sketch=1;curveFitting=1;jiggle=1;fillColor=#f9f7ed;strokeColor=#36393d;fillStyle=solid;strokeWidth=2;&quot; parent=&quot;1&quot; vertex=&quot;1&quot;&gt;&#xA;          &lt;mxGeometry x=&quot;120&quot; y=&quot;120&quot; width=&quot;40&quot; height=&quot;40&quot; as=&quot;geometry&quot; /&gt;&#xA;        &lt;/mxCell&gt;&#xA;        &lt;mxCell id=&quot;ahl_oFsp3ZpYQsmE7bn_-3&quot; value=&quot;&quot; style=&quot;ellipse;whiteSpace=wrap;html=1;aspect=fixed;sketch=1;curveFitting=1;jiggle=1;fillColor=#f9f7ed;strokeColor=#36393d;fillStyle=solid;strokeWidth=2;&quot; parent=&quot;1&quot; vertex=&quot;1&quot;&gt;&#xA;          &lt;mxGeometry x=&quot;280&quot; y=&quot;120&quot; width=&quot;40&quot; height=&quot;40&quot; as=&quot;geometry&quot; /&gt;&#xA;        &lt;/mxCell&gt;&#xA;        &lt;mxCell id=&quot;ahl_oFsp3ZpYQsmE7bn_-4&quot; value=&quot;&quot; style=&quot;endArrow=classic;html=1;rounded=0;sketch=1;curveFitting=1;jiggle=1;strokeWidth=2;&quot; parent=&quot;1&quot; source=&quot;ahl_oFsp3ZpYQsmE7bn_-1&quot; target=&quot;ahl_oFsp3ZpYQsmE7bn_-3&quot; edge=&quot;1&quot;&gt;&#xA;          &lt;mxGeometry width=&quot;50&quot; height=&quot;50&quot; relative=&quot;1&quot; as=&quot;geometry&quot;&gt;&#xA;            &lt;mxPoint x=&quot;230&quot; y=&quot;280&quot; as=&quot;sourcePoint&quot; /&gt;&#xA;            &lt;mxPoint x=&quot;280&quot; y=&quot;230&quot; as=&quot;targetPoint&quot; /&gt;&#xA;          &lt;/mxGeometry&gt;&#xA;        &lt;/mxCell&gt;&#xA;        &lt;mxCell id=&quot;ahl_oFsp3ZpYQsmE7bn_-5&quot; value=&quot;&quot; style=&quot;endArrow=classic;html=1;rounded=0;sketch=1;curveFitting=1;jiggle=1;strokeWidth=2;&quot; parent=&quot;1&quot; source=&quot;ahl_oFsp3ZpYQsmE7bn_-1&quot; target=&quot;ahl_oFsp3ZpYQsmE7bn_-2&quot; edge=&quot;1&quot;&gt;&#xA;          &lt;mxGeometry width=&quot;50&quot; height=&quot;50&quot; relative=&quot;1&quot; as=&quot;geometry&quot;&gt;&#xA;            &lt;mxPoint x=&quot;244&quot; y=&quot;84&quot; as=&quot;sourcePoint&quot; /&gt;&#xA;            &lt;mxPoint x=&quot;296&quot; y=&quot;136&quot; as=&quot;targetPoint&quot; /&gt;&#xA;          &lt;/mxGeometry&gt;&#xA;        &lt;/mxCell&gt;&#xA;        &lt;mxCell id=&quot;ahl_oFsp3ZpYQsmE7bn_-6&quot; value=&quot;&quot; style=&quot;ellipse;whiteSpace=wrap;html=1;aspect=fixed;sketch=1;curveFitting=1;jiggle=1;fillStyle=solid;fillColor=#f9f7ed;strokeColor=#36393d;strokeWidth=2;&quot; parent=&quot;1&quot; vertex=&quot;1&quot;&gt;&#xA;          &lt;mxGeometry x=&quot;200&quot; y=&quot;200&quot; width=&quot;40&quot; height=&quot;40&quot; as=&quot;geometry&quot; /&gt;&#xA;        &lt;/mxCell&gt;&#xA;        &lt;mxCell id=&quot;ahl_oFsp3ZpYQsmE7bn_-7&quot; value=&quot;&quot; style=&quot;endArrow=classic;html=1;rounded=0;sketch=1;curveFitting=1;jiggle=1;strokeWidth=2;&quot; parent=&quot;1&quot; source=&quot;ahl_oFsp3ZpYQsmE7bn_-2&quot; target=&quot;ahl_oFsp3ZpYQsmE7bn_-6&quot; edge=&quot;1&quot;&gt;&#xA;          &lt;mxGeometry width=&quot;50&quot; height=&quot;50&quot; relative=&quot;1&quot; as=&quot;geometry&quot;&gt;&#xA;            &lt;mxPoint x=&quot;230&quot; y=&quot;280&quot; as=&quot;sourcePoint&quot; /&gt;&#xA;            &lt;mxPoint x=&quot;280&quot; y=&quot;230&quot; as=&quot;targetPoint&quot; /&gt;&#xA;          &lt;/mxGeometry&gt;&#xA;        &lt;/mxCell&gt;&#xA;        &lt;mxCell id=&quot;ahl_oFsp3ZpYQsmE7bn_-8&quot; value=&quot;&quot; style=&quot;endArrow=classic;html=1;rounded=0;sketch=1;curveFitting=1;jiggle=1;strokeWidth=2;&quot; parent=&quot;1&quot; source=&quot;ahl_oFsp3ZpYQsmE7bn_-3&quot; target=&quot;ahl_oFsp3ZpYQsmE7bn_-6&quot; edge=&quot;1&quot;&gt;&#xA;          &lt;mxGeometry width=&quot;50&quot; height=&quot;50&quot; relative=&quot;1&quot; as=&quot;geometry&quot;&gt;&#xA;            &lt;mxPoint x=&quot;169&quot; y=&quot;178&quot; as=&quot;sourcePoint&quot; /&gt;&#xA;            &lt;mxPoint x=&quot;191&quot; y=&quot;222&quot; as=&quot;targetPoint&quot; /&gt;&#xA;          &lt;/mxGeometry&gt;&#xA;        &lt;/mxCell&gt;&#xA;      &lt;/root&gt;&#xA;    &lt;/mxGraphModel&gt;&#xA;  &lt;/diagram&gt;&#xA;&lt;/mxfile&gt;&#xA;"><defs/><g><g data-cell-id="0"><g data-cell-id="1"><g data-cell-id="ahl_oFsp3ZpYQsmE7bn_-1"><g><ellipse cx="101" cy="21" rx="20" ry="20" fill="transparent" stroke="none" pointer-events="all"/><path d="M 94.37 1.77 C 98.13 0.31 103.94 1.44 107.96 2.92 C 111.98 4.4 116.2 7.21 118.47 10.63 C 120.75 14.05 122.31 19.19 121.61 23.42 C 120.91 27.66 117.65 33 114.3 36.04 C 110.94 39.08 105.88 41.53 101.5 41.66 C 97.13 41.79 91.29 39.46 88.04 36.82 C 84.79 34.18 82.82 29.94 82 25.8 C 81.19 21.65 80.29 16.07 83.14 11.96 C 85.98 7.84 95.49 2.89 99.07 1.14 C 102.65 -0.62 104.53 1.14 104.61 1.42 M 94.16 2.17 C 98.08 0.33 104.19 1.19 107.88 2.4 C 111.57 3.62 113.93 6.22 116.31 9.46 C 118.68 12.7 122.28 17.6 122.13 21.87 C 121.98 26.13 118.8 31.76 115.41 35.05 C 112.02 38.33 106.36 41.46 101.79 41.56 C 97.22 41.66 91.2 38.11 88.02 35.63 C 84.83 33.15 83.47 30.4 82.67 26.67 C 81.86 22.94 81.53 17.37 83.19 13.25 C 84.85 9.14 90.92 3.93 92.63 1.98 C 94.34 0.03 93.28 1.32 93.45 1.56" fill="#f9f7ed" style="fill: rgb(249, 247, 237);" stroke="none" pointer-events="all"/><path d="M 97.58 0.45 C 101.49 -0.65 105.88 0.98 109.56 3.11 C 113.25 5.25 118.04 9.07 119.69 13.24 C 121.33 17.4 120.75 23.98 119.41 28.11 C 118.06 32.23 115.03 35.94 111.63 38.01 C 108.22 40.08 103.38 41 98.99 40.54 C 94.59 40.07 88.32 38.41 85.25 35.22 C 82.18 32.03 80.43 25.76 80.57 21.41 C 80.71 17.06 83.21 12.46 86.09 9.14 C 88.97 5.82 95.68 2.85 97.83 1.49 C 99.98 0.13 98.86 0.81 98.98 0.96 M 104.82 1.98 C 108.79 2.4 112.09 3.63 114.64 6.74 C 117.2 9.85 119.83 16.27 120.15 20.64 C 120.47 25 119.02 29.56 116.58 32.93 C 114.13 36.3 109.7 40.04 105.48 40.86 C 101.26 41.69 94.92 39.86 91.24 37.88 C 87.57 35.91 84.93 32.7 83.43 29.01 C 81.94 25.33 81.09 19.81 82.27 15.77 C 83.46 11.72 86.78 7.05 90.57 4.75 C 94.36 2.45 102.63 2.72 105.02 1.97 C 107.4 1.22 104.97 -0.1 104.89 0.27" fill="none" stroke="#36393d" style="stroke: rgb(54, 57, 61);" stroke-width="2" stroke-linejoin="round" stroke-linecap="round" stroke-miterlimit="10" pointer-events="all"/></g></g><g data-cell-id="ahl_oFsp3ZpYQsmE7bn_-2"><g><ellipse cx="21" cy="101" rx="20" ry="20" fill="transparent" stroke="none" pointer-events="all"/><path d="M 22.3 80.35 C 26.41 80.54 31.59 83.53 34.72 86.5 C 37.85 89.46 40.71 93.77 41.09 98.14 C 41.46 102.51 39.47 108.96 36.95 112.7 C 34.44 116.45 29.91 119.56 25.99 120.61 C 22.06 121.65 17.12 120.71 13.4 118.97 C 9.69 117.22 5.62 113.92 3.69 110.15 C 1.77 106.39 0.9 100.67 1.86 96.37 C 2.82 92.08 5.61 86.84 9.44 84.39 C 13.27 81.94 21.88 81.95 24.86 81.68 C 27.84 81.41 27.34 82.65 27.34 82.79 M 13.34 82.08 C 16.98 80.07 22.27 81.39 26.45 82.54 C 30.64 83.7 36.26 85.53 38.44 89.01 C 40.61 92.49 40 98.79 39.51 103.43 C 39.02 108.07 38.28 113.81 35.48 116.84 C 32.68 119.87 27.12 121.52 22.7 121.6 C 18.28 121.68 12.24 119.85 8.95 117.3 C 5.66 114.75 3.83 110.33 2.95 106.32 C 2.08 102.31 2.19 97.18 3.69 93.24 C 5.19 89.3 10.5 84.24 11.95 82.69 C 13.4 81.13 11.98 83.51 12.38 83.92" fill="#f9f7ed" style="fill: rgb(249, 247, 237);" stroke="none" pointer-events="all"/><path d="M 11.42 82.29 C 14.89 80.48 21.01 81.28 25.34 82.48 C 29.66 83.68 34.63 86.35 37.38 89.5 C 40.12 92.65 42.22 97.27 41.8 101.38 C 41.39 105.49 37.86 110.79 34.89 114.18 C 31.92 117.56 28.05 121.22 23.96 121.69 C 19.88 122.17 14.21 119.52 10.4 117.02 C 6.6 114.51 2.55 110.72 1.15 106.68 C -0.25 102.65 -0.32 96.88 1.99 92.8 C 4.29 88.73 12.25 84.27 14.97 82.24 C 17.69 80.21 18.13 80.45 18.31 80.61 M 20.76 82.39 C 24.91 82.07 30.9 82.36 34.39 84.93 C 37.88 87.5 40.97 93.32 41.69 97.82 C 42.4 102.32 41.03 108.4 38.67 111.94 C 36.31 115.48 31.58 117.53 27.52 119.05 C 23.45 120.56 18.06 122.34 14.26 121.01 C 10.47 119.67 7.16 114.87 4.76 111.03 C 2.36 107.2 -0.9 102.04 -0.11 98 C 0.67 93.95 6.12 89.51 9.46 86.78 C 12.8 84.05 18.15 82.32 19.93 81.64 C 21.7 80.96 20.11 82.54 20.12 82.71" fill="none" stroke="#36393d" style="stroke: rgb(54, 57, 61);" stroke-width="2" stroke-linejoin="round" stroke-linecap="round" stroke-miterlimit="10" pointer-events="all"/></g></g><g data-cell-id="ahl_oFsp3ZpYQsmE7bn_-3"><g><ellipse cx="181" cy="101" rx="20" ry="20" fill="transparent" stroke="none" pointer-events="all"/><path d="M 172.75 82.37 C 176.27 80.28 182.32 81.06 186.35 82.18 C 190.39 83.29 194.48 85.85 196.94 89.05 C 199.39 92.26 201.42 97.02 201.07 101.39 C 200.71 105.77 197.86 111.9 194.82 115.29 C 191.77 118.67 186.91 121.15 182.78 121.71 C 178.66 122.27 173.57 121.14 170.06 118.64 C 166.55 116.14 162.88 110.84 161.71 106.73 C 160.54 102.62 160.53 98.1 163.03 93.97 C 165.52 89.84 173.46 84.19 176.67 81.95 C 179.88 79.7 182.14 80.17 182.3 80.52 M 172.51 81.98 C 175.87 80.3 180.85 81.59 185.03 82.69 C 189.2 83.78 195.09 85.34 197.56 88.56 C 200.04 91.78 200.23 97.47 199.89 101.99 C 199.55 106.5 198.26 112.36 195.55 115.64 C 192.83 118.92 187.88 121.58 183.61 121.64 C 179.33 121.69 173.78 118.58 169.88 115.97 C 165.99 113.36 161.19 109.76 160.24 105.97 C 159.29 102.18 162.36 96.99 164.19 93.23 C 166.03 89.46 169.58 85.05 171.27 83.39 C 172.95 81.73 173.67 83.19 174.3 83.28" fill="#f9f7ed" style="fill: rgb(249, 247, 237);" stroke="none" pointer-events="all"/><path d="M 186.56 81.05 C 190.45 82.1 195.38 86.36 197.86 89.89 C 200.35 93.42 201.88 98.07 201.44 102.24 C 201 106.4 198.27 111.64 195.21 114.9 C 192.15 118.17 187.32 121.47 183.08 121.84 C 178.83 122.21 173.4 119.84 169.76 117.14 C 166.12 114.44 162.54 109.75 161.25 105.63 C 159.97 101.52 160.15 96.07 162.06 92.42 C 163.96 88.77 168.15 85.21 172.69 83.71 C 177.23 82.21 186.11 83.1 189.3 83.42 C 192.5 83.74 191.91 85.5 191.87 85.64 M 176.7 80.26 C 180.44 79.21 187 81.01 190.85 83.48 C 194.69 85.95 198.18 91.05 199.77 95.09 C 201.35 99.13 202.09 103.61 200.36 107.73 C 198.63 111.84 193.21 117.63 189.39 119.79 C 185.57 121.95 181.25 121.85 177.44 120.69 C 173.62 119.53 169.23 116.22 166.48 112.82 C 163.74 109.42 161.09 104.24 160.95 100.3 C 160.82 96.36 162.85 92.25 165.66 89.17 C 168.48 86.08 175.73 82.87 177.84 81.78 C 179.95 80.69 178.25 82.14 178.34 82.6" fill="none" stroke="#36393d" style="stroke: rgb(54, 57, 61);" stroke-width="2" stroke-linejoin="round" stroke-linecap="round" stroke-miterlimit="10" pointer-events="all"/></g></g><g data-cell-id="ahl_oFsp3ZpYQsmE7bn_-4"><g><path d="M 115.14 35.14 L 161.03 81.03" fill="none" stroke="none" pointer-events="stroke"/><path d="M 165.28 85.28 L 156.79 82.45 L 161.03 81.03 L 162.45 76.79 Z" fill="none" stroke="none" pointer-events="all"/><path d="M 115.14 35.14 C 128.54 50.02 144.18 65.97 161.03 81.03 M 115.14 35.14 C 131.79 53.05 150.03 69.58 161.03 81.03" fill="none" stroke="#000000" style="stroke: rgb(0, 0, 0);" stroke-width="2" stroke-linejoin="round" stroke-linecap="round" stroke-miterlimit="10" pointer-events="stroke"/><path d="M 165.28 85.28 C 160.82 84.28 158.65 84.19 156.79 82.45 C 157.58 81.78 159.89 82.28 161.03 81.03 C 161.57 79.64 161.3 77.82 162.45 76.79 C 163.25 78.66 164.98 82.26 165.28 85.28" fill="#000000" style="fill: rgb(0, 0, 0);" stroke="none" pointer-events="all"/><path d="M 165.28 85.28 C 161.94 84.4 159.54 83.98 156.79 82.45 M 165.28 85.28 C 161.74 84.61 158.79 83.06 156.79 82.45 M 156.79 82.45 C 158.15 81.58 159.66 81.67 161.03 81.03 M 156.79 82.45 C 158.44 81.77 160.15 81.14 161.03 81.03 M 161.03 81.03 C 161.2 79.31 161.53 78.54 162.45 76.79 M 161.03 81.03 C 161.27 80 162.01 78.88 162.45 76.79 M 162.45 76.79 C 162.82 80.31 165.31 83.47 165.28 85.28 M 162.45 76.79 C 163.44 78.77 163.38 80.72 165.28 85.28" fill="none" stroke="#000000" style="stroke: rgb(0, 0, 0);" stroke-width="2" stroke-linejoin="round" stroke-linecap="round" stroke-miterlimit="10" pointer-events="all"/></g></g><g data-cell-id="ahl_oFsp3ZpYQsmE7bn_-5"><g><path d="M 86.86 35.14 L 40.97 81.03" fill="none" stroke="none" pointer-events="stroke"/><path d="M 36.72 85.28 L 39.55 76.79 L 40.97 81.03 L 45.21 82.45 Z" fill="none" stroke="none" pointer-events="all"/><path d="M 86.86 35.14 C 73.49 48.7 58.24 64.85 40.97 81.03 M 86.86 35.14 C 75.48 47.6 64 57.47 40.97 81.03" fill="none" stroke="#000000" style="stroke: rgb(0, 0, 0);" stroke-width="2" stroke-linejoin="round" stroke-linecap="round" stroke-miterlimit="10" pointer-events="stroke"/><path d="M 36.72 85.28 C 37.88 84.48 37.25 81.41 39.55 76.79 C 40.32 77.83 40.45 79.43 40.97 81.03 C 43.45 80.88 44.85 82 45.21 82.45 C 42.25 82.69 43.07 82.11 36.72 85.28" fill="#000000" style="fill: rgb(0, 0, 0);" stroke="none" pointer-events="all"/><path d="M 36.72 85.28 C 38.32 82.12 39.06 79.95 39.55 76.79 M 36.72 85.28 C 37.71 83.56 38.54 80.57 39.55 76.79 M 39.55 76.79 C 40.02 78.22 40.5 79.82 40.97 81.03 M 39.55 76.79 C 39.95 78.11 40.74 79.94 40.97 81.03 M 40.97 81.03 C 41.77 81.35 43.29 81.8 45.21 82.45 M 40.97 81.03 C 42.4 81.63 43.87 81.88 45.21 82.45 M 45.21 82.45 C 43.24 83.87 40.73 83.9 36.72 85.28 M 45.21 82.45 C 41.71 83.52 38.82 84.56 36.72 85.28" fill="none" stroke="#000000" style="stroke: rgb(0, 0, 0);" stroke-width="2" stroke-linejoin="round" stroke-linecap="round" stroke-miterlimit="10" pointer-events="all"/></g></g><g data-cell-id="ahl_oFsp3ZpYQsmE7bn_-6"><g><ellipse cx="101" cy="181" rx="20" ry="20" fill="transparent" stroke="none" pointer-events="all"/><path d="M 98.76 160.15 C 102.67 159.33 108.75 161.03 112.18 163.74 C 115.61 166.46 118.17 172.21 119.34 176.44 C 120.52 180.66 120.83 185.44 119.23 189.08 C 117.64 192.73 113.71 196.41 109.8 198.32 C 105.88 200.22 99.96 201.42 95.77 200.49 C 91.58 199.57 86.98 196.13 84.66 192.76 C 82.34 189.4 81.6 184.5 81.84 180.3 C 82.07 176.09 83.12 170.89 86.08 167.54 C 89.05 164.2 97.3 161.36 99.62 160.21 C 101.93 159.07 99.81 160.07 99.96 160.7 M 93.04 161.71 C 96.56 160.02 102.6 161.7 106.75 163.12 C 110.9 164.54 115.56 166.79 117.94 170.21 C 120.32 173.64 121.39 179.53 121.03 183.66 C 120.66 187.8 118.7 192.01 115.75 195.03 C 112.8 198.04 107.67 201.26 103.33 201.75 C 98.99 202.24 93.4 200.78 89.69 197.98 C 85.99 195.17 82.26 189.04 81.1 184.91 C 79.93 180.78 80.85 176.93 82.71 173.19 C 84.56 169.46 90.32 163.97 92.22 162.5 C 94.11 161.03 93.75 163.76 94.08 164.38" fill="#f9f7ed" style="fill: rgb(249, 247, 237);" stroke="none" pointer-events="all"/><path d="M 110.84 163.13 C 114.66 164.85 118.37 169.45 119.75 173.42 C 121.14 177.38 120.44 182.69 119.14 186.9 C 117.85 191.11 115.45 196.5 111.99 198.69 C 108.54 200.87 102.77 200.87 98.42 199.99 C 94.08 199.11 88.91 196.33 85.91 193.41 C 82.9 190.49 80.41 186.52 80.38 182.49 C 80.34 178.45 82.99 172.59 85.68 169.18 C 88.38 165.77 91.71 162.5 96.54 162.04 C 101.37 161.57 111.39 165.4 114.68 166.39 C 117.96 167.37 116.63 167.82 116.25 167.95 M 107.27 163.28 C 110.97 164.55 115.97 168.28 118.1 172.14 C 120.23 175.99 121.03 182.11 120.05 186.42 C 119.07 190.73 115.66 195.33 112.21 197.99 C 108.75 200.66 103.25 202.81 99.3 202.42 C 95.35 202.02 91.39 198.7 88.53 195.61 C 85.67 192.52 82.72 188 82.13 183.87 C 81.54 179.74 82.73 174.65 84.99 170.83 C 87.24 167 91.76 162.3 95.65 160.93 C 99.54 159.56 106.06 162.3 108.34 162.59 C 110.63 162.88 109.37 162.33 109.38 162.67" fill="none" stroke="#36393d" style="stroke: rgb(54, 57, 61);" stroke-width="2" stroke-linejoin="round" stroke-linecap="round" stroke-miterlimit="10" pointer-events="all"/></g></g><g data-cell-id="ahl_oFsp3ZpYQsmE7bn_-7"><g><path d="M 35.14 115.14 L 81.03 161.03" fill="none" stroke="none" pointer-events="stroke"/><path d="M 85.28 165.28 L 76.79 162.45 L 81.03 161.03 L 82.45 156.79 Z" fill="none" stroke="none" pointer-events="all"/><path d="M 35.14 115.14 C 49.35 131.09 65.45 143.64 81.03 161.03 M 35.14 115.14 C 54.3 132.52 72 151.43 81.03 161.03" fill="none" stroke="#000000" style="stroke: rgb(0, 0, 0);" stroke-width="2" stroke-linejoin="round" stroke-linecap="round" stroke-miterlimit="10" pointer-events="stroke"/><path d="M 85.28 165.28 C 83.22 165.67 81.26 163.9 76.79 162.45 C 78.43 162.5 79.72 161.85 81.03 161.03 C 81.97 158.84 81.46 158.33 82.45 156.79 C 83.08 159.48 83.48 162.31 85.28 165.28" fill="#000000" style="fill: rgb(0, 0, 0);" stroke="none" pointer-events="all"/><path d="M 85.28 165.28 C 82.18 164.77 79.99 162.82 76.79 162.45 M 85.28 165.28 C 82.31 163.94 78.64 163.08 76.79 162.45 M 76.79 162.45 C 78.35 161.98 80.44 161.03 81.03 161.03 M 76.79 162.45 C 78.05 162.18 79.6 161.52 81.03 161.03 M 81.03 161.03 C 81.54 160.55 81.24 159.49 82.45 156.79 M 81.03 161.03 C 81.75 159.12 82.01 157.62 82.45 156.79 M 82.45 156.79 C 82.69 160.46 84.17 162.65 85.28 165.28 M 82.45 156.79 C 83.44 159.17 83.76 161.36 85.28 165.28" fill="none" stroke="#000000" style="stroke: rgb(0, 0, 0);" stroke-width="2" stroke-linejoin="round" stroke-linecap="round" stroke-miterlimit="10" pointer-events="all"/></g></g><g data-cell-id="ahl_oFsp3ZpYQsmE7bn_-8"><g><path d="M 166.86 115.14 L 120.97 161.03" fill="none" stroke="none" pointer-events="stroke"/><path d="M 116.72 165.28 L 119.55 156.79 L 120.97 161.03 L 125.21 162.45 Z" fill="none" stroke="none" pointer-events="all"/><path d="M 166.86 115.14 C 150.3 130.33 135.52 147.08 120.97 161.03 M 166.86 115.14 C 154.52 126.89 141.04 139.15 120.97 161.03" fill="none" stroke="#000000" style="stroke: rgb(0, 0, 0);" stroke-width="2" stroke-linejoin="round" stroke-linecap="round" stroke-miterlimit="10" pointer-events="stroke"/><path d="M 116.72 165.28 C 118.67 162.19 116.88 159.93 119.55 156.79 C 120.8 158.37 120.95 158.52 120.97 161.03 C 121.44 161.65 123.53 162.5 125.21 162.45 C 124.18 163.09 119.42 164.45 116.72 165.28" fill="#000000" style="fill: rgb(0, 0, 0);" stroke="none" pointer-events="all"/><path d="M 116.72 165.28 C 116.74 162.47 117.69 160.57 119.55 156.79 M 116.72 165.28 C 117.54 162.82 117.84 160.44 119.55 156.79 M 119.55 156.79 C 119.71 157.48 120.19 158.68 120.97 161.03 M 119.55 156.79 C 119.79 158.1 120.19 159.02 120.97 161.03 M 120.97 161.03 C 122.61 161.31 124.03 162 125.21 162.45 M 120.97 161.03 C 122.01 161.15 122.94 161.87 125.21 162.45 M 125.21 162.45 C 122.86 163.94 119.09 164.68 116.72 165.28 M 125.21 162.45 C 122.92 163.04 121.48 163.45 116.72 165.28" fill="none" stroke="#000000" style="stroke: rgb(0, 0, 0);" stroke-width="2" stroke-linejoin="round" stroke-linecap="round" stroke-miterlimit="10" pointer-events="all"/></g></g></g></g></g></svg>