<?xml version="1.0" encoding="UTF-8"?>
<!-- Do not edit this file with editors other than draw.io -->
<!DOCTYPE svg PUBLIC "-//W3C//DTD SVG 1.1//EN" "http://www.w3.org/Graphics/SVG/1.1/DTD/svg11.dtd">
<svg xmlns="http://www.w3.org/2000/svg" xmlns:xlink="http://www.w3.org/1999/xlink" version="1.1" width="112px" height="61px" viewBox="-0.5 -0.5 112 61" content="&lt;mxfile host=&quot;app.diagrams.net&quot; agent=&quot;Mozilla/5.0 (X11; Linux x86_64; rv:132.0) Gecko/20100101 Firefox/132.0&quot; scale=&quot;1&quot; border=&quot;0&quot; version=&quot;24.8.4&quot;&gt;&#xA;  &lt;diagram name=&quot;Page-1&quot; id=&quot;-ygT_HLLcLUaW2H94txu&quot;&gt;&#xA;    &lt;mxGraphModel dx=&quot;1114&quot; dy=&quot;566&quot; grid=&quot;1&quot; gridSize=&quot;10&quot; guides=&quot;1&quot; tooltips=&quot;1&quot; connect=&quot;1&quot; arrows=&quot;1&quot; fold=&quot;1&quot; page=&quot;1&quot; pageScale=&quot;1&quot; pageWidth=&quot;600&quot; pageHeight=&quot;550&quot; math=&quot;0&quot; shadow=&quot;0&quot;&gt;&#xA;      &lt;root&gt;&#xA;        &lt;mxCell id=&quot;0&quot; /&gt;&#xA;        &lt;mxCell id=&quot;1&quot; parent=&quot;0&quot; /&gt;&#xA;        &lt;mxCell id=&quot;8uUEZLHQP5KODDtzp3z_-1&quot; value=&quot;&quot; style=&quot;shape=flexArrow;endArrow=classic;html=1;rounded=0;sketch=1;curveFitting=1;jiggle=2;fillColor=#ffff88;strokeColor=#36393d;fillStyle=solid;width=30;endSize=11.67;endWidth=26;strokeWidth=2;&quot; edge=&quot;1&quot; parent=&quot;1&quot;&gt;&#xA;          &lt;mxGeometry width=&quot;50&quot; height=&quot;50&quot; relative=&quot;1&quot; as=&quot;geometry&quot;&gt;&#xA;            &lt;mxPoint x=&quot;210&quot; y=&quot;170&quot; as=&quot;sourcePoint&quot; /&gt;&#xA;            &lt;mxPoint x=&quot;320&quot; y=&quot;170&quot; as=&quot;targetPoint&quot; /&gt;&#xA;          &lt;/mxGeometry&gt;&#xA;        &lt;/mxCell&gt;&#xA;      &lt;/root&gt;&#xA;    &lt;/mxGraphModel&gt;&#xA;  &lt;/diagram&gt;&#xA;&lt;/mxfile&gt;&#xA;"><defs/><g><g data-cell-id="0"><g data-cell-id="1"><g data-cell-id="8uUEZLHQP5KODDtzp3z_-1"><g><path d="M 2 45.5 L 2 14.5 L 72.99 14.5 L 72.99 0.5 L 110 30 L 72.99 59.5 L 72.99 45.5 Z" fill="none" stroke="none" pointer-events="all"/><path d="M 2 45.5 C 5.6 37.6 -0.01 33.66 2 14.5 C 27.85 20.92 60.17 10.93 72.99 14.5 C 76.13 9.59 76.53 4.52 72.99 0.5 C 86.25 10.83 97.67 21.44 110 30 C 98.31 31.17 94.77 45.52 72.99 59.5 C 72.78 56.84 75.54 49.69 72.99 45.5 C 58.4 48 47.05 40.03 2 45.5" fill="#ffff88" stroke="none" pointer-events="all"/><path d="M 2 45.5 C 2.74 34.63 -0.58 21.21 2 14.5 M 2 45.5 C -0.19 38.23 0.75 31.74 2 14.5 M 2 14.5 C 31.85 11.55 55.21 17.58 72.99 14.5 M 2 14.5 C 26.72 16.89 49.23 16.67 72.99 14.5 M 72.99 14.5 C 71.53 9.62 70.43 5.94 72.99 0.5 M 72.99 14.5 C 71.94 11.64 73.87 7.17 72.99 0.5 M 72.99 0.5 C 84.61 8.31 90.79 13.79 110 30 M 72.99 0.5 C 84 9.25 93.85 16.04 110 30 M 110 30 C 101.23 40.58 95.93 39.32 72.99 59.5 M 110 30 C 97.18 37.53 88.7 47.16 72.99 59.5 M 72.99 59.5 C 74.78 55.26 70.91 53.77 72.99 45.5 M 72.99 59.5 C 73.39 56.85 74.02 52.43 72.99 45.5 M 72.99 45.5 C 43.21 47.95 17.23 43.39 2 45.5 M 72.99 45.5 C 44.62 44.5 15.4 43.79 2 45.5" fill="none" stroke="#36393d" stroke-width="2" stroke-linejoin="round" stroke-linecap="round" stroke-miterlimit="10" pointer-events="all"/></g></g></g></g></g></svg>