<?xml version="1.0" encoding="UTF-8"?>
<!-- Do not edit this file with editors other than draw.io -->
<!DOCTYPE svg PUBLIC "-//W3C//DTD SVG 1.1//EN" "http://www.w3.org/Graphics/SVG/1.1/DTD/svg11.dtd">
<svg xmlns="http://www.w3.org/2000/svg" xmlns:xlink="http://www.w3.org/1999/xlink" version="1.1" width="262px" height="391px" viewBox="-0.5 -0.5 262 391" content="&lt;mxfile host=&quot;app.diagrams.net&quot; agent=&quot;Mozilla/5.0 (X11; Linux x86_64; rv:132.0) Gecko/20100101 Firefox/132.0&quot; scale=&quot;1&quot; border=&quot;5&quot; version=&quot;24.8.4&quot;&gt;&#xA;  &lt;diagram name=&quot;Page-1&quot; id=&quot;pE_9o59anWI73bOz1v_J&quot;&gt;&#xA;    &lt;mxGraphModel dx=&quot;1714&quot; dy=&quot;566&quot; grid=&quot;1&quot; gridSize=&quot;10&quot; guides=&quot;1&quot; tooltips=&quot;1&quot; connect=&quot;1&quot; arrows=&quot;1&quot; fold=&quot;1&quot; page=&quot;1&quot; pageScale=&quot;1&quot; pageWidth=&quot;600&quot; pageHeight=&quot;550&quot; math=&quot;0&quot; shadow=&quot;0&quot;&gt;&#xA;      &lt;root&gt;&#xA;        &lt;mxCell id=&quot;0&quot; /&gt;&#xA;        &lt;mxCell id=&quot;1&quot; parent=&quot;0&quot; /&gt;&#xA;        &lt;mxCell id=&quot;ZOJEWMY2XDao8kptbQvy-2&quot; value=&quot;&quot; style=&quot;rounded=1;whiteSpace=wrap;html=1;sketch=1;curveFitting=1;jiggle=2;fillColor=#fff2cc;strokeColor=#d6b656;fillStyle=solid;&quot; parent=&quot;1&quot; vertex=&quot;1&quot;&gt;&#xA;          &lt;mxGeometry x=&quot;110&quot; y=&quot;40&quot; width=&quot;80&quot; height=&quot;40&quot; as=&quot;geometry&quot; /&gt;&#xA;        &lt;/mxCell&gt;&#xA;        &lt;mxCell id=&quot;ZOJEWMY2XDao8kptbQvy-3&quot; value=&quot;&quot; style=&quot;rounded=1;whiteSpace=wrap;html=1;sketch=1;curveFitting=1;jiggle=2;fillColor=#fff2cc;strokeColor=#d6b656;fillStyle=solid;&quot; parent=&quot;1&quot; vertex=&quot;1&quot;&gt;&#xA;          &lt;mxGeometry x=&quot;160&quot; y=&quot;120&quot; width=&quot;80&quot; height=&quot;40&quot; as=&quot;geometry&quot; /&gt;&#xA;        &lt;/mxCell&gt;&#xA;        &lt;mxCell id=&quot;ZOJEWMY2XDao8kptbQvy-5&quot; value=&quot;&quot; style=&quot;rounded=1;whiteSpace=wrap;html=1;sketch=1;curveFitting=1;jiggle=2;fillColor=#fff2cc;strokeColor=#d6b656;fillStyle=solid;&quot; parent=&quot;1&quot; vertex=&quot;1&quot;&gt;&#xA;          &lt;mxGeometry x=&quot;100&quot; y=&quot;200&quot; width=&quot;80&quot; height=&quot;40&quot; as=&quot;geometry&quot; /&gt;&#xA;        &lt;/mxCell&gt;&#xA;        &lt;mxCell id=&quot;ZOJEWMY2XDao8kptbQvy-7&quot; value=&quot;&quot; style=&quot;rounded=1;whiteSpace=wrap;html=1;sketch=1;curveFitting=1;jiggle=2;fillColor=#fff2cc;strokeColor=#d6b656;fillStyle=solid;&quot; parent=&quot;1&quot; vertex=&quot;1&quot;&gt;&#xA;          &lt;mxGeometry x=&quot;40&quot; y=&quot;120&quot; width=&quot;80&quot; height=&quot;40&quot; as=&quot;geometry&quot; /&gt;&#xA;        &lt;/mxCell&gt;&#xA;        &lt;mxCell id=&quot;ZOJEWMY2XDao8kptbQvy-8&quot; value=&quot;&quot; style=&quot;rounded=1;whiteSpace=wrap;html=1;sketch=1;curveFitting=1;jiggle=2;fillColor=#d5e8d4;strokeColor=#82b366;fillStyle=solid;&quot; parent=&quot;1&quot; vertex=&quot;1&quot;&gt;&#xA;          &lt;mxGeometry x=&quot;110&quot; y=&quot;290&quot; width=&quot;80&quot; height=&quot;40&quot; as=&quot;geometry&quot; /&gt;&#xA;        &lt;/mxCell&gt;&#xA;        &lt;mxCell id=&quot;ZOJEWMY2XDao8kptbQvy-12&quot; value=&quot;&quot; style=&quot;rounded=1;whiteSpace=wrap;html=1;sketch=1;curveFitting=1;jiggle=2;fillColor=#fff2cc;strokeColor=#d6b656;fillStyle=solid;&quot; parent=&quot;1&quot; vertex=&quot;1&quot;&gt;&#xA;          &lt;mxGeometry x=&quot;110&quot; y=&quot;380&quot; width=&quot;80&quot; height=&quot;40&quot; as=&quot;geometry&quot; /&gt;&#xA;        &lt;/mxCell&gt;&#xA;        &lt;mxCell id=&quot;ZOJEWMY2XDao8kptbQvy-13&quot; value=&quot;&quot; style=&quot;endArrow=none;html=1;rounded=0;strokeWidth=2;sketch=1;curveFitting=1;jiggle=2;endFill=0;startArrow=classic;startFill=1;endSize=6;startSize=8;&quot; parent=&quot;1&quot; source=&quot;ZOJEWMY2XDao8kptbQvy-3&quot; target=&quot;ZOJEWMY2XDao8kptbQvy-2&quot; edge=&quot;1&quot;&gt;&#xA;          &lt;mxGeometry width=&quot;50&quot; height=&quot;50&quot; relative=&quot;1&quot; as=&quot;geometry&quot;&gt;&#xA;            &lt;mxPoint x=&quot;270&quot; y=&quot;320&quot; as=&quot;sourcePoint&quot; /&gt;&#xA;            &lt;mxPoint x=&quot;320&quot; y=&quot;270&quot; as=&quot;targetPoint&quot; /&gt;&#xA;          &lt;/mxGeometry&gt;&#xA;        &lt;/mxCell&gt;&#xA;        &lt;mxCell id=&quot;ZOJEWMY2XDao8kptbQvy-20&quot; value=&quot;&quot; style=&quot;endArrow=classic;html=1;rounded=0;endSize=8;strokeWidth=2;sketch=1;curveFitting=1;jiggle=2;&quot; parent=&quot;1&quot; source=&quot;ZOJEWMY2XDao8kptbQvy-2&quot; target=&quot;ZOJEWMY2XDao8kptbQvy-7&quot; edge=&quot;1&quot;&gt;&#xA;          &lt;mxGeometry width=&quot;50&quot; height=&quot;50&quot; relative=&quot;1&quot; as=&quot;geometry&quot;&gt;&#xA;            &lt;mxPoint x=&quot;300&quot; y=&quot;280&quot; as=&quot;sourcePoint&quot; /&gt;&#xA;            &lt;mxPoint x=&quot;300&quot; y=&quot;400&quot; as=&quot;targetPoint&quot; /&gt;&#xA;          &lt;/mxGeometry&gt;&#xA;        &lt;/mxCell&gt;&#xA;        &lt;mxCell id=&quot;ZOJEWMY2XDao8kptbQvy-22&quot; value=&quot;&quot; style=&quot;endArrow=classic;html=1;rounded=0;endSize=8;strokeWidth=2;sketch=1;curveFitting=1;jiggle=2;exitX=0.75;exitY=1;exitDx=0;exitDy=0;entryX=0.588;entryY=0;entryDx=0;entryDy=0;entryPerimeter=0;&quot; parent=&quot;1&quot; source=&quot;ZOJEWMY2XDao8kptbQvy-5&quot; target=&quot;ZOJEWMY2XDao8kptbQvy-8&quot; edge=&quot;1&quot;&gt;&#xA;          &lt;mxGeometry width=&quot;50&quot; height=&quot;50&quot; relative=&quot;1&quot; as=&quot;geometry&quot;&gt;&#xA;            &lt;mxPoint x=&quot;320&quot; y=&quot;300&quot; as=&quot;sourcePoint&quot; /&gt;&#xA;            &lt;mxPoint x=&quot;320&quot; y=&quot;420&quot; as=&quot;targetPoint&quot; /&gt;&#xA;          &lt;/mxGeometry&gt;&#xA;        &lt;/mxCell&gt;&#xA;        &lt;mxCell id=&quot;ZOJEWMY2XDao8kptbQvy-23&quot; value=&quot;&quot; style=&quot;endArrow=classic;html=1;rounded=0;endSize=8;strokeWidth=2;sketch=1;curveFitting=1;jiggle=2;&quot; parent=&quot;1&quot; source=&quot;ZOJEWMY2XDao8kptbQvy-8&quot; target=&quot;ZOJEWMY2XDao8kptbQvy-12&quot; edge=&quot;1&quot;&gt;&#xA;          &lt;mxGeometry width=&quot;50&quot; height=&quot;50&quot; relative=&quot;1&quot; as=&quot;geometry&quot;&gt;&#xA;            &lt;mxPoint x=&quot;330&quot; y=&quot;310&quot; as=&quot;sourcePoint&quot; /&gt;&#xA;            &lt;mxPoint x=&quot;330&quot; y=&quot;430&quot; as=&quot;targetPoint&quot; /&gt;&#xA;          &lt;/mxGeometry&gt;&#xA;        &lt;/mxCell&gt;&#xA;        &lt;mxCell id=&quot;ZOJEWMY2XDao8kptbQvy-25&quot; value=&quot;&quot; style=&quot;endArrow=classic;html=1;rounded=0;endSize=8;strokeWidth=2;sketch=1;curveFitting=1;jiggle=2;&quot; parent=&quot;1&quot; source=&quot;ZOJEWMY2XDao8kptbQvy-7&quot; target=&quot;ZOJEWMY2XDao8kptbQvy-5&quot; edge=&quot;1&quot;&gt;&#xA;          &lt;mxGeometry width=&quot;50&quot; height=&quot;50&quot; relative=&quot;1&quot; as=&quot;geometry&quot;&gt;&#xA;            &lt;mxPoint x=&quot;350&quot; y=&quot;330&quot; as=&quot;sourcePoint&quot; /&gt;&#xA;            &lt;mxPoint x=&quot;350&quot; y=&quot;450&quot; as=&quot;targetPoint&quot; /&gt;&#xA;          &lt;/mxGeometry&gt;&#xA;        &lt;/mxCell&gt;&#xA;        &lt;mxCell id=&quot;ZOJEWMY2XDao8kptbQvy-26&quot; value=&quot;&quot; style=&quot;endArrow=classic;html=1;rounded=0;endSize=8;strokeWidth=2;sketch=1;curveFitting=1;jiggle=2;&quot; parent=&quot;1&quot; source=&quot;ZOJEWMY2XDao8kptbQvy-3&quot; target=&quot;ZOJEWMY2XDao8kptbQvy-5&quot; edge=&quot;1&quot;&gt;&#xA;          &lt;mxGeometry width=&quot;50&quot; height=&quot;50&quot; relative=&quot;1&quot; as=&quot;geometry&quot;&gt;&#xA;            &lt;mxPoint x=&quot;360&quot; y=&quot;340&quot; as=&quot;sourcePoint&quot; /&gt;&#xA;            &lt;mxPoint x=&quot;360&quot; y=&quot;460&quot; as=&quot;targetPoint&quot; /&gt;&#xA;          &lt;/mxGeometry&gt;&#xA;        &lt;/mxCell&gt;&#xA;        &lt;mxCell id=&quot;Qa6PBT78VURUzrQVQmo9-24&quot; value=&quot;&quot; style=&quot;group&quot; vertex=&quot;1&quot; connectable=&quot;0&quot; parent=&quot;1&quot;&gt;&#xA;          &lt;mxGeometry x=&quot;169.52&quot; y=&quot;240.00218041752947&quot; width=&quot;60.95335348840331&quot; height=&quot;37.078340124200885&quot; as=&quot;geometry&quot; /&gt;&#xA;        &lt;/mxCell&gt;&#xA;        &lt;mxCell id=&quot;Qa6PBT78VURUzrQVQmo9-19&quot; value=&quot;&quot; style=&quot;endArrow=none;html=1;rounded=0;sketch=1;curveFitting=1;jiggle=2;strokeWidth=2;&quot; edge=&quot;1&quot; parent=&quot;Qa6PBT78VURUzrQVQmo9-24&quot;&gt;&#xA;          &lt;mxGeometry width=&quot;50&quot; height=&quot;50&quot; relative=&quot;1&quot; as=&quot;geometry&quot;&gt;&#xA;            &lt;mxPoint y=&quot;8.41781958247055&quot; as=&quot;sourcePoint&quot; /&gt;&#xA;            &lt;mxPoint x=&quot;60&quot; y=&quot;28.41781958247055&quot; as=&quot;targetPoint&quot; /&gt;&#xA;          &lt;/mxGeometry&gt;&#xA;        &lt;/mxCell&gt;&#xA;        &lt;mxCell id=&quot;Qa6PBT78VURUzrQVQmo9-20&quot; value=&quot;&quot; style=&quot;endArrow=none;html=1;rounded=0;sketch=1;curveFitting=1;jiggle=2;strokeWidth=2;&quot; edge=&quot;1&quot; parent=&quot;Qa6PBT78VURUzrQVQmo9-24&quot;&gt;&#xA;          &lt;mxGeometry width=&quot;50&quot; height=&quot;50&quot; relative=&quot;1&quot; as=&quot;geometry&quot;&gt;&#xA;            &lt;mxPoint y=&quot;28.41781958247055&quot; as=&quot;sourcePoint&quot; /&gt;&#xA;            &lt;mxPoint x=&quot;60&quot; y=&quot;8.41781958247055&quot; as=&quot;targetPoint&quot; /&gt;&#xA;          &lt;/mxGeometry&gt;&#xA;        &lt;/mxCell&gt;&#xA;        &lt;mxCell id=&quot;Qa6PBT78VURUzrQVQmo9-21&quot; value=&quot;&quot; style=&quot;shape=or;whiteSpace=wrap;html=1;fillColor=none;sketch=1;curveFitting=1;jiggle=2;strokeWidth=2;rotation=-105;&quot; vertex=&quot;1&quot; parent=&quot;Qa6PBT78VURUzrQVQmo9-24&quot;&gt;&#xA;          &lt;mxGeometry x=&quot;45&quot; y=&quot;-2.5821804175294503&quot; width=&quot;10&quot; height=&quot;20&quot; as=&quot;geometry&quot; /&gt;&#xA;        &lt;/mxCell&gt;&#xA;        &lt;mxCell id=&quot;Qa6PBT78VURUzrQVQmo9-22&quot; value=&quot;&quot; style=&quot;shape=or;whiteSpace=wrap;html=1;fillColor=none;sketch=1;curveFitting=1;jiggle=2;strokeWidth=2;rotation=100;&quot; vertex=&quot;1&quot; parent=&quot;Qa6PBT78VURUzrQVQmo9-24&quot;&gt;&#xA;          &lt;mxGeometry x=&quot;44&quot; y=&quot;20.41781958247055&quot; width=&quot;10&quot; height=&quot;20&quot; as=&quot;geometry&quot; /&gt;&#xA;        &lt;/mxCell&gt;&#xA;        &lt;mxCell id=&quot;Qa6PBT78VURUzrQVQmo9-25&quot; value=&quot;&quot; style=&quot;endArrow=classic;html=1;rounded=0;endSize=8;strokeWidth=2;sketch=1;curveFitting=1;jiggle=2;fillColor=#dae8fc;strokeColor=#6c8ebf;&quot; edge=&quot;1&quot; parent=&quot;1&quot; target=&quot;Qa6PBT78VURUzrQVQmo9-26&quot;&gt;&#xA;          &lt;mxGeometry width=&quot;50&quot; height=&quot;50&quot; relative=&quot;1&quot; as=&quot;geometry&quot;&gt;&#xA;            &lt;mxPoint x=&quot;120&quot; y=&quot;240&quot; as=&quot;sourcePoint&quot; /&gt;&#xA;            &lt;mxPoint x=&quot;70&quot; y=&quot;280&quot; as=&quot;targetPoint&quot; /&gt;&#xA;          &lt;/mxGeometry&gt;&#xA;        &lt;/mxCell&gt;&#xA;        &lt;mxCell id=&quot;Qa6PBT78VURUzrQVQmo9-26&quot; value=&quot;&quot; style=&quot;rounded=1;whiteSpace=wrap;html=1;sketch=1;curveFitting=1;jiggle=2;fillColor=#dae8fc;strokeColor=#6c8ebf;fillStyle=solid;&quot; vertex=&quot;1&quot; parent=&quot;1&quot;&gt;&#xA;          &lt;mxGeometry x=&quot;-10&quot; y=&quot;290&quot; width=&quot;80&quot; height=&quot;40&quot; as=&quot;geometry&quot; /&gt;&#xA;        &lt;/mxCell&gt;&#xA;        &lt;mxCell id=&quot;Qa6PBT78VURUzrQVQmo9-27&quot; value=&quot;&quot; style=&quot;endArrow=classic;html=1;rounded=0;endSize=8;strokeWidth=2;sketch=1;curveFitting=1;jiggle=2;fillColor=#dae8fc;strokeColor=#6c8ebf;&quot; edge=&quot;1&quot; parent=&quot;1&quot; source=&quot;Qa6PBT78VURUzrQVQmo9-26&quot; target=&quot;ZOJEWMY2XDao8kptbQvy-12&quot;&gt;&#xA;          &lt;mxGeometry width=&quot;50&quot; height=&quot;50&quot; relative=&quot;1&quot; as=&quot;geometry&quot;&gt;&#xA;            &lt;mxPoint x=&quot;160&quot; y=&quot;340&quot; as=&quot;sourcePoint&quot; /&gt;&#xA;            &lt;mxPoint x=&quot;160&quot; y=&quot;390&quot; as=&quot;targetPoint&quot; /&gt;&#xA;          &lt;/mxGeometry&gt;&#xA;        &lt;/mxCell&gt;&#xA;        &lt;mxCell id=&quot;Qa6PBT78VURUzrQVQmo9-28&quot; value=&quot;&quot; style=&quot;endArrow=none;dashed=1;html=1;rounded=0;sketch=1;curveFitting=1;jiggle=2;dashPattern=12 12;&quot; edge=&quot;1&quot; parent=&quot;1&quot;&gt;&#xA;          &lt;mxGeometry width=&quot;50&quot; height=&quot;50&quot; relative=&quot;1&quot; as=&quot;geometry&quot;&gt;&#xA;            &lt;mxPoint y=&quot;260&quot; as=&quot;sourcePoint&quot; /&gt;&#xA;            &lt;mxPoint x=&quot;240&quot; y=&quot;260&quot; as=&quot;targetPoint&quot; /&gt;&#xA;          &lt;/mxGeometry&gt;&#xA;        &lt;/mxCell&gt;&#xA;      &lt;/root&gt;&#xA;    &lt;/mxGraphModel&gt;&#xA;  &lt;/diagram&gt;&#xA;&lt;/mxfile&gt;&#xA;"><defs/><g><g data-cell-id="0"><g data-cell-id="1"><g data-cell-id="ZOJEWMY2XDao8kptbQvy-2"><g><rect x="125" y="5" width="80" height="40" rx="6" ry="6" fill="none" stroke="none" pointer-events="all"/><path d="M 131 5 C 142.39 0.9 161.16 7.28 199 5 C 206.38 7.55 208.18 7.34 205 11 C 199.79 24.71 205.76 23.79 205 39 C 208.46 43.56 199.04 44.09 199 45 C 181.44 46.64 161.44 44.22 131 45 C 128.62 46.67 128.18 45.93 125 39 C 129.7 24.8 128.3 20.5 125 11 C 125.13 5.2 121.55 4.26 131 5" fill="#fff2cc" stroke="none" pointer-events="all"/><path d="M 131 5 C 147.92 5.19 162.37 2.47 199 5 M 131 5 C 152.37 6.5 170.69 5.3 199 5 M 199 5 C 203 2.85 206.6 7.11 205 11 M 199 5 C 204.72 7.05 203.97 4.85 205 11 M 205 11 C 204.46 21.02 203.95 29.46 205 39 M 205 11 C 203.45 17.72 206.94 23.37 205 39 M 205 39 C 206.75 39.98 205.04 48.4 199 45 M 205 39 C 208.31 42.07 199.56 48.25 199 45 M 199 45 C 182.5 43.71 157.77 46.07 131 45 M 199 45 C 183.62 46.78 165.61 47.36 131 45 M 131 45 C 130.42 47.79 121.86 43.97 125 39 M 131 45 C 127.26 46.02 120.99 42.14 125 39 M 125 39 C 124.87 34.26 126.3 24.78 125 11 M 125 39 C 125.44 33.2 125.34 24.24 125 11 M 125 11 C 124.3 5.33 124.39 8.36 131 5 M 125 11 C 121.38 4.58 127 4.85 131 5" fill="none" stroke="#d6b656" stroke-linejoin="round" stroke-linecap="round" stroke-miterlimit="10" pointer-events="all"/></g></g><g data-cell-id="ZOJEWMY2XDao8kptbQvy-3"><g><rect x="175" y="85" width="80" height="40" rx="6" ry="6" fill="none" stroke="none" pointer-events="all"/><path d="M 181 85 C 204.42 88.12 214.53 85.18 249 85 C 255.07 88.93 253.25 87.27 255 91 C 251.76 97.39 255.56 97.87 255 119 C 260.53 123.11 258.1 126.53 249 125 C 231.01 123.03 218.45 129.95 181 125 C 179.58 127.94 173.14 124.04 175 119 C 170.14 111.04 173.9 108.67 175 91 C 172.95 89.62 176.02 89.12 181 85" fill="#fff2cc" stroke="none" pointer-events="all"/><path d="M 181 85 C 195.63 84.2 207.73 81.88 249 85 M 181 85 C 205.66 86.1 232.02 83.34 249 85 M 249 85 C 254.4 87.9 254.36 86.36 255 91 M 249 85 C 250.51 83.58 255.9 83.72 255 91 M 255 91 C 252.72 102.01 251.33 108.9 255 119 M 255 91 C 254.69 94.8 255.67 103.6 255 119 M 255 119 C 253.94 120.78 252 128.96 249 125 M 255 119 C 259.54 126.79 256.03 125.27 249 125 M 249 125 C 229.54 127.26 203.69 121.67 181 125 M 249 125 C 230.14 126.19 214.98 125.48 181 125 M 181 125 C 180.65 123.21 175.51 121.02 175 119 M 181 125 C 176.32 121.38 170.71 126.93 175 119 M 175 119 C 176.46 107.26 173.86 100.86 175 91 M 175 119 C 175.62 110.34 173.96 100.62 175 91 M 175 91 C 171.17 85.33 175.28 81.74 181 85 M 175 91 C 174.74 85.04 174.42 84.8 181 85" fill="none" stroke="#d6b656" stroke-linejoin="round" stroke-linecap="round" stroke-miterlimit="10" pointer-events="all"/></g></g><g data-cell-id="ZOJEWMY2XDao8kptbQvy-5"><g><rect x="115" y="165" width="80" height="40" rx="6" ry="6" fill="none" stroke="none" pointer-events="all"/><path d="M 121 165 C 146.08 167.55 161.28 168.37 189 165 C 192.45 160.48 194.58 167.13 195 171 C 198.84 179.55 198.3 188.43 195 199 C 193.48 202.21 193.82 200.22 189 205 C 167.73 203.22 156.46 206.4 121 205 C 121.5 210.49 114.26 200.28 115 199 C 115 192.31 117.87 182.62 115 171 C 119.8 167.27 113.76 167.63 121 165" fill="#fff2cc" stroke="none" pointer-events="all"/><path d="M 121 165 C 139.06 167.5 154.45 165.98 189 165 M 121 165 C 142.63 165.32 163.49 163.43 189 165 M 189 165 C 189.22 162.02 197.88 164.87 195 171 M 189 165 C 191.31 165.82 190.57 170.64 195 171 M 195 171 C 191.47 183.99 196.33 195.78 195 199 M 195 171 C 196.03 182.55 196.01 191.26 195 199 M 195 199 C 196.32 202.39 193.94 202.08 189 205 M 195 199 C 192.78 207.04 190.58 208.51 189 205 M 189 205 C 163.62 206.38 143.55 200.87 121 205 M 189 205 C 171.19 205 149.73 205.72 121 205 M 121 205 C 113.1 202.06 114.81 203.13 115 199 M 121 205 C 114.44 201.31 119.35 207.31 115 199 M 115 199 C 113.89 186.88 111.21 184.22 115 171 M 115 199 C 113.11 190.21 116.32 184.57 115 171 M 115 171 C 112.91 165.31 117.08 164.51 121 165 M 115 171 C 112.26 165.96 118.48 164.69 121 165" fill="none" stroke="#d6b656" stroke-linejoin="round" stroke-linecap="round" stroke-miterlimit="10" pointer-events="all"/></g></g><g data-cell-id="ZOJEWMY2XDao8kptbQvy-7"><g><rect x="55" y="85" width="80" height="40" rx="6" ry="6" fill="none" stroke="none" pointer-events="all"/><path d="M 61 85 C 87.74 90.79 108.02 84.17 129 85 C 129.83 83.24 135.91 86.99 135 91 C 133.15 101.72 139.46 107.78 135 119 C 137.63 121.31 129.53 125.1 129 125 C 104.46 127.22 83.27 126.67 61 125 C 52.22 121.84 55.38 127.72 55 119 C 59.85 107.98 50.64 107.76 55 91 C 55.44 84.91 51.5 86.15 61 85" fill="#fff2cc" stroke="none" pointer-events="all"/><path d="M 61 85 C 74.49 82.81 93.17 82.09 129 85 M 61 85 C 79.61 83.25 94.96 86.23 129 85 M 129 85 C 132.03 84.14 133.39 83.38 135 91 M 129 85 C 132.1 88.07 134.43 88.37 135 91 M 135 91 C 137.1 100.37 132.21 103.46 135 119 M 135 91 C 134.49 100.69 133.47 111.73 135 119 M 135 119 C 138.7 124 135.88 123.2 129 125 M 135 119 C 135.22 127.29 134.32 122.56 129 125 M 129 125 C 105.7 125.5 75.41 128.06 61 125 M 129 125 C 108.23 123.82 84.48 125.95 61 125 M 61 125 C 53.55 128.91 54.1 125.24 55 119 M 61 125 C 52.56 121.24 58.79 118.5 55 119 M 55 119 C 51.31 114.49 56.56 99.59 55 91 M 55 119 C 54.59 114.08 54.68 104.52 55 91 M 55 91 C 54.66 85.3 58.87 87.28 61 85 M 55 91 C 58.98 86.87 53.33 84.58 61 85" fill="none" stroke="#d6b656" stroke-linejoin="round" stroke-linecap="round" stroke-miterlimit="10" pointer-events="all"/></g></g><g data-cell-id="ZOJEWMY2XDao8kptbQvy-8"><g><rect x="125" y="255" width="80" height="40" rx="6" ry="6" fill="none" stroke="none" pointer-events="all"/><path d="M 131 255 C 158.57 256.81 181.4 252.07 199 255 C 198.52 254.61 200.97 256.92 205 261 C 206.69 264.4 199.63 271.86 205 289 C 209.71 290.85 208.59 297.55 199 295 C 185.22 293.61 160.28 291.2 131 295 C 123.18 293.11 120.34 295.83 125 289 C 120.3 278.62 127.44 274.74 125 261 C 123.27 259.33 125.97 249.81 131 255" fill="#d5e8d4" stroke="none" pointer-events="all"/><path d="M 131 255 C 142.21 251.82 158.53 251.5 199 255 M 131 255 C 152.9 252.86 176.29 254.27 199 255 M 199 255 C 203.43 251.2 201.15 260.64 205 261 M 199 255 C 207.1 254.59 206.36 257.23 205 261 M 205 261 C 206.47 271.37 208.71 272.9 205 289 M 205 261 C 205.72 271.77 206.2 281.96 205 289 M 205 289 C 205.89 294.8 202.84 293.75 199 295 M 205 289 C 206.44 292.82 201.59 298.78 199 295 M 199 295 C 172.74 291.06 149.34 293.66 131 295 M 199 295 C 174.75 297.22 153.85 294.07 131 295 M 131 295 C 123.78 294.34 127.75 292.3 125 289 M 131 295 C 130.82 295.81 128.51 293.29 125 289 M 125 289 C 124.02 277.5 125.23 265.67 125 261 M 125 289 C 125.9 281.22 124.42 270.9 125 261 M 125 261 C 121.53 255.29 129.77 258.66 131 255 M 125 261 C 123.14 257.33 129.96 254.52 131 255" fill="none" stroke="#82b366" stroke-linejoin="round" stroke-linecap="round" stroke-miterlimit="10" pointer-events="all"/></g></g><g data-cell-id="ZOJEWMY2XDao8kptbQvy-12"><g><rect x="125" y="345" width="80" height="40" rx="6" ry="6" fill="none" stroke="none" pointer-events="all"/><path d="M 131 345 C 148.69 343.49 169.96 341.75 199 345 C 204.36 349.47 209.95 344.91 205 351 C 202.38 362.53 200.55 366.28 205 379 C 205.98 380.58 207.66 380.75 199 385 C 176.04 378.45 148.69 380.03 131 385 C 128.15 382.55 127.8 381.97 125 379 C 127.19 376.55 125.72 363.86 125 351 C 121.23 341.67 121.45 347.11 131 345" fill="#fff2cc" stroke="none" pointer-events="all"/><path d="M 131 345 C 147.31 348.07 157.59 343.42 199 345 M 131 345 C 146.37 344.89 157.44 345.95 199 345 M 199 345 C 205.68 342.31 204.1 344.22 205 351 M 199 345 C 203.94 342.56 200.69 350.85 205 351 M 205 351 C 201.87 359.59 201.51 375.01 205 379 M 205 351 C 203.02 359.81 203.53 370.8 205 379 M 205 379 C 205.79 384.7 200.51 388.96 199 385 M 205 379 C 202.16 379.4 200.95 383.26 199 385 M 199 385 C 168.81 388.64 142.58 382.66 131 385 M 199 385 C 183.41 385.57 162.3 383.13 131 385 M 131 385 C 125.33 384.43 128.97 380.97 125 379 M 131 385 C 126.3 383.73 124.19 382.84 125 379 M 125 379 C 121.43 375.9 121.16 361.3 125 351 M 125 379 C 125.36 372.9 124.6 364.68 125 351 M 125 351 C 123.81 343.23 126.99 347.43 131 345 M 125 351 C 122.75 345.22 124 348.65 131 345" fill="none" stroke="#d6b656" stroke-linejoin="round" stroke-linecap="round" stroke-miterlimit="10" pointer-events="all"/></g></g><g data-cell-id="ZOJEWMY2XDao8kptbQvy-13"><g><path d="M 197.34 76.74 L 177.5 45" fill="none" stroke="none" pointer-events="stroke"/><path d="M 201.31 83.1 L 191.77 77.27 L 197.34 76.74 L 200.25 71.97 Z" fill="none" stroke="none" pointer-events="all"/><path d="M 197.34 76.74 C 193.68 70.98 191.62 60.24 177.5 45 M 197.34 76.74 C 191.08 69.13 185.89 59.84 177.5 45" fill="none" stroke="rgb(0, 0, 0)" stroke-width="2" stroke-linejoin="round" stroke-linecap="round" stroke-miterlimit="10" pointer-events="stroke"/><path d="M 192.06 76.94 C 192.06 76.94 192.06 76.94 192.06 76.94 M 192.06 76.94 C 192.06 76.94 192.06 76.94 192.06 76.94 M 198.75 81.43 C 199.13 80.07 200.67 79.54 200.72 79.17 M 198.75 81.43 C 198.98 80.9 200.04 80.34 200.72 79.17" fill="none" stroke="rgb(0, 0, 0)" stroke-linejoin="round" stroke-linecap="round" stroke-miterlimit="10" pointer-events="all"/><path d="M 201.31 83.1 C 199.47 82.29 198.64 78.73 191.77 77.27 M 201.31 83.1 C 198.47 82.11 196 80.22 191.77 77.27 M 191.77 77.27 C 191.9 76.46 194.82 76.56 197.34 76.74 M 191.77 77.27 C 193.35 77.52 195.54 77.16 197.34 76.74 M 197.34 76.74 C 197.84 74.71 199.63 74.26 200.25 71.97 M 197.34 76.74 C 198.85 74.39 199.43 73.18 200.25 71.97 M 200.25 71.97 C 200.99 75.83 202.53 80.55 201.31 83.1 M 200.25 71.97 C 200.53 75.86 200.73 79.89 201.31 83.1" fill="none" stroke="rgb(0, 0, 0)" stroke-width="2" stroke-linejoin="round" stroke-linecap="round" stroke-miterlimit="10" pointer-events="all"/></g></g><g data-cell-id="ZOJEWMY2XDao8kptbQvy-20"><g><path d="M 147.5 45 L 118.91 77.67" fill="none" stroke="none" pointer-events="stroke"/><path d="M 113.97 83.32 L 116.79 72.5 L 118.91 77.67 L 124.32 79.08 Z" fill="none" stroke="none" pointer-events="all"/><path d="M 147.5 45 C 141.95 50.35 136.19 55.96 118.91 77.67 M 147.5 45 C 138.44 55.22 130.61 64.49 118.91 77.67" fill="none" stroke="rgb(0, 0, 0)" stroke-width="2" stroke-linejoin="round" stroke-linecap="round" stroke-miterlimit="10" pointer-events="stroke"/><path d="M 116.81 72.48 C 116.81 72.48 116.81 72.48 116.81 72.48 M 116.81 72.48 C 116.81 72.48 116.81 72.48 116.81 72.48 M 120.22 80.74 C 120.82 79.66 121.44 78.95 122.19 78.48 M 120.22 80.74 C 120.63 80.09 121.85 79.31 122.19 78.48" fill="none" stroke="rgb(0, 0, 0)" stroke-linejoin="round" stroke-linecap="round" stroke-miterlimit="10" pointer-events="all"/><path d="M 113.97 83.32 C 114.54 80.18 115.18 77.36 116.79 72.5 M 113.97 83.32 C 113.98 80.58 115.1 77.26 116.79 72.5 M 116.79 72.5 C 117.5 74.19 117.92 75.65 118.91 77.67 M 116.79 72.5 C 117.15 74.14 117.42 75.28 118.91 77.67 M 118.91 77.67 C 119.23 77.48 121.07 77.82 124.32 79.08 M 118.91 77.67 C 120.35 77.57 121.96 78.02 124.32 79.08 M 124.32 79.08 C 119.48 79.13 115.85 83.81 113.97 83.32 M 124.32 79.08 C 119.65 80.41 116.11 81.67 113.97 83.32" fill="none" stroke="rgb(0, 0, 0)" stroke-width="2" stroke-linejoin="round" stroke-linecap="round" stroke-miterlimit="10" pointer-events="all"/></g></g><g data-cell-id="ZOJEWMY2XDao8kptbQvy-22"><g><path d="M 175 205 L 172.62 245.28" fill="none" stroke="none" pointer-events="stroke"/><path d="M 172.17 252.77 L 167.77 242.49 L 172.62 245.28 L 177.75 243.08 Z" fill="none" stroke="none" pointer-events="all"/><path d="M 175 205 C 178.56 215.55 173.46 223.51 172.62 245.28 M 175 205 C 173.24 216.09 171.52 222.2 172.62 245.28" fill="none" stroke="rgb(0, 0, 0)" stroke-width="2" stroke-linejoin="round" stroke-linecap="round" stroke-miterlimit="10" pointer-events="stroke"/><path d="M 167.69 242.58 C 167.69 242.58 167.69 242.58 167.69 242.58 M 167.69 242.58 C 167.69 242.58 167.69 242.58 167.69 242.58 M 171.1 250.85 C 172.9 248.78 175.71 248.34 177.66 243.3 M 171.1 250.85 C 172.15 249.65 174.41 246.63 177.66 243.3" fill="none" stroke="rgb(0, 0, 0)" stroke-linejoin="round" stroke-linecap="round" stroke-miterlimit="10" pointer-events="all"/><path d="M 172.17 252.77 C 173.12 252 169.64 249.74 167.77 242.49 M 172.17 252.77 C 171.11 251.15 169.42 246.81 167.77 242.49 M 167.77 242.49 C 168.52 243.04 170.32 243.96 172.62 245.28 M 167.77 242.49 C 168.9 243 169.54 243.12 172.62 245.28 M 172.62 245.28 C 175.11 245.13 177.49 243.73 177.75 243.08 M 172.62 245.28 C 173.62 244.37 174.55 243.76 177.75 243.08 M 177.75 243.08 C 176.18 243.86 176 248.78 172.17 252.77 M 177.75 243.08 C 176.86 245.48 173.89 249.83 172.17 252.77" fill="none" stroke="rgb(0, 0, 0)" stroke-width="2" stroke-linejoin="round" stroke-linecap="round" stroke-miterlimit="10" pointer-events="all"/></g></g><g data-cell-id="ZOJEWMY2XDao8kptbQvy-23"><g><path d="M 165 295 L 165 335.26" fill="none" stroke="none" pointer-events="stroke"/><path d="M 165 342.76 L 160 332.76 L 165 335.26 L 170 332.76 Z" fill="none" stroke="none" pointer-events="all"/><path d="M 165 295 C 166.9 303.43 167.93 311.79 165 335.26 M 165 295 C 166.31 305.45 164.29 320.9 165 335.26" fill="none" stroke="rgb(0, 0, 0)" stroke-width="2" stroke-linejoin="round" stroke-linecap="round" stroke-miterlimit="10" pointer-events="stroke"/><path d="M 160.07 332.68 C 160.07 332.68 160.07 332.68 160.07 332.68 M 160.07 332.68 C 160.07 332.68 160.07 332.68 160.07 332.68 M 164.14 340.19 C 163.86 337.46 168.53 337.93 170.04 333.4 M 164.14 340.19 C 164.81 337.63 166.93 337.43 170.04 333.4" fill="none" stroke="rgb(0, 0, 0)" stroke-linejoin="round" stroke-linecap="round" stroke-miterlimit="10" pointer-events="all"/><path d="M 165 342.76 C 164.51 340.82 164.07 338.83 160 332.76 M 165 342.76 C 164.75 338.54 162.08 337.14 160 332.76 M 160 332.76 C 160.71 334.59 162.1 334.78 165 335.26 M 160 332.76 C 161.62 333.66 163.67 335.15 165 335.26 M 165 335.26 C 166.92 333.47 167.92 332.89 170 332.76 M 165 335.26 C 165.78 334.25 167.47 333.97 170 332.76 M 170 332.76 C 166.47 335 166.3 338.95 165 342.76 M 170 332.76 C 168.17 334.68 168.04 338.47 165 342.76" fill="none" stroke="rgb(0, 0, 0)" stroke-width="2" stroke-linejoin="round" stroke-linecap="round" stroke-miterlimit="10" pointer-events="all"/></g></g><g data-cell-id="ZOJEWMY2XDao8kptbQvy-25"><g><path d="M 110 125 L 134.16 157.21" fill="none" stroke="none" pointer-events="stroke"/><path d="M 138.66 163.21 L 128.66 158.21 L 134.16 157.21 L 136.66 152.21 Z" fill="none" stroke="none" pointer-events="all"/><path d="M 110 125 C 111.08 127.41 120.35 134.92 134.16 157.21 M 110 125 C 114.5 131.61 120.9 139.63 134.16 157.21" fill="none" stroke="rgb(0, 0, 0)" stroke-width="2" stroke-linejoin="round" stroke-linecap="round" stroke-miterlimit="10" pointer-events="stroke"/><path d="M 128.61 158.26 C 128.61 158.26 128.61 158.26 128.61 158.26 M 128.61 158.26 C 128.61 158.26 128.61 158.26 128.61 158.26 M 135.96 162 C 136.85 159.8 139.45 157.36 141.21 155.96 M 135.96 162 C 138.72 159.5 140.21 157.79 141.21 155.96" fill="none" stroke="rgb(0, 0, 0)" stroke-linejoin="round" stroke-linecap="round" stroke-miterlimit="10" pointer-events="all"/><path d="M 138.66 163.21 C 134.84 160.07 135.21 159.55 128.66 158.21 M 138.66 163.21 C 135.51 161.5 133.15 160.17 128.66 158.21 M 128.66 158.21 C 131.73 156.81 132.37 156.66 134.16 157.21 M 128.66 158.21 C 130.42 157.41 132.28 157.33 134.16 157.21 M 134.16 157.21 C 134.23 156.19 136.41 154.6 136.66 152.21 M 134.16 157.21 C 134.74 155.44 136.03 153.99 136.66 152.21 M 136.66 152.21 C 136.29 153.46 139.58 156.03 138.66 163.21 M 136.66 152.21 C 138.18 155.24 138.15 160.05 138.66 163.21" fill="none" stroke="rgb(0, 0, 0)" stroke-width="2" stroke-linejoin="round" stroke-linecap="round" stroke-miterlimit="10" pointer-events="all"/></g></g><g data-cell-id="ZOJEWMY2XDao8kptbQvy-26"><g><path d="M 200 125 L 175.84 157.21" fill="none" stroke="none" pointer-events="stroke"/><path d="M 171.34 163.21 L 173.34 152.21 L 175.84 157.21 L 181.34 158.21 Z" fill="none" stroke="none" pointer-events="all"/><path d="M 200 125 C 197.01 133.41 186.03 141.31 175.84 157.21 M 200 125 C 193.04 134.51 184.64 147.29 175.84 157.21" fill="none" stroke="rgb(0, 0, 0)" stroke-width="2" stroke-linejoin="round" stroke-linecap="round" stroke-miterlimit="10" pointer-events="stroke"/><path d="M 173.4 152.14 C 173.4 152.14 173.4 152.14 173.4 152.14 M 173.4 152.14 C 173.4 152.14 173.4 152.14 173.4 152.14 M 176.16 161.16 C 177.36 159.57 178.01 158.74 178.78 158.15 M 176.16 161.16 C 177.41 160.06 178.2 158.72 178.78 158.15" fill="none" stroke="rgb(0, 0, 0)" stroke-linejoin="round" stroke-linecap="round" stroke-miterlimit="10" pointer-events="all"/><path d="M 171.34 163.21 C 173.24 162.07 170.28 160.55 173.34 152.21 M 171.34 163.21 C 172.75 159.28 173.08 157.01 173.34 152.21 M 173.34 152.21 C 175.17 154.44 174.18 155.89 175.84 157.21 M 173.34 152.21 C 173.69 153.33 174.96 155.06 175.84 157.21 M 175.84 157.21 C 176.23 158.33 177.85 156.85 181.34 158.21 M 175.84 157.21 C 178.37 157.58 180.33 157.56 181.34 158.21 M 181.34 158.21 C 179.71 158.79 174.84 162.65 171.34 163.21 M 181.34 158.21 C 177.42 158.63 176.05 160.9 171.34 163.21" fill="none" stroke="rgb(0, 0, 0)" stroke-width="2" stroke-linejoin="round" stroke-linecap="round" stroke-miterlimit="10" pointer-events="all"/></g></g><g data-cell-id="Qa6PBT78VURUzrQVQmo9-24"><g/><g data-cell-id="Qa6PBT78VURUzrQVQmo9-19"><g><path d="M 184.52 213.42 L 244.52 233.42" fill="none" stroke="none" pointer-events="stroke"/><path d="M 184.52 213.42 C 206.64 222.7 227.99 228.84 244.52 233.42 M 184.52 213.42 C 201.26 215.96 213.11 222.2 244.52 233.42" fill="none" stroke="rgb(0, 0, 0)" stroke-width="2" stroke-linejoin="round" stroke-linecap="round" stroke-miterlimit="10" pointer-events="stroke"/></g></g><g data-cell-id="Qa6PBT78VURUzrQVQmo9-20"><g><path d="M 184.52 233.42 L 244.52 213.42" fill="none" stroke="none" pointer-events="stroke"/><path d="M 184.52 233.42 C 204.46 221.14 230.03 220.63 244.52 213.42 M 184.52 233.42 C 196.54 228.6 212.75 222.81 244.52 213.42" fill="none" stroke="rgb(0, 0, 0)" stroke-width="2" stroke-linejoin="round" stroke-linecap="round" stroke-miterlimit="10" pointer-events="stroke"/></g></g><g data-cell-id="Qa6PBT78VURUzrQVQmo9-21"><g><path d="M 229.52 202.42 Q 239.52 202.42 239.52 212.42 Q 239.52 222.42 229.52 222.42 Z" fill="none" stroke="none" transform="rotate(-105,234.52,212.42)" pointer-events="all"/><path d="M 229.52 202.42 C 239.61 202.09 238.5 208.18 239.52 212.42 M 229.52 202.42 C 238.5 205.3 241.37 205.97 239.52 212.42 M 239.52 212.42 C 235.92 221.23 237.86 222.78 229.52 222.42 M 239.52 212.42 C 235.48 222.49 239.4 219.1 229.52 222.42 M 229.52 222.42 C 230.3 215.57 231.59 212.59 229.52 202.42 M 229.52 222.42 C 230.39 212.97 231.24 206.26 229.52 202.42" fill="none" stroke="rgb(0, 0, 0)" stroke-width="2" stroke-linejoin="round" stroke-linecap="round" stroke-miterlimit="10" transform="rotate(-105,234.52,212.42)" pointer-events="all"/></g></g><g data-cell-id="Qa6PBT78VURUzrQVQmo9-22"><g><path d="M 228.52 225.42 Q 238.52 225.42 238.52 235.42 Q 238.52 245.42 228.52 245.42 Z" fill="none" stroke="none" transform="rotate(100,233.52,235.42)" pointer-events="all"/><path d="M 228.52 225.42 C 238.61 225.77 242.31 228.89 238.52 235.42 M 228.52 225.42 C 235.11 222.97 238.44 232.28 238.52 235.42 M 238.52 235.42 C 235.46 238.64 233.65 246.63 228.52 245.42 M 238.52 235.42 C 238.03 242.88 230.81 247.92 228.52 245.42 M 228.52 245.42 C 226.35 241.37 229.68 238.54 228.52 225.42 M 228.52 245.42 C 229.15 241.99 228.98 234.89 228.52 225.42" fill="none" stroke="rgb(0, 0, 0)" stroke-width="2" stroke-linejoin="round" stroke-linecap="round" stroke-miterlimit="10" transform="rotate(100,233.52,235.42)" pointer-events="all"/></g></g></g><g data-cell-id="Qa6PBT78VURUzrQVQmo9-25"><g><path d="M 135 205 L 78.4 249.02" fill="none" stroke="none" pointer-events="stroke"/><path d="M 72.48 253.63 L 77.3 243.54 L 78.4 249.02 L 83.44 251.43 Z" fill="none" stroke="none" pointer-events="all"/><path d="M 135 205 C 114.99 224.32 91.83 242.48 78.4 249.02 M 135 205 C 110.87 225.24 90.66 241.57 78.4 249.02" fill="none" stroke="#6c8ebf" stroke-width="2" stroke-linejoin="round" stroke-linecap="round" stroke-miterlimit="10" pointer-events="stroke"/><path d="M 77.32 243.52 C 77.32 243.52 77.32 243.52 77.32 243.52 M 77.32 243.52 C 77.32 243.52 77.32 243.52 77.32 243.52 M 80.73 251.79 C 80.88 251.5 81.29 251.23 81.39 251.03 M 80.73 251.79 C 80.99 251.62 81.07 251.26 81.39 251.03" fill="none" stroke="#6c8ebf" stroke-linejoin="round" stroke-linecap="round" stroke-miterlimit="10" pointer-events="all"/><path d="M 72.48 253.63 C 74.94 250.65 76.05 247.42 77.3 243.54 M 72.48 253.63 C 73.55 250.63 76.57 246.14 77.3 243.54 M 77.3 243.54 C 77.93 245.35 77.2 246.43 78.4 249.02 M 77.3 243.54 C 77.51 245.42 78.23 246.12 78.4 249.02 M 78.4 249.02 C 78.33 250.56 80.63 249.38 83.44 251.43 M 78.4 249.02 C 80.36 249.49 82.64 250.43 83.44 251.43 M 83.44 251.43 C 82.98 250.65 77.27 251.74 72.48 253.63 M 83.44 251.43 C 80.3 253.02 78.41 252.5 72.48 253.63" fill="none" stroke="#6c8ebf" stroke-width="2" stroke-linejoin="round" stroke-linecap="round" stroke-miterlimit="10" pointer-events="all"/></g></g><g data-cell-id="Qa6PBT78VURUzrQVQmo9-26"><g><rect x="5" y="255" width="80" height="40" rx="6" ry="6" fill="none" stroke="none" pointer-events="all"/><path d="M 11 255 C 37.26 253.52 54.19 252.51 79 255 C 79.3 252.74 84.85 251.85 85 261 C 81.15 271.31 81.92 283.49 85 289 C 88.82 294.86 85.14 291.16 79 295 C 55.08 300.23 31.63 294.18 11 295 C 3.99 297.94 5.58 297.94 5 289 C 8.29 275.3 3.03 268.34 5 261 C 7.8 255.06 6.4 253.73 11 255" fill="#dae8fc" stroke="none" pointer-events="all"/><path d="M 11 255 C 36.21 254.98 66.74 256.57 79 255 M 11 255 C 29.79 253.92 48.94 255.41 79 255 M 79 255 C 84.82 253.41 82.37 257.17 85 261 M 79 255 C 79.23 257.36 84.81 254.15 85 261 M 85 261 C 86.9 271.67 88.71 278.35 85 289 M 85 261 C 84.42 269.02 86.9 272.34 85 289 M 85 289 C 84.03 289.86 80.13 291.62 79 295 M 85 289 C 89.35 293.45 85.85 292.12 79 295 M 79 295 C 63.16 296.74 36.87 297.15 11 295 M 79 295 C 63.92 294.73 50.52 296.94 11 295 M 11 295 C 6.42 293.5 3.36 295.69 5 289 M 11 295 C 2.52 293.17 4.34 291.92 5 289 M 5 289 C 4.68 286.58 4.49 277.06 5 261 M 5 289 C 2.75 278.49 3.79 271.15 5 261 M 5 261 C 6.76 259.31 9.66 253.9 11 255 M 5 261 C 4.28 253.43 4.35 252.77 11 255" fill="none" stroke="#6c8ebf" stroke-linejoin="round" stroke-linecap="round" stroke-miterlimit="10" pointer-events="all"/></g></g><g data-cell-id="Qa6PBT78VURUzrQVQmo9-27"><g><path d="M 71.67 295 L 130.54 339.16" fill="none" stroke="none" pointer-events="stroke"/><path d="M 136.54 343.66 L 125.54 341.66 L 130.54 339.16 L 131.54 333.66 Z" fill="none" stroke="none" pointer-events="all"/><path d="M 71.67 295 C 91.91 308.47 116.56 327.48 130.54 339.16 M 71.67 295 C 90.6 308.42 110.72 323.2 130.54 339.16" fill="none" stroke="#6c8ebf" stroke-width="2" stroke-linejoin="round" stroke-linecap="round" stroke-miterlimit="10" pointer-events="stroke"/><path d="M 131.84 333.32 C 131.84 333.32 131.84 333.32 131.84 333.32 M 131.84 333.32 C 131.84 333.32 131.84 333.32 131.84 333.32 M 131.32 346.11 C 132.1 345.31 132.59 344.83 135.25 341.58 M 131.32 346.11 C 132.51 345.66 133.09 344.46 135.25 341.58" fill="none" stroke="#6c8ebf" stroke-linejoin="round" stroke-linecap="round" stroke-miterlimit="10" pointer-events="all"/><path d="M 136.54 343.66 C 130.42 341.74 127.28 342.09 125.54 341.66 M 136.54 343.66 C 132.39 342.32 128.86 341.6 125.54 341.66 M 125.54 341.66 C 127.24 340.93 129.03 340.1 130.54 339.16 M 125.54 341.66 C 126.86 341.27 128.24 340.87 130.54 339.16 M 130.54 339.16 C 131.4 337.39 130.7 335.53 131.54 333.66 M 130.54 339.16 C 131.2 337.34 130.73 335.8 131.54 333.66 M 131.54 333.66 C 131.85 335.42 135.74 338.63 136.54 343.66 M 131.54 333.66 C 132.41 338.1 135.78 340.4 136.54 343.66" fill="none" stroke="#6c8ebf" stroke-width="2" stroke-linejoin="round" stroke-linecap="round" stroke-miterlimit="10" pointer-events="all"/></g></g><g data-cell-id="Qa6PBT78VURUzrQVQmo9-28"><g><path d="M 15 225 L 255 225" fill="none" stroke="none" pointer-events="stroke"/><path d="M 15 225 C 109.55 227.26 201.75 222.59 255 225 M 15 225 C 66.38 221.27 115.99 223.24 255 225" fill="none" stroke="rgb(0, 0, 0)" stroke-linejoin="round" stroke-linecap="round" stroke-miterlimit="10" stroke-dasharray="12 12" pointer-events="stroke"/></g></g></g></g></g></svg>