<svg xmlns="http://www.w3.org/2000/svg" xmlns:xlink="http://www.w3.org/1999/xlink" contentStyleType="text/css" height="410px" preserveAspectRatio="none" style="width:418px;height:410px;background:#FFFFFF;" version="1.1" viewBox="0 0 418 410" width="418px" zoomAndPan="magnify"><defs><filter height="300%" id="f18gxv1c9bg0qi" width="300%" x="-1" y="-1"><feGaussianBlur result="blurOut" stdDeviation="4.0"/><feColorMatrix in="blurOut" result="blurOut2" type="matrix" values="0 0 0 0 0 0 0 0 0 0 0 0 0 0 0 0 0 0 .4 0"/><feOffset dx="8.0" dy="8.0" in="blurOut2" result="blurOut3"/><feBlend in="SourceGraphic" in2="blurOut3" mode="normal"/></filter></defs><g><ellipse cx="203.1606" cy="40" fill="#000000" filter="url(#f18gxv1c9bg0qi)" rx="20" ry="20" style="stroke:#000000;stroke-width:2.0;"/><rect fill="#000000" filter="url(#f18gxv1c9bg0qi)" height="12" rx="5" ry="5" style="stroke:#000000;stroke-width:2.0;" width="362.3212" x="22" y="100"/><rect fill="#FEFECE" filter="url(#f18gxv1c9bg0qi)" height="72.6882" rx="25" ry="25" style="stroke:#A80036;stroke-width:3.0;" width="129.1606" x="46" y="152"/><text fill="#000000" font-family="sans-serif" font-size="24" lengthAdjust="spacing" textLength="89.1606" x="66" y="197.6562">action 1</text><rect fill="#FEFECE" filter="url(#f18gxv1c9bg0qi)" height="72.6882" rx="25" ry="25" style="stroke:#A80036;stroke-width:3.0;" width="129.1606" x="231.1606" y="152"/><text fill="#000000" font-family="sans-serif" font-size="24" lengthAdjust="spacing" textLength="89.1606" x="251.1606" y="197.6562">action 2</text><polygon fill="#FEFECE" filter="url(#f18gxv1c9bg0qi)" points="203.1606,244.6882,227.1606,268.6882,203.1606,292.6882,179.1606,268.6882,203.1606,244.6882" style="stroke:#A80036;stroke-width:3.0;"/><ellipse cx="203.1606" cy="354.6882" fill="none" filter="url(#f18gxv1c9bg0qi)" rx="22" ry="22" style="stroke:#000000;stroke-width:2.0;"/><ellipse cx="203.1606" cy="354.6882" fill="#000000" rx="12" ry="12" style="stroke:#000000;stroke-width:2.0;"/><line style="stroke:#A80036;stroke-width:3.0;" x1="110.5803" x2="110.5803" y1="112" y2="152"/><polygon fill="#A80036" points="102.5803,132,110.5803,152,118.5803,132,110.5803,140" style="stroke:#A80036;stroke-width:2.0;"/><line style="stroke:#A80036;stroke-width:3.0;" x1="295.7409" x2="295.7409" y1="112" y2="152"/><polygon fill="#A80036" points="287.7409,132,295.7409,152,303.7409,132,295.7409,140" style="stroke:#A80036;stroke-width:2.0;"/><line style="stroke:#A80036;stroke-width:3.0;" x1="110.5803" x2="110.5803" y1="224.6882" y2="268.6882"/><line style="stroke:#A80036;stroke-width:3.0;" x1="110.5803" x2="179.1606" y1="268.6882" y2="268.6882"/><polygon fill="#A80036" points="159.1606,260.6882,179.1606,268.6882,159.1606,276.6882,167.1606,268.6882" style="stroke:#A80036;stroke-width:2.0;"/><line style="stroke:#A80036;stroke-width:3.0;" x1="295.7409" x2="295.7409" y1="224.6882" y2="268.6882"/><line style="stroke:#A80036;stroke-width:3.0;" x1="295.7409" x2="227.1606" y1="268.6882" y2="268.6882"/><polygon fill="#A80036" points="247.1606,260.6882,227.1606,268.6882,247.1606,276.6882,239.1606,268.6882" style="stroke:#A80036;stroke-width:2.0;"/><line style="stroke:#A80036;stroke-width:3.0;" x1="203.1606" x2="203.1606" y1="60" y2="100"/><polygon fill="#A80036" points="195.1606,80,203.1606,100,211.1606,80,203.1606,88" style="stroke:#A80036;stroke-width:2.0;"/><line style="stroke:#A80036;stroke-width:3.0;" x1="203.1606" x2="203.1606" y1="292.6882" y2="332.6882"/><polygon fill="#A80036" points="195.1606,312.6882,203.1606,332.6882,211.1606,312.6882,203.1606,320.6882" style="stroke:#A80036;stroke-width:2.0;"/><!--SRC=[JSl13O0m20NGErFy5UpHJaCgDaqj663_63rvVScBEHHk8HIDBq4XYcHFEiqd0Jkt7AROwYVWpaD_NYg97bZYNTvgzmC0]--></g></svg>