<svg xmlns="http://www.w3.org/2000/svg" xmlns:xlink="http://www.w3.org/1999/xlink" contentStyleType="text/css" height="608px" preserveAspectRatio="none" style="width:284px;height:608px;background:#FFFFFF;" version="1.1" viewBox="0 0 284 608" width="284px" zoomAndPan="magnify"><defs><filter height="300%" id="f90dq9svs1gk4" width="300%" x="-1" y="-1"><feGaussianBlur result="blurOut" stdDeviation="4.0"/><feColorMatrix in="blurOut" result="blurOut2" type="matrix" values="0 0 0 0 0 0 0 0 0 0 0 0 0 0 0 0 0 0 .4 0"/><feOffset dx="8.0" dy="8.0" in="blurOut2" result="blurOut3"/><feBlend in="SourceGraphic" in2="blurOut3" mode="normal"/></filter></defs><g><ellipse cx="143.6282" cy="40" fill="#000000" filter="url(#f90dq9svs1gk4)" rx="20" ry="20" style="stroke:#000000;stroke-width:2.0;"/><rect fill="#FEFECE" filter="url(#f90dq9svs1gk4)" height="72.6882" rx="25" ry="25" style="stroke:#A80036;stroke-width:3.0;" width="89.5844" x="98.836" y="100"/><text fill="#000000" font-family="sans-serif" font-size="24" lengthAdjust="spacing" textLength="49.5844" x="118.836" y="145.6562">r = a</text><rect fill="#FEFECE" filter="url(#f90dq9svs1gk4)" height="72.6882" rx="25" ry="25" style="stroke:#A80036;stroke-width:3.0;" width="99.2564" x="94" y="338.652"/><text fill="#000000" font-family="sans-serif" font-size="24" lengthAdjust="spacing" textLength="59.2564" x="114" y="384.3082">r *= r</text><rect fill="#FEFECE" filter="url(#f90dq9svs1gk4)" height="72.6882" rx="25" ry="25" style="stroke:#A80036;stroke-width:3.0;" width="93.6164" x="96.82" y="467.3583"/><text fill="#000000" font-family="sans-serif" font-size="24" lengthAdjust="spacing" textLength="53.6164" x="116.82" y="513.0145">i+= 1</text><polygon fill="#FEFECE" filter="url(#f90dq9svs1gk4)" points="102.7195,212.6882,184.5369,212.6882,208.5369,236.6882,184.5369,260.6882,102.7195,260.6882,78.7195,236.6882,102.7195,212.6882" style="stroke:#A80036;stroke-width:3.0;"/><text fill="#000000" font-family="sans-serif" font-size="22" lengthAdjust="spacing" textLength="34.1657" x="151.6282" y="284.2061">yes</text><text fill="#000000" font-family="sans-serif" font-size="22" lengthAdjust="spacing" textLength="81.8174" x="102.7195" y="245.2242">i  &lt; (b-1)</text><text fill="#000000" font-family="sans-serif" font-size="22" lengthAdjust="spacing" textLength="26.9058" x="51.8137" y="230.2423">no</text><ellipse cx="48" cy="330.6882" fill="none" filter="url(#f90dq9svs1gk4)" rx="22" ry="22" style="stroke:#000000;stroke-width:2.0;"/><ellipse cx="48" cy="330.6882" fill="#000000" rx="12" ry="12" style="stroke:#000000;stroke-width:2.0;"/><line style="stroke:#A80036;stroke-width:3.0;" x1="143.6282" x2="143.6282" y1="60" y2="100"/><polygon fill="#A80036" points="135.6282,80,143.6282,100,151.6282,80,143.6282,88" style="stroke:#A80036;stroke-width:2.0;"/><line style="stroke:#A80036;stroke-width:3.0;" x1="143.6282" x2="143.6282" y1="411.3402" y2="467.3583"/><polygon fill="#A80036" points="135.6282,447.3583,143.6282,467.3583,151.6282,447.3583,143.6282,455.3583" style="stroke:#A80036;stroke-width:2.0;"/><line style="stroke:#A80036;stroke-width:3.0;" x1="143.6282" x2="143.6282" y1="260.6882" y2="338.652"/><polygon fill="#A80036" points="135.6282,318.652,143.6282,338.652,151.6282,318.652,143.6282,326.652" style="stroke:#A80036;stroke-width:2.0;"/><line style="stroke:#A80036;stroke-width:3.0;" x1="143.6282" x2="143.6282" y1="540.0466" y2="560.0466"/><line style="stroke:#A80036;stroke-width:3.0;" x1="143.6282" x2="232.5369" y1="560.0466" y2="560.0466"/><polygon fill="#A80036" points="224.5369,427.3583,232.5369,407.3583,240.5369,427.3583,232.5369,419.3583" style="stroke:#A80036;stroke-width:3.0;"/><line style="stroke:#A80036;stroke-width:3.0;" x1="232.5369" x2="232.5369" y1="236.6882" y2="560.0466"/><line style="stroke:#A80036;stroke-width:3.0;" x1="232.5369" x2="208.5369" y1="236.6882" y2="236.6882"/><polygon fill="#A80036" points="228.5369,228.6882,208.5369,236.6882,228.5369,244.6882,220.5369,236.6882" style="stroke:#A80036;stroke-width:2.0;"/><line style="stroke:#A80036;stroke-width:3.0;" x1="78.7195" x2="48" y1="236.6882" y2="236.6882"/><line style="stroke:#A80036;stroke-width:3.0;" x1="48" x2="48" y1="236.6882" y2="308.6882"/><polygon fill="#A80036" points="40,288.6882,48,308.6882,56,288.6882,48,296.6882" style="stroke:#A80036;stroke-width:2.0;"/><line style="stroke:#A80036;stroke-width:3.0;" x1="143.6282" x2="143.6282" y1="172.6882" y2="212.6882"/><polygon fill="#A80036" points="135.6282,192.6882,143.6282,212.6882,151.6282,192.6882,143.6282,200.6882" style="stroke:#A80036;stroke-width:2.0;"/><!--SRC=[BSn12e0W44RX_PpYNpf5Yrfg7iPAQ2Wq726wVGPj7nzF3qaeMIFf6iw8YRI6KiaMU0H7zowj6W5cc6KOcI4AyqJbptGUnP6LtcDq5DFs-vIPsYbVBm00]--></g></svg>