<svg xmlns="http://www.w3.org/2000/svg" xmlns:xlink="http://www.w3.org/1999/xlink" contentStyleType="text/css" height="394px" preserveAspectRatio="none" style="width:418px;height:394px;background:#FFFFFF;" version="1.1" viewBox="0 0 418 394" width="418px" zoomAndPan="magnify"><defs><filter height="300%" id="f18t3ib09o7vyq" width="300%" x="-1" y="-1"><feGaussianBlur result="blurOut" stdDeviation="4.0"/><feColorMatrix in="blurOut" result="blurOut2" type="matrix" values="0 0 0 0 0 0 0 0 0 0 0 0 0 0 0 0 0 0 .4 0"/><feOffset dx="8.0" dy="8.0" in="blurOut2" result="blurOut3"/><feBlend in="SourceGraphic" in2="blurOut3" mode="normal"/></filter></defs><g><ellipse cx="203.1606" cy="40" fill="#000000" filter="url(#f18t3ib09o7vyq)" rx="20" ry="20" style="stroke:#000000;stroke-width:2.0;"/><rect fill="#000000" filter="url(#f18t3ib09o7vyq)" height="12" rx="5" ry="5" style="stroke:#000000;stroke-width:2.0;" width="362.3212" x="22" y="100"/><rect fill="#FEFECE" filter="url(#f18t3ib09o7vyq)" height="72.6882" rx="25" ry="25" style="stroke:#A80036;stroke-width:3.0;" width="129.1606" x="46" y="152"/><text fill="#000000" font-family="sans-serif" font-size="24" lengthAdjust="spacing" textLength="89.1606" x="66" y="197.6562">action 1</text><rect fill="#FEFECE" filter="url(#f18t3ib09o7vyq)" height="72.6882" rx="25" ry="25" style="stroke:#A80036;stroke-width:3.0;" width="129.1606" x="231.1606" y="152"/><text fill="#000000" font-family="sans-serif" font-size="24" lengthAdjust="spacing" textLength="89.1606" x="251.1606" y="197.6562">action 2</text><rect fill="#000000" filter="url(#f18t3ib09o7vyq)" height="12" rx="5" ry="5" style="stroke:#000000;stroke-width:2.0;" width="362.3212" x="22" y="264.6882"/><ellipse cx="203.1606" cy="338.6882" fill="none" filter="url(#f18t3ib09o7vyq)" rx="22" ry="22" style="stroke:#000000;stroke-width:2.0;"/><ellipse cx="203.1606" cy="338.6882" fill="#000000" rx="12" ry="12" style="stroke:#000000;stroke-width:2.0;"/><line style="stroke:#A80036;stroke-width:3.0;" x1="110.5803" x2="110.5803" y1="112" y2="152"/><polygon fill="#A80036" points="102.5803,132,110.5803,152,118.5803,132,110.5803,140" style="stroke:#A80036;stroke-width:2.0;"/><line style="stroke:#A80036;stroke-width:3.0;" x1="295.7409" x2="295.7409" y1="112" y2="152"/><polygon fill="#A80036" points="287.7409,132,295.7409,152,303.7409,132,295.7409,140" style="stroke:#A80036;stroke-width:2.0;"/><line style="stroke:#A80036;stroke-width:3.0;" x1="110.5803" x2="110.5803" y1="224.6882" y2="264.6882"/><polygon fill="#A80036" points="102.5803,244.6882,110.5803,264.6882,118.5803,244.6882,110.5803,252.6882" style="stroke:#A80036;stroke-width:2.0;"/><line style="stroke:#A80036;stroke-width:3.0;" x1="295.7409" x2="295.7409" y1="224.6882" y2="264.6882"/><polygon fill="#A80036" points="287.7409,244.6882,295.7409,264.6882,303.7409,244.6882,295.7409,252.6882" style="stroke:#A80036;stroke-width:2.0;"/><line style="stroke:#A80036;stroke-width:3.0;" x1="203.1606" x2="203.1606" y1="60" y2="100"/><polygon fill="#A80036" points="195.1606,80,203.1606,100,211.1606,80,203.1606,88" style="stroke:#A80036;stroke-width:2.0;"/><line style="stroke:#A80036;stroke-width:3.0;" x1="203.1606" x2="203.1606" y1="276.6882" y2="316.6882"/><polygon fill="#A80036" points="195.1606,296.6882,203.1606,316.6882,211.1606,296.6882,203.1606,304.6882" style="stroke:#A80036;stroke-width:2.0;"/><!--SRC=[AyxEp5CeoYzEvIfEJin9LJ3YuYekIImguKhBByhcKb2mIamkoSpFKp2q1eie9AOdPkOXYHjPSwNcfIY0LGDrvXS00000]--></g></svg>