<svg xmlns="http://www.w3.org/2000/svg" xmlns:xlink="http://www.w3.org/1999/xlink" contentStyleType="text/css" height="397px" preserveAspectRatio="none" style="width:545px;height:397px;background:#FFFFFF;" version="1.1" viewBox="0 0 545 397" width="545px" zoomAndPan="magnify"><defs><filter height="300%" id="f13rh47hm90w0j" width="300%" x="-1" y="-1"><feGaussianBlur result="blurOut" stdDeviation="2.0"/><feColorMatrix in="blurOut" result="blurOut2" type="matrix" values="0 0 0 0 0 0 0 0 0 0 0 0 0 0 0 0 0 0 .4 0"/><feOffset dx="4.0" dy="4.0" in="blurOut2" result="blurOut3"/><feBlend in="SourceGraphic" in2="blurOut3" mode="normal"/></filter></defs><g><!--cluster roles--><g id="cluster_roles"><polygon fill="none" filter="url(#f13rh47hm90w0j)" points="75.63,267.13,114.0959,267.13,121.0959,292.1979,321.63,292.1979,321.63,388.2,75.63,388.2,75.63,267.13" style="stroke:#000000;stroke-width:1.5;"/><line style="stroke:#000000;stroke-width:1.5;" x1="75.63" x2="121.0959" y1="292.1979" y2="292.1979"/><text fill="#000000" font-family="sans-serif" font-size="14" lengthAdjust="spacing" textLength="32.4659" x="79.63" y="284.0959">roles</text></g><!--class Driver--><g id="elem_Driver"><rect codeLine="17" fill="#FEFECE" filter="url(#f13rh47hm90w0j)" height="67.0679" id="Driver" style="stroke:#A80036;stroke-width:1.0;" width="84.8557" x="91.21" y="305.13"/><ellipse cx="113.067" cy="321.13" fill="#B4A7E5" rx="11" ry="11" style="stroke:#A80036;stroke-width:1.0;"/><path d="M109.0983,327.63 L109.0983,325.9269 L111.4577,325.6613 L111.4577,317.4581 L109.0983,317.1925 L109.0983,315.4894 L116.2389,315.4894 L116.2389,317.1925 L113.817,317.4581 L113.817,325.6613 L116.2389,325.9269 L116.2389,327.63 L109.0983,327.63 Z " fill="#000000"/><text fill="#000000" font-family="sans-serif" font-size="14" font-style="italic" lengthAdjust="spacing" textLength="37.6179" x="128.5908" y="326.562">Driver</text><line style="stroke:#A80036;stroke-width:1.0;" x1="92.21" x2="175.0657" y1="337.13" y2="337.13"/><line style="stroke:#A80036;stroke-width:1.0;" x1="92.21" x2="175.0657" y1="345.13" y2="345.13"/><text fill="#000000" font-family="sans-serif" font-size="14" lengthAdjust="spacing" textLength="72.8557" x="97.21" y="364.0959">void drive()</text></g><!--class CarOwner--><g id="elem_CarOwner"><rect codeLine="20" fill="#FEFECE" filter="url(#f13rh47hm90w0j)" height="67.0679" id="CarOwner" style="stroke:#A80036;stroke-width:1.0;" width="94.6218" x="211.32" y="305.13"/><ellipse cx="226.32" cy="321.13" fill="#B4A7E5" rx="11" ry="11" style="stroke:#A80036;stroke-width:1.0;"/><path d="M222.3513,327.63 L222.3513,325.9269 L224.7106,325.6613 L224.7106,317.4581 L222.3513,317.1925 L222.3513,315.4894 L229.4919,315.4894 L229.4919,317.1925 L227.07,317.4581 L227.07,325.6613 L229.4919,325.9269 L229.4919,327.63 L222.3513,327.63 Z " fill="#000000"/><text fill="#000000" font-family="sans-serif" font-size="14" font-style="italic" lengthAdjust="spacing" textLength="62.6218" x="240.32" y="326.562">CarOwner</text><line style="stroke:#A80036;stroke-width:1.0;" x1="212.32" x2="304.9418" y1="337.13" y2="337.13"/><text fill="#000000" font-family="sans-serif" font-size="14" lengthAdjust="spacing" textLength="53.4098" x="217.32" y="356.0959">List cars</text><line style="stroke:#A80036;stroke-width:1.0;" x1="212.32" x2="304.9418" y1="364.1979" y2="364.1979"/></g><!--class Car--><g id="elem_Car"><rect codeLine="3" fill="#FEFECE" filter="url(#f13rh47hm90w0j)" height="67.0679" id="Car" style="stroke:#A80036;stroke-width:1.0;" width="95.7337" x="262.77" y="135.06"/><ellipse cx="296.3324" cy="151.06" fill="#ADD1B2" rx="11" ry="11" style="stroke:#A80036;stroke-width:1.0;"/><path d="M295.8011,157.9819 Q294.0511,157.9819 292.9105,157.2475 Q291.7855,156.4975 291.223,155.1538 Q290.6761,153.7944 290.6761,151.9975 Q290.6761,149.9663 291.3324,148.5131 Q291.9886,147.06 293.2699,146.2788 Q294.5511,145.4975 296.4261,145.4975 Q297.3168,145.4975 297.9886,145.685 Q298.6605,145.8569 299.348,146.2006 L298.5355,148.2163 Q297.9105,147.9038 297.3636,147.7788 Q296.8324,147.6538 296.348,147.6538 Q295.1761,147.6538 294.473,148.185 Q293.7699,148.7163 293.473,149.6694 Q293.1761,150.6225 293.1761,151.8881 Q293.1761,153.9038 293.8949,154.8725 Q294.6136,155.8256 296.2074,155.8256 Q296.8011,155.8256 297.4261,155.6694 Q298.0511,155.5131 298.8793,155.1381 L298.8793,157.3569 Q298.1449,157.6694 297.348,157.8256 Q296.5668,157.9819 295.8011,157.9819 Z " fill="#000000"/><text fill="#000000" font-family="sans-serif" font-size="14" lengthAdjust="spacing" textLength="22.4839" x="314.4574" y="156.492">Car</text><line style="stroke:#A80036;stroke-width:1.0;" x1="263.77" x2="357.5037" y1="167.06" y2="167.06"/><text fill="#000000" font-family="sans-serif" font-size="14" lengthAdjust="spacing" textLength="83.7337" x="268.77" y="186.0259">string model</text><line style="stroke:#A80036;stroke-width:1.0;" x1="263.77" x2="357.5037" y1="194.1279" y2="194.1279"/></g><!--class Person--><g id="elem_Person"><rect codeLine="8" fill="#FEFECE" filter="url(#f13rh47hm90w0j)" height="48" id="Person" style="stroke:#A80036;stroke-width:1.0;" width="77.9758" x="135.65" y="144.6"/><ellipse cx="150.65" cy="160.6" fill="#ADD1B2" rx="11" ry="11" style="stroke:#A80036;stroke-width:1.0;"/><path d="M150.1188,167.5219 Q148.3688,167.5219 147.2281,166.7875 Q146.1031,166.0375 145.5406,164.6937 Q144.9938,163.3344 144.9938,161.5375 Q144.9938,159.5062 145.65,158.0531 Q146.3063,156.6 147.5875,155.8187 Q148.8688,155.0375 150.7438,155.0375 Q151.6344,155.0375 152.3063,155.225 Q152.9781,155.3969 153.6656,155.7406 L152.8531,157.7562 Q152.2281,157.4437 151.6813,157.3187 Q151.15,157.1937 150.6656,157.1937 Q149.4938,157.1937 148.7906,157.725 Q148.0875,158.2562 147.7906,159.2094 Q147.4938,160.1625 147.4938,161.4281 Q147.4938,163.4437 148.2125,164.4125 Q148.9313,165.3656 150.525,165.3656 Q151.1188,165.3656 151.7438,165.2094 Q152.3688,165.0531 153.1969,164.6781 L153.1969,166.8969 Q152.4625,167.2094 151.6656,167.3656 Q150.8844,167.5219 150.1188,167.5219 Z " fill="#000000"/><text fill="#000000" font-family="sans-serif" font-size="14" lengthAdjust="spacing" textLength="45.9758" x="164.65" y="166.032">Person</text><line style="stroke:#A80036;stroke-width:1.0;" x1="136.65" x2="212.6258" y1="176.6" y2="176.6"/><line style="stroke:#A80036;stroke-width:1.0;" x1="136.65" x2="212.6258" y1="184.6" y2="184.6"/></g><!--class Wheel--><g id="elem_Wheel"><rect codeLine="12" fill="#FEFECE" filter="url(#f13rh47hm90w0j)" height="67.0679" id="Wheel" style="stroke:#A80036;stroke-width:1.0;" width="107.6897" x="423.79" y="135.06"/><ellipse cx="454.3662" cy="151.06" fill="#ADD1B2" rx="11" ry="11" style="stroke:#A80036;stroke-width:1.0;"/><path d="M453.835,157.9819 Q452.085,157.9819 450.9443,157.2475 Q449.8193,156.4975 449.2568,155.1538 Q448.71,153.7944 448.71,151.9975 Q448.71,149.9663 449.3662,148.5131 Q450.0225,147.06 451.3037,146.2788 Q452.585,145.4975 454.46,145.4975 Q455.3506,145.4975 456.0225,145.685 Q456.6943,145.8569 457.3818,146.2006 L456.5693,148.2163 Q455.9443,147.9038 455.3975,147.7788 Q454.8662,147.6538 454.3818,147.6538 Q453.21,147.6538 452.5068,148.185 Q451.8037,148.7163 451.5068,149.6694 Q451.21,150.6225 451.21,151.8881 Q451.21,153.9038 451.9287,154.8725 Q452.6475,155.8256 454.2412,155.8256 Q454.835,155.8256 455.46,155.6694 Q456.085,155.5131 456.9131,155.1381 L456.9131,157.3569 Q456.1787,157.6694 455.3818,157.8256 Q454.6006,157.9819 453.835,157.9819 Z " fill="#000000"/><text fill="#000000" font-family="sans-serif" font-size="14" lengthAdjust="spacing" textLength="41.0758" x="471.8276" y="156.492">Wheel</text><line style="stroke:#A80036;stroke-width:1.0;" x1="424.79" x2="530.4797" y1="167.06" y2="167.06"/><text fill="#000000" font-family="sans-serif" font-size="14" lengthAdjust="spacing" textLength="95.6897" x="429.79" y="186.0259">Float diameter</text><line style="stroke:#A80036;stroke-width:1.0;" x1="424.79" x2="530.4797" y1="194.1279" y2="194.1279"/></g><!--class Human--><g id="elem_Human"><rect codeLine="25" fill="#FEFECE" filter="url(#f13rh47hm90w0j)" height="67.0679" id="Human" style="stroke:#A80036;stroke-width:1.0;" width="92.5277" x="128.37" y="7"/><ellipse cx="149.9372" cy="23" fill="#A9DCDF" rx="11" ry="11" style="stroke:#A80036;stroke-width:1.0;"/><path d="M145.1091,28.75 L148.4529,16.5625 L151.5935,16.5625 L154.9685,28.75 L152.4997,28.75 L151.7654,25.7344 L148.2497,25.7344 L147.4997,28.75 L145.1091,28.75 Z M149.5154,20.7031 L148.7654,23.7031 L151.281,23.7031 L150.5622,20.7031 Q150.4216,20.125 150.2966,19.5781 Q150.1716,19.0156 150.031,18.4375 Q149.9216,19.0156 149.781,19.5781 Q149.6404,20.125 149.5154,20.7031 Z " fill="#000000"/><text fill="#000000" font-family="sans-serif" font-size="14" font-style="italic" lengthAdjust="spacing" textLength="45.9338" x="165.3966" y="28.432">Human</text><line style="stroke:#A80036;stroke-width:1.0;" x1="129.37" x2="219.8977" y1="39" y2="39"/><text fill="#000000" font-family="sans-serif" font-size="14" lengthAdjust="spacing" textLength="80.5277" x="134.37" y="57.9659">String name</text><line style="stroke:#A80036;stroke-width:1.0;" x1="129.37" x2="219.8977" y1="66.0679" y2="66.0679"/></g><!--class License--><g id="elem_License"><rect codeLine="29" fill="#FEFECE" filter="url(#f13rh47hm90w0j)" height="67.0679" id="License" style="stroke:#A80036;stroke-width:1.0;" width="93.2697" x="7" y="135.06"/><ellipse cx="27.6034" cy="151.06" fill="#ADD1B2" rx="11" ry="11" style="stroke:#A80036;stroke-width:1.0;"/><path d="M27.0721,157.9819 Q25.3221,157.9819 24.1815,157.2475 Q23.0565,156.4975 22.494,155.1538 Q21.9471,153.7944 21.9471,151.9975 Q21.9471,149.9663 22.6034,148.5131 Q23.2596,147.06 24.5409,146.2788 Q25.8221,145.4975 27.6971,145.4975 Q28.5877,145.4975 29.2596,145.685 Q29.9315,145.8569 30.619,146.2006 L29.8065,148.2163 Q29.1815,147.9038 28.6346,147.7788 Q28.1034,147.6538 27.619,147.6538 Q26.4471,147.6538 25.744,148.185 Q25.0409,148.7163 24.744,149.6694 Q24.4471,150.6225 24.4471,151.8881 Q24.4471,153.9038 25.1659,154.8725 Q25.8846,155.8256 27.4784,155.8256 Q28.0721,155.8256 28.6971,155.6694 Q29.3221,155.5131 30.1502,155.1381 L30.1502,157.3569 Q29.4159,157.6694 28.619,157.8256 Q27.8377,157.9819 27.0721,157.9819 Z " fill="#000000"/><text fill="#000000" font-family="sans-serif" font-size="14" lengthAdjust="spacing" textLength="48.8178" x="42.8485" y="156.492">License</text><line style="stroke:#A80036;stroke-width:1.0;" x1="8" x2="99.2697" y1="167.06" y2="167.06"/><text fill="#000000" font-family="sans-serif" font-size="14" lengthAdjust="spacing" textLength="81.2697" x="13" y="186.0259">Date validity</text><line style="stroke:#A80036;stroke-width:1.0;" x1="8" x2="99.2697" y1="194.1279" y2="194.1279"/></g><!--reverse link Car to Wheel--><g id="link_Car_Wheel"><path codeLine="33" d="M370.94,168.6 C391.17,168.6 402.77,168.6 423.58,168.6 " fill="none" id="Car-backto-Wheel" style="stroke:#A80036;stroke-width:1.0;"/><polygon fill="#A80036" points="358.94,168.6,364.94,172.6,370.94,168.6,364.94,164.6,358.94,168.6" style="stroke:#A80036;stroke-width:1.0;"/><text fill="#000000" font-family="sans-serif" font-size="13" lengthAdjust="spacing" textLength="29.263" x="376.65" y="161.497">have</text><text fill="#000000" font-family="sans-serif" font-size="13" lengthAdjust="spacing" textLength="7.436" x="366.5806" y="164.3013">1</text><text fill="#000000" font-family="sans-serif" font-size="13" lengthAdjust="spacing" textLength="7.436" x="408.517" y="164.3522">4</text></g><!--link Car to CarOwner--><g id="link_Car_CarOwner"><path codeLine="34" d="M300.49,202.4 C291.35,231.92 278,275.08 268.85,304.66 " fill="none" id="Car-CarOwner" style="stroke:#A80036;stroke-width:1.0;"/><polygon fill="#000000" points="297.2979,237.2064,291.8167,244.9787,297.432,246.716,297.2979,237.2064" style="stroke:#000000;stroke-width:1.0;"/><text fill="#000000" font-family="sans-serif" font-size="13" lengthAdjust="spacing" textLength="32.344" x="304.82" y="247.027">owns</text></g><!--reverse link Human to Person--><g id="link_Human_Person"><path codeLine="36" d="M174.63,92.32 C174.63,114.21 174.63,124.47 174.63,144.12 " fill="none" id="Human-backto-Person" style="stroke:#A80036;stroke-width:1.0;"/><polygon fill="none" points="174.63,74.32,168.63,92.32,180.63,92.32,174.63,74.32" style="stroke:#A80036;stroke-width:1.0;"/></g><!--reverse link Person to Driver--><g id="link_Person_Driver"><path codeLine="37" d="M161.596,210.0865 C157.906,221.7865 158.98,219.05 155.63,232.13 C149.47,256.25 143.77,283.79 139.72,304.69 " fill="none" id="Person-backto-Driver" style="stroke:#A80036;stroke-width:1.0;"/><polygon fill="none" points="167.01,192.92,155.8738,208.2818,167.3181,211.8912,167.01,192.92" style="stroke:#A80036;stroke-width:1.0;"/></g><!--reverse link Person to CarOwner--><g id="link_Person_CarOwner"><path codeLine="38" d="M182.1929,210.5078 C185.6029,227.2478 187.78,232.45 196.63,251.13 C205.66,270.17 218.94,289.41 230.9,304.9 " fill="none" id="Person-backto-CarOwner" style="stroke:#A80036;stroke-width:1.0;"/><polygon fill="none" points="178.6,192.87,176.3136,211.7054,188.0721,209.3102,178.6,192.87" style="stroke:#A80036;stroke-width:1.0;"/></g><!--link License to Driver--><g id="link_License_Driver"><path codeLine="39" d="M69.25,202.4 C83.3,231.92 98.6825,264.2449 112.7625,293.8249 " fill="none" id="License-to-Driver" style="stroke:#A80036;stroke-width:1.0;"/><polygon fill="none" points="117.92,304.66,118.953,297.5233,112.7625,293.8249,111.7295,300.9616,117.92,304.66" style="stroke:#A80036;stroke-width:1.0;"/></g><!--link Driver to Car--><g id="link_Driver_Car"><path codeLine="41" d="M155.89,304.87 C166.54,290.19 179.93,273.09 193.63,259.13 C214.33,238.05 240.16,217.76 262.29,201.85 " fill="none" id="Driver-Car" style="stroke:#A80036;stroke-width:1.0;"/><polygon fill="#000000" points="228.8921,238.505,220.3496,242.6854,224.4382,246.9082,228.8921,238.505" style="stroke:#000000;stroke-width:1.0;"/><text fill="#000000" font-family="sans-serif" font-size="13" lengthAdjust="spacing" textLength="36.881" x="234.3" y="247.027">drives</text></g><!--SRC=[NP11ImCn48Nl-HN3dbJ8GUYf52yMyL2muC7pc8njQ3QHJDmYsl_k99kmr1pVV9Ftvl791KYHIIdZaHaUCS6F0dcSami76ACbBuAwT6HFYMCerAAz7ObyMtpo4JDOXoDbIeNvH7F20ucH9swK2pByG4EmJMwYxbhU59q5MzIRsofU_cr8o9TpkDhPESvWC75R45TybnFGP7Z-6Z5qzdK-AqYw9VxE6GfCbTbY9fZGE-loTq5A9SFz07SQXjNGJbt34IU2EjHwIRI63SHpOALcryslJEV6L2kkIlFHLrB_G_KqMiVEgLPIfSIajiFmy0S0]--></g></svg>