<svg xmlns="http://www.w3.org/2000/svg" xmlns:xlink="http://www.w3.org/1999/xlink" contentStyleType="text/css" height="177px" preserveAspectRatio="none" style="width:353px;height:177px;background:#FFFFFF;" version="1.1" viewBox="0 0 353 177" width="353px" zoomAndPan="magnify"><defs><filter height="300%" id="fbsvycn09c42c" width="300%" x="-1" y="-1"><feGaussianBlur result="blurOut" stdDeviation="2.0"/><feColorMatrix in="blurOut" result="blurOut2" type="matrix" values="0 0 0 0 0 0 0 0 0 0 0 0 0 0 0 0 0 0 .4 0"/><feOffset dx="4.0" dy="4.0" in="blurOut2" result="blurOut3"/><feBlend in="SourceGraphic" in2="blurOut3" mode="normal"/></filter></defs><g><!--class abstract class--><g id="elem_abstract class"><rect codeLine="3" fill="#FEFECE" filter="url(#fbsvycn09c42c)" height="48" id="abstract class" style="stroke:#A80036;stroke-width:1.0;" width="116.9097" x="7" y="7"/><ellipse cx="22" cy="23" fill="#A9DCDF" rx="11" ry="11" style="stroke:#A80036;stroke-width:1.0;"/><path d="M17.1719,28.75 L20.5156,16.5625 L23.6563,16.5625 L27.0313,28.75 L24.5625,28.75 L23.8281,25.7344 L20.3125,25.7344 L19.5625,28.75 L17.1719,28.75 Z M21.5781,20.7031 L20.8281,23.7031 L23.3438,23.7031 L22.625,20.7031 Q22.4844,20.125 22.3594,19.5781 Q22.2344,19.0156 22.0938,18.4375 Q21.9844,19.0156 21.8438,19.5781 Q21.7031,20.125 21.5781,20.7031 Z " fill="#000000"/><text fill="#000000" font-family="sans-serif" font-size="14" font-style="italic" lengthAdjust="spacing" textLength="84.9097" x="36" y="28.432">abstract class</text><line style="stroke:#A80036;stroke-width:1.0;" x1="8" x2="122.9097" y1="39" y2="39"/><line style="stroke:#A80036;stroke-width:1.0;" x1="8" x2="122.9097" y1="47" y2="47"/></g><!--class class--><g id="elem_class"><rect codeLine="7" fill="#FEFECE" filter="url(#fbsvycn09c42c)" height="48" id="class" style="stroke:#A80036;stroke-width:1.0;" width="63.5979" x="158.66" y="7"/><ellipse cx="173.66" cy="23" fill="#ADD1B2" rx="11" ry="11" style="stroke:#A80036;stroke-width:1.0;"/><path d="M173.1288,29.9219 Q171.3788,29.9219 170.2381,29.1875 Q169.1131,28.4375 168.5506,27.0938 Q168.0038,25.7344 168.0038,23.9375 Q168.0038,21.9063 168.66,20.4531 Q169.3163,19 170.5975,18.2188 Q171.8788,17.4375 173.7538,17.4375 Q174.6444,17.4375 175.3163,17.625 Q175.9881,17.7969 176.6756,18.1406 L175.8631,20.1563 Q175.2381,19.8438 174.6913,19.7188 Q174.16,19.5938 173.6756,19.5938 Q172.5038,19.5938 171.8006,20.125 Q171.0975,20.6563 170.8006,21.6094 Q170.5038,22.5625 170.5038,23.8281 Q170.5038,25.8438 171.2225,26.8125 Q171.9413,27.7656 173.535,27.7656 Q174.1288,27.7656 174.7538,27.6094 Q175.3788,27.4531 176.2069,27.0781 L176.2069,29.2969 Q175.4725,29.6094 174.6756,29.7656 Q173.8944,29.9219 173.1288,29.9219 Z " fill="#000000"/><text fill="#000000" font-family="sans-serif" font-size="14" lengthAdjust="spacing" textLength="31.5979" x="187.66" y="28.432">class</text><line style="stroke:#A80036;stroke-width:1.0;" x1="159.66" x2="221.2579" y1="39" y2="39"/><line style="stroke:#A80036;stroke-width:1.0;" x1="159.66" x2="221.2579" y1="47" y2="47"/></g><!--class enum--><g id="elem_enum"><rect codeLine="12" fill="#FEFECE" filter="url(#fbsvycn09c42c)" height="48" id="enum" style="stroke:#A80036;stroke-width:1.0;" width="70.2898" x="257.31" y="7"/><ellipse cx="272.31" cy="23" fill="#EB937F" rx="11" ry="11" style="stroke:#A80036;stroke-width:1.0;"/><path d="M268.6694,29.5 L268.6694,17.3594 L276.3256,17.3594 L276.3256,19.4844 L271.0444,19.4844 L271.0444,22.1406 L276.06,22.1406 L276.06,24.2656 L271.0444,24.2656 L271.0444,27.375 L276.3256,27.375 L276.3256,29.5 L268.6694,29.5 Z " fill="#000000"/><text fill="#000000" font-family="sans-serif" font-size="14" lengthAdjust="spacing" textLength="38.2898" x="286.31" y="28.432">enum</text><line style="stroke:#A80036;stroke-width:1.0;" x1="258.31" x2="326.5998" y1="39" y2="39"/><line style="stroke:#A80036;stroke-width:1.0;" x1="258.31" x2="326.5998" y1="47" y2="47"/></g><!--class exception--><g id="elem_exception"><rect codeLine="13" fill="#FEFECE" filter="url(#fbsvycn09c42c)" height="48" id="exception" style="stroke:#A80036;stroke-width:1.0;" width="96.3158" x="17.3" y="115"/><ellipse cx="32.3" cy="131" fill="#FEFECE" rx="11" ry="11" style="stroke:#A80036;stroke-width:1.0;"/><path d="M27.6437,137.5 L31.2844,131.25 L27.8781,125.3594 L30.3937,125.3594 L32.3938,129.1875 L34.3781,125.3594 L36.925,125.3594 L33.5188,131.2344 L37.1594,137.5 L34.5656,137.5 L32.3781,133.2813 L30.1594,137.5 L27.6437,137.5 Z " fill="#000000"/><text fill="#000000" font-family="sans-serif" font-size="14" lengthAdjust="spacing" textLength="64.3158" x="46.3" y="136.432">exception</text><line style="stroke:#A80036;stroke-width:1.0;" x1="18.3" x2="112.6158" y1="147" y2="147"/><line style="stroke:#A80036;stroke-width:1.0;" x1="18.3" x2="112.6158" y1="155" y2="155"/></g><!--class interface--><g id="elem_interface"><rect codeLine="14" fill="#FEFECE" filter="url(#fbsvycn09c42c)" height="48" id="interface" style="stroke:#A80036;stroke-width:1.0;" width="86.6558" x="148.13" y="115"/><ellipse cx="163.13" cy="131" fill="#B4A7E5" rx="11" ry="11" style="stroke:#A80036;stroke-width:1.0;"/><path d="M159.1613,137.5 L159.1613,135.7969 L161.5206,135.5313 L161.5206,127.3281 L159.1613,127.0625 L159.1613,125.3594 L166.3019,125.3594 L166.3019,127.0625 L163.88,127.3281 L163.88,135.5313 L166.3019,135.7969 L166.3019,137.5 L159.1613,137.5 Z " fill="#000000"/><text fill="#000000" font-family="sans-serif" font-size="14" font-style="italic" lengthAdjust="spacing" textLength="54.6558" x="177.13" y="136.432">interface</text><line style="stroke:#A80036;stroke-width:1.0;" x1="149.13" x2="233.7858" y1="147" y2="147"/><line style="stroke:#A80036;stroke-width:1.0;" x1="149.13" x2="233.7858" y1="155" y2="155"/></g><!--class struct--><g id="elem_struct"><rect codeLine="18" fill="#FEFECE" filter="url(#fbsvycn09c42c)" height="48" id="struct" style="stroke:#A80036;stroke-width:1.0;" width="69.9679" x="269.47" y="115"/><ellipse cx="284.47" cy="131" fill="#FEFECE" rx="11" ry="11" style="stroke:#A80036;stroke-width:1.0;"/><path d="M284.1419,137.6719 Q283.22,137.6719 282.3294,137.5 Q281.4388,137.3125 280.6575,136.9375 L280.6575,134.6875 Q281.6106,135.1719 282.4856,135.4063 Q283.3763,135.625 284.22,135.625 Q285.095,135.625 285.6575,135.3281 Q286.22,135.0313 286.22,134.25 Q286.22,133.7031 285.9231,133.4063 Q285.6263,133.0938 285.0638,132.8125 Q284.5013,132.5313 283.72,132.125 Q282.9388,131.7031 282.2825,131.2188 Q281.6419,130.7188 281.2669,130.0469 Q280.8919,129.375 280.8919,128.4219 Q280.8919,126.7969 281.9856,126 Q283.095,125.1875 284.8763,125.1875 Q285.595,125.1875 286.5794,125.3594 Q287.5638,125.5156 288.5169,125.9688 L287.7356,127.8906 Q286.8919,127.5313 286.2044,127.3906 Q285.5325,127.2344 285.0169,127.2344 Q284.1731,127.2344 283.7825,127.5781 Q283.4075,127.9063 283.4075,128.5469 Q283.4075,129.0313 283.6419,129.3438 Q283.8919,129.6406 284.3606,129.8906 Q284.845,130.1406 285.5794,130.5156 Q286.5794,131 287.2825,131.4688 Q287.9856,131.9375 288.3606,132.5625 Q288.7356,133.1719 288.7356,134.1094 Q288.7356,135.2969 288.1575,136.0938 Q287.595,136.875 286.5481,137.2813 Q285.5169,137.6719 284.1419,137.6719 Z " fill="#000000"/><text fill="#000000" font-family="sans-serif" font-size="14" lengthAdjust="spacing" textLength="37.9679" x="298.47" y="136.432">struct</text><line style="stroke:#A80036;stroke-width:1.0;" x1="270.47" x2="338.4379" y1="147" y2="147"/><line style="stroke:#A80036;stroke-width:1.0;" x1="270.47" x2="338.4379" y1="155" y2="155"/></g><!--SRC=[RP5T3eCW3CVVUuh6bsvtC5x5CAmPcL83DPctdmO4JTOdVlstz2j-dCSWaO7CAsemLZ7RoL04EvaO4PkxezbJlHSrwiJdrC90rWKxCHPB3FHuuisIluzl2TgF4cR8vMh4mVk7_znzL0uiY6sRNhejt7L0WpEp-A54PmPgktlzB5mR8FRgTAinYO7zEbzJ3mR-Mbxg2h0mEBztD1fxBg4mqCnghlCK1bg2g5YPpY8d0zK1ar8PzhkizOA7TF0F]--></g></svg>