<svg xmlns="http://www.w3.org/2000/svg" xmlns:xlink="http://www.w3.org/1999/xlink" contentStyleType="text/css" height="362px" preserveAspectRatio="none" style="width:362px;height:362px;background:#FFFFFF;" version="1.1" viewBox="0 0 362 362" width="362px" zoomAndPan="magnify"><defs><filter height="300%" id="f1rq00dlj6cgv9" width="300%" x="-1" y="-1"><feGaussianBlur result="blurOut" stdDeviation="2.0"/><feColorMatrix in="blurOut" result="blurOut2" type="matrix" values="0 0 0 0 0 0 0 0 0 0 0 0 0 0 0 0 0 0 .4 0"/><feOffset dx="4.0" dy="4.0" in="blurOut2" result="blurOut3"/><feBlend in="SourceGraphic" in2="blurOut3" mode="normal"/></filter></defs><g><!--class Car--><g id="elem_Car"><rect codeLine="3" fill="#FEFECE" filter="url(#f1rq00dlj6cgv9)" height="67.0679" id="Car" style="stroke:#A80036;stroke-width:1.0;" width="95.7337" x="63.4" y="7"/><ellipse cx="96.9624" cy="23" fill="#ADD1B2" rx="11" ry="11" style="stroke:#A80036;stroke-width:1.0;"/><path d="M96.4311,29.9219 Q94.6811,29.9219 93.5405,29.1875 Q92.4155,28.4375 91.853,27.0938 Q91.3061,25.7344 91.3061,23.9375 Q91.3061,21.9063 91.9624,20.4531 Q92.6186,19 93.8999,18.2188 Q95.1811,17.4375 97.0561,17.4375 Q97.9468,17.4375 98.6186,17.625 Q99.2905,17.7969 99.978,18.1406 L99.1655,20.1563 Q98.5405,19.8438 97.9936,19.7188 Q97.4624,19.5938 96.978,19.5938 Q95.8061,19.5938 95.103,20.125 Q94.3999,20.6563 94.103,21.6094 Q93.8061,22.5625 93.8061,23.8281 Q93.8061,25.8438 94.5249,26.8125 Q95.2436,27.7656 96.8374,27.7656 Q97.4311,27.7656 98.0561,27.6094 Q98.6811,27.4531 99.5093,27.0781 L99.5093,29.2969 Q98.7749,29.6094 97.978,29.7656 Q97.1968,29.9219 96.4311,29.9219 Z " fill="#000000"/><text fill="#000000" font-family="sans-serif" font-size="14" lengthAdjust="spacing" textLength="22.4839" x="115.0874" y="28.432">Car</text><line style="stroke:#A80036;stroke-width:1.0;" x1="64.4" x2="158.1337" y1="39" y2="39"/><text fill="#000000" font-family="sans-serif" font-size="14" lengthAdjust="spacing" textLength="83.7337" x="69.4" y="57.9659">string model</text><line style="stroke:#A80036;stroke-width:1.0;" x1="64.4" x2="158.1337" y1="66.0679" y2="66.0679"/></g><!--class Person--><g id="elem_Person"><rect codeLine="8" fill="#FEFECE" filter="url(#f1rq00dlj6cgv9)" height="67.0679" id="Person" style="stroke:#A80036;stroke-width:1.0;" width="92.5277" x="7" y="153.06"/><ellipse cx="28.5483" cy="169.06" fill="#ADD1B2" rx="11" ry="11" style="stroke:#A80036;stroke-width:1.0;"/><path d="M28.0171,175.9819 Q26.2671,175.9819 25.1265,175.2475 Q24.0015,174.4975 23.439,173.1538 Q22.8921,171.7944 22.8921,169.9975 Q22.8921,167.9663 23.5483,166.5131 Q24.2046,165.06 25.4858,164.2788 Q26.7671,163.4975 28.6421,163.4975 Q29.5327,163.4975 30.2046,163.685 Q30.8765,163.8569 31.564,164.2006 L30.7515,166.2163 Q30.1265,165.9038 29.5796,165.7788 Q29.0483,165.6538 28.564,165.6538 Q27.3921,165.6538 26.689,166.185 Q25.9858,166.7163 25.689,167.6694 Q25.3921,168.6225 25.3921,169.8881 Q25.3921,171.9038 26.1108,172.8725 Q26.8296,173.8256 28.4233,173.8256 Q29.0171,173.8256 29.6421,173.6694 Q30.2671,173.5131 31.0952,173.1381 L31.0952,175.3569 Q30.3608,175.6694 29.564,175.8256 Q28.7827,175.9819 28.0171,175.9819 Z " fill="#000000"/><text fill="#000000" font-family="sans-serif" font-size="14" lengthAdjust="spacing" textLength="45.9758" x="44.0035" y="174.492">Person</text><line style="stroke:#A80036;stroke-width:1.0;" x1="8" x2="98.5277" y1="185.06" y2="185.06"/><text fill="#000000" font-family="sans-serif" font-size="14" lengthAdjust="spacing" textLength="80.5277" x="13" y="204.0259">String name</text><line style="stroke:#A80036;stroke-width:1.0;" x1="8" x2="98.5277" y1="212.1279" y2="212.1279"/></g><!--class Wheel--><g id="elem_Wheel"><rect codeLine="12" fill="#FEFECE" filter="url(#f1rq00dlj6cgv9)" height="67.0679" id="Wheel" style="stroke:#A80036;stroke-width:1.0;" width="107.6897" x="224.42" y="7"/><ellipse cx="254.9962" cy="23" fill="#ADD1B2" rx="11" ry="11" style="stroke:#A80036;stroke-width:1.0;"/><path d="M254.465,29.9219 Q252.715,29.9219 251.5743,29.1875 Q250.4493,28.4375 249.8868,27.0938 Q249.34,25.7344 249.34,23.9375 Q249.34,21.9063 249.9962,20.4531 Q250.6525,19 251.9337,18.2188 Q253.215,17.4375 255.09,17.4375 Q255.9806,17.4375 256.6525,17.625 Q257.3243,17.7969 258.0118,18.1406 L257.1993,20.1563 Q256.5743,19.8438 256.0275,19.7188 Q255.4962,19.5938 255.0118,19.5938 Q253.84,19.5938 253.1368,20.125 Q252.4337,20.6563 252.1368,21.6094 Q251.84,22.5625 251.84,23.8281 Q251.84,25.8438 252.5587,26.8125 Q253.2775,27.7656 254.8712,27.7656 Q255.465,27.7656 256.09,27.6094 Q256.715,27.4531 257.5431,27.0781 L257.5431,29.2969 Q256.8087,29.6094 256.0118,29.7656 Q255.2306,29.9219 254.465,29.9219 Z " fill="#000000"/><text fill="#000000" font-family="sans-serif" font-size="14" lengthAdjust="spacing" textLength="41.0758" x="272.4576" y="28.432">Wheel</text><line style="stroke:#A80036;stroke-width:1.0;" x1="225.42" x2="331.1097" y1="39" y2="39"/><text fill="#000000" font-family="sans-serif" font-size="14" lengthAdjust="spacing" textLength="95.6897" x="230.42" y="57.9659">Float diameter</text><line style="stroke:#A80036;stroke-width:1.0;" x1="225.42" x2="331.1097" y1="66.0679" y2="66.0679"/></g><!--class Driver--><g id="elem_Driver"><rect codeLine="16" fill="#FEFECE" filter="url(#f1rq00dlj6cgv9)" height="67.0679" id="Driver" style="stroke:#A80036;stroke-width:1.0;" width="84.8557" x="126.84" y="281.13"/><ellipse cx="147.4433" cy="297.13" fill="#ADD1B2" rx="11" ry="11" style="stroke:#A80036;stroke-width:1.0;"/><path d="M146.9121,304.0519 Q145.1621,304.0519 144.0215,303.3175 Q142.8965,302.5675 142.334,301.2238 Q141.7871,299.8644 141.7871,298.0675 Q141.7871,296.0363 142.4433,294.5831 Q143.0996,293.13 144.3808,292.3488 Q145.6621,291.5675 147.5371,291.5675 Q148.4277,291.5675 149.0996,291.755 Q149.7715,291.9269 150.459,292.2706 L149.6465,294.2863 Q149.0215,293.9738 148.4746,293.8488 Q147.9433,293.7238 147.459,293.7238 Q146.2871,293.7238 145.584,294.255 Q144.8808,294.7863 144.584,295.7394 Q144.2871,296.6925 144.2871,297.9581 Q144.2871,299.9738 145.0058,300.9425 Q145.7246,301.8956 147.3183,301.8956 Q147.9121,301.8956 148.5371,301.7394 Q149.1621,301.5831 149.9902,301.2081 L149.9902,303.4269 Q149.2558,303.7394 148.459,303.8956 Q147.6777,304.0519 146.9121,304.0519 Z " fill="#000000"/><text fill="#000000" font-family="sans-serif" font-size="14" lengthAdjust="spacing" textLength="40.4038" x="162.6885" y="302.562">Driver</text><line style="stroke:#A80036;stroke-width:1.0;" x1="127.84" x2="210.6957" y1="313.13" y2="313.13"/><line style="stroke:#A80036;stroke-width:1.0;" x1="127.84" x2="210.6957" y1="321.13" y2="321.13"/><text fill="#000000" font-family="sans-serif" font-size="14" lengthAdjust="spacing" textLength="72.8557" x="132.84" y="340.0959">void drive()</text></g><!--class License--><g id="elem_License"><rect codeLine="20" fill="#FEFECE" filter="url(#f1rq00dlj6cgv9)" height="67.0679" id="License" style="stroke:#A80036;stroke-width:1.0;" width="93.2697" x="255.63" y="153.06"/><ellipse cx="276.2334" cy="169.06" fill="#ADD1B2" rx="11" ry="11" style="stroke:#A80036;stroke-width:1.0;"/><path d="M275.7021,175.9819 Q273.9521,175.9819 272.8115,175.2475 Q271.6865,174.4975 271.124,173.1538 Q270.5771,171.7944 270.5771,169.9975 Q270.5771,167.9663 271.2334,166.5131 Q271.8896,165.06 273.1709,164.2788 Q274.4521,163.4975 276.3271,163.4975 Q277.2177,163.4975 277.8896,163.685 Q278.5615,163.8569 279.249,164.2006 L278.4365,166.2163 Q277.8115,165.9038 277.2646,165.7788 Q276.7334,165.6538 276.249,165.6538 Q275.0771,165.6538 274.374,166.185 Q273.6709,166.7163 273.374,167.6694 Q273.0771,168.6225 273.0771,169.8881 Q273.0771,171.9038 273.7959,172.8725 Q274.5146,173.8256 276.1084,173.8256 Q276.7021,173.8256 277.3271,173.6694 Q277.9521,173.5131 278.7802,173.1381 L278.7802,175.3569 Q278.0459,175.6694 277.249,175.8256 Q276.4677,175.9819 275.7021,175.9819 Z " fill="#000000"/><text fill="#000000" font-family="sans-serif" font-size="14" lengthAdjust="spacing" textLength="48.8178" x="291.4785" y="174.492">License</text><line style="stroke:#A80036;stroke-width:1.0;" x1="256.63" x2="347.8997" y1="185.06" y2="185.06"/><text fill="#000000" font-family="sans-serif" font-size="14" lengthAdjust="spacing" textLength="81.2697" x="261.63" y="204.0259">Date validity</text><line style="stroke:#A80036;stroke-width:1.0;" x1="256.63" x2="347.8997" y1="212.1279" y2="212.1279"/></g><!--reverse link Car to Wheel--><g id="link_Car_Wheel"><path codeLine="24" d="M171.57,40.53 C191.8,40.53 203.4,40.53 224.21,40.53 " fill="none" id="Car-backto-Wheel" style="stroke:#A80036;stroke-width:1.0;"/><polygon fill="#A80036" points="159.57,40.53,165.57,44.53,171.57,40.53,165.57,36.53,159.57,40.53" style="stroke:#A80036;stroke-width:1.0;"/><text fill="#000000" font-family="sans-serif" font-size="13" lengthAdjust="spacing" textLength="29.263" x="177.27" y="33.427">have</text><text fill="#000000" font-family="sans-serif" font-size="13" lengthAdjust="spacing" textLength="7.436" x="167.2106" y="36.2298">1</text><text fill="#000000" font-family="sans-serif" font-size="13" lengthAdjust="spacing" textLength="7.436" x="209.147" y="36.2808">4</text></g><!--link Car to Person--><g id="link_Car_Person"><path codeLine="25" d="M98.1,74.22 C88.61,97.8 75.85,129.49 66.37,153.04 " fill="none" id="Car-Person" style="stroke:#A80036;stroke-width:1.0;"/><polygon fill="#000000" points="92.6072,109.2747,86.5031,116.5679,91.9557,118.763,92.6072,109.2747" style="stroke:#000000;stroke-width:1.0;"/><text fill="#000000" font-family="sans-serif" font-size="13" lengthAdjust="spacing" textLength="32.344" x="99.74" y="118.957">owns</text></g><!--reverse link Person to Driver--><g id="link_Person_Driver"><path codeLine="26" d="M95.6249,233.6387 C112.8049,252.3187 122.08,262.39 139.24,281.04 " fill="none" id="Person-backto-Driver" style="stroke:#A80036;stroke-width:1.0;"/><polygon fill="none" points="83.44,220.39,91.2086,237.7004,100.0411,229.5771,83.44,220.39" style="stroke:#A80036;stroke-width:1.0;"/></g><!--link License to Driver--><g id="link_License_Driver"><path codeLine="27" d="M267.67,220.39 C247.96,239.07 232.0681,254.1335 212.3981,272.7835 " fill="none" id="License-to-Driver" style="stroke:#A80036;stroke-width:1.0;"/><polygon fill="none" points="203.69,281.04,210.7962,279.8144,212.3981,272.7835,205.2919,274.0091,203.69,281.04" style="stroke:#A80036;stroke-width:1.0;"/></g><!--link Driver to Car--><g id="link_Driver_Car"><path codeLine="29" d="M167.72,280.72 C165.09,238.89 158.13,164.86 140.26,104.06 C137.33,94.08 133.04,83.65 128.65,74.25 " fill="none" id="Driver-Car" style="stroke:#A80036;stroke-width:1.0;"/><polygon fill="#000000" points="166.3504,182.0402,165.1444,191.474,170.9198,190.3811,166.3504,182.0402" style="stroke:#000000;stroke-width:1.0;"/><text fill="#000000" font-family="sans-serif" font-size="13" lengthAdjust="spacing" textLength="36.881" x="176.28" y="191.997">drives</text></g><!--SRC=[HP0n2y8m48Nt_8eZameP1ATIN2nE3eA3SsWEUvWca0iHKV-xRTBGyTttmNiSFyb1y8n2z5Opmqa7-0W0Ze7S0qPlq4vH_AfmnS3UPUTM7AT7NFbzGBGPdwtN4GnDE69OZIvGmjAIF1amSzviL-52FJh6R7Gw8YHjoL1ypyeyKEubx1J8Wrpg6XXqGiXGgRgnWHRyox5OSlkTM6aNjKCfNqzY6QRo4vgoY-7u1m00]--></g></svg>