<svg xmlns="http://www.w3.org/2000/svg" xmlns:xlink="http://www.w3.org/1999/xlink" contentStyleType="text/css" height="328px" preserveAspectRatio="none" style="width:634px;height:328px;background:#FFFFFF;" version="1.1" viewBox="0 0 634 328" width="634px" zoomAndPan="magnify"><defs><filter height="300%" id="f1xlvqyew3oogs" width="300%" x="-1" y="-1"><feGaussianBlur result="blurOut" stdDeviation="4.0"/><feColorMatrix in="blurOut" result="blurOut2" type="matrix" values="0 0 0 0 0 0 0 0 0 0 0 0 0 0 0 0 0 0 .4 0"/><feOffset dx="8.0" dy="8.0" in="blurOut2" result="blurOut3"/><feBlend in="SourceGraphic" in2="blurOut3" mode="normal"/></filter></defs><g><!--class User--><g id="elem_User"><rect codeLine="4" fill="#FEFECE" filter="url(#f1xlvqyew3oogs)" height="286.6792" id="User" style="stroke:#A80036;stroke-width:2.0;" width="276.9511" x="14" y="14"/><ellipse cx="113.3577" cy="46" fill="#ADD1B2" rx="22" ry="22" style="stroke:#A80036;stroke-width:2.0;"/><path d="M112.2952,59.8438 Q108.7952,59.8438 106.5139,58.375 Q104.2639,56.875 103.1389,54.1875 Q102.0452,51.4688 102.0452,47.875 Q102.0452,43.8125 103.3577,40.9063 Q104.6702,38 107.2327,36.4375 Q109.7952,34.875 113.5452,34.875 Q115.3264,34.875 116.6702,35.25 Q118.0139,35.5938 119.3889,36.2813 L117.7639,40.3125 Q116.5139,39.6875 115.4202,39.4375 Q114.3577,39.1875 113.3889,39.1875 Q111.0452,39.1875 109.6389,40.25 Q108.2327,41.3125 107.6389,43.2188 Q107.0452,45.125 107.0452,47.6563 Q107.0452,51.6875 108.4827,53.625 Q109.9202,55.5313 113.1077,55.5313 Q114.2952,55.5313 115.5452,55.2188 Q116.7952,54.9063 118.4514,54.1563 L118.4514,58.5938 Q116.9827,59.2188 115.3889,59.5313 Q113.8264,59.8438 112.2952,59.8438 Z " fill="#000000"/><text fill="#000000" font-family="sans-serif" font-size="28" lengthAdjust="spacing" textLength="61.2358" x="154.3577" y="56.864">User</text><line style="stroke:#A80036;stroke-width:2.0;" x1="16" x2="288.9511" y1="78" y2="78"/><rect fill="none" height="12" style="stroke:#C82930;stroke-width:2.0;" width="12" x="30" y="102.0679"/><text fill="#000000" font-family="sans-serif" font-size="28" lengthAdjust="spacing" textLength="161.0554" x="54" y="115.9319">String name</text><rect fill="none" height="12" style="stroke:#C82930;stroke-width:2.0;" width="12" x="30" y="140.2038"/><text fill="#000000" font-family="sans-serif" font-size="28" lengthAdjust="spacing" textLength="128.9955" x="54" y="154.0677">Integer id</text><line style="stroke:#A80036;stroke-width:2.0;" x1="16" x2="288.9511" y1="170.2717" y2="170.2717"/><ellipse cx="36" cy="200.3396" fill="#84BE84" rx="6" ry="6" style="stroke:#038048;stroke-width:2.0;"/><text fill="#000000" font-family="sans-serif" font-size="28" lengthAdjust="spacing" textLength="224.9511" x="54" y="208.2035">String getName()</text><ellipse cx="36" cy="238.4754" fill="#84BE84" rx="6" ry="6" style="stroke:#038048;stroke-width:2.0;"/><text fill="#000000" font-family="sans-serif" font-size="28" lengthAdjust="spacing" textLength="221.1432" x="54" y="246.3394">String setName()</text><ellipse cx="36" cy="276.6113" fill="#84BE84" rx="6" ry="6" style="stroke:#038048;stroke-width:2.0;"/><text fill="#000000" font-family="sans-serif" font-size="28" lengthAdjust="spacing" textLength="172.7034" x="54" y="284.4752">String getId()</text></g><g id="elem_user"><rect fill="#FEFECE" filter="url(#f1xlvqyew3oogs)" height="138.4075" style="stroke:#A80036;stroke-width:2.0;" width="246.4311" x="361.26" y="88.14"/><text fill="#000000" font-family="sans-serif" font-size="28" lengthAdjust="spacing" textLength="58.0718" x="455.4397" y="122.0719">user</text><line style="stroke:#A80036;stroke-width:2.0;" x1="363.26" x2="605.6911" y1="134.2758" y2="134.2758"/><text fill="#000000" font-family="sans-serif" font-size="28" lengthAdjust="spacing" textLength="222.4311" x="373.26" y="172.2077">name = "Het&#233;ny"</text><text fill="#000000" font-family="sans-serif" font-size="28" lengthAdjust="spacing" textLength="87.0516" x="373.26" y="210.3435">id = 47</text></g><!--SRC=[AyxEp5CeoYzEvIfEJin9LJ3YuahEIImkLWWjJYrIgEPI00BTu9AYpBnqXRp4t5I8W6TUIMewK3up1SpNXYf8Jotn0whHq4GHBSOg2bJhcG8Kg-NYoa_AIaqkKIY5sGYoHy5MGSaZjUJmohnA9Q1GPWfGmCISgnO0]--></g></svg>