<svg xmlns="http://www.w3.org/2000/svg" xmlns:xlink="http://www.w3.org/1999/xlink" contentStyleType="text/css" height="518px" preserveAspectRatio="none" style="width:694px;height:518px;background:#FFFFFF;" version="1.1" viewBox="0 0 694 518" width="694px" zoomAndPan="magnify"><defs><filter height="300%" id="f1v6gkw2wnu856" width="300%" x="-1" y="-1"><feGaussianBlur result="blurOut" stdDeviation="4.0"/><feColorMatrix in="blurOut" result="blurOut2" type="matrix" values="0 0 0 0 0 0 0 0 0 0 0 0 0 0 0 0 0 0 .4 0"/><feOffset dx="8.0" dy="8.0" in="blurOut2" result="blurOut3"/><feBlend in="SourceGraphic" in2="blurOut3" mode="normal"/></filter></defs><g><ellipse cx="244.84" cy="32" fill="#000000" filter="url(#f1v6gkw2wnu856)" rx="20" ry="20" style="stroke:#000000;stroke-width:2.0;"/><g id="state1"><rect fill="#FEFECE" filter="url(#f1v6gkw2wnu856)" height="154.4075" rx="25" ry="25" style="stroke:#A80036;stroke-width:2.0;" width="461.6783" x="14" y="172"/><line style="stroke:#A80036;stroke-width:2.0;" x1="14" x2="475.6783" y1="230.1358" y2="230.1358"/><text fill="#000000" font-family="sans-serif" font-size="28" lengthAdjust="spacing" textLength="81.1437" x="204.2673" y="211.9319">state1</text><text fill="#000000" font-family="sans-serif" font-size="28" lengthAdjust="spacing" textLength="421.6783" x="24" y="270.0677">you can write a description here</text><text fill="#000000" font-family="sans-serif" font-size="28" lengthAdjust="spacing" textLength="208.3192" x="24" y="308.2035">in multiple lines</text></g><ellipse cx="424.84" cy="468.4" fill="none" filter="url(#f1v6gkw2wnu856)" rx="22" ry="22" style="stroke:#000000;stroke-width:2.0;"/><ellipse cx="424.84" cy="468.4" fill="#000000" rx="12" ry="12" style="stroke:#000000;stroke-width:2.0;"/><g id="state2"><rect fill="#FEFECE" filter="url(#f1v6gkw2wnu856)" height="100" rx="25" ry="25" style="stroke:#A80036;stroke-width:2.0;" width="121.1437" x="546.26" y="199.2"/><line style="stroke:#A80036;stroke-width:2.0;" x1="546.26" x2="667.4037" y1="257.3358" y2="257.3358"/><text fill="#000000" font-family="sans-serif" font-size="28" lengthAdjust="spacing" textLength="81.1437" x="566.26" y="239.1319">state2</text></g><!--link *start* to state1--><g id="link_*start*_state1"><path d="M244.84,52.92 C244.84,79.4 244.84,117.1 244.84,159.58 " fill="none" id="*start*-to-state1" style="stroke:#A80036;stroke-width:2.0;"/><polygon fill="#A80036" points="244.84,171.58,252.84,153.58,244.84,161.58,236.84,153.58,244.84,171.58" style="stroke:#A80036;stroke-width:2.0;"/></g><!--link state1 to *end*--><g id="link_state1_*end*"><path d="M308.3,327.06 C345.54,371.6 381.7625,414.8941 403.5025,440.8941 " fill="none" id="state1-to-*end*" style="stroke:#A80036;stroke-width:2.0;"/><polygon fill="#A80036" points="411.2,450.1,405.791,431.1595,404.7854,442.4284,393.5165,441.4229,411.2,450.1" style="stroke:#A80036;stroke-width:2.0;"/></g><!--link state1 to state2--><g id="link_state1_state2"><path d="M476.04,249.2 C499.2,249.2 510.36,249.2 533.52,249.2 " fill="none" id="state1-to-state2" style="stroke:#A80036;stroke-width:2.0;"/><polygon fill="#A80036" points="545.52,249.2,527.52,241.2,535.52,249.2,527.52,257.2,545.52,249.2" style="stroke:#A80036;stroke-width:2.0;"/></g><!--link state2 to *end*--><g id="link_state2_*end*"><path d="M565.54,300.02 C524.84,348.14 472.7674,409.716 446.1874,441.156 " fill="none" id="state2-to-*end*" style="stroke:#A80036;stroke-width:2.0;"/><polygon fill="#A80036" points="438.44,450.32,456.1704,441.739,444.8962,442.6834,443.9518,431.4091,438.44,450.32" style="stroke:#A80036;stroke-width:2.0;"/></g><!--SRC=[HOsz2eGm48JxVOgf1GjJMlWYnnKXBhYOIoIx8hwzmR-hXlbXFWq-CXpfB0abAnDzcY_QTe2QD-xeaZEfpMDxx7b5y0bR4MDuZAoXo6AI4oOk_5_MvzyQJPPAYf9OwJszAUuAt4iv0000]--></g></svg>