<svg xmlns="http://www.w3.org/2000/svg" xmlns:xlink="http://www.w3.org/1999/xlink" contentStyleType="text/css" height="956px" preserveAspectRatio="none" style="width:796px;height:956px;background:#FFFFFF;" version="1.1" viewBox="0 0 796 956" width="796px" zoomAndPan="magnify"><defs><filter height="300%" id="f1ily5avxtnmda" width="300%" x="-1" y="-1"><feGaussianBlur result="blurOut" stdDeviation="8.0"/><feColorMatrix in="blurOut" result="blurOut2" type="matrix" values="0 0 0 0 0 0 0 0 0 0 0 0 0 0 0 0 0 0 .4 0"/><feOffset dx="16.0" dy="16.0" in="blurOut2" result="blurOut3"/><feBlend in="SourceGraphic" in2="blurOut3" mode="normal"/></filter></defs><g><!--cluster stopwatch--><g id="cluster_stopwatch"><polygon fill="none" filter="url(#f1ily5avxtnmda)" points="318.0718,26.4079,635.9586,26.4079,663.9586,126.6796,729.3518,126.6796,729.3518,922.4079,318.0718,922.4079,318.0718,26.4079" style="stroke:#000000;stroke-width:6.0;"/><line style="stroke:#000000;stroke-width:6.0;" x1="318.0718" x2="663.9586" y1="126.6796" y2="126.6796"/><text fill="#000000" font-family="sans-serif" font-size="56" font-weight="bold" lengthAdjust="spacing" textLength="293.8868" x="334.0718" y="94.2717">stopwatch</text></g><g id="elem_start"><ellipse cx="523.6992" cy="790.4159" fill="#FEFECE" filter="url(#f1ily5avxtnmda)" rx="132.9474" ry="66.3279" style="stroke:#A80036;stroke-width:4.0;"/><text fill="#000000" font-family="sans-serif" font-size="56" lengthAdjust="spacing" textLength="121.7996" x="452.4958" y="808.772">start</text></g><g id="elem_stop"><ellipse cx="523.6992" cy="518.3965" fill="#FEFECE" filter="url(#f1ily5avxtnmda)" rx="128.1475" ry="66.2286" style="stroke:#A80036;stroke-width:4.0;"/><text fill="#000000" font-family="sans-serif" font-size="56" lengthAdjust="spacing" textLength="115.3596" x="457.4447" y="536.1279">stop</text></g><g id="elem_reset"><ellipse cx="523.7093" cy="246.4149" fill="#FEFECE" filter="url(#f1ily5avxtnmda)" rx="141.6375" ry="66.5269" style="stroke:#A80036;stroke-width:4.0;"/><text fill="#000000" font-family="sans-serif" font-size="56" lengthAdjust="spacing" textLength="133.3355" x="445.0416" y="265.3467">reset</text></g><!--entity user--><g id="elem_user"><ellipse cx="82.0718" cy="386.2879" fill="#FEFECE" filter="url(#f1ily5avxtnmda)" rx="32" ry="32" style="stroke:#A80036;stroke-width:8.0;"/><path d="M82.0718,418.2879 L82.0718,526.2879 M30.0718,450.2879 L134.0718,450.2879 M82.0718,526.2879 L30.0718,586.2879 M82.0718,526.2879 L134.0718,586.2879 " fill="none" filter="url(#f1ily5avxtnmda)" style="stroke:#A80036;stroke-width:8.0;"/><text fill="#000000" font-family="sans-serif" font-size="56" lengthAdjust="spacing" textLength="116.1436" x="24" y="674.1517">user</text></g><!--link user to start--><g id="link_user_start"><path d="M143.1118,558.7679 C182.7518,586.4079 237.0318,623.5279 286.0718,654.4079 C333.3118,684.1679 366.3128,703.7426 410.3528,728.9026 " fill="none" id="user-to-start" style="stroke:#A80036;stroke-width:4.0;"/><polygon fill="#A80036" points="431.1918,740.8079,407.8701,709.0573,413.8259,730.8868,391.9964,736.8427,431.1918,740.8079" style="stroke:#A80036;stroke-width:4.0;"/></g><!--link user to stop--><g id="link_user_stop"><path d="M142.7518,518.4079 C206.1118,518.4079 286.7118,518.4079 369.6718,518.4079 " fill="none" id="user-to-stop" style="stroke:#A80036;stroke-width:4.0;"/><polygon fill="#A80036" points="393.6718,518.4079,357.6718,502.4079,373.6718,518.4079,357.6718,534.4079,393.6718,518.4079" style="stroke:#A80036;stroke-width:4.0;"/></g><!--link user to reset--><g id="link_user_reset"><path d="M143.1118,478.0479 C182.7518,450.4079 237.0318,413.2879 286.0718,382.4079 C332.5518,353.1279 364.4786,334.1235 408.1186,309.1635 " fill="none" id="user-to-reset" style="stroke:#A80036;stroke-width:4.0;"/><polygon fill="#A80036" points="428.9518,297.2479,389.7584,301.2325,411.5908,307.1776,405.6458,329.01,428.9518,297.2479" style="stroke:#A80036;stroke-width:4.0;"/></g><!--SRC=[NOmz3i9G38Dtdy8NwCRCNQ8GsgTMpLCIn82uEor2YEBDdtzIPJ6Ua7DR6Pw6nQx5SaORf-AbXMarNm7Hyk0jBO0kEijepF9-bzA93t3JbghapYNgZtW_WB2qmXFO7paCvy_enswBhtlNNm00]--></g></svg>