<?xml version="1.0" encoding="us-ascii" standalone="no"?><svg xmlns="http://www.w3.org/2000/svg" xmlns:xlink="http://www.w3.org/1999/xlink" contentStyleType="text/css" height="1368px" preserveAspectRatio="none" style="width:704px;height:1368px;background:#FFFFFF;" version="1.1" viewBox="0 0 704 1368" width="704px" zoomAndPan="magnify"><defs><filter height="300%" id="f18udjnji56v9b" width="300%" x="-1" y="-1"><feGaussianBlur result="blurOut" stdDeviation="8.0"/><feColorMatrix in="blurOut" result="blurOut2" type="matrix" values="0 0 0 0 0 0 0 0 0 0 0 0 0 0 0 0 0 0 .4 0"/><feOffset dx="16.0" dy="16.0" in="blurOut2" result="blurOut3"/><feBlend in="SourceGraphic" in2="blurOut3" mode="normal"/></filter></defs><g><ellipse cx="128" cy="64" fill="#000000" filter="url(#f18udjnji56v9b)" rx="40" ry="40" style="stroke:#000000;stroke-width:4.0;"/><g id="idle"><rect fill="#FEFECE" filter="url(#f18udjnji56v9b)" height="200" rx="50" ry="50" style="stroke:#A80036;stroke-width:4.0;" width="200" x="28" y="344"/><line style="stroke:#A80036;stroke-width:4.0;" x1="28" x2="228" y1="460.2717" y2="460.2717"/><text fill="#000000" font-family="sans-serif" font-size="56" lengthAdjust="spacing" textLength="100" x="78" y="423.8637">idle</text></g><ellipse cx="312" cy="1268" fill="none" filter="url(#f18udjnji56v9b)" rx="44" ry="44" style="stroke:#000000;stroke-width:4.0;"/><ellipse cx="312" cy="1268" fill="#000000" rx="24" ry="24" style="stroke:#000000;stroke-width:4.0;"/><g id="started"><rect fill="#FEFECE" filter="url(#f18udjnji56v9b)" height="200" rx="50" ry="50" style="stroke:#A80036;stroke-width:4.0;" width="272" x="368" y="344"/><line style="stroke:#A80036;stroke-width:4.0;" x1="368" x2="640" y1="460.2717" y2="460.2717"/><text fill="#000000" font-family="sans-serif" font-size="56" lengthAdjust="spacing" textLength="192" x="408" y="423.8637">started</text></g><g id="stopped"><rect fill="#FEFECE" filter="url(#f18udjnji56v9b)" height="200" rx="50" ry="50" style="stroke:#A80036;stroke-width:4.0;" width="300" x="350" y="784"/><line style="stroke:#A80036;stroke-width:4.0;" x1="350" x2="650" y1="900.2717" y2="900.2717"/><text fill="#000000" font-family="sans-serif" font-size="56" lengthAdjust="spacing" textLength="220" x="390" y="863.8637">stopped</text></g><!--link *start* to idle--><g id="link_*start*_idle"><path d="M128,105.04 C128,159.8 128,240.28 128,318.08 " fill="none" id="*start*-to-idle" style="stroke:#A80036;stroke-width:4.0;"/><polygon fill="#A80036" points="128,342.08,144,306.08,128,322.08,112,306.08,128,342.08" style="stroke:#A80036;stroke-width:4.0;"/></g><!--link idle to *end*--><g id="link_idle_*end*"><path d="M149.84,544.8 C190.2,723.8 269.6433,1076.1473 297.5633,1200.0273 " fill="none" id="idle-to-*end*" style="stroke:#A80036;stroke-width:4.0;"/><polygon fill="#A80036" points="302.84,1223.44,310.5334,1184.8031,298.4427,1203.9294,279.3164,1191.8387,302.84,1223.44" style="stroke:#A80036;stroke-width:4.0;"/></g><!--link idle to started--><g id="link_idle_started"><path d="M229.36,444 C275.12,444 296.88,444 342.68,444 " fill="none" id="idle-to-started" style="stroke:#A80036;stroke-width:4.0;"/><polygon fill="#A80036" points="366.68,444,330.68,428,346.68,444,330.68,460,366.68,444" style="stroke:#A80036;stroke-width:4.0;"/></g><!--link started to stopped--><g id="link_started_stopped"><path d="M458.44,544.96 C447.32,616.08 443.1471,688.547 452.9871,759.587 " fill="none" id="started-to-stopped" style="stroke:#A80036;stroke-width:4.0;"/><polygon fill="#A80036" points="456.28,783.36,467.1894,745.5052,453.5359,763.5491,435.492,749.8957,456.28,783.36" style="stroke:#A80036;stroke-width:4.0;"/></g><!--link stopped to started--><g id="link_stopped_started"><path d="M545.48,783.36 C556.68,712.32 560.8361,639.8553 551.0361,568.7353 " fill="none" id="stopped-to-started" style="stroke:#A80036;stroke-width:4.0;"/><polygon fill="#A80036" points="547.76,544.96,536.824,582.8071,550.4901,564.7728,568.5244,578.4389,547.76,544.96" style="stroke:#A80036;stroke-width:4.0;"/></g><!--link stopped to *end*--><g id="link_stopped_*end*"><path d="M451.6,984.84 C412,1064.04 368.847,1150.2507 341.047,1205.8907 " fill="none" id="stopped-to-*end*" style="stroke:#A80036;stroke-width:4.0;"/><polygon fill="#A80036" points="330.32,1227.36,360.7233,1202.3073,339.2591,1209.4689,332.0975,1188.0047,330.32,1227.36" style="stroke:#A80036;stroke-width:4.0;"/></g><!--link stopped to idle--><g id="link_stopped_idle"><path d="M416.8,783.36 C355.6,712.32 288.4261,634.2617 227.1461,563.1417 " fill="none" id="stopped-to-idle" style="stroke:#A80036;stroke-width:4.0;"/><polygon fill="#A80036" points="211.48,544.96,222.858,582.6766,224.5351,560.1114,247.1003,561.7884,211.48,544.96" style="stroke:#A80036;stroke-width:4.0;"/></g><!--SRC=[AqvEp4bLCE4gpixCKoZABqxbuehMYbNGrRLJo4p9IULI1v5M2kM9cIN52cdvHGgbnQb5N211i1gWMYuepqwXk2Ing2GrXGjAWnKKb-GN5835m3H24x80GYDK368v0000]--></g></svg>