<?xml version="1.0" encoding="us-ascii" standalone="no"?><svg xmlns="http://www.w3.org/2000/svg" xmlns:xlink="http://www.w3.org/1999/xlink" contentStyleType="text/css" height="1368px" preserveAspectRatio="none" style="width:2004px;height:1368px;background:#FFFFFF;" version="1.1" viewBox="0 0 2004 1368" width="2004px" zoomAndPan="magnify"><defs><filter height="300%" id="f12t8egcczqxao" width="300%" x="-1" y="-1"><feGaussianBlur result="blurOut" stdDeviation="8.0"/><feColorMatrix in="blurOut" result="blurOut2" type="matrix" values="0 0 0 0 0 0 0 0 0 0 0 0 0 0 0 0 0 0 .4 0"/><feOffset dx="16.0" dy="16.0" in="blurOut2" result="blurOut3"/><feBlend in="SourceGraphic" in2="blurOut3" mode="normal"/></filter></defs><g><ellipse cx="656" cy="64" fill="#000000" filter="url(#f12t8egcczqxao)" rx="40" ry="40" style="stroke:#000000;stroke-width:4.0;"/><g id="idle"><rect fill="#FEFECE" filter="url(#f12t8egcczqxao)" height="200" rx="50" ry="50" style="stroke:#A80036;stroke-width:4.0;" width="200" x="556" y="344"/><line style="stroke:#A80036;stroke-width:4.0;" x1="556" x2="756" y1="460.2717" y2="460.2717"/><text fill="#000000" font-family="sans-serif" font-size="56" lengthAdjust="spacing" textLength="100" x="606" y="423.8637">idle</text></g><ellipse cx="840" cy="1268" fill="none" filter="url(#f12t8egcczqxao)" rx="44" ry="44" style="stroke:#000000;stroke-width:4.0;"/><ellipse cx="840" cy="1268" fill="#000000" rx="24" ry="24" style="stroke:#000000;stroke-width:4.0;"/><g id="elem_GMN7"><path d="M24,388.6 L24,499.4241 A0,0 0 0 0 24,499.4241 L416,499.4241 A0,0 0 0 0 416,499.4241 L416,460.6 L555.4,444 L416,428.6 L416,428.6 L376,388.6 L24,388.6 A0,0 0 0 0 24,388.6 " fill="#FBFB77" filter="url(#f12t8egcczqxao)" style="stroke:#A80036;stroke-width:4.0;"/><path d="M376,388.6 L376,428.6 L416,428.6 L376,388.6 " fill="#FBFB77" style="stroke:#A80036;stroke-width:4.0;"/><text fill="#000000" font-family="sans-serif" font-size="52" lengthAdjust="spacing" textLength="308" x="48" y="464.1881">displays zero</text></g><g id="started"><rect fill="#FEFECE" filter="url(#f12t8egcczqxao)" height="200" rx="50" ry="50" style="stroke:#A80036;stroke-width:4.0;" width="272" x="896" y="344"/><line style="stroke:#A80036;stroke-width:4.0;" x1="896" x2="1168" y1="460.2717" y2="460.2717"/><text fill="#000000" font-family="sans-serif" font-size="56" lengthAdjust="spacing" textLength="192" x="936" y="423.8637">started</text></g><g id="stopped"><rect fill="#FEFECE" filter="url(#f12t8egcczqxao)" height="200" rx="50" ry="50" style="stroke:#A80036;stroke-width:4.0;" width="300" x="878" y="784"/><line style="stroke:#A80036;stroke-width:4.0;" x1="878" x2="1178" y1="900.2717" y2="900.2717"/><text fill="#000000" font-family="sans-serif" font-size="56" lengthAdjust="spacing" textLength="220" x="918" y="863.8637">stopped</text></g><g id="elem_GMN14"><path d="M1308,388.6 L1308,428 L1169.6,444 L1308,460 L1308,499.4241 A0,0 0 0 0 1308,499.4241 L1940,499.4241 A0,0 0 0 0 1940,499.4241 L1940,428.6 L1900,388.6 L1308,388.6 A0,0 0 0 0 1308,388.6 " fill="#FBFB77" filter="url(#f12t8egcczqxao)" style="stroke:#A80036;stroke-width:4.0;"/><path d="M1900,388.6 L1900,428.6 L1940,428.6 L1900,388.6 " fill="#FBFB77" style="stroke:#A80036;stroke-width:4.0;"/><text fill="#000000" font-family="sans-serif" font-size="52" lengthAdjust="spacing" textLength="548" x="1332" y="464.1881">measures elapsed time</text></g><g id="elem_GMN18"><path d="M1320,828.6 L1320,868 L1179.6,884 L1320,900 L1320,939.4241 A0,0 0 0 0 1320,939.4241 L1968,939.4241 A0,0 0 0 0 1968,939.4241 L1968,868.6 L1928,828.6 L1320,828.6 A0,0 0 0 0 1320,828.6 " fill="#FBFB77" filter="url(#f12t8egcczqxao)" style="stroke:#A80036;stroke-width:4.0;"/><path d="M1928,828.6 L1928,868.6 L1968,868.6 L1928,828.6 " fill="#FBFB77" style="stroke:#A80036;stroke-width:4.0;"/><text fill="#000000" font-family="sans-serif" font-size="52" lengthAdjust="spacing" textLength="564" x="1344" y="904.1881">displays measured time</text></g><!--link *start* to idle--><g id="link_*start*_idle"><path d="M656,105.04 C656,159.8 656,240.28 656,318.08 " fill="none" id="*start*-to-idle" style="stroke:#A80036;stroke-width:4.0;"/><polygon fill="#A80036" points="656,342.08,672,306.08,656,322.08,640,306.08,656,342.08" style="stroke:#A80036;stroke-width:4.0;"/></g><!--link idle to *end*--><g id="link_idle_*end*"><path d="M677.84,544.8 C718.2,723.8 797.6433,1076.1473 825.5633,1200.0273 " fill="none" id="idle-to-*end*" style="stroke:#A80036;stroke-width:4.0;"/><polygon fill="#A80036" points="830.84,1223.44,838.5334,1184.8031,826.4427,1203.9294,807.3164,1191.8387,830.84,1223.44" style="stroke:#A80036;stroke-width:4.0;"/></g><!--link idle to started--><g id="link_idle_started"><path d="M757.36,444 C803.12,444 824.88,444 870.68,444 " fill="none" id="idle-to-started" style="stroke:#A80036;stroke-width:4.0;"/><polygon fill="#A80036" points="894.68,444,858.68,428,874.68,444,858.68,460,894.68,444" style="stroke:#A80036;stroke-width:4.0;"/></g><!--link started to stopped--><g id="link_started_stopped"><path d="M986.44,544.96 C975.32,616.08 971.1471,688.547 980.9871,759.587 " fill="none" id="started-to-stopped" style="stroke:#A80036;stroke-width:4.0;"/><polygon fill="#A80036" points="984.28,783.36,995.1894,745.5052,981.5359,763.5491,963.492,749.8957,984.28,783.36" style="stroke:#A80036;stroke-width:4.0;"/></g><!--link stopped to started--><g id="link_stopped_started"><path d="M1073.48,783.36 C1084.68,712.32 1088.8361,639.8553 1079.0361,568.7353 " fill="none" id="stopped-to-started" style="stroke:#A80036;stroke-width:4.0;"/><polygon fill="#A80036" points="1075.76,544.96,1064.824,582.8071,1078.4901,564.7728,1096.5244,578.4389,1075.76,544.96" style="stroke:#A80036;stroke-width:4.0;"/></g><!--link stopped to *end*--><g id="link_stopped_*end*"><path d="M979.6,984.84 C940,1064.04 896.847,1150.2507 869.047,1205.8907 " fill="none" id="stopped-to-*end*" style="stroke:#A80036;stroke-width:4.0;"/><polygon fill="#A80036" points="858.32,1227.36,888.7233,1202.3073,867.2591,1209.4689,860.0975,1188.0047,858.32,1227.36" style="stroke:#A80036;stroke-width:4.0;"/></g><!--link stopped to idle--><g id="link_stopped_idle"><path d="M944.8,783.36 C883.6,712.32 816.4261,634.2617 755.1461,563.1417 " fill="none" id="stopped-to-idle" style="stroke:#A80036;stroke-width:4.0;"/><polygon fill="#A80036" points="739.48,544.96,750.858,582.6766,752.5351,560.1114,775.1003,561.7884,739.48,544.96" style="stroke:#A80036;stroke-width:4.0;"/></g><!--SRC=[XP2x3i8m34LtVyNTAY5rOsBeZo26YBeGaJQHxGh1rzE7nMC0bbWwEhwseyUG65lIInmWMPbelpcWhXl4DZ5Lyxl3DKHJT5amAWlDS74cbsZ8naZS6NA7rM-ZbXHkYZjB9lSRg0KnRidh4g6MIvbOvN27deEEmWfEeUYaMUnvdIBnT5x6_94zzBbZvU1jCs_yalxR_iX_7ULi_Re7]--></g></svg>