<svg xmlns="http://www.w3.org/2000/svg" xmlns:xlink="http://www.w3.org/1999/xlink" contentStyleType="text/css" height="576px" preserveAspectRatio="none" style="width:406px;height:576px;background:#FFFFFF;" version="1.1" viewBox="0 0 406 576" width="406px" zoomAndPan="magnify"><defs><filter height="300%" id="f1p3z25hab627w" width="300%" x="-1" y="-1"><feGaussianBlur result="blurOut" stdDeviation="4.0"/><feColorMatrix in="blurOut" result="blurOut2" type="matrix" values="0 0 0 0 0 0 0 0 0 0 0 0 0 0 0 0 0 0 .4 0"/><feOffset dx="8.0" dy="8.0" in="blurOut2" result="blurOut3"/><feBlend in="SourceGraphic" in2="blurOut3" mode="normal"/></filter></defs><g><!--cluster state1--><g id="cluster_state1"><rect fill="none" filter="url(#f1p3z25hab627w)" height="208" rx="25" ry="25" style="stroke:#A80036;stroke-width:2.0;" width="334" x="14" y="14"/><path d="M39,14 L323,14 A25,25 0 0 1 348,39 L348,62.1358 L14,62.1358 L14,39 A25,25 0 0 1 39,14 " fill="#FEFECE" style="stroke:#FEFECE;stroke-width:2.0;"/><path d="M14,62.1358 L348,62.1358 L348,197 A25,25 0 0 1 323,222 L39,222 A25,25 0 0 1 14,197 L14,62.1358 " fill="#FEFECE" style="stroke:#FEFECE;stroke-width:2.0;"/><rect fill="none" height="208" rx="25" ry="25" style="stroke:#A80036;stroke-width:2.0;" width="334" x="14" y="14"/><line style="stroke:#A80036;stroke-width:2.0;" x1="14" x2="348" y1="62.1358" y2="62.1358"/><text fill="#000000" font-family="sans-serif" font-size="28" lengthAdjust="spacing" textLength="81.1437" x="141" y="51.9319">state1</text></g><!--cluster state2--><g id="cluster_state2"><rect fill="none" filter="url(#f1p3z25hab627w)" height="224.28" rx="25" ry="25" style="stroke:#A80036;stroke-width:2.0;" width="284" x="94" y="324"/><path d="M119,324 L353,324 A25,25 0 0 1 378,349 L378,372.1358 L94,372.1358 L94,349 A25,25 0 0 1 119,324 " fill="#FEFECE" style="stroke:#FEFECE;stroke-width:2.0;"/><path d="M94,372.1358 L378,372.1358 L378,523.28 A25,25 0 0 1 353,548.28 L119,548.28 A25,25 0 0 1 94,523.28 L94,372.1358 " fill="#FEFECE" style="stroke:#FEFECE;stroke-width:2.0;"/><rect fill="none" height="224.28" rx="25" ry="25" style="stroke:#A80036;stroke-width:2.0;" width="284" x="94" y="324"/><line style="stroke:#A80036;stroke-width:2.0;" x1="94" x2="378" y1="372.1358" y2="372.1358"/><text fill="#000000" font-family="sans-serif" font-size="28" lengthAdjust="spacing" textLength="81.1437" x="196" y="361.9319">state2</text></g><g id="state1.x"><rect fill="#FEFECE" filter="url(#f1p3z25hab627w)" height="100" rx="25" ry="25" style="stroke:#A80036;stroke-width:2.0;" width="100" x="46" y="90"/><line style="stroke:#A80036;stroke-width:2.0;" x1="46" x2="146" y1="148.1358" y2="148.1358"/><text fill="#000000" font-family="sans-serif" font-size="28" lengthAdjust="spacing" textLength="14.812" x="88.594" y="129.9319">x</text></g><g id="state1.y"><rect fill="#FEFECE" filter="url(#f1p3z25hab627w)" height="100" rx="25" ry="25" style="stroke:#A80036;stroke-width:2.0;" width="100" x="216" y="90"/><line style="stroke:#A80036;stroke-width:2.0;" x1="216" x2="316" y1="148.1358" y2="148.1358"/><text fill="#000000" font-family="sans-serif" font-size="28" lengthAdjust="spacing" textLength="14.2799" x="258.86" y="129.9319">y</text></g><g id="state2.z"><rect fill="#FEFECE" filter="url(#f1p3z25hab627w)" height="116.2717" rx="25" ry="25" style="stroke:#A80036;stroke-width:2.0;" width="220.3754" x="125.82" y="400"/><line style="stroke:#A80036;stroke-width:2.0;" x1="125.82" x2="346.1954" y1="458.1358" y2="458.1358"/><text fill="#000000" font-family="sans-serif" font-size="28" lengthAdjust="spacing" textLength="13.1599" x="229.4277" y="439.9319">z</text><text fill="#000000" font-family="sans-serif" font-size="28" lengthAdjust="spacing" textLength="180.3754" x="135.82" y="498.0677">it's a substate</text></g><!--link x to z--><g id="link_x_z"><path d="M111.62,190.64 C121.62,220.32 135.42,258.82 150,292 C166.06,328.52 180.9601,357.6527 198.0201,388.8327 " fill="none" id="x-to-z" style="stroke:#A80036;stroke-width:2.0;"/><polygon fill="#A80036" points="203.78,399.36,202.1583,379.7292,198.98,390.5873,188.1219,387.4091,203.78,399.36" style="stroke:#A80036;stroke-width:2.0;"/><text fill="#000000" font-family="sans-serif" font-size="26" lengthAdjust="spacing" textLength="82.8621" x="152" y="283.794">event1</text></g><!--link z to y--><g id="link_z_y"><path d="M241.44,399.18 C247.14,339.46 254.8581,258.6255 260.2381,202.3455 " fill="none" id="z-to-y" style="stroke:#A80036;stroke-width:2.0;"/><polygon fill="#A80036" points="261.38,190.4,251.7034,207.557,260.4284,200.3546,267.6308,209.0796,261.38,190.4" style="stroke:#A80036;stroke-width:2.0;"/><text fill="#000000" font-family="sans-serif" font-size="26" lengthAdjust="spacing" textLength="82.8621" x="256.56" y="283.794">event2</text></g><!--SRC=[AqvEp4bLCE8gpixCKoZABqxbuYekIIn9LG2JXWhLN0f0016gWF9gaSGguM90KMIjHYXQgv2KSLKfM2babgWNAoGg59ScWHLmSLKewEhQAO2aKijIyqeCWQf00fKm0IC0]--></g></svg>