<svg xmlns="http://www.w3.org/2000/svg" xmlns:xlink="http://www.w3.org/1999/xlink" contentStyleType="text/css" height="468px" preserveAspectRatio="none" style="width:996px;height:468px;background:#FFFFFF;" version="1.1" viewBox="0 0 996 468" width="996px" zoomAndPan="magnify"><defs/><g><line style="stroke:#333333;stroke-width:3.0;" x1="20" x2="20" y1="20" y2="406.4075"/><line style="stroke:#333333;stroke-width:3.0;" x1="962.7849" x2="962.7849" y1="20" y2="406.4075"/><line style="stroke:#333333;stroke-width:1.0;stroke-dasharray:3.0,5.0;" x1="152.7849" x2="152.7849" y1="20" y2="406.4075"/><line style="stroke:#333333;stroke-width:1.0;stroke-dasharray:3.0,5.0;" x1="252.7849" x2="252.7849" y1="20" y2="406.4075"/><line style="stroke:#333333;stroke-width:1.0;stroke-dasharray:3.0,5.0;" x1="352.7849" x2="352.7849" y1="20" y2="406.4075"/><line style="stroke:#333333;stroke-width:1.0;stroke-dasharray:3.0,5.0;" x1="452.7849" x2="452.7849" y1="20" y2="406.4075"/><line style="stroke:#333333;stroke-width:1.0;stroke-dasharray:3.0,5.0;" x1="552.7849" x2="552.7849" y1="20" y2="406.4075"/><line style="stroke:#333333;stroke-width:1.0;stroke-dasharray:3.0,5.0;" x1="652.7849" x2="652.7849" y1="20" y2="406.4075"/><line style="stroke:#333333;stroke-width:1.0;stroke-dasharray:3.0,5.0;" x1="752.7849" x2="752.7849" y1="20" y2="406.4075"/><line style="stroke:#333333;stroke-width:1.0;stroke-dasharray:3.0,5.0;" x1="852.7849" x2="852.7849" y1="20" y2="406.4075"/><line style="stroke:#333333;stroke-width:1.0;stroke-dasharray:3.0,5.0;" x1="952.7849" x2="952.7849" y1="20" y2="406.4075"/><line style="stroke:#333333;stroke-width:3.0;" x1="20" x2="962.7849" y1="20" y2="20"/><text fill="#333333" font-family="sans-serif" font-size="28" font-weight="bold" lengthAdjust="spacing" textLength="186.1993" x="30" y="49.9319">DNS Resolver</text><line style="stroke:#333333;stroke-width:3.0;" x1="20" x2="218.1993" y1="60.1358" y2="60.1358"/><line style="stroke:#333333;stroke-width:3.0;" x1="218.1993" x2="238.1993" y1="60.1358" y2="20"/><text fill="#333333" font-family="sans-serif" font-size="24" lengthAdjust="spacing" textLength="42.6243" x="30" y="121.4479">Idle</text><text fill="#333333" font-family="sans-serif" font-size="24" lengthAdjust="spacing" textLength="122.7849" x="30" y="81.4479">Processing</text><line style="stroke:#006400;stroke-width:4.0;" x1="152.7849" x2="552.7849" y1="110.1358" y2="110.1358"/><line style="stroke:#006400;stroke-width:4.0;" x1="552.7849" x2="852.7849" y1="70.1358" y2="70.1358"/><line style="stroke:#006400;stroke-width:4.0;" x1="852.7849" x2="952.7849" y1="110.1358" y2="110.1358"/><line style="stroke:#006400;stroke-width:4.0;" x1="552.7849" x2="552.7849" y1="70.1358" y2="110.1358"/><line style="stroke:#006400;stroke-width:4.0;" x1="852.7849" x2="852.7849" y1="70.1358" y2="110.1358"/><line style="stroke:#333333;stroke-width:3.0;" x1="20" x2="962.7849" y1="134.1358" y2="134.1358"/><text fill="#333333" font-family="sans-serif" font-size="28" font-weight="bold" lengthAdjust="spacing" textLength="184.6313" x="30" y="164.0677">Web Browser</text><line style="stroke:#333333;stroke-width:3.0;" x1="20" x2="216.6313" y1="174.2717" y2="174.2717"/><line style="stroke:#333333;stroke-width:3.0;" x1="216.6313" x2="236.6313" y1="174.2717" y2="134.1358"/><text fill="#333333" font-family="sans-serif" font-size="24" lengthAdjust="spacing" textLength="42.6243" x="30" y="275.5837">Idle</text><text fill="#333333" font-family="sans-serif" font-size="24" lengthAdjust="spacing" textLength="122.7849" x="30" y="235.5837">Processing</text><text fill="#333333" font-family="sans-serif" font-size="24" lengthAdjust="spacing" textLength="86.4246" x="30" y="195.5837">Waiting</text><line style="stroke:#006400;stroke-width:4.0;" x1="152.7849" x2="252.7849" y1="264.2717" y2="264.2717"/><line style="stroke:#006400;stroke-width:4.0;" x1="252.7849" x2="452.7849" y1="224.2717" y2="224.2717"/><line style="stroke:#006400;stroke-width:4.0;" x1="452.7849" x2="952.7849" y1="184.2717" y2="184.2717"/><line style="stroke:#006400;stroke-width:4.0;" x1="252.7849" x2="252.7849" y1="224.2717" y2="264.2717"/><line style="stroke:#006400;stroke-width:4.0;" x1="452.7849" x2="452.7849" y1="184.2717" y2="224.2717"/><line style="stroke:#333333;stroke-width:3.0;" x1="20" x2="962.7849" y1="288.2717" y2="288.2717"/><text fill="#333333" font-family="sans-serif" font-size="28" font-weight="bold" lengthAdjust="spacing" textLength="132.9715" x="30" y="318.2035">Web User</text><line style="stroke:#333333;stroke-width:3.0;" x1="20" x2="164.9715" y1="328.4075" y2="328.4075"/><line style="stroke:#333333;stroke-width:3.0;" x1="164.9715" x2="184.9715" y1="328.4075" y2="288.2717"/><polygon fill="#CCCCCC" points="176.7849,338.4075,228.7849,338.4075,252.7849,362.4075,228.7849,386.4075,176.7849,386.4075,152.7849,362.4075" style="stroke:#006400;stroke-width:3.0;"/><polygon fill="#CCCCCC" points="276.7849,338.4075,952.7849,338.4075,952.7849,386.4075,276.7849,386.4075,252.7849,362.4075" style="stroke:#CCCCCC;stroke-width:3.0;"/><path d="M952.7849,338.4075 L276.7849,338.4075 L252.7849,362.4075 L276.7849,386.4075 L952.7849,386.4075 " fill="#CCCCCC" style="stroke:#006400;stroke-width:3.0;"/><text fill="#333333" font-family="sans-serif" font-size="24" font-weight="bold" lengthAdjust="spacing" textLength="46.0323" x="179.7688" y="371.7196">Idle</text><text fill="#333333" font-family="sans-serif" font-size="24" font-weight="bold" lengthAdjust="spacing" textLength="93.7206" x="276.7849" y="371.7196">Waiting</text><line style="stroke:#333333;stroke-width:3.0;" x1="152.7849" x2="152.7849" y1="406.4075" y2="416.4075"/><line style="stroke:#333333;stroke-width:3.0;" x1="252.7849" x2="252.7849" y1="406.4075" y2="416.4075"/><line style="stroke:#333333;stroke-width:3.0;" x1="352.7849" x2="352.7849" y1="406.4075" y2="416.4075"/><line style="stroke:#333333;stroke-width:3.0;" x1="452.7849" x2="452.7849" y1="406.4075" y2="416.4075"/><line style="stroke:#333333;stroke-width:3.0;" x1="552.7849" x2="552.7849" y1="406.4075" y2="416.4075"/><line style="stroke:#333333;stroke-width:3.0;" x1="652.7849" x2="652.7849" y1="406.4075" y2="416.4075"/><line style="stroke:#333333;stroke-width:3.0;" x1="752.7849" x2="752.7849" y1="406.4075" y2="416.4075"/><line style="stroke:#333333;stroke-width:3.0;" x1="852.7849" x2="852.7849" y1="406.4075" y2="416.4075"/><line style="stroke:#333333;stroke-width:3.0;" x1="952.7849" x2="952.7849" y1="406.4075" y2="416.4075"/><line style="stroke:#333333;stroke-width:3.0;" x1="152.7849" x2="952.7849" y1="406.4075" y2="406.4075"/><text fill="#333333" font-family="sans-serif" font-size="22" lengthAdjust="spacing" textLength="12.5839" x="146.493" y="441.9253">0</text><text fill="#333333" font-family="sans-serif" font-size="22" lengthAdjust="spacing" textLength="37.7517" x="233.9091" y="441.9253">100</text><text fill="#333333" font-family="sans-serif" font-size="22" lengthAdjust="spacing" textLength="37.7517" x="433.9091" y="441.9253">300</text><text fill="#333333" font-family="sans-serif" font-size="22" lengthAdjust="spacing" textLength="37.7517" x="533.9091" y="441.9253">400</text><text fill="#333333" font-family="sans-serif" font-size="22" lengthAdjust="spacing" textLength="37.7517" x="833.9091" y="441.9253">700</text><line style="stroke:#00008B;stroke-width:3.0;" x1="252.7849" x2="252.7849" y1="362.4075" y2="264.2717"/><polygon fill="#00008B" points="258.2572,279.3067,247.3126,279.3067,252.7849,264.2717" style="stroke:#00008B;stroke-width:3.0;"/><text fill="#00008B" font-family="Serif" font-size="28" lengthAdjust="spacing" textLength="55.8878" x="252.7849" y="309.2386">URL</text><line style="stroke:#00008B;stroke-width:3.0;" x1="452.7849" x2="502.7849" y1="184.2717" y2="110.1358"/><polygon fill="#00008B" points="498.9149,125.6608,489.8411,119.541,502.7849,110.1358" style="stroke:#00008B;stroke-width:3.0;"/><text fill="#00008B" font-family="Serif" font-size="28" lengthAdjust="spacing" textLength="165.1714" x="494.378" y="152.5328">Resolve URL</text><!--SRC=[NO_12i8m38RlUOgmwn3cn8i7ASMB82AJqlDMWnH72ytKrxUTjQAta2__zxTi-f6m1RvPXy4p0GG_t7d2QdSyOqVinmU52dl6k2XGqu0o-2TdfYKOxunbUZDLW08G3MY5bd5_6GcqB6Eg-CmWwcKp7owsKOSRLDqXvtHl9-kkENeAtX1pMiHGcqBoxoegeblKwoPwyYTcNsx9nR-crHUa5xq0]--></g></svg>