<svg xmlns="http://www.w3.org/2000/svg" xmlns:xlink="http://www.w3.org/1999/xlink" contentStyleType="text/css" height="810px" preserveAspectRatio="none" style="width:922px;height:810px;background:#FFFFFF;" version="1.1" viewBox="0 0 922 810" width="922px" zoomAndPan="magnify"><defs/><g><line style="stroke:#333333;stroke-width:3.0;" x1="20" x2="20" y1="20" y2="748.5433"/><line style="stroke:#333333;stroke-width:3.0;" x1="888.2355" x2="888.2355" y1="20" y2="748.5433"/><line style="stroke:#333333;stroke-width:1.0;stroke-dasharray:3.0,5.0;" x1="178.2355" x2="178.2355" y1="20" y2="748.5433"/><line style="stroke:#333333;stroke-width:1.0;stroke-dasharray:3.0,5.0;" x1="278.2355" x2="278.2355" y1="20" y2="748.5433"/><line style="stroke:#333333;stroke-width:1.0;stroke-dasharray:3.0,5.0;" x1="378.2355" x2="378.2355" y1="20" y2="748.5433"/><line style="stroke:#333333;stroke-width:1.0;stroke-dasharray:3.0,5.0;" x1="478.2355" x2="478.2355" y1="20" y2="748.5433"/><line style="stroke:#333333;stroke-width:1.0;stroke-dasharray:3.0,5.0;" x1="578.2355" x2="578.2355" y1="20" y2="748.5433"/><line style="stroke:#333333;stroke-width:1.0;stroke-dasharray:3.0,5.0;" x1="678.2355" x2="678.2355" y1="20" y2="748.5433"/><line style="stroke:#333333;stroke-width:1.0;stroke-dasharray:3.0,5.0;" x1="778.2355" x2="778.2355" y1="20" y2="748.5433"/><line style="stroke:#333333;stroke-width:1.0;stroke-dasharray:3.0,5.0;" x1="878.2355" x2="878.2355" y1="20" y2="748.5433"/><line style="stroke:#333333;stroke-width:3.0;" x1="20" x2="888.2355" y1="20" y2="20"/><text fill="#333333" font-family="sans-serif" font-size="28" font-weight="bold" lengthAdjust="spacing" textLength="102.9836" x="30" y="49.9319">Clock_0</text><line style="stroke:#333333;stroke-width:3.0;" x1="20" x2="134.9836" y1="60.1358" y2="60.1358"/><line style="stroke:#333333;stroke-width:3.0;" x1="134.9836" x2="154.9836" y1="60.1358" y2="20"/><line style="stroke:#006400;stroke-width:3.0;" x1="178.2355" x2="178.2355" y1="74.1358" y2="102.1358"/><line style="stroke:#006400;stroke-width:3.0;" x1="178.2355" x2="228.2355" y1="74.1358" y2="74.1358"/><line style="stroke:#006400;stroke-width:3.0;" x1="228.2355" x2="228.2355" y1="74.1358" y2="102.1358"/><line style="stroke:#006400;stroke-width:3.0;" x1="228.2355" x2="278.2355" y1="102.1358" y2="102.1358"/><line style="stroke:#006400;stroke-width:3.0;" x1="278.2355" x2="278.2355" y1="74.1358" y2="102.1358"/><line style="stroke:#006400;stroke-width:3.0;" x1="278.2355" x2="328.2355" y1="74.1358" y2="74.1358"/><line style="stroke:#006400;stroke-width:3.0;" x1="328.2355" x2="328.2355" y1="74.1358" y2="102.1358"/><line style="stroke:#006400;stroke-width:3.0;" x1="328.2355" x2="378.2355" y1="102.1358" y2="102.1358"/><line style="stroke:#006400;stroke-width:3.0;" x1="378.2355" x2="378.2355" y1="74.1358" y2="102.1358"/><line style="stroke:#006400;stroke-width:3.0;" x1="378.2355" x2="428.2355" y1="74.1358" y2="74.1358"/><line style="stroke:#006400;stroke-width:3.0;" x1="428.2355" x2="428.2355" y1="74.1358" y2="102.1358"/><line style="stroke:#006400;stroke-width:3.0;" x1="428.2355" x2="478.2355" y1="102.1358" y2="102.1358"/><line style="stroke:#006400;stroke-width:3.0;" x1="478.2355" x2="478.2355" y1="74.1358" y2="102.1358"/><line style="stroke:#006400;stroke-width:3.0;" x1="478.2355" x2="528.2355" y1="74.1358" y2="74.1358"/><line style="stroke:#006400;stroke-width:3.0;" x1="528.2355" x2="528.2355" y1="74.1358" y2="102.1358"/><line style="stroke:#006400;stroke-width:3.0;" x1="528.2355" x2="578.2355" y1="102.1358" y2="102.1358"/><line style="stroke:#006400;stroke-width:3.0;" x1="578.2355" x2="578.2355" y1="74.1358" y2="102.1358"/><line style="stroke:#006400;stroke-width:3.0;" x1="578.2355" x2="628.2355" y1="74.1358" y2="74.1358"/><line style="stroke:#006400;stroke-width:3.0;" x1="628.2355" x2="628.2355" y1="74.1358" y2="102.1358"/><line style="stroke:#006400;stroke-width:3.0;" x1="628.2355" x2="678.2355" y1="102.1358" y2="102.1358"/><line style="stroke:#006400;stroke-width:3.0;" x1="678.2355" x2="678.2355" y1="74.1358" y2="102.1358"/><line style="stroke:#006400;stroke-width:3.0;" x1="678.2355" x2="728.2355" y1="74.1358" y2="74.1358"/><line style="stroke:#006400;stroke-width:3.0;" x1="728.2355" x2="728.2355" y1="74.1358" y2="102.1358"/><line style="stroke:#006400;stroke-width:3.0;" x1="728.2355" x2="778.2355" y1="102.1358" y2="102.1358"/><line style="stroke:#006400;stroke-width:3.0;" x1="778.2355" x2="778.2355" y1="74.1358" y2="102.1358"/><line style="stroke:#006400;stroke-width:3.0;" x1="778.2355" x2="828.2355" y1="74.1358" y2="74.1358"/><line style="stroke:#006400;stroke-width:3.0;" x1="828.2355" x2="828.2355" y1="74.1358" y2="102.1358"/><line style="stroke:#006400;stroke-width:3.0;" x1="828.2355" x2="878.2355" y1="102.1358" y2="102.1358"/><line style="stroke:#006400;stroke-width:3.0;" x1="878.2355" x2="878.2355" y1="74.1358" y2="102.1358"/><line style="stroke:#006400;stroke-width:3.0;" x1="878.2355" x2="878.2355" y1="74.1358" y2="74.1358"/><line style="stroke:#333333;stroke-width:3.0;" x1="20" x2="888.2355" y1="118.1358" y2="118.1358"/><text fill="#333333" font-family="sans-serif" font-size="28" font-weight="bold" lengthAdjust="spacing" textLength="102.9836" x="30" y="148.0677">Clock_1</text><line style="stroke:#333333;stroke-width:3.0;" x1="20" x2="134.9836" y1="158.2717" y2="158.2717"/><line style="stroke:#333333;stroke-width:3.0;" x1="134.9836" x2="154.9836" y1="158.2717" y2="118.1358"/><line style="stroke:#006400;stroke-width:3.0;" x1="178.2355" x2="198.2355" y1="200.2717" y2="200.2717"/><line style="stroke:#006400;stroke-width:3.0;" x1="198.2355" x2="198.2355" y1="172.2717" y2="200.2717"/><line style="stroke:#006400;stroke-width:3.0;" x1="198.2355" x2="228.2355" y1="172.2717" y2="172.2717"/><line style="stroke:#006400;stroke-width:3.0;" x1="228.2355" x2="228.2355" y1="172.2717" y2="200.2717"/><line style="stroke:#006400;stroke-width:3.0;" x1="228.2355" x2="298.2355" y1="200.2717" y2="200.2717"/><line style="stroke:#006400;stroke-width:3.0;" x1="298.2355" x2="298.2355" y1="172.2717" y2="200.2717"/><line style="stroke:#006400;stroke-width:3.0;" x1="298.2355" x2="328.2355" y1="172.2717" y2="172.2717"/><line style="stroke:#006400;stroke-width:3.0;" x1="328.2355" x2="328.2355" y1="172.2717" y2="200.2717"/><line style="stroke:#006400;stroke-width:3.0;" x1="328.2355" x2="398.2355" y1="200.2717" y2="200.2717"/><line style="stroke:#006400;stroke-width:3.0;" x1="398.2355" x2="398.2355" y1="172.2717" y2="200.2717"/><line style="stroke:#006400;stroke-width:3.0;" x1="398.2355" x2="428.2355" y1="172.2717" y2="172.2717"/><line style="stroke:#006400;stroke-width:3.0;" x1="428.2355" x2="428.2355" y1="172.2717" y2="200.2717"/><line style="stroke:#006400;stroke-width:3.0;" x1="428.2355" x2="498.2355" y1="200.2717" y2="200.2717"/><line style="stroke:#006400;stroke-width:3.0;" x1="498.2355" x2="498.2355" y1="172.2717" y2="200.2717"/><line style="stroke:#006400;stroke-width:3.0;" x1="498.2355" x2="528.2355" y1="172.2717" y2="172.2717"/><line style="stroke:#006400;stroke-width:3.0;" x1="528.2355" x2="528.2355" y1="172.2717" y2="200.2717"/><line style="stroke:#006400;stroke-width:3.0;" x1="528.2355" x2="598.2355" y1="200.2717" y2="200.2717"/><line style="stroke:#006400;stroke-width:3.0;" x1="598.2355" x2="598.2355" y1="172.2717" y2="200.2717"/><line style="stroke:#006400;stroke-width:3.0;" x1="598.2355" x2="628.2355" y1="172.2717" y2="172.2717"/><line style="stroke:#006400;stroke-width:3.0;" x1="628.2355" x2="628.2355" y1="172.2717" y2="200.2717"/><line style="stroke:#006400;stroke-width:3.0;" x1="628.2355" x2="698.2355" y1="200.2717" y2="200.2717"/><line style="stroke:#006400;stroke-width:3.0;" x1="698.2355" x2="698.2355" y1="172.2717" y2="200.2717"/><line style="stroke:#006400;stroke-width:3.0;" x1="698.2355" x2="728.2355" y1="172.2717" y2="172.2717"/><line style="stroke:#006400;stroke-width:3.0;" x1="728.2355" x2="728.2355" y1="172.2717" y2="200.2717"/><line style="stroke:#006400;stroke-width:3.0;" x1="728.2355" x2="798.2355" y1="200.2717" y2="200.2717"/><line style="stroke:#006400;stroke-width:3.0;" x1="798.2355" x2="798.2355" y1="172.2717" y2="200.2717"/><line style="stroke:#006400;stroke-width:3.0;" x1="798.2355" x2="828.2355" y1="172.2717" y2="172.2717"/><line style="stroke:#006400;stroke-width:3.0;" x1="828.2355" x2="828.2355" y1="172.2717" y2="200.2717"/><line style="stroke:#006400;stroke-width:3.0;" x1="828.2355" x2="878.2355" y1="200.2717" y2="200.2717"/><line style="stroke:#333333;stroke-width:3.0;" x1="20" x2="888.2355" y1="216.2717" y2="216.2717"/><text fill="#333333" font-family="sans-serif" font-size="28" font-weight="bold" lengthAdjust="spacing" textLength="91.3076" x="30" y="257.1356">Binary</text><line style="stroke:#333333;stroke-width:3.0;" x1="178.2355" x2="378.2355" y1="260.2717" y2="260.2717"/><line style="stroke:#333333;stroke-width:3.0;" x1="378.2355" x2="378.2355" y1="232.2717" y2="260.2717"/><line style="stroke:#333333;stroke-width:3.0;" x1="378.2355" x2="878.2355" y1="232.2717" y2="232.2717"/><line style="stroke:#333333;stroke-width:3.0;" x1="20" x2="888.2355" y1="276.2717" y2="276.2717"/><text fill="#333333" font-family="sans-serif" font-size="28" font-weight="bold" lengthAdjust="spacing" textLength="106.9596" x="30" y="306.2035">Concise</text><line style="stroke:#333333;stroke-width:3.0;" x1="20" x2="138.9596" y1="316.4075" y2="316.4075"/><line style="stroke:#333333;stroke-width:3.0;" x1="138.9596" x2="158.9596" y1="316.4075" y2="276.2717"/><polygon fill="#CCCCCC" points="202.2355,326.4075,354.2355,326.4075,378.2355,350.4075,354.2355,374.4075,202.2355,374.4075,178.2355,350.4075" style="stroke:#006400;stroke-width:3.0;"/><polygon fill="#CCCCCC" points="402.2355,326.4075,878.2355,326.4075,878.2355,374.4075,402.2355,374.4075,378.2355,350.4075" style="stroke:#CCCCCC;stroke-width:3.0;"/><path d="M878.2355,326.4075 L402.2355,326.4075 L378.2355,350.4075 L402.2355,374.4075 L878.2355,374.4075 " fill="#CCCCCC" style="stroke:#006400;stroke-width:3.0;"/><text fill="#333333" font-family="sans-serif" font-size="24" font-weight="bold" lengthAdjust="spacing" textLength="46.0323" x="255.2193" y="359.7196">Idle</text><text fill="#333333" font-family="sans-serif" font-size="24" font-weight="bold" lengthAdjust="spacing" textLength="93.7206" x="402.2355" y="359.7196">Waiting</text><line style="stroke:#333333;stroke-width:3.0;" x1="20" x2="888.2355" y1="394.4075" y2="394.4075"/><text fill="#333333" font-family="sans-serif" font-size="28" font-weight="bold" lengthAdjust="spacing" textLength="97.9996" x="30" y="424.3394">Robust</text><line style="stroke:#333333;stroke-width:3.0;" x1="20" x2="129.9996" y1="434.5433" y2="434.5433"/><line style="stroke:#333333;stroke-width:3.0;" x1="129.9996" x2="149.9996" y1="434.5433" y2="394.4075"/><text fill="#333333" font-family="sans-serif" font-size="24" lengthAdjust="spacing" textLength="42.6243" x="45.4506" y="535.8554">Idle</text><text fill="#333333" font-family="sans-serif" font-size="24" lengthAdjust="spacing" textLength="122.7849" x="45.4506" y="495.8554">Processing</text><text fill="#333333" font-family="sans-serif" font-size="24" lengthAdjust="spacing" textLength="86.4246" x="45.4506" y="455.8554">Waiting</text><line style="stroke:#006400;stroke-width:4.0;" x1="178.2355" x2="378.2355" y1="524.5433" y2="524.5433"/><line style="stroke:#006400;stroke-width:4.0;" x1="378.2355" x2="778.2355" y1="484.5433" y2="484.5433"/><line style="stroke:#006400;stroke-width:4.0;" x1="778.2355" x2="878.2355" y1="444.5433" y2="444.5433"/><line style="stroke:#006400;stroke-width:4.0;" x1="378.2355" x2="378.2355" y1="484.5433" y2="524.5433"/><line style="stroke:#006400;stroke-width:4.0;" x1="778.2355" x2="778.2355" y1="444.5433" y2="484.5433"/><line style="stroke:#333333;stroke-width:3.0;" x1="20" x2="888.2355" y1="548.5433" y2="548.5433"/><text fill="#333333" font-family="sans-serif" font-size="28" font-weight="bold" lengthAdjust="spacing" textLength="98.2236" x="30" y="659.4073">Analog</text><text fill="#333333" font-family="sans-serif" font-size="28" font-weight="bold" lengthAdjust="spacing" textLength="40.0118" x="134.2236" y="743.4073">0.0</text><text fill="#333333" font-family="sans-serif" font-size="28" font-weight="bold" lengthAdjust="spacing" textLength="40.0118" x="134.2236" y="575.4073">3.0</text><line style="stroke:#333333;stroke-width:3.0;" x1="178.2355" x2="178.2355" y1="732.5433" y2="732.5433"/><line style="stroke:#333333;stroke-width:3.0;" x1="178.2355" x2="378.2355" y1="732.5433" y2="564.5433"/><line style="stroke:#333333;stroke-width:3.0;" x1="378.2355" x2="778.2355" y1="564.5433" y2="676.5433"/><line style="stroke:#333333;stroke-width:3.0;" x1="778.2355" x2="878.2355" y1="676.5433" y2="676.5433"/><line style="stroke:#333333;stroke-width:3.0;" x1="178.2355" x2="178.2355" y1="748.5433" y2="758.5433"/><line style="stroke:#333333;stroke-width:3.0;" x1="278.2355" x2="278.2355" y1="748.5433" y2="758.5433"/><line style="stroke:#333333;stroke-width:3.0;" x1="378.2355" x2="378.2355" y1="748.5433" y2="758.5433"/><line style="stroke:#333333;stroke-width:3.0;" x1="478.2355" x2="478.2355" y1="748.5433" y2="758.5433"/><line style="stroke:#333333;stroke-width:3.0;" x1="578.2355" x2="578.2355" y1="748.5433" y2="758.5433"/><line style="stroke:#333333;stroke-width:3.0;" x1="678.2355" x2="678.2355" y1="748.5433" y2="758.5433"/><line style="stroke:#333333;stroke-width:3.0;" x1="778.2355" x2="778.2355" y1="748.5433" y2="758.5433"/><line style="stroke:#333333;stroke-width:3.0;" x1="878.2355" x2="878.2355" y1="748.5433" y2="758.5433"/><line style="stroke:#333333;stroke-width:3.0;" x1="178.2355" x2="878.2355" y1="748.5433" y2="748.5433"/><text fill="#333333" font-family="sans-serif" font-size="22" lengthAdjust="spacing" textLength="12.5839" x="171.9435" y="784.0612">0</text><text fill="#333333" font-family="sans-serif" font-size="22" lengthAdjust="spacing" textLength="25.1678" x="265.6516" y="784.0612">50</text><text fill="#333333" font-family="sans-serif" font-size="22" lengthAdjust="spacing" textLength="37.7517" x="359.3596" y="784.0612">100</text><text fill="#333333" font-family="sans-serif" font-size="22" lengthAdjust="spacing" textLength="37.7517" x="759.3596" y="784.0612">300</text><!--SRC=[NOp13i8W343l_Og6Bm0NxsuxUJExU3J8S6iai50Muz_B81gpsslxNjbeP_40_2IFCR05C2wO9oAAVeER59arOo_nHMd6nKOA8nxbNbHVKUr4N5R75jKHm-F1Dg6IS2UlupktNG5HoWvCy8QoA_eAeZo46EuhfsmF1QezWFRQXIclsm9rtGB0IKAFn7WUdONXH-r6Cf-LbD1jmqpJNDMhfaH-glOb1cEPjxaqJMwQt0p_Phce3m00]--></g></svg>