<svg xmlns="http://www.w3.org/2000/svg" xmlns:xlink="http://www.w3.org/1999/xlink" contentStyleType="text/css" height="1130px" preserveAspectRatio="none" style="width:780px;height:1130px;background:#FFFFFF;" version="1.1" viewBox="0 0 780 1130" width="780px" zoomAndPan="magnify"><defs><filter height="300%" id="fpbj1qs091fm1" width="300%" x="-1" y="-1"><feGaussianBlur result="blurOut" stdDeviation="4.0"/><feColorMatrix in="blurOut" result="blurOut2" type="matrix" values="0 0 0 0 0 0 0 0 0 0 0 0 0 0 0 0 0 0 .4 0"/><feOffset dx="8.0" dy="8.0" in="blurOut2" result="blurOut3"/><feBlend in="SourceGraphic" in2="blurOut3" mode="normal"/></filter></defs><g><!--cluster users--><g id="cluster_users"><polygon fill="none" filter="url(#fpbj1qs091fm1)" points="32,202,119.4877,202,133.4877,252.1358,238.02,252.1358,238.02,724,32,724,32,202" style="stroke:#000000;stroke-width:3.0;"/><line style="stroke:#000000;stroke-width:3.0;" x1="32" x2="133.4877" y1="252.1358" y2="252.1358"/><text fill="#000000" font-family="sans-serif" font-size="28" font-weight="bold" lengthAdjust="spacing" textLength="75.4877" x="40" y="235.9319">users</text></g><!--cluster social media platform--><g id="cluster_social media platform"><rect fill="none" filter="url(#fpbj1qs091fm1)" height="1092" style="stroke:#000000;stroke-width:3.0;" width="471.16" x="286.02" y="14"/><text fill="#000000" font-family="sans-serif" font-size="28" font-weight="bold" lengthAdjust="spacing" textLength="305.1148" x="369.0426" y="47.9319">social media platform</text></g><!--cluster user management--><g id="cluster_user management"><polygon fill="none" filter="url(#fpbj1qs091fm1)" points="378.6,608,648.031,608,662.031,658.1358,666.6,658.1358,666.6,1058,378.6,1058,378.6,608" style="stroke:#000000;stroke-width:3.0;"/><line style="stroke:#000000;stroke-width:3.0;" x1="378.6" x2="662.031" y1="658.1358" y2="658.1358"/><text fill="#000000" font-family="sans-serif" font-size="28" font-weight="bold" lengthAdjust="spacing" textLength="257.431" x="386.6" y="641.9319">user management</text></g><!--cluster content management--><g id="cluster_content management"><polygon fill="none" filter="url(#fpbj1qs091fm1)" points="334.02,106,651.2468,106,665.2468,156.1358,709.18,156.1358,709.18,560,334.02,560,334.02,106" style="stroke:#000000;stroke-width:3.0;"/><line style="stroke:#000000;stroke-width:3.0;" x1="334.02" x2="665.2468" y1="156.1358" y2="156.1358"/><text fill="#000000" font-family="sans-serif" font-size="28" font-weight="bold" lengthAdjust="spacing" textLength="305.2268" x="342.02" y="139.9319">content management</text></g><!--entity moderator--><g id="elem_moderator"><ellipse cx="135.0078" cy="297.94" fill="#FEFECE" filter="url(#fpbj1qs091fm1)" rx="16" ry="16" style="stroke:#A80036;stroke-width:4.0;"/><path d="M135.0078,313.94 L135.0078,367.94 M109.0078,329.94 L161.0078,329.94 M135.0078,367.94 L109.0078,397.94 M135.0078,367.94 L161.0078,397.94 " fill="none" filter="url(#fpbj1qs091fm1)" style="stroke:#A80036;stroke-width:4.0;"/><text fill="#000000" font-family="sans-serif" font-size="28" lengthAdjust="spacing" textLength="142.0155" x="64" y="441.8719">moderator</text></g><!--entity user--><g id="elem_user"><ellipse cx="135" cy="539.94" fill="#FEFECE" filter="url(#fpbj1qs091fm1)" rx="16" ry="16" style="stroke:#A80036;stroke-width:4.0;"/><path d="M135,555.94 L135,609.94 M109,571.94 L161,571.94 M135,609.94 L109,639.94 M135,609.94 L161,639.94 " fill="none" filter="url(#fpbj1qs091fm1)" style="stroke:#A80036;stroke-width:4.0;"/><text fill="#000000" font-family="sans-serif" font-size="28" lengthAdjust="spacing" textLength="58.0718" x="105.9641" y="683.8719">user</text></g><g id="elem_su"><ellipse cx="521.6085" cy="991.9916" fill="#FEFECE" filter="url(#fpbj1qs091fm1)" rx="93.7085" ry="33.6516" style="stroke:#A80036;stroke-width:2.0;"/><text fill="#000000" font-family="sans-serif" font-size="28" lengthAdjust="spacing" textLength="96.9636" x="467.1267" y="1001.4575">sign up</text></g><g id="elem_li"><ellipse cx="521.6056" cy="854.0066" fill="#FEFECE" filter="url(#fpbj1qs091fm1)" rx="75.7456" ry="33.3666" style="stroke:#A80036;stroke-width:2.0;"/><text fill="#000000" font-family="sans-serif" font-size="28" lengthAdjust="spacing" textLength="73.1917" x="479.0097" y="863.4725">log in</text></g><g id="elem_lo"><ellipse cx="521.6044" cy="717.992" fill="#FEFECE" filter="url(#fpbj1qs091fm1)" rx="90.7244" ry="33.612" style="stroke:#A80036;stroke-width:2.0;"/><text fill="#000000" font-family="sans-serif" font-size="28" lengthAdjust="spacing" textLength="93.0157" x="469.0966" y="727.4579">log out</text></g><g id="elem_p"><ellipse cx="521.5937" cy="493.9943" fill="#FEFECE" filter="url(#fpbj1qs091fm1)" rx="64.0737" ry="33.1143" style="stroke:#A80036;stroke-width:2.0;"/><text fill="#000000" font-family="sans-serif" font-size="28" lengthAdjust="spacing" textLength="57.6798" x="488.4665" y="502.86">post</text></g><g id="elem_ep"><ellipse cx="521.594" cy="358.007" fill="#FEFECE" filter="url(#fpbj1qs091fm1)" rx="107.574" ry="33.807" style="stroke:#A80036;stroke-width:2.0;"/><text fill="#000000" font-family="sans-serif" font-size="28" lengthAdjust="spacing" textLength="115.3036" x="457.9422" y="367.4729">edit post</text></g><g id="elem_mp"><ellipse cx="521.6053" cy="217.9971" fill="#FEFECE" filter="url(#fpbj1qs091fm1)" rx="155.5853" ry="35.9171" style="stroke:#A80036;stroke-width:2.0;"/><text fill="#000000" font-family="sans-serif" font-size="28" lengthAdjust="spacing" textLength="194.2633" x="418.4736" y="227.463">moderate post</text></g><!--link user to su--><g id="link_user_su"><path d="M151.94,692.58 C168.68,763.94 202.84,862.74 270.02,922 C313.72,960.56 365.2144,976.229 417.1544,984.069 " fill="none" id="user-to-su" style="stroke:#A80036;stroke-width:2.0;"/><polygon fill="#A80036" points="429.02,985.86,412.4156,975.2631,419.132,984.3675,410.0276,991.0838,429.02,985.86" style="stroke:#A80036;stroke-width:2.0;"/></g><!--link user to li--><g id="link_user_li"><path d="M165.56,662.76 C188.54,702.86 224.48,754.84 270.02,786 C322.64,822.02 381.8146,837.2074 434.6346,845.1874 " fill="none" id="user-to-li" style="stroke:#A80036;stroke-width:2.0;"/><polygon fill="#A80036" points="446.5,846.98,429.897,836.3809,436.6122,845.4862,427.5069,852.2013,446.5,846.98" style="stroke:#A80036;stroke-width:2.0;"/></g><!--link user to lo--><g id="link_user_lo"><path d="M165.76,614.42 C225.38,631.86 352.4037,669.0475 437.3637,693.9275 " fill="none" id="user-to-lo" style="stroke:#A80036;stroke-width:2.0;"/><polygon fill="#A80036" points="448.88,697.3,433.8538,684.5637,439.283,694.4896,429.3571,699.9188,448.88,697.3" style="stroke:#A80036;stroke-width:2.0;"/></g><!--link user to p--><g id="link_user_p"><path d="M165.76,597.58 C229.2,579.02 370.5034,537.6518 453.0234,513.4918 " fill="none" id="user-to-p" style="stroke:#A80036;stroke-width:2.0;"/><polygon fill="#A80036" points="464.54,510.12,445.0173,507.5,454.9429,512.9298,449.513,522.8554,464.54,510.12" style="stroke:#A80036;stroke-width:2.0;"/></g><!--link user to ep--><g id="link_user_ep"><path d="M165.84,583.86 C192.56,561.86 231.44,525.72 254.02,486 C267.64,462 250.56,445.56 270.02,426 C307.86,387.94 352.8995,372.4247 402.8195,364.7447 " fill="none" id="user-to-ep" style="stroke:#A80036;stroke-width:2.0;"/><polygon fill="#A80036" points="414.68,362.92,395.6729,357.7501,404.7963,364.4406,398.1058,373.564,414.68,362.92" style="stroke:#A80036;stroke-width:2.0;"/></g><!--link moderator to mp--><g id="link_moderator_mp"><path d="M206.62,321.38 C226.62,310.2 248.78,298.84 270.02,290 C314.78,271.38 354.3722,258.818 398.6722,246.898 " fill="none" id="moderator-to-mp" style="stroke:#A80036;stroke-width:2.0;"/><polygon fill="#A80036" points="410.26,243.78,390.7996,240.7318,400.6035,246.3783,394.9569,256.1822,410.26,243.78" style="stroke:#A80036;stroke-width:2.0;"/></g><!--reverse link user to moderator--><g id="link_user_moderator"><path d="M135,483.04 C135,460.22 135,473.42 135,450.6 " fill="none" id="user-backto-moderator" style="stroke:#A80036;stroke-width:2.0;"/><polygon fill="none" points="135,519.04,147,483.04,123,483.04,135,519.04" style="stroke:#A80036;stroke-width:2.0;"/></g><!--SRC=[VP5BZiCm28RtFWNAFfkkgxaBSgZ7gcqiGrPjxrwSfaap8zKhu8EVXyLZ8ZWvkSO2ZOLSeek2ChGOVXMcsCXhvE9SHN_5G30BDO6RGw_S8FD43SrQ_KxTmxbUXYMO-23i8oR8D4M4cb0ltF9W2c3lhJhqGiXOpCbKzCqjx56wIWm5vZe02iXyP8a3nBAW5FyZdlN5U66FOsFFHQtXjzwLvQLGZt7RI663z8Ukfw4z8zTr03lGikyu_lHbDjkctst-IAgxQMsseoy1Krqpp_VnuqFS4m00]--></g></svg>