<svg xmlns="http://www.w3.org/2000/svg" xmlns:xlink="http://www.w3.org/1999/xlink" contentStyleType="text/css" height="645px" preserveAspectRatio="none" style="width:732px;height:645px;background:#FFFFFF;" version="1.1" viewBox="0 0 732 645" width="732px" zoomAndPan="magnify"><defs><filter height="300%" id="f1n2on93epuc3a" width="300%" x="-1" y="-1"><feGaussianBlur result="blurOut" stdDeviation="6.0"/><feColorMatrix in="blurOut" result="blurOut2" type="matrix" values="0 0 0 0 0 0 0 0 0 0 0 0 0 0 0 0 0 0 .4 0"/><feOffset dx="12.0" dy="12.0" in="blurOut2" result="blurOut3"/><feBlend in="SourceGraphic" in2="blurOut3" mode="normal"/></filter></defs><g><!--entity user--><g id="elem_user"><ellipse cx="124.5" cy="42" fill="#FEFECE" filter="url(#f1n2on93epuc3a)" rx="24" ry="24" style="stroke:#A80036;stroke-width:6.0;"/><path d="M124.5,66 L124.5,147 M85.5,90 L163.5,90 M124.5,147 L85.5,192 M124.5,147 L163.5,192 " fill="none" filter="url(#f1n2on93epuc3a)" style="stroke:#A80036;stroke-width:6.0;"/><text fill="#000000" font-family="sans-serif" font-size="42" lengthAdjust="spacing" textLength="87.1077" x="80.9462" y="257.8978">user</text></g><g id="elem_sign up"><ellipse cx="551.5927" cy="117.1074" fill="#FEFECE" filter="url(#f1n2on93epuc3a)" rx="140.5627" ry="50.4774" style="stroke:#A80036;stroke-width:3.0;"/><text fill="#000000" font-family="sans-serif" font-size="42" lengthAdjust="spacing" textLength="145.4454" x="469.87" y="131.3063">sign up</text></g><g id="elem_log in"><ellipse cx="551.5884" cy="324.1299" fill="#FEFECE" filter="url(#f1n2on93epuc3a)" rx="113.6184" ry="50.0499" style="stroke:#A80036;stroke-width:3.0;"/><text fill="#000000" font-family="sans-serif" font-size="42" lengthAdjust="spacing" textLength="109.7876" x="487.6946" y="338.3288">log in</text></g><g id="elem_log out"><ellipse cx="551.5866" cy="528.108" fill="#FEFECE" filter="url(#f1n2on93epuc3a)" rx="136.0866" ry="50.418" style="stroke:#A80036;stroke-width:3.0;"/><text fill="#000000" font-family="sans-serif" font-size="42" lengthAdjust="spacing" textLength="139.5235" x="472.8248" y="542.3069">log out</text></g><!--entity moderator--><g id="elem_moderator"><ellipse cx="124.5116" cy="405" fill="#FEFECE" filter="url(#f1n2on93epuc3a)" rx="24" ry="24" style="stroke:#A80036;stroke-width:6.0;"/><path d="M124.5116,429 L124.5116,510 M85.5116,453 L163.5116,453 M124.5116,510 L85.5116,555 M124.5116,510 L163.5116,555 " fill="none" filter="url(#f1n2on93epuc3a)" style="stroke:#A80036;stroke-width:6.0;"/><text fill="#000000" font-family="sans-serif" font-size="42" lengthAdjust="spacing" textLength="213.0233" x="18" y="620.8978">moderator</text></g><!--link user to sign up--><g id="link_user_sign up"><path d="M171,138.63 C227.31,135.42 310.1391,130.6825 393.4491,125.9425 " fill="none" id="user-to-sign up" style="stroke:#A80036;stroke-width:3.0;"/><polygon fill="#A80036" points="411.42,124.92,383.7819,114.4731,396.4442,125.7721,385.1452,138.4343,411.42,124.92" style="stroke:#A80036;stroke-width:3.0;"/></g><!--link user to log in--><g id="link_user_log in"><path d="M171,159.99 C240.96,190.41 363.1421,243.5044 451.5521,281.9344 " fill="none" id="user-to-log in" style="stroke:#A80036;stroke-width:3.0;"/><polygon fill="#A80036" points="468.06,289.11,448.0819,267.3413,454.3034,283.1303,438.5144,289.3518,468.06,289.11" style="stroke:#A80036;stroke-width:3.0;"/></g><!--link user to log out--><g id="link_user_log out"><path d="M170.67,188.67 C224.58,247.11 320.76,348.03 411.03,426.12 C433.95,445.95 445.916,455.5785 469.496,472.7385 " fill="none" id="user-to-log out" style="stroke:#A80036;stroke-width:3.0;"/><polygon fill="#A80036" points="484.05,483.33,469.2799,457.7401,471.9216,474.5038,455.1579,477.1455,484.05,483.33" style="stroke:#A80036;stroke-width:3.0;"/></g><!--link moderator to sign up--><g id="link_moderator_sign up"><path d="M232.02,393.57 C284.22,340.08 349.29,275.97 411.03,222.12 C434.58,201.57 447.3,191.19 471.18,173.28 " fill="none" id="moderator-to-sign up" style="stroke:#A80036;stroke-width:3.0;"/><polygon fill="#A80036" points="485.58,162.48,456.78,169.08,473.58,171.48,471.18,188.28,485.58,162.48" style="stroke:#A80036;stroke-width:3.0;"/></g><!--link moderator to log in--><g id="link_moderator_log in"><path d="M231.6,459.6 C304.65,428.37 384.37,394.3181 451.57,365.5781 " fill="none" id="moderator-to-log in" style="stroke:#A80036;stroke-width:3.0;"/><polygon fill="#A80036" points="468.12,358.5,438.5764,358.0838,454.3284,364.3984,448.0138,380.1504,468.12,358.5" style="stroke:#A80036;stroke-width:3.0;"/></g><!--link moderator to log out--><g id="link_moderator_log out"><path d="M231.6,510.03 C287.37,513.21 338.6991,516.147 398.2491,519.537 " fill="none" id="moderator-to-log out" style="stroke:#A80036;stroke-width:3.0;"/><polygon fill="#A80036" points="416.22,520.56,389.9457,507.0449,401.2442,519.7075,388.5816,531.0061,416.22,520.56" style="stroke:#A80036;stroke-width:3.0;"/></g><!--SRC=[ROmx3e0m3CNsdkADC32nCN0N1A54b0ObwVr134XyLbksZKCYjC5Mpb0n2ebcXmkKu-AOM6bqbXn2LuoqGzFqg8nZHjdh1qmImVdBf7XzvfjCf8FBz_4sz-XFNBS3]--></g></svg>