<svg xmlns="http://www.w3.org/2000/svg" xmlns:xlink="http://www.w3.org/1999/xlink" contentStyleType="text/css" height="638px" preserveAspectRatio="none" style="width:616px;height:638px;background:#FFFFFF;" version="1.1" viewBox="0 0 616 638" width="616px" zoomAndPan="magnify"><defs><filter height="300%" id="f1mqug1urioctr" width="300%" x="-1" y="-1"><feGaussianBlur result="blurOut" stdDeviation="4.0"/><feColorMatrix in="blurOut" result="blurOut2" type="matrix" values="0 0 0 0 0 0 0 0 0 0 0 0 0 0 0 0 0 0 .4 0"/><feOffset dx="8.0" dy="8.0" in="blurOut2" result="blurOut3"/><feBlend in="SourceGraphic" in2="blurOut3" mode="normal"/></filter></defs><g><!--cluster users--><g id="cluster_users"><polygon fill="none" filter="url(#f1mqug1urioctr)" points="32,13.204,119.4877,13.204,133.4877,63.3398,238.02,63.3398,238.02,535.204,32,535.204,32,13.204" style="stroke:#000000;stroke-width:3.0;"/><line style="stroke:#000000;stroke-width:3.0;" x1="32" x2="133.4877" y1="63.3398" y2="63.3398"/><text fill="#000000" font-family="sans-serif" font-size="28" font-weight="bold" lengthAdjust="spacing" textLength="75.4877" x="40" y="47.1358">users</text></g><!--cluster user management--><g id="cluster_user management"><polygon fill="none" filter="url(#f1mqug1urioctr)" points="294.02,171.204,563.451,171.204,577.451,221.3398,582.02,221.3398,582.02,621.204,294.02,621.204,294.02,171.204" style="stroke:#000000;stroke-width:3.0;"/><line style="stroke:#000000;stroke-width:3.0;" x1="294.02" x2="577.451" y1="221.3398" y2="221.3398"/><text fill="#000000" font-family="sans-serif" font-size="28" font-weight="bold" lengthAdjust="spacing" textLength="257.431" x="302.02" y="205.1358">user management</text></g><!--entity moderator--><g id="elem_moderator"><ellipse cx="135.0078" cy="109.144" fill="#FEFECE" filter="url(#f1mqug1urioctr)" rx="16" ry="16" style="stroke:#A80036;stroke-width:4.0;"/><path d="M135.0078,125.144 L135.0078,179.144 M109.0078,141.144 L161.0078,141.144 M135.0078,179.144 L109.0078,209.144 M135.0078,179.144 L161.0078,209.144 " fill="none" filter="url(#f1mqug1urioctr)" style="stroke:#A80036;stroke-width:4.0;"/><text fill="#000000" font-family="sans-serif" font-size="28" lengthAdjust="spacing" textLength="142.0155" x="64" y="253.0758">moderator</text></g><!--entity user--><g id="elem_user"><ellipse cx="135" cy="351.144" fill="#FEFECE" filter="url(#f1mqug1urioctr)" rx="16" ry="16" style="stroke:#A80036;stroke-width:4.0;"/><path d="M135,367.144 L135,421.144 M109,383.144 L161,383.144 M135,421.144 L109,451.144 M135,421.144 L161,451.144 " fill="none" filter="url(#f1mqug1urioctr)" style="stroke:#A80036;stroke-width:4.0;"/><text fill="#000000" font-family="sans-serif" font-size="28" lengthAdjust="spacing" textLength="58.0718" x="105.9641" y="495.0758">user</text></g><g id="elem_su"><ellipse cx="437.0285" cy="555.1956" fill="#FEFECE" filter="url(#f1mqug1urioctr)" rx="93.7085" ry="33.6516" style="stroke:#A80036;stroke-width:2.0;"/><text fill="#000000" font-family="sans-serif" font-size="28" lengthAdjust="spacing" textLength="96.9636" x="382.5467" y="564.6615">sign up</text></g><g id="elem_li"><ellipse cx="437.0256" cy="417.2106" fill="#FEFECE" filter="url(#f1mqug1urioctr)" rx="75.7456" ry="33.3666" style="stroke:#A80036;stroke-width:2.0;"/><text fill="#000000" font-family="sans-serif" font-size="28" lengthAdjust="spacing" textLength="73.1917" x="394.4297" y="426.6765">log in</text></g><g id="elem_lo"><ellipse cx="437.0244" cy="281.196" fill="#FEFECE" filter="url(#f1mqug1urioctr)" rx="90.7244" ry="33.612" style="stroke:#A80036;stroke-width:2.0;"/><text fill="#000000" font-family="sans-serif" font-size="28" lengthAdjust="spacing" textLength="93.0157" x="384.5166" y="290.6619">log out</text></g><!--link user to su--><g id="link_user_su"><path d="M165.52,431.264 C193.92,445.184 238.82,467.024 278.02,485.204 C309.96,500.024 334.842,511.2181 364.202,524.1781 " fill="none" id="user-to-su" style="stroke:#A80036;stroke-width:2.0;"/><polygon fill="#A80036" points="375.18,529.024,361.9435,514.4364,366.0316,524.9857,355.4823,529.0738,375.18,529.024" style="stroke:#A80036;stroke-width:2.0;"/></g><!--link user to li--><g id="link_user_li"><path d="M165.58,417.204 C210.02,417.204 285.12,417.204 348.3,417.204 " fill="none" id="user-to-li" style="stroke:#A80036;stroke-width:2.0;"/><polygon fill="#A80036" points="360.3,417.204,342.3,409.204,350.3,417.204,342.3,425.204,360.3,417.204" style="stroke:#A80036;stroke-width:2.0;"/></g><!--link user to lo--><g id="link_user_lo"><path d="M165.48,403.064 C193.84,389.064 238.72,367.184 278.02,349.204 C309.88,334.624 334.7087,323.7674 364.0887,311.1874 " fill="none" id="user-to-lo" style="stroke:#A80036;stroke-width:2.0;"/><polygon fill="#A80036" points="375.12,306.464,355.4241,306.1949,365.9273,310.4001,361.722,320.9033,375.12,306.464" style="stroke:#A80036;stroke-width:2.0;"/></g><!--reverse link user to moderator--><g id="link_user_moderator"><path d="M135,294.244 C135,271.424 135,284.624 135,261.804 " fill="none" id="user-backto-moderator" style="stroke:#A80036;stroke-width:2.0;"/><polygon fill="none" points="135,330.244,147,294.244,123,294.244,135,330.244" style="stroke:#A80036;stroke-width:2.0;"/></g><!--SRC=[LOwn3iCm24HtlW9bpzAvwhyWXxeeZeaCdjh-Uvt4KjBjU7S7MA34U0ER9MDHOqZyT7J58l7bE4dXuA8POAKmKsIiniNm3HHS2ouwSQ6c-hovy3tJmmPmeTo6XRCFhTbG86kUISnOrm79qEh9aqQKlECa_rYh7rotA_loSNpqzg6FIjSAFNN_Z9TduGS0]--></g></svg>