<svg xmlns="http://www.w3.org/2000/svg" xmlns:xlink="http://www.w3.org/1999/xlink" contentStyleType="text/css" height="524px" preserveAspectRatio="none" style="width:766px;height:524px;background:#FFFFFF;" version="1.1" viewBox="0 0 766 524" width="766px" zoomAndPan="magnify"><defs><filter height="300%" id="f1s67mm0cyk0j3" width="300%" x="-1" y="-1"><feGaussianBlur result="blurOut" stdDeviation="2.0"/><feColorMatrix in="blurOut" result="blurOut2" type="matrix" values="0 0 0 0 0 0 0 0 0 0 0 0 0 0 0 0 0 0 .4 0"/><feOffset dx="4.0" dy="4.0" in="blurOut2" result="blurOut3"/><feBlend in="SourceGraphic" in2="blurOut3" mode="normal"/></filter></defs><g><!--cluster UI--><g id="cluster_UI"><polygon fill="none" filter="url(#f1s67mm0cyk0j3)" points="573.22,171.802,594.1999,171.802,601.1999,196.8699,749.22,196.8699,749.22,331.012,573.22,331.012,573.22,171.802" style="stroke:#000000;stroke-width:1.5;"/><line style="stroke:#000000;stroke-width:1.5;" x1="573.22" x2="601.1999" y1="196.8699" y2="196.8699"/><text fill="#000000" font-family="sans-serif" font-size="14" lengthAdjust="spacing" textLength="14.9799" x="577.22" y="188.7679">UI</text></g><!--cluster UserStatistics--><g id="cluster_UserStatistics"><polygon fill="none" filter="url(#f1s67mm0cyk0j3)" points="106.22,6.602,200.8957,6.602,207.8957,31.6699,549.22,31.6699,549.22,515.282,106.22,515.282,106.22,6.602" style="stroke:#000000;stroke-width:1.5;"/><line style="stroke:#000000;stroke-width:1.5;" x1="106.22" x2="207.8957" y1="31.6699" y2="31.6699"/><text fill="#000000" font-family="sans-serif" font-size="14" lengthAdjust="spacing" textLength="88.6757" x="110.22" y="23.5679">UserStatistics</text></g><!--entity database--><g id="elem_database"><path d="M6,73.632 C6,63.632 46.2189,63.632 46.2189,63.632 C46.2189,63.632 86.4378,63.632 86.4378,73.632 L86.4378,101.6999 C86.4378,111.6999 46.2189,111.6999 46.2189,111.6999 C46.2189,111.6999 6,111.6999 6,101.6999 L6,73.632 " fill="#FEFECE" filter="url(#f1s67mm0cyk0j3)" style="stroke:#A80036;stroke-width:1.0;"/><path d="M6,73.632 C6,83.632 46.2189,83.632 46.2189,83.632 C46.2189,83.632 86.4378,83.632 86.4378,73.632 " fill="none" style="stroke:#A80036;stroke-width:1.0;"/><text fill="#000000" font-family="sans-serif" font-size="14" lengthAdjust="spacing" textLength="60.4378" x="16" y="102.5979">database</text></g><!--class GUI--><g id="elem_GUI"><rect codeLine="7" fill="#FEFECE" filter="url(#f1s67mm0cyk0j3)" height="105.2038" id="GUI" style="stroke:#A80036;stroke-width:1.0;" width="143.3055" x="589.57" y="209.802"/><ellipse cx="644.3868" cy="225.802" fill="#ADD1B2" rx="11" ry="11" style="stroke:#A80036;stroke-width:1.0;"/><path d="M643.8556,232.7239 Q642.1056,232.7239 640.9649,231.9895 Q639.8399,231.2395 639.2774,229.8957 Q638.7306,228.5364 638.7306,226.7395 Q638.7306,224.7082 639.3868,223.2551 Q640.0431,221.802 641.3243,221.0207 Q642.6056,220.2395 644.4806,220.2395 Q645.3712,220.2395 646.0431,220.427 Q646.7149,220.5989 647.4024,220.9426 L646.5899,222.9582 Q645.9649,222.6457 645.4181,222.5207 Q644.8868,222.3957 644.4024,222.3957 Q643.2306,222.3957 642.5274,222.927 Q641.8243,223.4582 641.5274,224.4114 Q641.2306,225.3645 641.2306,226.6301 Q641.2306,228.6457 641.9493,229.6145 Q642.6681,230.5676 644.2618,230.5676 Q644.8556,230.5676 645.4806,230.4114 Q646.1056,230.2551 646.9337,229.8801 L646.9337,232.0989 Q646.1993,232.4114 645.4024,232.5676 Q644.6212,232.7239 643.8556,232.7239 Z " fill="#000000"/><text fill="#000000" font-family="sans-serif" font-size="14" lengthAdjust="spacing" textLength="25.1719" x="664.8868" y="231.234">GUI</text><line style="stroke:#A80036;stroke-width:1.0;" x1="590.57" x2="731.8755" y1="241.802" y2="241.802"/><line style="stroke:#A80036;stroke-width:1.0;" x1="590.57" x2="731.8755" y1="249.802" y2="249.802"/><text fill="#000000" font-family="sans-serif" font-size="14" lengthAdjust="spacing" textLength="122.8076" x="595.57" y="268.7679">drawProgressBar()</text><text fill="#000000" font-family="sans-serif" font-size="14" lengthAdjust="spacing" textLength="131.3055" x="595.57" y="287.8358">drawActivityMatrix()</text><text fill="#000000" font-family="sans-serif" font-size="14" lengthAdjust="spacing" textLength="125.7895" x="595.57" y="306.9038">loadProfilePicture()</text></g><!--class UserData--><g id="elem_UserData"><rect codeLine="14" fill="#FEFECE" filter="url(#f1s67mm0cyk0j3)" height="124.2717" id="UserData" style="stroke:#A80036;stroke-width:1.0;" width="156.1295" x="148.15" y="200.272"/><ellipse cx="191.2884" cy="216.272" fill="#ADD1B2" rx="11" ry="11" style="stroke:#A80036;stroke-width:1.0;"/><path d="M190.7571,223.1939 Q189.0071,223.1939 187.8665,222.4595 Q186.7415,221.7095 186.179,220.3657 Q185.6321,219.0064 185.6321,217.2095 Q185.6321,215.1782 186.2884,213.7251 Q186.9446,212.272 188.2259,211.4907 Q189.5071,210.7095 191.3821,210.7095 Q192.2727,210.7095 192.9446,210.897 Q193.6165,211.0689 194.304,211.4126 L193.4915,213.4282 Q192.8665,213.1157 192.3196,212.9907 Q191.7884,212.8657 191.304,212.8657 Q190.1321,212.8657 189.429,213.397 Q188.7259,213.9282 188.429,214.8814 Q188.1321,215.8345 188.1321,217.1001 Q188.1321,219.1157 188.8509,220.0845 Q189.5696,221.0376 191.1634,221.0376 Q191.7571,221.0376 192.3821,220.8814 Q193.0071,220.7251 193.8352,220.3501 L193.8352,222.5689 Q193.1009,222.8814 192.304,223.0376 Q191.5227,223.1939 190.7571,223.1939 Z " fill="#000000"/><text fill="#000000" font-family="sans-serif" font-size="14" lengthAdjust="spacing" textLength="61.5998" x="211.5413" y="221.704">UserData</text><line style="stroke:#A80036;stroke-width:1.0;" x1="149.15" x2="303.2795" y1="232.272" y2="232.272"/><text fill="#000000" font-family="sans-serif" font-size="14" lengthAdjust="spacing" textLength="80.5277" x="154.15" y="251.2379">String name</text><text fill="#000000" font-family="sans-serif" font-size="14" lengthAdjust="spacing" textLength="64.4978" x="154.15" y="270.3058">Integer id</text><text fill="#000000" font-family="sans-serif" font-size="14" lengthAdjust="spacing" textLength="144.1295" x="154.15" y="289.3738">DateTime registration</text><text fill="#000000" font-family="sans-serif" font-size="14" lengthAdjust="spacing" textLength="83.5797" x="154.15" y="308.4417">List activities</text><line style="stroke:#A80036;stroke-width:1.0;" x1="149.15" x2="303.2795" y1="316.5436" y2="316.5436"/></g><!--class Activity--><g id="elem_Activity"><rect codeLine="20" fill="#FEFECE" filter="url(#f1s67mm0cyk0j3)" height="105.2038" id="Activity" style="stroke:#A80036;stroke-width:1.0;" width="150.0115" x="151.21" y="394.082"/><ellipse cx="198.3408" cy="410.082" fill="#ADD1B2" rx="11" ry="11" style="stroke:#A80036;stroke-width:1.0;"/><path d="M197.8096,417.0039 Q196.0596,417.0039 194.919,416.2695 Q193.794,415.5195 193.2315,414.1757 Q192.6846,412.8164 192.6846,411.0195 Q192.6846,408.9882 193.3408,407.5351 Q193.9971,406.082 195.2783,405.3007 Q196.5596,404.5195 198.4346,404.5195 Q199.3252,404.5195 199.9971,404.707 Q200.669,404.8789 201.3565,405.2226 L200.544,407.2382 Q199.919,406.9257 199.3721,406.8007 Q198.8408,406.6757 198.3565,406.6757 Q197.1846,406.6757 196.4815,407.207 Q195.7783,407.7382 195.4815,408.6914 Q195.1846,409.6445 195.1846,410.9101 Q195.1846,412.9257 195.9033,413.8945 Q196.6221,414.8476 198.2158,414.8476 Q198.8096,414.8476 199.4346,414.6914 Q200.0596,414.5351 200.8877,414.1601 L200.8877,416.3789 Q200.1533,416.6914 199.3565,416.8476 Q198.5752,417.0039 197.8096,417.0039 Z " fill="#000000"/><text fill="#000000" font-family="sans-serif" font-size="14" lengthAdjust="spacing" textLength="47.2498" x="218.8408" y="415.514">Activity</text><line style="stroke:#A80036;stroke-width:1.0;" x1="152.21" x2="300.2215" y1="426.082" y2="426.082"/><text fill="#000000" font-family="sans-serif" font-size="14" lengthAdjust="spacing" textLength="138.0115" x="157.21" y="445.0479">DateTime timestamp</text><text fill="#000000" font-family="sans-serif" font-size="14" lengthAdjust="spacing" textLength="94.3176" x="157.21" y="464.1158">Integer lesson</text><text fill="#000000" font-family="sans-serif" font-size="14" lengthAdjust="spacing" textLength="81.9697" x="157.21" y="483.1838">Result result</text><line style="stroke:#A80036;stroke-width:1.0;" x1="152.21" x2="300.2215" y1="491.2857" y2="491.2857"/></g><!--class Result--><g id="elem_Result"><rect codeLine="25" fill="#FEFECE" filter="url(#f1s67mm0cyk0j3)" height="48" id="Result" style="stroke:#A80036;stroke-width:1.0;" width="72.6278" x="335.9" y="422.682"/><ellipse cx="350.9" cy="438.682" fill="#EB937F" rx="11" ry="11" style="stroke:#A80036;stroke-width:1.0;"/><path d="M347.2594,445.182 L347.2594,433.0414 L354.9156,433.0414 L354.9156,435.1664 L349.6344,435.1664 L349.6344,437.8226 L354.65,437.8226 L354.65,439.9476 L349.6344,439.9476 L349.6344,443.057 L354.9156,443.057 L354.9156,445.182 L347.2594,445.182 Z " fill="#000000"/><text fill="#000000" font-family="sans-serif" font-size="14" lengthAdjust="spacing" textLength="40.6278" x="364.9" y="444.114">Result</text><line style="stroke:#A80036;stroke-width:1.0;" x1="336.9" x2="407.5278" y1="454.682" y2="454.682"/><line style="stroke:#A80036;stroke-width:1.0;" x1="336.9" x2="407.5278" y1="462.682" y2="462.682"/></g><!--class DataCollector--><g id="elem_DataCollector"><rect codeLine="27" fill="#FEFECE" filter="url(#f1s67mm0cyk0j3)" height="86.1358" id="DataCollector" style="stroke:#A80036;stroke-width:1.0;" width="208.7973" x="121.82" y="44.602"/><ellipse cx="177.2458" cy="60.602" fill="#ADD1B2" rx="11" ry="11" style="stroke:#A80036;stroke-width:1.0;"/><path d="M176.7146,67.5239 Q174.9646,67.5239 173.8239,66.7895 Q172.6989,66.0395 172.1364,64.6957 Q171.5896,63.3364 171.5896,61.5395 Q171.5896,59.5082 172.2458,58.0551 Q172.9021,56.602 174.1833,55.8207 Q175.4646,55.0395 177.3396,55.0395 Q178.2302,55.0395 178.9021,55.227 Q179.5739,55.3989 180.2614,55.7426 L179.4489,57.7582 Q178.8239,57.4457 178.2771,57.3207 Q177.7458,57.1957 177.2614,57.1957 Q176.0896,57.1957 175.3864,57.727 Q174.6833,58.2582 174.3864,59.2114 Q174.0896,60.1645 174.0896,61.4301 Q174.0896,63.4457 174.8083,64.4145 Q175.5271,65.3676 177.1208,65.3676 Q177.7146,65.3676 178.3396,65.2114 Q178.9646,65.0551 179.7927,64.6801 L179.7927,66.8989 Q179.0583,67.2114 178.2614,67.3676 Q177.4802,67.5239 176.7146,67.5239 Z " fill="#000000"/><text fill="#000000" font-family="sans-serif" font-size="14" lengthAdjust="spacing" textLength="89.4457" x="197.7458" y="66.034">DataCollector</text><line style="stroke:#A80036;stroke-width:1.0;" x1="122.82" x2="329.6173" y1="76.602" y2="76.602"/><line style="stroke:#A80036;stroke-width:1.0;" x1="122.82" x2="329.6173" y1="84.602" y2="84.602"/><text fill="#000000" font-family="sans-serif" font-size="14" lengthAdjust="spacing" textLength="196.7973" x="127.82" y="103.5679">readUserDataFromDatabase()</text><text fill="#000000" font-family="sans-serif" font-size="14" lengthAdjust="spacing" textLength="71.2457" x="127.82" y="122.6358">sendData()</text></g><!--class DataAggregator--><g id="elem_DataAggregator"><rect codeLine="31" fill="#FEFECE" filter="url(#f1s67mm0cyk0j3)" height="86.1358" id="DataAggregator" style="stroke:#A80036;stroke-width:1.0;" width="168.0294" x="365.2" y="44.602"/><ellipse cx="393.4452" cy="60.602" fill="#ADD1B2" rx="11" ry="11" style="stroke:#A80036;stroke-width:1.0;"/><path d="M392.9139,67.5239 Q391.1639,67.5239 390.0233,66.7895 Q388.8983,66.0395 388.3358,64.6957 Q387.7889,63.3364 387.7889,61.5395 Q387.7889,59.5082 388.4452,58.0551 Q389.1014,56.602 390.3827,55.8207 Q391.6639,55.0395 393.5389,55.0395 Q394.4296,55.0395 395.1014,55.227 Q395.7733,55.3989 396.4608,55.7426 L395.6483,57.7582 Q395.0233,57.4457 394.4764,57.3207 Q393.9452,57.1957 393.4608,57.1957 Q392.2889,57.1957 391.5858,57.727 Q390.8827,58.2582 390.5858,59.2114 Q390.2889,60.1645 390.2889,61.4301 Q390.2889,63.4457 391.0077,64.4145 Q391.7264,65.3676 393.3202,65.3676 Q393.9139,65.3676 394.5389,65.2114 Q395.1639,65.0551 395.9921,64.6801 L395.9921,66.8989 Q395.2577,67.2114 394.4608,67.3676 Q393.6796,67.5239 392.9139,67.5239 Z " fill="#000000"/><text fill="#000000" font-family="sans-serif" font-size="14" lengthAdjust="spacing" textLength="106.5956" x="410.3886" y="66.034">DataAggregator</text><line style="stroke:#A80036;stroke-width:1.0;" x1="366.2" x2="532.2294" y1="76.602" y2="76.602"/><line style="stroke:#A80036;stroke-width:1.0;" x1="366.2" x2="532.2294" y1="84.602" y2="84.602"/><text fill="#000000" font-family="sans-serif" font-size="14" lengthAdjust="spacing" textLength="124.7955" x="371.2" y="103.5679">calculateProgress()</text><text fill="#000000" font-family="sans-serif" font-size="14" lengthAdjust="spacing" textLength="156.0294" x="371.2" y="122.6358">calculateActivityMatrix()</text></g><!--class AggregatedData--><g id="elem_AggregatedData"><rect codeLine="35" fill="#FEFECE" filter="url(#f1s67mm0cyk0j3)" height="143.3396" id="AggregatedData" style="stroke:#A80036;stroke-width:1.0;" width="158.8315" x="371.8" y="190.742"/><ellipse cx="394.8918" cy="206.742" fill="#ADD1B2" rx="11" ry="11" style="stroke:#A80036;stroke-width:1.0;"/><path d="M394.3606,213.6639 Q392.6106,213.6639 391.47,212.9295 Q390.345,212.1795 389.7825,210.8357 Q389.2356,209.4764 389.2356,207.6795 Q389.2356,205.6482 389.8918,204.1951 Q390.5481,202.742 391.8293,201.9607 Q393.1106,201.1795 394.9856,201.1795 Q395.8762,201.1795 396.5481,201.367 Q397.22,201.5389 397.9075,201.8826 L397.095,203.8982 Q396.47,203.5857 395.9231,203.4607 Q395.3918,203.3357 394.9075,203.3357 Q393.7356,203.3357 393.0325,203.867 Q392.3293,204.3982 392.0325,205.3514 Q391.7356,206.3045 391.7356,207.5701 Q391.7356,209.5857 392.4543,210.5545 Q393.1731,211.5076 394.7668,211.5076 Q395.3606,211.5076 395.9856,211.3514 Q396.6106,211.1951 397.4387,210.8201 L397.4387,213.0389 Q396.7043,213.3514 395.9075,213.5076 Q395.1262,213.6639 394.3606,213.6639 Z " fill="#000000"/><text fill="#000000" font-family="sans-serif" font-size="14" lengthAdjust="spacing" textLength="108.8496" x="410.69" y="212.174">AggregatedData</text><line style="stroke:#A80036;stroke-width:1.0;" x1="372.8" x2="529.6315" y1="222.742" y2="222.742"/><text fill="#000000" font-family="sans-serif" font-size="14" lengthAdjust="spacing" textLength="80.5277" x="377.8" y="241.7079">String name</text><text fill="#000000" font-family="sans-serif" font-size="14" lengthAdjust="spacing" textLength="64.4978" x="377.8" y="260.7758">Integer id</text><text fill="#000000" font-family="sans-serif" font-size="14" lengthAdjust="spacing" textLength="144.1295" x="377.8" y="279.8438">DateTime registration</text><text fill="#000000" font-family="sans-serif" font-size="14" lengthAdjust="spacing" textLength="94.4577" x="377.8" y="298.9117">Float progress</text><text fill="#000000" font-family="sans-serif" font-size="14" lengthAdjust="spacing" textLength="146.8315" x="377.8" y="317.9796">List[List] activityMatrix</text><line style="stroke:#A80036;stroke-width:1.0;" x1="372.8" x2="529.6315" y1="326.0816" y2="326.0816"/></g><!--link AggregatedData to GUI--><g id="link_AggregatedData_GUI"><path codeLine="44" d="M530.79,262.412 C550.23,262.412 569.68,262.412 589.13,262.412 " fill="none" id="AggregatedData-GUI" style="stroke:#A80036;stroke-width:1.0;"/></g><!--link DataAggregator to AggregatedData--><g id="link_DataAggregator_AggregatedData"><path codeLine="45" d="M449.71,130.932 C449.92,148.802 450.16,170.132 450.4,190.312 " fill="none" id="DataAggregator-AggregatedData" style="stroke:#A80036;stroke-width:1.0;"/></g><!--link DataCollector to DataAggregator--><g id="link_DataCollector_DataAggregator"><path codeLine="46" d="M330.75,87.672 C342.17,87.672 347.58,87.672 359,87.672 " fill="none" id="DataCollector-to-DataAggregator" style="stroke:#A80036;stroke-width:1.0;"/><polygon fill="#A80036" points="365,87.672,356,83.672,360,87.672,356,91.672,365,87.672" style="stroke:#A80036;stroke-width:1.0;"/></g><!--link DataAggregator to GUI--><g id="link_DataAggregator_GUI"><path codeLine="47" d="M507.14,131.082 C521.07,141.582 535.8,152.942 549.22,163.802 C567.06,178.252 581.51,190.5062 598.67,205.4862 " fill="none" id="DataAggregator-to-GUI" style="stroke:#A80036;stroke-width:1.0;"/><polygon fill="#A80036" points="603.19,209.432,599.0405,200.4999,599.4233,206.1438,593.7794,206.5266,603.19,209.432" style="stroke:#A80036;stroke-width:1.0;"/></g><!--reverse link Activity to Result--><g id="link_Activity_Result"><path codeLine="50" d="M313.5,446.682 C324.83,446.682 324.15,446.682 335.48,446.682 " fill="none" id="Activity-backto-Result" style="stroke:#A80036;stroke-width:1.0;"/><polygon fill="none" points="301.5,446.682,307.5,450.682,313.5,446.682,307.5,442.682,301.5,446.682" style="stroke:#A80036;stroke-width:1.0;"/></g><!--reverse link UserData to Activity--><g id="link_UserData_Activity"><path codeLine="51" d="M226.22,336.862 C226.22,359.182 226.22,372.182 226.22,393.612 " fill="none" id="UserData-backto-Activity" style="stroke:#A80036;stroke-width:1.0;"/><polygon fill="none" points="226.22,324.862,222.22,330.862,226.22,336.862,230.22,330.862,226.22,324.862" style="stroke:#A80036;stroke-width:1.0;"/></g><!--link DataCollector to UserData--><g id="link_DataCollector_UserData"><path codeLine="53" d="M226.22,130.932 C226.22,151.702 226.22,177.132 226.22,200.002 " fill="none" id="DataCollector-UserData" style="stroke:#A80036;stroke-width:1.0;"/></g><!--link database to DataCollector--><g id="link_database_DataCollector"><path codeLine="55" d="M86.65,87.672 C98.28,87.672 109.91,87.672 121.54,87.672 " fill="none" id="database-DataCollector" style="stroke:#A80036;stroke-width:1.0;"/></g><!--SRC=[hLF9JiCm4BtxAto4W_-WgbIMeaeWLHHEYCFWJ5shJXpP4nPL_NViC76w7RaucINlFS-RnArjPF0HXMX1Ry6Wh83W0oBAoUIENwTJkHFxiULraM8fjOCOvGD7KbO1lfR1cu0nta2ukYxPcIRxQUdd2IZORouu3rLgNrk7Iwkf2zWNzecf44KCAmAoaQoE1wIvaDKnyoh1DaOsK6CVBnf2Wq7QgWzJ9xxO6cL0aw120lHDNtbCeOG_THPZJpzm3AAPeu1GEY91tHvHkNHf1dt6s3bAPFd1aFTDLm-5tH5DliQjTmur-S1S0Q4QhZWFlXwCuCb5RAgSuddbr8WrCya00oEO1gSxbzGFtZ1AoLzmvs0A38VLVynxdamdsRAGOi5RFju78rW8xu8uKQ22DHjIUU_EIbshJcOWZiVB7qylTHqChhHb4Y7OD-LmJSgNnH1b2xrIO_QKKfLjFIlrWEMF-mK0]--></g></svg>