<?xml version="1.0" encoding="UTF-8"?>
<!-- Do not edit this file with editors other than draw.io -->
<!DOCTYPE svg PUBLIC "-//W3C//DTD SVG 1.1//EN" "http://www.w3.org/Graphics/SVG/1.1/DTD/svg11.dtd">
<svg xmlns="http://www.w3.org/2000/svg" xmlns:xlink="http://www.w3.org/1999/xlink" version="1.1" width="402px" height="102px" viewBox="-0.5 -0.5 402 102" content="&lt;mxfile host=&quot;app.diagrams.net&quot; agent=&quot;Mozilla/5.0 (X11; Linux x86_64; rv:131.0) Gecko/20100101 Firefox/131.0&quot; version=&quot;24.7.17&quot; scale=&quot;1&quot; border=&quot;0&quot;&gt;&#xA;  &lt;diagram name=&quot;Page-1&quot; id=&quot;E4evcsG6Ogm3VWd_wk35&quot;&gt;&#xA;    &lt;mxGraphModel dx=&quot;1114&quot; dy=&quot;566&quot; grid=&quot;1&quot; gridSize=&quot;10&quot; guides=&quot;1&quot; tooltips=&quot;1&quot; connect=&quot;1&quot; arrows=&quot;1&quot; fold=&quot;1&quot; page=&quot;1&quot; pageScale=&quot;1&quot; pageWidth=&quot;600&quot; pageHeight=&quot;550&quot; math=&quot;0&quot; shadow=&quot;0&quot;&gt;&#xA;      &lt;root&gt;&#xA;        &lt;mxCell id=&quot;0&quot; /&gt;&#xA;        &lt;mxCell id=&quot;1&quot; parent=&quot;0&quot; /&gt;&#xA;        &lt;mxCell id=&quot;hwvI-I0mhAvxQLE-2miq-4&quot; value=&quot;&quot; style=&quot;html=1;outlineConnect=0;fillColor=#999999;strokeColor=#1A1A1A;gradientColor=none;gradientDirection=north;strokeWidth=2;shape=mxgraph.networks.cloud;fontColor=#ffffff;&quot; vertex=&quot;1&quot; parent=&quot;1&quot;&gt;&#xA;          &lt;mxGeometry x=&quot;230&quot; y=&quot;90&quot; width=&quot;90&quot; height=&quot;50&quot; as=&quot;geometry&quot; /&gt;&#xA;        &lt;/mxCell&gt;&#xA;        &lt;mxCell id=&quot;hwvI-I0mhAvxQLE-2miq-5&quot; value=&quot;&quot; style=&quot;fontColor=#0066CC;verticalAlign=top;verticalLabelPosition=bottom;labelPosition=center;align=center;html=1;outlineConnect=0;fillColor=#999999;strokeColor=#1A1A1A;gradientColor=none;gradientDirection=north;strokeWidth=2;shape=mxgraph.networks.mobile;&quot; vertex=&quot;1&quot; parent=&quot;1&quot;&gt;&#xA;          &lt;mxGeometry x=&quot;90&quot; y=&quot;65&quot; width=&quot;50&quot; height=&quot;100&quot; as=&quot;geometry&quot; /&gt;&#xA;        &lt;/mxCell&gt;&#xA;        &lt;mxCell id=&quot;hwvI-I0mhAvxQLE-2miq-6&quot; value=&quot;&quot; style=&quot;fontColor=#0066CC;verticalAlign=top;verticalLabelPosition=bottom;labelPosition=center;align=center;html=1;outlineConnect=0;fillColor=#999999;strokeColor=#1A1A1A;gradientColor=none;gradientDirection=north;strokeWidth=2;shape=mxgraph.networks.server;&quot; vertex=&quot;1&quot; parent=&quot;1&quot;&gt;&#xA;          &lt;mxGeometry x=&quot;400&quot; y=&quot;65&quot; width=&quot;90&quot; height=&quot;100&quot; as=&quot;geometry&quot; /&gt;&#xA;        &lt;/mxCell&gt;&#xA;        &lt;mxCell id=&quot;hwvI-I0mhAvxQLE-2miq-7&quot; value=&quot;&quot; style=&quot;endArrow=none;html=1;rounded=0;strokeWidth=2;sketch=1;curveFitting=1;jiggle=2;&quot; edge=&quot;1&quot; parent=&quot;1&quot; source=&quot;hwvI-I0mhAvxQLE-2miq-5&quot; target=&quot;hwvI-I0mhAvxQLE-2miq-4&quot;&gt;&#xA;          &lt;mxGeometry width=&quot;50&quot; height=&quot;50&quot; relative=&quot;1&quot; as=&quot;geometry&quot;&gt;&#xA;            &lt;mxPoint x=&quot;270&quot; y=&quot;270&quot; as=&quot;sourcePoint&quot; /&gt;&#xA;            &lt;mxPoint x=&quot;320&quot; y=&quot;220&quot; as=&quot;targetPoint&quot; /&gt;&#xA;          &lt;/mxGeometry&gt;&#xA;        &lt;/mxCell&gt;&#xA;        &lt;mxCell id=&quot;hwvI-I0mhAvxQLE-2miq-8&quot; value=&quot;&quot; style=&quot;endArrow=none;html=1;rounded=0;strokeWidth=2;sketch=1;curveFitting=1;jiggle=2;&quot; edge=&quot;1&quot; parent=&quot;1&quot; source=&quot;hwvI-I0mhAvxQLE-2miq-4&quot; target=&quot;hwvI-I0mhAvxQLE-2miq-6&quot;&gt;&#xA;          &lt;mxGeometry width=&quot;50&quot; height=&quot;50&quot; relative=&quot;1&quot; as=&quot;geometry&quot;&gt;&#xA;            &lt;mxPoint x=&quot;150&quot; y=&quot;125&quot; as=&quot;sourcePoint&quot; /&gt;&#xA;            &lt;mxPoint x=&quot;240&quot; y=&quot;125&quot; as=&quot;targetPoint&quot; /&gt;&#xA;          &lt;/mxGeometry&gt;&#xA;        &lt;/mxCell&gt;&#xA;      &lt;/root&gt;&#xA;    &lt;/mxGraphModel&gt;&#xA;  &lt;/diagram&gt;&#xA;&lt;/mxfile&gt;&#xA;"><defs/><g><g data-cell-id="0"><g data-cell-id="1"><g data-cell-id="hwvI-I0mhAvxQLE-2miq-4"><g><path d="M 219.45 76 C 226.2 75.15 231.01 68.69 230.2 61.57 C 229.39 54.45 223.26 49.38 216.52 50.23 C 216.44 39.6 209.38 30.46 199.52 28.23 C 189.67 26 179.67 31.29 175.48 40.96 C 172.36 37.2 167.42 35.79 162.94 37.36 C 158.46 38.94 155.31 43.2 154.95 48.17 C 147.67 47.89 141.54 53.89 141.27 61.57 C 141 69.25 146.69 75.72 153.98 76 Z" fill="#999999" stroke="#1a1a1a" stroke-width="1.95" stroke-miterlimit="10" pointer-events="all"/></g></g><g data-cell-id="hwvI-I0mhAvxQLE-2miq-5"><g><path d="M 1 10.5 C 1 5.25 5.14 1 10.24 1 L 41.86 1 C 46.92 1.05 51 5.29 51 10.5 L 51 91.5 C 51 96.71 46.92 100.95 41.86 101 L 10.24 101 C 5.14 101 1 96.75 1 91.5 Z" fill="#999999" stroke="#1a1a1a" stroke-width="1.95" stroke-miterlimit="10" pointer-events="all"/><path d="M 2.95 10 L 2.95 92 L 49.05 92.12 L 49.05 10 Z" fill="#ffffff" stroke="none" pointer-events="all"/><rect x="19.97" y="94.8" width="11.96" height="3.6" rx="1.8" ry="1.8" fill="#ffffff" stroke="none" pointer-events="all"/></g></g><g data-cell-id="hwvI-I0mhAvxQLE-2miq-6"><g><rect x="311" y="86" width="90" height="15" rx="2" ry="2" fill="#999999" stroke="#1a1a1a" stroke-width="2" pointer-events="all"/><rect x="311" y="68.5" width="90" height="15" rx="2" ry="2" fill="#999999" stroke="#1a1a1a" stroke-width="2" pointer-events="all"/><rect x="311" y="51" width="90" height="15" rx="2" ry="2" fill="#999999" stroke="#1a1a1a" stroke-width="2" pointer-events="all"/><rect x="311" y="33.5" width="90" height="15" rx="2" ry="2" fill="#999999" stroke="#1a1a1a" stroke-width="2" pointer-events="all"/><rect x="311" y="16" width="90" height="15" rx="2" ry="2" fill="#999999" stroke="#1a1a1a" stroke-width="2" pointer-events="all"/><path d="M 315 14 L 336 1 L 376 1 L 397 14 Z" fill="#999999" stroke="#1a1a1a" stroke-width="2" stroke-miterlimit="10" pointer-events="all"/><ellipse cx="393" cy="93.5" rx="4" ry="4" fill="#ffffff" stroke="none" pointer-events="all"/><ellipse cx="392.67" cy="76" rx="4" ry="4" fill="#ffffff" stroke="none" pointer-events="all"/><ellipse cx="393" cy="58.5" rx="4" ry="4" fill="#ffffff" stroke="none" pointer-events="all"/><ellipse cx="393" cy="41" rx="4" ry="4" fill="#ffffff" stroke="none" pointer-events="all"/><ellipse cx="393" cy="23.5" rx="4" ry="4" fill="#ffffff" stroke="none" pointer-events="all"/><path d="M 316 99 L 321 88 L 326 88 L 321 99 Z M 326 99 L 331 88 L 336 88 L 331 99 Z M 336 99 L 341 88 L 346 88 L 341 99 Z M 346 99 L 351 88 L 356 88 L 351 99 Z M 356 99 L 361 88 L 366 88 L 361 99 Z M 366 99 L 371 88 L 376 88 L 371 99 Z M 316 81.5 L 321 70.5 L 326 70.5 L 321 81.5 Z M 326 81.5 L 331 70.5 L 336 70.5 L 331 81.5 Z M 336 81.5 L 341 70.5 L 346 70.5 L 341 81.5 Z M 346 81.5 L 351 70.5 L 356 70.5 L 351 81.5 Z M 356 81.5 L 361 70.5 L 366 70.5 L 361 81.5 Z M 366 81.5 L 371 70.5 L 376 70.5 L 371 81.5 Z M 316 64 L 321 53 L 326 53 L 321 64 Z M 326 64 L 331 53 L 336 53 L 331 64 Z M 336 64 L 340.5 53 L 345.5 53 L 340.5 64 Z M 346 64 L 351 53 L 356 53 L 351 64 Z M 356 64 L 361 53 L 366 53 L 361 64 Z M 366 64 L 371 53 L 376 53 L 371 64 Z M 316 46.5 L 321 35.5 L 326 35.5 L 321 46.5 Z M 326 46.5 L 331 35.5 L 336 35.5 L 331 46.5 Z M 336 46.5 L 341 35.5 L 346 35.5 L 341 46.5 Z M 346 46.5 L 351 35.5 L 356 35.5 L 351 46.5 Z M 356 46.5 L 361 35.5 L 366 35.5 L 361 46.5 Z M 366 46.5 L 371 35.5 L 376 35.5 L 371 46.5 Z M 316 29 L 321 18 L 326 18 L 321 29 Z M 326 29 L 331 18 L 336 18 L 331 29 Z M 336 29 L 341 18 L 346 18 L 341 29 Z M 346 29 L 351 18 L 356 18 L 351 29 Z M 356 29 L 361 18 L 366 18 L 361 29 Z M 366 29 L 371 18 L 376 18 L 371 29 Z" fill="#ffffff" stroke="none" pointer-events="all"/></g></g><g data-cell-id="hwvI-I0mhAvxQLE-2miq-7"><g><path d="M 51 51 L 141 51" fill="none" stroke="none" pointer-events="stroke"/><path d="M 51 51 C 86.49 50.7 120.86 52.43 141 51 M 51 51 C 76.03 49.71 100.08 50.46 141 51" fill="none" stroke="rgb(0, 0, 0)" stroke-width="2" stroke-linejoin="round" stroke-linecap="round" stroke-miterlimit="10" pointer-events="stroke"/></g></g><g data-cell-id="hwvI-I0mhAvxQLE-2miq-8"><g><path d="M 231 51 L 311 51" fill="none" stroke="none" pointer-events="stroke"/><path d="M 231 51 C 260.47 50.08 288.73 52.2 311 51 M 231 51 C 257.47 52.56 287.73 51.75 311 51" fill="none" stroke="rgb(0, 0, 0)" stroke-width="2" stroke-linejoin="round" stroke-linecap="round" stroke-miterlimit="10" pointer-events="stroke"/></g></g></g></g></g></svg>