<svg xmlns="http://www.w3.org/2000/svg" xmlns:xlink="http://www.w3.org/1999/xlink" contentStyleType="text/css" height="384px" preserveAspectRatio="none" style="width:611px;height:384px;background:#FFFFFF;" version="1.1" viewBox="0 0 611 384" width="611px" zoomAndPan="magnify"><defs><filter height="300%" id="f19yfiiaohz61c" width="300%" x="-1" y="-1"><feGaussianBlur result="blurOut" stdDeviation="2.0"/><feColorMatrix in="blurOut" result="blurOut2" type="matrix" values="0 0 0 0 0 0 0 0 0 0 0 0 0 0 0 0 0 0 .4 0"/><feOffset dx="4.0" dy="4.0" in="blurOut2" result="blurOut3"/><feBlend in="SourceGraphic" in2="blurOut3" mode="normal"/></filter></defs><g><!--cluster GUI--><g id="cluster_GUI"><polygon fill="none" filter="url(#f19yfiiaohz61c)" points="16,6.602,48.1659,6.602,55.1659,31.6699,102,31.6699,102,109.672,16,109.672,16,6.602" style="stroke:#000000;stroke-width:1.5;"/><line style="stroke:#000000;stroke-width:1.5;" x1="16" x2="55.1659" y1="31.6699" y2="31.6699"/><text fill="#000000" font-family="sans-serif" font-size="14" font-weight="bold" lengthAdjust="spacing" textLength="26.1659" x="20" y="23.5679">GUI</text></g><!--cluster user statistics--><g id="cluster_user statistics"><polygon fill="none" filter="url(#f19yfiiaohz61c)" points="158,6.602,261.7196,6.602,268.7196,31.6699,594,31.6699,594,109.672,158,109.672,158,6.602" style="stroke:#000000;stroke-width:1.5;"/><line style="stroke:#000000;stroke-width:1.5;" x1="158" x2="268.7196" y1="31.6699" y2="31.6699"/><text fill="#000000" font-family="sans-serif" font-size="14" font-weight="bold" lengthAdjust="spacing" textLength="97.7196" x="162" y="23.5679">user statistics</text></g><!--entity UI--><g id="elem_UI"><rect fill="#FEFECE" filter="url(#f19yfiiaohz61c)" height="49.0679" style="stroke:#A80036;stroke-width:1.0;" width="54.9799" x="31.51" y="44.602"/><rect fill="#FEFECE" height="10" style="stroke:#A80036;stroke-width:1.0;" width="15" x="66.4899" y="49.602"/><rect fill="#FEFECE" height="2" style="stroke:#A80036;stroke-width:1.0;" width="4" x="64.4899" y="51.602"/><rect fill="#FEFECE" height="2" style="stroke:#A80036;stroke-width:1.0;" width="4" x="64.4899" y="55.602"/><text fill="#000000" font-family="sans-serif" font-size="14" lengthAdjust="spacing" textLength="14.9799" x="46.51" y="79.5679">UI</text></g><!--entity data collector--><g id="elem_data collector"><rect fill="#FEFECE" filter="url(#f19yfiiaohz61c)" height="49.0679" style="stroke:#A80036;stroke-width:1.0;" width="129.3477" x="448.33" y="44.602"/><rect fill="#FEFECE" height="10" style="stroke:#A80036;stroke-width:1.0;" width="15" x="557.6777" y="49.602"/><rect fill="#FEFECE" height="2" style="stroke:#A80036;stroke-width:1.0;" width="4" x="555.6777" y="51.602"/><rect fill="#FEFECE" height="2" style="stroke:#A80036;stroke-width:1.0;" width="4" x="555.6777" y="55.602"/><text fill="#000000" font-family="sans-serif" font-size="14" lengthAdjust="spacing" textLength="89.3477" x="463.33" y="79.5679">data collector</text></g><!--entity data aggregator--><g id="elem_data aggregator"><rect fill="#FEFECE" filter="url(#f19yfiiaohz61c)" height="49.0679" style="stroke:#A80036;stroke-width:1.0;" width="147.5336" x="174.23" y="44.602"/><rect fill="#FEFECE" height="10" style="stroke:#A80036;stroke-width:1.0;" width="15" x="301.7636" y="49.602"/><rect fill="#FEFECE" height="2" style="stroke:#A80036;stroke-width:1.0;" width="4" x="299.7636" y="51.602"/><rect fill="#FEFECE" height="2" style="stroke:#A80036;stroke-width:1.0;" width="4" x="299.7636" y="55.602"/><text fill="#000000" font-family="sans-serif" font-size="14" lengthAdjust="spacing" textLength="107.5336" x="189.23" y="79.5679">data aggregator</text></g><!--entity database--><g id="elem_database"><path d="M472.78,329.672 C472.78,319.672 512.9989,319.672 512.9989,319.672 C512.9989,319.672 553.2178,319.672 553.2178,329.672 L553.2178,357.7399 C553.2178,367.7399 512.9989,367.7399 512.9989,367.7399 C512.9989,367.7399 472.78,367.7399 472.78,357.7399 L472.78,329.672 " fill="#FEFECE" filter="url(#f19yfiiaohz61c)" style="stroke:#A80036;stroke-width:1.0;"/><path d="M472.78,329.672 C472.78,339.672 512.9989,339.672 512.9989,339.672 C512.9989,339.672 553.2178,339.672 553.2178,329.672 " fill="none" style="stroke:#A80036;stroke-width:1.0;"/><text fill="#000000" font-family="sans-serif" font-size="14" lengthAdjust="spacing" textLength="60.4378" x="482.78" y="358.6379">database</text></g><!--entity da--><g id="elem_da"><ellipse cx="513" cy="207.672" fill="#FEFECE" filter="url(#f19yfiiaohz61c)" rx="8" ry="8" style="stroke:#A80036;stroke-width:1.0;"/><text fill="#000000" font-family="sans-serif" font-size="14" lengthAdjust="spacing" textLength="132.2435" x="446.8782" y="239.6379">PostgreSQL adapter</text><text fill="#000000" font-family="sans-serif" font-size="14" lengthAdjust="spacing" textLength="74.7737" x="446.8782" y="258.7058">(Psycopg 3)</text></g><!--entity rest--><g id="elem_rest"><ellipse cx="130" cy="69.142" fill="#FEFECE" filter="url(#f19yfiiaohz61c)" rx="8" ry="8" style="stroke:#A80036;stroke-width:1.0;"/><text fill="#000000" font-family="sans-serif" font-size="14" lengthAdjust="spacing" textLength="34.4119" x="109.8191" y="101.1079">HTTP</text><text fill="#000000" font-family="sans-serif" font-size="14" lengthAdjust="spacing" textLength="40.3618" x="109.8191" y="120.1758">(REST)</text></g><!--link data collector to da--><g id="link_data collector_da"><path d="M513,93.922 C513,125.252 513,178.702 513,198.762 " fill="none" id="data collector-da" style="stroke:#A80036;stroke-width:1.0;"/></g><!--link da to database--><g id="link_da_database"><path d="M513,216.662 C513,236.492 513,288.632 513,319.282 " fill="none" id="da-database" style="stroke:#A80036;stroke-width:1.0;"/></g><!--link UI to rest--><g id="link_UI_rest"><path d="M86.73,69.142 C98,69.142 109.27,69.142 120.54,69.142 " fill="none" id="UI-rest" style="stroke:#A80036;stroke-width:1.0;"/></g><!--link rest to data aggregator--><g id="link_rest_data aggregator"><path d="M139.22,69.142 C150.83,69.142 162.45,69.142 174.06,69.142 " fill="none" id="rest-data aggregator" style="stroke:#A80036;stroke-width:1.0;"/></g><!--reverse link data aggregator to data collector--><g id="link_data aggregator_data collector"><path d="M328.17,69.142 C367.67,69.142 409.82,69.142 447.87,69.142 " fill="none" id="data aggregator-backto-data collector" style="stroke:#A80036;stroke-width:1.0;"/><polygon fill="#A80036" points="322.17,69.142,331.17,73.142,327.17,69.142,331.17,65.142,322.17,69.142" style="stroke:#A80036;stroke-width:1.0;"/><text fill="#000000" font-family="sans-serif" font-size="13" lengthAdjust="spacing" textLength="90.5841" x="340.05" y="62.039">send user data</text></g><!--SRC=[PP0nRm8n38Nt_8gdcygGYQtgMb6a3WSS4xt1JT8GWP9JxAggAlvx4uv3j2oHypq_oyzy214viLC3cGDvXyLsYHy5xBRBNfskkFbaby524bY2uMPiiYG4auv7PoJbNes0lC_EqvcSbAhidRWCcQhghag8ul87cIArYQMuDgjNaAMXyBVuqFAtIOF7VDQ069Pk7IzTrvQUzVEc6-NiM9JwlnEqJLzHLxEbwRERDkcBeII5pi7lHOypwWDzGPVcFw7kS-99trtZ4UoYnVboLVe5]--></g></svg>