<svg xmlns="http://www.w3.org/2000/svg" xmlns:xlink="http://www.w3.org/1999/xlink" contentStyleType="text/css" height="265px" preserveAspectRatio="none" style="width:299px;height:265px;background:#FFFFFF;" version="1.1" viewBox="0 0 299 265" width="299px" zoomAndPan="magnify"><defs><filter height="300%" id="f1oylor7dumfia" width="300%" x="-1" y="-1"><feGaussianBlur result="blurOut" stdDeviation="2.0"/><feColorMatrix in="blurOut" result="blurOut2" type="matrix" values="0 0 0 0 0 0 0 0 0 0 0 0 0 0 0 0 0 0 .4 0"/><feOffset dx="4.0" dy="4.0" in="blurOut2" result="blurOut3"/><feBlend in="SourceGraphic" in2="blurOut3" mode="normal"/></filter></defs><g><ellipse cx="155.2438" cy="20" fill="#000000" filter="url(#f1oylor7dumfia)" rx="10" ry="10" style="stroke:#000000;stroke-width:1.0;"/><rect fill="#FEFECE" filter="url(#f1oylor7dumfia)" height="36.3441" rx="12.5" ry="12.5" style="stroke:#A80036;stroke-width:1.5;" width="164.8051" x="72.8413" y="50"/><text fill="#000000" font-family="sans-serif" font-size="12" lengthAdjust="spacing" textLength="144.8051" x="82.8413" y="72.8281">progress = finished / total</text><polygon fill="#FEFECE" filter="url(#f1oylor7dumfia)" points="116.2546,106.3441,194.2331,106.3441,206.2331,118.3441,194.2331,130.3441,116.2546,130.3441,104.2546,118.3441,116.2546,106.3441" style="stroke:#A80036;stroke-width:1.5;"/><text fill="#000000" font-family="sans-serif" font-size="11" lengthAdjust="spacing" textLength="77.9785" x="116.2546" y="122.6121">as percentage?</text><text fill="#000000" font-family="sans-serif" font-size="11" lengthAdjust="spacing" textLength="17.0829" x="87.1717" y="115.1211">yes</text><text fill="#000000" font-family="sans-serif" font-size="11" lengthAdjust="spacing" textLength="13.4529" x="206.2331" y="115.1211">no</text><rect fill="#FEFECE" filter="url(#f1oylor7dumfia)" height="36.3441" rx="12.5" ry="12.5" style="stroke:#A80036;stroke-width:1.5;" width="142.6049" x="11" y="140.3441"/><text fill="#000000" font-family="sans-serif" font-size="12" lengthAdjust="spacing" textLength="122.6049" x="21" y="163.1722">return progress * 100</text><rect fill="#FEFECE" filter="url(#f1oylor7dumfia)" height="36.3441" rx="12.5" ry="12.5" style="stroke:#A80036;stroke-width:1.5;" width="109.1607" x="173.6049" y="140.3441"/><text fill="#000000" font-family="sans-serif" font-size="12" lengthAdjust="spacing" textLength="89.1607" x="183.6049" y="163.1722">return progress</text><polygon fill="#FEFECE" filter="url(#f1oylor7dumfia)" points="155.2438,182.6882,167.2438,194.6882,155.2438,206.6882,143.2438,194.6882,155.2438,182.6882" style="stroke:#A80036;stroke-width:1.5;"/><ellipse cx="155.2438" cy="237.6882" fill="none" filter="url(#f1oylor7dumfia)" rx="11" ry="11" style="stroke:#000000;stroke-width:1.0;"/><ellipse cx="155.2438" cy="237.6882" fill="#000000" rx="6" ry="6" style="stroke:#000000;stroke-width:1.0;"/><line style="stroke:#A80036;stroke-width:1.5;" x1="155.2438" x2="155.2438" y1="30" y2="50"/><polygon fill="#A80036" points="151.2438,40,155.2438,50,159.2438,40,155.2438,44" style="stroke:#A80036;stroke-width:1.0;"/><line style="stroke:#A80036;stroke-width:1.5;" x1="104.2546" x2="82.3024" y1="118.3441" y2="118.3441"/><line style="stroke:#A80036;stroke-width:1.5;" x1="82.3024" x2="82.3024" y1="118.3441" y2="140.3441"/><polygon fill="#A80036" points="78.3024,130.3441,82.3024,140.3441,86.3024,130.3441,82.3024,134.3441" style="stroke:#A80036;stroke-width:1.0;"/><line style="stroke:#A80036;stroke-width:1.5;" x1="206.2331" x2="228.1852" y1="118.3441" y2="118.3441"/><line style="stroke:#A80036;stroke-width:1.5;" x1="228.1852" x2="228.1852" y1="118.3441" y2="140.3441"/><polygon fill="#A80036" points="224.1852,130.3441,228.1852,140.3441,232.1852,130.3441,228.1852,134.3441" style="stroke:#A80036;stroke-width:1.0;"/><line style="stroke:#A80036;stroke-width:1.5;" x1="82.3024" x2="82.3024" y1="176.6882" y2="194.6882"/><line style="stroke:#A80036;stroke-width:1.5;" x1="82.3024" x2="143.2438" y1="194.6882" y2="194.6882"/><polygon fill="#A80036" points="133.2438,190.6882,143.2438,194.6882,133.2438,198.6882,137.2438,194.6882" style="stroke:#A80036;stroke-width:1.0;"/><line style="stroke:#A80036;stroke-width:1.5;" x1="228.1852" x2="228.1852" y1="176.6882" y2="194.6882"/><line style="stroke:#A80036;stroke-width:1.5;" x1="228.1852" x2="167.2438" y1="194.6882" y2="194.6882"/><polygon fill="#A80036" points="177.2438,190.6882,167.2438,194.6882,177.2438,198.6882,173.2438,194.6882" style="stroke:#A80036;stroke-width:1.0;"/><line style="stroke:#A80036;stroke-width:1.5;" x1="155.2438" x2="155.2438" y1="86.3441" y2="106.3441"/><polygon fill="#A80036" points="151.2438,96.3441,155.2438,106.3441,159.2438,96.3441,155.2438,100.3441" style="stroke:#A80036;stroke-width:1.0;"/><line style="stroke:#A80036;stroke-width:1.5;" x1="155.2438" x2="155.2438" y1="206.6882" y2="226.6882"/><polygon fill="#A80036" points="151.2438,216.6882,155.2438,226.6882,159.2438,216.6882,155.2438,220.6882" style="stroke:#A80036;stroke-width:1.0;"/><!--SRC=[ROun3eCm40JxUyMMXYQa1Q6ynGfhi8BErjsboEz3bIhrZ4RZhwgmvXIFR25pjxORtR6YLAr-SCCDqIAVYzI2b1sTzgH6tlaO40SLwKCV19YDyJR5hpBYFasBy7GYQVldN5ItMgw1rhy0]--></g></svg>