<?xml version="1.0" encoding="UTF-8"?>
<!-- Do not edit this file with editors other than draw.io -->
<!DOCTYPE svg PUBLIC "-//W3C//DTD SVG 1.1//EN" "http://www.w3.org/Graphics/SVG/1.1/DTD/svg11.dtd">
<svg xmlns="http://www.w3.org/2000/svg" xmlns:xlink="http://www.w3.org/1999/xlink" version="1.1" width="382px" height="102px" viewBox="-0.5 -0.5 382 102" content="&lt;mxfile host=&quot;app.diagrams.net&quot; agent=&quot;Mozilla/5.0 (X11; Linux x86_64; rv:131.0) Gecko/20100101 Firefox/131.0&quot; scale=&quot;1&quot; border=&quot;0&quot; version=&quot;24.7.17&quot;&gt;&#xA;  &lt;diagram name=&quot;Page-1&quot; id=&quot;E4evcsG6Ogm3VWd_wk35&quot;&gt;&#xA;    &lt;mxGraphModel dx=&quot;1114&quot; dy=&quot;566&quot; grid=&quot;1&quot; gridSize=&quot;10&quot; guides=&quot;1&quot; tooltips=&quot;1&quot; connect=&quot;1&quot; arrows=&quot;1&quot; fold=&quot;1&quot; page=&quot;1&quot; pageScale=&quot;1&quot; pageWidth=&quot;600&quot; pageHeight=&quot;550&quot; math=&quot;0&quot; shadow=&quot;0&quot;&gt;&#xA;      &lt;root&gt;&#xA;        &lt;mxCell id=&quot;0&quot; /&gt;&#xA;        &lt;mxCell id=&quot;1&quot; parent=&quot;0&quot; /&gt;&#xA;        &lt;mxCell id=&quot;hwvI-I0mhAvxQLE-2miq-4&quot; value=&quot;&quot; style=&quot;html=1;outlineConnect=0;fillColor=#999999;strokeColor=#1A1A1A;gradientColor=none;gradientDirection=north;strokeWidth=2;shape=mxgraph.networks.cloud;fontColor=#ffffff;&quot; parent=&quot;1&quot; vertex=&quot;1&quot;&gt;&#xA;          &lt;mxGeometry x=&quot;230&quot; y=&quot;90&quot; width=&quot;90&quot; height=&quot;50&quot; as=&quot;geometry&quot; /&gt;&#xA;        &lt;/mxCell&gt;&#xA;        &lt;mxCell id=&quot;hwvI-I0mhAvxQLE-2miq-5&quot; value=&quot;&quot; style=&quot;fontColor=#0066CC;verticalAlign=top;verticalLabelPosition=bottom;labelPosition=center;align=center;html=1;outlineConnect=0;fillColor=#999999;strokeColor=#1A1A1A;gradientColor=none;gradientDirection=north;strokeWidth=2;shape=mxgraph.networks.mobile;&quot; parent=&quot;1&quot; vertex=&quot;1&quot;&gt;&#xA;          &lt;mxGeometry x=&quot;410&quot; y=&quot;65&quot; width=&quot;50&quot; height=&quot;100&quot; as=&quot;geometry&quot; /&gt;&#xA;        &lt;/mxCell&gt;&#xA;        &lt;mxCell id=&quot;hwvI-I0mhAvxQLE-2miq-6&quot; value=&quot;&quot; style=&quot;fontColor=#0066CC;verticalAlign=top;verticalLabelPosition=bottom;labelPosition=center;align=center;html=1;outlineConnect=0;fillColor=#999999;strokeColor=#1A1A1A;gradientColor=none;gradientDirection=north;strokeWidth=2;shape=mxgraph.networks.server;&quot; parent=&quot;1&quot; vertex=&quot;1&quot;&gt;&#xA;          &lt;mxGeometry x=&quot;80&quot; y=&quot;65&quot; width=&quot;90&quot; height=&quot;100&quot; as=&quot;geometry&quot; /&gt;&#xA;        &lt;/mxCell&gt;&#xA;        &lt;mxCell id=&quot;hwvI-I0mhAvxQLE-2miq-7&quot; value=&quot;&quot; style=&quot;endArrow=none;html=1;rounded=0;strokeWidth=2;sketch=1;curveFitting=1;jiggle=2;&quot; parent=&quot;1&quot; source=&quot;hwvI-I0mhAvxQLE-2miq-5&quot; target=&quot;hwvI-I0mhAvxQLE-2miq-4&quot; edge=&quot;1&quot;&gt;&#xA;          &lt;mxGeometry width=&quot;50&quot; height=&quot;50&quot; relative=&quot;1&quot; as=&quot;geometry&quot;&gt;&#xA;            &lt;mxPoint x=&quot;270&quot; y=&quot;270&quot; as=&quot;sourcePoint&quot; /&gt;&#xA;            &lt;mxPoint x=&quot;320&quot; y=&quot;220&quot; as=&quot;targetPoint&quot; /&gt;&#xA;          &lt;/mxGeometry&gt;&#xA;        &lt;/mxCell&gt;&#xA;        &lt;mxCell id=&quot;hwvI-I0mhAvxQLE-2miq-8&quot; value=&quot;&quot; style=&quot;endArrow=none;html=1;rounded=0;strokeWidth=2;sketch=1;curveFitting=1;jiggle=2;&quot; parent=&quot;1&quot; source=&quot;hwvI-I0mhAvxQLE-2miq-4&quot; target=&quot;hwvI-I0mhAvxQLE-2miq-6&quot; edge=&quot;1&quot;&gt;&#xA;          &lt;mxGeometry width=&quot;50&quot; height=&quot;50&quot; relative=&quot;1&quot; as=&quot;geometry&quot;&gt;&#xA;            &lt;mxPoint x=&quot;150&quot; y=&quot;125&quot; as=&quot;sourcePoint&quot; /&gt;&#xA;            &lt;mxPoint x=&quot;240&quot; y=&quot;125&quot; as=&quot;targetPoint&quot; /&gt;&#xA;          &lt;/mxGeometry&gt;&#xA;        &lt;/mxCell&gt;&#xA;      &lt;/root&gt;&#xA;    &lt;/mxGraphModel&gt;&#xA;  &lt;/diagram&gt;&#xA;&lt;/mxfile&gt;&#xA;"><defs/><g><g data-cell-id="0"><g data-cell-id="1"><g data-cell-id="hwvI-I0mhAvxQLE-2miq-4"><g><path d="M 229.45 76 C 236.2 75.15 241.01 68.69 240.2 61.57 C 239.39 54.45 233.26 49.38 226.52 50.23 C 226.44 39.6 219.38 30.46 209.52 28.23 C 199.67 26 189.67 31.29 185.48 40.96 C 182.36 37.2 177.42 35.79 172.94 37.36 C 168.46 38.94 165.31 43.2 164.95 48.17 C 157.67 47.89 151.54 53.89 151.27 61.57 C 151 69.25 156.69 75.72 163.98 76 Z" fill="#999999" stroke="#1a1a1a" stroke-width="1.95" stroke-miterlimit="10" pointer-events="all"/></g></g><g data-cell-id="hwvI-I0mhAvxQLE-2miq-5"><g><path d="M 331 10.5 C 331 5.25 335.14 1 340.24 1 L 371.86 1 C 376.92 1.05 381 5.29 381 10.5 L 381 91.5 C 381 96.71 376.92 100.95 371.86 101 L 340.24 101 C 335.14 101 331 96.75 331 91.5 Z" fill="#999999" stroke="#1a1a1a" stroke-width="1.95" stroke-miterlimit="10" pointer-events="all"/><path d="M 332.95 10 L 332.95 92 L 379.05 92.12 L 379.05 10 Z" fill="#ffffff" stroke="none" pointer-events="all"/><rect x="349.97" y="94.8" width="11.96" height="3.6" rx="1.8" ry="1.8" fill="#ffffff" stroke="none" pointer-events="all"/></g></g><g data-cell-id="hwvI-I0mhAvxQLE-2miq-6"><g><rect x="1" y="86" width="90" height="15" rx="2" ry="2" fill="#999999" stroke="#1a1a1a" stroke-width="2" pointer-events="all"/><rect x="1" y="68.5" width="90" height="15" rx="2" ry="2" fill="#999999" stroke="#1a1a1a" stroke-width="2" pointer-events="all"/><rect x="1" y="51" width="90" height="15" rx="2" ry="2" fill="#999999" stroke="#1a1a1a" stroke-width="2" pointer-events="all"/><rect x="1" y="33.5" width="90" height="15" rx="2" ry="2" fill="#999999" stroke="#1a1a1a" stroke-width="2" pointer-events="all"/><rect x="1" y="16" width="90" height="15" rx="2" ry="2" fill="#999999" stroke="#1a1a1a" stroke-width="2" pointer-events="all"/><path d="M 5 14 L 26 1 L 66 1 L 87 14 Z" fill="#999999" stroke="#1a1a1a" stroke-width="2" stroke-miterlimit="10" pointer-events="all"/><ellipse cx="83" cy="93.5" rx="4" ry="4" fill="#ffffff" stroke="none" pointer-events="all"/><ellipse cx="82.67" cy="76" rx="4" ry="4" fill="#ffffff" stroke="none" pointer-events="all"/><ellipse cx="83" cy="58.5" rx="4" ry="4" fill="#ffffff" stroke="none" pointer-events="all"/><ellipse cx="83" cy="41" rx="4" ry="4" fill="#ffffff" stroke="none" pointer-events="all"/><ellipse cx="83" cy="23.5" rx="4" ry="4" fill="#ffffff" stroke="none" pointer-events="all"/><path d="M 6 99 L 11 88 L 16 88 L 11 99 Z M 16 99 L 21 88 L 26 88 L 21 99 Z M 26 99 L 31 88 L 36 88 L 31 99 Z M 36 99 L 41 88 L 46 88 L 41 99 Z M 46 99 L 51 88 L 56 88 L 51 99 Z M 56 99 L 61 88 L 66 88 L 61 99 Z M 6 81.5 L 11 70.5 L 16 70.5 L 11 81.5 Z M 16 81.5 L 21 70.5 L 26 70.5 L 21 81.5 Z M 26 81.5 L 31 70.5 L 36 70.5 L 31 81.5 Z M 36 81.5 L 41 70.5 L 46 70.5 L 41 81.5 Z M 46 81.5 L 51 70.5 L 56 70.5 L 51 81.5 Z M 56 81.5 L 61 70.5 L 66 70.5 L 61 81.5 Z M 6 64 L 11 53 L 16 53 L 11 64 Z M 16 64 L 21 53 L 26 53 L 21 64 Z M 26 64 L 30.5 53 L 35.5 53 L 30.5 64 Z M 36 64 L 41 53 L 46 53 L 41 64 Z M 46 64 L 51 53 L 56 53 L 51 64 Z M 56 64 L 61 53 L 66 53 L 61 64 Z M 6 46.5 L 11 35.5 L 16 35.5 L 11 46.5 Z M 16 46.5 L 21 35.5 L 26 35.5 L 21 46.5 Z M 26 46.5 L 31 35.5 L 36 35.5 L 31 46.5 Z M 36 46.5 L 41 35.5 L 46 35.5 L 41 46.5 Z M 46 46.5 L 51 35.5 L 56 35.5 L 51 46.5 Z M 56 46.5 L 61 35.5 L 66 35.5 L 61 46.5 Z M 6 29 L 11 18 L 16 18 L 11 29 Z M 16 29 L 21 18 L 26 18 L 21 29 Z M 26 29 L 31 18 L 36 18 L 31 29 Z M 36 29 L 41 18 L 46 18 L 41 29 Z M 46 29 L 51 18 L 56 18 L 51 29 Z M 56 29 L 61 18 L 66 18 L 61 29 Z" fill="#ffffff" stroke="none" pointer-events="all"/></g></g><g data-cell-id="hwvI-I0mhAvxQLE-2miq-7"><g><path d="M 331 51 L 241 51" fill="none" stroke="none" pointer-events="stroke"/><path d="M 331 51 C 299.13 53.79 266.13 55.51 241 51 M 331 51 C 307.31 53.2 282.65 53.95 241 51" fill="none" stroke="rgb(0, 0, 0)" stroke-width="2" stroke-linejoin="round" stroke-linecap="round" stroke-miterlimit="10" pointer-events="stroke"/></g></g><g data-cell-id="hwvI-I0mhAvxQLE-2miq-8"><g><path d="M 151 51 L 91 51" fill="none" stroke="none" pointer-events="stroke"/><path d="M 151 51 C 128.07 50.24 103.95 52.37 91 51 M 151 51 C 129.51 51.37 111.8 50.56 91 51" fill="none" stroke="rgb(0, 0, 0)" stroke-width="2" stroke-linejoin="round" stroke-linecap="round" stroke-miterlimit="10" pointer-events="stroke"/></g></g></g></g></g></svg>