<svg xmlns="http://www.w3.org/2000/svg" xmlns:xlink="http://www.w3.org/1999/xlink" contentStyleType="text/css" height="215px" preserveAspectRatio="none" style="width:410px;height:215px;background:#FFFFFF;" version="1.1" viewBox="0 0 410 215" width="410px" zoomAndPan="magnify"><defs><filter height="300%" id="f5m3yvklwwtwe" width="300%" x="-1" y="-1"><feGaussianBlur result="blurOut" stdDeviation="2.0"/><feColorMatrix in="blurOut" result="blurOut2" type="matrix" values="0 0 0 0 0 0 0 0 0 0 0 0 0 0 0 0 0 0 .4 0"/><feOffset dx="4.0" dy="4.0" in="blurOut2" result="blurOut3"/><feBlend in="SourceGraphic" in2="blurOut3" mode="normal"/></filter></defs><g><!--class Shape--><g id="elem_Shape"><rect codeLine="2" fill="#FEFECE" filter="url(#f5m3yvklwwtwe)" height="48" id="Shape" style="stroke:#A80036;stroke-width:1.0;" width="72.6978" x="171.12" y="16.54"/><ellipse cx="186.12" cy="32.54" fill="#ADD1B2" rx="11" ry="11" style="stroke:#A80036;stroke-width:1.0;"/><path d="M185.5888,39.4619 Q183.8388,39.4619 182.6981,38.7275 Q181.5731,37.9775 181.0106,36.6337 Q180.4638,35.2744 180.4638,33.4775 Q180.4638,31.4462 181.12,29.9931 Q181.7763,28.54 183.0575,27.7587 Q184.3388,26.9775 186.2138,26.9775 Q187.1044,26.9775 187.7763,27.165 Q188.4481,27.3369 189.1356,27.6806 L188.3231,29.6962 Q187.6981,29.3837 187.1513,29.2587 Q186.62,29.1337 186.1356,29.1337 Q184.9638,29.1337 184.2606,29.665 Q183.5575,30.1962 183.2606,31.1494 Q182.9638,32.1025 182.9638,33.3681 Q182.9638,35.3837 183.6825,36.3525 Q184.4013,37.3056 185.995,37.3056 Q186.5888,37.3056 187.2138,37.1494 Q187.8388,36.9931 188.6669,36.6181 L188.6669,38.8369 Q187.9325,39.1494 187.1356,39.3056 Q186.3544,39.4619 185.5888,39.4619 Z " fill="#000000"/><text fill="#000000" font-family="sans-serif" font-size="14" lengthAdjust="spacing" textLength="40.6978" x="200.12" y="37.972">Shape</text><line style="stroke:#A80036;stroke-width:1.0;" x1="172.12" x2="242.8178" y1="48.54" y2="48.54"/><line style="stroke:#A80036;stroke-width:1.0;" x1="172.12" x2="242.8178" y1="56.54" y2="56.54"/></g><!--class Square--><g id="elem_Square"><rect codeLine="4" fill="#FEFECE" filter="url(#f5m3yvklwwtwe)" height="67.0679" id="Square" style="stroke:#A80036;stroke-width:1.0;" width="96.3777" x="157.28" y="134.07"/><ellipse cx="180.3341" cy="150.07" fill="#ADD1B2" rx="11" ry="11" style="stroke:#A80036;stroke-width:1.0;"/><path d="M179.8028,156.9919 Q178.0528,156.9919 176.9122,156.2575 Q175.7872,155.5075 175.2247,154.1638 Q174.6778,152.8044 174.6778,151.0075 Q174.6778,148.9763 175.3341,147.5231 Q175.9903,146.07 177.2716,145.2888 Q178.5528,144.5075 180.4278,144.5075 Q181.3184,144.5075 181.9903,144.695 Q182.6622,144.8669 183.3497,145.2106 L182.5372,147.2263 Q181.9122,146.9138 181.3653,146.7888 Q180.8341,146.6638 180.3497,146.6638 Q179.1778,146.6638 178.4747,147.195 Q177.7716,147.7263 177.4747,148.6794 Q177.1778,149.6325 177.1778,150.8981 Q177.1778,152.9138 177.8966,153.8825 Q178.6153,154.8356 180.2091,154.8356 Q180.8028,154.8356 181.4278,154.6794 Q182.0528,154.5231 182.8809,154.1481 L182.8809,156.3669 Q182.1466,156.6794 181.3497,156.8356 Q180.5684,156.9919 179.8028,156.9919 Z " fill="#000000"/><text fill="#000000" font-family="sans-serif" font-size="14" lengthAdjust="spacing" textLength="46.4798" x="196.1238" y="155.502">Square</text><line style="stroke:#A80036;stroke-width:1.0;" x1="158.28" x2="252.6577" y1="166.07" y2="166.07"/><ellipse cx="168.28" cy="181.104" fill="none" rx="3" ry="3" style="stroke:#038048;stroke-width:1.0;"/><text fill="#000000" font-family="sans-serif" font-size="14" lengthAdjust="spacing" textLength="70.3777" x="177.28" y="185.0359">float width</text><line style="stroke:#A80036;stroke-width:1.0;" x1="158.28" x2="252.6577" y1="193.1379" y2="193.1379"/></g><!--class Circle--><g id="elem_Circle"><rect codeLine="8" fill="#FEFECE" filter="url(#f5m3yvklwwtwe)" height="67.0679" id="Circle" style="stroke:#A80036;stroke-width:1.0;" width="100.6617" x="289.14" y="134.07"/><ellipse cx="318.6263" cy="150.07" fill="#ADD1B2" rx="11" ry="11" style="stroke:#A80036;stroke-width:1.0;"/><path d="M318.0951,156.9919 Q316.3451,156.9919 315.2045,156.2575 Q314.0795,155.5075 313.517,154.1638 Q312.9701,152.8044 312.9701,151.0075 Q312.9701,148.9763 313.6263,147.5231 Q314.2826,146.07 315.5638,145.2888 Q316.8451,144.5075 318.7201,144.5075 Q319.6107,144.5075 320.2826,144.695 Q320.9545,144.8669 321.642,145.2106 L320.8295,147.2263 Q320.2045,146.9138 319.6576,146.7888 Q319.1263,146.6638 318.642,146.6638 Q317.4701,146.6638 316.767,147.195 Q316.0638,147.7263 315.767,148.6794 Q315.4701,149.6325 315.4701,150.8981 Q315.4701,152.9138 316.1888,153.8825 Q316.9076,154.8356 318.5013,154.8356 Q319.0951,154.8356 319.7201,154.6794 Q320.3451,154.5231 321.1732,154.1481 L321.1732,156.3669 Q320.4388,156.6794 319.642,156.8356 Q318.8607,156.9919 318.0951,156.9919 Z " fill="#000000"/><text fill="#000000" font-family="sans-serif" font-size="14" lengthAdjust="spacing" textLength="36.4698" x="335.8455" y="155.502">Circle</text><line style="stroke:#A80036;stroke-width:1.0;" x1="290.14" x2="388.8017" y1="166.07" y2="166.07"/><ellipse cx="300.14" cy="181.104" fill="none" rx="3" ry="3" style="stroke:#038048;stroke-width:1.0;"/><text fill="#000000" font-family="sans-serif" font-size="14" lengthAdjust="spacing" textLength="74.6617" x="309.14" y="185.0359">float radius</text><line style="stroke:#A80036;stroke-width:1.0;" x1="290.14" x2="388.8017" y1="193.1379" y2="193.1379"/></g><!--class AreaCalculator--><g id="elem_AreaCalculator"><rect codeLine="12" fill="#FEFECE" filter="url(#f5m3yvklwwtwe)" height="67.0679" id="AreaCalculator" style="stroke:#A80036;stroke-width:1.0;" width="128.9356" x="7" y="7"/><ellipse cx="22" cy="23" fill="#ADD1B2" rx="11" ry="11" style="stroke:#A80036;stroke-width:1.0;"/><path d="M21.4688,29.9219 Q19.7188,29.9219 18.5781,29.1875 Q17.4531,28.4375 16.8906,27.0938 Q16.3438,25.7344 16.3438,23.9375 Q16.3438,21.9063 17,20.4531 Q17.6563,19 18.9375,18.2188 Q20.2188,17.4375 22.0938,17.4375 Q22.9844,17.4375 23.6563,17.625 Q24.3281,17.7969 25.0156,18.1406 L24.2031,20.1563 Q23.5781,19.8438 23.0313,19.7188 Q22.5,19.5938 22.0156,19.5938 Q20.8438,19.5938 20.1406,20.125 Q19.4375,20.6563 19.1406,21.6094 Q18.8438,22.5625 18.8438,23.8281 Q18.8438,25.8438 19.5625,26.8125 Q20.2813,27.7656 21.875,27.7656 Q22.4688,27.7656 23.0938,27.6094 Q23.7188,27.4531 24.5469,27.0781 L24.5469,29.2969 Q23.8125,29.6094 23.0156,29.7656 Q22.2344,29.9219 21.4688,29.9219 Z " fill="#000000"/><text fill="#000000" font-family="sans-serif" font-size="14" lengthAdjust="spacing" textLength="96.9356" x="36" y="28.432">AreaCalculator</text><line style="stroke:#A80036;stroke-width:1.0;" x1="8" x2="134.9356" y1="39" y2="39"/><line style="stroke:#A80036;stroke-width:1.0;" x1="8" x2="134.9356" y1="47" y2="47"/><ellipse cx="18" cy="62.034" fill="#84BE84" rx="3" ry="3" style="stroke:#038048;stroke-width:1.0;"/><text fill="#000000" font-family="sans-serif" font-size="14" lengthAdjust="spacing" textLength="36.8479" x="27" y="65.9659">sum()</text></g><!--class AreaInterface--><g id="elem_AreaInterface"><rect codeLine="16" fill="#FEFECE" filter="url(#f5m3yvklwwtwe)" height="67.0679" id="AreaInterface" style="stroke:#A80036;stroke-width:1.0;" width="115.9577" x="280.49" y="7"/><ellipse cx="295.49" cy="23" fill="#B4A7E5" rx="11" ry="11" style="stroke:#A80036;stroke-width:1.0;"/><path d="M291.5213,29.5 L291.5213,27.7969 L293.8806,27.5313 L293.8806,19.3281 L291.5213,19.0625 L291.5213,17.3594 L298.6619,17.3594 L298.6619,19.0625 L296.24,19.3281 L296.24,27.5313 L298.6619,27.7969 L298.6619,29.5 L291.5213,29.5 Z " fill="#000000"/><text fill="#000000" font-family="sans-serif" font-size="14" font-style="italic" lengthAdjust="spacing" textLength="83.9577" x="309.49" y="28.432">AreaInterface</text><line style="stroke:#A80036;stroke-width:1.0;" x1="281.49" x2="395.4477" y1="39" y2="39"/><line style="stroke:#A80036;stroke-width:1.0;" x1="281.49" x2="395.4477" y1="47" y2="47"/><ellipse cx="291.49" cy="62.034" fill="#84BE84" rx="3" ry="3" style="stroke:#038048;stroke-width:1.0;"/><text fill="#000000" font-family="sans-serif" font-size="14" lengthAdjust="spacing" textLength="37.7859" x="300.49" y="65.9659">area()</text></g><!--reverse link Shape to Square--><g id="link_Shape_Square"><path codeLine="20" d="M206.8118,82.7677 C206.5018,102.1277 206.34,111.93 206,133.6 " fill="none" id="Shape-backto-Square" style="stroke:#A80036;stroke-width:1.0;"/><polygon fill="none" points="207.1,64.77,200.8126,82.6716,212.811,82.8638,207.1,64.77" style="stroke:#A80036;stroke-width:1.0;"/></g><!--reverse link Shape to Circle--><g id="link_Shape_Circle"><path codeLine="21" d="M245.0555,77.1512 C265.4855,96.5112 281.76,111.93 304.63,133.6 " fill="none" id="Shape-backto-Circle" style="stroke:#A80036;stroke-width:1.0;"/><polygon fill="none" points="231.99,64.77,240.9284,81.5063,249.1825,72.796,231.99,64.77" style="stroke:#A80036;stroke-width:1.0;"/></g><!--reverse link AreaInterface to Square--><g id="link_AreaInterface_Square"><path codeLine="22" d="M290.4057,86.7294 C270.8557,105.1094 259.69,115.62 240.18,133.97 " fill="none" id="AreaInterface-backto-Square" style="stroke:#A80036;stroke-width:1.0;"/><polygon fill="none" points="303.52,74.4,286.2959,82.358,294.5155,91.1009,303.52,74.4" style="stroke:#A80036;stroke-width:1.0;"/></g><!--reverse link AreaInterface to Circle--><g id="link_AreaInterface_Circle"><path codeLine="23" d="M338.8769,92.3994 C339.0269,110.7794 339.06,115.62 339.21,133.97 " fill="none" id="AreaInterface-backto-Circle" style="stroke:#A80036;stroke-width:1.0;"/><polygon fill="none" points="338.73,74.4,332.8771,92.4484,344.8767,92.3504,338.73,74.4" style="stroke:#A80036;stroke-width:1.0;"/></g><!--link AreaCalculator to Shape--><g id="link_AreaCalculator_Shape"><path codeLine="24" d="M136.28,40.54 C147.77,40.54 159.27,40.54 170.76,40.54 " fill="none" id="AreaCalculator-Shape" style="stroke:#A80036;stroke-width:1.0;"/></g><!--SRC=[NSun3i8m30NGFQVm24Av0XBgnCm9hDGb5g4fTY86uEv0auBIqVRJzzSBZo1HoRY0gd3oE95PXbj68NWOWDqG8YQuSv-yUIsWOt6X0O8zP_sBWn1s65mEcA8KgVcwsNu9ZubaG4SpE_wcMNq-Os6rXisJVUvhm_gvsRMkYLpvzhRgQ8NFFjaI-WO0]--></g></svg>