<?xml version="1.0" encoding="UTF-8"?>
<?xml-stylesheet href="https://cdnjs.cloudflare.com/ajax/libs/font-awesome/6.6.0/css/all.min.css" type="text/css"?>
<svg aria-roledescription="xychart" role="graphics-document document" viewBox="0 0 700 500" style="max-width: 100%;" xmlns="http://www.w3.org/2000/svg" width="100%" id="graph-div" height="100%" xmlns:xlink="http://www.w3.org/1999/xlink"><style>#graph-div{font-family:"trebuchet ms",verdana,arial,sans-serif;font-size:16px;fill:#ccc;}#graph-div .error-icon{fill:#a44141;}#graph-div .error-text{fill:#ddd;stroke:#ddd;}#graph-div .edge-thickness-normal{stroke-width:2px;}#graph-div .edge-thickness-thick{stroke-width:3.5px;}#graph-div .edge-pattern-solid{stroke-dasharray:0;}#graph-div .edge-pattern-dashed{stroke-dasharray:3;}#graph-div .edge-pattern-dotted{stroke-dasharray:2;}#graph-div .marker{fill:lightgrey;stroke:lightgrey;}#graph-div .marker.cross{stroke:lightgrey;}#graph-div svg{font-family:"trebuchet ms",verdana,arial,sans-serif;font-size:16px;}#graph-div :root{--mermaid-font-family:"trebuchet ms",verdana,arial,sans-serif;}</style><g></g><g class="main"><rect fill="transparent" class="background" height="500" width="700"></rect><g class="chart-title"><text transform="translate(350, 21.5) rotate(0)" text-anchor="middle" dominant-baseline="middle" font-size="20" fill="#2d2d2d" y="0" x="0">burndown chart</text></g><g class="plot"><g class="bar-plot-0"><rect stroke-width="0" stroke="#3498db" fill="#3498db" height="8.049995422363281" width="28.5" y="430.4500198364258" x="61.71665954589844"></rect><rect stroke-width="0" stroke="#3498db" fill="#3498db" height="8.049995422363281" width="28.5" y="430.4500198364258" x="108.5653780423678"></rect><rect stroke-width="0" stroke="#3498db" fill="#3498db" height="20.69666290283203" width="28.5" y="417.80335235595703" x="155.41409653883716"></rect><rect stroke-width="0" stroke="#3498db" fill="#3498db" height="8.049995422363281" width="28.5" y="430.4500198364258" x="202.2628150353065"></rect><rect stroke-width="0" stroke="#3498db" fill="#3498db" height="33.34333038330078" width="28.5" y="405.1566848754883" x="249.11153353177588"></rect><rect stroke-width="0" stroke="#3498db" fill="#3498db" height="45.98999786376953" width="28.5" y="392.51001739501953" x="295.96025202824524"></rect><rect stroke-width="0" stroke="#3498db" fill="#3498db" height="8.049995422363281" width="28.5" y="430.4500198364258" x="342.80897052471454"></rect><rect stroke-width="0" stroke="#3498db" fill="#3498db" height="20.69666290283203" width="28.5" y="417.80335235595703" x="389.6576890211839"></rect><rect stroke-width="0" stroke="#3498db" fill="#3498db" height="20.69666290283203" width="28.5" y="417.80335235595703" x="436.50640751765326"></rect><rect stroke-width="0" stroke="#3498db" fill="#3498db" height="45.98999786376953" width="28.5" y="392.51001739501953" x="483.3551260141226"></rect><rect stroke-width="0" stroke="#3498db" fill="#3498db" height="33.34333038330078" width="28.5" y="405.1566848754883" x="530.203844510592"></rect><rect stroke-width="0" stroke="#3498db" fill="#3498db" height="58.636665344238224" width="28.5" y="379.86334991455084" x="577.0525630070613"></rect><rect stroke-width="0" stroke="#3498db" fill="#3498db" height="71.28333282470703" width="28.5" y="367.21668243408203" x="623.9012815035306"></rect><rect stroke-width="0" stroke="#3498db" fill="#3498db" height="58.636665344238224" width="28.5" y="379.86334991455084" x="670.75"></rect></g><g class="line-plot-1"><path stroke-width="2" stroke="#2ecc71" fill="none" d="M75.967,101.637L122.815,126.93L169.664,152.223L216.513,177.517L263.362,202.81L310.21,228.103L357.059,253.397L403.908,278.69L450.756,303.983L497.605,329.277L544.454,354.57L591.303,379.863L638.151,405.157L685,430.45"></path></g><g class="line-plot-2"><path stroke-width="2" stroke="#e74c3c" fill="none" d="M75.967,101.637L122.815,101.637L169.664,114.283L216.513,114.283L263.362,139.577L310.21,177.517L357.059,177.517L403.908,190.163L450.756,202.81L497.605,240.75L544.454,266.043L591.303,316.63L638.151,379.863L685,430.45"></path></g></g><g class="bottom-axis"><g class="axis-line"><path stroke-width="2" stroke="#2d2d2d" fill="none" d="M 60.96665954589844,439.50001525878906 L 700,439.50001525878906"></path></g><g class="label"><text transform="translate(75.96665954589844, 450.50001525878906) rotate(0)" text-anchor="middle" dominant-baseline="text-before-edge" font-size="14" fill="#2d2d2d" y="0" x="0">1</text><text transform="translate(122.8153780423678, 450.50001525878906) rotate(0)" text-anchor="middle" dominant-baseline="text-before-edge" font-size="14" fill="#2d2d2d" y="0" x="0">2</text><text transform="translate(169.66409653883716, 450.50001525878906) rotate(0)" text-anchor="middle" dominant-baseline="text-before-edge" font-size="14" fill="#2d2d2d" y="0" x="0">3</text><text transform="translate(216.5128150353065, 450.50001525878906) rotate(0)" text-anchor="middle" dominant-baseline="text-before-edge" font-size="14" fill="#2d2d2d" y="0" x="0">4</text><text transform="translate(263.3615335317759, 450.50001525878906) rotate(0)" text-anchor="middle" dominant-baseline="text-before-edge" font-size="14" fill="#2d2d2d" y="0" x="0">5</text><text transform="translate(310.21025202824524, 450.50001525878906) rotate(0)" text-anchor="middle" dominant-baseline="text-before-edge" font-size="14" fill="#2d2d2d" y="0" x="0">6</text><text transform="translate(357.05897052471454, 450.50001525878906) rotate(0)" text-anchor="middle" dominant-baseline="text-before-edge" font-size="14" fill="#2d2d2d" y="0" x="0">7</text><text transform="translate(403.9076890211839, 450.50001525878906) rotate(0)" text-anchor="middle" dominant-baseline="text-before-edge" font-size="14" fill="#2d2d2d" y="0" x="0">8</text><text transform="translate(450.75640751765326, 450.50001525878906) rotate(0)" text-anchor="middle" dominant-baseline="text-before-edge" font-size="14" fill="#2d2d2d" y="0" x="0">9</text><text transform="translate(497.6051260141226, 450.50001525878906) rotate(0)" text-anchor="middle" dominant-baseline="text-before-edge" font-size="14" fill="#2d2d2d" y="0" x="0">10</text><text transform="translate(544.453844510592, 450.50001525878906) rotate(0)" text-anchor="middle" dominant-baseline="text-before-edge" font-size="14" fill="#2d2d2d" y="0" x="0">11</text><text transform="translate(591.3025630070613, 450.50001525878906) rotate(0)" text-anchor="middle" dominant-baseline="text-before-edge" font-size="14" fill="#2d2d2d" y="0" x="0">12</text><text transform="translate(638.1512815035306, 450.50001525878906) rotate(0)" text-anchor="middle" dominant-baseline="text-before-edge" font-size="14" fill="#2d2d2d" y="0" x="0">13</text><text transform="translate(685, 450.50001525878906) rotate(0)" text-anchor="middle" dominant-baseline="text-before-edge" font-size="14" fill="#2d2d2d" y="0" x="0">14</text></g><g class="ticks"><path stroke-width="2" stroke="#2d2d2d" fill="none" d="M 75.96665954589844,440.50001525878906 L 75.96665954589844,445.50001525878906"></path><path stroke-width="2" stroke="#2d2d2d" fill="none" d="M 122.8153780423678,440.50001525878906 L 122.8153780423678,445.50001525878906"></path><path stroke-width="2" stroke="#2d2d2d" fill="none" d="M 169.66409653883716,440.50001525878906 L 169.66409653883716,445.50001525878906"></path><path stroke-width="2" stroke="#2d2d2d" fill="none" d="M 216.5128150353065,440.50001525878906 L 216.5128150353065,445.50001525878906"></path><path stroke-width="2" stroke="#2d2d2d" fill="none" d="M 263.3615335317759,440.50001525878906 L 263.3615335317759,445.50001525878906"></path><path stroke-width="2" stroke="#2d2d2d" fill="none" d="M 310.21025202824524,440.50001525878906 L 310.21025202824524,445.50001525878906"></path><path stroke-width="2" stroke="#2d2d2d" fill="none" d="M 357.05897052471454,440.50001525878906 L 357.05897052471454,445.50001525878906"></path><path stroke-width="2" stroke="#2d2d2d" fill="none" d="M 403.9076890211839,440.50001525878906 L 403.9076890211839,445.50001525878906"></path><path stroke-width="2" stroke="#2d2d2d" fill="none" d="M 450.75640751765326,440.50001525878906 L 450.75640751765326,445.50001525878906"></path><path stroke-width="2" stroke="#2d2d2d" fill="none" d="M 497.6051260141226,440.50001525878906 L 497.6051260141226,445.50001525878906"></path><path stroke-width="2" stroke="#2d2d2d" fill="none" d="M 544.453844510592,440.50001525878906 L 544.453844510592,445.50001525878906"></path><path stroke-width="2" stroke="#2d2d2d" fill="none" d="M 591.3025630070613,440.50001525878906 L 591.3025630070613,445.50001525878906"></path><path stroke-width="2" stroke="#2d2d2d" fill="none" d="M 638.1512815035306,440.50001525878906 L 638.1512815035306,445.50001525878906"></path><path stroke-width="2" stroke="#2d2d2d" fill="none" d="M 685,440.50001525878906 L 685,445.50001525878906"></path></g><g class="title"><text transform="translate(380.4833297729492, 476.6000061035156) rotate(0)" text-anchor="middle" dominant-baseline="text-before-edge" font-size="16" fill="#2d2d2d" y="0" x="0">day</text></g></g><g class="left-axis"><g class="axisl-line"><path stroke-width="2" stroke="#2d2d2d" fill="none" d="M 59.96665954589844,43 L 59.96665954589844,438.50001525878906"></path></g><g class="label"><text transform="translate(48.96665954589844, 51.04999542236328) rotate(0)" text-anchor="end" dominant-baseline="middle" font-size="14" fill="#2d2d2d" y="0" x="0">30</text><text transform="translate(48.96665954589844, 76.34333038330078) rotate(0)" text-anchor="end" dominant-baseline="middle" font-size="14" fill="#2d2d2d" y="0" x="0">28</text><text transform="translate(48.96665954589844, 101.63666534423828) rotate(0)" text-anchor="end" dominant-baseline="middle" font-size="14" fill="#2d2d2d" y="0" x="0">26</text><text transform="translate(48.96665954589844, 126.93000030517577) rotate(0)" text-anchor="end" dominant-baseline="middle" font-size="14" fill="#2d2d2d" y="0" x="0">24</text><text transform="translate(48.96665954589844, 152.2233352661133) rotate(0)" text-anchor="end" dominant-baseline="middle" font-size="14" fill="#2d2d2d" y="0" x="0">22</text><text transform="translate(48.96665954589844, 177.51667022705078) rotate(0)" text-anchor="end" dominant-baseline="middle" font-size="14" fill="#2d2d2d" y="0" x="0">20</text><text transform="translate(48.96665954589844, 202.81000518798828) rotate(0)" text-anchor="end" dominant-baseline="middle" font-size="14" fill="#2d2d2d" y="0" x="0">18</text><text transform="translate(48.96665954589844, 228.10334014892578) rotate(0)" text-anchor="end" dominant-baseline="middle" font-size="14" fill="#2d2d2d" y="0" x="0">16</text><text transform="translate(48.96665954589844, 253.39667510986328) rotate(0)" text-anchor="end" dominant-baseline="middle" font-size="14" fill="#2d2d2d" y="0" x="0">14</text><text transform="translate(48.96665954589844, 278.6900100708008) rotate(0)" text-anchor="end" dominant-baseline="middle" font-size="14" fill="#2d2d2d" y="0" x="0">12</text><text transform="translate(48.96665954589844, 303.98334503173834) rotate(0)" text-anchor="end" dominant-baseline="middle" font-size="14" fill="#2d2d2d" y="0" x="0">10</text><text transform="translate(48.96665954589844, 329.2766799926758) rotate(0)" text-anchor="end" dominant-baseline="middle" font-size="14" fill="#2d2d2d" y="0" x="0">8</text><text transform="translate(48.96665954589844, 354.5700149536133) rotate(0)" text-anchor="end" dominant-baseline="middle" font-size="14" fill="#2d2d2d" y="0" x="0">6</text><text transform="translate(48.96665954589844, 379.86334991455084) rotate(0)" text-anchor="end" dominant-baseline="middle" font-size="14" fill="#2d2d2d" y="0" x="0">4</text><text transform="translate(48.96665954589844, 405.1566848754883) rotate(0)" text-anchor="end" dominant-baseline="middle" font-size="14" fill="#2d2d2d" y="0" x="0">2</text><text transform="translate(48.96665954589844, 430.4500198364258) rotate(0)" text-anchor="end" dominant-baseline="middle" font-size="14" fill="#2d2d2d" y="0" x="0">0</text></g><g class="ticks"><path stroke-width="2" stroke="#2d2d2d" fill="none" d="M 58.96665954589844,51.04999542236328 L 53.96665954589844,51.04999542236328"></path><path stroke-width="2" stroke="#2d2d2d" fill="none" d="M 58.96665954589844,76.34333038330078 L 53.96665954589844,76.34333038330078"></path><path stroke-width="2" stroke="#2d2d2d" fill="none" d="M 58.96665954589844,101.63666534423828 L 53.96665954589844,101.63666534423828"></path><path stroke-width="2" stroke="#2d2d2d" fill="none" d="M 58.96665954589844,126.93000030517577 L 53.96665954589844,126.93000030517577"></path><path stroke-width="2" stroke="#2d2d2d" fill="none" d="M 58.96665954589844,152.2233352661133 L 53.96665954589844,152.2233352661133"></path><path stroke-width="2" stroke="#2d2d2d" fill="none" d="M 58.96665954589844,177.51667022705078 L 53.96665954589844,177.51667022705078"></path><path stroke-width="2" stroke="#2d2d2d" fill="none" d="M 58.96665954589844,202.81000518798828 L 53.96665954589844,202.81000518798828"></path><path stroke-width="2" stroke="#2d2d2d" fill="none" d="M 58.96665954589844,228.10334014892578 L 53.96665954589844,228.10334014892578"></path><path stroke-width="2" stroke="#2d2d2d" fill="none" d="M 58.96665954589844,253.39667510986328 L 53.96665954589844,253.39667510986328"></path><path stroke-width="2" stroke="#2d2d2d" fill="none" d="M 58.96665954589844,278.6900100708008 L 53.96665954589844,278.6900100708008"></path><path stroke-width="2" stroke="#2d2d2d" fill="none" d="M 58.96665954589844,303.98334503173834 L 53.96665954589844,303.98334503173834"></path><path stroke-width="2" stroke="#2d2d2d" fill="none" d="M 58.96665954589844,329.2766799926758 L 53.96665954589844,329.2766799926758"></path><path stroke-width="2" stroke="#2d2d2d" fill="none" d="M 58.96665954589844,354.5700149536133 L 53.96665954589844,354.5700149536133"></path><path stroke-width="2" stroke="#2d2d2d" fill="none" d="M 58.96665954589844,379.86334991455084 L 53.96665954589844,379.86334991455084"></path><path stroke-width="2" stroke="#2d2d2d" fill="none" d="M 58.96665954589844,405.1566848754883 L 53.96665954589844,405.1566848754883"></path><path stroke-width="2" stroke="#2d2d2d" fill="none" d="M 58.96665954589844,430.4500198364258 L 53.96665954589844,430.4500198364258"></path></g><g class="title"><text transform="translate(5, 240.75000762939453) rotate(270)" text-anchor="middle" dominant-baseline="text-before-edge" font-size="16" fill="#2d2d2d" y="0" x="0">ramining effort (task)</text></g></g></g><g class="mermaid-tmp-group"></g></svg>