<?xml version="1.0" encoding="UTF-8"?>
<!-- Do not edit this file with editors other than draw.io -->
<!DOCTYPE svg PUBLIC "-//W3C//DTD SVG 1.1//EN" "http://www.w3.org/Graphics/SVG/1.1/DTD/svg11.dtd">
<svg xmlns="http://www.w3.org/2000/svg" xmlns:xlink="http://www.w3.org/1999/xlink" version="1.1" width="632px" height="367px" viewBox="-0.5 -0.5 632 367" content="&lt;mxfile host=&quot;app.diagrams.net&quot; agent=&quot;Mozilla/5.0 (X11; Linux x86_64; rv:132.0) Gecko/20100101 Firefox/132.0&quot; version=&quot;24.8.6&quot; scale=&quot;1&quot; border=&quot;5&quot;&gt;&#xA;  &lt;diagram name=&quot;Page-1&quot; id=&quot;uTk9cnF1U70z241z7TKI&quot;&gt;&#xA;    &lt;mxGraphModel dx=&quot;2314&quot; dy=&quot;1116&quot; grid=&quot;1&quot; gridSize=&quot;10&quot; guides=&quot;1&quot; tooltips=&quot;1&quot; connect=&quot;1&quot; arrows=&quot;1&quot; fold=&quot;1&quot; page=&quot;1&quot; pageScale=&quot;1&quot; pageWidth=&quot;600&quot; pageHeight=&quot;550&quot; math=&quot;0&quot; shadow=&quot;0&quot;&gt;&#xA;      &lt;root&gt;&#xA;        &lt;mxCell id=&quot;0&quot; /&gt;&#xA;        &lt;mxCell id=&quot;1&quot; parent=&quot;0&quot; /&gt;&#xA;        &lt;mxCell id=&quot;yet13AxtOV0CrZUUTRAz-1&quot; value=&quot;&quot; style=&quot;verticalAlign=top;verticalLabelPosition=bottom;labelPosition=center;align=center;html=1;outlineConnect=0;fillColor=#dae8fc;strokeColor=#6c8ebf;gradientDirection=north;strokeWidth=2;shape=mxgraph.networks.laptop;fillStyle=solid;sketch=1;curveFitting=1;jiggle=2;sketchStyle=comic;&quot; vertex=&quot;1&quot; parent=&quot;1&quot;&gt;&#xA;          &lt;mxGeometry x=&quot;-470&quot; y=&quot;160&quot; width=&quot;100&quot; height=&quot;55&quot; as=&quot;geometry&quot; /&gt;&#xA;        &lt;/mxCell&gt;&#xA;        &lt;mxCell id=&quot;yet13AxtOV0CrZUUTRAz-2&quot; value=&quot;&quot; style=&quot;verticalAlign=top;verticalLabelPosition=bottom;labelPosition=center;align=center;html=1;outlineConnect=0;fillColor=#dae8fc;strokeColor=#6c8ebf;gradientDirection=north;strokeWidth=2;shape=mxgraph.networks.laptop;fillStyle=solid;sketch=1;curveFitting=1;jiggle=2;sketchStyle=comic;&quot; vertex=&quot;1&quot; parent=&quot;1&quot;&gt;&#xA;          &lt;mxGeometry x=&quot;-340&quot; y=&quot;85&quot; width=&quot;100&quot; height=&quot;55&quot; as=&quot;geometry&quot; /&gt;&#xA;        &lt;/mxCell&gt;&#xA;        &lt;mxCell id=&quot;yet13AxtOV0CrZUUTRAz-3&quot; value=&quot;&quot; style=&quot;verticalAlign=top;verticalLabelPosition=bottom;labelPosition=center;align=center;html=1;outlineConnect=0;fillColor=#dae8fc;strokeColor=#6c8ebf;gradientDirection=north;strokeWidth=2;shape=mxgraph.networks.laptop;fillStyle=solid;sketch=1;curveFitting=1;jiggle=2;sketchStyle=comic;&quot; vertex=&quot;1&quot; parent=&quot;1&quot;&gt;&#xA;          &lt;mxGeometry x=&quot;-340&quot; y=&quot;160&quot; width=&quot;100&quot; height=&quot;55&quot; as=&quot;geometry&quot; /&gt;&#xA;        &lt;/mxCell&gt;&#xA;        &lt;mxCell id=&quot;yet13AxtOV0CrZUUTRAz-4&quot; value=&quot;&quot; style=&quot;verticalAlign=top;verticalLabelPosition=bottom;labelPosition=center;align=center;html=1;outlineConnect=0;fillColor=#dae8fc;strokeColor=#6c8ebf;gradientDirection=north;strokeWidth=2;shape=mxgraph.networks.laptop;fillStyle=solid;sketch=1;curveFitting=1;jiggle=2;sketchStyle=comic;&quot; vertex=&quot;1&quot; parent=&quot;1&quot;&gt;&#xA;          &lt;mxGeometry x=&quot;-210&quot; y=&quot;85&quot; width=&quot;100&quot; height=&quot;55&quot; as=&quot;geometry&quot; /&gt;&#xA;        &lt;/mxCell&gt;&#xA;        &lt;mxCell id=&quot;yet13AxtOV0CrZUUTRAz-5&quot; value=&quot;&quot; style=&quot;verticalAlign=top;verticalLabelPosition=bottom;labelPosition=center;align=center;html=1;outlineConnect=0;fillColor=#dae8fc;strokeColor=#6c8ebf;gradientDirection=north;strokeWidth=2;shape=mxgraph.networks.laptop;fillStyle=solid;sketch=1;curveFitting=1;jiggle=2;sketchStyle=comic;&quot; vertex=&quot;1&quot; parent=&quot;1&quot;&gt;&#xA;          &lt;mxGeometry x=&quot;-210&quot; y=&quot;160&quot; width=&quot;100&quot; height=&quot;55&quot; as=&quot;geometry&quot; /&gt;&#xA;        &lt;/mxCell&gt;&#xA;        &lt;mxCell id=&quot;yet13AxtOV0CrZUUTRAz-6&quot; value=&quot;&quot; style=&quot;verticalAlign=top;verticalLabelPosition=bottom;labelPosition=center;align=center;html=1;outlineConnect=0;fillColor=#f5f5f5;strokeColor=#666666;gradientDirection=north;strokeWidth=2;shape=mxgraph.networks.laptop;fillStyle=solid;fontColor=#333333;sketch=1;curveFitting=1;jiggle=2;sketchStyle=comic;&quot; vertex=&quot;1&quot; parent=&quot;1&quot;&gt;&#xA;          &lt;mxGeometry x=&quot;-80&quot; y=&quot;85&quot; width=&quot;100&quot; height=&quot;55&quot; as=&quot;geometry&quot; /&gt;&#xA;        &lt;/mxCell&gt;&#xA;        &lt;mxCell id=&quot;yet13AxtOV0CrZUUTRAz-7&quot; value=&quot;&quot; style=&quot;verticalAlign=top;verticalLabelPosition=bottom;labelPosition=center;align=center;html=1;outlineConnect=0;fillColor=#dae8fc;strokeColor=#6c8ebf;gradientDirection=north;strokeWidth=2;shape=mxgraph.networks.laptop;fillStyle=solid;sketch=1;curveFitting=1;jiggle=2;sketchStyle=comic;&quot; vertex=&quot;1&quot; parent=&quot;1&quot;&gt;&#xA;          &lt;mxGeometry x=&quot;-210&quot; y=&quot;10&quot; width=&quot;100&quot; height=&quot;55&quot; as=&quot;geometry&quot; /&gt;&#xA;        &lt;/mxCell&gt;&#xA;        &lt;mxCell id=&quot;yet13AxtOV0CrZUUTRAz-8&quot; value=&quot;&quot; style=&quot;verticalAlign=top;verticalLabelPosition=bottom;labelPosition=center;align=center;html=1;outlineConnect=0;fillColor=#f5f5f5;strokeColor=#666666;gradientDirection=north;strokeWidth=2;shape=mxgraph.networks.laptop;fillStyle=solid;fontColor=#333333;sketch=1;curveFitting=1;jiggle=2;sketchStyle=comic;&quot; vertex=&quot;1&quot; parent=&quot;1&quot;&gt;&#xA;          &lt;mxGeometry x=&quot;-80&quot; y=&quot;160&quot; width=&quot;100&quot; height=&quot;55&quot; as=&quot;geometry&quot; /&gt;&#xA;        &lt;/mxCell&gt;&#xA;        &lt;mxCell id=&quot;yet13AxtOV0CrZUUTRAz-9&quot; value=&quot;&quot; style=&quot;verticalAlign=top;verticalLabelPosition=bottom;labelPosition=center;align=center;html=1;outlineConnect=0;fillColor=#f5f5f5;strokeColor=#666666;gradientDirection=north;strokeWidth=2;shape=mxgraph.networks.laptop;fillStyle=solid;fontColor=#333333;sketch=1;curveFitting=1;jiggle=2;sketchStyle=comic;&quot; vertex=&quot;1&quot; parent=&quot;1&quot;&gt;&#xA;          &lt;mxGeometry x=&quot;-80&quot; y=&quot;10&quot; width=&quot;100&quot; height=&quot;55&quot; as=&quot;geometry&quot; /&gt;&#xA;        &lt;/mxCell&gt;&#xA;        &lt;mxCell id=&quot;yet13AxtOV0CrZUUTRAz-10&quot; value=&quot;&quot; style=&quot;verticalAlign=top;verticalLabelPosition=bottom;labelPosition=center;align=center;html=1;outlineConnect=0;fillColor=#f5f5f5;strokeColor=#666666;gradientDirection=north;strokeWidth=2;shape=mxgraph.networks.laptop;fillStyle=solid;fontColor=#333333;sketch=1;curveFitting=1;jiggle=2;sketchStyle=comic;&quot; vertex=&quot;1&quot; parent=&quot;1&quot;&gt;&#xA;          &lt;mxGeometry x=&quot;-80&quot; y=&quot;-140&quot; width=&quot;100&quot; height=&quot;55&quot; as=&quot;geometry&quot; /&gt;&#xA;        &lt;/mxCell&gt;&#xA;        &lt;mxCell id=&quot;yet13AxtOV0CrZUUTRAz-11&quot; value=&quot;&quot; style=&quot;verticalAlign=top;verticalLabelPosition=bottom;labelPosition=center;align=center;html=1;outlineConnect=0;fillColor=#f5f5f5;strokeColor=#666666;gradientDirection=north;strokeWidth=2;shape=mxgraph.networks.laptop;fillStyle=solid;fontColor=#333333;sketch=1;curveFitting=1;jiggle=2;sketchStyle=comic;&quot; vertex=&quot;1&quot; parent=&quot;1&quot;&gt;&#xA;          &lt;mxGeometry x=&quot;-80&quot; y=&quot;-65&quot; width=&quot;100&quot; height=&quot;55&quot; as=&quot;geometry&quot; /&gt;&#xA;        &lt;/mxCell&gt;&#xA;        &lt;mxCell id=&quot;yet13AxtOV0CrZUUTRAz-12&quot; value=&quot;&quot; style=&quot;verticalAlign=top;verticalLabelPosition=bottom;labelPosition=center;align=center;html=1;outlineConnect=0;fillColor=#dae8fc;strokeColor=#6c8ebf;gradientDirection=north;strokeWidth=2;shape=mxgraph.networks.laptop;fillStyle=solid;sketch=1;curveFitting=1;jiggle=2;sketchStyle=comic;&quot; vertex=&quot;1&quot; parent=&quot;1&quot;&gt;&#xA;          &lt;mxGeometry x=&quot;-600&quot; y=&quot;160&quot; width=&quot;100&quot; height=&quot;55&quot; as=&quot;geometry&quot; /&gt;&#xA;        &lt;/mxCell&gt;&#xA;      &lt;/root&gt;&#xA;    &lt;/mxGraphModel&gt;&#xA;  &lt;/diagram&gt;&#xA;&lt;/mxfile&gt;&#xA;"><defs/><g><g data-cell-id="0"><g data-cell-id="1"><g data-cell-id="yet13AxtOV0CrZUUTRAz-1"><g><path d="M 149.95 343.57 L 149.95 344.09 L 160.22 343.52 L 170.48 343.07 L 180.75 344.2 L 191.01 343.54 L 201.28 342.79 L 211.55 342.65 L 221.81 343.57 L 221.87 343.62 L 224.8 347.18 L 227.74 350.74 L 230.16 353.89 L 233.2 357.55 L 236 361 L 236 360.43 L 226 360.36 L 216 360.4 L 206 361.73 L 196 361.58 L 186 361.53 L 176 360.77 L 166 361.86 L 156 361.13 L 146 360.34 L 136 361 L 136.21 361.16 L 138.99 357.68 L 141.72 354.14 L 144.6 350.72 L 147.21 347.1 L 149.95 343.57 Z Z M 152.5 306 L 152.5 306.72 L 162 306.97 L 171.5 306.69 L 181 306.74 L 190.5 306.72 L 200 306.95 L 209.5 306.42 L 219 306 L 218.87 305.99 L 219.54 313.44 L 219.78 320.86 L 219.99 328.28 L 220.4 335.7 L 220.98 343.14 L 220.98 343.09 L 210.91 343.59 L 200.85 343.94 L 190.79 342.25 L 180.72 342.77 L 170.66 342.68 L 160.6 343.38 L 150.53 343.14 L 150.46 343.14 L 150.99 335.72 L 151.07 328.27 L 151.62 320.85 L 152.18 313.43 L 152.5 306 Z Z" fill="#dae8fc" stroke="#6c8ebf" stroke-width="1.9" stroke-linejoin="round" stroke-linecap="round" stroke-miterlimit="10" pointer-events="all"/><path d="M 153 347.9 L 153 347.15 L 162.57 348.88 L 172.14 348.07 L 181.71 348.21 L 191.28 348.7 L 200.85 347.34 L 210.42 348.48 L 219.99 347.9 M 148.56 352.67 L 148.56 353.54 L 158.04 353.26 L 167.53 352.4 L 177.01 353.57 L 186.49 353.11 L 195.98 352.98 L 205.46 352.37 L 214.94 351.98 L 224.42 352.67 M 167.77 356.95 L 167.77 356.99 L 174.67 357 L 181.57 356.86 L 188.46 356.64 L 195.36 356.63 L 202.26 356.95" fill="none" stroke="#6c8ebf" stroke-width="1.9" stroke-linejoin="round" stroke-linecap="round" stroke-miterlimit="10" pointer-events="all"/><path d="M 155.75 309.33 L 155.75 310.06 L 165.77 309.51 L 175.79 309.13 L 185.8 309.88 L 195.82 309.31 L 205.84 308.53 L 215.85 309.33 L 216.06 309.34 L 215.95 315.42 L 216.39 321.52 L 216.84 327.62 L 217.33 333.72 L 217.53 339.81 L 217.53 339.48 L 206.94 339.78 L 196.34 339.43 L 185.75 339.99 L 175.16 339.11 L 164.57 338.87 L 153.98 339.81 L 153.65 339.79 L 154.11 333.7 L 154.77 327.62 L 154.82 321.51 L 155.39 315.43 L 155.75 309.33 Z Z" fill="#ffffff" stroke="none" pointer-events="all"/></g></g><g data-cell-id="yet13AxtOV0CrZUUTRAz-2"><g><path d="M 279.95 268.57 L 279.95 267.89 L 290.22 268.1 L 300.48 267.76 L 310.75 269.16 L 321.01 269.44 L 331.28 268.23 L 341.55 268.92 L 351.81 268.57 L 351.79 268.55 L 354.66 272.06 L 357.68 275.7 L 360.4 279.09 L 363.42 282.72 L 366 286 L 366 286.55 L 356 285.07 L 346 285.58 L 336 286.46 L 326 285.03 L 316 286.6 L 306 286.83 L 296 286.09 L 286 287 L 276 286.18 L 266 286 L 266.16 286.12 L 268.94 282.64 L 271.63 279.07 L 274.17 275.38 L 276.99 271.92 L 279.95 268.57 Z Z M 282.5 231 L 282.5 230.21 L 292 230.9 L 301.5 230.31 L 311 231.67 L 320.5 230.8 L 330 230.58 L 339.5 230.74 L 349 231 L 349.28 231.01 L 349.37 238.43 L 349.9 245.86 L 350.24 253.29 L 350.9 260.73 L 350.98 268.14 L 350.98 267.53 L 340.91 267.51 L 330.85 267.93 L 320.79 268.02 L 310.72 267.38 L 300.66 268.22 L 290.6 269.04 L 280.53 268.14 L 280.77 268.16 L 281.16 260.73 L 281.08 253.27 L 281.48 245.84 L 282.38 238.44 L 282.5 231 Z Z" fill="#dae8fc" stroke="#6c8ebf" stroke-width="1.9" stroke-linejoin="round" stroke-linecap="round" stroke-miterlimit="10" pointer-events="all"/><path d="M 283 272.9 L 283 272.06 L 292.57 273.63 L 302.14 273.84 L 311.71 273.9 L 321.28 272.88 L 330.85 272.21 L 340.42 271.99 L 349.99 272.9 M 278.56 277.67 L 278.56 277.95 L 288.04 276.81 L 297.53 278.58 L 307.01 278.63 L 316.49 278.65 L 325.98 277.84 L 335.46 276.95 L 344.94 277.06 L 354.42 277.67 M 297.77 281.95 L 297.77 281.86 L 304.67 282.15 L 311.57 281.8 L 318.46 282.17 L 325.36 281.9 L 332.26 281.95" fill="none" stroke="#6c8ebf" stroke-width="1.9" stroke-linejoin="round" stroke-linecap="round" stroke-miterlimit="10" pointer-events="all"/><path d="M 285.75 234.33 L 285.75 233.52 L 295.77 234.38 L 305.79 233.91 L 315.8 233.88 L 325.82 235.03 L 335.84 233.4 L 345.85 234.33 L 345.6 234.32 L 346.01 240.42 L 346.84 246.54 L 346.57 252.6 L 347.21 258.72 L 347.53 264.81 L 347.53 263.88 L 336.94 264.2 L 326.34 265.12 L 315.75 265.08 L 305.16 265.13 L 294.57 264.6 L 283.98 264.81 L 284.07 264.81 L 284.63 258.73 L 284.81 252.63 L 285.27 246.54 L 285.58 240.44 L 285.75 234.33 Z Z" fill="#ffffff" stroke="none" pointer-events="all"/></g></g><g data-cell-id="yet13AxtOV0CrZUUTRAz-3"><g><path d="M 279.95 343.57 L 279.95 343.75 L 290.22 343.83 L 300.48 343.19 L 310.75 344.13 L 321.01 342.69 L 331.28 344.36 L 341.55 342.85 L 351.81 343.57 L 351.98 343.7 L 354.71 347.11 L 357.63 350.66 L 360.37 354.07 L 363.35 357.67 L 366 361 L 366 360.92 L 356 360.92 L 346 361.1 L 336 360.13 L 326 360.26 L 316 361.78 L 306 360.12 L 296 360.18 L 286 360.57 L 276 361.18 L 266 361 L 266.05 361.04 L 268.61 357.37 L 271.52 353.98 L 274.18 350.39 L 277.29 347.16 L 279.95 343.57 Z Z M 282.5 306 L 282.5 305.68 L 292 306.63 L 301.5 305.43 L 311 306.69 L 320.5 306.11 L 330 306.32 L 339.5 306.98 L 349 306 L 349.07 306 L 349.5 313.43 L 349.8 320.86 L 350.47 328.3 L 350.51 335.71 L 350.98 343.14 L 350.98 342.25 L 340.91 342.97 L 330.85 343.13 L 320.79 343.1 L 310.72 342.87 L 300.66 342.27 L 290.6 344 L 280.53 343.14 L 280.75 343.15 L 281.22 335.73 L 281.29 328.28 L 282.02 320.87 L 282.31 313.44 L 282.5 306 Z Z" fill="#dae8fc" stroke="#6c8ebf" stroke-width="1.9" stroke-linejoin="round" stroke-linecap="round" stroke-miterlimit="10" pointer-events="all"/><path d="M 283 347.9 L 283 347.26 L 292.57 347.85 L 302.14 347.43 L 311.71 348.08 L 321.28 348.39 L 330.85 347.64 L 340.42 347.56 L 349.99 347.9 M 278.56 352.67 L 278.56 352.28 L 288.04 352.89 L 297.53 353.46 L 307.01 352.48 L 316.49 353.37 L 325.98 352.92 L 335.46 353.42 L 344.94 351.84 L 354.42 352.67 M 297.77 356.95 L 297.77 356.73 L 304.67 356.83 L 311.57 356.72 L 318.46 356.71 L 325.36 356.72 L 332.26 356.95" fill="none" stroke="#6c8ebf" stroke-width="1.9" stroke-linejoin="round" stroke-linecap="round" stroke-miterlimit="10" pointer-events="all"/><path d="M 285.75 309.33 L 285.75 309.93 L 295.77 309.68 L 305.79 309.54 L 315.8 308.65 L 325.82 308.37 L 335.84 309.41 L 345.85 309.33 L 345.93 309.34 L 346.5 315.45 L 346.6 321.53 L 347.16 327.64 L 347.2 333.71 L 347.53 339.81 L 347.53 339.49 L 336.94 340.8 L 326.34 339.84 L 315.75 340.74 L 305.16 340.59 L 294.57 339.13 L 283.98 339.81 L 283.91 339.81 L 284.12 333.7 L 284.46 327.61 L 284.82 321.51 L 285.4 315.43 L 285.75 309.33 Z Z" fill="#ffffff" stroke="none" pointer-events="all"/></g></g><g data-cell-id="yet13AxtOV0CrZUUTRAz-4"><g><path d="M 409.95 268.57 L 409.95 267.62 L 420.22 269.23 L 430.48 269.29 L 440.75 267.78 L 451.01 267.62 L 461.28 268.23 L 471.55 269.48 L 481.81 268.57 L 481.66 268.44 L 484.68 272.08 L 487.3 275.39 L 490.13 278.87 L 493.26 282.59 L 496 286 L 496 286.09 L 486 286.78 L 476 285.82 L 466 286.99 L 456 285.3 L 446 285.99 L 436 286.23 L 426 285.45 L 416 285.32 L 406 286.18 L 396 286 L 396.13 286.1 L 398.87 282.58 L 401.55 279 L 404.54 275.68 L 407.25 272.13 L 409.95 268.57 Z Z M 412.5 231 L 412.5 230.19 L 422 230.45 L 431.5 230.38 L 441 231.22 L 450.5 231.43 L 460 231.02 L 469.5 230.76 L 479 231 L 479.24 231.01 L 479.12 238.41 L 479.49 245.84 L 479.91 253.27 L 480.77 260.72 L 480.98 268.14 L 480.98 268.6 L 470.91 267.99 L 460.85 268.32 L 450.79 268.12 L 440.72 268.94 L 430.66 267.78 L 420.6 268.98 L 410.53 268.14 L 410.72 268.15 L 410.7 260.7 L 411.59 253.3 L 411.59 245.85 L 412.44 238.45 L 412.5 231 Z Z" fill="#dae8fc" stroke="#6c8ebf" stroke-width="1.9" stroke-linejoin="round" stroke-linecap="round" stroke-miterlimit="10" pointer-events="all"/><path d="M 413 272.9 L 413 273.04 L 422.57 272.16 L 432.14 272.86 L 441.71 273.84 L 451.28 273.59 L 460.85 273.04 L 470.42 273.64 L 479.99 272.9 M 408.56 277.67 L 408.56 277.96 L 418.04 277.39 L 427.53 278.4 L 437.01 277.56 L 446.49 276.73 L 455.98 276.71 L 465.46 277.33 L 474.94 278.55 L 484.42 277.67 M 427.77 281.95 L 427.77 281.62 L 434.67 282.13 L 441.57 282.17 L 448.46 281.82 L 455.36 282.16 L 462.26 281.95" fill="none" stroke="#6c8ebf" stroke-width="1.9" stroke-linejoin="round" stroke-linecap="round" stroke-miterlimit="10" pointer-events="all"/><path d="M 415.75 234.33 L 415.75 233.61 L 425.77 234.69 L 435.79 233.74 L 445.8 235.2 L 455.82 234.11 L 465.84 235.16 L 475.85 234.33 L 476.09 234.35 L 476.12 240.42 L 476.25 246.51 L 476.88 252.62 L 476.86 258.7 L 477.53 264.81 L 477.53 265.44 L 466.94 264.4 L 456.34 264.77 L 445.75 264.6 L 435.16 265.7 L 424.57 265.54 L 413.98 264.81 L 414.08 264.82 L 414.39 258.72 L 414.77 252.62 L 415.14 246.53 L 415.49 240.43 L 415.75 234.33 Z Z" fill="#ffffff" stroke="none" pointer-events="all"/></g></g><g data-cell-id="yet13AxtOV0CrZUUTRAz-5"><g><path d="M 409.95 343.57 L 409.95 344.51 L 420.22 343.34 L 430.48 343.69 L 440.75 342.72 L 451.01 343.34 L 461.28 343.66 L 471.55 342.8 L 481.81 343.57 L 481.81 343.57 L 484.6 347.02 L 487.52 350.57 L 490.18 353.91 L 493.07 357.44 L 496 361 L 496 360.99 L 486 361.1 L 476 361.36 L 466 361.87 L 456 360.84 L 446 360.16 L 436 360.1 L 426 361.2 L 416 361.64 L 406 361.11 L 396 361 L 395.84 360.87 L 399.05 357.72 L 401.66 354.09 L 404.62 350.74 L 407.19 347.08 L 409.95 343.57 Z Z M 412.5 306 L 412.5 306.15 L 422 306.15 L 431.5 306.88 L 441 305.38 L 450.5 305.75 L 460 305.42 L 469.5 306.34 L 479 306 L 479 306 L 479.11 313.41 L 479.67 320.85 L 480.3 328.29 L 480.65 335.72 L 480.98 343.14 L 480.98 343.6 L 470.91 342.67 L 460.85 343.18 L 450.79 343.7 L 440.72 342.15 L 430.66 343.53 L 420.6 342.41 L 410.53 343.14 L 410.37 343.13 L 410.74 335.7 L 411.19 328.28 L 411.72 320.86 L 411.85 313.41 L 412.5 306 Z Z" fill="#dae8fc" stroke="#6c8ebf" stroke-width="1.9" stroke-linejoin="round" stroke-linecap="round" stroke-miterlimit="10" pointer-events="all"/><path d="M 413 347.9 L 413 347.56 L 422.57 347.37 L 432.14 348.71 L 441.71 347.9 L 451.28 347.74 L 460.85 348.62 L 470.42 348.22 L 479.99 347.9 M 408.56 352.67 L 408.56 353.44 L 418.04 352.62 L 427.53 352.15 L 437.01 352.39 L 446.49 352.93 L 455.98 352.93 L 465.46 352.82 L 474.94 351.97 L 484.42 352.67 M 427.77 356.95 L 427.77 357.05 L 434.67 356.88 L 441.57 356.76 L 448.46 356.82 L 455.36 356.99 L 462.26 356.95" fill="none" stroke="#6c8ebf" stroke-width="1.9" stroke-linejoin="round" stroke-linecap="round" stroke-miterlimit="10" pointer-events="all"/><path d="M 415.75 309.33 L 415.75 308.36 L 425.77 308.67 L 435.79 308.69 L 445.8 310.29 L 455.82 309.13 L 465.84 309.2 L 475.85 309.33 L 475.88 309.33 L 476.2 315.43 L 476.7 321.53 L 476.9 327.62 L 477.4 333.73 L 477.53 339.81 L 477.53 338.83 L 466.94 339.33 L 456.34 339.52 L 445.75 339.43 L 435.16 339.66 L 424.57 338.97 L 413.98 339.81 L 414.06 339.81 L 414.17 333.7 L 414.44 327.6 L 414.88 321.51 L 415.64 315.44 L 415.75 309.33 Z Z" fill="#ffffff" stroke="none" pointer-events="all"/></g></g><g data-cell-id="yet13AxtOV0CrZUUTRAz-6"><g><path d="M 539.95 268.57 L 539.95 269.3 L 550.22 269.53 L 560.48 268.69 L 570.75 268.19 L 581.01 269.5 L 591.28 268.92 L 601.55 267.71 L 611.81 268.57 L 611.85 268.6 L 614.81 272.19 L 617.58 275.62 L 620.43 279.11 L 623.11 282.47 L 626 286 L 626 285.13 L 616 285.66 L 606 286.57 L 596 286.69 L 586 286.3 L 576 285.3 L 566 285.58 L 556 285.11 L 546 286.61 L 536 286.78 L 526 286 L 525.94 285.96 L 528.55 282.32 L 531.45 278.92 L 534.38 275.55 L 537.31 272.18 L 539.95 268.57 Z Z M 542.5 231 L 542.5 230.54 L 552 231.23 L 561.5 230.47 L 571 231.26 L 580.5 231.84 L 590 230.37 L 599.5 230.32 L 609 231 L 608.79 230.99 L 609.56 238.44 L 609.63 245.85 L 610.29 253.29 L 610.38 260.7 L 610.98 268.14 L 610.98 267.33 L 600.91 267.66 L 590.85 268.67 L 580.79 268.91 L 570.72 267.22 L 560.66 268.86 L 550.6 267.32 L 540.53 268.14 L 540.84 268.16 L 541.06 260.72 L 541.57 253.3 L 541.46 245.84 L 542.31 238.44 L 542.5 231 Z Z" fill="#f5f5f5" stroke="#666666" stroke-width="1.9" stroke-linejoin="round" stroke-linecap="round" stroke-miterlimit="10" pointer-events="all"/><path d="M 543 272.9 L 543 272.37 L 552.57 273.21 L 562.14 272.49 L 571.71 272.77 L 581.28 272.27 L 590.85 272.64 L 600.42 273.31 L 609.99 272.9 M 538.56 277.67 L 538.56 276.74 L 548.04 276.87 L 557.53 278.41 L 567.01 278.56 L 576.49 277.65 L 585.98 277.6 L 595.46 278.65 L 604.94 278.47 L 614.42 277.67 M 557.77 281.95 L 557.77 281.67 L 564.67 281.71 L 571.57 281.84 L 578.46 281.94 L 585.36 281.81 L 592.26 281.95" fill="none" stroke="#666666" stroke-width="1.9" stroke-linejoin="round" stroke-linecap="round" stroke-miterlimit="10" pointer-events="all"/><path d="M 545.75 234.33 L 545.75 234.79 L 555.77 233.35 L 565.79 234.32 L 575.8 233.54 L 585.82 234.65 L 595.84 235.2 L 605.85 234.33 L 605.94 234.34 L 605.9 240.41 L 606.45 246.52 L 606.97 252.63 L 607.23 258.72 L 607.53 264.81 L 607.53 264.45 L 596.94 264.83 L 586.34 263.81 L 575.75 264.88 L 565.16 264.15 L 554.57 264.01 L 543.98 264.81 L 543.8 264.8 L 544.37 258.72 L 544.48 252.61 L 545.1 246.53 L 545.56 240.44 L 545.75 234.33 Z Z" fill="#ffffff" stroke="none" pointer-events="all"/></g></g><g data-cell-id="yet13AxtOV0CrZUUTRAz-7"><g><path d="M 409.95 193.57 L 409.95 193.06 L 420.22 193.28 L 430.48 193.76 L 440.75 193.85 L 451.01 193.16 L 461.28 194.5 L 471.55 194.55 L 481.81 193.57 L 481.88 193.63 L 484.4 196.85 L 487.52 200.57 L 490.31 204.02 L 493.39 207.7 L 496 211 L 496 210.91 L 486 210.54 L 476 210.2 L 466 211.01 L 456 211.68 L 446 210.55 L 436 211.32 L 426 211.07 L 416 211.09 L 406 210.09 L 396 211 L 396.04 211.03 L 398.63 207.38 L 401.6 204.05 L 404.29 200.48 L 407.23 197.11 L 409.95 193.57 Z Z M 412.5 156 L 412.5 155.75 L 422 156.32 L 431.5 155.9 L 441 155.91 L 450.5 156.31 L 460 155.05 L 469.5 155.03 L 479 156 L 479.05 156 L 479.18 163.42 L 479.99 170.87 L 479.9 178.27 L 480.9 185.73 L 480.98 193.14 L 480.98 192.4 L 470.91 192.52 L 460.85 192.93 L 450.79 193.66 L 440.72 193.28 L 430.66 193.54 L 420.6 192.69 L 410.53 193.14 L 410.68 193.15 L 410.86 185.71 L 411.38 178.29 L 411.54 170.85 L 412.21 163.43 L 412.5 156 Z Z" fill="#dae8fc" stroke="#6c8ebf" stroke-width="1.9" stroke-linejoin="round" stroke-linecap="round" stroke-miterlimit="10" pointer-events="all"/><path d="M 413 197.9 L 413 197.37 L 422.57 197.27 L 432.14 197.47 L 441.71 197.54 L 451.28 197.08 L 460.85 196.99 L 470.42 197.13 L 479.99 197.9 M 408.56 202.67 L 408.56 202.74 L 418.04 203.05 L 427.53 202.15 L 437.01 202.05 L 446.49 201.73 L 455.98 202.26 L 465.46 202.4 L 474.94 203.58 L 484.42 202.67 M 427.77 206.95 L 427.77 207.07 L 434.67 206.8 L 441.57 206.76 L 448.46 206.67 L 455.36 207.15 L 462.26 206.95" fill="none" stroke="#6c8ebf" stroke-width="1.9" stroke-linejoin="round" stroke-linecap="round" stroke-miterlimit="10" pointer-events="all"/><path d="M 415.75 159.33 L 415.75 159.83 L 425.77 158.56 L 435.79 158.75 L 445.8 159.52 L 455.82 159.38 L 465.84 158.5 L 475.85 159.33 L 475.81 159.33 L 476.05 165.42 L 476.77 171.54 L 477.14 177.63 L 477.39 183.72 L 477.53 189.81 L 477.53 189.03 L 466.94 190.23 L 456.34 189.45 L 445.75 190.66 L 435.16 190.6 L 424.57 190.68 L 413.98 189.81 L 413.76 189.8 L 414.38 183.72 L 414.74 177.62 L 415.12 171.53 L 415.48 165.43 L 415.75 159.33 Z Z" fill="#ffffff" stroke="none" pointer-events="all"/></g></g><g data-cell-id="yet13AxtOV0CrZUUTRAz-8"><g><path d="M 539.95 343.57 L 539.95 343.1 L 550.22 342.79 L 560.48 342.74 L 570.75 344.44 L 581.01 344.31 L 591.28 343.63 L 601.55 344.1 L 611.81 343.57 L 611.74 343.51 L 614.55 346.97 L 617.34 350.42 L 620.26 353.98 L 623.19 357.54 L 626 361 L 626 360.11 L 616 360.75 L 606 361.89 L 596 361.67 L 586 360.33 L 576 360.42 L 566 361.64 L 556 361.15 L 546 360.31 L 536 361.49 L 526 361 L 526.16 361.12 L 528.59 357.35 L 531.65 354.08 L 534.59 350.72 L 536.96 346.89 L 539.95 343.57 Z Z M 542.5 306 L 542.5 306.68 L 552 305.01 L 561.5 305.25 L 571 306.61 L 580.5 306.04 L 590 305.72 L 599.5 306.55 L 609 306 L 608.79 305.99 L 609.16 313.42 L 609.7 320.85 L 610.5 328.3 L 610.43 335.71 L 610.98 343.14 L 610.98 344.13 L 600.91 342.65 L 590.85 343.85 L 580.79 344.01 L 570.72 343.62 L 560.66 343.23 L 550.6 343.74 L 540.53 343.14 L 540.73 343.15 L 541.22 335.73 L 541.46 328.29 L 541.91 320.87 L 541.98 313.42 L 542.5 306 Z Z" fill="#f5f5f5" stroke="#666666" stroke-width="1.9" stroke-linejoin="round" stroke-linecap="round" stroke-miterlimit="10" pointer-events="all"/><path d="M 543 347.9 L 543 347.97 L 552.57 346.95 L 562.14 347.74 L 571.71 347.46 L 581.28 347.54 L 590.85 347.98 L 600.42 348.02 L 609.99 347.9 M 538.56 352.67 L 538.56 353 L 548.04 353.48 L 557.53 352.38 L 567.01 352.54 L 576.49 351.95 L 585.98 352.25 L 595.46 352.73 L 604.94 353.34 L 614.42 352.67 M 557.77 356.95 L 557.77 356.81 L 564.67 356.87 L 571.57 356.94 L 578.46 356.78 L 585.36 356.75 L 592.26 356.95" fill="none" stroke="#666666" stroke-width="1.9" stroke-linejoin="round" stroke-linecap="round" stroke-miterlimit="10" pointer-events="all"/><path d="M 545.75 309.33 L 545.75 310.13 L 555.77 308.98 L 565.79 308.89 L 575.8 309.96 L 585.82 308.68 L 595.84 309.32 L 605.85 309.33 L 605.81 309.33 L 606.09 315.42 L 606.23 321.51 L 606.8 327.62 L 607.16 333.71 L 607.53 339.81 L 607.53 339.52 L 596.94 339.48 L 586.34 340.31 L 575.75 339.68 L 565.16 339.58 L 554.57 340.09 L 543.98 339.81 L 543.92 339.81 L 544.13 333.7 L 544.61 327.61 L 544.94 321.52 L 545.16 315.41 L 545.75 309.33 Z Z" fill="#ffffff" stroke="none" pointer-events="all"/></g></g><g data-cell-id="yet13AxtOV0CrZUUTRAz-9"><g><path d="M 539.95 193.57 L 539.95 192.68 L 550.22 194.08 L 560.48 193.04 L 570.75 194.14 L 581.01 192.78 L 591.28 194.34 L 601.55 193.22 L 611.81 193.57 L 612.03 193.75 L 614.8 197.18 L 617.56 200.6 L 620.54 204.2 L 623.23 207.57 L 626 211 L 626 210.77 L 616 211.03 L 606 210.23 L 596 211.17 L 586 210.76 L 576 211.02 L 566 211.47 L 556 210.07 L 546 210.02 L 536 210.09 L 526 211 L 525.8 210.84 L 528.59 207.35 L 531.43 203.91 L 534.59 200.72 L 537.38 197.23 L 539.95 193.57 Z Z M 542.5 156 L 542.5 155.53 L 552 156.66 L 561.5 156.47 L 571 156.38 L 580.5 155.54 L 590 155.16 L 599.5 156.83 L 609 156 L 609.27 156.01 L 609.16 163.42 L 609.79 170.86 L 610.07 178.28 L 610.3 185.7 L 610.98 193.14 L 610.98 192.65 L 600.91 193.15 L 590.85 193.56 L 580.79 193.45 L 570.72 192.98 L 560.66 192.66 L 550.6 192.81 L 540.53 193.14 L 540.82 193.16 L 541.23 185.73 L 541.42 178.29 L 541.84 170.86 L 541.89 163.42 L 542.5 156 Z Z" fill="#f5f5f5" stroke="#666666" stroke-width="1.9" stroke-linejoin="round" stroke-linecap="round" stroke-miterlimit="10" pointer-events="all"/><path d="M 543 197.9 L 543 198.31 L 552.57 198.77 L 562.14 197.89 L 571.71 198.04 L 581.28 198.39 L 590.85 197.85 L 600.42 197.25 L 609.99 197.9 M 538.56 202.67 L 538.56 203.47 L 548.04 202.63 L 557.53 203.01 L 567.01 202.81 L 576.49 202.02 L 585.98 202.5 L 595.46 202.69 L 604.94 203.6 L 614.42 202.67 M 557.77 206.95 L 557.77 206.79 L 564.67 206.86 L 571.57 206.92 L 578.46 206.69 L 585.36 206.79 L 592.26 206.95" fill="none" stroke="#666666" stroke-width="1.9" stroke-linejoin="round" stroke-linecap="round" stroke-miterlimit="10" pointer-events="all"/><path d="M 545.75 159.33 L 545.75 158.61 L 555.77 158.5 L 565.79 158.37 L 575.8 159.25 L 585.82 159.4 L 595.84 159.79 L 605.85 159.33 L 605.64 159.32 L 606.5 165.45 L 606.46 171.52 L 606.66 177.61 L 607.39 183.72 L 607.53 189.81 L 607.53 188.91 L 596.94 190.3 L 586.34 189.51 L 575.75 190.78 L 565.16 189.16 L 554.57 190.29 L 543.98 189.81 L 544.31 189.83 L 544.35 183.72 L 544.93 177.63 L 544.93 171.52 L 545.57 165.44 L 545.75 159.33 Z Z" fill="#ffffff" stroke="none" pointer-events="all"/></g></g><g data-cell-id="yet13AxtOV0CrZUUTRAz-10"><g><path d="M 539.95 43.57 L 539.95 44.49 L 550.22 44.27 L 560.48 43.97 L 570.75 43.86 L 581.01 42.9 L 591.28 43.72 L 601.55 43.19 L 611.81 43.57 L 611.65 43.44 L 614.55 46.98 L 617.29 50.39 L 620.28 53.99 L 623.32 57.64 L 626 61 L 626 60.45 L 616 60.89 L 606 61.51 L 596 60.78 L 586 61.48 L 576 60.54 L 566 60.43 L 556 60.36 L 546 60.88 L 536 60.45 L 526 61 L 525.97 60.98 L 528.65 57.4 L 531.35 53.84 L 534.13 50.35 L 536.94 46.88 L 539.95 43.57 Z Z M 542.5 6 L 542.5 5.33 L 552 6.31 L 561.5 6.59 L 571 6.55 L 580.5 6.92 L 590 5.68 L 599.5 6.21 L 609 6 L 609.3 6.02 L 609.73 13.45 L 609.75 20.86 L 609.91 28.27 L 610.72 35.72 L 610.98 43.14 L 610.98 42.83 L 600.91 44.12 L 590.85 43.06 L 580.79 43.59 L 570.72 44.13 L 560.66 43.93 L 550.6 42.8 L 540.53 43.14 L 540.21 43.13 L 540.98 35.72 L 541.5 28.3 L 542.01 20.87 L 542.11 13.43 L 542.5 6 Z Z" fill="#f5f5f5" stroke="#666666" stroke-width="1.9" stroke-linejoin="round" stroke-linecap="round" stroke-miterlimit="10" pointer-events="all"/><path d="M 543 47.9 L 543 47 L 552.57 48.03 L 562.14 47.04 L 571.71 48.83 L 581.28 48.61 L 590.85 48.45 L 600.42 47.63 L 609.99 47.9 M 538.56 52.67 L 538.56 52.24 L 548.04 52.77 L 557.53 52.56 L 567.01 52.22 L 576.49 51.72 L 585.98 51.82 L 595.46 52.84 L 604.94 53.23 L 614.42 52.67 M 557.77 56.95 L 557.77 57.02 L 564.67 57.08 L 571.57 56.94 L 578.46 56.62 L 585.36 57.24 L 592.26 56.95" fill="none" stroke="#666666" stroke-width="1.9" stroke-linejoin="round" stroke-linecap="round" stroke-miterlimit="10" pointer-events="all"/><path d="M 545.75 9.33 L 545.75 10.09 L 555.77 9.34 L 565.79 9.49 L 575.8 9.17 L 585.82 8.75 L 595.84 9.98 L 605.85 9.33 L 605.59 9.32 L 605.93 15.41 L 606.34 21.51 L 606.96 27.62 L 607.5 33.73 L 607.53 39.81 L 607.53 40.8 L 596.94 38.92 L 586.34 39.32 L 575.75 40.36 L 565.16 40.6 L 554.57 39.6 L 543.98 39.81 L 544 39.81 L 544.62 33.73 L 544.83 27.63 L 545.31 21.54 L 545.58 15.44 L 545.75 9.33 Z Z" fill="#ffffff" stroke="none" pointer-events="all"/></g></g><g data-cell-id="yet13AxtOV0CrZUUTRAz-11"><g><path d="M 539.95 118.57 L 539.95 119.2 L 550.22 117.64 L 560.48 119.54 L 570.75 118.87 L 581.01 118.27 L 591.28 118.52 L 601.55 119.24 L 611.81 118.57 L 611.76 118.53 L 614.89 122.25 L 617.45 125.51 L 620.3 129.01 L 623.12 132.48 L 626 136 L 626 135.01 L 616 136.39 L 606 136.3 L 596 136.26 L 586 135.8 L 576 136.27 L 566 136.55 L 556 135.7 L 546 136.41 L 536 135.73 L 526 136 L 525.77 135.82 L 528.81 132.53 L 531.65 129.08 L 534.23 125.43 L 537.32 122.18 L 539.95 118.57 Z Z M 542.5 81 L 542.5 81.18 L 552 80.69 L 561.5 81.85 L 571 81.81 L 580.5 80.37 L 590 80.35 L 599.5 80.01 L 609 81 L 609.2 81.01 L 609.7 88.44 L 609.58 95.85 L 610.25 103.29 L 610.51 110.71 L 610.98 118.14 L 610.98 118.99 L 600.91 118.96 L 590.85 117.63 L 580.79 118.6 L 570.72 119.11 L 560.66 117.42 L 550.6 117.72 L 540.53 118.14 L 540.69 118.15 L 541.18 110.73 L 541.47 103.29 L 541.43 95.84 L 542.14 88.43 L 542.5 81 Z Z" fill="#f5f5f5" stroke="#666666" stroke-width="1.9" stroke-linejoin="round" stroke-linecap="round" stroke-miterlimit="10" pointer-events="all"/><path d="M 543 122.9 L 543 122.49 L 552.57 122.84 L 562.14 123.06 L 571.71 123.6 L 581.28 123.79 L 590.85 122.89 L 600.42 122.38 L 609.99 122.9 M 538.56 127.67 L 538.56 127.16 L 548.04 127.55 L 557.53 128.56 L 567.01 127.58 L 576.49 126.67 L 585.98 127.86 L 595.46 126.97 L 604.94 128.19 L 614.42 127.67 M 557.77 131.95 L 557.77 131.91 L 564.67 132.16 L 571.57 132.15 L 578.46 132.11 L 585.36 131.95 L 592.26 131.95" fill="none" stroke="#666666" stroke-width="1.9" stroke-linejoin="round" stroke-linecap="round" stroke-miterlimit="10" pointer-events="all"/><path d="M 545.75 84.33 L 545.75 84.74 L 555.77 85.27 L 565.79 84.34 L 575.8 83.62 L 585.82 83.95 L 595.84 85.12 L 605.85 84.33 L 605.58 84.32 L 606.46 90.44 L 606.71 96.53 L 606.65 102.61 L 607.08 108.71 L 607.53 114.81 L 607.53 114.42 L 596.94 113.97 L 586.34 114.65 L 575.75 114.96 L 565.16 114.88 L 554.57 114.49 L 543.98 114.81 L 543.95 114.81 L 544.07 108.7 L 544.95 102.63 L 545.1 96.53 L 545.46 90.43 L 545.75 84.33 Z Z" fill="#ffffff" stroke="none" pointer-events="all"/></g></g><g data-cell-id="yet13AxtOV0CrZUUTRAz-12"><g><path d="M 19.95 343.57 L 19.95 342.92 L 30.22 344.42 L 40.48 343.17 L 50.75 343.74 L 61.01 344.13 L 71.28 342.97 L 81.55 343.19 L 91.81 343.57 L 91.86 343.61 L 94.5 346.94 L 97.44 350.5 L 100.1 353.85 L 103.36 357.68 L 106 361 L 106 361.18 L 96 360.11 L 86 360.88 L 76 360.49 L 66 361.18 L 56 360.27 L 46 361.24 L 36 360.78 L 26 360.26 L 16 360.77 L 6 361 L 6.19 361.15 L 8.67 357.41 L 11.8 354.21 L 14.12 350.34 L 17.12 347.03 L 19.95 343.57 Z Z M 22.5 306 L 22.5 305.35 L 32 306.16 L 41.5 305.88 L 51 306.65 L 60.5 305.67 L 70 306.83 L 79.5 305.85 L 89 306 L 88.76 305.99 L 89.52 313.43 L 89.71 320.85 L 90.07 328.28 L 90.68 335.72 L 90.98 343.14 L 90.98 342.2 L 80.91 343.02 L 70.85 343.64 L 60.79 342.98 L 50.72 343.78 L 40.66 342.73 L 30.6 342.26 L 20.53 343.14 L 20.4 343.14 L 20.85 335.71 L 21.1 328.27 L 21.84 320.86 L 21.84 313.41 L 22.5 306 Z Z" fill="#dae8fc" stroke="#6c8ebf" stroke-width="1.9" stroke-linejoin="round" stroke-linecap="round" stroke-miterlimit="10" pointer-events="all"/><path d="M 23 347.9 L 23 347.52 L 32.57 347.47 L 42.14 348.82 L 51.71 347.26 L 61.28 347.9 L 70.85 347.68 L 80.42 347.17 L 89.99 347.9 M 18.56 352.67 L 18.56 352.58 L 28.04 353 L 37.53 351.69 L 47.01 352.66 L 56.49 352.06 L 65.98 353.3 L 75.46 351.89 L 84.94 352.73 L 94.42 352.67 M 37.77 356.95 L 37.77 356.95 L 44.67 356.72 L 51.57 356.97 L 58.46 357.21 L 65.36 357.24 L 72.26 356.95" fill="none" stroke="#6c8ebf" stroke-width="1.9" stroke-linejoin="round" stroke-linecap="round" stroke-miterlimit="10" pointer-events="all"/><path d="M 25.75 309.33 L 25.75 309.36 L 35.77 308.51 L 45.79 308.98 L 55.8 308.79 L 65.82 308.92 L 75.84 308.99 L 85.85 309.33 L 86.09 309.35 L 86.01 315.42 L 86.38 321.52 L 87.13 327.63 L 86.97 333.7 L 87.53 339.81 L 87.53 340.26 L 76.94 340.41 L 66.34 338.94 L 55.75 339.47 L 45.16 340.75 L 34.57 339.09 L 23.98 339.81 L 23.99 339.81 L 24.66 333.73 L 24.82 327.63 L 25.33 321.54 L 25.49 315.43 L 25.75 309.33 Z Z" fill="#ffffff" stroke="none" pointer-events="all"/></g></g></g></g></g></svg>