<?xml version="1.0" encoding="utf-8" standalone="no"?>
<!DOCTYPE svg PUBLIC "-//W3C//DTD SVG 1.1//EN"
  "http://www.w3.org/Graphics/SVG/1.1/DTD/svg11.dtd">
<svg xmlns:xlink="http://www.w3.org/1999/xlink" width="656.39952pt" height="439.286353pt" viewBox="0 0 656.39952 439.286353" xmlns="http://www.w3.org/2000/svg" version="1.1">
 <metadata>
  <rdf:RDF xmlns:dc="http://purl.org/dc/elements/1.1/" xmlns:cc="http://creativecommons.org/ns#" xmlns:rdf="http://www.w3.org/1999/02/22-rdf-syntax-ns#">
   <cc:Work>
    <dc:type rdf:resource="http://purl.org/dc/dcmitype/StillImage"/>
    <dc:date>2024-08-08T09:21:24.702163</dc:date>
    <dc:format>image/svg+xml</dc:format>
    <dc:creator>
     <cc:Agent>
      <dc:title>Matplotlib v3.8.4, https://matplotlib.org/</dc:title>
     </cc:Agent>
    </dc:creator>
   </cc:Work>
  </rdf:RDF>
 </metadata>
 <defs>
  <style type="text/css">*{stroke-linejoin: round; stroke-linecap: butt}</style>
 </defs>
 <g id="figure_1">
  <g id="patch_1">
   <path d="M 0 439.286353 
L 656.39952 439.286353 
L 656.39952 -0 
L 0 -0 
z
" style="fill: #ffffff"/>
  </g>
  <g id="axes_1">
   <g id="patch_2">
    <path d="M 44.474375 373.626567 
L 646.01827 373.626567 
L 646.01827 10.999219 
L 44.474375 10.999219 
z
" style="fill: #ffffff"/>
   </g>
   <g id="PolyCollection_1">
    <path d="M 44.474375 373.626567 
L 44.474375 373.626567 
L 119.667362 373.626567 
L 194.860349 373.626567 
L 270.053336 373.626567 
L 345.246323 373.626567 
L 420.439309 373.626567 
L 495.632296 373.626567 
L 570.825283 373.626567 
L 646.01827 373.626567 
L 646.01827 10.999219 
L 646.01827 10.999219 
L 570.825283 62.803126 
L 495.632296 166.41094 
L 420.439309 218.214846 
L 345.246323 295.920707 
L 270.053336 347.724614 
L 194.860349 373.626567 
L 119.667362 373.626567 
L 44.474375 373.626567 
z
" clip-path="url(#p3387c965ef)" style="fill: #4c70a8"/>
   </g>
   <g id="PolyCollection_2">
    <path d="M 44.474375 373.626567 
L 44.474375 373.626567 
L 119.667362 373.626567 
L 194.860349 373.626567 
L 270.053336 347.724614 
L 345.246323 295.920707 
L 420.439309 218.214846 
L 495.632296 166.41094 
L 570.825283 62.803126 
L 646.01827 10.999219 
L 646.01827 10.999219 
L 646.01827 10.999219 
L 570.825283 36.901172 
L 495.632296 114.607033 
L 420.439309 192.312893 
L 345.246323 244.1168 
L 270.053336 295.920707 
L 194.860349 347.724614 
L 119.667362 373.626567 
L 44.474375 373.626567 
z
" clip-path="url(#p3387c965ef)" style="fill: #87b664"/>
   </g>
   <g id="PolyCollection_3">
    <path d="M 44.474375 373.626567 
L 44.474375 373.626567 
L 119.667362 373.626567 
L 194.860349 347.724614 
L 270.053336 295.920707 
L 345.246323 244.1168 
L 420.439309 192.312893 
L 495.632296 114.607033 
L 570.825283 36.901172 
L 646.01827 10.999219 
L 646.01827 10.999219 
L 646.01827 10.999219 
L 570.825283 10.999219 
L 495.632296 62.803126 
L 420.439309 140.508986 
L 345.246323 192.312893 
L 270.053336 244.1168 
L 194.860349 295.920707 
L 119.667362 347.724614 
L 44.474375 373.626567 
z
" clip-path="url(#p3387c965ef)" style="fill: #e9b257"/>
   </g>
   <g id="PolyCollection_4">
    <path d="M 44.474375 347.724614 
L 44.474375 373.626567 
L 119.667362 347.724614 
L 194.860349 295.920707 
L 270.053336 244.1168 
L 345.246323 192.312893 
L 420.439309 140.508986 
L 495.632296 62.803126 
L 570.825283 10.999219 
L 646.01827 10.999219 
L 646.01827 10.999219 
L 646.01827 10.999219 
L 570.825283 10.999219 
L 495.632296 36.901172 
L 420.439309 88.705079 
L 345.246323 166.41094 
L 270.053336 192.312893 
L 194.860349 244.1168 
L 119.667362 295.920707 
L 44.474375 347.724614 
z
" clip-path="url(#p3387c965ef)" style="fill: #c04a42"/>
   </g>
   <g id="PolyCollection_5">
    <path d="M 44.474375 218.214846 
L 44.474375 347.724614 
L 119.667362 295.920707 
L 194.860349 244.1168 
L 270.053336 192.312893 
L 345.246323 166.41094 
L 420.439309 88.705079 
L 495.632296 36.901172 
L 570.825283 10.999219 
L 646.01827 10.999219 
L 646.01827 10.999219 
L 646.01827 10.999219 
L 570.825283 10.999219 
L 495.632296 10.999219 
L 420.439309 36.901172 
L 345.246323 62.803126 
L 270.053336 88.705079 
L 194.860349 114.607033 
L 119.667362 166.41094 
L 44.474375 218.214846 
z
" clip-path="url(#p3387c965ef)" style="fill: #895e9d"/>
   </g>
   <g id="patch_3">
    <path d="M 196.860187 210.714846 
Q 288.89918 210.714846 380.938174 210.714846 
L 380.938174 199.464846 
Q 399.687453 208.839846 418.436731 218.214846 
Q 399.687453 227.589846 380.938174 236.964846 
L 380.938174 225.714846 
Q 288.89918 225.714846 196.860187 225.714846 
L 196.860187 210.714846 
z
" clip-path="url(#p3387c965ef)" style="fill: #962212; stroke: #962212; stroke-linecap: round"/>
   </g>
   <g id="patch_4">
    <path d="M 268.053498 225.714846 
Q 176.014504 225.714846 83.97551 225.714846 
L 83.97551 236.964846 
Q 65.226232 227.589846 46.476953 218.214846 
Q 65.226232 208.839846 83.97551 199.464846 
L 83.97551 210.714846 
Q 176.014504 210.714846 268.053498 210.714846 
L 268.053498 225.714846 
z
" clip-path="url(#p3387c965ef)" style="fill: #962212; stroke: #962212; stroke-linecap: round"/>
   </g>
   <g id="patch_5">
    <path d="M 159.263693 289.420707 
Q 197.409427 289.420707 235.55516 289.420707 
L 235.55516 279.670707 
Q 251.805153 287.795707 268.055146 295.920707 
Q 251.805153 304.045707 235.55516 312.170707 
L 235.55516 302.420707 
Q 197.409427 302.420707 159.263693 302.420707 
L 159.263693 289.420707 
z
" clip-path="url(#p3387c965ef)" style="fill: #962212; stroke: #962212; stroke-linecap: round"/>
   </g>
   <g id="patch_6">
    <path d="M 230.457004 302.420707 
Q 192.311271 302.420707 154.165537 302.420707 
L 154.165537 312.170707 
Q 137.915544 304.045707 121.665552 295.920707 
Q 137.915544 287.795707 154.165537 279.670707 
L 154.165537 289.420707 
Q 192.311271 289.420707 230.457004 289.420707 
L 230.457004 302.420707 
z
" clip-path="url(#p3387c965ef)" style="fill: #962212; stroke: #962212; stroke-linecap: round"/>
   </g>
   <g id="patch_7">
    <path d="M 338.746323 138.512272 
Q 338.746323 117.910032 338.746323 97.307791 
L 328.996323 97.307791 
Q 337.121323 81.055888 345.246323 64.803984 
Q 353.371323 81.055888 361.496323 97.307791 
L 351.746323 97.307791 
Q 351.746323 117.910032 351.746323 138.512272 
L 338.746323 138.512272 
z
" clip-path="url(#p3387c965ef)" style="fill: #962212; stroke: #962212; stroke-linecap: round"/>
   </g>
   <g id="patch_8">
    <path d="M 351.746323 116.60849 
Q 351.746323 124.260441 351.746323 131.912393 
L 361.496323 131.912393 
Q 353.371323 148.163125 345.246323 164.413856 
Q 337.121323 148.163125 328.996323 131.912393 
L 338.746323 131.912393 
Q 338.746323 124.260441 338.746323 116.60849 
L 351.746323 116.60849 
z
" clip-path="url(#p3387c965ef)" style="fill: #962212; stroke: #962212; stroke-linecap: round"/>
   </g>
   <g id="patch_9">
    <path d="M 413.939309 164.414225 
Q 413.939309 143.811985 413.939309 123.209745 
L 404.189309 123.209745 
Q 412.314309 106.957841 420.439309 90.705937 
Q 428.564309 106.957841 436.689309 123.209745 
L 426.939309 123.209745 
Q 426.939309 143.811985 426.939309 164.414225 
L 413.939309 164.414225 
z
" clip-path="url(#p3387c965ef)" style="fill: #962212; stroke: #962212; stroke-linecap: round"/>
   </g>
   <g id="patch_10">
    <path d="M 426.939309 142.5057 
Q 426.939309 163.107941 426.939309 183.710181 
L 436.689309 183.710181 
Q 428.564309 199.962085 420.439309 216.213988 
Q 412.314309 199.962085 404.189309 183.710181 
L 413.939309 183.710181 
Q 413.939309 163.107941 413.939309 142.5057 
L 426.939309 142.5057 
z
" clip-path="url(#p3387c965ef)" style="fill: #962212; stroke: #962212; stroke-linecap: round"/>
   </g>
   <g id="patch_11">
    <path d="M 489.132296 112.605576 
Q 489.132296 79.051354 489.132296 45.497132 
L 479.382296 45.497132 
Q 487.507296 29.248177 495.632296 12.999222 
Q 503.757296 29.248177 511.882296 45.497132 
L 502.132296 45.497132 
Q 502.132296 79.051354 502.132296 112.605576 
L 489.132296 112.605576 
z
" clip-path="url(#p3387c965ef)" style="fill: #962212; stroke: #962212; stroke-linecap: round"/>
   </g>
   <g id="patch_12">
    <path d="M 502.132296 90.701793 
Q 502.132296 111.304034 502.132296 131.906274 
L 511.882296 131.906274 
Q 503.757296 148.158178 495.632296 164.410081 
Q 487.507296 148.158178 479.382296 131.906274 
L 489.132296 131.906274 
Q 489.132296 111.304034 489.132296 90.701793 
L 502.132296 90.701793 
z
" clip-path="url(#p3387c965ef)" style="fill: #962212; stroke: #962212; stroke-linecap: round"/>
   </g>
   <g id="patch_13">
    <path d="M 113.167362 112.605576 
Q 113.167362 79.051354 113.167362 45.497132 
L 103.417362 45.497132 
Q 111.542362 29.248177 119.667362 12.999222 
Q 127.792362 29.248177 135.917362 45.497132 
L 126.167362 45.497132 
Q 126.167362 79.051354 126.167362 112.605576 
L 113.167362 112.605576 
z
" clip-path="url(#p3387c965ef)" style="fill: #962212; stroke: #962212; stroke-linecap: round"/>
   </g>
   <g id="patch_14">
    <path d="M 126.167362 90.701793 
Q 126.167362 111.304034 126.167362 131.906274 
L 135.917362 131.906274 
Q 127.792362 148.158178 119.667362 164.410081 
Q 111.542362 148.158178 103.417362 131.906274 
L 113.167362 131.906274 
Q 113.167362 111.304034 113.167362 90.701793 
L 126.167362 90.701793 
z
" clip-path="url(#p3387c965ef)" style="fill: #962212; stroke: #962212; stroke-linecap: round"/>
   </g>
   <g id="matplotlib.axis_1">
    <g id="xtick_1">
     <g id="line2d_1">
      <defs>
       <path id="mfc4fea92df" d="M 0 0 
L 0 3.5 
" style="stroke: #000000; stroke-width: 0.8"/>
      </defs>
      <g>
       <use xlink:href="#mfc4fea92df" x="44.474375" y="373.626567" style="stroke: #000000; stroke-width: 0.8"/>
      </g>
     </g>
     <g id="text_1">
      <!-- 0 -->
      <g transform="translate(41.293125 388.225005) scale(0.1 -0.1)">
       <defs>
        <path id="DejaVuSans-30" d="M 2034 4250 
Q 1547 4250 1301 3770 
Q 1056 3291 1056 2328 
Q 1056 1369 1301 889 
Q 1547 409 2034 409 
Q 2525 409 2770 889 
Q 3016 1369 3016 2328 
Q 3016 3291 2770 3770 
Q 2525 4250 2034 4250 
z
M 2034 4750 
Q 2819 4750 3233 4129 
Q 3647 3509 3647 2328 
Q 3647 1150 3233 529 
Q 2819 -91 2034 -91 
Q 1250 -91 836 529 
Q 422 1150 422 2328 
Q 422 3509 836 4129 
Q 1250 4750 2034 4750 
z
" transform="scale(0.015625)"/>
       </defs>
       <use xlink:href="#DejaVuSans-30"/>
      </g>
     </g>
    </g>
    <g id="xtick_2">
     <g id="line2d_2">
      <g>
       <use xlink:href="#mfc4fea92df" x="119.667362" y="373.626567" style="stroke: #000000; stroke-width: 0.8"/>
      </g>
     </g>
     <g id="text_2">
      <!-- 1 -->
      <g transform="translate(116.486112 388.225005) scale(0.1 -0.1)">
       <defs>
        <path id="DejaVuSans-31" d="M 794 531 
L 1825 531 
L 1825 4091 
L 703 3866 
L 703 4441 
L 1819 4666 
L 2450 4666 
L 2450 531 
L 3481 531 
L 3481 0 
L 794 0 
L 794 531 
z
" transform="scale(0.015625)"/>
       </defs>
       <use xlink:href="#DejaVuSans-31"/>
      </g>
     </g>
    </g>
    <g id="xtick_3">
     <g id="line2d_3">
      <g>
       <use xlink:href="#mfc4fea92df" x="194.860349" y="373.626567" style="stroke: #000000; stroke-width: 0.8"/>
      </g>
     </g>
     <g id="text_3">
      <!-- 2 -->
      <g transform="translate(191.679099 388.225005) scale(0.1 -0.1)">
       <defs>
        <path id="DejaVuSans-32" d="M 1228 531 
L 3431 531 
L 3431 0 
L 469 0 
L 469 531 
Q 828 903 1448 1529 
Q 2069 2156 2228 2338 
Q 2531 2678 2651 2914 
Q 2772 3150 2772 3378 
Q 2772 3750 2511 3984 
Q 2250 4219 1831 4219 
Q 1534 4219 1204 4116 
Q 875 4013 500 3803 
L 500 4441 
Q 881 4594 1212 4672 
Q 1544 4750 1819 4750 
Q 2544 4750 2975 4387 
Q 3406 4025 3406 3419 
Q 3406 3131 3298 2873 
Q 3191 2616 2906 2266 
Q 2828 2175 2409 1742 
Q 1991 1309 1228 531 
z
" transform="scale(0.015625)"/>
       </defs>
       <use xlink:href="#DejaVuSans-32"/>
      </g>
     </g>
    </g>
    <g id="xtick_4">
     <g id="line2d_4">
      <g>
       <use xlink:href="#mfc4fea92df" x="270.053336" y="373.626567" style="stroke: #000000; stroke-width: 0.8"/>
      </g>
     </g>
     <g id="text_4">
      <!-- 3 -->
      <g transform="translate(266.872086 388.225005) scale(0.1 -0.1)">
       <defs>
        <path id="DejaVuSans-33" d="M 2597 2516 
Q 3050 2419 3304 2112 
Q 3559 1806 3559 1356 
Q 3559 666 3084 287 
Q 2609 -91 1734 -91 
Q 1441 -91 1130 -33 
Q 819 25 488 141 
L 488 750 
Q 750 597 1062 519 
Q 1375 441 1716 441 
Q 2309 441 2620 675 
Q 2931 909 2931 1356 
Q 2931 1769 2642 2001 
Q 2353 2234 1838 2234 
L 1294 2234 
L 1294 2753 
L 1863 2753 
Q 2328 2753 2575 2939 
Q 2822 3125 2822 3475 
Q 2822 3834 2567 4026 
Q 2313 4219 1838 4219 
Q 1578 4219 1281 4162 
Q 984 4106 628 3988 
L 628 4550 
Q 988 4650 1302 4700 
Q 1616 4750 1894 4750 
Q 2613 4750 3031 4423 
Q 3450 4097 3450 3541 
Q 3450 3153 3228 2886 
Q 3006 2619 2597 2516 
z
" transform="scale(0.015625)"/>
       </defs>
       <use xlink:href="#DejaVuSans-33"/>
      </g>
     </g>
    </g>
    <g id="xtick_5">
     <g id="line2d_5">
      <g>
       <use xlink:href="#mfc4fea92df" x="345.246323" y="373.626567" style="stroke: #000000; stroke-width: 0.8"/>
      </g>
     </g>
     <g id="text_5">
      <!-- 4 -->
      <g transform="translate(342.065073 388.225005) scale(0.1 -0.1)">
       <defs>
        <path id="DejaVuSans-34" d="M 2419 4116 
L 825 1625 
L 2419 1625 
L 2419 4116 
z
M 2253 4666 
L 3047 4666 
L 3047 1625 
L 3713 1625 
L 3713 1100 
L 3047 1100 
L 3047 0 
L 2419 0 
L 2419 1100 
L 313 1100 
L 313 1709 
L 2253 4666 
z
" transform="scale(0.015625)"/>
       </defs>
       <use xlink:href="#DejaVuSans-34"/>
      </g>
     </g>
    </g>
    <g id="xtick_6">
     <g id="line2d_6">
      <g>
       <use xlink:href="#mfc4fea92df" x="420.439309" y="373.626567" style="stroke: #000000; stroke-width: 0.8"/>
      </g>
     </g>
     <g id="text_6">
      <!-- 5 -->
      <g transform="translate(417.258059 388.225005) scale(0.1 -0.1)">
       <defs>
        <path id="DejaVuSans-35" d="M 691 4666 
L 3169 4666 
L 3169 4134 
L 1269 4134 
L 1269 2991 
Q 1406 3038 1543 3061 
Q 1681 3084 1819 3084 
Q 2600 3084 3056 2656 
Q 3513 2228 3513 1497 
Q 3513 744 3044 326 
Q 2575 -91 1722 -91 
Q 1428 -91 1123 -41 
Q 819 9 494 109 
L 494 744 
Q 775 591 1075 516 
Q 1375 441 1709 441 
Q 2250 441 2565 725 
Q 2881 1009 2881 1497 
Q 2881 1984 2565 2268 
Q 2250 2553 1709 2553 
Q 1456 2553 1204 2497 
Q 953 2441 691 2322 
L 691 4666 
z
" transform="scale(0.015625)"/>
       </defs>
       <use xlink:href="#DejaVuSans-35"/>
      </g>
     </g>
    </g>
    <g id="xtick_7">
     <g id="line2d_7">
      <g>
       <use xlink:href="#mfc4fea92df" x="495.632296" y="373.626567" style="stroke: #000000; stroke-width: 0.8"/>
      </g>
     </g>
     <g id="text_7">
      <!-- 6 -->
      <g transform="translate(492.451046 388.225005) scale(0.1 -0.1)">
       <defs>
        <path id="DejaVuSans-36" d="M 2113 2584 
Q 1688 2584 1439 2293 
Q 1191 2003 1191 1497 
Q 1191 994 1439 701 
Q 1688 409 2113 409 
Q 2538 409 2786 701 
Q 3034 994 3034 1497 
Q 3034 2003 2786 2293 
Q 2538 2584 2113 2584 
z
M 3366 4563 
L 3366 3988 
Q 3128 4100 2886 4159 
Q 2644 4219 2406 4219 
Q 1781 4219 1451 3797 
Q 1122 3375 1075 2522 
Q 1259 2794 1537 2939 
Q 1816 3084 2150 3084 
Q 2853 3084 3261 2657 
Q 3669 2231 3669 1497 
Q 3669 778 3244 343 
Q 2819 -91 2113 -91 
Q 1303 -91 875 529 
Q 447 1150 447 2328 
Q 447 3434 972 4092 
Q 1497 4750 2381 4750 
Q 2619 4750 2861 4703 
Q 3103 4656 3366 4563 
z
" transform="scale(0.015625)"/>
       </defs>
       <use xlink:href="#DejaVuSans-36"/>
      </g>
     </g>
    </g>
    <g id="xtick_8">
     <g id="line2d_8">
      <g>
       <use xlink:href="#mfc4fea92df" x="570.825283" y="373.626567" style="stroke: #000000; stroke-width: 0.8"/>
      </g>
     </g>
     <g id="text_8">
      <!-- 7 -->
      <g transform="translate(567.644033 388.225005) scale(0.1 -0.1)">
       <defs>
        <path id="DejaVuSans-37" d="M 525 4666 
L 3525 4666 
L 3525 4397 
L 1831 0 
L 1172 0 
L 2766 4134 
L 525 4134 
L 525 4666 
z
" transform="scale(0.015625)"/>
       </defs>
       <use xlink:href="#DejaVuSans-37"/>
      </g>
     </g>
    </g>
    <g id="xtick_9">
     <g id="line2d_9">
      <g>
       <use xlink:href="#mfc4fea92df" x="646.01827" y="373.626567" style="stroke: #000000; stroke-width: 0.8"/>
      </g>
     </g>
     <g id="text_9">
      <!-- 8 -->
      <g transform="translate(642.83702 388.225005) scale(0.1 -0.1)">
       <defs>
        <path id="DejaVuSans-38" d="M 2034 2216 
Q 1584 2216 1326 1975 
Q 1069 1734 1069 1313 
Q 1069 891 1326 650 
Q 1584 409 2034 409 
Q 2484 409 2743 651 
Q 3003 894 3003 1313 
Q 3003 1734 2745 1975 
Q 2488 2216 2034 2216 
z
M 1403 2484 
Q 997 2584 770 2862 
Q 544 3141 544 3541 
Q 544 4100 942 4425 
Q 1341 4750 2034 4750 
Q 2731 4750 3128 4425 
Q 3525 4100 3525 3541 
Q 3525 3141 3298 2862 
Q 3072 2584 2669 2484 
Q 3125 2378 3379 2068 
Q 3634 1759 3634 1313 
Q 3634 634 3220 271 
Q 2806 -91 2034 -91 
Q 1263 -91 848 271 
Q 434 634 434 1313 
Q 434 1759 690 2068 
Q 947 2378 1403 2484 
z
M 1172 3481 
Q 1172 3119 1398 2916 
Q 1625 2713 2034 2713 
Q 2441 2713 2670 2916 
Q 2900 3119 2900 3481 
Q 2900 3844 2670 4047 
Q 2441 4250 2034 4250 
Q 1625 4250 1398 4047 
Q 1172 3844 1172 3481 
z
" transform="scale(0.015625)"/>
       </defs>
       <use xlink:href="#DejaVuSans-38"/>
      </g>
     </g>
    </g>
    <g id="text_10">
     <!-- days -->
     <g transform="translate(328.723041 404.942505) scale(0.14 -0.14)">
      <defs>
       <path id="DejaVuSans-64" d="M 2906 2969 
L 2906 4863 
L 3481 4863 
L 3481 0 
L 2906 0 
L 2906 525 
Q 2725 213 2448 61 
Q 2172 -91 1784 -91 
Q 1150 -91 751 415 
Q 353 922 353 1747 
Q 353 2572 751 3078 
Q 1150 3584 1784 3584 
Q 2172 3584 2448 3432 
Q 2725 3281 2906 2969 
z
M 947 1747 
Q 947 1113 1208 752 
Q 1469 391 1925 391 
Q 2381 391 2643 752 
Q 2906 1113 2906 1747 
Q 2906 2381 2643 2742 
Q 2381 3103 1925 3103 
Q 1469 3103 1208 2742 
Q 947 2381 947 1747 
z
" transform="scale(0.015625)"/>
       <path id="DejaVuSans-61" d="M 2194 1759 
Q 1497 1759 1228 1600 
Q 959 1441 959 1056 
Q 959 750 1161 570 
Q 1363 391 1709 391 
Q 2188 391 2477 730 
Q 2766 1069 2766 1631 
L 2766 1759 
L 2194 1759 
z
M 3341 1997 
L 3341 0 
L 2766 0 
L 2766 531 
Q 2569 213 2275 61 
Q 1981 -91 1556 -91 
Q 1019 -91 701 211 
Q 384 513 384 1019 
Q 384 1609 779 1909 
Q 1175 2209 1959 2209 
L 2766 2209 
L 2766 2266 
Q 2766 2663 2505 2880 
Q 2244 3097 1772 3097 
Q 1472 3097 1187 3025 
Q 903 2953 641 2809 
L 641 3341 
Q 956 3463 1253 3523 
Q 1550 3584 1831 3584 
Q 2591 3584 2966 3190 
Q 3341 2797 3341 1997 
z
" transform="scale(0.015625)"/>
       <path id="DejaVuSans-79" d="M 2059 -325 
Q 1816 -950 1584 -1140 
Q 1353 -1331 966 -1331 
L 506 -1331 
L 506 -850 
L 844 -850 
Q 1081 -850 1212 -737 
Q 1344 -625 1503 -206 
L 1606 56 
L 191 3500 
L 800 3500 
L 1894 763 
L 2988 3500 
L 3597 3500 
L 2059 -325 
z
" transform="scale(0.015625)"/>
       <path id="DejaVuSans-73" d="M 2834 3397 
L 2834 2853 
Q 2591 2978 2328 3040 
Q 2066 3103 1784 3103 
Q 1356 3103 1142 2972 
Q 928 2841 928 2578 
Q 928 2378 1081 2264 
Q 1234 2150 1697 2047 
L 1894 2003 
Q 2506 1872 2764 1633 
Q 3022 1394 3022 966 
Q 3022 478 2636 193 
Q 2250 -91 1575 -91 
Q 1294 -91 989 -36 
Q 684 19 347 128 
L 347 722 
Q 666 556 975 473 
Q 1284 391 1588 391 
Q 1994 391 2212 530 
Q 2431 669 2431 922 
Q 2431 1156 2273 1281 
Q 2116 1406 1581 1522 
L 1381 1569 
Q 847 1681 609 1914 
Q 372 2147 372 2553 
Q 372 3047 722 3315 
Q 1072 3584 1716 3584 
Q 2034 3584 2315 3537 
Q 2597 3491 2834 3397 
z
" transform="scale(0.015625)"/>
      </defs>
      <use xlink:href="#DejaVuSans-64"/>
      <use xlink:href="#DejaVuSans-61" x="63.476562"/>
      <use xlink:href="#DejaVuSans-79" x="124.755859"/>
      <use xlink:href="#DejaVuSans-73" x="183.935547"/>
     </g>
    </g>
   </g>
   <g id="matplotlib.axis_2">
    <g id="ytick_1">
     <g id="line2d_10">
      <defs>
       <path id="m1f8d831b6b" d="M 0 0 
L -3.5 0 
" style="stroke: #000000; stroke-width: 0.8"/>
      </defs>
      <g>
       <use xlink:href="#m1f8d831b6b" x="44.474375" y="373.626567" style="stroke: #000000; stroke-width: 0.8"/>
      </g>
     </g>
     <g id="text_11">
      <!-- 0 -->
      <g transform="translate(31.111875 377.425786) scale(0.1 -0.1)">
       <use xlink:href="#DejaVuSans-30"/>
      </g>
     </g>
    </g>
    <g id="ytick_2">
     <g id="line2d_11">
      <g>
       <use xlink:href="#m1f8d831b6b" x="44.474375" y="321.82266" style="stroke: #000000; stroke-width: 0.8"/>
      </g>
     </g>
     <g id="text_12">
      <!-- 2 -->
      <g transform="translate(31.111875 325.621879) scale(0.1 -0.1)">
       <use xlink:href="#DejaVuSans-32"/>
      </g>
     </g>
    </g>
    <g id="ytick_3">
     <g id="line2d_12">
      <g>
       <use xlink:href="#m1f8d831b6b" x="44.474375" y="270.018753" style="stroke: #000000; stroke-width: 0.8"/>
      </g>
     </g>
     <g id="text_13">
      <!-- 4 -->
      <g transform="translate(31.111875 273.817972) scale(0.1 -0.1)">
       <use xlink:href="#DejaVuSans-34"/>
      </g>
     </g>
    </g>
    <g id="ytick_4">
     <g id="line2d_13">
      <g>
       <use xlink:href="#m1f8d831b6b" x="44.474375" y="218.214846" style="stroke: #000000; stroke-width: 0.8"/>
      </g>
     </g>
     <g id="text_14">
      <!-- 6 -->
      <g transform="translate(31.111875 222.014065) scale(0.1 -0.1)">
       <use xlink:href="#DejaVuSans-36"/>
      </g>
     </g>
    </g>
    <g id="ytick_5">
     <g id="line2d_14">
      <g>
       <use xlink:href="#m1f8d831b6b" x="44.474375" y="166.41094" style="stroke: #000000; stroke-width: 0.8"/>
      </g>
     </g>
     <g id="text_15">
      <!-- 8 -->
      <g transform="translate(31.111875 170.210158) scale(0.1 -0.1)">
       <use xlink:href="#DejaVuSans-38"/>
      </g>
     </g>
    </g>
    <g id="ytick_6">
     <g id="line2d_15">
      <g>
       <use xlink:href="#m1f8d831b6b" x="44.474375" y="114.607033" style="stroke: #000000; stroke-width: 0.8"/>
      </g>
     </g>
     <g id="text_16">
      <!-- 10 -->
      <g transform="translate(24.749375 118.406251) scale(0.1 -0.1)">
       <use xlink:href="#DejaVuSans-31"/>
       <use xlink:href="#DejaVuSans-30" x="63.623047"/>
      </g>
     </g>
    </g>
    <g id="ytick_7">
     <g id="line2d_16">
      <g>
       <use xlink:href="#m1f8d831b6b" x="44.474375" y="62.803126" style="stroke: #000000; stroke-width: 0.8"/>
      </g>
     </g>
     <g id="text_17">
      <!-- 12 -->
      <g transform="translate(24.749375 66.602344) scale(0.1 -0.1)">
       <use xlink:href="#DejaVuSans-31"/>
       <use xlink:href="#DejaVuSans-32" x="63.623047"/>
      </g>
     </g>
    </g>
    <g id="ytick_8">
     <g id="line2d_17">
      <g>
       <use xlink:href="#m1f8d831b6b" x="44.474375" y="10.999219" style="stroke: #000000; stroke-width: 0.8"/>
      </g>
     </g>
     <g id="text_18">
      <!-- 14 -->
      <g transform="translate(24.749375 14.798437) scale(0.1 -0.1)">
       <use xlink:href="#DejaVuSans-31"/>
       <use xlink:href="#DejaVuSans-34" x="63.623047"/>
      </g>
     </g>
    </g>
    <g id="text_19">
     <!-- number of tasks -->
     <g transform="translate(17.837813 249.209768) rotate(-90) scale(0.14 -0.14)">
      <defs>
       <path id="DejaVuSans-6e" d="M 3513 2113 
L 3513 0 
L 2938 0 
L 2938 2094 
Q 2938 2591 2744 2837 
Q 2550 3084 2163 3084 
Q 1697 3084 1428 2787 
Q 1159 2491 1159 1978 
L 1159 0 
L 581 0 
L 581 3500 
L 1159 3500 
L 1159 2956 
Q 1366 3272 1645 3428 
Q 1925 3584 2291 3584 
Q 2894 3584 3203 3211 
Q 3513 2838 3513 2113 
z
" transform="scale(0.015625)"/>
       <path id="DejaVuSans-75" d="M 544 1381 
L 544 3500 
L 1119 3500 
L 1119 1403 
Q 1119 906 1312 657 
Q 1506 409 1894 409 
Q 2359 409 2629 706 
Q 2900 1003 2900 1516 
L 2900 3500 
L 3475 3500 
L 3475 0 
L 2900 0 
L 2900 538 
Q 2691 219 2414 64 
Q 2138 -91 1772 -91 
Q 1169 -91 856 284 
Q 544 659 544 1381 
z
M 1991 3584 
L 1991 3584 
z
" transform="scale(0.015625)"/>
       <path id="DejaVuSans-6d" d="M 3328 2828 
Q 3544 3216 3844 3400 
Q 4144 3584 4550 3584 
Q 5097 3584 5394 3201 
Q 5691 2819 5691 2113 
L 5691 0 
L 5113 0 
L 5113 2094 
Q 5113 2597 4934 2840 
Q 4756 3084 4391 3084 
Q 3944 3084 3684 2787 
Q 3425 2491 3425 1978 
L 3425 0 
L 2847 0 
L 2847 2094 
Q 2847 2600 2669 2842 
Q 2491 3084 2119 3084 
Q 1678 3084 1418 2786 
Q 1159 2488 1159 1978 
L 1159 0 
L 581 0 
L 581 3500 
L 1159 3500 
L 1159 2956 
Q 1356 3278 1631 3431 
Q 1906 3584 2284 3584 
Q 2666 3584 2933 3390 
Q 3200 3197 3328 2828 
z
" transform="scale(0.015625)"/>
       <path id="DejaVuSans-62" d="M 3116 1747 
Q 3116 2381 2855 2742 
Q 2594 3103 2138 3103 
Q 1681 3103 1420 2742 
Q 1159 2381 1159 1747 
Q 1159 1113 1420 752 
Q 1681 391 2138 391 
Q 2594 391 2855 752 
Q 3116 1113 3116 1747 
z
M 1159 2969 
Q 1341 3281 1617 3432 
Q 1894 3584 2278 3584 
Q 2916 3584 3314 3078 
Q 3713 2572 3713 1747 
Q 3713 922 3314 415 
Q 2916 -91 2278 -91 
Q 1894 -91 1617 61 
Q 1341 213 1159 525 
L 1159 0 
L 581 0 
L 581 4863 
L 1159 4863 
L 1159 2969 
z
" transform="scale(0.015625)"/>
       <path id="DejaVuSans-65" d="M 3597 1894 
L 3597 1613 
L 953 1613 
Q 991 1019 1311 708 
Q 1631 397 2203 397 
Q 2534 397 2845 478 
Q 3156 559 3463 722 
L 3463 178 
Q 3153 47 2828 -22 
Q 2503 -91 2169 -91 
Q 1331 -91 842 396 
Q 353 884 353 1716 
Q 353 2575 817 3079 
Q 1281 3584 2069 3584 
Q 2775 3584 3186 3129 
Q 3597 2675 3597 1894 
z
M 3022 2063 
Q 3016 2534 2758 2815 
Q 2500 3097 2075 3097 
Q 1594 3097 1305 2825 
Q 1016 2553 972 2059 
L 3022 2063 
z
" transform="scale(0.015625)"/>
       <path id="DejaVuSans-72" d="M 2631 2963 
Q 2534 3019 2420 3045 
Q 2306 3072 2169 3072 
Q 1681 3072 1420 2755 
Q 1159 2438 1159 1844 
L 1159 0 
L 581 0 
L 581 3500 
L 1159 3500 
L 1159 2956 
Q 1341 3275 1631 3429 
Q 1922 3584 2338 3584 
Q 2397 3584 2469 3576 
Q 2541 3569 2628 3553 
L 2631 2963 
z
" transform="scale(0.015625)"/>
       <path id="DejaVuSans-20" transform="scale(0.015625)"/>
       <path id="DejaVuSans-6f" d="M 1959 3097 
Q 1497 3097 1228 2736 
Q 959 2375 959 1747 
Q 959 1119 1226 758 
Q 1494 397 1959 397 
Q 2419 397 2687 759 
Q 2956 1122 2956 1747 
Q 2956 2369 2687 2733 
Q 2419 3097 1959 3097 
z
M 1959 3584 
Q 2709 3584 3137 3096 
Q 3566 2609 3566 1747 
Q 3566 888 3137 398 
Q 2709 -91 1959 -91 
Q 1206 -91 779 398 
Q 353 888 353 1747 
Q 353 2609 779 3096 
Q 1206 3584 1959 3584 
z
" transform="scale(0.015625)"/>
       <path id="DejaVuSans-66" d="M 2375 4863 
L 2375 4384 
L 1825 4384 
Q 1516 4384 1395 4259 
Q 1275 4134 1275 3809 
L 1275 3500 
L 2222 3500 
L 2222 3053 
L 1275 3053 
L 1275 0 
L 697 0 
L 697 3053 
L 147 3053 
L 147 3500 
L 697 3500 
L 697 3744 
Q 697 4328 969 4595 
Q 1241 4863 1831 4863 
L 2375 4863 
z
" transform="scale(0.015625)"/>
       <path id="DejaVuSans-74" d="M 1172 4494 
L 1172 3500 
L 2356 3500 
L 2356 3053 
L 1172 3053 
L 1172 1153 
Q 1172 725 1289 603 
Q 1406 481 1766 481 
L 2356 481 
L 2356 0 
L 1766 0 
Q 1100 0 847 248 
Q 594 497 594 1153 
L 594 3053 
L 172 3053 
L 172 3500 
L 594 3500 
L 594 4494 
L 1172 4494 
z
" transform="scale(0.015625)"/>
       <path id="DejaVuSans-6b" d="M 581 4863 
L 1159 4863 
L 1159 1991 
L 2875 3500 
L 3609 3500 
L 1753 1863 
L 3688 0 
L 2938 0 
L 1159 1709 
L 1159 0 
L 581 0 
L 581 4863 
z
" transform="scale(0.015625)"/>
      </defs>
      <use xlink:href="#DejaVuSans-6e"/>
      <use xlink:href="#DejaVuSans-75" x="63.378906"/>
      <use xlink:href="#DejaVuSans-6d" x="126.757812"/>
      <use xlink:href="#DejaVuSans-62" x="224.169922"/>
      <use xlink:href="#DejaVuSans-65" x="287.646484"/>
      <use xlink:href="#DejaVuSans-72" x="349.169922"/>
      <use xlink:href="#DejaVuSans-20" x="390.283203"/>
      <use xlink:href="#DejaVuSans-6f" x="422.070312"/>
      <use xlink:href="#DejaVuSans-66" x="483.251953"/>
      <use xlink:href="#DejaVuSans-20" x="518.457031"/>
      <use xlink:href="#DejaVuSans-74" x="550.244141"/>
      <use xlink:href="#DejaVuSans-61" x="589.453125"/>
      <use xlink:href="#DejaVuSans-73" x="650.732422"/>
      <use xlink:href="#DejaVuSans-6b" x="702.832031"/>
      <use xlink:href="#DejaVuSans-73" x="760.742188"/>
     </g>
    </g>
   </g>
   <g id="patch_15">
    <path d="M 44.474375 373.626567 
L 44.474375 10.999219 
" style="fill: none; stroke: #000000; stroke-width: 0.8; stroke-linejoin: miter; stroke-linecap: square"/>
   </g>
   <g id="patch_16">
    <path d="M 646.01827 373.626567 
L 646.01827 10.999219 
" style="fill: none; stroke: #000000; stroke-width: 0.8; stroke-linejoin: miter; stroke-linecap: square"/>
   </g>
   <g id="patch_17">
    <path d="M 44.474375 373.626567 
L 646.01827 373.626567 
" style="fill: none; stroke: #000000; stroke-width: 0.8; stroke-linejoin: miter; stroke-linecap: square"/>
   </g>
   <g id="patch_18">
    <path d="M 44.474375 10.999219 
L 646.01827 10.999219 
" style="fill: none; stroke: #000000; stroke-width: 0.8; stroke-linejoin: miter; stroke-linecap: square"/>
   </g>
   <g id="text_20">
    <!-- lead time -->
    <g style="fill: #ffffff" transform="translate(204.149967 221.526096) scale(0.12 -0.12)">
     <defs>
      <path id="DejaVuSans-6c" d="M 603 4863 
L 1178 4863 
L 1178 0 
L 603 0 
L 603 4863 
z
" transform="scale(0.015625)"/>
      <path id="DejaVuSans-69" d="M 603 3500 
L 1178 3500 
L 1178 0 
L 603 0 
L 603 3500 
z
M 603 4863 
L 1178 4863 
L 1178 4134 
L 603 4134 
L 603 4863 
z
" transform="scale(0.015625)"/>
     </defs>
     <use xlink:href="#DejaVuSans-6c"/>
     <use xlink:href="#DejaVuSans-65" x="27.783203"/>
     <use xlink:href="#DejaVuSans-61" x="89.306641"/>
     <use xlink:href="#DejaVuSans-64" x="150.585938"/>
     <use xlink:href="#DejaVuSans-20" x="214.0625"/>
     <use xlink:href="#DejaVuSans-74" x="245.849609"/>
     <use xlink:href="#DejaVuSans-69" x="285.058594"/>
     <use xlink:href="#DejaVuSans-6d" x="312.841797"/>
     <use xlink:href="#DejaVuSans-65" x="410.253906"/>
    </g>
   </g>
   <g id="text_21">
    <!-- cycle time -->
    <g style="fill: #ffffff" transform="translate(163.890036 299.231957) scale(0.12 -0.12)">
     <defs>
      <path id="DejaVuSans-63" d="M 3122 3366 
L 3122 2828 
Q 2878 2963 2633 3030 
Q 2388 3097 2138 3097 
Q 1578 3097 1268 2742 
Q 959 2388 959 1747 
Q 959 1106 1268 751 
Q 1578 397 2138 397 
Q 2388 397 2633 464 
Q 2878 531 3122 666 
L 3122 134 
Q 2881 22 2623 -34 
Q 2366 -91 2075 -91 
Q 1284 -91 818 406 
Q 353 903 353 1747 
Q 353 2603 823 3093 
Q 1294 3584 2113 3584 
Q 2378 3584 2631 3529 
Q 2884 3475 3122 3366 
z
" transform="scale(0.015625)"/>
     </defs>
     <use xlink:href="#DejaVuSans-63"/>
     <use xlink:href="#DejaVuSans-79" x="54.980469"/>
     <use xlink:href="#DejaVuSans-63" x="114.160156"/>
     <use xlink:href="#DejaVuSans-6c" x="169.140625"/>
     <use xlink:href="#DejaVuSans-65" x="196.923828"/>
     <use xlink:href="#DejaVuSans-20" x="258.447266"/>
     <use xlink:href="#DejaVuSans-74" x="290.234375"/>
     <use xlink:href="#DejaVuSans-69" x="329.443359"/>
     <use xlink:href="#DejaVuSans-6d" x="357.226562"/>
     <use xlink:href="#DejaVuSans-65" x="454.638672"/>
    </g>
   </g>
   <g id="text_22">
    <!-- backlog size -->
    <g style="fill: #ffffff" transform="translate(341.935073 77.660158) rotate(-270) scale(0.12 -0.12)">
     <defs>
      <path id="DejaVuSans-67" d="M 2906 1791 
Q 2906 2416 2648 2759 
Q 2391 3103 1925 3103 
Q 1463 3103 1205 2759 
Q 947 2416 947 1791 
Q 947 1169 1205 825 
Q 1463 481 1925 481 
Q 2391 481 2648 825 
Q 2906 1169 2906 1791 
z
M 3481 434 
Q 3481 -459 3084 -895 
Q 2688 -1331 1869 -1331 
Q 1566 -1331 1297 -1286 
Q 1028 -1241 775 -1147 
L 775 -588 
Q 1028 -725 1275 -790 
Q 1522 -856 1778 -856 
Q 2344 -856 2625 -561 
Q 2906 -266 2906 331 
L 2906 616 
Q 2728 306 2450 153 
Q 2172 0 1784 0 
Q 1141 0 747 490 
Q 353 981 353 1791 
Q 353 2603 747 3093 
Q 1141 3584 1784 3584 
Q 2172 3584 2450 3431 
Q 2728 3278 2906 2969 
L 2906 3500 
L 3481 3500 
L 3481 434 
z
" transform="scale(0.015625)"/>
      <path id="DejaVuSans-7a" d="M 353 3500 
L 3084 3500 
L 3084 2975 
L 922 459 
L 3084 459 
L 3084 0 
L 275 0 
L 275 525 
L 2438 3041 
L 353 3041 
L 353 3500 
z
" transform="scale(0.015625)"/>
     </defs>
     <use xlink:href="#DejaVuSans-62"/>
     <use xlink:href="#DejaVuSans-61" x="63.476562"/>
     <use xlink:href="#DejaVuSans-63" x="124.755859"/>
     <use xlink:href="#DejaVuSans-6b" x="179.736328"/>
     <use xlink:href="#DejaVuSans-6c" x="237.646484"/>
     <use xlink:href="#DejaVuSans-6f" x="265.429688"/>
     <use xlink:href="#DejaVuSans-67" x="326.611328"/>
     <use xlink:href="#DejaVuSans-20" x="390.087891"/>
     <use xlink:href="#DejaVuSans-73" x="421.875"/>
     <use xlink:href="#DejaVuSans-69" x="473.974609"/>
     <use xlink:href="#DejaVuSans-7a" x="501.757812"/>
     <use xlink:href="#DejaVuSans-65" x="554.248047"/>
    </g>
   </g>
   <g id="text_23">
    <!-- work in progress -->
    <g style="fill: #ffffff" transform="translate(417.128059 103.76215) rotate(-270) scale(0.12 -0.12)">
     <defs>
      <path id="DejaVuSans-77" d="M 269 3500 
L 844 3500 
L 1563 769 
L 2278 3500 
L 2956 3500 
L 3675 769 
L 4391 3500 
L 4966 3500 
L 4050 0 
L 3372 0 
L 2619 2869 
L 1863 0 
L 1184 0 
L 269 3500 
z
" transform="scale(0.015625)"/>
      <path id="DejaVuSans-70" d="M 1159 525 
L 1159 -1331 
L 581 -1331 
L 581 3500 
L 1159 3500 
L 1159 2969 
Q 1341 3281 1617 3432 
Q 1894 3584 2278 3584 
Q 2916 3584 3314 3078 
Q 3713 2572 3713 1747 
Q 3713 922 3314 415 
Q 2916 -91 2278 -91 
Q 1894 -91 1617 61 
Q 1341 213 1159 525 
z
M 3116 1747 
Q 3116 2381 2855 2742 
Q 2594 3103 2138 3103 
Q 1681 3103 1420 2742 
Q 1159 2381 1159 1747 
Q 1159 1113 1420 752 
Q 1681 391 2138 391 
Q 2594 391 2855 752 
Q 3116 1113 3116 1747 
z
" transform="scale(0.015625)"/>
     </defs>
     <use xlink:href="#DejaVuSans-77"/>
     <use xlink:href="#DejaVuSans-6f" x="81.787109"/>
     <use xlink:href="#DejaVuSans-72" x="142.96875"/>
     <use xlink:href="#DejaVuSans-6b" x="184.082031"/>
     <use xlink:href="#DejaVuSans-20" x="241.992188"/>
     <use xlink:href="#DejaVuSans-69" x="273.779297"/>
     <use xlink:href="#DejaVuSans-6e" x="301.5625"/>
     <use xlink:href="#DejaVuSans-20" x="364.941406"/>
     <use xlink:href="#DejaVuSans-70" x="396.728516"/>
     <use xlink:href="#DejaVuSans-72" x="460.205078"/>
     <use xlink:href="#DejaVuSans-6f" x="499.068359"/>
     <use xlink:href="#DejaVuSans-67" x="560.25"/>
     <use xlink:href="#DejaVuSans-72" x="623.726562"/>
     <use xlink:href="#DejaVuSans-65" x="662.589844"/>
     <use xlink:href="#DejaVuSans-73" x="724.113281"/>
     <use xlink:href="#DejaVuSans-73" x="776.212891"/>
    </g>
   </g>
   <g id="text_24">
    <!-- remaining to be done -->
    <g style="fill: #ffffff" transform="translate(492.321046 24.192892) rotate(-270) scale(0.12 -0.12)">
     <use xlink:href="#DejaVuSans-72"/>
     <use xlink:href="#DejaVuSans-65" x="38.863281"/>
     <use xlink:href="#DejaVuSans-6d" x="100.386719"/>
     <use xlink:href="#DejaVuSans-61" x="197.798828"/>
     <use xlink:href="#DejaVuSans-69" x="259.078125"/>
     <use xlink:href="#DejaVuSans-6e" x="286.861328"/>
     <use xlink:href="#DejaVuSans-69" x="350.240234"/>
     <use xlink:href="#DejaVuSans-6e" x="378.023438"/>
     <use xlink:href="#DejaVuSans-67" x="441.402344"/>
     <use xlink:href="#DejaVuSans-20" x="504.878906"/>
     <use xlink:href="#DejaVuSans-74" x="536.666016"/>
     <use xlink:href="#DejaVuSans-6f" x="575.875"/>
     <use xlink:href="#DejaVuSans-20" x="637.056641"/>
     <use xlink:href="#DejaVuSans-62" x="668.84375"/>
     <use xlink:href="#DejaVuSans-65" x="732.320312"/>
     <use xlink:href="#DejaVuSans-20" x="793.84375"/>
     <use xlink:href="#DejaVuSans-64" x="825.630859"/>
     <use xlink:href="#DejaVuSans-6f" x="889.107422"/>
     <use xlink:href="#DejaVuSans-6e" x="950.289062"/>
     <use xlink:href="#DejaVuSans-65" x="1013.667969"/>
    </g>
   </g>
   <g id="text_25">
    <!-- new tasks -->
    <g style="fill: #ffffff" transform="translate(116.356112 58.642267) rotate(-270) scale(0.12 -0.12)">
     <use xlink:href="#DejaVuSans-6e"/>
     <use xlink:href="#DejaVuSans-65" x="63.378906"/>
     <use xlink:href="#DejaVuSans-77" x="124.902344"/>
     <use xlink:href="#DejaVuSans-20" x="206.689453"/>
     <use xlink:href="#DejaVuSans-74" x="238.476562"/>
     <use xlink:href="#DejaVuSans-61" x="277.685547"/>
     <use xlink:href="#DejaVuSans-73" x="338.964844"/>
     <use xlink:href="#DejaVuSans-6b" x="391.064453"/>
     <use xlink:href="#DejaVuSans-73" x="448.974609"/>
    </g>
   </g>
   <g id="legend_1">
    <g id="patch_19">
     <path d="M 78.798666 432.086353 
L 611.693979 432.086353 
Q 613.693979 432.086353 613.693979 430.086353 
L 613.693979 416.408228 
Q 613.693979 414.408228 611.693979 414.408228 
L 78.798666 414.408228 
Q 76.798666 414.408228 76.798666 416.408228 
L 76.798666 430.086353 
Q 76.798666 432.086353 78.798666 432.086353 
z
" style="fill: #ffffff; opacity: 0.8; stroke: #cccccc; stroke-linejoin: miter"/>
    </g>
    <g id="patch_20">
     <path d="M 80.798666 426.006666 
L 100.798666 426.006666 
L 100.798666 419.006666 
L 80.798666 419.006666 
z
" style="fill: #895e9d"/>
    </g>
    <g id="text_26">
     <!-- ready to start -->
     <g transform="translate(108.798666 426.006666) scale(0.1 -0.1)">
      <use xlink:href="#DejaVuSans-72"/>
      <use xlink:href="#DejaVuSans-65" x="38.863281"/>
      <use xlink:href="#DejaVuSans-61" x="100.386719"/>
      <use xlink:href="#DejaVuSans-64" x="161.666016"/>
      <use xlink:href="#DejaVuSans-79" x="225.142578"/>
      <use xlink:href="#DejaVuSans-20" x="284.322266"/>
      <use xlink:href="#DejaVuSans-74" x="316.109375"/>
      <use xlink:href="#DejaVuSans-6f" x="355.318359"/>
      <use xlink:href="#DejaVuSans-20" x="416.5"/>
      <use xlink:href="#DejaVuSans-73" x="448.287109"/>
      <use xlink:href="#DejaVuSans-74" x="500.386719"/>
      <use xlink:href="#DejaVuSans-61" x="539.595703"/>
      <use xlink:href="#DejaVuSans-72" x="600.875"/>
      <use xlink:href="#DejaVuSans-74" x="641.988281"/>
     </g>
    </g>
    <g id="patch_21">
     <path d="M 196.917416 426.006666 
L 216.917416 426.006666 
L 216.917416 419.006666 
L 196.917416 419.006666 
z
" style="fill: #c04a42"/>
    </g>
    <g id="text_27">
     <!-- in progress -->
     <g transform="translate(224.917416 426.006666) scale(0.1 -0.1)">
      <use xlink:href="#DejaVuSans-69"/>
      <use xlink:href="#DejaVuSans-6e" x="27.783203"/>
      <use xlink:href="#DejaVuSans-20" x="91.162109"/>
      <use xlink:href="#DejaVuSans-70" x="122.949219"/>
      <use xlink:href="#DejaVuSans-72" x="186.425781"/>
      <use xlink:href="#DejaVuSans-6f" x="225.289062"/>
      <use xlink:href="#DejaVuSans-67" x="286.470703"/>
      <use xlink:href="#DejaVuSans-72" x="349.947266"/>
      <use xlink:href="#DejaVuSans-65" x="388.810547"/>
      <use xlink:href="#DejaVuSans-73" x="450.333984"/>
      <use xlink:href="#DejaVuSans-73" x="502.433594"/>
     </g>
    </g>
    <g id="patch_22">
     <path d="M 300.370541 426.006666 
L 320.370541 426.006666 
L 320.370541 419.006666 
L 300.370541 419.006666 
z
" style="fill: #e9b257"/>
    </g>
    <g id="text_28">
     <!-- in testing -->
     <g transform="translate(328.370541 426.006666) scale(0.1 -0.1)">
      <use xlink:href="#DejaVuSans-69"/>
      <use xlink:href="#DejaVuSans-6e" x="27.783203"/>
      <use xlink:href="#DejaVuSans-20" x="91.162109"/>
      <use xlink:href="#DejaVuSans-74" x="122.949219"/>
      <use xlink:href="#DejaVuSans-65" x="162.158203"/>
      <use xlink:href="#DejaVuSans-73" x="223.681641"/>
      <use xlink:href="#DejaVuSans-74" x="275.78125"/>
      <use xlink:href="#DejaVuSans-69" x="314.990234"/>
      <use xlink:href="#DejaVuSans-6e" x="342.773438"/>
      <use xlink:href="#DejaVuSans-67" x="406.152344"/>
     </g>
    </g>
    <g id="patch_23">
     <path d="M 395.331479 426.006666 
L 415.331479 426.006666 
L 415.331479 419.006666 
L 395.331479 419.006666 
z
" style="fill: #87b664"/>
    </g>
    <g id="text_29">
     <!-- ready for approval -->
     <g transform="translate(423.331479 426.006666) scale(0.1 -0.1)">
      <defs>
       <path id="DejaVuSans-76" d="M 191 3500 
L 800 3500 
L 1894 563 
L 2988 3500 
L 3597 3500 
L 2284 0 
L 1503 0 
L 191 3500 
z
" transform="scale(0.015625)"/>
      </defs>
      <use xlink:href="#DejaVuSans-72"/>
      <use xlink:href="#DejaVuSans-65" x="38.863281"/>
      <use xlink:href="#DejaVuSans-61" x="100.386719"/>
      <use xlink:href="#DejaVuSans-64" x="161.666016"/>
      <use xlink:href="#DejaVuSans-79" x="225.142578"/>
      <use xlink:href="#DejaVuSans-20" x="284.322266"/>
      <use xlink:href="#DejaVuSans-66" x="316.109375"/>
      <use xlink:href="#DejaVuSans-6f" x="351.314453"/>
      <use xlink:href="#DejaVuSans-72" x="412.496094"/>
      <use xlink:href="#DejaVuSans-20" x="453.609375"/>
      <use xlink:href="#DejaVuSans-61" x="485.396484"/>
      <use xlink:href="#DejaVuSans-70" x="546.675781"/>
      <use xlink:href="#DejaVuSans-70" x="610.152344"/>
      <use xlink:href="#DejaVuSans-72" x="673.628906"/>
      <use xlink:href="#DejaVuSans-6f" x="712.492188"/>
      <use xlink:href="#DejaVuSans-76" x="773.673828"/>
      <use xlink:href="#DejaVuSans-61" x="832.853516"/>
      <use xlink:href="#DejaVuSans-6c" x="894.132812"/>
     </g>
    </g>
    <g id="patch_24">
     <path d="M 535.526791 426.006666 
L 555.526791 426.006666 
L 555.526791 419.006666 
L 535.526791 419.006666 
z
" style="fill: #4c70a8"/>
    </g>
    <g id="text_30">
     <!-- deployed -->
     <g transform="translate(563.526791 426.006666) scale(0.1 -0.1)">
      <use xlink:href="#DejaVuSans-64"/>
      <use xlink:href="#DejaVuSans-65" x="63.476562"/>
      <use xlink:href="#DejaVuSans-70" x="125"/>
      <use xlink:href="#DejaVuSans-6c" x="188.476562"/>
      <use xlink:href="#DejaVuSans-6f" x="216.259766"/>
      <use xlink:href="#DejaVuSans-79" x="277.441406"/>
      <use xlink:href="#DejaVuSans-65" x="336.621094"/>
      <use xlink:href="#DejaVuSans-64" x="398.144531"/>
     </g>
    </g>
   </g>
  </g>
 </g>
 <defs>
  <clipPath id="p3387c965ef">
   <rect x="44.474375" y="10.999219" width="601.543895" height="362.627349"/>
  </clipPath>
 </defs>
</svg>
