<?xml version="1.0" encoding="UTF-8"?>
<!-- Do not edit this file with editors other than draw.io -->
<!DOCTYPE svg PUBLIC "-//W3C//DTD SVG 1.1//EN" "http://www.w3.org/Graphics/SVG/1.1/DTD/svg11.dtd">
<svg xmlns="http://www.w3.org/2000/svg" xmlns:xlink="http://www.w3.org/1999/xlink" version="1.1" width="201px" height="361px" viewBox="-0.5 -0.5 201 361" content="&lt;mxfile host=&quot;app.diagrams.net&quot; agent=&quot;Mozilla/5.0 (X11; Linux x86_64; rv:131.0) Gecko/20100101 Firefox/131.0&quot; version=&quot;24.8.3&quot; scale=&quot;1&quot; border=&quot;0&quot;&gt;&#xA;  &lt;diagram name=&quot;Page-1&quot; id=&quot;eLr7e9eZb6bj9WFbNYUR&quot;&gt;&#xA;    &lt;mxGraphModel dx=&quot;1114&quot; dy=&quot;566&quot; grid=&quot;1&quot; gridSize=&quot;10&quot; guides=&quot;1&quot; tooltips=&quot;1&quot; connect=&quot;1&quot; arrows=&quot;1&quot; fold=&quot;1&quot; page=&quot;1&quot; pageScale=&quot;1&quot; pageWidth=&quot;600&quot; pageHeight=&quot;550&quot; math=&quot;0&quot; shadow=&quot;0&quot;&gt;&#xA;      &lt;root&gt;&#xA;        &lt;mxCell id=&quot;0&quot; /&gt;&#xA;        &lt;mxCell id=&quot;1&quot; parent=&quot;0&quot; /&gt;&#xA;        &lt;mxCell id=&quot;uDztMeBbmHXZfYk8TP05-1&quot; value=&quot;&quot; style=&quot;ellipse;whiteSpace=wrap;html=1;aspect=fixed;sketch=1;curveFitting=1;jiggle=1;fillColor=#f9f7ed;strokeColor=#36393d;fillStyle=solid;&quot; vertex=&quot;1&quot; parent=&quot;1&quot;&gt;&#xA;          &lt;mxGeometry x=&quot;240&quot; y=&quot;80&quot; width=&quot;40&quot; height=&quot;40&quot; as=&quot;geometry&quot; /&gt;&#xA;        &lt;/mxCell&gt;&#xA;        &lt;mxCell id=&quot;uDztMeBbmHXZfYk8TP05-2&quot; value=&quot;&quot; style=&quot;ellipse;whiteSpace=wrap;html=1;aspect=fixed;sketch=1;curveFitting=1;jiggle=1;fillColor=#f9f7ed;strokeColor=#36393d;fillStyle=solid;&quot; vertex=&quot;1&quot; parent=&quot;1&quot;&gt;&#xA;          &lt;mxGeometry x=&quot;160&quot; y=&quot;160&quot; width=&quot;40&quot; height=&quot;40&quot; as=&quot;geometry&quot; /&gt;&#xA;        &lt;/mxCell&gt;&#xA;        &lt;mxCell id=&quot;uDztMeBbmHXZfYk8TP05-3&quot; value=&quot;&quot; style=&quot;ellipse;whiteSpace=wrap;html=1;aspect=fixed;sketch=1;curveFitting=1;jiggle=1;fillColor=#f9f7ed;strokeColor=#36393d;fillStyle=solid;&quot; vertex=&quot;1&quot; parent=&quot;1&quot;&gt;&#xA;          &lt;mxGeometry x=&quot;320&quot; y=&quot;160&quot; width=&quot;40&quot; height=&quot;40&quot; as=&quot;geometry&quot; /&gt;&#xA;        &lt;/mxCell&gt;&#xA;        &lt;mxCell id=&quot;uDztMeBbmHXZfYk8TP05-4&quot; value=&quot;&quot; style=&quot;endArrow=classic;html=1;rounded=0;sketch=1;curveFitting=1;jiggle=1;&quot; edge=&quot;1&quot; parent=&quot;1&quot; source=&quot;uDztMeBbmHXZfYk8TP05-1&quot; target=&quot;uDztMeBbmHXZfYk8TP05-3&quot;&gt;&#xA;          &lt;mxGeometry width=&quot;50&quot; height=&quot;50&quot; relative=&quot;1&quot; as=&quot;geometry&quot;&gt;&#xA;            &lt;mxPoint x=&quot;270&quot; y=&quot;320&quot; as=&quot;sourcePoint&quot; /&gt;&#xA;            &lt;mxPoint x=&quot;320&quot; y=&quot;270&quot; as=&quot;targetPoint&quot; /&gt;&#xA;          &lt;/mxGeometry&gt;&#xA;        &lt;/mxCell&gt;&#xA;        &lt;mxCell id=&quot;uDztMeBbmHXZfYk8TP05-5&quot; value=&quot;&quot; style=&quot;ellipse;whiteSpace=wrap;html=1;aspect=fixed;sketch=1;curveFitting=1;jiggle=1;fillColor=#f9f7ed;strokeColor=#36393d;fillStyle=solid;&quot; vertex=&quot;1&quot; parent=&quot;1&quot;&gt;&#xA;          &lt;mxGeometry x=&quot;160&quot; y=&quot;320&quot; width=&quot;40&quot; height=&quot;40&quot; as=&quot;geometry&quot; /&gt;&#xA;        &lt;/mxCell&gt;&#xA;        &lt;mxCell id=&quot;uDztMeBbmHXZfYk8TP05-6&quot; value=&quot;&quot; style=&quot;endArrow=classic;html=1;rounded=0;sketch=1;curveFitting=1;jiggle=1;&quot; edge=&quot;1&quot; parent=&quot;1&quot; source=&quot;uDztMeBbmHXZfYk8TP05-1&quot; target=&quot;uDztMeBbmHXZfYk8TP05-2&quot;&gt;&#xA;          &lt;mxGeometry width=&quot;50&quot; height=&quot;50&quot; relative=&quot;1&quot; as=&quot;geometry&quot;&gt;&#xA;            &lt;mxPoint x=&quot;284&quot; y=&quot;124&quot; as=&quot;sourcePoint&quot; /&gt;&#xA;            &lt;mxPoint x=&quot;336&quot; y=&quot;176&quot; as=&quot;targetPoint&quot; /&gt;&#xA;          &lt;/mxGeometry&gt;&#xA;        &lt;/mxCell&gt;&#xA;        &lt;mxCell id=&quot;uDztMeBbmHXZfYk8TP05-8&quot; value=&quot;&quot; style=&quot;ellipse;whiteSpace=wrap;html=1;aspect=fixed;sketch=1;curveFitting=1;jiggle=1;fillColor=#f9f7ed;strokeColor=#36393d;fillStyle=solid;&quot; vertex=&quot;1&quot; parent=&quot;1&quot;&gt;&#xA;          &lt;mxGeometry x=&quot;240&quot; y=&quot;240&quot; width=&quot;40&quot; height=&quot;40&quot; as=&quot;geometry&quot; /&gt;&#xA;        &lt;/mxCell&gt;&#xA;        &lt;mxCell id=&quot;uDztMeBbmHXZfYk8TP05-9&quot; value=&quot;&quot; style=&quot;ellipse;whiteSpace=wrap;html=1;aspect=fixed;sketch=1;curveFitting=1;jiggle=1;fillColor=#f9f7ed;strokeColor=#36393d;fillStyle=solid;&quot; vertex=&quot;1&quot; parent=&quot;1&quot;&gt;&#xA;          &lt;mxGeometry x=&quot;320&quot; y=&quot;320&quot; width=&quot;40&quot; height=&quot;40&quot; as=&quot;geometry&quot; /&gt;&#xA;        &lt;/mxCell&gt;&#xA;        &lt;mxCell id=&quot;uDztMeBbmHXZfYk8TP05-10&quot; value=&quot;&quot; style=&quot;endArrow=classic;html=1;rounded=0;sketch=1;curveFitting=1;jiggle=1;&quot; edge=&quot;1&quot; parent=&quot;1&quot; source=&quot;uDztMeBbmHXZfYk8TP05-2&quot; target=&quot;uDztMeBbmHXZfYk8TP05-8&quot;&gt;&#xA;          &lt;mxGeometry width=&quot;50&quot; height=&quot;50&quot; relative=&quot;1&quot; as=&quot;geometry&quot;&gt;&#xA;            &lt;mxPoint x=&quot;270&quot; y=&quot;320&quot; as=&quot;sourcePoint&quot; /&gt;&#xA;            &lt;mxPoint x=&quot;320&quot; y=&quot;270&quot; as=&quot;targetPoint&quot; /&gt;&#xA;          &lt;/mxGeometry&gt;&#xA;        &lt;/mxCell&gt;&#xA;        &lt;mxCell id=&quot;uDztMeBbmHXZfYk8TP05-11&quot; value=&quot;&quot; style=&quot;endArrow=classic;html=1;rounded=0;sketch=1;curveFitting=1;jiggle=1;&quot; edge=&quot;1&quot; parent=&quot;1&quot; source=&quot;uDztMeBbmHXZfYk8TP05-8&quot; target=&quot;uDztMeBbmHXZfYk8TP05-5&quot;&gt;&#xA;          &lt;mxGeometry width=&quot;50&quot; height=&quot;50&quot; relative=&quot;1&quot; as=&quot;geometry&quot;&gt;&#xA;            &lt;mxPoint x=&quot;199&quot; y=&quot;208&quot; as=&quot;sourcePoint&quot; /&gt;&#xA;            &lt;mxPoint x=&quot;221&quot; y=&quot;252&quot; as=&quot;targetPoint&quot; /&gt;&#xA;          &lt;/mxGeometry&gt;&#xA;        &lt;/mxCell&gt;&#xA;        &lt;mxCell id=&quot;uDztMeBbmHXZfYk8TP05-12&quot; value=&quot;&quot; style=&quot;endArrow=classic;html=1;rounded=0;sketch=1;curveFitting=1;jiggle=1;&quot; edge=&quot;1&quot; parent=&quot;1&quot; source=&quot;uDztMeBbmHXZfYk8TP05-3&quot; target=&quot;uDztMeBbmHXZfYk8TP05-8&quot;&gt;&#xA;          &lt;mxGeometry width=&quot;50&quot; height=&quot;50&quot; relative=&quot;1&quot; as=&quot;geometry&quot;&gt;&#xA;            &lt;mxPoint x=&quot;209&quot; y=&quot;218&quot; as=&quot;sourcePoint&quot; /&gt;&#xA;            &lt;mxPoint x=&quot;231&quot; y=&quot;262&quot; as=&quot;targetPoint&quot; /&gt;&#xA;          &lt;/mxGeometry&gt;&#xA;        &lt;/mxCell&gt;&#xA;        &lt;mxCell id=&quot;uDztMeBbmHXZfYk8TP05-13&quot; value=&quot;&quot; style=&quot;endArrow=classic;html=1;rounded=0;sketch=1;curveFitting=1;jiggle=1;&quot; edge=&quot;1&quot; parent=&quot;1&quot; source=&quot;uDztMeBbmHXZfYk8TP05-8&quot; target=&quot;uDztMeBbmHXZfYk8TP05-9&quot;&gt;&#xA;          &lt;mxGeometry width=&quot;50&quot; height=&quot;50&quot; relative=&quot;1&quot; as=&quot;geometry&quot;&gt;&#xA;            &lt;mxPoint x=&quot;219&quot; y=&quot;228&quot; as=&quot;sourcePoint&quot; /&gt;&#xA;            &lt;mxPoint x=&quot;241&quot; y=&quot;272&quot; as=&quot;targetPoint&quot; /&gt;&#xA;          &lt;/mxGeometry&gt;&#xA;        &lt;/mxCell&gt;&#xA;        &lt;mxCell id=&quot;uDztMeBbmHXZfYk8TP05-15&quot; value=&quot;&quot; style=&quot;ellipse;whiteSpace=wrap;html=1;aspect=fixed;sketch=1;curveFitting=1;jiggle=1;fillColor=#f9f7ed;strokeColor=#36393d;fillStyle=solid;&quot; vertex=&quot;1&quot; parent=&quot;1&quot;&gt;&#xA;          &lt;mxGeometry x=&quot;240&quot; y=&quot;400&quot; width=&quot;40&quot; height=&quot;40&quot; as=&quot;geometry&quot; /&gt;&#xA;        &lt;/mxCell&gt;&#xA;        &lt;mxCell id=&quot;uDztMeBbmHXZfYk8TP05-18&quot; value=&quot;&quot; style=&quot;endArrow=classic;html=1;rounded=0;sketch=1;curveFitting=1;jiggle=1;&quot; edge=&quot;1&quot; parent=&quot;1&quot; source=&quot;uDztMeBbmHXZfYk8TP05-9&quot; target=&quot;uDztMeBbmHXZfYk8TP05-15&quot;&gt;&#xA;          &lt;mxGeometry width=&quot;50&quot; height=&quot;50&quot; relative=&quot;1&quot; as=&quot;geometry&quot;&gt;&#xA;            &lt;mxPoint x=&quot;301&quot; y=&quot;288&quot; as=&quot;sourcePoint&quot; /&gt;&#xA;            &lt;mxPoint x=&quot;279&quot; y=&quot;332&quot; as=&quot;targetPoint&quot; /&gt;&#xA;          &lt;/mxGeometry&gt;&#xA;        &lt;/mxCell&gt;&#xA;        &lt;mxCell id=&quot;uDztMeBbmHXZfYk8TP05-20&quot; value=&quot;&quot; style=&quot;endArrow=classic;html=1;rounded=0;sketch=1;curveFitting=1;jiggle=1;&quot; edge=&quot;1&quot; parent=&quot;1&quot; source=&quot;uDztMeBbmHXZfYk8TP05-5&quot; target=&quot;uDztMeBbmHXZfYk8TP05-15&quot;&gt;&#xA;          &lt;mxGeometry width=&quot;50&quot; height=&quot;50&quot; relative=&quot;1&quot; as=&quot;geometry&quot;&gt;&#xA;            &lt;mxPoint x=&quot;321&quot; y=&quot;308&quot; as=&quot;sourcePoint&quot; /&gt;&#xA;            &lt;mxPoint x=&quot;299&quot; y=&quot;352&quot; as=&quot;targetPoint&quot; /&gt;&#xA;          &lt;/mxGeometry&gt;&#xA;        &lt;/mxCell&gt;&#xA;      &lt;/root&gt;&#xA;    &lt;/mxGraphModel&gt;&#xA;  &lt;/diagram&gt;&#xA;&lt;/mxfile&gt;&#xA;"><defs/><g><g data-cell-id="0"><g data-cell-id="1"><g data-cell-id="uDztMeBbmHXZfYk8TP05-1"><g><ellipse cx="100" cy="20" rx="20" ry="20" fill="transparent" stroke="none" pointer-events="all"/><path d="M 96.76 0.15 C 100.69 -0.87 106.94 0.85 110.67 2.95 C 114.41 5.06 117.95 8.75 119.2 12.79 C 120.45 16.83 119.84 23.15 118.17 27.22 C 116.49 31.29 112.62 35.03 109.15 37.2 C 105.69 39.37 101.29 40.97 97.36 40.23 C 93.43 39.49 88.61 35.99 85.57 32.76 C 82.53 29.53 79.2 25.17 79.12 20.85 C 79.05 16.54 81.43 10.27 85.12 6.87 C 88.81 3.46 98.24 1.3 101.26 0.41 C 104.28 -0.48 103.32 1.3 103.24 1.55 M 93.49 1.46 C 97.53 -0.11 103.58 0.35 107.49 1.91 C 111.4 3.48 114.79 7.29 116.95 10.87 C 119.11 14.44 121.24 19.34 120.43 23.37 C 119.62 27.4 115.42 32.46 112.09 35.06 C 108.76 37.66 104.79 38.66 100.45 38.96 C 96.11 39.26 89.48 39.66 86.05 36.86 C 82.63 34.07 80.44 26.87 79.89 22.19 C 79.34 17.52 80.58 12.3 82.73 8.82 C 84.89 5.33 91.11 2.57 92.83 1.28 C 94.54 -0.01 92.75 0.54 93.03 1.09" fill="#f9f7ed" stroke="none" pointer-events="all"/><path d="M 107.11 2.09 C 110.86 3.49 115.94 7.16 117.89 10.86 C 119.83 14.57 119.65 20.26 118.76 24.3 C 117.86 28.34 115.75 32.42 112.52 35.09 C 109.29 37.75 103.59 40.47 99.37 40.3 C 95.15 40.13 90.33 37.03 87.19 34.06 C 84.05 31.1 81.1 26.73 80.52 22.54 C 79.94 18.35 81.56 12.54 83.71 8.94 C 85.86 5.35 89.36 2.05 93.39 0.97 C 97.42 -0.11 105.38 2.01 107.91 2.44 C 110.44 2.86 108.53 3.14 108.58 3.5 M 103.13 0.13 C 107.26 0.41 110.71 3.58 113.39 6.37 C 116.06 9.16 118.58 12.61 119.17 16.85 C 119.76 21.1 119.12 28.27 116.95 31.85 C 114.77 35.42 110.37 37.52 106.12 38.33 C 101.87 39.14 95.68 38.54 91.46 36.69 C 87.24 34.85 82.83 30.73 80.8 27.25 C 78.77 23.76 78.18 19.95 79.28 15.77 C 80.38 11.6 83.78 4.59 87.38 2.2 C 90.98 -0.19 98.72 1.93 100.89 1.45 C 103.06 0.97 100.35 -0.67 100.4 -0.65" fill="none" stroke="#36393d" stroke-linejoin="round" stroke-linecap="round" stroke-miterlimit="10" pointer-events="all"/></g></g><g data-cell-id="uDztMeBbmHXZfYk8TP05-2"><g><ellipse cx="20" cy="100" rx="20" ry="20" fill="transparent" stroke="none" pointer-events="all"/><path d="M 24.79 80.5 C 28.71 81.17 33.82 84.25 36.37 87.95 C 38.92 91.64 40.49 98.4 40.08 102.69 C 39.67 106.99 36.92 110.78 33.93 113.69 C 30.94 116.6 26.51 119.78 22.15 120.14 C 17.8 120.49 11.35 118.34 7.78 115.84 C 4.2 113.34 1.55 109.16 0.71 105.12 C -0.13 101.09 0.75 95.4 2.74 91.64 C 4.73 87.89 8.58 84.27 12.64 82.6 C 16.7 80.92 24.83 81.86 27.09 81.6 C 29.35 81.34 26.34 80.93 26.18 81.03 M 12.66 81.36 C 16.42 79.62 22.16 80.54 26.06 82.05 C 29.97 83.56 33.62 87.1 36.08 90.42 C 38.54 93.73 41.47 98.02 40.82 101.93 C 40.17 105.84 35.41 111.02 32.17 113.87 C 28.92 116.71 25.55 118.73 21.36 119.01 C 17.16 119.29 10.52 117.9 6.98 115.54 C 3.45 113.18 0.79 109.3 0.17 104.84 C -0.46 100.39 1.23 92.61 3.23 88.8 C 5.22 84.99 10.69 83.37 12.14 81.98 C 13.59 80.58 11.94 80.22 11.95 80.45" fill="#f9f7ed" stroke="none" pointer-events="all"/><path d="M 22.84 80.87 C 27.1 81.18 32.77 82.65 35.54 85.82 C 38.3 89 39.42 95.6 39.43 99.93 C 39.44 104.26 38.22 108.56 35.61 111.79 C 33 115.02 27.85 118.25 23.78 119.31 C 19.72 120.36 15.01 120.02 11.23 118.12 C 7.44 116.23 2.75 112.01 1.09 107.95 C -0.57 103.9 -0.09 98.06 1.27 93.79 C 2.63 89.53 5.26 84.41 9.24 82.37 C 13.22 80.33 21.71 81.46 25.15 81.57 C 28.6 81.68 29.8 82.95 29.92 83.01 M 19.06 80.7 C 23.34 80.24 29.45 82.45 33.03 84.68 C 36.61 86.91 39.57 90.21 40.55 94.06 C 41.53 97.9 40.98 103.56 38.91 107.77 C 36.83 111.99 32.17 117.38 28.11 119.36 C 24.05 121.34 18.85 120.86 14.54 119.67 C 10.23 118.47 4.68 115.8 2.27 112.2 C -0.15 108.59 -0.64 102.67 0.05 98.03 C 0.73 93.4 3.25 87.15 6.37 84.36 C 9.5 81.57 16.75 82.19 18.79 81.28 C 20.83 80.38 18.49 78.62 18.62 78.94" fill="none" stroke="#36393d" stroke-linejoin="round" stroke-linecap="round" stroke-miterlimit="10" pointer-events="all"/></g></g><g data-cell-id="uDztMeBbmHXZfYk8TP05-3"><g><ellipse cx="180" cy="100" rx="20" ry="20" fill="transparent" stroke="none" pointer-events="all"/><path d="M 175.04 80.42 C 179.12 79.08 185.37 80.12 189.19 81.89 C 193.01 83.66 196.17 87.15 197.96 91.05 C 199.76 94.94 200.97 100.98 199.96 105.26 C 198.95 109.54 195.44 114.16 191.89 116.72 C 188.33 119.28 183.05 120.94 178.63 120.63 C 174.21 120.31 168.39 117.97 165.36 114.84 C 162.34 111.71 160.93 106.19 160.49 101.84 C 160.05 97.48 159.67 92.18 162.72 88.7 C 165.77 85.23 175.78 82.32 178.8 80.97 C 181.83 79.62 180.89 80.27 180.88 80.59 M 171.84 81.26 C 175.81 79.85 183.24 80.74 187.64 82.19 C 192.04 83.64 195.96 86.41 198.22 89.96 C 200.48 93.51 202.2 99.21 201.21 103.49 C 200.21 107.77 195.89 113.07 192.24 115.67 C 188.58 118.26 183.32 119.3 179.27 119.06 C 175.21 118.81 171.05 116.64 167.91 114.21 C 164.78 111.79 161.14 108.23 160.45 104.49 C 159.75 100.76 161.89 95.42 163.73 91.79 C 165.56 88.15 169.76 84.17 171.45 82.67 C 173.14 81.18 173.63 82.91 173.87 82.8" fill="#f9f7ed" stroke="none" pointer-events="all"/><path d="M 178.39 80.98 C 182.22 80.17 186.8 81.57 190.2 83.68 C 193.59 85.78 197.53 89.61 198.77 93.61 C 200.01 97.61 199.12 103.79 197.65 107.69 C 196.17 111.58 193.54 115.12 189.91 117 C 186.28 118.89 180.06 119.69 175.89 119 C 171.72 118.31 167.52 116.19 164.89 112.86 C 162.26 109.54 159.95 103.38 160.1 99.05 C 160.25 94.72 162.15 89.94 165.81 86.9 C 169.46 83.86 178.82 81.78 182.03 80.79 C 185.24 79.8 185.19 80.89 185.08 80.97 M 175.01 81.73 C 178.86 80.54 185.49 81.76 189.4 83.36 C 193.31 84.97 196.64 87.51 198.48 91.37 C 200.32 95.22 201.88 102.23 200.45 106.49 C 199.02 110.76 193.69 114.85 189.91 116.97 C 186.13 119.08 182.05 119.71 177.75 119.2 C 173.45 118.69 166.87 117.03 164.12 113.89 C 161.38 110.75 161.01 104.85 161.27 100.35 C 161.53 95.84 163.11 89.98 165.69 86.86 C 168.26 83.73 174.86 82.39 176.72 81.58 C 178.59 80.77 177.14 81.88 176.86 81.99" fill="none" stroke="#36393d" stroke-linejoin="round" stroke-linecap="round" stroke-miterlimit="10" pointer-events="all"/></g></g><g data-cell-id="uDztMeBbmHXZfYk8TP05-4"><g><path d="M 114.14 34.14 L 161.36 81.36" fill="none" stroke="none" pointer-events="stroke"/><path d="M 165.07 85.07 L 157.64 82.59 L 161.36 81.36 L 162.59 77.64 Z" fill="none" stroke="none" pointer-events="all"/><path d="M 114.14 34.14 C 127.99 47.85 143.05 65.45 161.36 81.36 M 114.14 34.14 C 126.53 46.3 139.38 59.34 161.36 81.36" fill="none" stroke="rgb(0, 0, 0)" stroke-linejoin="round" stroke-linecap="round" stroke-miterlimit="10" pointer-events="stroke"/><path d="M 157.4 82.87 C 157.4 82.87 157.4 82.87 157.4 82.87 M 157.4 82.87 C 157.4 82.87 157.4 82.87 157.4 82.87 M 161.73 83.98 C 162.39 83.35 163.63 82.21 164.35 80.96 M 161.73 83.98 C 162.6 83.05 163.1 82.64 164.35 80.96" fill="none" stroke="rgb(0, 0, 0)" stroke-width="0.5" stroke-linejoin="round" stroke-linecap="round" stroke-miterlimit="10" pointer-events="all"/><path d="M 165.07 85.07 C 162.2 83.67 159.7 83.77 157.64 82.59 M 165.07 85.07 C 162.99 84.37 161.29 84.03 157.64 82.59 M 157.64 82.59 C 158.91 82.4 160.1 81.45 161.36 81.36 M 157.64 82.59 C 158.64 82.41 159.91 81.93 161.36 81.36 M 161.36 81.36 C 161.39 80.76 161.87 79.73 162.59 77.64 M 161.36 81.36 C 161.51 80.4 161.78 79.53 162.59 77.64 M 162.59 77.64 C 164.18 79.96 164.34 83.22 165.07 85.07 M 162.59 77.64 C 162.85 79.57 163.48 81.17 165.07 85.07" fill="none" stroke="rgb(0, 0, 0)" stroke-linejoin="round" stroke-linecap="round" stroke-miterlimit="10" pointer-events="all"/></g></g><g data-cell-id="uDztMeBbmHXZfYk8TP05-5"><g><ellipse cx="20" cy="260" rx="20" ry="20" fill="transparent" stroke="none" pointer-events="all"/><path d="M 13.35 240.84 C 17.23 239.19 23.77 239.55 27.65 240.97 C 31.52 242.39 34.6 245.65 36.59 249.37 C 38.58 253.08 40.28 258.8 39.61 263.26 C 38.93 267.71 35.82 273.17 32.54 276.11 C 29.25 279.04 24.13 281.09 19.91 280.87 C 15.7 280.65 10.58 277.82 7.26 274.81 C 3.94 271.8 0.81 266.84 0.01 262.81 C -0.8 258.78 -0.28 254.46 2.44 250.63 C 5.16 246.8 13.66 241.59 16.32 239.84 C 18.97 238.09 18.29 239.75 18.36 240.13 M 13.18 241.07 C 16.6 239.81 20.91 241.13 24.8 242.46 C 28.68 243.79 34.12 245.53 36.48 249.06 C 38.84 252.58 39.66 259.07 38.98 263.61 C 38.3 268.14 35.36 273.68 32.38 276.27 C 29.4 278.86 25.35 279.43 21.08 279.15 C 16.82 278.86 10.12 277.12 6.78 274.56 C 3.43 272 1.85 267.6 1.01 263.79 C 0.16 259.99 -0.29 255.54 1.72 251.76 C 3.74 247.97 11.42 242.78 13.08 241.07 C 14.75 239.36 11.51 241.27 11.72 241.52" fill="#f9f7ed" stroke="none" pointer-events="all"/><path d="M 27.32 240.36 C 31.29 241.7 35.88 247.29 37.95 251.01 C 40.03 254.73 40.61 258.51 39.75 262.68 C 38.9 266.85 36.24 273.14 32.81 276.04 C 29.37 278.94 23.46 280.27 19.15 280.08 C 14.85 279.89 10.24 277.75 6.98 274.89 C 3.73 272.03 0.38 267.04 -0.4 262.93 C -1.17 258.83 0.13 253.73 2.34 250.26 C 4.55 246.79 8.2 243.55 12.86 242.11 C 17.52 240.67 27.16 241.32 30.32 241.63 C 33.48 241.95 32.05 243.6 31.83 243.98 M 29.46 241.78 C 33.48 243.12 37.75 247.1 39.47 251.04 C 41.18 254.98 41.35 261.02 39.76 265.4 C 38.17 269.79 33.57 274.77 29.92 277.36 C 26.26 279.95 21.78 281.55 17.82 280.93 C 13.86 280.31 9.3 277.16 6.15 273.65 C 3 270.14 -0.91 263.98 -1.08 259.86 C -1.26 255.74 2.09 252.21 5.09 248.91 C 8.09 245.61 12.91 241 16.91 240.04 C 20.92 239.08 27.03 242.65 29.12 243.15 C 31.22 243.65 29.43 242.87 29.49 243.05" fill="none" stroke="#36393d" stroke-linejoin="round" stroke-linecap="round" stroke-miterlimit="10" pointer-events="all"/></g></g><g data-cell-id="uDztMeBbmHXZfYk8TP05-6"><g><path d="M 85.86 34.14 L 38.64 81.36" fill="none" stroke="none" pointer-events="stroke"/><path d="M 34.93 85.07 L 37.41 77.64 L 38.64 81.36 L 42.36 82.59 Z" fill="none" stroke="none" pointer-events="all"/><path d="M 85.86 34.14 C 70.99 50.07 57.11 64.07 38.64 81.36 M 85.86 34.14 C 75.95 43.66 66.08 52.49 38.64 81.36" fill="none" stroke="rgb(0, 0, 0)" stroke-linejoin="round" stroke-linecap="round" stroke-miterlimit="10" pointer-events="stroke"/><path d="M 37.26 77.81 C 37.26 77.81 37.26 77.81 37.26 77.81 M 37.26 77.81 C 37.26 77.81 37.26 77.81 37.26 77.81 M 35.69 85.72 C 36.42 84.52 37.04 83.71 38.97 81.94 M 35.69 85.72 C 37.15 84.18 38.36 82.96 38.97 81.94" fill="none" stroke="rgb(0, 0, 0)" stroke-width="0.5" stroke-linejoin="round" stroke-linecap="round" stroke-miterlimit="10" pointer-events="all"/><path d="M 34.93 85.07 C 35.94 82.8 37.3 79.89 37.41 77.64 M 34.93 85.07 C 35.52 83.7 35.92 81.87 37.41 77.64 M 37.41 77.64 C 37.83 79.42 38.63 80.62 38.64 81.36 M 37.41 77.64 C 37.76 78.54 37.84 79.19 38.64 81.36 M 38.64 81.36 C 40.33 81.87 41.14 82.1 42.36 82.59 M 38.64 81.36 C 39.73 81.71 40.88 82.01 42.36 82.59 M 42.36 82.59 C 39.85 82.74 39.01 83.62 34.93 85.07 M 42.36 82.59 C 40.14 83.59 37.15 84.21 34.93 85.07" fill="none" stroke="rgb(0, 0, 0)" stroke-linejoin="round" stroke-linecap="round" stroke-miterlimit="10" pointer-events="all"/></g></g><g data-cell-id="uDztMeBbmHXZfYk8TP05-8"><g><ellipse cx="100" cy="180" rx="20" ry="20" fill="transparent" stroke="none" pointer-events="all"/><path d="M 99.54 159.39 C 103.66 159.4 109.66 162.29 113.11 165.24 C 116.57 168.18 119.61 172.82 120.27 177.06 C 120.92 181.31 119.21 187.14 117.02 190.71 C 114.82 194.28 111.08 197.11 107.08 198.47 C 103.08 199.83 97.1 200.21 93 198.86 C 88.89 197.51 84.46 194.14 82.45 190.38 C 80.43 186.63 79.98 180.62 80.93 176.33 C 81.88 172.05 84.44 167.38 88.14 164.68 C 91.83 161.97 100.54 160.77 103.11 160.1 C 105.68 159.42 103.89 160.31 103.57 160.64 M 93.7 160.78 C 97.29 159.01 102.66 158.72 106.52 159.88 C 110.39 161.03 114.6 163.97 116.87 167.7 C 119.14 171.44 120.85 177.63 120.13 182.29 C 119.42 186.95 115.81 192.84 112.59 195.67 C 109.37 198.5 105.15 199.12 100.81 199.28 C 96.47 199.43 89.73 198.84 86.57 196.58 C 83.41 194.33 82.41 189.89 81.85 185.74 C 81.29 181.6 81.69 175.97 83.22 171.71 C 84.75 167.45 89.65 161.69 91.03 160.17 C 92.41 158.65 91.08 161.82 91.48 162.59" fill="#f9f7ed" stroke="none" pointer-events="all"/><path d="M 92.33 161.24 C 95.9 159.3 101.7 160.07 105.86 161.23 C 110.02 162.38 114.9 164.74 117.3 168.16 C 119.7 171.58 120.98 177.31 120.27 181.75 C 119.56 186.18 116.26 191.59 113.02 194.78 C 109.78 197.97 105.1 200.5 100.82 200.89 C 96.53 201.27 90.54 199.59 87.31 197.08 C 84.08 194.56 82.46 189.98 81.43 185.78 C 80.41 181.58 79.33 176.07 81.17 171.89 C 83.02 167.72 90.37 162.46 92.52 160.73 C 94.67 158.99 93.94 161.03 94.07 161.46 M 100.61 161.35 C 105.02 161.02 110.8 161.96 114.04 164.57 C 117.28 167.18 119.49 172.84 120.06 177 C 120.63 181.16 119.61 185.66 117.47 189.52 C 115.32 193.38 111.52 198.66 107.17 200.15 C 102.81 201.64 95.64 200.24 91.33 198.46 C 87.01 196.68 83.28 193.38 81.29 189.46 C 79.29 185.55 78.43 179.11 79.35 174.98 C 80.27 170.84 83.32 167.07 86.8 164.66 C 90.27 162.25 97.75 161.33 100.19 160.51 C 102.64 159.7 101.68 159.63 101.48 159.74" fill="none" stroke="#36393d" stroke-linejoin="round" stroke-linecap="round" stroke-miterlimit="10" pointer-events="all"/></g></g><g data-cell-id="uDztMeBbmHXZfYk8TP05-9"><g><ellipse cx="180" cy="260" rx="20" ry="20" fill="transparent" stroke="none" pointer-events="all"/><path d="M 189.32 241.47 C 193.08 242.8 195.83 247.46 197.51 251.39 C 199.19 255.32 200.43 260.91 199.41 265.03 C 198.4 269.15 195.03 273.67 191.41 276.11 C 187.8 278.56 181.92 280.23 177.72 279.71 C 173.53 279.18 169.32 275.87 166.23 272.94 C 163.15 270.01 159.54 266.32 159.2 262.1 C 158.86 257.89 161.63 251.37 164.19 247.66 C 166.76 243.96 170.17 240.72 174.57 239.88 C 178.96 239.05 188 242.04 190.56 242.68 C 193.11 243.31 190.34 243.56 189.9 243.72 M 172.87 240.68 C 176.18 238.75 181.25 238.42 185.1 240.02 C 188.95 241.61 193.43 246.28 196 250.25 C 198.57 254.22 201.08 259.81 200.52 263.85 C 199.96 267.88 195.79 271.89 192.66 274.47 C 189.52 277.05 185.91 279.19 181.72 279.32 C 177.53 279.45 171.27 277.57 167.5 275.25 C 163.74 272.93 160.26 269.32 159.13 265.39 C 158 261.47 158.36 255.78 160.73 251.7 C 163.09 247.61 171.23 242.49 173.35 240.87 C 175.46 239.25 173.27 241.51 173.41 241.95" fill="#f9f7ed" stroke="none" pointer-events="all"/><path d="M 185.51 240.66 C 189.7 241.6 195.46 245.45 198 249.18 C 200.53 252.91 201.55 258.75 200.73 263.05 C 199.91 267.35 196.38 272.18 193.08 274.98 C 189.79 277.78 185.31 279.71 180.93 279.83 C 176.55 279.95 170.17 278.44 166.8 275.69 C 163.43 272.94 161.34 267.67 160.71 263.32 C 160.08 258.97 161.06 253.26 163 249.59 C 164.94 245.91 167.91 242.5 172.34 241.28 C 176.76 240.05 186.14 241.59 189.55 242.23 C 192.97 242.87 192.98 244.72 192.85 245.14 M 176.54 239.12 C 180.56 238.55 186.94 240.51 190.56 243.03 C 194.18 245.55 196.79 250.02 198.24 254.24 C 199.69 258.46 200.77 264.39 199.25 268.35 C 197.72 272.31 193.21 276.34 189.08 277.99 C 184.95 279.64 178.83 279.36 174.47 278.25 C 170.11 277.13 165.29 274.3 162.93 271.31 C 160.57 268.31 159.82 264.33 160.32 260.27 C 160.82 256.21 162.96 250.26 165.92 246.97 C 168.89 243.68 176.3 241.79 178.1 240.55 C 179.9 239.31 176.82 239.12 176.7 239.54" fill="none" stroke="#36393d" stroke-linejoin="round" stroke-linecap="round" stroke-miterlimit="10" pointer-events="all"/></g></g><g data-cell-id="uDztMeBbmHXZfYk8TP05-10"><g><path d="M 34.14 114.14 L 81.36 161.36" fill="none" stroke="none" pointer-events="stroke"/><path d="M 85.07 165.07 L 77.64 162.59 L 81.36 161.36 L 82.59 157.64 Z" fill="none" stroke="none" pointer-events="all"/><path d="M 34.14 114.14 C 47.8 124.89 57.07 138.77 81.36 161.36 M 34.14 114.14 C 43.9 124.9 53.41 134.07 81.36 161.36" fill="none" stroke="rgb(0, 0, 0)" stroke-linejoin="round" stroke-linecap="round" stroke-miterlimit="10" pointer-events="stroke"/><path d="M 77.96 162.22 C 77.96 162.22 77.96 162.22 77.96 162.22 M 77.96 162.22 C 77.96 162.22 77.96 162.22 77.96 162.22 M 81.64 164.09 C 82.71 163.42 83.87 161.5 84.92 160.31 M 81.64 164.09 C 82.6 163.05 83.11 162.49 84.92 160.31" fill="none" stroke="rgb(0, 0, 0)" stroke-width="0.5" stroke-linejoin="round" stroke-linecap="round" stroke-miterlimit="10" pointer-events="all"/><path d="M 85.07 165.07 C 83.98 164.07 81.36 164.44 77.64 162.59 M 85.07 165.07 C 83.52 164.68 81.81 163.87 77.64 162.59 M 77.64 162.59 C 78.55 161.99 80.35 162.02 81.36 161.36 M 77.64 162.59 C 78.76 162.3 79.64 161.79 81.36 161.36 M 81.36 161.36 C 81.29 160.18 81.77 159.37 82.59 157.64 M 81.36 161.36 C 81.8 160.05 82.13 158.65 82.59 157.64 M 82.59 157.64 C 83.18 160.38 84.25 162.63 85.07 165.07 M 82.59 157.64 C 82.95 159.93 83.94 161.56 85.07 165.07" fill="none" stroke="rgb(0, 0, 0)" stroke-linejoin="round" stroke-linecap="round" stroke-miterlimit="10" pointer-events="all"/></g></g><g data-cell-id="uDztMeBbmHXZfYk8TP05-11"><g><path d="M 85.86 194.14 L 38.64 241.36" fill="none" stroke="none" pointer-events="stroke"/><path d="M 34.93 245.07 L 37.41 237.64 L 38.64 241.36 L 42.36 242.59 Z" fill="none" stroke="none" pointer-events="all"/><path d="M 85.86 194.14 C 74.73 203.86 64.04 217.93 38.64 241.36 M 85.86 194.14 C 71.69 208.02 59.58 219.81 38.64 241.36" fill="none" stroke="rgb(0, 0, 0)" stroke-linejoin="round" stroke-linecap="round" stroke-miterlimit="10" pointer-events="stroke"/><path d="M 37.1 238 C 37.1 238 37.1 238 37.1 238 M 37.1 238 C 37.1 238 37.1 238 37.1 238 M 35.53 245.9 C 36.02 245 37.7 243.39 38.81 242.13 M 35.53 245.9 C 37 244.34 38.13 242.8 38.81 242.13" fill="none" stroke="rgb(0, 0, 0)" stroke-width="0.5" stroke-linejoin="round" stroke-linecap="round" stroke-miterlimit="10" pointer-events="all"/><path d="M 34.93 245.07 C 35.88 242.5 36.75 241.75 37.41 237.64 M 34.93 245.07 C 35.32 243.25 36.49 240.57 37.41 237.64 M 37.41 237.64 C 38.25 239.21 38.25 240.77 38.64 241.36 M 37.41 237.64 C 37.63 238.6 37.98 239.31 38.64 241.36 M 38.64 241.36 C 39.81 241.72 40.45 241.74 42.36 242.59 M 38.64 241.36 C 39.97 241.92 41.54 242.51 42.36 242.59 M 42.36 242.59 C 40.77 243.31 37.33 244.33 34.93 245.07 M 42.36 242.59 C 40.43 243.24 38.99 244.04 34.93 245.07" fill="none" stroke="rgb(0, 0, 0)" stroke-linejoin="round" stroke-linecap="round" stroke-miterlimit="10" pointer-events="all"/></g></g><g data-cell-id="uDztMeBbmHXZfYk8TP05-12"><g><path d="M 165.86 114.14 L 118.64 161.36" fill="none" stroke="none" pointer-events="stroke"/><path d="M 114.93 165.07 L 117.41 157.64 L 118.64 161.36 L 122.36 162.59 Z" fill="none" stroke="none" pointer-events="all"/><path d="M 165.86 114.14 C 153.67 126.45 141.8 136.72 118.64 161.36 M 165.86 114.14 C 149.55 131.92 131.62 148.33 118.64 161.36" fill="none" stroke="rgb(0, 0, 0)" stroke-linejoin="round" stroke-linecap="round" stroke-miterlimit="10" pointer-events="stroke"/><path d="M 117.19 157.89 C 117.19 157.89 117.19 157.89 117.19 157.89 M 117.19 157.89 C 117.19 157.89 117.19 157.89 117.19 157.89 M 115.62 165.8 C 116.52 164.72 116.74 164.42 118.9 162.02 M 115.62 165.8 C 117.03 164.4 118.12 163.13 118.9 162.02" fill="none" stroke="rgb(0, 0, 0)" stroke-width="0.5" stroke-linejoin="round" stroke-linecap="round" stroke-miterlimit="10" pointer-events="all"/><path d="M 114.93 165.07 C 115.42 163.68 115.83 161.44 117.41 157.64 M 114.93 165.07 C 115.96 162.79 116.35 160.05 117.41 157.64 M 117.41 157.64 C 117.95 158.25 117.52 158.93 118.64 161.36 M 117.41 157.64 C 117.85 158.46 117.95 159.43 118.64 161.36 M 118.64 161.36 C 120.29 162.13 121.92 162.64 122.36 162.59 M 118.64 161.36 C 119.62 161.74 120.4 161.92 122.36 162.59 M 122.36 162.59 C 120.67 163.16 119.44 163.18 114.93 165.07 M 122.36 162.59 C 119.58 163.6 116.29 164.71 114.93 165.07" fill="none" stroke="rgb(0, 0, 0)" stroke-linejoin="round" stroke-linecap="round" stroke-miterlimit="10" pointer-events="all"/></g></g><g data-cell-id="uDztMeBbmHXZfYk8TP05-13"><g><path d="M 114.14 194.14 L 161.36 241.36" fill="none" stroke="none" pointer-events="stroke"/><path d="M 165.07 245.07 L 157.64 242.59 L 161.36 241.36 L 162.59 237.64 Z" fill="none" stroke="none" pointer-events="all"/><path d="M 114.14 194.14 C 123.67 205.97 137.41 216.44 161.36 241.36 M 114.14 194.14 C 124.44 203.44 135.43 215.02 161.36 241.36" fill="none" stroke="rgb(0, 0, 0)" stroke-linejoin="round" stroke-linecap="round" stroke-miterlimit="10" pointer-events="stroke"/><path d="M 157.89 242.3 C 157.89 242.3 157.89 242.3 157.89 242.3 M 157.89 242.3 C 157.89 242.3 157.89 242.3 157.89 242.3 M 161.57 244.17 C 162.35 243.31 163.47 241.92 164.19 241.15 M 161.57 244.17 C 162.59 243.23 163.43 242.43 164.19 241.15" fill="none" stroke="rgb(0, 0, 0)" stroke-width="0.5" stroke-linejoin="round" stroke-linecap="round" stroke-miterlimit="10" pointer-events="all"/><path d="M 165.07 245.07 C 162.67 244.39 161.8 243.43 157.64 242.59 M 165.07 245.07 C 163.23 244.24 161.69 244.04 157.64 242.59 M 157.64 242.59 C 158.77 242.59 159.54 241.95 161.36 241.36 M 157.64 242.59 C 159.16 242.02 160.64 241.62 161.36 241.36 M 161.36 241.36 C 161.83 239.74 162.01 238.71 162.59 237.64 M 161.36 241.36 C 161.66 240.41 162.1 239.43 162.59 237.64 M 162.59 237.64 C 163.07 240.5 164.81 243.48 165.07 245.07 M 162.59 237.64 C 163.88 240.23 164.41 242.86 165.07 245.07" fill="none" stroke="rgb(0, 0, 0)" stroke-linejoin="round" stroke-linecap="round" stroke-miterlimit="10" pointer-events="all"/></g></g><g data-cell-id="uDztMeBbmHXZfYk8TP05-15"><g><ellipse cx="100" cy="340" rx="20" ry="20" fill="transparent" stroke="none" pointer-events="all"/><path d="M 91.4 321.34 C 94.82 319.3 100.62 320.11 104.64 321.3 C 108.66 322.5 112.82 325.29 115.52 328.52 C 118.22 331.74 120.98 336.6 120.86 340.65 C 120.75 344.69 117.93 349.67 114.81 352.8 C 111.69 355.94 106.51 358.72 102.13 359.46 C 97.75 360.19 92.14 359.59 88.53 357.22 C 84.92 354.85 81.61 349.34 80.46 345.23 C 79.31 341.12 79.24 336.5 81.64 332.53 C 84.04 328.56 92.31 323.37 94.86 321.42 C 97.4 319.48 96.95 320.57 96.91 320.88 M 93.46 320.18 C 97.04 318.34 102.63 319.24 106.43 320.88 C 110.23 322.51 114.09 326.26 116.23 330 C 118.37 333.75 119.96 338.91 119.25 343.36 C 118.54 347.8 115.11 353.85 111.99 356.69 C 108.86 359.52 104.94 360.46 100.52 360.37 C 96.1 360.29 88.86 358.92 85.49 356.17 C 82.12 353.42 80.73 348.5 80.3 343.86 C 79.87 339.23 80.88 332.21 82.89 328.36 C 84.9 324.51 90.42 321.72 92.35 320.76 C 94.29 319.81 94.27 322.22 94.52 322.64" fill="#f9f7ed" stroke="none" pointer-events="all"/><path d="M 109.83 322.61 C 113.59 324.12 117.16 328.43 118.63 332.22 C 120.1 336.01 119.8 341.26 118.65 345.37 C 117.51 349.49 115.42 354.44 111.75 356.91 C 108.08 359.38 101.01 360.59 96.65 360.18 C 92.29 359.77 88.21 357.55 85.57 354.46 C 82.94 351.37 80.99 346.07 80.82 341.65 C 80.65 337.24 82.18 331.38 84.56 327.96 C 86.94 324.54 90.83 321.82 95.12 321.12 C 99.42 320.42 107.54 323.15 110.34 323.78 C 113.14 324.4 111.93 324.54 111.93 324.87 M 96.16 321.56 C 99.94 320.14 104.97 320.27 108.68 322.16 C 112.39 324.06 116.51 328.85 118.43 332.94 C 120.36 337.03 121.5 342.56 120.22 346.7 C 118.94 350.84 114.46 355.6 110.74 357.77 C 107.03 359.95 102.1 360.54 97.92 359.76 C 93.74 358.99 88.64 356.31 85.65 353.13 C 82.66 349.95 80.09 344.8 79.98 340.68 C 79.86 336.55 82.37 331.76 84.94 328.4 C 87.5 325.04 93.73 321.78 95.37 320.51 C 97.01 319.23 94.55 320.65 94.76 320.74" fill="none" stroke="#36393d" stroke-linejoin="round" stroke-linecap="round" stroke-miterlimit="10" pointer-events="all"/></g></g><g data-cell-id="uDztMeBbmHXZfYk8TP05-18"><g><path d="M 165.86 274.14 L 118.64 321.36" fill="none" stroke="none" pointer-events="stroke"/><path d="M 114.93 325.07 L 117.41 317.64 L 118.64 321.36 L 122.36 322.59 Z" fill="none" stroke="none" pointer-events="all"/><path d="M 165.86 274.14 C 155.29 283.86 144.36 295.33 118.64 321.36 M 165.86 274.14 C 147.6 292.53 129.61 309.76 118.64 321.36" fill="none" stroke="rgb(0, 0, 0)" stroke-linejoin="round" stroke-linecap="round" stroke-miterlimit="10" pointer-events="stroke"/><path d="M 117.69 317.32 C 117.69 317.32 117.69 317.32 117.69 317.32 M 117.69 317.32 C 117.69 317.32 117.69 317.32 117.69 317.32 M 115.46 325.98 C 116.81 324.63 116.89 324.4 119.39 321.46 M 115.46 325.98 C 117.03 324.27 118.24 323.2 119.39 321.46" fill="none" stroke="rgb(0, 0, 0)" stroke-width="0.5" stroke-linejoin="round" stroke-linecap="round" stroke-miterlimit="10" pointer-events="all"/><path d="M 114.93 325.07 C 115.79 322.83 116.57 321.06 117.41 317.64 M 114.93 325.07 C 115.66 322.28 116.7 319.03 117.41 317.64 M 117.41 317.64 C 117.59 318.48 118.18 319.21 118.64 321.36 M 117.41 317.64 C 117.83 318.78 118.26 319.68 118.64 321.36 M 118.64 321.36 C 120.24 321.89 121.72 322.56 122.36 322.59 M 118.64 321.36 C 119.67 321.53 120.66 322.02 122.36 322.59 M 122.36 322.59 C 120 323.29 118.13 324.54 114.93 325.07 M 122.36 322.59 C 120.15 323.25 117.94 323.77 114.93 325.07" fill="none" stroke="rgb(0, 0, 0)" stroke-linejoin="round" stroke-linecap="round" stroke-miterlimit="10" pointer-events="all"/></g></g><g data-cell-id="uDztMeBbmHXZfYk8TP05-20"><g><path d="M 34.14 274.14 L 81.36 321.36" fill="none" stroke="none" pointer-events="stroke"/><path d="M 85.07 325.07 L 77.64 322.59 L 81.36 321.36 L 82.59 317.64 Z" fill="none" stroke="none" pointer-events="all"/><path d="M 34.14 274.14 C 44.04 284.17 56.83 296.23 81.36 321.36 M 34.14 274.14 C 44.57 284.69 56.43 297.13 81.36 321.36" fill="none" stroke="rgb(0, 0, 0)" stroke-linejoin="round" stroke-linecap="round" stroke-miterlimit="10" pointer-events="stroke"/><path d="M 77.8 322.4 C 77.8 322.4 77.8 322.4 77.8 322.4 M 77.8 322.4 C 77.8 322.4 77.8 322.4 77.8 322.4 M 81.48 324.27 C 82.89 322.14 84.79 321.15 85.41 319.74 M 81.48 324.27 C 82.63 323.29 83.51 321.89 85.41 319.74" fill="none" stroke="rgb(0, 0, 0)" stroke-width="0.5" stroke-linejoin="round" stroke-linecap="round" stroke-miterlimit="10" pointer-events="all"/><path d="M 85.07 325.07 C 82.66 324.11 81.41 323.77 77.64 322.59 M 85.07 325.07 C 82.92 324.11 81.3 323.92 77.64 322.59 M 77.64 322.59 C 78.24 321.97 78.97 321.88 81.36 321.36 M 77.64 322.59 C 78.88 322.08 79.85 321.76 81.36 321.36 M 81.36 321.36 C 81.56 319.97 82.31 319.62 82.59 317.64 M 81.36 321.36 C 81.73 320.61 81.84 319.6 82.59 317.64 M 82.59 317.64 C 83.94 319.81 83.51 321.8 85.07 325.07 M 82.59 317.64 C 83.81 320.42 84.71 323.19 85.07 325.07" fill="none" stroke="rgb(0, 0, 0)" stroke-linejoin="round" stroke-linecap="round" stroke-miterlimit="10" pointer-events="all"/></g></g></g></g></g></svg>