<?xml version="1.0" encoding="UTF-8"?>
<!-- Do not edit this file with editors other than draw.io -->
<!DOCTYPE svg PUBLIC "-//W3C//DTD SVG 1.1//EN" "http://www.w3.org/Graphics/SVG/1.1/DTD/svg11.dtd">
<svg xmlns="http://www.w3.org/2000/svg" style="background: transparent; background-color: transparent; color-scheme: light;" xmlns:xlink="http://www.w3.org/1999/xlink" version="1.1" width="291px" height="311px" viewBox="-0.5 -0.5 291 311" content="&lt;mxfile host=&quot;app.diagrams.net&quot; agent=&quot;Mozilla/5.0 (X11; Linux x86_64; rv:142.0) Gecko/20100101 Firefox/142.0&quot; version=&quot;28.2.3&quot; scale=&quot;1&quot; border=&quot;5&quot;&gt;&#xA;  &lt;diagram name=&quot;Page-1&quot; id=&quot;26fnL1xL1XJ0-JyJYCyz&quot;&gt;&#xA;    &lt;mxGraphModel dx=&quot;553&quot; dy=&quot;286&quot; grid=&quot;1&quot; gridSize=&quot;10&quot; guides=&quot;1&quot; tooltips=&quot;1&quot; connect=&quot;1&quot; arrows=&quot;1&quot; fold=&quot;1&quot; page=&quot;1&quot; pageScale=&quot;1&quot; pageWidth=&quot;600&quot; pageHeight=&quot;550&quot; math=&quot;0&quot; shadow=&quot;0&quot;&gt;&#xA;      &lt;root&gt;&#xA;        &lt;mxCell id=&quot;0&quot; /&gt;&#xA;        &lt;mxCell id=&quot;1&quot; parent=&quot;0&quot; /&gt;&#xA;        &lt;mxCell id=&quot;LDfGnApPVAGUqwfY17xG-4&quot; value=&quot;&quot; style=&quot;rounded=0;whiteSpace=wrap;html=1;fillColor=#d5e8d4;strokeColor=#82b366;fillStyle=solid;sketch=1;curveFitting=1;jiggle=2;&quot; vertex=&quot;1&quot; parent=&quot;1&quot;&gt;&#xA;          &lt;mxGeometry x=&quot;240&quot; y=&quot;100&quot; width=&quot;120&quot; height=&quot;60&quot; as=&quot;geometry&quot; /&gt;&#xA;        &lt;/mxCell&gt;&#xA;        &lt;mxCell id=&quot;LDfGnApPVAGUqwfY17xG-5&quot; value=&quot;&quot; style=&quot;rounded=0;whiteSpace=wrap;html=1;fillColor=#dae8fc;strokeColor=#6c8ebf;fillStyle=solid;sketch=1;curveFitting=1;jiggle=2;&quot; vertex=&quot;1&quot; parent=&quot;1&quot;&gt;&#xA;          &lt;mxGeometry x=&quot;180&quot; y=&quot;160&quot; width=&quot;180&quot; height=&quot;90&quot; as=&quot;geometry&quot; /&gt;&#xA;        &lt;/mxCell&gt;&#xA;        &lt;mxCell id=&quot;LDfGnApPVAGUqwfY17xG-6&quot; value=&quot;&quot; style=&quot;rounded=0;whiteSpace=wrap;html=1;fillColor=#fff2cc;strokeColor=#d6b656;fillStyle=solid;sketch=1;curveFitting=1;jiggle=2;&quot; vertex=&quot;1&quot; parent=&quot;1&quot;&gt;&#xA;          &lt;mxGeometry x=&quot;80&quot; y=&quot;250&quot; width=&quot;170&quot; height=&quot;150&quot; as=&quot;geometry&quot; /&gt;&#xA;        &lt;/mxCell&gt;&#xA;        &lt;mxCell id=&quot;LDfGnApPVAGUqwfY17xG-7&quot; value=&quot;&quot; style=&quot;rounded=0;whiteSpace=wrap;html=1;fillColor=#e1d5e7;strokeColor=#9673a6;fillStyle=solid;sketch=1;curveFitting=1;jiggle=2;&quot; vertex=&quot;1&quot; parent=&quot;1&quot;&gt;&#xA;          &lt;mxGeometry x=&quot;250&quot; y=&quot;250&quot; width=&quot;110&quot; height=&quot;150&quot; as=&quot;geometry&quot; /&gt;&#xA;        &lt;/mxCell&gt;&#xA;        &lt;mxCell id=&quot;LDfGnApPVAGUqwfY17xG-8&quot; value=&quot;&quot; style=&quot;rounded=0;whiteSpace=wrap;html=1;fillColor=#6C8EBF;strokeColor=#4D4D4D;sketch=1;curveFitting=1;jiggle=2;fillStyle=solid;direction=south;&quot; vertex=&quot;1&quot; parent=&quot;1&quot;&gt;&#xA;          &lt;mxGeometry x=&quot;185&quot; y=&quot;180&quot; width=&quot;60&quot; height=&quot;50&quot; as=&quot;geometry&quot; /&gt;&#xA;        &lt;/mxCell&gt;&#xA;        &lt;mxCell id=&quot;LDfGnApPVAGUqwfY17xG-9&quot; value=&quot;&quot; style=&quot;rounded=0;whiteSpace=wrap;html=1;fillColor=#9673A6;strokeColor=#4D4D4D;sketch=1;curveFitting=1;jiggle=2;fillStyle=solid;&quot; vertex=&quot;1&quot; parent=&quot;1&quot;&gt;&#xA;          &lt;mxGeometry x=&quot;260&quot; y=&quot;330&quot; width=&quot;80&quot; height=&quot;60&quot; as=&quot;geometry&quot; /&gt;&#xA;        &lt;/mxCell&gt;&#xA;        &lt;mxCell id=&quot;LDfGnApPVAGUqwfY17xG-10&quot; value=&quot;&quot; style=&quot;rounded=0;whiteSpace=wrap;html=1;fillColor=#D6B656;strokeColor=#4D4D4D;sketch=1;curveFitting=1;jiggle=2;fillStyle=solid;&quot; vertex=&quot;1&quot; parent=&quot;1&quot;&gt;&#xA;          &lt;mxGeometry x=&quot;220&quot; y=&quot;270&quot; width=&quot;20&quot; height=&quot;60&quot; as=&quot;geometry&quot; /&gt;&#xA;        &lt;/mxCell&gt;&#xA;        &lt;mxCell id=&quot;LDfGnApPVAGUqwfY17xG-11&quot; value=&quot;&quot; style=&quot;endArrow=none;html=1;rounded=0;sketch=1;curveFitting=1;jiggle=2;strokeWidth=2;&quot; edge=&quot;1&quot; parent=&quot;1&quot; source=&quot;LDfGnApPVAGUqwfY17xG-8&quot; target=&quot;LDfGnApPVAGUqwfY17xG-4&quot;&gt;&#xA;          &lt;mxGeometry width=&quot;50&quot; height=&quot;50&quot; relative=&quot;1&quot; as=&quot;geometry&quot;&gt;&#xA;            &lt;mxPoint x=&quot;280&quot; y=&quot;290&quot; as=&quot;sourcePoint&quot; /&gt;&#xA;            &lt;mxPoint x=&quot;330&quot; y=&quot;240&quot; as=&quot;targetPoint&quot; /&gt;&#xA;            &lt;Array as=&quot;points&quot;&gt;&#xA;              &lt;mxPoint x=&quot;300&quot; y=&quot;205&quot; /&gt;&#xA;            &lt;/Array&gt;&#xA;          &lt;/mxGeometry&gt;&#xA;        &lt;/mxCell&gt;&#xA;        &lt;mxCell id=&quot;LDfGnApPVAGUqwfY17xG-12&quot; value=&quot;&quot; style=&quot;endArrow=none;html=1;rounded=0;strokeWidth=2;sketch=1;curveFitting=1;jiggle=2;&quot; edge=&quot;1&quot; parent=&quot;1&quot; source=&quot;LDfGnApPVAGUqwfY17xG-10&quot; target=&quot;LDfGnApPVAGUqwfY17xG-8&quot;&gt;&#xA;          &lt;mxGeometry width=&quot;50&quot; height=&quot;50&quot; relative=&quot;1&quot; as=&quot;geometry&quot;&gt;&#xA;            &lt;mxPoint x=&quot;280&quot; y=&quot;290&quot; as=&quot;sourcePoint&quot; /&gt;&#xA;            &lt;mxPoint x=&quot;330&quot; y=&quot;240&quot; as=&quot;targetPoint&quot; /&gt;&#xA;            &lt;Array as=&quot;points&quot;&gt;&#xA;              &lt;mxPoint x=&quot;210&quot; y=&quot;300&quot; /&gt;&#xA;            &lt;/Array&gt;&#xA;          &lt;/mxGeometry&gt;&#xA;        &lt;/mxCell&gt;&#xA;        &lt;mxCell id=&quot;LDfGnApPVAGUqwfY17xG-13&quot; value=&quot;&quot; style=&quot;endArrow=none;html=1;rounded=0;strokeWidth=2;sketch=1;curveFitting=1;jiggle=2;&quot; edge=&quot;1&quot; parent=&quot;1&quot; source=&quot;LDfGnApPVAGUqwfY17xG-9&quot; target=&quot;LDfGnApPVAGUqwfY17xG-10&quot;&gt;&#xA;          &lt;mxGeometry width=&quot;50&quot; height=&quot;50&quot; relative=&quot;1&quot; as=&quot;geometry&quot;&gt;&#xA;            &lt;mxPoint x=&quot;220&quot; y=&quot;320&quot; as=&quot;sourcePoint&quot; /&gt;&#xA;            &lt;mxPoint x=&quot;214&quot; y=&quot;250&quot; as=&quot;targetPoint&quot; /&gt;&#xA;            &lt;Array as=&quot;points&quot;&gt;&#xA;              &lt;mxPoint x=&quot;300&quot; y=&quot;300&quot; /&gt;&#xA;            &lt;/Array&gt;&#xA;          &lt;/mxGeometry&gt;&#xA;        &lt;/mxCell&gt;&#xA;      &lt;/root&gt;&#xA;    &lt;/mxGraphModel&gt;&#xA;  &lt;/diagram&gt;&#xA;&lt;/mxfile&gt;&#xA;"><defs/><g><g data-cell-id="0"><g data-cell-id="1"><g data-cell-id="LDfGnApPVAGUqwfY17xG-4"><g><rect x="165" y="5" width="120" height="60" fill="none" stroke="none" pointer-events="all"/><path d="M 162.81 8.75 L 287.6 3.71 L 283.79 66.06 L 163.7 65.87" fill="#d5e8d4" style="fill: rgb(213, 232, 212);" stroke="none" pointer-events="all"/><path d="M 165 5 C 208.1 7.84 245.37 8.49 285 5 M 165 5 C 202.71 6.16 241.5 5.19 285 5 M 285 5 C 288.97 28 286.82 52.38 285 65 M 285 5 C 283.34 20.35 283.37 35.9 285 65 M 285 65 C 247.85 64.03 212.39 63.74 165 65 M 285 65 C 255.52 68.42 222.51 65.98 165 65 M 165 65 C 167.4 46.89 163.19 32.34 165 5 M 165 65 C 166.55 46.15 165.29 29.25 165 5" fill="none" stroke="#82b366" style="stroke: rgb(130, 179, 102);" stroke-linejoin="round" stroke-linecap="round" stroke-miterlimit="10" pointer-events="all"/></g></g><g data-cell-id="LDfGnApPVAGUqwfY17xG-5"><g><rect x="105" y="65" width="180" height="90" fill="none" stroke="none" pointer-events="all"/><path d="M 105.86 65.21 L 287.82 67.13 L 287.44 153.12 L 102.88 151.83" fill="#dae8fc" style="fill: rgb(218, 232, 252);" stroke="none" pointer-events="all"/><path d="M 105 65 C 166.32 68.81 229.76 69.86 285 65 M 105 65 C 173.02 64.84 242.88 62.31 285 65 M 285 65 C 287.03 80.96 282.6 107.29 285 155 M 285 65 C 285.99 85.51 283.82 106.24 285 155 M 285 155 C 234.45 156.27 182.76 150.98 105 155 M 285 155 C 231.26 156.26 177.55 159.6 105 155 M 105 155 C 105.72 133.96 102.56 120.13 105 65 M 105 155 C 106.63 131.25 105.7 109.32 105 65" fill="none" stroke="#6c8ebf" style="stroke: rgb(108, 142, 191);" stroke-linejoin="round" stroke-linecap="round" stroke-miterlimit="10" pointer-events="all"/></g></g><g data-cell-id="LDfGnApPVAGUqwfY17xG-6"><g><rect x="5" y="155" width="170" height="150" fill="none" stroke="none" pointer-events="all"/><path d="M 8.92 151.66 L 178.05 152.56 L 173.08 308.17 L 2.07 305.8" fill="#fff2cc" style="fill: rgb(255, 242, 204);" stroke="none" pointer-events="all"/><path d="M 5 155 C 60.62 152.46 118.28 153.91 175 155 M 5 155 C 49.77 153.27 93.14 153.17 175 155 M 175 155 C 179.44 193.59 180.73 227.53 175 305 M 175 155 C 174.96 185.54 174.58 220.33 175 305 M 175 305 C 132.57 301.21 94.18 306.92 5 305 M 175 305 C 115.76 300.24 60.12 301.36 5 305 M 5 305 C -0.31 249.92 5.59 197.7 5 155 M 5 305 C 6.98 273.09 6.38 242.83 5 155" fill="none" stroke="#d6b656" style="stroke: rgb(214, 182, 86);" stroke-linejoin="round" stroke-linecap="round" stroke-miterlimit="10" pointer-events="all"/></g></g><g data-cell-id="LDfGnApPVAGUqwfY17xG-7"><g><rect x="175" y="155" width="110" height="150" fill="none" stroke="none" pointer-events="all"/><path d="M 173.97 156.12 L 288.28 155.98 L 286.73 305.23 L 171.25 301.77" fill="#e1d5e7" style="fill: rgb(225, 213, 231);" stroke="none" pointer-events="all"/><path d="M 175 155 C 215.82 152.46 250.62 154.31 285 155 M 175 155 C 210.49 157.79 249.32 156.13 285 155 M 285 155 C 286.48 195.21 285.5 239.75 285 305 M 285 155 C 287.94 211.37 285.35 272.01 285 305 M 285 305 C 260.08 304.11 236.37 304.82 175 305 M 285 305 C 244.03 302.04 202.23 304.93 175 305 M 175 305 C 176.67 258.77 175.64 219.07 175 155 M 175 305 C 175.53 250.2 175.27 196.9 175 155" fill="none" stroke="#9673a6" style="stroke: rgb(150, 115, 166);" stroke-linejoin="round" stroke-linecap="round" stroke-miterlimit="10" pointer-events="all"/></g></g><g data-cell-id="LDfGnApPVAGUqwfY17xG-8"><g><rect x="115" y="80" width="50" height="60" fill="none" stroke="none" transform="rotate(90,140,110)" pointer-events="all"/><path d="M 117.02 77.58 L 168.5 76.41 L 162.38 137.28 L 118.44 140.74" fill="#6c8ebf" style="fill: rgb(108, 142, 191);" stroke="none" transform="rotate(90,140,110)" pointer-events="all"/><path d="M 115 80 C 133.03 81.54 152.96 75.79 165 80 M 115 80 C 126.56 77.97 134.23 78.74 165 80 M 165 80 C 164.86 100.82 161.6 118.96 165 140 M 165 80 C 166 103.57 165.21 123.43 165 140 M 165 140 C 142.97 141.57 127.32 137.28 115 140 M 165 140 C 153.22 138.36 144.17 139.03 115 140 M 115 140 C 114.29 123.96 114.32 110.1 115 80 M 115 140 C 115.67 120.13 115.74 101.59 115 80" fill="none" stroke="#4d4d4d" style="stroke: rgb(77, 77, 77);" stroke-linejoin="round" stroke-linecap="round" stroke-miterlimit="10" transform="rotate(90,140,110)" pointer-events="all"/></g></g><g data-cell-id="LDfGnApPVAGUqwfY17xG-9"><g><rect x="185" y="235" width="80" height="60" fill="none" stroke="none" pointer-events="all"/><path d="M 182.07 237.04 L 268.73 234.83 L 266.03 297.34 L 187.62 291.71" fill="#9673a6" style="fill: rgb(150, 115, 166);" stroke="none" pointer-events="all"/><path d="M 185 235 C 211 235.34 238.83 237.99 265 235 M 185 235 C 206.83 232.39 229.53 235.6 265 235 M 265 235 C 265.64 254.27 268.09 279.85 265 295 M 265 235 C 264.67 256.62 265.67 274.57 265 295 M 265 295 C 241.89 299.22 214.34 297.92 185 295 M 265 295 C 245.83 293.67 224.95 296.1 185 295 M 185 295 C 187.71 270.47 180.8 251.79 185 235 M 185 295 C 184.25 277.87 184.65 261.93 185 235" fill="none" stroke="#4d4d4d" style="stroke: rgb(77, 77, 77);" stroke-linejoin="round" stroke-linecap="round" stroke-miterlimit="10" pointer-events="all"/></g></g><g data-cell-id="LDfGnApPVAGUqwfY17xG-10"><g><rect x="145" y="175" width="20" height="60" fill="none" stroke="none" pointer-events="all"/><path d="M 147.86 178.61 L 163.32 172.85 L 163.22 232.38 L 141.47 235.21" fill="#d6b656" style="fill: rgb(214, 182, 86);" stroke="none" pointer-events="all"/><path d="M 145 175 C 152.14 177.89 157.93 172.2 165 175 M 145 175 C 153.95 173.7 158.05 174.01 165 175 M 165 175 C 161.43 189.67 165.31 202.45 165 235 M 165 175 C 166.21 186.57 166.51 199.03 165 235 M 165 235 C 160.89 232.89 160.36 233.13 145 235 M 165 235 C 158.88 236.71 151.19 233.36 145 235 M 145 235 C 146.34 211.46 143.91 189.35 145 175 M 145 235 C 144.29 210.97 146.13 190.68 145 175" fill="none" stroke="#4d4d4d" style="stroke: rgb(77, 77, 77);" stroke-linejoin="round" stroke-linecap="round" stroke-miterlimit="10" pointer-events="all"/></g></g><g data-cell-id="LDfGnApPVAGUqwfY17xG-11"><g><path d="M 170 110 L 225 110 L 225 65" fill="none" stroke="none" pointer-events="stroke"/><path d="M 170 110 C 188.75 109.88 214.08 112.59 225 110 M 170 110 C 182.78 108.49 195.48 111.24 225 110 M 225 110 C 220.87 100.79 222.47 82.69 225 65 M 225 110 C 224.03 90.48 226.12 75.88 225 65" fill="none" stroke="#000000" style="stroke: rgb(0, 0, 0);" stroke-width="2" stroke-linejoin="round" stroke-linecap="round" stroke-miterlimit="10" pointer-events="stroke"/></g></g><g data-cell-id="LDfGnApPVAGUqwfY17xG-12"><g><path d="M 145 205 L 135 205 L 138.68 135" fill="none" stroke="none" pointer-events="stroke"/><path d="M 145 205 C 142.34 204.24 138.94 205.79 135 205 M 145 205 C 141.29 204.6 139.92 205.19 135 205 M 135 205 C 140.03 182.5 140.54 160.05 138.68 135 M 135 205 C 137.39 181.02 138.62 153.92 138.68 135" fill="none" stroke="#000000" style="stroke: rgb(0, 0, 0);" stroke-width="2" stroke-linejoin="round" stroke-linecap="round" stroke-miterlimit="10" pointer-events="stroke"/></g></g><g data-cell-id="LDfGnApPVAGUqwfY17xG-13"><g><path d="M 225 235 L 225 205 L 165 205" fill="none" stroke="none" pointer-events="stroke"/><path d="M 225 235 C 224.83 219.54 223.62 211.14 225 205 M 225 235 C 225.72 223.78 224.14 212.22 225 205 M 225 205 C 206.4 202.6 181.9 208.16 165 205 M 225 205 C 204.76 205.76 185.9 203.92 165 205" fill="none" stroke="#000000" style="stroke: rgb(0, 0, 0);" stroke-width="2" stroke-linejoin="round" stroke-linecap="round" stroke-miterlimit="10" pointer-events="stroke"/></g></g></g></g></g></svg>