<?xml version="1.0" encoding="UTF-8"?>
<!-- Do not edit this file with editors other than draw.io -->
<!DOCTYPE svg PUBLIC "-//W3C//DTD SVG 1.1//EN" "http://www.w3.org/Graphics/SVG/1.1/DTD/svg11.dtd">
<svg xmlns="http://www.w3.org/2000/svg" xmlns:xlink="http://www.w3.org/1999/xlink" version="1.1" width="331px" height="371px" viewBox="-0.5 -0.5 331 371" content="&lt;mxfile host=&quot;app.diagrams.net&quot; agent=&quot;Mozilla/5.0 (X11; Linux x86_64; rv:132.0) Gecko/20100101 Firefox/132.0&quot; version=&quot;24.8.4&quot; scale=&quot;1&quot; border=&quot;5&quot;&gt;&#xA;  &lt;diagram name=&quot;Page-1&quot; id=&quot;pE_9o59anWI73bOz1v_J&quot;&gt;&#xA;    &lt;mxGraphModel dx=&quot;1114&quot; dy=&quot;566&quot; grid=&quot;1&quot; gridSize=&quot;10&quot; guides=&quot;1&quot; tooltips=&quot;1&quot; connect=&quot;1&quot; arrows=&quot;1&quot; fold=&quot;1&quot; page=&quot;1&quot; pageScale=&quot;1&quot; pageWidth=&quot;600&quot; pageHeight=&quot;550&quot; math=&quot;0&quot; shadow=&quot;0&quot;&gt;&#xA;      &lt;root&gt;&#xA;        &lt;mxCell id=&quot;0&quot; /&gt;&#xA;        &lt;mxCell id=&quot;1&quot; parent=&quot;0&quot; /&gt;&#xA;        &lt;mxCell id=&quot;ZOJEWMY2XDao8kptbQvy-2&quot; value=&quot;&quot; style=&quot;rounded=1;whiteSpace=wrap;html=1;sketch=1;curveFitting=1;jiggle=2;fillColor=#fff2cc;strokeColor=#d6b656;fillStyle=solid;&quot; vertex=&quot;1&quot; parent=&quot;1&quot;&gt;&#xA;          &lt;mxGeometry x=&quot;160&quot; y=&quot;40&quot; width=&quot;80&quot; height=&quot;40&quot; as=&quot;geometry&quot; /&gt;&#xA;        &lt;/mxCell&gt;&#xA;        &lt;mxCell id=&quot;ZOJEWMY2XDao8kptbQvy-3&quot; value=&quot;&quot; style=&quot;rounded=1;whiteSpace=wrap;html=1;sketch=1;curveFitting=1;jiggle=2;fillColor=#fff2cc;strokeColor=#d6b656;fillStyle=solid;&quot; vertex=&quot;1&quot; parent=&quot;1&quot;&gt;&#xA;          &lt;mxGeometry x=&quot;160&quot; y=&quot;120&quot; width=&quot;80&quot; height=&quot;40&quot; as=&quot;geometry&quot; /&gt;&#xA;        &lt;/mxCell&gt;&#xA;        &lt;mxCell id=&quot;ZOJEWMY2XDao8kptbQvy-4&quot; value=&quot;&quot; style=&quot;rounded=1;whiteSpace=wrap;html=1;sketch=1;curveFitting=1;jiggle=2;fillColor=#fff2cc;strokeColor=#d6b656;fillStyle=solid;&quot; vertex=&quot;1&quot; parent=&quot;1&quot;&gt;&#xA;          &lt;mxGeometry x=&quot;220&quot; y=&quot;200&quot; width=&quot;80&quot; height=&quot;40&quot; as=&quot;geometry&quot; /&gt;&#xA;        &lt;/mxCell&gt;&#xA;        &lt;mxCell id=&quot;ZOJEWMY2XDao8kptbQvy-5&quot; value=&quot;&quot; style=&quot;rounded=1;whiteSpace=wrap;html=1;sketch=1;curveFitting=1;jiggle=2;fillColor=#fff2cc;strokeColor=#d6b656;fillStyle=solid;&quot; vertex=&quot;1&quot; parent=&quot;1&quot;&gt;&#xA;          &lt;mxGeometry x=&quot;100&quot; y=&quot;200&quot; width=&quot;80&quot; height=&quot;40&quot; as=&quot;geometry&quot; /&gt;&#xA;        &lt;/mxCell&gt;&#xA;        &lt;mxCell id=&quot;ZOJEWMY2XDao8kptbQvy-6&quot; value=&quot;&quot; style=&quot;rounded=1;whiteSpace=wrap;html=1;sketch=1;curveFitting=1;jiggle=2;fillColor=#fff2cc;strokeColor=#d6b656;fillStyle=solid;&quot; vertex=&quot;1&quot; parent=&quot;1&quot;&gt;&#xA;          &lt;mxGeometry x=&quot;280&quot; y=&quot;120&quot; width=&quot;80&quot; height=&quot;40&quot; as=&quot;geometry&quot; /&gt;&#xA;        &lt;/mxCell&gt;&#xA;        &lt;mxCell id=&quot;ZOJEWMY2XDao8kptbQvy-7&quot; value=&quot;&quot; style=&quot;rounded=1;whiteSpace=wrap;html=1;sketch=1;curveFitting=1;jiggle=2;fillColor=#fff2cc;strokeColor=#d6b656;fillStyle=solid;&quot; vertex=&quot;1&quot; parent=&quot;1&quot;&gt;&#xA;          &lt;mxGeometry x=&quot;40&quot; y=&quot;120&quot; width=&quot;80&quot; height=&quot;40&quot; as=&quot;geometry&quot; /&gt;&#xA;        &lt;/mxCell&gt;&#xA;        &lt;mxCell id=&quot;ZOJEWMY2XDao8kptbQvy-8&quot; value=&quot;&quot; style=&quot;rounded=1;whiteSpace=wrap;html=1;sketch=1;curveFitting=1;jiggle=2;fillColor=#fff2cc;strokeColor=#d6b656;fillStyle=solid;&quot; vertex=&quot;1&quot; parent=&quot;1&quot;&gt;&#xA;          &lt;mxGeometry x=&quot;160&quot; y=&quot;280&quot; width=&quot;80&quot; height=&quot;40&quot; as=&quot;geometry&quot; /&gt;&#xA;        &lt;/mxCell&gt;&#xA;        &lt;mxCell id=&quot;ZOJEWMY2XDao8kptbQvy-9&quot; value=&quot;&quot; style=&quot;rounded=1;whiteSpace=wrap;html=1;sketch=1;curveFitting=1;jiggle=2;fillColor=#fff2cc;strokeColor=#d6b656;fillStyle=solid;&quot; vertex=&quot;1&quot; parent=&quot;1&quot;&gt;&#xA;          &lt;mxGeometry x=&quot;270&quot; y=&quot;280&quot; width=&quot;80&quot; height=&quot;40&quot; as=&quot;geometry&quot; /&gt;&#xA;        &lt;/mxCell&gt;&#xA;        &lt;mxCell id=&quot;ZOJEWMY2XDao8kptbQvy-10&quot; value=&quot;&quot; style=&quot;rounded=1;whiteSpace=wrap;html=1;sketch=1;curveFitting=1;jiggle=2;fillColor=#fff2cc;strokeColor=#d6b656;fillStyle=solid;&quot; vertex=&quot;1&quot; parent=&quot;1&quot;&gt;&#xA;          &lt;mxGeometry x=&quot;40&quot; y=&quot;280&quot; width=&quot;80&quot; height=&quot;40&quot; as=&quot;geometry&quot; /&gt;&#xA;        &lt;/mxCell&gt;&#xA;        &lt;mxCell id=&quot;ZOJEWMY2XDao8kptbQvy-11&quot; value=&quot;&quot; style=&quot;rounded=1;whiteSpace=wrap;html=1;sketch=1;curveFitting=1;jiggle=2;fillColor=#fff2cc;strokeColor=#d6b656;fillStyle=solid;&quot; vertex=&quot;1&quot; parent=&quot;1&quot;&gt;&#xA;          &lt;mxGeometry x=&quot;240&quot; y=&quot;360&quot; width=&quot;80&quot; height=&quot;40&quot; as=&quot;geometry&quot; /&gt;&#xA;        &lt;/mxCell&gt;&#xA;        &lt;mxCell id=&quot;ZOJEWMY2XDao8kptbQvy-12&quot; value=&quot;&quot; style=&quot;rounded=1;whiteSpace=wrap;html=1;sketch=1;curveFitting=1;jiggle=2;fillColor=#fff2cc;strokeColor=#d6b656;fillStyle=solid;&quot; vertex=&quot;1&quot; parent=&quot;1&quot;&gt;&#xA;          &lt;mxGeometry x=&quot;80&quot; y=&quot;360&quot; width=&quot;80&quot; height=&quot;40&quot; as=&quot;geometry&quot; /&gt;&#xA;        &lt;/mxCell&gt;&#xA;        &lt;mxCell id=&quot;ZOJEWMY2XDao8kptbQvy-13&quot; value=&quot;&quot; style=&quot;endArrow=none;html=1;rounded=0;strokeWidth=2;sketch=1;curveFitting=1;jiggle=2;endFill=0;startArrow=classic;startFill=1;endSize=6;startSize=8;&quot; edge=&quot;1&quot; parent=&quot;1&quot; source=&quot;ZOJEWMY2XDao8kptbQvy-3&quot; target=&quot;ZOJEWMY2XDao8kptbQvy-2&quot;&gt;&#xA;          &lt;mxGeometry width=&quot;50&quot; height=&quot;50&quot; relative=&quot;1&quot; as=&quot;geometry&quot;&gt;&#xA;            &lt;mxPoint x=&quot;270&quot; y=&quot;320&quot; as=&quot;sourcePoint&quot; /&gt;&#xA;            &lt;mxPoint x=&quot;320&quot; y=&quot;270&quot; as=&quot;targetPoint&quot; /&gt;&#xA;          &lt;/mxGeometry&gt;&#xA;        &lt;/mxCell&gt;&#xA;        &lt;mxCell id=&quot;ZOJEWMY2XDao8kptbQvy-14&quot; value=&quot;&quot; style=&quot;endArrow=classic;html=1;rounded=0;endSize=8;strokeWidth=2;sketch=1;curveFitting=1;jiggle=2;&quot; edge=&quot;1&quot; parent=&quot;1&quot; source=&quot;ZOJEWMY2XDao8kptbQvy-6&quot; target=&quot;ZOJEWMY2XDao8kptbQvy-4&quot;&gt;&#xA;          &lt;mxGeometry width=&quot;50&quot; height=&quot;50&quot; relative=&quot;1&quot; as=&quot;geometry&quot;&gt;&#xA;            &lt;mxPoint x=&quot;270&quot; y=&quot;320&quot; as=&quot;sourcePoint&quot; /&gt;&#xA;            &lt;mxPoint x=&quot;320&quot; y=&quot;270&quot; as=&quot;targetPoint&quot; /&gt;&#xA;          &lt;/mxGeometry&gt;&#xA;        &lt;/mxCell&gt;&#xA;        &lt;mxCell id=&quot;ZOJEWMY2XDao8kptbQvy-15&quot; value=&quot;&quot; style=&quot;endArrow=classic;html=1;rounded=0;endSize=8;strokeWidth=2;sketch=1;curveFitting=1;jiggle=2;entryX=0.25;entryY=0;entryDx=0;entryDy=0;&quot; edge=&quot;1&quot; parent=&quot;1&quot; source=&quot;ZOJEWMY2XDao8kptbQvy-4&quot; target=&quot;ZOJEWMY2XDao8kptbQvy-11&quot;&gt;&#xA;          &lt;mxGeometry width=&quot;50&quot; height=&quot;50&quot; relative=&quot;1&quot; as=&quot;geometry&quot;&gt;&#xA;            &lt;mxPoint x=&quot;315&quot; y=&quot;170&quot; as=&quot;sourcePoint&quot; /&gt;&#xA;            &lt;mxPoint x=&quot;285&quot; y=&quot;210&quot; as=&quot;targetPoint&quot; /&gt;&#xA;          &lt;/mxGeometry&gt;&#xA;        &lt;/mxCell&gt;&#xA;        &lt;mxCell id=&quot;ZOJEWMY2XDao8kptbQvy-17&quot; value=&quot;&quot; style=&quot;endArrow=classic;html=1;rounded=0;endSize=8;strokeWidth=2;sketch=1;curveFitting=1;jiggle=2;&quot; edge=&quot;1&quot; parent=&quot;1&quot; source=&quot;ZOJEWMY2XDao8kptbQvy-4&quot; target=&quot;ZOJEWMY2XDao8kptbQvy-9&quot;&gt;&#xA;          &lt;mxGeometry width=&quot;50&quot; height=&quot;50&quot; relative=&quot;1&quot; as=&quot;geometry&quot;&gt;&#xA;            &lt;mxPoint x=&quot;270&quot; y=&quot;250&quot; as=&quot;sourcePoint&quot; /&gt;&#xA;            &lt;mxPoint x=&quot;270&quot; y=&quot;370&quot; as=&quot;targetPoint&quot; /&gt;&#xA;          &lt;/mxGeometry&gt;&#xA;        &lt;/mxCell&gt;&#xA;        &lt;mxCell id=&quot;ZOJEWMY2XDao8kptbQvy-18&quot; value=&quot;&quot; style=&quot;endArrow=classic;html=1;rounded=0;endSize=8;strokeWidth=2;sketch=1;curveFitting=1;jiggle=2;&quot; edge=&quot;1&quot; parent=&quot;1&quot; source=&quot;ZOJEWMY2XDao8kptbQvy-7&quot; target=&quot;ZOJEWMY2XDao8kptbQvy-10&quot;&gt;&#xA;          &lt;mxGeometry width=&quot;50&quot; height=&quot;50&quot; relative=&quot;1&quot; as=&quot;geometry&quot;&gt;&#xA;            &lt;mxPoint x=&quot;280&quot; y=&quot;260&quot; as=&quot;sourcePoint&quot; /&gt;&#xA;            &lt;mxPoint x=&quot;280&quot; y=&quot;380&quot; as=&quot;targetPoint&quot; /&gt;&#xA;          &lt;/mxGeometry&gt;&#xA;        &lt;/mxCell&gt;&#xA;        &lt;mxCell id=&quot;ZOJEWMY2XDao8kptbQvy-19&quot; value=&quot;&quot; style=&quot;endArrow=classic;html=1;rounded=0;endSize=8;strokeWidth=2;sketch=1;curveFitting=1;jiggle=2;&quot; edge=&quot;1&quot; parent=&quot;1&quot; source=&quot;ZOJEWMY2XDao8kptbQvy-2&quot; target=&quot;ZOJEWMY2XDao8kptbQvy-6&quot;&gt;&#xA;          &lt;mxGeometry width=&quot;50&quot; height=&quot;50&quot; relative=&quot;1&quot; as=&quot;geometry&quot;&gt;&#xA;            &lt;mxPoint x=&quot;290&quot; y=&quot;270&quot; as=&quot;sourcePoint&quot; /&gt;&#xA;            &lt;mxPoint x=&quot;290&quot; y=&quot;390&quot; as=&quot;targetPoint&quot; /&gt;&#xA;          &lt;/mxGeometry&gt;&#xA;        &lt;/mxCell&gt;&#xA;        &lt;mxCell id=&quot;ZOJEWMY2XDao8kptbQvy-20&quot; value=&quot;&quot; style=&quot;endArrow=classic;html=1;rounded=0;endSize=8;strokeWidth=2;sketch=1;curveFitting=1;jiggle=2;&quot; edge=&quot;1&quot; parent=&quot;1&quot; source=&quot;ZOJEWMY2XDao8kptbQvy-2&quot; target=&quot;ZOJEWMY2XDao8kptbQvy-7&quot;&gt;&#xA;          &lt;mxGeometry width=&quot;50&quot; height=&quot;50&quot; relative=&quot;1&quot; as=&quot;geometry&quot;&gt;&#xA;            &lt;mxPoint x=&quot;300&quot; y=&quot;280&quot; as=&quot;sourcePoint&quot; /&gt;&#xA;            &lt;mxPoint x=&quot;300&quot; y=&quot;400&quot; as=&quot;targetPoint&quot; /&gt;&#xA;          &lt;/mxGeometry&gt;&#xA;        &lt;/mxCell&gt;&#xA;        &lt;mxCell id=&quot;ZOJEWMY2XDao8kptbQvy-21&quot; value=&quot;&quot; style=&quot;endArrow=classic;html=1;rounded=0;endSize=8;strokeWidth=2;sketch=1;curveFitting=1;jiggle=2;&quot; edge=&quot;1&quot; parent=&quot;1&quot; source=&quot;ZOJEWMY2XDao8kptbQvy-9&quot; target=&quot;ZOJEWMY2XDao8kptbQvy-11&quot;&gt;&#xA;          &lt;mxGeometry width=&quot;50&quot; height=&quot;50&quot; relative=&quot;1&quot; as=&quot;geometry&quot;&gt;&#xA;            &lt;mxPoint x=&quot;310&quot; y=&quot;290&quot; as=&quot;sourcePoint&quot; /&gt;&#xA;            &lt;mxPoint x=&quot;310&quot; y=&quot;410&quot; as=&quot;targetPoint&quot; /&gt;&#xA;          &lt;/mxGeometry&gt;&#xA;        &lt;/mxCell&gt;&#xA;        &lt;mxCell id=&quot;ZOJEWMY2XDao8kptbQvy-22&quot; value=&quot;&quot; style=&quot;endArrow=classic;html=1;rounded=0;endSize=8;strokeWidth=2;sketch=1;curveFitting=1;jiggle=2;&quot; edge=&quot;1&quot; parent=&quot;1&quot; source=&quot;ZOJEWMY2XDao8kptbQvy-5&quot; target=&quot;ZOJEWMY2XDao8kptbQvy-8&quot;&gt;&#xA;          &lt;mxGeometry width=&quot;50&quot; height=&quot;50&quot; relative=&quot;1&quot; as=&quot;geometry&quot;&gt;&#xA;            &lt;mxPoint x=&quot;320&quot; y=&quot;300&quot; as=&quot;sourcePoint&quot; /&gt;&#xA;            &lt;mxPoint x=&quot;320&quot; y=&quot;420&quot; as=&quot;targetPoint&quot; /&gt;&#xA;          &lt;/mxGeometry&gt;&#xA;        &lt;/mxCell&gt;&#xA;        &lt;mxCell id=&quot;ZOJEWMY2XDao8kptbQvy-23&quot; value=&quot;&quot; style=&quot;endArrow=classic;html=1;rounded=0;endSize=8;strokeWidth=2;sketch=1;curveFitting=1;jiggle=2;&quot; edge=&quot;1&quot; parent=&quot;1&quot; source=&quot;ZOJEWMY2XDao8kptbQvy-8&quot; target=&quot;ZOJEWMY2XDao8kptbQvy-12&quot;&gt;&#xA;          &lt;mxGeometry width=&quot;50&quot; height=&quot;50&quot; relative=&quot;1&quot; as=&quot;geometry&quot;&gt;&#xA;            &lt;mxPoint x=&quot;330&quot; y=&quot;310&quot; as=&quot;sourcePoint&quot; /&gt;&#xA;            &lt;mxPoint x=&quot;330&quot; y=&quot;430&quot; as=&quot;targetPoint&quot; /&gt;&#xA;          &lt;/mxGeometry&gt;&#xA;        &lt;/mxCell&gt;&#xA;        &lt;mxCell id=&quot;ZOJEWMY2XDao8kptbQvy-24&quot; value=&quot;&quot; style=&quot;endArrow=classic;html=1;rounded=0;endSize=8;strokeWidth=2;sketch=1;curveFitting=1;jiggle=2;&quot; edge=&quot;1&quot; parent=&quot;1&quot; source=&quot;ZOJEWMY2XDao8kptbQvy-3&quot; target=&quot;ZOJEWMY2XDao8kptbQvy-8&quot;&gt;&#xA;          &lt;mxGeometry width=&quot;50&quot; height=&quot;50&quot; relative=&quot;1&quot; as=&quot;geometry&quot;&gt;&#xA;            &lt;mxPoint x=&quot;340&quot; y=&quot;320&quot; as=&quot;sourcePoint&quot; /&gt;&#xA;            &lt;mxPoint x=&quot;340&quot; y=&quot;440&quot; as=&quot;targetPoint&quot; /&gt;&#xA;          &lt;/mxGeometry&gt;&#xA;        &lt;/mxCell&gt;&#xA;        &lt;mxCell id=&quot;ZOJEWMY2XDao8kptbQvy-25&quot; value=&quot;&quot; style=&quot;endArrow=classic;html=1;rounded=0;endSize=8;strokeWidth=2;sketch=1;curveFitting=1;jiggle=2;&quot; edge=&quot;1&quot; parent=&quot;1&quot; source=&quot;ZOJEWMY2XDao8kptbQvy-7&quot; target=&quot;ZOJEWMY2XDao8kptbQvy-5&quot;&gt;&#xA;          &lt;mxGeometry width=&quot;50&quot; height=&quot;50&quot; relative=&quot;1&quot; as=&quot;geometry&quot;&gt;&#xA;            &lt;mxPoint x=&quot;350&quot; y=&quot;330&quot; as=&quot;sourcePoint&quot; /&gt;&#xA;            &lt;mxPoint x=&quot;350&quot; y=&quot;450&quot; as=&quot;targetPoint&quot; /&gt;&#xA;          &lt;/mxGeometry&gt;&#xA;        &lt;/mxCell&gt;&#xA;        &lt;mxCell id=&quot;ZOJEWMY2XDao8kptbQvy-26&quot; value=&quot;&quot; style=&quot;endArrow=classic;html=1;rounded=0;endSize=8;strokeWidth=2;sketch=1;curveFitting=1;jiggle=2;&quot; edge=&quot;1&quot; parent=&quot;1&quot; source=&quot;ZOJEWMY2XDao8kptbQvy-3&quot; target=&quot;ZOJEWMY2XDao8kptbQvy-5&quot;&gt;&#xA;          &lt;mxGeometry width=&quot;50&quot; height=&quot;50&quot; relative=&quot;1&quot; as=&quot;geometry&quot;&gt;&#xA;            &lt;mxPoint x=&quot;360&quot; y=&quot;340&quot; as=&quot;sourcePoint&quot; /&gt;&#xA;            &lt;mxPoint x=&quot;360&quot; y=&quot;460&quot; as=&quot;targetPoint&quot; /&gt;&#xA;          &lt;/mxGeometry&gt;&#xA;        &lt;/mxCell&gt;&#xA;      &lt;/root&gt;&#xA;    &lt;/mxGraphModel&gt;&#xA;  &lt;/diagram&gt;&#xA;&lt;/mxfile&gt;&#xA;"><defs/><g><g data-cell-id="0"><g data-cell-id="1"><g data-cell-id="ZOJEWMY2XDao8kptbQvy-2"><g><rect x="125" y="5" width="80" height="40" rx="6" ry="6" fill="none" stroke="none" pointer-events="all"/><path d="M 131 5 C 142.39 0.9 161.16 7.28 199 5 C 206.38 7.55 208.18 7.34 205 11 C 199.79 24.71 205.76 23.79 205 39 C 208.46 43.56 199.04 44.09 199 45 C 181.44 46.64 161.44 44.22 131 45 C 128.62 46.67 128.18 45.93 125 39 C 129.7 24.8 128.3 20.5 125 11 C 125.13 5.2 121.55 4.26 131 5" fill="#fff2cc" stroke="none" pointer-events="all"/><path d="M 131 5 C 147.92 5.19 162.37 2.47 199 5 M 131 5 C 152.37 6.5 170.69 5.3 199 5 M 199 5 C 203 2.85 206.6 7.11 205 11 M 199 5 C 204.72 7.05 203.97 4.85 205 11 M 205 11 C 204.46 21.02 203.95 29.46 205 39 M 205 11 C 203.45 17.72 206.94 23.37 205 39 M 205 39 C 206.75 39.98 205.04 48.4 199 45 M 205 39 C 208.31 42.07 199.56 48.25 199 45 M 199 45 C 182.5 43.71 157.77 46.07 131 45 M 199 45 C 183.62 46.78 165.61 47.36 131 45 M 131 45 C 130.42 47.79 121.86 43.97 125 39 M 131 45 C 127.26 46.02 120.99 42.14 125 39 M 125 39 C 124.87 34.26 126.3 24.78 125 11 M 125 39 C 125.44 33.2 125.34 24.24 125 11 M 125 11 C 124.3 5.33 124.39 8.36 131 5 M 125 11 C 121.38 4.58 127 4.85 131 5" fill="none" stroke="#d6b656" stroke-linejoin="round" stroke-linecap="round" stroke-miterlimit="10" pointer-events="all"/></g></g><g data-cell-id="ZOJEWMY2XDao8kptbQvy-3"><g><rect x="125" y="85" width="80" height="40" rx="6" ry="6" fill="none" stroke="none" pointer-events="all"/><path d="M 131 85 C 154.42 88.12 164.53 85.18 199 85 C 205.07 88.93 203.25 87.27 205 91 C 201.76 97.39 205.56 97.87 205 119 C 210.53 123.11 208.1 126.53 199 125 C 181.01 123.03 168.45 129.95 131 125 C 129.58 127.94 123.14 124.04 125 119 C 120.14 111.04 123.9 108.67 125 91 C 122.95 89.62 126.02 89.12 131 85" fill="#fff2cc" stroke="none" pointer-events="all"/><path d="M 131 85 C 145.63 84.2 157.73 81.88 199 85 M 131 85 C 155.66 86.1 182.02 83.34 199 85 M 199 85 C 204.4 87.9 204.36 86.36 205 91 M 199 85 C 200.51 83.58 205.9 83.72 205 91 M 205 91 C 202.72 102.01 201.33 108.9 205 119 M 205 91 C 204.69 94.8 205.67 103.6 205 119 M 205 119 C 203.94 120.78 202 128.96 199 125 M 205 119 C 209.54 126.79 206.03 125.27 199 125 M 199 125 C 179.54 127.26 153.69 121.67 131 125 M 199 125 C 180.14 126.19 164.98 125.48 131 125 M 131 125 C 130.65 123.21 125.51 121.02 125 119 M 131 125 C 126.32 121.38 120.71 126.93 125 119 M 125 119 C 126.46 107.26 123.86 100.86 125 91 M 125 119 C 125.62 110.34 123.96 100.62 125 91 M 125 91 C 121.17 85.33 125.28 81.74 131 85 M 125 91 C 124.74 85.04 124.42 84.8 131 85" fill="none" stroke="#d6b656" stroke-linejoin="round" stroke-linecap="round" stroke-miterlimit="10" pointer-events="all"/></g></g><g data-cell-id="ZOJEWMY2XDao8kptbQvy-4"><g><rect x="185" y="165" width="80" height="40" rx="6" ry="6" fill="none" stroke="none" pointer-events="all"/><path d="M 191 165 C 215.25 160.33 227.9 159.27 259 165 C 263.76 170.31 269.51 167.2 265 171 C 265.3 175.67 266.93 194.35 265 199 C 261.41 202.66 265.96 208.97 259 205 C 238.17 210.63 208.26 204.48 191 205 C 190.54 209.22 189.3 202.16 185 199 C 183.35 191.67 181.07 185.64 185 171 C 180.77 162.85 190.49 162.77 191 165" fill="#fff2cc" stroke="none" pointer-events="all"/><path d="M 191 165 C 203.35 160.49 221.09 166.57 259 165 M 191 165 C 205.35 165.71 222.16 165.38 259 165 M 259 165 C 265.81 164.96 262.12 165.62 265 171 M 259 165 C 265.51 169.3 267.84 162.58 265 171 M 265 171 C 262.09 183 267.83 188.34 265 199 M 265 171 C 264.8 181.47 263.28 191.03 265 199 M 265 199 C 261.13 201.59 266.97 201.52 259 205 M 265 199 C 261.56 202.32 263.3 202.29 259 205 M 259 205 C 236.58 202.82 217.62 205.27 191 205 M 259 205 C 240.66 205.59 224.35 207.6 191 205 M 191 205 C 190.87 206.64 181.16 206.08 185 199 M 191 205 C 185.38 205.95 180.43 202.52 185 199 M 185 199 C 181.17 193.87 182.53 188.14 185 171 M 185 199 C 186.92 193.08 183.7 188.19 185 171 M 185 171 C 186.04 165.32 186.18 163.13 191 165 M 185 171 C 188.1 165.5 191.05 164.74 191 165" fill="none" stroke="#d6b656" stroke-linejoin="round" stroke-linecap="round" stroke-miterlimit="10" pointer-events="all"/></g></g><g data-cell-id="ZOJEWMY2XDao8kptbQvy-5"><g><rect x="65" y="165" width="80" height="40" rx="6" ry="6" fill="none" stroke="none" pointer-events="all"/><path d="M 71 165 C 96.08 167.55 111.28 168.37 139 165 C 142.45 160.48 144.58 167.13 145 171 C 148.84 179.55 148.3 188.43 145 199 C 143.48 202.21 143.82 200.22 139 205 C 117.73 203.22 106.46 206.4 71 205 C 71.5 210.49 64.26 200.28 65 199 C 65 192.31 67.87 182.62 65 171 C 69.8 167.27 63.76 167.63 71 165" fill="#fff2cc" stroke="none" pointer-events="all"/><path d="M 71 165 C 89.06 167.5 104.45 165.98 139 165 M 71 165 C 92.63 165.32 113.49 163.43 139 165 M 139 165 C 139.22 162.02 147.88 164.87 145 171 M 139 165 C 141.31 165.82 140.57 170.64 145 171 M 145 171 C 141.47 183.99 146.33 195.78 145 199 M 145 171 C 146.03 182.55 146.01 191.26 145 199 M 145 199 C 146.32 202.39 143.94 202.08 139 205 M 145 199 C 142.78 207.04 140.58 208.51 139 205 M 139 205 C 113.62 206.38 93.55 200.87 71 205 M 139 205 C 121.19 205 99.73 205.72 71 205 M 71 205 C 63.1 202.06 64.81 203.13 65 199 M 71 205 C 64.44 201.31 69.35 207.31 65 199 M 65 199 C 63.89 186.88 61.21 184.22 65 171 M 65 199 C 63.11 190.21 66.32 184.57 65 171 M 65 171 C 62.91 165.31 67.08 164.51 71 165 M 65 171 C 62.26 165.96 68.48 164.69 71 165" fill="none" stroke="#d6b656" stroke-linejoin="round" stroke-linecap="round" stroke-miterlimit="10" pointer-events="all"/></g></g><g data-cell-id="ZOJEWMY2XDao8kptbQvy-6"><g><rect x="245" y="85" width="80" height="40" rx="6" ry="6" fill="none" stroke="none" pointer-events="all"/><path d="M 251 85 C 276.91 83.57 294.65 86.27 319 85 C 321.14 81.86 319.64 87.06 325 91 C 321.18 97.84 329.66 113.7 325 119 C 325.56 121.76 321.67 122.66 319 125 C 308.49 119.62 293.47 120.93 251 125 C 252.46 120.57 250.42 118.4 245 119 C 246.64 112.95 243.47 99.59 245 91 C 247.62 91.69 248.23 81.29 251 85" fill="#fff2cc" stroke="none" pointer-events="all"/><path d="M 251 85 C 266.78 86.52 279.81 85.39 319 85 M 251 85 C 275.92 83.64 300.82 84.19 319 85 M 319 85 C 320.62 87.08 325.63 84.13 325 91 M 319 85 C 326.31 82.34 322.5 89.51 325 91 M 325 91 C 328.84 99.38 324.83 104.02 325 119 M 325 91 C 323.26 99.62 324.74 111.49 325 119 M 325 119 C 323.51 123.19 320.91 122.64 319 125 M 325 119 C 324 122.57 327.05 125.54 319 125 M 319 125 C 290.66 121.94 269.48 124.47 251 125 M 319 125 C 297.71 124.41 279.1 123.83 251 125 M 251 125 C 243.33 125.49 248.45 120.19 245 119 M 251 125 C 243.5 125.88 249.07 122.91 245 119 M 245 119 C 246.6 113.48 247.88 103.51 245 91 M 245 119 C 244.41 107.35 246.06 100.95 245 91 M 245 91 C 247.79 85.31 247.97 85.9 251 85 M 245 91 C 245.62 86.42 245.91 84.63 251 85" fill="none" stroke="#d6b656" stroke-linejoin="round" stroke-linecap="round" stroke-miterlimit="10" pointer-events="all"/></g></g><g data-cell-id="ZOJEWMY2XDao8kptbQvy-7"><g><rect x="5" y="85" width="80" height="40" rx="6" ry="6" fill="none" stroke="none" pointer-events="all"/><path d="M 11 85 C 37.74 90.79 58.02 84.17 79 85 C 79.83 83.24 85.91 86.99 85 91 C 83.15 101.72 89.46 107.78 85 119 C 87.63 121.31 79.53 125.1 79 125 C 54.46 127.22 33.27 126.67 11 125 C 2.22 121.84 5.38 127.72 5 119 C 9.85 107.98 0.64 107.76 5 91 C 5.44 84.91 1.5 86.15 11 85" fill="#fff2cc" stroke="none" pointer-events="all"/><path d="M 11 85 C 24.49 82.81 43.17 82.09 79 85 M 11 85 C 29.61 83.25 44.96 86.23 79 85 M 79 85 C 82.03 84.14 83.39 83.38 85 91 M 79 85 C 82.1 88.07 84.43 88.37 85 91 M 85 91 C 87.1 100.37 82.21 103.46 85 119 M 85 91 C 84.49 100.69 83.47 111.73 85 119 M 85 119 C 88.7 124 85.88 123.2 79 125 M 85 119 C 85.22 127.29 84.32 122.56 79 125 M 79 125 C 55.7 125.5 25.41 128.06 11 125 M 79 125 C 58.23 123.82 34.48 125.95 11 125 M 11 125 C 3.55 128.91 4.1 125.24 5 119 M 11 125 C 2.56 121.24 8.79 118.5 5 119 M 5 119 C 1.31 114.49 6.56 99.59 5 91 M 5 119 C 4.59 114.08 4.68 104.52 5 91 M 5 91 C 4.66 85.3 8.87 87.28 11 85 M 5 91 C 8.98 86.87 3.33 84.58 11 85" fill="none" stroke="#d6b656" stroke-linejoin="round" stroke-linecap="round" stroke-miterlimit="10" pointer-events="all"/></g></g><g data-cell-id="ZOJEWMY2XDao8kptbQvy-8"><g><rect x="125" y="245" width="80" height="40" rx="6" ry="6" fill="none" stroke="none" pointer-events="all"/><path d="M 131 245 C 158.57 246.81 181.4 242.07 199 245 C 198.52 244.61 200.97 246.92 205 251 C 206.69 254.4 199.63 261.86 205 279 C 209.71 280.85 208.59 287.55 199 285 C 185.22 283.61 160.28 281.2 131 285 C 123.18 283.11 120.34 285.83 125 279 C 120.3 268.62 127.44 264.74 125 251 C 123.27 249.33 125.97 239.81 131 245" fill="#fff2cc" stroke="none" pointer-events="all"/><path d="M 131 245 C 142.21 241.82 158.53 241.5 199 245 M 131 245 C 152.9 242.86 176.29 244.27 199 245 M 199 245 C 203.43 241.2 201.15 250.64 205 251 M 199 245 C 207.1 244.59 206.36 247.23 205 251 M 205 251 C 206.47 261.37 208.71 262.9 205 279 M 205 251 C 205.72 261.77 206.2 271.96 205 279 M 205 279 C 205.89 284.8 202.84 283.75 199 285 M 205 279 C 206.44 282.82 201.59 288.78 199 285 M 199 285 C 172.74 281.06 149.34 283.66 131 285 M 199 285 C 174.75 287.22 153.85 284.07 131 285 M 131 285 C 123.78 284.34 127.75 282.3 125 279 M 131 285 C 130.82 285.81 128.51 283.29 125 279 M 125 279 C 124.02 267.5 125.23 255.67 125 251 M 125 279 C 125.9 271.22 124.42 260.9 125 251 M 125 251 C 121.53 245.29 129.77 248.66 131 245 M 125 251 C 123.14 247.33 129.96 244.52 131 245" fill="none" stroke="#d6b656" stroke-linejoin="round" stroke-linecap="round" stroke-miterlimit="10" pointer-events="all"/></g></g><g data-cell-id="ZOJEWMY2XDao8kptbQvy-9"><g><rect x="235" y="245" width="80" height="40" rx="6" ry="6" fill="none" stroke="none" pointer-events="all"/><path d="M 241 245 C 269.4 239.02 294.77 247.37 309 245 C 318.41 245.99 317.24 246.85 315 251 C 320.23 263.88 311 267.13 315 279 C 310.58 280.4 316.45 289.99 309 285 C 294.78 287.4 277.28 283.12 241 285 C 234.14 284.39 236.5 283.95 235 279 C 231.94 269.26 233.04 261.71 235 251 C 231.09 242.55 240.44 244.67 241 245" fill="#fff2cc" stroke="none" pointer-events="all"/><path d="M 241 245 C 257.92 246.11 271.89 246.19 309 245 M 241 245 C 266.19 245.18 293.63 245.04 309 245 M 309 245 C 314.84 246.25 316.91 249.89 315 251 M 309 245 C 312.9 241.11 318.29 246.09 315 251 M 315 251 C 315.85 262.36 317.21 262.34 315 279 M 315 251 C 316.95 258.84 314.93 268.19 315 279 M 315 279 C 313.08 285.6 309.81 284.31 309 285 M 315 279 C 317.67 287.54 308.86 285.8 309 285 M 309 285 C 293.38 284.61 282.47 287.26 241 285 M 309 285 C 285.27 286.63 263.23 286.19 241 285 M 241 285 C 234 287.76 233.4 279.35 235 279 M 241 285 C 239.88 281.17 238.23 278.88 235 279 M 235 279 C 236.74 274.1 233.91 262.95 235 251 M 235 279 C 237.2 268.35 234.16 257.27 235 251 M 235 251 C 236.4 245.28 240.66 242.05 241 245 M 235 251 C 236.5 247.79 237.39 244.47 241 245" fill="none" stroke="#d6b656" stroke-linejoin="round" stroke-linecap="round" stroke-miterlimit="10" pointer-events="all"/></g></g><g data-cell-id="ZOJEWMY2XDao8kptbQvy-10"><g><rect x="5" y="245" width="80" height="40" rx="6" ry="6" fill="none" stroke="none" pointer-events="all"/><path d="M 11 245 C 27.03 244.06 43.21 249.76 79 245 C 86.97 246.71 88.62 245.05 85 251 C 88.07 260.36 90.58 266.92 85 279 C 81.83 281.48 80.74 287.06 79 285 C 59.31 289.46 41.88 283.57 11 285 C 6.23 280 6.68 285.74 5 279 C 3.91 269.68 3.32 258.72 5 251 C 5.58 244.02 3.72 248.6 11 245" fill="#fff2cc" stroke="none" pointer-events="all"/><path d="M 11 245 C 23.88 244.76 38.86 247.32 79 245 M 11 245 C 29.39 245.68 45.97 245.86 79 245 M 79 245 C 82.87 248.19 88.58 245.71 85 251 M 79 245 C 83.15 249.51 86.03 243.92 85 251 M 85 251 C 83.12 257.61 84.52 268.13 85 279 M 85 251 C 84.56 261.66 86.07 270.34 85 279 M 85 279 C 83.41 283.09 86.58 287.84 79 285 M 85 279 C 88.92 279.15 86.4 289.22 79 285 M 79 285 C 54.73 281.52 30.72 283.46 11 285 M 79 285 C 62.37 286.75 47.55 286.9 11 285 M 11 285 C 4.87 285.58 1.67 286.86 5 279 M 11 285 C 8.18 283.8 4.76 282.46 5 279 M 5 279 C 5.12 268.28 4.93 265.94 5 251 M 5 279 C 3.87 273.03 6.24 264.73 5 251 M 5 251 C 2.07 243.25 5.19 244.66 11 245 M 5 251 C 5.23 244.31 9.14 248.76 11 245" fill="none" stroke="#d6b656" stroke-linejoin="round" stroke-linecap="round" stroke-miterlimit="10" pointer-events="all"/></g></g><g data-cell-id="ZOJEWMY2XDao8kptbQvy-11"><g><rect x="205" y="325" width="80" height="40" rx="6" ry="6" fill="none" stroke="none" pointer-events="all"/><path d="M 211 325 C 227.86 327.47 246.58 323.85 279 325 C 285.66 328.09 283.69 324.98 285 331 C 280.41 333.04 280.75 341 285 359 C 283.91 361.03 278.6 369.5 279 365 C 270.08 365.86 248.88 369.31 211 365 C 207.19 361.27 201.64 363.86 205 359 C 205.55 355.91 210.12 346.89 205 331 C 203.41 328.44 208.19 322.26 211 325" fill="#fff2cc" stroke="none" pointer-events="all"/><path d="M 211 325 C 221.59 321.06 242.23 324.01 279 325 M 211 325 C 232.68 325.28 257.31 323.9 279 325 M 279 325 C 284.28 325.25 286.34 324.97 285 331 M 279 325 C 278.95 326.04 287.96 322.78 285 331 M 285 331 C 282.5 338.6 283.02 347.57 285 359 M 285 331 C 285.79 342.73 284.8 350.57 285 359 M 285 359 C 288.6 363.9 283.54 368.4 279 365 M 285 359 C 280.94 363.88 283.68 366.24 279 365 M 279 365 C 251.77 365.08 226.65 367.06 211 365 M 279 365 C 262.89 366.16 246.92 365.02 211 365 M 211 365 C 205.1 361 205.32 363.91 205 359 M 211 365 C 207.24 368.37 204.48 367.25 205 359 M 205 359 C 207.83 349.29 203.61 342.02 205 331 M 205 359 C 205.18 350.17 205.98 341.1 205 331 M 205 331 C 206.94 323.24 206.09 326.04 211 325 M 205 331 C 208.59 324.76 206.57 328.71 211 325" fill="none" stroke="#d6b656" stroke-linejoin="round" stroke-linecap="round" stroke-miterlimit="10" pointer-events="all"/></g></g><g data-cell-id="ZOJEWMY2XDao8kptbQvy-12"><g><rect x="45" y="325" width="80" height="40" rx="6" ry="6" fill="none" stroke="none" pointer-events="all"/><path d="M 51 325 C 68.69 323.49 89.96 321.75 119 325 C 124.36 329.47 129.95 324.91 125 331 C 122.38 342.53 120.55 346.28 125 359 C 125.98 360.58 127.66 360.75 119 365 C 96.04 358.45 68.69 360.03 51 365 C 48.15 362.55 47.8 361.97 45 359 C 47.19 356.55 45.72 343.86 45 331 C 41.23 321.67 41.45 327.11 51 325" fill="#fff2cc" stroke="none" pointer-events="all"/><path d="M 51 325 C 67.31 328.07 77.59 323.42 119 325 M 51 325 C 66.37 324.89 77.44 325.95 119 325 M 119 325 C 125.68 322.31 124.1 324.22 125 331 M 119 325 C 123.94 322.56 120.69 330.85 125 331 M 125 331 C 121.87 339.59 121.51 355.01 125 359 M 125 331 C 123.02 339.81 123.53 350.8 125 359 M 125 359 C 125.79 364.7 120.51 368.96 119 365 M 125 359 C 122.16 359.4 120.95 363.26 119 365 M 119 365 C 88.81 368.64 62.58 362.66 51 365 M 119 365 C 103.41 365.57 82.3 363.13 51 365 M 51 365 C 45.33 364.43 48.97 360.97 45 359 M 51 365 C 46.3 363.73 44.19 362.84 45 359 M 45 359 C 41.43 355.9 41.16 341.3 45 331 M 45 359 C 45.36 352.9 44.6 344.68 45 331 M 45 331 C 43.81 323.23 46.99 327.43 51 325 M 45 331 C 42.75 325.22 44 328.65 51 325" fill="none" stroke="#d6b656" stroke-linejoin="round" stroke-linecap="round" stroke-miterlimit="10" pointer-events="all"/></g></g><g data-cell-id="ZOJEWMY2XDao8kptbQvy-13"><g><path d="M 165 75.26 L 165 45" fill="none" stroke="none" pointer-events="stroke"/><path d="M 165 82.76 L 160 72.76 L 165 75.26 L 170 72.76 Z" fill="none" stroke="none" pointer-events="all"/><path d="M 165 75.26 C 165.38 69.49 167.39 59.05 165 45 M 165 75.26 C 164.25 67.68 164.56 58.8 165 45" fill="none" stroke="rgb(0, 0, 0)" stroke-width="2" stroke-linejoin="round" stroke-linecap="round" stroke-miterlimit="10" pointer-events="stroke"/><path d="M 159.81 72.98 C 159.81 72.98 159.81 72.98 159.81 72.98 M 159.81 72.98 C 159.81 72.98 159.81 72.98 159.81 72.98 M 163.88 80.49 C 165.15 75.96 170.26 74.2 170.44 72.94 M 163.88 80.49 C 164.65 78.71 168.18 76.86 170.44 72.94" fill="none" stroke="rgb(0, 0, 0)" stroke-linejoin="round" stroke-linecap="round" stroke-miterlimit="10" pointer-events="all"/><path d="M 165 82.76 C 164.13 81.03 164.23 76.61 160 72.76 M 165 82.76 C 163.33 80.53 162.12 77.48 160 72.76 M 160 72.76 C 160.06 72.55 162.85 73.27 165 75.26 M 160 72.76 C 161.44 74.11 163.42 74.83 165 75.26 M 165 75.26 C 166.2 73.97 168.68 74.27 170 72.76 M 165 75.26 C 167.29 73.75 168.67 73.42 170 72.76 M 170 72.76 C 168.31 76.05 167.45 80.33 165 82.76 M 170 72.76 C 168.12 76.22 166.18 79.84 165 82.76" fill="none" stroke="rgb(0, 0, 0)" stroke-width="2" stroke-linejoin="round" stroke-linecap="round" stroke-miterlimit="10" pointer-events="all"/></g></g><g data-cell-id="ZOJEWMY2XDao8kptbQvy-14"><g><path d="M 270 125 L 245.84 157.21" fill="none" stroke="none" pointer-events="stroke"/><path d="M 241.34 163.21 L 243.34 152.21 L 245.84 157.21 L 251.34 158.21 Z" fill="none" stroke="none" pointer-events="all"/><path d="M 270 125 C 262.68 129.94 257.39 140.68 245.84 157.21 M 270 125 C 259.22 137.24 254.25 146.4 245.84 157.21" fill="none" stroke="rgb(0, 0, 0)" stroke-width="2" stroke-linejoin="round" stroke-linecap="round" stroke-miterlimit="10" pointer-events="stroke"/><path d="M 243.34 152.21 C 243.34 152.21 243.34 152.21 243.34 152.21 M 243.34 152.21 C 243.34 152.21 243.34 152.21 243.34 152.21 M 242.82 165.01 C 245.35 163.6 244.94 159.76 248.06 158.97 M 242.82 165.01 C 243.19 164.08 244.49 163.23 248.06 158.97" fill="none" stroke="rgb(0, 0, 0)" stroke-linejoin="round" stroke-linecap="round" stroke-miterlimit="10" pointer-events="all"/><path d="M 241.34 163.21 C 240.59 160.04 240.81 160.11 243.34 152.21 M 241.34 163.21 C 241.25 160.07 243.88 155.08 243.34 152.21 M 243.34 152.21 C 244.96 153.79 244.47 154.44 245.84 157.21 M 243.34 152.21 C 244.37 154.31 244.78 155.69 245.84 157.21 M 245.84 157.21 C 246.67 157.65 247.98 157.67 251.34 158.21 M 245.84 157.21 C 247.01 156.94 248.28 157.16 251.34 158.21 M 251.34 158.21 C 246.45 159.13 244.8 163.15 241.34 163.21 M 251.34 158.21 C 248.73 159.57 245.69 161 241.34 163.21" fill="none" stroke="rgb(0, 0, 0)" stroke-width="2" stroke-linejoin="round" stroke-linecap="round" stroke-miterlimit="10" pointer-events="all"/></g></g><g data-cell-id="ZOJEWMY2XDao8kptbQvy-15"><g><path d="M 225 205 L 225 315.26" fill="none" stroke="none" pointer-events="stroke"/><path d="M 225 322.76 L 220 312.76 L 225 315.26 L 230 312.76 Z" fill="none" stroke="none" pointer-events="all"/><path d="M 225 205 C 228.25 223.85 225.55 250.97 225 315.26 M 225 205 C 223.92 230.99 222.53 251.69 225 315.26" fill="none" stroke="rgb(0, 0, 0)" stroke-width="2" stroke-linejoin="round" stroke-linecap="round" stroke-miterlimit="10" pointer-events="stroke"/><path d="M 220.31 312.4 C 220.31 312.4 220.31 312.4 220.31 312.4 M 220.31 312.4 C 220.31 312.4 220.31 312.4 220.31 312.4 M 223.73 320.67 C 224.8 317.94 226.65 318.1 230.29 313.12 M 223.73 320.67 C 225.21 318.62 228.24 314.84 230.29 313.12" fill="none" stroke="rgb(0, 0, 0)" stroke-linejoin="round" stroke-linecap="round" stroke-miterlimit="10" pointer-events="all"/><path d="M 225 322.76 C 225.98 318.55 223.44 319.05 220 312.76 M 225 322.76 C 224.4 321.49 222.51 317.25 220 312.76 M 220 312.76 C 222.15 312.83 221.79 314.47 225 315.26 M 220 312.76 C 221.36 313.82 222.99 314.17 225 315.26 M 225 315.26 C 227.38 315.4 227.22 313.09 230 312.76 M 225 315.26 C 225.82 314.36 227.75 314.2 230 312.76 M 230 312.76 C 229.82 314.85 226.26 317.51 225 322.76 M 230 312.76 C 227.75 315.1 226.66 317.4 225 322.76" fill="none" stroke="rgb(0, 0, 0)" stroke-width="2" stroke-linejoin="round" stroke-linecap="round" stroke-miterlimit="10" pointer-events="all"/></g></g><g data-cell-id="ZOJEWMY2XDao8kptbQvy-17"><g><path d="M 237.5 205 L 257.34 236.74" fill="none" stroke="none" pointer-events="stroke"/><path d="M 261.31 243.1 L 251.77 237.27 L 257.34 236.74 L 260.25 231.97 Z" fill="none" stroke="none" pointer-events="all"/><path d="M 237.5 205 C 240.66 211.79 245.31 215.64 257.34 236.74 M 237.5 205 C 245.82 215.33 249.97 228.14 257.34 236.74" fill="none" stroke="rgb(0, 0, 0)" stroke-width="2" stroke-linejoin="round" stroke-linecap="round" stroke-miterlimit="10" pointer-events="stroke"/><path d="M 251.55 237.52 C 251.55 237.52 251.55 237.52 251.55 237.52 M 251.55 237.52 C 251.55 237.52 251.55 237.52 251.55 237.52 M 258.9 241.26 C 259.6 240.53 261.68 239 264.15 235.23 M 258.9 241.26 C 259.6 238.8 262.17 237.06 264.15 235.23" fill="none" stroke="rgb(0, 0, 0)" stroke-linejoin="round" stroke-linecap="round" stroke-miterlimit="10" pointer-events="all"/><path d="M 261.31 243.1 C 258.75 241.9 257.13 239.23 251.77 237.27 M 261.31 243.1 C 258.67 240.02 253.47 238.58 251.77 237.27 M 251.77 237.27 C 254.1 236.57 255.25 235.86 257.34 236.74 M 251.77 237.27 C 253.33 237.04 254.74 237.35 257.34 236.74 M 257.34 236.74 C 258.88 234.74 258.52 232.95 260.25 231.97 M 257.34 236.74 C 258.06 234.94 259.69 233.66 260.25 231.97 M 260.25 231.97 C 258.68 235.3 262.55 238.75 261.31 243.1 M 260.25 231.97 C 261.04 235.55 262 238.93 261.31 243.1" fill="none" stroke="rgb(0, 0, 0)" stroke-width="2" stroke-linejoin="round" stroke-linecap="round" stroke-miterlimit="10" pointer-events="all"/></g></g><g data-cell-id="ZOJEWMY2XDao8kptbQvy-18"><g><path d="M 45 125 L 45 235.26" fill="none" stroke="none" pointer-events="stroke"/><path d="M 45 242.76 L 40 232.76 L 45 235.26 L 50 232.76 Z" fill="none" stroke="none" pointer-events="all"/><path d="M 45 125 C 42.52 145.63 48.76 173.95 45 235.26 M 45 125 C 43.99 150.03 44.05 175.81 45 235.26" fill="none" stroke="rgb(0, 0, 0)" stroke-width="2" stroke-linejoin="round" stroke-linecap="round" stroke-miterlimit="10" pointer-events="stroke"/><path d="M 40.13 232.61 C 40.13 232.61 40.13 232.61 40.13 232.61 M 40.13 232.61 C 40.13 232.61 40.13 232.61 40.13 232.61 M 44.2 240.13 C 47.88 236.83 49.93 234.62 50.1 233.33 M 44.2 240.13 C 44.98 237.91 47.96 236.67 50.1 233.33" fill="none" stroke="rgb(0, 0, 0)" stroke-linejoin="round" stroke-linecap="round" stroke-miterlimit="10" pointer-events="all"/><path d="M 45 242.76 C 42.04 239.71 44.5 240.88 40 232.76 M 45 242.76 C 43.78 239.79 42.63 237.24 40 232.76 M 40 232.76 C 42.15 234.47 44.87 234.14 45 235.26 M 40 232.76 C 40.84 233.28 42.48 234.2 45 235.26 M 45 235.26 C 46.8 234.79 48.14 232.55 50 232.76 M 45 235.26 C 47.41 234.23 49.43 233.01 50 232.76 M 50 232.76 C 49.23 235.04 47.35 239.52 45 242.76 M 50 232.76 C 49.74 235.42 46.7 239.96 45 242.76" fill="none" stroke="rgb(0, 0, 0)" stroke-width="2" stroke-linejoin="round" stroke-linecap="round" stroke-miterlimit="10" pointer-events="all"/></g></g><g data-cell-id="ZOJEWMY2XDao8kptbQvy-19"><g><path d="M 195 45 L 246.9 79.6" fill="none" stroke="none" pointer-events="stroke"/><path d="M 253.14 83.76 L 242.05 82.37 L 246.9 79.6 L 247.59 74.05 Z" fill="none" stroke="none" pointer-events="all"/><path d="M 195 45 C 208.4 56.08 214.91 61.3 246.9 79.6 M 195 45 C 209.05 54.44 228.28 67.24 246.9 79.6" fill="none" stroke="rgb(0, 0, 0)" stroke-width="2" stroke-linejoin="round" stroke-linecap="round" stroke-miterlimit="10" pointer-events="stroke"/><path d="M 247.74 73.88 C 247.74 73.88 247.74 73.88 247.74 73.88 M 247.74 73.88 C 247.74 73.88 247.74 73.88 247.74 73.88 M 249.84 83.66 C 250.43 83.39 250.63 81.74 251.8 81.4 M 249.84 83.66 C 250.01 83.03 250.43 82.85 251.8 81.4" fill="none" stroke="rgb(0, 0, 0)" stroke-linejoin="round" stroke-linecap="round" stroke-miterlimit="10" pointer-events="all"/><path d="M 253.14 83.76 C 252.19 85.71 247.62 84.38 242.05 82.37 M 253.14 83.76 C 248.71 83.1 247.08 83.85 242.05 82.37 M 242.05 82.37 C 243.08 81.58 244.31 81.2 246.9 79.6 M 242.05 82.37 C 243.43 81.54 244.3 81.16 246.9 79.6 M 246.9 79.6 C 246.9 79.06 247.86 76.84 247.59 74.05 M 246.9 79.6 C 247.18 78.31 246.87 77.29 247.59 74.05 M 247.59 74.05 C 247.88 75.67 249.42 77.03 253.14 83.76 M 247.59 74.05 C 248.6 75.93 251.01 79.74 253.14 83.76" fill="none" stroke="rgb(0, 0, 0)" stroke-width="2" stroke-linejoin="round" stroke-linecap="round" stroke-miterlimit="10" pointer-events="all"/></g></g><g data-cell-id="ZOJEWMY2XDao8kptbQvy-20"><g><path d="M 135 45 L 83.1 79.6" fill="none" stroke="none" pointer-events="stroke"/><path d="M 76.86 83.76 L 82.41 74.05 L 83.1 79.6 L 87.95 82.37 Z" fill="none" stroke="none" pointer-events="all"/><path d="M 135 45 C 124.68 50.96 114.15 56.96 83.1 79.6 M 135 45 C 119.15 55.71 104.5 65.55 83.1 79.6" fill="none" stroke="rgb(0, 0, 0)" stroke-width="2" stroke-linejoin="round" stroke-linecap="round" stroke-miterlimit="10" pointer-events="stroke"/><path d="M 82.14 74.36 C 82.14 74.36 82.14 74.36 82.14 74.36 M 82.14 74.36 C 82.14 74.36 82.14 74.36 82.14 74.36 M 84.9 83.38 C 85.3 82.66 85.71 82.19 86.21 81.87 M 84.9 83.38 C 85.17 82.95 85.98 82.42 86.21 81.87" fill="none" stroke="rgb(0, 0, 0)" stroke-linejoin="round" stroke-linecap="round" stroke-miterlimit="10" pointer-events="all"/><path d="M 76.86 83.76 C 78 80.83 79.19 78.23 82.41 74.05 M 76.86 83.76 C 77.68 81.36 79.6 78.35 82.41 74.05 M 82.41 74.05 C 82.57 75.88 82.44 77.48 83.1 79.6 M 82.41 74.05 C 82.39 75.79 82.27 77.03 83.1 79.6 M 83.1 79.6 C 83.26 79.74 84.96 80.43 87.95 82.37 M 83.1 79.6 C 84.35 79.96 85.77 80.85 87.95 82.37 M 87.95 82.37 C 82.82 81.46 78.94 85.18 76.86 83.76 M 87.95 82.37 C 83.01 82.57 79.17 82.7 76.86 83.76" fill="none" stroke="rgb(0, 0, 0)" stroke-width="2" stroke-linejoin="round" stroke-linecap="round" stroke-miterlimit="10" pointer-events="all"/></g></g><g data-cell-id="ZOJEWMY2XDao8kptbQvy-21"><g><path d="M 267.5 285 L 255.92 315.88" fill="none" stroke="none" pointer-events="stroke"/><path d="M 253.29 322.91 L 252.11 311.79 L 255.92 315.88 L 261.48 315.3 Z" fill="none" stroke="none" pointer-events="all"/><path d="M 267.5 285 C 263.24 287.58 266.61 301.21 255.92 315.88 M 267.5 285 C 265.03 297.54 260.49 306.95 255.92 315.88" fill="none" stroke="rgb(0, 0, 0)" stroke-width="2" stroke-linejoin="round" stroke-linecap="round" stroke-miterlimit="10" pointer-events="stroke"/><path d="M 251.9 312.03 C 251.9 312.03 251.9 312.03 251.9 312.03 M 251.9 312.03 C 251.9 312.03 251.9 312.03 251.9 312.03 M 253.35 322.56 C 256.85 321.8 257.25 316.94 259.25 315.77 M 253.35 322.56 C 254.29 320.93 258.04 317.49 259.25 315.77" fill="none" stroke="rgb(0, 0, 0)" stroke-linejoin="round" stroke-linecap="round" stroke-miterlimit="10" pointer-events="all"/><path d="M 253.29 322.91 C 251.73 318.57 254.7 320.38 252.11 311.79 M 253.29 322.91 C 253.34 319.53 252.74 314.44 252.11 311.79 M 252.11 311.79 C 252.58 313.51 254.62 313.14 255.92 315.88 M 252.11 311.79 C 253.53 312.88 253.54 313.5 255.92 315.88 M 255.92 315.88 C 257.98 315.82 258.52 316.53 261.48 315.3 M 255.92 315.88 C 258.35 315.16 259.68 315.42 261.48 315.3 M 261.48 315.3 C 260.63 316.06 258.8 318.96 253.29 322.91 M 261.48 315.3 C 258.89 317.53 256.79 319.57 253.29 322.91" fill="none" stroke="rgb(0, 0, 0)" stroke-width="2" stroke-linejoin="round" stroke-linecap="round" stroke-miterlimit="10" pointer-events="all"/></g></g><g data-cell-id="ZOJEWMY2XDao8kptbQvy-22"><g><path d="M 120 205 L 144.16 237.21" fill="none" stroke="none" pointer-events="stroke"/><path d="M 148.66 243.21 L 138.66 238.21 L 144.16 237.21 L 146.66 232.21 Z" fill="none" stroke="none" pointer-events="all"/><path d="M 120 205 C 128.9 213.44 129.23 219.75 144.16 237.21 M 120 205 C 124.68 214.68 129.23 218.89 144.16 237.21" fill="none" stroke="rgb(0, 0, 0)" stroke-width="2" stroke-linejoin="round" stroke-linecap="round" stroke-miterlimit="10" pointer-events="stroke"/><path d="M 138.38 238.53 C 138.38 238.53 138.38 238.53 138.38 238.53 M 138.38 238.53 C 138.38 238.53 138.38 238.53 138.38 238.53 M 145.73 242.27 C 147.17 240.61 149.42 240.26 150.98 236.23 M 145.73 242.27 C 146.57 241.31 148.38 238.89 150.98 236.23" fill="none" stroke="rgb(0, 0, 0)" stroke-linejoin="round" stroke-linecap="round" stroke-miterlimit="10" pointer-events="all"/><path d="M 148.66 243.21 C 148.53 243.62 143.9 242.43 138.66 238.21 M 148.66 243.21 C 146.17 242.73 143.16 239.64 138.66 238.21 M 138.66 238.21 C 139.53 237.78 141.51 237.73 144.16 237.21 M 138.66 238.21 C 139.92 237.89 140.7 237.18 144.16 237.21 M 144.16 237.21 C 145.71 235.98 147.1 233.53 146.66 232.21 M 144.16 237.21 C 144.58 235.75 144.96 234.54 146.66 232.21 M 146.66 232.21 C 146.72 233.31 148.18 238.52 148.66 243.21 M 146.66 232.21 C 148.03 234.93 147.34 239.68 148.66 243.21" fill="none" stroke="rgb(0, 0, 0)" stroke-width="2" stroke-linejoin="round" stroke-linecap="round" stroke-miterlimit="10" pointer-events="all"/></g></g><g data-cell-id="ZOJEWMY2XDao8kptbQvy-23"><g><path d="M 145 285 L 111.88 318.12" fill="none" stroke="none" pointer-events="stroke"/><path d="M 106.58 323.42 L 110.12 312.81 L 111.88 318.12 L 117.19 319.88 Z" fill="none" stroke="none" pointer-events="all"/><path d="M 145 285 C 140 292.01 134.25 298.91 111.88 318.12 M 145 285 C 136.21 293.02 123.98 306.26 111.88 318.12" fill="none" stroke="rgb(0, 0, 0)" stroke-width="2" stroke-linejoin="round" stroke-linecap="round" stroke-miterlimit="10" pointer-events="stroke"/><path d="M 109.86 313.11 C 109.86 313.11 109.86 313.11 109.86 313.11 M 109.86 313.11 C 109.86 313.11 109.86 313.11 109.86 313.11 M 112.62 322.13 C 112.5 320.91 114.57 321.13 115.24 319.11 M 112.62 322.13 C 112.91 320.99 113.86 320.9 115.24 319.11" fill="none" stroke="rgb(0, 0, 0)" stroke-linejoin="round" stroke-linecap="round" stroke-miterlimit="10" pointer-events="all"/><path d="M 106.58 323.42 C 107.83 321.35 109.14 319.23 110.12 312.81 M 106.58 323.42 C 108.97 319.07 108.94 317.49 110.12 312.81 M 110.12 312.81 C 109.88 315.45 110.32 316.46 111.88 318.12 M 110.12 312.81 C 110.49 314.78 111.26 317.37 111.88 318.12 M 111.88 318.12 C 113.82 317.77 114.93 318.63 117.19 319.88 M 111.88 318.12 C 112.72 318.17 114.48 318.97 117.19 319.88 M 117.19 319.88 C 111.54 319.8 109.37 321.44 106.58 323.42 M 117.19 319.88 C 113.9 320.25 112.36 322.41 106.58 323.42" fill="none" stroke="rgb(0, 0, 0)" stroke-width="2" stroke-linejoin="round" stroke-linecap="round" stroke-miterlimit="10" pointer-events="all"/></g></g><g data-cell-id="ZOJEWMY2XDao8kptbQvy-24"><g><path d="M 165 125 L 165 235.26" fill="none" stroke="none" pointer-events="stroke"/><path d="M 165 242.76 L 160 232.76 L 165 235.26 L 170 232.76 Z" fill="none" stroke="none" pointer-events="all"/><path d="M 165 125 C 166.12 145.7 164.8 168.79 165 235.26 M 165 125 C 163.79 165.42 164.93 208.84 165 235.26" fill="none" stroke="rgb(0, 0, 0)" stroke-width="2" stroke-linejoin="round" stroke-linecap="round" stroke-miterlimit="10" pointer-events="stroke"/><path d="M 160.31 232.41 C 160.31 232.41 160.31 232.41 160.31 232.41 M 160.31 232.41 C 160.31 232.41 160.31 232.41 160.31 232.41 M 163.72 240.68 C 166.63 238.9 167.5 234.88 170.28 233.13 M 163.72 240.68 C 164.16 238.45 166.61 237.02 170.28 233.13" fill="none" stroke="rgb(0, 0, 0)" stroke-linejoin="round" stroke-linecap="round" stroke-miterlimit="10" pointer-events="all"/><path d="M 165 242.76 C 163.2 239.58 161.44 237.82 160 232.76 M 165 242.76 C 163.46 238.12 162.19 235.13 160 232.76 M 160 232.76 C 160.64 233.71 163.8 235.48 165 235.26 M 160 232.76 C 162.19 233.42 163.5 234.72 165 235.26 M 165 235.26 C 166.29 234.18 168.21 234.54 170 232.76 M 165 235.26 C 166.72 234.4 168.06 233.4 170 232.76 M 170 232.76 C 169.46 234.4 165.71 239.78 165 242.76 M 170 232.76 C 168.9 234.12 166.97 237.25 165 242.76" fill="none" stroke="rgb(0, 0, 0)" stroke-width="2" stroke-linejoin="round" stroke-linecap="round" stroke-miterlimit="10" pointer-events="all"/></g></g><g data-cell-id="ZOJEWMY2XDao8kptbQvy-25"><g><path d="M 60 125 L 84.16 157.21" fill="none" stroke="none" pointer-events="stroke"/><path d="M 88.66 163.21 L 78.66 158.21 L 84.16 157.21 L 86.66 152.21 Z" fill="none" stroke="none" pointer-events="all"/><path d="M 60 125 C 61.08 127.41 70.35 134.92 84.16 157.21 M 60 125 C 64.5 131.61 70.9 139.63 84.16 157.21" fill="none" stroke="rgb(0, 0, 0)" stroke-width="2" stroke-linejoin="round" stroke-linecap="round" stroke-miterlimit="10" pointer-events="stroke"/><path d="M 78.38 158.54 C 78.38 158.54 78.38 158.54 78.38 158.54 M 78.38 158.54 C 78.38 158.54 78.38 158.54 78.38 158.54 M 85.72 162.28 C 86.61 160.08 89.21 157.63 90.97 156.24 M 85.72 162.28 C 88.48 159.78 89.97 158.07 90.97 156.24" fill="none" stroke="rgb(0, 0, 0)" stroke-linejoin="round" stroke-linecap="round" stroke-miterlimit="10" pointer-events="all"/><path d="M 88.66 163.21 C 84.84 160.07 85.21 159.55 78.66 158.21 M 88.66 163.21 C 85.51 161.5 83.15 160.17 78.66 158.21 M 78.66 158.21 C 81.73 156.81 82.37 156.66 84.16 157.21 M 78.66 158.21 C 80.42 157.41 82.28 157.33 84.16 157.21 M 84.16 157.21 C 84.23 156.19 86.41 154.6 86.66 152.21 M 84.16 157.21 C 84.74 155.44 86.03 153.99 86.66 152.21 M 86.66 152.21 C 86.29 153.46 89.58 156.03 88.66 163.21 M 86.66 152.21 C 88.18 155.24 88.15 160.05 88.66 163.21" fill="none" stroke="rgb(0, 0, 0)" stroke-width="2" stroke-linejoin="round" stroke-linecap="round" stroke-miterlimit="10" pointer-events="all"/></g></g><g data-cell-id="ZOJEWMY2XDao8kptbQvy-26"><g><path d="M 150 125 L 125.84 157.21" fill="none" stroke="none" pointer-events="stroke"/><path d="M 121.34 163.21 L 123.34 152.21 L 125.84 157.21 L 131.34 158.21 Z" fill="none" stroke="none" pointer-events="all"/><path d="M 150 125 C 147.01 133.41 136.03 141.31 125.84 157.21 M 150 125 C 143.04 134.51 134.64 147.29 125.84 157.21" fill="none" stroke="rgb(0, 0, 0)" stroke-width="2" stroke-linejoin="round" stroke-linecap="round" stroke-miterlimit="10" pointer-events="stroke"/><path d="M 123.16 152.42 C 123.16 152.42 123.16 152.42 123.16 152.42 M 123.16 152.42 C 123.16 152.42 123.16 152.42 123.16 152.42 M 126.57 160.69 C 127.48 159.49 127.96 158.86 128.54 158.42 M 126.57 160.69 C 127.52 159.86 128.1 158.85 128.54 158.42" fill="none" stroke="rgb(0, 0, 0)" stroke-linejoin="round" stroke-linecap="round" stroke-miterlimit="10" pointer-events="all"/><path d="M 121.34 163.21 C 123.24 162.07 120.28 160.55 123.34 152.21 M 121.34 163.21 C 122.75 159.28 123.08 157.01 123.34 152.21 M 123.34 152.21 C 125.17 154.44 124.18 155.89 125.84 157.21 M 123.34 152.21 C 123.69 153.33 124.96 155.06 125.84 157.21 M 125.84 157.21 C 126.23 158.33 127.85 156.85 131.34 158.21 M 125.84 157.21 C 128.37 157.58 130.33 157.56 131.34 158.21 M 131.34 158.21 C 129.71 158.79 124.84 162.65 121.34 163.21 M 131.34 158.21 C 127.42 158.63 126.05 160.9 121.34 163.21" fill="none" stroke="rgb(0, 0, 0)" stroke-width="2" stroke-linejoin="round" stroke-linecap="round" stroke-miterlimit="10" pointer-events="all"/></g></g></g></g></g></svg>