<?xml version="1.0" encoding="utf-8" standalone="no"?>
<!DOCTYPE svg PUBLIC "-//W3C//DTD SVG 1.1//EN"
  "http://www.w3.org/Graphics/SVG/1.1/DTD/svg11.dtd">
<svg xmlns:xlink="http://www.w3.org/1999/xlink" width="432pt" height="360pt" viewBox="0 0 432 360" xmlns="http://www.w3.org/2000/svg" version="1.1">
 <metadata>
  <rdf:RDF xmlns:dc="http://purl.org/dc/elements/1.1/" xmlns:cc="http://creativecommons.org/ns#" xmlns:rdf="http://www.w3.org/1999/02/22-rdf-syntax-ns#">
   <cc:Work>
    <dc:type rdf:resource="http://purl.org/dc/dcmitype/StillImage"/>
    <dc:format>image/svg+xml</dc:format>
    <dc:creator>
     <cc:Agent>
      <dc:title>Gergő Pintér</dc:title>
     </cc:Agent>
    </dc:creator>
    <dc:rights>
     <cc:Agent>
      <dc:title>CC BY 4.0</dc:title>
     </cc:Agent>
    </dc:rights>
   </cc:Work>
  </rdf:RDF>
 </metadata>
 <defs>
  <style type="text/css">*{stroke-linejoin: round; stroke-linecap: butt}</style>
 </defs>
 <g id="figure_1">
  <g id="patch_1">
   <path d="M 0 360 
L 432 360 
L 432 0 
L 0 0 
L 0 360 
z
" style="fill: none"/>
  </g>
  <g id="axes_1">
   <g id="patch_2">
    <path d="M 45.815191 309.637008 
L 428.99976 309.637008 
L 428.99976 3.00024 
L 45.815191 3.00024 
L 45.815191 309.637008 
z
" style="fill: none"/>
   </g>
   <g id="patch_3">
    <path d="M 49.298687 309.637008 
L 77.166656 309.637008 
L 77.166656 222.910873 
L 49.298687 222.910873 
z
" clip-path="url(#p8c71041357)" style="fill: #f9e6d2; stroke: #d79b00; stroke-linejoin: miter"/>
   </g>
   <g id="patch_4">
    <path d="M 84.133648 309.637008 
L 112.001617 309.637008 
L 112.001617 211.339674 
L 84.133648 211.339674 
z
" clip-path="url(#p8c71041357)" style="fill: #f9e6d2; stroke: #d79b00; stroke-linejoin: miter"/>
   </g>
   <g id="patch_5">
    <path d="M 118.968609 309.637008 
L 146.836578 309.637008 
L 146.836578 200.057755 
L 118.968609 200.057755 
z
" clip-path="url(#p8c71041357)" style="fill: #f9e6d2; stroke: #d79b00; stroke-linejoin: miter"/>
   </g>
   <g id="patch_6">
    <path d="M 153.80357 309.637008 
L 181.671538 309.637008 
L 181.671538 162.682783 
L 153.80357 162.682783 
z
" clip-path="url(#p8c71041357)" style="fill: #f9e6d2; stroke: #d79b00; stroke-linejoin: miter"/>
   </g>
   <g id="patch_7">
    <path d="M 188.638531 309.637008 
L 216.506499 309.637008 
L 216.506499 146.830241 
L 188.638531 146.830241 
z
" clip-path="url(#p8c71041357)" style="fill: #f9e6d2; stroke: #d79b00; stroke-linejoin: miter"/>
   </g>
   <g id="patch_8">
    <path d="M 223.473491 309.637008 
L 251.34146 309.637008 
L 251.34146 127.564195 
L 223.473491 127.564195 
z
" clip-path="url(#p8c71041357)" style="fill: #f9e6d2; stroke: #d79b00; stroke-linejoin: miter"/>
   </g>
   <g id="patch_9">
    <path d="M 258.308452 309.637008 
L 286.176421 309.637008 
L 286.176421 112.405925 
L 258.308452 112.405925 
z
" clip-path="url(#p8c71041357)" style="fill: #f9e6d2; stroke: #d79b00; stroke-linejoin: miter"/>
   </g>
   <g id="patch_10">
    <path d="M 293.143413 309.637008 
L 321.011382 309.637008 
L 321.011382 93.718438 
L 293.143413 93.718438 
z
" clip-path="url(#p8c71041357)" style="fill: #f9e6d2; stroke: #d79b00; stroke-linejoin: miter"/>
   </g>
   <g id="patch_11">
    <path d="M 327.978374 309.637008 
L 355.846342 309.637008 
L 355.846342 84.866471 
L 327.978374 84.866471 
z
" clip-path="url(#p8c71041357)" style="fill: #f9e6d2; stroke: #d79b00; stroke-linejoin: miter"/>
   </g>
   <g id="patch_12">
    <path d="M 362.813334 309.637008 
L 390.681303 309.637008 
L 390.681303 49.690027 
L 362.813334 49.690027 
z
" clip-path="url(#p8c71041357)" style="fill: #f9e6d2; stroke: #d79b00; stroke-linejoin: miter"/>
   </g>
   <g id="patch_13">
    <path d="M 397.648295 309.637008 
L 425.516264 309.637008 
L 425.516264 30.944685 
L 397.648295 30.944685 
z
" clip-path="url(#p8c71041357)" style="fill: #f9e6d2; stroke: #d79b00; stroke-linejoin: miter"/>
   </g>
   <g id="matplotlib.axis_1">
    <g id="xtick_1">
     <g id="line2d_1">
      <defs>
       <path id="mbcb02aef95" d="M 0 0 
L 0 3.5 
" style="stroke: #000000; stroke-width: 0.8"/>
      </defs>
      <g>
       <use xlink:href="#mbcb02aef95" x="63.232672" y="309.637008" style="stroke: #000000; stroke-width: 0.8"/>
      </g>
     </g>
     <g id="text_1">
      <!-- 2015-01-13 -->
      <g transform="translate(6.799678 355.198698) rotate(-30) scale(0.1 -0.1)">
       <defs>
        <path id="DejaVuSans-Bold-32" d="M 1844 884 
L 3897 884 
L 3897 0 
L 506 0 
L 506 884 
L 2209 2388 
Q 2438 2594 2547 2791 
Q 2656 2988 2656 3200 
Q 2656 3528 2436 3728 
Q 2216 3928 1850 3928 
Q 1569 3928 1234 3808 
Q 900 3688 519 3450 
L 519 4475 
Q 925 4609 1322 4679 
Q 1719 4750 2100 4750 
Q 2938 4750 3402 4381 
Q 3866 4013 3866 3353 
Q 3866 2972 3669 2642 
Q 3472 2313 2841 1759 
L 1844 884 
z
" transform="scale(0.015625)"/>
        <path id="DejaVuSans-Bold-30" d="M 2944 2338 
Q 2944 3213 2780 3570 
Q 2616 3928 2228 3928 
Q 1841 3928 1675 3570 
Q 1509 3213 1509 2338 
Q 1509 1453 1675 1090 
Q 1841 728 2228 728 
Q 2613 728 2778 1090 
Q 2944 1453 2944 2338 
z
M 4147 2328 
Q 4147 1169 3647 539 
Q 3147 -91 2228 -91 
Q 1306 -91 806 539 
Q 306 1169 306 2328 
Q 306 3491 806 4120 
Q 1306 4750 2228 4750 
Q 3147 4750 3647 4120 
Q 4147 3491 4147 2328 
z
" transform="scale(0.015625)"/>
        <path id="DejaVuSans-Bold-31" d="M 750 831 
L 1813 831 
L 1813 3847 
L 722 3622 
L 722 4441 
L 1806 4666 
L 2950 4666 
L 2950 831 
L 4013 831 
L 4013 0 
L 750 0 
L 750 831 
z
" transform="scale(0.015625)"/>
        <path id="DejaVuSans-Bold-35" d="M 678 4666 
L 3669 4666 
L 3669 3781 
L 1638 3781 
L 1638 3059 
Q 1775 3097 1914 3117 
Q 2053 3138 2203 3138 
Q 3056 3138 3531 2711 
Q 4006 2284 4006 1522 
Q 4006 766 3489 337 
Q 2972 -91 2053 -91 
Q 1656 -91 1267 -14 
Q 878 63 494 219 
L 494 1166 
Q 875 947 1217 837 
Q 1559 728 1863 728 
Q 2300 728 2551 942 
Q 2803 1156 2803 1522 
Q 2803 1891 2551 2103 
Q 2300 2316 1863 2316 
Q 1603 2316 1309 2248 
Q 1016 2181 678 2041 
L 678 4666 
z
" transform="scale(0.015625)"/>
        <path id="DejaVuSans-Bold-2d" d="M 347 2297 
L 2309 2297 
L 2309 1388 
L 347 1388 
L 347 2297 
z
" transform="scale(0.015625)"/>
        <path id="DejaVuSans-Bold-33" d="M 2981 2516 
Q 3453 2394 3698 2092 
Q 3944 1791 3944 1325 
Q 3944 631 3412 270 
Q 2881 -91 1863 -91 
Q 1503 -91 1142 -33 
Q 781 25 428 141 
L 428 1069 
Q 766 900 1098 814 
Q 1431 728 1753 728 
Q 2231 728 2486 893 
Q 2741 1059 2741 1369 
Q 2741 1688 2480 1852 
Q 2219 2016 1709 2016 
L 1228 2016 
L 1228 2791 
L 1734 2791 
Q 2188 2791 2409 2933 
Q 2631 3075 2631 3366 
Q 2631 3634 2415 3781 
Q 2200 3928 1806 3928 
Q 1516 3928 1219 3862 
Q 922 3797 628 3669 
L 628 4550 
Q 984 4650 1334 4700 
Q 1684 4750 2022 4750 
Q 2931 4750 3382 4451 
Q 3834 4153 3834 3553 
Q 3834 3144 3618 2883 
Q 3403 2622 2981 2516 
z
" transform="scale(0.015625)"/>
       </defs>
       <use xlink:href="#DejaVuSans-Bold-32"/>
       <use xlink:href="#DejaVuSans-Bold-30" transform="translate(69.580078 0)"/>
       <use xlink:href="#DejaVuSans-Bold-31" transform="translate(139.160156 0)"/>
       <use xlink:href="#DejaVuSans-Bold-35" transform="translate(208.740234 0)"/>
       <use xlink:href="#DejaVuSans-Bold-2d" transform="translate(278.320312 0)"/>
       <use xlink:href="#DejaVuSans-Bold-30" transform="translate(319.824219 0)"/>
       <use xlink:href="#DejaVuSans-Bold-31" transform="translate(389.404297 0)"/>
       <use xlink:href="#DejaVuSans-Bold-2d" transform="translate(458.984375 0)"/>
       <use xlink:href="#DejaVuSans-Bold-31" transform="translate(500.488281 0)"/>
       <use xlink:href="#DejaVuSans-Bold-33" transform="translate(570.068359 0)"/>
      </g>
     </g>
    </g>
    <g id="xtick_2">
     <g id="line2d_2">
      <g>
       <use xlink:href="#mbcb02aef95" x="98.067632" y="309.637008" style="stroke: #000000; stroke-width: 0.8"/>
      </g>
     </g>
     <g id="text_2">
      <!-- 2016-01-26 -->
      <g transform="translate(41.634639 355.198698) rotate(-30) scale(0.1 -0.1)">
       <defs>
        <path id="DejaVuSans-Bold-36" d="M 2316 2303 
Q 2000 2303 1842 2098 
Q 1684 1894 1684 1484 
Q 1684 1075 1842 870 
Q 2000 666 2316 666 
Q 2634 666 2792 870 
Q 2950 1075 2950 1484 
Q 2950 1894 2792 2098 
Q 2634 2303 2316 2303 
z
M 3803 4544 
L 3803 3681 
Q 3506 3822 3243 3889 
Q 2981 3956 2731 3956 
Q 2194 3956 1894 3657 
Q 1594 3359 1544 2772 
Q 1750 2925 1990 3001 
Q 2231 3078 2516 3078 
Q 3231 3078 3670 2659 
Q 4109 2241 4109 1563 
Q 4109 813 3618 361 
Q 3128 -91 2303 -91 
Q 1394 -91 895 523 
Q 397 1138 397 2266 
Q 397 3422 980 4083 
Q 1563 4744 2578 4744 
Q 2900 4744 3203 4694 
Q 3506 4644 3803 4544 
z
" transform="scale(0.015625)"/>
       </defs>
       <use xlink:href="#DejaVuSans-Bold-32"/>
       <use xlink:href="#DejaVuSans-Bold-30" transform="translate(69.580078 0)"/>
       <use xlink:href="#DejaVuSans-Bold-31" transform="translate(139.160156 0)"/>
       <use xlink:href="#DejaVuSans-Bold-36" transform="translate(208.740234 0)"/>
       <use xlink:href="#DejaVuSans-Bold-2d" transform="translate(278.320312 0)"/>
       <use xlink:href="#DejaVuSans-Bold-30" transform="translate(319.824219 0)"/>
       <use xlink:href="#DejaVuSans-Bold-31" transform="translate(389.404297 0)"/>
       <use xlink:href="#DejaVuSans-Bold-2d" transform="translate(458.984375 0)"/>
       <use xlink:href="#DejaVuSans-Bold-32" transform="translate(500.488281 0)"/>
       <use xlink:href="#DejaVuSans-Bold-36" transform="translate(570.068359 0)"/>
      </g>
     </g>
    </g>
    <g id="xtick_3">
     <g id="line2d_3">
      <g>
       <use xlink:href="#mbcb02aef95" x="132.902593" y="309.637008" style="stroke: #000000; stroke-width: 0.8"/>
      </g>
     </g>
     <g id="text_3">
      <!-- 2017-01-24 -->
      <g transform="translate(76.4696 355.198698) rotate(-30) scale(0.1 -0.1)">
       <defs>
        <path id="DejaVuSans-Bold-37" d="M 428 4666 
L 3944 4666 
L 3944 3988 
L 2125 0 
L 953 0 
L 2675 3781 
L 428 3781 
L 428 4666 
z
" transform="scale(0.015625)"/>
        <path id="DejaVuSans-Bold-34" d="M 2356 3675 
L 1038 1722 
L 2356 1722 
L 2356 3675 
z
M 2156 4666 
L 3494 4666 
L 3494 1722 
L 4159 1722 
L 4159 850 
L 3494 850 
L 3494 0 
L 2356 0 
L 2356 850 
L 288 850 
L 288 1881 
L 2156 4666 
z
" transform="scale(0.015625)"/>
       </defs>
       <use xlink:href="#DejaVuSans-Bold-32"/>
       <use xlink:href="#DejaVuSans-Bold-30" transform="translate(69.580078 0)"/>
       <use xlink:href="#DejaVuSans-Bold-31" transform="translate(139.160156 0)"/>
       <use xlink:href="#DejaVuSans-Bold-37" transform="translate(208.740234 0)"/>
       <use xlink:href="#DejaVuSans-Bold-2d" transform="translate(278.320312 0)"/>
       <use xlink:href="#DejaVuSans-Bold-30" transform="translate(319.824219 0)"/>
       <use xlink:href="#DejaVuSans-Bold-31" transform="translate(389.404297 0)"/>
       <use xlink:href="#DejaVuSans-Bold-2d" transform="translate(458.984375 0)"/>
       <use xlink:href="#DejaVuSans-Bold-32" transform="translate(500.488281 0)"/>
       <use xlink:href="#DejaVuSans-Bold-34" transform="translate(570.068359 0)"/>
      </g>
     </g>
    </g>
    <g id="xtick_4">
     <g id="line2d_4">
      <g>
       <use xlink:href="#mbcb02aef95" x="167.737554" y="309.637008" style="stroke: #000000; stroke-width: 0.8"/>
      </g>
     </g>
     <g id="text_4">
      <!-- 2018-01-23 -->
      <g transform="translate(111.30456 355.198698) rotate(-30) scale(0.1 -0.1)">
       <defs>
        <path id="DejaVuSans-Bold-38" d="M 2228 2088 
Q 1891 2088 1709 1903 
Q 1528 1719 1528 1375 
Q 1528 1031 1709 848 
Q 1891 666 2228 666 
Q 2563 666 2741 848 
Q 2919 1031 2919 1375 
Q 2919 1722 2741 1905 
Q 2563 2088 2228 2088 
z
M 1350 2484 
Q 925 2613 709 2878 
Q 494 3144 494 3541 
Q 494 4131 934 4440 
Q 1375 4750 2228 4750 
Q 3075 4750 3515 4442 
Q 3956 4134 3956 3541 
Q 3956 3144 3739 2878 
Q 3522 2613 3097 2484 
Q 3572 2353 3814 2058 
Q 4056 1763 4056 1313 
Q 4056 619 3595 264 
Q 3134 -91 2228 -91 
Q 1319 -91 855 264 
Q 391 619 391 1313 
Q 391 1763 633 2058 
Q 875 2353 1350 2484 
z
M 1631 3419 
Q 1631 3141 1786 2991 
Q 1941 2841 2228 2841 
Q 2509 2841 2662 2991 
Q 2816 3141 2816 3419 
Q 2816 3697 2662 3845 
Q 2509 3994 2228 3994 
Q 1941 3994 1786 3844 
Q 1631 3694 1631 3419 
z
" transform="scale(0.015625)"/>
       </defs>
       <use xlink:href="#DejaVuSans-Bold-32"/>
       <use xlink:href="#DejaVuSans-Bold-30" transform="translate(69.580078 0)"/>
       <use xlink:href="#DejaVuSans-Bold-31" transform="translate(139.160156 0)"/>
       <use xlink:href="#DejaVuSans-Bold-38" transform="translate(208.740234 0)"/>
       <use xlink:href="#DejaVuSans-Bold-2d" transform="translate(278.320312 0)"/>
       <use xlink:href="#DejaVuSans-Bold-30" transform="translate(319.824219 0)"/>
       <use xlink:href="#DejaVuSans-Bold-31" transform="translate(389.404297 0)"/>
       <use xlink:href="#DejaVuSans-Bold-2d" transform="translate(458.984375 0)"/>
       <use xlink:href="#DejaVuSans-Bold-32" transform="translate(500.488281 0)"/>
       <use xlink:href="#DejaVuSans-Bold-33" transform="translate(570.068359 0)"/>
      </g>
     </g>
    </g>
    <g id="xtick_5">
     <g id="line2d_5">
      <g>
       <use xlink:href="#mbcb02aef95" x="202.572515" y="309.637008" style="stroke: #000000; stroke-width: 0.8"/>
      </g>
     </g>
     <g id="text_5">
      <!-- 2019-10-29 -->
      <g transform="translate(146.139521 355.198698) rotate(-30) scale(0.1 -0.1)">
       <defs>
        <path id="DejaVuSans-Bold-39" d="M 641 103 
L 641 966 
Q 928 831 1190 764 
Q 1453 697 1709 697 
Q 2247 697 2547 995 
Q 2847 1294 2900 1881 
Q 2688 1725 2447 1647 
Q 2206 1569 1925 1569 
Q 1209 1569 770 1986 
Q 331 2403 331 3084 
Q 331 3838 820 4291 
Q 1309 4744 2131 4744 
Q 3044 4744 3544 4128 
Q 4044 3513 4044 2388 
Q 4044 1231 3459 570 
Q 2875 -91 1856 -91 
Q 1528 -91 1228 -42 
Q 928 6 641 103 
z
M 2125 2350 
Q 2441 2350 2600 2554 
Q 2759 2759 2759 3169 
Q 2759 3575 2600 3781 
Q 2441 3988 2125 3988 
Q 1809 3988 1650 3781 
Q 1491 3575 1491 3169 
Q 1491 2759 1650 2554 
Q 1809 2350 2125 2350 
z
" transform="scale(0.015625)"/>
       </defs>
       <use xlink:href="#DejaVuSans-Bold-32"/>
       <use xlink:href="#DejaVuSans-Bold-30" transform="translate(69.580078 0)"/>
       <use xlink:href="#DejaVuSans-Bold-31" transform="translate(139.160156 0)"/>
       <use xlink:href="#DejaVuSans-Bold-39" transform="translate(208.740234 0)"/>
       <use xlink:href="#DejaVuSans-Bold-2d" transform="translate(278.320312 0)"/>
       <use xlink:href="#DejaVuSans-Bold-31" transform="translate(319.824219 0)"/>
       <use xlink:href="#DejaVuSans-Bold-30" transform="translate(389.404297 0)"/>
       <use xlink:href="#DejaVuSans-Bold-2d" transform="translate(458.984375 0)"/>
       <use xlink:href="#DejaVuSans-Bold-32" transform="translate(500.488281 0)"/>
       <use xlink:href="#DejaVuSans-Bold-39" transform="translate(570.068359 0)"/>
      </g>
     </g>
    </g>
    <g id="xtick_6">
     <g id="line2d_6">
      <g>
       <use xlink:href="#mbcb02aef95" x="237.407476" y="309.637008" style="stroke: #000000; stroke-width: 0.8"/>
      </g>
     </g>
     <g id="text_6">
      <!-- 2020-01-07 -->
      <g transform="translate(180.974482 355.198698) rotate(-30) scale(0.1 -0.1)">
       <use xlink:href="#DejaVuSans-Bold-32"/>
       <use xlink:href="#DejaVuSans-Bold-30" transform="translate(69.580078 0)"/>
       <use xlink:href="#DejaVuSans-Bold-32" transform="translate(139.160156 0)"/>
       <use xlink:href="#DejaVuSans-Bold-30" transform="translate(208.740234 0)"/>
       <use xlink:href="#DejaVuSans-Bold-2d" transform="translate(278.320312 0)"/>
       <use xlink:href="#DejaVuSans-Bold-30" transform="translate(319.824219 0)"/>
       <use xlink:href="#DejaVuSans-Bold-31" transform="translate(389.404297 0)"/>
       <use xlink:href="#DejaVuSans-Bold-2d" transform="translate(458.984375 0)"/>
       <use xlink:href="#DejaVuSans-Bold-30" transform="translate(500.488281 0)"/>
       <use xlink:href="#DejaVuSans-Bold-37" transform="translate(570.068359 0)"/>
      </g>
     </g>
    </g>
    <g id="xtick_7">
     <g id="line2d_7">
      <g>
       <use xlink:href="#mbcb02aef95" x="272.242436" y="309.637008" style="stroke: #000000; stroke-width: 0.8"/>
      </g>
     </g>
     <g id="text_7">
      <!-- 2021-01-26 -->
      <g transform="translate(215.809443 355.198698) rotate(-30) scale(0.1 -0.1)">
       <use xlink:href="#DejaVuSans-Bold-32"/>
       <use xlink:href="#DejaVuSans-Bold-30" transform="translate(69.580078 0)"/>
       <use xlink:href="#DejaVuSans-Bold-32" transform="translate(139.160156 0)"/>
       <use xlink:href="#DejaVuSans-Bold-31" transform="translate(208.740234 0)"/>
       <use xlink:href="#DejaVuSans-Bold-2d" transform="translate(278.320312 0)"/>
       <use xlink:href="#DejaVuSans-Bold-30" transform="translate(319.824219 0)"/>
       <use xlink:href="#DejaVuSans-Bold-31" transform="translate(389.404297 0)"/>
       <use xlink:href="#DejaVuSans-Bold-2d" transform="translate(458.984375 0)"/>
       <use xlink:href="#DejaVuSans-Bold-32" transform="translate(500.488281 0)"/>
       <use xlink:href="#DejaVuSans-Bold-36" transform="translate(570.068359 0)"/>
      </g>
     </g>
    </g>
    <g id="xtick_8">
     <g id="line2d_8">
      <g>
       <use xlink:href="#mbcb02aef95" x="307.077397" y="309.637008" style="stroke: #000000; stroke-width: 0.8"/>
      </g>
     </g>
     <g id="text_8">
      <!-- 2022-01-11 -->
      <g transform="translate(250.644404 355.198698) rotate(-30) scale(0.1 -0.1)">
       <use xlink:href="#DejaVuSans-Bold-32"/>
       <use xlink:href="#DejaVuSans-Bold-30" transform="translate(69.580078 0)"/>
       <use xlink:href="#DejaVuSans-Bold-32" transform="translate(139.160156 0)"/>
       <use xlink:href="#DejaVuSans-Bold-32" transform="translate(208.740234 0)"/>
       <use xlink:href="#DejaVuSans-Bold-2d" transform="translate(278.320312 0)"/>
       <use xlink:href="#DejaVuSans-Bold-30" transform="translate(319.824219 0)"/>
       <use xlink:href="#DejaVuSans-Bold-31" transform="translate(389.404297 0)"/>
       <use xlink:href="#DejaVuSans-Bold-2d" transform="translate(458.984375 0)"/>
       <use xlink:href="#DejaVuSans-Bold-31" transform="translate(500.488281 0)"/>
       <use xlink:href="#DejaVuSans-Bold-31" transform="translate(570.068359 0)"/>
      </g>
     </g>
    </g>
    <g id="xtick_9">
     <g id="line2d_9">
      <g>
       <use xlink:href="#mbcb02aef95" x="341.912358" y="309.637008" style="stroke: #000000; stroke-width: 0.8"/>
      </g>
     </g>
     <g id="text_9">
      <!-- 2023-01-17 -->
      <g transform="translate(285.479364 355.198698) rotate(-30) scale(0.1 -0.1)">
       <use xlink:href="#DejaVuSans-Bold-32"/>
       <use xlink:href="#DejaVuSans-Bold-30" transform="translate(69.580078 0)"/>
       <use xlink:href="#DejaVuSans-Bold-32" transform="translate(139.160156 0)"/>
       <use xlink:href="#DejaVuSans-Bold-33" transform="translate(208.740234 0)"/>
       <use xlink:href="#DejaVuSans-Bold-2d" transform="translate(278.320312 0)"/>
       <use xlink:href="#DejaVuSans-Bold-30" transform="translate(319.824219 0)"/>
       <use xlink:href="#DejaVuSans-Bold-31" transform="translate(389.404297 0)"/>
       <use xlink:href="#DejaVuSans-Bold-2d" transform="translate(458.984375 0)"/>
       <use xlink:href="#DejaVuSans-Bold-31" transform="translate(500.488281 0)"/>
       <use xlink:href="#DejaVuSans-Bold-37" transform="translate(570.068359 0)"/>
      </g>
     </g>
    </g>
    <g id="xtick_10">
     <g id="line2d_10">
      <g>
       <use xlink:href="#mbcb02aef95" x="376.747319" y="309.637008" style="stroke: #000000; stroke-width: 0.8"/>
      </g>
     </g>
     <g id="text_10">
      <!-- 2024-01-23 -->
      <g transform="translate(320.314325 355.198698) rotate(-30) scale(0.1 -0.1)">
       <use xlink:href="#DejaVuSans-Bold-32"/>
       <use xlink:href="#DejaVuSans-Bold-30" transform="translate(69.580078 0)"/>
       <use xlink:href="#DejaVuSans-Bold-32" transform="translate(139.160156 0)"/>
       <use xlink:href="#DejaVuSans-Bold-34" transform="translate(208.740234 0)"/>
       <use xlink:href="#DejaVuSans-Bold-2d" transform="translate(278.320312 0)"/>
       <use xlink:href="#DejaVuSans-Bold-30" transform="translate(319.824219 0)"/>
       <use xlink:href="#DejaVuSans-Bold-31" transform="translate(389.404297 0)"/>
       <use xlink:href="#DejaVuSans-Bold-2d" transform="translate(458.984375 0)"/>
       <use xlink:href="#DejaVuSans-Bold-32" transform="translate(500.488281 0)"/>
       <use xlink:href="#DejaVuSans-Bold-33" transform="translate(570.068359 0)"/>
      </g>
     </g>
    </g>
    <g id="xtick_11">
     <g id="line2d_11">
      <g>
       <use xlink:href="#mbcb02aef95" x="411.58228" y="309.637008" style="stroke: #000000; stroke-width: 0.8"/>
      </g>
     </g>
     <g id="text_11">
      <!-- 2025-01-07 -->
      <g transform="translate(355.149286 355.198698) rotate(-30) scale(0.1 -0.1)">
       <use xlink:href="#DejaVuSans-Bold-32"/>
       <use xlink:href="#DejaVuSans-Bold-30" transform="translate(69.580078 0)"/>
       <use xlink:href="#DejaVuSans-Bold-32" transform="translate(139.160156 0)"/>
       <use xlink:href="#DejaVuSans-Bold-35" transform="translate(208.740234 0)"/>
       <use xlink:href="#DejaVuSans-Bold-2d" transform="translate(278.320312 0)"/>
       <use xlink:href="#DejaVuSans-Bold-30" transform="translate(319.824219 0)"/>
       <use xlink:href="#DejaVuSans-Bold-31" transform="translate(389.404297 0)"/>
       <use xlink:href="#DejaVuSans-Bold-2d" transform="translate(458.984375 0)"/>
       <use xlink:href="#DejaVuSans-Bold-30" transform="translate(500.488281 0)"/>
       <use xlink:href="#DejaVuSans-Bold-37" transform="translate(570.068359 0)"/>
      </g>
     </g>
    </g>
   </g>
   <g id="matplotlib.axis_2">
    <g id="ytick_1">
     <g id="line2d_12">
      <defs>
       <path id="me5179b328b" d="M 0 0 
L -3.5 0 
" style="stroke: #000000; stroke-width: 0.8"/>
      </defs>
      <g>
       <use xlink:href="#me5179b328b" x="45.815191" y="309.637008" style="stroke: #000000; stroke-width: 0.8"/>
      </g>
     </g>
     <g id="text_12">
      <!-- 0 -->
      <g transform="translate(31.857379 313.436227) scale(0.1 -0.1)">
       <use xlink:href="#DejaVuSans-Bold-30"/>
      </g>
     </g>
    </g>
    <g id="ytick_2">
     <g id="line2d_13">
      <g>
       <use xlink:href="#me5179b328b" x="45.815191" y="251.781014" style="stroke: #000000; stroke-width: 0.8"/>
      </g>
     </g>
     <g id="text_13">
      <!-- 10 -->
      <g transform="translate(24.899566 255.580233) scale(0.1 -0.1)">
       <use xlink:href="#DejaVuSans-Bold-31"/>
       <use xlink:href="#DejaVuSans-Bold-30" transform="translate(69.580078 0)"/>
      </g>
     </g>
    </g>
    <g id="ytick_3">
     <g id="line2d_14">
      <g>
       <use xlink:href="#me5179b328b" x="45.815191" y="193.92502" style="stroke: #000000; stroke-width: 0.8"/>
      </g>
     </g>
     <g id="text_14">
      <!-- 20 -->
      <g transform="translate(24.899566 197.724239) scale(0.1 -0.1)">
       <use xlink:href="#DejaVuSans-Bold-32"/>
       <use xlink:href="#DejaVuSans-Bold-30" transform="translate(69.580078 0)"/>
      </g>
     </g>
    </g>
    <g id="ytick_4">
     <g id="line2d_15">
      <g>
       <use xlink:href="#me5179b328b" x="45.815191" y="136.069026" style="stroke: #000000; stroke-width: 0.8"/>
      </g>
     </g>
     <g id="text_15">
      <!-- 30 -->
      <g transform="translate(24.899566 139.868245) scale(0.1 -0.1)">
       <use xlink:href="#DejaVuSans-Bold-33"/>
       <use xlink:href="#DejaVuSans-Bold-30" transform="translate(69.580078 0)"/>
      </g>
     </g>
    </g>
    <g id="ytick_5">
     <g id="line2d_16">
      <g>
       <use xlink:href="#me5179b328b" x="45.815191" y="78.213032" style="stroke: #000000; stroke-width: 0.8"/>
      </g>
     </g>
     <g id="text_16">
      <!-- 40 -->
      <g transform="translate(24.899566 82.012251) scale(0.1 -0.1)">
       <use xlink:href="#DejaVuSans-Bold-34"/>
       <use xlink:href="#DejaVuSans-Bold-30" transform="translate(69.580078 0)"/>
      </g>
     </g>
    </g>
    <g id="ytick_6">
     <g id="line2d_17">
      <g>
       <use xlink:href="#me5179b328b" x="45.815191" y="20.357038" style="stroke: #000000; stroke-width: 0.8"/>
      </g>
     </g>
     <g id="text_17">
      <!-- 50 -->
      <g transform="translate(24.899566 24.156257) scale(0.1 -0.1)">
       <use xlink:href="#DejaVuSans-Bold-35"/>
       <use xlink:href="#DejaVuSans-Bold-30" transform="translate(69.580078 0)"/>
      </g>
     </g>
    </g>
    <g id="text_18">
     <!-- million lines of code -->
     <g transform="translate(17.988004 235.582686) rotate(-90) scale(0.14 -0.14)">
      <defs>
       <path id="DejaVuSans-Bold-6d" d="M 3781 2919 
Q 3994 3244 4286 3414 
Q 4578 3584 4928 3584 
Q 5531 3584 5847 3212 
Q 6163 2841 6163 2131 
L 6163 0 
L 5038 0 
L 5038 1825 
Q 5041 1866 5042 1909 
Q 5044 1953 5044 2034 
Q 5044 2406 4934 2573 
Q 4825 2741 4581 2741 
Q 4263 2741 4089 2478 
Q 3916 2216 3909 1719 
L 3909 0 
L 2784 0 
L 2784 1825 
Q 2784 2406 2684 2573 
Q 2584 2741 2328 2741 
Q 2006 2741 1831 2477 
Q 1656 2213 1656 1722 
L 1656 0 
L 531 0 
L 531 3500 
L 1656 3500 
L 1656 2988 
Q 1863 3284 2130 3434 
Q 2397 3584 2719 3584 
Q 3081 3584 3359 3409 
Q 3638 3234 3781 2919 
z
" transform="scale(0.015625)"/>
       <path id="DejaVuSans-Bold-69" d="M 538 3500 
L 1656 3500 
L 1656 0 
L 538 0 
L 538 3500 
z
M 538 4863 
L 1656 4863 
L 1656 3950 
L 538 3950 
L 538 4863 
z
" transform="scale(0.015625)"/>
       <path id="DejaVuSans-Bold-6c" d="M 538 4863 
L 1656 4863 
L 1656 0 
L 538 0 
L 538 4863 
z
" transform="scale(0.015625)"/>
       <path id="DejaVuSans-Bold-6f" d="M 2203 2784 
Q 1831 2784 1636 2517 
Q 1441 2250 1441 1747 
Q 1441 1244 1636 976 
Q 1831 709 2203 709 
Q 2569 709 2762 976 
Q 2956 1244 2956 1747 
Q 2956 2250 2762 2517 
Q 2569 2784 2203 2784 
z
M 2203 3584 
Q 3106 3584 3614 3096 
Q 4122 2609 4122 1747 
Q 4122 884 3614 396 
Q 3106 -91 2203 -91 
Q 1297 -91 786 396 
Q 275 884 275 1747 
Q 275 2609 786 3096 
Q 1297 3584 2203 3584 
z
" transform="scale(0.015625)"/>
       <path id="DejaVuSans-Bold-6e" d="M 4056 2131 
L 4056 0 
L 2931 0 
L 2931 347 
L 2931 1631 
Q 2931 2084 2911 2256 
Q 2891 2428 2841 2509 
Q 2775 2619 2662 2680 
Q 2550 2741 2406 2741 
Q 2056 2741 1856 2470 
Q 1656 2200 1656 1722 
L 1656 0 
L 538 0 
L 538 3500 
L 1656 3500 
L 1656 2988 
Q 1909 3294 2193 3439 
Q 2478 3584 2822 3584 
Q 3428 3584 3742 3212 
Q 4056 2841 4056 2131 
z
" transform="scale(0.015625)"/>
       <path id="DejaVuSans-Bold-20" transform="scale(0.015625)"/>
       <path id="DejaVuSans-Bold-65" d="M 4031 1759 
L 4031 1441 
L 1416 1441 
Q 1456 1047 1700 850 
Q 1944 653 2381 653 
Q 2734 653 3104 758 
Q 3475 863 3866 1075 
L 3866 213 
Q 3469 63 3072 -14 
Q 2675 -91 2278 -91 
Q 1328 -91 801 392 
Q 275 875 275 1747 
Q 275 2603 792 3093 
Q 1309 3584 2216 3584 
Q 3041 3584 3536 3087 
Q 4031 2591 4031 1759 
z
M 2881 2131 
Q 2881 2450 2695 2645 
Q 2509 2841 2209 2841 
Q 1884 2841 1681 2658 
Q 1478 2475 1428 2131 
L 2881 2131 
z
" transform="scale(0.015625)"/>
       <path id="DejaVuSans-Bold-73" d="M 3272 3391 
L 3272 2541 
Q 2913 2691 2578 2766 
Q 2244 2841 1947 2841 
Q 1628 2841 1473 2761 
Q 1319 2681 1319 2516 
Q 1319 2381 1436 2309 
Q 1553 2238 1856 2203 
L 2053 2175 
Q 2913 2066 3209 1816 
Q 3506 1566 3506 1031 
Q 3506 472 3093 190 
Q 2681 -91 1863 -91 
Q 1516 -91 1145 -36 
Q 775 19 384 128 
L 384 978 
Q 719 816 1070 734 
Q 1422 653 1784 653 
Q 2113 653 2278 743 
Q 2444 834 2444 1013 
Q 2444 1163 2330 1236 
Q 2216 1309 1875 1350 
L 1678 1375 
Q 931 1469 631 1722 
Q 331 1975 331 2491 
Q 331 3047 712 3315 
Q 1094 3584 1881 3584 
Q 2191 3584 2531 3537 
Q 2872 3491 3272 3391 
z
" transform="scale(0.015625)"/>
       <path id="DejaVuSans-Bold-66" d="M 2841 4863 
L 2841 4128 
L 2222 4128 
Q 1984 4128 1890 4042 
Q 1797 3956 1797 3744 
L 1797 3500 
L 2753 3500 
L 2753 2700 
L 1797 2700 
L 1797 0 
L 678 0 
L 678 2700 
L 122 2700 
L 122 3500 
L 678 3500 
L 678 3744 
Q 678 4316 997 4589 
Q 1316 4863 1984 4863 
L 2841 4863 
z
" transform="scale(0.015625)"/>
       <path id="DejaVuSans-Bold-63" d="M 3366 3391 
L 3366 2478 
Q 3138 2634 2908 2709 
Q 2678 2784 2431 2784 
Q 1963 2784 1702 2511 
Q 1441 2238 1441 1747 
Q 1441 1256 1702 982 
Q 1963 709 2431 709 
Q 2694 709 2930 787 
Q 3166 866 3366 1019 
L 3366 103 
Q 3103 6 2833 -42 
Q 2563 -91 2291 -91 
Q 1344 -91 809 395 
Q 275 881 275 1747 
Q 275 2613 809 3098 
Q 1344 3584 2291 3584 
Q 2566 3584 2833 3536 
Q 3100 3488 3366 3391 
z
" transform="scale(0.015625)"/>
       <path id="DejaVuSans-Bold-64" d="M 2919 2988 
L 2919 4863 
L 4044 4863 
L 4044 0 
L 2919 0 
L 2919 506 
Q 2688 197 2409 53 
Q 2131 -91 1766 -91 
Q 1119 -91 703 423 
Q 288 938 288 1747 
Q 288 2556 703 3070 
Q 1119 3584 1766 3584 
Q 2128 3584 2408 3439 
Q 2688 3294 2919 2988 
z
M 2181 722 
Q 2541 722 2730 984 
Q 2919 1247 2919 1747 
Q 2919 2247 2730 2509 
Q 2541 2772 2181 2772 
Q 1825 2772 1636 2509 
Q 1447 2247 1447 1747 
Q 1447 1247 1636 984 
Q 1825 722 2181 722 
z
" transform="scale(0.015625)"/>
      </defs>
      <use xlink:href="#DejaVuSans-Bold-6d"/>
      <use xlink:href="#DejaVuSans-Bold-69" transform="translate(104.199219 0)"/>
      <use xlink:href="#DejaVuSans-Bold-6c" transform="translate(138.476562 0)"/>
      <use xlink:href="#DejaVuSans-Bold-6c" transform="translate(172.753906 0)"/>
      <use xlink:href="#DejaVuSans-Bold-69" transform="translate(207.03125 0)"/>
      <use xlink:href="#DejaVuSans-Bold-6f" transform="translate(241.308594 0)"/>
      <use xlink:href="#DejaVuSans-Bold-6e" transform="translate(310.009766 0)"/>
      <use xlink:href="#DejaVuSans-Bold-20" transform="translate(381.201172 0)"/>
      <use xlink:href="#DejaVuSans-Bold-6c" transform="translate(416.015625 0)"/>
      <use xlink:href="#DejaVuSans-Bold-69" transform="translate(450.292969 0)"/>
      <use xlink:href="#DejaVuSans-Bold-6e" transform="translate(484.570312 0)"/>
      <use xlink:href="#DejaVuSans-Bold-65" transform="translate(555.761719 0)"/>
      <use xlink:href="#DejaVuSans-Bold-73" transform="translate(623.583984 0)"/>
      <use xlink:href="#DejaVuSans-Bold-20" transform="translate(683.105469 0)"/>
      <use xlink:href="#DejaVuSans-Bold-6f" transform="translate(717.919922 0)"/>
      <use xlink:href="#DejaVuSans-Bold-66" transform="translate(786.621094 0)"/>
      <use xlink:href="#DejaVuSans-Bold-20" transform="translate(830.126953 0)"/>
      <use xlink:href="#DejaVuSans-Bold-63" transform="translate(864.941406 0)"/>
      <use xlink:href="#DejaVuSans-Bold-6f" transform="translate(924.21875 0)"/>
      <use xlink:href="#DejaVuSans-Bold-64" transform="translate(992.919922 0)"/>
      <use xlink:href="#DejaVuSans-Bold-65" transform="translate(1064.501953 0)"/>
     </g>
    </g>
   </g>
   <g id="line2d_18">
    <path clip-path="url(#p8c71041357)" style="fill: none; stroke: #424242; stroke-width: 2.25; stroke-linecap: square"/>
   </g>
   <g id="line2d_19">
    <path clip-path="url(#p8c71041357)" style="fill: none; stroke: #424242; stroke-width: 2.25; stroke-linecap: square"/>
   </g>
   <g id="line2d_20">
    <path clip-path="url(#p8c71041357)" style="fill: none; stroke: #424242; stroke-width: 2.25; stroke-linecap: square"/>
   </g>
   <g id="line2d_21">
    <path clip-path="url(#p8c71041357)" style="fill: none; stroke: #424242; stroke-width: 2.25; stroke-linecap: square"/>
   </g>
   <g id="line2d_22">
    <path clip-path="url(#p8c71041357)" style="fill: none; stroke: #424242; stroke-width: 2.25; stroke-linecap: square"/>
   </g>
   <g id="line2d_23">
    <path clip-path="url(#p8c71041357)" style="fill: none; stroke: #424242; stroke-width: 2.25; stroke-linecap: square"/>
   </g>
   <g id="line2d_24">
    <path clip-path="url(#p8c71041357)" style="fill: none; stroke: #424242; stroke-width: 2.25; stroke-linecap: square"/>
   </g>
   <g id="line2d_25">
    <path clip-path="url(#p8c71041357)" style="fill: none; stroke: #424242; stroke-width: 2.25; stroke-linecap: square"/>
   </g>
   <g id="line2d_26">
    <path clip-path="url(#p8c71041357)" style="fill: none; stroke: #424242; stroke-width: 2.25; stroke-linecap: square"/>
   </g>
   <g id="line2d_27">
    <path clip-path="url(#p8c71041357)" style="fill: none; stroke: #424242; stroke-width: 2.25; stroke-linecap: square"/>
   </g>
   <g id="line2d_28">
    <path clip-path="url(#p8c71041357)" style="fill: none; stroke: #424242; stroke-width: 2.25; stroke-linecap: square"/>
   </g>
   <g id="patch_14">
    <path d="M 45.815191 309.637008 
L 45.815191 3.00024 
" style="fill: none; stroke: #000000; stroke-width: 0.8; stroke-linejoin: miter; stroke-linecap: square"/>
   </g>
   <g id="patch_15">
    <path d="M 428.99976 309.637008 
L 428.99976 3.00024 
" style="fill: none; stroke: #000000; stroke-width: 0.8; stroke-linejoin: miter; stroke-linecap: square"/>
   </g>
   <g id="patch_16">
    <path d="M 45.815191 309.637008 
L 428.99976 309.637008 
" style="fill: none; stroke: #000000; stroke-width: 0.8; stroke-linejoin: miter; stroke-linecap: square"/>
   </g>
   <g id="patch_17">
    <path d="M 45.815191 3.00024 
L 428.99976 3.00024 
" style="fill: none; stroke: #000000; stroke-width: 0.8; stroke-linejoin: miter; stroke-linecap: square"/>
   </g>
   <g id="text_19">
    <!-- Firefox 35 -->
    <g style="fill: #d79b00" transform="translate(66.543922 298.065809) rotate(-90) scale(0.12 -0.12)">
     <defs>
      <path id="DejaVuSans-Bold-46" d="M 588 4666 
L 3834 4666 
L 3834 3756 
L 1791 3756 
L 1791 2888 
L 3713 2888 
L 3713 1978 
L 1791 1978 
L 1791 0 
L 588 0 
L 588 4666 
z
" transform="scale(0.015625)"/>
      <path id="DejaVuSans-Bold-72" d="M 3138 2547 
Q 2991 2616 2845 2648 
Q 2700 2681 2553 2681 
Q 2122 2681 1889 2404 
Q 1656 2128 1656 1613 
L 1656 0 
L 538 0 
L 538 3500 
L 1656 3500 
L 1656 2925 
Q 1872 3269 2151 3426 
Q 2431 3584 2822 3584 
Q 2878 3584 2943 3579 
Q 3009 3575 3134 3559 
L 3138 2547 
z
" transform="scale(0.015625)"/>
      <path id="DejaVuSans-Bold-78" d="M 1422 1791 
L 159 3500 
L 1344 3500 
L 2059 2463 
L 2784 3500 
L 3969 3500 
L 2706 1797 
L 4031 0 
L 2847 0 
L 2059 1106 
L 1281 0 
L 97 0 
L 1422 1791 
z
" transform="scale(0.015625)"/>
     </defs>
     <use xlink:href="#DejaVuSans-Bold-46"/>
     <use xlink:href="#DejaVuSans-Bold-69" transform="translate(68.310547 0)"/>
     <use xlink:href="#DejaVuSans-Bold-72" transform="translate(102.587891 0)"/>
     <use xlink:href="#DejaVuSans-Bold-65" transform="translate(151.904297 0)"/>
     <use xlink:href="#DejaVuSans-Bold-66" transform="translate(219.726562 0)"/>
     <use xlink:href="#DejaVuSans-Bold-6f" transform="translate(263.232422 0)"/>
     <use xlink:href="#DejaVuSans-Bold-78" transform="translate(331.933594 0)"/>
     <use xlink:href="#DejaVuSans-Bold-20" transform="translate(396.435547 0)"/>
     <use xlink:href="#DejaVuSans-Bold-33" transform="translate(431.25 0)"/>
     <use xlink:href="#DejaVuSans-Bold-35" transform="translate(500.830078 0)"/>
    </g>
   </g>
   <g id="text_20">
    <!-- Firefox 44 -->
    <g style="fill: #d79b00" transform="translate(101.378882 298.065809) rotate(-90) scale(0.12 -0.12)">
     <use xlink:href="#DejaVuSans-Bold-46"/>
     <use xlink:href="#DejaVuSans-Bold-69" transform="translate(68.310547 0)"/>
     <use xlink:href="#DejaVuSans-Bold-72" transform="translate(102.587891 0)"/>
     <use xlink:href="#DejaVuSans-Bold-65" transform="translate(151.904297 0)"/>
     <use xlink:href="#DejaVuSans-Bold-66" transform="translate(219.726562 0)"/>
     <use xlink:href="#DejaVuSans-Bold-6f" transform="translate(263.232422 0)"/>
     <use xlink:href="#DejaVuSans-Bold-78" transform="translate(331.933594 0)"/>
     <use xlink:href="#DejaVuSans-Bold-20" transform="translate(396.435547 0)"/>
     <use xlink:href="#DejaVuSans-Bold-34" transform="translate(431.25 0)"/>
     <use xlink:href="#DejaVuSans-Bold-34" transform="translate(500.830078 0)"/>
    </g>
   </g>
   <g id="text_21">
    <!-- Firefox 51 -->
    <g style="fill: #d79b00" transform="translate(136.213843 298.065809) rotate(-90) scale(0.12 -0.12)">
     <use xlink:href="#DejaVuSans-Bold-46"/>
     <use xlink:href="#DejaVuSans-Bold-69" transform="translate(68.310547 0)"/>
     <use xlink:href="#DejaVuSans-Bold-72" transform="translate(102.587891 0)"/>
     <use xlink:href="#DejaVuSans-Bold-65" transform="translate(151.904297 0)"/>
     <use xlink:href="#DejaVuSans-Bold-66" transform="translate(219.726562 0)"/>
     <use xlink:href="#DejaVuSans-Bold-6f" transform="translate(263.232422 0)"/>
     <use xlink:href="#DejaVuSans-Bold-78" transform="translate(331.933594 0)"/>
     <use xlink:href="#DejaVuSans-Bold-20" transform="translate(396.435547 0)"/>
     <use xlink:href="#DejaVuSans-Bold-35" transform="translate(431.25 0)"/>
     <use xlink:href="#DejaVuSans-Bold-31" transform="translate(500.830078 0)"/>
    </g>
   </g>
   <g id="text_22">
    <!-- Firefox 58 -->
    <g style="fill: #d79b00" transform="translate(171.048804 298.065809) rotate(-90) scale(0.12 -0.12)">
     <use xlink:href="#DejaVuSans-Bold-46"/>
     <use xlink:href="#DejaVuSans-Bold-69" transform="translate(68.310547 0)"/>
     <use xlink:href="#DejaVuSans-Bold-72" transform="translate(102.587891 0)"/>
     <use xlink:href="#DejaVuSans-Bold-65" transform="translate(151.904297 0)"/>
     <use xlink:href="#DejaVuSans-Bold-66" transform="translate(219.726562 0)"/>
     <use xlink:href="#DejaVuSans-Bold-6f" transform="translate(263.232422 0)"/>
     <use xlink:href="#DejaVuSans-Bold-78" transform="translate(331.933594 0)"/>
     <use xlink:href="#DejaVuSans-Bold-20" transform="translate(396.435547 0)"/>
     <use xlink:href="#DejaVuSans-Bold-35" transform="translate(431.25 0)"/>
     <use xlink:href="#DejaVuSans-Bold-38" transform="translate(500.830078 0)"/>
    </g>
   </g>
   <g id="text_23">
    <!-- Firefox 65 -->
    <g style="fill: #d79b00" transform="translate(205.883765 298.065809) rotate(-90) scale(0.12 -0.12)">
     <use xlink:href="#DejaVuSans-Bold-46"/>
     <use xlink:href="#DejaVuSans-Bold-69" transform="translate(68.310547 0)"/>
     <use xlink:href="#DejaVuSans-Bold-72" transform="translate(102.587891 0)"/>
     <use xlink:href="#DejaVuSans-Bold-65" transform="translate(151.904297 0)"/>
     <use xlink:href="#DejaVuSans-Bold-66" transform="translate(219.726562 0)"/>
     <use xlink:href="#DejaVuSans-Bold-6f" transform="translate(263.232422 0)"/>
     <use xlink:href="#DejaVuSans-Bold-78" transform="translate(331.933594 0)"/>
     <use xlink:href="#DejaVuSans-Bold-20" transform="translate(396.435547 0)"/>
     <use xlink:href="#DejaVuSans-Bold-36" transform="translate(431.25 0)"/>
     <use xlink:href="#DejaVuSans-Bold-35" transform="translate(500.830078 0)"/>
    </g>
   </g>
   <g id="text_24">
    <!-- Firefox 72 -->
    <g style="fill: #d79b00" transform="translate(240.718726 298.065809) rotate(-90) scale(0.12 -0.12)">
     <use xlink:href="#DejaVuSans-Bold-46"/>
     <use xlink:href="#DejaVuSans-Bold-69" transform="translate(68.310547 0)"/>
     <use xlink:href="#DejaVuSans-Bold-72" transform="translate(102.587891 0)"/>
     <use xlink:href="#DejaVuSans-Bold-65" transform="translate(151.904297 0)"/>
     <use xlink:href="#DejaVuSans-Bold-66" transform="translate(219.726562 0)"/>
     <use xlink:href="#DejaVuSans-Bold-6f" transform="translate(263.232422 0)"/>
     <use xlink:href="#DejaVuSans-Bold-78" transform="translate(331.933594 0)"/>
     <use xlink:href="#DejaVuSans-Bold-20" transform="translate(396.435547 0)"/>
     <use xlink:href="#DejaVuSans-Bold-37" transform="translate(431.25 0)"/>
     <use xlink:href="#DejaVuSans-Bold-32" transform="translate(500.830078 0)"/>
    </g>
   </g>
   <g id="text_25">
    <!-- Firefox 85 -->
    <g style="fill: #d79b00" transform="translate(275.553686 298.065809) rotate(-90) scale(0.12 -0.12)">
     <use xlink:href="#DejaVuSans-Bold-46"/>
     <use xlink:href="#DejaVuSans-Bold-69" transform="translate(68.310547 0)"/>
     <use xlink:href="#DejaVuSans-Bold-72" transform="translate(102.587891 0)"/>
     <use xlink:href="#DejaVuSans-Bold-65" transform="translate(151.904297 0)"/>
     <use xlink:href="#DejaVuSans-Bold-66" transform="translate(219.726562 0)"/>
     <use xlink:href="#DejaVuSans-Bold-6f" transform="translate(263.232422 0)"/>
     <use xlink:href="#DejaVuSans-Bold-78" transform="translate(331.933594 0)"/>
     <use xlink:href="#DejaVuSans-Bold-20" transform="translate(396.435547 0)"/>
     <use xlink:href="#DejaVuSans-Bold-38" transform="translate(431.25 0)"/>
     <use xlink:href="#DejaVuSans-Bold-35" transform="translate(500.830078 0)"/>
    </g>
   </g>
   <g id="text_26">
    <!-- Firefox 96 -->
    <g style="fill: #d79b00" transform="translate(310.388647 298.065809) rotate(-90) scale(0.12 -0.12)">
     <use xlink:href="#DejaVuSans-Bold-46"/>
     <use xlink:href="#DejaVuSans-Bold-69" transform="translate(68.310547 0)"/>
     <use xlink:href="#DejaVuSans-Bold-72" transform="translate(102.587891 0)"/>
     <use xlink:href="#DejaVuSans-Bold-65" transform="translate(151.904297 0)"/>
     <use xlink:href="#DejaVuSans-Bold-66" transform="translate(219.726562 0)"/>
     <use xlink:href="#DejaVuSans-Bold-6f" transform="translate(263.232422 0)"/>
     <use xlink:href="#DejaVuSans-Bold-78" transform="translate(331.933594 0)"/>
     <use xlink:href="#DejaVuSans-Bold-20" transform="translate(396.435547 0)"/>
     <use xlink:href="#DejaVuSans-Bold-39" transform="translate(431.25 0)"/>
     <use xlink:href="#DejaVuSans-Bold-36" transform="translate(500.830078 0)"/>
    </g>
   </g>
   <g id="text_27">
    <!-- Firefox 109 -->
    <g style="fill: #d79b00" transform="translate(345.223608 298.065809) rotate(-90) scale(0.12 -0.12)">
     <use xlink:href="#DejaVuSans-Bold-46"/>
     <use xlink:href="#DejaVuSans-Bold-69" transform="translate(68.310547 0)"/>
     <use xlink:href="#DejaVuSans-Bold-72" transform="translate(102.587891 0)"/>
     <use xlink:href="#DejaVuSans-Bold-65" transform="translate(151.904297 0)"/>
     <use xlink:href="#DejaVuSans-Bold-66" transform="translate(219.726562 0)"/>
     <use xlink:href="#DejaVuSans-Bold-6f" transform="translate(263.232422 0)"/>
     <use xlink:href="#DejaVuSans-Bold-78" transform="translate(331.933594 0)"/>
     <use xlink:href="#DejaVuSans-Bold-20" transform="translate(396.435547 0)"/>
     <use xlink:href="#DejaVuSans-Bold-31" transform="translate(431.25 0)"/>
     <use xlink:href="#DejaVuSans-Bold-30" transform="translate(500.830078 0)"/>
     <use xlink:href="#DejaVuSans-Bold-39" transform="translate(570.410156 0)"/>
    </g>
   </g>
   <g id="text_28">
    <!-- Firefox 122 -->
    <g style="fill: #d79b00" transform="translate(380.058569 298.065809) rotate(-90) scale(0.12 -0.12)">
     <use xlink:href="#DejaVuSans-Bold-46"/>
     <use xlink:href="#DejaVuSans-Bold-69" transform="translate(68.310547 0)"/>
     <use xlink:href="#DejaVuSans-Bold-72" transform="translate(102.587891 0)"/>
     <use xlink:href="#DejaVuSans-Bold-65" transform="translate(151.904297 0)"/>
     <use xlink:href="#DejaVuSans-Bold-66" transform="translate(219.726562 0)"/>
     <use xlink:href="#DejaVuSans-Bold-6f" transform="translate(263.232422 0)"/>
     <use xlink:href="#DejaVuSans-Bold-78" transform="translate(331.933594 0)"/>
     <use xlink:href="#DejaVuSans-Bold-20" transform="translate(396.435547 0)"/>
     <use xlink:href="#DejaVuSans-Bold-31" transform="translate(431.25 0)"/>
     <use xlink:href="#DejaVuSans-Bold-32" transform="translate(500.830078 0)"/>
     <use xlink:href="#DejaVuSans-Bold-32" transform="translate(570.410156 0)"/>
    </g>
   </g>
   <g id="text_29">
    <!-- Firefox 134 -->
    <g style="fill: #d79b00" transform="translate(414.89353 298.065809) rotate(-90) scale(0.12 -0.12)">
     <use xlink:href="#DejaVuSans-Bold-46"/>
     <use xlink:href="#DejaVuSans-Bold-69" transform="translate(68.310547 0)"/>
     <use xlink:href="#DejaVuSans-Bold-72" transform="translate(102.587891 0)"/>
     <use xlink:href="#DejaVuSans-Bold-65" transform="translate(151.904297 0)"/>
     <use xlink:href="#DejaVuSans-Bold-66" transform="translate(219.726562 0)"/>
     <use xlink:href="#DejaVuSans-Bold-6f" transform="translate(263.232422 0)"/>
     <use xlink:href="#DejaVuSans-Bold-78" transform="translate(331.933594 0)"/>
     <use xlink:href="#DejaVuSans-Bold-20" transform="translate(396.435547 0)"/>
     <use xlink:href="#DejaVuSans-Bold-31" transform="translate(431.25 0)"/>
     <use xlink:href="#DejaVuSans-Bold-33" transform="translate(500.830078 0)"/>
     <use xlink:href="#DejaVuSans-Bold-34" transform="translate(570.410156 0)"/>
    </g>
   </g>
  </g>
 </g>
 <defs>
  <clipPath id="p8c71041357">
   <rect x="45.815191" y="3.00024" width="383.184569" height="306.636768"/>
  </clipPath>
 </defs>
</svg>
