<svg xmlns="http://www.w3.org/2000/svg" xmlns:xlink="http://www.w3.org/1999/xlink" contentStyleType="text/css" data-diagram-type="SALT" height="414px" preserveAspectRatio="none" style="width:420px;height:414px;background:#FFFFFF;" version="1.1" viewBox="0 0 420 414" width="420px" zoomAndPan="magnify"><defs/><g><text fill="#000000" font-family="sans-serif" font-size="24" lengthAdjust="spacing" textLength="90.5526" x="32" y="37.6562">a_paper</text><text fill="#000000" font-family="sans-serif" font-size="24" lengthAdjust="spacing" textLength="148.129" x="52" y="70.3444">article-bu.tex</text><path d="M299.2735,57.3765 L293.2735,63.4365 L299.2735,69.3765 L299.2735,65.3765 L309.2735,65.3765 L309.2735,61.3765 L299.2735,61.3765 L299.2735,57.3765" fill="#8B0000"/><text fill="#8B0000" font-family="sans-serif" font-size="24" lengthAdjust="spacing" textLength="88.8727" x="317.5135" y="70.3444">revision</text><text fill="#000000" font-family="sans-serif" font-size="24" lengthAdjust="spacing" textLength="172.5132" x="52" y="103.0326">article-bu_1.tex</text><path d="M299.2735,90.0647 L293.2735,96.1247 L299.2735,102.0647 L299.2735,98.0647 L309.2735,98.0647 L309.2735,94.0647 L299.2735,94.0647 L299.2735,90.0647" fill="#8B0000"/><text fill="#8B0000" font-family="sans-serif" font-size="24" lengthAdjust="spacing" textLength="88.8727" x="317.5135" y="103.0326">revision</text><text fill="#000000" font-family="sans-serif" font-size="24" lengthAdjust="spacing" textLength="172.5132" x="52" y="135.7209">article-bu_2.tex</text><path d="M299.2735,122.7529 L293.2735,128.8129 L299.2735,134.7529 L299.2735,130.7529 L309.2735,130.7529 L309.2735,126.7529 L299.2735,126.7529 L299.2735,122.7529" fill="#8B0000"/><text fill="#8B0000" font-family="sans-serif" font-size="24" lengthAdjust="spacing" textLength="88.8727" x="317.5135" y="135.7209">revision</text><text fill="#000000" font-family="sans-serif" font-size="24" lengthAdjust="spacing" textLength="110.8088" x="52" y="168.4091">article.tex</text><path d="M299.2735,155.4411 L293.2735,161.5011 L299.2735,167.4411 L299.2735,163.4411 L309.2735,163.4411 L309.2735,159.4411 L299.2735,159.4411 L299.2735,155.4411" fill="#8B0000"/><text fill="#8B0000" font-family="sans-serif" font-size="24" lengthAdjust="spacing" textLength="88.8727" x="317.5135" y="168.4091">revision</text><text fill="#000000" font-family="sans-serif" font-size="24" lengthAdjust="spacing" textLength="121.5609" x="52" y="201.0973">final_proof</text><text fill="#000000" font-family="sans-serif" font-size="24" lengthAdjust="spacing" textLength="110.8088" x="72" y="233.7856">article.tex</text><path d="M299.2735,220.8176 L293.2735,226.8776 L299.2735,232.8176 L299.2735,228.8176 L309.2735,228.8176 L309.2735,224.8176 L299.2735,224.8176 L299.2735,220.8176" fill="#8B0000"/><text fill="#8B0000" font-family="sans-serif" font-size="24" lengthAdjust="spacing" textLength="48.9363" x="317.5135" y="233.7856">final</text><text fill="#000000" font-family="sans-serif" font-size="24" lengthAdjust="spacing" textLength="104.0888" x="52" y="266.4738">response</text><text fill="#000000" font-family="sans-serif" font-size="24" lengthAdjust="spacing" textLength="110.8088" x="72" y="299.162">article.tex</text><path d="M299.2735,286.1941 L293.2735,292.2541 L299.2735,298.1941 L299.2735,294.1941 L309.2735,294.1941 L309.2735,290.1941 L299.2735,290.1941 L299.2735,286.1941" fill="#8B0000"/><text fill="#8B0000" font-family="sans-serif" font-size="24" lengthAdjust="spacing" textLength="88.8727" x="317.5135" y="299.162">revision</text><text fill="#000000" font-family="sans-serif" font-size="24" lengthAdjust="spacing" textLength="199.2735" x="72" y="331.8502">refs_response.tex</text><text fill="#000000" font-family="sans-serif" font-size="24" lengthAdjust="spacing" textLength="115.3448" x="52" y="364.5385">submitted</text><text fill="#000000" font-family="sans-serif" font-size="24" lengthAdjust="spacing" textLength="110.8088" x="72" y="397.2267">article.tex</text><path d="M299.2735,384.2587 L293.2735,390.3187 L299.2735,396.2587 L299.2735,392.2587 L309.2735,392.2587 L309.2735,388.2587 L299.2735,388.2587 L299.2735,384.2587" fill="#8B0000"/><text fill="#8B0000" font-family="sans-serif" font-size="24" lengthAdjust="spacing" textLength="88.8727" x="317.5135" y="397.2267">revision</text><rect fill="none" height="4" style="stroke:#888888;stroke-width:2;" width="4" x="18" y="26.3441"/><line style="stroke:#888888;stroke-width:2;" x1="20" x2="20" y1="32.3441" y2="61.0323"/><line style="stroke:#888888;stroke-width:2;" x1="20" x2="36" y1="61.0323" y2="61.0323"/><line style="stroke:#888888;stroke-width:2;" x1="20" x2="20" y1="32.3441" y2="93.7206"/><line style="stroke:#888888;stroke-width:2;" x1="20" x2="36" y1="93.7206" y2="93.7206"/><line style="stroke:#888888;stroke-width:2;" x1="20" x2="20" y1="32.3441" y2="126.4088"/><line style="stroke:#888888;stroke-width:2;" x1="20" x2="36" y1="126.4088" y2="126.4088"/><line style="stroke:#888888;stroke-width:2;" x1="20" x2="20" y1="32.3441" y2="159.097"/><line style="stroke:#888888;stroke-width:2;" x1="20" x2="36" y1="159.097" y2="159.097"/><rect fill="none" height="4" style="stroke:#888888;stroke-width:2;" width="4" x="38" y="189.7853"/><line style="stroke:#888888;stroke-width:2;" x1="20" x2="20" y1="32.3441" y2="191.7853"/><line style="stroke:#888888;stroke-width:2;" x1="20" x2="36" y1="191.7853" y2="191.7853"/><line style="stroke:#888888;stroke-width:2;" x1="40" x2="40" y1="195.7853" y2="224.4735"/><line style="stroke:#888888;stroke-width:2;" x1="40" x2="56" y1="224.4735" y2="224.4735"/><rect fill="none" height="4" style="stroke:#888888;stroke-width:2;" width="4" x="38" y="255.1617"/><line style="stroke:#888888;stroke-width:2;" x1="20" x2="20" y1="32.3441" y2="257.1617"/><line style="stroke:#888888;stroke-width:2;" x1="20" x2="36" y1="257.1617" y2="257.1617"/><line style="stroke:#888888;stroke-width:2;" x1="40" x2="40" y1="261.1617" y2="289.8499"/><line style="stroke:#888888;stroke-width:2;" x1="40" x2="56" y1="289.8499" y2="289.8499"/><line style="stroke:#888888;stroke-width:2;" x1="40" x2="40" y1="261.1617" y2="322.5382"/><line style="stroke:#888888;stroke-width:2;" x1="40" x2="56" y1="322.5382" y2="322.5382"/><rect fill="none" height="4" style="stroke:#888888;stroke-width:2;" width="4" x="38" y="353.2264"/><line style="stroke:#888888;stroke-width:2;" x1="20" x2="20" y1="32.3441" y2="355.2264"/><line style="stroke:#888888;stroke-width:2;" x1="20" x2="36" y1="355.2264" y2="355.2264"/><line style="stroke:#888888;stroke-width:2;" x1="40" x2="40" y1="359.2264" y2="387.9146"/><line style="stroke:#888888;stroke-width:2;" x1="40" x2="56" y1="387.9146" y2="387.9146"/><!--SRC=[hT9VJy8m403mztwAUp8GCm8J32w4404r2978dzUbR3Te6ErolQ86_Uvk69GO7upOlbnxxU-kIJkM9R6LAOkTi95C4Noncmeu1nbcCaFAmpmcLb6Ati9L69_XOxn2ApAfeI2Mj2QCswqpIMIUF5wfQEsbc70R2BVAAgE_CM7j4pg9yKzdZbxq9oPHMgPXHiOanVfdzrViNjgRX3OpskA9u76V1PhOy20NsBwKTOkDOiRulsgzvRE3Ejv_AZ5EfURPQ0XRf28DjOfVzHkLUcaY6GPEWz-4saLGlGhy1dJxaoaK-R8etOw7O8sZ225Mbaaj7ET0MGpaLiAZqwms6C13XdhGkpziG5zl5HczGSrYC1zz7RYiUzUAOOAKjmBpaUXX8btA-Ot8n4el0vXDRxoc64gzT7APsoidkYPtwIM0kzax]--></g></svg>