<?xml version="1.0" encoding="UTF-8"?>
<!-- Do not edit this file with editors other than draw.io -->
<!DOCTYPE svg PUBLIC "-//W3C//DTD SVG 1.1//EN" "http://www.w3.org/Graphics/SVG/1.1/DTD/svg11.dtd">
<svg xmlns="http://www.w3.org/2000/svg" xmlns:xlink="http://www.w3.org/1999/xlink" version="1.1" width="191px" height="131px" viewBox="-0.5 -0.5 191 131" content="&lt;mxfile host=&quot;app.diagrams.net&quot; agent=&quot;Mozilla/5.0 (X11; Linux x86_64; rv:132.0) Gecko/20100101 Firefox/132.0&quot; version=&quot;24.8.3&quot; scale=&quot;1&quot; border=&quot;0&quot;&gt;&#xA;  &lt;diagram name=&quot;Page-1&quot; id=&quot;qIdY9pvf5zlWm0eAaJN6&quot;&gt;&#xA;    &lt;mxGraphModel dx=&quot;1114&quot; dy=&quot;566&quot; grid=&quot;1&quot; gridSize=&quot;10&quot; guides=&quot;1&quot; tooltips=&quot;1&quot; connect=&quot;1&quot; arrows=&quot;1&quot; fold=&quot;1&quot; page=&quot;1&quot; pageScale=&quot;1&quot; pageWidth=&quot;600&quot; pageHeight=&quot;550&quot; math=&quot;0&quot; shadow=&quot;0&quot;&gt;&#xA;      &lt;root&gt;&#xA;        &lt;mxCell id=&quot;0&quot; /&gt;&#xA;        &lt;mxCell id=&quot;1&quot; parent=&quot;0&quot; /&gt;&#xA;        &lt;mxCell id=&quot;aG5Ked05QZWab-5_Jlmf-1&quot; value=&quot;&quot; style=&quot;rounded=0;whiteSpace=wrap;html=1;sketch=1;curveFitting=1;jiggle=2;fillColor=#ffcc99;strokeColor=#36393d;fillStyle=solid;&quot; vertex=&quot;1&quot; parent=&quot;1&quot;&gt;&#xA;          &lt;mxGeometry x=&quot;240&quot; y=&quot;170&quot; width=&quot;120&quot; height=&quot;20&quot; as=&quot;geometry&quot; /&gt;&#xA;        &lt;/mxCell&gt;&#xA;        &lt;mxCell id=&quot;aG5Ked05QZWab-5_Jlmf-2&quot; value=&quot;&quot; style=&quot;rounded=0;whiteSpace=wrap;html=1;sketch=1;curveFitting=1;jiggle=2;fillColor=#ffcc99;strokeColor=#36393d;fillStyle=solid;&quot; vertex=&quot;1&quot; parent=&quot;1&quot;&gt;&#xA;          &lt;mxGeometry x=&quot;240&quot; y=&quot;210&quot; width=&quot;120&quot; height=&quot;20&quot; as=&quot;geometry&quot; /&gt;&#xA;        &lt;/mxCell&gt;&#xA;        &lt;mxCell id=&quot;aG5Ked05QZWab-5_Jlmf-4&quot; value=&quot;&quot; style=&quot;ellipse;whiteSpace=wrap;html=1;aspect=fixed;sketch=1;curveFitting=1;jiggle=2;fillColor=#ffcc99;strokeColor=#36393d;fillStyle=solid;&quot; vertex=&quot;1&quot; parent=&quot;1&quot;&gt;&#xA;          &lt;mxGeometry x=&quot;170&quot; y=&quot;250&quot; width=&quot;20&quot; height=&quot;20&quot; as=&quot;geometry&quot; /&gt;&#xA;        &lt;/mxCell&gt;&#xA;        &lt;mxCell id=&quot;aG5Ked05QZWab-5_Jlmf-5&quot; value=&quot;&quot; style=&quot;verticalLabelPosition=middle;verticalAlign=middle;html=1;shape=trapezoid;perimeter=trapezoidPerimeter;whiteSpace=wrap;size=0.23;arcSize=10;flipV=1;labelPosition=center;align=center;sketch=1;curveFitting=1;jiggle=2;fillColor=#ffcc99;strokeColor=#36393d;fillStyle=solid;&quot; vertex=&quot;1&quot; parent=&quot;1&quot;&gt;&#xA;          &lt;mxGeometry x=&quot;170&quot; y=&quot;140&quot; width=&quot;20&quot; height=&quot;100&quot; as=&quot;geometry&quot; /&gt;&#xA;        &lt;/mxCell&gt;&#xA;      &lt;/root&gt;&#xA;    &lt;/mxGraphModel&gt;&#xA;  &lt;/diagram&gt;&#xA;&lt;/mxfile&gt;&#xA;"><defs/><g><g data-cell-id="0"><g data-cell-id="1"><g data-cell-id="aG5Ked05QZWab-5_Jlmf-1"><g><rect x="70" y="30" width="120" height="20" fill="none" stroke="none" pointer-events="all"/><path d="M 72.64 31.94 L 191.87 28.19 L 188.71 49.62 L 67.04 51.82" fill="#ffcc99" stroke="none" pointer-events="all"/><path d="M 70 30 C 106.9 30.3 154.08 28.75 190 30 M 70 30 C 99.65 25.74 129.5 26.83 190 30 M 190 30 C 188.96 31.93 187.59 42.06 190 50 M 190 30 C 188.63 34.28 187.84 37.53 190 50 M 190 50 C 148.1 54.41 111.75 51.54 70 50 M 190 50 C 149.09 47.68 110.69 47.34 70 50 M 70 50 C 68.34 46.11 70.11 41.76 70 30 M 70 50 C 71.43 42.47 71.04 40.25 70 30" fill="none" stroke="#36393d" stroke-linejoin="round" stroke-linecap="round" stroke-miterlimit="10" pointer-events="all"/></g></g><g data-cell-id="aG5Ked05QZWab-5_Jlmf-2"><g><rect x="70" y="70" width="120" height="20" fill="none" stroke="none" pointer-events="all"/><path d="M 67.69 68.4 L 192.1 71.61 L 192.36 86.67 L 66.22 87.79" fill="#ffcc99" stroke="none" pointer-events="all"/><path d="M 70 70 C 112.61 65.34 149.45 72.19 190 70 M 70 70 C 106.68 69.52 148.32 69.05 190 70 M 190 70 C 188.73 76.98 193.08 85.14 190 90 M 190 70 C 191.15 77.32 188.16 83.64 190 90 M 190 90 C 151.49 89.11 123.72 89.23 70 90 M 190 90 C 146.67 88.44 101.4 89.87 70 90 M 70 90 C 72.84 87.26 67.67 79.7 70 70 M 70 90 C 69.13 83.28 69.07 81.71 70 70" fill="none" stroke="#36393d" stroke-linejoin="round" stroke-linecap="round" stroke-miterlimit="10" pointer-events="all"/></g></g><g data-cell-id="aG5Ked05QZWab-5_Jlmf-4"><g><ellipse cx="10" cy="120" rx="10" ry="10" fill="transparent" stroke="none" pointer-events="all"/><path d="M 12.89 112 C 14.58 112.55 15.65 113.88 16.99 115.93 C 18.32 117.99 21.25 122.34 20.9 124.34 C 20.55 126.34 16.89 126.92 14.89 127.94 C 12.89 128.96 11.21 130.86 8.92 130.47 C 6.63 130.09 2.67 127.52 1.14 125.64 C -0.38 123.77 -0.54 120.81 -0.22 119.23 C 0.1 117.65 2.05 117.88 3.07 116.15 C 4.08 114.43 3.31 108.8 5.88 108.85 C 8.46 108.9 16.45 113.93 18.5 116.45 C 20.56 118.97 18.12 123.81 18.23 123.98 M 16.27 113.02 C 17.82 115.25 21.92 121.05 21.86 123.58 C 21.8 126.1 17.55 127.06 15.92 128.17 C 14.29 129.28 14.37 130.65 12.07 130.25 C 9.78 129.85 4.27 126.85 2.14 125.77 C 0.01 124.69 -0.38 125.58 -0.72 123.78 C -1.06 121.98 -0.74 117.53 0.12 114.98 C 0.97 112.42 1.97 109.08 4.41 108.43 C 6.85 107.78 12.79 109.72 14.75 111.08 C 16.71 112.45 15.73 115.83 16.15 116.64 C 16.57 117.45 17.33 116.34 17.26 115.93" fill="#ffcc99" stroke="none" pointer-events="all"/><path d="M 10.99 110.75 C 13.47 110.77 17.84 110.9 19.24 112.5 C 20.64 114.11 19.7 117.77 19.41 120.36 C 19.12 122.96 18.98 126.37 17.5 128.08 C 16.03 129.79 12.91 130.42 10.57 130.63 C 8.24 130.85 5.42 130.74 3.48 129.38 C 1.55 128.01 -0.69 124.64 -1.04 122.43 C -1.39 120.23 0.69 118.28 1.4 116.16 C 2.12 114.03 1.48 110.77 3.25 109.66 C 5.03 108.56 10.05 109.47 12.05 109.51 C 14.04 109.55 14.76 109.77 15.24 109.88 M 14.71 110.05 C 16.16 110.82 17.91 114.56 18.27 116.78 C 18.64 119.01 17 121.18 16.92 123.4 C 16.84 125.61 19.3 129.37 17.81 130.05 C 16.31 130.74 10.29 128.48 7.95 127.5 C 5.61 126.52 4.9 125.19 3.76 124.18 C 2.61 123.17 1.62 123.01 1.07 121.44 C 0.52 119.86 -0.41 116.76 0.44 114.71 C 1.29 112.66 3.35 109.24 6.15 109.12 C 8.96 109 16.28 113.51 17.27 113.99 C 18.26 114.47 12.05 112.37 12.08 111.99" fill="none" stroke="#36393d" stroke-linejoin="round" stroke-linecap="round" stroke-miterlimit="10" pointer-events="all"/></g></g><g data-cell-id="aG5Ked05QZWab-5_Jlmf-5"><g><path d="M 0 100 L 4.6 0 L 15.4 0 L 20 100 Z" fill="none" stroke="none" transform="translate(0,50)scale(1,-1)translate(0,-50)" pointer-events="all"/><path d="M 0 100 C 4.05 69.02 5.23 48.14 4.6 0 C 5.41 0.95 11.75 0.38 15.4 0 C 14.36 39.59 12.54 72.9 20 100 C 15.83 98.18 9.71 98.52 0 100" fill="#ffcc99" stroke="none" transform="translate(0,50)scale(1,-1)translate(0,-50)" pointer-events="all"/><path d="M 0 100 C 5.79 65.07 4.89 31.59 4.6 0 M 0 100 C 2.03 66.21 4.17 31.37 4.6 0 M 4.6 0 C 4.89 -1.19 10.23 -0.17 15.4 0 M 4.6 0 C 8.42 -0.94 10.97 -0.29 15.4 0 M 15.4 0 C 19.62 41.35 16.53 72.16 20 100 M 15.4 0 C 19.44 29.72 18.42 58.04 20 100 M 20 100 C 17.49 101.64 10.81 101.19 0 100 M 20 100 C 12.84 101.48 7.93 99.72 0 100" fill="none" stroke="#36393d" stroke-linejoin="round" stroke-linecap="round" stroke-miterlimit="10" transform="translate(0,50)scale(1,-1)translate(0,-50)" pointer-events="all"/></g></g></g></g></g></svg>