<?xml version="1.0" encoding="UTF-8"?>
<!-- Do not edit this file with editors other than draw.io -->
<!DOCTYPE svg PUBLIC "-//W3C//DTD SVG 1.1//EN" "http://www.w3.org/Graphics/SVG/1.1/DTD/svg11.dtd">
<svg xmlns="http://www.w3.org/2000/svg" xmlns:xlink="http://www.w3.org/1999/xlink" version="1.1" width="241px" height="281px" viewBox="-0.5 -0.5 241 281" content="&lt;mxfile host=&quot;app.diagrams.net&quot; agent=&quot;Mozilla/5.0 (X11; Linux x86_64; rv:131.0) Gecko/20100101 Firefox/131.0&quot; version=&quot;24.8.0&quot; scale=&quot;1&quot; border=&quot;0&quot;&gt;&#xA;  &lt;diagram name=&quot;Page-1&quot; id=&quot;gZUrUOS7k_miWmcZq_Cw&quot;&gt;&#xA;    &lt;mxGraphModel dx=&quot;1114&quot; dy=&quot;566&quot; grid=&quot;1&quot; gridSize=&quot;10&quot; guides=&quot;1&quot; tooltips=&quot;1&quot; connect=&quot;1&quot; arrows=&quot;1&quot; fold=&quot;1&quot; page=&quot;1&quot; pageScale=&quot;1&quot; pageWidth=&quot;600&quot; pageHeight=&quot;550&quot; math=&quot;0&quot; shadow=&quot;0&quot;&gt;&#xA;      &lt;root&gt;&#xA;        &lt;mxCell id=&quot;0&quot; /&gt;&#xA;        &lt;mxCell id=&quot;1&quot; parent=&quot;0&quot; /&gt;&#xA;        &lt;mxCell id=&quot;Fe5Hhg4mf-TjiMpwq18P-1&quot; value=&quot;&quot; style=&quot;ellipse;whiteSpace=wrap;html=1;aspect=fixed;sketch=1;curveFitting=1;jiggle=1;fillStyle=solid;fillColor=#f8cecc;strokeColor=#b85450;&quot; vertex=&quot;1&quot; parent=&quot;1&quot;&gt;&#xA;          &lt;mxGeometry x=&quot;240&quot; y=&quot;80&quot; width=&quot;40&quot; height=&quot;40&quot; as=&quot;geometry&quot; /&gt;&#xA;        &lt;/mxCell&gt;&#xA;        &lt;mxCell id=&quot;Fe5Hhg4mf-TjiMpwq18P-2&quot; value=&quot;&quot; style=&quot;ellipse;whiteSpace=wrap;html=1;aspect=fixed;sketch=1;curveFitting=1;jiggle=1;&quot; vertex=&quot;1&quot; parent=&quot;1&quot;&gt;&#xA;          &lt;mxGeometry x=&quot;160&quot; y=&quot;160&quot; width=&quot;40&quot; height=&quot;40&quot; as=&quot;geometry&quot; /&gt;&#xA;        &lt;/mxCell&gt;&#xA;        &lt;mxCell id=&quot;Fe5Hhg4mf-TjiMpwq18P-3&quot; value=&quot;&quot; style=&quot;ellipse;whiteSpace=wrap;html=1;aspect=fixed;sketch=1;curveFitting=1;jiggle=1;&quot; vertex=&quot;1&quot; parent=&quot;1&quot;&gt;&#xA;          &lt;mxGeometry x=&quot;320&quot; y=&quot;160&quot; width=&quot;40&quot; height=&quot;40&quot; as=&quot;geometry&quot; /&gt;&#xA;        &lt;/mxCell&gt;&#xA;        &lt;mxCell id=&quot;Fe5Hhg4mf-TjiMpwq18P-4&quot; value=&quot;&quot; style=&quot;endArrow=classic;html=1;rounded=0;sketch=1;curveFitting=1;jiggle=1;&quot; edge=&quot;1&quot; parent=&quot;1&quot; source=&quot;Fe5Hhg4mf-TjiMpwq18P-1&quot; target=&quot;Fe5Hhg4mf-TjiMpwq18P-3&quot;&gt;&#xA;          &lt;mxGeometry width=&quot;50&quot; height=&quot;50&quot; relative=&quot;1&quot; as=&quot;geometry&quot;&gt;&#xA;            &lt;mxPoint x=&quot;270&quot; y=&quot;320&quot; as=&quot;sourcePoint&quot; /&gt;&#xA;            &lt;mxPoint x=&quot;320&quot; y=&quot;270&quot; as=&quot;targetPoint&quot; /&gt;&#xA;          &lt;/mxGeometry&gt;&#xA;        &lt;/mxCell&gt;&#xA;        &lt;mxCell id=&quot;Fe5Hhg4mf-TjiMpwq18P-5&quot; value=&quot;&quot; style=&quot;ellipse;whiteSpace=wrap;html=1;aspect=fixed;sketch=1;curveFitting=1;jiggle=1;&quot; vertex=&quot;1&quot; parent=&quot;1&quot;&gt;&#xA;          &lt;mxGeometry x=&quot;120&quot; y=&quot;240&quot; width=&quot;40&quot; height=&quot;40&quot; as=&quot;geometry&quot; /&gt;&#xA;        &lt;/mxCell&gt;&#xA;        &lt;mxCell id=&quot;Fe5Hhg4mf-TjiMpwq18P-6&quot; value=&quot;&quot; style=&quot;endArrow=classic;html=1;rounded=0;sketch=1;curveFitting=1;jiggle=1;&quot; edge=&quot;1&quot; parent=&quot;1&quot; source=&quot;Fe5Hhg4mf-TjiMpwq18P-1&quot; target=&quot;Fe5Hhg4mf-TjiMpwq18P-2&quot;&gt;&#xA;          &lt;mxGeometry width=&quot;50&quot; height=&quot;50&quot; relative=&quot;1&quot; as=&quot;geometry&quot;&gt;&#xA;            &lt;mxPoint x=&quot;284&quot; y=&quot;124&quot; as=&quot;sourcePoint&quot; /&gt;&#xA;            &lt;mxPoint x=&quot;336&quot; y=&quot;176&quot; as=&quot;targetPoint&quot; /&gt;&#xA;          &lt;/mxGeometry&gt;&#xA;        &lt;/mxCell&gt;&#xA;        &lt;mxCell id=&quot;Fe5Hhg4mf-TjiMpwq18P-7&quot; value=&quot;&quot; style=&quot;ellipse;whiteSpace=wrap;html=1;aspect=fixed;sketch=1;curveFitting=1;jiggle=1;&quot; vertex=&quot;1&quot; parent=&quot;1&quot;&gt;&#xA;          &lt;mxGeometry x=&quot;200&quot; y=&quot;240&quot; width=&quot;40&quot; height=&quot;40&quot; as=&quot;geometry&quot; /&gt;&#xA;        &lt;/mxCell&gt;&#xA;        &lt;mxCell id=&quot;Fe5Hhg4mf-TjiMpwq18P-11&quot; value=&quot;&quot; style=&quot;endArrow=classic;html=1;rounded=0;sketch=1;curveFitting=1;jiggle=1;&quot; edge=&quot;1&quot; parent=&quot;1&quot; source=&quot;Fe5Hhg4mf-TjiMpwq18P-2&quot; target=&quot;Fe5Hhg4mf-TjiMpwq18P-7&quot;&gt;&#xA;          &lt;mxGeometry width=&quot;50&quot; height=&quot;50&quot; relative=&quot;1&quot; as=&quot;geometry&quot;&gt;&#xA;            &lt;mxPoint x=&quot;270&quot; y=&quot;320&quot; as=&quot;sourcePoint&quot; /&gt;&#xA;            &lt;mxPoint x=&quot;320&quot; y=&quot;270&quot; as=&quot;targetPoint&quot; /&gt;&#xA;          &lt;/mxGeometry&gt;&#xA;        &lt;/mxCell&gt;&#xA;        &lt;mxCell id=&quot;Fe5Hhg4mf-TjiMpwq18P-14&quot; value=&quot;&quot; style=&quot;endArrow=classic;html=1;rounded=0;sketch=1;curveFitting=1;jiggle=1;&quot; edge=&quot;1&quot; parent=&quot;1&quot; source=&quot;Fe5Hhg4mf-TjiMpwq18P-2&quot; target=&quot;Fe5Hhg4mf-TjiMpwq18P-5&quot;&gt;&#xA;          &lt;mxGeometry width=&quot;50&quot; height=&quot;50&quot; relative=&quot;1&quot; as=&quot;geometry&quot;&gt;&#xA;            &lt;mxPoint x=&quot;199&quot; y=&quot;208&quot; as=&quot;sourcePoint&quot; /&gt;&#xA;            &lt;mxPoint x=&quot;221&quot; y=&quot;252&quot; as=&quot;targetPoint&quot; /&gt;&#xA;          &lt;/mxGeometry&gt;&#xA;        &lt;/mxCell&gt;&#xA;        &lt;mxCell id=&quot;Fe5Hhg4mf-TjiMpwq18P-15&quot; value=&quot;&quot; style=&quot;endArrow=classic;html=1;rounded=0;sketch=1;curveFitting=1;jiggle=1;&quot; edge=&quot;1&quot; parent=&quot;1&quot; source=&quot;Fe5Hhg4mf-TjiMpwq18P-3&quot; target=&quot;Fe5Hhg4mf-TjiMpwq18P-18&quot;&gt;&#xA;          &lt;mxGeometry width=&quot;50&quot; height=&quot;50&quot; relative=&quot;1&quot; as=&quot;geometry&quot;&gt;&#xA;            &lt;mxPoint x=&quot;209&quot; y=&quot;218&quot; as=&quot;sourcePoint&quot; /&gt;&#xA;            &lt;mxPoint x=&quot;308.9442719099991&quot; y=&quot;242.11145618000182&quot; as=&quot;targetPoint&quot; /&gt;&#xA;          &lt;/mxGeometry&gt;&#xA;        &lt;/mxCell&gt;&#xA;        &lt;mxCell id=&quot;Fe5Hhg4mf-TjiMpwq18P-18&quot; value=&quot;&quot; style=&quot;ellipse;whiteSpace=wrap;html=1;aspect=fixed;sketch=1;curveFitting=1;jiggle=1;fillColor=#dae8fc;strokeColor=#6c8ebf;fillStyle=solid;&quot; vertex=&quot;1&quot; parent=&quot;1&quot;&gt;&#xA;          &lt;mxGeometry x=&quot;240&quot; y=&quot;320&quot; width=&quot;40&quot; height=&quot;40&quot; as=&quot;geometry&quot; /&gt;&#xA;        &lt;/mxCell&gt;&#xA;        &lt;mxCell id=&quot;Fe5Hhg4mf-TjiMpwq18P-22&quot; value=&quot;&quot; style=&quot;endArrow=classic;html=1;rounded=0;sketch=1;curveFitting=1;jiggle=1;&quot; edge=&quot;1&quot; parent=&quot;1&quot; source=&quot;Fe5Hhg4mf-TjiMpwq18P-7&quot; target=&quot;Fe5Hhg4mf-TjiMpwq18P-18&quot;&gt;&#xA;          &lt;mxGeometry width=&quot;50&quot; height=&quot;50&quot; relative=&quot;1&quot; as=&quot;geometry&quot;&gt;&#xA;            &lt;mxPoint x=&quot;311&quot; y=&quot;298&quot; as=&quot;sourcePoint&quot; /&gt;&#xA;            &lt;mxPoint x=&quot;289&quot; y=&quot;342&quot; as=&quot;targetPoint&quot; /&gt;&#xA;          &lt;/mxGeometry&gt;&#xA;        &lt;/mxCell&gt;&#xA;        &lt;mxCell id=&quot;Fe5Hhg4mf-TjiMpwq18P-23&quot; value=&quot;&quot; style=&quot;endArrow=classic;html=1;rounded=0;sketch=1;curveFitting=1;jiggle=1;&quot; edge=&quot;1&quot; parent=&quot;1&quot; source=&quot;Fe5Hhg4mf-TjiMpwq18P-5&quot; target=&quot;Fe5Hhg4mf-TjiMpwq18P-18&quot;&gt;&#xA;          &lt;mxGeometry width=&quot;50&quot; height=&quot;50&quot; relative=&quot;1&quot; as=&quot;geometry&quot;&gt;&#xA;            &lt;mxPoint x=&quot;321&quot; y=&quot;308&quot; as=&quot;sourcePoint&quot; /&gt;&#xA;            &lt;mxPoint x=&quot;299&quot; y=&quot;352&quot; as=&quot;targetPoint&quot; /&gt;&#xA;          &lt;/mxGeometry&gt;&#xA;        &lt;/mxCell&gt;&#xA;      &lt;/root&gt;&#xA;    &lt;/mxGraphModel&gt;&#xA;  &lt;/diagram&gt;&#xA;&lt;/mxfile&gt;&#xA;"><defs/><g><g data-cell-id="0"><g data-cell-id="1"><g data-cell-id="Fe5Hhg4mf-TjiMpwq18P-1"><g><ellipse cx="140" cy="20" rx="20" ry="20" fill="transparent" stroke="none" pointer-events="all"/><path d="M 139.74 -0.9 C 143.7 -1.07 149.77 2.41 153.14 5.43 C 156.51 8.45 159.23 13.05 159.94 17.2 C 160.65 21.36 159.67 26.88 157.41 30.37 C 155.14 33.86 150.58 36.72 146.38 38.12 C 142.19 39.52 136.13 40.2 132.24 38.78 C 128.35 37.36 125.06 33.46 123.03 29.62 C 120.99 25.77 119.19 20 120.01 15.72 C 120.84 11.43 124.29 6.38 127.99 3.93 C 131.69 1.49 139.5 1.67 142.21 1.05 C 144.92 0.43 144.15 -0.06 144.24 0.21 M 139.7 0.85 C 143.93 0.38 149.62 1.44 152.87 3.86 C 156.12 6.27 158.48 11.19 159.17 15.35 C 159.87 19.51 159.09 24.8 157.03 28.82 C 154.97 32.84 150.77 38.02 146.82 39.46 C 142.88 40.9 137.48 38.74 133.37 37.44 C 129.25 36.14 124.49 35.22 122.12 31.66 C 119.75 28.1 118.3 20.58 119.15 16.09 C 120.01 11.6 123.89 7.25 127.24 4.72 C 130.59 2.18 137.1 1.6 139.25 0.89 C 141.4 0.18 140.12 0.27 140.14 0.45" fill="#f8cecc" stroke="none" pointer-events="all"/><path d="M 139.27 -0.81 C 143.24 -1.28 148.19 1.48 151.72 4.07 C 155.24 6.66 159.29 10.56 160.41 14.72 C 161.52 18.88 160.56 25.05 158.39 29.04 C 156.21 33.03 151.28 37.02 147.36 38.66 C 143.43 40.31 138.98 40.22 134.84 38.9 C 130.7 37.57 124.86 34.21 122.53 30.72 C 120.19 27.23 120.08 22.17 120.83 17.94 C 121.57 13.7 123.41 8.16 126.99 5.33 C 130.57 2.51 138.87 1.51 142.3 0.97 C 145.73 0.44 147.32 1.75 147.58 2.11 M 143.09 0.5 C 147.37 0.65 151.21 2.14 153.99 5.1 C 156.77 8.05 159.61 14.07 159.77 18.24 C 159.94 22.42 157.19 26.89 154.98 30.16 C 152.76 33.44 150.36 36.51 146.47 37.91 C 142.59 39.32 135.83 40.1 131.66 38.58 C 127.5 37.06 123.53 32.6 121.48 28.81 C 119.43 25.02 118.01 19.95 119.36 15.86 C 120.7 11.77 125.8 6.72 129.54 4.28 C 133.28 1.85 139.54 1.87 141.8 1.25 C 144.05 0.63 143.33 0.66 143.07 0.56" fill="none" stroke="#b85450" stroke-linejoin="round" stroke-linecap="round" stroke-miterlimit="10" pointer-events="all"/></g></g><g data-cell-id="Fe5Hhg4mf-TjiMpwq18P-2"><g><ellipse cx="60" cy="100" rx="20" ry="20" fill="transparent" stroke="none" pointer-events="all"/><path d="M 69.47 81.38 C 73.36 82.87 77.8 87.42 79.36 91.71 C 80.93 96 80.49 102.83 78.87 107.15 C 77.26 111.47 73.29 115.62 69.65 117.62 C 66 119.62 61.01 119.96 57 119.14 C 53 118.31 48.44 115.65 45.6 112.68 C 42.76 109.7 40.34 105.54 39.99 101.28 C 39.64 97.02 40.72 90.46 43.48 87.14 C 46.23 83.81 51.78 81.98 56.52 81.33 C 61.25 80.69 68.87 82.37 71.9 83.27 C 74.94 84.18 74.77 86.33 74.72 86.74 M 58.86 80.71 C 62.82 80.07 68.22 81.59 71.47 83.96 C 74.71 86.32 77.35 90.47 78.34 94.88 C 79.34 99.29 79.36 106.49 77.46 110.39 C 75.55 114.29 70.78 117.11 66.92 118.3 C 63.05 119.49 58.25 118.85 54.27 117.53 C 50.29 116.21 45.5 113.99 43.02 110.36 C 40.54 106.73 38.61 100.02 39.39 95.74 C 40.17 91.46 44.51 87.54 47.7 84.67 C 50.9 81.81 56.67 79.36 58.56 78.55 C 60.45 77.73 58.81 79.41 59.06 79.77" fill="rgb(255, 255, 255)" stroke="none" pointer-events="all"/><path d="M 52.91 80.27 C 56.92 78.72 63.84 79 67.82 80.73 C 71.8 82.46 74.85 86.69 76.81 90.65 C 78.76 94.62 80.16 100.38 79.54 104.52 C 78.92 108.66 76.37 112.76 73.07 115.48 C 69.77 118.2 64.07 120.9 59.75 120.83 C 55.43 120.76 50.32 117.99 47.13 115.06 C 43.94 112.14 41.44 107.7 40.63 103.28 C 39.81 98.86 39.56 92.22 42.25 88.55 C 44.94 84.88 54.13 82.61 56.74 81.26 C 59.36 79.91 57.87 80.4 57.94 80.43 M 59.01 81.09 C 62.95 80.5 67.43 81.03 70.62 83.43 C 73.8 85.82 77.08 91.18 78.13 95.45 C 79.17 99.73 78.52 105.17 76.91 109.08 C 75.3 112.99 72.14 117.34 68.45 118.92 C 64.76 120.49 59 119.89 54.75 118.53 C 50.51 117.17 45.41 114.15 42.97 110.74 C 40.54 107.34 39.72 102.17 40.15 98.13 C 40.58 94.08 42.3 89.3 45.56 86.46 C 48.81 83.63 57.58 82.16 59.7 81.11 C 61.82 80.06 58.46 79.99 58.28 80.19" fill="none" stroke="rgb(0, 0, 0)" stroke-linejoin="round" stroke-linecap="round" stroke-miterlimit="10" pointer-events="all"/></g></g><g data-cell-id="Fe5Hhg4mf-TjiMpwq18P-3"><g><ellipse cx="220" cy="100" rx="20" ry="20" fill="transparent" stroke="none" pointer-events="all"/><path d="M 217.97 80.99 C 221.83 80.49 228.35 81.66 231.87 84.05 C 235.39 86.44 238.13 91.27 239.07 95.35 C 240.02 99.43 239.51 104.79 237.55 108.56 C 235.58 112.33 231.31 116.14 227.29 117.98 C 223.27 119.81 217.55 120.89 213.42 119.54 C 209.29 118.2 204.58 113.74 202.51 109.92 C 200.44 106.11 200.2 100.75 201 96.68 C 201.8 92.61 204.14 88.4 207.31 85.51 C 210.48 82.62 217.52 80.05 220.03 79.34 C 222.55 78.64 222.25 80.93 222.42 81.28 M 218.03 80.58 C 222.21 80.25 229.32 81.25 233.06 84.06 C 236.81 86.86 239.71 93.26 240.51 97.41 C 241.32 101.56 240.14 105.68 237.88 108.96 C 235.63 112.25 230.79 115.69 227.01 117.14 C 223.22 118.58 219.02 118.96 215.17 117.62 C 211.32 116.27 206.51 112.26 203.92 109.06 C 201.33 105.86 198.92 102.46 199.63 98.39 C 200.34 94.32 204.63 87.83 208.17 84.63 C 211.71 81.43 219.23 80.13 220.87 79.2 C 222.5 78.28 217.99 78.55 217.97 79.09" fill="rgb(255, 255, 255)" stroke="none" pointer-events="all"/><path d="M 228.09 81.23 C 232.08 82.9 237.2 87.75 238.97 91.85 C 240.74 95.94 240.04 101.62 238.72 105.81 C 237.4 110 234.41 114.77 231.03 116.98 C 227.65 119.19 222.6 119.55 218.47 119.09 C 214.34 118.62 209.36 116.95 206.26 114.2 C 203.16 111.44 200.28 106.69 199.86 102.55 C 199.43 98.41 201.28 92.93 203.7 89.35 C 206.13 85.78 209.84 82.03 214.39 81.12 C 218.95 80.2 228.15 83.38 231.01 83.88 C 233.87 84.39 231.7 84.15 231.55 84.15 M 214.97 79.15 C 218.96 77.83 225.96 79.86 229.97 82.13 C 233.98 84.4 237.62 89 239.03 92.77 C 240.44 96.55 239.9 100.83 238.43 104.79 C 236.97 108.74 233.65 113.79 230.24 116.5 C 226.83 119.2 222.2 121.71 217.97 121.03 C 213.74 120.35 207.61 115.85 204.85 112.42 C 202.09 108.99 201.4 104.35 201.41 100.44 C 201.41 96.54 202.68 92.15 204.89 88.98 C 207.09 85.81 212.7 82.89 214.64 81.43 C 216.58 79.98 216.13 80.27 216.53 80.26" fill="none" stroke="rgb(0, 0, 0)" stroke-linejoin="round" stroke-linecap="round" stroke-miterlimit="10" pointer-events="all"/></g></g><g data-cell-id="Fe5Hhg4mf-TjiMpwq18P-4"><g><path d="M 154.14 34.14 L 201.36 81.36" fill="none" stroke="none" pointer-events="stroke"/><path d="M 205.07 85.07 L 197.64 82.59 L 201.36 81.36 L 202.59 77.64 Z" fill="none" stroke="none" pointer-events="all"/><path d="M 154.14 34.14 C 166.18 48.68 182.95 63.14 201.36 81.36 M 154.14 34.14 C 170.23 50.57 186.78 68.48 201.36 81.36" fill="none" stroke="rgb(0, 0, 0)" stroke-linejoin="round" stroke-linecap="round" stroke-miterlimit="10" pointer-events="stroke"/><path d="M 197.4 82.87 C 197.4 82.87 197.4 82.87 197.4 82.87 M 197.4 82.87 C 197.4 82.87 197.4 82.87 197.4 82.87 M 201.73 83.98 C 202.08 83.58 202.6 82.92 204.35 80.96 M 201.73 83.98 C 202.66 82.79 203.51 81.66 204.35 80.96" fill="none" stroke="rgb(0, 0, 0)" stroke-width="0.5" stroke-linejoin="round" stroke-linecap="round" stroke-miterlimit="10" pointer-events="all"/><path d="M 205.07 85.07 C 202.24 84.58 201.34 84.19 197.64 82.59 M 205.07 85.07 C 202.33 83.99 199.68 83.62 197.64 82.59 M 197.64 82.59 C 198.45 81.93 198.79 81.69 201.36 81.36 M 197.64 82.59 C 198.65 82.29 199.64 82.05 201.36 81.36 M 201.36 81.36 C 201.31 80.88 201.6 80.11 202.59 77.64 M 201.36 81.36 C 201.6 80.52 201.95 79.54 202.59 77.64 M 202.59 77.64 C 203.07 78.87 204.12 80.48 205.07 85.07 M 202.59 77.64 C 203.09 79.44 203.38 80.58 205.07 85.07" fill="none" stroke="rgb(0, 0, 0)" stroke-linejoin="round" stroke-linecap="round" stroke-miterlimit="10" pointer-events="all"/></g></g><g data-cell-id="Fe5Hhg4mf-TjiMpwq18P-5"><g><ellipse cx="20" cy="180" rx="20" ry="20" fill="transparent" stroke="none" pointer-events="all"/><path d="M 16.21 161.04 C 20.27 160.21 26.86 160.71 30.5 162.79 C 34.14 164.88 36.55 169.55 38.05 173.53 C 39.56 177.51 40.87 182.65 39.55 186.68 C 38.23 190.7 33.95 195.44 30.13 197.69 C 26.32 199.94 20.99 201.09 16.65 200.16 C 12.32 199.24 6.88 195.56 4.13 192.15 C 1.37 188.73 0.04 183.82 0.14 179.66 C 0.24 175.5 1.79 170.5 4.74 167.2 C 7.68 163.9 15.5 160.96 17.79 159.88 C 20.07 158.79 18.2 160.27 18.43 160.69 M 19.36 160.3 C 23.5 160.13 30.01 161.57 33.25 164.26 C 36.5 166.96 37.94 172.34 38.85 176.48 C 39.77 180.62 40.68 185.55 38.73 189.11 C 36.79 192.66 31.32 196.36 27.19 197.81 C 23.07 199.25 18.06 199.18 13.98 197.78 C 9.9 196.39 5.04 192.81 2.72 189.46 C 0.41 186.11 -0.45 181.84 0.11 177.69 C 0.67 173.54 2.88 167.41 6.1 164.55 C 9.33 161.69 17.36 161.16 19.48 160.52 C 21.6 159.88 18.85 160.34 18.8 160.73" fill="rgb(255, 255, 255)" stroke="none" pointer-events="all"/><path d="M 17.43 159.78 C 21.56 159.25 27.93 161.88 31.54 164.43 C 35.15 166.99 37.94 171.21 39.08 175.1 C 40.23 179 40.1 183.96 38.43 187.79 C 36.76 191.63 33.02 196.18 29.08 198.13 C 25.14 200.07 18.98 200.63 14.79 199.44 C 10.59 198.25 6.41 194.68 3.91 191 C 1.4 187.31 -0.69 181.39 -0.24 177.35 C 0.22 173.31 2.69 169.73 6.63 166.75 C 10.57 163.77 19.78 160.13 23.42 159.48 C 27.07 158.84 28.5 162.49 28.52 162.88 M 29.44 162.08 C 33.12 163.79 35.3 168.61 37.13 172.73 C 38.96 176.85 41.45 182.97 40.43 186.8 C 39.41 190.64 34.71 193.43 31 195.73 C 27.29 198.03 22.29 201.11 18.17 200.58 C 14.06 200.06 9.42 195.79 6.32 192.6 C 3.21 189.41 -0.27 185.38 -0.47 181.44 C -0.68 177.5 2.35 172.7 5.1 168.97 C 7.86 165.24 11.89 160.08 16.05 159.06 C 20.21 158.05 27.86 162.53 30.05 162.89 C 32.24 163.24 29.43 161.14 29.18 161.2" fill="none" stroke="rgb(0, 0, 0)" stroke-linejoin="round" stroke-linecap="round" stroke-miterlimit="10" pointer-events="all"/></g></g><g data-cell-id="Fe5Hhg4mf-TjiMpwq18P-6"><g><path d="M 125.86 34.14 L 78.64 81.36" fill="none" stroke="none" pointer-events="stroke"/><path d="M 74.93 85.07 L 77.41 77.64 L 78.64 81.36 L 82.36 82.59 Z" fill="none" stroke="none" pointer-events="all"/><path d="M 125.86 34.14 C 112.53 46.31 99.7 61.17 78.64 81.36 M 125.86 34.14 C 111.84 48.47 96.92 62.17 78.64 81.36" fill="none" stroke="rgb(0, 0, 0)" stroke-linejoin="round" stroke-linecap="round" stroke-miterlimit="10" pointer-events="stroke"/><path d="M 77.26 77.81 C 77.26 77.81 77.26 77.81 77.26 77.81 M 77.26 77.81 C 77.26 77.81 77.26 77.81 77.26 77.81 M 75.69 85.72 C 76.62 84.05 77.98 83.09 78.97 81.94 M 75.69 85.72 C 76.58 84.62 77.56 83.75 78.97 81.94" fill="none" stroke="rgb(0, 0, 0)" stroke-width="0.5" stroke-linejoin="round" stroke-linecap="round" stroke-miterlimit="10" pointer-events="all"/><path d="M 74.93 85.07 C 75.6 82.38 76.62 80.72 77.41 77.64 M 74.93 85.07 C 75.7 82.85 76.07 80.53 77.41 77.64 M 77.41 77.64 C 77.63 78.35 77.88 79.65 78.64 81.36 M 77.41 77.64 C 77.7 78.54 77.85 79.48 78.64 81.36 M 78.64 81.36 C 80.16 81.76 81.44 82.02 82.36 82.59 M 78.64 81.36 C 79.91 81.9 81.19 82.22 82.36 82.59 M 82.36 82.59 C 80.71 83.08 78 83.74 74.93 85.07 M 82.36 82.59 C 79.68 83.47 77.97 84.45 74.93 85.07" fill="none" stroke="rgb(0, 0, 0)" stroke-linejoin="round" stroke-linecap="round" stroke-miterlimit="10" pointer-events="all"/></g></g><g data-cell-id="Fe5Hhg4mf-TjiMpwq18P-7"><g><ellipse cx="100" cy="180" rx="20" ry="20" fill="transparent" stroke="none" pointer-events="all"/><path d="M 94.46 161.24 C 98.36 160.09 104.99 159.91 109.06 161.67 C 113.13 163.42 117.16 167.58 118.89 171.76 C 120.61 175.94 120.75 182.49 119.42 186.74 C 118.09 190.99 114.49 194.95 110.91 197.27 C 107.32 199.58 102.09 201.13 97.92 200.63 C 93.74 200.13 88.94 197.61 85.86 194.28 C 82.78 190.95 79.7 184.86 79.43 180.65 C 79.17 176.43 80.94 172.4 84.28 168.99 C 87.61 165.59 96.14 161.65 99.44 160.24 C 102.74 158.83 104.16 160.38 104.07 160.54 M 97.69 160.03 C 101.79 159.52 109.69 161.88 113.44 164.47 C 117.2 167.05 119.67 171.41 120.19 175.54 C 120.71 179.67 118.72 185.43 116.58 189.25 C 114.45 193.07 111.34 197.02 107.38 198.47 C 103.41 199.92 96.59 199.39 92.78 197.95 C 88.98 196.52 86.56 193.36 84.53 189.86 C 82.5 186.37 80.17 181.23 80.59 177 C 81.01 172.76 84.12 167.5 87.04 164.47 C 89.96 161.45 96 159.69 98.09 158.84 C 100.19 157.99 99.72 158.63 99.63 159.37" fill="rgb(255, 255, 255)" stroke="none" pointer-events="all"/><path d="M 108.31 161.48 C 112.19 162.76 115.15 166.2 117.06 169.99 C 118.97 173.77 120.7 179.86 119.74 184.19 C 118.79 188.52 114.92 193.17 111.34 195.95 C 107.75 198.74 102.46 201.04 98.25 200.89 C 94.03 200.74 88.93 198.03 86.04 195.04 C 83.15 192.05 81.53 187.34 80.91 182.95 C 80.29 178.55 80.16 172.44 82.32 168.66 C 84.47 164.87 89.51 161.43 93.85 160.23 C 98.2 159.03 105.84 161.01 108.39 161.46 C 110.95 161.9 109.22 162.51 109.19 162.9 M 104.62 161.39 C 108.49 162.17 112.44 164.86 114.84 168.16 C 117.24 171.46 118.79 177.28 119.04 181.22 C 119.29 185.15 119.09 188.9 116.33 191.78 C 113.57 194.65 106.59 197.57 102.46 198.46 C 98.33 199.36 95.17 199.23 91.55 197.15 C 87.92 195.06 82.33 190.01 80.72 185.97 C 79.11 181.92 80.34 176.89 81.9 172.86 C 83.47 168.83 86.57 163.8 90.12 161.78 C 93.66 159.76 101.05 160.76 103.19 160.73 C 105.32 160.7 103.02 161.41 102.92 161.61" fill="none" stroke="rgb(0, 0, 0)" stroke-linejoin="round" stroke-linecap="round" stroke-miterlimit="10" pointer-events="all"/></g></g><g data-cell-id="Fe5Hhg4mf-TjiMpwq18P-11"><g><path d="M 68.94 117.89 L 88.21 156.42" fill="none" stroke="none" pointer-events="stroke"/><path d="M 90.56 161.11 L 84.29 156.42 L 88.21 156.42 L 90.56 153.29 Z" fill="none" stroke="none" pointer-events="all"/><path d="M 68.94 117.89 C 76.22 129.76 80.34 144.28 88.21 156.42 M 68.94 117.89 C 76.77 130.63 83.64 144.15 88.21 156.42" fill="none" stroke="rgb(0, 0, 0)" stroke-linejoin="round" stroke-linecap="round" stroke-miterlimit="10" pointer-events="stroke"/><path d="M 84.1 156.63 C 84.1 156.63 84.1 156.63 84.1 156.63 M 84.1 156.63 C 84.1 156.63 84.1 156.63 84.1 156.63 M 87.78 158.5 C 89.06 157.71 89.86 155.86 91.06 154.73 M 87.78 158.5 C 88.58 157.9 88.95 156.86 91.06 154.73" fill="none" stroke="rgb(0, 0, 0)" stroke-width="0.5" stroke-linejoin="round" stroke-linecap="round" stroke-miterlimit="10" pointer-events="all"/><path d="M 90.56 161.11 C 88.78 158.84 85.65 157.74 84.29 156.42 M 90.56 161.11 C 88.63 159.21 86.44 157.52 84.29 156.42 M 84.29 156.42 C 85.46 156.26 86.15 156.4 88.21 156.42 M 84.29 156.42 C 85.09 156.45 85.93 156.5 88.21 156.42 M 88.21 156.42 C 88.74 155.8 89.34 155.24 90.56 153.29 M 88.21 156.42 C 89.13 155.34 90.2 153.78 90.56 153.29 M 90.56 153.29 C 90.74 155.69 90.7 158.13 90.56 161.11 M 90.56 153.29 C 90.58 155.45 90.25 157.35 90.56 161.11" fill="none" stroke="rgb(0, 0, 0)" stroke-linejoin="round" stroke-linecap="round" stroke-miterlimit="10" pointer-events="all"/></g></g><g data-cell-id="Fe5Hhg4mf-TjiMpwq18P-14"><g><path d="M 51.06 117.89 L 31.79 156.42" fill="none" stroke="none" pointer-events="stroke"/><path d="M 29.44 161.11 L 29.44 153.29 L 31.79 156.42 L 35.71 156.42 Z" fill="none" stroke="none" pointer-events="all"/><path d="M 51.06 117.89 C 45.89 130.59 37.26 145.7 31.79 156.42 M 51.06 117.89 C 44.71 132.11 36.39 145.9 31.79 156.42" fill="none" stroke="rgb(0, 0, 0)" stroke-linejoin="round" stroke-linecap="round" stroke-miterlimit="10" pointer-events="stroke"/><path d="M 29.66 153.03 C 29.66 153.03 29.66 153.03 29.66 153.03 M 29.66 153.03 C 29.66 153.03 29.66 153.03 29.66 153.03 M 29.4 159.43 C 30.35 158.53 31.19 157.19 32.03 156.41 M 29.4 159.43 C 30.23 158.44 30.96 157.65 32.03 156.41" fill="none" stroke="rgb(0, 0, 0)" stroke-width="0.5" stroke-linejoin="round" stroke-linecap="round" stroke-miterlimit="10" pointer-events="all"/><path d="M 29.44 161.11 C 30.01 158.18 29.21 156.24 29.44 153.29 M 29.44 161.11 C 29.51 158.19 29.04 155.13 29.44 153.29 M 29.44 153.29 C 30.32 154.67 31.03 155.02 31.79 156.42 M 29.44 153.29 C 30.14 154.16 31.08 155.51 31.79 156.42 M 31.79 156.42 C 32.66 156.34 34.3 156.54 35.71 156.42 M 31.79 156.42 C 32.97 156.25 34.18 156.45 35.71 156.42 M 35.71 156.42 C 33.95 158.12 32.75 158.83 29.44 161.11 M 35.71 156.42 C 33.83 158 31.76 159.17 29.44 161.11" fill="none" stroke="rgb(0, 0, 0)" stroke-linejoin="round" stroke-linecap="round" stroke-miterlimit="10" pointer-events="all"/></g></g><g data-cell-id="Fe5Hhg4mf-TjiMpwq18P-15"><g><path d="M 211.06 117.89 L 151.79 236.42" fill="none" stroke="none" pointer-events="stroke"/><path d="M 149.44 241.11 L 149.44 233.29 L 151.79 236.42 L 155.71 236.42 Z" fill="none" stroke="none" pointer-events="all"/><path d="M 211.06 117.89 C 191.22 156.77 171.69 199.53 151.79 236.42 M 211.06 117.89 C 195.31 146.06 181.39 175.42 151.79 236.42" fill="none" stroke="rgb(0, 0, 0)" stroke-linejoin="round" stroke-linecap="round" stroke-miterlimit="10" pointer-events="stroke"/><path d="M 149.43 233.3 C 149.43 233.3 149.43 233.3 149.43 233.3 M 149.43 233.3 C 149.43 233.3 149.43 233.3 149.43 233.3 M 149.17 239.7 C 150.45 238.6 150.92 237.51 151.8 236.68 M 149.17 239.7 C 149.89 238.83 150.58 238.26 151.8 236.68" fill="none" stroke="rgb(0, 0, 0)" stroke-width="0.5" stroke-linejoin="round" stroke-linecap="round" stroke-miterlimit="10" pointer-events="all"/><path d="M 149.44 241.11 C 149.55 237.77 149.86 235.91 149.44 233.29 M 149.44 241.11 C 149.34 239.27 149.49 237.69 149.44 233.29 M 149.44 233.29 C 150.31 234.39 150.88 235.37 151.79 236.42 M 149.44 233.29 C 150.32 234.07 150.99 235.3 151.79 236.42 M 151.79 236.42 C 153.17 236.56 153.48 236.27 155.71 236.42 M 151.79 236.42 C 153.38 236.27 154.55 236.25 155.71 236.42 M 155.71 236.42 C 153.71 237.84 153.09 238.99 149.44 241.11 M 155.71 236.42 C 154.42 237.75 152.72 238.63 149.44 241.11" fill="none" stroke="rgb(0, 0, 0)" stroke-linejoin="round" stroke-linecap="round" stroke-miterlimit="10" pointer-events="all"/></g></g><g data-cell-id="Fe5Hhg4mf-TjiMpwq18P-18"><g><ellipse cx="140" cy="260" rx="20" ry="20" fill="transparent" stroke="none" pointer-events="all"/><path d="M 132.56 241.66 C 136.17 239.91 140.89 239.49 145.11 240.81 C 149.33 242.13 155.51 246.09 157.87 249.6 C 160.24 253.11 160.14 257.78 159.3 261.87 C 158.45 265.96 155.82 271.06 152.79 274.13 C 149.75 277.19 145.28 280.12 141.07 280.25 C 136.86 280.39 130.84 277.55 127.52 274.94 C 124.19 272.33 121.97 268.54 121.09 264.59 C 120.21 260.64 119.79 255.2 122.22 251.23 C 124.65 247.27 133.08 242.49 135.69 240.8 C 138.29 239.11 137.97 240.91 137.86 241.1 M 142.86 240.43 C 146.94 240.74 150.2 243.47 153.18 246.47 C 156.16 249.48 160.21 254.54 160.75 258.44 C 161.3 262.34 159.13 266.22 156.46 269.88 C 153.8 273.55 148.82 279.2 144.78 280.41 C 140.74 281.61 136.09 279.27 132.23 277.11 C 128.37 274.95 123.79 271.21 121.62 267.45 C 119.45 263.7 117.94 258.77 119.22 254.61 C 120.5 250.44 125.85 244.69 129.31 242.44 C 132.78 240.2 137.89 241.62 140.03 241.15 C 142.18 240.69 141.98 239.61 142.2 239.64" fill="#dae8fc" stroke="none" pointer-events="all"/><path d="M 135.67 239.92 C 139.92 238.57 146.57 239.45 150.53 241.63 C 154.48 243.81 158.13 248.95 159.4 253.01 C 160.66 257.08 159.73 261.82 158.13 266 C 156.54 270.18 153.42 275.91 149.82 278.08 C 146.22 280.26 140.8 279.71 136.53 279.06 C 132.25 278.4 127.04 277.26 124.17 274.16 C 121.31 271.06 119.14 264.79 119.31 260.45 C 119.48 256.11 121.87 251.67 125.19 248.11 C 128.52 244.55 136.68 240.3 139.28 239.1 C 141.89 237.9 140.83 240.37 140.83 240.92 M 139.49 239.73 C 143.33 239.47 148.13 240.59 151.66 243.36 C 155.2 246.12 159.63 251.78 160.69 256.32 C 161.76 260.86 160.5 267.03 158.03 270.6 C 155.56 274.17 150.25 276.6 145.88 277.73 C 141.51 278.85 135.6 278.44 131.82 277.35 C 128.03 276.26 125.27 274.64 123.16 271.18 C 121.05 267.72 118.62 261.16 119.15 256.57 C 119.67 251.97 122.64 246.41 126.31 243.62 C 129.99 240.84 138.63 240.25 141.19 239.85 C 143.75 239.45 141.61 241.03 141.66 241.24" fill="none" stroke="#6c8ebf" stroke-linejoin="round" stroke-linecap="round" stroke-miterlimit="10" pointer-events="all"/></g></g><g data-cell-id="Fe5Hhg4mf-TjiMpwq18P-22"><g><path d="M 108.94 197.89 L 128.21 236.42" fill="none" stroke="none" pointer-events="stroke"/><path d="M 130.56 241.11 L 124.29 236.42 L 128.21 236.42 L 130.56 233.29 Z" fill="none" stroke="none" pointer-events="all"/><path d="M 108.94 197.89 C 116.21 212.52 122.67 225.42 128.21 236.42 M 108.94 197.89 C 113.31 207.89 118.75 218.68 128.21 236.42" fill="none" stroke="rgb(0, 0, 0)" stroke-linejoin="round" stroke-linecap="round" stroke-miterlimit="10" pointer-events="stroke"/><path d="M 124.19 236.53 C 124.19 236.53 124.19 236.53 124.19 236.53 M 124.19 236.53 C 124.19 236.53 124.19 236.53 124.19 236.53 M 127.21 239.16 C 128.01 238.08 128.77 236.64 130.49 235.38 M 127.21 239.16 C 128.53 237.68 129.73 236.55 130.49 235.38" fill="none" stroke="rgb(0, 0, 0)" stroke-width="0.5" stroke-linejoin="round" stroke-linecap="round" stroke-miterlimit="10" pointer-events="all"/><path d="M 130.56 241.11 C 128.48 239.98 126.27 238.25 124.29 236.42 M 130.56 241.11 C 128.54 239.94 127.12 239.09 124.29 236.42 M 124.29 236.42 C 125.96 236.56 127.05 236.17 128.21 236.42 M 124.29 236.42 C 124.99 236.52 126 236.37 128.21 236.42 M 128.21 236.42 C 129.28 235.27 130.13 234.17 130.56 233.29 M 128.21 236.42 C 128.88 235.32 129.49 234.51 130.56 233.29 M 130.56 233.29 C 130.96 236.22 129.74 238.62 130.56 241.11 M 130.56 233.29 C 130.74 235.59 130.93 238.22 130.56 241.11" fill="none" stroke="rgb(0, 0, 0)" stroke-linejoin="round" stroke-linecap="round" stroke-miterlimit="10" pointer-events="all"/></g></g><g data-cell-id="Fe5Hhg4mf-TjiMpwq18P-23"><g><path d="M 36.69 191.02 L 118.06 245.37" fill="none" stroke="none" pointer-events="stroke"/><path d="M 122.43 248.29 L 114.66 247.31 L 118.06 245.37 L 118.55 241.49 Z" fill="none" stroke="none" pointer-events="all"/><path d="M 36.69 191.02 C 63.28 209.36 93.87 227.89 118.06 245.37 M 36.69 191.02 C 63.2 208.72 90.03 226.72 118.06 245.37" fill="none" stroke="rgb(0, 0, 0)" stroke-linejoin="round" stroke-linecap="round" stroke-miterlimit="10" pointer-events="stroke"/><path d="M 118.84 241.15 C 118.84 241.15 118.84 241.15 118.84 241.15 M 118.84 241.15 C 118.84 241.15 118.84 241.15 118.84 241.15 M 117.27 249.06 C 118.48 247.75 118.78 246.62 120.55 245.29 M 117.27 249.06 C 118.45 247.81 119.61 246.45 120.55 245.29" fill="none" stroke="rgb(0, 0, 0)" stroke-width="0.5" stroke-linejoin="round" stroke-linecap="round" stroke-miterlimit="10" pointer-events="all"/><path d="M 122.43 248.29 C 119.44 248.12 117.82 247.73 114.66 247.31 M 122.43 248.29 C 119.99 248.13 117.46 247.86 114.66 247.31 M 114.66 247.31 C 116.2 246.39 117 245.81 118.06 245.37 M 114.66 247.31 C 116.08 246.59 117.35 245.65 118.06 245.37 M 118.06 245.37 C 118.28 244.33 118.79 242.6 118.55 241.49 M 118.06 245.37 C 118.38 243.91 118.26 242.49 118.55 241.49 M 118.55 241.49 C 119.65 243.67 121.39 246 122.43 248.29 M 118.55 241.49 C 119.24 243.14 120.48 245.07 122.43 248.29" fill="none" stroke="rgb(0, 0, 0)" stroke-linejoin="round" stroke-linecap="round" stroke-miterlimit="10" pointer-events="all"/></g></g></g></g></g></svg>