<?xml version="1.0" encoding="UTF-8"?>
<!-- Do not edit this file with editors other than draw.io -->
<!DOCTYPE svg PUBLIC "-//W3C//DTD SVG 1.1//EN" "http://www.w3.org/Graphics/SVG/1.1/DTD/svg11.dtd">
<svg xmlns="http://www.w3.org/2000/svg" style="background: transparent; background-color: transparent; color-scheme: light;" xmlns:xlink="http://www.w3.org/1999/xlink" version="1.1" width="242px" height="282px" viewBox="0 0 242 282" content="&lt;mxfile host=&quot;app.diagrams.net&quot; agent=&quot;Mozilla/5.0 (X11; Linux x86_64; rv:145.0) Gecko/20100101 Firefox/145.0&quot; scale=&quot;1&quot; border=&quot;0&quot; version=&quot;28.2.9&quot;&gt;&#xA;  &lt;diagram name=&quot;Page-1&quot; id=&quot;gZUrUOS7k_miWmcZq_Cw&quot;&gt;&#xA;    &lt;mxGraphModel dx=&quot;1106&quot; dy=&quot;571&quot; grid=&quot;1&quot; gridSize=&quot;10&quot; guides=&quot;1&quot; tooltips=&quot;1&quot; connect=&quot;1&quot; arrows=&quot;1&quot; fold=&quot;1&quot; page=&quot;1&quot; pageScale=&quot;1&quot; pageWidth=&quot;600&quot; pageHeight=&quot;550&quot; math=&quot;0&quot; shadow=&quot;0&quot;&gt;&#xA;      &lt;root&gt;&#xA;        &lt;mxCell id=&quot;0&quot; /&gt;&#xA;        &lt;mxCell id=&quot;1&quot; parent=&quot;0&quot; /&gt;&#xA;        &lt;mxCell id=&quot;Fe5Hhg4mf-TjiMpwq18P-1&quot; value=&quot;&quot; style=&quot;ellipse;whiteSpace=wrap;html=1;aspect=fixed;sketch=1;curveFitting=1;jiggle=1;fillStyle=solid;fillColor=#f9f7ed;strokeColor=#36393d;strokeWidth=2;&quot; parent=&quot;1&quot; vertex=&quot;1&quot;&gt;&#xA;          &lt;mxGeometry x=&quot;240&quot; y=&quot;80&quot; width=&quot;40&quot; height=&quot;40&quot; as=&quot;geometry&quot; /&gt;&#xA;        &lt;/mxCell&gt;&#xA;        &lt;mxCell id=&quot;Fe5Hhg4mf-TjiMpwq18P-2&quot; value=&quot;&quot; style=&quot;ellipse;whiteSpace=wrap;html=1;aspect=fixed;sketch=1;curveFitting=1;jiggle=1;fillColor=#f9f7ed;strokeColor=#36393d;fillStyle=solid;strokeWidth=2;&quot; parent=&quot;1&quot; vertex=&quot;1&quot;&gt;&#xA;          &lt;mxGeometry x=&quot;160&quot; y=&quot;160&quot; width=&quot;40&quot; height=&quot;40&quot; as=&quot;geometry&quot; /&gt;&#xA;        &lt;/mxCell&gt;&#xA;        &lt;mxCell id=&quot;Fe5Hhg4mf-TjiMpwq18P-3&quot; value=&quot;&quot; style=&quot;ellipse;whiteSpace=wrap;html=1;aspect=fixed;sketch=1;curveFitting=1;jiggle=1;fillColor=#f9f7ed;strokeColor=#36393d;fillStyle=solid;strokeWidth=2;&quot; parent=&quot;1&quot; vertex=&quot;1&quot;&gt;&#xA;          &lt;mxGeometry x=&quot;320&quot; y=&quot;160&quot; width=&quot;40&quot; height=&quot;40&quot; as=&quot;geometry&quot; /&gt;&#xA;        &lt;/mxCell&gt;&#xA;        &lt;mxCell id=&quot;Fe5Hhg4mf-TjiMpwq18P-4&quot; value=&quot;&quot; style=&quot;endArrow=classic;html=1;rounded=0;sketch=1;curveFitting=1;jiggle=1;strokeWidth=2;&quot; parent=&quot;1&quot; source=&quot;Fe5Hhg4mf-TjiMpwq18P-1&quot; target=&quot;Fe5Hhg4mf-TjiMpwq18P-3&quot; edge=&quot;1&quot;&gt;&#xA;          &lt;mxGeometry width=&quot;50&quot; height=&quot;50&quot; relative=&quot;1&quot; as=&quot;geometry&quot;&gt;&#xA;            &lt;mxPoint x=&quot;270&quot; y=&quot;320&quot; as=&quot;sourcePoint&quot; /&gt;&#xA;            &lt;mxPoint x=&quot;320&quot; y=&quot;270&quot; as=&quot;targetPoint&quot; /&gt;&#xA;          &lt;/mxGeometry&gt;&#xA;        &lt;/mxCell&gt;&#xA;        &lt;mxCell id=&quot;Fe5Hhg4mf-TjiMpwq18P-5&quot; value=&quot;&quot; style=&quot;ellipse;whiteSpace=wrap;html=1;aspect=fixed;sketch=1;curveFitting=1;jiggle=1;fillColor=#f9f7ed;strokeColor=#36393d;fillStyle=solid;strokeWidth=2;&quot; parent=&quot;1&quot; vertex=&quot;1&quot;&gt;&#xA;          &lt;mxGeometry x=&quot;120&quot; y=&quot;240&quot; width=&quot;40&quot; height=&quot;40&quot; as=&quot;geometry&quot; /&gt;&#xA;        &lt;/mxCell&gt;&#xA;        &lt;mxCell id=&quot;Fe5Hhg4mf-TjiMpwq18P-6&quot; value=&quot;&quot; style=&quot;endArrow=classic;html=1;rounded=0;sketch=1;curveFitting=1;jiggle=1;strokeWidth=2;&quot; parent=&quot;1&quot; source=&quot;Fe5Hhg4mf-TjiMpwq18P-1&quot; target=&quot;Fe5Hhg4mf-TjiMpwq18P-2&quot; edge=&quot;1&quot;&gt;&#xA;          &lt;mxGeometry width=&quot;50&quot; height=&quot;50&quot; relative=&quot;1&quot; as=&quot;geometry&quot;&gt;&#xA;            &lt;mxPoint x=&quot;284&quot; y=&quot;124&quot; as=&quot;sourcePoint&quot; /&gt;&#xA;            &lt;mxPoint x=&quot;336&quot; y=&quot;176&quot; as=&quot;targetPoint&quot; /&gt;&#xA;          &lt;/mxGeometry&gt;&#xA;        &lt;/mxCell&gt;&#xA;        &lt;mxCell id=&quot;Fe5Hhg4mf-TjiMpwq18P-7&quot; value=&quot;&quot; style=&quot;ellipse;whiteSpace=wrap;html=1;aspect=fixed;sketch=1;curveFitting=1;jiggle=1;fillColor=#f9f7ed;strokeColor=#36393d;fillStyle=solid;strokeWidth=2;&quot; parent=&quot;1&quot; vertex=&quot;1&quot;&gt;&#xA;          &lt;mxGeometry x=&quot;200&quot; y=&quot;240&quot; width=&quot;40&quot; height=&quot;40&quot; as=&quot;geometry&quot; /&gt;&#xA;        &lt;/mxCell&gt;&#xA;        &lt;mxCell id=&quot;Fe5Hhg4mf-TjiMpwq18P-11&quot; value=&quot;&quot; style=&quot;endArrow=classic;html=1;rounded=0;sketch=1;curveFitting=1;jiggle=1;strokeWidth=2;&quot; parent=&quot;1&quot; source=&quot;Fe5Hhg4mf-TjiMpwq18P-2&quot; target=&quot;Fe5Hhg4mf-TjiMpwq18P-7&quot; edge=&quot;1&quot;&gt;&#xA;          &lt;mxGeometry width=&quot;50&quot; height=&quot;50&quot; relative=&quot;1&quot; as=&quot;geometry&quot;&gt;&#xA;            &lt;mxPoint x=&quot;270&quot; y=&quot;320&quot; as=&quot;sourcePoint&quot; /&gt;&#xA;            &lt;mxPoint x=&quot;320&quot; y=&quot;270&quot; as=&quot;targetPoint&quot; /&gt;&#xA;          &lt;/mxGeometry&gt;&#xA;        &lt;/mxCell&gt;&#xA;        &lt;mxCell id=&quot;Fe5Hhg4mf-TjiMpwq18P-14&quot; value=&quot;&quot; style=&quot;endArrow=classic;html=1;rounded=0;sketch=1;curveFitting=1;jiggle=1;strokeWidth=2;&quot; parent=&quot;1&quot; source=&quot;Fe5Hhg4mf-TjiMpwq18P-2&quot; target=&quot;Fe5Hhg4mf-TjiMpwq18P-5&quot; edge=&quot;1&quot;&gt;&#xA;          &lt;mxGeometry width=&quot;50&quot; height=&quot;50&quot; relative=&quot;1&quot; as=&quot;geometry&quot;&gt;&#xA;            &lt;mxPoint x=&quot;199&quot; y=&quot;208&quot; as=&quot;sourcePoint&quot; /&gt;&#xA;            &lt;mxPoint x=&quot;221&quot; y=&quot;252&quot; as=&quot;targetPoint&quot; /&gt;&#xA;          &lt;/mxGeometry&gt;&#xA;        &lt;/mxCell&gt;&#xA;        &lt;mxCell id=&quot;Fe5Hhg4mf-TjiMpwq18P-15&quot; value=&quot;&quot; style=&quot;endArrow=classic;html=1;rounded=0;sketch=1;curveFitting=1;jiggle=1;strokeWidth=2;&quot; parent=&quot;1&quot; source=&quot;Fe5Hhg4mf-TjiMpwq18P-3&quot; target=&quot;Fe5Hhg4mf-TjiMpwq18P-18&quot; edge=&quot;1&quot;&gt;&#xA;          &lt;mxGeometry width=&quot;50&quot; height=&quot;50&quot; relative=&quot;1&quot; as=&quot;geometry&quot;&gt;&#xA;            &lt;mxPoint x=&quot;209&quot; y=&quot;218&quot; as=&quot;sourcePoint&quot; /&gt;&#xA;            &lt;mxPoint x=&quot;308.9442719099991&quot; y=&quot;242.11145618000182&quot; as=&quot;targetPoint&quot; /&gt;&#xA;          &lt;/mxGeometry&gt;&#xA;        &lt;/mxCell&gt;&#xA;        &lt;mxCell id=&quot;Fe5Hhg4mf-TjiMpwq18P-18&quot; value=&quot;&quot; style=&quot;ellipse;whiteSpace=wrap;html=1;aspect=fixed;sketch=1;curveFitting=1;jiggle=1;fillColor=#f9f7ed;strokeColor=#36393d;fillStyle=solid;strokeWidth=2;&quot; parent=&quot;1&quot; vertex=&quot;1&quot;&gt;&#xA;          &lt;mxGeometry x=&quot;240&quot; y=&quot;320&quot; width=&quot;40&quot; height=&quot;40&quot; as=&quot;geometry&quot; /&gt;&#xA;        &lt;/mxCell&gt;&#xA;        &lt;mxCell id=&quot;Fe5Hhg4mf-TjiMpwq18P-22&quot; value=&quot;&quot; style=&quot;endArrow=classic;html=1;rounded=0;sketch=1;curveFitting=1;jiggle=1;strokeWidth=2;&quot; parent=&quot;1&quot; source=&quot;Fe5Hhg4mf-TjiMpwq18P-7&quot; target=&quot;Fe5Hhg4mf-TjiMpwq18P-18&quot; edge=&quot;1&quot;&gt;&#xA;          &lt;mxGeometry width=&quot;50&quot; height=&quot;50&quot; relative=&quot;1&quot; as=&quot;geometry&quot;&gt;&#xA;            &lt;mxPoint x=&quot;311&quot; y=&quot;298&quot; as=&quot;sourcePoint&quot; /&gt;&#xA;            &lt;mxPoint x=&quot;289&quot; y=&quot;342&quot; as=&quot;targetPoint&quot; /&gt;&#xA;          &lt;/mxGeometry&gt;&#xA;        &lt;/mxCell&gt;&#xA;        &lt;mxCell id=&quot;Fe5Hhg4mf-TjiMpwq18P-23&quot; value=&quot;&quot; style=&quot;endArrow=classic;html=1;rounded=0;sketch=1;curveFitting=1;jiggle=1;strokeWidth=2;&quot; parent=&quot;1&quot; source=&quot;Fe5Hhg4mf-TjiMpwq18P-5&quot; target=&quot;Fe5Hhg4mf-TjiMpwq18P-18&quot; edge=&quot;1&quot;&gt;&#xA;          &lt;mxGeometry width=&quot;50&quot; height=&quot;50&quot; relative=&quot;1&quot; as=&quot;geometry&quot;&gt;&#xA;            &lt;mxPoint x=&quot;321&quot; y=&quot;308&quot; as=&quot;sourcePoint&quot; /&gt;&#xA;            &lt;mxPoint x=&quot;299&quot; y=&quot;352&quot; as=&quot;targetPoint&quot; /&gt;&#xA;          &lt;/mxGeometry&gt;&#xA;        &lt;/mxCell&gt;&#xA;      &lt;/root&gt;&#xA;    &lt;/mxGraphModel&gt;&#xA;  &lt;/diagram&gt;&#xA;&lt;/mxfile&gt;&#xA;"><defs/><g><g data-cell-id="0"><g data-cell-id="1"><g data-cell-id="Fe5Hhg4mf-TjiMpwq18P-1"><g><ellipse cx="141" cy="21" rx="20" ry="20" fill="transparent" stroke="none" pointer-events="all"/><path d="M 140.74 0.1 C 144.7 -0.07 150.77 3.41 154.14 6.43 C 157.51 9.45 160.23 14.05 160.94 18.2 C 161.65 22.36 160.67 27.88 158.41 31.37 C 156.14 34.86 151.58 37.72 147.38 39.12 C 143.19 40.52 137.13 41.2 133.24 39.78 C 129.35 38.36 126.06 34.46 124.03 30.62 C 121.99 26.77 120.19 21 121.01 16.72 C 121.84 12.43 125.29 7.38 128.99 4.93 C 132.69 2.49 140.5 2.67 143.21 2.05 C 145.92 1.43 145.15 0.94 145.24 1.21 M 140.7 1.85 C 144.93 1.38 150.62 2.44 153.87 4.86 C 157.12 7.27 159.48 12.19 160.17 16.35 C 160.87 20.51 160.09 25.8 158.03 29.82 C 155.97 33.84 151.77 39.02 147.82 40.46 C 143.88 41.9 138.48 39.74 134.37 38.44 C 130.25 37.14 125.49 36.22 123.12 32.66 C 120.75 29.1 119.3 21.58 120.15 17.09 C 121.01 12.6 124.89 8.25 128.24 5.72 C 131.59 3.18 138.1 2.6 140.25 1.89 C 142.4 1.18 141.12 1.27 141.14 1.45" fill="#f9f7ed" style="fill: rgb(249, 247, 237);" stroke="none" pointer-events="all"/><path d="M 140.27 0.19 C 144.24 -0.28 149.19 2.48 152.72 5.07 C 156.24 7.66 160.29 11.56 161.41 15.72 C 162.52 19.88 161.56 26.05 159.39 30.04 C 157.21 34.03 152.28 38.02 148.36 39.66 C 144.43 41.31 139.98 41.22 135.84 39.9 C 131.7 38.57 125.86 35.21 123.53 31.72 C 121.19 28.23 121.08 23.17 121.83 18.94 C 122.57 14.7 124.41 9.16 127.99 6.33 C 131.57 3.51 139.87 2.51 143.3 1.97 C 146.73 1.44 148.32 2.75 148.58 3.11 M 144.09 1.5 C 148.37 1.65 152.21 3.14 154.99 6.1 C 157.77 9.05 160.61 15.07 160.77 19.24 C 160.94 23.42 158.19 27.89 155.98 31.16 C 153.76 34.44 151.36 37.51 147.47 38.91 C 143.59 40.32 136.83 41.1 132.66 39.58 C 128.5 38.06 124.53 33.6 122.48 29.81 C 120.43 26.02 119.01 20.95 120.36 16.86 C 121.7 12.77 126.8 7.72 130.54 5.28 C 134.28 2.85 140.54 2.87 142.8 2.25 C 145.05 1.63 144.33 1.66 144.07 1.56" fill="none" stroke="#36393d" style="stroke: rgb(54, 57, 61);" stroke-width="2" stroke-linejoin="round" stroke-linecap="round" stroke-miterlimit="10" pointer-events="all"/></g></g><g data-cell-id="Fe5Hhg4mf-TjiMpwq18P-2"><g><ellipse cx="61" cy="101" rx="20" ry="20" fill="transparent" stroke="none" pointer-events="all"/><path d="M 70.47 82.38 C 74.36 83.87 78.8 88.42 80.36 92.71 C 81.93 97 81.49 103.83 79.87 108.15 C 78.26 112.47 74.29 116.62 70.65 118.62 C 67 120.62 62.01 120.96 58 120.14 C 54 119.31 49.44 116.65 46.6 113.68 C 43.76 110.7 41.34 106.54 40.99 102.28 C 40.64 98.02 41.72 91.46 44.48 88.14 C 47.23 84.81 52.78 82.98 57.52 82.33 C 62.25 81.69 69.87 83.37 72.9 84.27 C 75.94 85.18 75.77 87.33 75.72 87.74 M 59.86 81.71 C 63.82 81.07 69.22 82.59 72.47 84.96 C 75.71 87.32 78.35 91.47 79.34 95.88 C 80.34 100.29 80.36 107.49 78.46 111.39 C 76.55 115.29 71.78 118.11 67.92 119.3 C 64.05 120.49 59.25 119.85 55.27 118.53 C 51.29 117.21 46.5 114.99 44.02 111.36 C 41.54 107.73 39.61 101.02 40.39 96.74 C 41.17 92.46 45.51 88.54 48.7 85.67 C 51.9 82.81 57.67 80.36 59.56 79.55 C 61.45 78.73 59.81 80.41 60.06 80.77" fill="#f9f7ed" style="fill: rgb(249, 247, 237);" stroke="none" pointer-events="all"/><path d="M 53.91 81.27 C 57.92 79.72 64.84 80 68.82 81.73 C 72.8 83.46 75.85 87.69 77.81 91.65 C 79.76 95.62 81.16 101.38 80.54 105.52 C 79.92 109.66 77.37 113.76 74.07 116.48 C 70.77 119.2 65.07 121.9 60.75 121.83 C 56.43 121.76 51.32 118.99 48.13 116.06 C 44.94 113.14 42.44 108.7 41.63 104.28 C 40.81 99.86 40.56 93.22 43.25 89.55 C 45.94 85.88 55.13 83.61 57.74 82.26 C 60.36 80.91 58.87 81.4 58.94 81.43 M 60.01 82.09 C 63.95 81.5 68.43 82.03 71.62 84.43 C 74.8 86.82 78.08 92.18 79.13 96.45 C 80.17 100.73 79.52 106.17 77.91 110.08 C 76.3 113.99 73.14 118.34 69.45 119.92 C 65.76 121.49 60 120.89 55.75 119.53 C 51.51 118.17 46.41 115.15 43.97 111.74 C 41.54 108.34 40.72 103.17 41.15 99.13 C 41.58 95.08 43.3 90.3 46.56 87.46 C 49.81 84.63 58.58 83.16 60.7 82.11 C 62.82 81.06 59.46 80.99 59.28 81.19" fill="none" stroke="#36393d" style="stroke: rgb(54, 57, 61);" stroke-width="2" stroke-linejoin="round" stroke-linecap="round" stroke-miterlimit="10" pointer-events="all"/></g></g><g data-cell-id="Fe5Hhg4mf-TjiMpwq18P-3"><g><ellipse cx="221" cy="101" rx="20" ry="20" fill="transparent" stroke="none" pointer-events="all"/><path d="M 218.97 81.99 C 222.83 81.49 229.35 82.66 232.87 85.05 C 236.39 87.44 239.13 92.27 240.07 96.35 C 241.02 100.43 240.51 105.79 238.55 109.56 C 236.58 113.33 232.31 117.14 228.29 118.98 C 224.27 120.81 218.55 121.89 214.42 120.54 C 210.29 119.2 205.58 114.74 203.51 110.92 C 201.44 107.11 201.2 101.75 202 97.68 C 202.8 93.61 205.14 89.4 208.31 86.51 C 211.48 83.62 218.52 81.05 221.03 80.34 C 223.55 79.64 223.25 81.93 223.42 82.28 M 219.03 81.58 C 223.21 81.25 230.32 82.25 234.06 85.06 C 237.81 87.86 240.71 94.26 241.51 98.41 C 242.32 102.56 241.14 106.68 238.88 109.96 C 236.63 113.25 231.79 116.69 228.01 118.14 C 224.22 119.58 220.02 119.96 216.17 118.62 C 212.32 117.27 207.51 113.26 204.92 110.06 C 202.33 106.86 199.92 103.46 200.63 99.39 C 201.34 95.32 205.63 88.83 209.17 85.63 C 212.71 82.43 220.23 81.13 221.87 80.2 C 223.5 79.28 218.99 79.55 218.97 80.09" fill="#f9f7ed" style="fill: rgb(249, 247, 237);" stroke="none" pointer-events="all"/><path d="M 229.09 82.23 C 233.08 83.9 238.2 88.75 239.97 92.85 C 241.74 96.94 241.04 102.62 239.72 106.81 C 238.4 111 235.41 115.77 232.03 117.98 C 228.65 120.19 223.6 120.55 219.47 120.09 C 215.34 119.62 210.36 117.95 207.26 115.2 C 204.16 112.44 201.28 107.69 200.86 103.55 C 200.43 99.41 202.28 93.93 204.7 90.35 C 207.13 86.78 210.84 83.03 215.39 82.12 C 219.95 81.2 229.15 84.38 232.01 84.88 C 234.87 85.39 232.7 85.15 232.55 85.15 M 215.97 80.15 C 219.96 78.83 226.96 80.86 230.97 83.13 C 234.98 85.4 238.62 90 240.03 93.77 C 241.44 97.55 240.9 101.83 239.43 105.79 C 237.97 109.74 234.65 114.79 231.24 117.5 C 227.83 120.2 223.2 122.71 218.97 122.03 C 214.74 121.35 208.61 116.85 205.85 113.42 C 203.09 109.99 202.4 105.35 202.41 101.44 C 202.41 97.54 203.68 93.15 205.89 89.98 C 208.09 86.81 213.7 83.89 215.64 82.43 C 217.58 80.98 217.13 81.27 217.53 81.26" fill="none" stroke="#36393d" style="stroke: rgb(54, 57, 61);" stroke-width="2" stroke-linejoin="round" stroke-linecap="round" stroke-miterlimit="10" pointer-events="all"/></g></g><g data-cell-id="Fe5Hhg4mf-TjiMpwq18P-4"><g><path d="M 155.14 35.14 L 201.03 81.03" fill="none" stroke="none" pointer-events="stroke"/><path d="M 205.28 85.28 L 196.79 82.45 L 201.03 81.03 L 202.45 76.79 Z" fill="none" stroke="none" pointer-events="all"/><path d="M 155.14 35.14 C 166.79 49.29 183.18 63.37 201.03 81.03 M 155.14 35.14 C 170.77 51.09 186.85 68.54 201.03 81.03" fill="none" stroke="#000000" style="stroke: rgb(0, 0, 0);" stroke-width="2" stroke-linejoin="round" stroke-linecap="round" stroke-miterlimit="10" pointer-events="stroke"/><path d="M 205.28 85.28 C 203.6 85.84 201.51 83.85 196.79 82.45 C 198.78 81.4 199.98 81.81 201.03 81.03 C 201.59 79.21 202.51 77.72 202.45 76.79 C 202.49 79.29 203.83 81.22 205.28 85.28" fill="#000000" style="fill: rgb(0, 0, 0);" stroke="none" pointer-events="all"/><path d="M 205.28 85.28 C 202.05 84.72 201.01 84.28 196.79 82.45 M 205.28 85.28 C 202.15 84.05 199.12 83.62 196.79 82.45 M 196.79 82.45 C 197.71 81.69 198.1 81.42 201.03 81.03 M 196.79 82.45 C 197.94 82.11 199.07 81.82 201.03 81.03 M 201.03 81.03 C 200.97 80.48 201.31 79.61 202.45 76.79 M 201.03 81.03 C 201.31 80.07 201.71 78.96 202.45 76.79 M 202.45 76.79 C 203 78.2 204.19 80.04 205.28 85.28 M 202.45 76.79 C 203.02 78.85 203.35 80.15 205.28 85.28" fill="none" stroke="#000000" style="stroke: rgb(0, 0, 0);" stroke-width="2" stroke-linejoin="round" stroke-linecap="round" stroke-miterlimit="10" pointer-events="all"/></g></g><g data-cell-id="Fe5Hhg4mf-TjiMpwq18P-5"><g><ellipse cx="21" cy="181" rx="20" ry="20" fill="transparent" stroke="none" pointer-events="all"/><path d="M 17.21 162.04 C 21.27 161.21 27.86 161.71 31.5 163.79 C 35.14 165.88 37.55 170.55 39.05 174.53 C 40.56 178.51 41.87 183.65 40.55 187.68 C 39.23 191.7 34.95 196.44 31.13 198.69 C 27.32 200.94 21.99 202.09 17.65 201.16 C 13.32 200.24 7.88 196.56 5.13 193.15 C 2.37 189.73 1.04 184.82 1.14 180.66 C 1.24 176.5 2.79 171.5 5.74 168.2 C 8.68 164.9 16.5 161.96 18.79 160.88 C 21.07 159.79 19.2 161.27 19.43 161.69 M 20.36 161.3 C 24.5 161.13 31.01 162.57 34.25 165.26 C 37.5 167.96 38.94 173.34 39.85 177.48 C 40.77 181.62 41.68 186.55 39.73 190.11 C 37.79 193.66 32.32 197.36 28.19 198.81 C 24.07 200.25 19.06 200.18 14.98 198.78 C 10.9 197.39 6.04 193.81 3.72 190.46 C 1.41 187.11 0.55 182.84 1.11 178.69 C 1.67 174.54 3.88 168.41 7.1 165.55 C 10.33 162.69 18.36 162.16 20.48 161.52 C 22.6 160.88 19.85 161.34 19.8 161.73" fill="#f9f7ed" style="fill: rgb(249, 247, 237);" stroke="none" pointer-events="all"/><path d="M 18.43 160.78 C 22.56 160.25 28.93 162.88 32.54 165.43 C 36.15 167.99 38.94 172.21 40.08 176.1 C 41.23 180 41.1 184.96 39.43 188.79 C 37.76 192.63 34.02 197.18 30.08 199.13 C 26.14 201.07 19.98 201.63 15.79 200.44 C 11.59 199.25 7.41 195.68 4.91 192 C 2.4 188.31 0.31 182.39 0.76 178.35 C 1.22 174.31 3.69 170.73 7.63 167.75 C 11.57 164.77 20.78 161.13 24.42 160.48 C 28.07 159.84 29.5 163.49 29.52 163.88 M 30.44 163.08 C 34.12 164.79 36.3 169.61 38.13 173.73 C 39.96 177.85 42.45 183.97 41.43 187.8 C 40.41 191.64 35.71 194.43 32 196.73 C 28.29 199.03 23.29 202.11 19.17 201.58 C 15.06 201.06 10.42 196.79 7.32 193.6 C 4.21 190.41 0.73 186.38 0.53 182.44 C 0.32 178.5 3.35 173.7 6.1 169.97 C 8.86 166.24 12.89 161.08 17.05 160.06 C 21.21 159.05 28.86 163.53 31.05 163.89 C 33.24 164.24 30.43 162.14 30.18 162.2" fill="none" stroke="#36393d" style="stroke: rgb(54, 57, 61);" stroke-width="2" stroke-linejoin="round" stroke-linecap="round" stroke-miterlimit="10" pointer-events="all"/></g></g><g data-cell-id="Fe5Hhg4mf-TjiMpwq18P-6"><g><path d="M 126.86 35.14 L 80.97 81.03" fill="none" stroke="none" pointer-events="stroke"/><path d="M 76.72 85.28 L 79.55 76.79 L 80.97 81.03 L 85.21 82.45 Z" fill="none" stroke="none" pointer-events="all"/><path d="M 126.86 35.14 C 113.9 46.93 101.46 61.41 80.97 81.03 M 126.86 35.14 C 113.24 49.07 98.71 62.37 80.97 81.03" fill="none" stroke="#000000" style="stroke: rgb(0, 0, 0);" stroke-width="2" stroke-linejoin="round" stroke-linecap="round" stroke-miterlimit="10" pointer-events="stroke"/><path d="M 76.72 85.28 C 77.71 82.92 80.15 77.87 79.55 76.79 C 80.55 78.66 81.01 79.03 80.97 81.03 C 81.92 81.19 82.91 82.05 85.21 82.45 C 82.5 82.72 80.53 83.59 76.72 85.28" fill="#000000" style="fill: rgb(0, 0, 0);" stroke="none" pointer-events="all"/><path d="M 76.72 85.28 C 77.48 82.21 78.65 80.31 79.55 76.79 M 76.72 85.28 C 77.6 82.74 78.02 80.1 79.55 76.79 M 79.55 76.79 C 79.81 77.6 80.1 79.08 80.97 81.03 M 79.55 76.79 C 79.88 77.82 80.06 78.89 80.97 81.03 M 80.97 81.03 C 82.7 81.49 84.16 81.8 85.21 82.45 M 80.97 81.03 C 82.42 81.65 83.88 82.03 85.21 82.45 M 85.21 82.45 C 83.32 83.01 80.23 83.76 76.72 85.28 M 85.21 82.45 C 82.14 83.46 80.19 84.58 76.72 85.28" fill="none" stroke="#000000" style="stroke: rgb(0, 0, 0);" stroke-width="2" stroke-linejoin="round" stroke-linecap="round" stroke-miterlimit="10" pointer-events="all"/></g></g><g data-cell-id="Fe5Hhg4mf-TjiMpwq18P-7"><g><ellipse cx="101" cy="181" rx="20" ry="20" fill="transparent" stroke="none" pointer-events="all"/><path d="M 95.46 162.24 C 99.36 161.09 105.99 160.91 110.06 162.67 C 114.13 164.42 118.16 168.58 119.89 172.76 C 121.61 176.94 121.75 183.49 120.42 187.74 C 119.09 191.99 115.49 195.95 111.91 198.27 C 108.32 200.58 103.09 202.13 98.92 201.63 C 94.74 201.13 89.94 198.61 86.86 195.28 C 83.78 191.95 80.7 185.86 80.43 181.65 C 80.17 177.43 81.94 173.4 85.28 169.99 C 88.61 166.59 97.14 162.65 100.44 161.24 C 103.74 159.83 105.16 161.38 105.07 161.54 M 98.69 161.03 C 102.79 160.52 110.69 162.88 114.44 165.47 C 118.2 168.05 120.67 172.41 121.19 176.54 C 121.71 180.67 119.72 186.43 117.58 190.25 C 115.45 194.07 112.34 198.02 108.38 199.47 C 104.41 200.92 97.59 200.39 93.78 198.95 C 89.98 197.52 87.56 194.36 85.53 190.86 C 83.5 187.37 81.17 182.23 81.59 178 C 82.01 173.76 85.12 168.5 88.04 165.47 C 90.96 162.45 97 160.69 99.09 159.84 C 101.19 158.99 100.72 159.63 100.63 160.37" fill="#f9f7ed" style="fill: rgb(249, 247, 237);" stroke="none" pointer-events="all"/><path d="M 109.31 162.48 C 113.19 163.76 116.15 167.2 118.06 170.99 C 119.97 174.77 121.7 180.86 120.74 185.19 C 119.79 189.52 115.92 194.17 112.34 196.95 C 108.75 199.74 103.46 202.04 99.25 201.89 C 95.03 201.74 89.93 199.03 87.04 196.04 C 84.15 193.05 82.53 188.34 81.91 183.95 C 81.29 179.55 81.16 173.44 83.32 169.66 C 85.47 165.87 90.51 162.43 94.85 161.23 C 99.2 160.03 106.84 162.01 109.39 162.46 C 111.95 162.9 110.22 163.51 110.19 163.9 M 105.62 162.39 C 109.49 163.17 113.44 165.86 115.84 169.16 C 118.24 172.46 119.79 178.28 120.04 182.22 C 120.29 186.15 120.09 189.9 117.33 192.78 C 114.57 195.65 107.59 198.57 103.46 199.46 C 99.33 200.36 96.17 200.23 92.55 198.15 C 88.92 196.06 83.33 191.01 81.72 186.97 C 80.11 182.92 81.34 177.89 82.9 173.86 C 84.47 169.83 87.57 164.8 91.12 162.78 C 94.66 160.76 102.05 161.76 104.19 161.73 C 106.32 161.7 104.02 162.41 103.92 162.61" fill="none" stroke="#36393d" style="stroke: rgb(54, 57, 61);" stroke-width="2" stroke-linejoin="round" stroke-linecap="round" stroke-miterlimit="10" pointer-events="all"/></g></g><g data-cell-id="Fe5Hhg4mf-TjiMpwq18P-11"><g><path d="M 69.94 118.89 L 88.37 155.74" fill="none" stroke="none" pointer-events="stroke"/><path d="M 91.06 161.11 L 83.9 155.74 L 88.37 155.74 L 91.06 152.17 Z" fill="none" stroke="none" pointer-events="all"/><path d="M 69.94 118.89 C 76.94 130.18 80.77 144.12 88.37 155.74 M 69.94 118.89 C 77.46 131.04 84.04 143.96 88.37 155.74" fill="none" stroke="#000000" style="stroke: rgb(0, 0, 0);" stroke-width="2" stroke-linejoin="round" stroke-linecap="round" stroke-miterlimit="10" pointer-events="stroke"/><path d="M 91.06 161.11 C 89.99 160.97 88.24 156.75 83.9 155.74 C 84.72 156.48 85.66 156.56 88.37 155.74 C 89.69 155.49 90.09 154.46 91.06 152.17 C 90.89 154.93 91.93 154.95 91.06 161.11" fill="#000000" style="fill: rgb(0, 0, 0);" stroke="none" pointer-events="all"/><path d="M 91.06 161.11 C 89.02 158.51 85.45 157.25 83.9 155.74 M 91.06 161.11 C 88.85 158.93 86.36 157 83.9 155.74 M 83.9 155.74 C 85.24 155.56 86.02 155.72 88.37 155.74 M 83.9 155.74 C 84.82 155.77 85.76 155.83 88.37 155.74 M 88.37 155.74 C 88.98 155.03 89.66 154.39 91.06 152.17 M 88.37 155.74 C 89.42 154.51 90.65 152.73 91.06 152.17 M 91.06 152.17 C 91.26 154.92 91.22 157.71 91.06 161.11 M 91.06 152.17 C 91.09 154.64 90.71 156.81 91.06 161.11" fill="none" stroke="#000000" style="stroke: rgb(0, 0, 0);" stroke-width="2" stroke-linejoin="round" stroke-linecap="round" stroke-miterlimit="10" pointer-events="all"/></g></g><g data-cell-id="Fe5Hhg4mf-TjiMpwq18P-14"><g><path d="M 52.06 118.89 L 33.63 155.74" fill="none" stroke="none" pointer-events="stroke"/><path d="M 30.94 161.11 L 30.94 152.17 L 33.63 155.74 L 38.1 155.74 Z" fill="none" stroke="none" pointer-events="all"/><path d="M 52.06 118.89 C 47.18 131.01 38.83 145.54 33.63 155.74 M 52.06 118.89 C 46 132.49 38 145.66 33.63 155.74" fill="none" stroke="#000000" style="stroke: rgb(0, 0, 0);" stroke-width="2" stroke-linejoin="round" stroke-linecap="round" stroke-miterlimit="10" pointer-events="stroke"/><path d="M 30.94 161.11 C 29.2 157.88 31.25 156.76 30.94 152.17 C 32.14 153.32 33.12 155.14 33.63 155.74 C 34.22 155.63 36.54 155.32 38.1 155.74 C 35.31 158.29 32.57 159.71 30.94 161.11" fill="#000000" style="fill: rgb(0, 0, 0);" stroke="none" pointer-events="all"/><path d="M 30.94 161.11 C 31.59 157.76 30.68 155.54 30.94 152.17 M 30.94 161.11 C 31.02 157.77 30.48 154.27 30.94 152.17 M 30.94 152.17 C 31.95 153.74 32.76 154.14 33.63 155.74 M 30.94 152.17 C 31.74 153.16 32.82 154.7 33.63 155.74 M 33.63 155.74 C 34.62 155.65 36.49 155.88 38.1 155.74 M 33.63 155.74 C 34.98 155.55 36.36 155.77 38.1 155.74 M 38.1 155.74 C 36.09 157.68 34.72 158.5 30.94 161.11 M 38.1 155.74 C 35.95 157.55 33.59 158.88 30.94 161.11" fill="none" stroke="#000000" style="stroke: rgb(0, 0, 0);" stroke-width="2" stroke-linejoin="round" stroke-linecap="round" stroke-miterlimit="10" pointer-events="all"/></g></g><g data-cell-id="Fe5Hhg4mf-TjiMpwq18P-15"><g><path d="M 212.06 118.89 L 153.63 235.74" fill="none" stroke="none" pointer-events="stroke"/><path d="M 150.94 241.11 L 150.94 232.17 L 153.63 235.74 L 158.1 235.74 Z" fill="none" stroke="none" pointer-events="all"/><path d="M 212.06 118.89 C 192.51 157.2 173.27 199.38 153.63 235.74 M 212.06 118.89 C 196.53 146.66 182.81 175.62 153.63 235.74" fill="none" stroke="#000000" style="stroke: rgb(0, 0, 0);" stroke-width="2" stroke-linejoin="round" stroke-linecap="round" stroke-miterlimit="10" pointer-events="stroke"/><path d="M 150.94 241.11 C 150.72 238.67 150.2 235.07 150.94 232.17 C 150.95 232.79 151.72 233.37 153.63 235.74 C 155.22 236.49 156.75 235.62 158.1 235.74 C 157.5 238.13 153.41 239.92 150.94 241.11" fill="#000000" style="fill: rgb(0, 0, 0);" stroke="none" pointer-events="all"/><path d="M 150.94 241.11 C 151.06 237.29 151.42 235.16 150.94 232.17 M 150.94 241.11 C 150.83 239.01 151 237.2 150.94 232.17 M 150.94 232.17 C 151.93 233.42 152.59 234.54 153.63 235.74 M 150.94 232.17 C 151.95 233.06 152.72 234.46 153.63 235.74 M 153.63 235.74 C 155.21 235.9 155.56 235.57 158.1 235.74 M 153.63 235.74 C 155.44 235.57 156.78 235.55 158.1 235.74 M 158.1 235.74 C 155.81 237.37 155.11 238.68 150.94 241.11 M 158.1 235.74 C 156.63 237.26 154.69 238.27 150.94 241.11" fill="none" stroke="#000000" style="stroke: rgb(0, 0, 0);" stroke-width="2" stroke-linejoin="round" stroke-linecap="round" stroke-miterlimit="10" pointer-events="all"/></g></g><g data-cell-id="Fe5Hhg4mf-TjiMpwq18P-18"><g><ellipse cx="141" cy="261" rx="20" ry="20" fill="transparent" stroke="none" pointer-events="all"/><path d="M 133.56 242.66 C 137.17 240.91 141.89 240.49 146.11 241.81 C 150.33 243.13 156.51 247.09 158.87 250.6 C 161.24 254.11 161.14 258.78 160.3 262.87 C 159.45 266.96 156.82 272.06 153.79 275.13 C 150.75 278.19 146.28 281.12 142.07 281.25 C 137.86 281.39 131.84 278.55 128.52 275.94 C 125.19 273.33 122.97 269.54 122.09 265.59 C 121.21 261.64 120.79 256.2 123.22 252.23 C 125.65 248.27 134.08 243.49 136.69 241.8 C 139.29 240.11 138.97 241.91 138.86 242.1 M 143.86 241.43 C 147.94 241.74 151.2 244.47 154.18 247.47 C 157.16 250.48 161.21 255.54 161.75 259.44 C 162.3 263.34 160.13 267.22 157.46 270.88 C 154.8 274.55 149.82 280.2 145.78 281.41 C 141.74 282.61 137.09 280.27 133.23 278.11 C 129.37 275.95 124.79 272.21 122.62 268.45 C 120.45 264.7 118.94 259.77 120.22 255.61 C 121.5 251.44 126.85 245.69 130.31 243.44 C 133.78 241.2 138.89 242.62 141.03 242.15 C 143.18 241.69 142.98 240.61 143.2 240.64" fill="#f9f7ed" style="fill: rgb(249, 247, 237);" stroke="none" pointer-events="all"/><path d="M 136.67 240.92 C 140.92 239.57 147.57 240.45 151.53 242.63 C 155.48 244.81 159.13 249.95 160.4 254.01 C 161.66 258.08 160.73 262.82 159.13 267 C 157.54 271.18 154.42 276.91 150.82 279.08 C 147.22 281.26 141.8 280.71 137.53 280.06 C 133.25 279.4 128.04 278.26 125.17 275.16 C 122.31 272.06 120.14 265.79 120.31 261.45 C 120.48 257.11 122.87 252.67 126.19 249.11 C 129.52 245.55 137.68 241.3 140.28 240.1 C 142.89 238.9 141.83 241.37 141.83 241.92 M 140.49 240.73 C 144.33 240.47 149.13 241.59 152.66 244.36 C 156.2 247.12 160.63 252.78 161.69 257.32 C 162.76 261.86 161.5 268.03 159.03 271.6 C 156.56 275.17 151.25 277.6 146.88 278.73 C 142.51 279.85 136.6 279.44 132.82 278.35 C 129.03 277.26 126.27 275.64 124.16 272.18 C 122.05 268.72 119.62 262.16 120.15 257.57 C 120.67 252.97 123.64 247.41 127.31 244.62 C 130.99 241.84 139.63 241.25 142.19 240.85 C 144.75 240.45 142.61 242.03 142.66 242.24" fill="none" stroke="#36393d" style="stroke: rgb(54, 57, 61);" stroke-width="2" stroke-linejoin="round" stroke-linecap="round" stroke-miterlimit="10" pointer-events="all"/></g></g><g data-cell-id="Fe5Hhg4mf-TjiMpwq18P-22"><g><path d="M 109.94 198.89 L 128.37 235.74" fill="none" stroke="none" pointer-events="stroke"/><path d="M 131.06 241.11 L 123.9 235.74 L 128.37 235.74 L 131.06 232.17 Z" fill="none" stroke="none" pointer-events="all"/><path d="M 109.94 198.89 C 116.91 212.94 123.08 225.26 128.37 235.74 M 109.94 198.89 C 114.08 208.46 119.3 218.82 128.37 235.74" fill="none" stroke="#000000" style="stroke: rgb(0, 0, 0);" stroke-width="2" stroke-linejoin="round" stroke-linecap="round" stroke-miterlimit="10" pointer-events="stroke"/><path d="M 131.06 241.11 C 128.76 239.67 128.39 238.91 123.9 235.74 C 125.32 235.91 127.23 235.39 128.37 235.74 C 128.84 234.08 130.45 232.37 131.06 232.17 C 132.73 235.2 130.88 237.4 131.06 241.11" fill="#000000" style="fill: rgb(0, 0, 0);" stroke="none" pointer-events="all"/><path d="M 131.06 241.11 C 128.69 239.82 126.16 237.83 123.9 235.74 M 131.06 241.11 C 128.76 239.77 127.13 238.79 123.9 235.74 M 123.9 235.74 C 125.81 235.9 127.04 235.46 128.37 235.74 M 123.9 235.74 C 124.7 235.85 125.85 235.68 128.37 235.74 M 128.37 235.74 C 129.59 234.43 130.56 233.17 131.06 232.17 M 128.37 235.74 C 129.14 234.48 129.84 233.56 131.06 232.17 M 131.06 232.17 C 131.52 235.52 130.12 238.27 131.06 241.11 M 131.06 232.17 C 131.27 234.8 131.48 237.81 131.06 241.11" fill="none" stroke="#000000" style="stroke: rgb(0, 0, 0);" stroke-width="2" stroke-linejoin="round" stroke-linecap="round" stroke-miterlimit="10" pointer-events="all"/></g></g><g data-cell-id="Fe5Hhg4mf-TjiMpwq18P-23"><g><path d="M 37.69 192.02 L 117.51 245.33" fill="none" stroke="none" pointer-events="stroke"/><path d="M 122.5 248.66 L 113.63 247.55 L 117.51 245.33 L 118.07 240.89 Z" fill="none" stroke="none" pointer-events="all"/><path d="M 37.69 192.02 C 63.76 210.02 93.82 228.19 117.51 245.33 M 37.69 192.02 C 63.7 209.39 90.02 227.04 117.51 245.33" fill="none" stroke="#000000" style="stroke: rgb(0, 0, 0);" stroke-width="2" stroke-linejoin="round" stroke-linecap="round" stroke-miterlimit="10" pointer-events="stroke"/><path d="M 122.5 248.66 C 120.32 249.9 116.2 248.52 113.63 247.55 C 115.11 246.76 116.44 246.32 117.51 245.33 C 117.77 244.7 117.36 242.62 118.07 240.89 C 119.39 243.3 120.14 245.48 122.5 248.66" fill="#000000" style="fill: rgb(0, 0, 0);" stroke="none" pointer-events="all"/><path d="M 122.5 248.66 C 119.09 248.47 117.24 248.03 113.63 247.55 M 122.5 248.66 C 119.71 248.49 116.82 248.17 113.63 247.55 M 113.63 247.55 C 115.39 246.5 116.3 245.83 117.51 245.33 M 113.63 247.55 C 115.25 246.73 116.7 245.65 117.51 245.33 M 117.51 245.33 C 117.77 244.14 118.35 242.16 118.07 240.89 M 117.51 245.33 C 117.88 243.66 117.73 242.04 118.07 240.89 M 118.07 240.89 C 119.33 243.38 121.31 246.04 122.5 248.66 M 118.07 240.89 C 118.86 242.78 120.27 244.98 122.5 248.66" fill="none" stroke="#000000" style="stroke: rgb(0, 0, 0);" stroke-width="2" stroke-linejoin="round" stroke-linecap="round" stroke-miterlimit="10" pointer-events="all"/></g></g></g></g></g></svg>