<?xml version="1.0" encoding="UTF-8"?>
<!-- Do not edit this file with editors other than draw.io -->
<!DOCTYPE svg PUBLIC "-//W3C//DTD SVG 1.1//EN" "http://www.w3.org/Graphics/SVG/1.1/DTD/svg11.dtd">
<svg xmlns="http://www.w3.org/2000/svg" xmlns:xlink="http://www.w3.org/1999/xlink" version="1.1" width="201px" height="201px" viewBox="-0.5 -0.5 201 201" content="&lt;mxfile host=&quot;app.diagrams.net&quot; agent=&quot;Mozilla/5.0 (X11; Linux x86_64; rv:131.0) Gecko/20100101 Firefox/131.0&quot; version=&quot;24.8.3&quot; scale=&quot;1&quot; border=&quot;0&quot;&gt;&#xA;  &lt;diagram name=&quot;Page-1&quot; id=&quot;4gvn3QyQ2n1BvgXgqgH-&quot;&gt;&#xA;    &lt;mxGraphModel dx=&quot;1114&quot; dy=&quot;566&quot; grid=&quot;1&quot; gridSize=&quot;10&quot; guides=&quot;1&quot; tooltips=&quot;1&quot; connect=&quot;1&quot; arrows=&quot;1&quot; fold=&quot;1&quot; page=&quot;1&quot; pageScale=&quot;1&quot; pageWidth=&quot;600&quot; pageHeight=&quot;550&quot; math=&quot;0&quot; shadow=&quot;0&quot;&gt;&#xA;      &lt;root&gt;&#xA;        &lt;mxCell id=&quot;0&quot; /&gt;&#xA;        &lt;mxCell id=&quot;1&quot; parent=&quot;0&quot; /&gt;&#xA;        &lt;mxCell id=&quot;ahl_oFsp3ZpYQsmE7bn_-1&quot; value=&quot;&quot; style=&quot;ellipse;whiteSpace=wrap;html=1;aspect=fixed;sketch=1;curveFitting=1;jiggle=1;fillColor=#f8cecc;strokeColor=#b85450;fillStyle=solid;&quot; vertex=&quot;1&quot; parent=&quot;1&quot;&gt;&#xA;          &lt;mxGeometry x=&quot;200&quot; y=&quot;40&quot; width=&quot;40&quot; height=&quot;40&quot; as=&quot;geometry&quot; /&gt;&#xA;        &lt;/mxCell&gt;&#xA;        &lt;mxCell id=&quot;ahl_oFsp3ZpYQsmE7bn_-2&quot; value=&quot;&quot; style=&quot;ellipse;whiteSpace=wrap;html=1;aspect=fixed;sketch=1;curveFitting=1;jiggle=1;&quot; vertex=&quot;1&quot; parent=&quot;1&quot;&gt;&#xA;          &lt;mxGeometry x=&quot;120&quot; y=&quot;120&quot; width=&quot;40&quot; height=&quot;40&quot; as=&quot;geometry&quot; /&gt;&#xA;        &lt;/mxCell&gt;&#xA;        &lt;mxCell id=&quot;ahl_oFsp3ZpYQsmE7bn_-3&quot; value=&quot;&quot; style=&quot;ellipse;whiteSpace=wrap;html=1;aspect=fixed;sketch=1;curveFitting=1;jiggle=1;&quot; vertex=&quot;1&quot; parent=&quot;1&quot;&gt;&#xA;          &lt;mxGeometry x=&quot;280&quot; y=&quot;120&quot; width=&quot;40&quot; height=&quot;40&quot; as=&quot;geometry&quot; /&gt;&#xA;        &lt;/mxCell&gt;&#xA;        &lt;mxCell id=&quot;ahl_oFsp3ZpYQsmE7bn_-4&quot; value=&quot;&quot; style=&quot;endArrow=classic;html=1;rounded=0;sketch=1;curveFitting=1;jiggle=1;&quot; edge=&quot;1&quot; parent=&quot;1&quot; source=&quot;ahl_oFsp3ZpYQsmE7bn_-1&quot; target=&quot;ahl_oFsp3ZpYQsmE7bn_-3&quot;&gt;&#xA;          &lt;mxGeometry width=&quot;50&quot; height=&quot;50&quot; relative=&quot;1&quot; as=&quot;geometry&quot;&gt;&#xA;            &lt;mxPoint x=&quot;230&quot; y=&quot;280&quot; as=&quot;sourcePoint&quot; /&gt;&#xA;            &lt;mxPoint x=&quot;280&quot; y=&quot;230&quot; as=&quot;targetPoint&quot; /&gt;&#xA;          &lt;/mxGeometry&gt;&#xA;        &lt;/mxCell&gt;&#xA;        &lt;mxCell id=&quot;ahl_oFsp3ZpYQsmE7bn_-5&quot; value=&quot;&quot; style=&quot;endArrow=classic;html=1;rounded=0;sketch=1;curveFitting=1;jiggle=1;&quot; edge=&quot;1&quot; parent=&quot;1&quot; source=&quot;ahl_oFsp3ZpYQsmE7bn_-1&quot; target=&quot;ahl_oFsp3ZpYQsmE7bn_-2&quot;&gt;&#xA;          &lt;mxGeometry width=&quot;50&quot; height=&quot;50&quot; relative=&quot;1&quot; as=&quot;geometry&quot;&gt;&#xA;            &lt;mxPoint x=&quot;244&quot; y=&quot;84&quot; as=&quot;sourcePoint&quot; /&gt;&#xA;            &lt;mxPoint x=&quot;296&quot; y=&quot;136&quot; as=&quot;targetPoint&quot; /&gt;&#xA;          &lt;/mxGeometry&gt;&#xA;        &lt;/mxCell&gt;&#xA;        &lt;mxCell id=&quot;ahl_oFsp3ZpYQsmE7bn_-6&quot; value=&quot;&quot; style=&quot;ellipse;whiteSpace=wrap;html=1;aspect=fixed;sketch=1;curveFitting=1;jiggle=1;fillStyle=solid;fillColor=#dae8fc;strokeColor=#6c8ebf;&quot; vertex=&quot;1&quot; parent=&quot;1&quot;&gt;&#xA;          &lt;mxGeometry x=&quot;200&quot; y=&quot;200&quot; width=&quot;40&quot; height=&quot;40&quot; as=&quot;geometry&quot; /&gt;&#xA;        &lt;/mxCell&gt;&#xA;        &lt;mxCell id=&quot;ahl_oFsp3ZpYQsmE7bn_-7&quot; value=&quot;&quot; style=&quot;endArrow=classic;html=1;rounded=0;sketch=1;curveFitting=1;jiggle=1;&quot; edge=&quot;1&quot; parent=&quot;1&quot; source=&quot;ahl_oFsp3ZpYQsmE7bn_-2&quot; target=&quot;ahl_oFsp3ZpYQsmE7bn_-6&quot;&gt;&#xA;          &lt;mxGeometry width=&quot;50&quot; height=&quot;50&quot; relative=&quot;1&quot; as=&quot;geometry&quot;&gt;&#xA;            &lt;mxPoint x=&quot;230&quot; y=&quot;280&quot; as=&quot;sourcePoint&quot; /&gt;&#xA;            &lt;mxPoint x=&quot;280&quot; y=&quot;230&quot; as=&quot;targetPoint&quot; /&gt;&#xA;          &lt;/mxGeometry&gt;&#xA;        &lt;/mxCell&gt;&#xA;        &lt;mxCell id=&quot;ahl_oFsp3ZpYQsmE7bn_-8&quot; value=&quot;&quot; style=&quot;endArrow=classic;html=1;rounded=0;sketch=1;curveFitting=1;jiggle=1;&quot; edge=&quot;1&quot; parent=&quot;1&quot; source=&quot;ahl_oFsp3ZpYQsmE7bn_-3&quot; target=&quot;ahl_oFsp3ZpYQsmE7bn_-6&quot;&gt;&#xA;          &lt;mxGeometry width=&quot;50&quot; height=&quot;50&quot; relative=&quot;1&quot; as=&quot;geometry&quot;&gt;&#xA;            &lt;mxPoint x=&quot;169&quot; y=&quot;178&quot; as=&quot;sourcePoint&quot; /&gt;&#xA;            &lt;mxPoint x=&quot;191&quot; y=&quot;222&quot; as=&quot;targetPoint&quot; /&gt;&#xA;          &lt;/mxGeometry&gt;&#xA;        &lt;/mxCell&gt;&#xA;      &lt;/root&gt;&#xA;    &lt;/mxGraphModel&gt;&#xA;  &lt;/diagram&gt;&#xA;&lt;/mxfile&gt;&#xA;"><defs/><g><g data-cell-id="0"><g data-cell-id="1"><g data-cell-id="ahl_oFsp3ZpYQsmE7bn_-1"><g><ellipse cx="100" cy="20" rx="20" ry="20" fill="transparent" stroke="none" pointer-events="all"/><path d="M 93.37 0.77 C 97.13 -0.69 102.94 0.44 106.96 1.92 C 110.98 3.4 115.2 6.21 117.47 9.63 C 119.75 13.05 121.31 18.19 120.61 22.42 C 119.91 26.66 116.65 32 113.3 35.04 C 109.94 38.08 104.88 40.53 100.5 40.66 C 96.13 40.79 90.29 38.46 87.04 35.82 C 83.79 33.18 81.82 28.94 81 24.8 C 80.19 20.65 79.29 15.07 82.14 10.96 C 84.98 6.84 94.49 1.89 98.07 0.14 C 101.65 -1.62 103.53 0.14 103.61 0.42 M 93.16 1.17 C 97.08 -0.67 103.19 0.19 106.88 1.4 C 110.57 2.62 112.93 5.22 115.31 8.46 C 117.68 11.7 121.28 16.6 121.13 20.87 C 120.98 25.13 117.8 30.76 114.41 34.05 C 111.02 37.33 105.36 40.46 100.79 40.56 C 96.22 40.66 90.2 37.11 87.02 34.63 C 83.83 32.15 82.47 29.4 81.67 25.67 C 80.86 21.94 80.53 16.37 82.19 12.25 C 83.85 8.14 89.92 2.93 91.63 0.98 C 93.34 -0.97 92.28 0.32 92.45 0.56" fill="#f8cecc" stroke="none" pointer-events="all"/><path d="M 96.58 -0.55 C 100.49 -1.65 104.88 -0.02 108.56 2.11 C 112.25 4.25 117.04 8.07 118.69 12.24 C 120.33 16.4 119.75 22.98 118.41 27.11 C 117.06 31.23 114.03 34.94 110.63 37.01 C 107.22 39.08 102.38 40 97.99 39.54 C 93.59 39.07 87.32 37.41 84.25 34.22 C 81.18 31.03 79.43 24.76 79.57 20.41 C 79.71 16.06 82.21 11.46 85.09 8.14 C 87.97 4.82 94.68 1.85 96.83 0.49 C 98.98 -0.87 97.86 -0.19 97.98 -0.04 M 103.82 0.98 C 107.79 1.4 111.09 2.63 113.64 5.74 C 116.2 8.85 118.83 15.27 119.15 19.64 C 119.47 24 118.02 28.56 115.58 31.93 C 113.13 35.3 108.7 39.04 104.48 39.86 C 100.26 40.69 93.92 38.86 90.24 36.88 C 86.57 34.91 83.93 31.7 82.43 28.01 C 80.94 24.33 80.09 18.81 81.27 14.77 C 82.46 10.72 85.78 6.05 89.57 3.75 C 93.36 1.45 101.63 1.72 104.02 0.97 C 106.4 0.22 103.97 -1.1 103.89 -0.73" fill="none" stroke="#b85450" stroke-linejoin="round" stroke-linecap="round" stroke-miterlimit="10" pointer-events="all"/></g></g><g data-cell-id="ahl_oFsp3ZpYQsmE7bn_-2"><g><ellipse cx="20" cy="100" rx="20" ry="20" fill="transparent" stroke="none" pointer-events="all"/><path d="M 21.3 79.35 C 25.41 79.54 30.59 82.53 33.72 85.5 C 36.85 88.46 39.71 92.77 40.09 97.14 C 40.46 101.51 38.47 107.96 35.95 111.7 C 33.44 115.45 28.91 118.56 24.99 119.61 C 21.06 120.65 16.12 119.71 12.4 117.97 C 8.69 116.22 4.62 112.92 2.69 109.15 C 0.77 105.39 -0.1 99.67 0.86 95.37 C 1.82 91.08 4.61 85.84 8.44 83.39 C 12.27 80.94 20.88 80.95 23.86 80.68 C 26.84 80.41 26.34 81.65 26.34 81.79 M 12.34 81.08 C 15.98 79.07 21.27 80.39 25.45 81.54 C 29.64 82.7 35.26 84.53 37.44 88.01 C 39.61 91.49 39 97.79 38.51 102.43 C 38.02 107.07 37.28 112.81 34.48 115.84 C 31.68 118.87 26.12 120.52 21.7 120.6 C 17.28 120.68 11.24 118.85 7.95 116.3 C 4.66 113.75 2.83 109.33 1.95 105.32 C 1.08 101.31 1.19 96.18 2.69 92.24 C 4.19 88.3 9.5 83.24 10.95 81.69 C 12.4 80.13 10.98 82.51 11.38 82.92" fill="rgb(255, 255, 255)" stroke="none" pointer-events="all"/><path d="M 10.42 81.29 C 13.89 79.48 20.01 80.28 24.34 81.48 C 28.66 82.68 33.63 85.35 36.38 88.5 C 39.12 91.65 41.22 96.27 40.8 100.38 C 40.39 104.49 36.86 109.79 33.89 113.18 C 30.92 116.56 27.05 120.22 22.96 120.69 C 18.88 121.17 13.21 118.52 9.4 116.02 C 5.6 113.51 1.55 109.72 0.15 105.68 C -1.25 101.65 -1.32 95.88 0.99 91.8 C 3.29 87.73 11.25 83.27 13.97 81.24 C 16.69 79.21 17.13 79.45 17.31 79.61 M 19.76 81.39 C 23.91 81.07 29.9 81.36 33.39 83.93 C 36.88 86.5 39.97 92.32 40.69 96.82 C 41.4 101.32 40.03 107.4 37.67 110.94 C 35.31 114.48 30.58 116.53 26.52 118.05 C 22.45 119.56 17.06 121.34 13.26 120.01 C 9.47 118.67 6.16 113.87 3.76 110.03 C 1.36 106.2 -1.9 101.04 -1.11 97 C -0.33 92.95 5.12 88.51 8.46 85.78 C 11.8 83.05 17.15 81.32 18.93 80.64 C 20.7 79.96 19.11 81.54 19.12 81.71" fill="none" stroke="rgb(0, 0, 0)" stroke-linejoin="round" stroke-linecap="round" stroke-miterlimit="10" pointer-events="all"/></g></g><g data-cell-id="ahl_oFsp3ZpYQsmE7bn_-3"><g><ellipse cx="180" cy="100" rx="20" ry="20" fill="transparent" stroke="none" pointer-events="all"/><path d="M 171.75 81.37 C 175.27 79.28 181.32 80.06 185.35 81.18 C 189.39 82.29 193.48 84.85 195.94 88.05 C 198.39 91.26 200.42 96.02 200.07 100.39 C 199.71 104.77 196.86 110.9 193.82 114.29 C 190.77 117.67 185.91 120.15 181.78 120.71 C 177.66 121.27 172.57 120.14 169.06 117.64 C 165.55 115.14 161.88 109.84 160.71 105.73 C 159.54 101.62 159.53 97.1 162.03 92.97 C 164.52 88.84 172.46 83.19 175.67 80.95 C 178.88 78.7 181.14 79.17 181.3 79.52 M 171.51 80.98 C 174.87 79.3 179.85 80.59 184.03 81.69 C 188.2 82.78 194.09 84.34 196.56 87.56 C 199.04 90.78 199.23 96.47 198.89 100.99 C 198.55 105.5 197.26 111.36 194.55 114.64 C 191.83 117.92 186.88 120.58 182.61 120.64 C 178.33 120.69 172.78 117.58 168.88 114.97 C 164.99 112.36 160.19 108.76 159.24 104.97 C 158.29 101.18 161.36 95.99 163.19 92.23 C 165.03 88.46 168.58 84.05 170.27 82.39 C 171.95 80.73 172.67 82.19 173.3 82.28" fill="rgb(255, 255, 255)" stroke="none" pointer-events="all"/><path d="M 185.56 80.05 C 189.45 81.1 194.38 85.36 196.86 88.89 C 199.35 92.42 200.88 97.07 200.44 101.24 C 200 105.4 197.27 110.64 194.21 113.9 C 191.15 117.17 186.32 120.47 182.08 120.84 C 177.83 121.21 172.4 118.84 168.76 116.14 C 165.12 113.44 161.54 108.75 160.25 104.63 C 158.97 100.52 159.15 95.07 161.06 91.42 C 162.96 87.77 167.15 84.21 171.69 82.71 C 176.23 81.21 185.11 82.1 188.3 82.42 C 191.5 82.74 190.91 84.5 190.87 84.64 M 175.7 79.26 C 179.44 78.21 186 80.01 189.85 82.48 C 193.69 84.95 197.18 90.05 198.77 94.09 C 200.35 98.13 201.09 102.61 199.36 106.73 C 197.63 110.84 192.21 116.63 188.39 118.79 C 184.57 120.95 180.25 120.85 176.44 119.69 C 172.62 118.53 168.23 115.22 165.48 111.82 C 162.74 108.42 160.09 103.24 159.95 99.3 C 159.82 95.36 161.85 91.25 164.66 88.17 C 167.48 85.08 174.73 81.87 176.84 80.78 C 178.95 79.69 177.25 81.14 177.34 81.6" fill="none" stroke="rgb(0, 0, 0)" stroke-linejoin="round" stroke-linecap="round" stroke-miterlimit="10" pointer-events="all"/></g></g><g data-cell-id="ahl_oFsp3ZpYQsmE7bn_-4"><g><path d="M 114.14 34.14 L 161.36 81.36" fill="none" stroke="none" pointer-events="stroke"/><path d="M 165.07 85.07 L 157.64 82.59 L 161.36 81.36 L 162.59 77.64 Z" fill="none" stroke="none" pointer-events="all"/><path d="M 114.14 34.14 C 127.97 49.45 144.03 65.83 161.36 81.36 M 114.14 34.14 C 131.29 52.55 150.04 69.59 161.36 81.36" fill="none" stroke="rgb(0, 0, 0)" stroke-linejoin="round" stroke-linecap="round" stroke-miterlimit="10" pointer-events="stroke"/><path d="M 157.43 82.83 C 157.43 82.83 157.43 82.83 157.43 82.83 M 157.43 82.83 C 157.43 82.83 157.43 82.83 157.43 82.83 M 161.77 83.94 C 162.98 82.13 163.94 80.75 165.05 80.17 M 161.77 83.94 C 162.55 83.14 163.63 81.94 165.05 80.17" fill="none" stroke="rgb(0, 0, 0)" stroke-width="0.5" stroke-linejoin="round" stroke-linecap="round" stroke-miterlimit="10" pointer-events="all"/><path d="M 165.07 85.07 C 162.14 84.3 160.04 83.93 157.64 82.59 M 165.07 85.07 C 161.98 84.49 159.39 83.12 157.64 82.59 M 157.64 82.59 C 158.83 81.83 160.16 81.92 161.36 81.36 M 157.64 82.59 C 159.09 82 160.59 81.46 161.36 81.36 M 161.36 81.36 C 161.51 79.85 161.79 79.17 162.59 77.64 M 161.36 81.36 C 161.57 80.46 162.21 79.47 162.59 77.64 M 162.59 77.64 C 162.92 80.72 165.1 83.49 165.07 85.07 M 162.59 77.64 C 163.46 79.37 163.41 81.08 165.07 85.07" fill="none" stroke="rgb(0, 0, 0)" stroke-linejoin="round" stroke-linecap="round" stroke-miterlimit="10" pointer-events="all"/></g></g><g data-cell-id="ahl_oFsp3ZpYQsmE7bn_-5"><g><path d="M 85.86 34.14 L 38.64 81.36" fill="none" stroke="none" pointer-events="stroke"/><path d="M 34.93 85.07 L 37.41 77.64 L 38.64 81.36 L 42.36 82.59 Z" fill="none" stroke="none" pointer-events="all"/><path d="M 85.86 34.14 C 72.06 48.12 56.38 64.7 38.64 81.36 M 85.86 34.14 C 74.13 46.94 62.32 57.14 38.64 81.36" fill="none" stroke="rgb(0, 0, 0)" stroke-linejoin="round" stroke-linecap="round" stroke-miterlimit="10" pointer-events="stroke"/><path d="M 37.3 77.77 C 37.3 77.77 37.3 77.77 37.3 77.77 M 37.3 77.77 C 37.3 77.77 37.3 77.77 37.3 77.77 M 35.72 85.68 C 36.43 84.63 37.92 82.56 39 81.9 M 35.72 85.68 C 36.45 85.1 36.99 84.17 39 81.9" fill="none" stroke="rgb(0, 0, 0)" stroke-width="0.5" stroke-linejoin="round" stroke-linecap="round" stroke-miterlimit="10" pointer-events="all"/><path d="M 34.93 85.07 C 36.33 82.3 36.98 80.41 37.41 77.64 M 34.93 85.07 C 35.8 83.57 36.53 80.95 37.41 77.64 M 37.41 77.64 C 37.81 78.89 38.23 80.3 38.64 81.36 M 37.41 77.64 C 37.75 78.8 38.45 80.41 38.64 81.36 M 38.64 81.36 C 39.34 81.64 40.68 82.03 42.36 82.59 M 38.64 81.36 C 39.9 81.88 41.18 82.09 42.36 82.59 M 42.36 82.59 C 40.63 83.83 38.44 83.86 34.93 85.07 M 42.36 82.59 C 39.3 83.52 36.76 84.44 34.93 85.07" fill="none" stroke="rgb(0, 0, 0)" stroke-linejoin="round" stroke-linecap="round" stroke-miterlimit="10" pointer-events="all"/></g></g><g data-cell-id="ahl_oFsp3ZpYQsmE7bn_-6"><g><ellipse cx="100" cy="180" rx="20" ry="20" fill="transparent" stroke="none" pointer-events="all"/><path d="M 97.76 159.15 C 101.67 158.33 107.75 160.03 111.18 162.74 C 114.61 165.46 117.17 171.21 118.34 175.44 C 119.52 179.66 119.83 184.44 118.23 188.08 C 116.64 191.73 112.71 195.41 108.8 197.32 C 104.88 199.22 98.96 200.42 94.77 199.49 C 90.58 198.57 85.98 195.13 83.66 191.76 C 81.34 188.4 80.6 183.5 80.84 179.3 C 81.07 175.09 82.12 169.89 85.08 166.54 C 88.05 163.2 96.3 160.36 98.62 159.21 C 100.93 158.07 98.81 159.07 98.96 159.7 M 92.04 160.71 C 95.56 159.02 101.6 160.7 105.75 162.12 C 109.9 163.54 114.56 165.79 116.94 169.21 C 119.32 172.64 120.39 178.53 120.03 182.66 C 119.66 186.8 117.7 191.01 114.75 194.03 C 111.8 197.04 106.67 200.26 102.33 200.75 C 97.99 201.24 92.4 199.78 88.69 196.98 C 84.99 194.17 81.26 188.04 80.1 183.91 C 78.93 179.78 79.85 175.93 81.71 172.19 C 83.56 168.46 89.32 162.97 91.22 161.5 C 93.11 160.03 92.75 162.76 93.08 163.38" fill="#dae8fc" stroke="none" pointer-events="all"/><path d="M 109.84 162.13 C 113.66 163.85 117.37 168.45 118.75 172.42 C 120.14 176.38 119.44 181.69 118.14 185.9 C 116.85 190.11 114.45 195.5 110.99 197.69 C 107.54 199.87 101.77 199.87 97.42 198.99 C 93.08 198.11 87.91 195.33 84.91 192.41 C 81.9 189.49 79.41 185.52 79.38 181.49 C 79.34 177.45 81.99 171.59 84.68 168.18 C 87.38 164.77 90.71 161.5 95.54 161.04 C 100.37 160.57 110.39 164.4 113.68 165.39 C 116.96 166.37 115.63 166.82 115.25 166.95 M 106.27 162.28 C 109.97 163.55 114.97 167.28 117.1 171.14 C 119.23 174.99 120.03 181.11 119.05 185.42 C 118.07 189.73 114.66 194.33 111.21 196.99 C 107.75 199.66 102.25 201.81 98.3 201.42 C 94.35 201.02 90.39 197.7 87.53 194.61 C 84.67 191.52 81.72 187 81.13 182.87 C 80.54 178.74 81.73 173.65 83.99 169.83 C 86.24 166 90.76 161.3 94.65 159.93 C 98.54 158.56 105.06 161.3 107.34 161.59 C 109.63 161.88 108.37 161.33 108.38 161.67" fill="none" stroke="#6c8ebf" stroke-linejoin="round" stroke-linecap="round" stroke-miterlimit="10" pointer-events="all"/></g></g><g data-cell-id="ahl_oFsp3ZpYQsmE7bn_-7"><g><path d="M 34.14 114.14 L 81.36 161.36" fill="none" stroke="none" pointer-events="stroke"/><path d="M 85.07 165.07 L 77.64 162.59 L 81.36 161.36 L 82.59 157.64 Z" fill="none" stroke="none" pointer-events="all"/><path d="M 34.14 114.14 C 48.78 130.53 65.32 143.51 81.36 161.36 M 34.14 114.14 C 53.83 132.04 72.06 151.48 81.36 161.36" fill="none" stroke="rgb(0, 0, 0)" stroke-linejoin="round" stroke-linecap="round" stroke-miterlimit="10" pointer-events="stroke"/><path d="M 77.34 162.93 C 77.34 162.93 77.34 162.93 77.34 162.93 M 77.34 162.93 C 77.34 162.93 77.34 162.93 77.34 162.93 M 81.68 164.05 C 82.1 162.88 83.35 162.52 84.3 161.03 M 81.68 164.05 C 82.56 162.89 83.45 161.98 84.3 161.03" fill="none" stroke="rgb(0, 0, 0)" stroke-width="0.5" stroke-linejoin="round" stroke-linecap="round" stroke-miterlimit="10" pointer-events="all"/><path d="M 85.07 165.07 C 82.35 164.62 80.44 162.92 77.64 162.59 M 85.07 165.07 C 82.47 163.9 79.26 163.14 77.64 162.59 M 77.64 162.59 C 79.01 162.18 80.84 161.36 81.36 161.36 M 77.64 162.59 C 78.75 162.36 80.11 161.78 81.36 161.36 M 81.36 161.36 C 81.8 160.94 81.54 160 82.59 157.64 M 81.36 161.36 C 81.99 159.68 82.2 158.37 82.59 157.64 M 82.59 157.64 C 82.81 160.85 84.1 162.77 85.07 165.07 M 82.59 157.64 C 83.46 159.72 83.74 161.64 85.07 165.07" fill="none" stroke="rgb(0, 0, 0)" stroke-linejoin="round" stroke-linecap="round" stroke-miterlimit="10" pointer-events="all"/></g></g><g data-cell-id="ahl_oFsp3ZpYQsmE7bn_-8"><g><path d="M 165.86 114.14 L 118.64 161.36" fill="none" stroke="none" pointer-events="stroke"/><path d="M 114.93 165.07 L 117.41 157.64 L 118.64 161.36 L 122.36 162.59 Z" fill="none" stroke="none" pointer-events="all"/><path d="M 165.86 114.14 C 148.87 129.77 133.66 146.95 118.64 161.36 M 165.86 114.14 C 153.16 126.24 139.32 138.86 118.64 161.36" fill="none" stroke="rgb(0, 0, 0)" stroke-linejoin="round" stroke-linecap="round" stroke-miterlimit="10" pointer-events="stroke"/><path d="M 117.23 157.85 C 117.23 157.85 117.23 157.85 117.23 157.85 M 117.23 157.85 C 117.23 157.85 117.23 157.85 117.23 157.85 M 115.65 165.76 C 116.6 165.13 117.7 163.99 118.93 161.98 M 115.65 165.76 C 116.62 164.48 117.7 163.61 118.93 161.98" fill="none" stroke="rgb(0, 0, 0)" stroke-width="0.5" stroke-linejoin="round" stroke-linecap="round" stroke-miterlimit="10" pointer-events="all"/><path d="M 114.93 165.07 C 114.95 162.61 115.78 160.95 117.41 157.64 M 114.93 165.07 C 115.65 162.92 115.91 160.83 117.41 157.64 M 117.41 157.64 C 117.55 158.25 117.96 159.3 118.64 161.36 M 117.41 157.64 C 117.62 158.79 117.96 159.6 118.64 161.36 M 118.64 161.36 C 120.08 161.6 121.32 162.2 122.36 162.59 M 118.64 161.36 C 119.56 161.46 120.37 162.09 122.36 162.59 M 122.36 162.59 C 120.3 163.89 117 164.54 114.93 165.07 M 122.36 162.59 C 120.36 163.1 119.1 163.47 114.93 165.07" fill="none" stroke="rgb(0, 0, 0)" stroke-linejoin="round" stroke-linecap="round" stroke-miterlimit="10" pointer-events="all"/></g></g></g></g></g></svg>