<?xml version="1.0" encoding="UTF-8"?>
<!-- Do not edit this file with editors other than draw.io -->
<!DOCTYPE svg PUBLIC "-//W3C//DTD SVG 1.1//EN" "http://www.w3.org/Graphics/SVG/1.1/DTD/svg11.dtd">
<svg xmlns="http://www.w3.org/2000/svg" xmlns:xlink="http://www.w3.org/1999/xlink" version="1.1" width="682px" height="392px" viewBox="-0.5 -0.5 682 392" content="&lt;mxfile host=&quot;app.diagrams.net&quot; agent=&quot;Mozilla/5.0 (X11; Linux x86_64; rv:128.0) Gecko/20100101 Firefox/128.0&quot; version=&quot;24.7.6&quot; scale=&quot;2&quot; border=&quot;0&quot;&gt;&#xA;  &lt;diagram name=&quot;Page-1&quot; id=&quot;qjbrHn77Dyuubmn_k_1c&quot;&gt;&#xA;    &lt;mxGraphModel dx=&quot;1114&quot; dy=&quot;566&quot; grid=&quot;1&quot; gridSize=&quot;10&quot; guides=&quot;1&quot; tooltips=&quot;1&quot; connect=&quot;1&quot; arrows=&quot;1&quot; fold=&quot;1&quot; page=&quot;1&quot; pageScale=&quot;1&quot; pageWidth=&quot;600&quot; pageHeight=&quot;550&quot; math=&quot;0&quot; shadow=&quot;0&quot;&gt;&#xA;      &lt;root&gt;&#xA;        &lt;mxCell id=&quot;0&quot; /&gt;&#xA;        &lt;mxCell id=&quot;1&quot; parent=&quot;0&quot; /&gt;&#xA;        &lt;mxCell id=&quot;vQ7jLPI-iuV0k7irLMRg-1&quot; value=&quot;&quot; style=&quot;group&quot; vertex=&quot;1&quot; connectable=&quot;0&quot; parent=&quot;1&quot;&gt;&#xA;          &lt;mxGeometry x=&quot;40&quot; y=&quot;330&quot; width=&quot;100&quot; height=&quot;70&quot; as=&quot;geometry&quot; /&gt;&#xA;        &lt;/mxCell&gt;&#xA;        &lt;mxCell id=&quot;vQ7jLPI-iuV0k7irLMRg-2&quot; value=&quot;&quot; style=&quot;shape=actor;whiteSpace=wrap;html=1;fillColor=#f8cecc;strokeColor=#b85450;&quot; vertex=&quot;1&quot; parent=&quot;vQ7jLPI-iuV0k7irLMRg-1&quot;&gt;&#xA;          &lt;mxGeometry width=&quot;40&quot; height=&quot;60&quot; as=&quot;geometry&quot; /&gt;&#xA;        &lt;/mxCell&gt;&#xA;        &lt;mxCell id=&quot;vQ7jLPI-iuV0k7irLMRg-3&quot; value=&quot;&quot; style=&quot;shape=actor;whiteSpace=wrap;html=1;fillColor=#fff2cc;strokeColor=#d6b656;&quot; vertex=&quot;1&quot; parent=&quot;vQ7jLPI-iuV0k7irLMRg-1&quot;&gt;&#xA;          &lt;mxGeometry x=&quot;20&quot; y=&quot;10&quot; width=&quot;40&quot; height=&quot;60&quot; as=&quot;geometry&quot; /&gt;&#xA;        &lt;/mxCell&gt;&#xA;        &lt;mxCell id=&quot;vQ7jLPI-iuV0k7irLMRg-4&quot; value=&quot;&quot; style=&quot;shape=actor;whiteSpace=wrap;html=1;fillColor=#dae8fc;strokeColor=#6c8ebf;&quot; vertex=&quot;1&quot; parent=&quot;vQ7jLPI-iuV0k7irLMRg-1&quot;&gt;&#xA;          &lt;mxGeometry x=&quot;40&quot; width=&quot;40&quot; height=&quot;60&quot; as=&quot;geometry&quot; /&gt;&#xA;        &lt;/mxCell&gt;&#xA;        &lt;mxCell id=&quot;vQ7jLPI-iuV0k7irLMRg-5&quot; value=&quot;&quot; style=&quot;shape=actor;whiteSpace=wrap;html=1;fillColor=#d5e8d4;strokeColor=#82b366;&quot; vertex=&quot;1&quot; parent=&quot;vQ7jLPI-iuV0k7irLMRg-1&quot;&gt;&#xA;          &lt;mxGeometry x=&quot;60&quot; y=&quot;10&quot; width=&quot;40&quot; height=&quot;60&quot; as=&quot;geometry&quot; /&gt;&#xA;        &lt;/mxCell&gt;&#xA;        &lt;mxCell id=&quot;vQ7jLPI-iuV0k7irLMRg-6&quot; value=&quot;&quot; style=&quot;group&quot; vertex=&quot;1&quot; connectable=&quot;0&quot; parent=&quot;1&quot;&gt;&#xA;          &lt;mxGeometry x=&quot;160&quot; y=&quot;330&quot; width=&quot;100&quot; height=&quot;70&quot; as=&quot;geometry&quot; /&gt;&#xA;        &lt;/mxCell&gt;&#xA;        &lt;mxCell id=&quot;vQ7jLPI-iuV0k7irLMRg-7&quot; value=&quot;&quot; style=&quot;shape=actor;whiteSpace=wrap;html=1;fillColor=#dae8fc;strokeColor=#6c8ebf;&quot; vertex=&quot;1&quot; parent=&quot;vQ7jLPI-iuV0k7irLMRg-6&quot;&gt;&#xA;          &lt;mxGeometry width=&quot;40&quot; height=&quot;60&quot; as=&quot;geometry&quot; /&gt;&#xA;        &lt;/mxCell&gt;&#xA;        &lt;mxCell id=&quot;vQ7jLPI-iuV0k7irLMRg-8&quot; value=&quot;&quot; style=&quot;shape=actor;whiteSpace=wrap;html=1;fillColor=#d5e8d4;strokeColor=#82b366;&quot; vertex=&quot;1&quot; parent=&quot;vQ7jLPI-iuV0k7irLMRg-6&quot;&gt;&#xA;          &lt;mxGeometry x=&quot;20&quot; y=&quot;10&quot; width=&quot;40&quot; height=&quot;60&quot; as=&quot;geometry&quot; /&gt;&#xA;        &lt;/mxCell&gt;&#xA;        &lt;mxCell id=&quot;vQ7jLPI-iuV0k7irLMRg-9&quot; value=&quot;&quot; style=&quot;shape=actor;whiteSpace=wrap;html=1;fillColor=#f8cecc;strokeColor=#b85450;&quot; vertex=&quot;1&quot; parent=&quot;vQ7jLPI-iuV0k7irLMRg-6&quot;&gt;&#xA;          &lt;mxGeometry x=&quot;40&quot; width=&quot;40&quot; height=&quot;60&quot; as=&quot;geometry&quot; /&gt;&#xA;        &lt;/mxCell&gt;&#xA;        &lt;mxCell id=&quot;vQ7jLPI-iuV0k7irLMRg-10&quot; value=&quot;&quot; style=&quot;shape=actor;whiteSpace=wrap;html=1;fillColor=#fff2cc;strokeColor=#d6b656;&quot; vertex=&quot;1&quot; parent=&quot;vQ7jLPI-iuV0k7irLMRg-6&quot;&gt;&#xA;          &lt;mxGeometry x=&quot;60&quot; y=&quot;10&quot; width=&quot;40&quot; height=&quot;60&quot; as=&quot;geometry&quot; /&gt;&#xA;        &lt;/mxCell&gt;&#xA;        &lt;mxCell id=&quot;vQ7jLPI-iuV0k7irLMRg-11&quot; value=&quot;&quot; style=&quot;group&quot; vertex=&quot;1&quot; connectable=&quot;0&quot; parent=&quot;1&quot;&gt;&#xA;          &lt;mxGeometry x=&quot;280&quot; y=&quot;330&quot; width=&quot;100&quot; height=&quot;70&quot; as=&quot;geometry&quot; /&gt;&#xA;        &lt;/mxCell&gt;&#xA;        &lt;mxCell id=&quot;vQ7jLPI-iuV0k7irLMRg-12&quot; value=&quot;&quot; style=&quot;shape=actor;whiteSpace=wrap;html=1;fillColor=#f8cecc;strokeColor=#b85450;&quot; vertex=&quot;1&quot; parent=&quot;vQ7jLPI-iuV0k7irLMRg-11&quot;&gt;&#xA;          &lt;mxGeometry width=&quot;40&quot; height=&quot;60&quot; as=&quot;geometry&quot; /&gt;&#xA;        &lt;/mxCell&gt;&#xA;        &lt;mxCell id=&quot;vQ7jLPI-iuV0k7irLMRg-13&quot; value=&quot;&quot; style=&quot;shape=actor;whiteSpace=wrap;html=1;fillColor=#d5e8d4;strokeColor=#82b366;&quot; vertex=&quot;1&quot; parent=&quot;vQ7jLPI-iuV0k7irLMRg-11&quot;&gt;&#xA;          &lt;mxGeometry x=&quot;20&quot; y=&quot;10&quot; width=&quot;40&quot; height=&quot;60&quot; as=&quot;geometry&quot; /&gt;&#xA;        &lt;/mxCell&gt;&#xA;        &lt;mxCell id=&quot;vQ7jLPI-iuV0k7irLMRg-14&quot; value=&quot;&quot; style=&quot;shape=actor;whiteSpace=wrap;html=1;fillColor=#fff2cc;strokeColor=#d6b656;&quot; vertex=&quot;1&quot; parent=&quot;vQ7jLPI-iuV0k7irLMRg-11&quot;&gt;&#xA;          &lt;mxGeometry x=&quot;40&quot; width=&quot;40&quot; height=&quot;60&quot; as=&quot;geometry&quot; /&gt;&#xA;        &lt;/mxCell&gt;&#xA;        &lt;mxCell id=&quot;vQ7jLPI-iuV0k7irLMRg-15&quot; value=&quot;&quot; style=&quot;shape=actor;whiteSpace=wrap;html=1;fillColor=#dae8fc;strokeColor=#6c8ebf;&quot; vertex=&quot;1&quot; parent=&quot;vQ7jLPI-iuV0k7irLMRg-11&quot;&gt;&#xA;          &lt;mxGeometry x=&quot;60&quot; y=&quot;10&quot; width=&quot;40&quot; height=&quot;60&quot; as=&quot;geometry&quot; /&gt;&#xA;        &lt;/mxCell&gt;&#xA;        &lt;mxCell id=&quot;vQ7jLPI-iuV0k7irLMRg-16&quot; value=&quot;&quot; style=&quot;group&quot; vertex=&quot;1&quot; connectable=&quot;0&quot; parent=&quot;1&quot;&gt;&#xA;          &lt;mxGeometry x=&quot;160&quot; y=&quot;205&quot; width=&quot;100&quot; height=&quot;70&quot; as=&quot;geometry&quot; /&gt;&#xA;        &lt;/mxCell&gt;&#xA;        &lt;mxCell id=&quot;vQ7jLPI-iuV0k7irLMRg-17&quot; value=&quot;&quot; style=&quot;shape=actor;whiteSpace=wrap;html=1;fillColor=#f8cecc;strokeColor=#b85450;&quot; vertex=&quot;1&quot; parent=&quot;vQ7jLPI-iuV0k7irLMRg-16&quot;&gt;&#xA;          &lt;mxGeometry width=&quot;40&quot; height=&quot;60&quot; as=&quot;geometry&quot; /&gt;&#xA;        &lt;/mxCell&gt;&#xA;        &lt;mxCell id=&quot;vQ7jLPI-iuV0k7irLMRg-18&quot; value=&quot;&quot; style=&quot;shape=actor;whiteSpace=wrap;html=1;fillColor=#d5e8d4;strokeColor=#82b366;&quot; vertex=&quot;1&quot; parent=&quot;vQ7jLPI-iuV0k7irLMRg-16&quot;&gt;&#xA;          &lt;mxGeometry x=&quot;20&quot; y=&quot;10&quot; width=&quot;40&quot; height=&quot;60&quot; as=&quot;geometry&quot; /&gt;&#xA;        &lt;/mxCell&gt;&#xA;        &lt;mxCell id=&quot;vQ7jLPI-iuV0k7irLMRg-19&quot; value=&quot;&quot; style=&quot;shape=actor;whiteSpace=wrap;html=1;fillColor=#dae8fc;strokeColor=#6c8ebf;&quot; vertex=&quot;1&quot; parent=&quot;vQ7jLPI-iuV0k7irLMRg-16&quot;&gt;&#xA;          &lt;mxGeometry x=&quot;40&quot; width=&quot;40&quot; height=&quot;60&quot; as=&quot;geometry&quot; /&gt;&#xA;        &lt;/mxCell&gt;&#xA;        &lt;mxCell id=&quot;vQ7jLPI-iuV0k7irLMRg-20&quot; value=&quot;&quot; style=&quot;shape=actor;whiteSpace=wrap;html=1;fillColor=#fff2cc;strokeColor=#d6b656;&quot; vertex=&quot;1&quot; parent=&quot;vQ7jLPI-iuV0k7irLMRg-16&quot;&gt;&#xA;          &lt;mxGeometry x=&quot;60&quot; y=&quot;10&quot; width=&quot;40&quot; height=&quot;60&quot; as=&quot;geometry&quot; /&gt;&#xA;        &lt;/mxCell&gt;&#xA;        &lt;mxCell id=&quot;vQ7jLPI-iuV0k7irLMRg-46&quot; value=&quot;&quot; style=&quot;endArrow=classic;html=1;rounded=0;endFill=1;targetPerimeterSpacing=5;strokeWidth=2;&quot; edge=&quot;1&quot; parent=&quot;1&quot; source=&quot;vQ7jLPI-iuV0k7irLMRg-4&quot; target=&quot;vQ7jLPI-iuV0k7irLMRg-17&quot;&gt;&#xA;          &lt;mxGeometry width=&quot;50&quot; height=&quot;50&quot; relative=&quot;1&quot; as=&quot;geometry&quot;&gt;&#xA;            &lt;mxPoint x=&quot;270&quot; y=&quot;320&quot; as=&quot;sourcePoint&quot; /&gt;&#xA;            &lt;mxPoint x=&quot;320&quot; y=&quot;270&quot; as=&quot;targetPoint&quot; /&gt;&#xA;          &lt;/mxGeometry&gt;&#xA;        &lt;/mxCell&gt;&#xA;        &lt;mxCell id=&quot;vQ7jLPI-iuV0k7irLMRg-47&quot; value=&quot;&quot; style=&quot;endArrow=classic;html=1;rounded=0;endSize=6;targetPerimeterSpacing=5;sourcePerimeterSpacing=5;strokeWidth=2;&quot; edge=&quot;1&quot; parent=&quot;1&quot; source=&quot;vQ7jLPI-iuV0k7irLMRg-9&quot; target=&quot;vQ7jLPI-iuV0k7irLMRg-18&quot;&gt;&#xA;          &lt;mxGeometry width=&quot;50&quot; height=&quot;50&quot; relative=&quot;1&quot; as=&quot;geometry&quot;&gt;&#xA;            &lt;mxPoint x=&quot;270&quot; y=&quot;320&quot; as=&quot;sourcePoint&quot; /&gt;&#xA;            &lt;mxPoint x=&quot;320&quot; y=&quot;270&quot; as=&quot;targetPoint&quot; /&gt;&#xA;          &lt;/mxGeometry&gt;&#xA;        &lt;/mxCell&gt;&#xA;        &lt;mxCell id=&quot;vQ7jLPI-iuV0k7irLMRg-48&quot; value=&quot;&quot; style=&quot;endArrow=classic;html=1;rounded=0;targetPerimeterSpacing=5;strokeWidth=2;&quot; edge=&quot;1&quot; parent=&quot;1&quot; source=&quot;vQ7jLPI-iuV0k7irLMRg-12&quot; target=&quot;vQ7jLPI-iuV0k7irLMRg-20&quot;&gt;&#xA;          &lt;mxGeometry width=&quot;50&quot; height=&quot;50&quot; relative=&quot;1&quot; as=&quot;geometry&quot;&gt;&#xA;            &lt;mxPoint x=&quot;270&quot; y=&quot;320&quot; as=&quot;sourcePoint&quot; /&gt;&#xA;            &lt;mxPoint x=&quot;320&quot; y=&quot;270&quot; as=&quot;targetPoint&quot; /&gt;&#xA;          &lt;/mxGeometry&gt;&#xA;        &lt;/mxCell&gt;&#xA;      &lt;/root&gt;&#xA;    &lt;/mxGraphModel&gt;&#xA;  &lt;/diagram&gt;&#xA;&lt;/mxfile&gt;&#xA;"><defs/><g><g data-cell-id="0"><g data-cell-id="1"><g data-cell-id="vQ7jLPI-iuV0k7irLMRg-1"><g/><g data-cell-id="vQ7jLPI-iuV0k7irLMRg-2"><g><path d="M 0 370 C 0 322 0 298 40 298 C 13.33 298 13.33 250 40 250 C 66.67 250 66.67 298 40 298 C 80 298 80 322 80 370 Z" fill="#f8cecc" stroke="#b85450" stroke-width="2" stroke-miterlimit="10" pointer-events="all"/></g></g><g data-cell-id="vQ7jLPI-iuV0k7irLMRg-3"><g><path d="M 40 390 C 40 342 40 318 80 318 C 53.33 318 53.33 270 80 270 C 106.67 270 106.67 318 80 318 C 120 318 120 342 120 390 Z" fill="#fff2cc" stroke="#d6b656" stroke-width="2" stroke-miterlimit="10" pointer-events="all"/></g></g><g data-cell-id="vQ7jLPI-iuV0k7irLMRg-4"><g><path d="M 80 370 C 80 322 80 298 120 298 C 93.33 298 93.33 250 120 250 C 146.67 250 146.67 298 120 298 C 160 298 160 322 160 370 Z" fill="#dae8fc" stroke="#6c8ebf" stroke-width="2" stroke-miterlimit="10" pointer-events="all"/></g></g><g data-cell-id="vQ7jLPI-iuV0k7irLMRg-5"><g><path d="M 120 390 C 120 342 120 318 160 318 C 133.33 318 133.33 270 160 270 C 186.67 270 186.67 318 160 318 C 200 318 200 342 200 390 Z" fill="#d5e8d4" stroke="#82b366" stroke-width="2" stroke-miterlimit="10" pointer-events="all"/></g></g></g><g data-cell-id="vQ7jLPI-iuV0k7irLMRg-6"><g/><g data-cell-id="vQ7jLPI-iuV0k7irLMRg-7"><g><path d="M 240 370 C 240 322 240 298 280 298 C 253.33 298 253.33 250 280 250 C 306.67 250 306.67 298 280 298 C 320 298 320 322 320 370 Z" fill="#dae8fc" stroke="#6c8ebf" stroke-width="2" stroke-miterlimit="10" pointer-events="all"/></g></g><g data-cell-id="vQ7jLPI-iuV0k7irLMRg-8"><g><path d="M 280 390 C 280 342 280 318 320 318 C 293.33 318 293.33 270 320 270 C 346.67 270 346.67 318 320 318 C 360 318 360 342 360 390 Z" fill="#d5e8d4" stroke="#82b366" stroke-width="2" stroke-miterlimit="10" pointer-events="all"/></g></g><g data-cell-id="vQ7jLPI-iuV0k7irLMRg-9"><g><path d="M 320 370 C 320 322 320 298 360 298 C 333.33 298 333.33 250 360 250 C 386.67 250 386.67 298 360 298 C 400 298 400 322 400 370 Z" fill="#f8cecc" stroke="#b85450" stroke-width="2" stroke-miterlimit="10" pointer-events="all"/></g></g><g data-cell-id="vQ7jLPI-iuV0k7irLMRg-10"><g><path d="M 360 390 C 360 342 360 318 400 318 C 373.33 318 373.33 270 400 270 C 426.67 270 426.67 318 400 318 C 440 318 440 342 440 390 Z" fill="#fff2cc" stroke="#d6b656" stroke-width="2" stroke-miterlimit="10" pointer-events="all"/></g></g></g><g data-cell-id="vQ7jLPI-iuV0k7irLMRg-11"><g/><g data-cell-id="vQ7jLPI-iuV0k7irLMRg-12"><g><path d="M 480 370 C 480 322 480 298 520 298 C 493.33 298 493.33 250 520 250 C 546.67 250 546.67 298 520 298 C 560 298 560 322 560 370 Z" fill="#f8cecc" stroke="#b85450" stroke-width="2" stroke-miterlimit="10" pointer-events="all"/></g></g><g data-cell-id="vQ7jLPI-iuV0k7irLMRg-13"><g><path d="M 520 390 C 520 342 520 318 560 318 C 533.33 318 533.33 270 560 270 C 586.67 270 586.67 318 560 318 C 600 318 600 342 600 390 Z" fill="#d5e8d4" stroke="#82b366" stroke-width="2" stroke-miterlimit="10" pointer-events="all"/></g></g><g data-cell-id="vQ7jLPI-iuV0k7irLMRg-14"><g><path d="M 560 370 C 560 322 560 298 600 298 C 573.33 298 573.33 250 600 250 C 626.67 250 626.67 298 600 298 C 640 298 640 322 640 370 Z" fill="#fff2cc" stroke="#d6b656" stroke-width="2" stroke-miterlimit="10" pointer-events="all"/></g></g><g data-cell-id="vQ7jLPI-iuV0k7irLMRg-15"><g><path d="M 600 390 C 600 342 600 318 640 318 C 613.33 318 613.33 270 640 270 C 666.67 270 666.67 318 640 318 C 680 318 680 342 680 390 Z" fill="#dae8fc" stroke="#6c8ebf" stroke-width="2" stroke-miterlimit="10" pointer-events="all"/></g></g></g><g data-cell-id="vQ7jLPI-iuV0k7irLMRg-16"><g/><g data-cell-id="vQ7jLPI-iuV0k7irLMRg-17"><g><path d="M 240 120 C 240 72 240 48 280 48 C 253.33 48 253.33 0 280 0 C 306.67 0 306.67 48 280 48 C 320 48 320 72 320 120 Z" fill="#f8cecc" stroke="#b85450" stroke-width="2" stroke-miterlimit="10" pointer-events="all"/></g></g><g data-cell-id="vQ7jLPI-iuV0k7irLMRg-18"><g><path d="M 280 140 C 280 92 280 68 320 68 C 293.33 68 293.33 20 320 20 C 346.67 20 346.67 68 320 68 C 360 68 360 92 360 140 Z" fill="#d5e8d4" stroke="#82b366" stroke-width="2" stroke-miterlimit="10" pointer-events="all"/></g></g><g data-cell-id="vQ7jLPI-iuV0k7irLMRg-19"><g><path d="M 320 120 C 320 72 320 48 360 48 C 333.33 48 333.33 0 360 0 C 386.67 0 386.67 48 360 48 C 400 48 400 72 400 120 Z" fill="#dae8fc" stroke="#6c8ebf" stroke-width="2" stroke-miterlimit="10" pointer-events="all"/></g></g><g data-cell-id="vQ7jLPI-iuV0k7irLMRg-20"><g><path d="M 360 140 C 360 92 360 68 400 68 C 373.33 68 373.33 20 400 20 C 426.67 20 426.67 68 400 68 C 440 68 440 92 440 140 Z" fill="#fff2cc" stroke="#d6b656" stroke-width="2" stroke-miterlimit="10" pointer-events="all"/></g></g></g><g data-cell-id="vQ7jLPI-iuV0k7irLMRg-46"><g><path d="M 158.4 250 L 226.32 143.87" fill="none" stroke="rgb(0, 0, 0)" stroke-width="4" stroke-miterlimit="10" pointer-events="stroke"/><path d="M 232.79 133.77 L 230.9 151.56 L 226.32 143.87 L 217.43 142.93 Z" fill="rgb(0, 0, 0)" stroke="rgb(0, 0, 0)" stroke-width="4" stroke-miterlimit="10" pointer-events="all"/></g></g><g data-cell-id="vQ7jLPI-iuV0k7irLMRg-47"><g><path d="M 347.83 240 L 335 166.23" fill="none" stroke="rgb(0, 0, 0)" stroke-width="4" stroke-miterlimit="10" pointer-events="stroke"/><path d="M 332.94 154.41 L 343.56 168.8 L 335 166.23 L 327.8 171.54 Z" fill="rgb(0, 0, 0)" stroke="rgb(0, 0, 0)" stroke-width="4" stroke-miterlimit="10" pointer-events="all"/></g></g><g data-cell-id="vQ7jLPI-iuV0k7irLMRg-48"><g><path d="M 488.7 250 L 444.14 164.6" fill="none" stroke="rgb(0, 0, 0)" stroke-width="4" stroke-miterlimit="10" pointer-events="stroke"/><path d="M 438.59 153.96 L 453.08 164.45 L 444.14 164.6 L 438.9 171.85 Z" fill="rgb(0, 0, 0)" stroke="rgb(0, 0, 0)" stroke-width="4" stroke-miterlimit="10" pointer-events="all"/></g></g></g></g></g></svg>