<?xml version="1.0" encoding="UTF-8"?>
<!-- Do not edit this file with editors other than draw.io -->
<!DOCTYPE svg PUBLIC "-//W3C//DTD SVG 1.1//EN" "http://www.w3.org/Graphics/SVG/1.1/DTD/svg11.dtd">
<svg xmlns="http://www.w3.org/2000/svg" xmlns:xlink="http://www.w3.org/1999/xlink" version="1.1" width="406px" height="371px" viewBox="-0.5 -0.5 406 371" content="&lt;mxfile host=&quot;app.diagrams.net&quot; agent=&quot;Mozilla/5.0 (X11; Linux x86_64; rv:132.0) Gecko/20100101 Firefox/132.0&quot; scale=&quot;1&quot; border=&quot;5&quot; version=&quot;24.8.4&quot;&gt;&#xA;  &lt;diagram name=&quot;Page-1&quot; id=&quot;pE_9o59anWI73bOz1v_J&quot;&gt;&#xA;    &lt;mxGraphModel dx=&quot;1114&quot; dy=&quot;566&quot; grid=&quot;1&quot; gridSize=&quot;10&quot; guides=&quot;1&quot; tooltips=&quot;1&quot; connect=&quot;1&quot; arrows=&quot;1&quot; fold=&quot;1&quot; page=&quot;1&quot; pageScale=&quot;1&quot; pageWidth=&quot;600&quot; pageHeight=&quot;550&quot; math=&quot;0&quot; shadow=&quot;0&quot;&gt;&#xA;      &lt;root&gt;&#xA;        &lt;mxCell id=&quot;0&quot; /&gt;&#xA;        &lt;mxCell id=&quot;1&quot; parent=&quot;0&quot; /&gt;&#xA;        &lt;mxCell id=&quot;Qa6PBT78VURUzrQVQmo9-10&quot; value=&quot;&quot; style=&quot;endArrow=none;html=1;rounded=0;exitX=1;exitY=0;exitDx=0;exitDy=0;entryX=1;entryY=0;entryDx=0;entryDy=0;sketch=1;curveFitting=1;jiggle=2;dashed=1;fillColor=#d5e8d4;strokeColor=#82b366;&quot; edge=&quot;1&quot; parent=&quot;1&quot; source=&quot;ZOJEWMY2XDao8kptbQvy-8&quot; target=&quot;Qa6PBT78VURUzrQVQmo9-1&quot;&gt;&#xA;          &lt;mxGeometry width=&quot;50&quot; height=&quot;50&quot; relative=&quot;1&quot; as=&quot;geometry&quot;&gt;&#xA;            &lt;mxPoint x=&quot;270&quot; y=&quot;320&quot; as=&quot;sourcePoint&quot; /&gt;&#xA;            &lt;mxPoint x=&quot;320&quot; y=&quot;270&quot; as=&quot;targetPoint&quot; /&gt;&#xA;          &lt;/mxGeometry&gt;&#xA;        &lt;/mxCell&gt;&#xA;        &lt;mxCell id=&quot;Qa6PBT78VURUzrQVQmo9-1&quot; value=&quot;&quot; style=&quot;rounded=1;whiteSpace=wrap;html=1;sketch=1;curveFitting=1;jiggle=2;fillColor=#d5e8d4;strokeColor=#82b366;fillStyle=solid;&quot; vertex=&quot;1&quot; parent=&quot;1&quot;&gt;&#xA;          &lt;mxGeometry x=&quot;280&quot; y=&quot;200&quot; width=&quot;120&quot; height=&quot;80&quot; as=&quot;geometry&quot; /&gt;&#xA;        &lt;/mxCell&gt;&#xA;        &lt;mxCell id=&quot;Qa6PBT78VURUzrQVQmo9-4&quot; value=&quot;&quot; style=&quot;endArrow=classic;html=1;rounded=0;endSize=8;strokeWidth=2;sketch=1;curveFitting=1;jiggle=2;&quot; edge=&quot;1&quot; parent=&quot;1&quot;&gt;&#xA;          &lt;mxGeometry width=&quot;50&quot; height=&quot;50&quot; relative=&quot;1&quot; as=&quot;geometry&quot;&gt;&#xA;            &lt;mxPoint x=&quot;355&quot; y=&quot;200&quot; as=&quot;sourcePoint&quot; /&gt;&#xA;            &lt;mxPoint x=&quot;355&quot; y=&quot;240&quot; as=&quot;targetPoint&quot; /&gt;&#xA;          &lt;/mxGeometry&gt;&#xA;        &lt;/mxCell&gt;&#xA;        &lt;mxCell id=&quot;ZOJEWMY2XDao8kptbQvy-2&quot; value=&quot;&quot; style=&quot;rounded=1;whiteSpace=wrap;html=1;sketch=1;curveFitting=1;jiggle=2;fillColor=#fff2cc;strokeColor=#d6b656;fillStyle=solid;&quot; parent=&quot;1&quot; vertex=&quot;1&quot;&gt;&#xA;          &lt;mxGeometry x=&quot;160&quot; y=&quot;40&quot; width=&quot;80&quot; height=&quot;40&quot; as=&quot;geometry&quot; /&gt;&#xA;        &lt;/mxCell&gt;&#xA;        &lt;mxCell id=&quot;ZOJEWMY2XDao8kptbQvy-3&quot; value=&quot;&quot; style=&quot;rounded=1;whiteSpace=wrap;html=1;sketch=1;curveFitting=1;jiggle=2;fillColor=#fff2cc;strokeColor=#d6b656;fillStyle=solid;&quot; parent=&quot;1&quot; vertex=&quot;1&quot;&gt;&#xA;          &lt;mxGeometry x=&quot;160&quot; y=&quot;120&quot; width=&quot;80&quot; height=&quot;40&quot; as=&quot;geometry&quot; /&gt;&#xA;        &lt;/mxCell&gt;&#xA;        &lt;mxCell id=&quot;ZOJEWMY2XDao8kptbQvy-5&quot; value=&quot;&quot; style=&quot;rounded=1;whiteSpace=wrap;html=1;sketch=1;curveFitting=1;jiggle=2;fillColor=#fff2cc;strokeColor=#d6b656;fillStyle=solid;&quot; parent=&quot;1&quot; vertex=&quot;1&quot;&gt;&#xA;          &lt;mxGeometry x=&quot;100&quot; y=&quot;200&quot; width=&quot;80&quot; height=&quot;40&quot; as=&quot;geometry&quot; /&gt;&#xA;        &lt;/mxCell&gt;&#xA;        &lt;mxCell id=&quot;ZOJEWMY2XDao8kptbQvy-7&quot; value=&quot;&quot; style=&quot;rounded=1;whiteSpace=wrap;html=1;sketch=1;curveFitting=1;jiggle=2;fillColor=#fff2cc;strokeColor=#d6b656;fillStyle=solid;&quot; parent=&quot;1&quot; vertex=&quot;1&quot;&gt;&#xA;          &lt;mxGeometry x=&quot;40&quot; y=&quot;120&quot; width=&quot;80&quot; height=&quot;40&quot; as=&quot;geometry&quot; /&gt;&#xA;        &lt;/mxCell&gt;&#xA;        &lt;mxCell id=&quot;ZOJEWMY2XDao8kptbQvy-8&quot; value=&quot;&quot; style=&quot;rounded=1;whiteSpace=wrap;html=1;sketch=1;curveFitting=1;jiggle=2;fillColor=#d5e8d4;strokeColor=#82b366;fillStyle=solid;&quot; parent=&quot;1&quot; vertex=&quot;1&quot;&gt;&#xA;          &lt;mxGeometry x=&quot;160&quot; y=&quot;280&quot; width=&quot;80&quot; height=&quot;40&quot; as=&quot;geometry&quot; /&gt;&#xA;        &lt;/mxCell&gt;&#xA;        &lt;mxCell id=&quot;ZOJEWMY2XDao8kptbQvy-12&quot; value=&quot;&quot; style=&quot;rounded=1;whiteSpace=wrap;html=1;sketch=1;curveFitting=1;jiggle=2;fillColor=#fff2cc;strokeColor=#d6b656;fillStyle=solid;&quot; parent=&quot;1&quot; vertex=&quot;1&quot;&gt;&#xA;          &lt;mxGeometry x=&quot;80&quot; y=&quot;360&quot; width=&quot;80&quot; height=&quot;40&quot; as=&quot;geometry&quot; /&gt;&#xA;        &lt;/mxCell&gt;&#xA;        &lt;mxCell id=&quot;ZOJEWMY2XDao8kptbQvy-13&quot; value=&quot;&quot; style=&quot;endArrow=none;html=1;rounded=0;strokeWidth=2;sketch=1;curveFitting=1;jiggle=2;endFill=0;startArrow=classic;startFill=1;endSize=6;startSize=8;&quot; parent=&quot;1&quot; source=&quot;ZOJEWMY2XDao8kptbQvy-3&quot; target=&quot;ZOJEWMY2XDao8kptbQvy-2&quot; edge=&quot;1&quot;&gt;&#xA;          &lt;mxGeometry width=&quot;50&quot; height=&quot;50&quot; relative=&quot;1&quot; as=&quot;geometry&quot;&gt;&#xA;            &lt;mxPoint x=&quot;270&quot; y=&quot;320&quot; as=&quot;sourcePoint&quot; /&gt;&#xA;            &lt;mxPoint x=&quot;320&quot; y=&quot;270&quot; as=&quot;targetPoint&quot; /&gt;&#xA;          &lt;/mxGeometry&gt;&#xA;        &lt;/mxCell&gt;&#xA;        &lt;mxCell id=&quot;ZOJEWMY2XDao8kptbQvy-20&quot; value=&quot;&quot; style=&quot;endArrow=classic;html=1;rounded=0;endSize=8;strokeWidth=2;sketch=1;curveFitting=1;jiggle=2;&quot; parent=&quot;1&quot; source=&quot;ZOJEWMY2XDao8kptbQvy-2&quot; target=&quot;ZOJEWMY2XDao8kptbQvy-7&quot; edge=&quot;1&quot;&gt;&#xA;          &lt;mxGeometry width=&quot;50&quot; height=&quot;50&quot; relative=&quot;1&quot; as=&quot;geometry&quot;&gt;&#xA;            &lt;mxPoint x=&quot;300&quot; y=&quot;280&quot; as=&quot;sourcePoint&quot; /&gt;&#xA;            &lt;mxPoint x=&quot;300&quot; y=&quot;400&quot; as=&quot;targetPoint&quot; /&gt;&#xA;          &lt;/mxGeometry&gt;&#xA;        &lt;/mxCell&gt;&#xA;        &lt;mxCell id=&quot;ZOJEWMY2XDao8kptbQvy-22&quot; value=&quot;&quot; style=&quot;endArrow=classic;html=1;rounded=0;endSize=8;strokeWidth=2;sketch=1;curveFitting=1;jiggle=2;&quot; parent=&quot;1&quot; source=&quot;ZOJEWMY2XDao8kptbQvy-5&quot; target=&quot;ZOJEWMY2XDao8kptbQvy-8&quot; edge=&quot;1&quot;&gt;&#xA;          &lt;mxGeometry width=&quot;50&quot; height=&quot;50&quot; relative=&quot;1&quot; as=&quot;geometry&quot;&gt;&#xA;            &lt;mxPoint x=&quot;320&quot; y=&quot;300&quot; as=&quot;sourcePoint&quot; /&gt;&#xA;            &lt;mxPoint x=&quot;320&quot; y=&quot;420&quot; as=&quot;targetPoint&quot; /&gt;&#xA;          &lt;/mxGeometry&gt;&#xA;        &lt;/mxCell&gt;&#xA;        &lt;mxCell id=&quot;ZOJEWMY2XDao8kptbQvy-23&quot; value=&quot;&quot; style=&quot;endArrow=classic;html=1;rounded=0;endSize=8;strokeWidth=2;sketch=1;curveFitting=1;jiggle=2;&quot; parent=&quot;1&quot; source=&quot;ZOJEWMY2XDao8kptbQvy-8&quot; target=&quot;ZOJEWMY2XDao8kptbQvy-12&quot; edge=&quot;1&quot;&gt;&#xA;          &lt;mxGeometry width=&quot;50&quot; height=&quot;50&quot; relative=&quot;1&quot; as=&quot;geometry&quot;&gt;&#xA;            &lt;mxPoint x=&quot;330&quot; y=&quot;310&quot; as=&quot;sourcePoint&quot; /&gt;&#xA;            &lt;mxPoint x=&quot;330&quot; y=&quot;430&quot; as=&quot;targetPoint&quot; /&gt;&#xA;          &lt;/mxGeometry&gt;&#xA;        &lt;/mxCell&gt;&#xA;        &lt;mxCell id=&quot;ZOJEWMY2XDao8kptbQvy-24&quot; value=&quot;&quot; style=&quot;endArrow=classic;html=1;rounded=0;endSize=8;strokeWidth=2;sketch=1;curveFitting=1;jiggle=2;&quot; parent=&quot;1&quot; source=&quot;ZOJEWMY2XDao8kptbQvy-3&quot; target=&quot;ZOJEWMY2XDao8kptbQvy-8&quot; edge=&quot;1&quot;&gt;&#xA;          &lt;mxGeometry width=&quot;50&quot; height=&quot;50&quot; relative=&quot;1&quot; as=&quot;geometry&quot;&gt;&#xA;            &lt;mxPoint x=&quot;340&quot; y=&quot;320&quot; as=&quot;sourcePoint&quot; /&gt;&#xA;            &lt;mxPoint x=&quot;340&quot; y=&quot;440&quot; as=&quot;targetPoint&quot; /&gt;&#xA;          &lt;/mxGeometry&gt;&#xA;        &lt;/mxCell&gt;&#xA;        &lt;mxCell id=&quot;ZOJEWMY2XDao8kptbQvy-25&quot; value=&quot;&quot; style=&quot;endArrow=classic;html=1;rounded=0;endSize=8;strokeWidth=2;sketch=1;curveFitting=1;jiggle=2;&quot; parent=&quot;1&quot; source=&quot;ZOJEWMY2XDao8kptbQvy-7&quot; target=&quot;ZOJEWMY2XDao8kptbQvy-5&quot; edge=&quot;1&quot;&gt;&#xA;          &lt;mxGeometry width=&quot;50&quot; height=&quot;50&quot; relative=&quot;1&quot; as=&quot;geometry&quot;&gt;&#xA;            &lt;mxPoint x=&quot;350&quot; y=&quot;330&quot; as=&quot;sourcePoint&quot; /&gt;&#xA;            &lt;mxPoint x=&quot;350&quot; y=&quot;450&quot; as=&quot;targetPoint&quot; /&gt;&#xA;          &lt;/mxGeometry&gt;&#xA;        &lt;/mxCell&gt;&#xA;        &lt;mxCell id=&quot;ZOJEWMY2XDao8kptbQvy-26&quot; value=&quot;&quot; style=&quot;endArrow=classic;html=1;rounded=0;endSize=8;strokeWidth=2;sketch=1;curveFitting=1;jiggle=2;&quot; parent=&quot;1&quot; source=&quot;ZOJEWMY2XDao8kptbQvy-3&quot; target=&quot;ZOJEWMY2XDao8kptbQvy-5&quot; edge=&quot;1&quot;&gt;&#xA;          &lt;mxGeometry width=&quot;50&quot; height=&quot;50&quot; relative=&quot;1&quot; as=&quot;geometry&quot;&gt;&#xA;            &lt;mxPoint x=&quot;360&quot; y=&quot;340&quot; as=&quot;sourcePoint&quot; /&gt;&#xA;            &lt;mxPoint x=&quot;360&quot; y=&quot;460&quot; as=&quot;targetPoint&quot; /&gt;&#xA;          &lt;/mxGeometry&gt;&#xA;        &lt;/mxCell&gt;&#xA;        &lt;mxCell id=&quot;Qa6PBT78VURUzrQVQmo9-2&quot; value=&quot;&quot; style=&quot;endArrow=classic;html=1;rounded=0;endSize=8;strokeWidth=2;sketch=1;curveFitting=1;jiggle=2;&quot; edge=&quot;1&quot; parent=&quot;1&quot;&gt;&#xA;          &lt;mxGeometry width=&quot;50&quot; height=&quot;50&quot; relative=&quot;1&quot; as=&quot;geometry&quot;&gt;&#xA;            &lt;mxPoint x=&quot;325&quot; y=&quot;200&quot; as=&quot;sourcePoint&quot; /&gt;&#xA;            &lt;mxPoint x=&quot;325&quot; y=&quot;240&quot; as=&quot;targetPoint&quot; /&gt;&#xA;          &lt;/mxGeometry&gt;&#xA;        &lt;/mxCell&gt;&#xA;        &lt;mxCell id=&quot;Qa6PBT78VURUzrQVQmo9-3&quot; value=&quot;&quot; style=&quot;rounded=1;whiteSpace=wrap;html=1;sketch=1;curveFitting=1;jiggle=2;fillColor=#fff2cc;strokeColor=#d6b656;fillStyle=solid;&quot; vertex=&quot;1&quot; parent=&quot;1&quot;&gt;&#xA;          &lt;mxGeometry x=&quot;305&quot; y=&quot;240&quot; width=&quot;70&quot; height=&quot;20&quot; as=&quot;geometry&quot; /&gt;&#xA;        &lt;/mxCell&gt;&#xA;        &lt;mxCell id=&quot;Qa6PBT78VURUzrQVQmo9-5&quot; value=&quot;&quot; style=&quot;endArrow=classic;html=1;rounded=0;endSize=8;strokeWidth=2;sketch=1;curveFitting=1;jiggle=2;&quot; edge=&quot;1&quot; parent=&quot;1&quot;&gt;&#xA;          &lt;mxGeometry width=&quot;50&quot; height=&quot;50&quot; relative=&quot;1&quot; as=&quot;geometry&quot;&gt;&#xA;            &lt;mxPoint x=&quot;325&quot; y=&quot;260&quot; as=&quot;sourcePoint&quot; /&gt;&#xA;            &lt;mxPoint x=&quot;325&quot; y=&quot;300&quot; as=&quot;targetPoint&quot; /&gt;&#xA;          &lt;/mxGeometry&gt;&#xA;        &lt;/mxCell&gt;&#xA;        &lt;mxCell id=&quot;Qa6PBT78VURUzrQVQmo9-6&quot; value=&quot;&quot; style=&quot;endArrow=classic;html=1;rounded=0;endSize=8;strokeWidth=2;sketch=1;curveFitting=1;jiggle=2;exitX=0.671;exitY=0.95;exitDx=0;exitDy=0;exitPerimeter=0;&quot; edge=&quot;1&quot; parent=&quot;1&quot; source=&quot;Qa6PBT78VURUzrQVQmo9-3&quot;&gt;&#xA;          &lt;mxGeometry width=&quot;50&quot; height=&quot;50&quot; relative=&quot;1&quot; as=&quot;geometry&quot;&gt;&#xA;            &lt;mxPoint x=&quot;335&quot; y=&quot;270&quot; as=&quot;sourcePoint&quot; /&gt;&#xA;            &lt;mxPoint x=&quot;395&quot; y=&quot;330&quot; as=&quot;targetPoint&quot; /&gt;&#xA;            &lt;Array as=&quot;points&quot;&gt;&#xA;              &lt;mxPoint x=&quot;352&quot; y=&quot;300&quot; /&gt;&#xA;              &lt;mxPoint x=&quot;395&quot; y=&quot;300&quot; /&gt;&#xA;            &lt;/Array&gt;&#xA;          &lt;/mxGeometry&gt;&#xA;        &lt;/mxCell&gt;&#xA;        &lt;mxCell id=&quot;Qa6PBT78VURUzrQVQmo9-8&quot; value=&quot;&quot; style=&quot;rounded=1;whiteSpace=wrap;html=1;sketch=1;curveFitting=1;jiggle=2;fillColor=#dae8fc;strokeColor=#6c8ebf;fillStyle=solid;&quot; vertex=&quot;1&quot; parent=&quot;1&quot;&gt;&#xA;          &lt;mxGeometry x=&quot;355&quot; y=&quot;330&quot; width=&quot;80&quot; height=&quot;40&quot; as=&quot;geometry&quot; /&gt;&#xA;        &lt;/mxCell&gt;&#xA;        &lt;mxCell id=&quot;Qa6PBT78VURUzrQVQmo9-11&quot; value=&quot;&quot; style=&quot;endArrow=none;html=1;rounded=0;exitX=0;exitY=0;exitDx=0;exitDy=0;entryX=0;entryY=0;entryDx=0;entryDy=0;sketch=1;curveFitting=1;jiggle=2;dashed=1;fillColor=#d5e8d4;strokeColor=#82b366;&quot; edge=&quot;1&quot; parent=&quot;1&quot; source=&quot;ZOJEWMY2XDao8kptbQvy-8&quot; target=&quot;Qa6PBT78VURUzrQVQmo9-1&quot;&gt;&#xA;          &lt;mxGeometry width=&quot;50&quot; height=&quot;50&quot; relative=&quot;1&quot; as=&quot;geometry&quot;&gt;&#xA;            &lt;mxPoint x=&quot;250&quot; y=&quot;290&quot; as=&quot;sourcePoint&quot; /&gt;&#xA;            &lt;mxPoint x=&quot;410&quot; y=&quot;250&quot; as=&quot;targetPoint&quot; /&gt;&#xA;          &lt;/mxGeometry&gt;&#xA;        &lt;/mxCell&gt;&#xA;        &lt;mxCell id=&quot;Qa6PBT78VURUzrQVQmo9-13&quot; value=&quot;&quot; style=&quot;endArrow=none;html=1;rounded=0;exitX=0;exitY=1;exitDx=0;exitDy=0;entryX=0;entryY=1;entryDx=0;entryDy=0;sketch=1;curveFitting=1;jiggle=1;dashed=1;fillColor=#d5e8d4;strokeColor=#82b366;&quot; edge=&quot;1&quot; parent=&quot;1&quot; source=&quot;ZOJEWMY2XDao8kptbQvy-8&quot; target=&quot;Qa6PBT78VURUzrQVQmo9-1&quot;&gt;&#xA;          &lt;mxGeometry width=&quot;50&quot; height=&quot;50&quot; relative=&quot;1&quot; as=&quot;geometry&quot;&gt;&#xA;            &lt;mxPoint x=&quot;260&quot; y=&quot;300&quot; as=&quot;sourcePoint&quot; /&gt;&#xA;            &lt;mxPoint x=&quot;420&quot; y=&quot;260&quot; as=&quot;targetPoint&quot; /&gt;&#xA;          &lt;/mxGeometry&gt;&#xA;        &lt;/mxCell&gt;&#xA;        &lt;mxCell id=&quot;Qa6PBT78VURUzrQVQmo9-14&quot; value=&quot;&quot; style=&quot;endArrow=none;html=1;rounded=0;exitX=1;exitY=1;exitDx=0;exitDy=0;entryX=1;entryY=1;entryDx=0;entryDy=0;sketch=1;curveFitting=1;jiggle=1;dashed=1;fillColor=#d5e8d4;strokeColor=#82b366;&quot; edge=&quot;1&quot; parent=&quot;1&quot; source=&quot;ZOJEWMY2XDao8kptbQvy-8&quot; target=&quot;Qa6PBT78VURUzrQVQmo9-1&quot;&gt;&#xA;          &lt;mxGeometry width=&quot;50&quot; height=&quot;50&quot; relative=&quot;1&quot; as=&quot;geometry&quot;&gt;&#xA;            &lt;mxPoint x=&quot;170&quot; y=&quot;330&quot; as=&quot;sourcePoint&quot; /&gt;&#xA;            &lt;mxPoint x=&quot;290&quot; y=&quot;290&quot; as=&quot;targetPoint&quot; /&gt;&#xA;          &lt;/mxGeometry&gt;&#xA;        &lt;/mxCell&gt;&#xA;      &lt;/root&gt;&#xA;    &lt;/mxGraphModel&gt;&#xA;  &lt;/diagram&gt;&#xA;&lt;/mxfile&gt;&#xA;"><defs/><g><g data-cell-id="0"><g data-cell-id="1"><g data-cell-id="Qa6PBT78VURUzrQVQmo9-10"><g><path d="M 205 245 L 365 165" fill="none" stroke="none" pointer-events="stroke"/><path d="M 205 245 C 269.46 212.86 326.53 184.88 365 165 M 205 245 C 236.16 229.9 268.86 217.17 365 165" fill="none" stroke="#82b366" stroke-linejoin="round" stroke-linecap="round" stroke-miterlimit="10" stroke-dasharray="3 3" pointer-events="stroke"/></g></g><g data-cell-id="Qa6PBT78VURUzrQVQmo9-1"><g><rect x="245" y="165" width="120" height="80" rx="12" ry="12" fill="none" stroke="none" pointer-events="all"/><path d="M 257 165 C 280.39 166.15 293.72 169.63 353 165 C 364.47 165.13 364.44 166.13 365 177 C 365.91 195.54 361.77 217.71 365 233 C 359.43 238.32 363.69 246.49 353 245 C 323.93 247.15 303.97 243.04 257 245 C 248.8 249.19 240.41 240.9 245 233 C 248.66 211.75 241.93 196 245 177 C 244.92 169.1 247.92 168.98 257 165" fill="#d5e8d4" stroke="none" pointer-events="all"/><path d="M 257 165 C 286.36 161.61 318.41 161.34 353 165 M 257 165 C 276.44 161.9 295.36 161.85 353 165 M 353 165 C 357.46 167.08 365.64 168.21 365 177 M 353 165 C 360.23 161.55 363.56 172.62 365 177 M 365 177 C 368.64 193.18 364.13 202.26 365 233 M 365 177 C 362.56 192.13 366.14 208.49 365 233 M 365 233 C 362.35 243.86 364.32 244.13 353 245 M 365 233 C 366.24 243.49 365.01 241.21 353 245 M 353 245 C 319.48 244.28 281.85 241.6 257 245 M 353 245 C 319.62 245.43 285.31 247.36 257 245 M 257 245 C 248.88 243.82 241.91 244 245 233 M 257 245 C 252.91 247.56 248.12 241.48 245 233 M 245 233 C 246.23 222.53 246.46 209.26 245 177 M 245 233 C 247.19 220 243.64 204.31 245 177 M 245 177 C 243.31 170.13 249.98 167.88 257 165 M 245 177 C 247.04 166.15 251.81 163 257 165" fill="none" stroke="#82b366" stroke-linejoin="round" stroke-linecap="round" stroke-miterlimit="10" pointer-events="all"/></g></g><g data-cell-id="Qa6PBT78VURUzrQVQmo9-4"><g><path d="M 320 165 L 320 195.26" fill="none" stroke="none" pointer-events="stroke"/><path d="M 320 202.76 L 315 192.76 L 320 195.26 L 325 192.76 Z" fill="none" stroke="none" pointer-events="all"/><path d="M 320 165 C 318.04 175.11 318.86 186.17 320 195.26 M 320 165 C 318.4 171.73 319.12 177.67 320 195.26" fill="none" stroke="rgb(0, 0, 0)" stroke-width="2" stroke-linejoin="round" stroke-linecap="round" stroke-miterlimit="10" pointer-events="stroke"/><path d="M 314.73 193.07 C 314.73 193.07 314.73 193.07 314.73 193.07 M 314.73 193.07 C 314.73 193.07 314.73 193.07 314.73 193.07 M 318.8 200.58 C 322.14 197.67 322.04 195.72 325.36 193.04 M 318.8 200.58 C 320.95 199.37 322.37 196.86 325.36 193.04" fill="none" stroke="rgb(0, 0, 0)" stroke-linejoin="round" stroke-linecap="round" stroke-miterlimit="10" pointer-events="all"/><path d="M 320 202.76 C 317.5 199.44 316.29 196.61 315 192.76 M 320 202.76 C 318.51 200.66 317.81 198.04 315 192.76 M 315 192.76 C 315.75 192.49 319.28 195.35 320 195.26 M 315 192.76 C 316 193.68 317.53 194.56 320 195.26 M 320 195.26 C 322.14 195.25 323.03 194.42 325 192.76 M 320 195.26 C 322.28 194.48 323.37 193.19 325 192.76 M 325 192.76 C 325.84 192.86 321.54 198.88 320 202.76 M 325 192.76 C 324.48 195.44 323.72 198.13 320 202.76" fill="none" stroke="rgb(0, 0, 0)" stroke-width="2" stroke-linejoin="round" stroke-linecap="round" stroke-miterlimit="10" pointer-events="all"/></g></g><g data-cell-id="ZOJEWMY2XDao8kptbQvy-2"><g><rect x="125" y="5" width="80" height="40" rx="6" ry="6" fill="none" stroke="none" pointer-events="all"/><path d="M 131 5 C 142.39 0.9 161.16 7.28 199 5 C 206.38 7.55 208.18 7.34 205 11 C 199.79 24.71 205.76 23.79 205 39 C 208.46 43.56 199.04 44.09 199 45 C 181.44 46.64 161.44 44.22 131 45 C 128.62 46.67 128.18 45.93 125 39 C 129.7 24.8 128.3 20.5 125 11 C 125.13 5.2 121.55 4.26 131 5" fill="#fff2cc" stroke="none" pointer-events="all"/><path d="M 131 5 C 147.92 5.19 162.37 2.47 199 5 M 131 5 C 152.37 6.5 170.69 5.3 199 5 M 199 5 C 203 2.85 206.6 7.11 205 11 M 199 5 C 204.72 7.05 203.97 4.85 205 11 M 205 11 C 204.46 21.02 203.95 29.46 205 39 M 205 11 C 203.45 17.72 206.94 23.37 205 39 M 205 39 C 206.75 39.98 205.04 48.4 199 45 M 205 39 C 208.31 42.07 199.56 48.25 199 45 M 199 45 C 182.5 43.71 157.77 46.07 131 45 M 199 45 C 183.62 46.78 165.61 47.36 131 45 M 131 45 C 130.42 47.79 121.86 43.97 125 39 M 131 45 C 127.26 46.02 120.99 42.14 125 39 M 125 39 C 124.87 34.26 126.3 24.78 125 11 M 125 39 C 125.44 33.2 125.34 24.24 125 11 M 125 11 C 124.3 5.33 124.39 8.36 131 5 M 125 11 C 121.38 4.58 127 4.85 131 5" fill="none" stroke="#d6b656" stroke-linejoin="round" stroke-linecap="round" stroke-miterlimit="10" pointer-events="all"/></g></g><g data-cell-id="ZOJEWMY2XDao8kptbQvy-3"><g><rect x="125" y="85" width="80" height="40" rx="6" ry="6" fill="none" stroke="none" pointer-events="all"/><path d="M 131 85 C 154.42 88.12 164.53 85.18 199 85 C 205.07 88.93 203.25 87.27 205 91 C 201.76 97.39 205.56 97.87 205 119 C 210.53 123.11 208.1 126.53 199 125 C 181.01 123.03 168.45 129.95 131 125 C 129.58 127.94 123.14 124.04 125 119 C 120.14 111.04 123.9 108.67 125 91 C 122.95 89.62 126.02 89.12 131 85" fill="#fff2cc" stroke="none" pointer-events="all"/><path d="M 131 85 C 145.63 84.2 157.73 81.88 199 85 M 131 85 C 155.66 86.1 182.02 83.34 199 85 M 199 85 C 204.4 87.9 204.36 86.36 205 91 M 199 85 C 200.51 83.58 205.9 83.72 205 91 M 205 91 C 202.72 102.01 201.33 108.9 205 119 M 205 91 C 204.69 94.8 205.67 103.6 205 119 M 205 119 C 203.94 120.78 202 128.96 199 125 M 205 119 C 209.54 126.79 206.03 125.27 199 125 M 199 125 C 179.54 127.26 153.69 121.67 131 125 M 199 125 C 180.14 126.19 164.98 125.48 131 125 M 131 125 C 130.65 123.21 125.51 121.02 125 119 M 131 125 C 126.32 121.38 120.71 126.93 125 119 M 125 119 C 126.46 107.26 123.86 100.86 125 91 M 125 119 C 125.62 110.34 123.96 100.62 125 91 M 125 91 C 121.17 85.33 125.28 81.74 131 85 M 125 91 C 124.74 85.04 124.42 84.8 131 85" fill="none" stroke="#d6b656" stroke-linejoin="round" stroke-linecap="round" stroke-miterlimit="10" pointer-events="all"/></g></g><g data-cell-id="ZOJEWMY2XDao8kptbQvy-5"><g><rect x="65" y="165" width="80" height="40" rx="6" ry="6" fill="none" stroke="none" pointer-events="all"/><path d="M 71 165 C 96.08 167.55 111.28 168.37 139 165 C 142.45 160.48 144.58 167.13 145 171 C 148.84 179.55 148.3 188.43 145 199 C 143.48 202.21 143.82 200.22 139 205 C 117.73 203.22 106.46 206.4 71 205 C 71.5 210.49 64.26 200.28 65 199 C 65 192.31 67.87 182.62 65 171 C 69.8 167.27 63.76 167.63 71 165" fill="#fff2cc" stroke="none" pointer-events="all"/><path d="M 71 165 C 89.06 167.5 104.45 165.98 139 165 M 71 165 C 92.63 165.32 113.49 163.43 139 165 M 139 165 C 139.22 162.02 147.88 164.87 145 171 M 139 165 C 141.31 165.82 140.57 170.64 145 171 M 145 171 C 141.47 183.99 146.33 195.78 145 199 M 145 171 C 146.03 182.55 146.01 191.26 145 199 M 145 199 C 146.32 202.39 143.94 202.08 139 205 M 145 199 C 142.78 207.04 140.58 208.51 139 205 M 139 205 C 113.62 206.38 93.55 200.87 71 205 M 139 205 C 121.19 205 99.73 205.72 71 205 M 71 205 C 63.1 202.06 64.81 203.13 65 199 M 71 205 C 64.44 201.31 69.35 207.31 65 199 M 65 199 C 63.89 186.88 61.21 184.22 65 171 M 65 199 C 63.11 190.21 66.32 184.57 65 171 M 65 171 C 62.91 165.31 67.08 164.51 71 165 M 65 171 C 62.26 165.96 68.48 164.69 71 165" fill="none" stroke="#d6b656" stroke-linejoin="round" stroke-linecap="round" stroke-miterlimit="10" pointer-events="all"/></g></g><g data-cell-id="ZOJEWMY2XDao8kptbQvy-7"><g><rect x="5" y="85" width="80" height="40" rx="6" ry="6" fill="none" stroke="none" pointer-events="all"/><path d="M 11 85 C 37.74 90.79 58.02 84.17 79 85 C 79.83 83.24 85.91 86.99 85 91 C 83.15 101.72 89.46 107.78 85 119 C 87.63 121.31 79.53 125.1 79 125 C 54.46 127.22 33.27 126.67 11 125 C 2.22 121.84 5.38 127.72 5 119 C 9.85 107.98 0.64 107.76 5 91 C 5.44 84.91 1.5 86.15 11 85" fill="#fff2cc" stroke="none" pointer-events="all"/><path d="M 11 85 C 24.49 82.81 43.17 82.09 79 85 M 11 85 C 29.61 83.25 44.96 86.23 79 85 M 79 85 C 82.03 84.14 83.39 83.38 85 91 M 79 85 C 82.1 88.07 84.43 88.37 85 91 M 85 91 C 87.1 100.37 82.21 103.46 85 119 M 85 91 C 84.49 100.69 83.47 111.73 85 119 M 85 119 C 88.7 124 85.88 123.2 79 125 M 85 119 C 85.22 127.29 84.32 122.56 79 125 M 79 125 C 55.7 125.5 25.41 128.06 11 125 M 79 125 C 58.23 123.82 34.48 125.95 11 125 M 11 125 C 3.55 128.91 4.1 125.24 5 119 M 11 125 C 2.56 121.24 8.79 118.5 5 119 M 5 119 C 1.31 114.49 6.56 99.59 5 91 M 5 119 C 4.59 114.08 4.68 104.52 5 91 M 5 91 C 4.66 85.3 8.87 87.28 11 85 M 5 91 C 8.98 86.87 3.33 84.58 11 85" fill="none" stroke="#d6b656" stroke-linejoin="round" stroke-linecap="round" stroke-miterlimit="10" pointer-events="all"/></g></g><g data-cell-id="ZOJEWMY2XDao8kptbQvy-8"><g><rect x="125" y="245" width="80" height="40" rx="6" ry="6" fill="none" stroke="none" pointer-events="all"/><path d="M 131 245 C 158.57 246.81 181.4 242.07 199 245 C 198.52 244.61 200.97 246.92 205 251 C 206.69 254.4 199.63 261.86 205 279 C 209.71 280.85 208.59 287.55 199 285 C 185.22 283.61 160.28 281.2 131 285 C 123.18 283.11 120.34 285.83 125 279 C 120.3 268.62 127.44 264.74 125 251 C 123.27 249.33 125.97 239.81 131 245" fill="#d5e8d4" stroke="none" pointer-events="all"/><path d="M 131 245 C 142.21 241.82 158.53 241.5 199 245 M 131 245 C 152.9 242.86 176.29 244.27 199 245 M 199 245 C 203.43 241.2 201.15 250.64 205 251 M 199 245 C 207.1 244.59 206.36 247.23 205 251 M 205 251 C 206.47 261.37 208.71 262.9 205 279 M 205 251 C 205.72 261.77 206.2 271.96 205 279 M 205 279 C 205.89 284.8 202.84 283.75 199 285 M 205 279 C 206.44 282.82 201.59 288.78 199 285 M 199 285 C 172.74 281.06 149.34 283.66 131 285 M 199 285 C 174.75 287.22 153.85 284.07 131 285 M 131 285 C 123.78 284.34 127.75 282.3 125 279 M 131 285 C 130.82 285.81 128.51 283.29 125 279 M 125 279 C 124.02 267.5 125.23 255.67 125 251 M 125 279 C 125.9 271.22 124.42 260.9 125 251 M 125 251 C 121.53 245.29 129.77 248.66 131 245 M 125 251 C 123.14 247.33 129.96 244.52 131 245" fill="none" stroke="#82b366" stroke-linejoin="round" stroke-linecap="round" stroke-miterlimit="10" pointer-events="all"/></g></g><g data-cell-id="ZOJEWMY2XDao8kptbQvy-12"><g><rect x="45" y="325" width="80" height="40" rx="6" ry="6" fill="none" stroke="none" pointer-events="all"/><path d="M 51 325 C 68.69 323.49 89.96 321.75 119 325 C 124.36 329.47 129.95 324.91 125 331 C 122.38 342.53 120.55 346.28 125 359 C 125.98 360.58 127.66 360.75 119 365 C 96.04 358.45 68.69 360.03 51 365 C 48.15 362.55 47.8 361.97 45 359 C 47.19 356.55 45.72 343.86 45 331 C 41.23 321.67 41.45 327.11 51 325" fill="#fff2cc" stroke="none" pointer-events="all"/><path d="M 51 325 C 67.31 328.07 77.59 323.42 119 325 M 51 325 C 66.37 324.89 77.44 325.95 119 325 M 119 325 C 125.68 322.31 124.1 324.22 125 331 M 119 325 C 123.94 322.56 120.69 330.85 125 331 M 125 331 C 121.87 339.59 121.51 355.01 125 359 M 125 331 C 123.02 339.81 123.53 350.8 125 359 M 125 359 C 125.79 364.7 120.51 368.96 119 365 M 125 359 C 122.16 359.4 120.95 363.26 119 365 M 119 365 C 88.81 368.64 62.58 362.66 51 365 M 119 365 C 103.41 365.57 82.3 363.13 51 365 M 51 365 C 45.33 364.43 48.97 360.97 45 359 M 51 365 C 46.3 363.73 44.19 362.84 45 359 M 45 359 C 41.43 355.9 41.16 341.3 45 331 M 45 359 C 45.36 352.9 44.6 344.68 45 331 M 45 331 C 43.81 323.23 46.99 327.43 51 325 M 45 331 C 42.75 325.22 44 328.65 51 325" fill="none" stroke="#d6b656" stroke-linejoin="round" stroke-linecap="round" stroke-miterlimit="10" pointer-events="all"/></g></g><g data-cell-id="ZOJEWMY2XDao8kptbQvy-13"><g><path d="M 165 75.26 L 165 45" fill="none" stroke="none" pointer-events="stroke"/><path d="M 165 82.76 L 160 72.76 L 165 75.26 L 170 72.76 Z" fill="none" stroke="none" pointer-events="all"/><path d="M 165 75.26 C 165.38 69.49 167.39 59.05 165 45 M 165 75.26 C 164.25 67.68 164.56 58.8 165 45" fill="none" stroke="rgb(0, 0, 0)" stroke-width="2" stroke-linejoin="round" stroke-linecap="round" stroke-miterlimit="10" pointer-events="stroke"/><path d="M 159.81 72.98 C 159.81 72.98 159.81 72.98 159.81 72.98 M 159.81 72.98 C 159.81 72.98 159.81 72.98 159.81 72.98 M 163.88 80.49 C 165.15 75.96 170.26 74.2 170.44 72.94 M 163.88 80.49 C 164.65 78.71 168.18 76.86 170.44 72.94" fill="none" stroke="rgb(0, 0, 0)" stroke-linejoin="round" stroke-linecap="round" stroke-miterlimit="10" pointer-events="all"/><path d="M 165 82.76 C 164.13 81.03 164.23 76.61 160 72.76 M 165 82.76 C 163.33 80.53 162.12 77.48 160 72.76 M 160 72.76 C 160.06 72.55 162.85 73.27 165 75.26 M 160 72.76 C 161.44 74.11 163.42 74.83 165 75.26 M 165 75.26 C 166.2 73.97 168.68 74.27 170 72.76 M 165 75.26 C 167.29 73.75 168.67 73.42 170 72.76 M 170 72.76 C 168.31 76.05 167.45 80.33 165 82.76 M 170 72.76 C 168.12 76.22 166.18 79.84 165 82.76" fill="none" stroke="rgb(0, 0, 0)" stroke-width="2" stroke-linejoin="round" stroke-linecap="round" stroke-miterlimit="10" pointer-events="all"/></g></g><g data-cell-id="ZOJEWMY2XDao8kptbQvy-20"><g><path d="M 135 45 L 83.1 79.6" fill="none" stroke="none" pointer-events="stroke"/><path d="M 76.86 83.76 L 82.41 74.05 L 83.1 79.6 L 87.95 82.37 Z" fill="none" stroke="none" pointer-events="all"/><path d="M 135 45 C 124.68 50.96 114.15 56.96 83.1 79.6 M 135 45 C 119.15 55.71 104.5 65.55 83.1 79.6" fill="none" stroke="rgb(0, 0, 0)" stroke-width="2" stroke-linejoin="round" stroke-linecap="round" stroke-miterlimit="10" pointer-events="stroke"/><path d="M 82.14 74.36 C 82.14 74.36 82.14 74.36 82.14 74.36 M 82.14 74.36 C 82.14 74.36 82.14 74.36 82.14 74.36 M 84.9 83.38 C 85.3 82.66 85.71 82.19 86.21 81.87 M 84.9 83.38 C 85.17 82.95 85.98 82.42 86.21 81.87" fill="none" stroke="rgb(0, 0, 0)" stroke-linejoin="round" stroke-linecap="round" stroke-miterlimit="10" pointer-events="all"/><path d="M 76.86 83.76 C 78 80.83 79.19 78.23 82.41 74.05 M 76.86 83.76 C 77.68 81.36 79.6 78.35 82.41 74.05 M 82.41 74.05 C 82.57 75.88 82.44 77.48 83.1 79.6 M 82.41 74.05 C 82.39 75.79 82.27 77.03 83.1 79.6 M 83.1 79.6 C 83.26 79.74 84.96 80.43 87.95 82.37 M 83.1 79.6 C 84.35 79.96 85.77 80.85 87.95 82.37 M 87.95 82.37 C 82.82 81.46 78.94 85.18 76.86 83.76 M 87.95 82.37 C 83.01 82.57 79.17 82.7 76.86 83.76" fill="none" stroke="rgb(0, 0, 0)" stroke-width="2" stroke-linejoin="round" stroke-linecap="round" stroke-miterlimit="10" pointer-events="all"/></g></g><g data-cell-id="ZOJEWMY2XDao8kptbQvy-22"><g><path d="M 120 205 L 144.16 237.21" fill="none" stroke="none" pointer-events="stroke"/><path d="M 148.66 243.21 L 138.66 238.21 L 144.16 237.21 L 146.66 232.21 Z" fill="none" stroke="none" pointer-events="all"/><path d="M 120 205 C 128.9 213.44 129.23 219.75 144.16 237.21 M 120 205 C 124.68 214.68 129.23 218.89 144.16 237.21" fill="none" stroke="rgb(0, 0, 0)" stroke-width="2" stroke-linejoin="round" stroke-linecap="round" stroke-miterlimit="10" pointer-events="stroke"/><path d="M 138.38 238.53 C 138.38 238.53 138.38 238.53 138.38 238.53 M 138.38 238.53 C 138.38 238.53 138.38 238.53 138.38 238.53 M 145.73 242.27 C 147.17 240.61 149.42 240.26 150.98 236.23 M 145.73 242.27 C 146.57 241.31 148.38 238.89 150.98 236.23" fill="none" stroke="rgb(0, 0, 0)" stroke-linejoin="round" stroke-linecap="round" stroke-miterlimit="10" pointer-events="all"/><path d="M 148.66 243.21 C 148.53 243.62 143.9 242.43 138.66 238.21 M 148.66 243.21 C 146.17 242.73 143.16 239.64 138.66 238.21 M 138.66 238.21 C 139.53 237.78 141.51 237.73 144.16 237.21 M 138.66 238.21 C 139.92 237.89 140.7 237.18 144.16 237.21 M 144.16 237.21 C 145.71 235.98 147.1 233.53 146.66 232.21 M 144.16 237.21 C 144.58 235.75 144.96 234.54 146.66 232.21 M 146.66 232.21 C 146.72 233.31 148.18 238.52 148.66 243.21 M 146.66 232.21 C 148.03 234.93 147.34 239.68 148.66 243.21" fill="none" stroke="rgb(0, 0, 0)" stroke-width="2" stroke-linejoin="round" stroke-linecap="round" stroke-miterlimit="10" pointer-events="all"/></g></g><g data-cell-id="ZOJEWMY2XDao8kptbQvy-23"><g><path d="M 145 285 L 111.88 318.12" fill="none" stroke="none" pointer-events="stroke"/><path d="M 106.58 323.42 L 110.12 312.81 L 111.88 318.12 L 117.19 319.88 Z" fill="none" stroke="none" pointer-events="all"/><path d="M 145 285 C 140 292.01 134.25 298.91 111.88 318.12 M 145 285 C 136.21 293.02 123.98 306.26 111.88 318.12" fill="none" stroke="rgb(0, 0, 0)" stroke-width="2" stroke-linejoin="round" stroke-linecap="round" stroke-miterlimit="10" pointer-events="stroke"/><path d="M 109.86 313.11 C 109.86 313.11 109.86 313.11 109.86 313.11 M 109.86 313.11 C 109.86 313.11 109.86 313.11 109.86 313.11 M 112.62 322.13 C 112.5 320.91 114.57 321.13 115.24 319.11 M 112.62 322.13 C 112.91 320.99 113.86 320.9 115.24 319.11" fill="none" stroke="rgb(0, 0, 0)" stroke-linejoin="round" stroke-linecap="round" stroke-miterlimit="10" pointer-events="all"/><path d="M 106.58 323.42 C 107.83 321.35 109.14 319.23 110.12 312.81 M 106.58 323.42 C 108.97 319.07 108.94 317.49 110.12 312.81 M 110.12 312.81 C 109.88 315.45 110.32 316.46 111.88 318.12 M 110.12 312.81 C 110.49 314.78 111.26 317.37 111.88 318.12 M 111.88 318.12 C 113.82 317.77 114.93 318.63 117.19 319.88 M 111.88 318.12 C 112.72 318.17 114.48 318.97 117.19 319.88 M 117.19 319.88 C 111.54 319.8 109.37 321.44 106.58 323.42 M 117.19 319.88 C 113.9 320.25 112.36 322.41 106.58 323.42" fill="none" stroke="rgb(0, 0, 0)" stroke-width="2" stroke-linejoin="round" stroke-linecap="round" stroke-miterlimit="10" pointer-events="all"/></g></g><g data-cell-id="ZOJEWMY2XDao8kptbQvy-24"><g><path d="M 165 125 L 165 235.26" fill="none" stroke="none" pointer-events="stroke"/><path d="M 165 242.76 L 160 232.76 L 165 235.26 L 170 232.76 Z" fill="none" stroke="none" pointer-events="all"/><path d="M 165 125 C 166.12 145.7 164.8 168.79 165 235.26 M 165 125 C 163.79 165.42 164.93 208.84 165 235.26" fill="none" stroke="rgb(0, 0, 0)" stroke-width="2" stroke-linejoin="round" stroke-linecap="round" stroke-miterlimit="10" pointer-events="stroke"/><path d="M 160.31 232.41 C 160.31 232.41 160.31 232.41 160.31 232.41 M 160.31 232.41 C 160.31 232.41 160.31 232.41 160.31 232.41 M 163.72 240.68 C 166.63 238.9 167.5 234.88 170.28 233.13 M 163.72 240.68 C 164.16 238.45 166.61 237.02 170.28 233.13" fill="none" stroke="rgb(0, 0, 0)" stroke-linejoin="round" stroke-linecap="round" stroke-miterlimit="10" pointer-events="all"/><path d="M 165 242.76 C 163.2 239.58 161.44 237.82 160 232.76 M 165 242.76 C 163.46 238.12 162.19 235.13 160 232.76 M 160 232.76 C 160.64 233.71 163.8 235.48 165 235.26 M 160 232.76 C 162.19 233.42 163.5 234.72 165 235.26 M 165 235.26 C 166.29 234.18 168.21 234.54 170 232.76 M 165 235.26 C 166.72 234.4 168.06 233.4 170 232.76 M 170 232.76 C 169.46 234.4 165.71 239.78 165 242.76 M 170 232.76 C 168.9 234.12 166.97 237.25 165 242.76" fill="none" stroke="rgb(0, 0, 0)" stroke-width="2" stroke-linejoin="round" stroke-linecap="round" stroke-miterlimit="10" pointer-events="all"/></g></g><g data-cell-id="ZOJEWMY2XDao8kptbQvy-25"><g><path d="M 60 125 L 84.16 157.21" fill="none" stroke="none" pointer-events="stroke"/><path d="M 88.66 163.21 L 78.66 158.21 L 84.16 157.21 L 86.66 152.21 Z" fill="none" stroke="none" pointer-events="all"/><path d="M 60 125 C 61.08 127.41 70.35 134.92 84.16 157.21 M 60 125 C 64.5 131.61 70.9 139.63 84.16 157.21" fill="none" stroke="rgb(0, 0, 0)" stroke-width="2" stroke-linejoin="round" stroke-linecap="round" stroke-miterlimit="10" pointer-events="stroke"/><path d="M 78.38 158.54 C 78.38 158.54 78.38 158.54 78.38 158.54 M 78.38 158.54 C 78.38 158.54 78.38 158.54 78.38 158.54 M 85.72 162.28 C 86.61 160.08 89.21 157.63 90.97 156.24 M 85.72 162.28 C 88.48 159.78 89.97 158.07 90.97 156.24" fill="none" stroke="rgb(0, 0, 0)" stroke-linejoin="round" stroke-linecap="round" stroke-miterlimit="10" pointer-events="all"/><path d="M 88.66 163.21 C 84.84 160.07 85.21 159.55 78.66 158.21 M 88.66 163.21 C 85.51 161.5 83.15 160.17 78.66 158.21 M 78.66 158.21 C 81.73 156.81 82.37 156.66 84.16 157.21 M 78.66 158.21 C 80.42 157.41 82.28 157.33 84.16 157.21 M 84.16 157.21 C 84.23 156.19 86.41 154.6 86.66 152.21 M 84.16 157.21 C 84.74 155.44 86.03 153.99 86.66 152.21 M 86.66 152.21 C 86.29 153.46 89.58 156.03 88.66 163.21 M 86.66 152.21 C 88.18 155.24 88.15 160.05 88.66 163.21" fill="none" stroke="rgb(0, 0, 0)" stroke-width="2" stroke-linejoin="round" stroke-linecap="round" stroke-miterlimit="10" pointer-events="all"/></g></g><g data-cell-id="ZOJEWMY2XDao8kptbQvy-26"><g><path d="M 150 125 L 125.84 157.21" fill="none" stroke="none" pointer-events="stroke"/><path d="M 121.34 163.21 L 123.34 152.21 L 125.84 157.21 L 131.34 158.21 Z" fill="none" stroke="none" pointer-events="all"/><path d="M 150 125 C 147.01 133.41 136.03 141.31 125.84 157.21 M 150 125 C 143.04 134.51 134.64 147.29 125.84 157.21" fill="none" stroke="rgb(0, 0, 0)" stroke-width="2" stroke-linejoin="round" stroke-linecap="round" stroke-miterlimit="10" pointer-events="stroke"/><path d="M 123.16 152.42 C 123.16 152.42 123.16 152.42 123.16 152.42 M 123.16 152.42 C 123.16 152.42 123.16 152.42 123.16 152.42 M 126.57 160.69 C 127.48 159.49 127.96 158.86 128.54 158.42 M 126.57 160.69 C 127.52 159.86 128.1 158.85 128.54 158.42" fill="none" stroke="rgb(0, 0, 0)" stroke-linejoin="round" stroke-linecap="round" stroke-miterlimit="10" pointer-events="all"/><path d="M 121.34 163.21 C 123.24 162.07 120.28 160.55 123.34 152.21 M 121.34 163.21 C 122.75 159.28 123.08 157.01 123.34 152.21 M 123.34 152.21 C 125.17 154.44 124.18 155.89 125.84 157.21 M 123.34 152.21 C 123.69 153.33 124.96 155.06 125.84 157.21 M 125.84 157.21 C 126.23 158.33 127.85 156.85 131.34 158.21 M 125.84 157.21 C 128.37 157.58 130.33 157.56 131.34 158.21 M 131.34 158.21 C 129.71 158.79 124.84 162.65 121.34 163.21 M 131.34 158.21 C 127.42 158.63 126.05 160.9 121.34 163.21" fill="none" stroke="rgb(0, 0, 0)" stroke-width="2" stroke-linejoin="round" stroke-linecap="round" stroke-miterlimit="10" pointer-events="all"/></g></g><g data-cell-id="Qa6PBT78VURUzrQVQmo9-2"><g><path d="M 290 165 L 290 195.26" fill="none" stroke="none" pointer-events="stroke"/><path d="M 290 202.76 L 285 192.76 L 290 195.26 L 295 192.76 Z" fill="none" stroke="none" pointer-events="all"/><path d="M 290 165 C 292.4 171.25 289.93 181.52 290 195.26 M 290 165 C 288.66 172.57 291.08 183.33 290 195.26" fill="none" stroke="rgb(0, 0, 0)" stroke-width="2" stroke-linejoin="round" stroke-linecap="round" stroke-miterlimit="10" pointer-events="stroke"/><path d="M 285.18 192.56 C 285.18 192.56 285.18 192.56 285.18 192.56 M 285.18 192.56 C 285.18 192.56 285.18 192.56 285.18 192.56 M 288.59 200.82 C 292.13 200.1 291.28 196.23 295.15 193.28 M 288.59 200.82 C 291.35 198.38 292.58 194.28 295.15 193.28" fill="none" stroke="rgb(0, 0, 0)" stroke-linejoin="round" stroke-linecap="round" stroke-miterlimit="10" pointer-events="all"/><path d="M 290 202.76 C 290.13 197.24 287.07 193.96 285 192.76 M 290 202.76 C 287.44 199.51 287.41 198.07 285 192.76 M 285 192.76 C 285.79 194.45 288.01 194.15 290 195.26 M 285 192.76 C 287.09 193.97 288.99 194.1 290 195.26 M 290 195.26 C 292.2 194.33 292.5 194.37 295 192.76 M 290 195.26 C 291.53 194.37 293.3 193.41 295 192.76 M 295 192.76 C 294.33 194.07 292.73 197.23 290 202.76 M 295 192.76 C 292.62 196.76 291.01 198.54 290 202.76" fill="none" stroke="rgb(0, 0, 0)" stroke-width="2" stroke-linejoin="round" stroke-linecap="round" stroke-miterlimit="10" pointer-events="all"/></g></g><g data-cell-id="Qa6PBT78VURUzrQVQmo9-3"><g><rect x="270" y="205" width="70" height="20" rx="3" ry="3" fill="none" stroke="none" pointer-events="all"/><path d="M 273 205 C 291.47 205.18 303.31 201.23 337 205 C 339.85 207.88 340.77 203 340 208 C 338.13 214.13 340.04 219.31 340 222 C 338.58 220.42 337.41 220.17 337 225 C 313.88 220.62 293.23 223.97 273 225 C 272.72 220.54 266.53 220.14 270 222 C 267.98 220.33 270.5 216.49 270 208 C 265.56 203.74 267.66 207.5 273 205" fill="#fff2cc" stroke="none" pointer-events="all"/><path d="M 273 205 C 295.07 208.03 319.69 208.56 337 205 M 273 205 C 295.89 204.39 315.77 205.22 337 205 M 337 205 C 338.27 201.2 336.16 203.72 340 208 M 337 205 C 339.03 203.8 342.42 207.35 340 208 M 340 208 C 340.99 214.53 342.21 218.13 340 222 M 340 208 C 340.25 212.96 339.25 216.09 340 222 M 340 222 C 339.73 220.46 336.25 225.25 337 225 M 340 222 C 343.69 226.74 337.55 224.45 337 225 M 337 225 C 322.83 223.92 308.24 221.33 273 225 M 337 225 C 312.21 223.81 287.16 227.16 273 225 M 273 225 C 271.33 222.67 266.21 221.11 270 222 M 273 225 C 273.04 227.49 272.56 224.86 270 222 M 270 222 C 269.11 220.47 269.22 214.27 270 208 M 270 222 C 269.6 215.94 270.53 210.95 270 208 M 270 208 C 270.06 207.11 273.78 202.65 273 205 M 270 208 C 269.56 204.06 268.67 202.89 273 205" fill="none" stroke="#d6b656" stroke-linejoin="round" stroke-linecap="round" stroke-miterlimit="10" pointer-events="all"/></g></g><g data-cell-id="Qa6PBT78VURUzrQVQmo9-5"><g><path d="M 290 225 L 290 255.26" fill="none" stroke="none" pointer-events="stroke"/><path d="M 290 262.76 L 285 252.76 L 290 255.26 L 295 252.76 Z" fill="none" stroke="none" pointer-events="all"/><path d="M 290 225 C 285.85 233.04 292.32 244.5 290 255.26 M 290 225 C 290.87 234.34 290.74 240.89 290 255.26" fill="none" stroke="rgb(0, 0, 0)" stroke-width="2" stroke-linejoin="round" stroke-linecap="round" stroke-miterlimit="10" pointer-events="stroke"/><path d="M 284.71 253.1 C 284.71 253.1 284.71 253.1 284.71 253.1 M 284.71 253.1 C 284.71 253.1 284.71 253.1 284.71 253.1 M 288.78 260.61 C 291.33 258.95 294.91 256.46 295.34 253.06 M 288.78 260.61 C 290.62 257.76 292.14 256.04 295.34 253.06" fill="none" stroke="rgb(0, 0, 0)" stroke-linejoin="round" stroke-linecap="round" stroke-miterlimit="10" pointer-events="all"/><path d="M 290 262.76 C 286.19 258.2 288.13 255.59 285 252.76 M 290 262.76 C 289.46 260.04 287.92 255.83 285 252.76 M 285 252.76 C 285.69 253.85 288.75 253.82 290 255.26 M 285 252.76 C 286.57 253.44 287.36 254.13 290 255.26 M 290 255.26 C 291.62 253.72 293.42 253.83 295 252.76 M 290 255.26 C 290.99 254.93 291.86 254.54 295 252.76 M 295 252.76 C 293.75 254.26 293.81 259.24 290 262.76 M 295 252.76 C 291.97 256.88 290.64 260.9 290 262.76" fill="none" stroke="rgb(0, 0, 0)" stroke-width="2" stroke-linejoin="round" stroke-linecap="round" stroke-miterlimit="10" pointer-events="all"/></g></g><g data-cell-id="Qa6PBT78VURUzrQVQmo9-6"><g><path d="M 316.97 224 L 317 265 L 360 265 L 360 285.26" fill="none" stroke="none" pointer-events="stroke"/><path d="M 360 292.76 L 355 282.76 L 360 285.26 L 365 282.76 Z" fill="none" stroke="none" pointer-events="all"/><path d="M 316.97 224 C 318.61 241.56 314.74 249.02 317 265 M 316.97 224 C 316.18 239.86 315.22 254.94 317 265 M 317 265 C 337.14 262.61 348.19 264.69 360 265 M 317 265 C 327.01 263.91 337.62 263.47 360 265 M 360 265 C 358.62 270.17 363.44 273.87 360 285.26 M 360 265 C 358.01 271.38 359.13 275.18 360 285.26" fill="none" stroke="rgb(0, 0, 0)" stroke-width="2" stroke-linejoin="round" stroke-linecap="round" stroke-miterlimit="10" pointer-events="stroke"/><path d="M 355.18 282.56 C 355.18 282.56 355.18 282.56 355.18 282.56 M 355.18 282.56 C 355.18 282.56 355.18 282.56 355.18 282.56 M 358.59 290.82 C 359.05 288.2 365 286.67 365.15 283.28 M 358.59 290.82 C 360.44 288.59 362.05 287.67 365.15 283.28" fill="none" stroke="rgb(0, 0, 0)" stroke-linejoin="round" stroke-linecap="round" stroke-miterlimit="10" pointer-events="all"/><path d="M 360 292.76 C 359.35 291.63 355.5 284.77 355 282.76 M 360 292.76 C 358.17 289.62 355.8 286.05 355 282.76 M 355 282.76 C 357.95 282.97 358.32 284.52 360 285.26 M 355 282.76 C 356.02 283.19 357.2 283.7 360 285.26 M 360 285.26 C 361.09 284.44 363.8 283.24 365 282.76 M 360 285.26 C 360.81 284.89 362.46 283.77 365 282.76 M 365 282.76 C 362.27 283.66 363.22 290.06 360 292.76 M 365 282.76 C 363.1 286.32 362.2 289.68 360 292.76" fill="none" stroke="rgb(0, 0, 0)" stroke-width="2" stroke-linejoin="round" stroke-linecap="round" stroke-miterlimit="10" pointer-events="all"/></g></g><g data-cell-id="Qa6PBT78VURUzrQVQmo9-8"><g><rect x="320" y="295" width="80" height="40" rx="6" ry="6" fill="none" stroke="none" pointer-events="all"/><path d="M 326 295 C 349.58 293.82 375.1 299.27 394 295 C 403.51 293.57 398.49 293.65 400 301 C 402.32 309.73 405.39 327.09 400 329 C 397.76 338.37 396.89 331.19 394 335 C 376.09 331.22 366.46 336.44 326 335 C 317.33 336.91 324.93 330.92 320 329 C 315.87 322.24 322.84 313.28 320 301 C 315.88 294.45 318.61 299.39 326 295" fill="#dae8fc" stroke="none" pointer-events="all"/><path d="M 326 295 C 345.99 295.71 368.17 298.23 394 295 M 326 295 C 347.52 297.85 369.84 294.86 394 295 M 394 295 C 396.3 292.49 400.95 298.99 400 301 M 394 295 C 395.42 294.81 402.87 292.66 400 301 M 400 301 C 397.02 309.46 402.39 325.04 400 329 M 400 301 C 398.48 307.59 400.55 313.99 400 329 M 400 329 C 401.68 333.48 396.09 338.05 394 335 M 400 329 C 400.59 331.77 401.31 337.95 394 335 M 394 335 C 372.16 335.65 351.15 333.25 326 335 M 394 335 C 375.86 334.89 357.13 335.79 326 335 M 326 335 C 323.46 333.79 318.45 331.39 320 329 M 326 335 C 319.34 332.71 321.16 330.22 320 329 M 320 329 C 323.22 325.28 319.19 317.25 320 301 M 320 329 C 319.74 318.04 321.25 307.11 320 301 M 320 301 C 320.41 298.08 321.26 291.57 326 295 M 320 301 C 317.96 297.35 325.21 292.62 326 295" fill="none" stroke="#6c8ebf" stroke-linejoin="round" stroke-linecap="round" stroke-miterlimit="10" pointer-events="all"/></g></g><g data-cell-id="Qa6PBT78VURUzrQVQmo9-11"><g><path d="M 125 245 L 245 165" fill="none" stroke="none" pointer-events="stroke"/><path d="M 125 245 C 171.49 215.31 218.79 179.72 245 165 M 125 245 C 154.94 222.51 187.4 202.45 245 165" fill="none" stroke="#82b366" stroke-linejoin="round" stroke-linecap="round" stroke-miterlimit="10" stroke-dasharray="3 3" pointer-events="stroke"/></g></g><g data-cell-id="Qa6PBT78VURUzrQVQmo9-13"><g><path d="M 125 285 L 245 245" fill="none" stroke="none" pointer-events="stroke"/><path d="M 125 285 C 169.2 267.6 217.62 254.2 245 245 M 125 285 C 151.07 277.37 178.1 268.02 245 245" fill="none" stroke="#82b366" stroke-linejoin="round" stroke-linecap="round" stroke-miterlimit="10" stroke-dasharray="3 3" pointer-events="stroke"/></g></g><g data-cell-id="Qa6PBT78VURUzrQVQmo9-14"><g><path d="M 205 285 L 365 245" fill="none" stroke="none" pointer-events="stroke"/><path d="M 205 285 C 268.21 267.49 326.86 254.29 365 245 M 205 285 C 252.4 274.13 297.2 263.11 365 245" fill="none" stroke="#82b366" stroke-linejoin="round" stroke-linecap="round" stroke-miterlimit="10" stroke-dasharray="3 3" pointer-events="stroke"/></g></g></g></g></g></svg>