<svg xmlns="http://www.w3.org/2000/svg" xmlns:xlink="http://www.w3.org/1999/xlink" contentStyleType="text/css" data-diagram-type="ACTIVITY" height="674px" preserveAspectRatio="none" style="width:776px;height:674px;background:#FFFFFF;" version="1.1" viewBox="0 0 776 674" width="776px" zoomAndPan="magnify"><?plantuml $version$?><defs><filter height="300%" id="f14m8jgovjwrdj" width="300%" x="-1" y="-1"><feGaussianBlur result="blurOut" stdDeviation="4"/><feColorMatrix in="blurOut" result="blurOut2" type="matrix" values="0 0 0 0 0 0 0 0 0 0 0 0 0 0 0 0 0 0 .4 0"/><feOffset dx="8" dy="8" in="blurOut2" result="blurOut3"/><feBlend in="SourceGraphic" in2="blurOut3" mode="normal"/></filter></defs><g><ellipse cx="200.897" cy="50" fill="#000000" filter="url(#f14m8jgovjwrdj)" rx="20" ry="20" style="stroke:#000000;stroke-width:2;"/><path d="M315.0294,100.9321 L315.0294,138.3441 L275.0294,146.3441 L315.0294,154.3441 L315.0294,191.7561 A0,0 0 0 0 315.0294,191.7561 L613.3376,191.7561 A0,0 0 0 0 613.3376,191.7561 L613.3376,120.9321 L593.3376,100.9321 L315.0294,100.9321 A0,0 0 0 0 315.0294,100.9321" fill="#FBFB77" filter="url(#f14m8jgovjwrdj)" style="stroke:#A80036;stroke-width:2;"/><path d="M593.3376,100.9321 L593.3376,120.9321 L613.3376,120.9321 L593.3376,100.9321" fill="#FBFB77" style="stroke:#A80036;stroke-width:2;"/><text fill="#000000" font-family="sans-serif" font-size="26" lengthAdjust="spacing" textLength="256.3082" x="327.0294" y="138.7261">temperature: 4 bytes</text><text fill="#000000" font-family="sans-serif" font-size="26" lengthAdjust="spacing" textLength="209.6122" x="327.0294" y="174.1381">humidity: 4 bytes</text><rect fill="#FEFECE" filter="url(#f14m8jgovjwrdj)" height="72.6882" rx="25" ry="25" style="stroke:#A80036;stroke-width:3;" width="148.2647" x="126.7647" y="110"/><text fill="#000000" font-family="sans-serif" font-size="24" lengthAdjust="spacing" textLength="108.2647" x="146.7647" y="155.6562">read data</text><path d="M388.71,240.3942 L388.71,260.1003 L348.71,268.1003 L388.71,276.1003 L388.71,295.8063 A0,0 0 0 0 388.71,295.8063 L557.746,295.8063 A0,0 0 0 0 557.746,295.8063 L557.746,260.3942 L537.746,240.3942 L388.71,240.3942 A0,0 0 0 0 388.71,240.3942" fill="#FBFB77" filter="url(#f14m8jgovjwrdj)" style="stroke:#A80036;stroke-width:2;"/><path d="M537.746,240.3942 L537.746,260.3942 L557.746,260.3942 L537.746,240.3942" fill="#FBFB77" style="stroke:#A80036;stroke-width:2;"/><text fill="#000000" font-family="sans-serif" font-size="26" lengthAdjust="spacing" textLength="127.0361" x="400.71" y="278.1883">separately</text><rect fill="#FEFECE" filter="url(#f14m8jgovjwrdj)" height="72.6882" rx="25" ry="25" style="stroke:#A80036;stroke-width:3;" width="295.6258" x="53.0841" y="231.7561"/><text fill="#000000" font-family="sans-serif" font-size="24" lengthAdjust="spacing" textLength="255.6258" x="73.0841" y="277.4123">convert to little-endian</text><rect fill="#FEFECE" filter="url(#f14m8jgovjwrdj)" height="72.6882" rx="25" ry="25" style="stroke:#A80036;stroke-width:3;" width="235.1694" x="83.3124" y="344.4444"/><text fill="#000000" font-family="sans-serif" font-size="24" lengthAdjust="spacing" textLength="195.1694" x="103.3124" y="390.1006">binary to decimal</text><path d="M409.7941,448.0647 L409.7941,485.4767 L369.7941,493.4767 L409.7941,501.4767 L409.7941,538.8888 A0,0 0 0 0 409.7941,538.8888 L734.4923,538.8888 A0,0 0 0 0 734.4923,538.8888 L734.4923,468.0647 L714.4923,448.0647 L409.7941,448.0647 A0,0 0 0 0 409.7941,448.0647" fill="#FBFB77" filter="url(#f14m8jgovjwrdj)" style="stroke:#A80036;stroke-width:2;"/><path d="M714.4923,448.0647 L714.4923,468.0647 L734.4923,468.0647 L714.4923,448.0647" fill="#FBFB77" style="stroke:#A80036;stroke-width:2;"/><text fill="#000000" font-family="sans-serif" font-size="26" lengthAdjust="spacing" textLength="282.6982" x="421.7941" y="485.8587">not a real float number</text><text fill="#000000" font-family="sans-serif" font-size="26" lengthAdjust="spacing" textLength="189.6182" x="421.7941" y="521.2707">22.51 &#730;C is 2251</text><rect fill="#FEFECE" filter="url(#f14m8jgovjwrdj)" height="72.6882" rx="25" ry="25" style="stroke:#A80036;stroke-width:3;" width="337.7941" x="32" y="457.1326"/><text fill="#000000" font-family="sans-serif" font-size="24" lengthAdjust="spacing" textLength="297.7941" x="52" y="502.7888">divide temperature by 100</text><ellipse cx="200.897" cy="600.8888" fill="none" filter="url(#f14m8jgovjwrdj)" rx="22" ry="22" style="stroke:#000000;stroke-width:2;"/><ellipse cx="200.897" cy="600.8888" fill="#000000" rx="12" ry="12" style="stroke:#000000;stroke-width:2;"/><line style="stroke:#A80036;stroke-width:3;" x1="200.897" x2="200.897" y1="70" y2="110"/><polygon fill="#A80036" points="192.897,90,200.897,110,208.897,90,200.897,98" style="stroke:#A80036;stroke-width:2;stroke-linejoin:miter;stroke-miterlimit:10;"/><line style="stroke:#A80036;stroke-width:3;" x1="200.897" x2="200.897" y1="182.6882" y2="231.7561"/><polygon fill="#A80036" points="192.897,211.7561,200.897,231.7561,208.897,211.7561,200.897,219.7561" style="stroke:#A80036;stroke-width:2;stroke-linejoin:miter;stroke-miterlimit:10;"/><line style="stroke:#A80036;stroke-width:3;" x1="200.897" x2="200.897" y1="304.4444" y2="344.4444"/><polygon fill="#A80036" points="192.897,324.4444,200.897,344.4444,208.897,324.4444,200.897,332.4444" style="stroke:#A80036;stroke-width:2;stroke-linejoin:miter;stroke-miterlimit:10;"/><line style="stroke:#A80036;stroke-width:3;" x1="200.897" x2="200.897" y1="417.1326" y2="457.1326"/><polygon fill="#A80036" points="192.897,437.1326,200.897,457.1326,208.897,437.1326,200.897,445.1326" style="stroke:#A80036;stroke-width:2;stroke-linejoin:miter;stroke-miterlimit:10;"/><line style="stroke:#A80036;stroke-width:3;" x1="200.897" x2="200.897" y1="529.8208" y2="578.8888"/><polygon fill="#A80036" points="192.897,558.8888,200.897,578.8888,208.897,558.8888,200.897,566.8888" style="stroke:#A80036;stroke-width:2;stroke-linejoin:miter;stroke-miterlimit:10;"/><?plantuml-src LOz1RiCm40FlUWK_q28Mcejyx3ToMLlRUb5vPQpM0VoLVAcVYd89aXj1W4Eo_Od2QkFGPYgC649pCW_9c38oEOr1gpDCVXTFS5utDlBTEE4Bq-7SBhhigsJnusc5D5UziZcyeeXxuG_MBAJlkCORTHgN8wH9bEnu13BFib8PGyfobSolhPsFuNHwntGDGfzSy5CgENHV9xQBnlXv7l1_-uOqn7WU-hswtG40?></g></svg>