<?xml version="1.0" encoding="UTF-8" standalone="no"?>
<!-- Created with Inkscape (http://www.inkscape.org/) -->

<svg
   version="1.1"
   id="svg1"
   width="723.35999"
   height="819.81335"
   viewBox="0 0 723.35999 819.81335"
   sodipodi:docname="app-development-concept.svg"
   inkscape:version="1.4 (e7c3feb100, 2024-10-09)"
   xmlns:inkscape="http://www.inkscape.org/namespaces/inkscape"
   xmlns:sodipodi="http://sodipodi.sourceforge.net/DTD/sodipodi-0.dtd"
   xmlns="http://www.w3.org/2000/svg"
   xmlns:svg="http://www.w3.org/2000/svg">
  <defs
     id="defs1" />
  <sodipodi:namedview
     id="namedview1"
     pagecolor="#505050"
     bordercolor="#ffffff"
     borderopacity="1"
     inkscape:showpageshadow="0"
     inkscape:pageopacity="0"
     inkscape:pagecheckerboard="1"
     inkscape:deskcolor="#d1d1d1"
     inkscape:zoom="0.99412871"
     inkscape:cx="362.12615"
     inkscape:cy="409.90668"
     inkscape:window-width="1920"
     inkscape:window-height="1002"
     inkscape:window-x="0"
     inkscape:window-y="0"
     inkscape:window-maximized="1"
     inkscape:current-layer="g1">
    <inkscape:page
       x="0"
       y="0"
       inkscape:label="1"
       id="page1"
       width="723.35999"
       height="819.81335"
       margin="0"
       bleed="0" />
  </sodipodi:namedview>
  <g
     id="g1"
     inkscape:groupmode="layer"
     inkscape:label="1">
    <g
       id="group-R5">
      <path
         id="path2"
         d="m 1657.28,90.5117 c 0,6.7774 -0.97,12.6093 -2.98,17.4183 -1.94,4.879 -4.69,8.59 -8.23,11.242 -3.51,2.566 -7.37,3.898 -11.66,3.898 -6.76,0 -12.47,-2.859 -17.13,-8.398 -4.67,-5.602 -6.99,-13.75 -6.99,-24.6134 0,-10.207 2.32,-18.1289 6.93,-23.7578 4.64,-5.6602 10.38,-8.5391 17.19,-8.5391 4.1,0 7.88,1.25 11.38,3.75 3.43,2.4571 6.24,6.1602 8.34,11.0781 2.12,4.9805 3.15,10.9297 3.15,17.9219 z m -48.13,37.3403 v -3.09 c 4.61,5.937 9.4,10.328 14.37,13.09 4.99,2.796 10.66,4.23 16.96,4.23 7.53,0 14.5,-2.062 20.86,-6.172 6.35,-4.039 11.36,-9.961 15.07,-17.801 3.68,-7.847 5.51,-17.078 5.51,-27.8004 0,-7.8789 -1.03,-15.1875 -3.17,-21.707 -2.12,-6.6328 -5.05,-12.1797 -8.77,-16.6524 C 1666.25,47.4805 1661.85,44 1656.8,41.6523 1651.71,39.1914 1646.26,38 1640.48,38 c -7.06,0 -12.95,1.4609 -17.72,4.4102 -4.79,2.9296 -9.31,7.2187 -13.61,12.9414 V 16.8906 C 1609.15,5.58984 1605.21,0 1597.37,0 c -4.63,0 -7.7,1.41016 -9.16,4.33203 -1.51,2.92969 -2.25,7.16797 -2.25,12.72657 V 127.691 c 0,4.848 0.99,8.539 3.05,10.918 2.05,2.403 4.83,3.641 8.36,3.641 3.47,0 6.32,-1.238 8.5,-3.738 2.18,-2.512 3.28,-6.063 3.28,-10.66"
         style="fill:#351f17;fill-opacity:1;fill-rule:nonzero;stroke:none"
         transform="matrix(0.13333333,0,0,-0.13333333,0,819.81333)" />
      <path
         id="path3"
         d="M 1765.47,52.4922 V 55.75 c -2.97,-3.8984 -6.04,-7.1211 -9.3,-9.7187 -3.25,-2.6915 -6.78,-4.6407 -10.6,-5.9102 -3.86,-1.2617 -8.24,-1.9102 -13.14,-1.9102 -5.93,0 -11.25,1.3008 -15.96,3.8282 -4.72,2.5703 -8.35,6.1093 -10.92,10.6093 -3.09,5.4532 -4.61,13.2735 -4.61,23.4336 v 50.809 c 0,5.101 1.12,8.961 3.35,11.461 2.21,2.539 5.13,3.839 8.79,3.839 3.74,0 6.72,-1.3 9,-3.882 2.28,-2.567 3.42,-6.411 3.42,-11.418 V 85.8516 c 0,-5.9219 0.48,-10.9102 1.39,-14.9414 1.01,-4.0586 2.72,-7.2188 5.25,-9.5196 2.45,-2.2617 5.82,-3.4023 10.07,-3.4023 4.18,0 8.09,1.3008 11.7,3.8633 3.7,2.5468 6.36,5.8672 8.03,9.9882 1.4,3.6602 2.07,11.6094 2.07,23.879 v 31.1722 c 0,5.007 1.13,8.851 3.42,11.418 2.26,2.582 5.22,3.882 8.88,3.882 3.67,0 6.6,-1.3 8.81,-3.839 2.21,-2.5 3.3,-6.36 3.3,-11.461 V 52.6484 c 0,-4.8789 -1.03,-8.5586 -3.18,-10.9687 -2.09,-2.4688 -4.83,-3.6602 -8.2,-3.6602 -3.34,0 -6.11,1.2891 -8.3,3.7813 -2.19,2.5703 -3.27,6.0781 -3.27,10.6914"
         style="fill:#351f17;fill-opacity:1;fill-rule:nonzero;stroke:none"
         transform="matrix(0.13333333,0,0,-0.13333333,0,819.81333)" />
      <path
         id="path4"
         d="m 1836.69,89.5 c 0,-10.1914 2.22,-18.0078 6.66,-23.5117 4.49,-5.4492 10.34,-8.2266 17.61,-8.2266 6.2,0 11.49,2.8203 15.99,8.418 4.49,5.6094 6.7,13.582 6.7,24.0508 0,6.8398 -0.93,12.6485 -2.78,17.4885 -1.88,4.89 -4.54,8.679 -7.91,11.34 -3.47,2.621 -7.43,4.011 -12,4.011 -4.71,0 -8.82,-1.39 -12.5,-4.011 -3.67,-2.661 -6.53,-6.539 -8.65,-11.559 -2.09,-5 -3.12,-11 -3.12,-18 z m -1.18,76.172 v -39.16 c 4.57,5.058 9.3,8.847 14.1,11.547 4.8,2.66 10.76,4.023 17.83,4.023 8.14,0 15.28,-2.062 21.45,-6.082 6.13,-4.102 10.92,-9.91 14.3,-17.57 3.41,-7.668 5.08,-16.739 5.08,-27.2503 0,-7.8008 -0.93,-14.9102 -2.8,-21.4102 -1.91,-6.4609 -4.64,-12.0507 -8.23,-16.8398 -3.63,-4.75 -7.99,-8.3711 -13.1,-11.0703 C 1878.99,39.3086 1873.34,38 1867.18,38 c -3.78,0 -7.33,0.4688 -10.68,1.4219 -3.34,0.9297 -6.18,2.1367 -8.48,3.707 -2.37,1.4805 -4.35,3.0899 -6,4.6914 -1.66,1.6485 -3.81,4.0781 -6.51,7.3281 v -2.5 c 0,-4.8593 -1.13,-8.4882 -3.36,-10.9687 -2.19,-2.4688 -5.04,-3.6797 -8.42,-3.6797 -3.5,0 -6.24,1.2109 -8.35,3.6797 -2.06,2.5508 -3.09,6.1406 -3.09,10.9687 V 164.57 c 0,5.141 1.01,9.078 3.03,11.719 2,2.691 4.78,4.012 8.41,4.012 3.74,0 6.68,-1.281 8.7,-3.832 2.05,-2.52 3.08,-6.09 3.08,-10.797"
         style="fill:#351f17;fill-opacity:1;fill-rule:nonzero;stroke:none"
         transform="matrix(0.13333333,0,0,-0.13333333,0,819.81333)" />
      <path
         id="path5"
         d="M 1925.61,53.5898 V 164.719 c 0,5.16 1.08,9.023 3.27,11.652 2.19,2.609 5.14,3.93 8.86,3.93 3.72,0 6.7,-1.289 9.01,-3.91 2.24,-2.582 3.4,-6.5 3.4,-11.672 V 53.5898 c 0,-5.1796 -1.18,-9.0976 -3.47,-11.7304 -2.3,-2.5508 -5.29,-3.8594 -8.94,-3.8594 -3.59,0 -6.49,1.3398 -8.76,4.0391 -2.26,2.7109 -3.37,6.5312 -3.37,11.5507"
         style="fill:#351f17;fill-opacity:1;fill-rule:nonzero;stroke:none"
         transform="matrix(0.13333333,0,0,-0.13333333,0,819.81333)" />
      <path
         id="path6"
         d="M 2000.06,127.602 V 53.5898 c 0,-5.1679 -1.19,-9.0312 -3.49,-11.6679 -2.35,-2.5821 -5.33,-3.9219 -8.91,-3.9219 -3.61,0 -6.52,1.3398 -8.76,4.0313 -2.24,2.7187 -3.39,6.539 -3.39,11.5585 v 73.3012 c 0,5.007 1.15,8.851 3.39,11.418 2.24,2.582 5.15,3.882 8.76,3.882 3.58,0 6.56,-1.3 8.91,-3.882 2.3,-2.567 3.49,-6.11 3.49,-10.707 z m -12.16,26.527 c -3.39,0 -6.31,1.062 -8.78,3.332 -2.37,2.16 -3.61,5.309 -3.61,9.301 0,3.617 1.24,6.57 3.74,8.98 2.46,2.328 5.36,3.438 8.65,3.438 3.19,0 6.02,-1.032 8.48,-3.149 2.44,-2.121 3.68,-5.25 3.68,-9.269 0,-3.981 -1.21,-7.043 -3.6,-9.242 -2.4,-2.231 -5.23,-3.391 -8.56,-3.391"
         style="fill:#351f17;fill-opacity:1;fill-rule:nonzero;stroke:none"
         transform="matrix(0.13333333,0,0,-0.13333333,0,819.81333)" />
      <path
         id="path7"
         d="m 2113.38,69.7305 c 0,-3.1797 -0.9,-6.6016 -2.72,-10.2188 -1.87,-3.6406 -4.64,-7.082 -8.4,-10.3594 -3.73,-3.2929 -8.46,-5.9335 -14.14,-7.9023 -5.69,-2.0586 -12.13,-3.0391 -19.24,-3.0391 -15.19,0 -27.01,4.6211 -35.54,13.8204 -8.52,9.2578 -12.76,21.5976 -12.76,37.1289 0,10.4882 1.93,19.8198 5.81,27.8598 3.9,8.039 9.57,14.32 16.93,18.722 7.34,4.43 16.18,6.629 26.41,6.629 6.38,0 12.23,-0.992 17.53,-2.891 5.31,-1.96 9.8,-4.48 13.47,-7.511 3.69,-3.071 6.5,-6.34 8.48,-9.809 1.98,-3.469 2.9,-6.719 2.9,-9.719 0,-3.031 -1.11,-5.609 -3.27,-7.769 -2.19,-2.152 -4.82,-3.211 -7.95,-3.211 -2.06,0 -3.75,0.609 -5.11,1.699 -1.31,1.039 -2.86,2.77 -4.53,5.262 -3,4.726 -6.13,8.308 -9.4,10.75 -3.28,2.348 -7.44,3.59 -12.43,3.59 -7.29,0 -13.14,-3.012 -17.57,-8.91 -4.44,-5.95 -6.64,-14.0434 -6.64,-24.2817 0,-4.8086 0.58,-9.3008 1.71,-13.3203 1.14,-4.0391 2.8,-7.4492 4.93,-10.3281 2.17,-2.8516 4.76,-5 7.84,-6.4531 3.05,-1.4883 6.42,-2.2383 10.04,-2.2383 4.96,0 9.15,1.1679 12.65,3.5781 3.52,2.3906 6.63,6.0234 9.3,10.8633 1.54,2.9297 3.14,5.1601 4.89,6.8281 1.74,1.6016 3.87,2.3789 6.38,2.3789 3,0 5.49,-1.1601 7.48,-3.5078 1.94,-2.4297 2.95,-4.9492 2.95,-7.6406"
         style="fill:#351f17;fill-opacity:1;fill-rule:nonzero;stroke:none"
         transform="matrix(0.13333333,0,0,-0.13333333,0,819.81333)" />
      <path
         id="path8"
         d="m 2153.83,90.2305 c 0,-6.9297 1.03,-12.8203 3.09,-17.7305 2.08,-4.8984 4.88,-8.5312 8.46,-10.9883 3.63,-2.5 7.55,-3.75 11.77,-3.75 4.34,0 8.28,1.1992 11.83,3.5274 3.58,2.3593 6.41,5.9609 8.57,10.8125 2.12,4.8398 3.17,10.8984 3.17,18.1289 0,6.8593 -1.05,12.6995 -3.17,17.6215 -2.16,4.957 -5.01,8.668 -8.65,11.32 -3.62,2.566 -7.59,3.898 -11.89,3.898 -4.48,0 -8.49,-1.39 -12.05,-4.011 -3.51,-2.661 -6.27,-6.5 -8.22,-11.489 -1.94,-5 -2.91,-10.6989 -2.91,-17.3395 z m 48.24,-37.5821 v 2.5 c -3.28,-3.9375 -6.54,-7.1367 -9.77,-9.5976 -3.17,-2.4805 -6.67,-4.3516 -10.42,-5.6524 C 2178.16,38.6719 2174.04,38 2169.61,38 c -5.85,0 -11.32,1.3086 -16.31,3.8594 -4.98,2.6992 -9.33,6.3515 -12.98,11.1719 -3.65,4.8007 -6.42,10.4804 -8.33,17 -1.9,6.4804 -2.83,13.5273 -2.83,21.1484 0,15.9613 3.76,28.5003 11.24,37.4613 7.51,8.937 17.36,13.441 29.58,13.441 7.08,0 13.06,-1.301 17.89,-3.891 4.85,-2.492 9.6,-6.41 14.2,-11.679 v 37.828 c 0,5.269 1.01,9.23 3.03,11.922 2,2.699 4.84,4.039 8.56,4.039 3.72,0 6.56,-1.231 8.61,-3.68 2,-2.461 3.04,-6.152 3.04,-10.949 V 52.6484 c 0,-4.8789 -1.1,-8.5586 -3.27,-10.9687 -2.16,-2.4688 -4.95,-3.6797 -8.38,-3.6797 -3.31,0 -6.12,1.25 -8.32,3.8008 -2.18,2.5 -3.27,6.1015 -3.27,10.8476"
         style="fill:#351f17;fill-opacity:1;fill-rule:nonzero;stroke:none"
         transform="matrix(0.13333333,0,0,-0.13333333,0,819.81333)" />
      <path
         id="path9"
         d="m 2317.21,90.0391 c 0,10.4019 -2.22,18.5629 -6.64,24.3709 -4.4,5.801 -10.34,8.75 -17.75,8.75 -4.82,0 -9.02,-1.328 -12.7,-3.922 -3.64,-2.609 -6.46,-6.429 -8.43,-11.519 -1.99,-5.008 -2.98,-10.9104 -2.98,-17.6799 0,-6.6875 0.99,-12.5391 2.93,-17.5391 1.95,-4.9883 4.74,-8.8203 8.38,-11.5195 3.59,-2.6211 7.92,-3.9219 12.8,-3.9219 7.41,0 13.35,2.8828 17.75,8.7422 4.42,5.8203 6.64,13.918 6.64,24.2383 z m 24.63,0 c 0,-7.6094 -1.15,-14.6289 -3.42,-21.1407 -2.28,-6.3789 -5.56,-11.9296 -9.87,-16.5781 -4.34,-4.6406 -9.49,-8.0898 -15.49,-10.6406 C 2307.07,39.2109 2300.27,38 2292.82,38 c -7.43,0 -14.1,1.2109 -20.05,3.7617 -5.94,2.4766 -11.08,6.0586 -15.44,10.7305 -4.33,4.6797 -7.62,10.1484 -9.9,16.5 -2.24,6.3867 -3.34,13.3672 -3.34,21.0859 0,7.7617 1.13,14.8629 3.4,21.2739 2.29,6.468 5.54,11.957 9.79,16.57 4.27,4.527 9.41,8.066 15.49,10.527 6.08,2.461 12.73,3.742 20.05,3.742 7.44,0 14.2,-1.281 20.24,-3.781 6.04,-2.512 11.23,-6.101 15.55,-10.719 4.32,-4.621 7.6,-10.16 9.82,-16.543 2.3,-6.359 3.41,-13.4175 3.41,-21.1089"
         style="fill:#351f17;fill-opacity:1;fill-rule:nonzero;stroke:none"
         transform="matrix(0.13333333,0,0,-0.13333333,0,819.81333)" />
      <path
         id="path10"
         d="m 2445.53,111.191 c -1.82,-4.332 -2.71,-11.9527 -2.71,-22.9605 V 54.1797 c 0,-5.3711 -1.15,-9.4297 -3.53,-12.1406 -2.32,-2.6993 -5.43,-4.0391 -9.27,-4.0391 -3.69,0 -6.69,1.3398 -8.98,4.0391 -2.31,2.7109 -3.46,6.7695 -3.46,12.1406 v 40.8398 c 0,6.4415 -0.24,11.4495 -0.66,15.0505 -0.43,3.539 -1.56,6.489 -3.41,8.77 -1.83,2.301 -4.79,3.449 -8.79,3.449 -8.02,0 -13.29,-2.879 -15.87,-8.68 -2.56,-5.757 -3.8,-14.0074 -3.8,-24.8004 V 54.1797 c 0,-5.3594 -1.17,-9.3906 -3.45,-12.0586 -2.32,-2.7813 -5.37,-4.1211 -9.11,-4.1211 -3.74,0 -6.81,1.3398 -9.16,4.1211 -2.38,2.668 -3.53,6.6992 -3.53,12.0195 v 73.3514 c 0,4.817 1.03,8.496 3.13,10.969 2.17,2.488 4.96,3.789 8.45,3.789 3.35,0 6.16,-1.18 8.4,-3.52 2.25,-2.339 3.37,-5.558 3.37,-9.71 v -2.438 c 4.24,5.316 8.82,9.258 13.65,11.727 4.85,2.48 10.3,3.773 16.2,3.773 6.17,0 11.43,-1.301 15.88,-3.891 4.46,-2.55 8.09,-6.453 10.95,-11.609 4.15,5.199 8.6,9.16 13.33,11.668 4.76,2.539 9.98,3.832 15.73,3.832 6.75,0 12.51,-1.363 17.36,-4.152 4.87,-2.782 8.48,-6.68 10.89,-11.84 2.1,-4.621 3.13,-11.91 3.13,-21.891 V 54.1797 c 0,-5.3711 -1.15,-9.4297 -3.47,-12.1406 -2.38,-2.6993 -5.44,-4.0391 -9.28,-4.0391 -3.72,0 -6.77,1.3398 -9.11,4.1211 -2.4,2.668 -3.6,6.6992 -3.6,12.0586 v 43.1094 c 0,5.4999 -0.22,9.8909 -0.66,13.2419 -0.44,3.34 -1.66,6.098 -3.66,8.36 -1.96,2.25 -4.98,3.398 -8.97,3.398 -3.22,0 -6.31,-1.027 -9.18,-2.988 -2.96,-2.031 -5.17,-4.719 -6.81,-8.11 v 0"
         style="fill:#351f17;fill-opacity:1;fill-rule:nonzero;stroke:none"
         transform="matrix(0.13333333,0,0,-0.13333333,0,819.81333)" />
      <path
         id="path11"
         d="m 2584.57,89.5703 c -3.62,-1.4297 -8.85,-2.8594 -15.72,-4.4219 -6.86,-1.5195 -11.62,-2.6171 -14.27,-3.3671 -2.64,-0.7422 -5.15,-2.1211 -7.53,-4.211 -2.43,-2.1484 -3.62,-5.0703 -3.62,-8.8281 0,-3.9024 1.41,-7.1836 4.24,-9.8906 2.82,-2.7696 6.51,-4.1133 11.07,-4.1133 4.84,0 9.35,1.1328 13.45,3.3633 4.11,2.207 7.13,5.0976 9.03,8.5781 2.22,3.8789 3.35,10.2617 3.35,19.2187 z m 1.6,-37.1406 C 2580.21,47.6094 2574.48,44 2568.94,41.6523 2563.41,39.1914 2557.17,38 2550.3,38 c -6.33,0 -11.83,1.3086 -16.61,3.8594 -4.78,2.6328 -8.45,6.1523 -11.03,10.6328 -2.57,4.4375 -3.88,9.2187 -3.88,14.4375 0,7 2.18,12.9609 6.42,17.9297 4.23,4.8906 10.07,8.2109 17.5,9.9297 1.56,0.3711 5.45,1.1914 11.61,2.5 6.21,1.3515 11.47,2.5195 15.92,3.6329 4.38,1.058 9.19,2.398 14.34,3.949 -0.33,6.809 -1.62,11.758 -3.91,14.961 -2.32,3.129 -7.14,4.688 -14.37,4.688 -6.25,0 -10.92,-0.872 -14.11,-2.719 -3.13,-1.77 -5.84,-4.531 -8.06,-8.192 -2.27,-3.609 -3.84,-6.007 -4.76,-7.179 -0.95,-1.16 -2.96,-1.692 -5.98,-1.692 -2.79,0 -5.15,0.903 -7.13,2.731 -2.04,1.863 -3.05,4.211 -3.05,7.113 0,4.5 1.55,8.898 4.59,13.109 3.06,4.278 7.83,7.77 14.3,10.559 6.47,2.762 14.55,4.121 24.2,4.121 10.79,0 19.28,-1.359 25.49,-4.019 6.16,-2.61 10.49,-6.782 13.04,-12.602 2.57,-5.719 3.85,-13.398 3.85,-22.871 0,-6.0079 0,-11.1681 -0.05,-15.3204 -0.06,-4.207 -0.07,-8.8789 -0.14,-14.0078 0,-4.8086 0.76,-9.8594 2.3,-15.0391 1.5,-5.2031 2.26,-8.6133 2.26,-10.0898 0,-2.6133 -1.21,-5.0508 -3.55,-7.1719 -2.32,-2.1484 -5.02,-3.25 -8.02,-3.25 -2.53,0 -4.99,1.2109 -7.49,3.6797 -2.44,2.4805 -5.05,6.0898 -7.81,10.75"
         style="fill:#351f17;fill-opacity:1;fill-rule:nonzero;stroke:none"
         transform="matrix(0.13333333,0,0,-0.13333333,0,819.81333)" />
      <path
         id="path12"
         d="M 2658.16,127.602 V 53.5898 c 0,-5.1679 -1.19,-9.0312 -3.5,-11.6679 -2.34,-2.5821 -5.29,-3.9219 -8.88,-3.9219 -3.6,0 -6.57,1.3398 -8.79,4.0313 -2.26,2.7187 -3.38,6.539 -3.38,11.5585 v 73.3012 c 0,5.007 1.12,8.851 3.38,11.418 2.22,2.582 5.19,3.882 8.79,3.882 3.59,0 6.54,-1.3 8.88,-3.882 2.31,-2.567 3.5,-6.11 3.5,-10.707 z m -12.14,26.527 c -3.39,0 -6.3,1.062 -8.74,3.332 -2.43,2.16 -3.67,5.309 -3.67,9.301 0,3.617 1.26,6.57 3.76,8.98 2.47,2.328 5.37,3.438 8.65,3.438 3.16,0 6.01,-1.032 8.48,-3.149 2.42,-2.121 3.66,-5.25 3.66,-9.269 0,-3.981 -1.2,-7.043 -3.59,-9.242 -2.41,-2.231 -5.26,-3.391 -8.55,-3.391"
         style="fill:#351f17;fill-opacity:1;fill-rule:nonzero;stroke:none"
         transform="matrix(0.13333333,0,0,-0.13333333,0,819.81333)" />
      <path
         id="path13"
         d="m 2705.86,127.98 v -3.058 c 4.27,5.918 9.01,10.289 14.11,13.047 5.15,2.812 11.02,4.222 17.74,4.222 6.43,0 12.22,-1.472 17.36,-4.461 5.05,-2.91 8.89,-7.031 11.39,-12.421 1.61,-3.149 2.63,-6.559 3.14,-10.161 0.45,-3.617 0.73,-8.238 0.73,-13.886 V 53.5898 c 0,-5.1679 -1.17,-9.0312 -3.39,-11.6679 -2.25,-2.5821 -5.18,-3.9219 -8.76,-3.9219 -3.64,0 -6.63,1.3398 -8.83,4.0391 -2.3,2.7109 -3.47,6.5312 -3.47,11.5507 v 42.6797 c 0,8.4685 -1.09,14.9215 -3.34,19.4025 -2.31,4.469 -6.78,6.719 -13.5,6.719 -4.36,0 -8.36,-1.371 -11.96,-4.121 -3.59,-2.68 -6.22,-6.43 -7.9,-11.2 -1.2,-3.789 -1.83,-10.9216 -1.83,-21.4294 V 53.5898 c 0,-5.1796 -1.13,-9.0976 -3.45,-11.7304 -2.33,-2.5508 -5.3,-3.8594 -8.94,-3.8594 -3.52,0 -6.45,1.3398 -8.72,4.0313 -2.31,2.7187 -3.43,6.539 -3.43,11.5585 v 74.0122 c 0,4.918 1.01,8.527 3.07,10.949 2.01,2.398 4.85,3.64 8.36,3.64 2.15,0 4.12,-0.582 5.81,-1.621 1.81,-1.039 3.15,-2.679 4.21,-4.73 1.01,-2.199 1.6,-4.77 1.6,-7.86"
         style="fill:#351f17;fill-opacity:1;fill-rule:nonzero;stroke:none"
         transform="matrix(0.13333333,0,0,-0.13333333,0,819.81333)" />
      <path
         id="path14"
         d="m 2809.73,126.219 19.83,-58.1682 21.41,60.7112 c 1.72,4.879 3.35,8.297 4.99,10.359 1.64,2.008 4.05,3.07 7.33,3.07 3.15,0 5.79,-1.121 8.02,-3.339 2.16,-2.18 3.27,-4.672 3.27,-7.602 0,-1.109 -0.22,-2.41 -0.61,-3.871 -0.36,-1.547 -0.82,-2.969 -1.34,-4.297 -0.52,-1.281 -1.05,-2.801 -1.75,-4.461 l -23.57,-61.0116 c -0.66,-1.7383 -1.53,-3.9883 -2.55,-6.6797 -1.09,-2.6602 -2.26,-4.9492 -3.53,-6.9297 -1.31,-1.8789 -2.88,-3.3281 -4.75,-4.3984 -1.91,-1.0508 -4.21,-1.6016 -6.92,-1.6016 -3.47,0 -6.25,0.8086 -8.32,2.4609 -2.09,1.6602 -3.62,3.461 -4.58,5.4688 -0.99,1.9492 -2.68,5.8516 -5,11.6797 l -23.4,60.3316 c -0.55,1.508 -1.1,3.02 -1.7,4.5 -0.54,1.508 -0.98,3 -1.4,4.61 -0.37,1.59 -0.59,2.929 -0.59,4.019 0,1.782 0.51,3.512 1.55,5.211 1.02,1.739 2.44,3.188 4.23,4.239 1.82,1.089 3.72,1.671 5.85,1.671 4.05,0 6.88,-1.242 8.4,-3.73 1.54,-2.41 3.25,-6.492 5.13,-12.242"
         style="fill:#351f17;fill-opacity:1;fill-rule:nonzero;stroke:none"
         transform="matrix(0.13333333,0,0,-0.13333333,0,819.81333)" />
      <path
         id="path15"
         d="m 2910.16,98.3789 h 44.51 c -0.59,8.7501 -2.83,15.3201 -6.79,19.6411 -3.94,4.32 -9.11,6.5 -15.53,6.5 -6.08,0 -11.12,-2.2 -15.03,-6.59 -3.94,-4.399 -6.28,-10.918 -7.16,-19.5511 z m 48.04,-14.5508 h -48.04 c 0.02,-5.8672 1.19,-10.9687 3.34,-15.4687 2.22,-4.3906 5.12,-7.7188 8.74,-10 3.63,-2.2774 7.65,-3.3594 12.03,-3.3594 2.92,0 5.62,0.3516 8.03,1.0391 2.44,0.7617 4.79,1.8906 7.09,3.4023 2.24,1.5195 4.33,3.1484 6.26,4.957 1.9,1.7227 4.46,4.0704 7.46,7.0938 1.28,1.1875 3.08,1.707 5.4,1.707 2.54,0 4.58,-0.6992 6.13,-2.1601 1.57,-1.4375 2.32,-3.461 2.32,-6.0586 0,-2.3399 -0.86,-5.0586 -2.62,-8.1797 -1.72,-3.0586 -4.29,-6.0391 -7.86,-8.9219 -3.52,-2.8281 -7.93,-5.168 -13.23,-7.0898 C 2947.98,38.9297 2941.9,38 2934.96,38 c -15.76,0 -28.03,4.7109 -36.76,14.0703 -8.73,9.4297 -13.1,22.1094 -13.1,38.1602 0,7.6797 1.1,14.6405 3.23,21.0895 2.16,6.5 5.29,12.039 9.42,16.66 4.15,4.668 9.22,8.25 15.3,10.68 6.07,2.469 12.76,3.711 20.17,3.711 9.52,0 17.77,-2.109 24.64,-6.371 6.87,-4.219 12.01,-9.621 15.41,-16.32 3.45,-6.711 5.14,-13.52 5.14,-20.5003 0,-6.3984 -1.71,-10.5781 -5.29,-12.4883 -3.58,-1.9297 -8.5,-2.8633 -14.92,-2.8633"
         style="fill:#351f17;fill-opacity:1;fill-rule:nonzero;stroke:none"
         transform="matrix(0.13333333,0,0,-0.13333333,0,819.81333)" />
      <path
         id="path16"
         d="m 3087.17,69.7305 c 0,-3.1797 -0.89,-6.6016 -2.76,-10.2188 -1.83,-3.6406 -4.59,-7.082 -8.36,-10.3594 -3.74,-3.2929 -8.48,-5.9335 -14.19,-7.9023 -5.67,-2.0586 -12.11,-3.0391 -19.21,-3.0391 -15.21,0 -27.04,4.6211 -35.54,13.8204 -8.49,9.2578 -12.78,21.5976 -12.78,37.1289 0,10.4882 1.94,19.8198 5.87,27.8598 3.89,8.039 9.5,14.32 16.89,18.722 7.34,4.43 16.19,6.629 26.45,6.629 6.34,0 12.16,-0.992 17.5,-2.891 5.29,-1.96 9.76,-4.48 13.5,-7.511 3.68,-3.071 6.49,-6.34 8.47,-9.809 1.9,-3.469 2.9,-6.719 2.9,-9.719 0,-3.031 -1.09,-5.609 -3.33,-7.769 -2.17,-2.152 -4.82,-3.211 -7.92,-3.211 -2.06,0 -3.74,0.609 -5.05,1.699 -1.4,1.039 -2.9,2.77 -4.61,5.262 -2.99,4.726 -6.09,8.308 -9.36,10.75 -3.28,2.348 -7.43,3.59 -12.5,3.59 -7.19,0 -13.08,-3.012 -17.5,-8.91 -4.47,-5.95 -6.65,-14.0434 -6.65,-24.2817 0,-4.8086 0.59,-9.3008 1.69,-13.3203 1.16,-4.0391 2.82,-7.4492 4.96,-10.3281 2.17,-2.8516 4.79,-5 7.86,-6.4531 2.99,-1.4883 6.36,-2.2383 10.04,-2.2383 4.91,0 9.15,1.1679 12.65,3.5781 3.49,2.3906 6.62,6.0234 9.33,10.8633 1.48,2.9297 3.07,5.1601 4.82,6.8281 1.73,1.6016 3.85,2.3789 6.4,2.3789 2.97,0 5.49,-1.1601 7.41,-3.5078 2.02,-2.4297 3.02,-4.9492 3.02,-7.6406"
         style="fill:#351f17;fill-opacity:1;fill-rule:nonzero;stroke:none"
         transform="matrix(0.13333333,0,0,-0.13333333,0,819.81333)" />
      <path
         id="path17"
         d="m 3109.97,140.02 h 2.72 v 15.402 c 0,4.098 0.09,7.359 0.31,9.699 0.21,2.348 0.75,4.328 1.77,6.039 0.93,1.731 2.31,3.172 4.14,4.281 1.76,1.079 3.77,1.61 5.99,1.61 3.12,0 5.94,-1.219 8.45,-3.641 1.64,-1.66 2.73,-3.621 3.19,-5.941 0.44,-2.348 0.67,-5.719 0.67,-10.008 V 140.02 h 9.02 c 3.47,0 6.11,-0.868 7.95,-2.598 1.86,-1.723 2.75,-3.902 2.75,-6.602 0,-3.441 -1.3,-5.898 -3.93,-7.23 -2.59,-1.36 -6.33,-2.07 -11.19,-2.07 h -4.6 V 74.332 c 0,-4.0117 0.12,-7.082 0.39,-9.2734 0.31,-2.168 1.06,-3.9297 2.21,-5.2383 1.15,-1.3515 3.04,-2.0586 5.69,-2.0586 1.45,0 3.38,0.2578 5.87,0.8203 2.41,0.5391 4.33,0.7969 5.75,0.7969 1.96,0 3.78,-0.8672 5.33,-2.4492 1.57,-1.7109 2.39,-3.7188 2.39,-6.168 0,-4.1211 -2.11,-7.2812 -6.46,-9.4922 C 3154.02,39.1016 3147.83,38 3139.77,38 c -7.69,0 -13.52,1.3398 -17.48,4.0391 -3.94,2.7109 -6.57,6.3828 -7.74,11.2109 -1.27,4.7383 -1.86,11.082 -1.86,19.0508 V 121.52 h -3.3 c -3.45,0 -6.16,0.871 -8.03,2.66 -1.89,1.73 -2.8,3.941 -2.8,6.64 0,2.7 0.98,4.879 2.9,6.602 1.98,1.73 4.81,2.598 8.51,2.598"
         style="fill:#351f17;fill-opacity:1;fill-rule:nonzero;stroke:none"
         transform="matrix(0.13333333,0,0,-0.13333333,0,819.81333)" />
      <path
         id="path18"
         d="m 3241.04,90.0391 c 0,10.4019 -2.21,18.5629 -6.59,24.3709 -4.44,5.801 -10.32,8.75 -17.78,8.75 -4.79,0 -9.01,-1.328 -12.67,-3.922 -3.68,-2.609 -6.49,-6.429 -8.45,-11.519 -1.98,-5.008 -2.97,-10.9104 -2.97,-17.6799 0,-6.6875 0.99,-12.5391 2.95,-17.5391 1.92,-4.9883 4.69,-8.8203 8.32,-11.5195 3.62,-2.6211 7.88,-3.9219 12.82,-3.9219 7.46,0 13.34,2.8828 17.78,8.7422 4.38,5.8203 6.59,13.918 6.59,24.2383 z m 24.65,0 c 0,-7.6094 -1.13,-14.6289 -3.43,-21.1407 -2.27,-6.3789 -5.58,-11.9296 -9.88,-16.5781 -4.32,-4.6406 -9.49,-8.0898 -15.47,-10.6406 C 3230.93,39.2109 3224.21,38 3216.67,38 c -7.46,0 -14.14,1.2109 -20.06,3.7617 -5.94,2.4766 -11.1,6.0586 -15.41,10.7305 -4.34,4.6797 -7.66,10.1484 -9.88,16.5 -2.24,6.3867 -3.33,13.3672 -3.33,21.0859 0,7.7617 1.09,14.8629 3.33,21.2739 2.35,6.468 5.56,11.957 9.82,16.57 4.28,4.527 9.44,8.066 15.47,10.527 6.1,2.461 12.77,3.742 20.06,3.742 7.46,0 14.17,-1.281 20.24,-3.781 6.07,-2.512 11.23,-6.101 15.55,-10.719 4.28,-4.621 7.64,-10.16 9.86,-16.543 2.24,-6.359 3.37,-13.4175 3.37,-21.1089"
         style="fill:#351f17;fill-opacity:1;fill-rule:nonzero;stroke:none"
         transform="matrix(0.13333333,0,0,-0.13333333,0,819.81333)" />
      <path
         id="path19"
         d="M 3309.43,74.9414 V 53.5898 c 0,-5.1796 -1.17,-9.0976 -3.51,-11.7304 -2.35,-2.5508 -5.31,-3.8594 -8.94,-3.8594 -3.49,0 -6.43,1.3398 -8.7,3.9219 -2.27,2.6367 -3.39,6.5 -3.39,11.6679 v 71.3082 c 0,11.543 3.97,17.293 11.95,17.293 4.03,0 7.01,-1.402 8.81,-4.062 1.78,-2.668 2.73,-6.668 2.98,-11.91 2.92,5.242 5.94,9.242 9.04,11.91 3.09,2.66 7.19,4.062 12.31,4.062 5.22,0 10.2,-1.402 15.08,-4.062 4.82,-2.668 7.28,-6.258 7.28,-10.688 0,-3.121 -1.07,-5.761 -3.13,-7.761 -2.03,-2.008 -4.29,-3.051 -6.7,-3.051 -0.9,0 -3.08,0.59 -6.52,1.769 -3.46,1.153 -6.51,1.743 -9.15,1.743 -3.58,0 -6.51,-0.969 -8.76,-2.993 -2.29,-1.988 -4.07,-4.867 -5.33,-8.738 -1.26,-3.93 -2.16,-8.5116 -2.6,-13.8983 -0.47,-5.3125 -0.72,-11.8125 -0.72,-19.5703"
         style="fill:#351f17;fill-opacity:1;fill-rule:nonzero;stroke:none"
         transform="matrix(0.13333333,0,0,-0.13333333,0,819.81333)" />
      <path
         id="path20"
         d="m 3440.21,71.4609 c 0,-7.0625 -1.66,-13.1015 -5,-18.1406 -3.31,-5.0508 -8.16,-8.8281 -14.6,-11.4687 C 3414.14,39.3086 3406.32,38 3397.03,38 c -8.74,0 -16.34,1.4219 -22.65,4.2305 -6.28,2.8203 -10.95,6.3086 -13.92,10.539 -3.02,4.1993 -4.57,8.4414 -4.57,12.6719 0,2.8203 1,5.25 2.96,7.2383 1.9,2.0195 4.34,3.0117 7.24,3.0117 2.59,0 4.59,-0.6719 5.96,-1.9609 1.41,-1.3711 2.67,-3.1992 3.97,-5.5508 2.52,-4.6094 5.5,-8.0078 9.07,-10.25 3.44,-2.2891 8.25,-3.3984 14.34,-3.3984 4.9,0 8.94,1.1406 12.08,3.4492 3.13,2.25 4.76,4.8906 4.76,7.8203 0,4.5195 -1.66,7.8281 -4.89,9.8476 -3.32,2.1133 -8.67,4.0704 -16.18,5.9414 -8.44,2.2188 -15.34,4.5118 -20.64,6.8985 -5.32,2.4023 -9.62,5.6133 -12.76,9.5508 -3.17,3.9099 -4.79,8.7929 -4.79,14.5509 0,5.14 1.48,9.988 4.42,14.512 2.93,4.609 7.31,8.25 13.02,10.957 5.72,2.73 12.63,4.132 20.75,4.132 6.34,0 12.06,-0.742 17.14,-2.089 5.05,-1.372 9.33,-3.223 12.66,-5.52 3.4,-2.332 6.01,-4.891 7.75,-7.691 1.8,-2.86 2.68,-5.61 2.68,-8.27 0,-2.949 -0.94,-5.301 -2.85,-7.269 -1.9,-1.793 -4.61,-2.77 -8.04,-2.77 -2.54,0 -4.67,0.75 -6.45,2.289 -1.74,1.469 -3.8,3.711 -6.07,6.68 -1.85,2.519 -4.03,4.551 -6.58,6.039 -2.53,1.469 -5.95,2.242 -10.24,2.242 -4.45,0 -8.16,-0.961 -11.05,-2.961 -2.96,-1.973 -4.44,-4.441 -4.44,-7.383 0,-2.679 1.09,-4.886 3.22,-6.629 2.2,-1.718 5.08,-3.129 8.75,-4.269 3.67,-1.141 8.71,-2.52 15.13,-4.149 7.6,-1.9097 13.83,-4.2301 18.67,-6.941 4.82,-2.6602 8.48,-5.8281 10.96,-9.5078 2.52,-3.7031 3.77,-7.8633 3.77,-12.5313"
         style="fill:#351f17;fill-opacity:1;fill-rule:nonzero;stroke:none"
         transform="matrix(0.13333333,0,0,-0.13333333,0,819.81333)" />
      <path
         id="path21"
         d="m 3468.07,38 c -3.7,0 -6.92,1.2109 -9.58,3.7617 -2.76,2.4766 -4.08,6.0078 -4.08,10.4766 0,3.8008 1.26,7.0937 3.81,9.8633 2.59,2.7382 5.8,4.0781 9.57,4.0781 3.75,0 7,-1.3399 9.6,-4.0586 2.71,-2.6797 4.07,-6.0391 4.07,-9.8828 0,-4.4492 -1.36,-7.9375 -4.07,-10.4375 C 3474.79,39.25 3471.68,38 3468.07,38"
         style="fill:#351f17;fill-opacity:1;fill-rule:nonzero;stroke:none"
         transform="matrix(0.13333333,0,0,-0.13333333,0,819.81333)" />
      <path
         id="path22"
         d="m 3576.64,90.0391 c 0,10.4019 -2.22,18.5629 -6.62,24.3709 -4.4,5.801 -10.3,8.75 -17.73,8.75 -4.81,0 -8.99,-1.328 -12.67,-3.922 -3.67,-2.609 -6.48,-6.429 -8.44,-11.519 -1.95,-5.008 -2.97,-10.9104 -2.97,-17.6799 0,-6.6875 0.95,-12.5391 2.88,-17.5391 2.02,-4.9883 4.78,-8.8203 8.42,-11.5195 3.6,-2.6211 7.87,-3.9219 12.78,-3.9219 7.43,0 13.33,2.8828 17.73,8.7422 4.4,5.8203 6.62,13.918 6.62,24.2383 z m 24.68,0 c 0,-7.6094 -1.12,-14.6289 -3.45,-21.1407 -2.28,-6.3789 -5.57,-11.9296 -9.88,-16.5781 -4.34,-4.6406 -9.44,-8.0898 -15.47,-10.6406 C 3566.54,39.2109 3559.8,38 3552.29,38 c -7.44,0 -14.13,1.2109 -20.06,3.7617 -5.93,2.4766 -11.04,6.0586 -15.37,10.7305 -4.41,4.6797 -7.69,10.1484 -9.98,16.5 -2.19,6.3867 -3.33,13.3672 -3.33,21.0859 0,7.7617 1.14,14.8629 3.42,21.2739 2.33,6.468 5.54,11.957 9.78,16.57 4.26,4.527 9.42,8.066 15.48,10.527 6.07,2.461 12.71,3.742 20.06,3.742 7.43,0 14.17,-1.281 20.23,-3.781 6.08,-2.512 11.25,-6.101 15.58,-10.719 4.29,-4.621 7.56,-10.16 9.84,-16.543 2.26,-6.359 3.38,-13.4175 3.38,-21.1089"
         style="fill:#351f17;fill-opacity:1;fill-rule:nonzero;stroke:none"
         transform="matrix(0.13333333,0,0,-0.13333333,0,819.81333)" />
      <path
         id="path23"
         d="M 3645.04,74.9414 V 53.5898 c 0,-5.1796 -1.17,-9.0976 -3.5,-11.7304 -2.33,-2.5508 -5.31,-3.8594 -8.87,-3.8594 -3.62,0 -6.47,1.3398 -8.78,3.9219 -2.28,2.6367 -3.41,6.5 -3.41,11.6679 v 71.3082 c 0,11.543 4.04,17.293 11.98,17.293 4.08,0 6.99,-1.402 8.79,-4.062 1.77,-2.668 2.82,-6.668 3.02,-11.91 2.9,5.242 5.9,9.242 8.99,11.91 3.09,2.66 7.23,4.062 12.34,4.062 5.22,0 10.24,-1.402 15.03,-4.062 4.88,-2.668 7.32,-6.258 7.32,-10.688 0,-3.121 -1.05,-5.761 -3.09,-7.761 -2.11,-2.008 -4.29,-3.051 -6.74,-3.051 -0.87,0 -3.03,0.59 -6.5,1.769 -3.44,1.153 -6.48,1.743 -9.15,1.743 -3.57,0 -6.48,-0.969 -8.83,-2.993 -2.23,-1.988 -4.02,-4.867 -5.28,-8.738 -1.24,-3.93 -2.14,-8.5116 -2.6,-13.8983 -0.47,-5.3125 -0.72,-11.8125 -0.72,-19.5703"
         style="fill:#351f17;fill-opacity:1;fill-rule:nonzero;stroke:none"
         transform="matrix(0.13333333,0,0,-0.13333333,0,819.81333)" />
      <path
         id="path24"
         d="m 3715.92,90.8984 c 0,-10.3398 2.18,-18.1992 6.55,-23.5586 4.32,-5.2812 9.97,-7.9609 16.81,-7.9609 4.06,0 7.96,1.1719 11.57,3.4609 3.63,2.2891 6.59,5.7188 8.89,10.3008 2.28,4.6211 3.4,10.211 3.4,16.7383 0,10.4531 -2.22,18.5901 -6.63,24.4021 -4.38,5.86 -10.2,8.789 -17.37,8.789 -6.98,0 -12.64,-2.859 -16.84,-8.398 -4.26,-5.582 -6.38,-13.473 -6.38,-23.7736 z m 71.17,32.5236 V 48.9609 c 0,-8.5312 -0.93,-15.8398 -2.64,-21.9296 -1.74,-6.1915 -4.53,-11.2305 -8.36,-15.2422 -3.82,-4.01957 -8.87,-6.95707 -15.05,-8.91801 C 3754.83,0.988281 3747.1,0 3737.9,0 c -8.51,0 -16.06,1.19141 -22.69,3.64844 -6.67,2.55078 -11.78,5.68359 -15.38,9.61326 -3.61,3.8789 -5.42,7.918 -5.42,12.0899 0,3.1093 1.01,5.6601 3.1,7.6093 2.01,2.0196 4.47,2.9883 7.34,2.9883 3.63,0 6.73,-1.6601 9.48,-4.9687 1.31,-1.7305 2.69,-3.4102 4.08,-5.1211 1.38,-1.75 2.95,-3.2305 4.67,-4.4102 1.7,-1.2578 3.79,-2.1679 6.19,-2.7695 2.34,-0.5899 5.12,-0.8789 8.26,-0.8789 6.31,0 11.3,0.9414 14.77,2.7812 3.53,1.8282 5.98,4.3985 7.43,7.7188 1.35,3.3086 2.23,6.8281 2.38,10.6484 0.29,3.8399 0.45,9.8711 0.61,18.2813 -3.76,-5.4805 -8.19,-9.6914 -13.09,-12.5586 -4.93,-2.8711 -10.85,-4.2813 -17.64,-4.2813 -8.27,0 -15.47,2.1289 -21.56,6.5586 -6.18,4.3711 -10.91,10.4922 -14.21,18.4102 -3.25,7.8398 -4.94,16.9492 -4.94,27.2812 0,7.7504 0.99,14.6914 3.05,20.8904 1.96,6.149 4.81,11.391 8.57,15.649 3.68,4.261 8.02,7.48 12.85,9.648 4.89,2.121 10.16,3.254 16.03,3.254 6.92,0 12.97,-1.434 18.04,-4.23 5.15,-2.762 9.85,-7.153 14.21,-13.09 v 3.449 c 0,4.469 1.1,7.871 3.16,10.391 2.1,2.41 4.81,3.648 8.08,3.648 4.77,0 7.91,-1.602 9.5,-4.828 1.52,-3.242 2.32,-7.922 2.32,-14"
         style="fill:#351f17;fill-opacity:1;fill-rule:nonzero;stroke:none"
         transform="matrix(0.13333333,0,0,-0.13333333,0,819.81333)" />
      <path
         id="path25"
         d="m 2722.97,372.922 h 36.43 c -2.58,-19.652 -10.61,-34.981 -24,-46 -12.39,-10.781 -27.39,-16.113 -44.91,-16.113 -23.78,0 -42.75,8.343 -56.92,25.023 -13.44,15.848 -20.15,36.316 -20.15,61.348 0,25.629 6.67,46.121 19.96,61.629 13.27,15.453 32.06,23.23 56.31,23.23 18.04,0 33.32,-4.891 45.71,-14.578 13.14,-10.461 21.15,-25.172 24,-44.039 h -36.43 c -3.13,16.437 -13.18,24.637 -30.26,24.637 -28.14,0 -42.25,-16.668 -42.25,-50.028 0,-15.633 3.64,-28.402 10.87,-38.359 7.25,-9.973 17.44,-14.961 30.62,-14.961 19.62,0 29.97,9.41 31.02,28.211 z m -143.35,22.957 c 0,-32.578 10.34,-60.168 30.99,-82.629 20.65,-22.488 45.93,-33.738 75.94,-33.738 29.9,0 55.21,11.25 75.84,33.738 20.69,22.461 30.97,50.051 30.97,82.629 0,32.582 -10.28,60.152 -30.97,82.641 -20.63,22.492 -45.94,33.75 -75.84,33.75 -30.01,0 -55.29,-11.258 -75.94,-33.75 -20.65,-22.489 -30.99,-50.059 -30.99,-82.641 z m -36.98,0 c 0,41.48 14.02,76.871 42.12,106.293 28.12,29.34 62.06,44.019 101.79,44.019 39.68,0 73.57,-14.679 101.71,-44.019 28.12,-29.422 42.19,-64.813 42.19,-106.293 0,-41.488 -14.07,-76.938 -42.19,-106.277 -28.14,-29.372 -62.03,-44.082 -101.71,-44.082 -39.73,0 -73.67,14.71 -101.79,44.082 -28.1,29.339 -42.12,64.789 -42.12,106.277"
         style="fill:#351f17;fill-opacity:1;fill-rule:nonzero;stroke:none"
         transform="matrix(0.13333333,0,0,-0.13333333,0,819.81333)" />
      <path
         id="path26"
         d="m 2600.86,301.621 20.99,-17.812 154.35,198.203 -20.99,17.777 -154.35,-198.168"
         style="fill:#351f17;fill-opacity:1;fill-rule:nonzero;stroke:none"
         transform="matrix(0.13333333,0,0,-0.13333333,0,819.81333)" />
      <path
         id="path27"
         d="m 2671.85,804.859 c 1471.6,0 2671.85,1200.251 2671.85,2671.851 0,1471.6 -1200.25,2671.85 -2671.85,2671.85 C 1200.25,6148.56 0,4948.31 0,3476.71 0,2005.11 1200.25,804.859 2671.85,804.859"
         style="fill:#e2d2af;fill-opacity:1;fill-rule:evenodd;stroke:none"
         transform="matrix(0.13333333,0,0,-0.13333333,0,819.81333)" />
      <path
         id="path28"
         d="M 124.91,2577.22 H 2796.75 V 1430.84 H 124.91 v 1146.38"
         style="fill:#ffffff;fill-opacity:1;fill-rule:evenodd;stroke:none"
         transform="matrix(0.13333333,0,0,-0.13333333,0,819.81333)" />
      <path
         id="path29"
         d="m 1720.6,2274.47 c 76.93,0 153.86,0 230.8,0 0,-41.64 0,-83.26 0,-124.9 -76.94,0 -153.87,0 -230.8,0 0,41.64 0,83.26 0,124.9 z m -375.16,0 c 76.94,0 153.85,0 230.79,0 0,-41.64 0,-83.26 0,-124.9 -76.94,0 -153.85,0 -230.79,0 0,41.64 0,83.26 0,124.9 z m -375.167,0 c 76.937,0 153.867,0 230.797,0 0,-41.64 0,-83.26 0,-124.9 -76.93,0 -153.86,0 -230.797,0 0,41.64 0,83.26 0,124.9 z m -750.332,0 c 76.934,0 153.868,0 230.801,0 0,-41.64 0,-83.26 0,-124.9 -76.933,0 -153.867,0 -230.801,0 0,41.64 0,83.26 0,124.9 z M 2470.91,2066.75 c 76.93,0 153.87,0 230.8,0 0,-41.66 0,-83.28 0,-124.9 -76.93,0 -153.87,0 -230.8,0 0,41.62 0,83.24 0,124.9 z m -375.16,0 c 76.94,0 153.87,0 230.8,0 0,-41.66 0,-83.28 0,-124.9 -76.93,0 -153.86,0 -230.8,0 0,41.62 0,83.24 0,124.9 z m -375.15,0 c 76.93,0 153.86,0 230.8,0 0,-41.66 0,-83.28 0,-124.9 -76.94,0 -153.87,0 -230.8,0 0,41.62 0,83.24 0,124.9 z m -375.16,0 c 76.94,0 153.85,0 230.79,0 0,-41.66 0,-83.28 0,-124.9 -76.94,0 -153.85,0 -230.79,0 0,41.62 0,83.24 0,124.9 z m -375.167,0 c 76.937,0 153.867,0 230.797,0 0,-41.66 0,-83.28 0,-124.9 -76.93,0 -153.86,0 -230.797,0 0,41.62 0,83.24 0,124.9 z m -750.332,0 c 76.934,0 153.868,0 230.801,0 0,-41.66 0,-83.28 0,-124.9 -76.933,0 -153.867,0 -230.801,0 0,41.62 0,83.24 0,124.9 z M 2470.91,1859.02 c 76.93,0 153.87,0 230.8,0 0,-41.62 0,-83.24 0,-124.88 -76.93,0 -153.87,0 -230.8,0 0,41.64 0,83.26 0,124.88 z m -375.16,0 c 76.94,0 153.87,0 230.8,0 0,-41.62 0,-83.24 0,-124.88 -76.93,0 -153.86,0 -230.8,0 0,41.64 0,83.26 0,124.88 z m -375.15,0 c 76.93,0 153.86,0 230.8,0 0,-41.62 0,-83.24 0,-124.88 -76.94,0 -153.87,0 -230.8,0 0,41.64 0,83.26 0,124.88 z m -375.16,0 c 76.94,0 153.85,0 230.79,0 0,-41.62 0,-83.24 0,-124.88 -76.94,0 -153.85,0 -230.79,0 0,41.64 0,83.26 0,124.88 z m -375.167,0 c 76.937,0 153.867,0 230.797,0 0,-41.62 0,-83.24 0,-124.88 -76.93,0 -153.86,0 -230.797,0 0,41.64 0,83.26 0,124.88 z m -750.332,0 c 76.934,0 153.868,0 230.801,0 0,-41.62 0,-83.24 0,-124.88 -76.933,0 -153.867,0 -230.801,0 0,41.64 0,83.26 0,124.88 z m 2250.969,-207.7 h 230.8 V 1526.4 h -230.8 v 124.92 z m -375.16,0 c 76.94,0 153.87,0 230.8,0 0,-41.64 0,-83.3 0,-124.92 -76.93,0 -153.86,0 -230.8,0 0,41.62 0,83.28 0,124.92 z m -1125.477,0 H 1951.4 c 0,-41.64 0,-83.3 0,-124.92 h -3.61 -3.61 -3.6 -3.61 -0.92 -2.68 -3.61 -3.61 -3.6 -1.8 -1.81 -3.6 -3.61 -3.6 -2.73 -0.88 -3.61 -3.61 -3.6 -3.61 -0.02 -3.59 -3.6 -3.61 -3.6 -0.92 -2.69 -3.61 -3.6 -3.61 -1.84 -1.76 -3.61 -3.61 -3.6 -2.72 -0.89 -3.61 -3.6 -3.61 -3.61 -0.03 -3.57 -3.61 -3.6 -3.61 -0.94 -2.67 -3.6 -3.61 -3.6 -1.84 -1.77 -3.61 -3.6 -3.61 -2.76 -0.84 -3.61 -3.61 -3.61 -3.6 -0.06 -3.55 -3.6 -3.61 -3.6 -0.96 -2.65 -3.61 -3.6 -3.61 -1.86 -1.75 -3.6 -3.61 -3.6 -2.76 -0.85 -144.37 -3.61 -3.61 -0.87 -2.72 -3.6 -3.63 -3.59 -1.8 -1.82 -3.58 -3.62 -3.62 -2.68 -0.92 -3.61 -3.59 -3.6 -3.61 -0.02 -3.6 -3.61 -3.59 -3.61 -0.9 -2.72 -3.61 -3.6 -3.59 -1.81 -1.79 -3.62 -3.62 -3.6 -2.71 -0.88 -3.61 -3.6 -3.63 -3.6 -3.59 -3.61 -3.61 -3.62 -0.9 -2.69 -3.61 -3.6 -3.6 -1.83 -1.8 -3.59 -3.61 -3.6 -2.73 -0.88 -3.62 -3.59 -3.61 -3.6 -0.04 -3.57 -3.63 -3.58 -3.61 -0.92 -2.68 -3.61 -3.63 -3.58 -1.84 -1.77 -3.61 -3.6 -3.62 -2.73 -0.86 -3.61 -3.61 -375.167 c 0,41.62 0,83.28 0,124.92 z m -750.332,0 H 450.742 V 1526.4 H 219.941 v 124.92 z m 375.157,0 c 76.933,0 153.867,0 230.8,0 0,-41.64 0,-83.3 0,-124.92 -76.933,0 -153.867,0 -230.8,0 0,41.62 0,83.28 0,124.92 z m 0,207.7 c 76.933,0 153.867,0 230.8,0 0,-41.62 0,-83.24 0,-124.88 -76.933,0 -153.867,0 -230.8,0 0,41.64 0,83.26 0,124.88 z m 0,207.73 c 76.933,0 153.867,0 230.8,0 0,-41.66 0,-83.28 0,-124.9 -76.933,0 -153.867,0 -230.8,0 0,41.62 0,83.24 0,124.9 z M 2470.91,2482.2 h 230.8 v -124.92 h -230.8 v 124.92 z m -375.16,0 c 76.94,0 153.87,0 230.8,0 0,-41.64 0,-83.3 0,-124.92 -76.93,0 -153.86,0 -230.8,0 0,41.62 0,83.28 0,124.92 z m -375.15,0 c 76.93,0 153.86,0 230.8,0 0,-41.64 0,-83.3 0,-124.92 -76.94,0 -153.87,0 -230.8,0 0,41.62 0,83.28 0,124.92 z m -375.16,0 c 76.94,0 153.85,0 230.79,0 0,-41.64 0,-83.3 0,-124.92 -76.94,0 -153.85,0 -230.79,0 0,41.62 0,83.28 0,124.92 z m -375.167,0 c 76.937,0 153.867,0 230.797,0 0,-41.64 0,-83.3 0,-124.92 -76.93,0 -153.86,0 -230.797,0 0,41.62 0,83.28 0,124.92 z m -750.332,0 H 450.742 V 2357.28 H 219.941 v 124.92 z m 375.157,0 c 76.933,0 153.867,0 230.8,0 0,-41.64 0,-83.3 0,-124.92 -76.933,0 -153.867,0 -230.8,0 0,41.62 0,83.28 0,124.92 z m 0,-207.73 c 76.933,0 153.867,0 230.8,0 0,-41.64 0,-83.26 0,-124.9 -76.933,0 -153.867,0 -230.8,0 0,41.64 0,83.26 0,124.9 z m 1875.812,0 c 76.93,0 153.87,0 230.8,0 0,-41.64 0,-83.26 0,-124.9 -76.93,0 -153.87,0 -230.8,0 0,41.64 0,83.26 0,124.9 z m -375.16,0 c 76.94,0 153.87,0 230.8,0 0,-41.64 0,-83.26 0,-124.9 -76.93,0 -153.86,0 -230.8,0 0,41.64 0,83.26 0,124.9 v 0"
         style="fill:#a2525f;fill-opacity:1;fill-rule:evenodd;stroke:none"
         transform="matrix(0.13333333,0,0,-0.13333333,0,819.81333)" />
      <path
         id="path30"
         d="m 4398.46,5662.05 -812.59,-402.19 v -298.92 c 0,-553.28 304.76,-1069.3 812.59,-1397.33 507.84,328.03 812.59,844.05 812.59,1397.33 v 298.92 l -812.59,402.19"
         style="fill:#ffffff;fill-opacity:1;fill-rule:evenodd;stroke:none"
         transform="matrix(0.13333333,0,0,-0.13333333,0,819.81333)" />
      <path
         id="path31"
         d="m 4398.46,5477.52 -647.22,-320.34 v -196.24 c 0,-487.85 262.56,-914.28 647.22,-1196.62 384.68,282.34 647.2,708.77 647.2,1196.62 v 196.24 l -647.2,320.34"
         style="fill:#a2525f;fill-opacity:1;fill-rule:evenodd;stroke:none"
         transform="matrix(0.13333333,0,0,-0.13333333,0,819.81333)" />
      <path
         id="path32"
         d="M 874.316,2146.21 H 4469.37 v 2661 H 874.316 v -2661"
         style="fill:#ffffff;fill-opacity:1;fill-rule:evenodd;stroke:none"
         transform="matrix(0.13333333,0,0,-0.13333333,0,819.81333)" />
      <path
         id="path33"
         d="M 1026.36,2325.43 H 4317.32 V 4417.35 H 1026.36 V 2325.43"
         style="fill:#baa578;fill-opacity:1;fill-rule:evenodd;stroke:none"
         transform="matrix(0.13333333,0,0,-0.13333333,0,819.81333)" />
      <path
         id="path34"
         d="m 2109.79,2594.21 h 175.79 v -92.32 h -175.79 z m -692.42,0 h 570.89 v -92.32 h -570.89 v 92.32 z m -228.09,0 h 106.56 v -92.32 h -106.56 v 92.32 z m 739.25,230.04 h 396.43 v -92.32 h -396.43 v 92.32 z m -739.25,0 h 106.56 v -92.32 h -106.56 c 0,30.78 0,61.54 0,92.32 z m 1714.02,230.02 h 608.24 v -92.3 H 2903.3 v 92.3 z m -669.31,0 h 430.39 v -92.3 h -430.39 v 92.3 z m -590.57,0 h 344.84 v -92.3 h -344.84 v 92.3 z m -454.14,0 h 106.56 v -92.3 h -106.56 c 0,30.76 0,61.54 0,92.3 z m 1347.46,230.04 h 427.32 v -92.32 h -427.32 v 92.32 z m -608.21,0 h 357.05 v -92.32 h -357.05 v 92.32 z m -739.25,0 h 106.56 v -92.32 h -106.56 c 0,30.76 0,61.54 0,92.32 z m 1681.44,230.02 h 600.09 v -92.32 h -600.09 v 92.32 z m -700.54,0 h 629.96 v -92.32 h -629.96 v 92.32 z m -752.81,0 h 474.49 v -92.32 h -474.49 v 92.32 z m -228.09,0 h 106.56 v -92.32 h -106.56 c 0,30.76 0,61.54 0,92.32 z m 2102.31,230.01 h 475.18 v -92.3 h -475.18 v 92.3 z m -860.74,0 h 570.2 v -92.3 h -570.2 v 92.3 z m -1013.48,0 h 722.93 v -92.3 h -722.93 v 92.3 z m -228.09,0 h 106.56 v -92.3 h -106.56 c 0,30.75 0,61.55 0,92.3 z m 1835.53,460.05 H 3593 v -92.31 h -568.19 v 92.31 z m -631.97,0 h 510.46 v -92.31 h -510.46 v 92.31 z m -975.47,0 h 657.77 v -92.31 h -657.77 v 92.31 z m -228.09,0 h 106.56 v -92.31 h -106.56 v 92.31 z m 2487.9,-230.02 h 325.14 c 0,-30.77 0,-61.54 0,-92.31 h -325.14 v 92.31 z m -877.04,0 h 464.3 v -92.31 h -464.3 v 92.31 z m -763.01,0 h 591.92 v -92.31 h -591.92 v 92.31 z m -619.76,0 h 329.22 v -92.31 h -329.22 v 92.31 z m -228.09,0 h 106.56 v -92.31 h -106.56 c 0,30.77 0,61.54 0,92.31 v 0"
         style="fill:#e2d2af;fill-opacity:1;fill-rule:evenodd;stroke:none"
         transform="matrix(0.13333333,0,0,-0.13333333,0,819.81333)" />
      <path
         id="path35"
         d="m 3569.57,4569.63 h -261.7 v 79.18 h 261.7 z m 747.75,0 h -261.69 v 79.18 h 261.69 v -79.18 z m -373.88,0 c -87.25,0 -174.46,0 -261.71,0 0,26.39 0,52.78 0,79.18 87.25,0 174.46,0 261.71,0 0,-26.4 0,-52.79 0,-79.18 v 0"
         style="fill:#a2525f;fill-opacity:1;fill-rule:evenodd;stroke:none"
         transform="matrix(0.13333333,0,0,-0.13333333,0,819.81333)" />
      <path
         id="path36"
         d="m 4259.64,2693.78 c -195.73,0 -354.41,-158.65 -354.41,-354.39 0,-195.72 158.68,-354.41 354.41,-354.41 195.72,0 354.4,158.69 354.4,354.41 0,195.74 -158.68,354.39 -354.4,354.39 z m 151.29,239.5 c 110.9,-28.21 209.73,-86.62 287.19,-165.98 l 159.36,49.61 114.62,-198.54 -122.51,-113.06 c 14.82,-52.78 22.75,-108.42 22.75,-165.92 0,-57.5 -7.93,-113.14 -22.75,-165.92 l 122.51,-113.06 -114.62,-198.54 -159.35,49.63 c -77.47,-79.36 -176.3,-137.81 -287.2,-165.96 l -36.67,-162.67 h -229.24 l -36.67,162.67 c -110.91,28.15 -209.73,86.58 -287.19,165.96 l -159.36,-49.63 -114.62,198.52 122.5,113.08 c -14.82,52.78 -22.76,108.4 -22.76,165.92 0,57.5 7.94,113.14 22.76,165.92 l -122.5,113.06 114.62,198.54 159.34,-49.63 c 77.48,79.38 176.3,137.79 287.21,166 l 36.67,162.61 h 229.24 l 36.67,-162.61 v 0"
         style="fill:#ffffff;fill-opacity:1;fill-rule:evenodd;stroke:none"
         transform="matrix(0.13333333,0,0,-0.13333333,0,819.81333)" />
      <path
         id="path37"
         d="m 2048.54,5449.74 c -128.36,0 -232.41,-104.06 -232.41,-232.41 0,-128.36 104.05,-232.42 232.41,-232.42 128.35,0 232.41,104.06 232.41,232.42 0,128.35 -104.06,232.41 -232.41,232.41 z m 99.2,157.04 c 72.74,-18.47 137.55,-56.79 188.36,-108.84 l 104.49,32.54 75.19,-130.19 -80.36,-74.15 c 9.72,-34.61 14.91,-71.1 14.91,-108.81 0,-37.7 -5.19,-74.2 -14.91,-108.81 l 80.36,-74.14 -75.19,-130.2 -104.49,32.54 c -50.81,-52.05 -115.62,-90.37 -188.34,-108.84 l -24.06,-106.66 h -150.33 l -24.06,106.66 c -72.72,18.47 -137.53,56.79 -188.34,108.84 l -104.51,-32.54 -75.16,130.2 80.36,74.14 c -9.72,34.61 -14.94,71.1 -14.94,108.81 0,37.71 5.22,74.2 14.94,108.81 l -80.36,74.14 75.16,130.19 104.51,-32.54 c 50.81,52.06 115.62,90.38 188.34,108.85 l 24.04,106.66 h 150.35 l 24.04,-106.66 v 0"
         style="fill:#a2525f;fill-opacity:1;fill-rule:evenodd;stroke:none"
         transform="matrix(0.13333333,0,0,-0.13333333,0,819.81333)" />
      <path
         id="path38"
         d="m 4934.04,3636.18 c 113.81,0 206.06,-92.26 206.06,-206.07 0,-113.8 -92.25,-206.05 -206.06,-206.05 -113.82,0 -206.05,92.25 -206.05,206.05 0,113.81 92.23,206.07 206.05,206.07 z M 3193.83,1430.84 c 88.48,0 160.22,-71.72 160.22,-160.22 0,-88.48 -71.74,-160.19 -160.22,-160.19 -88.47,0 -160.21,71.71 -160.21,160.19 0,88.5 71.74,160.22 160.21,160.22 z M 516.559,3106.71 c 40.496,0 73.308,-32.84 73.308,-73.34 0,-40.46 -32.812,-73.28 -73.308,-73.28 -40.481,0 -73.313,32.82 -73.313,73.28 0,40.5 32.832,73.34 73.313,73.34 z M 279.68,4195.53 c 154.465,0 279.675,-125.2 279.675,-279.68 0,-154.46 -125.21,-279.67 -279.675,-279.67 C 125.227,3636.18 0,3761.39 0,3915.85 c 0,154.48 125.227,279.68 279.68,279.68 z m 801.66,1466.52 c 154.47,0 279.7,-125.22 279.7,-279.67 0,-154.47 -125.23,-279.67 -279.7,-279.67 -154.449,0 -279.66,125.2 -279.66,279.67 0,154.45 125.211,279.67 279.66,279.67 z m 1878.97,-444.72 c 40.48,0 73.31,-32.82 73.31,-73.31 0,-40.48 -32.83,-73.31 -73.31,-73.31 -40.49,0 -73.31,32.83 -73.31,73.31 0,40.49 32.82,73.31 73.31,73.31 z m 374.53,569.35 c 85.37,0 154.58,-69.21 154.58,-154.57 0,-85.38 -69.21,-154.58 -154.58,-154.58 -85.37,0 -154.56,69.2 -154.56,154.58 0,85.36 69.19,154.57 154.56,154.57 z M 5282.66,2960.09 c 78.73,0 142.55,-63.82 142.55,-142.56 0,-78.75 -63.82,-142.55 -142.55,-142.55 -78.73,0 -142.56,63.8 -142.56,142.55 0,78.74 63.83,142.56 142.56,142.56 v 0"
         style="fill:#ffffff;fill-opacity:1;fill-rule:evenodd;stroke:none"
         transform="matrix(0.13333333,0,0,-0.13333333,0,819.81333)" />
    </g>
  </g>
</svg>
