<?xml version="1.0" encoding="UTF-8" standalone="no"?>
<!-- Created with Inkscape (http://www.inkscape.org/) -->

<svg
   version="1.1"
   id="svg1"
   width="622.03998"
   height="779.33331"
   viewBox="0 0 622.03998 779.33331"
   sodipodi:docname="chef-serving-a-meal.svg"
   inkscape:version="1.3.2 (091e20ef0f, 2023-11-25, custom)"
   xmlns:inkscape="http://www.inkscape.org/namespaces/inkscape"
   xmlns:sodipodi="http://sodipodi.sourceforge.net/DTD/sodipodi-0.dtd"
   xmlns="http://www.w3.org/2000/svg"
   xmlns:svg="http://www.w3.org/2000/svg">
  <defs
     id="defs1" />
  <sodipodi:namedview
     id="namedview1"
     pagecolor="#505050"
     bordercolor="#ffffff"
     borderopacity="1"
     inkscape:showpageshadow="0"
     inkscape:pageopacity="0"
     inkscape:pagecheckerboard="1"
     inkscape:deskcolor="#d1d1d1"
     inkscape:zoom="0.99315657"
     inkscape:cx="310.62575"
     inkscape:cy="389.66666"
     inkscape:window-width="1920"
     inkscape:window-height="1002"
     inkscape:window-x="0"
     inkscape:window-y="0"
     inkscape:window-maximized="1"
     inkscape:current-layer="g1">
    <inkscape:page
       x="0"
       y="0"
       inkscape:label="1"
       id="page1"
       width="622.03998"
       height="779.33331"
       margin="0"
       bleed="0" />
  </sodipodi:namedview>
  <g
     id="g1"
     inkscape:groupmode="layer"
     inkscape:label="1">
    <g
       id="group-R5">
      <path
         id="path2"
         d="m 1159,0 c -4.47,0 -7.44,1.37891 -8.86,4.19141 -1.46,2.82031 -2.17,6.91799 -2.17,12.30859 v 107 c 0,4.711 0.95,8.262 2.95,10.57 1.98,2.321 4.67,3.52 8.08,3.52 3.37,0 6.11,-1.199 8.22,-3.61 2.11,-2.429 3.18,-5.859 3.18,-10.332 v -2.976 c 4.46,5.738 9.09,10 13.9,12.66 4.82,2.707 10.3,4.066 16.4,4.066 7.29,0 14.02,-1.988 20.17,-5.929 6.14,-3.918 10.99,-9.637 14.58,-17.231 3.56,-7.586 5.33,-16.5271 5.33,-26.8864 0,-7.6133 -1,-14.6797 -3.07,-20.9922 -2.05,-6.4102 -4.88,-11.7891 -8.48,-16.1211 -3.6,-4.3164 -7.87,-7.668 -12.74,-9.9688 -4.92,-2.3593 -10.2,-3.5078 -15.79,-3.5078 -6.83,0 -12.53,1.3985 -17.14,4.2578 -4.64,2.8399 -9,6.9922 -13.16,12.5196 V 16.3516 C 1170.4,5.42188 1166.59,0 1159,0 m 35.83,119.02 c -6.54,0 -12.06,-2.75 -16.57,-8.09 -4.51,-5.442 -6.76,-13.3284 -6.76,-23.8206 0,-9.8711 2.25,-17.5391 6.7,-22.9688 4.48,-5.4922 10.05,-8.2695 16.63,-8.2695 3.96,0 7.62,1.1992 11,3.6289 3.33,2.3789 6.04,5.9609 8.07,10.7109 2.05,4.8204 3.05,10.5782 3.05,17.3399 0,6.5508 -0.94,12.1992 -2.89,16.8472 -1.88,4.704 -4.54,8.313 -7.95,10.864 -3.4,2.488 -7.13,3.758 -11.28,3.758"
         style="fill:#a7a5a6;fill-opacity:1;fill-rule:nonzero;stroke:none"
         transform="matrix(0.13333333,0,0,-0.13333333,0,779.33333)" />
      <path
         id="path3"
         d="m 1332.78,36.7813 c -3.24,0 -5.92,1.25 -8.04,3.6484 -2.11,2.4805 -3.16,5.8789 -3.16,10.3398 v 3.1407 c -2.87,-3.75 -5.85,-6.8789 -9,-9.3985 -3.13,-2.6015 -6.54,-4.4726 -10.24,-5.7031 -3.73,-1.2188 -7.97,-1.8477 -12.71,-1.8477 -5.74,0 -10.88,1.25 -15.44,3.6993 -4.57,2.4804 -8.08,5.9101 -10.57,10.2617 -2.97,5.2773 -4.44,12.8476 -4.44,22.6679 V 122.73 c 0,4.93 1.08,8.661 3.23,11.09 2.14,2.45 4.98,3.7 8.51,3.7 3.6,0 6.5,-1.25 8.71,-3.75 2.19,-2.481 3.3,-6.18 3.3,-11.04 V 83.0313 c 0,-5.7227 0.46,-10.5508 1.35,-14.4297 0.97,-3.9297 2.62,-6.9922 5.07,-9.211 2.36,-2.1992 5.63,-3.289 9.74,-3.289 4.04,0 7.82,1.25 11.31,3.7187 3.58,2.4688 6.16,5.6992 7.77,9.6797 1.35,3.5391 2,11.1992 2,23.0781 V 122.73 c 0,4.86 1.1,8.559 3.31,11.04 2.19,2.5 5.05,3.75 8.59,3.75 3.55,0 6.39,-1.25 8.52,-3.7 2.15,-2.429 3.2,-6.16 3.2,-11.09 V 50.9219 c 0,-4.7227 -1,-8.2735 -3.08,-10.6133 -2.03,-2.3789 -4.67,-3.5273 -7.93,-3.5273"
         style="fill:#a7a5a6;fill-opacity:1;fill-rule:nonzero;stroke:none"
         transform="matrix(0.13333333,0,0,-0.13333333,0,779.33333)" />
      <path
         id="path4"
         d="m 1419.95,36.7617 c -3.64,0 -7.09,0.4571 -10.33,1.3672 -3.23,0.8906 -5.97,2.0703 -8.2,3.6016 -2.28,1.4101 -4.21,2.9883 -5.8,4.5312 -1.6,1.5977 -3.68,3.9297 -6.29,7.0899 v -2.4297 c 0,-4.6797 -1.09,-8.1914 -3.25,-10.6133 -2.13,-2.3789 -4.88,-3.5469 -8.15,-3.5469 -3.39,0 -6.04,1.168 -8.06,3.5469 -2,2.4609 -2.99,5.9531 -2.99,10.6133 V 159.16 c 0,4.992 0.97,8.789 2.92,11.36 1.94,2.601 4.62,3.871 8.13,3.871 3.62,0 6.46,-1.231 8.41,-3.711 1.99,-2.43 2.99,-5.891 2.99,-10.442 v -37.879 c 4.41,4.891 9,8.563 13.64,11.192 4.63,2.551 10.4,3.847 17.24,3.847 7.88,0 14.78,-1.988 20.74,-5.847 5.93,-3.961 10.58,-9.59 13.83,-16.992 3.3,-7.418 4.92,-16.1996 4.92,-26.3793 0,-7.5313 -0.9,-14.3984 -2.71,-20.6875 -1.85,-6.25 -4.48,-11.6602 -7.96,-16.3008 -3.5,-4.582 -7.73,-8.0898 -12.67,-10.6914 -4.98,-2.4687 -10.44,-3.7383 -16.41,-3.7383 m -6,82.2583 c -4.56,0 -8.54,-1.309 -12.09,-3.879 -3.56,-2.563 -6.32,-6.301 -8.37,-11.18 -2.02,-4.8321 -3.02,-10.6212 -3.02,-17.4024 0,-9.8594 2.14,-17.4063 6.45,-22.7305 4.33,-5.2695 10,-7.957 17.03,-7.957 5.98,0 11.11,2.7305 15.46,8.1406 4.33,5.418 6.48,13.1485 6.48,23.2578 0,6.6094 -0.9,12.2227 -2.69,16.9215 -1.82,4.75 -4.39,8.387 -7.66,10.95 -3.35,2.57 -7.17,3.879 -11.59,3.879"
         style="fill:#a7a5a6;fill-opacity:1;fill-rule:nonzero;stroke:none"
         transform="matrix(0.13333333,0,0,-0.13333333,0,779.33333)" />
      <path
         id="path5"
         d="m 1488.21,36.7617 c -3.49,0 -6.29,1.2969 -8.48,3.8985 -2.18,2.6211 -3.27,6.3203 -3.27,11.1796 V 159.32 c 0,4.981 1.06,8.711 3.17,11.27 2.13,2.531 4.98,3.801 8.58,3.801 3.59,0 6.48,-1.262 8.7,-3.77 2.16,-2.5 3.29,-6.301 3.29,-11.301 V 51.8398 c 0,-5.0195 -1.13,-8.8085 -3.35,-11.3398 -2.22,-2.4687 -5.12,-3.7383 -8.64,-3.7383"
         style="fill:#a7a5a6;fill-opacity:1;fill-rule:nonzero;stroke:none"
         transform="matrix(0.13333333,0,0,-0.13333333,0,779.33333)" />
      <path
         id="path6"
         d="m 1536.49,36.7617 c -3.49,0 -6.32,1.2969 -8.49,3.8789 -2.16,2.6407 -3.27,6.3399 -3.27,11.1992 V 122.73 c 0,4.86 1.11,8.559 3.27,11.04 2.17,2.5 5,3.75 8.49,3.75 3.45,0 6.34,-1.25 8.61,-3.75 2.22,-2.481 3.38,-5.918 3.38,-10.34 V 51.8398 c 0,-4.9882 -1.16,-8.7382 -3.38,-11.2812 -2.27,-2.5 -5.16,-3.7969 -8.61,-3.7969 m 0.23,112.2973 c -3.28,0 -6.11,1.05 -8.5,3.23 -2.29,2.09 -3.49,5.133 -3.49,9 0,3.5 1.2,6.359 3.62,8.672 2.38,2.277 5.18,3.348 8.37,3.348 3.08,0 5.82,-1 8.19,-3.039 2.36,-2.059 3.57,-5.09 3.57,-8.981 0,-3.84 -1.18,-6.809 -3.48,-8.937 -2.33,-2.153 -5.07,-3.293 -8.28,-3.293"
         style="fill:#a7a5a6;fill-opacity:1;fill-rule:nonzero;stroke:none"
         transform="matrix(0.13333333,0,0,-0.13333333,0,779.33333)" />
      <path
         id="path7"
         d="m 1615.04,36.9609 c -14.69,0 -26.14,4.4688 -34.38,13.3789 -8.23,8.9415 -12.35,20.8711 -12.35,35.8907 0,10.1601 1.88,19.1795 5.63,26.9605 3.77,7.778 9.26,13.848 16.36,18.098 7.12,4.293 15.66,6.41 25.56,6.41 6.17,0 11.82,-0.949 16.95,-2.801 5.14,-1.886 9.48,-4.316 13.03,-7.257 3.57,-2.969 6.29,-6.141 8.2,-9.5 1.91,-3.34 2.81,-6.481 2.81,-9.391 0,-2.93 -1.07,-5.43 -3.16,-7.52 -2.13,-2.0581 -4.67,-3.1011 -7.7,-3.1011 -1.98,0 -3.62,0.582 -4.93,1.6406 -1.28,1.0195 -2.77,2.6915 -4.39,5.0895 -2.91,4.582 -5.93,8.063 -9.09,10.403 -3.17,2.289 -7.19,3.468 -12.02,3.468 -7.05,0 -12.72,-2.898 -17,-8.609 -4.28,-5.762 -6.41,-13.5702 -6.41,-23.4999 0,-4.6523 0.55,-8.9727 1.65,-12.8594 1.09,-3.9219 2.7,-7.2226 4.76,-9.9922 2.1,-2.7578 4.61,-4.8398 7.59,-6.25 2.95,-1.4492 6.2,-2.1601 9.71,-2.1601 4.79,0 8.84,1.1289 12.23,3.4492 3.42,2.3203 6.41,5.832 9,10.5117 1.48,2.8399 3.03,5 4.72,6.6016 1.69,1.5703 3.75,2.3086 6.18,2.3086 2.9,0 5.3,-1.1094 7.23,-3.4102 1.88,-2.3398 2.85,-4.7695 2.85,-7.3789 0,-3.0703 -0.87,-6.3906 -2.62,-9.8828 -1.81,-3.5195 -4.49,-6.8477 -8.13,-10.0195 -3.61,-3.168 -8.18,-5.7383 -13.68,-7.6602 -5.5,-1.9687 -11.73,-2.918 -18.6,-2.918"
         style="fill:#a7a5a6;fill-opacity:1;fill-rule:nonzero;stroke:none"
         transform="matrix(0.13333333,0,0,-0.13333333,0,779.33333)" />
      <path
         id="path8"
         d="m 1755.07,36.7617 c -3.21,0 -5.92,1.2188 -8.05,3.668 -2.11,2.4297 -3.16,5.9101 -3.16,10.4922 v 2.4297 c -3.18,-3.8203 -6.33,-6.9024 -9.46,-9.2813 -3.07,-2.4101 -6.44,-4.2187 -10.07,-5.4687 -3.6,-1.2032 -7.58,-1.8399 -11.86,-1.8399 -5.67,0 -10.96,1.2696 -15.78,3.7383 -4.83,2.6016 -9.03,6.1289 -12.55,10.7891 -3.54,4.6523 -6.22,10.1406 -8.06,16.4492 -1.84,6.2734 -2.74,13.082 -2.74,20.4414 0,15.4613 3.62,27.5903 10.87,36.2423 7.26,8.66 16.79,12.976 28.61,12.976 6.85,0 12.63,-1.25 17.3,-3.75 4.69,-2.398 9.28,-6.179 13.74,-11.289 v 36.602 c 0,5.078 0.97,8.918 2.92,11.519 1.94,2.61 4.68,3.911 8.29,3.911 3.59,0 6.34,-1.211 8.32,-3.571 1.94,-2.379 2.94,-5.929 2.94,-10.582 V 50.9219 c 0,-4.7227 -1.07,-8.2735 -3.16,-10.6133 -2.09,-2.3789 -4.78,-3.5469 -8.1,-3.5469 m -35.45,82.2583 c -4.34,0 -8.22,-1.309 -11.66,-3.879 -3.39,-2.563 -6.07,-6.27 -7.94,-11.09 -1.88,-4.8322 -2.82,-10.3596 -2.82,-16.7815 0,-6.6992 0.99,-12.3984 2.99,-17.1406 2.01,-4.7266 4.71,-8.25 8.18,-10.6289 3.51,-2.4297 7.3,-3.6289 11.38,-3.6289 4.2,0 8.01,1.1602 11.45,3.4102 3.46,2.2773 6.19,5.7695 8.28,10.457 2.05,4.6719 3.07,10.543 3.07,17.5312 0,6.6524 -1.02,12.2891 -3.07,17.0625 -2.09,4.77 -4.84,8.379 -8.36,10.93 -3.51,2.488 -7.34,3.758 -11.5,3.758"
         style="fill:#a7a5a6;fill-opacity:1;fill-rule:nonzero;stroke:none"
         transform="matrix(0.13333333,0,0,-0.13333333,0,779.33333)" />
      <path
         id="path9"
         d="m 1831.63,36.7617 c -7.19,0 -13.64,1.168 -19.4,3.6289 -5.74,2.3985 -10.71,5.8711 -14.93,10.3789 -4.19,4.5196 -7.37,9.8203 -9.58,15.9493 -2.17,6.1914 -3.23,12.9414 -3.23,20.4101 0,7.5 1.1,14.3511 3.29,20.5821 2.22,6.25 5.36,11.551 9.47,16 4.13,4.41 9.1,7.809 14.98,10.199 5.88,2.379 12.32,3.61 19.4,3.61 7.2,0 13.73,-1.231 19.57,-3.649 5.84,-2.41 10.86,-5.891 15.04,-10.371 4.18,-4.48 7.35,-9.82 9.5,-16 2.23,-6.148 3.29,-12.9805 3.29,-20.4102 0,-7.3515 -1.1,-14.1601 -3.3,-20.4375 -2.21,-6.1718 -5.38,-11.5507 -9.55,-16.0312 -4.19,-4.5 -9.18,-7.8516 -14.98,-10.3125 -5.8,-2.3789 -12.37,-3.5469 -19.57,-3.5469 m 0,82.3593 c -4.67,0 -8.73,-1.281 -12.29,-3.781 -3.51,-2.539 -6.25,-6.238 -8.15,-11.149 -1.93,-4.8512 -2.88,-10.5504 -2.88,-17.1012 0,-6.4804 0.95,-12.1289 2.83,-16.9609 1.89,-4.8398 4.58,-8.5469 8.11,-11.1406 3.47,-2.5469 7.65,-3.8086 12.38,-3.8086 7.17,0 12.91,2.8008 17.17,8.4609 4.26,5.6289 6.41,13.4805 6.41,23.4492 0,10.0704 -2.15,17.9612 -6.41,23.5822 -4.26,5.598 -10,8.449 -17.17,8.449"
         style="fill:#a7a5a6;fill-opacity:1;fill-rule:nonzero;stroke:none"
         transform="matrix(0.13333333,0,0,-0.13333333,0,779.33333)" />
      <path
         id="path10"
         d="m 2019.93,36.7617 c -3.59,0 -6.54,1.2969 -8.81,3.9805 -2.32,2.5781 -3.48,6.4961 -3.48,11.6562 v 41.7032 c 0,5.3203 -0.21,9.5784 -0.64,12.7894 -0.43,3.257 -1.6,5.91 -3.54,8.089 -1.89,2.192 -4.81,3.301 -8.67,3.301 -3.12,0 -6.11,-0.992 -8.88,-2.879 -2.87,-1.972 -5,-4.57 -6.59,-7.851 -1.76,-4.192 -2.62,-11.5705 -2.62,-22.219 V 52.3984 c 0,-5.1796 -1.12,-9.1171 -3.41,-11.7382 -2.25,-2.6016 -5.25,-3.8985 -8.97,-3.8985 -3.57,0 -6.47,1.2969 -8.69,3.8985 -2.23,2.6211 -3.34,6.5586 -3.34,11.7382 v 39.5235 c 0,6.207 -0.23,11.0471 -0.64,14.5391 -0.41,3.418 -1.51,6.269 -3.29,8.488 -1.77,2.223 -4.64,3.332 -8.51,3.332 -7.75,0 -12.85,-2.793 -15.35,-8.402 -2.47,-5.547 -3.67,-13.5509 -3.67,-23.9688 V 52.3984 c 0,-5.1601 -1.14,-9.0781 -3.34,-11.6562 -2.25,-2.6836 -5.2,-3.9805 -8.81,-3.9805 -3.61,0 -6.59,1.2969 -8.86,3.9805 -2.3,2.5781 -3.41,6.4961 -3.41,11.6289 v 70.9379 c 0,4.671 0.99,8.211 3.03,10.621 2.09,2.41 4.79,3.66 8.16,3.66 3.25,0 5.96,-1.129 8.13,-3.399 2.18,-2.281 3.26,-5.402 3.26,-9.402 v -2.359 c 4.1,5.16 8.53,8.941 13.2,11.34 4.69,2.41 9.97,3.628 15.67,3.628 5.97,0 11.05,-1.25 15.36,-3.75 4.32,-2.449 7.82,-6.218 10.6,-11.218 4,5.039 8.31,8.859 12.89,11.289 4.6,2.461 9.64,3.679 15.2,3.679 6.54,0 12.11,-1.296 16.79,-4 4.71,-2.668 8.21,-6.457 10.54,-11.437 2.04,-4.481 3.03,-11.52 3.03,-21.172 V 52.3984 c 0,-5.1796 -1.12,-9.1171 -3.36,-11.7382 -2.3,-2.6016 -5.26,-3.8985 -8.98,-3.8985"
         style="fill:#a7a5a6;fill-opacity:1;fill-rule:nonzero;stroke:none"
         transform="matrix(0.13333333,0,0,-0.13333333,0,779.33333)" />
      <path
         id="path11"
         d="m 2130.14,36.7617 c -2.45,0 -4.82,1.168 -7.24,3.5469 -2.36,2.4219 -4.89,5.8906 -7.55,10.4023 -5.76,-4.6523 -11.31,-8.1406 -16.67,-10.4414 -5.35,-2.3593 -11.38,-3.5078 -18.03,-3.5078 -6.12,0 -11.44,1.2696 -16.06,3.7383 -4.63,2.5313 -8.18,5.9492 -10.68,10.2695 -2.48,4.2891 -3.75,8.9219 -3.75,13.961 0,6.7812 2.11,12.539 6.21,17.3398 4.1,4.7383 9.75,7.961 16.93,9.6094 1.51,0.3594 5.27,1.1523 11.23,2.4219 6,1.3007 11.09,2.4492 15.4,3.5 4.24,1.039 8.89,2.3281 13.87,3.8394 -0.32,6.571 -1.57,11.36 -3.78,14.469 -2.25,3.031 -6.91,4.531 -13.9,4.531 -6.04,0 -10.57,-0.851 -13.65,-2.621 -3.03,-1.73 -5.65,-4.39 -7.8,-7.941 -2.19,-3.488 -3.71,-5.809 -4.6,-6.93 -0.92,-1.129 -2.86,-1.64 -5.79,-1.64 -2.69,0 -4.98,0.871 -6.89,2.64 -1.97,1.793 -2.95,4.063 -2.95,6.883 0,4.359 1.5,8.609 4.44,12.668 2.96,4.141 7.57,7.52 13.83,10.219 6.26,2.672 14.07,3.98 23.41,3.98 10.43,0 18.64,-1.308 24.65,-3.879 5.96,-2.531 10.14,-6.57 12.62,-12.199 2.48,-5.531 3.72,-12.941 3.72,-22.1288 0,-5.8008 0,-10.7813 -0.05,-14.8008 -0.06,-4.082 -0.07,-8.6016 -0.14,-13.5508 0,-4.6523 0.74,-9.5312 2.23,-14.5508 1.44,-5.0507 2.19,-8.3203 2.19,-9.7382 0,-2.5508 -1.18,-4.8907 -3.44,-6.9727 -2.25,-2.0703 -4.86,-3.1172 -7.76,-3.1172 m -16.34,49.8594 c -3.5,-1.3594 -8.56,-2.7422 -15.2,-4.25 -6.64,-1.4805 -11.25,-2.5508 -13.81,-3.2695 -2.55,-0.711 -4.98,-2.0508 -7.28,-4.0703 -2.35,-2.0821 -3.5,-4.9024 -3.5,-8.543 0,-3.7695 1.37,-6.957 4.09,-9.5781 2.74,-2.6602 6.3,-3.961 10.72,-3.961 4.68,0 9.04,1.0899 13,3.25 3.98,2.1211 6.9,4.9297 8.73,8.3008 2.15,3.75 3.25,9.9102 3.25,18.5898 v 3.5313"
         style="fill:#a7a5a6;fill-opacity:1;fill-rule:nonzero;stroke:none"
         transform="matrix(0.13333333,0,0,-0.13333333,0,779.33333)" />
      <path
         id="path12"
         d="m 2173,36.7617 c -3.48,0 -6.35,1.2969 -8.5,3.8789 -2.19,2.6407 -3.27,6.3399 -3.27,11.1992 V 122.73 c 0,4.86 1.08,8.559 3.27,11.04 2.15,2.5 5.02,3.75 8.5,3.75 3.47,0 6.32,-1.25 8.59,-3.75 2.24,-2.481 3.38,-5.918 3.38,-10.34 V 51.8398 c 0,-4.9882 -1.14,-8.7382 -3.38,-11.2812 -2.27,-2.5 -5.12,-3.7969 -8.59,-3.7969 m 0.23,112.2973 c -3.28,0 -6.09,1.05 -8.46,3.23 -2.34,2.09 -3.54,5.133 -3.54,9 0,3.5 1.22,6.359 3.64,8.672 2.38,2.277 5.2,3.348 8.36,3.348 3.07,0 5.82,-1 8.2,-3.039 2.35,-2.059 3.54,-5.09 3.54,-8.981 0,-3.84 -1.15,-6.809 -3.47,-8.937 -2.33,-2.153 -5.09,-3.293 -8.27,-3.293"
         style="fill:#a7a5a6;fill-opacity:1;fill-rule:nonzero;stroke:none"
         transform="matrix(0.13333333,0,0,-0.13333333,0,779.33333)" />
      <path
         id="path13"
         d="m 2281.7,36.7617 c -3.51,0 -6.4,1.2969 -8.53,3.8985 -2.23,2.6211 -3.36,6.3203 -3.36,11.1796 v 41.2696 c 0,8.2106 -1.06,14.4416 -3.23,18.7616 -2.22,4.328 -6.56,6.508 -13.06,6.508 -4.22,0 -8.07,-1.32 -11.56,-3.981 -3.48,-2.589 -6.02,-6.226 -7.64,-10.839 -1.16,-3.6801 -1.76,-10.559 -1.76,-20.727 V 51.8398 c 0,-5.0195 -1.11,-8.8085 -3.35,-11.3398 -2.25,-2.4687 -5.12,-3.7383 -8.65,-3.7383 -3.4,0 -6.24,1.2969 -8.42,3.8789 -2.24,2.6407 -3.32,6.3399 -3.32,11.1992 V 123.43 c 0,4.742 0.97,8.23 2.96,10.57 1.95,2.34 4.69,3.52 8.09,3.52 2.07,0 3.98,-0.559 5.63,-1.559 1.73,-1.012 3.04,-2.602 4.06,-4.59 0.98,-2.109 1.54,-4.609 1.54,-7.582 v -2.957 c 4.14,5.719 8.72,9.949 13.65,12.637 4.98,2.679 10.66,4.051 17.15,4.051 6.23,0 11.83,-1.418 16.79,-4.309 4.89,-2.82 8.6,-6.801 11.02,-12.012 1.56,-3.058 2.56,-6.347 3.05,-9.828 0.43,-3.5 0.7,-7.973 0.7,-13.4296 V 51.8398 c 0,-4.9882 -1.13,-8.7382 -3.28,-11.2812 -2.17,-2.5 -5.02,-3.7969 -8.48,-3.7969"
         style="fill:#a7a5a6;fill-opacity:1;fill-rule:nonzero;stroke:none"
         transform="matrix(0.13333333,0,0,-0.13333333,0,779.33333)" />
      <path
         id="path14"
         d="m 2350.74,36.7617 c -3.36,0 -6.03,0.7891 -8.04,2.3789 -2.01,1.6094 -3.5,3.3516 -4.44,5.2891 -0.93,1.8789 -2.57,5.6601 -4.82,11.3008 l -22.64,58.3515 c -0.52,1.449 -1.07,2.91 -1.64,4.348 -0.52,1.449 -0.96,2.91 -1.36,4.441 -0.36,1.551 -0.57,2.84 -0.57,3.891 0,1.726 0.49,3.398 1.5,5.07 0.98,1.668 2.37,3.047 4.09,4.09 1.75,1.039 3.61,1.598 5.66,1.598 3.92,0 6.64,-1.18 8.12,-3.59 1.49,-2.34 3.15,-6.289 4.97,-11.848 l 19.17,-56.2617 20.71,58.7187 c 1.66,4.723 3.24,8.031 4.82,10.02 1.6,1.941 3.93,2.961 7.11,2.961 3.03,0 5.59,-1.059 7.76,-3.219 2.06,-2.102 3.14,-4.52 3.14,-7.36 0,-1.082 -0.22,-2.332 -0.59,-3.742 -0.35,-1.488 -0.78,-2.859 -1.28,-4.148 -0.51,-1.231 -1.02,-2.711 -1.7,-4.321 l -22.8,-58.9995 c -0.64,-1.6914 -1.48,-3.8594 -2.48,-6.4688 -1.03,-2.582 -2.17,-4.7812 -3.4,-6.6914 -1.27,-1.8203 -2.79,-3.2187 -4.59,-4.2617 -1.85,-1.0195 -4.08,-1.5469 -6.7,-1.5469"
         style="fill:#a7a5a6;fill-opacity:1;fill-rule:nonzero;stroke:none"
         transform="matrix(0.13333333,0,0,-0.13333333,0,779.33333)" />
      <path
         id="path15"
         d="m 2452.68,36.7617 c -15.24,0 -27.11,4.5586 -35.55,13.5977 -8.44,9.1211 -12.67,21.4101 -12.67,36.9101 0,7.4219 1.07,14.1715 3.12,20.4215 2.09,6.27 5.12,11.641 9.12,16.098 4,4.512 8.91,7.973 14.79,10.32 5.88,2.391 12.34,3.59 19.51,3.59 9.22,0 17.19,-2.039 23.83,-6.148 6.66,-4.082 11.62,-9.321 14.92,-15.781 3.32,-6.508 4.96,-13.079 4.96,-19.8403 0,-6.1992 -1.66,-10.25 -5.12,-12.0703 -3.46,-1.8906 -8.22,-2.7891 -14.43,-2.7891 h -46.47 c 0.02,-5.6601 1.16,-10.5898 3.23,-14.9297 2.16,-4.2617 4.96,-7.4922 8.45,-9.6992 3.52,-2.1914 7.41,-3.25 11.64,-3.25 2.84,0 5.45,0.3477 7.78,1.0078 2.34,0.7422 4.63,1.8203 6.85,3.293 2.17,1.4883 4.18,3.0391 6.06,4.7969 1.83,1.6601 4.31,3.9414 7.2,6.8632 1.26,1.1368 2.99,1.6485 5.24,1.6485 2.46,0 4.41,-0.6719 5.92,-2.0899 1.52,-1.4023 2.24,-3.3515 2.24,-5.8789 0,-2.2422 -0.82,-4.8711 -2.52,-7.8906 -1.68,-2.9609 -4.16,-5.8516 -7.61,-8.6328 -3.4,-2.7383 -7.66,-4.9883 -12.8,-6.8477 -5.09,-1.8007 -10.97,-2.6992 -17.69,-2.6992 m -2.52,83.6793 c -5.88,0 -10.76,-2.132 -14.53,-6.39 -3.81,-4.242 -6.08,-10.551 -6.94,-18.8791 h 43.05 c -0.57,8.4371 -2.73,14.7891 -6.56,18.9691 -3.81,4.191 -8.81,6.3 -15.02,6.3"
         style="fill:#a7a5a6;fill-opacity:1;fill-rule:nonzero;stroke:none"
         transform="matrix(0.13333333,0,0,-0.13333333,0,779.33333)" />
      <path
         id="path16"
         d="m 2556.84,36.9609 c -14.71,0 -26.15,4.4688 -34.38,13.3789 -8.2,8.9415 -12.36,20.8711 -12.36,35.8907 0,10.1601 1.87,19.1795 5.68,26.9605 3.77,7.778 9.18,13.848 16.33,18.098 7.11,4.293 15.67,6.41 25.59,6.41 6.15,0 11.75,-0.949 16.93,-2.801 5.12,-1.886 9.43,-4.316 13.05,-7.257 3.57,-2.969 6.27,-6.141 8.18,-9.5 1.86,-3.34 2.81,-6.481 2.81,-9.391 0,-2.93 -1.03,-5.43 -3.22,-7.52 -2.09,-2.0581 -4.65,-3.1011 -7.66,-3.1011 -1.99,0 -3.61,0.582 -4.88,1.6406 -1.35,1.0195 -2.79,2.6915 -4.45,5.0895 -2.89,4.582 -5.9,8.063 -9.06,10.403 -3.17,2.289 -7.19,3.468 -12.07,3.468 -6.98,0 -12.66,-2.898 -16.94,-8.609 -4.31,-5.762 -6.44,-13.5702 -6.44,-23.4999 0,-4.6523 0.58,-8.9727 1.64,-12.8594 1.11,-3.9219 2.71,-7.2226 4.8,-9.9922 2.09,-2.7578 4.63,-4.8398 7.58,-6.25 2.91,-1.4492 6.17,-2.1601 9.73,-2.1601 4.74,0 8.85,1.1289 12.22,3.4492 3.38,2.3203 6.41,5.832 9.03,10.5117 1.44,2.8399 2.99,5 4.68,6.6016 1.67,1.5703 3.72,2.3086 6.18,2.3086 2.87,0 5.31,-1.1094 7.17,-3.4102 1.95,-2.3398 2.92,-4.7695 2.92,-7.3789 0,-3.0703 -0.87,-6.3906 -2.67,-9.8828 -1.78,-3.5195 -4.44,-6.8477 -8.09,-10.0195 -3.61,-3.168 -8.2,-5.7383 -13.73,-7.6602 -5.49,-1.9687 -11.72,-2.918 -18.57,-2.918"
         style="fill:#a7a5a6;fill-opacity:1;fill-rule:nonzero;stroke:none"
         transform="matrix(0.13333333,0,0,-0.13333333,0,779.33333)" />
      <path
         id="path17"
         d="m 2650.76,36.7617 c -7.42,0 -13.06,1.2969 -16.89,3.8985 -3.81,2.6211 -6.35,6.1914 -7.5,10.8398 -1.21,4.6016 -1.8,10.7305 -1.8,18.4219 v 47.6291 h -3.16 c -3.36,0 -5.98,0.828 -7.79,2.551 -1.82,1.679 -2.7,3.82 -2.7,6.429 0,2.61 0.94,4.719 2.79,6.379 1.92,1.672 4.65,2.5 8.24,2.5 h 2.62 v 14.91 c 0,3.961 0.1,7.129 0.31,9.391 0.2,2.269 0.73,4.187 1.7,5.84 0.9,1.668 2.25,3.07 4.01,4.14 1.72,1.039 3.65,1.539 5.8,1.539 3.01,0 5.74,-1.171 8.16,-3.5 1.6,-1.609 2.66,-3.5 3.09,-5.75 0.45,-2.269 0.64,-5.531 0.64,-9.691 V 135.41 h 8.73 c 3.36,0 5.94,-0.828 7.7,-2.5 1.8,-1.66 2.66,-3.769 2.66,-6.379 0,-3.332 -1.25,-5.699 -3.81,-7 -2.5,-1.312 -6.12,-1.98 -10.82,-1.98 h -4.46 V 71.8984 c 0,-3.8789 0.14,-6.8593 0.39,-8.9687 0.3,-2.1094 1.04,-3.8008 2.15,-5.0703 1.1,-1.3203 2.93,-1.9883 5.51,-1.9883 1.39,0 3.26,0.25 5.66,0.7891 2.33,0.5117 4.18,0.7617 5.55,0.7617 1.9,0 3.67,-0.8321 5.18,-2.3633 1.5,-1.6367 2.3,-3.5781 2.3,-5.9688 0,-3.9804 -2.05,-7.0312 -6.25,-9.1679 -4.22,-2.1133 -10.19,-3.1602 -18.01,-3.1602"
         style="fill:#a7a5a6;fill-opacity:1;fill-rule:nonzero;stroke:none"
         transform="matrix(0.13333333,0,0,-0.13333333,0,779.33333)" />
      <path
         id="path18"
         d="m 2725.16,36.7617 c -7.23,0 -13.69,1.168 -19.41,3.6289 -5.73,2.3985 -10.73,5.8711 -14.91,10.3789 -4.2,4.5196 -7.4,9.8203 -9.55,15.9493 -2.17,6.1914 -3.24,12.9414 -3.24,20.4101 0,7.5 1.07,14.3511 3.24,20.5821 2.27,6.25 5.37,11.551 9.49,16 4.14,4.41 9.13,7.809 14.97,10.199 5.91,2.379 12.36,3.61 19.41,3.61 7.21,0 13.69,-1.231 19.57,-3.649 5.86,-2.41 10.86,-5.891 15.04,-10.371 4.14,-4.48 7.38,-9.82 9.53,-16 2.17,-6.148 3.26,-12.9805 3.26,-20.4102 0,-7.3515 -1.09,-14.1601 -3.32,-20.4375 -2.19,-6.1718 -5.39,-11.5507 -9.55,-16.0312 -4.18,-4.5 -9.18,-7.8516 -14.96,-10.3125 -5.8,-2.3789 -12.29,-3.5469 -19.57,-3.5469 m 0,82.3593 c -4.65,0 -8.73,-1.281 -12.27,-3.781 -3.55,-2.539 -6.27,-6.238 -8.16,-11.149 -1.92,-4.8512 -2.89,-10.5504 -2.89,-17.1012 0,-6.4804 0.97,-12.1289 2.85,-16.9609 1.87,-4.8398 4.55,-8.5469 8.07,-11.1406 3.49,-2.5469 7.61,-3.8086 12.4,-3.8086 7.21,0 12.89,2.8008 17.18,8.4609 4.24,5.6289 6.39,13.4805 6.39,23.4492 0,10.0704 -2.15,17.9612 -6.39,23.5822 -4.29,5.598 -9.97,8.449 -17.18,8.449"
         style="fill:#a7a5a6;fill-opacity:1;fill-rule:nonzero;stroke:none"
         transform="matrix(0.13333333,0,0,-0.13333333,0,779.33333)" />
      <path
         id="path19"
         d="m 2802.83,36.7617 c -3.39,0 -6.23,1.2969 -8.41,3.7969 -2.21,2.543 -3.28,6.293 -3.28,11.2812 v 68.9692 c 0,11.152 3.82,16.711 11.54,16.711 3.9,0 6.78,-1.34 8.53,-3.918 1.72,-2.582 2.64,-6.454 2.87,-11.52 2.84,5.066 5.77,8.938 8.75,11.52 2.99,2.578 6.96,3.918 11.92,3.918 5.04,0 9.84,-1.34 14.57,-3.918 4.67,-2.582 7.05,-6.051 7.05,-10.34 0,-3.032 -1.04,-5.551 -3.03,-7.492 -1.97,-1.95 -4.14,-2.969 -6.48,-2.969 -0.86,0 -2.97,0.578 -6.31,1.711 -3.34,1.109 -6.29,1.687 -8.85,1.687 -3.46,0 -6.29,-0.937 -8.48,-2.89 -2.2,-1.918 -3.92,-4.719 -5.15,-8.469 -1.21,-3.781 -2.09,-8.2189 -2.52,-13.4181 -0.45,-5.1406 -0.68,-11.4414 -0.68,-18.9414 V 51.8398 c 0,-5.0195 -1.14,-8.8085 -3.4,-11.3398 -2.27,-2.4687 -5.14,-3.7383 -8.64,-3.7383"
         style="fill:#a7a5a6;fill-opacity:1;fill-rule:nonzero;stroke:none"
         transform="matrix(0.13333333,0,0,-0.13333333,0,779.33333)" />
      <path
         id="path20"
         d="m 2899.59,36.7617 c -8.46,0 -15.8,1.3672 -21.91,4.0899 -6.08,2.7187 -10.59,6.1093 -13.46,10.1875 -2.93,4.0625 -4.41,8.1601 -4.41,12.2617 0,2.7305 0.95,5.0703 2.85,6.9883 1.83,1.9726 4.2,2.9101 7.01,2.9101 2.5,0 4.43,-0.6406 5.76,-1.8906 1.35,-1.3281 2.58,-3.0898 3.83,-5.3672 2.44,-4.4531 5.33,-7.7422 8.77,-9.9219 3.34,-2.2109 7.99,-3.2812 13.89,-3.2812 4.72,0 8.63,1.1211 11.68,3.332 3.02,2.1992 4.6,4.7305 4.6,7.5703 0,4.3789 -1.62,7.5703 -4.74,9.5313 -3.2,2.0586 -8.38,3.9492 -15.65,5.75 -8.16,2.1367 -14.82,4.3476 -19.96,6.6679 -5.13,2.3321 -9.29,5.4297 -12.34,9.2305 -3.07,3.7695 -4.63,8.4997 -4.63,14.0707 0,4.98 1.43,9.668 4.28,14.05 2.83,4.438 7.07,7.957 12.6,10.61 5.52,2.629 12.2,3.969 20.05,3.969 6.14,0 11.66,-0.688 16.59,-2.008 4.88,-1.321 9.02,-3.133 12.24,-5.352 3.28,-2.25 5.8,-4.719 7.5,-7.43 1.74,-2.761 2.58,-5.421 2.58,-8 0,-2.859 -0.9,-5.14 -2.75,-7.019 -1.84,-1.75 -4.46,-2.68 -7.78,-2.68 -2.46,0 -4.51,0.711 -6.25,2.199 -1.68,1.43 -3.67,3.602 -5.86,6.469 -1.79,2.43 -3.9,4.391 -6.36,5.832 -2.44,1.438 -5.75,2.18 -9.91,2.18 -4.29,0 -7.89,-0.949 -10.68,-2.871 -2.85,-1.899 -4.3,-4.281 -4.3,-7.129 0,-2.609 1.06,-4.742 3.13,-6.41 2.11,-1.66 4.9,-3.031 8.46,-4.141 3.55,-1.09 8.41,-2.4491 14.62,-3.9998 7.37,-1.8594 13.38,-4.1016 18.05,-6.7188 4.67,-2.582 8.21,-5.6523 10.61,-9.1992 2.44,-3.5703 3.65,-7.6016 3.65,-12.1133 0,-6.8398 -1.6,-12.6875 -4.82,-17.5703 -3.21,-4.8789 -7.91,-8.5273 -14.15,-11.0781 -6.25,-2.4492 -13.8,-3.7188 -22.79,-3.7188"
         style="fill:#a7a5a6;fill-opacity:1;fill-rule:nonzero;stroke:none"
         transform="matrix(0.13333333,0,0,-0.13333333,0,779.33333)" />
      <path
         id="path21"
         d="m 2968.3,36.7617 c -3.59,0 -6.7,1.168 -9.27,3.6289 -2.66,2.3985 -3.95,5.8086 -3.95,10.1407 0,3.6679 1.23,6.8593 3.69,9.5273 2.5,2.6602 5.61,3.9531 9.26,3.9531 3.63,0 6.76,-1.2929 9.28,-3.9336 2.61,-2.5859 3.92,-5.8281 3.92,-9.5468 0,-4.2891 -1.31,-7.6719 -3.92,-10.1016 -2.52,-2.4492 -5.53,-3.668 -9.01,-3.668"
         style="fill:#a7a5a6;fill-opacity:1;fill-rule:nonzero;stroke:none"
         transform="matrix(0.13333333,0,0,-0.13333333,0,779.33333)" />
      <path
         id="path22"
         d="m 3049.75,36.7617 c -7.19,0 -13.65,1.168 -19.4,3.6289 -5.74,2.3985 -10.68,5.8711 -14.88,10.3789 -4.26,4.5196 -7.42,9.8203 -9.63,15.9493 -2.13,6.1914 -3.22,12.9414 -3.22,20.4101 0,7.5 1.09,14.3511 3.3,20.5821 2.25,6.25 5.35,11.551 9.45,16 4.12,4.41 9.12,7.809 14.98,10.199 5.86,2.379 12.29,3.61 19.4,3.61 7.19,0 13.71,-1.231 19.57,-3.649 5.88,-2.41 10.88,-5.891 15.06,-10.371 4.16,-4.48 7.32,-9.82 9.53,-16 2.17,-6.148 3.26,-12.9805 3.26,-20.4102 0,-7.3515 -1.09,-14.1601 -3.34,-20.4375 -2.21,-6.1718 -5.37,-11.5507 -9.55,-16.0312 -4.2,-4.5 -9.12,-7.8516 -14.96,-10.3125 -5.78,-2.3789 -12.31,-3.5469 -19.57,-3.5469 m 0,82.3593 c -4.65,0 -8.69,-1.281 -12.25,-3.781 -3.55,-2.539 -6.27,-6.238 -8.16,-11.149 -1.9,-4.8512 -2.87,-10.5504 -2.87,-17.1012 0,-6.4804 0.91,-12.1289 2.79,-16.9609 1.93,-4.8398 4.61,-8.5469 8.13,-11.1406 3.49,-2.5469 7.61,-3.8086 12.36,-3.8086 7.19,0 12.89,2.8008 17.15,8.4609 4.26,5.6289 6.4,13.4805 6.4,23.4492 0,10.0704 -2.14,17.9612 -6.4,23.5822 -4.26,5.598 -9.96,8.449 -17.15,8.449"
         style="fill:#a7a5a6;fill-opacity:1;fill-rule:nonzero;stroke:none"
         transform="matrix(0.13333333,0,0,-0.13333333,0,779.33333)" />
      <path
         id="path23"
         d="m 3127.48,36.7617 c -3.47,0 -6.25,1.2969 -8.48,3.7969 -2.2,2.543 -3.29,6.293 -3.29,11.2812 v 68.9692 c 0,11.152 3.9,16.711 11.58,16.711 3.94,0 6.76,-1.34 8.49,-3.918 1.72,-2.582 2.74,-6.454 2.93,-11.52 2.8,5.066 5.71,8.938 8.7,11.52 2.98,2.578 6.99,3.918 11.93,3.918 5.06,0 9.9,-1.34 14.55,-3.918 4.71,-2.582 7.07,-6.051 7.07,-10.34 0,-3.032 -1.02,-5.551 -2.99,-7.492 -2.03,-1.95 -4.16,-2.969 -6.52,-2.969 -0.84,0 -2.93,0.578 -6.27,1.711 -3.34,1.109 -6.29,1.687 -8.87,1.687 -3.46,0 -6.27,-0.937 -8.53,-2.89 -2.17,-1.918 -3.89,-4.719 -5.12,-8.469 -1.19,-3.781 -2.05,-8.2189 -2.5,-13.4181 -0.45,-5.1406 -0.7,-11.4414 -0.7,-18.9414 V 51.8398 c 0,-5.0195 -1.14,-8.8085 -3.38,-11.3398 -2.25,-2.4687 -5.14,-3.7383 -8.6,-3.7383"
         style="fill:#a7a5a6;fill-opacity:1;fill-rule:nonzero;stroke:none"
         transform="matrix(0.13333333,0,0,-0.13333333,0,779.33333)" />
      <path
         id="path24"
         d="m 3229.26,0 c -8.2,0 -15.53,1.14844 -21.93,3.55078 -6.45,2.44922 -11.41,5.48047 -14.89,9.28902 -3.47,3.75 -5.23,7.6485 -5.23,11.6719 0,3.0274 0.98,5.4883 2.99,7.3867 1.95,1.9414 4.33,2.8907 7.11,2.8907 3.49,0 6.5,-1.6289 9.16,-4.8203 1.27,-1.6797 2.61,-3.3086 3.94,-4.9493 1.35,-1.6875 2.85,-3.1289 4.51,-4.2773 1.66,-1.2109 3.68,-2.082 6,-2.6602 2.27,-0.582 4.96,-0.8632 7.99,-0.8632 6.11,0 10.94,0.9023 14.29,2.6796 3.4,1.7735 5.79,4.2735 7.17,7.4727 1.31,3.2109 2.17,6.6172 2.31,10.3086 0.29,3.7109 0.45,9.5586 0.6,17.6797 -3.65,-5.3008 -7.93,-9.3711 -12.67,-12.1485 -4.77,-2.7812 -10.49,-4.1406 -17.05,-4.1406 -8.01,0 -14.96,2.0703 -20.86,6.3399 -5.98,4.2382 -10.55,10.1406 -13.73,17.8007 -3.15,7.5899 -4.79,16.3985 -4.79,26.3985 0,7.4804 0.96,14.2106 2.95,20.1996 1.9,5.961 4.65,11.023 8.3,15.14 3.56,4.121 7.74,7.231 12.42,9.332 4.73,2.059 9.83,3.117 15.49,3.117 6.7,0 12.54,-1.359 17.46,-4.066 4.98,-2.66 9.51,-6.922 13.75,-12.66 V 124 c 0,4.332 1.06,7.621 3.05,10.051 2.03,2.34 4.65,3.539 7.81,3.539 4.61,0 7.66,-1.551 9.18,-4.68 1.49,-3.129 2.25,-7.66 2.25,-13.539 V 47.3516 c 0,-8.2422 -0.9,-15.3203 -2.54,-21.2227 -1.68,-5.957 -4.4,-10.8594 -8.09,-14.7187 -3.71,-3.87895 -8.59,-6.73051 -14.55,-8.62895 C 3245.65,0.960938 3238.17,0 3229.26,0 m 1.21,119.02 c -6.76,0 -12.23,-2.75 -16.29,-8.09 -4.12,-5.418 -6.17,-13.0511 -6.17,-22.9886 0,-10.0195 2.11,-17.6328 6.33,-22.793 4.18,-5.1171 9.65,-7.7265 16.27,-7.7265 3.92,0 7.69,1.1484 11.19,3.3594 3.51,2.2187 6.36,5.5273 8.59,9.9687 2.21,4.4805 3.28,9.8594 3.28,16.1914 0,10.0977 -2.14,17.9566 -6.4,23.5896 -4.24,5.668 -9.87,8.489 -16.8,8.489"
         style="fill:#a7a5a6;fill-opacity:1;fill-rule:nonzero;stroke:none"
         transform="matrix(0.13333333,0,0,-0.13333333,0,779.33333)" />
      <path
         id="path25"
         d="m 2212.43,237.469 c -38.43,0 -71.25,14.211 -98.45,42.633 -27.18,28.378 -40.74,62.66 -40.74,102.8 0,40.11 13.56,74.336 40.74,102.778 27.2,28.39 60.02,42.59 98.45,42.59 38.37,0 71.15,-14.2 98.37,-42.59 27.19,-28.442 40.8,-62.668 40.8,-102.778 0,-40.14 -13.61,-74.422 -40.8,-102.8 -27.22,-28.422 -60,-42.633 -98.37,-42.633 m -53.68,48.472 c 15.73,-10.41 33.61,-15.609 53.68,-15.609 28.92,0 53.39,10.879 73.35,32.637 20,21.722 29.94,48.41 29.94,79.933 0,28.399 -8.08,52.868 -24.32,73.348 l 7.74,9.941 -20.29,17.2 -6.38,-8.192 c -17.23,13.5 -37.26,20.25 -60.04,20.25 -29.02,0 -53.47,-10.867 -73.45,-32.64 -19.97,-21.75 -29.97,-48.411 -29.97,-79.907 0,-31.332 9.88,-57.89 29.61,-79.543 l -9.06,-11.64 20.29,-17.219 8.9,11.441 m 57.49,14.668 c -14.68,0 -27.47,3.289 -38.37,9.871 l 21.3,27.34 c 5.28,-2.941 11.44,-4.41 18.48,-4.41 18.98,0 28.99,9.102 30.01,27.27 h 35.23 c -2.5,-18.989 -10.27,-33.809 -23.22,-44.481 -11.97,-10.437 -26.48,-15.59 -43.43,-15.59 m -58.01,27.922 c -11.02,14.77 -16.52,33.328 -16.52,55.61 0,24.8 6.44,44.621 19.3,59.621 12.83,14.937 31,22.457 54.46,22.457 15.89,0 29.55,-3.91 40.9,-11.688 l -20.09,-25.789 c -4.65,3.078 -10.61,4.617 -17.89,4.617 -27.21,0 -40.86,-16.129 -40.86,-48.398 0,-9.82 1.48,-18.461 4.43,-25.961 l -23.73,-30.469 m 124.66,81.008 h -27.87 l 19.56,25.121 c 4.11,-7.289 6.88,-15.672 8.31,-25.121"
         style="fill:#a7a5a6;fill-opacity:1;fill-rule:nonzero;stroke:none"
         transform="matrix(0.13333333,0,0,-0.13333333,0,779.33333)" />
      <path
         id="path26"
         d="m 2149.85,274.5 -20.29,17.219 9.06,11.64 19.61,25.172 23.73,30.469 54.32,69.742 20.09,25.789 16.1,20.668 6.38,8.192 20.29,-17.2 -7.74,-9.941 -16.82,-21.59 -19.56,-25.121 -55.85,-71.719 -21.3,-27.34 -19.12,-24.539 -8.9,-11.441"
         style="fill:#a7a5a6;fill-opacity:1;fill-rule:nonzero;stroke:none"
         transform="matrix(0.13333333,0,0,-0.13333333,0,779.33333)" />
      <path
         id="path27"
         d="m 2332.63,1179.76 c 1284.77,0 2332.63,1047.86 2332.63,2332.63 0,1284.77 -1047.86,2332.63 -2332.63,2332.63 C 1047.87,5845.02 0,4797.16 0,3512.39 0,2227.62 1047.87,1179.76 2332.63,1179.76"
         style="fill:#f6b4a7;fill-opacity:1;fill-rule:evenodd;stroke:none"
         transform="matrix(0.13333333,0,0,-0.13333333,0,779.33333)" />
      <path
         id="path28"
         d="m 2538.55,965.809 69.43,-31.668 c 57.58,-26.25 120.15,-39.743 183.43,-39.532 13.62,0.051 26.49,-6.23 34.83,-17 8.35,-10.75 11.22,-24.777 7.78,-37.961 -16.55,-63.457 -69.44,-110.878 -134.32,-120.429 h -869.88 c -91.64,0 -178,42.84 -233.45,115.801 l 40.79,43.531 28.55,89.531 872.84,-2.273"
         style="fill:#2f2d2e;fill-opacity:1;fill-rule:evenodd;stroke:none"
         transform="matrix(0.13333333,0,0,-0.13333333,0,779.33333)" />
      <path
         id="path29"
         d="m 2556.16,3511.99 411.31,379.29 h 422.44 l -85.23,-92.65 c -34.34,-37.32 -85.28,-54.64 -135.26,-45.97 l -100.04,23.74 -72.26,-264.41 c -49.38,-180.67 -187.81,-323.5 -366.85,-378.5 l -74.11,378.5"
         style="fill:#e9303f;fill-opacity:1;fill-rule:evenodd;stroke:none"
         transform="matrix(0.13333333,0,0,-0.13333333,0,779.33333)" />
      <path
         id="path30"
         d="m 2872.05,2796.34 -155.64,-874.5 -103.75,-244.57 -74.11,-711.461 -407.61,-59.289 -214.79,1083.24 955.9,806.58"
         style="fill:#feeae7;fill-opacity:1;fill-rule:evenodd;stroke:none"
         transform="matrix(0.13333333,0,0,-0.13333333,0,779.33333)" />
      <path
         id="path31"
         d="M 2872.05,2796.34 2130.94,906.52 c -180.39,-27.758 -306.84,-7.559 -477.14,66.699 l 314.09,1645.251 904.16,177.87"
         style="fill:#ffffff;fill-opacity:1;fill-rule:evenodd;stroke:none"
         transform="matrix(0.13333333,0,0,-0.13333333,0,779.33333)" />
      <path
         id="path32"
         d="m 2872.05,2796.34 -358.83,-915 c -82.99,267.6 -309.91,468.79 -587.16,518.01 l 41.83,219.12 904.16,177.87"
         style="fill:#feeae7;fill-opacity:1;fill-rule:evenodd;stroke:none"
         transform="matrix(0.13333333,0,0,-0.13333333,0,779.33333)" />
      <path
         id="path33"
         d="m 1764.67,2900.63 c 178.42,0 323.94,145.52 323.94,323.94 0,178.42 -145.52,323.94 -323.94,323.94 -178.42,0 -323.94,-145.52 -323.94,-323.94 0,-178.42 145.52,-323.94 323.94,-323.94"
         style="fill:#f14a5f;fill-opacity:1;fill-rule:evenodd;stroke:none"
         transform="matrix(0.13333333,0,0,-0.13333333,0,779.33333)" />
      <path
         id="path34"
         d="m 2286.41,4893.17 c 39.49,-122.32 -21.03,-220.17 29.62,-276.18 50.64,-56.02 -26.06,-318.02 -76.23,-346.98 -28.11,-16.22 -150.27,29.27 -217.57,53.5 l -14.37,-129.31 -264.57,100.13 25.39,139.57 -120.96,528.05 638.69,-68.78"
         style="fill:#f14a5f;fill-opacity:1;fill-rule:evenodd;stroke:none"
         transform="matrix(0.13333333,0,0,-0.13333333,0,779.33333)" />
      <path
         id="path35"
         d="m 2286.41,4893.17 12.45,79.44 c 9.17,58.44 -13.47,117.34 -59.41,154.6 -45.94,37.27 -108.24,47.27 -163.53,26.24 l -408.15,-36.37 c -49.87,-4.44 -88.29,-45.92 -88.91,-95.97 l -10.1,-11.13 c -31.02,-34.14 -42.8,-81.59 -31.32,-126.27 44.8,-174.39 120.9,-339.19 224.59,-486.38 l 59.3,89.33 c 36.46,54.94 65.67,114.37 86.89,176.8 l 127.3,-6.06 -27.63,114.8 c -13.59,56.5 32,101.51 89.92,106.09 l 188.6,14.88"
         style="fill:#2f2d2e;fill-opacity:1;fill-rule:evenodd;stroke:none"
         transform="matrix(0.13333333,0,0,-0.13333333,0,779.33333)" />
      <path
         id="path36"
         d="m 1853.96,4779.64 c -38.97,-9.67 -55.73,-77.3 -37.43,-151.05 18.3,-73.76 64.73,-125.71 103.7,-116.04 38.98,9.67 55.73,77.3 37.43,151.06 -18.3,73.75 -64.73,125.7 -103.7,116.03"
         style="fill:#f14a5f;fill-opacity:1;fill-rule:evenodd;stroke:none"
         transform="matrix(0.13333333,0,0,-0.13333333,0,779.33333)" />
      <path
         id="path37"
         d="m 2233,4804.72 -4.2,-48.74 h -30.63 c -26.66,0 -53.04,-5.54 -77.45,-16.25 l -11.32,23.79 c 27.94,18.23 59.35,30.48 92.27,35.97 l 31.33,5.23"
         style="fill:#2f2d2e;fill-opacity:1;fill-rule:evenodd;stroke:none"
         transform="matrix(0.13333333,0,0,-0.13333333,0,779.33333)" />
      <path
         id="path38"
         d="m 2166.74,4731.01 c -19.54,0 -35.39,-21.46 -35.39,-47.94 0,-26.48 15.85,-47.95 35.39,-47.95 19.55,0 35.4,21.47 35.4,47.95 0,26.48 -15.85,47.94 -35.4,47.94"
         style="fill:#2f2d2e;fill-opacity:1;fill-rule:evenodd;stroke:none"
         transform="matrix(0.13333333,0,0,-0.13333333,0,779.33333)" />
      <path
         id="path39"
         d="m 2271.25,4461.55 c -12.22,3.83 -28.06,-11.98 -35.39,-35.32 -7.31,-23.33 -3.34,-45.37 8.88,-49.2 12.21,-3.83 28.06,11.99 35.38,35.32 7.32,23.34 3.34,45.37 -8.87,49.2"
         style="fill:#ffffff;fill-opacity:1;fill-rule:evenodd;stroke:none"
         transform="matrix(0.13333333,0,0,-0.13333333,0,779.33333)" />
      <path
         id="path40"
         d="m 2695.94,3617.95 285.82,-904.9 -108.9,-95.84 c -306.58,-269.82 -764.22,-275.44 -1077.34,-13.24 l 73.88,580.14 -186.7,644.63 c -52.59,181.6 -32.89,376.5 54.96,543.9 l 354.5,-127.18 c 297.8,-106.85 508.48,-325.81 603.78,-627.51"
         style="fill:#ffffff;fill-opacity:1;fill-rule:evenodd;stroke:none"
         transform="matrix(0.13333333,0,0,-0.13333333,0,779.33333)" />
      <path
         id="path41"
         d="m 1795.52,2603.97 73.88,580.14 -93.35,322.32 424.31,216.83 c -64.84,-174.75 -111.75,-305.35 -92.64,-498.69 l 264.95,-29.35 -284.06,-57.43 c -147.63,-166.8 -221.84,-289.31 -293.09,-533.82"
         style="fill:#feeae7;fill-opacity:1;fill-rule:evenodd;stroke:none"
         transform="matrix(0.13333333,0,0,-0.13333333,0,779.33333)" />
      <path
         id="path42"
         d="m 1757.34,3986.11 -362.95,-547.59 c -81.33,-122.72 -51.41,-287.75 67.84,-374.1 119.24,-86.34 285.37,-63.28 376.58,52.29 l 362.2,531.79 c 83.58,122.71 56.48,289.38 -61.67,379.29 -118.16,89.91 -286.01,71.59 -382,-41.68"
         style="fill:#ffffff;fill-opacity:1;fill-rule:evenodd;stroke:none"
         transform="matrix(0.13333333,0,0,-0.13333333,0,779.33333)" />
      <path
         id="path43"
         d="m 2075.92,5153.45 -130.64,130.65 c 3.23,17.15 4.95,34.83 4.95,52.92 0,156.56 -126.92,283.48 -283.47,283.48 -143.61,0 -262.26,-106.79 -280.91,-245.29 -138.49,-18.65 -245.28,-137.3 -245.28,-280.9 0,-156.56 126.91,-283.47 283.47,-283.47 19.34,0 38.22,1.94 56.48,5.63 l 138.33,-166.73 c 100.41,226.4 253.69,393.25 457.07,503.71"
         style="fill:#ffffff;fill-opacity:1;fill-rule:evenodd;stroke:none"
         transform="matrix(0.13333333,0,0,-0.13333333,0,779.33333)" />
      <path
         id="path44"
         d="m 2163.57,4669.32 c 23.6,0 42.85,15.81 42.85,35.21 0,19.39 -19.25,35.2 -42.85,35.2 -23.6,0 -42.85,-15.81 -42.85,-35.2 0,-19.4 19.25,-35.21 42.85,-35.21"
         style="fill:#f14a5f;fill-opacity:1;fill-rule:evenodd;stroke:none"
         transform="matrix(0.13333333,0,0,-0.13333333,0,779.33333)" />
      <path
         id="path45"
         d="m 2606.19,3963.54 h 1204.3 l -303.84,-72.26 h -596.62 l -303.84,72.26"
         style="fill:#ffffff;fill-opacity:1;fill-rule:evenodd;stroke:none"
         transform="matrix(0.13333333,0,0,-0.13333333,0,779.33333)" />
      <path
         id="path46"
         d="m 2748.39,3963.54 23.16,118.22 c 29.27,149.44 151.05,263.28 302.12,282.42 151.07,19.15 297.39,-60.71 363.02,-198.12 l 35.21,-3.7 c 104.48,-11 186.68,-94.21 196.39,-198.82 h -919.9"
         style="fill:#a14b1e;fill-opacity:1;fill-rule:evenodd;stroke:none"
         transform="matrix(0.13333333,0,0,-0.13333333,0,779.33333)" />
      <path
         id="path47"
         d="m 3389.11,4240.2 c 18.6,-22.27 34.66,-47.09 47.58,-74.14 l 35.21,-3.7 c 104.48,-11 186.68,-94.21 196.39,-198.82 h -485.96 c 117.79,43.96 198.11,152.6 206.78,276.66"
         style="fill:#853d1b;fill-opacity:1;fill-rule:evenodd;stroke:none"
         transform="matrix(0.13333333,0,0,-0.13333333,0,779.33333)" />
      <path
         id="path48"
         d="m 2860.33,4277.43 47.5,-35.31 c -3.43,-33.95 -20.06,-54.15 -47.16,-63.45 l -47.5,35.31 c -15.52,-17.26 -41.92,-20.18 -60.92,-6.06 -20.16,14.98 -24.36,43.48 -9.37,63.63 8.48,11.42 21.28,17.71 34.45,18.31 -3.22,12.79 -0.88,26.86 7.59,38.27 14.99,20.16 43.48,24.36 63.64,9.37 19,-14.12 23.82,-40.23 11.77,-60.07"
         style="fill:#ffffff;fill-opacity:1;fill-rule:evenodd;stroke:none"
         transform="matrix(0.13333333,0,0,-0.13333333,0,779.33333)" />
      <path
         id="path49"
         d="m 3186.06,4674.88 c -72.13,-69.14 -91.45,-176.9 -47.84,-266.8 -73.35,89.83 -152.74,197.84 -49.43,308.49 62.28,66.71 61.47,170.5 -1.86,236.23 133.74,-39.76 209.39,-172.22 99.13,-277.92"
         style="fill:#fbcdc7;fill-opacity:1;fill-rule:evenodd;stroke:none"
         transform="matrix(0.13333333,0,0,-0.13333333,0,779.33333)" />
      <path
         id="path50"
         d="m 2995.99,4699.3 c -42.64,-40.88 -54.06,-104.59 -28.28,-157.73 -43.37,53.11 -90.29,116.96 -29.22,182.37 36.82,39.45 36.34,100.81 -1.1,139.67 79.06,-23.51 123.79,-101.82 58.6,-164.31"
         style="fill:#fbcdc7;fill-opacity:1;fill-rule:evenodd;stroke:none"
         transform="matrix(0.13333333,0,0,-0.13333333,0,779.33333)" />
      <path
         id="path51"
         d="m 3337.83,4619.63 c -42.65,-40.87 -54.07,-104.58 -28.29,-157.73 -43.36,53.11 -90.29,116.97 -29.22,182.38 36.82,39.44 36.34,100.8 -1.1,139.66 79.07,-23.51 123.79,-101.82 58.61,-164.31"
         style="fill:#fbcdc7;fill-opacity:1;fill-rule:evenodd;stroke:none"
         transform="matrix(0.13333333,0,0,-0.13333333,0,779.33333)" />
    </g>
  </g>
</svg>
