<?xml version="1.0" encoding="UTF-8" standalone="no"?>
<!-- Created with Inkscape (http://www.inkscape.org/) -->

<svg
   version="1.1"
   id="svg1"
   width="677.59998"
   height="985.73334"
   viewBox="0 0 677.59998 985.73334"
   sodipodi:docname="cogwheel.svg"
   inkscape:version="1.3.2 (091e20ef0f, 2023-11-25, custom)"
   xmlns:inkscape="http://www.inkscape.org/namespaces/inkscape"
   xmlns:sodipodi="http://sodipodi.sourceforge.net/DTD/sodipodi-0.dtd"
   xmlns="http://www.w3.org/2000/svg"
   xmlns:svg="http://www.w3.org/2000/svg">
  <defs
     id="defs1" />
  <sodipodi:namedview
     id="namedview1"
     pagecolor="#505050"
     bordercolor="#ffffff"
     borderopacity="1"
     inkscape:showpageshadow="0"
     inkscape:pageopacity="0"
     inkscape:pagecheckerboard="1"
     inkscape:deskcolor="#d1d1d1"
     inkscape:zoom="0.78520222"
     inkscape:cx="339.40302"
     inkscape:cy="492.86667"
     inkscape:window-width="1920"
     inkscape:window-height="1002"
     inkscape:window-x="0"
     inkscape:window-y="0"
     inkscape:window-maximized="1"
     inkscape:current-layer="g1">
    <inkscape:page
       x="0"
       y="0"
       inkscape:label="1"
       id="page1"
       width="677.59998"
       height="985.73334"
       margin="0"
       bleed="0" />
  </sodipodi:namedview>
  <g
     id="g1"
     inkscape:groupmode="layer"
     inkscape:label="1">
    <g
       id="group-R5">
      <path
         id="path2"
         d="m 1301.13,0.0195313 c -4.68,0 -7.83,1.4414087 -9.27,4.4101587 -1.62,2.96875 -2.34,7.19921 -2.34,12.87111 V 129.621 c 0,4.949 0.99,8.641 3.06,11.07 2.16,2.43 4.95,3.688 8.55,3.688 3.51,0 6.39,-1.258 8.64,-3.777 2.16,-2.524 3.33,-6.122 3.33,-10.801 v -3.153 c 4.68,6.032 9.54,10.532 14.58,13.321 5.04,2.793 10.8,4.23 17.19,4.23 7.65,0 14.76,-2.07 21.15,-6.211 6.48,-4.14 11.61,-10.078 15.3,-18.09 3.78,-8.007 5.58,-17.367 5.58,-28.2574 0,-7.9218 -0.99,-15.3906 -3.15,-21.9609 -2.16,-6.75 -5.13,-12.4219 -8.91,-16.918 -3.78,-4.5937 -8.28,-8.1015 -13.41,-10.5312 -5.13,-2.4297 -10.71,-3.6914 -16.56,-3.6914 -7.11,0 -13.14,1.5312 -18,4.5 -4.86,2.9687 -9.45,7.3828 -13.77,13.1406 V 17.1211 c 0,-11.42969 -4.05,-17.1015687 -11.97,-17.1015687 M 1338.75,124.941 c -6.93,0 -12.69,-2.882 -17.46,-8.55 -4.68,-5.672 -7.02,-13.95 -7.02,-24.9301 0,-10.3515 2.34,-18.4531 7.02,-24.1211 4.68,-5.7617 10.53,-8.7304 17.46,-8.7304 4.14,0 7.92,1.2617 11.52,3.8711 3.51,2.5195 6.3,6.2109 8.46,11.25 2.16,5.039 3.24,11.0703 3.24,18.1797 0,6.8398 -0.99,12.7808 -3.06,17.6408 -1.98,4.949 -4.77,8.73 -8.37,11.429 -3.6,2.61 -7.47,3.961 -11.79,3.961"
         style="fill:#a4a1a2;fill-opacity:1;fill-rule:nonzero;stroke:none"
         transform="matrix(0.13333333,0,0,-0.13333333,0,985.73333)" />
      <path
         id="path3"
         d="m 1483.47,38.6289 c -3.33,0 -6.21,1.2617 -8.46,3.7813 -2.16,2.6093 -3.24,6.2109 -3.24,10.8906 v 3.2383 c -3.06,-3.8711 -6.12,-7.1993 -9.45,-9.8086 -3.33,-2.6992 -6.93,-4.6797 -10.8,-6.0313 -3.87,-1.2578 -8.37,-1.8906 -13.32,-1.8906 -6.03,0 -11.43,1.2617 -16.2,3.8711 -4.77,2.6094 -8.46,6.2109 -11.07,10.8008 -3.15,5.4883 -4.68,13.4101 -4.68,23.7578 v 51.5707 c 0,5.222 1.08,9.089 3.42,11.613 2.25,2.609 5.22,3.957 8.91,3.957 3.78,0 6.84,-1.348 9.18,-3.957 2.25,-2.613 3.42,-6.481 3.42,-11.613 V 87.1406 c 0,-6.0312 0.45,-11.0703 1.44,-15.1211 0.99,-4.1406 2.7,-7.3789 5.31,-9.7187 2.43,-2.25 5.94,-3.4219 10.17,-3.4219 4.32,0 8.28,1.3516 11.88,3.8711 3.78,2.6094 6.48,6.0313 8.19,10.1719 1.44,3.7773 2.07,11.789 2.07,24.207 v 31.6801 c 0,5.132 1.17,9 3.51,11.613 2.25,2.609 5.31,3.957 9,3.957 3.69,0 6.75,-1.348 9,-3.957 2.25,-2.524 3.33,-6.391 3.33,-11.613 V 53.4805 c 0,-4.9492 -1.08,-8.7305 -3.24,-11.1602 -2.16,-2.5195 -4.95,-3.6914 -8.37,-3.6914"
         style="fill:#a4a1a2;fill-opacity:1;fill-rule:nonzero;stroke:none"
         transform="matrix(0.13333333,0,0,-0.13333333,0,985.73333)" />
      <path
         id="path4"
         d="m 1575,38.5391 c -3.87,0 -7.47,0.539 -10.89,1.4414 -3.33,0.9883 -6.21,2.25 -8.55,3.8672 -2.43,1.4414 -4.41,3.0625 -6.12,4.6836 -1.71,1.707 -3.87,4.1367 -6.57,7.4687 v -2.5195 c 0,-4.9492 -1.17,-8.6407 -3.42,-11.1602 -2.25,-2.5195 -5.13,-3.7812 -8.55,-3.7812 -3.6,0 -6.39,1.2617 -8.46,3.7812 -2.16,2.6094 -3.15,6.211 -3.15,11.1602 V 167.059 c 0,5.222 0.99,9.179 3.06,11.882 2.07,2.789 4.86,4.047 8.55,4.047 3.78,0 6.75,-1.258 8.82,-3.867 2.07,-2.519 3.15,-6.211 3.15,-10.98 v -39.692 c 4.59,5.129 9.45,8.91 14.31,11.699 4.86,2.704 10.89,4.051 18.09,4.051 8.28,0 15.48,-2.07 21.78,-6.121 6.21,-4.137 11.07,-10.078 14.49,-17.816 3.51,-7.832 5.13,-17.012 5.13,-27.7229 0,-7.918 -0.9,-15.1211 -2.79,-21.6875 -1.98,-6.5703 -4.68,-12.2422 -8.37,-17.1016 -3.69,-4.8594 -8.1,-8.5508 -13.32,-11.25 -5.22,-2.6094 -10.98,-3.9609 -17.19,-3.9609 m -6.3,86.4019 c -4.77,0 -9,-1.441 -12.69,-4.14 -3.69,-2.61 -6.66,-6.571 -8.82,-11.699 -2.07,-5.043 -3.15,-11.1606 -3.15,-18.2739 0,-10.3476 2.25,-18.2695 6.75,-23.8476 4.59,-5.4922 10.53,-8.3711 17.91,-8.3711 6.3,0 11.61,2.8789 16.2,8.5508 4.59,5.6679 6.84,13.8593 6.84,24.4804 0,6.9297 -0.99,12.7774 -2.88,17.7304 -1.89,4.949 -4.59,8.82 -8.01,11.43 -3.51,2.699 -7.56,4.14 -12.15,4.14"
         style="fill:#a4a1a2;fill-opacity:1;fill-rule:nonzero;stroke:none"
         transform="matrix(0.13333333,0,0,-0.13333333,0,985.73333)" />
      <path
         id="path5"
         d="m 1646.64,38.5391 c -3.69,0 -6.57,1.4414 -8.91,4.1406 -2.25,2.7891 -3.42,6.6601 -3.42,11.6992 V 167.238 c 0,5.223 1.08,9.09 3.33,11.793 2.25,2.699 5.22,3.957 9,3.957 3.78,0 6.75,-1.258 9.09,-3.867 2.34,-2.703 3.51,-6.66 3.51,-11.883 V 54.3789 c 0,-5.2187 -1.26,-9.1797 -3.51,-11.8789 -2.34,-2.6094 -5.4,-3.9609 -9.09,-3.9609"
         style="fill:#a4a1a2;fill-opacity:1;fill-rule:nonzero;stroke:none"
         transform="matrix(0.13333333,0,0,-0.13333333,0,985.73333)" />
      <path
         id="path6"
         d="m 1697.31,38.5391 c -3.69,0 -6.66,1.4414 -8.91,4.1406 -2.25,2.7891 -3.42,6.6601 -3.42,11.6992 v 74.4301 c 0,5.132 1.17,9 3.42,11.613 2.25,2.609 5.22,3.957 8.91,3.957 3.6,0 6.66,-1.348 9.09,-3.957 2.25,-2.613 3.51,-6.211 3.51,-10.891 V 54.3789 c 0,-5.2187 -1.26,-9.1797 -3.51,-11.7891 -2.43,-2.6093 -5.49,-4.0507 -9.09,-4.0507 m 0.27,117.9019 c -3.51,0 -6.48,1.079 -9,3.418 -2.34,2.161 -3.6,5.403 -3.6,9.45 0,3.601 1.26,6.66 3.78,9.089 2.52,2.34 5.4,3.512 8.82,3.512 3.15,0 6.12,-1.082 8.55,-3.242 2.52,-2.156 3.78,-5.309 3.78,-9.359 0,-4.047 -1.26,-7.2 -3.69,-9.45 -2.43,-2.25 -5.31,-3.418 -8.64,-3.418"
         style="fill:#a4a1a2;fill-opacity:1;fill-rule:nonzero;stroke:none"
         transform="matrix(0.13333333,0,0,-0.13333333,0,985.73333)" />
      <path
         id="path7"
         d="m 1779.75,38.8086 c -15.39,0 -27.45,4.6797 -36.09,14.043 -8.64,9.3593 -12.96,21.8672 -12.96,37.6172 0,10.7112 1.98,20.1602 5.94,28.3512 3.96,8.098 9.72,14.489 17.1,18.989 7.56,4.5 16.47,6.75 26.82,6.75 6.48,0 12.42,-1.079 17.82,-2.969 5.4,-1.981 9.99,-4.5 13.68,-7.649 3.78,-3.062 6.66,-6.39 8.64,-9.902 1.98,-3.508 2.88,-6.84 2.88,-9.898 0,-3.063 -1.08,-5.672 -3.24,-7.922 -2.25,-2.16 -4.95,-3.239 -8.1,-3.239 -2.07,0 -3.78,0.629 -5.22,1.711 -1.35,1.079 -2.88,2.879 -4.59,5.399 -3.06,4.769 -6.21,8.461 -9.54,10.89 -3.33,2.43 -7.56,3.598 -12.6,3.598 -7.38,0 -13.32,-2.969 -17.82,-9 -4.5,-6.027 -6.75,-14.219 -6.75,-24.66 0,-4.8594 0.54,-9.4492 1.71,-13.5 1.17,-4.1367 2.88,-7.5586 5.04,-10.5274 2.16,-2.8789 4.86,-5.039 7.92,-6.4804 3.15,-1.5313 6.57,-2.3399 10.17,-2.3399 5.04,0 9.27,1.2578 12.87,3.6875 3.6,2.4336 6.75,6.1211 9.45,10.9805 1.53,2.9726 3.24,5.3125 4.95,6.9297 1.8,1.6211 3.96,2.4336 6.48,2.4336 3.06,0 5.58,-1.1719 7.65,-3.6016 1.98,-2.4297 2.97,-4.9492 2.97,-7.7383 0,-3.2422 -0.9,-6.6601 -2.79,-10.3515 -1.89,-3.6914 -4.68,-7.1993 -8.55,-10.5313 -3.78,-3.3281 -8.55,-6.0312 -14.31,-8.0078 -5.76,-2.0703 -12.33,-3.0625 -19.53,-3.0625"
         style="fill:#a4a1a2;fill-opacity:1;fill-rule:nonzero;stroke:none"
         transform="matrix(0.13333333,0,0,-0.13333333,0,985.73333)" />
      <path
         id="path8"
         d="m 1926.72,38.5391 c -3.33,0 -6.21,1.3515 -8.46,3.8711 -2.16,2.6093 -3.33,6.2109 -3.33,11.0703 V 56 c -3.33,-4.0508 -6.66,-7.2891 -9.9,-9.7187 -3.24,-2.5196 -6.75,-4.4102 -10.62,-5.7618 -3.78,-1.2617 -7.92,-1.9804 -12.42,-1.9804 -5.94,0 -11.52,1.3515 -16.56,3.9609 -5.04,2.6992 -9.45,6.4805 -13.14,11.3398 -3.78,4.8594 -6.57,10.6211 -8.46,17.2813 -1.98,6.5703 -2.88,13.6797 -2.88,21.418 0,16.2889 3.78,28.9809 11.43,38.0699 7.56,9.09 17.55,13.59 29.97,13.59 7.2,0 13.23,-1.258 18.18,-3.961 4.95,-2.519 9.72,-6.476 14.4,-11.789 v 38.43 c 0,5.312 1.08,9.359 3.06,12.062 2.07,2.7 4.95,4.047 8.73,4.047 3.78,0 6.66,-1.258 8.73,-3.687 1.98,-2.52 3.06,-6.211 3.06,-11.16 V 53.4805 c 0,-4.9492 -1.08,-8.7305 -3.33,-11.1602 -2.16,-2.5195 -4.95,-3.7812 -8.46,-3.7812 m -37.26,86.4019 c -4.5,0 -8.55,-1.441 -12.15,-4.14 -3.6,-2.61 -6.39,-6.571 -8.37,-11.61 -1.98,-5.043 -2.97,-10.8902 -2.97,-17.5504 0,-7.1093 1.08,-13.0508 3.15,-18 2.07,-5.039 4.95,-8.6406 8.55,-11.1601 3.69,-2.6094 7.65,-3.8711 11.97,-3.8711 4.41,0 8.46,1.2617 12.06,3.6015 3.6,2.4297 6.48,6.0274 8.64,10.9805 2.16,4.9492 3.24,11.0664 3.24,18.4492 0,6.9297 -1.08,12.8714 -3.24,17.8204 -2.16,5.039 -5.04,8.82 -8.73,11.519 -3.69,2.61 -7.74,3.961 -12.15,3.961"
         style="fill:#a4a1a2;fill-opacity:1;fill-rule:nonzero;stroke:none"
         transform="matrix(0.13333333,0,0,-0.13333333,0,985.73333)" />
      <path
         id="path9"
         d="m 2007.09,38.5391 c -7.56,0 -14.31,1.2617 -20.34,3.8711 -6.03,2.5195 -11.25,6.1211 -15.75,10.8906 -4.32,4.7695 -7.65,10.2578 -9.99,16.7383 -2.25,6.4804 -3.42,13.5898 -3.42,21.4218 0,7.8282 1.17,15.0271 3.42,21.5981 2.34,6.57 5.67,12.152 9.99,16.832 4.32,4.589 9.54,8.187 15.75,10.617 6.12,2.523 12.87,3.871 20.34,3.871 7.56,0 14.4,-1.348 20.52,-3.871 6.12,-2.52 11.43,-6.207 15.75,-10.887 4.41,-4.68 7.74,-10.262 9.99,-16.832 2.34,-6.391 3.51,-13.5898 3.51,-21.4179 0,-7.6523 -1.17,-14.8516 -3.51,-21.4219 -2.34,-6.4804 -5.67,-12.1484 -9.99,-16.8281 -4.41,-4.6797 -9.63,-8.1914 -15.75,-10.8008 -6.12,-2.5195 -12.96,-3.7812 -20.52,-3.7812 m 0,86.4919 c -4.95,0 -9.18,-1.351 -12.96,-3.961 -3.6,-2.699 -6.48,-6.57 -8.55,-11.699 -1.98,-5.133 -2.97,-11.0702 -2.97,-17.9999 0,-6.75 0.99,-12.6914 2.97,-17.7305 1.98,-5.1328 4.77,-9 8.46,-11.6992 3.69,-2.7031 8.1,-4.0508 13.05,-4.0508 7.47,0 13.5,2.9688 18,8.9102 4.5,5.9375 6.75,14.1289 6.75,24.5703 0,10.6169 -2.25,18.8989 -6.75,24.7499 -4.5,5.938 -10.53,8.91 -18,8.91"
         style="fill:#a4a1a2;fill-opacity:1;fill-rule:nonzero;stroke:none"
         transform="matrix(0.13333333,0,0,-0.13333333,0,985.73333)" />
      <path
         id="path10"
         d="m 2204.73,38.5391 c -3.78,0 -6.93,1.4414 -9.27,4.2304 -2.43,2.6993 -3.69,6.8399 -3.69,12.2422 V 98.75 c 0,5.578 -0.18,10.078 -0.63,13.41 -0.45,3.418 -1.71,6.211 -3.69,8.551 -2.07,2.25 -5.13,3.418 -9.18,3.418 -3.24,0 -6.39,-0.988 -9.27,-3.059 -2.97,-2.07 -5.22,-4.769 -6.93,-8.191 -1.89,-4.41 -2.7,-12.149 -2.7,-23.3087 V 55.0117 c 0,-5.4922 -1.26,-9.5429 -3.6,-12.332 -2.34,-2.6992 -5.58,-4.1406 -9.45,-4.1406 -3.69,0 -6.75,1.4414 -9.09,4.1406 -2.34,2.7891 -3.51,6.8398 -3.51,12.332 V 96.5 c 0,6.48 -0.27,11.609 -0.72,15.211 -0.36,3.598 -1.53,6.57 -3.42,8.91 -1.89,2.34 -4.86,3.508 -8.91,3.508 -8.19,0 -13.5,-2.879 -16.11,-8.82 -2.61,-5.848 -3.87,-14.219 -3.87,-25.1098 V 55.0117 c 0,-5.4023 -1.17,-9.5429 -3.51,-12.2422 -2.34,-2.789 -5.49,-4.2304 -9.27,-4.2304 -3.78,0 -6.93,1.4414 -9.27,4.2304 -2.43,2.6993 -3.6,6.8399 -3.6,12.2422 v 74.4293 c 0,4.86 1.08,8.637 3.24,11.161 2.16,2.519 4.95,3.777 8.55,3.777 3.42,0 6.21,-1.168 8.55,-3.508 2.25,-2.43 3.42,-5.672 3.42,-9.902 v -2.43 c 4.23,5.402 8.91,9.359 13.86,11.883 4.86,2.519 10.44,3.777 16.38,3.777 6.3,0 11.61,-1.258 16.11,-3.961 4.59,-2.519 8.28,-6.476 11.16,-11.699 4.23,5.223 8.73,9.27 13.5,11.789 4.86,2.613 10.17,3.871 15.93,3.871 6.93,0 12.78,-1.347 17.64,-4.14 4.95,-2.879 8.64,-6.84 11.07,-12.059 2.16,-4.68 3.24,-12.059 3.24,-22.23 V 55.0117 c 0,-5.4922 -1.26,-9.5429 -3.6,-12.332 -2.34,-2.6992 -5.49,-4.1406 -9.36,-4.1406"
         style="fill:#a4a1a2;fill-opacity:1;fill-rule:nonzero;stroke:none"
         transform="matrix(0.13333333,0,0,-0.13333333,0,985.73333)" />
      <path
         id="path11"
         d="m 2320.38,38.5391 c -2.61,0 -5.04,1.2617 -7.65,3.7812 -2.43,2.5195 -5.04,6.211 -7.92,10.8906 -6.03,-4.8593 -11.79,-8.5507 -17.46,-10.9804 -5.58,-2.4297 -11.97,-3.6914 -18.9,-3.6914 -6.48,0 -12.06,1.3515 -16.92,3.9609 -4.86,2.6992 -8.55,6.2109 -11.16,10.8008 -2.61,4.5 -3.96,9.3594 -3.96,14.668 0,7.1093 2.25,13.1406 6.57,18.1796 4.23,4.9532 10.17,8.3711 17.73,10.0821 1.62,0.3593 5.49,1.1679 11.79,2.5195 6.3,1.348 11.61,2.609 16.2,3.691 4.41,1.079 9.27,2.43 14.49,4.047 -0.27,6.84 -1.62,11.883 -3.96,15.211 -2.34,3.153 -7.2,4.68 -14.58,4.68 -6.3,0 -11.07,-0.809 -14.31,-2.699 -3.15,-1.801 -5.94,-4.68 -8.19,-8.371 -2.34,-3.688 -3.87,-6.028 -4.86,-7.289 -0.9,-1.168 -2.97,-1.711 -6.03,-1.711 -2.79,0 -5.22,0.902 -7.29,2.793 -2.07,1.886 -3.06,4.226 -3.06,7.199 0,4.59 1.53,9.09 4.68,13.32 3.06,4.32 7.92,7.918 14.49,10.707 6.57,2.793 14.76,4.231 24.57,4.231 10.98,0 19.62,-1.438 25.92,-4.137 6.21,-2.613 10.62,-6.844 13.23,-12.781 2.61,-5.762 3.87,-13.59 3.87,-23.223 0,-6.1172 0,-11.3399 0,-15.5703 -0.09,-4.2266 -0.09,-8.9961 -0.18,-14.2188 0,-4.8594 0.81,-9.9883 2.34,-15.2109 1.53,-5.3086 2.25,-8.7266 2.25,-10.2578 0,-2.6094 -1.17,-5.1289 -3.6,-7.2891 -2.34,-2.1602 -5.04,-3.332 -8.1,-3.332 m -17.19,52.3789 c -3.69,-1.4375 -8.91,-2.8789 -15.93,-4.4063 -6.93,-1.6211 -11.79,-2.7031 -14.49,-3.5117 -2.7,-0.7187 -5.22,-2.1602 -7.65,-4.2305 -2.43,-2.25 -3.69,-5.1289 -3.69,-9 0,-3.9609 1.44,-7.289 4.32,-10.0781 2.88,-2.793 6.66,-4.1406 11.25,-4.1406 4.95,0 9.45,1.168 13.68,3.418 4.14,2.25 7.2,5.2226 9.09,8.7304 2.34,3.961 3.42,10.4414 3.42,19.5313 v 3.6875"
         style="fill:#a4a1a2;fill-opacity:1;fill-rule:nonzero;stroke:none"
         transform="matrix(0.13333333,0,0,-0.13333333,0,985.73333)" />
      <path
         id="path12"
         d="m 2365.38,38.5391 c -3.69,0 -6.66,1.4414 -8.91,4.1406 -2.34,2.7891 -3.51,6.6601 -3.51,11.6992 v 74.4301 c 0,5.132 1.17,9 3.51,11.613 2.25,2.609 5.22,3.957 8.91,3.957 3.6,0 6.66,-1.348 9,-3.957 2.34,-2.613 3.51,-6.211 3.51,-10.891 V 54.3789 c 0,-5.2187 -1.17,-9.1797 -3.51,-11.7891 -2.34,-2.6093 -5.4,-4.0507 -9,-4.0507 m 0.18,117.9019 c -3.42,0 -6.39,1.079 -8.82,3.418 -2.43,2.161 -3.78,5.403 -3.78,9.45 0,3.601 1.35,6.66 3.87,9.089 2.52,2.34 5.49,3.512 8.73,3.512 3.24,0 6.12,-1.082 8.64,-3.242 2.43,-2.156 3.69,-5.309 3.69,-9.359 0,-4.047 -1.17,-7.2 -3.6,-9.45 -2.43,-2.25 -5.31,-3.418 -8.73,-3.418"
         style="fill:#a4a1a2;fill-opacity:1;fill-rule:nonzero;stroke:none"
         transform="matrix(0.13333333,0,0,-0.13333333,0,985.73333)" />
      <path
         id="path13"
         d="m 2479.41,38.5391 c -3.69,0 -6.66,1.4414 -8.91,4.1406 -2.34,2.7891 -3.51,6.6601 -3.51,11.6992 v 43.3828 c 0,8.5473 -1.17,15.1173 -3.42,19.6173 -2.34,4.59 -6.84,6.84 -13.68,6.84 -4.5,0 -8.46,-1.348 -12.15,-4.141 -3.6,-2.699 -6.3,-6.57 -8.01,-11.34 -1.26,-3.867 -1.89,-11.1599 -1.89,-21.7771 v -32.582 c 0,-5.2187 -1.17,-9.1797 -3.51,-11.8789 -2.34,-2.6094 -5.31,-3.9609 -9.09,-3.9609 -3.51,0 -6.48,1.4414 -8.82,4.1406 -2.34,2.7891 -3.51,6.6601 -3.51,11.6992 v 75.1521 c 0,4.949 1.08,8.637 3.15,11.16 1.98,2.43 4.95,3.688 8.46,3.688 2.25,0 4.23,-0.629 5.94,-1.711 1.8,-0.988 3.15,-2.699 4.23,-4.77 1.08,-2.25 1.62,-4.859 1.62,-8.007 v -3.063 c 4.41,6.031 9.18,10.442 14.31,13.231 5.31,2.882 11.25,4.32 18,4.32 6.57,0 12.42,-1.527 17.64,-4.59 5.13,-2.969 9.09,-7.109 11.61,-12.598 1.62,-3.152 2.7,-6.66 3.15,-10.261 0.45,-3.692 0.81,-8.371 0.81,-14.129 V 54.3789 c 0,-5.2187 -1.26,-9.1797 -3.51,-11.7891 -2.25,-2.6093 -5.22,-4.0507 -8.91,-4.0507"
         style="fill:#a4a1a2;fill-opacity:1;fill-rule:nonzero;stroke:none"
         transform="matrix(0.13333333,0,0,-0.13333333,0,985.73333)" />
      <path
         id="path14"
         d="m 2551.95,38.5391 c -3.6,0 -6.39,0.9023 -8.46,2.5195 -2.16,1.7109 -3.69,3.5117 -4.68,5.582 -0.99,1.9805 -2.7,5.9375 -5.04,11.8789 l -23.76,61.1995 c -0.54,1.531 -1.17,3.062 -1.71,4.59 -0.63,1.531 -1.08,3.062 -1.44,4.679 -0.36,1.621 -0.63,2.973 -0.63,4.051 0,1.801 0.54,3.602 1.62,5.313 0.99,1.796 2.43,3.238 4.23,4.316 1.89,1.082 3.78,1.711 5.94,1.711 4.14,0 7.02,-1.258 8.55,-3.777 1.53,-2.524 3.33,-6.661 5.22,-12.512 l 20.16,-59.0392 21.69,61.6482 c 1.71,4.949 3.42,8.461 5.04,10.531 1.71,2.071 4.14,3.149 7.47,3.149 3.24,0 5.85,-1.168 8.1,-3.418 2.25,-2.25 3.33,-4.77 3.33,-7.742 0,-1.168 -0.18,-2.43 -0.63,-3.867 -0.36,-1.622 -0.81,-3.063 -1.35,-4.411 -0.54,-1.261 -0.99,-2.793 -1.8,-4.5 l -23.85,-61.9215 c -0.72,-1.8007 -1.62,-4.0507 -2.61,-6.8398 -1.08,-2.6992 -2.25,-4.9492 -3.6,-7.0195 -1.35,-1.8907 -2.88,-3.3321 -4.77,-4.4102 -1.98,-1.0781 -4.32,-1.7109 -7.02,-1.7109"
         style="fill:#a4a1a2;fill-opacity:1;fill-rule:nonzero;stroke:none"
         transform="matrix(0.13333333,0,0,-0.13333333,0,985.73333)" />
      <path
         id="path15"
         d="m 2658.87,38.5391 c -16.02,0 -28.44,4.8593 -37.26,14.3125 -8.91,9.539 -13.32,22.5 -13.32,38.789 0,7.7383 1.08,14.8474 3.24,21.4184 2.25,6.57 5.4,12.152 9.63,16.832 4.14,4.769 9.36,8.371 15.48,10.89 6.21,2.52 12.96,3.778 20.52,3.778 9.63,0 18,-2.161 24.93,-6.481 7.02,-4.316 12.24,-9.808 15.66,-16.558 3.51,-6.84 5.22,-13.77 5.22,-20.879 0,-6.4808 -1.71,-10.7113 -5.4,-12.6019 -3.6,-1.9805 -8.55,-2.9688 -15.12,-2.9688 h -48.78 c 0.09,-5.9414 1.26,-11.0703 3.42,-15.6601 2.25,-4.4102 5.22,-7.8321 8.82,-10.1719 3.69,-2.3399 7.83,-3.418 12.24,-3.418 2.97,0 5.76,0.3594 8.19,1.0781 2.43,0.8125 4.86,1.8907 7.2,3.4219 2.25,1.6211 4.41,3.2383 6.3,5.0391 1.98,1.8008 4.59,4.1406 7.65,7.1992 1.26,1.1719 3.15,1.8008 5.49,1.8008 2.52,0 4.59,-0.7188 6.21,-2.25 1.53,-1.4414 2.34,-3.5078 2.34,-6.211 0,-2.3398 -0.9,-5.039 -2.7,-8.1875 -1.71,-3.1523 -4.32,-6.2109 -7.92,-9.0898 -3.6,-2.8828 -8.1,-5.2227 -13.41,-7.2031 -5.4,-1.8867 -11.61,-2.8789 -18.63,-2.8789 m -2.61,87.8399 c -6.21,0 -11.34,-2.16 -15.3,-6.66 -3.96,-4.5 -6.39,-11.071 -7.29,-19.801 h 45.18 c -0.54,8.82 -2.88,15.48 -6.84,19.891 -4.05,4.41 -9.27,6.57 -15.75,6.57"
         style="fill:#a4a1a2;fill-opacity:1;fill-rule:nonzero;stroke:none"
         transform="matrix(0.13333333,0,0,-0.13333333,0,985.73333)" />
      <path
         id="path16"
         d="m 2768.22,38.8086 c -15.48,0 -27.45,4.6797 -36.09,14.043 -8.64,9.3593 -12.96,21.8672 -12.96,37.6172 0,10.7112 1.98,20.1602 5.94,28.3512 3.96,8.098 9.63,14.489 17.1,18.989 7.47,4.5 16.47,6.75 26.91,6.75 6.48,0 12.33,-1.079 17.73,-2.969 5.4,-1.981 9.9,-4.5 13.68,-7.649 3.78,-3.062 6.57,-6.39 8.64,-9.902 1.98,-3.508 2.97,-6.84 2.97,-9.898 0,-3.063 -1.17,-5.672 -3.42,-7.922 -2.16,-2.16 -4.86,-3.239 -8.01,-3.239 -2.16,0 -3.78,0.629 -5.13,1.711 -1.44,1.079 -2.97,2.879 -4.68,5.399 -3.06,4.769 -6.21,8.461 -9.54,10.89 -3.33,2.43 -7.56,3.598 -12.69,3.598 -7.29,0 -13.23,-2.969 -17.73,-9 -4.5,-6.027 -6.75,-14.219 -6.75,-24.66 0,-4.8594 0.63,-9.4492 1.71,-13.5 1.17,-4.1367 2.88,-7.5586 5.04,-10.5274 2.16,-2.8789 4.86,-5.039 7.92,-6.4804 3.06,-1.5313 6.48,-2.3399 10.26,-2.3399 4.95,0 9.27,1.2578 12.78,3.6875 3.6,2.4336 6.75,6.1211 9.54,10.9805 1.44,2.9726 3.15,5.3125 4.86,6.9297 1.8,1.6211 3.87,2.4336 6.48,2.4336 3.06,0 5.58,-1.1719 7.56,-3.6016 1.98,-2.4297 3.06,-4.9492 3.06,-7.7383 0,-3.2422 -0.9,-6.6601 -2.79,-10.3515 -1.89,-3.6914 -4.68,-7.1993 -8.55,-10.5313 -3.78,-3.3281 -8.55,-6.0312 -14.4,-8.0078 -5.76,-2.0703 -12.24,-3.0625 -19.44,-3.0625"
         style="fill:#a4a1a2;fill-opacity:1;fill-rule:nonzero;stroke:none"
         transform="matrix(0.13333333,0,0,-0.13333333,0,985.73333)" />
      <path
         id="path17"
         d="m 2866.77,38.5391 c -7.83,0 -13.68,1.4414 -17.73,4.1406 -3.96,2.7891 -6.66,6.4805 -7.83,11.3398 -1.26,4.8594 -1.89,11.25 -1.89,19.3516 V 123.41 h -3.33 c -3.51,0 -6.3,0.809 -8.19,2.61 -1.89,1.8 -2.88,4.05 -2.88,6.75 0,2.789 0.99,4.949 2.97,6.75 1.98,1.71 4.86,2.609 8.64,2.609 h 2.79 v 15.66 c 0,4.141 0.09,7.473 0.27,9.809 0.27,2.433 0.81,4.414 1.8,6.121 0.99,1.801 2.34,3.242 4.23,4.41 1.8,1.082 3.78,1.621 6.03,1.621 3.24,0 6.12,-1.262 8.64,-3.691 1.62,-1.707 2.79,-3.688 3.24,-6.028 0.45,-2.433 0.63,-5.851 0.63,-10.172 v -17.73 h 9.18 c 3.51,0 6.21,-0.899 8.1,-2.609 1.89,-1.801 2.79,-3.961 2.79,-6.75 0,-3.418 -1.35,-5.942 -4.05,-7.29 -2.61,-1.441 -6.39,-2.07 -11.34,-2.07 h -4.68 V 75.4414 c 0,-4.0508 0.18,-7.2031 0.45,-9.3633 0.27,-2.25 1.08,-4.0468 2.25,-5.3984 1.08,-1.3516 3.06,-2.0703 5.76,-2.0703 1.44,0 3.42,0.2695 5.94,0.9023 2.43,0.4492 4.41,0.7188 5.85,0.7188 1.98,0 3.87,-0.8125 5.4,-2.4297 1.62,-1.711 2.43,-3.7813 2.43,-6.3008 0,-4.1406 -2.16,-7.3789 -6.57,-9.6289 -4.41,-2.1602 -10.71,-3.332 -18.9,-3.332"
         style="fill:#a4a1a2;fill-opacity:1;fill-rule:nonzero;stroke:none"
         transform="matrix(0.13333333,0,0,-0.13333333,0,985.73333)" />
      <path
         id="path18"
         d="m 2944.89,38.5391 c -7.65,0 -14.4,1.2617 -20.43,3.8711 -6.03,2.5195 -11.25,6.1211 -15.66,10.8906 -4.41,4.7695 -7.74,10.2578 -9.99,16.7383 -2.25,6.4804 -3.42,13.5898 -3.42,21.4218 0,7.8282 1.17,15.0271 3.42,21.5981 2.43,6.57 5.67,12.152 9.99,16.832 4.32,4.589 9.54,8.187 15.66,10.617 6.21,2.523 12.96,3.871 20.43,3.871 7.56,0 14.31,-1.348 20.52,-3.871 6.12,-2.52 11.43,-6.207 15.75,-10.887 4.32,-4.68 7.74,-10.262 9.99,-16.832 2.34,-6.391 3.42,-13.5898 3.42,-21.4179 0,-7.6523 -1.08,-14.8516 -3.42,-21.4219 -2.34,-6.4804 -5.67,-12.1484 -10.08,-16.8281 -4.32,-4.6797 -9.63,-8.1914 -15.66,-10.8008 -6.12,-2.5195 -12.87,-3.7812 -20.52,-3.7812 m 0,86.4919 c -4.95,0 -9.18,-1.351 -12.87,-3.961 -3.78,-2.699 -6.57,-6.57 -8.64,-11.699 -1.98,-5.133 -2.97,-11.0702 -2.97,-17.9999 0,-6.75 0.99,-12.6914 2.97,-17.7305 1.98,-5.1328 4.77,-9 8.46,-11.6992 3.69,-2.7031 8.01,-4.0508 13.05,-4.0508 7.56,0 13.5,2.9688 18,8.9102 4.41,5.9375 6.75,14.1289 6.75,24.5703 0,10.6169 -2.34,18.8989 -6.75,24.7499 -4.5,5.938 -10.44,8.91 -18,8.91"
         style="fill:#a4a1a2;fill-opacity:1;fill-rule:nonzero;stroke:none"
         transform="matrix(0.13333333,0,0,-0.13333333,0,985.73333)" />
      <path
         id="path19"
         d="m 3026.34,38.5391 c -3.51,0 -6.48,1.4414 -8.82,4.0507 -2.25,2.6094 -3.42,6.5704 -3.42,11.7891 v 72.4491 c 0,11.703 4.05,17.551 12.15,17.551 4.05,0 7.11,-1.438 8.91,-4.141 1.8,-2.699 2.79,-6.75 3.06,-12.148 2.97,5.398 6.03,9.449 9.18,12.148 3.15,2.703 7.29,4.141 12.51,4.141 5.22,0 10.26,-1.438 15.3,-4.141 4.86,-2.699 7.38,-6.39 7.38,-10.886 0,-3.153 -1.08,-5.852 -3.24,-7.832 -2.07,-2.071 -4.32,-3.149 -6.75,-3.149 -0.9,0 -3.15,0.629 -6.66,1.797 -3.51,1.172 -6.57,1.801 -9.27,1.801 -3.6,0 -6.57,-0.989 -8.91,-3.059 -2.34,-1.98 -4.05,-4.949 -5.4,-8.91 -1.26,-3.961 -2.16,-8.551 -2.61,-14.0391 -0.54,-5.4023 -0.72,-11.9726 -0.72,-19.8906 V 54.3789 c 0,-5.2187 -1.17,-9.1797 -3.6,-11.8789 -2.34,-2.6094 -5.4,-3.9609 -9.09,-3.9609"
         style="fill:#a4a1a2;fill-opacity:1;fill-rule:nonzero;stroke:none"
         transform="matrix(0.13333333,0,0,-0.13333333,0,985.73333)" />
      <path
         id="path20"
         d="m 3127.95,38.5391 c -8.91,0 -16.56,1.4414 -23.04,4.3203 -6.3,2.8789 -11.07,6.4804 -14.13,10.7109 -3.06,4.2305 -4.59,8.5508 -4.59,12.8711 0,2.8789 0.99,5.3086 2.97,7.2891 1.98,2.0703 4.41,3.1484 7.38,3.1484 2.61,0 4.68,-0.7187 6.03,-2.0703 1.44,-1.3477 2.7,-3.2383 4.05,-5.5781 2.52,-4.6797 5.58,-8.1016 9.18,-10.4414 3.51,-2.3399 8.37,-3.418 14.58,-3.418 4.95,0 9.09,1.168 12.24,3.5078 3.24,2.25 4.86,4.9492 4.86,7.9219 0,4.5898 -1.71,7.918 -4.95,9.9883 -3.42,2.1601 -8.82,4.1406 -16.47,6.0312 -8.55,2.25 -15.57,4.5899 -20.97,7.0195 -5.31,2.4297 -9.72,5.668 -12.96,9.7188 -3.15,3.9614 -4.86,8.9104 -4.86,14.7614 0,5.219 1.53,10.078 4.5,14.668 2.97,4.68 7.47,8.371 13.23,11.16 5.85,2.793 12.87,4.231 21.06,4.231 6.48,0 12.24,-0.809 17.37,-2.16 5.13,-1.348 9.54,-3.239 12.87,-5.578 3.42,-2.34 6.12,-4.95 7.92,-7.832 1.8,-2.879 2.7,-5.668 2.7,-8.368 0,-3.062 -0.99,-5.402 -2.88,-7.382 -1.98,-1.891 -4.68,-2.789 -8.19,-2.789 -2.61,0 -4.68,0.718 -6.57,2.25 -1.71,1.531 -3.87,3.781 -6.12,6.839 -1.89,2.52 -4.14,4.59 -6.66,6.121 -2.61,1.438 -6.12,2.25 -10.44,2.25 -4.5,0 -8.28,-0.992 -11.16,-2.972 -3.06,-1.977 -4.59,-4.496 -4.59,-7.469 0,-2.789 1.17,-5.039 3.33,-6.75 2.16,-1.711 5.13,-3.238 8.82,-4.41 3.78,-1.078 8.91,-2.52 15.39,-4.141 7.74,-1.976 14.04,-4.32 18.9,-7.1091 4.95,-2.6992 8.64,-5.8476 11.16,-9.6289 2.61,-3.7812 3.87,-7.9219 3.87,-12.6914 0,-7.1992 -1.71,-13.3203 -5.13,-18.4492 -3.33,-5.1289 -8.28,-8.9102 -14.76,-11.6094 -6.57,-2.6094 -14.49,-3.9609 -23.94,-3.9609"
         style="fill:#a4a1a2;fill-opacity:1;fill-rule:nonzero;stroke:none"
         transform="matrix(0.13333333,0,0,-0.13333333,0,985.73333)" />
      <path
         id="path21"
         d="m 3200.04,38.5391 c -3.78,0 -7.02,1.2617 -9.72,3.8711 -2.79,2.5195 -4.14,6.1211 -4.14,10.6211 0,3.8671 1.26,7.1992 3.87,9.9882 2.61,2.7891 5.85,4.1407 9.72,4.1407 3.78,0 7.11,-1.3516 9.72,-4.1407 2.79,-2.6992 4.14,-6.1211 4.14,-9.9882 0,-4.5 -1.35,-8.0118 -4.14,-10.6211 -2.61,-2.5196 -5.76,-3.8711 -9.45,-3.8711"
         style="fill:#a4a1a2;fill-opacity:1;fill-rule:nonzero;stroke:none"
         transform="matrix(0.13333333,0,0,-0.13333333,0,985.73333)" />
      <path
         id="path22"
         d="m 3285.54,38.5391 c -7.56,0 -14.31,1.2617 -20.34,3.8711 -6.03,2.5195 -11.25,6.1211 -15.66,10.8906 -4.41,4.7695 -7.74,10.2578 -10.08,16.7383 -2.25,6.4804 -3.42,13.5898 -3.42,21.4218 0,7.8282 1.17,15.0271 3.51,21.5981 2.34,6.57 5.58,12.152 9.9,16.832 4.32,4.589 9.54,8.187 15.75,10.617 6.12,2.523 12.87,3.871 20.34,3.871 7.56,0 14.4,-1.348 20.52,-3.871 6.21,-2.52 11.43,-6.207 15.84,-10.887 4.32,-4.68 7.65,-10.262 9.99,-16.832 2.25,-6.391 3.42,-13.5898 3.42,-21.4179 0,-7.6523 -1.17,-14.8516 -3.51,-21.4219 -2.34,-6.4804 -5.67,-12.1484 -9.99,-16.8281 -4.41,-4.6797 -9.63,-8.1914 -15.75,-10.8008 -6.03,-2.5195 -12.87,-3.7812 -20.52,-3.7812 m 0,86.4919 c -4.86,0 -9.09,-1.351 -12.87,-3.961 -3.69,-2.699 -6.57,-6.57 -8.55,-11.699 -1.98,-5.133 -2.97,-11.0702 -2.97,-17.9999 0,-6.75 0.9,-12.6914 2.88,-17.7305 1.98,-5.1328 4.86,-9 8.55,-11.6992 3.69,-2.7031 7.92,-4.0508 12.96,-4.0508 7.56,0 13.5,2.9688 18,8.9102 4.5,5.9375 6.75,14.1289 6.75,24.5703 0,10.6169 -2.25,18.8989 -6.75,24.7499 -4.5,5.938 -10.44,8.91 -18,8.91"
         style="fill:#a4a1a2;fill-opacity:1;fill-rule:nonzero;stroke:none"
         transform="matrix(0.13333333,0,0,-0.13333333,0,985.73333)" />
      <path
         id="path23"
         d="m 3367.08,38.5391 c -3.6,0 -6.48,1.4414 -8.82,4.0507 -2.34,2.6094 -3.51,6.5704 -3.51,11.7891 v 72.4491 c 0,11.703 4.14,17.551 12.15,17.551 4.14,0 7.11,-1.438 8.91,-4.141 1.8,-2.699 2.88,-6.75 3.06,-12.148 2.97,5.398 6.03,9.449 9.18,12.148 3.15,2.703 7.29,4.141 12.51,4.141 5.31,0 10.35,-1.438 15.3,-4.141 4.86,-2.699 7.38,-6.39 7.38,-10.886 0,-3.153 -1.08,-5.852 -3.15,-7.832 -2.16,-2.071 -4.32,-3.149 -6.84,-3.149 -0.9,0 -3.06,0.629 -6.57,1.797 -3.51,1.172 -6.57,1.801 -9.36,1.801 -3.6,0 -6.48,-0.989 -8.91,-3.059 -2.25,-1.98 -4.05,-4.949 -5.4,-8.91 -1.26,-3.961 -2.16,-8.551 -2.61,-14.0391 -0.45,-5.4023 -0.72,-11.9726 -0.72,-19.8906 V 54.3789 c 0,-5.2187 -1.17,-9.1797 -3.51,-11.8789 -2.43,-2.6094 -5.4,-3.9609 -9.09,-3.9609"
         style="fill:#a4a1a2;fill-opacity:1;fill-rule:nonzero;stroke:none"
         transform="matrix(0.13333333,0,0,-0.13333333,0,985.73333)" />
      <path
         id="path24"
         d="m 3473.91,0.0195313 c -8.55,0 -16.29,1.1718787 -23.04,3.6914087 -6.75,2.60937 -11.88,5.75781 -15.57,9.80856 -3.69,3.8711 -5.49,8.0118 -5.49,12.2422 0,3.1485 0.99,5.7578 3.15,7.7383 2.07,1.9805 4.5,3.0586 7.47,3.0586 3.69,0 6.75,-1.707 9.54,-5.1289 1.35,-1.7109 2.79,-3.4219 4.23,-5.1289 1.35,-1.8008 2.97,-3.332 4.68,-4.5 1.71,-1.3516 3.87,-2.25 6.3,-2.7891 2.43,-0.6328 5.22,-0.9023 8.37,-0.9023 6.39,0 11.52,0.9023 15.03,2.789 3.6,1.8008 6.03,4.5 7.56,7.8321 1.35,3.3281 2.25,6.9297 2.34,10.8008 0.36,3.8671 0.54,10.0781 0.72,18.539 -3.87,-5.4922 -8.37,-9.8086 -13.32,-12.6914 -5.04,-2.9687 -11.07,-4.3203 -17.91,-4.3203 -8.46,0 -15.75,2.1602 -21.96,6.5703 -6.21,4.5 -10.98,10.7109 -14.4,18.7188 -3.24,8.0117 -4.95,17.1914 -4.95,27.7226 0,7.8277 0.99,14.9417 3.06,21.1487 1.98,6.301 4.86,11.609 8.73,15.929 3.69,4.321 8.1,7.563 13.05,9.813 4.95,2.16 10.26,3.238 16.2,3.238 7.02,0 13.23,-1.437 18.36,-4.23 5.22,-2.789 9.99,-7.289 14.4,-13.321 v 3.512 c 0,4.5 1.17,8.008 3.24,10.531 2.16,2.43 4.86,3.688 8.19,3.688 4.86,0 8.01,-1.617 9.63,-4.859 1.53,-3.329 2.34,-8.008 2.34,-14.219 V 49.6992 c 0,-8.6406 -0.9,-16.1094 -2.61,-22.3203 -1.8,-6.2109 -4.68,-11.3398 -8.55,-15.3906 -3.87,-4.04689 -9,-7.10939 -15.21,-9.08986 -6.39,-1.89063 -14.22,-2.8789087 -23.58,-2.8789087 M 3475.17,124.941 c -7.02,0 -12.78,-2.882 -17.01,-8.55 -4.41,-5.672 -6.48,-13.68 -6.48,-24.1215 0,-10.5312 2.16,-18.4492 6.57,-23.8515 4.41,-5.3985 10.17,-8.1875 17.1,-8.1875 4.14,0 8.1,1.2578 11.79,3.5976 3.6,2.3399 6.66,5.7617 9,10.4414 2.25,4.6797 3.42,10.3516 3.42,17.0118 0,10.6167 -2.25,18.8087 -6.75,24.7497 -4.41,5.938 -10.35,8.91 -17.64,8.91"
         style="fill:#a4a1a2;fill-opacity:1;fill-rule:nonzero;stroke:none"
         transform="matrix(0.13333333,0,0,-0.13333333,0,985.73333)" />
      <path
         id="path25"
         d="m 2406.69,249.23 c -40.32,0 -74.7,14.942 -103.32,44.731 -28.44,29.789 -42.75,65.789 -42.75,107.91 0,42.117 14.31,78.027 42.75,107.91 28.62,29.789 63,44.637 103.32,44.637 40.32,0 74.7,-14.848 103.32,-44.637 28.53,-29.883 42.84,-65.793 42.84,-107.91 0,-42.121 -14.31,-78.121 -42.84,-107.91 -28.62,-29.789 -63,-44.731 -103.32,-44.731 m -56.28,50.86 c 16.5,-10.918 35.25,-16.391 56.28,-16.391 30.42,0 56.07,11.43 77.04,34.289 20.97,22.774 31.41,50.762 31.41,83.883 0,29.758 -8.48,55.438 -25.5,76.949 l 8.13,10.438 -21.33,18.094 -6.7,-8.602 c -18.08,14.191 -39.09,21.289 -63.05,21.289 -30.42,0 -56.07,-11.43 -77.04,-34.289 -20.97,-22.859 -31.5,-50.852 -31.5,-83.879 0,-32.91 10.41,-60.762 31.12,-83.453 l -9.52,-12.219 21.33,-18.09 9.33,11.981 m 60.33,15.379 c -15.39,0 -28.81,3.492 -40.24,10.41 l 22.34,28.68 c 5.55,-3.079 11.99,-4.618 19.34,-4.618 19.98,0 30.51,9.539 31.5,28.618 h 36.99 c -2.61,-19.891 -10.71,-35.457 -24.39,-46.707 -12.51,-10.891 -27.72,-16.383 -45.54,-16.383 m -60.89,29.383 c -11.59,15.5 -17.32,34.906 -17.32,58.367 0,26.011 6.75,46.801 20.25,62.551 13.5,15.66 32.49,23.582 57.15,23.582 16.63,0 31.02,-4.102 42.9,-12.301 l -21.06,-27.039 c -4.87,3.238 -11.13,4.867 -18.78,4.867 -28.53,0 -42.84,-17.008 -42.84,-50.848 0,-10.269 1.56,-19.32 4.64,-27.172 l -24.94,-32.007 m 130.82,85.007 h -29.17 l 20.48,26.289 c 4.3,-7.64 7.2,-16.41 8.69,-26.289"
         style="fill:#a4a1a2;fill-opacity:1;fill-rule:nonzero;stroke:none"
         transform="matrix(0.13333333,0,0,-0.13333333,0,985.73333)" />
      <path
         id="path26"
         d="m 2341.08,288.109 -21.33,18.09 9.52,12.219 20.58,26.434 24.94,32.007 56.98,73.153 21.06,27.039 16.91,21.699 6.7,8.602 21.33,-18.094 -8.13,-10.438 -17.66,-22.672 -20.48,-26.289 -58.66,-75.3 -22.34,-28.68 -20.09,-25.789 -9.33,-11.981"
         style="fill:#a4a1a2;fill-opacity:1;fill-rule:nonzero;stroke:none"
         transform="matrix(0.13333333,0,0,-0.13333333,0,985.73333)" />
      <path
         id="path27"
         d="m 2541.03,832.469 c 1399.52,0 2540.99,336.081 2540.99,748.131 0,412.05 -1141.47,748.12 -2540.99,748.12 C 1141.47,2328.72 0,1992.65 0,1580.6 0,1168.55 1141.47,832.469 2541.03,832.469"
         style="fill:#e8e8e7;fill-opacity:1;fill-rule:evenodd;stroke:none"
         transform="matrix(0.13333333,0,0,-0.13333333,0,985.73333)" />
      <path
         id="path28"
         d="m 2643.94,6776.52 c 808.91,-234.06 1561.63,-1452.29 1625.1,-2617.18 63.46,-1164.91 -542.79,-1798.47 -1304.27,-1520.5 -761.46,277.93 -1427.07,1334.12 -1538,2454.3 -110.89,1120.22 408.24,1917.43 1217.17,1683.38"
         style="fill:#8d8d8d;fill-opacity:1;fill-rule:evenodd;stroke:none"
         transform="matrix(0.13333333,0,0,-0.13333333,0,985.73333)" />
      <path
         id="path29"
         d="m 1586.7,5506.31 c 11.06,3.81 23.64,3.93 37.46,-0.25 138.4,-41.83 279.6,-84.33 423.19,-128.05 39.75,-314.1 77.99,-617.9 115.42,-912.33 L 613.539,3829.4 90.9492,4992.98 1586.7,5506.31"
         style="fill:#b7b6b5;fill-opacity:1;fill-rule:evenodd;stroke:none"
         transform="matrix(0.13333333,0,0,-0.13333333,0,985.73333)" />
      <path
         id="path30"
         d="m 2891.73,3312.22 c 198.7,-81.84 402.41,-166.19 612.04,-252.15 12.33,-201.39 24.67,-398.77 36.54,-590.68 2.5,-40.37 -7.27,-71.51 -25.24,-90.22 h 0.02 l -0.18,-0.19 c -1.18,-1.21 -2.4,-2.39 -3.64,-3.5 l -1123.33,-1078.79 2.02,556.35 501.77,1459.18"
         style="fill:#a3a3a2;fill-opacity:1;fill-rule:evenodd;stroke:none"
         transform="matrix(0.13333333,0,0,-0.13333333,0,985.73333)" />
      <path
         id="path31"
         d="m 4513.86,2648.78 -21.95,-17.36 -886.08,-968.87 -329.56,723.87 393.84,695.43 c 146.57,138.73 299.46,283.96 459.47,435.6 128.14,-205.92 255.89,-411.13 383.3,-615.76 45.47,-73.01 55.61,-158.36 30.52,-213.98 h -0.02 c -7.05,-15.65 -16.9,-28.91 -29.52,-38.93"
         style="fill:#a3a3a2;fill-opacity:1;fill-rule:evenodd;stroke:none"
         transform="matrix(0.13333333,0,0,-0.13333333,0,985.73333)" />
      <path
         id="path32"
         d="M 3276.27,2386.42 4201.84,3401.34 3245.6,3063.92 Z"
         style="fill:#8d8d8d;fill-opacity:1;fill-rule:evenodd;stroke:none"
         transform="matrix(0.13333333,0,0,-0.13333333,0,985.73333)" />
      <path
         id="path33"
         d="m 4941.15,4293.4 c -4.26,-207.29 -8.4,-409.28 -12.45,-607.04 -1.36,-66.43 -28.6,-116.47 -69.15,-139.45 l -850.47,-845.12 -590.58,1319.1 765.67,718.17 c 192.34,-56.6 388.83,-114.8 589.76,-173.81 94.12,-27.63 169.7,-150.64 167.22,-271.85"
         style="fill:#b1b1b0;fill-opacity:1;fill-rule:evenodd;stroke:none"
         transform="matrix(0.13333333,0,0,-0.13333333,0,985.73333)" />
      <path
         id="path34"
         d="m 1914.56,6971.28 c 39.78,6.64 124.18,-12.08 126.53,-86.44 L 2081.1,5617.43 952.484,6130.48 498.895,6735.13 1914.56,6971.28"
         style="fill:#b7b6b5;fill-opacity:1;fill-rule:evenodd;stroke:none"
         transform="matrix(0.13333333,0,0,-0.13333333,0,985.73333)" />
      <path
         id="path35"
         d="m 2656.05,7391.89 c 143.39,-22.84 288.69,-46.1 437.01,-69.78 86.7,-13.85 164.74,-142.88 173.07,-285.93 17.69,-304.05 34.78,-599.13 51.79,-886.74 l -1184.38,-31.49 -800.19,1113.3 1276.1,154.52 c 14.19,6.5 29.85,8.79 46.6,6.12"
         style="fill:#b7b6b5;fill-opacity:1;fill-rule:evenodd;stroke:none"
         transform="matrix(0.13333333,0,0,-0.13333333,0,985.73333)" />
      <path
         id="path36"
         d="m 4148.45,6464.23 c 119.07,-197.33 238.25,-394.04 357.21,-589.99 68.04,-112.07 68.29,-268.39 0.9,-346.41 -143.03,-165.6 -280.58,-325.59 -413.49,-479.02 L 3237.06,4648.4 2945.87,6252.08 3973.47,6561 v -0.02 c 58.09,17.61 126.57,-16.51 174.98,-96.75"
         style="fill:#b1b1b0;fill-opacity:1;fill-rule:evenodd;stroke:none"
         transform="matrix(0.13333333,0,0,-0.13333333,0,985.73333)" />
      <path
         id="path37"
         d="m 1815.74,4688.84 c -293.51,84.95 -481.89,-204.33 -441.64,-610.79 40.24,-406.44 281.75,-789.66 558.05,-890.5 276.3,-100.88 496.27,129.02 473.24,551.68 -23.03,422.67 -296.16,864.69 -589.65,949.61 z m 317.8,1429.11 c 144.38,-90.24 285.21,-207.81 417.9,-347.62 98.32,136.55 199.19,276.4 302.67,420.18 74.13,102.99 202.75,77.82 283.85,-56.58 140.97,-233.67 282.09,-466.6 422.96,-698.61 80.58,-132.71 80.87,-317.83 1.08,-410.21 -111.02,-128.51 -219.24,-254.19 -324.96,-376.71 77.75,-203.74 139.14,-415.33 181.44,-627.51 151.19,-44.61 304.53,-89.9 460.1,-135.6 111.45,-32.71 200.95,-178.38 198.01,-321.88 -5.02,-245.49 -9.95,-484.67 -14.74,-718.85 -2.7,-132.15 -91.85,-209.43 -197.09,-172.26 -146.13,51.6 -290.34,102.46 -432.47,152.52 -35.9,-167.07 -88.95,-313.13 -156.04,-438.34 97.92,-157.35 195.66,-314.36 293.22,-471.04 68.98,-110.76 69.31,-245.51 1.17,-299.45 -115.88,-91.82 -229.63,-181.25 -339.15,-268.07 -62.41,-49.51 -165.41,-4.59 -230.8,99.12 -92.94,147.42 -186.11,295.2 -279.33,443.3 -104.08,-33.08 -215.48,-45.84 -331.4,-37.28 9.4,-152.25 18.77,-302.25 27.88,-449.51 6.38,-103.28 -55,-155.57 -135.66,-118.79 -138.96,63.38 -275.84,125.68 -410.85,187.24 -76.43,34.85 -146.78,144.69 -156.46,245.47 -13.84,143.63 -27.63,289.67 -41.65,437.78 -114.15,87.03 -222.98,189.64 -325.43,304.9 -64.07,-73.93 -126.93,-146.45 -188.4,-217.91 -42.97,-49.94 -126.29,-13.46 -186.46,80.53 -104.508,163.32 -208.758,328.12 -313.305,492.36 -60.465,95 -77.766,217.38 -37.914,272.73 57.059,79.3 115.043,160.24 174.203,242.66 -70.918,158.5 -132.391,325.33 -182.394,498.88 -104.297,37.45 -207.543,74.68 -309.45,111.5 -71.84,25.97 -143.527,140.17 -160.972,255.03 -30.907,203.32 -62.3558,409.88 -94.348,620.22 -18.7266,122.96 25.6563,205.69 100.117,183.18 106.461,-32.18 214.324,-64.69 323.446,-97.69 6.007,169.85 26.917,331.02 61.789,479.2 -97.579,156.44 -195.262,313.27 -293.344,470.52 -69.238,111.04 -91.535,270.3 -49.125,355.44 75.785,152.24 152.246,308.76 231.89,468.88 46.864,94.2 145.7,75.1 219.012,-43.69 103.539,-167.79 206.914,-334.94 309.949,-501.53 97.666,81.71 208.676,139.85 332.366,169.92 -19.98,217.3 -40.24,438.33 -60.88,663.23 -14.9,162.57 50.87,284.06 146.79,268.78 169.8,-27.05 341.82,-54.59 517.45,-82.62 102.7,-16.4 195.08,-169.19 204.94,-338.58 13.73,-235.46 27.13,-466.38 40.39,-693.24"
         style="fill:#cdccca;fill-opacity:1;fill-rule:evenodd;stroke:none"
         transform="matrix(0.13333333,0,0,-0.13333333,0,985.73333)" />
      <path
         id="path38"
         d="m 411.836,6652.16 z m 0,0 11.687,23.52 c 46.864,94.2 145.7,75.1 219.012,-43.69 103.539,-167.79 206.914,-334.94 309.949,-501.53 97.666,81.71 208.676,139.85 332.366,169.92 -144.77,-58.74 -253.47,-136.72 -333.752,-229.84 l -377.274,590.11 c -56.035,66.3 -110.265,71.41 -161.988,-8.49"
         style="fill:#ffffff;fill-opacity:1;fill-rule:evenodd;stroke:none"
         transform="matrix(0.13333333,0,0,-0.13333333,0,985.73333)" />
      <path
         id="path39"
         d="m 2721.36,1890.34 c -104.08,-33.08 -215.48,-45.84 -331.4,-37.28 9.4,-152.25 18.77,-302.25 27.88,-449.51 6.38,-103.28 -55,-155.57 -135.66,-118.79 68.77,-3.36 104.74,30.23 99.92,138.02 l -21.07,471.84 c 96.45,-31.33 223.04,-24.55 360.33,-4.28"
         style="fill:#ffffff;fill-opacity:1;fill-rule:evenodd;stroke:none"
         transform="matrix(0.13333333,0,0,-0.13333333,0,985.73333)" />
      <path
         id="path40"
         d="m 2319.34,2734.6 -0.69,-0.21 279.59,602.59 -126.56,926.79 -411.74,527.42 -566.16,409.94 c -310.41,-92.79 -476.85,-510.69 -419.6,-1023.93 72.77,-652.42 450.76,-1248.15 891.65,-1418.61 126.08,-48.75 246.48,-55.45 353.51,-23.99 z m 395.26,485.68 -150.07,-317.75 c 66.21,81.37 117.85,188.05 150.07,317.75 z m 0.66,698.6 37.03,-349.14 c -0.15,18.49 -0.55,37.24 -1.28,56.27 -3.82,97.12 -16.12,195.37 -35.75,292.87 z m -1214.46,1284.28 7.3,2.04 c -2.44,-0.65 -4.87,-1.35 -7.3,-2.04 z m 231.41,583.05 c 352.67,-81.96 706.98,-393.97 970.51,-823.4 261.96,-426.91 429.93,-965.35 440.76,-1464.89 10.84,-499.55 -124.84,-858.73 -341.89,-1066.56 -206.67,-197.89 -493.99,-248.28 -800.69,-122.66 -306.67,125.65 -584.71,397.56 -803.63,743.77 -219.805,347.58 -382.336,773.05 -439.317,1229.68 -56.953,456.66 9.703,869.48 173.957,1145.58 172.94,290.67 447.63,440.44 800.3,358.48"
         style="fill:#909191;fill-opacity:1;fill-rule:evenodd;stroke:none"
         transform="matrix(0.13333333,0,0,-0.13333333,0,985.73333)" />
      <path
         id="path41"
         d="m 1960.81,5254.23 c -140.93,37.03 -265.19,21.38 -368.94,-35.22 -372.7,-27.43 -580.69,-476.88 -517.69,-1041.81 72.77,-652.42 450.76,-1248.15 891.65,-1418.61 162.07,-62.66 314.75,-55.88 441.72,12.2 318.01,25.1 549.52,355.33 527.79,909.1 -27.24,694.99 -488.11,1446.5 -974.53,1574.34 z m -228.6,531.98 c 352.67,-81.96 706.98,-393.97 970.51,-823.4 261.96,-426.91 429.93,-965.35 440.76,-1464.89 10.84,-499.55 -124.84,-858.73 -341.89,-1066.56 -57.66,-55.2 -121.59,-98.93 -190.46,-130.55 -132.73,-18.71 -277.01,0.8 -425.88,61.78 -306.69,125.66 -584.69,397.56 -803.66,743.77 -219.8,347.56 -382.332,773.05 -439.289,1229.7 -56.953,456.66 9.676,869.47 173.969,1145.56 87.21,146.61 200.35,257.34 336.28,320.62 86.64,11.78 180.04,7.11 279.66,-16.03"
         style="fill:#999a99;fill-opacity:1;fill-rule:evenodd;stroke:none"
         transform="matrix(0.13333333,0,0,-0.13333333,0,985.73333)" />
      <path
         id="path42"
         d="m 1776.46,5200.33 c 486.43,-127.81 947.29,-879.34 974.55,-1574.32 27.23,-694.96 -344.3,-1037.87 -785.18,-867.42 -440.89,170.46 -818.88,766.19 -891.65,1418.61 -72.76,652.43 215.86,1150.94 702.28,1023.13"
         style="fill:#cdccca;fill-opacity:1;fill-rule:evenodd;stroke:none"
         transform="matrix(0.13333333,0,0,-0.13333333,0,985.73333)" />
      <path
         id="path43"
         d="m 1815.74,4688.84 c 293.49,-84.92 566.62,-526.94 589.65,-949.61 23.03,-422.66 -196.94,-652.56 -473.24,-551.68 -276.3,100.84 -517.81,484.06 -558.05,890.5 -40.25,406.46 148.13,695.74 441.64,610.79"
         style="fill:#909191;fill-opacity:1;fill-rule:evenodd;stroke:none"
         transform="matrix(0.13333333,0,0,-0.13333333,0,985.73333)" />
      <path
         id="path44"
         d="m 2092.08,4500.83 c 147.94,-162.58 263.41,-403.51 301.45,-649.15 -148.51,159.27 -262.59,396.84 -301.45,649.15"
         style="fill:#ffffff;fill-opacity:1;fill-rule:evenodd;stroke:none"
         transform="matrix(0.13333333,0,0,-0.13333333,0,985.73333)" />
      <path
         id="path45"
         d="m 2115.37,6143.21 638.33,-8.78 -636.89,-30.03 z"
         style="fill:#d2d2d0;fill-opacity:1;fill-rule:evenodd;stroke:none"
         transform="matrix(0.13333333,0,0,-0.13333333,0,985.73333)" />
      <path
         id="path46"
         d="m 3233.84,4666.17 825.53,366.88 -830.07,-403.91 z"
         style="fill:#dedcdb;fill-opacity:1;fill-rule:evenodd;stroke:none"
         transform="matrix(0.13333333,0,0,-0.13333333,0,985.73333)" />
      <path
         id="path47"
         d="m 3401.81,4037.41 757.73,678.55 -735.29,-707.95 z"
         style="fill:#dedcdb;fill-opacity:1;fill-rule:evenodd;stroke:none"
         transform="matrix(0.13333333,0,0,-0.13333333,0,985.73333)" />
      <path
         id="path48"
         d="m 3268.02,2367.04 364.47,387.21 -15.71,5.57 -358.44,-365.38 9.68,-27.4"
         style="fill:#d0cfce;fill-opacity:1;fill-rule:evenodd;stroke:none"
         transform="matrix(0.13333333,0,0,-0.13333333,0,985.73333)" />
      <path
         id="path49"
         d="m 4066.39,3065.56 -30.59,500.58 c -6.4,105 -55.93,242.94 -156.38,274.09 l -492.38,152.68 c -45.67,213.82 -106.43,438.68 -192.05,650.27 L 3515,5049.47 c 62.07,78.77 84.8,209.27 38.73,298.29 l -354.36,684.44 c 120.55,-199.55 241.15,-398.55 361.55,-596.88 80.58,-132.71 80.87,-317.83 1.08,-410.21 -111.02,-128.51 -219.24,-254.19 -324.96,-376.71 77.73,-203.72 139.12,-415.31 181.44,-627.5 151.17,-44.62 304.51,-89.91 460.1,-135.61 111.45,-32.71 200.95,-178.38 198.01,-321.88 l -10.2,-497.85"
         style="fill:#ffffff;fill-opacity:1;fill-rule:evenodd;stroke:none"
         transform="matrix(0.13333333,0,0,-0.13333333,0,985.73333)" />
      <path
         id="path50"
         d="m 3432.29,2824.82 c -35.9,-167.07 -88.95,-313.13 -156.04,-438.34 97.92,-157.35 195.66,-314.36 293.22,-471.04 68.98,-110.76 69.31,-245.51 1.17,-299.45 -109.63,-86.84 -217.31,-171.55 -321.33,-253.97 88.66,84.28 189.43,189.14 278.07,273.42 58.54,55.66 59.45,169 17.09,237.75 l -317.24,514.75 c 81.24,130.74 147.65,277.91 205.06,436.88"
         style="fill:#ffffff;fill-opacity:1;fill-rule:evenodd;stroke:none"
         transform="matrix(0.13333333,0,0,-0.13333333,0,985.73333)" />
      <path
         id="path51"
         d="m 2133.52,6117.93 c 140.3,-87.68 277.23,-201.17 406.61,-335.79 l -403.86,288.76 -41.69,29.83 -51.94,735.1 c -7.81,110.32 -70.2,251.94 -177.02,280.65 l -338.46,90.96 361.05,-57.67 c 102.7,-16.4 195.08,-169.19 204.94,-338.58 13.73,-235.46 27.13,-466.38 40.37,-693.26"
         style="fill:#ffffff;fill-opacity:1;fill-rule:evenodd;stroke:none"
         transform="matrix(0.13333333,0,0,-0.13333333,0,985.73333)" />
      <path
         id="path52"
         d="m 2428.75,2247.22 c -145.52,-33.32 -307.21,-18.09 -474.79,50.56 -301.93,123.7 -575.62,391.39 -791.16,732.23 -216.405,342.15 -376.417,761.04 -432.472,1210.62 -54.078,433.28 4.953,826.48 154.098,1097.74 C 755.27,5066.31 706.855,4691.88 757.953,4282.15 c 56.981,-456.63 219.512,-882.1 439.317,-1229.68 218.92,-346.21 496.96,-618.12 803.63,-743.77 149.6,-61.25 294.59,-80.64 427.85,-61.48"
         style="fill:#ffffff;fill-opacity:1;fill-rule:evenodd;stroke:none"
         transform="matrix(0.13333333,0,0,-0.13333333,0,985.73333)" />
      <path
         id="path53"
         d="m 2263.2,3248.43 c -85.44,-82.97 -202.13,-107.95 -331.05,-60.88 -276.3,100.84 -517.81,484.06 -558.05,890.5 -25.4,256.62 40.33,466.48 166.12,564.98 -108.83,-105.88 -163.92,-303.94 -140.32,-542.39 40.25,-406.47 281.76,-789.69 558.05,-890.55 116.39,-42.46 222.79,-26.27 305.25,38.34"
         style="fill:#ffffff;fill-opacity:1;fill-rule:evenodd;stroke:none"
         transform="matrix(0.13333333,0,0,-0.13333333,0,985.73333)" />
      <path
         id="path54"
         d="m 1776.46,5200.33 c 486.43,-127.81 947.29,-879.34 974.55,-1574.32 20.97,-535.14 -194.53,-861.47 -496.04,-905.47 275.86,70.43 467.51,389.73 447.65,895.8 -27.23,694.97 -488.12,1446.48 -974.55,1574.31 -77.86,20.47 -150.65,24.8 -217.7,15.1 79.99,20.57 169.08,20.07 266.09,-5.42"
         style="fill:#ffffff;fill-opacity:1;fill-rule:evenodd;stroke:none"
         transform="matrix(0.13333333,0,0,-0.13333333,0,985.73333)" />
    </g>
  </g>
</svg>
