<?xml version="1.0" encoding="UTF-8" standalone="no"?>
<!-- Created with Inkscape (http://www.inkscape.org/) -->

<svg
   version="1.1"
   id="svg1"
   width="714.03998"
   height="739.97333"
   viewBox="0 0 714.03998 739.97333"
   sodipodi:docname="developer-at-work.svg"
   inkscape:version="1.3.2 (091e20ef0f, 2023-11-25, custom)"
   xmlns:inkscape="http://www.inkscape.org/namespaces/inkscape"
   xmlns:sodipodi="http://sodipodi.sourceforge.net/DTD/sodipodi-0.dtd"
   xmlns="http://www.w3.org/2000/svg"
   xmlns:svg="http://www.w3.org/2000/svg">
  <defs
     id="defs1" />
  <sodipodi:namedview
     id="namedview1"
     pagecolor="#505050"
     bordercolor="#ffffff"
     borderopacity="1"
     inkscape:showpageshadow="0"
     inkscape:pageopacity="0"
     inkscape:pagecheckerboard="1"
     inkscape:deskcolor="#d1d1d1"
     inkscape:zoom="0.89770884"
     inkscape:cx="357.01999"
     inkscape:cy="369.83038"
     inkscape:window-width="1920"
     inkscape:window-height="1002"
     inkscape:window-x="0"
     inkscape:window-y="0"
     inkscape:window-maximized="1"
     inkscape:current-layer="g1">
    <inkscape:page
       x="0"
       y="0"
       inkscape:label="1"
       id="page1"
       width="714.03998"
       height="739.97333"
       margin="0"
       bleed="0" />
  </sodipodi:namedview>
  <g
     id="g1"
     inkscape:groupmode="layer"
     inkscape:label="1">
    <g
       id="group-R5">
      <path
         id="path2"
         d="m 1584.06,100.27 c 0,7.519 -1.08,14 -3.31,19.3 -2.16,5.391 -5.19,9.539 -9.1,12.469 -3.89,2.84 -8.18,4.301 -12.91,4.301 -7.5,0 -13.84,-3.16 -18.99,-9.289 -5.16,-6.211 -7.74,-15.262 -7.74,-27.2619 0,-11.3203 2.58,-20.1094 7.66,-26.3086 5.15,-6.3086 11.52,-9.4688 19.07,-9.4688 4.5,0 8.73,1.3672 12.59,4.1485 3.8,2.7304 6.9,6.832 9.24,12.2617 2.35,5.5273 3.49,12.0976 3.49,19.8481 z m -53.31,41.371 v -3.411 c 5.1,6.54 10.39,11.442 15.9,14.481 5.53,3.098 11.82,4.668 18.8,4.668 8.35,0 16.06,-2.27 23.1,-6.777 7.03,-4.512 12.59,-11.063 16.7,-19.77 4.08,-8.68 6.09,-18.91 6.09,-30.781 0,-8.7112 -1.14,-16.8322 -3.5,-24.0393 -2.35,-7.3203 -5.6,-13.5117 -9.71,-18.4492 -4.12,-4.9531 -9.02,-8.793 -14.59,-11.4219 -5.65,-2.7187 -11.7,-4.0312 -18.09,-4.0312 -7.81,0 -14.34,1.6211 -19.62,4.8906 -5.33,3.25 -10.33,8 -15.08,14.3203 V 18.7188 C 1530.75,6.21875 1526.39,0 1517.69,0 c -5.12,0 -8.53,1.60156 -10.14,4.80078 -1.68,3.23828 -2.5,7.94922 -2.5,14.10152 V 141.461 c 0,5.398 1.09,9.449 3.37,12.109 2.3,2.649 5.37,4.012 9.27,4.012 3.85,0 6.99,-1.363 9.41,-4.141 2.42,-2.75 3.65,-6.699 3.65,-11.8"
         style="fill:#100f0d;fill-opacity:1;fill-rule:nonzero;stroke:none"
         transform="matrix(0.13333333,0,0,-0.13333333,0,739.97333)" />
      <path
         id="path3"
         d="M 1703.88,58.1719 V 61.75 c -3.27,-4.2812 -6.68,-7.8711 -10.28,-10.7695 -3.59,-2.961 -7.51,-5.1094 -11.74,-6.5 -4.29,-1.418 -9.13,-2.1407 -14.58,-2.1407 -6.54,0 -12.44,1.4297 -17.67,4.25 -5.22,2.8321 -9.27,6.7618 -12.08,11.7422 -3.44,6.0391 -5.09,14.7071 -5.09,25.9688 V 140.57 c 0,5.649 1.22,9.922 3.69,12.719 2.46,2.801 5.7,4.211 9.73,4.211 4.14,0 7.44,-1.41 9.98,-4.281 2.53,-2.848 3.77,-7.078 3.77,-12.649 V 95.0898 c 0,-6.5312 0.53,-12.0781 1.56,-16.5078 1.12,-4.4922 3.02,-7.9922 5.8,-10.5625 2.7,-2.4882 6.46,-3.7578 11.17,-3.7578 4.63,0 8.94,1.4375 12.96,4.2696 4.09,2.8085 7.05,6.5078 8.89,11.0898 1.53,4.0273 2.29,12.8281 2.29,26.4099 v 34.539 c 0,5.571 1.26,9.801 3.8,12.649 2.5,2.871 5.75,4.281 9.83,4.281 4.06,0 7.31,-1.41 9.77,-4.211 2.43,-2.797 3.64,-7.07 3.64,-12.719 V 58.332 c 0,-5.4023 -1.13,-9.4726 -3.49,-12.1406 -2.34,-2.7422 -5.38,-4.0625 -9.11,-4.0625 -3.71,0 -6.76,1.4414 -9.21,4.1719 -2.42,2.8515 -3.63,6.7383 -3.63,11.8711"
         style="fill:#100f0d;fill-opacity:1;fill-rule:nonzero;stroke:none"
         transform="matrix(0.13333333,0,0,-0.13333333,0,739.97333)" />
      <path
         id="path4"
         d="m 1782.78,99.1406 c 0,-11.2812 2.46,-19.9297 7.39,-26.0195 4.97,-6.0391 11.47,-9.1094 19.52,-9.1094 6.85,0 12.7,3.1172 17.69,9.3086 4.97,6.2305 7.45,15.0586 7.45,26.6485 0,7.5702 -1.04,13.9802 -3.11,19.3712 -2.08,5.441 -5.02,9.621 -8.76,12.539 -3.84,2.941 -8.2,4.461 -13.27,4.461 -5.23,0 -9.77,-1.52 -13.86,-4.461 -4.08,-2.918 -7.24,-7.207 -9.58,-12.797 -2.33,-5.543 -3.47,-12.16 -3.47,-19.9414 z m -1.29,84.3904 v -43.39 c 5.05,5.601 10.3,9.8 15.6,12.808 5.33,2.93 11.93,4.43 19.75,4.43 9.04,0 16.95,-2.27 23.76,-6.688 6.8,-4.55 12.11,-10.992 15.85,-19.48 3.78,-8.481 5.63,-18.559 5.63,-30.199 0,-8.6136 -1.03,-16.4807 -3.1,-23.7112 -2.1,-7.1406 -5.11,-13.332 -9.12,-18.6602 -4.02,-5.2383 -8.86,-9.2695 -14.51,-12.25 -5.71,-2.8203 -11.97,-4.2812 -18.8,-4.2812 -4.15,0 -8.12,0.5312 -11.83,1.5508 -3.68,1.0507 -6.84,2.4101 -9.37,4.1601 -2.63,1.6016 -4.84,3.4102 -6.67,5.1719 -1.81,1.8398 -4.21,4.5078 -7.19,8.1172 V 58.332 c 0,-5.3632 -1.26,-9.3906 -3.72,-12.1406 -2.42,-2.7422 -5.6,-4.082 -9.34,-4.082 -3.88,0 -6.93,1.3398 -9.26,4.082 -2.26,2.8086 -3.4,6.8008 -3.4,12.1406 v 123.969 c 0,5.711 1.1,10.07 3.36,13.008 2.21,2.961 5.28,4.421 9.3,4.421 4.16,0 7.4,-1.398 9.63,-4.23 2.28,-2.781 3.43,-6.758 3.43,-11.969"
         style="fill:#100f0d;fill-opacity:1;fill-rule:nonzero;stroke:none"
         transform="matrix(0.13333333,0,0,-0.13333333,0,739.97333)" />
      <path
         id="path5"
         d="M 1881.28,59.3906 V 182.469 c 0,5.722 1.21,9.992 3.6,12.91 2.47,2.891 5.73,4.351 9.85,4.351 4.12,0 7.42,-1.421 9.96,-4.308 2.48,-2.859 3.8,-7.211 3.8,-12.953 V 59.3906 c 0,-5.7617 -1.32,-10.1015 -3.87,-13 -2.54,-2.8203 -5.85,-4.2812 -9.89,-4.2812 -3.99,0 -7.19,1.5 -9.7,4.4804 -2.5,2.9805 -3.75,7.2305 -3.75,12.8008"
         style="fill:#100f0d;fill-opacity:1;fill-rule:nonzero;stroke:none"
         transform="matrix(0.13333333,0,0,-0.13333333,0,739.97333)" />
      <path
         id="path6"
         d="M 1963.75,141.379 V 59.3906 c 0,-5.7187 -1.32,-10.0195 -3.85,-12.9297 -2.61,-2.8515 -5.92,-4.3515 -9.87,-4.3515 -4,0 -7.25,1.5 -9.72,4.4492 -2.47,3.0117 -3.76,7.2617 -3.76,12.832 V 140.57 c 0,5.571 1.29,9.801 3.76,12.649 2.47,2.871 5.72,4.281 9.72,4.281 3.95,0 7.26,-1.41 9.87,-4.281 2.53,-2.848 3.85,-6.778 3.85,-11.84 z m -13.45,29.351 c -3.79,0 -6.99,1.211 -9.75,3.7 -2.62,2.41 -4,5.871 -4,10.32 0,3.992 1.38,7.281 4.15,9.922 2.76,2.609 5.95,3.828 9.6,3.828 3.52,0 6.66,-1.141 9.37,-3.488 2.71,-2.352 4.08,-5.821 4.08,-10.262 0,-4.41 -1.33,-7.82 -3.99,-10.238 -2.67,-2.461 -5.78,-3.782 -9.46,-3.782"
         style="fill:#100f0d;fill-opacity:1;fill-rule:nonzero;stroke:none"
         transform="matrix(0.13333333,0,0,-0.13333333,0,739.97333)" />
      <path
         id="path7"
         d="m 2089.28,77.2617 c 0,-3.5195 -1,-7.3125 -3.02,-11.3398 -2.05,-4.0117 -5.13,-7.8203 -9.3,-11.4727 -4.12,-3.6289 -9.36,-6.5586 -15.67,-8.75 -6.3,-2.2773 -13.43,-3.3594 -21.31,-3.3594 -16.82,0 -29.93,5.129 -39.37,15.3321 -9.41,10.2187 -14.14,23.8984 -14.14,41.0976 0,11.6405 2.15,21.9725 6.45,30.8825 4.31,8.887 10.61,15.86 18.75,20.719 8.14,4.918 17.94,7.359 29.26,7.359 7.07,0 13.54,-1.101 19.42,-3.218 5.87,-2.172 10.85,-4.961 14.93,-8.313 4.09,-3.41 7.2,-7.047 9.37,-10.859 2.18,-3.84 3.23,-7.449 3.23,-10.781 0,-3.34 -1.23,-6.227 -3.63,-8.598 -2.44,-2.379 -5.34,-3.539 -8.81,-3.539 -2.28,0 -4.13,0.648 -5.66,1.859 -1.45,1.168 -3.14,3.078 -5.02,5.84 -3.3,5.25 -6.8,9.231 -10.41,11.918 -3.63,2.602 -8.23,3.953 -13.76,3.953 -8.09,0 -14.56,-3.332 -19.46,-9.871 -4.93,-6.582 -7.36,-15.539 -7.36,-26.9101 0,-5.3007 0.63,-10.2695 1.91,-14.6992 1.25,-4.5 3.07,-8.2929 5.45,-11.4726 2.4,-3.1485 5.26,-5.5274 8.66,-7.1602 3.39,-1.6601 7.12,-2.4492 11.14,-2.4492 5.49,0 10.13,1.2891 14.02,3.9297 3.9,2.6601 7.34,6.6914 10.31,12.0312 1.67,3.2696 3.46,5.7383 5.39,7.5703 1.95,1.8008 4.31,2.6602 7.09,2.6602 3.31,0 6.07,-1.2813 8.29,-3.9102 2.14,-2.6992 3.25,-5.4726 3.25,-8.4492"
         style="fill:#100f0d;fill-opacity:1;fill-rule:nonzero;stroke:none"
         transform="matrix(0.13333333,0,0,-0.13333333,0,739.97333)" />
      <path
         id="path8"
         d="m 2134.08,99.9688 c 0,-7.6875 1.14,-14.1875 3.42,-19.629 2.31,-5.4179 5.41,-9.4492 9.39,-12.1796 4.01,-2.7813 8.37,-4.1485 13.04,-4.1485 4.8,0 9.16,1.3281 13.1,3.8789 3.98,2.6211 7.09,6.6407 9.48,12 2.37,5.3477 3.53,12.0782 3.53,20.0782 0,7.6132 -1.16,14.0702 -3.53,19.5432 -2.39,5.449 -5.55,9.597 -9.56,12.527 -4.02,2.84 -8.4,4.301 -13.18,4.301 -4.97,0 -9.41,-1.52 -13.35,-4.461 -3.89,-2.918 -6.97,-7.199 -9.12,-12.707 -2.13,-5.524 -3.22,-11.863 -3.22,-19.2032 z m 53.46,-41.6368 v 2.7774 c -3.66,-4.3672 -7.26,-7.9102 -10.86,-10.6094 -3.49,-2.7695 -7.36,-4.8398 -11.51,-6.2695 -4.14,-1.3789 -8.68,-2.1211 -13.58,-2.1211 -6.5,0 -12.57,1.4609 -18.09,4.2812 -5.53,2.9805 -10.32,7.0313 -14.38,12.3594 -4.04,5.3516 -7.11,11.6211 -9.22,18.8516 -2.12,7.1797 -3.14,14.9804 -3.14,23.4104 0,17.699 4.16,31.59 12.46,41.5 8.32,9.918 19.23,14.867 32.76,14.867 7.83,0 14.45,-1.43 19.82,-4.289 5.37,-2.758 10.63,-7.078 15.74,-12.949 v 41.91 c 0,5.84 1.1,10.238 3.34,13.211 2.22,3 5.36,4.468 9.49,4.468 4.11,0 7.28,-1.378 9.53,-4.082 2.21,-2.726 3.36,-6.777 3.36,-12.117 V 58.332 c 0,-5.4023 -1.21,-9.4726 -3.61,-12.1406 -2.4,-2.7422 -5.46,-4.082 -9.28,-4.082 -3.68,0 -6.79,1.4023 -9.22,4.1914 -2.4,2.8086 -3.61,6.7812 -3.61,12.0312"
         style="fill:#100f0d;fill-opacity:1;fill-rule:nonzero;stroke:none"
         transform="matrix(0.13333333,0,0,-0.13333333,0,739.97333)" />
      <path
         id="path9"
         d="m 2315.07,99.75 c 0,11.531 -2.48,20.582 -7.34,27.02 -4.88,6.41 -11.46,9.66 -19.68,9.66 -5.34,0 -10,-1.45 -14.06,-4.321 -4.04,-2.918 -7.15,-7.148 -9.35,-12.769 -2.18,-5.559 -3.3,-12.07 -3.3,-19.59 0,-7.4297 1.12,-13.8906 3.24,-19.4102 2.15,-5.5507 5.25,-9.8007 9.3,-12.75 4,-2.9375 8.76,-4.3789 14.17,-4.3789 8.22,0 14.8,3.211 19.68,9.6797 4.86,6.461 7.34,15.4492 7.34,26.8594 z m 27.28,0 c 0,-8.4102 -1.28,-16.2109 -3.79,-23.3984 -2.52,-7.0821 -6.17,-13.2305 -10.92,-18.3828 -4.82,-5.129 -10.53,-8.9688 -17.16,-11.7774 -6.64,-2.7422 -14.17,-4.082 -22.43,-4.082 -8.22,0 -15.64,1.3398 -22.19,4.1523 -6.58,2.7696 -12.31,6.7305 -17.12,11.9102 -4.79,5.1679 -8.43,11.2265 -10.96,18.2578 -2.48,7.082 -3.72,14.8125 -3.72,23.3711 0,8.5902 1.28,16.4492 3.77,23.5582 2.53,7.18 6.13,13.243 10.86,18.332 4.72,5.051 10.42,8.95 17.17,11.68 6.72,2.75 14.08,4.129 22.19,4.129 8.25,0 15.72,-1.379 22.43,-4.168 6.68,-2.762 12.43,-6.75 17.21,-11.871 4.81,-5.121 8.43,-11.262 10.87,-18.332 2.55,-7.047 3.79,-14.848 3.79,-23.379"
         style="fill:#100f0d;fill-opacity:1;fill-rule:nonzero;stroke:none"
         transform="matrix(0.13333333,0,0,-0.13333333,0,739.97333)" />
      <path
         id="path10"
         d="m 2457.21,123.199 c -2.04,-4.797 -3.01,-13.258 -3.01,-25.4607 V 60.0195 c 0,-5.9297 -1.27,-10.4492 -3.89,-13.4297 -2.58,-2.9804 -6.04,-4.4804 -10.29,-4.4804 -4.08,0 -7.41,1.5 -9.95,4.4804 -2.56,2.9805 -3.81,7.5 -3.81,13.4297 v 45.2815 c 0,7.121 -0.27,12.64 -0.74,16.648 -0.47,3.903 -1.72,7.172 -3.78,9.703 -2.02,2.547 -5.29,3.809 -9.72,3.809 -8.9,0 -14.75,-3.191 -17.6,-9.609 -2.84,-6.34 -4.19,-15.5 -4.19,-27.4497 V 60.0195 c 0,-5.9179 -1.31,-10.3906 -3.83,-13.3398 -2.59,-3.0703 -5.96,-4.5703 -10.09,-4.5703 -4.15,0 -7.56,1.5 -10.16,4.5703 -2.65,2.9492 -3.89,7.4219 -3.89,13.332 v 81.2073 c 0,5.363 1.12,9.422 3.45,12.183 2.4,2.758 5.5,4.18 9.38,4.18 3.71,0 6.82,-1.293 9.29,-3.891 2.49,-2.589 3.73,-6.171 3.73,-10.761 v -2.692 c 4.7,5.903 9.77,10.242 15.12,12.981 5.37,2.773 11.42,4.16 17.94,4.16 6.82,0 12.68,-1.43 17.59,-4.289 4.94,-2.809 8.97,-7.121 12.14,-12.852 4.59,5.774 9.51,10.133 14.77,12.934 5.25,2.82 11.05,4.207 17.4,4.207 7.5,0 13.89,-1.5 19.22,-4.59 5.41,-3.047 9.41,-7.41 12.08,-13.09 2.34,-5.14 3.48,-13.199 3.48,-24.25 V 60.0195 c 0,-5.9297 -1.29,-10.4492 -3.84,-13.4297 -2.65,-2.9804 -6.03,-4.4804 -10.29,-4.4804 -4.13,0 -7.49,1.5 -10.1,4.5703 -2.65,2.9492 -3.97,7.4219 -3.97,13.3398 v 47.7695 c 0,6.102 -0.24,10.973 -0.72,14.66 -0.51,3.711 -1.86,6.742 -4.07,9.25 -2.18,2.5 -5.52,3.762 -9.93,3.762 -3.58,0 -7.01,-1.121 -10.17,-3.289 -3.28,-2.242 -5.72,-5.223 -7.55,-8.973 v 0"
         style="fill:#100f0d;fill-opacity:1;fill-rule:nonzero;stroke:none"
         transform="matrix(0.13333333,0,0,-0.13333333,0,739.97333)" />
      <path
         id="path11"
         d="m 2611.23,99.2109 c -4.01,-1.5586 -9.81,-3.1211 -17.41,-4.8515 -7.61,-1.6992 -12.88,-2.9375 -15.8,-3.75 -2.93,-0.8203 -5.73,-2.3594 -8.34,-4.6602 -2.69,-2.3906 -4.03,-5.6094 -4.03,-9.7695 0,-4.3399 1.59,-7.9609 4.67,-10.9883 3.15,-3.0625 7.24,-4.5312 12.29,-4.5312 5.37,0 10.36,1.25 14.89,3.7109 4.55,2.4414 7.92,5.6484 10,9.5 2.47,4.3203 3.73,11.3672 3.73,21.3008 z m 1.76,-41.1093 c -6.59,-5.3516 -12.94,-9.3321 -19.08,-11.961 -6.12,-2.7187 -13.05,-4.0312 -20.65,-4.0312 -7.02,0 -13.09,1.4609 -18.41,4.2812 -5.31,2.8985 -9.34,6.8086 -12.21,11.7813 -2.83,4.9101 -4.29,10.1875 -4.29,15.9804 0,7.7696 2.42,14.3594 7.12,19.8477 4.67,5.4492 11.14,9.129 19.37,11.012 1.73,0.418 6.04,1.32 12.84,2.777 6.91,1.492 12.72,2.793 17.67,4 4.84,1.191 10.16,2.68 15.88,4.402 -0.36,7.52 -1.79,13 -4.33,16.579 -2.59,3.46 -7.93,5.171 -15.91,5.171 -6.95,0 -12.11,-0.972 -15.65,-2.98 -3.46,-1.992 -6.47,-5.031 -8.92,-9.109 -2.53,-3.993 -4.25,-6.661 -5.28,-7.922 -1.06,-1.309 -3.28,-1.891 -6.61,-1.891 -3.1,0 -5.72,1.012 -7.92,3.031 -2.25,2.059 -3.36,4.641 -3.36,7.879 0,4.973 1.7,9.864 5.07,14.512 3.39,4.738 8.68,8.602 15.84,11.711 7.17,3.047 16.13,4.558 26.83,4.558 11.92,0 21.33,-1.511 28.22,-4.441 6.82,-2.918 11.6,-7.547 14.45,-13.976 2.84,-6.344 4.24,-14.833 4.24,-25.364 0,-6.64 0,-12.328 -0.04,-16.9373 -0.05,-4.6914 -0.08,-9.8398 -0.15,-15.5234 0,-5.3086 0.84,-10.8985 2.56,-16.6563 1.65,-5.7929 2.49,-9.5312 2.49,-11.1601 0,-2.9219 -1.32,-5.5899 -3.93,-7.9727 -2.57,-2.3906 -5.58,-3.5898 -8.87,-3.5898 -2.84,0 -5.54,1.3398 -8.3,4.082 -2.72,2.75 -5.61,6.7383 -8.67,11.9102"
         style="fill:#100f0d;fill-opacity:1;fill-rule:nonzero;stroke:none"
         transform="matrix(0.13333333,0,0,-0.13333333,0,739.97333)" />
      <path
         id="path12"
         d="M 2692.72,141.379 V 59.3906 c 0,-5.7187 -1.3,-10.0195 -3.85,-12.9297 -2.59,-2.8515 -5.85,-4.3515 -9.85,-4.3515 -3.98,0 -7.26,1.5 -9.71,4.4492 -2.53,3.0117 -3.78,7.2617 -3.78,12.832 V 140.57 c 0,5.571 1.25,9.801 3.78,12.649 2.45,2.871 5.73,4.281 9.71,4.281 4,0 7.26,-1.41 9.85,-4.281 2.55,-2.848 3.85,-6.778 3.85,-11.84 z m -13.44,29.351 c -3.74,0 -6.97,1.211 -9.66,3.7 -2.69,2.41 -4.09,5.871 -4.09,10.32 0,3.992 1.41,7.281 4.18,9.922 2.73,2.609 5.96,3.828 9.57,3.828 3.54,0 6.69,-1.141 9.42,-3.488 2.68,-2.352 4.02,-5.821 4.02,-10.262 0,-4.41 -1.3,-7.82 -3.97,-10.238 -2.66,-2.461 -5.81,-3.782 -9.47,-3.782"
         style="fill:#100f0d;fill-opacity:1;fill-rule:nonzero;stroke:none"
         transform="matrix(0.13333333,0,0,-0.13333333,0,739.97333)" />
      <path
         id="path13"
         d="m 2745.58,141.789 v -3.387 c 4.75,6.567 9.97,11.399 15.61,14.477 5.69,3.07 12.23,4.621 19.63,4.621 7.13,0 13.57,-1.621 19.26,-4.91 5.58,-3.238 9.83,-7.82 12.59,-13.758 1.81,-3.492 2.94,-7.273 3.51,-11.281 0.49,-3.969 0.8,-9.11 0.8,-15.371 V 59.3906 c 0,-5.7187 -1.29,-10.0195 -3.76,-12.9297 -2.5,-2.8515 -5.74,-4.3515 -9.7,-4.3515 -4.05,0 -7.36,1.5 -9.78,4.4804 -2.56,2.9805 -3.86,7.2305 -3.86,12.8008 v 47.2614 c 0,9.407 -1.21,16.547 -3.69,21.489 -2.54,4.949 -7.52,7.468 -14.96,7.468 -4.83,0 -9.24,-1.527 -13.22,-4.558 -3.98,-2.981 -6.9,-7.141 -8.75,-12.422 -1.34,-4.231 -2.03,-12.09 -2.03,-23.7384 v -35.5 c 0,-5.7617 -1.25,-10.1015 -3.83,-13 -2.57,-2.8203 -5.87,-4.2812 -9.9,-4.2812 -3.89,0 -7.14,1.5 -9.65,4.4492 -2.57,3.0117 -3.8,7.2617 -3.8,12.832 v 81.9884 c 0,5.434 1.11,9.422 3.41,12.101 2.2,2.68 5.37,4.02 9.26,4.02 2.35,0 4.55,-0.629 6.44,-1.758 1.98,-1.172 3.47,-2.992 4.64,-5.262 1.13,-2.41 1.78,-5.289 1.78,-8.691"
         style="fill:#100f0d;fill-opacity:1;fill-rule:nonzero;stroke:none"
         transform="matrix(0.13333333,0,0,-0.13333333,0,739.97333)" />
      <path
         id="path14"
         d="m 2860.63,139.84 21.96,-64.4494 23.72,67.2614 c 1.88,5.418 3.7,9.2 5.52,11.469 1.82,2.238 4.5,3.379 8.13,3.379 3.46,0 6.39,-1.211 8.87,-3.68 2.37,-2.398 3.59,-5.16 3.59,-8.441 0,-1.219 -0.23,-2.649 -0.66,-4.27 -0.39,-1.699 -0.89,-3.257 -1.49,-4.757 -0.56,-1.391 -1.15,-3.082 -1.94,-4.942 l -26.08,-67.5702 c -0.74,-1.9296 -1.7,-4.4179 -2.84,-7.4101 -1.18,-2.9688 -2.5,-5.4609 -3.88,-7.6602 -1.47,-2.0898 -3.21,-3.6875 -5.28,-4.8789 -2.12,-1.1797 -4.67,-1.7812 -7.66,-1.7812 -3.85,0 -6.91,0.9101 -9.23,2.7226 -2.29,1.8477 -3.98,3.8399 -5.07,6.0703 -1.07,2.1368 -2.96,6.4883 -5.52,12.9375 l -25.92,66.8402 c -0.6,1.629 -1.24,3.308 -1.89,4.98 -0.59,1.66 -1.08,3.32 -1.55,5.09 -0.42,1.762 -0.67,3.25 -0.67,4.441 0,1.981 0.57,3.899 1.72,5.801 1.14,1.918 2.7,3.5 4.68,4.68 2.02,1.199 4.13,1.828 6.5,1.828 4.48,0 7.59,-1.34 9.3,-4.098 1.7,-2.672 3.6,-7.203 5.69,-13.562"
         style="fill:#100f0d;fill-opacity:1;fill-rule:nonzero;stroke:none"
         transform="matrix(0.13333333,0,0,-0.13333333,0,739.97333)" />
      <path
         id="path15"
         d="m 2971.86,109.02 h 49.28 c -0.62,9.671 -3.11,16.921 -7.5,21.722 -4.36,4.789 -10.1,7.199 -17.21,7.199 -6.73,0 -12.32,-2.441 -16.64,-7.3 -4.35,-4.86 -6.96,-12.09 -7.93,-21.621 z m 53.2,-16.1489 h -53.2 c 0.01,-6.4688 1.3,-12.1406 3.69,-17.1016 2.46,-4.8789 5.66,-8.5976 9.69,-11.1172 4.01,-2.5234 8.46,-3.7226 13.31,-3.7226 3.25,0 6.25,0.3906 8.9,1.1601 2.68,0.8399 5.31,2.0821 7.86,3.75 2.48,1.711 4.79,3.4805 6.94,5.5 2.1,1.9415 4.93,4.5196 8.27,7.8711 1.4,1.3086 3.42,1.8985 5.96,1.8985 2.85,0 5.07,-0.7696 6.81,-2.4102 1.73,-1.5976 2.54,-3.8203 2.54,-6.7304 0,-2.5704 -0.94,-5.5665 -2.88,-9.0391 -1.91,-3.3789 -4.76,-6.6992 -8.71,-9.8906 -3.9,-3.1172 -8.77,-5.6875 -14.65,-7.8282 -5.85,-2.0703 -12.58,-3.1015 -20.28,-3.1015 -17.43,0 -31.04,5.2422 -40.7,15.582 -9.68,10.4492 -14.51,24.5078 -14.51,42.2774 0,8.5002 1.23,16.2222 3.57,23.3712 2.39,7.199 5.86,13.332 10.46,18.449 4.58,5.16 10.19,9.121 16.92,11.82 6.74,2.75 14.14,4.121 22.34,4.121 10.55,0 19.7,-2.339 27.3,-7.039 7.62,-4.679 13.31,-10.691 17.09,-18.089 3.79,-7.461 5.68,-14.981 5.68,-22.731 0,-7.082 -1.9,-11.7108 -5.86,-13.8124 -3.95,-2.1484 -9.43,-3.1875 -16.54,-3.1875"
         style="fill:#100f0d;fill-opacity:1;fill-rule:nonzero;stroke:none"
         transform="matrix(0.13333333,0,0,-0.13333333,0,739.97333)" />
      <path
         id="path16"
         d="m 3167.94,77.2617 c 0,-3.5195 -1.01,-7.3125 -3.08,-11.3398 -2.03,-4.0117 -5.06,-7.8203 -9.24,-11.4727 -4.14,-3.6289 -9.41,-6.5586 -15.74,-8.75 -6.27,-2.2773 -13.42,-3.3594 -21.25,-3.3594 -16.86,0 -29.97,5.129 -39.38,15.3321 -9.41,10.2187 -14.15,23.8984 -14.15,41.0976 0,11.6405 2.14,21.9725 6.49,30.8825 4.33,8.887 10.51,15.86 18.71,20.719 8.14,4.918 17.93,7.359 29.31,7.359 7.03,0 13.47,-1.101 19.39,-3.218 5.86,-2.172 10.8,-4.961 14.95,-8.313 4.08,-3.41 7.16,-7.047 9.35,-10.859 2.14,-3.84 3.21,-7.449 3.21,-10.781 0,-3.34 -1.18,-6.227 -3.68,-8.598 -2.39,-2.379 -5.32,-3.539 -8.78,-3.539 -2.25,0 -4.13,0.648 -5.59,1.859 -1.53,1.168 -3.19,3.078 -5.07,5.84 -3.32,5.25 -6.77,9.231 -10.39,11.918 -3.62,2.602 -8.22,3.953 -13.82,3.953 -7.99,0 -14.48,-3.332 -19.39,-9.871 -4.97,-6.582 -7.41,-15.539 -7.41,-26.9101 0,-5.3007 0.68,-10.2695 1.89,-14.6992 1.27,-4.5 3.11,-8.2929 5.52,-11.4726 2.38,-3.1485 5.29,-5.5274 8.67,-7.1602 3.33,-1.6601 7.07,-2.4492 11.15,-2.4492 5.43,0 10.12,1.2891 14,3.9297 3.87,2.6601 7.34,6.6914 10.33,12.0312 1.67,3.2696 3.42,5.7383 5.38,7.5703 1.9,1.8008 4.22,2.6602 7.07,2.6602 3.27,0 6.07,-1.2813 8.18,-3.9102 2.25,-2.6992 3.37,-5.4726 3.37,-8.4492"
         style="fill:#100f0d;fill-opacity:1;fill-rule:nonzero;stroke:none"
         transform="matrix(0.13333333,0,0,-0.13333333,0,739.97333)" />
      <path
         id="path17"
         d="m 3193.19,155.109 h 2.99 v 17.063 c 0,4.539 0.13,8.168 0.37,10.75 0.23,2.609 0.82,4.789 1.95,6.699 1.02,1.91 2.55,3.5 4.59,4.738 1.97,1.18 4.19,1.762 6.65,1.762 3.43,0 6.57,-1.332 9.34,-4.019 1.82,-1.821 3.03,-3.993 3.53,-6.571 0.51,-2.609 0.73,-6.351 0.73,-11.101 v -19.321 h 10 c 3.85,0 6.8,-0.968 8.82,-2.867 2.06,-1.91 3.05,-4.332 3.05,-7.312 0,-3.821 -1.44,-6.528 -4.37,-8.02 -2.87,-1.5 -7.01,-2.269 -12.38,-2.269 h -5.12 V 82.3711 c 0,-4.4609 0.17,-7.8711 0.45,-10.3008 0.35,-2.3984 1.19,-4.3398 2.45,-5.789 1.26,-1.5 3.37,-2.2696 6.32,-2.2696 1.58,0 3.73,0.2696 6.48,0.8985 2.66,0.5703 4.8,0.8789 6.35,0.8789 2.18,0 4.22,-0.9571 5.95,-2.7071 1.72,-1.8906 2.62,-4.1211 2.62,-6.8515 0,-4.5508 -2.34,-8.0508 -7.15,-10.4805 -4.84,-2.4414 -11.69,-3.6406 -20.62,-3.6406 -8.5,0 -14.97,1.5 -19.35,4.4804 -4.36,2.9805 -7.28,7.0821 -8.59,12.4102 -1.39,5.2617 -2.07,12.2891 -2.07,21.0898 v 54.5512 h -3.61 c -3.85,0 -6.85,0.968 -8.93,2.922 -2.07,1.937 -3.07,4.367 -3.07,7.367 0,2.98 1.05,5.402 3.19,7.312 2.19,1.899 5.3,2.867 9.43,2.867"
         style="fill:#100f0d;fill-opacity:1;fill-rule:nonzero;stroke:none"
         transform="matrix(0.13333333,0,0,-0.13333333,0,739.97333)" />
      <path
         id="path18"
         d="m 3338.39,99.75 c 0,11.531 -2.46,20.582 -7.32,27.02 -4.93,6.41 -11.42,9.66 -19.68,9.66 -5.34,0 -10,-1.45 -14.03,-4.321 -4.08,-2.918 -7.19,-7.148 -9.37,-12.769 -2.19,-5.559 -3.31,-12.07 -3.31,-19.59 0,-7.4297 1.12,-13.8906 3.27,-19.4102 2.15,-5.5507 5.21,-9.8007 9.23,-12.75 4,-2.9375 8.75,-4.3789 14.21,-4.3789 8.26,0 14.75,3.211 19.68,9.6797 4.86,6.461 7.32,15.4492 7.32,26.8594 z m 27.3,0 c 0,-8.4102 -1.25,-16.2109 -3.81,-23.3984 -2.5,-7.0821 -6.18,-13.2305 -10.93,-18.3828 -4.8,-5.129 -10.52,-8.9688 -17.13,-11.7774 -6.67,-2.7422 -14.09,-4.082 -22.43,-4.082 -8.27,0 -15.69,1.3398 -22.23,4.1523 -6.56,2.7696 -12.28,6.7305 -17.09,11.9102 -4.79,5.1679 -8.46,11.2265 -10.91,18.2578 -2.48,7.082 -3.7,14.8125 -3.7,23.3711 0,8.5902 1.22,16.4492 3.7,23.5582 2.58,7.18 6.15,13.243 10.86,18.332 4.76,5.051 10.45,8.95 17.14,11.68 6.78,2.75 14.16,4.129 22.23,4.129 8.26,0 15.69,-1.379 22.43,-4.168 6.7,-2.762 12.42,-6.75 17.22,-11.871 4.72,-5.121 8.43,-11.262 10.91,-18.332 2.49,-7.047 3.74,-14.848 3.74,-23.379"
         style="fill:#100f0d;fill-opacity:1;fill-rule:nonzero;stroke:none"
         transform="matrix(0.13333333,0,0,-0.13333333,0,739.97333)" />
      <path
         id="path19"
         d="M 3414.14,83.0117 V 59.3906 c 0,-5.7617 -1.31,-10.1015 -3.91,-13 -2.59,-2.8203 -5.86,-4.2812 -9.89,-4.2812 -3.87,0 -7.12,1.5 -9.63,4.3515 -2.52,2.9102 -3.76,7.211 -3.76,12.9297 v 78.9884 c 0,12.769 4.4,19.121 13.24,19.121 4.47,0 7.74,-1.508 9.77,-4.461 1.95,-2.976 3.01,-7.391 3.27,-13.199 3.23,5.808 6.61,10.223 10.04,13.199 3.42,2.953 7.96,4.461 13.64,4.461 5.77,0 11.28,-1.508 16.68,-4.461 5.36,-2.976 8.08,-6.949 8.08,-11.848 0,-3.461 -1.18,-6.371 -3.47,-8.589 -2.26,-2.231 -4.74,-3.411 -7.44,-3.411 -0.97,0 -3.4,0.668 -7.21,1.981 -3.84,1.258 -7.21,1.918 -10.15,1.918 -3.94,0 -7.19,-1.051 -9.69,-3.289 -2.54,-2.219 -4.51,-5.41 -5.9,-9.699 -1.39,-4.34 -2.4,-9.43 -2.9,-15.391 -0.51,-5.8907 -0.77,-13.0899 -0.77,-21.6993"
         style="fill:#100f0d;fill-opacity:1;fill-rule:nonzero;stroke:none"
         transform="matrix(0.13333333,0,0,-0.13333333,0,739.97333)" />
      <path
         id="path20"
         d="m 3558.99,79.1914 c 0,-7.8516 -1.82,-14.5391 -5.51,-20.1211 -3.68,-5.6094 -9.06,-9.7812 -16.2,-12.6914 -7.17,-2.8086 -15.82,-4.2695 -26.11,-4.2695 -9.68,0 -18.09,1.5508 -25.09,4.7031 -6.97,3.1094 -12.12,6.9766 -15.42,11.6484 -3.36,4.6602 -5.06,9.3594 -5.06,14.0508 0,3.1172 1.09,5.7891 3.27,8.0078 2.11,2.2696 4.81,3.3203 8.02,3.3203 2.88,0 5.1,-0.7382 6.62,-2.1484 1.52,-1.5391 2.95,-3.543 4.38,-6.1797 2.78,-5.0703 6.1,-8.8515 10.05,-11.3398 3.82,-2.5313 9.12,-3.7696 15.89,-3.7696 5.42,0 9.89,1.2891 13.39,3.8165 3.46,2.5312 5.26,5.4101 5.26,8.6718 0,5.0196 -1.84,8.6797 -5.43,10.9414 -3.67,2.3399 -9.6,4.5078 -17.9,6.5703 -9.36,2.4375 -17,4.9766 -22.89,7.629 -5.87,2.6877 -10.63,6.2307 -14.11,10.5977 -3.53,4.293 -5.31,9.703 -5.31,16.082 0,5.719 1.64,11.09 4.9,16.121 3.23,5.07 8.1,9.098 14.42,12.117 6.33,3.043 13.98,4.551 22.99,4.551 7,0 13.33,-0.781 18.98,-2.301 5.59,-1.508 10.34,-3.578 14.03,-6.109 3.75,-2.578 6.64,-5.418 8.58,-8.52 1.99,-3.148 2.96,-6.199 2.96,-9.16 0,-3.269 -1.02,-5.879 -3.16,-8.051 -2.1,-2 -5.1,-3.05 -8.89,-3.05 -2.82,0 -5.19,0.82 -7.19,2.523 -1.91,1.637 -4.19,4.117 -6.7,7.398 -2.06,2.782 -4.46,5.02 -7.28,6.68 -2.79,1.629 -6.57,2.5 -11.33,2.5 -4.93,0 -9.05,-1.09 -12.25,-3.289 -3.28,-2.172 -4.92,-4.91 -4.92,-8.172 0,-2.988 1.21,-5.429 3.57,-7.328 2.42,-1.91 5.62,-3.492 9.69,-4.75 4.09,-1.25 9.64,-2.801 16.75,-4.59 8.46,-2.14 15.32,-4.672 20.69,-7.679 5.34,-2.954 9.38,-6.4926 12.13,-10.5395 2.81,-4.0937 4.18,-8.7109 4.18,-13.8711"
         style="fill:#100f0d;fill-opacity:1;fill-rule:nonzero;stroke:none"
         transform="matrix(0.13333333,0,0,-0.13333333,0,739.97333)" />
      <path
         id="path21"
         d="m 3589.87,42.1094 c -4.12,0 -7.68,1.3398 -10.63,4.1523 -3.04,2.7696 -4.51,6.668 -4.51,11.6172 0,4.2109 1.39,7.8633 4.23,10.9219 2.86,3.039 6.4,4.5195 10.59,4.5195 4.16,0 7.74,-1.4805 10.64,-4.5078 2.99,-2.9727 4.48,-6.6836 4.48,-10.9336 0,-4.9101 -1.49,-8.7695 -4.48,-11.5781 -2.9,-2.7891 -6.34,-4.1914 -10.32,-4.1914"
         style="fill:#100f0d;fill-opacity:1;fill-rule:nonzero;stroke:none"
         transform="matrix(0.13333333,0,0,-0.13333333,0,739.97333)" />
      <path
         id="path22"
         d="m 3710.13,99.75 c 0,11.531 -2.45,20.582 -7.34,27.02 -4.88,6.41 -11.41,9.66 -19.65,9.66 -5.32,0 -9.95,-1.45 -14.02,-4.321 -4.06,-2.918 -7.18,-7.148 -9.35,-12.769 -2.17,-5.559 -3.29,-12.07 -3.29,-19.59 0,-7.4297 1.05,-13.8906 3.2,-19.4102 2.22,-5.5507 5.27,-9.8007 9.3,-12.75 4.01,-2.9375 8.73,-4.3789 14.16,-4.3789 8.24,0 14.77,3.211 19.65,9.6797 4.89,6.461 7.34,15.4492 7.34,26.8594 z m 27.32,0 c 0,-8.4102 -1.25,-16.2109 -3.81,-23.3984 -2.54,-7.0821 -6.15,-13.2305 -10.94,-18.3828 -4.83,-5.129 -10.47,-8.9688 -17.13,-11.7774 -6.62,-2.7422 -14.1,-4.082 -22.43,-4.082 -8.22,0 -15.62,1.3398 -22.19,4.1523 -6.58,2.7696 -12.25,6.7305 -17.05,11.9102 -4.9,5.1679 -8.52,11.2265 -11.04,18.2578 -2.44,7.082 -3.69,14.8125 -3.69,23.3711 0,8.5902 1.25,16.4492 3.79,23.5582 2.57,7.18 6.13,13.243 10.82,18.332 4.72,5.051 10.44,8.95 17.17,11.68 6.7,2.75 14.05,4.129 22.19,4.129 8.24,0 15.71,-1.379 22.43,-4.168 6.73,-2.762 12.46,-6.75 17.25,-11.871 4.75,-5.121 8.38,-11.262 10.9,-18.332 2.48,-7.047 3.73,-14.848 3.73,-23.379"
         style="fill:#100f0d;fill-opacity:1;fill-rule:nonzero;stroke:none"
         transform="matrix(0.13333333,0,0,-0.13333333,0,739.97333)" />
      <path
         id="path23"
         d="M 3785.89,83.0117 V 59.3906 c 0,-5.7617 -1.3,-10.1015 -3.89,-13 -2.55,-2.8203 -5.88,-4.2812 -9.83,-4.2812 -3.97,0 -7.15,1.5 -9.69,4.3515 -2.56,2.9102 -3.8,7.211 -3.8,12.9297 v 78.9884 c 0,12.769 4.47,19.121 13.26,19.121 4.52,0 7.76,-1.508 9.74,-4.461 1.96,-2.976 3.12,-7.391 3.36,-13.199 3.19,5.808 6.52,10.223 9.94,13.199 3.44,2.953 8.01,4.461 13.67,4.461 5.81,0 11.35,-1.508 16.67,-4.461 5.38,-2.976 8.1,-6.949 8.1,-11.848 0,-3.461 -1.15,-6.371 -3.43,-8.589 -2.31,-2.231 -4.75,-3.411 -7.47,-3.411 -0.96,0 -3.35,0.668 -7.17,1.981 -3.84,1.258 -7.21,1.918 -10.15,1.918 -3.96,0 -7.19,-1.051 -9.79,-3.289 -2.48,-2.219 -4.44,-5.41 -5.86,-9.699 -1.36,-4.34 -2.33,-9.43 -2.85,-15.391 -0.53,-5.8907 -0.81,-13.0899 -0.81,-21.6993"
         style="fill:#100f0d;fill-opacity:1;fill-rule:nonzero;stroke:none"
         transform="matrix(0.13333333,0,0,-0.13333333,0,739.97333)" />
      <path
         id="path24"
         d="m 3864.4,100.73 c 0,-11.4878 2.43,-20.1987 7.26,-26.1206 4.78,-5.8477 11.05,-8.8203 18.63,-8.8203 4.5,0 8.82,1.3007 12.82,3.832 4.02,2.5312 7.29,6.3398 9.82,11.4375 2.56,5.1133 3.78,11.2617 3.78,18.5312 0,11.5822 -2.46,20.5702 -7.33,27.0002 -4.87,6.5 -11.3,9.75 -19.26,9.75 -7.75,0 -13.99,-3.16 -18.66,-9.289 -4.7,-6.199 -7.06,-14.949 -7.06,-26.321 z m 78.84,35.989 V 54.25 c 0,-9.4609 -1.03,-17.5586 -2.92,-24.3086 -1.93,-6.832 -5.01,-12.4492 -9.26,-16.8711 -4.24,-4.42186 -9.84,-7.71092 -16.67,-9.85936 C 3907.51,1.10156 3898.95,0 3888.73,0 c -9.38,0 -17.77,1.33203 -25.1,4.07031 -7.39,2.80078 -13.08,6.30079 -17.05,10.66019 -3.98,4.289 -5.99,8.75 -5.99,13.3515 0,3.4766 1.1,6.2774 3.42,8.4571 2.23,2.2304 4.96,3.3203 8.14,3.3203 4,0 7.44,-1.8594 10.49,-5.5078 1.46,-1.9297 2.99,-3.8008 4.5,-5.6797 1.56,-1.9219 3.3,-3.5899 5.17,-4.9102 1.92,-1.3828 4.21,-2.3828 6.87,-3.0429 2.6,-0.6563 5.7,-0.9883 9.17,-0.9883 6.98,0 12.51,1.0508 16.37,3.0703 3.88,2.039 6.62,4.8984 8.2,8.5586 1.48,3.6797 2.49,7.6015 2.65,11.789 0.32,4.2813 0.5,10.9532 0.69,20.2813 -4.18,-6.0899 -9.09,-10.7383 -14.51,-13.918 -5.48,-3.2109 -12.03,-4.7617 -19.54,-4.7617 -9.18,0 -17.13,2.3789 -23.89,7.2695 -6.85,4.8399 -12.08,11.6211 -15.72,20.3789 -3.61,8.711 -5.48,18.793 -5.48,30.2306 0,8.582 1.09,16.281 3.36,23.152 2.18,6.821 5.33,12.621 9.52,17.34 4.07,4.719 8.85,8.281 14.22,10.68 5.41,2.359 11.25,3.578 17.75,3.578 7.67,0 14.34,-1.57 19.97,-4.668 5.73,-3.039 10.91,-7.941 15.77,-14.481 v 3.801 c 0,4.961 1.21,8.739 3.5,11.52 2.3,2.668 5.31,4.031 8.95,4.031 5.26,0 8.75,-1.773 10.49,-5.34 1.7,-3.582 2.59,-8.781 2.59,-15.523"
         style="fill:#100f0d;fill-opacity:1;fill-rule:nonzero;stroke:none"
         transform="matrix(0.13333333,0,0,-0.13333333,0,739.97333)" />
      <path
         id="path25"
         d="m 2764.54,413.102 h 40.33 c -2.85,-21.75 -11.75,-38.723 -26.58,-50.942 -13.71,-11.969 -30.33,-17.871 -49.73,-17.871 -26.34,0 -47.37,9.262 -63.07,27.731 -14.87,17.562 -22.3,40.25 -22.3,67.949 0,28.402 7.38,51.101 22.09,68.293 14.71,17.117 35.5,25.718 62.39,25.718 19.99,0 36.91,-5.41 50.62,-16.14 14.54,-11.61 23.44,-27.899 26.58,-48.77 h -40.33 c -3.5,18.211 -14.6,27.262 -33.52,27.262 -31.18,0 -46.8,-18.461 -46.8,-55.422 0,-17.32 4.02,-31.449 12.04,-42.461 8.02,-11.058 19.32,-16.59 33.9,-16.59 21.74,0 33.2,10.43 34.38,31.243 z m -158.8,25.449 c 0,-36.102 11.45,-66.66 34.31,-91.559 22.89,-24.902 50.9,-37.363 84.15,-37.363 33.1,0 61.13,12.461 83.98,37.363 22.92,24.899 34.3,55.457 34.3,91.559 0,36.07 -11.38,66.609 -34.3,91.508 -22.85,24.953 -50.88,37.39 -83.98,37.39 -33.25,0 -61.26,-12.437 -84.15,-37.39 -22.86,-24.899 -34.31,-55.438 -34.31,-91.508 z m -40.98,0 c 0,45.941 15.55,85.148 46.66,117.711 31.15,32.519 68.76,48.789 112.78,48.789 43.92,0 81.46,-16.27 112.65,-48.789 31.13,-32.563 46.72,-71.77 46.72,-117.711 0,-45.981 -15.59,-85.25 -46.72,-117.75 -31.19,-32.539 -68.73,-48.821 -112.65,-48.821 -44.02,0 -81.63,16.282 -112.78,48.821 -31.11,32.5 -46.66,71.769 -46.66,117.75"
         style="fill:#100f0d;fill-opacity:1;fill-rule:nonzero;stroke:none"
         transform="matrix(0.13333333,0,0,-0.13333333,0,739.97333)" />
      <path
         id="path26"
         d="m 2629.27,334.129 23.25,-19.731 170.96,219.532 -23.25,19.699 -170.96,-219.5"
         style="fill:#100f0d;fill-opacity:1;fill-rule:nonzero;stroke:none"
         transform="matrix(0.13333333,0,0,-0.13333333,0,739.97333)" />
      <path
         id="path27"
         d="m 2677.63,5549.76 c 1478.82,0 2677.62,-1198.82 2677.62,-2677.64 0,-376.43 -77.76,-734.66 -218.02,-1059.64 H 218.023 C 77.7734,2137.46 0,2495.69 0,2872.12 0,4350.94 1198.81,5549.76 2677.63,5549.76"
         style="fill:#fac2cc;fill-opacity:1;fill-rule:evenodd;stroke:none"
         transform="matrix(0.13333333,0,0,-0.13333333,0,739.97333)" />
      <path
         id="path28"
         d="m 1252.35,1862.07 h 1199.51 v 70.02 H 1252.35 v -70.02"
         style="fill:#ffffff;fill-opacity:1;fill-rule:evenodd;stroke:none"
         transform="matrix(0.13333333,0,0,-0.13333333,0,739.97333)" />
      <path
         id="path29"
         d="m 4710.59,2042.15 c 131.82,0 238.68,-80.62 238.68,-180.08 h -477.36 c 0,99.46 106.86,180.08 238.68,180.08"
         style="fill:#ffffff;fill-opacity:1;fill-rule:evenodd;stroke:none"
         transform="matrix(0.13333333,0,0,-0.13333333,0,739.97333)" />
      <path
         id="path30"
         d="m 4404.43,1970.32 109.52,160.92 c 28.84,42.42 83.69,58.44 130.82,38.21 60.15,-25.78 123.1,-44.43 187.57,-55.57 73.39,-12.66 130.37,-71.03 141.25,-144.73 3.93,-26.56 -7.71,-53.03 -29.9,-68.11 l -39.56,9.08 c -44.66,10.22 -89.34,-16.99 -100.73,-61.38 -17.26,-67.28 -70.5,-119.38 -138.13,-135.18 -67.66,-15.8 -138.45,7.31 -183.74,59.97 -47.64,55.39 -71.37,127.39 -66,200.26 l -11.1,-3.47"
         style="fill:#f1485f;fill-opacity:1;fill-rule:evenodd;stroke:none"
         transform="matrix(0.13333333,0,0,-0.13333333,0,739.97333)" />
      <path
         id="path31"
         d="m 178.32,1685 h 5017.55 v 177.07 H 178.32 V 1685"
         style="fill:#612a2e;fill-opacity:1;fill-rule:evenodd;stroke:none"
         transform="matrix(0.13333333,0,0,-0.13333333,0,739.97333)" />
      <path
         id="path32"
         d="m 646.93,4834.18 h 3341.09 c 63.92,0 116.22,-52.29 116.22,-116.21 v -2062 c 0,-63.92 -52.3,-116.22 -116.22,-116.22 H 646.93 c -63.922,0 -116.211,52.3 -116.211,116.22 v 2062 c 0,63.92 52.289,116.21 116.211,116.21"
         style="fill:#ffffff;fill-opacity:1;fill-rule:evenodd;stroke:none"
         transform="matrix(0.13333333,0,0,-0.13333333,0,739.97333)" />
      <path
         id="path33"
         d="M 672.313,2681.36 H 3962.63 V 4692.59 H 672.313 V 2681.36"
         style="fill:#ae525d;fill-opacity:1;fill-rule:evenodd;stroke:none"
         transform="matrix(0.13333333,0,0,-0.13333333,0,739.97333)" />
      <path
         id="path34"
         d="m 3458.41,2898.57 h 216.89 v -59.34 h -216.89 z m -701.44,0 h 431.92 v -59.34 h -431.92 v 59.34 z m -835.77,0 h 566.26 v -59.34 H 1921.2 v 59.34 z m -566.26,0 h 382.2 v -59.34 h -382.2 v 59.34 z m -395.292,0 h 211.232 v -59.34 H 959.648 v 59.34 z M 3024.09,3062.2 h 373.26 v -59.35 h -373.26 v 59.35 z m -744.63,0 H 2802 v -59.35 h -522.54 v 59.35 z m -730.55,0 h 508.46 v -59.35 h -508.46 v 59.35 z m -589.262,0 h 367.172 v -59.35 H 959.648 c 0,19.78 0,39.57 0,59.35 z m 2479.982,163.6 h 235.67 c 0,-19.78 0,-39.56 0,-59.34 h -235.67 v 59.34 z m -637.63,0 h 453.57 v -59.34 H 2802 v 59.34 z m -906.14,0 h 538.99 v -59.34 h -538.99 v 59.34 z m -569.04,0 h 346.95 v -59.34 h -346.95 v 59.34 z m -367.172,0 h 198.142 v -59.34 H 959.648 c 0,19.78 0,39.56 0,59.34 z m 2586.092,163.6 h 129.56 c 0,-19.76 0,-39.56 0,-59.34 h -129.56 v 59.34 z m -356.85,0 h 250.74 v -59.34 h -250.74 v 59.34 z m -314.55,0 h 187.79 v -59.34 h -187.79 v 59.34 z m -600.98,0 h 294.85 v -59.34 h -294.85 v 59.34 z m -701.93,0 h 334.78 v -59.34 h -334.78 v 59.34 z m -611.782,0 h 275.142 v -59.34 H 959.648 c 0,19.78 0,39.58 0,59.34 z m 2083.702,163.63 h 631.95 v -59.35 h -631.95 v 59.35 z m -689.25,0 h 520.24 v -59.35 H 2354.1 v 59.35 z m -616.96,0 h 370.93 v -59.35 h -370.93 v 59.35 z m -777.492,0 H 1610.4 v -59.35 H 959.648 c 0,19.78 0,39.58 0,59.35 z m 2368.232,163.6 h 217.86 v -59.34 h -217.86 v 59.34 z m -575.62,0 h 365.29 v -59.34 h -365.29 v 59.34 z m -579.86,0 h 441.83 v -59.34 H 2172.4 v 59.34 z m -719.76,0 h 383.12 v -59.34 h -383.12 v 59.34 z m -492.992,0 h 320.212 v -59.34 H 959.648 c 0,19.78 0,39.56 0,59.34 z m 2197.292,163.62 h 518.36 c 0,-19.78 0,-39.56 0,-59.34 h -518.36 v 59.34 z m -615.04,0 h 488.31 v -59.34 H 2541.9 v 59.34 z m -551.18,0 h 326.77 v -59.34 h -326.77 v 59.34 z m -465.77,0 h 296.75 v -59.34 h -296.75 v 59.34 z m -565.302,0 h 275.142 v -59.34 H 959.648 c 0,19.78 0,39.56 0,59.34 z M 2876.2,4043.87 h 293.94 v -59.34 H 2876.2 v 59.34 z m -647,0 h 520.24 v -59.34 H 2229.2 v 59.34 z m -825.38,0 h 698.63 v -59.34 h -698.63 v 59.34 z m -444.172,0 h 275.142 v -59.34 H 959.648 c 0,19.78 0,39.56 0,59.34 z m 2525.022,163.6 h 190.63 c 0,-19.78 0,-39.56 0,-59.34 h -190.63 v 59.34 z m -878.91,0 h 608.49 v -59.34 h -608.49 v 59.34 z m -642.29,0 h 431.95 v -59.34 h -431.95 v 59.34 z m -458.24,0 h 247.9 v -59.34 h -247.9 v 59.34 z m -545.582,0 h 275.142 v -59.34 H 959.648 c 0,19.78 0,39.56 0,59.34 z M 2749.44,4534.7 h 578.44 v -59.34 h -578.44 v 59.34 z m -927.74,0 h 657.32 v -59.34 H 1821.7 v 59.34 z m -862.052,0 H 1359.7 v -59.34 H 959.648 v 59.34 z M 3170.14,4371.1 h 505.16 c 0,-19.78 0,-39.57 0,-59.35 h -505.16 v 59.35 z m -852.65,0 h 642.3 v -59.35 h -642.3 v 59.35 z m -1357.842,0 H 2027.32 v -59.35 H 959.648 c 0,19.78 0,39.57 0,59.35 v 0"
         style="fill:#7d363e;fill-opacity:1;fill-rule:evenodd;stroke:none"
         transform="matrix(0.13333333,0,0,-0.13333333,0,739.97333)" />
      <path
         id="path35"
         d="m 2380.24,4586.34 c -65.86,-25.64 -82.56,-140.71 -37.29,-256.99 45.27,-116.29 135.36,-189.77 201.24,-164.13 65.87,25.65 82.57,140.72 37.3,257 -45.29,116.28 -135.38,189.77 -201.25,164.12 z m 1237.73,0 c 65.87,-25.64 82.57,-140.71 37.3,-256.99 -45.27,-116.29 -135.38,-189.77 -201.25,-164.13 -65.87,25.65 -82.56,140.72 -37.29,257 45.27,116.28 135.38,189.77 201.24,164.12 v 0"
         style="fill:#f1485f;fill-opacity:1;fill-rule:evenodd;stroke:none"
         transform="matrix(0.13333333,0,0,-0.13333333,0,739.97333)" />
      <path
         id="path36"
         d="m 2687.98,3446.9 h 622.25 v 459.53 H 2687.98 V 3446.9"
         style="fill:#f1485f;fill-opacity:1;fill-rule:evenodd;stroke:none"
         transform="matrix(0.13333333,0,0,-0.13333333,0,739.97333)" />
      <path
         id="path37"
         d="M 2443.02,4792.61 H 3555.2 v -535.62 c 0,-294.59 -241.03,-535.61 -535.61,-535.61 h -40.97 c -294.57,0 -535.6,241.02 -535.6,535.61 v 535.62"
         style="fill:#f1485f;fill-opacity:1;fill-rule:evenodd;stroke:none"
         transform="matrix(0.13333333,0,0,-0.13333333,0,739.97333)" />
      <path
         id="path38"
         d="m 3453.11,5097.67 -18.22,91.82 c -29.36,148.01 -175.45,234.31 -327.41,193.45 -189.16,-50.85 -379.91,-92.44 -571.58,-124.59 -81.49,-13.68 -153.61,-68.19 -190.34,-143.85 -36.75,-75.66 -32.78,-161.55 10.44,-226.69 l 80.52,-580.37 c 21.5,-154.94 159.05,-321.34 317.9,-321.34 h 470.53 c 159.68,0 303.2,122.81 329.57,281.99 34.67,209.46 61.75,419.45 81.15,629.57 4.92,53.12 -11.63,104.16 -45.9,141.73 -34.3,37.57 -133.92,44.5 -136.66,58.28"
         style="fill:#2e2d2d;fill-opacity:1;fill-rule:evenodd;stroke:none"
         transform="matrix(0.13333333,0,0,-0.13333333,0,739.97333)" />
      <path
         id="path39"
         d="m 2242.42,3629.47 c -257.04,-109.85 -469.93,-338.42 -490.06,-617.23 -27.47,-380.48 10.63,-595.46 -270.45,-1019.88 -281.08,-424.43 63.28,-956.53 584.53,-956.53 h 1865.33 c 521.27,0 865.62,532.1 584.52,956.53 -281.07,424.42 -242.96,639.4 -270.45,1019.88 -20.12,278.81 -233.01,507.38 -490.06,617.23 l -282.38,75.01 c -325.1,86.35 -623.49,86.35 -948.6,0 l -282.38,-75.01"
         style="fill:#e61d2b;fill-opacity:1;fill-rule:evenodd;stroke:none"
         transform="matrix(0.13333333,0,0,-0.13333333,0,739.97333)" />
      <path
         id="path40"
         d="m 3356.46,1035.83 h 575.31 c 154.51,0 293.47,46.77 405.21,123.61 -131.3,13.04 -254.14,76.55 -340.94,179.68 -110.81,131.59 -148.07,310.03 -99.19,475 124.85,421.4 136.86,868.24 34.85,1295.75 l -2.9,-180.13 c -5.5,-341.22 -112.74,-673.04 -307.96,-952.93 -62.32,-89.36 -69.06,-206.2 -17.43,-302.16 62.41,-115.94 71,-253.41 23.51,-376.23 -47.47,-122.83 -146.29,-218.76 -270.46,-262.59 z m -1695.23,123.61 c 111.74,-76.84 250.7,-123.61 405.21,-123.61 h 575.32 c -124.19,43.83 -223,139.76 -270.49,262.59 -47.47,122.82 -38.88,260.29 23.54,376.23 51.63,95.96 44.89,212.8 -17.43,302.16 -195.23,279.89 -302.46,611.71 -307.98,952.93 l -2.9,180.13 c -102,-427.51 -89.98,-874.35 34.88,-1295.75 48.85,-164.97 11.59,-343.41 -99.2,-475 -86.81,-103.13 -209.65,-166.64 -340.95,-179.68 v 0"
         style="fill:#cd1e25;fill-opacity:1;fill-rule:evenodd;stroke:none"
         transform="matrix(0.13333333,0,0,-0.13333333,0,739.97333)" />
      <path
         id="path41"
         d="m 2561.62,2539.75 h 874.96 c 192.98,0 355.89,-157.88 362.02,-350.85 l 35.1,-1103.68 H 3269.53 2728.67 2164.5 l 35.09,1103.68 c 6.14,192.97 169.05,350.85 362.03,350.85"
         style="fill:#f9b00b;fill-opacity:1;fill-rule:evenodd;stroke:none"
         transform="matrix(0.13333333,0,0,-0.13333333,0,739.97333)" />
      <path
         id="path42"
         d="m 2538.76,2334.16 h 920.67 c 203.08,0 374.49,-140.92 380.94,-313.18 l 36.93,-985.15 h -593.65 -569.1 -593.64 l 36.92,985.15 c 6.46,172.26 177.88,313.18 380.93,313.18"
         style="fill:#2e2d2d;fill-opacity:1;fill-rule:evenodd;stroke:none"
         transform="matrix(0.13333333,0,0,-0.13333333,0,739.97333)" />
      <path
         id="path43"
         d="m 2873.61,1638.36 h 251 c 95.88,0 174.32,-78.43 174.32,-174.31 v -428.22 h -599.64 v 428.22 c 0,95.88 78.43,174.31 174.32,174.31"
         style="fill:#464648;fill-opacity:1;fill-rule:evenodd;stroke:none"
         transform="matrix(0.13333333,0,0,-0.13333333,0,739.97333)" />
    </g>
  </g>
</svg>
