<?xml version="1.0" encoding="UTF-8" standalone="no"?>
<!-- Created with Inkscape (http://www.inkscape.org/) -->

<svg
   version="1.1"
   id="svg1"
   width="844.8667"
   height="649.58667"
   viewBox="0 0 844.8667 649.58667"
   sodipodi:docname="floppy-disks.svg"
   inkscape:version="1.4 (e7c3feb100, 2024-10-09)"
   xmlns:inkscape="http://www.inkscape.org/namespaces/inkscape"
   xmlns:sodipodi="http://sodipodi.sourceforge.net/DTD/sodipodi-0.dtd"
   xmlns="http://www.w3.org/2000/svg"
   xmlns:svg="http://www.w3.org/2000/svg">
  <defs
     id="defs1" />
  <sodipodi:namedview
     id="namedview1"
     pagecolor="#505050"
     bordercolor="#ffffff"
     borderopacity="1"
     inkscape:showpageshadow="0"
     inkscape:pageopacity="0"
     inkscape:pagecheckerboard="1"
     inkscape:deskcolor="#d1d1d1"
     inkscape:zoom="1.254644"
     inkscape:cx="422.4306"
     inkscape:cy="324.79333"
     inkscape:window-width="1920"
     inkscape:window-height="1002"
     inkscape:window-x="0"
     inkscape:window-y="0"
     inkscape:window-maximized="1"
     inkscape:current-layer="g1">
    <inkscape:page
       x="0"
       y="0"
       inkscape:label="1"
       id="page1"
       width="844.8667"
       height="649.58667"
       margin="0"
       bleed="0" />
  </sodipodi:namedview>
  <g
     id="g1"
     inkscape:groupmode="layer"
     inkscape:label="1">
    <g
       id="group-R5">
      <path
         id="path2"
         d="m 2117.88,87.5586 c 0,6.543 -0.96,12.1914 -2.89,16.8394 -1.89,4.704 -4.55,8.321 -7.97,10.872 -3.4,2.48 -7.13,3.75 -11.27,3.75 -6.54,0 -12.07,-2.75 -16.58,-8.079 -4.49,-5.453 -6.76,-13.3394 -6.76,-23.8316 0,-9.8594 2.27,-17.5391 6.7,-22.9688 4.49,-5.4922 10.06,-8.2617 16.64,-8.2617 3.95,0 7.62,1.1914 11,3.6328 3.32,2.3867 6.03,5.9571 8.06,10.7071 2.06,4.8203 3.07,10.582 3.07,17.3398 z m -46.56,36.0894 v -2.968 c 4.45,5.73 9.08,10 13.9,12.66 4.81,2.699 10.3,4.058 16.39,4.058 7.31,0 14.02,-1.988 20.18,-5.918 6.15,-3.921 10.99,-9.64 14.57,-17.242 3.57,-7.578 5.35,-16.5192 5.35,-26.8786 0,-7.6094 -1.02,-14.6797 -3.09,-20.9883 -2.05,-6.4102 -4.86,-11.8008 -8.47,-16.1211 -3.6,-4.3281 -7.87,-7.6719 -12.74,-9.9805 -4.92,-2.3593 -10.19,-3.5078 -15.8,-3.5078 -6.82,0 -12.52,1.3985 -17.13,4.2578 -4.65,2.8516 -9,6.9922 -13.16,12.5196 V 16.3516 C 2071.32,5.42969 2067.51,0 2059.91,0 c -4.45,0 -7.44,1.39063 -8.85,4.19922 -1.46,2.8125 -2.16,6.91018 -2.16,12.30078 v 107 c 0,4.719 0.93,8.262 2.93,10.578 1.99,2.313 4.68,3.524 8.08,3.524 3.38,0 6.12,-1.211 8.22,-3.622 2.11,-2.421 3.19,-5.851 3.19,-10.332"
         style="fill:#f68413;fill-opacity:1;fill-rule:nonzero;stroke:none"
         transform="matrix(0.13333333,0,0,-0.13333333,0,649.58667)" />
      <path
         id="path3"
         d="m 2222.51,50.7813 v 3.1289 c -2.87,-3.75 -5.86,-6.8789 -9,-9.3985 -3.13,-2.6015 -6.55,-4.4726 -10.26,-5.7031 -3.73,-1.207 -7.97,-1.8398 -12.71,-1.8398 -5.73,0 -10.88,1.25 -15.43,3.6914 -4.57,2.4882 -8.09,5.9179 -10.57,10.2617 -2.97,5.289 -4.43,12.8476 -4.43,22.6679 V 122.73 c 0,4.93 1.07,8.661 3.22,11.098 2.15,2.442 4.98,3.692 8.52,3.692 3.59,0 6.48,-1.25 8.71,-3.75 2.18,-2.481 3.28,-6.168 3.28,-11.04 V 83.0313 c 0,-5.7227 0.47,-10.5508 1.37,-14.4219 0.95,-3.9375 2.61,-6.9883 5.05,-9.211 2.37,-2.207 5.65,-3.289 9.75,-3.289 4.04,0 7.81,1.25 11.31,3.7109 3.57,2.4688 6.17,5.711 7.77,9.6914 1.35,3.5391 1.99,11.1875 1.99,23.0664 V 122.73 c 0,4.872 1.12,8.559 3.32,11.04 2.19,2.5 5.04,3.75 8.6,3.75 3.53,0 6.38,-1.25 8.51,-3.692 2.15,-2.437 3.21,-6.168 3.21,-11.098 V 50.9219 c 0,-4.711 -1,-8.2617 -3.09,-10.6133 -2.03,-2.3789 -4.67,-3.5273 -7.93,-3.5273 -3.24,0 -5.92,1.25 -8.05,3.6484 -2.11,2.4805 -3.14,5.8789 -3.14,10.3516"
         style="fill:#f68413;fill-opacity:1;fill-rule:nonzero;stroke:none"
         transform="matrix(0.13333333,0,0,-0.13333333,0,649.58667)" />
      <path
         id="path4"
         d="m 2291.38,86.5586 c 0,-9.8594 2.15,-17.3984 6.46,-22.7305 4.32,-5.2695 10,-7.9492 17.03,-7.9492 5.98,0 11.1,2.7305 15.45,8.1406 4.34,5.4102 6.49,13.1524 6.49,23.2696 0,6.6015 -0.9,12.1992 -2.7,16.9099 -1.82,4.75 -4.37,8.379 -7.65,10.942 -3.34,2.578 -7.17,3.879 -11.59,3.879 -4.57,0 -8.53,-1.301 -12.09,-3.879 -3.55,-2.563 -6.32,-6.289 -8.38,-11.172 -2.01,-4.8284 -3.02,-10.6292 -3.02,-17.4104 z m -1.14,73.6914 v -37.891 c 4.42,4.891 9.01,8.563 13.64,11.2 4.65,2.55 10.41,3.839 17.24,3.839 7.89,0 14.79,-1.988 20.75,-5.839 5.93,-3.957 10.58,-9.59 13.82,-16.989 3.3,-7.422 4.93,-16.2106 4.93,-26.3903 0,-7.5195 -0.9,-14.3906 -2.7,-20.6797 -1.86,-6.25 -4.49,-11.6602 -7.97,-16.3086 -3.51,-4.5703 -7.73,-8.082 -12.67,-10.6797 -4.99,-2.4804 -10.45,-3.75 -16.41,-3.75 -3.63,0 -7.09,0.4688 -10.33,1.3672 -3.23,0.8906 -5.98,2.0899 -8.21,3.6094 -2.28,1.4101 -4.2,2.9922 -5.8,4.5312 -1.6,1.6016 -3.67,3.9297 -6.29,7.0899 v -2.4375 c 0,-4.6719 -1.09,-8.1914 -3.24,-10.6133 -2.13,-2.3789 -4.88,-3.5469 -8.14,-3.5469 -3.4,0 -6.06,1.168 -8.07,3.5469 -1.99,2.4609 -2.99,5.9609 -2.99,10.6133 V 159.16 c 0,5 0.96,8.789 2.91,11.371 1.94,2.598 4.63,3.867 8.15,3.867 3.61,0 6.44,-1.238 8.4,-3.718 1.99,-2.418 2.98,-5.891 2.98,-10.43"
         style="fill:#f68413;fill-opacity:1;fill-rule:nonzero;stroke:none"
         transform="matrix(0.13333333,0,0,-0.13333333,0,649.58667)" />
      <path
         id="path5"
         d="M 2377.37,51.8594 V 159.32 c 0,4.981 1.08,8.711 3.17,11.27 2.15,2.539 4.98,3.808 8.59,3.808 3.59,0 6.49,-1.25 8.69,-3.769 2.17,-2.5 3.3,-6.309 3.3,-11.309 V 51.8594 c 0,-5.0391 -1.13,-8.8281 -3.36,-11.3477 -2.2,-2.4804 -5.11,-3.75 -8.63,-3.75 -3.5,0 -6.29,1.3086 -8.48,3.8985 -2.18,2.6211 -3.28,6.3281 -3.28,11.1992"
         style="fill:#f68413;fill-opacity:1;fill-rule:nonzero;stroke:none"
         transform="matrix(0.13333333,0,0,-0.13333333,0,649.58667)" />
      <path
         id="path6"
         d="M 2449.4,123.441 V 51.8594 c 0,-5 -1.17,-8.75 -3.37,-11.2891 -2.29,-2.5 -5.18,-3.8086 -8.62,-3.8086 -3.49,0 -6.33,1.3086 -8.49,3.8867 -2.17,2.6329 -3.27,6.3399 -3.27,11.211 V 122.73 c 0,4.872 1.1,8.559 3.27,11.04 2.16,2.5 5,3.75 8.49,3.75 3.44,0 6.33,-1.25 8.62,-3.75 2.2,-2.481 3.37,-5.918 3.37,-10.329 z m -11.75,25.618 c -3.3,0 -6.12,1.062 -8.5,3.23 -2.3,2.109 -3.5,5.133 -3.5,9 0,3.5 1.2,6.371 3.62,8.672 2.38,2.289 5.17,3.359 8.38,3.359 3.06,0 5.82,-1.011 8.18,-3.05 2.36,-2.051 3.57,-5.09 3.57,-8.981 0,-3.828 -1.19,-6.801 -3.49,-8.93 -2.33,-2.16 -5.06,-3.3 -8.26,-3.3"
         style="fill:#f68413;fill-opacity:1;fill-rule:nonzero;stroke:none"
         transform="matrix(0.13333333,0,0,-0.13333333,0,649.58667)" />
      <path
         id="path7"
         d="m 2558.99,67.4414 c 0,-3.0625 -0.87,-6.3828 -2.63,-9.8828 -1.8,-3.5195 -4.49,-6.8398 -8.13,-10.0195 -3.61,-3.1602 -8.18,-5.7383 -13.67,-7.6602 -5.51,-1.9687 -11.74,-2.9101 -18.61,-2.9101 -14.69,0 -26.14,4.4609 -34.38,13.3828 -8.22,8.9297 -12.34,20.8593 -12.34,35.8789 0,10.1601 1.87,19.1795 5.62,26.9685 3.77,7.781 9.26,13.852 16.37,18.09 7.11,4.301 15.66,6.43 25.55,6.43 6.17,0 11.83,-0.957 16.95,-2.821 5.14,-1.886 9.49,-4.308 13.03,-7.257 3.57,-2.969 6.29,-6.141 8.2,-9.493 1.92,-3.339 2.81,-6.488 2.81,-9.398 0,-2.93 -1.07,-5.43 -3.16,-7.52 -2.13,-2.0503 -4.67,-3.0816 -7.7,-3.0816 -1.99,0 -3.61,0.5625 -4.94,1.6211 -1.27,1.0315 -2.75,2.6915 -4.37,5.0895 -2.91,4.59 -5.94,8.071 -9.1,10.411 -3.17,2.289 -7.19,3.46 -12.02,3.46 -7.05,0 -12.71,-2.89 -16.99,-8.609 -4.29,-5.762 -6.42,-13.5624 -6.42,-23.4999 0,-4.6523 0.56,-8.9609 1.66,-12.8516 1.09,-3.9297 2.69,-7.2304 4.76,-10 2.09,-2.75 4.59,-4.8398 7.58,-6.25 2.95,-1.4492 6.21,-2.1484 9.71,-2.1484 4.8,0 8.85,1.1289 12.24,3.4375 3.4,2.3203 6.41,5.8398 8.99,10.5117 1.48,2.8516 3.04,5 4.72,6.6016 1.7,1.5781 3.75,2.3164 6.18,2.3164 2.91,0 5.31,-1.1094 7.24,-3.418 1.88,-2.3398 2.85,-4.7617 2.85,-7.3789"
         style="fill:#f68413;fill-opacity:1;fill-rule:nonzero;stroke:none"
         transform="matrix(0.13333333,0,0,-0.13333333,0,649.58667)" />
      <path
         id="path8"
         d="m 2598.12,87.2891 c 0,-6.7188 0.99,-12.4102 2.98,-17.1485 2.02,-4.7304 4.71,-8.2422 8.19,-10.6289 3.51,-2.4414 7.3,-3.6328 11.38,-3.6328 4.2,0 8.01,1.1524 11.45,3.4024 3.46,2.2773 6.19,5.7773 8.28,10.4687 2.05,4.6602 3.07,10.5391 3.07,17.5391 0,6.6406 -1.02,12.2812 -3.07,17.0509 -2.09,4.762 -4.84,8.379 -8.36,10.93 -3.51,2.48 -7.34,3.75 -11.5,3.75 -4.34,0 -8.23,-1.301 -11.66,-3.879 -3.4,-2.563 -6.08,-6.27 -7.95,-11.082 -1.88,-4.8402 -2.81,-10.3676 -2.81,-16.7699 z m 46.66,-36.3672 v 2.4375 c -3.19,-3.8281 -6.33,-6.9102 -9.46,-9.2813 -3.06,-2.4179 -6.44,-4.2187 -10.08,-5.4687 -3.59,-1.211 -7.57,-1.8477 -11.85,-1.8477 -5.67,0 -10.96,1.2696 -15.78,3.75 -4.83,2.5977 -9.03,6.1289 -12.56,10.7774 -3.54,4.6523 -6.21,10.1406 -8.07,16.4609 -1.83,6.2695 -2.73,13.0703 -2.73,20.4297 0,15.4683 3.63,27.6013 10.88,36.2503 7.26,8.66 16.79,12.968 28.61,12.968 6.84,0 12.62,-1.25 17.3,-3.75 4.69,-2.398 9.28,-6.168 13.74,-11.289 v 36.61 c 0,5.07 0.97,8.922 2.93,11.519 1.93,2.602 4.66,3.91 8.28,3.91 3.59,0 6.34,-1.218 8.32,-3.578 1.93,-2.379 2.93,-5.922 2.93,-10.57 V 50.9219 c 0,-4.711 -1.06,-8.2617 -3.15,-10.6133 -2.09,-2.3789 -4.78,-3.5469 -8.1,-3.5469 -3.21,0 -5.92,1.2266 -8.05,3.668 -2.11,2.4414 -3.16,5.9219 -3.16,10.4922"
         style="fill:#f68413;fill-opacity:1;fill-rule:nonzero;stroke:none"
         transform="matrix(0.13333333,0,0,-0.13333333,0,649.58667)" />
      <path
         id="path9"
         d="m 2756.12,87.0898 c 0,10.0821 -2.15,17.9692 -6.4,23.5902 -4.26,5.59 -10,8.441 -17.17,8.441 -4.67,0 -8.73,-1.269 -12.29,-3.769 -3.51,-2.543 -6.25,-6.25 -8.16,-11.153 -1.91,-4.8592 -2.87,-10.5506 -2.87,-17.1092 0,-6.4804 0.96,-12.1289 2.83,-16.9492 1.88,-4.8515 4.57,-8.5625 8.11,-11.1406 3.47,-2.5508 7.65,-3.8203 12.38,-3.8203 7.17,0 12.91,2.8086 17.17,8.4687 4.25,5.6329 6.4,13.4805 6.4,23.4414 z m 23.83,0 c 0,-7.3398 -1.11,-14.1601 -3.3,-20.4296 -2.21,-6.1719 -5.39,-11.5586 -9.55,-16.0313 -4.2,-4.5 -9.18,-7.8594 -14.98,-10.3203 -5.8,-2.3789 -12.36,-3.5469 -19.57,-3.5469 -7.19,0 -13.65,1.168 -19.4,3.6289 -5.74,2.3985 -10.72,5.8789 -14.94,10.3907 -4.18,4.5078 -7.36,9.8085 -9.57,15.9375 -2.17,6.1914 -3.24,12.9531 -3.24,20.4101 0,7.5 1.11,14.3511 3.3,20.5901 2.21,6.25 5.35,11.543 9.47,15.992 4.12,4.418 9.11,7.809 14.98,10.199 5.88,2.379 12.31,3.61 19.4,3.61 7.19,0 13.73,-1.231 19.57,-3.649 5.84,-2.402 10.86,-5.883 15.04,-10.371 4.18,-4.48 7.34,-9.809 9.49,-16 2.23,-6.148 3.3,-12.9687 3.3,-20.4102"
         style="fill:#f68413;fill-opacity:1;fill-rule:nonzero;stroke:none"
         transform="matrix(0.13333333,0,0,-0.13333333,0,649.58667)" />
      <path
         id="path10"
         d="m 2880.24,107.559 c -1.77,-4.2 -2.63,-11.5785 -2.63,-22.2309 V 52.3984 c 0,-5.1679 -1.12,-9.1171 -3.4,-11.7382 -2.25,-2.5899 -5.25,-3.8985 -8.97,-3.8985 -3.57,0 -6.48,1.3086 -8.69,3.8985 -2.24,2.6211 -3.34,6.5703 -3.34,11.7382 v 39.5313 c 0,6.2187 -0.23,11.0393 -0.64,14.5393 -0.41,3.41 -1.51,6.261 -3.3,8.492 -1.76,2.211 -4.63,3.32 -8.5,3.32 -7.75,0 -12.85,-2.793 -15.35,-8.402 -2.48,-5.539 -3.67,-13.5509 -3.67,-23.9571 V 52.3984 c 0,-5.1484 -1.13,-9.0781 -3.34,-11.6601 -2.25,-2.668 -5.2,-3.9766 -8.81,-3.9766 -3.61,0 -6.6,1.3086 -8.87,3.9766 -2.3,2.582 -3.4,6.5117 -3.4,11.6406 V 123.32 c 0,4.668 0.98,8.2 3.03,10.61 2.09,2.422 4.79,3.672 8.17,3.672 3.24,0 5.95,-1.133 8.12,-3.403 2.17,-2.289 3.26,-5.41 3.26,-9.41 v -2.348 c 4.1,5.161 8.52,8.93 13.21,11.329 4.68,2.421 9.96,3.628 15.66,3.628 5.96,0 11.05,-1.25 15.35,-3.75 4.32,-2.437 7.83,-6.207 10.61,-11.207 4,5.039 8.3,8.848 12.89,11.289 4.59,2.461 9.65,3.668 15.19,3.668 6.55,0 12.11,-1.289 16.8,-4 4.71,-2.66 8.2,-6.449 10.53,-11.429 2.05,-4.489 3.04,-11.52 3.04,-21.168 V 52.3984 c 0,-5.1679 -1.13,-9.1171 -3.36,-11.7382 -2.3,-2.5899 -5.27,-3.8985 -8.98,-3.8985 -3.59,0 -6.54,1.3086 -8.81,3.9766 -2.32,2.582 -3.48,6.5117 -3.48,11.6601 v 41.7032 c 0,5.3281 -0.21,9.5894 -0.64,12.7964 -0.43,3.262 -1.6,5.911 -3.54,8.082 -1.89,2.192 -4.82,3.301 -8.67,3.301 -3.12,0 -6.11,-0.972 -8.88,-2.871 -2.87,-1.969 -5,-4.57 -6.59,-7.851 v 0"
         style="fill:#f68413;fill-opacity:1;fill-rule:nonzero;stroke:none"
         transform="matrix(0.13333333,0,0,-0.13333333,0,649.58667)" />
      <path
         id="path11"
         d="m 3014.7,86.6211 c -3.5,-1.3516 -8.56,-2.7305 -15.2,-4.2422 -6.62,-1.4805 -11.23,-2.5586 -13.79,-3.2773 -2.56,-0.7032 -4.98,-2.0508 -7.28,-4.0625 -2.35,-2.0899 -3.5,-4.8985 -3.5,-8.5391 0,-3.7812 1.37,-6.9687 4.08,-9.5898 2.74,-2.6485 6.31,-3.961 10.73,-3.961 4.68,0 9.04,1.0899 12.98,3.2617 3.99,2.1094 6.9,4.918 8.74,8.3008 2.14,3.75 3.24,9.8985 3.24,18.5781 z m 1.56,-35.9023 c -5.76,-4.6602 -11.31,-8.1407 -16.68,-10.4493 -5.33,-2.3593 -11.37,-3.5078 -18.01,-3.5078 -6.13,0 -11.44,1.2696 -16.07,3.75 -4.63,2.5196 -8.17,5.9375 -10.67,10.2696 -2.48,4.2773 -3.75,8.9101 -3.75,13.9492 0,6.789 2.11,12.5586 6.21,17.3398 4.09,4.75 9.75,7.9688 16.92,9.6094 1.52,0.3711 5.27,1.1484 11.23,2.4219 6.02,1.3086 11.09,2.457 15.39,3.5 4.24,1.0468 8.89,2.3398 13.87,3.8474 -0.32,6.563 -1.57,11.36 -3.77,14.473 -2.25,3.027 -6.92,4.527 -13.89,4.527 -6.05,0 -10.57,-0.859 -13.65,-2.621 -3.03,-1.738 -5.65,-4.387 -7.79,-7.949 -2.21,-3.488 -3.72,-5.801 -4.61,-6.93 -0.92,-1.129 -2.86,-1.64 -5.78,-1.64 -2.7,0 -4.99,0.882 -6.9,2.64 -1.97,1.789 -2.95,4.063 -2.95,6.891 0,4.359 1.49,8.609 4.43,12.66 2.97,4.141 7.58,7.52 13.83,10.23 6.27,2.661 14.09,3.989 23.42,3.989 10.41,0 18.63,-1.328 24.63,-3.891 5.96,-2.539 10.16,-6.578 12.62,-12.207 2.48,-5.531 3.73,-12.93 3.73,-22.1327 0,-5.7969 0,-10.7774 -0.06,-14.7969 -0.06,-4.082 -0.06,-8.6016 -0.14,-13.543 0,-4.6484 0.74,-9.5273 2.23,-14.5468 1.44,-5.0625 2.19,-8.3203 2.19,-9.7422 0,-2.5586 -1.18,-4.8906 -3.44,-6.9805 -2.25,-2.0703 -4.84,-3.1172 -7.76,-3.1172 -2.44,0 -4.82,1.168 -7.24,3.5469 -2.34,2.4219 -4.88,5.9023 -7.54,10.4102"
         style="fill:#f68413;fill-opacity:1;fill-rule:nonzero;stroke:none"
         transform="matrix(0.13333333,0,0,-0.13333333,0,649.58667)" />
      <path
         id="path12"
         d="M 3085.89,123.441 V 51.8594 c 0,-5 -1.13,-8.75 -3.38,-11.2891 -2.27,-2.5 -5.14,-3.8086 -8.61,-3.8086 -3.48,0 -6.35,1.3086 -8.5,3.8867 -2.19,2.6329 -3.26,6.3399 -3.26,11.211 V 122.73 c 0,4.872 1.07,8.559 3.26,11.04 2.15,2.5 5.02,3.75 8.5,3.75 3.47,0 6.34,-1.25 8.61,-3.75 2.25,-2.481 3.38,-5.918 3.38,-10.329 z m -11.76,25.618 c -3.28,0 -6.09,1.062 -8.46,3.23 -2.34,2.109 -3.53,5.133 -3.53,9 0,3.5 1.21,6.371 3.63,8.672 2.38,2.289 5.2,3.359 8.36,3.359 3.07,0 5.84,-1.011 8.22,-3.05 2.35,-2.051 3.54,-5.09 3.54,-8.981 0,-3.828 -1.15,-6.801 -3.46,-8.93 -2.34,-2.16 -5.12,-3.3 -8.3,-3.3"
         style="fill:#f68413;fill-opacity:1;fill-rule:nonzero;stroke:none"
         transform="matrix(0.13333333,0,0,-0.13333333,0,649.58667)" />
      <path
         id="path13"
         d="m 3132.02,123.789 v -2.949 c 4.14,5.719 8.73,9.941 13.65,12.64 4.98,2.668 10.67,4.04 17.15,4.04 6.23,0 11.83,-1.411 16.79,-4.301 4.88,-2.828 8.59,-6.809 11.02,-12.008 1.56,-3.063 2.55,-6.352 3.04,-9.84 0.43,-3.5 0.71,-7.973 0.71,-13.4218 V 51.8594 c 0,-5 -1.14,-8.75 -3.29,-11.2891 -2.16,-2.5 -5.02,-3.8086 -8.47,-3.8086 -3.52,0 -6.41,1.3086 -8.54,3.8985 -2.22,2.6211 -3.35,6.3281 -3.35,11.1992 v 41.25 c 0,8.2186 -1.05,14.4496 -3.22,18.7696 -2.23,4.332 -6.56,6.5 -13.07,6.5 -4.22,0 -8.06,-1.309 -11.56,-3.969 -3.48,-2.59 -6.01,-6.23 -7.64,-10.84 -1.15,-3.6911 -1.75,-10.5583 -1.75,-20.7419 V 51.8594 c 0,-5.0391 -1.12,-8.8281 -3.36,-11.3477 -2.25,-2.4804 -5.12,-3.75 -8.64,-3.75 -3.41,0 -6.25,1.3086 -8.43,3.8867 -2.23,2.6329 -3.32,6.3399 -3.32,11.211 v 71.5816 c 0,4.719 0.97,8.219 2.97,10.559 1.95,2.352 4.68,3.52 8.08,3.52 2.07,0 3.99,-0.551 5.63,-1.559 1.73,-1 3.04,-2.602 4.06,-4.59 0.99,-2.109 1.54,-4.609 1.54,-7.582"
         style="fill:#f68413;fill-opacity:1;fill-rule:nonzero;stroke:none"
         transform="matrix(0.13333333,0,0,-0.13333333,0,649.58667)" />
      <path
         id="path14"
         d="m 3232.47,122.09 19.18,-56.2697 20.7,58.7307 c 1.66,4.711 3.25,8.027 4.83,10.019 1.6,1.93 3.94,2.95 7.13,2.95 3.02,0 5.58,-1.051 7.75,-3.219 2.07,-2.09 3.15,-4.512 3.15,-7.352 0,-1.09 -0.22,-2.34 -0.59,-3.75 -0.35,-1.48 -0.78,-2.847 -1.29,-4.14 -0.51,-1.231 -1.02,-2.707 -1.7,-4.329 l -22.81,-58.9917 c -0.65,-1.6992 -1.49,-3.8594 -2.48,-6.4766 -1.04,-2.582 -2.17,-4.7734 -3.4,-6.6836 -1.27,-1.8164 -2.79,-3.2187 -4.59,-4.2578 -1.86,-1.0312 -4.08,-1.5586 -6.7,-1.5586 -3.36,0 -6.03,0.7969 -8.05,2.3789 -2.01,1.6211 -3.49,3.3594 -4.43,5.2891 -0.94,1.8789 -2.58,5.6719 -4.82,11.3086 l -22.63,58.3397 c -0.53,1.453 -1.08,2.91 -1.64,4.363 -0.53,1.438 -0.96,2.911 -1.37,4.43 -0.35,1.559 -0.57,2.848 -0.57,3.891 0,1.738 0.49,3.398 1.51,5.078 0.98,1.66 2.36,3.039 4.07,4.082 1.76,1.047 3.61,1.598 5.66,1.598 3.93,0 6.65,-1.168 8.13,-3.59 1.48,-2.328 3.14,-6.289 4.96,-11.84"
         style="fill:#f68413;fill-opacity:1;fill-rule:nonzero;stroke:none"
         transform="matrix(0.13333333,0,0,-0.13333333,0,649.58667)" />
      <path
         id="path15"
         d="m 3329.62,95.1797 h 43.05 c -0.57,8.4293 -2.74,14.7813 -6.57,18.9613 -3.81,4.199 -8.81,6.308 -15.02,6.308 -5.87,0 -10.76,-2.129 -14.53,-6.39 -3.81,-4.239 -6.07,-10.559 -6.93,-18.8793 z m 46.46,-14.1094 h -46.46 c 0.02,-5.6601 1.15,-10.582 3.22,-14.9219 2.17,-4.25 4.96,-7.5 8.46,-9.6992 3.51,-2.1875 7.4,-3.25 11.64,-3.25 2.83,0 5.45,0.3399 7.77,1 2.35,0.7422 4.63,1.8203 6.86,3.3008 2.17,1.4805 4.18,3.0313 6.05,4.7891 1.84,1.6797 4.32,3.9414 7.21,6.8711 1.25,1.1289 2.99,1.6406 5.23,1.6406 2.47,0 4.42,-0.6602 5.92,-2.0899 1.53,-1.4023 2.25,-3.3398 2.25,-5.8828 0,-2.2383 -0.82,-4.8593 -2.52,-7.8867 -1.68,-2.9531 -4.16,-5.8398 -7.62,-8.6328 -3.4,-2.7383 -7.65,-4.9805 -12.79,-6.8398 -5.1,-1.8086 -10.98,-2.7071 -17.7,-2.7071 -15.23,0 -27.11,4.5664 -35.54,13.6094 -8.44,9.1172 -12.68,21.4102 -12.68,36.918 0,7.4023 1.08,14.1599 3.13,20.4099 2.09,6.27 5.11,11.641 9.12,16.09 4,4.512 8.9,7.973 14.78,10.332 5.88,2.379 12.35,3.598 19.51,3.598 9.22,0 17.19,-2.059 23.83,-6.16 6.66,-4.079 11.62,-9.329 14.92,-15.778 3.32,-6.519 4.96,-13.082 4.96,-19.8396 0,-6.2109 -1.66,-10.2617 -5.11,-12.0703 -3.46,-1.9023 -8.23,-2.8008 -14.44,-2.8008"
         style="fill:#f68413;fill-opacity:1;fill-rule:nonzero;stroke:none"
         transform="matrix(0.13333333,0,0,-0.13333333,0,649.58667)" />
      <path
         id="path16"
         d="m 3500.83,67.4414 c 0,-3.0625 -0.88,-6.3828 -2.68,-9.8828 -1.77,-3.5195 -4.43,-6.8398 -8.08,-10.0195 -3.61,-3.1602 -8.2,-5.7383 -13.73,-7.6602 -5.49,-1.9687 -11.72,-2.9101 -18.58,-2.9101 -14.7,0 -26.15,4.4609 -34.37,13.3828 -8.2,8.9297 -12.36,20.8593 -12.36,35.8789 0,10.1601 1.87,19.1795 5.68,26.9685 3.77,7.781 9.18,13.852 16.33,18.09 7.11,4.301 15.66,6.43 25.58,6.43 6.16,0 11.76,-0.957 16.94,-2.821 5.11,-1.886 9.43,-4.308 13.04,-7.257 3.58,-2.969 6.27,-6.141 8.19,-9.493 1.85,-3.339 2.81,-6.488 2.81,-9.398 0,-2.93 -1.04,-5.43 -3.22,-7.52 -2.09,-2.0503 -4.65,-3.0816 -7.66,-3.0816 -1.99,0 -3.61,0.5625 -4.88,1.6211 -1.35,1.0315 -2.8,2.6915 -4.46,5.0895 -2.89,4.59 -5.89,8.071 -9.06,10.411 -3.16,2.289 -7.19,3.46 -12.07,3.46 -6.97,0 -12.65,-2.89 -16.93,-8.609 -4.32,-5.762 -6.45,-13.5624 -6.45,-23.4999 0,-4.6523 0.59,-8.9609 1.64,-12.8516 1.12,-3.9297 2.72,-7.2304 4.81,-10 2.09,-2.75 4.63,-4.8398 7.58,-6.25 2.91,-1.4492 6.17,-2.1484 9.72,-2.1484 4.75,0 8.85,1.1289 12.23,3.4375 3.38,2.3203 6.41,5.8398 9.02,10.5117 1.45,2.8516 2.99,5 4.69,6.6016 1.66,1.5781 3.71,2.3164 6.17,2.3164 2.87,0 5.31,-1.1094 7.17,-3.418 1.95,-2.3398 2.93,-4.7617 2.93,-7.3789"
         style="fill:#f68413;fill-opacity:1;fill-rule:nonzero;stroke:none"
         transform="matrix(0.13333333,0,0,-0.13333333,0,649.58667)" />
      <path
         id="path17"
         d="m 3522.88,135.41 h 2.62 v 14.918 c 0,3.953 0.1,7.133 0.31,9.383 0.2,2.277 0.72,4.199 1.7,5.84 0.9,1.679 2.25,3.078 4,4.14 1.72,1.047 3.66,1.539 5.8,1.539 3.01,0 5.75,-1.171 8.17,-3.5 1.6,-1.601 2.65,-3.492 3.08,-5.742 0.45,-2.277 0.65,-5.539 0.65,-9.699 V 135.41 h 8.73 c 3.36,0 5.94,-0.82 7.69,-2.5 1.8,-1.66 2.66,-3.769 2.66,-6.371 0,-3.34 -1.25,-5.699 -3.81,-7.008 -2.5,-1.312 -6.11,-1.972 -10.82,-1.972 h -4.45 V 71.9102 c 0,-3.8789 0.14,-6.8711 0.39,-8.9805 0.29,-2.1094 1.03,-3.7891 2.15,-5.0586 1.09,-1.332 2.93,-1.9922 5.51,-1.9922 1.38,0 3.26,0.25 5.66,0.7813 2.32,0.5117 4.18,0.7617 5.55,0.7617 1.89,0 3.67,-0.8203 5.17,-2.3633 1.51,-1.6367 2.31,-3.5781 2.31,-5.957 0,-3.9805 -2.05,-7.0313 -6.25,-9.1797 -4.22,-2.1133 -10.2,-3.1602 -18.01,-3.1602 -7.42,0 -13.07,1.3086 -16.9,3.8985 -3.8,2.6211 -6.34,6.1992 -7.5,10.8398 -1.21,4.6094 -1.79,10.7305 -1.79,18.4219 v 47.6371 h -3.17 c -3.36,0 -5.97,0.82 -7.79,2.543 -1.82,1.679 -2.69,3.828 -2.69,6.437 0,2.602 0.93,4.711 2.79,6.371 1.91,1.68 4.65,2.5 8.24,2.5"
         style="fill:#f68413;fill-opacity:1;fill-rule:nonzero;stroke:none"
         transform="matrix(0.13333333,0,0,-0.13333333,0,649.58667)" />
      <path
         id="path18"
         d="m 3649.66,87.0898 c 0,10.0821 -2.15,17.9692 -6.39,23.5902 -4.3,5.59 -9.98,8.441 -17.19,8.441 -4.64,0 -8.73,-1.269 -12.26,-3.769 -3.56,-2.543 -6.27,-6.25 -8.17,-11.153 -1.91,-4.8592 -2.89,-10.5506 -2.89,-17.1092 0,-6.4804 0.98,-12.1289 2.86,-16.9492 1.87,-4.8515 4.55,-8.5625 8.06,-11.1406 3.5,-2.5508 7.62,-3.8203 12.4,-3.8203 7.21,0 12.89,2.8086 17.19,8.4687 4.24,5.6329 6.39,13.4805 6.39,23.4414 z m 23.83,0 c 0,-7.3398 -1.1,-14.1601 -3.32,-20.4296 -2.19,-6.1719 -5.39,-11.5586 -9.55,-16.0313 -4.18,-4.5 -9.18,-7.8594 -14.97,-10.3203 -5.8,-2.3789 -12.28,-3.5469 -19.57,-3.5469 -7.22,0 -13.69,1.168 -19.41,3.6289 -5.72,2.3985 -10.72,5.8789 -14.9,10.3907 -4.2,4.5078 -7.4,9.8085 -9.55,15.9375 -2.17,6.1914 -3.25,12.9531 -3.25,20.4101 0,7.5 1.08,14.3511 3.25,20.5901 2.26,6.25 5.37,11.543 9.49,15.992 4.14,4.418 9.12,7.809 14.96,10.199 5.92,2.379 12.36,3.61 19.41,3.61 7.21,0 13.7,-1.231 19.57,-3.649 5.86,-2.402 10.86,-5.883 15.04,-10.371 4.14,-4.48 7.39,-9.809 9.53,-16 2.17,-6.148 3.27,-12.9687 3.27,-20.4102"
         style="fill:#f68413;fill-opacity:1;fill-rule:nonzero;stroke:none"
         transform="matrix(0.13333333,0,0,-0.13333333,0,649.58667)" />
      <path
         id="path19"
         d="M 3715.79,72.4805 V 51.8594 c 0,-5.0391 -1.13,-8.8281 -3.4,-11.3477 -2.26,-2.4804 -5.13,-3.75 -8.63,-3.75 -3.4,0 -6.23,1.3086 -8.42,3.8086 -2.21,2.5391 -3.28,6.2891 -3.28,11.2891 V 120.82 c 0,11.149 3.83,16.7 11.54,16.7 3.91,0 6.78,-1.329 8.54,-3.911 1.72,-2.589 2.64,-6.461 2.87,-11.519 2.83,5.058 5.76,8.93 8.75,11.519 2.99,2.582 6.95,3.911 11.91,3.911 5.04,0 9.85,-1.329 14.57,-3.911 4.67,-2.589 7.05,-6.05 7.05,-10.347 0,-3.032 -1.03,-5.543 -3.02,-7.481 -1.98,-1.953 -4.14,-2.972 -6.49,-2.972 -0.86,0 -2.97,0.57 -6.31,1.703 -3.34,1.117 -6.28,1.699 -8.84,1.699 -3.46,0 -6.29,-0.941 -8.48,-2.891 -2.21,-1.929 -3.93,-4.73 -5.16,-8.48 -1.21,-3.77 -2.09,-8.2189 -2.52,-13.4103 -0.44,-5.1406 -0.68,-11.4492 -0.68,-18.9492"
         style="fill:#f68413;fill-opacity:1;fill-rule:nonzero;stroke:none"
         transform="matrix(0.13333333,0,0,-0.13333333,0,649.58667)" />
      <path
         id="path20"
         d="m 3842.28,69.1406 c 0,-6.8515 -1.61,-12.6914 -4.83,-17.582 -3.2,-4.8789 -7.91,-8.5273 -14.14,-11.0703 -6.25,-2.457 -13.81,-3.7266 -22.79,-3.7266 -8.46,0 -15.8,1.3672 -21.92,4.0977 -6.07,2.7109 -10.58,6.1094 -13.45,10.1797 -2.93,4.0625 -4.42,8.1601 -4.42,12.2617 0,2.7383 0.96,5.0781 2.85,6.9883 1.84,1.9804 4.2,2.9101 7.02,2.9101 2.5,0 4.43,-0.6406 5.76,-1.8906 1.35,-1.3281 2.58,-3.0898 3.83,-5.3672 2.44,-4.4414 5.33,-7.7422 8.77,-9.9219 3.33,-2.2109 7.98,-3.2695 13.88,-3.2695 4.73,0 8.63,1.1211 11.68,3.3203 3.03,2.211 4.61,4.7305 4.61,7.5781 0,4.3829 -1.62,7.5625 -4.75,9.5313 -3.2,2.0508 -8.37,3.9492 -15.64,5.75 -8.16,2.1289 -14.82,4.3516 -19.96,6.6601 -5.14,2.3399 -9.3,5.4493 -12.34,9.2305 -3.07,3.7695 -4.63,8.4997 -4.63,14.0707 0,4.98 1.42,9.679 4.27,14.058 2.84,4.43 7.07,7.949 12.6,10.61 5.53,2.632 12.21,3.961 20.06,3.961 6.13,0 11.66,-0.68 16.58,-2.008 4.89,-1.313 9.03,-3.133 12.25,-5.352 3.28,-2.25 5.8,-4.711 7.5,-7.43 1.74,-2.75 2.58,-5.41 2.58,-8 0,-2.851 -0.9,-5.14 -2.76,-7.011 -1.83,-1.758 -4.45,-2.68 -7.77,-2.68 -2.46,0 -4.51,0.699 -6.25,2.191 -1.68,1.442 -3.67,3.61 -5.86,6.481 -1.8,2.418 -3.91,4.379 -6.37,5.82 -2.44,1.449 -5.74,2.188 -9.9,2.188 -4.3,0 -7.89,-0.957 -10.68,-2.867 -2.85,-1.903 -4.3,-4.282 -4.3,-7.133 0,-2.617 1.05,-4.75 3.12,-6.41 2.11,-1.661 4.91,-3.039 8.46,-4.137 3.56,-1.094 8.42,-2.4611 14.63,-4.0001 7.36,-1.8633 13.38,-4.1016 18.05,-6.7227 4.67,-2.5781 8.2,-5.6406 10.6,-9.1992 2.44,-3.5703 3.66,-7.6016 3.66,-12.1094"
         style="fill:#f68413;fill-opacity:1;fill-rule:nonzero;stroke:none"
         transform="matrix(0.13333333,0,0,-0.13333333,0,649.58667)" />
      <path
         id="path21"
         d="m 3869.23,36.7617 c -3.6,0 -6.7,1.168 -9.28,3.6289 -2.66,2.3985 -3.94,5.8203 -3.94,10.1407 0,3.6679 1.23,6.8671 3.69,9.5273 2.5,2.6602 5.6,3.9609 9.26,3.9609 3.63,0 6.75,-1.3007 9.27,-3.9414 2.62,-2.5781 3.93,-5.8164 3.93,-9.5468 0,-4.2813 -1.31,-7.6602 -3.93,-10.1016 -2.52,-2.4414 -5.52,-3.668 -9,-3.668"
         style="fill:#f68413;fill-opacity:1;fill-rule:nonzero;stroke:none"
         transform="matrix(0.13333333,0,0,-0.13333333,0,649.58667)" />
      <path
         id="path22"
         d="m 3974.23,87.0898 c 0,10.0821 -2.15,17.9692 -6.41,23.5902 -4.26,5.59 -9.96,8.441 -17.15,8.441 -4.64,0 -8.69,-1.269 -12.24,-3.769 -3.56,-2.543 -6.27,-6.25 -8.17,-11.153 -1.89,-4.8592 -2.87,-10.5506 -2.87,-17.1092 0,-6.4804 0.92,-12.1289 2.8,-16.9492 1.93,-4.8515 4.6,-8.5625 8.12,-11.1406 3.5,-2.5508 7.62,-3.8203 12.36,-3.8203 7.19,0 12.89,2.8086 17.15,8.4687 4.26,5.6329 6.41,13.4805 6.41,23.4414 z m 23.87,0 c 0,-7.3398 -1.1,-14.1601 -3.34,-20.4296 -2.21,-6.1719 -5.38,-11.5586 -9.55,-16.0313 -4.2,-4.5 -9.13,-7.8594 -14.97,-10.3203 -5.78,-2.3789 -12.3,-3.5469 -19.57,-3.5469 -7.18,0 -13.65,1.168 -19.39,3.6289 -5.74,2.3985 -10.68,5.8789 -14.88,10.3907 -4.26,4.5078 -7.43,9.8085 -9.63,15.9375 -2.13,6.1914 -3.23,12.9531 -3.23,20.4101 0,7.5 1.1,14.3511 3.31,20.5901 2.24,6.25 5.35,11.543 9.45,15.992 4.12,4.418 9.12,7.809 14.98,10.199 5.86,2.379 12.28,3.61 19.39,3.61 7.19,0 13.71,-1.231 19.57,-3.649 5.88,-2.402 10.88,-5.883 15.06,-10.371 4.16,-4.48 7.33,-9.809 9.53,-16 2.17,-6.148 3.27,-12.9687 3.27,-20.4102"
         style="fill:#f68413;fill-opacity:1;fill-rule:nonzero;stroke:none"
         transform="matrix(0.13333333,0,0,-0.13333333,0,649.58667)" />
      <path
         id="path23"
         d="M 4040.38,72.4805 V 51.8594 c 0,-5.0391 -1.13,-8.8281 -3.38,-11.3477 -2.24,-2.4804 -5.13,-3.75 -8.59,-3.75 -3.48,0 -6.25,1.3086 -8.48,3.8086 -2.21,2.5391 -3.3,6.2891 -3.3,11.2891 V 120.82 c 0,11.149 3.91,16.7 11.58,16.7 3.95,0 6.76,-1.329 8.5,-3.911 1.72,-2.589 2.73,-6.461 2.93,-11.519 2.79,5.058 5.7,8.93 8.69,11.519 2.99,2.582 6.99,3.911 11.93,3.911 5.06,0 9.91,-1.329 14.55,-3.911 4.71,-2.589 7.07,-6.05 7.07,-10.347 0,-3.032 -1.01,-5.543 -2.98,-7.481 -2.03,-1.953 -4.16,-2.972 -6.53,-2.972 -0.84,0 -2.93,0.57 -6.27,1.703 -3.34,1.117 -6.29,1.699 -8.86,1.699 -3.46,0 -6.27,-0.941 -8.54,-2.891 -2.17,-1.929 -3.89,-4.73 -5.12,-8.48 -1.19,-3.77 -2.05,-8.2189 -2.5,-13.4103 -0.45,-5.1406 -0.7,-11.4492 -0.7,-18.9492"
         style="fill:#f68413;fill-opacity:1;fill-rule:nonzero;stroke:none"
         transform="matrix(0.13333333,0,0,-0.13333333,0,649.58667)" />
      <path
         id="path24"
         d="m 4108.94,87.9492 c 0,-10.0195 2.1,-17.6406 6.32,-22.789 4.18,-5.1211 9.65,-7.7383 16.27,-7.7383 3.93,0 7.7,1.1484 11.19,3.3594 3.52,2.2304 6.37,5.5273 8.6,9.9804 2.21,4.4688 3.28,9.8477 3.28,16.1875 0,10.1016 -2.15,17.9488 -6.41,23.5818 -4.23,5.68 -9.86,8.489 -16.79,8.489 -6.76,0 -12.23,-2.75 -16.29,-8.079 -4.12,-5.429 -6.17,-13.0504 -6.17,-22.9918 z m 68.82,31.4298 V 47.3594 c 0,-8.2383 -0.89,-15.3281 -2.54,-21.2305 -1.68,-5.9492 -4.39,-10.8594 -8.08,-14.7187 -3.71,-3.87114 -8.6,-6.71879 -14.55,-8.62114 C 4146.57,0.960938 4139.09,0 4130.19,0 c -8.21,0 -15.53,1.14844 -21.94,3.55859 -6.44,2.44141 -11.4,5.48047 -14.88,9.29301 -3.48,3.75 -5.24,7.6367 -5.24,11.6601 0,3.0274 0.98,5.4883 2.99,7.3867 1.96,1.9532 4.34,2.8907 7.11,2.8907 3.5,0 6.51,-1.6289 9.16,-4.8086 1.27,-1.6797 2.62,-3.3203 3.95,-4.961 1.35,-1.6797 2.85,-3.1211 4.51,-4.2812 1.66,-1.207 3.67,-2.0664 6,-2.6485 2.26,-0.5898 4.96,-0.8593 7.98,-0.8593 6.12,0 10.94,0.8984 14.3,2.6679 3.4,1.7813 5.78,4.2813 7.17,7.4805 1.31,3.2109 2.17,6.6211 2.3,10.3008 0.3,3.7109 0.45,9.5703 0.61,17.6914 -3.65,-5.3125 -7.93,-9.3711 -12.68,-12.1523 -4.76,-2.7891 -10.49,-4.1407 -17.05,-4.1407 -8.01,0 -14.96,2.0703 -20.86,6.3321 -5.97,4.2382 -10.54,10.1406 -13.73,17.8086 -3.14,7.582 -4.78,16.3906 -4.78,26.3906 0,7.4804 0.95,14.2186 2.95,20.2106 1.89,5.961 4.65,11.02 8.3,15.141 3.55,4.117 7.73,7.23 12.42,9.32 4.73,2.071 9.82,3.117 15.49,3.117 6.7,0 12.54,-1.359 17.46,-4.058 4.98,-2.66 9.51,-6.93 13.75,-12.66 V 124 c 0,4.34 1.05,7.621 3.05,10.059 2.03,2.332 4.64,3.543 7.81,3.543 4.61,0 7.65,-1.563 9.18,-4.692 1.48,-3.121 2.24,-7.66 2.24,-13.531"
         style="fill:#f68413;fill-opacity:1;fill-rule:nonzero;stroke:none"
         transform="matrix(0.13333333,0,0,-0.13333333,0,649.58667)" />
      <path
         id="path25"
         d="m 3148.58,360.691 h 35.23 c -2.5,-19 -10.27,-33.82 -23.21,-44.492 -11.98,-10.429 -26.49,-15.578 -43.44,-15.578 -22.99,0 -41.37,8.059 -55.06,24.199 -13.01,15.328 -19.49,35.129 -19.49,59.328 0,24.793 6.44,44.614 19.31,59.614 12.82,14.937 31.02,22.457 54.48,22.457 17.46,0 32.22,-4.727 44.2,-14.098 12.7,-10.121 20.45,-24.34 23.21,-42.582 h -35.23 c -3.02,15.902 -12.75,23.832 -29.27,23.832 -27.21,0 -40.88,-16.133 -40.88,-48.402 0,-15.117 3.53,-27.457 10.53,-37.09 7.01,-9.649 16.87,-14.469 29.62,-14.469 18.97,0 28.99,9.102 30,27.281 z m -138.67,22.207 c 0,-31.519 10,-58.199 29.98,-79.918 19.98,-21.761 44.44,-32.652 73.46,-32.652 28.93,0 53.4,10.891 73.35,32.652 20,21.719 29.93,48.399 29.93,79.918 0,31.5 -9.93,58.172 -29.93,79.922 -19.95,21.762 -44.42,32.641 -73.35,32.641 -29.02,0 -53.48,-10.879 -73.46,-32.641 -19.98,-21.75 -29.98,-48.422 -29.98,-79.922 z m -35.76,0 c 0,40.122 13.57,74.34 40.74,102.793 27.19,28.379 60.02,42.579 98.46,42.579 38.38,0 71.14,-14.2 98.37,-42.579 27.18,-28.453 40.79,-62.671 40.79,-102.793 0,-40.136 -13.61,-74.41 -40.79,-102.789 -27.23,-28.429 -59.99,-42.629 -98.37,-42.629 -38.44,0 -71.27,14.2 -98.46,42.629 -27.17,28.379 -40.74,62.653 -40.74,102.789"
         style="fill:#f68413;fill-opacity:1;fill-rule:nonzero;stroke:none"
         transform="matrix(0.13333333,0,0,-0.13333333,0,649.58667)" />
      <path
         id="path26"
         d="m 3030.46,291.73 20.29,-17.218 149.31,191.687 -20.29,17.192 -149.31,-191.661"
         style="fill:#f68413;fill-opacity:1;fill-rule:nonzero;stroke:none"
         transform="matrix(0.13333333,0,0,-0.13333333,0,649.58667)" />
      <path
         id="path27"
         d="M 2139.26,1574.84 3980.7,2156.7 2986.21,2465.05 Z"
         style="fill:#d7c9c4;fill-opacity:1;fill-rule:evenodd;stroke:none"
         transform="matrix(0.13333333,0,0,-0.13333333,0,649.58667)" />
      <path
         id="path28"
         d="m 454.797,4142.37 2487.573,632.08 248.02,-71.78 1305.48,-1198.99 -3.69,-41.17 -2577.07,-714.19 -70.87,20.52 L 454.797,4044.9 v 97.47"
         style="fill:#ec6819;fill-opacity:1;fill-rule:evenodd;stroke:none"
         transform="matrix(0.13333333,0,0,-0.13333333,0,649.58667)" />
      <path
         id="path29"
         d="m 458.508,4183.55 2483.862,688.35 248.02,-71.76 1305.48,-1198.99 -3.69,-41.15 -2577.07,-714.21 -70.85,20.47 -1389.463,1276.11 3.711,41.18"
         style="fill:#f68413;fill-opacity:1;fill-rule:evenodd;stroke:none"
         transform="matrix(0.13333333,0,0,-0.13333333,0,649.58667)" />
      <path
         id="path30"
         d="m 4292.57,3504.67 -2177.86,-603.58 -723.72,664.68 c -37.16,34.11 -12.21,77.37 55.43,96.11 l 1931.9,535.41 c 67.63,18.76 153.37,6.16 190.54,-27.96 l 723.71,-664.66"
         style="fill:#efe4e1;fill-opacity:1;fill-rule:evenodd;stroke:none"
         transform="matrix(0.13333333,0,0,-0.13333333,0,649.58667)" />
      <path
         id="path31"
         d="m 1514.42,3452.39 -123.43,113.38 c -37.16,34.11 -12.21,77.37 55.43,96.11 l 1931.9,535.41 c 67.63,18.76 153.37,6.16 190.54,-27.96 l 123.43,-113.37 -2177.87,-603.57"
         style="fill:#d74520;fill-opacity:1;fill-rule:evenodd;stroke:none"
         transform="matrix(0.13333333,0,0,-0.13333333,0,649.58667)" />
      <path
         id="path32"
         d="m 658.102,4238.85 1788.138,495.56 426.05,-391.3 c 26.54,-24.39 8.74,-55.3 -39.6,-68.69 L 1220.31,3827.57 c -48.32,-13.39 -109.59,-4.4 -136.14,19.98 l -426.068,391.3"
         style="fill:#ec6819;fill-opacity:1;fill-rule:evenodd;stroke:none"
         transform="matrix(0.13333333,0,0,-0.13333333,0,649.58667)" />
      <path
         id="path33"
         d="m 1883.61,4565.94 c -18.92,-5.24 -25.89,-17.34 -15.51,-26.88 l 390.39,-358.54 c 10.39,-9.53 34.36,-13.06 53.27,-7.81 l 278.93,77.3 c 18.9,5.24 25.9,17.33 15.5,26.88 l -390.39,358.52 c -10.4,9.55 -34.37,13.06 -53.28,7.84 z m -882.76,-217.04 1413.69,391.78 426.06,-391.31 c 26.53,-24.37 8.73,-55.28 -39.61,-68.67 L 1563.06,3937.62 c -48.34,-13.41 -109.6,-4.41 -136.16,19.98 l -426.05,391.3 v 0"
         style="fill:#efe4e1;fill-opacity:1;fill-rule:evenodd;stroke:none"
         transform="matrix(0.13333333,0,0,-0.13333333,0,649.58667)" />
      <path
         id="path34"
         d="m 4375.74,4015.65 1960.77,-888.96 v -100.25 l -33.8,-157.11 -1917.33,-967.34 -88.97,-4.84 -2059.94,1039.23 v 100.28 l 2050.3,974.12 88.97,4.87"
         style="fill:#2f2825;fill-opacity:1;fill-rule:evenodd;stroke:none"
         transform="matrix(0.13333333,0,0,-0.13333333,0,649.58667)" />
      <path
         id="path35"
         d="m 4375.74,4115.92 1960.77,-989.23 -33.8,-157.11 -1917.33,-967.31 -88.97,-4.88 -2059.93,1039.27 9.65,44.87 2040.64,1029.52 88.97,4.87"
         style="fill:#463d3b;fill-opacity:1;fill-rule:evenodd;stroke:none"
         transform="matrix(0.13333333,0,0,-0.13333333,0,649.58667)" />
      <path
         id="path36"
         d="m 4144.95,2073.82 -1757.02,886.42 1062.89,536.24 c 54.57,27.52 143.87,27.52 198.44,0 l 1558.6,-786.33 c 54.57,-27.54 54.57,-72.56 0,-100.1 L 4144.95,2073.82"
         style="fill:#d7c9c4;fill-opacity:1;fill-rule:evenodd;stroke:none"
         transform="matrix(0.13333333,0,0,-0.13333333,0,649.58667)" />
      <path
         id="path37"
         d="m 3269.54,3405.03 181.28,91.45 c 54.57,27.52 143.87,27.52 198.44,0 l 1558.6,-786.33 c 54.57,-27.54 54.57,-72.56 0,-100.1 l -181.29,-91.48 -1757.03,886.46"
         style="fill:#d74520;fill-opacity:1;fill-rule:evenodd;stroke:none"
         transform="matrix(0.13333333,0,0,-0.13333333,0,649.58667)" />
      <path
         id="path38"
         d="m 4527.19,4039.51 1442.6,-727.82 -625.75,-315.68 c -38.98,-19.67 -102.79,-19.67 -141.78,0 l -1300.8,656.27 c -39.01,19.67 -39.01,51.85 0,71.54 l 625.73,315.69"
         style="fill:#2f2825;fill-opacity:1;fill-rule:evenodd;stroke:none"
         transform="matrix(0.13333333,0,0,-0.13333333,0,649.58667)" />
      <path
         id="path39"
         d="m 5492,3537.2 c -15.26,7.71 -40.23,7.71 -55.48,0 l -573.35,-289.24 c -15.25,-7.72 -15.25,-20.29 0,-28 l 225.03,-113.52 c 15.28,-7.72 40.22,-7.72 55.5,0 l 573.33,289.23 c 15.27,7.71 15.27,20.29 0,28 z m -659.65,367.01 1140.54,-575.4 -625.74,-315.69 c -39.02,-19.67 -102.8,-19.67 -141.82,0 l -998.72,503.86 c -38.98,19.67 -39,51.87 0,71.54 l 625.74,315.69 v 0"
         style="fill:#d7c9c4;fill-opacity:1;fill-rule:evenodd;stroke:none"
         transform="matrix(0.13333333,0,0,-0.13333333,0,649.58667)" />
      <path
         id="path40"
         d="m 0,2654.11 v 87.17 l 1960.77,902.02 311.44,-17.02 1926.98,-925 v -87.19 L 2139.26,1574.84 2050.28,1579.72 9.65234,2609.23 0,2654.11"
         style="fill:#2c56ab;fill-opacity:1;fill-rule:evenodd;stroke:none"
         transform="matrix(0.13333333,0,0,-0.13333333,0,649.58667)" />
      <path
         id="path41"
         d="m 0,2741.28 1960.77,989.22 311.44,-17.04 1917.33,-967.32 9.65,-44.86 -2059.93,-1039.26 -88.97,4.88 L 9.65234,2696.41 0,2741.28"
         style="fill:#4677c5;fill-opacity:1;fill-rule:evenodd;stroke:none"
         transform="matrix(0.13333333,0,0,-0.13333333,0,649.58667)" />
      <path
         id="path42"
         d="M 4047.74,2624.85 2290.7,1738.43 1227.81,2274.66 c -54.57,27.54 -54.57,72.59 0,100.12 l 1558.59,786.31 c 54.6,27.55 143.87,27.55 198.46,0 l 1062.88,-536.24"
         style="fill:#cde2f6;fill-opacity:1;fill-rule:evenodd;stroke:none"
         transform="matrix(0.13333333,0,0,-0.13333333,0,649.58667)" />
      <path
         id="path43"
         d="m 1409.09,2183.21 -181.28,91.45 c -54.57,27.54 -54.57,72.59 0,100.12 l 1558.59,786.31 c 54.6,27.55 143.87,27.55 198.46,0 l 181.28,-91.45 -1757.05,-886.43"
         style="fill:#f14c29;fill-opacity:1;fill-rule:evenodd;stroke:none"
         transform="matrix(0.13333333,0,0,-0.13333333,0,649.58667)" />
      <path
         id="path44"
         d="m 151.461,2817.72 1442.599,727.76 625.74,-315.66 c 39.01,-19.67 39.01,-51.88 0,-71.55 L 918.984,2502 C 880,2482.33 816.195,2482.33 777.191,2502 l -625.73,315.72"
         style="fill:#2c56ab;fill-opacity:1;fill-rule:evenodd;stroke:none"
         transform="matrix(0.13333333,0,0,-0.13333333,0,649.58667)" />
      <path
         id="path45"
         d="m 1147.09,3304.46 c -15.25,-7.71 -15.25,-20.31 0,-28 l 573.35,-289.26 c 15.25,-7.7 40.22,-7.7 55.49,0 l 225.01,113.53 c 15.26,7.71 15.26,20.29 0,27.99 l -573.33,289.24 c -15.27,7.72 -40.24,7.72 -55.49,0 z m -727.457,-332.81 1140.517,575.41 625.74,-315.69 c 38.99,-19.69 38.99,-51.87 0,-71.54 l -998.73,-503.86 c -38.99,-19.67 -102.79,-19.67 -141.79,0 l -625.737,315.68 v 0"
         style="fill:#cde2f6;fill-opacity:1;fill-rule:evenodd;stroke:none"
         transform="matrix(0.13333333,0,0,-0.13333333,0,649.58667)" />
    </g>
  </g>
</svg>
