<?xml version="1.0" encoding="UTF-8" standalone="no"?>
<!-- Created with Inkscape (http://www.inkscape.org/) -->

<svg
   version="1.1"
   id="svg1"
   width="742.52002"
   height="780.1333"
   viewBox="0 0 742.52002 780.1333"
   sodipodi:docname="full-water-bathtub.svg"
   inkscape:version="1.4 (e7c3feb100, 2024-10-09)"
   xmlns:inkscape="http://www.inkscape.org/namespaces/inkscape"
   xmlns:sodipodi="http://sodipodi.sourceforge.net/DTD/sodipodi-0.dtd"
   xmlns="http://www.w3.org/2000/svg"
   xmlns:svg="http://www.w3.org/2000/svg">
  <defs
     id="defs1" />
  <sodipodi:namedview
     id="namedview1"
     pagecolor="#505050"
     bordercolor="#ffffff"
     borderopacity="1"
     inkscape:showpageshadow="0"
     inkscape:pageopacity="0"
     inkscape:pagecheckerboard="1"
     inkscape:deskcolor="#d1d1d1"
     inkscape:zoom="1.0446933"
     inkscape:cx="371.40088"
     inkscape:cy="390.06665"
     inkscape:window-width="1920"
     inkscape:window-height="1002"
     inkscape:window-x="0"
     inkscape:window-y="0"
     inkscape:window-maximized="1"
     inkscape:current-layer="g1">
    <inkscape:page
       x="0"
       y="0"
       inkscape:label="1"
       id="page1"
       width="742.52002"
       height="780.1333"
       margin="0"
       bleed="0" />
  </sodipodi:namedview>
  <g
     id="g1"
     inkscape:groupmode="layer"
     inkscape:label="1">
    <g
       id="group-R5">
      <path
         id="path2"
         d="m 1676.06,100.262 c 0,7.519 -1.07,14 -3.31,19.308 -2.15,5.379 -5.19,9.532 -9.1,12.461 -3.89,2.84 -8.18,4.301 -12.91,4.301 -7.5,0 -13.84,-3.16 -18.99,-9.293 -5.16,-6.207 -7.74,-15.258 -7.74,-27.2577 0,-11.3204 2.58,-20.1094 7.66,-26.3125 5.16,-6.3086 11.52,-9.4688 19.07,-9.4688 4.5,0 8.73,1.3711 12.59,4.1484 3.8,2.7305 6.9,6.8438 9.24,12.2618 2.35,5.5312 3.49,12.1015 3.49,19.8518 z m -53.31,41.379 v -3.422 c 5.11,6.543 10.39,11.441 15.9,14.48 5.53,3.11 11.82,4.672 18.8,4.672 8.35,0 16.06,-2.269 23.11,-6.781 7.02,-4.508 12.58,-11.059 16.69,-19.758 4.08,-8.691 6.09,-18.922 6.09,-30.793 0,-8.707 -1.14,-16.8281 -3.5,-24.039 -2.35,-7.3203 -5.6,-13.5 -9.71,-18.4492 -4.12,-4.9492 -9.02,-8.7891 -14.59,-11.4219 -5.65,-2.7187 -11.7,-4.0273 -18.09,-4.0273 -7.81,0 -14.34,1.6289 -19.62,4.8867 -5.33,3.25 -10.33,8.0117 -15.08,14.3203 V 18.7188 C 1622.75,6.21875 1618.39,0 1609.69,0 c -5.11,0 -8.53,1.58984 -10.14,4.78906 -1.68,3.24219 -2.5,7.94924 -2.5,14.10154 V 141.449 c 0,5.403 1.09,9.453 3.37,12.11 2.3,2.652 5.38,4.011 9.27,4.011 3.85,0 6.99,-1.359 9.41,-4.14 2.42,-2.75 3.65,-6.7 3.65,-11.789"
         style="fill:#100f0d;fill-opacity:1;fill-rule:nonzero;stroke:none"
         transform="matrix(0.13333333,0,0,-0.13333333,0,780.13333)" />
      <path
         id="path3"
         d="m 1795.88,58.1602 v 3.582 c -3.27,-4.2813 -6.68,-7.8711 -10.28,-10.7734 -3.59,-2.9571 -7.5,-5.1094 -11.74,-6.5 -4.29,-1.418 -9.13,-2.1368 -14.58,-2.1368 -6.54,0 -12.43,1.4297 -17.66,4.25 -5.23,2.8282 -9.28,6.7578 -12.09,11.75 -3.44,6.0274 -5.09,14.6993 -5.09,25.9571 v 56.2739 c 0,5.648 1.22,9.917 3.69,12.718 2.46,2.801 5.7,4.219 9.74,4.219 4.13,0 7.43,-1.418 9.97,-4.289 2.53,-2.852 3.78,-7.082 3.78,-12.648 V 95.082 c 0,-6.5312 0.52,-12.082 1.55,-16.5117 1.12,-4.4883 3.02,-7.9883 5.8,-10.5586 2.7,-2.4922 6.46,-3.7617 11.17,-3.7617 4.64,0 8.94,1.4414 12.96,4.2695 4.09,2.8125 7.05,6.5118 8.89,11.0899 1.53,4.0312 2.29,12.832 2.29,26.4106 v 34.543 c 0,5.566 1.26,9.796 3.81,12.648 2.5,2.871 5.74,4.289 9.83,4.289 4.05,0 7.3,-1.418 9.76,-4.219 2.43,-2.801 3.64,-7.07 3.64,-12.718 V 58.332 c 0,-5.4101 -1.13,-9.4804 -3.49,-12.1523 -2.34,-2.7383 -5.37,-4.0586 -9.11,-4.0586 -3.71,0 -6.76,1.4375 -9.21,4.168 -2.42,2.8593 -3.63,6.7422 -3.63,11.8711"
         style="fill:#100f0d;fill-opacity:1;fill-rule:nonzero;stroke:none"
         transform="matrix(0.13333333,0,0,-0.13333333,0,780.13333)" />
      <path
         id="path4"
         d="m 1874.79,99.1406 c 0,-11.289 2.45,-19.9414 7.38,-26.0312 4.97,-6.0274 11.47,-9.1094 19.52,-9.1094 6.85,0 12.7,3.1211 17.69,9.3203 4.98,6.2188 7.45,15.0508 7.45,26.6485 0,7.5622 -1.04,13.9722 -3.1,19.3632 -2.08,5.438 -5.02,9.617 -8.77,12.539 -3.84,2.938 -8.2,4.461 -13.27,4.461 -5.23,0 -9.77,-1.523 -13.85,-4.461 -4.09,-2.922 -7.24,-7.211 -9.59,-12.801 -2.33,-5.539 -3.46,-12.16 -3.46,-19.9294 z m -1.29,84.3794 v -43.391 c 5.04,5.601 10.29,9.801 15.6,12.812 5.32,2.93 11.92,4.43 19.74,4.43 9.05,0 16.95,-2.269 23.76,-6.691 6.8,-4.551 12.11,-10.989 15.85,-19.481 3.79,-8.48 5.64,-18.558 5.64,-30.199 0,-8.6094 -1.03,-16.4805 -3.11,-23.7109 -2.1,-7.1368 -5.11,-13.3282 -9.11,-18.6602 -4.03,-5.2383 -8.87,-9.2695 -14.52,-12.25 -5.7,-2.8203 -11.96,-4.2773 -18.8,-4.2773 -4.15,0 -8.12,0.5273 -11.83,1.5468 -3.67,1.0508 -6.84,2.4102 -9.37,4.1602 -2.63,1.6016 -4.84,3.4219 -6.67,5.1719 -1.81,1.8398 -4.21,4.5195 -7.18,8.1211 V 58.332 c 0,-5.3711 -1.26,-9.4023 -3.72,-12.1523 -2.43,-2.7383 -5.61,-4.0781 -9.35,-4.0781 -3.88,0 -6.93,1.3398 -9.25,4.0781 -2.27,2.8086 -3.41,6.8008 -3.41,12.1523 v 123.957 c 0,5.711 1.1,10.07 3.36,13.012 2.21,2.961 5.29,4.418 9.3,4.418 4.16,0 7.4,-1.387 9.63,-4.227 2.28,-2.781 3.44,-6.75 3.44,-11.972"
         style="fill:#100f0d;fill-opacity:1;fill-rule:nonzero;stroke:none"
         transform="matrix(0.13333333,0,0,-0.13333333,0,780.13333)" />
      <path
         id="path5"
         d="M 1973.29,59.3789 V 182.469 c 0,5.711 1.2,9.98 3.59,12.91 2.48,2.883 5.73,4.34 9.85,4.34 4.12,0 7.42,-1.41 9.96,-4.309 2.48,-2.859 3.8,-7.211 3.8,-12.941 V 59.3789 c 0,-5.7578 -1.32,-10.0976 -3.86,-13 -2.54,-2.8203 -5.86,-4.2773 -9.9,-4.2773 -3.99,0 -7.19,1.5 -9.7,4.4804 -2.49,2.9883 -3.74,7.2266 -3.74,12.7969"
         style="fill:#100f0d;fill-opacity:1;fill-rule:nonzero;stroke:none"
         transform="matrix(0.13333333,0,0,-0.13333333,0,780.13333)" />
      <path
         id="path6"
         d="M 2055.76,141.371 V 59.3789 c 0,-5.7187 -1.33,-10.0195 -3.86,-12.9297 -2.61,-2.8476 -5.92,-4.3476 -9.87,-4.3476 -4,0 -7.24,1.5 -9.72,4.4492 -2.47,3.0195 -3.76,7.2578 -3.76,12.8281 v 81.1841 c 0,5.566 1.29,9.796 3.76,12.648 2.48,2.871 5.72,4.289 9.72,4.289 3.95,0 7.26,-1.418 9.87,-4.289 2.53,-2.852 3.86,-6.781 3.86,-11.84 z m -13.46,29.348 c -3.78,0 -6.99,1.211 -9.75,3.703 -2.61,2.41 -4,5.867 -4,10.32 0,4 1.39,7.278 4.16,9.918 2.75,2.61 5.94,3.832 9.59,3.832 3.52,0 6.66,-1.14 9.37,-3.492 2.71,-2.348 4.09,-5.82 4.09,-10.258 0,-4.41 -1.34,-7.82 -4,-10.242 -2.66,-2.461 -5.78,-3.781 -9.46,-3.781"
         style="fill:#100f0d;fill-opacity:1;fill-rule:nonzero;stroke:none"
         transform="matrix(0.13333333,0,0,-0.13333333,0,780.13333)" />
      <path
         id="path7"
         d="m 2181.28,77.25 c 0,-3.5078 -1,-7.3086 -3.01,-11.3398 -2.06,-4.0118 -5.14,-7.8204 -9.31,-11.4688 -4.12,-3.6211 -9.36,-6.5508 -15.67,-8.75 -6.3,-2.2812 -13.43,-3.3594 -21.31,-3.3594 -16.82,0 -29.92,5.1289 -39.37,15.3282 -9.41,10.2304 -14.13,23.8984 -14.13,41.1015 0,11.6483 2.15,21.9683 6.44,30.8793 4.31,8.89 10.61,15.859 18.75,20.718 8.15,4.922 17.95,7.36 29.26,7.36 7.07,0 13.54,-1.098 19.42,-3.219 5.87,-2.168 10.85,-4.949 14.94,-8.309 4.08,-3.41 7.19,-7.043 9.37,-10.859 2.17,-3.844 3.22,-7.441 3.22,-10.773 0,-3.348 -1.23,-6.227 -3.63,-8.61 -2.44,-2.379 -5.34,-3.539 -8.8,-3.539 -2.29,0 -4.14,0.653 -5.67,1.86 -1.45,1.171 -3.14,3.082 -5.02,5.839 -3.3,5.25 -6.8,9.231 -10.41,11.922 -3.63,2.598 -8.22,3.949 -13.76,3.949 -8.08,0 -14.56,-3.328 -19.46,-9.871 -4.93,-6.578 -7.35,-15.539 -7.35,-26.9098 0,-5.2969 0.63,-10.2695 1.9,-14.6992 1.25,-4.5 3.07,-8.2891 5.45,-11.4687 2.4,-3.1524 5.26,-5.5313 8.67,-7.1602 3.38,-1.6602 7.11,-2.4492 11.13,-2.4492 5.49,0 10.13,1.289 14.02,3.9297 3.9,2.6601 7.34,6.6875 10.32,12.0273 1.66,3.2734 3.45,5.7422 5.38,7.5703 1.95,1.8008 4.31,2.6602 7.09,2.6602 3.32,0 6.07,-1.2774 8.29,-3.9102 2.15,-2.6992 3.25,-5.4687 3.25,-8.4492"
         style="fill:#100f0d;fill-opacity:1;fill-rule:nonzero;stroke:none"
         transform="matrix(0.13333333,0,0,-0.13333333,0,780.13333)" />
      <path
         id="path8"
         d="m 2226.08,99.9688 c 0,-7.6993 1.15,-14.1993 3.43,-19.6368 2.31,-5.4218 5.4,-9.4531 9.38,-12.1836 4.02,-2.7773 8.37,-4.1484 13.04,-4.1484 4.8,0 9.16,1.332 13.1,3.8906 3.98,2.6094 7.09,6.6289 9.49,11.9883 2.36,5.3516 3.53,12.082 3.53,20.0899 0,7.6012 -1.17,14.0622 -3.53,19.5312 -2.4,5.449 -5.56,9.602 -9.56,12.531 -4.03,2.84 -8.41,4.301 -13.19,4.301 -4.97,0 -9.41,-1.523 -13.35,-4.461 -3.89,-2.922 -6.96,-7.199 -9.11,-12.711 -2.14,-5.519 -3.23,-11.859 -3.23,-19.1912 z m 53.46,-41.6368 v 2.7696 c -3.66,-4.3711 -7.25,-7.9102 -10.85,-10.6094 -3.49,-2.7734 -7.37,-4.8438 -11.52,-6.2734 -4.14,-1.379 -8.67,-2.1172 -13.58,-2.1172 -6.5,0 -12.56,1.457 -18.09,4.2773 -5.52,2.9805 -10.32,7.0313 -14.38,12.3711 -4.04,5.3398 -7.11,11.6094 -9.22,18.8398 -2.12,7.1797 -3.14,14.9805 -3.14,23.4102 0,17.699 4.16,31.59 12.46,41.5 8.33,9.922 19.23,14.871 32.76,14.871 7.83,0 14.45,-1.43 19.82,-4.289 5.37,-2.762 10.63,-7.082 15.74,-12.953 v 41.922 c 0,5.84 1.1,10.23 3.34,13.199 2.22,3 5.36,4.469 9.49,4.469 4.11,0 7.28,-1.379 9.53,-4.078 2.21,-2.731 3.36,-6.782 3.36,-12.121 V 58.332 c 0,-5.4101 -1.21,-9.4804 -3.61,-12.1523 -2.4,-2.7383 -5.46,-4.0781 -9.28,-4.0781 -3.67,0 -6.79,1.3984 -9.22,4.1875 -2.4,2.8125 -3.61,6.7812 -3.61,12.0429"
         style="fill:#100f0d;fill-opacity:1;fill-rule:nonzero;stroke:none"
         transform="matrix(0.13333333,0,0,-0.13333333,0,780.13333)" />
      <path
         id="path9"
         d="m 2407.07,99.7422 c 0,11.5278 -2.48,20.5778 -7.33,27.0198 -4.89,6.41 -11.47,9.66 -19.69,9.66 -5.34,0 -10,-1.442 -14.05,-4.32 -4.05,-2.922 -7.16,-7.153 -9.36,-12.77 -2.18,-5.562 -3.3,-12.07 -3.3,-19.5898 0,-7.4336 1.12,-13.8906 3.24,-19.4102 2.15,-5.5507 5.26,-9.8007 9.3,-12.75 4,-2.9414 8.76,-4.3828 14.17,-4.3828 8.22,0 14.8,3.211 19.69,9.6914 4.85,6.4492 7.33,15.4414 7.33,26.8516 z m 27.29,0 c 0,-8.4102 -1.28,-16.2109 -3.79,-23.4024 -2.53,-7.0781 -6.18,-13.2304 -10.93,-18.3789 -4.82,-5.1289 -10.53,-8.9726 -17.16,-11.7812 -6.64,-2.7383 -14.16,-4.0781 -22.43,-4.0781 -8.21,0 -15.64,1.3398 -22.19,4.1484 -6.58,2.7695 -12.3,6.7305 -17.12,11.9102 -4.79,5.1718 -8.43,11.2304 -10.95,18.2617 -2.49,7.0781 -3.73,14.8203 -3.73,23.3672 0,8.5899 1.28,16.4609 3.77,23.5629 2.53,7.179 6.13,13.238 10.86,18.328 4.72,5.05 10.42,8.949 17.17,11.679 6.72,2.75 14.08,4.141 22.19,4.141 8.25,0 15.73,-1.391 22.43,-4.168 6.69,-2.769 12.43,-6.762 17.21,-11.883 4.81,-5.117 8.44,-11.258 10.88,-18.328 2.55,-7.051 3.79,-14.851 3.79,-23.3788"
         style="fill:#100f0d;fill-opacity:1;fill-rule:nonzero;stroke:none"
         transform="matrix(0.13333333,0,0,-0.13333333,0,780.13333)" />
      <path
         id="path10"
         d="m 2549.21,123.191 c -2.04,-4.8 -3.01,-13.261 -3.01,-25.4605 V 60.0117 c 0,-5.9297 -1.27,-10.4414 -3.89,-13.4297 -2.58,-2.9804 -6.04,-4.4804 -10.28,-4.4804 -4.09,0 -7.42,1.5 -9.95,4.4804 -2.57,2.9883 -3.82,7.5 -3.82,13.4297 v 45.2773 c 0,7.121 -0.27,12.641 -0.74,16.652 -0.47,3.899 -1.71,7.168 -3.78,9.707 -2.02,2.543 -5.29,3.801 -9.72,3.801 -8.9,0 -14.75,-3.187 -17.59,-9.609 -2.85,-6.34 -4.19,-15.5 -4.19,-27.4494 V 60.0117 c 0,-5.9219 -1.32,-10.3906 -3.84,-13.3398 -2.58,-3.0703 -5.95,-4.5703 -10.09,-4.5703 -4.15,0 -7.56,1.5 -10.16,4.5703 -2.65,2.9492 -3.89,7.4179 -3.89,13.3281 v 81.219 c 0,5.351 1.12,9.41 3.45,12.172 2.4,2.757 5.5,4.179 9.38,4.179 3.71,0 6.83,-1.289 9.29,-3.89 2.49,-2.59 3.73,-6.168 3.73,-10.758 v -2.692 c 4.7,5.899 9.77,10.239 15.12,12.981 5.38,2.769 11.42,4.16 17.94,4.16 6.83,0 12.68,-1.43 17.6,-4.289 4.93,-2.812 8.96,-7.121 12.13,-12.852 4.6,5.77 9.51,10.129 14.77,12.93 5.25,2.82 11.05,4.211 17.4,4.211 7.5,0 13.89,-1.5 19.23,-4.59 5.4,-3.051 9.4,-7.402 12.07,-13.09 2.34,-5.132 3.48,-13.203 3.48,-24.25 V 60.0117 c 0,-5.9297 -1.29,-10.4414 -3.84,-13.4297 -2.65,-2.9804 -6.03,-4.4804 -10.29,-4.4804 -4.13,0 -7.49,1.5 -10.09,4.5703 -2.66,2.9492 -3.97,7.4179 -3.97,13.3398 v 47.7693 c 0,6.098 -0.25,10.969 -0.73,14.66 -0.51,3.707 -1.86,6.739 -4.07,9.25 -2.18,2.5 -5.52,3.758 -9.93,3.758 -3.58,0 -7,-1.117 -10.17,-3.289 -3.28,-2.238 -5.72,-5.219 -7.55,-8.969 v 0"
         style="fill:#100f0d;fill-opacity:1;fill-rule:nonzero;stroke:none"
         transform="matrix(0.13333333,0,0,-0.13333333,0,780.13333)" />
      <path
         id="path11"
         d="m 2703.23,99.1992 c -4.01,-1.5586 -9.81,-3.1172 -17.41,-4.8476 -7.61,-1.6993 -12.88,-2.9414 -15.8,-3.75 -2.93,-0.8203 -5.72,-2.3633 -8.34,-4.6602 -2.69,-2.3906 -4.03,-5.6094 -4.03,-9.7695 0,-4.3399 1.59,-7.961 4.67,-10.9922 3.15,-3.0586 7.24,-4.5313 12.29,-4.5313 5.37,0 10.37,1.25 14.89,3.711 4.55,2.4414 7.92,5.6523 10.01,9.5 2.46,4.3203 3.72,11.3711 3.72,21.3008 z M 2705,58.0898 c -6.6,-5.3515 -12.95,-9.3281 -19.09,-11.9609 -6.12,-2.7187 -13.05,-4.0273 -20.65,-4.0273 -7.02,0 -13.09,1.457 -18.4,4.2773 -5.32,2.9024 -9.35,6.8125 -12.22,11.7813 -2.82,4.9101 -4.29,10.1914 -4.29,15.9882 0,7.7618 2.42,14.3516 7.12,19.8399 4.67,5.4531 11.14,9.1327 19.38,11.0117 1.72,0.422 6.04,1.32 12.83,2.781 6.92,1.489 12.72,2.789 17.67,4 4.84,1.188 10.16,2.68 15.88,4.399 -0.35,7.519 -1.79,13 -4.33,16.582 -2.59,3.468 -7.92,5.168 -15.91,5.168 -6.95,0 -12.11,-0.969 -15.65,-2.981 -3.46,-1.988 -6.47,-5.027 -8.92,-9.109 -2.53,-3.988 -4.25,-6.66 -5.28,-7.918 -1.06,-1.313 -3.28,-1.891 -6.61,-1.891 -3.1,0 -5.72,1.008 -7.92,3.028 -2.25,2.062 -3.36,4.64 -3.36,7.882 0,4.969 1.7,9.86 5.07,14.508 3.39,4.742 8.68,8.602 15.84,11.711 7.17,3.051 16.13,4.559 26.83,4.559 11.92,0 21.34,-1.508 28.22,-4.438 6.82,-2.922 11.6,-7.551 14.45,-13.98 2.85,-6.34 4.24,-14.832 4.24,-25.36 0,-6.64 0,-12.332 -0.04,-16.941 -0.05,-4.6914 -0.08,-9.8398 -0.14,-15.5195 0,-5.3086 0.84,-10.8985 2.55,-16.6602 1.65,-5.789 2.5,-9.5312 2.5,-11.1601 0,-2.9219 -1.33,-5.5899 -3.94,-7.9688 -2.57,-2.3828 -5.58,-3.5898 -8.87,-3.5898 -2.84,0 -5.53,1.3398 -8.3,4.0781 -2.72,2.75 -5.6,6.7422 -8.66,11.9101"
         style="fill:#100f0d;fill-opacity:1;fill-rule:nonzero;stroke:none"
         transform="matrix(0.13333333,0,0,-0.13333333,0,780.13333)" />
      <path
         id="path12"
         d="M 2784.73,141.371 V 59.3789 c 0,-5.7187 -1.31,-10.0195 -3.86,-12.9297 -2.59,-2.8476 -5.85,-4.3476 -9.85,-4.3476 -3.97,0 -7.26,1.5 -9.71,4.4492 -2.53,3.0195 -3.78,7.2578 -3.78,12.8281 v 81.1841 c 0,5.566 1.25,9.796 3.78,12.648 2.45,2.871 5.74,4.289 9.71,4.289 4,0 7.26,-1.418 9.85,-4.289 2.55,-2.852 3.86,-6.781 3.86,-11.84 z m -13.45,29.348 c -3.74,0 -6.96,1.211 -9.66,3.703 -2.69,2.41 -4.09,5.867 -4.09,10.32 0,4 1.42,7.278 4.18,9.918 2.73,2.61 5.97,3.832 9.57,3.832 3.54,0 6.69,-1.14 9.42,-3.492 2.68,-2.348 4.03,-5.82 4.03,-10.258 0,-4.41 -1.31,-7.82 -3.98,-10.242 -2.65,-2.461 -5.81,-3.781 -9.47,-3.781"
         style="fill:#100f0d;fill-opacity:1;fill-rule:nonzero;stroke:none"
         transform="matrix(0.13333333,0,0,-0.13333333,0,780.13333)" />
      <path
         id="path13"
         d="m 2837.58,141.781 v -3.39 c 4.75,6.57 9.97,11.398 15.61,14.48 5.7,3.07 12.23,4.629 19.63,4.629 7.13,0 13.58,-1.629 19.26,-4.918 5.59,-3.242 9.83,-7.82 12.59,-13.762 1.81,-3.488 2.94,-7.269 3.51,-11.281 0.49,-3.969 0.8,-9.109 0.8,-15.367 V 59.3789 c 0,-5.7187 -1.28,-10.0195 -3.76,-12.9297 -2.5,-2.8476 -5.74,-4.3476 -9.7,-4.3476 -4.05,0 -7.36,1.5 -9.78,4.4804 -2.56,2.9883 -3.86,7.2266 -3.86,12.7969 v 47.2691 c 0,9.403 -1.21,16.543 -3.69,21.481 -2.54,4.953 -7.52,7.473 -14.96,7.473 -4.83,0 -9.24,-1.532 -13.22,-4.563 -3.97,-2.976 -6.9,-7.137 -8.75,-12.418 -1.33,-4.23 -2.03,-12.09 -2.03,-23.7421 v -35.5 c 0,-5.7578 -1.25,-10.0976 -3.82,-13 -2.57,-2.8203 -5.87,-4.2773 -9.91,-4.2773 -3.89,0 -7.14,1.5 -9.65,4.4492 -2.56,3.0195 -3.8,7.2578 -3.8,12.8281 v 81.9921 c 0,5.43 1.11,9.43 3.41,12.098 2.21,2.679 5.37,4.031 9.27,4.031 2.35,0 4.54,-0.641 6.43,-1.77 1.98,-1.16 3.47,-2.992 4.65,-5.261 1.12,-2.406 1.77,-5.289 1.77,-8.688"
         style="fill:#100f0d;fill-opacity:1;fill-rule:nonzero;stroke:none"
         transform="matrix(0.13333333,0,0,-0.13333333,0,780.13333)" />
      <path
         id="path14"
         d="m 2952.63,139.832 21.96,-64.4414 23.72,67.2504 c 1.89,5.422 3.7,9.199 5.52,11.468 1.82,2.243 4.5,3.391 8.13,3.391 3.46,0 6.39,-1.219 8.87,-3.691 2.37,-2.399 3.59,-5.161 3.59,-8.43 0,-1.219 -0.23,-2.66 -0.66,-4.277 -0.39,-1.704 -0.89,-3.262 -1.48,-4.762 -0.57,-1.391 -1.16,-3.078 -1.95,-4.938 l -26.08,-67.57 c -0.73,-1.9336 -1.7,-4.4218 -2.83,-7.4101 -1.19,-2.9727 -2.5,-5.461 -3.89,-7.6602 -1.47,-2.0898 -3.2,-3.6914 -5.27,-4.8828 -2.13,-1.1797 -4.68,-1.7773 -7.67,-1.7773 -3.85,0 -6.9,0.9101 -9.23,2.7187 -2.28,1.8516 -3.98,3.8399 -5.07,6.0703 -1.07,2.1407 -2.96,6.4883 -5.51,12.9414 l -25.93,66.84 c -0.6,1.629 -1.24,3.308 -1.89,4.976 -0.59,1.661 -1.08,3.321 -1.55,5.09 -0.42,1.762 -0.66,3.25 -0.66,4.442 0,1.98 0.56,3.902 1.71,5.8 1.14,1.93 2.7,3.5 4.68,4.68 2.02,1.199 4.13,1.84 6.51,1.84 4.47,0 7.58,-1.352 9.29,-4.109 1.7,-2.672 3.61,-7.2 5.69,-13.559"
         style="fill:#100f0d;fill-opacity:1;fill-rule:nonzero;stroke:none"
         transform="matrix(0.13333333,0,0,-0.13333333,0,780.13333)" />
      <path
         id="path15"
         d="m 3063.86,109.012 h 49.28 c -0.62,9.668 -3.11,16.918 -7.5,21.718 -4.36,4.79 -10.09,7.2 -17.21,7.2 -6.73,0 -12.32,-2.438 -16.64,-7.301 -4.35,-4.859 -6.96,-12.09 -7.93,-21.617 z m 53.2,-16.1526 h -53.2 c 0.01,-6.4688 1.31,-12.1406 3.69,-17.0977 2.46,-4.8828 5.66,-8.6015 9.7,-11.1211 4,-2.5195 8.45,-3.7187 13.31,-3.7187 3.24,0 6.25,0.3867 8.89,1.1601 2.68,0.8399 5.32,2.0782 7.86,3.75 2.48,1.7071 4.79,3.4805 6.94,5.5 2.1,1.9375 4.93,4.5196 8.27,7.8672 1.41,1.3125 3.42,1.9024 5.97,1.9024 2.84,0 5.06,-0.7696 6.8,-2.4102 1.73,-1.6016 2.54,-3.8203 2.54,-6.7305 0,-2.5703 -0.94,-5.5703 -2.88,-9.039 -1.9,-3.3711 -4.75,-6.6914 -8.71,-9.8906 -3.9,-3.1211 -8.77,-5.6915 -14.65,-7.8321 -5.85,-2.0703 -12.58,-3.0976 -20.28,-3.0976 -17.43,0 -31.04,5.2382 -40.69,15.5781 -9.69,10.4492 -14.52,24.5117 -14.52,42.2891 0,8.4922 1.23,16.2112 3.57,23.3632 2.39,7.199 5.86,13.328 10.46,18.449 4.59,5.16 10.19,9.121 16.92,11.821 6.74,2.75 14.14,4.117 22.34,4.117 10.55,0 19.7,-2.328 27.3,-7.039 7.63,-4.68 13.31,-10.68 17.09,-18.09 3.79,-7.461 5.68,-14.981 5.68,-22.731 0,-7.078 -1.9,-11.7106 -5.86,-13.8082 -3.95,-2.1485 -9.43,-3.1914 -16.54,-3.1914"
         style="fill:#100f0d;fill-opacity:1;fill-rule:nonzero;stroke:none"
         transform="matrix(0.13333333,0,0,-0.13333333,0,780.13333)" />
      <path
         id="path16"
         d="m 3259.94,77.25 c 0,-3.5078 -1,-7.3086 -3.07,-11.3398 -2.04,-4.0118 -5.06,-7.8204 -9.25,-11.4688 -4.13,-3.6211 -9.41,-6.5508 -15.74,-8.75 -6.26,-2.2812 -13.41,-3.3594 -21.25,-3.3594 -16.86,0 -29.97,5.1289 -39.38,15.3282 -9.4,10.2304 -14.15,23.8984 -14.15,41.1015 0,11.6483 2.14,21.9683 6.49,30.8793 4.33,8.89 10.51,15.859 18.71,20.718 8.14,4.922 17.93,7.36 29.31,7.36 7.03,0 13.47,-1.098 19.4,-3.219 5.86,-2.168 10.8,-4.949 14.94,-8.309 4.08,-3.41 7.17,-7.043 9.35,-10.859 2.14,-3.844 3.22,-7.441 3.22,-10.773 0,-3.348 -1.19,-6.227 -3.69,-8.61 -2.39,-2.379 -5.32,-3.539 -8.78,-3.539 -2.25,0 -4.13,0.653 -5.59,1.86 -1.52,1.171 -3.18,3.082 -5.07,5.839 -3.32,5.25 -6.77,9.231 -10.39,11.922 -3.62,2.598 -8.22,3.949 -13.82,3.949 -7.99,0 -14.48,-3.328 -19.39,-9.871 -4.96,-6.578 -7.41,-15.539 -7.41,-26.9098 0,-5.2969 0.68,-10.2695 1.89,-14.6992 1.27,-4.5 3.11,-8.2891 5.52,-11.4687 2.38,-3.1524 5.29,-5.5313 8.67,-7.1602 3.33,-1.6602 7.07,-2.4492 11.15,-2.4492 5.43,0 10.12,1.289 14.01,3.9297 3.86,2.6601 7.33,6.6875 10.32,12.0273 1.67,3.2734 3.43,5.7422 5.38,7.5703 1.9,1.8008 4.23,2.6602 7.07,2.6602 3.27,0 6.07,-1.2774 8.18,-3.9102 2.25,-2.6992 3.37,-5.4687 3.37,-8.4492"
         style="fill:#100f0d;fill-opacity:1;fill-rule:nonzero;stroke:none"
         transform="matrix(0.13333333,0,0,-0.13333333,0,780.13333)" />
      <path
         id="path17"
         d="m 3285.2,155.102 h 2.98 v 17.058 c 0,4.539 0.13,8.172 0.37,10.75 0.23,2.61 0.83,4.789 1.95,6.699 1.02,1.911 2.56,3.5 4.59,4.743 1.97,1.179 4.19,1.757 6.65,1.757 3.44,0 6.57,-1.328 9.34,-4.019 1.82,-1.82 3.03,-3.988 3.53,-6.57 0.51,-2.61 0.73,-6.348 0.73,-11.098 v -19.32 h 10 c 3.85,0 6.8,-0.961 8.82,-2.872 2.06,-1.91 3.05,-4.32 3.05,-7.308 0,-3.82 -1.44,-6.531 -4.37,-8.024 -2.87,-1.488 -7.01,-2.269 -12.38,-2.269 h -5.12 V 82.3594 c 0,-4.4492 0.17,-7.8711 0.45,-10.2891 0.35,-2.4101 1.19,-4.3515 2.45,-5.8008 1.26,-1.5 3.37,-2.2695 6.32,-2.2695 1.58,0 3.73,0.2695 6.48,0.8984 2.66,0.5704 4.8,0.8829 6.35,0.8829 2.18,0 4.22,-0.961 5.95,-2.711 1.72,-1.8906 2.63,-4.1211 2.63,-6.8398 0,-4.5586 -2.35,-8.0586 -7.16,-10.4922 -4.84,-2.4297 -11.69,-3.6367 -20.62,-3.6367 -8.5,0 -14.97,1.5 -19.35,4.4804 -4.36,2.9883 -7.28,7.0782 -8.59,12.4063 -1.39,5.2617 -2.07,12.293 -2.07,21.0937 v 54.547 h -3.61 c -3.85,0 -6.85,0.973 -8.93,2.922 -2.07,1.937 -3.07,4.371 -3.07,7.371 0,2.988 1.05,5.398 3.19,7.308 2.19,1.911 5.3,2.872 9.44,2.872"
         style="fill:#100f0d;fill-opacity:1;fill-rule:nonzero;stroke:none"
         transform="matrix(0.13333333,0,0,-0.13333333,0,780.13333)" />
      <path
         id="path18"
         d="m 3430.39,99.7422 c 0,11.5278 -2.46,20.5778 -7.31,27.0198 -4.94,6.41 -11.43,9.66 -19.69,9.66 -5.33,0 -10,-1.442 -14.02,-4.32 -4.09,-2.922 -7.2,-7.153 -9.38,-12.77 -2.19,-5.562 -3.31,-12.07 -3.31,-19.5898 0,-7.4336 1.12,-13.8906 3.27,-19.4102 2.15,-5.5507 5.22,-9.8007 9.23,-12.75 4,-2.9414 8.75,-4.3828 14.21,-4.3828 8.26,0 14.75,3.211 19.69,9.6914 4.85,6.4492 7.31,15.4414 7.31,26.8516 z m 27.31,0 c 0,-8.4102 -1.25,-16.2109 -3.82,-23.4024 -2.5,-7.0781 -6.17,-13.2304 -10.93,-18.3789 -4.8,-5.1289 -10.52,-8.9726 -17.13,-11.7812 -6.67,-2.7383 -14.09,-4.0781 -22.43,-4.0781 -8.27,0 -15.68,1.3398 -22.23,4.1484 -6.56,2.7695 -12.28,6.7305 -17.09,11.9102 -4.79,5.1718 -8.45,11.2304 -10.91,18.2617 -2.48,7.0781 -3.7,14.8203 -3.7,23.3672 0,8.5899 1.22,16.4609 3.7,23.5629 2.58,7.179 6.16,13.238 10.86,18.328 4.76,5.05 10.45,8.949 17.14,11.679 6.78,2.75 14.16,4.141 22.23,4.141 8.26,0 15.69,-1.391 22.43,-4.168 6.7,-2.769 12.42,-6.762 17.22,-11.883 4.72,-5.117 8.43,-11.258 10.92,-18.328 2.49,-7.051 3.74,-14.851 3.74,-23.3788"
         style="fill:#100f0d;fill-opacity:1;fill-rule:nonzero;stroke:none"
         transform="matrix(0.13333333,0,0,-0.13333333,0,780.13333)" />
      <path
         id="path19"
         d="M 3506.14,83 V 59.3789 c 0,-5.7578 -1.31,-10.0976 -3.9,-13 -2.6,-2.8203 -5.87,-4.2773 -9.9,-4.2773 -3.86,0 -7.12,1.5 -9.63,4.3476 -2.51,2.9102 -3.75,7.211 -3.75,12.9297 v 78.9921 c 0,12.77 4.39,19.129 13.23,19.129 4.47,0 7.74,-1.52 9.77,-4.469 1.96,-2.98 3.01,-7.39 3.27,-13.199 3.24,5.809 6.62,10.219 10.04,13.199 3.42,2.949 7.96,4.469 13.65,4.469 5.76,0 11.28,-1.52 16.68,-4.469 5.35,-2.98 8.07,-6.949 8.07,-11.851 0,-3.461 -1.18,-6.371 -3.46,-8.59 -2.27,-2.231 -4.75,-3.41 -7.45,-3.41 -0.97,0 -3.39,0.672 -7.2,1.98 -3.85,1.262 -7.22,1.922 -10.16,1.922 -3.94,0 -7.19,-1.051 -9.69,-3.293 -2.54,-2.219 -4.51,-5.41 -5.9,-9.699 -1.39,-4.34 -2.4,-9.43 -2.9,-15.391 -0.5,-5.8904 -0.77,-13.0896 -0.77,-21.699"
         style="fill:#100f0d;fill-opacity:1;fill-rule:nonzero;stroke:none"
         transform="matrix(0.13333333,0,0,-0.13333333,0,780.13333)" />
      <path
         id="path20"
         d="m 3651,79.1797 c 0,-7.8477 -1.83,-14.5391 -5.52,-20.1211 -3.67,-5.6094 -9.05,-9.7773 -16.2,-12.6875 -7.17,-2.8125 -15.82,-4.2695 -26.11,-4.2695 -9.67,0 -18.09,1.5468 -25.08,4.6992 -6.98,3.1094 -12.13,6.9805 -15.42,11.6484 -3.36,4.6602 -5.07,9.3594 -5.07,14.0508 0,3.1211 1.09,5.8008 3.27,8.0117 2.11,2.2696 4.81,3.3203 8.03,3.3203 2.87,0 5.09,-0.7422 6.61,-2.1523 1.52,-1.5391 2.95,-3.5391 4.38,-6.1797 2.79,-5.0703 6.11,-8.8398 10.05,-11.3398 3.82,-2.5196 9.12,-3.7618 15.89,-3.7618 5.42,0 9.89,1.2813 13.39,3.8125 3.47,2.5313 5.26,5.4102 5.26,8.6797 0,5.0196 -1.83,8.668 -5.43,10.9297 -3.67,2.3399 -9.6,4.5117 -17.9,6.5781 -9.35,2.4336 -17,4.9805 -22.89,7.6211 -5.87,2.6915 -10.62,6.2305 -14.11,10.6015 -3.52,4.289 -5.31,9.711 -5.31,16.078 0,5.723 1.64,11.09 4.9,16.133 3.23,5.059 8.11,9.09 14.42,12.109 6.33,3.039 13.98,4.559 22.99,4.559 7,0 13.33,-0.789 18.98,-2.309 5.59,-1.511 10.34,-3.582 14.03,-6.109 3.75,-2.582 6.64,-5.422 8.58,-8.519 2,-3.153 2.96,-6.204 2.96,-9.161 0,-3.273 -1.02,-5.882 -3.16,-8.05 -2.1,-2 -5.1,-3.051 -8.89,-3.051 -2.82,0 -5.18,0.82 -7.19,2.519 -1.91,1.641 -4.18,4.121 -6.69,7.399 -2.06,2.781 -4.47,5.019 -7.29,6.679 -2.79,1.633 -6.57,2.5 -11.33,2.5 -4.93,0 -9.05,-1.078 -12.24,-3.289 -3.28,-2.168 -4.93,-4.91 -4.93,-8.168 0,-2.992 1.22,-5.429 3.57,-7.332 2.42,-1.91 5.62,-3.488 9.7,-4.75 4.08,-1.25 9.63,-2.796 16.74,-4.589 8.46,-2.129 15.33,-4.668 20.69,-7.68 5.34,-2.949 9.38,-6.4884 12.14,-10.5392 2.8,-4.0899 4.18,-8.711 4.18,-13.8711"
         style="fill:#100f0d;fill-opacity:1;fill-rule:nonzero;stroke:none"
         transform="matrix(0.13333333,0,0,-0.13333333,0,780.13333)" />
      <path
         id="path21"
         d="m 3681.88,42.1016 c -4.13,0 -7.69,1.3398 -10.64,4.1484 -3.04,2.7695 -4.51,6.6719 -4.51,11.6211 0,4.2109 1.4,7.8594 4.23,10.918 2.86,3.0429 6.4,4.5312 10.59,4.5312 4.16,0 7.75,-1.4883 10.64,-4.5195 3,-2.9688 4.48,-6.6797 4.48,-10.9297 0,-4.9102 -1.48,-8.7695 -4.48,-11.582 -2.89,-2.7891 -6.34,-4.1875 -10.31,-4.1875"
         style="fill:#100f0d;fill-opacity:1;fill-rule:nonzero;stroke:none"
         transform="matrix(0.13333333,0,0,-0.13333333,0,780.13333)" />
      <path
         id="path22"
         d="m 3802.13,99.7422 c 0,11.5278 -2.45,20.5778 -7.34,27.0198 -4.88,6.41 -11.41,9.66 -19.64,9.66 -5.33,0 -9.95,-1.442 -14.03,-4.32 -4.06,-2.922 -7.17,-7.153 -9.35,-12.77 -2.17,-5.562 -3.28,-12.07 -3.28,-19.5898 0,-7.4336 1.04,-13.8906 3.19,-19.4102 2.23,-5.5507 5.27,-9.8007 9.31,-12.75 4,-2.9414 8.72,-4.3828 14.16,-4.3828 8.23,0 14.76,3.211 19.64,9.6914 4.89,6.4492 7.34,15.4414 7.34,26.8516 z m 27.32,0 c 0,-8.4102 -1.25,-16.2109 -3.81,-23.4024 -2.53,-7.0781 -6.15,-13.2304 -10.94,-18.3789 -4.83,-5.1289 -10.47,-8.9726 -17.13,-11.7812 -6.62,-2.7383 -14.09,-4.0781 -22.42,-4.0781 -8.23,0 -15.63,1.3398 -22.2,4.1484 -6.58,2.7695 -12.25,6.7305 -17.05,11.9102 -4.89,5.1718 -8.52,11.2304 -11.04,18.2617 -2.44,7.0781 -3.69,14.8203 -3.69,23.3672 0,8.5899 1.25,16.4609 3.79,23.5629 2.57,7.179 6.13,13.238 10.82,18.328 4.72,5.05 10.44,8.949 17.17,11.679 6.7,2.75 14.05,4.141 22.2,4.141 8.23,0 15.7,-1.391 22.42,-4.168 6.74,-2.769 12.46,-6.762 17.25,-11.883 4.75,-5.117 8.38,-11.258 10.9,-18.328 2.48,-7.051 3.73,-14.851 3.73,-23.3788"
         style="fill:#100f0d;fill-opacity:1;fill-rule:nonzero;stroke:none"
         transform="matrix(0.13333333,0,0,-0.13333333,0,780.13333)" />
      <path
         id="path23"
         d="M 3877.89,83 V 59.3789 c 0,-5.7578 -1.3,-10.0976 -3.89,-13 -2.54,-2.8203 -5.87,-4.2773 -9.83,-4.2773 -3.96,0 -7.15,1.5 -9.69,4.3476 -2.56,2.9102 -3.8,7.211 -3.8,12.9297 v 78.9921 c 0,12.77 4.48,19.129 13.27,19.129 4.52,0 7.75,-1.52 9.73,-4.469 1.96,-2.98 3.13,-7.39 3.36,-13.199 3.19,5.809 6.52,10.219 9.94,13.199 3.44,2.949 8.01,4.469 13.67,4.469 5.81,0 11.35,-1.52 16.67,-4.469 5.39,-2.98 8.1,-6.949 8.1,-11.851 0,-3.461 -1.15,-6.371 -3.43,-8.59 -2.31,-2.231 -4.74,-3.41 -7.47,-3.41 -0.96,0 -3.35,0.672 -7.17,1.98 -3.83,1.262 -7.2,1.922 -10.15,1.922 -3.96,0 -7.19,-1.051 -9.79,-3.293 -2.48,-2.219 -4.44,-5.41 -5.86,-9.699 -1.35,-4.34 -2.33,-9.43 -2.85,-15.391 -0.53,-5.8904 -0.81,-13.0896 -0.81,-21.699"
         style="fill:#100f0d;fill-opacity:1;fill-rule:nonzero;stroke:none"
         transform="matrix(0.13333333,0,0,-0.13333333,0,780.13333)" />
      <path
         id="path24"
         d="m 3956.41,100.719 c 0,-11.4885 2.42,-20.1995 7.25,-26.1174 4.78,-5.8516 11.05,-8.8203 18.63,-8.8203 4.5,0 8.82,1.3007 12.82,3.8281 4.02,2.5312 7.29,6.3398 9.82,11.4414 2.56,5.1094 3.78,11.2578 3.78,18.5312 0,11.578 -2.46,20.57 -7.33,27 -4.87,6.5 -11.3,9.75 -19.26,9.75 -7.74,0 -13.99,-3.16 -18.65,-9.293 -4.71,-6.199 -7.06,-14.949 -7.06,-26.32 z m 78.83,35.992 V 54.2422 c 0,-9.4609 -1.03,-17.5625 -2.92,-24.3125 -1.93,-6.8281 -5.01,-12.4375 -9.25,-16.8672 -4.25,-4.42187 -9.85,-7.71094 -16.67,-9.86328 C 3999.51,1.08984 3990.95,0 3980.73,0 c -9.38,0 -17.77,1.32031 -25.1,4.05859 -7.39,2.80079 -13.08,6.30081 -17.05,10.66021 -3.98,4.2929 -5.99,8.75 -5.99,13.3515 0,3.4805 1.1,6.2813 3.43,8.461 2.22,2.2304 4.96,3.3203 8.13,3.3203 4,0 7.44,-1.8594 10.49,-5.5118 1.46,-1.9296 2.99,-3.8007 4.5,-5.6796 1.56,-1.918 3.3,-3.5899 5.18,-4.9102 1.91,-1.3789 4.21,-2.3789 6.86,-3.0391 2.6,-0.6601 5.7,-0.9921 9.17,-0.9921 6.98,0 12.51,1.0507 16.37,3.0703 3.89,2.0429 6.62,4.9023 8.2,8.5625 1.49,3.6797 2.49,7.5976 2.65,11.789 0.32,4.2813 0.51,10.9492 0.69,20.2813 -4.18,-6.0899 -9.09,-10.7422 -14.51,-13.9219 -5.48,-3.2109 -12.03,-4.7578 -19.54,-4.7578 -9.18,0 -17.13,2.3789 -23.89,7.2695 -6.84,4.8399 -12.08,11.6172 -15.72,20.3789 -3.6,8.711 -5.48,18.7891 -5.48,30.2304 0,8.578 1.09,16.281 3.36,23.149 2.18,6.82 5.33,12.621 9.52,17.339 4.07,4.723 8.85,8.282 14.22,10.68 5.41,2.359 11.25,3.582 17.75,3.582 7.67,0 14.34,-1.562 19.98,-4.672 5.72,-3.039 10.9,-7.937 15.77,-14.48 v 3.801 c 0,4.96 1.2,8.742 3.49,11.519 2.3,2.672 5.32,4.031 8.95,4.031 5.26,0 8.75,-1.761 10.5,-5.34 1.7,-3.582 2.58,-8.781 2.58,-15.519"
         style="fill:#100f0d;fill-opacity:1;fill-rule:nonzero;stroke:none"
         transform="matrix(0.13333333,0,0,-0.13333333,0,780.13333)" />
      <path
         id="path25"
         d="m 2856.54,413.09 h 40.34 c -2.86,-21.75 -11.76,-38.719 -26.59,-50.938 -13.71,-11.972 -30.32,-17.871 -49.72,-17.871 -26.35,0 -47.38,9.258 -63.07,27.731 -14.88,17.57 -22.3,40.25 -22.3,67.957 0,28.39 7.37,51.09 22.08,68.281 14.71,17.121 35.5,25.719 62.39,25.719 19.99,0 36.91,-5.41 50.62,-16.137 14.54,-11.602 23.44,-27.902 26.59,-48.773 h -40.34 c -3.49,18.211 -14.6,27.261 -33.52,27.261 -31.17,0 -46.79,-18.461 -46.79,-55.418 0,-17.32 4.01,-31.453 12.03,-42.461 8.02,-11.062 19.32,-16.589 33.9,-16.589 21.74,0 33.21,10.429 34.38,31.238 z m -158.8,25.449 c 0,-36.098 11.45,-66.66 34.31,-91.559 22.9,-24.898 50.9,-37.359 84.15,-37.359 33.1,0 61.13,12.461 83.99,37.359 22.92,24.899 34.29,55.461 34.29,91.559 0,36.07 -11.37,66.613 -34.29,91.512 -22.86,24.949 -50.89,37.39 -83.99,37.39 -33.25,0 -61.25,-12.441 -84.15,-37.39 -22.86,-24.899 -34.31,-55.442 -34.31,-91.512 z m -40.98,0 c 0,45.941 15.55,85.152 46.66,117.711 31.16,32.52 68.76,48.789 112.78,48.789 43.92,0 81.47,-16.269 112.65,-48.789 31.13,-32.559 46.73,-71.77 46.73,-117.711 0,-45.98 -15.6,-85.238 -46.73,-117.738 -31.18,-32.551 -68.73,-48.832 -112.65,-48.832 -44.02,0 -81.62,16.281 -112.78,48.832 -31.11,32.5 -46.66,71.758 -46.66,117.738"
         style="fill:#100f0d;fill-opacity:1;fill-rule:nonzero;stroke:none"
         transform="matrix(0.13333333,0,0,-0.13333333,0,780.13333)" />
      <path
         id="path26"
         d="m 2721.27,334.121 23.26,-19.73 170.95,219.531 -23.24,19.699 -170.97,-219.5"
         style="fill:#100f0d;fill-opacity:1;fill-rule:nonzero;stroke:none"
         transform="matrix(0.13333333,0,0,-0.13333333,0,780.13333)" />
      <path
         id="path27"
         d="m 1012.49,3920.63 c 150.79,87.09 321.75,154.35 501.94,201.56 184.8,48.42 380,75.65 573.34,81.44 194.03,5.81 386.06,-10 563.82,-47.8 174.41,-37.08 337,-95.76 476.77,-176.46 l 371.6,-214.47 c 587.38,-338.99 146.72,-84.25 635.23,-366.37 l 1005.93,-580.85 -0.13,-0.24 c 146.33,-84.55 254.88,-186.12 325.99,-297.49 78.75,-123.31 111.63,-257.2 99.41,-393.1 -12.01,-133.14 -66.49,-264.8 -162.67,-386.82 -87.18,-110.56 -209.25,-214.29 -365.39,-304.5 h -0.56 c -151.84,-87.62 -322.83,-155.2 -502.19,-202.33 -184.54,-48.5 -379.65,-75.88 -573.18,-81.63 -193.89,-5.79 -385.7,10.08 -563.26,47.89 -174.9,37.26 -337.63,96.01 -477.26,176.64 l -156.18,90.2 h -347.33 l 80.49,154.11 c -513.33,296.51 -42.79,25.17 -581.9,336.33 L 934.359,2523.97 H 595.094 l 94.531,180.98 c -41.066,41.44 -76.031,85.04 -104.922,130.31 -78.73,123.35 -111.68,257.38 -99.543,393.54 11.856,132.95 66.301,265.01 162.61,387.49 86.554,110.08 208.406,213.77 364.86,304.11 l -0.14,0.23"
         style="fill:#ece8f6;fill-opacity:1;fill-rule:evenodd;stroke:none"
         transform="matrix(0.13333333,0,0,-0.13333333,0,780.13333)" />
      <path
         id="path28"
         d="m 3434.42,5028.38 66.46,-38.36 34.24,-19.78 c 69.85,-40.33 -39.77,-228.39 -108.82,-188.51 l -34.26,19.77 -66.45,38.38 -34.25,19.77 c -69.07,39.86 38.98,228.83 108.84,188.51 l 34.24,-19.78"
         style="fill:#dad4ee;fill-opacity:1;fill-rule:evenodd;stroke:none"
         transform="matrix(0.13333333,0,0,-0.13333333,0,780.13333)" />
      <path
         id="path29"
         d="m 3155.52,5365.85 v -69.3 c 0,-48.07 -129.73,-47.52 -129.73,0 v 23.57 45.73 23.58 c 0,47.51 129.73,48.05 129.73,0 v -23.58"
         style="fill:#dad4ee;fill-opacity:1;fill-rule:evenodd;stroke:none"
         transform="matrix(0.13333333,0,0,-0.13333333,0,780.13333)" />
      <path
         id="path30"
         d="m 3559.45,4640.37 c 0,-27.59 -22.36,-49.96 -49.96,-49.96 -27.6,0 -49.98,22.37 -49.98,49.96 V 5651.5 c 0,15.86 -2.11,29.73 -6.01,41.47 -6.09,18.29 -16.85,32.78 -30.98,42.62 -14.61,10.17 -33.2,15.71 -54.39,15.71 v -0.19 c -15.89,0 -32.84,-2.79 -50.36,-8.63 -47.51,-15.82 -91.35,-50.15 -123.92,-92.93 -31.95,-41.94 -52.2,-91.06 -53.4,-137.66 h 0.17 v -110.5 c 0,-37.02 -99.95,-36.6 -99.93,0 v 110.5 l 0.19,0.97 c 1.38,68.72 29.4,139.01 73.71,197.2 43.91,57.66 104.65,104.47 171.96,126.9 28.64,9.54 56.06,14.08 81.58,14.08 v -0.2 c 42.36,0.01 80.43,-11.71 111.39,-33.27 31.45,-21.91 55.22,-53.65 68.45,-93.36 7.46,-22.42 11.48,-46.8 11.48,-72.71 V 4640.37"
         style="fill:#bdb6e1;fill-opacity:1;fill-rule:evenodd;stroke:none"
         transform="matrix(0.13333333,0,0,-0.13333333,0,780.13333)" />
      <path
         id="path31"
         d="m 1965.16,3869.2 c 163.26,-11.66 319.63,-43.82 456.48,-96.85 l 2568.57,-544.98 -465.59,-1068.4 v 0 c -49.33,-136.9 -169.83,-270.31 -359.47,-379.85 v 0 c -238.86,-137.87 -544.09,-212.73 -843.18,-221.62 -298.96,-8.9 -592.05,47.73 -807.25,171.98 -279.56,161.43 -559.8,323.36 -839.57,484.83 -279.49,161.31 -559.81,323.13 -839.857,484.84 -131.301,75.82 -219.016,168.5 -263.906,268.53 v 0 l -0.043,0.1 c -5.227,11.66 -9.86,23.42 -13.934,35.26 L 55.2188,4274.44 1965.16,3869.2"
         style="fill:#bdb6e1;fill-opacity:1;fill-rule:evenodd;stroke:none"
         transform="matrix(0.13333333,0,0,-0.13333333,0,780.13333)" />
      <path
         id="path32"
         d="m 601.289,5052.99 -25.805,-14.9 C 449.094,4965.11 327.359,4871.89 236.684,4756.57 159.27,4658.11 104.43,4543.12 93.2148,4417.3 82.4727,4296.89 113.871,4182.6 178.801,4080.87 246.684,3974.52 345.43,3890.13 452.828,3825.07 h 0.031 L 1479.8,3232.24 c 207.04,-119.52 413.93,-239.31 620.95,-358.87 l 383.99,-221.76 c 138.57,-80.03 294.56,-133.18 450.67,-166.42 176.92,-37.7 360.91,-51.35 541.58,-45.98 185.79,5.54 372.91,31.45 552.73,78.7 166.5,43.76 330.49,106.98 479.8,193.13 l 21.13,12.21 h 0.17 c 119.15,71.26 232.57,160.63 318.61,269.77 77.48,98.31 132.16,212.87 143.48,338.6 10.82,120.21 -20.58,234.34 -85.44,335.88 -72.14,112.96 -179.7,201.13 -294.79,267.64 l -79.22,45.77 0.13,0.22 -926.7,535.08 c -211.67,122.23 -423.48,244.18 -635.18,366.36 l -371.6,214.48 c -138.48,79.93 -294.19,133.09 -450.18,166.25 -177.11,37.65 -361.3,51.26 -542.14,45.84 -185.86,-5.55 -373.09,-31.37 -552.98,-78.5 -156.65,-41.05 -311.482,-99.07 -453.521,-177.65"
         style="fill:#bdb6e1;fill-opacity:1;fill-rule:evenodd;stroke:none"
         transform="matrix(0.13333333,0,0,-0.13333333,0,780.13333)" />
      <path
         id="path33"
         d="m 293.098,3944.79 c 48.644,-45.56 102.976,-85.34 159.73,-119.72 h 0.031 L 1479.8,3232.24 c 207.04,-119.52 413.93,-239.31 620.95,-358.87 l 383.99,-221.76 c 138.57,-80.03 294.56,-133.18 450.67,-166.42 176.92,-37.7 360.91,-51.35 541.58,-45.98 185.79,5.54 372.91,31.45 552.73,78.7 166.5,43.76 330.49,106.98 479.8,193.13 l 21.13,12.21 h 0.17 c 96.4,57.65 189.08,127.18 266.5,209.43 -9.39,37.31 -25.39,74.01 -48.06,109.52 -47.54,74.45 -124.05,144.62 -230.21,205.9 h -0.54 l -1005.96,580.85 c -911.03,526.17 -470.18,271.77 -634.12,366.37 l -371.59,214.48 c -112.78,65.1 -247.96,113.3 -395.89,144.76 -157.35,33.45 -327.04,47.46 -498.23,42.33 -172.02,-5.15 -346.01,-29.46 -511.05,-72.7 -155.736,-40.81 -302.92,-98.59 -431.979,-173.13 h -0.546 C 545.754,4279.85 450.852,4199.63 384.762,4115.58 340.137,4058.83 309.535,4001.29 293.098,3944.79"
         style="fill:#3a3d9d;fill-opacity:1;fill-rule:evenodd;stroke:none"
         transform="matrix(0.13333333,0,0,-0.13333333,0,780.13333)" />
      <path
         id="path34"
         d="M 866.793,3586.11 1479.8,3232.24 c 207.04,-119.52 413.93,-239.31 620.95,-358.87 l 383.99,-221.76 c 138.57,-80.03 294.56,-133.18 450.67,-166.42 176.92,-37.7 360.91,-51.35 541.58,-45.98 185.79,5.54 372.91,31.45 552.73,78.7 82.77,21.76 164.9,48.33 244.95,80.12 l -842.45,486.44 c -835.37,482.47 -431.16,249.2 -581.46,335.94 l -340.74,196.67 c -103.41,59.7 -227.35,103.89 -363.01,132.74 -144.28,30.67 -299.88,43.51 -456.85,38.81 -157.73,-4.72 -317.26,-27.01 -468.59,-66.66 -126.45,-33.13 -246.734,-78.46 -354.777,-135.86"
         style="fill:#4444a3;fill-opacity:1;fill-rule:evenodd;stroke:none"
         transform="matrix(0.13333333,0,0,-0.13333333,0,780.13333)" />
      <path
         id="path35"
         d="M 1101.67,5048.79 C 945.934,5007.99 798.75,4950.2 669.691,4875.66 h -0.546 c -123.391,-71.2 -218.293,-151.43 -284.383,-235.48 -62.707,-79.74 -97.735,-161.05 -104.668,-238.83 -6.672,-74.84 12.168,-149.67 56.914,-219.76 47.402,-74.25 124.113,-144.46 230.805,-206.07 l -0.137,-0.23 1005.394,-580.4 c 966.32,-557.71 460.3,-265.45 622.01,-358.85 l 384.01,-221.78 c 113.11,-65.31 248.02,-113.56 395.27,-144.93 157.21,-33.5 326.68,-47.54 497.68,-42.46 171.31,5.11 344.84,29.55 509.79,72.91 157.26,41.34 305.17,99.38 433.99,173.68 l -0.14,0.24 c 124.39,71.84 219.72,152.01 285.6,235.62 62.67,79.49 97.75,160.47 104.75,238.18 6.72,74.63 -12.07,149.31 -56.77,219.31 -47.54,74.44 -124.05,144.61 -230.21,205.89 h -0.54 l -1005.96,580.85 c -911.03,526.17 -470.18,271.77 -634.12,366.38 l -371.59,214.48 c -112.78,65.1 -247.96,113.3 -395.89,144.75 -157.35,33.46 -327.04,47.47 -498.23,42.34 -172.02,-5.16 -346.01,-29.47 -511.05,-72.71 z m -571.889,68.44 c 150.785,87.09 321.75,154.34 501.939,201.55 184.8,48.42 380,75.65 573.34,81.44 194.03,5.82 386.06,-10 563.82,-47.79 174.41,-37.09 336.99,-95.77 476.77,-176.45 l 371.6,-214.48 c 587.38,-339 146.72,-84.25 635.22,-366.38 l 1005.96,-580.85 -0.17,-0.24 c 146.34,-84.55 254.88,-186.12 326.03,-297.48 78.75,-123.32 111.61,-257.22 99.37,-393.11 -11.98,-133.15 -66.48,-264.8 -162.66,-386.82 -87.15,-110.56 -209.25,-214.28 -365.39,-304.49 h -0.55 c -151.83,-87.61 -322.81,-155.2 -502.18,-202.33 -184.54,-48.51 -379.66,-75.88 -573.17,-81.65 -193.91,-5.77 -385.73,10.08 -563.28,47.91 -174.9,37.27 -337.64,96.02 -477.26,176.63 l -383.99,221.78 c -576.03,332.7 -68.71,40.14 -620.93,358.86 L 428.453,3733.96 h -0.547 C 281.996,3818.21 173.43,3919.94 101.992,4031.85 23.2617,4155.2 -9.69922,4289.23 2.44922,4425.39 14.3047,4558.33 68.75,4690.4 165.059,4812.89 c 86.558,110.08 208.41,213.77 364.859,304.1 l -0.137,0.24 v 0"
         style="fill:#dad4ee;fill-opacity:1;fill-rule:evenodd;stroke:none"
         transform="matrix(0.13333333,0,0,-0.13333333,0,780.13333)" />
      <path
         id="path36"
         d="m 3643.91,4907.45 66.45,-38.37 34.24,-19.77 c 69.85,-40.34 -39.78,-228.39 -108.83,-188.51 l -34.25,19.77 -66.45,38.37 -34.26,19.77 c -69.04,39.86 38.99,228.83 108.84,188.51 l 34.26,-19.77"
         style="fill:#dad4ee;fill-opacity:1;fill-rule:evenodd;stroke:none"
         transform="matrix(0.13333333,0,0,-0.13333333,0,780.13333)" />
      <path
         id="path37"
         d="m 3744.6,4849.31 c 69.85,-40.34 -39.78,-228.39 -108.83,-188.52 -69.06,39.87 39,228.84 108.83,188.52"
         style="fill:#bdb6e1;fill-opacity:1;fill-rule:evenodd;stroke:none"
         transform="matrix(0.13333333,0,0,-0.13333333,0,780.13333)" />
      <path
         id="path38"
         d="m 3717.1,4801.6 c 34.47,-19.91 -19.63,-112.73 -53.71,-93.05 -34.08,19.68 19.24,112.95 53.71,93.05"
         style="fill:#3a3d9d;fill-opacity:1;fill-rule:evenodd;stroke:none"
         transform="matrix(0.13333333,0,0,-0.13333333,0,780.13333)" />
      <path
         id="path39"
         d="m 3258.42,4328.77 c 66.75,0 139.49,-62.13 162.51,-138.77 23,-76.65 -12.47,-138.79 -79.2,-138.79 -66.76,0 -139.51,62.14 -162.51,138.79 -23.01,76.64 12.45,138.77 79.2,138.77"
         style="fill:#dad4ee;fill-opacity:1;fill-rule:evenodd;stroke:none"
         transform="matrix(0.13333333,0,0,-0.13333333,0,780.13333)" />
      <path
         id="path40"
         d="m 3290.95,4288.05 c 40.05,0 83.68,-37.27 97.48,-83.25 13.8,-45.98 -7.47,-83.24 -47.5,-83.24 -40.05,0 -83.69,37.26 -97.49,83.24 -13.79,45.98 7.48,83.25 47.51,83.25"
         style="fill:#42415a;fill-opacity:1;fill-rule:evenodd;stroke:none"
         transform="matrix(0.13333333,0,0,-0.13333333,0,780.13333)" />
      <path
         id="path41"
         d="m 688.168,2995.69 c -72.16,-136.75 -124.832,-245.01 -152.301,-401.92 -3.051,-17.42 1.805,-35.29 13.242,-48.78 11.454,-13.49 28.301,-21.19 45.985,-21.02 28.719,0.27 54.855,16.61 67.695,42.3 35.668,71.4 89.691,132 156.531,175.58 123.762,80.71 -39.84,426.88 -131.152,253.84"
         style="fill:#9c94d2;fill-opacity:1;fill-rule:evenodd;stroke:none"
         transform="matrix(0.13333333,0,0,-0.13333333,0,780.13333)" />
      <path
         id="path42"
         d="m 2511.44,1938.01 c -72.16,-136.74 -124.83,-245 -152.3,-401.89 -3.05,-17.43 1.8,-35.3 13.25,-48.8 11.44,-13.5 28.29,-21.18 45.98,-21.02 28.71,0.28 54.85,16.61 67.68,42.31 35.67,71.39 89.71,131.98 156.54,175.55 123.77,80.75 -39.84,426.89 -131.15,253.85"
         style="fill:#9c94d2;fill-opacity:1;fill-rule:evenodd;stroke:none"
         transform="matrix(0.13333333,0,0,-0.13333333,0,780.13333)" />
      <path
         id="path43"
         d="m 2055.21,3873 c 187.61,-81.71 299.92,-224.56 250.83,-319.07 -49.08,-94.51 -240.98,-104.89 -428.59,-23.18 -187.62,81.71 -299.93,224.56 -250.85,319.07 49.09,94.51 240.99,104.89 428.61,23.18"
         style="fill:#847cc6;fill-opacity:1;fill-rule:evenodd;stroke:none"
         transform="matrix(0.13333333,0,0,-0.13333333,0,780.13333)" />
      <path
         id="path44"
         d="m 2201.91,4002.46 c -23.48,68.89 5.63,146.01 70.97,181.53 70.24,38.18 158.06,15.1 200.45,-52.69 27.25,-43.59 30.98,-97.9 9.94,-144.8 -21.04,-46.9 -64.08,-80.23 -114.76,-88.86 -32.4,-23.45 -53.11,-69.41 -30.97,-103.9 23.64,-36.82 30.32,-82.01 18.34,-124.09 -11.97,-42.07 -41.45,-76.98 -80.93,-95.83 -85.64,-40.9 -186.04,-36.44 -267.73,11.89 l -115.32,49.7 c -78.07,33.65 -130.83,108.06 -136.74,192.87 l -22.89,48.93 c -25.84,55.24 -7.49,121.08 43.2,154.98 l 22.48,-45.62 c 13.87,-28.15 42.58,-45.91 73.94,-45.77 19.84,0.09 39.58,2.6 58.8,7.49 60.85,15.45 127.23,-0.18 185.28,-25.25 23.77,-10.25 49.79,-5.81 68.81,11.76 19.01,17.56 25.49,43.16 17.13,67.66"
         style="fill:#fbc907;fill-opacity:1;fill-rule:evenodd;stroke:none"
         transform="matrix(0.13333333,0,0,-0.13333333,0,780.13333)" />
      <path
         id="path45"
         d="m 2390.27,3999.8 c 9.01,1.49 16.32,9.3 17.19,18.37 1.71,17.87 15.78,33.42 33.46,37 17.68,3.58 33.96,-5.82 38.73,-22.36 2.34,-8.1 8.8,-13.95 17.12,-15.49 7.93,-1.46 15.08,-5.12 20.69,-10.57 13.66,-13.3 29.54,-24.14 47.06,-32.15 2.6,-1.18 4.35,-3.6 4.71,-6.53 0.36,-2.92 -0.7,-6.01 -2.86,-8.32 -26.75,-28.69 -63.16,-45.84 -100.08,-47.15 -36.91,-1.32 -70.82,13.34 -93.2,40.29 -12.32,14.82 -10.42,42.36 17.18,46.91"
         style="fill:#e61d2b;fill-opacity:1;fill-rule:evenodd;stroke:none"
         transform="matrix(0.13333333,0,0,-0.13333333,0,780.13333)" />
      <path
         id="path46"
         d="m 2340.38,4089.54 c 13.73,0 22.95,-13.5 20.59,-30.14 -2.36,-16.65 -15.4,-30.14 -29.13,-30.14 -13.73,0 -22.95,13.49 -20.59,30.14 2.36,16.64 15.41,30.14 29.13,30.14"
         style="fill:#2e2d2d;fill-opacity:1;fill-rule:evenodd;stroke:none"
         transform="matrix(0.13333333,0,0,-0.13333333,0,780.13333)" />
      <path
         id="path47"
         d="m 2462.22,4119.47 c -5.78,-2.87 -6.22,-16.47 -1.01,-30.37 5.22,-13.9 14.13,-22.84 19.9,-19.96 5.77,2.87 6.21,16.47 1,30.36 -5.22,13.9 -14.13,22.84 -19.89,19.97"
         style="fill:#2e2d2d;fill-opacity:1;fill-rule:evenodd;stroke:none"
         transform="matrix(0.13333333,0,0,-0.13333333,0,780.13333)" />
    </g>
  </g>
</svg>
