<?xml version="1.0" encoding="UTF-8" standalone="no"?>
<!-- Created with Inkscape (http://www.inkscape.org/) -->

<svg
   version="1.1"
   id="svg1"
   width="726.12"
   height="794.44"
   viewBox="0 0 726.12 794.44"
   sodipodi:docname="gardener-watering-with-a-hose.svg"
   inkscape:version="1.3.2 (091e20ef0f, 2023-11-25, custom)"
   xmlns:inkscape="http://www.inkscape.org/namespaces/inkscape"
   xmlns:sodipodi="http://sodipodi.sourceforge.net/DTD/sodipodi-0.dtd"
   xmlns="http://www.w3.org/2000/svg"
   xmlns:svg="http://www.w3.org/2000/svg">
  <defs
     id="defs1" />
  <sodipodi:namedview
     id="namedview1"
     pagecolor="#505050"
     bordercolor="#ffffff"
     borderopacity="1"
     inkscape:showpageshadow="0"
     inkscape:pageopacity="0"
     inkscape:pagecheckerboard="1"
     inkscape:deskcolor="#d1d1d1"
     inkscape:zoom="0.97427118"
     inkscape:cx="363.34853"
     inkscape:cy="397.22"
     inkscape:window-width="1920"
     inkscape:window-height="1002"
     inkscape:window-x="0"
     inkscape:window-y="0"
     inkscape:window-maximized="1"
     inkscape:current-layer="g1">
    <inkscape:page
       x="0"
       y="0"
       inkscape:label="1"
       id="page1"
       width="726.12"
       height="794.44"
       margin="0"
       bleed="0" />
  </sodipodi:namedview>
  <g
     id="g1"
     inkscape:groupmode="layer"
     inkscape:label="1">
    <g
       id="group-R5">
      <path
         id="path2"
         d="m 1551.24,100.262 c 0,7.519 -1.08,14 -3.31,19.308 -2.16,5.379 -5.2,9.532 -9.1,12.461 -3.89,2.84 -8.18,4.301 -12.92,4.301 -7.49,0 -13.83,-3.164 -18.99,-9.293 -5.15,-6.199 -7.73,-15.258 -7.73,-27.2577 0,-11.3204 2.58,-20.1094 7.66,-26.3125 C 1512,67.1602 1518.36,64 1525.91,64 c 4.51,0 8.73,1.3711 12.6,4.1484 3.79,2.7305 6.9,6.8399 9.23,12.2735 2.35,5.5195 3.5,12.0898 3.5,19.8401 z m -53.32,41.379 v -3.422 c 5.11,6.543 10.4,11.441 15.91,14.48 5.53,3.11 11.81,4.672 18.8,4.672 8.35,0 16.06,-2.269 23.1,-6.781 7.03,-4.512 12.59,-11.059 16.7,-19.758 4.08,-8.691 6.09,-18.922 6.09,-30.793 0,-8.707 -1.14,-16.8281 -3.51,-24.039 -2.34,-7.3203 -5.6,-13.5 -9.7,-18.4492 -4.12,-4.9492 -9.03,-8.7891 -14.6,-11.4219 -5.64,-2.7187 -11.69,-4.0273 -18.08,-4.0273 -7.82,0 -14.34,1.6289 -19.62,4.8867 -5.33,3.25 -10.33,8.0117 -15.09,14.3203 V 18.7188 C 1497.92,6.21875 1493.56,0 1484.86,0 c -5.11,0 -8.52,1.58984 -10.13,4.78906 -1.68,3.24219 -2.5,7.94924 -2.5,14.10154 V 141.449 c 0,5.403 1.09,9.449 3.37,12.11 2.3,2.652 5.37,4.011 9.26,4.011 3.86,0 7,-1.359 9.42,-4.14 2.41,-2.75 3.64,-6.7 3.64,-11.789"
         style="fill:#100f0d;fill-opacity:1;fill-rule:nonzero;stroke:none"
         transform="matrix(0.13333333,0,0,-0.13333333,0,794.44)" />
      <path
         id="path3"
         d="m 1671.06,58.1602 v 3.582 c -3.27,-4.2813 -6.68,-7.8711 -10.28,-10.7734 -3.59,-2.9571 -7.51,-5.1094 -11.74,-6.5 -4.29,-1.418 -9.13,-2.1407 -14.58,-2.1407 -6.54,0 -12.44,1.4336 -17.67,4.25 -5.22,2.8321 -9.27,6.7617 -12.08,11.7539 -3.45,6.0274 -5.1,14.6993 -5.1,25.9571 v 56.2699 c 0,5.652 1.23,9.921 3.7,12.722 2.46,2.797 5.69,4.219 9.73,4.219 4.14,0 7.44,-1.422 9.98,-4.289 2.53,-2.852 3.77,-7.082 3.77,-12.652 V 95.082 c 0,-6.5312 0.52,-12.082 1.56,-16.5117 1.11,-4.4922 3.02,-7.9883 5.8,-10.5586 2.7,-2.4922 6.46,-3.7617 11.17,-3.7617 4.63,0 8.93,1.4414 12.96,4.2695 4.08,2.8125 7.05,6.5118 8.89,11.0899 1.53,4.0312 2.28,12.832 2.28,26.4106 v 34.539 c 0,5.57 1.26,9.8 3.81,12.652 2.5,2.867 5.75,4.289 9.83,4.289 4.06,0 7.31,-1.422 9.77,-4.219 2.42,-2.801 3.63,-7.07 3.63,-12.722 V 58.332 c 0,-5.4101 -1.12,-9.4804 -3.49,-12.1523 -2.33,-2.7383 -5.37,-4.0586 -9.1,-4.0586 -3.71,0 -6.77,1.4375 -9.21,4.168 -2.42,2.8593 -3.63,6.7422 -3.63,11.8711"
         style="fill:#100f0d;fill-opacity:1;fill-rule:nonzero;stroke:none"
         transform="matrix(0.13333333,0,0,-0.13333333,0,794.44)" />
      <path
         id="path4"
         d="m 1749.96,99.1406 c 0,-11.289 2.46,-19.9414 7.38,-26.0312 4.97,-6.0274 11.47,-9.1094 19.53,-9.1094 6.85,0 12.7,3.1211 17.69,9.3203 4.97,6.2188 7.45,15.0508 7.45,26.6485 0,7.5622 -1.04,13.9722 -3.11,19.3632 -2.08,5.438 -5.02,9.617 -8.76,12.539 -3.85,2.938 -8.21,4.461 -13.27,4.461 -5.23,0 -9.78,-1.523 -13.86,-4.461 -4.08,-2.922 -7.24,-7.211 -9.58,-12.801 -2.33,-5.539 -3.47,-12.16 -3.47,-19.9294 z m -1.29,84.3794 v -43.391 c 5.05,5.601 10.3,9.801 15.6,12.812 5.32,2.93 11.93,4.43 19.74,4.43 9.05,0 16.96,-2.269 23.77,-6.691 6.8,-4.551 12.11,-10.989 15.84,-19.481 3.79,-8.48 5.64,-18.558 5.64,-30.199 0,-8.6094 -1.03,-16.4805 -3.1,-23.7109 -2.11,-7.1368 -5.12,-13.3282 -9.12,-18.6602 -4.02,-5.2383 -8.86,-9.2695 -14.51,-12.25 -5.71,-2.8203 -11.97,-4.2773 -18.8,-4.2773 -4.15,0 -8.12,0.5273 -11.83,1.5468 -3.68,1.0508 -6.85,2.4102 -9.37,4.1602 -2.63,1.6016 -4.84,3.4219 -6.68,5.1719 -1.81,1.8398 -4.2,4.5195 -7.18,8.1211 V 58.332 c 0,-5.3711 -1.26,-9.4023 -3.72,-12.1523 -2.43,-2.7383 -5.6,-4.0781 -9.34,-4.0781 -3.88,0 -6.93,1.3398 -9.26,4.0781 -2.26,2.8086 -3.41,6.8008 -3.41,12.1523 v 123.957 c 0,5.711 1.11,10.07 3.36,13.012 2.22,2.961 5.29,4.418 9.31,4.418 4.16,0 7.39,-1.387 9.62,-4.227 2.29,-2.781 3.44,-6.754 3.44,-11.972"
         style="fill:#100f0d;fill-opacity:1;fill-rule:nonzero;stroke:none"
         transform="matrix(0.13333333,0,0,-0.13333333,0,794.44)" />
      <path
         id="path5"
         d="M 1848.46,59.3789 V 182.469 c 0,5.711 1.21,9.98 3.6,12.91 2.47,2.883 5.72,4.34 9.84,4.34 4.13,0 7.43,-1.41 9.97,-4.297 2.48,-2.871 3.79,-7.223 3.79,-12.953 V 59.3789 c 0,-5.7578 -1.31,-10.0976 -3.86,-13 -2.54,-2.8203 -5.85,-4.2773 -9.9,-4.2773 -3.98,0 -7.18,1.5 -9.69,4.4765 -2.5,2.9922 -3.75,7.2305 -3.75,12.8008"
         style="fill:#100f0d;fill-opacity:1;fill-rule:nonzero;stroke:none"
         transform="matrix(0.13333333,0,0,-0.13333333,0,794.44)" />
      <path
         id="path6"
         d="M 1930.93,141.371 V 59.3789 c 0,-5.7187 -1.33,-10.0195 -3.85,-12.9297 -2.62,-2.8476 -5.92,-4.3476 -9.87,-4.3476 -4,0 -7.25,1.5 -9.72,4.4492 -2.47,3.0195 -3.76,7.2578 -3.76,12.8281 v 81.1801 c 0,5.57 1.29,9.8 3.76,12.652 2.47,2.867 5.72,4.289 9.72,4.289 3.95,0 7.25,-1.422 9.87,-4.289 2.52,-2.852 3.85,-6.781 3.85,-11.84 z m -13.45,29.348 c -3.79,0 -7,1.211 -9.75,3.699 -2.62,2.414 -4,5.871 -4,10.324 0,3.996 1.38,7.278 4.15,9.918 2.75,2.61 5.95,3.832 9.6,3.832 3.52,0 6.66,-1.14 9.37,-3.48 2.71,-2.36 4.08,-5.832 4.08,-10.27 0,-4.414 -1.34,-7.824 -4,-10.242 -2.66,-2.461 -5.77,-3.781 -9.45,-3.781"
         style="fill:#100f0d;fill-opacity:1;fill-rule:nonzero;stroke:none"
         transform="matrix(0.13333333,0,0,-0.13333333,0,794.44)" />
      <path
         id="path7"
         d="m 2056.46,77.25 c 0,-3.5117 -1,-7.3086 -3.02,-11.3398 -2.05,-4.0118 -5.13,-7.8204 -9.3,-11.4688 -4.13,-3.6211 -9.36,-6.5508 -15.67,-8.75 -6.31,-2.2812 -13.43,-3.3633 -21.31,-3.3633 -16.82,0 -29.93,5.1328 -39.37,15.3321 -9.41,10.2304 -14.14,23.8984 -14.14,41.1015 0,11.6483 2.15,21.9683 6.45,30.8793 4.31,8.89 10.61,15.859 18.74,20.718 8.15,4.922 17.95,7.36 29.27,7.36 7.07,0 13.54,-1.098 19.42,-3.219 5.87,-2.172 10.85,-4.949 14.93,-8.309 4.08,-3.41 7.2,-7.043 9.37,-10.863 2.18,-3.84 3.23,-7.437 3.23,-10.769 0,-3.348 -1.24,-6.227 -3.63,-8.61 -2.45,-2.379 -5.35,-3.539 -8.81,-3.539 -2.28,0 -4.13,0.649 -5.66,1.86 -1.45,1.171 -3.15,3.082 -5.03,5.839 -3.3,5.25 -6.79,9.231 -10.4,11.922 -3.63,2.598 -8.23,3.949 -13.76,3.949 -8.09,0 -14.56,-3.328 -19.46,-9.871 -4.93,-6.578 -7.36,-15.539 -7.36,-26.9098 0,-5.2969 0.63,-10.2695 1.91,-14.6992 1.25,-4.4883 3.07,-8.2891 5.45,-11.4687 2.4,-3.1524 5.26,-5.5196 8.66,-7.1602 3.39,-1.6602 7.12,-2.4492 11.14,-2.4492 5.48,0 10.13,1.289 14.02,3.9297 3.9,2.6601 7.33,6.6875 10.31,12.0273 1.67,3.2734 3.45,5.7422 5.39,7.5703 1.95,1.8125 4.31,2.6602 7.09,2.6602 3.31,0 6.07,-1.2696 8.28,-3.9102 2.15,-2.6992 3.26,-5.4687 3.26,-8.4492"
         style="fill:#100f0d;fill-opacity:1;fill-rule:nonzero;stroke:none"
         transform="matrix(0.13333333,0,0,-0.13333333,0,794.44)" />
      <path
         id="path8"
         d="m 2101.26,99.9688 c 0,-7.6993 1.14,-14.1993 3.42,-19.6407 2.31,-5.4179 5.4,-9.4492 9.39,-12.1797 4.01,-2.7773 8.37,-4.1484 13.04,-4.1484 4.79,0 9.15,1.3281 13.1,3.8906 3.97,2.6094 7.09,6.6289 9.48,11.9883 2.37,5.3516 3.53,12.082 3.53,20.0899 0,7.6012 -1.16,14.0622 -3.53,19.5312 -2.39,5.449 -5.55,9.602 -9.56,12.531 -4.03,2.84 -8.41,4.301 -13.19,4.301 -4.96,0 -9.41,-1.523 -13.34,-4.461 -3.89,-2.922 -6.97,-7.199 -9.12,-12.699 -2.14,-5.531 -3.22,-11.871 -3.22,-19.2032 z m 53.46,-41.6368 v 2.7696 c -3.66,-4.3711 -7.26,-7.9102 -10.86,-10.6094 -3.49,-2.7734 -7.37,-4.8438 -11.52,-6.2734 -4.13,-1.379 -8.67,-2.1172 -13.57,-2.1172 -6.5,0 -12.57,1.457 -18.09,4.2773 -5.53,2.9805 -10.32,7.0313 -14.38,12.3711 -4.04,5.3398 -7.12,11.6094 -9.22,18.8398 -2.12,7.1797 -3.14,14.9805 -3.14,23.4102 0,17.699 4.16,31.59 12.46,41.512 8.32,9.91 19.23,14.859 32.76,14.859 7.83,0 14.45,-1.43 19.82,-4.289 5.37,-2.762 10.63,-7.082 15.74,-12.953 v 41.922 c 0,5.84 1.1,10.23 3.34,13.199 2.21,3 5.35,4.469 9.49,4.469 4.11,0 7.28,-1.379 9.53,-4.078 2.21,-2.719 3.36,-6.782 3.36,-12.121 V 58.332 c 0,-5.4101 -1.21,-9.4804 -3.61,-12.1523 -2.41,-2.7383 -5.46,-4.0781 -9.28,-4.0781 -3.68,0 -6.79,1.3984 -9.22,4.1875 -2.41,2.8125 -3.61,6.7812 -3.61,12.0429"
         style="fill:#100f0d;fill-opacity:1;fill-rule:nonzero;stroke:none"
         transform="matrix(0.13333333,0,0,-0.13333333,0,794.44)" />
      <path
         id="path9"
         d="m 2282.25,99.7422 c 0,11.5278 -2.48,20.5778 -7.34,27.0198 -4.89,6.406 -11.46,9.66 -19.68,9.66 -5.35,0 -10,-1.442 -14.06,-4.32 -4.04,-2.922 -7.16,-7.153 -9.35,-12.77 -2.18,-5.562 -3.3,-12.07 -3.3,-19.5898 0,-7.4336 1.12,-13.8906 3.24,-19.4141 2.15,-5.5468 5.25,-9.7968 9.29,-12.7461 4,-2.9414 8.77,-4.3828 14.18,-4.3828 8.22,0 14.79,3.211 19.68,9.6914 4.86,6.4492 7.34,15.4492 7.34,26.8516 z m 27.28,0 c 0,-8.4102 -1.28,-16.2109 -3.79,-23.4024 -2.52,-7.0781 -6.17,-13.2304 -10.93,-18.3789 -4.81,-5.1328 -10.52,-8.9726 -17.15,-11.7812 -6.64,-2.7383 -14.17,-4.0781 -22.43,-4.0781 -8.22,0 -15.64,1.3398 -22.19,4.1601 -6.58,2.7578 -12.31,6.7188 -17.13,11.8985 -4.79,5.1796 -8.42,11.2304 -10.95,18.2617 -2.48,7.0781 -3.72,14.8164 -3.72,23.3672 0,8.5899 1.27,16.4609 3.77,23.5629 2.52,7.179 6.12,13.238 10.85,18.328 4.73,5.05 10.42,8.949 17.18,11.679 6.72,2.75 14.08,4.141 22.19,4.141 8.25,0 15.72,-1.391 22.43,-4.168 6.68,-2.773 12.43,-6.762 17.2,-11.883 4.82,-5.117 8.44,-11.258 10.88,-18.328 2.55,-7.051 3.79,-14.851 3.79,-23.3788"
         style="fill:#100f0d;fill-opacity:1;fill-rule:nonzero;stroke:none"
         transform="matrix(0.13333333,0,0,-0.13333333,0,794.44)" />
      <path
         id="path10"
         d="m 2424.38,123.191 c -2.04,-4.8 -3,-13.261 -3,-25.4605 V 60.0117 c 0,-5.9336 -1.27,-10.4414 -3.89,-13.4336 -2.58,-2.9765 -6.04,-4.4765 -10.29,-4.4765 -4.08,0 -7.41,1.5 -9.95,4.4765 -2.56,2.9922 -3.81,7.5 -3.81,13.4336 v 45.2773 c 0,7.121 -0.27,12.641 -0.74,16.652 -0.47,3.899 -1.72,7.168 -3.78,9.707 -2.02,2.543 -5.3,3.801 -9.73,3.801 -8.89,0 -14.74,-3.187 -17.59,-9.609 -2.85,-6.34 -4.19,-15.5 -4.19,-27.4494 V 60.0117 c 0,-5.9219 -1.31,-10.3906 -3.84,-13.3398 -2.58,-3.0703 -5.95,-4.5703 -10.08,-4.5703 -4.15,0 -7.56,1.5 -10.16,4.5703 -2.65,2.9492 -3.9,7.4179 -3.9,13.3398 v 81.2073 c 0,5.351 1.13,9.41 3.46,12.172 2.39,2.757 5.49,4.179 9.38,4.179 3.71,0 6.82,-1.289 9.29,-3.89 2.48,-2.59 3.73,-6.168 3.73,-10.758 v -2.692 c 4.7,5.899 9.76,10.239 15.12,12.981 5.37,2.769 11.42,4.16 17.94,4.16 6.82,0 12.68,-1.43 17.59,-4.289 4.94,-2.812 8.97,-7.121 12.14,-12.852 4.59,5.77 9.5,10.129 14.77,12.93 5.25,2.82 11.05,4.211 17.4,4.211 7.49,0 13.89,-1.5 19.22,-4.59 5.4,-3.051 9.41,-7.402 12.08,-13.09 2.34,-5.132 3.47,-13.203 3.47,-24.25 V 60.0117 c 0,-5.9336 -1.28,-10.4414 -3.83,-13.4336 -2.65,-2.9765 -6.03,-4.4765 -10.29,-4.4765 -4.13,0 -7.49,1.5 -10.1,4.5703 -2.66,2.9492 -3.97,7.4179 -3.97,13.3398 v 47.7693 c 0,6.098 -0.24,10.981 -0.73,14.66 -0.5,3.707 -1.85,6.739 -4.06,9.25 -2.18,2.5 -5.52,3.758 -9.93,3.758 -3.58,0 -7.01,-1.117 -10.18,-3.289 -3.27,-2.238 -5.71,-5.219 -7.55,-8.969 v 0"
         style="fill:#100f0d;fill-opacity:1;fill-rule:nonzero;stroke:none"
         transform="matrix(0.13333333,0,0,-0.13333333,0,794.44)" />
      <path
         id="path11"
         d="m 2578.4,99.1992 c -4.01,-1.5586 -9.8,-3.1211 -17.4,-4.8476 -7.62,-1.6993 -12.88,-2.9414 -15.8,-3.75 -2.93,-0.8203 -5.73,-2.3633 -8.34,-4.6602 -2.69,-2.3906 -4.03,-5.6133 -4.03,-9.7695 0,-4.3399 1.58,-7.961 4.67,-10.9922 3.14,-3.0586 7.24,-4.5313 12.29,-4.5313 5.37,0 10.36,1.25 14.89,3.711 4.55,2.4414 7.92,5.6523 10,9.5 2.47,4.3203 3.72,11.3711 3.72,21.3008 z m 1.77,-41.1094 c -6.59,-5.3515 -12.94,-9.3281 -19.08,-11.9609 -6.12,-2.7187 -13.05,-4.0273 -20.65,-4.0273 -7.02,0 -13.09,1.457 -18.41,4.2773 -5.32,2.9024 -9.34,6.8125 -12.22,11.7813 -2.82,4.9101 -4.28,10.1914 -4.28,15.9882 0,7.7618 2.41,14.3516 7.12,19.8399 4.67,5.4531 11.14,9.1327 19.37,11.0237 1.73,0.41 6.04,1.308 12.84,2.769 6.91,1.489 12.71,2.789 17.67,4 4.83,1.188 10.16,2.68 15.87,4.399 -0.35,7.519 -1.78,13 -4.32,16.582 -2.6,3.468 -7.93,5.168 -15.92,5.168 -6.94,0 -12.11,-0.969 -15.64,-2.981 -3.46,-1.988 -6.48,-5.027 -8.93,-9.109 -2.52,-3.988 -4.24,-6.66 -5.27,-7.918 -1.06,-1.313 -3.28,-1.891 -6.61,-1.891 -3.1,0 -5.72,1.008 -7.92,3.028 -2.26,2.062 -3.36,4.64 -3.36,7.882 0,4.969 1.69,9.86 5.06,14.508 3.4,4.742 8.69,8.602 15.85,11.711 7.17,3.051 16.13,4.559 26.82,4.559 11.93,0 21.34,-1.508 28.23,-4.438 6.82,-2.922 11.6,-7.551 14.45,-13.98 2.84,-6.34 4.24,-14.832 4.24,-25.36 0,-6.64 0,-12.332 -0.04,-16.941 -0.05,-4.6914 -0.08,-9.8398 -0.15,-15.5195 0,-5.3086 0.84,-10.8985 2.56,-16.6602 1.65,-5.789 2.49,-9.5312 2.49,-11.1601 0,-2.9219 -1.33,-5.5899 -3.93,-7.9688 -2.57,-2.3828 -5.58,-3.5898 -8.88,-3.5898 -2.83,0 -5.53,1.3398 -8.3,4.0781 -2.71,2.75 -5.6,6.7422 -8.66,11.9101"
         style="fill:#100f0d;fill-opacity:1;fill-rule:nonzero;stroke:none"
         transform="matrix(0.13333333,0,0,-0.13333333,0,794.44)" />
      <path
         id="path12"
         d="M 2659.9,141.371 V 59.3789 c 0,-5.7187 -1.3,-10.0195 -3.85,-12.9297 -2.59,-2.8476 -5.85,-4.3476 -9.85,-4.3476 -3.98,0 -7.26,1.5 -9.72,4.4492 -2.52,3.0195 -3.77,7.2578 -3.77,12.8281 v 81.1801 c 0,5.57 1.25,9.8 3.77,12.652 2.46,2.867 5.74,4.289 9.72,4.289 4,0 7.26,-1.422 9.85,-4.289 2.55,-2.852 3.85,-6.781 3.85,-11.84 z m -13.44,29.348 c -3.75,0 -6.97,1.211 -9.66,3.699 -2.69,2.414 -4.09,5.871 -4.09,10.324 0,3.996 1.41,7.278 4.17,9.918 2.73,2.61 5.97,3.832 9.58,3.832 3.54,0 6.69,-1.14 9.42,-3.48 2.68,-2.36 4.02,-5.832 4.02,-10.27 0,-4.414 -1.3,-7.824 -3.97,-10.242 -2.66,-2.461 -5.81,-3.781 -9.47,-3.781"
         style="fill:#100f0d;fill-opacity:1;fill-rule:nonzero;stroke:none"
         transform="matrix(0.13333333,0,0,-0.13333333,0,794.44)" />
      <path
         id="path13"
         d="m 2712.75,141.781 v -3.39 c 4.76,6.57 9.98,11.398 15.62,14.48 5.69,3.07 12.23,4.629 19.63,4.629 7.13,0 13.57,-1.629 19.26,-4.918 5.58,-3.242 9.83,-7.82 12.58,-13.762 1.82,-3.492 2.94,-7.269 3.52,-11.281 0.49,-3.969 0.8,-9.109 0.8,-15.367 V 59.3789 c 0,-5.7187 -1.29,-10.0195 -3.76,-12.9297 -2.5,-2.8476 -5.74,-4.3476 -9.71,-4.3476 -4.04,0 -7.35,1.5 -9.77,4.4765 -2.56,2.9922 -3.86,7.2305 -3.86,12.8008 v 47.2691 c 0,9.403 -1.21,16.543 -3.69,21.481 -2.54,4.953 -7.52,7.473 -14.96,7.473 -4.84,0 -9.24,-1.532 -13.22,-4.563 -3.98,-2.98 -6.9,-7.137 -8.75,-12.418 -1.34,-4.23 -2.04,-12.09 -2.04,-23.7421 v -35.5 c 0,-5.7578 -1.25,-10.0976 -3.82,-13 -2.57,-2.8203 -5.87,-4.2773 -9.9,-4.2773 -3.89,0 -7.14,1.5 -9.65,4.4492 -2.57,3.0195 -3.8,7.2578 -3.8,12.8281 v 81.9921 c 0,5.43 1.11,9.43 3.4,12.098 2.21,2.679 5.38,4.031 9.27,4.031 2.35,0 4.54,-0.641 6.43,-1.77 1.99,-1.16 3.48,-2.992 4.65,-5.261 1.12,-2.41 1.77,-5.289 1.77,-8.688"
         style="fill:#100f0d;fill-opacity:1;fill-rule:nonzero;stroke:none"
         transform="matrix(0.13333333,0,0,-0.13333333,0,794.44)" />
      <path
         id="path14"
         d="m 2827.8,139.828 21.97,-64.4374 23.72,67.2504 c 1.88,5.418 3.7,9.199 5.51,11.468 1.83,2.243 4.51,3.391 8.14,3.391 3.46,0 6.39,-1.219 8.87,-3.691 2.37,-2.399 3.59,-5.161 3.59,-8.43 0,-1.219 -0.23,-2.66 -0.66,-4.277 -0.4,-1.704 -0.89,-3.262 -1.49,-4.762 -0.57,-1.391 -1.15,-3.078 -1.94,-4.938 l -26.09,-67.57 c -0.73,-1.9336 -1.7,-4.4218 -2.83,-7.4101 -1.18,-2.9727 -2.5,-5.461 -3.88,-7.6602 -1.47,-2.0898 -3.21,-3.6914 -5.28,-4.8828 -2.13,-1.1797 -4.68,-1.7773 -7.66,-1.7773 -3.85,0 -6.91,0.9101 -9.23,2.7187 -2.29,1.8516 -3.99,3.8399 -5.07,6.0703 -1.08,2.1407 -2.96,6.4883 -5.52,12.9414 l -25.93,66.836 c -0.59,1.633 -1.24,3.312 -1.88,4.98 -0.6,1.661 -1.09,3.321 -1.55,5.09 -0.42,1.774 -0.67,3.25 -0.67,4.442 0,1.98 0.57,3.898 1.72,5.8 1.13,1.93 2.7,3.5 4.68,4.68 2.02,1.199 4.13,1.84 6.5,1.84 4.47,0 7.59,-1.352 9.3,-4.109 1.7,-2.672 3.6,-7.2 5.68,-13.563"
         style="fill:#100f0d;fill-opacity:1;fill-rule:nonzero;stroke:none"
         transform="matrix(0.13333333,0,0,-0.13333333,0,794.44)" />
      <path
         id="path15"
         d="m 2939.03,109.012 h 49.29 c -0.62,9.668 -3.11,16.918 -7.5,21.718 -4.36,4.79 -10.1,7.2 -17.22,7.2 -6.72,0 -12.31,-2.438 -16.64,-7.301 -4.34,-4.859 -6.95,-12.09 -7.93,-21.617 z m 53.21,-16.1526 h -53.21 c 0.01,-6.4688 1.31,-12.1406 3.69,-17.0977 2.47,-4.8828 5.67,-8.6015 9.7,-11.1211 4.01,-2.5195 8.46,-3.7187 13.31,-3.7187 3.24,0 6.25,0.3867 8.9,1.1679 2.67,0.8321 5.31,2.0821 7.86,3.75 2.48,1.6993 4.79,3.4688 6.93,5.4922 2.1,1.9375 4.94,4.5196 8.28,7.8672 1.4,1.3125 3.41,1.9024 5.96,1.9024 2.84,0 5.07,-0.7735 6.81,-2.4102 1.73,-1.6016 2.54,-3.8203 2.54,-6.7305 0,-2.5703 -0.94,-5.5703 -2.88,-9.039 -1.91,-3.3711 -4.76,-6.6914 -8.71,-9.8906 -3.9,-3.1211 -8.77,-5.6915 -14.65,-7.8321 -5.85,-2.0703 -12.58,-3.0976 -20.29,-3.0976 -17.43,0 -31.03,5.2382 -40.69,15.5781 -9.69,10.4492 -14.51,24.5117 -14.51,42.2891 0,8.4922 1.23,16.2112 3.56,23.3712 2.4,7.191 5.86,13.332 10.46,18.441 4.59,5.16 10.2,9.117 16.93,11.821 6.73,2.75 14.14,4.117 22.34,4.117 10.55,0 19.7,-2.328 27.3,-7.039 7.62,-4.68 13.31,-10.68 17.09,-18.09 3.78,-7.461 5.68,-14.981 5.68,-22.731 0,-7.078 -1.91,-11.7106 -5.86,-13.8082 -3.96,-2.1485 -9.43,-3.1914 -16.54,-3.1914"
         style="fill:#100f0d;fill-opacity:1;fill-rule:nonzero;stroke:none"
         transform="matrix(0.13333333,0,0,-0.13333333,0,794.44)" />
      <path
         id="path16"
         d="m 3135.12,77.25 c 0,-3.5117 -1.01,-7.3086 -3.08,-11.3398 -2.03,-4.0118 -5.06,-7.8204 -9.25,-11.4688 -4.13,-3.6211 -9.4,-6.5508 -15.73,-8.75 -6.27,-2.2812 -13.42,-3.3633 -21.25,-3.3633 -16.86,0 -29.97,5.1328 -39.38,15.3321 -9.41,10.2304 -14.15,23.8984 -14.15,41.1015 0,11.6483 2.13,21.9683 6.49,30.8793 4.33,8.89 10.51,15.859 18.71,20.718 8.14,4.922 17.93,7.36 29.31,7.36 7.03,0 13.46,-1.098 19.39,-3.219 5.86,-2.172 10.8,-4.949 14.94,-8.309 4.09,-3.41 7.17,-7.043 9.36,-10.863 2.14,-3.84 3.21,-7.437 3.21,-10.769 0,-3.348 -1.18,-6.227 -3.68,-8.61 -2.39,-2.379 -5.32,-3.539 -8.78,-3.539 -2.26,0 -4.13,0.649 -5.6,1.86 -1.52,1.171 -3.18,3.082 -5.06,5.839 -3.32,5.25 -6.77,9.231 -10.39,11.922 -3.63,2.598 -8.23,3.949 -13.82,3.949 -7.99,0 -14.48,-3.328 -19.4,-9.871 -4.96,-6.578 -7.4,-15.539 -7.4,-26.9098 0,-5.2969 0.67,-10.2695 1.89,-14.6992 1.26,-4.4883 3.11,-8.2891 5.51,-11.4687 2.39,-3.1524 5.3,-5.5196 8.67,-7.1602 3.33,-1.6602 7.08,-2.4492 11.16,-2.4492 5.43,0 10.11,1.289 14,3.9297 3.87,2.6601 7.34,6.6875 10.32,12.0273 1.67,3.2734 3.43,5.7422 5.38,7.5703 1.91,1.8125 4.23,2.6602 7.07,2.6602 3.28,0 6.08,-1.2696 8.19,-3.9102 2.24,-2.6992 3.37,-5.4687 3.37,-8.4492"
         style="fill:#100f0d;fill-opacity:1;fill-rule:nonzero;stroke:none"
         transform="matrix(0.13333333,0,0,-0.13333333,0,794.44)" />
      <path
         id="path17"
         d="m 3160.37,155.102 h 2.99 v 17.058 c 0,4.539 0.13,8.168 0.37,10.762 0.23,2.598 0.82,4.777 1.94,6.687 1.03,1.911 2.56,3.5 4.59,4.743 1.98,1.179 4.19,1.757 6.65,1.757 3.44,0 6.58,-1.328 9.35,-4.019 1.82,-1.82 3.03,-3.988 3.53,-6.57 0.5,-2.598 0.73,-6.348 0.73,-11.102 v -19.316 h 10 c 3.85,0 6.79,-0.961 8.82,-2.872 2.06,-1.91 3.04,-4.32 3.04,-7.308 0,-3.82 -1.43,-6.531 -4.36,-8.024 -2.87,-1.488 -7.01,-2.269 -12.39,-2.269 h -5.11 V 82.3594 c 0,-4.4492 0.16,-7.8711 0.45,-10.2891 0.35,-2.4101 1.19,-4.3515 2.45,-5.8008 1.26,-1.5 3.37,-2.2695 6.32,-2.2695 1.58,0 3.73,0.2695 6.48,0.8984 2.66,0.5704 4.8,0.8829 6.35,0.8829 2.18,0 4.22,-0.961 5.95,-2.711 1.71,-1.8906 2.62,-4.1211 2.62,-6.8398 0,-4.5586 -2.34,-8.0625 -7.16,-10.4922 -4.83,-2.4297 -11.69,-3.6367 -20.61,-3.6367 -8.51,0 -14.97,1.5 -19.36,4.4765 -4.35,2.9922 -7.27,7.0821 -8.58,12.4102 -1.4,5.2617 -2.07,12.293 -2.07,21.0937 v 54.547 h -3.61 c -3.85,0 -6.85,0.973 -8.93,2.922 -2.07,1.937 -3.08,4.367 -3.08,7.371 0,2.988 1.06,5.398 3.2,7.308 2.19,1.911 5.3,2.872 9.43,2.872"
         style="fill:#100f0d;fill-opacity:1;fill-rule:nonzero;stroke:none"
         transform="matrix(0.13333333,0,0,-0.13333333,0,794.44)" />
      <path
         id="path18"
         d="m 3305.57,99.7422 c 0,11.5278 -2.46,20.5778 -7.32,27.0198 -4.93,6.406 -11.42,9.66 -19.69,9.66 -5.33,0 -10,-1.442 -14.02,-4.32 -4.08,-2.922 -7.2,-7.153 -9.37,-12.77 -2.19,-5.562 -3.31,-12.07 -3.31,-19.5898 0,-7.4336 1.12,-13.8906 3.27,-19.4141 2.15,-5.5468 5.21,-9.7968 9.23,-12.7461 4,-2.9414 8.75,-4.3828 14.2,-4.3828 8.27,0 14.76,3.211 19.69,9.6914 4.86,6.4492 7.32,15.4492 7.32,26.8516 z m 27.3,0 c 0,-8.4102 -1.25,-16.2109 -3.82,-23.4024 -2.5,-7.0781 -6.17,-13.2304 -10.92,-18.3789 -4.8,-5.1328 -10.52,-8.9726 -17.13,-11.7812 -6.67,-2.7383 -14.1,-4.0781 -22.44,-4.0781 -8.27,0 -15.68,1.3398 -22.22,4.1601 -6.56,2.7578 -12.29,6.7188 -17.09,11.8985 -4.8,5.1796 -8.46,11.2304 -10.91,18.2617 -2.48,7.0781 -3.7,14.8164 -3.7,23.3672 0,8.5899 1.22,16.4609 3.7,23.5629 2.58,7.179 6.15,13.238 10.86,18.328 4.76,5.05 10.45,8.949 17.14,11.679 6.78,2.75 14.16,4.141 22.22,4.141 8.27,0 15.7,-1.391 22.44,-4.168 6.7,-2.773 12.42,-6.762 17.21,-11.883 4.73,-5.117 8.44,-11.258 10.92,-18.328 2.49,-7.051 3.74,-14.851 3.74,-23.3788"
         style="fill:#100f0d;fill-opacity:1;fill-rule:nonzero;stroke:none"
         transform="matrix(0.13333333,0,0,-0.13333333,0,794.44)" />
      <path
         id="path19"
         d="M 3381.32,83 V 59.3789 c 0,-5.7578 -1.31,-10.0976 -3.91,-13 -2.6,-2.8203 -5.87,-4.2773 -9.89,-4.2773 -3.87,0 -7.12,1.5 -9.63,4.3476 -2.52,2.9102 -3.76,7.211 -3.76,12.9297 v 78.9921 c 0,12.77 4.4,19.129 13.23,19.129 4.48,0 7.75,-1.52 9.78,-4.469 1.95,-2.98 3.01,-7.39 3.27,-13.203 3.23,5.813 6.61,10.223 10.04,13.203 3.42,2.949 7.96,4.469 13.64,4.469 5.76,0 11.28,-1.52 16.68,-4.469 5.35,-2.98 8.08,-6.953 8.08,-11.851 0,-3.461 -1.18,-6.371 -3.47,-8.59 -2.26,-2.231 -4.75,-3.41 -7.44,-3.41 -0.98,0 -3.4,0.672 -7.21,1.98 -3.85,1.262 -7.21,1.922 -10.15,1.922 -3.94,0 -7.19,-1.051 -9.69,-3.293 -2.54,-2.219 -4.51,-5.41 -5.9,-9.699 -1.4,-4.34 -2.4,-9.43 -2.9,-15.391 -0.51,-5.8904 -0.77,-13.0896 -0.77,-21.699"
         style="fill:#100f0d;fill-opacity:1;fill-rule:nonzero;stroke:none"
         transform="matrix(0.13333333,0,0,-0.13333333,0,794.44)" />
      <path
         id="path20"
         d="m 3526.17,79.1797 c 0,-7.8477 -1.82,-14.5391 -5.52,-20.1211 -3.67,-5.6094 -9.05,-9.7773 -16.2,-12.6875 -7.16,-2.8125 -15.82,-4.2695 -26.1,-4.2695 -9.68,0 -18.1,1.5468 -25.09,4.6992 -6.97,3.1094 -12.13,6.9805 -15.42,11.6484 -3.36,4.6602 -5.07,9.3594 -5.07,14.0625 0,3.1094 1.1,5.7891 3.27,8 2.11,2.2696 4.82,3.3203 8.03,3.3203 2.87,0 5.1,-0.7422 6.61,-2.1523 1.53,-1.5391 2.95,-3.5391 4.39,-6.1797 2.78,-5.0703 6.1,-8.8398 10.05,-11.3281 3.82,-2.5313 9.12,-3.7735 15.89,-3.7735 5.42,0 9.89,1.2813 13.38,3.8125 3.47,2.5313 5.27,5.4102 5.27,8.6797 0,5.0196 -1.84,8.668 -5.43,10.9297 -3.67,2.3399 -9.6,4.5195 -17.9,6.5781 -9.36,2.4297 -17,4.9805 -22.89,7.6211 -5.87,2.6915 -10.63,6.2305 -14.11,10.6015 -3.53,4.301 -5.32,9.711 -5.32,16.078 0,5.723 1.64,11.09 4.91,16.133 3.23,5.059 8.1,9.09 14.42,12.109 6.33,3.039 13.97,4.559 22.99,4.559 7,0 13.33,-0.789 18.97,-2.309 5.6,-1.511 10.34,-3.582 14.04,-6.113 3.75,-2.578 6.64,-5.418 8.58,-8.519 1.99,-3.149 2.96,-6.2 2.96,-9.157 0,-3.273 -1.03,-5.882 -3.17,-8.05 -2.09,-2 -5.09,-3.051 -8.88,-3.051 -2.82,0 -5.19,0.82 -7.19,2.519 -1.91,1.641 -4.19,4.121 -6.7,7.399 -2.06,2.781 -4.46,5.019 -7.28,6.679 -2.8,1.633 -6.58,2.5 -11.33,2.5 -4.93,0 -9.05,-1.078 -12.25,-3.289 -3.28,-2.168 -4.92,-4.91 -4.92,-8.168 0,-2.992 1.21,-5.429 3.56,-7.332 2.43,-1.91 5.63,-3.488 9.7,-4.75 4.08,-1.25 9.64,-2.8 16.75,-4.589 8.46,-2.129 15.32,-4.668 20.68,-7.68 5.35,-2.949 9.39,-6.4884 12.14,-10.5392 2.8,-4.0899 4.18,-8.711 4.18,-13.8711"
         style="fill:#100f0d;fill-opacity:1;fill-rule:nonzero;stroke:none"
         transform="matrix(0.13333333,0,0,-0.13333333,0,794.44)" />
      <path
         id="path21"
         d="m 3557.05,42.1016 c -4.12,0 -7.68,1.3398 -10.63,4.1601 -3.04,2.7578 -4.52,6.6602 -4.52,11.6094 0,4.2187 1.4,7.8594 4.23,10.918 2.86,3.0429 6.41,4.5312 10.6,4.5312 4.16,0 7.74,-1.4883 10.63,-4.5195 3,-2.961 4.49,-6.6797 4.49,-10.9297 0,-4.9102 -1.49,-8.7695 -4.49,-11.582 -2.89,-2.7891 -6.33,-4.1875 -10.31,-4.1875"
         style="fill:#100f0d;fill-opacity:1;fill-rule:nonzero;stroke:none"
         transform="matrix(0.13333333,0,0,-0.13333333,0,794.44)" />
      <path
         id="path22"
         d="m 3677.3,99.7422 c 0,11.5278 -2.45,20.5778 -7.33,27.0198 -4.88,6.406 -11.42,9.66 -19.65,9.66 -5.32,0 -9.95,-1.442 -14.02,-4.32 -4.06,-2.922 -7.18,-7.153 -9.36,-12.77 -2.16,-5.562 -3.28,-12.07 -3.28,-19.5898 0,-7.4336 1.05,-13.8906 3.2,-19.4141 2.22,-5.5468 5.27,-9.7968 9.3,-12.7461 4.01,-2.9414 8.72,-4.3828 14.16,-4.3828 8.23,0 14.77,3.211 19.65,9.6914 4.88,6.4492 7.33,15.4492 7.33,26.8516 z m 27.33,0 c 0,-8.4102 -1.25,-16.2109 -3.81,-23.4024 -2.54,-7.0781 -6.15,-13.2304 -10.95,-18.3789 -4.82,-5.1328 -10.47,-8.9726 -17.13,-11.7812 -6.62,-2.7383 -14.09,-4.0781 -22.42,-4.0781 -8.22,0 -15.62,1.3398 -22.19,4.1601 -6.59,2.7578 -12.25,6.7188 -17.06,11.8985 -4.89,5.1796 -8.51,11.2304 -11.03,18.2617 -2.44,7.0781 -3.69,14.8164 -3.69,23.3672 0,8.5899 1.25,16.4609 3.79,23.5629 2.57,7.179 6.13,13.238 10.82,18.328 4.71,5.05 10.44,8.949 17.17,11.679 6.69,2.75 14.05,4.141 22.19,4.141 8.23,0 15.71,-1.391 22.42,-4.168 6.74,-2.773 12.47,-6.762 17.26,-11.883 4.75,-5.117 8.38,-11.258 10.9,-18.328 2.48,-7.051 3.73,-14.851 3.73,-23.3788"
         style="fill:#100f0d;fill-opacity:1;fill-rule:nonzero;stroke:none"
         transform="matrix(0.13333333,0,0,-0.13333333,0,794.44)" />
      <path
         id="path23"
         d="M 3753.07,83 V 59.3789 c 0,-5.7578 -1.3,-10.0976 -3.89,-13 -2.55,-2.8203 -5.88,-4.2773 -9.83,-4.2773 -3.97,0 -7.15,1.5 -9.69,4.3476 -2.56,2.9102 -3.8,7.211 -3.8,12.9297 v 78.9921 c 0,12.77 4.47,19.129 13.26,19.129 4.52,0 7.76,-1.52 9.74,-4.469 1.96,-2.98 3.12,-7.39 3.36,-13.203 3.19,5.813 6.52,10.223 9.94,13.203 3.44,2.949 8.01,4.469 13.67,4.469 5.81,0 11.35,-1.52 16.67,-4.469 5.38,-2.98 8.1,-6.953 8.1,-11.851 0,-3.461 -1.16,-6.371 -3.43,-8.59 -2.32,-2.231 -4.75,-3.41 -7.47,-3.41 -0.96,0 -3.35,0.672 -7.17,1.98 -3.84,1.262 -7.21,1.922 -10.16,1.922 -3.95,0 -7.18,-1.051 -9.78,-3.293 -2.48,-2.219 -4.45,-5.41 -5.86,-9.699 -1.36,-4.34 -2.34,-9.43 -2.85,-15.391 -0.53,-5.8904 -0.81,-13.0896 -0.81,-21.699"
         style="fill:#100f0d;fill-opacity:1;fill-rule:nonzero;stroke:none"
         transform="matrix(0.13333333,0,0,-0.13333333,0,794.44)" />
      <path
         id="path24"
         d="m 3831.58,100.719 c 0,-11.4885 2.42,-20.1995 7.26,-26.1174 4.77,-5.8399 11.04,-8.8203 18.63,-8.8203 4.49,0 8.82,1.3085 12.81,3.8281 4.03,2.5312 7.3,6.3398 9.83,11.4414 2.56,5.1094 3.78,11.2578 3.78,18.539 0,11.5702 -2.46,20.5622 -7.34,26.9882 -4.86,6.504 -11.3,9.754 -19.26,9.754 -7.74,0 -13.98,-3.164 -18.65,-9.293 -4.7,-6.199 -7.06,-14.949 -7.06,-26.32 z m 78.84,35.992 V 54.2422 c 0,-9.4609 -1.04,-17.5625 -2.92,-24.3125 -1.93,-6.8281 -5.01,-12.4414 -9.26,-16.8711 -4.25,-4.41797 -9.84,-7.70704 -16.67,-9.85938 C 3874.69,1.08984 3866.12,0 3855.91,0 c -9.39,0 -17.78,1.32031 -25.1,4.05859 -7.39,2.80079 -13.09,6.30081 -17.05,10.66021 -3.98,4.2929 -6,8.75 -6,13.3515 0,3.4805 1.11,6.2813 3.43,8.461 2.23,2.2304 4.96,3.3203 8.14,3.3203 4,0 7.44,-1.8594 10.48,-5.5118 1.47,-1.9296 2.99,-3.8007 4.51,-5.6796 1.56,-1.918 3.3,-3.5899 5.17,-4.8985 1.92,-1.3906 4.21,-2.3906 6.87,-3.0508 2.6,-0.6601 5.7,-0.9921 9.17,-0.9921 6.98,0 12.51,1.0507 16.36,3.0703 3.89,2.039 6.63,4.9023 8.21,8.5625 1.48,3.6797 2.49,7.5976 2.64,11.789 0.33,4.2813 0.51,10.9492 0.7,20.2813 -4.18,-6.0938 -9.09,-10.7422 -14.51,-13.9219 -5.48,-3.2109 -12.04,-4.7578 -19.55,-4.7578 -9.17,0 -17.12,2.3789 -23.88,7.2695 -6.85,4.8399 -12.08,11.6172 -15.72,20.3789 -3.61,8.711 -5.48,18.7891 -5.48,30.2304 0,8.578 1.09,16.281 3.36,23.149 2.17,6.82 5.33,12.621 9.52,17.339 4.07,4.719 8.85,8.282 14.22,10.68 5.41,2.359 11.25,3.582 17.75,3.582 7.67,0 14.34,-1.562 19.97,-4.672 5.72,-3.039 10.91,-7.937 15.77,-14.48 v 3.801 c 0,4.96 1.2,8.742 3.5,11.519 2.29,2.672 5.31,4.031 8.94,4.031 5.27,0 8.75,-1.761 10.5,-5.34 1.7,-3.582 2.59,-8.781 2.59,-15.519"
         style="fill:#100f0d;fill-opacity:1;fill-rule:nonzero;stroke:none"
         transform="matrix(0.13333333,0,0,-0.13333333,0,794.44)" />
      <path
         id="path25"
         d="m 2731.71,413.09 h 40.34 c -2.85,-21.75 -11.76,-38.719 -26.58,-50.942 -13.72,-11.968 -30.33,-17.867 -49.73,-17.867 -26.35,0 -47.37,9.258 -63.07,27.731 -14.88,17.57 -22.3,40.25 -22.3,67.957 0,28.39 7.37,51.09 22.09,68.281 14.7,17.121 35.5,25.719 62.38,25.719 19.99,0 36.91,-5.41 50.63,-16.141 14.54,-11.598 23.44,-27.898 26.58,-48.769 h -40.34 c -3.49,18.211 -14.6,27.261 -33.52,27.261 -31.17,0 -46.79,-18.461 -46.79,-55.422 0,-17.32 4.02,-31.449 12.04,-42.457 8.02,-11.062 19.32,-16.589 33.9,-16.589 21.74,0 33.2,10.429 34.37,31.238 z m -158.79,25.449 c 0,-36.098 11.45,-66.66 34.31,-91.559 22.89,-24.89 50.9,-37.359 84.15,-37.359 33.1,0 61.13,12.469 83.98,37.359 22.92,24.899 34.3,55.461 34.3,91.559 0,36.07 -11.38,66.613 -34.3,91.512 -22.85,24.961 -50.88,37.39 -83.98,37.39 -33.25,0 -61.26,-12.429 -84.15,-37.39 -22.86,-24.899 -34.31,-55.442 -34.31,-91.512 z m -40.98,0 c 0,45.941 15.55,85.152 46.66,117.723 31.15,32.508 68.75,48.777 112.78,48.777 43.92,0 81.46,-16.269 112.64,-48.777 31.14,-32.571 46.73,-71.782 46.73,-117.723 0,-45.98 -15.59,-85.238 -46.73,-117.738 -31.18,-32.551 -68.72,-48.832 -112.64,-48.832 -44.03,0 -81.63,16.281 -112.78,48.832 -31.11,32.5 -46.66,71.758 -46.66,117.738"
         style="fill:#100f0d;fill-opacity:1;fill-rule:nonzero;stroke:none"
         transform="matrix(0.13333333,0,0,-0.13333333,0,794.44)" />
      <path
         id="path26"
         d="m 2596.45,334.121 23.25,-19.73 170.95,219.531 -23.24,19.699 -170.96,-219.5"
         style="fill:#100f0d;fill-opacity:1;fill-rule:nonzero;stroke:none"
         transform="matrix(0.13333333,0,0,-0.13333333,0,794.44)" />
      <path
         id="path27"
         d="m 2722.97,5911.6 c 1503.85,0 2722.96,-1219.12 2722.96,-2722.97 0,-965.43 -502.46,-1813.47 -1260.12,-2296.982 H 1260.13 C 502.477,1375.16 0,2223.2 0,3188.63 0,4692.48 1219.11,5911.6 2722.97,5911.6"
         style="fill:#feecd7;fill-opacity:1;fill-rule:evenodd;stroke:none"
         transform="matrix(0.13333333,0,0,-0.13333333,0,794.44)" />
      <path
         id="path28"
         d="m 5402.3,2700.66 c -71.19,-393.52 -227.04,-757.56 -447.88,-1072.72 -98.05,20.26 -187.13,66.53 -260.33,131.63 -83.88,-77.57 -184.68,-122.85 -293.12,-122.85 -115.19,0 -221.76,51.06 -308.57,137.7 -77.8,-304.82 -268.26,-520.2 -490.91,-520.2 -212.1,0 -394.98,195.48 -479.09,477.5 -99.26,-73.46 -212.87,-115.2 -333.6,-115.2 -173.94,0 -333.09,86.63 -455.82,230.02 -96.91,-184.99 -243.89,-303.01 -408.44,-303.01 -170.95,0 -322.9,127.35 -419.48,324.86 -100.52,-121.97 -231.3,-195.71 -374.3,-195.71 -69.53,0 -136.17,17.44 -197.854,49.37 -28.683,-163.74 -87.265,-310.26 -166.847,-426.68 -388.172,401.11 -654.121,921.2 -737.8559,1500.28 84.3089,58.3 178.7109,90.99 278.4019,90.99 104.926,0 204.008,-36.22 291.618,-100.43 85.16,296.96 291.484,506.48 532.537,506.48 179.42,0 339.6,-116.08 444.91,-297.88 93.07,128.45 215.16,206.39 348.87,206.39 97.41,0 188.65,-41.39 267,-113.52 124.05,273.23 345.13,455.16 597.26,455.16 312.72,0 577.71,-279.86 668.95,-666.75 45.71,20.17 93.91,30.97 143.74,30.97 127.46,0 244.36,-70.58 335.63,-188.11 89.7,226.98 263.79,380.93 463.85,380.93 185.6,0 348.82,-132.52 443.07,-332.92 68.44,30.02 143.65,46.62 222.55,46.62 125.35,0 241.3,-41.9 335.71,-112.92"
         style="fill:#ffffff;fill-opacity:1;fill-rule:evenodd;stroke:none"
         transform="matrix(0.13333333,0,0,-0.13333333,0,794.44)" />
      <path
         id="path29"
         d="M 4325.7,5389.94 C 4978.48,4913.85 5411.36,4154.56 5443.75,3292.69 5013.54,3993.28 4028.78,4530.63 3073.11,4487.71 l -69.98,93.38 c 445.26,435.45 842.14,675.73 1322.57,808.85"
         style="fill:#e3d2c1;fill-opacity:1;fill-rule:evenodd;stroke:none"
         transform="matrix(0.13333333,0,0,-0.13333333,0,794.44)" />
      <path
         id="path30"
         d="m 1895.78,5652.79 c 33.7,-104.36 -17.93,-187.85 25.28,-235.65 43.21,-47.8 -22.24,-271.35 -65.04,-296.07 -23.99,-13.84 -128.23,24.98 -185.64,45.65 l -12.27,-110.34 -225.74,85.44 21.66,119.1 -103.21,450.56 544.96,-58.69"
         style="fill:#f1485f;fill-opacity:1;fill-rule:evenodd;stroke:none"
         transform="matrix(0.13333333,0,0,-0.13333333,0,794.44)" />
      <path
         id="path31"
         d="m 1895.79,5652.79 10.63,67.79 c 7.82,49.87 -11.5,100.12 -50.7,131.92 -39.2,31.8 -92.36,40.32 -139.53,22.38 l -348.27,-31.03 c -42.54,-3.79 -75.32,-39.18 -75.86,-81.89 l -8.62,-9.48 c -26.47,-29.14 -36.52,-69.63 -26.72,-107.76 38.22,-148.8 103.16,-289.42 191.63,-415.01 l 50.6,76.22 c 31.12,46.89 56.05,97.6 74.14,150.87 l 108.62,-5.19 -23.57,97.96 c -11.6,48.22 27.3,86.62 76.72,90.53 l 160.93,12.69"
         style="fill:#2e2d2d;fill-opacity:1;fill-rule:evenodd;stroke:none"
         transform="matrix(0.13333333,0,0,-0.13333333,0,794.44)" />
      <path
         id="path32"
         d="m 1526.8,5555.92 c -33.26,-8.25 -47.56,-65.96 -31.94,-128.89 15.61,-62.93 55.23,-107.25 88.49,-99.01 33.25,8.25 47.55,65.96 31.93,128.89 -15.62,62.94 -55.24,107.27 -88.48,99.01"
         style="fill:#f1485f;fill-opacity:1;fill-rule:evenodd;stroke:none"
         transform="matrix(0.13333333,0,0,-0.13333333,0,794.44)" />
      <path
         id="path33"
         d="m 1850.21,5577.32 -3.58,-41.58 h -26.13 c -22.76,0 -45.26,-4.73 -66.09,-13.88 l -9.66,20.3 c 23.85,15.57 50.64,26.02 78.73,30.7 l 26.73,4.46"
         style="fill:#2e2d2d;fill-opacity:1;fill-rule:evenodd;stroke:none"
         transform="matrix(0.13333333,0,0,-0.13333333,0,794.44)" />
      <path
         id="path34"
         d="m 1793.68,5514.44 c -16.67,0 -30.2,-18.31 -30.2,-40.91 0,-22.6 13.53,-40.92 30.2,-40.92 16.68,0 30.21,18.32 30.21,40.92 0,22.6 -13.53,40.91 -30.21,40.91"
         style="fill:#2e2d2d;fill-opacity:1;fill-rule:evenodd;stroke:none"
         transform="matrix(0.13333333,0,0,-0.13333333,0,794.44)" />
      <path
         id="path35"
         d="m 1882.85,5284.51 c -10.43,3.27 -23.94,-10.22 -30.19,-30.15 -6.24,-19.9 -2.86,-38.7 7.57,-41.97 10.43,-3.27 23.95,10.23 30.19,30.14 6.25,19.91 2.86,38.71 -7.57,41.98"
         style="fill:#ffffff;fill-opacity:1;fill-rule:evenodd;stroke:none"
         transform="matrix(0.13333333,0,0,-0.13333333,0,794.44)" />
      <path
         id="path36"
         d="m 4712.44,2339.31 c 309.87,0 561.06,-465.51 561.06,-1039.75 0,-144.8 -15.98,-282.65 -44.84,-407.912 H 327.152 c -80.808,191.412 -128.964,432.012 -128.964,693.382 0,623.89 274.25,1129.66 612.55,1129.66 175.985,0 334.622,-136.93 446.352,-356.11 144.63,123.45 315.32,194.83 498.18,194.83 236.26,0 452.26,-119.03 617.9,-315.78 120.72,458.04 363.08,770.84 642.45,770.84 327.64,0 604.39,-430.22 693.67,-1020.43 71.3,45.23 149.29,70.21 231.05,70.21 117.61,0 227.47,-51.61 320.75,-141.02 102.2,256.05 266.3,422.08 451.35,422.08"
         style="fill:#b8d44b;fill-opacity:1;fill-rule:evenodd;stroke:none"
         transform="matrix(0.13333333,0,0,-0.13333333,0,794.44)" />
      <path
         id="path37"
         d="m 4712.44,1486.59 c 309.87,0 561.06,-191.31 561.06,-427.32 0,-59.5 -15.98,-116.161 -44.84,-167.622 H 327.152 c -80.808,78.672 -128.964,177.542 -128.964,284.972 0,256.39 274.25,464.24 612.55,464.24 175.985,0 334.622,-56.27 446.352,-146.34 144.63,50.73 315.32,80.07 498.18,80.07 236.26,0 452.26,-48.92 617.9,-129.78 120.72,188.23 363.08,316.8 642.45,316.8 327.64,0 604.39,-176.82 693.67,-419.38 71.3,18.59 149.29,28.86 231.05,28.86 117.61,0 227.47,-21.21 320.75,-57.96 102.2,105.23 266.3,173.46 451.35,173.46"
         style="fill:#9fbe31;fill-opacity:1;fill-rule:evenodd;stroke:none"
         transform="matrix(0.13333333,0,0,-0.13333333,0,794.44)" />
      <path
         id="path38"
         d="m 2533.6,4327.05 465.84,209.23 26.37,-39.89 -377.68,-290.83 -114.53,121.49"
         style="fill:#91a4db;fill-opacity:1;fill-rule:evenodd;stroke:none"
         transform="matrix(0.13333333,0,0,-0.13333333,0,794.44)" />
      <path
         id="path39"
         d="m 1740.55,4281.45 704.95,45.6 61.4,-125.35 -163.61,-144.38 c -184.5,-162.81 -327.51,-199.74 -572.99,-182.85 l -61.77,341.62 32.02,65.36"
         style="fill:#ed3041;fill-opacity:1;fill-rule:evenodd;stroke:none"
         transform="matrix(0.13333333,0,0,-0.13333333,0,794.44)" />
      <path
         id="path40"
         d="m 2300.06,4289.67 71.47,35.7 25.34,32.08 c 36.25,45.92 97.94,63.3 152.83,43.07 40.18,-14.82 83.47,-19.18 125.81,-12.67 7.93,1.22 15.96,-1.41 21.63,-7.08 5.67,-5.68 8.3,-13.7 7.09,-21.63 -2.15,-13.95 -7.98,-27.06 -16.9,-38 l 78.53,-69.24 c 14.67,-12.93 18.12,-34.43 8.24,-51.31 -9.87,-16.87 -30.31,-24.39 -48.77,-17.93 l -95.41,-82.75 c -27.38,-23.74 -66.92,-27.15 -97.95,-8.44 -38.26,23.06 -75.46,47.86 -111.46,74.31 l -54.88,-30.04 -65.57,153.93"
         style="fill:#ed3041;fill-opacity:1;fill-rule:evenodd;stroke:none"
         transform="matrix(0.13333333,0,0,-0.13333333,0,794.44)" />
      <path
         id="path41"
         d="m 2456.93,4206.05 c 15.02,13.31 37.99,11.9 51.29,-3.13 13.3,-15.02 11.89,-37.99 -3.14,-51.29 L 2367.36,4030.1 c -69.18,-61.04 -122.95,-136.11 -158.67,-219.06 -35.73,-82.97 -53.32,-173.65 -50.15,-265.92 3.18,-92.21 26.95,-181.38 68.25,-261.6 41.29,-80.18 100.1,-151.33 173.38,-207.52 191.5,-146.84 330.22,-343.56 406.39,-562.09 76.17,-218.56 89.81,-458.87 31.11,-692.82 -58.73,-234.04 -184.19,-439.47 -354.5,-596.15 -170.28,-156.66 -385.44,-264.569 -623.62,-303.62 l -3.47,-0.539 -147.14,-29.133 H 0 v 72.942 h 1706.37 l 144.88,29.129 c 222.39,37.121 423.36,138.281 582.62,284.791 160.03,147.23 277.93,340.27 333.11,560.25 55.23,220.04 42.45,445.91 -29.1,651.22 -71.57,205.32 -201.93,390.17 -381.88,528.17 -81.99,62.87 -147.76,142.4 -193.9,232.02 -46.13,89.58 -72.67,189.34 -76.23,292.67 -3.55,103.28 16.03,204.55 55.85,296.98 39.81,92.45 99.95,176.29 177.48,244.71 l 137.73,121.52"
         style="fill:#2d2f7b;fill-opacity:1;fill-rule:evenodd;stroke:none"
         transform="matrix(0.13333333,0,0,-0.13333333,0,794.44)" />
      <path
         id="path42"
         d="m 2107.72,3667.77 -112.45,-1118.61 -45.07,-113.25 54.78,-638.27 -500.77,-36.03 129.9,694.89 -106.35,689.75 -68.25,164.72 c -17.92,43.21 -29.97,87.57 -36.23,131.92 l 684.44,224.88"
         style="fill:#2d2f7b;fill-opacity:1;fill-rule:evenodd;stroke:none"
         transform="matrix(0.13333333,0,0,-0.13333333,0,794.44)" />
      <path
         id="path43"
         d="m 2038.26,1723.3 -20.47,334.95 -527.02,-60.37 -22.43,-361.17 569.92,86.59"
         style="fill:#c9771b;fill-opacity:1;fill-rule:evenodd;stroke:none"
         transform="matrix(0.13333333,0,0,-0.13333333,0,794.44)" />
      <path
         id="path44"
         d="m 1955.91,1771.16 -4.99,-426.08 -38.95,-59.25 45.46,-32.46 -21.84,-42.73 74.62,-61.5 c 67.51,-55.67 149.45,-89.32 233.05,-95.72 14.51,-1.12 28.37,-8.76 37.6,-20.78 9.23,-12.02 12.81,-27.02 9.7,-40.749 -9.91,-43.602 -37.4,-79.7 -76.37,-100.243 h -722.3 l 41.96,50.641 12.67,166.311 37.83,54.77 -23.1,31.32 28.55,27.33 -37.33,42.7 -18.37,419.87 421.81,86.57"
         style="fill:#c9771b;fill-opacity:1;fill-rule:evenodd;stroke:none"
         transform="matrix(0.13333333,0,0,-0.13333333,0,794.44)" />
      <path
         id="path45"
         d="m 1379.6,3705.84 61.36,-107.1 48.31,71.2 z"
         style="fill:#ed3041;fill-opacity:1;fill-rule:evenodd;stroke:none"
         transform="matrix(0.13333333,0,0,-0.13333333,0,794.44)" />
      <path
         id="path46"
         d="m 1478.56,3734.44 -215.85,811.06 c -60.11,225.89 -5.05,466.89 147.17,644.27 l 316.75,-124.27 183.63,-310.69 c 63.18,-106.89 96.78,-227.66 75.22,-349.93 l 78.49,-686.79 -117.73,-29.43 c -156.51,-39.13 -321.73,-22.95 -467.68,45.78"
         style="fill:#fbc907;fill-opacity:1;fill-rule:evenodd;stroke:none"
         transform="matrix(0.13333333,0,0,-0.13333333,0,794.44)" />
      <path
         id="path47"
         d="m 1369.77,4143.26 -94.43,354.82 341.84,176.39 c -56.13,-213.51 -90.58,-368.89 -247.41,-531.21"
         style="fill:#f8a10e;fill-opacity:1;fill-rule:evenodd;stroke:none"
         transform="matrix(0.13333333,0,0,-0.13333333,0,794.44)" />
      <path
         id="path48"
         d="m 1319.47,5056.3 26.44,94.87 c 305.5,-60.47 465.29,-220.04 522.46,-491.58 h 138.98 l 15.44,-69.49 c 19.53,-87.87 23.02,-178.55 10.29,-267.66 l 74.64,-654.67 -133.83,-403.13 -92.65,-715.48 -56.63,-113.25 -10.28,-638.27 -504.44,-36.03 200.74,694.89 -36.03,689.75 -51.47,164.72 c -44.52,142.45 -24.25,297.28 55.43,423.47 l 161.2,97.24 c 91.31,55.08 142.29,147.82 139.84,254.44 l -11.6,506.55 c -5.67,247.88 -200.96,449.75 -448.53,463.63"
         style="fill:#4643a2;fill-opacity:1;fill-rule:evenodd;stroke:none"
         transform="matrix(0.13333333,0,0,-0.13333333,0,794.44)" />
      <path
         id="path49"
         d="m 1762.57,1771.16 -48.42,-426.08 -45,-59.25 42.14,-32.46 -26.19,-42.73 68.36,-61.5 c 61.83,-55.67 140.34,-89.32 223.29,-95.72 14.39,-1.12 27.47,-8.76 35.48,-20.78 8,-12.02 10.04,-27.02 5.53,-40.749 -14.35,-43.602 -45.52,-79.7 -86.58,-100.243 h -722.29 l 47.12,50.641 29.62,166.311 43.41,54.77 -19.9,31.32 31.33,27.33 -32.98,42.7 24.43,419.87 430.65,86.57"
         style="fill:#f9b00b;fill-opacity:1;fill-rule:evenodd;stroke:none"
         transform="matrix(0.13333333,0,0,-0.13333333,0,794.44)" />
      <path
         id="path50"
         d="M 1265.11,4941.63 924.141,4610.7 1272.4,4354.2 l 254.33,165.11 c 335.27,217.66 -57.8,620.12 -261.62,422.32"
         style="fill:#fbc907;fill-opacity:1;fill-rule:evenodd;stroke:none"
         transform="matrix(0.13333333,0,0,-0.13333333,0,794.44)" />
      <path
         id="path51"
         d="m 831.566,4532.84 211.424,217.48 286.44,-401.9 -105.46,-58.95 -392.404,243.37"
         style="fill:#f9e705;fill-opacity:1;fill-rule:evenodd;stroke:none"
         transform="matrix(0.13333333,0,0,-0.13333333,0,794.44)" />
      <path
         id="path52"
         d="m 1223.97,4289.47 218.13,-263.66 -54.05,-128.68 -216.38,28.31 c -243.975,31.92 -365.834,115.37 -514.557,311.41 l 216.754,271.19 350.103,-218.57"
         style="fill:#f1485f;fill-opacity:1;fill-rule:evenodd;stroke:none"
         transform="matrix(0.13333333,0,0,-0.13333333,0,794.44)" />
      <path
         id="path53"
         d="m 1387.02,4021.67 64.6,2.99 c 39.8,1.84 78.1,-15.37 103.14,-46.37 14.69,-18.18 37.29,-28.14 60.63,-26.71 12.19,0.75 23.67,-5.83 29.21,-16.71 5.53,-10.9 4.07,-24.04 -3.72,-33.46 -15.67,-18.92 -39.68,-28.85 -64.14,-26.55 -19.33,1.83 -37.95,8.32 -54.24,18.91 l -38.37,-62.59 -3.14,-68.99 42.1,-32.41 c 13.33,-10.26 18.39,-28 12.51,-43.75 -5.89,-15.75 -21.36,-25.82 -38.14,-24.81 l -37.86,-2.44 -51.48,17.64 c -25.08,8.6 -39.87,34.48 -34.54,60.46 l 8.14,111.26 -29.75,132.38 35.05,41.15"
         style="fill:#f1485f;fill-opacity:1;fill-rule:evenodd;stroke:none"
         transform="matrix(0.13333333,0,0,-0.13333333,0,794.44)" />
      <path
         id="path54"
         d="m 831.566,4221.04 44.34,9 c 160.224,32.54 326.824,2.86 465.934,-83.04 l -117.87,142.47 -350.868,217.61 16.961,-15.81 c 31.941,-29.76 48.824,-72.3 45.988,-115.86 -2.75,-42.28 -23.785,-81.2 -57.504,-106.66 -0.649,-0.48 -1.285,-0.96 -1.926,-1.43 l -1.172,-0.84 h 0.039 c -18.32,-13.73 -33.355,-29.08 -43.922,-45.44"
         style="fill:#ed3041;fill-opacity:1;fill-rule:evenodd;stroke:none"
         transform="matrix(0.13333333,0,0,-0.13333333,0,794.44)" />
      <path
         id="path55"
         d="m 1840.03,1723.3 13.69,334.95 -533.18,-60.37 -59.25,-361.17 578.74,86.59"
         style="fill:#f9e705;fill-opacity:1;fill-rule:evenodd;stroke:none"
         transform="matrix(0.13333333,0,0,-0.13333333,0,794.44)" />
      <path
         id="path56"
         d="m 1307.49,1264.72 107.65,-21.46 -74.66,-21.24 z m 403.8,-11.35 -179.7,-31.35 153.51,-11.38 26.19,42.73 z m 2.86,91.71 -92.7,-35.56 47.7,-23.69 45,59.25 z m -405.01,-150.39 182.75,-18.99 -162.85,-12.33 -19.9,31.32 v 0"
         style="fill:#f48313;fill-opacity:1;fill-rule:evenodd;stroke:none"
         transform="matrix(0.13333333,0,0,-0.13333333,0,794.44)" />
      <path
         id="path57"
         d="m 2945.38,4543.28 57.75,37.81 69.98,-93.38 -57.79,-39.89 -69.94,95.46"
         style="fill:#2d2f7b;fill-opacity:1;fill-rule:evenodd;stroke:none"
         transform="matrix(0.13333333,0,0,-0.13333333,0,794.44)" />
      <path
         id="path58"
         d="m 2713.63,5103.13 c 235.51,0 427.61,192.08 427.61,427.61 0,235.51 -192.1,427.6 -427.61,427.6 -235.51,0 -427.61,-192.09 -427.61,-427.6 0,-235.53 192.1,-427.61 427.61,-427.61"
         style="fill:#ffffff;fill-opacity:1;fill-rule:evenodd;stroke:none"
         transform="matrix(0.13333333,0,0,-0.13333333,0,794.44)" />
    </g>
  </g>
</svg>
