<?xml version="1.0" encoding="UTF-8" standalone="no"?>
<!-- Created with Inkscape (http://www.inkscape.org/) -->

<svg
   version="1.1"
   id="svg1"
   width="650.98669"
   height="792.45331"
   viewBox="0 0 650.98669 792.45331"
   sodipodi:docname="machine-learning.svg"
   inkscape:version="1.4 (e7c3feb100, 2024-10-09)"
   xmlns:inkscape="http://www.inkscape.org/namespaces/inkscape"
   xmlns:sodipodi="http://sodipodi.sourceforge.net/DTD/sodipodi-0.dtd"
   xmlns="http://www.w3.org/2000/svg"
   xmlns:svg="http://www.w3.org/2000/svg">
  <defs
     id="defs1" />
  <sodipodi:namedview
     id="namedview1"
     pagecolor="#505050"
     bordercolor="#ffffff"
     borderopacity="1"
     inkscape:showpageshadow="0"
     inkscape:pageopacity="0"
     inkscape:pagecheckerboard="1"
     inkscape:deskcolor="#d1d1d1"
     inkscape:zoom="1.0284518"
     inkscape:cx="325.73234"
     inkscape:cy="396.22665"
     inkscape:window-width="1920"
     inkscape:window-height="1002"
     inkscape:window-x="0"
     inkscape:window-y="0"
     inkscape:window-maximized="1"
     inkscape:current-layer="g1">
    <inkscape:page
       x="0"
       y="0"
       inkscape:label="1"
       id="page1"
       width="650.98669"
       height="792.45331"
       margin="0"
       bleed="0" />
  </sodipodi:namedview>
  <g
     id="g1"
     inkscape:groupmode="layer"
     inkscape:label="1">
    <g
       id="group-R5">
      <path
         id="path2"
         d="m 1223.18,100.262 c 0,7.519 -1.07,14 -3.3,19.308 -2.16,5.379 -5.2,9.532 -9.1,12.461 -3.9,2.84 -8.18,4.297 -12.92,4.297 -7.49,0 -13.83,-3.156 -18.99,-9.289 -5.15,-6.199 -7.73,-15.258 -7.73,-27.2577 0,-11.3204 2.58,-20.1094 7.65,-26.3125 5.16,-6.3086 11.52,-9.4688 19.07,-9.4688 4.51,0 8.73,1.3711 12.59,4.1484 3.8,2.7305 6.9,6.8438 9.24,12.2735 2.35,5.5195 3.49,12.0976 3.49,19.8401 z m -53.31,41.379 v -3.422 c 5.11,6.543 10.4,11.441 15.91,14.48 5.53,3.11 11.81,4.672 18.8,4.672 8.34,0 16.05,-2.269 23.1,-6.781 7.03,-4.508 12.58,-11.059 16.7,-19.758 4.08,-8.691 6.08,-18.922 6.08,-30.793 0,-8.7109 -1.13,-16.8281 -3.5,-24.039 -2.35,-7.3203 -5.6,-13.5 -9.7,-18.4492 -4.13,-4.9492 -9.03,-8.7813 -14.6,-11.4219 -5.64,-2.7187 -11.69,-4.0273 -18.08,-4.0273 -7.82,0 -14.35,1.6289 -19.62,4.8906 -5.33,3.25 -10.33,8.0078 -15.09,14.3164 V 18.7188 C 1169.87,6.21875 1165.51,0 1156.81,0 c -5.11,0 -8.52,1.58984 -10.14,4.78906 -1.67,3.24219 -2.5,7.95314 -2.5,14.10154 V 141.449 c 0,5.403 1.09,9.449 3.38,12.11 2.29,2.652 5.37,4.011 9.26,4.011 3.86,0 7,-1.359 9.42,-4.14 2.41,-2.75 3.64,-6.7 3.64,-11.789"
         style="fill:#100f0d;fill-opacity:1;fill-rule:nonzero;stroke:none"
         transform="matrix(0.13333333,0,0,-0.13333333,0,792.45333)" />
      <path
         id="path3"
         d="m 1343.01,58.1602 v 3.5781 c -3.27,-4.2774 -6.69,-7.8672 -10.29,-10.7695 -3.58,-2.9571 -7.5,-5.1094 -11.73,-6.5 -4.3,-1.418 -9.13,-2.1368 -14.58,-2.1368 -6.54,0 -12.44,1.4375 -17.67,4.25 -5.22,2.8282 -9.27,6.7696 -12.08,11.75 -3.45,6.0274 -5.1,14.6993 -5.1,25.9571 v 56.2699 c 0,5.652 1.23,9.921 3.69,12.722 2.46,2.801 5.7,4.219 9.74,4.219 4.14,0 7.44,-1.418 9.98,-4.289 2.53,-2.852 3.77,-7.082 3.77,-12.652 V 95.0781 c 0,-6.5273 0.52,-12.0781 1.56,-16.5078 1.11,-4.4883 3.02,-7.9883 5.8,-10.5586 2.7,-2.4922 6.45,-3.7617 11.17,-3.7617 4.63,0 8.93,1.4414 12.95,4.2695 4.09,2.8086 7.06,6.5118 8.9,11.0899 1.52,4.0312 2.28,12.832 2.28,26.4106 v 34.539 c 0,5.57 1.26,9.8 3.81,12.652 2.5,2.871 5.75,4.289 9.83,4.289 4.06,0 7.3,-1.418 9.76,-4.219 2.43,-2.801 3.64,-7.07 3.64,-12.722 V 58.332 c 0,-5.4023 -1.13,-9.4804 -3.49,-12.1523 -2.33,-2.7383 -5.37,-4.0586 -9.11,-4.0586 -3.7,0 -6.76,1.4375 -9.2,4.168 -2.42,2.8632 -3.63,6.7422 -3.63,11.8711"
         style="fill:#100f0d;fill-opacity:1;fill-rule:nonzero;stroke:none"
         transform="matrix(0.13333333,0,0,-0.13333333,0,792.45333)" />
      <path
         id="path4"
         d="m 1421.91,99.1406 c 0,-11.289 2.46,-19.9414 7.38,-26.0312 4.97,-6.0274 11.47,-9.1094 19.52,-9.1094 6.85,0 12.71,3.1211 17.69,9.3203 4.98,6.2188 7.46,15.0508 7.46,26.6485 0,7.5622 -1.04,13.9722 -3.11,19.3632 -2.08,5.438 -5.02,9.617 -8.77,12.539 -3.84,2.938 -8.2,4.457 -13.27,4.457 -5.23,0 -9.77,-1.519 -13.85,-4.457 -4.08,-2.922 -7.24,-7.211 -9.58,-12.801 -2.33,-5.539 -3.47,-12.16 -3.47,-19.9294 z m -1.29,84.3794 v -43.391 c 5.05,5.601 10.3,9.801 15.6,12.812 5.32,2.93 11.92,4.43 19.74,4.43 9.05,0 16.96,-2.269 23.77,-6.691 6.79,-4.551 12.11,-10.989 15.84,-19.481 3.79,-8.48 5.64,-18.558 5.64,-30.199 0,-8.6094 -1.03,-16.4805 -3.1,-23.7109 -2.11,-7.1407 -5.12,-13.3282 -9.12,-18.6602 -4.02,-5.2383 -8.86,-9.2695 -14.51,-12.25 -5.71,-2.8203 -11.97,-4.2773 -18.81,-4.2773 -4.14,0 -8.12,0.5273 -11.82,1.5507 -3.68,1.0469 -6.85,2.4063 -9.37,4.1563 -2.63,1.6016 -4.84,3.4219 -6.68,5.1719 -1.81,1.8398 -4.2,4.5195 -7.18,8.1211 V 58.332 c 0,-5.3711 -1.26,-9.4023 -3.72,-12.1523 -2.43,-2.7383 -5.6,-4.0781 -9.35,-4.0781 -3.87,0 -6.92,1.3398 -9.25,4.0781 -2.26,2.8125 -3.41,6.8008 -3.41,12.1523 v 123.957 c 0,5.711 1.11,10.07 3.36,13.012 2.21,2.961 5.29,4.418 9.3,4.418 4.17,0 7.4,-1.387 9.63,-4.231 2.29,-2.777 3.44,-6.746 3.44,-11.968"
         style="fill:#100f0d;fill-opacity:1;fill-rule:nonzero;stroke:none"
         transform="matrix(0.13333333,0,0,-0.13333333,0,792.45333)" />
      <path
         id="path5"
         d="M 1520.41,59.3789 V 182.469 c 0,5.711 1.21,9.98 3.6,12.91 2.47,2.883 5.72,4.34 9.84,4.34 4.12,0 7.42,-1.41 9.96,-4.297 2.49,-2.871 3.8,-7.223 3.8,-12.953 V 59.3789 c 0,-5.7578 -1.31,-10.0976 -3.86,-13 -2.54,-2.8203 -5.85,-4.2773 -9.9,-4.2773 -3.99,0 -7.18,1.5 -9.69,4.4804 -2.5,2.9883 -3.75,7.2266 -3.75,12.7969"
         style="fill:#100f0d;fill-opacity:1;fill-rule:nonzero;stroke:none"
         transform="matrix(0.13333333,0,0,-0.13333333,0,792.45333)" />
      <path
         id="path6"
         d="M 1602.88,141.371 V 59.3789 c 0,-5.7187 -1.33,-10.0195 -3.85,-12.9297 -2.62,-2.8476 -5.92,-4.3476 -9.87,-4.3476 -4,0 -7.25,1.5 -9.73,4.4492 -2.46,3.0195 -3.75,7.2578 -3.75,12.8281 v 81.1801 c 0,5.57 1.29,9.8 3.75,12.652 2.48,2.871 5.73,4.289 9.73,4.289 3.95,0 7.25,-1.418 9.87,-4.289 2.52,-2.852 3.85,-6.781 3.85,-11.84 z m -13.45,29.348 c -3.79,0 -7,1.211 -9.75,3.703 -2.62,2.41 -4,5.867 -4,10.316 0,4.004 1.38,7.282 4.15,9.922 2.75,2.61 5.95,3.828 9.6,3.828 3.51,0 6.65,-1.136 9.37,-3.476 2.71,-2.364 4.08,-5.832 4.08,-10.274 0,-4.406 -1.34,-7.816 -4,-10.238 -2.66,-2.461 -5.77,-3.781 -9.45,-3.781"
         style="fill:#100f0d;fill-opacity:1;fill-rule:nonzero;stroke:none"
         transform="matrix(0.13333333,0,0,-0.13333333,0,792.45333)" />
      <path
         id="path7"
         d="m 1728.4,77.25 c 0,-3.5078 -0.99,-7.3086 -3.01,-11.3398 -2.06,-4.0118 -5.14,-7.8204 -9.3,-11.4688 -4.13,-3.6211 -9.36,-6.5508 -15.67,-8.75 -6.31,-2.2812 -13.43,-3.3594 -21.31,-3.3594 -16.82,0 -29.93,5.1289 -39.37,15.3282 -9.41,10.2304 -14.14,23.8984 -14.14,41.1093 0,11.6405 2.15,21.9605 6.45,30.8715 4.31,8.89 10.61,15.859 18.74,20.718 8.15,4.922 17.95,7.36 29.27,7.36 7.06,0 13.53,-1.098 19.42,-3.219 5.87,-2.168 10.85,-4.949 14.93,-8.309 4.08,-3.41 7.2,-7.039 9.37,-10.859 2.18,-3.84 3.23,-7.441 3.23,-10.773 0,-3.348 -1.24,-6.227 -3.63,-8.61 -2.45,-2.379 -5.35,-3.539 -8.81,-3.539 -2.28,0 -4.14,0.649 -5.66,1.86 -1.45,1.171 -3.15,3.082 -5.03,5.839 -3.3,5.25 -6.8,9.231 -10.4,11.922 -3.63,2.598 -8.23,3.949 -13.76,3.949 -8.09,0 -14.56,-3.332 -19.47,-9.871 -4.92,-6.578 -7.35,-15.539 -7.35,-26.9098 0,-5.3008 0.63,-10.2695 1.9,-14.6992 1.25,-4.4883 3.08,-8.2891 5.45,-11.4687 2.41,-3.1524 5.27,-5.5196 8.67,-7.1602 3.38,-1.6602 7.12,-2.4492 11.14,-2.4492 5.48,0 10.13,1.289 14.02,3.9297 3.89,2.6679 7.33,6.6875 10.31,12.0273 1.66,3.2695 3.45,5.7422 5.39,7.5703 1.94,1.8125 4.31,2.6602 7.09,2.6602 3.31,0 6.06,-1.2696 8.28,-3.9102 2.15,-2.6992 3.25,-5.4687 3.25,-8.4492"
         style="fill:#100f0d;fill-opacity:1;fill-rule:nonzero;stroke:none"
         transform="matrix(0.13333333,0,0,-0.13333333,0,792.45333)" />
      <path
         id="path8"
         d="m 1773.21,99.9688 c 0,-7.6993 1.14,-14.1993 3.42,-19.6368 2.31,-5.4218 5.4,-9.4531 9.39,-12.1836 4.01,-2.7773 8.36,-4.1484 13.04,-4.1484 4.79,0 9.15,1.332 13.1,3.8906 3.97,2.6094 7.09,6.6289 9.48,11.9883 2.36,5.3516 3.53,12.082 3.53,20.0899 0,7.6012 -1.17,14.0622 -3.53,19.5312 -2.39,5.449 -5.56,9.602 -9.56,12.531 -4.03,2.84 -8.41,4.297 -13.19,4.297 -4.96,0 -9.41,-1.519 -13.34,-4.457 -3.89,-2.922 -6.97,-7.199 -9.12,-12.699 -2.14,-5.531 -3.22,-11.871 -3.22,-19.2032 z m 53.46,-41.6368 v 2.7696 c -3.66,-4.3711 -7.26,-7.9102 -10.86,-10.6133 -3.49,-2.7695 -7.37,-4.8399 -11.52,-6.2695 -4.13,-1.379 -8.67,-2.1172 -13.57,-2.1172 -6.5,0 -12.57,1.457 -18.09,4.2773 -5.53,2.9805 -10.33,7.0313 -14.38,12.3711 -4.04,5.3398 -7.12,11.6094 -9.23,18.8398 -2.12,7.1797 -3.14,14.9805 -3.14,23.4102 0,17.699 4.16,31.59 12.46,41.512 8.33,9.91 19.23,14.859 32.76,14.859 7.84,0 14.46,-1.43 19.83,-4.289 5.36,-2.762 10.63,-7.082 15.74,-12.953 v 41.922 c 0,5.84 1.09,10.23 3.33,13.199 2.22,3 5.36,4.469 9.5,4.469 4.11,0 7.28,-1.367 9.53,-4.078 2.21,-2.719 3.36,-6.782 3.36,-12.121 V 58.332 c 0,-5.4023 -1.21,-9.4804 -3.62,-12.1523 -2.4,-2.7383 -5.45,-4.0781 -9.27,-4.0781 -3.68,0 -6.79,1.3984 -9.23,4.1875 -2.4,2.8125 -3.6,6.7812 -3.6,12.0429"
         style="fill:#100f0d;fill-opacity:1;fill-rule:nonzero;stroke:none"
         transform="matrix(0.13333333,0,0,-0.13333333,0,792.45333)" />
      <path
         id="path9"
         d="m 1954.19,99.7383 c 0,11.5317 -2.48,20.5817 -7.33,27.0237 -4.89,6.41 -11.46,9.66 -19.68,9.66 -5.35,0 -10,-1.442 -14.06,-4.32 -4.04,-2.922 -7.16,-7.153 -9.36,-12.77 -2.17,-5.562 -3.29,-12.07 -3.29,-19.5937 0,-7.4297 1.12,-13.8867 3.24,-19.4063 2.14,-5.5507 5.25,-9.8007 9.29,-12.7539 4,-2.9375 8.77,-4.3789 14.18,-4.3789 8.22,0 14.79,3.211 19.68,9.6914 4.85,6.4492 7.33,15.4492 7.33,26.8477 z m 27.29,0 c 0,-8.4102 -1.28,-16.207 -3.79,-23.3985 -2.52,-7.0781 -6.17,-13.2304 -10.93,-18.3789 -4.82,-5.1289 -10.52,-8.9687 -17.16,-11.7812 -6.63,-2.7383 -14.16,-4.0781 -22.42,-4.0781 -8.22,0 -15.64,1.3398 -22.19,4.1601 -6.59,2.7578 -12.31,6.7188 -17.13,11.8985 -4.79,5.1796 -8.43,11.2304 -10.95,18.2617 -2.49,7.0781 -3.72,14.8203 -3.72,23.3672 0,8.5899 1.27,16.4609 3.77,23.5629 2.52,7.179 6.12,13.238 10.85,18.328 4.72,5.05 10.42,8.949 17.18,11.679 6.72,2.75 14.08,4.141 22.19,4.141 8.24,0 15.72,-1.391 22.42,-4.168 6.69,-2.773 12.44,-6.762 17.21,-11.883 4.82,-5.121 8.44,-11.258 10.88,-18.328 2.55,-7.051 3.79,-14.851 3.79,-23.3827"
         style="fill:#100f0d;fill-opacity:1;fill-rule:nonzero;stroke:none"
         transform="matrix(0.13333333,0,0,-0.13333333,0,792.45333)" />
      <path
         id="path10"
         d="m 2096.33,123.191 c -2.04,-4.8 -3,-13.261 -3,-25.4605 v -37.711 c 0,-5.9375 -1.27,-10.4492 -3.9,-13.4375 -2.57,-2.9804 -6.04,-4.4804 -10.28,-4.4804 -4.08,0 -7.41,1.5 -9.95,4.4804 -2.56,2.9883 -3.81,7.5 -3.81,13.4375 v 45.2695 c 0,7.121 -0.27,12.641 -0.74,16.652 -0.48,3.911 -1.72,7.168 -3.79,9.711 -2.01,2.539 -5.29,3.797 -9.72,3.797 -8.89,0 -14.74,-3.187 -17.59,-9.597 -2.85,-6.352 -4.19,-15.512 -4.19,-27.4614 V 60.0195 c 0,-5.9297 -1.31,-10.3984 -3.84,-13.3398 -2.58,-3.0781 -5.95,-4.5781 -10.09,-4.5781 -4.15,0 -7.55,1.5 -10.16,4.5781 -2.64,2.9414 -3.89,7.4101 -3.89,13.332 v 81.2073 c 0,5.351 1.12,9.41 3.46,12.172 2.39,2.761 5.49,4.179 9.37,4.179 3.71,0 6.83,-1.289 9.3,-3.89 2.48,-2.59 3.73,-6.16 3.73,-10.75 v -2.7 c 4.7,5.899 9.76,10.239 15.12,12.981 5.37,2.769 11.41,4.16 17.94,4.16 6.82,0 12.67,-1.43 17.59,-4.289 4.94,-2.812 8.97,-7.121 12.13,-12.852 4.6,5.77 9.51,10.129 14.77,12.93 5.26,2.82 11.05,4.211 17.41,4.211 7.49,0 13.88,-1.5 19.22,-4.59 5.4,-3.051 9.41,-7.402 12.08,-13.09 2.33,-5.132 3.47,-13.199 3.47,-24.25 V 60.0195 c 0,-5.9375 -1.29,-10.4492 -3.84,-13.4375 -2.64,-2.9804 -6.03,-4.4804 -10.28,-4.4804 -4.13,0 -7.49,1.5 -10.1,4.5781 -2.66,2.9414 -3.97,7.4101 -3.97,13.3398 v 47.7615 c 0,6.098 -0.24,10.981 -0.73,14.66 -0.51,3.711 -1.85,6.739 -4.07,9.25 -2.17,2.5 -5.51,3.758 -9.92,3.758 -3.59,0 -7.01,-1.117 -10.18,-3.289 -3.27,-2.238 -5.72,-5.219 -7.55,-8.969 v 0"
         style="fill:#100f0d;fill-opacity:1;fill-rule:nonzero;stroke:none"
         transform="matrix(0.13333333,0,0,-0.13333333,0,792.45333)" />
      <path
         id="path11"
         d="m 2250.35,99.1992 c -4.01,-1.5586 -9.8,-3.1172 -17.41,-4.8476 -7.61,-1.7032 -12.87,-2.9414 -15.8,-3.75 -2.93,-0.8203 -5.72,-2.3594 -8.34,-4.6602 -2.68,-2.3906 -4.02,-5.6094 -4.02,-9.7695 0,-4.3399 1.58,-7.961 4.67,-10.9922 3.14,-3.0586 7.23,-4.5313 12.28,-4.5313 5.37,0 10.37,1.25 14.9,3.711 4.55,2.4414 7.92,5.6601 10,9.5 2.47,4.3203 3.72,11.3711 3.72,21.3008 z m 1.77,-41.1094 c -6.59,-5.3476 -12.95,-9.3203 -19.08,-11.9609 -6.13,-2.7187 -13.05,-4.0273 -20.65,-4.0273 -7.02,0 -13.09,1.457 -18.41,4.2773 -5.32,2.9024 -9.35,6.8125 -12.22,11.7813 -2.82,4.9101 -4.28,10.1914 -4.28,15.9921 0,7.7579 2.41,14.3477 7.11,19.8399 4.68,5.4492 11.15,9.1288 19.38,11.0198 1.73,0.418 6.04,1.308 12.84,2.769 6.91,1.489 12.71,2.789 17.67,4 4.83,1.188 10.16,2.68 15.87,4.399 -0.35,7.519 -1.79,13 -4.32,16.582 -2.6,3.468 -7.93,5.168 -15.92,5.168 -6.94,0 -12.11,-0.969 -15.64,-2.981 -3.46,-1.988 -6.48,-5.027 -8.93,-9.097 -2.52,-4 -4.24,-6.672 -5.28,-7.922 -1.06,-1.321 -3.27,-1.899 -6.6,-1.899 -3.1,0 -5.73,1.008 -7.92,3.028 -2.26,2.062 -3.36,4.64 -3.36,7.882 0,4.969 1.69,9.86 5.06,14.508 3.39,4.742 8.69,8.602 15.85,11.711 7.16,3.051 16.12,4.559 26.82,4.559 11.93,0 21.34,-1.508 28.22,-4.438 6.83,-2.922 11.61,-7.551 14.46,-13.98 2.84,-6.34 4.24,-14.832 4.24,-25.36 0,-6.64 0,-12.332 -0.04,-16.941 -0.06,-4.6914 -0.09,-9.8398 -0.15,-15.5195 0,-5.3086 0.84,-10.8985 2.55,-16.6602 1.65,-5.789 2.5,-9.5312 2.5,-11.1601 0,-2.918 -1.33,-5.5899 -3.94,-7.9688 -2.56,-2.3828 -5.57,-3.5898 -8.87,-3.5898 -2.83,0 -5.53,1.3398 -8.3,4.0781 -2.71,2.75 -5.6,6.75 -8.66,11.9101"
         style="fill:#100f0d;fill-opacity:1;fill-rule:nonzero;stroke:none"
         transform="matrix(0.13333333,0,0,-0.13333333,0,792.45333)" />
      <path
         id="path12"
         d="M 2331.85,141.371 V 59.3789 c 0,-5.7187 -1.3,-10.0195 -3.85,-12.9297 -2.59,-2.8476 -5.86,-4.3476 -9.86,-4.3476 -3.97,0 -7.25,1.5 -9.71,4.4492 -2.52,3.0195 -3.77,7.2578 -3.77,12.8281 v 81.1801 c 0,5.57 1.25,9.8 3.77,12.652 2.46,2.871 5.74,4.289 9.71,4.289 4,0 7.27,-1.418 9.86,-4.289 2.55,-2.852 3.85,-6.781 3.85,-11.84 z m -13.44,29.348 c -3.75,0 -6.97,1.211 -9.66,3.703 -2.7,2.41 -4.09,5.867 -4.09,10.316 0,4.004 1.41,7.282 4.17,9.922 2.73,2.61 5.97,3.828 9.58,3.828 3.53,0 6.69,-1.136 9.42,-3.476 2.68,-2.364 4.02,-5.832 4.02,-10.274 0,-4.406 -1.3,-7.816 -3.97,-10.238 -2.66,-2.461 -5.81,-3.781 -9.47,-3.781"
         style="fill:#100f0d;fill-opacity:1;fill-rule:nonzero;stroke:none"
         transform="matrix(0.13333333,0,0,-0.13333333,0,792.45333)" />
      <path
         id="path13"
         d="m 2384.7,141.781 v -3.39 c 4.76,6.57 9.98,11.398 15.62,14.48 5.69,3.07 12.22,4.629 19.63,4.629 7.13,0 13.57,-1.629 19.25,-4.922 5.59,-3.238 9.84,-7.816 12.59,-13.758 1.82,-3.488 2.94,-7.269 3.52,-11.281 0.49,-3.969 0.8,-9.109 0.8,-15.367 V 59.3789 c 0,-5.7187 -1.29,-10.0195 -3.76,-12.9297 -2.5,-2.8476 -5.74,-4.3476 -9.71,-4.3476 -4.04,0 -7.35,1.5 -9.77,4.4804 -2.56,2.9883 -3.86,7.2266 -3.86,12.7969 v 47.2731 c 0,9.399 -1.21,16.539 -3.69,21.477 -2.54,4.953 -7.52,7.473 -14.96,7.473 -4.84,0 -9.25,-1.532 -13.22,-4.563 -3.98,-2.98 -6.91,-7.141 -8.76,-12.418 -1.33,-4.23 -2.03,-12.09 -2.03,-23.7421 v -35.5 c 0,-5.7578 -1.25,-10.0976 -3.82,-13 -2.57,-2.8203 -5.87,-4.2773 -9.9,-4.2773 -3.89,0 -7.14,1.5 -9.65,4.4492 -2.57,3.0195 -3.81,7.2578 -3.81,12.8281 v 81.9921 c 0,5.43 1.12,9.43 3.41,12.098 2.21,2.683 5.37,4.031 9.27,4.031 2.35,0 4.54,-0.641 6.43,-1.77 1.99,-1.16 3.48,-2.988 4.65,-5.261 1.12,-2.41 1.77,-5.289 1.77,-8.688"
         style="fill:#100f0d;fill-opacity:1;fill-rule:nonzero;stroke:none"
         transform="matrix(0.13333333,0,0,-0.13333333,0,792.45333)" />
      <path
         id="path14"
         d="m 2499.75,139.832 21.96,-64.4414 23.72,67.2504 c 1.89,5.418 3.71,9.199 5.52,11.468 1.83,2.243 4.5,3.391 8.14,3.391 3.45,0 6.38,-1.219 8.86,-3.691 2.38,-2.399 3.6,-5.157 3.6,-8.43 0,-1.219 -0.24,-2.66 -0.67,-4.277 -0.39,-1.704 -0.88,-3.262 -1.48,-4.762 -0.57,-1.391 -1.15,-3.078 -1.94,-4.942 l -26.09,-67.5699 c -0.73,-1.9297 -1.7,-4.4179 -2.83,-7.4062 -1.18,-2.9727 -2.5,-5.461 -3.89,-7.6524 -1.46,-2.0898 -3.2,-3.6992 -5.27,-4.8906 -2.13,-1.1797 -4.68,-1.7773 -7.67,-1.7773 -3.84,0 -6.9,0.9101 -9.22,2.7187 -2.29,1.8594 -3.99,3.8399 -5.07,6.0703 -1.08,2.1407 -2.96,6.4883 -5.52,12.9375 l -25.93,66.8439 c -0.59,1.629 -1.24,3.308 -1.88,4.976 -0.6,1.661 -1.09,3.321 -1.56,5.094 -0.42,1.77 -0.66,3.25 -0.66,4.438 0,1.98 0.57,3.902 1.72,5.8 1.13,1.93 2.69,3.5 4.68,4.68 2.02,1.199 4.13,1.84 6.5,1.84 4.47,0 7.59,-1.348 9.3,-4.109 1.7,-2.672 3.6,-7.2 5.68,-13.559"
         style="fill:#100f0d;fill-opacity:1;fill-rule:nonzero;stroke:none"
         transform="matrix(0.13333333,0,0,-0.13333333,0,792.45333)" />
      <path
         id="path15"
         d="m 2610.98,109.012 h 49.29 c -0.63,9.668 -3.12,16.918 -7.5,21.718 -4.37,4.79 -10.1,7.2 -17.22,7.2 -6.73,0 -12.31,-2.442 -16.64,-7.301 -4.34,-4.859 -6.95,-12.09 -7.93,-21.617 z m 53.2,-16.1526 h -53.2 c 0.01,-6.4688 1.31,-12.1406 3.69,-17.0977 2.46,-4.8828 5.67,-8.6015 9.7,-11.1211 4,-2.5195 8.46,-3.7187 13.31,-3.7187 3.24,0 6.25,0.3867 8.9,1.1679 2.67,0.8399 5.31,2.0821 7.86,3.75 2.48,1.6993 4.78,3.4688 6.93,5.4883 2.1,1.9414 4.93,4.5235 8.27,7.8711 1.41,1.3125 3.42,1.9024 5.97,1.9024 2.84,0 5.07,-0.7696 6.81,-2.4102 1.73,-1.5898 2.54,-3.8203 2.54,-6.7305 0,-2.5703 -0.94,-5.5703 -2.88,-9.0312 -1.91,-3.3789 -4.76,-6.6992 -8.72,-9.8984 -3.89,-3.1211 -8.77,-5.6915 -14.64,-7.8321 -5.85,-2.0703 -12.58,-3.0976 -20.29,-3.0976 -17.43,0 -31.03,5.2382 -40.69,15.5781 -9.69,10.4492 -14.51,24.5117 -14.51,42.2891 0,8.4922 1.23,16.2112 3.56,23.3712 2.39,7.191 5.86,13.332 10.46,18.441 4.59,5.16 10.2,9.117 16.92,11.821 6.74,2.75 14.15,4.117 22.35,4.117 10.55,0 19.7,-2.328 27.29,-7.039 7.63,-4.68 13.31,-10.68 17.09,-18.09 3.79,-7.461 5.69,-14.981 5.69,-22.731 0,-7.078 -1.91,-11.7106 -5.86,-13.8082 -3.96,-2.1524 -9.44,-3.1914 -16.55,-3.1914"
         style="fill:#100f0d;fill-opacity:1;fill-rule:nonzero;stroke:none"
         transform="matrix(0.13333333,0,0,-0.13333333,0,792.45333)" />
      <path
         id="path16"
         d="m 2807.07,77.25 c 0,-3.5078 -1.01,-7.3086 -3.08,-11.3398 -2.03,-4.0118 -5.06,-7.8204 -9.25,-11.4688 -4.13,-3.6211 -9.4,-6.5508 -15.73,-8.75 -6.27,-2.2812 -13.42,-3.3594 -21.25,-3.3594 -16.87,0 -29.97,5.1289 -39.39,15.3282 -9.4,10.2304 -14.15,23.8984 -14.15,41.1093 0,11.6405 2.14,21.9605 6.5,30.8715 4.32,8.89 10.51,15.859 18.71,20.718 8.13,4.922 17.93,7.36 29.31,7.36 7.03,0 13.46,-1.098 19.39,-3.219 5.86,-2.168 10.8,-4.949 14.94,-8.309 4.08,-3.41 7.17,-7.039 9.36,-10.859 2.14,-3.84 3.21,-7.441 3.21,-10.773 0,-3.348 -1.18,-6.227 -3.68,-8.61 -2.39,-2.379 -5.32,-3.539 -8.78,-3.539 -2.26,0 -4.13,0.649 -5.6,1.86 -1.52,1.171 -3.18,3.082 -5.07,5.839 -3.32,5.25 -6.76,9.231 -10.39,11.922 -3.62,2.598 -8.22,3.949 -13.81,3.949 -7.99,0 -14.49,-3.332 -19.4,-9.871 -4.96,-6.578 -7.4,-15.539 -7.4,-26.9098 0,-5.3008 0.67,-10.2695 1.88,-14.6992 1.27,-4.4883 3.12,-8.2891 5.52,-11.4687 2.38,-3.1524 5.29,-5.5196 8.67,-7.1602 3.33,-1.6602 7.07,-2.4492 11.16,-2.4492 5.43,0 10.11,1.289 14,3.9297 3.87,2.6679 7.33,6.6875 10.32,12.0273 1.67,3.2695 3.43,5.7422 5.38,7.5703 1.91,1.8125 4.23,2.6602 7.07,2.6602 3.27,0 6.08,-1.2696 8.19,-3.9102 2.24,-2.6992 3.37,-5.4687 3.37,-8.4492"
         style="fill:#100f0d;fill-opacity:1;fill-rule:nonzero;stroke:none"
         transform="matrix(0.13333333,0,0,-0.13333333,0,792.45333)" />
      <path
         id="path17"
         d="m 2832.32,155.102 h 2.99 v 17.058 c 0,4.539 0.12,8.172 0.37,10.762 0.22,2.598 0.82,4.777 1.94,6.687 1.03,1.911 2.56,3.5 4.59,4.743 1.97,1.179 4.19,1.757 6.65,1.757 3.44,0 6.57,-1.328 9.35,-4.007 1.81,-1.832 3.03,-4 3.52,-6.582 0.51,-2.598 0.74,-6.34 0.74,-11.098 v -19.32 h 10 c 3.84,0 6.79,-0.961 8.81,-2.872 2.06,-1.91 3.05,-4.32 3.05,-7.308 0,-3.82 -1.43,-6.531 -4.36,-8.024 -2.88,-1.488 -7.02,-2.269 -12.39,-2.269 h -5.11 V 82.3594 c 0,-4.4492 0.16,-7.8672 0.45,-10.2891 0.35,-2.4101 1.19,-4.3515 2.45,-5.8008 1.26,-1.5 3.37,-2.2695 6.31,-2.2695 1.59,0 3.74,0.2695 6.49,0.9023 2.66,0.5665 4.79,0.879 6.35,0.879 2.17,0 4.22,-0.961 5.94,-2.711 1.72,-1.8906 2.63,-4.1211 2.63,-6.8398 0,-4.5508 -2.34,-8.0586 -7.16,-10.4883 -4.83,-2.4336 -11.69,-3.6406 -20.61,-3.6406 -8.51,0 -14.97,1.5 -19.36,4.4804 -4.35,2.9883 -7.27,7.0782 -8.58,12.4102 -1.4,5.2578 -2.07,12.2891 -2.07,21.0859 v 54.5509 h -3.62 c -3.84,0 -6.84,0.973 -8.92,2.922 -2.07,1.941 -3.08,4.371 -3.08,7.371 0,2.988 1.06,5.398 3.2,7.308 2.18,1.911 5.3,2.872 9.43,2.872"
         style="fill:#100f0d;fill-opacity:1;fill-rule:nonzero;stroke:none"
         transform="matrix(0.13333333,0,0,-0.13333333,0,792.45333)" />
      <path
         id="path18"
         d="m 2977.51,99.7383 c 0,11.5317 -2.46,20.5817 -7.31,27.0237 -4.93,6.41 -11.43,9.66 -19.69,9.66 -5.33,0 -10,-1.442 -14.02,-4.32 -4.08,-2.922 -7.2,-7.153 -9.38,-12.77 -2.18,-5.562 -3.31,-12.07 -3.31,-19.5937 0,-7.4297 1.13,-13.8867 3.28,-19.4063 2.14,-5.5507 5.21,-9.8007 9.22,-12.7539 4.01,-2.9375 8.75,-4.3789 14.21,-4.3789 8.26,0 14.76,3.211 19.69,9.6914 4.85,6.4492 7.31,15.4492 7.31,26.8477 z m 27.31,0 c 0,-8.4102 -1.25,-16.207 -3.82,-23.3985 -2.5,-7.0781 -6.17,-13.2304 -10.93,-18.3789 -4.79,-5.1289 -10.51,-8.9687 -17.13,-11.7812 -6.67,-2.7383 -14.09,-4.0781 -22.43,-4.0781 -8.27,0 -15.68,1.3398 -22.22,4.1601 -6.57,2.7578 -12.29,6.7188 -17.09,11.8985 -4.8,5.1796 -8.46,11.2304 -10.91,18.2617 -2.48,7.0781 -3.7,14.8203 -3.7,23.3672 0,8.5899 1.22,16.4609 3.7,23.5629 2.58,7.179 6.15,13.238 10.86,18.328 4.75,5.05 10.45,8.949 17.14,11.679 6.77,2.75 14.16,4.141 22.22,4.141 8.26,0 15.7,-1.391 22.43,-4.168 6.7,-2.773 12.43,-6.762 17.22,-11.883 4.73,-5.121 8.44,-11.258 10.92,-18.328 2.49,-7.051 3.74,-14.851 3.74,-23.3827"
         style="fill:#100f0d;fill-opacity:1;fill-rule:nonzero;stroke:none"
         transform="matrix(0.13333333,0,0,-0.13333333,0,792.45333)" />
      <path
         id="path19"
         d="M 3053.27,83 V 59.3789 c 0,-5.7578 -1.31,-10.0976 -3.91,-13 -2.6,-2.8203 -5.87,-4.2773 -9.89,-4.2773 -3.87,0 -7.12,1.5 -9.63,4.3476 -2.52,2.9102 -3.76,7.211 -3.76,12.9297 v 78.9921 c 0,12.77 4.39,19.129 13.23,19.129 4.47,0 7.75,-1.52 9.78,-4.469 1.95,-2.98 3,-7.39 3.27,-13.199 3.23,5.809 6.61,10.219 10.04,13.199 3.42,2.949 7.96,4.469 13.64,4.469 5.76,0 11.28,-1.52 16.68,-4.469 5.35,-2.98 8.08,-6.949 8.08,-11.851 0,-3.461 -1.19,-6.371 -3.47,-8.59 -2.27,-2.231 -4.75,-3.41 -7.44,-3.41 -0.98,0 -3.4,0.672 -7.21,1.98 -3.85,1.262 -7.22,1.922 -10.16,1.922 -3.93,0 -7.18,-1.051 -9.68,-3.293 -2.54,-2.219 -4.51,-5.41 -5.9,-9.699 -1.4,-4.34 -2.4,-9.43 -2.9,-15.391 -0.51,-5.8904 -0.77,-13.0896 -0.77,-21.699"
         style="fill:#100f0d;fill-opacity:1;fill-rule:nonzero;stroke:none"
         transform="matrix(0.13333333,0,0,-0.13333333,0,792.45333)" />
      <path
         id="path20"
         d="m 3198.12,79.1797 c 0,-7.8516 -1.83,-14.5391 -5.52,-20.1211 -3.67,-5.6094 -9.05,-9.7773 -16.2,-12.6875 -7.17,-2.8125 -15.82,-4.2695 -26.1,-4.2695 -9.68,0 -18.1,1.5507 -25.09,4.6992 -6.97,3.1094 -12.13,6.9805 -15.42,11.6484 -3.36,4.6602 -5.07,9.3594 -5.07,14.0625 0,3.1094 1.1,5.7891 3.27,8 2.11,2.2696 4.82,3.3164 8.03,3.3164 2.87,0 5.1,-0.7383 6.61,-2.1484 1.53,-1.5391 2.95,-3.5391 4.39,-6.1797 2.78,-5.0703 6.1,-8.8398 10.05,-11.3281 3.81,-2.5313 9.12,-3.7696 15.88,-3.7696 5.42,0 9.9,1.2774 13.39,3.8086 3.47,2.5274 5.27,5.4102 5.27,8.6797 0,5.0196 -1.84,8.668 -5.43,10.9297 -3.68,2.3399 -9.6,4.5195 -17.9,6.582 -9.36,2.4297 -17.01,4.9766 -22.89,7.6172 -5.87,2.6915 -10.63,6.2305 -14.12,10.6015 -3.52,4.301 -5.31,9.711 -5.31,16.078 0,5.731 1.64,11.09 4.9,16.133 3.24,5.059 8.11,9.09 14.43,12.109 6.33,3.039 13.97,4.559 22.99,4.559 7,0 13.33,-0.789 18.97,-2.309 5.6,-1.511 10.34,-3.582 14.03,-6.109 3.75,-2.582 6.64,-5.422 8.59,-8.523 1.99,-3.149 2.96,-6.2 2.96,-9.161 0,-3.269 -1.03,-5.878 -3.17,-8.046 -2.1,-2 -5.09,-3.051 -8.88,-3.051 -2.83,0 -5.19,0.82 -7.19,2.519 -1.92,1.641 -4.19,4.121 -6.7,7.399 -2.06,2.781 -4.46,5.023 -7.29,6.679 -2.79,1.633 -6.57,2.5 -11.32,2.5 -4.94,0 -9.06,-1.078 -12.25,-3.289 -3.28,-2.168 -4.92,-4.91 -4.92,-8.168 0,-2.992 1.21,-5.421 3.56,-7.332 2.42,-1.91 5.63,-3.488 9.7,-4.75 4.08,-1.25 9.64,-2.8 16.75,-4.589 8.46,-2.129 15.32,-4.668 20.68,-7.68 5.34,-2.949 9.39,-6.4884 12.14,-10.5392 2.8,-4.0899 4.18,-8.711 4.18,-13.8711"
         style="fill:#100f0d;fill-opacity:1;fill-rule:nonzero;stroke:none"
         transform="matrix(0.13333333,0,0,-0.13333333,0,792.45333)" />
      <path
         id="path21"
         d="m 3229,42.1016 c -4.12,0 -7.69,1.3398 -10.64,4.1601 -3.03,2.7578 -4.51,6.668 -4.51,11.6094 0,4.2187 1.4,7.8594 4.23,10.918 2.86,3.0429 6.41,4.5312 10.6,4.5312 4.16,0 7.74,-1.4883 10.63,-4.5195 3,-2.961 4.48,-6.6797 4.48,-10.9297 0,-4.9102 -1.48,-8.7695 -4.48,-11.582 -2.89,-2.7891 -6.34,-4.1875 -10.31,-4.1875"
         style="fill:#100f0d;fill-opacity:1;fill-rule:nonzero;stroke:none"
         transform="matrix(0.13333333,0,0,-0.13333333,0,792.45333)" />
      <path
         id="path22"
         d="m 3349.25,99.7383 c 0,11.5317 -2.45,20.5817 -7.33,27.0237 -4.88,6.41 -11.42,9.66 -19.65,9.66 -5.32,0 -9.95,-1.442 -14.02,-4.32 -4.07,-2.922 -7.18,-7.153 -9.36,-12.77 -2.17,-5.562 -3.28,-12.07 -3.28,-19.5937 0,-7.4297 1.05,-13.8867 3.19,-19.4063 2.23,-5.5507 5.28,-9.8007 9.31,-12.7539 4,-2.9375 8.72,-4.3789 14.16,-4.3789 8.23,0 14.77,3.211 19.65,9.6914 4.88,6.4492 7.33,15.4492 7.33,26.8477 z m 27.33,0 c 0,-8.4102 -1.25,-16.207 -3.81,-23.3985 -2.54,-7.0781 -6.15,-13.2304 -10.95,-18.3789 -4.82,-5.1289 -10.47,-8.9687 -17.13,-11.7812 -6.62,-2.7383 -14.09,-4.0781 -22.42,-4.0781 -8.22,0 -15.62,1.3398 -22.2,4.1601 -6.58,2.7578 -12.24,6.7188 -17.05,11.8985 -4.89,5.1796 -8.51,11.2304 -11.03,18.2617 -2.44,7.0781 -3.69,14.8203 -3.69,23.3672 0,8.5899 1.25,16.4609 3.78,23.5629 2.57,7.179 6.14,13.238 10.83,18.328 4.71,5.05 10.43,8.949 17.16,11.679 6.7,2.75 14.06,4.141 22.2,4.141 8.23,0 15.7,-1.391 22.42,-4.168 6.74,-2.773 12.46,-6.762 17.26,-11.883 4.74,-5.121 8.38,-11.258 10.9,-18.328 2.48,-7.051 3.73,-14.851 3.73,-23.3827"
         style="fill:#100f0d;fill-opacity:1;fill-rule:nonzero;stroke:none"
         transform="matrix(0.13333333,0,0,-0.13333333,0,792.45333)" />
      <path
         id="path23"
         d="M 3425.01,83 V 59.3789 c 0,-5.7578 -1.29,-10.0976 -3.88,-13 -2.55,-2.8203 -5.88,-4.2773 -9.84,-4.2773 -3.96,0 -7.14,1.5 -9.68,4.3476 -2.56,2.9102 -3.8,7.211 -3.8,12.9297 v 78.9921 c 0,12.77 4.47,19.129 13.26,19.129 4.52,0 7.75,-1.52 9.74,-4.469 1.96,-2.98 3.12,-7.39 3.36,-13.199 3.19,5.809 6.52,10.219 9.94,13.199 3.43,2.949 8,4.469 13.67,4.469 5.81,0 11.35,-1.52 16.67,-4.469 5.38,-2.98 8.09,-6.949 8.09,-11.851 0,-3.461 -1.15,-6.371 -3.42,-8.59 -2.32,-2.231 -4.75,-3.41 -7.47,-3.41 -0.96,0 -3.35,0.672 -7.17,1.98 -3.84,1.262 -7.21,1.922 -10.16,1.922 -3.95,0 -7.19,-1.051 -9.78,-3.293 -2.48,-2.219 -4.45,-5.41 -5.86,-9.699 -1.36,-4.34 -2.34,-9.43 -2.85,-15.391 -0.53,-5.8904 -0.82,-13.0896 -0.82,-21.699"
         style="fill:#100f0d;fill-opacity:1;fill-rule:nonzero;stroke:none"
         transform="matrix(0.13333333,0,0,-0.13333333,0,792.45333)" />
      <path
         id="path24"
         d="m 3503.53,100.719 c 0,-11.4885 2.42,-20.1995 7.26,-26.1174 4.77,-5.8399 11.04,-8.8203 18.63,-8.8203 4.49,0 8.82,1.3085 12.81,3.8281 4.02,2.5312 7.3,6.3398 9.83,11.4414 2.55,5.1094 3.77,11.2578 3.77,18.539 0,11.5702 -2.46,20.5582 -7.33,26.9922 -4.86,6.5 -11.3,9.746 -19.26,9.746 -7.74,0 -13.98,-3.156 -18.65,-9.289 -4.71,-6.187 -7.06,-14.937 -7.06,-26.32 z m 78.84,35.992 V 54.2383 c 0,-9.457 -1.04,-17.5586 -2.92,-24.3086 -1.94,-6.8281 -5.01,-12.4375 -9.26,-16.8711 -4.25,-4.41797 -9.84,-7.70704 -16.67,-9.85938 C 3546.64,1.08984 3538.07,0 3527.86,0 c -9.39,0 -17.78,1.32031 -25.1,4.05859 -7.39,2.80079 -13.09,6.30081 -17.05,10.66021 -3.99,4.2929 -6,8.75 -6,13.3515 0,3.4805 1.11,6.2813 3.43,8.461 2.23,2.2382 4.96,3.3203 8.13,3.3203 4.01,0 7.45,-1.8633 10.49,-5.5118 1.47,-1.9296 2.99,-3.8007 4.5,-5.6796 1.57,-1.9219 3.31,-3.5899 5.18,-4.8985 1.91,-1.3906 4.21,-2.3906 6.87,-3.0508 2.59,-0.6601 5.7,-0.9921 9.17,-0.9921 6.98,0 12.51,1.0507 16.36,3.0703 3.89,2.0429 6.62,4.9023 8.21,8.5625 1.48,3.6797 2.49,7.5976 2.64,11.789 0.32,4.2813 0.51,10.9492 0.7,20.2813 -4.18,-6.0899 -9.1,-10.7422 -14.52,-13.9219 -5.47,-3.2109 -12.03,-4.7617 -19.54,-4.7617 -9.18,0 -17.13,2.3828 -23.88,7.2734 -6.85,4.8399 -12.08,11.6172 -15.73,20.3789 -3.6,8.711 -5.47,18.7891 -5.47,30.2304 0,8.578 1.09,16.277 3.35,23.149 2.18,6.82 5.34,12.621 9.53,17.339 4.07,4.723 8.84,8.282 14.21,10.68 5.41,2.363 11.25,3.582 17.76,3.582 7.66,0 14.33,-1.562 19.97,-4.672 5.72,-3.039 10.91,-7.937 15.77,-14.48 v 3.801 c 0,4.96 1.2,8.742 3.5,11.519 2.29,2.672 5.31,4.031 8.94,4.031 5.27,0 8.75,-1.761 10.5,-5.34 1.7,-3.578 2.59,-8.781 2.59,-15.519"
         style="fill:#100f0d;fill-opacity:1;fill-rule:nonzero;stroke:none"
         transform="matrix(0.13333333,0,0,-0.13333333,0,792.45333)" />
      <path
         id="path25"
         d="M 2403.66,413.09 H 2444 c -2.85,-21.75 -11.76,-38.719 -26.58,-50.942 -13.72,-11.968 -30.33,-17.867 -49.73,-17.867 -26.35,0 -47.37,9.258 -63.07,27.731 -14.88,17.57 -22.3,40.25 -22.3,67.957 0,28.39 7.37,51.09 22.08,68.281 14.71,17.121 35.51,25.719 62.39,25.719 19.99,0 36.91,-5.41 50.63,-16.137 14.54,-11.602 23.43,-27.902 26.58,-48.773 h -40.34 c -3.49,18.211 -14.6,27.261 -33.52,27.261 -31.17,0 -46.79,-18.461 -46.79,-55.422 0,-17.316 4.02,-31.449 12.04,-42.457 8.01,-11.062 19.32,-16.589 33.9,-16.589 21.74,0 33.2,10.429 34.37,31.238 z m -158.79,25.449 c 0,-36.098 11.45,-66.66 34.3,-91.559 22.9,-24.89 50.91,-37.359 84.16,-37.359 33.1,0 61.13,12.469 83.98,37.359 22.92,24.899 34.3,55.461 34.3,91.559 0,36.07 -11.38,66.609 -34.3,91.512 -22.85,24.961 -50.88,37.39 -83.98,37.39 -33.25,0 -61.26,-12.429 -84.16,-37.39 -22.85,-24.903 -34.3,-55.442 -34.3,-91.512 z m -40.98,0 c 0,45.941 15.55,85.152 46.66,117.723 31.15,32.508 68.75,48.777 112.78,48.777 43.92,0 81.46,-16.269 112.64,-48.777 31.13,-32.571 46.73,-71.782 46.73,-117.723 0,-45.98 -15.6,-85.238 -46.73,-117.738 -31.18,-32.551 -68.72,-48.832 -112.64,-48.832 -44.03,0 -81.63,16.281 -112.78,48.832 -31.11,32.5 -46.66,71.758 -46.66,117.738"
         style="fill:#100f0d;fill-opacity:1;fill-rule:nonzero;stroke:none"
         transform="matrix(0.13333333,0,0,-0.13333333,0,792.45333)" />
      <path
         id="path26"
         d="m 2268.39,334.121 23.26,-19.73 170.95,219.531 -23.24,19.699 -170.97,-219.5"
         style="fill:#100f0d;fill-opacity:1;fill-rule:nonzero;stroke:none"
         transform="matrix(0.13333333,0,0,-0.13333333,0,792.45333)" />
      <path
         id="path27"
         d="m 2441.19,1386.43 c 1254.94,0 2278.45,1023.53 2278.45,2278.45 0,1254.94 -1023.51,2278.47 -2278.45,2278.47 -1254.94,0 -2278.463,-1023.53 -2278.463,-2278.47 0,-1254.92 1023.523,-2278.45 2278.463,-2278.45"
         style="fill:#e7f7fb;fill-opacity:1;fill-rule:evenodd;stroke:none"
         transform="matrix(0.13333333,0,0,-0.13333333,0,792.45333)" />
      <path
         id="path28"
         d="m 3179.43,3163.03 -59.75,18.83 c -67.18,21.17 -117.24,77.63 -130.21,146.88 l -41.07,-8.79 c -70.06,-15 -136.52,-41.07 -197.16,-76.7 v 134.83 h -620.09 v -134.83 c -60.65,35.63 -127.12,61.7 -197.17,76.7 l -41.06,8.79 c -12.98,-69.25 -63.03,-125.71 -130.22,-146.88 l -59.75,-18.83 181.9,-466.75 h 1112.68 l 181.9,466.75"
         style="fill:#2f3438;fill-opacity:1;fill-rule:evenodd;stroke:none"
         transform="matrix(0.13333333,0,0,-0.13333333,0,792.45333)" />
      <path
         id="path29"
         d="M 0,823.449 H 4882.37 V 2727.77 H 0 V 823.449"
         style="fill:#5d717b;fill-opacity:1;fill-rule:evenodd;stroke:none"
         transform="matrix(0.13333333,0,0,-0.13333333,0,792.45333)" />
      <path
         id="path30"
         d="m 3015,2727.77 h 541.51 c 32.73,-117.34 40.82,-281.34 18.38,-495.03 -32.93,-313.44 -119.54,-597.02 -227.91,-743.95 19.75,-70.94 22.52,-157.07 3.85,-246.37 -42.84,-204.9 -182.19,-349.111 -311.26,-322.119 -129.07,26.961 -199,214.929 -156.17,419.799 20.47,97.85 62.93,181.84 115.78,239.99 -74.34,186.58 -109.01,480.89 -78.43,771.89 16.8,160.1 50.25,283.51 94.25,375.79 z m -1359.92,0 h 541.51 c 44.01,-92.28 77.45,-215.69 94.27,-375.79 30.57,-291 -4.09,-585.31 -78.45,-771.89 52.85,-58.15 95.33,-142.14 115.78,-239.99 42.83,-204.87 -27.09,-392.838 -156.16,-419.799 -129.08,-26.992 -268.43,117.219 -311.26,322.119 -18.67,89.3 -15.91,175.43 3.84,246.37 -108.35,146.93 -194.98,430.51 -227.9,743.95 -22.45,213.69 -14.36,377.69 18.37,495.03 v 0"
         style="fill:#4c5f68;fill-opacity:1;fill-rule:evenodd;stroke:none"
         transform="matrix(0.13333333,0,0,-0.13333333,0,792.45333)" />
      <path
         id="path31"
         d="m 3030.06,1872.01 c -129.07,26.99 -268.42,-117.25 -311.26,-322.12 -42.83,-204.87 27.08,-392.84 156.17,-419.84 129.07,-26.96 268.42,117.25 311.24,322.12 42.83,204.88 -27.08,392.85 -156.15,419.84 z m -1177.74,0 c 129.08,26.99 268.43,-117.25 311.26,-322.12 42.83,-204.87 -27.09,-392.84 -156.16,-419.84 -129.07,-26.96 -268.42,117.25 -311.25,322.12 -42.84,204.88 27.08,392.85 156.15,419.84 v 0"
         style="fill:#2f3438;fill-opacity:1;fill-rule:evenodd;stroke:none"
         transform="matrix(0.13333333,0,0,-0.13333333,0,792.45333)" />
      <path
         id="path32"
         d="m 3129,4236.05 35.37,-66.23 c 86.65,-162.21 179.05,-321.26 277.06,-476.87 l -355.87,-21.06 -5.3,3.98 48.74,560.18"
         style="fill:#2f3438;fill-opacity:1;fill-rule:evenodd;stroke:none"
         transform="matrix(0.13333333,0,0,-0.13333333,0,792.45333)" />
      <path
         id="path33"
         d="m 3179.43,3163.03 -59.75,18.83 c -67.18,21.17 -117.24,77.63 -130.21,146.88 l -41.07,-8.79 c -170.87,-36.56 -320.42,-139.07 -416.15,-285.26 l 23.14,-97.14 h 442.14 l 181.9,225.48"
         style="fill:#2f3438;fill-opacity:1;fill-rule:evenodd;stroke:none"
         transform="matrix(0.13333333,0,0,-0.13333333,0,792.45333)" />
      <path
         id="path34"
         d="m 1753.38,4236.05 -35.37,-66.23 c -86.64,-162.21 -179.05,-321.26 -277.05,-476.87 l 355.85,-21.06 5.31,3.98 -48.74,560.18"
         style="fill:#2f3438;fill-opacity:1;fill-rule:evenodd;stroke:none"
         transform="matrix(0.13333333,0,0,-0.13333333,0,792.45333)" />
      <path
         id="path35"
         d="m 2441.19,4599.93 c 407.72,0 738.24,-158.18 738.24,-661.23 0,-503.05 -330.52,-910.85 -738.24,-910.85 -407.72,0 -738.24,407.8 -738.24,910.85 0,503.05 330.52,661.23 738.24,661.23"
         style="fill:#b2c7cb;fill-opacity:1;fill-rule:evenodd;stroke:none"
         transform="matrix(0.13333333,0,0,-0.13333333,0,792.45333)" />
      <path
         id="path36"
         d="m 1768.45,3563.08 c -42.07,114.52 -65.5,241.69 -65.5,375.62 0,34.39 1.6,67.11 4.6,98.33 6.31,-230.76 186.89,-419.01 417.24,-434.84 l -356.34,-39.11"
         style="fill:#95afb6;fill-opacity:1;fill-rule:evenodd;stroke:none"
         transform="matrix(0.13333333,0,0,-0.13333333,0,792.45333)" />
      <path
         id="path37"
         d="m 3179.43,3163.03 c -182.47,21.98 -374.07,-132.64 -423.3,-601.28 -49.23,-468.64 70.69,-945.97 253.18,-967.94 182.47,-21.96 351.73,380.05 400.96,848.71 49.24,468.64 -48.35,698.56 -230.84,720.51"
         style="fill:#b2c7cb;fill-opacity:1;fill-rule:evenodd;stroke:none"
         transform="matrix(0.13333333,0,0,-0.13333333,0,792.45333)" />
      <path
         id="path38"
         d="m 1417.23,3668.4 c 94.01,115.98 304.89,106.05 471.01,-22.19 166.12,-128.24 224.56,-326.21 130.55,-442.2 -94.02,-115.98 -304.9,-106.04 -471.01,22.19 -166.12,128.24 -224.56,326.21 -130.55,442.2"
         style="fill:#b2c7cb;fill-opacity:1;fill-rule:evenodd;stroke:none"
         transform="matrix(0.13333333,0,0,-0.13333333,0,792.45333)" />
      <path
         id="path39"
         d="m 1702.95,3163.03 c 182.48,21.98 374.07,-132.64 423.3,-601.28 49.23,-468.64 -70.69,-945.97 -253.17,-967.94 -182.49,-21.96 -351.75,380.05 -400.98,848.71 -49.22,468.64 48.36,698.56 230.85,720.51"
         style="fill:#b2c7cb;fill-opacity:1;fill-rule:evenodd;stroke:none"
         transform="matrix(0.13333333,0,0,-0.13333333,0,792.45333)" />
      <path
         id="path40"
         d="m 3113.93,3563.08 c 42.08,114.52 65.5,241.69 65.5,375.62 0,34.39 -1.6,67.11 -4.61,98.33 -6.3,-230.76 -186.89,-419.01 -417.23,-434.84 l 356.34,-39.11"
         style="fill:#95afb6;fill-opacity:1;fill-rule:evenodd;stroke:none"
         transform="matrix(0.13333333,0,0,-0.13333333,0,792.45333)" />
      <path
         id="path41"
         d="m 3465.15,3668.4 c -94.01,115.98 -304.89,106.05 -470.99,-22.19 -166.13,-128.24 -224.58,-326.21 -130.56,-442.2 94,-115.98 304.89,-106.04 471.01,22.19 166.11,128.24 224.56,326.21 130.54,442.2"
         style="fill:#b2c7cb;fill-opacity:1;fill-rule:evenodd;stroke:none"
         transform="matrix(0.13333333,0,0,-0.13333333,0,792.45333)" />
      <path
         id="path42"
         d="m 2895.29,3545.98 c -86.33,-116.71 -103.57,-253.3 -31.69,-341.97 94,-115.98 304.89,-106.04 471.01,22.19 75.86,58.58 129.27,131.71 155.95,204.92 -26.59,-35.95 -59.73,-70.01 -98.86,-100.22 -166.12,-128.23 -376.99,-138.17 -471.01,-22.18 -51.07,63 -57.12,150.19 -25.4,237.26"
         style="fill:#95afb6;fill-opacity:1;fill-rule:evenodd;stroke:none"
         transform="matrix(0.13333333,0,0,-0.13333333,0,792.45333)" />
      <path
         id="path43"
         d="m 1987.09,3545.98 c 86.33,-116.71 103.56,-253.3 31.7,-341.97 -94.02,-115.98 -304.89,-106.04 -471.01,22.19 -75.88,58.58 -129.28,131.71 -155.96,204.92 26.59,-35.95 59.73,-70.01 98.86,-100.22 166.11,-128.23 377,-138.17 471.01,-22.18 51.06,63 57.13,150.19 25.4,237.26"
         style="fill:#95afb6;fill-opacity:1;fill-rule:evenodd;stroke:none"
         transform="matrix(0.13333333,0,0,-0.13333333,0,792.45333)" />
      <path
         id="path44"
         d="m 1908.41,3646.67 c 355.18,0 710.36,0 1065.57,0 27.77,0 47.24,-22.72 43.25,-50.5 l -76.84,-534.86 c -4,-27.77 -29.99,-50.5 -57.77,-50.5 -294.29,0 -588.57,0 -882.85,0 -27.79,0 -53.78,22.73 -57.77,50.5 l -76.84,534.86 c -3.99,27.78 15.47,50.5 43.25,50.5"
         style="fill:#ffffff;fill-opacity:1;fill-rule:evenodd;stroke:none"
         transform="matrix(0.13333333,0,0,-0.13333333,0,792.45333)" />
      <path
         id="path45"
         d="m 2441.2,3227.83 c 89.94,0 163.3,45.32 163.3,100.91 0,55.58 -73.36,100.91 -163.3,100.91 -89.95,0 -163.32,-45.33 -163.32,-100.91 0,-55.59 73.37,-100.91 163.32,-100.91"
         style="fill:#e5f5f9;fill-opacity:1;fill-rule:evenodd;stroke:none"
         transform="matrix(0.13333333,0,0,-0.13333333,0,792.45333)" />
      <path
         id="path46"
         d="m 2441.2,4377.6 c 134.45,0 244.11,46.86 244.11,104.32 0,57.47 -109.66,104.34 -244.11,104.34 -134.46,0 -244.12,-46.87 -244.12,-104.34 0,-57.46 109.66,-104.32 244.12,-104.32"
         style="fill:#2f3438;fill-opacity:1;fill-rule:evenodd;stroke:none"
         transform="matrix(0.13333333,0,0,-0.13333333,0,792.45333)" />
      <path
         id="path47"
         d="m 2214.42,4755.35 51.12,-71.04 c 31.59,-43.91 23.56,-104.84 -18.35,-139.05 l 194,-63.34 194.01,63.34 c -41.91,34.21 -49.96,95.14 -18.36,139.05 l 51.12,71.04 -226.77,-10.63 -226.77,10.63"
         style="fill:#2f3438;fill-opacity:1;fill-rule:evenodd;stroke:none"
         transform="matrix(0.13333333,0,0,-0.13333333,0,792.45333)" />
      <path
         id="path48"
         d="m 1935.7,5255.51 h 1010.98 c 91.53,0 166.4,-74.86 166.4,-166.37 v 0 c 0,-91.52 -74.87,-166.39 -166.4,-166.39 H 1935.7 c -91.52,0 -166.39,74.87 -166.39,166.39 v 0 c 0,91.51 74.87,166.37 166.39,166.37"
         style="fill:#2f3438;fill-opacity:1;fill-rule:evenodd;stroke:none"
         transform="matrix(0.13333333,0,0,-0.13333333,0,792.45333)" />
      <path
         id="path49"
         d="m 2441.2,4632.66 c 317.55,0 576.54,205.05 576.54,456.47 0,251.42 -258.99,456.48 -576.54,456.48 -317.55,0 -576.55,-205.06 -576.55,-456.48 0,-251.42 259,-456.47 576.55,-456.47"
         style="fill:#b2c7cb;fill-opacity:1;fill-rule:evenodd;stroke:none"
         transform="matrix(0.13333333,0,0,-0.13333333,0,792.45333)" />
      <path
         id="path50"
         d="m 2201.52,5183.92 h 479.35 c 91.52,0 166.38,-74.86 166.38,-166.38 v 0 c 0,-91.52 -74.86,-166.39 -166.38,-166.39 h -479.35 c -91.52,0 -166.39,74.87 -166.39,166.39 v 0 c 0,91.52 74.87,166.38 166.39,166.38"
         style="fill:#2f3438;fill-opacity:1;fill-rule:evenodd;stroke:none"
         transform="matrix(0.13333333,0,0,-0.13333333,0,792.45333)" />
      <path
         id="path51"
         d="m 2696.61,5106.53 c 0,-51.19 -41.51,-92.69 -92.68,-92.69 -51.2,0 -92.69,41.5 -92.69,92.69 h 185.37"
         style="fill:#758ed0;fill-opacity:1;fill-rule:evenodd;stroke:none"
         transform="matrix(0.13333333,0,0,-0.13333333,0,792.45333)" />
      <path
         id="path52"
         d="m 2371.15,5106.53 c 0,-51.19 -41.5,-92.69 -92.69,-92.69 -51.19,0 -92.69,41.5 -92.69,92.69 h 185.38"
         style="fill:#758ed0;fill-opacity:1;fill-rule:evenodd;stroke:none"
         transform="matrix(0.13333333,0,0,-0.13333333,0,792.45333)" />
      <path
         id="path53"
         d="m 2512.9,4946.3 c 5.84,8.56 17.53,10.78 26.09,4.93 8.56,-5.85 10.78,-17.53 4.92,-26.1 -8.3,-12.14 -21.69,-22.22 -38.2,-29.01 -14.98,-6.17 -32.72,-9.76 -51.53,-9.76 -18.81,0 -36.55,3.59 -51.54,9.76 -16.51,6.79 -29.89,16.87 -38.2,29.01 -5.84,8.57 -3.64,20.25 4.93,26.1 8.56,5.85 20.24,3.63 26.09,-4.93 4.17,-6.08 11.69,-11.47 21.44,-15.49 10.49,-4.3 23.28,-6.82 37.28,-6.82 14,0 26.8,2.52 37.27,6.82 9.76,4.02 17.28,9.41 21.45,15.49"
         style="fill:#758ed0;fill-opacity:1;fill-rule:evenodd;stroke:none"
         transform="matrix(0.13333333,0,0,-0.13333333,0,792.45333)" />
      <path
         id="path54"
         d="m 2109.72,2680 c 6.57,-37 12.13,-76.34 16.53,-118.25 49.23,-468.64 -70.69,-945.97 -253.17,-967.94 -152.26,-18.32 -295.29,258.53 -367.1,622.94 83.7,-214.57 197.61,-353.8 316.71,-340.63 175.43,19.39 297.72,393.87 287.03,803.88 z m 662.94,0 c -6.57,-37 -12.13,-76.34 -16.53,-118.25 -49.23,-468.64 70.69,-945.97 253.18,-967.94 152.26,-18.32 295.28,258.53 367.09,622.94 -83.69,-214.57 -197.61,-353.8 -316.7,-340.63 -175.44,19.39 -297.73,393.87 -287.04,803.88 v 0"
         style="fill:#95afb6;fill-opacity:1;fill-rule:evenodd;stroke:none"
         transform="matrix(0.13333333,0,0,-0.13333333,0,792.45333)" />
    </g>
  </g>
</svg>
