<?xml version="1.0" encoding="UTF-8" standalone="no"?>
<!-- Created with Inkscape (http://www.inkscape.org/) -->

<svg
   version="1.1"
   id="svg1"
   width="618.76001"
   height="811.33331"
   viewBox="0 0 618.76001 811.33331"
   sodipodi:docname="man-sitting-on-question-mark.svg"
   inkscape:version="1.3.2 (091e20ef0f, 2023-11-25, custom)"
   xmlns:inkscape="http://www.inkscape.org/namespaces/inkscape"
   xmlns:sodipodi="http://sodipodi.sourceforge.net/DTD/sodipodi-0.dtd"
   xmlns="http://www.w3.org/2000/svg"
   xmlns:svg="http://www.w3.org/2000/svg">
  <defs
     id="defs1" />
  <sodipodi:namedview
     id="namedview1"
     pagecolor="#505050"
     bordercolor="#ffffff"
     borderopacity="1"
     inkscape:showpageshadow="0"
     inkscape:pageopacity="0"
     inkscape:pagecheckerboard="1"
     inkscape:deskcolor="#d1d1d1"
     inkscape:zoom="0.95398523"
     inkscape:cx="309.75322"
     inkscape:cy="405.66666"
     inkscape:window-width="1920"
     inkscape:window-height="1002"
     inkscape:window-x="0"
     inkscape:window-y="0"
     inkscape:window-maximized="1"
     inkscape:current-layer="g1">
    <inkscape:page
       x="0"
       y="0"
       inkscape:label="1"
       id="page1"
       width="618.76001"
       height="811.33331"
       margin="0"
       bleed="0" />
  </sodipodi:namedview>
  <g
     id="g1"
     inkscape:groupmode="layer"
     inkscape:label="1">
    <g
       id="group-R5">
      <path
         id="path2"
         d="m 1351.99,100.262 c 0,7.519 -1.07,14.008 -3.3,19.308 -2.16,5.379 -5.2,9.532 -9.11,12.461 -3.89,2.84 -8.17,4.309 -12.91,4.309 -7.5,0 -13.83,-3.172 -18.99,-9.301 -5.16,-6.199 -7.73,-15.25 -7.73,-27.2577 0,-11.3125 2.57,-20.1016 7.65,-26.3008 5.16,-6.3086 11.52,-9.4805 19.07,-9.4805 4.51,0 8.73,1.3711 12.59,4.1484 3.8,2.7422 6.9,6.8399 9.24,12.2735 2.35,5.5273 3.49,12.0976 3.49,19.8401 z m -53.31,41.379 v -3.422 c 5.11,6.551 10.4,11.453 15.9,14.48 5.54,3.11 11.82,4.672 18.8,4.672 8.35,0 16.06,-2.262 23.11,-6.769 7.03,-4.524 12.58,-11.071 16.69,-19.77 4.09,-8.684 6.09,-18.922 6.09,-30.781 0,-8.7112 -1.14,-16.8401 -3.5,-24.0393 -2.35,-7.332 -5.6,-13.5117 -9.71,-18.4531 -4.12,-4.9492 -9.02,-8.7891 -14.59,-11.4297 -5.64,-2.707 -11.69,-4.0195 -18.09,-4.0195 -7.81,0 -14.34,1.6211 -19.62,4.8789 -5.32,3.25 -10.32,8.0117 -15.08,14.332 V 18.7188 C 1298.68,6.21875 1294.32,0 1285.62,0 c -5.11,0 -8.53,1.58984 -10.14,4.78906 -1.68,3.25 -2.5,7.94924 -2.5,14.11324 V 141.449 c 0,5.403 1.09,9.461 3.38,12.11 2.29,2.652 5.37,4.023 9.26,4.023 3.86,0 7,-1.371 9.41,-4.141 2.42,-2.761 3.65,-6.699 3.65,-11.8"
         style="fill:#100f0d;fill-opacity:1;fill-rule:nonzero;stroke:none"
         transform="matrix(0.13333333,0,0,-0.13333333,0,811.33333)" />
      <path
         id="path3"
         d="M 1471.82,58.1602 V 61.75 c -3.28,-4.2891 -6.69,-7.8711 -10.29,-10.7695 -3.59,-2.961 -7.5,-5.1094 -11.74,-6.5117 -4.29,-1.4102 -9.13,-2.1407 -14.58,-2.1407 -6.53,0 -12.43,1.4414 -17.66,4.25 -5.23,2.8321 -9.27,6.7735 -12.09,11.7539 -3.44,6.0274 -5.09,14.7071 -5.09,25.9688 V 140.57 c 0,5.641 1.23,9.922 3.69,12.711 2.46,2.797 5.7,4.219 9.74,4.219 4.13,0 7.44,-1.422 9.97,-4.289 2.53,-2.852 3.78,-7.082 3.78,-12.641 V 95.0898 c 0,-6.539 0.52,-12.0781 1.56,-16.5195 1.11,-4.4922 3.01,-7.9805 5.8,-10.5508 2.7,-2.4882 6.45,-3.7578 11.16,-3.7578 4.64,0 8.94,1.4297 12.96,4.2578 4.09,2.8203 7.05,6.5196 8.89,11.1016 1.53,4.0195 2.29,12.8203 2.29,26.3989 v 34.55 c 0,5.559 1.26,9.789 3.81,12.641 2.5,2.867 5.75,4.289 9.83,4.289 4.06,0 7.3,-1.422 9.76,-4.219 2.43,-2.789 3.64,-7.07 3.64,-12.711 V 58.332 c 0,-5.4023 -1.13,-9.4726 -3.49,-12.1523 -2.33,-2.7305 -5.37,-4.0508 -9.11,-4.0508 -3.7,0 -6.76,1.4297 -9.21,4.1719 -2.41,2.8476 -3.62,6.7383 -3.62,11.8594"
         style="fill:#100f0d;fill-opacity:1;fill-rule:nonzero;stroke:none"
         transform="matrix(0.13333333,0,0,-0.13333333,0,811.33333)" />
      <path
         id="path4"
         d="m 1550.72,99.1406 c 0,-11.289 2.45,-19.9297 7.38,-26.0312 4.97,-6.0274 11.47,-9.1094 19.52,-9.1094 6.85,0 12.71,3.1289 17.69,9.3203 4.98,6.2188 7.45,15.0586 7.45,26.6485 0,7.5702 -1.04,13.9722 -3.1,19.3712 -2.08,5.43 -5.02,9.609 -8.77,12.531 -3.84,2.938 -8.2,4.469 -13.27,4.469 -5.23,0 -9.77,-1.531 -13.85,-4.469 -4.08,-2.922 -7.24,-7.199 -9.59,-12.801 -2.32,-5.539 -3.46,-12.16 -3.46,-19.9294 z m -1.29,84.3794 v -43.379 c 5.05,5.589 10.3,9.789 15.6,12.808 5.32,2.93 11.92,4.422 19.74,4.422 9.05,0 16.95,-2.262 23.77,-6.691 6.79,-4.551 12.1,-10.981 15.84,-19.481 3.79,-8.48 5.64,-18.547 5.64,-30.187 0,-8.6214 -1.03,-16.4925 -3.11,-23.7229 -2.1,-7.1289 -5.11,-13.3282 -9.11,-18.6602 -4.03,-5.2305 -8.86,-9.2695 -14.51,-12.2383 -5.71,-2.832 -11.97,-4.2812 -18.81,-4.2812 -4.14,0 -8.12,0.5312 -11.82,1.539 -3.68,1.0625 -6.85,2.4102 -9.37,4.1602 -2.64,1.6016 -4.84,3.4219 -6.68,5.1836 -1.81,1.8281 -4.2,4.5078 -7.18,8.1094 V 58.332 c 0,-5.3632 -1.26,-9.3906 -3.72,-12.1523 -2.43,-2.7305 -5.6,-4.0703 -9.35,-4.0703 -3.87,0 -6.93,1.3398 -9.25,4.0703 -2.27,2.8086 -3.41,6.8125 -3.41,12.1523 v 123.957 c 0,5.723 1.1,10.07 3.36,13.012 2.21,2.961 5.29,4.429 9.3,4.429 4.17,0 7.4,-1.398 9.63,-4.23 2.29,-2.789 3.44,-6.762 3.44,-11.98"
         style="fill:#100f0d;fill-opacity:1;fill-rule:nonzero;stroke:none"
         transform="matrix(0.13333333,0,0,-0.13333333,0,811.33333)" />
      <path
         id="path5"
         d="M 1649.22,59.3789 V 182.469 c 0,5.711 1.2,9.98 3.6,12.91 2.47,2.883 5.72,4.351 9.84,4.351 4.12,0 7.42,-1.421 9.96,-4.308 2.49,-2.863 3.8,-7.223 3.8,-12.953 V 59.3789 c 0,-5.7578 -1.31,-10.0898 -3.86,-12.9883 -2.54,-2.832 -5.86,-4.2812 -9.9,-4.2812 -3.99,0 -7.19,1.4922 -9.7,4.4687 -2.49,2.9922 -3.74,7.2422 -3.74,12.8008"
         style="fill:#100f0d;fill-opacity:1;fill-rule:nonzero;stroke:none"
         transform="matrix(0.13333333,0,0,-0.13333333,0,811.33333)" />
      <path
         id="path6"
         d="M 1731.69,141.379 V 59.3789 c 0,-5.7187 -1.33,-10.0195 -3.85,-12.9297 -2.62,-2.8476 -5.93,-4.3398 -9.88,-4.3398 -4,0 -7.24,1.4922 -9.72,4.4414 -2.46,3.0195 -3.75,7.2695 -3.75,12.8281 V 140.57 c 0,5.559 1.29,9.789 3.75,12.641 2.48,2.867 5.72,4.289 9.72,4.289 3.95,0 7.26,-1.422 9.88,-4.289 2.52,-2.852 3.85,-6.77 3.85,-11.832 z m -13.45,29.34 c -3.79,0 -7,1.211 -9.75,3.699 -2.62,2.422 -4,5.871 -4,10.332 0,3.988 1.38,7.27 4.15,9.922 2.75,2.598 5.94,3.828 9.6,3.828 3.51,0 6.65,-1.148 9.37,-3.488 2.71,-2.352 4.08,-5.821 4.08,-10.262 0,-4.422 -1.34,-7.832 -4,-10.25 -2.66,-2.461 -5.78,-3.781 -9.45,-3.781"
         style="fill:#100f0d;fill-opacity:1;fill-rule:nonzero;stroke:none"
         transform="matrix(0.13333333,0,0,-0.13333333,0,811.33333)" />
      <path
         id="path7"
         d="m 1857.21,77.2617 c 0,-3.5234 -0.99,-7.3203 -3.01,-11.3398 -2.06,-4.0235 -5.14,-7.8203 -9.3,-11.4805 -4.13,-3.6211 -9.36,-6.5508 -15.68,-8.75 -6.3,-2.2695 -13.42,-3.3633 -21.3,-3.3633 -16.83,0 -29.93,5.1328 -39.38,15.3438 -9.4,10.2187 -14.13,23.8867 -14.13,41.0976 0,11.6405 2.15,21.9605 6.44,30.8785 4.32,8.883 10.61,15.864 18.75,20.711 8.15,4.922 17.95,7.36 29.27,7.36 7.06,0 13.53,-1.098 19.42,-3.219 5.87,-2.172 10.85,-4.949 14.93,-8.309 4.08,-3.41 7.2,-7.043 9.37,-10.863 2.18,-3.84 3.23,-7.437 3.23,-10.769 0,-3.348 -1.24,-6.227 -3.63,-8.598 -2.45,-2.391 -5.35,-3.551 -8.81,-3.551 -2.29,0 -4.14,0.66 -5.67,1.871 -1.45,1.168 -3.14,3.071 -5.02,5.84 -3.3,5.238 -6.8,9.231 -10.4,11.91 -3.63,2.61 -8.23,3.961 -13.76,3.961 -8.09,0 -14.57,-3.332 -19.47,-9.883 -4.92,-6.578 -7.35,-15.527 -7.35,-26.8981 0,-5.3007 0.63,-10.2695 1.9,-14.7109 1.25,-4.4883 3.07,-8.2891 5.45,-11.4609 2.4,-3.1602 5.27,-5.5274 8.67,-7.1602 3.38,-1.6601 7.11,-2.4492 11.14,-2.4492 5.48,0 10.12,1.2891 14.02,3.9219 3.89,2.6679 7.33,6.6875 10.31,12.0273 1.66,3.2813 3.45,5.75 5.38,7.5703 1.95,1.8125 4.32,2.6719 7.09,2.6719 3.32,0 6.07,-1.2813 8.29,-3.9219 2.15,-2.6875 3.25,-5.4687 3.25,-8.4375"
         style="fill:#100f0d;fill-opacity:1;fill-rule:nonzero;stroke:none"
         transform="matrix(0.13333333,0,0,-0.13333333,0,811.33333)" />
      <path
         id="path8"
         d="m 1902.02,99.9688 c 0,-7.6993 1.14,-14.1993 3.42,-19.6407 2.31,-5.4179 5.4,-9.4375 9.38,-12.1797 4.02,-2.7773 8.37,-4.1484 13.05,-4.1484 4.79,0 9.15,1.3281 13.1,3.8906 3.97,2.6211 7.09,6.6289 9.48,11.9883 2.36,5.3516 3.53,12.082 3.53,20.0899 0,7.6132 -1.17,14.0622 -3.53,19.5312 -2.39,5.449 -5.56,9.602 -9.56,12.531 -4.03,2.84 -8.41,4.309 -13.19,4.309 -4.97,0 -9.41,-1.531 -13.34,-4.469 -3.9,-2.922 -6.97,-7.191 -9.12,-12.699 -2.14,-5.531 -3.22,-11.871 -3.22,-19.2032 z m 53.45,-41.6368 v 2.7696 c -3.65,-4.3594 -7.25,-7.9102 -10.85,-10.6016 -3.49,-2.7812 -7.37,-4.8516 -11.52,-6.2695 -4.14,-1.3907 -8.67,-2.1211 -13.57,-2.1211 -6.5,0 -12.57,1.4492 -18.09,4.2812 -5.53,2.9688 -10.33,7.0313 -14.38,12.3594 -4.04,5.3398 -7.12,11.6094 -9.23,18.8516 -2.12,7.1679 -3.14,14.9804 -3.14,23.4104 0,17.687 4.16,31.59 12.46,41.5 8.33,9.91 19.23,14.859 32.76,14.859 7.83,0 14.46,-1.422 19.83,-4.281 5.36,-2.77 10.63,-7.078 15.73,-12.949 v 41.91 c 0,5.84 1.1,10.23 3.34,13.199 2.22,3 5.36,4.48 9.5,4.48 4.11,0 7.28,-1.378 9.53,-4.089 2.2,-2.719 3.36,-6.77 3.36,-12.121 V 58.332 c 0,-5.4023 -1.21,-9.4726 -3.62,-12.1523 -2.4,-2.7305 -5.46,-4.0703 -9.27,-4.0703 -3.68,0 -6.8,1.4023 -9.23,4.1914 -2.4,2.8008 -3.61,6.7812 -3.61,12.0312"
         style="fill:#100f0d;fill-opacity:1;fill-rule:nonzero;stroke:none"
         transform="matrix(0.13333333,0,0,-0.13333333,0,811.33333)" />
      <path
         id="path9"
         d="m 2083,99.75 c 0,11.531 -2.48,20.57 -7.33,27.02 -4.89,6.398 -11.47,9.66 -19.68,9.66 -5.35,0 -10,-1.45 -14.06,-4.321 -4.04,-2.918 -7.16,-7.16 -9.36,-12.769 -2.17,-5.559 -3.29,-12.07 -3.29,-19.59 0,-7.4414 1.12,-13.8906 3.23,-19.4219 2.15,-5.5468 5.26,-9.789 9.3,-12.7383 4,-2.9414 8.77,-4.3906 14.18,-4.3906 8.21,0 14.79,3.2227 19.68,9.6914 4.85,6.461 7.33,15.4492 7.33,26.8594 z m 27.29,0 c 0,-8.4102 -1.28,-16.2187 -3.79,-23.3984 -2.53,-7.0821 -6.17,-13.2422 -10.93,-18.3828 -4.82,-5.1407 -10.53,-8.9805 -17.16,-11.7891 -6.63,-2.7305 -14.16,-4.0703 -22.42,-4.0703 -8.22,0 -15.64,1.3398 -22.2,4.1523 -6.58,2.7578 -12.3,6.7305 -17.12,11.8985 -4.79,5.1796 -8.43,11.2304 -10.95,18.2695 -2.49,7.082 -3.72,14.8086 -3.72,23.3594 0,8.6019 1.27,16.4609 3.77,23.5699 2.52,7.18 6.12,13.231 10.85,18.332 4.72,5.051 10.42,8.938 17.17,11.68 6.73,2.738 14.09,4.129 22.2,4.129 8.24,0 15.72,-1.391 22.42,-4.168 6.69,-2.762 12.43,-6.762 17.21,-11.883 4.81,-5.109 8.44,-11.258 10.88,-18.328 2.55,-7.051 3.79,-14.851 3.79,-23.371"
         style="fill:#100f0d;fill-opacity:1;fill-rule:nonzero;stroke:none"
         transform="matrix(0.13333333,0,0,-0.13333333,0,811.33333)" />
      <path
         id="path10"
         d="m 2225.14,123.191 c -2.04,-4.793 -3.01,-13.261 -3.01,-25.4605 v -37.711 c 0,-5.9414 -1.27,-10.4492 -3.89,-13.4414 -2.58,-2.9765 -6.04,-4.4687 -10.28,-4.4687 -4.08,0 -7.41,1.4922 -9.95,4.4687 -2.57,2.9922 -3.82,7.5 -3.82,13.4414 v 45.2695 c 0,7.121 -0.26,12.652 -0.73,16.652 -0.48,3.911 -1.72,7.168 -3.79,9.707 -2.01,2.551 -5.29,3.813 -9.72,3.813 -8.9,0 -14.74,-3.191 -17.59,-9.609 -2.85,-6.352 -4.19,-15.512 -4.19,-27.4536 V 60.0195 c 0,-5.9297 -1.31,-10.3906 -3.84,-13.3398 -2.58,-3.0781 -5.95,-4.5703 -10.09,-4.5703 -4.15,0 -7.56,1.4922 -10.16,4.5703 -2.64,2.9492 -3.89,7.4101 -3.89,13.332 v 81.2073 c 0,5.351 1.12,9.41 3.46,12.179 2.39,2.75 5.49,4.184 9.37,4.184 3.71,0 6.83,-1.293 9.29,-3.902 2.49,-2.59 3.73,-6.16 3.73,-10.75 v -2.7 c 4.71,5.899 9.77,10.25 15.13,12.981 5.37,2.781 11.41,4.16 17.94,4.16 6.82,0 12.67,-1.422 17.59,-4.281 4.94,-2.82 8.96,-7.121 12.13,-12.86 4.6,5.782 9.51,10.129 14.77,12.93 5.26,2.832 11.05,4.211 17.41,4.211 7.49,0 13.88,-1.492 19.22,-4.59 5.4,-3.039 9.4,-7.402 12.07,-13.082 2.34,-5.14 3.48,-13.211 3.48,-24.25 V 60.0195 c 0,-5.9414 -1.29,-10.4492 -3.84,-13.4414 -2.64,-2.9765 -6.03,-4.4687 -10.28,-4.4687 -4.14,0 -7.49,1.4922 -10.1,4.5703 -2.66,2.9492 -3.97,7.4101 -3.97,13.3398 v 47.7615 c 0,6.11 -0.25,10.981 -0.73,14.66 -0.51,3.707 -1.86,6.75 -4.07,9.258 -2.17,2.5 -5.51,3.762 -9.92,3.762 -3.59,0 -7.01,-1.121 -10.18,-3.289 -3.28,-2.25 -5.72,-5.231 -7.55,-8.981 v 0"
         style="fill:#100f0d;fill-opacity:1;fill-rule:nonzero;stroke:none"
         transform="matrix(0.13333333,0,0,-0.13333333,0,811.33333)" />
      <path
         id="path11"
         d="m 2379.16,99.2109 c -4.01,-1.5586 -9.8,-3.1328 -17.41,-4.8593 -7.61,-1.6914 -12.87,-2.9297 -15.8,-3.75 -2.93,-0.8203 -5.72,-2.3633 -8.34,-4.6524 -2.68,-2.3984 -4.03,-5.6211 -4.03,-9.7773 0,-4.3321 1.59,-7.961 4.68,-10.9805 3.14,-3.0625 7.23,-4.543 12.28,-4.543 5.37,0 10.37,1.25 14.89,3.711 4.56,2.4492 7.92,5.6601 10.01,9.5117 2.47,4.3086 3.72,11.3594 3.72,21.3008 z m 1.77,-41.1093 c -6.59,-5.3633 -12.95,-9.3321 -19.08,-11.9727 -6.13,-2.707 -13.06,-4.0195 -20.65,-4.0195 -7.03,0 -13.09,1.4492 -18.41,4.2812 -5.32,2.8985 -9.35,6.8008 -12.22,11.7696 -2.82,4.9218 -4.29,10.1992 -4.29,15.9882 0,7.7618 2.42,14.3633 7.12,19.8399 4.68,5.4531 11.15,9.1327 19.38,11.0237 1.73,0.418 6.04,1.32 12.84,2.769 6.91,1.5 12.71,2.801 17.67,4.008 4.83,1.191 10.16,2.672 15.87,4.391 -0.35,7.519 -1.79,13.011 -4.33,16.582 -2.59,3.468 -7.92,5.179 -15.91,5.179 -6.94,0 -12.11,-0.98 -15.64,-2.992 -3.47,-1.98 -6.48,-5.027 -8.93,-9.097 -2.52,-4 -4.24,-6.661 -5.28,-7.922 -1.06,-1.321 -3.27,-1.899 -6.6,-1.899 -3.1,0 -5.73,1.008 -7.92,3.028 -2.26,2.062 -3.36,4.64 -3.36,7.882 0,4.969 1.69,9.868 5.06,14.508 3.39,4.742 8.69,8.61 15.84,11.711 7.17,3.051 16.13,4.559 26.83,4.559 11.92,0 21.34,-1.508 28.22,-4.438 6.82,-2.922 11.61,-7.551 14.46,-13.972 2.84,-6.34 4.23,-14.84 4.23,-25.368 0,-6.64 0,-12.332 -0.03,-16.941 -0.06,-4.6914 -0.09,-9.8281 -0.15,-15.5195 0,-5.3086 0.84,-10.8907 2.55,-16.6602 1.65,-5.789 2.5,-9.5312 2.5,-11.1601 0,-2.9219 -1.33,-5.5782 -3.94,-7.9688 -2.57,-2.3828 -5.57,-3.582 -8.87,-3.582 -2.84,0 -5.53,1.3398 -8.3,4.0703 -2.71,2.7617 -5.6,6.75 -8.66,11.9219"
         style="fill:#100f0d;fill-opacity:1;fill-rule:nonzero;stroke:none"
         transform="matrix(0.13333333,0,0,-0.13333333,0,811.33333)" />
      <path
         id="path12"
         d="M 2460.66,141.379 V 59.3789 c 0,-5.7187 -1.3,-10.0195 -3.85,-12.9297 -2.6,-2.8476 -5.86,-4.3398 -9.86,-4.3398 -3.97,0 -7.25,1.4922 -9.71,4.4414 -2.52,3.0195 -3.77,7.2695 -3.77,12.8281 V 140.57 c 0,5.559 1.25,9.789 3.77,12.641 2.46,2.867 5.74,4.289 9.71,4.289 4,0 7.26,-1.422 9.86,-4.289 2.55,-2.852 3.85,-6.77 3.85,-11.832 z m -13.44,29.34 c -3.75,0 -6.97,1.211 -9.67,3.699 -2.69,2.422 -4.08,5.871 -4.08,10.332 0,3.988 1.41,7.27 4.17,9.922 2.73,2.598 5.97,3.828 9.58,3.828 3.53,0 6.69,-1.148 9.42,-3.488 2.68,-2.352 4.02,-5.821 4.02,-10.262 0,-4.422 -1.3,-7.832 -3.98,-10.25 -2.65,-2.461 -5.81,-3.781 -9.46,-3.781"
         style="fill:#100f0d;fill-opacity:1;fill-rule:nonzero;stroke:none"
         transform="matrix(0.13333333,0,0,-0.13333333,0,811.33333)" />
      <path
         id="path13"
         d="m 2513.51,141.789 v -3.391 c 4.76,6.563 9.98,11.391 15.62,14.473 5.69,3.078 12.22,4.629 19.62,4.629 7.13,0 13.58,-1.621 19.26,-4.91 5.59,-3.238 9.84,-7.82 12.59,-13.758 1.82,-3.504 2.94,-7.281 3.52,-11.281 0.48,-3.981 0.8,-9.11 0.8,-15.371 V 59.3789 c 0,-5.7187 -1.29,-10.0195 -3.76,-12.9297 -2.5,-2.8476 -5.74,-4.3398 -9.71,-4.3398 -4.04,0 -7.35,1.4922 -9.78,4.4687 -2.55,2.9922 -3.85,7.2422 -3.85,12.8008 v 47.2691 c 0,9.403 -1.21,16.543 -3.69,21.481 -2.54,4.961 -7.52,7.473 -14.96,7.473 -4.84,0 -9.25,-1.532 -13.22,-4.563 -3.98,-2.969 -6.91,-7.129 -8.76,-12.418 -1.33,-4.23 -2.03,-12.09 -2.03,-23.7421 v -35.5 c 0,-5.7578 -1.25,-10.0898 -3.82,-12.9883 -2.57,-2.832 -5.87,-4.2812 -9.9,-4.2812 -3.9,0 -7.14,1.4922 -9.65,4.4414 -2.57,3.0195 -3.81,7.2695 -3.81,12.8281 v 82.0001 c 0,5.43 1.12,9.422 3.41,12.101 2.21,2.668 5.37,4.02 9.27,4.02 2.35,0 4.54,-0.641 6.43,-1.77 1.99,-1.16 3.48,-2.992 4.65,-5.25 1.12,-2.41 1.77,-5.289 1.77,-8.691"
         style="fill:#100f0d;fill-opacity:1;fill-rule:nonzero;stroke:none"
         transform="matrix(0.13333333,0,0,-0.13333333,0,811.33333)" />
      <path
         id="path14"
         d="m 2628.56,139.828 21.96,-64.4374 23.72,67.2614 c 1.89,5.418 3.7,9.2 5.52,11.457 1.83,2.25 4.5,3.391 8.14,3.391 3.45,0 6.38,-1.211 8.86,-3.68 2.38,-2.398 3.6,-5.172 3.6,-8.441 0,-1.219 -0.24,-2.66 -0.67,-4.277 -0.39,-1.704 -0.89,-3.262 -1.48,-4.75 -0.57,-1.403 -1.15,-3.09 -1.95,-4.942 l -26.08,-67.5702 c -0.73,-1.9414 -1.7,-4.4296 -2.83,-7.4101 -1.18,-2.9688 -2.5,-5.4609 -3.89,-7.6602 -1.46,-2.0898 -3.2,-3.6875 -5.27,-4.8789 -2.13,-1.1914 -4.68,-1.7812 -7.67,-1.7812 -3.85,0 -6.9,0.9101 -9.23,2.7109 -2.28,1.8594 -3.98,3.8399 -5.06,6.0781 -1.08,2.1407 -2.96,6.4805 -5.52,12.9414 l -25.93,66.8282 c -0.6,1.633 -1.24,3.312 -1.88,4.98 -0.6,1.661 -1.09,3.321 -1.56,5.09 -0.42,1.774 -0.66,3.25 -0.66,4.453 0,1.981 0.57,3.887 1.72,5.801 1.13,1.918 2.69,3.488 4.68,4.668 2.02,1.199 4.13,1.84 6.5,1.84 4.47,0 7.59,-1.352 9.3,-4.102 1.7,-2.679 3.6,-7.207 5.68,-13.57"
         style="fill:#100f0d;fill-opacity:1;fill-rule:nonzero;stroke:none"
         transform="matrix(0.13333333,0,0,-0.13333333,0,811.33333)" />
      <path
         id="path15"
         d="m 2739.79,109.012 h 49.29 c -0.63,9.668 -3.12,16.929 -7.5,21.718 -4.37,4.801 -10.1,7.211 -17.22,7.211 -6.73,0 -12.31,-2.441 -16.64,-7.312 -4.35,-4.859 -6.95,-12.09 -7.93,-21.617 z m 53.2,-16.1526 h -53.2 c 0.01,-6.4571 1.31,-12.1406 3.69,-17.0977 2.46,-4.8711 5.67,-8.5898 9.7,-11.1133 4,-2.5195 8.46,-3.7187 13.31,-3.7187 3.24,0 6.25,0.3906 8.9,1.1601 2.67,0.8399 5.31,2.0821 7.86,3.75 2.48,1.711 4.78,3.4805 6.93,5.5 2.1,1.9297 4.93,4.5196 8.27,7.8711 1.41,1.3086 3.42,1.8907 5.97,1.8907 2.84,0 5.07,-0.7735 6.81,-2.4102 1.72,-1.5898 2.53,-3.8203 2.53,-6.7305 0,-2.5703 -0.93,-5.5586 -2.88,-9.0312 -1.9,-3.3789 -4.75,-6.6992 -8.71,-9.8906 -3.89,-3.1289 -8.77,-5.6993 -14.65,-7.8399 -5.85,-2.0703 -12.57,-3.0898 -20.28,-3.0898 -17.43,0 -31.03,5.2304 -40.69,15.582 -9.69,10.4375 -14.51,24.5078 -14.51,42.2774 0,8.5002 1.23,16.2112 3.56,23.3712 2.39,7.199 5.86,13.332 10.46,18.449 4.59,5.152 10.19,9.121 16.92,11.813 6.74,2.757 14.14,4.117 22.35,4.117 10.54,0 19.69,-2.328 27.29,-7.039 7.63,-4.668 13.31,-10.68 17.09,-18.078 3.79,-7.461 5.69,-14.981 5.69,-22.743 0,-7.078 -1.91,-11.7106 -5.86,-13.8082 -3.96,-2.1406 -9.44,-3.1914 -16.55,-3.1914"
         style="fill:#100f0d;fill-opacity:1;fill-rule:nonzero;stroke:none"
         transform="matrix(0.13333333,0,0,-0.13333333,0,811.33333)" />
      <path
         id="path16"
         d="m 2935.87,77.2617 c 0,-3.5234 -1,-7.3203 -3.07,-11.3398 -2.03,-4.0235 -5.06,-7.8203 -9.25,-11.4805 -4.13,-3.6211 -9.4,-6.5508 -15.73,-8.75 -6.27,-2.2695 -13.42,-3.3633 -21.25,-3.3633 -16.87,0 -29.97,5.1328 -39.39,15.3438 -9.4,10.2187 -14.15,23.8867 -14.15,41.0976 0,11.6405 2.14,21.9605 6.5,30.8785 4.32,8.883 10.5,15.864 18.71,20.711 8.13,4.922 17.93,7.36 29.3,7.36 7.04,0 13.47,-1.098 19.4,-3.219 5.86,-2.172 10.8,-4.949 14.94,-8.309 4.08,-3.41 7.17,-7.043 9.36,-10.863 2.13,-3.84 3.21,-7.437 3.21,-10.769 0,-3.348 -1.18,-6.227 -3.68,-8.598 -2.4,-2.391 -5.33,-3.551 -8.78,-3.551 -2.26,0 -4.13,0.66 -5.6,1.871 -1.52,1.168 -3.18,3.071 -5.07,5.84 -3.32,5.238 -6.76,9.231 -10.39,11.91 -3.62,2.61 -8.22,3.961 -13.82,3.961 -7.98,0 -14.48,-3.332 -19.39,-9.883 -4.96,-6.578 -7.4,-15.527 -7.4,-26.8981 0,-5.3007 0.67,-10.2695 1.88,-14.7109 1.27,-4.4883 3.12,-8.2891 5.52,-11.4609 2.38,-3.1602 5.29,-5.5274 8.67,-7.1602 3.33,-1.6601 7.07,-2.4492 11.15,-2.4492 5.43,0 10.12,1.2891 14.01,3.9219 3.87,2.6679 7.33,6.6875 10.32,12.0273 1.67,3.2813 3.43,5.75 5.38,7.5703 1.91,1.8125 4.23,2.6719 7.07,2.6719 3.27,0 6.08,-1.2813 8.18,-3.9219 2.25,-2.6875 3.37,-5.4687 3.37,-8.4375"
         style="fill:#100f0d;fill-opacity:1;fill-rule:nonzero;stroke:none"
         transform="matrix(0.13333333,0,0,-0.13333333,0,811.33333)" />
      <path
         id="path17"
         d="m 2961.13,155.109 h 2.99 v 17.063 c 0,4.539 0.12,8.156 0.37,10.75 0.22,2.609 0.82,4.777 1.94,6.699 1.03,1.899 2.56,3.488 4.59,4.731 1.97,1.187 4.19,1.757 6.65,1.757 3.44,0 6.57,-1.328 9.35,-4.007 1.81,-1.832 3.02,-4 3.52,-6.571 0.51,-2.609 0.73,-6.351 0.73,-11.113 v -19.309 h 10 c 3.85,0 6.8,-0.968 8.82,-2.867 2.06,-1.922 3.05,-4.332 3.05,-7.32 0,-3.82 -1.44,-6.524 -4.37,-8.024 -2.87,-1.488 -7.01,-2.257 -12.38,-2.257 h -5.12 V 82.3594 c 0,-4.4492 0.17,-7.8711 0.45,-10.2891 0.36,-2.3984 1.2,-4.3515 2.45,-5.789 1.26,-1.5118 3.37,-2.2813 6.32,-2.2813 1.59,0 3.73,0.2813 6.49,0.8984 2.65,0.5821 4.79,0.8829 6.35,0.8829 2.17,0 4.21,-0.961 5.94,-2.6993 1.72,-1.9023 2.63,-4.1328 2.63,-6.8515 0,-4.5508 -2.34,-8.0625 -7.16,-10.4922 -4.83,-2.4297 -11.69,-3.6289 -20.61,-3.6289 -8.51,0 -14.97,1.4922 -19.36,4.4687 -4.35,2.9922 -7.27,7.0821 -8.58,12.4102 -1.4,5.2734 -2.07,12.3008 -2.07,21.1015 v 54.5512 h -3.62 c -3.84,0 -6.84,0.961 -8.92,2.918 -2.07,1.929 -3.08,4.359 -3.08,7.363 0,2.988 1.06,5.398 3.19,7.32 2.19,1.899 5.31,2.867 9.44,2.867"
         style="fill:#100f0d;fill-opacity:1;fill-rule:nonzero;stroke:none"
         transform="matrix(0.13333333,0,0,-0.13333333,0,811.33333)" />
      <path
         id="path18"
         d="m 3106.32,99.75 c 0,11.531 -2.46,20.57 -7.31,27.02 -4.93,6.398 -11.43,9.66 -19.69,9.66 -5.33,0 -10,-1.45 -14.02,-4.321 -4.08,-2.918 -7.2,-7.16 -9.38,-12.769 -2.18,-5.559 -3.31,-12.07 -3.31,-19.59 0,-7.4414 1.13,-13.8906 3.27,-19.4219 2.15,-5.5468 5.22,-9.789 9.23,-12.7383 4.01,-2.9414 8.75,-4.3906 14.21,-4.3906 8.26,0 14.76,3.2227 19.69,9.6914 4.85,6.461 7.31,15.4492 7.31,26.8594 z m 27.31,0 c 0,-8.4102 -1.25,-16.2187 -3.82,-23.3984 -2.5,-7.0821 -6.17,-13.2422 -10.93,-18.3828 -4.79,-5.1407 -10.52,-8.9805 -17.13,-11.7891 -6.67,-2.7305 -14.09,-4.0703 -22.43,-4.0703 -8.27,0 -15.68,1.3398 -22.23,4.1523 -6.56,2.7578 -12.28,6.7305 -17.09,11.8985 -4.79,5.1796 -8.45,11.2304 -10.9,18.2695 -2.48,7.082 -3.7,14.8086 -3.7,23.3594 0,8.6019 1.22,16.4609 3.7,23.5699 2.57,7.18 6.15,13.231 10.86,18.332 4.75,5.051 10.45,8.938 17.13,11.68 6.78,2.738 14.16,4.129 22.23,4.129 8.26,0 15.69,-1.391 22.43,-4.168 6.7,-2.762 12.42,-6.762 17.22,-11.883 4.73,-5.109 8.44,-11.258 10.92,-18.328 2.49,-7.051 3.74,-14.851 3.74,-23.371"
         style="fill:#100f0d;fill-opacity:1;fill-rule:nonzero;stroke:none"
         transform="matrix(0.13333333,0,0,-0.13333333,0,811.33333)" />
      <path
         id="path19"
         d="M 3182.08,83.0117 V 59.3789 c 0,-5.7578 -1.31,-10.0898 -3.91,-12.9883 -2.6,-2.832 -5.87,-4.2812 -9.89,-4.2812 -3.87,0 -7.12,1.4922 -9.63,4.3398 -2.52,2.9102 -3.76,7.211 -3.76,12.9297 v 79.0001 c 0,12.762 4.39,19.121 13.23,19.121 4.47,0 7.74,-1.508 9.78,-4.461 1.95,-2.98 3,-7.398 3.27,-13.211 3.23,5.813 6.61,10.231 10.04,13.211 3.41,2.953 7.96,4.461 13.64,4.461 5.76,0 11.28,-1.508 16.68,-4.461 5.35,-2.98 8.07,-6.961 8.07,-11.859 0,-3.461 -1.18,-6.371 -3.46,-8.578 -2.27,-2.243 -4.75,-3.411 -7.44,-3.411 -0.98,0 -3.4,0.661 -7.21,1.969 -3.85,1.262 -7.22,1.93 -10.16,1.93 -3.93,0 -7.18,-1.059 -9.68,-3.301 -2.54,-2.207 -4.52,-5.41 -5.9,-9.687 -1.4,-4.352 -2.41,-9.442 -2.9,-15.391 -0.51,-5.8907 -0.77,-13.1016 -0.77,-21.6993"
         style="fill:#100f0d;fill-opacity:1;fill-rule:nonzero;stroke:none"
         transform="matrix(0.13333333,0,0,-0.13333333,0,811.33333)" />
      <path
         id="path20"
         d="m 3326.93,79.1914 c 0,-7.8516 -1.83,-14.543 -5.52,-20.1328 -3.67,-5.5977 -9.05,-9.7695 -16.2,-12.6797 -7.17,-2.8203 -15.82,-4.2695 -26.1,-4.2695 -9.68,0 -18.1,1.539 -25.09,4.6992 -6.97,3.1016 -12.13,6.9805 -15.42,11.6523 -3.36,4.6485 -5.07,9.3477 -5.07,14.0508 0,3.1094 1.09,5.7891 3.27,8.0078 2.11,2.2618 4.82,3.3203 8.03,3.3203 2.87,0 5.1,-0.7382 6.61,-2.1484 1.52,-1.5391 2.95,-3.5508 4.39,-6.1797 2.78,-5.0703 6.1,-8.8515 10.04,-11.3398 3.82,-2.5313 9.13,-3.7735 15.89,-3.7735 5.42,0 9.9,1.293 13.39,3.8204 3.47,2.5312 5.27,5.4101 5.27,8.6718 0,5.0196 -1.84,8.668 -5.43,10.9414 -3.68,2.3282 -9.6,4.5078 -17.91,6.5664 -9.35,2.4297 -17,4.9805 -22.89,7.6329 -5.86,2.6797 -10.62,6.2307 -14.11,10.5897 -3.52,4.301 -5.31,9.711 -5.31,16.09 0,5.719 1.64,11.078 4.9,16.121 3.24,5.066 8.11,9.09 14.43,12.117 6.32,3.043 13.97,4.551 22.98,4.551 7.01,0 13.34,-0.781 18.98,-2.309 5.6,-1.511 10.34,-3.582 14.03,-6.113 3.75,-2.578 6.64,-5.418 8.59,-8.508 1.99,-3.16 2.96,-6.211 2.96,-9.16 0,-3.281 -1.03,-5.879 -3.17,-8.051 -2.1,-2 -5.1,-3.058 -8.89,-3.058 -2.82,0 -5.18,0.82 -7.18,2.519 -1.92,1.641 -4.19,4.121 -6.7,7.399 -2.06,2.793 -4.46,5.019 -7.29,6.679 -2.79,1.633 -6.57,2.5 -11.33,2.5 -4.93,0 -9.05,-1.078 -12.24,-3.289 -3.28,-2.168 -4.92,-4.91 -4.92,-8.16 0,-3 1.21,-5.429 3.56,-7.34 2.42,-1.91 5.63,-3.48 9.7,-4.738 4.08,-1.25 9.64,-2.801 16.75,-4.59 8.45,-2.14 15.32,-4.679 20.68,-7.691 5.34,-2.949 9.39,-6.4806 12.14,-10.5314 2.8,-4.0977 4.18,-8.707 4.18,-13.8672"
         style="fill:#100f0d;fill-opacity:1;fill-rule:nonzero;stroke:none"
         transform="matrix(0.13333333,0,0,-0.13333333,0,811.33333)" />
      <path
         id="path21"
         d="m 3357.81,42.1094 c -4.12,0 -7.69,1.3398 -10.64,4.1523 -3.03,2.7578 -4.51,6.668 -4.51,11.6094 0,4.2187 1.4,7.8594 4.23,10.9297 2.86,3.039 6.41,4.5195 10.6,4.5195 4.16,0 7.74,-1.4805 10.63,-4.5117 3,-2.9688 4.48,-6.6797 4.48,-10.9375 0,-4.9023 -1.48,-8.7695 -4.48,-11.5703 -2.89,-2.7891 -6.34,-4.1914 -10.31,-4.1914"
         style="fill:#100f0d;fill-opacity:1;fill-rule:nonzero;stroke:none"
         transform="matrix(0.13333333,0,0,-0.13333333,0,811.33333)" />
      <path
         id="path22"
         d="m 3478.06,99.75 c 0,11.531 -2.45,20.57 -7.33,27.02 -4.89,6.398 -11.42,9.66 -19.65,9.66 -5.32,0 -9.95,-1.45 -14.02,-4.321 -4.07,-2.918 -7.18,-7.16 -9.36,-12.769 -2.17,-5.559 -3.28,-12.07 -3.28,-19.59 0,-7.4414 1.04,-13.8906 3.19,-19.4219 2.23,-5.5468 5.28,-9.789 9.31,-12.7383 4,-2.9414 8.72,-4.3906 14.16,-4.3906 8.23,0 14.76,3.2227 19.65,9.6914 4.88,6.461 7.33,15.4492 7.33,26.8594 z m 27.33,0 c 0,-8.4102 -1.25,-16.2187 -3.81,-23.3984 -2.54,-7.0821 -6.16,-13.2422 -10.95,-18.3828 -4.82,-5.1407 -10.47,-8.9805 -17.13,-11.7891 -6.62,-2.7305 -14.09,-4.0703 -22.42,-4.0703 -8.22,0 -15.63,1.3398 -22.2,4.1523 -6.58,2.7578 -12.24,6.7305 -17.05,11.8985 -4.89,5.1796 -8.51,11.2304 -11.03,18.2695 -2.45,7.082 -3.7,14.8086 -3.7,23.3594 0,8.6019 1.25,16.4609 3.79,23.5699 2.57,7.18 6.14,13.231 10.82,18.332 4.72,5.051 10.44,8.938 17.17,11.68 6.7,2.738 14.05,4.129 22.2,4.129 8.23,0 15.7,-1.391 22.42,-4.168 6.74,-2.762 12.46,-6.762 17.26,-11.883 4.74,-5.109 8.38,-11.258 10.9,-18.328 2.48,-7.051 3.73,-14.851 3.73,-23.371"
         style="fill:#100f0d;fill-opacity:1;fill-rule:nonzero;stroke:none"
         transform="matrix(0.13333333,0,0,-0.13333333,0,811.33333)" />
      <path
         id="path23"
         d="M 3553.82,83.0117 V 59.3789 c 0,-5.7578 -1.3,-10.0898 -3.88,-12.9883 -2.55,-2.832 -5.88,-4.2812 -9.84,-4.2812 -3.96,0 -7.15,1.4922 -9.68,4.3398 -2.56,2.9102 -3.8,7.211 -3.8,12.9297 v 79.0001 c 0,12.762 4.47,19.121 13.26,19.121 4.52,0 7.75,-1.508 9.73,-4.461 1.97,-2.98 3.13,-7.398 3.36,-13.211 3.2,5.813 6.53,10.231 9.95,13.211 3.43,2.953 8,4.461 13.67,4.461 5.81,0 11.34,-1.508 16.67,-4.461 5.38,-2.98 8.09,-6.961 8.09,-11.859 0,-3.461 -1.15,-6.371 -3.43,-8.578 -2.31,-2.243 -4.74,-3.411 -7.47,-3.411 -0.95,0 -3.35,0.661 -7.16,1.969 -3.84,1.262 -7.21,1.93 -10.16,1.93 -3.96,0 -7.19,-1.059 -9.79,-3.301 -2.48,-2.207 -4.44,-5.41 -5.85,-9.687 -1.36,-4.352 -2.34,-9.442 -2.86,-15.391 -0.52,-5.8907 -0.81,-13.1016 -0.81,-21.6993"
         style="fill:#100f0d;fill-opacity:1;fill-rule:nonzero;stroke:none"
         transform="matrix(0.13333333,0,0,-0.13333333,0,811.33333)" />
      <path
         id="path24"
         d="m 3632.34,100.719 c 0,-11.4768 2.42,-20.1877 7.25,-26.1096 4.78,-5.8477 11.05,-8.8281 18.64,-8.8281 4.49,0 8.82,1.3085 12.81,3.8398 4.02,2.5273 7.29,6.3398 9.82,11.4297 2.56,5.1094 3.78,11.2578 3.78,18.539 0,11.5702 -2.46,20.5702 -7.33,26.9882 -4.86,6.512 -11.3,9.762 -19.26,9.762 -7.74,0 -13.98,-3.172 -18.65,-9.301 -4.71,-6.187 -7.06,-14.937 -7.06,-26.32 z m 78.84,36 V 54.25 c 0,-9.4687 -1.04,-17.5586 -2.92,-24.3203 -1.94,-6.8281 -5.01,-12.4414 -9.26,-16.8594 -4.25,-4.42967 -9.84,-7.71874 -16.67,-9.87108 C 3675.44,1.08984 3666.88,0 3656.67,0 c -9.39,0 -17.78,1.33203 -25.1,4.05859 -7.4,2.80079 -13.09,6.30081 -17.05,10.67191 -3.99,4.2812 -6,8.75 -6,13.3515 0,3.4688 1.1,6.2696 3.43,8.4493 2.22,2.2382 4.96,3.3203 8.13,3.3203 4.01,0 7.44,-1.8516 10.49,-5.5 1.47,-1.9414 2.99,-3.8008 4.5,-5.6914 1.57,-1.9102 3.3,-3.5782 5.18,-4.8985 1.91,-1.3906 4.21,-2.3828 6.86,-3.0508 2.6,-0.6523 5.71,-0.9804 9.17,-0.9804 6.99,0 12.51,1.039 16.37,3.0586 3.89,2.039 6.62,4.9023 8.2,8.5703 1.49,3.6797 2.49,7.5898 2.65,11.7812 0.32,4.2813 0.51,10.9492 0.69,20.2891 -4.18,-6.1016 -9.09,-10.7383 -14.51,-13.9297 -5.48,-3.1992 -12.03,-4.75 -19.54,-4.75 -9.18,0 -17.13,2.3789 -23.89,7.2617 -6.84,4.8399 -12.08,11.6172 -15.72,20.3789 -3.6,8.711 -5.48,18.7891 -5.48,30.2384 0,8.57 1.1,16.281 3.36,23.141 2.18,6.832 5.34,12.628 9.52,17.339 4.08,4.719 8.85,8.293 14.22,10.692 5.41,2.347 11.25,3.57 17.76,3.57 7.66,0 14.33,-1.562 19.97,-4.672 5.72,-3.027 10.91,-7.929 15.77,-14.48 v 3.801 c 0,4.96 1.2,8.742 3.5,11.519 2.29,2.672 5.31,4.043 8.94,4.043 5.26,0 8.75,-1.773 10.5,-5.34 1.7,-3.594 2.59,-8.781 2.59,-15.523"
         style="fill:#100f0d;fill-opacity:1;fill-rule:nonzero;stroke:none"
         transform="matrix(0.13333333,0,0,-0.13333333,0,811.33333)" />
      <path
         id="path25"
         d="m 2532.47,413.102 h 40.34 c -2.85,-21.75 -11.76,-38.731 -26.58,-50.942 -13.72,-11.969 -30.33,-17.871 -49.73,-17.871 -26.35,0 -47.37,9.25 -63.07,27.723 -14.88,17.57 -22.3,40.258 -22.3,67.957 0,28.402 7.37,51.09 22.08,68.281 14.71,17.121 35.51,25.719 62.39,25.719 19.99,0 36.91,-5.41 50.63,-16.141 14.54,-11.598 23.43,-27.898 26.58,-48.769 h -40.34 c -3.49,18.211 -14.6,27.273 -33.52,27.273 -31.17,0 -46.79,-18.473 -46.79,-55.422 0,-17.332 4.02,-31.461 12.03,-42.461 8.02,-11.07 19.33,-16.597 33.91,-16.597 21.73,0 33.2,10.429 34.37,31.25 z m -158.79,25.437 c 0,-36.098 11.45,-66.66 34.3,-91.559 22.9,-24.89 50.91,-37.351 84.15,-37.351 33.1,0 61.14,12.461 83.99,37.351 22.92,24.899 34.3,55.461 34.3,91.559 0,36.082 -11.38,66.621 -34.3,91.52 -22.85,24.953 -50.89,37.382 -83.99,37.382 -33.24,0 -61.25,-12.429 -84.15,-37.382 -22.85,-24.899 -34.3,-55.438 -34.3,-91.52 z m -40.98,0 c 0,45.941 15.55,85.152 46.66,117.723 31.15,32.519 68.75,48.789 112.77,48.789 43.92,0 81.47,-16.27 112.65,-48.789 31.13,-32.571 46.73,-71.782 46.73,-117.723 0,-45.969 -15.6,-85.238 -46.73,-117.738 -31.18,-32.551 -68.73,-48.832 -112.65,-48.832 -44.02,0 -81.62,16.281 -112.77,48.832 -31.11,32.5 -46.66,71.769 -46.66,117.738"
         style="fill:#100f0d;fill-opacity:1;fill-rule:nonzero;stroke:none"
         transform="matrix(0.13333333,0,0,-0.13333333,0,811.33333)" />
      <path
         id="path26"
         d="m 2397.2,334.121 23.26,-19.73 170.95,219.539 -23.24,19.691 -170.97,-219.5"
         style="fill:#100f0d;fill-opacity:1;fill-rule:nonzero;stroke:none"
         transform="matrix(0.13333333,0,0,-0.13333333,0,811.33333)" />
      <path
         id="path27"
         d="m 2397.61,1510.26 c 1142.09,0 2073.59,931.5 2073.59,2073.59 0,1142.1 -931.5,2073.6 -2073.59,2073.6 -1142.09,0 -2073.583,-931.5 -2073.583,-2073.6 0,-1142.09 931.493,-2073.59 2073.583,-2073.59"
         style="fill:#fef1e0;fill-opacity:1;fill-rule:evenodd;stroke:none"
         transform="matrix(0.13333333,0,0,-0.13333333,0,811.33333)" />
      <path
         id="path28"
         d="m 2209.33,780.059 c 1216.86,0 2209.34,18.043 2209.34,40.132 0,22.129 -992.48,40.2 -2209.34,40.2 C 992.473,860.391 0,842.32 0,820.191 0,798.102 992.473,780.059 2209.33,780.059"
         style="fill:#5d2920;fill-opacity:1;fill-rule:evenodd;stroke:none"
         transform="matrix(0.13333333,0,0,-0.13333333,0,811.33333)" />
      <path
         id="path29"
         d="M 2695.67,820.191 V 1968.58 h 969.68 V 820.191 Z m 73.75,3718.159 V 4416.77 H 1823.1 v 124.29 l 0.08,2.13 c 14.61,405.95 112.15,820.54 391.58,1129.01 266.89,294.63 621.75,412.78 1014.22,412.78 382.57,0 757.88,-93.55 1037.47,-368.06 279.41,-274.38 374.27,-645.01 374.27,-1027.32 v -3.5 c 0,-172.79 -20.24,-350.18 -78.04,-513.78 -49.52,-140.07 -115.53,-273.41 -199.94,-395.79 -77.52,-112.37 -159.07,-221.97 -244.72,-328.28 -83.8,-104.02 -160.53,-213.72 -231.16,-327.06 -74.85,-120.11 -130.15,-252.05 -171.91,-387 -50.88,-164.43 -65.95,-347.21 -65.95,-518.6 h -935.81 c 0,250.56 25.06,513.07 105.51,751.62 64.37,190.86 148.41,377.08 260.05,545.17 94.54,142.37 192.35,283.2 297.11,418.26 88.8,114.47 167.97,236.47 233.04,366.01 61.66,122.77 86.66,256.21 86.66,392.95 v 3.51 c 0,134.97 -26.27,278.51 -121.24,380.58 -89.51,96.19 -209.99,126.88 -338.33,126.88 -138.48,0 -250.97,-43.34 -334.8,-155.59 -104.25,-139.61 -130.13,-337.29 -131.77,-506.63 v 0"
         style="fill:#c21e24;fill-opacity:1;fill-rule:evenodd;stroke:none"
         transform="matrix(0.13333333,0,0,-0.13333333,0,811.33333)" />
      <path
         id="path30"
         d="M 2120.46,820.191 V 1968.58 h 969.68 V 820.191 Z m 73.76,3718.159 V 4416.77 H 1247.9 v 124.29 l 0.07,2.13 c 14.61,405.95 112.15,820.54 391.58,1129.01 266.89,294.63 621.75,412.78 1014.23,412.78 382.56,0 757.89,-93.55 1037.46,-368.06 279.41,-274.38 374.26,-645.01 374.26,-1027.32 v -3.5 c 0,-172.79 -20.2,-350.18 -78.02,-513.78 -49.51,-140.07 -115.52,-273.41 -199.95,-395.79 -77.53,-112.37 -159.07,-221.97 -244.71,-328.28 -83.81,-104.02 -160.54,-213.72 -231.16,-327.06 -74.85,-120.11 -130.16,-252.05 -171.92,-387 -50.88,-164.43 -65.95,-347.21 -65.95,-518.6 h -935.81 c 0,250.56 25.05,513.07 105.51,751.62 64.38,190.86 148.43,377.08 260.06,545.17 94.54,142.37 192.35,283.2 297.1,418.26 88.81,114.47 167.98,236.47 233.04,366.01 61.66,122.77 86.67,256.21 86.67,392.95 v 3.51 c 0,134.97 -26.27,278.51 -121.24,380.58 -89.51,96.19 -209.99,126.88 -338.32,126.88 -138.48,0 -250.98,-43.34 -334.81,-155.59 -104.26,-139.61 -130.14,-337.29 -131.77,-506.63 v 0"
         style="fill:#e61d2b;fill-opacity:1;fill-rule:evenodd;stroke:none"
         transform="matrix(0.13333333,0,0,-0.13333333,0,811.33333)" />
      <path
         id="path31"
         d="M 1310.33,3748.65 1187.92,3380.49 C 1136.82,3226.78 1055.59,3084.8 948.984,2962.85 860.535,2861.65 834.895,2720 882.258,2594.21 c 47.355,-125.8 160.042,-215.36 293.282,-233.1 125.18,-16.67 251.32,22.79 344.72,107.79 93.39,84.99 144.51,206.89 139.66,333.06 l -349.59,946.69"
         style="fill:#f1a859;fill-opacity:1;fill-rule:evenodd;stroke:none"
         transform="matrix(0.13333333,0,0,-0.13333333,0,811.33333)" />
      <path
         id="path32"
         d="M 2240.36,2919.88 977.754,2510.6 C 837.938,2465.27 722.004,2341.96 691.758,2206.4 598.5,1788.3 558.457,1373.97 572.559,973.02 h 413.629 l 81.282,182.54 c 119.41,268.11 211.62,540.63 275.09,813.02 h 934.72 l 115.02,121.68 c 93.63,99.04 171.53,209.66 229.79,326.31 l -381.73,503.31"
         style="fill:#5d2920;fill-opacity:1;fill-rule:evenodd;stroke:none"
         transform="matrix(0.13333333,0,0,-0.13333333,0,811.33333)" />
      <path
         id="path33"
         d="m 1205.37,2654.7 -205.32,-16.92 c -30.226,-2.48 -56.566,-21.57 -68.335,-49.53 -19.543,-46.4 -15.336,-99.4 11.273,-142.15 26.614,-42.75 72.322,-69.92 122.582,-72.86 l 139.8,281.46"
         style="fill:#e63820;fill-opacity:1;fill-rule:evenodd;stroke:none"
         transform="matrix(0.13333333,0,0,-0.13333333,0,811.33333)" />
      <path
         id="path34"
         d="m 1259.55,2711.09 -213.91,-114.08 c -27.64,-14.74 -45.08,-43.33 -45.52,-74.66 -0.593,-42.42 2.87,-84.78 10.37,-126.53 5.33,-29.65 27.49,-53.42 56.7,-60.82 97.97,-24.84 200.1,21.36 246.11,111.35 46.03,89.99 23.72,199.84 -53.75,264.74"
         style="fill:#f15030;fill-opacity:1;fill-rule:evenodd;stroke:none"
         transform="matrix(0.13333333,0,0,-0.13333333,0,811.33333)" />
      <path
         id="path35"
         d="M 2294.81,2919.88 1207.72,2510.6 c -120.38,-45.33 -183.42,-168.64 -155.53,-304.2 86.05,-418.1 223.7,-832.43 409.75,-1233.38 h 413.64 l 2.99,182.54 c 4.42,268.11 -20.24,540.63 -73.58,813.02 h 934.72 l 62.83,121.68 c 51.16,99.04 81.61,209.66 89.86,326.31 l -597.59,503.31"
         style="fill:#874538;fill-opacity:1;fill-rule:evenodd;stroke:none"
         transform="matrix(0.13333333,0,0,-0.13333333,0,811.33333)" />
      <path
         id="path36"
         d="m 2892.4,2416.57 v 193.59 c 0,579.14 -249.5,1020.77 -730.08,1343.99 -261.09,175.61 -653.42,209.56 -834.16,-48 -180.74,-257.56 -122.19,-612.4 131.74,-798.21 118.79,-86.93 183.75,-229.42 171.46,-376.11 h 376.1 c 322.49,0 635.08,-111.35 884.94,-315.26"
         style="fill:#fbc589;fill-opacity:1;fill-rule:evenodd;stroke:none"
         transform="matrix(0.13333333,0,0,-0.13333333,0,811.33333)" />
      <path
         id="path37"
         d="m 1579.98,2971.69 c 39.84,-71.98 58.47,-155.23 51.38,-239.86 h 376.1 c 215.5,0 426.59,-49.74 617.49,-143.58 h 0.02 c -197.7,216.49 -260.38,540.94 -291.2,914.43 l -69.83,174.91 -558.61,-154.86 c 59.43,-194.62 9.97,-404.04 -125.35,-551.04"
         style="fill:#f1a859;fill-opacity:1;fill-rule:evenodd;stroke:none"
         transform="matrix(0.13333333,0,0,-0.13333333,0,811.33333)" />
      <path
         id="path38"
         d="m 2318.22,3658.94 c 70.6,-389.07 66.9,-824.07 -119.99,-1172.53 l -235.48,-80.44 c -203.97,-63.51 -420.32,-67.92 -624.54,-14.81 -82.34,21.39 -139.4,89.51 -146.06,174.34 -6.66,84.82 39.08,161.02 117.07,195.02 l 442.85,193.03 -108.28,575.44 c -64.62,343.41 590.04,594.99 674.43,129.95"
         style="fill:#fbc589;fill-opacity:1;fill-rule:evenodd;stroke:none"
         transform="matrix(0.13333333,0,0,-0.13333333,0,811.33333)" />
      <path
         id="path39"
         d="m 708.441,1279.26 -71.902,-77.41 c -75.144,-80.94 -166.555,-145.02 -268.246,-188.05 -21.785,-9.24 -37.695,-28.499 -42.648,-51.62 -4.961,-23.11 1.668,-47.211 17.757,-64.551 23.961,-25.809 47.926,-51.617 71.895,-77.438 h 586.273 l -15.558,57.75 0.176,95.079 -277.747,306.24"
         style="fill:#5d2920;fill-opacity:1;fill-rule:evenodd;stroke:none"
         transform="matrix(0.13333333,0,0,-0.13333333,0,811.33333)" />
      <path
         id="path40"
         d="m 1435.17,1090.65 c -33.62,-34.59 -67.53,-63.11 -100.06,-76.85 -21.78,-9.24 -37.7,-28.499 -42.65,-51.62 -4.96,-23.11 1.67,-47.211 17.75,-64.551 23.96,-25.809 47.93,-51.617 71.91,-77.438 h 508.84 l -15.57,57.75 0.19,95.079 -101.36,111.75 c -44.76,49.37 -101.66,75.15 -168.25,76.3 -66.61,1.17 -124.37,-22.67 -170.8,-70.42"
         style="fill:#5d2920;fill-opacity:1;fill-rule:evenodd;stroke:none"
         transform="matrix(0.13333333,0,0,-0.13333333,0,811.33333)" />
      <path
         id="path41"
         d="m 1597.1,4088.54 -520.16,319.99 -248.393,-340.44 116.887,-176.81 197.836,-265.92 c 62.63,-84.21 172.39,-118.46 271.8,-84.83 99.4,33.62 165.84,127.47 164.51,232.4 l 24.82,36.38 c 57.99,84.93 55.05,197.45 -7.3,279.23"
         style="fill:#f15030;fill-opacity:1;fill-rule:evenodd;stroke:none"
         transform="matrix(0.13333333,0,0,-0.13333333,0,811.33333)" />
      <path
         id="path42"
         d="m 1597.1,4088.54 c -16.33,219.98 -175.38,513.41 -323.93,483.84 -66.57,39.9 -147.29,54.77 -226.91,37.78 -234.893,-50.14 -408.987,-248.59 -428.108,-488.02 -6.918,-86.69 35.016,-170.02 108.762,-216.11 73.75,-46.09 167.031,-47.27 241.918,-3.06 107.228,63.3 193.028,157.29 246.328,269.83 l 127.7,-132.42 59.93,72.99 194.31,-24.83"
         style="fill:#2e2d2d;fill-opacity:1;fill-rule:evenodd;stroke:none"
         transform="matrix(0.13333333,0,0,-0.13333333,0,811.33333)" />
      <path
         id="path43"
         d="m 1359.64,4253.88 c 32.17,11.9 75.92,-26.2 97.73,-85.12 21.81,-58.91 13.41,-116.32 -18.75,-128.24 -32.17,-11.91 -75.93,26.21 -97.73,85.12 -21.81,58.92 -13.42,116.33 18.75,128.24"
         style="fill:#f15030;fill-opacity:1;fill-rule:evenodd;stroke:none"
         transform="matrix(0.13333333,0,0,-0.13333333,0,811.33333)" />
      <path
         id="path44"
         d="m 1101.86,3905.32 24.03,19.35 c 45.37,36.54 100.59,58.73 158.63,63.77 L 1250.87,3963 c -38.59,-29.17 -73.85,-62.48 -105.18,-99.33 l -43.83,41.65"
         style="fill:#2e2d2d;fill-opacity:1;fill-rule:evenodd;stroke:none"
         transform="matrix(0.13333333,0,0,-0.13333333,0,811.33333)" />
      <path
         id="path45"
         d="m 1210.65,3905.19 c 18.25,12.93 47.97,2.35 66.4,-23.63 18.42,-25.98 18.57,-57.55 0.33,-70.49 -18.25,-12.93 -47.98,-2.35 -66.41,23.64 -18.42,25.98 -18.57,57.54 -0.32,70.48"
         style="fill:#2e2d2d;fill-opacity:1;fill-rule:evenodd;stroke:none"
         transform="matrix(0.13333333,0,0,-0.13333333,0,811.33333)" />
      <path
         id="path46"
         d="m 999.605,3858 -5.835,-4.92 c -11.02,-9.28 -9.09,-29.77 5.523,-58.84 l 7.017,7.57 c 8.07,8.68 20.01,13.86 35.62,15.47 L 999.605,3858"
         style="fill:#2e2d2d;fill-opacity:1;fill-rule:evenodd;stroke:none"
         transform="matrix(0.13333333,0,0,-0.13333333,0,811.33333)" />
      <path
         id="path47"
         d="m 1047.29,3801.2 c -11.79,-10.62 -8.02,-37.34 8.45,-59.68 16.45,-22.34 39.36,-31.83 51.15,-21.21 11.8,10.62 8.02,37.35 -8.44,59.68 -16.46,22.34 -39.36,31.84 -51.16,21.21"
         style="fill:#2e2d2d;fill-opacity:1;fill-rule:evenodd;stroke:none"
         transform="matrix(0.13333333,0,0,-0.13333333,0,811.33333)" />
      <path
         id="path48"
         d="m 1370.03,3588.75 c 25.87,0 46.96,11.48 46.96,25.58 0,14.08 -21.09,25.57 -46.96,25.57 -25.85,0 -46.95,-11.49 -46.95,-25.57 0,-14.1 21.1,-25.58 46.95,-25.58"
         style="fill:#ffffff;fill-opacity:1;fill-rule:evenodd;stroke:none"
         transform="matrix(0.13333333,0,0,-0.13333333,0,811.33333)" />
    </g>
  </g>
</svg>
