<?xml version="1.0" encoding="UTF-8" standalone="no"?>
<!-- Created with Inkscape (http://www.inkscape.org/) -->

<svg
   version="1.1"
   id="svg1"
   width="860.23999"
   height="738.38666"
   viewBox="0 0 860.23999 738.38666"
   sodipodi:docname="mobile-phones-evolution-publicdomainvectors.org.svg"
   inkscape:version="1.3.2 (091e20ef0f, 2023-11-25, custom)"
   xmlns:inkscape="http://www.inkscape.org/namespaces/inkscape"
   xmlns:sodipodi="http://sodipodi.sourceforge.net/DTD/sodipodi-0.dtd"
   xmlns="http://www.w3.org/2000/svg"
   xmlns:svg="http://www.w3.org/2000/svg">
  <defs
     id="defs1" />
  <sodipodi:namedview
     id="namedview1"
     pagecolor="#505050"
     bordercolor="#ffffff"
     borderopacity="1"
     inkscape:showpageshadow="0"
     inkscape:pageopacity="0"
     inkscape:pagecheckerboard="1"
     inkscape:deskcolor="#d1d1d1"
     inkscape:zoom="0.7451409"
     inkscape:cx="430.12"
     inkscape:cy="369.05772"
     inkscape:window-width="1920"
     inkscape:window-height="1002"
     inkscape:window-x="0"
     inkscape:window-y="0"
     inkscape:window-maximized="1"
     inkscape:current-layer="g1">
    <inkscape:page
       x="0"
       y="0"
       inkscape:label="1"
       id="page1"
       width="860.23999"
       height="738.38666"
       margin="0"
       bleed="0" />
  </sodipodi:namedview>
  <g
     id="g1"
     inkscape:groupmode="layer"
     inkscape:label="1">
    <g
       id="group-R5">
      <path
         id="path2"
         d="m 2415.93,87.5625 c 0,6.5664 -0.95,12.1992 -2.91,16.8355 -1.85,4.711 -4.51,8.313 -7.94,10.872 -3.41,2.5 -7.12,3.761 -11.3,3.761 -6.52,0 -12.05,-2.761 -16.56,-8.09 -4.51,-5.441 -6.76,-13.3512 -6.76,-23.8316 0,-9.8594 2.25,-17.5274 6.7,-22.9492 4.5,-5.5 10.06,-8.2891 16.62,-8.2891 3.97,0 7.64,1.1992 11.04,3.6406 3.32,2.3867 6.01,5.9571 8.05,10.7188 2.05,4.8008 3.06,10.5781 3.06,17.332 z m -46.56,36.0975 v -2.961 c 4.45,5.723 9.09,9.981 13.9,12.633 4.83,2.719 10.31,4.09 16.39,4.09 7.31,0 14.05,-2 20.18,-5.942 6.15,-3.929 10.99,-9.64 14.57,-17.238 3.56,-7.582 5.34,-16.5115 5.34,-26.8826 0,-7.6094 -1,-14.6797 -3.06,-21.0078 -2.06,-6.3828 -4.88,-11.7813 -8.49,-16.1133 -3.61,-4.3086 -7.85,-7.6563 -12.76,-9.957 -4.92,-2.3594 -10.19,-3.5313 -15.78,-3.5313 -6.83,0 -12.52,1.4219 -17.13,4.2695 -4.64,2.8399 -9,7 -13.16,12.5196 V 16.3516 C 2369.37,5.42969 2365.56,0 2357.96,0 c -4.46,0 -7.44,1.37109 -8.84,4.19141 -1.47,2.83984 -2.18,6.92969 -2.18,12.32809 V 123.52 c 0,4.699 0.95,8.242 2.94,10.57 1.99,2.312 4.69,3.5 8.08,3.5 3.38,0 6.13,-1.188 8.23,-3.61 2.12,-2.421 3.18,-5.859 3.18,-10.32"
         style="fill:#231f20;fill-opacity:1;fill-rule:nonzero;stroke:none"
         transform="matrix(0.13333333,0,0,-0.13333333,0,738.38667)" />
      <path
         id="path3"
         d="m 2520.56,50.7813 v 3.121 c -2.87,-3.75 -5.86,-6.8515 -9,-9.3828 -3.12,-2.5898 -6.54,-4.4804 -10.24,-5.7187 -3.73,-1.211 -7.97,-1.8399 -12.71,-1.8399 -5.72,0 -10.88,1.25 -15.44,3.7188 -4.56,2.4922 -8.1,5.8906 -10.57,10.25 -2.98,5.2891 -4.43,12.8398 -4.43,22.6719 v 49.1364 c 0,4.934 1.04,8.664 3.21,11.094 2.16,2.43 4.98,3.68 8.52,3.68 3.59,0 6.5,-1.25 8.69,-3.731 2.22,-2.48 3.32,-6.172 3.32,-11.043 V 83.0195 c 0,-5.7187 0.45,-10.5273 1.34,-14.4179 0.98,-3.9414 2.64,-6.9727 5.07,-9.2032 2.36,-2.207 5.64,-3.2773 9.74,-3.2773 4.04,0 7.81,1.25 11.32,3.6992 3.58,2.4688 6.16,5.6914 7.77,9.6914 1.36,3.5274 2,11.2071 2,23.0781 v 30.1482 c 0,4.871 1.09,8.563 3.32,11.043 2.19,2.481 5.04,3.731 8.57,3.731 3.56,0 6.39,-1.25 8.54,-3.68 2.13,-2.43 3.18,-6.16 3.18,-11.094 V 50.9297 c 0,-4.7188 -0.99,-8.2891 -3.06,-10.5977 -2.03,-2.4023 -4.67,-3.5625 -7.95,-3.5625 -3.22,0 -5.92,1.25 -8.03,3.6602 -2.11,2.4922 -3.16,5.8711 -3.16,10.3516"
         style="fill:#231f20;fill-opacity:1;fill-rule:nonzero;stroke:none"
         transform="matrix(0.13333333,0,0,-0.13333333,0,738.38667)" />
      <path
         id="path4"
         d="m 2589.44,86.5703 c 0,-9.8594 2.15,-17.4101 6.45,-22.7383 4.33,-5.2734 10,-7.9609 17.03,-7.9609 6,0 11.13,2.75 15.47,8.1484 4.35,5.4219 6.46,13.1407 6.46,23.2696 0,6.5898 -0.89,12.2109 -2.67,16.8909 -1.82,4.769 -4.38,8.402 -7.66,10.961 -3.36,2.57 -7.17,3.89 -11.6,3.89 -4.55,0 -8.54,-1.32 -12.07,-3.89 -3.57,-2.559 -6.35,-6.289 -8.38,-11.161 -2.03,-4.8198 -3.03,-10.648 -3.03,-17.4097 z m -1.13,73.6677 v -37.867 c 4.41,4.879 9,8.551 13.63,11.188 4.65,2.543 10.41,3.863 17.25,3.863 7.87,0 14.77,-2 20.74,-5.863 5.94,-3.95 10.59,-9.579 13.85,-17 3.28,-7.399 4.92,-16.2074 4.92,-26.3598 0,-7.5273 -0.92,-14.4179 -2.73,-20.707 -1.84,-6.25 -4.48,-11.6602 -7.95,-16.2813 -3.5,-4.5898 -7.74,-8.1093 -12.68,-10.7109 -4.98,-2.4805 -10.45,-3.75 -16.38,-3.75 -3.68,0 -7.11,0.4609 -10.36,1.3711 -3.24,0.9102 -5.99,2.0898 -8.2,3.6211 -2.28,1.4297 -4.22,2.9687 -5.8,4.5273 -1.6,1.6016 -3.69,3.9414 -6.29,7.0899 v -2.4297 c 0,-4.6992 -1.09,-8.2109 -3.24,-10.5977 -2.13,-2.4023 -4.88,-3.582 -8.17,-3.582 -3.37,0 -6.03,1.1797 -8.06,3.582 -1.99,2.4493 -2.97,5.9375 -2.97,10.5977 V 159.18 c 0,4.98 0.96,8.789 2.91,11.359 1.93,2.59 4.61,3.871 8.12,3.871 3.64,0 6.47,-1.238 8.42,-3.73 1.99,-2.418 2.99,-5.871 2.99,-10.442"
         style="fill:#231f20;fill-opacity:1;fill-rule:nonzero;stroke:none"
         transform="matrix(0.13333333,0,0,-0.13333333,0,738.38667)" />
      <path
         id="path5"
         d="M 2675.44,51.8516 V 159.32 c 0,4.981 1.07,8.719 3.16,11.282 2.15,2.527 5,3.808 8.58,3.808 3.61,0 6.52,-1.25 8.71,-3.781 2.19,-2.5 3.3,-6.309 3.3,-11.309 V 51.8516 c 0,-5.0391 -1.13,-8.8203 -3.36,-11.3516 -2.21,-2.4805 -5.12,-3.75 -8.65,-3.75 -3.48,0 -6.27,1.3008 -8.46,3.9297 -2.19,2.6211 -3.28,6.3125 -3.28,11.1719"
         style="fill:#231f20;fill-opacity:1;fill-rule:nonzero;stroke:none"
         transform="matrix(0.13333333,0,0,-0.13333333,0,738.38667)" />
      <path
         id="path6"
         d="M 2747.47,123.441 V 51.8516 c 0,-5 -1.15,-8.75 -3.38,-11.3008 -2.26,-2.5 -5.15,-3.8008 -8.61,-3.8008 -3.5,0 -6.33,1.3008 -8.5,3.8906 -2.17,2.6602 -3.24,6.3516 -3.24,11.211 v 70.8864 c 0,4.871 1.07,8.563 3.24,11.043 2.17,2.481 5,3.731 8.5,3.731 3.46,0 6.35,-1.25 8.61,-3.731 2.23,-2.48 3.38,-5.91 3.38,-10.34 z m -11.76,25.649 c -3.3,0 -6.11,1.031 -8.49,3.199 -2.31,2.109 -3.48,5.141 -3.48,9 0,3.52 1.17,6.371 3.57,8.691 2.41,2.262 5.22,3.352 8.4,3.352 3.09,0 5.82,-1.012 8.19,-3.043 2.36,-2.059 3.57,-5.117 3.57,-9 0,-3.82 -1.19,-6.809 -3.48,-8.93 -2.32,-2.148 -5.05,-3.269 -8.28,-3.269"
         style="fill:#231f20;fill-opacity:1;fill-rule:nonzero;stroke:none"
         transform="matrix(0.13333333,0,0,-0.13333333,0,738.38667)" />
      <path
         id="path7"
         d="m 2857.08,67.4609 c 0,-3.082 -0.88,-6.4023 -2.64,-9.8984 -1.79,-3.5234 -4.49,-6.8437 -8.12,-10.0234 -3.61,-3.168 -8.19,-5.7383 -13.69,-7.6602 -5.49,-1.957 -11.74,-2.918 -18.6,-2.918 -14.7,0 -26.13,4.4688 -34.37,13.3907 -8.24,8.9297 -12.37,20.8906 -12.37,35.8906 0,10.1484 1.88,19.1798 5.63,26.9568 3.79,7.774 9.26,13.86 16.39,18.102 7.13,4.289 15.64,6.429 25.54,6.429 6.18,0 11.84,-0.98 16.96,-2.808 5.13,-1.91 9.49,-4.34 13.04,-7.27 3.56,-2.972 6.29,-6.132 8.17,-9.504 1.93,-3.347 2.83,-6.476 2.83,-9.386 0,-2.93 -1.07,-5.43 -3.16,-7.52 -2.13,-2.0701 -4.67,-3.1014 -7.7,-3.1014 -1.99,0 -3.63,0.5899 -4.92,1.6407 -1.29,1.0387 -2.78,2.6987 -4.38,5.1097 -2.91,4.558 -5.97,8.031 -9.12,10.379 -3.16,2.281 -7.19,3.472 -12.01,3.472 -7.05,0 -12.73,-2.902 -17.01,-8.621 -4.26,-5.762 -6.43,-13.5624 -6.43,-23.4921 0,-4.6484 0.59,-8.9687 1.68,-12.8672 1.1,-3.9101 2.7,-7.2109 4.75,-9.9922 2.11,-2.7695 4.61,-4.8398 7.6,-6.2382 2.95,-1.4493 6.19,-2.1407 9.7,-2.1407 4.81,0 8.85,1.1094 12.25,3.4219 3.42,2.3281 6.39,5.8398 8.98,10.5078 1.49,2.8516 3.05,5 4.73,6.6016 1.68,1.5781 3.75,2.3203 6.17,2.3203 2.91,0 5.3,-1.1211 7.25,-3.4024 1.87,-2.3476 2.85,-4.7773 2.85,-7.3789"
         style="fill:#231f20;fill-opacity:1;fill-rule:nonzero;stroke:none"
         transform="matrix(0.13333333,0,0,-0.13333333,0,738.38667)" />
      <path
         id="path8"
         d="m 2896.18,87.2891 c 0,-6.6993 1,-12.4102 3.01,-17.168 1.99,-4.7109 4.71,-8.2227 8.18,-10.6094 3.52,-2.4414 7.29,-3.6406 11.39,-3.6406 4.18,0 8.01,1.1797 11.45,3.4102 3.45,2.289 6.19,5.7812 8.28,10.4687 2.05,4.6719 3.04,10.5391 3.04,17.5391 0,6.6328 -0.99,12.2929 -3.04,17.0429 -2.09,4.777 -4.85,8.379 -8.36,10.938 -3.52,2.5 -7.37,3.761 -11.53,3.761 -4.31,0 -8.2,-1.32 -11.64,-3.89 -3.4,-2.559 -6.07,-6.27 -7.93,-11.082 -1.89,-4.8285 -2.85,-10.3481 -2.85,-16.7699 z m 46.68,-36.3594 v 2.4297 c -3.16,-3.8086 -6.33,-6.918 -9.43,-9.2696 -3.09,-2.4179 -6.49,-4.2304 -10.1,-5.4804 -3.59,-1.1875 -7.58,-1.8594 -11.86,-1.8594 -5.66,0 -10.95,1.2695 -15.78,3.75 -4.84,2.6016 -9.02,6.1406 -12.54,10.8008 -3.55,4.6406 -6.25,10.1289 -8.08,16.4492 -1.84,6.2813 -2.74,13.0703 -2.74,20.4492 0,15.4488 3.64,27.5818 10.9,36.2418 7.25,8.641 16.78,12.981 28.6,12.981 6.83,0 12.61,-1.25 17.3,-3.75 4.71,-2.41 9.3,-6.18 13.73,-11.301 v 36.598 c 0,5.082 0.96,8.941 2.91,11.511 1.95,2.622 4.69,3.93 8.3,3.93 3.58,0 6.35,-1.23 8.3,-3.578 1.96,-2.383 2.97,-5.922 2.97,-10.594 V 50.9297 c 0,-4.7188 -1.09,-8.2891 -3.16,-10.5977 -2.09,-2.4023 -4.79,-3.582 -8.11,-3.582 -3.2,0 -5.92,1.2422 -8.06,3.6797 -2.07,2.4414 -3.15,5.9101 -3.15,10.5"
         style="fill:#231f20;fill-opacity:1;fill-rule:nonzero;stroke:none"
         transform="matrix(0.13333333,0,0,-0.13333333,0,738.38667)" />
      <path
         id="path9"
         d="m 3054.23,87.1016 c 0,10.0586 -2.15,17.9494 -6.43,23.5784 -4.26,5.59 -10.02,8.461 -17.15,8.461 -4.68,0 -8.77,-1.289 -12.3,-3.782 -3.52,-2.539 -6.25,-6.25 -8.16,-11.179 -1.92,-4.8284 -2.9,-10.5316 -2.9,-17.0784 0,-6.4922 0.98,-12.1328 2.86,-16.9805 1.89,-4.8203 4.59,-8.5313 8.1,-11.1211 3.48,-2.5391 7.66,-3.8086 12.4,-3.8086 7.13,0 12.89,2.7891 17.15,8.4492 4.28,5.6211 6.43,13.4805 6.43,23.461 z m 23.81,0 c 0,-7.3516 -1.1,-14.1719 -3.3,-20.4414 -2.21,-6.168 -5.39,-11.5586 -9.55,-16.0391 -4.18,-4.4922 -9.18,-7.8398 -14.98,-10.2891 -5.81,-2.4023 -12.37,-3.582 -19.56,-3.582 -7.18,0 -13.67,1.1797 -19.41,3.6602 -5.74,2.3789 -10.7,5.8593 -14.94,10.3711 -4.2,4.5273 -7.38,9.8085 -9.57,15.9375 -2.19,6.1914 -3.24,12.9531 -3.24,20.4101 0,7.5 1.13,14.3591 3.28,20.5901 2.22,6.242 5.37,11.551 9.49,16 4.14,4.402 9.1,7.832 14.98,10.191 5.88,2.391 12.32,3.602 19.41,3.602 7.19,0 13.72,-1.211 19.56,-3.633 5.83,-2.41 10.85,-5.887 15.03,-10.359 4.18,-4.489 7.37,-9.829 9.52,-16.008 2.22,-6.16 3.28,-12.9729 3.28,-20.4104"
         style="fill:#231f20;fill-opacity:1;fill-rule:nonzero;stroke:none"
         transform="matrix(0.13333333,0,0,-0.13333333,0,738.38667)" />
      <path
         id="path10"
         d="m 3178.35,107.57 c -1.78,-4.211 -2.62,-11.5895 -2.62,-22.2184 V 52.4102 c 0,-5.1797 -1.15,-9.1094 -3.44,-11.7305 -2.24,-2.6289 -5.23,-3.9297 -8.96,-3.9297 -3.55,0 -6.46,1.3008 -8.69,3.9297 -2.23,2.6211 -3.34,6.5508 -3.34,11.7305 v 39.5117 c 0,6.2187 -0.22,11.0581 -0.63,14.5471 -0.41,3.429 -1.5,6.281 -3.3,8.492 -1.77,2.23 -4.63,3.34 -8.51,3.34 -7.78,0 -12.83,-2.789 -15.37,-8.403 -2.46,-5.566 -3.66,-13.5582 -3.66,-23.9878 v -33.5 c 0,-5.168 -1.13,-9.0782 -3.34,-11.6602 -2.22,-2.6992 -5.17,-4 -8.8,-4 -3.62,0 -6.61,1.3008 -8.87,4 -2.29,2.582 -3.38,6.4922 -3.38,11.6289 v 70.9531 c 0,4.66 0.96,8.219 3.01,10.598 2.09,2.41 4.78,3.66 8.16,3.66 3.24,0 5.98,-1.11 8.13,-3.41 2.18,-2.25 3.28,-5.379 3.28,-9.379 v -2.36 c 4.08,5.168 8.53,8.938 13.18,11.34 4.71,2.41 9.96,3.641 15.67,3.641 5.97,0 11.07,-1.25 15.37,-3.75 4.31,-2.453 7.81,-6.211 10.6,-11.231 4.01,5.051 8.3,8.86 12.89,11.301 4.61,2.449 9.63,3.68 15.18,3.68 6.56,0 12.13,-1.32 16.8,-4.02 4.72,-2.66 8.22,-6.441 10.54,-11.422 2.05,-4.488 3.05,-11.55 3.05,-21.16 V 52.4102 c 0,-5.1797 -1.11,-9.1094 -3.36,-11.7305 -2.32,-2.6289 -5.25,-3.9297 -9,-3.9297 -3.6,0 -6.53,1.3008 -8.79,4 -2.33,2.582 -3.5,6.4922 -3.5,11.6602 v 41.7187 c 0,5.3008 -0.19,9.5701 -0.62,12.7691 -0.45,3.254 -1.61,5.922 -3.56,8.102 -1.87,2.191 -4.82,3.301 -8.67,3.301 -3.13,0 -6.09,-1 -8.87,-2.899 -2.89,-1.961 -5,-4.57 -6.58,-7.832 v 0"
         style="fill:#231f20;fill-opacity:1;fill-rule:nonzero;stroke:none"
         transform="matrix(0.13333333,0,0,-0.13333333,0,738.38667)" />
      <path
         id="path11"
         d="m 3312.82,86.6289 c -3.49,-1.3476 -8.55,-2.75 -15.19,-4.25 -6.64,-1.5 -11.25,-2.5391 -13.81,-3.2695 -2.56,-0.7305 -4.98,-2.0508 -7.29,-4.0781 -2.34,-2.0899 -3.51,-4.9102 -3.51,-8.5313 0,-3.7812 1.36,-6.9492 4.1,-9.5898 2.75,-2.6797 6.31,-3.9493 10.72,-3.9493 4.67,0 9.04,1.0782 13.01,3.2579 3.96,2.1015 6.89,4.9218 8.71,8.2929 2.17,3.75 3.26,9.9102 3.26,18.5899 z m 1.56,-35.9101 c -5.78,-4.6602 -11.32,-8.1368 -16.69,-10.4375 -5.34,-2.3594 -11.35,-3.5313 -18.01,-3.5313 -6.14,0 -11.45,1.2695 -16.08,3.75 -4.61,2.5313 -8.16,5.9414 -10.68,10.2813 -2.44,4.289 -3.73,8.8984 -3.73,13.9609 0,6.7891 2.13,12.5273 6.21,17.3281 4.1,4.7305 9.75,7.9688 16.93,9.6211 1.51,0.3594 5.28,1.1406 11.23,2.4375 6,1.2813 11.1,2.4297 15.4,3.4609 4.23,1.0586 8.88,2.3399 13.86,3.8512 -0.31,6.571 -1.56,11.379 -3.77,14.481 -2.24,3.027 -6.91,4.527 -13.88,4.527 -6.08,0 -10.59,-0.859 -13.68,-2.609 -3.02,-1.731 -5.62,-4.399 -7.79,-7.942 -2.19,-3.496 -3.73,-5.816 -4.63,-6.929 -0.92,-1.149 -2.83,-1.649 -5.78,-1.649 -2.67,0 -4.96,0.86 -6.87,2.629 -2,1.801 -2.93,4.063 -2.93,6.883 0,4.367 1.46,8.629 4.43,12.688 2.95,4.132 7.56,7.511 13.81,10.222 6.27,2.66 14.08,3.988 23.44,3.988 10.41,0 18.61,-1.328 24.64,-3.898 5.94,-2.531 10.12,-6.582 12.62,-12.191 2.46,-5.532 3.69,-12.942 3.69,-22.141 0,-5.7891 0,-10.7695 -0.04,-14.8086 -0.05,-4.082 -0.05,-8.5898 -0.13,-13.5312 0,-4.6602 0.76,-9.5313 2.22,-14.5704 1.45,-5.0507 2.19,-8.3085 2.19,-9.7382 0,-2.5508 -1.15,-4.8907 -3.44,-6.9727 -2.22,-2.0469 -4.84,-3.1289 -7.73,-3.1289 -2.48,0 -4.84,1.1797 -7.27,3.582 -2.36,2.3868 -4.88,5.8789 -7.54,10.3868"
         style="fill:#231f20;fill-opacity:1;fill-rule:nonzero;stroke:none"
         transform="matrix(0.13333333,0,0,-0.13333333,0,738.38667)" />
      <path
         id="path12"
         d="M 3383.99,123.441 V 51.8516 c 0,-5 -1.13,-8.75 -3.37,-11.3008 -2.25,-2.5 -5.12,-3.8008 -8.6,-3.8008 -3.48,0 -6.35,1.3008 -8.49,3.8906 -2.19,2.6602 -3.27,6.3516 -3.27,11.211 v 70.8864 c 0,4.871 1.08,8.563 3.27,11.043 2.14,2.481 5.01,3.731 8.49,3.731 3.48,0 6.35,-1.25 8.6,-3.731 2.24,-2.48 3.37,-5.91 3.37,-10.34 z m -11.73,25.649 c -3.29,0 -6.08,1.031 -8.44,3.199 -2.38,2.109 -3.56,5.141 -3.56,9 0,3.52 1.23,6.371 3.64,8.691 2.38,2.262 5.19,3.352 8.36,3.352 3.08,0 5.84,-1.012 8.2,-3.043 2.34,-2.059 3.53,-5.117 3.53,-9 0,-3.82 -1.15,-6.809 -3.45,-8.93 -2.35,-2.148 -5.08,-3.269 -8.28,-3.269"
         style="fill:#231f20;fill-opacity:1;fill-rule:nonzero;stroke:none"
         transform="matrix(0.13333333,0,0,-0.13333333,0,738.38667)" />
      <path
         id="path13"
         d="m 3430.15,123.801 v -2.961 c 4.12,5.719 8.71,9.949 13.65,12.633 4.98,2.699 10.64,4.039 17.13,4.039 6.25,0 11.85,-1.41 16.81,-4.293 4.89,-2.817 8.6,-6.797 11.04,-12.008 1.52,-3.063 2.52,-6.352 3.03,-9.84 0.41,-3.5 0.68,-7.961 0.68,-13.4218 V 51.8516 c 0,-5 -1.11,-8.75 -3.26,-11.3008 -2.19,-2.5 -5.02,-3.8008 -8.48,-3.8008 -3.53,0 -6.4,1.3008 -8.55,3.9297 -2.23,2.6211 -3.36,6.3125 -3.36,11.1719 v 41.2695 c 0,8.1989 -1.06,14.4489 -3.21,18.7579 -2.24,4.332 -6.58,6.492 -13.08,6.492 -4.2,0 -8.07,-1.312 -11.56,-3.949 -3.46,-2.621 -6.04,-6.242 -7.64,-10.84 -1.17,-3.6836 -1.76,-10.582 -1.76,-20.7304 v -31 c 0,-5.0391 -1.11,-8.8203 -3.36,-11.3516 -2.22,-2.4805 -5.11,-3.75 -8.65,-3.75 -3.38,0 -6.21,1.3008 -8.4,3.8906 -2.26,2.6602 -3.32,6.3516 -3.32,11.211 v 71.5894 c 0,4.719 0.96,8.231 2.95,10.579 1.95,2.32 4.71,3.492 8.11,3.492 2.05,0 3.96,-0.52 5.62,-1.539 1.72,-1.004 3.03,-2.602 4.06,-4.594 0.98,-2.117 1.55,-4.609 1.55,-7.578"
         style="fill:#231f20;fill-opacity:1;fill-rule:nonzero;stroke:none"
         transform="matrix(0.13333333,0,0,-0.13333333,0,738.38667)" />
      <path
         id="path14"
         d="m 3530.6,122.09 19.18,-56.258 20.72,58.727 c 1.66,4.703 3.24,8.023 4.82,10.011 1.6,1.942 3.93,2.942 7.11,2.942 3.03,0 5.59,-1.032 7.74,-3.199 2.09,-2.102 3.16,-4.512 3.16,-7.352 0,-1.09 -0.21,-2.34 -0.61,-3.75 -0.33,-1.5 -0.78,-2.859 -1.28,-4.141 -0.49,-1.23 -1,-2.718 -1.68,-4.328 l -22.8,-59.0115 c -0.64,-1.6914 -1.48,-3.8594 -2.48,-6.461 -1.03,-2.5898 -2.17,-4.7695 -3.42,-6.6875 -1.25,-1.8125 -2.77,-3.2226 -4.57,-4.2617 -1.85,-1.039 -4.06,-1.5703 -6.71,-1.5703 -3.34,0 -6.04,0.7891 -8.03,2.4102 -2.01,1.6093 -3.5,3.332 -4.44,5.289 -0.93,1.8516 -2.57,5.6406 -4.84,11.2813 l -22.64,58.3595 c -0.52,1.441 -1.05,2.91 -1.64,4.351 -0.52,1.45 -0.95,2.911 -1.36,4.438 -0.34,1.562 -0.55,2.851 -0.55,3.891 0,1.722 0.49,3.39 1.48,5.062 1,1.668 2.39,3.066 4.11,4.098 1.73,1.062 3.59,1.582 5.66,1.582 3.93,0 6.62,-1.172 8.12,-3.582 1.49,-2.309 3.15,-6.278 4.95,-11.84"
         style="fill:#231f20;fill-opacity:1;fill-rule:nonzero;stroke:none"
         transform="matrix(0.13333333,0,0,-0.13333333,0,738.38667)" />
      <path
         id="path15"
         d="m 3627.74,95.1719 h 43.05 c -0.57,8.4691 -2.73,14.7891 -6.56,18.9881 -3.81,4.18 -8.81,6.289 -15.04,6.289 -5.86,0 -10.74,-2.14 -14.49,-6.379 -3.85,-4.238 -6.1,-10.558 -6.96,-18.8981 z m 46.47,-14.0899 h -46.47 c 0.04,-5.6718 1.16,-10.5898 3.23,-14.9218 2.15,-4.2618 4.94,-7.5 8.43,-9.6993 3.52,-2.2304 7.45,-3.2617 11.66,-3.2617 2.84,0 5.45,0.3399 7.8,1.0117 2.32,0.75 4.61,1.8204 6.83,3.2813 2.17,1.4961 4.18,3.0195 6.06,4.7969 1.83,1.6797 4.31,3.9531 7.21,6.8711 1.25,1.1406 2.96,1.6601 5.21,1.6601 2.48,0 4.43,-0.6992 5.94,-2.0898 1.54,-1.4102 2.24,-3.3594 2.24,-5.8907 0,-2.25 -0.82,-4.8789 -2.54,-7.8789 -1.66,-2.9804 -4.16,-5.8515 -7.59,-8.6601 -3.4,-2.711 -7.66,-4.9688 -12.8,-6.8399 -5.09,-1.789 -10.97,-2.7109 -17.69,-2.7109 -15.24,0 -27.11,4.582 -35.55,13.6211 -8.44,9.1094 -12.67,21.3906 -12.67,36.918 0,7.4101 1.05,14.1519 3.12,20.4099 2.09,6.262 5.14,11.641 9.14,16.102 4.01,4.508 8.91,7.961 14.77,10.328 5.88,2.383 12.34,3.601 19.53,3.601 9.2,0 17.17,-2.05 23.81,-6.171 6.66,-4.067 11.64,-9.336 14.92,-15.778 3.32,-6.519 4.96,-13.09 4.96,-19.8513 0,-6.1992 -1.64,-10.2305 -5.12,-12.0703 -3.47,-1.8789 -8.22,-2.7774 -14.43,-2.7774"
         style="fill:#231f20;fill-opacity:1;fill-rule:nonzero;stroke:none"
         transform="matrix(0.13333333,0,0,-0.13333333,0,738.38667)" />
      <path
         id="path16"
         d="m 3798.96,67.4609 c 0,-3.082 -0.86,-6.4023 -2.66,-9.8984 -1.8,-3.5234 -4.43,-6.8437 -8.09,-10.0234 -3.63,-3.168 -8.22,-5.7383 -13.75,-7.6602 -5.47,-1.957 -11.7,-2.918 -18.57,-2.918 -14.69,0 -26.15,4.4688 -34.38,13.3907 -8.2,8.9297 -12.36,20.8906 -12.36,35.8906 0,10.1484 1.89,19.1798 5.68,26.9568 3.77,7.774 9.18,13.86 16.33,18.102 7.13,4.289 15.69,6.429 25.61,6.429 6.13,0 11.74,-0.98 16.91,-2.808 5.12,-1.91 9.44,-4.34 13.07,-7.27 3.55,-2.972 6.27,-6.132 8.16,-9.504 1.86,-3.347 2.81,-6.476 2.81,-9.386 0,-2.93 -1.03,-5.43 -3.22,-7.52 -2.09,-2.0701 -4.63,-3.1014 -7.65,-3.1014 -1.98,0 -3.6,0.5899 -4.89,1.6407 -1.34,1.0387 -2.77,2.6987 -4.43,5.1097 -2.91,4.558 -5.92,8.031 -9.06,10.379 -3.19,2.281 -7.21,3.472 -12.07,3.472 -7,0 -12.68,-2.902 -16.96,-8.621 -4.31,-5.762 -6.42,-13.5624 -6.42,-23.4921 0,-4.6484 0.56,-8.9687 1.64,-12.8672 1.09,-3.9101 2.69,-7.2109 4.78,-9.9922 2.09,-2.7695 4.63,-4.8398 7.6,-6.2382 2.91,-1.4493 6.17,-2.1407 9.73,-2.1407 4.72,0 8.83,1.1094 12.22,3.4219 3.38,2.3281 6.39,5.8398 9.03,10.5078 1.44,2.8516 2.97,5 4.67,6.6016 1.68,1.5781 3.71,2.3203 6.19,2.3203 2.87,0 5.29,-1.1211 7.15,-3.4024 1.97,-2.3476 2.93,-4.7773 2.93,-7.3789"
         style="fill:#231f20;fill-opacity:1;fill-rule:nonzero;stroke:none"
         transform="matrix(0.13333333,0,0,-0.13333333,0,738.38667)" />
      <path
         id="path17"
         d="m 3821.03,135.422 h 2.61 v 14.918 c 0,3.941 0.1,7.129 0.32,9.371 0.19,2.289 0.7,4.199 1.69,5.84 0.9,1.679 2.25,3.09 4.01,4.148 1.7,1.051 3.65,1.543 5.78,1.543 3.01,0 5.74,-1.172 8.18,-3.512 1.6,-1.589 2.64,-3.5 3.09,-5.73 0.43,-2.289 0.64,-5.539 0.64,-9.711 v -16.867 h 8.71 c 3.36,0 5.94,-0.84 7.7,-2.5 1.8,-1.66 2.68,-3.77 2.68,-6.371 0,-3.34 -1.25,-5.711 -3.81,-7 -2.5,-1.321 -6.14,-2 -10.82,-2 h -4.46 V 71.9102 c 0,-3.8985 0.12,-6.8594 0.37,-8.9805 0.32,-2.0977 1.04,-3.7891 2.17,-5.0508 1.08,-1.3203 2.93,-2.0078 5.51,-2.0078 1.37,0 3.24,0.2578 5.64,0.7891 2.35,0.5 4.2,0.7695 5.55,0.7695 1.92,0 3.67,-0.8399 5.18,-2.3594 1.52,-1.6601 2.32,-3.6015 2.32,-5.9609 0,-4 -2.07,-7.0508 -6.25,-9.1797 -4.24,-2.0977 -10.21,-3.1797 -18.03,-3.1797 -7.42,0 -13.06,1.3008 -16.87,3.9297 -3.83,2.6211 -6.37,6.1719 -7.52,10.8398 -1.19,4.6016 -1.78,10.7227 -1.78,18.4024 v 47.6291 h -3.18 c -3.36,0 -5.98,0.82 -7.77,2.558 -1.82,1.672 -2.72,3.821 -2.72,6.442 0,2.601 0.96,4.711 2.81,6.371 1.92,1.66 4.65,2.5 8.25,2.5"
         style="fill:#231f20;fill-opacity:1;fill-rule:nonzero;stroke:none"
         transform="matrix(0.13333333,0,0,-0.13333333,0,738.38667)" />
      <path
         id="path18"
         d="m 3947.78,87.1016 c 0,10.0586 -2.13,17.9494 -6.38,23.5784 -4.26,5.59 -9.96,8.461 -17.17,8.461 -4.65,0 -8.73,-1.289 -12.27,-3.782 -3.55,-2.539 -6.27,-6.25 -8.16,-11.179 -1.92,-4.8284 -2.89,-10.5316 -2.89,-17.0784 0,-6.4922 0.97,-12.1328 2.85,-16.9805 1.87,-4.8203 4.55,-8.5313 8.07,-11.1211 3.49,-2.5391 7.61,-3.8086 12.4,-3.8086 7.21,0 12.91,2.7891 17.17,8.4492 4.25,5.6211 6.38,13.4805 6.38,23.461 z m 23.87,0 c 0,-7.3516 -1.13,-14.1719 -3.34,-20.4414 -2.19,-6.168 -5.41,-11.5586 -9.55,-16.0391 -4.18,-4.4922 -9.18,-7.8398 -14.96,-10.2891 -5.82,-2.4023 -12.29,-3.582 -19.57,-3.582 -7.23,0 -13.71,1.1797 -19.42,3.6602 -5.74,2.3789 -10.74,5.8593 -14.9,10.3711 -4.2,4.5273 -7.4,9.8085 -9.55,15.9375 -2.17,6.1914 -3.24,12.9531 -3.24,20.4101 0,7.5 1.07,14.3591 3.24,20.5901 2.27,6.242 5.35,11.551 9.49,16 4.14,4.402 9.12,7.832 14.96,10.191 5.92,2.391 12.37,3.602 19.42,3.602 7.21,0 13.67,-1.211 19.57,-3.633 5.86,-2.41 10.84,-5.887 15.04,-10.359 4.14,-4.489 7.38,-9.829 9.53,-16.008 2.15,-6.16 3.28,-12.9729 3.28,-20.4104"
         style="fill:#231f20;fill-opacity:1;fill-rule:nonzero;stroke:none"
         transform="matrix(0.13333333,0,0,-0.13333333,0,738.38667)" />
      <path
         id="path19"
         d="M 4013.96,72.4922 V 51.8516 c 0,-5.0391 -1.14,-8.8203 -3.42,-11.3516 -2.27,-2.4805 -5.14,-3.75 -8.64,-3.75 -3.37,0 -6.23,1.3008 -8.41,3.8008 -2.21,2.5508 -3.28,6.3008 -3.28,11.3008 v 68.9804 c 0,11.137 3.82,16.68 11.54,16.68 3.92,0 6.79,-1.321 8.55,-3.91 1.7,-2.571 2.62,-6.45 2.85,-11.512 2.84,5.062 5.77,8.941 8.75,11.512 3.01,2.589 6.96,3.91 11.94,3.91 5.04,0 9.82,-1.321 14.55,-3.91 4.69,-2.571 7.05,-6.051 7.05,-10.321 0,-3.043 -1.04,-5.57 -3.01,-7.5 -1.99,-1.949 -4.16,-2.961 -6.5,-2.961 -0.86,0 -2.95,0.551 -6.31,1.7 -3.34,1.109 -6.27,1.691 -8.83,1.691 -3.46,0 -6.33,-0.941 -8.5,-2.879 -2.18,-1.93 -3.92,-4.723 -5.15,-8.492 -1.21,-3.758 -2.09,-8.1994 -2.54,-13.4181 -0.43,-5.1406 -0.64,-11.4414 -0.64,-18.9297"
         style="fill:#231f20;fill-opacity:1;fill-rule:nonzero;stroke:none"
         transform="matrix(0.13333333,0,0,-0.13333333,0,738.38667)" />
      <path
         id="path20"
         d="m 4140.44,69.1523 c 0,-6.8632 -1.6,-12.6914 -4.82,-17.5937 -3.21,-4.8789 -7.91,-8.5273 -14.15,-11.0664 -6.25,-2.4727 -13.82,-3.7422 -22.79,-3.7422 -8.46,0 -15.8,1.3711 -21.93,4.0898 -6.1,2.75 -10.59,6.129 -13.46,10.211 -2.93,4.0508 -4.41,8.1601 -4.41,12.2695 0,2.711 0.97,5.0586 2.85,6.9805 1.85,1.9687 4.22,2.9101 7.01,2.9101 2.5,0 4.43,-0.6289 5.76,-1.8789 1.37,-1.3398 2.58,-3.1015 3.83,-5.3906 2.46,-4.4414 5.33,-7.7226 8.79,-9.9101 3.32,-2.211 7.97,-3.2813 13.89,-3.2813 4.7,0 8.63,1.1211 11.68,3.332 3,2.2188 4.6,4.7266 4.6,7.5586 0,4.3711 -1.64,7.6016 -4.74,9.5508 -3.22,2.0274 -8.38,3.9297 -15.67,5.7383 -8.14,2.1211 -14.8,4.3594 -19.98,6.6719 -5.11,2.3086 -9.25,5.4375 -12.3,9.2304 -3.09,3.7696 -4.65,8.5 -4.65,14.07 0,4.969 1.43,9.657 4.26,14.039 2.85,4.457 7.09,7.961 12.6,10.618 5.56,2.632 12.22,3.953 20.07,3.953 6.16,0 11.66,-0.672 16.59,-1.992 4.9,-1.34 9.04,-3.122 12.26,-5.36 3.28,-2.238 5.78,-4.719 7.48,-7.422 1.76,-2.746 2.58,-5.429 2.58,-7.996 0,-2.863 -0.9,-5.152 -2.75,-7.023 -1.84,-1.77 -4.44,-2.699 -7.78,-2.699 -2.44,0 -4.51,0.73 -6.25,2.222 -1.68,1.438 -3.65,3.59 -5.86,6.469 -1.77,2.43 -3.88,4.379 -6.34,5.84 -2.46,1.422 -5.77,2.16 -9.93,2.16 -4.29,0 -7.87,-0.93 -10.66,-2.859 -2.87,-1.891 -4.32,-4.293 -4.32,-7.141 0,-2.602 1.08,-4.719 3.15,-6.402 2.11,-1.661 4.9,-3.028 8.44,-4.137 3.55,-1.102 8.43,-2.4415 14.64,-4.0118 7.35,-1.8516 13.38,-4.0899 18.03,-6.711 4.69,-2.5703 8.22,-5.6484 10.63,-9.1992 2.42,-3.5703 3.65,-7.5898 3.65,-12.0977"
         style="fill:#231f20;fill-opacity:1;fill-rule:nonzero;stroke:none"
         transform="matrix(0.13333333,0,0,-0.13333333,0,738.38667)" />
      <path
         id="path21"
         d="m 4167.37,36.75 c -3.59,0 -6.68,1.1797 -9.27,3.6602 -2.62,2.3789 -3.95,5.8007 -3.95,10.1211 0,3.6796 1.25,6.8671 3.71,9.5312 2.5,2.6563 5.63,3.957 9.24,3.957 3.67,0 6.78,-1.3007 9.28,-3.9492 2.63,-2.5781 3.92,-5.8398 3.92,-9.539 0,-4.3008 -1.29,-7.6602 -3.92,-10.1016 -2.5,-2.4375 -5.51,-3.6797 -9.01,-3.6797"
         style="fill:#231f20;fill-opacity:1;fill-rule:nonzero;stroke:none"
         transform="matrix(0.13333333,0,0,-0.13333333,0,738.38667)" />
      <path
         id="path22"
         d="m 4272.41,87.1016 c 0,10.0586 -2.17,17.9494 -6.42,23.5784 -4.26,5.59 -9.96,8.461 -17.15,8.461 -4.67,0 -8.71,-1.289 -12.27,-3.782 -3.51,-2.539 -6.25,-6.25 -8.14,-11.179 -1.88,-4.8284 -2.87,-10.5316 -2.87,-17.0784 0,-6.4922 0.91,-12.1328 2.81,-16.9805 1.89,-4.8203 4.57,-8.5313 8.1,-11.1211 3.48,-2.5391 7.62,-3.8086 12.37,-3.8086 7.19,0 12.89,2.7891 17.15,8.4492 4.25,5.6211 6.42,13.4805 6.42,23.461 z m 23.85,0 c 0,-7.3516 -1.09,-14.1719 -3.36,-20.4414 -2.19,-6.168 -5.33,-11.5586 -9.53,-16.0391 -4.18,-4.4922 -9.12,-7.8398 -14.96,-10.2891 -5.78,-2.4023 -12.29,-3.582 -19.57,-3.582 -7.21,0 -13.67,1.1797 -19.38,3.6602 -5.76,2.3789 -10.72,5.8593 -14.9,10.3711 -4.28,4.5273 -7.42,9.8085 -9.65,15.9375 -2.13,6.1914 -3.22,12.9531 -3.22,20.4101 0,7.5 1.09,14.3591 3.32,20.5901 2.25,6.242 5.35,11.551 9.45,16 4.1,4.402 9.1,7.832 15,10.191 5.86,2.391 12.29,3.602 19.38,3.602 7.19,0 13.71,-1.211 19.57,-3.633 5.88,-2.41 10.88,-5.887 15.06,-10.359 4.16,-4.489 7.32,-9.829 9.55,-16.008 2.15,-6.16 3.24,-12.9729 3.24,-20.4104"
         style="fill:#231f20;fill-opacity:1;fill-rule:nonzero;stroke:none"
         transform="matrix(0.13333333,0,0,-0.13333333,0,738.38667)" />
      <path
         id="path23"
         d="M 4338.56,72.4922 V 51.8516 c 0,-5.0391 -1.13,-8.8203 -3.39,-11.3516 -2.27,-2.4805 -5.12,-3.75 -8.6,-3.75 -3.47,0 -6.27,1.3008 -8.47,3.8008 -2.19,2.5508 -3.31,6.3008 -3.31,11.3008 v 68.9804 c 0,11.137 3.91,16.68 11.59,16.68 3.92,0 6.77,-1.321 8.49,-3.91 1.74,-2.571 2.72,-6.45 2.93,-11.512 2.8,5.062 5.73,8.941 8.69,11.512 2.99,2.589 7,3.91 11.96,3.91 5.08,0 9.88,-1.321 14.55,-3.91 4.67,-2.571 7.07,-6.051 7.07,-10.321 0,-3.043 -1.02,-5.57 -3.01,-7.5 -2.01,-1.949 -4.14,-2.961 -6.5,-2.961 -0.86,0 -2.95,0.551 -6.29,1.7 -3.32,1.109 -6.25,1.691 -8.87,1.691 -3.46,0 -6.27,-0.941 -8.53,-2.879 -2.15,-1.93 -3.89,-4.723 -5.12,-8.492 -1.17,-3.758 -2.07,-8.1994 -2.5,-13.4181 -0.45,-5.1406 -0.69,-11.4414 -0.69,-18.9297"
         style="fill:#231f20;fill-opacity:1;fill-rule:nonzero;stroke:none"
         transform="matrix(0.13333333,0,0,-0.13333333,0,738.38667)" />
      <path
         id="path24"
         d="m 4407.12,87.9414 c 0,-10.0195 2.11,-17.6211 6.31,-22.7891 4.18,-5.121 9.67,-7.7226 16.27,-7.7226 3.92,0 7.69,1.1406 11.19,3.3711 3.51,2.1992 6.37,5.5117 8.61,9.9609 2.19,4.4571 3.26,9.8477 3.26,16.1875 0,10.1016 -2.11,17.9728 -6.38,23.5818 -4.26,5.68 -9.87,8.5 -16.82,8.5 -6.74,0 -12.23,-2.761 -16.29,-8.09 -4.1,-5.429 -6.15,-13.0504 -6.15,-22.9996 z m 68.83,31.4376 V 47.3711 c 0,-8.25 -0.9,-15.332 -2.56,-21.2305 -1.68,-5.9687 -4.38,-10.8515 -8.07,-14.7383 -3.73,-3.87105 -8.59,-6.73042 -14.55,-8.61324 C 4444.76,0.960938 4437.26,0 4428.35,0 c -8.2,0 -15.53,1.16016 -21.93,3.53906 -6.43,2.45313 -11.39,5.5 -14.89,9.32034 -3.45,3.75 -5.23,7.6211 -5.23,11.6601 0,3 0.99,5.4727 3.01,7.3789 1.95,1.9414 4.31,2.8829 7.09,2.8829 3.49,0 6.5,-1.6094 9.16,-4.7891 1.27,-1.7031 2.59,-3.332 3.94,-4.9805 1.37,-1.6797 2.89,-3.1015 4.51,-4.2695 1.68,-1.2031 3.68,-2.0703 6,-2.6719 2.27,-0.5703 4.96,-0.8476 8.01,-0.8476 6.09,0 10.92,0.9062 14.27,2.6757 3.42,1.7618 5.79,4.2735 7.19,7.4922 1.29,3.1914 2.15,6.6211 2.29,10.2891 0.31,3.7109 0.45,9.5625 0.62,17.7109 -3.67,-5.3203 -7.95,-9.3789 -12.65,-12.1718 -4.81,-2.7891 -10.53,-4.129 -17.09,-4.129 -8.01,0 -14.94,2.0704 -20.84,6.3321 -6,4.2304 -10.55,10.1289 -13.73,17.7969 -3.15,7.6015 -4.79,16.4023 -4.79,26.3906 0,7.4726 0.96,14.2226 2.95,20.2226 1.88,5.949 4.65,11.008 8.28,15.137 3.56,4.113 7.72,7.211 12.42,9.32 4.75,2.051 9.87,3.133 15.49,3.133 6.72,0 12.54,-1.371 17.46,-4.09 5,-2.652 9.51,-6.91 13.77,-12.633 v 3.321 c 0,4.312 1.06,7.609 3.03,10.062 2.01,2.32 4.67,3.508 7.81,3.508 4.61,0 7.66,-1.539 9.2,-4.668 1.49,-3.121 2.25,-7.672 2.25,-13.543"
         style="fill:#231f20;fill-opacity:1;fill-rule:nonzero;stroke:none"
         transform="matrix(0.13333333,0,0,-0.13333333,0,738.38667)" />
      <path
         id="path25"
         d="m 3446.69,360.719 h 35.25 c -2.5,-19.008 -10.29,-33.84 -23.22,-44.489 -11.99,-10.441 -26.48,-15.609 -43.46,-15.609 -22.97,0 -41.34,8.078 -55.04,24.211 -13,15.32 -19.49,35.16 -19.49,59.328 0,24.809 6.45,44.61 19.32,59.629 12.81,14.953 30.99,22.461 54.43,22.461 17.46,0 32.25,-4.73 44.24,-14.109 12.72,-10.11 20.47,-24.332 23.22,-42.582 h -35.25 c -3.01,15.91 -12.75,23.832 -29.3,23.832 -27.18,0 -40.84,-16.141 -40.84,-48.411 0,-15.109 3.52,-27.449 10.51,-37.078 7.01,-9.652 16.88,-14.461 29.63,-14.461 18.98,0 28.98,9.079 30,27.278 z m -138.65,22.203 c 0,-31.52 10,-58.223 29.98,-79.93 19.98,-21.75 44.41,-32.633 73.44,-32.633 28.9,0 53.41,10.883 73.35,32.633 20.02,21.707 29.97,48.41 29.97,79.93 0,31.519 -9.95,58.168 -29.97,79.918 -19.94,21.769 -44.45,32.64 -73.35,32.64 -29.03,0 -53.46,-10.871 -73.44,-32.64 -19.98,-21.75 -29.98,-48.399 -29.98,-79.918 z m -35.76,0 c 0,40.117 13.55,74.328 40.72,102.797 27.21,28.39 60.02,42.59 98.46,42.59 38.39,0 71.17,-14.2 98.37,-42.59 27.21,-28.469 40.8,-62.68 40.8,-102.797 0,-40.133 -13.59,-74.442 -40.8,-102.801 -27.2,-28.43 -59.98,-42.629 -98.37,-42.629 -38.44,0 -71.25,14.199 -98.46,42.629 -27.17,28.359 -40.72,62.668 -40.72,102.801"
         style="fill:#231f20;fill-opacity:1;fill-rule:nonzero;stroke:none"
         transform="matrix(0.13333333,0,0,-0.13333333,0,738.38667)" />
      <path
         id="path26"
         d="m 3328.58,291.742 20.3,-17.211 149.29,191.711 -20.29,17.188 -149.3,-191.688"
         style="fill:#231f20;fill-opacity:1;fill-rule:nonzero;stroke:none"
         transform="matrix(0.13333333,0,0,-0.13333333,0,738.38667)" />
      <path
         id="path27"
         d="m 3327.73,3906.72 h 239.81 c 9.75,0 17.68,7.94 17.68,17.69 0,9.76 -7.93,17.7 -17.68,17.7 h -239.81 c -9.75,0 -17.69,-7.94 -17.69,-17.7 0,-9.75 7.94,-17.69 17.69,-17.69 m 432.94,-2331.26 h -157.28 c -2.65,0 -4.8,-2.14 -4.8,-4.78 v -37.46 c 0,-2.66 2.15,-4.81 4.8,-4.81 h 157.28 c 2.65,0 4.8,2.15 4.8,4.81 v 37.46 c 0,2.64 -2.15,4.78 -4.8,4.78 m -240.09,952.13 h -113.77 v -57.05 h 113.77 z m 349.87,219.14 h 113.77 v 57.05 h -113.77 z m -174.94,64.79 c -52.25,0 -85.61,-16.88 -85.61,-28.52 0,-11.62 33.36,-28.51 85.61,-28.51 52.26,0 85.61,16.89 85.61,28.51 0,11.64 -33.35,28.52 -85.61,28.52 m 342.45,626.38 h -684.9 v -362.87 h 684.9 z m 20.58,20.59 h -726.06 v -404.02 h 726.06 z m -715.77,42.13 28.27,-1.92 v 3.84 z m 87.27,-4.98 58.99,-2.2 v 14.37 l -58.99,-2.2 z m 117.99,-3.77 58.99,-0.96 v 19.42 l -58.99,-0.96 z m 83.16,118.84 c 0,-4.5 3.65,-8.14 8.15,-8.14 4.5,0 8.14,3.64 8.14,8.14 v 128.07 c 0,4.5 -3.64,8.14 -8.14,8.14 -4.5,0 -8.15,-3.64 -8.15,-8.14 z m 34.83,-120.21 c 19.66,-0.17 39.32,-0.19 58.98,-0.01 v 20.27 c -19.66,0.18 -39.32,0.16 -58.98,-0.02 z m 19.2,82.02 c 0,-5.68 4.61,-10.29 10.29,-10.29 5.68,0 10.29,4.61 10.29,10.29 v 204.45 c 0,5.69 -4.61,10.3 -10.29,10.3 -5.68,0 -10.29,-4.61 -10.29,-10.3 z m 61.3,38.19 c 0,-4.5 3.66,-8.14 8.15,-8.14 4.5,0 8.14,3.64 8.14,8.14 v 128.07 c 0,4.5 -3.64,8.14 -8.14,8.14 -4.49,0 -8.15,-3.64 -8.15,-8.14 z m 37.48,-119.82 58.99,0.97 v 17.52 l -58.99,0.98 z m 117.98,2.53 59,2.2 v 10.01 l -59,2.2 z m 118,5.28 28.27,1.92 -28.27,1.94 z m 64.41,304.21 v -765.04 c 0,-19.98 -16.25,-36.21 -36.21,-36.21 h -705.33 c -19.98,0 -36.23,16.23 -36.23,36.21 v 765.04 c 0,19.96 16.25,36.21 36.23,36.21 h 705.33 c 19.96,0 36.21,-16.25 36.21,-36.21 m 20.58,0 c 0,31.32 -25.47,56.8 -56.79,56.8 h -509.49 -184.93 -10.91 c -31.33,0 -56.8,-25.48 -56.8,-56.8 v -765.04 c 0,-31.31 25.47,-56.8 56.8,-56.8 h 705.33 c 31.32,0 56.79,25.49 56.79,56.8 z m -64.09,-1737.9 -4.29,0.02 -138.87,0.75 v -10 h 0.87 l 133.77,0.7 4.23,-787.11 4.26,791.41 z m -237.05,-4.41 h -216.64 v -10 h 216.64 z m -19.51,-489.92 c 0,13.03 -10.61,23.65 -23.65,23.65 h -157.28 c -13.04,0 -23.64,-10.62 -23.64,-23.65 v -37.46 c 0,-13.05 10.6,-23.65 23.64,-23.65 h 157.28 c 13.04,0 23.65,10.6 23.65,23.65 z m -291.02,490.1 v 0 5 l -165.84,-0.86 -4.16,-0.02 0.02,-4.12 4.14,-791.41 4.12,787.25 160.69,-0.84 h 1.03 z m 360.22,114.14 h 147.63 v 90.93 h -147.63 z m 0,149.51 h 147.63 v 90.94 h -147.63 z m 0,129.18 h 147.63 v 90.92 h -147.63 z m 147.63,367.13 h -147.63 v -90.94 h 147.63 z m -147.63,-217.62 h 147.63 v 90.92 h -147.63 z m -35.82,279.1 c 13.86,0 25.15,11.27 25.15,25.14 v 39.18 c 0,13.87 -11.29,25.15 -25.15,25.15 h -244.37 c -13.88,0 -25.17,-11.28 -25.17,-25.15 v -39.18 c 0,-13.87 11.29,-25.14 25.17,-25.14 z M 3798.07,2783 c 0,29.53 -52.84,45.47 -102.56,45.47 -49.71,0 -102.54,-15.94 -102.54,-45.47 0,-29.53 52.83,-45.47 102.54,-45.47 49.72,0 102.56,15.94 102.56,45.47 m -28.73,-88.96 h -147.66 v -90.92 h 147.66 z m 0,-149.51 h -147.66 v -90.92 h 147.66 z m -147.66,-369.61 h 147.66 v 90.93 h -147.66 z m 147.66,240.45 h -147.66 v -90.94 h 147.66 z m -379.48,-240.45 h 147.66 v 90.93 h -147.66 z m 0,149.51 h 147.66 v 90.94 h -147.66 z m 0,129.18 h 147.66 v 90.92 h -147.66 z m 147.66,367.13 h -147.66 v -90.94 h 147.66 z m -147.66,-217.62 h 147.66 v 90.92 h -147.66 z m -87.68,1321.29 c 0,-14.09 11.46,-25.55 25.55,-25.55 h 239.81 c 14.08,0 25.55,11.46 25.55,25.55 0,14.1 -11.47,25.56 -25.55,25.56 h -239.81 c -14.09,0 -25.55,-11.46 -25.55,-25.56 m 53.53,65.16 7.84,-0.55 22.88,331.07 c 1.09,30.77 8.28,50.3 40.72,52.58 l -0.56,7.85 c -40.44,-2.84 -46.98,-30.59 -48.02,-60.02 z m 791.4,-129.29 V 2055.8 c 0,-23.48 -19.03,-42.52 -42.51,-42.52 h -9.91 v -809.96 l -408.92,86.5 -416.39,-86.5 v 809.96 h -2.43 c -23.47,0 -42.52,19.04 -42.52,42.52 v 1804.48 c 0,23.48 19.05,42.51 42.52,42.51 h 12.37 v 44.12 c 0,12.81 10.47,23.29 23.27,23.29 h 22 l 29.51,360.77 c 0,38.46 31.19,69.65 69.65,69.65 h 49.43 c 38.48,0 69.64,-31.19 69.64,-69.65 l 25.6,-360.77 h 21.42 c 12.82,0 23.29,-10.48 23.29,-23.29 v -44.12 h 491.47 c 23.48,0 42.51,-19.03 42.51,-42.51 M 3520.58,2248.9 h -113.77 v -57.05 h 113.77 z m 0,149.51 h -113.77 v -57.03 h 113.77 z m 0,278.69 h -113.77 v -57.05 h 113.77 z m 463.64,-428.2 h -113.77 v -57.05 h 113.77 z m -161.95,658.46 v 39.18 c 0,2.52 -2.05,4.57 -4.57,4.57 h -244.37 c -2.53,0 -4.58,-2.05 -4.58,-4.57 v -39.18 c 0,-2.5 2.05,-4.57 4.58,-4.57 h 244.37 c 2.52,0 4.57,2.07 4.57,4.57 m -183.64,-436.82 h 113.76 v 57.05 h -113.76 z m 0,149.51 h 113.76 v 57.05 h -113.76 z m 345.59,-92.46 h -113.77 v -57.05 h 113.77 z m -577.41,219.14 h 113.77 v 57.05 h -113.77 z m 577.41,-69.63 h -113.77 v -57.05 h 113.77 z m 0,-278.69 h -113.77 v -57.03 h 113.77 z M 3752.39,2248.9 h -113.76 v -57.05 h 113.76 z m -113.76,92.48 h 113.76 v 57.03 h -113.76 z m 993.29,2263.33 c 3.69,-22.43 23.16,-38.41 45.2,-38.41 2.44,0 4.92,0.2 7.41,0.61 24.93,4.08 41.89,27.68 37.81,52.61 -1.98,12.07 -8.54,22.66 -18.48,29.79 -9.93,7.15 -22.05,9.99 -34.12,8.02 -12.08,-1.98 -22.67,-8.54 -29.82,-18.48 -7.13,-9.93 -9.98,-22.05 -8,-34.14 m 822.78,134.7 c -4.24,25.91 -28.83,43.54 -54.67,39.29 l -377.45,-61.79 c -12.51,-2.05 -23.5,-8.88 -30.94,-19.23 -7.43,-10.34 -10.4,-22.94 -8.35,-35.45 2.04,-12.49 8.87,-23.48 19.22,-30.92 8.22,-5.91 17.84,-9 27.7,-9 2.57,0 5.16,0.22 7.74,0.64 l 377.45,61.79 c 25.91,4.24 43.54,28.77 39.3,54.67 m 339.03,55.5 c -1.97,12.08 -8.53,22.66 -18.48,29.8 -9.93,7.14 -22.06,10 -34.13,8.01 -24.93,-4.09 -41.88,-27.68 -37.8,-52.61 1.97,-12.08 8.54,-22.66 18.48,-29.8 7.87,-5.66 17.12,-8.63 26.63,-8.63 2.49,0 5,0.21 7.49,0.62 24.93,4.08 41.89,27.68 37.81,52.61 m 119.19,-2854.54 c -2.05,12.5 -8.88,23.49 -19.23,30.93 -10.34,7.44 -22.95,10.41 -35.44,8.36 l -377.46,-61.79 c -25.89,-4.24 -43.52,-28.77 -39.29,-54.67 3.82,-23.32 24.08,-39.92 46.97,-39.92 2.55,0 5.12,0.21 7.7,0.62 l 377.46,61.8 h 0.01 c 25.9,4.26 43.52,28.77 39.28,54.67 m 467.25,191.13 -420.66,2569.59 -1.31,7.95 -1442.45,-236.16 420.66,-2569.58 1.3,-7.93 1434.52,234.82 z m 43.9,-201.64 c -22.97,-31.97 -57.02,-53.09 -95.87,-59.45 h 0.01 L 5068.43,1664.17 c -8.03,-1.3 -16.01,-1.95 -23.89,-1.95 -70.88,0 -133.54,51.43 -145.37,123.6 l -448.15,2737.56 c -13.14,80.21 41.42,156.13 121.62,169.26 l 1259.78,206.24 c 80.18,13.14 156.12,-41.44 169.26,-121.64 l 448.15,-2737.58 c 6.36,-38.84 -2.78,-77.85 -25.76,-109.8 M 5765.76,4811.5 c -5.08,3.64 -11.04,5.56 -17.18,5.56 -1.59,0 -3.21,-0.13 -4.83,-0.4 -16.06,-2.62 -27,-17.85 -24.37,-33.91 1.27,-7.79 5.5,-14.62 11.91,-19.22 6.42,-4.61 14.22,-6.44 22.01,-5.17 16.07,2.63 27,17.85 24.37,33.93 -1.27,7.78 -5.5,14.6 -11.91,19.21 m -358.03,-48.45 c -1.67,0 -3.36,-0.14 -5.07,-0.41 l -377.46,-61.8 c -8.22,-1.33 -15.44,-5.84 -20.35,-12.65 -4.9,-6.83 -6.85,-15.11 -5.49,-23.32 1.33,-8.22 5.84,-15.44 12.65,-20.35 6.82,-4.9 15.11,-6.85 23.32,-5.52 l 377.45,61.8 c 17.04,2.79 28.65,18.93 25.85,35.98 -2.51,15.35 -15.83,26.27 -30.9,26.27 M 4681.9,4582.96 c 16.07,2.64 27.02,17.85 24.38,33.93 -1.28,7.79 -5.5,14.61 -11.91,19.21 -5.08,3.65 -11.05,5.56 -17.17,5.56 -1.6,0 -3.23,-0.13 -4.84,-0.39 -7.8,-1.29 -14.62,-5.51 -19.22,-11.91 -4.6,-6.41 -6.44,-14.23 -5.16,-22.01 2.64,-16.08 17.85,-27.02 33.92,-24.39 M 5884.2,1958.08 c -5.42,3.89 -11.76,5.92 -18.25,5.92 -1.68,0 -3.37,-0.12 -5.07,-0.41 l -377.45,-61.78 c -17.05,-2.79 -28.64,-18.92 -25.86,-35.98 2.8,-17.07 18.94,-28.75 35.98,-25.87 l 377.46,61.79 c 8.22,1.35 15.44,5.84 20.34,12.68 4.9,6.81 6.85,15.1 5.51,23.3 -1.35,8.24 -5.84,15.45 -12.66,20.35 M 4534.21,4459.61 4950.99,1913.82 6361.7,2144.76 5944.94,4690.55 Z m -3014.36,-44.17 c -10.1,-30.2 -19.92,-60.47 -29.7,-90.76 -9.76,-30.3 -19.75,-60.52 -29.21,-90.91 L 1403.72,4051.59 1347.85,3869 c -4.74,-15.12 -9.05,-30.77 -14.38,-44.98 -5.55,-14.29 -12.44,-28.08 -21.58,-40.07 -9.12,-11.84 -20.24,-22.36 -33.49,-28.21 -6.5,-3.23 -13.59,-4.65 -20.63,-5.42 -7.11,-0.57 -14.23,0.52 -21.18,2.3 l -2.69,0.24 c -0.72,0.29 -0.5,0.04 -2.05,0.38 l -3.62,0.71 -7.54,1.76 -15.24,4.01 -30.53,8.52 -60.96,17.88 -121.948,36.02 -121.918,36.26 -122.114,35.69 c 40,-14.11 80.211,-27.57 120.379,-41.18 40.125,-13.73 80.512,-26.65 120.825,-39.83 40.356,-13.04 80.656,-26.26 121.196,-38.78 l 60.95,-18.42 30.64,-8.84 15.49,-4.18 7.92,-1.93 c 2.35,-0.41 4.43,-1.05 7.91,-1.28 8.23,-2.2 16.8,-3.51 25.42,-2.88 8.72,0.81 17.48,2.62 25.34,6.38 16.03,7 28.83,19.07 39.1,32.2 10.24,13.3 18.02,28.15 23.73,43.57 5.7,15.65 9.67,30.78 14.34,46.06 l 54.35,183.04 52.97,183.45 c 8.93,30.55 17.29,61.27 25.9,91.91 8.6,30.64 17.14,61.32 25.41,92.06 m -188.41,-776.46 c -24.56,-75.84 -48.24,-151.94 -72.39,-227.91 l -70.92,-228.36 c -47.14,-152.29 -93.05,-304.92 -139.62,-457.38 -45.47,-152.78 -91.53,-305.39 -136.432,-458.34 l -67.066,-229.51 c -21.848,-76.66 -44.172,-153.19 -65.614,-229.97 24.571,75.84 48.247,151.96 72.411,227.91 l 70.929,228.36 c 47.11,152.29 93.052,304.93 139.602,457.39 45.42,152.79 91.54,305.39 136.39,458.36 l 67.08,229.51 c 21.86,76.64 44.19,153.17 65.63,229.94 m -565.659,-1573.93 18.414,61.1 c 3.711,12.3 -3.265,25.29 -15.574,29 l -37.969,11.45 c -12.312,3.71 -25.297,-3.27 -29.007,-15.57 l -18.415,-61.09 c -3.703,-12.31 3.262,-25.32 15.579,-29.01 l 37.968,-11.44 c 12.309,-3.71 25.293,3.26 29.004,15.56 m -77.261,-208.67 -4.415,1.45 c -40.296,13 -80.57,26.11 -121.039,38.59 -40.371,12.75 -80.949,24.82 -121.433,37.27 -40.602,12.01 -81.11,24.33 -121.813,36.01 -40.617,11.99 -81.422,23.3 -122.215,34.73 l -4.445,1.25 -1.203,-4.3 -10.246,-36.52 c -3.481,-12.17 -6.582,-24.44 -9.891,-36.64 -6.511,-24.46 -13.16,-48.87 -19.304,-73.42 8.453,23.87 16.398,47.87 24.488,71.86 3.98,12.01 8.184,23.94 11.988,35.99 l 10.238,31.72 c 38.891,-12.56 77.743,-25.21 116.801,-37.25 40.375,-12.75 80.946,-24.84 121.426,-37.28 40.609,-12.01 81.106,-24.38 121.813,-36.04 39.183,-11.56 78.546,-22.52 117.894,-33.51 l -8.98,-32.07 c -3.481,-12.15 -6.602,-24.42 -9.891,-36.64 -6.516,-24.44 -13.16,-48.85 -19.293,-73.42 8.461,23.87 16.41,47.89 24.508,71.85 3.98,12.02 8.176,23.95 11.988,36.02 l 11.656,36.09 z m -108.856,-337.11 -489.8242,147.66 20.4652,67.87 -16.4652,4.98 -25.7148,-85.27 506.301,-152.62 z m -85.012,188.81 14.125,46.9 -221.867,66.87 -14.129,-46.87 z m -173.093,466.56 37.972,-11.44 c 12.309,-3.71 25.297,3.26 29.004,15.56 l 18.414,61.08 c 3.711,12.32 -3.258,25.31 -15.578,29.02 l -37.969,11.43 c -12.304,3.71 -25.293,-3.24 -29.004,-15.57 l -18.414,-61.07 c -3.711,-12.31 3.27,-25.3 15.575,-29.01 m 51.285,170.14 37.969,-11.45 c 12.312,-3.71 25.292,3.27 29.011,15.57 l 18.414,61.09 c 3.696,12.31 -3.265,25.3 -15.57,29.01 l -37.977,11.44 c -12.32,3.72 -25.296,-3.26 -29.007,-15.58 l -18.414,-61.08 c -3.711,-12.3 3.261,-25.29 15.574,-29 m 41.531,173.07 57.473,-17.31 c 6.922,-2.09 14.23,1.84 16.312,8.75 l 24.289,80.59 c 2.098,6.93 -1.824,14.24 -8.75,16.33 l -57.476,17.32 c -6.926,2.09 -14.227,-1.86 -16.317,-8.77 l -24.297,-80.59 c -2.078,-6.91 1.84,-14.23 8.766,-16.32 m 72.324,239.96 57.473,-17.33 c 6.918,-2.09 14.226,1.82 16.316,8.75 l 24.285,80.59 c 2.09,6.93 -1.835,14.22 -8.753,16.33 l -57.481,17.32 c -6.922,2.09 -14.223,-1.83 -16.312,-8.77 l -24.289,-80.58 c -2.086,-6.92 1.835,-14.22 8.761,-16.31 m 61.035,167.18 37.969,-11.44 c 12.305,-3.71 25.293,3.28 29.004,15.57 l 18.406,61.09 c 3.711,12.32 -3.258,25.29 -15.558,29 l -37.981,11.47 c -12.301,3.71 -25.297,-3.28 -29.004,-15.59 l -18.414,-61.07 c -3.711,-12.33 3.266,-25.29 15.578,-29.03 m 51.274,170.16 37.972,-11.44 c 12.313,-3.72 25.293,3.26 29.004,15.54 l 18.418,61.1 c 3.711,12.32 -3.254,25.31 -15.57,29.02 l -37.977,11.45 c -12.3,3.71 -25.285,-3.29 -28.996,-15.59 l -18.421,-61.07 c -3.711,-12.33 3.265,-25.3 15.57,-29.01 m 41.539,173.07 57.473,-17.31 c 6.921,-2.1 14.226,1.83 16.32,8.74 l 24.281,80.59 c 2.086,6.94 -1.836,14.24 -8.754,16.32 l -57.48,17.32 c -6.922,2.1 -14.227,-1.83 -16.309,-8.75 l -24.297,-80.59 c -2.086,-6.93 1.84,-14.23 8.766,-16.32 m 434.713,-131.04 c 6.93,-2.07 14.24,1.84 16.32,8.77 l 24.29,80.59 c 2.09,6.93 -1.83,14.23 -8.75,16.31 l -57.48,17.34 c -6.93,2.08 -14.22,-1.84 -16.31,-8.77 l -24.3,-80.6 c -2.08,-6.9 1.83,-14.22 8.76,-16.31 z m -61.03,-167.19 c 12.31,-3.71 25.29,3.27 29,15.57 l 18.42,61.1 c 3.7,12.28 -3.26,25.29 -15.57,29 l -37.97,11.42 c -12.317,3.72 -25.301,-3.24 -29.008,-15.56 l -18.414,-61.1 c -3.711,-12.28 3.261,-25.27 15.574,-28.98 z m -51.281,-170.13 c 12.309,-3.71 25.293,3.26 29.004,15.56 l 18.417,61.08 c 3.7,12.3 -3.26,25.31 -15.581,29.02 l -37.969,11.43 c -12.308,3.71 -25.293,-3.24 -29.004,-15.55 l -18.414,-61.11 c -3.703,-12.29 3.27,-25.3 15.575,-28.99 z M 921.41,2626.77 c 6.93,-2.09 14.235,1.84 16.32,8.75 l 24.29,80.59 c 2.082,6.93 -1.84,14.24 -8.754,16.33 l -57.481,17.3 c -6.922,2.09 -14.226,-1.82 -16.312,-8.75 l -24.297,-80.58 c -2.078,-6.94 1.84,-14.22 8.765,-16.31 z m -72.312,-239.94 c 6.918,-2.09 14.226,1.84 16.308,8.77 l 24.289,80.57 c 2.086,6.93 -1.836,14.24 -8.754,16.31 l -57.48,17.34 c -6.918,2.09 -14.227,-1.84 -16.309,-8.77 l -24.293,-80.59 c -2.082,-6.93 1.836,-14.22 8.766,-16.3 z m -99.008,-155.76 37.969,-11.45 c 12.308,-3.71 25.296,3.27 29.007,15.57 l 18.407,61.09 c 3.711,12.31 -3.262,25.3 -15.567,29.01 l -37.976,11.44 c -12.301,3.71 -25.293,-3.26 -29.004,-15.56 l -18.41,-61.1 c -3.711,-12.3 3.261,-25.29 15.574,-29 m 11.258,744.8 c -12.321,3.71 -25.301,-3.24 -29.004,-15.56 l -18.422,-61.08 c -3.707,-12.32 3.262,-25.31 15.574,-29.02 l 37.969,-11.43 c 12.308,-3.71 25.293,3.25 29.004,15.55 l 18.426,61.09 c 3.71,12.31 -3.262,25.32 -15.579,29.01 z m 60.965,237.58 57.476,-17.34 c 6.93,-2.07 14.227,1.83 16.316,8.77 l 24.286,80.58 c 2.089,6.92 -1.836,14.22 -8.754,16.32 l -57.489,17.32 c -6.906,2.09 -14.21,-1.83 -16.304,-8.76 l -24.289,-80.59 c -2.09,-6.92 1.832,-14.23 8.758,-16.3 m -9.68,-67.44 c -12.317,3.71 -25.297,-3.24 -29.012,-15.57 l -18.406,-61.07 c -3.711,-12.3 3.262,-25.31 15.562,-29.02 l 37.977,-11.43 c 12.301,-3.71 25.301,3.24 29.004,15.57 l 18.414,61.07 c 3.707,12.33 -3.262,25.29 -15.57,29.01 z m -86.699,-460.33 c 6.933,-2.07 14.238,1.83 16.316,8.77 l 24.297,80.58 c 2.082,6.92 -1.84,14.24 -8.766,16.31 l -57.468,17.35 c -6.922,2.07 -14.227,-1.84 -16.321,-8.77 l -24.285,-80.61 c -2.09,-6.89 1.832,-14.2 8.754,-16.31 z m -72.321,-239.94 c 6.922,-2.07 14.231,1.85 16.325,8.77 l 24.292,80.58 c 2.079,6.92 -1.843,14.24 -8.765,16.33 l -57.481,17.31 c -6.925,2.09 -14.222,-1.82 -16.312,-8.75 l -24.285,-80.59 c -2.094,-6.93 1.828,-14.24 8.75,-16.31 z m -80.465,-231.66 -37.98,11.44 c -12.301,3.71 -25.297,-3.28 -29.008,-15.58 l -18.406,-61.08 c -3.711,-12.32 3.262,-25.29 15.57,-29 l 37.977,-11.47 c 12.304,-3.71 25.297,3.28 29.008,15.57 l 18.402,61.09 c 3.711,12.33 -3.262,25.32 -15.563,29.03 m 19.426,64.47 c 12.321,-3.71 25.301,3.26 29.012,15.57 L 640,2355.19 c 3.711,12.32 -3.262,25.31 -15.57,29.02 l -37.969,11.45 c -12.316,3.71 -25.301,-3.26 -29.012,-15.57 L 539.031,2319 c -3.711,-12.33 3.27,-25.29 15.574,-29.01 z m 79.809,1210.54 424.757,-128.02 c 4.38,-1.31 8.8,-1.94 13.14,-1.94 19.58,0 37.74,12.74 43.68,32.43 l 81.36,269.94 c 7.26,24.08 -6.42,49.56 -30.5,56.82 l -424.761,128.03 c -24.082,7.26 -49.563,-6.43 -56.813,-30.5 l -81.367,-269.94 c -7.25,-24.06 6.426,-49.55 30.504,-56.82 m 163.043,455.13 369.274,-111.3 c 4.91,-1.48 9.87,-2.19 14.75,-2.19 21.99,0 42.38,14.31 49.04,36.44 l 155.1,514.55 c 8.15,27.03 -7.21,55.65 -34.24,63.8 l -369.28,111.31 c -27.019,8.16 -55.652,-7.22 -63.793,-34.25 L 801.184,4008.02 c -8.149,-27.03 7.214,-55.65 34.242,-63.8 m 543.294,772.37 3.4,-1.22 30.93,-11.06 c 11.46,-3.94 22.88,-8.01 34.18,-12.33 11.3,-4.29 22.6,-8.55 33.47,-13.48 2.86,-1.29 5.7,-2.64 8.44,-4.07 2.44,-1.27 4.81,-2.61 6.99,-4.05 1.08,-0.76 2.23,-1.59 2.99,-2.36 l 0.45,-0.44 c 0.02,-0.08 0.15,-0.55 0.2,-1.02 0.28,-2.28 0.21,-5.27 -0.01,-8.14 -2.3,-23.51 -7.88,-47.38 -12.4,-71.11 -4.89,-23.74 -10.01,-47.47 -14.64,-71.36 7.91,23.01 14.71,46.36 20.9,69.89 6.17,23.6 12.02,47.08 14.71,71.91 0.23,3.19 0.51,6.29 0.02,10.04 -0.17,0.99 -0.3,1.94 -0.88,3.31 -0.15,0.51 -0.94,1.7 -1.35,2.12 l -1.04,1 c -0.24,0.24 -0.47,0.39 -0.7,0.6 -1.16,1.03 -2.31,1.86 -3.48,2.65 -5.55,3.6 -11.17,6.18 -16.84,8.67 -11.39,4.75 -22.92,8.81 -34.58,12.4 -11.67,3.56 -23.39,6.85 -35.15,10 -10.66,2.56 -21.3,5.15 -32.06,7.29 -1.19,0.24 -2.36,0.54 -3.55,0.76 m 140.37,116.3 c -3.09,-10.41 -5.97,-20.88 -8.67,-31.41 -5.98,-24.28 -11.32,-48.71 -14.17,-73.96 9.38,23.28 16.27,47.39 22.53,71.66 3.36,13.61 6.46,27.28 9.08,41.09 2.06,10.87 3.85,21.8 5.07,32.87 -5.33,-13.25 -9.79,-26.71 -13.84,-40.25 m 88.51,-508.73 c 0,0 35.72,-46.79 24.44,-84.21 L 825.859,1544.21 686.098,1439 c -18.356,-13.83 -42.203,-18.07 -64.196,-11.45 l -586.32,176.74 c -26.44137,7.97 -41.41403,35.86 -33.44528,62.31 l 42.62888,141.42 117.0154,228.87 502.938,1668.59 18.34,220.19 207.004,686.8 c 20.96,29.71 23.199,53.04 85.289,43.94 62.088,-9.11 312.058,-80.04 312.058,-80.04 l 49.67,138.99 c 6.52,18.27 26.23,28.21 44.81,22.61 l 6.46,-1.94 57.07,189.3 20.08,-6.05 177.16,587.74 c 6.91,22.95 31.11,35.96 54.06,29.03 22.96,-6.92 35.96,-31.13 29.04,-54.07 l -177.15,-587.75 20.08,-6.05 -57.06,-189.31 4.19,-1.27 c 16.2,-4.87 25.79,-21.52 21.88,-37.98 l -37.12,-156.73 c 47.8,-57.75 107.02,-178.73 107.02,-178.73 M 936.992,3970.5 1185.2,3895.68 c 4.76,-1.43 9.57,-2.12 14.29,-2.12 21.32,0 41.06,13.87 47.52,35.31 l 124.57,413.29 c 3.84,12.69 2.49,26.11 -3.78,37.79 -6.26,11.67 -16.71,20.21 -29.4,24.03 l -248.2,74.81 c -26.18,7.9 -53.92,-6.98 -61.82,-33.17 L 903.813,4032.31 c -7.895,-26.18 6.992,-53.92 33.179,-61.81 m -121.965,33.35 155.102,514.55 c 2.824,9.39 9.148,17.13 17.797,21.77 5.418,2.91 11.344,4.38 17.324,4.38 3.56,0 7.14,-0.51 10.65,-1.58 l 369.27,-111.31 c 19.4,-5.83 30.42,-26.37 24.57,-45.77 l -155.1,-514.55 c -5.84,-19.39 -26.39,-30.41 -45.77,-24.57 l -369.268,111.31 c -19.399,5.84 -30.418,26.37 -24.575,45.77 m 145.293,17.14 c 7.297,-2.2 14.989,1.94 17.192,9.22 2.195,7.3 -1.938,14.99 -9.227,17.2 -7.301,2.19 -14.992,-1.94 -17.191,-9.23 -2.199,-7.3 1.937,-15 9.226,-17.19 m 20.77,68.9 c 7.289,-2.19 14.988,1.93 17.187,9.23 2.203,7.29 -1.933,14.99 -9.23,17.18 -7.289,2.21 -14.984,-1.93 -17.184,-9.22 -2.195,-7.3 1.93,-14.99 9.227,-17.19 m 20.77,68.9 c 7.29,-2.2 14.99,1.94 17.18,9.23 2.2,7.29 -1.92,14.99 -9.22,17.18 -7.3,2.21 -14.996,-1.92 -17.191,-9.22 -2.199,-7.3 1.937,-14.99 9.231,-17.19 m 20.76,68.9 c 7.29,-2.2 14.99,1.93 17.2,9.23 2.19,7.29 -1.94,14.98 -9.24,17.19 -7.29,2.2 -14.98,-1.94 -17.18,-9.24 -2.2,-7.29 1.93,-14.98 9.22,-17.18 m 20.78,68.9 c 7.29,-2.2 14.98,1.94 17.18,9.23 2.19,7.29 -1.93,14.99 -9.23,17.19 -7.29,2.2 -14.98,-1.93 -17.19,-9.23 -2.19,-7.29 1.94,-14.99 9.24,-17.19 m 20.76,68.9 c 7.3,-2.19 15,1.94 17.19,9.23 2.2,7.29 -1.94,14.99 -9.23,17.19 -7.3,2.2 -14.99,-1.94 -17.19,-9.23 -2.2,-7.3 1.93,-14.98 9.23,-17.19 m 10.65,-214.28 c -2.2,-7.29 1.94,-14.99 9.23,-17.2 7.29,-2.19 14.99,1.94 17.19,9.24 2.19,7.29 -1.93,14.99 -9.23,17.19 -7.3,2.2 -14.99,-1.93 -17.19,-9.23 m 29.99,51.71 c 7.29,-2.2 14.99,1.93 17.2,9.23 2.19,7.29 -1.94,14.99 -9.24,17.19 -7.29,2.19 -14.98,-1.93 -17.18,-9.23 -2.2,-7.29 1.93,-14.99 9.22,-17.19 m 20.78,68.9 c 7.29,-2.2 14.98,1.93 17.18,9.23 2.2,7.29 -1.93,14.99 -9.22,17.19 -7.29,2.19 -15,-1.94 -17.2,-9.23 -2.19,-7.3 1.94,-14.99 9.24,-17.19 m 20.76,68.91 c 7.3,-2.21 15,1.92 17.19,9.22 2.2,7.3 -1.94,14.99 -9.23,17.18 -7.29,2.21 -14.99,-1.93 -17.19,-9.22 -2.19,-7.29 1.93,-14.99 9.23,-17.18 m 10.65,-214.29 c -2.2,-7.29 1.94,-14.99 9.23,-17.19 7.3,-2.2 14.99,1.93 17.19,9.23 2.2,7.3 -1.93,14.99 -9.23,17.19 -7.3,2.19 -15,-1.94 -17.19,-9.23 m 30,51.71 c 7.29,-2.2 14.98,1.93 17.19,9.23 2.19,7.3 -1.94,14.99 -9.23,17.19 -7.29,2.19 -14.99,-1.94 -17.19,-9.23 -2.19,-7.29 1.93,-14.99 9.23,-17.19 m 20.77,68.91 c 7.29,-2.21 14.98,1.92 17.18,9.21 2.21,7.3 -1.93,15 -9.22,17.2 -7.29,2.19 -15,-1.93 -17.19,-9.23 -2.2,-7.3 1.93,-14.99 9.23,-17.18 m 20.76,68.89 c 7.29,-2.2 15,1.94 17.19,9.23 2.2,7.3 -1.94,14.99 -9.23,17.19 -7.29,2.2 -14.99,-1.94 -17.18,-9.23 -2.2,-7.3 1.92,-14.99 9.22,-17.19 m 10.66,-214.29 c -2.21,-7.29 1.92,-14.98 9.21,-17.18 7.3,-2.2 15,1.93 17.2,9.22 2.2,7.3 -1.93,15 -9.23,17.19 -7.3,2.2 -14.98,-1.93 -17.18,-9.23 m 29.99,51.72 c 7.29,-2.2 14.99,1.94 17.19,9.23 2.19,7.29 -1.94,14.98 -9.23,17.18 -7.3,2.2 -14.99,-1.93 -17.19,-9.22 -2.19,-7.3 1.94,-15 9.23,-17.19 m 20.77,68.9 c 7.29,-2.2 14.99,1.93 17.18,9.22 2.21,7.3 -1.92,14.99 -9.22,17.2 -7.29,2.2 -14.99,-1.94 -17.2,-9.24 -2.19,-7.29 1.94,-14.98 9.24,-17.18 m 20.76,68.9 c 7.29,-2.2 14.99,1.94 17.19,9.23 2.2,7.29 -1.93,14.99 -9.22,17.18 -7.3,2.2 -15,-1.93 -17.19,-9.22 -2.2,-7.29 1.93,-14.99 9.22,-17.19 m -75.1,-249.19 c -7.3,2.2 -14.99,-1.93 -17.19,-9.22 -2.21,-7.3 1.93,-14.99 9.23,-17.19 7.29,-2.2 14.98,1.93 17.17,9.22 2.21,7.3 -1.92,14.99 -9.21,17.19 m -20.77,-68.89 c -7.3,2.19 -14.99,-1.95 -17.19,-9.23 -2.2,-7.3 1.93,-14.98 9.22,-17.19 7.3,-2.2 15,1.92 17.2,9.22 2.19,7.3 -1.94,15 -9.23,17.2 m -61.42,93.66 c -7.29,2.2 -14.98,-1.93 -17.18,-9.22 -2.2,-7.29 1.92,-14.99 9.22,-17.19 7.29,-2.2 14.99,1.93 17.19,9.23 2.2,7.29 -1.93,14.99 -9.23,17.18 m -20.76,-68.89 c -7.3,2.19 -15,-1.94 -17.2,-9.24 -2.19,-7.28 1.94,-14.99 9.23,-17.18 7.3,-2.19 15,1.93 17.2,9.23 2.19,7.29 -1.94,14.98 -9.23,17.19 m -61.42,93.67 c -7.29,2.2 -14.98,-1.93 -17.18,-9.23 -2.2,-7.3 1.92,-14.99 9.22,-17.19 7.29,-2.2 14.99,1.94 17.19,9.23 2.2,7.29 -1.93,14.99 -9.23,17.19 m -20.76,-68.91 c -7.3,2.21 -15,-1.92 -17.19,-9.22 -2.2,-7.3 1.93,-14.99 9.22,-17.19 7.3,-2.2 14.99,1.93 17.19,9.22 2.2,7.3 -1.93,14.99 -9.22,17.19 m -135.853,6.43 124.573,413.3 c 5,16.56 20.25,27.26 36.72,27.26 3.64,0 7.36,-0.53 11.04,-1.63 l 248.2,-74.82 c 20.23,-6.09 31.73,-27.51 25.63,-47.74 l -124.57,-413.3 c -2.96,-9.81 -9.55,-17.86 -18.57,-22.71 -9.01,-4.84 -19.37,-5.89 -29.18,-2.93 l -248.21,74.81 c -20.227,6.1 -31.734,27.53 -25.633,47.76 M 676.559,3502.95 1101.32,3374.91 c 16.45,-4.93 33.83,4.39 38.79,20.83 l 81.37,269.93 c 4.95,16.45 -4.39,33.84 -20.83,38.8 L 775.891,3832.5 c -16.438,4.94 -33.84,-4.38 -38.797,-20.82 l -81.356,-269.93 c -4.957,-16.45 4.383,-33.85 20.821,-38.8 m -385.754,-1718.31 194.172,-58.53 5.777,19.18 -194.172,58.53 z M 1957.22,3299.1 c 3.42,0 6.2,2.78 6.2,6.2 0,3.42 -2.78,6.2 -6.2,6.2 -3.42,0 -6.2,-2.78 -6.2,-6.2 0,-3.42 2.78,-6.2 6.2,-6.2 m 701.87,-391.31 c -3.38,123.73 -50.72,516.9 -59.83,559.08 -9.85,45.67 -84.33,94.76 -191.93,97.89 -103.7,3 -346.3,1.31 -378.14,-2.62 -71.82,-3.28 -138.22,-51.37 -154.53,-111.94 -14.72,-54.61 -69.84,-397.39 -63.44,-542.74 0.73,-49.18 8.1,-132.13 43.02,-213.36 1.06,-5.24 3.36,-9.98 6.43,-14.14 10.18,-21.57 22.31,-42.88 37,-63.25 71.48,-99.14 180.18,-149.39 323.1,-149.39 127.62,0 236.74,42.79 315.54,123.79 24.37,25.06 45.53,53.49 63.15,84.14 5.38,5.16 9.18,11.91 10.59,19.53 33.42,65.49 51.04,139.71 49.04,213.01 m -23.19,560.86 c 8.66,-40.41 64.47,-494.83 68.56,-645.51 2.35,-86.17 -22.92,-205.7 -96.52,-306.25 -9.59,7.3 -26.85,19.78 -49.65,33.61 -10.86,6.62 -24.38,6.76 -35.3,0.43 -73.06,-42.54 -138.36,-70.86 -199.65,-86.64 -19.15,-4.94 -32.16,-23.32 -30.93,-43.71 0.61,-10.08 1.32,-24.24 2.07,-39.49 0.73,-14.59 1.52,-30.08 2.31,-44.08 -25.28,-3.38 -51.36,-5.12 -78.2,-5.12 -87.2,0 -157.63,16.8 -214.58,44.34 9.23,9.92 24.81,26.81 43.54,47.69 7.5,8.34 10.54,19.41 8.34,30.41 -2.2,10.96 -9.26,20.02 -19.39,24.83 -21.37,10.15 -62.9,31.5 -100.91,60.56 -13.82,10.55 -32.65,12.25 -47.99,4.3 l -42.36,-21.9 c -67.81,111.41 -78.44,241.7 -79.34,301.74 -7.32,167.37 55.68,561.64 72.49,624.47 16.74,62.52 85.75,112.15 160.55,115.45 l 0.88,0.08 c 20.81,2.74 145.81,4.76 265.59,4.76 62.52,0 123.63,-0.55 167.73,-1.83 124.76,-3.65 194.74,-60.72 202.76,-98.14 M 2227.35,1829.23 c -59.56,0 -104.06,-21.11 -104.06,-39.98 0,-18.88 44.5,-39.98 104.06,-39.98 59.55,0 104.06,21.1 104.06,39.98 0,18.87 -44.51,39.98 -104.06,39.98 m -224.74,99.94 c 18.52,2.68 31,9.36 33.36,17.9 5.05,18.2 -32.2,50.42 -89.6,66.32 -20.19,5.61 -40.12,8.5 -57.88,8.5 -6.94,0 -13.54,-0.45 -19.72,-1.33 -18.53,-2.69 -31,-9.37 -33.35,-17.91 -5.05,-18.16 32.2,-50.41 89.59,-66.33 28.09,-7.77 55.62,-10.31 77.6,-7.15 m 31.58,-95.68 c -17.19,14.02 -42.12,26.04 -70.21,33.83 -20.19,5.59 -40.11,8.48 -57.88,8.48 -6.93,0 -13.54,-0.43 -19.71,-1.33 -18.53,-2.68 -31,-9.36 -33.36,-17.89 -2.37,-8.54 4.88,-20.71 19.39,-32.52 17.18,-14.03 42.12,-26.04 70.2,-33.81 28.09,-7.79 55.64,-10.33 77.6,-7.15 18.53,2.66 31,9.34 33.36,17.87 2.37,8.54 -4.87,20.69 -19.39,32.52 m 243.14,1573.29 c 0,50.66 -8.93,136.41 -42.35,136.41 -33.44,0 -42.36,-85.75 -42.36,-136.41 0,-50.68 8.92,-136.42 42.36,-136.42 33.42,0 42.35,85.74 42.35,136.42 m 306.02,56.68 c 7.52,-34.82 55.92,-426.26 59.48,-556.1 1.34,-48.79 -7.65,-110.12 -32.1,-171.04 v 342.64 c 0,19.98 -16.26,36.23 -36.24,36.23 h -684.75 c -19.99,0 -36.24,-16.25 -36.24,-36.23 v -335.72 c -21.07,66.77 -25.49,129.63 -26.02,164.7 -4.46,101.29 21.17,298.89 41.88,426.38 v -112.61 c 0,-39.84 32.41,-72.26 72.24,-72.26 h 31.24 c 39.83,0 72.24,32.42 72.24,72.26 v 167.17 c 0,39.85 -32.41,72.26 -72.24,72.26 h -31.24 c -21.11,0 -40.07,-9.16 -53.29,-23.64 0.73,3.25 1.44,6.2 2.06,8.47 14.57,54.12 74.71,97.08 139.87,99.93 l 0.69,0.06 c 18.08,2.37 126.62,4.11 230.59,4.11 54.17,0 107.11,-0.48 145.34,-1.58 108.56,-3.16 169.49,-52.62 176.49,-85.03 M 1831.49,2269.88 c 17.2,-14.03 42.13,-26.04 70.21,-33.83 57.39,-15.9 105.93,-7.44 110.96,10.74 2.37,8.54 -4.88,20.69 -19.39,32.52 -17.2,14.02 -42.13,26.02 -70.21,33.81 -20.19,5.61 -40.12,8.48 -57.89,8.48 -6.93,0 -13.53,-0.43 -19.7,-1.33 -18.53,-2.68 -31.01,-9.36 -33.37,-17.87 -2.36,-8.54 4.89,-20.69 19.39,-32.52 m 83.58,-187.46 c 57.38,-15.9 105.91,-7.44 110.96,10.72 5.04,18.2 -32.2,50.45 -89.6,66.35 -21.06,5.84 -40.93,8.4 -57.88,8.4 -29.28,0 -49.89,-7.62 -53.08,-19.15 -5.05,-18.18 32.2,-50.41 89.6,-66.32 m 312.28,-93.89 c -59.56,0 -104.06,-21.11 -104.06,-39.98 0,-18.89 44.5,-39.98 104.06,-39.98 59.55,0 104.06,21.09 104.06,39.98 0,18.87 -44.51,39.98 -104.06,39.98 m 497.46,835.16 c -3.89,143.65 -58.5,600.23 -68.99,649.22 -11.43,53.29 -97.61,110.6 -222.08,114.23 -119.56,3.49 -399.23,1.54 -436.12,-3.03 -83.14,-3.85 -160,-59.9 -178.9,-130.53 -16.97,-63.41 -80.55,-461.51 -73.18,-630.3 1.13,-75.75 15.61,-220.36 99.82,-337.97 82.57,-115.32 208.14,-173.79 373.23,-173.79 146.76,0 272.39,49.37 363.32,142.81 109.7,112.72 145.76,264.73 142.9,369.36 m -51.55,-515.86 c -4.73,17.05 -22.51,28.63 -50.09,32.61 -24.68,3.54 -55.21,0.82 -85.94,-7.69 -30.73,-8.52 -58.31,-21.9 -77.64,-37.66 -21.58,-17.61 -30.87,-36.7 -26.15,-53.73 6.14,-22.13 34.2,-34.26 72.51,-34.26 19.1,0 40.77,3.01 63.52,9.34 68.37,18.95 112.98,58.24 103.79,91.39 m -13.37,-153.66 c -9.19,33.19 -67.67,43.89 -136.03,24.95 -30.73,-8.52 -58.3,-21.9 -77.63,-37.66 -21.59,-17.62 -30.88,-36.7 -26.15,-53.75 6.13,-22.11 34.19,-34.26 72.5,-34.26 19.11,0 40.77,3.03 63.53,9.34 68.36,18.96 112.97,58.26 103.78,91.38 m -9.94,-146.07 c -9.19,33.16 -67.67,43.87 -136.03,24.92 -68.35,-18.94 -112.97,-58.24 -103.79,-91.4 4.73,-17.04 22.52,-28.62 50.09,-32.6 7.07,-1.04 14.61,-1.53 22.51,-1.53 19.68,0 41.5,3.13 63.44,9.22 68.35,18.95 112.96,58.25 103.78,91.39 m -17.62,-146.09 c -4.72,17.05 -22.51,28.63 -50.07,32.61 -24.7,3.56 -55.22,0.82 -85.95,-7.69 -30.74,-8.52 -58.31,-21.9 -77.64,-37.66 -21.59,-17.6 -30.87,-36.68 -26.15,-53.73 6.14,-22.13 34.19,-34.26 72.5,-34.26 19.12,0 40.79,3.03 63.53,9.34 68.35,18.95 112.97,58.24 103.78,91.39 m -280.55,368.81 c 0,34.41 -53.5,60.35 -124.43,60.35 -70.93,0 -124.43,-25.94 -124.43,-60.35 0,-34.4 53.5,-60.36 124.43,-60.36 70.93,0 124.43,25.96 124.43,60.36 m 0,-135.84 c 0,34.39 -53.5,60.35 -124.43,60.35 -70.93,0 -124.43,-25.96 -124.43,-60.35 0,-34.42 53.5,-60.36 124.43,-60.36 70.93,0 124.43,25.94 124.43,60.36 m 0,-146.43 c 0,34.39 -53.5,60.35 -124.43,60.35 -70.93,0 -124.43,-25.96 -124.43,-60.35 0,-34.41 53.5,-60.35 124.43,-60.35 70.93,0 124.43,25.94 124.43,60.35 m 0,-159.3 c 0,34.4 -53.5,60.35 -124.43,60.35 -70.93,0 -124.43,-25.95 -124.43,-60.35 0,-34.41 53.5,-60.35 124.43,-60.35 70.93,0 124.43,25.94 124.43,60.35 m -304.72,60.02 c -19.33,15.76 -46.89,29.14 -77.64,37.66 -30.73,8.51 -61.25,11.25 -85.94,7.69 -27.57,-3.98 -45.35,-15.56 -50.08,-32.61 -4.72,-17.05 4.56,-36.12 26.15,-53.73 19.32,-15.79 46.9,-29.14 77.63,-37.66 21.94,-6.07 43.75,-9.22 63.43,-9.22 7.9,0 15.44,0.51 22.52,1.52 27.57,3.99 45.35,15.57 50.08,32.62 4.72,17.05 -4.56,36.13 -26.15,53.73 m -127.49,67.44 c 21.94,-6.09 43.76,-9.22 63.43,-9.22 7.9,0 15.45,0.49 22.52,1.53 27.57,3.98 45.36,15.56 50.08,32.6 9.19,33.16 -35.43,72.46 -103.79,91.4 -30.74,8.52 -61.25,11.23 -85.95,7.7 -27.56,-3.99 -45.35,-15.57 -50.07,-32.62 -9.19,-33.14 35.42,-72.44 103.78,-91.39 m -9.94,146.08 c 22.76,-6.31 44.41,-9.34 63.52,-9.34 38.3,0 66.38,12.15 72.5,34.26 9.19,33.16 -35.42,72.46 -103.78,91.41 -68.36,18.94 -126.83,8.24 -136.03,-24.95 -9.18,-33.12 35.43,-72.42 103.79,-91.38 m -91.01,191.31 c 19.33,-15.77 46.9,-29.14 77.64,-37.66 22.76,-6.33 44.42,-9.34 63.53,-9.34 38.3,0 66.37,12.13 72.5,34.26 4.72,17.03 -4.56,36.12 -26.14,53.73 -19.33,15.76 -46.91,29.14 -77.64,37.66 -30.74,8.51 -61.26,11.23 -85.95,7.69 -27.58,-3.98 -45.36,-15.56 -50.08,-32.61 -4.73,-17.05 4.56,-36.12 26.14,-53.73 m 861.46,1178.28 c 93.96,-395.45 77,-1244.94 20.15,-1602.8 -5.05,-31.77 -35.88,-190.84 -147.41,-202.36 -137.97,-14.26 -521.09,-12.26 -639.91,0 -110.68,11.41 -134.89,132.29 -147.89,197.23 l -1.04,5.17 c -59.41,349.36 -74.02,1206.37 20.18,1602.8 22.15,96.8 113.32,161.31 232.23,164.37 49.11,0.92 171.61,1.8 274.18,1.8 76.06,0 141.18,-0.47 157.24,-1.8 118.94,-3.06 210.11,-67.57 232.27,-164.41 M 2579.35,1874.47 c -21.97,3.16 -49.53,0.62 -77.6,-7.15 -28.08,-7.79 -53.02,-19.81 -70.21,-33.83 -14.51,-11.83 -21.75,-23.98 -19.4,-32.52 5.05,-18.18 53.58,-26.66 110.97,-10.72 57.4,15.9 94.63,48.12 89.6,66.33 -2.36,8.53 -14.84,15.21 -33.36,17.89 m -352,260.49 c -59.56,0 -104.06,-21.12 -104.06,-39.98 0,-18.89 44.5,-39.99 104.06,-39.99 59.55,0 104.06,21.1 104.06,39.99 0,18.86 -44.51,39.98 -104.06,39.98 m 0,135.84 c -59.56,0 -104.06,-21.1 -104.06,-39.98 0,-18.87 44.5,-39.99 104.06,-39.99 59.55,0 104.06,21.12 104.06,39.99 0,18.88 -44.51,39.98 -104.06,39.98 m 347.14,824.02 h -684.75 c -8.76,0 -15.88,-7.11 -15.88,-15.86 v -377.58 c 0,-8.75 7.12,-15.86 15.88,-15.86 h 684.75 c 8.75,0 15.87,7.11 15.87,15.86 v 377.58 c 0,8.75 -7.12,15.86 -15.87,15.86 m -339.51,427.84 c -7.95,-4.67 -22,-47.04 -22,-115.88 0,-68.85 14.05,-111.22 22,-115.89 7.94,4.67 21.99,47.05 21.99,115.89 0,68.83 -14.05,111.21 -21.99,115.88 m 298.25,-989.34 c -74.69,-43.46 -141.69,-72.5 -204.81,-88.75 -9.72,-2.5 -16.33,-12.08 -15.68,-22.76 0.61,-10.14 1.32,-24.37 2.08,-39.71 0.69,-13.84 1.43,-28.53 2.18,-41.95 98.96,17.07 184.31,60.57 250.31,128.38 10.11,10.39 19.36,21.21 28.2,32.23 -9.22,6.97 -25.97,19.12 -47.8,32.34 -4.47,2.72 -10.01,2.81 -14.48,0.22 m -497.31,-82.99 c -0.92,4.61 -3.89,8.41 -8.16,10.43 -22.09,10.48 -65.05,32.59 -104.54,62.79 -7.58,5.8 -17.89,6.72 -26.26,2.4 l -40.7,-21.05 c 31.18,-46.08 72.96,-87.97 128.94,-118.99 8.14,8.73 25.53,27.48 47.21,51.6 3.15,3.54 4.44,8.19 3.51,12.82 m 541.32,-428.54 c -16.97,0 -36.82,-2.56 -57.88,-8.4 -57.4,-15.9 -94.64,-48.12 -89.6,-66.32 2.36,-8.54 14.84,-15.22 33.37,-17.9 21.93,-3.16 49.52,-0.6 77.59,7.15 57.4,15.92 94.64,48.17 89.6,66.33 -3.19,11.52 -23.82,19.14 -53.08,19.14 m 9.95,146.1 c -16.97,0 -36.82,-2.56 -57.89,-8.4 -28.07,-7.8 -53.01,-19.79 -70.2,-33.83 -14.51,-11.82 -21.76,-23.97 -19.39,-32.52 5.04,-18.16 53.57,-26.62 110.96,-10.72 57.39,15.91 94.64,48.14 89.6,66.32 -3.2,11.53 -23.82,19.15 -53.08,19.15 m 33.07,152.38 c -21.95,3.2 -49.51,0.64 -77.59,-7.15 -28.08,-7.79 -53.01,-19.79 -70.21,-33.81 -14.51,-11.83 -21.75,-23.98 -19.39,-32.52 5.05,-18.18 53.58,-26.66 110.96,-10.74 57.4,15.92 94.64,48.16 89.6,66.35 -2.37,8.51 -14.84,15.19 -33.37,17.87 m -689.61,985.03 c 0,-14.65 11.92,-26.56 26.57,-26.56 14.65,0 26.57,11.91 26.57,26.56 0,14.65 -11.92,26.57 -26.57,26.57 -14.65,0 -26.57,-11.92 -26.57,-26.57 m -40.93,-83.59 v 167.17 c 0,28.62 23.27,51.9 51.88,51.9 h 31.24 c 28.6,0 51.88,-23.28 51.88,-51.9 v -167.17 c 0,-28.61 -23.28,-51.89 -51.88,-51.89 h -31.24 c -28.61,0 -51.88,23.28 -51.88,51.89 m -3.6,-556.19 c 20.63,-38.1 48.42,-74.45 85.8,-104.51 121,73.83 382.89,75.57 509.4,3.36 15.33,11.54 29.81,24.2 43.33,38.09 19.14,19.68 35.42,40.82 49.41,62.69 h -684.32 c -1.25,0 -2.42,0.24 -3.62,0.37 m 245.64,-126.68 h 191.18 c 4.93,0 8.94,4.05 8.94,8.95 v 4.51 c 0,4.9 -4.01,8.93 -8.94,8.93 h -191.18 c -4.92,0 -8.95,-4.03 -8.95,-8.93 v -4.51 c 0,-4.9 4.03,-8.95 8.95,-8.95 m 89.01,-31.58 c -81.45,0 -151.77,17.27 -209.49,51.25 113.17,49.77 312.05,51.11 429.36,3.01 -62.87,-36 -136.74,-54.26 -219.87,-54.26 m 0,-20.37 c 87.38,0 165.16,19.43 231.47,57.75 -65.29,-40.09 -143.76,-61.05 -231.47,-61.05 -100.47,0 -175.37,25.43 -231.2,64.24 0.04,0.02 0.08,0.06 0.13,0.08 62.94,-40.45 140.6,-61.02 231.07,-61.02"
         style="fill:#100f0d;fill-opacity:1;fill-rule:nonzero;stroke:none"
         transform="matrix(0.13333333,0,0,-0.13333333,0,738.38667)" />
      <path
         id="path28"
         d="m 3695.51,2754.49 c -52.25,0 -85.61,16.87 -85.61,28.51 0,11.64 33.36,28.54 85.61,28.54 52.26,0 85.6,-16.9 85.6,-28.54 0,-11.64 -33.34,-28.51 -85.6,-28.51 m 102.55,28.51 c 0,29.53 -52.83,45.47 -102.55,45.47 -49.71,0 -102.54,-15.94 -102.54,-45.47 0,-29.53 52.83,-45.45 102.54,-45.45 49.72,0 102.55,15.92 102.55,45.45 m -434.51,1206.03 -7.85,0.54 22.87,330.93 c 1.04,29.43 7.58,57.18 48.02,60.01 l 0.56,-7.84 c -32.44,-2.28 -39.63,-21.82 -40.72,-52.57 z m -35.82,-46.92 h 239.81 c 9.75,0 17.68,-7.93 17.68,-17.7 0,-9.75 -7.93,-17.68 -17.68,-17.68 h -239.81 c -9.75,0 -17.69,7.93 -17.69,17.68 0,9.77 7.94,17.7 17.69,17.7 m 0,-43.25 h 239.81 c 14.08,0 25.55,11.46 25.55,25.55 0,14.11 -11.47,25.56 -25.55,25.56 h -239.81 c -14.1,0 -25.55,-11.45 -25.55,-25.56 0,-14.09 11.45,-25.55 25.55,-25.55 m 259.46,-1838.24 h 216.65 v -10.02 h -216.65 z m -259.73,4.3 165.84,0.86 v -10.02 h -1.03 l -160.69,0.86 -4.12,-787.23 -4.14,791.39 -0.02,4.1 z m 709.13,0.11 4.29,-0.02 -0.03,-4.23 -4.26,-791.39 -4.23,787.11 -133.77,-0.74 h -0.87 v 10.02 z m -271.12,-531.81 c 0,-2.66 -2.15,-4.81 -4.8,-4.81 h -157.28 c -2.65,0 -4.8,2.15 -4.8,4.81 v 37.44 c 0,2.66 2.15,4.82 4.8,4.82 h 157.28 c 2.65,0 4.8,-2.16 4.8,-4.82 z m -4.8,61.09 h -157.28 c -13.04,0 -23.64,-10.6 -23.64,-23.65 v -37.44 c 0,-13.05 10.6,-23.65 23.64,-23.65 h 157.28 c 13.04,0 23.65,10.6 23.65,23.65 v 37.44 c 0,13.05 -10.61,23.65 -23.65,23.65 m -122.04,654.59 h 113.76 v -57.05 h -113.76 z m -16.95,-73.98 h 147.66 v 90.93 h -147.66 z m 130.71,166.46 h -113.76 v 57.03 h 113.76 z m 16.95,73.97 h -147.66 v -90.92 h 147.66 z m -16.95,55.19 h -113.76 v 57.05 h 113.76 z m 16.95,73.99 h -147.66 v -90.94 h 147.66 z m -16.95,75.52 h -113.76 v 57.05 h 113.76 z m 16.95,73.99 h -147.66 v -90.94 h 147.66 z m 101.11,-445.14 h 113.77 v -57.05 h -113.77 z m -16.93,-73.98 h 147.64 v 90.93 h -147.64 z m 16.93,223.49 h 113.77 v -57.05 h -113.77 z m -16.93,-73.98 h 147.64 v 90.94 h -147.64 z m 16.93,203.14 h 113.77 v -57.05 h -113.77 z m -16.93,-73.96 h 147.64 v 90.92 h -147.64 z m 16.93,223.47 h 113.77 v -57.03 h -113.77 z m -16.93,-73.96 h 147.64 v 90.92 H 3853.52 Z M 3406.81,2248.9 h 113.77 v -57.05 h -113.77 z m -16.95,-73.98 h 147.66 v 90.93 h -147.66 z m 16.95,223.49 h 113.77 v -57.05 h -113.77 z m -16.95,-73.98 h 147.66 v 90.94 h -147.66 z m 16.95,203.14 h 113.77 v -57.05 h -113.77 z m -16.95,-73.96 h 147.66 v 90.92 h -147.66 z m 594.36,293.14 h -113.77 v 57.03 h 113.77 z m 16.94,73.99 h -147.64 v -90.94 h 147.64 z m -594.35,-16.96 h 113.77 v -57.03 h -113.77 z m -16.95,-73.98 h 147.66 v 90.94 h -147.66 z m 16.95,-52.72 h 113.77 v -57.03 h -113.77 z m -16.95,-73.96 h 147.66 v 90.92 h -147.66 z m 432.41,304.26 c 0,-2.54 -2.05,-4.59 -4.57,-4.59 h -244.37 c -2.53,0 -4.58,2.05 -4.58,4.59 v 39.16 c 0,2.52 2.05,4.57 4.58,4.57 h 244.37 c 2.52,0 4.57,-2.05 4.57,-4.57 z m -4.57,64.31 h -244.37 c -13.88,0 -25.17,-11.28 -25.17,-25.15 v -39.16 c 0,-13.87 11.29,-25.18 25.17,-25.18 h 244.37 c 13.86,0 25.15,11.31 25.15,25.18 v 39.16 c 0,13.87 -11.29,25.15 -25.15,25.15 m -186.51,639.02 v 128.06 c 0,4.5 3.65,8.14 8.15,8.14 4.5,0 8.14,-3.64 8.14,-8.14 v -128.06 c 0,-4.5 -3.64,-8.14 -8.14,-8.14 -4.5,0 -8.15,3.64 -8.15,8.14 m 115.33,0 v 128.06 c 0,4.5 3.66,8.14 8.15,8.14 4.5,0 8.14,-3.64 8.14,-8.14 v -128.06 c 0,-4.5 -3.64,-8.14 -8.14,-8.14 -4.49,0 -8.15,3.64 -8.15,8.14 m -61.3,-38.19 v 204.45 c 0,5.69 4.61,10.29 10.29,10.29 5.68,0 10.29,-4.6 10.29,-10.29 v -204.45 c 0,-5.69 -4.61,-10.29 -10.29,-10.29 -5.68,0 -10.29,4.6 -10.29,10.29 m 363.03,-71.9 -28.27,-1.92 v 3.85 z m -87.27,-5 -59,-2.2 v 14.41 l 59,-2.2 z m -117.99,-3.76 -58.99,-0.98 v 19.48 l 58.99,-0.97 z M 3725,3490.49 c -19.66,-0.19 -39.32,-0.17 -58.98,0.01 v 20.25 c 19.66,0.17 39.32,0.2 58.98,0.01 z m -117.98,0.43 -58.99,0.96 v 17.49 l 58.99,0.96 z m -117.99,2.53 -58.99,2.19 v 9.97 l 58.99,2.19 z m -117.99,5.26 -28.27,1.91 28.27,1.92 z m -17.98,-60.81 h 684.9 v -362.87 h -684.9 z m -20.58,-383.43 h 726.06 v 404.02 h -726.06 z m 751.91,-16.6 c 0,-19.96 -16.25,-36.21 -36.21,-36.21 h -705.33 c -19.98,0 -36.23,16.25 -36.23,36.21 v 765.03 c 0,19.97 16.25,36.22 36.23,36.22 h 705.33 c 19.96,0 36.21,-16.25 36.21,-36.22 z m -36.21,821.83 h -705.33 c -31.33,0 -56.8,-25.47 -56.8,-56.8 v -765.03 c 0,-31.33 25.47,-56.8 56.8,-56.8 h 705.33 c 31.32,0 56.79,25.47 56.79,56.8 v 765.03 c 0,31.33 -25.47,56.8 -56.79,56.8 m 604.96,769.65 c 4.6,6.41 11.43,10.64 19.21,11.92 1.62,0.26 3.25,0.39 4.85,0.39 6.12,0 12.09,-1.9 17.18,-5.56 6.4,-4.6 10.62,-11.43 11.9,-19.21 2.64,-16.07 -8.31,-31.29 -24.38,-33.92 -16.07,-2.65 -31.28,8.3 -33.92,24.37 -1.28,7.79 0.56,15.61 5.16,22.01 m 23.97,-63.06 c 2.45,0 4.93,0.21 7.42,0.62 24.93,4.08 41.89,27.68 37.81,52.6 -1.98,12.09 -8.54,22.67 -18.48,29.81 -9.93,7.14 -22.05,9.98 -34.12,8 -12.08,-1.97 -22.67,-8.53 -29.82,-18.47 -7.13,-9.93 -9.98,-22.06 -8,-34.14 3.69,-22.42 23.17,-38.42 45.19,-38.42 m 1066.64,250.37 c 1.62,0.27 3.23,0.39 4.83,0.39 6.14,0 12.1,-1.9 17.18,-5.55 6.41,-4.61 10.64,-11.43 11.91,-19.22 2.63,-16.07 -8.3,-31.29 -24.37,-33.92 -7.79,-1.27 -15.59,0.56 -22.01,5.17 -6.41,4.6 -10.64,11.42 -11.91,19.2 -2.63,16.08 8.31,31.31 24.37,33.93 m -21.95,-66.35 c 7.87,-5.66 17.12,-8.62 26.63,-8.62 2.49,0 4.98,0.2 7.49,0.61 24.93,4.09 41.89,27.68 37.82,52.61 -1.98,12.08 -8.54,22.66 -18.49,29.8 -9.93,7.14 -22.06,9.99 -34.13,8 -24.93,-4.07 -41.88,-27.67 -37.8,-52.6 1.97,-12.07 8.54,-22.66 18.48,-29.8 m 169.55,-2835.88 c -4.9,-6.84 -12.12,-11.33 -20.34,-12.68 l -377.46,-61.77 c -17.04,-2.9 -33.18,8.8 -35.98,25.84 -2.78,17.05 8.81,33.2 25.86,35.99 l 377.45,61.8 c 1.68,0.25 3.39,0.41 5.07,0.41 6.49,0 12.83,-2.03 18.25,-5.94 6.82,-4.9 11.31,-12.11 12.66,-20.35 1.34,-8.2 -0.61,-16.49 -5.51,-23.3 m 2.34,56.85 c -10.34,7.45 -22.95,10.43 -35.44,8.38 l -377.46,-61.79 c -25.89,-4.26 -43.52,-28.77 -39.29,-54.69 3.82,-23.3 24.08,-39.9 46.97,-39.9 2.54,0 5.12,0.19 7.7,0.62 l 377.46,61.8 h 0.01 c 25.9,4.24 43.52,28.77 39.28,54.67 -2.05,12.5 -8.88,23.49 -19.23,30.91 m -888.84,2716.9 c 4.91,6.83 12.13,11.32 20.35,12.67 l 377.46,61.79 c 1.71,0.27 3.4,0.41 5.07,0.41 15.07,0 28.39,-10.92 30.9,-26.27 2.8,-17.05 -8.81,-33.19 -25.85,-35.98 L 5035.33,4639 c -8.21,-1.33 -16.5,0.63 -23.33,5.52 -6.8,4.91 -11.31,12.13 -12.64,20.34 -1.36,8.22 0.59,16.5 5.49,23.32 m -2.33,-56.87 c 8.21,-5.9 17.83,-8.99 27.69,-8.99 2.57,0 5.16,0.2 7.74,0.63 l 377.45,61.79 c 25.91,4.24 43.54,28.77 39.3,54.67 -4.24,25.91 -28.83,43.53 -54.67,39.29 l -377.45,-61.79 c -12.51,-2.05 -23.5,-8.88 -30.94,-19.23 -7.42,-10.36 -10.4,-22.94 -8.35,-35.45 2.04,-12.5 8.87,-23.48 19.23,-30.92 m -51.53,-2717.49 -416.78,2545.8 1410.73,230.93 416.76,-2545.79 z m 1008.52,2787.27 -1.31,7.93 -1442.45,-236.14 420.67,-2569.58 1.29,-7.95 1434.52,234.84 7.94,1.31 z m -4440.41,131.8 c 4.04,13.55 8.5,27 13.83,40.25 -1.22,-11.07 -3.01,-22 -5.07,-32.87 -2.62,-13.81 -5.72,-27.48 -9.08,-41.1 -6.26,-24.26 -13.15,-48.37 -22.53,-71.65 2.85,25.25 8.19,49.69 14.17,73.96 2.7,10.52 5.58,20.99 8.68,31.41 m -136.97,-117.52 -3.41,1.22 c 1.19,-0.23 2.36,-0.52 3.55,-0.75 10.76,-2.14 21.4,-4.73 32.06,-7.3 11.76,-3.16 23.47,-6.45 35.15,-10 11.66,-3.6 23.19,-7.65 34.58,-12.41 5.67,-2.48 11.3,-5.07 16.84,-8.67 1.17,-0.79 2.32,-1.61 3.48,-2.64 0.23,-0.2 0.46,-0.36 0.7,-0.59 l 1.03,-1 c 0.43,-0.43 1.21,-1.62 1.35,-2.13 0.59,-1.37 0.72,-2.33 0.89,-3.31 0.48,-3.75 0.21,-6.86 -0.02,-10.04 -2.69,-24.82 -8.54,-48.3 -14.71,-71.9 -6.19,-23.53 -12.99,-46.89 -20.9,-69.91 4.63,23.89 9.75,47.62 14.64,71.37 4.52,23.73 10.1,47.6 12.4,71.11 0.22,2.87 0.29,5.86 0.02,8.14 -0.06,0.46 -0.19,0.94 -0.21,1.03 l -0.45,0.43 c -0.76,0.78 -1.91,1.59 -3,2.35 -2.17,1.46 -4.54,2.79 -6.98,4.06 -2.74,1.43 -5.58,2.78 -8.44,4.06 -10.87,4.94 -22.17,9.21 -33.47,13.49 -11.3,4.32 -22.71,8.39 -34.18,12.32 z m -698.025,-2857.54 4.415,-1.45 -1.368,-4.26 -11.656,-36.11 c -3.812,-12.05 -8.008,-24 -11.988,-36 -8.11,-23.98 -16.059,-47.98 -24.508,-71.85 6.133,24.57 12.781,48.98 19.281,73.44 3.301,12.2 6.422,24.47 9.903,36.62 l 8.98,32.05 c -39.348,11.03 -78.711,21.97 -117.894,33.51 -40.707,11.7 -81.204,24.05 -121.813,36.06 -40.48,12.42 -81.051,24.53 -121.426,37.28 -39.058,12.04 -77.91,24.69 -116.801,37.23 l -10.238,-31.68 c -3.804,-12.07 -8.008,-24 -11.988,-36.01 -8.09,-23.97 -16.035,-47.99 -24.488,-71.86 6.144,24.55 12.797,48.96 19.297,73.42 3.316,12.2 6.417,24.47 9.898,36.62 l 10.246,36.54 1.203,4.3 4.445,-1.25 c 40.793,-11.45 81.606,-22.74 122.215,-34.71 40.703,-11.7 81.211,-24.02 121.813,-36.03 40.484,-12.43 81.058,-24.52 121.433,-37.29 40.469,-12.46 80.743,-25.57 121.039,-38.57 m 574.945,1553.23 c 24.15,75.98 47.83,152.08 72.39,227.93 -21.44,-76.79 -43.77,-153.3 -65.63,-229.96 l -67.08,-229.52 c -44.85,-152.97 -90.97,-305.55 -136.39,-458.34 -46.55,-152.46 -92.5,-305.1 -139.602,-457.39 l -70.929,-228.36 c -24.164,-75.97 -47.832,-152.07 -72.407,-227.91 21.426,76.78 43.762,153.31 65.61,229.97 l 67.066,229.51 c 44.902,152.95 90.962,305.56 136.432,458.34 46.57,152.46 92.48,305.11 139.62,457.38 z m -603.323,130.68 81.367,269.94 c 4.957,16.43 22.359,25.75 38.797,20.82 l 424.759,-128.03 c 16.44,-4.95 25.78,-22.35 20.83,-38.79 l -81.37,-269.94 c -4.96,-16.43 -22.34,-25.77 -38.79,-20.82 l -424.761,128.03 c -16.438,4.95 -25.778,22.35 -20.832,38.79 m 16.656,-52.64 424.757,-128.03 c 4.37,-1.31 8.79,-1.95 13.14,-1.95 19.58,0 37.74,12.75 43.68,32.44 l 81.36,269.94 c 7.26,24.08 -6.42,49.56 -30.5,56.82 l -424.757,128.03 c -24.086,7.26 -49.567,-6.42 -56.817,-30.49 l -81.367,-269.95 c -7.246,-24.07 6.426,-49.55 30.504,-56.81 m 551.677,466.81 c -2.21,-7.31 -9.89,-11.43 -17.19,-9.23 -7.3,2.2 -11.43,9.89 -9.23,17.19 2.19,7.29 9.89,11.42 17.19,9.23 7.29,-2.2 11.42,-9.91 9.23,-17.19 m -82.18,24.76 c -2.21,-7.29 -9.9,-11.42 -17.2,-9.22 -7.29,2.2 -11.42,9.89 -9.23,17.18 2.2,7.3 9.9,11.43 17.2,9.24 7.29,-2.2 11.42,-9.9 9.23,-17.2 m -82.19,24.78 c -2.2,-7.31 -9.89,-11.43 -17.19,-9.23 -7.29,2.2 -11.42,9.89 -9.22,17.19 2.19,7.29 9.89,11.42 17.19,9.23 7.29,-2.2 11.42,-9.9 9.22,-17.19 m -108.596,32.73 c 2.199,7.3 9.89,11.43 17.191,9.23 7.289,-2.21 11.422,-9.9 9.227,-17.19 -2.203,-7.3 -9.899,-11.43 -17.192,-9.23 -7.289,2.2 -11.418,9.9 -9.226,17.19 m 293.716,-13.38 c -2.19,-7.29 -9.88,-11.42 -17.18,-9.22 -7.29,2.19 -11.42,9.89 -9.22,17.19 2.2,7.29 9.89,11.43 17.18,9.22 7.3,-2.2 11.43,-9.89 9.22,-17.19 m -82.17,24.78 c -2.2,-7.3 -9.9,-11.43 -17.19,-9.23 -7.3,2.19 -11.42,9.89 -9.22,17.19 2.2,7.29 9.89,11.42 17.18,9.23 7.3,-2.21 11.43,-9.9 9.23,-17.19 m -82.18,24.77 c -2.2,-7.3 -9.9,-11.43 -17.19,-9.22 -7.3,2.19 -11.42,9.88 -9.22,17.17 2.2,7.3 9.89,11.43 17.18,9.23 7.3,-2.19 11.43,-9.89 9.23,-17.18 m -108.605,32.73 c 2.208,7.29 9.903,11.43 17.192,9.23 7.301,-2.2 11.433,-9.9 9.23,-17.19 -2.199,-7.29 -9.898,-11.42 -17.183,-9.23 -7.301,2.19 -11.438,9.9 -9.239,17.19 m 284.505,3.82 c 7.3,-2.2 11.43,-9.91 9.23,-17.19 -2.2,-7.3 -9.89,-11.43 -17.19,-9.23 -7.29,2.19 -11.43,9.89 -9.23,17.18 2.2,7.3 9.89,11.44 17.19,9.24 m -82.18,24.76 c 7.3,-2.19 11.43,-9.89 9.23,-17.18 -2.2,-7.3 -9.89,-11.42 -17.19,-9.23 -7.29,2.2 -11.43,9.9 -9.23,17.19 2.19,7.29 9.89,11.43 17.19,9.22 m -82.18,24.77 c 7.3,-2.19 11.42,-9.89 9.23,-17.18 -2.2,-7.29 -9.9,-11.43 -17.19,-9.23 -7.29,2.2 -11.43,9.89 -9.23,17.19 2.2,7.29 9.89,11.42 17.19,9.22 m -99.367,15.56 c 2.191,7.29 9.887,11.42 17.187,9.22 7.29,-2.2 11.42,-9.89 9.22,-17.19 -2.19,-7.3 -9.89,-11.43 -17.18,-9.23 -7.305,2.2 -11.426,9.9 -9.227,17.2 m 267.317,-5.42 c 2.19,7.29 9.88,11.43 17.17,9.22 7.3,-2.2 11.44,-9.89 9.24,-17.18 -2.2,-7.3 -9.9,-11.43 -17.19,-9.24 -7.3,2.21 -11.42,9.91 -9.22,17.2 m -82.19,24.77 c 2.2,7.3 9.9,11.42 17.19,9.23 7.29,-2.2 11.43,-9.9 9.23,-17.2 -2.2,-7.29 -9.9,-11.42 -17.19,-9.23 -7.3,2.2 -11.42,9.9 -9.23,17.2 m -82.18,24.77 c 2.2,7.29 9.89,11.42 17.18,9.23 7.3,-2.2 11.43,-9.9 9.24,-17.19 -2.21,-7.29 -9.91,-11.42 -17.2,-9.23 -7.29,2.2 -11.43,9.89 -9.22,17.19 m -82.19,24.77 c 2.21,7.3 9.9,11.42 17.2,9.23 7.29,-2.2 11.42,-9.9 9.22,-17.2 -2.2,-7.29 -9.89,-11.42 -17.18,-9.21 -7.3,2.19 -11.43,9.89 -9.24,17.18 m 267.31,-5.41 c 2.2,7.29 9.91,11.42 17.2,9.23 7.3,-2.2 11.42,-9.9 9.22,-17.2 -2.19,-7.29 -9.89,-11.42 -17.18,-9.22 -7.3,2.2 -11.43,9.89 -9.24,17.19 m -82.17,24.76 c 2.19,7.3 9.9,11.43 17.19,9.24 7.29,-2.2 11.42,-9.91 9.22,-17.2 -2.2,-7.29 -9.89,-11.42 -17.18,-9.22 -7.3,2.2 -11.43,9.89 -9.23,17.18 m -82.19,24.77 c 2.2,7.31 9.91,11.44 17.2,9.23 7.29,-2.2 11.42,-9.89 9.22,-17.18 -2.2,-7.3 -9.89,-11.42 -17.18,-9.22 -7.3,2.19 -11.43,9.89 -9.24,17.17 m -82.17,24.78 c 2.2,7.29 9.89,11.42 17.18,9.23 7.29,-2.2 11.42,-9.89 9.23,-17.19 -2.2,-7.29 -9.89,-11.43 -17.19,-9.23 -7.29,2.19 -11.42,9.89 -9.22,17.19 m 267.31,-5.41 c 2.2,7.29 9.89,11.42 17.18,9.23 7.3,-2.21 11.43,-9.9 9.24,-17.19 -2.2,-7.3 -9.91,-11.43 -17.2,-9.23 -7.3,2.19 -11.42,9.89 -9.22,17.19 m -82.18,24.77 c 2.19,7.29 9.89,11.42 17.18,9.22 7.29,-2.19 11.43,-9.89 9.23,-17.18 -2.19,-7.3 -9.9,-11.44 -17.19,-9.24 -7.3,2.21 -11.42,9.91 -9.22,17.2 m -82.19,24.77 c 2.2,7.3 9.9,11.42 17.19,9.23 7.29,-2.2 11.43,-9.9 9.23,-17.19 -2.19,-7.29 -9.89,-11.42 -17.19,-9.23 -7.3,2.2 -11.43,9.9 -9.23,17.19 m -82.18,24.78 c 2.2,7.29 9.9,11.42 17.2,9.22 7.28,-2.2 11.42,-9.9 9.21,-17.19 -2.19,-7.29 -9.88,-11.42 -17.18,-9.23 -7.3,2.2 -11.43,9.9 -9.23,17.2 m 435.22,-58.01 c 9.78,30.29 19.6,60.56 29.69,90.76 -8.26,-30.75 -16.8,-61.41 -25.4,-92.06 -8.61,-30.64 -16.97,-61.36 -25.9,-91.9 l -52.97,-183.46 -54.35,-183.05 c -4.66,-15.27 -8.64,-30.4 -14.34,-46.04 -5.71,-15.43 -13.5,-30.27 -23.72,-43.59 -10.28,-13.13 -23.07,-25.19 -39.11,-32.18 -7.86,-3.78 -16.62,-5.59 -25.34,-6.39 -8.62,-0.63 -17.2,0.68 -25.42,2.88 -3.48,0.22 -5.56,0.86 -7.91,1.28 l -7.93,1.93 -15.47,4.19 -30.65,8.84 -60.95,18.41 c -40.54,12.51 -80.84,25.74 -121.196,38.78 -40.313,13.17 -80.7,26.1 -120.825,39.83 -40.168,13.61 -80.379,27.07 -120.379,41.18 l 122.114,-35.69 121.918,-36.26 121.948,-36.02 60.95,-17.87 30.54,-8.53 15.24,-4 7.55,-1.77 3.61,-0.71 c 1.54,-0.35 1.33,-0.09 2.04,-0.38 l 2.7,-0.24 c 6.95,-1.79 14.07,-2.87 21.18,-2.3 7.04,0.78 14.13,2.2 20.63,5.41 13.25,5.87 24.37,16.39 33.49,28.23 9.13,11.98 16.03,25.77 21.58,40.06 5.33,14.21 9.64,29.86 14.38,44.98 l 55.87,182.59 57.22,182.17 c 9.46,30.4 19.45,60.61 29.21,90.92 M 484.98,1726.11 l -194.179,58.53 5.781,19.18 194.176,-58.53 z m -198.078,95.72 -14.113,-46.87 221.863,-66.86 14.125,46.86 z M 89.8398,1666.91 579.664,1519.27 l -5.238,-17.36 -506.301,152.6 25.7148,85.25 16.4652,-4.96 z m 694.3552,459.24 -18.414,-61.1 c -3.711,-12.3 -16.695,-19.27 -29.004,-15.56 l -37.976,11.44 c -12.301,3.71 -19.274,16.7 -15.571,29.01 l 18.415,61.09 c 3.71,12.3 16.695,19.26 29.007,15.55 l 37.969,-11.43 c 12.313,-3.71 19.285,-16.7 15.574,-29 m -211.047,87.91 c 12.301,-3.71 19.274,-16.7 15.567,-28.99 l -18.41,-61.09 c -3.711,-12.32 -16.7,-19.28 -29.004,-15.57 l -37.977,11.43 c -12.308,3.71 -19.281,16.72 -15.57,29.02 l 18.414,61.08 c 3.703,12.32 16.691,19.27 29.004,15.56 z m -267.156,-10.41 18.406,61.09 c 3.711,12.29 16.7,19.28 29.004,15.57 l 37.969,-11.45 c 12.317,-3.73 19.289,-16.7 15.578,-29.02 l -18.41,-61.08 c -3.711,-12.3 -16.699,-19.29 -29.008,-15.58 l -37.972,11.46 c -12.305,3.71 -19.278,16.68 -15.567,29.01 m 428.524,56.42 18.41,61.1 c 3.711,12.3 16.703,19.27 29.004,15.56 l 37.98,-11.44 c 12.301,-3.71 19.274,-16.7 15.563,-29.01 l -18.407,-61.07 c -3.711,-12.32 -16.699,-19.3 -29.003,-15.59 l -37.973,11.45 c -12.313,3.71 -19.285,16.7 -15.574,29 m -141.942,18.48 -37.969,11.44 c -12.304,3.72 -19.277,16.7 -15.566,29.01 l 18.406,61.07 c 3.711,12.33 16.703,19.3 29.016,15.59 l 37.969,-11.45 c 12.308,-3.71 19.269,-16.7 15.558,-29 l -18.402,-61.09 c -3.703,-12.33 -16.699,-19.28 -29.012,-15.57 m -235.304,95.23 18.414,61.1 c 3.711,12.3 16.687,19.28 29.007,15.56 L 442.668,2439 c 12.309,-3.71 19.27,-16.7 15.57,-29.01 l -18.425,-61.09 c -3.708,-12.3 -16.688,-19.28 -29,-15.57 l -37.969,11.45 c -12.313,3.71 -19.285,16.7 -15.574,29 m 491.828,13.05 -57.473,17.33 c -6.93,2.08 -10.848,9.39 -8.766,16.3 l 24.293,80.59 c 2.086,6.93 9.391,10.86 16.317,8.77 l 57.476,-17.33 c 6.922,-2.08 10.84,-9.39 8.75,-16.3 l -24.289,-80.59 c -2.082,-6.95 -9.386,-10.86 -16.308,-8.77 m -195.485,58.93 -57.476,17.32 c -6.918,2.07 -10.844,9.4 -8.75,16.31 l 24.285,80.59 c 2.09,6.91 9.387,10.84 16.312,8.75 l 57.481,-17.31 c 6.922,-2.11 10.844,-9.39 8.754,-16.33 l -24.281,-80.58 c -2.094,-6.94 -9.403,-10.84 -16.325,-8.75 m -248.004,88.41 24.297,80.59 c 2.086,6.93 9.391,10.84 16.317,8.75 l 57.468,-17.32 c 6.934,-2.07 10.844,-9.38 8.766,-16.31 l -24.297,-80.59 c -2.082,-6.91 -9.39,-10.86 -16.312,-8.77 l -57.485,17.35 c -6.922,2.09 -10.843,9.37 -8.754,16.3 m 515.801,92.6 -57.469,17.33 c -6.921,2.07 -10.843,9.39 -8.761,16.31 l 24.293,80.6 c 2.086,6.9 9.39,10.84 16.312,8.75 l 57.481,-17.32 c 6.914,-2.09 10.836,-9.4 8.754,-16.33 l -24.29,-80.59 c -2.085,-6.91 -9.39,-10.84 -16.32,-8.75 m -195.476,58.93 -57.473,17.32 c -6.922,2.09 -10.844,9.38 -8.754,16.31 l 24.285,80.59 c 2.094,6.93 9.387,10.84 16.313,8.75 l 57.476,-17.33 c 6.926,-2.09 10.848,-9.37 8.766,-16.31 l -24.297,-80.58 c -2.09,-6.94 -9.395,-10.84 -16.316,-8.75 m -248,88.42 24.293,80.58 c 2.093,6.94 9.39,10.84 16.312,8.77 l 57.481,-17.32 c 6.918,-2.09 10.843,-9.42 8.753,-16.31 l -24.293,-80.61 c -2.082,-6.91 -9.386,-10.84 -16.308,-8.77 l -57.473,17.35 c -6.926,2.09 -10.847,9.37 -8.765,16.31 m 485.015,25.72 -37.972,11.44 c -12.305,3.71 -19.278,16.7 -15.567,29.03 l 18.406,61.09 c 3.711,12.29 16.696,19.26 29.004,15.55 l 37.969,-11.45 c 12.311,-3.71 19.281,-16.68 15.581,-29 l -18.417,-61.08 c -3.711,-12.3 -16.695,-19.29 -29.004,-15.58 m -201.605,176.03 37.969,-11.44 c 12.32,-3.69 19.292,-16.7 15.582,-29.01 l -18.426,-61.09 c -3.711,-12.3 -16.696,-19.28 -29.004,-15.57 l -37.969,11.45 c -12.312,3.71 -19.281,16.7 -15.574,29.02 l 18.422,61.08 c 3.703,12.32 16.683,19.27 29,15.56 M 532.156,2954 l 18.414,61.09 c 3.707,12.31 16.696,19.28 29.004,15.57 l 37.981,-11.45 c 12.3,-3.71 19.269,-16.7 15.566,-29 l -18.414,-61.07 c -3.711,-12.33 -16.699,-19.3 -29.004,-15.59 l -37.969,11.46 c -12.312,3.72 -19.289,16.68 -15.578,28.99 m 482.074,15.98 -37.968,11.46 c -12.313,3.71 -19.285,16.68 -15.574,29 l 18.414,61.1 c 3.707,12.28 16.691,19.28 29.008,15.56 l 37.97,-11.44 c 12.31,-3.71 19.28,-16.7 15.57,-29.02 l -18.42,-61.08 c -3.71,-12.3 -16.69,-19.3 -29,-15.58 m -201.597,176.03 37.969,-11.43 c 12.308,-3.71 19.277,-16.69 15.57,-29.02 l -18.414,-61.07 c -3.715,-12.33 -16.703,-19.3 -29.004,-15.59 l -37.977,11.45 c -12.308,3.71 -19.285,16.7 -15.562,29 l 18.406,61.11 c 3.715,12.31 16.695,19.26 29.012,15.55 m -229.195,-21.85 18.414,61.07 c 3.711,12.32 16.703,19.28 29.003,15.57 l 37.977,-11.45 c 12.316,-3.71 19.277,-16.7 15.566,-28.98 l -18.414,-61.1 c -3.703,-12.32 -16.691,-19.28 -29.004,-15.56 l -37.972,11.42 c -12.305,3.71 -19.278,16.72 -15.57,29.03 m 491.822,13.02 -57.48,17.35 c -6.92,2.09 -10.84,9.37 -8.75,16.3 l 24.3,80.59 c 2.08,6.93 9.38,10.84 16.31,8.76 l 57.47,-17.33 c 6.93,-2.08 10.84,-9.38 8.76,-16.32 l -24.29,-80.58 c -2.08,-6.93 -9.39,-10.86 -16.32,-8.77 m -252.947,76.25 c -6.926,2.09 -10.848,9.39 -8.762,16.33 l 24.293,80.57 c 2.094,6.95 9.398,10.85 16.312,8.76 l 57.481,-17.31 c 6.922,-2.09 10.843,-9.4 8.754,-16.31 l -24.297,-80.61 c -2.078,-6.92 -9.375,-10.84 -16.305,-8.75 z m -190.528,71.11 24.293,80.6 c 2.082,6.91 9.387,10.83 16.309,8.75 l 57.48,-17.32 c 6.918,-2.1 10.84,-9.39 8.754,-16.33 l -24.281,-80.58 c -2.094,-6.93 -9.399,-10.84 -16.32,-8.75 l -57.473,17.31 c -6.926,2.08 -10.852,9.4 -8.762,16.32 m 282.832,744.52 124.573,413.29 c 5,16.57 20.25,27.27 36.72,27.27 3.64,0 7.36,-0.52 11.03,-1.63 l 248.21,-74.81 c 20.23,-6.1 31.73,-27.52 25.63,-47.76 l -124.57,-413.29 c -2.96,-9.81 -9.55,-17.87 -18.57,-22.72 -9.01,-4.83 -19.37,-5.88 -29.18,-2.92 l -248.21,74.82 c -20.227,6.09 -31.734,27.51 -25.633,47.75 m 22.375,-58.57 248.208,-74.81 c 4.76,-1.42 9.56,-2.11 14.28,-2.11 21.33,0 41.07,13.86 47.53,35.3 l 124.57,413.3 c 3.84,12.69 2.49,26.11 -3.78,37.78 -6.27,11.68 -16.71,20.21 -29.39,24.03 l -248.21,74.81 c -26.18,7.9 -53.92,-6.98 -61.82,-33.17 l -124.564,-413.3 c -7.898,-26.2 6.989,-53.92 33.176,-61.83 m -121.965,33.36 155.102,514.56 c 2.832,9.39 9.148,17.12 17.797,21.75 5.418,2.92 11.344,4.39 17.324,4.39 3.56,0 7.14,-0.51 10.65,-1.57 l 369.27,-111.31 c 19.4,-5.84 30.42,-26.39 24.57,-45.77 l -155.1,-514.57 c -5.84,-19.38 -26.39,-30.41 -45.77,-24.57 l -369.268,111.31 c -19.399,5.86 -30.418,26.38 -24.575,45.78 m 20.399,-59.63 369.274,-111.3 c 4.91,-1.48 9.87,-2.19 14.75,-2.19 22,0 42.38,14.31 49.04,36.44 l 155.1,514.56 c 8.15,27.02 -7.21,55.64 -34.24,63.79 l -369.28,111.31 c -27.019,8.16 -55.652,-7.22 -63.793,-34.26 L 801.184,4008.02 c -8.153,-27.03 7.214,-55.66 34.242,-63.8 M 1957.22,3311.51 c 3.42,0 6.2,-2.79 6.2,-6.22 0,-3.42 -2.78,-6.2 -6.2,-6.2 -3.42,0 -6.2,2.78 -6.2,6.2 0,3.43 2.78,6.22 6.2,6.22 m 0,-32.77 c 14.65,0 26.57,11.9 26.57,26.55 0,14.67 -11.92,26.58 -26.57,26.58 -14.65,0 -26.57,-11.91 -26.57,-26.58 0,-14.65 11.92,-26.55 26.57,-26.55 m 365.72,-739.9 h -191.18 c -4.93,0 -8.95,4.03 -8.95,8.97 v 4.47 c 0,4.94 4.02,8.95 8.95,8.95 h 191.18 c 4.92,0 8.94,-4.01 8.94,-8.95 v -4.47 c 0,-4.94 -4.02,-8.97 -8.94,-8.97 m -87.96,752.05 c -7.95,4.68 -22,47.05 -22,115.89 0,68.84 14.05,111.21 22,115.88 7.94,-4.67 21.99,-47.04 21.99,-115.88 0,-68.83 -14.05,-111.21 -21.99,-115.89 m 0,252.29 c -33.44,0 -42.36,-85.74 -42.36,-136.4 0,-50.68 8.92,-136.43 42.36,-136.43 33.42,0 42.34,85.75 42.34,136.43 0,50.66 -8.92,136.4 -42.34,136.4 m -345.26,-321.47 v 167.18 c 0,28.61 23.28,51.89 51.88,51.89 h 31.24 c 28.6,0 51.88,-23.28 51.88,-51.89 v -167.18 c 0,-28.61 -23.28,-51.87 -51.88,-51.87 h -31.24 c -28.6,0 -51.88,23.26 -51.88,51.87 m 721.01,-485.39 v 342.64 c 0,20 -16.27,36.25 -36.24,36.25 h -684.75 c -19.99,0 -36.24,-16.25 -36.24,-36.25 v -335.72 c -21.07,66.77 -25.49,129.65 -26.02,164.68 -4.46,101.31 21.17,298.91 41.88,426.4 v -112.61 c 0,-39.84 32.41,-72.24 72.24,-72.24 h 31.24 c 39.83,0 72.24,32.4 72.24,72.24 v 167.18 c 0,39.84 -32.41,72.24 -72.24,72.24 h -31.24 c -21.11,0 -40.07,-9.15 -53.29,-23.64 0.73,3.25 1.44,6.2 2.06,8.49 14.57,54.1 74.71,97.07 139.87,99.92 l 0.69,0.07 c 18.07,2.35 126.62,4.1 230.59,4.1 54.17,0 107.11,-0.47 145.34,-1.58 108.56,-3.16 169.49,-52.61 176.49,-85.04 7.52,-34.8 55.92,-426.25 59.48,-556.09 1.34,-48.79 -7.65,-110.1 -32.1,-171.04 m -86.08,-133.86 c -13.52,-13.89 -28,-26.55 -43.33,-38.07 -126.52,72.21 -388.4,70.45 -509.4,-3.38 -37.38,30.06 -65.17,66.41 -85.8,104.49 1.2,-0.09 2.37,-0.35 3.62,-0.35 h 684.32 c -14,-21.87 -30.28,-43.03 -49.41,-62.69 m -513.37,-43.95 c 113.17,49.75 312.05,51.11 429.36,2.99 -62.87,-36 -136.74,-54.24 -219.87,-54.24 -81.45,0 -151.77,17.27 -209.49,51.25 m 209.49,-74.92 c -100.47,0 -175.37,25.43 -231.2,64.24 0.04,0.02 0.08,0.04 0.12,0.06 62.95,-40.43 140.61,-61 231.08,-61 87.38,0 165.16,19.43 231.47,57.77 -65.29,-40.11 -143.76,-61.07 -231.47,-61.07 m 369.59,217.79 c 0,-8.75 -7.12,-15.86 -15.87,-15.86 h -684.75 c -8.76,0 -15.87,7.11 -15.87,15.86 v 377.58 c 0,8.75 7.11,15.88 15.87,15.88 h 684.75 c 8.75,0 15.87,-7.13 15.87,-15.88 z m -183.03,863.37 c -103.71,3 -346.3,1.31 -378.15,-2.61 -71.81,-3.29 -138.2,-51.37 -154.52,-111.94 -14.72,-54.6 -69.84,-397.39 -63.44,-542.74 0.73,-49.18 8.1,-132.13 43.02,-213.38 1.06,-5.22 3.36,-9.96 6.43,-14.1 10.18,-21.59 22.31,-42.91 36.99,-63.27 71.49,-99.14 180.19,-149.39 323.11,-149.39 127.62,0 236.74,42.81 315.54,123.79 24.37,25.06 45.54,53.47 63.15,84.14 5.38,5.16 9.18,11.91 10.59,19.51 33.42,65.51 51.04,139.75 49.04,213.05 -3.38,123.73 -50.73,516.89 -59.83,559.06 -9.85,45.66 -84.33,94.76 -191.93,97.88 m 200.61,-1047.86 c -9.59,7.28 -26.85,19.78 -49.65,33.63 -10.86,6.6 -24.38,6.76 -35.3,0.39 -73.06,-42.5 -138.37,-70.84 -199.65,-86.62 -19.14,-4.94 -32.16,-23.3 -30.93,-43.69 0.61,-10.1 1.32,-24.28 2.07,-39.53 0.73,-14.57 1.51,-30.08 2.31,-44.06 -25.27,-3.38 -51.36,-5.12 -78.2,-5.12 -87.2,0 -157.63,16.82 -214.58,44.34 9.23,9.92 24.81,26.81 43.54,47.69 7.5,8.34 10.55,19.43 8.34,30.39 -2.2,10.98 -9.26,20.02 -19.39,24.85 -21.37,10.13 -62.91,31.5 -100.91,60.56 -13.82,10.55 -32.65,12.25 -47.99,4.32 l -42.36,-21.94 c -67.81,111.45 -78.44,241.72 -79.34,301.76 -7.31,167.37 55.68,561.64 72.49,624.47 16.73,62.52 85.75,112.15 160.55,115.45 l 0.88,0.08 c 20.82,2.74 145.81,4.76 265.6,4.76 62.51,0 123.61,-0.54 167.72,-1.83 124.76,-3.65 194.74,-60.72 202.76,-98.14 8.66,-40.41 64.47,-494.83 68.56,-645.51 2.35,-86.17 -22.92,-205.7 -96.52,-306.25 m -40.63,-48.36 c -66,-67.81 -151.35,-111.29 -250.31,-128.4 -0.75,13.44 -1.49,28.13 -2.18,41.95 -0.76,15.36 -1.47,29.59 -2.08,39.73 -0.65,10.68 5.95,20.26 15.68,22.76 63.12,16.25 130.11,45.29 204.81,88.75 4.46,2.59 10.01,2.5 14.48,-0.2 21.83,-13.24 38.58,-25.37 47.8,-32.38 -8.84,-11 -18.09,-21.82 -28.2,-32.21 m -711.05,36.35 40.7,21.05 c 8.37,4.34 18.67,3.4 26.26,-2.4 39.49,-30.2 82.45,-52.29 104.54,-62.77 4.27,-2.03 7.24,-5.82 8.16,-10.43 0.93,-4.61 -0.35,-9.28 -3.51,-12.8 -21.68,-24.16 -39.06,-42.89 -47.2,-51.62 -55.99,31.02 -97.77,72.89 -128.95,118.97 m 577.48,1082.26 c -119.56,3.49 -399.23,1.53 -436.12,-3.03 -83.14,-3.85 -160,-59.9 -178.9,-130.53 -16.97,-63.42 -80.56,-461.53 -73.17,-630.32 1.12,-75.73 15.6,-220.35 99.81,-337.95 82.57,-115.33 208.14,-173.79 373.23,-173.79 146.76,0 272.39,49.39 363.32,142.81 109.7,112.74 145.76,264.73 142.9,369.38 -3.9,143.63 -58.5,600.21 -69,649.21 -11.42,53.29 -97.61,110.58 -222.07,114.22 m -206.4,-1396.31 c -59.55,0 -104.05,21.1 -104.05,39.99 0,18.88 44.5,39.98 104.05,39.98 59.57,0 104.07,-21.1 104.07,-39.98 0,-18.89 -44.5,-39.99 -104.07,-39.99 m 0,100.34 c -70.92,0 -124.42,-25.96 -124.42,-60.35 0,-34.42 53.5,-60.36 124.42,-60.36 70.95,0 124.44,25.94 124.44,60.36 0,34.39 -53.49,60.35 -124.44,60.35 m 0,-236.19 c -59.55,0 -104.05,21.11 -104.05,40 0,18.88 44.5,39.98 104.05,39.98 59.57,0 104.07,-21.1 104.07,-39.98 0,-18.89 -44.5,-40 -104.07,-40 m 0,100.35 c -70.92,0 -124.42,-25.96 -124.42,-60.35 0,-34.42 53.5,-60.36 124.42,-60.36 70.95,0 124.44,25.94 124.44,60.36 0,34.39 -53.49,60.35 -124.44,60.35 m 0,-246.78 c -59.55,0 -104.05,21.11 -104.05,39.98 0,18.89 44.5,40 104.05,40 59.57,0 104.07,-21.11 104.07,-40 0,-18.87 -44.5,-39.98 -104.07,-39.98 m 0,100.35 c -70.92,0 -124.42,-25.94 -124.42,-60.37 0,-34.39 53.5,-60.35 124.42,-60.35 70.95,0 124.44,25.96 124.44,60.35 0,34.43 -53.49,60.37 -124.44,60.37 m 313.38,-72.58 c -28.07,-7.77 -55.65,-10.31 -77.59,-7.15 -18.53,2.68 -31.01,9.38 -33.37,17.9 -5.03,18.18 32.2,50.42 89.6,66.32 21.06,5.84 40.91,8.4 57.88,8.4 29.26,0 49.89,-7.62 53.09,-19.12 5.03,-18.2 -32.21,-50.43 -89.61,-66.35 m -26.8,96.7 c -68.35,-18.94 -112.97,-58.24 -103.79,-91.38 4.73,-17.07 22.52,-28.64 50.08,-32.62 7.08,-1.02 14.62,-1.53 22.52,-1.53 19.68,0 41.5,3.13 63.43,9.2 68.36,18.97 112.98,58.27 103.79,91.41 -9.19,33.16 -67.67,43.87 -136.03,24.92 m 50.11,203.03 c -57.38,-15.92 -105.91,-7.46 -110.96,10.74 -2.36,8.54 4.89,20.69 19.39,32.52 17.2,14.02 42.13,26.04 70.21,33.81 28.07,7.79 55.64,10.33 77.59,7.17 18.54,-2.68 31,-9.38 33.37,-17.89 5.04,-18.21 -32.2,-50.43 -89.6,-66.35 m 59.14,104.39 c -24.68,3.56 -55.21,0.84 -85.94,-7.69 -30.74,-8.52 -58.31,-21.9 -77.64,-37.66 -21.58,-17.61 -30.87,-36.7 -26.15,-53.73 6.14,-22.13 34.2,-34.26 72.51,-34.26 19.1,0 40.77,3.03 63.53,9.32 68.36,18.97 112.97,58.24 103.78,91.41 -4.73,17.05 -22.51,28.63 -50.09,32.61 m -72.5,-258.02 c -57.4,-15.92 -105.92,-7.46 -110.97,10.74 -2.36,8.53 4.89,20.68 19.4,32.52 17.19,14.02 42.13,26.01 70.2,33.81 21.07,5.84 40.92,8.4 57.88,8.4 29.27,0 49.89,-7.62 53.09,-19.13 5.03,-18.2 -32.21,-50.43 -89.6,-66.34 m -26.81,96.7 c -30.74,-8.54 -58.3,-21.9 -77.63,-37.68 -21.6,-17.6 -30.88,-36.68 -26.15,-53.71 6.13,-22.13 34.19,-34.26 72.5,-34.26 19.11,0 40.77,3.01 63.53,9.32 68.35,18.96 112.97,58.26 103.78,91.4 -9.19,33.17 -67.67,43.87 -136.03,24.93 m -0.75,-388.89 c -57.39,-15.92 -105.92,-7.44 -110.97,10.74 -2.35,8.54 4.89,20.7 19.4,32.52 17.19,14.02 42.13,26.04 70.2,33.83 28.08,7.77 55.64,10.31 77.61,7.15 18.52,-2.68 31,-9.36 33.36,-17.89 5.03,-18.21 -32.2,-50.43 -89.6,-66.35 m 59.14,104.39 c -24.69,3.56 -55.21,0.82 -85.94,-7.69 -30.73,-8.52 -58.31,-21.88 -77.64,-37.66 -21.59,-17.61 -30.87,-36.7 -26.15,-53.73 6.14,-22.11 34.19,-34.26 72.5,-34.26 19.11,0 40.79,3.03 63.53,9.34 68.35,18.95 112.97,58.22 103.78,91.39 -4.72,17.05 -22.51,28.63 -50.08,32.61 m -746.83,108.05 c 2.35,8.52 14.82,15.22 33.36,17.89 6.16,0.88 12.76,1.33 19.71,1.33 17.76,0 37.69,-2.89 57.88,-8.5 57.4,-15.9 94.65,-48.14 89.6,-66.32 -2.37,-8.52 -14.84,-15.22 -33.36,-17.9 -21.97,-3.16 -49.52,-0.62 -77.6,7.15 -57.39,15.92 -94.64,48.15 -89.59,66.35 M 1983,1907.49 c 7.89,0 15.45,0.51 22.52,1.53 27.57,3.98 45.35,15.55 50.08,32.62 9.18,33.14 -35.43,72.44 -103.79,91.38 -30.74,8.52 -61.25,11.23 -85.95,7.7 -27.56,-3.99 -45.35,-15.57 -50.08,-32.62 -9.18,-33.14 35.43,-72.44 103.79,-91.41 21.94,-6.07 43.76,-9.2 63.43,-9.2 m -170.9,394.91 c 2.36,8.51 14.84,15.21 33.37,17.89 6.17,0.88 12.77,1.33 19.7,1.33 17.77,0 37.7,-2.89 57.89,-8.5 28.09,-7.77 53.01,-19.79 70.21,-33.81 14.51,-11.83 21.76,-23.98 19.4,-32.52 -5.04,-18.2 -53.57,-26.64 -110.97,-10.74 -28.08,7.79 -53.02,19.8 -70.21,33.83 -14.5,11.83 -21.75,23.98 -19.39,32.52 m 6.52,-48.3 c 19.33,-15.77 46.9,-29.14 77.64,-37.68 22.75,-6.29 44.42,-9.32 63.53,-9.32 38.3,0 66.36,12.13 72.5,34.26 4.72,17.03 -4.56,36.12 -26.15,53.73 -19.33,15.76 -46.9,29.14 -77.63,37.66 -30.74,8.53 -61.26,11.25 -85.95,7.69 -27.58,-3.98 -45.36,-15.56 -50.08,-32.61 -4.73,-17.05 4.56,-36.14 26.14,-53.73 m 6.84,-105.34 c 3.2,11.51 23.82,19.13 53.09,19.13 16.95,0 36.83,-2.56 57.88,-8.4 57.4,-15.9 94.63,-48.15 89.6,-66.33 -5.04,-18.2 -53.58,-26.64 -110.96,-10.74 -57.4,15.91 -94.65,48.14 -89.61,66.34 m 84.17,-85.97 c 22.76,-6.31 44.41,-9.32 63.52,-9.32 38.3,0 66.37,12.13 72.5,34.26 9.19,33.14 -35.43,72.42 -103.78,91.39 -68.35,18.92 -126.83,8.24 -136.03,-24.93 -9.18,-33.14 35.43,-72.44 103.79,-91.4 m 143.95,-261.82 c -2.36,-8.51 -14.83,-15.21 -33.36,-17.89 -21.96,-3.16 -49.52,-0.62 -77.6,7.15 -28.07,7.79 -53.01,19.8 -70.2,33.83 -14.51,11.83 -21.76,23.98 -19.39,32.52 2.36,8.53 14.83,15.21 33.37,17.89 6.16,0.88 12.77,1.33 19.7,1.33 17.77,0 37.69,-2.89 57.88,-8.48 28.08,-7.79 53.02,-19.81 70.21,-33.83 14.51,-11.82 21.76,-23.98 19.39,-32.52 m -6.52,48.3 c -19.33,15.78 -46.89,29.14 -77.64,37.66 -30.73,8.51 -61.26,11.25 -85.94,7.69 -27.57,-3.98 -45.35,-15.56 -50.08,-32.61 -4.73,-17.03 4.56,-36.14 26.15,-53.73 19.32,-15.77 46.9,-29.14 77.63,-37.66 21.94,-6.09 43.75,-9.22 63.43,-9.22 7.9,0 15.44,0.51 22.52,1.54 27.57,3.97 45.35,15.55 50.08,32.6 4.73,17.03 -4.56,36.12 -26.15,53.73 m 180.28,-100.02 c -59.55,0 -104.05,21.12 -104.05,39.98 0,18.89 44.5,40 104.05,40 59.57,0 104.07,-21.11 104.07,-40 0,-18.86 -44.5,-39.98 -104.07,-39.98 m 0,100.35 c -70.92,0 -124.42,-25.93 -124.42,-60.37 0,-34.39 53.5,-60.35 124.42,-60.35 70.95,0 124.44,25.96 124.44,60.35 0,34.44 -53.49,60.37 -124.44,60.37 m 472.89,-20.03 c -5.05,-31.76 -35.88,-190.84 -147.41,-202.37 -137.97,-14.26 -521.09,-12.24 -639.92,0 -110.67,11.43 -134.88,132.31 -147.88,197.25 l -1.04,5.17 c -59.41,349.36 -74.02,1206.37 20.18,1602.8 22.14,96.8 113.32,161.32 232.23,164.37 49.11,0.92 171.6,1.8 274.18,1.8 76.06,0 141.17,-0.48 157.24,-1.8 118.94,-3.05 210.11,-67.57 232.26,-164.4 93.97,-395.44 77.01,-1244.95 20.16,-1602.82 m -251.88,1777.37 c -38.6,3.21 -344.1,1.68 -432.19,0.02 -123.75,-3.17 -218.71,-70.79 -241.92,-172.22 -94.45,-397.52 -79.85,-1256.68 -20.27,-1606.97 l 1.07,-5.31 c 12.55,-62.72 38.68,-193.19 156.82,-205.38 61.86,-6.38 195.06,-9.98 328.29,-9.98 123.54,0 247.13,3.09 313.72,9.98 118.93,12.29 151.16,177.84 156.41,210.88 56.99,358.68 73.93,1210.22 -20.29,1606.74 -23.21,101.47 -118.18,169.09 -241.64,172.24"
         style="fill:#ffffff;fill-opacity:1;fill-rule:nonzero;stroke:none"
         transform="matrix(0.13333333,0,0,-0.13333333,0,738.38667)" />
    </g>
  </g>
</svg>
