<?xml version="1.0" encoding="UTF-8" standalone="no"?>
<!-- Created with Inkscape (http://www.inkscape.org/) -->

<svg
   version="1.1"
   id="svg1"
   width="629.21332"
   height="594.56"
   viewBox="0 0 629.21332 594.56"
   sodipodi:docname="paper-documents.svg"
   inkscape:version="1.4 (e7c3feb100, 2024-10-09)"
   xmlns:inkscape="http://www.inkscape.org/namespaces/inkscape"
   xmlns:sodipodi="http://sodipodi.sourceforge.net/DTD/sodipodi-0.dtd"
   xmlns="http://www.w3.org/2000/svg"
   xmlns:svg="http://www.w3.org/2000/svg">
  <defs
     id="defs1" />
  <sodipodi:namedview
     id="namedview1"
     pagecolor="#505050"
     bordercolor="#ffffff"
     borderopacity="1"
     inkscape:showpageshadow="0"
     inkscape:pageopacity="0"
     inkscape:pagecheckerboard="1"
     inkscape:deskcolor="#d1d1d1"
     inkscape:zoom="1.3707616"
     inkscape:cx="314.42375"
     inkscape:cy="297.28"
     inkscape:window-width="1920"
     inkscape:window-height="1002"
     inkscape:window-x="0"
     inkscape:window-y="0"
     inkscape:window-maximized="1"
     inkscape:current-layer="g1">
    <inkscape:page
       x="0"
       y="0"
       inkscape:label="1"
       id="page1"
       width="629.21332"
       height="594.56"
       margin="0"
       bleed="0" />
  </sodipodi:namedview>
  <g
     id="g1"
     inkscape:groupmode="layer"
     inkscape:label="1">
    <g
       id="group-R5">
      <path
         id="path2"
         d="m 1461.44,72.9219 c 0,5.457 -0.79,10.1679 -2.41,14.0273 -1.57,3.9219 -3.78,6.9297 -6.62,9.0625 -2.83,2.0703 -5.95,3.1406 -9.39,3.1406 -5.45,0 -10.06,-2.3125 -13.81,-6.7617 -3.75,-4.5117 -5.63,-11.0898 -5.63,-19.8203 0,-8.2383 1.88,-14.6289 5.57,-19.1484 3.75,-4.5821 8.38,-6.8828 13.87,-6.8828 3.28,0 6.35,1 9.16,3.0234 2.76,1.9883 5.02,4.9688 6.72,8.9063 1.71,4.0312 2.54,8.8125 2.54,14.4531 z M 1422.67,103 v -2.488 c 3.71,4.769 7.55,8.328 11.56,10.539 4.02,2.262 8.59,3.398 13.67,3.398 6.07,0 11.68,-1.648 16.81,-4.929 5.1,-3.278 9.15,-8.051 12.14,-14.3794 2.96,-6.3203 4.43,-13.7617 4.43,-22.3789 0,-6.3398 -0.83,-12.25 -2.55,-17.4922 -1.71,-5.3281 -4.07,-9.8203 -7.06,-13.4179 -3,-3.6016 -6.56,-6.3907 -10.62,-8.3125 -4.1,-1.9688 -8.5,-2.9297 -13.15,-2.9297 -5.68,0 -10.43,1.1797 -14.27,3.5625 -3.87,2.3594 -7.51,5.8203 -10.96,10.4179 V 13.6094 C 1422.67,4.51953 1419.49,0 1413.16,0 c -3.72,0 -6.2,1.15234 -7.37,3.48047 -1.22,2.35937 -1.82,5.76953 -1.82,10.26173 v 89.1288 c 0,3.918 0.8,6.871 2.46,8.809 1.67,1.922 3.9,2.922 6.73,2.922 2.81,0 5.09,-1 6.85,-3.012 1.76,-2.008 2.66,-4.871 2.66,-8.59"
         style="fill:#fbc6a4;fill-opacity:1;fill-rule:nonzero;stroke:none"
         transform="matrix(0.13333333,0,0,-0.13333333,0,594.56)" />
      <path
         id="path3"
         d="m 1548.58,42.2891 v 2.6132 c -2.38,-3.121 -4.86,-5.7226 -7.48,-7.832 -2.6,-2.1601 -5.46,-3.7187 -8.53,-4.7383 -3.13,-1.0234 -6.64,-1.5507 -10.61,-1.5507 -4.75,0 -9.04,1.039 -12.85,3.0781 -3.8,2.0703 -6.74,4.9297 -8.79,8.5508 -2.5,4.3906 -3.7,10.6992 -3.7,18.8906 v 40.9182 c 0,4.101 0.89,7.222 2.69,9.25 1.78,2.043 4.14,3.07 7.08,3.07 3,0 5.41,-1.027 7.25,-3.117 1.84,-2.07 2.75,-5.152 2.75,-9.203 V 69.1523 c 0,-4.7617 0.38,-8.7812 1.13,-12.0117 0.81,-3.2695 2.2,-5.8203 4.22,-7.6797 1.96,-1.8203 4.7,-2.7304 8.12,-2.7304 3.37,0 6.5,1.039 9.43,3.1015 2.97,2.0391 5.12,4.7383 6.46,8.0703 1.12,2.9297 1.66,9.3165 1.66,19.2071 v 25.1096 c 0,4.051 0.92,7.133 2.78,9.203 1.81,2.09 4.18,3.117 7.14,3.117 2.95,0 5.32,-1.027 7.1,-3.07 1.77,-2.028 2.65,-5.149 2.65,-9.25 V 42.4102 c 0,-3.9297 -0.82,-6.8907 -2.54,-8.8282 -1.7,-1.9922 -3.91,-2.9531 -6.62,-2.9531 -2.7,0 -4.92,1.0508 -6.7,3.043 -1.76,2.0703 -2.64,4.8984 -2.64,8.6172"
         style="fill:#fbc6a4;fill-opacity:1;fill-rule:nonzero;stroke:none"
         transform="matrix(0.13333333,0,0,-0.13333333,0,594.56)" />
      <path
         id="path4"
         d="m 1605.97,72.1016 c 0,-8.2227 1.78,-14.5118 5.37,-18.9297 3.61,-4.3906 8.34,-6.6328 14.2,-6.6328 4.98,0 9.24,2.2812 12.86,6.7812 3.62,4.5195 5.42,10.9414 5.42,19.3789 0,5.5 -0.75,10.1719 -2.26,14.0821 -1.51,3.9609 -3.65,7 -6.37,9.1289 -2.8,2.1289 -5.97,3.2421 -9.65,3.2421 -3.81,0 -7.11,-1.1132 -10.08,-3.2421 -2.97,-2.1289 -5.26,-5.25 -6.97,-9.3204 -1.69,-4.0195 -2.52,-8.8398 -2.52,-14.4882 z m -0.94,61.3674 V 101.91 c 3.67,4.07 7.49,7.129 11.35,9.32 3.86,2.141 8.67,3.219 14.35,3.219 6.58,0 12.34,-1.648 17.29,-4.867 4.94,-3.312 8.81,-7.992 11.52,-14.1601 2.75,-6.1797 4.1,-13.5 4.1,-21.9727 0,-6.2695 -0.75,-11.9883 -2.25,-17.2383 -1.54,-5.1992 -3.72,-9.6992 -6.63,-13.582 -2.93,-3.8086 -6.45,-6.7305 -10.56,-8.8984 -4.15,-2.0508 -8.7,-3.1211 -13.67,-3.1211 -3.02,0 -5.91,0.3906 -8.61,1.1328 -2.67,0.7695 -4.98,1.75 -6.81,3.0195 -1.92,1.168 -3.52,2.4883 -4.86,3.7696 -1.31,1.3281 -3.05,3.2773 -5.22,5.8984 v -2.0195 c 0,-3.8985 -0.92,-6.8282 -2.71,-8.8282 -1.76,-1.9922 -4.07,-2.9726 -6.79,-2.9726 -2.82,0 -5.04,0.9804 -6.73,2.9726 -1.65,2.0391 -2.48,4.9493 -2.48,8.8282 V 132.57 c 0,4.16 0.8,7.332 2.44,9.461 1.61,2.16 3.85,3.219 6.77,3.219 3.02,0 5.38,-1.008 7,-3.078 1.66,-2.02 2.5,-4.91 2.5,-8.703"
         style="fill:#fbc6a4;fill-opacity:1;fill-rule:nonzero;stroke:none"
         transform="matrix(0.13333333,0,0,-0.13333333,0,594.56)" />
      <path
         id="path5"
         d="m 1677.61,43.1797 v 89.5193 c 0,4.153 0.88,7.262 2.61,9.391 1.8,2.101 4.16,3.16 7.16,3.16 3,0 5.4,-1.02 7.25,-3.129 1.81,-2.082 2.76,-5.25 2.76,-9.422 V 43.1797 c 0,-4.1875 -0.95,-7.3399 -2.81,-9.4492 -1.85,-2.0508 -4.26,-3.1211 -7.2,-3.1211 -2.9,0 -5.22,1.1015 -7.05,3.25 -1.81,2.1797 -2.72,5.2695 -2.72,9.3203"
         style="fill:#fbc6a4;fill-opacity:1;fill-rule:nonzero;stroke:none"
         transform="matrix(0.13333333,0,0,-0.13333333,0,594.56)" />
      <path
         id="path6"
         d="M 1737.59,102.809 V 43.1797 c 0,-4.1602 -0.97,-7.2813 -2.8,-9.3984 -1.91,-2.0704 -4.31,-3.1719 -7.18,-3.1719 -2.91,0 -5.28,1.1015 -7.07,3.2422 -1.8,2.1875 -2.74,5.2773 -2.74,9.3281 v 59.0393 c 0,4.051 0.94,7.133 2.74,9.203 1.79,2.09 4.16,3.117 7.07,3.117 2.87,0 5.27,-1.027 7.18,-3.117 1.83,-2.07 2.8,-4.93 2.8,-8.613 z m -9.79,21.351 c -2.75,0 -5.09,0.879 -7.09,2.68 -1.9,1.762 -2.91,4.281 -2.91,7.512 0,2.91 1.01,5.296 3.02,7.218 2,1.891 4.33,2.782 6.98,2.782 2.56,0 4.85,-0.832 6.82,-2.532 1.97,-1.718 2.97,-4.238 2.97,-7.468 0,-3.2 -0.98,-5.68 -2.91,-7.45 -1.94,-1.793 -4.2,-2.742 -6.88,-2.742"
         style="fill:#fbc6a4;fill-opacity:1;fill-rule:nonzero;stroke:none"
         transform="matrix(0.13333333,0,0,-0.13333333,0,594.56)" />
      <path
         id="path7"
         d="m 1828.88,56.1797 c 0,-2.5586 -0.73,-5.3203 -2.19,-8.2383 -1.49,-2.9219 -3.74,-5.6992 -6.77,-8.3516 -3,-2.6406 -6.8,-4.7695 -11.39,-6.371 -4.59,-1.6485 -9.77,-2.4375 -15.5,-2.4375 -12.24,0 -21.77,3.7304 -28.64,11.1484 -6.84,7.4414 -10.28,17.3789 -10.28,29.8906 0,8.4688 1.56,15.9805 4.69,22.461 3.13,6.4687 7.71,11.5387 13.63,15.0707 5.93,3.578 13.06,5.347 21.29,5.347 5.14,0 9.84,-0.797 14.12,-2.34 4.27,-1.57 7.89,-3.597 10.86,-6.039 2.97,-2.488 5.24,-5.121 6.82,-7.9098 1.58,-2.7891 2.34,-5.4102 2.34,-7.8282 0,-2.4414 -0.9,-4.5312 -2.64,-6.2617 -1.77,-1.7305 -3.88,-2.5781 -6.4,-2.5781 -1.66,0 -3.01,0.4766 -4.12,1.3594 -1.06,0.8476 -2.29,2.2382 -3.66,4.25 -2.4,3.8203 -4.94,6.707 -7.56,8.6601 -2.64,1.8985 -5.99,2.8789 -10.01,2.8789 -5.88,0 -10.59,-2.4218 -14.15,-7.1718 -3.59,-4.7969 -5.36,-11.2969 -5.36,-19.5704 0,-3.8593 0.46,-7.4765 1.39,-10.707 0.91,-3.2617 2.24,-6.0195 3.97,-8.332 1.74,-2.2891 3.82,-4.0196 6.3,-5.1992 2.46,-1.211 5.17,-1.7891 8.1,-1.7891 3.99,0 7.36,0.9414 10.2,2.8594 2.83,1.9297 5.33,4.8593 7.5,8.75 1.21,2.3711 2.51,4.1718 3.91,5.5 1.42,1.3203 3.14,1.9414 5.16,1.9414 2.41,0 4.41,-0.9297 6.02,-2.8516 1.57,-1.9492 2.37,-3.9687 2.37,-6.1406"
         style="fill:#fbc6a4;fill-opacity:1;fill-rule:nonzero;stroke:none"
         transform="matrix(0.13333333,0,0,-0.13333333,0,594.56)" />
      <path
         id="path8"
         d="m 1861.46,72.6992 c 0,-5.5898 0.83,-10.3281 2.5,-14.289 1.67,-3.9414 3.92,-6.8594 6.82,-8.8477 2.92,-2.0234 6.09,-3.0234 9.48,-3.0234 3.49,0 6.66,0.9726 9.53,2.832 2.9,1.9102 5.16,4.8203 6.9,8.7187 1.72,3.8907 2.57,8.7813 2.57,14.6094 0,5.5313 -0.85,10.2305 -2.57,14.2031 -1.74,3.9688 -4.04,6.9766 -6.95,9.1094 -2.93,2.0703 -6.12,3.1406 -9.59,3.1406 -3.62,0 -6.85,-1.1132 -9.71,-3.2421 -2.83,-2.1289 -5.07,-5.2383 -6.63,-9.2383 -1.55,-4.0313 -2.35,-8.6406 -2.35,-13.9727 z m 38.88,-30.289 v 2.0195 c -2.65,-3.168 -5.27,-5.75 -7.89,-7.7109 -2.54,-2.0196 -5.36,-3.5274 -8.38,-4.5586 -3.01,-1.0079 -6.31,-1.5508 -9.87,-1.5508 -4.73,0 -9.14,1.0703 -13.16,3.1211 -4.02,2.1679 -7.5,5.1093 -10.45,8.9883 -2.94,3.8828 -5.18,8.4414 -6.71,13.7031 -1.55,5.2304 -2.29,10.8984 -2.29,17.0273 0,12.8711 3.03,22.9805 9.06,30.1918 6.06,7.211 13.99,10.808 23.83,10.808 5.7,0 10.51,-1.039 14.42,-3.129 3.9,-2 7.73,-5.14 11.44,-9.41 v 30.492 c 0,4.239 0.8,7.438 2.43,9.598 1.61,2.18 3.9,3.25 6.91,3.25 2.99,0 5.29,-1 6.93,-2.969 1.6,-1.98 2.44,-4.929 2.44,-8.812 V 42.4102 c 0,-3.9297 -0.88,-6.8907 -2.62,-8.8282 -1.75,-1.9922 -3.98,-2.9726 -6.75,-2.9726 -2.68,0 -4.94,1.0195 -6.71,3.0625 -1.75,2.0273 -2.63,4.9179 -2.63,8.7383"
         style="fill:#fbc6a4;fill-opacity:1;fill-rule:nonzero;stroke:none"
         transform="matrix(0.13333333,0,0,-0.13333333,0,594.56)" />
      <path
         id="path9"
         d="m 1993.1,72.5391 c 0,8.3828 -1.81,14.9609 -5.34,19.6406 -3.55,4.6601 -8.34,7.0391 -14.31,7.0391 -3.89,0 -7.28,-1.0586 -10.23,-3.1485 -2.94,-2.1211 -5.2,-5.1992 -6.8,-9.289 -1.59,-4.0391 -2.4,-8.7813 -2.4,-14.2422 0,-5.3985 0.81,-10.0977 2.36,-14.1289 1.56,-4.0313 3.82,-7.1094 6.75,-9.2579 2.91,-2.1406 6.38,-3.2031 10.32,-3.2031 5.97,0 10.76,2.3516 14.31,7.0508 3.53,4.6992 5.34,11.2422 5.34,19.5391 z m 19.84,0 c 0,-6.1172 -0.93,-11.7969 -2.75,-17.0274 -1.84,-5.1406 -4.5,-9.6133 -7.95,-13.3515 -3.51,-3.75 -7.66,-6.5391 -12.48,-8.5782 -4.83,-1.9922 -10.31,-2.9726 -16.31,-2.9726 -5.98,0 -11.38,0.9804 -16.15,3.0312 -4.78,2 -8.94,4.8907 -12.45,8.6485 -3.48,3.7734 -6.13,8.1718 -7.97,13.2812 -1.8,5.1602 -2.7,10.7695 -2.7,17 0,6.25 0.93,11.9688 2.74,17.1289 1.84,5.2305 4.46,9.6328 7.89,13.3398 3.44,3.68 7.58,6.512 12.49,8.492 4.9,2 10.25,3.008 16.15,3.008 5.99,0 11.43,-1.008 16.31,-3.039 4.86,-2 9.04,-4.898 12.52,-8.629 3.49,-3.7187 6.13,-8.1913 7.91,-13.3319 1.85,-5.1289 2.75,-10.7969 2.75,-17"
         style="fill:#fbc6a4;fill-opacity:1;fill-rule:nonzero;stroke:none"
         transform="matrix(0.13333333,0,0,-0.13333333,0,594.56)" />
      <path
         id="path10"
         d="m 2096.47,89.5898 c -1.48,-3.4882 -2.18,-9.6484 -2.18,-18.5195 V 43.6406 c 0,-4.3203 -0.93,-7.6015 -2.83,-9.7812 -1.88,-2.1485 -4.4,-3.25 -7.49,-3.25 -2.96,0 -5.39,1.1015 -7.23,3.25 -1.87,2.1797 -2.78,5.4609 -2.78,9.7812 v 32.9297 c 0,5.1719 -0.19,9.1992 -0.53,12.1094 -0.34,2.8398 -1.25,5.2109 -2.76,7.0625 -1.46,1.8476 -3.84,2.7695 -7.07,2.7695 -6.46,0 -10.72,-2.3203 -12.79,-6.9922 -2.07,-4.6172 -3.05,-11.2773 -3.05,-19.9687 V 43.6406 c 0,-4.3086 -0.95,-7.5508 -2.79,-9.6992 -1.87,-2.2305 -4.33,-3.332 -7.33,-3.332 -3.02,0 -5.5,1.1015 -7.4,3.332 -1.92,2.1484 -2.83,5.3906 -2.83,9.6875 v 59.0701 c 0,3.903 0.82,6.852 2.52,8.86 1.74,2.004 4,3.043 6.82,3.043 2.69,0 4.96,-0.942 6.76,-2.84 1.8,-1.883 2.71,-4.481 2.71,-7.821 v -1.961 c 3.42,4.29 7.1,7.45 11,9.442 3.9,2.008 8.3,3.027 13.04,3.027 4.96,0 9.22,-1.039 12.8,-3.129 3.59,-2.039 6.52,-5.168 8.82,-9.34 3.34,4.2 6.92,7.372 10.75,9.399 3.82,2.051 8.03,3.07 12.65,3.07 5.45,0 10.1,-1.078 13.99,-3.34 3.92,-2.218 6.83,-5.379 8.78,-9.519 1.7,-3.7306 2.53,-9.5978 2.53,-17.6408 V 43.6406 c 0,-4.3203 -0.94,-7.6015 -2.8,-9.7812 -1.92,-2.1485 -4.38,-3.25 -7.48,-3.25 -3.01,0 -5.45,1.1015 -7.34,3.332 -1.93,2.1484 -2.89,5.3906 -2.89,9.6992 v 34.7383 c 0,4.4414 -0.18,7.9805 -0.53,10.6602 -0.37,2.7031 -1.35,4.9101 -2.96,6.7422 -1.58,1.8085 -4.01,2.7304 -7.21,2.7304 -2.61,0 -5.1,-0.8203 -7.41,-2.3906 -2.38,-1.6406 -4.16,-3.8086 -5.49,-6.5313 v 0"
         style="fill:#fbc6a4;fill-opacity:1;fill-rule:nonzero;stroke:none"
         transform="matrix(0.13333333,0,0,-0.13333333,0,594.56)" />
      <path
         id="path11"
         d="m 2208.49,72.1484 c -2.91,-1.1367 -7.13,-2.2773 -12.66,-3.539 -5.54,-1.2305 -9.37,-2.1289 -11.49,-2.7188 -2.13,-0.6015 -4.16,-1.7187 -6.07,-3.3906 -1.95,-1.7383 -2.93,-4.0898 -2.93,-7.1094 0,-3.1601 1.15,-5.789 3.4,-7.9883 2.29,-2.2226 5.26,-3.2929 8.94,-3.2929 3.9,0 7.53,0.9101 10.83,2.6914 3.31,1.7812 5.76,4.1094 7.27,6.918 1.8,3.1328 2.71,8.2617 2.71,15.4921 z m 1.29,-29.9062 c -4.8,-3.8828 -9.42,-6.7813 -13.88,-8.7031 -4.45,-1.9688 -9.49,-2.9297 -15.02,-2.9297 -5.11,0 -9.52,1.0703 -13.39,3.1211 -3.87,2.1093 -6.8,4.9492 -8.89,8.5586 -2.05,3.582 -3.11,7.4218 -3.11,11.6211 0,5.6601 1.76,10.4492 5.17,14.4492 3.4,3.9531 8.11,6.6406 14.1,8 1.26,0.3125 4.39,0.9609 9.33,2.0195 5.03,1.0899 9.25,2.043 12.85,2.9219 3.52,0.8594 7.4,1.9414 11.55,3.1914 -0.26,5.4687 -1.3,9.457 -3.15,12.0586 -1.88,2.5195 -5.76,3.7692 -11.57,3.7692 -5.05,0 -8.81,-0.7106 -11.38,-2.1794 -2.52,-1.4414 -4.7,-3.6601 -6.49,-6.6211 -1.84,-2.8984 -3.09,-4.8398 -3.84,-5.7578 -0.77,-0.9609 -2.38,-1.3828 -4.8,-1.3828 -2.26,0 -4.16,0.7305 -5.77,2.2031 -1.64,1.5 -2.44,3.3789 -2.44,5.7305 0,3.6172 1.23,7.1797 3.68,10.5585 2.48,3.449 6.32,6.258 11.53,8.508 5.21,2.223 11.73,3.32 19.51,3.32 8.67,0 15.52,-1.097 20.53,-3.23 4.96,-2.117 8.43,-5.489 10.5,-10.16 2.08,-4.6098 3.09,-10.7895 3.09,-18.4379 0,-4.8398 0,-8.9805 -0.03,-12.3398 -0.04,-3.3907 -0.06,-7.1407 -0.11,-11.2813 0,-3.8594 0.62,-7.9297 1.86,-12.1094 1.2,-4.2109 1.82,-6.9414 1.82,-8.1211 0,-2.1289 -0.97,-4.0586 -2.87,-5.8007 -1.86,-1.7266 -4.05,-2.6094 -6.45,-2.6094 -2.06,0 -4.02,0.9804 -6.04,2.9726 -1.97,2 -4.07,4.8985 -6.29,8.6602"
         style="fill:#fbc6a4;fill-opacity:1;fill-rule:nonzero;stroke:none"
         transform="matrix(0.13333333,0,0,-0.13333333,0,594.56)" />
      <path
         id="path12"
         d="M 2267.76,102.809 V 43.1797 c 0,-4.1602 -0.94,-7.2813 -2.8,-9.3984 -1.88,-2.0704 -4.26,-3.1719 -7.17,-3.1719 -2.89,0 -5.27,1.1015 -7.06,3.2422 -1.83,2.1875 -2.74,5.2773 -2.74,9.3281 v 59.0393 c 0,4.051 0.91,7.133 2.74,9.203 1.79,2.09 4.17,3.117 7.06,3.117 2.91,0 5.29,-1.027 7.17,-3.117 1.86,-2.07 2.8,-4.93 2.8,-8.613 z m -9.77,21.351 c -2.73,0 -5.07,0.879 -7.03,2.68 -1.96,1.762 -2.97,4.281 -2.97,7.512 0,2.91 1.02,5.296 3.04,7.218 1.98,1.891 4.33,2.782 6.96,2.782 2.57,0 4.86,-0.832 6.84,-2.532 1.96,-1.718 2.93,-4.238 2.93,-7.468 0,-3.2 -0.94,-5.68 -2.89,-7.45 -1.93,-1.793 -4.23,-2.742 -6.88,-2.742"
         style="fill:#fbc6a4;fill-opacity:1;fill-rule:nonzero;stroke:none"
         transform="matrix(0.13333333,0,0,-0.13333333,0,594.56)" />
      <path
         id="path13"
         d="m 2306.2,103.109 v -2.457 c 3.46,4.77 7.26,8.278 11.36,10.52 4.14,2.238 8.89,3.367 14.28,3.367 5.18,0 9.87,-1.168 14,-3.578 4.06,-2.352 7.15,-5.68 9.16,-10 1.32,-2.5508 2.14,-5.2891 2.55,-8.1993 0.36,-2.9023 0.58,-6.6328 0.58,-11.1797 V 43.1797 c 0,-4.1602 -0.93,-7.2813 -2.73,-9.3984 -1.82,-2.0704 -4.18,-3.1719 -7.06,-3.1719 -2.94,0 -5.34,1.1015 -7.11,3.25 -1.86,2.1797 -2.8,5.2695 -2.8,9.3203 v 34.3789 c 0,6.8437 -0.88,12.0312 -2.69,15.6211 -1.84,3.6016 -5.47,5.4297 -10.88,5.4297 -3.51,0 -6.73,-1.0977 -9.62,-3.3086 -2.89,-2.1719 -5.02,-5.1992 -6.36,-9.0313 C 2307.91,83.1914 2307.4,77.4688 2307.4,69 V 43.1797 c 0,-4.1875 -0.91,-7.3399 -2.78,-9.4492 -1.87,-2.0508 -4.27,-3.1211 -7.2,-3.1211 -2.83,0 -5.19,1.1015 -7.02,3.2422 -1.86,2.1875 -2.76,5.2773 -2.76,9.3281 v 59.6293 c 0,3.953 0.81,6.851 2.48,8.812 1.6,1.942 3.9,2.918 6.74,2.918 1.7,0 3.3,-0.457 4.67,-1.289 1.45,-0.84 2.53,-2.168 3.38,-3.82 0.82,-1.758 1.29,-3.848 1.29,-6.321"
         style="fill:#fbc6a4;fill-opacity:1;fill-rule:nonzero;stroke:none"
         transform="matrix(0.13333333,0,0,-0.13333333,0,594.56)" />
      <path
         id="path14"
         d="m 2389.87,101.699 15.98,-46.8787 17.25,48.9217 c 1.37,3.93 2.69,6.688 4.01,8.34 1.34,1.629 3.28,2.457 5.93,2.457 2.51,0 4.64,-0.879 6.44,-2.68 1.73,-1.75 2.62,-3.757 2.62,-6.129 0,-0.89 -0.18,-1.929 -0.49,-3.121 -0.28,-1.238 -0.64,-2.367 -1.07,-3.4488 -0.42,-1.0196 -0.85,-2.25 -1.42,-3.6016 l -18.97,-49.1484 c -0.54,-1.3907 -1.24,-3.211 -2.06,-5.3907 -0.86,-2.1484 -1.82,-3.957 -2.84,-5.5586 -1.05,-1.5195 -2.32,-2.6796 -3.82,-3.5507 -1.56,-0.8594 -3.4,-1.3008 -5.58,-1.3008 -2.8,0 -5.02,0.6719 -6.71,1.9804 -1.67,1.3516 -2.9,2.8008 -3.69,4.4219 -0.78,1.5586 -2.15,4.7188 -4.01,9.3985 l -18.86,48.6211 c -0.43,1.1875 -0.9,2.4101 -1.37,3.621 -0.44,1.2071 -0.79,2.4107 -1.13,3.6997 -0.3,1.289 -0.48,2.359 -0.48,3.23 0,1.449 0.41,2.828 1.25,4.219 0.82,1.398 1.96,2.551 3.4,3.41 1.47,0.871 3.01,1.328 4.72,1.328 3.27,0 5.53,-0.976 6.77,-2.98 1.24,-1.95 2.63,-5.239 4.13,-9.86"
         style="fill:#fbc6a4;fill-opacity:1;fill-rule:nonzero;stroke:none"
         transform="matrix(0.13333333,0,0,-0.13333333,0,594.56)" />
      <path
         id="path15"
         d="m 2470.77,79.2695 h 35.85 c -0.46,7.0391 -2.26,12.3203 -5.46,15.8008 -3.17,3.4922 -7.34,5.2497 -12.52,5.2497 -4.89,0 -8.95,-1.7809 -12.1,-5.32 -3.16,-3.5391 -5.06,-8.7891 -5.77,-15.7305 z m 38.69,-11.7382 h -38.69 c 0.01,-4.711 0.96,-8.8321 2.69,-12.4415 1.79,-3.539 4.12,-6.25 7.05,-8.0781 2.92,-1.832 6.15,-2.7109 9.69,-2.7109 2.35,0 4.54,0.289 6.46,0.8515 1.95,0.6094 3.87,1.5079 5.72,2.7266 1.81,1.2422 3.48,2.5313 5.04,3.9922 1.53,1.4102 3.6,3.2891 6.02,5.7187 1.02,0.961 2.48,1.379 4.34,1.379 2.06,0 3.68,-0.5586 4.94,-1.75 1.26,-1.1563 1.86,-2.7774 1.86,-4.8868 0,-1.8711 -0.68,-4.0507 -2.1,-6.5703 -1.39,-2.4609 -3.46,-4.8711 -6.34,-7.1914 -2.83,-2.2695 -6.37,-4.1484 -10.65,-5.6992 -4.25,-1.5117 -9.14,-2.2617 -14.75,-2.2617 -12.68,0 -22.58,3.8125 -29.6,11.332 -7.04,7.6094 -10.55,17.8281 -10.55,30.7578 0,6.1719 0.89,11.793 2.59,16.9922 1.74,5.2383 4.26,9.6992 7.6,13.4176 3.34,3.75 7.42,6.633 12.32,8.602 4.9,2 10.28,2.988 16.25,2.988 7.67,0 14.32,-1.699 19.85,-5.117 5.55,-3.402 9.68,-7.773 12.43,-13.1523 2.75,-5.4297 4.13,-10.8984 4.13,-16.5274 0,-5.1601 -1.38,-8.5312 -4.27,-10.0507 -2.87,-1.5625 -6.85,-2.3203 -12.03,-2.3203"
         style="fill:#fbc6a4;fill-opacity:1;fill-rule:nonzero;stroke:none"
         transform="matrix(0.13333333,0,0,-0.13333333,0,594.56)" />
      <path
         id="path16"
         d="m 2613.39,56.1797 c 0,-2.5586 -0.73,-5.3203 -2.24,-8.2383 -1.48,-2.9219 -3.68,-5.6992 -6.73,-8.3516 -3,-2.6406 -6.84,-4.7695 -11.44,-6.371 -4.56,-1.6485 -9.76,-2.4375 -15.46,-2.4375 -12.26,0 -21.8,3.7304 -28.64,11.1484 -6.84,7.4414 -10.3,17.3789 -10.3,29.8906 0,8.4688 1.57,15.9805 4.73,22.461 3.15,6.4687 7.65,11.5387 13.6,15.0707 5.92,3.578 13.05,5.347 21.32,5.347 5.12,0 9.8,-0.797 14.1,-2.34 4.27,-1.57 7.87,-3.597 10.87,-6.039 2.97,-2.488 5.22,-5.121 6.81,-7.9098 1.55,-2.7891 2.34,-5.4102 2.34,-7.8282 0,-2.4414 -0.86,-4.5312 -2.68,-6.2617 -1.74,-1.7305 -3.87,-2.5781 -6.38,-2.5781 -1.65,0 -3.01,0.4766 -4.07,1.3594 -1.11,0.8476 -2.33,2.2382 -3.69,4.25 -2.41,3.8203 -4.92,6.707 -7.56,8.6601 -2.64,1.8985 -5.98,2.8789 -10.05,2.8789 -5.81,0 -10.54,-2.4218 -14.1,-7.1718 -3.61,-4.7969 -5.38,-11.2969 -5.38,-19.5704 0,-3.8593 0.49,-7.4765 1.36,-10.707 0.93,-3.2617 2.27,-6.0195 4.02,-8.332 1.73,-2.2891 3.85,-4.0196 6.31,-5.1992 2.42,-1.211 5.13,-1.7891 8.1,-1.7891 3.96,0 7.37,0.9414 10.19,2.8594 2.81,1.9297 5.33,4.8593 7.51,8.75 1.21,2.3711 2.49,4.1718 3.9,5.5 1.39,1.3203 3.09,1.9414 5.15,1.9414 2.38,0 4.42,-0.9297 5.96,-2.8516 1.63,-1.9492 2.45,-3.9687 2.45,-6.1406"
         style="fill:#fbc6a4;fill-opacity:1;fill-rule:nonzero;stroke:none"
         transform="matrix(0.13333333,0,0,-0.13333333,0,594.56)" />
      <path
         id="path17"
         d="m 2631.75,112.801 h 2.18 v 12.41 c 0,3.301 0.08,5.941 0.26,7.809 0.17,1.902 0.6,3.492 1.42,4.882 0.75,1.379 1.86,2.547 3.34,3.438 1.43,0.859 3.04,1.281 4.83,1.281 2.5,0 4.78,-0.961 6.8,-2.922 1.32,-1.32 2.2,-2.91 2.56,-4.777 0.38,-1.902 0.54,-4.613 0.54,-8.082 v -14.039 h 7.27 c 2.8,0 4.95,-0.699 6.41,-2.09 1.51,-1.391 2.22,-3.141 2.22,-5.32 0,-2.782 -1.04,-4.739 -3.17,-5.8285 -2.09,-1.0937 -5.1,-1.6523 -9.02,-1.6523 h -3.71 V 59.8906 c 0,-3.2304 0.12,-5.7187 0.32,-7.4804 0.26,-1.75 0.87,-3.168 1.79,-4.2188 0.91,-1.082 2.45,-1.6523 4.59,-1.6523 1.15,0 2.72,0.2031 4.72,0.6523 1.93,0.418 3.48,0.6406 4.62,0.6406 1.58,0 3.06,-0.6914 4.32,-1.9609 1.25,-1.3789 1.91,-3 1.91,-4.9805 0,-3.3203 -1.7,-5.8593 -5.21,-7.6289 -3.51,-1.7695 -8.49,-2.6523 -14.99,-2.6523 -6.19,0 -10.89,1.1015 -14.07,3.25 -3.17,2.1797 -5.29,5.1601 -6.25,9.0429 -1.02,3.8282 -1.5,8.9297 -1.5,15.3399 v 39.668 h -2.63 c -2.8,0 -4.98,0.6992 -6.5,2.1288 -1.5,1.402 -2.23,3.172 -2.23,5.352 0,2.179 0.77,3.929 2.32,5.32 1.59,1.391 3.86,2.09 6.86,2.09"
         style="fill:#fbc6a4;fill-opacity:1;fill-rule:nonzero;stroke:none"
         transform="matrix(0.13333333,0,0,-0.13333333,0,594.56)" />
      <path
         id="path18"
         d="m 2737.35,72.5391 c 0,8.3828 -1.79,14.9609 -5.32,19.6406 -3.58,4.6601 -8.31,7.0391 -14.32,7.0391 -3.87,0 -7.27,-1.0586 -10.2,-3.1485 -2.97,-2.1211 -5.23,-5.1992 -6.82,-9.289 -1.59,-4.0391 -2.4,-8.7813 -2.4,-14.2422 0,-5.3985 0.81,-10.0977 2.37,-14.1289 1.57,-4.0313 3.8,-7.1094 6.72,-9.2579 2.91,-2.1406 6.36,-3.2031 10.33,-3.2031 6.01,0 10.74,2.3516 14.32,7.0508 3.53,4.6992 5.32,11.2422 5.32,19.5391 z m 19.86,0 c 0,-6.1172 -0.91,-11.7969 -2.78,-17.0274 -1.81,-5.1406 -4.49,-9.6133 -7.95,-13.3515 -3.48,-3.75 -7.64,-6.5391 -12.46,-8.5782 -4.84,-1.9922 -10.24,-2.9726 -16.31,-2.9726 -6.01,0 -11.4,0.9804 -16.17,3.0312 -4.76,2 -8.92,4.8907 -12.42,8.6485 -3.49,3.7734 -6.15,8.1718 -7.94,13.2812 -1.8,5.1602 -2.69,10.7695 -2.69,17 0,6.25 0.89,11.9688 2.69,17.1289 1.88,5.2305 4.47,9.6328 7.9,13.3398 3.46,3.68 7.6,6.512 12.46,8.492 4.93,2 10.31,3.008 16.17,3.008 6.01,0 11.41,-1.008 16.31,-3.039 4.88,-2 9.04,-4.898 12.52,-8.629 3.45,-3.7187 6.15,-8.1913 7.95,-13.3319 1.81,-5.1289 2.72,-10.7969 2.72,-17"
         style="fill:#fbc6a4;fill-opacity:1;fill-rule:nonzero;stroke:none"
         transform="matrix(0.13333333,0,0,-0.13333333,0,594.56)" />
      <path
         id="path19"
         d="M 2792.44,60.3711 V 43.1797 c 0,-4.1875 -0.95,-7.3399 -2.83,-9.4492 -1.9,-2.0508 -4.28,-3.1211 -7.2,-3.1211 -2.81,0 -5.18,1.1015 -7,3.1719 -1.84,2.1171 -2.73,5.2382 -2.73,9.3984 v 57.4493 c 0,9.293 3.19,13.91 9.61,13.91 3.26,0 5.64,-1.109 7.11,-3.238 1.43,-2.172 2.19,-5.391 2.39,-9.602 2.35,4.211 4.8,7.43 7.29,9.602 2.49,2.129 5.79,3.238 9.92,3.238 4.19,0 8.21,-1.109 12.14,-3.238 3.89,-2.172 5.87,-5.059 5.87,-8.629 0,-2.52 -0.86,-4.6329 -2.52,-6.2423 -1.65,-1.6289 -3.45,-2.4805 -5.41,-2.4805 -0.71,0 -2.47,0.4805 -5.24,1.4414 -2.8,0.918 -5.25,1.3907 -7.38,1.3907 -2.88,0 -5.24,-0.7696 -7.06,-2.3907 -1.84,-1.6093 -3.28,-3.9297 -4.28,-7.0508 -1.02,-3.1601 -1.75,-6.8593 -2.11,-11.1992 -0.37,-4.2812 -0.57,-9.5195 -0.57,-15.7695"
         style="fill:#fbc6a4;fill-opacity:1;fill-rule:nonzero;stroke:none"
         transform="matrix(0.13333333,0,0,-0.13333333,0,594.56)" />
      <path
         id="path20"
         d="m 2897.79,57.582 c 0,-5.7109 -1.33,-10.5703 -4.01,-14.6328 -2.67,-4.0781 -6.58,-7.1094 -11.78,-9.2304 -5.21,-2.0391 -11.5,-3.1094 -18.98,-3.1094 -7.04,0 -13.17,1.1328 -18.25,3.4219 -5.07,2.2695 -8.82,5.0781 -11.22,8.4804 -2.44,3.3867 -3.68,6.7969 -3.68,10.2071 0,2.2734 0.79,4.2226 2.38,5.832 1.53,1.6406 3.5,2.4101 5.84,2.4101 2.09,0 3.7,-0.5312 4.8,-1.5586 1.11,-1.121 2.15,-2.582 3.19,-4.4921 2.03,-3.6914 4.44,-6.4414 7.31,-8.25 2.78,-1.8399 6.64,-2.7383 11.56,-2.7383 3.94,0 7.19,0.9297 9.74,2.7773 2.52,1.8321 3.83,3.9297 3.83,6.3008 0,3.6602 -1.34,6.3086 -3.95,7.9492 -2.68,1.7031 -6.98,3.293 -13.03,4.793 -6.8,1.7695 -12.36,3.6172 -16.64,5.5469 -4.27,1.9531 -7.73,4.5312 -10.27,7.7031 -2.56,3.1289 -3.86,7.0586 -3.86,11.6992 0,4.1602 1.19,8.0703 3.57,11.7186 2.35,3.692 5.88,6.621 10.48,8.82 4.61,2.2 10.17,3.309 16.72,3.309 5.1,0 9.7,-0.57 13.8,-1.668 4.07,-1.109 7.53,-2.609 10.22,-4.461 2.72,-1.871 4.82,-3.93 6.24,-6.191 1.44,-2.2893 2.15,-4.5081 2.15,-6.6604 0,-2.3789 -0.75,-4.2695 -2.3,-5.8594 -1.53,-1.4375 -3.71,-2.207 -6.46,-2.207 -2.06,0 -3.78,0.5898 -5.23,1.8281 -1.4,1.1914 -3.06,2.9922 -4.87,5.3789 -1.51,2.0313 -3.25,3.6602 -5.3,4.8633 -2.04,1.1875 -4.79,1.8085 -8.25,1.8085 -3.58,0 -6.58,-0.781 -8.9,-2.3905 -2.39,-1.5703 -3.58,-3.5586 -3.58,-5.9414 0,-2.168 0.88,-3.9375 2.59,-5.3282 1.77,-1.3906 4.09,-2.539 7.05,-3.4492 2.97,-0.9023 7.01,-2.0429 12.19,-3.3398 6.14,-1.5508 11.14,-3.4024 15.04,-5.5821 3.88,-2.1484 6.82,-4.7187 8.83,-7.6679 2.04,-2.9805 3.03,-6.3399 3.03,-10.0899"
         style="fill:#fbc6a4;fill-opacity:1;fill-rule:nonzero;stroke:none"
         transform="matrix(0.13333333,0,0,-0.13333333,0,594.56)" />
      <path
         id="path21"
         d="m 2920.25,30.6094 c -2.99,0 -5.58,0.9804 -7.73,3.0312 -2.21,2 -3.28,4.8399 -3.28,8.4414 0,3.0703 1.01,5.7188 3.07,7.9493 2.08,2.1992 4.66,3.289 7.71,3.289 3.03,0 5.63,-1.0898 7.73,-3.2812 2.18,-2.1602 3.27,-4.8594 3.27,-7.9571 0,-3.5703 -1.09,-6.3828 -3.27,-8.4101 -2.1,-2.043 -4.61,-3.0625 -7.5,-3.0625"
         style="fill:#fbc6a4;fill-opacity:1;fill-rule:nonzero;stroke:none"
         transform="matrix(0.13333333,0,0,-0.13333333,0,594.56)" />
      <path
         id="path22"
         d="m 3007.71,72.5391 c 0,8.3828 -1.78,14.9609 -5.33,19.6406 -3.55,4.6601 -8.31,7.0391 -14.28,7.0391 -3.88,0 -7.25,-1.0586 -10.21,-3.1485 -2.96,-2.1211 -5.22,-5.1992 -6.81,-9.289 -1.57,-4.0391 -2.38,-8.7813 -2.38,-14.2422 0,-5.3985 0.76,-10.0977 2.33,-14.1289 1.61,-4.0313 3.83,-7.1094 6.76,-9.2579 2.91,-2.1406 6.34,-3.2031 10.31,-3.2031 5.97,0 10.73,2.3516 14.28,7.0508 3.55,4.6992 5.33,11.2422 5.33,19.5391 z m 19.88,0 c 0,-6.1172 -0.91,-11.7969 -2.78,-17.0274 -1.84,-5.1406 -4.47,-9.6133 -7.95,-13.3515 -3.51,-3.75 -7.61,-6.5391 -12.47,-8.5782 -4.81,-1.9922 -10.24,-2.9726 -16.29,-2.9726 -5.99,0 -11.37,0.9804 -16.16,3.0312 -4.78,2 -8.9,4.8907 -12.4,8.6485 -3.55,3.7734 -6.19,8.1718 -8.03,13.2812 -1.76,5.1602 -2.67,10.7695 -2.67,17 0,6.25 0.91,11.9688 2.75,17.1289 1.87,5.2305 4.45,9.6328 7.87,13.3398 3.43,3.68 7.59,6.512 12.48,8.492 4.88,2 10.23,3.008 16.16,3.008 5.97,0 11.41,-1.008 16.29,-3.039 4.91,-2 9.07,-4.898 12.55,-8.629 3.46,-3.7187 6.1,-8.1913 7.93,-13.3319 1.81,-5.1289 2.72,-10.7969 2.72,-17"
         style="fill:#fbc6a4;fill-opacity:1;fill-rule:nonzero;stroke:none"
         transform="matrix(0.13333333,0,0,-0.13333333,0,594.56)" />
      <path
         id="path23"
         d="M 3062.81,60.3711 V 43.1797 c 0,-4.1875 -0.93,-7.3399 -2.82,-9.4492 -1.86,-2.0508 -4.28,-3.1211 -7.15,-3.1211 -2.89,0 -5.2,1.1015 -7.05,3.1719 -1.85,2.1171 -2.76,5.2382 -2.76,9.3984 v 57.4493 c 0,9.293 3.25,13.91 9.65,13.91 3.29,0 5.63,-1.109 7.08,-3.238 1.42,-2.172 2.27,-5.391 2.44,-9.602 2.32,4.211 4.74,7.43 7.23,9.602 2.49,2.129 5.82,3.238 9.95,3.238 4.21,0 8.25,-1.109 12.11,-3.238 3.92,-2.172 5.89,-5.059 5.89,-8.629 0,-2.52 -0.84,-4.6329 -2.49,-6.2423 -1.69,-1.6289 -3.45,-2.4805 -5.43,-2.4805 -0.7,0 -2.44,0.4805 -5.21,1.4414 -2.79,0.918 -5.25,1.3907 -7.39,1.3907 -2.89,0 -5.23,-0.7696 -7.11,-2.3907 -1.81,-1.6093 -3.25,-3.9297 -4.27,-7.0508 -0.99,-3.1601 -1.7,-6.8593 -2.07,-11.1992 -0.39,-4.2812 -0.6,-9.5195 -0.6,-15.7695"
         style="fill:#fbc6a4;fill-opacity:1;fill-rule:nonzero;stroke:none"
         transform="matrix(0.13333333,0,0,-0.13333333,0,594.56)" />
      <path
         id="path24"
         d="m 3119.92,73.25 c 0,-8.3477 1.76,-14.6875 5.28,-19 3.47,-4.25 8.03,-6.418 13.55,-6.418 3.26,0 6.41,0.9571 9.32,2.7891 2.93,1.8477 5.3,4.6094 7.14,8.3203 1.86,3.7109 2.75,8.1992 2.75,13.4805 0,8.4179 -1.79,14.957 -5.33,19.6406 -3.54,4.7188 -8.22,7.0898 -14.01,7.0898 -5.63,0 -10.17,-2.3125 -13.56,-6.7617 -3.43,-4.5 -5.14,-10.8711 -5.14,-19.1406 z m 57.34,26.1797 V 39.4414 c 0,-6.8711 -0.76,-12.7617 -2.12,-17.6797 -1.41,-4.9726 -3.66,-9.0508 -6.74,-12.26951 -3.09,-3.21094 -7.16,-5.61328 -12.12,-7.17188 C 3151.27,0.789063 3145.04,0 3137.62,0 c -6.83,0 -12.93,0.949219 -18.26,2.94922 -5.38,2.04297 -9.52,4.58203 -12.41,7.74998 -2.89,3.1211 -4.35,6.3711 -4.35,9.7227 0,2.5195 0.8,4.5586 2.49,6.1367 1.62,1.6328 3.6,2.4102 5.92,2.4102 2.91,0 5.41,-1.3477 7.62,-4 1.07,-1.4063 2.18,-2.7696 3.28,-4.129 1.14,-1.3984 2.4,-2.6093 3.76,-3.5703 1.39,-1.0078 3.07,-1.7304 4.99,-2.2109 1.9,-0.4766 4.15,-0.7266 6.67,-0.7266 5.08,0 9.11,0.7578 11.91,2.2383 2.83,1.4805 4.81,3.5586 5.97,6.2305 1.08,2.6797 1.8,5.5195 1.92,8.5703 0.23,3.1094 0.37,7.9609 0.51,14.75 -3.05,-4.4219 -6.61,-7.8086 -10.56,-10.1289 -3.98,-2.3203 -8.75,-3.4531 -14.21,-3.4531 -6.68,0 -12.46,1.7226 -17.38,5.2812 -4.97,3.5195 -8.78,8.4492 -11.43,14.8203 -2.62,6.3282 -3.98,13.668 -3.98,22 0,6.2305 0.79,11.8282 2.44,16.8203 1.58,4.9688 3.88,9.1911 6.92,12.6211 2.96,3.43 6.44,6.008 10.35,7.758 3.93,1.723 8.18,2.609 12.91,2.609 5.57,0 10.43,-1.136 14.53,-3.398 4.16,-2.211 7.93,-5.77 11.46,-10.539 v 2.777 c 0,3.602 0.88,6.352 2.54,8.383 1.68,1.93 3.87,2.93 6.51,2.93 3.83,0 6.36,-1.289 7.63,-3.891 1.24,-2.609 1.89,-6.379 1.89,-11.2813"
         style="fill:#fbc6a4;fill-opacity:1;fill-rule:nonzero;stroke:none"
         transform="matrix(0.13333333,0,0,-0.13333333,0,594.56)" />
      <path
         id="path25"
         d="m 2319.99,300.43 h 29.34 c -2.07,-15.809 -8.56,-28.16 -19.34,-37.039 -9.97,-8.711 -22.05,-13 -36.16,-13 -19.16,0 -34.45,6.738 -45.87,20.16 -10.82,12.781 -16.22,29.281 -16.22,49.429 0,20.649 5.36,37.161 16.06,49.668 10.7,12.442 25.82,18.704 45.37,18.704 14.54,0 26.85,-3.942 36.82,-11.743 10.59,-8.437 17.05,-20.289 19.34,-35.468 h -29.34 c -2.54,13.238 -10.61,19.82 -24.37,19.82 -22.68,0 -34.04,-13.422 -34.04,-40.301 0,-12.601 2.92,-22.871 8.75,-30.89 5.83,-8.028 14.05,-12.059 24.66,-12.059 15.81,0 24.15,7.59 25,22.719 z m -115.49,18.511 c 0,-26.261 8.33,-48.48 24.95,-66.589 16.65,-18.11 37.02,-27.172 61.2,-27.172 24.08,0 44.47,9.062 61.09,27.172 16.67,18.109 24.94,40.328 24.94,66.589 0,26.239 -8.27,48.45 -24.94,66.559 -16.62,18.152 -37.01,27.191 -61.09,27.191 -24.18,0 -44.55,-9.039 -61.2,-27.191 -16.62,-18.109 -24.95,-40.32 -24.95,-66.559 z m -29.8,0 c 0,33.411 11.31,61.93 33.93,85.618 22.66,23.652 50,35.48 82.02,35.48 31.95,0 59.25,-11.828 81.93,-35.48 22.64,-23.688 33.98,-52.207 33.98,-85.618 0,-33.441 -11.34,-61.992 -33.98,-85.628 -22.68,-23.672 -49.98,-35.512 -81.93,-35.512 -32.02,0 -59.36,11.84 -82.02,35.512 -22.62,23.636 -33.93,52.187 -33.93,85.628"
         style="fill:#fbc6a4;fill-opacity:1;fill-rule:nonzero;stroke:none"
         transform="matrix(0.13333333,0,0,-0.13333333,0,594.56)" />
      <path
         id="path26"
         d="m 2221.61,242.992 16.92,-14.34 124.33,159.668 -16.9,14.321 -124.35,-159.649"
         style="fill:#fbc6a4;fill-opacity:1;fill-rule:nonzero;stroke:none"
         transform="matrix(0.13333333,0,0,-0.13333333,0,594.56)" />
      <path
         id="path27"
         d="m 2367.47,4459.24 c 1298.77,0 2351.62,-1052.86 2351.62,-2351.63 0,-437.04 -119.34,-846.13 -327.03,-1196.719 H 342.883 C 135.195,1261.48 15.8398,1670.57 15.8398,2107.61 15.8398,3406.38 1068.7,4459.24 2367.47,4459.24"
         style="fill:#fbc6a4;fill-opacity:1;fill-rule:evenodd;stroke:none"
         transform="matrix(0.13333333,0,0,-0.13333333,0,594.56)" />
      <path
         id="path28"
         d="m 321.801,1223.54 h 971.479 v 306.2 H 321.801 v -306.2"
         style="fill:#87b027;fill-opacity:1;fill-rule:evenodd;stroke:none"
         transform="matrix(0.13333333,0,0,-0.13333333,0,594.56)" />
      <path
         id="path29"
         d="m 819.805,1265.76 h 361.105 v 221.81 H 819.805 v -221.81"
         style="fill:#ffffff;fill-opacity:1;fill-rule:evenodd;stroke:none"
         transform="matrix(0.13333333,0,0,-0.13333333,0,594.56)" />
      <path
         id="path30"
         d="m 1293.28,1223.54 h 526.07 v 306.2 h -526.07 v -306.2"
         style="fill:#5d3097;fill-opacity:1;fill-rule:evenodd;stroke:none"
         transform="matrix(0.13333333,0,0,-0.13333333,0,594.56)" />
      <path
         id="path31"
         d="m 1316.79,1265.76 h 502.56 v 221.81 h -502.56 v -221.81"
         style="fill:#fef0d3;fill-opacity:1;fill-rule:evenodd;stroke:none"
         transform="matrix(0.13333333,0,0,-0.13333333,0,594.56)" />
      <path
         id="path32"
         d="m 282.613,2029.58 h 971.477 v 306.21 H 282.613 v -306.21"
         style="fill:#6c3ba0;fill-opacity:1;fill-rule:evenodd;stroke:none"
         transform="matrix(0.13333333,0,0,-0.13333333,0,594.56)" />
      <path
         id="path33"
         d="m 780.609,2071.78 h 361.131 v 221.79 H 780.609 v -221.79"
         style="fill:#ffffff;fill-opacity:1;fill-rule:evenodd;stroke:none"
         transform="matrix(0.13333333,0,0,-0.13333333,0,594.56)" />
      <path
         id="path34"
         d="m 1254.09,2029.58 h 526.07 v 306.21 h -526.07 v -306.21"
         style="fill:#5d3097;fill-opacity:1;fill-rule:evenodd;stroke:none"
         transform="matrix(0.13333333,0,0,-0.13333333,0,594.56)" />
      <path
         id="path35"
         d="m 1277.58,2071.78 h 502.58 v 221.79 h -502.58 v -221.79"
         style="fill:#fef0d3;fill-opacity:1;fill-rule:evenodd;stroke:none"
         transform="matrix(0.13333333,0,0,-0.13333333,0,594.56)" />
      <path
         id="path36"
         d="M 191.414,2335.79 H 1208.31 v 306.19 H 191.414 v -306.19"
         style="fill:#ffffff;fill-opacity:1;fill-rule:evenodd;stroke:none"
         transform="matrix(0.13333333,0,0,-0.13333333,0,594.56)" />
      <path
         id="path37"
         d="m 1208.31,2335.79 h 502.78 v 306.19 h -502.78 v -306.19"
         style="fill:#fef0d3;fill-opacity:1;fill-rule:evenodd;stroke:none"
         transform="matrix(0.13333333,0,0,-0.13333333,0,594.56)" />
      <path
         id="path38"
         d="m 1208.31,2558.56 -905.814,83.42 h 986.384 z"
         style="fill:#fef0d3;fill-opacity:1;fill-rule:evenodd;stroke:none"
         transform="matrix(0.13333333,0,0,-0.13333333,0,594.56)" />
      <path
         id="path39"
         d="M 543.422,917.352 H 1560.32 V 1223.54 H 543.422 V 917.352"
         style="fill:#ffffff;fill-opacity:1;fill-rule:evenodd;stroke:none"
         transform="matrix(0.13333333,0,0,-0.13333333,0,594.56)" />
      <path
         id="path40"
         d="m 1560.32,917.352 h 502.77 V 1223.54 H 1560.32 V 917.352"
         style="fill:#fef0d3;fill-opacity:1;fill-rule:evenodd;stroke:none"
         transform="matrix(0.13333333,0,0,-0.13333333,0,594.56)" />
      <path
         id="path41"
         d="m 1560.32,1140.13 -905.824,83.41 h 986.374 z"
         style="fill:#fef0d3;fill-opacity:1;fill-rule:evenodd;stroke:none"
         transform="matrix(0.13333333,0,0,-0.13333333,0,594.56)" />
      <path
         id="path42"
         d="m 460.68,1723.4 h 1016.88 v 306.18 H 460.68 V 1723.4"
         style="fill:#ffffff;fill-opacity:1;fill-rule:evenodd;stroke:none"
         transform="matrix(0.13333333,0,0,-0.13333333,0,594.56)" />
      <path
         id="path43"
         d="m 1477.56,1723.4 h 502.78 v 306.18 H 1477.56 V 1723.4"
         style="fill:#fef0d3;fill-opacity:1;fill-rule:evenodd;stroke:none"
         transform="matrix(0.13333333,0,0,-0.13333333,0,594.56)" />
      <path
         id="path44"
         d="m 1477.56,1946.15 -905.802,83.43 h 986.372 z"
         style="fill:#fef0d3;fill-opacity:1;fill-rule:evenodd;stroke:none"
         transform="matrix(0.13333333,0,0,-0.13333333,0,594.56)" />
      <path
         id="path45"
         d="M 257.227,1525.64 H 1274.11 V 1723.4 H 257.227 v -197.76"
         style="fill:#ffffff;fill-opacity:1;fill-rule:evenodd;stroke:none"
         transform="matrix(0.13333333,0,0,-0.13333333,0,594.56)" />
      <path
         id="path46"
         d="m 1274.11,1525.64 h 502.77 v 197.76 h -502.77 v -197.76"
         style="fill:#fef0d3;fill-opacity:1;fill-rule:evenodd;stroke:none"
         transform="matrix(0.13333333,0,0,-0.13333333,0,594.56)" />
      <path
         id="path47"
         d="M 1274.11,1669.51 368.293,1723.4 H 1354.68 Z"
         style="fill:#fef0d3;fill-opacity:1;fill-rule:evenodd;stroke:none"
         transform="matrix(0.13333333,0,0,-0.13333333,0,594.56)" />
      <path
         id="path48"
         d="m 2351.63,845.57 c 1295.24,0 2351.63,29.352 2351.63,65.321 0,35.98 -1056.39,65.328 -2351.63,65.328 C 1056.4,976.219 0,946.871 0,910.891 0,874.922 1056.4,845.57 2351.63,845.57"
         style="fill:#873f1b;fill-opacity:1;fill-rule:evenodd;stroke:none"
         transform="matrix(0.13333333,0,0,-0.13333333,0,594.56)" />
      <path
         id="path49"
         d="m 1467.42,1789.35 h 1016.89 v 306.2 H 1467.42 v -306.2"
         style="fill:#ffffff;fill-opacity:1;fill-rule:evenodd;stroke:none"
         transform="matrix(0.13333333,0,0,-0.13333333,0,594.56)" />
      <path
         id="path50"
         d="m 2484.31,1789.35 h 502.77 v 306.2 h -502.77 v -306.2"
         style="fill:#fef0d3;fill-opacity:1;fill-rule:evenodd;stroke:none"
         transform="matrix(0.13333333,0,0,-0.13333333,0,594.56)" />
      <path
         id="path51"
         d="m 2484.31,2012.13 -905.82,83.42 h 986.38 z"
         style="fill:#fef0d3;fill-opacity:1;fill-rule:evenodd;stroke:none"
         transform="matrix(0.13333333,0,0,-0.13333333,0,594.56)" />
      <path
         id="path52"
         d="m 1545.81,2095.55 h 1016.88 v 306.2 H 1545.81 v -306.2"
         style="fill:#ffffff;fill-opacity:1;fill-rule:evenodd;stroke:none"
         transform="matrix(0.13333333,0,0,-0.13333333,0,594.56)" />
      <path
         id="path53"
         d="m 2562.69,2095.55 h 502.78 v 306.2 h -502.78 v -306.2"
         style="fill:#fef0d3;fill-opacity:1;fill-rule:evenodd;stroke:none"
         transform="matrix(0.13333333,0,0,-0.13333333,0,594.56)" />
      <path
         id="path54"
         d="m 2562.69,2318.34 -905.81,83.41 h 986.38 z"
         style="fill:#fef0d3;fill-opacity:1;fill-rule:evenodd;stroke:none"
         transform="matrix(0.13333333,0,0,-0.13333333,0,594.56)" />
      <path
         id="path55"
         d="m 1407.5,2401.75 h 1016.9 v 306.21 H 1407.5 v -306.21"
         style="fill:#ffffff;fill-opacity:1;fill-rule:evenodd;stroke:none"
         transform="matrix(0.13333333,0,0,-0.13333333,0,594.56)" />
      <path
         id="path56"
         d="m 2424.4,2401.75 h 502.78 v 306.21 H 2424.4 v -306.21"
         style="fill:#fef0d3;fill-opacity:1;fill-rule:evenodd;stroke:none"
         transform="matrix(0.13333333,0,0,-0.13333333,0,594.56)" />
      <path
         id="path57"
         d="m 2424.4,2624.53 -905.81,83.43 h 986.38 z"
         style="fill:#fef0d3;fill-opacity:1;fill-rule:evenodd;stroke:none"
         transform="matrix(0.13333333,0,0,-0.13333333,0,594.56)" />
      <path
         id="path58"
         d="m 2360.26,2415.71 236.79,-7.05 236.8,-7.03 -236.8,-7.04 -236.79,-7.05 -236.79,7.05 -236.8,7.04 236.8,7.03 236.79,7.05"
         style="fill:#d2b781;fill-opacity:1;fill-rule:evenodd;stroke:none"
         transform="matrix(0.13333333,0,0,-0.13333333,0,594.56)" />
      <path
         id="path59"
         d="m 2470.51,2107.61 202.77,-6.03 202.77,-6.03 -202.77,-6.02 -202.77,-6.04 -202.78,6.04 -202.77,6.02 202.77,6.03 202.78,6.03"
         style="fill:#d2b781;fill-opacity:1;fill-rule:evenodd;stroke:none"
         transform="matrix(0.13333333,0,0,-0.13333333,0,594.56)" />
      <path
         id="path60"
         d="m 1250.61,910.891 h 1977.1 V 1942.46 H 1250.61 V 910.891"
         style="fill:#ad581e;fill-opacity:1;fill-rule:evenodd;stroke:none"
         transform="matrix(0.13333333,0,0,-0.13333333,0,594.56)" />
      <path
         id="path61"
         d="m 2543.99,910.891 h 683.72 V 1942.46 H 2543.99 V 910.891"
         style="fill:#873f1b;fill-opacity:1;fill-rule:evenodd;stroke:none"
         transform="matrix(0.13333333,0,0,-0.13333333,0,594.56)" />
      <path
         id="path62"
         d="M 1250.61,1942.46 H 2543.99 L 2167.33,1668.65 H 873.953 l 376.657,273.81"
         style="fill:#c2671d;fill-opacity:1;fill-rule:evenodd;stroke:none"
         transform="matrix(0.13333333,0,0,-0.13333333,0,594.56)" />
      <path
         id="path63"
         d="m 3610.9,1668.65 h -683.72 l -383.19,273.81 h 683.72 l 383.19,-273.81"
         style="fill:#ad581e;fill-opacity:1;fill-rule:evenodd;stroke:none"
         transform="matrix(0.13333333,0,0,-0.13333333,0,594.56)" />
      <path
         id="path64"
         d="m 1647.02,2695.64 h 1016.91 v 306.2 H 1647.02 v -306.2"
         style="fill:#ffffff;fill-opacity:1;fill-rule:evenodd;stroke:none"
         transform="matrix(0.13333333,0,0,-0.13333333,0,594.56)" />
      <path
         id="path65"
         d="m 2663.93,2695.64 h 502.77 v 306.2 h -502.77 v -306.2"
         style="fill:#fef0d3;fill-opacity:1;fill-rule:evenodd;stroke:none"
         transform="matrix(0.13333333,0,0,-0.13333333,0,594.56)" />
      <path
         id="path66"
         d="m 2663.93,2918.42 -905.82,83.42 h 986.37 z"
         style="fill:#fef0d3;fill-opacity:1;fill-rule:evenodd;stroke:none"
         transform="matrix(0.13333333,0,0,-0.13333333,0,594.56)" />
      <path
         id="path67"
         d="m 2478.67,2706.83 188.34,-5.61 188.36,-5.58 -188.36,-5.61 -188.34,-5.59 -188.34,5.59 -188.34,5.61 188.34,5.58 188.34,5.61"
         style="fill:#d2b781;fill-opacity:1;fill-rule:evenodd;stroke:none"
         transform="matrix(0.13333333,0,0,-0.13333333,0,594.56)" />
      <path
         id="path68"
         d="m 1629.31,3001.84 h 1324.38 v 409.02 H 1629.31 v -409.02"
         style="fill:#ad581e;fill-opacity:1;fill-rule:evenodd;stroke:none"
         transform="matrix(0.13333333,0,0,-0.13333333,0,594.56)" />
      <path
         id="path69"
         d="m 2495.71,3001.84 h 458 v 409.02 h -458 v -409.02"
         style="fill:#873f1b;fill-opacity:1;fill-rule:evenodd;stroke:none"
         transform="matrix(0.13333333,0,0,-0.13333333,0,594.56)" />
      <path
         id="path70"
         d="m 1611.99,3323.1 h 1359.03 v 128.85 H 1611.99 V 3323.1"
         style="fill:#ce6b1c;fill-opacity:1;fill-rule:evenodd;stroke:none"
         transform="matrix(0.13333333,0,0,-0.13333333,0,594.56)" />
      <path
         id="path71"
         d="m 2501.04,3323.1 h 470 v 128.85 h -470 V 3323.1"
         style="fill:#ad581e;fill-opacity:1;fill-rule:evenodd;stroke:none"
         transform="matrix(0.13333333,0,0,-0.13333333,0,594.56)" />
      <path
         id="path72"
         d="m 1607.64,3451.95 h 1016.88 v 306.21 H 1607.64 v -306.21"
         style="fill:#ffffff;fill-opacity:1;fill-rule:evenodd;stroke:none"
         transform="matrix(0.13333333,0,0,-0.13333333,0,594.56)" />
      <path
         id="path73"
         d="m 2624.52,3451.95 h 502.79 v 306.21 h -502.79 v -306.21"
         style="fill:#fef0d3;fill-opacity:1;fill-rule:evenodd;stroke:none"
         transform="matrix(0.13333333,0,0,-0.13333333,0,594.56)" />
      <path
         id="path74"
         d="m 2624.52,3674.74 -905.8,83.42 h 986.38 z"
         style="fill:#fef0d3;fill-opacity:1;fill-rule:evenodd;stroke:none"
         transform="matrix(0.13333333,0,0,-0.13333333,0,594.56)" />
      <path
         id="path75"
         d="M 2748.61,917.352 H 3765.5 V 1223.54 H 2748.61 V 917.352"
         style="fill:#ffffff;fill-opacity:1;fill-rule:evenodd;stroke:none"
         transform="matrix(0.13333333,0,0,-0.13333333,0,594.56)" />
      <path
         id="path76"
         d="m 3765.5,917.352 h 502.78 V 1223.54 H 3765.5 V 917.352"
         style="fill:#fef0d3;fill-opacity:1;fill-rule:evenodd;stroke:none"
         transform="matrix(0.13333333,0,0,-0.13333333,0,594.56)" />
      <path
         id="path77"
         d="m 3765.5,1140.13 -905.8,83.41 h 986.36 z"
         style="fill:#fef0d3;fill-opacity:1;fill-rule:evenodd;stroke:none"
         transform="matrix(0.13333333,0,0,-0.13333333,0,594.56)" />
      <path
         id="path78"
         d="m 2892.32,1223.54 h 1016.9 v 197.76 h -1016.9 v -197.76"
         style="fill:#ffffff;fill-opacity:1;fill-rule:evenodd;stroke:none"
         transform="matrix(0.13333333,0,0,-0.13333333,0,594.56)" />
      <path
         id="path79"
         d="M 3909.22,1223.54 H 4412 v 197.76 h -502.78 v -197.76"
         style="fill:#fef0d3;fill-opacity:1;fill-rule:evenodd;stroke:none"
         transform="matrix(0.13333333,0,0,-0.13333333,0,594.56)" />
      <path
         id="path80"
         d="m 3909.22,1367.43 -905.82,53.87 h 986.38 z"
         style="fill:#fef0d3;fill-opacity:1;fill-rule:evenodd;stroke:none"
         transform="matrix(0.13333333,0,0,-0.13333333,0,594.56)" />
      <path
         id="path81"
         d="m 2868.37,1421.3 h 1016.88 v 384.25 H 2868.37 V 1421.3"
         style="fill:#ffffff;fill-opacity:1;fill-rule:evenodd;stroke:none"
         transform="matrix(0.13333333,0,0,-0.13333333,0,594.56)" />
      <path
         id="path82"
         d="m 3885.25,1421.3 h 502.79 v 384.25 H 3885.25 V 1421.3"
         style="fill:#fef0d3;fill-opacity:1;fill-rule:evenodd;stroke:none"
         transform="matrix(0.13333333,0,0,-0.13333333,0,594.56)" />
      <path
         id="path83"
         d="m 3885.25,1700.87 -905.81,104.68 h 986.38 z"
         style="fill:#fef0d3;fill-opacity:1;fill-rule:evenodd;stroke:none"
         transform="matrix(0.13333333,0,0,-0.13333333,0,594.56)" />
      <path
         id="path84"
         d="m 2792.16,1805.55 h 1016.91 v 306.2 H 2792.16 v -306.2"
         style="fill:#ffffff;fill-opacity:1;fill-rule:evenodd;stroke:none"
         transform="matrix(0.13333333,0,0,-0.13333333,0,594.56)" />
      <path
         id="path85"
         d="m 3809.07,1805.55 h 502.76 v 306.2 h -502.76 v -306.2"
         style="fill:#fef0d3;fill-opacity:1;fill-rule:evenodd;stroke:none"
         transform="matrix(0.13333333,0,0,-0.13333333,0,594.56)" />
      <path
         id="path86"
         d="m 3809.07,2028.33 -905.83,83.42 h 986.38 z"
         style="fill:#fef0d3;fill-opacity:1;fill-rule:evenodd;stroke:none"
         transform="matrix(0.13333333,0,0,-0.13333333,0,594.56)" />
      <path
         id="path87"
         d="M 2987.08,2095.55 H 4003.96 V 2293.3 H 2987.08 v -197.75"
         style="fill:#ffffff;fill-opacity:1;fill-rule:evenodd;stroke:none"
         transform="matrix(0.13333333,0,0,-0.13333333,0,594.56)" />
      <path
         id="path88"
         d="m 4003.96,2095.55 h 502.79 v 197.75 h -502.79 v -197.75"
         style="fill:#fef0d3;fill-opacity:1;fill-rule:evenodd;stroke:none"
         transform="matrix(0.13333333,0,0,-0.13333333,0,594.56)" />
      <path
         id="path89"
         d="m 4003.96,2239.42 -905.82,53.88 h 986.39 z"
         style="fill:#fef0d3;fill-opacity:1;fill-rule:evenodd;stroke:none"
         transform="matrix(0.13333333,0,0,-0.13333333,0,594.56)" />
      <path
         id="path90"
         d="m 2927.18,2293.3 h 971.47 v 306.19 H 2927.18 V 2293.3"
         style="fill:#6c3ba0;fill-opacity:1;fill-rule:evenodd;stroke:none"
         transform="matrix(0.13333333,0,0,-0.13333333,0,594.56)" />
      <path
         id="path91"
         d="m 3425.18,2335.5 h 361.12 v 221.8 h -361.12 v -221.8"
         style="fill:#ffffff;fill-opacity:1;fill-rule:evenodd;stroke:none"
         transform="matrix(0.13333333,0,0,-0.13333333,0,594.56)" />
      <path
         id="path92"
         d="m 3898.65,2293.3 h 526.08 v 306.19 H 3898.65 V 2293.3"
         style="fill:#5d3097;fill-opacity:1;fill-rule:evenodd;stroke:none"
         transform="matrix(0.13333333,0,0,-0.13333333,0,594.56)" />
      <path
         id="path93"
         d="m 3922.16,2335.49 h 502.57 v 221.81 h -502.57 v -221.81"
         style="fill:#fef0d3;fill-opacity:1;fill-rule:evenodd;stroke:none"
         transform="matrix(0.13333333,0,0,-0.13333333,0,594.56)" />
      <path
         id="path94"
         d="m 2973.2,2599.49 h 1016.89 v 197.76 H 2973.2 v -197.76"
         style="fill:#ffffff;fill-opacity:1;fill-rule:evenodd;stroke:none"
         transform="matrix(0.13333333,0,0,-0.13333333,0,594.56)" />
      <path
         id="path95"
         d="m 3990.09,2599.49 h 502.78 v 197.76 h -502.78 v -197.76"
         style="fill:#fef0d3;fill-opacity:1;fill-rule:evenodd;stroke:none"
         transform="matrix(0.13333333,0,0,-0.13333333,0,594.56)" />
      <path
         id="path96"
         d="m 3990.09,2743.39 -905.81,53.86 h 986.37 z"
         style="fill:#fef0d3;fill-opacity:1;fill-rule:evenodd;stroke:none"
         transform="matrix(0.13333333,0,0,-0.13333333,0,594.56)" />
    </g>
  </g>
</svg>
