<?xml version="1.0" encoding="UTF-8" standalone="no"?>
<!-- Created with Inkscape (http://www.inkscape.org/) -->

<svg
   version="1.1"
   id="svg1"
   width="765"
   height="800.45331"
   viewBox="0 0 765 800.45331"
   sodipodi:docname="programmer-at-laptop.svg"
   inkscape:version="1.4 (e7c3feb100, 2024-10-09)"
   xmlns:inkscape="http://www.inkscape.org/namespaces/inkscape"
   xmlns:sodipodi="http://sodipodi.sourceforge.net/DTD/sodipodi-0.dtd"
   xmlns="http://www.w3.org/2000/svg"
   xmlns:svg="http://www.w3.org/2000/svg">
  <defs
     id="defs1" />
  <sodipodi:namedview
     id="namedview1"
     pagecolor="#505050"
     bordercolor="#ffffff"
     borderopacity="1"
     inkscape:showpageshadow="0"
     inkscape:pageopacity="0"
     inkscape:pagecheckerboard="1"
     inkscape:deskcolor="#d1d1d1"
     inkscape:zoom="1.0181731"
     inkscape:cx="382.05685"
     inkscape:cy="400.22665"
     inkscape:window-width="1920"
     inkscape:window-height="1002"
     inkscape:window-x="0"
     inkscape:window-y="0"
     inkscape:window-maximized="1"
     inkscape:current-layer="g1">
    <inkscape:page
       x="0"
       y="0"
       inkscape:label="1"
       id="page1"
       width="765"
       height="800.45331"
       margin="0"
       bleed="0" />
  </sodipodi:namedview>
  <g
     id="g1"
     inkscape:groupmode="layer"
     inkscape:label="1">
    <g
       id="group-R5">
      <path
         id="path2"
         d="m 1644.62,100.27 c 0,7.519 -1.07,14 -3.3,19.3 -2.16,5.379 -5.2,9.532 -9.1,12.461 -3.89,2.848 -8.18,4.309 -12.92,4.309 -7.49,0 -13.83,-3.16 -18.99,-9.301 -5.15,-6.199 -7.73,-15.25 -7.73,-27.2499 0,-11.3203 2.58,-20.1094 7.65,-26.3086 5.16,-6.3086 11.52,-9.4688 19.07,-9.4688 4.51,0 8.73,1.3594 12.59,4.1485 3.8,2.7304 6.9,6.8281 9.24,12.2617 2.35,5.5273 3.49,12.0976 3.49,19.8481 z m -53.31,41.371 v -3.422 c 5.11,6.551 10.4,11.453 15.91,14.492 5.53,3.098 11.81,4.668 18.8,4.668 8.35,0 16.06,-2.27 23.1,-6.777 7.03,-4.512 12.58,-11.071 16.7,-19.77 4.08,-8.684 6.08,-18.91 6.08,-30.781 0,-8.7112 -1.13,-16.8401 -3.5,-24.0393 -2.35,-7.332 -5.6,-13.5117 -9.7,-18.4531 -4.12,-4.9492 -9.03,-8.7891 -14.6,-11.4297 -5.64,-2.707 -11.69,-4.0195 -18.08,-4.0195 -7.82,0 -14.35,1.6211 -19.62,4.8789 -5.33,3.2617 -10.33,8.0117 -15.09,14.332 V 18.7188 C 1591.31,6.21875 1586.95,0 1578.25,0 c -5.11,0 -8.52,1.58984 -10.13,4.80078 -1.68,3.23828 -2.5,7.94922 -2.5,14.09762 V 141.461 c 0,5.398 1.08,9.449 3.37,12.109 2.29,2.641 5.37,4.012 9.26,4.012 3.86,0 7,-1.371 9.42,-4.141 2.41,-2.75 3.64,-6.703 3.64,-11.8"
         style="fill:#100f0d;fill-opacity:1;fill-rule:nonzero;stroke:none"
         transform="matrix(0.13333333,0,0,-0.13333333,0,800.45333)" />
      <path
         id="path3"
         d="M 1764.45,58.1719 V 61.75 c -3.27,-4.2891 -6.69,-7.8711 -10.28,-10.7695 -3.59,-2.961 -7.51,-5.1094 -11.74,-6.5117 -4.3,-1.4102 -9.13,-2.129 -14.58,-2.129 -6.54,0 -12.44,1.4297 -17.67,4.2383 -5.22,2.8438 -9.27,6.7735 -12.08,11.7539 -3.45,6.0391 -5.1,14.7071 -5.1,25.9688 V 140.57 c 0,5.641 1.23,9.918 3.69,12.711 2.47,2.809 5.7,4.219 9.74,4.219 4.14,0 7.44,-1.41 9.98,-4.289 2.53,-2.852 3.77,-7.082 3.77,-12.641 V 95.0898 c 0,-6.5312 0.52,-12.0781 1.56,-16.5078 1.11,-4.5039 3.02,-7.9922 5.8,-10.5625 2.7,-2.4882 6.45,-3.7578 11.17,-3.7578 4.63,0 8.93,1.4375 12.96,4.2696 4.08,2.8085 7.05,6.5078 8.89,11.0898 1.52,4.0195 2.28,12.8203 2.28,26.4099 v 34.539 c 0,5.559 1.26,9.789 3.81,12.641 2.5,2.879 5.75,4.289 9.83,4.289 4.06,0 7.3,-1.41 9.77,-4.219 2.42,-2.793 3.63,-7.07 3.63,-12.711 V 58.332 c 0,-5.4023 -1.13,-9.4726 -3.49,-12.1523 -2.33,-2.7305 -5.37,-4.0508 -9.1,-4.0508 -3.71,0 -6.77,1.4414 -9.21,4.1719 -2.42,2.8476 -3.63,6.7383 -3.63,11.8711"
         style="fill:#100f0d;fill-opacity:1;fill-rule:nonzero;stroke:none"
         transform="matrix(0.13333333,0,0,-0.13333333,0,800.45333)" />
      <path
         id="path4"
         d="m 1843.35,99.1406 c 0,-11.289 2.46,-19.9297 7.38,-26.0195 4.97,-6.0391 11.47,-9.1094 19.52,-9.1094 6.85,0 12.71,3.1172 17.69,9.3086 4.98,6.2188 7.46,15.0586 7.46,26.6485 0,7.5702 -1.04,13.9802 -3.11,19.3712 -2.08,5.441 -5.02,9.621 -8.76,12.539 -3.85,2.941 -8.21,4.461 -13.28,4.461 -5.23,0 -9.77,-1.52 -13.85,-4.461 -4.08,-2.918 -7.24,-7.207 -9.58,-12.809 -2.33,-5.531 -3.47,-12.148 -3.47,-19.9294 z m -1.29,84.3904 v -43.39 c 5.05,5.589 10.3,9.789 15.6,12.808 5.32,2.93 11.92,4.43 19.74,4.43 9.05,0 16.96,-2.27 23.77,-6.688 6.79,-4.562 12.11,-10.992 15.84,-19.492 3.79,-8.469 5.64,-18.551 5.64,-30.187 0,-8.6214 -1.03,-16.4925 -3.1,-23.7112 -2.11,-7.1406 -5.12,-13.332 -9.12,-18.6719 -4.02,-5.2305 -8.86,-9.2578 -14.51,-12.2383 -5.71,-2.8203 -11.97,-4.2812 -18.81,-4.2812 -4.14,0 -8.12,0.5312 -11.82,1.539 -3.68,1.0625 -6.85,2.4219 -9.37,4.1602 -2.63,1.6133 -4.84,3.4219 -6.68,5.1797 -1.81,1.8437 -4.2,4.5117 -7.18,8.1211 V 58.332 c 0,-5.3632 -1.26,-9.3906 -3.72,-12.1523 -2.43,-2.7305 -5.6,-4.0703 -9.35,-4.0703 -3.87,0 -6.92,1.3398 -9.25,4.0703 -2.26,2.8203 -3.41,6.8086 -3.41,12.1523 v 123.969 c 0,5.711 1.11,10.07 3.36,13 2.21,2.961 5.29,4.429 9.3,4.429 4.17,0 7.4,-1.398 9.63,-4.23 2.29,-2.781 3.44,-6.762 3.44,-11.969"
         style="fill:#100f0d;fill-opacity:1;fill-rule:nonzero;stroke:none"
         transform="matrix(0.13333333,0,0,-0.13333333,0,800.45333)" />
      <path
         id="path5"
         d="M 1941.85,59.3906 V 182.469 c 0,5.722 1.21,9.98 3.6,12.91 2.47,2.883 5.72,4.351 9.84,4.351 4.12,0 7.42,-1.421 9.96,-4.308 2.49,-2.863 3.8,-7.211 3.8,-12.953 V 59.3906 c 0,-5.7617 -1.31,-10.1015 -3.86,-13 -2.54,-2.8203 -5.85,-4.2812 -9.9,-4.2812 -3.99,0 -7.18,1.5 -9.69,4.4687 -2.5,2.9922 -3.75,7.2422 -3.75,12.8125"
         style="fill:#100f0d;fill-opacity:1;fill-rule:nonzero;stroke:none"
         transform="matrix(0.13333333,0,0,-0.13333333,0,800.45333)" />
      <path
         id="path6"
         d="M 2024.32,141.379 V 59.3906 c 0,-5.7304 -1.33,-10.0195 -3.85,-12.9297 -2.62,-2.8515 -5.92,-4.3515 -9.87,-4.3515 -4,0 -7.25,1.5 -9.73,4.4414 -2.46,3.0195 -3.75,7.2695 -3.75,12.8398 V 140.57 c 0,5.559 1.29,9.789 3.75,12.641 2.48,2.879 5.73,4.289 9.73,4.289 3.95,0 7.25,-1.41 9.87,-4.289 2.52,-2.852 3.85,-6.77 3.85,-11.832 z m -13.45,29.34 c -3.79,0 -7,1.222 -9.75,3.711 -2.62,2.41 -4,5.859 -4,10.32 0,3.988 1.38,7.27 4.15,9.922 2.75,2.609 5.95,3.828 9.6,3.828 3.51,0 6.65,-1.141 9.37,-3.488 2.71,-2.352 4.08,-5.821 4.08,-10.262 0,-4.422 -1.34,-7.82 -4,-10.25 -2.66,-2.461 -5.77,-3.781 -9.45,-3.781"
         style="fill:#100f0d;fill-opacity:1;fill-rule:nonzero;stroke:none"
         transform="matrix(0.13333333,0,0,-0.13333333,0,800.45333)" />
      <path
         id="path7"
         d="m 2149.84,77.2617 c 0,-3.5234 -0.99,-7.3203 -3.01,-11.3398 -2.05,-4.0117 -5.14,-7.8203 -9.3,-11.4727 -4.13,-3.6289 -9.36,-6.5586 -15.67,-8.75 -6.31,-2.2773 -13.43,-3.3594 -21.31,-3.3594 -16.82,0 -29.93,5.1211 -39.37,15.3321 -9.41,10.2187 -14.14,23.8867 -14.14,41.0976 0,11.6405 2.15,21.9605 6.45,30.8785 4.31,8.891 10.61,15.864 18.74,20.711 8.15,4.93 17.95,7.371 29.27,7.371 7.06,0 13.53,-1.109 19.42,-3.23 5.87,-2.16 10.85,-4.949 14.93,-8.309 4.08,-3.402 7.2,-7.043 9.37,-10.863 2.18,-3.828 3.23,-7.437 3.23,-10.769 0,-3.348 -1.24,-6.227 -3.63,-8.598 -2.45,-2.379 -5.35,-3.551 -8.81,-3.551 -2.28,0 -4.13,0.66 -5.66,1.871 -1.45,1.168 -3.15,3.078 -5.03,5.84 -3.3,5.238 -6.79,9.231 -10.4,11.91 -3.63,2.61 -8.23,3.961 -13.76,3.961 -8.09,0 -14.56,-3.332 -19.47,-9.871 -4.92,-6.59 -7.35,-15.539 -7.35,-26.9101 0,-5.3007 0.63,-10.2695 1.91,-14.7109 1.25,-4.4883 3.07,-8.2891 5.44,-11.4609 2.41,-3.1602 5.27,-5.5274 8.67,-7.1602 3.39,-1.6601 7.12,-2.4492 11.14,-2.4492 5.48,0 10.13,1.2891 14.02,3.9297 3.89,2.6601 7.33,6.6797 10.31,12.0312 1.67,3.2696 3.45,5.7383 5.39,7.5703 1.94,1.8008 4.31,2.6602 7.09,2.6602 3.31,0 6.07,-1.2813 8.28,-3.9102 2.15,-2.6992 3.25,-5.4687 3.25,-8.4492"
         style="fill:#100f0d;fill-opacity:1;fill-rule:nonzero;stroke:none"
         transform="matrix(0.13333333,0,0,-0.13333333,0,800.45333)" />
      <path
         id="path8"
         d="m 2194.65,99.9688 c 0,-7.6875 1.14,-14.1993 3.42,-19.6407 2.31,-5.4179 5.4,-9.4375 9.39,-12.1679 4.01,-2.7891 8.37,-4.1485 13.04,-4.1485 4.79,0 9.15,1.3164 13.1,3.8789 3.97,2.6211 7.09,6.6289 9.48,11.9883 2.36,5.3633 3.53,12.082 3.53,20.0899 0,7.6132 -1.17,14.0702 -3.53,19.5312 -2.39,5.449 -5.56,9.602 -9.56,12.531 -4.03,2.848 -8.41,4.309 -13.19,4.309 -4.96,0 -9.41,-1.52 -13.34,-4.461 -3.89,-2.918 -6.97,-7.199 -9.12,-12.707 -2.14,-5.531 -3.22,-11.863 -3.22,-19.2032 z m 53.46,-41.6368 v 2.7774 c -3.66,-4.3711 -7.26,-7.9102 -10.86,-10.6094 -3.49,-2.7695 -7.37,-4.8398 -11.52,-6.2695 -4.13,-1.3907 -8.67,-2.1211 -13.57,-2.1211 -6.5,0 -12.57,1.4609 -18.09,4.2812 -5.53,2.9805 -10.32,7.0313 -14.38,12.3594 -4.04,5.3398 -7.12,11.6094 -9.23,18.8516 -2.12,7.1797 -3.14,14.9804 -3.14,23.4104 0,17.687 4.16,31.59 12.47,41.5 8.32,9.91 19.22,14.867 32.75,14.867 7.84,0 14.46,-1.43 19.83,-4.289 5.36,-2.77 10.63,-7.078 15.74,-12.949 v 41.91 c 0,5.84 1.09,10.238 3.34,13.211 2.21,2.988 5.35,4.468 9.49,4.468 4.11,0 7.28,-1.378 9.53,-4.078 2.21,-2.73 3.36,-6.781 3.36,-12.121 V 58.332 c 0,-5.4023 -1.21,-9.4726 -3.62,-12.1523 -2.4,-2.7305 -5.45,-4.0703 -9.27,-4.0703 -3.68,0 -6.79,1.4023 -9.23,4.1914 -2.4,2.8008 -3.6,6.7812 -3.6,12.0312"
         style="fill:#100f0d;fill-opacity:1;fill-rule:nonzero;stroke:none"
         transform="matrix(0.13333333,0,0,-0.13333333,0,800.45333)" />
      <path
         id="path9"
         d="m 2375.63,99.75 c 0,11.531 -2.48,20.57 -7.33,27.02 -4.89,6.41 -11.46,9.66 -19.68,9.66 -5.35,0 -10,-1.45 -14.06,-4.321 -4.04,-2.918 -7.16,-7.16 -9.35,-12.769 -2.18,-5.559 -3.3,-12.07 -3.3,-19.59 0,-7.4297 1.12,-13.8906 3.24,-19.4219 2.14,-5.539 5.25,-9.789 9.29,-12.7383 4,-2.9414 8.77,-4.3789 14.18,-4.3789 8.22,0 14.79,3.211 19.68,9.6797 4.85,6.461 7.33,15.4492 7.33,26.8594 z m 27.29,0 c 0,-8.4102 -1.28,-16.2109 -3.79,-23.3984 -2.52,-7.0821 -6.17,-13.2305 -10.93,-18.3828 -4.82,-5.1407 -10.52,-8.9688 -17.16,-11.7891 -6.63,-2.7305 -14.16,-4.0703 -22.42,-4.0703 -8.22,0 -15.64,1.3398 -22.19,4.1523 -6.59,2.7696 -12.31,6.7266 -17.13,11.9102 -4.79,5.1679 -8.43,11.2304 -10.95,18.2578 -2.49,7.082 -3.72,14.8086 -3.72,23.3711 0,8.5902 1.27,16.4492 3.77,23.5582 2.52,7.18 6.12,13.231 10.85,18.332 4.72,5.047 10.42,8.95 17.18,11.68 6.72,2.75 14.08,4.129 22.19,4.129 8.25,0 15.72,-1.379 22.42,-4.168 6.69,-2.762 12.44,-6.762 17.21,-11.871 4.82,-5.121 8.44,-11.262 10.88,-18.332 2.55,-7.047 3.79,-14.859 3.79,-23.379"
         style="fill:#100f0d;fill-opacity:1;fill-rule:nonzero;stroke:none"
         transform="matrix(0.13333333,0,0,-0.13333333,0,800.45333)" />
      <path
         id="path10"
         d="m 2517.77,123.199 c -2.04,-4.801 -3,-13.269 -3,-25.4568 V 60.0195 c 0,-5.9414 -1.27,-10.4492 -3.9,-13.4414 -2.57,-2.9687 -6.04,-4.4687 -10.28,-4.4687 -4.08,0 -7.41,1.5 -9.95,4.4687 -2.56,2.9922 -3.81,7.5 -3.81,13.4414 v 45.2695 c 0,7.121 -0.27,12.652 -0.74,16.66 -0.47,3.903 -1.72,7.16 -3.79,9.699 -2.01,2.551 -5.29,3.813 -9.72,3.813 -8.89,0 -14.74,-3.191 -17.59,-9.609 -2.85,-6.352 -4.19,-15.512 -4.19,-27.4536 V 60.0195 c 0,-5.9297 -1.31,-10.3906 -3.84,-13.3398 -2.58,-3.0703 -5.95,-4.5703 -10.08,-4.5703 -4.16,0 -7.56,1.5 -10.17,4.5703 -2.64,2.9492 -3.89,7.4101 -3.89,13.332 v 81.2073 c 0,5.351 1.13,9.422 3.46,12.179 2.39,2.75 5.49,4.184 9.37,4.184 3.72,0 6.83,-1.293 9.3,-3.902 2.48,-2.578 3.73,-6.16 3.73,-10.75 v -2.688 c 4.7,5.887 9.76,10.238 15.12,12.969 5.37,2.781 11.41,4.168 17.94,4.168 6.82,0 12.67,-1.43 17.59,-4.289 4.94,-2.809 8.97,-7.121 12.13,-12.848 4.6,5.77 9.51,10.117 14.78,12.93 5.25,2.82 11.05,4.207 17.4,4.207 7.49,0 13.88,-1.5 19.22,-4.59 5.4,-3.047 9.41,-7.41 12.08,-13.09 2.34,-5.14 3.47,-13.199 3.47,-24.25 V 60.0195 c 0,-5.9414 -1.29,-10.4492 -3.83,-13.4414 -2.65,-2.9687 -6.04,-4.4687 -10.29,-4.4687 -4.13,0 -7.49,1.5 -10.1,4.5703 -2.66,2.9492 -3.97,7.4101 -3.97,13.3398 v 47.7695 c 0,6.102 -0.24,10.973 -0.73,14.652 -0.51,3.707 -1.85,6.75 -4.07,9.258 -2.17,2.5 -5.51,3.762 -9.92,3.762 -3.59,0 -7.01,-1.121 -10.18,-3.289 -3.27,-2.25 -5.72,-5.223 -7.55,-8.973 v 0"
         style="fill:#100f0d;fill-opacity:1;fill-rule:nonzero;stroke:none"
         transform="matrix(0.13333333,0,0,-0.13333333,0,800.45333)" />
      <path
         id="path11"
         d="m 2671.79,99.2109 c -4.01,-1.5625 -9.8,-3.1211 -17.41,-4.8515 -7.61,-1.6992 -12.87,-2.9375 -15.8,-3.75 -2.93,-0.8203 -5.72,-2.3711 -8.34,-4.6602 -2.68,-2.3906 -4.02,-5.6211 -4.02,-9.7773 0,-4.3321 1.58,-7.961 4.67,-10.9805 3.14,-3.0625 7.24,-4.5312 12.28,-4.5312 5.37,0 10.37,1.25 14.9,3.7109 4.55,2.4375 7.92,5.6484 10,9.5 2.47,4.3203 3.72,11.3711 3.72,21.3008 z m 1.77,-41.1093 c -6.59,-5.3516 -12.94,-9.3321 -19.08,-11.9727 -6.13,-2.707 -13.05,-4.0195 -20.65,-4.0195 -7.02,0 -13.09,1.4609 -18.41,4.2812 -5.32,2.8985 -9.35,6.8086 -12.22,11.7813 -2.82,4.9101 -4.28,10.1875 -4.28,15.9765 0,7.7735 2.41,14.3633 7.12,19.8516 4.67,5.4492 11.14,9.129 19.37,11.012 1.73,0.418 6.04,1.32 12.84,2.777 6.91,1.492 12.71,2.793 17.67,4 4.83,1.191 10.16,2.672 15.87,4.391 -0.35,7.519 -1.79,13.011 -4.32,16.59 -2.6,3.46 -7.93,5.171 -15.92,5.171 -6.94,0 -12.11,-0.98 -15.64,-2.992 -3.46,-1.98 -6.48,-5.027 -8.93,-9.097 -2.52,-3.993 -4.24,-6.661 -5.28,-7.922 -1.06,-1.321 -3.27,-1.891 -6.6,-1.891 -3.1,0 -5.72,1 -7.92,3.02 -2.26,2.07 -3.36,4.64 -3.36,7.89 0,4.973 1.69,9.86 5.06,14.512 3.4,4.73 8.69,8.598 15.85,11.711 7.16,3.039 16.12,4.558 26.82,4.558 11.93,0 21.34,-1.519 28.23,-4.449 6.82,-2.922 11.6,-7.551 14.45,-13.972 2.84,-6.34 4.24,-14.84 4.24,-25.36 0,-6.64 0,-12.34 -0.04,-16.949 -0.06,-4.6797 -0.09,-9.8281 -0.15,-15.5078 0,-5.3203 0.84,-10.9024 2.55,-16.6602 1.66,-5.7929 2.5,-9.5429 2.5,-11.1718 0,-2.9219 -1.33,-5.5782 -3.94,-7.961 -2.56,-2.3906 -5.57,-3.5898 -8.87,-3.5898 -2.83,0 -5.53,1.3398 -8.3,4.0703 -2.71,2.7617 -5.6,6.75 -8.66,11.9219"
         style="fill:#100f0d;fill-opacity:1;fill-rule:nonzero;stroke:none"
         transform="matrix(0.13333333,0,0,-0.13333333,0,800.45333)" />
      <path
         id="path12"
         d="M 2753.29,141.379 V 59.3906 c 0,-5.7304 -1.3,-10.0195 -3.85,-12.9297 -2.59,-2.8515 -5.86,-4.3515 -9.86,-4.3515 -3.97,0 -7.25,1.5 -9.71,4.4414 -2.52,3.0195 -3.77,7.2695 -3.77,12.8398 V 140.57 c 0,5.559 1.25,9.789 3.77,12.641 2.46,2.879 5.74,4.289 9.71,4.289 4,0 7.27,-1.41 9.86,-4.289 2.55,-2.852 3.85,-6.77 3.85,-11.832 z m -13.44,29.34 c -3.75,0 -6.97,1.222 -9.66,3.711 -2.69,2.41 -4.09,5.859 -4.09,10.32 0,3.988 1.41,7.27 4.17,9.922 2.73,2.609 5.97,3.828 9.58,3.828 3.53,0 6.69,-1.141 9.42,-3.488 2.68,-2.352 4.02,-5.821 4.02,-10.262 0,-4.422 -1.3,-7.82 -3.97,-10.25 -2.66,-2.461 -5.81,-3.781 -9.47,-3.781"
         style="fill:#100f0d;fill-opacity:1;fill-rule:nonzero;stroke:none"
         transform="matrix(0.13333333,0,0,-0.13333333,0,800.45333)" />
      <path
         id="path13"
         d="m 2806.14,141.789 v -3.391 c 4.76,6.563 9.98,11.403 15.62,14.473 5.69,3.078 12.22,4.629 19.63,4.629 7.13,0 13.57,-1.621 19.25,-4.91 5.59,-3.238 9.84,-7.82 12.59,-13.758 1.82,-3.504 2.94,-7.281 3.52,-11.281 0.49,-3.969 0.8,-9.11 0.8,-15.371 V 59.3906 c 0,-5.7304 -1.29,-10.0195 -3.76,-12.9297 -2.5,-2.8515 -5.74,-4.3515 -9.71,-4.3515 -4.04,0 -7.35,1.5 -9.77,4.4687 -2.56,2.9922 -3.86,7.2422 -3.86,12.8125 v 47.2574 c 0,9.411 -1.21,16.551 -3.69,21.493 -2.54,4.949 -7.52,7.468 -14.96,7.468 -4.84,0 -9.25,-1.539 -13.22,-4.558 -3.98,-2.981 -6.91,-7.141 -8.76,-12.422 -1.33,-4.227 -2.03,-12.09 -2.03,-23.7501 V 59.3906 c 0,-5.7617 -1.25,-10.1015 -3.82,-13 -2.57,-2.8203 -5.87,-4.2812 -9.9,-4.2812 -3.89,0 -7.14,1.5 -9.65,4.4414 -2.57,3.0195 -3.8,7.2695 -3.8,12.8398 v 81.9884 c 0,5.43 1.11,9.422 3.4,12.101 2.21,2.668 5.37,4.02 9.27,4.02 2.35,0 4.54,-0.629 6.43,-1.77 1.99,-1.16 3.48,-2.98 4.65,-5.25 1.12,-2.41 1.77,-5.289 1.77,-8.691"
         style="fill:#100f0d;fill-opacity:1;fill-rule:nonzero;stroke:none"
         transform="matrix(0.13333333,0,0,-0.13333333,0,800.45333)" />
      <path
         id="path14"
         d="m 2921.19,139.84 21.96,-64.4494 23.73,67.2574 c 1.88,5.422 3.7,9.204 5.51,11.461 1.83,2.25 4.5,3.391 8.14,3.391 3.45,0 6.38,-1.211 8.86,-3.68 2.38,-2.398 3.6,-5.172 3.6,-8.441 0,-1.219 -0.24,-2.649 -0.67,-4.27 -0.39,-1.699 -0.88,-3.269 -1.48,-4.757 -0.57,-1.403 -1.15,-3.09 -1.94,-4.942 l -26.09,-67.5702 c -0.73,-1.9296 -1.7,-4.4179 -2.83,-7.4101 -1.18,-2.9688 -2.5,-5.4609 -3.89,-7.6602 -1.46,-2.0898 -3.2,-3.6875 -5.27,-4.8789 -2.13,-1.1797 -4.68,-1.7812 -7.67,-1.7812 -3.84,0 -6.9,0.9101 -9.22,2.7226 -2.29,1.8477 -3.99,3.8282 -5.07,6.0664 -1.08,2.1407 -2.96,6.4805 -5.52,12.9414 l -25.93,66.8402 c -0.59,1.629 -1.24,3.312 -1.88,4.98 -0.6,1.66 -1.09,3.32 -1.56,5.078 -0.42,1.774 -0.66,3.262 -0.66,4.453 0,1.981 0.57,3.887 1.72,5.801 1.13,1.918 2.69,3.488 4.68,4.68 2.02,1.199 4.13,1.828 6.5,1.828 4.47,0 7.59,-1.352 9.3,-4.102 1.7,-2.679 3.6,-7.207 5.68,-13.558"
         style="fill:#100f0d;fill-opacity:1;fill-rule:nonzero;stroke:none"
         transform="matrix(0.13333333,0,0,-0.13333333,0,800.45333)" />
      <path
         id="path15"
         d="m 3032.42,109.02 h 49.29 c -0.63,9.66 -3.12,16.921 -7.5,21.71 -4.37,4.801 -10.1,7.211 -17.22,7.211 -6.73,0 -12.31,-2.441 -16.64,-7.3 -4.34,-4.871 -6.95,-12.09 -7.93,-21.621 z m 53.21,-16.1606 h -53.21 c 0.01,-6.461 1.31,-12.1406 3.69,-17.0977 2.46,-4.8711 5.67,-8.5898 9.7,-11.1133 4,-2.5195 8.46,-3.7187 13.31,-3.7187 3.24,0 6.25,0.3906 8.9,1.1601 2.67,0.8399 5.31,2.0821 7.86,3.75 2.48,1.711 4.78,3.4805 6.93,5.5 2.1,1.9297 4.93,4.5196 8.27,7.8711 1.41,1.3086 3.42,1.8985 5.97,1.8985 2.84,0 5.07,-0.7813 6.81,-2.418 1.73,-1.5898 2.54,-3.8125 2.54,-6.7305 0,-2.5586 -0.94,-5.5625 -2.88,-9.0312 -1.91,-3.3789 -4.76,-6.6992 -8.72,-9.8906 -3.89,-3.1289 -8.76,-5.6875 -14.64,-7.8282 -5.85,-2.0703 -12.58,-3.1015 -20.29,-3.1015 -17.43,0 -31.03,5.2422 -40.69,15.582 -9.69,10.4492 -14.51,24.5078 -14.51,42.2774 0,8.5002 1.23,16.2112 3.56,23.3712 2.4,7.199 5.86,13.332 10.46,18.449 4.59,5.16 10.2,9.121 16.93,11.82 6.73,2.75 14.14,4.121 22.34,4.121 10.55,0 19.7,-2.339 27.29,-7.039 7.63,-4.679 13.31,-10.691 17.09,-18.089 3.79,-7.461 5.69,-14.981 5.69,-22.731 0,-7.082 -1.91,-11.7108 -5.86,-13.8124 -3.96,-2.1484 -9.44,-3.1992 -16.54,-3.1992"
         style="fill:#100f0d;fill-opacity:1;fill-rule:nonzero;stroke:none"
         transform="matrix(0.13333333,0,0,-0.13333333,0,800.45333)" />
      <path
         id="path16"
         d="m 3228.51,77.2617 c 0,-3.5234 -1.01,-7.3203 -3.08,-11.3398 -2.03,-4.0117 -5.06,-7.8203 -9.25,-11.4727 -4.13,-3.6289 -9.4,-6.5586 -15.73,-8.75 -6.27,-2.2773 -13.42,-3.3594 -21.25,-3.3594 -16.87,0 -29.97,5.1211 -39.39,15.3321 -9.4,10.2187 -14.15,23.8867 -14.15,41.0976 0,11.6405 2.14,21.9605 6.5,30.8785 4.32,8.891 10.51,15.864 18.71,20.711 8.13,4.93 17.93,7.371 29.31,7.371 7.03,0 13.46,-1.109 19.39,-3.23 5.86,-2.16 10.8,-4.949 14.94,-8.309 4.08,-3.402 7.17,-7.043 9.36,-10.863 2.14,-3.828 3.21,-7.437 3.21,-10.769 0,-3.348 -1.18,-6.227 -3.68,-8.598 -2.39,-2.379 -5.32,-3.551 -8.78,-3.551 -2.26,0 -4.13,0.66 -5.6,1.871 -1.52,1.168 -3.18,3.078 -5.06,5.84 -3.33,5.238 -6.77,9.231 -10.4,11.91 -3.62,2.61 -8.22,3.961 -13.81,3.961 -7.99,0 -14.49,-3.332 -19.4,-9.871 -4.96,-6.59 -7.4,-15.539 -7.4,-26.9101 0,-5.3007 0.67,-10.2695 1.88,-14.7109 1.27,-4.4883 3.12,-8.2891 5.52,-11.4609 2.38,-3.1602 5.29,-5.5274 8.67,-7.1602 3.33,-1.6601 7.07,-2.4492 11.16,-2.4492 5.43,0 10.11,1.2891 14,3.9297 3.87,2.6601 7.33,6.6797 10.32,12.0312 1.67,3.2696 3.43,5.7383 5.38,7.5703 1.91,1.8008 4.23,2.6602 7.07,2.6602 3.27,0 6.08,-1.2813 8.19,-3.9102 2.24,-2.6992 3.37,-5.4687 3.37,-8.4492"
         style="fill:#100f0d;fill-opacity:1;fill-rule:nonzero;stroke:none"
         transform="matrix(0.13333333,0,0,-0.13333333,0,800.45333)" />
      <path
         id="path17"
         d="m 3253.76,155.109 h 2.99 v 17.063 c 0,4.539 0.13,8.156 0.37,10.75 0.22,2.609 0.82,4.789 1.94,6.699 1.03,1.91 2.56,3.5 4.59,4.738 1.98,1.18 4.19,1.762 6.65,1.762 3.44,0 6.58,-1.332 9.35,-4.019 1.81,-1.821 3.03,-3.993 3.52,-6.571 0.51,-2.609 0.74,-6.351 0.74,-11.101 v -19.321 h 10 c 3.84,0 6.79,-0.968 8.81,-2.867 2.07,-1.922 3.05,-4.332 3.05,-7.32 0,-3.813 -1.43,-6.524 -4.36,-8.012 -2.87,-1.5 -7.02,-2.269 -12.39,-2.269 h -5.11 V 82.3711 c 0,-4.4609 0.16,-7.8828 0.45,-10.3008 0.35,-2.3984 1.19,-4.3398 2.45,-5.789 1.26,-1.5 3.37,-2.2696 6.32,-2.2696 1.58,0 3.73,0.2696 6.48,0.8867 2.66,0.5821 4.79,0.8829 6.35,0.8829 2.17,0 4.22,-0.9493 5.94,-2.6993 1.72,-1.9023 2.63,-4.1211 2.63,-6.8515 0,-4.5508 -2.34,-8.0508 -7.16,-10.4922 -4.83,-2.4297 -11.69,-3.6289 -20.61,-3.6289 -8.51,0 -14.97,1.5 -19.36,4.4687 -4.35,2.9922 -7.27,7.0821 -8.58,12.4219 -1.4,5.2617 -2.07,12.2891 -2.07,21.0898 v 54.5512 h -3.62 c -3.84,0 -6.84,0.968 -8.92,2.918 -2.07,1.929 -3.08,4.371 -3.08,7.363 0,2.988 1.06,5.398 3.2,7.32 2.18,1.899 5.3,2.867 9.43,2.867"
         style="fill:#100f0d;fill-opacity:1;fill-rule:nonzero;stroke:none"
         transform="matrix(0.13333333,0,0,-0.13333333,0,800.45333)" />
      <path
         id="path18"
         d="m 3398.96,99.75 c 0,11.531 -2.47,20.57 -7.32,27.02 -4.93,6.41 -11.43,9.66 -19.69,9.66 -5.33,0 -10,-1.45 -14.02,-4.321 -4.08,-2.918 -7.2,-7.16 -9.38,-12.769 -2.18,-5.559 -3.31,-12.07 -3.31,-19.59 0,-7.4297 1.13,-13.8906 3.28,-19.4219 2.14,-5.539 5.21,-9.789 9.22,-12.7383 4.01,-2.9414 8.75,-4.3789 14.21,-4.3789 8.26,0 14.76,3.211 19.69,9.6797 4.85,6.461 7.32,15.4492 7.32,26.8594 z m 27.3,0 c 0,-8.4102 -1.25,-16.2109 -3.82,-23.3984 -2.5,-7.0821 -6.17,-13.2305 -10.93,-18.3828 C 3406.72,52.8281 3401,49 3394.38,46.1797 c -6.67,-2.7305 -14.09,-4.0703 -22.43,-4.0703 -8.27,0 -15.68,1.3398 -22.22,4.1523 -6.57,2.7696 -12.29,6.7266 -17.09,11.9102 -4.8,5.1679 -8.46,11.2304 -10.91,18.2578 -2.48,7.082 -3.7,14.8086 -3.7,23.3711 0,8.5902 1.22,16.4492 3.7,23.5582 2.58,7.18 6.15,13.231 10.86,18.332 4.75,5.047 10.45,8.95 17.14,11.68 6.77,2.75 14.16,4.129 22.22,4.129 8.26,0 15.7,-1.379 22.43,-4.168 6.7,-2.762 12.43,-6.762 17.22,-11.871 4.73,-5.121 8.44,-11.262 10.92,-18.332 2.49,-7.047 3.74,-14.859 3.74,-23.379"
         style="fill:#100f0d;fill-opacity:1;fill-rule:nonzero;stroke:none"
         transform="matrix(0.13333333,0,0,-0.13333333,0,800.45333)" />
      <path
         id="path19"
         d="M 3474.71,83.0117 V 59.3906 c 0,-5.7617 -1.31,-10.1015 -3.91,-13 -2.6,-2.8203 -5.87,-4.2812 -9.89,-4.2812 -3.87,0 -7.12,1.5 -9.63,4.3515 -2.52,2.9102 -3.76,7.1993 -3.76,12.9297 v 78.9884 c 0,12.762 4.39,19.121 13.23,19.121 4.47,0 7.75,-1.508 9.78,-4.461 1.95,-2.98 3.01,-7.387 3.27,-13.199 3.23,5.812 6.61,10.219 10.04,13.199 3.42,2.953 7.96,4.461 13.64,4.461 5.76,0 11.28,-1.508 16.68,-4.461 5.35,-2.98 8.08,-6.949 8.08,-11.859 0,-3.45 -1.19,-6.36 -3.47,-8.578 -2.27,-2.243 -4.75,-3.411 -7.44,-3.411 -0.98,0 -3.4,0.668 -7.21,1.969 -3.85,1.262 -7.22,1.93 -10.16,1.93 -3.93,0 -7.18,-1.059 -9.68,-3.289 -2.54,-2.219 -4.51,-5.41 -5.9,-9.699 -1.4,-4.352 -2.4,-9.43 -2.9,-15.391 -0.51,-5.8907 -0.77,-13.1016 -0.77,-21.6993"
         style="fill:#100f0d;fill-opacity:1;fill-rule:nonzero;stroke:none"
         transform="matrix(0.13333333,0,0,-0.13333333,0,800.45333)" />
      <path
         id="path20"
         d="m 3619.56,79.1914 c 0,-7.8516 -1.83,-14.543 -5.52,-20.1328 -3.67,-5.5977 -9.05,-9.7695 -16.2,-12.6797 -7.17,-2.8086 -15.82,-4.2695 -26.1,-4.2695 -9.68,0 -18.1,1.539 -25.09,4.6992 -6.97,3.1016 -12.13,6.9805 -15.42,11.6523 -3.36,4.6602 -5.07,9.3477 -5.07,14.0508 0,3.1172 1.1,5.7891 3.27,8.0078 2.11,2.2696 4.82,3.3203 8.03,3.3203 2.87,0 5.1,-0.7382 6.61,-2.1484 1.53,-1.543 2.95,-3.5391 4.39,-6.1797 2.78,-5.0703 6.1,-8.8515 10.05,-11.3398 3.81,-2.5313 9.12,-3.7735 15.88,-3.7735 5.42,0 9.9,1.293 13.39,3.8204 3.47,2.5312 5.27,5.4101 5.27,8.6718 0,5.0196 -1.84,8.668 -5.43,10.9414 -3.67,2.3282 -9.6,4.5078 -17.9,6.5664 -9.36,2.4297 -17.01,4.9805 -22.89,7.6329 -5.87,2.6797 -10.63,6.2307 -14.12,10.5977 -3.52,4.293 -5.31,9.703 -5.31,16.082 0,5.719 1.64,11.078 4.9,16.121 3.24,5.066 8.11,9.09 14.43,12.117 6.33,3.043 13.97,4.551 22.99,4.551 7,0 13.33,-0.781 18.97,-2.301 5.6,-1.519 10.34,-3.59 14.03,-6.121 3.75,-2.566 6.65,-5.418 8.59,-8.508 1.99,-3.16 2.96,-6.199 2.96,-9.16 0,-3.269 -1.03,-5.879 -3.17,-8.051 -2.1,-2 -5.09,-3.058 -8.88,-3.058 -2.83,0 -5.19,0.828 -7.19,2.519 -1.91,1.641 -4.19,4.129 -6.7,7.41 -2.06,2.782 -4.46,5.02 -7.29,6.68 -2.79,1.629 -6.57,2.5 -11.32,2.5 -4.93,0 -9.06,-1.09 -12.25,-3.289 -3.28,-2.172 -4.92,-4.922 -4.92,-8.172 0,-3 1.21,-5.429 3.56,-7.328 2.43,-1.922 5.63,-3.492 9.7,-4.75 4.08,-1.25 9.64,-2.801 16.75,-4.59 8.46,-2.14 15.32,-4.679 20.68,-7.679 5.34,-2.95 9.39,-6.4926 12.14,-10.5434 2.8,-4.0898 4.18,-8.707 4.18,-13.8672"
         style="fill:#100f0d;fill-opacity:1;fill-rule:nonzero;stroke:none"
         transform="matrix(0.13333333,0,0,-0.13333333,0,800.45333)" />
      <path
         id="path21"
         d="m 3650.44,42.1094 c -4.12,0 -7.69,1.3398 -10.64,4.1523 -3.03,2.7696 -4.51,6.668 -4.51,11.6094 0,4.2187 1.4,7.8594 4.23,10.9297 2.86,3.039 6.41,4.5195 10.6,4.5195 4.16,0 7.74,-1.4805 10.63,-4.5117 3,-2.9688 4.48,-6.6797 4.48,-10.9375 0,-4.9023 -1.48,-8.7695 -4.48,-11.5703 -2.89,-2.7891 -6.34,-4.1914 -10.31,-4.1914"
         style="fill:#100f0d;fill-opacity:1;fill-rule:nonzero;stroke:none"
         transform="matrix(0.13333333,0,0,-0.13333333,0,800.45333)" />
      <path
         id="path22"
         d="m 3770.69,99.75 c 0,11.531 -2.45,20.57 -7.33,27.02 -4.88,6.41 -11.42,9.66 -19.65,9.66 -5.32,0 -9.95,-1.45 -14.02,-4.321 -4.06,-2.918 -7.18,-7.16 -9.36,-12.769 -2.17,-5.559 -3.28,-12.07 -3.28,-19.59 0,-7.4297 1.05,-13.8906 3.19,-19.4219 2.23,-5.539 5.28,-9.789 9.31,-12.7383 4,-2.9414 8.72,-4.3789 14.16,-4.3789 8.23,0 14.77,3.211 19.65,9.6797 4.88,6.461 7.33,15.4492 7.33,26.8594 z m 27.33,0 c 0,-8.4102 -1.25,-16.2109 -3.81,-23.3984 -2.54,-7.0821 -6.15,-13.2305 -10.95,-18.3828 -4.82,-5.1407 -10.47,-8.9688 -17.13,-11.7891 -6.62,-2.7305 -14.09,-4.0703 -22.42,-4.0703 -8.22,0 -15.62,1.3398 -22.2,4.1523 -6.58,2.7696 -12.24,6.7266 -17.05,11.9102 -4.89,5.1679 -8.51,11.2304 -11.03,18.2578 -2.44,7.082 -3.69,14.8086 -3.69,23.3711 0,8.5902 1.25,16.4492 3.79,23.5582 2.56,7.18 6.13,13.231 10.82,18.332 4.71,5.047 10.44,8.95 17.16,11.68 6.7,2.75 14.06,4.129 22.2,4.129 8.23,0 15.7,-1.379 22.42,-4.168 6.74,-2.762 12.46,-6.762 17.26,-11.871 4.74,-5.121 8.38,-11.262 10.9,-18.332 2.48,-7.047 3.73,-14.859 3.73,-23.379"
         style="fill:#100f0d;fill-opacity:1;fill-rule:nonzero;stroke:none"
         transform="matrix(0.13333333,0,0,-0.13333333,0,800.45333)" />
      <path
         id="path23"
         d="M 3846.46,83.0117 V 59.3906 c 0,-5.7617 -1.3,-10.1015 -3.89,-13 -2.55,-2.8203 -5.88,-4.2812 -9.84,-4.2812 -3.96,0 -7.14,1.5 -9.68,4.3515 -2.56,2.9102 -3.8,7.1993 -3.8,12.9297 v 78.9884 c 0,12.762 4.47,19.121 13.26,19.121 4.52,0 7.75,-1.508 9.74,-4.461 1.96,-2.98 3.12,-7.387 3.36,-13.199 3.19,5.812 6.52,10.219 9.94,13.199 3.43,2.953 8,4.461 13.67,4.461 5.81,0 11.35,-1.508 16.67,-4.461 5.38,-2.98 8.09,-6.949 8.09,-11.859 0,-3.45 -1.15,-6.36 -3.42,-8.578 -2.32,-2.243 -4.75,-3.411 -7.47,-3.411 -0.96,0 -3.35,0.668 -7.17,1.969 -3.84,1.262 -7.21,1.93 -10.16,1.93 -3.95,0 -7.19,-1.059 -9.78,-3.289 -2.48,-2.219 -4.45,-5.41 -5.86,-9.699 -1.36,-4.352 -2.34,-9.43 -2.85,-15.391 -0.53,-5.8907 -0.81,-13.1016 -0.81,-21.6993"
         style="fill:#100f0d;fill-opacity:1;fill-rule:nonzero;stroke:none"
         transform="matrix(0.13333333,0,0,-0.13333333,0,800.45333)" />
      <path
         id="path24"
         d="m 3924.97,100.719 c 0,-11.4807 2.42,-20.1877 7.26,-26.1096 4.77,-5.8477 11.04,-8.8281 18.63,-8.8281 4.49,0 8.82,1.3085 12.81,3.8398 4.03,2.5273 7.3,6.3398 9.83,11.4375 2.55,5.1016 3.78,11.2617 3.78,18.5312 0,11.5702 -2.47,20.5702 -7.34,26.9882 -4.86,6.512 -11.3,9.762 -19.26,9.762 -7.74,0 -13.98,-3.16 -18.65,-9.301 -4.71,-6.187 -7.06,-14.937 -7.06,-26.32 z m 78.84,36 V 54.25 c 0,-9.4609 -1.04,-17.5586 -2.92,-24.3203 -1.93,-6.8203 -5.01,-12.4414 -9.26,-16.8594 -4.25,-4.42967 -9.84,-7.71874 -16.67,-9.85936 C 3968.08,1.10156 3959.51,0 3949.3,0 c -9.39,0 -17.78,1.33203 -25.1,4.05859 -7.39,2.8125 -13.09,6.30081 -17.05,10.67191 -3.99,4.289 -6,8.75 -6,13.3515 0,3.4688 1.11,6.2774 3.43,8.4571 2.23,2.2304 4.96,3.3203 8.13,3.3203 4.01,0 7.45,-1.8594 10.49,-5.5078 1.47,-1.9414 2.99,-3.8008 4.51,-5.6914 1.56,-1.9102 3.3,-3.5782 5.17,-4.8985 1.91,-1.3828 4.21,-2.3828 6.87,-3.0508 2.59,-0.6523 5.7,-0.9804 9.17,-0.9804 6.98,0 12.51,1.039 16.36,3.0586 3.89,2.0507 6.62,4.9101 8.21,8.5703 1.48,3.6797 2.49,7.6015 2.64,11.7929 0.33,4.2696 0.51,10.9375 0.7,20.2774 -4.18,-6.0899 -9.1,-10.7383 -14.52,-13.9297 -5.47,-3.1992 -12.03,-4.75 -19.54,-4.75 -9.18,0 -17.13,2.3789 -23.88,7.2617 -6.85,4.8477 -12.08,11.6172 -15.73,20.3789 -3.6,8.7188 -5.47,18.7891 -5.47,30.2384 0,8.57 1.09,16.281 3.35,23.141 2.18,6.832 5.34,12.628 9.53,17.351 4.07,4.707 8.84,8.277 14.22,10.68 5.41,2.347 11.25,3.578 17.75,3.578 7.67,0 14.34,-1.57 19.97,-4.668 5.72,-3.039 10.91,-7.941 15.77,-14.492 v 3.801 c 0,4.96 1.2,8.742 3.5,11.531 2.29,2.66 5.31,4.031 8.94,4.031 5.27,0 8.75,-1.773 10.5,-5.34 1.7,-3.594 2.59,-8.781 2.59,-15.523"
         style="fill:#100f0d;fill-opacity:1;fill-rule:nonzero;stroke:none"
         transform="matrix(0.13333333,0,0,-0.13333333,0,800.45333)" />
      <path
         id="path25"
         d="m 2825.1,413.102 h 40.34 c -2.85,-21.75 -11.76,-38.723 -26.58,-50.942 -13.72,-11.969 -30.33,-17.871 -49.73,-17.871 -26.35,0 -47.37,9.262 -63.07,27.723 -14.88,17.57 -22.3,40.258 -22.3,67.957 0,28.402 7.37,51.101 22.08,68.281 14.71,17.121 35.51,25.73 62.39,25.73 19.99,0 36.91,-5.41 50.63,-16.152 14.54,-11.598 23.43,-27.898 26.58,-48.769 h -40.34 c -3.49,18.222 -14.6,27.273 -33.52,27.273 -31.17,0 -46.79,-18.473 -46.79,-55.422 0,-17.32 4.02,-31.449 12.04,-42.461 8.01,-11.07 19.32,-16.59 33.9,-16.59 21.74,0 33.2,10.43 34.37,31.243 z m -158.79,25.449 c 0,-36.11 11.45,-66.66 34.31,-91.571 22.89,-24.89 50.9,-37.351 84.15,-37.351 33.1,0 61.13,12.461 83.98,37.351 22.92,24.911 34.3,55.461 34.3,91.571 0,36.07 -11.38,66.609 -34.3,91.508 -22.85,24.953 -50.88,37.382 -83.98,37.382 -33.25,0 -61.26,-12.429 -84.15,-37.382 -22.86,-24.899 -34.31,-55.438 -34.31,-91.508 z m -40.98,0 c 0,45.929 15.55,85.14 46.66,117.711 31.15,32.519 68.75,48.789 112.78,48.789 43.92,0 81.46,-16.27 112.64,-48.789 31.13,-32.571 46.73,-71.782 46.73,-117.711 0,-45.981 -15.6,-85.25 -46.73,-117.75 -31.18,-32.551 -68.72,-48.832 -112.64,-48.832 -44.03,0 -81.63,16.281 -112.78,48.832 -31.11,32.5 -46.66,71.769 -46.66,117.75"
         style="fill:#100f0d;fill-opacity:1;fill-rule:nonzero;stroke:none"
         transform="matrix(0.13333333,0,0,-0.13333333,0,800.45333)" />
      <path
         id="path26"
         d="m 2689.83,334.121 23.26,-19.719 170.95,219.528 -23.24,19.699 -170.97,-219.508"
         style="fill:#100f0d;fill-opacity:1;fill-rule:nonzero;stroke:none"
         transform="matrix(0.13333333,0,0,-0.13333333,0,800.45333)" />
      <path
         id="path27"
         d="m 2868.75,6003.42 c 1584.37,0 2868.76,-1284.38 2868.76,-2868.75 0,-926.31 -439.14,-1749.92 -1120.47,-2274.42 H 1120.47 C 439.148,1384.75 0,2208.36 0,3134.67 0,4719.04 1284.38,6003.42 2868.75,6003.42"
         style="fill:#f68194;fill-opacity:1;fill-rule:evenodd;stroke:none"
         transform="matrix(0.13333333,0,0,-0.13333333,0,800.45333)" />
      <path
         id="path28"
         d="m 4099.12,3750.44 c 324.44,-7.97 599.48,-240.91 660.79,-559.58 l 208.36,-1324.55 c 25.83,-239.91 -70.1,-476.86 -255.57,-631.23 -185.47,-154.37 -435.9,-205.67 -667.16,-136.72 l 17.87,-238.11 c -675.88,0 -1351.75,0 -2027.64,0 l 17.86,238.11 c -231.25,-68.95 -481.67,-17.65 -667.14,136.72 -185.48,154.37 -281.42,391.32 -255.58,631.23 l 208.35,1324.55 c 61.31,318.67 336.37,551.61 660.79,559.58 l 138.79,5.07 c 188.12,1260.33 2437.89,645.45 1927.73,-3.87 l 32.55,-1.2"
         style="fill:#47a2dd;fill-opacity:1;fill-rule:evenodd;stroke:none"
         transform="matrix(0.13333333,0,0,-0.13333333,0,800.45333)" />
      <path
         id="path29"
         d="m 3901.38,3773.38 c 19.4,0 35.15,-15.73 35.15,-35.16 0,-19.4 -15.75,-35.13 -35.15,-35.13 h -139.9 c -107.04,0 -209.48,-30.06 -297.19,-83.93 -87.7,-53.87 -160.77,-131.59 -209.1,-226.93 -56.6,-111.63 -145.32,-199.29 -250.89,-254.95 -105.51,-55.63 -227.93,-79.29 -351.95,-62.91 -124.09,16.37 -236.22,71.02 -323.73,152.17 -87.47,81.11 -150.37,188.79 -176.05,311.27 -3.94,18.94 8.24,37.53 27.2,41.46 18.96,3.95 37.52,-8.23 41.47,-27.19 22.6,-107.81 78.05,-202.65 155.17,-274.18 77.1,-71.49 175.82,-119.63 285,-134.04 109.26,-14.43 217.15,6.43 310.2,55.49 93.01,49.03 171.13,126.21 220.95,224.47 54.35,107.21 136.54,194.61 235.19,255.21 98.64,60.58 213.68,94.35 333.73,94.35 z M 3672,2926.48 c -3.79,18.93 8.52,37.39 27.47,41.19 18.96,3.79 37.41,-8.51 41.19,-27.48 l 173.3,-852.44 c 108.72,80.99 238.37,118.61 366.31,113.72 132.27,-5.08 262.72,-55.4 366.52,-150.01 14.33,-13.06 15.37,-35.25 2.33,-49.58 -13.06,-14.34 -35.24,-15.39 -49.58,-2.34 -91.26,83.2 -205.78,127.44 -321.72,131.89 -116.15,4.44 -233.79,-30.87 -331.08,-106.78 l -34.3,-26.76 c -4.18,-3.26 -9.16,-5.61 -14.7,-6.74 -18.96,-3.77 -37.4,8.51 -41.2,27.48 L 3672,2926.48 Z m -2020.05,8.43 c -3.8,18.94 8.5,37.4 27.46,41.2 18.96,3.78 37.4,-8.51 41.2,-27.48 l 184.54,-907.83 c 3.8,-18.95 -8.5,-37.41 -27.47,-41.19 -18.95,-3.8 -37.4,8.51 -41.2,27.46 l -184.53,907.84 v 0"
         style="fill:#2d65b2;fill-opacity:1;fill-rule:evenodd;stroke:none"
         transform="matrix(0.13333333,0,0,-0.13333333,0,800.45333)" />
      <path
         id="path30"
         d="m 3784.14,1820.67 -652.05,-361.98 -129.43,75.48 c -81.15,47.34 -187.68,66.86 -266.02,15.05 l -386.9,-255.83 c -117.14,-77.45 -17.13,-172.9 121.36,-149.59 l 322.68,-153.538 c 116.22,-35.981 192.13,27.738 190.03,123.578 75.29,-78.74 276.56,-83.56 385.04,-32.91 280.9,-90.559 893.3,-189.032 974.92,167.46 70.05,306.07 -149.03,800.22 -559.63,572.28"
         style="fill:#fac2cc;fill-opacity:1;fill-rule:evenodd;stroke:none"
         transform="matrix(0.13333333,0,0,-0.13333333,0,800.45333)" />
      <path
         id="path31"
         d="M 426.078,2487.84 H 2144.74 c 69.31,0 137.31,-56.71 151.1,-126.02 l 254.5,-1278.89 c 13.8,-69.31 -31.63,-126.008 -100.95,-126.008 H 730.73 c -69.312,0 -137.312,56.698 -151.113,126.008 L 325.129,2361.82 c -13.797,69.31 31.629,126.02 100.949,126.02"
         style="fill:#2e2d2d;fill-opacity:1;fill-rule:evenodd;stroke:none"
         transform="matrix(0.13333333,0,0,-0.13333333,0,800.45333)" />
      <path
         id="path32"
         d="M 967.887,860.25 H 3489.03 c 45.01,0 81.84,36.82 81.84,81.832 v 0.008 c 0,45.019 -36.83,81.84 -81.84,81.84 H 967.887 c -45.016,0 -81.836,-36.821 -81.836,-81.84 v -0.008 c 0,-45.012 36.82,-81.832 81.836,-81.832"
         style="fill:#2e2d2d;fill-opacity:1;fill-rule:evenodd;stroke:none"
         transform="matrix(0.13333333,0,0,-0.13333333,0,800.45333)" />
      <path
         id="path33"
         d="m 1387.13,1453.01 c 215.59,0 391.42,121.01 391.42,269.37 0,148.36 -175.83,269.38 -391.42,269.38 -215.57,0 -391.403,-121.02 -391.403,-269.38 0,-148.36 175.833,-269.37 391.403,-269.37"
         style="fill:#ffffff;fill-opacity:1;fill-rule:evenodd;stroke:none"
         transform="matrix(0.13333333,0,0,-0.13333333,0,800.45333)" />
      <path
         id="path34"
         d="m 3035.87,4405.23 c 557.35,0 535,-791.75 -294.97,-791.75 -741.87,0 -465.84,791.75 294.97,791.75"
         style="fill:#2e2d2d;fill-opacity:1;fill-rule:evenodd;stroke:none"
         transform="matrix(0.13333333,0,0,-0.13333333,0,800.45333)" />
      <path
         id="path35"
         d="m 1928.47,5297.88 h 1295.41 v -911.95 c 0,-356.24 -291.47,-647.71 -647.71,-647.71 v 0 c -356.24,0 -647.7,291.47 -647.7,647.71 v 911.95"
         style="fill:#fac2cc;fill-opacity:1;fill-rule:evenodd;stroke:none"
         transform="matrix(0.13333333,0,0,-0.13333333,0,800.45333)" />
      <path
         id="path36"
         d="m 2999.45,4686.46 402.36,-705.24 v 0 l -0.15,-0.09 c -50.19,-176.21 -239.41,-344.88 -588.06,-365.51 l -0.08,-0.04 -477.82,789.65 663.75,281.23"
         style="fill:#fac2cc;fill-opacity:1;fill-rule:evenodd;stroke:none"
         transform="matrix(0.13333333,0,0,-0.13333333,0,800.45333)" />
      <path
         id="path37"
         d="m 3093.02,3431.83 h 0.02 c 18.12,0 32.96,-14.83 32.96,-32.96 v -554.32 c 21.58,-11.7 36.23,-34.56 36.23,-60.85 0,-38.22 -30.98,-69.21 -69.19,-69.21 -38.23,0 -69.21,30.99 -69.21,69.21 0,26.29 14.66,49.15 36.24,60.85 v 554.32 c 0,18.13 14.82,32.96 32.95,32.96 z m -761.98,0 v 0 c 18.13,0 32.96,-14.83 32.96,-32.96 v -554.32 c 21.59,-11.7 36.25,-34.56 36.25,-60.85 0,-38.22 -30.99,-69.21 -69.21,-69.21 -38.22,0 -69.2,30.99 -69.2,69.21 0,26.29 14.65,49.15 36.24,60.85 v 554.32 c 0,18.13 14.84,32.96 32.96,32.96 v 0"
         style="fill:#ffffff;fill-opacity:1;fill-rule:evenodd;stroke:none"
         transform="matrix(0.13333333,0,0,-0.13333333,0,800.45333)" />
      <path
         id="path38"
         d="m 1928.47,4789.11 -168.67,273.84 c -75.51,122.59 -42.96,282.73 74.4,366.11 l 29.78,62.51 c 93.5,196.34 272.49,338.46 484.92,385.02 212.43,46.55 434.45,-7.67 601.5,-146.9 l 151.81,-41.67 c 283.49,-77.83 460.15,-359.83 406.45,-648.88 -50.26,-270.63 -140.39,-532.31 -267.41,-776.5 l -112.27,142.59 -29.75,339.23 h -112.92 v 327.42 c -323.36,-72.47 -824.36,-92.44 -1057.84,26.78 v -309.55"
         style="fill:#2e2d2d;fill-opacity:1;fill-rule:evenodd;stroke:none"
         transform="matrix(0.13333333,0,0,-0.13333333,0,800.45333)" />
      <path
         id="path39"
         d="m 3192.73,4905.07 c 79.92,-10.51 128.08,-145.35 107.59,-301.16 -20.5,-155.82 -101.89,-273.62 -181.79,-263.1 -79.91,10.5 -128.08,145.34 -107.59,301.16 20.5,155.81 101.89,273.61 181.79,263.1"
         style="fill:#fac2cc;fill-opacity:1;fill-rule:evenodd;stroke:none"
         transform="matrix(0.13333333,0,0,-0.13333333,0,800.45333)" />
      <path
         id="path40"
         d="m 3172.07,4747.57 c -19.2,2.51 -32.72,20.09 -30.22,39.28 2.5,19.19 20.08,32.71 39.26,30.21 36.83,-4.83 64.8,-34 80.24,-77.22 12.7,-35.59 17.29,-82.46 10.76,-132.18 -6.53,-49.65 -23.12,-93.75 -44.67,-124.94 -26.1,-37.78 -60.59,-58.74 -97.29,-53.91 -19.19,2.5 -32.72,20.09 -30.23,39.27 2.5,19.19 20.1,32.72 39.29,30.22 8.44,-1.11 19.49,8.24 30.56,24.25 15.62,22.6 27.8,55.79 32.85,94.17 5.04,38.29 1.8,73.52 -7.47,99.5 -6.55,18.35 -14.77,30.26 -23.08,31.35 z M 4227.7,1411.41 c 16.76,9.63 38.15,3.85 47.79,-12.9 9.63,-16.77 3.84,-38.18 -12.9,-47.8 l -38.7,-22.32 c -87.66,-50.57 -180.15,-91.07 -275.69,-120.98 -95.88,-29.99 -194.95,-49.44 -295.49,-57.81 -19.33,-1.59 -36.3,12.78 -37.9,32.14 -1.59,19.34 12.8,36.3 32.13,37.9 95.57,7.96 189.58,26.4 280.37,54.8 91.12,28.5 178.92,66.9 261.68,114.65 l 38.71,22.32 z m -1087.06,2737 c 7.52,17.82 28.05,26.19 45.88,18.68 17.83,-7.51 26.19,-28.05 18.69,-45.87 -38.11,-89.82 -94.8,-169.89 -165.15,-235.22 -70.16,-65.17 -153.95,-115.86 -246.42,-147.15 -18.36,-6.21 -38.28,3.62 -44.49,21.96 -6.23,18.37 3.61,38.29 21.97,44.49 83,28.11 158.2,73.59 221.16,132.06 63.34,58.83 114.28,130.67 148.36,211.05 z m -839,524.9 c 4.48,18.8 23.35,30.42 42.16,25.94 18.81,-4.47 30.43,-23.34 25.95,-42.15 l -12.87,-53.58 c -12.45,-51.79 -29.83,-101.64 -51.82,-148.82 -18.29,-39.26 -39.97,-77.18 -64.86,-113.36 15.54,-18.97 34.86,-34.02 56.42,-44.4 l 1.63,-0.83 c 21.85,-10.2 45.95,-15.65 70.71,-15.59 19.34,0 35.01,-15.67 35.01,-35.01 0,-19.34 -15.67,-35.02 -35.01,-35.02 -35.27,-0.09 -69.65,7.74 -100.8,22.39 l -2.03,0.9 c -31.7,15.25 -59.98,37.57 -82.39,65.79 l -14.88,18.74 0.02,0.03 c -9.64,12.13 -10.37,29.66 -0.71,42.69 28.35,38.37 52.85,79.7 73.17,123.33 20.4,43.77 36.32,89.12 47.42,135.37 l 12.88,53.58 z m 81.63,-738.89 c -19.33,1.14 -34.09,17.74 -32.96,37.08 1.14,19.33 17.74,34.09 37.08,32.96 l 23.82,-1.49 c 41.66,-2.61 83.17,1.17 123.13,10.99 39.89,9.8 78.4,25.68 114.15,47.32 16.6,10.01 38.18,4.66 48.2,-11.95 10,-16.61 4.65,-38.2 -11.95,-48.2 -41.63,-25.2 -86.73,-43.76 -133.65,-55.28 -46.86,-11.52 -95.41,-15.95 -144.01,-12.92 l -23.81,1.49 z m 400.24,-2395.2 c 13.19,14.1 35.33,14.85 49.43,1.65 14.09,-13.2 14.85,-35.34 1.65,-49.43 l -18.01,-19.26 c -3.97,-4.23 -6.76,-9.43 -8.2,-15.04 -1.43,-5.51 -1.5,-11.43 -0.04,-17.26 6.57,-26.39 14.68,-52.65 24.28,-78.63 9.43,-25.55 20.34,-50.76 32.71,-75.5 0.35,-0.72 0.69,-1.45 0.99,-2.18 6.91,-12.87 16.94,-23.55 28.93,-31.27 12.71,-8.2 27.47,-13.03 42.91,-13.62 19.34,-0.67 34.48,-16.91 33.78,-36.25 -0.68,-19.33 -16.9,-34.46 -36.25,-33.79 -28.45,1.08 -55.41,9.82 -78.34,24.59 -22.07,14.24 -40.56,34.13 -53.26,58.24 -0.59,0.96 -1.16,1.95 -1.67,2.98 -13.34,26.7 -25.27,54.29 -35.74,82.62 -10.29,27.91 -19.13,56.65 -26.46,86.07 -4.27,17.15 -4.03,34.87 0.31,51.58 4.31,16.6 12.78,32.22 24.97,45.25 l 18.01,19.25 v 0"
         style="fill:#f68194;fill-opacity:1;fill-rule:evenodd;stroke:none"
         transform="matrix(0.13333333,0,0,-0.13333333,0,800.45333)" />
      <path
         id="path41"
         d="m 2533.14,4681.32 h 171.14 v -77.69 c 0,-47.06 -38.5,-85.57 -85.56,-85.57 v 0 c -47.06,0 -85.58,38.5 -85.58,85.57 v 77.69"
         style="fill:#2e2d2d;fill-opacity:1;fill-rule:evenodd;stroke:none"
         transform="matrix(0.13333333,0,0,-0.13333333,0,800.45333)" />
      <path
         id="path42"
         d="m 2495.43,4783.79 c -19.41,0 -35.16,15.74 -35.16,35.16 0,19.41 15.75,35.15 35.16,35.15 49.73,0 99.47,-5.2 148.43,-15.44 48.68,-10.18 96.33,-25.38 142.15,-45.42 17.75,-7.74 25.87,-28.39 18.14,-46.14 -7.74,-17.75 -28.4,-25.87 -46.15,-18.13 -41.38,18.1 -84.43,31.83 -128.42,41.03 -43.73,9.15 -88.69,13.79 -134.15,13.79 z m -238.01,70.31 c 19.41,0 35.16,-15.74 35.16,-35.15 0,-19.42 -15.75,-35.16 -35.16,-35.16 -33.03,0 -65.65,-4.46 -97.36,-13.24 -32.05,-8.88 -63.54,-22.2 -93.92,-39.79 -16.76,-9.71 -38.22,-4 -47.93,12.76 -9.7,16.77 -3.99,38.23 12.77,47.93 35.48,20.54 72.48,36.16 110.41,46.67 38.28,10.59 77.17,15.98 116.03,15.98 v 0"
         style="fill:#2e2d2d;fill-opacity:1;fill-rule:evenodd;stroke:none"
         transform="matrix(0.13333333,0,0,-0.13333333,0,800.45333)" />
      <path
         id="path43"
         d="M 2228.94,4681.32 H 2099.7 v -77.69 c 0,-47.06 29.08,-85.57 64.62,-85.57 v 0 c 35.54,0 64.62,38.5 64.62,85.57 v 77.69"
         style="fill:#2e2d2d;fill-opacity:1;fill-rule:evenodd;stroke:none"
         transform="matrix(0.13333333,0,0,-0.13333333,0,800.45333)" />
      <path
         id="path44"
         d="m 405.508,2098.34 c 48.672,10.79 100.883,-22.05 124.812,-78.51 23.922,-56.46 12.938,-120.86 -26.277,-153.97 l 85.133,-263.83 c 15.258,-47.29 13.945,-97.88 -3.633,-139.56 -17.59,-41.66 -49.84,-70.67 -88.996,-79.99 -46.352,-11.05 -93.875,-17.15 -142.039,-18.22 -51.742,-1.16 -101.738,39.27 -122.403,98.97 l -105.703,320.69 c -95.8903,290.92 116.563,278.41 279.106,314.42"
         style="fill:#fac2cc;fill-opacity:1;fill-rule:evenodd;stroke:none"
         transform="matrix(0.13333333,0,0,-0.13333333,0,800.45333)" />
      <path
         id="path45"
         d="m 2955.03,5577.36 c -14.87,4.43 -23.33,20.07 -18.9,34.94 4.44,14.86 20.06,23.32 34.92,18.89 l 125.02,-37.21 c 59.68,-17.76 114.12,-48.11 160.09,-88.27 45.94,-40.13 83.33,-89.98 108.98,-146.74 25.61,-56.73 38.29,-117.73 38.02,-178.76 -0.27,-61.03 -13.48,-121.93 -39.6,-178.43 -6.48,-14.08 -23.15,-20.23 -37.23,-13.74 -14.07,6.49 -20.23,23.17 -13.73,37.25 22.79,49.29 34.29,102.24 34.53,155.14 0.23,52.9 -10.83,105.95 -33.18,155.46 -22.35,49.46 -54.85,92.81 -94.7,127.63 -39.84,34.79 -87.17,61.14 -139.21,76.63 z m -310.87,-193.98 -123.32,-60.23 c -90.98,-44.44 -188.76,-70.4 -287.82,-77.48 -99.21,-7.1 -199.71,4.66 -295.97,35.65 -14.76,4.74 -30.54,-3.38 -35.28,-18.12 -4.72,-14.74 3.39,-30.53 18.13,-35.27 103.29,-33.25 210.95,-45.88 317.08,-38.29 106.27,7.6 211.06,35.4 308.46,82.97 l 123.32,60.23 c 13.95,6.8 19.77,23.62 12.97,37.58 -6.8,13.94 -23.62,19.75 -37.57,12.96 z m -610.46,15.51 c -10.74,-11.16 -28.5,-11.5 -39.66,-0.77 -11.16,10.74 -11.51,28.51 -0.77,39.66 l 86.21,89.3 c 95.12,98.52 214.39,165.28 342.32,196.51 127.86,31.2 264.38,26.88 394.17,-16.73 14.68,-4.91 22.6,-20.8 17.69,-35.48 -4.91,-14.69 -20.8,-22.61 -35.49,-17.7 -119.57,40.18 -245.37,44.17 -363.18,15.41 -117.72,-28.72 -227.49,-90.19 -315.07,-180.9 l -86.22,-89.3 v 0"
         style="fill:#464648;fill-opacity:1;fill-rule:evenodd;stroke:none"
         transform="matrix(0.13333333,0,0,-0.13333333,0,800.45333)" />
    </g>
  </g>
</svg>
