<?xml version="1.0" encoding="UTF-8" standalone="no"?>
<!-- Created with Inkscape (http://www.inkscape.org/) -->

<svg
   version="1.1"
   id="svg1"
   width="799.86621"
   height="799.86664"
   viewBox="0 0 799.86621 799.86664"
   sodipodi:docname="puzzle-pieces.svg"
   inkscape:version="1.3.2 (091e20ef0f, 2023-11-25, custom)"
   xmlns:inkscape="http://www.inkscape.org/namespaces/inkscape"
   xmlns:sodipodi="http://sodipodi.sourceforge.net/DTD/sodipodi-0.dtd"
   xmlns="http://www.w3.org/2000/svg"
   xmlns:svg="http://www.w3.org/2000/svg">
  <defs
     id="defs1">
    <radialGradient
       fx="0"
       fy="0"
       cx="0"
       cy="0"
       r="1"
       gradientUnits="userSpaceOnUse"
       gradientTransform="matrix(4241.9,0,0,-4241.9,3005.2,2999.5)"
       spreadMethod="pad"
       id="radialGradient3">
      <stop
         style="stop-opacity:1;stop-color:#ffffff"
         offset="0"
         id="stop2" />
      <stop
         style="stop-opacity:1;stop-color:#e2e2e0"
         offset="1"
         id="stop3" />
    </radialGradient>
  </defs>
  <sodipodi:namedview
     id="namedview1"
     pagecolor="#505050"
     bordercolor="#ffffff"
     borderopacity="1"
     inkscape:showpageshadow="0"
     inkscape:pageopacity="0"
     inkscape:pagecheckerboard="1"
     inkscape:deskcolor="#d1d1d1"
     inkscape:zoom="0.79919871"
     inkscape:cx="83.833969"
     inkscape:cy="187.68799"
     inkscape:window-width="1920"
     inkscape:window-height="1002"
     inkscape:window-x="0"
     inkscape:window-y="0"
     inkscape:window-maximized="1"
     inkscape:current-layer="group-R5">
    <inkscape:page
       x="0"
       y="0"
       inkscape:label="1"
       id="page1"
       width="799.86621"
       height="799.86664"
       margin="0"
       bleed="0" />
  </sodipodi:namedview>
  <g
     id="g1"
     inkscape:groupmode="layer"
     inkscape:label="1"
     transform="translate(-0.76041729,-44.333355)">
    <g
       id="group-R5">
      <path
         id="path2"
         d="M 5.70313,0 H 6004.7 V 5999 H 5.70313 V 0"
         style="fill:#ffffff;fill-opacity:1;fill-rule:evenodd;stroke:none"
         transform="matrix(0.13333333,0,0,-0.13333333,0,844.2)" />
      <path
         id="path3"
         d="m 2448.8,4507.87 h 1175.22 v -417.92 c -2,-48.63 -67.49,-76.5 -111.63,-36.48 -34.29,34.57 -81.82,55.98 -134.36,55.98 -104.48,0 -189.17,-84.7 -189.17,-189.18 0,-104.48 84.69,-189.19 189.17,-189.19 52.54,0 100.07,21.42 134.36,55.99 44.14,40.02 109.63,12.15 111.63,-36.48 v -417.94 h -417.93 c -48.63,2.01 -76.5,67.49 -36.48,111.64 34.58,34.29 56,81.81 56,134.35 0,104.49 -84.72,189.18 -189.19,189.18 -104.5,0 -189.19,-84.69 -189.19,-189.18 0,-52.54 21.41,-100.06 55.99,-134.35 40,-44.15 12.14,-109.63 -36.47,-111.64 H 2448.8 v 417.94 c 2.02,48.63 67.48,76.5 111.65,36.48 34.28,-34.57 81.79,-55.99 134.33,-55.99 104.48,0 189.19,84.71 189.19,189.19 0,104.48 -84.71,189.18 -189.19,189.18 -52.54,0 -100.05,-21.41 -134.33,-55.98 -44.17,-40.02 -109.63,-12.15 -111.65,36.48 v 417.92"
         style="fill:#935c29;fill-opacity:1;fill-rule:evenodd;stroke:none"
         transform="matrix(0.13333333,0,0,-0.13333333,0,844.2)" />
      <path
         id="path4"
         d="m 4079.02,4931.15 968.09,666.3 666.3,-968.09 -344.27,-236.94 c -41.18,-25.91 -101.27,12.22 -93.35,71.28 9.04,47.84 -0.26,99.13 -30.03,142.41 -59.24,86.07 -177.03,107.81 -263.11,48.58 -86.06,-59.24 -107.82,-177.04 -48.58,-263.11 29.76,-43.27 74.36,-70.28 122.28,-78.91 58,-13.69 72.17,-83.43 33.25,-112.65 l -344.27,-236.96 -236.95,344.28 c -29.23,38.92 -98.98,24.74 -112.66,-33.24 -8.64,-47.92 -35.64,-92.52 -78.92,-122.3 -86.06,-59.24 -203.87,-37.48 -263.1,48.58 -59.24,86.08 -37.48,203.87 48.58,263.1 43.29,29.8 94.56,39.1 142.41,30.06 59.06,-7.93 97.2,52.15 71.27,93.35 l -236.94,344.26"
         style="fill:#8cd024;fill-opacity:1;fill-rule:evenodd;stroke:none"
         transform="matrix(0.13333333,0,0,-0.13333333,0,844.2)" />
      <path
         id="path5"
         d="m 664.031,4703.39 1103.509,404.26 143.75,-392.42 c 18.62,-44.97 89.7,-48.61 117.39,4.14 20.29,44.26 57.56,80.71 106.9,98.79 98.08,35.93 206.76,-14.46 242.7,-112.58 35.93,-98.09 -14.46,-206.77 -112.58,-242.71 -49.31,-18.07 -101.3,-14.3 -145.37,6.36 -55.25,22.39 -107.14,-26.31 -92.3,-72.65 l 143.76,-392.44 -392.43,-143.76 c -44.98,-18.62 -48.61,-89.68 4.17,-117.37 44.24,-20.31 80.69,-57.56 98.76,-106.89 35.96,-98.11 -14.43,-206.78 -112.55,-242.73 -98.12,-35.93 -206.79,14.47 -242.72,112.57 -18.09,49.34 -14.31,101.32 6.35,145.41 22.39,55.22 -26.31,107.12 -72.64,92.27 L 1068.3,3599.89 664.031,4703.39"
         style="fill:#c1cf1b;fill-opacity:1;fill-rule:evenodd;stroke:none"
         transform="matrix(0.13333333,0,0,-0.13333333,0,844.2)" />
      <path
         id="path6"
         d="m 2448.8,3332.65 h 417.95 c 48.61,2.01 76.47,67.49 36.47,111.64 -34.58,34.29 -55.99,81.81 -55.99,134.35 0,104.49 84.69,189.18 189.19,189.18 104.47,0 189.19,-84.69 189.19,-189.18 0,-52.54 -21.42,-100.06 -56,-134.35 -40.02,-44.15 -12.15,-109.63 36.48,-111.64 h 417.93 v -417.93 c 2.02,-48.62 67.49,-76.49 111.65,-36.47 34.28,34.57 81.8,55.98 134.33,55.98 104.51,0 189.19,-84.7 189.19,-189.18 0,-104.51 -84.68,-189.18 -189.19,-189.18 -52.53,0 -100.05,21.39 -134.33,55.97 -44.16,40.02 -109.63,12.16 -111.65,-36.46 v -417.96 h -417.93 c -48.63,2.02 -76.5,67.49 -36.48,111.65 34.58,34.29 56,81.8 56,134.33 0,104.49 -84.72,189.2 -189.19,189.2 -104.5,0 -189.19,-84.71 -189.19,-189.2 0,-52.53 21.41,-100.04 55.99,-134.33 40,-44.16 12.14,-109.63 -36.47,-111.65 H 2448.8 v 417.96 c 2.02,48.62 67.48,76.48 111.65,36.46 34.28,-34.58 81.79,-55.97 134.33,-55.97 104.48,0 189.19,84.67 189.19,189.18 0,104.48 -84.71,189.18 -189.19,189.18 -52.54,0 -100.05,-21.41 -134.33,-55.98 -44.17,-40.02 -109.63,-12.15 -111.65,36.47 v 417.93"
         style="fill:#fbc907;fill-opacity:1;fill-rule:evenodd;stroke:none"
         transform="matrix(0.13333333,0,0,-0.13333333,0,844.2)" />
      <path
         id="path7"
         d="m 3624.02,3332.65 h 417.95 c 48.61,2.01 76.49,67.49 36.47,111.64 -34.58,34.29 -55.99,81.81 -55.99,134.35 0,104.49 84.71,189.18 189.19,189.18 104.48,0 189.19,-84.69 189.19,-189.18 0,-52.54 -21.41,-100.06 -55.99,-134.35 -40.02,-44.15 -12.14,-109.63 36.46,-111.64 h 417.93 V 2157.42 H 4381.3 c -48.62,-1.99 -76.48,-67.49 -36.46,-111.63 34.56,-34.3 55.98,-81.82 55.98,-134.36 0,-104.47 -84.7,-189.17 -189.18,-189.17 -104.5,0 -189.19,84.7 -189.19,189.17 0,52.54 21.41,100.06 55.99,134.36 40.02,44.14 12.14,109.64 -36.49,111.63 h -417.93 v 417.96 c 2.02,48.62 67.49,76.48 111.65,36.46 34.28,-34.58 81.8,-55.97 134.33,-55.97 104.51,0 189.19,84.67 189.19,189.18 0,104.48 -84.68,189.18 -189.19,189.18 -52.53,0 -100.05,-21.41 -134.33,-55.98 -44.16,-40.02 -109.63,-12.15 -111.65,36.47 v 417.93"
         style="fill:#f15030;fill-opacity:1;fill-rule:evenodd;stroke:none"
         transform="matrix(0.13333333,0,0,-0.13333333,0,844.2)" />
      <path
         id="path8"
         d="m 1273.57,3332.65 h 417.94 c 48.63,-2 76.49,-67.49 36.47,-111.64 -34.58,-34.28 -55.98,-81.8 -55.98,-134.34 0,-104.48 84.7,-189.18 189.2,-189.18 104.47,0 189.17,84.7 189.17,189.18 0,52.54 -21.41,100.06 -56,134.34 -39.99,44.15 -12.13,109.64 36.49,111.64 h 417.94 v -417.93 c 2.02,-48.62 67.48,-76.49 111.65,-36.47 34.28,34.57 81.79,55.98 134.33,55.98 104.48,0 189.19,-84.7 189.19,-189.18 0,-104.51 -84.71,-189.18 -189.19,-189.18 -52.54,0 -100.05,21.39 -134.33,55.97 -44.17,40.02 -109.63,12.16 -111.65,-36.46 v -417.96 h -417.94 c -48.62,-1.99 -76.48,-67.49 -36.49,-111.63 34.59,-34.3 56,-81.82 56,-134.36 0,-104.47 -84.7,-189.17 -189.17,-189.17 -104.5,0 -189.2,84.7 -189.2,189.17 0,52.54 21.4,100.06 55.98,134.36 40.02,44.14 12.16,109.64 -36.47,111.63 h -417.94 v 1175.23"
         style="fill:#cd1e65;fill-opacity:1;fill-rule:evenodd;stroke:none"
         transform="matrix(0.13333333,0,0,-0.13333333,0,844.2)" />
      <path
         id="path9"
         d="m 2448.8,2157.42 h 417.95 c 48.61,2.02 76.47,67.49 36.47,111.65 -34.58,34.29 -55.99,81.8 -55.99,134.33 0,104.49 84.69,189.2 189.19,189.2 104.47,0 189.19,-84.71 189.19,-189.2 0,-52.53 -21.42,-100.04 -56,-134.33 -40.02,-44.16 -12.15,-109.63 36.48,-111.65 h 417.93 v -417.91 c -2,-48.62 -67.49,-76.51 -111.63,-36.5 -34.29,34.56 -81.82,56.01 -134.36,56.01 -104.48,0 -189.17,-84.72 -189.17,-189.2 0,-104.47 84.69,-189.19 189.17,-189.19 52.54,0 100.07,21.44 134.36,56 44.14,40.02 109.63,12.14 111.63,-36.5 V 982.199 H 2448.8 v 417.931 c 2.02,48.64 67.48,76.52 111.65,36.5 34.28,-34.56 81.79,-56 134.33,-56 104.48,0 189.19,84.72 189.19,189.19 0,104.48 -84.71,189.2 -189.19,189.2 -52.54,0 -100.05,-21.45 -134.33,-56.01 -44.17,-40.01 -109.63,-12.12 -111.65,36.5 v 417.91"
         style="fill:#cc1a95;fill-opacity:1;fill-rule:evenodd;stroke:none"
         transform="matrix(0.13333333,0,0,-0.13333333,0,844.2)" />
      <path
         id="path10"
         d="m 4168.64,1574.26 393.42,141 c 46.46,14.52 94.79,-37.71 72,-92.77 -20.97,-43.95 -25.11,-95.93 -7.37,-145.37 35.25,-98.36 143.55,-149.51 241.91,-114.27 98.38,35.26 149.54,143.56 114.27,241.94 -17.72,49.44 -53.92,86.95 -98.03,107.57 -52.57,28.06 -48.42,99.11 -3.31,117.41 l 393.42,140.99 396.49,-1106.33 -1106.31,-396.489 -141.01,393.43 c -18.3,45.109 -89.34,49.238 -117.42,-3.332 -20.59,-44.09 -58.12,-80.309 -107.56,-98.019 -98.35,-35.262 -206.65,15.91 -241.93,114.261 -35.24,98.36 15.92,206.679 114.27,241.939 49.45,17.71 101.41,13.59 145.36,-7.4 55.07,-22.77 107.31,25.56 92.78,72.01 l -140.98,393.43"
         style="fill:#3a629f;fill-opacity:1;fill-rule:evenodd;stroke:none"
         transform="matrix(0.13333333,0,0,-0.13333333,0,844.2)" />
      <path
         id="path11"
         d="M 296.977,1576.76 H 714.91 c 48.629,-2 76.5,-67.49 36.481,-111.63 -34.571,-34.3 -55.985,-81.81 -55.985,-134.35 0,-104.5 84.696,-189.18 189.184,-189.18 104.488,0 189.2,84.68 189.2,189.18 0,52.54 -21.43,100.05 -56.02,134.35 -39.993,44.14 -12.11,109.63 36.5,111.63 h 417.93 v -417.94 c 2.02,-48.62 67.49,-76.5 111.65,-36.46 34.28,34.56 81.79,55.98 134.33,55.98 104.48,0 189.2,-84.7 189.2,-189.199 0,-104.481 -84.72,-189.172 -189.2,-189.172 -52.54,0 -100.05,21.41 -134.33,55.992 -44.16,40 -109.63,12.141 -111.65,-36.492 V 401.539 H 296.977 V 1576.76"
         style="fill:#803aa1;fill-opacity:1;fill-rule:evenodd;stroke:none"
         transform="matrix(0.13333333,0,0,-0.13333333,0,844.2)" />
      <path
         id="path174"
         d="m 2296.52,408.68 c 0,5.461 -0.79,10.168 -2.4,14.031 -1.58,3.918 -3.78,6.93 -6.63,9.059 -2.83,2.07 -5.94,3.14 -9.39,3.14 -5.45,0 -10.06,-2.312 -13.81,-6.762 -3.75,-4.507 -5.63,-11.089 -5.63,-19.816 0,-8.242 1.88,-14.633 5.57,-19.141 3.75,-4.582 8.38,-6.89 13.87,-6.89 3.29,0 6.34,1 9.16,3.019 2.76,1.989 5.02,4.969 6.71,8.91 1.72,4.032 2.55,8.809 2.55,14.45 z m -38.78,30.09 v -2.489 c 3.72,4.758 7.57,8.328 11.58,10.528 4.01,2.261 8.59,3.402 13.66,3.402 6.08,0 11.68,-1.652 16.81,-4.93 5.11,-3.281 9.15,-8.051 12.13,-14.383 2.98,-6.308 4.44,-13.757 4.44,-22.378 0,-6.34 -0.83,-12.239 -2.55,-17.489 -1.71,-5.332 -4.06,-9.82 -7.06,-13.422 -3,-3.597 -6.56,-6.39 -10.61,-8.308 -4.1,-1.973 -8.5,-2.93 -13.16,-2.93 -5.68,0 -10.43,1.188 -14.26,3.559 -3.88,2.359 -7.51,5.82 -10.98,10.422 v -30.981 c 0,-9.09 -3.16,-13.609 -9.49,-13.609 -3.72,0 -6.2,1.148 -7.38,3.476 -1.22,2.364 -1.81,5.782 -1.81,10.262 v 89.129 c 0,3.93 0.79,6.871 2.45,8.812 1.66,1.918 3.91,2.918 6.74,2.918 2.8,0 5.09,-1 6.85,-3.007 1.75,-2.012 2.64,-4.872 2.64,-8.582"
         style="fill:#5a5758;fill-opacity:1;fill-rule:nonzero;stroke:none"
         transform="matrix(0.13333333,0,0,-0.13333333,0,844.2)" />
      <path
         id="path175"
         d="m 2383.67,378.051 v 2.609 c -2.39,-3.109 -4.86,-5.719 -7.48,-7.832 -2.61,-2.16 -5.46,-3.719 -8.54,-4.738 -3.12,-1.02 -6.64,-1.551 -10.6,-1.551 -4.76,0 -9.05,1.039 -12.86,3.09 -3.79,2.07 -6.73,4.922 -8.79,8.539 -2.49,4.391 -3.7,10.703 -3.7,18.891 v 40.921 c 0,4.11 0.9,7.219 2.68,9.25 1.8,2.04 4.15,3.071 7.09,3.071 3.01,0 5.41,-1.031 7.26,-3.121 1.83,-2.071 2.74,-5.149 2.74,-9.2 v -33.07 c 0,-4.762 0.39,-8.781 1.13,-12.012 0.81,-3.257 2.19,-5.808 4.22,-7.679 1.97,-1.821 4.7,-2.731 8.13,-2.731 3.37,0 6.5,1.043 9.42,3.102 2.96,2.039 5.13,4.738 6.46,8.07 1.12,2.93 1.66,9.32 1.66,19.211 v 25.109 c 0,4.051 0.93,7.129 2.77,9.2 1.82,2.09 4.19,3.121 7.16,3.121 2.95,0 5.3,-1.031 7.1,-3.071 1.77,-2.031 2.65,-5.14 2.65,-9.25 v -59.812 c 0,-3.93 -0.82,-6.879 -2.55,-8.828 -1.7,-1.988 -3.91,-2.949 -6.62,-2.949 -2.7,0 -4.92,1.05 -6.69,3.039 -1.76,2.07 -2.64,4.898 -2.64,8.621"
         style="fill:#5a5758;fill-opacity:1;fill-rule:nonzero;stroke:none"
         transform="matrix(0.13333333,0,0,-0.13333333,0,844.2)" />
      <path
         id="path176"
         d="m 2441.04,407.859 c 0,-8.218 1.8,-14.5 5.39,-18.929 3.6,-4.391 8.33,-6.629 14.19,-6.629 4.98,0 9.24,2.281 12.86,6.777 3.62,4.524 5.42,10.953 5.42,19.383 0,5.5 -0.75,10.168 -2.25,14.09 -1.51,3.949 -3.66,6.988 -6.39,9.121 -2.78,2.137 -5.96,3.238 -9.64,3.238 -3.8,0 -7.11,-1.101 -10.08,-3.238 -2.97,-2.133 -5.26,-5.254 -6.98,-9.32 -1.68,-4.02 -2.52,-8.844 -2.52,-14.493 z m -0.93,61.371 v -31.562 c 3.68,4.07 7.49,7.133 11.35,9.32 3.87,2.141 8.67,3.223 14.36,3.223 6.57,0 12.33,-1.652 17.28,-4.871 4.95,-3.309 8.81,-7.988 11.52,-14.16 2.76,-6.168 4.1,-13.5 4.1,-21.961 0,-6.27 -0.75,-12 -2.25,-17.25 -1.54,-5.199 -3.73,-9.699 -6.64,-13.578 -2.92,-3.801 -6.44,-6.731 -10.55,-8.903 -4.14,-2.047 -8.7,-3.117 -13.67,-3.117 -3.02,0 -5.9,0.387 -8.6,1.141 -2.68,0.758 -4.98,1.738 -6.82,3.008 -1.91,1.179 -3.51,2.488 -4.85,3.769 -1.33,1.332 -3.05,3.281 -5.23,5.902 v -2.023 c 0,-3.898 -0.91,-6.828 -2.7,-8.828 -1.78,-1.988 -4.07,-2.969 -6.8,-2.969 -2.82,0 -5.04,0.981 -6.72,2.969 -1.66,2.039 -2.49,4.949 -2.49,8.828 v 90.172 c 0,4.148 0.8,7.32 2.44,9.449 1.61,2.16 3.85,3.219 6.77,3.219 3.03,0 5.38,-1.008 7.01,-3.067 1.65,-2.031 2.49,-4.921 2.49,-8.711"
         style="fill:#5a5758;fill-opacity:1;fill-rule:nonzero;stroke:none"
         transform="matrix(0.13333333,0,0,-0.13333333,0,844.2)" />
      <path
         id="path177"
         d="m 2512.69,378.941 v 89.52 c 0,4.148 0.88,7.258 2.62,9.391 1.79,2.097 4.16,3.156 7.16,3.156 2.99,0 5.39,-1.02 7.24,-3.129 1.8,-2.078 2.76,-5.25 2.76,-9.418 v -89.52 c 0,-4.191 -0.96,-7.339 -2.8,-9.453 -1.85,-2.047 -4.26,-3.117 -7.2,-3.117 -2.91,0 -5.23,1.098 -7.05,3.258 -1.82,2.172 -2.73,5.262 -2.73,9.312"
         style="fill:#5a5758;fill-opacity:1;fill-rule:nonzero;stroke:none"
         transform="matrix(0.13333333,0,0,-0.13333333,0,844.2)" />
      <path
         id="path178"
         d="m 2572.67,438.57 v -59.629 c 0,-4.16 -0.97,-7.281 -2.8,-9.402 -1.91,-2.07 -4.31,-3.168 -7.18,-3.168 -2.91,0 -5.27,1.098 -7.07,3.25 -1.8,2.18 -2.73,5.27 -2.73,9.32 v 59.039 c 0,4.051 0.93,7.129 2.73,9.2 1.8,2.09 4.16,3.121 7.07,3.121 2.87,0 5.27,-1.031 7.18,-3.121 1.83,-2.071 2.8,-4.93 2.8,-8.61 z m -9.79,21.352 c -2.74,0 -5.08,0.879 -7.08,2.676 -1.91,1.761 -2.91,4.281 -2.91,7.511 0,2.911 1,5.301 3.01,7.219 2,1.902 4.32,2.781 6.98,2.781 2.56,0 4.84,-0.828 6.83,-2.531 1.96,-1.707 2.96,-4.226 2.96,-7.469 0,-3.199 -0.98,-5.679 -2.9,-7.449 -1.94,-1.781 -4.21,-2.738 -6.89,-2.738"
         style="fill:#5a5758;fill-opacity:1;fill-rule:nonzero;stroke:none"
         transform="matrix(0.13333333,0,0,-0.13333333,0,844.2)" />
      <path
         id="path179"
         d="m 2663.96,391.941 c 0,-2.562 -0.73,-5.32 -2.19,-8.242 -1.49,-2.918 -3.74,-5.699 -6.77,-8.347 -2.99,-2.641 -6.81,-4.774 -11.39,-6.372 -4.59,-1.652 -9.77,-2.441 -15.5,-2.441 -12.24,0 -21.76,3.731 -28.63,11.152 -6.85,7.438 -10.29,17.379 -10.29,29.887 0,8.473 1.57,15.981 4.7,22.473 3.13,6.461 7.7,11.527 13.62,15.058 5.93,3.582 13.06,5.36 21.29,5.36 5.14,0 9.85,-0.809 14.13,-2.348 4.26,-1.57 7.89,-3.601 10.85,-6.039 2.97,-2.48 5.23,-5.121 6.82,-7.902 1.59,-2.801 2.35,-5.41 2.35,-7.84 0,-2.442 -0.91,-4.531 -2.64,-6.262 -1.77,-1.719 -3.89,-2.566 -6.41,-2.566 -1.65,0 -3.01,0.468 -4.11,1.347 -1.06,0.852 -2.3,2.243 -3.66,4.25 -2.41,3.821 -4.94,6.711 -7.57,8.661 -2.64,1.902 -5.99,2.878 -10.02,2.878 -5.87,0 -10.58,-2.418 -14.14,-7.168 -3.58,-4.8 -5.35,-11.3 -5.35,-19.57 0,-3.859 0.46,-7.469 1.38,-10.711 0.91,-3.258 2.24,-6.019 3.97,-8.328 1.74,-2.293 3.83,-4.019 6.3,-5.199 2.46,-1.211 5.17,-1.793 8.1,-1.793 3.99,0 7.36,0.941 10.19,2.859 2.84,1.942 5.34,4.871 7.5,8.75 1.22,2.383 2.52,4.172 3.93,5.5 1.41,1.321 3.12,1.942 5.15,1.942 2.41,0 4.42,-0.93 6.02,-2.852 1.57,-1.949 2.37,-3.969 2.37,-6.137"
         style="fill:#5a5758;fill-opacity:1;fill-rule:nonzero;stroke:none"
         transform="matrix(0.13333333,0,0,-0.13333333,0,844.2)" />
      <path
         id="path180"
         d="m 2696.55,408.461 c 0,-5.59 0.83,-10.332 2.49,-14.281 1.68,-3.95 3.92,-6.871 6.82,-8.86 2.93,-2.019 6.09,-3.019 9.49,-3.019 3.48,0 6.66,0.969 9.52,2.828 2.89,1.91 5.16,4.82 6.9,8.719 1.72,3.89 2.57,8.781 2.57,14.613 0,5.527 -0.85,10.23 -2.57,14.199 -1.74,3.969 -4.04,6.981 -6.96,9.11 -2.92,2.07 -6.11,3.14 -9.58,3.14 -3.61,0 -6.85,-1.101 -9.71,-3.238 -2.83,-2.133 -5.07,-5.242 -6.63,-9.242 -1.55,-4.032 -2.34,-8.629 -2.34,-13.969 z m 38.87,-30.293 v 2.023 c -2.65,-3.171 -5.27,-5.75 -7.88,-7.711 -2.55,-2.011 -5.37,-3.531 -8.39,-4.558 -3,-1.012 -6.31,-1.551 -9.87,-1.551 -4.72,0 -9.14,1.07 -13.15,3.117 -4.03,2.172 -7.51,5.121 -10.46,8.992 -2.94,3.879 -5.18,8.438 -6.71,13.7 -1.54,5.23 -2.28,10.898 -2.28,17.039 0,12.871 3.02,22.972 9.06,30.179 6.05,7.211 13.99,10.813 23.83,10.813 5.69,0 10.5,-1.039 14.41,-3.121 3.91,-2.012 7.73,-5.149 11.44,-9.422 v 30.492 c 0,4.238 0.81,7.442 2.44,9.602 1.61,2.179 3.89,3.246 6.9,3.246 2.99,0 5.29,-0.988 6.93,-2.969 1.61,-1.98 2.45,-4.93 2.45,-8.809 v -91.062 c 0,-3.93 -0.88,-6.879 -2.63,-8.828 -1.74,-1.988 -3.98,-2.969 -6.75,-2.969 -2.67,0 -4.94,1.02 -6.71,3.059 -1.75,2.031 -2.63,4.922 -2.63,8.738"
         style="fill:#5a5758;fill-opacity:1;fill-rule:nonzero;stroke:none"
         transform="matrix(0.13333333,0,0,-0.13333333,0,844.2)" />
      <path
         id="path181"
         d="m 2828.18,408.301 c 0,8.39 -1.81,14.961 -5.34,19.648 -3.55,4.649 -8.33,7.031 -14.31,7.031 -3.89,0 -7.28,-1.062 -10.22,-3.152 -2.94,-2.117 -5.21,-5.199 -6.81,-9.277 -1.59,-4.051 -2.39,-8.781 -2.39,-14.25 0,-5.403 0.8,-10.102 2.35,-14.121 1.57,-4.039 3.82,-7.121 6.75,-9.27 2.91,-2.14 6.38,-3.191 10.32,-3.191 5.98,0 10.76,2.34 14.31,7.051 3.53,4.691 5.34,11.23 5.34,19.531 z m 19.84,0 c 0,-6.121 -0.93,-11.801 -2.75,-17.02 -1.84,-5.152 -4.5,-9.621 -7.96,-13.359 -3.5,-3.742 -7.64,-6.543 -12.47,-8.582 -4.83,-1.988 -10.3,-2.969 -16.31,-2.969 -5.98,0 -11.38,0.981 -16.14,3.027 -4.79,2 -8.95,4.891 -12.45,8.653 -3.49,3.769 -6.14,8.168 -7.98,13.277 -1.8,5.16 -2.7,10.781 -2.7,17.012 0,6.25 0.93,11.961 2.75,17.129 1.83,5.222 4.45,9.621 7.88,13.34 3.44,3.671 7.59,6.5 12.5,8.48 4.89,2 10.24,3.012 16.14,3.012 5.99,0 11.44,-1.012 16.31,-3.043 4.86,-1.996 9.05,-4.899 12.52,-8.629 3.49,-3.719 6.13,-8.18 7.91,-13.328 1.85,-5.133 2.75,-10.801 2.75,-17"
         style="fill:#5a5758;fill-opacity:1;fill-rule:nonzero;stroke:none"
         transform="matrix(0.13333333,0,0,-0.13333333,0,844.2)" />
      <path
         id="path182"
         d="m 2931.56,425.352 c -1.48,-3.493 -2.19,-9.653 -2.19,-18.524 v -27.43 c 0,-4.32 -0.93,-7.597 -2.84,-9.769 -1.86,-2.16 -4.38,-3.258 -7.47,-3.258 -2.98,0 -5.39,1.098 -7.24,3.258 -1.86,2.172 -2.77,5.449 -2.77,9.769 v 32.93 c 0,5.184 -0.2,9.203 -0.54,12.113 -0.34,2.84 -1.25,5.207 -2.76,7.059 -1.46,1.859 -3.85,2.77 -7.06,2.77 -6.47,0 -10.72,-2.321 -12.79,-6.989 -2.08,-4.621 -3.06,-11.281 -3.06,-19.972 v -27.911 c 0,-4.308 -0.96,-7.546 -2.79,-9.699 -1.88,-2.23 -4.32,-3.328 -7.33,-3.328 -3.01,0 -5.5,1.098 -7.39,3.328 -1.93,2.153 -2.83,5.391 -2.83,9.692 v 59.07 c 0,3.898 0.81,6.848 2.51,8.859 1.75,2 4,3.039 6.82,3.039 2.69,0 4.96,-0.941 6.76,-2.828 1.81,-1.89 2.71,-4.492 2.71,-7.832 v -1.961 c 3.42,4.293 7.1,7.453 11,9.442 3.91,2.019 8.3,3.031 13.05,3.031 4.96,0 9.21,-1.039 12.79,-3.121 3.59,-2.039 6.53,-5.18 8.82,-9.352 3.34,4.203 6.92,7.371 10.75,9.403 3.82,2.058 8.04,3.07 12.66,3.07 5.44,0 10.09,-1.082 13.98,-3.34 3.92,-2.223 6.84,-5.383 8.78,-9.519 1.7,-3.731 2.53,-9.602 2.53,-17.641 v -40.313 c 0,-4.32 -0.93,-7.597 -2.8,-9.769 -1.92,-2.16 -4.38,-3.258 -7.48,-3.258 -3,0 -5.44,1.098 -7.33,3.328 -1.94,2.153 -2.9,5.391 -2.9,9.699 v 34.743 c 0,4.437 -0.17,7.988 -0.53,10.66 -0.36,2.711 -1.34,4.91 -2.95,6.738 -1.59,1.82 -4.01,2.731 -7.22,2.731 -2.61,0 -5.1,-0.821 -7.41,-2.391 -2.38,-1.641 -4.16,-3.809 -5.48,-6.527 v 0"
         style="fill:#5a5758;fill-opacity:1;fill-rule:nonzero;stroke:none"
         transform="matrix(0.13333333,0,0,-0.13333333,0,844.2)" />
      <path
         id="path183"
         d="m 3043.57,407.91 c -2.91,-1.14 -7.13,-2.281 -12.66,-3.539 -5.53,-1.23 -9.36,-2.133 -11.49,-2.723 -2.13,-0.597 -4.16,-1.718 -6.07,-3.386 -1.95,-1.742 -2.92,-4.082 -2.92,-7.114 0,-3.16 1.15,-5.789 3.4,-7.988 2.28,-2.219 5.26,-3.289 8.93,-3.289 3.91,0 7.54,0.91 10.83,2.688 3.31,1.781 5.76,4.121 7.27,6.921 1.8,3.129 2.71,8.258 2.71,15.489 z m 1.29,-29.91 c -4.8,-3.879 -9.42,-6.781 -13.88,-8.699 -4.45,-1.973 -9.49,-2.93 -15.02,-2.93 -5.1,0 -9.52,1.07 -13.39,3.117 -3.86,2.114 -6.79,4.953 -8.88,8.563 -2.06,3.578 -3.12,7.429 -3.12,11.617 0,5.66 1.76,10.453 5.18,14.453 3.4,3.949 8.1,6.641 14.08,8.008 1.27,0.301 4.4,0.949 9.34,2.012 5.03,1.089 9.25,2.039 12.86,2.918 3.51,0.871 7.39,1.941 11.54,3.191 -0.25,5.469 -1.3,9.461 -3.15,12.059 -1.88,2.519 -5.76,3.769 -11.57,3.769 -5.05,0 -8.81,-0.707 -11.37,-2.18 -2.52,-1.437 -4.71,-3.66 -6.5,-6.617 -1.83,-2.902 -3.08,-4.84 -3.83,-5.761 -0.78,-0.961 -2.38,-1.379 -4.82,-1.379 -2.25,0 -4.16,0.738 -5.75,2.199 -1.64,1.5 -2.44,3.379 -2.44,5.73 0,3.629 1.23,7.18 3.68,10.559 2.47,3.453 6.32,6.262 11.52,8.512 5.22,2.218 11.73,3.328 19.51,3.328 8.67,0 15.52,-1.11 20.53,-3.239 4.96,-2.121 8.44,-5.492 10.51,-10.16 2.07,-4.609 3.08,-10.781 3.08,-18.441 0,-4.828 0,-8.981 -0.03,-12.328 -0.03,-3.403 -0.05,-7.153 -0.1,-11.281 0,-3.872 0.61,-7.93 1.85,-12.122 1.2,-4.207 1.82,-6.937 1.82,-8.117 0,-2.133 -0.97,-4.062 -2.86,-5.801 -1.87,-1.73 -4.06,-2.609 -6.46,-2.609 -2.06,0 -4.02,0.981 -6.03,2.969 -1.98,2 -4.08,4.898 -6.3,8.66"
         style="fill:#5a5758;fill-opacity:1;fill-rule:nonzero;stroke:none"
         transform="matrix(0.13333333,0,0,-0.13333333,0,844.2)" />
      <path
         id="path184"
         d="m 3102.85,438.57 v -59.629 c 0,-4.16 -0.95,-7.281 -2.81,-9.402 -1.88,-2.07 -4.25,-3.168 -7.16,-3.168 -2.89,0 -5.28,1.098 -7.06,3.25 -1.84,2.18 -2.75,5.27 -2.75,9.32 v 59.039 c 0,4.051 0.91,7.129 2.75,9.2 1.78,2.09 4.17,3.121 7.06,3.121 2.91,0 5.28,-1.031 7.16,-3.121 1.86,-2.071 2.81,-4.93 2.81,-8.61 z m -9.78,21.352 c -2.72,0 -5.07,0.879 -7.03,2.676 -1.95,1.761 -2.97,4.281 -2.97,7.511 0,2.911 1.03,5.301 3.04,7.219 1.98,1.902 4.33,2.781 6.96,2.781 2.57,0 4.86,-0.828 6.85,-2.531 1.95,-1.707 2.93,-4.226 2.93,-7.469 0,-3.199 -0.95,-5.679 -2.89,-7.449 -1.94,-1.781 -4.23,-2.738 -6.89,-2.738"
         style="fill:#5a5758;fill-opacity:1;fill-rule:nonzero;stroke:none"
         transform="matrix(0.13333333,0,0,-0.13333333,0,844.2)" />
      <path
         id="path185"
         d="m 3141.28,438.871 v -2.461 c 3.46,4.77 7.26,8.281 11.36,10.52 4.14,2.242 8.89,3.371 14.28,3.371 5.18,0 9.87,-1.172 14,-3.571 4.07,-2.359 7.15,-5.691 9.16,-10 1.32,-2.55 2.14,-5.3 2.55,-8.21 0.36,-2.899 0.59,-6.629 0.59,-11.18 v -38.399 c 0,-4.16 -0.94,-7.281 -2.74,-9.402 -1.81,-2.07 -4.18,-3.168 -7.06,-3.168 -2.94,0 -5.34,1.098 -7.11,3.258 -1.86,2.172 -2.8,5.262 -2.8,9.312 v 34.379 c 0,6.84 -0.88,12.032 -2.68,15.621 -1.85,3.61 -5.47,5.43 -10.88,5.43 -3.52,0 -6.73,-1.101 -9.62,-3.312 -2.89,-2.168 -5.02,-5.188 -6.37,-9.028 -0.97,-3.082 -1.47,-8.801 -1.47,-17.273 v -25.817 c 0,-4.191 -0.91,-7.339 -2.79,-9.453 -1.86,-2.047 -4.27,-3.117 -7.2,-3.117 -2.83,0 -5.19,1.098 -7.02,3.25 -1.86,2.18 -2.76,5.27 -2.76,9.32 v 59.629 c 0,3.961 0.81,6.86 2.48,8.809 1.6,1.941 3.91,2.922 6.74,2.922 1.71,0 3.3,-0.461 4.68,-1.289 1.44,-0.844 2.53,-2.172 3.38,-3.821 0.82,-1.761 1.28,-3.851 1.28,-6.32"
         style="fill:#5a5758;fill-opacity:1;fill-rule:nonzero;stroke:none"
         transform="matrix(0.13333333,0,0,-0.13333333,0,844.2)" />
      <path
         id="path186"
         d="m 3224.96,437.461 15.97,-46.883 17.25,48.922 c 1.38,3.93 2.69,6.691 4.01,8.34 1.34,1.629 3.28,2.461 5.93,2.461 2.51,0 4.64,-0.883 6.45,-2.68 1.72,-1.742 2.61,-3.762 2.61,-6.133 0,-0.886 -0.17,-1.929 -0.49,-3.109 -0.28,-1.238 -0.64,-2.379 -1.07,-3.457 -0.42,-1.024 -0.85,-2.254 -1.42,-3.602 l -18.97,-49.152 c -0.54,-1.387 -1.24,-3.207 -2.06,-5.387 -0.86,-2.14 -1.82,-3.961 -2.83,-5.562 -1.06,-1.52 -2.33,-2.68 -3.83,-3.551 -1.55,-0.859 -3.4,-1.297 -5.58,-1.297 -2.8,0 -5.02,0.668 -6.71,1.988 -1.67,1.34 -2.9,2.789 -3.69,4.411 -0.78,1.558 -2.15,4.718 -4.01,9.398 l -18.86,48.621 c -0.43,1.191 -0.9,2.41 -1.37,3.621 -0.44,1.211 -0.79,2.41 -1.13,3.699 -0.3,1.289 -0.48,2.371 -0.48,3.231 0,1.449 0.41,2.84 1.25,4.219 0.82,1.402 1.97,2.55 3.4,3.41 1.48,0.871 3.01,1.332 4.73,1.332 3.26,0 5.52,-0.981 6.77,-2.981 1.24,-1.949 2.62,-5.238 4.13,-9.859"
         style="fill:#5a5758;fill-opacity:1;fill-rule:nonzero;stroke:none"
         transform="matrix(0.13333333,0,0,-0.13333333,0,844.2)" />
      <path
         id="path187"
         d="m 3305.85,415.039 h 35.85 c -0.45,7.031 -2.26,12.313 -5.45,15.801 -3.18,3.48 -7.35,5.238 -12.52,5.238 -4.9,0 -8.96,-1.777 -12.1,-5.316 -3.17,-3.543 -5.06,-8.793 -5.78,-15.723 z m 38.7,-11.75 h -38.7 c 0.01,-4.711 0.96,-8.828 2.69,-12.43 1.8,-3.55 4.12,-6.25 7.05,-8.089 2.92,-1.829 6.15,-2.711 9.69,-2.711 2.35,0 4.54,0.293 6.46,0.851 1.96,0.61 3.87,1.512 5.73,2.731 1.8,1.238 3.47,2.531 5.03,3.988 1.53,1.41 3.6,3.289 6.02,5.73 1.03,0.95 2.48,1.371 4.35,1.371 2.06,0 3.68,-0.55 4.94,-1.75 1.26,-1.16 1.85,-2.781 1.85,-4.89 0,-1.871 -0.68,-4.051 -2.1,-6.57 -1.38,-2.461 -3.45,-4.872 -6.33,-7.192 -2.84,-2.269 -6.38,-4.148 -10.66,-5.699 -4.25,-1.5 -9.14,-2.258 -14.74,-2.258 -12.69,0 -22.58,3.809 -29.6,11.328 -7.05,7.61 -10.56,17.832 -10.56,30.762 0,6.18 0.9,11.789 2.6,17 1.73,5.23 4.25,9.687 7.59,13.41 3.34,3.75 7.43,6.629 12.32,8.598 4.9,2 10.28,3 16.25,3 7.67,0 14.32,-1.699 19.85,-5.129 5.55,-3.399 9.68,-7.77 12.43,-13.149 2.76,-5.433 4.13,-10.89 4.13,-16.531 0,-5.16 -1.38,-8.519 -4.26,-10.051 -2.87,-1.558 -6.86,-2.32 -12.03,-2.32"
         style="fill:#5a5758;fill-opacity:1;fill-rule:nonzero;stroke:none"
         transform="matrix(0.13333333,0,0,-0.13333333,0,844.2)" />
      <path
         id="path188"
         d="m 3448.47,391.941 c 0,-2.562 -0.73,-5.32 -2.23,-8.242 -1.49,-2.918 -3.69,-5.699 -6.73,-8.347 -3.01,-2.641 -6.85,-4.774 -11.45,-6.372 -4.56,-1.652 -9.75,-2.441 -15.46,-2.441 -12.25,0 -21.79,3.731 -28.64,11.152 -6.84,7.438 -10.29,17.379 -10.29,29.887 0,8.473 1.56,15.981 4.72,22.473 3.15,6.461 7.65,11.527 13.61,15.058 5.92,3.582 13.04,5.36 21.32,5.36 5.11,0 9.79,-0.809 14.1,-2.348 4.26,-1.57 7.86,-3.601 10.87,-6.039 2.96,-2.48 5.21,-5.121 6.8,-7.902 1.56,-2.801 2.35,-5.41 2.35,-7.84 0,-2.442 -0.86,-4.531 -2.69,-6.262 -1.74,-1.719 -3.87,-2.566 -6.38,-2.566 -1.65,0 -3,0.468 -4.07,1.347 -1.11,0.852 -2.32,2.243 -3.69,4.25 -2.41,3.821 -4.92,6.711 -7.56,8.661 -2.63,1.902 -5.97,2.878 -10.05,2.878 -5.81,0 -10.53,-2.418 -14.1,-7.168 -3.6,-4.8 -5.38,-11.3 -5.38,-19.57 0,-3.859 0.49,-7.469 1.37,-10.711 0.93,-3.258 2.26,-6.019 4.01,-8.328 1.73,-2.293 3.85,-4.019 6.31,-5.199 2.42,-1.211 5.14,-1.793 8.11,-1.793 3.95,0 7.36,0.941 10.18,2.859 2.81,1.942 5.33,4.871 7.51,8.75 1.21,2.383 2.49,4.172 3.91,5.5 1.38,1.321 3.08,1.942 5.14,1.942 2.39,0 4.43,-0.93 5.96,-2.852 1.63,-1.949 2.45,-3.969 2.45,-6.137"
         style="fill:#5a5758;fill-opacity:1;fill-rule:nonzero;stroke:none"
         transform="matrix(0.13333333,0,0,-0.13333333,0,844.2)" />
      <path
         id="path189"
         d="m 3466.83,448.559 h 2.18 v 12.41 c 0,3.301 0.09,5.941 0.26,7.82 0.17,1.891 0.61,3.481 1.42,4.871 0.75,1.391 1.86,2.551 3.34,3.449 1.43,0.86 3.05,1.282 4.83,1.282 2.5,0 4.79,-0.969 6.8,-2.922 1.33,-1.328 2.21,-2.91 2.57,-4.789 0.37,-1.891 0.53,-4.61 0.53,-8.082 v -14.039 h 7.27 c 2.8,0 4.95,-0.7 6.42,-2.09 1.5,-1.391 2.21,-3.137 2.21,-5.321 0,-2.769 -1.04,-4.738 -3.17,-5.828 -2.09,-1.09 -5.1,-1.648 -9.01,-1.648 h -3.72 v -38.024 c 0,-3.226 0.12,-5.718 0.33,-7.48 0.25,-1.75 0.87,-3.156 1.78,-4.219 0.91,-1.078 2.46,-1.648 4.59,-1.648 1.16,0 2.72,0.211 4.72,0.66 1.93,0.418 3.49,0.629 4.62,0.629 1.58,0 3.07,-0.692 4.33,-1.961 1.25,-1.379 1.9,-3 1.9,-4.981 0,-3.308 -1.7,-5.859 -5.2,-7.628 -3.52,-1.77 -8.5,-2.649 -15,-2.649 -6.19,0 -10.88,1.098 -14.07,3.258 -3.17,2.172 -5.29,5.152 -6.25,9.031 -1.01,3.828 -1.5,8.93 -1.5,15.34 v 39.672 h -2.63 c -2.8,0 -4.98,0.699 -6.49,2.129 -1.51,1.398 -2.24,3.168 -2.24,5.347 0,2.184 0.77,3.93 2.33,5.321 1.59,1.39 3.85,2.09 6.85,2.09"
         style="fill:#5a5758;fill-opacity:1;fill-rule:nonzero;stroke:none"
         transform="matrix(0.13333333,0,0,-0.13333333,0,844.2)" />
      <path
         id="path190"
         d="m 3572.44,408.301 c 0,8.39 -1.8,14.961 -5.33,19.648 -3.58,4.649 -8.31,7.031 -14.31,7.031 -3.88,0 -7.28,-1.062 -10.21,-3.152 -2.97,-2.117 -5.23,-5.199 -6.81,-9.277 -1.6,-4.051 -2.41,-8.781 -2.41,-14.25 0,-5.403 0.81,-10.102 2.38,-14.121 1.56,-4.039 3.8,-7.121 6.72,-9.27 2.91,-2.14 6.35,-3.191 10.33,-3.191 6,0 10.73,2.34 14.31,7.051 3.53,4.691 5.33,11.23 5.33,19.531 z m 19.85,0 c 0,-6.121 -0.91,-11.801 -2.77,-17.02 -1.82,-5.152 -4.5,-9.621 -7.95,-13.359 -3.49,-3.742 -7.65,-6.543 -12.46,-8.582 -4.85,-1.988 -10.25,-2.969 -16.31,-2.969 -6.02,0 -11.41,0.981 -16.17,3.027 -4.77,2 -8.93,4.891 -12.43,8.653 -3.48,3.769 -6.15,8.168 -7.94,13.277 -1.8,5.16 -2.69,10.781 -2.69,17.012 0,6.25 0.89,11.961 2.69,17.129 1.88,5.222 4.48,9.621 7.91,13.34 3.45,3.671 7.59,6.5 12.46,8.48 4.93,2 10.3,3.012 16.17,3.012 6,0 11.4,-1.012 16.31,-3.043 4.87,-1.996 9.03,-4.899 12.52,-8.629 3.44,-3.719 6.14,-8.18 7.95,-13.328 1.8,-5.133 2.71,-10.801 2.71,-17"
         style="fill:#5a5758;fill-opacity:1;fill-rule:nonzero;stroke:none"
         transform="matrix(0.13333333,0,0,-0.13333333,0,844.2)" />
      <path
         id="path191"
         d="m 3627.52,396.129 v -17.188 c 0,-4.191 -0.94,-7.339 -2.83,-9.453 -1.89,-2.047 -4.27,-3.117 -7.19,-3.117 -2.82,0 -5.19,1.098 -7.01,3.168 -1.83,2.121 -2.73,5.242 -2.73,9.402 v 57.45 c 0,9.289 3.19,13.91 9.62,13.91 3.25,0 5.63,-1.102 7.11,-3.242 1.42,-2.168 2.18,-5.379 2.38,-9.598 2.35,4.219 4.8,7.43 7.3,9.598 2.49,2.14 5.79,3.242 9.92,3.242 4.19,0 8.2,-1.102 12.14,-3.242 3.88,-2.168 5.86,-5.059 5.86,-8.629 0,-2.52 -0.85,-4.621 -2.51,-6.239 -1.66,-1.632 -3.46,-2.48 -5.41,-2.48 -0.72,0 -2.48,0.48 -5.25,1.437 -2.79,0.922 -5.24,1.403 -7.38,1.403 -2.87,0 -5.24,-0.781 -7.05,-2.403 -1.85,-1.609 -3.28,-3.929 -4.29,-7.046 -1.02,-3.161 -1.75,-6.864 -2.11,-11.204 -0.37,-4.277 -0.57,-9.519 -0.57,-15.769"
         style="fill:#5a5758;fill-opacity:1;fill-rule:nonzero;stroke:none"
         transform="matrix(0.13333333,0,0,-0.13333333,0,844.2)" />
      <path
         id="path192"
         d="m 3732.88,393.352 c 0,-5.723 -1.33,-10.582 -4.02,-14.641 -2.66,-4.07 -6.58,-7.109 -11.78,-9.231 -5.21,-2.039 -11.5,-3.109 -18.98,-3.109 -7.04,0 -13.16,1.141 -18.25,3.418 -5.07,2.27 -8.82,5.082 -11.21,8.481 -2.44,3.39 -3.68,6.8 -3.68,10.21 0,2.27 0.79,4.219 2.37,5.829 1.53,1.64 3.5,2.421 5.84,2.421 2.09,0 3.7,-0.539 4.8,-1.57 1.12,-1.121 2.15,-2.582 3.2,-4.492 2.02,-3.688 4.43,-6.438 7.3,-8.246 2.78,-1.844 6.64,-2.742 11.56,-2.742 3.94,0 7.19,0.929 9.74,2.781 2.52,1.828 3.83,3.93 3.83,6.309 0,3.652 -1.34,6.3 -3.95,7.949 -2.67,1.691 -6.98,3.281 -13.02,4.781 -6.81,1.77 -12.37,3.621 -16.64,5.551 -4.28,1.949 -7.74,4.527 -10.28,7.699 -2.56,3.129 -3.86,7.059 -3.86,11.699 0,4.16 1.2,8.071 3.57,11.719 2.35,3.691 5.89,6.621 10.49,8.82 4.61,2.211 10.16,3.313 16.72,3.313 5.09,0 9.69,-0.571 13.79,-1.672 4.08,-1.098 7.53,-2.609 10.22,-4.449 2.72,-1.879 4.82,-3.942 6.24,-6.2 1.45,-2.289 2.15,-4.511 2.15,-6.66 0,-2.379 -0.74,-4.269 -2.3,-5.851 -1.53,-1.449 -3.71,-2.219 -6.46,-2.219 -2.06,0 -3.78,0.59 -5.23,1.828 -1.39,1.203 -3.05,2.992 -4.87,5.391 -1.5,2.019 -3.25,3.652 -5.3,4.851 -2.03,1.192 -4.79,1.821 -8.24,1.821 -3.59,0 -6.59,-0.793 -8.91,-2.403 -2.38,-1.57 -3.57,-3.558 -3.57,-5.929 0,-2.18 0.87,-3.95 2.58,-5.34 1.77,-1.379 4.1,-2.539 7.05,-3.438 2.97,-0.91 7.02,-2.051 12.19,-3.34 6.14,-1.562 11.14,-3.41 15.04,-5.589 3.89,-2.153 6.83,-4.723 8.83,-7.672 2.04,-2.969 3.04,-6.328 3.04,-10.078"
         style="fill:#5a5758;fill-opacity:1;fill-rule:nonzero;stroke:none"
         transform="matrix(0.13333333,0,0,-0.13333333,0,844.2)" />
      <path
         id="path193"
         d="m 3755.34,366.371 c -3,0 -5.59,0.981 -7.74,3.027 -2.2,2 -3.28,4.84 -3.28,8.442 0,3.07 1.02,5.719 3.08,7.949 2.08,2.199 4.66,3.289 7.7,3.289 3.03,0 5.64,-1.09 7.74,-3.277 2.17,-2.16 3.26,-4.86 3.26,-7.961 0,-3.57 -1.09,-6.379 -3.26,-8.41 -2.1,-2.039 -4.61,-3.059 -7.5,-3.059"
         style="fill:#5a5758;fill-opacity:1;fill-rule:nonzero;stroke:none"
         transform="matrix(0.13333333,0,0,-0.13333333,0,844.2)" />
      <path
         id="path194"
         d="m 3842.8,408.301 c 0,8.39 -1.79,14.961 -5.33,19.648 -3.56,4.649 -8.31,7.031 -14.29,7.031 -3.88,0 -7.25,-1.062 -10.21,-3.152 -2.96,-2.117 -5.22,-5.199 -6.8,-9.277 -1.58,-4.051 -2.39,-8.781 -2.39,-14.25 0,-5.403 0.77,-10.102 2.33,-14.121 1.61,-4.039 3.84,-7.121 6.77,-9.27 2.91,-2.14 6.33,-3.191 10.3,-3.191 5.98,0 10.73,2.34 14.29,7.051 3.54,4.691 5.33,11.23 5.33,19.531 z m 19.87,0 c 0,-6.121 -0.91,-11.801 -2.77,-17.02 -1.85,-5.152 -4.48,-9.621 -7.96,-13.359 -3.51,-3.742 -7.61,-6.543 -12.46,-8.582 -4.82,-1.988 -10.25,-2.969 -16.3,-2.969 -5.99,0 -11.37,0.981 -16.15,3.027 -4.79,2 -8.91,4.891 -12.41,8.653 -3.55,3.769 -6.19,8.168 -8.02,13.277 -1.77,5.16 -2.68,10.781 -2.68,17.012 0,6.25 0.91,11.961 2.75,17.129 1.87,5.222 4.46,9.621 7.88,13.34 3.42,3.671 7.58,6.5 12.48,8.48 4.87,2 10.22,3.012 16.15,3.012 5.98,0 11.41,-1.012 16.3,-3.043 4.9,-1.996 9.06,-4.899 12.55,-8.629 3.45,-3.719 6.09,-8.18 7.93,-13.328 1.8,-5.133 2.71,-10.801 2.71,-17"
         style="fill:#5a5758;fill-opacity:1;fill-rule:nonzero;stroke:none"
         transform="matrix(0.13333333,0,0,-0.13333333,0,844.2)" />
      <path
         id="path195"
         d="m 3897.9,396.129 v -17.188 c 0,-4.191 -0.94,-7.339 -2.83,-9.453 -1.85,-2.047 -4.27,-3.117 -7.15,-3.117 -2.89,0 -5.2,1.098 -7.05,3.168 -1.85,2.121 -2.76,5.242 -2.76,9.402 v 57.45 c 0,9.289 3.25,13.91 9.65,13.91 3.29,0 5.63,-1.102 7.08,-3.242 1.42,-2.168 2.27,-5.379 2.44,-9.598 2.32,4.219 4.75,7.43 7.24,9.598 2.49,2.14 5.82,3.242 9.94,3.242 4.22,0 8.25,-1.102 12.12,-3.242 3.91,-2.168 5.89,-5.059 5.89,-8.629 0,-2.52 -0.84,-4.621 -2.49,-6.239 -1.69,-1.632 -3.46,-2.48 -5.43,-2.48 -0.71,0 -2.45,0.48 -5.22,1.437 -2.79,0.922 -5.24,1.403 -7.39,1.403 -2.88,0 -5.23,-0.781 -7.11,-2.403 -1.81,-1.609 -3.24,-3.929 -4.27,-7.046 -0.98,-3.161 -1.7,-6.864 -2.07,-11.204 -0.39,-4.277 -0.59,-9.519 -0.59,-15.769"
         style="fill:#5a5758;fill-opacity:1;fill-rule:nonzero;stroke:none"
         transform="matrix(0.13333333,0,0,-0.13333333,0,844.2)" />
      <path
         id="path196"
         d="m 3955,409.012 c 0,-8.352 1.76,-14.692 5.28,-18.992 3.47,-4.258 8.04,-6.43 13.55,-6.43 3.26,0 6.41,0.961 9.32,2.789 2.93,1.851 5.3,4.609 7.15,8.32 1.85,3.711 2.74,8.199 2.74,13.481 0,8.422 -1.79,14.961 -5.33,19.64 -3.54,4.731 -8.21,7.09 -14,7.09 -5.64,0 -10.18,-2.312 -13.57,-6.762 -3.43,-4.5 -5.14,-10.867 -5.14,-19.136 z m 57.34,26.179 v -59.992 c 0,-6.867 -0.75,-12.758 -2.12,-17.668 -1.41,-4.972 -3.65,-9.062 -6.74,-12.281 -3.08,-3.211 -7.16,-5.609 -12.12,-7.172 -5.01,-1.527 -11.24,-2.316 -18.66,-2.316 -6.83,0 -12.93,0.957 -18.26,2.949 -5.37,2.039 -9.51,4.578 -12.4,7.75 -2.89,3.121 -4.36,6.367 -4.36,9.719 0,2.519 0.8,4.558 2.49,6.14 1.62,1.629 3.6,2.41 5.92,2.41 2.91,0 5.41,-1.339 7.63,-4 1.06,-1.41 2.17,-2.761 3.28,-4.128 1.13,-1.403 2.39,-2.614 3.76,-3.571 1.38,-1.011 3.06,-1.722 4.99,-2.211 1.89,-0.48 4.15,-0.73 6.67,-0.73 5.08,0 9.1,0.769 11.9,2.238 2.83,1.481 4.82,3.563 5.97,6.231 1.08,2.679 1.8,5.519 1.92,8.582 0.24,3.097 0.37,7.949 0.51,14.738 -3.05,-4.418 -6.61,-7.809 -10.56,-10.129 -3.98,-2.32 -8.75,-3.449 -14.21,-3.449 -6.68,0 -12.46,1.73 -17.38,5.277 -4.97,3.531 -8.78,8.453 -11.42,14.82 -2.63,6.332 -3.99,13.672 -3.99,22 0,6.231 0.79,11.832 2.44,16.821 1.58,4.972 3.88,9.191 6.93,12.621 2.96,3.43 6.43,6.019 10.34,7.758 3.93,1.722 8.18,2.613 12.91,2.613 5.57,0 10.43,-1.141 14.53,-3.402 4.16,-2.2 7.93,-5.77 11.46,-10.528 v 2.77 c 0,3.597 0.88,6.347 2.54,8.379 1.68,1.929 3.87,2.929 6.52,2.929 3.83,0 6.35,-1.289 7.62,-3.89 1.24,-2.61 1.89,-6.379 1.89,-11.278"
         style="fill:#5a5758;fill-opacity:1;fill-rule:nonzero;stroke:none"
         transform="matrix(0.13333333,0,0,-0.13333333,0,844.2)" />
      <path
         id="path197"
         d="m 3155.07,636.191 h 29.34 c -2.07,-15.812 -8.56,-28.16 -19.34,-37.043 -9.97,-8.699 -22.05,-13 -36.16,-13 -19.16,0 -34.45,6.743 -45.87,20.161 -10.82,12.781 -16.22,29.281 -16.22,49.429 0,20.653 5.36,37.16 16.07,49.672 10.69,12.442 25.82,18.699 45.37,18.699 14.54,0 26.84,-3.941 36.81,-11.738 10.59,-8.441 17.05,-20.289 19.34,-35.473 h -29.34 c -2.54,13.243 -10.61,19.832 -24.37,19.832 -22.68,0 -34.03,-13.429 -34.03,-40.312 0,-12.598 2.91,-22.867 8.75,-30.887 5.83,-8.031 14.05,-12.062 24.65,-12.062 15.81,0 24.15,7.59 25,22.722 z m -115.49,18.508 c 0,-26.258 8.34,-48.48 24.96,-66.59 16.65,-18.097 37.02,-27.168 61.2,-27.168 24.07,0 44.46,9.071 61.08,27.168 16.67,18.11 24.94,40.332 24.94,66.59 0,26.242 -8.27,48.449 -24.94,66.571 -16.62,18.14 -37.01,27.179 -61.08,27.179 -24.18,0 -44.55,-9.039 -61.2,-27.179 -16.62,-18.122 -24.96,-40.329 -24.96,-66.571 z m -29.79,0 c 0,33.41 11.3,61.93 33.93,85.621 22.65,23.649 50,35.481 82.02,35.481 31.94,0 59.25,-11.832 81.92,-35.481 22.65,-23.691 33.99,-52.211 33.99,-85.621 0,-33.429 -11.34,-61.988 -33.99,-85.629 -22.67,-23.672 -49.98,-35.511 -81.92,-35.511 -32.02,0 -59.37,11.839 -82.02,35.511 -22.63,23.641 -33.93,52.2 -33.93,85.629"
         style="fill:#5a5758;fill-opacity:1;fill-rule:nonzero;stroke:none"
         transform="matrix(0.13333333,0,0,-0.13333333,0,844.2)" />
      <path
         id="path198"
         d="m 3056.69,578.762 16.92,-14.352 124.33,159.668 -16.9,14.32 -124.35,-159.636"
         style="fill:#5a5758;fill-opacity:1;fill-rule:nonzero;stroke:none"
         transform="matrix(0.13333333,0,0,-0.13333333,0,844.2)" />
    </g>
  </g>
</svg>
