<?xml version="1.0" encoding="UTF-8" standalone="no"?>
<!-- Created with Inkscape (http://www.inkscape.org/) -->

<svg
   version="1.1"
   id="svg1"
   width="440.02667"
   height="844.91998"
   viewBox="0 0 440.02667 844.91998"
   sodipodi:docname="question-mark-color-publicdomainvectors.org.svg"
   inkscape:version="1.3.2 (091e20ef0f, 2023-11-25, custom)"
   xmlns:inkscape="http://www.inkscape.org/namespaces/inkscape"
   xmlns:sodipodi="http://sodipodi.sourceforge.net/DTD/sodipodi-0.dtd"
   xmlns="http://www.w3.org/2000/svg"
   xmlns:svg="http://www.w3.org/2000/svg">
  <defs
     id="defs1" />
  <sodipodi:namedview
     id="namedview1"
     pagecolor="#505050"
     bordercolor="#ffffff"
     borderopacity="1"
     inkscape:showpageshadow="0"
     inkscape:pageopacity="0"
     inkscape:pagecheckerboard="1"
     inkscape:deskcolor="#d1d1d1"
     inkscape:zoom="0.91606307"
     inkscape:cx="219.96302"
     inkscape:cy="422.45999"
     inkscape:window-width="1920"
     inkscape:window-height="1002"
     inkscape:window-x="0"
     inkscape:window-y="0"
     inkscape:window-maximized="1"
     inkscape:current-layer="g1">
    <inkscape:page
       x="0"
       y="0"
       inkscape:label="1"
       id="page1"
       width="440.02667"
       height="844.91998"
       margin="0"
       bleed="0" />
  </sodipodi:namedview>
  <g
     id="g1"
     inkscape:groupmode="layer"
     inkscape:label="1">
    <g
       id="group-R5">
      <path
         id="path2"
         d="m 265.77,-0.03125 c -4.411,0 -7.379,1.44141 -8.821,4.23047 -1.437,2.79297 -2.16,6.92968 -2.16,12.33208 V 123.539 c 0,4.68 0.902,8.191 2.883,10.531 1.976,2.34 4.68,3.512 8.098,3.512 3.421,0 6.121,-1.172 8.281,-3.602 2.07,-2.429 3.148,-5.851 3.148,-10.351 v -2.969 c 4.41,5.762 9.09,9.988 13.86,12.692 4.863,2.699 10.351,4.046 16.472,4.046 7.289,0 13.949,-1.976 20.16,-5.937 6.118,-3.871 10.981,-9.629 14.579,-17.191 3.511,-7.649 5.308,-16.5591 5.308,-26.9106 0,-7.6485 -0.988,-14.668 -3.058,-20.9688 -2.071,-6.3906 -4.86,-11.789 -8.461,-16.1093 -3.598,-4.3204 -7.918,-7.7422 -12.778,-9.9922 -4.953,-2.3399 -10.172,-3.5078 -15.75,-3.5078 -6.84,0 -12.601,1.3476 -17.191,4.2304 -4.59,2.8789 -9,7.0196 -13.141,12.5078 V 16.3516 c 0,-10.89066 -3.777,-16.38285 -11.429,-16.38285 M 301.59,119.039 c -6.481,0 -12.059,-2.789 -16.559,-8.098 -4.5,-5.492 -6.75,-13.3199 -6.75,-23.8512 0,-9.8085 2.25,-17.5507 6.75,-22.9492 4.41,-5.4922 9.989,-8.2812 16.559,-8.2812 3.961,0 7.648,1.1719 11.07,3.6914 3.328,2.3398 6.031,5.9414 8.012,10.7109 2.066,4.7696 3.058,10.5274 3.058,17.2774 0,6.5703 -0.902,12.2422 -2.878,16.8319 -1.891,4.77 -4.5,8.367 -7.922,10.891 -3.418,2.519 -7.2,3.777 -11.34,3.777"
         style="fill:#918f8f;fill-opacity:1;fill-rule:nonzero;stroke:none"
         transform="matrix(0.13333333,0,0,-0.13333333,0,844.92)" />
      <path
         id="path3"
         d="m 439.559,36.7813 c -3.239,0 -5.938,1.2578 -8.008,3.6875 -2.16,2.4335 -3.153,5.8515 -3.153,10.3515 v 3.0586 c -2.878,-3.6875 -5.847,-6.8398 -9,-9.3594 -3.148,-2.6093 -6.57,-4.5 -10.257,-5.6679 -3.782,-1.2618 -8.012,-1.8907 -12.692,-1.8907 -5.758,0 -10.89,1.2579 -15.48,3.6875 -4.59,2.5235 -8.098,5.9414 -10.528,10.2618 -2.972,5.3086 -4.5,12.8711 -4.5,22.6796 V 122.73 c 0,4.95 1.079,8.641 3.239,11.071 2.16,2.429 4.949,3.691 8.55,3.691 3.598,0 6.481,-1.262 8.731,-3.691 2.16,-2.52 3.238,-6.211 3.238,-11.071 V 83.0391 c 0,-5.7578 0.449,-10.5274 1.352,-14.3985 0.988,-3.9609 2.609,-7.0195 5.129,-9.2695 2.34,-2.1602 5.582,-3.2422 9.718,-3.2422 4.051,0 7.832,1.2617 11.25,3.6914 3.602,2.4297 6.211,5.6719 7.832,9.7188 1.348,3.5117 1.981,11.1601 1.981,23.0429 v 30.148 c 0,4.86 1.078,8.551 3.328,11.071 2.16,2.429 5.039,3.691 8.551,3.691 3.601,0 6.39,-1.262 8.551,-3.691 2.16,-2.43 3.148,-6.121 3.148,-11.071 V 50.9102 c 0,-4.6797 -0.988,-8.2813 -3.059,-10.6211 -1.98,-2.3399 -4.679,-3.5078 -7.921,-3.5078"
         style="fill:#918f8f;fill-opacity:1;fill-rule:nonzero;stroke:none"
         transform="matrix(0.13333333,0,0,-0.13333333,0,844.92)" />
      <path
         id="path4"
         d="m 526.77,36.7813 c -3.692,0 -7.11,0.4492 -10.348,1.3476 -3.242,0.9024 -5.942,2.0703 -8.192,3.6016 -2.339,1.4414 -4.23,2.9687 -5.851,4.5 -1.527,1.6211 -3.688,3.9609 -6.301,7.1093 v -2.4296 c 0,-4.6797 -1.078,-8.1914 -3.238,-10.6211 -2.07,-2.3399 -4.86,-3.5078 -8.102,-3.5078 -3.418,0 -6.027,1.1679 -8.097,3.5078 -1.981,2.5195 -2.969,5.9414 -2.969,10.6211 V 159.18 c 0,4.949 0.988,8.73 2.879,11.34 1.98,2.609 4.679,3.871 8.187,3.871 3.602,0 6.481,-1.262 8.371,-3.692 1.981,-2.429 2.969,-5.937 2.969,-10.437 v -37.891 c 4.41,4.859 9,8.551 13.684,11.16 4.59,2.61 10.437,3.867 17.277,3.867 7.832,0 14.762,-1.976 20.699,-5.847 5.942,-3.961 10.621,-9.539 13.864,-17.012 3.238,-7.379 4.859,-16.1992 4.859,-26.3671 0,-7.4727 -0.902,-14.4024 -2.699,-20.7031 -1.801,-6.2071 -4.5,-11.6094 -7.922,-16.2891 -3.512,-4.5899 -7.738,-8.0977 -12.692,-10.7109 -4.949,-2.4297 -10.437,-3.6875 -16.378,-3.6875 m -6.032,82.2577 c -4.59,0 -8.547,-1.348 -12.058,-3.867 -3.602,-2.613 -6.391,-6.301 -8.371,-11.16 -2.071,-4.8597 -3.059,-10.7112 -3.059,-17.4612 0,-9.8086 2.16,-17.3711 6.48,-22.6797 4.321,-5.3125 9.989,-8.0117 17.008,-8.0117 5.942,0 11.071,2.789 15.481,8.1914 4.32,5.3984 6.48,13.1406 6.48,23.2187 0,6.5703 -0.898,12.2422 -2.699,16.9215 -1.801,4.77 -4.41,8.368 -7.648,10.981 -3.332,2.519 -7.204,3.867 -11.614,3.867"
         style="fill:#918f8f;fill-opacity:1;fill-rule:nonzero;stroke:none"
         transform="matrix(0.13333333,0,0,-0.13333333,0,844.92)" />
      <path
         id="path5"
         d="m 594.988,36.7813 c -3.508,0 -6.297,1.2578 -8.457,3.8671 -2.16,2.6133 -3.242,6.3008 -3.242,11.1641 V 159.359 c 0,4.954 0.992,8.641 3.152,11.25 2.071,2.52 4.95,3.782 8.547,3.782 3.602,0 6.481,-1.262 8.731,-3.782 2.16,-2.519 3.242,-6.296 3.242,-11.25 V 51.8125 c 0,-4.9531 -1.082,-8.8203 -3.332,-11.3437 -2.25,-2.4297 -5.129,-3.6875 -8.641,-3.6875"
         style="fill:#918f8f;fill-opacity:1;fill-rule:nonzero;stroke:none"
         transform="matrix(0.13333333,0,0,-0.13333333,0,844.92)" />
      <path
         id="path6"
         d="m 643.32,36.7813 c -3.511,0 -6.39,1.2578 -8.55,3.8671 -2.161,2.6133 -3.239,6.3008 -3.239,11.1641 V 122.73 c 0,4.86 1.078,8.551 3.239,11.071 2.16,2.429 5.039,3.691 8.55,3.691 3.418,0 6.301,-1.262 8.551,-3.691 2.25,-2.52 3.418,-5.942 3.418,-10.352 V 51.8125 c 0,-4.9531 -1.168,-8.7305 -3.418,-11.25 -2.25,-2.5234 -5.133,-3.7812 -8.551,-3.7812 m 0.18,112.3207 c -3.238,0 -6.121,0.988 -8.461,3.148 -2.34,2.16 -3.508,5.219 -3.508,9 0,3.512 1.168,6.391 3.598,8.73 2.43,2.25 5.223,3.329 8.371,3.329 3.059,0 5.852,-0.989 8.191,-3.059 2.34,-2.07 3.598,-5.039 3.598,-9 0,-3.781 -1.168,-6.75 -3.508,-8.91 -2.34,-2.16 -5.043,-3.238 -8.281,-3.238"
         style="fill:#918f8f;fill-opacity:1;fill-rule:nonzero;stroke:none"
         transform="matrix(0.13333333,0,0,-0.13333333,0,844.92)" />
      <path
         id="path7"
         d="m 721.801,36.9609 c -14.672,0 -26.102,4.5 -34.379,13.4102 -8.192,8.9102 -12.332,20.8789 -12.332,35.9102 0,10.0781 1.89,19.1677 5.672,26.9097 3.777,7.739 9.269,13.86 16.289,18.09 7.199,4.321 15.66,6.391 25.558,6.391 6.211,0 11.879,-0.902 17.012,-2.793 5.129,-1.887 9.449,-4.316 13.051,-7.199 3.508,-2.969 6.207,-6.211 8.187,-9.539 1.891,-3.332 2.789,-6.481 2.789,-9.36 0,-2.972 -1.078,-5.492 -3.148,-7.562 -2.16,-2.0667 -4.68,-3.0588 -7.738,-3.0588 -1.981,0 -3.602,0.539 -4.953,1.6211 -1.258,0.9887 -2.7,2.6987 -4.321,5.1287 -2.968,4.5 -5.937,8.012 -9.09,10.352 -3.238,2.25 -7.199,3.508 -12.058,3.508 -7.02,0 -12.692,-2.969 -17.012,-8.641 -4.226,-5.758 -6.387,-13.5899 -6.387,-23.4884 0,-4.6797 0.539,-9 1.618,-12.8711 1.082,-3.9609 2.703,-7.1992 4.769,-9.9882 2.16,-2.7891 4.594,-4.8594 7.652,-6.3008 2.879,-1.4414 6.122,-2.0703 9.629,-2.0703 4.86,0 8.911,1.0781 12.243,3.4218 3.418,2.3399 6.476,5.8477 9,10.5274 1.527,2.7929 3.058,4.9531 4.769,6.5703 1.707,1.5312 3.688,2.3398 6.117,2.3398 2.973,0 5.313,-1.1679 7.293,-3.4179 1.891,-2.3399 2.789,-4.7696 2.789,-7.3828 0,-3.0586 -0.808,-6.3868 -2.609,-9.8985 -1.801,-3.5117 -4.5,-6.8398 -8.102,-9.9883 -3.597,-3.2422 -8.187,-5.7617 -13.679,-7.6523 -5.489,-1.9805 -11.7,-2.9688 -18.629,-2.9688"
         style="fill:#918f8f;fill-opacity:1;fill-rule:nonzero;stroke:none"
         transform="matrix(0.13333333,0,0,-0.13333333,0,844.92)" />
      <path
         id="path8"
         d="m 861.84,36.7813 c -3.149,0 -5.942,1.1679 -8.012,3.6875 -2.156,2.4335 -3.148,5.8515 -3.148,10.4414 v 2.4296 c -3.239,-3.7812 -6.391,-6.9296 -9.45,-9.2695 -3.058,-2.4297 -6.48,-4.2305 -10.082,-5.4883 -3.597,-1.1718 -7.648,-1.8007 -11.878,-1.8007 -5.668,0 -10.981,1.2578 -15.75,3.6875 -4.86,2.6132 -9.09,6.2109 -12.598,10.8007 -3.512,4.6797 -6.211,10.1719 -8.102,16.4688 -1.8,6.3008 -2.699,13.0508 -2.699,20.4336 0,15.4761 3.598,27.6291 10.891,36.2691 7.289,8.641 16.738,12.957 28.617,12.957 6.84,0 12.601,-1.257 17.281,-3.777 4.68,-2.34 9.27,-6.121 13.77,-11.25 V 159 c 0,5.039 0.898,8.91 2.879,11.52 1.98,2.609 4.679,3.871 8.281,3.871 3.601,0 6.39,-1.172 8.371,-3.602 1.891,-2.34 2.879,-5.848 2.879,-10.527 V 50.9102 c 0,-4.6797 -0.988,-8.2813 -3.149,-10.6211 -2.07,-2.3399 -4.769,-3.5078 -8.101,-3.5078 m -35.461,82.2577 c -4.32,0 -8.188,-1.348 -11.609,-3.867 -3.418,-2.613 -6.122,-6.301 -7.918,-11.07 -1.891,-4.8598 -2.883,-10.4418 -2.883,-16.8325 0,-6.6601 0.992,-12.4179 2.972,-17.0976 2.071,-4.7696 4.77,-8.2813 8.188,-10.6211 3.512,-2.5195 7.293,-3.6914 11.43,-3.6914 4.14,0 8.011,1.1719 11.429,3.4219 3.422,2.25 6.211,5.7578 8.282,10.4375 2.07,4.6796 3.058,10.5312 3.058,17.5507 0,6.6602 -0.988,12.3321 -3.058,17.1015 -2.071,4.77 -4.86,8.367 -8.372,10.891 -3.507,2.519 -7.289,3.777 -11.519,3.777"
         style="fill:#918f8f;fill-opacity:1;fill-rule:nonzero;stroke:none"
         transform="matrix(0.13333333,0,0,-0.13333333,0,844.92)" />
      <path
         id="path9"
         d="m 938.43,36.7813 c -7.2,0 -13.68,1.1679 -19.442,3.5976 -5.668,2.4297 -10.707,5.8516 -14.937,10.4414 -4.141,4.5 -7.289,9.8086 -9.539,15.9297 -2.16,6.1211 -3.242,12.8711 -3.242,20.3398 0,7.5625 1.082,14.3982 3.332,20.6092 2.16,6.301 5.308,11.52 9.449,16.02 4.14,4.41 9.09,7.832 14.937,10.172 5.942,2.429 12.332,3.601 19.442,3.601 7.199,0 13.769,-1.172 19.531,-3.601 5.848,-2.43 10.891,-5.942 15.117,-10.352 4.141,-4.5 7.293,-9.809 9.453,-16.019 2.25,-6.211 3.328,-12.9614 3.328,-20.4302 0,-7.3789 -1.168,-14.1289 -3.328,-20.4296 -2.25,-6.211 -5.402,-11.5196 -9.543,-16.0196 -4.226,-4.5 -9.179,-7.832 -15.027,-10.3515 -5.762,-2.3399 -12.332,-3.5078 -19.531,-3.5078 m 0,82.3477 c -4.68,0 -8.731,-1.258 -12.328,-3.777 -3.512,-2.52 -6.211,-6.211 -8.102,-11.161 -1.98,-4.859 -2.879,-10.5308 -2.879,-17.1012 0,-6.4804 0.899,-12.1484 2.789,-16.9179 1.891,-4.8633 4.59,-8.5508 8.102,-11.1602 3.508,-2.5234 7.648,-3.8711 12.418,-3.8711 7.199,0 12.871,2.8789 17.191,8.5508 4.231,5.5781 6.391,13.4102 6.391,23.3984 0,10.0821 -2.16,18.0002 -6.391,23.5822 -4.32,5.578 -9.992,8.457 -17.191,8.457"
         style="fill:#918f8f;fill-opacity:1;fill-rule:nonzero;stroke:none"
         transform="matrix(0.13333333,0,0,-0.13333333,0,844.92)" />
      <path
         id="path10"
         d="m 1126.71,36.7813 c -3.6,0 -6.48,1.2578 -8.82,3.9609 -2.25,2.6094 -3.42,6.4766 -3.42,11.6992 v 41.668 c 0,5.3125 -0.27,9.5386 -0.63,12.7816 -0.45,3.238 -1.62,5.941 -3.6,8.101 -1.89,2.16 -4.77,3.328 -8.64,3.328 -3.15,0 -6.12,-0.988 -8.91,-2.879 -2.88,-1.98 -4.95,-4.589 -6.57,-7.921 -1.8,-4.141 -2.61,-11.52 -2.61,-22.1411 V 52.4414 c 0,-5.2226 -1.17,-9.1797 -3.42,-11.793 -2.25,-2.6093 -5.22,-3.8671 -9,-3.8671 -3.51,0 -6.48,1.2578 -8.64,3.8671 -2.25,2.6133 -3.33,6.5704 -3.33,11.793 v 39.5078 c 0,6.211 -0.27,10.9808 -0.63,14.4918 -0.45,3.418 -1.53,6.297 -3.33,8.551 -1.8,2.16 -4.68,3.328 -8.55,3.328 -7.74,0 -12.78,-2.789 -15.3,-8.461 -2.52,-5.488 -3.69,-13.4996 -3.69,-23.9371 V 52.4414 c 0,-5.2226 -1.17,-9.0898 -3.33,-11.6992 -2.25,-2.7031 -5.22,-3.9609 -8.82,-3.9609 -3.6,0 -6.57,1.2578 -8.82,3.9609 -2.34,2.6094 -3.42,6.4766 -3.42,11.6094 v 71.0074 c 0,4.59 0.99,8.192 2.97,10.532 2.16,2.429 4.86,3.691 8.19,3.691 3.24,0 5.94,-1.082 8.1,-3.422 2.25,-2.25 3.33,-5.398 3.33,-9.359 v -2.34 c 4.05,5.129 8.46,8.91 13.14,11.34 4.68,2.429 9.99,3.597 15.66,3.597 6.03,0 11.07,-1.257 15.39,-3.777 4.32,-2.43 7.83,-6.211 10.62,-11.16 3.96,5.039 8.28,8.82 12.87,11.25 4.59,2.519 9.63,3.687 15.21,3.687 6.57,0 12.06,-1.257 16.83,-3.957 4.68,-2.699 8.19,-6.48 10.53,-11.429 1.98,-4.5 2.97,-11.61 2.97,-21.242 V 52.4414 c 0,-5.2226 -1.08,-9.1797 -3.33,-11.793 -2.34,-2.6093 -5.31,-3.8671 -9,-3.8671"
         style="fill:#918f8f;fill-opacity:1;fill-rule:nonzero;stroke:none"
         transform="matrix(0.13333333,0,0,-0.13333333,0,844.92)" />
      <path
         id="path11"
         d="m 1236.96,36.7813 c -2.52,0 -4.86,1.1679 -7.29,3.5078 -2.34,2.4297 -4.86,5.9414 -7.56,10.4414 -5.76,-4.6797 -11.25,-8.1914 -16.65,-10.4414 -5.31,-2.3399 -11.34,-3.5078 -18,-3.5078 -6.12,0 -11.43,1.2578 -16.11,3.6875 -4.59,2.5234 -8.1,5.9414 -10.62,10.3515 -2.52,4.2305 -3.78,8.9102 -3.78,13.9492 0,6.75 2.16,12.5118 6.21,17.2813 4.14,4.7695 9.72,8.0078 16.92,9.6289 1.53,0.3594 5.31,1.1719 11.25,2.4297 6.03,1.2617 11.07,2.4297 15.39,3.5117 4.23,0.9883 8.91,2.3398 13.86,3.7809 -0.36,6.567 -1.53,11.43 -3.78,14.489 -2.25,3.058 -6.93,4.589 -13.86,4.589 -6.03,0 -10.62,-0.898 -13.68,-2.609 -3.06,-1.801 -5.67,-4.41 -7.83,-8.012 -2.16,-3.507 -3.69,-5.757 -4.59,-6.929 -0.9,-1.078 -2.79,-1.621 -5.76,-1.621 -2.7,0 -4.95,0.902 -6.93,2.613 -1.89,1.797 -2.88,4.047 -2.88,6.93 0,4.32 1.44,8.64 4.41,12.687 2.97,4.141 7.56,7.473 13.86,10.172 6.21,2.699 14.04,3.961 23.4,3.961 10.35,0 18.63,-1.262 24.57,-3.871 6.03,-2.52 10.17,-6.571 12.69,-12.149 2.43,-5.582 3.69,-12.961 3.69,-22.1403 0,-5.8515 0,-10.8008 -0.09,-14.8515 0,-4.0508 0,-8.5508 -0.09,-13.5 0,-4.6797 0.72,-9.5391 2.25,-14.5782 1.44,-5.0429 2.16,-8.2812 2.16,-9.7226 0,-2.5196 -1.17,-4.8594 -3.42,-6.9297 -2.25,-2.0703 -4.86,-3.1484 -7.74,-3.1484 m -16.38,49.8593 c -3.51,-1.3515 -8.55,-2.789 -15.21,-4.2304 -6.57,-1.5313 -11.25,-2.6094 -13.77,-3.3282 -2.61,-0.7226 -4.95,-1.9804 -7.29,-4.0507 -2.34,-2.0704 -3.51,-4.8594 -3.51,-8.5508 0,-3.7813 1.35,-6.9297 4.05,-9.5391 2.79,-2.6992 6.39,-3.9609 10.8,-3.9609 4.68,0 9,1.0781 12.96,3.2383 3.96,2.0703 6.93,4.9531 8.73,8.2812 2.16,3.7813 3.24,9.8984 3.24,18.6289 v 3.5117"
         style="fill:#918f8f;fill-opacity:1;fill-rule:nonzero;stroke:none"
         transform="matrix(0.13333333,0,0,-0.13333333,0,844.92)" />
      <path
         id="path12"
         d="m 1279.8,36.7813 c -3.51,0 -6.39,1.2578 -8.55,3.8671 -2.16,2.6133 -3.24,6.3008 -3.24,11.1641 V 122.73 c 0,4.86 1.08,8.551 3.24,11.071 2.16,2.429 5.04,3.691 8.55,3.691 3.42,0 6.3,-1.262 8.55,-3.691 2.25,-2.52 3.42,-5.942 3.42,-10.352 V 51.8125 c 0,-4.9531 -1.17,-8.7305 -3.42,-11.25 -2.25,-2.5234 -5.13,-3.7812 -8.55,-3.7812 m 0.18,112.3207 c -3.24,0 -6.03,0.988 -8.46,3.148 -2.34,2.16 -3.51,5.219 -3.51,9 0,3.512 1.26,6.391 3.6,8.73 2.43,2.25 5.22,3.329 8.37,3.329 3.06,0 5.85,-0.989 8.19,-3.059 2.43,-2.07 3.6,-5.039 3.6,-9 0,-3.781 -1.17,-6.75 -3.51,-8.91 -2.34,-2.16 -5.04,-3.238 -8.28,-3.238"
         style="fill:#918f8f;fill-opacity:1;fill-rule:nonzero;stroke:none"
         transform="matrix(0.13333333,0,0,-0.13333333,0,844.92)" />
      <path
         id="path13"
         d="m 1388.52,36.7813 c -3.51,0 -6.39,1.2578 -8.55,3.8671 -2.25,2.6133 -3.33,6.3008 -3.33,11.1641 v 41.3086 c 0,8.1879 -1.08,14.3989 -3.24,18.7189 -2.25,4.41 -6.57,6.57 -13.05,6.57 -4.23,0 -8.1,-1.351 -11.61,-3.961 -3.51,-2.609 -6.03,-6.301 -7.65,-10.89 -1.17,-3.6879 -1.71,-10.5277 -1.71,-20.6996 V 51.8125 c 0,-4.9531 -1.17,-8.8203 -3.42,-11.3437 -2.25,-2.4297 -5.04,-3.6875 -8.64,-3.6875 -3.33,0 -6.21,1.2578 -8.37,3.8671 -2.25,2.6133 -3.33,6.3008 -3.33,11.1641 v 71.6365 c 0,4.68 0.99,8.192 2.97,10.531 1.98,2.34 4.68,3.512 8.1,3.512 2.07,0 3.96,-0.543 5.58,-1.531 1.71,-0.992 3.06,-2.609 4.05,-4.59 0.99,-2.07 1.53,-4.59 1.53,-7.562 v -2.969 c 4.14,5.762 8.73,9.992 13.68,12.601 4.95,2.7 10.71,4.051 17.19,4.051 6.21,0 11.79,-1.351 16.74,-4.23 4.95,-2.883 8.64,-6.84 11.07,-12.063 1.53,-3.058 2.52,-6.301 3.06,-9.808 0.36,-3.512 0.63,-8.012 0.63,-13.4105 v -46.168 c 0,-4.9531 -1.08,-8.7305 -3.24,-11.25 -2.16,-2.5234 -5.04,-3.7812 -8.46,-3.7812"
         style="fill:#918f8f;fill-opacity:1;fill-rule:nonzero;stroke:none"
         transform="matrix(0.13333333,0,0,-0.13333333,0,844.92)" />
      <path
         id="path14"
         d="m 1457.55,36.7813 c -3.33,0 -6.03,0.8085 -8.1,2.3398 -1.98,1.6211 -3.42,3.3281 -4.41,5.3086 -0.9,1.8906 -2.52,5.6719 -4.77,11.3398 l -22.68,58.3205 c -0.54,1.441 -1.08,2.879 -1.62,4.32 -0.54,1.442 -0.99,2.969 -1.35,4.5 -0.36,1.531 -0.63,2.789 -0.63,3.871 0,1.711 0.54,3.418 1.53,5.039 0.99,1.711 2.34,3.059 4.05,4.141 1.8,0.988 3.69,1.531 5.67,1.531 3.96,0 6.66,-1.172 8.19,-3.601 1.44,-2.25 3.15,-6.211 4.95,-11.789 l 19.17,-56.2504 20.7,58.6794 c 1.62,4.77 3.24,8.008 4.86,10.078 1.53,1.891 3.87,2.883 7.11,2.883 2.97,0 5.58,-0.992 7.74,-3.152 2.07,-2.16 3.15,-4.59 3.15,-7.379 0,-1.082 -0.27,-2.34 -0.63,-3.781 -0.36,-1.438 -0.81,-2.789 -1.26,-4.141 -0.54,-1.168 -1.08,-2.699 -1.71,-4.32 l -22.77,-58.9495 c -0.72,-1.7109 -1.53,-3.8711 -2.52,-6.4804 -0.99,-2.6094 -2.16,-4.7696 -3.42,-6.75 -1.26,-1.7969 -2.79,-3.1485 -4.59,-4.2305 -1.8,-0.9883 -4.05,-1.5273 -6.66,-1.5273"
         style="fill:#918f8f;fill-opacity:1;fill-rule:nonzero;stroke:none"
         transform="matrix(0.13333333,0,0,-0.13333333,0,844.92)" />
      <path
         id="path15"
         d="m 1559.43,36.7813 c -15.21,0 -27.09,4.5 -35.46,13.5898 -8.46,9.0898 -12.69,21.418 -12.69,36.8984 0,7.3828 1.08,14.1325 3.06,20.4295 2.16,6.301 5.13,11.614 9.18,16.11 3.96,4.5 8.91,7.921 14.76,10.351 5.85,2.34 12.33,3.512 19.53,3.512 9.18,0 17.19,-1.981 23.85,-6.121 6.66,-4.051 11.61,-9.36 14.85,-15.75 3.33,-6.571 4.95,-13.141 4.95,-19.8908 0,-6.211 -1.62,-10.2618 -5.04,-12.0586 -3.51,-1.8907 -8.28,-2.793 -14.49,-2.793 h -46.44 c 0,-5.668 1.17,-10.6172 3.24,-14.9375 2.16,-4.2305 4.95,-7.4727 8.46,-9.6328 3.51,-2.2461 7.38,-3.3281 11.61,-3.3281 2.88,0 5.49,0.3593 7.74,1.082 2.43,0.7187 4.68,1.7969 6.93,3.2383 2.16,1.5312 4.14,3.0586 6.03,4.7695 1.8,1.7109 4.32,3.9609 7.2,6.9297 1.26,1.082 2.97,1.6211 5.22,1.6211 2.43,0 4.41,-0.6289 5.94,-2.0703 1.53,-1.4414 2.25,-3.3282 2.25,-5.8516 0,-2.25 -0.81,-4.9492 -2.52,-7.918 -1.71,-2.9687 -4.14,-5.8515 -7.65,-8.6406 -3.42,-2.6992 -7.65,-5.039 -12.78,-6.8398 -5.13,-1.8008 -10.98,-2.6992 -17.73,-2.6992 m -2.52,83.6987 c -5.85,0 -10.71,-2.16 -14.49,-6.39 -3.78,-4.231 -6.03,-10.621 -6.93,-18.8986 h 43.02 c -0.54,8.4566 -2.7,14.7576 -6.57,18.9886 -3.78,4.14 -8.82,6.3 -15.03,6.3"
         style="fill:#918f8f;fill-opacity:1;fill-rule:nonzero;stroke:none"
         transform="matrix(0.13333333,0,0,-0.13333333,0,844.92)" />
      <path
         id="path16"
         d="m 1663.65,36.9609 c -14.76,0 -26.19,4.5 -34.38,13.4102 -8.19,8.9102 -12.42,20.8789 -12.42,35.9102 0,10.0781 1.89,19.1677 5.76,26.9097 3.78,7.739 9.18,13.86 16.29,18.09 7.11,4.321 15.66,6.391 25.56,6.391 6.21,0 11.79,-0.902 17.01,-2.793 5.04,-1.887 9.36,-4.316 12.96,-7.199 3.6,-2.969 6.3,-6.211 8.19,-9.539 1.89,-3.332 2.88,-6.481 2.88,-9.36 0,-2.972 -1.08,-5.492 -3.24,-7.562 -2.07,-2.0667 -4.68,-3.0588 -7.65,-3.0588 -1.98,0 -3.6,0.539 -4.86,1.6211 -1.35,0.9887 -2.88,2.6987 -4.5,5.1287 -2.88,4.5 -5.85,8.012 -9.09,10.352 -3.15,2.25 -7.2,3.508 -12.06,3.508 -6.93,0 -12.6,-2.969 -16.92,-8.641 -4.32,-5.758 -6.48,-13.5899 -6.48,-23.4884 0,-4.6797 0.63,-9 1.71,-12.8711 1.08,-3.9609 2.7,-7.1992 4.77,-9.9882 2.07,-2.7891 4.68,-4.8594 7.56,-6.3008 2.97,-1.4414 6.21,-2.0703 9.72,-2.0703 4.77,0 8.91,1.0781 12.24,3.4218 3.42,2.3399 6.39,5.8477 9,10.5274 1.53,2.7929 3.06,4.9531 4.77,6.5703 1.62,1.5312 3.69,2.3398 6.12,2.3398 2.88,0 5.31,-1.1679 7.2,-3.4179 1.89,-2.3399 2.88,-4.7696 2.88,-7.3828 0,-3.0586 -0.81,-6.3868 -2.61,-9.8985 -1.8,-3.5117 -4.5,-6.8398 -8.1,-9.9883 -3.6,-3.2422 -8.19,-5.7617 -13.77,-7.6523 -5.49,-1.9805 -11.7,-2.9688 -18.54,-2.9688"
         style="fill:#918f8f;fill-opacity:1;fill-rule:nonzero;stroke:none"
         transform="matrix(0.13333333,0,0,-0.13333333,0,844.92)" />
      <path
         id="path17"
         d="m 1757.52,36.7813 c -7.38,0 -13.05,1.2578 -16.83,3.8671 -3.87,2.6133 -6.39,6.211 -7.56,10.8907 -1.17,4.5898 -1.8,10.7109 -1.8,18.3593 v 47.6136 h -3.15 c -3.33,0 -5.94,0.898 -7.74,2.609 -1.89,1.621 -2.7,3.781 -2.7,6.391 0,2.609 0.9,4.769 2.79,6.39 1.89,1.707 4.59,2.52 8.19,2.52 h 2.61 v 14.937 c 0,3.961 0.09,7.11 0.36,9.36 0.18,2.25 0.72,4.14 1.71,5.851 0.9,1.621 2.25,3.059 3.96,4.141 1.71,0.988 3.69,1.531 5.85,1.531 2.97,0 5.76,-1.172 8.1,-3.512 1.62,-1.621 2.7,-3.511 3.15,-5.761 0.45,-2.25 0.63,-5.489 0.63,-9.719 v -16.828 h 8.73 c 3.33,0 5.94,-0.813 7.65,-2.52 1.8,-1.621 2.7,-3.781 2.7,-6.39 0,-3.332 -1.26,-5.672 -3.78,-6.93 -2.52,-1.352 -6.12,-2.07 -10.89,-2.07 h -4.41 V 71.8789 c 0,-3.8672 0.09,-6.8398 0.36,-8.9101 0.27,-2.1602 1.08,-3.8672 2.16,-5.129 1.08,-1.2578 2.97,-1.9804 5.49,-1.9804 1.44,0 3.33,0.2695 5.67,0.8125 2.34,0.539 4.23,0.7187 5.58,0.7187 1.89,0 3.69,-0.8086 5.13,-2.3398 1.53,-1.6211 2.34,-3.6016 2.34,-5.9414 0,-3.9571 -2.07,-7.0196 -6.21,-9.1797 -4.23,-2.0703 -10.26,-3.1484 -18.09,-3.1484"
         style="fill:#918f8f;fill-opacity:1;fill-rule:nonzero;stroke:none"
         transform="matrix(0.13333333,0,0,-0.13333333,0,844.92)" />
      <path
         id="path18"
         d="m 1831.95,36.7813 c -7.2,0 -13.68,1.1679 -19.44,3.5976 -5.67,2.4297 -10.71,5.8516 -14.85,10.4414 -4.23,4.5 -7.47,9.8086 -9.54,15.9297 -2.16,6.1211 -3.24,12.8711 -3.24,20.3398 0,7.5625 1.08,14.3982 3.24,20.6092 2.25,6.301 5.31,11.52 9.45,16.02 4.14,4.41 9.09,7.832 14.94,10.172 5.94,2.429 12.42,3.601 19.44,3.601 7.2,0 13.68,-1.172 19.53,-3.601 5.94,-2.43 10.89,-5.942 15.12,-10.352 4.14,-4.5 7.38,-9.809 9.45,-16.019 2.25,-6.211 3.33,-12.9614 3.33,-20.4302 0,-7.3789 -1.08,-14.1289 -3.33,-20.4296 -2.16,-6.211 -5.4,-11.5196 -9.54,-16.0196 -4.23,-4.5 -9.18,-7.832 -15.03,-10.3515 -5.76,-2.3399 -12.24,-3.5078 -19.53,-3.5078 m 0,82.3477 c -4.68,0 -8.73,-1.258 -12.24,-3.777 -3.6,-2.52 -6.3,-6.211 -8.19,-11.161 -1.89,-4.859 -2.88,-10.5308 -2.88,-17.1012 0,-6.4804 0.99,-12.1484 2.88,-16.9179 1.8,-4.8633 4.5,-8.5508 8.01,-11.1602 3.51,-2.5234 7.65,-3.8711 12.42,-3.8711 7.2,0 12.87,2.8789 17.19,8.5508 4.23,5.5781 6.39,13.4102 6.39,23.3984 0,10.0821 -2.16,18.0002 -6.39,23.5822 -4.32,5.578 -9.99,8.457 -17.19,8.457"
         style="fill:#918f8f;fill-opacity:1;fill-rule:nonzero;stroke:none"
         transform="matrix(0.13333333,0,0,-0.13333333,0,844.92)" />
      <path
         id="path19"
         d="m 1909.62,36.7813 c -3.42,0 -6.21,1.2578 -8.37,3.7812 -2.25,2.5195 -3.33,6.2969 -3.33,11.25 V 120.84 c 0,11.16 3.87,16.652 11.52,16.652 3.96,0 6.84,-1.262 8.55,-3.871 1.71,-2.609 2.61,-6.48 2.88,-11.519 2.88,5.039 5.76,8.91 8.73,11.519 3.06,2.609 7.02,3.871 11.97,3.871 5.04,0 9.81,-1.262 14.58,-3.871 4.59,-2.609 7.02,-6.031 7.02,-10.351 0,-3.059 -1.08,-5.579 -3.06,-7.469 -1.98,-1.981 -4.14,-2.969 -6.48,-2.969 -0.81,0 -2.97,0.539 -6.3,1.707 -3.33,1.082 -6.3,1.711 -8.82,1.711 -3.51,0 -6.3,-0.988 -8.46,-2.969 -2.25,-1.89 -3.96,-4.679 -5.22,-8.461 -1.17,-3.781 -2.07,-8.1911 -2.52,-13.4098 -0.45,-5.1289 -0.63,-11.4297 -0.63,-18.8985 V 51.8125 c 0,-4.9531 -1.17,-8.8203 -3.42,-11.3437 -2.25,-2.4297 -5.13,-3.6875 -8.64,-3.6875"
         style="fill:#918f8f;fill-opacity:1;fill-rule:nonzero;stroke:none"
         transform="matrix(0.13333333,0,0,-0.13333333,0,844.92)" />
      <path
         id="path20"
         d="m 2006.37,36.7813 c -8.46,0 -15.75,1.3476 -21.87,4.0507 -6.12,2.7891 -10.62,6.1172 -13.5,10.168 -2.88,4.1406 -4.41,8.1914 -4.41,12.332 0,2.6993 0.99,5.0391 2.88,6.9297 1.8,1.9805 4.14,2.9688 7.02,2.9688 2.43,0 4.41,-0.6289 5.76,-1.8907 1.35,-1.3476 2.52,-3.1484 3.78,-5.3984 2.43,-4.4101 5.4,-7.7422 8.82,-9.9023 3.33,-2.25 7.92,-3.3282 13.86,-3.3282 4.77,0 8.64,1.168 11.7,3.3282 2.97,2.25 4.59,4.7695 4.59,7.6523 0,4.3203 -1.62,7.5586 -4.77,9.4492 -3.15,2.0703 -8.37,3.961 -15.66,5.7617 -8.1,2.1563 -14.76,4.4063 -19.89,6.6602 -5.13,2.3398 -9.36,5.4883 -12.42,9.2695 -3.06,3.7774 -4.59,8.457 -4.59,14.039 0,5.039 1.44,9.719 4.32,14.039 2.79,4.5 7.02,8.012 12.6,10.621 5.49,2.699 12.15,3.961 19.98,3.961 6.21,0 11.7,-0.633 16.65,-1.98 4.86,-1.352 9,-3.153 12.24,-5.313 3.24,-2.25 5.76,-4.769 7.47,-7.469 1.71,-2.789 2.61,-5.398 2.61,-8.011 0,-2.879 -0.9,-5.129 -2.79,-7.02 -1.8,-1.707 -4.41,-2.699 -7.74,-2.699 -2.52,0 -4.5,0.719 -6.3,2.25 -1.62,1.441 -3.6,3.602 -5.85,6.48 -1.8,2.43 -3.87,4.321 -6.39,5.852 -2.43,1.348 -5.67,2.16 -9.9,2.16 -4.23,0 -7.83,-0.992 -10.62,-2.883 -2.88,-1.89 -4.32,-4.32 -4.32,-7.109 0,-2.609 1.08,-4.77 3.15,-6.48 2.07,-1.622 4.86,-2.969 8.46,-4.141 3.51,-1.078 8.37,-2.4298 14.58,-3.9571 7.38,-1.8906 13.41,-4.1406 18.09,-6.75 4.68,-2.5196 8.19,-5.5821 10.62,-9.1797 2.43,-3.6016 3.6,-7.5625 3.6,-12.0625 0,-6.9297 -1.62,-12.6914 -4.77,-17.6406 -3.24,-4.8594 -7.92,-8.5469 -14.22,-11.0703 -6.21,-2.4297 -13.77,-3.6875 -22.77,-3.6875"
         style="fill:#918f8f;fill-opacity:1;fill-rule:nonzero;stroke:none"
         transform="matrix(0.13333333,0,0,-0.13333333,0,844.92)" />
      <path
         id="path21"
         d="m 2075.13,36.7813 c -3.6,0 -6.75,1.1679 -9.27,3.5976 -2.7,2.4297 -3.96,5.8516 -3.96,10.1719 0,3.6914 1.17,6.8398 3.69,9.539 2.52,2.6094 5.58,3.961 9.27,3.961 3.6,0 6.75,-1.3516 9.27,-3.961 2.61,-2.6093 3.87,-5.8476 3.87,-9.539 0,-4.3203 -1.26,-7.6485 -3.87,-10.082 -2.52,-2.5196 -5.58,-3.6875 -9,-3.6875"
         style="fill:#918f8f;fill-opacity:1;fill-rule:nonzero;stroke:none"
         transform="matrix(0.13333333,0,0,-0.13333333,0,844.92)" />
      <path
         id="path22"
         d="m 2156.58,36.7813 c -7.2,0 -13.68,1.1679 -19.44,3.5976 -5.76,2.4297 -10.71,5.8516 -14.85,10.4414 -4.32,4.5 -7.47,9.8086 -9.63,15.9297 -2.16,6.1211 -3.24,12.8711 -3.24,20.3398 0,7.5625 1.08,14.3982 3.33,20.6092 2.25,6.301 5.31,11.52 9.45,16.02 4.05,4.41 9.09,7.832 14.94,10.172 5.85,2.429 12.33,3.601 19.44,3.601 7.11,0 13.68,-1.172 19.53,-3.601 5.85,-2.43 10.89,-5.942 15.03,-10.352 4.23,-4.5 7.38,-9.809 9.54,-16.019 2.16,-6.211 3.24,-12.9614 3.24,-20.4302 0,-7.3789 -1.08,-14.1289 -3.33,-20.4296 -2.16,-6.211 -5.31,-11.5196 -9.54,-16.0196 -4.14,-4.5 -9.09,-7.832 -14.94,-10.3515 -5.76,-2.3399 -12.33,-3.5078 -19.53,-3.5078 m 0,82.3477 c -4.68,0 -8.73,-1.258 -12.24,-3.777 -3.6,-2.52 -6.3,-6.211 -8.19,-11.161 -1.89,-4.859 -2.88,-10.5308 -2.88,-17.1012 0,-6.4804 0.9,-12.1484 2.79,-16.9179 1.89,-4.8633 4.59,-8.5508 8.1,-11.1602 3.51,-2.5234 7.65,-3.8711 12.42,-3.8711 7.11,0 12.87,2.8789 17.1,8.5508 4.23,5.5781 6.39,13.4102 6.39,23.3984 0,10.0821 -2.16,18.0002 -6.39,23.5822 -4.23,5.578 -9.99,8.457 -17.1,8.457"
         style="fill:#918f8f;fill-opacity:1;fill-rule:nonzero;stroke:none"
         transform="matrix(0.13333333,0,0,-0.13333333,0,844.92)" />
      <path
         id="path23"
         d="m 2234.25,36.7813 c -3.42,0 -6.21,1.2578 -8.46,3.7812 -2.16,2.5195 -3.33,6.2969 -3.33,11.25 V 120.84 c 0,11.16 3.96,16.652 11.61,16.652 3.96,0 6.75,-1.262 8.55,-3.871 1.71,-2.609 2.7,-6.48 2.88,-11.519 2.79,5.039 5.67,8.91 8.73,11.519 2.97,2.609 6.93,3.871 11.88,3.871 5.04,0 9.9,-1.262 14.58,-3.871 4.68,-2.609 7.02,-6.031 7.02,-10.351 0,-3.059 -0.99,-5.579 -2.97,-7.469 -1.98,-1.981 -4.14,-2.969 -6.48,-2.969 -0.9,0 -2.97,0.539 -6.3,1.707 -3.33,1.082 -6.3,1.711 -8.82,1.711 -3.51,0 -6.3,-0.988 -8.55,-2.969 -2.16,-1.89 -3.87,-4.679 -5.13,-8.461 -1.17,-3.781 -2.07,-8.1911 -2.52,-13.4098 -0.45,-5.1289 -0.72,-11.4297 -0.72,-18.8985 V 51.8125 c 0,-4.9531 -1.08,-8.8203 -3.33,-11.3437 -2.25,-2.4297 -5.13,-3.6875 -8.64,-3.6875"
         style="fill:#918f8f;fill-opacity:1;fill-rule:nonzero;stroke:none"
         transform="matrix(0.13333333,0,0,-0.13333333,0,844.92)" />
      <path
         id="path24"
         d="m 2336.04,-0.03125 c -8.19,0 -15.48,1.17188 -21.96,3.60156 -6.39,2.42969 -11.34,5.48828 -14.85,9.26949 -3.51,3.7813 -5.22,7.6524 -5.22,11.6993 0,2.9726 0.99,5.4922 2.97,7.3828 1.98,1.8867 4.32,2.8789 7.11,2.8789 3.51,0 6.48,-1.6211 9.18,-4.8594 1.26,-1.6211 2.61,-3.2422 3.96,-4.9492 1.35,-1.6211 2.79,-3.0625 4.5,-4.2305 1.62,-1.2617 3.69,-2.0703 5.94,-2.6992 2.34,-0.543 5.04,-0.8125 8.01,-0.8125 6.12,0 10.98,0.8984 14.31,2.6992 3.42,1.711 5.76,4.2305 7.2,7.4727 1.26,3.1484 2.16,6.5664 2.25,10.2578 0.36,3.6914 0.45,9.5391 0.63,17.7305 -3.6,-5.3086 -7.92,-9.4493 -12.69,-12.1485 -4.77,-2.7929 -10.44,-4.1406 -17.01,-4.1406 -8.01,0 -14.94,2.0703 -20.88,6.3008 -5.94,4.2304 -10.53,10.1679 -13.77,17.8203 -3.06,7.5586 -4.77,16.3789 -4.77,26.3672 0,7.4726 0.99,14.2226 2.97,20.2496 1.89,5.942 4.68,10.981 8.28,15.121 3.6,4.141 7.74,7.2 12.42,9.27 4.77,2.07 9.81,3.148 15.48,3.148 6.75,0 12.6,-1.347 17.46,-4.046 5.04,-2.704 9.54,-6.93 13.77,-12.692 v 3.328 c 0,4.321 1.08,7.653 3.06,10.082 2.07,2.34 4.68,3.512 7.83,3.512 4.59,0 7.65,-1.531 9.18,-4.68 1.44,-3.152 2.25,-7.652 2.25,-13.504 V 47.3984 c 0,-8.2773 -0.9,-15.3867 -2.52,-21.2382 -1.71,-6.0313 -4.41,-10.8907 -8.1,-14.7579 -3.69,-3.87105 -8.64,-6.74996 -14.58,-8.64058 -6.03,-1.800782 -13.5,-2.79297 -22.41,-2.79297 m 1.26,119.07025 c -6.75,0 -12.24,-2.789 -16.29,-8.098 -4.14,-5.402 -6.21,-13.0504 -6.21,-23.0387 0,-9.9921 2.07,-17.5507 6.3,-22.7734 4.23,-5.1289 9.72,-7.7383 16.29,-7.7383 3.96,0 7.74,1.168 11.16,3.418 3.6,2.1602 6.39,5.4922 8.64,9.9922 2.16,4.4101 3.24,9.8086 3.24,16.1094 0,10.1718 -2.07,17.9998 -6.39,23.5818 -4.23,5.758 -9.81,8.547 -16.74,8.547"
         style="fill:#918f8f;fill-opacity:1;fill-rule:nonzero;stroke:none"
         transform="matrix(0.13333333,0,0,-0.13333333,0,844.92)" />
      <path
         id="path25"
         d="m 1319.22,237.48 c -38.43,0 -71.28,14.219 -98.46,42.661 -27.18,28.351 -40.77,62.64 -40.77,102.781 0,40.047 13.59,74.34 40.77,102.777 27.18,28.352 60.03,42.571 98.46,42.571 38.34,0 71.19,-14.219 98.37,-42.571 27.18,-28.437 40.77,-62.73 40.77,-102.777 0,-40.141 -13.59,-74.43 -40.77,-102.781 -27.18,-28.442 -60.03,-42.661 -98.37,-42.661 m -53.63,48.442 c 15.7,-10.391 33.55,-15.59 53.63,-15.59 28.89,0 53.37,10.887 73.35,32.668 19.98,21.691 29.97,48.422 29.97,79.922 0,28.367 -8.11,52.797 -24.32,73.289 l 7.76,9.961 -20.34,17.187 -6.37,-8.168 c -17.24,13.508 -37.28,20.231 -60.05,20.231 -29.07,0 -53.46,-10.801 -73.44,-32.582 -19.98,-21.781 -29.97,-48.418 -29.97,-79.918 0,-31.301 9.87,-57.902 29.6,-79.512 l -9.08,-11.66 20.34,-17.281 8.92,11.453 M 1323,300.57 c -14.65,0 -27.42,3.309 -38.31,9.879 l 21.32,27.371 c 5.27,-2.922 11.4,-4.398 18.43,-4.398 18.99,0 28.98,9.09 29.97,27.269 h 35.28 c -2.52,-18.992 -10.26,-33.839 -23.22,-44.461 -11.97,-10.441 -26.46,-15.66 -43.47,-15.66 m -57.99,27.989 c -11.04,14.812 -16.53,33.339 -16.53,55.621 0,24.75 6.48,44.55 19.35,59.582 12.78,14.937 30.96,22.5 54.45,22.5 15.89,0 29.55,-3.953 40.9,-11.723 l -20.12,-25.82 c -4.65,3.062 -10.61,4.601 -17.9,4.601 -27.18,0 -40.86,-16.109 -40.86,-48.328 0,-9.832 1.49,-18.472 4.46,-25.961 l -23.75,-30.472 m 124.68,81 h -27.8 l 19.5,25.043 c 4.09,-7.282 6.86,-15.641 8.3,-25.043"
         style="fill:#918f8f;fill-opacity:1;fill-rule:nonzero;stroke:none"
         transform="matrix(0.13333333,0,0,-0.13333333,0,844.92)" />
      <path
         id="path26"
         d="m 1256.67,274.469 -20.34,17.281 9.08,11.66 19.6,25.149 23.75,30.472 54.3,69.688 20.12,25.82 16.09,20.652 6.37,8.168 20.34,-17.187 -7.76,-9.961 -16.83,-21.609 -19.5,-25.043 -55.88,-71.739 -21.32,-27.371 -19.1,-24.527 -8.92,-11.453"
         style="fill:#918f8f;fill-opacity:1;fill-rule:nonzero;stroke:none"
         transform="matrix(0.13333333,0,0,-0.13333333,0,844.92)" />
      <path
         id="path27"
         d="m 836.285,6235.69 c -126.742,-44.83 -245.515,-104.81 -356.691,-180 -29.852,-20.18 -58.172,-41.48 -85.082,-63.8 l 333.886,-147.3 107.887,391.1"
         style="fill:#293e9c;fill-opacity:1;fill-rule:nonzero;stroke:none"
         transform="matrix(0.13333333,0,0,-0.13333333,0,844.92)" />
      <path
         id="path28"
         d="m 1415.07,5876.78 -34.76,458.28 c -60.92,-2.54 -122.62,-7.7 -185.18,-15.56 -49.46,-6.21 -97.88,-14.29 -145.3,-24.22 l 365.24,-418.5"
         style="fill:#293e9c;fill-opacity:1;fill-rule:nonzero;stroke:none"
         transform="matrix(0.13333333,0,0,-0.13333333,0,844.92)" />
      <path
         id="path29"
         d="m 1415.07,5876.78 -365.24,418.5 c -73.576,-15.39 -144.74,-35.26 -213.545,-59.59 l -107.887,-391.1 686.672,32.19"
         style="fill:#293f9d;fill-opacity:1;fill-rule:nonzero;stroke:none"
         transform="matrix(0.13333333,0,0,-0.13333333,0,844.92)" />
      <path
         id="path30"
         d="m 2604.6,5979.71 c -5.89,4.04 -11.8,8.06 -17.74,12.03 -182.19,121.96 -391.98,216.65 -622.55,279.54 l -69.11,-772.71 709.4,481.14"
         style="fill:#2251aa;fill-opacity:1;fill-rule:nonzero;stroke:none"
         transform="matrix(0.13333333,0,0,-0.13333333,0,844.92)" />
      <path
         id="path31"
         d="m 1895.2,5498.57 69.11,772.71 c -3.34,0.91 -6.67,1.84 -10.01,2.73 -46.3,12.41 -93.1,22.96 -140.41,31.69 l -398.82,-428.92 480.13,-378.21"
         style="fill:#234ea7;fill-opacity:1;fill-rule:nonzero;stroke:none"
         transform="matrix(0.13333333,0,0,-0.13333333,0,844.92)" />
      <path
         id="path32"
         d="m 1813.89,6305.7 c -139.89,25.82 -284.31,35.57 -433.58,29.36 l 34.76,-458.28 398.82,428.92"
         style="fill:#2744a0;fill-opacity:1;fill-rule:nonzero;stroke:none"
         transform="matrix(0.13333333,0,0,-0.13333333,0,844.92)" />
      <path
         id="path33"
         d="m 3295.18,4601.79 c 9.93,121.97 5.24,240.95 -15.5,356.3 -17.01,102.74 -43.95,200.81 -80.5,294.37 l -56.71,-314.49 152.71,-336.18"
         style="fill:#244da7;fill-opacity:1;fill-rule:nonzero;stroke:none"
         transform="matrix(0.13333333,0,0,-0.13333333,0,844.92)" />
      <path
         id="path34"
         d="m 3048.63,5538.01 c -1.45,2.13 -2.87,4.29 -4.32,6.42 -81.06,118.39 -176.54,223.94 -286.58,318.03 l 22.63,-393.39 268.27,68.94"
         style="fill:#234fa9;fill-opacity:1;fill-rule:nonzero;stroke:none"
         transform="matrix(0.13333333,0,0,-0.13333333,0,844.92)" />
      <path
         id="path35"
         d="m 2780.36,5469.07 -22.63,393.39 c -48.24,41.25 -99.26,80.31 -153.13,117.25 l -709.4,-481.14 885.16,-29.5"
         style="fill:#1f5bb1;fill-opacity:1;fill-rule:nonzero;stroke:none"
         transform="matrix(0.13333333,0,0,-0.13333333,0,844.92)" />
      <path
         id="path36"
         d="m 2780.36,5469.07 -885.16,29.5 198.48,-278.95 z"
         style="fill:#1b63b7;fill-opacity:1;fill-rule:nonzero;stroke:none"
         transform="matrix(0.13333333,0,0,-0.13333333,0,844.92)" />
      <path
         id="path37"
         d="m 394.512,5991.89 c -84.321,-69.93 -154.231,-150.3 -209.871,-240.83 l 543.757,93.53 -333.886,147.3"
         style="fill:#41379a;fill-opacity:1;fill-rule:nonzero;stroke:none"
         transform="matrix(0.13333333,0,0,-0.13333333,0,844.92)" />
      <path
         id="path38"
         d="M 728.398,5844.59 184.641,5751.06 C 146.367,5688.81 114.855,5621.75 89.9961,5550 l 61.7069,-343.79 576.695,638.38"
         style="fill:#5644a4;fill-opacity:1;fill-rule:nonzero;stroke:none"
         transform="matrix(0.13333333,0,0,-0.13333333,0,844.92)" />
      <path
         id="path39"
         d="m 151.703,5206.21 683.985,-24.14 -107.29,662.52 z"
         style="fill:#215bb1;fill-opacity:1;fill-rule:nonzero;stroke:none"
         transform="matrix(0.13333333,0,0,-0.13333333,0,844.92)" />
      <path
         id="path40"
         d="m 1415.07,5876.78 174.82,-707.13 c 6.14,-1.22 12.34,-2.54 18.56,-3.91 l 286.75,332.83 -480.13,378.21"
         style="fill:#1f58af;fill-opacity:1;fill-rule:nonzero;stroke:none"
         transform="matrix(0.13333333,0,0,-0.13333333,0,844.92)" />
      <path
         id="path41"
         d="m 835.688,5182.07 579.382,694.71 -686.672,-32.19 z"
         style="fill:#254aa5;fill-opacity:1;fill-rule:nonzero;stroke:none"
         transform="matrix(0.13333333,0,0,-0.13333333,0,844.92)" />
      <path
         id="path42"
         d="m 835.688,5182.07 468.002,-19.85 0.93,0.34 c 79.72,26.91 174.73,29.13 285.27,7.09 l -174.82,707.13 -579.382,-694.71"
         style="fill:#2058af;fill-opacity:1;fill-rule:nonzero;stroke:none"
         transform="matrix(0.13333333,0,0,-0.13333333,0,844.92)" />
      <path
         id="path43"
         d="M 89.9961,5550 C 81.1797,5524.55 73.1563,5498.55 66.0156,5471.93 46.6797,5399.69 41.1875,5329.48 49.5664,5260.54 L 151.703,5206.21 89.9961,5550"
         style="fill:#711a7e;fill-opacity:1;fill-rule:nonzero;stroke:none"
         transform="matrix(0.13333333,0,0,-0.13333333,0,844.92)" />
      <path
         id="path44"
         d="m 49.5664,5260.54 c 3.9024,-32.05 10.7813,-63.82 20.707,-95.38 l 81.4296,41.05 -102.1366,54.33"
         style="fill:#751963;fill-opacity:1;fill-rule:nonzero;stroke:none"
         transform="matrix(0.13333333,0,0,-0.13333333,0,844.92)" />
      <path
         id="path45"
         d="m 2793.77,5216.93 -13.41,252.14 -686.68,-249.45 z"
         style="fill:#1b64b8;fill-opacity:1;fill-rule:nonzero;stroke:none"
         transform="matrix(0.13333333,0,0,-0.13333333,0,844.92)" />
      <path
         id="path46"
         d="m 2793.77,5216.93 303.59,244.28 c -15.38,25.99 -31.64,51.59 -48.73,76.8 l -268.27,-68.94 13.41,-252.14"
         style="fill:#2154ad;fill-opacity:1;fill-rule:nonzero;stroke:none"
         transform="matrix(0.13333333,0,0,-0.13333333,0,844.92)" />
      <path
         id="path47"
         d="m 3142.47,4937.97 56.71,314.49 c -28.23,72.23 -62.19,141.79 -101.82,208.75 l -303.59,-244.28 348.7,-278.96"
         style="fill:#2154ad;fill-opacity:1;fill-rule:nonzero;stroke:none"
         transform="matrix(0.13333333,0,0,-0.13333333,0,844.92)" />
      <path
         id="path48"
         d="m 1895.2,5498.57 -286.75,-332.83 c 12.07,-2.66 24.31,-5.6 36.75,-8.82 l 448.48,62.7 -198.48,278.95"
         style="fill:#1a66ba;fill-opacity:1;fill-rule:nonzero;stroke:none"
         transform="matrix(0.13333333,0,0,-0.13333333,0,844.92)" />
      <path
         id="path49"
         d="m 1010.51,4989.21 c 105.27,81.36 201.11,140.39 293.18,173.01 l -468.002,19.85 174.822,-192.86"
         style="fill:#196bbd;fill-opacity:1;fill-rule:nonzero;stroke:none"
         transform="matrix(0.13333333,0,0,-0.13333333,0,844.92)" />
      <path
         id="path50"
         d="m 70.2734,5165.16 c 4.8555,-15.45 10.4493,-30.84 16.7539,-46.19 l 64.6757,87.24 -81.4296,-41.05"
         style="fill:#811a6a;fill-opacity:1;fill-rule:nonzero;stroke:none"
         transform="matrix(0.13333333,0,0,-0.13333333,0,844.92)" />
      <path
         id="path51"
         d="m 87.0273,5118.97 c 7.0782,-17.24 15.0427,-34.42 23.9457,-51.56 29.332,-53.54 63.832,-99.24 103.871,-137.04 l -63.141,275.84 -64.6757,-87.24"
         style="fill:#81449d;fill-opacity:1;fill-rule:nonzero;stroke:none"
         transform="matrix(0.13333333,0,0,-0.13333333,0,844.92)" />
      <path
         id="path52"
         d="m 151.703,5206.21 63.141,-275.84 c 56.465,-53.29 123.957,-90.84 203.64,-112.21 34.957,-9.36 68.411,-16.1 100.321,-20.2 l 316.883,384.11 -683.985,24.14"
         style="fill:#4f78c5;fill-opacity:1;fill-rule:nonzero;stroke:none"
         transform="matrix(0.13333333,0,0,-0.13333333,0,844.92)" />
      <path
         id="path53"
         d="m 3142.47,4937.97 -348.7,278.96 -147.53,-1051.46 z"
         style="fill:#1d60b5;fill-opacity:1;fill-rule:nonzero;stroke:none"
         transform="matrix(0.13333333,0,0,-0.13333333,0,844.92)" />
      <path
         id="path54"
         d="m 2646.24,4165.47 147.53,1051.46 -700.09,2.69 z"
         style="fill:#186cbe;fill-opacity:1;fill-rule:nonzero;stroke:none"
         transform="matrix(0.13333333,0,0,-0.13333333,0,844.92)" />
      <path
         id="path55"
         d="m 2093.68,5219.62 -79.91,-368.53 c 40.9,-94.19 50.04,-188.41 24.9,-282.17 -26.65,-99.37 -70.64,-179.75 -132.04,-241.16 l 739.61,-162.29 -552.56,1054.15"
         style="fill:#1574c4;fill-opacity:1;fill-rule:nonzero;stroke:none"
         transform="matrix(0.13333333,0,0,-0.13333333,0,844.92)" />
      <path
         id="path56"
         d="m 1645.2,5156.92 c 3.03,-0.78 6.06,-1.56 9.13,-2.38 149.67,-40.07 258.33,-117.51 324.67,-235.87 13.39,-22.51 24.98,-45.05 34.77,-67.58 l 79.91,368.53 -448.48,-62.7"
         style="fill:#1670c2;fill-opacity:1;fill-rule:nonzero;stroke:none"
         transform="matrix(0.13333333,0,0,-0.13333333,0,844.92)" />
      <path
         id="path57"
         d="m 851.934,4880.49 c 50.468,29.68 103.339,65.72 158.076,108.33 l 0.5,0.39 -174.822,192.86 16.246,-301.58"
         style="fill:#137ac9;fill-opacity:1;fill-rule:nonzero;stroke:none"
         transform="matrix(0.13333333,0,0,-0.13333333,0,844.92)" />
      <path
         id="path58"
         d="m 518.805,4797.96 c 78.265,-10.05 147.218,-4.05 206.168,19.24 40.179,16.12 82.644,37.25 126.961,63.29 l -16.246,301.58 -316.883,-384.11"
         style="fill:#3d8dd3;fill-opacity:1;fill-rule:nonzero;stroke:none"
         transform="matrix(0.13333333,0,0,-0.13333333,0,844.92)" />
      <path
         id="path59"
         d="m 2646.24,4165.47 553.77,-12.15 c 13.79,41.98 26.69,85.36 38.68,130.15 28.92,108.03 48.02,214.26 56.49,318.32 l -152.71,336.18 -496.23,-772.5"
         style="fill:#2057ae;fill-opacity:1;fill-rule:nonzero;stroke:none"
         transform="matrix(0.13333333,0,0,-0.13333333,0,844.92)" />
      <path
         id="path60"
         d="m 2876.92,3811.41 239.93,128.71 c 30.63,66.53 58.35,137.59 83.16,213.2 l -553.77,12.15 230.68,-354.06"
         style="fill:#2056ae;fill-opacity:1;fill-rule:nonzero;stroke:none"
         transform="matrix(0.13333333,0,0,-0.13333333,0,844.92)" />
      <path
         id="path61"
         d="m 2646.24,4165.47 -739.61,162.29 c -0.95,-0.95 -1.92,-1.9 -2.88,-2.84 l 256.99,-336.48 485.5,177.03"
         style="fill:#1478c7;fill-opacity:1;fill-rule:nonzero;stroke:none"
         transform="matrix(0.13333333,0,0,-0.13333333,0,844.92)" />
      <path
         id="path62"
         d="m 1253.27,4190.85 c -82.52,4.16 -149.43,4.48 -199.58,1.5 -20.41,-1.21 -40.52,-4 -60.288,-8.34 l 180.258,-316.27 79.61,323.11"
         style="fill:#289add;fill-opacity:1;fill-rule:nonzero;stroke:none"
         transform="matrix(0.13333333,0,0,-0.13333333,0,844.92)" />
      <path
         id="path63"
         d="m 1721.31,4215.32 c -95.41,-32.25 -210.49,-43.14 -345.39,-32.61 -44.06,3.55 -84.98,6.25 -122.65,8.14 l -79.61,-323.11 547.65,347.58"
         style="fill:#148bd5;fill-opacity:1;fill-rule:nonzero;stroke:none"
         transform="matrix(0.13333333,0,0,-0.13333333,0,844.92)" />
      <path
         id="path64"
         d="m 835.941,4106.31 c -56.476,-49.22 -97.429,-130.67 -125.914,-236.84 l -18.14,-67.74 92.84,-30.55 51.214,335.13"
         style="fill:#92b5e4;fill-opacity:1;fill-rule:nonzero;stroke:none"
         transform="matrix(0.13333333,0,0,-0.13333333,0,844.92)" />
      <path
         id="path65"
         d="m 1173.66,3867.74 -180.258,316.27 c -50.898,-11.2 -99.496,-33.05 -144.894,-67.47 -4.274,-3.24 -8.453,-6.66 -12.567,-10.23 l -51.214,-335.13 388.933,96.56"
         style="fill:#5bb1e6;fill-opacity:1;fill-rule:nonzero;stroke:none"
         transform="matrix(0.13333333,0,0,-0.13333333,0,844.92)" />
      <path
         id="path66"
         d="m 2160.74,3988.44 -256.99,336.48 c -49.62,-48.71 -110.42,-85.25 -182.44,-109.6 l -547.65,-347.58 987.08,120.7"
         style="fill:#0f86d2;fill-opacity:1;fill-rule:nonzero;stroke:none"
         transform="matrix(0.13333333,0,0,-0.13333333,0,844.92)" />
      <path
         id="path67"
         d="m 2972.5,3689.75 c 53.83,74.81 101.9,158.24 144.35,250.37 l -239.93,-128.71 95.58,-121.66"
         style="fill:#234ea8;fill-opacity:1;fill-rule:nonzero;stroke:none"
         transform="matrix(0.13333333,0,0,-0.13333333,0,844.92)" />
      <path
         id="path68"
         d="m 2876.92,3811.41 -230.68,354.06 -485.5,-177.03 z"
         style="fill:#176fc0;fill-opacity:1;fill-rule:nonzero;stroke:none"
         transform="matrix(0.13333333,0,0,-0.13333333,0,844.92)" />
      <path
         id="path69"
         d="m 1238.04,3079.14 922.7,909.3 -987.08,-120.7 z"
         style="fill:#3faae5;fill-opacity:1;fill-rule:nonzero;stroke:none"
         transform="matrix(0.13333333,0,0,-0.13333333,0,844.92)" />
      <path
         id="path70"
         d="M 691.887,3801.73 639.84,3607.49 784.727,3771.18 Z"
         style="fill:#a87abd;fill-opacity:1;fill-rule:nonzero;stroke:none"
         transform="matrix(0.13333333,0,0,-0.13333333,0,844.92)" />
      <path
         id="path71"
         d="m 2106.9,3184.69 c 155.51,25.13 298.85,70.6 430.23,136.42 l -376.39,667.33 -53.84,-803.75"
         style="fill:#1574c5;fill-opacity:1;fill-rule:nonzero;stroke:none"
         transform="matrix(0.13333333,0,0,-0.13333333,0,844.92)" />
      <path
         id="path72"
         d="m 1238.04,3079.14 388.68,-78.47 c 3.1,9.82 6.08,19.76 8.8,29.91 l 36.1,134.81 c 154.48,-9.1 299.51,-2.62 435.28,19.3 l 53.84,803.75 -922.7,-909.3"
         style="fill:#2da0e1;fill-opacity:1;fill-rule:nonzero;stroke:none"
         transform="matrix(0.13333333,0,0,-0.13333333,0,844.92)" />
      <path
         id="path73"
         d="m 2160.74,3988.44 376.39,-667.33 c 2.07,1.04 4.13,2.1 6.2,3.16 l 333.59,487.14 -716.18,177.03"
         style="fill:#186dbf;fill-opacity:1;fill-rule:nonzero;stroke:none"
         transform="matrix(0.13333333,0,0,-0.13333333,0,844.92)" />
      <path
         id="path74"
         d="m 639.84,3607.49 -77.516,-289.34 c -20.785,-77.69 -28.047,-152.78 -21.965,-224.29 L 784.727,3771.18 639.84,3607.49"
         style="fill:#ad8ece;fill-opacity:1;fill-rule:nonzero;stroke:none"
         transform="matrix(0.13333333,0,0,-0.13333333,0,844.92)" />
      <path
         id="path75"
         d="m 784.727,3771.18 453.313,-692.04 -64.38,788.6 z"
         style="fill:#76c0ec;fill-opacity:1;fill-rule:nonzero;stroke:none"
         transform="matrix(0.13333333,0,0,-0.13333333,0,844.92)" />
      <path
         id="path76"
         d="m 2543.33,3324.27 c 40.53,20.56 79.95,43 118.19,67.45 119.45,76.38 222.91,175.66 310.98,298.03 l -95.58,121.66 -333.59,-487.14"
         style="fill:#1e5bb2;fill-opacity:1;fill-rule:nonzero;stroke:none"
         transform="matrix(0.13333333,0,0,-0.13333333,0,844.92)" />
      <path
         id="path77"
         d="M 784.727,3771.18 540.359,3093.86 c 0.2,-2.23 0.34,-4.48 0.559,-6.71 l 697.122,-8.01 -453.313,692.04"
         style="fill:#a8c7eb;fill-opacity:1;fill-rule:nonzero;stroke:none"
         transform="matrix(0.13333333,0,0,-0.13333333,0,844.92)" />
      <path
         id="path78"
         d="m 540.918,3087.15 c 0.297,-3.1 0.687,-6.19 1.039,-9.27 l 113.535,-263.97 c 11.262,-13.74 23.309,-27.08 36.156,-40.05 42.801,-40.43 91.313,-73.72 145.688,-99.85 l 400.704,405.13 -697.122,8.01"
         style="fill:#b2b7e2;fill-opacity:1;fill-rule:nonzero;stroke:none"
         transform="matrix(0.13333333,0,0,-0.13333333,0,844.92)" />
      <path
         id="path79"
         d="m 1323.99,2653.36 c 61.69,25.86 116.66,62.05 163.29,110.2 62.51,63.51 109.77,143.11 139.44,237.11 l -388.68,78.47 85.95,-425.78"
         style="fill:#76bbe9;fill-opacity:1;fill-rule:nonzero;stroke:none"
         transform="matrix(0.13333333,0,0,-0.13333333,0,844.92)" />
      <path
         id="path80"
         d="m 837.336,2674.01 c 35.5,-17.05 73.484,-31.08 114.09,-41.93 102.694,-27.6 199.234,-29.05 291.554,-5.91 28.12,7.3 55.15,16.35 81.01,27.19 l -85.95,425.78 -400.704,-405.13"
         style="fill:#b2d0ef;fill-opacity:1;fill-rule:nonzero;stroke:none"
         transform="matrix(0.13333333,0,0,-0.13333333,0,844.92)" />
      <path
         id="path81"
         d="m 553.047,3013.95 c 20.562,-75.35 54.308,-141.33 102.445,-200.04 l -113.535,263.97 c 2.477,-21.65 6.117,-43 11.09,-63.93"
         style="fill:#b7739f;fill-opacity:1;fill-rule:nonzero;stroke:none"
         transform="matrix(0.13333333,0,0,-0.13333333,0,844.92)" />
      <path
         id="path82"
         d="m 812.309,2027.99 c -9.672,3.14 -19.477,6.04 -29.411,8.69 l 1.829,-33.14 27.582,24.45"
         style="fill:#b69dd5;fill-opacity:1;fill-rule:nonzero;stroke:none"
         transform="matrix(0.13333333,0,0,-0.13333333,0,844.92)" />
      <path
         id="path83"
         d="m 782.898,2036.68 -0.011,0.01 c -19.973,5.37 -39.961,9.63 -59.973,12.81 l 61.813,-45.96 -1.829,33.14"
         style="fill:#b86385;fill-opacity:1;fill-rule:nonzero;stroke:none"
         transform="matrix(0.13333333,0,0,-0.13333333,0,844.92)" />
      <path
         id="path84"
         d="m 722.914,2049.5 c -85.246,13.55 -170.922,7.38 -257.305,-18.04 -76.726,-22.56 -147.617,-56.54 -211.605,-103.27 l 530.723,75.35 -61.813,45.96"
         style="fill:#b83258;fill-opacity:1;fill-rule:nonzero;stroke:none"
         transform="matrix(0.13333333,0,0,-0.13333333,0,844.92)" />
      <path
         id="path85"
         d="m 878.434,2001.96 c -21.329,9.98 -43.371,18.67 -66.125,26.03 l -27.582,-24.45 93.707,-1.58"
         style="fill:#b1a0d7;fill-opacity:1;fill-rule:nonzero;stroke:none"
         transform="matrix(0.13333333,0,0,-0.13333333,0,844.92)" />
      <path
         id="path86"
         d="M 784.727,2003.54 254.004,1928.19 C 229.242,1910.11 205.48,1890.2 182.859,1868.21 130.191,1816.14 88.8867,1756.86 58.7188,1690.92 L 299.23,1319.55 784.727,2003.54"
         style="fill:#b82e57;fill-opacity:1;fill-rule:nonzero;stroke:none"
         transform="matrix(0.13333333,0,0,-0.13333333,0,844.92)" />
      <path
         id="path87"
         d="m 299.23,1319.55 431.856,13.41 53.641,670.58 z"
         style="fill:#b83158;fill-opacity:1;fill-rule:nonzero;stroke:none"
         transform="matrix(0.13333333,0,0,-0.13333333,0,844.92)" />
      <path
         id="path88"
         d="m 1214.48,1274.32 c 27.97,106.29 26.31,213.05 -4.76,318.73 -28.39,108.23 -78.23,200.2 -154.82,280.52 -52.32,54.91 -111.072,97.77 -176.466,128.39 l -93.707,1.58 429.753,-729.22"
         style="fill:#b8608e;fill-opacity:1;fill-rule:nonzero;stroke:none"
         transform="matrix(0.13333333,0,0,-0.13333333,0,844.92)" />
      <path
         id="path89"
         d="m 731.086,1332.96 451.874,-149.9 c 12.36,28.48 22.66,58.07 30.85,88.68 l 0.67,2.58 -429.753,729.22 -53.641,-670.58"
         style="fill:#b83358;fill-opacity:1;fill-rule:nonzero;stroke:none"
         transform="matrix(0.13333333,0,0,-0.13333333,0,844.92)" />
      <path
         id="path90"
         d="M 58.7188,1690.92 C 44.1641,1659.11 32.1719,1625.76 22.8125,1590.87 2.77344,1515.97 -4.22266,1440.38 2.46094,1365.43 L 299.23,1319.55 58.7188,1690.92"
         style="fill:#b82656;fill-opacity:1;fill-rule:nonzero;stroke:none"
         transform="matrix(0.13333333,0,0,-0.13333333,0,844.92)" />
      <path
         id="path91"
         d="M 74.5938,1134.02 C 104.48,1080.83 141.941,1032.4 185.992,987.801 c 9.367,-9.281 18.903,-18.172 28.586,-26.711 L 299.23,1319.55 74.5938,1134.02"
         style="fill:#b11d54;fill-opacity:1;fill-rule:nonzero;stroke:none"
         transform="matrix(0.13333333,0,0,-0.13333333,0,844.92)" />
      <path
         id="path92"
         d="m 2.46094,1365.43 c 3.08594,-34.59 9.07816,-69.03 18.06246,-103.21 13.4414,-45.69 31.6289,-88.28 54.0704,-128.2 L 299.23,1319.55 2.46094,1365.43"
         style="fill:#b21e54;fill-opacity:1;fill-rule:nonzero;stroke:none"
         transform="matrix(0.13333333,0,0,-0.13333333,0,844.92)" />
      <path
         id="path93"
         d="M 299.23,1319.55 588.945,809.199 c 24.246,-0.879 48.575,-0.258 73.008,1.961 l 69.133,521.8 -431.856,-13.41"
         style="fill:#b82856;fill-opacity:1;fill-rule:nonzero;stroke:none"
         transform="matrix(0.13333333,0,0,-0.13333333,0,844.92)" />
      <path
         id="path94"
         d="m 1047.36,987.082 c 58.34,56.798 103.79,122.678 135.6,195.978 l -451.874,149.9 -69.133,-521.8 c 36.082,3.262 72.406,9.899 109.063,19.949 47.191,12.403 90.933,28.973 131.726,50.121 l 120.368,83.083 c 8.21,7.328 16.3,14.886 24.25,22.769"
         style="fill:#b82455;fill-opacity:1;fill-rule:nonzero;stroke:none"
         transform="matrix(0.13333333,0,0,-0.13333333,0,844.92)" />
      <path
         id="path95"
         d="M 214.578,961.09 C 287.129,897.051 368.574,853.191 459.219,828.949 502.32,817.391 545.504,810.82 588.945,809.199 L 299.23,1319.55 214.578,961.09"
         style="fill:#b82055;fill-opacity:1;fill-rule:nonzero;stroke:none"
         transform="matrix(0.13333333,0,0,-0.13333333,0,844.92)" />
      <path
         id="path96"
         d="m 902.742,881.23 c 43.219,22.391 83.125,49.93 120.368,83.083 L 902.742,881.23"
         style="fill:#b91c54;fill-opacity:1;fill-rule:nonzero;stroke:none"
         transform="matrix(0.13333333,0,0,-0.13333333,0,844.92)" />
    </g>
  </g>
</svg>
