<?xml version="1.0" encoding="UTF-8" standalone="no"?>
<!-- Created with Inkscape (http://www.inkscape.org/) -->

<svg
   version="1.1"
   id="svg1"
   width="512.90668"
   height="638.06665"
   viewBox="0 0 512.90668 638.06665"
   sodipodi:docname="red-scooter-motorbike.svg"
   inkscape:version="1.3.2 (091e20ef0f, 2023-11-25, custom)"
   xmlns:inkscape="http://www.inkscape.org/namespaces/inkscape"
   xmlns:sodipodi="http://sodipodi.sourceforge.net/DTD/sodipodi-0.dtd"
   xmlns="http://www.w3.org/2000/svg"
   xmlns:svg="http://www.w3.org/2000/svg">
  <defs
     id="defs1" />
  <sodipodi:namedview
     id="namedview1"
     pagecolor="#505050"
     bordercolor="#ffffff"
     borderopacity="1"
     inkscape:showpageshadow="0"
     inkscape:pageopacity="0"
     inkscape:pagecheckerboard="1"
     inkscape:deskcolor="#d1d1d1"
     inkscape:zoom="1.2130394"
     inkscape:cx="256.79297"
     inkscape:cy="319.03333"
     inkscape:window-width="1920"
     inkscape:window-height="1002"
     inkscape:window-x="0"
     inkscape:window-y="0"
     inkscape:window-maximized="1"
     inkscape:current-layer="g1">
    <inkscape:page
       x="0"
       y="0"
       inkscape:label="1"
       id="page1"
       width="512.90668"
       height="638.06665"
       margin="0"
       bleed="0" />
  </sodipodi:namedview>
  <g
     id="g1"
     inkscape:groupmode="layer"
     inkscape:label="1">
    <g
       id="group-R5">
      <path
         id="path2"
         d="m 984.844,72.9219 c 0,5.457 -0.785,10.1797 -2.406,14.039 -1.571,3.9102 -3.778,6.9297 -6.622,9.0586 -2.832,2.0703 -5.945,3.1328 -9.39,3.1328 -5.453,0 -10.063,-2.3007 -13.813,-6.75 -3.75,-4.5234 -5.625,-11.1015 -5.625,-19.832 0,-8.2305 1.875,-14.6289 5.567,-19.1406 3.75,-4.5781 8.379,-6.8789 13.871,-6.8789 3.277,0 6.344,0.9883 9.16,3.0117 2.762,1.9961 5.016,4.9688 6.715,8.918 1.711,4.0195 2.543,8.8086 2.543,14.4414 z M 946.07,103.012 v -2.492 c 3.711,4.769 7.563,8.332 11.563,10.543 4.023,2.25 8.594,3.398 13.672,3.398 6.078,0 11.679,-1.652 16.808,-4.941 5.106,-3.278 9.149,-8.04 12.137,-14.3677 2.97,-6.3203 4.43,-13.7617 4.43,-22.3828 0,-6.3398 -0.83,-12.25 -2.54,-17.4882 -1.71,-5.3399 -4.077,-9.8321 -7.066,-13.4219 -2.996,-3.6094 -6.562,-6.3985 -10.613,-8.3086 -4.102,-1.9805 -8.508,-2.9297 -13.156,-2.9297 -5.68,0 -10.426,1.1797 -14.266,3.5508 -3.879,2.3672 -7.512,5.8203 -10.969,10.4179 V 13.6211 C 946.07,4.51953 942.898,0 936.57,0 c -3.722,0 -6.203,1.15234 -7.375,3.49219 -1.218,2.34765 -1.812,5.76953 -1.812,10.25001 v 89.1288 c 0,3.93 0.789,6.879 2.449,8.809 1.672,1.929 3.906,2.922 6.738,2.922 2.805,0 5.086,-0.993 6.848,-3.012 1.758,-2.008 2.652,-4.871 2.652,-8.578"
         style="fill:#e61c2b;fill-opacity:1;fill-rule:nonzero;stroke:none"
         transform="matrix(0.13333333,0,0,-0.13333333,0,638.06667)" />
      <path
         id="path3"
         d="m 1071.99,42.3008 v 2.6015 c -2.38,-3.1132 -4.86,-5.7226 -7.48,-7.832 -2.61,-2.1601 -5.46,-3.7187 -8.54,-4.7305 -3.12,-1.0273 -6.64,-1.5585 -10.6,-1.5585 -4.76,0 -9.04,1.0507 -12.85,3.0898 -3.8,2.0703 -6.74,4.918 -8.79,8.5391 -2.5,4.3984 -3.7,10.7109 -3.7,18.8906 V 102.23 c 0,4.102 0.89,7.219 2.68,9.25 1.79,2.04 4.14,3.059 7.08,3.059 3.01,0 5.41,-1.019 7.26,-3.109 1.83,-2.071 2.74,-5.16 2.74,-9.2 V 69.1523 c 0,-4.75 0.38,-8.7812 1.14,-12.0117 0.81,-3.2617 2.19,-5.8086 4.21,-7.6718 1.97,-1.8165 4.7,-2.7383 8.13,-2.7383 3.37,0 6.49,1.0508 9.42,3.1093 2.97,2.0391 5.13,4.7305 6.47,8.0625 1.11,2.9297 1.66,9.3282 1.66,19.2071 V 102.23 c 0,4.04 0.92,7.129 2.77,9.2 1.82,2.09 4.18,3.109 7.15,3.109 2.95,0 5.31,-1.019 7.1,-3.059 1.77,-2.031 2.65,-5.148 2.65,-9.25 V 42.4102 c 0,-3.918 -0.82,-6.8789 -2.54,-8.8204 -1.7,-2 -3.91,-2.9492 -6.62,-2.9492 -2.7,0 -4.93,1.0391 -6.7,3.0313 -1.76,2.0703 -2.64,4.9101 -2.64,8.6289"
         style="fill:#e61c2b;fill-opacity:1;fill-rule:nonzero;stroke:none"
         transform="matrix(0.13333333,0,0,-0.13333333,0,638.06667)" />
      <path
         id="path4"
         d="m 1129.37,72.1016 c 0,-8.211 1.79,-14.5 5.37,-18.9219 3.62,-4.3984 8.34,-6.6289 14.2,-6.6289 4.98,0 9.24,2.2695 12.86,6.7695 3.63,4.5195 5.42,10.9492 5.42,19.3906 0,5.5 -0.75,10.1602 -2.25,14.0782 -1.52,3.9531 -3.65,6.9922 -6.38,9.1211 -2.79,2.1406 -5.97,3.2421 -9.65,3.2421 -3.81,0 -7.11,-1.1015 -10.08,-3.2421 -2.96,-2.1289 -5.26,-5.2383 -6.97,-9.3204 -1.69,-4.0195 -2.52,-8.8281 -2.52,-14.4882 z m -0.94,61.3784 v -31.558 c 3.68,4.07 7.5,7.129 11.35,9.308 3.87,2.141 8.67,3.231 14.36,3.231 6.58,0 12.33,-1.652 17.28,-4.879 4.94,-3.312 8.81,-7.992 11.53,-14.1601 2.75,-6.1719 4.1,-13.4922 4.1,-21.961 0,-6.2695 -0.75,-11.9921 -2.26,-17.25 -1.53,-5.1914 -3.72,-9.6914 -6.63,-13.5703 -2.93,-3.8086 -6.44,-6.7383 -10.56,-8.9101 -4.15,-2.0508 -8.7,-3.1094 -13.67,-3.1094 -3.01,0 -5.91,0.3906 -8.6,1.1289 -2.68,0.7617 -4.98,1.75 -6.82,3.0195 -1.91,1.1719 -3.51,2.4922 -4.85,3.7696 -1.32,1.332 -3.06,3.2812 -5.23,5.9023 v -2.0312 c 0,-3.8907 -0.91,-6.8204 -2.7,-8.8204 -1.77,-2 -4.07,-2.9687 -6.8,-2.9687 -2.82,0 -5.04,0.9687 -6.73,2.9687 -1.65,2.0391 -2.48,4.9493 -2.48,8.8204 v 90.1718 c 0,4.148 0.8,7.32 2.45,9.449 1.61,2.16 3.84,3.231 6.76,3.231 3.03,0 5.38,-1.02 7,-3.082 1.66,-2.02 2.5,-4.91 2.5,-8.7"
         style="fill:#e61c2b;fill-opacity:1;fill-rule:nonzero;stroke:none"
         transform="matrix(0.13333333,0,0,-0.13333333,0,638.06667)" />
      <path
         id="path5"
         d="m 1201.01,43.1914 v 89.5196 c 0,4.148 0.88,7.25 2.62,9.379 1.8,2.101 4.16,3.172 7.16,3.172 3,0 5.4,-1.032 7.24,-3.141 1.81,-2.082 2.77,-5.242 2.77,-9.41 V 43.1914 c 0,-4.1914 -0.96,-7.3516 -2.81,-9.4609 -1.85,-2.0508 -4.26,-3.1094 -7.2,-3.1094 -2.9,0 -5.23,1.0898 -7.05,3.25 -1.82,2.1797 -2.73,5.2578 -2.73,9.3203"
         style="fill:#e61c2b;fill-opacity:1;fill-rule:nonzero;stroke:none"
         transform="matrix(0.13333333,0,0,-0.13333333,0,638.06667)" />
      <path
         id="path6"
         d="M 1260.99,102.809 V 43.1914 c 0,-4.1601 -0.96,-7.2891 -2.8,-9.4101 -1.9,-2.0704 -4.31,-3.1602 -7.18,-3.1602 -2.91,0 -5.27,1.0898 -7.07,3.2383 -1.79,2.1914 -2.73,5.2695 -2.73,9.332 V 102.23 c 0,4.04 0.94,7.129 2.73,9.2 1.8,2.09 4.16,3.109 7.07,3.109 2.87,0 5.28,-1.019 7.18,-3.109 1.84,-2.071 2.8,-4.93 2.8,-8.621 z m -9.78,21.351 c -2.76,0 -5.09,0.879 -7.09,2.692 -1.91,1.757 -2.91,4.277 -2.91,7.507 0,2.911 1,5.293 3.02,7.211 2,1.899 4.32,2.789 6.98,2.789 2.56,0 4.84,-0.828 6.81,-2.527 1.98,-1.723 2.97,-4.242 2.97,-7.473 0,-3.207 -0.97,-5.687 -2.91,-7.449 -1.93,-1.789 -4.2,-2.75 -6.87,-2.75"
         style="fill:#e61c2b;fill-opacity:1;fill-rule:nonzero;stroke:none"
         transform="matrix(0.13333333,0,0,-0.13333333,0,638.06667)" />
      <path
         id="path7"
         d="m 1352.28,56.1797 c 0,-2.5508 -0.72,-5.3203 -2.19,-8.2383 -1.49,-2.9219 -3.74,-5.6914 -6.76,-8.3516 -3,-2.6289 -6.81,-4.7578 -11.4,-6.3593 -4.59,-1.6602 -9.76,-2.4492 -15.5,-2.4492 -12.23,0 -21.76,3.7304 -28.63,11.1601 -6.85,7.4375 -10.28,17.3789 -10.28,29.8906 0,8.4688 1.56,15.9766 4.68,22.4571 3.14,6.4609 7.72,11.5309 13.64,15.0699 5.92,3.571 13.05,5.352 21.29,5.352 5.13,0 9.84,-0.801 14.12,-2.34 4.26,-1.582 7.89,-3.609 10.86,-6.051 2.97,-2.48 5.23,-5.121 6.81,-7.8981 1.59,-2.793 2.35,-5.4102 2.35,-7.8321 0,-2.4375 -0.9,-4.5273 -2.64,-6.2578 -1.78,-1.7304 -3.89,-2.582 -6.41,-2.582 -1.66,0 -3,0.4805 -4.12,1.3594 -1.05,0.8515 -2.28,2.2304 -3.65,4.25 -2.4,3.8125 -4.94,6.6992 -7.57,8.6601 -2.63,1.8907 -5.98,2.8828 -10.01,2.8828 -5.88,0 -10.58,-2.4218 -14.15,-7.1835 -3.58,-4.7891 -5.35,-11.2969 -5.35,-19.5665 0,-3.8632 0.46,-7.4726 1.39,-10.7031 0.91,-3.2578 2.23,-6.0273 3.96,-8.3281 1.75,-2.3008 3.83,-4.0313 6.3,-5.2109 2.46,-1.211 5.18,-1.7813 8.11,-1.7813 3.98,0 7.36,0.9336 10.19,2.8633 2.83,1.9297 5.33,4.8594 7.5,8.75 1.21,2.3672 2.51,4.168 3.92,5.4883 1.41,1.3203 3.13,1.9492 5.15,1.9492 2.42,0 4.42,-0.9375 6.03,-2.8477 1.56,-1.9609 2.36,-3.9804 2.36,-6.1523"
         style="fill:#e61c2b;fill-opacity:1;fill-rule:nonzero;stroke:none"
         transform="matrix(0.13333333,0,0,-0.13333333,0,638.06667)" />
      <path
         id="path8"
         d="m 1384.87,72.7109 c 0,-5.6015 0.83,-10.332 2.49,-14.289 1.68,-3.9414 3.93,-6.8633 6.83,-8.8594 2.92,-2.0234 6.08,-3.0117 9.48,-3.0117 3.49,0 6.66,0.9609 9.53,2.8281 2.89,1.9024 5.16,4.8125 6.89,8.7227 1.72,3.8789 2.57,8.7773 2.57,14.6093 0,5.5196 -0.85,10.2188 -2.57,14.1993 -1.73,3.9609 -4.04,6.9804 -6.95,9.1093 -2.93,2.0703 -6.11,3.1328 -9.59,3.1328 -3.61,0 -6.84,-1.1015 -9.71,-3.2421 -2.83,-2.1289 -5.06,-5.2305 -6.63,-9.2383 -1.55,-4.0196 -2.34,-8.6328 -2.34,-13.961 z m 38.88,-30.3007 v 2.0312 c -2.66,-3.1797 -5.28,-5.7617 -7.89,-7.7226 -2.54,-2.0079 -5.36,-3.5196 -8.38,-4.5586 -3.01,-1.0079 -6.31,-1.5391 -9.88,-1.5391 -4.72,0 -9.14,1.0586 -13.15,3.1094 -4.02,2.1718 -7.51,5.1211 -10.46,9 -2.94,3.8711 -5.17,8.4297 -6.71,13.6992 -1.54,5.2226 -2.28,10.9023 -2.28,17.0312 0,12.8711 3.02,22.9805 9.06,30.1911 6.05,7.2 13.98,10.809 23.83,10.809 5.69,0 10.51,-1.051 14.41,-3.129 3.91,-2 7.74,-5.152 11.45,-9.41 v 30.48 c 0,4.239 0.8,7.45 2.43,9.598 1.61,2.18 3.9,3.262 6.9,3.262 2.99,0 5.3,-1 6.94,-2.973 1.6,-1.98 2.44,-4.93 2.44,-8.809 V 42.4102 c 0,-3.918 -0.88,-6.8789 -2.63,-8.8204 -1.75,-2 -3.97,-2.9687 -6.75,-2.9687 -2.67,0 -4.94,1.0078 -6.71,3.0508 -1.74,2.039 -2.62,4.9297 -2.62,8.7383"
         style="fill:#e61c2b;fill-opacity:1;fill-rule:nonzero;stroke:none"
         transform="matrix(0.13333333,0,0,-0.13333333,0,638.06667)" />
      <path
         id="path9"
         d="m 1516.5,72.5391 c 0,8.3906 -1.81,14.9609 -5.33,19.6523 -3.56,4.6602 -8.34,7.0274 -14.32,7.0274 -3.88,0 -7.27,-1.0469 -10.22,-3.1368 -2.94,-2.1211 -5.21,-5.2109 -6.81,-9.2929 -1.58,-4.0391 -2.39,-8.7774 -2.39,-14.25 0,-5.3985 0.81,-10.0977 2.35,-14.1172 1.56,-4.0313 3.82,-7.1211 6.76,-9.2696 2.91,-2.1406 6.38,-3.1914 10.31,-3.1914 5.98,0 10.76,2.3399 14.32,7.0508 3.52,4.6992 5.33,11.2305 5.33,19.5274 z m 19.84,0 c 0,-6.1094 -0.92,-11.7969 -2.75,-17.0196 -1.83,-5.1484 -4.49,-9.6172 -7.95,-13.3593 -3.5,-3.7383 -7.65,-6.5313 -12.48,-8.5704 -4.82,-2 -10.3,-2.9687 -16.31,-2.9687 -5.97,0 -11.37,0.9687 -16.14,3.0312 -4.78,2 -8.95,4.8868 -12.45,8.6485 -3.49,3.7695 -6.13,8.1601 -7.97,13.2812 -1.81,5.1485 -2.7,10.7696 -2.7,17 0,6.25 0.92,11.9571 2.74,17.1289 1.84,5.2188 4.45,9.6289 7.89,13.3401 3.44,3.668 7.58,6.5 12.49,8.488 4.89,2 10.24,3 16.14,3 6,0 11.44,-1 16.31,-3.027 4.86,-2.012 9.04,-4.91 12.52,-8.641 3.5,-3.7187 6.13,-8.1796 7.91,-13.3319 1.86,-5.1172 2.75,-10.7969 2.75,-17"
         style="fill:#e61c2b;fill-opacity:1;fill-rule:nonzero;stroke:none"
         transform="matrix(0.13333333,0,0,-0.13333333,0,638.06667)" />
      <path
         id="path10"
         d="m 1619.88,89.5898 c -1.48,-3.4804 -2.19,-9.6484 -2.19,-18.5078 V 43.6523 c 0,-4.3203 -0.93,-7.6015 -2.83,-9.7812 -1.87,-2.1602 -4.39,-3.25 -7.48,-3.25 -2.97,0 -5.39,1.0898 -7.24,3.25 -1.86,2.1797 -2.77,5.4609 -2.77,9.7812 v 32.918 c 0,5.1797 -0.19,9.1992 -0.54,12.1094 -0.34,2.8516 -1.25,5.2226 -2.75,7.0625 -1.47,1.8594 -3.85,2.7773 -7.07,2.7773 -6.47,0 -10.72,-2.3281 -12.79,-6.9882 -2.07,-4.6211 -3.05,-11.2813 -3.05,-19.9727 V 43.6523 c 0,-4.3125 -0.96,-7.5507 -2.79,-9.7031 -1.88,-2.2383 -4.33,-3.3281 -7.34,-3.3281 -3.02,0 -5.5,1.0898 -7.39,3.3281 -1.92,2.1524 -2.83,5.3906 -2.83,9.6914 v 59.0704 c 0,3.891 0.82,6.84 2.52,8.848 1.74,2.011 3.99,3.043 6.81,3.043 2.7,0 4.96,-0.942 6.76,-2.832 1.81,-1.879 2.72,-4.481 2.72,-7.821 v -1.969 c 3.41,4.29 7.1,7.461 10.99,9.45 3.91,2.011 8.3,3.031 13.05,3.031 4.96,0 9.22,-1.051 12.79,-3.129 3.6,-2.043 6.53,-5.18 8.83,-9.352 3.34,4.2 6.91,7.379 10.74,9.411 3.82,2.05 8.04,3.07 12.66,3.07 5.45,0 10.1,-1.09 13.98,-3.34 3.93,-2.219 6.84,-5.391 8.78,-9.531 1.7,-3.7306 2.53,-9.5978 2.53,-17.6291 V 43.6523 c 0,-4.3203 -0.94,-7.6015 -2.79,-9.7812 -1.93,-2.1602 -4.39,-3.25 -7.48,-3.25 -3.01,0 -5.45,1.0898 -7.35,3.3281 -1.93,2.1524 -2.89,5.3906 -2.89,9.7031 v 34.7266 c 0,4.4414 -0.17,7.9922 -0.52,10.6719 -0.37,2.6992 -1.35,4.9101 -2.96,6.7305 -1.58,1.8203 -4.02,2.7382 -7.22,2.7382 -2.61,0 -5.1,-0.8203 -7.4,-2.3906 -2.38,-1.6484 -4.16,-3.8086 -5.49,-6.5391 v 0"
         style="fill:#e61c2b;fill-opacity:1;fill-rule:nonzero;stroke:none"
         transform="matrix(0.13333333,0,0,-0.13333333,0,638.06667)" />
      <path
         id="path11"
         d="m 1731.89,72.1523 c -2.91,-1.1328 -7.13,-2.2734 -12.65,-3.5312 -5.54,-1.2305 -9.37,-2.1289 -11.5,-2.7305 -2.13,-0.5898 -4.16,-1.7187 -6.06,-3.3906 -1.96,-1.7383 -2.93,-4.0781 -2.93,-7.1094 0,-3.1484 1.15,-5.789 3.4,-7.9883 2.28,-2.2109 5.26,-3.2929 8.93,-3.2929 3.91,0 7.54,0.9101 10.83,2.6992 3.31,1.7812 5.76,4.1133 7.28,6.9102 1.79,3.1406 2.7,8.2617 2.7,15.4921 z m 1.29,-29.9023 c -4.79,-3.8906 -9.41,-6.7891 -13.88,-8.6992 -4.45,-1.9805 -9.49,-2.9297 -15.02,-2.9297 -5.1,0 -9.52,1.0586 -13.38,3.1094 -3.87,2.1093 -6.8,4.9492 -8.89,8.5703 -2.05,3.5703 -3.12,7.418 -3.12,11.6211 0,5.6484 1.76,10.4492 5.18,14.4375 3.4,3.9609 8.11,6.6406 14.09,8.0117 1.26,0.3008 4.4,0.9609 9.34,2.0078 5.03,1.1016 9.25,2.043 12.85,2.9219 3.51,0.8711 7.39,1.9414 11.54,3.1914 -0.25,5.4687 -1.3,9.4687 -3.14,12.0664 -1.89,2.5117 -5.76,3.7614 -11.57,3.7614 -5.05,0 -8.81,-0.7106 -11.38,-2.1677 -2.52,-1.4531 -4.71,-3.6718 -6.5,-6.621 -1.83,-2.9024 -3.08,-4.8516 -3.83,-5.7696 -0.78,-0.9492 -2.39,-1.3711 -4.81,-1.3711 -2.25,0 -4.16,0.7305 -5.76,2.1914 -1.64,1.5078 -2.44,3.3789 -2.44,5.7383 0,3.6211 1.23,7.1719 3.68,10.5507 2.47,3.449 6.32,6.258 11.52,8.52 5.22,2.218 11.73,3.32 19.52,3.32 8.67,0 15.51,-1.102 20.52,-3.231 4.96,-2.121 8.44,-5.488 10.51,-10.167 2.07,-4.6138 3.09,-10.7817 3.09,-18.4419 0,-4.832 0,-8.9688 -0.03,-12.332 -0.04,-3.3985 -0.06,-7.1485 -0.11,-11.2774 0,-3.8711 0.61,-7.9297 1.85,-12.1211 1.21,-4.2109 1.82,-6.9297 1.82,-8.1093 0,-2.129 -0.97,-4.0704 -2.86,-5.8008 -1.87,-1.7305 -4.05,-2.6094 -6.46,-2.6094 -2.06,0 -4.02,0.9687 -6.03,2.9687 -1.97,2 -4.07,4.9024 -6.3,8.6602"
         style="fill:#e61c2b;fill-opacity:1;fill-rule:nonzero;stroke:none"
         transform="matrix(0.13333333,0,0,-0.13333333,0,638.06667)" />
      <path
         id="path12"
         d="M 1791.17,102.809 V 43.1914 c 0,-4.1601 -0.95,-7.2891 -2.8,-9.4101 -1.89,-2.0704 -4.26,-3.1602 -7.17,-3.1602 -2.89,0 -5.27,1.0898 -7.06,3.2383 -1.84,2.1914 -2.75,5.2695 -2.75,9.332 V 102.23 c 0,4.04 0.91,7.129 2.75,9.2 1.79,2.09 4.17,3.109 7.06,3.109 2.91,0 5.28,-1.019 7.17,-3.109 1.85,-2.071 2.8,-4.93 2.8,-8.621 z m -9.78,21.351 c -2.72,0 -5.06,0.879 -7.03,2.692 -1.95,1.757 -2.97,4.277 -2.97,7.507 0,2.911 1.03,5.293 3.04,7.211 1.98,1.899 4.34,2.789 6.96,2.789 2.57,0 4.87,-0.828 6.85,-2.527 1.95,-1.723 2.93,-4.242 2.93,-7.473 0,-3.207 -0.95,-5.687 -2.89,-7.449 -1.94,-1.789 -4.23,-2.75 -6.89,-2.75"
         style="fill:#e61c2b;fill-opacity:1;fill-rule:nonzero;stroke:none"
         transform="matrix(0.13333333,0,0,-0.13333333,0,638.06667)" />
      <path
         id="path13"
         d="m 1829.61,103.121 v -2.461 c 3.45,4.762 7.25,8.281 11.35,10.512 4.14,2.238 8.89,3.367 14.28,3.367 5.19,0 9.87,-1.168 14.01,-3.57 4.06,-2.348 7.14,-5.68 9.16,-10 1.31,-2.5471 2.13,-5.2893 2.54,-8.1995 0.37,-2.8984 0.59,-6.6289 0.59,-11.1875 V 43.1914 c 0,-4.1601 -0.94,-7.2891 -2.73,-9.4101 -1.82,-2.0704 -4.18,-3.1602 -7.06,-3.1602 -2.94,0 -5.35,1.0898 -7.11,3.25 -1.87,2.1797 -2.81,5.2578 -2.81,9.3203 v 34.3711 c 0,6.8477 -0.88,12.0273 -2.68,15.6289 -1.85,3.5977 -5.47,5.4297 -10.88,5.4297 -3.52,0 -6.73,-1.1094 -9.62,-3.3125 -2.89,-2.168 -5.02,-5.1992 -6.37,-9.0391 -0.96,-3.0703 -1.47,-8.8007 -1.47,-17.2578 V 43.1914 c 0,-4.1914 -0.91,-7.3516 -2.79,-9.4609 -1.86,-2.0508 -4.26,-3.1094 -7.19,-3.1094 -2.83,0 -5.2,1.0898 -7.02,3.2383 -1.87,2.1914 -2.77,5.2695 -2.77,9.332 v 59.6176 c 0,3.961 0.81,6.863 2.48,8.812 1.6,1.949 3.91,2.918 6.74,2.918 1.71,0 3.3,-0.457 4.68,-1.289 1.44,-0.84 2.53,-2.16 3.38,-3.809 0.82,-1.761 1.29,-3.851 1.29,-6.32"
         style="fill:#e61c2b;fill-opacity:1;fill-rule:nonzero;stroke:none"
         transform="matrix(0.13333333,0,0,-0.13333333,0,638.06667)" />
      <path
         id="path14"
         d="m 1913.28,101.699 15.98,-46.867 17.24,48.91 c 1.38,3.938 2.7,6.688 4.01,8.34 1.34,1.629 3.29,2.457 5.93,2.457 2.51,0 4.64,-0.879 6.45,-2.668 1.73,-1.75 2.62,-3.762 2.62,-6.141 0,-0.878 -0.18,-1.929 -0.49,-3.109 -0.29,-1.242 -0.65,-2.371 -1.08,-3.4608 -0.42,-1.0079 -0.85,-2.2383 -1.41,-3.5899 l -18.98,-49.1484 c -0.54,-1.4024 -1.24,-3.211 -2.06,-5.3906 -0.86,-2.1524 -1.81,-3.9688 -2.83,-5.5704 -1.06,-1.5117 -2.32,-2.6718 -3.83,-3.539 -1.55,-0.8594 -3.4,-1.3008 -5.57,-1.3008 -2.81,0 -5.02,0.6602 -6.71,1.9805 -1.67,1.3476 -2.9,2.789 -3.7,4.4101 -0.78,1.5703 -2.14,4.7188 -4.01,9.4102 l -18.86,48.6094 c -0.43,1.1875 -0.89,2.4101 -1.36,3.621 -0.44,1.2188 -0.79,2.4177 -1.14,3.7067 -0.3,1.293 -0.47,2.36 -0.47,3.231 0,1.441 0.41,2.832 1.25,4.223 0.82,1.386 1.96,2.546 3.39,3.406 1.48,0.863 3.01,1.32 4.73,1.32 3.26,0 5.53,-0.969 6.77,-2.98 1.24,-1.95 2.62,-5.239 4.13,-9.86"
         style="fill:#e61c2b;fill-opacity:1;fill-rule:nonzero;stroke:none"
         transform="matrix(0.13333333,0,0,-0.13333333,0,638.06667)" />
      <path
         id="path15"
         d="m 1994.18,79.2813 h 35.85 c -0.46,7.0312 -2.27,12.3085 -5.46,15.8007 -3.18,3.4883 -7.35,5.238 -12.52,5.238 -4.89,0 -8.96,-1.7692 -12.1,-5.32 -3.17,-3.5312 -5.06,-8.7891 -5.77,-15.7187 z m 38.69,-11.75 h -38.69 c 0.01,-4.711 0.95,-8.8321 2.68,-12.4297 1.8,-3.543 4.12,-6.25 7.05,-8.0899 2.92,-1.8203 6.16,-2.7031 9.69,-2.7031 2.35,0 4.54,0.2812 6.47,0.8516 1.95,0.6015 3.86,1.5 5.72,2.7187 1.8,1.2422 3.47,2.5313 5.04,4 1.52,1.4024 3.59,3.293 6.01,5.7227 1.03,0.9609 2.48,1.3789 4.35,1.3789 2.06,0 3.68,-0.5586 4.94,-1.75 1.26,-1.1602 1.86,-2.7813 1.86,-4.8907 0,-1.8789 -0.69,-4.0585 -2.1,-6.5781 -1.39,-2.4609 -3.46,-4.8711 -6.34,-7.1797 -2.83,-2.2812 -6.38,-4.1523 -10.66,-5.7109 -4.24,-1.5 -9.14,-2.25 -14.74,-2.25 -12.69,0 -22.58,3.8086 -29.6,11.3281 -7.04,7.6016 -10.56,17.8321 -10.56,30.7617 0,6.168 0.9,11.7813 2.6,16.9883 1.74,5.2305 4.26,9.7031 7.6,13.4218 3.34,3.75 7.42,6.629 12.31,8.59 4.9,2 10.28,3 16.25,3 7.68,0 14.33,-1.699 19.85,-5.129 5.55,-3.402 9.68,-7.762 12.44,-13.1406 2.75,-5.4297 4.13,-10.9023 4.13,-16.5391 0,-5.1523 -1.39,-8.5234 -4.27,-10.0429 -2.87,-1.5703 -6.86,-2.3281 -12.03,-2.3281"
         style="fill:#e61c2b;fill-opacity:1;fill-rule:nonzero;stroke:none"
         transform="matrix(0.13333333,0,0,-0.13333333,0,638.06667)" />
      <path
         id="path16"
         d="m 2136.79,56.1797 c 0,-2.5508 -0.73,-5.3203 -2.23,-8.2383 -1.49,-2.9219 -3.68,-5.6914 -6.73,-8.3516 -3.01,-2.6289 -6.85,-4.7578 -11.45,-6.3593 -4.56,-1.6602 -9.75,-2.4492 -15.45,-2.4492 -12.26,0 -21.8,3.7304 -28.65,11.1601 -6.83,7.4375 -10.29,17.3789 -10.29,29.8906 0,8.4688 1.56,15.9766 4.73,22.4571 3.14,6.4609 7.64,11.5309 13.6,15.0699 5.92,3.571 13.05,5.352 21.32,5.352 5.12,0 9.79,-0.801 14.1,-2.34 4.27,-1.582 7.86,-3.609 10.87,-6.051 2.97,-2.48 5.21,-5.121 6.81,-7.8981 1.55,-2.793 2.34,-5.4102 2.34,-7.8321 0,-2.4375 -0.86,-4.5273 -2.69,-6.2578 -1.73,-1.7304 -3.86,-2.582 -6.37,-2.582 -1.65,0 -3.01,0.4805 -4.08,1.3594 -1.11,0.8515 -2.32,2.2304 -3.69,4.25 -2.41,3.8125 -4.92,6.6992 -7.56,8.6601 -2.63,1.8907 -5.97,2.8828 -10.04,2.8828 -5.82,0 -10.54,-2.4218 -14.11,-7.1835 -3.6,-4.7891 -5.38,-11.2969 -5.38,-19.5665 0,-3.8632 0.49,-7.4726 1.37,-10.7031 0.93,-3.2578 2.27,-6.0273 4.01,-8.3281 1.73,-2.3008 3.85,-4.0313 6.31,-5.2109 2.42,-1.211 5.14,-1.7813 8.11,-1.7813 3.95,0 7.36,0.9336 10.18,2.8633 2.82,1.9297 5.34,4.8594 7.51,8.75 1.21,2.3672 2.49,4.168 3.91,5.4883 1.39,1.3203 3.09,1.9492 5.15,1.9492 2.38,0 4.42,-0.9375 5.95,-2.8477 1.63,-1.9609 2.45,-3.9804 2.45,-6.1523"
         style="fill:#e61c2b;fill-opacity:1;fill-rule:nonzero;stroke:none"
         transform="matrix(0.13333333,0,0,-0.13333333,0,638.06667)" />
      <path
         id="path17"
         d="m 2155.15,112.809 h 2.18 v 12.41 c 0,3.301 0.09,5.933 0.26,7.812 0.17,1.891 0.61,3.489 1.42,4.871 0.75,1.387 1.87,2.547 3.34,3.45 1.44,0.859 3.05,1.277 4.83,1.277 2.5,0 4.79,-0.969 6.8,-2.918 1.33,-1.332 2.21,-2.91 2.57,-4.789 0.37,-1.891 0.54,-4.613 0.54,-8.07 v -14.043 h 7.26 c 2.81,0 4.95,-0.707 6.42,-2.09 1.5,-1.387 2.22,-3.149 2.22,-5.328 0,-2.77 -1.05,-4.731 -3.18,-5.8285 -2.09,-1.082 -5.1,-1.6523 -9.01,-1.6523 h -3.71 V 59.9023 c 0,-3.2421 0.11,-5.7304 0.32,-7.4921 0.25,-1.7383 0.87,-3.1602 1.79,-4.211 0.9,-1.0898 2.45,-1.6484 4.59,-1.6484 1.15,0 2.71,0.1992 4.71,0.6484 1.94,0.4219 3.49,0.6328 4.62,0.6328 1.58,0 3.07,-0.6914 4.33,-1.9609 1.25,-1.3789 1.9,-3 1.9,-4.9805 0,-3.3086 -1.7,-5.8593 -5.2,-7.6289 -3.52,-1.7617 -8.5,-2.6406 -14.99,-2.6406 -6.19,0 -10.89,1.0898 -14.07,3.25 -3.18,2.1797 -5.3,5.1602 -6.25,9.0312 -1.02,3.8282 -1.51,8.9375 -1.51,15.3399 v 39.668 h -2.63 c -2.8,0 -4.98,0.7109 -6.49,2.1288 -1.5,1.41 -2.24,3.18 -2.24,5.352 0,2.179 0.78,3.941 2.33,5.328 1.59,1.383 3.86,2.09 6.85,2.09"
         style="fill:#e61c2b;fill-opacity:1;fill-rule:nonzero;stroke:none"
         transform="matrix(0.13333333,0,0,-0.13333333,0,638.06667)" />
      <path
         id="path18"
         d="m 2260.76,72.5391 c 0,8.3906 -1.8,14.9609 -5.32,19.6523 -3.59,4.6602 -8.31,7.0274 -14.32,7.0274 -3.88,0 -7.28,-1.0469 -10.2,-3.1368 -2.97,-2.1211 -5.24,-5.2109 -6.82,-9.2929 -1.59,-4.0391 -2.4,-8.7774 -2.4,-14.25 0,-5.3985 0.81,-10.0977 2.37,-14.1172 1.56,-4.0313 3.8,-7.1211 6.72,-9.2696 2.91,-2.1406 6.36,-3.1914 10.33,-3.1914 6.01,0 10.73,2.3399 14.32,7.0508 3.52,4.6992 5.32,11.2305 5.32,19.5274 z m 19.85,0 c 0,-6.1094 -0.91,-11.7969 -2.77,-17.0196 -1.82,-5.1484 -4.49,-9.6172 -7.95,-13.3593 -3.49,-3.7383 -7.65,-6.5313 -12.46,-8.5704 -4.84,-2 -10.25,-2.9687 -16.31,-2.9687 -6.02,0 -11.41,0.9687 -16.17,3.0312 -4.77,2 -8.93,4.8868 -12.42,8.6485 -3.49,3.7695 -6.16,8.1601 -7.94,13.2812 -1.81,5.1485 -2.7,10.7696 -2.7,17 0,6.25 0.89,11.9571 2.7,17.1289 1.87,5.2188 4.47,9.6289 7.9,13.3401 3.45,3.668 7.6,6.5 12.46,8.488 4.93,2 10.3,3 16.17,3 6.01,0 11.41,-1 16.31,-3.027 4.87,-2.012 9.03,-4.91 12.52,-8.641 3.45,-3.7187 6.14,-8.1796 7.95,-13.3319 1.8,-5.1172 2.71,-10.7969 2.71,-17"
         style="fill:#e61c2b;fill-opacity:1;fill-rule:nonzero;stroke:none"
         transform="matrix(0.13333333,0,0,-0.13333333,0,638.06667)" />
      <path
         id="path19"
         d="M 2315.85,60.3711 V 43.1914 c 0,-4.1914 -0.95,-7.3516 -2.84,-9.4609 -1.89,-2.0508 -4.27,-3.1094 -7.19,-3.1094 -2.81,0 -5.19,1.0898 -7,3.1602 -1.84,2.121 -2.74,5.25 -2.74,9.4101 v 57.4496 c 0,9.281 3.19,13.898 9.62,13.898 3.25,0 5.64,-1.098 7.11,-3.238 1.43,-2.172 2.19,-5.379 2.38,-9.602 2.36,4.223 4.81,7.43 7.3,9.602 2.49,2.14 5.79,3.238 9.92,3.238 4.19,0 8.2,-1.098 12.14,-3.238 3.88,-2.172 5.87,-5.059 5.87,-8.621 0,-2.52 -0.86,-4.6292 -2.52,-6.2386 -1.65,-1.6289 -3.46,-2.4805 -5.41,-2.4805 -0.72,0 -2.47,0.4805 -5.25,1.4297 -2.79,0.9219 -5.24,1.3985 -7.38,1.3985 -2.87,0 -5.23,-0.7696 -7.05,-2.3868 -1.85,-1.6132 -3.28,-3.9414 -4.29,-7.0507 -1.01,-3.1719 -1.75,-6.8711 -2.11,-11.1993 -0.37,-4.2812 -0.56,-9.5312 -0.56,-15.7812"
         style="fill:#e61c2b;fill-opacity:1;fill-rule:nonzero;stroke:none"
         transform="matrix(0.13333333,0,0,-0.13333333,0,638.06667)" />
      <path
         id="path20"
         d="m 2421.2,57.5898 c 0,-5.7109 -1.33,-10.5781 -4.02,-14.6406 -2.66,-4.0703 -6.58,-7.1094 -11.77,-9.2304 -5.22,-2.0391 -11.51,-3.0977 -18.99,-3.0977 -7.04,0 -13.16,1.1289 -18.25,3.418 -5.07,2.2617 -8.82,5.0703 -11.21,8.4726 -2.44,3.3906 -3.68,6.8086 -3.68,10.2188 0,2.2617 0.79,4.2187 2.37,5.832 1.53,1.6367 3.51,2.4063 5.84,2.4063 2.09,0 3.7,-0.5391 4.81,-1.5586 1.11,-1.1289 2.14,-2.5782 3.19,-4.5 2.02,-3.6914 4.43,-6.4297 7.3,-8.25 2.79,-1.8282 6.64,-2.7305 11.57,-2.7305 3.93,0 7.18,0.9297 9.73,2.7695 2.52,1.8399 3.83,3.9414 3.83,6.3125 0,3.6485 -1.34,6.3086 -3.94,7.9492 -2.68,1.6993 -6.99,3.2813 -13.03,4.7813 -6.81,1.7695 -12.36,3.6289 -16.64,5.5469 -4.28,1.9531 -7.74,4.5312 -10.28,7.7109 -2.55,3.1211 -3.85,7.0625 -3.85,11.6992 0,4.1602 1.19,8.0625 3.56,11.7108 2.35,3.699 5.89,6.629 10.49,8.82 4.61,2.211 10.17,3.309 16.72,3.309 5.1,0 9.7,-0.559 13.8,-1.668 4.07,-1.101 7.53,-2.601 10.21,-4.449 2.73,-1.871 4.83,-3.942 6.24,-6.192 1.45,-2.3003 2.15,-4.5112 2.15,-6.6597 0,-2.3789 -0.74,-4.2812 -2.29,-5.8594 -1.54,-1.4492 -3.72,-2.2187 -6.47,-2.2187 -2.06,0 -3.78,0.5976 -5.22,1.8398 -1.4,1.1875 -3.06,2.9883 -4.88,5.3789 -1.5,2.0196 -3.25,3.6485 -5.3,4.8516 -2.03,1.1875 -4.78,1.8165 -8.24,1.8165 -3.59,0 -6.58,-0.777 -8.91,-2.3868 -2.38,-1.582 -3.57,-3.5703 -3.57,-5.9414 0,-2.1797 0.88,-3.9492 2.59,-5.332 1.76,-1.3868 4.09,-2.5391 7.05,-3.4493 2.97,-0.9101 7.01,-2.039 12.18,-3.3398 6.15,-1.5508 11.15,-3.4102 15.04,-5.5899 3.89,-2.1406 6.83,-4.7109 8.83,-7.6601 2.04,-2.9805 3.04,-6.3399 3.04,-10.0899"
         style="fill:#e61c2b;fill-opacity:1;fill-rule:nonzero;stroke:none"
         transform="matrix(0.13333333,0,0,-0.13333333,0,638.06667)" />
      <path
         id="path21"
         d="m 2443.66,30.6211 c -3,0 -5.59,0.9687 -7.73,3.0312 -2.21,2 -3.29,4.8399 -3.29,8.4297 0,3.0782 1.02,5.7266 3.08,7.9493 2.08,2.2109 4.66,3.289 7.71,3.289 3.02,0 5.63,-1.0781 7.73,-3.2812 2.18,-2.1602 3.26,-4.8477 3.26,-7.9571 0,-3.5625 -1.08,-6.3711 -3.26,-8.4101 -2.1,-2.043 -4.61,-3.0508 -7.5,-3.0508"
         style="fill:#e61c2b;fill-opacity:1;fill-rule:nonzero;stroke:none"
         transform="matrix(0.13333333,0,0,-0.13333333,0,638.06667)" />
      <path
         id="path22"
         d="m 2531.12,72.5391 c 0,8.3906 -1.79,14.9609 -5.33,19.6523 -3.56,4.6602 -8.31,7.0274 -14.29,7.0274 -3.88,0 -7.24,-1.0469 -10.2,-3.1368 -2.96,-2.1211 -5.23,-5.2109 -6.81,-9.2929 -1.57,-4.0391 -2.38,-8.7774 -2.38,-14.25 0,-5.3985 0.76,-10.0977 2.32,-14.1172 1.61,-4.0313 3.84,-7.1211 6.77,-9.2696 2.91,-2.1406 6.34,-3.1914 10.3,-3.1914 5.98,0 10.73,2.3399 14.29,7.0508 3.54,4.6992 5.33,11.2305 5.33,19.5274 z m 19.87,0 c 0,-6.1094 -0.9,-11.7969 -2.77,-17.0196 -1.85,-5.1484 -4.47,-9.6172 -7.96,-13.3593 -3.5,-3.7383 -7.61,-6.5313 -12.46,-8.5704 -4.81,-2 -10.24,-2.9687 -16.3,-2.9687 -5.99,0 -11.37,0.9687 -16.15,3.0312 -4.79,2 -8.91,4.8868 -12.4,8.6485 -3.56,3.7695 -6.19,8.1601 -8.03,13.2812 -1.77,5.1485 -2.68,10.7696 -2.68,17 0,6.25 0.91,11.9571 2.76,17.1289 1.86,5.2188 4.45,9.6289 7.87,13.3401 3.43,3.668 7.59,6.5 12.48,8.488 4.87,2 10.22,3 16.15,3 5.98,0 11.42,-1 16.3,-3.027 4.9,-2.012 9.06,-4.91 12.55,-8.641 3.46,-3.7187 6.09,-8.1796 7.93,-13.3319 1.81,-5.1172 2.71,-10.7969 2.71,-17"
         style="fill:#e61c2b;fill-opacity:1;fill-rule:nonzero;stroke:none"
         transform="matrix(0.13333333,0,0,-0.13333333,0,638.06667)" />
      <path
         id="path23"
         d="M 2586.22,60.3711 V 43.1914 c 0,-4.1914 -0.94,-7.3516 -2.82,-9.4609 -1.86,-2.0508 -4.28,-3.1094 -7.15,-3.1094 -2.89,0 -5.21,1.0898 -7.05,3.1602 -1.86,2.121 -2.77,5.25 -2.77,9.4101 v 57.4496 c 0,9.281 3.25,13.898 9.65,13.898 3.29,0 5.64,-1.098 7.08,-3.238 1.43,-2.172 2.28,-5.379 2.44,-9.602 2.33,4.223 4.75,7.43 7.24,9.602 2.49,2.14 5.82,3.238 9.94,3.238 4.22,0 8.25,-1.098 12.12,-3.238 3.92,-2.172 5.89,-5.059 5.89,-8.621 0,-2.52 -0.84,-4.6292 -2.49,-6.2386 -1.69,-1.6289 -3.46,-2.4805 -5.43,-2.4805 -0.7,0 -2.44,0.4805 -5.22,1.4297 -2.79,0.9219 -5.24,1.3985 -7.39,1.3985 -2.88,0 -5.22,-0.7696 -7.11,-2.3868 -1.81,-1.6132 -3.24,-3.9414 -4.27,-7.0507 -0.98,-3.1719 -1.7,-6.8711 -2.07,-11.1993 -0.39,-4.2812 -0.59,-9.5312 -0.59,-15.7812"
         style="fill:#e61c2b;fill-opacity:1;fill-rule:nonzero;stroke:none"
         transform="matrix(0.13333333,0,0,-0.13333333,0,638.06667)" />
      <path
         id="path24"
         d="m 2643.33,73.25 c 0,-8.3477 1.76,-14.6797 5.27,-18.9883 3.48,-4.2617 8.04,-6.4297 13.56,-6.4297 3.26,0 6.4,0.9571 9.31,2.7969 2.93,1.8399 5.3,4.6133 7.15,8.3203 1.86,3.711 2.74,8.1914 2.74,13.4727 0,8.4179 -1.78,14.9687 -5.33,19.6406 -3.53,4.7266 -8.21,7.0898 -14,7.0898 -5.64,0 -10.18,-2.3007 -13.57,-6.75 -3.42,-4.5117 -5.13,-10.871 -5.13,-19.1523 z m 57.33,26.1914 V 39.4492 c 0,-6.8789 -0.75,-12.7695 -2.12,-17.6797 -1.4,-4.9687 -3.65,-9.0507 -6.74,-12.27731 -3.08,-3.21094 -7.15,-5.60156 -12.12,-7.16016 C 2674.68,0.789063 2668.44,0 2661.02,0 c -6.82,0 -12.93,0.960938 -18.26,2.94922 -5.37,2.04297 -9.51,4.58203 -12.4,7.76168 -2.89,3.1094 -4.36,6.3594 -4.36,9.711 0,2.5195 0.8,4.5586 2.49,6.1367 1.62,1.6406 3.61,2.4219 5.92,2.4219 2.91,0 5.41,-1.3516 7.63,-4.0117 1.06,-1.3985 2.18,-2.7579 3.28,-4.129 1.13,-1.3906 2.39,-2.6093 3.76,-3.5585 1.39,-1.0196 3.07,-1.7305 4.99,-2.2188 1.89,-0.4805 4.15,-0.7227 6.67,-0.7227 5.08,0 9.1,0.7618 11.9,2.2305 2.84,1.4883 4.82,3.5703 5.97,6.2383 1.08,2.6719 1.81,5.5117 1.92,8.5703 0.24,3.1016 0.38,7.9609 0.51,14.75 -3.04,-4.4297 -6.61,-7.8164 -10.55,-10.1289 -3.99,-2.3281 -8.75,-3.4609 -14.21,-3.4609 -6.68,0 -12.46,1.7304 -17.39,5.2812 -4.97,3.5313 -8.78,8.4492 -11.42,14.832 -2.63,6.3282 -3.99,13.6602 -3.99,21.9883 0,6.2305 0.79,11.8399 2.45,16.8282 1.58,4.9726 3.87,9.1912 6.92,12.6132 2.96,3.43 6.43,6.02 10.34,7.77 3.94,1.718 8.18,2.609 12.91,2.609 5.58,0 10.43,-1.148 14.53,-3.398 4.16,-2.211 7.93,-5.774 11.47,-10.543 v 2.769 c 0,3.613 0.88,6.352 2.54,8.383 1.68,1.937 3.86,2.93 6.51,2.93 3.83,0 6.36,-1.289 7.63,-3.883 1.24,-2.61 1.88,-6.379 1.88,-11.2776"
         style="fill:#e61c2b;fill-opacity:1;fill-rule:nonzero;stroke:none"
         transform="matrix(0.13333333,0,0,-0.13333333,0,638.06667)" />
      <path
         id="path25"
         d="m 1843.4,300.43 h 29.33 c -2.07,-15.809 -8.55,-28.149 -19.33,-37.039 -9.97,-8.7 -22.06,-13 -36.17,-13 -19.16,0 -34.45,6.738 -45.87,20.168 -10.82,12.773 -16.22,29.281 -16.22,49.421 0,20.661 5.37,37.161 16.07,49.672 10.69,12.438 25.82,18.7 45.37,18.7 14.54,0 26.85,-3.93 36.82,-11.743 10.58,-8.429 17.05,-20.289 19.33,-35.457 h -29.33 c -2.54,13.239 -10.62,19.817 -24.38,19.817 -22.68,0 -34.03,-13.43 -34.03,-40.297 0,-12.602 2.92,-22.871 8.75,-30.891 5.83,-8.039 14.05,-12.062 24.66,-12.062 15.81,0 24.15,7.59 25,22.711 z m -115.49,18.519 c 0,-26.258 8.33,-48.488 24.95,-66.59 16.65,-18.109 37.02,-27.168 61.2,-27.168 24.07,0 44.46,9.059 61.08,27.168 16.67,18.102 24.95,40.332 24.95,66.59 0,26.242 -8.28,48.453 -24.95,66.563 -16.62,18.14 -37.01,27.187 -61.08,27.187 -24.18,0 -44.55,-9.047 -61.2,-27.187 -16.62,-18.11 -24.95,-40.321 -24.95,-66.563 z m -29.81,0 c 0,33.41 11.31,61.922 33.94,85.614 22.65,23.656 50,35.476 82.02,35.476 31.94,0 59.25,-11.82 81.92,-35.476 22.65,-23.692 33.99,-52.204 33.99,-85.614 0,-33.437 -11.34,-61.988 -33.99,-85.636 -22.67,-23.672 -49.98,-35.504 -81.92,-35.504 -32.02,0 -59.37,11.832 -82.02,35.504 -22.63,23.648 -33.94,52.199 -33.94,85.636"
         style="fill:#e61c2b;fill-opacity:1;fill-rule:nonzero;stroke:none"
         transform="matrix(0.13333333,0,0,-0.13333333,0,638.06667)" />
      <path
         id="path26"
         d="m 1745.02,243 16.91,-14.348 124.34,159.668 -16.91,14.332 L 1745.02,243"
         style="fill:#e61c2b;fill-opacity:1;fill-rule:nonzero;stroke:none"
         transform="matrix(0.13333333,0,0,-0.13333333,0,638.06667)" />
      <path
         id="path27"
         d="m 1923.41,938.719 c 1059.37,0 1923.4,864.021 1923.4,1923.401 0,1059.38 -864.03,1923.41 -1923.4,1923.41 C 864.031,4785.53 0,3921.5 0,2862.12 0,1802.74 864.031,938.719 1923.41,938.719"
         style="fill:#fcf9a1;fill-opacity:1;fill-rule:evenodd;stroke:none"
         transform="matrix(0.13333333,0,0,-0.13333333,0,638.06667)" />
      <path
         id="path28"
         d="m 3094.9,1712.69 278.71,106.84 c 34.3,13.14 73.11,0.32 92.83,-30.67 19.72,-30.99 14.9,-71.57 -11.54,-97.08 -13.48,-13 -30.41,-21.87 -48.77,-25.55 l -336.09,-74.1 24.86,120.56"
         style="fill:#352122;fill-opacity:1;fill-rule:evenodd;stroke:none"
         transform="matrix(0.13333333,0,0,-0.13333333,0,638.06667)" />
      <path
         id="path29"
         d="m 3094.9,1712.69 207.69,79.61 c 42.33,-3.48 84.77,-65.24 48.56,-138.19 l -281.11,-61.98 24.86,120.56"
         style="fill:#151211;fill-opacity:1;fill-rule:evenodd;stroke:none"
         transform="matrix(0.13333333,0,0,-0.13333333,0,638.06667)" />
      <path
         id="path30"
         d="m 1318.11,4078.3 16.84,149.74 c 12.37,109.89 -47.92,215.13 -148.97,260.05 -127.13,56.51 -264.113,87.52 -403.183,91.28 -25.68,0.69 -48.574,-16.08 -55.652,-40.77 -16.504,-57.54 -6.102,-119.45 28.296,-168.43 34.399,-48.99 89.106,-79.79 148.825,-83.8 111.914,-7.52 224.324,1.38 333.664,26.39 9.35,2.14 19.17,0.31 27.13,-5.06 7.95,-5.37 13.32,-13.79 14.84,-23.26 11.48,-71.81 1.61,-145.4 -28.37,-211.65 z m 987.04,0.63 -18.77,166.86 c -13.77,122.47 53.41,239.74 166.02,289.8 141.67,62.97 294.32,97.53 449.29,101.71 28.62,0.78 54.13,-17.91 62.02,-45.42 18.39,-64.12 6.8,-133.12 -31.53,-187.7 -38.34,-54.59 -99.3,-88.91 -165.85,-93.38 -124.71,-8.38 -249.98,1.53 -371.83,29.4 -10.42,2.39 -21.36,0.35 -30.22,-5.63 -8.87,-5.98 -14.85,-15.37 -16.54,-25.93 -12.8,-80.01 -1.8,-162.02 31.61,-235.84 l -74.2,6.13 v 0"
         style="fill:#e61c2b;fill-opacity:1;fill-rule:evenodd;stroke:none"
         transform="matrix(0.13333333,0,0,-0.13333333,0,638.06667)" />
      <path
         id="path31"
         d="m 1667.66,3816.4 c -46.11,111.59 -176.85,204.37 -337.69,266.21 -162.38,62.43 -359.525,96.06 -527.325,85.66 l 9.406,-159.85 c 146.461,9.07 318.769,-20.37 460.879,-75 122.43,-47.08 218.75,-109.96 246.79,-177.82 l 147.94,60.8"
         style="fill:#231717;fill-opacity:1;fill-rule:evenodd;stroke:none"
         transform="matrix(0.13333333,0,0,-0.13333333,0,638.06667)" />
      <path
         id="path32"
         d="m 804.348,3940.82 c 59.402,0 107.843,69.43 107.843,154.56 0,85.12 -48.441,154.55 -107.843,154.55 -59.403,0 -107.852,-69.43 -107.852,-154.55 0,-85.13 48.449,-154.56 107.852,-154.56"
         style="fill:#231717;fill-opacity:1;fill-rule:evenodd;stroke:none"
         transform="matrix(0.13333333,0,0,-0.13333333,0,638.06667)" />
      <path
         id="path33"
         d="m 1304.06,4169.98 c -57.89,14 -121.09,-41.91 -141.15,-124.87 -20.06,-82.97 10.6,-161.57 68.5,-175.57 57.89,-14 121.09,41.91 141.15,124.87 20.06,82.97 -10.6,161.57 -68.5,175.57"
         style="fill:#231717;fill-opacity:1;fill-rule:evenodd;stroke:none"
         transform="matrix(0.13333333,0,0,-0.13333333,0,638.06667)" />
      <path
         id="path34"
         d="m 2778.66,767.77 c 226,0 410.33,275.62 410.33,613.55 0,337.92 -184.33,613.54 -410.33,613.54 -226,0 -410.33,-275.62 -410.33,-613.54 0,-337.93 184.33,-613.55 410.33,-613.55"
         style="fill:#231717;fill-opacity:1;fill-rule:evenodd;stroke:none"
         transform="matrix(0.13333333,0,0,-0.13333333,0,638.06667)" />
      <path
         id="path35"
         d="m 2934.92,1075.2 c 112.76,0 204.73,137.51 204.73,306.12 0,168.6 -91.97,306.12 -204.73,306.12 -112.76,0 -204.73,-137.52 -204.73,-306.12 0,-168.61 91.97,-306.12 204.73,-306.12"
         style="fill:#ae7681;fill-opacity:1;fill-rule:evenodd;stroke:none"
         transform="matrix(0.13333333,0,0,-0.13333333,0,638.06667)" />
      <path
         id="path36"
         d="m 2994.84,1238.4 c 52.65,0 95.59,64.2 95.59,142.92 0,78.71 -42.94,142.92 -95.59,142.92 -52.64,0 -95.58,-64.21 -95.58,-142.92 0,-78.72 42.94,-142.92 95.58,-142.92"
         style="fill:#d697a2;fill-opacity:1;fill-rule:evenodd;stroke:none"
         transform="matrix(0.13333333,0,0,-0.13333333,0,638.06667)" />
      <path
         id="path37"
         d="m 2974.09,964.359 c -28.57,-15.019 -59.29,-23.218 -91.29,-23.218 -152,0 -275.21,184.239 -275.21,411.509 0,176.38 74.22,326.82 178.49,385.36 -75.12,-76.37 -124.47,-205.21 -124.47,-351.28 0,-234.45 127.11,-424.5 283.9,-424.5 9.65,0 19.18,0.719 28.58,2.129"
         style="fill:#352122;fill-opacity:1;fill-rule:evenodd;stroke:none"
         transform="matrix(0.13333333,0,0,-0.13333333,0,638.06667)" />
      <path
         id="path38"
         d="m 3031.61,2276.18 c -461.36,7.22 -777.3,1.6 -1238.38,-91.74 l -27.06,-799.93 9.87,-13.6 811.82,13.6 421.2,482.41 22.55,409.26"
         style="fill:#721518;fill-opacity:1;fill-rule:evenodd;stroke:none"
         transform="matrix(0.13333333,0,0,-0.13333333,0,638.06667)" />
      <path
         id="path39"
         d="m 2245.06,1239.36 h 133.91 c 285.91,0 569.7,49.09 839,145.15 52.52,18.73 91.84,63.01 104.22,117.39 12.4,54.37 -3.86,111.3 -43.08,150.95 l 23.78,372.83 c 3.97,62.33 -17.11,123.67 -58.57,170.38 -41.46,46.72 -99.86,74.94 -162.22,78.39 -124.61,6.91 -249.53,-5.7 -370.25,-37.36 -93.33,-24.48 -152.37,-116.34 -135.87,-211.41 26.18,-150.84 9.1,-306.02 -49.26,-447.56 -26.52,-64.31 -85.53,-109.44 -154.55,-118.18 -146.6,-18.58 -294.97,-18.58 -441.57,0 l 23.77,-133.18 290.69,-87.4"
         style="fill:#a41c21;fill-opacity:1;fill-rule:evenodd;stroke:none"
         transform="matrix(0.13333333,0,0,-0.13333333,0,638.06667)" />
      <path
         id="path40"
         d="m 3279.11,1652.85 23.78,372.83 c 2.76,43.3 -6.58,86.12 -26.43,123.88 -25.79,18.1 -55.67,30.18 -87.47,34.88 -112.44,16.63 -226.71,16.63 -339.15,0 -92.58,-13.69 -159.11,-96.2 -152.85,-189.58 8.08,-120.63 2.96,-241.78 -15.29,-361.29 -3.49,-22.85 3.82,-46.02 19.79,-62.73 15.98,-16.71 38.8,-25.07 61.78,-22.62 143.81,15.33 286.17,42.11 425.72,80.1 l 90.12,24.53"
         style="fill:#c01e24;fill-opacity:1;fill-rule:evenodd;stroke:none"
         transform="matrix(0.13333333,0,0,-0.13333333,0,638.06667)" />
      <path
         id="path41"
         d="m 2035.89,1917.79 192.68,-3.4 c 110.47,-1.95 213.15,56.71 267.58,152.85 127.72,225.6 317.44,212.36 535.46,208.94 144.59,-2.26 181.55,218.62 -17.46,256.42 -230.94,43.86 -591.14,39.64 -878.06,-16.99 -111.66,-22.04 -167.48,-182.86 -193.5,-293.65 -26.03,-110.8 9.62,-227.03 93.3,-304.17"
         style="fill:#231717;fill-opacity:1;fill-rule:evenodd;stroke:none"
         transform="matrix(0.13333333,0,0,-0.13333333,0,638.06667)" />
      <path
         id="path42"
         d="m 2035.89,1917.79 192.68,-3.4 c 68.59,-1.21 134.16,20.95 187.06,60.93 -131.56,159.35 -164.08,379.59 -85.32,569.7 -66.8,-7.39 -132.22,-17.17 -194.22,-29.41 -111.66,-22.04 -167.48,-182.86 -193.5,-293.65 -26.03,-110.8 9.62,-227.03 93.3,-304.17"
         style="fill:#151211;fill-opacity:1;fill-rule:evenodd;stroke:none"
         transform="matrix(0.13333333,0,0,-0.13333333,0,638.06667)" />
      <path
         id="path43"
         d="m 906.328,1745.89 -7.906,256.06 c -11.094,359.43 20.699,725.55 94.59,1091.06 24.188,119.68 36.288,325.38 194.948,345.06 409.07,50.72 815.21,57.26 1211.11,19.48 206.08,-19.66 117.17,-289.15 46.72,-425.83 -265.38,-514.9 -381.34,-1071.7 -333.29,-1600.33 7.82,-86.01 56.79,-156.95 132.56,-192.03 h -921.23 l -417.502,506.53"
         style="fill:#e61c2b;fill-opacity:1;fill-rule:evenodd;stroke:none"
         transform="matrix(0.13333333,0,0,-0.13333333,0,638.06667)" />
      <path
         id="path44"
         d="m 1534.8,3470.53 c 235.81,14.88 469.94,14.91 700.98,0.05 -15.34,-189.47 -166.39,-338.23 -350.49,-338.23 -184.1,0 -335.14,148.74 -350.49,338.18"
         style="fill:#a41c21;fill-opacity:1;fill-rule:evenodd;stroke:none"
         transform="matrix(0.13333333,0,0,-0.13333333,0,638.06667)" />
      <path
         id="path45"
         d="m 1845.82,1239.36 h -454.1 l 12.15,4.23 78.12,738.8 187.48,-10.98 150.5,-213.59 16.11,-143.51 19.13,-154.37 -9.39,-220.58"
         style="fill:#a41c21;fill-opacity:1;fill-rule:evenodd;stroke:none"
         transform="matrix(0.13333333,0,0,-0.13333333,0,638.06667)" />
      <path
         id="path46"
         d="m 2394.74,3457.95 4.33,-0.4 c 206.08,-19.66 117.17,-289.15 46.72,-425.83 -265.38,-514.9 -381.34,-1071.7 -333.29,-1600.33 7.82,-86.01 56.79,-156.95 132.56,-192.03 H 2025.7 c -60,57.8 -94.26,137.27 -95.1,220.58 -3.81,378.68 57.07,755.23 180.02,1113.42 85.17,248.14 182.66,491.88 292.12,730.3 23.59,51.39 18.86,108.79 -8,154.29"
         style="fill:#a41c21;fill-opacity:1;fill-rule:evenodd;stroke:none"
         transform="matrix(0.13333333,0,0,-0.13333333,0,638.06667)" />
      <path
         id="path47"
         d="m 1635.88,3103.52 c 177.42,0 143.03,-312.46 75.61,-827.23 -67.42,-514.78 -142.35,-1036.93 -319.77,-1036.93 -177.41,0 -390.14,522.15 -322.72,1036.93 67.42,514.77 389.46,827.23 566.88,827.23"
         style="fill:#231717;fill-opacity:1;fill-rule:evenodd;stroke:none"
         transform="matrix(0.13333333,0,0,-0.13333333,0,638.06667)" />
      <path
         id="path48"
         d="m 1642.18,4025.25 c 194.29,0 518.3,-165.67 518.3,-370.03 0,-204.35 -324.01,-370.01 -518.3,-370.01 -194.29,0 -351.8,165.66 -351.8,370.01 0,204.36 157.51,370.03 351.8,370.03"
         style="fill:#231717;fill-opacity:1;fill-rule:evenodd;stroke:none"
         transform="matrix(0.13333333,0,0,-0.13333333,0,638.06667)" />
      <path
         id="path49"
         d="m 1642.18,3285.21 c 193.76,0 351.8,166.22 351.8,370.02 0,203.8 -158.04,370.02 -351.8,370.02 -193.76,0 -351.79,-166.22 -351.79,-370.02 0,-203.8 158.03,-370.02 351.79,-370.02"
         style="fill:#4d3034;fill-opacity:1;fill-rule:evenodd;stroke:none"
         transform="matrix(0.13333333,0,0,-0.13333333,0,638.06667)" />
      <path
         id="path50"
         d="m 1642.18,3399.52 c 133.9,0 243.11,114.87 243.11,255.7 0,140.84 -109.21,255.71 -243.11,255.71 -133.9,0 -243.11,-114.87 -243.11,-255.71 0,-140.83 109.21,-255.7 243.11,-255.7"
         style="fill:#fdddb9;fill-opacity:1;fill-rule:evenodd;stroke:none"
         transform="matrix(0.13333333,0,0,-0.13333333,0,638.06667)" />
      <path
         id="path51"
         d="m 737.484,1866.92 50.098,23.64 c 132.766,62.62 280.938,85.07 426.298,64.6 l -166.44,229.28 -259.858,-98.51 -50.098,-219.01"
         style="fill:#721518;fill-opacity:1;fill-rule:evenodd;stroke:none"
         transform="matrix(0.13333333,0,0,-0.13333333,0,638.06667)" />
      <path
         id="path52"
         d="m 1232.77,584.57 c 294.65,0 534.98,359.352 534.98,799.94 0,440.59 -240.33,799.93 -534.98,799.93 -294.665,0 -534.989,-359.34 -534.989,-799.93 0,-440.588 240.324,-799.94 534.989,-799.94"
         style="fill:#231717;fill-opacity:1;fill-rule:evenodd;stroke:none"
         transform="matrix(0.13333333,0,0,-0.13333333,0,638.06667)" />
      <path
         id="path53"
         d="m 1436.5,985.391 c 147.02,0 266.92,179.299 266.92,399.119 0,219.83 -119.9,399.12 -266.92,399.12 -147.02,0 -266.93,-179.29 -266.93,-399.12 0,-219.82 119.91,-399.119 266.93,-399.119"
         style="fill:#ae7681;fill-opacity:1;fill-rule:evenodd;stroke:none"
         transform="matrix(0.13333333,0,0,-0.13333333,0,638.06667)" />
      <path
         id="path54"
         d="m 1514.62,1198.17 c 68.64,0 124.62,83.71 124.62,186.34 0,102.63 -55.98,186.33 -124.62,186.33 -68.63,0 -124.61,-83.7 -124.61,-186.33 0,-102.63 55.98,-186.34 124.61,-186.34"
         style="fill:#d697a2;fill-opacity:1;fill-rule:evenodd;stroke:none"
         transform="matrix(0.13333333,0,0,-0.13333333,0,638.06667)" />
      <path
         id="path55"
         d="m 1487.56,840.879 c -37.25,-19.57 -77.29,-30.258 -119.02,-30.258 -198.17,0 -358.82,240.209 -358.82,536.519 0,229.96 96.77,426.1 232.73,502.43 -97.95,-99.58 -162.29,-267.55 -162.29,-458.01 0,-305.66 165.72,-553.458 370.15,-553.458 12.57,0 25,0.949 37.25,2.777"
         style="fill:#352122;fill-opacity:1;fill-rule:evenodd;stroke:none"
         transform="matrix(0.13333333,0,0,-0.13333333,0,638.06667)" />
      <path
         id="path56"
         d="m 1497.86,1394.25 260.3,496.31 82.82,-178.26 -187.73,-409.98 c -46.25,-100.99 -207.66,-7.73 -155.39,91.93"
         style="fill:#721518;fill-opacity:1;fill-rule:evenodd;stroke:none"
         transform="matrix(0.13333333,0,0,-0.13333333,0,638.06667)" />
      <path
         id="path57"
         d="m 1672.65,1727.52 85.51,163.04 82.82,-178.26 -38.45,-83.98 c 1.77,28.41 -8.9,56.91 -30.49,77.3 -26.47,24.99 -65.71,33.02 -99.39,21.9"
         style="fill:#4a1418;fill-opacity:1;fill-rule:evenodd;stroke:none"
         transform="matrix(0.13333333,0,0,-0.13333333,0,638.06667)" />
      <path
         id="path58"
         d="m 1855.21,1459.94 -15.76,131.69 c -17.27,144.29 -110.56,268.25 -244.42,324.78 -133.87,56.53 -287.77,36.97 -403.24,-51.26 -16.64,-12.72 -38.55,-16.26 -58.35,-9.43 -19.81,6.83 -34.88,23.12 -40.15,43.4 -20.53,79.01 -92.6,133.61 -174.216,131.99 -81.621,-1.61 -151.472,-59.03 -168.855,-138.79 -6.711,-30.79 -37.039,-50.39 -67.871,-43.84 -30.832,6.54 -50.59,36.75 -44.223,67.62 50.895,246.71 275.016,418.78 526.495,404.21 209.94,-12.16 404.89,-112.7 536.53,-276.69 131.63,-164 187.61,-376.09 154.06,-583.68"
         style="fill:#d31e25;fill-opacity:1;fill-rule:evenodd;stroke:none"
         transform="matrix(0.13333333,0,0,-0.13333333,0,638.06667)" />
      <path
         id="path59"
         d="m 1766.17,3565.48 c 46.99,0 85.33,40.31 85.33,89.75 0,49.43 -38.34,89.75 -85.33,89.75 -47,0 -85.33,-40.32 -85.33,-89.75 0,-49.44 38.33,-89.75 85.33,-89.75"
         style="fill:#ffffff;fill-opacity:1;fill-rule:evenodd;stroke:none"
         transform="matrix(0.13333333,0,0,-0.13333333,0,638.06667)" />
      <path
         id="path60"
         d="m 1973.79,3816.4 c 46.11,111.59 176.85,204.37 337.69,266.21 162.38,62.43 359.52,96.06 527.32,85.66 l -9.4,-159.85 c -146.46,9.07 -318.77,-20.37 -460.88,-75 -122.42,-47.08 -218.75,-109.96 -246.79,-177.82 l -147.94,60.8"
         style="fill:#231717;fill-opacity:1;fill-rule:evenodd;stroke:none"
         transform="matrix(0.13333333,0,0,-0.13333333,0,638.06667)" />
      <path
         id="path61"
         d="m 2837.11,3940.82 c 59.4,0 107.85,69.43 107.85,154.56 0,85.12 -48.45,154.55 -107.85,154.55 -59.41,0 -107.85,-69.43 -107.85,-154.55 0,-85.13 48.44,-154.56 107.85,-154.56"
         style="fill:#231717;fill-opacity:1;fill-rule:evenodd;stroke:none"
         transform="matrix(0.13333333,0,0,-0.13333333,0,638.06667)" />
      <path
         id="path62"
         d="m 2337.39,4169.98 c 57.89,14 121.09,-41.91 141.15,-124.87 20.06,-82.97 -10.6,-161.57 -68.5,-175.57 -57.89,-14 -121.09,41.91 -141.15,124.87 -20.06,82.97 10.61,161.57 68.5,175.57"
         style="fill:#231717;fill-opacity:1;fill-rule:evenodd;stroke:none"
         transform="matrix(0.13333333,0,0,-0.13333333,0,638.06667)" />
    </g>
  </g>
</svg>
