<?xml version="1.0" encoding="UTF-8" standalone="no"?>
<!-- Created with Inkscape (http://www.inkscape.org/) -->

<svg
   version="1.1"
   id="svg1"
   width="878.90668"
   height="878.90668"
   viewBox="0 0 878.90668 878.90668"
   sodipodi:docname="roof-chimney.svg"
   inkscape:version="1.4 (e7c3feb100, 2024-10-09)"
   xmlns:inkscape="http://www.inkscape.org/namespaces/inkscape"
   xmlns:sodipodi="http://sodipodi.sourceforge.net/DTD/sodipodi-0.dtd"
   xmlns="http://www.w3.org/2000/svg"
   xmlns:svg="http://www.w3.org/2000/svg">
  <defs
     id="defs1" />
  <sodipodi:namedview
     id="namedview1"
     pagecolor="#505050"
     bordercolor="#ffffff"
     borderopacity="1"
     inkscape:showpageshadow="0"
     inkscape:pageopacity="0"
     inkscape:pagecheckerboard="1"
     inkscape:deskcolor="#d1d1d1"
     inkscape:zoom="0.92728844"
     inkscape:cx="439.99254"
     inkscape:cy="439.45334"
     inkscape:window-width="1920"
     inkscape:window-height="1002"
     inkscape:window-x="0"
     inkscape:window-y="0"
     inkscape:window-maximized="1"
     inkscape:current-layer="g1">
    <inkscape:page
       x="0"
       y="0"
       inkscape:label="1"
       id="page1"
       width="878.90668"
       height="878.90668"
       margin="0"
       bleed="0" />
  </sodipodi:namedview>
  <g
     id="g1"
     inkscape:groupmode="layer"
     inkscape:label="1">
    <g
       id="group-R5">
      <path
         id="path2"
         d="M 0,0 H 6591.8 V 6591.8 H 0 V 0"
         style="fill:#bae5ed;fill-opacity:1;fill-rule:evenodd;stroke:none"
         transform="matrix(0.13333333,0,0,-0.13333333,0,878.90667)" />
      <path
         id="path3"
         d="M 619.547,6591.8 H 6425.03 c -3.79,-71.53 -24.31,-141.87 -60.79,-205.06 -60.79,-105.32 -160.94,-182.17 -278.42,-213.64 -98.16,-26.3 -181.87,-90.53 -232.67,-178.55 -50.83,-88.01 -64.6,-192.61 -38.29,-290.77 78.24,-291.99 -5.24,-603.54 -219,-817.31 -213.75,-213.75 -525.29,-297.22 -817.3,-218.98 -127.02,34.04 -262.54,-2.28 -355.54,-95.27 -92.99,-92.99 -129.31,-228.52 -95.26,-355.54 l 51.1,-190.74 H 2196.19 c 55.12,99.09 54.18,219.87 -2.54,318.08 -56.7,98.21 -160.81,159.44 -274.21,161.23 -138.24,2.19 -265.18,76.83 -334.31,196.57 -69.14,119.75 -70.3,267 -3.08,387.82 77.6,139.48 76.26,309.48 -3.55,447.72 -79.82,138.24 -226.36,224.4 -385.97,226.93 -312.104,4.96 -563.932,256.78 -568.882,568.89 l -4.101,258.62"
         style="fill:#96aeb3;fill-opacity:1;fill-rule:evenodd;stroke:none"
         transform="matrix(0.13333333,0,0,-0.13333333,0,878.90667)" />
      <path
         id="path4"
         d="m 1414.24,6591.8 h 2400.83 c 27.02,-71.73 41.27,-148.4 41.27,-226.56 0,-172.89 -69.66,-338.5 -193.25,-459.39 -120,-117.39 -187.65,-278.16 -187.65,-446.03 0,-167.87 67.65,-328.65 187.65,-446.03 98.45,-96.3 153.94,-228.2 153.94,-365.91 0,-137.71 -55.49,-269.61 -153.94,-365.9 l -261.75,-256.04 -234.17,25.17 c 67.1,116.23 67.1,259.44 0,375.68 -67.12,116.23 -191.13,187.84 -325.35,187.84 -158.3,0 -304.59,84.46 -383.76,221.56 -79.15,137.09 -79.15,306.02 0,443.11 75.7,131.12 75.7,292.66 0,423.79 -75.69,131.11 -215.58,211.88 -367,211.88 -373.8,0 -676.82,303.03 -676.82,676.83"
         style="fill:#829da4;fill-opacity:1;fill-rule:evenodd;stroke:none"
         transform="matrix(0.13333333,0,0,-0.13333333,0,878.90667)" />
      <path
         id="path5"
         d="M 6591.8,4576.83 V 1612.04 c -34.32,-3.47 -68.77,-5.32 -103.32,-5.32 -360.21,0 -657.12,191.91 -838.24,497.37 -206.21,-401.47 -574.32,-680.21 -956.09,-680.21 -158.71,0 -301.47,48.23 -420.89,133.33 -194.19,-480.3 -608.82,-827.48 -1040.48,-827.48 -459.4,0 -789.07,393.17 -816.26,921.62 -244.5,-342.78 -599.64,-566.62 -965.76,-566.62 -417.62,0 -739.123,291.25 -860.35,718.02 -84.949,-25.14 -172.031,-38.56 -259.769,-38.56 -119.227,0 -230.293,24.71 -330.641,70.11 v 2222.72 c 203.609,176.86 445.387,282.72 692.367,282.72 384.123,0 683.793,-255.94 811.553,-637.06 104.77,37.17 213.17,57.22 322.56,57.22 531.14,0 906.87,-471.07 912.71,-1092.99 217.25,280.29 519.37,460.43 830.33,460.43 170.5,0 323.09,-54.22 449.04,-149.34 193.19,455.3 590.42,781.9 1003.68,781.9 221.36,0 411.81,-93.73 551.01,-250.71 186.28,520.4 576.72,929.81 1018.55,1067.64"
         style="fill:#ffffff;fill-opacity:1;fill-rule:evenodd;stroke:none"
         transform="matrix(0.13333333,0,0,-0.13333333,0,878.90667)" />
      <path
         id="path6"
         d="M 0,0 H 6591.8 V 2550.26 H 0 V 0"
         style="fill:#971a1f;fill-opacity:1;fill-rule:evenodd;stroke:none"
         transform="matrix(0.13333333,0,0,-0.13333333,0,878.90667)" />
      <path
         id="path7"
         d="M 3456.15,1793.35 H 5838.54 V 1066.87 H 3456.15 Z M 400.699,2199.3 H 2035.26 v -438 H 400.699 v 438 0"
         style="fill:#b21d23;fill-opacity:1;fill-rule:evenodd;stroke:none"
         transform="matrix(0.13333333,0,0,-0.13333333,0,878.90667)" />
      <path
         id="path8"
         d="M 2964.72,543.391 H 5154.81 V 276.301 H 2964.72 Z M 5154.81,2316.83 H 6362.04 V 2049.75 H 5154.81 v 267.08 z M 1020.34,810.469 h 523.48 V 543.391 h -523.48 v 267.078 0"
         style="fill:#84171c;fill-opacity:1;fill-rule:evenodd;stroke:none"
         transform="matrix(0.13333333,0,0,-0.13333333,0,878.90667)" />
      <path
         id="path9"
         d="M 2163.46,1296.56 H 4428.34 V 3673.63 H 2163.46 V 1296.56"
         style="fill:#d06a1c;fill-opacity:1;fill-rule:evenodd;stroke:none"
         transform="matrix(0.13333333,0,0,-0.13333333,0,878.90667)" />
      <path
         id="path10"
         d="m 2170.32,3673.61 h 2258.02 v -827.93 l -2264.88,802.61 6.86,25.32"
         style="fill:#b2541e;fill-opacity:1;fill-rule:evenodd;stroke:none"
         transform="matrix(0.13333333,0,0,-0.13333333,0,878.90667)" />
      <path
         id="path11"
         d="M 4428.34,1296.56 5682.05,2550.27 H 4428.34 Z"
         style="fill:#661316;fill-opacity:1;fill-rule:evenodd;stroke:none"
         transform="matrix(0.13333333,0,0,-0.13333333,0,878.90667)" />
      <path
         id="path12"
         d="m 4428.34,1296.56 496.77,496.79 h -496.77 z"
         style="fill:#971a1f;fill-opacity:1;fill-rule:evenodd;stroke:none"
         transform="matrix(0.13333333,0,0,-0.13333333,0,878.90667)" />
      <path
         id="path13"
         d="m 5181.52,2049.75 267.09,267.08 h -293.8 v -267.08 h 26.71"
         style="fill:#471417;fill-opacity:1;fill-rule:evenodd;stroke:none"
         transform="matrix(0.13333333,0,0,-0.13333333,0,878.90667)" />
      <path
         id="path14"
         d="m 2337.75,2991.23 h 657.03 v -216.61 h -657.03 z m 256.41,-555.55 H 3295.9 V 2168.6 h -701.74 v 267.08 z m 929.46,710.46 h 657.01 v -309.81 h -657.01 v 309.81 z m 582.22,379.25 h 405.99 v -240.37 h -405.99 v 240.37 z M 3852.11,2302.16 h 291.14 v -320.52 h -291.14 v 320.52 z m 328.52,440.02 h 293.8 v -309.83 h -293.8 v 309.83 z M 2337.75,1793.35 h 576.91 v -216.61 h -576.91 v 216.61 z m 1118.4,-110.84 h 496.78 v -184.44 h -496.78 v 184.44 z m 724.48,2.52 h 293.8 v -216.18 h -293.8 v 216.18 z m -2051.21,414.8 h 293.79 v -207.01 h -293.79 v 207.01 z m -21.35,1425.56 h 459.36 v -309.81 h -459.36 v 309.81 0"
         style="fill:#ed8728;fill-opacity:1;fill-rule:evenodd;stroke:none"
         transform="matrix(0.13333333,0,0,-0.13333333,0,878.90667)" />
      <path
         id="path15"
         d="m 4105.84,3525.39 h 405.99 v -240.37 h -405.99 z m -525.35,-379.25 600.14,-212.67 v 212.67 h -600.14 z m -1070.25,379.25 h 57.19 v -20.27 l -57.19,20.27 v 0"
         style="fill:#d8701b;fill-opacity:1;fill-rule:evenodd;stroke:none"
         transform="matrix(0.13333333,0,0,-0.13333333,0,878.90667)" />
      <path
         id="path16"
         d="m 3531.62,1923.43 h 750.5 v -160.8 h -750.5 z m 750.5,311.94 h 192.31 v -219 h -192.31 v 219 z M 2642.24,2049.75 h 293.79 v -126.32 h -293.79 v 126.32 z m -528.86,364.56 h 293.8 v -178.94 h -293.8 v 178.94 z m 251.09,259.09 h 499.47 v -109.5 h -499.47 v 109.5 z m 1044.31,0 h 654.36 v -219.01 h -654.36 v 219.01 z m -638.33,881.38 h 539.5 v -219.01 h -539.5 v 219.01 z m 982.83,-197.63 h 192.3 V 3230.8 h -192.3 v 126.35 z m -1639.9,-1888.3 h 397.97 v -61.44 h -397.97 v 61.44 0"
         style="fill:#b2541e;fill-opacity:1;fill-rule:evenodd;stroke:none"
         transform="matrix(0.13333333,0,0,-0.13333333,0,878.90667)" />
      <path
         id="path17"
         d="m 3753.28,3357.15 h 192.3 V 3230.8 h -192.3 z m -982.83,76.05 274.88,-97.43 h 264.62 v 219.01 h -539.5 v -121.58 0"
         style="fill:#9d471d;fill-opacity:1;fill-rule:evenodd;stroke:none"
         transform="matrix(0.13333333,0,0,-0.13333333,0,878.90667)" />
      <path
         id="path18"
         d="m 3062.88,3171.54 h 369.9 V 3027.3 h -369.9 z m -949.5,-50.75 h 136.21 v -233.7 h -136.21 v 233.7 z m 949.5,-263.09 h 200.31 v -259.07 h -200.31 v 259.07 z m 440.69,-540.87 h 187.62 v -233.7 h -187.62 v 233.7 z m -399.29,-345.86 h 172.26 v -415.33 h -172.26 v 415.33 z m 522.13,-502.12 h 464.73 v -108.16 h -464.73 v 108.16 z m 726.49,1630.56 h 121.53 V 2937.83 H 4352.9 v 161.58 0"
         style="fill:#873d1b;fill-opacity:1;fill-rule:evenodd;stroke:none"
         transform="matrix(0.13333333,0,0,-0.13333333,0,878.90667)" />
      <path
         id="path19"
         d="m 1907.06,3648.29 h 2777.68 v 448.7 H 1907.06 v -448.7"
         style="fill:#783819;fill-opacity:1;fill-rule:evenodd;stroke:none"
         transform="matrix(0.13333333,0,0,-0.13333333,0,878.90667)" />
      <path
         id="path20"
         d="m 2278.12,223.102 c 0,6.777 -0.97,12.609 -2.99,17.429 -1.94,4.867 -4.69,8.578 -8.22,11.231 -3.51,2.566 -7.37,3.898 -11.66,3.898 -6.76,0 -12.47,-2.859 -17.13,-8.398 -4.67,-5.602 -6.99,-13.75 -6.99,-24.614 0,-10.207 2.32,-18.128 6.92,-23.757 4.64,-5.661 10.38,-8.539 17.2,-8.539 4.09,0 7.87,1.25 11.37,3.75 3.44,2.457 6.25,6.16 8.35,11.078 2.11,4.98 3.15,10.929 3.15,17.922 z m -48.13,37.339 v -3.089 c 4.61,5.937 9.39,10.328 14.37,13.089 4.99,2.797 10.65,4.231 16.95,4.231 7.54,0 14.51,-2.063 20.87,-6.172 6.34,-4.039 11.36,-9.961 15.06,-17.801 3.69,-7.847 5.51,-17.078 5.51,-27.801 0,-7.878 -1.03,-15.187 -3.17,-21.707 -2.11,-6.632 -5.04,-12.179 -8.77,-16.652 -3.72,-4.469 -8.13,-7.949 -13.18,-10.297 -5.09,-2.453 -10.54,-3.652 -16.32,-3.652 -7.05,0 -12.95,1.461 -17.71,4.41 -4.8,2.93 -9.31,7.219 -13.61,12.941 V 149.48 c 0,-11.3 -3.94,-16.89 -11.79,-16.89 -4.63,0 -7.69,1.41 -9.16,4.332 -1.5,2.93 -2.25,7.168 -2.25,12.726 v 110.633 c 0,4.848 0.99,8.539 3.05,10.918 2.06,2.403 4.84,3.641 8.36,3.641 3.47,0 6.32,-1.238 8.5,-3.738 2.19,-2.512 3.29,-6.063 3.29,-10.661"
         style="fill:#ffffff;fill-opacity:1;fill-rule:nonzero;stroke:none"
         transform="matrix(0.13333333,0,0,-0.13333333,0,878.90667)" />
      <path
         id="path21"
         d="m 2386.3,185.082 v 3.258 c -2.97,-3.899 -6.04,-7.121 -9.3,-9.719 -3.24,-2.691 -6.78,-4.641 -10.59,-5.91 -3.86,-1.262 -8.25,-1.91 -13.15,-1.91 -5.93,0 -11.25,1.301 -15.96,3.828 -4.72,2.582 -8.35,6.109 -10.91,10.609 -3.1,5.453 -4.61,13.274 -4.61,23.434 v 50.808 c 0,5.102 1.11,8.961 3.34,11.461 2.21,2.539 5.14,3.84 8.8,3.84 3.73,0 6.72,-1.301 9,-3.883 2.27,-2.566 3.41,-6.41 3.41,-11.418 v -41.039 c 0,-5.921 0.49,-10.91 1.39,-14.941 1.02,-4.059 2.72,-7.219 5.26,-9.52 2.44,-2.261 5.81,-3.402 10.07,-3.402 4.18,0 8.08,1.301 11.7,3.863 3.69,2.547 6.36,5.868 8.02,9.989 1.4,3.66 2.07,11.609 2.07,23.879 v 31.171 c 0,5.008 1.14,8.852 3.43,11.418 2.26,2.582 5.22,3.883 8.87,3.883 3.68,0 6.61,-1.301 8.82,-3.84 2.21,-2.5 3.3,-6.359 3.3,-11.461 v -74.242 c 0,-4.879 -1.03,-8.558 -3.18,-10.957 -2.09,-2.48 -4.84,-3.672 -8.21,-3.672 -3.34,0 -6.11,1.289 -8.3,3.782 -2.18,2.57 -3.27,6.078 -3.27,10.691"
         style="fill:#ffffff;fill-opacity:1;fill-rule:nonzero;stroke:none"
         transform="matrix(0.13333333,0,0,-0.13333333,0,878.90667)" />
      <path
         id="path22"
         d="m 2457.52,222.09 c 0,-10.192 2.22,-18.008 6.67,-23.512 4.48,-5.449 10.34,-8.226 17.61,-8.226 6.2,0 11.49,2.82 15.99,8.418 4.48,5.609 6.69,13.582 6.69,24.05 0,6.84 -0.93,12.649 -2.77,17.489 -1.88,4.89 -4.55,8.679 -7.92,11.339 -3.47,2.633 -7.42,4.012 -11.99,4.012 -4.71,0 -8.83,-1.379 -12.5,-4.012 -3.68,-2.66 -6.54,-6.539 -8.65,-11.558 -2.1,-5 -3.13,-11 -3.13,-18 z m -1.17,76.172 v -39.16 c 4.57,5.058 9.3,8.847 14.1,11.546 4.79,2.661 10.75,4.024 17.83,4.024 8.14,0 15.27,-2.063 21.45,-6.082 6.12,-4.102 10.92,-9.91 14.29,-17.57 3.42,-7.668 5.09,-16.731 5.09,-27.25 0,-7.801 -0.94,-14.899 -2.81,-21.411 -1.91,-6.461 -4.63,-12.05 -8.22,-16.828 -3.63,-4.761 -7.99,-8.383 -13.11,-11.082 -5.14,-2.551 -10.8,-3.859 -16.95,-3.859 -3.78,0 -7.33,0.469 -10.69,1.422 -3.34,0.929 -6.17,2.136 -8.48,3.707 -2.36,1.492 -4.35,3.09 -6,4.691 -1.65,1.649 -3.8,4.078 -6.5,7.328 v -2.5 c 0,-4.859 -1.13,-8.488 -3.36,-10.957 -2.2,-2.48 -5.04,-3.691 -8.43,-3.691 -3.5,0 -6.24,1.211 -8.34,3.691 -2.06,2.539 -3.09,6.129 -3.09,10.957 V 297.16 c 0,5.141 1.01,9.078 3.03,11.719 2,2.691 4.78,4.012 8.4,4.012 3.75,0 6.68,-1.282 8.7,-3.832 2.06,-2.52 3.09,-6.09 3.09,-10.797"
         style="fill:#ffffff;fill-opacity:1;fill-rule:nonzero;stroke:none"
         transform="matrix(0.13333333,0,0,-0.13333333,0,878.90667)" />
      <path
         id="path23"
         d="m 2546.44,186.18 v 111.129 c 0,5.16 1.09,9.023 3.27,11.652 2.2,2.609 5.15,3.93 8.86,3.93 3.72,0 6.71,-1.289 9.01,-3.911 2.24,-2.582 3.4,-6.5 3.4,-11.671 V 186.18 c 0,-5.18 -1.18,-9.098 -3.46,-11.731 -2.31,-2.551 -5.29,-3.859 -8.95,-3.859 -3.59,0 -6.49,1.34 -8.75,4.039 -2.26,2.711 -3.38,6.531 -3.38,11.551"
         style="fill:#ffffff;fill-opacity:1;fill-rule:nonzero;stroke:none"
         transform="matrix(0.13333333,0,0,-0.13333333,0,878.90667)" />
      <path
         id="path24"
         d="M 2620.89,260.191 V 186.18 c 0,-5.168 -1.19,-9.032 -3.48,-11.668 -2.35,-2.582 -5.34,-3.922 -8.91,-3.922 -3.61,0 -6.53,1.34 -8.77,4.031 -2.24,2.719 -3.38,6.539 -3.38,11.559 v 73.3 c 0,5.008 1.14,8.852 3.38,11.418 2.24,2.582 5.16,3.883 8.77,3.883 3.57,0 6.56,-1.301 8.91,-3.883 2.29,-2.566 3.48,-6.109 3.48,-10.707 z m -12.15,26.528 c -3.4,0 -6.31,1.062 -8.79,3.332 -2.36,2.168 -3.6,5.308 -3.6,9.301 0,3.617 1.24,6.57 3.73,8.98 2.46,2.328 5.36,3.449 8.66,3.449 3.19,0 6.02,-1.043 8.48,-3.16 2.43,-2.121 3.67,-5.25 3.67,-9.269 0,-3.981 -1.21,-7.043 -3.59,-9.243 -2.4,-2.23 -5.24,-3.39 -8.56,-3.39"
         style="fill:#ffffff;fill-opacity:1;fill-rule:nonzero;stroke:none"
         transform="matrix(0.13333333,0,0,-0.13333333,0,878.90667)" />
      <path
         id="path25"
         d="m 2734.21,202.32 c 0,-3.179 -0.89,-6.601 -2.71,-10.218 -1.87,-3.633 -4.65,-7.082 -8.4,-10.36 -3.74,-3.281 -8.46,-5.933 -14.15,-7.902 -5.69,-2.051 -12.13,-3.039 -19.23,-3.039 -15.19,0 -27.02,4.621 -35.55,13.82 -8.51,9.258 -12.76,21.598 -12.76,37.129 0,10.488 1.94,19.82 5.82,27.859 3.9,8.039 9.57,14.321 16.92,18.723 7.35,4.43 16.19,6.629 26.42,6.629 6.37,0 12.22,-0.992 17.52,-2.891 5.31,-1.949 9.81,-4.48 13.47,-7.511 3.7,-3.071 6.5,-6.34 8.48,-9.809 1.98,-3.469 2.91,-6.711 2.91,-9.719 0,-3.031 -1.11,-5.609 -3.27,-7.769 -2.2,-2.141 -4.83,-3.211 -7.96,-3.211 -2.06,0 -3.74,0.609 -5.1,1.699 -1.32,1.051 -2.87,2.77 -4.53,5.262 -3.01,4.726 -6.14,8.308 -9.41,10.75 -3.28,2.347 -7.43,3.59 -12.42,3.59 -7.29,0 -13.15,-3.012 -17.58,-8.911 -4.43,-5.949 -6.64,-14.043 -6.64,-24.281 0,-4.808 0.59,-9.301 1.71,-13.32 1.15,-4.039 2.8,-7.449 4.93,-10.328 2.17,-2.852 4.76,-5 7.85,-6.453 3.04,-1.489 6.41,-2.239 10.04,-2.239 4.95,0 9.14,1.168 12.65,3.578 3.52,2.391 6.63,6.024 9.29,10.864 1.54,2.929 3.14,5.16 4.89,6.828 1.75,1.601 3.87,2.379 6.38,2.379 3,0 5.49,-1.16 7.48,-3.508 1.94,-2.43 2.95,-4.949 2.95,-7.641"
         style="fill:#ffffff;fill-opacity:1;fill-rule:nonzero;stroke:none"
         transform="matrix(0.13333333,0,0,-0.13333333,0,878.90667)" />
      <path
         id="path26"
         d="m 2774.66,222.82 c 0,-6.929 1.03,-12.82 3.1,-17.73 2.07,-4.899 4.87,-8.531 8.45,-10.988 3.64,-2.5 7.55,-3.75 11.77,-3.75 4.35,0 8.28,1.199 11.84,3.527 3.57,2.359 6.41,5.961 8.56,10.812 2.12,4.84 3.17,10.899 3.17,18.129 0,6.86 -1.05,12.711 -3.17,17.621 -2.15,4.957 -5.01,8.668 -8.64,11.321 -3.63,2.566 -7.59,3.898 -11.89,3.898 -4.49,0 -8.5,-1.379 -12.06,-4.012 -3.5,-2.66 -6.27,-6.5 -8.21,-11.488 -1.94,-5 -2.92,-10.699 -2.92,-17.34 z m 48.25,-37.582 v 2.5 c -3.29,-3.937 -6.55,-7.136 -9.78,-9.597 -3.17,-2.481 -6.67,-4.352 -10.41,-5.653 -3.73,-1.226 -7.84,-1.898 -12.27,-1.898 -5.85,0 -11.32,1.308 -16.31,3.859 -4.99,2.699 -9.33,6.352 -12.98,11.172 -3.66,4.801 -6.42,10.481 -8.34,17.008 -1.9,6.473 -2.82,13.519 -2.82,21.141 0,15.96 3.75,28.5 11.24,37.46 7.51,8.938 17.36,13.442 29.58,13.442 7.08,0 13.05,-1.301 17.89,-3.891 4.84,-2.492 9.59,-6.41 14.2,-11.679 v 37.828 c 0,5.281 1,9.23 3.03,11.922 1.99,2.699 4.83,4.039 8.56,4.039 3.72,0 6.56,-1.231 8.6,-3.68 2.01,-2.461 3.04,-6.152 3.04,-10.949 V 185.238 c 0,-4.879 -1.1,-8.558 -3.26,-10.957 -2.16,-2.48 -4.95,-3.691 -8.38,-3.691 -3.31,0 -6.12,1.25 -8.32,3.801 -2.19,2.5 -3.27,6.101 -3.27,10.847"
         style="fill:#ffffff;fill-opacity:1;fill-rule:nonzero;stroke:none"
         transform="matrix(0.13333333,0,0,-0.13333333,0,878.90667)" />
      <path
         id="path27"
         d="m 2938.04,222.629 c 0,10.41 -2.22,18.562 -6.63,24.371 -4.4,5.801 -10.34,8.75 -17.75,8.75 -4.83,0 -9.03,-1.328 -12.7,-3.922 -3.64,-2.609 -6.47,-6.43 -8.44,-11.519 -1.98,-5.008 -2.97,-10.911 -2.97,-17.68 0,-6.688 0.99,-12.539 2.93,-17.539 1.94,-4.988 4.73,-8.82 8.38,-11.52 3.59,-2.609 7.91,-3.922 12.8,-3.922 7.41,0 13.35,2.883 17.75,8.743 4.41,5.82 6.63,13.918 6.63,24.238 z m 24.63,0 c 0,-7.609 -1.14,-14.629 -3.42,-21.141 -2.27,-6.367 -5.56,-11.929 -9.87,-16.578 -4.33,-4.64 -9.49,-8.09 -15.49,-10.629 -5.99,-2.48 -12.78,-3.691 -20.23,-3.691 -7.43,0 -14.1,1.211 -20.06,3.762 -5.93,2.476 -11.08,6.058 -15.43,10.73 -4.34,4.68 -7.62,10.148 -9.91,16.5 -2.24,6.387 -3.34,13.367 -3.34,21.086 0,7.762 1.14,14.863 3.41,21.273 2.29,6.469 5.54,11.957 9.79,16.571 4.27,4.527 9.41,8.066 15.48,10.527 6.08,2.461 12.74,3.742 20.06,3.742 7.44,0 14.2,-1.281 20.23,-3.781 6.04,-2.512 11.23,-6.102 15.55,-10.719 4.32,-4.621 7.61,-10.152 9.83,-16.543 2.3,-6.359 3.4,-13.418 3.4,-21.109"
         style="fill:#ffffff;fill-opacity:1;fill-rule:nonzero;stroke:none"
         transform="matrix(0.13333333,0,0,-0.13333333,0,878.90667)" />
      <path
         id="path28"
         d="m 3066.37,243.781 c -1.83,-4.332 -2.72,-11.953 -2.72,-22.961 v -34.05 c 0,-5.372 -1.15,-9.43 -3.52,-12.141 -2.32,-2.699 -5.43,-4.039 -9.27,-4.039 -3.7,0 -6.69,1.34 -8.99,4.039 -2.31,2.711 -3.45,6.769 -3.45,12.141 v 40.851 c 0,6.43 -0.24,11.438 -0.67,15.039 -0.43,3.539 -1.55,6.488 -3.4,8.77 -1.83,2.3 -4.79,3.449 -8.79,3.449 -8.03,0 -13.29,-2.879 -15.88,-8.68 -2.55,-5.758 -3.79,-14.008 -3.79,-24.801 V 186.77 c 0,-5.36 -1.17,-9.391 -3.46,-12.051 -2.32,-2.789 -5.37,-4.129 -9.1,-4.129 -3.75,0 -6.82,1.34 -9.16,4.129 -2.39,2.66 -3.53,6.691 -3.53,12.011 v 73.352 c 0,4.816 1.03,8.496 3.13,10.969 2.16,2.488 4.95,3.789 8.44,3.789 3.36,0 6.16,-1.18 8.41,-3.52 2.25,-2.34 3.36,-5.558 3.36,-9.711 v -2.437 c 4.25,5.316 8.82,9.258 13.66,11.726 4.85,2.481 10.3,3.774 16.19,3.774 6.17,0 11.43,-1.301 15.89,-3.891 4.46,-2.551 8.09,-6.453 10.95,-11.609 4.14,5.199 8.6,9.16 13.33,11.668 4.75,2.539 9.97,3.832 15.72,3.832 6.75,0 12.52,-1.363 17.36,-4.152 4.87,-2.782 8.49,-6.68 10.89,-11.84 2.11,-4.621 3.14,-11.899 3.14,-21.879 V 186.77 c 0,-5.372 -1.15,-9.43 -3.47,-12.141 -2.38,-2.699 -5.44,-4.039 -9.29,-4.039 -3.72,0 -6.77,1.34 -9.11,4.129 -2.4,2.66 -3.59,6.691 -3.59,12.051 v 43.109 c 0,5.5 -0.23,9.891 -0.66,13.242 -0.45,3.34 -1.66,6.098 -3.66,8.359 -1.96,2.25 -4.98,3.399 -8.97,3.399 -3.23,0 -6.32,-1.027 -9.19,-2.988 -2.96,-2.032 -5.17,-4.719 -6.8,-8.11 v 0"
         style="fill:#ffffff;fill-opacity:1;fill-rule:nonzero;stroke:none"
         transform="matrix(0.13333333,0,0,-0.13333333,0,878.90667)" />
      <path
         id="path29"
         d="m 3205.41,222.16 c -3.62,-1.43 -8.85,-2.859 -15.72,-4.422 -6.86,-1.519 -11.63,-2.609 -14.27,-3.367 -2.65,-0.742 -5.15,-2.121 -7.54,-4.211 -2.42,-2.148 -3.61,-5.07 -3.61,-8.828 0,-3.902 1.41,-7.184 4.23,-9.891 2.82,-2.769 6.51,-4.113 11.08,-4.113 4.84,0 9.35,1.141 13.44,3.363 4.12,2.207 7.14,5.098 9.04,8.579 2.22,3.878 3.35,10.261 3.35,19.218 z m 1.6,-37.14 c -5.96,-4.821 -11.69,-8.43 -17.24,-10.778 -5.53,-2.453 -11.76,-3.652 -18.64,-3.652 -6.33,0 -11.83,1.308 -16.61,3.859 -4.78,2.633 -8.45,6.153 -11.03,10.633 -2.57,4.438 -3.88,9.219 -3.88,14.438 0,7 2.18,12.96 6.42,17.929 4.23,4.891 10.07,8.211 17.5,9.93 1.56,0.371 5.45,1.191 11.62,2.5 6.2,1.351 11.46,2.519 15.91,3.633 4.38,1.058 9.19,2.398 14.35,3.949 -0.33,6.809 -1.62,11.758 -3.92,14.961 -2.32,3.129 -7.13,4.687 -14.36,4.687 -6.25,0 -10.92,-0.871 -14.12,-2.718 -3.13,-1.762 -5.83,-4.532 -8.06,-8.192 -2.26,-3.609 -3.83,-6.008 -4.76,-7.179 -0.95,-1.161 -2.95,-1.692 -5.98,-1.692 -2.78,0 -5.15,0.902 -7.13,2.731 -2.04,1.863 -3.05,4.211 -3.05,7.113 0,4.5 1.55,8.898 4.6,13.109 3.06,4.278 7.82,7.77 14.3,10.559 6.46,2.762 14.54,4.121 24.2,4.121 10.78,0 19.27,-1.359 25.48,-4.02 6.16,-2.609 10.5,-6.781 13.04,-12.601 2.58,-5.711 3.86,-13.399 3.86,-22.871 0,-6.008 0,-11.168 -0.06,-15.321 -0.06,-4.207 -0.06,-8.878 -0.13,-14.007 0,-4.809 0.76,-9.86 2.3,-15.039 1.49,-5.204 2.26,-8.614 2.26,-10.09 0,-2.614 -1.22,-5.043 -3.56,-7.172 -2.32,-2.149 -5.02,-3.25 -8.01,-3.25 -2.54,0 -4.99,1.211 -7.5,3.691 -2.43,2.469 -5.04,6.078 -7.8,10.739"
         style="fill:#ffffff;fill-opacity:1;fill-rule:nonzero;stroke:none"
         transform="matrix(0.13333333,0,0,-0.13333333,0,878.90667)" />
      <path
         id="path30"
         d="M 3278.99,260.191 V 186.18 c 0,-5.168 -1.18,-9.032 -3.5,-11.668 -2.34,-2.582 -5.28,-3.922 -8.88,-3.922 -3.6,0 -6.56,1.34 -8.78,4.031 -2.26,2.719 -3.38,6.539 -3.38,11.559 v 73.3 c 0,5.008 1.12,8.852 3.38,11.418 2.22,2.582 5.18,3.883 8.78,3.883 3.6,0 6.54,-1.301 8.88,-3.883 2.32,-2.566 3.5,-6.109 3.5,-10.707 z m -12.13,26.528 c -3.4,0 -6.3,1.062 -8.75,3.332 -2.43,2.168 -3.66,5.308 -3.66,9.301 0,3.617 1.26,6.57 3.76,8.98 2.46,2.328 5.37,3.449 8.65,3.449 3.16,0 6.01,-1.043 8.48,-3.16 2.41,-2.121 3.65,-5.25 3.65,-9.269 0,-3.981 -1.19,-7.043 -3.58,-9.243 -2.42,-2.23 -5.26,-3.39 -8.55,-3.39"
         style="fill:#ffffff;fill-opacity:1;fill-rule:nonzero;stroke:none"
         transform="matrix(0.13333333,0,0,-0.13333333,0,878.90667)" />
      <path
         id="path31"
         d="m 3326.69,260.57 v -3.058 c 4.27,5.918 9.02,10.289 14.12,13.047 5.14,2.812 11.01,4.222 17.73,4.222 6.44,0 12.23,-1.472 17.36,-4.461 5.05,-2.91 8.89,-7.031 11.39,-12.422 1.61,-3.148 2.64,-6.558 3.14,-10.16 0.45,-3.617 0.74,-8.238 0.74,-13.886 V 186.18 c 0,-5.168 -1.17,-9.032 -3.39,-11.668 -2.26,-2.582 -5.19,-3.922 -8.76,-3.922 -3.64,0 -6.63,1.34 -8.84,4.039 -2.29,2.711 -3.47,6.531 -3.47,11.551 v 42.679 c 0,8.469 -1.08,14.922 -3.34,19.403 -2.3,4.468 -6.77,6.718 -13.49,6.718 -4.37,0 -8.36,-1.371 -11.96,-4.121 -3.6,-2.679 -6.23,-6.429 -7.91,-11.199 -1.2,-3.789 -1.82,-10.922 -1.82,-21.43 v -32.05 c 0,-5.18 -1.13,-9.098 -3.46,-11.731 -2.32,-2.551 -5.29,-3.859 -8.93,-3.859 -3.53,0 -6.46,1.34 -8.72,4.031 -2.32,2.719 -3.43,6.539 -3.43,11.559 v 74.011 c 0,4.918 1,8.528 3.06,10.95 2.02,2.398 4.86,3.64 8.36,3.64 2.15,0 4.12,-0.582 5.81,-1.621 1.81,-1.039 3.16,-2.68 4.21,-4.73 1.02,-2.2 1.6,-4.77 1.6,-7.86"
         style="fill:#ffffff;fill-opacity:1;fill-rule:nonzero;stroke:none"
         transform="matrix(0.13333333,0,0,-0.13333333,0,878.90667)" />
      <path
         id="path32"
         d="m 3430.56,258.809 19.84,-58.168 21.4,60.711 c 1.72,4.878 3.35,8.296 4.99,10.359 1.64,2.008 4.05,3.07 7.34,3.07 3.14,0 5.79,-1.121 8.01,-3.34 2.16,-2.179 3.28,-4.66 3.28,-7.601 0,-1.11 -0.23,-2.41 -0.61,-3.871 -0.36,-1.547 -0.82,-2.969 -1.35,-4.297 -0.52,-1.281 -1.04,-2.801 -1.75,-4.461 l -23.56,-61.012 c -0.66,-1.73 -1.53,-3.988 -2.56,-6.679 -1.08,-2.661 -2.26,-4.95 -3.52,-6.93 -1.31,-1.871 -2.89,-3.328 -4.75,-4.399 -1.91,-1.05 -4.22,-1.601 -6.92,-1.601 -3.47,0 -6.25,0.808 -8.32,2.461 -2.09,1.668 -3.63,3.461 -4.58,5.469 -0.99,1.949 -2.68,5.851 -5,11.679 l -23.4,60.34 c -0.55,1.5 -1.11,3.012 -1.7,4.492 -0.55,1.508 -0.99,3.008 -1.41,4.61 -0.36,1.589 -0.58,2.929 -0.58,4.019 0,1.781 0.5,3.512 1.55,5.219 1.01,1.73 2.44,3.18 4.23,4.23 1.81,1.09 3.72,1.672 5.85,1.672 4.05,0 6.87,-1.242 8.39,-3.73 1.55,-2.41 3.26,-6.492 5.13,-12.242"
         style="fill:#ffffff;fill-opacity:1;fill-rule:nonzero;stroke:none"
         transform="matrix(0.13333333,0,0,-0.13333333,0,878.90667)" />
      <path
         id="path33"
         d="m 3530.99,230.969 h 44.51 c -0.58,8.75 -2.83,15.32 -6.78,19.64 -3.95,4.321 -9.12,6.5 -15.53,6.5 -6.09,0 -11.12,-2.199 -15.03,-6.589 -3.95,-4.399 -6.28,-10.918 -7.17,-19.551 z m 48.05,-14.551 h -48.05 c 0.02,-5.867 1.19,-10.969 3.34,-15.457 2.23,-4.402 5.13,-7.731 8.74,-10 3.63,-2.289 7.66,-3.371 12.03,-3.371 2.92,0 5.63,0.351 8.04,1.039 2.43,0.762 4.78,1.891 7.09,3.402 2.24,1.52 4.33,3.149 6.26,4.957 1.89,1.723 4.45,4.071 7.45,7.094 1.29,1.188 3.09,1.707 5.4,1.707 2.55,0 4.58,-0.699 6.13,-2.16 1.58,-1.438 2.33,-3.461 2.33,-6.059 0,-2.34 -0.86,-5.058 -2.63,-8.179 -1.72,-3.059 -4.29,-6.039 -7.85,-8.922 -3.53,-2.828 -7.93,-5.168 -13.23,-7.09 -5.28,-1.859 -11.35,-2.789 -18.29,-2.789 -15.77,0 -28.03,4.711 -36.76,14.07 -8.73,9.43 -13.11,22.121 -13.11,38.16 0,7.68 1.11,14.641 3.24,21.09 2.15,6.5 5.29,12.051 9.42,16.66 4.15,4.668 9.22,8.25 15.29,10.68 6.08,2.469 12.77,3.711 20.18,3.711 9.52,0 17.76,-2.109 24.64,-6.371 6.86,-4.219 12.01,-9.621 15.41,-16.32 3.44,-6.711 5.13,-13.52 5.13,-20.5 0,-6.399 -1.71,-10.579 -5.29,-12.481 -3.57,-1.937 -8.5,-2.871 -14.91,-2.871"
         style="fill:#ffffff;fill-opacity:1;fill-rule:nonzero;stroke:none"
         transform="matrix(0.13333333,0,0,-0.13333333,0,878.90667)" />
      <path
         id="path34"
         d="m 3708,202.32 c 0,-3.179 -0.89,-6.601 -2.75,-10.218 -1.84,-3.633 -4.59,-7.082 -8.36,-10.36 -3.74,-3.281 -8.49,-5.933 -14.2,-7.902 -5.66,-2.051 -12.11,-3.039 -19.21,-3.039 -15.2,0 -27.04,4.621 -35.54,13.82 -8.48,9.258 -12.78,21.598 -12.78,37.129 0,10.488 1.94,19.82 5.87,27.859 3.9,8.039 9.5,14.321 16.89,18.723 7.35,4.43 16.2,6.629 26.46,6.629 6.34,0 12.16,-0.992 17.5,-2.891 5.28,-1.949 9.76,-4.48 13.5,-7.511 3.68,-3.071 6.48,-6.34 8.46,-9.809 1.91,-3.469 2.9,-6.711 2.9,-9.719 0,-3.031 -1.08,-5.609 -3.33,-7.769 -2.16,-2.141 -4.81,-3.211 -7.92,-3.211 -2.06,0 -3.74,0.609 -5.05,1.699 -1.39,1.051 -2.9,2.77 -4.61,5.262 -2.98,4.726 -6.09,8.308 -9.35,10.75 -3.28,2.347 -7.43,3.59 -12.5,3.59 -7.2,0 -13.09,-3.012 -17.5,-8.911 -4.47,-5.949 -6.65,-14.043 -6.65,-24.281 0,-4.808 0.59,-9.301 1.69,-13.32 1.15,-4.039 2.81,-7.449 4.96,-10.328 2.17,-2.852 4.78,-5 7.85,-6.453 3,-1.489 6.37,-2.239 10.05,-2.239 4.9,0 9.14,1.168 12.65,3.578 3.48,2.391 6.62,6.024 9.32,10.864 1.49,2.929 3.08,5.16 4.83,6.828 1.73,1.601 3.84,2.379 6.39,2.379 2.97,0 5.49,-1.16 7.42,-3.508 2.02,-2.43 3.01,-4.949 3.01,-7.641"
         style="fill:#ffffff;fill-opacity:1;fill-rule:nonzero;stroke:none"
         transform="matrix(0.13333333,0,0,-0.13333333,0,878.90667)" />
      <path
         id="path35"
         d="m 3730.81,272.609 h 2.71 v 15.403 c 0,4.097 0.1,7.359 0.31,9.699 0.22,2.348 0.75,4.328 1.77,6.039 0.94,1.73 2.32,3.172 4.14,4.289 1.77,1.07 3.77,1.602 6,1.602 3.11,0 5.93,-1.219 8.44,-3.641 1.65,-1.66 2.74,-3.621 3.2,-5.941 0.44,-2.348 0.66,-5.719 0.66,-10.008 v -17.442 h 9.03 c 3.46,0 6.11,-0.867 7.94,-2.597 1.87,-1.723 2.76,-3.903 2.76,-6.602 0,-3.441 -1.3,-5.898 -3.94,-7.23 -2.58,-1.36 -6.33,-2.071 -11.19,-2.071 h -4.6 v -47.187 c 0,-4.012 0.13,-7.082 0.39,-9.274 0.32,-2.168 1.07,-3.929 2.22,-5.238 1.14,-1.351 3.04,-2.058 5.68,-2.058 1.46,0 3.38,0.257 5.87,0.82 2.41,0.539 4.34,0.797 5.75,0.797 1.97,0 3.78,-0.867 5.34,-2.449 1.57,-1.711 2.39,-3.719 2.39,-6.168 0,-4.122 -2.11,-7.282 -6.47,-9.481 -4.35,-2.18 -10.54,-3.281 -18.61,-3.281 -7.68,0 -13.52,1.34 -17.47,4.039 -3.95,2.711 -6.57,6.383 -7.74,11.211 -1.27,4.738 -1.87,11.082 -1.87,19.051 v 49.218 h -3.29 c -3.46,0 -6.16,0.871 -8.04,2.661 -1.88,1.73 -2.79,3.941 -2.79,6.64 0,2.699 0.98,4.879 2.9,6.602 1.97,1.73 4.8,2.597 8.51,2.597"
         style="fill:#ffffff;fill-opacity:1;fill-rule:nonzero;stroke:none"
         transform="matrix(0.13333333,0,0,-0.13333333,0,878.90667)" />
      <path
         id="path36"
         d="m 3861.88,222.629 c 0,10.41 -2.22,18.562 -6.59,24.371 -4.45,5.801 -10.32,8.75 -17.79,8.75 -4.79,0 -9.01,-1.328 -12.66,-3.922 -3.68,-2.609 -6.5,-6.43 -8.46,-11.519 -1.97,-5.008 -2.97,-10.911 -2.97,-17.68 0,-6.688 1,-12.539 2.95,-17.539 1.93,-4.988 4.7,-8.82 8.32,-11.52 3.63,-2.609 7.88,-3.922 12.82,-3.922 7.47,0 13.34,2.883 17.79,8.743 4.37,5.82 6.59,13.918 6.59,24.238 z m 24.65,0 c 0,-7.609 -1.13,-14.629 -3.44,-21.141 -2.26,-6.367 -5.58,-11.929 -9.87,-16.578 -4.33,-4.64 -9.49,-8.09 -15.47,-10.629 -5.99,-2.48 -12.71,-3.691 -20.25,-3.691 -7.46,0 -14.14,1.211 -20.05,3.762 -5.94,2.476 -11.11,6.058 -15.41,10.73 -4.35,4.68 -7.66,10.148 -9.89,16.5 -2.23,6.387 -3.33,13.367 -3.33,21.086 0,7.762 1.1,14.863 3.33,21.273 2.36,6.469 5.57,11.957 9.83,16.571 4.27,4.527 9.43,8.066 15.47,10.527 6.1,2.461 12.77,3.742 20.05,3.742 7.47,0 14.17,-1.281 20.25,-3.781 6.06,-2.512 11.23,-6.102 15.55,-10.719 4.27,-4.621 7.63,-10.152 9.86,-16.543 2.24,-6.359 3.37,-13.418 3.37,-21.109"
         style="fill:#ffffff;fill-opacity:1;fill-rule:nonzero;stroke:none"
         transform="matrix(0.13333333,0,0,-0.13333333,0,878.90667)" />
      <path
         id="path37"
         d="M 3930.27,207.531 V 186.18 c 0,-5.18 -1.17,-9.098 -3.52,-11.731 -2.34,-2.551 -5.31,-3.859 -8.93,-3.859 -3.5,0 -6.44,1.34 -8.7,3.922 -2.28,2.636 -3.39,6.5 -3.39,11.668 v 71.308 c 0,11.543 3.96,17.293 11.94,17.293 4.03,0 7.01,-1.402 8.82,-4.062 1.78,-2.668 2.72,-6.668 2.98,-11.91 2.92,5.242 5.94,9.242 9.03,11.91 3.1,2.66 7.2,4.062 12.32,4.062 5.21,0 10.19,-1.402 15.07,-4.062 4.83,-2.668 7.29,-6.258 7.29,-10.688 0,-3.121 -1.08,-5.75 -3.14,-7.761 -2.03,-2.008 -4.28,-3.051 -6.7,-3.051 -0.89,0 -3.07,0.59 -6.52,1.769 -3.46,1.153 -6.5,1.742 -9.15,1.742 -3.57,0 -6.5,-0.968 -8.76,-2.992 -2.28,-1.988 -4.06,-4.867 -5.32,-8.738 -1.26,-3.93 -2.17,-8.512 -2.61,-13.898 -0.47,-5.301 -0.71,-11.813 -0.71,-19.571"
         style="fill:#ffffff;fill-opacity:1;fill-rule:nonzero;stroke:none"
         transform="matrix(0.13333333,0,0,-0.13333333,0,878.90667)" />
      <path
         id="path38"
         d="m 4061.04,204.051 c 0,-7.063 -1.65,-13.09 -4.99,-18.141 -3.31,-5.051 -8.16,-8.828 -14.61,-11.469 -6.46,-2.543 -14.29,-3.851 -23.57,-3.851 -8.74,0 -16.34,1.422 -22.65,4.23 -6.29,2.821 -10.96,6.309 -13.93,10.539 -3.01,4.2 -4.57,8.442 -4.57,12.68 0,2.813 1.01,5.242 2.96,7.231 1.91,2.019 4.35,3.011 7.25,3.011 2.59,0 4.59,-0.66 5.96,-1.961 1.4,-1.371 2.66,-3.199 3.96,-5.55 2.52,-4.61 5.51,-8.008 9.07,-10.25 3.44,-2.29 8.25,-3.399 14.35,-3.399 4.89,0 8.93,1.141 12.08,3.449 3.12,2.25 4.75,4.891 4.75,7.821 0,4.519 -1.66,7.828 -4.89,9.847 -3.32,2.114 -8.66,4.071 -16.18,5.942 -8.44,2.218 -15.33,4.511 -20.63,6.898 -5.33,2.402 -9.62,5.613 -12.77,9.551 -3.16,3.91 -4.78,8.793 -4.78,14.551 0,5.14 1.47,9.988 4.41,14.519 2.93,4.602 7.32,8.242 13.03,10.949 5.71,2.731 12.63,4.133 20.74,4.133 6.35,0 12.06,-0.742 17.15,-2.09 5.05,-1.371 9.32,-3.222 12.65,-5.519 3.4,-2.332 6.01,-4.891 7.76,-7.692 1.8,-2.859 2.67,-5.601 2.67,-8.269 0,-2.949 -0.93,-5.301 -2.85,-7.27 -1.89,-1.793 -4.61,-2.769 -8.03,-2.769 -2.54,0 -4.67,0.75 -6.46,2.297 -1.74,1.461 -3.8,3.703 -6.06,6.672 -1.86,2.519 -4.04,4.55 -6.59,6.039 -2.52,1.468 -5.94,2.242 -10.24,2.242 -4.44,0 -8.15,-0.961 -11.04,-2.961 -2.96,-1.973 -4.45,-4.441 -4.45,-7.383 0,-2.68 1.1,-4.887 3.22,-6.629 2.2,-1.719 5.08,-3.129 8.75,-4.269 3.68,-1.141 8.72,-2.52 15.13,-4.141 7.61,-1.918 13.84,-4.238 18.67,-6.949 4.83,-2.66 8.48,-5.828 10.96,-9.508 2.52,-3.703 3.77,-7.863 3.77,-12.531"
         style="fill:#ffffff;fill-opacity:1;fill-rule:nonzero;stroke:none"
         transform="matrix(0.13333333,0,0,-0.13333333,0,878.90667)" />
      <path
         id="path39"
         d="m 4088.9,170.59 c -3.7,0 -6.91,1.211 -9.58,3.762 -2.75,2.476 -4.07,6.007 -4.07,10.476 0,3.801 1.26,7.094 3.81,9.871 2.59,2.731 5.8,4.071 9.57,4.071 3.75,0 6.99,-1.34 9.6,-4.051 2.7,-2.688 4.06,-6.047 4.06,-9.891 0,-4.449 -1.36,-7.937 -4.06,-10.437 -2.61,-2.551 -5.72,-3.801 -9.33,-3.801"
         style="fill:#ffffff;fill-opacity:1;fill-rule:nonzero;stroke:none"
         transform="matrix(0.13333333,0,0,-0.13333333,0,878.90667)" />
      <path
         id="path40"
         d="m 4197.48,222.629 c 0,10.41 -2.22,18.562 -6.63,24.371 -4.4,5.801 -10.3,8.75 -17.73,8.75 -4.8,0 -8.98,-1.328 -12.67,-3.922 -3.67,-2.609 -6.47,-6.43 -8.43,-11.519 -1.96,-5.008 -2.97,-10.911 -2.97,-17.68 0,-6.688 0.95,-12.539 2.88,-17.539 2.01,-4.988 4.77,-8.82 8.42,-11.52 3.59,-2.609 7.87,-3.922 12.77,-3.922 7.43,0 13.33,2.883 17.73,8.743 4.41,5.82 6.63,13.918 6.63,24.238 z m 24.67,0 c 0,-7.609 -1.12,-14.629 -3.44,-21.141 -2.29,-6.367 -5.57,-11.929 -9.89,-16.578 -4.33,-4.64 -9.43,-8.09 -15.47,-10.629 -5.97,-2.48 -12.71,-3.691 -20.23,-3.691 -7.43,0 -14.12,1.211 -20.06,3.762 -5.93,2.476 -11.03,6.058 -15.37,10.73 -4.4,4.68 -7.69,10.148 -9.97,16.5 -2.2,6.387 -3.33,13.367 -3.33,21.086 0,7.762 1.13,14.863 3.42,21.273 2.32,6.469 5.53,11.957 9.77,16.571 4.26,4.527 9.43,8.066 15.48,10.527 6.08,2.461 12.72,3.742 20.06,3.742 7.43,0 14.17,-1.281 20.23,-3.781 6.09,-2.512 11.25,-6.102 15.58,-10.719 4.3,-4.621 7.57,-10.152 9.84,-16.543 2.26,-6.359 3.38,-13.418 3.38,-21.109"
         style="fill:#ffffff;fill-opacity:1;fill-rule:nonzero;stroke:none"
         transform="matrix(0.13333333,0,0,-0.13333333,0,878.90667)" />
      <path
         id="path41"
         d="M 4265.87,207.531 V 186.18 c 0,-5.18 -1.17,-9.098 -3.49,-11.731 -2.34,-2.551 -5.31,-3.859 -8.88,-3.859 -3.61,0 -6.46,1.34 -8.78,3.922 -2.27,2.636 -3.41,6.5 -3.41,11.668 v 71.308 c 0,11.543 4.05,17.293 11.99,17.293 4.08,0 6.99,-1.402 8.78,-4.062 1.77,-2.668 2.83,-6.668 3.02,-11.91 2.9,5.242 5.9,9.242 9,11.91 3.08,2.66 7.22,4.062 12.33,4.062 5.23,0 10.24,-1.402 15.04,-4.062 4.87,-2.668 7.31,-6.258 7.31,-10.688 0,-3.121 -1.04,-5.75 -3.08,-7.761 -2.11,-2.008 -4.3,-3.051 -6.75,-3.051 -0.87,0 -3.03,0.59 -6.49,1.769 -3.44,1.153 -6.49,1.742 -9.15,1.742 -3.58,0 -6.49,-0.968 -8.83,-2.992 -2.24,-1.988 -4.03,-4.867 -5.29,-8.738 -1.24,-3.93 -2.13,-8.512 -2.59,-13.898 -0.47,-5.301 -0.73,-11.813 -0.73,-19.571"
         style="fill:#ffffff;fill-opacity:1;fill-rule:nonzero;stroke:none"
         transform="matrix(0.13333333,0,0,-0.13333333,0,878.90667)" />
      <path
         id="path42"
         d="m 4336.75,223.488 c 0,-10.34 2.18,-18.199 6.56,-23.558 4.31,-5.282 9.97,-7.961 16.8,-7.961 4.06,0 7.96,1.172 11.57,3.461 3.64,2.289 6.6,5.718 8.89,10.3 2.29,4.622 3.41,10.211 3.41,16.739 0,10.453 -2.23,18.59 -6.63,24.402 -4.39,5.859 -10.21,8.789 -17.37,8.789 -6.99,0 -12.64,-2.859 -16.84,-8.398 -4.27,-5.582 -6.39,-13.473 -6.39,-23.774 z m 71.17,32.524 v -74.461 c 0,-8.52 -0.92,-15.84 -2.63,-21.93 -1.74,-6.191 -4.53,-11.23 -8.36,-15.242 -3.83,-4.02 -8.88,-6.957 -15.05,-8.918 -6.21,-1.883 -13.95,-2.871 -23.14,-2.871 -8.51,0 -16.07,1.191 -22.7,3.648 -6.66,2.551 -11.78,5.684 -15.37,9.614 -3.61,3.878 -5.42,7.918 -5.42,12.089 0,3.11 1,5.661 3.09,7.61 2.02,2.019 4.48,2.988 7.35,2.988 3.62,0 6.73,-1.66 9.47,-4.969 1.32,-1.73 2.7,-3.41 4.08,-5.109 1.39,-1.762 2.95,-3.242 4.67,-4.422 1.7,-1.258 3.79,-2.168 6.19,-2.769 2.35,-0.59 5.13,-0.879 8.26,-0.879 6.31,0 11.3,0.941 14.78,2.781 3.53,1.828 5.98,4.398 7.42,7.719 1.36,3.308 2.24,6.828 2.38,10.648 0.3,3.84 0.45,9.871 0.62,18.281 -3.77,-5.48 -8.19,-9.691 -13.1,-12.558 -4.93,-2.871 -10.85,-4.282 -17.63,-4.282 -8.27,0 -15.47,2.141 -21.57,6.559 -6.18,4.371 -10.9,10.492 -14.2,18.41 -3.26,7.84 -4.95,16.949 -4.95,27.281 0,7.75 0.99,14.692 3.05,20.891 1.96,6.149 4.82,11.391 8.58,15.649 3.68,4.261 8.01,7.48 12.85,9.648 4.89,2.121 10.15,3.254 16.02,3.254 6.93,0 12.97,-1.434 18.05,-4.231 5.15,-2.761 9.84,-7.152 14.21,-13.089 v 3.449 c 0,4.469 1.09,7.871 3.15,10.39 2.1,2.411 4.82,3.649 8.09,3.649 4.76,0 7.91,-1.602 9.49,-4.828 1.52,-3.231 2.32,-7.922 2.32,-14"
         style="fill:#ffffff;fill-opacity:1;fill-rule:nonzero;stroke:none"
         transform="matrix(0.13333333,0,0,-0.13333333,0,878.90667)" />
      <path
         id="path43"
         d="m 3343.8,505.512 h 36.44 c -2.59,-19.653 -10.62,-34.973 -24,-46 -12.4,-10.782 -27.4,-16.114 -44.92,-16.114 -23.77,0 -42.75,8.344 -56.92,25.024 -13.43,15.848 -20.14,36.316 -20.14,61.348 0,25.628 6.67,46.121 19.96,61.628 13.26,15.454 32.05,23.231 56.3,23.231 18.05,0 33.32,-4.891 45.72,-14.578 13.14,-10.461 21.15,-25.172 24,-44.039 h -36.44 c -3.12,16.437 -13.17,24.636 -30.26,24.636 -28.13,0 -42.25,-16.668 -42.25,-50.027 0,-15.633 3.64,-28.402 10.87,-38.359 7.25,-9.973 17.44,-14.961 30.63,-14.961 19.62,0 29.97,9.41 31.01,28.211 z m -143.35,22.957 c 0,-32.578 10.35,-60.168 30.99,-82.629 20.66,-22.488 45.93,-33.738 75.95,-33.738 29.89,0 55.2,11.25 75.84,33.738 20.68,22.461 30.96,50.051 30.96,82.629 0,32.582 -10.28,60.152 -30.96,82.64 -20.64,22.493 -45.95,33.75 -75.84,33.75 -30.02,0 -55.29,-11.257 -75.95,-33.75 -20.64,-22.488 -30.99,-50.058 -30.99,-82.64 z m -36.98,0 c 0,41.48 14.02,76.871 42.13,106.293 28.12,29.34 62.05,44.019 101.79,44.019 39.68,0 73.56,-14.679 101.71,-44.019 28.11,-29.422 42.18,-64.813 42.18,-106.293 0,-41.489 -14.07,-76.938 -42.18,-106.27 -28.15,-29.379 -62.03,-44.09 -101.71,-44.09 -39.74,0 -73.67,14.711 -101.79,44.09 -28.11,29.332 -42.13,64.781 -42.13,106.27"
         style="fill:#ffffff;fill-opacity:1;fill-rule:nonzero;stroke:none"
         transform="matrix(0.13333333,0,0,-0.13333333,0,878.90667)" />
      <path
         id="path44"
         d="m 3221.7,434.211 20.98,-17.813 154.36,198.204 -20.99,17.777 -154.35,-198.168"
         style="fill:#ffffff;fill-opacity:1;fill-rule:nonzero;stroke:none"
         transform="matrix(0.13333333,0,0,-0.13333333,0,878.90667)" />
    </g>
  </g>
</svg>
