<?xml version="1.0" encoding="UTF-8" standalone="no"?>
<!-- Created with Inkscape (http://www.inkscape.org/) -->

<svg
   version="1.1"
   id="svg1"
   width="759.98669"
   height="774.17334"
   viewBox="0 0 759.98669 774.17334"
   sodipodi:docname="running-turtle.svg"
   inkscape:version="1.4 (e7c3feb100, 2024-10-09)"
   xmlns:inkscape="http://www.inkscape.org/namespaces/inkscape"
   xmlns:sodipodi="http://sodipodi.sourceforge.net/DTD/sodipodi-0.dtd"
   xmlns="http://www.w3.org/2000/svg"
   xmlns:svg="http://www.w3.org/2000/svg">
  <defs
     id="defs1" />
  <sodipodi:namedview
     id="namedview1"
     pagecolor="#505050"
     bordercolor="#ffffff"
     borderopacity="1"
     inkscape:showpageshadow="0"
     inkscape:pageopacity="0"
     inkscape:pagecheckerboard="1"
     inkscape:deskcolor="#d1d1d1"
     inkscape:zoom="1.0527358"
     inkscape:cx="380.43733"
     inkscape:cy="387.08667"
     inkscape:window-width="1920"
     inkscape:window-height="1002"
     inkscape:window-x="0"
     inkscape:window-y="0"
     inkscape:window-maximized="1"
     inkscape:current-layer="g1">
    <inkscape:page
       x="0"
       y="0"
       inkscape:label="1"
       id="page1"
       width="759.98669"
       height="774.17334"
       margin="0"
       bleed="0" />
  </sodipodi:namedview>
  <g
     id="g1"
     inkscape:groupmode="layer"
     inkscape:label="1">
    <g
       id="group-R5">
      <path
         id="path2"
         d="m 1718.02,100.262 c 0,7.519 -1.08,14.008 -3.31,19.308 -2.16,5.379 -5.19,9.532 -9.1,12.461 -3.89,2.84 -8.18,4.309 -12.91,4.309 -7.5,0 -13.84,-3.168 -18.99,-9.301 -5.16,-6.199 -7.74,-15.25 -7.74,-27.2499 0,-11.3203 2.58,-20.1094 7.66,-26.3086 5.15,-6.3125 11.52,-9.4688 19.07,-9.4688 4.5,0 8.73,1.3594 12.59,4.1485 3.8,2.7304 6.9,6.832 9.24,12.2617 2.35,5.5273 3.49,12.0976 3.49,19.8401 z m -53.31,41.379 v -3.422 c 5.1,6.551 10.39,11.449 15.9,14.492 5.53,3.098 11.82,4.66 18.8,4.66 8.35,0 16.06,-2.262 23.1,-6.769 7.03,-4.512 12.59,-11.071 16.7,-19.77 4.08,-8.684 6.09,-18.91 6.09,-30.781 0,-8.7112 -1.14,-16.8401 -3.5,-24.0393 -2.35,-7.332 -5.6,-13.5117 -9.71,-18.4531 -4.12,-4.9492 -9.02,-8.7891 -14.59,-11.4297 -5.65,-2.7109 -11.7,-4.0195 -18.09,-4.0195 -7.81,0 -14.34,1.6211 -19.62,4.8789 -5.33,3.2617 -10.33,8.0117 -15.08,14.332 V 18.7188 C 1664.71,6.21875 1660.35,0 1651.65,0 c -5.12,0 -8.53,1.58984 -10.14,4.80078 -1.68,3.23828 -2.5,7.94922 -2.5,14.09762 V 141.461 c 0,5.398 1.09,9.449 3.37,12.109 2.3,2.641 5.37,4.008 9.27,4.008 3.85,0 6.99,-1.367 9.41,-4.137 2.42,-2.761 3.65,-6.703 3.65,-11.8"
         style="fill:#100f0d;fill-opacity:1;fill-rule:nonzero;stroke:none"
         transform="matrix(0.13333333,0,0,-0.13333333,0,774.17333)" />
      <path
         id="path3"
         d="M 1837.84,58.1719 V 61.75 c -3.27,-4.2891 -6.68,-7.8711 -10.28,-10.7695 -3.59,-2.961 -7.51,-5.1094 -11.74,-6.5117 -4.29,-1.4102 -9.13,-2.129 -14.58,-2.129 -6.54,0 -12.44,1.4297 -17.67,4.2422 -5.22,2.8399 -9.27,6.7696 -12.08,11.75 -3.44,6.0391 -5.09,14.7071 -5.09,25.9688 V 140.57 c 0,5.641 1.22,9.918 3.69,12.711 2.46,2.809 5.7,4.219 9.73,4.219 4.14,0 7.44,-1.41 9.98,-4.289 2.53,-2.852 3.77,-7.082 3.77,-12.641 V 95.0898 c 0,-6.5312 0.53,-12.0781 1.56,-16.5078 1.12,-4.5 3.02,-7.9922 5.8,-10.5625 2.7,-2.4882 6.46,-3.7578 11.17,-3.7578 4.63,0 8.94,1.4297 12.96,4.2696 4.09,2.8085 7.05,6.5078 8.89,11.0898 1.53,4.0195 2.29,12.8203 2.29,26.4099 v 34.539 c 0,5.559 1.26,9.789 3.8,12.641 2.5,2.879 5.75,4.289 9.83,4.289 4.06,0 7.31,-1.41 9.77,-4.219 2.43,-2.793 3.64,-7.07 3.64,-12.711 V 58.332 c 0,-5.4023 -1.13,-9.4726 -3.49,-12.1523 -2.34,-2.7305 -5.38,-4.0508 -9.11,-4.0508 -3.71,0 -6.76,1.4414 -9.21,4.1719 -2.42,2.8476 -3.63,6.7383 -3.63,11.8711"
         style="fill:#100f0d;fill-opacity:1;fill-rule:nonzero;stroke:none"
         transform="matrix(0.13333333,0,0,-0.13333333,0,774.17333)" />
      <path
         id="path4"
         d="m 1916.74,99.1406 c 0,-11.289 2.46,-19.9297 7.39,-26.0195 4.97,-6.0391 11.47,-9.1094 19.52,-9.1094 6.85,0 12.7,3.1172 17.69,9.3086 4.97,6.2188 7.45,15.0586 7.45,26.6485 0,7.5702 -1.04,13.9802 -3.11,19.3712 -2.08,5.441 -5.02,9.621 -8.76,12.539 -3.84,2.941 -8.2,4.461 -13.27,4.461 -5.23,0 -9.77,-1.52 -13.86,-4.461 -4.08,-2.918 -7.24,-7.211 -9.58,-12.809 -2.33,-5.531 -3.47,-12.148 -3.47,-19.9294 z m -1.29,84.3904 v -43.39 c 5.05,5.589 10.3,9.789 15.6,12.808 5.33,2.93 11.93,4.422 19.75,4.422 9.04,0 16.95,-2.262 23.76,-6.691 6.8,-4.551 12.11,-10.981 15.85,-19.481 3.78,-8.469 5.63,-18.551 5.63,-30.187 0,-8.6214 -1.03,-16.4925 -3.1,-23.7112 -2.11,-7.1406 -5.11,-13.332 -9.12,-18.6719 -4.02,-5.2305 -8.86,-9.2578 -14.51,-12.2383 -5.71,-2.8203 -11.97,-4.2812 -18.8,-4.2812 -4.15,0 -8.12,0.5312 -11.83,1.539 -3.68,1.0625 -6.84,2.4219 -9.37,4.1602 -2.63,1.6133 -4.84,3.4219 -6.67,5.1797 -1.81,1.8437 -4.21,4.5117 -7.19,8.1133 V 58.332 c 0,-5.3632 -1.26,-9.3906 -3.72,-12.1523 -2.42,-2.7305 -5.6,-4.0703 -9.34,-4.0703 -3.88,0 -6.93,1.3398 -9.26,4.0703 -2.26,2.8203 -3.4,6.8086 -3.4,12.1523 v 123.969 c 0,5.711 1.1,10.058 3.36,13 2.21,2.961 5.28,4.429 9.3,4.429 4.16,0 7.4,-1.398 9.63,-4.23 2.28,-2.781 3.43,-6.758 3.43,-11.969"
         style="fill:#100f0d;fill-opacity:1;fill-rule:nonzero;stroke:none"
         transform="matrix(0.13333333,0,0,-0.13333333,0,774.17333)" />
      <path
         id="path5"
         d="M 2015.24,59.3906 V 182.469 c 0,5.711 1.21,9.98 3.6,12.91 2.47,2.883 5.73,4.351 9.85,4.351 4.12,0 7.42,-1.421 9.96,-4.308 2.48,-2.863 3.8,-7.223 3.8,-12.953 V 59.3906 c 0,-5.7695 -1.32,-10.1015 -3.87,-13 -2.54,-2.8203 -5.85,-4.2812 -9.89,-4.2812 -3.99,0 -7.19,1.4922 -9.7,4.4726 -2.5,2.9883 -3.75,7.2383 -3.75,12.8086"
         style="fill:#100f0d;fill-opacity:1;fill-rule:nonzero;stroke:none"
         transform="matrix(0.13333333,0,0,-0.13333333,0,774.17333)" />
      <path
         id="path6"
         d="M 2097.71,141.379 V 59.3906 c 0,-5.7304 -1.32,-10.0195 -3.85,-12.9297 -2.61,-2.8593 -5.92,-4.3515 -9.87,-4.3515 -4,0 -7.25,1.4922 -9.72,4.4414 -2.47,3.0195 -3.76,7.2695 -3.76,12.8398 V 140.57 c 0,5.559 1.29,9.789 3.76,12.641 2.47,2.879 5.72,4.289 9.72,4.289 3.95,0 7.26,-1.41 9.87,-4.289 2.53,-2.852 3.85,-6.77 3.85,-11.832 z m -13.45,29.34 c -3.79,0 -6.99,1.211 -9.75,3.703 -2.62,2.418 -4,5.867 -4,10.328 0,3.992 1.38,7.27 4.15,9.918 2.76,2.613 5.95,3.832 9.6,3.832 3.52,0 6.66,-1.148 9.37,-3.488 2.71,-2.352 4.08,-5.821 4.08,-10.262 0,-4.418 -1.33,-7.828 -3.99,-10.25 -2.67,-2.461 -5.78,-3.781 -9.46,-3.781"
         style="fill:#100f0d;fill-opacity:1;fill-rule:nonzero;stroke:none"
         transform="matrix(0.13333333,0,0,-0.13333333,0,774.17333)" />
      <path
         id="path7"
         d="m 2223.24,77.2617 c 0,-3.5195 -1,-7.3203 -3.02,-11.3437 -2.05,-4.0078 -5.13,-7.8164 -9.3,-11.4766 -4.12,-3.6211 -9.36,-6.5508 -15.67,-8.75 -6.3,-2.2734 -13.43,-3.3516 -21.31,-3.3516 -16.82,0 -29.93,5.1211 -39.37,15.3321 -9.41,10.2187 -14.14,23.8867 -14.14,41.0976 0,11.6405 2.15,21.9605 6.45,30.8785 4.31,8.891 10.61,15.864 18.75,20.711 8.14,4.922 17.94,7.371 29.26,7.371 7.07,0 13.54,-1.109 19.42,-3.23 5.87,-2.16 10.85,-4.949 14.93,-8.309 4.09,-3.41 7.2,-7.043 9.37,-10.859 2.18,-3.832 3.23,-7.441 3.23,-10.773 0,-3.348 -1.23,-6.227 -3.63,-8.598 -2.44,-2.379 -5.34,-3.551 -8.81,-3.551 -2.28,0 -4.13,0.66 -5.66,1.871 -1.45,1.168 -3.14,3.071 -5.02,5.84 -3.3,5.238 -6.8,9.231 -10.41,11.91 -3.63,2.61 -8.23,3.957 -13.76,3.957 -8.09,0 -14.56,-3.328 -19.46,-9.879 -4.93,-6.578 -7.36,-15.531 -7.36,-26.8981 0,-5.3007 0.63,-10.2695 1.91,-14.7109 1.25,-4.4883 3.07,-8.2891 5.45,-11.4609 2.4,-3.1602 5.26,-5.5274 8.66,-7.1602 3.39,-1.6601 7.12,-2.4492 11.14,-2.4492 5.49,0 10.13,1.2891 14.02,3.9219 3.9,2.6679 7.34,6.6875 10.31,12.039 1.67,3.2696 3.46,5.7383 5.39,7.5586 1.95,1.8125 4.31,2.6719 7.09,2.6719 3.31,0 6.07,-1.2813 8.29,-3.9219 2.14,-2.6875 3.25,-5.4609 3.25,-8.4375"
         style="fill:#100f0d;fill-opacity:1;fill-rule:nonzero;stroke:none"
         transform="matrix(0.13333333,0,0,-0.13333333,0,774.17333)" />
      <path
         id="path8"
         d="m 2268.04,99.9688 c 0,-7.6875 1.14,-14.1993 3.42,-19.6368 2.31,-5.4218 5.41,-9.4414 9.39,-12.1718 4.01,-2.7891 8.37,-4.1485 13.04,-4.1485 4.8,0 9.16,1.3203 13.1,3.8789 3.98,2.6211 7.09,6.6289 9.48,11.9883 2.37,5.3594 3.53,12.082 3.53,20.0899 0,7.6092 -1.16,14.0622 -3.53,19.5312 -2.39,5.449 -5.55,9.602 -9.56,12.531 -4.02,2.84 -8.4,4.309 -13.18,4.309 -4.97,0 -9.41,-1.52 -13.35,-4.461 -3.89,-2.918 -6.97,-7.199 -9.12,-12.707 -2.13,-5.531 -3.22,-11.863 -3.22,-19.2032 z M 2321.5,58.332 v 2.7696 c -3.66,-4.3633 -7.26,-7.9102 -10.86,-10.6016 -3.49,-2.7695 -7.36,-4.8398 -11.51,-6.2695 -4.14,-1.3907 -8.68,-2.1211 -13.58,-2.1211 -6.5,0 -12.57,1.4609 -18.09,4.2812 -5.53,2.9805 -10.32,7.0274 -14.38,12.3594 -4.04,5.3398 -7.11,11.6094 -9.22,18.8516 -2.12,7.1797 -3.14,14.9765 -3.14,23.4104 0,17.687 4.16,31.59 12.46,41.5 8.32,9.91 19.23,14.859 32.76,14.859 7.83,0 14.45,-1.422 19.82,-4.281 5.37,-2.77 10.63,-7.078 15.74,-12.949 v 41.91 c 0,5.84 1.1,10.238 3.34,13.211 2.22,2.988 5.36,4.468 9.49,4.468 4.11,0 7.28,-1.378 9.53,-4.082 2.21,-2.726 3.36,-6.777 3.36,-12.117 V 58.332 c 0,-5.4023 -1.21,-9.4726 -3.61,-12.1523 -2.4,-2.7305 -5.46,-4.0703 -9.28,-4.0703 -3.68,0 -6.79,1.4023 -9.22,4.1914 -2.4,2.8008 -3.61,6.7773 -3.61,12.0312"
         style="fill:#100f0d;fill-opacity:1;fill-rule:nonzero;stroke:none"
         transform="matrix(0.13333333,0,0,-0.13333333,0,774.17333)" />
      <path
         id="path9"
         d="m 2449.03,99.75 c 0,11.531 -2.48,20.57 -7.34,27.02 -4.88,6.402 -11.46,9.66 -19.68,9.66 -5.34,0 -10,-1.45 -14.06,-4.321 -4.04,-2.918 -7.15,-7.16 -9.35,-12.769 -2.18,-5.559 -3.3,-12.07 -3.3,-19.59 0,-7.4297 1.12,-13.8906 3.24,-19.418 2.15,-5.5429 5.25,-9.7929 9.3,-12.7422 4,-2.9414 8.76,-4.3906 14.17,-4.3906 8.22,0 14.8,3.2227 19.68,9.6914 4.86,6.461 7.34,15.4492 7.34,26.8594 z m 27.28,0 c 0,-8.4102 -1.28,-16.2109 -3.79,-23.3984 -2.52,-7.0821 -6.17,-13.2305 -10.92,-18.3828 -4.82,-5.1368 -10.53,-8.9688 -17.16,-11.7891 -6.64,-2.7305 -14.17,-4.0703 -22.43,-4.0703 -8.22,0 -15.64,1.3398 -22.19,4.1523 -6.58,2.7578 -12.31,6.7266 -17.12,11.9102 -4.79,5.1679 -8.43,11.2265 -10.96,18.2578 -2.48,7.082 -3.72,14.8125 -3.72,23.3711 0,8.5902 1.28,16.4492 3.77,23.5582 2.53,7.18 6.13,13.231 10.86,18.332 4.72,5.047 10.42,8.95 17.17,11.68 6.72,2.738 14.08,4.129 22.19,4.129 8.25,0 15.72,-1.391 22.43,-4.168 6.68,-2.762 12.43,-6.762 17.21,-11.871 4.81,-5.121 8.43,-11.262 10.87,-18.332 2.55,-7.047 3.79,-14.859 3.79,-23.379"
         style="fill:#100f0d;fill-opacity:1;fill-rule:nonzero;stroke:none"
         transform="matrix(0.13333333,0,0,-0.13333333,0,774.17333)" />
      <path
         id="path10"
         d="m 2591.17,123.191 c -2.04,-4.793 -3.01,-13.261 -3.01,-25.4527 V 60.0195 c 0,-5.9375 -1.27,-10.4492 -3.89,-13.4375 -2.58,-2.9804 -6.04,-4.4726 -10.29,-4.4726 -4.08,0 -7.41,1.4922 -9.95,4.4726 -2.56,2.9883 -3.81,7.5 -3.81,13.4375 v 45.2695 c 0,7.121 -0.27,12.652 -0.74,16.652 -0.47,3.911 -1.72,7.168 -3.78,9.707 -2.02,2.551 -5.29,3.813 -9.72,3.813 -8.9,0 -14.75,-3.191 -17.6,-9.609 -2.84,-6.352 -4.19,-15.512 -4.19,-27.4536 V 60.0195 c 0,-5.9297 -1.31,-10.3906 -3.83,-13.3398 -2.59,-3.0781 -5.96,-4.5703 -10.09,-4.5703 -4.15,0 -7.56,1.4922 -10.16,4.5703 -2.65,2.9492 -3.89,7.4101 -3.89,13.332 v 81.2073 c 0,5.351 1.12,9.422 3.45,12.179 2.4,2.75 5.5,4.18 9.38,4.18 3.71,0 6.82,-1.289 9.29,-3.898 2.49,-2.59 3.73,-6.16 3.73,-10.75 v -2.692 c 4.7,5.891 9.77,10.242 15.12,12.973 5.37,2.777 11.42,4.16 17.94,4.16 6.82,0 12.68,-1.422 17.59,-4.281 4.94,-2.82 8.97,-7.121 12.14,-12.852 4.59,5.774 9.51,10.121 14.77,12.934 5.25,2.816 11.05,4.199 17.4,4.199 7.5,0 13.89,-1.492 19.22,-4.59 5.41,-3.043 9.41,-7.402 12.08,-13.082 2.34,-5.14 3.48,-13.199 3.48,-24.25 V 60.0195 c 0,-5.9375 -1.29,-10.4492 -3.84,-13.4375 -2.65,-2.9804 -6.03,-4.4726 -10.29,-4.4726 -4.13,0 -7.49,1.4922 -10.1,4.5703 -2.65,2.9492 -3.97,7.4101 -3.97,13.3398 v 47.7615 c 0,6.11 -0.24,10.981 -0.72,14.66 -0.51,3.707 -1.86,6.75 -4.07,9.258 -2.18,2.5 -5.52,3.762 -9.93,3.762 -3.58,0 -7.01,-1.121 -10.17,-3.293 -3.28,-2.246 -5.72,-5.227 -7.55,-8.977 v 0"
         style="fill:#100f0d;fill-opacity:1;fill-rule:nonzero;stroke:none"
         transform="matrix(0.13333333,0,0,-0.13333333,0,774.17333)" />
      <path
         id="path11"
         d="m 2745.19,99.2109 c -4.01,-1.5625 -9.81,-3.1211 -17.41,-4.8515 -7.61,-1.6992 -12.88,-2.9375 -15.8,-3.75 -2.93,-0.8203 -5.73,-2.3711 -8.34,-4.6602 -2.69,-2.3906 -4.03,-5.6172 -4.03,-9.7773 0,-4.3321 1.59,-7.961 4.67,-10.9805 3.15,-3.0625 7.24,-4.5312 12.29,-4.5312 5.37,0 10.36,1.25 14.89,3.7109 4.55,2.4375 7.92,5.6484 10,9.5 2.47,4.3086 3.73,11.3672 3.73,21.3008 z m 1.76,-41.1093 c -6.59,-5.3516 -12.94,-9.3321 -19.08,-11.9727 -6.12,-2.7109 -13.05,-4.0195 -20.65,-4.0195 -7.02,0 -13.09,1.4609 -18.41,4.2812 -5.31,2.8985 -9.34,6.8008 -12.21,11.7813 -2.83,4.9062 -4.29,10.1875 -4.29,15.9765 0,7.7735 2.42,14.3633 7.12,19.8516 4.67,5.4414 11.14,9.129 19.37,11.012 1.73,0.418 6.04,1.316 12.84,2.769 6.91,1.5 12.72,2.797 17.67,4.008 4.84,1.191 10.16,2.672 15.88,4.391 -0.36,7.519 -1.79,13.011 -4.33,16.582 -2.59,3.468 -7.93,5.179 -15.91,5.179 -6.95,0 -12.11,-0.98 -15.65,-2.992 -3.46,-1.98 -6.47,-5.027 -8.92,-9.097 -2.53,-3.993 -4.25,-6.661 -5.28,-7.922 -1.06,-1.321 -3.28,-1.891 -6.61,-1.891 -3.1,0 -5.72,1 -7.92,3.02 -2.25,2.062 -3.36,4.64 -3.36,7.882 0,4.981 1.7,9.868 5.07,14.52 3.39,4.73 8.68,8.598 15.84,11.711 7.17,3.039 16.13,4.558 26.83,4.558 11.92,0 21.33,-1.519 28.22,-4.449 6.82,-2.922 11.6,-7.551 14.45,-13.972 2.84,-6.34 4.24,-14.84 4.24,-25.36 0,-6.64 0,-12.34 -0.04,-16.949 -0.05,-4.6797 -0.08,-9.832 -0.15,-15.5117 0,-5.3164 0.84,-10.8985 2.56,-16.6563 1.65,-5.8007 2.49,-9.5429 2.49,-11.1718 0,-2.9219 -1.32,-5.5821 -3.93,-7.9688 -2.57,-2.3828 -5.58,-3.582 -8.87,-3.582 -2.84,0 -5.54,1.3398 -8.3,4.0703 -2.72,2.7617 -5.61,6.75 -8.67,11.9219"
         style="fill:#100f0d;fill-opacity:1;fill-rule:nonzero;stroke:none"
         transform="matrix(0.13333333,0,0,-0.13333333,0,774.17333)" />
      <path
         id="path12"
         d="M 2826.68,141.379 V 59.3906 c 0,-5.7304 -1.3,-10.0195 -3.85,-12.9297 -2.59,-2.8593 -5.85,-4.3515 -9.85,-4.3515 -3.98,0 -7.26,1.4922 -9.71,4.4414 -2.53,3.0195 -3.78,7.2695 -3.78,12.8398 V 140.57 c 0,5.559 1.25,9.789 3.78,12.641 2.45,2.879 5.73,4.289 9.71,4.289 4,0 7.26,-1.41 9.85,-4.289 2.55,-2.852 3.85,-6.77 3.85,-11.832 z m -13.44,29.34 c -3.74,0 -6.97,1.211 -9.66,3.703 -2.69,2.418 -4.09,5.867 -4.09,10.328 0,3.992 1.41,7.27 4.18,9.918 2.73,2.613 5.96,3.832 9.57,3.832 3.54,0 6.69,-1.148 9.42,-3.488 2.68,-2.352 4.02,-5.821 4.02,-10.262 0,-4.418 -1.3,-7.828 -3.97,-10.25 -2.66,-2.461 -5.81,-3.781 -9.47,-3.781"
         style="fill:#100f0d;fill-opacity:1;fill-rule:nonzero;stroke:none"
         transform="matrix(0.13333333,0,0,-0.13333333,0,774.17333)" />
      <path
         id="path13"
         d="m 2879.54,141.789 v -3.391 c 4.75,6.563 9.97,11.403 15.61,14.473 5.69,3.078 12.23,4.629 19.63,4.629 7.13,0 13.57,-1.621 19.26,-4.91 5.58,-3.238 9.83,-7.82 12.59,-13.762 1.81,-3.496 2.94,-7.277 3.51,-11.277 0.49,-3.969 0.8,-9.11 0.8,-15.371 V 59.3906 c 0,-5.7304 -1.29,-10.0195 -3.76,-12.9297 -2.5,-2.8593 -5.74,-4.3515 -9.7,-4.3515 -4.05,0 -7.36,1.4922 -9.78,4.4726 -2.56,2.9883 -3.86,7.2383 -3.86,12.8086 v 47.2574 c 0,9.411 -1.21,16.543 -3.69,21.493 -2.54,4.949 -7.52,7.468 -14.96,7.468 -4.83,0 -9.24,-1.539 -13.22,-4.558 -3.98,-2.981 -6.9,-7.141 -8.75,-12.43 -1.34,-4.223 -2.03,-12.09 -2.03,-23.7421 V 59.3906 c 0,-5.7695 -1.25,-10.1015 -3.83,-13 -2.57,-2.8203 -5.87,-4.2812 -9.9,-4.2812 -3.89,0 -7.14,1.4922 -9.65,4.4414 -2.57,3.0195 -3.8,7.2695 -3.8,12.8398 v 81.9884 c 0,5.43 1.11,9.422 3.41,12.101 2.2,2.668 5.37,4.02 9.26,4.02 2.35,0 4.55,-0.629 6.44,-1.77 1.98,-1.16 3.47,-2.98 4.64,-5.25 1.13,-2.41 1.78,-5.289 1.78,-8.691"
         style="fill:#100f0d;fill-opacity:1;fill-rule:nonzero;stroke:none"
         transform="matrix(0.13333333,0,0,-0.13333333,0,774.17333)" />
      <path
         id="path14"
         d="m 2994.58,139.84 21.97,-64.4494 23.72,67.2574 c 1.88,5.422 3.7,9.204 5.52,11.461 1.82,2.25 4.5,3.391 8.13,3.391 3.46,0 6.39,-1.211 8.87,-3.68 2.37,-2.398 3.59,-5.172 3.59,-8.441 0,-1.219 -0.23,-2.649 -0.66,-4.277 -0.39,-1.692 -0.89,-3.262 -1.49,-4.75 -0.56,-1.403 -1.15,-3.09 -1.94,-4.942 l -26.08,-67.5702 c -0.74,-1.9296 -1.7,-4.4179 -2.84,-7.4101 -1.18,-2.9688 -2.5,-5.4609 -3.88,-7.6602 -1.47,-2.0898 -3.21,-3.6914 -5.28,-4.8789 -2.13,-1.1797 -4.67,-1.7812 -7.66,-1.7812 -3.85,0 -6.91,0.9101 -9.23,2.7226 -2.29,1.8477 -3.99,3.8282 -5.07,6.0664 -1.07,2.1407 -2.96,6.4805 -5.52,12.9414 l -25.92,66.8322 c -0.6,1.637 -1.24,3.316 -1.89,4.988 -0.59,1.66 -1.08,3.32 -1.55,5.078 -0.42,1.774 -0.67,3.262 -0.67,4.453 0,1.977 0.57,3.891 1.72,5.797 1.14,1.922 2.7,3.492 4.68,4.684 2.02,1.199 4.13,1.828 6.5,1.828 4.48,0 7.59,-1.352 9.3,-4.102 1.7,-2.679 3.6,-7.207 5.68,-13.558"
         style="fill:#100f0d;fill-opacity:1;fill-rule:nonzero;stroke:none"
         transform="matrix(0.13333333,0,0,-0.13333333,0,774.17333)" />
      <path
         id="path15"
         d="m 3105.82,109.012 h 49.28 c -0.62,9.668 -3.11,16.929 -7.5,21.718 -4.36,4.801 -10.1,7.211 -17.21,7.211 -6.73,0 -12.32,-2.441 -16.64,-7.3 -4.35,-4.871 -6.96,-12.09 -7.93,-21.629 z m 53.2,-16.1526 h -53.2 c 0.01,-6.461 1.3,-12.1406 3.69,-17.0977 2.46,-4.8711 5.66,-8.5937 9.69,-11.1133 4.01,-2.5195 8.46,-3.7187 13.31,-3.7187 3.25,0 6.25,0.3906 8.9,1.1601 2.68,0.8399 5.31,2.0821 7.86,3.75 2.48,1.711 4.79,3.4805 6.94,5.5 2.1,1.9297 4.93,4.5196 8.27,7.8711 1.4,1.3086 3.42,1.8907 5.96,1.8907 2.85,0 5.07,-0.7696 6.81,-2.4102 1.73,-1.5898 2.54,-3.8203 2.54,-6.7305 0,-2.5625 -0.94,-5.5625 -2.88,-9.0312 -1.91,-3.3789 -4.76,-6.6992 -8.71,-9.8906 -3.9,-3.1289 -8.77,-5.6993 -14.65,-7.8282 -5.85,-2.0703 -12.58,-3.1015 -20.28,-3.1015 -17.44,0 -31.04,5.2304 -40.7,15.582 -9.68,10.4492 -14.51,24.5078 -14.51,42.2774 0,8.5002 1.23,16.2112 3.57,23.3712 2.39,7.199 5.86,13.332 10.45,18.449 4.59,5.152 10.2,9.121 16.93,11.813 6.74,2.757 14.14,4.128 22.34,4.128 10.55,0 19.7,-2.339 27.3,-7.05 7.62,-4.668 13.31,-10.68 17.09,-18.078 3.79,-7.461 5.68,-14.981 5.68,-22.743 0,-7.078 -1.9,-11.6988 -5.86,-13.8004 -3.95,-2.1484 -9.43,-3.1992 -16.54,-3.1992"
         style="fill:#100f0d;fill-opacity:1;fill-rule:nonzero;stroke:none"
         transform="matrix(0.13333333,0,0,-0.13333333,0,774.17333)" />
      <path
         id="path16"
         d="m 3301.9,77.2617 c 0,-3.5195 -1.01,-7.3203 -3.08,-11.3437 -2.03,-4.0078 -5.06,-7.8164 -9.24,-11.4766 -4.14,-3.6211 -9.41,-6.5508 -15.74,-8.75 -6.27,-2.2734 -13.42,-3.3516 -21.25,-3.3516 -16.86,0 -29.97,5.1211 -39.38,15.3321 -9.41,10.2187 -14.15,23.8867 -14.15,41.0976 0,11.6405 2.14,21.9605 6.49,30.8785 4.33,8.891 10.51,15.864 18.71,20.711 8.14,4.922 17.93,7.371 29.31,7.371 7.03,0 13.47,-1.109 19.39,-3.23 5.86,-2.16 10.8,-4.949 14.95,-8.309 4.08,-3.41 7.16,-7.043 9.35,-10.859 2.14,-3.832 3.21,-7.441 3.21,-10.773 0,-3.348 -1.18,-6.227 -3.68,-8.598 -2.39,-2.379 -5.32,-3.551 -8.78,-3.551 -2.25,0 -4.13,0.66 -5.59,1.871 -1.53,1.168 -3.19,3.071 -5.07,5.84 -3.32,5.238 -6.77,9.231 -10.39,11.91 -3.63,2.61 -8.22,3.957 -13.82,3.957 -7.99,0 -14.48,-3.328 -19.39,-9.879 -4.97,-6.578 -7.41,-15.531 -7.41,-26.8981 0,-5.3007 0.68,-10.2695 1.89,-14.7109 1.27,-4.4883 3.11,-8.2891 5.52,-11.4609 2.38,-3.1602 5.29,-5.5274 8.67,-7.1602 3.33,-1.6601 7.07,-2.4492 11.15,-2.4492 5.43,0 10.12,1.2891 14,3.9219 3.87,2.6679 7.34,6.6875 10.33,12.039 1.67,3.2696 3.42,5.7383 5.38,7.5586 1.9,1.8125 4.22,2.6719 7.07,2.6719 3.27,0 6.07,-1.2813 8.18,-3.9219 2.25,-2.6875 3.37,-5.4609 3.37,-8.4375"
         style="fill:#100f0d;fill-opacity:1;fill-rule:nonzero;stroke:none"
         transform="matrix(0.13333333,0,0,-0.13333333,0,774.17333)" />
      <path
         id="path17"
         d="m 3327.15,155.109 h 2.99 v 17.059 c 0,4.543 0.13,8.164 0.37,10.754 0.23,2.609 0.82,4.789 1.95,6.699 1.02,1.899 2.55,3.5 4.59,4.738 1.97,1.18 4.19,1.75 6.65,1.75 3.43,0 6.57,-1.32 9.34,-4.007 1.82,-1.832 3.03,-3.993 3.53,-6.571 0.51,-2.609 0.73,-6.351 0.73,-11.109 v -19.313 h 10 c 3.85,0 6.8,-0.968 8.82,-2.871 2.06,-1.918 3.05,-4.328 3.05,-7.316 0,-3.82 -1.44,-6.524 -4.37,-8.012 -2.87,-1.5 -7.01,-2.269 -12.38,-2.269 h -5.12 V 82.3594 c 0,-4.4492 0.17,-7.8711 0.45,-10.2891 0.35,-2.4023 1.19,-4.3398 2.45,-5.789 1.26,-1.5 3.37,-2.2696 6.32,-2.2696 1.58,0 3.73,0.2696 6.48,0.8867 2.66,0.5821 4.8,0.8829 6.35,0.8829 2.18,0 4.22,-0.9493 5.95,-2.7032 1.72,-1.8984 2.62,-4.1172 2.62,-6.8476 0,-4.5508 -2.34,-8.0586 -7.15,-10.4922 -4.84,-2.4297 -11.69,-3.6289 -20.62,-3.6289 -8.5,0 -14.97,1.4922 -19.35,4.4726 -4.36,2.9883 -7.28,7.0782 -8.59,12.418 -1.39,5.2617 -2.07,12.2891 -2.07,21.0898 v 54.5512 h -3.61 c -3.85,0 -6.85,0.968 -8.93,2.918 -2.07,1.929 -3.07,4.363 -3.07,7.363 0,2.988 1.05,5.398 3.19,7.316 2.19,1.903 5.3,2.871 9.43,2.871"
         style="fill:#100f0d;fill-opacity:1;fill-rule:nonzero;stroke:none"
         transform="matrix(0.13333333,0,0,-0.13333333,0,774.17333)" />
      <path
         id="path18"
         d="m 3472.35,99.75 c 0,11.531 -2.46,20.57 -7.32,27.02 -4.93,6.402 -11.42,9.66 -19.68,9.66 -5.34,0 -10,-1.45 -14.03,-4.321 -4.08,-2.918 -7.19,-7.16 -9.37,-12.769 -2.19,-5.559 -3.31,-12.07 -3.31,-19.59 0,-7.4297 1.12,-13.8906 3.27,-19.418 2.15,-5.5429 5.21,-9.7929 9.23,-12.7422 4,-2.9414 8.75,-4.3906 14.21,-4.3906 8.26,0 14.75,3.2227 19.68,9.6914 4.86,6.461 7.32,15.4492 7.32,26.8594 z m 27.3,0 c 0,-8.4102 -1.25,-16.2109 -3.82,-23.3984 -2.5,-7.0821 -6.17,-13.2305 -10.92,-18.3828 -4.8,-5.1368 -10.52,-8.9688 -17.13,-11.7891 -6.67,-2.7305 -14.09,-4.0703 -22.43,-4.0703 -8.27,0 -15.69,1.3398 -22.23,4.1523 -6.56,2.7578 -12.29,6.7266 -17.09,11.9102 -4.79,5.1679 -8.46,11.2265 -10.91,18.2578 -2.48,7.082 -3.7,14.8125 -3.7,23.3711 0,8.5902 1.22,16.4492 3.7,23.5582 2.58,7.18 6.15,13.231 10.86,18.332 4.76,5.047 10.45,8.95 17.14,11.68 6.78,2.738 14.16,4.129 22.23,4.129 8.26,0 15.69,-1.391 22.43,-4.168 6.7,-2.762 12.42,-6.762 17.22,-11.871 4.72,-5.121 8.43,-11.262 10.91,-18.332 2.49,-7.047 3.74,-14.859 3.74,-23.379"
         style="fill:#100f0d;fill-opacity:1;fill-rule:nonzero;stroke:none"
         transform="matrix(0.13333333,0,0,-0.13333333,0,774.17333)" />
      <path
         id="path19"
         d="M 3548.1,83.0117 V 59.3906 c 0,-5.7695 -1.31,-10.1015 -3.91,-13 -2.59,-2.8203 -5.86,-4.2812 -9.89,-4.2812 -3.87,0 -7.12,1.4922 -9.63,4.3515 -2.52,2.9102 -3.76,7.1993 -3.76,12.9297 v 78.9884 c 0,12.762 4.4,19.121 13.24,19.121 4.47,0 7.74,-1.512 9.77,-4.461 1.95,-2.98 3.01,-7.391 3.27,-13.199 3.23,5.808 6.61,10.219 10.04,13.199 3.42,2.949 7.96,4.461 13.64,4.461 5.77,0 11.28,-1.512 16.68,-4.461 5.36,-2.98 8.08,-6.949 8.08,-11.859 0,-3.45 -1.18,-6.36 -3.47,-8.578 -2.26,-2.243 -4.74,-3.411 -7.44,-3.411 -0.97,0 -3.4,0.661 -7.21,1.969 -3.84,1.262 -7.21,1.93 -10.15,1.93 -3.94,0 -7.19,-1.059 -9.69,-3.289 -2.54,-2.223 -4.51,-5.41 -5.9,-9.699 -1.39,-4.352 -2.4,-9.43 -2.9,-15.391 -0.51,-5.8907 -0.77,-13.1016 -0.77,-21.6993"
         style="fill:#100f0d;fill-opacity:1;fill-rule:nonzero;stroke:none"
         transform="matrix(0.13333333,0,0,-0.13333333,0,774.17333)" />
      <path
         id="path20"
         d="m 3692.95,79.1914 c 0,-7.8516 -1.82,-14.543 -5.51,-20.1328 -3.68,-5.5977 -9.06,-9.7695 -16.2,-12.6797 -7.17,-2.8086 -15.82,-4.2695 -26.11,-4.2695 -9.68,0 -18.09,1.539 -25.09,4.6992 -6.97,3.1016 -12.12,6.9805 -15.42,11.6523 -3.36,4.6602 -5.06,9.3477 -5.06,14.0508 0,3.1172 1.09,5.7891 3.27,8.0078 2.11,2.2618 4.81,3.3203 8.02,3.3203 2.88,0 5.1,-0.7382 6.62,-2.1484 1.52,-1.543 2.95,-3.543 4.38,-6.1797 2.78,-5.0703 6.1,-8.8515 10.05,-11.3398 3.82,-2.5313 9.12,-3.7735 15.89,-3.7735 5.42,0 9.89,1.293 13.39,3.8204 3.46,2.5312 5.26,5.4101 5.26,8.6718 0,5.0196 -1.84,8.668 -5.43,10.9375 -3.67,2.3321 -9.6,4.5117 -17.9,6.5703 -9.36,2.4336 -17,4.9805 -22.89,7.6329 -5.87,2.6797 -10.63,6.2307 -14.11,10.5897 -3.53,4.301 -5.31,9.711 -5.31,16.09 0,5.719 1.64,11.078 4.9,16.121 3.23,5.066 8.1,9.09 14.42,12.117 6.33,3.039 13.98,4.551 22.99,4.551 7,0 13.33,-0.781 18.97,-2.301 5.6,-1.519 10.35,-3.59 14.04,-6.117 3.75,-2.57 6.64,-5.422 8.58,-8.512 1.99,-3.16 2.96,-6.199 2.96,-9.16 0,-3.269 -1.02,-5.879 -3.16,-8.051 -2.1,-2 -5.1,-3.058 -8.89,-3.058 -2.82,0 -5.19,0.82 -7.19,2.519 -1.91,1.641 -4.19,4.121 -6.7,7.41 -2.06,2.782 -4.46,5.02 -7.28,6.68 -2.79,1.629 -6.57,2.5 -11.33,2.5 -4.93,0 -9.05,-1.09 -12.25,-3.301 -3.28,-2.16 -4.92,-4.91 -4.92,-8.16 0,-3 1.21,-5.429 3.57,-7.328 2.42,-1.922 5.62,-3.492 9.69,-4.75 4.09,-1.25 9.64,-2.801 16.75,-4.59 8.46,-2.14 15.32,-4.679 20.69,-7.691 5.34,-2.942 9.38,-6.4806 12.13,-10.5314 2.81,-4.0898 4.18,-8.707 4.18,-13.8672"
         style="fill:#100f0d;fill-opacity:1;fill-rule:nonzero;stroke:none"
         transform="matrix(0.13333333,0,0,-0.13333333,0,774.17333)" />
      <path
         id="path21"
         d="m 3723.83,42.1094 c -4.12,0 -7.68,1.3398 -10.63,4.1523 -3.04,2.7578 -4.51,6.668 -4.51,11.6094 0,4.2187 1.39,7.8594 4.23,10.9297 2.86,3.039 6.4,4.5195 10.59,4.5195 4.16,0 7.74,-1.4805 10.64,-4.5117 2.99,-2.9688 4.48,-6.6797 4.48,-10.9375 0,-4.9023 -1.49,-8.7695 -4.48,-11.5703 -2.9,-2.7891 -6.34,-4.1914 -10.32,-4.1914"
         style="fill:#100f0d;fill-opacity:1;fill-rule:nonzero;stroke:none"
         transform="matrix(0.13333333,0,0,-0.13333333,0,774.17333)" />
      <path
         id="path22"
         d="m 3844.09,99.75 c 0,11.531 -2.45,20.57 -7.34,27.02 -4.88,6.402 -11.41,9.66 -19.65,9.66 -5.32,0 -9.95,-1.45 -14.02,-4.321 -4.06,-2.918 -7.18,-7.16 -9.35,-12.769 -2.17,-5.559 -3.29,-12.07 -3.29,-19.59 0,-7.4297 1.05,-13.8906 3.2,-19.418 2.22,-5.5429 5.27,-9.7929 9.3,-12.7422 4.01,-2.9414 8.73,-4.3906 14.16,-4.3906 8.24,0 14.77,3.2227 19.65,9.6914 4.89,6.461 7.34,15.4492 7.34,26.8594 z m 27.32,0 c 0,-8.4102 -1.25,-16.2109 -3.81,-23.3984 -2.54,-7.0821 -6.15,-13.2305 -10.94,-18.3828 -4.83,-5.1368 -10.47,-8.9688 -17.13,-11.7891 -6.62,-2.7305 -14.1,-4.0703 -22.43,-4.0703 -8.22,0 -15.62,1.3398 -22.19,4.1523 -6.58,2.7578 -12.25,6.7266 -17.05,11.9102 -4.9,5.1679 -8.52,11.2265 -11.04,18.2578 -2.44,7.082 -3.69,14.8125 -3.69,23.3711 0,8.5902 1.25,16.4492 3.79,23.5582 2.57,7.18 6.13,13.231 10.82,18.332 4.72,5.047 10.44,8.95 17.17,11.68 6.7,2.738 14.05,4.129 22.19,4.129 8.24,0 15.71,-1.391 22.43,-4.168 6.73,-2.762 12.46,-6.762 17.25,-11.871 4.75,-5.121 8.38,-11.262 10.9,-18.332 2.48,-7.047 3.73,-14.859 3.73,-23.379"
         style="fill:#100f0d;fill-opacity:1;fill-rule:nonzero;stroke:none"
         transform="matrix(0.13333333,0,0,-0.13333333,0,774.17333)" />
      <path
         id="path23"
         d="M 3919.85,83.0117 V 59.3906 c 0,-5.7695 -1.3,-10.1015 -3.89,-13 -2.55,-2.8203 -5.88,-4.2812 -9.83,-4.2812 -3.97,0 -7.15,1.4922 -9.69,4.3515 -2.56,2.9102 -3.8,7.1993 -3.8,12.9297 v 78.9884 c 0,12.762 4.47,19.121 13.26,19.121 4.52,0 7.76,-1.512 9.74,-4.461 1.96,-2.98 3.12,-7.391 3.36,-13.199 3.19,5.808 6.52,10.219 9.94,13.199 3.44,2.949 8.01,4.461 13.67,4.461 5.81,0 11.35,-1.512 16.67,-4.461 5.38,-2.98 8.1,-6.949 8.1,-11.859 0,-3.45 -1.15,-6.36 -3.43,-8.578 -2.31,-2.243 -4.75,-3.411 -7.47,-3.411 -0.96,0 -3.35,0.661 -7.17,1.969 -3.84,1.262 -7.21,1.93 -10.15,1.93 -3.96,0 -7.19,-1.059 -9.79,-3.289 -2.48,-2.223 -4.44,-5.41 -5.86,-9.699 -1.36,-4.352 -2.33,-9.43 -2.85,-15.391 -0.53,-5.8907 -0.81,-13.1016 -0.81,-21.6993"
         style="fill:#100f0d;fill-opacity:1;fill-rule:nonzero;stroke:none"
         transform="matrix(0.13333333,0,0,-0.13333333,0,774.17333)" />
      <path
         id="path24"
         d="m 3998.36,100.719 c 0,-11.4807 2.43,-20.1877 7.26,-26.1096 4.78,-5.8477 11.05,-8.8281 18.63,-8.8281 4.5,0 8.82,1.3085 12.82,3.8398 4.02,2.5273 7.29,6.3398 9.82,11.4375 2.56,5.1016 3.78,11.2617 3.78,18.5312 0,11.5702 -2.46,20.5702 -7.34,26.9922 -4.86,6.508 -11.29,9.758 -19.25,9.758 -7.75,0 -13.99,-3.168 -18.66,-9.301 -4.7,-6.187 -7.06,-14.937 -7.06,-26.32 z m 78.84,36 V 54.25 c 0,-9.4609 -1.03,-17.5586 -2.92,-24.3203 -1.93,-6.8203 -5.01,-12.4375 -9.26,-16.8594 -4.24,-4.42967 -9.84,-7.71874 -16.67,-9.87108 C 4041.47,1.08984 4032.91,0 4022.69,0 c -9.38,0 -17.77,1.32813 -25.1,4.05859 -7.39,2.8125 -13.08,6.30081 -17.05,10.67191 -3.98,4.2812 -5.99,8.75 -5.99,13.3476 0,3.4727 1.1,6.2813 3.42,8.4532 2.23,2.2382 4.96,3.3203 8.14,3.3203 4,0 7.44,-1.8516 10.49,-5.5 1.46,-1.9414 2.98,-3.8008 4.5,-5.6914 1.56,-1.9102 3.3,-3.5821 5.17,-4.8985 1.92,-1.3906 4.21,-2.3828 6.87,-3.0508 2.6,-0.6523 5.7,-0.9804 9.17,-0.9804 6.98,0 12.51,1.039 16.37,3.0586 3.88,2.0507 6.62,4.9101 8.2,8.5703 1.48,3.6797 2.49,7.6015 2.65,11.789 0.32,4.2735 0.5,10.9414 0.69,20.2813 -4.18,-6.0899 -9.09,-10.7383 -14.51,-13.9297 -5.48,-3.1992 -12.03,-4.75 -19.54,-4.75 -9.18,0 -17.13,2.3789 -23.89,7.2617 -6.85,4.8477 -12.08,11.6172 -15.72,20.3789 -3.61,8.711 -5.48,18.7891 -5.48,30.2384 0,8.57 1.09,16.281 3.36,23.141 2.18,6.832 5.33,12.628 9.52,17.351 4.07,4.711 8.85,8.277 14.22,10.68 5.41,2.347 11.25,3.57 17.75,3.57 7.67,0 14.34,-1.562 19.97,-4.66 5.73,-3.043 10.91,-7.941 15.77,-14.492 v 3.801 c 0,4.96 1.21,8.742 3.5,11.531 2.3,2.66 5.31,4.027 8.95,4.027 5.26,0 8.75,-1.769 10.49,-5.34 1.7,-3.59 2.59,-8.777 2.59,-15.519"
         style="fill:#100f0d;fill-opacity:1;fill-rule:nonzero;stroke:none"
         transform="matrix(0.13333333,0,0,-0.13333333,0,774.17333)" />
      <path
         id="path25"
         d="m 2898.5,413.102 h 40.33 c -2.85,-21.75 -11.75,-38.723 -26.58,-50.942 -13.71,-11.969 -30.33,-17.871 -49.73,-17.871 -26.34,0 -47.37,9.262 -63.07,27.723 -14.87,17.57 -22.3,40.258 -22.3,67.957 0,28.402 7.38,51.101 22.09,68.281 14.71,17.121 35.5,25.73 62.39,25.73 19.99,0 36.91,-5.41 50.62,-16.148 14.54,-11.602 23.44,-27.902 26.58,-48.773 h -40.33 c -3.5,18.222 -14.6,27.269 -33.52,27.269 -31.18,0 -46.8,-18.469 -46.8,-55.418 0,-17.32 4.02,-31.461 12.04,-42.461 8.02,-11.07 19.32,-16.59 33.9,-16.59 21.74,0 33.2,10.43 34.38,31.243 z m -158.8,25.449 c 0,-36.11 11.45,-66.66 34.31,-91.571 22.89,-24.89 50.9,-37.351 84.15,-37.351 33.1,0 61.13,12.461 83.98,37.351 22.92,24.911 34.3,55.461 34.3,91.571 0,36.07 -11.38,66.609 -34.3,91.508 -22.85,24.953 -50.88,37.382 -83.98,37.382 -33.25,0 -61.26,-12.429 -84.15,-37.382 -22.86,-24.899 -34.31,-55.438 -34.31,-91.508 z m -40.98,0 c 0,45.929 15.55,85.14 46.66,117.711 31.15,32.519 68.76,48.789 112.78,48.789 43.92,0 81.46,-16.27 112.65,-48.789 31.13,-32.571 46.72,-71.782 46.72,-117.711 0,-45.981 -15.59,-85.25 -46.72,-117.75 -31.19,-32.551 -68.73,-48.832 -112.65,-48.832 -44.02,0 -81.63,16.281 -112.78,48.832 -31.11,32.5 -46.66,71.769 -46.66,117.75"
         style="fill:#100f0d;fill-opacity:1;fill-rule:nonzero;stroke:none"
         transform="matrix(0.13333333,0,0,-0.13333333,0,774.17333)" />
      <path
         id="path26"
         d="m 2763.23,334.121 23.25,-19.723 170.96,219.532 -23.25,19.691 -170.96,-219.5"
         style="fill:#100f0d;fill-opacity:1;fill-rule:nonzero;stroke:none"
         transform="matrix(0.13333333,0,0,-0.13333333,0,774.17333)" />
      <path
         id="path27"
         d="m 2849.94,5806.3 c 1573.99,0 2849.97,-1275.97 2849.97,-2849.95 0,-591.49 -180.25,-1140.88 -488.7,-1596.29 H 488.707 C 180.227,1815.47 0,2364.86 0,2956.35 0,4530.33 1275.96,5806.3 2849.94,5806.3"
         style="fill:#e1f1a2;fill-opacity:1;fill-rule:evenodd;stroke:none"
         transform="matrix(0.13333333,0,0,-0.13333333,0,774.17333)" />
      <path
         id="path28"
         d="m 5634.09,2344.74 c -78.32,-358.04 -223.92,-690.9 -422.88,-984.68 H 488.707 C 197.664,1789.72 20.832,2303.03 1.75391,2856.42 c 71.27739,64.05 150.98009,99.93 235.10509,99.93 87.735,0 170.664,-39.04 244.254,-108.37 146.45,368.81 389.86,610.2 665.427,610.2 385.04,0 707.37,-471.18 790.01,-1102.92 114.11,146.53 259.81,234.42 418.58,234.42 246.16,0 460.96,-211.22 575.23,-524.75 118.45,150.92 277.61,243.37 452.67,243.37 154.25,0 296.19,-71.77 408.79,-192.08 73.28,430.74 332.92,749.16 641.96,749.16 202.7,0 384.12,-137.01 505.66,-352.78 74.96,36.72 155.73,56.77 239.88,56.77 172.86,0 331.3,-84.33 454.77,-224.63"
         style="fill:#cce878;fill-opacity:1;fill-rule:evenodd;stroke:none"
         transform="matrix(0.13333333,0,0,-0.13333333,0,774.17333)" />
      <path
         id="path29"
         d="m 3084.89,3518.87 54.58,-114.4 c 94.66,-198.43 224.17,-378.25 382.36,-530.9 31.49,-30.39 69.74,-52.88 111.6,-65.59 294.44,-89.53 613.86,-34.79 861.68,147.66 44.24,32.55 63.98,88.93 49.73,141.98 -43.37,161.44 -122.89,310.91 -232.56,437.06 -41.74,48.02 -111.68,59.66 -166.73,27.75 -137.87,-79.9 -278.62,-154.73 -421.99,-224.31 -12.6,-6.1 -27.25,-6.41 -40.09,-0.81 -12.86,5.6 -22.61,16.54 -26.72,29.94 -26.15,85.51 -35.43,175.31 -27.3,264.38 l -285.8,67.71 -258.76,-180.47"
         style="fill:#3c4b1e;fill-opacity:1;fill-rule:evenodd;stroke:none"
         transform="matrix(0.13333333,0,0,-0.13333333,0,774.17333)" />
      <path
         id="path30"
         d="m 2576.07,2808.59 -21.59,-150.63 c -37.48,-261.24 -121.55,-513.63 -248.21,-745.17 -25.22,-46.08 -61,-85.52 -104.42,-115.08 -305.37,-207.92 -690.98,-259.48 -1040.24,-139.09 -62.35,21.5 -105.13,79.02 -107.78,144.91 -8.08,200.51 29.59,400.24 110.13,584.04 30.64,69.96 106.62,108.33 181.11,91.44 186.57,-42.23 374.63,-77.61 563.81,-106.04 16.64,-2.5 33.54,2.38 46.25,13.41 12.73,11.01 19.99,27.04 19.89,43.87 -0.62,107.35 -22.1,213.56 -63.3,312.71 l 303.27,179.86 361.08,-114.23"
         style="fill:#3c4b1e;fill-opacity:1;fill-rule:evenodd;stroke:none"
         transform="matrix(0.13333333,0,0,-0.13333333,0,774.17333)" />
      <path
         id="path31"
         d="m 3296.12,4229.34 266.02,-188.63 c 186.65,-132.35 282.64,-358.7 248.05,-584.88 -88.64,-579.32 -451.65,-1080.16 -974.62,-1344.66 -157.41,-79.6 -341.65,-86.79 -504.78,-19.69 -163.13,67.1 -288.99,201.85 -344.83,369.17 l 1310.16,1768.69"
         style="fill:#f48313;fill-opacity:1;fill-rule:evenodd;stroke:none"
         transform="matrix(0.13333333,0,0,-0.13333333,0,774.17333)" />
      <path
         id="path32"
         d="m 3817.12,3545.99 c -0.06,-29.9 -2.34,-60.04 -6.93,-90.16 -51.68,-337.69 -196.6,-648.69 -412.07,-901.81 -128.11,177.84 -155.17,410.7 -68.88,614.33 86.08,203.19 271.6,345.57 487.88,377.64"
         style="fill:#f9b00b;fill-opacity:1;fill-rule:evenodd;stroke:none"
         transform="matrix(0.13333333,0,0,-0.13333333,0,774.17333)" />
      <path
         id="path33"
         d="m 2337.87,2922.82 151.92,-29.11 c 263.51,-50.5 518.79,-151.77 753.7,-298.99 46.76,-29.3 86.97,-69.96 117.37,-118.65 213.75,-342.37 271.28,-767.08 155.22,-1145.79 -20.72,-67.6 -78,-112.44 -144.28,-112.97 -201.73,-1.64 -403.3,46.83 -589.49,141.75 -70.86,36.15 -110.59,120.85 -94.71,201.93 39.8,203.07 72.65,408.04 98.52,614.5 2.27,18.13 -2.91,36.85 -14.19,51.19 -11.26,14.35 -27.51,22.89 -44.44,23.38 -108.05,3.19 -328.65,-120.64 -618.67,-44.53 l 119.35,325.41 109.7,391.88"
         style="fill:#63852a;fill-opacity:1;fill-rule:evenodd;stroke:none"
         transform="matrix(0.13333333,0,0,-0.13333333,0,774.17333)" />
      <path
         id="path34"
         d="m 2960.42,1283.98 c -60.56,20.44 -120.08,45.51 -178.11,75.08 -6.71,3.42 -13.14,7.3 -19.27,11.53 25.92,58.82 81.34,93.4 132.27,79.08 57.21,-16.08 87.11,-87.79 66.77,-160.18 -0.52,-1.87 -1.07,-3.71 -1.66,-5.51 z m 302.67,-62.7 c -84.46,6.81 -168.41,22.36 -250.74,46.37 -1.95,17.59 -1.68,36.04 1.13,54.89 14.01,93.74 85.41,160.76 159.52,149.69 74.11,-11.06 122.84,-96.02 108.85,-189.76 -3.29,-22.12 -9.78,-42.73 -18.76,-61.19 z m 275.86,193.7 c -6.68,-28.46 -14.29,-56.69 -22.87,-84.7 -20.72,-67.6 -78,-112.44 -144.28,-112.97 -14.08,-0.13 -28.15,0.02 -42.22,0.39 -4.71,27.31 -3.38,57.35 5.08,87.48 24.92,88.64 102.2,144.46 172.61,124.66 11.5,-3.24 22.1,-8.29 31.68,-14.86 v 0"
         style="fill:#8db038;fill-opacity:1;fill-rule:evenodd;stroke:none"
         transform="matrix(0.13333333,0,0,-0.13333333,0,774.17333)" />
      <path
         id="path35"
         d="m 2589.4,2872.11 c 149.39,-36.19 295.6,-88.79 436.34,-156.87 -102.89,-43.29 -191.46,-116.59 -253.3,-211.64 -50.75,-77.97 -80.84,-166.45 -88.84,-257.35 -118.35,-19.94 -319.7,-107.66 -574.78,-40.72 l 119.35,325.41 104.21,372.26 257.02,-31.09"
         style="fill:#3c4b1e;fill-opacity:1;fill-rule:evenodd;stroke:none"
         transform="matrix(0.13333333,0,0,-0.13333333,0,774.17333)" />
      <path
         id="path36"
         d="m 3497.86,4339.16 c -668.54,204 -1366.51,236.87 -1816.84,-509.68 -306.24,-507.66 -223.94,-1159.18 198.94,-1574.74 l 375.39,250.14 495.87,241.66 139.83,170.73 44.2,587.35 486.05,423.11 76.56,411.43"
         style="fill:#81301a;fill-opacity:1;fill-rule:evenodd;stroke:none"
         transform="matrix(0.13333333,0,0,-0.13333333,0,774.17333)" />
      <path
         id="path37"
         d="m 2396.03,4103.98 420.82,-5.19 -271.93,-568.71 -286.02,179.93 z m -597.48,-792.36 -138.95,275.51 230.69,162.78 214.36,-84.49 -306.1,-353.8 z m 406.27,306.21 280.98,-176.74 -417.09,-476.77 -210.47,252.89 346.58,400.62 z m -42.65,139.8 -221.14,87.15 23.4,191.64 313.41,53.52 -115.67,-332.31 z m 769.56,699.62 c -36.01,3.21 -71.86,5.36 -107.56,6.45 l 19.3,-258.51 -438.46,5.41 -25.93,198.41 c -34.67,-10.63 -68.95,-22.85 -102.76,-36.9 l 22.25,-170.3 -376,-64.21 c -20.65,-19.91 -41,-40.78 -61,-62.84 l -28.62,-234.52 -230.16,-162.41 c -17.63,-40.59 -33.07,-81.79 -46.26,-123.46 l 150.06,-297.52 -209.43,-65.12 c -0.67,-37.03 0.3,-74.04 2.83,-110.91 l 264.44,82.24 218.99,-263.15 -398.88,-197.45 c 12.93,-33.17 27.26,-65.86 42.99,-98 l 413.65,204.76 125.95,-287.85 323.86,98.36 260.23,126.81 69.81,85.24 -593.95,-180.35 -96.7,220.99 449.93,514.31 333.59,-165.75 8.66,115.13 -284.45,141.35 293.51,613.81 503.04,-91.82 19.52,104.98 -502.96,91.8 -19.49,261.02 v 0"
         style="fill:#522016;fill-opacity:1;fill-rule:evenodd;stroke:none"
         transform="matrix(0.13333333,0,0,-0.13333333,0,774.17333)" />
      <path
         id="path38"
         d="m 2845.21,2861.32 45.84,55.95 6.81,90.47 z"
         style="fill:#522016;fill-opacity:1;fill-rule:evenodd;stroke:none"
         transform="matrix(0.13333333,0,0,-0.13333333,0,774.17333)" />
      <path
         id="path39"
         d="m 3538.55,4169.15 175.95,34.69 c 175.55,34.63 334.87,125.92 453.51,259.86 203.21,229.44 550.31,260.06 790.57,69.75 133.2,-105.52 213.74,-263.89 220.56,-433.69 3.64,-91.06 -41.73,-177.11 -118.98,-225.52 -218.14,-136.75 -493.31,-144.34 -718.66,-19.82 -192.08,106.12 -433.72,40.38 -545.55,-148.42 l -61.63,-6.66 c -153.14,-16.52 -306.21,31.92 -421.95,133.55 l 226.18,336.26"
         style="fill:#63852a;fill-opacity:1;fill-rule:evenodd;stroke:none"
         transform="matrix(0.13333333,0,0,-0.13333333,0,774.17333)" />
      <path
         id="path40"
         d="m 3538.55,4169.15 172.42,34.01 c 2.27,-67.92 27.6,-136.02 73.11,-192.62 58.9,-73.21 145.08,-119.09 234.85,-125.65 -90.43,-29.57 -170.81,-90.84 -222.98,-178.89 l -61.63,-6.66 c -153.14,-16.52 -306.21,31.92 -421.95,133.55 l 226.18,336.26"
         style="fill:#3c4b1e;fill-opacity:1;fill-rule:evenodd;stroke:none"
         transform="matrix(0.13333333,0,0,-0.13333333,0,774.17333)" />
      <path
         id="path41"
         d="m 3350.64,4263.44 c -15.26,72.06 30.76,142.85 102.82,158.11 72.03,15.27 142.83,-30.77 158.1,-102.81 l 18.47,-85.82 c 25.86,-120.18 3.91,-240.55 -53.87,-340.29 -57.89,-99.96 -151.54,-179.05 -268.86,-216.49 -87.64,-27.96 -156.39,-88.23 -196.98,-163.7 -40.65,-75.56 -53.09,-166.27 -28.06,-254.98 25.22,-89.5 27.78,-182.23 9.28,-270.42 -18.63,-88.81 -58.28,-172.98 -117.27,-244.67 -59.16,-71.9 -134.15,-127.1 -217.6,-162.43 -83.19,-35.24 -174.79,-50.63 -267.49,-43.11 -36.79,2.99 -71.92,-8.78 -99.41,-30.56 -27.42,-21.72 -46.82,-53.04 -52.27,-89.18 -8.58,-57.08 -30.25,-109.95 -62.28,-154.85 -32.21,-45.14 -75.14,-82.91 -126.06,-109.48 -50.51,-26.33 -105.78,-39.83 -161.14,-40.42 -55.55,-0.58 -111.27,11.77 -162.44,37.12 -66.11,32.54 -93.31,112.53 -60.77,178.66 32.55,66.1 112.54,93.3 178.65,60.76 12.97,-6.44 27.12,-9.58 41.2,-9.43 14.29,0.17 28.52,3.62 41.49,10.39 12.54,6.54 23.29,16.08 31.54,27.62 8.41,11.82 14.02,25.08 16.08,38.79 16.06,106.75 71.68,197.84 149.89,259.83 78.15,61.92 179.3,95.26 286.54,86.54 49.35,-4 98.14,4.2 142.44,22.96 44.06,18.65 83.72,47.87 115.08,85.99 31.58,38.37 52.7,82.97 62.49,129.67 9.94,47.31 8.62,96.9 -4.82,144.57 -44.52,157.9 -22.48,319.21 49.72,453.43 72.27,134.34 194.84,241.7 351.31,291.62 52.09,16.62 93.53,51.48 118.99,95.43 25.57,44.16 35.25,97.68 23.7,151.34 l -18.47,85.81"
         style="fill:#cd5629;fill-opacity:1;fill-rule:evenodd;stroke:none"
         transform="matrix(0.13333333,0,0,-0.13333333,0,774.17333)" />
      <path
         id="path42"
         d="m 3096.62,3645.65 -207.78,35.92 c -177.41,30.67 -359.42,21.56 -532.86,-26.71 l -131.22,-62.84 c -158.59,-75.97 -293.27,-194.05 -389.3,-341.35 -22.5,-34.53 -24.54,-78.51 -5.33,-114.98 53.98,-102.46 134.85,-188.32 233.92,-248.32 56.03,-33.92 125.39,-37.38 184.51,-9.15 50.92,24.3 94.49,61.67 126.29,108.29 69.11,101.36 162.61,183.75 271.87,239.57 l 87.1,1.87 c 105.38,2.23 210.65,-8.14 313.56,-30.91 84.93,-18.8 173.13,12.6 227.1,80.83 53.94,68.23 64.15,161.3 26.29,239.61 -37.87,78.32 -119.67,113.56 -204.15,128.17"
         style="fill:#63852a;fill-opacity:1;fill-rule:evenodd;stroke:none"
         transform="matrix(0.13333333,0,0,-0.13333333,0,774.17333)" />
      <path
         id="path43"
         d="m 2794.84,3227.82 c 84.92,-2.1 169.49,-12.42 252.54,-30.78 84.93,-18.8 173.13,12.6 227.1,80.83 53.94,68.23 64.15,161.3 26.29,239.61 -37.11,76.76 -116.43,112.14 -199.1,127.27 21.09,-96.57 -0.18,-198.66 -60.31,-279.42 -59.34,-79.66 -149.45,-129.05 -246.52,-137.51"
         style="fill:#3c4b1e;fill-opacity:1;fill-rule:evenodd;stroke:none"
         transform="matrix(0.13333333,0,0,-0.13333333,0,774.17333)" />
      <path
         id="path44"
         d="m 1819.18,3166.57 -4.76,86.89 c -4.65,84.78 18.6,168.76 66.21,239.08 31.8,46.98 87.48,71.89 143.7,64.29 56.22,-7.61 103.29,-46.41 121.46,-100.15 30.53,-90.26 4.08,-190.02 -67.16,-253.29 -71.23,-63.27 -173.42,-77.77 -259.45,-36.82"
         style="fill:#63852a;fill-opacity:1;fill-rule:evenodd;stroke:none"
         transform="matrix(0.13333333,0,0,-0.13333333,0,774.17333)" />
      <path
         id="path45"
         d="m 4614.06,3858.11 c 94.86,0 172.22,49.54 172.22,110.29 0,60.74 -77.36,110.27 -172.22,110.27 -94.88,0 -172.24,-49.53 -172.24,-110.27 0,-60.75 77.36,-110.29 172.24,-110.29"
         style="fill:#632415;fill-opacity:1;fill-rule:evenodd;stroke:none"
         transform="matrix(0.13333333,0,0,-0.13333333,0,774.17333)" />
      <path
         id="path46"
         d="m 4636.74,3859.06 c -7.42,-0.62 -14.99,-0.95 -22.68,-0.95 -64.38,0 -120.51,22.63 -150.07,56.14 18.1,15.72 44.63,25.64 74.17,25.64 54.58,0 98.82,-33.84 98.82,-75.58 0,-1.77 -0.08,-3.51 -0.24,-5.25"
         style="fill:#df4c1e;fill-opacity:1;fill-rule:evenodd;stroke:none"
         transform="matrix(0.13333333,0,0,-0.13333333,0,774.17333)" />
      <path
         id="path47"
         d="m 4614.06,4078.67 c 65.68,0 122.76,-23.53 151.8,-58.15 -45.72,-20.92 -125.57,-34.78 -216.44,-34.78 -36.85,0 -71.9,2.29 -103.58,6.39 16.96,49.49 85.82,86.54 168.22,86.54"
         style="fill:#ffffff;fill-opacity:1;fill-rule:evenodd;stroke:none"
         transform="matrix(0.13333333,0,0,-0.13333333,0,774.17333)" />
      <path
         id="path48"
         d="m 4702.04,4366.14 c 64.15,0 116.47,35.07 116.47,78.07 0,43 -52.32,78.07 -116.47,78.07 -64.15,0 -116.48,-35.07 -116.48,-78.07 0,-43 52.33,-78.07 116.48,-78.07"
         style="fill:#ffffff;fill-opacity:1;fill-rule:evenodd;stroke:none"
         transform="matrix(0.13333333,0,0,-0.13333333,0,774.17333)" />
      <path
         id="path49"
         d="m 4818.37,4440.36 c -2.57,-35.71 -40.97,-65.11 -91.62,-72.45 -33.32,7.13 -58.16,34.97 -58.16,68.24 0,38.67 33.55,70.02 74.96,70.02 39.88,0 72.49,-29.1 74.82,-65.81"
         style="fill:#1b1919;fill-opacity:1;fill-rule:evenodd;stroke:none"
         transform="matrix(0.13333333,0,0,-0.13333333,0,774.17333)" />
      <path
         id="path50"
         d="m 4711.64,4436.16 c 23.72,0 43.06,12.94 43.06,28.81 0,15.87 -19.34,28.81 -43.06,28.81 -23.71,0 -43.05,-12.94 -43.05,-28.81 0,-15.87 19.34,-28.81 43.05,-28.81"
         style="fill:#ffffff;fill-opacity:1;fill-rule:evenodd;stroke:none"
         transform="matrix(0.13333333,0,0,-0.13333333,0,774.17333)" />
      <path
         id="path51"
         d="m 4721.25,4694.83 c -97.93,-1.69 -187.28,-56.2 -233.57,-142.5 l 37.17,-53.29 9.28,8.68 c 56.95,53.16 132.13,82.43 210.04,81.77 l 13.01,105.95 -35.93,-0.61"
         style="fill:#97c230;fill-opacity:1;fill-rule:evenodd;stroke:none"
         transform="matrix(0.13333333,0,0,-0.13333333,0,774.17333)" />
      <path
         id="path52"
         d="m 261.996,2765.66 c -12.933,0 -23.422,10.47 -23.422,23.41 0,12.94 10.489,23.43 23.422,23.43 H 1322.67 c 12.93,0 23.41,-10.49 23.41,-23.43 0,-12.94 -10.48,-23.41 -23.41,-23.41 z m 128.863,-683.98 c -12.933,0 -23.418,10.49 -23.418,23.41 0,12.93 10.485,23.42 23.418,23.42 H 708.07 c 12.938,0 23.422,-10.49 23.422,-23.42 0,-12.92 -10.484,-23.41 -23.422,-23.41 H 390.859 Z M 1862.92,5030.74 c -12.93,0 -23.41,10.49 -23.41,23.42 0,12.93 10.48,23.41 23.41,23.41 h 1154.85 c 12.93,0 23.42,-10.48 23.42,-23.41 0,-12.93 -10.49,-23.42 -23.42,-23.42 H 1862.92 Z M 708.07,4421.1 c -12.929,0 -23.418,10.49 -23.418,23.42 0,12.92 10.489,23.41 23.418,23.41 h 614.6 c 12.93,0 23.41,-10.49 23.41,-23.41 0,-12.93 -10.48,-23.42 -23.41,-23.42 h -614.6 z m 2532.74,250.93 c -12.92,0 -23.41,10.48 -23.41,23.41 0,12.93 10.49,23.41 23.41,23.41 h 659.21 c 12.92,0 23.41,-10.48 23.41,-23.41 0,-12.93 -10.49,-23.41 -23.41,-23.41 H 3240.81 Z M 589.117,3559.77 c -12.929,0 -23.418,10.48 -23.418,23.41 0,12.93 10.489,23.42 23.418,23.42 h 463.633 c 12.94,0 23.43,-10.49 23.43,-23.42 0,-12.93 -10.49,-23.41 -23.43,-23.41 H 589.117 v 0"
         style="fill:#ffffff;fill-opacity:1;fill-rule:evenodd;stroke:none"
         transform="matrix(0.13333333,0,0,-0.13333333,0,774.17333)" />
    </g>
  </g>
</svg>
