<?xml version="1.0" encoding="UTF-8" standalone="no"?>
<!-- Created with Inkscape (http://www.inkscape.org/) -->

<svg
   version="1.1"
   id="svg1"
   width="749.38666"
   height="775.85333"
   viewBox="0 0 749.38666 775.85333"
   sodipodi:docname="shelves-with-office-folders.svg"
   inkscape:version="1.3.2 (091e20ef0f, 2023-11-25, custom)"
   xmlns:inkscape="http://www.inkscape.org/namespaces/inkscape"
   xmlns:sodipodi="http://sodipodi.sourceforge.net/DTD/sodipodi-0.dtd"
   xmlns="http://www.w3.org/2000/svg"
   xmlns:svg="http://www.w3.org/2000/svg">
  <defs
     id="defs1" />
  <sodipodi:namedview
     id="namedview1"
     pagecolor="#505050"
     bordercolor="#ffffff"
     borderopacity="1"
     inkscape:showpageshadow="0"
     inkscape:pageopacity="0"
     inkscape:pagecheckerboard="1"
     inkscape:deskcolor="#d1d1d1"
     inkscape:zoom="0.99761123"
     inkscape:cx="374.39434"
     inkscape:cy="387.92667"
     inkscape:window-width="1920"
     inkscape:window-height="1002"
     inkscape:window-x="0"
     inkscape:window-y="0"
     inkscape:window-maximized="1"
     inkscape:current-layer="g1">
    <inkscape:page
       x="0"
       y="0"
       inkscape:label="1"
       id="page1"
       width="749.38666"
       height="775.85333"
       margin="0"
       bleed="0" />
  </sodipodi:namedview>
  <g
     id="g1"
     inkscape:groupmode="layer"
     inkscape:label="1">
    <g
       id="group-R5">
      <path
         id="path2"
         d="m 1716.39,100.27 c 0,7.519 -1.08,14 -3.31,19.3 -2.16,5.391 -5.19,9.539 -9.1,12.469 -3.89,2.84 -8.18,4.301 -12.92,4.301 -7.49,0 -13.83,-3.16 -18.98,-9.289 -5.16,-6.211 -7.74,-15.262 -7.74,-27.2619 0,-11.3203 2.58,-20.1094 7.66,-26.3086 5.15,-6.3086 11.52,-9.4688 19.06,-9.4688 4.51,0 8.73,1.3672 12.6,4.1485 3.8,2.7304 6.9,6.8281 9.24,12.2617 2.34,5.5273 3.49,12.0976 3.49,19.8481 z m -53.31,41.378 v -3.418 c 5.1,6.54 10.39,11.442 15.9,14.481 5.53,3.098 11.82,4.668 18.8,4.668 8.35,0 16.06,-2.27 23.1,-6.777 7.03,-4.512 12.59,-11.063 16.7,-19.77 4.08,-8.684 6.09,-18.914 6.09,-30.781 0,-8.7112 -1.14,-16.8322 -3.5,-24.0393 -2.35,-7.3203 -5.6,-13.5117 -9.71,-18.4531 -4.12,-4.9492 -9.02,-8.7891 -14.6,-11.418 -5.64,-2.7187 -11.69,-4.0312 -18.08,-4.0312 -7.81,0 -14.34,1.6211 -19.62,4.8906 -5.33,3.25 -10.33,8 -15.08,14.3203 V 18.7305 C 1663.08,6.23047 1658.72,0 1650.01,0 c -5.11,0 -8.52,1.60156 -10.13,4.80078 -1.68,3.23828 -2.5,7.94922 -2.5,14.09762 V 141.461 c 0,5.398 1.09,9.449 3.37,12.109 2.3,2.649 5.37,4.012 9.26,4.012 3.86,0 7,-1.363 9.42,-4.141 2.42,-2.75 3.65,-6.699 3.65,-11.793"
         style="fill:#100f0d;fill-opacity:1;fill-rule:nonzero;stroke:none"
         transform="matrix(0.13333333,0,0,-0.13333333,0,775.85333)" />
      <path
         id="path3"
         d="m 1836.21,58.168 v 3.582 c -3.27,-4.2812 -6.68,-7.8711 -10.28,-10.7695 -3.59,-2.961 -7.51,-5.1094 -11.74,-6.5 -4.29,-1.4219 -9.13,-2.1407 -14.58,-2.1407 -6.54,0 -12.44,1.4297 -17.67,4.25 -5.22,2.8282 -9.27,6.7618 -12.08,11.7422 -3.44,6.0391 -5.09,14.7071 -5.09,25.9688 V 140.57 c 0,5.649 1.22,9.922 3.69,12.719 2.46,2.801 5.7,4.211 9.73,4.211 4.14,0 7.44,-1.41 9.98,-4.281 2.53,-2.848 3.77,-7.078 3.77,-12.649 V 95.0898 c 0,-6.5312 0.53,-12.0781 1.56,-16.5117 1.11,-4.4883 3.02,-7.9883 5.8,-10.5586 2.7,-2.4882 6.46,-3.7578 11.17,-3.7578 4.63,0 8.93,1.4375 12.96,4.2696 4.08,2.8085 7.05,6.5078 8.89,11.0898 1.53,4.0273 2.28,12.8281 2.28,26.4099 v 34.539 c 0,5.571 1.26,9.801 3.81,12.649 2.5,2.871 5.75,4.281 9.83,4.281 4.06,0 7.31,-1.41 9.77,-4.211 2.42,-2.797 3.64,-7.07 3.64,-12.719 V 58.332 c 0,-5.4023 -1.13,-9.4726 -3.5,-12.1406 -2.33,-2.7422 -5.37,-4.0625 -9.1,-4.0625 -3.71,0 -6.76,1.4414 -9.21,4.1719 -2.42,2.8476 -3.63,6.7383 -3.63,11.8672"
         style="fill:#100f0d;fill-opacity:1;fill-rule:nonzero;stroke:none"
         transform="matrix(0.13333333,0,0,-0.13333333,0,775.85333)" />
      <path
         id="path4"
         d="m 1915.11,99.1484 c 0,-11.289 2.46,-19.9375 7.39,-26.0273 4.97,-6.0391 11.46,-9.1094 19.52,-9.1094 6.85,0 12.7,3.1172 17.69,9.3086 4.97,6.2305 7.45,15.0586 7.45,26.6602 0,7.5585 -1.04,13.9685 -3.11,19.3595 -2.08,5.441 -5.02,9.621 -8.76,12.539 -3.84,2.941 -8.21,4.461 -13.27,4.461 -5.23,0 -9.77,-1.52 -13.86,-4.461 -4.08,-2.918 -7.24,-7.207 -9.58,-12.801 -2.33,-5.539 -3.47,-12.16 -3.47,-19.9296 z m -1.29,84.3826 v -43.39 c 5.05,5.597 10.3,9.8 15.6,12.808 5.33,2.93 11.93,4.43 19.75,4.43 9.04,0 16.95,-2.27 23.76,-6.688 6.8,-4.55 12.11,-10.992 15.84,-19.48 3.79,-8.481 5.64,-18.563 5.64,-30.199 0,-8.6136 -1.03,-16.4807 -3.1,-23.7112 -2.11,-7.1406 -5.11,-13.332 -9.12,-18.6602 -4.02,-5.2422 -8.86,-9.2695 -14.51,-12.25 -5.71,-2.8203 -11.97,-4.2812 -18.8,-4.2812 -4.15,0 -8.12,0.5312 -11.83,1.5508 -3.68,1.0507 -6.84,2.4101 -9.37,4.1601 -2.63,1.5977 -4.84,3.4102 -6.67,5.1719 -1.82,1.8359 -4.21,4.5078 -7.19,8.1172 V 58.332 c 0,-5.3632 -1.26,-9.3906 -3.72,-12.1406 -2.42,-2.7422 -5.6,-4.082 -9.34,-4.082 -3.88,0 -6.93,1.3398 -9.26,4.082 -2.26,2.8086 -3.4,6.8008 -3.4,12.1406 v 123.969 c 0,5.711 1.1,10.07 3.36,13.008 2.21,2.961 5.28,4.421 9.3,4.421 4.16,0 7.39,-1.398 9.63,-4.23 2.28,-2.781 3.43,-6.762 3.43,-11.969"
         style="fill:#100f0d;fill-opacity:1;fill-rule:nonzero;stroke:none"
         transform="matrix(0.13333333,0,0,-0.13333333,0,775.85333)" />
      <path
         id="path5"
         d="M 2013.61,59.3906 V 182.48 c 0,5.711 1.21,9.981 3.6,12.911 2.47,2.879 5.72,4.339 9.85,4.339 4.12,0 7.42,-1.421 9.96,-4.308 2.48,-2.863 3.8,-7.211 3.8,-12.942 V 59.3906 c 0,-5.7617 -1.32,-10.1015 -3.87,-13 -2.54,-2.8203 -5.85,-4.2812 -9.89,-4.2812 -3.99,0 -7.19,1.5 -9.7,4.4804 -2.5,2.9805 -3.75,7.2305 -3.75,12.8008"
         style="fill:#100f0d;fill-opacity:1;fill-rule:nonzero;stroke:none"
         transform="matrix(0.13333333,0,0,-0.13333333,0,775.85333)" />
      <path
         id="path6"
         d="M 2096.08,141.379 V 59.3906 c 0,-5.7187 -1.32,-10.0195 -3.85,-12.9297 -2.62,-2.8515 -5.92,-4.3515 -9.87,-4.3515 -4,0 -7.25,1.5 -9.72,4.4492 -2.47,3.0117 -3.76,7.2617 -3.76,12.832 V 140.57 c 0,5.571 1.29,9.801 3.76,12.649 2.47,2.871 5.72,4.281 9.72,4.281 3.95,0 7.25,-1.41 9.87,-4.281 2.53,-2.848 3.85,-6.778 3.85,-11.84 z m -13.45,29.351 c -3.79,0 -7,1.211 -9.75,3.7 -2.62,2.41 -4,5.871 -4,10.32 0,3.988 1.38,7.281 4.15,9.922 2.76,2.609 5.95,3.828 9.6,3.828 3.52,0 6.66,-1.141 9.37,-3.488 2.71,-2.352 4.08,-5.821 4.08,-10.262 0,-4.41 -1.33,-7.82 -4,-10.238 -2.66,-2.461 -5.77,-3.782 -9.45,-3.782"
         style="fill:#100f0d;fill-opacity:1;fill-rule:nonzero;stroke:none"
         transform="matrix(0.13333333,0,0,-0.13333333,0,775.85333)" />
      <path
         id="path7"
         d="m 2221.61,77.2617 c 0,-3.5234 -1,-7.3125 -3.02,-11.3398 -2.05,-4.0117 -5.13,-7.8203 -9.3,-11.4727 -4.12,-3.6289 -9.36,-6.5508 -15.67,-8.75 -6.31,-2.2773 -13.43,-3.3594 -21.31,-3.3594 -16.82,0 -29.93,5.129 -39.37,15.3321 -9.41,10.2265 -14.14,23.8984 -14.14,41.0976 0,11.6405 2.15,21.9685 6.45,30.8785 4.31,8.891 10.61,15.864 18.74,20.723 8.15,4.918 17.95,7.359 29.27,7.359 7.07,0 13.54,-1.101 19.42,-3.218 5.87,-2.172 10.85,-4.953 14.93,-8.313 4.08,-3.41 7.2,-7.051 9.37,-10.859 2.18,-3.84 3.23,-7.442 3.23,-10.781 0,-3.34 -1.24,-6.227 -3.63,-8.598 -2.44,-2.383 -5.34,-3.539 -8.81,-3.539 -2.28,0 -4.13,0.648 -5.66,1.859 -1.45,1.168 -3.15,3.078 -5.03,5.84 -3.3,5.25 -6.79,9.231 -10.4,11.918 -3.63,2.602 -8.23,3.953 -13.76,3.953 -8.09,0 -14.56,-3.332 -19.46,-9.871 -4.93,-6.582 -7.36,-15.539 -7.36,-26.9101 0,-5.3007 0.63,-10.2695 1.91,-14.6992 1.25,-4.5 3.07,-8.2929 5.45,-11.4726 2.4,-3.1485 5.26,-5.5274 8.66,-7.1602 3.39,-1.6601 7.12,-2.4492 11.14,-2.4492 5.49,0 10.13,1.2891 14.02,3.9297 3.9,2.6601 7.33,6.6914 10.31,12.0312 1.67,3.2696 3.45,5.7383 5.39,7.5703 1.95,1.8008 4.31,2.6602 7.09,2.6602 3.31,0 6.07,-1.2813 8.28,-3.9102 2.15,-2.6992 3.26,-5.4726 3.26,-8.4492"
         style="fill:#100f0d;fill-opacity:1;fill-rule:nonzero;stroke:none"
         transform="matrix(0.13333333,0,0,-0.13333333,0,775.85333)" />
      <path
         id="path8"
         d="m 2266.41,99.9805 c 0,-7.6992 1.14,-14.1992 3.42,-19.6407 2.31,-5.4179 5.4,-9.4492 9.39,-12.1796 4.01,-2.7813 8.37,-4.1485 13.04,-4.1485 4.8,0 9.16,1.3281 13.1,3.8867 3.98,2.6133 7.09,6.6329 9.48,11.9922 2.37,5.3477 3.53,12.0782 3.53,20.0899 0,7.6015 -1.16,14.0585 -3.53,19.5315 -2.39,5.449 -5.55,9.597 -9.56,12.527 -4.03,2.84 -8.4,4.301 -13.19,4.301 -4.96,0 -9.4,-1.52 -13.34,-4.461 -3.89,-2.918 -6.97,-7.199 -9.12,-12.707 -2.13,-5.524 -3.22,-11.863 -3.22,-19.1915 z m 53.46,-41.6485 v 2.7774 c -3.66,-4.3672 -7.26,-7.9102 -10.86,-10.6094 -3.49,-2.7695 -7.36,-4.8398 -11.51,-6.2695 -4.14,-1.3789 -8.68,-2.1211 -13.58,-2.1211 -6.5,0 -12.57,1.4609 -18.09,4.2812 -5.53,2.9805 -10.32,7.0313 -14.38,12.3594 -4.04,5.3516 -7.11,11.6211 -9.22,18.8516 -2.12,7.1797 -3.14,14.9804 -3.14,23.4104 0,17.699 4.16,31.59 12.46,41.5 8.32,9.918 19.23,14.867 32.76,14.867 7.83,0 14.45,-1.43 19.82,-4.289 5.37,-2.762 10.63,-7.078 15.74,-12.949 v 41.918 c 0,5.839 1.1,10.23 3.34,13.203 2.21,3 5.35,4.468 9.49,4.468 4.11,0 7.28,-1.378 9.53,-4.082 2.21,-2.726 3.36,-6.777 3.36,-12.117 V 58.332 c 0,-5.4023 -1.21,-9.4726 -3.61,-12.1406 -2.4,-2.7422 -5.46,-4.082 -9.28,-4.082 -3.68,0 -6.79,1.4023 -9.22,4.1914 -2.41,2.8086 -3.61,6.7812 -3.61,12.0312"
         style="fill:#100f0d;fill-opacity:1;fill-rule:nonzero;stroke:none"
         transform="matrix(0.13333333,0,0,-0.13333333,0,775.85333)" />
      <path
         id="path9"
         d="m 2447.4,99.75 c 0,11.531 -2.48,20.578 -7.34,27.02 -4.88,6.41 -11.46,9.66 -19.68,9.66 -5.35,0 -10,-1.45 -14.06,-4.321 -4.04,-2.918 -7.15,-7.148 -9.35,-12.769 -2.18,-5.559 -3.3,-12.07 -3.3,-19.59 0,-7.4297 1.12,-13.8906 3.24,-19.4102 2.15,-5.5507 5.25,-9.8007 9.3,-12.75 4,-2.9414 8.76,-4.3789 14.17,-4.3789 8.22,0 14.8,3.211 19.68,9.6875 4.86,6.4532 7.34,15.4414 7.34,26.8516 z m 27.28,0 c 0,-8.4102 -1.28,-16.2109 -3.79,-23.3984 -2.52,-7.0821 -6.17,-13.2305 -10.92,-18.3828 -4.82,-5.129 -10.53,-8.9688 -17.16,-11.7774 -6.64,-2.7422 -14.17,-4.082 -22.43,-4.082 -8.22,0 -15.64,1.3398 -22.19,4.1523 -6.58,2.7696 -12.31,6.7305 -17.13,11.9063 -4.79,5.1718 -8.42,11.2304 -10.95,18.2617 -2.48,7.082 -3.72,14.8086 -3.72,23.3711 0,8.5902 1.28,16.4492 3.77,23.5582 2.53,7.18 6.12,13.243 10.86,18.332 4.72,5.051 10.42,8.95 17.17,11.68 6.72,2.75 14.08,4.129 22.19,4.129 8.25,0 15.72,-1.379 22.43,-4.168 6.68,-2.762 12.43,-6.754 17.2,-11.871 4.82,-5.121 8.44,-11.262 10.88,-18.332 2.55,-7.051 3.79,-14.848 3.79,-23.379"
         style="fill:#100f0d;fill-opacity:1;fill-rule:nonzero;stroke:none"
         transform="matrix(0.13333333,0,0,-0.13333333,0,775.85333)" />
      <path
         id="path10"
         d="m 2589.54,123.199 c -2.04,-4.801 -3.01,-13.258 -3.01,-25.4607 V 60.0195 c 0,-5.9297 -1.27,-10.4492 -3.89,-13.4297 -2.58,-2.9804 -6.04,-4.4804 -10.29,-4.4804 -4.08,0 -7.41,1.5 -9.95,4.4804 -2.56,2.9805 -3.81,7.5 -3.81,13.4297 v 45.2815 c 0,7.121 -0.27,12.64 -0.74,16.648 -0.47,3.903 -1.72,7.172 -3.78,9.699 -2.02,2.551 -5.3,3.813 -9.72,3.813 -8.9,0 -14.75,-3.191 -17.6,-9.609 -2.84,-6.34 -4.19,-15.5 -4.19,-27.4536 V 60.0195 c 0,-5.9179 -1.31,-10.3906 -3.83,-13.3398 -2.59,-3.0703 -5.96,-4.5703 -10.09,-4.5703 -4.15,0 -7.56,1.5 -10.16,4.5703 -2.65,2.9492 -3.9,7.4219 -3.9,13.332 V 141.23 c 0,5.348 1.13,9.411 3.46,12.168 2.39,2.762 5.5,4.184 9.38,4.184 3.71,0 6.82,-1.293 9.29,-3.891 2.48,-2.589 3.73,-6.171 3.73,-10.761 v -2.692 c 4.7,5.903 9.77,10.242 15.12,12.981 5.37,2.773 11.42,4.16 17.94,4.16 6.82,0 12.68,-1.43 17.59,-4.289 4.94,-2.809 8.97,-7.121 12.14,-12.852 4.59,5.774 9.5,10.133 14.77,12.93 5.25,2.824 11.05,4.211 17.4,4.211 7.5,0 13.89,-1.5 19.22,-4.59 5.4,-3.047 9.41,-7.398 12.08,-13.09 2.34,-5.14 3.48,-13.199 3.48,-24.25 V 60.0195 c 0,-5.9297 -1.29,-10.4492 -3.84,-13.4297 -2.65,-2.9804 -6.03,-4.4804 -10.29,-4.4804 -4.13,0 -7.49,1.5 -10.1,4.5703 -2.65,2.9492 -3.97,7.4219 -3.97,13.3398 v 47.7695 c 0,6.102 -0.24,10.973 -0.73,14.66 -0.5,3.711 -1.85,6.742 -4.06,9.25 -2.18,2.5 -5.52,3.762 -9.93,3.762 -3.58,0 -7.01,-1.121 -10.18,-3.289 -3.27,-2.242 -5.71,-5.223 -7.54,-8.973 v 0"
         style="fill:#100f0d;fill-opacity:1;fill-rule:nonzero;stroke:none"
         transform="matrix(0.13333333,0,0,-0.13333333,0,775.85333)" />
      <path
         id="path11"
         d="m 2743.55,99.2109 c -4,-1.5625 -9.8,-3.1211 -17.4,-4.8515 -7.61,-1.6992 -12.88,-2.9375 -15.8,-3.75 -2.93,-0.8203 -5.73,-2.3594 -8.34,-4.6602 -2.69,-2.3906 -4.03,-5.6094 -4.03,-9.7695 0,-4.3399 1.59,-7.9609 4.67,-10.9883 3.15,-3.0625 7.24,-4.5312 12.29,-4.5312 5.37,0 10.36,1.25 14.89,3.7109 4.55,2.4375 7.92,5.6484 10,9.5 2.47,4.3203 3.72,11.3672 3.72,21.3008 z m 1.77,-41.1093 c -6.59,-5.3516 -12.94,-9.3321 -19.08,-11.961 -6.12,-2.7187 -13.05,-4.0312 -20.65,-4.0312 -7.02,0 -13.09,1.4609 -18.41,4.2812 -5.31,2.8985 -9.34,6.8086 -12.21,11.7774 -2.83,4.914 -4.29,10.1914 -4.29,15.9804 0,7.7696 2.42,14.3633 7.12,19.8516 4.67,5.4492 11.14,9.129 19.37,11.012 1.73,0.418 6.04,1.32 12.84,2.777 6.91,1.492 12.71,2.793 17.67,4 4.83,1.191 10.16,2.68 15.87,4.402 -0.35,7.52 -1.78,13 -4.32,16.579 -2.59,3.46 -7.93,5.171 -15.91,5.171 -6.95,0 -12.11,-0.972 -15.65,-2.98 -3.46,-1.992 -6.47,-5.031 -8.92,-9.109 -2.53,-3.993 -4.25,-6.661 -5.28,-7.922 -1.06,-1.309 -3.28,-1.891 -6.61,-1.891 -3.1,0 -5.72,1.012 -7.92,3.031 -2.26,2.059 -3.36,4.641 -3.36,7.879 0,4.969 1.7,9.86 5.06,14.512 3.4,4.738 8.69,8.598 15.85,11.707 7.17,3.051 16.13,4.562 26.83,4.562 11.92,0 21.33,-1.511 28.22,-4.441 6.82,-2.918 11.6,-7.551 14.45,-13.98 2.84,-6.34 4.24,-14.829 4.24,-25.36 0,-6.64 0,-12.328 -0.04,-16.9373 -0.05,-4.6914 -0.08,-9.8398 -0.15,-15.5234 0,-5.3086 0.84,-10.8985 2.56,-16.6602 1.65,-5.789 2.49,-9.5273 2.49,-11.1562 0,-2.9219 -1.33,-5.5899 -3.93,-7.9727 -2.57,-2.3906 -5.58,-3.5898 -8.87,-3.5898 -2.84,0 -5.54,1.3398 -8.31,4.082 -2.71,2.75 -5.6,6.7383 -8.66,11.9102"
         style="fill:#100f0d;fill-opacity:1;fill-rule:nonzero;stroke:none"
         transform="matrix(0.13333333,0,0,-0.13333333,0,775.85333)" />
      <path
         id="path12"
         d="M 2825.05,141.379 V 59.3906 c 0,-5.7187 -1.3,-10.0195 -3.85,-12.9297 -2.59,-2.8515 -5.85,-4.3515 -9.85,-4.3515 -3.98,0 -7.26,1.5 -9.71,4.4492 -2.53,3.0117 -3.78,7.2617 -3.78,12.832 V 140.57 c 0,5.571 1.25,9.801 3.78,12.649 2.45,2.871 5.73,4.281 9.71,4.281 4,0 7.26,-1.41 9.85,-4.281 2.55,-2.848 3.85,-6.778 3.85,-11.84 z m -13.44,29.351 c -3.74,0 -6.97,1.211 -9.66,3.7 -2.69,2.41 -4.09,5.871 -4.09,10.32 0,3.988 1.41,7.281 4.18,9.922 2.73,2.609 5.96,3.828 9.57,3.828 3.54,0 6.69,-1.141 9.42,-3.488 2.68,-2.352 4.02,-5.821 4.02,-10.262 0,-4.41 -1.3,-7.82 -3.97,-10.238 -2.66,-2.461 -5.81,-3.782 -9.47,-3.782"
         style="fill:#100f0d;fill-opacity:1;fill-rule:nonzero;stroke:none"
         transform="matrix(0.13333333,0,0,-0.13333333,0,775.85333)" />
      <path
         id="path13"
         d="m 2877.91,141.789 v -3.391 c 4.75,6.571 9.97,11.403 15.61,14.481 5.69,3.07 12.23,4.621 19.63,4.621 7.13,0 13.57,-1.621 19.26,-4.91 5.58,-3.238 9.83,-7.82 12.59,-13.758 1.81,-3.492 2.93,-7.273 3.51,-11.281 0.49,-3.973 0.8,-9.11 0.8,-15.371 V 59.3906 c 0,-5.7187 -1.29,-10.0195 -3.76,-12.9297 -2.5,-2.8515 -5.74,-4.3515 -9.71,-4.3515 -4.04,0 -7.35,1.5 -9.77,4.4804 -2.56,2.9805 -3.86,7.2305 -3.86,12.8008 v 47.2574 c 0,9.411 -1.21,16.551 -3.69,21.493 -2.54,4.949 -7.52,7.468 -14.96,7.468 -4.83,0 -9.24,-1.531 -13.22,-4.558 -3.98,-2.981 -6.9,-7.141 -8.75,-12.422 -1.34,-4.231 -2.03,-12.09 -2.03,-23.7384 v -35.5 c 0,-5.7617 -1.25,-10.1015 -3.83,-13 -2.57,-2.8203 -5.87,-4.2812 -9.9,-4.2812 -3.89,0 -7.14,1.5 -9.65,4.4492 -2.57,3.0117 -3.8,7.2617 -3.8,12.832 v 81.9884 c 0,5.43 1.11,9.43 3.41,12.101 2.2,2.68 5.37,4.02 9.26,4.02 2.35,0 4.54,-0.629 6.43,-1.762 1.99,-1.168 3.48,-2.988 4.65,-5.258 1.13,-2.41 1.78,-5.289 1.78,-8.691"
         style="fill:#100f0d;fill-opacity:1;fill-rule:nonzero;stroke:none"
         transform="matrix(0.13333333,0,0,-0.13333333,0,775.85333)" />
      <path
         id="path14"
         d="m 2992.95,139.84 21.97,-64.4416 23.72,67.2496 c 1.88,5.422 3.7,9.204 5.52,11.473 1.82,2.238 4.5,3.379 8.13,3.379 3.46,0 6.39,-1.211 8.87,-3.68 2.37,-2.398 3.59,-5.16 3.59,-8.429 0,-1.231 -0.23,-2.661 -0.66,-4.282 -0.39,-1.699 -0.89,-3.257 -1.49,-4.757 -0.56,-1.391 -1.15,-3.082 -1.94,-4.942 l -26.08,-67.5702 c -0.74,-1.9296 -1.7,-4.4218 -2.84,-7.4101 -1.18,-2.9688 -2.5,-5.4609 -3.88,-7.6602 -1.47,-2.0898 -3.21,-3.6875 -5.28,-4.8789 -2.13,-1.1797 -4.67,-1.7812 -7.66,-1.7812 -3.85,0 -6.91,0.9101 -9.23,2.7187 -2.29,1.8516 -3.99,3.8438 -5.07,6.0703 -1.07,2.1407 -2.96,6.4922 -5.52,12.9414 l -25.93,66.8402 c -0.59,1.629 -1.24,3.308 -1.88,4.98 -0.6,1.66 -1.08,3.32 -1.55,5.09 -0.42,1.762 -0.67,3.25 -0.67,4.441 0,1.981 0.57,3.899 1.72,5.801 1.13,1.918 2.7,3.496 4.68,4.676 2.02,1.203 4.13,1.832 6.5,1.832 4.48,0 7.59,-1.34 9.3,-4.102 1.7,-2.668 3.6,-7.199 5.68,-13.558"
         style="fill:#100f0d;fill-opacity:1;fill-rule:nonzero;stroke:none"
         transform="matrix(0.13333333,0,0,-0.13333333,0,775.85333)" />
      <path
         id="path15"
         d="m 3104.18,109.02 h 49.29 c -0.62,9.671 -3.11,16.921 -7.5,21.718 -4.36,4.793 -10.1,7.203 -17.22,7.203 -6.72,0 -12.31,-2.441 -16.64,-7.3 -4.34,-4.86 -6.95,-12.09 -7.93,-21.621 z m 53.21,-16.1489 h -53.21 c 0.01,-6.4727 1.31,-12.1406 3.7,-17.1016 2.46,-4.8789 5.66,-8.5976 9.69,-11.1211 4.01,-2.5195 8.46,-3.7187 13.31,-3.7187 3.25,0 6.25,0.3906 8.9,1.1601 2.68,0.8399 5.31,2.0821 7.86,3.75 2.48,1.711 4.79,3.4805 6.94,5.5 2.09,1.9415 4.93,4.5196 8.27,7.8711 1.4,1.3086 3.41,1.8985 5.96,1.8985 2.85,0 5.07,-0.7696 6.81,-2.4102 1.73,-1.5976 2.54,-3.8203 2.54,-6.7304 0,-2.5704 -0.94,-5.5704 -2.88,-9.0391 -1.91,-3.3711 -4.76,-6.6992 -8.71,-9.8906 -3.9,-3.1172 -8.77,-5.6875 -14.65,-7.8282 -5.85,-2.0703 -12.58,-3.1015 -20.28,-3.1015 -17.44,0 -31.04,5.2422 -40.7,15.582 -9.69,10.4492 -14.51,24.5078 -14.51,42.2891 0,8.4885 1.23,16.2105 3.57,23.3595 2.39,7.199 5.85,13.332 10.45,18.449 4.59,5.16 10.2,9.121 16.93,11.82 6.74,2.75 14.14,4.121 22.34,4.121 10.55,0 19.7,-2.332 27.3,-7.039 7.62,-4.679 13.31,-10.691 17.09,-18.089 3.79,-7.461 5.68,-14.981 5.68,-22.731 0,-7.082 -1.9,-11.7108 -5.86,-13.8124 -3.95,-2.1484 -9.43,-3.1875 -16.54,-3.1875"
         style="fill:#100f0d;fill-opacity:1;fill-rule:nonzero;stroke:none"
         transform="matrix(0.13333333,0,0,-0.13333333,0,775.85333)" />
      <path
         id="path16"
         d="m 3300.27,77.2617 c 0,-3.5234 -1.01,-7.3125 -3.08,-11.3398 -2.03,-4.0117 -5.06,-7.8203 -9.25,-11.4727 -4.13,-3.6289 -9.4,-6.5508 -15.73,-8.75 -6.27,-2.2773 -13.42,-3.3594 -21.25,-3.3594 -16.86,0 -29.97,5.129 -39.38,15.3321 -9.41,10.2265 -14.15,23.8984 -14.15,41.0976 0,11.6405 2.14,21.9685 6.49,30.8785 4.33,8.891 10.51,15.864 18.71,20.723 8.14,4.918 17.93,7.359 29.31,7.359 7.03,0 13.47,-1.101 19.39,-3.218 5.86,-2.172 10.8,-4.953 14.94,-8.313 4.09,-3.41 7.17,-7.051 9.36,-10.859 2.14,-3.84 3.21,-7.442 3.21,-10.781 0,-3.34 -1.18,-6.227 -3.68,-8.598 -2.39,-2.383 -5.32,-3.539 -8.78,-3.539 -2.25,0 -4.13,0.648 -5.59,1.859 -1.53,1.168 -3.19,3.078 -5.07,5.84 -3.32,5.25 -6.77,9.231 -10.39,11.918 -3.63,2.602 -8.23,3.953 -13.82,3.953 -7.99,0 -14.48,-3.332 -19.4,-9.871 -4.96,-6.582 -7.4,-15.539 -7.4,-26.9101 0,-5.3007 0.68,-10.2695 1.89,-14.6992 1.27,-4.5 3.11,-8.2929 5.51,-11.4726 2.39,-3.1485 5.3,-5.5274 8.68,-7.1602 3.33,-1.6601 7.07,-2.4492 11.15,-2.4492 5.43,0 10.12,1.2891 14,3.9297 3.87,2.6601 7.34,6.6914 10.32,12.0312 1.67,3.2696 3.43,5.7383 5.39,7.5703 1.9,1.8008 4.22,2.6602 7.07,2.6602 3.27,0 6.07,-1.2813 8.18,-3.9102 2.25,-2.6992 3.37,-5.4726 3.37,-8.4492"
         style="fill:#100f0d;fill-opacity:1;fill-rule:nonzero;stroke:none"
         transform="matrix(0.13333333,0,0,-0.13333333,0,775.85333)" />
      <path
         id="path17"
         d="m 3325.52,155.109 h 2.99 v 17.063 c 0,4.539 0.13,8.168 0.37,10.75 0.23,2.609 0.82,4.789 1.95,6.699 1.02,1.91 2.55,3.5 4.59,4.738 1.97,1.18 4.18,1.762 6.65,1.762 3.43,0 6.57,-1.332 9.34,-4.019 1.82,-1.821 3.03,-3.993 3.53,-6.571 0.5,-2.609 0.73,-6.351 0.73,-11.101 v -19.321 h 10 c 3.85,0 6.8,-0.961 8.82,-2.867 2.06,-1.914 3.04,-4.332 3.04,-7.312 0,-3.821 -1.43,-6.532 -4.36,-8.02 -2.87,-1.5 -7.01,-2.269 -12.38,-2.269 h -5.12 V 82.3711 c 0,-4.4609 0.16,-7.8711 0.45,-10.3008 0.35,-2.3984 1.19,-4.3398 2.45,-5.789 1.26,-1.5 3.37,-2.2696 6.32,-2.2696 1.58,0 3.73,0.2696 6.48,0.8985 2.66,0.5703 4.8,0.8789 6.35,0.8789 2.18,0 4.22,-0.961 5.95,-2.7071 1.72,-1.8906 2.62,-4.1211 2.62,-6.8515 0,-4.5508 -2.34,-8.0508 -7.15,-10.4805 -4.84,-2.4414 -11.69,-3.6406 -20.62,-3.6406 -8.51,0 -14.97,1.5 -19.35,4.4804 -4.36,2.9805 -7.28,7.0821 -8.59,12.4102 -1.4,5.2617 -2.07,12.2891 -2.07,21.0898 v 54.5512 h -3.61 c -3.85,0 -6.85,0.968 -8.93,2.918 -2.07,1.941 -3.07,4.371 -3.07,7.371 0,2.98 1.05,5.398 3.19,7.312 2.19,1.906 5.3,2.867 9.43,2.867"
         style="fill:#100f0d;fill-opacity:1;fill-rule:nonzero;stroke:none"
         transform="matrix(0.13333333,0,0,-0.13333333,0,775.85333)" />
      <path
         id="path18"
         d="m 3470.72,99.75 c 0,11.531 -2.46,20.578 -7.32,27.02 -4.93,6.41 -11.42,9.66 -19.68,9.66 -5.34,0 -10,-1.45 -14.03,-4.321 -4.08,-2.918 -7.19,-7.148 -9.37,-12.769 -2.19,-5.559 -3.31,-12.07 -3.31,-19.59 0,-7.4297 1.12,-13.8906 3.27,-19.4102 2.15,-5.5507 5.21,-9.8007 9.23,-12.75 4,-2.9414 8.75,-4.3789 14.21,-4.3789 8.26,0 14.75,3.211 19.68,9.6875 4.86,6.4532 7.32,15.4414 7.32,26.8516 z m 27.3,0 c 0,-8.4102 -1.25,-16.2109 -3.82,-23.3984 -2.5,-7.0821 -6.17,-13.2305 -10.92,-18.3828 -4.8,-5.129 -10.52,-8.9688 -17.13,-11.7774 -6.67,-2.7422 -14.09,-4.082 -22.43,-4.082 -8.28,0 -15.69,1.3398 -22.23,4.1523 -6.56,2.7696 -12.29,6.7305 -17.09,11.9063 -4.8,5.1718 -8.46,11.2304 -10.91,18.2617 -2.48,7.082 -3.7,14.8086 -3.7,23.3711 0,8.5902 1.22,16.4492 3.7,23.5582 2.58,7.18 6.15,13.243 10.86,18.332 4.76,5.051 10.45,8.95 17.14,11.68 6.78,2.75 14.16,4.129 22.23,4.129 8.26,0 15.69,-1.379 22.43,-4.168 6.7,-2.762 12.42,-6.754 17.21,-11.871 4.73,-5.121 8.44,-11.262 10.92,-18.332 2.49,-7.051 3.74,-14.848 3.74,-23.379"
         style="fill:#100f0d;fill-opacity:1;fill-rule:nonzero;stroke:none"
         transform="matrix(0.13333333,0,0,-0.13333333,0,775.85333)" />
      <path
         id="path19"
         d="M 3546.47,83.0117 V 59.3906 c 0,-5.7617 -1.31,-10.1015 -3.91,-13 -2.59,-2.8203 -5.87,-4.2812 -9.89,-4.2812 -3.87,0 -7.12,1.5 -9.63,4.3515 -2.52,2.9102 -3.76,7.211 -3.76,12.9297 v 78.9884 c 0,12.769 4.4,19.121 13.23,19.121 4.48,0 7.75,-1.508 9.78,-4.461 1.95,-2.98 3.01,-7.391 3.27,-13.199 3.23,5.808 6.61,10.219 10.04,13.199 3.42,2.953 7.96,4.461 13.64,4.461 5.76,0 11.28,-1.508 16.68,-4.461 5.35,-2.98 8.08,-6.949 8.08,-11.848 0,-3.461 -1.18,-6.371 -3.47,-8.589 -2.26,-2.231 -4.74,-3.411 -7.44,-3.411 -0.98,0 -3.4,0.668 -7.21,1.981 -3.84,1.258 -7.21,1.918 -10.15,1.918 -3.94,0 -7.19,-1.051 -9.69,-3.289 -2.54,-2.219 -4.51,-5.41 -5.9,-9.699 -1.39,-4.34 -2.4,-9.434 -2.9,-15.391 -0.51,-5.8907 -0.77,-13.0899 -0.77,-21.6993"
         style="fill:#100f0d;fill-opacity:1;fill-rule:nonzero;stroke:none"
         transform="matrix(0.13333333,0,0,-0.13333333,0,775.85333)" />
      <path
         id="path20"
         d="m 3691.32,79.1914 c 0,-7.8516 -1.82,-14.543 -5.51,-20.1211 -3.68,-5.6094 -9.06,-9.7812 -16.21,-12.6914 -7.16,-2.8086 -15.82,-4.2695 -26.1,-4.2695 -9.68,0 -18.09,1.5508 -25.09,4.6992 -6.97,3.1133 -12.13,6.9805 -15.42,11.6523 -3.36,4.6602 -5.07,9.3594 -5.07,14.0508 0,3.1172 1.1,5.7969 3.28,8.0078 2.11,2.2696 4.81,3.3203 8.02,3.3203 2.87,0 5.1,-0.7382 6.61,-2.1484 1.53,-1.543 2.95,-3.543 4.39,-6.1797 2.78,-5.0703 6.1,-8.8515 10.05,-11.3398 3.82,-2.5235 9.12,-3.7735 15.89,-3.7735 5.42,0 9.89,1.293 13.39,3.8204 3.46,2.5312 5.26,5.4101 5.26,8.6796 0,5.0118 -1.84,8.6719 -5.43,10.9336 -3.67,2.3399 -9.6,4.5078 -17.9,6.5664 -9.36,2.4414 -17,4.9922 -22.89,7.6329 -5.87,2.6877 -10.63,6.2307 -14.11,10.5977 -3.53,4.293 -5.31,9.703 -5.31,16.082 0,5.719 1.64,11.09 4.9,16.121 3.23,5.066 8.1,9.098 14.42,12.117 6.33,3.043 13.98,4.551 22.99,4.551 7,0 13.33,-0.781 18.97,-2.301 5.6,-1.508 10.35,-3.578 14.04,-6.109 3.75,-2.578 6.64,-5.418 8.58,-8.52 1.99,-3.148 2.96,-6.199 2.96,-9.16 0,-3.269 -1.03,-5.879 -3.16,-8.051 -2.1,-2 -5.1,-3.05 -8.89,-3.05 -2.82,0 -5.19,0.82 -7.19,2.519 -1.91,1.641 -4.19,4.121 -6.7,7.402 -2.06,2.782 -4.46,5.02 -7.28,6.68 -2.8,1.629 -6.57,2.5 -11.33,2.5 -4.93,0 -9.05,-1.09 -12.25,-3.289 -3.28,-2.172 -4.92,-4.91 -4.92,-8.172 0,-2.988 1.21,-5.429 3.57,-7.328 2.42,-1.91 5.62,-3.492 9.69,-4.75 4.09,-1.25 9.64,-2.801 16.75,-4.59 8.46,-2.133 15.32,-4.672 20.68,-7.679 5.35,-2.954 9.39,-6.4926 12.14,-10.5434 2.81,-4.0898 4.18,-8.707 4.18,-13.8672"
         style="fill:#100f0d;fill-opacity:1;fill-rule:nonzero;stroke:none"
         transform="matrix(0.13333333,0,0,-0.13333333,0,775.85333)" />
      <path
         id="path21"
         d="m 3722.2,42.1094 c -4.12,0 -7.68,1.3398 -10.63,4.1523 -3.04,2.7696 -4.51,6.668 -4.51,11.6172 0,4.2109 1.39,7.8594 4.22,10.9219 2.87,3.039 6.41,4.5195 10.6,4.5195 4.16,0 7.74,-1.4805 10.63,-4.5117 3,-2.9688 4.49,-6.6797 4.49,-10.9297 0,-4.9101 -1.49,-8.7695 -4.49,-11.5781 -2.89,-2.7891 -6.33,-4.1914 -10.31,-4.1914"
         style="fill:#100f0d;fill-opacity:1;fill-rule:nonzero;stroke:none"
         transform="matrix(0.13333333,0,0,-0.13333333,0,775.85333)" />
      <path
         id="path22"
         d="m 3842.46,99.75 c 0,11.531 -2.46,20.578 -7.34,27.02 -4.88,6.41 -11.41,9.66 -19.65,9.66 -5.32,0 -9.95,-1.45 -14.02,-4.321 -4.06,-2.918 -7.18,-7.148 -9.36,-12.769 -2.16,-5.559 -3.28,-12.07 -3.28,-19.59 0,-7.4297 1.05,-13.8906 3.2,-19.4102 2.22,-5.5507 5.27,-9.8007 9.3,-12.75 4.01,-2.9414 8.72,-4.3789 14.16,-4.3789 8.24,0 14.77,3.211 19.65,9.6875 4.88,6.4532 7.34,15.4414 7.34,26.8516 z m 27.32,0 c 0,-8.4102 -1.25,-16.2109 -3.81,-23.3984 -2.54,-7.0821 -6.15,-13.2305 -10.95,-18.3828 -4.82,-5.129 -10.46,-8.9688 -17.12,-11.7774 -6.63,-2.7422 -14.1,-4.082 -22.43,-4.082 -8.22,0 -15.62,1.3398 -22.19,4.1523 -6.59,2.7696 -12.25,6.7305 -17.05,11.9063 -4.9,5.1718 -8.52,11.2304 -11.04,18.2617 -2.44,7.082 -3.69,14.8086 -3.69,23.3711 0,8.5902 1.25,16.4492 3.79,23.5582 2.57,7.18 6.13,13.243 10.82,18.332 4.72,5.051 10.44,8.95 17.17,11.68 6.7,2.75 14.05,4.129 22.19,4.129 8.24,0 15.71,-1.379 22.43,-4.168 6.73,-2.762 12.46,-6.754 17.25,-11.871 4.75,-5.121 8.38,-11.262 10.9,-18.332 2.48,-7.051 3.73,-14.848 3.73,-23.379"
         style="fill:#100f0d;fill-opacity:1;fill-rule:nonzero;stroke:none"
         transform="matrix(0.13333333,0,0,-0.13333333,0,775.85333)" />
      <path
         id="path23"
         d="M 3918.22,83.0117 V 59.3906 c 0,-5.7617 -1.3,-10.1015 -3.89,-13 -2.55,-2.8203 -5.88,-4.2812 -9.83,-4.2812 -3.97,0 -7.15,1.5 -9.69,4.3515 -2.56,2.9102 -3.8,7.211 -3.8,12.9297 v 78.9884 c 0,12.769 4.47,19.121 13.26,19.121 4.52,0 7.76,-1.508 9.74,-4.461 1.96,-2.98 3.12,-7.391 3.36,-13.199 3.19,5.808 6.52,10.219 9.94,13.199 3.44,2.953 8.01,4.461 13.67,4.461 5.81,0 11.35,-1.508 16.67,-4.461 5.38,-2.98 8.1,-6.949 8.1,-11.848 0,-3.461 -1.16,-6.371 -3.43,-8.589 -2.32,-2.231 -4.75,-3.411 -7.47,-3.411 -0.96,0 -3.35,0.668 -7.17,1.981 -3.84,1.258 -7.21,1.918 -10.16,1.918 -3.95,0 -7.18,-1.051 -9.78,-3.289 -2.48,-2.219 -4.44,-5.41 -5.86,-9.699 -1.36,-4.34 -2.33,-9.434 -2.85,-15.391 -0.53,-5.8907 -0.81,-13.0899 -0.81,-21.6993"
         style="fill:#100f0d;fill-opacity:1;fill-rule:nonzero;stroke:none"
         transform="matrix(0.13333333,0,0,-0.13333333,0,775.85333)" />
      <path
         id="path24"
         d="m 3996.73,100.73 c 0,-11.4878 2.43,-20.1987 7.26,-26.1206 4.77,-5.8477 11.04,-8.8203 18.63,-8.8203 4.49,0 8.82,1.3007 12.81,3.832 4.03,2.5273 7.3,6.3398 9.83,11.4375 2.56,5.1133 3.78,11.2617 3.78,18.5312 0,11.5822 -2.46,20.5702 -7.34,27.0002 -4.86,6.5 -11.29,9.75 -19.25,9.75 -7.75,0 -13.99,-3.16 -18.66,-9.289 -4.7,-6.199 -7.06,-14.949 -7.06,-26.321 z m 78.84,35.989 V 54.25 c 0,-9.4609 -1.03,-17.5586 -2.92,-24.3086 -1.93,-6.832 -5.01,-12.4531 -9.26,-16.8711 -4.24,-4.42186 -9.84,-7.71092 -16.67,-9.85936 C 4039.84,1.10156 4031.27,0 4021.06,0 c -9.39,0 -17.77,1.33203 -25.1,4.07031 -7.39,2.80078 -13.08,6.30079 -17.05,10.66019 -3.98,4.289 -5.99,8.75 -5.99,13.3515 0,3.4766 1.1,6.2774 3.42,8.4571 2.23,2.2304 4.96,3.3203 8.14,3.3203 4,0 7.44,-1.8594 10.49,-5.5078 1.46,-1.9297 2.98,-3.8008 4.5,-5.6797 1.56,-1.9219 3.3,-3.5899 5.17,-4.9102 1.92,-1.3828 4.21,-2.3828 6.87,-3.0429 2.6,-0.6602 5.7,-0.9883 9.17,-0.9883 6.98,0 12.51,1.0508 16.37,3.0703 3.88,2.039 6.62,4.8984 8.2,8.5586 1.48,3.6797 2.49,7.6015 2.65,11.789 0.32,4.2813 0.5,10.9532 0.69,20.2813 -4.18,-6.0899 -9.09,-10.7383 -14.51,-13.918 -5.48,-3.2109 -12.03,-4.7617 -19.54,-4.7617 -9.18,0 -17.13,2.3789 -23.89,7.2695 -6.85,4.8399 -12.08,11.6211 -15.72,20.3789 -3.61,8.711 -5.48,18.793 -5.48,30.2306 0,8.582 1.09,16.281 3.36,23.152 2.18,6.821 5.33,12.617 9.52,17.34 4.07,4.719 8.85,8.277 14.22,10.68 5.41,2.359 11.25,3.578 17.75,3.578 7.67,0 14.34,-1.57 19.97,-4.668 5.73,-3.039 10.91,-7.941 15.77,-14.481 v 3.801 c 0,4.957 1.21,8.739 3.5,11.52 2.29,2.668 5.31,4.031 8.95,4.031 5.26,0 8.75,-1.773 10.49,-5.34 1.7,-3.582 2.59,-8.781 2.59,-15.523"
         style="fill:#100f0d;fill-opacity:1;fill-rule:nonzero;stroke:none"
         transform="matrix(0.13333333,0,0,-0.13333333,0,775.85333)" />
      <path
         id="path25"
         d="m 2896.87,413.102 h 40.33 c -2.85,-21.75 -11.76,-38.723 -26.58,-50.942 -13.72,-11.969 -30.33,-17.871 -49.73,-17.871 -26.34,0 -47.37,9.262 -63.07,27.731 -14.88,17.562 -22.3,40.25 -22.3,67.96 0,28.391 7.38,51.09 22.09,68.282 14.7,17.117 35.5,25.718 62.39,25.718 19.99,0 36.9,-5.41 50.62,-16.14 14.54,-11.61 23.44,-27.899 26.58,-48.77 h -40.33 c -3.5,18.211 -14.6,27.262 -33.53,27.262 -31.17,0 -46.79,-18.461 -46.79,-55.422 0,-17.32 4.02,-31.449 12.04,-42.461 8.02,-11.058 19.32,-16.59 33.9,-16.59 21.74,0 33.2,10.43 34.38,31.243 z m -158.8,25.449 c 0,-36.102 11.45,-66.66 34.31,-91.563 22.89,-24.898 50.9,-37.359 84.15,-37.359 33.1,0 61.13,12.461 83.98,37.359 22.92,24.903 34.3,55.461 34.3,91.563 0,36.07 -11.38,66.609 -34.3,91.508 -22.85,24.953 -50.88,37.39 -83.98,37.39 -33.25,0 -61.26,-12.437 -84.15,-37.39 -22.86,-24.899 -34.31,-55.438 -34.31,-91.508 z m -40.98,0 c 0,45.937 15.55,85.148 46.66,117.711 31.15,32.519 68.75,48.789 112.78,48.789 43.92,0 81.46,-16.27 112.64,-48.789 31.14,-32.563 46.73,-71.774 46.73,-117.711 0,-45.981 -15.59,-85.242 -46.73,-117.742 -31.18,-32.547 -68.72,-48.829 -112.64,-48.829 -44.03,0 -81.63,16.282 -112.78,48.829 -31.11,32.5 -46.66,71.761 -46.66,117.742"
         style="fill:#100f0d;fill-opacity:1;fill-rule:nonzero;stroke:none"
         transform="matrix(0.13333333,0,0,-0.13333333,0,775.85333)" />
      <path
         id="path26"
         d="m 2761.6,334.129 23.25,-19.731 170.96,219.532 -23.25,19.699 -170.96,-219.5"
         style="fill:#100f0d;fill-opacity:1;fill-rule:nonzero;stroke:none"
         transform="matrix(0.13333333,0,0,-0.13333333,0,775.85333)" />
      <path
         id="path27"
         d="m 4564.14,3894.66 h 543.81 V 5818.94 H 4564.14 V 3894.66"
         style="fill:#758ed0;fill-opacity:1;fill-rule:evenodd;stroke:none"
         transform="matrix(0.13333333,0,0,-0.13333333,0,775.85333)" />
      <path
         id="path28"
         d="M 4564.14,5818.93 4292.23,5290.8 V 3894.66 h 271.91 v 1924.27"
         style="fill:#4f6bbd;fill-opacity:1;fill-rule:evenodd;stroke:none"
         transform="matrix(0.13333333,0,0,-0.13333333,0,775.85333)" />
      <path
         id="path29"
         d="m 4673.95,4790.13 h 324.19 v 888.93 h -324.19 v -888.93"
         style="fill:#ffffff;fill-opacity:1;fill-rule:evenodd;stroke:none"
         transform="matrix(0.13333333,0,0,-0.13333333,0,775.85333)" />
      <path
         id="path30"
         d="m 4836.03,4217.55 c 113.76,0 206.56,92.79 206.56,206.55 0,113.76 -92.8,206.55 -206.56,206.55 -113.76,0 -206.53,-92.79 -206.53,-206.55 0,-113.76 92.77,-206.55 206.53,-206.55"
         style="fill:#ffffff;fill-opacity:1;fill-rule:evenodd;stroke:none"
         transform="matrix(0.13333333,0,0,-0.13333333,0,775.85333)" />
      <path
         id="path31"
         d="m 4836.03,4262 c 89.29,0 162.11,72.81 162.11,162.1 0,89.28 -72.82,162.1 -162.11,162.1 -89.28,0 -162.08,-72.82 -162.08,-162.1 0,-89.29 72.8,-162.1 162.08,-162.1"
         style="fill:#212e50;fill-opacity:1;fill-rule:evenodd;stroke:none"
         transform="matrix(0.13333333,0,0,-0.13333333,0,775.85333)" />
      <path
         id="path32"
         d="m 3861.23,3894.66 h 543.82 V 5818.94 H 3861.23 V 3894.66"
         style="fill:#758ed0;fill-opacity:1;fill-rule:evenodd;stroke:none"
         transform="matrix(0.13333333,0,0,-0.13333333,0,775.85333)" />
      <path
         id="path33"
         d="M 3861.23,5818.93 3589.32,5290.8 V 3894.66 h 271.91 v 1924.27"
         style="fill:#4f6bbd;fill-opacity:1;fill-rule:evenodd;stroke:none"
         transform="matrix(0.13333333,0,0,-0.13333333,0,775.85333)" />
      <path
         id="path34"
         d="m 3971.05,4790.13 h 324.2 v 888.93 h -324.2 v -888.93"
         style="fill:#ffffff;fill-opacity:1;fill-rule:evenodd;stroke:none"
         transform="matrix(0.13333333,0,0,-0.13333333,0,775.85333)" />
      <path
         id="path35"
         d="m 4133.15,4217.55 c 113.76,0 206.55,92.79 206.55,206.55 0,113.76 -92.79,206.55 -206.55,206.55 -113.76,0 -206.55,-92.79 -206.55,-206.55 0,-113.76 92.79,-206.55 206.55,-206.55"
         style="fill:#ffffff;fill-opacity:1;fill-rule:evenodd;stroke:none"
         transform="matrix(0.13333333,0,0,-0.13333333,0,775.85333)" />
      <path
         id="path36"
         d="m 4133.15,4262 c 89.28,0 162.1,72.81 162.1,162.1 0,89.28 -72.82,162.1 -162.1,162.1 -89.29,0 -162.1,-72.82 -162.1,-162.1 0,-89.29 72.81,-162.1 162.1,-162.1"
         style="fill:#212e50;fill-opacity:1;fill-rule:evenodd;stroke:none"
         transform="matrix(0.13333333,0,0,-0.13333333,0,775.85333)" />
      <path
         id="path37"
         d="M 2899.09,3894.66 H 3442.9 V 5818.94 H 2899.09 V 3894.66"
         style="fill:#cc2c23;fill-opacity:1;fill-rule:evenodd;stroke:none"
         transform="matrix(0.13333333,0,0,-0.13333333,0,775.85333)" />
      <path
         id="path38"
         d="M 2899.09,5818.93 2810.2,5290.8 V 3894.66 h 88.89 v 1924.27"
         style="fill:#9e2420;fill-opacity:1;fill-rule:evenodd;stroke:none"
         transform="matrix(0.13333333,0,0,-0.13333333,0,775.85333)" />
      <path
         id="path39"
         d="m 3008.89,4790.13 h 324.22 v 888.93 h -324.22 v -888.93"
         style="fill:#ffffff;fill-opacity:1;fill-rule:evenodd;stroke:none"
         transform="matrix(0.13333333,0,0,-0.13333333,0,775.85333)" />
      <path
         id="path40"
         d="m 3170.99,4217.55 c 113.76,0 206.55,92.79 206.55,206.55 0,113.76 -92.79,206.55 -206.55,206.55 -113.76,0 -206.53,-92.79 -206.53,-206.55 0,-113.76 92.77,-206.55 206.53,-206.55"
         style="fill:#ffffff;fill-opacity:1;fill-rule:evenodd;stroke:none"
         transform="matrix(0.13333333,0,0,-0.13333333,0,775.85333)" />
      <path
         id="path41"
         d="m 3170.99,4262 c 89.29,0 162.12,72.81 162.12,162.1 0,89.28 -72.83,162.1 -162.12,162.1 -89.28,0 -162.1,-72.82 -162.1,-162.1 0,-89.29 72.82,-162.1 162.1,-162.1"
         style="fill:#5c1b13;fill-opacity:1;fill-rule:evenodd;stroke:none"
         transform="matrix(0.13333333,0,0,-0.13333333,0,775.85333)" />
      <path
         id="path42"
         d="m 2177.49,3894.66 h 543.82 V 5818.94 H 2177.49 V 3894.66"
         style="fill:#cc2c23;fill-opacity:1;fill-rule:evenodd;stroke:none"
         transform="matrix(0.13333333,0,0,-0.13333333,0,775.85333)" />
      <path
         id="path43"
         d="M 2721.31,5818.93 2810.2,5290.8 V 3894.66 h -88.89 v 1924.27"
         style="fill:#9e2420;fill-opacity:1;fill-rule:evenodd;stroke:none"
         transform="matrix(0.13333333,0,0,-0.13333333,0,775.85333)" />
      <path
         id="path44"
         d="m 2287.3,4790.13 h 324.2 v 888.93 h -324.2 v -888.93"
         style="fill:#ffffff;fill-opacity:1;fill-rule:evenodd;stroke:none"
         transform="matrix(0.13333333,0,0,-0.13333333,0,775.85333)" />
      <path
         id="path45"
         d="m 2449.41,4217.55 c 113.75,0 206.54,92.79 206.54,206.55 0,113.76 -92.79,206.55 -206.54,206.55 -113.76,0 -206.55,-92.79 -206.55,-206.55 0,-113.76 92.79,-206.55 206.55,-206.55"
         style="fill:#ffffff;fill-opacity:1;fill-rule:evenodd;stroke:none"
         transform="matrix(0.13333333,0,0,-0.13333333,0,775.85333)" />
      <path
         id="path46"
         d="m 2449.41,4262 c 89.28,0 162.1,72.81 162.1,162.1 0,89.28 -72.82,162.1 -162.1,162.1 -89.28,0 -162.11,-72.82 -162.11,-162.1 0,-89.29 72.83,-162.1 162.11,-162.1"
         style="fill:#5c1b13;fill-opacity:1;fill-rule:evenodd;stroke:none"
         transform="matrix(0.13333333,0,0,-0.13333333,0,775.85333)" />
      <path
         id="path47"
         d="M 512.445,3894.66 H 1056.27 V 5818.94 H 512.445 V 3894.66"
         style="fill:#758ed0;fill-opacity:1;fill-rule:evenodd;stroke:none"
         transform="matrix(0.13333333,0,0,-0.13333333,0,775.85333)" />
      <path
         id="path48"
         d="M 1056.27,5818.93 1328.18,5290.8 V 3894.66 h -271.91 v 1924.27"
         style="fill:#4f6bbd;fill-opacity:1;fill-rule:evenodd;stroke:none"
         transform="matrix(0.13333333,0,0,-0.13333333,0,775.85333)" />
      <path
         id="path49"
         d="m 622.262,4790.13 h 324.191 v 888.93 H 622.262 v -888.93"
         style="fill:#ffffff;fill-opacity:1;fill-rule:evenodd;stroke:none"
         transform="matrix(0.13333333,0,0,-0.13333333,0,775.85333)" />
      <path
         id="path50"
         d="m 784.363,4217.55 c 113.766,0 206.551,92.79 206.551,206.55 0,113.76 -92.785,206.55 -206.551,206.55 -113.758,0 -206.55,-92.79 -206.55,-206.55 0,-113.76 92.792,-206.55 206.55,-206.55"
         style="fill:#ffffff;fill-opacity:1;fill-rule:evenodd;stroke:none"
         transform="matrix(0.13333333,0,0,-0.13333333,0,775.85333)" />
      <path
         id="path51"
         d="m 784.363,4262 c 89.285,0 162.102,72.81 162.102,162.1 0,89.28 -72.817,162.1 -162.102,162.1 -89.281,0 -162.101,-72.82 -162.101,-162.1 0,-89.29 72.82,-162.1 162.101,-162.1"
         style="fill:#212e50;fill-opacity:1;fill-rule:evenodd;stroke:none"
         transform="matrix(0.13333333,0,0,-0.13333333,0,775.85333)" />
      <path
         id="path52"
         d="m 1215.35,3894.66 h 543.82 V 5818.94 H 1215.35 V 3894.66"
         style="fill:#758ed0;fill-opacity:1;fill-rule:evenodd;stroke:none"
         transform="matrix(0.13333333,0,0,-0.13333333,0,775.85333)" />
      <path
         id="path53"
         d="m 1759.17,5818.93 271.9,-528.13 V 3894.66 h -271.9 v 1924.27"
         style="fill:#4f6bbd;fill-opacity:1;fill-rule:evenodd;stroke:none"
         transform="matrix(0.13333333,0,0,-0.13333333,0,775.85333)" />
      <path
         id="path54"
         d="m 1325.16,4790.13 h 324.2 v 888.93 h -324.2 v -888.93"
         style="fill:#ffffff;fill-opacity:1;fill-rule:evenodd;stroke:none"
         transform="matrix(0.13333333,0,0,-0.13333333,0,775.85333)" />
      <path
         id="path55"
         d="m 1487.26,4217.55 c 113.76,0 206.54,92.79 206.54,206.55 0,113.76 -92.78,206.55 -206.54,206.55 -113.76,0 -206.55,-92.79 -206.55,-206.55 0,-113.76 92.79,-206.55 206.55,-206.55"
         style="fill:#ffffff;fill-opacity:1;fill-rule:evenodd;stroke:none"
         transform="matrix(0.13333333,0,0,-0.13333333,0,775.85333)" />
      <path
         id="path56"
         d="m 1487.26,4262 c 89.28,0 162.1,72.81 162.1,162.1 0,89.28 -72.82,162.1 -162.1,162.1 -89.28,0 -162.1,-72.82 -162.1,-162.1 0,-89.29 72.82,-162.1 162.1,-162.1"
         style="fill:#212e50;fill-opacity:1;fill-rule:evenodd;stroke:none"
         transform="matrix(0.13333333,0,0,-0.13333333,0,775.85333)" />
      <path
         id="path57"
         d="m 0,3637.49 h 5620.39 v 257.17 H 0 v -257.17"
         style="fill:#2e2d2d;fill-opacity:1;fill-rule:evenodd;stroke:none"
         transform="matrix(0.13333333,0,0,-0.13333333,0,775.85333)" />
      <path
         id="path58"
         d="M 213.926,3429.1 H 5406.49 l 213.9,208.38 H 0.00390625 L 213.926,3429.1"
         style="fill:#1b1919;fill-opacity:1;fill-rule:evenodd;stroke:none"
         transform="matrix(0.13333333,0,0,-0.13333333,0,775.85333)" />
      <path
         id="path59"
         d="m 0,892.91 h 5620.39 v 257.17 H 0 V 892.91"
         style="fill:#2e2d2d;fill-opacity:1;fill-rule:evenodd;stroke:none"
         transform="matrix(0.13333333,0,0,-0.13333333,0,775.85333)" />
      <path
         id="path60"
         d="M 213.926,1358.48 H 5406.49 l 213.9,-208.4 H 0.00390625 L 213.926,1358.48"
         style="fill:#1b1919;fill-opacity:1;fill-rule:evenodd;stroke:none"
         transform="matrix(0.13333333,0,0,-0.13333333,0,775.85333)" />
      <path
         id="path61"
         d="M 2899.09,1247.65 H 3442.9 V 3171.93 H 2899.09 V 1247.65"
         style="fill:#fbc907;fill-opacity:1;fill-rule:evenodd;stroke:none"
         transform="matrix(0.13333333,0,0,-0.13333333,0,775.85333)" />
      <path
         id="path62"
         d="M 2899.09,3171.92 2810.2,2985.2 V 1358.48 l 88.89,-110.83 v 1924.27"
         style="fill:#f8a10e;fill-opacity:1;fill-rule:evenodd;stroke:none"
         transform="matrix(0.13333333,0,0,-0.13333333,0,775.85333)" />
      <path
         id="path63"
         d="m 3008.89,2143.12 h 324.22 v 888.94 h -324.22 v -888.94"
         style="fill:#ffffff;fill-opacity:1;fill-rule:evenodd;stroke:none"
         transform="matrix(0.13333333,0,0,-0.13333333,0,775.85333)" />
      <path
         id="path64"
         d="m 3170.99,1570.54 c 113.76,0 206.55,92.79 206.55,206.55 0,113.76 -92.79,206.55 -206.55,206.55 -113.76,0 -206.53,-92.79 -206.53,-206.55 0,-113.76 92.77,-206.55 206.53,-206.55"
         style="fill:#ffffff;fill-opacity:1;fill-rule:evenodd;stroke:none"
         transform="matrix(0.13333333,0,0,-0.13333333,0,775.85333)" />
      <path
         id="path65"
         d="m 3170.99,1614.99 c 89.29,0 162.12,72.83 162.12,162.1 0,89.29 -72.83,162.1 -162.12,162.1 -89.28,0 -162.1,-72.81 -162.1,-162.1 0,-89.27 72.82,-162.1 162.1,-162.1"
         style="fill:#5c1b13;fill-opacity:1;fill-rule:evenodd;stroke:none"
         transform="matrix(0.13333333,0,0,-0.13333333,0,775.85333)" />
      <path
         id="path66"
         d="m 4564.14,1247.65 h 543.81 V 3171.93 H 4564.14 V 1247.65"
         style="fill:#5caf33;fill-opacity:1;fill-rule:evenodd;stroke:none"
         transform="matrix(0.13333333,0,0,-0.13333333,0,775.85333)" />
      <path
         id="path67"
         d="M 4564.14,3171.92 4292.23,2985.2 V 1358.48 l 271.91,-110.83 v 1924.27"
         style="fill:#4b9535;fill-opacity:1;fill-rule:evenodd;stroke:none"
         transform="matrix(0.13333333,0,0,-0.13333333,0,775.85333)" />
      <path
         id="path68"
         d="m 4673.95,2143.12 h 324.19 v 888.94 h -324.19 v -888.94"
         style="fill:#ffffff;fill-opacity:1;fill-rule:evenodd;stroke:none"
         transform="matrix(0.13333333,0,0,-0.13333333,0,775.85333)" />
      <path
         id="path69"
         d="m 4836.03,1570.54 c 113.76,0 206.56,92.79 206.56,206.55 0,113.76 -92.8,206.55 -206.56,206.55 -113.76,0 -206.53,-92.79 -206.53,-206.55 0,-113.76 92.77,-206.55 206.53,-206.55"
         style="fill:#ffffff;fill-opacity:1;fill-rule:evenodd;stroke:none"
         transform="matrix(0.13333333,0,0,-0.13333333,0,775.85333)" />
      <path
         id="path70"
         d="m 4836.03,1614.99 c 89.29,0 162.11,72.83 162.11,162.1 0,89.29 -72.82,162.1 -162.11,162.1 -89.28,0 -162.08,-72.81 -162.08,-162.1 0,-89.27 72.8,-162.1 162.08,-162.1"
         style="fill:#22321a;fill-opacity:1;fill-rule:evenodd;stroke:none"
         transform="matrix(0.13333333,0,0,-0.13333333,0,775.85333)" />
      <path
         id="path71"
         d="m 3861.23,1247.65 h 543.82 V 3171.93 H 3861.23 V 1247.65"
         style="fill:#5caf33;fill-opacity:1;fill-rule:evenodd;stroke:none"
         transform="matrix(0.13333333,0,0,-0.13333333,0,775.85333)" />
      <path
         id="path72"
         d="M 3861.23,3171.92 3589.32,2985.2 V 1358.48 l 271.91,-110.83 v 1924.27"
         style="fill:#4b9535;fill-opacity:1;fill-rule:evenodd;stroke:none"
         transform="matrix(0.13333333,0,0,-0.13333333,0,775.85333)" />
      <path
         id="path73"
         d="m 3971.05,2143.12 h 324.2 v 888.94 h -324.2 v -888.94"
         style="fill:#ffffff;fill-opacity:1;fill-rule:evenodd;stroke:none"
         transform="matrix(0.13333333,0,0,-0.13333333,0,775.85333)" />
      <path
         id="path74"
         d="m 4133.15,1570.54 c 113.76,0 206.55,92.79 206.55,206.55 0,113.76 -92.79,206.55 -206.55,206.55 -113.76,0 -206.55,-92.79 -206.55,-206.55 0,-113.76 92.79,-206.55 206.55,-206.55"
         style="fill:#ffffff;fill-opacity:1;fill-rule:evenodd;stroke:none"
         transform="matrix(0.13333333,0,0,-0.13333333,0,775.85333)" />
      <path
         id="path75"
         d="m 4133.15,1614.99 c 89.28,0 162.1,72.83 162.1,162.1 0,89.29 -72.82,162.1 -162.1,162.1 -89.29,0 -162.1,-72.81 -162.1,-162.1 0,-89.27 72.81,-162.1 162.1,-162.1"
         style="fill:#22321a;fill-opacity:1;fill-rule:evenodd;stroke:none"
         transform="matrix(0.13333333,0,0,-0.13333333,0,775.85333)" />
      <path
         id="path76"
         d="M 512.445,1247.65 H 1056.26 V 3171.93 H 512.445 V 1247.65"
         style="fill:#5caf33;fill-opacity:1;fill-rule:evenodd;stroke:none"
         transform="matrix(0.13333333,0,0,-0.13333333,0,775.85333)" />
      <path
         id="path77"
         d="M 1056.26,3171.92 1328.18,2985.2 V 1358.48 l -271.92,-110.83 v 1924.27"
         style="fill:#4b9535;fill-opacity:1;fill-rule:evenodd;stroke:none"
         transform="matrix(0.13333333,0,0,-0.13333333,0,775.85333)" />
      <path
         id="path78"
         d="m 622.262,2143.12 h 324.191 v 888.94 H 622.262 v -888.94"
         style="fill:#ffffff;fill-opacity:1;fill-rule:evenodd;stroke:none"
         transform="matrix(0.13333333,0,0,-0.13333333,0,775.85333)" />
      <path
         id="path79"
         d="m 784.359,1570.54 c 113.762,0 206.543,92.79 206.543,206.55 0,113.76 -92.781,206.55 -206.543,206.55 -113.761,0 -206.546,-92.79 -206.546,-206.55 0,-113.76 92.785,-206.55 206.546,-206.55"
         style="fill:#ffffff;fill-opacity:1;fill-rule:evenodd;stroke:none"
         transform="matrix(0.13333333,0,0,-0.13333333,0,775.85333)" />
      <path
         id="path80"
         d="m 784.359,1614.99 c 89.286,0 162.094,72.83 162.094,162.1 0,89.29 -72.808,162.1 -162.094,162.1 -89.277,0 -162.097,-72.81 -162.097,-162.1 0,-89.27 72.82,-162.1 162.097,-162.1"
         style="fill:#22321a;fill-opacity:1;fill-rule:evenodd;stroke:none"
         transform="matrix(0.13333333,0,0,-0.13333333,0,775.85333)" />
      <path
         id="path81"
         d="m 1215.35,1247.65 h 543.82 V 3171.93 H 1215.35 V 1247.65"
         style="fill:#5caf33;fill-opacity:1;fill-rule:evenodd;stroke:none"
         transform="matrix(0.13333333,0,0,-0.13333333,0,775.85333)" />
      <path
         id="path82"
         d="m 1759.17,3171.92 271.9,-186.72 V 1358.48 l -271.9,-110.83 v 1924.27"
         style="fill:#4b9535;fill-opacity:1;fill-rule:evenodd;stroke:none"
         transform="matrix(0.13333333,0,0,-0.13333333,0,775.85333)" />
      <path
         id="path83"
         d="m 1325.16,2143.12 h 324.2 v 888.94 h -324.2 v -888.94"
         style="fill:#ffffff;fill-opacity:1;fill-rule:evenodd;stroke:none"
         transform="matrix(0.13333333,0,0,-0.13333333,0,775.85333)" />
      <path
         id="path84"
         d="m 1487.26,1570.54 c 113.76,0 206.54,92.79 206.54,206.55 0,113.76 -92.78,206.55 -206.54,206.55 -113.76,0 -206.55,-92.79 -206.55,-206.55 0,-113.76 92.79,-206.55 206.55,-206.55"
         style="fill:#ffffff;fill-opacity:1;fill-rule:evenodd;stroke:none"
         transform="matrix(0.13333333,0,0,-0.13333333,0,775.85333)" />
      <path
         id="path85"
         d="m 1487.26,1614.99 c 89.28,0 162.1,72.83 162.1,162.1 0,89.29 -72.82,162.1 -162.1,162.1 -89.28,0 -162.1,-72.81 -162.1,-162.1 0,-89.27 72.82,-162.1 162.1,-162.1"
         style="fill:#22321a;fill-opacity:1;fill-rule:evenodd;stroke:none"
         transform="matrix(0.13333333,0,0,-0.13333333,0,775.85333)" />
      <path
         id="path86"
         d="m 2181.41,1247.65 h 543.82 V 3171.93 H 2181.41 V 1247.65"
         style="fill:#fbc907;fill-opacity:1;fill-rule:evenodd;stroke:none"
         transform="matrix(0.13333333,0,0,-0.13333333,0,775.85333)" />
      <path
         id="path87"
         d="m 2725.23,3171.92 88.89,-186.72 V 1358.48 l -88.89,-110.83 v 1924.27"
         style="fill:#f8a10e;fill-opacity:1;fill-rule:evenodd;stroke:none"
         transform="matrix(0.13333333,0,0,-0.13333333,0,775.85333)" />
      <path
         id="path88"
         d="m 2291.22,2143.12 h 324.2 v 888.94 h -324.2 v -888.94"
         style="fill:#ffffff;fill-opacity:1;fill-rule:evenodd;stroke:none"
         transform="matrix(0.13333333,0,0,-0.13333333,0,775.85333)" />
      <path
         id="path89"
         d="m 2453.32,1570.54 c 113.76,0 206.55,92.79 206.55,206.55 0,113.76 -92.79,206.55 -206.55,206.55 -113.76,0 -206.54,-92.79 -206.54,-206.55 0,-113.76 92.78,-206.55 206.54,-206.55"
         style="fill:#ffffff;fill-opacity:1;fill-rule:evenodd;stroke:none"
         transform="matrix(0.13333333,0,0,-0.13333333,0,775.85333)" />
      <path
         id="path90"
         d="m 2453.32,1614.99 c 89.29,0 162.1,72.83 162.1,162.1 0,89.29 -72.81,162.1 -162.1,162.1 -89.28,0 -162.09,-72.81 -162.09,-162.1 0,-89.27 72.81,-162.1 162.09,-162.1"
         style="fill:#5c1b13;fill-opacity:1;fill-rule:evenodd;stroke:none"
         transform="matrix(0.13333333,0,0,-0.13333333,0,775.85333)" />
    </g>
  </g>
</svg>
