<?xml version="1.0" encoding="UTF-8" standalone="no"?>
<!-- Created with Inkscape (http://www.inkscape.org/) -->

<svg
   version="1.1"
   id="svg1"
   width="761.98669"
   height="646.22668"
   viewBox="0 0 761.98669 646.22668"
   sodipodi:docname="thimbles-game.svg"
   inkscape:version="1.3.2 (091e20ef0f, 2023-11-25, custom)"
   xmlns:inkscape="http://www.inkscape.org/namespaces/inkscape"
   xmlns:sodipodi="http://sodipodi.sourceforge.net/DTD/sodipodi-0.dtd"
   xmlns="http://www.w3.org/2000/svg"
   xmlns:svg="http://www.w3.org/2000/svg">
  <defs
     id="defs1" />
  <sodipodi:namedview
     id="namedview1"
     pagecolor="#505050"
     bordercolor="#ffffff"
     borderopacity="1"
     inkscape:showpageshadow="0"
     inkscape:pageopacity="0"
     inkscape:pagecheckerboard="1"
     inkscape:deskcolor="#d1d1d1"
     inkscape:zoom="1.1977221"
     inkscape:cx="380.7227"
     inkscape:cy="323.11334"
     inkscape:window-width="1920"
     inkscape:window-height="1002"
     inkscape:window-x="0"
     inkscape:window-y="0"
     inkscape:window-maximized="1"
     inkscape:current-layer="g1">
    <inkscape:page
       x="0"
       y="0"
       inkscape:label="1"
       id="page1"
       width="761.98669"
       height="646.22668"
       margin="0"
       bleed="0" />
  </sodipodi:namedview>
  <g
     id="g1"
     inkscape:groupmode="layer"
     inkscape:label="1">
    <g
       id="group-R5">
      <path
         id="path2"
         d="m 1631.69,100.262 c 0,7.519 -1.07,14.008 -3.3,19.308 -2.16,5.379 -5.2,9.532 -9.1,12.461 -3.89,2.84 -8.18,4.309 -12.92,4.309 -7.49,0 -13.83,-3.168 -18.99,-9.301 -5.15,-6.199 -7.73,-15.25 -7.73,-27.2499 0,-11.3203 2.58,-20.1094 7.65,-26.3086 5.16,-6.3086 11.52,-9.4805 19.07,-9.4805 4.51,0 8.73,1.3711 12.59,4.1602 3.8,2.7304 6.9,6.832 9.24,12.2617 2.35,5.5273 3.49,12.0976 3.49,19.8401 z m -53.31,41.379 v -3.422 c 5.11,6.551 10.4,11.453 15.91,14.492 5.53,3.102 11.81,4.66 18.8,4.66 8.35,0 16.06,-2.262 23.1,-6.769 7.03,-4.52 12.58,-11.071 16.7,-19.77 4.08,-8.68 6.08,-18.922 6.08,-30.781 0,-8.7112 -1.13,-16.8401 -3.5,-24.0393 -2.34,-7.332 -5.6,-13.5117 -9.7,-18.4531 -4.12,-4.9492 -9.03,-8.7891 -14.6,-11.4297 -5.64,-2.707 -11.69,-4.0195 -18.08,-4.0195 -7.82,0 -14.34,1.6211 -19.62,4.8828 -5.33,3.25 -10.33,8.0078 -15.09,14.3281 V 18.7188 C 1578.38,6.21875 1574.02,0 1565.32,0 c -5.11,0 -8.52,1.58984 -10.13,4.80078 -1.68,3.23828 -2.5,7.94142 -2.5,14.10152 V 141.461 c 0,5.398 1.08,9.449 3.37,12.109 2.29,2.641 5.37,4.012 9.26,4.012 3.86,0 7,-1.371 9.42,-4.141 2.41,-2.761 3.64,-6.699 3.64,-11.8"
         style="fill:#100f0d;fill-opacity:1;fill-rule:nonzero;stroke:none"
         transform="matrix(0.13333333,0,0,-0.13333333,0,646.22667)" />
      <path
         id="path3"
         d="M 1751.52,58.1602 V 61.75 c -3.27,-4.2891 -6.69,-7.8711 -10.28,-10.7695 -3.59,-2.961 -7.51,-5.1094 -11.74,-6.5117 -4.29,-1.4102 -9.13,-2.1368 -14.58,-2.1368 -6.54,0 -12.44,1.4375 -17.67,4.25 -5.22,2.8282 -9.27,6.7696 -12.08,11.75 -3.45,6.0391 -5.1,14.7071 -5.1,25.9688 V 140.57 c 0,5.641 1.23,9.922 3.69,12.711 2.47,2.801 5.7,4.219 9.74,4.219 4.14,0 7.44,-1.418 9.98,-4.289 2.53,-2.852 3.77,-7.082 3.77,-12.641 V 95.0898 c 0,-6.5312 0.52,-12.0781 1.56,-16.5195 1.11,-4.4883 3.02,-7.9805 5.8,-10.5508 2.7,-2.4882 6.45,-3.7578 11.17,-3.7578 4.63,0 8.93,1.4297 12.96,4.2696 4.08,2.8085 7.05,6.5078 8.89,11.0898 1.53,4.0195 2.28,12.8203 2.28,26.4099 v 34.539 c 0,5.559 1.26,9.789 3.81,12.641 2.5,2.871 5.75,4.289 9.83,4.289 4.06,0 7.3,-1.418 9.77,-4.219 2.42,-2.789 3.63,-7.07 3.63,-12.711 V 58.332 c 0,-5.4023 -1.12,-9.4726 -3.49,-12.1523 -2.33,-2.7305 -5.37,-4.0508 -9.1,-4.0508 -3.71,0 -6.77,1.4414 -9.21,4.1719 -2.42,2.8515 -3.63,6.7383 -3.63,11.8594"
         style="fill:#100f0d;fill-opacity:1;fill-rule:nonzero;stroke:none"
         transform="matrix(0.13333333,0,0,-0.13333333,0,646.22667)" />
      <path
         id="path4"
         d="m 1830.42,99.1406 c 0,-11.289 2.46,-19.9297 7.38,-26.0195 4.97,-6.0391 11.47,-9.1211 19.52,-9.1211 6.85,0 12.71,3.1289 17.69,9.3203 4.98,6.2188 7.46,15.0586 7.46,26.6485 0,7.5702 -1.04,13.9802 -3.11,19.3712 -2.08,5.441 -5.02,9.621 -8.76,12.539 -3.85,2.941 -8.21,4.461 -13.28,4.461 -5.23,0 -9.77,-1.52 -13.85,-4.461 -4.08,-2.918 -7.24,-7.207 -9.58,-12.809 -2.33,-5.531 -3.47,-12.16 -3.47,-19.9294 z m -1.29,84.3904 v -43.39 c 5.05,5.589 10.3,9.789 15.6,12.808 5.32,2.93 11.93,4.422 19.74,4.422 9.05,0 16.96,-2.262 23.77,-6.691 6.79,-4.551 12.11,-10.981 15.84,-19.481 3.79,-8.469 5.64,-18.547 5.64,-30.187 0,-8.6214 -1.03,-16.4925 -3.1,-23.7112 -2.11,-7.1406 -5.12,-13.332 -9.12,-18.6719 -4.02,-5.2266 -8.86,-9.2578 -14.51,-12.2383 -5.71,-2.8203 -11.97,-4.2812 -18.81,-4.2812 -4.14,0 -8.12,0.5312 -11.82,1.5429 -3.68,1.0586 -6.85,2.418 -9.37,4.1563 -2.63,1.6016 -4.84,3.4219 -6.68,5.1836 -1.81,1.8281 -4.2,4.5078 -7.18,8.1094 V 58.332 c 0,-5.3632 -1.26,-9.3906 -3.72,-12.1523 -2.43,-2.7305 -5.6,-4.0703 -9.35,-4.0703 -3.87,0 -6.92,1.3398 -9.25,4.0703 -2.26,2.8125 -3.41,6.8125 -3.41,12.1523 v 123.969 c 0,5.711 1.11,10.058 3.36,13 2.21,2.961 5.29,4.429 9.3,4.429 4.17,0 7.4,-1.398 9.63,-4.23 2.29,-2.781 3.44,-6.758 3.44,-11.969"
         style="fill:#100f0d;fill-opacity:1;fill-rule:nonzero;stroke:none"
         transform="matrix(0.13333333,0,0,-0.13333333,0,646.22667)" />
      <path
         id="path5"
         d="M 1928.92,59.3906 V 182.469 c 0,5.711 1.21,9.98 3.6,12.91 2.47,2.883 5.72,4.351 9.84,4.351 4.12,0 7.43,-1.417 9.96,-4.308 2.49,-2.863 3.8,-7.223 3.8,-12.953 V 59.3906 c 0,-5.7695 -1.31,-10.1015 -3.86,-13 -2.54,-2.8203 -5.85,-4.2812 -9.9,-4.2812 -3.99,0 -7.18,1.4922 -9.69,4.4726 -2.5,2.9883 -3.75,7.2383 -3.75,12.8086"
         style="fill:#100f0d;fill-opacity:1;fill-rule:nonzero;stroke:none"
         transform="matrix(0.13333333,0,0,-0.13333333,0,646.22667)" />
      <path
         id="path6"
         d="M 2011.39,141.379 V 59.3906 c 0,-5.7304 -1.33,-10.0195 -3.85,-12.9297 -2.62,-2.8593 -5.92,-4.3515 -9.87,-4.3515 -4,0 -7.25,1.4922 -9.73,4.4414 -2.46,3.0195 -3.75,7.2695 -3.75,12.8398 V 140.57 c 0,5.559 1.29,9.789 3.75,12.641 2.48,2.871 5.73,4.289 9.73,4.289 3.95,0 7.25,-1.418 9.87,-4.289 2.52,-2.852 3.85,-6.77 3.85,-11.832 z m -13.45,29.34 c -3.79,0 -7,1.211 -9.75,3.703 -2.62,2.418 -4,5.867 -4,10.328 0,3.992 1.38,7.27 4.15,9.922 2.75,2.609 5.95,3.828 9.6,3.828 3.52,0 6.65,-1.148 9.37,-3.488 2.71,-2.352 4.08,-5.821 4.08,-10.262 0,-4.418 -1.34,-7.828 -4,-10.25 -2.66,-2.461 -5.77,-3.781 -9.45,-3.781"
         style="fill:#100f0d;fill-opacity:1;fill-rule:nonzero;stroke:none"
         transform="matrix(0.13333333,0,0,-0.13333333,0,646.22667)" />
      <path
         id="path7"
         d="m 2136.91,77.2617 c 0,-3.5195 -0.99,-7.3203 -3.01,-11.3398 -2.05,-4.0117 -5.14,-7.8203 -9.3,-11.4805 -4.13,-3.6211 -9.36,-6.5508 -15.67,-8.75 -6.31,-2.2695 -13.43,-3.3594 -21.31,-3.3594 -16.82,0 -29.93,5.1289 -39.37,15.3399 -9.41,10.2187 -14.14,23.8867 -14.14,41.0976 0,11.6405 2.15,21.9605 6.45,30.8825 4.31,8.887 10.61,15.86 18.74,20.707 8.15,4.922 17.95,7.371 29.27,7.371 7.06,0 13.53,-1.109 19.42,-3.23 5.87,-2.168 10.85,-4.949 14.93,-8.309 4.08,-3.41 7.2,-7.039 9.37,-10.859 2.18,-3.84 3.23,-7.441 3.23,-10.769 0,-3.352 -1.24,-6.231 -3.63,-8.602 -2.45,-2.391 -5.35,-3.551 -8.81,-3.551 -2.28,0 -4.13,0.66 -5.66,1.871 -1.45,1.168 -3.15,3.071 -5.03,5.84 -3.3,5.238 -6.79,9.231 -10.4,11.91 -3.63,2.61 -8.23,3.961 -13.76,3.961 -8.09,0 -14.56,-3.332 -19.47,-9.883 -4.92,-6.578 -7.35,-15.527 -7.35,-26.8981 0,-5.3007 0.63,-10.2695 1.91,-14.7109 1.25,-4.4883 3.07,-8.2891 5.44,-11.4609 2.41,-3.1602 5.27,-5.5274 8.67,-7.1602 3.39,-1.6601 7.12,-2.4492 11.14,-2.4492 5.48,0 10.13,1.2891 14.02,3.9219 3.89,2.6679 7.33,6.6875 10.31,12.039 1.67,3.2696 3.45,5.7383 5.39,7.5586 1.94,1.8125 4.31,2.6719 7.09,2.6719 3.31,0 6.07,-1.2813 8.28,-3.9219 2.15,-2.6875 3.25,-5.457 3.25,-8.4375"
         style="fill:#100f0d;fill-opacity:1;fill-rule:nonzero;stroke:none"
         transform="matrix(0.13333333,0,0,-0.13333333,0,646.22667)" />
      <path
         id="path8"
         d="m 2181.72,99.9688 c 0,-7.6875 1.14,-14.1993 3.42,-19.6368 2.31,-5.4218 5.4,-9.4414 9.39,-12.1718 4.01,-2.7891 8.37,-4.1602 13.04,-4.1602 4.79,0 9.15,1.332 13.1,3.8906 3.97,2.6211 7.09,6.6289 9.48,11.9883 2.36,5.3633 3.53,12.082 3.53,20.0899 0,7.6132 -1.17,14.0622 -3.53,19.5312 -2.39,5.449 -5.56,9.602 -9.56,12.531 -4.03,2.84 -8.41,4.309 -13.19,4.309 -4.96,0 -9.41,-1.52 -13.34,-4.461 -3.89,-2.918 -6.97,-7.199 -9.12,-12.707 -2.14,-5.531 -3.22,-11.863 -3.22,-19.2032 z m 53.46,-41.6368 v 2.7696 c -3.66,-4.3594 -7.26,-7.9102 -10.86,-10.6016 -3.49,-2.7695 -7.37,-4.8398 -11.52,-6.2695 -4.13,-1.3907 -8.67,-2.1211 -13.57,-2.1211 -6.5,0 -12.57,1.4609 -18.09,4.2812 -5.53,2.9805 -10.32,7.0313 -14.38,12.3594 -4.04,5.3398 -7.12,11.6094 -9.23,18.8516 -2.11,7.1797 -3.14,14.9804 -3.14,23.4104 0,17.687 4.16,31.59 12.47,41.5 8.32,9.91 19.22,14.859 32.75,14.859 7.84,0 14.46,-1.422 19.83,-4.281 5.36,-2.77 10.63,-7.078 15.74,-12.949 v 41.91 c 0,5.84 1.09,10.238 3.34,13.199 2.21,3 5.35,4.48 9.49,4.48 4.11,0 7.28,-1.378 9.53,-4.082 2.21,-2.726 3.36,-6.777 3.36,-12.117 V 58.332 c 0,-5.4023 -1.21,-9.4726 -3.61,-12.1523 -2.41,-2.7305 -5.46,-4.0703 -9.28,-4.0703 -3.68,0 -6.79,1.4023 -9.23,4.1914 -2.4,2.8008 -3.6,6.7812 -3.6,12.0312"
         style="fill:#100f0d;fill-opacity:1;fill-rule:nonzero;stroke:none"
         transform="matrix(0.13333333,0,0,-0.13333333,0,646.22667)" />
      <path
         id="path9"
         d="m 2362.71,99.75 c 0,11.531 -2.49,20.57 -7.34,27.02 -4.89,6.402 -11.46,9.66 -19.68,9.66 -5.35,0 -10,-1.45 -14.06,-4.321 -4.04,-2.918 -7.16,-7.16 -9.35,-12.769 -2.18,-5.559 -3.3,-12.07 -3.3,-19.59 0,-7.4297 1.12,-13.8906 3.24,-19.418 2.15,-5.5429 5.25,-9.7929 9.29,-12.7422 4,-2.9375 8.77,-4.3906 14.18,-4.3906 8.22,0 14.79,3.2227 19.68,9.6914 4.85,6.461 7.34,15.4492 7.34,26.8594 z m 27.28,0 c 0,-8.4102 -1.28,-16.2109 -3.79,-23.3984 -2.52,-7.0821 -6.17,-13.2305 -10.93,-18.3828 -4.82,-5.1368 -10.52,-8.9766 -17.15,-11.7891 -6.64,-2.7305 -14.17,-4.0703 -22.43,-4.0703 -8.22,0 -15.64,1.3398 -22.19,4.1523 -6.59,2.7578 -12.31,6.7305 -17.13,11.8985 -4.79,5.1796 -8.43,11.2382 -10.95,18.2695 -2.49,7.082 -3.72,14.8125 -3.72,23.3711 0,8.5902 1.27,16.4492 3.77,23.5582 2.52,7.18 6.12,13.231 10.85,18.332 4.72,5.051 10.42,8.95 17.18,11.68 6.72,2.738 14.08,4.129 22.19,4.129 8.25,0 15.72,-1.391 22.43,-4.168 6.68,-2.762 12.43,-6.762 17.2,-11.871 4.82,-5.121 8.44,-11.262 10.88,-18.332 2.55,-7.059 3.79,-14.859 3.79,-23.379"
         style="fill:#100f0d;fill-opacity:1;fill-rule:nonzero;stroke:none"
         transform="matrix(0.13333333,0,0,-0.13333333,0,646.22667)" />
      <path
         id="path10"
         d="m 2504.84,123.191 c -2.04,-4.789 -3,-13.261 -3,-25.4488 V 60.0195 c 0,-5.9375 -1.27,-10.4492 -3.9,-13.4375 -2.57,-2.9804 -6.04,-4.4726 -10.28,-4.4726 -4.08,0 -7.41,1.4922 -9.95,4.4726 -2.56,2.9883 -3.81,7.5 -3.81,13.4375 v 45.2695 c 0,7.121 -0.27,12.652 -0.74,16.652 -0.47,3.911 -1.72,7.168 -3.78,9.711 -2.02,2.547 -5.3,3.809 -9.73,3.809 -8.89,0 -14.74,-3.191 -17.59,-9.609 -2.85,-6.352 -4.19,-15.512 -4.19,-27.4497 V 60.0195 c 0,-5.9297 -1.31,-10.3906 -3.84,-13.3398 -2.58,-3.0781 -5.95,-4.5703 -10.08,-4.5703 -4.16,0 -7.56,1.4922 -10.17,4.5703 -2.64,2.9492 -3.89,7.4101 -3.89,13.332 v 81.2073 c 0,5.351 1.13,9.422 3.46,12.183 2.39,2.75 5.49,4.18 9.37,4.18 3.72,0 6.83,-1.293 9.3,-3.902 2.48,-2.59 3.73,-6.16 3.73,-10.75 v -2.688 c 4.7,5.887 9.76,10.238 15.12,12.969 5.37,2.781 11.42,4.16 17.94,4.16 6.82,0 12.67,-1.422 17.59,-4.281 4.94,-2.82 8.97,-7.121 12.14,-12.848 4.59,5.77 9.5,10.117 14.77,12.918 5.25,2.832 11.05,4.211 17.4,4.211 7.49,0 13.88,-1.492 19.22,-4.59 5.4,-3.039 9.41,-7.402 12.08,-13.082 2.34,-5.136 3.47,-13.207 3.47,-24.25 V 60.0195 c 0,-5.9375 -1.29,-10.4492 -3.83,-13.4375 -2.65,-2.9804 -6.03,-4.4726 -10.29,-4.4726 -4.13,0 -7.49,1.4922 -10.1,4.5703 -2.66,2.9492 -3.97,7.4101 -3.97,13.3398 v 47.7615 c 0,6.11 -0.24,10.981 -0.73,14.66 -0.51,3.711 -1.85,6.75 -4.06,9.258 -2.18,2.5 -5.52,3.762 -9.93,3.762 -3.59,0 -7.01,-1.121 -10.18,-3.289 -3.27,-2.25 -5.72,-5.231 -7.55,-8.981 v 0"
         style="fill:#100f0d;fill-opacity:1;fill-rule:nonzero;stroke:none"
         transform="matrix(0.13333333,0,0,-0.13333333,0,646.22667)" />
      <path
         id="path11"
         d="m 2658.86,99.2109 c -4.01,-1.5586 -9.8,-3.1289 -17.4,-4.8515 -7.62,-1.6992 -12.88,-2.9375 -15.81,-3.75 -2.93,-0.8203 -5.72,-2.3672 -8.34,-4.6602 -2.68,-2.3906 -4.02,-5.6172 -4.02,-9.7773 0,-4.3321 1.58,-7.961 4.67,-10.9805 3.14,-3.0625 7.24,-4.5312 12.28,-4.5312 5.38,0 10.37,1.25 14.9,3.7109 4.55,2.4375 7.92,5.6484 10,9.5 2.47,4.3086 3.72,11.3711 3.72,21.3008 z m 1.77,-41.1093 c -6.59,-5.3594 -12.94,-9.3321 -19.08,-11.9727 -6.13,-2.707 -13.05,-4.0195 -20.65,-4.0195 -7.02,0 -13.09,1.4609 -18.41,4.2812 -5.32,2.8985 -9.35,6.8008 -12.22,11.7696 -2.82,4.9218 -4.28,10.1992 -4.28,15.9921 0,7.7579 2.41,14.3594 7.12,19.8399 4.67,5.4492 11.14,9.1368 19.37,11.0198 1.73,0.418 6.04,1.32 12.84,2.769 6.91,1.5 12.71,2.801 17.67,4.008 4.83,1.191 10.16,2.672 15.87,4.391 -0.35,7.519 -1.78,13.011 -4.32,16.582 -2.6,3.468 -7.93,5.179 -15.92,5.179 -6.94,0 -12.11,-0.98 -15.64,-2.992 -3.46,-1.98 -6.48,-5.027 -8.93,-9.097 -2.52,-3.993 -4.24,-6.661 -5.28,-7.922 -1.06,-1.321 -3.27,-1.891 -6.6,-1.891 -3.1,0 -5.72,1 -7.92,3.02 -2.26,2.062 -3.36,4.64 -3.36,7.882 0,4.969 1.69,9.868 5.06,14.52 3.4,4.73 8.69,8.598 15.85,11.699 7.16,3.051 16.12,4.57 26.82,4.57 11.93,0 21.34,-1.519 28.23,-4.449 6.82,-2.922 11.6,-7.551 14.45,-13.972 2.84,-6.34 4.24,-14.84 4.24,-25.36 0,-6.64 0,-12.34 -0.04,-16.949 -0.06,-4.6797 -0.08,-9.8281 -0.15,-15.5078 0,-5.3203 0.84,-10.9024 2.56,-16.6719 1.65,-5.789 2.49,-9.5312 2.49,-11.1601 0,-2.918 -1.33,-5.5782 -3.94,-7.9688 -2.56,-2.3789 -5.57,-3.582 -8.87,-3.582 -2.83,0 -5.53,1.3398 -8.3,4.0703 -2.71,2.7617 -5.6,6.75 -8.66,11.9219"
         style="fill:#100f0d;fill-opacity:1;fill-rule:nonzero;stroke:none"
         transform="matrix(0.13333333,0,0,-0.13333333,0,646.22667)" />
      <path
         id="path12"
         d="M 2740.36,141.379 V 59.3906 c 0,-5.7304 -1.3,-10.0195 -3.85,-12.9297 -2.59,-2.8593 -5.86,-4.3515 -9.85,-4.3515 -3.98,0 -7.26,1.4922 -9.72,4.4414 -2.52,3.0195 -3.77,7.2695 -3.77,12.8398 V 140.57 c 0,5.559 1.25,9.789 3.77,12.641 2.46,2.871 5.74,4.289 9.72,4.289 3.99,0 7.26,-1.418 9.85,-4.289 2.55,-2.852 3.85,-6.77 3.85,-11.832 z m -13.44,29.34 c -3.75,0 -6.97,1.211 -9.66,3.703 -2.69,2.418 -4.09,5.867 -4.09,10.328 0,3.992 1.41,7.27 4.17,9.922 2.73,2.609 5.97,3.828 9.58,3.828 3.53,0 6.69,-1.148 9.42,-3.488 2.68,-2.352 4.02,-5.821 4.02,-10.262 0,-4.418 -1.3,-7.828 -3.97,-10.25 -2.66,-2.461 -5.81,-3.781 -9.47,-3.781"
         style="fill:#100f0d;fill-opacity:1;fill-rule:nonzero;stroke:none"
         transform="matrix(0.13333333,0,0,-0.13333333,0,646.22667)" />
      <path
         id="path13"
         d="m 2793.21,141.789 v -3.387 c 4.76,6.559 9.98,11.399 15.62,14.469 5.69,3.078 12.22,4.629 19.63,4.629 7.13,0 13.57,-1.621 19.25,-4.91 5.59,-3.238 9.84,-7.82 12.59,-13.758 1.82,-3.5 2.94,-7.281 3.52,-11.281 0.49,-3.981 0.8,-9.11 0.8,-15.371 V 59.3906 c 0,-5.7304 -1.29,-10.0195 -3.76,-12.9297 -2.5,-2.8593 -5.74,-4.3515 -9.71,-4.3515 -4.04,0 -7.35,1.4922 -9.77,4.4726 -2.56,2.9883 -3.86,7.2383 -3.86,12.8086 v 47.2614 c 0,9.407 -1.21,16.539 -3.69,21.489 -2.54,4.949 -7.52,7.468 -14.96,7.468 -4.84,0 -9.25,-1.539 -13.22,-4.558 -3.98,-2.981 -6.9,-7.141 -8.76,-12.43 -1.33,-4.223 -2.03,-12.09 -2.03,-23.7421 V 59.3906 c 0,-5.7695 -1.25,-10.1015 -3.82,-13 -2.57,-2.8203 -5.87,-4.2812 -9.9,-4.2812 -3.89,0 -7.14,1.4922 -9.65,4.4414 -2.57,3.0195 -3.8,7.2695 -3.8,12.8398 v 81.9884 c 0,5.43 1.11,9.422 3.4,12.101 2.21,2.672 5.37,4.02 9.27,4.02 2.35,0 4.54,-0.629 6.43,-1.77 1.99,-1.16 3.48,-2.988 4.65,-5.25 1.12,-2.41 1.77,-5.289 1.77,-8.691"
         style="fill:#100f0d;fill-opacity:1;fill-rule:nonzero;stroke:none"
         transform="matrix(0.13333333,0,0,-0.13333333,0,646.22667)" />
      <path
         id="path14"
         d="m 2908.26,139.832 21.96,-64.4414 23.73,67.2614 c 1.88,5.418 3.7,9.2 5.51,11.457 1.83,2.25 4.5,3.391 8.14,3.391 3.45,0 6.38,-1.211 8.86,-3.68 2.38,-2.398 3.6,-5.168 3.6,-8.441 0,-1.219 -0.24,-2.649 -0.67,-4.277 -0.39,-1.692 -0.88,-3.262 -1.48,-4.75 -0.57,-1.403 -1.15,-3.09 -1.94,-4.942 l -26.09,-67.5702 c -0.73,-1.9296 -1.7,-4.4296 -2.83,-7.4101 -1.18,-2.9688 -2.5,-5.4609 -3.89,-7.6602 -1.46,-2.0898 -3.2,-3.6875 -5.27,-4.8789 -2.13,-1.1797 -4.68,-1.7812 -7.67,-1.7812 -3.84,0 -6.9,0.9101 -9.22,2.7109 -2.29,1.8594 -3.99,3.8399 -5.07,6.082 -1.08,2.1368 -2.96,6.4766 -5.52,12.9375 l -25.93,66.8322 c -0.59,1.637 -1.24,3.32 -1.88,4.988 -0.6,1.66 -1.09,3.32 -1.56,5.082 -0.41,1.77 -0.66,3.25 -0.66,4.449 0,1.981 0.57,3.891 1.72,5.801 1.13,1.918 2.69,3.488 4.68,4.668 2.02,1.211 4.13,1.84 6.5,1.84 4.47,0 7.59,-1.348 9.3,-4.098 1.7,-2.683 3.6,-7.211 5.68,-13.57"
         style="fill:#100f0d;fill-opacity:1;fill-rule:nonzero;stroke:none"
         transform="matrix(0.13333333,0,0,-0.13333333,0,646.22667)" />
      <path
         id="path15"
         d="m 3019.49,109.012 h 49.29 c -0.63,9.668 -3.12,16.929 -7.5,21.718 -4.37,4.801 -10.1,7.211 -17.22,7.211 -6.73,0 -12.31,-2.441 -16.64,-7.3 -4.34,-4.871 -6.95,-12.09 -7.93,-21.629 z m 53.21,-16.1526 h -53.21 c 0.01,-6.4571 1.31,-12.1406 3.69,-17.0977 2.46,-4.8711 5.67,-8.5898 9.7,-11.1094 4,-2.5234 8.46,-3.7226 13.31,-3.7226 3.24,0 6.25,0.3906 8.9,1.1601 2.67,0.8399 5.31,2.0821 7.86,3.75 2.48,1.711 4.78,3.4805 6.93,5.5 2.1,1.9297 4.93,4.5196 8.27,7.8711 1.41,1.3086 3.42,1.8907 5.97,1.8907 2.84,0 5.07,-0.7696 6.81,-2.4102 1.73,-1.5898 2.54,-3.8203 2.54,-6.7305 0,-2.5625 -0.94,-5.5586 -2.88,-9.0312 -1.91,-3.3789 -4.76,-6.6992 -8.71,-9.8906 -3.9,-3.1289 -8.77,-5.6993 -14.65,-7.8282 -5.85,-2.0703 -12.58,-3.1015 -20.29,-3.1015 -17.43,0 -31.03,5.2304 -40.69,15.582 -9.69,10.4492 -14.51,24.5078 -14.51,42.2774 0,8.5002 1.23,16.2112 3.56,23.3712 2.4,7.199 5.86,13.332 10.46,18.449 4.59,5.152 10.2,9.121 16.93,11.813 6.73,2.757 14.14,4.128 22.34,4.128 10.55,0 19.7,-2.339 27.29,-7.05 7.63,-4.668 13.31,-10.68 17.09,-18.078 3.79,-7.461 5.69,-14.981 5.69,-22.743 0,-7.078 -1.91,-11.6988 -5.86,-13.8004 -3.96,-2.1484 -9.44,-3.1992 -16.54,-3.1992"
         style="fill:#100f0d;fill-opacity:1;fill-rule:nonzero;stroke:none"
         transform="matrix(0.13333333,0,0,-0.13333333,0,646.22667)" />
      <path
         id="path16"
         d="m 3215.58,77.2617 c 0,-3.5195 -1.01,-7.3203 -3.08,-11.3398 -2.03,-4.0117 -5.06,-7.8203 -9.25,-11.4805 -4.13,-3.6211 -9.4,-6.5508 -15.73,-8.75 -6.27,-2.2695 -13.42,-3.3594 -21.25,-3.3594 -16.87,0 -29.97,5.1289 -39.39,15.3399 -9.4,10.2187 -14.15,23.8867 -14.15,41.0976 0,11.6405 2.14,21.9605 6.5,30.8825 4.32,8.887 10.51,15.86 18.71,20.707 8.13,4.922 17.93,7.371 29.31,7.371 7.03,0 13.46,-1.109 19.39,-3.23 5.86,-2.168 10.8,-4.949 14.94,-8.309 4.08,-3.41 7.17,-7.039 9.36,-10.859 2.14,-3.84 3.21,-7.441 3.21,-10.769 0,-3.352 -1.18,-6.231 -3.68,-8.602 -2.39,-2.391 -5.32,-3.551 -8.78,-3.551 -2.26,0 -4.13,0.66 -5.6,1.871 -1.52,1.168 -3.18,3.071 -5.06,5.84 -3.32,5.238 -6.77,9.231 -10.4,11.91 -3.62,2.61 -8.22,3.961 -13.81,3.961 -7.99,0 -14.49,-3.332 -19.4,-9.883 -4.96,-6.578 -7.4,-15.527 -7.4,-26.8981 0,-5.3007 0.67,-10.2695 1.88,-14.7109 1.27,-4.4883 3.12,-8.2891 5.52,-11.4609 2.38,-3.1602 5.29,-5.5274 8.67,-7.1602 3.33,-1.6601 7.07,-2.4492 11.16,-2.4492 5.43,0 10.11,1.2891 14,3.9219 3.87,2.6679 7.33,6.6875 10.32,12.039 1.67,3.2696 3.43,5.7383 5.38,7.5586 1.91,1.8125 4.23,2.6719 7.07,2.6719 3.27,0 6.08,-1.2813 8.19,-3.9219 2.24,-2.6875 3.37,-5.457 3.37,-8.4375"
         style="fill:#100f0d;fill-opacity:1;fill-rule:nonzero;stroke:none"
         transform="matrix(0.13333333,0,0,-0.13333333,0,646.22667)" />
      <path
         id="path17"
         d="m 3240.83,155.109 h 2.99 v 17.063 c 0,4.539 0.13,8.16 0.37,10.75 0.22,2.609 0.82,4.789 1.94,6.699 1.03,1.899 2.56,3.5 4.59,4.738 1.98,1.18 4.19,1.75 6.65,1.75 3.44,0 6.58,-1.32 9.35,-4.007 1.82,-1.832 3.03,-3.993 3.52,-6.571 0.51,-2.609 0.74,-6.351 0.74,-11.109 v -19.313 h 10 c 3.84,0 6.79,-0.968 8.81,-2.867 2.07,-1.922 3.05,-4.332 3.05,-7.32 0,-3.82 -1.43,-6.52 -4.36,-8.012 -2.87,-1.5 -7.02,-2.269 -12.39,-2.269 h -5.11 V 82.3594 c 0,-4.4492 0.16,-7.8672 0.45,-10.2891 0.35,-2.3984 1.19,-4.3398 2.45,-5.789 1.26,-1.5 3.37,-2.2813 6.32,-2.2813 1.58,0 3.73,0.2813 6.48,0.9023 2.66,0.5782 4.79,0.879 6.35,0.879 2.18,0 4.22,-0.961 5.94,-2.6993 1.72,-1.9023 2.63,-4.1211 2.63,-6.8515 0,-4.5508 -2.34,-8.0586 -7.16,-10.4883 -4.83,-2.4297 -11.69,-3.6328 -20.61,-3.6328 -8.51,0 -14.97,1.4922 -19.36,4.4726 -4.35,2.9883 -7.27,7.0782 -8.58,12.4102 -1.4,5.2695 -2.07,12.2969 -2.07,21.0976 v 54.5512 h -3.61 c -3.85,0 -6.85,0.968 -8.93,2.918 -2.07,1.933 -3.08,4.363 -3.08,7.363 0,2.988 1.06,5.398 3.2,7.32 2.18,1.899 5.3,2.867 9.43,2.867"
         style="fill:#100f0d;fill-opacity:1;fill-rule:nonzero;stroke:none"
         transform="matrix(0.13333333,0,0,-0.13333333,0,646.22667)" />
      <path
         id="path18"
         d="m 3386.03,99.75 c 0,11.531 -2.47,20.57 -7.32,27.02 -4.93,6.402 -11.42,9.66 -19.69,9.66 -5.33,0 -10,-1.45 -14.02,-4.321 -4.08,-2.918 -7.2,-7.16 -9.37,-12.769 -2.19,-5.559 -3.32,-12.07 -3.32,-19.59 0,-7.4297 1.13,-13.8906 3.28,-19.418 2.14,-5.5429 5.21,-9.7929 9.22,-12.7422 4.01,-2.9375 8.75,-4.3906 14.21,-4.3906 8.27,0 14.76,3.2227 19.69,9.6914 4.85,6.461 7.32,15.4492 7.32,26.8594 z m 27.3,0 c 0,-8.4102 -1.25,-16.2109 -3.82,-23.3984 -2.5,-7.0821 -6.17,-13.2305 -10.93,-18.3828 -4.79,-5.1368 -10.51,-8.9766 -17.12,-11.7891 -6.67,-2.7305 -14.1,-4.0703 -22.44,-4.0703 -8.27,0 -15.68,1.3398 -22.22,4.1523 -6.57,2.7578 -12.29,6.7305 -17.09,11.8985 -4.8,5.1796 -8.46,11.2382 -10.91,18.2695 -2.48,7.082 -3.7,14.8125 -3.7,23.3711 0,8.5902 1.22,16.4492 3.7,23.5582 2.58,7.18 6.15,13.231 10.86,18.332 4.75,5.051 10.45,8.95 17.14,11.68 6.77,2.738 14.16,4.129 22.22,4.129 8.27,0 15.7,-1.391 22.44,-4.168 6.69,-2.762 12.42,-6.762 17.21,-11.871 4.73,-5.121 8.44,-11.262 10.92,-18.332 2.49,-7.059 3.74,-14.859 3.74,-23.379"
         style="fill:#100f0d;fill-opacity:1;fill-rule:nonzero;stroke:none"
         transform="matrix(0.13333333,0,0,-0.13333333,0,646.22667)" />
      <path
         id="path19"
         d="M 3461.78,83.0117 V 59.3906 c 0,-5.7695 -1.31,-10.1015 -3.91,-13 -2.6,-2.8203 -5.87,-4.2812 -9.89,-4.2812 -3.87,0 -7.12,1.4922 -9.63,4.3515 -2.52,2.9102 -3.76,7.1993 -3.76,12.9297 v 78.9884 c 0,12.762 4.39,19.121 13.23,19.121 4.47,0 7.75,-1.508 9.78,-4.461 1.95,-2.98 3.01,-7.391 3.27,-13.207 3.23,5.816 6.61,10.227 10.04,13.207 3.42,2.953 7.96,4.461 13.64,4.461 5.76,0 11.28,-1.508 16.68,-4.461 5.35,-2.98 8.08,-6.957 8.08,-11.859 0,-3.45 -1.18,-6.36 -3.47,-8.578 -2.27,-2.243 -4.75,-3.411 -7.44,-3.411 -0.98,0 -3.4,0.661 -7.21,1.969 -3.85,1.262 -7.22,1.93 -10.15,1.93 -3.94,0 -7.19,-1.059 -9.69,-3.289 -2.54,-2.219 -4.51,-5.41 -5.9,-9.699 -1.4,-4.352 -2.4,-9.442 -2.9,-15.391 -0.51,-5.8907 -0.77,-13.1016 -0.77,-21.6993"
         style="fill:#100f0d;fill-opacity:1;fill-rule:nonzero;stroke:none"
         transform="matrix(0.13333333,0,0,-0.13333333,0,646.22667)" />
      <path
         id="path20"
         d="m 3606.63,79.1914 c 0,-7.8516 -1.83,-14.5391 -5.52,-20.1328 -3.67,-5.5977 -9.05,-9.7695 -16.2,-12.6797 -7.17,-2.8086 -15.82,-4.2695 -26.1,-4.2695 -9.68,0 -18.1,1.5429 -25.09,4.6992 -6.97,3.1016 -12.13,6.9805 -15.42,11.6523 -3.36,4.6602 -5.07,9.3477 -5.07,14.0508 0,3.1172 1.1,5.7891 3.27,8.0078 2.11,2.2618 4.82,3.3203 8.03,3.3203 2.87,0 5.1,-0.7382 6.61,-2.1484 1.53,-1.5391 2.95,-3.543 4.39,-6.1797 2.78,-5.0703 6.1,-8.8515 10.05,-11.3398 3.81,-2.5313 9.12,-3.7696 15.88,-3.7696 5.42,0 9.9,1.2891 13.39,3.8165 3.47,2.5312 5.27,5.4101 5.27,8.6718 0,5.0196 -1.84,8.668 -5.43,10.9414 -3.67,2.3282 -9.6,4.5078 -17.9,6.5703 -9.36,2.4297 -17,4.9766 -22.89,7.629 -5.87,2.6797 -10.63,6.2307 -14.11,10.5897 -3.53,4.301 -5.32,9.711 -5.32,16.09 0,5.719 1.64,11.078 4.91,16.121 3.23,5.07 8.1,9.09 14.42,12.117 6.33,3.043 13.97,4.551 22.99,4.551 7,0 13.33,-0.781 18.97,-2.301 5.6,-1.519 10.34,-3.59 14.03,-6.117 3.75,-2.582 6.65,-5.422 8.59,-8.512 1.99,-3.16 2.96,-6.199 2.96,-9.16 0,-3.269 -1.03,-5.879 -3.17,-8.051 -2.1,-2 -5.09,-3.058 -8.88,-3.058 -2.83,0 -5.19,0.82 -7.19,2.519 -1.91,1.641 -4.19,4.121 -6.7,7.41 -2.06,2.782 -4.46,5.012 -7.28,6.68 -2.8,1.629 -6.58,2.5 -11.33,2.5 -4.93,0 -9.06,-1.09 -12.25,-3.301 -3.28,-2.16 -4.92,-4.91 -4.92,-8.16 0,-3 1.21,-5.429 3.56,-7.328 2.43,-1.922 5.63,-3.492 9.7,-4.75 4.08,-1.25 9.64,-2.801 16.75,-4.59 8.46,-2.14 15.32,-4.679 20.68,-7.691 5.34,-2.942 9.39,-6.4806 12.14,-10.5314 2.8,-4.0898 4.18,-8.707 4.18,-13.8672"
         style="fill:#100f0d;fill-opacity:1;fill-rule:nonzero;stroke:none"
         transform="matrix(0.13333333,0,0,-0.13333333,0,646.22667)" />
      <path
         id="path21"
         d="m 3637.51,42.1094 c -4.12,0 -7.69,1.3398 -10.63,4.1523 -3.04,2.7578 -4.52,6.668 -4.52,11.6094 0,4.2187 1.4,7.8594 4.23,10.9297 2.86,3.039 6.41,4.5195 10.6,4.5195 4.16,0 7.74,-1.4805 10.63,-4.5117 3,-2.9688 4.48,-6.6797 4.48,-10.9375 0,-4.9023 -1.48,-8.7695 -4.48,-11.5703 -2.89,-2.7891 -6.34,-4.1914 -10.31,-4.1914"
         style="fill:#100f0d;fill-opacity:1;fill-rule:nonzero;stroke:none"
         transform="matrix(0.13333333,0,0,-0.13333333,0,646.22667)" />
      <path
         id="path22"
         d="m 3757.76,99.75 c 0,11.531 -2.45,20.57 -7.33,27.02 -4.88,6.402 -11.42,9.66 -19.65,9.66 -5.32,0 -9.95,-1.45 -14.02,-4.321 -4.06,-2.918 -7.18,-7.16 -9.36,-12.769 -2.17,-5.559 -3.28,-12.07 -3.28,-19.59 0,-7.4297 1.05,-13.8906 3.19,-19.418 2.23,-5.5429 5.28,-9.7929 9.31,-12.7422 4.01,-2.9375 8.72,-4.3906 14.16,-4.3906 8.23,0 14.77,3.2227 19.65,9.6914 4.88,6.461 7.33,15.4492 7.33,26.8594 z m 27.33,0 c 0,-8.4102 -1.25,-16.2109 -3.81,-23.3984 -2.54,-7.0821 -6.15,-13.2305 -10.95,-18.3828 -4.82,-5.1368 -10.47,-8.9766 -17.13,-11.7891 -6.62,-2.7305 -14.09,-4.0703 -22.42,-4.0703 -8.22,0 -15.62,1.3398 -22.2,4.1523 -6.58,2.7578 -12.24,6.7305 -17.05,11.8985 -4.89,5.1796 -8.51,11.2382 -11.03,18.2695 -2.44,7.082 -3.69,14.8125 -3.69,23.3711 0,8.5902 1.25,16.4492 3.79,23.5582 2.56,7.18 6.13,13.231 10.82,18.332 4.71,5.051 10.44,8.95 17.16,11.68 6.7,2.738 14.06,4.129 22.2,4.129 8.23,0 15.7,-1.391 22.42,-4.168 6.74,-2.762 12.46,-6.762 17.26,-11.871 4.75,-5.121 8.38,-11.262 10.9,-18.332 2.48,-7.059 3.73,-14.859 3.73,-23.379"
         style="fill:#100f0d;fill-opacity:1;fill-rule:nonzero;stroke:none"
         transform="matrix(0.13333333,0,0,-0.13333333,0,646.22667)" />
      <path
         id="path23"
         d="M 3833.53,83.0117 V 59.3906 c 0,-5.7695 -1.3,-10.1015 -3.89,-13 -2.55,-2.8203 -5.88,-4.2812 -9.84,-4.2812 -3.96,0 -7.14,1.4922 -9.68,4.3515 -2.56,2.9102 -3.8,7.1993 -3.8,12.9297 v 78.9884 c 0,12.762 4.47,19.121 13.26,19.121 4.52,0 7.75,-1.508 9.74,-4.461 1.96,-2.98 3.12,-7.391 3.36,-13.207 3.19,5.816 6.52,10.227 9.94,13.207 3.43,2.953 8.01,4.461 13.67,4.461 5.81,0 11.35,-1.508 16.67,-4.461 5.38,-2.98 8.09,-6.957 8.09,-11.859 0,-3.45 -1.15,-6.36 -3.42,-8.578 -2.32,-2.243 -4.75,-3.411 -7.47,-3.411 -0.96,0 -3.35,0.661 -7.17,1.969 -3.84,1.262 -7.21,1.93 -10.16,1.93 -3.95,0 -7.19,-1.059 -9.78,-3.289 -2.48,-2.219 -4.45,-5.41 -5.86,-9.699 -1.36,-4.352 -2.34,-9.442 -2.85,-15.391 -0.53,-5.8907 -0.81,-13.1016 -0.81,-21.6993"
         style="fill:#100f0d;fill-opacity:1;fill-rule:nonzero;stroke:none"
         transform="matrix(0.13333333,0,0,-0.13333333,0,646.22667)" />
      <path
         id="path24"
         d="m 3912.04,100.719 c 0,-11.4768 2.42,-20.1877 7.26,-26.1096 4.77,-5.8477 11.04,-8.8281 18.63,-8.8281 4.49,0 8.82,1.3085 12.81,3.8398 4.03,2.5312 7.3,6.3398 9.83,11.4375 2.56,5.1016 3.78,11.2617 3.78,18.5312 0,11.5702 -2.47,20.5702 -7.34,26.9922 -4.86,6.508 -11.3,9.758 -19.26,9.758 -7.74,0 -13.98,-3.168 -18.65,-9.301 -4.71,-6.187 -7.06,-14.937 -7.06,-26.32 z m 78.84,36 V 54.25 c 0,-9.4609 -1.04,-17.5586 -2.92,-24.3203 -1.93,-6.8203 -5.01,-12.4375 -9.26,-16.8594 -4.25,-4.42967 -9.84,-7.71874 -16.67,-9.87108 C 3955.15,1.08984 3946.58,0 3936.37,0 c -9.39,0 -17.78,1.33203 -25.1,4.05859 -7.39,2.8125 -13.09,6.30081 -17.05,10.67191 -3.99,4.2812 -6,8.75 -6,13.3515 0,3.4688 1.11,6.2774 3.43,8.4493 2.23,2.2382 4.96,3.3203 8.14,3.3203 4,0 7.44,-1.8516 10.48,-5.5 1.47,-1.9414 2.99,-3.8008 4.51,-5.6914 1.56,-1.9102 3.3,-3.5782 5.17,-4.8985 1.92,-1.3906 4.21,-2.3828 6.87,-3.0508 2.59,-0.6523 5.7,-0.9804 9.17,-0.9804 6.98,0 12.51,1.039 16.36,3.0586 3.89,2.0429 6.62,4.9101 8.21,8.5703 1.48,3.6797 2.49,7.6015 2.64,11.789 0.33,4.2735 0.51,10.9414 0.7,20.2813 -4.18,-6.0977 -9.1,-10.7383 -14.52,-13.9297 -5.47,-3.1992 -12.03,-4.75 -19.54,-4.75 -9.18,0 -17.13,2.3789 -23.88,7.2617 -6.85,4.8477 -12.08,11.6172 -15.73,20.3789 -3.6,8.711 -5.47,18.7891 -5.47,30.2384 0,8.57 1.09,16.281 3.36,23.141 2.17,6.832 5.33,12.632 9.52,17.351 4.07,4.711 8.84,8.281 14.22,10.68 5.41,2.351 11.25,3.57 17.75,3.57 7.67,0 14.34,-1.558 19.97,-4.66 5.72,-3.039 10.91,-7.941 15.77,-14.492 v 3.801 c 0,4.96 1.2,8.742 3.5,11.531 2.29,2.66 5.31,4.031 8.94,4.031 5.27,0 8.75,-1.769 10.5,-5.34 1.7,-3.59 2.59,-8.781 2.59,-15.523"
         style="fill:#100f0d;fill-opacity:1;fill-rule:nonzero;stroke:none"
         transform="matrix(0.13333333,0,0,-0.13333333,0,646.22667)" />
      <path
         id="path25"
         d="m 2812.17,413.102 h 40.34 c -2.85,-21.75 -11.76,-38.723 -26.58,-50.942 -13.72,-11.969 -30.33,-17.871 -49.73,-17.871 -26.35,0 -47.37,9.262 -63.07,27.723 -14.88,17.57 -22.3,40.258 -22.3,67.957 0,28.402 7.37,51.101 22.09,68.281 14.7,17.121 35.5,25.73 62.38,25.73 19.99,0 36.91,-5.41 50.63,-16.148 14.54,-11.602 23.44,-27.902 26.58,-48.773 h -40.34 c -3.49,18.222 -14.6,27.273 -33.52,27.273 -31.17,0 -46.79,-18.473 -46.79,-55.422 0,-17.328 4.02,-31.461 12.04,-42.461 8.01,-11.07 19.32,-16.59 33.9,-16.59 21.74,0 33.2,10.43 34.37,31.243 z m -158.79,25.449 c 0,-36.11 11.45,-66.66 34.31,-91.571 22.89,-24.89 50.9,-37.351 84.15,-37.351 33.1,0 61.13,12.461 83.98,37.351 22.92,24.911 34.3,55.461 34.3,91.571 0,36.07 -11.38,66.609 -34.3,91.508 -22.85,24.953 -50.88,37.382 -83.98,37.382 -33.25,0 -61.26,-12.429 -84.15,-37.382 -22.86,-24.899 -34.31,-55.438 -34.31,-91.508 z m -40.98,0 c 0,45.929 15.55,85.14 46.66,117.711 31.15,32.519 68.75,48.789 112.78,48.789 43.92,0 81.46,-16.27 112.64,-48.789 31.14,-32.571 46.73,-71.782 46.73,-117.711 0,-45.981 -15.59,-85.25 -46.73,-117.75 -31.18,-32.551 -68.72,-48.832 -112.64,-48.832 -44.03,0 -81.63,16.281 -112.78,48.832 -31.11,32.5 -46.66,71.769 -46.66,117.75"
         style="fill:#100f0d;fill-opacity:1;fill-rule:nonzero;stroke:none"
         transform="matrix(0.13333333,0,0,-0.13333333,0,646.22667)" />
      <path
         id="path26"
         d="m 2676.9,334.121 23.26,-19.723 170.95,219.532 -23.24,19.691 -170.97,-219.5"
         style="fill:#100f0d;fill-opacity:1;fill-rule:nonzero;stroke:none"
         transform="matrix(0.13333333,0,0,-0.13333333,0,646.22667)" />
      <path
         id="path27"
         d="m 1549.33,2546.11 c 307.6,0 556.98,-152.13 556.98,-339.81 0,-187.67 -249.38,-339.79 -556.98,-339.79 -307.62,0 -556.982,152.12 -556.982,339.79 0,187.68 249.362,339.81 556.982,339.81"
         style="fill:#eca0d5;fill-opacity:1;fill-rule:evenodd;stroke:none"
         transform="matrix(0.13333333,0,0,-0.13333333,0,646.22667)" />
      <path
         id="path28"
         d="m 4161.83,2546.11 c 167.82,0 303.87,-82.99 303.87,-185.38 0,-102.4 -136.05,-185.39 -303.87,-185.39 -167.84,0 -303.88,82.99 -303.88,185.39 0,102.39 136.04,185.38 303.88,185.38"
         style="fill:#eca0d5;fill-opacity:1;fill-rule:evenodd;stroke:none"
         transform="matrix(0.13333333,0,0,-0.13333333,0,646.22667)" />
      <path
         id="path29"
         d="m 2921.8,3071.84 c 307.61,0 556.98,-152.13 556.98,-339.8 0,-187.65 -249.37,-339.78 -556.98,-339.78 -307.61,0 -556.98,152.13 -556.98,339.78 0,187.67 249.37,339.8 556.98,339.8"
         style="fill:#eca0d5;fill-opacity:1;fill-rule:evenodd;stroke:none"
         transform="matrix(0.13333333,0,0,-0.13333333,0,646.22667)" />
      <path
         id="path30"
         d="m 1205.67,2508.49 c 267.58,0 493.88,-97.12 568.67,-230.73 h 26.25 v -96.31 c 0,-180.63 -266.36,-327.04 -594.92,-327.04 -328.576,0 -594.928,146.41 -594.928,327.04 v 96.31 h 26.25 c 74.793,133.61 301.094,230.73 568.678,230.73"
         style="fill:#f6c0e3;fill-opacity:1;fill-rule:evenodd;stroke:none"
         transform="matrix(0.13333333,0,0,-0.13333333,0,646.22667)" />
      <path
         id="path31"
         d="m 1205.67,2604.8 c 328.56,0 594.92,-146.43 594.92,-327.04 0,-180.61 -266.36,-327.04 -594.92,-327.04 -328.576,0 -594.928,146.43 -594.928,327.04 0,180.61 266.352,327.04 594.928,327.04"
         style="fill:#fadbef;fill-opacity:1;fill-rule:evenodd;stroke:none"
         transform="matrix(0.13333333,0,0,-0.13333333,0,646.22667)" />
      <path
         id="path32"
         d="m 1748.98,2324.24 c 2.26,-11.08 3.45,-22.33 3.45,-33.74 0,-165.99 -244.79,-300.55 -546.76,-300.55 -301.975,0 -546.764,134.56 -546.764,300.55 0,11.41 1.192,22.66 3.449,33.74 l -0.046,0.01 58.921,789.94 h 484.44 484.43 l 58.92,-789.94 -0.04,-0.01"
         style="fill:#cc1a95;fill-opacity:1;fill-rule:evenodd;stroke:none"
         transform="matrix(0.13333333,0,0,-0.13333333,0,646.22667)" />
      <path
         id="path33"
         d="m 1205.67,3433.6 c 227.51,0 420.79,-80.56 490.58,-192.63 h 27.85 v -92.35 c 0,-157.39 -232.11,-284.98 -518.43,-284.98 -286.33,0 -518.436,127.59 -518.436,284.98 v 92.35 h 27.844 c 69.793,112.07 263.063,192.63 490.592,192.63"
         style="fill:#f6c0e3;fill-opacity:1;fill-rule:evenodd;stroke:none"
         transform="matrix(0.13333333,0,0,-0.13333333,0,646.22667)" />
      <path
         id="path34"
         d="m 1205.67,3525.95 c 286.32,0 518.43,-127.59 518.43,-284.98 0,-157.4 -232.11,-284.98 -518.43,-284.98 -286.33,0 -518.436,127.58 -518.436,284.98 0,157.39 232.106,284.98 518.436,284.98"
         style="fill:#fadbef;fill-opacity:1;fill-rule:evenodd;stroke:none"
         transform="matrix(0.13333333,0,0,-0.13333333,0,646.22667)" />
      <path
         id="path35"
         d="m 1205.67,3507.27 c 267.54,0 484.43,-119.23 484.43,-266.3 0,-147.07 -216.89,-266.29 -484.43,-266.29 -267.549,0 -484.44,119.22 -484.44,266.29 0,147.07 216.891,266.3 484.44,266.3"
         style="fill:#f6c0e3;fill-opacity:1;fill-rule:evenodd;stroke:none"
         transform="matrix(0.13333333,0,0,-0.13333333,0,646.22667)" />
      <path
         id="path36"
         d="m 1688.93,3222.55 c -17.21,-138.48 -226.98,-247.87 -483.26,-247.87 -256.283,0 -466.057,109.39 -483.268,247.87 17.211,138.49 226.985,247.89 483.268,247.89 256.28,0 466.05,-109.4 483.26,-247.89"
         style="fill:#eca0d5;fill-opacity:1;fill-rule:evenodd;stroke:none"
         transform="matrix(0.13333333,0,0,-0.13333333,0,646.22667)" />
      <path
         id="path37"
         d="m 0,2976.16 435.824,10.18 113.321,-73.65 c 227.703,-148.01 504.505,-200.46 770.565,-146.02 67.3,13.77 136.68,13.77 203.97,0 96.86,1.23 11.98,248.84 -186.27,217.97 -125.11,-19.48 -251.01,30.04 -329.32,129.55 l 385.27,192.28 c 94.96,47.37 204.74,55.44 305.59,22.44 l 25.15,-180.29 76.49,-23.46 c 40.87,-12.53 84.19,10.23 97.04,50.99 36.24,114.9 30.22,238.97 -17,349.8 -40.4,94.87 -125.37,163.4 -226.63,182.8 -86.53,16.57 -169.17,49.24 -243.63,96.32 -116.37,73.55 -258.5,94.15 -390.95,56.66 C 833.816,3809.19 656.465,3731 492.484,3629.42 L 0,3704.05 v -727.89"
         style="fill:#f15030;fill-opacity:1;fill-rule:evenodd;stroke:none"
         transform="matrix(0.13333333,0,0,-0.13333333,0,646.22667)" />
      <path
         id="path38"
         d="m 0,3778.44 168.109,-27.2 c 417.438,-67.53 431.461,-747.5 14.164,-815.89 L 0,2905.48 v 872.96"
         style="fill:#851963;fill-opacity:1;fill-rule:evenodd;stroke:none"
         transform="matrix(0.13333333,0,0,-0.13333333,0,646.22667)" />
      <path
         id="path39"
         d="m 4190.06,3541.48 c -252.9,87.38 -498.53,69.49 -612.84,-32.36 l -24.82,8.57 -31.44,-91.03 c -59,-170.72 144.94,-396.09 455.5,-503.39 310.55,-107.3 610.12,-55.9 669.1,114.82 l 31.46,91.04 -24.81,8.57 c -27.06,150.7 -209.24,316.39 -462.15,403.78"
         style="fill:#f6c0e3;fill-opacity:1;fill-rule:evenodd;stroke:none"
         transform="matrix(0.13333333,0,0,-0.13333333,0,646.22667)" />
      <path
         id="path40"
         d="m 4221.5,3632.51 c -310.53,107.31 -610.1,55.9 -669.1,-114.82 -58.97,-170.72 144.96,-396.08 455.52,-503.38 310.54,-107.31 610.11,-55.9 669.1,114.82 58.99,170.71 -144.96,396.09 -455.52,503.38"
         style="fill:#fadbef;fill-opacity:1;fill-rule:evenodd;stroke:none"
         transform="matrix(0.13333333,0,0,-0.13333333,0,646.22667)" />
      <path
         id="path41"
         d="m 3616.36,3544.76 c -5.74,-9.73 -10.55,-19.97 -14.27,-30.75 -54.21,-156.89 133.21,-364.02 418.63,-462.63 285.4,-98.62 560.74,-51.37 614.93,105.53 3.73,10.76 6.27,21.79 7.77,32.99 l 0.04,-0.01 202.28,765.88 -457.88,158.21 -457.87,158.2 -313.67,-727.39 0.04,-0.03"
         style="fill:#cc1a95;fill-opacity:1;fill-rule:evenodd;stroke:none"
         transform="matrix(0.13333333,0,0,-0.13333333,0,646.22667)" />
      <path
         id="path42"
         d="m 4492.18,4415.89 c -215.05,74.29 -424.05,61.26 -526.6,-21.87 l -26.33,9.09 -30.15,-87.28 c -51.39,-148.77 126.31,-345.17 396.94,-438.67 270.63,-93.51 531.67,-48.71 583.08,100.05 l 30.15,87.29 -26.31,9.09 c -29.37,128.71 -185.73,267.99 -400.78,342.3"
         style="fill:#f6c0e3;fill-opacity:1;fill-rule:evenodd;stroke:none"
         transform="matrix(0.13333333,0,0,-0.13333333,0,646.22667)" />
      <path
         id="path43"
         d="m 4522.33,4503.16 c -270.62,93.51 -531.67,48.72 -583.08,-100.05 -51.4,-148.76 126.33,-345.16 396.95,-438.67 270.63,-93.49 531.67,-48.71 583.07,100.06 51.4,148.76 -126.31,345.16 -396.94,438.66"
         style="fill:#fadbef;fill-opacity:1;fill-rule:evenodd;stroke:none"
         transform="matrix(0.13333333,0,0,-0.13333333,0,646.22667)" />
      <path
         id="path44"
         d="m 4516.23,4485.5 c -252.87,87.38 -496.82,45.51 -544.84,-93.49 -48.02,-139.01 118.03,-322.53 370.91,-409.89 252.88,-87.38 496.82,-45.53 544.85,93.49 48.02,139 -118.04,322.52 -370.92,409.89"
         style="fill:#f6c0e3;fill-opacity:1;fill-rule:evenodd;stroke:none"
         transform="matrix(0.13333333,0,0,-0.13333333,0,646.22667)" />
      <path
         id="path45"
         d="m 3966.48,4374.22 c -28.94,-136.51 133.59,-308.42 375.82,-392.1 242.23,-83.71 476.23,-48.81 537.71,76.47 28.96,136.5 -133.57,308.4 -375.81,392.1 -242.22,83.7 -476.23,48.8 -537.72,-76.47"
         style="fill:#eca0d5;fill-opacity:1;fill-rule:evenodd;stroke:none"
         transform="matrix(0.13333333,0,0,-0.13333333,0,646.22667)" />
      <path
         id="path46"
         d="m 5642.13,3530.36 -568.39,211.37 -131.16,-32.61 c -263.56,-65.54 -542.31,-24.71 -776.01,113.63 -59.1,35 -124.69,57.65 -192.78,66.62 -91.14,32.79 69.94,239.1 247.25,145.18 111.89,-59.27 247.06,-53.57 353.58,14.9 l -301.38,307.56 c -74.27,75.79 -175.4,119.27 -281.49,121.01 l -82.65,-162.19 -79.96,2.8 c -42.71,1.5 -76.23,37.17 -75.08,79.89 3.27,120.43 49.48,235.73 130.31,325.07 69.17,76.47 171.86,113.5 273.91,98.76 87.19,-12.59 175.97,-8.7 261.72,11.47 134,31.52 275.08,4.57 388.02,-74.12 158.27,-110.27 300.38,-242.09 422.18,-391.64 l 484.7,-89.36 v -763.61 c -24.52,1.48 -48.92,6.4 -72.77,15.27"
         style="fill:#f15030;fill-opacity:1;fill-rule:evenodd;stroke:none"
         transform="matrix(0.13333333,0,0,-0.13333333,0,646.22667)" />
      <path
         id="path47"
         d="m 5714.9,4353.2 -138.32,24.07 c -416.61,72.48 -651.92,-565.62 -279.84,-766.53 l 418.16,-225.8 v 968.26"
         style="fill:#851963;fill-opacity:1;fill-rule:evenodd;stroke:none"
         transform="matrix(0.13333333,0,0,-0.13333333,0,646.22667)" />
      <path
         id="path48"
         d="m 2615.08,3010.79 c -267.58,0 -493.88,-97.11 -568.68,-230.72 h -26.24 v -96.32 c 0,-180.61 266.35,-327.02 594.92,-327.02 328.57,0 594.92,146.41 594.92,327.02 v 96.32 h -26.25 c -74.79,133.61 -301.09,230.72 -568.67,230.72"
         style="fill:#f6c0e3;fill-opacity:1;fill-rule:evenodd;stroke:none"
         transform="matrix(0.13333333,0,0,-0.13333333,0,646.22667)" />
      <path
         id="path49"
         d="m 2615.08,3107.11 c -328.57,0 -594.92,-146.42 -594.92,-327.04 0,-180.61 266.35,-327.03 594.92,-327.03 328.57,0 594.92,146.42 594.92,327.03 0,180.62 -266.35,327.04 -594.92,327.04"
         style="fill:#fadbef;fill-opacity:1;fill-rule:evenodd;stroke:none"
         transform="matrix(0.13333333,0,0,-0.13333333,0,646.22667)" />
      <path
         id="path50"
         d="m 2071.77,2826.55 c -2.25,-11.07 -3.44,-22.32 -3.44,-33.73 0,-165.99 244.78,-300.55 546.75,-300.55 301.97,0 546.76,134.56 546.76,300.55 0,11.41 -1.21,22.66 -3.44,33.73 l 0.04,0.01 -58.93,789.94 h -484.43 -484.44 l -58.92,-789.94 0.05,-0.01"
         style="fill:#cc1a95;fill-opacity:1;fill-rule:evenodd;stroke:none"
         transform="matrix(0.13333333,0,0,-0.13333333,0,646.22667)" />
      <path
         id="path51"
         d="m 2615.08,3935.92 c -227.52,0 -420.8,-80.56 -490.59,-192.64 h -27.84 v -92.34 c 0,-157.39 232.1,-284.99 518.43,-284.99 286.33,0 518.44,127.6 518.44,284.99 v 92.34 h -27.86 c -69.78,112.08 -263.05,192.64 -490.58,192.64"
         style="fill:#f6c0e3;fill-opacity:1;fill-rule:evenodd;stroke:none"
         transform="matrix(0.13333333,0,0,-0.13333333,0,646.22667)" />
      <path
         id="path52"
         d="m 2615.08,4028.27 c -286.33,0 -518.43,-127.59 -518.43,-284.99 0,-157.39 232.1,-284.98 518.43,-284.98 286.33,0 518.44,127.59 518.44,284.98 0,157.4 -232.11,284.99 -518.44,284.99"
         style="fill:#fadbef;fill-opacity:1;fill-rule:evenodd;stroke:none"
         transform="matrix(0.13333333,0,0,-0.13333333,0,646.22667)" />
      <path
         id="path53"
         d="m 2615.08,4009.59 c -267.55,0 -484.44,-119.23 -484.44,-266.31 0,-147.06 216.89,-266.29 484.44,-266.29 267.54,0 484.43,119.23 484.43,266.29 0,147.08 -216.89,266.31 -484.43,266.31"
         style="fill:#f6c0e3;fill-opacity:1;fill-rule:evenodd;stroke:none"
         transform="matrix(0.13333333,0,0,-0.13333333,0,646.22667)" />
      <path
         id="path54"
         d="m 2131.82,3724.87 c 17.21,-138.48 226.98,-247.88 483.26,-247.88 256.29,0 466.05,109.4 483.26,247.88 -17.21,138.49 -226.97,247.88 -483.26,247.88 -256.28,0 -466.05,-109.39 -483.26,-247.88"
         style="fill:#eca0d5;fill-opacity:1;fill-rule:evenodd;stroke:none"
         transform="matrix(0.13333333,0,0,-0.13333333,0,646.22667)" />
      <path
         id="path55"
         d="m 3948.73,2769.33 c 164.01,0 296.99,-132.98 296.99,-297 0,-164.03 -132.98,-296.99 -296.99,-296.99 -164.03,0 -297.01,132.96 -297.01,296.99 0,164.02 132.98,297 297.01,297"
         style="fill:#dd3da7;fill-opacity:1;fill-rule:evenodd;stroke:none"
         transform="matrix(0.13333333,0,0,-0.13333333,0,646.22667)" />
    </g>
  </g>
</svg>
