<?xml version="1.0" encoding="UTF-8" standalone="no"?>
<!-- Created with Inkscape (http://www.inkscape.org/) -->

<svg
   version="1.1"
   id="svg1"
   width="766.81335"
   height="802.98669"
   viewBox="0 0 766.81335 802.98669"
   sodipodi:docname="to-do-list.svg"
   inkscape:version="1.4 (e7c3feb100, 2024-10-09)"
   xmlns:inkscape="http://www.inkscape.org/namespaces/inkscape"
   xmlns:sodipodi="http://sodipodi.sourceforge.net/DTD/sodipodi-0.dtd"
   xmlns="http://www.w3.org/2000/svg"
   xmlns:svg="http://www.w3.org/2000/svg">
  <defs
     id="defs1" />
  <sodipodi:namedview
     id="namedview1"
     pagecolor="#505050"
     bordercolor="#ffffff"
     borderopacity="1"
     inkscape:showpageshadow="0"
     inkscape:pageopacity="0"
     inkscape:pagecheckerboard="1"
     inkscape:deskcolor="#d1d1d1"
     inkscape:zoom="1.0149608"
     inkscape:cx="383.26604"
     inkscape:cy="401.49335"
     inkscape:window-width="1920"
     inkscape:window-height="1002"
     inkscape:window-x="0"
     inkscape:window-y="0"
     inkscape:window-maximized="1"
     inkscape:current-layer="g1">
    <inkscape:page
       x="0"
       y="0"
       inkscape:label="1"
       id="page1"
       width="766.81335"
       height="802.98669"
       margin="0"
       bleed="0" />
  </sodipodi:namedview>
  <g
     id="g1"
     inkscape:groupmode="layer"
     inkscape:label="1">
    <g
       id="group-R5">
      <path
         id="path2"
         d="m 1757.93,100.262 c 0,7.519 -1.07,13.996 -3.3,19.308 -2.16,5.379 -5.2,9.532 -9.1,12.461 -3.89,2.84 -8.18,4.297 -12.92,4.297 -7.49,0 -13.83,-3.16 -18.99,-9.289 -5.15,-6.199 -7.73,-15.258 -7.73,-27.2577 0,-11.3204 2.58,-20.1133 7.65,-26.3125 5.16,-6.3086 11.52,-9.4688 19.07,-9.4688 4.51,0 8.73,1.3711 12.6,4.1484 3.79,2.7422 6.89,6.8399 9.23,12.2735 2.35,5.5195 3.49,12.0976 3.49,19.8401 z m -53.31,41.379 v -3.422 c 5.11,6.543 10.4,11.441 15.91,14.48 5.53,3.11 11.81,4.672 18.8,4.672 8.35,0 16.06,-2.269 23.1,-6.781 7.03,-4.512 12.58,-11.059 16.7,-19.758 4.08,-8.691 6.08,-18.922 6.08,-30.781 0,-8.7229 -1.13,-16.8401 -3.5,-24.051 -2.34,-7.3203 -5.6,-13.5 -9.7,-18.4414 -4.12,-4.957 -9.03,-8.7891 -14.6,-11.4297 -5.64,-2.7187 -11.69,-4.0195 -18.08,-4.0195 -7.82,0 -14.34,1.6211 -19.62,4.8789 -5.33,3.25 -10.33,8.0117 -15.09,14.3203 V 18.7188 C 1704.62,6.21875 1700.26,0 1691.56,0 c -5.11,0 -8.52,1.58984 -10.13,4.78906 -1.68,3.24219 -2.5,7.94924 -2.5,14.10154 V 141.449 c 0,5.403 1.08,9.449 3.37,12.11 2.29,2.652 5.37,4.011 9.26,4.011 3.86,0 7,-1.359 9.42,-4.14 2.41,-2.75 3.64,-6.7 3.64,-11.789"
         style="fill:#100f0d;fill-opacity:1;fill-rule:nonzero;stroke:none"
         transform="matrix(0.13333333,0,0,-0.13333333,0,802.98667)" />
      <path
         id="path3"
         d="m 1877.76,58.1602 v 3.5781 c -3.27,-4.2774 -6.69,-7.8672 -10.28,-10.7695 -3.59,-2.961 -7.51,-5.0977 -11.74,-6.5 -4.29,-1.418 -9.13,-2.1407 -14.58,-2.1407 -6.54,0 -12.44,1.4414 -17.67,4.25 -5.22,2.8321 -9.27,6.7735 -12.08,11.7539 -3.45,6.0274 -5.1,14.6993 -5.1,25.9571 v 56.2699 c 0,5.652 1.23,9.921 3.69,12.722 2.47,2.797 5.7,4.219 9.74,4.219 4.14,0 7.44,-1.422 9.98,-4.289 2.53,-2.852 3.77,-7.082 3.77,-12.652 V 95.0781 c 0,-6.5273 0.52,-12.0781 1.56,-16.5078 1.11,-4.4922 3.02,-7.9922 5.8,-10.5625 2.7,-2.4883 6.45,-3.7578 11.17,-3.7578 4.63,0 8.93,1.4414 12.96,4.2695 4.08,2.8086 7.05,6.5196 8.89,11.1016 1.53,4.0195 2.28,12.8203 2.28,26.3989 v 34.539 c 0,5.57 1.26,9.8 3.81,12.652 2.5,2.867 5.75,4.289 9.83,4.289 4.06,0 7.3,-1.422 9.77,-4.219 2.42,-2.801 3.63,-7.07 3.63,-12.722 V 58.332 c 0,-5.4023 -1.12,-9.4804 -3.49,-12.1523 -2.33,-2.7383 -5.37,-4.0508 -9.1,-4.0508 -3.71,0 -6.77,1.4297 -9.21,4.1719 -2.42,2.8476 -3.63,6.7305 -3.63,11.8594"
         style="fill:#100f0d;fill-opacity:1;fill-rule:nonzero;stroke:none"
         transform="matrix(0.13333333,0,0,-0.13333333,0,802.98667)" />
      <path
         id="path4"
         d="m 1956.66,99.1406 c 0,-11.289 2.46,-19.9297 7.38,-26.0312 4.97,-6.0274 11.47,-9.1094 19.52,-9.1094 6.86,0 12.71,3.1289 17.69,9.3203 4.98,6.2188 7.46,15.0586 7.46,26.6485 0,7.5702 -1.04,13.9722 -3.11,19.3592 -2.08,5.442 -5.02,9.621 -8.76,12.543 -3.85,2.938 -8.21,4.457 -13.28,4.457 -5.23,0 -9.77,-1.519 -13.85,-4.457 -4.08,-2.922 -7.24,-7.211 -9.58,-12.801 -2.33,-5.539 -3.47,-12.16 -3.47,-19.9294 z m -1.29,84.3794 v -43.391 c 5.05,5.601 10.3,9.801 15.6,12.82 5.32,2.93 11.93,4.422 19.74,4.422 9.05,0 16.96,-2.269 23.77,-6.691 6.79,-4.551 12.11,-10.989 15.84,-19.481 3.79,-8.48 5.64,-18.558 5.64,-30.199 0,-8.6094 -1.03,-16.4805 -3.1,-23.7109 -2.11,-7.1407 -5.12,-13.3282 -9.12,-18.6602 -4.02,-5.2383 -8.86,-9.2695 -14.51,-12.25 -5.71,-2.8203 -11.97,-4.2695 -18.81,-4.2695 -4.14,0 -8.12,0.5195 -11.82,1.539 -3.68,1.0508 -6.85,2.4102 -9.37,4.1602 -2.63,1.6016 -4.84,3.4219 -6.68,5.1719 -1.81,1.8398 -4.2,4.5195 -7.18,8.1211 V 58.332 c 0,-5.3632 -1.26,-9.4023 -3.72,-12.1523 -2.43,-2.7383 -5.6,-4.0703 -9.35,-4.0703 -3.87,0 -6.92,1.332 -9.25,4.0703 -2.26,2.8086 -3.41,6.8008 -3.41,12.1523 v 123.957 c 0,5.711 1.11,10.07 3.36,13.012 2.21,2.961 5.29,4.418 9.3,4.418 4.17,0 7.4,-1.387 9.63,-4.231 2.29,-2.777 3.44,-6.75 3.44,-11.968"
         style="fill:#100f0d;fill-opacity:1;fill-rule:nonzero;stroke:none"
         transform="matrix(0.13333333,0,0,-0.13333333,0,802.98667)" />
      <path
         id="path5"
         d="M 2055.16,59.3789 V 182.469 c 0,5.711 1.21,9.98 3.6,12.91 2.47,2.883 5.72,4.34 9.84,4.34 4.12,0 7.43,-1.41 9.96,-4.297 2.49,-2.863 3.8,-7.223 3.8,-12.953 V 59.3789 c 0,-5.7578 -1.31,-10.0976 -3.86,-13 -2.54,-2.8203 -5.85,-4.2695 -9.9,-4.2695 -3.99,0 -7.18,1.4922 -9.69,4.4687 -2.5,2.9922 -3.75,7.2305 -3.75,12.8008"
         style="fill:#100f0d;fill-opacity:1;fill-rule:nonzero;stroke:none"
         transform="matrix(0.13333333,0,0,-0.13333333,0,802.98667)" />
      <path
         id="path6"
         d="M 2137.63,141.371 V 59.3789 c 0,-5.7187 -1.33,-10.0195 -3.85,-12.9297 -2.62,-2.8476 -5.92,-4.3398 -9.87,-4.3398 -4,0 -7.25,1.4922 -9.73,4.4414 -2.46,3.0195 -3.75,7.2578 -3.75,12.8281 v 81.1801 c 0,5.57 1.29,9.8 3.75,12.652 2.48,2.867 5.73,4.289 9.73,4.289 3.95,0 7.25,-1.422 9.87,-4.289 2.52,-2.852 3.85,-6.781 3.85,-11.84 z m -13.45,29.348 c -3.79,0 -7,1.211 -9.75,3.699 -2.62,2.41 -4,5.871 -4,10.32 0,4 1.38,7.282 4.15,9.922 2.75,2.61 5.95,3.828 9.6,3.828 3.52,0 6.65,-1.136 9.37,-3.476 2.71,-2.364 4.08,-5.821 4.08,-10.274 0,-4.41 -1.34,-7.82 -4,-10.238 -2.66,-2.461 -5.77,-3.781 -9.45,-3.781"
         style="fill:#100f0d;fill-opacity:1;fill-rule:nonzero;stroke:none"
         transform="matrix(0.13333333,0,0,-0.13333333,0,802.98667)" />
      <path
         id="path7"
         d="m 2263.15,77.25 c 0,-3.5117 -0.99,-7.3086 -3.01,-11.3398 -2.05,-4.0118 -5.14,-7.8204 -9.3,-11.4688 -4.13,-3.6211 -9.36,-6.5508 -15.67,-8.75 -6.31,-2.2812 -13.43,-3.3633 -21.31,-3.3633 -16.82,0 -29.93,5.1328 -39.37,15.3321 -9.41,10.2304 -14.14,23.8984 -14.14,41.1093 0,11.6405 2.15,21.9605 6.45,30.8715 4.31,8.89 10.61,15.859 18.74,20.718 8.15,4.922 17.95,7.36 29.27,7.36 7.07,0 13.53,-1.098 19.42,-3.219 5.87,-2.172 10.85,-4.949 14.93,-8.309 4.08,-3.41 7.2,-7.043 9.37,-10.863 2.18,-3.84 3.23,-7.437 3.23,-10.769 0,-3.348 -1.24,-6.227 -3.63,-8.61 -2.45,-2.379 -5.35,-3.539 -8.81,-3.539 -2.28,0 -4.13,0.649 -5.66,1.86 -1.45,1.179 -3.15,3.082 -5.03,5.839 -3.3,5.25 -6.79,9.231 -10.4,11.922 -3.63,2.61 -8.23,3.949 -13.76,3.949 -8.09,0 -14.56,-3.332 -19.47,-9.871 -4.92,-6.578 -7.35,-15.539 -7.35,-26.8981 0,-5.3125 0.63,-10.2812 1.91,-14.7109 1.25,-4.4883 3.07,-8.2891 5.44,-11.4687 2.41,-3.1524 5.27,-5.5196 8.67,-7.1524 3.39,-1.6601 7.12,-2.4609 11.14,-2.4609 5.48,0 10.13,1.2929 14.02,3.9336 3.89,2.6679 7.33,6.6875 10.31,12.0273 1.67,3.2695 3.45,5.7422 5.39,7.5703 1.94,1.8125 4.31,2.6719 7.09,2.6719 3.31,0 6.07,-1.2813 8.28,-3.9219 2.15,-2.6992 3.25,-5.4687 3.25,-8.4492"
         style="fill:#100f0d;fill-opacity:1;fill-rule:nonzero;stroke:none"
         transform="matrix(0.13333333,0,0,-0.13333333,0,802.98667)" />
      <path
         id="path8"
         d="m 2307.96,99.9688 c 0,-7.6993 1.14,-14.1993 3.42,-19.6407 2.31,-5.4179 5.4,-9.4375 9.39,-12.1797 4.01,-2.7773 8.37,-4.1484 13.04,-4.1484 4.79,0 9.15,1.3281 13.1,3.8906 3.97,2.6094 7.09,6.6289 9.48,11.9883 2.36,5.3516 3.53,12.082 3.53,20.0899 0,7.6012 -1.17,14.0622 -3.53,19.5312 -2.39,5.449 -5.56,9.602 -9.56,12.531 -4.03,2.84 -8.41,4.297 -13.19,4.297 -4.96,0 -9.41,-1.519 -13.34,-4.457 -3.89,-2.922 -6.97,-7.203 -9.12,-12.699 -2.14,-5.531 -3.22,-11.871 -3.22,-19.2032 z m 53.46,-41.6368 v 2.7696 c -3.66,-4.3711 -7.26,-7.9102 -10.86,-10.6133 -3.49,-2.7695 -7.37,-4.8399 -11.52,-6.2695 -4.13,-1.379 -8.67,-2.1094 -13.57,-2.1094 -6.5,0 -12.57,1.4492 -18.09,4.2695 -5.53,2.9805 -10.32,7.0313 -14.38,12.3711 -4.04,5.3398 -7.12,11.6094 -9.23,18.8398 -2.11,7.1797 -3.14,14.9805 -3.14,23.4102 0,17.699 4.16,31.59 12.47,41.512 8.32,9.91 19.22,14.859 32.75,14.859 7.84,0 14.46,-1.43 19.83,-4.293 5.36,-2.758 10.63,-7.078 15.74,-12.949 v 41.922 c 0,5.84 1.09,10.23 3.34,13.199 2.21,3 5.35,4.469 9.49,4.469 4.11,0 7.28,-1.367 9.53,-4.078 2.21,-2.719 3.36,-6.782 3.36,-12.121 V 58.332 c 0,-5.4023 -1.21,-9.4804 -3.61,-12.1523 -2.41,-2.7383 -5.46,-4.0703 -9.28,-4.0703 -3.68,0 -6.79,1.3906 -9.23,4.1914 -2.4,2.8008 -3.6,6.7695 -3.6,12.0312"
         style="fill:#100f0d;fill-opacity:1;fill-rule:nonzero;stroke:none"
         transform="matrix(0.13333333,0,0,-0.13333333,0,802.98667)" />
      <path
         id="path9"
         d="m 2488.95,99.7383 c 0,11.5427 -2.49,20.5817 -7.34,27.0197 -4.89,6.41 -11.46,9.66 -19.68,9.66 -5.35,0 -10,-1.438 -14.06,-4.309 -4.04,-2.918 -7.16,-7.16 -9.35,-12.781 -2.18,-5.547 -3.3,-12.066 -3.3,-19.5897 0,-7.4297 1.12,-13.8789 3.24,-19.4102 2.15,-5.5468 5.25,-9.7968 9.29,-12.75 4,-2.9375 8.77,-4.3789 14.18,-4.3789 8.22,0 14.79,3.211 19.68,9.6914 4.85,6.4492 7.34,15.4492 7.34,26.8477 z m 27.28,0 c 0,-8.4102 -1.28,-16.207 -3.79,-23.3985 -2.52,-7.082 -6.17,-13.2304 -10.93,-18.371 -4.82,-5.1407 -10.52,-8.9805 -17.15,-11.7891 -6.64,-2.7383 -14.17,-4.0703 -22.43,-4.0703 -8.22,0 -15.64,1.332 -22.19,4.1523 -6.59,2.7578 -12.31,6.7188 -17.13,11.8985 -4.79,5.1796 -8.43,11.2304 -10.95,18.2578 -2.49,7.082 -3.72,14.8203 -3.72,23.3711 0,8.6019 1.27,16.4609 3.77,23.5699 2.52,7.172 6.12,13.231 10.85,18.332 4.73,5.039 10.42,8.938 17.18,11.68 6.72,2.738 14.08,4.129 22.19,4.129 8.25,0 15.72,-1.391 22.43,-4.168 6.68,-2.773 12.43,-6.762 17.2,-11.883 4.82,-5.121 8.44,-11.258 10.88,-18.328 2.55,-7.051 3.79,-14.851 3.79,-23.3827"
         style="fill:#100f0d;fill-opacity:1;fill-rule:nonzero;stroke:none"
         transform="matrix(0.13333333,0,0,-0.13333333,0,802.98667)" />
      <path
         id="path10"
         d="m 2631.08,123.191 c -2.04,-4.8 -3,-13.261 -3,-25.4605 v -37.711 c 0,-5.9414 -1.27,-10.4492 -3.9,-13.4414 -2.57,-2.9765 -6.04,-4.4687 -10.28,-4.4687 -4.08,0 -7.41,1.4922 -9.95,4.4687 -2.56,2.9922 -3.81,7.5 -3.81,13.4414 v 45.2695 c 0,7.121 -0.27,12.652 -0.74,16.652 -0.47,3.911 -1.72,7.168 -3.78,9.707 -2.02,2.551 -5.3,3.813 -9.73,3.813 -8.89,0 -14.74,-3.199 -17.59,-9.609 -2.85,-6.352 -4.19,-15.512 -4.19,-27.4614 V 60.0195 c 0,-5.9297 -1.31,-10.3906 -3.84,-13.3398 -2.58,-3.0781 -5.95,-4.5703 -10.08,-4.5703 -4.15,0 -7.56,1.4922 -10.17,4.5703 -2.64,2.9492 -3.89,7.4101 -3.89,13.332 v 81.2073 c 0,5.351 1.13,9.41 3.46,12.172 2.39,2.757 5.49,4.179 9.37,4.179 3.72,0 6.83,-1.281 9.3,-3.89 2.48,-2.59 3.73,-6.16 3.73,-10.75 v -2.7 c 4.7,5.899 9.76,10.239 15.12,12.981 5.37,2.769 11.42,4.16 17.94,4.16 6.82,0 12.67,-1.43 17.59,-4.293 4.94,-2.808 8.97,-7.117 12.14,-12.848 4.59,5.77 9.5,10.129 14.77,12.93 5.25,2.82 11.05,4.211 17.4,4.211 7.49,0 13.88,-1.492 19.22,-4.59 5.4,-3.051 9.41,-7.402 12.08,-13.09 2.34,-5.132 3.47,-13.203 3.47,-24.242 V 60.0195 c 0,-5.9414 -1.29,-10.4492 -3.83,-13.4414 -2.65,-2.9765 -6.03,-4.4687 -10.29,-4.4687 -4.13,0 -7.49,1.4922 -10.1,4.5703 -2.66,2.9492 -3.97,7.4101 -3.97,13.3398 v 47.7615 c 0,6.098 -0.24,10.981 -0.73,14.66 -0.51,3.707 -1.85,6.75 -4.06,9.258 -2.18,2.5 -5.52,3.762 -9.93,3.762 -3.59,0 -7.01,-1.133 -10.18,-3.301 -3.27,-2.238 -5.71,-5.219 -7.55,-8.969 v 0"
         style="fill:#100f0d;fill-opacity:1;fill-rule:nonzero;stroke:none"
         transform="matrix(0.13333333,0,0,-0.13333333,0,802.98667)" />
      <path
         id="path11"
         d="m 2785.1,99.2109 c -4.01,-1.5703 -9.8,-3.1328 -17.4,-4.8593 -7.62,-1.7032 -12.88,-2.9414 -15.81,-3.75 -2.93,-0.8203 -5.72,-2.3633 -8.34,-4.6602 -2.68,-2.3906 -4.02,-5.6133 -4.02,-9.7695 0,-4.3438 1.58,-7.961 4.67,-10.9922 3.14,-3.0508 7.24,-4.5313 12.28,-4.5313 5.38,0 10.37,1.25 14.9,3.711 4.55,2.4414 7.92,5.6601 10,9.5 2.47,4.3203 3.72,11.3711 3.72,21.3008 z m 1.77,-41.1211 c -6.59,-5.3515 -12.94,-9.3203 -19.08,-11.9609 -6.12,-2.7187 -13.05,-4.0195 -20.65,-4.0195 -7.02,0 -13.09,1.4492 -18.41,4.2695 -5.32,2.9024 -9.35,6.8125 -12.22,11.7813 -2.82,4.9101 -4.28,10.1992 -4.28,15.9882 0,7.7618 2.41,14.3516 7.12,19.8399 4.67,5.4531 11.14,9.1327 19.37,11.0237 1.73,0.418 6.04,1.308 12.84,2.769 6.91,1.489 12.71,2.789 17.67,4 4.83,1.188 10.16,2.68 15.87,4.399 -0.35,7.519 -1.78,13.011 -4.32,16.582 -2.6,3.468 -7.93,5.179 -15.92,5.179 -6.94,0 -12.11,-0.98 -15.64,-2.992 -3.46,-1.98 -6.48,-5.027 -8.93,-9.097 -2.52,-4 -4.24,-6.661 -5.28,-7.922 -1.05,-1.321 -3.27,-1.899 -6.6,-1.899 -3.1,0 -5.72,1.008 -7.92,3.028 -2.26,2.062 -3.36,4.64 -3.36,7.882 0,4.969 1.69,9.86 5.06,14.508 3.4,4.742 8.69,8.61 15.85,11.711 7.17,3.051 16.13,4.559 26.82,4.559 11.93,0 21.34,-1.508 28.23,-4.438 6.82,-2.922 11.6,-7.551 14.45,-13.98 2.84,-6.332 4.24,-14.832 4.24,-25.36 0,-6.64 0,-12.332 -0.04,-16.941 -0.06,-4.6914 -0.08,-9.8398 -0.15,-15.5195 0,-5.3086 0.84,-10.9024 2.56,-16.6602 1.65,-5.789 2.49,-9.5312 2.49,-11.1601 0,-2.9219 -1.33,-5.5899 -3.93,-7.9688 -2.57,-2.3828 -5.58,-3.582 -8.88,-3.582 -2.83,0 -5.53,1.332 -8.3,4.0703 -2.71,2.75 -5.6,6.75 -8.66,11.9101"
         style="fill:#100f0d;fill-opacity:1;fill-rule:nonzero;stroke:none"
         transform="matrix(0.13333333,0,0,-0.13333333,0,802.98667)" />
      <path
         id="path12"
         d="M 2866.6,141.371 V 59.3789 c 0,-5.7187 -1.3,-10.0195 -3.85,-12.9297 -2.59,-2.8476 -5.86,-4.3398 -9.85,-4.3398 -3.98,0 -7.26,1.4922 -9.72,4.4414 -2.52,3.0195 -3.77,7.2578 -3.77,12.8281 v 81.1801 c 0,5.57 1.25,9.8 3.77,12.652 2.46,2.867 5.74,4.289 9.72,4.289 3.99,0 7.26,-1.422 9.85,-4.289 2.55,-2.852 3.85,-6.781 3.85,-11.84 z m -13.44,29.348 c -3.75,0 -6.97,1.211 -9.66,3.699 -2.69,2.41 -4.09,5.871 -4.09,10.32 0,4 1.41,7.282 4.17,9.922 2.73,2.61 5.97,3.828 9.58,3.828 3.53,0 6.69,-1.136 9.42,-3.476 2.68,-2.364 4.02,-5.821 4.02,-10.274 0,-4.41 -1.3,-7.82 -3.97,-10.238 -2.66,-2.461 -5.81,-3.781 -9.47,-3.781"
         style="fill:#100f0d;fill-opacity:1;fill-rule:nonzero;stroke:none"
         transform="matrix(0.13333333,0,0,-0.13333333,0,802.98667)" />
      <path
         id="path13"
         d="m 2919.45,141.781 v -3.39 c 4.76,6.57 9.98,11.398 15.62,14.48 5.69,3.07 12.22,4.629 19.63,4.629 7.13,0 13.57,-1.621 19.26,-4.922 5.58,-3.238 9.83,-7.816 12.58,-13.758 1.82,-3.492 2.94,-7.269 3.52,-11.269 0.49,-3.981 0.8,-9.121 0.8,-15.383 V 59.3789 c 0,-5.7187 -1.29,-10.0195 -3.76,-12.9297 -2.5,-2.8476 -5.74,-4.3398 -9.71,-4.3398 -4.04,0 -7.35,1.4922 -9.77,4.4687 -2.56,2.9922 -3.86,7.2305 -3.86,12.8008 v 47.2691 c 0,9.403 -1.21,16.543 -3.69,21.481 -2.54,4.949 -7.52,7.473 -14.96,7.473 -4.84,0 -9.25,-1.532 -13.22,-4.563 -3.98,-2.98 -6.9,-7.141 -8.76,-12.418 -1.33,-4.23 -2.03,-12.09 -2.03,-23.7421 v -35.5 c 0,-5.7578 -1.25,-10.0976 -3.82,-13 -2.57,-2.8203 -5.87,-4.2695 -9.9,-4.2695 -3.89,0 -7.14,1.4922 -9.65,4.4414 -2.57,3.0195 -3.8,7.2578 -3.8,12.8281 v 81.9921 c 0,5.43 1.11,9.43 3.4,12.098 2.21,2.679 5.38,4.031 9.27,4.031 2.35,0 4.54,-0.641 6.43,-1.77 1.99,-1.16 3.48,-2.992 4.65,-5.261 1.12,-2.41 1.77,-5.289 1.77,-8.688"
         style="fill:#100f0d;fill-opacity:1;fill-rule:nonzero;stroke:none"
         transform="matrix(0.13333333,0,0,-0.13333333,0,802.98667)" />
      <path
         id="path14"
         d="m 3034.5,139.828 21.96,-64.4374 23.73,67.2504 c 1.88,5.418 3.7,9.199 5.51,11.468 1.83,2.243 4.51,3.391 8.14,3.391 3.45,0 6.38,-1.211 8.87,-3.691 2.37,-2.399 3.59,-5.161 3.59,-8.43 0,-1.219 -0.24,-2.66 -0.67,-4.277 -0.39,-1.704 -0.88,-3.262 -1.48,-4.762 -0.57,-1.391 -1.15,-3.078 -1.94,-4.942 l -26.09,-67.5699 c -0.73,-1.9297 -1.7,-4.4179 -2.83,-7.4101 -1.18,-2.9688 -2.5,-5.4571 -3.89,-7.6485 -1.46,-2.0898 -3.2,-3.6992 -5.27,-4.8906 -2.13,-1.1797 -4.68,-1.7695 -7.67,-1.7695 -3.84,0 -6.9,0.8984 -9.22,2.7109 -2.29,1.8594 -3.99,3.8399 -5.07,6.0703 -1.08,2.1407 -2.96,6.4883 -5.52,12.9375 l -25.93,66.8399 c -0.59,1.633 -1.24,3.312 -1.88,4.98 -0.6,1.661 -1.09,3.321 -1.55,5.09 -0.42,1.774 -0.67,3.25 -0.67,4.442 0,1.98 0.57,3.898 1.72,5.8 1.13,1.93 2.7,3.5 4.68,4.68 2.02,1.199 4.13,1.84 6.5,1.84 4.47,0 7.59,-1.352 9.3,-4.109 1.7,-2.672 3.6,-7.2 5.68,-13.563"
         style="fill:#100f0d;fill-opacity:1;fill-rule:nonzero;stroke:none"
         transform="matrix(0.13333333,0,0,-0.13333333,0,802.98667)" />
      <path
         id="path15"
         d="m 3145.73,109.012 h 49.29 c -0.63,9.668 -3.12,16.918 -7.5,21.718 -4.37,4.79 -10.1,7.211 -17.22,7.211 -6.73,0 -12.31,-2.453 -16.64,-7.312 -4.34,-4.859 -6.95,-12.09 -7.93,-21.617 z m 53.21,-16.1526 h -53.21 c 0.01,-6.4688 1.31,-12.1406 3.69,-17.0977 2.46,-4.8711 5.67,-8.6015 9.7,-11.1211 4.01,-2.5117 8.46,-3.7226 13.31,-3.7226 3.24,0 6.25,0.3906 8.9,1.1718 2.67,0.8399 5.31,2.0821 7.86,3.75 2.48,1.711 4.78,3.4688 6.93,5.4883 2.1,1.9414 4.93,4.5313 8.27,7.8828 1.41,1.2969 3.42,1.8907 5.97,1.8907 2.84,0 5.07,-0.7735 6.81,-2.4102 1.73,-1.5898 2.54,-3.8203 2.54,-6.7305 0,-2.5703 -0.94,-5.5703 -2.88,-9.0312 -1.91,-3.3789 -4.76,-6.6992 -8.71,-9.8984 -3.9,-3.1211 -8.77,-5.6915 -14.65,-7.8321 -5.85,-2.0703 -12.58,-3.0898 -20.29,-3.0898 -17.43,0 -31.03,5.2304 -40.69,15.5703 -9.69,10.4492 -14.51,24.5117 -14.51,42.2891 0,8.4922 1.23,16.2112 3.56,23.3712 2.4,7.191 5.86,13.332 10.46,18.441 4.59,5.16 10.2,9.117 16.93,11.821 6.73,2.75 14.14,4.117 22.34,4.117 10.55,0 19.7,-2.328 27.29,-7.039 7.63,-4.68 13.32,-10.68 17.09,-18.09 3.79,-7.461 5.69,-14.981 5.69,-22.731 0,-7.078 -1.91,-11.7106 -5.86,-13.8082 -3.96,-2.1524 -9.44,-3.1914 -16.54,-3.1914"
         style="fill:#100f0d;fill-opacity:1;fill-rule:nonzero;stroke:none"
         transform="matrix(0.13333333,0,0,-0.13333333,0,802.98667)" />
      <path
         id="path16"
         d="m 3341.82,77.25 c 0,-3.5117 -1.01,-7.3086 -3.08,-11.3398 -2.03,-4.0118 -5.06,-7.8204 -9.25,-11.4688 -4.13,-3.6211 -9.4,-6.5508 -15.73,-8.75 -6.27,-2.2812 -13.42,-3.3633 -21.25,-3.3633 -16.87,0 -29.97,5.1328 -39.38,15.3321 -9.41,10.2304 -14.16,23.8984 -14.16,41.1093 0,11.6405 2.14,21.9605 6.5,30.8715 4.32,8.89 10.51,15.859 18.71,20.718 8.13,4.922 17.93,7.36 29.31,7.36 7.03,0 13.46,-1.098 19.39,-3.219 5.86,-2.172 10.8,-4.949 14.94,-8.309 4.08,-3.41 7.17,-7.043 9.36,-10.863 2.14,-3.84 3.21,-7.437 3.21,-10.769 0,-3.348 -1.18,-6.227 -3.68,-8.61 -2.39,-2.379 -5.32,-3.539 -8.78,-3.539 -2.26,0 -4.13,0.649 -5.6,1.86 -1.52,1.179 -3.18,3.082 -5.06,5.839 -3.32,5.25 -6.77,9.231 -10.39,11.922 -3.63,2.61 -8.23,3.949 -13.82,3.949 -7.99,0 -14.49,-3.332 -19.4,-9.871 -4.96,-6.578 -7.4,-15.539 -7.4,-26.8981 0,-5.3125 0.67,-10.2812 1.88,-14.7109 1.27,-4.4883 3.12,-8.2891 5.52,-11.4687 2.38,-3.1524 5.3,-5.5196 8.67,-7.1524 3.33,-1.6601 7.07,-2.4609 11.16,-2.4609 5.43,0 10.11,1.2929 14,3.9336 3.87,2.6679 7.33,6.6875 10.32,12.0273 1.67,3.2695 3.43,5.7422 5.38,7.5703 1.91,1.8125 4.23,2.6719 7.07,2.6719 3.28,0 6.08,-1.2813 8.19,-3.9219 2.24,-2.6992 3.37,-5.4687 3.37,-8.4492"
         style="fill:#100f0d;fill-opacity:1;fill-rule:nonzero;stroke:none"
         transform="matrix(0.13333333,0,0,-0.13333333,0,802.98667)" />
      <path
         id="path17"
         d="m 3367.07,155.102 h 2.99 v 17.058 c 0,4.551 0.13,8.168 0.37,10.762 0.22,2.598 0.82,4.777 1.94,6.699 1.03,1.899 2.56,3.488 4.59,4.731 1.98,1.179 4.19,1.757 6.65,1.757 3.44,0 6.58,-1.328 9.35,-4.007 1.82,-1.832 3.03,-4 3.52,-6.582 0.51,-2.598 0.74,-6.34 0.74,-11.102 v -19.316 h 10 c 3.84,0 6.79,-0.961 8.82,-2.872 2.06,-1.91 3.04,-4.32 3.04,-7.308 0,-3.82 -1.43,-6.531 -4.36,-8.024 -2.87,-1.488 -7.01,-2.257 -12.39,-2.257 h -5.11 V 82.3594 c 0,-4.4492 0.16,-7.8711 0.45,-10.2891 0.35,-2.4101 1.19,-4.3515 2.45,-5.789 1.26,-1.5118 3.37,-2.2813 6.32,-2.2813 1.58,0 3.73,0.2695 6.48,0.8984 2.66,0.5704 4.79,0.8829 6.35,0.8829 2.18,0 4.22,-0.961 5.94,-2.711 1.72,-1.8906 2.63,-4.1211 2.63,-6.8398 0,-4.5508 -2.34,-8.0625 -7.16,-10.4922 -4.83,-2.4297 -11.69,-3.6289 -20.61,-3.6289 -8.51,0 -14.97,1.4922 -19.36,4.4687 -4.35,2.9922 -7.27,7.0821 -8.58,12.4102 -1.4,5.2617 -2.07,12.3008 -2.07,21.0898 v 54.5629 h -3.61 c -3.85,0 -6.85,0.961 -8.93,2.918 -2.07,1.929 -3.08,4.359 -3.08,7.363 0,2.988 1.06,5.398 3.2,7.308 2.18,1.911 5.3,2.872 9.43,2.872"
         style="fill:#100f0d;fill-opacity:1;fill-rule:nonzero;stroke:none"
         transform="matrix(0.13333333,0,0,-0.13333333,0,802.98667)" />
      <path
         id="path18"
         d="m 3512.27,99.7383 c 0,11.5427 -2.47,20.5817 -7.32,27.0197 -4.93,6.41 -11.42,9.66 -19.69,9.66 -5.33,0 -10,-1.438 -14.02,-4.309 -4.08,-2.918 -7.2,-7.16 -9.37,-12.781 -2.19,-5.547 -3.32,-12.066 -3.32,-19.5897 0,-7.4297 1.13,-13.8789 3.28,-19.4102 2.14,-5.5468 5.21,-9.7968 9.22,-12.75 4.01,-2.9375 8.75,-4.3789 14.21,-4.3789 8.27,0 14.76,3.211 19.69,9.6914 4.85,6.4492 7.32,15.4492 7.32,26.8477 z m 27.3,0 c 0,-8.4102 -1.25,-16.207 -3.82,-23.3985 -2.5,-7.082 -6.17,-13.2304 -10.93,-18.371 -4.79,-5.1407 -10.51,-8.9805 -17.12,-11.7891 -6.67,-2.7383 -14.1,-4.0703 -22.44,-4.0703 -8.27,0 -15.68,1.332 -22.22,4.1523 -6.57,2.7578 -12.29,6.7188 -17.09,11.8985 -4.8,5.1796 -8.46,11.2304 -10.91,18.2578 -2.48,7.082 -3.7,14.8203 -3.7,23.3711 0,8.6019 1.22,16.4609 3.7,23.5699 2.58,7.172 6.15,13.231 10.86,18.332 4.75,5.039 10.45,8.938 17.14,11.68 6.77,2.738 14.16,4.129 22.22,4.129 8.27,0 15.7,-1.391 22.44,-4.168 6.69,-2.773 12.42,-6.762 17.21,-11.883 4.73,-5.121 8.44,-11.258 10.92,-18.328 2.49,-7.051 3.74,-14.851 3.74,-23.3827"
         style="fill:#100f0d;fill-opacity:1;fill-rule:nonzero;stroke:none"
         transform="matrix(0.13333333,0,0,-0.13333333,0,802.98667)" />
      <path
         id="path19"
         d="M 3588.02,83 V 59.3789 c 0,-5.7578 -1.31,-10.0976 -3.91,-13 -2.6,-2.8203 -5.87,-4.2695 -9.89,-4.2695 -3.87,0 -7.12,1.4922 -9.63,4.3398 -2.52,2.9102 -3.76,7.211 -3.76,12.9297 v 79.0001 c 0,12.762 4.39,19.121 13.23,19.121 4.48,0 7.75,-1.52 9.78,-4.469 1.95,-2.972 3.01,-7.39 3.27,-13.203 3.23,5.813 6.61,10.231 10.04,13.203 3.42,2.949 7.96,4.469 13.64,4.469 5.76,0 11.28,-1.52 16.68,-4.469 5.35,-2.972 8.08,-6.953 8.08,-11.851 0,-3.461 -1.18,-6.371 -3.47,-8.59 -2.27,-2.231 -4.75,-3.399 -7.44,-3.399 -0.98,0 -3.4,0.661 -7.21,1.969 -3.85,1.262 -7.22,1.918 -10.15,1.918 -3.94,0 -7.19,-1.047 -9.69,-3.289 -2.54,-2.219 -4.51,-5.41 -5.9,-9.699 -1.4,-4.34 -2.4,-9.43 -2.9,-15.391 -0.51,-5.8904 -0.77,-13.0896 -0.77,-21.699"
         style="fill:#100f0d;fill-opacity:1;fill-rule:nonzero;stroke:none"
         transform="matrix(0.13333333,0,0,-0.13333333,0,802.98667)" />
      <path
         id="path20"
         d="m 3732.87,79.1914 c 0,-7.8633 -1.83,-14.5508 -5.52,-20.1328 -3.67,-5.6094 -9.05,-9.7773 -16.2,-12.6875 -7.17,-2.8125 -15.82,-4.2617 -26.1,-4.2617 -9.68,0 -18.1,1.539 -25.09,4.6914 -6.97,3.1094 -12.13,6.9883 -15.42,11.6484 -3.36,4.6602 -5.07,9.3594 -5.07,14.0625 0,3.1094 1.1,5.7891 3.27,7.9961 2.11,2.2735 4.82,3.3203 8.03,3.3203 2.87,0 5.1,-0.7383 6.61,-2.1367 1.53,-1.5508 2.95,-3.5508 4.39,-6.1914 2.78,-5.0586 6.1,-8.8398 10.05,-11.3281 3.81,-2.5313 9.12,-3.7735 15.89,-3.7735 5.42,0 9.89,1.293 13.38,3.8204 3.47,2.5195 5.27,5.4101 5.27,8.6718 0,5.0196 -1.84,8.668 -5.43,10.9297 -3.67,2.3399 -9.6,4.5195 -17.9,6.5781 -9.36,2.4297 -17,4.9805 -22.89,7.6211 -5.87,2.6915 -10.63,6.2305 -14.11,10.6015 -3.53,4.301 -5.32,9.711 -5.32,16.078 0,5.731 1.64,11.09 4.91,16.133 3.23,5.059 8.1,9.09 14.42,12.117 6.33,3.031 13.97,4.551 22.99,4.551 7,0 13.33,-0.781 18.97,-2.309 5.6,-1.511 10.34,-3.582 14.04,-6.113 3.75,-2.578 6.64,-5.418 8.58,-8.519 1.99,-3.149 2.96,-6.2 2.96,-9.161 0,-3.269 -1.03,-5.878 -3.17,-8.039 -2.1,-2.007 -5.09,-3.058 -8.88,-3.058 -2.82,0 -5.19,0.82 -7.19,2.519 -1.91,1.641 -4.19,4.121 -6.7,7.399 -2.06,2.781 -4.46,5.019 -7.28,6.679 -2.8,1.633 -6.58,2.5 -11.33,2.5 -4.93,0 -9.06,-1.078 -12.25,-3.289 -3.28,-2.168 -4.92,-4.91 -4.92,-8.16 0,-3 1.21,-5.429 3.56,-7.34 2.43,-1.91 5.63,-3.48 9.7,-4.738 4.08,-1.25 9.64,-2.812 16.75,-4.59 8.46,-2.14 15.32,-4.679 20.68,-7.691 5.34,-2.949 9.39,-6.4806 12.14,-10.5392 2.8,-4.0899 4.18,-8.711 4.18,-13.8594"
         style="fill:#100f0d;fill-opacity:1;fill-rule:nonzero;stroke:none"
         transform="matrix(0.13333333,0,0,-0.13333333,0,802.98667)" />
      <path
         id="path21"
         d="m 3763.75,42.1094 c -4.12,0 -7.69,1.332 -10.63,4.1523 -3.04,2.7578 -4.52,6.668 -4.52,11.6094 0,4.2187 1.4,7.8594 4.23,10.9297 2.86,3.0273 6.41,4.5195 10.6,4.5195 4.16,0 7.74,-1.4922 10.63,-4.5117 3,-2.9688 4.48,-6.6797 4.48,-10.9375 0,-4.9023 -1.48,-8.7695 -4.48,-11.5703 -2.89,-2.8008 -6.34,-4.1914 -10.31,-4.1914"
         style="fill:#100f0d;fill-opacity:1;fill-rule:nonzero;stroke:none"
         transform="matrix(0.13333333,0,0,-0.13333333,0,802.98667)" />
      <path
         id="path22"
         d="m 3884,99.7383 c 0,11.5427 -2.45,20.5817 -7.33,27.0197 -4.88,6.41 -11.42,9.66 -19.65,9.66 -5.32,0 -9.95,-1.438 -14.02,-4.309 -4.06,-2.918 -7.18,-7.16 -9.36,-12.781 -2.17,-5.547 -3.28,-12.066 -3.28,-19.5897 0,-7.4297 1.05,-13.8789 3.19,-19.4102 2.23,-5.5468 5.28,-9.7968 9.31,-12.75 4.01,-2.9375 8.72,-4.3789 14.16,-4.3789 8.23,0 14.77,3.211 19.65,9.6914 4.88,6.4492 7.33,15.4492 7.33,26.8477 z m 27.33,0 c 0,-8.4102 -1.25,-16.207 -3.81,-23.3985 -2.54,-7.082 -6.15,-13.2304 -10.95,-18.371 -4.82,-5.1407 -10.47,-8.9805 -17.13,-11.7891 -6.62,-2.7383 -14.09,-4.0703 -22.42,-4.0703 -8.22,0 -15.62,1.332 -22.2,4.1523 -6.58,2.7578 -12.24,6.7188 -17.05,11.8985 -4.89,5.1796 -8.51,11.2304 -11.03,18.2578 -2.44,7.082 -3.69,14.8203 -3.69,23.3711 0,8.6019 1.25,16.4609 3.79,23.5699 2.56,7.172 6.13,13.231 10.82,18.332 4.71,5.039 10.44,8.938 17.16,11.68 6.7,2.738 14.06,4.129 22.2,4.129 8.23,0 15.7,-1.391 22.42,-4.168 6.74,-2.773 12.46,-6.762 17.26,-11.883 4.75,-5.121 8.38,-11.258 10.9,-18.328 2.48,-7.051 3.73,-14.851 3.73,-23.3827"
         style="fill:#100f0d;fill-opacity:1;fill-rule:nonzero;stroke:none"
         transform="matrix(0.13333333,0,0,-0.13333333,0,802.98667)" />
      <path
         id="path23"
         d="M 3959.77,83 V 59.3789 c 0,-5.7578 -1.3,-10.0976 -3.89,-13 -2.55,-2.8203 -5.88,-4.2695 -9.84,-4.2695 -3.96,0 -7.14,1.4922 -9.68,4.3398 -2.56,2.9102 -3.8,7.211 -3.8,12.9297 v 79.0001 c 0,12.762 4.47,19.121 13.26,19.121 4.52,0 7.75,-1.52 9.74,-4.469 1.96,-2.972 3.12,-7.39 3.36,-13.203 3.19,5.813 6.52,10.231 9.94,13.203 3.43,2.949 8.01,4.469 13.67,4.469 5.81,0 11.35,-1.52 16.67,-4.469 5.38,-2.972 8.09,-6.953 8.09,-11.851 0,-3.461 -1.15,-6.371 -3.42,-8.59 -2.32,-2.231 -4.75,-3.399 -7.47,-3.399 -0.96,0 -3.35,0.661 -7.17,1.969 -3.84,1.262 -7.21,1.918 -10.16,1.918 -3.95,0 -7.19,-1.047 -9.78,-3.289 -2.48,-2.219 -4.45,-5.41 -5.86,-9.699 -1.36,-4.34 -2.34,-9.43 -2.85,-15.391 -0.53,-5.8904 -0.81,-13.0896 -0.81,-21.699"
         style="fill:#100f0d;fill-opacity:1;fill-rule:nonzero;stroke:none"
         transform="matrix(0.13333333,0,0,-0.13333333,0,802.98667)" />
      <path
         id="path24"
         d="m 4038.28,100.719 c 0,-11.4885 2.42,-20.1995 7.26,-26.1096 4.77,-5.8477 11.04,-8.8281 18.63,-8.8281 4.49,0 8.82,1.3085 12.81,3.8398 4.03,2.5195 7.3,6.3281 9.83,11.4297 2.56,5.1094 3.78,11.2578 3.78,18.539 0,11.5702 -2.46,20.5582 -7.34,26.9882 -4.86,6.5 -11.3,9.75 -19.26,9.75 -7.74,0 -13.98,-3.16 -18.65,-9.289 -4.71,-6.187 -7.06,-14.937 -7.06,-26.32 z m 78.84,36 V 54.2383 c 0,-9.457 -1.04,-17.5469 -2.92,-24.3086 -1.93,-6.8281 -5.01,-12.4414 -9.26,-16.8711 -4.25,-4.41797 -9.84,-7.70704 -16.67,-9.85938 C 4081.39,1.08984 4072.82,0 4062.61,0 c -9.39,0 -17.78,1.32031 -25.1,4.05859 -7.39,2.80079 -13.09,6.30081 -17.05,10.66021 -3.99,4.2929 -6,8.75 -6,13.3515 0,3.4805 1.11,6.2813 3.43,8.461 2.23,2.2382 4.96,3.3203 8.14,3.3203 4,0 7.44,-1.8633 10.48,-5.5118 1.47,-1.9296 2.99,-3.8007 4.51,-5.6796 1.56,-1.9219 3.3,-3.5899 5.17,-4.8985 1.92,-1.3906 4.21,-2.3906 6.87,-3.0508 2.59,-0.6523 5.7,-0.9921 9.17,-0.9921 6.98,0 12.51,1.0507 16.36,3.0703 3.89,2.039 6.62,4.9023 8.21,8.5625 1.48,3.6875 2.49,7.5976 2.64,11.789 0.33,4.2813 0.51,10.9492 0.7,20.2774 -4.18,-6.0899 -9.1,-10.7383 -14.51,-13.918 -5.48,-3.1992 -12.04,-4.7617 -19.55,-4.7617 -9.18,0 -17.12,2.3906 -23.88,7.2734 -6.85,4.8399 -12.08,11.6172 -15.73,20.3789 -3.6,8.711 -5.47,18.7891 -5.47,30.2304 0,8.578 1.09,16.277 3.36,23.149 2.17,6.82 5.33,12.621 9.52,17.339 4.07,4.719 8.84,8.282 14.22,10.692 5.41,2.347 11.25,3.57 17.75,3.57 7.67,0 14.34,-1.562 19.97,-4.672 5.72,-3.039 10.91,-7.937 15.77,-14.48 v 3.801 c 0,4.96 1.2,8.742 3.5,11.519 2.29,2.672 5.31,4.031 8.94,4.031 5.27,0 8.75,-1.761 10.5,-5.34 1.7,-3.582 2.59,-8.781 2.59,-15.511"
         style="fill:#100f0d;fill-opacity:1;fill-rule:nonzero;stroke:none"
         transform="matrix(0.13333333,0,0,-0.13333333,0,802.98667)" />
      <path
         id="path25"
         d="m 2938.41,413.09 h 40.34 c -2.85,-21.75 -11.76,-38.719 -26.58,-50.942 -13.72,-11.968 -30.33,-17.867 -49.73,-17.867 -26.35,0 -47.37,9.258 -63.07,27.731 -14.88,17.57 -22.3,40.25 -22.3,67.957 0,28.402 7.37,51.09 22.09,68.281 14.7,17.121 35.5,25.719 62.38,25.719 19.99,0 36.91,-5.41 50.63,-16.141 14.54,-11.598 23.44,-27.898 26.58,-48.769 h -40.34 c -3.49,18.211 -14.6,27.261 -33.52,27.261 -31.17,0 -46.79,-18.461 -46.79,-55.422 0,-17.32 4.02,-31.449 12.04,-42.457 8.01,-11.062 19.32,-16.589 33.9,-16.589 21.74,0 33.2,10.429 34.37,31.238 z m -158.79,25.449 c 0,-36.098 11.45,-66.66 34.31,-91.559 22.89,-24.89 50.9,-37.351 84.15,-37.351 33.1,0 61.13,12.461 83.98,37.351 22.92,24.899 34.3,55.461 34.3,91.559 0,36.082 -11.38,66.609 -34.3,91.52 -22.85,24.953 -50.88,37.382 -83.98,37.382 -33.25,0 -61.26,-12.429 -84.15,-37.382 -22.86,-24.911 -34.31,-55.438 -34.31,-91.52 z m -40.98,0 c 0,45.941 15.55,85.152 46.66,117.723 31.15,32.519 68.75,48.789 112.78,48.789 43.92,0 81.46,-16.27 112.64,-48.789 31.14,-32.571 46.73,-71.782 46.73,-117.723 0,-45.98 -15.59,-85.238 -46.73,-117.738 -31.18,-32.551 -68.72,-48.832 -112.64,-48.832 -44.03,0 -81.63,16.281 -112.78,48.832 -31.11,32.5 -46.66,71.758 -46.66,117.738"
         style="fill:#100f0d;fill-opacity:1;fill-rule:nonzero;stroke:none"
         transform="matrix(0.13333333,0,0,-0.13333333,0,802.98667)" />
      <path
         id="path26"
         d="m 2803.14,334.121 23.26,-19.73 170.95,219.527 -23.24,19.703 -170.97,-219.5"
         style="fill:#100f0d;fill-opacity:1;fill-rule:nonzero;stroke:none"
         transform="matrix(0.13333333,0,0,-0.13333333,0,802.98667)" />
      <path
         id="path27"
         d="m 3023.35,6022.35 c 1506.48,0 2727.74,-1221.25 2727.74,-2727.75 0,-957.24 -493.17,-1799.16 -1239.18,-2285.95 H 1534.78 C 788.762,1495.44 295.586,2337.36 295.586,3294.6 c 0,1506.5 1221.264,2727.75 2727.764,2727.75"
         style="fill:#fde1e7;fill-opacity:1;fill-rule:evenodd;stroke:none"
         transform="matrix(0.13333333,0,0,-0.13333333,0,802.98667)" />
      <path
         id="path28"
         d="m 3664.44,3092.7 270.73,-457.44 484.86,231.98 313.83,-343.16 C 4716,2289.84 4596.06,2075.29 4405.9,1937.34 4215.74,1799.39 3974.56,1751.98 3746.33,1807.71 l -207.11,50.56 -609.09,919.7 734.31,314.73"
         style="fill:#f68194;fill-opacity:1;fill-rule:evenodd;stroke:none"
         transform="matrix(0.13333333,0,0,-0.13333333,0,802.98667)" />
      <path
         id="path29"
         d="m 1919.69,4056.31 -52.23,-226.28 -403.43,-127.28 h -14.45 c -393.89,0 -728.111,-289.05 -784.896,-678.83 L 0,2143.56 21.2109,1931.43 C 44.5859,1697.66 169.527,1485.98 362.875,1352.56 556.23,1219.12 798.461,1177.39 1025.31,1238.46 l 219.21,410.12 -380.079,380.08 341.329,407.48 342.8,-791.09 v -636.4 h 374.77 579.84 374.76 v 636.4 l 342.8,791.09 305.29,331.61 c 103.47,112.41 149.86,248.43 136.65,400.64 -13.23,152.21 -82.39,278.2 -203.69,371.08 -134.33,102.85 -301.96,163.28 -482.05,163.28 h -14.46 l -403.43,127.28 -52.23,226.28 h -587.13"
         style="fill:#f68194;fill-opacity:1;fill-rule:evenodd;stroke:none"
         transform="matrix(0.13333333,0,0,-0.13333333,0,802.98667)" />
      <path
         id="path30"
         d="m 2674.17,1008.65 h 203.77 v 636.4 l 51.15,118.01 -609.4,885.55 -166.37,795.75 -1.99,-83.85 c -7.64,-322.12 -13.98,-644.28 -19.03,-966.46 -3.55,-226.86 82.89,-445.89 240.42,-609.18 201.76,-209.12 309.1,-489.37 301.45,-776.22"
         style="fill:#e75b6e;fill-opacity:1;fill-rule:evenodd;stroke:none"
         transform="matrix(0.13333333,0,0,-0.13333333,0,802.98667)" />
      <path
         id="path31"
         d="m 1131.75,2881.95 54.8,-85.98 c 208.29,-326.75 483.8,-505.91 768.99,-500.08 -303.38,-191.06 -644.23,24.01 -797.27,503.05 z m 2167.78,0 -54.81,-85.98 c -208.28,-326.75 -483.79,-505.91 -768.98,-500.08 303.37,-191.06 644.23,24.01 797.27,503.05 l 26.52,83.01 v 0"
         style="fill:#e75b6e;fill-opacity:1;fill-rule:evenodd;stroke:none"
         transform="matrix(0.13333333,0,0,-0.13333333,0,802.98667)" />
      <path
         id="path32"
         d="m 4710.12,2995.62 -13.24,39.68 c -14.34,43.01 -45.3,78.47 -85.97,98.47 -50.24,24.7 -87.63,69.58 -102.86,123.45 -4.72,16.69 -0.52,34.63 11.13,47.48 11.66,12.85 29.11,18.79 46.18,15.72 38.52,-6.93 74.5,-23.92 104.35,-49.24 11.39,-9.66 21.73,-20.5 30.86,-32.34 35.13,-45.53 89.44,-72.15 146.96,-72.01 l -2.94,-121.98 -134.47,-49.23"
         style="fill:#612a2e;fill-opacity:1;fill-rule:evenodd;stroke:none"
         transform="matrix(0.13333333,0,0,-0.13333333,0,802.98667)" />
      <path
         id="path33"
         d="m 4116.91,3179.15 h 1233.93 c 44.72,0 81.3,-36.59 81.3,-81.32 V 1269.95 c 0,-44.74 -36.58,-81.32 -81.3,-81.32 H 4116.91 c -44.72,0 -81.31,36.58 -81.31,81.32 v 1827.88 c 0,44.73 36.59,81.32 81.31,81.32"
         style="fill:#2e2d2d;fill-opacity:1;fill-rule:evenodd;stroke:none"
         transform="matrix(0.13333333,0,0,-0.13333333,0,802.98667)" />
      <path
         id="path34"
         d="M 4168.19,1397.22 H 5299.56 V 3104.9 H 4168.19 V 1397.22"
         style="fill:#ffffff;fill-opacity:1;fill-rule:evenodd;stroke:none"
         transform="matrix(0.13333333,0,0,-0.13333333,0,802.98667)" />
      <path
         id="path35"
         d="m 4483.27,3230.42 h 501.19 c 18.95,0 34.46,-15.52 34.46,-34.47 v -125.53 c 0,-18.95 -15.51,-34.47 -34.46,-34.47 h -501.19 c -18.94,0 -34.45,15.52 -34.45,34.47 v 125.53 c 0,18.95 15.51,34.47 34.45,34.47"
         style="fill:#f68194;fill-opacity:1;fill-rule:evenodd;stroke:none"
         transform="matrix(0.13333333,0,0,-0.13333333,0,802.98667)" />
      <path
         id="path36"
         d="m 4300.75,2908.67 h 143.2 c 14.1,0 25.63,-11.53 25.63,-25.63 v -143.19 c 0,-14.09 -11.53,-25.63 -25.63,-25.63 h -143.2 c -14.1,0 -25.62,11.54 -25.62,25.63 v 143.19 c 0,14.1 11.52,25.63 25.62,25.63"
         style="fill:#f68194;fill-opacity:1;fill-rule:evenodd;stroke:none"
         transform="matrix(0.13333333,0,0,-0.13333333,0,802.98667)" />
      <path
         id="path37"
         d="m 4267.7,2910.06 91.95,-82.31 101.23,168.73 57.16,-34.19 -142.72,-237.86 -152,136.03 44.38,49.6"
         style="fill:#e61d2b;fill-opacity:1;fill-rule:evenodd;stroke:none"
         transform="matrix(0.13333333,0,0,-0.13333333,0,802.98667)" />
      <path
         id="path38"
         d="m 4604.45,2908.67 h 577.4 c 10.03,0 18.22,-8.2 18.22,-18.21 v -47.63 c 0,-10.02 -8.19,-18.22 -18.22,-18.22 h -577.4 c -10.03,0 -18.22,8.2 -18.22,18.22 v 47.63 c 0,10.01 8.19,18.21 18.22,18.21"
         style="fill:#f68194;fill-opacity:1;fill-rule:evenodd;stroke:none"
         transform="matrix(0.13333333,0,0,-0.13333333,0,802.98667)" />
      <path
         id="path39"
         d="m 4604.45,2798.3 h 458.08 c 10.04,0 18.23,-8.21 18.23,-18.24 v -47.61 c 0,-10.03 -8.19,-18.23 -18.23,-18.23 h -458.08 c -10.03,0 -18.22,8.2 -18.22,18.23 v 47.61 c 0,10.03 8.19,18.24 18.22,18.24"
         style="fill:#f68194;fill-opacity:1;fill-rule:evenodd;stroke:none"
         transform="matrix(0.13333333,0,0,-0.13333333,0,802.98667)" />
      <path
         id="path40"
         d="m 4300.75,2516.24 c 47.73,0 95.45,0 143.19,0 14.11,0 25.64,-11.54 25.64,-25.65 0,-47.73 0,-95.46 0,-143.18 0,-14.11 -11.53,-25.65 -25.64,-25.65 -47.74,0 -95.46,0 -143.19,0 -14.1,0 -25.62,11.54 -25.62,25.65 0,47.72 0,95.45 0,143.18 0,14.11 11.52,25.65 25.62,25.65"
         style="fill:#f68194;fill-opacity:1;fill-rule:evenodd;stroke:none"
         transform="matrix(0.13333333,0,0,-0.13333333,0,802.98667)" />
      <path
         id="path41"
         d="m 4267.7,2517.59 c 30.64,-27.42 61.28,-54.86 91.95,-82.29 33.74,56.24 67.48,112.5 101.23,168.74 19.04,-11.41 38.1,-22.8 57.16,-34.19 -47.57,-79.29 -95.16,-158.58 -142.72,-237.88 -50.67,45.34 -101.35,90.69 -152,136.05 14.79,16.52 29.58,33.06 44.38,49.57"
         style="fill:#e61d2b;fill-opacity:1;fill-rule:evenodd;stroke:none"
         transform="matrix(0.13333333,0,0,-0.13333333,0,802.98667)" />
      <path
         id="path42"
         d="m 4604.45,2516.24 c 192.47,0 384.94,0 577.4,0 10.03,0 18.22,-8.22 18.22,-18.24 0,-15.86 0,-31.73 0,-47.6 0,-10.04 -8.19,-18.24 -18.22,-18.24 -192.46,0 -384.93,0 -577.4,0 -10.03,0 -18.22,8.2 -18.22,18.24 0,15.87 0,31.74 0,47.6 0,10.02 8.19,18.24 18.22,18.24"
         style="fill:#f68194;fill-opacity:1;fill-rule:evenodd;stroke:none"
         transform="matrix(0.13333333,0,0,-0.13333333,0,802.98667)" />
      <path
         id="path43"
         d="m 4604.45,2405.84 c 152.7,0 305.39,0 458.08,0 10.04,0 18.23,-8.2 18.23,-18.24 0,-15.87 0,-31.73 0,-47.6 0,-10.02 -8.19,-18.24 -18.23,-18.24 -152.69,0 -305.38,0 -458.08,0 -10.03,0 -18.22,8.22 -18.22,18.24 0,15.87 0,31.73 0,47.6 0,10.04 8.19,18.24 18.22,18.24"
         style="fill:#f68194;fill-opacity:1;fill-rule:evenodd;stroke:none"
         transform="matrix(0.13333333,0,0,-0.13333333,0,802.98667)" />
      <path
         id="path44"
         d="m 4300.75,2123.78 c 47.73,0 95.45,0 143.19,0 14.11,0 25.64,-11.53 25.64,-25.63 0,-47.72 0,-95.47 0,-143.19 0,-14.1 -11.53,-25.63 -25.64,-25.63 -47.74,0 -95.46,0 -143.19,0 -14.1,0 -25.62,11.53 -25.62,25.63 0,47.72 0,95.47 0,143.19 0,14.1 11.52,25.63 25.62,25.63"
         style="fill:#f68194;fill-opacity:1;fill-rule:evenodd;stroke:none"
         transform="matrix(0.13333333,0,0,-0.13333333,0,802.98667)" />
      <path
         id="path45"
         d="m 4267.7,2125.14 c 30.64,-27.42 61.28,-54.85 91.95,-82.28 33.74,56.24 67.48,112.49 101.23,168.72 19.04,-11.4 38.1,-22.78 57.16,-34.18 -47.57,-79.3 -95.16,-158.59 -142.72,-237.86 -50.67,45.33 -101.35,90.67 -152,136.02 14.79,16.54 29.58,33.07 44.38,49.58"
         style="fill:#e61d2b;fill-opacity:1;fill-rule:evenodd;stroke:none"
         transform="matrix(0.13333333,0,0,-0.13333333,0,802.98667)" />
      <path
         id="path46"
         d="m 4604.45,2123.78 c 192.47,0 384.94,0 577.4,0 10.03,0 18.22,-8.21 18.22,-18.23 0,-15.87 0,-31.74 0,-47.6 0,-10.04 -8.19,-18.24 -18.22,-18.24 -192.46,0 -384.93,0 -577.4,0 -10.03,0 -18.22,8.2 -18.22,18.24 0,15.86 0,31.73 0,47.6 0,10.02 8.19,18.23 18.22,18.23"
         style="fill:#f68194;fill-opacity:1;fill-rule:evenodd;stroke:none"
         transform="matrix(0.13333333,0,0,-0.13333333,0,802.98667)" />
      <path
         id="path47"
         d="m 4604.45,2013.39 c 152.7,0 305.39,0 458.08,0 10.04,0 18.23,-8.19 18.23,-18.23 0,-15.87 0,-31.74 0,-47.6 0,-10.02 -8.19,-18.23 -18.23,-18.23 -152.69,0 -305.38,0 -458.08,0 -10.03,0 -18.22,8.21 -18.22,18.23 0,15.86 0,31.73 0,47.6 0,10.04 8.19,18.23 18.22,18.23"
         style="fill:#f68194;fill-opacity:1;fill-rule:evenodd;stroke:none"
         transform="matrix(0.13333333,0,0,-0.13333333,0,802.98667)" />
      <path
         id="path48"
         d="m 4300.75,1731.32 h 143.2 c 14.1,0 25.63,-11.52 25.63,-25.62 v -143.19 c 0,-14.11 -11.53,-25.64 -25.63,-25.64 h -143.2 c -14.1,0 -25.62,11.53 -25.62,25.64 v 143.19 c 0,14.1 11.52,25.62 25.62,25.62"
         style="fill:#f68194;fill-opacity:1;fill-rule:evenodd;stroke:none"
         transform="matrix(0.13333333,0,0,-0.13333333,0,802.98667)" />
      <path
         id="path49"
         d="m 4267.7,1732.71 91.95,-82.3 101.23,168.74 57.16,-34.2 -142.72,-237.86 -152,136.02 44.38,49.6"
         style="fill:#e61d2b;fill-opacity:1;fill-rule:evenodd;stroke:none"
         transform="matrix(0.13333333,0,0,-0.13333333,0,802.98667)" />
      <path
         id="path50"
         d="m 4604.45,1731.32 h 577.4 c 10.03,0 18.22,-8.19 18.22,-18.21 v -47.63 c 0,-10.02 -8.19,-18.22 -18.22,-18.22 h -577.4 c -10.03,0 -18.22,8.2 -18.22,18.22 v 47.63 c 0,10.02 8.19,18.21 18.22,18.21"
         style="fill:#f68194;fill-opacity:1;fill-rule:evenodd;stroke:none"
         transform="matrix(0.13333333,0,0,-0.13333333,0,802.98667)" />
      <path
         id="path51"
         d="m 4604.45,1620.94 h 458.08 c 10.04,0 18.23,-8.19 18.23,-18.21 v -47.63 c 0,-10.02 -8.19,-18.23 -18.23,-18.23 h -458.08 c -10.03,0 -18.22,8.21 -18.22,18.23 v 47.63 c 0,10.02 8.19,18.21 18.22,18.21"
         style="fill:#f68194;fill-opacity:1;fill-rule:evenodd;stroke:none"
         transform="matrix(0.13333333,0,0,-0.13333333,0,802.98667)" />
      <path
         id="path52"
         d="m 2262.04,3674.78 72.4,49.09 -55.35,175.1 h -131.66 l -64.62,-163.83 73.76,-60.36 c 0,-619.33 -96.92,-1258.31 340.43,-1764.38 241.91,-279.94 429.9,-602.23 554.51,-950.599 l 640.94,-223.242 -43.2,662.551 -93.62,144.03 c -170.24,261.88 -393.48,485.12 -655.35,655.34 -483.74,314.45 -653.45,907.1 -638.24,1476.3"
         style="fill:#e61d2b;fill-opacity:1;fill-rule:evenodd;stroke:none"
         transform="matrix(0.13333333,0,0,-0.13333333,0,802.98667)" />
      <path
         id="path53"
         d="m 907.359,1297.51 -61.523,148.43 c -38.301,92.41 -22.961,239.09 40,316.84 65.57,80.98 81.152,136.69 56.273,237.88 -6.964,28.32 4.043,58.02 27.77,74.95 23.726,16.95 55.381,17.74 79.911,1.96 71.86,-46.2 108.39,-131.45 92.29,-215.35 -8.38,-43.65 -5.21,-36.58 -7.06,-80.98 h 372.24 c 147.51,0 158.92,-190.9 30.76,-225.64 l -33.84,-239.64 c -8.26,-56.3 -54.07,-99.56 -110.75,-104.6 -116.79,-10.36 -234.36,-8.31 -350.71,6.16 -54.247,6.74 -114.99,30.85 -135.361,79.99"
         style="fill:#95434d;fill-opacity:1;fill-rule:evenodd;stroke:none"
         transform="matrix(0.13333333,0,0,-0.13333333,0,802.98667)" />
      <path
         id="path54"
         d="m 4729.39,3393.9 -28.68,-56.29 c -34.07,-66.88 -58.04,-138.46 -71.14,-212.38 -2.82,-15.91 2.3,-32.2 13.73,-43.61 11.43,-11.42 27.7,-16.56 43.61,-13.73 18.12,3.21 34.99,11.28 48.85,23.36 l -10.61,-47.79 c -5.21,-23.37 -5.92,-47.51 -2.13,-71.15 2.58,-16.04 12.09,-30.14 26,-38.52 13.92,-8.4 30.82,-10.23 46.2,-5.02 40.5,13.72 72.32,45.51 86.03,86 l 8.5,-15.92 c 7.37,-13.78 20.1,-23.89 35.21,-27.92 15.1,-4.02 31.19,-1.6 44.43,6.68 59.57,37.28 105.98,92.23 132.75,157.18 l -11.68,-48.86 c -5.67,-23.71 -11.34,-47.44 -16.99,-71.16 -3.06,-12.83 1.94,-26.22 12.66,-33.9 10.72,-7.7 25.02,-8.14 36.18,-1.13 65.4,41.06 110.51,107.74 124.25,183.72 4.97,27.46 -4.66,55.53 -25.45,74.16 -20.78,18.62 -49.74,25.13 -76.5,17.18 -11.59,45.36 -55.32,85.48 -133.8,52.02 -29.75,30.84 -98.38,55.74 -146.55,38.24 -11.15,106.15 -105.34,106.79 -134.87,48.84"
         style="fill:#95434d;fill-opacity:1;fill-rule:evenodd;stroke:none"
         transform="matrix(0.13333333,0,0,-0.13333333,0,802.98667)" />
      <path
         id="path55"
         d="M 825.039,2067 C 607.602,2220.34 397.73,2236.05 111.73,2120.05 411.25,2366.96 680.859,2316.65 825.039,2067"
         style="fill:#e75b6e;fill-opacity:1;fill-rule:evenodd;stroke:none"
         transform="matrix(0.13333333,0,0,-0.13333333,0,802.98667)" />
      <path
         id="path56"
         d="m 3886.79,2604.04 c -213.29,-159.08 -293.39,-353.69 -271.93,-661.58 -141.69,361.39 -10.14,602.04 271.93,661.58"
         style="fill:#e75b6e;fill-opacity:1;fill-rule:evenodd;stroke:none"
         transform="matrix(0.13333333,0,0,-0.13333333,0,802.98667)" />
      <path
         id="path57"
         d="m 2212.11,1622.68 c 21.15,0 38.29,-17.15 38.29,-38.3 0,-21.14 -17.14,-38.28 -38.29,-38.28 -21.14,0 -38.29,17.14 -38.29,38.28 0,21.15 17.15,38.3 38.29,38.3 z m 0,-417.81 c 21.15,0 38.29,-17.14 38.29,-38.28 0,-21.14 -17.14,-38.29 -38.29,-38.29 -21.14,0 -38.29,17.15 -38.29,38.29 0,21.14 17.15,38.28 38.29,38.28 v 0"
         style="fill:#e75b6e;fill-opacity:1;fill-rule:evenodd;stroke:none"
         transform="matrix(0.13333333,0,0,-0.13333333,0,802.98667)" />
      <path
         id="path58"
         d="m 1969.73,4335.92 h 487.04 v -349.14 l -243.52,-72.48 -243.52,72.48 v 349.14"
         style="fill:#612a2e;fill-opacity:1;fill-rule:evenodd;stroke:none"
         transform="matrix(0.13333333,0,0,-0.13333333,0,802.98667)" />
      <path
         id="path59"
         d="m 2722.46,4869.93 c -42.74,9.95 -89.7,-57.01 -104.89,-149.54 -15.2,-92.54 7.13,-175.62 49.86,-185.56 42.74,-9.94 89.69,57.02 104.89,149.55 15.19,92.53 -7.13,175.6 -49.86,185.55 z m -1018.41,0 c 42.73,9.95 89.7,-57.01 104.89,-149.54 15.19,-92.54 -7.13,-175.62 -49.87,-185.56 -42.73,-9.94 -89.69,57.02 -104.89,149.55 -15.19,92.53 7.14,175.6 49.87,185.55 v 0"
         style="fill:#612a2e;fill-opacity:1;fill-rule:evenodd;stroke:none"
         transform="matrix(0.13333333,0,0,-0.13333333,0,802.98667)" />
      <path
         id="path60"
         d="m 1735.8,5044.31 v -569.03 c 0,-91.33 32.6,-179.67 91.93,-249.11 53.48,-62.58 115.35,-117.47 183.86,-163.1 59.67,-39.73 129.99,-60.41 201.66,-59.31 71.68,-1.1 142,19.58 201.66,59.31 68.52,45.63 130.39,100.52 183.86,163.1 59.34,69.44 91.93,157.78 91.93,249.11 v 569.03 c 0,34.76 -13.57,64.68 -39.72,87.57 -26.17,22.89 -57.63,32.38 -92.08,27.78 l -61.36,-8.22 c -198.18,-26.52 -370.39,-26.52 -568.58,0 l -61.36,8.22 c -34.45,4.6 -65.91,-4.89 -92.07,-27.78 -26.15,-22.89 -39.73,-52.81 -39.73,-87.57"
         style="fill:#95434d;fill-opacity:1;fill-rule:evenodd;stroke:none"
         transform="matrix(0.13333333,0,0,-0.13333333,0,802.98667)" />
      <path
         id="path61"
         d="m 2690.7,4759.79 75.39,268.71 c 42.47,151.34 -41.68,309.3 -190.98,358.49 -125.21,197.37 -598.51,197.37 -723.72,0 -149.29,-49.19 -233.44,-207.15 -190.98,-358.49 l 75.39,-268.71 65.33,311.43 c 177.62,-121.4 646.62,-121.4 824.24,0 l 65.33,-311.43"
         style="fill:#2e2d2d;fill-opacity:1;fill-rule:evenodd;stroke:none"
         transform="matrix(0.13333333,0,0,-0.13333333,0,802.98667)" />
      <path
         id="path62"
         d="m 2315.79,4788.11 v 82.8 l 172.92,-15.46 c 37.91,-3.39 73.21,-20.75 99.04,-48.71 l -38.96,-46.24 c -12.94,9.04 -28.1,14.36 -43.84,15.38 l -189.16,12.23"
         style="fill:#2e2d2d;fill-opacity:1;fill-rule:evenodd;stroke:none"
         transform="matrix(0.13333333,0,0,-0.13333333,0,802.98667)" />
      <path
         id="path63"
         d="m 2405.48,4557.51 c 38.23,0 69.41,37.74 69.41,84.01 0,46.29 -31.18,84.04 -69.41,84.04 -38.24,0 -69.42,-37.75 -69.42,-84.04 0,-46.27 31.18,-84.01 69.42,-84.01"
         style="fill:#2e2d2d;fill-opacity:1;fill-rule:evenodd;stroke:none"
         transform="matrix(0.13333333,0,0,-0.13333333,0,802.98667)" />
      <path
         id="path64"
         d="m 2110.72,4788.11 v 82.8 l -172.92,-15.46 c -37.92,-3.39 -73.22,-20.75 -99.05,-48.71 l 38.96,-46.24 c 12.94,9.04 28.1,14.36 43.85,15.38 l 189.16,12.23"
         style="fill:#2e2d2d;fill-opacity:1;fill-rule:evenodd;stroke:none"
         transform="matrix(0.13333333,0,0,-0.13333333,0,802.98667)" />
      <path
         id="path65"
         d="m 2021.04,4557.51 c 38.23,0 69.41,37.74 69.41,84.01 0,46.29 -31.18,84.04 -69.41,84.04 -38.24,0 -69.42,-37.75 -69.42,-84.04 0,-46.27 31.18,-84.01 69.42,-84.01"
         style="fill:#2e2d2d;fill-opacity:1;fill-rule:evenodd;stroke:none"
         transform="matrix(0.13333333,0,0,-0.13333333,0,802.98667)" />
      <path
         id="path66"
         d="m 2052.67,4294.87 c 5.43,-16.42 14.01,-31.75 25.42,-45.1 18.75,-21.94 40.44,-41.18 64.46,-57.18 20.92,-13.93 45.58,-21.19 70.7,-20.8 25.13,-0.39 49.79,6.87 70.71,20.8 24.02,16 45.71,35.24 64.46,57.18 11.4,13.35 19.99,28.68 25.42,45.1 h -321.17"
         style="fill:#ffffff;fill-opacity:1;fill-rule:evenodd;stroke:none"
         transform="matrix(0.13333333,0,0,-0.13333333,0,802.98667)" />
      <path
         id="path67"
         d="m 2213.78,4424.59 c 50.02,0 90.57,23.39 90.57,-0.6 0,-23.99 -40.55,-86.28 -90.57,-86.28 -50.02,0 -90.56,62.29 -90.56,86.28 0,23.99 40.54,0.6 90.56,0.6"
         style="fill:#612a2e;fill-opacity:1;fill-rule:evenodd;stroke:none"
         transform="matrix(0.13333333,0,0,-0.13333333,0,802.98667)" />
      <path
         id="path68"
         d="m 4179.92,4398.93 c 354.32,0 643.29,288.98 643.29,643.29 0,354.32 -288.97,643.3 -643.29,643.3 -354.31,0 -643.3,-288.98 -643.3,-643.3 0,-354.31 288.99,-643.29 643.3,-643.29"
         style="fill:#f8c7cf;fill-opacity:1;fill-rule:evenodd;stroke:none"
         transform="matrix(0.13333333,0,0,-0.13333333,0,802.98667)" />
      <path
         id="path69"
         d="m 4075.68,4531.49 c 335.37,0 608.9,273.52 608.9,608.89 0,335.36 -273.53,608.89 -608.9,608.89 -335.35,0 -608.88,-273.53 -608.88,-608.89 0,-335.37 273.53,-608.89 608.88,-608.89"
         style="fill:#f1485f;fill-opacity:1;fill-rule:evenodd;stroke:none"
         transform="matrix(0.13333333,0,0,-0.13333333,0,802.98667)" />
      <path
         id="path70"
         d="m 4075.68,4689.03 c 248.6,0 451.35,202.76 451.35,451.35 0,248.58 -202.75,451.33 -451.35,451.33 -248.57,0 -451.32,-202.75 -451.32,-451.33 0,-248.59 202.75,-451.35 451.32,-451.35"
         style="fill:#ffffff;fill-opacity:1;fill-rule:evenodd;stroke:none"
         transform="matrix(0.13333333,0,0,-0.13333333,0,802.98667)" />
      <path
         id="path71"
         d="m 4065.55,5161.57 -280.65,-190.38 298.7,152.63 z"
         style="fill:#f1485f;fill-opacity:1;fill-rule:evenodd;stroke:none"
         transform="matrix(0.13333333,0,0,-0.13333333,0,802.98667)" />
      <path
         id="path72"
         d="m 4029.17,5522.77 c 0,25.7 20.83,46.54 46.53,46.54 25.69,0 46.52,-20.84 46.52,-46.54 v -358.01 l 151.97,-104.21 c 21.17,-14.46 26.64,-43.33 12.18,-64.51 -14.45,-21.19 -43.34,-26.63 -64.52,-12.18 l -169.87,116.48 c -13.66,8.11 -22.81,23 -22.81,40.04 v 382.39"
         style="fill:#ab2329;fill-opacity:1;fill-rule:evenodd;stroke:none"
         transform="matrix(0.13333333,0,0,-0.13333333,0,802.98667)" />
    </g>
  </g>
</svg>
