<?xml version="1.0" encoding="UTF-8" standalone="no"?>
<!-- Created with Inkscape (http://www.inkscape.org/) -->

<svg
   version="1.1"
   id="svg1"
   width="510.05334"
   height="789.74664"
   viewBox="0 0 510.05334 789.74664"
   sodipodi:docname="tools-in-hand.svg"
   inkscape:version="1.4.2 (ebf0e940d0, 2025-05-08)"
   xmlns:inkscape="http://www.inkscape.org/namespaces/inkscape"
   xmlns:sodipodi="http://sodipodi.sourceforge.net/DTD/sodipodi-0.dtd"
   xmlns="http://www.w3.org/2000/svg"
   xmlns:svg="http://www.w3.org/2000/svg">
  <defs
     id="defs1" />
  <sodipodi:namedview
     id="namedview1"
     pagecolor="#505050"
     bordercolor="#ffffff"
     borderopacity="1"
     inkscape:showpageshadow="0"
     inkscape:pageopacity="0"
     inkscape:pagecheckerboard="1"
     inkscape:deskcolor="#d1d1d1"
     inkscape:zoom="1.0319765"
     inkscape:cx="254.85076"
     inkscape:cy="394.87332"
     inkscape:window-width="1920"
     inkscape:window-height="1002"
     inkscape:window-x="0"
     inkscape:window-y="0"
     inkscape:window-maximized="1"
     inkscape:current-layer="g1">
    <inkscape:page
       x="0"
       y="0"
       inkscape:label="1"
       id="page1"
       width="510.05334"
       height="789.74664"
       margin="0"
       bleed="0" />
  </sodipodi:namedview>
  <g
     id="g1"
     inkscape:groupmode="layer"
     inkscape:label="1">
    <g
       id="group-R5">
      <path
         id="path2"
         d="m 746.648,97.6406 c 0,7.3084 -1.058,13.6214 -3.21,18.8084 -2.125,5.25 -5.059,9.281 -8.895,12.121 -3.777,2.809 -7.945,4.2 -12.57,4.2 -7.262,0 -13.438,-3.028 -18.496,-9.008 -4.993,-6.11 -7.547,-14.86 -7.547,-26.5823 0,-11.0391 2.554,-19.5703 7.504,-25.6406 5.007,-6.1289 11.171,-9.2383 18.539,-9.2383 4.422,0 8.523,1.3594 12.281,4.0586 3.684,2.6797 6.723,6.6992 8.984,11.9726 2.297,5.3789 3.41,11.7774 3.41,19.3086 z m -51.929,40.3284 v -3.367 c 4.965,6.39 10.164,11.136 15.511,14.136 5.383,3.043 11.493,4.512 18.282,4.512 8.129,0 15.636,-2.211 22.508,-6.57 6.851,-4.399 12.3,-10.789 16.289,-19.27 3.941,-8.41 5.972,-18.43 5.972,-29.9686 0,-8.4805 -1.187,-16.3633 -3.48,-23.3828 -2.262,-7.1797 -5.426,-13.1992 -9.426,-18 -4.047,-4.8789 -8.809,-8.5781 -14.258,-11.1367 -5.465,-2.6211 -11.355,-3.8711 -17.605,-3.8711 -7.614,0 -13.957,1.5312 -19.102,4.6992 -5.199,3.1797 -10.058,7.8008 -14.691,13.9492 V 18.2109 C 694.719,6.03906 690.453,0 681.977,0 c -4.961,0 -8.278,1.5 -9.864,4.64063 -1.633,3.16796 -2.41,7.76957 -2.41,13.76957 V 137.77 c 0,5.23 1.063,9.242 3.281,11.8 2.219,2.578 5.243,3.942 8.993,3.942 3.8,0 6.839,-1.364 9.183,-4.051 2.363,-2.691 3.559,-6.551 3.559,-11.492"
         style="fill:#100f0d;fill-opacity:1;fill-rule:nonzero;stroke:none"
         transform="matrix(0.13333333,0,0,-0.13333333,0,789.74667)" />
      <path
         id="path3"
         d="m 863.402,56.6289 v 3.5117 c -3.222,-4.1797 -6.543,-7.6914 -10.047,-10.5117 -3.488,-2.8672 -7.32,-4.9297 -11.406,-6.3281 -4.195,-1.4024 -8.922,-2.082 -14.195,-2.082 -6.406,0 -12.133,1.4023 -17.223,4.1601 -5.121,2.7422 -9.011,6.5703 -11.808,11.4297 -3.317,5.8906 -4.957,14.3125 -4.957,25.2617 l 0.004,54.8207 c 0,5.539 1.203,9.679 3.601,12.441 2.418,2.668 5.539,4.066 9.492,4.066 4.051,0 7.274,-1.398 9.719,-4.179 2.438,-2.739 3.668,-6.879 3.668,-12.328 V 92.6289 c 0,-6.418 0.52,-11.7969 1.527,-16.1172 1.055,-4.4023 2.887,-7.8125 5.684,-10.2734 2.582,-2.4492 6.254,-3.6485 10.82,-3.6485 4.547,0 8.766,1.3985 12.617,4.1602 4,2.7305 6.891,6.332 8.707,10.7695 1.504,3.9414 2.215,12.5 2.215,25.7895 v 33.582 c 0,5.449 1.25,9.589 3.7,12.328 2.402,2.781 5.64,4.179 9.597,4.179 3.93,0 7.106,-1.398 9.516,-4.066 2.355,-2.762 3.558,-6.902 3.558,-12.441 V 56.8086 c 0,-5.2773 -1.097,-9.2188 -3.468,-11.8477 -2.266,-2.6328 -5.203,-3.9101 -8.856,-3.9101 -3.609,0 -6.594,1.3984 -8.941,4.0508 -2.363,2.7773 -3.524,6.5586 -3.524,11.5273"
         style="fill:#100f0d;fill-opacity:1;fill-rule:nonzero;stroke:none"
         transform="matrix(0.13333333,0,0,-0.13333333,0,789.74667)" />
      <path
         id="path4"
         d="m 940.281,96.5586 c 0,-11 2.34,-19.4297 7.157,-25.3477 4.871,-5.8593 11.167,-8.9101 19.011,-8.9101 6.672,0 12.406,3.0508 17.227,9.0898 4.863,6.0899 7.265,14.6875 7.265,25.9375 0,7.4339 -1.007,13.6919 -3.035,18.9219 -2.004,5.289 -4.879,9.352 -8.515,12.199 -3.754,2.86 -8.039,4.321 -12.942,4.321 -5.105,0 -9.523,-1.461 -13.48,-4.321 -3.989,-2.847 -7.074,-7.008 -9.336,-12.48 -2.25,-5.41 -3.352,-11.848 -3.352,-19.4104 z M 938.98,178.781 V 136.52 c 4.938,5.429 10.043,9.531 15.2,12.449 5.191,2.902 11.64,4.281 19.234,4.281 8.82,0 16.52,-2.211 23.156,-6.48 6.63,-4.43 11.78,-10.731 15.45,-18.961 3.67,-8.278 5.49,-18.098 5.49,-29.4496 0,-8.3789 -1.01,-16.0899 -3.04,-23.0508 -2.07,-6.9883 -5,-13.0469 -8.9,-18.2188 -3.88,-5.0781 -8.605,-9.0078 -14.093,-11.8984 -5.575,-2.7422 -11.688,-4.1406 -18.356,-4.1406 -4.016,0 -7.883,0.4492 -11.484,1.4883 -3.61,1.0117 -6.699,2.289 -9.203,4.0195 -2.493,1.5625 -4.661,3.332 -6.45,5.0625 -1.769,1.8008 -4.07,4.3789 -7.004,7.8984 v -2.7109 c 0,-5.2383 -1.23,-9.1289 -3.621,-11.8477 -2.398,-2.6328 -5.437,-3.9101 -9.093,-3.9101 -3.805,0 -6.739,1.2773 -9.004,3.9101 -2.223,2.7774 -3.321,6.6602 -3.321,11.8477 V 177.57 c 0,5.578 1.059,9.758 3.215,12.649 2.219,2.902 5.203,4.34 9.11,4.34 4.031,0 7.214,-1.411 9.386,-4.161 2.219,-2.707 3.328,-6.589 3.328,-11.617"
         style="fill:#100f0d;fill-opacity:1;fill-rule:nonzero;stroke:none"
         transform="matrix(0.13333333,0,0,-0.13333333,0,789.74667)" />
      <path
         id="path5"
         d="M 1036.18,57.8398 V 177.719 c 0,5.59 1.19,9.769 3.52,12.59 2.39,2.812 5.59,4.25 9.57,4.25 4.05,0 7.27,-1.411 9.73,-4.25 2.4,-2.727 3.71,-6.977 3.71,-12.59 V 57.8398 c 0,-5.6484 -1.31,-9.8789 -3.77,-12.6484 -2.51,-2.7422 -5.72,-4.1406 -9.67,-4.1406 -3.85,0 -6.98,1.4375 -9.44,4.3281 -2.46,2.9102 -3.65,7 -3.65,12.4609"
         style="fill:#100f0d;fill-opacity:1;fill-rule:nonzero;stroke:none"
         transform="matrix(0.13333333,0,0,-0.13333333,0,789.74667)" />
      <path
         id="path6"
         d="M 1116.55,137.66 V 57.8398 c 0,-5.5781 -1.3,-9.7578 -3.76,-12.621 -2.55,-2.7305 -5.77,-4.168 -9.63,-4.168 -3.9,0 -7.02,1.4375 -9.47,4.2578 -2.41,2.9805 -3.66,7.0703 -3.66,12.5312 v 79.0512 c 0,5.449 1.25,9.589 3.66,12.328 2.45,2.781 5.57,4.179 9.47,4.179 3.87,0 7.08,-1.398 9.63,-4.179 2.46,-2.739 3.76,-6.59 3.76,-11.559 z m -13.15,28.66 c -3.64,0 -6.77,1.141 -9.46,3.539 -2.55,2.371 -3.91,5.782 -3.91,10.071 0,3.879 1.36,7.121 4.06,9.679 2.62,2.539 5.75,3.75 9.31,3.75 3.44,0 6.51,-1.117 9.15,-3.418 2.66,-2.25 4,-5.691 4,-10.011 0,-4.289 -1.34,-7.621 -3.9,-9.981 -2.6,-2.41 -5.68,-3.629 -9.25,-3.629"
         style="fill:#100f0d;fill-opacity:1;fill-rule:nonzero;stroke:none"
         transform="matrix(0.13333333,0,0,-0.13333333,0,789.74667)" />
      <path
         id="path7"
         d="m 1238.79,75.1992 c 0,-3.3906 -0.96,-7.0703 -2.89,-10.9687 -2.02,-3.9414 -5.05,-7.6602 -9.1,-11.211 -4.03,-3.5312 -9.13,-6.3906 -15.25,-8.5195 -6.15,-2.1992 -13.07,-3.2812 -20.74,-3.2812 -16.41,0 -29.16,4.9921 -38.36,14.9296 -9.18,9.961 -13.76,23.293 -13.76,40.043 0,11.2966 2.07,21.4176 6.26,30.0586 4.19,8.672 10.34,15.461 18.23,20.23 7.94,4.75 17.47,7.11 28.53,7.11 6.89,0 13.21,-1.039 18.92,-3.051 5.72,-2.148 10.6,-4.867 14.53,-8.148 4.01,-3.332 7.03,-6.832 9.15,-10.571 2.12,-3.769 3.15,-7.23 3.15,-10.511 0,-3.289 -1.22,-6.047 -3.53,-8.387 -2.41,-2.293 -5.2,-3.442 -8.61,-3.442 -2.21,0 -4.05,0.661 -5.49,1.821 -1.44,1.16 -3.09,2.98 -4.91,5.668 -3.23,5.101 -6.6,9 -10.17,11.601 -3.49,2.539 -7.98,3.899 -13.36,3.899 -7.9,0 -14.21,-3.278 -18.96,-9.61 -4.81,-6.449 -7.19,-15.129 -7.19,-26.2496 0,-5.1485 0.66,-10.0078 1.85,-14.3399 1.24,-4.3789 3.03,-8.0273 5.34,-11.1484 2.36,-3.082 5.1,-5.4023 8.47,-6.9297 3.26,-1.6406 6.92,-2.4492 10.81,-2.4492 5.35,0 9.88,1.2891 13.69,3.8281 3.74,2.6211 7.11,6.5391 10,11.75 1.64,3.1797 3.37,5.5781 5.25,7.3594 1.88,1.7891 4.23,2.5625 6.93,2.5625 3.22,0 5.92,-1.2227 8.03,-3.7617 2.12,-2.6485 3.18,-5.3321 3.18,-8.2813"
         style="fill:#100f0d;fill-opacity:1;fill-rule:nonzero;stroke:none"
         transform="matrix(0.13333333,0,0,-0.13333333,0,789.74667)" />
      <path
         id="path8"
         d="m 1282.43,97.3281 c 0,-7.4375 1.17,-13.8086 3.38,-19.1093 2.22,-5.2774 5.24,-9.1797 9.1,-11.8594 3.93,-2.6992 8.16,-4.0586 12.69,-4.0586 4.73,0 8.96,1.289 12.81,3.8086 3.85,2.539 6.89,6.4414 9.23,11.6914 2.28,5.1914 3.43,11.7383 3.43,19.5273 0,7.4339 -1.15,13.7309 -3.43,19.0819 -2.34,5.289 -5.42,9.32 -9.32,12.16 -3.91,2.809 -8.2,4.2 -12.85,4.2 -4.82,0 -9.15,-1.461 -13,-4.321 -3.81,-2.847 -6.77,-7.008 -8.85,-12.379 -2.12,-5.41 -3.19,-11.558 -3.19,-18.7419 z m 52.08,-40.5195 v 2.7109 c -3.57,-4.289 -7.07,-7.6992 -10.54,-10.3476 -3.41,-2.7031 -7.17,-4.711 -11.27,-6.1133 -3.98,-1.3281 -8.42,-2.0078 -13.17,-2.0078 -6.37,0 -12.28,1.3984 -17.62,4.1406 -5.39,2.8906 -10.11,6.8203 -13.99,12.0195 -3.96,5.1797 -6.99,11.3204 -9.02,18.3204 -2.06,7.0273 -3.06,14.5781 -3.06,22.8281 0,17.2696 4.03,30.8126 12.1,40.4216 8.14,9.68 18.78,14.469 31.91,14.469 7.65,0 14.12,-1.379 19.36,-4.191 5.21,-2.618 10.34,-6.868 15.3,-12.539 v 40.808 c 0,5.672 1.1,9.973 3.26,12.863 2.19,2.93 5.21,4.368 9.25,4.368 4,0 7.07,-1.36 9.29,-4 2.17,-2.661 3.27,-6.598 3.27,-11.778 V 56.8086 c 0,-5.2773 -1.19,-9.2188 -3.52,-11.8477 -2.35,-2.6328 -5.33,-3.9101 -9.04,-3.9101 -3.56,0 -6.58,1.2773 -8.99,4.0508 -2.3,2.707 -3.52,6.5586 -3.52,11.707"
         style="fill:#100f0d;fill-opacity:1;fill-rule:nonzero;stroke:none"
         transform="matrix(0.13333333,0,0,-0.13333333,0,789.74667)" />
      <path
         id="path9"
         d="m 1458.76,97.1602 c 0,11.2108 -2.39,20.0308 -7.16,26.3198 -4.76,6.262 -11.17,9.45 -19.15,9.45 -5.2,0 -9.71,-1.469 -13.72,-4.25 -3.89,-2.84 -6.96,-6.981 -9.09,-12.43 -2.18,-5.43 -3.21,-11.781 -3.21,-19.0898 0,-7.2305 1.03,-13.5391 3.15,-18.9219 2.13,-5.4102 5.11,-9.5391 9.07,-12.4063 3.88,-2.8515 8.51,-4.3007 13.8,-4.3007 7.98,0 14.39,3.1406 19.15,9.4492 4.77,6.3008 7.16,15.039 7.16,26.1797 z m 26.58,0 c 0,-8.1993 -1.25,-15.8086 -3.71,-22.8282 -2.46,-6.8828 -6.01,-12.8437 -10.62,-17.8515 -4.68,-5.0508 -10.26,-8.7422 -16.71,-11.5196 -6.51,-2.6328 -13.82,-3.9101 -21.85,-3.9101 -8.04,0 -15.2,1.2773 -21.67,3.9805 -6.39,2.707 -11.94,6.5898 -16.65,11.5976 -4.66,5.043 -8.23,10.9727 -10.66,17.8008 -2.42,6.8789 -3.62,14.4297 -3.62,22.75 0,8.3903 1.25,16.0393 3.66,22.9723 2.5,6.977 6,12.918 10.58,17.86 4.63,4.898 10.16,8.707 16.69,11.367 6.55,2.691 13.77,4.019 21.67,4.019 8.03,0 15.29,-1.328 21.85,-4.066 6.49,-2.652 12.09,-6.551 16.74,-11.562 4.67,-5 8.23,-10.918 10.63,-17.848 2.47,-6.84 3.67,-14.492 3.67,-22.7618"
         style="fill:#100f0d;fill-opacity:1;fill-rule:nonzero;stroke:none"
         transform="matrix(0.13333333,0,0,-0.13333333,0,789.74667)" />
      <path
         id="path10"
         d="m 1597.24,120.012 c -1.97,-4.711 -2.93,-12.942 -2.93,-24.8401 V 58.4805 c 0,-5.8086 -1.26,-10.1914 -3.81,-13.1016 -2.51,-2.8906 -5.88,-4.3281 -10.01,-4.3281 -4,0 -7.22,1.4375 -9.68,4.3281 -2.5,2.9102 -3.75,7.293 -3.75,13.1016 v 44.0585 c 0,6.941 -0.25,12.301 -0.72,16.231 -0.45,3.781 -1.7,6.96 -3.67,9.449 -1.98,2.472 -5.19,3.722 -9.48,3.722 -8.65,0 -14.34,-3.082 -17.13,-9.39 -2.74,-6.141 -4.09,-15.102 -4.09,-26.7112 V 58.4805 c 0,-5.8086 -1.25,-10.1914 -3.74,-13.0117 -2.5,-2.9805 -5.78,-4.418 -9.83,-4.418 -4.05,0 -7.36,1.4375 -9.87,4.418 -2.6,2.8203 -3.8,7.2031 -3.8,12.9414 V 137.57 c 0,5.211 1.1,9.149 3.37,11.84 2.35,2.699 5.33,4.102 9.1,4.102 3.61,0 6.64,-1.293 9.1,-3.813 2.4,-2.539 3.6,-6.019 3.6,-10.48 v -2.68 c 4.59,5.801 9.52,9.981 14.72,12.68 5.25,2.691 11.12,4.031 17.47,4.031 6.69,0 12.37,-1.379 17.19,-4.191 4.81,-2.657 8.71,-6.911 11.78,-12.52 4.49,5.652 9.3,9.941 14.4,12.641 5.14,2.73 10.78,4.07 16.96,4.07 7.3,0 13.52,-1.379 18.74,-4.418 5.26,-2.98 9.15,-7.211 11.76,-12.793 2.26,-5.008 3.41,-12.879 3.41,-23.578 V 58.4805 c 0,-5.8086 -1.29,-10.1914 -3.75,-13.1016 -2.61,-2.8906 -5.89,-4.3281 -10.06,-4.3281 -4,0 -7.28,1.4375 -9.82,4.418 -2.59,2.8203 -3.89,7.2031 -3.89,13.0117 v 46.4685 c 0,5.961 -0.21,10.731 -0.68,14.301 -0.52,3.609 -1.82,6.59 -3.95,9.039 -2.1,2.402 -5.38,3.652 -9.71,3.652 -3.48,0 -6.81,-1.089 -9.88,-3.211 -3.22,-2.242 -5.64,-5.058 -7.35,-8.718 v 0"
         style="fill:#100f0d;fill-opacity:1;fill-rule:nonzero;stroke:none"
         transform="matrix(0.13333333,0,0,-0.13333333,0,789.74667)" />
      <path
         id="path11"
         d="m 1747.29,96.6094 c -3.95,-1.4883 -9.56,-3.0586 -16.98,-4.7305 -7.41,-1.668 -12.57,-2.8672 -15.4,-3.6289 -2.83,-0.8086 -5.53,-2.3203 -8.14,-4.5391 -2.6,-2.289 -3.91,-5.4726 -3.91,-9.5195 0,-4.2226 1.56,-7.8125 4.59,-10.7226 3.02,-2.9375 7.03,-4.4297 11.92,-4.4297 5.25,0 10.11,1.25 14.54,3.6601 4.43,2.3399 7.72,5.4922 9.73,9.2813 2.4,4.1406 3.65,11.0117 3.65,20.6914 z m 1.69,-40.0391 c -6.4,-5.1914 -12.61,-9.0898 -18.58,-11.6484 -5.98,-2.6211 -12.7,-3.8711 -20.12,-3.8711 -6.84,0 -12.75,1.3984 -17.9,4.1406 -5.19,2.7695 -9.14,6.6289 -11.95,11.4375 -2.73,4.7813 -4.18,9.9609 -4.18,15.5899 0,7.5625 2.37,13.9531 6.94,19.3515 4.58,5.3086 10.86,8.8517 18.86,10.7307 1.72,0.398 5.92,1.25 12.56,2.648 6.7,1.492 12.39,2.781 17.19,3.953 4.71,1.149 9.91,2.567 15.49,4.258 -0.39,7.34 -1.77,12.68 -4.24,16.141 -2.49,3.371 -7.69,5.058 -15.49,5.058 -6.74,0 -11.79,-0.968 -15.25,-2.937 -3.38,-1.953 -6.26,-4.934 -8.72,-8.871 -2.4,-3.903 -4.09,-6.442 -5.09,-7.711 -1.07,-1.289 -3.18,-1.809 -6.46,-1.809 -3.03,0 -5.58,0.957 -7.7,2.938 -2.2,1.961 -3.31,4.531 -3.31,7.703 0,4.867 1.68,9.566 4.99,14.098 3.28,4.621 8.44,8.378 15.41,11.41 6.96,2.968 15.69,4.41 26.13,4.41 11.66,0 20.79,-1.442 27.46,-4.258 6.68,-2.852 11.32,-7.383 14.07,-13.621 2.79,-6.242 4.18,-14.449 4.18,-24.691 0,-6.508 0,-12.0512 -0.04,-16.5591 -0.08,-4.5312 -0.08,-9.5625 -0.19,-15.1211 0,-5.1484 0.87,-10.6406 2.51,-16.2109 1.6,-5.6406 2.44,-9.2695 2.44,-10.8672 0,-2.8633 -1.29,-5.4297 -3.85,-7.7617 -2.49,-2.3086 -5.39,-3.4492 -8.65,-3.4492 -2.69,0 -5.35,1.2773 -8.08,3.9101 -2.6,2.7188 -5.45,6.5704 -8.43,11.6094"
         style="fill:#100f0d;fill-opacity:1;fill-rule:nonzero;stroke:none"
         transform="matrix(0.13333333,0,0,-0.13333333,0,789.74667)" />
      <path
         id="path12"
         d="M 1826.7,137.66 V 57.8398 c 0,-5.5781 -1.3,-9.7578 -3.8,-12.621 -2.5,-2.7305 -5.75,-4.168 -9.57,-4.168 -3.9,0 -7.08,1.4375 -9.5,4.2578 -2.46,2.9805 -3.64,7.0703 -3.64,12.5312 v 79.0512 c 0,5.449 1.19,9.589 3.64,12.328 2.42,2.781 5.6,4.179 9.5,4.179 3.82,0 7.07,-1.398 9.57,-4.179 2.5,-2.739 3.8,-6.59 3.8,-11.559 z m -13.14,28.66 c -3.65,0 -6.78,1.141 -9.43,3.539 -2.6,2.371 -3.94,5.782 -3.94,10.071 0,3.879 1.34,7.121 4.09,9.679 2.64,2.539 5.76,3.75 9.28,3.75 3.42,0 6.5,-1.117 9.14,-3.418 2.64,-2.25 4,-5.691 4,-10.011 0,-4.289 -1.3,-7.621 -3.9,-9.981 -2.6,-2.41 -5.68,-3.629 -9.24,-3.629"
         style="fill:#100f0d;fill-opacity:1;fill-rule:nonzero;stroke:none"
         transform="matrix(0.13333333,0,0,-0.13333333,0,789.74667)" />
      <path
         id="path13"
         d="m 1878.15,138.102 v -3.301 c 4.62,6.379 9.71,11.09 15.23,14.09 5.57,2.98 11.85,4.507 19.12,4.507 6.92,0 13.17,-1.527 18.74,-4.796 5.43,-3.122 9.6,-7.61 12.3,-13.391 1.76,-3.391 2.85,-7.082 3.38,-10.949 0.47,-3.922 0.8,-8.934 0.8,-14.973 V 57.8398 c 0,-5.5781 -1.29,-9.7578 -3.65,-12.621 -2.44,-2.7305 -5.63,-4.168 -9.48,-4.168 -3.9,0 -7.1,1.4375 -9.53,4.3281 -2.46,2.9102 -3.75,7 -3.75,12.4609 V 103.84 c 0,9.191 -1.17,16.172 -3.55,20.988 -2.5,4.801 -7.38,7.203 -14.65,7.203 -4.67,0 -8.94,-1.441 -12.83,-4.422 -3.9,-2.89 -6.74,-6.937 -8.54,-12.078 -1.29,-4.09 -1.95,-11.781 -1.95,-23.1521 V 57.8398 c 0,-5.6484 -1.25,-9.8789 -3.77,-12.6484 -2.5,-2.7422 -5.73,-4.1406 -9.61,-4.1406 -3.81,0 -6.99,1.4375 -9.43,4.2578 -2.52,2.9805 -3.69,7.0703 -3.69,12.5312 l -0.03,79.8202 c 0,5.34 1.12,9.199 3.33,11.84 2.16,2.609 5.25,3.898 9.05,3.898 2.31,0 4.43,-0.617 6.25,-1.726 1.92,-1.09 3.37,-2.891 4.53,-5.152 1.1,-2.29 1.73,-5.09 1.73,-8.418"
         style="fill:#100f0d;fill-opacity:1;fill-rule:nonzero;stroke:none"
         transform="matrix(0.13333333,0,0,-0.13333333,0,789.74667)" />
      <path
         id="path14"
         d="m 1990.22,136.172 21.43,-62.7618 23.08,65.4998 c 1.84,5.32 3.63,8.949 5.35,11.231 1.78,2.16 4.44,3.257 7.93,3.257 3.38,0 6.27,-1.179 8.69,-3.546 2.31,-2.364 3.52,-5.051 3.52,-8.231 0,-1.199 -0.25,-2.609 -0.68,-4.199 -0.39,-1.641 -0.86,-3.172 -1.45,-4.621 -0.53,-1.379 -1.11,-3.02 -1.89,-4.789 l -25.39,-65.8401 c -0.73,-1.8828 -1.7,-4.3321 -2.8,-7.2227 -1.15,-2.9179 -2.38,-5.3203 -3.75,-7.4687 -1.44,-2.0117 -3.14,-3.6094 -5.15,-4.75 -2.07,-1.1602 -4.57,-1.6797 -7.46,-1.6797 -3.75,0 -6.74,0.8476 -9.01,2.6406 -2.24,1.7774 -3.9,3.6992 -4.94,5.8477 -1.07,2.1211 -2.83,6.3125 -5.39,12.6328 l -25.23,65.0901 c -0.63,1.597 -1.18,3.238 -1.88,4.879 -0.57,1.578 -1.02,3.218 -1.48,4.968 -0.39,1.672 -0.63,3.11 -0.63,4.321 0,1.922 0.53,3.781 1.64,5.621 1.1,1.89 2.7,3.418 4.55,4.578 1.99,1.152 4.06,1.769 6.35,1.769 4.39,0 7.38,-1.289 9.04,-3.988 1.66,-2.601 3.54,-7.019 5.55,-13.238"
         style="fill:#100f0d;fill-opacity:1;fill-rule:nonzero;stroke:none"
         transform="matrix(0.13333333,0,0,-0.13333333,0,789.74667)" />
      <path
         id="path15"
         d="m 2098.62,106.148 h 48.03 c -0.61,9.422 -3.09,16.524 -7.39,21.172 -4.22,4.668 -9.8,7.039 -16.68,7.039 -6.6,0 -12.03,-2.371 -16.27,-7.14 -4.23,-4.707 -6.77,-11.778 -7.69,-21.071 z m 51.81,-15.6871 h -51.81 c 0,-6.3515 1.25,-11.8515 3.53,-16.7109 2.48,-4.7109 5.59,-8.3398 9.5,-10.7695 3.88,-2.4492 8.22,-3.6485 12.94,-3.6485 3.19,0 6.08,0.3672 8.7,1.1368 2.63,0.832 5.17,2.0117 7.69,3.6718 2.38,1.6211 4.59,3.3477 6.72,5.3399 2.03,1.8906 4.8,4.3906 8.03,7.6484 1.4,1.2422 3.34,1.832 5.82,1.832 2.77,0 4.96,-0.7226 6.62,-2.3203 1.7,-1.5312 2.54,-3.7422 2.54,-6.5195 0,-2.5195 -0.96,-5.4492 -2.85,-8.8203 -1.86,-3.332 -4.67,-6.5508 -8.48,-9.6406 -3.77,-3.0899 -8.55,-5.5821 -14.26,-7.6602 -5.7,-2.0195 -12.24,-2.9492 -19.72,-2.9492 -17.07,0 -30.32,5.0273 -39.67,15.0976 -9.46,10.211 -14.16,23.9102 -14.16,41.1797 0,8.2809 1.15,15.8319 3.45,22.8009 2.39,7 5.73,13.019 10.22,17.973 4.41,5.019 9.92,8.91 16.46,11.507 6.59,2.692 13.79,3.981 21.78,3.981 10.27,0 19.16,-2.238 26.58,-6.82 7.41,-4.579 12.99,-10.379 16.64,-17.598 3.72,-7.281 5.53,-14.613 5.53,-22.141 0,-6.961 -1.85,-11.4724 -5.66,-13.4802 -3.89,-2.0899 -9.2,-3.0899 -16.14,-3.0899"
         style="fill:#100f0d;fill-opacity:1;fill-rule:nonzero;stroke:none"
         transform="matrix(0.13333333,0,0,-0.13333333,0,789.74667)" />
      <path
         id="path16"
         d="m 2289.63,75.1992 c 0,-3.3906 -1.01,-7.0703 -3,-10.9687 -2.02,-3.9414 -4.95,-7.6602 -9.05,-11.211 -3.98,-3.5312 -9.12,-6.3906 -15.29,-8.5195 -6.11,-2.1992 -13.11,-3.2812 -20.74,-3.2812 -16.41,0 -29.16,4.9921 -38.3,14.9296 -9.18,9.961 -13.83,23.293 -13.83,40.043 0,11.2966 2.09,21.4176 6.31,30.0896 4.24,8.641 10.25,15.43 18.24,20.199 7.95,4.75 17.46,7.11 28.52,7.11 6.91,0 13.16,-1.039 18.92,-3.051 5.68,-2.148 10.55,-4.867 14.53,-8.148 4.01,-3.332 7.05,-6.832 9.16,-10.571 2.07,-3.769 3.13,-7.23 3.13,-10.511 0,-3.289 -1.15,-6.047 -3.62,-8.387 -2.32,-2.293 -5.13,-3.442 -8.51,-3.442 -2.21,0 -4.04,0.661 -5.43,1.821 -1.5,1.16 -3.13,2.98 -4.96,5.668 -3.22,5.101 -6.6,9 -10.1,11.601 -3.57,2.539 -8.07,3.899 -13.5,3.899 -7.79,0 -14.14,-3.278 -18.9,-9.61 -4.81,-6.449 -7.19,-15.129 -7.19,-26.2496 0,-5.1485 0.65,-10.0078 1.84,-14.3399 1.25,-4.3789 3.04,-8.0273 5.35,-11.1484 2.36,-3.082 5.13,-5.4023 8.47,-6.9297 3.21,-1.6406 6.9,-2.4492 10.81,-2.4492 5.31,0 9.92,1.2891 13.69,3.8281 3.75,2.6211 7.11,6.5391 10.06,11.75 1.58,3.1797 3.35,5.5781 5.25,7.3594 1.82,1.7891 4.12,2.5625 6.87,2.5625 3.19,0 5.9,-1.2227 7.99,-3.7617 2.17,-2.6485 3.28,-5.3321 3.28,-8.2813"
         style="fill:#100f0d;fill-opacity:1;fill-rule:nonzero;stroke:none"
         transform="matrix(0.13333333,0,0,-0.13333333,0,789.74667)" />
      <path
         id="path17"
         d="m 2314.22,151.039 h 2.93 v 16.672 c 0,4.371 0.08,7.93 0.34,10.469 0.23,2.519 0.82,4.691 1.87,6.531 1.02,1.859 2.56,3.398 4.49,4.598 1.9,1.16 4.07,1.73 6.49,1.73 3.32,0 6.38,-1.34 9.1,-3.898 1.78,-1.821 2.93,-3.95 3.4,-6.442 0.54,-2.519 0.74,-6.168 0.74,-10.84 v -18.82 h 9.76 c 3.74,0 6.59,-0.898 8.58,-2.789 2.01,-1.809 2.99,-4.18 2.99,-7.07 0,-3.758 -1.43,-6.379 -4.3,-7.828 -2.73,-1.454 -6.8,-2.243 -12.05,-2.243 h -4.98 V 80.2109 c 0,-4.332 0.14,-7.6601 0.47,-10 0.29,-2.3711 1.13,-4.25 2.36,-5.6289 1.25,-1.5117 3.28,-2.2812 6.19,-2.2812 1.51,0 3.58,0.289 6.27,0.918 2.62,0.5312 4.67,0.8125 6.21,0.8125 2.13,0 4.09,-0.9024 5.76,-2.6211 1.7,-1.8008 2.58,-4.0118 2.58,-6.6602 0,-4.4219 -2.28,-7.8594 -6.95,-10.1992 -4.77,-2.3594 -11.41,-3.5 -20.12,-3.5 -8.28,0 -14.55,1.4375 -18.85,4.3281 -4.23,2.9102 -7.07,6.8828 -8.37,12.0625 -1.35,5.1484 -1.98,12 -1.98,20.5391 v 53.1285 h -3.57 c -3.75,0 -6.66,0.922 -8.65,2.852 -2.03,1.91 -3.03,4.289 -3.03,7.219 0,2.89 1.05,5.261 3.12,7.07 2.13,1.891 5.22,2.789 9.2,2.789"
         style="fill:#100f0d;fill-opacity:1;fill-rule:nonzero;stroke:none"
         transform="matrix(0.13333333,0,0,-0.13333333,0,789.74667)" />
      <path
         id="path18"
         d="m 2455.67,97.1602 c 0,11.2108 -2.44,20.0308 -7.15,26.3198 -4.8,6.262 -11.15,9.45 -19.2,9.45 -5.14,0 -9.71,-1.469 -13.65,-4.25 -3.95,-2.84 -6.99,-6.981 -9.08,-12.43 -2.19,-5.43 -3.25,-11.781 -3.25,-19.0898 0,-7.2305 1.06,-13.5391 3.17,-18.9219 2.13,-5.4102 5.12,-9.5391 9,-12.4063 3.91,-2.8515 8.48,-4.3007 13.81,-4.3007 8.05,0 14.4,3.1406 19.2,9.4492 4.71,6.3008 7.15,15.039 7.15,26.1797 z m 26.6,0 c 0,-8.1993 -1.25,-15.8086 -3.75,-22.8282 -2.4,-6.8828 -6.02,-12.8437 -10.66,-17.8515 -4.63,-5.0508 -10.22,-8.7422 -16.68,-11.5196 -6.43,-2.6328 -13.68,-3.9101 -21.86,-3.9101 -8.03,0 -15.25,1.2773 -21.64,3.9805 -6.37,2.707 -11.93,6.5898 -16.62,11.5976 -4.65,5.043 -8.22,10.9727 -10.63,17.8008 -2.46,6.8789 -3.65,14.4297 -3.65,22.75 0,8.3903 1.19,16.0393 3.65,22.9723 2.5,6.977 5.98,12.918 10.59,17.86 4.61,4.898 10.16,8.707 16.66,11.367 6.62,2.691 13.81,4.019 21.64,4.019 8.05,0 15.31,-1.328 21.86,-4.066 6.54,-2.652 12.13,-6.551 16.79,-11.562 4.61,-5 8.23,-10.918 10.65,-17.848 2.4,-6.84 3.65,-14.492 3.65,-22.7618"
         style="fill:#100f0d;fill-opacity:1;fill-rule:nonzero;stroke:none"
         transform="matrix(0.13333333,0,0,-0.13333333,0,789.74667)" />
      <path
         id="path19"
         d="M 2529.42,80.832 V 57.8398 c 0,-5.6484 -1.25,-9.8789 -3.73,-12.6484 -2.58,-2.7422 -5.78,-4.1406 -9.65,-4.1406 -3.77,0 -6.97,1.4375 -9.41,4.168 -2.45,2.8632 -3.68,7.0429 -3.68,12.621 v 76.9612 c 0,12.41 4.28,18.597 12.91,18.597 4.32,0 7.56,-1.488 9.54,-4.339 1.93,-2.911 2.93,-7.188 3.18,-12.887 3.16,5.699 6.42,9.976 9.76,12.887 3.31,2.851 7.74,4.339 13.29,4.339 5.62,0 10.97,-1.488 16.27,-4.339 5.21,-2.911 7.87,-6.778 7.87,-11.579 0,-3.371 -1.19,-6.171 -3.42,-8.308 -2.17,-2.203 -4.61,-3.332 -7.19,-3.332 -0.99,0 -3.36,0.648 -7.11,1.922 -3.69,1.25 -6.95,1.867 -9.84,1.867 -3.85,0 -7.05,-1.059 -9.44,-3.219 -2.48,-2.148 -4.37,-5.238 -5.74,-9.441 -1.38,-4.231 -2.36,-9.199 -2.81,-15.02 -0.51,-5.7107 -0.8,-12.7381 -0.8,-21.117"
         style="fill:#100f0d;fill-opacity:1;fill-rule:nonzero;stroke:none"
         transform="matrix(0.13333333,0,0,-0.13333333,0,789.74667)" />
      <path
         id="path20"
         d="m 2670.53,77.1289 c 0,-7.6484 -1.72,-14.1484 -5.35,-19.6406 -3.59,-5.457 -8.85,-9.5274 -15.76,-12.2969 -7.01,-2.7422 -15.41,-4.1406 -25.41,-4.1406 -9.49,0 -17.66,1.4883 -24.51,4.5078 -6.8,3.0117 -11.8,6.8203 -15.02,11.3516 -3.21,4.5781 -4.9,9.1211 -4.9,13.7187 0,3.0313 1.07,5.6211 3.18,7.7422 2.07,2.2187 4.69,3.2891 7.85,3.2891 2.79,0 4.88,-0.7188 6.41,-2.1289 1.52,-1.4415 2.89,-3.461 4.27,-5.961 2.72,-4.9609 5.96,-8.6601 9.77,-11.0898 3.75,-2.4492 8.94,-3.6289 15.49,-3.6289 5.29,0 9.63,1.2382 13.04,3.6992 3.36,2.4492 5.16,5.289 5.16,8.4297 0,4.8984 -1.83,8.4609 -5.29,10.6289 -3.58,2.3125 -9.36,4.4101 -17.5,6.4023 -9.08,2.3985 -16.54,4.8985 -22.27,7.4571 -5.72,2.6601 -10.35,6.0622 -13.77,10.2932 -3.4,4.25 -5.13,9.5 -5.13,15.679 0,5.598 1.6,10.84 4.76,15.7 3.19,4.961 7.89,8.91 14.04,11.828 6.18,2.941 13.62,4.429 22.37,4.429 6.91,0 13.06,-0.757 18.55,-2.207 5.43,-1.492 10.08,-3.5 13.66,-5.98 3.67,-2.531 6.46,-5.27 8.32,-8.32 1.97,-3.059 2.91,-6.02 2.91,-8.879 0,-3.184 -1.02,-5.742 -3.09,-7.86 -2.03,-1.933 -4.96,-2.961 -8.67,-2.961 -2.74,0 -5,0.739 -6.97,2.43 -1.9,1.598 -4.11,4.051 -6.55,7.231 -1.97,2.687 -4.33,4.828 -7.07,6.5 -2.77,1.57 -6.4,2.429 -11.09,2.429 -4.75,0 -8.79,-1.051 -11.92,-3.199 -3.18,-2.141 -4.76,-4.773 -4.76,-7.953 0,-2.93 1.17,-5.289 3.44,-7.16 2.36,-1.84 5.5,-3.367 9.47,-4.641 4,-1.199 9.41,-2.687 16.31,-4.457 8.22,-2.062 14.96,-4.531 20.15,-7.473 5.22,-2.8863 9.16,-6.2964 11.82,-10.2769 2.77,-3.9727 4.06,-8.4297 4.06,-13.4922"
         style="fill:#100f0d;fill-opacity:1;fill-rule:nonzero;stroke:none"
         transform="matrix(0.13333333,0,0,-0.13333333,0,789.74667)" />
      <path
         id="path21"
         d="m 2700.65,41.0508 c -4.02,0 -7.5,1.2773 -10.37,3.9805 -2.93,2.707 -4.38,6.5 -4.38,11.371 0,4.0899 1.33,7.629 4.12,10.5586 2.76,3.0079 6.23,4.4297 10.3,4.4297 4.06,0 7.56,-1.4218 10.35,-4.3593 2.95,-2.8907 4.39,-6.5 4.39,-10.629 0,-4.832 -1.44,-8.5937 -4.39,-11.3007 -2.79,-2.7735 -6.17,-4.0508 -10.02,-4.0508"
         style="fill:#100f0d;fill-opacity:1;fill-rule:nonzero;stroke:none"
         transform="matrix(0.13333333,0,0,-0.13333333,0,789.74667)" />
      <path
         id="path22"
         d="m 2817.8,97.1602 c 0,11.2108 -2.4,20.0308 -7.15,26.3198 -4.79,6.262 -11.15,9.45 -19.16,9.45 -5.16,0 -9.69,-1.469 -13.61,-4.25 -4.03,-2.84 -7.04,-6.981 -9.16,-12.43 -2.13,-5.43 -3.17,-11.781 -3.17,-19.0898 0,-7.2305 1,-13.5391 3.11,-18.9219 2.11,-5.4102 5.11,-9.5391 9.06,-12.4063 3.89,-2.8515 8.52,-4.3007 13.77,-4.3007 8.01,0 14.37,3.1406 19.16,9.4492 4.75,6.3008 7.15,15.039 7.15,26.1797 z m 26.62,0 c 0,-8.1993 -1.19,-15.8086 -3.77,-22.8282 -2.44,-6.8828 -5.94,-12.8437 -10.61,-17.8515 -4.68,-5.0508 -10.15,-8.7422 -16.71,-11.5196 -6.45,-2.6328 -13.72,-3.9101 -21.84,-3.9101 -7.99,0 -15.22,1.2773 -21.62,3.9805 -6.41,2.707 -11.92,6.5898 -16.6,11.5976 -4.77,5.043 -8.28,10.9727 -10.75,17.8008 -2.38,6.8789 -3.61,14.4297 -3.61,22.75 0,8.3903 1.23,16.0393 3.67,22.9723 2.56,6.977 5.98,12.918 10.59,17.86 4.57,4.898 10.16,8.707 16.7,11.367 6.52,2.691 13.71,4.019 21.62,4.019 8.01,0 15.27,-1.328 21.84,-4.066 6.56,-2.652 12.12,-6.551 16.79,-11.562 4.67,-5 8.17,-10.918 10.69,-17.848 2.42,-6.84 3.61,-14.492 3.61,-22.7618"
         style="fill:#100f0d;fill-opacity:1;fill-rule:nonzero;stroke:none"
         transform="matrix(0.13333333,0,0,-0.13333333,0,789.74667)" />
      <path
         id="path23"
         d="M 2891.59,80.832 V 57.8398 c 0,-5.6484 -1.25,-9.8789 -3.77,-12.6484 -2.5,-2.7422 -5.73,-4.1406 -9.57,-4.1406 -3.89,0 -7,1.4375 -9.48,4.168 -2.48,2.8632 -3.63,7.0429 -3.63,12.621 v 76.9612 c 0,12.41 4.3,18.597 12.87,18.597 4.42,0 7.58,-1.488 9.48,-4.339 1.93,-2.911 3.08,-7.188 3.28,-12.887 3.12,5.699 6.34,9.976 9.66,12.887 3.36,2.851 7.86,4.339 13.32,4.339 5.71,0 11.08,-1.488 16.27,-4.339 5.22,-2.911 7.91,-6.778 7.91,-11.579 0,-3.371 -1.17,-6.171 -3.37,-8.308 -2.25,-2.203 -4.61,-3.332 -7.27,-3.332 -0.94,0 -3.28,0.648 -6.99,1.922 -3.73,1.25 -6.99,1.867 -9.9,1.867 -3.85,0 -7.02,-1.059 -9.54,-3.219 -2.4,-2.148 -4.33,-5.238 -5.66,-9.441 -1.37,-4.231 -2.32,-9.199 -2.85,-15.02 -0.49,-5.7107 -0.76,-12.7381 -0.76,-21.117"
         style="fill:#100f0d;fill-opacity:1;fill-rule:nonzero;stroke:none"
         transform="matrix(0.13333333,0,0,-0.13333333,0,789.74667)" />
      <path
         id="path24"
         d="m 2968.09,98.1289 c 0,-11.2187 2.33,-19.707 7.03,-25.4687 4.67,-5.6993 10.78,-8.6289 18.15,-8.6289 4.39,0 8.61,1.3203 12.5,3.7382 3.9,2.5196 7.13,6.1914 9.57,11.1524 2.48,5 3.69,11.0078 3.69,18.0781 0,11.281 -2.44,20.039 -7.15,26.34 -4.75,6.289 -11.02,9.43 -18.73,9.43 -7.58,0 -13.65,-3.028 -18.18,-9.008 -4.61,-6.063 -6.88,-14.582 -6.88,-25.6331 z m 76.76,35.0191 V 52.8203 c 0,-9.1914 -0.98,-17.1406 -2.81,-23.6601 -1.9,-6.6993 -4.95,-12.1289 -9.01,-16.4805 -4.16,-4.28126 -9.65,-7.48829 -16.29,-9.62111 C 3010.06,1.05078 3001.74,0 2991.78,0 c -9.14,0 -17.3,1.28906 -24.45,3.92188 -7.23,2.75 -12.75,6.12892 -16.6,10.41792 -3.89,4.1602 -5.86,8.5118 -5.86,12.9688 0,3.4414 1.09,6.1602 3.3,8.293 2.21,2.1093 4.86,3.2382 7.95,3.2382 3.9,0 7.26,-1.8515 10.21,-5.4101 1.45,-1.8906 2.93,-3.6992 4.42,-5.5195 1.48,-1.8789 3.16,-3.4805 5.06,-4.7813 1.81,-1.3476 4.08,-2.2891 6.68,-2.9687 2.51,-0.6407 5.52,-0.961 8.9,-0.961 6.84,0 12.21,1.0391 15.98,3.0196 3.75,1.9726 6.4,4.7695 7.95,8.2812 1.48,3.6016 2.46,7.4102 2.61,11.4805 0.32,4.1406 0.45,10.7187 0.65,19.7617 -4.08,-5.8906 -8.85,-10.4531 -14.14,-13.543 -5.29,-3.0976 -11.7,-4.6211 -19.01,-4.6211 -8.96,0 -16.69,2.3321 -23.3,7.0703 -6.64,4.7305 -11.75,11.3204 -15.29,19.9102 -3.53,8.4023 -5.35,18.2617 -5.35,29.4219 0,8.3395 1.03,15.8285 3.24,22.5315 2.13,6.66 5.22,12.289 9.32,16.898 3.92,4.551 8.61,8.012 13.85,10.379 5.25,2.32 10.93,3.461 17.28,3.461 7.46,0 14,-1.469 19.49,-4.512 5.53,-3 10.59,-7.746 15.32,-14.136 v 3.757 c 0,4.789 1.21,8.45 3.39,11.211 2.27,2.578 5.2,3.942 8.73,3.942 5.14,0 8.56,-1.731 10.24,-5.262 1.66,-3.449 2.5,-8.508 2.5,-15.102"
         style="fill:#100f0d;fill-opacity:1;fill-rule:nonzero;stroke:none"
         transform="matrix(0.13333333,0,0,-0.13333333,0,789.74667)" />
      <path
         id="path25"
         d="m 1896.63,402.41 h 39.31 c -2.79,-21.238 -11.44,-37.738 -25.94,-49.609 -13.37,-11.711 -29.55,-17.422 -48.45,-17.422 -25.65,0 -46.1,8.98 -61.42,26.992 -14.48,17.117 -21.73,39.231 -21.73,66.199 0,27.629 7.19,49.77 21.55,66.539 14.28,16.641 34.61,25.032 60.73,25.032 19.47,0 35.95,-5.27 49.32,-15.711 14.2,-11.309 22.86,-27.18 25.94,-47.508 h -39.31 c -3.36,17.738 -14.26,26.59 -32.66,26.59 -30.39,0 -45.59,-18 -45.59,-54 0,-16.891 3.87,-30.66 11.74,-41.391 7.8,-10.781 18.83,-16.191 33.03,-16.191 21.16,0 32.32,10.172 33.48,30.48 z m -154.72,24.789 c 0,-35.187 11.15,-64.98 33.45,-89.168 22.26,-24.312 49.57,-36.441 81.96,-36.441 32.24,0 59.56,12.129 81.86,36.441 22.27,24.188 33.4,53.981 33.4,89.168 0,35.129 -11.13,64.86 -33.4,89.121 -22.3,24.321 -49.62,36.43 -81.86,36.43 -32.39,0 -59.7,-12.109 -81.96,-36.43 -22.3,-24.261 -33.45,-53.992 -33.45,-89.121 z m -39.91,0 c 0,44.742 15.17,82.91 45.49,114.692 30.33,31.66 66.93,47.488 109.83,47.488 42.82,0 79.35,-15.828 109.76,-47.488 30.33,-31.782 45.54,-69.95 45.54,-114.692 0,-44.75 -15.21,-83 -45.54,-114.719 -30.41,-31.679 -66.94,-47.582 -109.76,-47.582 -42.88,0 -79.5,15.903 -109.83,47.582 -30.32,31.719 -45.49,69.969 -45.49,114.719"
         style="fill:#100f0d;fill-opacity:1;fill-rule:nonzero;stroke:none"
         transform="matrix(0.13333333,0,0,-0.13333333,0,789.74667)" />
      <path
         id="path26"
         d="m 1764.87,325.461 22.6,-19.223 166.58,213.903 -22.64,19.199 -166.54,-213.879"
         style="fill:#100f0d;fill-opacity:1;fill-rule:nonzero;stroke:none"
         transform="matrix(0.13333333,0,0,-0.13333333,0,789.74667)" />
      <path
         id="path27"
         d="m 2847.86,5923.13 c 290.53,0 526.04,-206.31 526.04,-460.82 V 5121.13 H 3201.46 C 3108.05,5046.8 2984,5001.5 2847.86,5001.5 c -136.15,0 -260.2,45.3 -353.61,119.63 h -172.43 v 341.18 c 0,254.51 235.5,460.82 526.04,460.82"
         style="fill:#2e2d2d;fill-opacity:1;fill-rule:evenodd;stroke:none"
         transform="matrix(0.13333333,0,0,-0.13333333,0,789.74667)" />
      <path
         id="path28"
         d="m 2847.86,4660.32 c 289.73,0 526.04,207 526.04,460.81 0,253.82 -236.31,460.82 -526.04,460.82 -289.74,0 -526.04,-207 -526.04,-460.82 0,-253.81 236.3,-460.81 526.04,-460.81"
         style="fill:#5e5f62;fill-opacity:1;fill-rule:evenodd;stroke:none"
         transform="matrix(0.13333333,0,0,-0.13333333,0,789.74667)" />
      <path
         id="path29"
         d="m 2510.65,2081.91 c -1.48,-118.14 -98.48,-212.74 -216.63,-211.26 -118.17,1.48 -212.75,98.47 -211.26,216.65 l 10.32,917.29 c 0.78,62.49 28.28,118.37 71.5,156.95 l -0.16,0.17 196.25,174.73 c 88.26,78.76 223.66,71.06 302.43,-17.2 78.75,-88.25 71.05,-223.65 -17.21,-302.41 l -125.95,-112.16 -9.29,-822.76"
         style="fill:#fbc589;fill-opacity:1;fill-rule:evenodd;stroke:none"
         transform="matrix(0.13333333,0,0,-0.13333333,0,789.74667)" />
      <path
         id="path30"
         d="m 2862.83,1199.86 h 0.02 c 189.4,0 344.38,154.98 344.38,344.41 v 2456.87 c 0,189.41 -154.98,344.39 -344.38,344.39 h -0.02 c -189.43,0 -344.39,-154.98 -344.39,-344.39 V 1544.27 c 0,-189.43 154.96,-344.41 344.39,-344.41"
         style="fill:#bb874f;fill-opacity:1;fill-rule:evenodd;stroke:none"
         transform="matrix(0.13333333,0,0,-0.13333333,0,789.74667)" />
      <path
         id="path31"
         d="m 3099.68,1917.15 c -80.73,-87.01 -216.72,-92.11 -303.73,-11.37 -86.99,80.73 -92.09,216.71 -11.36,303.72 l 596.11,642.45 -29.68,165.28 c -21.08,116.32 56.12,227.73 172.45,248.82 116.34,21.09 227.76,-56.14 248.84,-172.47 l 45.48,-253.32 c 18.85,-69.23 2.62,-146.34 -49.78,-202.82 l -668.33,-720.29"
         style="fill:#fbc589;fill-opacity:1;fill-rule:evenodd;stroke:none"
         transform="matrix(0.13333333,0,0,-0.13333333,0,789.74667)" />
      <path
         id="path32"
         d="m 2196.82,2776.91 946.1,-13.62 5.85,-1509 c 0.5,-130.54 -46.19,-243.07 -138.97,-334.88 C 2917,827.59 2804,782.082 2673.46,783.961 l -8.92,0.117 c -255.04,3.692 -460.81,211.641 -461.79,466.692 l -5.93,1526.14"
         style="fill:#fbc589;fill-opacity:1;fill-rule:evenodd;stroke:none"
         transform="matrix(0.13333333,0,0,-0.13333333,0,789.74667)" />
      <path
         id="path33"
         d="m 2927.18,2182.69 c -80.71,-87.02 -216.7,-92.1 -303.71,-11.37 -87.01,80.73 -92.11,216.71 -11.38,303.72 l 596.11,642.46 -29.68,165.26 c -21.08,116.32 56.13,227.74 172.47,248.82 116.33,21.09 227.74,-56.13 248.82,-172.45 l 45.49,-253.33 c 18.84,-69.24 2.61,-146.35 -49.79,-202.8 l -668.33,-720.31"
         style="fill:#fbc589;fill-opacity:1;fill-rule:evenodd;stroke:none"
         transform="matrix(0.13333333,0,0,-0.13333333,0,789.74667)" />
      <path
         id="path34"
         d="m 3088.37,1617.36 c -80.74,-87.01 -216.71,-92.11 -303.72,-11.37 -87.01,80.73 -92.1,216.72 -11.36,303.73 l 596.09,642.46 -29.68,165.25 c -21.08,116.34 56.13,227.76 172.47,248.84 116.34,21.08 227.74,-56.13 248.82,-172.47 l 45.48,-253.32 c 18.85,-69.23 2.62,-146.35 -49.77,-202.81 l -668.33,-720.31"
         style="fill:#fbc589;fill-opacity:1;fill-rule:evenodd;stroke:none"
         transform="matrix(0.13333333,0,0,-0.13333333,0,789.74667)" />
      <path
         id="path35"
         d="m 3274.33,1637.21 c -80.73,-87.01 -216.72,-92.11 -303.73,-11.38 -87.01,80.73 -92.09,216.72 -11.38,303.73 l 347.98,375.03 -11.55,64.36 c -21.09,116.32 56.12,227.73 172.46,248.81 116.33,21.09 227.73,-56.14 248.83,-172.45 l 27.36,-152.42 c 18.84,-69.25 2.61,-146.35 -49.78,-202.83 l -420.19,-452.85"
         style="fill:#fbc589;fill-opacity:1;fill-rule:evenodd;stroke:none"
         transform="matrix(0.13333333,0,0,-0.13333333,0,789.74667)" />
      <path
         id="path36"
         d="m 3299.06,3925.8 c 45.71,-36.23 71.93,-91.66 71.93,-176.4 0,-253.27 -234.21,-458.58 -523.13,-458.58 -288.92,0 -523.14,205.31 -523.14,458.58 0,84.74 26.22,140.17 71.94,176.4 40,31.7 63.09,73.28 68.85,123.99 5.76,50.71 -7.4,96.41 -39.26,136.27 -102.27,127.98 -165.22,302.39 -165.22,494.61 0,392.75 262.73,711.13 586.83,711.13 324.1,0 586.82,-318.38 586.82,-711.13 0,-192.22 -62.95,-366.63 -165.21,-494.61 -31.87,-39.86 -45.03,-85.56 -39.27,-136.27 5.76,-50.71 28.85,-92.29 68.86,-123.99"
         style="fill:#2e2d2d;fill-opacity:1;fill-rule:evenodd;stroke:none"
         transform="matrix(0.13333333,0,0,-0.13333333,0,789.74667)" />
      <path
         id="path37"
         d="m 2847.86,4245.44 c 172.88,0 313.88,204.87 313.88,456.05 0,251.18 -141,456.05 -313.88,456.05 -172.88,0 -313.89,-204.87 -313.89,-456.05 0,-251.18 141.01,-456.05 313.89,-456.05"
         style="fill:#bb874f;fill-opacity:1;fill-rule:evenodd;stroke:none"
         transform="matrix(0.13333333,0,0,-0.13333333,0,789.74667)" />
      <path
         id="path38"
         d="m 2847.86,4343.25 c 150.89,0 273.96,178.81 273.96,398.04 0,219.24 -123.07,398.05 -273.96,398.05 -150.89,0 -273.97,-178.81 -273.97,-398.05 0,-219.23 123.08,-398.04 273.97,-398.04"
         style="fill:#d3a067;fill-opacity:1;fill-rule:evenodd;stroke:none"
         transform="matrix(0.13333333,0,0,-0.13333333,0,789.74667)" />
      <path
         id="path39"
         d="M 427.922,2115.61 C 426.441,1997.44 329.449,1902.84 211.289,1904.34 93.125,1905.82 -1.46875,2002.81 0.0195313,2120.97 L 10.3516,3038.26 c 0.7812,62.5 28.2812,118.38 71.4882,156.97 l -0.1445,0.16 196.2427,174.73 c 88.261,78.77 223.66,71.06 302.417,-17.2 78.762,-88.25 71.067,-223.65 -17.195,-302.41 l -125.969,-112.15 -9.269,-822.75"
         style="fill:#fbc589;fill-opacity:1;fill-rule:evenodd;stroke:none"
         transform="matrix(0.13333333,0,0,-0.13333333,0,789.74667)" />
      <path
         id="path40"
         d="m 780.094,1233.55 v 0 c 189.422,0 344.406,154.99 344.406,344.39 v 1876.84 c 0,189.42 -154.984,344.39 -344.406,344.39 v 0 c -189.414,0 -344.403,-154.97 -344.403,-344.39 V 1577.94 c 0,-189.4 154.989,-344.39 344.403,-344.39"
         style="fill:#cc2c23;fill-opacity:1;fill-rule:evenodd;stroke:none"
         transform="matrix(0.13333333,0,0,-0.13333333,0,789.74667)" />
      <path
         id="path41"
         d="m 1016.96,1950.82 c -80.733,-86.99 -216.73,-92.09 -303.733,-11.36 -87,80.73 -92.098,216.7 -11.375,303.71 l 596.108,642.46 -29.67,165.28 c -21.09,116.33 56.12,227.73 172.45,248.82 116.34,21.09 227.74,-56.14 248.84,-172.46 l 45.48,-253.31 c 18.84,-69.24 2.61,-146.35 -49.78,-202.83 l -668.32,-720.31"
         style="fill:#fbc589;fill-opacity:1;fill-rule:evenodd;stroke:none"
         transform="matrix(0.13333333,0,0,-0.13333333,0,789.74667)" />
      <path
         id="path42"
         d="m 114.078,2810.61 946.112,-13.64 5.85,-1509 c 0.5,-130.53 -46.2,-243.06 -138.993,-334.88 C 834.262,861.281 721.246,815.77 590.738,817.641 l -8.937,0.129 C 326.77,821.461 120.996,1029.4 120.004,1284.46 l -5.926,1526.15"
         style="fill:#fbc589;fill-opacity:1;fill-rule:evenodd;stroke:none"
         transform="matrix(0.13333333,0,0,-0.13333333,0,789.74667)" />
      <path
         id="path43"
         d="M 844.449,2216.38 C 763.715,2129.37 627.75,2124.27 540.738,2205 c -87.011,80.72 -92.101,216.72 -11.379,303.71 l 596.101,642.47 -29.66,165.27 c -21.1,116.32 56.12,227.73 172.46,248.82 116.32,21.09 227.73,-56.13 248.82,-172.47 l 45.48,-253.32 c 18.85,-69.23 2.62,-146.34 -49.78,-202.81 L 844.449,2216.38"
         style="fill:#fbc589;fill-opacity:1;fill-rule:evenodd;stroke:none"
         transform="matrix(0.13333333,0,0,-0.13333333,0,789.74667)" />
      <path
         id="path44"
         d="m 1005.65,1651.05 c -80.732,-87.02 -216.728,-92.1 -303.732,-11.37 -87.012,80.73 -92.098,216.72 -11.375,303.73 l 596.107,642.46 -29.68,165.25 c -21.09,116.33 56.12,227.74 172.46,248.82 116.33,21.09 227.74,-56.12 248.83,-172.45 l 45.49,-253.32 c 18.83,-69.25 2.6,-146.35 -49.78,-202.81 l -668.32,-720.31"
         style="fill:#fbc589;fill-opacity:1;fill-rule:evenodd;stroke:none"
         transform="matrix(0.13333333,0,0,-0.13333333,0,789.74667)" />
      <path
         id="path45"
         d="m 1191.6,1670.89 c -80.73,-87.01 -216.721,-92.1 -303.733,-11.37 -87.012,80.73 -92.109,216.71 -11.379,303.71 l 347.982,375.04 -11.56,64.35 c -21.1,116.34 56.13,227.74 172.47,248.84 116.32,21.08 227.72,-56.15 248.81,-172.48 l 27.38,-152.41 c 18.84,-69.24 2.6,-146.35 -49.8,-202.82 L 1191.6,1670.89"
         style="fill:#fbc589;fill-opacity:1;fill-rule:evenodd;stroke:none"
         transform="matrix(0.13333333,0,0,-0.13333333,0,789.74667)" />
      <path
         id="path46"
         d="m 780.094,3990.24 c 206.199,0 383.766,-79.29 463.966,-193.34 h 45.53 v -136.47 c 0,-182.14 -228.1,-329.8 -509.496,-329.8 -281.379,0 -509.481,147.66 -509.481,329.8 v 136.47 h 45.543 c 80.188,114.05 257.754,193.34 463.938,193.34"
         style="fill:#ef3220;fill-opacity:1;fill-rule:evenodd;stroke:none"
         transform="matrix(0.13333333,0,0,-0.13333333,0,789.74667)" />
      <path
         id="path47"
         d="m 780.113,3467.1 c 280.627,0 509.477,148.15 509.477,329.8 0,181.65 -228.85,329.81 -509.477,329.81 -280.625,0 -509.5,-148.16 -509.5,-329.81 0,-181.65 228.875,-329.8 509.5,-329.8"
         style="fill:#cc2c23;fill-opacity:1;fill-rule:evenodd;stroke:none"
         transform="matrix(0.13333333,0,0,-0.13333333,0,789.74667)" />
      <path
         id="path48"
         d="M 645.668,5636.98 H 914.516 V 3831.02 c 0,-107.22 -268.848,-113.1 -268.848,0 v 1805.96"
         style="fill:#cdccca;fill-opacity:1;fill-rule:evenodd;stroke:none"
         transform="matrix(0.13333333,0,0,-0.13333333,0,789.74667)" />
      <path
         id="path49"
         d="m 557.191,5889.45 h 445.819 l 68.26,-539.94 c 8.34,-65.97 -10.12,-126 -54.1,-175.87 -43.963,-49.89 -101.197,-75.73 -167.682,-75.73 H 710.719 c -66.485,0 -123.723,25.84 -167.696,75.73 -43.976,49.87 -62.433,109.9 -54.093,175.87 l 68.261,539.94"
         style="fill:#e8e8e7;fill-opacity:1;fill-rule:evenodd;stroke:none"
         transform="matrix(0.13333333,0,0,-0.13333333,0,789.74667)" />
      <path
         id="path50"
         d="m 557.191,5889.45 h 445.819 l 14.37,-113.73 H 542.828 l 14.363,113.73"
         style="fill:#464648;fill-opacity:1;fill-rule:evenodd;stroke:none"
         transform="matrix(0.13333333,0,0,-0.13333333,0,789.74667)" />
    </g>
  </g>
</svg>
