<?xml version="1.0" encoding="UTF-8" standalone="no"?>
<!-- Created with Inkscape (http://www.inkscape.org/) -->

<svg
   version="1.1"
   id="svg1"
   width="495.67999"
   height="654.21332"
   viewBox="0 0 495.67999 654.21332"
   sodipodi:docname="a-cook-is-preparing-a-meal-publicdomainvectors.org.svg"
   inkscape:version="1.3.2 (091e20ef0f, 2023-11-25, custom)"
   xmlns:inkscape="http://www.inkscape.org/namespaces/inkscape"
   xmlns:sodipodi="http://sodipodi.sourceforge.net/DTD/sodipodi-0.dtd"
   xmlns="http://www.w3.org/2000/svg"
   xmlns:svg="http://www.w3.org/2000/svg">
  <defs
     id="defs1" />
  <sodipodi:namedview
     id="namedview1"
     pagecolor="#505050"
     bordercolor="#ffffff"
     borderopacity="1"
     inkscape:showpageshadow="0"
     inkscape:pageopacity="0"
     inkscape:pagecheckerboard="1"
     inkscape:deskcolor="#d1d1d1"
     inkscape:zoom="1.1831003"
     inkscape:cx="248.07701"
     inkscape:cy="327.10666"
     inkscape:window-width="1920"
     inkscape:window-height="1002"
     inkscape:window-x="0"
     inkscape:window-y="0"
     inkscape:window-maximized="1"
     inkscape:current-layer="g1">
    <inkscape:page
       x="0"
       y="0"
       inkscape:label="1"
       id="page1"
       width="495.67999"
       height="654.21332"
       margin="0"
       bleed="0" />
  </sodipodi:namedview>
  <g
     id="g1"
     inkscape:groupmode="layer"
     inkscape:label="1">
    <g
       id="group-R5">
      <path
         id="path2"
         d="m 930.016,69.0703 c 0,5.1719 -0.739,9.6406 -2.278,13.2891 -1.484,3.7031 -3.574,6.5625 -6.269,8.582 -2.676,1.9688 -5.629,2.9688 -8.895,2.9688 -5.164,0 -9.527,-2.1797 -13.078,-6.3985 -3.555,-4.2812 -5.332,-10.5117 -5.332,-18.7812 0,-7.8008 1.777,-13.8516 5.274,-18.1211 3.554,-4.3399 7.941,-6.5196 13.136,-6.5196 3.106,0 6.016,0.9415 8.676,2.8516 2.617,1.8906 4.75,4.7109 6.363,8.4492 1.621,3.8086 2.403,8.3399 2.403,13.6797 z m -36.719,28.4922 v -2.3516 c 3.516,4.5079 7.156,7.8711 10.957,9.9691 3.809,2.14 8.137,3.23 12.949,3.23 5.75,0 11.059,-1.578 15.91,-4.68 4.844,-3.101 8.668,-7.6284 11.5,-13.6089 2.813,-5.9805 4.196,-13.0313 4.196,-21.2109 0,-6 -0.782,-11.5899 -2.414,-16.5586 -1.614,-5.0391 -3.856,-9.3008 -6.684,-12.6993 -2.836,-3.4101 -6.215,-6.0625 -10.055,-7.871 C 925.766,29.9023 921.602,29 917.203,29 c -5.387,0 -9.883,1.1094 -13.515,3.3594 -3.668,2.25 -7.118,5.5195 -10.391,9.8711 V 12.8906 C 893.297,4.28906 890.293,0 884.297,0 c -3.52,0 -5.871,1.08984 -6.977,3.30078 -1.164,2.23828 -1.726,5.48047 -1.726,9.71872 v 84.4219 c 0,3.7186 0.754,6.4996 2.324,8.3396 1.582,1.821 3.703,2.758 6.379,2.758 2.66,0 4.824,-0.937 6.484,-2.848 1.664,-1.902 2.516,-4.621 2.516,-8.1285"
         style="fill:#100f0d;fill-opacity:1;fill-rule:nonzero;stroke:none"
         transform="matrix(0.13333333,0,0,-0.13333333,0,654.21333)" />
      <path
         id="path3"
         d="m 1012.55,40.0703 v 2.4688 c -2.25,-2.9571 -4.6,-5.4297 -7.08,-7.4375 -2.47,-2.0313 -5.17,-3.5118 -8.083,-4.4727 -2.957,-0.9687 -6.289,-1.4687 -10.043,-1.4687 -4.504,0 -8.571,0.9804 -12.168,2.9296 -3.598,1.9493 -6.387,4.6602 -8.324,8.0821 -2.375,4.1601 -3.512,10.1367 -3.512,17.8867 v 38.75 c 0,3.9024 0.844,6.8514 2.543,8.7614 1.695,1.942 3.926,2.91 6.711,2.91 2.844,0 5.121,-0.968 6.867,-2.941 1.742,-1.976 2.605,-4.879 2.605,-8.7304 V 65.5 c 0,-4.5078 0.356,-8.3281 1.067,-11.3789 0.769,-3.0898 2.082,-5.5 3.996,-7.2695 1.863,-1.7227 4.453,-2.5821 7.691,-2.5821 3.196,0 6.16,0.9727 8.93,2.9219 2.81,1.9492 4.85,4.5 6.13,7.6484 1.05,2.7696 1.57,8.8321 1.57,18.1915 v 23.7773 c 0,3.8514 0.86,6.7544 2.62,8.7304 1.73,1.973 3.96,2.941 6.77,2.941 2.79,0 5.03,-0.968 6.73,-2.91 1.67,-1.91 2.51,-4.859 2.51,-8.7614 V 40.1719 c 0,-3.7227 -0.78,-6.5196 -2.41,-8.3633 -1.61,-1.8867 -3.7,-2.7891 -6.27,-2.7891 -2.56,0 -4.66,0.9922 -6.35,2.8594 -1.66,1.9727 -2.5,4.6524 -2.5,8.1914"
         style="fill:#100f0d;fill-opacity:1;fill-rule:nonzero;stroke:none"
         transform="matrix(0.13333333,0,0,-0.13333333,0,654.21333)" />
      <path
         id="path4"
         d="m 1066.9,68.2813 c 0,-7.7696 1.69,-13.7188 5.09,-17.9219 3.42,-4.1602 7.9,-6.2696 13.44,-6.2696 4.72,0 8.75,2.1407 12.19,6.4102 3.43,4.2891 5.13,10.3789 5.13,18.3594 0,5.2226 -0.71,9.6211 -2.13,13.332 -1.44,3.75 -3.46,6.6289 -6.04,8.6406 -2.65,2.0274 -5.65,3.0782 -9.15,3.0782 -3.59,0 -6.72,-1.0508 -9.54,-3.0782 -2.81,-2.0117 -4.98,-4.9531 -6.6,-8.8203 -1.6,-3.8125 -2.39,-8.3711 -2.39,-13.7304 z m -0.89,58.1287 V 96.5195 c 3.48,3.8595 7.1,6.7505 10.75,8.8325 3.67,2.007 8.22,3.058 13.6,3.058 6.23,0 11.68,-1.578 16.37,-4.621 4.68,-3.129 8.34,-7.5585 10.92,-13.4101 2.6,-5.8476 3.88,-12.7773 3.88,-20.7969 0,-5.9414 -0.71,-11.3711 -2.15,-16.3515 -1.44,-4.8985 -3.52,-9.1719 -6.27,-12.8399 -2.77,-3.6015 -6.1,-6.3906 -9.99,-8.4492 C 1099.18,30.0117 1094.87,29 1090.16,29 c -2.86,0 -5.59,0.3594 -8.15,1.0703 -2.53,0.7305 -4.71,1.6719 -6.45,2.8594 -1.82,1.1094 -3.33,2.3594 -4.6,3.5703 -1.24,1.2617 -2.89,3.1094 -4.95,5.5898 v -1.9179 c 0,-3.6797 -0.86,-6.4727 -2.56,-8.3633 -1.67,-1.8867 -3.86,-2.8086 -6.43,-2.8086 -2.68,0 -4.77,0.9219 -6.38,2.8086 -1.56,1.9414 -2.35,4.6914 -2.35,8.3633 v 85.3871 c 0,3.941 0.76,6.953 2.32,8.972 1.52,2.028 3.64,3.051 6.41,3.051 2.87,0 5.09,-0.973 6.63,-2.922 1.57,-1.918 2.36,-4.648 2.36,-8.25"
         style="fill:#100f0d;fill-opacity:1;fill-rule:nonzero;stroke:none"
         transform="matrix(0.13333333,0,0,-0.13333333,0,654.21333)" />
      <path
         id="path5"
         d="M 1134.75,40.9023 V 125.68 c 0,3.941 0.84,6.89 2.48,8.902 1.7,1.977 3.94,3 6.78,3 2.84,0 5.12,-0.98 6.86,-2.973 1.71,-1.98 2.62,-4.968 2.62,-8.929 V 40.9023 c 0,-3.9726 -0.91,-6.9609 -2.66,-8.9609 C 1149.08,30.0117 1146.8,29 1144.01,29 c -2.75,0 -4.95,1.0391 -6.68,3.0898 -1.71,2.0508 -2.58,4.9805 -2.58,8.8125"
         style="fill:#100f0d;fill-opacity:1;fill-rule:nonzero;stroke:none"
         transform="matrix(0.13333333,0,0,-0.13333333,0,654.21333)" />
      <path
         id="path6"
         d="M 1191.56,97.3711 V 40.9023 c 0,-3.9414 -0.92,-6.9023 -2.65,-8.9023 -1.81,-1.9609 -4.08,-3 -6.81,-3 -2.75,0 -4.99,1.0391 -6.69,3.0703 -1.7,2.0703 -2.59,5 -2.59,8.832 v 55.9063 c 0,3.8514 0.89,6.7544 2.59,8.7304 1.7,1.973 3.94,2.941 6.69,2.941 2.73,0 5,-0.968 6.81,-2.941 1.73,-1.976 2.65,-4.68 2.65,-8.1679 z m -9.27,20.2309 c -2.6,0 -4.81,0.82 -6.71,2.539 -1.81,1.66 -2.76,4.039 -2.76,7.109 0,2.762 0.95,5.012 2.86,6.84 1.9,1.801 4.1,2.64 6.61,2.64 2.43,0 4.58,-0.8 6.46,-2.41 1.87,-1.629 2.81,-4.011 2.81,-7.07 0,-3.027 -0.92,-5.391 -2.76,-7.051 -1.83,-1.699 -3.97,-2.597 -6.51,-2.597"
         style="fill:#100f0d;fill-opacity:1;fill-rule:nonzero;stroke:none"
         transform="matrix(0.13333333,0,0,-0.13333333,0,654.21333)" />
      <path
         id="path7"
         d="m 1278.02,53.2109 c 0,-2.4101 -0.69,-5.039 -2.07,-7.8086 -1.42,-2.7734 -3.54,-5.3828 -6.41,-7.8906 -2.85,-2.5 -6.45,-4.5195 -10.8,-6.0429 -4.34,-1.5665 -9.25,-2.3086 -14.68,-2.3086 -11.58,0 -20.61,3.5195 -27.11,10.5586 -6.49,7.0507 -9.74,16.4609 -9.74,28.3125 0,8.0078 1.48,15.1289 4.44,21.2578 2.96,6.1406 7.3,10.9299 12.91,14.2739 5.61,3.398 12.36,5.078 20.16,5.078 4.86,0 9.32,-0.762 13.38,-2.219 4.04,-1.492 7.47,-3.41 10.28,-5.723 2.82,-2.3474 4.96,-4.8474 6.45,-7.4802 1.51,-2.6602 2.23,-5.1368 2.23,-7.4297 0,-2.3086 -0.85,-4.2891 -2.5,-5.918 -1.68,-1.6406 -3.69,-2.4414 -6.07,-2.4414 -1.57,0 -2.85,0.4492 -3.9,1.2812 -1,0.8086 -2.16,2.1211 -3.46,4.0196 -2.28,3.6211 -4.68,6.3593 -7.17,8.2109 -2.5,1.8008 -5.66,2.7305 -9.47,2.7305 -5.57,0 -10.03,-2.3008 -13.41,-6.8008 -3.39,-4.5391 -5.07,-10.6992 -5.07,-18.5313 0,-3.6601 0.44,-7.0781 1.31,-10.1406 0.87,-3.0898 2.12,-5.707 3.76,-7.8906 1.65,-2.1797 3.63,-3.8164 5.97,-4.9297 2.33,-1.1484 4.9,-1.6992 7.67,-1.6992 3.78,0 6.97,0.9023 9.66,2.7109 2.68,1.8282 5.05,4.6016 7.1,8.2813 1.14,2.2578 2.38,3.957 3.71,5.2187 1.34,1.25 2.97,1.8399 4.88,1.8399 2.29,0 4.18,-0.8789 5.71,-2.6992 1.48,-1.8594 2.24,-3.7696 2.24,-5.8204"
         style="fill:#100f0d;fill-opacity:1;fill-rule:nonzero;stroke:none"
         transform="matrix(0.13333333,0,0,-0.13333333,0,654.21333)" />
      <path
         id="path8"
         d="m 1308.89,68.8594 c 0,-5.2969 0.78,-9.7774 2.35,-13.5274 1.59,-3.7304 3.72,-6.5 6.46,-8.3906 2.77,-1.9101 5.77,-2.8516 8.99,-2.8516 3.3,0 6.3,0.9219 9.02,2.6797 2.74,1.793 4.89,4.5625 6.54,8.2618 1.62,3.6796 2.42,8.3203 2.42,13.8281 0,5.2422 -0.8,9.6797 -2.42,13.4531 -1.65,3.75 -3.84,6.6094 -6.59,8.6289 -2.78,1.9688 -5.79,2.9688 -9.08,2.9688 -3.43,0 -6.49,-1.0508 -9.2,-3.0782 -2.68,-2.0117 -4.8,-4.9531 -6.28,-8.75 -1.47,-3.8125 -2.21,-8.1718 -2.21,-13.2226 z m 36.81,-28.6875 v 1.9179 c -2.52,-3.0078 -4.99,-5.4492 -7.47,-7.3085 -2.4,-1.9102 -5.08,-3.3399 -7.94,-4.3204 -2.84,-0.9492 -5.97,-1.4609 -9.35,-1.4609 -4.48,0 -8.65,1.0117 -12.46,2.9414 -3.81,2.0586 -7.11,4.8477 -9.91,8.5195 -2.78,3.6914 -4.89,8 -6.34,12.9805 -1.46,4.9609 -2.17,10.3203 -2.17,16.1406 0,12.1797 2.86,21.75 8.59,28.5782 5.73,6.8318 13.24,10.2498 22.56,10.2498 5.4,0 9.95,-0.988 13.65,-2.961 3.7,-1.91 7.33,-4.89 10.84,-8.9295 v 28.8825 c 0,4.008 0.76,7.039 2.31,9.09 1.52,2.067 3.68,3.09 6.53,3.09 2.84,0 5.02,-0.961 6.57,-2.82 1.52,-1.883 2.31,-4.66 2.31,-8.352 V 40.1719 c 0,-3.7227 -0.83,-6.5196 -2.49,-8.3633 -1.65,-1.8867 -3.76,-2.8086 -6.39,-2.8086 -2.53,0 -4.67,0.9688 -6.35,2.8789 -1.66,1.9414 -2.49,4.6797 -2.49,8.293"
         style="fill:#100f0d;fill-opacity:1;fill-rule:nonzero;stroke:none"
         transform="matrix(0.13333333,0,0,-0.13333333,0,654.21333)" />
      <path
         id="path9"
         d="m 1433.54,68.6992 c 0,7.9531 -1.7,14.1797 -5.04,18.6133 -3.37,4.418 -7.9,6.6563 -13.56,6.6563 -3.68,0 -6.89,-0.9883 -9.68,-2.9766 -2.79,-2.0117 -4.94,-4.9297 -6.45,-8.8008 -1.5,-3.8125 -2.27,-8.3125 -2.27,-13.4922 0,-5.1094 0.77,-9.5586 2.23,-13.3672 1.48,-3.8203 3.62,-6.75 6.41,-8.7812 2.75,-2.0195 6.03,-3.0195 9.76,-3.0195 5.66,0 10.19,2.2187 13.56,6.6679 3.34,4.461 5.04,10.6524 5.04,18.5 z m 18.8,0 c 0,-5.789 -0.88,-11.1484 -2.6,-16.1094 -1.74,-4.8906 -4.26,-9.121 -7.54,-12.6679 -3.31,-3.543 -7.25,-6.1719 -11.82,-8.1133 C 1425.82,29.9219 1420.63,29 1414.94,29 c -5.66,0 -10.78,0.9219 -15.29,2.8594 -4.53,1.9101 -8.47,4.6406 -11.79,8.2109 -3.3,3.5586 -5.8,7.7305 -7.54,12.5703 -1.72,4.8907 -2.57,10.211 -2.57,16.1016 0,5.918 0.88,11.3281 2.6,16.2266 1.73,4.9531 4.22,9.1132 7.48,12.6328 3.25,3.4684 7.17,6.1604 11.82,8.0274 4.64,1.902 9.7,2.851 15.29,2.851 5.68,0 10.83,-0.949 15.44,-2.871 4.61,-1.898 8.57,-4.64 11.86,-8.1676 3.32,-3.5312 5.81,-7.7695 7.5,-12.6406 1.75,-4.8516 2.6,-10.2188 2.6,-16.1016"
         style="fill:#100f0d;fill-opacity:1;fill-rule:nonzero;stroke:none"
         transform="matrix(0.13333333,0,0,-0.13333333,0,654.21333)" />
      <path
         id="path10"
         d="m 1531.46,84.8594 c -1.41,-3.3086 -2.08,-9.1406 -2.08,-17.5391 V 41.3516 c 0,-4.1016 -0.87,-7.211 -2.68,-9.2618 -1.77,-2.0507 -4.16,-3.0898 -7.08,-3.0898 -2.81,0 -5.1,1.0391 -6.85,3.0898 -1.77,2.0508 -2.63,5.1602 -2.63,9.2618 v 31.1679 c 0,4.9102 -0.19,8.7227 -0.51,11.4727 -0.32,2.6992 -1.18,4.9375 -2.6,6.6875 -1.39,1.7617 -3.65,2.6211 -6.7,2.6211 -6.13,0 -10.16,-2.1992 -12.12,-6.6094 -1.96,-4.3789 -2.88,-10.6914 -2.88,-18.9219 V 41.3516 c 0,-4.0899 -0.91,-7.1719 -2.64,-9.1993 C 1480.9,30.0391 1478.58,29 1475.73,29 c -2.86,0 -5.21,1.0391 -7,3.1523 -1.82,2.0274 -2.68,5.1094 -2.68,9.1875 v 55.9297 c 0,3.6995 0.78,6.4925 2.38,8.3905 1.65,1.903 3.79,2.879 6.46,2.879 2.56,0 4.7,-0.898 6.4,-2.687 1.71,-1.782 2.57,-4.243 2.57,-7.3911 v -1.8711 c 3.24,4.0702 6.73,7.0512 10.42,8.9492 3.7,1.91 7.86,2.871 12.35,2.871 4.7,0 8.74,-0.988 12.12,-2.961 3.4,-1.949 6.18,-4.91 8.36,-8.8592 3.16,3.9692 6.55,6.9732 10.18,8.9102 3.61,1.949 7.61,2.91 11.98,2.91 5.16,0 9.57,-1.051 13.24,-3.168 3.72,-2.113 6.48,-5.101 8.32,-9.0115 1.61,-3.5508 2.4,-9.0899 2.4,-16.711 V 41.3516 c 0,-4.1016 -0.89,-7.211 -2.65,-9.2618 -1.83,-2.0507 -4.15,-3.0898 -7.09,-3.0898 -2.84,0 -5.16,1.0391 -6.95,3.1523 -1.83,2.0274 -2.74,5.1094 -2.74,9.1993 v 32.8906 c 0,4.1992 -0.16,7.5469 -0.49,10.0976 -0.36,2.5508 -1.28,4.6407 -2.81,6.3711 -1.5,1.7305 -3.8,2.5899 -6.84,2.5899 -2.46,0 -4.82,-0.7695 -7,-2.2695 -2.26,-1.5391 -3.94,-3.5899 -5.2,-6.1719 v 0"
         style="fill:#100f0d;fill-opacity:1;fill-rule:nonzero;stroke:none"
         transform="matrix(0.13333333,0,0,-0.13333333,0,654.21333)" />
      <path
         id="path11"
         d="m 1637.54,68.3398 c -2.75,-1.0898 -6.75,-2.1601 -11.98,-3.3476 -5.25,-1.1602 -8.87,-2.0195 -10.89,-2.582 -2.01,-0.5704 -3.94,-1.6211 -5.74,-3.211 -1.85,-1.6367 -2.78,-3.8672 -2.78,-6.7383 0,-2.9921 1.09,-5.4804 3.22,-7.5586 2.17,-2.1132 4.99,-3.121 8.46,-3.121 3.71,0 7.14,0.8476 10.26,2.5507 3.13,1.6875 5.45,3.8868 6.9,6.5469 1.69,2.9727 2.55,7.832 2.55,14.6719 z m 1.22,-28.3203 c -4.54,-3.6875 -8.91,-6.4297 -13.14,-8.2382 C 1621.4,29.9023 1616.63,29 1611.4,29 c -4.84,0 -9.02,1.0117 -12.68,2.9414 -3.67,2 -6.44,4.6992 -8.42,8.1289 -1.94,3.3711 -2.95,7.0195 -2.95,11 0,5.3516 1.66,9.8906 4.9,13.6602 3.22,3.7617 7.68,6.289 13.35,7.6015 1.19,0.2891 4.16,0.9102 8.84,1.9102 4.76,1.0195 8.76,1.9297 12.17,2.7578 3.33,0.8086 7,1.8516 10.93,3.0195 -0.24,5.1797 -1.23,8.961 -2.97,11.4297 -1.79,2.3906 -5.46,3.5625 -10.97,3.5625 -4.78,0 -8.33,-0.6797 -10.77,-2.0508 -2.39,-1.3789 -4.46,-3.4687 -6.15,-6.2695 -1.74,-2.7617 -2.92,-4.5898 -3.63,-5.4609 -0.74,-0.9102 -2.26,-1.3008 -4.55,-1.3008 -2.14,0 -3.95,0.6914 -5.46,2.082 -1.56,1.418 -2.31,3.1875 -2.31,5.4297 0,3.4297 1.16,6.8008 3.48,10 2.34,3.2576 5.99,5.9176 10.92,8.0586 4.93,2.102 11.11,3.141 18.47,3.141 8.22,0 14.7,-1.039 19.44,-3.071 4.7,-2.007 8,-5.191 9.96,-9.6091 1.95,-4.3789 2.92,-10.2304 2.92,-17.4804 0,-4.5703 0,-8.4883 -0.03,-11.6719 -0.04,-3.2188 -0.06,-6.7578 -0.1,-10.6875 0,-3.6602 0.58,-7.5 1.76,-11.4688 1.14,-3.9921 1.72,-6.5703 1.72,-7.6914 0,-2.0117 -0.92,-3.8515 -2.71,-5.4921 C 1654.79,29.832 1652.71,29 1650.45,29 c -1.95,0 -3.81,0.9219 -5.72,2.8086 -1.87,1.8906 -3.86,4.6406 -5.97,8.2109"
         style="fill:#100f0d;fill-opacity:1;fill-rule:nonzero;stroke:none"
         transform="matrix(0.13333333,0,0,-0.13333333,0,654.21333)" />
      <path
         id="path12"
         d="M 1693.68,97.3711 V 40.9023 c 0,-3.9414 -0.9,-6.9023 -2.65,-8.9023 -1.79,-1.9609 -4.03,-3 -6.79,-3 -2.74,0 -5,1.0391 -6.69,3.0703 -1.74,2.0703 -2.6,5 -2.6,8.832 v 55.9063 c 0,3.8514 0.86,6.7544 2.6,8.7304 1.69,1.973 3.95,2.941 6.69,2.941 2.76,0 5,-0.968 6.79,-2.941 1.75,-1.976 2.65,-4.68 2.65,-8.1679 z m -9.26,20.2309 c -2.57,0 -4.8,0.82 -6.65,2.539 -1.86,1.66 -2.82,4.039 -2.82,7.109 0,2.762 0.98,5.012 2.88,6.84 1.88,1.801 4.11,2.64 6.59,2.64 2.44,0 4.61,-0.8 6.49,-2.41 1.85,-1.629 2.77,-4.011 2.77,-7.07 0,-3.027 -0.9,-5.391 -2.74,-7.051 -1.82,-1.699 -3.99,-2.597 -6.52,-2.597"
         style="fill:#100f0d;fill-opacity:1;fill-rule:nonzero;stroke:none"
         transform="matrix(0.13333333,0,0,-0.13333333,0,654.21333)" />
      <path
         id="path13"
         d="m 1730.09,97.6602 v -2.3399 c 3.27,4.5195 6.87,7.8597 10.75,9.9807 3.93,2.121 8.42,3.179 13.52,3.179 4.91,0 9.35,-1.121 13.27,-3.378 3.84,-2.231 6.77,-5.3832 8.68,-9.4731 1.25,-2.4101 2.02,-5.0195 2.41,-7.7695 0.34,-2.7383 0.56,-6.2891 0.56,-10.5977 V 40.9023 c 0,-3.9414 -0.89,-6.9023 -2.6,-8.9023 -1.72,-1.9609 -3.96,-3 -6.69,-3 -2.78,0 -5.05,1.0391 -6.72,3.0898 -1.76,2.0508 -2.66,4.9805 -2.66,8.8125 v 32.5586 c 0,6.4805 -0.84,11.3985 -2.55,14.8008 -1.75,3.4102 -5.18,5.1485 -10.3,5.1485 -3.33,0 -6.37,-1.0704 -9.11,-3.1485 -2.73,-2.0508 -4.75,-4.9219 -6.03,-8.5508 -0.91,-2.9218 -1.4,-8.332 -1.4,-16.3515 V 40.9023 c 0,-3.9726 -0.86,-6.9609 -2.63,-8.9609 -1.76,-1.9297 -4.04,-2.9414 -6.82,-2.9414 -2.68,0 -4.91,1.0391 -6.65,3.0703 -1.77,2.0703 -2.62,5 -2.62,8.832 v 56.4688 c 0,3.7379 0.78,6.4879 2.35,8.3479 1.52,1.844 3.7,2.761 6.39,2.761 1.61,0 3.12,-0.441 4.43,-1.21 1.37,-0.801 2.39,-2.059 3.2,-3.629 0.77,-1.649 1.22,-3.629 1.22,-5.9808"
         style="fill:#100f0d;fill-opacity:1;fill-rule:nonzero;stroke:none"
         transform="matrix(0.13333333,0,0,-0.13333333,0,654.21333)" />
      <path
         id="path14"
         d="m 1809.33,96.3203 15.13,-44.3984 16.34,46.3281 c 1.31,3.742 2.56,6.34 3.81,7.91 1.25,1.539 3.09,2.32 5.59,2.32 2.39,0 4.4,-0.839 6.12,-2.519 1.64,-1.672 2.47,-3.559 2.47,-5.82 0,-0.8519 -0.17,-1.8285 -0.46,-2.9496 -0.27,-1.1719 -0.61,-2.2422 -1.02,-3.2695 -0.39,-0.961 -0.8,-2.1328 -1.33,-3.4024 L 1838,43.9609 c -0.49,-1.332 -1.16,-3.039 -1.96,-5.1015 -0.8,-2.0391 -1.71,-3.7578 -2.67,-5.2696 -1.01,-1.4375 -2.21,-2.539 -3.63,-3.3593 -1.47,-0.8203 -3.22,-1.2305 -5.28,-1.2305 -2.64,0 -4.75,0.6289 -6.35,1.8711 -1.58,1.2812 -2.75,2.6484 -3.49,4.1914 -0.74,1.4688 -2.05,4.4688 -3.81,8.8984 l -17.85,46.0508 c -0.42,1.1172 -0.86,2.2696 -1.31,3.418 -0.4,1.1523 -0.74,2.3008 -1.05,3.5117 -0.31,1.2188 -0.46,2.25 -0.46,3.0706 0,1.347 0.38,2.679 1.18,3.988 0.78,1.32 1.85,2.41 3.22,3.219 1.39,0.82 2.85,1.261 4.47,1.261 3.08,0 5.24,-0.917 6.41,-2.82 1.17,-1.84 2.49,-4.961 3.91,-9.3397"
         style="fill:#100f0d;fill-opacity:1;fill-rule:nonzero;stroke:none"
         transform="matrix(0.13333333,0,0,-0.13333333,0,654.21333)" />
      <path
         id="path15"
         d="m 1885.95,75.1016 h 33.96 c -0.43,6.6484 -2.16,11.6484 -5.17,14.9492 -3.01,3.3008 -6.96,4.9609 -11.86,4.9609 -4.63,0 -8.48,-1.6797 -11.46,-5.0312 -2.99,-3.3399 -4.8,-8.3203 -5.47,-14.8789 z m 36.65,-11.1407 h -36.65 c 0.02,-4.4492 0.9,-8.3593 2.55,-11.7812 1.69,-3.3477 3.89,-5.9102 6.69,-7.6484 2.75,-1.7422 5.82,-2.5704 9.16,-2.5704 2.22,0 4.29,0.2696 6.13,0.8086 1.83,0.5821 3.65,1.4297 5.41,2.5821 1.7,1.1797 3.29,2.3906 4.77,3.789 1.46,1.3321 3.41,3.1016 5.7,5.4219 0.97,0.8984 2.36,1.3086 4.11,1.3086 1.96,0 3.49,-0.5391 4.7,-1.6719 1.18,-1.0976 1.73,-2.6289 1.73,-4.6289 0,-1.7695 -0.64,-3.8398 -1.99,-6.2187 -1.29,-2.3321 -3.26,-4.6094 -5.99,-6.8203 -2.68,-2.1602 -6.04,-3.9297 -10.09,-5.4024 C 1914.81,29.7188 1910.17,29 1904.87,29 c -12.02,0 -21.38,3.6016 -28.04,10.7305 -6.68,7.1992 -10,16.8906 -10,29.1289 0,5.8594 0.86,11.1601 2.47,16.1015 1.64,4.961 4.03,9.1797 7.19,12.6993 3.17,3.5588 7.03,6.2808 11.66,8.1408 4.65,1.898 9.75,2.84 15.39,2.84 7.27,0 13.57,-1.61 18.8,-4.852 5.27,-3.23 9.17,-7.3593 11.77,-12.457 2.62,-5.1328 3.92,-10.3203 3.92,-15.6601 0,-4.8828 -1.3,-8.0703 -4.04,-9.5117 -2.71,-1.4805 -6.5,-2.1993 -11.39,-2.1993"
         style="fill:#100f0d;fill-opacity:1;fill-rule:nonzero;stroke:none"
         transform="matrix(0.13333333,0,0,-0.13333333,0,654.21333)" />
      <path
         id="path16"
         d="m 2021.03,53.2109 c 0,-2.4101 -0.71,-5.039 -2.13,-7.8086 -1.41,-2.7734 -3.48,-5.3828 -6.37,-7.8906 -2.85,-2.5 -6.49,-4.5195 -10.84,-6.0429 -4.32,-1.5665 -9.24,-2.3086 -14.64,-2.3086 -11.61,0 -20.63,3.5195 -27.12,10.5586 -6.48,7.0507 -9.75,16.4609 -9.75,28.3125 0,8.0078 1.47,15.1289 4.48,21.2578 2.97,6.1406 7.23,10.9299 12.89,14.2739 5.58,3.398 12.34,5.078 20.17,5.078 4.85,0 9.28,-0.762 13.36,-2.219 4.05,-1.492 7.45,-3.41 10.3,-5.723 2.81,-2.3474 4.94,-4.8474 6.44,-7.4802 1.49,-2.6602 2.23,-5.1368 2.23,-7.4297 0,-2.3086 -0.83,-4.2891 -2.56,-5.918 -1.64,-1.6406 -3.65,-2.4414 -6.04,-2.4414 -1.56,0 -2.85,0.4492 -3.86,1.2812 -1.04,0.8086 -2.19,2.1211 -3.48,4.0196 -2.28,3.6211 -4.67,6.3593 -7.16,8.2109 -2.51,1.8008 -5.66,2.7305 -9.52,2.7305 -5.51,0 -9.97,-2.3008 -13.36,-6.8008 -3.42,-4.5391 -5.1,-10.6992 -5.1,-18.5313 0,-3.6601 0.47,-7.0781 1.31,-10.1406 0.86,-3.0898 2.13,-5.707 3.79,-7.8906 1.64,-2.1797 3.64,-3.8164 5.97,-4.9297 2.3,-1.1484 4.87,-1.6992 7.68,-1.6992 3.74,0 6.98,0.9023 9.65,2.7109 2.66,1.8282 5.06,4.6016 7.11,8.2813 1.15,2.2578 2.37,3.957 3.71,5.2187 1.31,1.25 2.91,1.8399 4.87,1.8399 2.26,0 4.18,-0.8789 5.64,-2.6992 1.54,-1.8594 2.33,-3.7696 2.33,-5.8204"
         style="fill:#100f0d;fill-opacity:1;fill-rule:nonzero;stroke:none"
         transform="matrix(0.13333333,0,0,-0.13333333,0,654.21333)" />
      <path
         id="path17"
         d="m 2038.42,106.832 h 2.06 v 11.758 c 0,3.133 0.08,5.633 0.25,7.402 0.15,1.797 0.57,3.297 1.33,4.617 0.72,1.313 1.76,2.422 3.16,3.262 1.36,0.809 2.9,1.219 4.59,1.219 2.37,0 4.52,-0.918 6.43,-2.77 1.25,-1.257 2.09,-2.75 2.44,-4.531 0.35,-1.797 0.49,-4.367 0.49,-7.648 v -13.309 h 6.89 c 2.66,0 4.69,-0.652 6.08,-1.98 1.42,-1.313 2.11,-2.973 2.11,-5.0317 0,-2.6289 -1,-4.5 -3.01,-5.5312 -1.99,-1.0196 -4.84,-1.5469 -8.54,-1.5469 h -3.53 V 56.7305 c 0,-3.0703 0.13,-5.4102 0.31,-7.0899 0.25,-1.6484 0.82,-2.9883 1.7,-3.9883 0.86,-1.0312 2.31,-1.5625 4.35,-1.5625 1.08,0 2.57,0.1915 4.46,0.6016 1.84,0.4102 3.32,0.6172 4.38,0.6172 1.5,0 2.91,-0.6563 4.1,-1.8672 1.19,-1.3008 1.79,-2.8398 1.79,-4.6992 0,-3.1524 -1.6,-5.5703 -4.92,-7.2305 C 2072.02,29.832 2067.29,29 2061.14,29 c -5.86,0 -10.31,1.0391 -13.34,3.0898 -3,2.0508 -5,4.8711 -5.9,8.5391 -0.97,3.6406 -1.42,8.4727 -1.42,14.5313 v 37.582 h -2.49 c -2.65,0 -4.72,0.668 -6.14,2.0078 -1.44,1.332 -2.13,3.0117 -2.13,5.0703 0,2.0587 0.72,3.7187 2.2,5.0317 1.51,1.328 3.64,1.98 6.5,1.98"
         style="fill:#100f0d;fill-opacity:1;fill-rule:nonzero;stroke:none"
         transform="matrix(0.13333333,0,0,-0.13333333,0,654.21333)" />
      <path
         id="path18"
         d="m 2138.43,68.6992 c 0,7.9531 -1.7,14.1797 -5.04,18.6133 -3.4,4.418 -7.87,6.6563 -13.58,6.6563 -3.67,0 -6.87,-0.9883 -9.64,-2.9766 -2.82,-2.0117 -4.97,-4.9297 -6.47,-8.8008 -1.5,-3.8125 -2.26,-8.3125 -2.26,-13.4922 0,-5.1094 0.76,-9.5586 2.24,-13.3672 1.49,-3.8203 3.6,-6.75 6.37,-8.7812 2.75,-2.0195 6.01,-3.0195 9.76,-3.0195 5.71,0 10.18,2.2187 13.58,6.6679 3.34,4.461 5.04,10.6524 5.04,18.5 z m 18.81,0 c 0,-5.789 -0.86,-11.1484 -2.64,-16.1094 -1.72,-4.8906 -4.26,-9.121 -7.52,-12.6679 -3.3,-3.543 -7.25,-6.1719 -11.8,-8.1133 C 2130.67,29.9219 2125.56,29 2119.81,29 c -5.68,0 -10.8,0.9219 -15.29,2.8594 -4.53,1.9101 -8.48,4.6406 -11.78,8.2109 -3.3,3.5586 -5.82,7.7305 -7.52,12.5703 -1.69,4.8907 -2.53,10.211 -2.53,16.1016 0,5.918 0.84,11.3281 2.53,16.2266 1.78,4.9531 4.24,9.1132 7.5,12.6328 3.27,3.4684 7.19,6.1604 11.8,8.0274 4.67,1.902 9.75,2.851 15.29,2.851 5.71,0 10.84,-0.949 15.47,-2.871 4.61,-1.898 8.56,-4.64 11.86,-8.1676 3.24,-3.5312 5.82,-7.7695 7.52,-12.6406 1.72,-4.8516 2.58,-10.2188 2.58,-16.1016"
         style="fill:#100f0d;fill-opacity:1;fill-rule:nonzero;stroke:none"
         transform="matrix(0.13333333,0,0,-0.13333333,0,654.21333)" />
      <path
         id="path19"
         d="M 2190.6,57.1719 V 40.9023 c 0,-3.9726 -0.9,-6.9609 -2.68,-8.9609 -1.8,-1.9297 -4.04,-2.9414 -6.82,-2.9414 -2.65,0 -4.92,1.0391 -6.64,3 -1.72,2 -2.59,4.9609 -2.59,8.9023 v 54.4063 c 0,8.7934 3.02,13.1714 9.12,13.1714 3.08,0 5.33,-1.031 6.73,-3.058 1.35,-2.063 2.07,-5.102 2.25,-9.1017 2.23,3.9997 4.55,7.0387 6.93,9.1017 2.35,2.027 5.47,3.058 9.38,3.058 3.98,0 7.77,-1.031 11.5,-3.058 3.69,-2.063 5.57,-4.793 5.57,-8.1798 0,-2.3711 -0.82,-4.3828 -2.4,-5.9102 -1.55,-1.5429 -3.26,-2.3515 -5.12,-2.3515 -0.66,0 -2.34,0.4609 -4.96,1.3593 -2.66,0.8711 -4.96,1.3321 -6.99,1.3321 -2.72,0 -4.96,-0.7305 -6.68,-2.2696 -1.76,-1.5234 -3.11,-3.7226 -4.07,-6.6835 -0.95,-3 -1.66,-6.5 -1.99,-10.5899 -0.35,-4.0586 -0.54,-9.0273 -0.54,-14.957"
         style="fill:#100f0d;fill-opacity:1;fill-rule:nonzero;stroke:none"
         transform="matrix(0.13333333,0,0,-0.13333333,0,654.21333)" />
      <path
         id="path20"
         d="m 2290.38,54.5508 c 0,-5.4102 -1.25,-10.0195 -3.81,-13.8711 -2.52,-3.8594 -6.23,-6.7383 -11.15,-8.7383 C 2270.5,30.0117 2264.52,29 2257.45,29 c -6.68,0 -12.46,1.0703 -17.28,3.2422 -4.81,2.1289 -8.36,4.8086 -10.63,8.0273 -2.32,3.1993 -3.5,6.4414 -3.5,9.6719 0,2.1484 0.77,3.9883 2.25,5.5195 1.47,1.5586 3.32,2.2813 5.53,2.2813 1.99,0 3.51,-0.5117 4.57,-1.4805 1.05,-1.0625 2.03,-2.4297 3.03,-4.2617 1.91,-3.4805 4.2,-6.0781 6.91,-7.8008 2.64,-1.75 6.29,-2.5976 10.94,-2.5976 3.75,0 6.81,0.8984 9.24,2.6289 2.36,1.7383 3.61,3.7304 3.61,5.9687 0,3.461 -1.27,5.9805 -3.75,7.5313 -2.52,1.6211 -6.6,3.1211 -12.33,4.5312 -6.44,1.6797 -11.71,3.4297 -15.76,5.2578 -4.04,1.8516 -7.32,4.2813 -9.72,7.293 -2.43,2.957 -3.66,6.6875 -3.66,11.0898 0,3.9297 1.14,7.629 3.38,11.0977 2.23,3.5 5.57,6.27 9.94,8.352 4.36,2.097 9.61,3.128 15.82,3.128 4.83,0 9.18,-0.531 13.07,-1.578 3.87,-1.05 7.15,-2.472 9.69,-4.211 2.58,-1.769 4.57,-3.7418 5.9,-5.8824 1.36,-2.1484 2.03,-4.2578 2.03,-6.2891 0,-2.2578 -0.7,-4.0586 -2.17,-5.5507 -1.44,-1.3868 -3.52,-2.0977 -6.13,-2.0977 -1.96,0 -3.58,0.5586 -4.94,1.7383 -1.33,1.1211 -2.89,2.832 -4.61,5.082 -1.43,1.918 -3.09,3.4688 -5.02,4.5977 -1.94,1.1406 -4.53,1.7304 -7.82,1.7304 -3.39,0 -6.23,-0.75 -8.43,-2.2578 -2.25,-1.5 -3.38,-3.3828 -3.38,-5.6328 0,-2.0664 0.84,-3.7383 2.46,-5.0586 1.66,-1.3086 3.87,-2.3906 6.68,-3.2695 2.79,-0.8516 6.62,-1.9219 11.52,-3.1485 5.84,-1.4804 10.57,-3.2304 14.24,-5.3007 3.69,-2.0313 6.49,-4.461 8.38,-7.25 1.91,-2.8203 2.87,-6.0118 2.87,-9.5508"
         style="fill:#100f0d;fill-opacity:1;fill-rule:nonzero;stroke:none"
         transform="matrix(0.13333333,0,0,-0.13333333,0,654.21333)" />
      <path
         id="path21"
         d="m 2311.65,29 c -2.83,0 -5.29,0.9219 -7.32,2.8594 -2.09,1.9101 -3.11,4.5898 -3.11,8 0,2.9101 0.96,5.4219 2.91,7.5312 1.97,2.0782 4.41,3.1094 7.31,3.1094 2.85,0 5.33,-1.0312 7.32,-3.1094 2.05,-2.039 3.07,-4.6015 3.07,-7.5312 0,-3.3672 -1.02,-6.0391 -3.07,-7.9805 C 2316.77,29.9688 2314.38,29 2311.65,29"
         style="fill:#100f0d;fill-opacity:1;fill-rule:nonzero;stroke:none"
         transform="matrix(0.13333333,0,0,-0.13333333,0,654.21333)" />
      <path
         id="path22"
         d="m 2394.48,68.6992 c 0,7.9531 -1.68,14.1797 -5.06,18.6133 -3.36,4.418 -7.85,6.6563 -13.53,6.6563 -3.65,0 -6.84,-0.9883 -9.65,-2.9766 -2.81,-2.0117 -4.94,-4.9297 -6.45,-8.8008 -1.5,-3.8125 -2.26,-8.3125 -2.26,-13.4922 0,-5.1094 0.72,-9.5586 2.21,-13.3672 1.54,-3.8203 3.63,-6.75 6.4,-8.7812 2.76,-2.0195 6.02,-3.0195 9.75,-3.0195 5.68,0 10.17,2.2187 13.53,6.6679 3.38,4.461 5.06,10.6524 5.06,18.5 z m 18.83,0 c 0,-5.789 -0.86,-11.1484 -2.62,-16.1094 -1.75,-4.8906 -4.24,-9.121 -7.56,-12.6679 -3.32,-3.543 -7.2,-6.1719 -11.79,-8.1133 C 2386.79,29.9219 2381.63,29 2375.89,29 c -5.65,0 -10.76,0.9219 -15.27,2.8594 -4.54,1.9101 -8.44,4.6406 -11.76,8.2109 -3.36,3.5586 -5.86,7.7305 -7.6,12.5703 -1.68,4.8907 -2.54,10.211 -2.54,16.1016 0,5.918 0.86,11.3281 2.62,16.2266 1.76,4.9531 4.22,9.1132 7.44,12.6328 3.24,3.4684 7.19,6.1604 11.84,8.0274 4.6,1.902 9.66,2.851 15.27,2.851 5.68,0 10.82,-0.949 15.45,-2.871 4.65,-1.898 8.59,-4.64 11.89,-8.1676 3.26,-3.5312 5.76,-7.7695 7.5,-12.6406 1.72,-4.8516 2.58,-10.2188 2.58,-16.1016"
         style="fill:#100f0d;fill-opacity:1;fill-rule:nonzero;stroke:none"
         transform="matrix(0.13333333,0,0,-0.13333333,0,654.21333)" />
      <path
         id="path23"
         d="M 2446.67,57.1719 V 40.9023 c 0,-3.9726 -0.9,-6.9609 -2.68,-8.9609 -1.75,-1.9297 -4.04,-2.9414 -6.77,-2.9414 -2.74,0 -4.93,1.0391 -6.68,3 -1.76,2 -2.6,4.9609 -2.6,8.9023 v 54.4063 c 0,8.7934 3.07,13.1714 9.12,13.1714 3.13,0 5.35,-1.031 6.7,-3.058 1.37,-2.063 2.17,-5.102 2.32,-9.1017 2.21,3.9997 4.5,7.0387 6.86,9.1017 2.36,2.027 5.51,3.058 9.41,3.058 4.01,0 7.82,-1.031 11.49,-3.058 3.71,-2.063 5.56,-4.793 5.56,-8.1798 0,-2.3711 -0.8,-4.3828 -2.34,-5.9102 -1.62,-1.5429 -3.28,-2.3515 -5.16,-2.3515 -0.66,0 -2.3,0.4609 -4.94,1.3593 -2.63,0.8711 -4.96,1.3321 -6.99,1.3321 -2.71,0 -4.96,-0.7305 -6.74,-2.2696 -1.72,-1.5234 -3.04,-3.7226 -4.04,-6.6835 -0.92,-3 -1.6,-6.5 -1.95,-10.5899 -0.37,-4.0586 -0.57,-9.0273 -0.57,-14.957"
         style="fill:#100f0d;fill-opacity:1;fill-rule:nonzero;stroke:none"
         transform="matrix(0.13333333,0,0,-0.13333333,0,654.21333)" />
      <path
         id="path24"
         d="m 2500.75,69.3789 c 0,-7.918 1.68,-13.9062 5,-18 3.28,-4.0195 7.62,-6.0703 12.83,-6.0703 3.09,0 6.08,0.9023 8.83,2.6406 2.78,1.7422 5.04,4.3711 6.76,7.8828 1.78,3.5196 2.62,7.7578 2.62,12.7696 0,7.9687 -1.7,14.1601 -5.06,18.5898 -3.34,4.4805 -7.78,6.7188 -13.26,6.7188 -5.34,0 -9.63,-2.1797 -12.85,-6.3985 -3.25,-4.2695 -4.87,-10.2929 -4.87,-18.1328 z m 54.3,24.8008 V 37.3594 c 0,-6.5078 -0.7,-12.0899 -1.99,-16.75 C 2551.73,15.9102 2549.6,12.0508 2546.67,9 2543.74,5.96094 2539.89,3.69141 2535.19,2.21094 2530.46,0.75 2524.54,0 2517.51,0 c -6.47,0 -12.25,0.921875 -17.29,2.78906 -5.09,1.92969 -9.02,4.33985 -11.75,7.33984 -2.74,2.9609 -4.12,6.0313 -4.12,9.2031 0,2.4102 0.76,4.3282 2.36,5.8203 1.52,1.5586 3.42,2.2969 5.6,2.2969 2.76,0 5.12,-1.2773 7.21,-3.7969 1.02,-1.332 2.07,-2.6132 3.13,-3.9101 1.07,-1.3203 2.26,-2.4727 3.55,-3.3828 1.33,-0.9375 2.91,-1.6406 4.73,-2.0899 1.79,-0.4492 3.92,-0.6875 6.33,-0.6875 4.8,0 8.59,0.7188 11.27,2.1172 2.67,1.4024 4.55,3.3711 5.64,5.9024 1.03,2.5273 1.72,5.2304 1.82,8.1172 0.23,2.9414 0.35,7.5429 0.48,13.9609 -2.87,-4.1992 -6.27,-7.3906 -10,-9.5781 -3.77,-2.2227 -8.28,-3.2813 -13.45,-3.2813 -6.33,0 -11.8,1.6485 -16.45,5.0117 -4.72,3.3282 -8.34,8 -10.84,14.0274 -2.48,6.0117 -3.77,12.9492 -3.77,20.832 0,5.9102 0.74,11.2109 2.33,15.9492 1.48,4.6914 3.65,8.6797 6.54,11.9297 2.81,3.2497 6.09,5.7187 9.79,7.3597 3.73,1.633 7.75,2.48 12.24,2.48 5.27,0 9.86,-1.09 13.75,-3.23 3.95,-2.098 7.5,-5.4612 10.86,-9.9691 v 2.6094 c 0,3.4217 0.84,6.0317 2.4,7.9417 1.6,1.84 3.67,2.777 6.17,2.777 3.64,0 6.02,-1.219 7.23,-3.687 1.19,-2.45 1.78,-6.0395 1.78,-10.6723"
         style="fill:#100f0d;fill-opacity:1;fill-rule:nonzero;stroke:none"
         transform="matrix(0.13333333,0,0,-0.13333333,0,654.21333)" />
      <path
         id="path25"
         d="m 1743.15,284.539 h 27.79 c -1.97,-14.969 -8.1,-26.668 -18.31,-35.09 -9.46,-8.238 -20.9,-12.297 -34.26,-12.297 -18.14,0 -32.63,6.368 -43.44,19.09 -10.25,12.11 -15.37,27.727 -15.37,46.809 0,19.558 5.09,35.199 15.22,47.051 10.13,11.777 24.45,17.707 42.97,17.707 13.77,0 25.42,-3.727 34.88,-11.118 10,-8 16.14,-19.222 18.31,-33.601 h -27.79 c -2.4,12.551 -10.05,18.781 -23.09,18.781 -21.48,0 -32.23,-12.719 -32.23,-38.172 0,-11.929 2.77,-21.668 8.29,-29.25 5.52,-7.617 13.31,-11.418 23.35,-11.418 14.98,0 22.87,7.18 23.68,21.508 z m -109.38,17.531 c 0,-24.859 7.89,-45.91 23.63,-63.058 15.77,-17.16 35.07,-25.731 57.96,-25.731 22.8,0 42.11,8.571 57.85,25.731 15.79,17.148 23.62,38.199 23.62,63.058 0,24.852 -7.83,45.891 -23.62,63.039 -15.74,17.18 -35.05,25.762 -57.85,25.762 -22.89,0 -42.19,-8.582 -57.96,-25.762 -15.74,-17.148 -23.63,-38.187 -23.63,-63.039 z m -28.23,0 c 0,31.649 10.71,58.649 32.14,81.09 21.46,22.391 47.36,33.61 77.68,33.61 30.26,0 56.11,-11.219 77.6,-33.61 21.45,-22.441 32.18,-49.441 32.18,-81.09 0,-31.66 -10.73,-58.711 -32.18,-81.101 -21.49,-22.43 -47.34,-33.637 -77.6,-33.637 -30.32,0 -56.22,11.207 -77.68,33.637 -21.43,22.39 -32.14,49.441 -32.14,81.101"
         style="fill:#100f0d;fill-opacity:1;fill-rule:nonzero;stroke:none"
         transform="matrix(0.13333333,0,0,-0.13333333,0,654.21333)" />
      <path
         id="path26"
         d="m 1649.97,230.141 16.02,-13.582 117.75,151.211 -16.01,13.582 -117.76,-151.211"
         style="fill:#100f0d;fill-opacity:1;fill-rule:nonzero;stroke:none"
         transform="matrix(0.13333333,0,0,-0.13333333,0,654.21333)" />
      <path
         id="path27"
         d="m 2002.59,4906.57 c 1023.45,0 1788.74,-877.58 1709.32,-1960.13 C 3632.49,1863.88 2738.44,986.301 1714.99,986.301 691.531,986.301 -73.7578,1863.88 5.66406,2946.44 85.082,4028.99 979.133,4906.57 2002.59,4906.57"
         style="fill:#fcd09d;fill-opacity:1;fill-rule:evenodd;stroke:none"
         transform="matrix(0.13333333,0,0,-0.13333333,0,654.21333)" />
      <path
         id="path28"
         d="m 3183.05,2896.36 -40.74,-5.51 c -127.87,-17.3 -258.01,3.23 -374.33,59.06 l 800.99,108.39 c -97.3,-84.74 -217.3,-139.12 -345.17,-156.42 l -40.75,-5.52"
         style="fill:#7d373e;fill-opacity:1;fill-rule:evenodd;stroke:none"
         transform="matrix(0.13333333,0,0,-0.13333333,0,654.21333)" />
      <path
         id="path29"
         d="m 2442.38,2942.31 477.43,64.61 c 17.16,2.32 33.1,-9.81 35.42,-26.97 v 0 c 2.32,-17.16 -9.82,-33.09 -26.97,-35.41 l -477.44,-64.61 c -17.16,-2.32 -33.09,9.81 -35.41,26.97 v 0 c -2.33,17.16 9.81,33.09 26.97,35.41"
         style="fill:#7d373e;fill-opacity:1;fill-rule:evenodd;stroke:none"
         transform="matrix(0.13333333,0,0,-0.13333333,0,654.21333)" />
      <path
         id="path30"
         d="m 3151.54,3129.23 c 232.74,31.5 427.2,14.33 434.32,-38.34 7.13,-52.67 -175.77,-120.9 -408.51,-152.39 -232.74,-31.5 -427.19,-14.33 -434.32,38.34 -7.13,52.67 175.77,120.9 408.51,152.39"
         style="fill:#1b1918;fill-opacity:1;fill-rule:evenodd;stroke:none"
         transform="matrix(0.13333333,0,0,-0.13333333,0,654.21333)" />
      <path
         id="path31"
         d="m 2331.69,2965.33 58.99,21.03 22.74,22.57 c 32.56,32.31 82.2,40.01 123.01,19.07 29.87,-15.32 63.15,-22.81 96.71,-21.74 6.28,0.2 12.29,-2.61 16.16,-7.56 3.88,-4.94 5.17,-11.44 3.47,-17.49 -2.99,-10.66 -8.76,-20.31 -16.73,-27.98 l 54.56,-61.3 c 10.19,-11.45 10.85,-28.51 1.57,-40.71 -9.28,-12.2 -25.9,-16.11 -39.65,-9.35 l -82.07,-55.38 c -23.54,-15.88 -54.64,-14.8 -77.02,2.69 -27.6,21.56 -54.2,44.37 -79.72,68.36 l -45.55,-18.19 -36.47,125.98"
         style="fill:#f15031;fill-opacity:1;fill-rule:evenodd;stroke:none"
         transform="matrix(0.13333333,0,0,-0.13333333,0,654.21333)" />
      <path
         id="path32"
         d="M 1804.16,2127.34 V 1877.9 c 8.81,-427.59 -52.26,-853.16 -179.86,-1253.298 h -185 c -57.82,375.007 -182.81,934.168 -115.64,1364.328 l 480.5,138.41"
         style="fill:#1b1918;fill-opacity:1;fill-rule:evenodd;stroke:none"
         transform="matrix(0.13333333,0,0,-0.13333333,0,654.21333)" />
      <path
         id="path33"
         d="m 1128.39,2684.92 -154.179,-435.9 c -25.469,-72.01 -25.469,-153.1 0,-225.11 L 904.828,1458.1 C 870.992,1182.17 862.379,902.719 879.133,624.602 H 1033.3 l 95.09,158.179 c 191.34,318.329 323.17,681.299 386.71,1064.699 l -386.71,837.44"
         style="fill:#2e2d2d;fill-opacity:1;fill-rule:evenodd;stroke:none"
         transform="matrix(0.13333333,0,0,-0.13333333,0,654.21333)" />
      <path
         id="path34"
         d="m 1639.72,3444.11 c 79.23,-50.41 138.83,-126.4 168.9,-215.35 l 159.31,-244.44 408.64,3.71 32.93,-135.45 -48.34,-32.56 -35.16,-39.08 c -134.31,-149.29 -325.66,-234.58 -526.47,-234.65 l -329.98,353.01 170.17,544.81"
         style="fill:#fef2e3;fill-opacity:1;fill-rule:evenodd;stroke:none"
         transform="matrix(0.13333333,0,0,-0.13333333,0,654.21333)" />
      <path
         id="path35"
         d="m 1084.72,3444.08 -110.509,-45.59 23.129,-333.98 -7.711,-442.02 c -3.77,-216.31 164.261,-396.83 380.291,-408.55 l -143.89,1189.69 -141.31,40.45"
         style="fill:#ffffff;fill-opacity:1;fill-rule:evenodd;stroke:none"
         transform="matrix(0.13333333,0,0,-0.13333333,0,654.21333)" />
      <path
         id="path36"
         d="m 995.398,2953.37 -5.769,-330.88 c -0.223,-12.77 0.176,-25.41 1.125,-37.91 94.496,140.72 135.326,298.64 104.596,417.45 l -10.63,41.13 -89.322,-89.79"
         style="fill:#fef2e3;fill-opacity:1;fill-rule:evenodd;stroke:none"
         transform="matrix(0.13333333,0,0,-0.13333333,0,654.21333)" />
      <path
         id="path37"
         d="m 1022.12,2507.1 h 267.23 v 73.24 h -267.23 v -73.24"
         style="fill:#7d373e;fill-opacity:1;fill-rule:evenodd;stroke:none"
         transform="matrix(0.13333333,0,0,-0.13333333,0,654.21333)" />
      <path
         id="path38"
         d="m 1639.72,3444.11 c 132.37,-208.02 262.09,-659.57 262.09,-925.03 V 1418.67 h -686.06 v 1108.11 c 0,313.81 26.69,741.13 -131.03,917.3 l 258.89,75.55 296.11,-75.52"
         style="fill:#7d373e;fill-opacity:1;fill-rule:evenodd;stroke:none"
         transform="matrix(0.13333333,0,0,-0.13333333,0,654.21333)" />
      <path
         id="path39"
         d="m 1171.38,3469.37 172.23,50.26 221.03,-56.38 c 23.62,-51.62 43.13,-107.37 57.96,-163.99 5.53,-21.06 1.36,-41.53 -11.94,-58.77 -13.31,-17.24 -32.05,-26.45 -53.83,-26.45 h -178.05 c -42.34,0 -78.3,26.18 -91.29,66.48 -24.25,75.21 -60.13,146.07 -116.11,188.85"
         style="fill:#ffffff;fill-opacity:1;fill-rule:evenodd;stroke:none"
         transform="matrix(0.13333333,0,0,-0.13333333,0,654.21333)" />
      <path
         id="path40"
         d="m 1759.4,3048.71 c 18.73,-104.3 31.32,-223.72 34.13,-329.87 h -353.89 c 10.57,111.69 20.17,229.68 16.37,329.87 h 303.39"
         style="fill:#95464f;fill-opacity:1;fill-rule:evenodd;stroke:none"
         transform="matrix(0.13333333,0,0,-0.13333333,0,654.21333)" />
      <path
         id="path41"
         d="m 1089.62,2474.31 57.47,-24.89 32.04,0.98 c 45.84,1.41 87.38,-26.84 102.92,-70 11.38,-31.58 30.6,-59.76 55.86,-81.89 4.73,-4.14 7.2,-10.29 6.66,-16.55 -0.54,-6.26 -4.04,-11.89 -9.41,-15.16 -9.45,-5.74 -20.26,-8.86 -31.32,-9.03 l -1.95,-82.04 c -0.36,-15.32 -11.52,-28.25 -26.63,-30.83 -15.11,-2.58 -29.93,5.9 -35.36,20.23 l -97.78,15.52 c -28.05,4.46 -50.05,26.47 -54.47,54.52 -5.46,34.6 -9.34,69.42 -11.63,104.37 l -45.7,17.79 59.3,116.98"
         style="fill:#f15031;fill-opacity:1;fill-rule:evenodd;stroke:none"
         transform="matrix(0.13333333,0,0,-0.13333333,0,654.21333)" />
      <path
         id="path42"
         d="M 974.211,3398.49 C 909.137,3369.78 855.742,3319.82 822.773,3256.8 768.297,3152.68 705.074,3053.38 633.785,2959.96 567.703,2873.36 524.27,2771.64 507.43,2664.02 l 68.429,-99.47 c 100.539,-146.12 268.473,-231.11 445.761,-225.59 l 39.65,-29.59 19.74,27.47 91.76,115.65 -220.715,325.15 167.775,138.69 c 133.26,149.39 61.81,431.91 -145.619,482.16"
         style="fill:#ffffff;fill-opacity:1;fill-rule:evenodd;stroke:none"
         transform="matrix(0.13333333,0,0,-0.13333333,0,654.21333)" />
      <path
         id="path43"
         d="m 1127.54,4049.59 c -2.07,0.11 -4.15,0.23 -6.24,0.39 -128.933,10.02 -225.339,122.65 -215.331,251.59 9.269,119.39 106.541,210.88 223.271,215.81 45.42,38.46 105.41,59.74 169.43,54.77 128.93,-10.01 225.34,-122.65 215.33,-251.58 -2.34,-30.11 -10.28,-58.43 -22.7,-84.05 l 153.94,-227.21 -418.8,-220.6 c 0.65,8.35 -1.08,5.09 -0.33,14.74 l -98.57,246.14"
         style="fill:#ffffff;fill-opacity:1;fill-rule:evenodd;stroke:none"
         transform="matrix(0.13333333,0,0,-0.13333333,0,654.21333)" />
      <path
         id="path44"
         d="m 1284.03,3792.87 230.19,-45.19 -23.6,-303.6 -230.19,45.18 23.6,303.61"
         style="fill:#ed421e;fill-opacity:1;fill-rule:evenodd;stroke:none"
         transform="matrix(0.13333333,0,0,-0.13333333,0,654.21333)" />
      <path
         id="path45"
         d="m 1189.87,4047.09 h 449.37 l 49.08,-342.45 c 17.71,-123.58 -68.91,-224.68 -192.48,-224.68 h -0.01 c -123.57,0 -239.17,101.1 -256.88,224.68 l -49.08,342.45"
         style="fill:#f15031;fill-opacity:1;fill-rule:evenodd;stroke:none"
         transform="matrix(0.13333333,0,0,-0.13333333,0,654.21333)" />
      <path
         id="path46"
         d="m 1603.04,3631.82 c 5.83,-43.04 -24.44,-78.13 -67.54,-78.13 h -0.01 c -43.1,0 -83.43,35.09 -89.93,78.13 h 157.48"
         style="fill:#ffffff;fill-opacity:1;fill-rule:evenodd;stroke:none"
         transform="matrix(0.13333333,0,0,-0.13333333,0,654.21333)" />
      <path
         id="path47"
         d="m 1662.21,3886.82 28.41,126.67 c 4.55,53.13 -23.05,103.11 -69.2,129.81 -21.81,12.63 -48.77,13.83 -74.89,16.6 -95.47,10.17 -207.88,-26.81 -271.43,-26.81 -43.26,0 -80.75,-29.94 -90.31,-72.13 l -10.87,-15.8 c -22.66,-32.97 -28.52,-74.68 -15.8,-112.62 43.47,-129.74 70.02,-226.63 108.96,-357.8 l 39.38,151.32 8.89,82.49 h 50.24 l -26.03,126.95 208.95,-12.84 c 36.78,-2.06 73.33,7.1 104.8,26.27 l 8.9,-62.11"
         style="fill:#2e2d2d;fill-opacity:1;fill-rule:evenodd;stroke:none"
         transform="matrix(0.13333333,0,0,-0.13333333,0,654.21333)" />
      <path
         id="path48"
         d="m 1271.48,3862.58 c 24.69,4.08 50.79,-29.43 58.28,-74.84 7.49,-45.41 -6.46,-85.52 -31.15,-89.59 -24.69,-4.08 -50.79,29.43 -58.28,74.84 -7.49,45.41 6.46,85.52 31.15,89.59"
         style="fill:#f15031;fill-opacity:1;fill-rule:evenodd;stroke:none"
         transform="matrix(0.13333333,0,0,-0.13333333,0,654.21333)" />
      <path
         id="path49"
         d="m 1508.27,3840.51 -66.92,-8.85 c -7.42,-0.98 -14.66,-3.35 -21.46,-7.03 l -10.16,24.47 c 11.79,8.95 25.12,14.52 38.98,16.32 l 56.96,7.37 2.6,-32.28"
         style="fill:#2e2d2d;fill-opacity:1;fill-rule:evenodd;stroke:none"
         transform="matrix(0.13333333,0,0,-0.13333333,0,654.21333)" />
      <path
         id="path50"
         d="m 1462.97,3753.03 c 13.98,0 25.38,15.15 25.38,33.74 0,18.59 -11.4,33.75 -25.38,33.75 -13.98,0 -25.39,-15.16 -25.39,-33.75 0,-18.59 11.41,-33.74 25.39,-33.74"
         style="fill:#2e2d2d;fill-opacity:1;fill-rule:evenodd;stroke:none"
         transform="matrix(0.13333333,0,0,-0.13333333,0,654.21333)" />
      <path
         id="path51"
         d="m 1574.39,3840.51 55.07,-8.85 c 6.11,-0.98 12.07,-3.35 17.67,-7.03 l 8.36,24.47 c -9.71,8.95 -20.68,14.52 -32.08,16.32 l -46.88,7.37 -2.14,-32.28"
         style="fill:#2e2d2d;fill-opacity:1;fill-rule:evenodd;stroke:none"
         transform="matrix(0.13333333,0,0,-0.13333333,0,654.21333)" />
      <path
         id="path52"
         d="m 1606.21,3753.03 c 12.4,0 22.5,15.15 22.5,33.74 0,18.59 -10.1,33.75 -22.5,33.75 -12.39,0 -22.5,-15.16 -22.5,-33.75 0,-18.59 10.11,-33.74 22.5,-33.74"
         style="fill:#2e2d2d;fill-opacity:1;fill-rule:evenodd;stroke:none"
         transform="matrix(0.13333333,0,0,-0.13333333,0,654.21333)" />
      <path
         id="path53"
         d="m 1569.82,3680.44 c 21.95,0 34.3,9.59 34.3,0 0,-9.6 -25.94,-33 -47.88,-33 -21.94,0 -31.58,23.4 -31.58,33 0,9.59 23.22,0 45.16,0"
         style="fill:#ed421e;fill-opacity:1;fill-rule:evenodd;stroke:none"
         transform="matrix(0.13333333,0,0,-0.13333333,0,654.21333)" />
      <path
         id="path54"
         d="M 1542.96,4160.26 C 1410.04,4137.7 1263.27,4076 1152.36,3987.63 l -0.85,126.39 222.59,110.45 168.86,-64.21"
         style="fill:#ffffff;fill-opacity:1;fill-rule:evenodd;stroke:none"
         transform="matrix(0.13333333,0,0,-0.13333333,0,654.21333)" />
      <path
         id="path55"
         d="m 3154.84,3145 c -55.26,1.79 -72.74,14.97 -101.45,54.58 -9.92,13.68 5.11,-1.18 9.66,12.42 27.06,58.95 109.36,36.72 161.4,37.67 77.59,1.4 95.09,26.48 151.39,70.34 24.07,18.76 49.68,31.18 79.88,22.58 17.01,-4.85 22.28,17.23 21.92,-29.6 -0.38,-51.17 -76.32,-82.83 -115.96,-101.74 -59.17,-28.21 -141.33,-62.77 -206.84,-66.25"
         style="fill:#7d373e;fill-opacity:1;fill-rule:evenodd;stroke:none"
         transform="matrix(0.13333333,0,0,-0.13333333,0,654.21333)" />
      <path
         id="path56"
         d="m 3079.93,3182.53 c -75.32,32.9 -29.45,109.78 58.45,103.46 88.99,-4.86 128.42,-5.77 200.56,52.06 30.65,24.57 81.55,61.41 121.57,35.09 39.34,-25.87 -10.58,-75.43 -34.05,-91.37 -71.08,-48.25 -160.47,-86.29 -243.66,-107.54 -39.91,-10.2 -64.95,-6.45 -102.87,8.3"
         style="fill:#ab4f5b;fill-opacity:1;fill-rule:evenodd;stroke:none"
         transform="matrix(0.13333333,0,0,-0.13333333,0,654.21333)" />
      <path
         id="path57"
         d="m 2872.6,3313.69 c -44.65,18.21 -54.96,34.28 -66.43,75.39 -3.97,14.19 3.82,-2.52 11.66,7.22 40,40.02 100.58,-3.1 143.42,-18.11 63.89,-22.37 85.81,-7.16 145.15,11.65 25.37,8.04 50.08,10.44 72.17,-5.75 12.44,-9.12 23.45,7.34 8.96,-30.85 -15.82,-41.73 -87.53,-44.62 -125.68,-48.06 -56.95,-5.14 -134.61,-8.51 -189.25,8.51"
         style="fill:#7d373e;fill-opacity:1;fill-rule:evenodd;stroke:none"
         transform="matrix(0.13333333,0,0,-0.13333333,0,654.21333)" />
      <path
         id="path58"
         d="m 2822.71,3367.08 c -51.63,49.74 9.18,98.72 79.17,66.91 71.3,-30.95 103.27,-43.65 179.81,-18.22 32.51,10.81 85.3,25.51 110.06,-8.14 24.34,-33.09 -31.52,-58.49 -55.54,-64.41 -72.76,-17.92 -157.4,-21.94 -231.88,-14.1 -35.74,3.75 -55.08,14.41 -81.62,37.96"
         style="fill:#ab4f5b;fill-opacity:1;fill-rule:evenodd;stroke:none"
         transform="matrix(0.13333333,0,0,-0.13333333,0,654.21333)" />
      <path
         id="path59"
         d="m 1539.25,706.73 36.61,-37.261 c 83.04,-84.5 189.2,-142.598 305.13,-167.02 10.52,-2.207 17.94,-11.636 17.62,-22.367 -0.32,-10.742 -8.28,-19.711 -18.9,-21.312 h -476.65 l 36.24,165.832 99.95,82.128"
         style="fill:#1b1918;fill-opacity:1;fill-rule:evenodd;stroke:none"
         transform="matrix(0.13333333,0,0,-0.13333333,0,654.21333)" />
      <path
         id="path60"
         d="M 1036.26,750.422 H 919.344 L 894.934,706.73 C 857.793,640.27 812.473,578.719 760.031,523.512 c -10.004,-10.532 -13.23,-25.801 -8.343,-39.481 4.882,-13.679 17.054,-23.449 31.468,-25.261 h 10.282 291.642 c 12.62,8.82 20.74,22.73 22.22,38.062 1.49,15.32 -3.82,30.527 -14.51,41.598 -46.49,48.152 -68.69,114.75 -60.39,181.16 l 3.86,30.832"
         style="fill:#2e2d2d;fill-opacity:1;fill-rule:evenodd;stroke:none"
         transform="matrix(0.13333333,0,0,-0.13333333,0,654.21333)" />
    </g>
  </g>
</svg>
