<?xml version="1.0" encoding="UTF-8" standalone="no"?>
<!-- Created with Inkscape (http://www.inkscape.org/) -->

<svg
   version="1.1"
   id="svg1"
   width="747.74664"
   height="771.10669"
   viewBox="0 0 747.74664 771.10669"
   sodipodi:docname="architect-engineer-developing-a-construction-of-house.svg"
   inkscape:version="1.3.2 (091e20ef0f, 2023-11-25, custom)"
   xmlns:inkscape="http://www.inkscape.org/namespaces/inkscape"
   xmlns:sodipodi="http://sodipodi.sourceforge.net/DTD/sodipodi-0.dtd"
   xmlns="http://www.w3.org/2000/svg"
   xmlns:svg="http://www.w3.org/2000/svg">
  <defs
     id="defs1" />
  <sodipodi:namedview
     id="namedview1"
     pagecolor="#505050"
     bordercolor="#ffffff"
     borderopacity="1"
     inkscape:showpageshadow="0"
     inkscape:pageopacity="0"
     inkscape:pagecheckerboard="1"
     inkscape:deskcolor="#d1d1d1"
     inkscape:zoom="0.85724223"
     inkscape:cx="373.87332"
     inkscape:cy="386.1219"
     inkscape:window-width="1920"
     inkscape:window-height="1002"
     inkscape:window-x="0"
     inkscape:window-y="0"
     inkscape:window-maximized="1"
     inkscape:current-layer="g1">
    <inkscape:page
       x="0"
       y="0"
       inkscape:label="1"
       id="page1"
       width="747.74664"
       height="771.10669"
       margin="0"
       bleed="0" />
  </sodipodi:namedview>
  <g
     id="g1"
     inkscape:groupmode="layer"
     inkscape:label="1">
    <g
       id="group-R5">
      <path
         id="path2"
         d="m 1613.22,100.27 c 0,7.519 -1.08,14 -3.31,19.3 -2.16,5.391 -5.19,9.539 -9.1,12.469 -3.89,2.84 -8.18,4.301 -12.91,4.301 -7.5,0 -13.84,-3.16 -18.99,-9.301 -5.16,-6.199 -7.74,-15.25 -7.74,-27.2499 0,-11.3203 2.58,-20.1094 7.66,-26.3086 5.15,-6.3086 11.52,-9.4688 19.07,-9.4688 4.5,0 8.73,1.3594 12.59,4.1485 3.8,2.7304 6.9,6.8281 9.24,12.2617 2.35,5.5273 3.49,12.0976 3.49,19.8481 z m -53.31,41.371 v -3.411 c 5.1,6.54 10.39,11.442 15.9,14.481 5.53,3.098 11.82,4.668 18.8,4.668 8.35,0 16.06,-2.27 23.1,-6.777 7.03,-4.512 12.59,-11.063 16.7,-19.77 4.08,-8.684 6.09,-18.91 6.09,-30.781 0,-8.7112 -1.14,-16.8322 -3.5,-24.0393 -2.35,-7.3203 -5.6,-13.5117 -9.71,-18.4531 -4.12,-4.9492 -9.02,-8.7891 -14.59,-11.418 -5.65,-2.7187 -11.7,-4.0312 -18.09,-4.0312 -7.81,0 -14.34,1.6211 -19.62,4.8906 -5.33,3.25 -10.33,8 -15.08,14.3203 V 18.7188 C 1559.91,6.21875 1555.55,0 1546.85,0 c -5.12,0 -8.53,1.60156 -10.14,4.80078 -1.68,3.23828 -2.5,7.94922 -2.5,14.09762 V 141.461 c 0,5.398 1.09,9.449 3.37,12.109 2.3,2.641 5.37,4.012 9.27,4.012 3.85,0 6.99,-1.371 9.41,-4.141 2.42,-2.75 3.65,-6.703 3.65,-11.8"
         style="fill:#100f0d;fill-opacity:1;fill-rule:nonzero;stroke:none"
         transform="matrix(0.13333333,0,0,-0.13333333,0,771.10667)" />
      <path
         id="path3"
         d="M 1733.04,58.1719 V 61.75 c -3.27,-4.2891 -6.68,-7.8711 -10.28,-10.7695 -3.59,-2.961 -7.51,-5.1094 -11.74,-6.5 -4.29,-1.4219 -9.13,-2.1407 -14.58,-2.1407 -6.54,0 -12.44,1.4297 -17.67,4.25 -5.22,2.8321 -9.27,6.7618 -12.08,11.7422 -3.44,6.0391 -5.09,14.7071 -5.09,25.9688 V 140.57 c 0,5.641 1.22,9.918 3.69,12.719 2.46,2.801 5.7,4.211 9.73,4.211 4.14,0 7.44,-1.41 9.98,-4.281 2.53,-2.848 3.77,-7.078 3.77,-12.649 V 95.0898 c 0,-6.5312 0.53,-12.0781 1.56,-16.5078 1.12,-4.4922 3.02,-7.9922 5.8,-10.5625 2.7,-2.4882 6.46,-3.7578 11.17,-3.7578 4.63,0 8.94,1.4375 12.96,4.2696 4.09,2.8085 7.05,6.5078 8.89,11.0898 1.53,4.0312 2.29,12.8281 2.29,26.4099 v 34.539 c 0,5.571 1.26,9.801 3.8,12.649 2.5,2.871 5.75,4.281 9.83,4.281 4.06,0 7.31,-1.41 9.77,-4.211 2.43,-2.801 3.64,-7.078 3.64,-12.719 V 58.332 c 0,-5.4023 -1.13,-9.4726 -3.49,-12.1406 -2.34,-2.7422 -5.38,-4.0625 -9.11,-4.0625 -3.71,0 -6.76,1.4414 -9.21,4.1719 -2.42,2.8476 -3.63,6.7383 -3.63,11.8711"
         style="fill:#100f0d;fill-opacity:1;fill-rule:nonzero;stroke:none"
         transform="matrix(0.13333333,0,0,-0.13333333,0,771.10667)" />
      <path
         id="path4"
         d="m 1811.94,99.1406 c 0,-11.2812 2.46,-19.9297 7.39,-26.0195 4.97,-6.0391 11.47,-9.1094 19.52,-9.1094 6.85,0 12.7,3.1172 17.69,9.3086 4.97,6.2188 7.45,15.0586 7.45,26.6485 0,7.5702 -1.04,13.9802 -3.11,19.3712 -2.08,5.441 -5.02,9.621 -8.76,12.539 -3.84,2.941 -8.2,4.461 -13.27,4.461 -5.23,0 -9.77,-1.52 -13.85,-4.461 -4.09,-2.918 -7.25,-7.207 -9.59,-12.797 -2.33,-5.543 -3.47,-12.16 -3.47,-19.9414 z m -1.29,84.3904 v -43.39 c 5.05,5.601 10.3,9.8 15.6,12.808 5.33,2.93 11.93,4.43 19.75,4.43 9.04,0 16.95,-2.27 23.76,-6.688 6.8,-4.55 12.11,-10.992 15.85,-19.48 3.78,-8.481 5.64,-18.563 5.64,-30.199 0,-8.6097 -1.04,-16.4807 -3.11,-23.7112 -2.1,-7.1406 -5.11,-13.332 -9.12,-18.6602 -4.02,-5.2422 -8.86,-9.2695 -14.51,-12.25 -5.71,-2.8203 -11.97,-4.2812 -18.8,-4.2812 -4.15,0 -8.12,0.5312 -11.83,1.5508 -3.67,1.0507 -6.84,2.4101 -9.37,4.1601 -2.63,1.6016 -4.84,3.4102 -6.67,5.168 -1.81,1.8437 -4.21,4.5117 -7.19,8.1211 V 58.332 c 0,-5.3632 -1.26,-9.3906 -3.72,-12.1406 -2.42,-2.7422 -5.6,-4.082 -9.34,-4.082 -3.88,0 -6.93,1.3398 -9.26,4.082 -2.26,2.8086 -3.4,6.7969 -3.4,12.1406 v 123.969 c 0,5.711 1.1,10.07 3.36,13.012 2.21,2.957 5.28,4.417 9.3,4.417 4.16,0 7.4,-1.398 9.63,-4.23 2.28,-2.781 3.43,-6.762 3.43,-11.969"
         style="fill:#100f0d;fill-opacity:1;fill-rule:nonzero;stroke:none"
         transform="matrix(0.13333333,0,0,-0.13333333,0,771.10667)" />
      <path
         id="path5"
         d="M 1910.44,59.3906 V 182.469 c 0,5.722 1.21,9.992 3.6,12.91 2.47,2.891 5.73,4.351 9.85,4.351 4.12,0 7.42,-1.421 9.96,-4.308 2.48,-2.863 3.8,-7.211 3.8,-12.953 V 59.3906 c 0,-5.7617 -1.32,-10.1015 -3.87,-13 -2.53,-2.8203 -5.85,-4.2812 -9.89,-4.2812 -3.99,0 -7.19,1.5 -9.7,4.4804 -2.5,2.9805 -3.75,7.2305 -3.75,12.8008"
         style="fill:#100f0d;fill-opacity:1;fill-rule:nonzero;stroke:none"
         transform="matrix(0.13333333,0,0,-0.13333333,0,771.10667)" />
      <path
         id="path6"
         d="M 1992.92,141.379 V 59.3906 c 0,-5.7187 -1.33,-10.0195 -3.86,-12.9297 -2.61,-2.8515 -5.92,-4.3515 -9.87,-4.3515 -4,0 -7.25,1.5 -9.72,4.4531 -2.47,3.0078 -3.76,7.2578 -3.76,12.8281 V 140.57 c 0,5.571 1.29,9.801 3.76,12.649 2.47,2.871 5.72,4.281 9.72,4.281 3.95,0 7.26,-1.41 9.87,-4.281 2.53,-2.848 3.86,-6.778 3.86,-11.84 z m -13.46,29.351 c -3.79,0 -6.99,1.211 -9.75,3.7 -2.62,2.41 -4,5.871 -4,10.32 0,3.988 1.38,7.281 4.15,9.922 2.76,2.609 5.95,3.828 9.6,3.828 3.52,0 6.66,-1.141 9.37,-3.488 2.71,-2.352 4.09,-5.821 4.09,-10.262 0,-4.41 -1.34,-7.82 -4,-10.238 -2.67,-2.473 -5.78,-3.782 -9.46,-3.782"
         style="fill:#100f0d;fill-opacity:1;fill-rule:nonzero;stroke:none"
         transform="matrix(0.13333333,0,0,-0.13333333,0,771.10667)" />
      <path
         id="path7"
         d="m 2118.44,77.2617 c 0,-3.5234 -1,-7.3125 -3.02,-11.3398 -2.05,-4.0117 -5.13,-7.8203 -9.3,-11.4727 -4.12,-3.6289 -9.36,-6.5586 -15.67,-8.75 -6.3,-2.2773 -13.43,-3.3594 -21.31,-3.3594 -16.82,0 -29.93,5.1211 -39.37,15.3321 -9.41,10.2187 -14.14,23.8984 -14.14,41.0976 0,11.6405 2.15,21.9725 6.45,30.8785 4.31,8.891 10.61,15.864 18.75,20.723 8.14,4.918 17.94,7.359 29.26,7.359 7.07,0 13.54,-1.109 19.42,-3.218 5.87,-2.172 10.85,-4.961 14.93,-8.313 4.09,-3.41 7.2,-7.051 9.37,-10.859 2.18,-3.84 3.23,-7.449 3.23,-10.781 0,-3.348 -1.23,-6.227 -3.63,-8.598 -2.44,-2.379 -5.34,-3.539 -8.81,-3.539 -2.28,0 -4.13,0.648 -5.66,1.859 -1.45,1.168 -3.14,3.078 -5.02,5.84 -3.3,5.25 -6.8,9.231 -10.41,11.918 -3.63,2.602 -8.23,3.953 -13.76,3.953 -8.08,0 -14.56,-3.332 -19.46,-9.871 -4.93,-6.582 -7.36,-15.539 -7.36,-26.9101 0,-5.3007 0.63,-10.2695 1.91,-14.6992 1.25,-4.5 3.07,-8.3008 5.45,-11.4726 2.4,-3.1485 5.26,-5.5274 8.67,-7.1602 3.38,-1.6601 7.11,-2.4492 11.13,-2.4492 5.49,0 10.13,1.2891 14.02,3.9297 3.9,2.6601 7.34,6.6914 10.31,12.0312 1.67,3.2696 3.46,5.7383 5.39,7.5703 1.95,1.8008 4.31,2.6602 7.09,2.6602 3.31,0 6.07,-1.2813 8.29,-3.9102 2.14,-2.6992 3.25,-5.4687 3.25,-8.4492"
         style="fill:#100f0d;fill-opacity:1;fill-rule:nonzero;stroke:none"
         transform="matrix(0.13333333,0,0,-0.13333333,0,771.10667)" />
      <path
         id="path8"
         d="m 2163.24,99.9688 c 0,-7.6875 1.14,-14.1875 3.43,-19.629 2.3,-5.4179 5.4,-9.4492 9.38,-12.1796 4.01,-2.7891 8.37,-4.1485 13.04,-4.1485 4.8,0 9.16,1.3281 13.1,3.8789 3.98,2.6211 7.09,6.6407 9.48,12 2.37,5.3516 3.54,12.0782 3.54,20.0782 0,7.6132 -1.17,14.0702 -3.54,19.5432 -2.39,5.449 -5.55,9.597 -9.56,12.527 -4.02,2.84 -8.4,4.301 -13.18,4.301 -4.97,0 -9.41,-1.52 -13.35,-4.461 -3.89,-2.918 -6.97,-7.199 -9.12,-12.707 -2.13,-5.52 -3.22,-11.863 -3.22,-19.2032 z M 2216.7,58.332 v 2.7774 c -3.66,-4.3711 -7.26,-7.9102 -10.86,-10.6094 -3.49,-2.7695 -7.36,-4.8398 -11.51,-6.2695 -4.14,-1.3789 -8.68,-2.1211 -13.58,-2.1211 -6.5,0 -12.57,1.4609 -18.09,4.2812 -5.53,2.9805 -10.32,7.0313 -14.38,12.3594 -4.04,5.3516 -7.11,11.6211 -9.22,18.8516 -2.12,7.1797 -3.14,14.9804 -3.14,23.4104 0,17.699 4.16,31.59 12.46,41.5 8.32,9.918 19.23,14.867 32.76,14.867 7.83,0 14.45,-1.43 19.82,-4.289 5.37,-2.758 10.63,-7.078 15.74,-12.949 v 41.91 c 0,5.84 1.1,10.238 3.34,13.211 2.22,3 5.36,4.468 9.49,4.468 4.11,0 7.28,-1.378 9.53,-4.078 2.21,-2.73 3.36,-6.781 3.36,-12.121 V 58.332 c 0,-5.4023 -1.21,-9.4726 -3.61,-12.1406 -2.4,-2.7422 -5.46,-4.082 -9.28,-4.082 -3.68,0 -6.79,1.4023 -9.22,4.1914 -2.4,2.8086 -3.61,6.7812 -3.61,12.0312"
         style="fill:#100f0d;fill-opacity:1;fill-rule:nonzero;stroke:none"
         transform="matrix(0.13333333,0,0,-0.13333333,0,771.10667)" />
      <path
         id="path9"
         d="m 2344.23,99.75 c 0,11.531 -2.48,20.582 -7.34,27.02 -4.88,6.41 -11.46,9.66 -19.68,9.66 -5.34,0 -10,-1.45 -14.06,-4.321 -4.04,-2.918 -7.15,-7.148 -9.35,-12.769 -2.18,-5.559 -3.3,-12.07 -3.3,-19.59 0,-7.4297 1.12,-13.8906 3.24,-19.4102 2.15,-5.5507 5.25,-9.8007 9.3,-12.75 4,-2.9414 8.76,-4.3789 14.17,-4.3789 8.22,0 14.8,3.211 19.68,9.6797 4.86,6.461 7.34,15.4492 7.34,26.8594 z m 27.28,0 c 0,-8.4102 -1.28,-16.2109 -3.79,-23.3984 -2.52,-7.0821 -6.17,-13.2305 -10.92,-18.3828 -4.82,-5.129 -10.53,-8.9688 -17.16,-11.7774 -6.64,-2.7422 -14.17,-4.082 -22.43,-4.082 -8.22,0 -15.64,1.3398 -22.19,4.1523 -6.58,2.7696 -12.31,6.7266 -17.12,11.9102 -4.79,5.1679 -8.43,11.2304 -10.96,18.2578 -2.48,7.082 -3.72,14.8086 -3.72,23.3711 0,8.5902 1.28,16.4492 3.77,23.5582 2.53,7.18 6.13,13.243 10.86,18.332 4.72,5.047 10.42,8.95 17.17,11.68 6.72,2.75 14.08,4.129 22.19,4.129 8.25,0 15.72,-1.379 22.43,-4.168 6.68,-2.762 12.43,-6.75 17.21,-11.871 4.81,-5.121 8.43,-11.262 10.87,-18.332 2.55,-7.047 3.79,-14.848 3.79,-23.379"
         style="fill:#100f0d;fill-opacity:1;fill-rule:nonzero;stroke:none"
         transform="matrix(0.13333333,0,0,-0.13333333,0,771.10667)" />
      <path
         id="path10"
         d="m 2486.37,123.199 c -2.04,-4.801 -3.01,-13.258 -3.01,-25.4568 V 60.0195 c 0,-5.9297 -1.27,-10.4492 -3.89,-13.4297 -2.58,-2.9804 -6.04,-4.4804 -10.29,-4.4804 -4.08,0 -7.41,1.5 -9.95,4.4804 -2.56,2.9805 -3.81,7.5 -3.81,13.4297 v 45.2815 c 0,7.121 -0.27,12.64 -0.74,16.648 -0.47,3.903 -1.72,7.172 -3.78,9.699 -2.02,2.551 -5.29,3.813 -9.72,3.813 -8.9,0 -14.75,-3.191 -17.6,-9.609 -2.84,-6.34 -4.19,-15.5 -4.19,-27.4536 V 60.0195 c 0,-5.9179 -1.31,-10.3906 -3.83,-13.3398 -2.59,-3.0703 -5.96,-4.5703 -10.09,-4.5703 -4.15,0 -7.56,1.5 -10.16,4.5703 -2.65,2.9492 -3.89,7.4219 -3.89,13.332 v 81.2073 c 0,5.363 1.12,9.422 3.45,12.179 2.4,2.762 5.5,4.184 9.38,4.184 3.71,0 6.82,-1.293 9.29,-3.891 2.49,-2.589 3.73,-6.171 3.73,-10.761 v -2.688 c 4.7,5.899 9.77,10.238 15.12,12.977 5.37,2.773 11.42,4.16 17.94,4.16 6.82,0 12.68,-1.43 17.59,-4.289 4.94,-2.809 8.97,-7.121 12.14,-12.848 4.59,5.77 9.51,10.129 14.77,12.93 5.25,2.82 11.05,4.207 17.4,4.207 7.5,0 13.89,-1.5 19.23,-4.59 5.4,-3.047 9.4,-7.41 12.07,-13.09 2.34,-5.14 3.48,-13.199 3.48,-24.25 V 60.0195 c 0,-5.9297 -1.29,-10.4492 -3.84,-13.4297 -2.65,-2.9804 -6.03,-4.4804 -10.29,-4.4804 -4.13,0 -7.49,1.5 -10.1,4.5703 -2.65,2.9492 -3.97,7.4219 -3.97,13.3398 v 47.7695 c 0,6.102 -0.24,10.973 -0.72,14.66 -0.51,3.711 -1.86,6.742 -4.07,9.25 -2.18,2.5 -5.52,3.762 -9.93,3.762 -3.58,0 -7.01,-1.121 -10.17,-3.289 -3.28,-2.242 -5.72,-5.223 -7.55,-8.973 v 0"
         style="fill:#100f0d;fill-opacity:1;fill-rule:nonzero;stroke:none"
         transform="matrix(0.13333333,0,0,-0.13333333,0,771.10667)" />
      <path
         id="path11"
         d="m 2640.39,99.2109 c -4.01,-1.5625 -9.81,-3.1211 -17.41,-4.8515 -7.61,-1.6992 -12.88,-2.9375 -15.8,-3.75 -2.93,-0.8203 -5.72,-2.3594 -8.34,-4.6602 -2.69,-2.3906 -4.03,-5.6094 -4.03,-9.7695 0,-4.3399 1.59,-7.9609 4.67,-10.9883 3.15,-3.0625 7.24,-4.5312 12.29,-4.5312 5.37,0 10.36,1.25 14.89,3.7109 4.55,2.4375 7.92,5.6484 10.01,9.5 2.46,4.3203 3.72,11.3711 3.72,21.3008 z m 1.76,-41.1093 c -6.59,-5.3516 -12.94,-9.3321 -19.08,-11.961 -6.12,-2.7187 -13.05,-4.0312 -20.65,-4.0312 -7.02,0 -13.09,1.4609 -18.41,4.2812 -5.31,2.8985 -9.34,6.8086 -12.21,11.7813 -2.83,4.9101 -4.29,10.1875 -4.29,15.9765 0,7.7735 2.42,14.3633 7.12,19.8516 4.67,5.4492 11.14,9.129 19.37,11.012 1.73,0.418 6.04,1.32 12.84,2.777 6.91,1.492 12.72,2.793 17.67,4 4.84,1.191 10.16,2.68 15.88,4.402 -0.36,7.52 -1.79,13 -4.33,16.579 -2.59,3.46 -7.93,5.171 -15.91,5.171 -6.95,0 -12.11,-0.972 -15.65,-2.98 -3.46,-1.992 -6.47,-5.031 -8.92,-9.109 -2.53,-3.993 -4.25,-6.661 -5.28,-7.922 -1.06,-1.309 -3.28,-1.891 -6.61,-1.891 -3.1,0 -5.72,1 -7.92,3.031 -2.25,2.059 -3.36,4.641 -3.36,7.879 0,4.973 1.7,9.86 5.07,14.512 3.39,4.738 8.68,8.598 15.84,11.711 7.17,3.039 16.13,4.558 26.83,4.558 11.92,0 21.33,-1.519 28.22,-4.441 6.82,-2.918 11.6,-7.547 14.45,-13.98 2.84,-6.34 4.24,-14.829 4.24,-25.36 0,-6.64 0,-12.328 -0.04,-16.9373 -0.05,-4.6914 -0.08,-9.8398 -0.14,-15.5195 0,-5.3125 0.83,-10.9024 2.55,-16.6602 1.65,-5.7929 2.49,-9.5312 2.49,-11.1601 0,-2.9219 -1.32,-5.5899 -3.93,-7.9727 -2.57,-2.3906 -5.58,-3.5898 -8.87,-3.5898 -2.84,0 -5.54,1.3398 -8.3,4.082 -2.72,2.75 -5.61,6.7383 -8.67,11.9102"
         style="fill:#100f0d;fill-opacity:1;fill-rule:nonzero;stroke:none"
         transform="matrix(0.13333333,0,0,-0.13333333,0,771.10667)" />
      <path
         id="path12"
         d="M 2721.88,141.379 V 59.3906 c 0,-5.7187 -1.3,-10.0195 -3.85,-12.9297 -2.59,-2.8515 -5.85,-4.3515 -9.85,-4.3515 -3.98,0 -7.26,1.5 -9.71,4.4531 -2.53,3.0078 -3.78,7.2578 -3.78,12.8281 V 140.57 c 0,5.571 1.25,9.801 3.78,12.649 2.45,2.871 5.73,4.281 9.71,4.281 4,0 7.26,-1.41 9.85,-4.281 2.55,-2.848 3.85,-6.778 3.85,-11.84 z m -13.44,29.351 c -3.74,0 -6.97,1.211 -9.66,3.7 -2.69,2.41 -4.09,5.871 -4.09,10.32 0,3.988 1.41,7.281 4.18,9.922 2.73,2.609 5.96,3.828 9.57,3.828 3.54,0 6.69,-1.141 9.42,-3.488 2.68,-2.352 4.02,-5.821 4.02,-10.262 0,-4.41 -1.3,-7.82 -3.97,-10.238 -2.66,-2.473 -5.81,-3.782 -9.47,-3.782"
         style="fill:#100f0d;fill-opacity:1;fill-rule:nonzero;stroke:none"
         transform="matrix(0.13333333,0,0,-0.13333333,0,771.10667)" />
      <path
         id="path13"
         d="m 2774.74,141.789 v -3.391 c 4.75,6.563 9.97,11.403 15.61,14.473 5.69,3.078 12.23,4.629 19.63,4.629 7.13,0 13.57,-1.621 19.26,-4.91 5.58,-3.238 9.83,-7.82 12.59,-13.758 1.81,-3.492 2.94,-7.269 3.51,-11.281 0.49,-3.969 0.8,-9.11 0.8,-15.371 V 59.3906 c 0,-5.7187 -1.29,-10.0195 -3.76,-12.9297 -2.5,-2.8515 -5.74,-4.3515 -9.7,-4.3515 -4.05,0 -7.36,1.5 -9.78,4.4804 -2.56,2.9805 -3.86,7.2305 -3.86,12.8008 v 47.2574 c 0,9.411 -1.21,16.551 -3.69,21.493 -2.54,4.949 -7.52,7.468 -14.96,7.468 -4.83,0 -9.24,-1.527 -13.22,-4.558 -3.98,-2.981 -6.9,-7.141 -8.75,-12.422 -1.34,-4.227 -2.03,-12.09 -2.03,-23.7384 v -35.5 c 0,-5.7617 -1.25,-10.1015 -3.83,-13 -2.56,-2.8203 -5.87,-4.2812 -9.9,-4.2812 -3.89,0 -7.14,1.5 -9.65,4.4531 -2.57,3.0078 -3.8,7.2578 -3.8,12.8281 v 81.9884 c 0,5.43 1.11,9.422 3.41,12.101 2.2,2.68 5.37,4.02 9.26,4.02 2.35,0 4.55,-0.629 6.44,-1.758 1.98,-1.172 3.47,-2.992 4.64,-5.262 1.13,-2.41 1.78,-5.289 1.78,-8.691"
         style="fill:#100f0d;fill-opacity:1;fill-rule:nonzero;stroke:none"
         transform="matrix(0.13333333,0,0,-0.13333333,0,771.10667)" />
      <path
         id="path14"
         d="m 2889.79,139.84 21.96,-64.4494 23.72,67.2574 c 1.88,5.422 3.7,9.204 5.52,11.473 1.82,2.238 4.5,3.379 8.13,3.379 3.46,0 6.39,-1.211 8.87,-3.68 2.37,-2.398 3.59,-5.16 3.59,-8.441 0,-1.219 -0.23,-2.649 -0.66,-4.27 -0.39,-1.699 -0.89,-3.257 -1.49,-4.757 -0.56,-1.391 -1.15,-3.082 -1.94,-4.942 l -26.08,-67.5702 c -0.74,-1.9296 -1.7,-4.4179 -2.84,-7.4101 -1.18,-2.9688 -2.5,-5.4609 -3.88,-7.6602 -1.47,-2.0898 -3.21,-3.6875 -5.28,-4.8789 -2.12,-1.1797 -4.67,-1.7812 -7.66,-1.7812 -3.85,0 -6.91,0.9101 -9.23,2.7226 -2.29,1.8477 -3.98,3.8399 -5.07,6.0664 -1.07,2.1407 -2.96,6.4922 -5.52,12.9414 l -25.92,66.8402 c -0.6,1.629 -1.24,3.312 -1.89,4.98 -0.59,1.66 -1.08,3.32 -1.55,5.09 -0.42,1.762 -0.67,3.25 -0.67,4.441 0,1.981 0.57,3.899 1.72,5.801 1.14,1.918 2.7,3.5 4.68,4.68 2.02,1.199 4.13,1.828 6.5,1.828 4.48,0 7.59,-1.34 9.3,-4.102 1.7,-2.668 3.61,-7.199 5.69,-13.558"
         style="fill:#100f0d;fill-opacity:1;fill-rule:nonzero;stroke:none"
         transform="matrix(0.13333333,0,0,-0.13333333,0,771.10667)" />
      <path
         id="path15"
         d="m 3001.02,109.02 h 49.28 c -0.62,9.671 -3.11,16.921 -7.5,21.722 -4.36,4.789 -10.09,7.199 -17.21,7.199 -6.73,0 -12.32,-2.441 -16.64,-7.3 -4.35,-4.86 -6.96,-12.09 -7.93,-21.621 z m 53.2,-16.1489 h -53.2 c 0.01,-6.4727 1.3,-12.1406 3.69,-17.1016 2.46,-4.8789 5.66,-8.5976 9.69,-11.1211 4.01,-2.5195 8.46,-3.7187 13.31,-3.7187 3.25,0 6.25,0.3906 8.9,1.1601 2.68,0.8399 5.31,2.0821 7.86,3.75 2.48,1.711 4.79,3.4805 6.94,5.5 2.1,1.9415 4.93,4.5196 8.27,7.8711 1.4,1.3086 3.42,1.8985 5.96,1.8985 2.85,0 5.07,-0.7696 6.81,-2.4102 1.73,-1.5976 2.54,-3.8203 2.54,-6.7304 0,-2.5665 -0.94,-5.5704 -2.88,-9.0391 -1.9,-3.3789 -4.76,-6.6992 -8.71,-9.8906 -3.9,-3.1172 -8.77,-5.6875 -14.65,-7.8282 -5.85,-2.0703 -12.58,-3.1015 -20.28,-3.1015 -17.43,0 -31.04,5.2422 -40.7,15.582 -9.68,10.4492 -14.51,24.5078 -14.51,42.2774 0,8.5002 1.23,16.2222 3.57,23.3712 2.39,7.199 5.86,13.332 10.46,18.449 4.59,5.16 10.19,9.121 16.92,11.82 6.74,2.75 14.14,4.121 22.34,4.121 10.55,0 19.7,-2.339 27.3,-7.039 7.62,-4.679 13.31,-10.691 17.09,-18.089 3.79,-7.461 5.68,-14.981 5.68,-22.731 0,-7.082 -1.9,-11.7108 -5.86,-13.8124 -3.95,-2.1484 -9.43,-3.1875 -16.54,-3.1875"
         style="fill:#100f0d;fill-opacity:1;fill-rule:nonzero;stroke:none"
         transform="matrix(0.13333333,0,0,-0.13333333,0,771.10667)" />
      <path
         id="path16"
         d="m 3197.1,77.2617 c 0,-3.5234 -1.01,-7.3125 -3.08,-11.3398 -2.03,-4.0117 -5.06,-7.8203 -9.24,-11.4727 -4.14,-3.6289 -9.41,-6.5586 -15.74,-8.75 -6.27,-2.2773 -13.41,-3.3594 -21.25,-3.3594 -16.86,0 -29.97,5.1211 -39.38,15.3321 -9.41,10.2187 -14.15,23.8984 -14.15,41.0976 0,11.6405 2.14,21.9725 6.49,30.8785 4.33,8.891 10.51,15.864 18.71,20.723 8.14,4.918 17.93,7.359 29.31,7.359 7.03,0 13.47,-1.109 19.39,-3.218 5.86,-2.172 10.8,-4.961 14.95,-8.313 4.08,-3.41 7.16,-7.051 9.35,-10.859 2.14,-3.84 3.21,-7.449 3.21,-10.781 0,-3.348 -1.18,-6.227 -3.68,-8.598 -2.39,-2.379 -5.32,-3.539 -8.78,-3.539 -2.25,0 -4.13,0.648 -5.59,1.859 -1.53,1.168 -3.19,3.078 -5.07,5.84 -3.32,5.25 -6.77,9.231 -10.39,11.918 -3.62,2.602 -8.22,3.953 -13.82,3.953 -7.99,0 -14.48,-3.332 -19.39,-9.871 -4.97,-6.582 -7.41,-15.539 -7.41,-26.9101 0,-5.3007 0.68,-10.2695 1.89,-14.6992 1.27,-4.5 3.11,-8.3008 5.52,-11.4726 2.38,-3.1485 5.29,-5.5274 8.67,-7.1602 3.33,-1.6601 7.07,-2.4492 11.15,-2.4492 5.43,0 10.12,1.2891 14,3.9297 3.87,2.6601 7.34,6.6914 10.33,12.0312 1.67,3.2696 3.42,5.7383 5.38,7.5703 1.9,1.8008 4.23,2.6602 7.07,2.6602 3.27,0 6.07,-1.2813 8.18,-3.9102 2.25,-2.6992 3.37,-5.4687 3.37,-8.4492"
         style="fill:#100f0d;fill-opacity:1;fill-rule:nonzero;stroke:none"
         transform="matrix(0.13333333,0,0,-0.13333333,0,771.10667)" />
      <path
         id="path17"
         d="m 3222.35,155.109 h 2.99 v 17.063 c 0,4.539 0.13,8.168 0.37,10.75 0.23,2.609 0.82,4.789 1.95,6.699 1.02,1.91 2.55,3.5 4.59,4.738 1.97,1.18 4.19,1.762 6.65,1.762 3.43,0 6.57,-1.332 9.34,-4.019 1.82,-1.821 3.03,-3.993 3.53,-6.571 0.51,-2.609 0.73,-6.351 0.73,-11.101 v -19.321 h 10 c 3.85,0 6.8,-0.968 8.82,-2.867 2.06,-1.91 3.05,-4.332 3.05,-7.312 0,-3.821 -1.44,-6.532 -4.37,-8.02 -2.87,-1.5 -7.01,-2.269 -12.38,-2.269 h -5.12 V 82.3711 c 0,-4.4609 0.17,-7.8711 0.45,-10.3008 0.35,-2.3984 1.19,-4.3398 2.45,-5.789 1.26,-1.5 3.37,-2.2696 6.32,-2.2696 1.58,0 3.73,0.2696 6.48,0.8985 2.66,0.5703 4.8,0.8789 6.35,0.8789 2.18,0 4.22,-0.9571 5.95,-2.7071 1.72,-1.8906 2.63,-4.1211 2.63,-6.8515 0,-4.5508 -2.35,-8.0508 -7.16,-10.4805 -4.84,-2.4414 -11.69,-3.6406 -20.62,-3.6406 -8.5,0 -14.97,1.5 -19.35,4.4804 -4.36,2.9805 -7.28,7.0821 -8.59,12.4102 -1.39,5.2617 -2.07,12.2891 -2.07,21.0898 v 54.5512 h -3.61 c -3.85,0 -6.85,0.968 -8.93,2.918 -2.07,1.941 -3.07,4.371 -3.07,7.371 0,2.98 1.05,5.402 3.19,7.312 2.19,1.899 5.3,2.867 9.43,2.867"
         style="fill:#100f0d;fill-opacity:1;fill-rule:nonzero;stroke:none"
         transform="matrix(0.13333333,0,0,-0.13333333,0,771.10667)" />
      <path
         id="path18"
         d="m 3367.55,99.75 c 0,11.531 -2.46,20.582 -7.32,27.02 -4.93,6.41 -11.42,9.66 -19.68,9.66 -5.34,0 -10,-1.45 -14.03,-4.321 -4.08,-2.918 -7.19,-7.148 -9.37,-12.769 -2.19,-5.559 -3.31,-12.07 -3.31,-19.59 0,-7.4297 1.12,-13.8906 3.27,-19.4102 2.15,-5.5507 5.21,-9.8007 9.23,-12.75 4,-2.9414 8.75,-4.3789 14.21,-4.3789 8.26,0 14.75,3.211 19.68,9.6797 4.86,6.461 7.32,15.4492 7.32,26.8594 z m 27.3,0 c 0,-8.4102 -1.25,-16.2109 -3.81,-23.3984 -2.5,-7.0821 -6.18,-13.2305 -10.93,-18.3828 -4.8,-5.129 -10.52,-8.9688 -17.13,-11.7774 -6.67,-2.7422 -14.09,-4.082 -22.43,-4.082 -8.27,0 -15.69,1.3398 -22.23,4.1523 -6.56,2.7696 -12.28,6.7266 -17.09,11.9102 -4.79,5.1679 -8.46,11.2304 -10.91,18.2578 -2.48,7.082 -3.7,14.8086 -3.7,23.3711 0,8.5902 1.22,16.4492 3.7,23.5582 2.58,7.18 6.15,13.243 10.86,18.332 4.76,5.047 10.45,8.95 17.14,11.68 6.78,2.75 14.16,4.129 22.23,4.129 8.26,0 15.69,-1.379 22.43,-4.168 6.7,-2.762 12.42,-6.75 17.22,-11.871 4.72,-5.121 8.43,-11.262 10.91,-18.332 2.49,-7.047 3.74,-14.848 3.74,-23.379"
         style="fill:#100f0d;fill-opacity:1;fill-rule:nonzero;stroke:none"
         transform="matrix(0.13333333,0,0,-0.13333333,0,771.10667)" />
      <path
         id="path19"
         d="M 3443.3,83.0117 V 59.3906 c 0,-5.7617 -1.31,-10.1015 -3.91,-13 -2.59,-2.8203 -5.86,-4.2812 -9.89,-4.2812 -3.87,0 -7.12,1.5 -9.63,4.3515 -2.52,2.9102 -3.76,7.211 -3.76,12.9297 v 78.9884 c 0,12.773 4.4,19.121 13.24,19.121 4.47,0 7.74,-1.508 9.77,-4.461 1.95,-2.98 3.01,-7.387 3.27,-13.199 3.24,5.812 6.61,10.219 10.04,13.199 3.42,2.953 7.96,4.461 13.64,4.461 5.77,0 11.28,-1.508 16.68,-4.461 5.36,-2.98 8.08,-6.949 8.08,-11.848 0,-3.461 -1.18,-6.371 -3.47,-8.589 -2.26,-2.231 -4.74,-3.411 -7.44,-3.411 -0.97,0 -3.4,0.668 -7.21,1.981 -3.84,1.258 -7.21,1.918 -10.15,1.918 -3.94,0 -7.19,-1.051 -9.69,-3.289 -2.54,-2.219 -4.51,-5.41 -5.9,-9.699 -1.39,-4.34 -2.4,-9.43 -2.9,-15.391 -0.51,-5.8907 -0.77,-13.0899 -0.77,-21.6993"
         style="fill:#100f0d;fill-opacity:1;fill-rule:nonzero;stroke:none"
         transform="matrix(0.13333333,0,0,-0.13333333,0,771.10667)" />
      <path
         id="path20"
         d="m 3588.15,79.1914 c 0,-7.8516 -1.82,-14.543 -5.51,-20.1211 -3.68,-5.6094 -9.06,-9.7812 -16.2,-12.6914 -7.17,-2.8086 -15.82,-4.2695 -26.11,-4.2695 -9.68,0 -18.09,1.5508 -25.09,4.6992 -6.97,3.1133 -12.12,6.9805 -15.42,11.6523 -3.36,4.6602 -5.06,9.3594 -5.06,14.0508 0,3.1172 1.09,5.7891 3.27,8.0078 2.11,2.2696 4.81,3.3203 8.02,3.3203 2.88,0 5.1,-0.7382 6.62,-2.1484 1.52,-1.543 2.95,-3.5391 4.38,-6.1797 2.78,-5.0703 6.1,-8.8515 10.05,-11.3398 3.82,-2.5313 9.12,-3.7735 15.89,-3.7735 5.42,0 9.89,1.293 13.39,3.8204 3.46,2.5312 5.26,5.4101 5.26,8.6718 0,5.0196 -1.84,8.6797 -5.43,10.9414 -3.67,2.3399 -9.6,4.5078 -17.9,6.5664 -9.35,2.4414 -17,4.9805 -22.89,7.6329 -5.87,2.6877 -10.63,6.2307 -14.11,10.5977 -3.53,4.293 -5.31,9.703 -5.31,16.082 0,5.719 1.64,11.078 4.9,16.121 3.23,5.066 8.1,9.098 14.42,12.117 6.33,3.043 13.98,4.551 22.99,4.551 7,0 13.33,-0.781 18.98,-2.301 5.59,-1.508 10.34,-3.578 14.03,-6.109 3.75,-2.578 6.64,-5.418 8.58,-8.52 1.99,-3.148 2.96,-6.199 2.96,-9.16 0,-3.269 -1.02,-5.879 -3.16,-8.051 -2.1,-2 -5.1,-3.046 -8.89,-3.046 -2.82,0 -5.18,0.816 -7.19,2.519 -1.91,1.637 -4.19,4.117 -6.7,7.398 -2.06,2.782 -4.46,5.02 -7.28,6.68 -2.79,1.629 -6.57,2.5 -11.33,2.5 -4.93,0 -9.05,-1.09 -12.25,-3.289 -3.28,-2.172 -4.92,-4.91 -4.92,-8.172 0,-2.988 1.21,-5.429 3.57,-7.328 2.42,-1.91 5.62,-3.492 9.69,-4.75 4.09,-1.25 9.64,-2.801 16.75,-4.59 8.46,-2.14 15.32,-4.672 20.69,-7.679 5.34,-2.95 9.38,-6.4926 12.13,-10.5434 2.81,-4.0898 4.18,-8.707 4.18,-13.8672"
         style="fill:#100f0d;fill-opacity:1;fill-rule:nonzero;stroke:none"
         transform="matrix(0.13333333,0,0,-0.13333333,0,771.10667)" />
      <path
         id="path21"
         d="m 3619.03,42.1094 c -4.12,0 -7.68,1.3398 -10.63,4.1523 -3.04,2.7696 -4.51,6.668 -4.51,11.6094 0,4.2187 1.39,7.8711 4.23,10.9297 2.86,3.039 6.4,4.5195 10.59,4.5195 4.16,0 7.75,-1.4805 10.64,-4.5117 2.99,-2.9688 4.48,-6.6797 4.48,-10.9375 0,-4.9023 -1.49,-8.7617 -4.48,-11.5703 -2.89,-2.7891 -6.34,-4.1914 -10.32,-4.1914"
         style="fill:#100f0d;fill-opacity:1;fill-rule:nonzero;stroke:none"
         transform="matrix(0.13333333,0,0,-0.13333333,0,771.10667)" />
      <path
         id="path22"
         d="m 3739.29,99.75 c 0,11.531 -2.45,20.582 -7.34,27.02 -4.88,6.41 -11.41,9.66 -19.65,9.66 -5.32,0 -9.95,-1.45 -14.02,-4.321 -4.06,-2.918 -7.18,-7.148 -9.35,-12.769 -2.17,-5.559 -3.29,-12.07 -3.29,-19.59 0,-7.4297 1.05,-13.8906 3.2,-19.4102 2.22,-5.5507 5.27,-9.8007 9.3,-12.75 4.01,-2.9414 8.73,-4.3789 14.16,-4.3789 8.24,0 14.77,3.211 19.65,9.6797 4.89,6.461 7.34,15.4492 7.34,26.8594 z m 27.32,0 c 0,-8.4102 -1.25,-16.2109 -3.81,-23.3984 -2.54,-7.0821 -6.15,-13.2305 -10.94,-18.3828 -4.83,-5.129 -10.47,-8.9688 -17.13,-11.7774 -6.62,-2.7422 -14.1,-4.082 -22.43,-4.082 -8.22,0 -15.62,1.3398 -22.19,4.1523 -6.58,2.7696 -12.25,6.7266 -17.05,11.9102 -4.9,5.1679 -8.52,11.2304 -11.04,18.2578 -2.44,7.082 -3.69,14.8086 -3.69,23.3711 0,8.5902 1.25,16.4492 3.79,23.5582 2.57,7.18 6.13,13.243 10.82,18.332 4.72,5.047 10.44,8.95 17.17,11.68 6.7,2.75 14.05,4.129 22.19,4.129 8.24,0 15.71,-1.379 22.43,-4.168 6.73,-2.762 12.46,-6.75 17.25,-11.871 4.75,-5.121 8.38,-11.262 10.9,-18.332 2.48,-7.047 3.73,-14.848 3.73,-23.379"
         style="fill:#100f0d;fill-opacity:1;fill-rule:nonzero;stroke:none"
         transform="matrix(0.13333333,0,0,-0.13333333,0,771.10667)" />
      <path
         id="path23"
         d="M 3815.05,83.0117 V 59.3906 c 0,-5.7617 -1.3,-10.1015 -3.89,-13 -2.55,-2.8203 -5.88,-4.2812 -9.83,-4.2812 -3.97,0 -7.15,1.5 -9.69,4.3515 -2.56,2.9102 -3.8,7.211 -3.8,12.9297 v 78.9884 c 0,12.773 4.47,19.121 13.26,19.121 4.53,0 7.76,-1.508 9.74,-4.461 1.96,-2.98 3.12,-7.387 3.36,-13.199 3.19,5.812 6.52,10.219 9.94,13.199 3.44,2.953 8.01,4.461 13.67,4.461 5.81,0 11.35,-1.508 16.67,-4.461 5.38,-2.98 8.1,-6.949 8.1,-11.848 0,-3.461 -1.15,-6.371 -3.43,-8.589 -2.31,-2.231 -4.75,-3.411 -7.47,-3.411 -0.96,0 -3.35,0.668 -7.17,1.981 -3.84,1.258 -7.21,1.918 -10.15,1.918 -3.96,0 -7.19,-1.051 -9.79,-3.289 -2.48,-2.219 -4.44,-5.41 -5.86,-9.699 -1.36,-4.34 -2.33,-9.43 -2.85,-15.391 -0.53,-5.8907 -0.81,-13.0899 -0.81,-21.6993"
         style="fill:#100f0d;fill-opacity:1;fill-rule:nonzero;stroke:none"
         transform="matrix(0.13333333,0,0,-0.13333333,0,771.10667)" />
      <path
         id="path24"
         d="m 3893.56,100.73 c 0,-11.4917 2.43,-20.1987 7.26,-26.1206 4.78,-5.8477 11.05,-8.8203 18.63,-8.8203 4.5,0 8.82,1.3007 12.82,3.832 4.02,2.5273 7.29,6.3398 9.82,11.4375 2.56,5.1133 3.78,11.2617 3.78,18.5312 0,11.5822 -2.46,20.5702 -7.33,27.0002 -4.87,6.5 -11.3,9.75 -19.26,9.75 -7.75,0 -13.99,-3.16 -18.65,-9.301 -4.71,-6.187 -7.07,-14.937 -7.07,-26.309 z m 78.84,35.989 V 54.25 c 0,-9.4609 -1.03,-17.5586 -2.92,-24.3086 -1.93,-6.832 -5.01,-12.4531 -9.26,-16.8711 -4.24,-4.41796 -9.84,-7.71092 -16.67,-9.85936 C 3936.67,1.10156 3928.11,0 3917.89,0 c -9.38,0 -17.77,1.33203 -25.1,4.07031 -7.39,2.80078 -13.08,6.30079 -17.05,10.66019 -3.98,4.289 -5.99,8.75 -5.99,13.3515 0,3.4805 1.1,6.2774 3.42,8.4571 2.23,2.2304 4.96,3.3203 8.14,3.3203 4,0 7.44,-1.8594 10.49,-5.5078 1.46,-1.9297 2.99,-3.8008 4.5,-5.6797 1.56,-1.9219 3.3,-3.5899 5.17,-4.9102 1.92,-1.3828 4.21,-2.3828 6.87,-3.0429 2.6,-0.6602 5.7,-0.9883 9.17,-0.9883 6.98,0 12.51,1.0508 16.37,3.0703 3.88,2.039 6.62,4.8984 8.2,8.5586 1.48,3.6797 2.49,7.6015 2.65,11.7929 0.32,4.2774 0.5,10.9493 0.69,20.2774 -4.18,-6.0899 -9.09,-10.7383 -14.51,-13.918 -5.48,-3.2109 -12.03,-4.7617 -19.54,-4.7617 -9.18,0 -17.13,2.3789 -23.89,7.2695 -6.85,4.8399 -12.08,11.6211 -15.72,20.3828 -3.61,8.7071 -5.48,18.7891 -5.48,30.2267 0,8.582 1.09,16.281 3.36,23.152 2.18,6.821 5.33,12.617 9.52,17.34 4.07,4.719 8.85,8.277 14.22,10.68 5.41,2.359 11.25,3.578 17.75,3.578 7.67,0 14.34,-1.57 19.97,-4.668 5.73,-3.039 10.91,-7.941 15.78,-14.481 v 3.801 c 0,4.961 1.2,8.739 3.49,11.52 2.3,2.66 5.31,4.031 8.95,4.031 5.26,0 8.75,-1.773 10.49,-5.34 1.7,-3.582 2.59,-8.781 2.59,-15.523"
         style="fill:#100f0d;fill-opacity:1;fill-rule:nonzero;stroke:none"
         transform="matrix(0.13333333,0,0,-0.13333333,0,771.10667)" />
      <path
         id="path25"
         d="m 2793.7,413.102 h 40.33 c -2.85,-21.75 -11.75,-38.723 -26.58,-50.942 -13.71,-11.969 -30.33,-17.871 -49.73,-17.871 -26.34,0 -47.37,9.262 -63.07,27.731 -14.87,17.562 -22.3,40.25 -22.3,67.949 0,28.402 7.38,51.101 22.09,68.293 14.71,17.109 35.5,25.718 62.39,25.718 19.99,0 36.91,-5.41 50.62,-16.14 14.54,-11.61 23.44,-27.899 26.58,-48.77 h -40.33 c -3.49,18.211 -14.6,27.262 -33.52,27.262 -31.18,0 -46.8,-18.461 -46.8,-55.422 0,-17.32 4.02,-31.449 12.04,-42.461 8.02,-11.058 19.32,-16.59 33.9,-16.59 21.74,0 33.2,10.43 34.38,31.243 z m -158.8,25.449 c 0,-36.102 11.45,-66.66 34.31,-91.559 22.89,-24.902 50.9,-37.363 84.15,-37.363 33.1,0 61.13,12.461 83.98,37.363 22.92,24.899 34.3,55.457 34.3,91.559 0,36.07 -11.38,66.609 -34.3,91.508 -22.85,24.953 -50.88,37.39 -83.98,37.39 -33.25,0 -61.26,-12.437 -84.15,-37.39 -22.86,-24.899 -34.31,-55.438 -34.31,-91.508 z m -40.98,0 c 0,45.941 15.55,85.148 46.66,117.711 31.15,32.519 68.76,48.789 112.78,48.789 43.92,0 81.46,-16.27 112.65,-48.789 31.13,-32.563 46.72,-71.77 46.72,-117.711 0,-45.981 -15.59,-85.25 -46.72,-117.75 -31.19,-32.539 -68.73,-48.821 -112.65,-48.821 -44.02,0 -81.63,16.282 -112.78,48.821 -31.11,32.5 -46.66,71.769 -46.66,117.75"
         style="fill:#100f0d;fill-opacity:1;fill-rule:nonzero;stroke:none"
         transform="matrix(0.13333333,0,0,-0.13333333,0,771.10667)" />
      <path
         id="path26"
         d="m 2658.43,334.121 23.25,-19.719 170.96,219.528 -23.25,19.699 -170.96,-219.508"
         style="fill:#100f0d;fill-opacity:1;fill-rule:nonzero;stroke:none"
         transform="matrix(0.13333333,0,0,-0.13333333,0,771.10667)" />
      <path
         id="path27"
         d="M 0,5783.29 H 5608.1 V 2235.31 H 0 v 3547.98"
         style="fill:#fcd7d3;fill-opacity:1;fill-rule:evenodd;stroke:none"
         transform="matrix(0.13333333,0,0,-0.13333333,0,771.10667)" />
      <path
         id="path28"
         d="m 2264.19,4342.74 v 603.32 H 1235.81 V 3812.77 h 1028.38 v 501.7 z m 1262.27,-653.59 v -616.63 h 845.83 v 1197.53 h -525.04 v 16.15 h -320.78 v -336.75 h -56.54 v 336.75 h -516.25 v 56.54 h 893.57 v 603.32 H 2320.73 v -603.32 h 384.61 v -56.54 h -384.61 v -473.43 h 21.92 v -740.25 h 1127.27 v 616.63 h 56.54 z m -2347.19,1370 h 2781.05 v -676.03 h 525.04 V 2959.44 H 2229.56 V 3699.7 H 1122.72 v 1359.45 h 56.55 v 0"
         style="fill:#ca9f96;fill-opacity:1;fill-rule:evenodd;stroke:none"
         transform="matrix(0.13333333,0,0,-0.13333333,0,771.10667)" />
      <path
         id="path29"
         d="m 4111.48,2797.63 c -192.88,155.78 -204.87,376.94 -272.56,532.07 -31.73,72.69 -84.17,134.42 -150.77,177.51 -36.19,23.39 -55.34,65.82 -48.94,108.45 6.38,42.64 37.12,77.58 78.59,89.35 129.79,36.84 265.41,-35.79 306.71,-164.22 13.03,-40.5 41.55,-74.2 79.36,-93.71 l 573.49,739.72 c 33.34,43.41 94.25,54.32 140.61,25.19 46.34,-29.13 62.92,-88.74 38.26,-137.63 l -220.9,-321.99 289.94,329.64 c 26.24,29.83 66.45,43.35 105.38,35.43 38.93,-7.92 70.66,-36.05 83.18,-73.76 12.5,-37.71 3.88,-79.24 -22.59,-108.86 l -277.41,-348.41 270.53,280.29 c 38.97,40.36 102.96,42.47 144.49,4.72 41.53,-37.72 45.56,-101.63 9.09,-144.28 l -286.89,-308.39 116.49,46.21 93.56,90.5 c 39.28,37.99 101.61,38.02 140.91,0.06 39.32,-37.96 41.48,-100.24 4.89,-140.83 l -92.35,-98.29 c -35.39,-37.67 -78.83,-66.86 -127.09,-85.39 l -159.77,-60.18 -246.36,-357.16 151.27,-623.63 -573.38,-125.51 -147.74,733.1"
         style="fill:#f03d1e;fill-opacity:1;fill-rule:evenodd;stroke:none"
         transform="matrix(0.13333333,0,0,-0.13333333,0,771.10667)" />
      <path
         id="path30"
         d="m 4764.88,3899.66 3.16,0.8 c 88.1,22.8 181.26,0.61 249.46,-58.25 l 73.74,92.61 c 26.47,29.62 35.09,71.15 22.59,108.86 -12.52,37.71 -44.25,65.84 -83.18,73.76 -38.93,7.92 -79.14,-5.6 -105.38,-35.43 z m 84.72,165.06 -119.38,-174.03 26.88,123.3 92.5,50.73 v 0"
         style="fill:#e03022;fill-opacity:1;fill-rule:evenodd;stroke:none"
         transform="matrix(0.13333333,0,0,-0.13333333,0,771.10667)" />
      <path
         id="path31"
         d="m 3287.71,3364.73 79.44,-153.57 c 8.91,-17.26 30.34,-24.08 47.59,-15.16 l 141.65,73.26 c 17.26,8.93 24.07,30.34 15.14,47.6 l -79.43,153.58 c -8.92,17.25 -30.33,24.07 -47.59,15.15 l -141.65,-73.26 c -17.25,-8.93 -24.06,-30.34 -15.15,-47.6"
         style="fill:#ed1569;fill-opacity:1;fill-rule:evenodd;stroke:none"
         transform="matrix(0.13333333,0,0,-0.13333333,0,771.10667)" />
      <path
         id="path32"
         d="m 3329.55,3283.85 37.6,-72.69 c 8.91,-17.26 30.34,-24.08 47.59,-15.16 l 141.65,73.27 c 17.26,8.92 24.07,30.33 15.14,47.59 l -28.82,55.73 c -56.19,-55.76 -132.58,-88.17 -213.16,-88.74"
         style="fill:#e3125d;fill-opacity:1;fill-rule:evenodd;stroke:none"
         transform="matrix(0.13333333,0,0,-0.13333333,0,771.10667)" />
      <path
         id="path33"
         d="m 5094.66,4069.39 -108.17,209.15 -1417.02,-732.87 108.17,-209.15 1417.02,732.87"
         style="fill:#f8a10e;fill-opacity:1;fill-rule:evenodd;stroke:none"
         transform="matrix(0.13333333,0,0,-0.13333333,0,771.10667)" />
      <path
         id="path34"
         d="m 3595.54,3495.28 56.04,-108.38 1417.03,732.88 -56.04,108.38 -1417.03,-732.88"
         style="fill:#fbc907;fill-opacity:1;fill-rule:evenodd;stroke:none"
         transform="matrix(0.13333333,0,0,-0.13333333,0,771.10667)" />
      <path
         id="path35"
         d="m 4986.49,4278.54 367.82,57.67 -259.65,-266.82 z"
         style="fill:#f15030;fill-opacity:1;fill-rule:evenodd;stroke:none"
         transform="matrix(0.13333333,0,0,-0.13333333,0,771.10667)" />
      <path
         id="path36"
         d="m 5200.5,4312.1 153.81,24.11 -108.59,-111.57 z"
         style="fill:#2e2d2d;fill-opacity:1;fill-rule:evenodd;stroke:none"
         transform="matrix(0.13333333,0,0,-0.13333333,0,771.10667)" />
      <path
         id="path37"
         d="m 3390.63,3470.95 122.68,-237.21 183.47,94.9 -122.68,237.21 -183.47,-94.9"
         style="fill:#66625d;fill-opacity:1;fill-rule:evenodd;stroke:none"
         transform="matrix(0.13333333,0,0,-0.13333333,0,771.10667)" />
      <path
         id="path38"
         d="m 3469.3,3318.84 44.01,-85.1 183.47,94.9 -81.6,157.8 c -4.91,-13.62 -10.8,-27.02 -17.71,-40.08 -29.56,-55.71 -74.72,-99.49 -128.17,-127.52"
         style="fill:#46423d;fill-opacity:1;fill-rule:evenodd;stroke:none"
         transform="matrix(0.13333333,0,0,-0.13333333,0,771.10667)" />
      <path
         id="path39"
         d="m 3682.98,3471.82 v 0 c 4.39,-8.5 14.93,-11.85 23.43,-7.45 l 132.61,68.58 c 8.51,4.4 11.87,14.94 7.46,23.44 v 0 c -4.39,8.51 -14.93,11.86 -23.43,7.46 l -132.61,-68.58 c -8.51,-4.41 -11.86,-14.94 -7.46,-23.45"
         style="fill:#af7f1d;fill-opacity:1;fill-rule:evenodd;stroke:none"
         transform="matrix(0.13333333,0,0,-0.13333333,0,771.10667)" />
      <path
         id="path40"
         d="m 3894.01,3580.98 v 0 c 4.4,-8.51 14.95,-11.86 23.45,-7.47 l 50.86,26.3 c 8.49,4.41 11.86,14.95 7.46,23.45 v 0 c -4.39,8.5 -14.95,11.85 -23.46,7.46 l -50.86,-26.31 c -8.48,-4.39 -11.84,-14.94 -7.45,-23.43"
         style="fill:#af7f1d;fill-opacity:1;fill-rule:evenodd;stroke:none"
         transform="matrix(0.13333333,0,0,-0.13333333,0,771.10667)" />
      <path
         id="path41"
         d="m 4008.1,3639.97 v 0 c 4.39,-8.5 14.94,-11.85 23.42,-7.46 l 50.86,26.3 c 8.51,4.41 11.86,14.94 7.46,23.44 v 0 c -4.39,8.51 -14.93,11.87 -23.42,7.47 l -50.87,-26.31 c -8.5,-4.39 -11.85,-14.94 -7.45,-23.44"
         style="fill:#af7f1d;fill-opacity:1;fill-rule:evenodd;stroke:none"
         transform="matrix(0.13333333,0,0,-0.13333333,0,771.10667)" />
      <path
         id="path42"
         d="m 4122.16,3698.98 v 0 c 4.39,-8.51 14.94,-11.86 23.45,-7.47 l 105.99,54.82 c 8.51,4.4 11.87,14.95 7.47,23.44 v 0 c -4.41,8.51 -14.96,11.86 -23.44,7.47 l -106,-54.83 c -8.5,-4.39 -11.87,-14.94 -7.47,-23.43"
         style="fill:#af7f1d;fill-opacity:1;fill-rule:evenodd;stroke:none"
         transform="matrix(0.13333333,0,0,-0.13333333,0,771.10667)" />
      <path
         id="path43"
         d="m 4689.33,3992.3 v 0 c 4.39,-8.51 14.92,-11.85 23.42,-7.46 l 23.29,12.05 c 8.51,4.39 11.87,14.94 7.48,23.43 v 0 c -4.4,8.5 -14.95,11.85 -23.45,7.47 l -23.29,-12.05 c -8.49,-4.4 -11.85,-14.94 -7.45,-23.44"
         style="fill:#af7f1d;fill-opacity:1;fill-rule:evenodd;stroke:none"
         transform="matrix(0.13333333,0,0,-0.13333333,0,771.10667)" />
      <path
         id="path44"
         d="m 4766.81,4032.37 v 0 c 4.39,-8.5 14.94,-11.86 23.42,-7.45 l 23.31,12.04 c 8.49,4.39 11.85,14.94 7.46,23.43 v 0 c -4.41,8.5 -14.95,11.86 -23.45,7.47 l -23.29,-12.06 c -8.5,-4.38 -11.85,-14.93 -7.45,-23.43"
         style="fill:#af7f1d;fill-opacity:1;fill-rule:evenodd;stroke:none"
         transform="matrix(0.13333333,0,0,-0.13333333,0,771.10667)" />
      <path
         id="path45"
         d="m 4156.67,3515.16 520.69,671.64 c 33.34,43.41 94.25,54.32 140.61,25.19 46.34,-29.13 62.92,-88.74 38.26,-137.63 l -220.9,-321.99 -478.66,-237.21"
         style="fill:#f03d1e;fill-opacity:1;fill-rule:evenodd;stroke:none"
         transform="matrix(0.13333333,0,0,-0.13333333,0,771.10667)" />
      <path
         id="path46"
         d="m 4203.34,1478.14 -74.22,961.02 c -13.56,175.59 103.49,334.63 275.16,373.92 171.68,39.29 346.23,-53.04 410.39,-217.05 l 361.71,-966.07 c 71.62,-191.26 20.41,-406.83 -129.55,-545.48 -58.77,-54.33 -128.14,-92.589 -201.91,-113.878 h -278.81 c -24.82,7.168 -49.3,16.308 -73.23,27.468 -185.06,86.37 -299.49,276.08 -289.54,480.07"
         style="fill:#ffffff;fill-opacity:1;fill-rule:evenodd;stroke:none"
         transform="matrix(0.13333333,0,0,-0.13333333,0,771.10667)" />
      <path
         id="path47"
         d="m 4196.56,970.602 -90.71,1174.958 c -18.88,244.4 144.03,465.81 383.01,520.5 238.96,54.69 481.96,-73.83 571.27,-302.14 l 503.49,-1344.78 c 6.02,-16.05 11.39,-32.261 16.18,-48.538 H 4196.56"
         style="fill:#2e2d2d;fill-opacity:1;fill-rule:evenodd;stroke:none"
         transform="matrix(0.13333333,0,0,-0.13333333,0,771.10667)" />
      <path
         id="path48"
         d="m 1496.61,2797.63 c 192.88,155.78 204.87,376.94 272.57,532.07 31.72,72.69 84.16,134.42 150.75,177.5 36.21,23.4 55.35,65.83 48.96,108.46 -6.39,42.63 -37.12,77.58 -78.6,89.35 -129.78,36.84 -265.42,-35.79 -306.71,-164.22 -13.03,-40.5 -41.56,-74.2 -79.36,-93.71 L 930.73,4186.8 c -33.351,43.41 -94.261,54.32 -140.609,25.19 -46.348,-29.13 -62.918,-88.74 -38.266,-137.63 L 972.75,3752.37 682.813,4082.01 c -26.243,29.83 -66.442,43.35 -105.372,35.43 -38.941,-7.91 -70.668,-36.05 -83.179,-73.76 -12.508,-37.71 -3.887,-79.24 22.593,-108.86 L 794.262,3586.4 523.73,3866.7 c -38.968,40.36 -102.96,42.47 -144.492,4.72 -41.527,-37.72 -45.554,-101.63 -9.093,-144.28 l 286.882,-308.39 -116.468,46.21 -93.571,90.5 c -39.285,37.99 -101.605,38.02 -140.918,0.06 -39.312,-37.96 -41.468,-100.24 -4.879,-140.83 l 92.348,-98.29 c 35.387,-37.67 78.828,-66.86 127.09,-85.39 l 159.781,-60.18 246.363,-357.16 -151.277,-623.63 573.384,-125.51 147.73,733.1"
         style="fill:#f03d1e;fill-opacity:1;fill-rule:evenodd;stroke:none"
         transform="matrix(0.13333333,0,0,-0.13333333,0,771.10667)" />
      <path
         id="path49"
         d="M 1451.44,3515.16 930.73,4186.8 c -33.351,43.41 -94.261,54.32 -140.609,25.19 -46.348,-29.13 -62.926,-88.74 -38.266,-137.63 l 220.895,-321.99 478.69,-237.21"
         style="fill:#f03d1e;fill-opacity:1;fill-rule:evenodd;stroke:none"
         transform="matrix(0.13333333,0,0,-0.13333333,0,771.10667)" />
      <path
         id="path50"
         d="m 1404.76,1478.14 74.2,961 c 13.56,175.6 -103.48,334.65 -275.15,373.94 -171.67,39.29 -346.236,-53.04 -410.388,-217.05 L 431.719,1629.96 c -71.617,-191.26 -20.418,-406.83 129.543,-545.48 58.777,-54.33 128.136,-92.589 201.906,-113.878 h 278.802 c 24.83,7.168 49.31,16.308 73.23,27.468 185.07,86.37 299.5,276.08 289.56,480.07"
         style="fill:#ffffff;fill-opacity:1;fill-rule:evenodd;stroke:none"
         transform="matrix(0.13333333,0,0,-0.13333333,0,771.10667)" />
      <path
         id="path51"
         d="m 1411.52,970.602 90.73,1174.958 c 18.88,244.4 -144.05,465.81 -383.02,520.5 -238.972,54.69 -481.964,-73.83 -571.265,-302.14 L 44.4688,1019.14 C 38.457,1003.09 33.0703,986.879 28.2969,970.602 H 1411.52"
         style="fill:#2e2d2d;fill-opacity:1;fill-rule:evenodd;stroke:none"
         transform="matrix(0.13333333,0,0,-0.13333333,0,771.10667)" />
      <path
         id="path52"
         d="m 2499.44,5590.77 h 609.2 c 38.88,0 70.68,-31.8 70.68,-70.67 v 0 c 0,-38.87 -31.8,-70.67 -70.68,-70.67 h -609.2 c -38.86,0 -70.67,31.8 -70.67,70.67 v 0 c 0,38.87 31.81,70.67 70.67,70.67"
         style="fill:#ca9f96;fill-opacity:1;fill-rule:evenodd;stroke:none"
         transform="matrix(0.13333333,0,0,-0.13333333,0,771.10667)" />
    </g>
  </g>
</svg>
