<?xml version="1.0" encoding="UTF-8" standalone="no"?>
<!-- Created with Inkscape (http://www.inkscape.org/) -->

<svg
   version="1.1"
   id="svg1"
   width="657.89331"
   height="487.76001"
   viewBox="0 0 657.89331 487.76001"
   sodipodi:docname="blue-saloon-car-body.svg"
   inkscape:version="1.3.2 (091e20ef0f, 2023-11-25, custom)"
   xmlns:inkscape="http://www.inkscape.org/namespaces/inkscape"
   xmlns:sodipodi="http://sodipodi.sourceforge.net/DTD/sodipodi-0.dtd"
   xmlns="http://www.w3.org/2000/svg"
   xmlns:svg="http://www.w3.org/2000/svg">
  <defs
     id="defs1" />
  <sodipodi:namedview
     id="namedview1"
     pagecolor="#505050"
     bordercolor="#ffffff"
     borderopacity="1"
     inkscape:showpageshadow="0"
     inkscape:pageopacity="0"
     inkscape:pagecheckerboard="1"
     inkscape:deskcolor="#d1d1d1"
     inkscape:zoom="1.1220695"
     inkscape:cx="165.31952"
     inkscape:cy="138.13761"
     inkscape:window-width="1920"
     inkscape:window-height="1002"
     inkscape:window-x="0"
     inkscape:window-y="0"
     inkscape:window-maximized="1"
     inkscape:current-layer="group-R5">
    <inkscape:page
       x="0"
       y="0"
       inkscape:label="1"
       id="page1"
       width="657.89331"
       height="487.76001"
       margin="0"
       bleed="0" />
  </sodipodi:namedview>
  <g
     id="g1"
     inkscape:groupmode="layer"
     inkscape:label="1">
    <g
       id="group-R5">
      <path
         id="path2"
         d="m 2518.57,313.84 c 12.06,0 21.91,9.851 21.91,21.922 0,12.078 -9.85,21.918 -21.91,21.918 -12.08,0 -21.92,-9.84 -21.92,-21.918 0,-12.071 9.84,-21.922 21.92,-21.922"
         style="fill:#4c77b3;fill-opacity:1;fill-rule:evenodd;stroke:none"
         transform="matrix(0.13333333,0,0,-0.13333333,0,487.76)" />
      <path
         id="path3"
         d="m 1631.1,72.9219 c 0,5.457 -0.78,10.1679 -2.4,14.0273 -1.57,3.9219 -3.78,6.9297 -6.62,9.0625 -2.83,2.0664 -5.95,3.1367 -9.39,3.1367 -5.45,0 -10.06,-2.3086 -13.81,-6.7578 -3.75,-4.5117 -5.63,-11.0898 -5.63,-19.8203 0,-8.2422 1.88,-14.6289 5.57,-19.1406 3.75,-4.5899 8.38,-6.8906 13.87,-6.8906 3.28,0 6.34,1 9.16,3.0195 2.76,1.9922 5.02,4.9727 6.71,8.9102 1.71,4.0312 2.54,8.8125 2.54,14.4531 z m -38.77,30.0901 v -2.5 c 3.71,4.769 7.56,8.328 11.57,10.539 4.02,2.258 8.59,3.398 13.67,3.398 6.07,0 11.68,-1.648 16.81,-4.929 5.1,-3.282 9.15,-8.051 12.13,-14.3794 2.97,-6.3086 4.44,-13.7617 4.44,-22.3789 0,-6.3398 -0.83,-12.25 -2.55,-17.4922 -1.71,-5.3281 -4.07,-9.8203 -7.06,-13.4179 -3,-3.6016 -6.56,-6.3907 -10.62,-8.3125 -4.1,-1.9688 -8.5,-2.9297 -13.15,-2.9297 -5.69,0 -10.43,1.1797 -14.27,3.5625 -3.88,2.3594 -7.51,5.8164 -10.97,10.4179 V 13.6094 C 1592.33,4.51953 1589.16,0 1582.83,0 c -3.72,0 -6.2,1.14844 -7.37,3.48047 -1.22,2.35937 -1.82,5.78125 -1.82,10.25783 v 89.1327 c 0,3.918 0.79,6.867 2.45,8.809 1.67,1.922 3.91,2.922 6.74,2.922 2.8,0 5.09,-1 6.85,-3.012 1.76,-2.012 2.65,-4.871 2.65,-8.578"
         style="fill:#4c77b3;fill-opacity:1;fill-rule:nonzero;stroke:none"
         transform="matrix(0.13333333,0,0,-0.13333333,0,487.76)" />
      <path
         id="path4"
         d="m 1718.25,42.2891 v 2.6093 c -2.38,-3.1171 -4.86,-5.7187 -7.48,-7.8281 -2.61,-2.1601 -5.46,-3.7187 -8.53,-4.7383 -3.13,-1.0234 -6.64,-1.5507 -10.61,-1.5507 -4.75,0 -9.04,1.039 -12.85,3.0781 -3.8,2.0703 -6.74,4.9297 -8.79,8.5508 -2.5,4.3906 -3.7,10.6992 -3.7,18.8906 v 40.9182 c 0,4.113 0.89,7.222 2.68,9.25 1.79,2.043 4.15,3.07 7.08,3.07 3.01,0 5.41,-1.027 7.26,-3.117 1.84,-2.07 2.74,-5.152 2.74,-9.203 V 69.1484 c 0,-4.7578 0.39,-8.7773 1.14,-12.0078 0.81,-3.2695 2.19,-5.8086 4.22,-7.6797 1.96,-1.8203 4.69,-2.7304 8.12,-2.7304 3.37,0 6.5,1.039 9.43,3.1015 2.96,2.0391 5.12,4.7383 6.46,8.0664 1.11,2.9297 1.66,9.3204 1.66,19.211 v 25.1096 c 0,4.051 0.92,7.133 2.77,9.203 1.82,2.09 4.18,3.117 7.15,3.117 2.95,0 5.31,-1.027 7.1,-3.07 1.77,-2.028 2.65,-5.137 2.65,-9.25 V 42.4102 c 0,-3.9297 -0.82,-6.8907 -2.54,-8.8282 -1.7,-1.9922 -3.91,-2.9531 -6.62,-2.9531 -2.7,0 -4.92,1.0508 -6.7,3.043 -1.76,2.0664 -2.64,4.8984 -2.64,8.6172"
         style="fill:#4c77b3;fill-opacity:1;fill-rule:nonzero;stroke:none"
         transform="matrix(0.13333333,0,0,-0.13333333,0,487.76)" />
      <path
         id="path5"
         d="m 1775.63,72.1016 c 0,-8.2227 1.79,-14.5118 5.38,-18.9297 3.61,-4.3906 8.34,-6.6328 14.2,-6.6328 4.98,0 9.23,2.2812 12.86,6.7812 3.62,4.5195 5.42,10.9414 5.42,19.3789 0,5.5 -0.76,10.1719 -2.26,14.0821 -1.51,3.957 -3.65,7 -6.38,9.1289 -2.79,2.1289 -5.96,3.2382 -9.64,3.2382 -3.81,0 -7.11,-1.1093 -10.08,-3.2382 -2.97,-2.1289 -5.27,-5.25 -6.98,-9.3204 -1.69,-4.0195 -2.52,-8.8398 -2.52,-14.4882 z m -0.93,61.3674 V 101.91 c 3.67,4.07 7.49,7.129 11.34,9.32 3.87,2.141 8.68,3.219 14.36,3.219 6.58,0 12.33,-1.648 17.29,-4.871 4.94,-3.308 8.8,-7.988 11.52,-14.1561 2.75,-6.1719 4.1,-13.5 4.1,-21.9727 0,-6.2695 -0.75,-11.9883 -2.26,-17.2383 -1.53,-5.1992 -3.72,-9.6992 -6.63,-13.582 -2.93,-3.7969 -6.44,-6.7305 -10.55,-8.8984 -4.15,-2.0508 -8.7,-3.1211 -13.67,-3.1211 -3.02,0 -5.91,0.3906 -8.61,1.1406 -2.67,0.7617 -4.98,1.7383 -6.81,3.0117 -1.92,1.168 -3.52,2.4883 -4.86,3.7696 -1.32,1.3281 -3.05,3.2773 -5.22,5.8984 v -2.0195 c 0,-3.8985 -0.92,-6.8321 -2.71,-8.8282 -1.77,-1.9922 -4.07,-2.9726 -6.79,-2.9726 -2.83,0 -5.04,0.9804 -6.73,2.9726 -1.65,2.0391 -2.48,4.9493 -2.48,8.8282 v 90.1718 c 0,4.148 0.8,7.316 2.44,9.449 1.61,2.16 3.85,3.219 6.77,3.219 3.02,0 5.38,-1.012 7,-3.07 1.66,-2.032 2.5,-4.918 2.5,-8.711"
         style="fill:#4c77b3;fill-opacity:1;fill-rule:nonzero;stroke:none"
         transform="matrix(0.13333333,0,0,-0.13333333,0,487.76)" />
      <path
         id="path6"
         d="m 1847.28,43.1797 v 89.5193 c 0,4.153 0.87,7.262 2.61,9.391 1.8,2.101 4.16,3.16 7.16,3.16 3,0 5.4,-1.02 7.25,-3.129 1.8,-2.082 2.76,-5.25 2.76,-9.422 V 43.1797 c 0,-4.1914 -0.96,-7.3399 -2.81,-9.4492 -1.85,-2.0508 -4.26,-3.1211 -7.2,-3.1211 -2.9,0 -5.22,1.1015 -7.05,3.25 -1.82,2.1797 -2.72,5.2695 -2.72,9.3203"
         style="fill:#4c77b3;fill-opacity:1;fill-rule:nonzero;stroke:none"
         transform="matrix(0.13333333,0,0,-0.13333333,0,487.76)" />
      <path
         id="path7"
         d="M 1907.26,102.809 V 43.1797 c 0,-4.1602 -0.97,-7.2813 -2.81,-9.3984 -1.9,-2.0704 -4.3,-3.1719 -7.17,-3.1719 -2.91,0 -5.28,1.1015 -7.07,3.2422 -1.8,2.1875 -2.74,5.2773 -2.74,9.3281 v 59.0393 c 0,4.051 0.94,7.133 2.74,9.203 1.79,2.09 4.16,3.117 7.07,3.117 2.87,0 5.27,-1.027 7.17,-3.117 1.84,-2.07 2.81,-4.934 2.81,-8.613 z m -9.79,21.351 c -2.75,0 -5.09,0.879 -7.09,2.68 -1.9,1.762 -2.91,4.281 -2.91,7.512 0,2.91 1.01,5.296 3.02,7.218 2,1.891 4.32,2.782 6.98,2.782 2.56,0 4.84,-0.832 6.82,-2.532 1.97,-1.718 2.97,-4.23 2.97,-7.468 0,-3.204 -0.98,-5.68 -2.91,-7.454 -1.94,-1.789 -4.2,-2.738 -6.88,-2.738"
         style="fill:#4c77b3;fill-opacity:1;fill-rule:nonzero;stroke:none"
         transform="matrix(0.13333333,0,0,-0.13333333,0,487.76)" />
      <path
         id="path8"
         d="m 1998.54,56.1797 c 0,-2.5586 -0.72,-5.3203 -2.18,-8.2383 -1.5,-2.9219 -3.74,-5.7031 -6.77,-8.3516 -3,-2.6406 -6.81,-4.7695 -11.4,-6.371 -4.59,-1.6485 -9.76,-2.4375 -15.49,-2.4375 -12.24,0 -21.77,3.7304 -28.64,11.1484 -6.84,7.4414 -10.28,17.3789 -10.28,29.8906 0,8.4688 1.56,15.9805 4.69,22.461 3.13,6.4687 7.71,11.5387 13.63,15.0707 5.93,3.578 13.06,5.347 21.29,5.347 5.14,0 9.84,-0.801 14.12,-2.34 4.27,-1.57 7.89,-3.597 10.86,-6.039 2.97,-2.48 5.23,-5.121 6.82,-7.8981 1.58,-2.8008 2.34,-5.4102 2.34,-7.8438 0,-2.4375 -0.9,-4.5273 -2.64,-6.2578 -1.77,-1.7305 -3.88,-2.5703 -6.4,-2.5703 -1.66,0 -3.01,0.4688 -4.12,1.3516 -1.06,0.8476 -2.29,2.2382 -3.66,4.25 -2.4,3.8203 -4.94,6.707 -7.57,8.6601 -2.63,1.8985 -5.98,2.8789 -10.01,2.8789 -5.87,0 -10.58,-2.4218 -14.15,-7.1718 -3.58,-4.7969 -5.35,-11.2969 -5.35,-19.5704 0,-3.8593 0.46,-7.4687 1.39,-10.707 0.91,-3.2617 2.24,-6.0195 3.96,-8.332 1.75,-2.2891 3.83,-4.0196 6.3,-5.1992 2.46,-1.211 5.18,-1.7891 8.11,-1.7891 3.98,0 7.36,0.9375 10.19,2.8594 2.84,1.9414 5.34,4.8593 7.5,8.75 1.21,2.3711 2.51,4.1679 3.92,5.5 1.42,1.3203 3.13,1.9414 5.16,1.9414 2.41,0 4.41,-0.9336 6.02,-2.8516 1.56,-1.9492 2.36,-3.9687 2.36,-6.1406"
         style="fill:#4c77b3;fill-opacity:1;fill-rule:nonzero;stroke:none"
         transform="matrix(0.13333333,0,0,-0.13333333,0,487.76)" />
      <path
         id="path9"
         d="m 2031.13,72.6992 c 0,-5.5898 0.83,-10.3281 2.49,-14.2773 1.68,-3.9531 3.93,-6.8711 6.83,-8.8633 2.92,-2.0195 6.08,-3.0195 9.48,-3.0195 3.49,0 6.66,0.9726 9.53,2.832 2.89,1.9102 5.16,4.8203 6.9,8.7187 1.72,3.8907 2.57,8.7813 2.57,14.6094 0,5.5313 -0.85,10.2305 -2.57,14.1992 -1.74,3.9727 -4.05,6.9805 -6.96,9.1133 -2.93,2.0664 -6.11,3.1367 -9.59,3.1367 -3.61,0 -6.84,-1.1093 -9.7,-3.2382 -2.83,-2.1289 -5.07,-5.2383 -6.63,-9.2383 -1.56,-4.0313 -2.35,-8.6406 -2.35,-13.9727 z m 38.88,-30.289 v 2.0195 c -2.66,-3.168 -5.27,-5.75 -7.89,-7.7109 -2.54,-2.0196 -5.36,-3.5274 -8.38,-4.5586 -3.01,-1.0118 -6.31,-1.5508 -9.87,-1.5508 -4.73,0 -9.14,1.0703 -13.16,3.1211 -4.02,2.1679 -7.51,5.1093 -10.46,8.9883 -2.94,3.8828 -5.17,8.4414 -6.71,13.7031 -1.54,5.2265 -2.28,10.8984 -2.28,17.0273 0,12.8828 3.03,22.9805 9.06,30.1918 6.06,7.211 13.99,10.808 23.83,10.808 5.69,0 10.51,-1.039 14.41,-3.117 3.91,-2.012 7.74,-5.152 11.45,-9.422 v 30.488 c 0,4.243 0.8,7.442 2.43,9.602 1.61,2.18 3.9,3.25 6.91,3.25 2.98,0 5.29,-0.988 6.93,-2.969 1.6,-1.98 2.44,-4.929 2.44,-8.812 V 42.4102 c 0,-3.9297 -0.88,-6.8907 -2.63,-8.8282 -1.74,-1.9922 -3.97,-2.9726 -6.74,-2.9726 -2.68,0 -4.95,1.0195 -6.71,3.0625 -1.75,2.0273 -2.63,4.9179 -2.63,8.7383"
         style="fill:#4c77b3;fill-opacity:1;fill-rule:nonzero;stroke:none"
         transform="matrix(0.13333333,0,0,-0.13333333,0,487.76)" />
      <path
         id="path10"
         d="m 2162.76,72.5391 c 0,8.3906 -1.8,14.9609 -5.33,19.6406 -3.55,4.6601 -8.34,7.0391 -14.31,7.0391 -3.89,0 -7.28,-1.0586 -10.23,-3.1485 -2.94,-2.1211 -5.2,-5.1992 -6.81,-9.289 -1.58,-4.043 -2.39,-8.7696 -2.39,-14.2422 0,-5.3985 0.81,-10.0977 2.35,-14.1172 1.57,-4.043 3.82,-7.1211 6.76,-9.2735 2.91,-2.1367 6.38,-3.1992 10.32,-3.1992 5.97,0 10.76,2.3516 14.31,7.0625 3.53,4.6875 5.33,11.2266 5.33,19.5274 z m 19.85,0 c 0,-6.1172 -0.93,-11.8008 -2.76,-17.0274 -1.83,-5.1406 -4.49,-9.6133 -7.95,-13.3515 -3.5,-3.7383 -7.65,-6.5391 -12.48,-8.5782 -4.82,-1.9922 -10.3,-2.9726 -16.3,-2.9726 -5.98,0 -11.38,0.9804 -16.15,3.0312 -4.78,2 -8.94,4.8907 -12.45,8.6485 -3.48,3.7695 -6.13,8.1718 -7.97,13.2812 -1.8,5.1602 -2.7,10.7695 -2.7,17.0117 0,6.25 0.93,11.9571 2.74,17.1172 1.84,5.2305 4.45,9.6289 7.89,13.3398 3.44,3.68 7.58,6.512 12.49,8.492 4.9,2 10.25,3.008 16.15,3.008 5.99,0 11.43,-1.008 16.3,-3.039 4.87,-2 9.05,-4.898 12.52,-8.629 3.5,-3.7226 6.14,-8.1913 7.91,-13.3319 1.86,-5.1289 2.76,-10.8008 2.76,-17"
         style="fill:#4c77b3;fill-opacity:1;fill-rule:nonzero;stroke:none"
         transform="matrix(0.13333333,0,0,-0.13333333,0,487.76)" />
      <path
         id="path11"
         d="m 2266.14,89.5898 c -1.48,-3.4882 -2.18,-9.6484 -2.18,-18.5195 V 43.6406 c 0,-4.3203 -0.93,-7.6015 -2.84,-9.7812 -1.87,-2.1485 -4.39,-3.25 -7.48,-3.25 -2.97,0 -5.39,1.1015 -7.23,3.25 -1.87,2.1797 -2.78,5.4609 -2.78,9.7812 v 32.9297 c 0,5.1797 -0.19,9.1992 -0.53,12.1094 -0.35,2.8398 -1.25,5.2109 -2.76,7.0586 -1.46,1.8515 -3.85,2.7734 -7.07,2.7734 -6.46,0 -10.72,-2.3203 -12.79,-6.9922 -2.07,-4.6211 -3.05,-11.2812 -3.05,-19.9687 V 43.6406 c 0,-4.3125 -0.96,-7.5508 -2.79,-9.6992 -1.88,-2.2305 -4.33,-3.332 -7.34,-3.332 -3.01,0 -5.49,1.1015 -7.39,3.332 -1.92,2.1484 -2.83,5.3867 -2.83,9.6875 v 59.0701 c 0,3.903 0.82,6.852 2.52,8.86 1.74,2 3.99,3.043 6.82,3.043 2.69,0 4.96,-0.942 6.75,-2.84 1.81,-1.883 2.72,-4.481 2.72,-7.821 v -1.961 c 3.42,4.29 7.1,7.45 10.99,9.442 3.91,2.008 8.31,3.027 13.05,3.027 4.96,0 9.22,-1.039 12.79,-3.117 3.6,-2.051 6.53,-5.184 8.83,-9.352 3.34,4.2 6.92,7.372 10.74,9.399 3.82,2.051 8.04,3.07 12.66,3.07 5.45,0 10.1,-1.078 13.99,-3.34 3.92,-2.218 6.83,-5.379 8.77,-9.519 1.7,-3.7306 2.53,-9.6017 2.53,-17.6408 V 43.6406 c 0,-4.3203 -0.93,-7.6015 -2.79,-9.7812 -1.92,-2.1485 -4.38,-3.25 -7.48,-3.25 -3.01,0 -5.45,1.1015 -7.34,3.332 -1.94,2.1484 -2.89,5.3867 -2.89,9.6992 v 34.7383 c 0,4.4414 -0.18,7.9805 -0.53,10.6602 -0.37,2.7109 -1.35,4.9101 -2.96,6.7422 -1.58,1.8085 -4.01,2.7304 -7.22,2.7304 -2.6,0 -5.09,-0.8203 -7.4,-2.3906 -2.38,-1.6406 -4.16,-3.8125 -5.49,-6.5313 v 0"
         style="fill:#4c77b3;fill-opacity:1;fill-rule:nonzero;stroke:none"
         transform="matrix(0.13333333,0,0,-0.13333333,0,487.76)" />
      <path
         id="path12"
         d="m 2378.15,72.1484 c -2.91,-1.1367 -7.12,-2.2773 -12.65,-3.539 -5.54,-1.2305 -9.37,-2.1289 -11.5,-2.7188 -2.12,-0.6015 -4.16,-1.7187 -6.06,-3.3906 -1.95,-1.7383 -2.93,-4.0781 -2.93,-7.1094 0,-3.1601 1.15,-5.789 3.4,-7.9922 2.28,-2.2187 5.26,-3.289 8.93,-3.289 3.91,0 7.54,0.9101 10.83,2.6914 3.31,1.7812 5.77,4.1211 7.28,6.918 1.8,3.1328 2.7,8.2617 2.7,15.4921 z m 1.29,-29.9101 c -4.79,-3.8789 -9.41,-6.7774 -13.87,-8.6992 -4.46,-1.9688 -9.5,-2.9297 -15.02,-2.9297 -5.11,0 -9.52,1.0703 -13.39,3.1211 -3.87,2.1093 -6.8,4.9492 -8.89,8.5586 -2.05,3.582 -3.11,7.4218 -3.11,11.6211 0,5.6601 1.75,10.4492 5.17,14.4492 3.4,3.9492 8.11,6.6406 14.09,8 1.26,0.3125 4.4,0.9609 9.34,2.0195 5.03,1.0899 9.25,2.043 12.85,2.9219 3.52,0.8711 7.39,1.9375 11.54,3.1875 -0.25,5.4726 -1.29,9.4609 -3.14,12.0625 -1.88,2.5195 -5.76,3.7692 -11.57,3.7692 -5.05,0 -8.81,-0.7106 -11.38,-2.1794 -2.52,-1.4414 -4.71,-3.6601 -6.49,-6.6211 -1.84,-2.8984 -3.09,-4.8398 -3.84,-5.7578 -0.77,-0.9609 -2.38,-1.3828 -4.81,-1.3828 -2.25,0 -4.16,0.7305 -5.76,2.1992 -1.64,1.5 -2.44,3.3828 -2.44,5.7305 0,3.6211 1.23,7.1797 3.68,10.5624 2.47,3.449 6.32,6.258 11.53,8.508 5.21,2.223 11.72,3.32 19.51,3.32 8.67,0 15.52,-1.097 20.52,-3.23 4.97,-2.117 8.44,-5.489 10.51,-10.16 2.07,-4.6098 3.09,-10.7895 3.09,-18.4379 0,-4.8398 0,-8.9805 -0.03,-12.3398 -0.04,-3.3907 -0.06,-7.1407 -0.11,-11.2696 0,-3.8711 0.62,-7.9297 1.86,-12.1211 1.2,-4.2109 1.81,-6.9414 1.81,-8.1211 0,-2.1289 -0.96,-4.0586 -2.86,-5.8007 -1.86,-1.7305 -4.05,-2.6094 -6.45,-2.6094 -2.06,0 -4.03,0.9804 -6.04,2.9726 -1.97,1.9961 -4.07,4.8985 -6.3,8.6563"
         style="fill:#4c77b3;fill-opacity:1;fill-rule:nonzero;stroke:none"
         transform="matrix(0.13333333,0,0,-0.13333333,0,487.76)" />
      <path
         id="path13"
         d="M 2437.43,102.809 V 43.1797 c 0,-4.1602 -0.95,-7.2813 -2.8,-9.3984 -1.89,-2.0704 -4.26,-3.1719 -7.17,-3.1719 -2.89,0 -5.27,1.1015 -7.06,3.2422 -1.84,2.1875 -2.74,5.2773 -2.74,9.3281 v 59.0393 c 0,4.051 0.9,7.133 2.74,9.203 1.79,2.09 4.17,3.117 7.06,3.117 2.91,0 5.28,-1.027 7.17,-3.117 1.85,-2.07 2.8,-4.934 2.8,-8.613 z m -9.77,21.351 c -2.73,0 -5.07,0.879 -7.03,2.68 -1.96,1.762 -2.97,4.281 -2.97,7.512 0,2.91 1.02,5.296 3.03,7.218 1.99,1.891 4.34,2.782 6.97,2.782 2.56,0 4.86,-0.832 6.84,-2.532 1.96,-1.718 2.93,-4.23 2.93,-7.468 0,-3.204 -0.95,-5.68 -2.89,-7.454 -1.93,-1.789 -4.23,-2.738 -6.88,-2.738"
         style="fill:#4c77b3;fill-opacity:1;fill-rule:nonzero;stroke:none"
         transform="matrix(0.13333333,0,0,-0.13333333,0,487.76)" />
      <path
         id="path14"
         d="m 2475.87,103.109 v -2.461 c 3.46,4.774 7.26,8.282 11.36,10.524 4.14,2.238 8.88,3.367 14.27,3.367 5.19,0 9.88,-1.168 14.01,-3.578 4.06,-2.352 7.15,-5.68 9.16,-10 1.32,-2.5391 2.14,-5.2891 2.55,-8.1993 0.36,-2.9023 0.58,-6.6328 0.58,-11.1836 V 43.1797 c 0,-4.1602 -0.93,-7.2813 -2.73,-9.3984 -1.82,-2.0704 -4.18,-3.1719 -7.06,-3.1719 -2.94,0 -5.34,1.1015 -7.11,3.25 -1.87,2.1797 -2.8,5.2695 -2.8,9.3203 v 34.3789 c 0,6.8398 -0.88,12.0312 -2.69,15.6211 -1.85,3.6016 -5.47,5.4297 -10.88,5.4297 -3.51,0 -6.73,-1.0977 -9.62,-3.3086 -2.89,-2.1719 -5.02,-5.1992 -6.37,-9.0313 -0.96,-3.0781 -1.47,-8.8007 -1.47,-17.2695 V 43.1797 c 0,-4.1914 -0.91,-7.3399 -2.78,-9.4492 -1.87,-2.0508 -4.27,-3.1211 -7.2,-3.1211 -2.83,0 -5.2,1.1015 -7.02,3.2422 -1.87,2.1875 -2.77,5.2773 -2.77,9.3281 v 59.6293 c 0,3.953 0.82,6.863 2.49,8.812 1.6,1.938 3.9,2.918 6.73,2.918 1.71,0 3.3,-0.461 4.68,-1.289 1.45,-0.84 2.53,-2.168 3.38,-3.82 0.82,-1.758 1.29,-3.852 1.29,-6.321"
         style="fill:#4c77b3;fill-opacity:1;fill-rule:nonzero;stroke:none"
         transform="matrix(0.13333333,0,0,-0.13333333,0,487.76)" />
      <path
         id="path15"
         d="m 2559.54,101.699 15.98,-46.8787 17.24,48.9177 c 1.38,3.934 2.7,6.692 4.02,8.34 1.34,1.633 3.28,2.461 5.93,2.461 2.5,0 4.63,-0.879 6.44,-2.68 1.73,-1.75 2.62,-3.757 2.62,-6.129 0,-0.89 -0.18,-1.929 -0.49,-3.121 -0.28,-1.238 -0.65,-2.371 -1.07,-3.4488 -0.42,-1.0196 -0.85,-2.25 -1.42,-3.6016 l -18.98,-49.1484 c -0.53,-1.3907 -1.24,-3.211 -2.06,-5.3907 -0.86,-2.1484 -1.81,-3.9609 -2.83,-5.5586 -1.05,-1.5195 -2.32,-2.6796 -3.83,-3.5507 -1.55,-0.8594 -3.39,-1.3008 -5.57,-1.3008 -2.81,0 -5.02,0.6719 -6.71,1.9804 -1.67,1.3516 -2.9,2.8008 -3.69,4.4219 -0.78,1.5586 -2.15,4.7188 -4.02,9.3985 l -18.85,48.6211 c -0.43,1.1875 -0.9,2.4101 -1.37,3.6171 -0.44,1.211 -0.79,2.4106 -1.13,3.7036 -0.31,1.289 -0.48,2.359 -0.48,3.226 0,1.453 0.41,2.844 1.25,4.223 0.82,1.398 1.96,2.551 3.4,3.41 1.47,0.867 3,1.328 4.72,1.328 3.26,0 5.53,-0.98 6.77,-2.98 1.24,-1.95 2.63,-5.239 4.13,-9.86"
         style="fill:#4c77b3;fill-opacity:1;fill-rule:nonzero;stroke:none"
         transform="matrix(0.13333333,0,0,-0.13333333,0,487.76)" />
      <path
         id="path16"
         d="m 2640.44,79.2695 h 35.85 c -0.46,7.0391 -2.27,12.3203 -5.46,15.8125 -3.17,3.4766 -7.34,5.238 -12.52,5.238 -4.89,0 -8.95,-1.7809 -12.1,-5.32 -3.16,-3.5391 -5.06,-8.7891 -5.77,-15.7305 z m 38.69,-11.7382 h -38.69 c 0.01,-4.711 0.96,-8.8321 2.69,-12.4415 1.79,-3.539 4.12,-6.25 7.05,-8.0781 2.92,-1.832 6.15,-2.7109 9.68,-2.7109 2.36,0 4.54,0.289 6.47,0.8476 1.95,0.6133 3.87,1.5118 5.72,2.7305 1.81,1.2422 3.48,2.5313 5.04,3.9922 1.52,1.4102 3.59,3.2891 6.02,5.7187 1.02,0.961 2.48,1.379 4.34,1.379 2.06,0 3.68,-0.5469 4.94,-1.75 1.26,-1.1602 1.86,-2.7774 1.86,-4.8868 0,-1.8711 -0.69,-4.0507 -2.1,-6.5703 -1.39,-2.4609 -3.46,-4.8711 -6.34,-7.1914 -2.83,-2.2695 -6.38,-4.1484 -10.65,-5.6992 -4.25,-1.5117 -9.14,-2.2617 -14.75,-2.2617 -12.69,0 -22.58,3.8125 -29.6,11.332 -7.04,7.6094 -10.56,17.8281 -10.56,30.7578 0,6.1719 0.9,11.7891 2.6,16.9922 1.74,5.2383 4.26,9.6992 7.6,13.4176 3.34,3.75 7.42,6.629 12.31,8.602 4.91,2 10.29,2.988 16.25,2.988 7.68,0 14.33,-1.687 19.86,-5.121 5.54,-3.398 9.67,-7.769 12.43,-13.1483 2.75,-5.4297 4.13,-10.8984 4.13,-16.5313 0,-5.1601 -1.39,-8.5273 -4.27,-10.0468 -2.87,-1.5625 -6.85,-2.3203 -12.03,-2.3203"
         style="fill:#4c77b3;fill-opacity:1;fill-rule:nonzero;stroke:none"
         transform="matrix(0.13333333,0,0,-0.13333333,0,487.76)" />
      <path
         id="path17"
         d="m 2783.06,56.1797 c 0,-2.5586 -0.74,-5.3203 -2.24,-8.2383 -1.48,-2.9219 -3.68,-5.7031 -6.73,-8.3516 -3.01,-2.6406 -6.84,-4.7695 -11.44,-6.371 -4.56,-1.6485 -9.76,-2.4375 -15.46,-2.4375 -12.26,0 -21.8,3.7304 -28.65,11.1484 -6.83,7.4414 -10.29,17.3789 -10.29,29.8906 0,8.4688 1.56,15.9805 4.73,22.461 3.14,6.4687 7.65,11.5387 13.6,15.0707 5.92,3.578 13.05,5.347 21.32,5.347 5.12,0 9.8,-0.801 14.1,-2.34 4.27,-1.57 7.86,-3.597 10.87,-6.039 2.97,-2.48 5.22,-5.121 6.81,-7.8981 1.55,-2.8008 2.34,-5.4102 2.34,-7.8438 0,-2.4375 -0.86,-4.5273 -2.68,-6.2578 -1.74,-1.7305 -3.87,-2.5703 -6.38,-2.5703 -1.65,0 -3.01,0.4688 -4.07,1.3516 -1.12,0.8476 -2.33,2.2382 -3.69,4.25 -2.42,3.8203 -4.93,6.707 -7.56,8.6601 -2.64,1.8985 -5.98,2.8789 -10.05,2.8789 -5.81,0 -10.54,-2.4218 -14.1,-7.1718 -3.61,-4.7969 -5.38,-11.2969 -5.38,-19.5704 0,-3.8593 0.48,-7.4687 1.36,-10.707 0.93,-3.2617 2.27,-6.0195 4.02,-8.332 1.72,-2.2891 3.84,-4.0196 6.3,-5.1992 2.43,-1.211 5.14,-1.7891 8.11,-1.7891 3.96,0 7.36,0.9375 10.19,2.8594 2.81,1.9414 5.33,4.8593 7.51,8.75 1.21,2.3711 2.49,4.1679 3.9,5.5 1.39,1.3203 3.09,1.9414 5.15,1.9414 2.38,0 4.42,-0.9336 5.96,-2.8516 1.63,-1.9492 2.45,-3.9687 2.45,-6.1406"
         style="fill:#4c77b3;fill-opacity:1;fill-rule:nonzero;stroke:none"
         transform="matrix(0.13333333,0,0,-0.13333333,0,487.76)" />
      <path
         id="path18"
         d="m 2801.42,112.801 h 2.17 v 12.41 c 0,3.301 0.09,5.937 0.27,7.809 0.16,1.902 0.6,3.492 1.41,4.878 0.76,1.383 1.87,2.551 3.34,3.442 1.44,0.859 3.05,1.281 4.84,1.281 2.5,0 4.78,-0.961 6.79,-2.922 1.33,-1.32 2.21,-2.91 2.57,-4.777 0.37,-1.902 0.54,-4.613 0.54,-8.082 v -14.039 h 7.27 c 2.8,0 4.95,-0.699 6.41,-2.09 1.51,-1.391 2.22,-3.141 2.22,-5.32 0,-2.782 -1.05,-4.743 -3.18,-5.8324 -2.09,-1.0898 -5.09,-1.6484 -9.01,-1.6484 h -3.71 V 59.8906 c 0,-3.2304 0.12,-5.7187 0.32,-7.4804 0.26,-1.75 0.87,-3.1602 1.79,-4.2188 0.91,-1.082 2.45,-1.6523 4.59,-1.6523 1.15,0 2.71,0.2109 4.72,0.6523 1.93,0.418 3.48,0.6367 4.61,0.6367 1.59,0 3.07,-0.6875 4.33,-1.957 1.25,-1.3828 1.91,-3 1.91,-4.9805 0,-3.3086 -1.7,-5.8593 -5.21,-7.6289 -3.52,-1.7734 -8.5,-2.6523 -14.99,-2.6523 -6.19,0 -10.89,1.1015 -14.07,3.25 -3.18,2.1797 -5.3,5.1601 -6.25,9.039 -1.02,3.8321 -1.51,8.9297 -1.51,15.3399 v 39.6719 h -2.62 c -2.81,0 -4.98,0.6992 -6.5,2.1288 -1.5,1.402 -2.23,3.172 -2.23,5.352 0,2.179 0.77,3.929 2.32,5.32 1.59,1.391 3.86,2.09 6.86,2.09"
         style="fill:#4c77b3;fill-opacity:1;fill-rule:nonzero;stroke:none"
         transform="matrix(0.13333333,0,0,-0.13333333,0,487.76)" />
      <path
         id="path19"
         d="m 2907.02,72.5391 c 0,8.3906 -1.8,14.9609 -5.32,19.6406 -3.58,4.6601 -8.31,7.0391 -14.32,7.0391 -3.87,0 -7.27,-1.0586 -10.2,-3.1485 -2.97,-2.1211 -5.24,-5.1992 -6.82,-9.289 -1.59,-4.043 -2.4,-8.7696 -2.4,-14.2422 0,-5.3985 0.81,-10.0977 2.37,-14.1172 1.56,-4.043 3.8,-7.1211 6.72,-9.2735 2.91,-2.1367 6.36,-3.1992 10.33,-3.1992 6.01,0 10.74,2.3516 14.32,7.0625 3.52,4.6875 5.32,11.2266 5.32,19.5274 z m 19.86,0 c 0,-6.1172 -0.91,-11.8008 -2.78,-17.0274 -1.81,-5.1406 -4.49,-9.6133 -7.95,-13.3515 -3.48,-3.7383 -7.64,-6.5391 -12.46,-8.5782 -4.84,-1.9922 -10.24,-2.9726 -16.31,-2.9726 -6.01,0 -11.4,0.9804 -16.17,3.0312 -4.76,2 -8.92,4.8907 -12.42,8.6485 -3.49,3.7695 -6.15,8.1718 -7.94,13.2812 -1.81,5.1602 -2.7,10.7695 -2.7,17.0117 0,6.25 0.89,11.9571 2.7,17.1172 1.87,5.2305 4.47,9.6289 7.9,13.3398 3.46,3.68 7.6,6.512 12.46,8.492 4.93,2 10.3,3.008 16.17,3.008 6.01,0 11.41,-1.008 16.31,-3.039 4.87,-2 9.03,-4.898 12.52,-8.629 3.45,-3.7226 6.14,-8.1913 7.95,-13.3319 1.81,-5.1289 2.72,-10.8008 2.72,-17"
         style="fill:#4c77b3;fill-opacity:1;fill-rule:nonzero;stroke:none"
         transform="matrix(0.13333333,0,0,-0.13333333,0,487.76)" />
      <path
         id="path20"
         d="M 2962.11,60.3711 V 43.1797 c 0,-4.1914 -0.95,-7.3399 -2.83,-9.4492 -1.9,-2.0508 -4.28,-3.1211 -7.2,-3.1211 -2.81,0 -5.19,1.1015 -7,3.1719 -1.84,2.1171 -2.74,5.2382 -2.74,9.3984 v 57.4493 c 0,9.293 3.2,13.91 9.62,13.91 3.25,0 5.64,-1.109 7.11,-3.238 1.43,-2.172 2.19,-5.379 2.39,-9.602 2.35,4.223 4.8,7.43 7.29,9.602 2.49,2.129 5.79,3.238 9.92,3.238 4.19,0 8.21,-1.109 12.14,-3.238 3.89,-2.172 5.87,-5.063 5.87,-8.629 0,-2.524 -0.86,-4.6329 -2.52,-6.2423 -1.65,-1.6289 -3.46,-2.4805 -5.41,-2.4805 -0.71,0 -2.47,0.4805 -5.24,1.4414 -2.8,0.918 -5.25,1.3907 -7.39,1.3907 -2.87,0 -5.23,-0.7696 -7.05,-2.3907 -1.84,-1.6093 -3.28,-3.9297 -4.28,-7.0508 -1.02,-3.1601 -1.75,-6.8593 -2.11,-11.1992 -0.38,-4.2812 -0.57,-9.5195 -0.57,-15.7695"
         style="fill:#4c77b3;fill-opacity:1;fill-rule:nonzero;stroke:none"
         transform="matrix(0.13333333,0,0,-0.13333333,0,487.76)" />
      <path
         id="path21"
         d="m 3067.46,57.5898 c 0,-5.7187 -1.33,-10.5781 -4.01,-14.6406 -2.67,-4.0781 -6.58,-7.1094 -11.78,-9.2304 -5.21,-2.0391 -11.5,-3.1094 -18.98,-3.1094 -7.05,0 -13.17,1.1406 -18.26,3.4219 -5.06,2.2695 -8.81,5.0781 -11.21,8.4804 -2.44,3.3867 -3.68,6.7969 -3.68,10.2071 0,2.2695 0.79,4.2226 2.37,5.832 1.54,1.6406 3.51,2.4101 5.84,2.4101 2.09,0 3.71,-0.5312 4.81,-1.5625 1.11,-1.1171 2.15,-2.5781 3.19,-4.4882 2.02,-3.6914 4.44,-6.4414 7.31,-8.25 2.78,-1.8399 6.64,-2.7383 11.56,-2.7383 3.93,0 7.19,0.9297 9.74,2.7773 2.52,1.8321 3.82,3.9297 3.82,6.3125 0,3.6485 -1.33,6.2969 -3.94,7.9375 -2.68,1.6992 -6.98,3.2891 -13.03,4.7891 -6.81,1.7734 -12.36,3.6211 -16.64,5.5508 -4.28,1.9492 -7.73,4.5312 -10.27,7.6992 -2.56,3.1328 -3.86,7.0625 -3.86,11.7031 0,4.1602 1.19,8.0703 3.56,11.7186 2.36,3.692 5.89,6.621 10.49,8.82 4.61,2.2 10.17,3.309 16.72,3.309 5.1,0 9.7,-0.57 13.8,-1.668 4.07,-1.109 7.53,-2.609 10.21,-4.449 2.73,-1.883 4.83,-3.942 6.24,-6.203 1.45,-2.2893 2.15,-4.5081 2.15,-6.6604 0,-2.3789 -0.74,-4.2695 -2.29,-5.8594 -1.53,-1.4375 -3.71,-2.2109 -6.47,-2.2109 -2.06,0 -3.78,0.5898 -5.22,1.832 -1.4,1.1914 -3.06,2.9883 -4.87,5.3789 -1.51,2.0313 -3.26,3.6602 -5.31,4.8594 -2.03,1.1914 -4.78,1.8124 -8.24,1.8124 -3.58,0 -6.58,-0.781 -8.91,-2.3905 -2.38,-1.5703 -3.57,-3.5586 -3.57,-5.9414 0,-2.168 0.88,-3.9375 2.59,-5.3282 1.77,-1.3789 4.09,-2.539 7.05,-3.4492 2.97,-0.9023 7.01,-2.0429 12.19,-3.332 6.14,-1.5586 11.14,-3.4102 15.04,-5.5899 3.88,-2.1484 6.82,-4.7187 8.82,-7.6679 2.04,-2.9805 3.04,-6.3321 3.04,-10.0821"
         style="fill:#4c77b3;fill-opacity:1;fill-rule:nonzero;stroke:none"
         transform="matrix(0.13333333,0,0,-0.13333333,0,487.76)" />
      <path
         id="path22"
         d="m 3089.92,30.6094 c -3,0 -5.58,0.9804 -7.73,3.0312 -2.21,2 -3.28,4.8399 -3.28,8.4375 0,3.0703 1.01,5.7227 3.07,7.9532 2.08,2.1992 4.66,3.289 7.71,3.289 3.02,0 5.63,-1.0898 7.73,-3.2812 2.18,-2.1602 3.26,-4.8594 3.26,-7.961 0,-3.5664 -1.08,-6.3789 -3.26,-8.4062 -2.1,-2.043 -4.61,-3.0625 -7.5,-3.0625"
         style="fill:#4c77b3;fill-opacity:1;fill-rule:nonzero;stroke:none"
         transform="matrix(0.13333333,0,0,-0.13333333,0,487.76)" />
      <path
         id="path23"
         d="m 3177.38,72.5391 c 0,8.3906 -1.78,14.9609 -5.33,19.6406 -3.55,4.6601 -8.31,7.0391 -14.29,7.0391 -3.87,0 -7.24,-1.0586 -10.2,-3.1485 -2.96,-2.1211 -5.23,-5.1992 -6.81,-9.289 -1.57,-4.043 -2.38,-8.7696 -2.38,-14.2422 0,-5.3985 0.76,-10.0977 2.32,-14.1172 1.61,-4.043 3.84,-7.1211 6.77,-9.2735 2.91,-2.1367 6.34,-3.1992 10.3,-3.1992 5.98,0 10.74,2.3516 14.29,7.0625 3.55,4.6875 5.33,11.2266 5.33,19.5274 z m 19.88,0 c 0,-6.1172 -0.91,-11.8008 -2.78,-17.0274 -1.84,-5.1406 -4.47,-9.6133 -7.96,-13.3515 -3.5,-3.7383 -7.6,-6.5391 -12.46,-8.5782 -4.81,-1.9922 -10.24,-2.9726 -16.3,-2.9726 -5.98,0 -11.36,0.9804 -16.15,3.0312 -4.78,2 -8.9,4.8907 -12.4,8.6485 -3.56,3.7695 -6.19,8.1718 -8.03,13.2812 -1.77,5.1602 -2.67,10.7695 -2.67,17.0117 0,6.25 0.9,11.9571 2.75,17.1172 1.87,5.2305 4.45,9.6289 7.87,13.3398 3.43,3.68 7.59,6.512 12.48,8.492 4.87,2 10.23,3.008 16.15,3.008 5.98,0 11.42,-1.008 16.3,-3.039 4.9,-2 9.07,-4.898 12.55,-8.629 3.46,-3.7226 6.1,-8.1913 7.93,-13.3319 1.81,-5.1289 2.72,-10.8008 2.72,-17"
         style="fill:#4c77b3;fill-opacity:1;fill-rule:nonzero;stroke:none"
         transform="matrix(0.13333333,0,0,-0.13333333,0,487.76)" />
      <path
         id="path24"
         d="M 3232.48,60.3711 V 43.1797 c 0,-4.1914 -0.94,-7.3399 -2.82,-9.4492 -1.86,-2.0508 -4.28,-3.1211 -7.15,-3.1211 -2.89,0 -5.21,1.1015 -7.05,3.1719 -1.86,2.1171 -2.76,5.2382 -2.76,9.3984 v 57.4493 c 0,9.293 3.25,13.91 9.64,13.91 3.29,0 5.64,-1.109 7.08,-3.238 1.43,-2.172 2.28,-5.379 2.45,-9.602 2.32,4.223 4.74,7.43 7.23,9.602 2.49,2.129 5.82,3.238 9.94,3.238 4.22,0 8.25,-1.109 12.12,-3.238 3.92,-2.172 5.89,-5.063 5.89,-8.629 0,-2.524 -0.84,-4.6329 -2.49,-6.2423 -1.69,-1.6289 -3.46,-2.4805 -5.43,-2.4805 -0.7,0 -2.44,0.4805 -5.21,1.4414 -2.8,0.918 -5.25,1.3907 -7.4,1.3907 -2.88,0 -5.22,-0.7696 -7.11,-2.3907 -1.8,-1.6093 -3.24,-3.9297 -4.26,-7.0508 -0.99,-3.1601 -1.7,-6.8593 -2.07,-11.1992 -0.39,-4.2812 -0.6,-9.5195 -0.6,-15.7695"
         style="fill:#4c77b3;fill-opacity:1;fill-rule:nonzero;stroke:none"
         transform="matrix(0.13333333,0,0,-0.13333333,0,487.76)" />
      <path
         id="path25"
         d="m 3289.59,73.25 c 0,-8.3516 1.76,-14.6914 5.27,-18.9883 3.48,-4.2617 8.04,-6.4336 13.56,-6.4336 3.26,0 6.4,0.961 9.31,2.793 2.93,1.8477 5.31,4.6094 7.15,8.3203 1.86,3.707 2.75,8.1992 2.75,13.4805 0,8.4179 -1.79,14.957 -5.34,19.6367 -3.53,4.7227 -8.21,7.0898 -14,7.0898 -5.63,0 -10.17,-2.3086 -13.56,-6.7578 -3.43,-4.5 -5.14,-10.8711 -5.14,-19.1406 z m 57.33,26.1797 V 39.4414 c 0,-6.8711 -0.75,-12.7617 -2.12,-17.6797 -1.4,-4.9726 -3.65,-9.0508 -6.73,-12.27342 -3.09,-3.20703 -7.16,-5.60937 -12.12,-7.16797 C 3320.94,0.789063 3314.71,0 3307.29,0 c -6.83,0 -12.93,0.949219 -18.27,2.94922 -5.37,2.03906 -9.51,4.58203 -12.4,7.74998 -2.89,3.1211 -4.35,6.3711 -4.35,9.7227 0,2.5195 0.8,4.5586 2.49,6.1367 1.62,1.6328 3.6,2.4102 5.91,2.4102 2.91,0 5.41,-1.3477 7.63,-4 1.07,-1.4102 2.18,-2.7696 3.28,-4.129 1.13,-1.3984 2.39,-2.6093 3.76,-3.5703 1.39,-1.0078 3.07,-1.7304 4.99,-2.2109 1.9,-0.4805 4.15,-0.7305 6.67,-0.7305 5.08,0 9.1,0.7617 11.91,2.2422 2.83,1.4805 4.81,3.5586 5.96,6.2305 1.09,2.6797 1.81,5.5195 1.93,8.5703 0.23,3.1094 0.37,7.957 0.5,14.75 -3.04,-4.4219 -6.61,-7.8125 -10.55,-10.1328 -3.99,-2.3164 -8.75,-3.4492 -14.21,-3.4492 -6.68,0 -12.46,1.7226 -17.38,5.2812 -4.97,3.5195 -8.78,8.4492 -11.43,14.8203 -2.63,6.3282 -3.98,13.668 -3.98,22 0,6.2305 0.79,11.8282 2.44,16.8203 1.58,4.9688 3.87,9.1871 6.92,12.6171 2.96,3.434 6.44,6.012 10.34,7.762 3.94,1.719 8.19,2.609 12.91,2.609 5.58,0 10.43,-1.14 14.53,-3.398 4.16,-2.211 7.93,-5.77 11.47,-10.539 v 2.777 c 0,3.602 0.88,6.352 2.54,8.383 1.68,1.93 3.87,2.93 6.51,2.93 3.83,0 6.36,-1.293 7.63,-3.891 1.24,-2.609 1.88,-6.383 1.88,-11.2813"
         style="fill:#4c77b3;fill-opacity:1;fill-rule:nonzero;stroke:none"
         transform="matrix(0.13333333,0,0,-0.13333333,0,487.76)" />
      <path
         id="path26"
         d="m 2489.66,300.43 h 29.33 c -2.07,-15.809 -8.55,-28.16 -19.33,-37.039 -9.97,-8.711 -22.05,-13 -36.16,-13 -19.16,0 -34.46,6.738 -45.87,20.16 -10.82,12.777 -16.22,29.281 -16.22,49.429 0,20.649 5.36,37.161 16.06,49.668 10.69,12.442 25.82,18.704 45.37,18.704 14.54,0 26.85,-3.942 36.82,-11.743 10.58,-8.437 17.05,-20.289 19.33,-35.468 h -29.33 c -2.54,13.238 -10.62,19.82 -24.38,19.82 -22.67,0 -34.03,-13.422 -34.03,-40.301 0,-12.601 2.92,-22.871 8.75,-30.89 5.83,-8.032 14.05,-12.059 24.66,-12.059 15.81,0 24.15,7.59 25,22.719 z m -115.49,18.511 c 0,-26.261 8.33,-48.48 24.95,-66.589 16.65,-18.102 37.02,-27.172 61.2,-27.172 24.07,0 44.47,9.07 61.09,27.172 16.67,18.109 24.94,40.328 24.94,66.589 0,26.239 -8.27,48.45 -24.94,66.571 -16.62,18.136 -37.02,27.179 -61.09,27.179 -24.18,0 -44.55,-9.043 -61.2,-27.179 -16.62,-18.121 -24.95,-40.332 -24.95,-66.571 z m -29.8,0 c 0,33.411 11.3,61.93 33.93,85.618 22.66,23.652 50,35.48 82.02,35.48 31.95,0 59.25,-11.828 81.93,-35.48 22.64,-23.688 33.98,-52.207 33.98,-85.618 0,-33.429 -11.34,-61.992 -33.98,-85.632 -22.68,-23.668 -49.98,-35.508 -81.93,-35.508 -32.02,0 -59.36,11.84 -82.02,35.508 -22.63,23.64 -33.93,52.203 -33.93,85.632"
         style="fill:#4c77b3;fill-opacity:1;fill-rule:nonzero;stroke:none"
         transform="matrix(0.13333333,0,0,-0.13333333,0,487.76)" />
      <path
         id="path27"
         d="m 2391.28,243 16.91,-14.352 124.34,159.672 -16.9,14.321 L 2391.28,243"
         style="fill:#4c77b3;fill-opacity:1;fill-rule:nonzero;stroke:none"
         transform="matrix(0.13333333,0,0,-0.13333333,0,487.76)" />
      <path
         id="path30"
         d="m 943.84,2194.17 c 165.13,0 299.01,-159.37 299.01,-355.97 0,-196.6 -133.88,-355.98 -299.01,-355.98 H 706.289 c -165.141,0 -299.016,159.38 -299.016,355.98 0,196.6 133.875,355.97 299.016,355.97 z m 1737.83,-711.95 h -237.54 c -165.14,0 -299.01,159.38 -299.01,355.98 0,196.6 133.87,355.97 299.01,355.97 h 237.54 c 165.16,0 299.02,-159.37 299.02,-355.97 0,-196.6 -133.86,-355.98 -299.02,-355.98 v 0"
         style="fill:#18273b;fill-opacity:1;fill-rule:evenodd;stroke:none"
         transform="matrix(0.13333333,0,0,-0.13333333,0,487.76)" />
      <path
         id="path31"
         d="m 1860.17,1714.13 h 2878.7 v 548.29 h -2878.7 v -548.29"
         style="fill:#365e9f;fill-opacity:1;fill-rule:evenodd;stroke:none"
         transform="matrix(0.13333333,0,0,-0.13333333,0,487.76)" />
      <path
         id="path32"
         d="m 4338.61,2054.41 c 38.55,-59.94 61.48,-134.88 61.48,-216.21 0,-81.33 -22.93,-156.27 -61.48,-216.21 v -139.77 h -237.56 c -165.13,0 -299,159.38 -299,355.98 0,196.6 133.87,355.97 299,355.97 h 237.56 v -139.76"
         style="fill:#1b2f49;fill-opacity:1;fill-rule:evenodd;stroke:none"
         transform="matrix(0.13333333,0,0,-0.13333333,0,487.76)" />
      <path
         id="path33"
         d="m 2249.7,2054.41 c 38.56,-59.94 61.48,-134.88 61.48,-216.21 0,-81.33 -22.92,-156.27 -61.48,-216.21 v -139.77 h -237.53 c -165.15,0 -299.03,159.38 -299.03,355.98 0,196.6 133.88,355.97 299.03,355.97 h 237.53 v -139.76"
         style="fill:#1b2f49;fill-opacity:1;fill-rule:evenodd;stroke:none"
         transform="matrix(0.13333333,0,0,-0.13333333,0,487.76)" />
      <path
         id="path35"
         d="m 54.4727,2338.42 c 12.3046,38.07 32.4453,67.71 61.6363,87.65 l 1463.131,-1.76 1682.35,-70.53 38.99,-92.62 c 11.7,-27.8 24.95,-54.68 39.67,-80.43 59.87,-104.77 63.7,-240.24 9.85,-349.38 -24.2,-49.03 -58.13,-88.9 -97.91,-117.22 h -672.47 c 10.39,39.16 15.99,80.83 15.99,124.07 0,227.48 -154.92,411.91 -346.01,411.91 -191.1,0 -345.99,-184.43 -345.99,-411.91 0,-43.24 5.6,-84.91 15.98,-124.07 H 1910.6 302.359 c -105.031,0 -202.07,65.57 -254.5817,172.01 L 7.57813,2059.15 c -11.53907,49.63 -9.94141,94.84 5.07027,143.55 l 41.8243,135.72"
         style="fill:#365e9f;fill-opacity:1;fill-rule:evenodd;stroke:none"
         transform="matrix(0.13333333,0,0,-0.13333333,0,487.76)" />
      <path
         id="path36"
         d="M 1408.42,1714.13 H 500.273 c -86.679,0 -167.918,44.67 -223.171,120.11 h 908.128 c 55.26,-75.44 136.51,-120.11 223.19,-120.11"
         style="fill:#18273b;fill-opacity:1;fill-rule:evenodd;stroke:none"
         transform="matrix(0.13333333,0,0,-0.13333333,0,487.76)" />
      <path
         id="path40"
         d="m 1554.92,2345.44 c 10.19,33.21 27.29,59.6 52.84,77.67 l 3182.36,-68.9 c 17.9,-12.57 30.03,-28.28 37.17,-46.67 l 19.53,-46.38 c 11.71,-27.8 24.96,-54.68 39.68,-80.43 59.87,-104.77 63.68,-240.24 9.83,-349.38 -24.18,-49.03 -58.12,-88.9 -97.89,-117.22 h -108.07 c 178.31,672.6 -838.33,672.6 -660.02,0 h -946.33 -504.3 c 10.39,39.16 15.99,80.83 15.99,124.07 0,227.48 -154.92,411.91 -346.01,411.91 -191.1,0 -345.99,-184.43 -345.99,-411.91 0,-43.24 5.6,-84.91 15.98,-124.07 h -119.05 c -105.02,0 -202.06,65.57 -254.58,172.01 l -40.19,173.01 c -11.53,49.63 -9.93,94.84 5.08,143.55 l 43.97,142.74"
         style="fill:#4c77b3;fill-opacity:1;fill-rule:evenodd;stroke:none"
         transform="matrix(0.13333333,0,0,-0.13333333,0,487.76)" />
      <path
         id="path42"
         d="m 2249.71,1482.22 c 164.69,0 299.02,159.91 299.02,355.98 0,196.06 -134.33,355.97 -299.02,355.97 -164.69,0 -299.02,-159.91 -299.02,-355.97 0,-196.07 134.33,-355.98 299.02,-355.98"
         style="fill:#18273b;fill-opacity:1;fill-rule:evenodd;stroke:none"
         transform="matrix(0.13333333,0,0,-0.13333333,0,487.76)" />
      <path
         id="path43"
         d="m 2249.71,1587.69 c 115.91,0 210.43,112.53 210.43,250.51 0,137.97 -94.52,250.51 -210.43,250.51 -115.9,0 -210.41,-112.54 -210.41,-250.51 0,-137.98 94.51,-250.51 210.41,-250.51"
         style="fill:#a2bedd;fill-opacity:1;fill-rule:evenodd;stroke:none"
         transform="matrix(0.13333333,0,0,-0.13333333,0,487.76)" />
      <path
         id="path44"
         d="m 2217.42,1640.44 c 91.5,0 166.12,88.83 166.12,197.76 0,108.93 -74.62,197.76 -166.12,197.76 -91.51,0 -166.12,-88.83 -166.12,-197.76 0,-108.93 74.61,-197.76 166.12,-197.76"
         style="fill:#18273b;fill-opacity:1;fill-rule:evenodd;stroke:none"
         transform="matrix(0.13333333,0,0,-0.13333333,0,487.76)" />
      <path
         id="path45"
         d="m 4338.61,1482.22 c 164.69,0 299.02,159.91 299.02,355.98 0,196.06 -134.33,355.97 -299.02,355.97 -164.69,0 -299.02,-159.91 -299.02,-355.97 0,-196.07 134.33,-355.98 299.02,-355.98"
         style="fill:#18273b;fill-opacity:1;fill-rule:evenodd;stroke:none"
         transform="matrix(0.13333333,0,0,-0.13333333,0,487.76)" />
      <path
         id="path46"
         d="m 4338.61,1587.69 c 115.89,0 210.41,112.53 210.41,250.51 0,137.97 -94.52,250.51 -210.41,250.51 -115.9,0 -210.42,-112.54 -210.42,-250.51 0,-137.98 94.52,-250.51 210.42,-250.51"
         style="fill:#a2bedd;fill-opacity:1;fill-rule:evenodd;stroke:none"
         transform="matrix(0.13333333,0,0,-0.13333333,0,487.76)" />
      <path
         id="path47"
         d="m 4306.31,1640.44 c 91.49,0 166.12,88.83 166.12,197.76 0,108.93 -74.63,197.76 -166.12,197.76 -91.5,0 -166.12,-88.83 -166.12,-197.76 0,-108.93 74.62,-197.76 166.12,-197.76"
         style="fill:#18273b;fill-opacity:1;fill-rule:evenodd;stroke:none"
         transform="matrix(0.13333333,0,0,-0.13333333,0,487.76)" />
      <path
         id="path50"
         d="m 4008.84,2421 c 16,-16.97 32,-33.95 48.01,-50.92 7.38,-35.89 14.75,-71.77 22.13,-107.66 -126.13,-68.25 -207.12,-195.59 -217.81,-457.8 H 2726.01 c 4.28,284.09 -60.24,427.33 -230.77,513.13 -11.7,49.73 -18.6736,38.0074 -30.3836,87.7374 L 2510.26,2333.61 c 157.2,-50.5 256.04,-232.69 246.2,-495.41 h 1074.26 c 5.94,230.41 87.73,365.8 220.41,438.28 l -11.46,82.87 c -10.28,20.55 -20.56,41.1 -30.83,61.65"
         style="fill:#365e9f;fill-opacity:1;fill-rule:evenodd;stroke:none"
         transform="matrix(0.13333333,0,0,-0.13333333,0,487.76)"
         sodipodi:nodetypes="ccccccccccccc" />
      <path
         id="path51"
         d="m 3175.6945,2405.4874 -6.7445,-28.6874 82.14,-549.14 26.72,-0.92 -80.25,551.91 -36.0446,31.5637"
         style="fill:#365e9f;fill-opacity:1;fill-rule:evenodd;stroke:none"
         transform="matrix(0.13333333,0,0,-0.13333333,0,487.76)"
         sodipodi:nodetypes="cccccc" />
      <path
         id="path54"
         d="m 1098.74,2273.88 h 247.4 c 33.02,0 60.05,-27.02 60.05,-60.05 v 0 c 0,-33.02 -27.03,-60.05 -60.05,-60.05 h -247.4 c -33.03,0 -60.04,27.03 -60.04,60.05 v 0 c 0,33.03 27.01,60.05 60.04,60.05"
         style="fill:#e9531d;fill-opacity:1;fill-rule:evenodd;stroke:none"
         transform="matrix(0.13333333,0,0,-0.13333333,0,487.76)" />
      <path
         id="path55"
         d="m 141.309,2273.88 h 247.39 c 33.031,0 60.055,-27.02 60.055,-60.05 v 0 c 0,-33.02 -27.024,-60.05 -60.055,-60.05 h -247.39 c -33.028,0 -60.0473,27.03 -60.0473,60.05 v 0 c 0,33.03 27.0193,60.05 60.0473,60.05"
         style="fill:#e9531d;fill-opacity:1;fill-rule:evenodd;stroke:none"
         transform="matrix(0.13333333,0,0,-0.13333333,0,487.76)" />
      <path
         id="path56"
         d="m 533.48,2249.88 h 420.473 c 11.684,0 21.235,-9.54 21.235,-21.22 v -118.14 c 0,-11.68 -9.551,-21.22 -21.235,-21.22 H 533.48 c -11.671,0 -21.218,9.54 -21.218,21.22 v 118.14 c 0,11.68 9.547,21.22 21.218,21.22"
         style="fill:#2a4b80;fill-opacity:1;fill-rule:evenodd;stroke:none"
         transform="matrix(0.13333333,0,0,-0.13333333,0,487.76)" />
      <path
         id="path57"
         d="M 129.402,2009.92 H 1386.65 c 26.48,0 54.15,-21.66 61.48,-48.15 v -0.01 c 7.33,-26.49 -8.34,-48.14 -34.83,-48.14 H 156.059 c -26.485,0 -54.145,21.65 -61.477,48.14 v 0.01 c -7.3242,26.49 8.344,48.15 34.82,48.15"
         style="fill:#2a4b80;fill-opacity:1;fill-rule:evenodd;stroke:none"
         transform="matrix(0.13333333,0,0,-0.13333333,0,487.76)" />
    </g>
  </g>
</svg>
