<?xml version="1.0" encoding="UTF-8" standalone="no"?>
<!-- Created with Inkscape (http://www.inkscape.org/) -->

<svg
   version="1.1"
   id="svg1"
   width="647.93335"
   height="579.1333"
   viewBox="0 0 647.93335 579.1333"
   sodipodi:docname="business-handshake-hands.svg"
   inkscape:version="1.3.2 (091e20ef0f, 2023-11-25, custom)"
   xmlns:inkscape="http://www.inkscape.org/namespaces/inkscape"
   xmlns:sodipodi="http://sodipodi.sourceforge.net/DTD/sodipodi-0.dtd"
   xmlns="http://www.w3.org/2000/svg"
   xmlns:svg="http://www.w3.org/2000/svg">
  <defs
     id="defs1" />
  <sodipodi:namedview
     id="namedview1"
     pagecolor="#505050"
     bordercolor="#ffffff"
     borderopacity="1"
     inkscape:showpageshadow="0"
     inkscape:pageopacity="0"
     inkscape:pagecheckerboard="1"
     inkscape:deskcolor="#d1d1d1"
     inkscape:zoom="0.98929929"
     inkscape:cx="323.96667"
     inkscape:cy="289.09351"
     inkscape:window-width="1920"
     inkscape:window-height="1002"
     inkscape:window-x="0"
     inkscape:window-y="0"
     inkscape:window-maximized="1"
     inkscape:current-layer="g1">
    <inkscape:page
       x="0"
       y="0"
       inkscape:label="1"
       id="page1"
       width="647.93335"
       height="579.1333"
       margin="0"
       bleed="0" />
  </sodipodi:namedview>
  <g
     id="g1"
     inkscape:groupmode="layer"
     inkscape:label="1">
    <g
       id="group-R5">
      <path
         id="path2"
         d="m 1523.08,72.9219 c 0,5.457 -0.79,10.1797 -2.41,14.0273 -1.57,3.9219 -3.78,6.9414 -6.62,9.0703 -2.83,2.0703 -5.94,3.1289 -9.39,3.1289 -5.45,0 -10.06,-2.2968 -13.81,-6.7578 -3.75,-4.5117 -5.63,-11.0898 -5.63,-19.8203 0,-8.2305 1.88,-14.6289 5.57,-19.1406 3.75,-4.5781 8.38,-6.8906 13.87,-6.8906 3.28,0 6.35,1 9.16,3.0195 2.76,1.9922 5.02,4.9727 6.72,8.9219 1.71,4.0195 2.54,8.8008 2.54,14.4414 z m -38.77,30.0901 v -2.492 c 3.71,4.761 7.56,8.332 11.56,10.531 4.02,2.258 8.59,3.398 13.67,3.398 6.08,0 11.68,-1.648 16.81,-4.929 5.11,-3.278 9.15,-8.051 12.14,-14.3716 2.97,-6.3164 4.43,-13.7578 4.43,-22.3867 0,-6.332 -0.83,-12.2422 -2.55,-17.4922 -1.71,-5.3281 -4.07,-9.8203 -7.06,-13.4179 -3,-3.6016 -6.56,-6.3907 -10.61,-8.3125 -4.11,-1.9688 -8.51,-2.9297 -13.16,-2.9297 -5.68,0 -10.43,1.1914 -14.27,3.5625 -3.87,2.3594 -7.51,5.8203 -10.96,10.4179 V 13.6094 C 1484.31,4.51953 1481.13,0 1474.8,0 c -3.72,0 -6.2,1.14844 -7.37,3.49219 -1.22,2.34765 -1.81,5.76953 -1.81,10.25001 v 89.1288 c 0,3.93 0.79,6.879 2.45,8.809 1.67,1.922 3.9,2.922 6.73,2.922 2.81,0 5.09,-1 6.85,-3.012 1.76,-2.008 2.66,-4.871 2.66,-8.578"
         style="fill:#2e2825;fill-opacity:1;fill-rule:nonzero;stroke:none"
         transform="matrix(0.13333333,0,0,-0.13333333,0,579.13333)" />
      <path
         id="path3"
         d="m 1610.22,42.2891 v 2.6093 c -2.38,-3.1093 -4.86,-5.7187 -7.48,-7.8281 -2.6,-2.1601 -5.45,-3.7187 -8.53,-4.7383 -3.13,-1.0234 -6.64,-1.5507 -10.61,-1.5507 -4.75,0 -9.04,1.0507 -12.85,3.0898 -3.8,2.0703 -6.74,4.918 -8.79,8.5391 -2.5,4.3984 -3.7,10.6992 -3.7,18.8906 V 102.23 c 0,4.102 0.89,7.211 2.69,9.239 1.78,2.051 4.14,3.07 7.08,3.07 3.01,0 5.41,-1.019 7.25,-3.109 1.84,-2.078 2.75,-5.16 2.75,-9.2 V 69.1484 c 0,-4.7578 0.38,-8.7773 1.13,-12.0078 0.81,-3.2617 2.2,-5.8086 4.22,-7.6797 1.96,-1.8125 4.7,-2.7304 8.12,-2.7304 3.37,0 6.5,1.039 9.43,3.1015 2.97,2.0391 5.12,4.7383 6.46,8.0664 1.12,2.9336 1.66,9.3321 1.66,19.211 V 102.23 c 0,4.04 0.92,7.122 2.78,9.2 1.81,2.09 4.18,3.109 7.14,3.109 2.95,0 5.32,-1.019 7.1,-3.07 1.77,-2.028 2.65,-5.137 2.65,-9.239 V 42.4102 c 0,-3.918 -0.82,-6.8789 -2.54,-8.8282 -1.7,-1.9922 -3.9,-2.9531 -6.62,-2.9531 -2.69,0 -4.92,1.0508 -6.7,3.043 -1.76,2.0664 -2.64,4.8984 -2.64,8.6172"
         style="fill:#2e2825;fill-opacity:1;fill-rule:nonzero;stroke:none"
         transform="matrix(0.13333333,0,0,-0.13333333,0,579.13333)" />
      <path
         id="path4"
         d="m 1667.61,72.1016 c 0,-8.211 1.78,-14.5 5.37,-18.9297 3.61,-4.3906 8.34,-6.6328 14.2,-6.6328 4.98,0 9.24,2.2812 12.86,6.7812 3.62,4.5195 5.42,10.9492 5.42,19.3789 0,5.5 -0.75,10.1719 -2.26,14.0899 -1.51,3.9492 -3.65,6.9922 -6.37,9.1211 -2.8,2.1406 -5.97,3.2382 -9.65,3.2382 -3.81,0 -7.11,-1.0976 -10.08,-3.2382 -2.97,-2.1289 -5.26,-5.25 -6.97,-9.3204 -1.69,-4.0195 -2.52,-8.8398 -2.52,-14.4882 z m -0.94,61.3784 v -31.57 c 3.67,4.082 7.49,7.129 11.35,9.32 3.86,2.141 8.67,3.219 14.35,3.219 6.59,0 12.34,-1.648 17.29,-4.867 4.94,-3.312 8.81,-7.992 11.52,-14.1601 2.76,-6.1719 4.1,-13.5 4.1,-21.961 0,-6.2695 -0.75,-12 -2.25,-17.25 -1.54,-5.1914 -3.72,-9.6992 -6.63,-13.5703 -2.93,-3.8086 -6.45,-6.7422 -10.56,-8.9101 -4.15,-2.0508 -8.7,-3.1211 -13.67,-3.1211 -3.02,0 -5.91,0.4023 -8.61,1.1406 -2.67,0.7617 -4.98,1.75 -6.81,3.0195 -1.92,1.1719 -3.52,2.4922 -4.86,3.7618 -1.31,1.3281 -3.05,3.289 -5.22,5.8984 v -2.0195 c 0,-3.8907 -0.92,-6.8204 -2.71,-8.8282 -1.76,-1.9922 -4.07,-2.9726 -6.79,-2.9726 -2.82,0 -5.04,0.9804 -6.73,2.9726 -1.65,2.0391 -2.48,4.9493 -2.48,8.8282 v 90.1718 c 0,4.148 0.8,7.316 2.44,9.449 1.61,2.16 3.85,3.219 6.77,3.219 3.03,0 5.38,-1.012 7,-3.07 1.66,-2.02 2.5,-4.91 2.5,-8.7"
         style="fill:#2e2825;fill-opacity:1;fill-rule:nonzero;stroke:none"
         transform="matrix(0.13333333,0,0,-0.13333333,0,579.13333)" />
      <path
         id="path5"
         d="m 1739.25,43.1797 v 89.5193 c 0,4.153 0.88,7.262 2.62,9.391 1.79,2.101 4.16,3.16 7.15,3.16 3,0 5.4,-1.02 7.25,-3.129 1.81,-2.082 2.76,-5.25 2.76,-9.422 V 43.1797 c 0,-4.1914 -0.95,-7.3399 -2.81,-9.4492 -1.84,-2.0508 -4.26,-3.1211 -7.2,-3.1211 -2.9,0 -5.22,1.1015 -7.05,3.2617 -1.81,2.168 -2.72,5.2578 -2.72,9.3086"
         style="fill:#2e2825;fill-opacity:1;fill-rule:nonzero;stroke:none"
         transform="matrix(0.13333333,0,0,-0.13333333,0,579.13333)" />
      <path
         id="path6"
         d="M 1799.23,102.809 V 43.1797 c 0,-4.1602 -0.97,-7.2813 -2.8,-9.3984 -1.91,-2.0704 -4.31,-3.1719 -7.18,-3.1719 -2.91,0 -5.28,1.1015 -7.07,3.25 -1.8,2.1797 -2.74,5.2695 -2.74,9.3203 V 102.23 c 0,4.04 0.94,7.122 2.74,9.2 1.79,2.09 4.16,3.109 7.07,3.109 2.87,0 5.27,-1.019 7.18,-3.109 1.83,-2.078 2.8,-4.942 2.8,-8.621 z m -9.79,21.351 c -2.75,0 -5.08,0.879 -7.09,2.692 -1.9,1.75 -2.91,4.269 -2.91,7.5 0,2.918 1.01,5.296 3.02,7.218 2,1.899 4.33,2.782 6.98,2.782 2.56,0 4.85,-0.832 6.82,-2.52 1.97,-1.723 2.97,-4.242 2.97,-7.48 0,-3.204 -0.98,-5.68 -2.91,-7.454 -1.94,-1.777 -4.2,-2.738 -6.88,-2.738"
         style="fill:#2e2825;fill-opacity:1;fill-rule:nonzero;stroke:none"
         transform="matrix(0.13333333,0,0,-0.13333333,0,579.13333)" />
      <path
         id="path7"
         d="m 1890.52,56.1797 c 0,-2.5586 -0.73,-5.3203 -2.19,-8.2383 -1.49,-2.9219 -3.74,-5.6914 -6.77,-8.3516 -3,-2.6406 -6.8,-4.7695 -11.39,-6.371 -4.59,-1.6485 -9.77,-2.4375 -15.5,-2.4375 -12.24,0 -21.77,3.7304 -28.63,11.1484 -6.85,7.4414 -10.29,17.3906 -10.29,29.9023 0,8.4571 1.56,15.9688 4.69,22.4571 3.13,6.4609 7.71,11.5309 13.63,15.0629 5.93,3.578 13.06,5.359 21.29,5.359 5.14,0 9.85,-0.801 14.12,-2.352 4.27,-1.57 7.89,-3.597 10.86,-6.039 2.97,-2.48 5.24,-5.121 6.82,-7.8981 1.58,-2.8008 2.34,-5.4102 2.34,-7.8321 0,-2.4492 -0.9,-4.539 -2.63,-6.2578 -1.78,-1.7304 -3.89,-2.582 -6.41,-2.582 -1.66,0 -3.01,0.4805 -4.12,1.3516 -1.06,0.8476 -2.29,2.2382 -3.65,4.25 -2.41,3.8203 -4.95,6.707 -7.57,8.6679 -2.64,1.8907 -5.99,2.8789 -10.01,2.8789 -5.88,0 -10.59,-2.4296 -14.15,-7.1796 -3.59,-4.7969 -5.35,-11.2969 -5.35,-19.5704 0,-3.8593 0.45,-7.4687 1.38,-10.707 0.91,-3.2617 2.24,-6.0195 3.97,-8.332 1.75,-2.2891 3.83,-4.0196 6.3,-5.1992 2.46,-1.211 5.17,-1.7891 8.1,-1.7891 3.99,0 7.36,0.9375 10.2,2.8594 2.83,1.9414 5.33,4.8711 7.5,8.75 1.21,2.3789 2.51,4.1679 3.91,5.5 1.42,1.3203 3.14,1.9492 5.16,1.9492 2.41,0 4.41,-0.9414 6.02,-2.8594 1.57,-1.9492 2.37,-3.9687 2.37,-6.1406"
         style="fill:#2e2825;fill-opacity:1;fill-rule:nonzero;stroke:none"
         transform="matrix(0.13333333,0,0,-0.13333333,0,579.13333)" />
      <path
         id="path8"
         d="m 1923.11,72.6992 c 0,-5.5898 0.83,-10.3281 2.49,-14.2773 1.68,-3.9531 3.92,-6.8711 6.82,-8.8633 2.92,-2.0195 6.09,-3.0195 9.48,-3.0195 3.49,0 6.66,0.9726 9.54,2.832 2.89,1.9102 5.15,4.8203 6.89,8.7305 1.72,3.8789 2.57,8.7695 2.57,14.5976 0,5.5313 -0.85,10.2305 -2.57,14.1992 -1.74,3.9727 -4.04,6.9922 -6.95,9.1211 -2.93,2.0703 -6.12,3.1289 -9.59,3.1289 -3.62,0 -6.85,-1.0976 -9.71,-3.2382 -2.83,-2.1289 -5.07,-5.2383 -6.63,-9.2383 -1.55,-4.0235 -2.34,-8.6328 -2.34,-13.9727 z m 38.87,-30.289 v 2.0195 c -2.65,-3.168 -5.27,-5.75 -7.89,-7.7109 -2.54,-2.0079 -5.36,-3.5274 -8.38,-4.5586 -3,-1.0118 -6.31,-1.5508 -9.87,-1.5508 -4.73,0 -9.14,1.0703 -13.15,3.1211 -4.03,2.1679 -7.51,5.1211 -10.46,8.9883 -2.94,3.8828 -5.18,8.4414 -6.71,13.7109 -1.55,5.2187 -2.29,10.8906 -2.29,17.0312 0,12.8711 3.03,22.9805 9.06,30.1801 6.06,7.211 13.99,10.808 23.83,10.808 5.7,0 10.51,-1.039 14.42,-3.117 3.9,-2 7.73,-5.152 11.44,-9.422 v 30.488 c 0,4.243 0.8,7.442 2.43,9.602 1.62,2.18 3.9,3.25 6.91,3.25 2.99,0 5.29,-0.988 6.93,-2.969 1.6,-1.98 2.44,-4.929 2.44,-8.801 V 42.4102 c 0,-3.918 -0.88,-6.8789 -2.62,-8.8282 -1.75,-1.9922 -3.98,-2.9726 -6.75,-2.9726 -2.68,0 -4.94,1.0195 -6.71,3.0625 -1.75,2.0273 -2.63,4.9179 -2.63,8.7383"
         style="fill:#2e2825;fill-opacity:1;fill-rule:nonzero;stroke:none"
         transform="matrix(0.13333333,0,0,-0.13333333,0,579.13333)" />
      <path
         id="path9"
         d="m 2054.74,72.5391 c 0,8.3906 -1.81,14.9609 -5.34,19.6523 -3.55,4.6602 -8.34,7.0274 -14.31,7.0274 -3.89,0 -7.28,-1.0586 -10.23,-3.1485 -2.94,-2.1211 -5.2,-5.1992 -6.8,-9.2812 -1.59,-4.0508 -2.4,-8.7774 -2.4,-14.25 0,-5.3985 0.81,-10.0977 2.36,-14.1172 1.56,-4.043 3.82,-7.1211 6.76,-9.2735 2.91,-2.1367 6.37,-3.1875 10.31,-3.1875 5.97,0 10.76,2.3399 14.31,7.0508 3.53,4.6875 5.34,11.2266 5.34,19.5274 z m 19.84,0 c 0,-6.1094 -0.93,-11.8008 -2.75,-17.0196 -1.84,-5.1484 -4.5,-9.6211 -7.95,-13.3593 -3.51,-3.7383 -7.66,-6.5391 -12.48,-8.5782 -4.83,-1.9922 -10.31,-2.9726 -16.31,-2.9726 -5.98,0 -11.38,0.9804 -16.14,3.0312 -4.79,2 -8.95,4.8907 -12.46,8.6485 -3.48,3.7695 -6.13,8.1718 -7.96,13.2929 -1.81,5.1485 -2.71,10.7696 -2.71,17 0,6.25 0.93,11.9571 2.74,17.1289 1.84,5.2188 4.46,9.6289 7.9,13.3401 3.43,3.668 7.57,6.5 12.49,8.48 4.89,2 10.24,3.008 16.14,3.008 5.99,0 11.43,-1.008 16.31,-3.039 4.86,-2 9.04,-4.898 12.52,-8.629 3.49,-3.7226 6.13,-8.1796 7.91,-13.3319 1.85,-5.1289 2.75,-10.7969 2.75,-17"
         style="fill:#2e2825;fill-opacity:1;fill-rule:nonzero;stroke:none"
         transform="matrix(0.13333333,0,0,-0.13333333,0,579.13333)" />
      <path
         id="path10"
         d="m 2158.12,89.5898 c -1.49,-3.4882 -2.19,-9.6484 -2.19,-18.5195 V 43.6406 c 0,-4.3086 -0.93,-7.6015 -2.83,-9.7695 -1.88,-2.1602 -4.4,-3.2617 -7.48,-3.2617 -2.97,0 -5.4,1.1015 -7.24,3.2617 -1.87,2.168 -2.77,5.4609 -2.77,9.7695 v 32.9297 c 0,5.1797 -0.2,9.1992 -0.54,12.1094 -0.34,2.8398 -1.25,5.2187 -2.76,7.0586 -1.46,1.8633 -3.84,2.7812 -7.07,2.7812 -6.46,0 -10.72,-2.3281 -12.79,-7 -2.07,-4.6211 -3.05,-11.2812 -3.05,-19.9687 V 43.6406 c 0,-4.3008 -0.95,-7.5508 -2.79,-9.6992 -1.87,-2.2305 -4.32,-3.332 -7.33,-3.332 -3.02,0 -5.5,1.1015 -7.4,3.332 -1.92,2.1484 -2.83,5.3984 -2.83,9.6875 v 59.0701 c 0,3.903 0.82,6.852 2.52,8.86 1.74,2 4,3.043 6.82,3.043 2.69,0 4.96,-0.942 6.76,-2.832 1.8,-1.891 2.71,-4.489 2.71,-7.829 v -1.961 c 3.42,4.29 7.1,7.45 11,9.45 3.9,2.011 8.3,3.019 13.04,3.019 4.97,0 9.22,-1.039 12.8,-3.117 3.59,-2.043 6.52,-5.184 8.83,-9.352 3.34,4.2 6.91,7.372 10.74,9.411 3.82,2.05 8.03,3.058 12.65,3.058 5.45,0 10.1,-1.078 13.99,-3.34 3.92,-2.211 6.83,-5.379 8.78,-9.519 1.7,-3.7306 2.53,-9.6017 2.53,-17.6408 V 43.6406 c 0,-4.3086 -0.94,-7.6015 -2.8,-9.7695 -1.92,-2.1602 -4.38,-3.2617 -7.48,-3.2617 -3,0 -5.45,1.1015 -7.34,3.332 -1.93,2.1484 -2.89,5.3984 -2.89,9.6992 v 34.7383 c 0,4.4414 -0.18,7.9922 -0.53,10.6602 -0.37,2.7109 -1.35,4.9101 -2.96,6.7422 -1.58,1.8203 -4.01,2.7382 -7.21,2.7382 -2.61,0 -5.1,-0.8281 -7.41,-2.3984 -2.38,-1.6406 -4.16,-3.8125 -5.48,-6.5313 v 0"
         style="fill:#2e2825;fill-opacity:1;fill-rule:nonzero;stroke:none"
         transform="matrix(0.13333333,0,0,-0.13333333,0,579.13333)" />
      <path
         id="path11"
         d="m 2270.13,72.1484 c -2.91,-1.1289 -7.13,-2.2773 -12.66,-3.539 -5.54,-1.2305 -9.36,-2.1289 -11.49,-2.7188 -2.13,-0.6015 -4.16,-1.7187 -6.07,-3.3906 -1.95,-1.7383 -2.93,-4.0781 -2.93,-7.1094 0,-3.1484 1.15,-5.789 3.4,-7.9922 2.29,-2.207 5.26,-3.289 8.94,-3.289 3.9,0 7.54,0.9101 10.83,2.6992 3.31,1.7734 5.76,4.1133 7.27,6.9102 1.8,3.1328 2.71,8.2617 2.71,15.4921 z m 1.29,-29.8984 c -4.8,-3.8906 -9.42,-6.7891 -13.88,-8.7109 -4.45,-1.9688 -9.49,-2.9297 -15.02,-2.9297 -5.11,0 -9.52,1.0703 -13.39,3.1211 -3.87,2.1093 -6.8,4.9492 -8.89,8.5586 -2.05,3.582 -3.11,7.4297 -3.11,11.6328 0,5.6484 1.76,10.4375 5.17,14.4375 3.4,3.9492 8.11,6.6406 14.1,8.0117 1.26,0.3008 4.39,0.9492 9.33,2.0078 5.03,1.0899 9.25,2.043 12.85,2.9219 3.52,0.8711 7.4,1.9375 11.55,3.1875 -0.26,5.4726 -1.3,9.4609 -3.15,12.0625 -1.88,2.5195 -5.76,3.7692 -11.57,3.7692 -5.05,0 -8.81,-0.7106 -11.38,-2.1794 -2.52,-1.4414 -4.7,-3.6601 -6.49,-6.6211 -1.84,-2.8984 -3.09,-4.8398 -3.84,-5.7578 -0.77,-0.9609 -2.38,-1.3828 -4.8,-1.3828 -2.26,0 -4.16,0.7422 -5.77,2.2031 -1.64,1.5078 -2.44,3.3789 -2.44,5.7266 0,3.6328 1.23,7.1797 3.69,10.5624 2.47,3.449 6.31,6.258 11.52,8.52 5.21,2.211 11.73,3.32 19.51,3.32 8.67,0 15.52,-1.109 20.53,-3.242 4.96,-2.117 8.44,-5.477 10.51,-10.16 2.07,-4.6098 3.08,-10.7777 3.08,-18.4379 0,-4.832 0,-8.9727 -0.03,-12.332 -0.04,-3.3985 -0.06,-7.1485 -0.11,-11.2774 0,-3.8711 0.62,-7.9297 1.86,-12.1211 1.2,-4.2109 1.82,-6.9414 1.82,-8.1211 0,-2.1289 -0.97,-4.0586 -2.86,-5.8007 -1.87,-1.7305 -4.06,-2.6094 -6.46,-2.6094 -2.06,0 -4.02,0.9804 -6.04,2.9726 -1.97,2.0078 -4.07,4.9102 -6.29,8.668"
         style="fill:#2e2825;fill-opacity:1;fill-rule:nonzero;stroke:none"
         transform="matrix(0.13333333,0,0,-0.13333333,0,579.13333)" />
      <path
         id="path12"
         d="M 2329.4,102.809 V 43.1797 c 0,-4.1602 -0.94,-7.2813 -2.8,-9.3984 -1.88,-2.0704 -4.26,-3.1719 -7.17,-3.1719 -2.89,0 -5.27,1.1015 -7.06,3.25 -1.83,2.1797 -2.74,5.2695 -2.74,9.3203 V 102.23 c 0,4.04 0.91,7.122 2.74,9.2 1.79,2.09 4.17,3.109 7.06,3.109 2.91,0 5.29,-1.019 7.17,-3.109 1.86,-2.078 2.8,-4.942 2.8,-8.621 z m -9.77,21.351 c -2.73,0 -5.07,0.879 -7.03,2.692 -1.96,1.75 -2.97,4.269 -2.97,7.5 0,2.918 1.02,5.296 3.04,7.218 1.98,1.899 4.33,2.782 6.96,2.782 2.57,0 4.86,-0.832 6.84,-2.52 1.96,-1.723 2.93,-4.242 2.93,-7.48 0,-3.204 -0.94,-5.68 -2.89,-7.454 -1.93,-1.777 -4.22,-2.738 -6.88,-2.738"
         style="fill:#2e2825;fill-opacity:1;fill-rule:nonzero;stroke:none"
         transform="matrix(0.13333333,0,0,-0.13333333,0,579.13333)" />
      <path
         id="path13"
         d="m 2367.84,103.109 v -2.461 c 3.46,4.774 7.26,8.293 11.36,10.524 4.14,2.238 8.89,3.367 14.28,3.367 5.18,0 9.87,-1.168 14,-3.57 4.06,-2.36 7.15,-5.688 9.16,-10 1.32,-2.5471 2.14,-5.2971 2.55,-8.2073 0.36,-2.9023 0.59,-6.6328 0.59,-11.1797 V 43.1797 c 0,-4.1602 -0.94,-7.2813 -2.74,-9.3984 -1.82,-2.0704 -4.18,-3.1719 -7.06,-3.1719 -2.94,0 -5.34,1.1015 -7.11,3.2617 -1.86,2.168 -2.8,5.2578 -2.8,9.3086 v 34.3789 c 0,6.8398 -0.88,12.0312 -2.69,15.6211 -1.84,3.6094 -5.47,5.4297 -10.88,5.4297 -3.51,0 -6.72,-1.0977 -9.62,-3.3086 -2.89,-2.1719 -5.01,-5.1914 -6.36,-9.0313 -0.97,-3.0781 -1.48,-8.8007 -1.48,-17.2695 V 43.1797 c 0,-4.1914 -0.91,-7.3399 -2.78,-9.4492 -1.87,-2.0508 -4.27,-3.1211 -7.2,-3.1211 -2.83,0 -5.19,1.1015 -7.02,3.25 -1.86,2.1797 -2.76,5.2695 -2.76,9.3203 v 59.6293 c 0,3.961 0.81,6.863 2.48,8.812 1.6,1.938 3.9,2.918 6.74,2.918 1.71,0 3.3,-0.457 4.67,-1.289 1.45,-0.84 2.53,-2.168 3.38,-3.82 0.82,-1.75 1.29,-3.84 1.29,-6.321"
         style="fill:#2e2825;fill-opacity:1;fill-rule:nonzero;stroke:none"
         transform="matrix(0.13333333,0,0,-0.13333333,0,579.13333)" />
      <path
         id="path14"
         d="m 2451.51,101.699 15.98,-46.8787 17.25,48.9217 c 1.37,3.938 2.69,6.688 4.01,8.34 1.34,1.629 3.28,2.457 5.93,2.457 2.51,0 4.64,-0.879 6.44,-2.68 1.73,-1.738 2.62,-3.757 2.62,-6.129 0,-0.89 -0.18,-1.929 -0.49,-3.109 -0.28,-1.242 -0.64,-2.383 -1.07,-3.4608 -0.42,-1.0196 -0.85,-2.25 -1.42,-3.5899 l -18.97,-49.1484 c -0.54,-1.4024 -1.24,-3.2227 -2.06,-5.4024 -0.86,-2.1406 -1.82,-3.9609 -2.84,-5.5586 -1.05,-1.5195 -2.32,-2.6796 -3.82,-3.5507 -1.56,-0.8594 -3.4,-1.3008 -5.58,-1.3008 -2.8,0 -5.02,0.6719 -6.71,1.9922 -1.67,1.3398 -2.9,2.789 -3.69,4.4101 -0.78,1.5586 -2.15,4.7188 -4.01,9.4102 l -18.86,48.6094 c -0.43,1.1875 -0.9,2.4101 -1.37,3.6171 -0.44,1.211 -0.79,2.4106 -1.13,3.7036 -0.3,1.289 -0.48,2.367 -0.48,3.238 0,1.441 0.41,2.832 1.25,4.211 0.82,1.398 1.96,2.551 3.4,3.41 1.47,0.871 3.01,1.328 4.73,1.328 3.26,0 5.52,-0.98 6.76,-2.98 1.24,-1.95 2.63,-5.239 4.13,-9.86"
         style="fill:#2e2825;fill-opacity:1;fill-rule:nonzero;stroke:none"
         transform="matrix(0.13333333,0,0,-0.13333333,0,579.13333)" />
      <path
         id="path15"
         d="m 2532.41,79.2813 h 35.85 c -0.46,7.0273 -2.26,12.3085 -5.46,15.8007 -3.17,3.4766 -7.34,5.238 -12.52,5.238 -4.89,0 -8.95,-1.7809 -12.1,-5.32 -3.16,-3.5391 -5.05,-8.7891 -5.77,-15.7187 z m 38.69,-11.75 h -38.69 c 0.01,-4.711 0.96,-8.8321 2.69,-12.4297 1.79,-3.5508 4.12,-6.25 7.05,-8.0899 2.92,-1.8203 6.15,-2.7031 9.69,-2.7031 2.35,0 4.54,0.2812 6.46,0.8516 1.95,0.6015 3.87,1.5 5.72,2.7187 1.81,1.2422 3.48,2.5313 5.04,3.9922 1.53,1.4102 3.6,3.3008 6.02,5.7305 1.02,0.9492 2.48,1.3672 4.34,1.3672 2.06,0 3.69,-0.5469 4.95,-1.7383 1.26,-1.1719 1.85,-2.7891 1.85,-4.8985 0,-1.8711 -0.68,-4.0507 -2.1,-6.5703 -1.39,-2.4609 -3.46,-4.8711 -6.34,-7.1914 -2.83,-2.2695 -6.37,-4.1484 -10.65,-5.6992 -4.25,-1.5 -9.14,-2.2617 -14.75,-2.2617 -12.68,0 -22.58,3.8125 -29.6,11.332 -7.04,7.6094 -10.55,17.8281 -10.55,30.7578 0,6.1797 0.9,11.7891 2.59,17 1.74,5.2305 4.26,9.6914 7.6,13.4098 3.34,3.75 7.42,6.641 12.32,8.602 4.9,2 10.28,3 16.25,3 7.67,0 14.32,-1.699 19.85,-5.129 5.55,-3.402 9.68,-7.762 12.43,-13.1406 2.76,-5.4297 4.13,-10.9023 4.13,-16.543 0,-5.1484 -1.38,-8.5195 -4.27,-10.0468 -2.87,-1.5625 -6.85,-2.3203 -12.03,-2.3203"
         style="fill:#2e2825;fill-opacity:1;fill-rule:nonzero;stroke:none"
         transform="matrix(0.13333333,0,0,-0.13333333,0,579.13333)" />
      <path
         id="path16"
         d="m 2675.03,56.1797 c 0,-2.5586 -0.73,-5.3203 -2.24,-8.2383 -1.48,-2.9219 -3.68,-5.6914 -6.73,-8.3516 -3,-2.6406 -6.84,-4.7695 -11.44,-6.371 -4.56,-1.6485 -9.76,-2.4375 -15.46,-2.4375 -12.26,0 -21.8,3.7304 -28.64,11.1484 -6.84,7.4414 -10.3,17.3906 -10.3,29.9023 0,8.4571 1.57,15.9688 4.73,22.4571 3.15,6.4609 7.65,11.5309 13.6,15.0629 5.92,3.578 13.05,5.359 21.32,5.359 5.12,0 9.8,-0.801 14.1,-2.352 4.27,-1.57 7.87,-3.597 10.87,-6.039 2.97,-2.48 5.22,-5.121 6.81,-7.8981 1.55,-2.8008 2.34,-5.4102 2.34,-7.8321 0,-2.4492 -0.86,-4.539 -2.68,-6.2578 -1.74,-1.7304 -3.87,-2.582 -6.38,-2.582 -1.65,0 -3.01,0.4805 -4.07,1.3516 -1.11,0.8476 -2.32,2.2382 -3.69,4.25 -2.41,3.8203 -4.92,6.707 -7.56,8.6679 -2.64,1.8907 -5.98,2.8789 -10.05,2.8789 -5.81,0 -10.54,-2.4296 -14.1,-7.1796 -3.6,-4.7969 -5.38,-11.2969 -5.38,-19.5704 0,-3.8593 0.49,-7.4687 1.37,-10.707 0.92,-3.2617 2.26,-6.0195 4.01,-8.332 1.73,-2.2891 3.85,-4.0196 6.31,-5.1992 2.42,-1.211 5.13,-1.7891 8.1,-1.7891 3.96,0 7.37,0.9375 10.19,2.8594 2.81,1.9414 5.33,4.8711 7.51,8.75 1.21,2.3789 2.49,4.1679 3.9,5.5 1.39,1.3203 3.09,1.9492 5.15,1.9492 2.38,0 4.42,-0.9414 5.96,-2.8594 1.63,-1.9492 2.45,-3.9687 2.45,-6.1406"
         style="fill:#2e2825;fill-opacity:1;fill-rule:nonzero;stroke:none"
         transform="matrix(0.13333333,0,0,-0.13333333,0,579.13333)" />
      <path
         id="path17"
         d="m 2693.39,112.801 h 2.18 v 12.41 c 0,3.309 0.08,5.937 0.26,7.82 0.17,1.891 0.61,3.481 1.42,4.867 0.75,1.391 1.86,2.551 3.34,3.454 1.43,0.859 3.04,1.277 4.83,1.277 2.5,0 4.79,-0.969 6.8,-2.918 1.32,-1.332 2.2,-2.91 2.57,-4.789 0.37,-1.891 0.53,-4.613 0.53,-8.07 v -14.051 h 7.27 c 2.8,0 4.95,-0.699 6.41,-2.09 1.51,-1.379 2.22,-3.141 2.22,-5.32 0,-2.77 -1.04,-4.743 -3.17,-5.8324 -2.09,-1.0781 -5.1,-1.6484 -9.02,-1.6484 h -3.71 V 59.8906 c 0,-3.2304 0.12,-5.7187 0.32,-7.4804 0.26,-1.75 0.87,-3.1602 1.79,-4.2188 0.91,-1.082 2.45,-1.6523 4.59,-1.6523 1.15,0 2.72,0.2109 4.72,0.6601 1.93,0.4219 3.48,0.6328 4.62,0.6328 1.58,0 3.06,-0.6914 4.32,-1.9609 1.25,-1.3828 1.91,-3 1.91,-4.9805 0,-3.3086 -1.7,-5.8593 -5.21,-7.6289 -3.51,-1.7734 -8.49,-2.6523 -14.99,-2.6523 -6.19,0 -10.89,1.1015 -14.07,3.2617 -3.17,2.168 -5.29,5.1484 -6.25,9.0273 -1.02,3.8321 -1.5,8.9414 -1.5,15.3399 v 39.6719 h -2.63 c -2.8,0 -4.98,0.6992 -6.49,2.1288 -1.51,1.402 -2.24,3.172 -2.24,5.352 0,2.179 0.77,3.941 2.32,5.32 1.6,1.391 3.86,2.09 6.86,2.09"
         style="fill:#2e2825;fill-opacity:1;fill-rule:nonzero;stroke:none"
         transform="matrix(0.13333333,0,0,-0.13333333,0,579.13333)" />
      <path
         id="path18"
         d="m 2798.99,72.5391 c 0,8.3906 -1.79,14.9609 -5.32,19.6523 -3.58,4.6602 -8.31,7.0274 -14.31,7.0274 -3.88,0 -7.28,-1.0586 -10.21,-3.1485 -2.97,-2.1211 -5.23,-5.1992 -6.82,-9.2812 -1.59,-4.0508 -2.4,-8.7774 -2.4,-14.25 0,-5.3985 0.81,-10.0977 2.37,-14.1172 1.57,-4.043 3.8,-7.1211 6.72,-9.2735 2.91,-2.1367 6.36,-3.1875 10.34,-3.1875 6,0 10.73,2.3399 14.31,7.0508 3.53,4.6875 5.32,11.2266 5.32,19.5274 z m 19.86,0 c 0,-6.1094 -0.91,-11.8008 -2.78,-17.0196 -1.81,-5.1484 -4.49,-9.6211 -7.94,-13.3593 -3.49,-3.7383 -7.65,-6.5391 -12.47,-8.5782 -4.84,-1.9922 -10.24,-2.9726 -16.3,-2.9726 -6.02,0 -11.41,0.9804 -16.18,3.0312 -4.76,2 -8.92,4.8907 -12.42,8.6485 -3.48,3.7695 -6.15,8.1718 -7.94,13.2929 -1.8,5.1485 -2.69,10.7696 -2.69,17 0,6.25 0.89,11.9571 2.69,17.1289 1.88,5.2188 4.47,9.6289 7.9,13.3401 3.46,3.668 7.6,6.5 12.46,8.48 4.94,2 10.31,3.008 16.18,3.008 6,0 11.4,-1.008 16.3,-3.039 4.88,-2 9.04,-4.898 12.52,-8.629 3.45,-3.7226 6.15,-8.1796 7.95,-13.3319 1.81,-5.1289 2.72,-10.7969 2.72,-17"
         style="fill:#2e2825;fill-opacity:1;fill-rule:nonzero;stroke:none"
         transform="matrix(0.13333333,0,0,-0.13333333,0,579.13333)" />
      <path
         id="path19"
         d="M 2854.08,60.3711 V 43.1797 c 0,-4.1914 -0.95,-7.3399 -2.83,-9.4492 -1.89,-2.0508 -4.28,-3.1211 -7.2,-3.1211 -2.81,0 -5.18,1.1015 -7,3.1719 -1.84,2.1171 -2.73,5.2382 -2.73,9.3984 v 57.4493 c 0,9.293 3.19,13.91 9.62,13.91 3.25,0 5.63,-1.098 7.1,-3.238 1.43,-2.172 2.19,-5.379 2.39,-9.602 2.35,4.223 4.8,7.43 7.29,9.602 2.49,2.14 5.79,3.238 9.92,3.238 4.19,0 8.21,-1.098 12.14,-3.238 3.89,-2.172 5.87,-5.059 5.87,-8.621 0,-2.52 -0.86,-4.6292 -2.52,-6.2386 -1.65,-1.6406 -3.45,-2.4922 -5.41,-2.4922 -0.71,0 -2.47,0.4805 -5.24,1.4414 -2.79,0.918 -5.25,1.3985 -7.38,1.3985 -2.88,0 -5.24,-0.7696 -7.06,-2.3985 -1.84,-1.6093 -3.28,-3.9297 -4.28,-7.0508 -1.02,-3.1601 -1.75,-6.8593 -2.11,-11.1992 -0.37,-4.2812 -0.57,-9.5195 -0.57,-15.7695"
         style="fill:#2e2825;fill-opacity:1;fill-rule:nonzero;stroke:none"
         transform="matrix(0.13333333,0,0,-0.13333333,0,579.13333)" />
      <path
         id="path20"
         d="m 2959.43,57.5898 c 0,-5.7187 -1.32,-10.5781 -4.01,-14.6406 -2.67,-4.0703 -6.58,-7.1094 -11.78,-9.2304 -5.21,-2.0391 -11.5,-3.1094 -18.98,-3.1094 -7.04,0 -13.17,1.1406 -18.25,3.4219 -5.07,2.2695 -8.82,5.0781 -11.21,8.4804 -2.45,3.3867 -3.69,6.8086 -3.69,10.2071 0,2.2734 0.79,4.2226 2.38,5.832 1.53,1.6406 3.5,2.418 5.84,2.418 2.09,0 3.7,-0.5391 4.8,-1.5704 1.11,-1.1171 2.15,-2.5664 3.19,-4.4882 2.03,-3.6914 4.44,-6.4297 7.31,-8.25 2.78,-1.8399 6.64,-2.7305 11.56,-2.7305 3.94,0 7.19,0.9219 9.74,2.7695 2.52,1.8321 3.83,3.9297 3.83,6.3125 0,3.6485 -1.34,6.3086 -3.95,7.9492 -2.67,1.6993 -6.98,3.2774 -13.03,4.7774 -6.8,1.7734 -12.36,3.6211 -16.64,5.5508 -4.27,1.9492 -7.73,4.5312 -10.27,7.6992 -2.56,3.1328 -3.86,7.0625 -3.86,11.7031 0,4.1602 1.19,8.0703 3.57,11.7186 2.35,3.692 5.89,6.621 10.48,8.82 4.61,2.211 10.17,3.309 16.72,3.309 5.1,0 9.7,-0.57 13.8,-1.668 4.07,-1.101 7.53,-2.609 10.22,-4.449 2.72,-1.883 4.82,-3.942 6.24,-6.192 1.44,-2.3003 2.15,-4.5191 2.15,-6.6597 0,-2.3906 -0.75,-4.2812 -2.3,-5.8594 -1.53,-1.4492 -3.71,-2.2187 -6.46,-2.2187 -2.06,0 -3.78,0.5976 -5.23,1.8398 -1.39,1.1875 -3.06,2.9766 -4.87,5.3789 -1.51,2.0196 -3.25,3.6485 -5.3,4.8477 -2.04,1.1914 -4.79,1.8204 -8.25,1.8204 -3.58,0 -6.58,-0.777 -8.9,-2.3985 -2.39,-1.5703 -3.58,-3.5586 -3.58,-5.9297 0,-2.1797 0.88,-3.9492 2.59,-5.3399 1.77,-1.3789 4.09,-2.5312 7.05,-3.4414 2.97,-0.9101 7.01,-2.039 12.19,-3.3398 6.14,-1.5586 11.14,-3.4102 15.04,-5.5899 3.89,-2.1484 6.82,-4.7187 8.83,-7.6601 2.04,-2.9805 3.03,-6.3399 3.03,-10.0899"
         style="fill:#2e2825;fill-opacity:1;fill-rule:nonzero;stroke:none"
         transform="matrix(0.13333333,0,0,-0.13333333,0,579.13333)" />
      <path
         id="path21"
         d="m 2981.89,30.6094 c -2.99,0 -5.58,0.9804 -7.73,3.0312 -2.21,2 -3.28,4.8516 -3.28,8.4414 0,3.0782 1.01,5.7188 3.08,7.9493 2.08,2.2109 4.65,3.289 7.7,3.289 3.03,0 5.63,-1.0781 7.73,-3.2812 2.18,-2.1602 3.27,-4.8477 3.27,-7.9571 0,-3.5625 -1.09,-6.3828 -3.27,-8.4101 -2.1,-2.043 -4.6,-3.0625 -7.5,-3.0625"
         style="fill:#2e2825;fill-opacity:1;fill-rule:nonzero;stroke:none"
         transform="matrix(0.13333333,0,0,-0.13333333,0,579.13333)" />
      <path
         id="path22"
         d="m 3069.36,72.5391 c 0,8.3906 -1.79,14.9609 -5.34,19.6523 -3.55,4.6602 -8.31,7.0274 -14.28,7.0274 -3.88,0 -7.25,-1.0586 -10.21,-3.1485 -2.96,-2.1211 -5.22,-5.1992 -6.81,-9.2812 -1.57,-4.0508 -2.38,-8.7774 -2.38,-14.25 0,-5.3985 0.76,-10.0977 2.33,-14.1172 1.61,-4.043 3.83,-7.1211 6.76,-9.2735 2.91,-2.1367 6.34,-3.1875 10.31,-3.1875 5.97,0 10.73,2.3399 14.28,7.0508 3.55,4.6875 5.34,11.2266 5.34,19.5274 z m 19.87,0 c 0,-6.1094 -0.91,-11.8008 -2.77,-17.0196 -1.85,-5.1484 -4.48,-9.6211 -7.96,-13.3593 -3.51,-3.7383 -7.61,-6.5391 -12.46,-8.5782 -4.82,-1.9922 -10.25,-2.9726 -16.3,-2.9726 -5.99,0 -11.37,0.9804 -16.16,3.0312 -4.78,2 -8.9,4.8907 -12.4,8.6485 -3.55,3.7695 -6.19,8.1718 -8.03,13.2929 -1.76,5.1485 -2.67,10.7696 -2.67,17 0,6.25 0.91,11.9571 2.75,17.1289 1.87,5.2188 4.46,9.6289 7.87,13.3401 3.43,3.668 7.59,6.5 12.48,8.48 4.88,2 10.23,3.008 16.16,3.008 5.97,0 11.41,-1.008 16.3,-3.039 4.9,-2 9.06,-4.898 12.54,-8.629 3.46,-3.7226 6.1,-8.1796 7.93,-13.3319 1.81,-5.1289 2.72,-10.7969 2.72,-17"
         style="fill:#2e2825;fill-opacity:1;fill-rule:nonzero;stroke:none"
         transform="matrix(0.13333333,0,0,-0.13333333,0,579.13333)" />
      <path
         id="path23"
         d="M 3124.45,60.3711 V 43.1797 c 0,-4.1914 -0.93,-7.3399 -2.82,-9.4492 -1.85,-2.0508 -4.28,-3.1211 -7.15,-3.1211 -2.89,0 -5.2,1.1015 -7.05,3.1719 -1.85,2.1171 -2.76,5.2382 -2.76,9.3984 v 57.4493 c 0,9.293 3.25,13.91 9.65,13.91 3.29,0 5.63,-1.098 7.08,-3.238 1.42,-2.172 2.27,-5.379 2.44,-9.602 2.32,4.223 4.74,7.43 7.23,9.602 2.49,2.14 5.82,3.238 9.95,3.238 4.21,0 8.25,-1.098 12.11,-3.238 3.92,-2.172 5.89,-5.059 5.89,-8.621 0,-2.52 -0.84,-4.6292 -2.49,-6.2386 -1.69,-1.6406 -3.45,-2.4922 -5.43,-2.4922 -0.7,0 -2.44,0.4805 -5.21,1.4414 -2.79,0.918 -5.25,1.3985 -7.39,1.3985 -2.88,0 -5.23,-0.7696 -7.11,-2.3985 -1.81,-1.6093 -3.25,-3.9297 -4.27,-7.0508 -0.99,-3.1601 -1.7,-6.8593 -2.07,-11.1992 -0.39,-4.2812 -0.6,-9.5195 -0.6,-15.7695"
         style="fill:#2e2825;fill-opacity:1;fill-rule:nonzero;stroke:none"
         transform="matrix(0.13333333,0,0,-0.13333333,0,579.13333)" />
      <path
         id="path24"
         d="m 3181.56,73.25 c 0,-8.3516 1.76,-14.6914 5.28,-18.9883 3.47,-4.2617 8.03,-6.4297 13.55,-6.4297 3.26,0 6.41,0.9571 9.32,2.7891 2.93,1.8477 5.3,4.6094 7.15,8.3203 1.85,3.7188 2.74,8.1992 2.74,13.4805 0,8.4179 -1.79,14.957 -5.33,19.6367 -3.54,4.7305 -8.22,7.0898 -14.01,7.0898 -5.63,0 -10.17,-2.2968 -13.56,-6.7578 -3.43,-4.5 -5.14,-10.8711 -5.14,-19.1406 z m 57.34,26.1797 V 39.4414 c 0,-6.8711 -0.76,-12.7617 -2.12,-17.6719 -1.41,-4.9687 -3.65,-9.0586 -6.74,-12.28122 -3.09,-3.20703 -7.16,-5.59765 -12.12,-7.16797 C 3212.91,0.789063 3206.68,0 3199.26,0 c -6.83,0 -12.93,0.960938 -18.26,2.94922 -5.37,2.04297 -9.52,4.58203 -12.41,7.74998 -2.89,3.1211 -4.35,6.3711 -4.35,9.7227 0,2.5195 0.8,4.5586 2.49,6.1367 1.62,1.6328 3.6,2.4102 5.92,2.4102 2.91,0 5.41,-1.3399 7.62,-4 1.07,-1.4102 2.18,-2.7579 3.28,-4.129 1.14,-1.3984 2.4,-2.6093 3.76,-3.5703 1.39,-1.0078 3.07,-1.7187 4.99,-2.2109 1.9,-0.4766 4.16,-0.7188 6.67,-0.7188 5.08,0 9.11,0.7618 11.91,2.2305 2.83,1.4883 4.81,3.5703 5.97,6.2305 1.08,2.6797 1.8,5.5195 1.92,8.5781 0.23,3.1016 0.37,7.9609 0.51,14.7422 -3.05,-4.4219 -6.61,-7.8125 -10.56,-10.1211 -3.98,-2.3281 -8.75,-3.4609 -14.21,-3.4609 -6.68,0 -12.46,1.7304 -17.38,5.2812 -4.97,3.5313 -8.78,8.4492 -11.43,14.8281 -2.62,6.3204 -3.98,13.6602 -3.98,21.9922 0,6.2305 0.79,11.8282 2.44,16.8203 1.58,4.9805 3.88,9.1871 6.92,12.6211 2.96,3.43 6.44,6.02 10.35,7.77 3.93,1.707 8.18,2.597 12.91,2.597 5.57,0 10.43,-1.14 14.53,-3.398 4.16,-2.199 7.93,-5.77 11.46,-10.531 v 2.769 c 0,3.602 0.88,6.352 2.54,8.383 1.68,1.93 3.87,2.93 6.51,2.93 3.83,0 6.36,-1.293 7.63,-3.891 1.24,-2.609 1.89,-6.371 1.89,-11.2813"
         style="fill:#2e2825;fill-opacity:1;fill-rule:nonzero;stroke:none"
         transform="matrix(0.13333333,0,0,-0.13333333,0,579.13333)" />
      <path
         id="path25"
         d="m 2381.63,300.43 h 29.34 c -2.07,-15.809 -8.56,-28.16 -19.34,-37.039 -9.97,-8.7 -22.05,-13 -36.16,-13 -19.16,0 -34.45,6.738 -45.87,20.168 -10.82,12.769 -16.22,29.273 -16.22,49.421 0,20.649 5.36,37.161 16.06,49.668 10.7,12.442 25.82,18.704 45.37,18.704 14.55,0 26.85,-3.942 36.82,-11.743 10.59,-8.437 17.05,-20.289 19.34,-35.468 h -29.34 c -2.54,13.238 -10.61,19.828 -24.37,19.828 -22.68,0 -34.04,-13.43 -34.04,-40.309 0,-12.59 2.92,-22.871 8.75,-30.89 5.83,-8.032 14.06,-12.059 24.66,-12.059 15.81,0 24.15,7.59 25,22.719 z m -115.49,18.511 c 0,-26.25 8.33,-48.48 24.95,-66.589 16.65,-18.102 37.03,-27.161 61.2,-27.161 24.08,0 44.47,9.059 61.09,27.161 16.67,18.109 24.94,40.339 24.94,66.589 0,26.25 -8.27,48.45 -24.94,66.571 -16.62,18.136 -37.01,27.179 -61.09,27.179 -24.17,0 -44.55,-9.043 -61.2,-27.179 -16.62,-18.121 -24.95,-40.321 -24.95,-66.571 z m -29.8,0 c 0,33.411 11.31,61.93 33.93,85.618 22.66,23.652 50,35.48 82.02,35.48 31.95,0 59.25,-11.828 81.93,-35.48 22.65,-23.688 33.98,-52.207 33.98,-85.618 0,-33.429 -11.33,-61.992 -33.98,-85.632 -22.68,-23.668 -49.98,-35.508 -81.93,-35.508 -32.02,0 -59.36,11.84 -82.02,35.508 -22.62,23.64 -33.93,52.203 -33.93,85.632"
         style="fill:#2e2825;fill-opacity:1;fill-rule:nonzero;stroke:none"
         transform="matrix(0.13333333,0,0,-0.13333333,0,579.13333)" />
      <path
         id="path26"
         d="m 2283.25,243 16.92,-14.352 124.33,159.672 -16.9,14.328 L 2283.25,243"
         style="fill:#2e2825;fill-opacity:1;fill-rule:nonzero;stroke:none"
         transform="matrix(0.13333333,0,0,-0.13333333,0,579.13333)" />
      <path
         id="path27"
         d="m 1706.39,2050.23 110.51,-122.62 c 72.94,-80.9 161.09,-146.97 260.54,-195.25 115.63,-56.12 208.89,-145.61 268.9,-258.03 10.8,-20.26 8.73,-46.08 -5.41,-67.18 -14.14,-21.13 -38.05,-34.13 -62.27,-33.87 -124.67,1.33 -236.83,55.37 -308.48,148.66 -34.08,44.35 -77.06,80.94 -126.75,107.9 -81.1,44.03 -161.77,88.74 -241.97,134.15 l 104.93,286.24"
         style="fill:#e27547;fill-opacity:1;fill-rule:evenodd;stroke:none"
         transform="matrix(0.13333333,0,0,-0.13333333,0,579.13333)" />
      <path
         id="path28"
         d="m 1866.91,2453.31 161.28,-112.45 c 106.43,-74.21 227.3,-127.95 357.21,-158.84 151.07,-35.91 283.73,-114.97 382.51,-227.94 17.82,-20.37 21.68,-50.1 10.05,-77.39 -11.62,-27.3 -36.85,-47.76 -65.67,-53.25 -148.36,-28.31 -294.8,6.06 -402.75,94.59 -51.3,42.09 -111.33,73.25 -176.93,91.9 -107.1,30.47 -213.85,61.83 -320.22,94.08 l 54.52,349.3"
         style="fill:#e27547;fill-opacity:1;fill-rule:evenodd;stroke:none"
         transform="matrix(0.13333333,0,0,-0.13333333,0,579.13333)" />
      <path
         id="path29"
         d="m 1631.84,2028.35 182.77,-57.78 c 120.61,-38.14 231.36,-98.75 327.27,-179.12 111.54,-93.46 250.33,-148.6 400.21,-159.03 27,-1.86 54.63,12.07 71.88,36.29 17.27,24.22 21.39,54.8 10.73,79.62 -54.88,127.81 -162.62,218.64 -296.36,249.82 -63.56,14.82 -122.41,42.37 -173.49,81.21 -83.37,63.43 -167.31,126.09 -251.83,187.94 l -271.18,-238.95"
         style="fill:#e27547;fill-opacity:1;fill-rule:evenodd;stroke:none"
         transform="matrix(0.13333333,0,0,-0.13333333,0,579.13333)" />
      <path
         id="path30"
         d="m 1101.46,2675.68 186.22,130.21 c 75.54,52.82 158.99,93.33 247.24,119.98 100.98,30.5 186.68,98.04 239.97,189.07 9.75,16.65 26.52,27.98 45.61,30.81 19.07,2.82 38.41,-3.15 52.56,-16.26 56.27,-52.12 71.11,-135.25 36.36,-203.62 -59.68,-117.39 -153.22,-214.19 -268.53,-277.86 l -495.01,-122.09 -44.42,149.76"
         style="fill:#e27547;fill-opacity:1;fill-rule:evenodd;stroke:none"
         transform="matrix(0.13333333,0,0,-0.13333333,0,579.13333)" />
      <path
         id="path31"
         d="m 2000.57,2618.03 155.82,-87.05 c 102.82,-57.43 217.06,-95.49 337.63,-112.48 140.21,-19.76 267.27,-79.4 366.36,-171.96 17.85,-16.68 23.82,-42.82 15.53,-68.06 -8.3,-25.23 -29.53,-45.45 -55.26,-52.68 -132.46,-37.19 -268.32,-18.4 -373.72,51.64 -50.09,33.3 -107.19,56.19 -168.33,67.5 -99.81,18.45 -199.38,37.74 -298.69,57.85 l 20.66,315.24"
         style="fill:#e27547;fill-opacity:1;fill-rule:evenodd;stroke:none"
         transform="matrix(0.13333333,0,0,-0.13333333,0,579.13333)" />
      <path
         id="path32"
         d="m 892.074,2572.6 c 223.956,164.53 508.626,222.99 779.296,160 107.54,-25.02 213.43,-56.69 317.06,-94.82 78.58,-28.91 124.89,-110.27 109.64,-192.59 -42.45,-229.05 -151.74,-440.42 -314.1,-607.46 -69.78,-71.78 -173.53,-99.14 -269.65,-71.1 -164.64,48.04 -321.37,119.91 -465.2,213.35 L 379.465,1711.76 103.887,2399.19 892.074,2572.6"
         style="fill:#f28f61;fill-opacity:1;fill-rule:evenodd;stroke:none"
         transform="matrix(0.13333333,0,0,-0.13333333,0,579.13333)" />
      <path
         id="path33"
         d="M 932.828,1875.9 583.184,2549.95 233.531,2467.86 683.926,1742.02 932.828,1875.9"
         style="fill:#f8e9d2;fill-opacity:1;fill-rule:evenodd;stroke:none"
         transform="matrix(0.13333333,0,0,-0.13333333,0,579.13333)" />
      <path
         id="path34"
         d="M 505.863,2028.97 795.41,2140.82 932.828,1875.9 683.926,1742.02 505.863,2028.97"
         style="fill:#ebd6b3;fill-opacity:1;fill-rule:evenodd;stroke:none"
         transform="matrix(0.13333333,0,0,-0.13333333,0,579.13333)" />
      <path
         id="path35"
         d="M 307.613,2549.95 778.75,1712.12 0,1333.01 v 1171.31 l 307.613,45.63"
         style="fill:#463c3b;fill-opacity:1;fill-rule:evenodd;stroke:none"
         transform="matrix(0.13333333,0,0,-0.13333333,0,579.13333)" />
      <path
         id="path36"
         d="M 0,1833.07 620.793,1993.02 778.75,1712.12 0,1333.01 v 500.06"
         style="fill:#2e2825;fill-opacity:1;fill-rule:evenodd;stroke:none"
         transform="matrix(0.13333333,0,0,-0.13333333,0,579.13333)" />
      <path
         id="path37"
         d="m 3153.12,3247.32 -110.53,-122.61 c -72.93,-80.92 -161.09,-146.98 -260.53,-195.25 -115.63,-56.13 -208.88,-145.61 -268.89,-258.03 -10.83,-20.28 -8.74,-46.08 5.39,-67.19 14.15,-21.12 38.06,-34.12 62.29,-33.88 124.66,1.33 236.82,55.39 308.49,148.66 34.05,44.35 77.06,80.96 126.73,107.92 81.11,44.01 161.78,88.72 241.98,134.15 l -104.93,286.23"
         style="fill:#6e2717;fill-opacity:1;fill-rule:evenodd;stroke:none"
         transform="matrix(0.13333333,0,0,-0.13333333,0,579.13333)" />
      <path
         id="path38"
         d="M 2992.58,3650.39 2831.3,3537.94 c -106.42,-74.2 -227.29,-127.94 -357.21,-158.82 -151.07,-35.93 -283.72,-114.98 -382.5,-227.95 -17.8,-20.37 -21.67,-50.1 -10.05,-77.39 11.61,-27.3 36.85,-47.76 65.66,-53.25 148.39,-28.31 294.82,6.08 402.76,94.6 51.31,42.07 111.34,73.24 176.92,91.9 107.1,30.45 213.85,61.82 320.23,94.07 l -54.53,349.29"
         style="fill:#6e2717;fill-opacity:1;fill-rule:evenodd;stroke:none"
         transform="matrix(0.13333333,0,0,-0.13333333,0,579.13333)" />
      <path
         id="path39"
         d="m 3227.67,3225.44 -182.79,-57.79 c -120.59,-38.13 -231.34,-98.74 -327.26,-179.1 -111.54,-93.46 -250.33,-148.6 -400.2,-159.03 -27.02,-1.88 -54.63,12.05 -71.9,36.27 -17.25,24.22 -21.37,54.81 -10.73,79.64 54.9,127.81 162.64,218.64 296.38,249.81 63.56,14.82 122.41,42.37 173.47,81.22 83.37,63.43 167.31,126.07 251.84,187.92 l 271.19,-238.94"
         style="fill:#6e2717;fill-opacity:1;fill-rule:evenodd;stroke:none"
         transform="matrix(0.13333333,0,0,-0.13333333,0,579.13333)" />
      <path
         id="path40"
         d="m 2858.93,3815.12 -155.81,-87.05 c -102.82,-57.42 -217.07,-95.49 -337.64,-112.49 -140.22,-19.76 -267.28,-79.39 -366.35,-171.94 -17.87,-16.69 -23.83,-42.83 -15.53,-68.07 8.3,-25.22 29.53,-45.46 55.25,-52.68 132.46,-37.18 268.33,-18.4 373.71,51.65 50.1,33.29 107.21,56.19 168.34,67.49 99.82,18.45 199.37,37.74 298.68,57.85 l -20.65,315.24"
         style="fill:#6e2717;fill-opacity:1;fill-rule:evenodd;stroke:none"
         transform="matrix(0.13333333,0,0,-0.13333333,0,579.13333)" />
      <path
         id="path41"
         d="m 3967.42,3769.68 c -223.94,164.54 -508.62,222.99 -779.29,160.02 -107.54,-25.03 -213.42,-56.7 -317.06,-94.82 -78.58,-28.92 -124.88,-110.27 -109.63,-192.61 42.46,-229.04 151.73,-440.4 314.1,-607.44 69.77,-71.79 173.52,-99.16 269.64,-71.1 164.63,48.03 321.37,119.9 465.2,213.33 l 669.67,-268.21 275.57,687.44 -788.2,173.39"
         style="fill:#7e2a1a;fill-opacity:1;fill-rule:evenodd;stroke:none"
         transform="matrix(0.13333333,0,0,-0.13333333,0,579.13333)" />
      <path
         id="path42"
         d="m 3967.42,3769.68 c -223.2,164 -506.74,222.59 -776.6,160.62 l 27.77,-85.19 84.72,-122.09 c 77.87,-112.22 209.08,-175.12 345.33,-165.55 136.24,9.58 257.38,90.21 318.78,212.21"
         style="fill:#95351d;fill-opacity:1;fill-rule:evenodd;stroke:none"
         transform="matrix(0.13333333,0,0,-0.13333333,0,579.13333)" />
      <path
         id="path43"
         d="m 3926.67,3072.99 349.65,674.06 349.65,-82.1 -450.39,-725.83 -248.91,133.87"
         style="fill:#f8e9d2;fill-opacity:1;fill-rule:evenodd;stroke:none"
         transform="matrix(0.13333333,0,0,-0.13333333,0,579.13333)" />
      <path
         id="path44"
         d="m 4353.64,3226.07 -289.54,111.84 -137.43,-264.92 248.91,-133.87 178.06,286.95"
         style="fill:#ebd6b3;fill-opacity:1;fill-rule:evenodd;stroke:none"
         transform="matrix(0.13333333,0,0,-0.13333333,0,579.13333)" />
      <path
         id="path45"
         d="m 4551.88,3747.05 -471.13,-837.84 778.76,-379.11 v 1171.31 l -307.63,45.64"
         style="fill:#463c3b;fill-opacity:1;fill-rule:evenodd;stroke:none"
         transform="matrix(0.13333333,0,0,-0.13333333,0,579.13333)" />
      <path
         id="path46"
         d="m 4859.51,3030.17 -620.8,159.94 -157.96,-280.9 778.76,-379.11 v 500.07"
         style="fill:#2e2825;fill-opacity:1;fill-rule:evenodd;stroke:none"
         transform="matrix(0.13333333,0,0,-0.13333333,0,579.13333)" />
      <path
         id="path47"
         d="m 3758.05,3872.77 -186.22,130.21 c -75.55,52.83 -159.01,93.33 -247.24,119.98 -100.99,30.51 -186.69,98.04 -239.97,189.07 -9.76,16.66 -26.51,27.98 -45.62,30.8 -19.07,2.83 -38.39,-3.15 -52.55,-16.26 -56.28,-52.11 -71.13,-135.24 -36.36,-203.61 59.68,-117.39 153.22,-214.19 268.5,-277.85 l 495.04,-122.09 44.42,149.75"
         style="fill:#95351d;fill-opacity:1;fill-rule:evenodd;stroke:none"
         transform="matrix(0.13333333,0,0,-0.13333333,0,579.13333)" />
    </g>
  </g>
</svg>
