<?xml version="1.0" encoding="UTF-8" standalone="no"?>
<!-- Created with Inkscape (http://www.inkscape.org/) -->

<svg
   version="1.1"
   id="svg1"
   width="475.30667"
   height="794.20001"
   viewBox="0 0 475.30667 794.20001"
   sodipodi:docname="businessman-running-to-finish.svg"
   inkscape:version="1.4 (e7c3feb100, 2024-10-09)"
   xmlns:inkscape="http://www.inkscape.org/namespaces/inkscape"
   xmlns:sodipodi="http://sodipodi.sourceforge.net/DTD/sodipodi-0.dtd"
   xmlns="http://www.w3.org/2000/svg"
   xmlns:svg="http://www.w3.org/2000/svg">
  <defs
     id="defs1" />
  <sodipodi:namedview
     id="namedview1"
     pagecolor="#505050"
     bordercolor="#ffffff"
     borderopacity="1"
     inkscape:showpageshadow="0"
     inkscape:pageopacity="0"
     inkscape:pagecheckerboard="1"
     inkscape:deskcolor="#d1d1d1"
     inkscape:zoom="1.0261899"
     inkscape:cx="237.77277"
     inkscape:cy="397.10001"
     inkscape:window-width="1920"
     inkscape:window-height="1002"
     inkscape:window-x="0"
     inkscape:window-y="0"
     inkscape:window-maximized="1"
     inkscape:current-layer="g1">
    <inkscape:page
       x="0"
       y="0"
       inkscape:label="1"
       id="page1"
       width="475.30667"
       height="794.20001"
       margin="0"
       bleed="0" />
  </sodipodi:namedview>
  <g
     id="g1"
     inkscape:groupmode="layer"
     inkscape:label="1">
    <g
       id="group-R5">
      <path
         id="path2"
         d="m 756.609,100.27 c 0,7.519 -1.074,14 -3.304,19.312 -2.157,5.379 -5.196,9.527 -9.102,12.457 -3.89,2.84 -8.18,4.301 -12.914,4.301 -7.496,0 -13.832,-3.16 -18.988,-9.289 -5.156,-6.211 -7.735,-15.262 -7.735,-27.2619 0,-11.3203 2.579,-20.1094 7.657,-26.3086 5.156,-6.3086 11.515,-9.4688 19.066,-9.4688 4.508,0 8.731,1.3672 12.594,4.1485 3.797,2.7304 6.898,6.8398 9.238,12.2617 2.348,5.5273 3.488,12.0976 3.488,19.8481 z m -53.308,41.378 v -3.418 c 5.105,6.54 10.394,11.442 15.902,14.481 5.531,3.109 11.817,4.668 18.801,4.668 8.348,0 16.059,-2.27 23.105,-6.777 7.028,-4.512 12.582,-11.063 16.696,-19.77 4.082,-8.684 6.086,-18.91 6.086,-30.781 0,-8.7112 -1.137,-16.8322 -3.5,-24.0393 -2.348,-7.3203 -5.602,-13.5117 -9.707,-18.4531 -4.121,-4.9492 -9.024,-8.7891 -14.594,-11.418 -5.645,-2.7187 -11.695,-4.0312 -18.086,-4.0312 -7.813,0 -14.344,1.6328 -19.621,4.8906 -5.324,3.25 -10.324,8 -15.082,14.3203 V 18.7305 C 703.301,6.23047 698.941,0 690.238,0 c -5.109,0 -8.523,1.60156 -10.136,4.80078 -1.68,3.23828 -2.5,7.94922 -2.5,14.10152 V 141.461 c 0,5.398 1.089,9.449 3.375,12.109 2.293,2.649 5.371,4.012 9.261,4.012 3.86,0 6.996,-1.363 9.414,-4.141 2.418,-2.75 3.649,-6.699 3.649,-11.793"
         style="fill:#100f0d;fill-opacity:1;fill-rule:nonzero;stroke:none"
         transform="matrix(0.13333333,0,0,-0.13333333,0,794.2)" />
      <path
         id="path3"
         d="M 876.438,58.1719 V 61.75 c -3.274,-4.2812 -6.688,-7.8711 -10.286,-10.7695 -3.589,-2.961 -7.504,-5.1094 -11.738,-6.5 -4.293,-1.4219 -9.133,-2.1407 -14.578,-2.1407 -6.539,0 -12.438,1.4297 -17.668,4.25 -5.227,2.8321 -9.273,6.7618 -12.086,11.7422 -3.441,6.0391 -5.094,14.7071 -5.094,25.9688 V 140.57 c 0,5.649 1.227,9.922 3.696,12.719 2.461,2.801 5.695,4.211 9.734,4.211 4.137,0 7.437,-1.41 9.977,-4.281 2.527,-2.848 3.773,-7.078 3.773,-12.649 V 95.0898 c 0,-6.5312 0.523,-12.0781 1.559,-16.5117 1.113,-4.4883 3.015,-7.9883 5.8,-10.5586 2.7,-2.4882 6.453,-3.7578 11.164,-3.7578 4.637,0 8.938,1.4375 12.961,4.2696 4.086,2.8085 7.051,6.5078 8.891,11.0898 1.527,4.0273 2.285,12.8281 2.285,26.4099 v 34.539 c 0,5.571 1.262,9.801 3.809,12.649 2.5,2.871 5.75,4.281 9.832,4.281 4.054,0 7.301,-1.41 9.761,-4.211 2.43,-2.797 3.641,-7.07 3.641,-12.719 V 58.332 c 0,-5.4023 -1.129,-9.4726 -3.492,-12.1406 -2.332,-2.7422 -5.371,-4.0625 -9.106,-4.0625 -3.707,0 -6.761,1.4414 -9.21,4.1719 -2.418,2.8594 -3.625,6.7383 -3.625,11.8711"
         style="fill:#100f0d;fill-opacity:1;fill-rule:nonzero;stroke:none"
         transform="matrix(0.13333333,0,0,-0.13333333,0,794.2)" />
      <path
         id="path4"
         d="m 955.336,99.1484 c 0,-11.289 2.457,-19.9375 7.383,-26.0273 4.972,-6.0391 11.469,-9.1094 19.523,-9.1094 6.852,0 12.703,3.1172 17.692,9.3203 4.976,6.2188 7.446,15.0469 7.446,26.6485 0,7.5585 -1.04,13.9685 -3.1,19.3595 -2.08,5.441 -5.022,9.621 -8.768,12.539 -3.84,2.941 -8.203,4.461 -13.27,4.461 -5.23,0 -9.769,-1.52 -13.851,-4.461 -4.082,-2.918 -7.243,-7.207 -9.586,-12.797 -2.328,-5.543 -3.469,-12.16 -3.469,-19.9336 z m -1.289,84.3826 v -43.39 c 5.051,5.597 10.301,9.8 15.601,12.808 5.325,2.93 11.922,4.43 19.743,4.43 9.047,0 16.949,-2.27 23.759,-6.688 6.8,-4.55 12.11,-10.992 15.85,-19.48 3.79,-8.481 5.64,-18.559 5.64,-30.199 0,-8.6136 -1.03,-16.4807 -3.11,-23.7112 -2.1,-7.1406 -5.11,-13.332 -9.11,-18.6602 -4.03,-5.2422 -8.87,-9.2695 -14.51,-12.25 -5.71,-2.8203 -11.972,-4.2812 -18.808,-4.2812 -4.145,0 -8.122,0.5312 -11.829,1.5508 -3.675,1.0507 -6.843,2.4101 -9.367,4.1601 -2.633,1.6016 -4.84,3.4219 -6.676,5.1719 -1.812,1.8359 -4.203,4.5078 -7.183,8.1172 V 58.332 c 0,-5.3632 -1.258,-9.3906 -3.719,-12.1406 -2.43,-2.7422 -5.601,-4.082 -9.348,-4.082 -3.875,0 -6.925,1.3398 -9.25,4.082 -2.265,2.8086 -3.41,6.8008 -3.41,12.1406 v 123.969 c 0,5.711 1.106,10.07 3.36,13.008 2.211,2.961 5.289,4.421 9.3,4.421 4.165,0 7.399,-1.398 9.629,-4.23 2.286,-2.781 3.438,-6.75 3.438,-11.969"
         style="fill:#100f0d;fill-opacity:1;fill-rule:nonzero;stroke:none"
         transform="matrix(0.13333333,0,0,-0.13333333,0,794.2)" />
      <path
         id="path5"
         d="M 1053.84,59.3906 V 182.48 c 0,5.711 1.2,9.981 3.6,12.911 2.47,2.879 5.72,4.339 9.84,4.339 4.12,0 7.42,-1.41 9.96,-4.308 2.49,-2.863 3.8,-7.211 3.8,-12.942 V 59.3906 c 0,-5.7617 -1.31,-10.1015 -3.86,-13 -2.54,-2.8203 -5.86,-4.2812 -9.9,-4.2812 -3.99,0 -7.19,1.5 -9.7,4.4804 -2.49,2.9922 -3.74,7.2305 -3.74,12.8008"
         style="fill:#100f0d;fill-opacity:1;fill-rule:nonzero;stroke:none"
         transform="matrix(0.13333333,0,0,-0.13333333,0,794.2)" />
      <path
         id="path6"
         d="M 1136.31,141.379 V 59.3906 c 0,-5.7187 -1.33,-10.0195 -3.85,-12.9297 -2.62,-2.8515 -5.93,-4.3515 -9.88,-4.3515 -4,0 -7.24,1.5 -9.72,4.4492 -2.46,3.0234 -3.75,7.2617 -3.75,12.832 V 140.57 c 0,5.571 1.29,9.801 3.75,12.649 2.48,2.871 5.72,4.281 9.72,4.281 3.95,0 7.26,-1.41 9.88,-4.281 2.52,-2.848 3.85,-6.778 3.85,-11.84 z m -13.45,29.351 c -3.79,0 -7,1.211 -9.75,3.7 -2.62,2.41 -4,5.871 -4,10.32 0,4 1.38,7.281 4.15,9.922 2.75,2.609 5.94,3.828 9.6,3.828 3.51,0 6.65,-1.141 9.37,-3.488 2.71,-2.352 4.08,-5.821 4.08,-10.262 0,-4.41 -1.34,-7.82 -4,-10.238 -2.66,-2.461 -5.78,-3.782 -9.45,-3.782"
         style="fill:#100f0d;fill-opacity:1;fill-rule:nonzero;stroke:none"
         transform="matrix(0.13333333,0,0,-0.13333333,0,794.2)" />
      <path
         id="path7"
         d="m 1261.83,77.2617 c 0,-3.5117 -1,-7.3125 -3.01,-11.3398 -2.06,-4.0117 -5.14,-7.8203 -9.3,-11.4727 -4.13,-3.6172 -9.36,-6.5508 -15.68,-8.75 -6.3,-2.2773 -13.42,-3.3594 -21.31,-3.3594 -16.82,0 -29.92,5.129 -39.37,15.3321 -9.41,10.2265 -14.13,23.8984 -14.13,41.0976 0,11.6525 2.15,21.9685 6.44,30.8785 4.32,8.891 10.61,15.864 18.75,20.723 8.15,4.918 17.95,7.359 29.27,7.359 7.06,0 13.53,-1.101 19.42,-3.218 5.86,-2.172 10.84,-4.953 14.93,-8.313 4.08,-3.41 7.19,-7.039 9.37,-10.859 2.17,-3.84 3.22,-7.442 3.22,-10.77 0,-3.351 -1.23,-6.238 -3.62,-8.609 -2.45,-2.383 -5.35,-3.539 -8.81,-3.539 -2.29,0 -4.14,0.648 -5.67,1.859 -1.45,1.168 -3.14,3.078 -5.02,5.84 -3.3,5.25 -6.8,9.231 -10.41,11.918 -3.62,2.602 -8.22,3.953 -13.76,3.953 -8.08,0 -14.56,-3.332 -19.46,-9.871 -4.93,-6.582 -7.35,-15.539 -7.35,-26.9101 0,-5.3007 0.63,-10.2695 1.9,-14.6992 1.25,-4.5 3.07,-8.2929 5.45,-11.4726 2.4,-3.1485 5.27,-5.5274 8.67,-7.1602 3.38,-1.6601 7.11,-2.4492 11.14,-2.4492 5.48,0 10.12,1.2891 14.01,3.9297 3.9,2.6601 7.34,6.6914 10.32,12.0312 1.66,3.2696 3.45,5.7383 5.38,7.5703 1.95,1.8008 4.31,2.6602 7.09,2.6602 3.32,0 6.07,-1.2813 8.29,-3.9102 2.15,-2.6992 3.25,-5.4726 3.25,-8.4492"
         style="fill:#100f0d;fill-opacity:1;fill-rule:nonzero;stroke:none"
         transform="matrix(0.13333333,0,0,-0.13333333,0,794.2)" />
      <path
         id="path8"
         d="m 1306.64,99.9805 c 0,-7.6992 1.14,-14.1992 3.42,-19.6407 2.31,-5.4179 5.4,-9.4492 9.38,-12.1796 4.02,-2.7813 8.37,-4.1485 13.05,-4.1485 4.79,0 9.15,1.3281 13.1,3.8867 3.97,2.6133 7.09,6.6329 9.48,11.9922 2.36,5.3477 3.53,12.0782 3.53,20.0899 0,7.6015 -1.17,14.0585 -3.53,19.5315 -2.39,5.449 -5.56,9.597 -9.56,12.527 -4.03,2.84 -8.41,4.301 -13.19,4.301 -4.97,0 -9.41,-1.52 -13.35,-4.461 -3.89,-2.918 -6.96,-7.199 -9.11,-12.707 -2.14,-5.524 -3.22,-11.863 -3.22,-19.1915 z m 53.45,-41.6485 v 2.7774 c -3.65,-4.3672 -7.25,-7.9102 -10.85,-10.6094 -3.49,-2.7695 -7.37,-4.8398 -11.52,-6.2695 -4.14,-1.3789 -8.67,-2.1211 -13.57,-2.1211 -6.5,0 -12.57,1.4609 -18.1,4.2812 -5.52,2.9805 -10.32,7.0313 -14.38,12.3594 -4.03,5.3516 -7.11,11.6211 -9.22,18.8516 -2.12,7.1797 -3.14,14.9804 -3.14,23.4104 0,17.699 4.16,31.59 12.46,41.5 8.33,9.918 19.23,14.867 32.76,14.867 7.83,0 14.45,-1.43 19.83,-4.289 5.36,-2.758 10.63,-7.078 15.73,-12.949 v 41.918 c 0,5.839 1.1,10.23 3.34,13.203 2.22,3 5.36,4.468 9.49,4.468 4.12,0 7.29,-1.378 9.54,-4.082 2.2,-2.726 3.36,-6.777 3.36,-12.117 V 58.332 c 0,-5.4023 -1.22,-9.4726 -3.62,-12.1406 -2.4,-2.7422 -5.46,-4.082 -9.28,-4.082 -3.67,0 -6.79,1.4023 -9.22,4.1914 -2.4,2.8086 -3.61,6.7812 -3.61,12.0312"
         style="fill:#100f0d;fill-opacity:1;fill-rule:nonzero;stroke:none"
         transform="matrix(0.13333333,0,0,-0.13333333,0,794.2)" />
      <path
         id="path9"
         d="m 1487.62,99.75 c 0,11.531 -2.48,20.582 -7.33,27.02 -4.89,6.41 -11.47,9.66 -19.68,9.66 -5.35,0 -10,-1.438 -14.06,-4.321 -4.05,-2.918 -7.16,-7.148 -9.36,-12.769 -2.18,-5.559 -3.29,-12.07 -3.29,-19.59 0,-7.4297 1.11,-13.8906 3.23,-19.4102 2.15,-5.5507 5.26,-9.8007 9.3,-12.75 4,-2.9414 8.77,-4.3789 14.18,-4.3789 8.21,0 14.79,3.211 19.68,9.6875 4.85,6.4532 7.33,15.4414 7.33,26.8516 z m 27.29,0 c 0,-8.4102 -1.28,-16.2109 -3.79,-23.3984 -2.53,-7.0821 -6.17,-13.2305 -10.93,-18.3828 -4.82,-5.129 -10.53,-8.9688 -17.16,-11.7774 -6.63,-2.7422 -14.16,-4.082 -22.42,-4.082 -8.22,0 -15.64,1.3398 -22.2,4.1523 -6.58,2.7696 -12.3,6.7305 -17.12,11.9102 -4.79,5.1679 -8.43,11.2265 -10.95,18.2578 -2.49,7.082 -3.72,14.8203 -3.72,23.3711 0,8.5902 1.27,16.4492 3.77,23.5582 2.52,7.18 6.12,13.243 10.85,18.332 4.72,5.051 10.42,8.95 17.17,11.68 6.73,2.75 14.09,4.129 22.2,4.129 8.24,0 15.72,-1.379 22.42,-4.168 6.69,-2.762 12.43,-6.75 17.21,-11.871 4.81,-5.121 8.44,-11.262 10.88,-18.332 2.55,-7.051 3.79,-14.848 3.79,-23.379"
         style="fill:#100f0d;fill-opacity:1;fill-rule:nonzero;stroke:none"
         transform="matrix(0.13333333,0,0,-0.13333333,0,794.2)" />
      <path
         id="path10"
         d="m 1629.76,123.199 c -2.04,-4.801 -3.01,-13.258 -3.01,-25.4607 V 60.0195 c 0,-5.9297 -1.27,-10.4375 -3.89,-13.4297 -2.58,-2.9804 -6.04,-4.4804 -10.28,-4.4804 -4.08,0 -7.41,1.5 -9.95,4.4804 -2.57,2.9922 -3.82,7.5 -3.82,13.4297 v 45.2815 c 0,7.121 -0.27,12.64 -0.73,16.648 -0.48,3.903 -1.72,7.172 -3.79,9.711 -2.01,2.539 -5.29,3.801 -9.72,3.801 -8.9,0 -14.75,-3.191 -17.59,-9.609 -2.85,-6.34 -4.19,-15.5 -4.19,-27.4536 V 60.0195 c 0,-5.9179 -1.32,-10.3906 -3.84,-13.3398 -2.58,-3.0703 -5.95,-4.5703 -10.09,-4.5703 -4.15,0 -7.56,1.5 -10.16,4.5703 -2.65,2.9492 -3.89,7.4219 -3.89,13.332 V 141.23 c 0,5.352 1.12,9.411 3.46,12.168 2.39,2.762 5.49,4.184 9.37,4.184 3.71,0 6.83,-1.293 9.29,-3.891 2.49,-2.589 3.73,-6.171 3.73,-10.761 v -2.692 c 4.71,5.903 9.77,10.242 15.13,12.981 5.37,2.773 11.41,4.16 17.94,4.16 6.82,0 12.67,-1.43 17.59,-4.289 4.93,-2.809 8.96,-7.121 12.13,-12.852 4.6,5.774 9.51,10.133 14.77,12.934 5.26,2.82 11.05,4.207 17.41,4.207 7.49,0 13.88,-1.5 19.22,-4.59 5.4,-3.047 9.4,-7.398 12.07,-13.09 2.34,-5.129 3.48,-13.199 3.48,-24.25 V 60.0195 c 0,-5.9297 -1.29,-10.4375 -3.84,-13.4297 -2.64,-2.9804 -6.03,-4.4804 -10.29,-4.4804 -4.13,0 -7.49,1.5 -10.09,4.5703 -2.66,2.9492 -3.97,7.4219 -3.97,13.3398 v 47.7695 c 0,6.102 -0.25,10.973 -0.73,14.66 -0.51,3.711 -1.86,6.742 -4.07,9.25 -2.18,2.5 -5.52,3.762 -9.92,3.762 -3.59,0 -7.01,-1.121 -10.18,-3.289 -3.28,-2.242 -5.72,-5.223 -7.55,-8.973 v 0"
         style="fill:#100f0d;fill-opacity:1;fill-rule:nonzero;stroke:none"
         transform="matrix(0.13333333,0,0,-0.13333333,0,794.2)" />
      <path
         id="path11"
         d="m 1783.78,99.2109 c -4.01,-1.5586 -9.81,-3.1211 -17.41,-4.8515 -7.61,-1.6992 -12.87,-2.9375 -15.8,-3.75 -2.93,-0.8203 -5.72,-2.3594 -8.34,-4.6602 -2.68,-2.3906 -4.03,-5.6094 -4.03,-9.7695 0,-4.3399 1.59,-7.9609 4.68,-10.9883 3.14,-3.0625 7.23,-4.5312 12.28,-4.5312 5.37,0 10.37,1.25 14.89,3.7109 4.55,2.4375 7.92,5.6484 10.01,9.5 2.46,4.3203 3.72,11.3672 3.72,21.3008 z m 1.77,-41.1093 c -6.59,-5.3516 -12.95,-9.3321 -19.09,-11.961 -6.12,-2.7187 -13.05,-4.0312 -20.64,-4.0312 -7.03,0 -13.1,1.4609 -18.41,4.2812 -5.32,2.8985 -9.35,6.8086 -12.22,11.7813 -2.82,4.9101 -4.29,10.1875 -4.29,15.9883 0,7.7617 2.42,14.3515 7.12,19.8398 4.68,5.4492 11.15,9.129 19.38,11.012 1.73,0.418 6.04,1.32 12.83,2.777 6.92,1.492 12.72,2.793 17.68,4 4.83,1.191 10.16,2.68 15.87,4.402 -0.35,7.52 -1.79,13 -4.33,16.579 -2.59,3.472 -7.92,5.171 -15.91,5.171 -6.94,0 -12.11,-0.972 -15.64,-2.98 -3.47,-1.992 -6.48,-5.031 -8.93,-9.109 -2.52,-3.993 -4.24,-6.661 -5.28,-7.922 -1.06,-1.309 -3.27,-1.891 -6.61,-1.891 -3.1,0 -5.72,1.012 -7.91,3.031 -2.26,2.059 -3.36,4.641 -3.36,7.879 0,4.973 1.69,9.86 5.06,14.512 3.39,4.738 8.69,8.598 15.84,11.711 7.17,3.047 16.13,4.558 26.83,4.558 11.92,0 21.34,-1.511 28.22,-4.441 6.82,-2.918 11.6,-7.551 14.46,-13.98 2.84,-6.34 4.23,-14.829 4.23,-25.36 0,-6.64 0,-12.328 -0.03,-16.9373 -0.06,-4.6914 -0.09,-9.8398 -0.15,-15.5234 0,-5.3086 0.84,-10.8985 2.55,-16.6602 1.65,-5.789 2.5,-9.5273 2.5,-11.1562 0,-2.9219 -1.33,-5.5899 -3.94,-7.9727 -2.57,-2.3789 -5.57,-3.5898 -8.87,-3.5898 -2.84,0 -5.53,1.3398 -8.3,4.082 -2.72,2.75 -5.6,6.7383 -8.66,11.9102"
         style="fill:#100f0d;fill-opacity:1;fill-rule:nonzero;stroke:none"
         transform="matrix(0.13333333,0,0,-0.13333333,0,794.2)" />
      <path
         id="path12"
         d="M 1865.28,141.379 V 59.3906 c 0,-5.7187 -1.31,-10.0195 -3.85,-12.9297 -2.6,-2.8515 -5.86,-4.3515 -9.86,-4.3515 -3.97,0 -7.25,1.5 -9.71,4.4492 -2.52,3.0234 -3.77,7.2617 -3.77,12.832 V 140.57 c 0,5.571 1.25,9.801 3.77,12.649 2.46,2.871 5.74,4.281 9.71,4.281 4,0 7.26,-1.41 9.86,-4.281 2.54,-2.848 3.85,-6.778 3.85,-11.84 z m -13.44,29.351 c -3.75,0 -6.97,1.211 -9.67,3.7 -2.69,2.41 -4.08,5.871 -4.08,10.32 0,4 1.41,7.281 4.17,9.922 2.73,2.609 5.97,3.828 9.58,3.828 3.53,0 6.69,-1.141 9.41,-3.488 2.69,-2.352 4.03,-5.821 4.03,-10.262 0,-4.41 -1.31,-7.82 -3.98,-10.238 -2.65,-2.461 -5.81,-3.782 -9.46,-3.782"
         style="fill:#100f0d;fill-opacity:1;fill-rule:nonzero;stroke:none"
         transform="matrix(0.13333333,0,0,-0.13333333,0,794.2)" />
      <path
         id="path13"
         d="m 1918.13,141.789 v -3.391 c 4.76,6.571 9.98,11.403 15.62,14.481 5.69,3.07 12.22,4.621 19.62,4.621 7.13,0 13.58,-1.621 19.26,-4.91 5.59,-3.238 9.84,-7.82 12.59,-13.758 1.82,-3.492 2.94,-7.273 3.52,-11.281 0.48,-3.973 0.8,-9.11 0.8,-15.371 V 59.3906 c 0,-5.7187 -1.29,-10.0195 -3.76,-12.9297 -2.5,-2.8515 -5.75,-4.3515 -9.71,-4.3515 -4.04,0 -7.35,1.5 -9.78,4.4804 -2.55,2.9922 -3.85,7.2305 -3.85,12.8008 V 106.66 c 0,9.399 -1.21,16.539 -3.69,21.481 -2.54,4.949 -7.52,7.468 -14.97,7.468 -4.83,0 -9.24,-1.527 -13.21,-4.558 -3.98,-2.981 -6.91,-7.141 -8.76,-12.422 -1.33,-4.231 -2.03,-12.09 -2.03,-23.7384 v -35.5 c 0,-5.7617 -1.25,-10.1015 -3.82,-13 -2.57,-2.8203 -5.87,-4.2812 -9.91,-4.2812 -3.89,0 -7.13,1.5 -9.64,4.4492 -2.57,3.0234 -3.81,7.2617 -3.81,12.832 v 81.9884 c 0,5.43 1.12,9.43 3.41,12.101 2.21,2.68 5.37,4.02 9.27,4.02 2.35,0 4.54,-0.629 6.43,-1.762 1.99,-1.156 3.48,-2.988 4.65,-5.258 1.12,-2.41 1.77,-5.289 1.77,-8.691"
         style="fill:#100f0d;fill-opacity:1;fill-rule:nonzero;stroke:none"
         transform="matrix(0.13333333,0,0,-0.13333333,0,794.2)" />
      <path
         id="path14"
         d="m 2033.18,139.84 21.96,-64.4416 23.72,67.2536 c 1.89,5.418 3.7,9.2 5.52,11.469 1.83,2.238 4.5,3.379 8.13,3.379 3.46,0 6.39,-1.211 8.87,-3.68 2.37,-2.398 3.6,-5.16 3.6,-8.429 0,-1.219 -0.24,-2.661 -0.67,-4.282 -0.39,-1.699 -0.89,-3.257 -1.48,-4.757 -0.57,-1.391 -1.16,-3.082 -1.95,-4.942 L 2074.8,63.8398 c -0.73,-1.9296 -1.7,-4.4179 -2.83,-7.4101 -1.18,-2.9688 -2.5,-5.4609 -3.89,-7.6602 -1.46,-2.0898 -3.2,-3.6875 -5.27,-4.8789 -2.13,-1.1797 -4.68,-1.7812 -7.67,-1.7812 -3.85,0 -6.9,0.9101 -9.23,2.7187 -2.28,1.8516 -3.98,3.8438 -5.07,6.0703 -1.07,2.1407 -2.95,6.4922 -5.51,12.9414 L 2009.4,130.68 c -0.6,1.629 -1.24,3.308 -1.89,4.98 -0.59,1.66 -1.08,3.32 -1.55,5.09 -0.42,1.762 -0.66,3.25 -0.66,4.441 0,1.981 0.56,3.899 1.72,5.801 1.13,1.93 2.69,3.496 4.67,4.68 2.03,1.199 4.14,1.828 6.51,1.828 4.47,0 7.59,-1.34 9.3,-4.102 1.69,-2.668 3.6,-7.199 5.68,-13.558"
         style="fill:#100f0d;fill-opacity:1;fill-rule:nonzero;stroke:none"
         transform="matrix(0.13333333,0,0,-0.13333333,0,794.2)" />
      <path
         id="path15"
         d="m 2144.41,109.02 h 49.29 c -0.63,9.671 -3.12,16.921 -7.5,21.718 -4.37,4.793 -10.1,7.203 -17.22,7.203 -6.73,0 -12.31,-2.441 -16.64,-7.3 -4.35,-4.86 -6.95,-12.09 -7.93,-21.621 z m 53.2,-16.1489 h -53.2 c 0.01,-6.4688 1.31,-12.1406 3.69,-17.1016 2.46,-4.8789 5.66,-8.5976 9.7,-11.1211 4,-2.5195 8.45,-3.7187 13.31,-3.7187 3.24,0 6.25,0.3906 8.89,1.1601 2.68,0.8399 5.32,2.0821 7.87,3.75 2.48,1.711 4.78,3.4805 6.93,5.5 2.1,1.9415 4.93,4.5196 8.27,7.8711 1.41,1.3086 3.42,1.8985 5.97,1.8985 2.84,0 5.07,-0.7696 6.8,-2.4102 1.73,-1.5976 2.54,-3.8203 2.54,-6.7304 0,-2.5704 -0.93,-5.5665 -2.88,-9.0391 -1.9,-3.3711 -4.75,-6.6875 -8.71,-9.8906 -3.89,-3.1172 -8.77,-5.6875 -14.65,-7.8282 -5.85,-2.0703 -12.57,-3.1015 -20.28,-3.1015 -17.43,0 -31.03,5.2422 -40.69,15.582 -9.69,10.4492 -14.51,24.5078 -14.51,42.2891 0,8.4885 1.23,16.2105 3.56,23.3595 2.39,7.199 5.86,13.332 10.46,18.449 4.59,5.16 10.19,9.121 16.92,11.82 6.74,2.75 14.14,4.121 22.35,4.121 10.54,0 19.69,-2.332 27.29,-7.039 7.63,-4.679 13.31,-10.691 17.09,-18.089 3.79,-7.461 5.68,-14.981 5.68,-22.731 0,-7.082 -1.9,-11.7108 -5.85,-13.8124 -3.96,-2.1484 -9.44,-3.1875 -16.55,-3.1875"
         style="fill:#100f0d;fill-opacity:1;fill-rule:nonzero;stroke:none"
         transform="matrix(0.13333333,0,0,-0.13333333,0,794.2)" />
      <path
         id="path16"
         d="m 2340.49,77.2617 c 0,-3.5117 -1,-7.3125 -3.07,-11.3398 -2.03,-4.0117 -5.06,-7.8203 -9.25,-11.4727 -4.13,-3.6172 -9.41,-6.5508 -15.73,-8.75 -6.27,-2.2773 -13.42,-3.3594 -21.25,-3.3594 -16.87,0 -29.97,5.129 -39.39,15.3321 -9.4,10.2265 -14.15,23.8984 -14.15,41.0976 0,11.6525 2.14,21.9685 6.5,30.8785 4.32,8.891 10.5,15.864 18.71,20.723 8.13,4.918 17.93,7.359 29.3,7.359 7.03,0 13.47,-1.101 19.4,-3.218 5.86,-2.172 10.8,-4.953 14.94,-8.313 4.08,-3.41 7.17,-7.039 9.35,-10.859 2.14,-3.84 3.22,-7.442 3.22,-10.77 0,-3.351 -1.18,-6.238 -3.68,-8.609 -2.4,-2.383 -5.33,-3.539 -8.78,-3.539 -2.26,0 -4.13,0.648 -5.6,1.859 -1.52,1.168 -3.18,3.078 -5.07,5.84 -3.32,5.25 -6.77,9.231 -10.39,11.918 -3.62,2.602 -8.22,3.953 -13.82,3.953 -7.98,0 -14.48,-3.332 -19.39,-9.871 -4.96,-6.582 -7.4,-15.539 -7.4,-26.9101 0,-5.3007 0.67,-10.2695 1.88,-14.6992 1.27,-4.5 3.12,-8.2929 5.52,-11.4726 2.38,-3.1485 5.29,-5.5274 8.67,-7.1602 3.33,-1.6601 7.07,-2.4492 11.15,-2.4492 5.43,0 10.12,1.2891 14.01,3.9297 3.86,2.6601 7.33,6.6914 10.32,12.0312 1.67,3.2696 3.43,5.7383 5.38,7.5703 1.9,1.8008 4.23,2.6602 7.07,2.6602 3.27,0 6.07,-1.2813 8.18,-3.9102 2.25,-2.6992 3.37,-5.4726 3.37,-8.4492"
         style="fill:#100f0d;fill-opacity:1;fill-rule:nonzero;stroke:none"
         transform="matrix(0.13333333,0,0,-0.13333333,0,794.2)" />
      <path
         id="path17"
         d="m 2365.75,155.109 h 2.99 v 17.063 c 0,4.539 0.12,8.168 0.37,10.75 0.22,2.609 0.82,4.789 1.94,6.699 1.03,1.91 2.56,3.5 4.59,4.738 1.97,1.18 4.19,1.762 6.65,1.762 3.44,0 6.57,-1.332 9.35,-4.019 1.81,-1.821 3.02,-3.993 3.52,-6.571 0.51,-2.609 0.73,-6.351 0.73,-11.101 v -19.321 h 10 c 3.85,0 6.8,-0.961 8.82,-2.867 2.06,-1.91 3.05,-4.32 3.05,-7.312 0,-3.821 -1.44,-6.532 -4.37,-8.02 -2.87,-1.488 -7.01,-2.269 -12.38,-2.269 h -5.12 V 82.3711 c 0,-4.4492 0.17,-7.8711 0.45,-10.2891 0.35,-2.4101 1.19,-4.3515 2.45,-5.8007 1.26,-1.5 3.37,-2.2696 6.32,-2.2696 1.58,0 3.73,0.2696 6.49,0.8985 2.65,0.5703 4.79,0.8789 6.34,0.8789 2.18,0 4.22,-0.961 5.95,-2.7071 1.72,-1.8906 2.63,-4.1211 2.63,-6.8398 0,-4.5625 -2.35,-8.0625 -7.16,-10.4922 -4.83,-2.4297 -11.69,-3.6406 -20.61,-3.6406 -8.51,0 -14.98,1.5 -19.36,4.4804 -4.36,2.9922 -7.28,7.0821 -8.58,12.4102 -1.4,5.2617 -2.07,12.2891 -2.07,21.0898 v 54.5512 h -3.62 c -3.85,0 -6.84,0.968 -8.92,2.918 -2.07,1.941 -3.08,4.371 -3.08,7.371 0,2.992 1.05,5.402 3.19,7.312 2.19,1.906 5.31,2.867 9.44,2.867"
         style="fill:#100f0d;fill-opacity:1;fill-rule:nonzero;stroke:none"
         transform="matrix(0.13333333,0,0,-0.13333333,0,794.2)" />
      <path
         id="path18"
         d="m 2510.94,99.75 c 0,11.531 -2.46,20.582 -7.31,27.02 -4.93,6.41 -11.43,9.66 -19.69,9.66 -5.33,0 -10,-1.438 -14.02,-4.321 -4.09,-2.918 -7.2,-7.148 -9.38,-12.769 -2.19,-5.559 -3.31,-12.07 -3.31,-19.59 0,-7.4297 1.12,-13.8906 3.27,-19.4102 2.15,-5.5507 5.22,-9.8007 9.23,-12.75 4.01,-2.9414 8.75,-4.3789 14.21,-4.3789 8.26,0 14.76,3.211 19.69,9.6875 4.85,6.4532 7.31,15.4414 7.31,26.8516 z m 27.31,0 c 0,-8.4102 -1.25,-16.2109 -3.82,-23.3984 -2.5,-7.0821 -6.17,-13.2305 -10.93,-18.3828 -4.79,-5.129 -10.52,-8.9688 -17.13,-11.7774 -6.67,-2.7422 -14.09,-4.082 -22.43,-4.082 -8.27,0 -15.68,1.3398 -22.23,4.1523 -6.56,2.7696 -12.28,6.7305 -17.09,11.9102 -4.79,5.1679 -8.45,11.2265 -10.9,18.2578 -2.48,7.082 -3.71,14.8203 -3.71,23.3711 0,8.5902 1.23,16.4492 3.71,23.5582 2.57,7.18 6.15,13.243 10.86,18.332 4.75,5.051 10.44,8.95 17.13,11.68 6.78,2.75 14.16,4.129 22.23,4.129 8.26,0 15.69,-1.379 22.43,-4.168 6.7,-2.762 12.42,-6.75 17.22,-11.871 4.73,-5.121 8.44,-11.262 10.92,-18.332 2.49,-7.051 3.74,-14.848 3.74,-23.379"
         style="fill:#100f0d;fill-opacity:1;fill-rule:nonzero;stroke:none"
         transform="matrix(0.13333333,0,0,-0.13333333,0,794.2)" />
      <path
         id="path19"
         d="M 2586.69,83.0117 V 59.3906 c 0,-5.7617 -1.3,-10.1015 -3.9,-13 -2.6,-2.8203 -5.87,-4.2812 -9.89,-4.2812 -3.87,0 -7.12,1.5 -9.63,4.3515 -2.52,2.9102 -3.76,7.211 -3.76,12.9297 v 78.9884 c 0,12.769 4.39,19.121 13.23,19.121 4.47,0 7.74,-1.508 9.77,-4.461 1.96,-2.98 3.01,-7.391 3.28,-13.199 3.23,5.808 6.61,10.219 10.04,13.199 3.41,2.953 7.95,4.461 13.64,4.461 5.76,0 11.28,-1.508 16.68,-4.461 5.35,-2.98 8.07,-6.949 8.07,-11.848 0,-3.461 -1.18,-6.371 -3.46,-8.589 -2.27,-2.231 -4.75,-3.411 -7.44,-3.411 -0.98,0 -3.4,0.668 -7.21,1.981 -3.85,1.258 -7.22,1.918 -10.16,1.918 -3.93,0 -7.19,-1.051 -9.69,-3.289 -2.53,-2.219 -4.51,-5.41 -5.89,-9.699 -1.4,-4.34 -2.41,-9.43 -2.9,-15.391 -0.51,-5.8907 -0.78,-13.0899 -0.78,-21.6993"
         style="fill:#100f0d;fill-opacity:1;fill-rule:nonzero;stroke:none"
         transform="matrix(0.13333333,0,0,-0.13333333,0,794.2)" />
      <path
         id="path20"
         d="m 2731.55,79.1914 c 0,-7.8516 -1.83,-14.543 -5.52,-20.1211 -3.67,-5.6094 -9.05,-9.7812 -16.2,-12.6914 -7.17,-2.8086 -15.82,-4.2695 -26.1,-4.2695 -9.68,0 -18.1,1.5508 -25.09,4.6992 -6.97,3.1133 -12.13,6.9805 -15.42,11.6523 -3.36,4.6602 -5.07,9.3594 -5.07,14.0508 0,3.1172 1.09,5.7969 3.27,8.0078 2.11,2.2696 4.82,3.3203 8.03,3.3203 2.87,0 5.1,-0.7382 6.61,-2.1484 1.52,-1.5391 2.95,-3.543 4.38,-6.1797 2.79,-5.0703 6.11,-8.8398 10.05,-11.3398 3.82,-2.5235 9.12,-3.7617 15.89,-3.7617 5.42,0 9.89,1.2812 13.39,3.8086 3.47,2.5312 5.26,5.4101 5.26,8.6796 0,5.0235 -1.83,8.6719 -5.43,10.9336 -3.67,2.3399 -9.6,4.5078 -17.9,6.5782 -9.35,2.4296 -17,4.9804 -22.89,7.6211 -5.87,2.6877 -10.62,6.2307 -14.11,10.5977 -3.52,4.293 -5.31,9.703 -5.31,16.082 0,5.719 1.64,11.09 4.9,16.121 3.23,5.066 8.11,9.098 14.43,12.117 6.32,3.043 13.97,4.551 22.98,4.551 7.01,0 13.33,-0.781 18.98,-2.301 5.59,-1.508 10.34,-3.578 14.03,-6.109 3.75,-2.578 6.64,-5.418 8.59,-8.52 1.99,-3.148 2.95,-6.199 2.95,-9.16 0,-3.269 -1.02,-5.879 -3.16,-8.051 -2.1,-2 -5.1,-3.05 -8.89,-3.05 -2.82,0 -5.18,0.82 -7.18,2.523 -1.92,1.637 -4.19,4.117 -6.7,7.398 -2.06,2.782 -4.47,5.02 -7.29,6.68 -2.79,1.629 -6.57,2.5 -11.33,2.5 -4.93,0 -9.05,-1.078 -12.24,-3.289 -3.28,-2.172 -4.92,-4.91 -4.92,-8.172 0,-2.988 1.21,-5.429 3.56,-7.328 2.42,-1.91 5.63,-3.492 9.7,-4.75 4.08,-1.25 9.64,-2.801 16.75,-4.59 8.45,-2.133 15.32,-4.672 20.68,-7.679 5.34,-2.954 9.38,-6.4926 12.14,-10.5434 2.8,-4.0898 4.18,-8.707 4.18,-13.8672"
         style="fill:#100f0d;fill-opacity:1;fill-rule:nonzero;stroke:none"
         transform="matrix(0.13333333,0,0,-0.13333333,0,794.2)" />
      <path
         id="path21"
         d="m 2762.43,42.1094 c -4.12,0 -7.69,1.3398 -10.64,4.1523 -3.04,2.7696 -4.51,6.668 -4.51,11.6172 0,4.2109 1.4,7.8594 4.23,10.9219 2.86,3.039 6.41,4.5312 10.59,4.5312 4.16,0 7.75,-1.4922 10.64,-4.5234 3,-2.9688 4.48,-6.6797 4.48,-10.9297 0,-4.9101 -1.48,-8.7695 -4.48,-11.5781 -2.89,-2.7891 -6.34,-4.1914 -10.31,-4.1914"
         style="fill:#100f0d;fill-opacity:1;fill-rule:nonzero;stroke:none"
         transform="matrix(0.13333333,0,0,-0.13333333,0,794.2)" />
      <path
         id="path22"
         d="m 2882.68,99.75 c 0,11.531 -2.45,20.582 -7.33,27.02 -4.89,6.41 -11.42,9.66 -19.65,9.66 -5.32,0 -9.95,-1.438 -14.03,-4.321 -4.06,-2.918 -7.17,-7.148 -9.35,-12.769 -2.17,-5.559 -3.28,-12.07 -3.28,-19.59 0,-7.4297 1.04,-13.8906 3.19,-19.4102 2.23,-5.5507 5.27,-9.8007 9.31,-12.75 4,-2.9414 8.72,-4.3789 14.16,-4.3789 8.23,0 14.76,3.211 19.65,9.6875 4.88,6.4532 7.33,15.4414 7.33,26.8516 z m 27.32,0 c 0,-8.4102 -1.25,-16.2109 -3.8,-23.3984 -2.54,-7.0821 -6.16,-13.2305 -10.95,-18.3828 -4.83,-5.129 -10.47,-8.9688 -17.13,-11.7774 -6.62,-2.7422 -14.09,-4.082 -22.42,-4.082 -8.22,0 -15.63,1.3398 -22.2,4.1523 -6.58,2.7696 -12.25,6.7305 -17.05,11.9102 -4.89,5.1679 -8.52,11.2265 -11.03,18.2578 -2.45,7.082 -3.7,14.8203 -3.7,23.3711 0,8.5902 1.25,16.4492 3.79,23.5582 2.57,7.18 6.14,13.243 10.82,18.332 4.72,5.051 10.44,8.95 17.17,11.68 6.7,2.75 14.05,4.129 22.2,4.129 8.23,0 15.7,-1.379 22.42,-4.168 6.74,-2.762 12.46,-6.75 17.26,-11.871 4.74,-5.121 8.37,-11.262 10.89,-18.332 2.48,-7.051 3.73,-14.848 3.73,-23.379"
         style="fill:#100f0d;fill-opacity:1;fill-rule:nonzero;stroke:none"
         transform="matrix(0.13333333,0,0,-0.13333333,0,794.2)" />
      <path
         id="path23"
         d="M 2958.44,83.0117 V 59.3906 c 0,-5.7617 -1.3,-10.1015 -3.88,-13 -2.55,-2.8203 -5.88,-4.2812 -9.84,-4.2812 -3.96,0 -7.15,1.5 -9.69,4.3515 -2.55,2.9102 -3.79,7.211 -3.79,12.9297 v 78.9884 c 0,12.769 4.47,19.121 13.26,19.121 4.52,0 7.75,-1.508 9.73,-4.461 1.97,-2.98 3.13,-7.391 3.36,-13.199 3.2,5.808 6.53,10.219 9.94,13.199 3.44,2.953 8.01,4.461 13.68,4.461 5.81,0 11.34,-1.508 16.67,-4.461 5.38,-2.98 8.09,-6.949 8.09,-11.848 0,-3.461 -1.15,-6.371 -3.43,-8.589 -2.31,-2.231 -4.74,-3.411 -7.47,-3.411 -0.95,0 -3.35,0.668 -7.16,1.981 -3.84,1.258 -7.21,1.918 -10.16,1.918 -3.96,0 -7.19,-1.051 -9.79,-3.289 -2.48,-2.219 -4.44,-5.41 -5.86,-9.699 -1.35,-4.34 -2.33,-9.43 -2.85,-15.391 -0.52,-5.8907 -0.81,-13.0899 -0.81,-21.6993"
         style="fill:#100f0d;fill-opacity:1;fill-rule:nonzero;stroke:none"
         transform="matrix(0.13333333,0,0,-0.13333333,0,794.2)" />
      <path
         id="path24"
         d="m 3036.96,100.73 c 0,-11.4878 2.42,-20.1987 7.25,-26.1206 4.78,-5.8477 11.05,-8.8203 18.64,-8.8203 4.49,0 8.82,1.3007 12.81,3.832 4.02,2.5273 7.29,6.3398 9.82,11.4375 2.56,5.1133 3.78,11.2617 3.78,18.5312 0,11.5822 -2.46,20.5702 -7.33,27.0002 -4.86,6.5 -11.3,9.75 -19.26,9.75 -7.74,0 -13.98,-3.16 -18.65,-9.289 -4.71,-6.199 -7.06,-14.949 -7.06,-26.321 z m 78.84,35.989 V 54.25 c 0,-9.4609 -1.04,-17.5586 -2.92,-24.3086 -1.94,-6.832 -5.01,-12.4414 -9.26,-16.8711 -4.25,-4.42186 -9.85,-7.71092 -16.67,-9.85936 C 3080.06,1.10156 3071.5,0 3061.28,0 c -9.38,0 -17.77,1.33203 -25.09,4.07031 -7.4,2.80078 -13.09,6.30079 -17.05,10.66019 -3.99,4.289 -6,8.75 -6,13.3515 0,3.4766 1.1,6.2774 3.43,8.4571 2.22,2.2304 4.96,3.3203 8.13,3.3203 4.01,0 7.44,-1.8594 10.49,-5.5078 1.47,-1.9297 2.99,-3.8008 4.5,-5.6797 1.56,-1.9219 3.3,-3.5899 5.18,-4.9102 1.91,-1.3828 4.21,-2.3828 6.86,-3.0429 2.6,-0.6602 5.71,-0.9883 9.17,-0.9883 6.99,0 12.51,1.0508 16.37,3.0703 3.89,2.039 6.62,4.8984 8.2,8.5586 1.49,3.6797 2.49,7.6015 2.65,11.789 0.32,4.2813 0.51,10.9532 0.69,20.2813 -4.18,-6.0899 -9.09,-10.7383 -14.51,-13.918 -5.48,-3.2109 -12.03,-4.7617 -19.54,-4.7617 -9.18,0 -17.13,2.3789 -23.89,7.2695 -6.84,4.8399 -12.08,11.6211 -15.72,20.3789 -3.6,8.711 -5.48,18.793 -5.48,30.2306 0,8.582 1.1,16.281 3.36,23.152 2.18,6.821 5.33,12.617 9.52,17.34 4.08,4.719 8.85,8.281 14.22,10.68 5.41,2.359 11.25,3.578 17.76,3.578 7.66,0 14.33,-1.559 19.97,-4.668 5.72,-3.039 10.91,-7.941 15.77,-14.481 v 3.801 c 0,4.957 1.2,8.739 3.49,11.52 2.3,2.668 5.32,4.031 8.95,4.031 5.26,0 8.75,-1.762 10.5,-5.34 1.7,-3.582 2.59,-8.781 2.59,-15.523"
         style="fill:#100f0d;fill-opacity:1;fill-rule:nonzero;stroke:none"
         transform="matrix(0.13333333,0,0,-0.13333333,0,794.2)" />
      <path
         id="path25"
         d="m 1937.09,413.102 h 40.34 c -2.85,-21.75 -11.76,-38.723 -26.59,-50.942 -13.71,-11.969 -30.32,-17.871 -49.72,-17.871 -26.35,0 -47.37,9.262 -63.07,27.731 -14.88,17.562 -22.3,40.25 -22.3,67.96 0,28.391 7.37,51.09 22.08,68.282 14.71,17.117 35.5,25.718 62.39,25.718 19.99,0 36.91,-5.41 50.62,-16.14 14.55,-11.598 23.44,-27.899 26.59,-48.77 h -40.34 c -3.49,18.211 -14.6,27.262 -33.52,27.262 -31.17,0 -46.79,-18.461 -46.79,-55.422 0,-17.32 4.02,-31.449 12.03,-42.461 8.02,-11.058 19.32,-16.59 33.9,-16.59 21.74,0 33.21,10.43 34.38,31.243 z m -158.79,25.449 c 0,-36.102 11.45,-66.66 34.3,-91.563 22.9,-24.898 50.91,-37.359 84.15,-37.359 33.1,0 61.14,12.461 83.99,37.359 22.92,24.903 34.29,55.461 34.29,91.563 0,36.07 -11.37,66.609 -34.29,91.508 -22.85,24.953 -50.89,37.39 -83.99,37.39 -33.24,0 -61.25,-12.437 -84.15,-37.39 -22.85,-24.899 -34.3,-55.438 -34.3,-91.508 z m -40.99,0 c 0,45.937 15.56,85.148 46.66,117.711 31.16,32.519 68.76,48.789 112.78,48.789 43.92,0 81.47,-16.27 112.65,-48.789 31.13,-32.563 46.73,-71.774 46.73,-117.711 0,-45.981 -15.6,-85.242 -46.73,-117.742 -31.18,-32.547 -68.73,-48.829 -112.65,-48.829 -44.02,0 -81.62,16.282 -112.78,48.829 -31.1,32.5 -46.66,71.761 -46.66,117.742"
         style="fill:#100f0d;fill-opacity:1;fill-rule:nonzero;stroke:none"
         transform="matrix(0.13333333,0,0,-0.13333333,0,794.2)" />
      <path
         id="path26"
         d="m 1801.82,334.129 23.26,-19.731 170.95,219.532 -23.24,19.699 -170.97,-219.5"
         style="fill:#100f0d;fill-opacity:1;fill-rule:nonzero;stroke:none"
         transform="matrix(0.13333333,0,0,-0.13333333,0,794.2)" />
      <path
         id="path27"
         d="M 0,5297.39 H 138.879 V 1529.94 H 0 Z m 3425.96,0 h 138.87 V 1529.94 h -138.87 v 3767.45 0"
         style="fill:#d69ca2;fill-opacity:1;fill-rule:evenodd;stroke:none"
         transform="matrix(0.13333333,0,0,-0.13333333,0,794.2)" />
      <path
         id="path28"
         d="m 0,5956.46 v -697.12 c 898.906,-438.45 2665.92,-438.45 3564.83,0 v 697.12 C 2665.92,5518.03 898.906,5518.03 0,5956.46"
         style="fill:#e61d2b;fill-opacity:1;fill-rule:evenodd;stroke:none"
         transform="matrix(0.13333333,0,0,-0.13333333,0,794.2)" />
      <path
         id="path29"
         d="m 2213.53,1374.14 21.36,-58.23 c 40.02,-109.18 35.84,-229.65 -11.64,-335.762 -13.42,-29.976 -40.02,-52.007 -71.96,-59.609 -31.94,-7.598 -65.6,0.063 -91.09,20.781 -56.14,45.649 -91.21,112.25 -97.04,184.4 -3.29,40.74 2,81.74 15.54,120.31 10.6,30.27 9.92,63.36 -1.96,93.16 -18.8,47.21 -6.62,101.16 30.66,135.71 37.27,34.55 91.95,42.63 137.62,20.31 45.66,-22.34 72.9,-70.45 68.51,-121.07"
         style="fill:#1d1413;fill-opacity:1;fill-rule:evenodd;stroke:none"
         transform="matrix(0.13333333,0,0,-0.13333333,0,794.2)" />
      <path
         id="path30"
         d="m 1454.48,2053.96 -6.22,-61.72 c -11.66,-115.66 22.31,-231.33 94.66,-322.34 20.44,-25.71 51.67,-40.45 84.5,-39.89 32.83,0.57 63.54,16.37 83.07,42.76 43.06,58.16 60.48,131.4 48.22,202.71 -6.93,40.3 -22.24,78.69 -44.93,112.72 -17.8,26.68 -25.34,58.9 -21.25,90.72 6.5,50.41 -18.69,99.61 -63.38,123.83 -44.69,24.22 -99.67,18.46 -138.36,-14.51 -38.69,-32.95 -53.12,-86.33 -36.31,-134.28"
         style="fill:#1d1413;fill-opacity:1;fill-rule:evenodd;stroke:none"
         transform="matrix(0.13333333,0,0,-0.13333333,0,794.2)" />
      <path
         id="path31"
         d="m 2150.21,2950.07 133.82,-1440.72 c 10.43,-112.27 -71.15,-212.09 -183.22,-224.3 -112.09,-12.18 -213.21,67.82 -227.14,179.71 l -151.65,1405.02 428.19,80.29"
         style="fill:#461e20;fill-opacity:1;fill-rule:evenodd;stroke:none"
         transform="matrix(0.13333333,0,0,-0.13333333,0,794.2)" />
      <path
         id="path32"
         d="m 1457.53,3534.29 -133.81,-1440.7 c -10.42,-112.27 71.14,-212.11 183.22,-224.3 112.08,-12.19 213.2,67.81 227.14,179.69 l 151.65,1405.02 -428.2,80.29"
         style="fill:#461e20;fill-opacity:1;fill-rule:evenodd;stroke:none"
         transform="matrix(0.13333333,0,0,-0.13333333,0,794.2)" />
      <path
         id="path33"
         d="m 2161.7,3291.94 8.93,-251.55 c 7.21,-167.82 -173.93,-367.58 -341.15,-383.52 l -47.06,207.4 -47.07,-207.4 c -167.22,15.94 -348.36,215.7 -341.15,383.52 l 8.92,251.55 15.63,660.14 231.66,44.68 28.68,62.45 h 103.33 103.31 l 28.69,-62.45 231.67,-44.68 15.61,-660.14"
         style="fill:#f8d4d9;fill-opacity:1;fill-rule:evenodd;stroke:none"
         transform="matrix(0.13333333,0,0,-0.13333333,0,794.2)" />
      <path
         id="path34"
         d="m 1914.42,3996.76 284.78,153.88 54.59,-82.51 c 100.56,-151.96 81.9,-359.34 -45.58,-506.26 l -18.49,-370.21 c -9.78,-196 -168.54,-361.92 -364.93,-381.37 l 18.96,278.77 c 8.79,129.33 53.74,256.06 129.71,365.75 123.63,178.56 98.16,412.49 -59.04,541.95 z m -264,0 -284.79,153.88 -54.59,-82.51 c -100.56,-151.96 -81.89,-359.34 45.58,-506.26 l 18.49,-370.21 c 9.79,-196 168.55,-361.92 364.93,-381.37 l -18.96,278.77 c -8.8,129.33 -53.73,256.06 -129.7,365.75 -123.65,178.56 -98.16,412.49 59.04,541.95 v 0"
         style="fill:#612a2e;fill-opacity:1;fill-rule:evenodd;stroke:none"
         transform="matrix(0.13333333,0,0,-0.13333333,0,794.2)" />
      <path
         id="path35"
         d="m 1396.58,4106.04 c -240.89,159.41 -405.521,313.13 -526.322,584.33 -141.567,0 -252.153,-60.69 -321.153,-178.42 84.34,-455.07 538.395,-840.06 901.005,-810.65 z m 771.67,0 c 240.9,159.41 405.5,313.13 526.33,584.33 141.56,0 252.14,-60.69 321.15,-178.42 -84.36,-455.07 -538.4,-840.06 -901.01,-810.65 l 53.53,404.74 v 0"
         style="fill:#612a2e;fill-opacity:1;fill-rule:evenodd;stroke:none"
         transform="matrix(0.13333333,0,0,-0.13333333,0,794.2)" />
      <path
         id="path36"
         d="m 1759.99,3854.56 -33.29,22.56 25.45,80.51 h 60.53 l 29.7,-75.32 -33.9,-27.75 c 0,-284.73 44.55,-578.49 -156.51,-811.15 -111.21,-128.69 -197.64,-276.85 -254.92,-437.01 l -294.66,-102.64 19.86,304.59 43.04,66.23 c 78.25,120.38 180.89,223.01 301.28,301.28 222.39,144.56 300.41,417.03 293.42,678.7"
         style="fill:#1d1413;fill-opacity:1;fill-rule:evenodd;stroke:none"
         transform="matrix(0.13333333,0,0,-0.13333333,0,794.2)" />
      <path
         id="path37"
         d="m 840.648,4672 c -62.164,-85.37 -154.156,-143.93 -256.964,-164.5 -5.621,20.06 -10.414,40.34 -14.204,60.82 54.524,93.01 141.891,140.96 253.747,140.96 5.683,-12.75 11.496,-25.16 17.421,-37.28"
         style="fill:#f8d4d9;fill-opacity:1;fill-rule:evenodd;stroke:none"
         transform="matrix(0.13333333,0,0,-0.13333333,0,794.2)" />
      <path
         id="path38"
         d="m 756.078,4642.71 14.777,26.3 c 24.489,41.4 30.321,91.21 16.055,137.15 -16.676,53.71 -20.285,78.12 7.61,126.95 13.582,23.78 -26.344,27.89 -63.09,-1.08 -19.746,-15.57 -3.774,-62.1 -32.012,-101.49 -80.867,51.33 -163.984,144.22 -224.512,178.09 -20.035,11.19 -49.652,-0.79 -24.754,-33.41 25.715,-33.68 69.922,-62.49 95.496,-104.88 l -3.734,-4.04 c -37.457,18.21 -71.598,49.55 -120.719,77.31 -36.761,20.78 -68.793,-9.02 -29.218,-52.63 -16.024,-3.96 -26.184,-22.87 -19.754,-38.29 13.015,-31.23 94.918,-91.91 137.648,-113.39 l -5.508,-15.82 c -26.023,4.1 -53.113,24.53 -85.89,30.48 -57.043,10.38 -64.578,-23.79 -17.782,-48.23 25.661,-13.4 68.512,-28.32 97.918,-37.83 39.731,-26.19 62.274,-28.97 102.5,-54.32 51.856,-32.68 118.289,-19.58 154.969,29.13"
         style="fill:#f1485f;fill-opacity:1;fill-rule:evenodd;stroke:none"
         transform="matrix(0.13333333,0,0,-0.13333333,0,794.2)" />
      <path
         id="path39"
         d="m 2724.18,4672 c 62.17,-85.37 154.15,-143.93 256.98,-164.5 5.6,20.06 10.39,40.34 14.2,60.82 -54.53,93.01 -141.92,140.96 -253.75,140.96 -5.69,-12.75 -11.49,-25.16 -17.43,-37.28"
         style="fill:#f8d4d9;fill-opacity:1;fill-rule:evenodd;stroke:none"
         transform="matrix(0.13333333,0,0,-0.13333333,0,794.2)" />
      <path
         id="path40"
         d="m 2808.75,4642.71 -14.78,26.3 c -24.49,41.4 -30.31,91.21 -16.05,137.15 16.67,53.71 20.29,78.12 -7.62,126.95 -13.56,23.78 26.37,27.89 63.1,-1.08 19.75,-15.57 3.77,-62.1 32.02,-101.49 80.85,51.33 163.98,144.22 224.51,178.09 20.04,11.19 49.65,-0.79 24.74,-33.41 -25.7,-33.68 -69.92,-62.49 -95.49,-104.88 l 3.74,-4.04 c 37.44,18.21 71.6,49.55 120.72,77.31 36.76,20.78 68.79,-9.02 29.22,-52.63 16.01,-3.96 26.19,-22.87 19.74,-38.29 -13.01,-31.23 -94.92,-91.91 -137.63,-113.39 l 5.5,-15.82 c 26.04,4.1 53.11,24.53 85.88,30.48 57.05,10.38 64.59,-23.79 17.8,-48.23 -25.67,-13.4 -68.52,-28.32 -97.93,-37.83 -39.73,-26.19 -62.29,-28.97 -102.5,-54.32 -51.86,-32.68 -118.29,-19.58 -154.97,29.13"
         style="fill:#f1485f;fill-opacity:1;fill-rule:evenodd;stroke:none"
         transform="matrix(0.13333333,0,0,-0.13333333,0,794.2)" />
      <path
         id="path41"
         d="m 503.539,3435.71 c 222.559,122.97 416.051,-96.4 484.566,-297.34 163.215,-478.69 998.225,-606.42 1308.205,-190.43 81.68,109.63 99.65,198.13 102.95,273.89 v 95.07 c 0,108.34 19.78,192.47 276.25,289.45 84.2,31.83 249.48,1.76 333.01,-100.97 v -214.76 c -83.53,102.72 -248.81,132.79 -333.01,100.96 -233.1,-88.15 -270.68,-165.69 -275.6,-260.43 v -90.94 c 0,-82.91 -9.71,-181.04 -103.6,-307.03 -309.98,-416.02 -1144.99,-288.26 -1308.205,190.41 -68.515,200.96 -262.007,420.32 -484.566,297.35 v 214.77"
         style="fill:#e61d2b;fill-opacity:1;fill-rule:evenodd;stroke:none"
         transform="matrix(0.13333333,0,0,-0.13333333,0,794.2)" />
      <path
         id="path42"
         d="m 2579.69,5273.94 c -48.73,-6.73 -97.52,-12.87 -146.36,-18.56 v -147.3 l -15.64,-1.68 c -19.81,-2.12 -39.64,-4.26 -59.44,-6.4 l -19.37,-2.08 v 19.48 c 0,57.59 0,115.18 0,172.76 0,57.59 0,115.18 0,172.77 v 15.8 l 15.71,1.6 c 19.82,2.01 39.61,4.02 59.42,6.1 l 19.32,2.02 v -151.84 c 48.84,5.68 97.63,11.81 146.36,18.51 v 151.42 l 15.04,2.13 c 19.88,2.82 39.77,5.65 59.67,8.44 l 19.92,2.81 v -20.12 c 0,-57.22 0,-114.43 0,-171.64 0,-57.2 0,-114.39 0,-171.59 v -15.02 l -14.86,-2.28 c -19.88,-3.04 -39.79,-6.04 -59.67,-9.04 l -20.1,-3.01 z m -297.09,137.69 c -11.27,-13.7 -22.48,-27.45 -33.67,-41.22 l -9.1,-11.19 -12.74,6.8 c -13.88,7.44 -28.59,13.38 -43.96,16.95 -14.18,3.3 -28.53,4.6 -43.07,3.73 -19.08,-1.18 -42.9,-4.54 -59.37,-15 -10.07,-6.4 -15.84,-14.46 -15.84,-26.82 0,-6.09 1.2,-11.11 6.37,-14.65 8.53,-5.82 19.55,-8.94 29.61,-10.65 15.69,-2.67 31.52,-4.7 47.36,-6.23 15.96,-1.54 31.83,-3.72 47.65,-6.3 16.12,-2.61 31.9,-7.12 46.82,-13.78 15.43,-6.89 28.2,-17.26 37.84,-31.12 11.17,-16.06 14.67,-35.75 14.67,-55.34 0,-38.42 -16.96,-69.38 -48,-91.8 -35.21,-25.44 -81.48,-34.63 -124.04,-37.3 -20.55,-1.29 -41.13,-0.58 -61.54,2.02 -18.64,2.38 -37.06,6.38 -54.77,12.72 -17.05,6.11 -33.08,14.37 -48.17,24.37 l -17.51,11.6 14.57,15.13 c 12.34,12.8 24.74,25.53 37.12,38.29 l 10.11,10.42 12.1,-8.02 c 14.67,-9.71 30.8,-16.63 47.88,-20.84 19.04,-4.69 38.49,-6.21 58.06,-5.04 20.6,1.23 45.33,5.1 63.18,16.16 9.99,6.21 17.08,13.98 17.08,26.4 0,5.76 -1,11.82 -5.84,15.49 -7.37,5.59 -17.31,8.48 -26.27,10.09 -14.47,2.61 -29.22,4.1 -43.87,5.21 -16.47,1.24 -32.87,3.25 -49.22,5.56 -16.91,2.37 -33.58,6.69 -49.34,13.37 -16.37,6.96 -29.88,17.79 -40.15,32.31 -11.92,16.87 -15.63,37.89 -15.63,58.42 0,37.93 15.88,68.49 46.62,90.64 34.18,24.65 79.2,33.08 120.46,35.42 23.82,1.36 47.84,-0.17 71.2,-5.05 23.65,-4.95 46.49,-12.99 67.93,-24.08 l 19.26,-9.95 -13.79,-16.72 z m -375.49,25.21 c 0,-57.82 0,-115.64 0,-173.47 0,-57.82 0,-115.64 0,-173.48 v -17.34 l -17.36,-0.15 c -19.79,-0.17 -39.61,-0.33 -59.41,-0.54 l -17.68,-0.18 v 17.68 c 0,57.82 0,115.64 0,173.47 0,57.82 0,115.64 0,173.46 v 17.35 l 17.34,0.15 c 19.81,0.17 39.62,0.34 59.44,0.55 l 17.67,0.18 v -17.68 z M 1648.8,5229.77 v 69.96 c 0,45.73 0,91.47 0,137.2 v 17.72 l 17.72,-0.23 c 19.61,-0.25 39.24,-0.42 58.85,-0.59 l 17.35,-0.14 v -17.35 c 0,-57.79 0,-115.56 0,-173.35 0,-57.75 0,-115.51 0,-173.26 v -17.65 l -17.65,0.15 c -18.19,0.17 -36.37,0.34 -54.57,0.5 l -8.54,0.09 -5.19,6.77 c -34.44,45 -69.01,89.9 -103.37,134.96 -21.73,28.5 -43.35,57.09 -64.95,85.68 v -67.67 c 0,-44.99 0,-89.98 0,-134.97 v -18.33 l -18.31,0.86 c -19.78,0.92 -39.52,2.17 -59.28,3.49 l -16.33,1.08 v 16.37 c 0,57.67 0,115.35 0,173.01 0,57.69 0,115.37 0,173.05 v 18.64 l 18.59,-1.17 c 17.86,-1.13 35.7,-2.25 53.57,-3.09 l 8.28,-0.38 4.95,-6.64 c 34.42,-46.2 68.84,-92.41 103.47,-138.46 21.69,-28.84 43.55,-57.55 65.41,-86.25 z m -324.21,224.59 c 0,-57.66 0,-115.32 0,-172.97 0,-57.65 0,-115.29 0,-172.94 v -19.06 l -19,1.63 c -19.84,1.71 -39.68,3.43 -59.51,5.19 l -15.95,1.42 v 16.01 c 0,57.6 0,115.2 0,172.81 0,57.59 0,115.19 0,172.79 v 18.96 l 18.9,-1.52 c 19.83,-1.59 39.65,-3.26 59.49,-4.89 l 16.07,-1.31 v -16.12 z M 984.965,5425.5 v -72.08 c 53.185,-7.36 106.465,-14.03 159.785,-20.29 l 15.45,-1.82 v -15.57 c 0,-15.33 0,-30.67 0,-46.01 v -19.69 l -19.56,2.3 c -51.95,6.16 -103.85,12.7 -155.675,19.87 v -144.97 l -20.106,3.04 c -19.816,3 -39.625,6.01 -59.449,8.99 l -14.89,2.25 v 15.05 c 0,57.2 0,114.39 0,171.59 0,57.21 0,114.42 0,171.64 v 20.17 l 49.007,-7.02 c 78.813,-11.28 157.893,-20.68 237.063,-29.24 l 15.61,-1.69 v -15.7 c 0,-15.36 0,-30.72 0,-46.07 v -19.49 l -19.38,2.09 c -62.71,6.78 -125.34,14.26 -187.855,22.65 v 0"
         style="fill:#fefefd;fill-opacity:1;fill-rule:evenodd;stroke:none"
         transform="matrix(0.13333333,0,0,-0.13333333,0,794.2)" />
      <path
         id="path43"
         d="m 1675.65,4323.36 h 213.16 v -280.51 l -106.57,-67.69 -106.59,67.69 v 280.51"
         style="fill:#ef2e3e;fill-opacity:1;fill-rule:evenodd;stroke:none"
         transform="matrix(0.13333333,0,0,-0.13333333,0,794.2)" />
      <path
         id="path44"
         d="m 1563.75,4421.53 c -27.77,-7.83 -41.04,-47.03 -29.61,-87.55 11.43,-40.51 43.2,-67.01 70.98,-59.18 27.77,7.83 41.04,47.04 29.61,87.55 -11.41,40.52 -43.2,67.01 -70.98,59.18 z m 436.97,0 c 27.78,-7.83 41.04,-47.03 29.62,-87.55 -11.43,-40.51 -43.21,-67.01 -70.98,-59.18 -27.77,7.83 -41.03,47.04 -29.62,87.55 11.42,40.52 43.21,67.01 70.98,59.18 v 0"
         style="fill:#ef2e3e;fill-opacity:1;fill-rule:evenodd;stroke:none"
         transform="matrix(0.13333333,0,0,-0.13333333,0,794.2)" />
      <path
         id="path45"
         d="m 1569.12,4536.61 h 426.24 V 4241.8 c 0,-117.21 -95.9,-213.11 -213.13,-213.11 v 0 c -117.21,0 -213.11,95.9 -213.11,213.11 v 294.81"
         style="fill:#f1485f;fill-opacity:1;fill-rule:evenodd;stroke:none"
         transform="matrix(0.13333333,0,0,-0.13333333,0,794.2)" />
      <path
         id="path46"
         d="m 1860.5,4166.79 c -2.16,-41.22 -36.54,-74.26 -78.26,-74.26 v 0 c -41.72,0 -76.11,33.04 -78.26,74.26 h 156.52"
         style="fill:#ffffff;fill-opacity:1;fill-rule:evenodd;stroke:none"
         transform="matrix(0.13333333,0,0,-0.13333333,0,794.2)" />
      <path
         id="path47"
         d="m 1995.36,4335.07 42.35,190.59 c 61.35,276.07 -569.57,263.84 -510.94,0 l 42.35,-190.59 11.84,162.59 c 45.3,-17.31 93.39,-26.19 141.88,-26.19 h 59.4 59.4 c 48.5,0 96.57,8.88 141.88,26.19 l 11.84,-162.59"
         style="fill:#1d1413;fill-opacity:1;fill-rule:evenodd;stroke:none"
         transform="matrix(0.13333333,0,0,-0.13333333,0,794.2)" />
      <path
         id="path48"
         d="m 1825.94,4390.61 v 35.29 l 73.69,-6.58 c 16.16,-1.45 31.21,-8.85 42.21,-20.77 l -16.6,-19.7 c -5.51,3.85 -11.97,6.12 -18.68,6.55 l -80.62,5.21"
         style="fill:#1d1413;fill-opacity:1;fill-rule:evenodd;stroke:none"
         transform="matrix(0.13333333,0,0,-0.13333333,0,794.2)" />
      <path
         id="path49"
         d="m 1864.17,4292.32 c 16.29,0 29.58,16.1 29.58,35.82 0,19.73 -13.29,35.82 -29.58,35.82 -16.29,0 -29.58,-16.09 -29.58,-35.82 0,-19.72 13.29,-35.82 29.58,-35.82"
         style="fill:#1d1413;fill-opacity:1;fill-rule:evenodd;stroke:none"
         transform="matrix(0.13333333,0,0,-0.13333333,0,794.2)" />
      <path
         id="path50"
         d="m 1738.54,4390.61 v 35.29 l -73.7,-6.58 c -16.16,-1.45 -31.2,-8.85 -42.21,-20.77 l 16.61,-19.7 c 5.51,3.85 11.97,6.12 18.68,6.55 l 80.62,5.21"
         style="fill:#1d1413;fill-opacity:1;fill-rule:evenodd;stroke:none"
         transform="matrix(0.13333333,0,0,-0.13333333,0,794.2)" />
      <path
         id="path51"
         d="m 1700.32,4292.32 c 16.3,0 29.58,16.1 29.58,35.82 0,19.73 -13.28,35.82 -29.58,35.82 -16.3,0 -29.59,-16.09 -29.59,-35.82 0,-19.72 13.29,-35.82 29.59,-35.82"
         style="fill:#1d1413;fill-opacity:1;fill-rule:evenodd;stroke:none"
         transform="matrix(0.13333333,0,0,-0.13333333,0,794.2)" />
      <path
         id="path52"
         d="m 1782.24,4226.05 c 21.43,0 38.81,5.7 38.81,-0.44 0,-6.13 -17.38,-40.66 -38.81,-40.66 -21.44,0 -38.82,34.53 -38.82,40.66 0,6.14 17.38,0.44 38.82,0.44"
         style="fill:#ef2e3e;fill-opacity:1;fill-rule:evenodd;stroke:none"
         transform="matrix(0.13333333,0,0,-0.13333333,0,794.2)" />
    </g>
  </g>
</svg>
