<?xml version="1.0" encoding="UTF-8" standalone="no"?>
<!-- Created with Inkscape (http://www.inkscape.org/) -->

<svg
   version="1.1"
   id="svg1"
   width="700.69336"
   height="826.26666"
   viewBox="0 0 700.69336 826.26666"
   sodipodi:docname="business-ideas-development.svg"
   inkscape:version="1.3.2 (091e20ef0f, 2023-11-25, custom)"
   xmlns:inkscape="http://www.inkscape.org/namespaces/inkscape"
   xmlns:sodipodi="http://sodipodi.sourceforge.net/DTD/sodipodi-0.dtd"
   xmlns="http://www.w3.org/2000/svg"
   xmlns:svg="http://www.w3.org/2000/svg">
  <defs
     id="defs1" />
  <sodipodi:namedview
     id="namedview1"
     pagecolor="#505050"
     bordercolor="#ffffff"
     borderopacity="1"
     inkscape:showpageshadow="0"
     inkscape:pageopacity="0"
     inkscape:pagecheckerboard="1"
     inkscape:deskcolor="#d1d1d1"
     inkscape:zoom="0.91480816"
     inkscape:cx="350.34668"
     inkscape:cy="413.20139"
     inkscape:window-width="1920"
     inkscape:window-height="1002"
     inkscape:window-x="0"
     inkscape:window-y="0"
     inkscape:window-maximized="1"
     inkscape:current-layer="g1">
    <inkscape:page
       x="0"
       y="0"
       inkscape:label="1"
       id="page1"
       width="700.69336"
       height="826.26666"
       margin="0"
       bleed="0" />
  </sodipodi:namedview>
  <g
     id="g1"
     inkscape:groupmode="layer"
     inkscape:label="1">
    <g
       id="group-R5">
      <path
         id="path2"
         d="m 1489.41,100.27 c 0,7.519 -1.07,14 -3.3,19.3 -2.16,5.391 -5.2,9.539 -9.1,12.469 -3.89,2.84 -8.18,4.301 -12.92,4.301 -7.49,0 -13.83,-3.16 -18.99,-9.289 -5.15,-6.211 -7.73,-15.262 -7.73,-27.2619 0,-11.3164 2.58,-20.1094 7.65,-26.3086 5.16,-6.3086 11.52,-9.4688 19.07,-9.4688 4.51,0 8.73,1.3672 12.59,4.1485 3.8,2.7304 6.9,6.832 9.24,12.2617 2.35,5.5273 3.49,12.0976 3.49,19.8481 z m -53.31,41.371 v -3.411 c 5.11,6.54 10.4,11.442 15.91,14.481 5.53,3.098 11.81,4.668 18.8,4.668 8.35,0 16.06,-2.27 23.1,-6.777 7.03,-4.512 12.58,-11.063 16.7,-19.77 4.08,-8.68 6.08,-18.91 6.08,-30.781 0,-8.7112 -1.13,-16.8322 -3.5,-24.0393 -2.35,-7.3203 -5.6,-13.5117 -9.7,-18.4492 -4.12,-4.9531 -9.03,-8.793 -14.6,-11.4219 -5.64,-2.7187 -11.69,-4.0312 -18.08,-4.0312 -7.82,0 -14.35,1.6211 -19.62,4.8906 -5.33,3.25 -10.33,8 -15.09,14.3203 V 18.7188 C 1436.1,6.21875 1431.74,0 1423.04,0 c -5.11,0 -8.52,1.60156 -10.13,4.80078 -1.68,3.23828 -2.5,7.94922 -2.5,14.10152 V 141.461 c 0,5.398 1.08,9.449 3.37,12.109 2.29,2.649 5.37,4.012 9.26,4.012 3.86,0 7,-1.363 9.42,-4.141 2.41,-2.75 3.64,-6.699 3.64,-11.8"
         style="fill:#100f0d;fill-opacity:1;fill-rule:nonzero;stroke:none"
         transform="matrix(0.13333333,0,0,-0.13333333,0,826.26667)" />
      <path
         id="path3"
         d="M 1609.24,58.1719 V 61.75 c -3.27,-4.2812 -6.69,-7.8711 -10.28,-10.7695 -3.59,-2.961 -7.51,-5.1094 -11.74,-6.5 -4.3,-1.418 -9.13,-2.1407 -14.58,-2.1407 -6.54,0 -12.44,1.4297 -17.67,4.25 -5.22,2.8321 -9.27,6.7618 -12.08,11.7422 -3.45,6.0391 -5.1,14.7071 -5.1,25.9688 V 140.57 c 0,5.649 1.23,9.922 3.69,12.719 2.47,2.801 5.7,4.211 9.74,4.211 4.14,0 7.44,-1.41 9.98,-4.281 2.53,-2.848 3.77,-7.078 3.77,-12.649 V 95.0898 c 0,-6.5312 0.52,-12.0781 1.56,-16.5078 1.11,-4.4922 3.02,-7.9922 5.8,-10.5625 2.7,-2.4882 6.45,-3.7578 11.17,-3.7578 4.63,0 8.93,1.4375 12.96,4.2696 4.08,2.8085 7.05,6.5078 8.89,11.0898 1.53,4.0273 2.28,12.8281 2.28,26.4099 v 34.539 c 0,5.571 1.26,9.801 3.81,12.649 2.5,2.871 5.75,4.281 9.83,4.281 4.06,0 7.3,-1.41 9.77,-4.211 2.42,-2.797 3.63,-7.07 3.63,-12.719 V 58.332 c 0,-5.4023 -1.13,-9.4726 -3.49,-12.1406 -2.33,-2.7422 -5.37,-4.0625 -9.1,-4.0625 -3.71,0 -6.77,1.4414 -9.21,4.1719 -2.42,2.8515 -3.63,6.7383 -3.63,11.8711"
         style="fill:#100f0d;fill-opacity:1;fill-rule:nonzero;stroke:none"
         transform="matrix(0.13333333,0,0,-0.13333333,0,826.26667)" />
      <path
         id="path4"
         d="m 1688.14,99.1406 c 0,-11.2812 2.46,-19.9297 7.38,-26.0195 4.97,-6.0391 11.47,-9.1094 19.52,-9.1094 6.85,0 12.71,3.1172 17.69,9.3086 4.98,6.2305 7.46,15.0586 7.46,26.6485 0,7.5702 -1.04,13.9802 -3.11,19.3712 -2.08,5.441 -5.02,9.621 -8.76,12.539 -3.85,2.941 -8.21,4.461 -13.28,4.461 -5.23,0 -9.77,-1.52 -13.85,-4.461 -4.08,-2.918 -7.24,-7.207 -9.58,-12.797 -2.33,-5.543 -3.47,-12.16 -3.47,-19.9414 z m -1.29,84.3904 v -43.39 c 5.05,5.601 10.3,9.8 15.6,12.808 5.32,2.93 11.93,4.43 19.74,4.43 9.05,0 16.96,-2.27 23.77,-6.688 6.79,-4.55 12.11,-10.992 15.84,-19.48 3.79,-8.481 5.64,-18.559 5.64,-30.199 0,-8.6136 -1.03,-16.4807 -3.1,-23.7112 -2.11,-7.1406 -5.12,-13.332 -9.12,-18.6602 -4.02,-5.2383 -8.86,-9.2695 -14.51,-12.25 -5.71,-2.8203 -11.97,-4.2812 -18.81,-4.2812 -4.14,0 -8.12,0.5312 -11.82,1.5508 -3.68,1.0507 -6.85,2.4101 -9.37,4.1601 -2.63,1.6016 -4.84,3.4102 -6.68,5.1719 -1.81,1.8398 -4.2,4.5078 -7.18,8.1172 V 58.332 c 0,-5.3632 -1.26,-9.3906 -3.72,-12.1406 -2.43,-2.7422 -5.6,-4.082 -9.35,-4.082 -3.87,0 -6.92,1.3398 -9.25,4.082 -2.26,2.8086 -3.41,6.8008 -3.41,12.1406 v 123.969 c 0,5.711 1.11,10.07 3.36,13.008 2.21,2.961 5.29,4.421 9.3,4.421 4.17,0 7.4,-1.398 9.63,-4.23 2.29,-2.781 3.44,-6.758 3.44,-11.969"
         style="fill:#100f0d;fill-opacity:1;fill-rule:nonzero;stroke:none"
         transform="matrix(0.13333333,0,0,-0.13333333,0,826.26667)" />
      <path
         id="path5"
         d="M 1786.64,59.3906 V 182.469 c 0,5.722 1.21,9.992 3.6,12.91 2.47,2.891 5.72,4.351 9.84,4.351 4.12,0 7.42,-1.421 9.96,-4.308 2.49,-2.859 3.8,-7.211 3.8,-12.953 V 59.3906 c 0,-5.7617 -1.31,-10.1015 -3.86,-13 -2.54,-2.8203 -5.85,-4.2812 -9.9,-4.2812 -3.99,0 -7.18,1.5 -9.69,4.4804 -2.5,2.9805 -3.75,7.2305 -3.75,12.8008"
         style="fill:#100f0d;fill-opacity:1;fill-rule:nonzero;stroke:none"
         transform="matrix(0.13333333,0,0,-0.13333333,0,826.26667)" />
      <path
         id="path6"
         d="M 1869.11,141.379 V 59.3906 c 0,-5.7187 -1.33,-10.0195 -3.85,-12.9297 -2.62,-2.8515 -5.92,-4.3515 -9.87,-4.3515 -4,0 -7.25,1.5 -9.73,4.4492 -2.46,3.0117 -3.75,7.2617 -3.75,12.832 V 140.57 c 0,5.571 1.29,9.801 3.75,12.649 2.48,2.871 5.73,4.281 9.73,4.281 3.95,0 7.25,-1.41 9.87,-4.281 2.52,-2.848 3.85,-6.778 3.85,-11.84 z m -13.45,29.351 c -3.79,0 -7,1.211 -9.75,3.7 -2.62,2.41 -4,5.871 -4,10.32 0,3.992 1.38,7.281 4.15,9.922 2.75,2.609 5.95,3.828 9.6,3.828 3.51,0 6.65,-1.141 9.37,-3.488 2.71,-2.352 4.08,-5.821 4.08,-10.262 0,-4.41 -1.34,-7.82 -4,-10.238 -2.66,-2.461 -5.77,-3.782 -9.45,-3.782"
         style="fill:#100f0d;fill-opacity:1;fill-rule:nonzero;stroke:none"
         transform="matrix(0.13333333,0,0,-0.13333333,0,826.26667)" />
      <path
         id="path7"
         d="m 1994.63,77.2617 c 0,-3.5195 -0.99,-7.3125 -3.01,-11.3398 -2.05,-4.0117 -5.14,-7.8203 -9.3,-11.4727 -4.13,-3.6289 -9.36,-6.5586 -15.67,-8.75 -6.31,-2.2773 -13.43,-3.3594 -21.31,-3.3594 -16.82,0 -29.93,5.129 -39.37,15.3321 -9.41,10.2187 -14.14,23.8984 -14.14,41.0976 0,11.6405 2.15,21.9725 6.45,30.8825 4.31,8.887 10.61,15.86 18.74,20.719 8.15,4.918 17.95,7.359 29.27,7.359 7.06,0 13.53,-1.101 19.42,-3.218 5.87,-2.172 10.85,-4.961 14.93,-8.313 4.08,-3.41 7.2,-7.047 9.37,-10.859 2.18,-3.84 3.23,-7.449 3.23,-10.781 0,-3.34 -1.24,-6.227 -3.63,-8.598 -2.45,-2.379 -5.35,-3.539 -8.81,-3.539 -2.28,0 -4.13,0.648 -5.66,1.859 -1.45,1.168 -3.15,3.078 -5.03,5.84 -3.3,5.25 -6.79,9.231 -10.4,11.918 -3.63,2.602 -8.23,3.953 -13.76,3.953 -8.09,0 -14.56,-3.332 -19.47,-9.871 -4.92,-6.582 -7.35,-15.539 -7.35,-26.9101 0,-5.3007 0.63,-10.2695 1.91,-14.6992 1.25,-4.5 3.07,-8.2929 5.44,-11.4726 2.41,-3.1485 5.27,-5.5274 8.67,-7.1602 3.39,-1.6601 7.12,-2.4492 11.14,-2.4492 5.48,0 10.13,1.293 14.02,3.9297 3.89,2.6601 7.33,6.6914 10.31,12.0312 1.67,3.2696 3.45,5.7383 5.39,7.5703 1.94,1.8008 4.31,2.6602 7.09,2.6602 3.31,0 6.07,-1.2813 8.28,-3.9102 2.15,-2.6992 3.25,-5.4726 3.25,-8.4492"
         style="fill:#100f0d;fill-opacity:1;fill-rule:nonzero;stroke:none"
         transform="matrix(0.13333333,0,0,-0.13333333,0,826.26667)" />
      <path
         id="path8"
         d="m 2039.44,99.9688 c 0,-7.6875 1.14,-14.1875 3.42,-19.629 2.31,-5.4179 5.4,-9.4492 9.39,-12.1796 4.01,-2.7813 8.37,-4.1485 13.04,-4.1485 4.79,0 9.15,1.3281 13.1,3.8789 3.97,2.6211 7.09,6.6407 9.48,12 2.36,5.3477 3.53,12.0782 3.53,20.0782 0,7.6132 -1.17,14.0702 -3.53,19.5432 -2.39,5.449 -5.56,9.597 -9.56,12.527 -4.03,2.84 -8.41,4.301 -13.19,4.301 -4.96,0 -9.41,-1.52 -13.34,-4.461 -3.89,-2.918 -6.97,-7.199 -9.12,-12.707 -2.14,-5.524 -3.22,-11.863 -3.22,-19.2032 z M 2092.9,58.332 v 2.7774 c -3.66,-4.3672 -7.26,-7.9102 -10.86,-10.6094 -3.49,-2.7695 -7.37,-4.8398 -11.52,-6.2695 -4.13,-1.3789 -8.67,-2.1211 -13.57,-2.1211 -6.5,0 -12.57,1.4609 -18.09,4.2812 -5.53,2.9805 -10.32,7.0313 -14.38,12.3594 -4.04,5.3516 -7.12,11.6211 -9.23,18.8516 -2.12,7.1797 -3.14,14.9804 -3.14,23.4104 0,17.699 4.16,31.59 12.47,41.5 8.32,9.918 19.22,14.867 32.75,14.867 7.84,0 14.46,-1.43 19.83,-4.289 5.36,-2.758 10.63,-7.078 15.74,-12.949 v 41.91 c 0,5.84 1.09,10.238 3.34,13.211 2.21,3 5.35,4.468 9.49,4.468 4.11,0 7.28,-1.378 9.53,-4.082 2.21,-2.726 3.36,-6.777 3.36,-12.117 V 58.332 c 0,-5.4023 -1.21,-9.4726 -3.62,-12.1406 -2.4,-2.7422 -5.45,-4.082 -9.27,-4.082 -3.68,0 -6.79,1.4023 -9.23,4.1914 -2.4,2.8086 -3.6,6.7812 -3.6,12.0312"
         style="fill:#100f0d;fill-opacity:1;fill-rule:nonzero;stroke:none"
         transform="matrix(0.13333333,0,0,-0.13333333,0,826.26667)" />
      <path
         id="path9"
         d="m 2220.42,99.75 c 0,11.531 -2.48,20.582 -7.33,27.02 -4.89,6.41 -11.46,9.66 -19.68,9.66 -5.35,0 -10,-1.45 -14.06,-4.321 -4.04,-2.918 -7.16,-7.148 -9.35,-12.769 -2.18,-5.559 -3.3,-12.07 -3.3,-19.59 0,-7.4297 1.12,-13.8906 3.24,-19.4102 2.14,-5.5507 5.25,-9.8007 9.29,-12.75 4,-2.9375 8.77,-4.3789 14.18,-4.3789 8.22,0 14.79,3.211 19.68,9.6797 4.85,6.461 7.33,15.4492 7.33,26.8594 z m 27.29,0 c 0,-8.4102 -1.28,-16.2109 -3.79,-23.3984 -2.52,-7.0821 -6.17,-13.2305 -10.93,-18.3828 -4.82,-5.129 -10.52,-8.9688 -17.16,-11.7774 -6.63,-2.7422 -14.16,-4.082 -22.42,-4.082 -8.22,0 -15.64,1.3398 -22.19,4.1523 -6.59,2.7696 -12.31,6.7305 -17.13,11.9102 -4.79,5.1679 -8.43,11.2265 -10.95,18.2578 -2.49,7.082 -3.72,14.8125 -3.72,23.3711 0,8.5902 1.27,16.4492 3.77,23.5582 2.52,7.18 6.12,13.243 10.85,18.332 4.72,5.051 10.42,8.95 17.18,11.68 6.72,2.75 14.08,4.129 22.19,4.129 8.25,0 15.72,-1.379 22.42,-4.168 6.69,-2.762 12.44,-6.75 17.21,-11.871 4.82,-5.121 8.44,-11.262 10.88,-18.332 2.55,-7.047 3.79,-14.848 3.79,-23.379"
         style="fill:#100f0d;fill-opacity:1;fill-rule:nonzero;stroke:none"
         transform="matrix(0.13333333,0,0,-0.13333333,0,826.26667)" />
      <path
         id="path10"
         d="m 2362.56,123.199 c -2.04,-4.797 -3,-13.258 -3,-25.4607 V 60.0195 c 0,-5.9297 -1.27,-10.4492 -3.9,-13.4297 -2.57,-2.9804 -6.04,-4.4804 -10.28,-4.4804 -4.08,0 -7.41,1.5 -9.95,4.4804 -2.56,2.9805 -3.81,7.5 -3.81,13.4297 v 45.2815 c 0,7.121 -0.27,12.64 -0.74,16.648 -0.47,3.903 -1.72,7.172 -3.79,9.703 -2.01,2.547 -5.29,3.809 -9.72,3.809 -8.89,0 -14.74,-3.191 -17.59,-9.609 -2.85,-6.34 -4.19,-15.5 -4.19,-27.4497 V 60.0195 c 0,-5.9179 -1.31,-10.3906 -3.84,-13.3398 -2.58,-3.0703 -5.95,-4.5703 -10.08,-4.5703 -4.16,0 -7.56,1.5 -10.17,4.5703 -2.64,2.9492 -3.89,7.4219 -3.89,13.332 v 81.2073 c 0,5.363 1.13,9.422 3.46,12.183 2.39,2.758 5.49,4.18 9.37,4.18 3.72,0 6.83,-1.293 9.3,-3.891 2.48,-2.589 3.73,-6.171 3.73,-10.761 v -2.692 c 4.7,5.903 9.76,10.242 15.12,12.981 5.37,2.773 11.41,4.16 17.94,4.16 6.82,0 12.67,-1.43 17.59,-4.289 4.94,-2.809 8.97,-7.117 12.13,-12.852 4.6,5.774 9.51,10.133 14.78,12.934 5.25,2.82 11.05,4.207 17.4,4.207 7.49,0 13.88,-1.5 19.22,-4.59 5.4,-3.047 9.41,-7.41 12.08,-13.09 2.34,-5.14 3.47,-13.199 3.47,-24.25 V 60.0195 c 0,-5.9297 -1.29,-10.4492 -3.83,-13.4297 -2.65,-2.9804 -6.04,-4.4804 -10.29,-4.4804 -4.13,0 -7.49,1.5 -10.1,4.5703 -2.66,2.9492 -3.97,7.4219 -3.97,13.3398 v 47.7695 c 0,6.102 -0.24,10.973 -0.73,14.66 -0.51,3.711 -1.85,6.742 -4.07,9.25 -2.17,2.5 -5.51,3.762 -9.92,3.762 -3.59,0 -7.01,-1.121 -10.18,-3.289 -3.27,-2.242 -5.72,-5.223 -7.55,-8.973 v 0"
         style="fill:#100f0d;fill-opacity:1;fill-rule:nonzero;stroke:none"
         transform="matrix(0.13333333,0,0,-0.13333333,0,826.26667)" />
      <path
         id="path11"
         d="m 2516.58,99.2109 c -4.01,-1.5586 -9.8,-3.1211 -17.41,-4.8515 -7.61,-1.6992 -12.87,-2.9375 -15.8,-3.75 -2.93,-0.8203 -5.72,-2.3594 -8.34,-4.6602 -2.68,-2.3906 -4.02,-5.6094 -4.02,-9.7695 0,-4.3399 1.58,-7.9609 4.67,-10.9883 3.14,-3.0625 7.24,-4.5312 12.28,-4.5312 5.37,0 10.37,1.25 14.9,3.7109 4.55,2.4414 7.92,5.6484 10,9.5 2.47,4.3203 3.72,11.3672 3.72,21.3008 z m 1.77,-41.1093 c -6.59,-5.3516 -12.94,-9.3321 -19.08,-11.961 -6.13,-2.7187 -13.05,-4.0312 -20.65,-4.0312 -7.02,0 -13.09,1.4609 -18.41,4.2812 -5.32,2.8985 -9.35,6.8086 -12.22,11.7813 -2.82,4.9101 -4.28,10.1875 -4.28,15.9804 0,7.7696 2.41,14.3594 7.12,19.8477 4.67,5.4492 11.14,9.129 19.37,11.012 1.73,0.418 6.04,1.32 12.84,2.777 6.91,1.492 12.71,2.793 17.67,4 4.83,1.191 10.16,2.68 15.87,4.402 -0.35,7.52 -1.79,13 -4.32,16.579 -2.6,3.46 -7.93,5.171 -15.92,5.171 -6.94,0 -12.11,-0.972 -15.64,-2.98 -3.46,-1.992 -6.48,-5.031 -8.93,-9.109 -2.52,-3.993 -4.24,-6.661 -5.28,-7.922 -1.06,-1.309 -3.27,-1.891 -6.6,-1.891 -3.1,0 -5.72,1.012 -7.92,3.031 -2.26,2.059 -3.36,4.641 -3.36,7.879 0,4.973 1.69,9.864 5.06,14.512 3.4,4.738 8.69,8.602 15.85,11.711 7.16,3.047 16.12,4.558 26.82,4.558 11.93,0 21.34,-1.511 28.23,-4.441 6.82,-2.918 11.6,-7.547 14.45,-13.976 2.84,-6.344 4.24,-14.833 4.24,-25.364 0,-6.64 0,-12.328 -0.04,-16.9373 -0.06,-4.6914 -0.09,-9.8398 -0.15,-15.5234 0,-5.3086 0.84,-10.8985 2.56,-16.6563 1.65,-5.7929 2.49,-9.5312 2.49,-11.1601 0,-2.9219 -1.33,-5.5899 -3.94,-7.9727 -2.56,-2.3906 -5.57,-3.5898 -8.87,-3.5898 -2.83,0 -5.53,1.3398 -8.3,4.082 -2.71,2.75 -5.6,6.7383 -8.66,11.9102"
         style="fill:#100f0d;fill-opacity:1;fill-rule:nonzero;stroke:none"
         transform="matrix(0.13333333,0,0,-0.13333333,0,826.26667)" />
      <path
         id="path12"
         d="M 2598.08,141.379 V 59.3906 c 0,-5.7187 -1.3,-10.0195 -3.85,-12.9297 -2.59,-2.8515 -5.86,-4.3515 -9.85,-4.3515 -3.98,0 -7.26,1.5 -9.72,4.4492 -2.52,3.0117 -3.77,7.2617 -3.77,12.832 V 140.57 c 0,5.571 1.25,9.801 3.77,12.649 2.46,2.871 5.74,4.281 9.72,4.281 3.99,0 7.26,-1.41 9.85,-4.281 2.55,-2.848 3.85,-6.778 3.85,-11.84 z m -13.44,29.351 c -3.75,0 -6.97,1.211 -9.66,3.7 -2.69,2.41 -4.09,5.871 -4.09,10.32 0,3.992 1.41,7.281 4.17,9.922 2.73,2.609 5.97,3.828 9.58,3.828 3.53,0 6.69,-1.141 9.42,-3.488 2.68,-2.352 4.02,-5.821 4.02,-10.262 0,-4.41 -1.3,-7.82 -3.97,-10.238 -2.66,-2.461 -5.81,-3.782 -9.47,-3.782"
         style="fill:#100f0d;fill-opacity:1;fill-rule:nonzero;stroke:none"
         transform="matrix(0.13333333,0,0,-0.13333333,0,826.26667)" />
      <path
         id="path13"
         d="m 2650.93,141.789 v -3.387 c 4.76,6.567 9.98,11.399 15.62,14.477 5.69,3.07 12.22,4.621 19.63,4.621 7.13,0 13.57,-1.621 19.25,-4.91 5.59,-3.238 9.84,-7.82 12.59,-13.758 1.82,-3.492 2.94,-7.273 3.52,-11.281 0.49,-3.969 0.8,-9.11 0.8,-15.371 V 59.3906 c 0,-5.7187 -1.29,-10.0195 -3.76,-12.9297 -2.5,-2.8515 -5.74,-4.3515 -9.71,-4.3515 -4.04,0 -7.35,1.5 -9.77,4.4804 -2.56,2.9805 -3.86,7.2305 -3.86,12.8008 v 47.2614 c 0,9.407 -1.21,16.547 -3.69,21.489 -2.54,4.949 -7.52,7.468 -14.96,7.468 -4.84,0 -9.25,-1.527 -13.22,-4.558 -3.98,-2.981 -6.91,-7.141 -8.76,-12.422 -1.33,-4.231 -2.03,-12.09 -2.03,-23.7384 v -35.5 c 0,-5.7617 -1.25,-10.1015 -3.82,-13 -2.57,-2.8203 -5.87,-4.2812 -9.9,-4.2812 -3.89,0 -7.14,1.5 -9.65,4.4492 -2.57,3.0117 -3.8,7.2617 -3.8,12.832 v 81.9884 c 0,5.434 1.11,9.422 3.4,12.101 2.21,2.68 5.37,4.02 9.27,4.02 2.35,0 4.54,-0.629 6.43,-1.758 1.99,-1.172 3.48,-2.992 4.65,-5.262 1.12,-2.41 1.77,-5.289 1.77,-8.691"
         style="fill:#100f0d;fill-opacity:1;fill-rule:nonzero;stroke:none"
         transform="matrix(0.13333333,0,0,-0.13333333,0,826.26667)" />
      <path
         id="path14"
         d="m 2765.98,139.84 21.96,-64.4494 23.73,67.2614 c 1.88,5.418 3.7,9.2 5.51,11.469 1.83,2.238 4.5,3.379 8.14,3.379 3.45,0 6.38,-1.211 8.86,-3.68 2.38,-2.398 3.6,-5.16 3.6,-8.441 0,-1.219 -0.24,-2.649 -0.67,-4.27 -0.39,-1.699 -0.88,-3.257 -1.48,-4.757 -0.57,-1.391 -1.15,-3.082 -1.94,-4.942 L 2807.6,63.8398 c -0.73,-1.9296 -1.7,-4.4179 -2.83,-7.4101 -1.18,-2.9688 -2.5,-5.457 -3.89,-7.6602 -1.46,-2.0898 -3.2,-3.6875 -5.27,-4.8789 -2.13,-1.1797 -4.68,-1.7812 -7.67,-1.7812 -3.84,0 -6.9,0.9101 -9.22,2.7226 -2.29,1.8477 -3.99,3.8399 -5.07,6.0703 -1.08,2.1368 -2.96,6.4883 -5.52,12.9375 L 2742.2,130.68 c -0.59,1.629 -1.24,3.308 -1.88,4.98 -0.6,1.66 -1.09,3.32 -1.56,5.09 -0.42,1.762 -0.66,3.25 -0.66,4.441 0,1.981 0.57,3.899 1.72,5.801 1.13,1.918 2.69,3.5 4.68,4.68 2.02,1.199 4.13,1.828 6.5,1.828 4.47,0 7.59,-1.34 9.3,-4.098 1.7,-2.672 3.6,-7.203 5.68,-13.562"
         style="fill:#100f0d;fill-opacity:1;fill-rule:nonzero;stroke:none"
         transform="matrix(0.13333333,0,0,-0.13333333,0,826.26667)" />
      <path
         id="path15"
         d="m 2877.21,109.02 h 49.29 c -0.63,9.671 -3.12,16.921 -7.5,21.722 -4.37,4.789 -10.1,7.199 -17.22,7.199 -6.73,0 -12.31,-2.441 -16.64,-7.3 -4.34,-4.86 -6.95,-12.09 -7.93,-21.621 z m 53.21,-16.1489 h -53.21 c 0.01,-6.4688 1.31,-12.1406 3.69,-17.1016 2.46,-4.8789 5.67,-8.5976 9.7,-11.1172 4,-2.5234 8.46,-3.7226 13.31,-3.7226 3.24,0 6.25,0.3906 8.9,1.1601 2.67,0.8399 5.31,2.0821 7.86,3.75 2.48,1.711 4.78,3.4805 6.93,5.5 2.1,1.9415 4.93,4.5196 8.27,7.8711 1.41,1.3086 3.42,1.8985 5.97,1.8985 2.84,0 5.07,-0.7696 6.81,-2.4102 1.73,-1.5976 2.54,-3.8203 2.54,-6.7304 0,-2.5704 -0.94,-5.5665 -2.88,-9.0391 -1.91,-3.3789 -4.76,-6.6992 -8.72,-9.8906 -3.89,-3.1172 -8.76,-5.6875 -14.64,-7.8282 -5.85,-2.0703 -12.58,-3.1015 -20.29,-3.1015 -17.43,0 -31.03,5.2422 -40.69,15.582 -9.69,10.4492 -14.51,24.5078 -14.51,42.2774 0,8.5042 1.23,16.2222 3.56,23.3712 2.4,7.199 5.86,13.332 10.46,18.449 4.59,5.16 10.2,9.121 16.93,11.82 6.73,2.75 14.14,4.121 22.34,4.121 10.55,0 19.7,-2.339 27.29,-7.039 7.63,-4.679 13.31,-10.691 17.09,-18.089 3.79,-7.461 5.69,-14.981 5.69,-22.731 0,-7.082 -1.91,-11.7108 -5.86,-13.8124 -3.96,-2.1484 -9.44,-3.1875 -16.54,-3.1875"
         style="fill:#100f0d;fill-opacity:1;fill-rule:nonzero;stroke:none"
         transform="matrix(0.13333333,0,0,-0.13333333,0,826.26667)" />
      <path
         id="path16"
         d="m 3073.3,77.2617 c 0,-3.5195 -1.01,-7.3125 -3.08,-11.3398 -2.03,-4.0117 -5.06,-7.8203 -9.25,-11.4727 -4.13,-3.6289 -9.4,-6.5586 -15.73,-8.75 -6.27,-2.2773 -13.42,-3.3594 -21.25,-3.3594 -16.87,0 -29.97,5.129 -39.39,15.3321 -9.4,10.2187 -14.15,23.8984 -14.15,41.0976 0,11.6405 2.14,21.9725 6.5,30.8825 4.32,8.887 10.51,15.86 18.71,20.719 8.13,4.918 17.93,7.359 29.31,7.359 7.03,0 13.46,-1.101 19.39,-3.218 5.86,-2.172 10.8,-4.961 14.94,-8.313 4.08,-3.41 7.17,-7.047 9.36,-10.859 2.14,-3.84 3.21,-7.449 3.21,-10.781 0,-3.34 -1.18,-6.227 -3.68,-8.598 -2.39,-2.379 -5.32,-3.539 -8.78,-3.539 -2.26,0 -4.13,0.648 -5.6,1.859 -1.52,1.168 -3.18,3.078 -5.06,5.84 -3.33,5.25 -6.77,9.231 -10.4,11.918 -3.62,2.602 -8.22,3.953 -13.81,3.953 -7.99,0 -14.49,-3.332 -19.4,-9.871 -4.96,-6.582 -7.4,-15.539 -7.4,-26.9101 0,-5.3007 0.67,-10.2695 1.88,-14.6992 1.27,-4.5 3.12,-8.2929 5.52,-11.4726 2.38,-3.1485 5.29,-5.5274 8.67,-7.1602 3.33,-1.6601 7.07,-2.4492 11.16,-2.4492 5.43,0 10.11,1.293 14,3.9297 3.87,2.6601 7.33,6.6914 10.32,12.0312 1.67,3.2696 3.43,5.7383 5.38,7.5703 1.91,1.8008 4.23,2.6602 7.07,2.6602 3.27,0 6.08,-1.2813 8.19,-3.9102 2.24,-2.6992 3.37,-5.4726 3.37,-8.4492"
         style="fill:#100f0d;fill-opacity:1;fill-rule:nonzero;stroke:none"
         transform="matrix(0.13333333,0,0,-0.13333333,0,826.26667)" />
      <path
         id="path17"
         d="m 3098.55,155.109 h 2.99 v 17.063 c 0,4.539 0.13,8.168 0.37,10.75 0.22,2.609 0.82,4.789 1.94,6.699 1.03,1.91 2.56,3.5 4.59,4.738 1.98,1.18 4.19,1.762 6.65,1.762 3.44,0 6.58,-1.332 9.35,-4.019 1.81,-1.821 3.03,-3.993 3.52,-6.571 0.51,-2.609 0.74,-6.351 0.74,-11.101 v -19.321 h 10 c 3.84,0 6.79,-0.968 8.81,-2.867 2.07,-1.91 3.05,-4.332 3.05,-7.312 0,-3.821 -1.43,-6.528 -4.36,-8.02 -2.87,-1.5 -7.02,-2.269 -12.39,-2.269 h -5.11 V 82.3711 c 0,-4.4609 0.16,-7.8711 0.45,-10.3008 0.35,-2.3984 1.19,-4.3398 2.45,-5.789 1.26,-1.5 3.37,-2.2696 6.32,-2.2696 1.58,0 3.73,0.2696 6.48,0.8985 2.66,0.5703 4.79,0.8789 6.35,0.8789 2.17,0 4.22,-0.9571 5.94,-2.7071 1.72,-1.8906 2.63,-4.1211 2.63,-6.8515 0,-4.5508 -2.34,-8.0508 -7.16,-10.4805 -4.83,-2.4414 -11.69,-3.6406 -20.61,-3.6406 -8.51,0 -14.97,1.5 -19.36,4.4804 -4.35,2.9805 -7.27,7.0821 -8.58,12.4102 -1.4,5.2617 -2.07,12.2891 -2.07,21.0898 v 54.5512 h -3.62 c -3.84,0 -6.84,0.968 -8.92,2.922 -2.07,1.937 -3.08,4.367 -3.08,7.367 0,2.98 1.06,5.402 3.2,7.312 2.18,1.899 5.3,2.867 9.43,2.867"
         style="fill:#100f0d;fill-opacity:1;fill-rule:nonzero;stroke:none"
         transform="matrix(0.13333333,0,0,-0.13333333,0,826.26667)" />
      <path
         id="path18"
         d="m 3243.75,99.75 c 0,11.531 -2.47,20.582 -7.32,27.02 -4.93,6.41 -11.43,9.66 -19.69,9.66 -5.33,0 -10,-1.45 -14.02,-4.321 -4.08,-2.918 -7.2,-7.148 -9.38,-12.769 -2.18,-5.559 -3.31,-12.07 -3.31,-19.59 0,-7.4297 1.13,-13.8906 3.28,-19.4102 2.14,-5.5507 5.21,-9.8007 9.22,-12.75 4.01,-2.9375 8.75,-4.3789 14.21,-4.3789 8.26,0 14.76,3.211 19.69,9.6797 4.85,6.461 7.32,15.4492 7.32,26.8594 z m 27.3,0 c 0,-8.4102 -1.25,-16.2109 -3.82,-23.3984 -2.5,-7.0821 -6.17,-13.2305 -10.93,-18.3828 -4.79,-5.129 -10.51,-8.9688 -17.13,-11.7774 -6.67,-2.7422 -14.09,-4.082 -22.43,-4.082 -8.27,0 -15.68,1.3398 -22.22,4.1523 -6.57,2.7696 -12.29,6.7305 -17.09,11.9102 -4.8,5.1679 -8.46,11.2265 -10.91,18.2578 -2.48,7.082 -3.7,14.8125 -3.7,23.3711 0,8.5902 1.22,16.4492 3.7,23.5582 2.58,7.18 6.15,13.243 10.86,18.332 4.75,5.051 10.45,8.95 17.14,11.68 6.77,2.75 14.16,4.129 22.22,4.129 8.26,0 15.7,-1.379 22.43,-4.168 6.7,-2.762 12.43,-6.75 17.22,-11.871 4.73,-5.121 8.44,-11.262 10.92,-18.332 2.49,-7.047 3.74,-14.848 3.74,-23.379"
         style="fill:#100f0d;fill-opacity:1;fill-rule:nonzero;stroke:none"
         transform="matrix(0.13333333,0,0,-0.13333333,0,826.26667)" />
      <path
         id="path19"
         d="M 3319.5,83.0117 V 59.3906 c 0,-5.7617 -1.31,-10.1015 -3.91,-13 -2.6,-2.8203 -5.87,-4.2812 -9.89,-4.2812 -3.87,0 -7.12,1.5 -9.63,4.3515 -2.52,2.9102 -3.76,7.211 -3.76,12.9297 v 78.9884 c 0,12.769 4.39,19.121 13.23,19.121 4.47,0 7.75,-1.508 9.78,-4.461 1.95,-2.976 3.01,-7.391 3.27,-13.199 3.23,5.808 6.61,10.223 10.04,13.199 3.42,2.953 7.96,4.461 13.64,4.461 5.76,0 11.28,-1.508 16.68,-4.461 5.35,-2.976 8.08,-6.949 8.08,-11.848 0,-3.461 -1.19,-6.371 -3.47,-8.589 -2.27,-2.231 -4.75,-3.411 -7.44,-3.411 -0.98,0 -3.4,0.668 -7.21,1.981 -3.85,1.258 -7.22,1.918 -10.16,1.918 -3.93,0 -7.18,-1.051 -9.68,-3.289 -2.54,-2.219 -4.51,-5.41 -5.9,-9.699 -1.4,-4.34 -2.4,-9.43 -2.9,-15.391 -0.51,-5.8907 -0.77,-13.0899 -0.77,-21.6993"
         style="fill:#100f0d;fill-opacity:1;fill-rule:nonzero;stroke:none"
         transform="matrix(0.13333333,0,0,-0.13333333,0,826.26667)" />
      <path
         id="path20"
         d="m 3464.35,79.1914 c 0,-7.8516 -1.83,-14.5391 -5.52,-20.1211 -3.67,-5.6094 -9.05,-9.7812 -16.2,-12.6914 -7.17,-2.8086 -15.82,-4.2695 -26.1,-4.2695 -9.68,0 -18.1,1.5508 -25.09,4.7031 -6.97,3.1094 -12.13,6.9766 -15.42,11.6484 -3.36,4.6602 -5.07,9.3594 -5.07,14.0508 0,3.1172 1.1,5.7891 3.27,8.0078 2.11,2.2696 4.82,3.3203 8.03,3.3203 2.87,0 5.1,-0.7382 6.61,-2.1484 1.53,-1.5391 2.95,-3.543 4.39,-6.1797 2.78,-5.0703 6.1,-8.8515 10.05,-11.3398 3.81,-2.5313 9.12,-3.7696 15.88,-3.7696 5.42,0 9.9,1.2891 13.39,3.8165 3.47,2.5312 5.27,5.4101 5.27,8.6718 0,5.0196 -1.84,8.6797 -5.43,10.9414 -3.67,2.3399 -9.6,4.5078 -17.9,6.5703 -9.36,2.4375 -17.01,4.9766 -22.89,7.629 -5.87,2.6877 -10.63,6.2307 -14.12,10.5977 -3.52,4.293 -5.31,9.703 -5.31,16.082 0,5.719 1.64,11.09 4.9,16.121 3.24,5.07 8.11,9.098 14.43,12.117 6.33,3.043 13.97,4.551 22.99,4.551 7,0 13.33,-0.781 18.97,-2.301 5.6,-1.508 10.34,-3.578 14.03,-6.109 3.75,-2.578 6.65,-5.418 8.59,-8.52 1.99,-3.148 2.96,-6.199 2.96,-9.16 0,-3.269 -1.03,-5.879 -3.17,-8.051 -2.1,-2 -5.09,-3.05 -8.88,-3.05 -2.83,0 -5.19,0.82 -7.19,2.523 -1.91,1.637 -4.19,4.117 -6.7,7.398 -2.06,2.782 -4.46,5.02 -7.29,6.68 -2.79,1.629 -6.57,2.5 -11.32,2.5 -4.93,0 -9.06,-1.09 -12.25,-3.289 -3.28,-2.172 -4.92,-4.91 -4.92,-8.172 0,-2.988 1.21,-5.429 3.56,-7.328 2.43,-1.91 5.63,-3.492 9.7,-4.75 4.08,-1.25 9.64,-2.801 16.75,-4.59 8.46,-2.14 15.32,-4.672 20.68,-7.679 5.34,-2.954 9.39,-6.4926 12.14,-10.5395 2.8,-4.0937 4.18,-8.7109 4.18,-13.8711"
         style="fill:#100f0d;fill-opacity:1;fill-rule:nonzero;stroke:none"
         transform="matrix(0.13333333,0,0,-0.13333333,0,826.26667)" />
      <path
         id="path21"
         d="m 3495.23,42.1094 c -4.12,0 -7.69,1.3398 -10.64,4.1523 -3.03,2.7696 -4.51,6.668 -4.51,11.6172 0,4.2109 1.4,7.8633 4.23,10.9219 2.86,3.039 6.41,4.5195 10.6,4.5195 4.16,0 7.74,-1.4805 10.63,-4.5078 3,-2.9727 4.48,-6.6836 4.48,-10.9336 0,-4.9101 -1.48,-8.7695 -4.48,-11.5781 -2.89,-2.7891 -6.34,-4.1914 -10.31,-4.1914"
         style="fill:#100f0d;fill-opacity:1;fill-rule:nonzero;stroke:none"
         transform="matrix(0.13333333,0,0,-0.13333333,0,826.26667)" />
      <path
         id="path22"
         d="m 3615.48,99.75 c 0,11.531 -2.45,20.582 -7.33,27.02 -4.88,6.41 -11.42,9.66 -19.65,9.66 -5.32,0 -9.95,-1.45 -14.02,-4.321 -4.06,-2.918 -7.18,-7.148 -9.36,-12.769 -2.17,-5.559 -3.28,-12.07 -3.28,-19.59 0,-7.4297 1.05,-13.8906 3.19,-19.4102 2.23,-5.5507 5.28,-9.8007 9.31,-12.75 4,-2.9375 8.72,-4.3789 14.16,-4.3789 8.23,0 14.77,3.211 19.65,9.6797 4.88,6.461 7.33,15.4492 7.33,26.8594 z m 27.33,0 c 0,-8.4102 -1.25,-16.2109 -3.81,-23.3984 -2.54,-7.0821 -6.15,-13.2305 -10.95,-18.3828 -4.82,-5.129 -10.47,-8.9688 -17.13,-11.7774 -6.62,-2.7422 -14.09,-4.082 -22.42,-4.082 -8.22,0 -15.62,1.3398 -22.2,4.1523 -6.58,2.7696 -12.24,6.7305 -17.05,11.9102 -4.89,5.1679 -8.51,11.2265 -11.03,18.2578 -2.44,7.082 -3.69,14.8125 -3.69,23.3711 0,8.5902 1.25,16.4492 3.79,23.5582 2.56,7.18 6.13,13.243 10.82,18.332 4.71,5.051 10.44,8.95 17.16,11.68 6.7,2.75 14.06,4.129 22.2,4.129 8.23,0 15.7,-1.379 22.42,-4.168 6.74,-2.762 12.46,-6.75 17.26,-11.871 4.74,-5.121 8.38,-11.262 10.9,-18.332 2.48,-7.047 3.73,-14.848 3.73,-23.379"
         style="fill:#100f0d;fill-opacity:1;fill-rule:nonzero;stroke:none"
         transform="matrix(0.13333333,0,0,-0.13333333,0,826.26667)" />
      <path
         id="path23"
         d="M 3691.25,83.0117 V 59.3906 c 0,-5.7617 -1.3,-10.1015 -3.89,-13 -2.55,-2.8203 -5.88,-4.2812 -9.84,-4.2812 -3.96,0 -7.14,1.5 -9.68,4.3515 -2.56,2.9102 -3.8,7.211 -3.8,12.9297 v 78.9884 c 0,12.769 4.47,19.121 13.26,19.121 4.52,0 7.75,-1.508 9.74,-4.461 1.96,-2.976 3.12,-7.391 3.36,-13.199 3.19,5.808 6.52,10.223 9.94,13.199 3.43,2.953 8,4.461 13.67,4.461 5.81,0 11.35,-1.508 16.67,-4.461 5.38,-2.976 8.09,-6.949 8.09,-11.848 0,-3.461 -1.15,-6.371 -3.42,-8.589 -2.32,-2.231 -4.75,-3.411 -7.47,-3.411 -0.96,0 -3.35,0.668 -7.17,1.981 -3.84,1.258 -7.21,1.918 -10.16,1.918 -3.95,0 -7.19,-1.051 -9.78,-3.289 -2.48,-2.219 -4.45,-5.41 -5.86,-9.699 -1.36,-4.34 -2.34,-9.43 -2.85,-15.391 -0.53,-5.8907 -0.81,-13.0899 -0.81,-21.6993"
         style="fill:#100f0d;fill-opacity:1;fill-rule:nonzero;stroke:none"
         transform="matrix(0.13333333,0,0,-0.13333333,0,826.26667)" />
      <path
         id="path24"
         d="m 3769.76,100.73 c 0,-11.4878 2.42,-20.1987 7.26,-26.1206 4.77,-5.8477 11.04,-8.8203 18.63,-8.8203 4.49,0 8.82,1.3007 12.81,3.832 4.03,2.5312 7.3,6.3398 9.83,11.4375 2.55,5.1133 3.78,11.2617 3.78,18.5312 0,11.5822 -2.47,20.5702 -7.34,27.0002 -4.86,6.5 -11.3,9.75 -19.26,9.75 -7.74,0 -13.98,-3.16 -18.65,-9.289 -4.71,-6.199 -7.06,-14.949 -7.06,-26.321 z m 78.84,35.989 V 54.25 c 0,-9.4609 -1.04,-17.5586 -2.92,-24.3086 -1.93,-6.832 -5.01,-12.4492 -9.26,-16.8711 -4.25,-4.42186 -9.84,-7.71092 -16.67,-9.85936 C 3812.87,1.10156 3804.3,0 3794.09,0 c -9.39,0 -17.78,1.33203 -25.1,4.07031 -7.39,2.80078 -13.09,6.30079 -17.05,10.66019 -3.99,4.289 -6,8.75 -6,13.3515 0,3.4766 1.11,6.2774 3.43,8.4571 2.23,2.2304 4.96,3.3203 8.13,3.3203 4.01,0 7.45,-1.8594 10.49,-5.5078 1.47,-1.9297 2.99,-3.8008 4.51,-5.6797 1.56,-1.9219 3.3,-3.5899 5.17,-4.9102 1.91,-1.3828 4.21,-2.3828 6.87,-3.0429 2.59,-0.6563 5.7,-0.9883 9.17,-0.9883 6.98,0 12.51,1.0508 16.36,3.0703 3.89,2.039 6.62,4.8984 8.21,8.5586 1.48,3.6797 2.49,7.6015 2.64,11.789 0.33,4.2813 0.51,10.9532 0.7,20.2813 -4.18,-6.0899 -9.1,-10.7383 -14.52,-13.918 -5.47,-3.2109 -12.03,-4.7617 -19.54,-4.7617 -9.18,0 -17.13,2.3789 -23.88,7.2695 -6.85,4.8399 -12.08,11.6211 -15.73,20.3789 -3.6,8.711 -5.47,18.793 -5.47,30.2306 0,8.582 1.09,16.281 3.35,23.152 2.18,6.821 5.34,12.621 9.53,17.34 4.07,4.719 8.84,8.281 14.22,10.68 5.41,2.359 11.25,3.578 17.75,3.578 7.67,0 14.34,-1.57 19.97,-4.668 5.72,-3.039 10.91,-7.941 15.77,-14.481 v 3.801 c 0,4.961 1.2,8.739 3.5,11.52 2.29,2.668 5.31,4.031 8.94,4.031 5.27,0 8.75,-1.773 10.5,-5.34 1.7,-3.582 2.59,-8.781 2.59,-15.523"
         style="fill:#100f0d;fill-opacity:1;fill-rule:nonzero;stroke:none"
         transform="matrix(0.13333333,0,0,-0.13333333,0,826.26667)" />
      <path
         id="path25"
         d="m 2669.89,413.102 h 40.34 c -2.85,-21.75 -11.76,-38.723 -26.58,-50.942 -13.72,-11.969 -30.33,-17.871 -49.73,-17.871 -26.35,0 -47.37,9.262 -63.07,27.731 -14.88,17.562 -22.3,40.25 -22.3,67.949 0,28.402 7.37,51.101 22.08,68.293 14.71,17.117 35.51,25.718 62.39,25.718 19.99,0 36.91,-5.41 50.63,-16.14 14.54,-11.61 23.43,-27.899 26.58,-48.77 h -40.34 c -3.49,18.211 -14.6,27.262 -33.52,27.262 -31.17,0 -46.79,-18.461 -46.79,-55.422 0,-17.32 4.02,-31.449 12.04,-42.461 8.01,-11.058 19.32,-16.59 33.9,-16.59 21.74,0 33.2,10.43 34.37,31.243 z m -158.79,25.449 c 0,-36.102 11.45,-66.66 34.31,-91.559 22.89,-24.902 50.9,-37.363 84.15,-37.363 33.1,0 61.13,12.461 83.98,37.363 22.92,24.899 34.3,55.457 34.3,91.559 0,36.07 -11.38,66.609 -34.3,91.512 -22.85,24.949 -50.88,37.386 -83.98,37.386 -33.25,0 -61.26,-12.437 -84.15,-37.386 -22.86,-24.903 -34.31,-55.442 -34.31,-91.512 z m -40.98,0 c 0,45.941 15.55,85.148 46.66,117.711 31.15,32.519 68.75,48.789 112.78,48.789 43.92,0 81.46,-16.27 112.64,-48.789 31.13,-32.563 46.73,-71.77 46.73,-117.711 0,-45.981 -15.6,-85.25 -46.73,-117.75 -31.18,-32.539 -68.72,-48.821 -112.64,-48.821 -44.03,0 -81.63,16.282 -112.78,48.821 -31.11,32.5 -46.66,71.769 -46.66,117.75"
         style="fill:#100f0d;fill-opacity:1;fill-rule:nonzero;stroke:none"
         transform="matrix(0.13333333,0,0,-0.13333333,0,826.26667)" />
      <path
         id="path26"
         d="m 2534.62,334.129 23.26,-19.731 170.95,219.532 -23.24,19.699 -170.97,-219.5"
         style="fill:#100f0d;fill-opacity:1;fill-rule:nonzero;stroke:none"
         transform="matrix(0.13333333,0,0,-0.13333333,0,826.26667)" />
      <path
         id="path27"
         d="m 3001.21,1688.97 c 1241.49,0 2254.03,1012.55 2254.03,2254.04 0,1241.48 -1012.54,2254.04 -2254.03,2254.04 -1241.49,0 -2254.046,-1012.56 -2254.046,-2254.04 0,-1241.49 1012.556,-2254.04 2254.046,-2254.04"
         style="fill:#def4f9;fill-opacity:1;fill-rule:evenodd;stroke:none"
         transform="matrix(0.13333333,0,0,-0.13333333,0,826.26667)" />
      <path
         id="path28"
         d="m 2601.83,3444.5 c 51.62,-270.35 -24.24,-560.76 -229.53,-774.22 -205.28,-213.47 -492.5,-300.64 -764.65,-259.62 -51.62,270.34 24.23,560.74 229.52,774.22 205.29,213.47 492.51,300.63 764.66,259.62"
         style="fill:#a4e2f9;fill-opacity:1;fill-rule:evenodd;stroke:none"
         transform="matrix(0.13333333,0,0,-0.13333333,0,826.26667)" />
      <path
         id="path29"
         d="m 1749.18,2542.41 c -4.09,-4.26 -10.86,-4.4 -15.12,-0.3 -4.26,4.1 -4.39,10.86 -0.3,15.11 l 134.94,140.33 -132.8,0.78 c -5.89,0.02 -10.65,4.82 -10.61,10.72 0.03,5.89 4.83,10.65 10.72,10.6 l 153.09,-0.89 151.67,157.72 -221.79,1.29 c -5.88,0.04 -10.64,4.84 -10.61,10.72 0.03,5.9 4.84,10.65 10.73,10.62 l 242.07,-1.42 189.31,196.87 -221.78,1.29 c -5.89,0.04 -10.64,4.85 -10.61,10.73 0.04,5.89 4.83,10.64 10.72,10.61 l 242.07,-1.4 112.43,116.89 -132.81,0.78 c -5.89,0.03 -10.64,4.83 -10.6,10.72 0.03,5.89 4.83,10.64 10.72,10.61 l 153.09,-0.89 105.1,109.29 c 4.09,4.26 10.86,4.39 15.12,0.3 4.25,-4.1 4.39,-10.87 0.3,-15.13 l -105.11,-109.29 6.88,-152.93 c 0.26,-5.88 -4.3,-10.87 -10.18,-11.14 -5.88,-0.25 -10.87,4.3 -11.13,10.19 l -5.96,132.67 -112.43,-116.91 10.88,-241.82 c 0.26,-5.89 -4.3,-10.87 -10.18,-11.14 -5.89,-0.26 -10.87,4.31 -11.14,10.19 l -9.96,221.56 -189.31,-196.86 10.87,-241.85 c 0.26,-5.87 -4.3,-10.86 -10.18,-11.12 -5.89,-0.27 -10.87,4.29 -11.13,10.18 l -9.96,221.56 -151.67,-157.71 6.88,-152.94 c 0.26,-5.88 -4.3,-10.87 -10.18,-11.13 -5.89,-0.27 -10.87,4.29 -11.13,10.19 l -5.97,132.67 -134.94,-140.32"
         style="fill:#ffffff;fill-opacity:1;fill-rule:evenodd;stroke:none"
         transform="matrix(0.13333333,0,0,-0.13333333,0,826.26667)" />
      <path
         id="path30"
         d="m 3003.15,3669.74 c 308.21,-128.51 551.51,-399.51 630.36,-750.1 78.85,-350.57 -24.96,-699.65 -248.48,-947.75 -308.21,128.5 -551.51,399.5 -630.36,750.09 -78.84,350.59 24.97,699.66 248.48,947.76"
         style="fill:#a4e2f9;fill-opacity:1;fill-rule:evenodd;stroke:none"
         transform="matrix(0.13333333,0,0,-0.13333333,0,826.26667)" />
      <path
         id="path31"
         d="m 3346.29,2203.28 c 1.58,-6.99 -2.82,-13.93 -9.81,-15.51 -7,-1.57 -13.95,2.82 -15.52,9.81 l -51.83,230.46 -89.57,-133.94 c -3.98,-5.94 -12.02,-7.53 -17.96,-3.58 -5.95,3.97 -7.54,12.01 -3.58,17.96 l 103.27,154.4 -58.25,259 -149.62,-223.67 c -3.96,-5.95 -12,-7.55 -17.95,-3.58 -5.93,3.98 -7.54,12.01 -3.57,17.96 l 163.31,244.13 -72.71,323.31 -149.62,-223.67 c -3.97,-5.94 -12.02,-7.54 -17.95,-3.57 -5.94,3.97 -7.54,12.02 -3.58,17.95 l 163.3,244.14 -43.18,191.98 -89.59,-133.93 c -3.96,-5.94 -12.01,-7.54 -17.95,-3.57 -5.94,3.97 -7.54,12.01 -3.57,17.95 l 103.27,154.39 -40.36,179.5 c -1.58,6.98 2.81,13.93 9.8,15.5 6.99,1.57 13.94,-2.82 15.51,-9.81 l 40.37,-179.49 159.43,-95.31 c 6.14,-3.66 8.14,-11.61 4.47,-17.75 -3.68,-6.13 -11.63,-8.12 -17.76,-4.46 l -138.31,82.68 43.19,-191.99 252.11,-150.7 c 6.14,-3.67 8.12,-11.62 4.45,-17.76 -3.66,-6.13 -11.61,-8.12 -17.75,-4.45 l -230.98,138.07 72.72,-323.32 252.11,-150.7 c 6.13,-3.67 8.13,-11.62 4.46,-17.74 -3.67,-6.14 -11.63,-8.14 -17.76,-4.47 l -230.98,138.07 58.28,-259.01 159.43,-95.3 c 6.12,-3.67 8.11,-11.62 4.45,-17.75 -3.66,-6.13 -11.61,-8.13 -17.75,-4.46 l -138.3,82.67 51.83,-230.44"
         style="fill:#ffffff;fill-opacity:1;fill-rule:evenodd;stroke:none"
         transform="matrix(0.13333333,0,0,-0.13333333,0,826.26667)" />
      <path
         id="path32"
         d="M 214.398,5840.09 H 3445.3 c 117.94,0 214.41,-96.48 214.41,-214.4 V 3210.91 c 0,-117.93 -96.47,-214.41 -214.41,-214.41 H 214.398 C 96.4805,2996.5 0,3092.98 0,3210.91 v 2414.78 c 0,117.92 96.4805,214.4 214.398,214.4"
         style="fill:#69ceea;fill-opacity:1;fill-rule:evenodd;stroke:none"
         transform="matrix(0.13333333,0,0,-0.13333333,0,826.26667)" />
      <path
         id="path33"
         d="m 1352.3,5150.08 h 955.11 v 144.4 H 1352.3 v -144.4"
         style="fill:#aee5f3;fill-opacity:1;fill-rule:evenodd;stroke:none"
         transform="matrix(0.13333333,0,0,-0.13333333,0,826.26667)" />
      <path
         id="path34"
         d="M 538.012,4933.46 H 3121.69 v 81.63 H 538.012 v -81.63"
         style="fill:#aee5f3;fill-opacity:1;fill-rule:evenodd;stroke:none"
         transform="matrix(0.13333333,0,0,-0.13333333,0,826.26667)" />
      <path
         id="path35"
         d="M 331.996,3392.04 H 796.621 V 3684 H 331.996 v -291.96"
         style="fill:#94dcef;fill-opacity:1;fill-rule:evenodd;stroke:none"
         transform="matrix(0.13333333,0,0,-0.13333333,0,826.26667)" />
      <path
         id="path36"
         d="m 981.84,3935.17 c 154.87,0 309.75,0 464.62,0 0,-181.04 0,-362.08 0,-543.13 -154.87,0 -309.75,0 -464.62,0 0,181.05 0,362.09 0,543.13"
         style="fill:#aee5f3;fill-opacity:1;fill-rule:evenodd;stroke:none"
         transform="matrix(0.13333333,0,0,-0.13333333,0,826.26667)" />
      <path
         id="path37"
         d="m 1631.68,4186.34 c 154.88,0 309.76,0 464.63,0 0,-264.77 0,-529.53 0,-794.3 -154.87,0 -309.75,0 -464.63,0 0,264.77 0,529.53 0,794.3"
         style="fill:#c9edf6;fill-opacity:1;fill-rule:evenodd;stroke:none"
         transform="matrix(0.13333333,0,0,-0.13333333,0,826.26667)" />
      <path
         id="path38"
         d="m 2281.53,4437.5 c 154.87,0 309.74,0 464.62,0 0,-348.49 0,-696.97 0,-1045.46 -154.88,0 -309.75,0 -464.62,0 0,348.49 0,696.97 0,1045.46"
         style="fill:#e6f7fc;fill-opacity:1;fill-rule:evenodd;stroke:none"
         transform="matrix(0.13333333,0,0,-0.13333333,0,826.26667)" />
      <path
         id="path39"
         d="m 2931.37,3392.04 h 464.62 V 4688.67 H 2931.37 V 3392.04"
         style="fill:#ffffff;fill-opacity:1;fill-rule:evenodd;stroke:none"
         transform="matrix(0.13333333,0,0,-0.13333333,0,826.26667)" />
      <path
         id="path40"
         d="M 214.398,5840.09 H 3445.3 c 117.94,0 214.41,-96.48 214.41,-214.4 V 5453.03 H 0 v 172.66 c 0,117.92 96.4805,214.4 214.398,214.4"
         style="fill:#94dcef;fill-opacity:1;fill-rule:evenodd;stroke:none"
         transform="matrix(0.13333333,0,0,-0.13333333,0,826.26667)" />
      <path
         id="path41"
         d="m 3575.02,3439.15 -31.37,-213.48 112.12,-1923.34 -126.32,-149.12 552.6,-222.401 8.14,158.811 -108.65,1906.88 c 60.3,118.25 50.73,260.1 -10.72,442.65 h -395.8"
         style="fill:#1c3b61;fill-opacity:1;fill-rule:evenodd;stroke:none"
         transform="matrix(0.13333333,0,0,-0.13333333,0,826.26667)" />
      <path
         id="path42"
         d="m 3603.3,3571 307.64,-345.33 302.94,-2145.72 -14.11,-149.141 h 517.97 l -84.48,158.811 -263.99,1906.88 c 49.76,118.25 27.53,260.1 -50.2,442.65 L 3603.3,3571"
         style="fill:#26548e;fill-opacity:1;fill-rule:evenodd;stroke:none"
         transform="matrix(0.13333333,0,0,-0.13333333,0,826.26667)" />
      <path
         id="path43"
         d="m 3810.57,4872.1 -2.66,-0.45 c -143.44,-23.95 -255.71,-110.68 -315.1,-243.4 -63,-140.74 -159.89,-212.6 -240.21,-244.46 -111.91,-44.4 -237.87,-36.22 -343.1,22.28 -78.64,43.71 -176.08,34.41 -245.03,-23.39 -68.93,-57.8 -95.09,-152.12 -65.77,-237.17 82.89,-240.42 308.55,-402.27 562.85,-403.69 254.3,-1.41 481.76,157.93 567.3,397.41 95.07,266.09 271.48,523.5 81.72,732.87"
         style="fill:#ed3849;fill-opacity:1;fill-rule:evenodd;stroke:none"
         transform="matrix(0.13333333,0,0,-0.13333333,0,826.26667)" />
      <path
         id="path44"
         d="m 4086.75,4911.5 c 377.49,0 508.71,-381.32 500.97,-632.27 l -185.6,-528.85 40.14,-67.14 c 28.46,-47.6 30.56,-106.44 5.59,-155.95 -25,-49.5 -73.61,-82.76 -128.78,-88.14 h -744.05 c -49.41,34.83 -82.32,88.48 -90.95,148.32 -8.63,59.85 7.8,120.61 45.38,167.97 l 45.57,57.43 v 687.79 c 0,226.28 184.58,410.84 410.86,410.84 h 100.87"
         style="fill:#f1485f;fill-opacity:1;fill-rule:evenodd;stroke:none"
         transform="matrix(0.13333333,0,0,-0.13333333,0,826.26667)" />
      <path
         id="path45"
         d="m 4546.35,4551.17 c 31.4,-92.61 43.91,-189.34 41.37,-271.94 l -185.6,-528.85 40.14,-67.14 c 28.46,-47.6 30.56,-106.44 5.59,-155.95 -25,-49.5 -73.61,-82.76 -128.78,-88.14 h -744.05 c 130.2,12.27 259.28,34.31 386.16,65.93 58.89,14.67 97.59,70.97 90.19,131.22 -7.38,60.24 -58.56,105.52 -119.26,105.52 h -122.27 c 204.04,108.96 342.73,309.99 372.15,539.45 l 51.51,401.84 312.85,-131.94"
         style="fill:#ed3849;fill-opacity:1;fill-rule:evenodd;stroke:none"
         transform="matrix(0.13333333,0,0,-0.13333333,0,826.26667)" />
      <path
         id="path46"
         d="m 4230.81,4861.46 77.56,-6.13 c 215.21,-17.02 397.05,-166.18 455.85,-373.89 18.61,-65.72 26.84,-133.95 24.41,-202.21 v -819.31 c 0,-110.08 -59.62,-211.54 -155.78,-265.11 -96.17,-53.58 -213.82,-50.87 -307.43,7.06 -93.59,57.94 -148.5,162.03 -143.43,272 v 1262.08 c 0,46.47 17.42,91.25 48.82,125.51"
         style="fill:#f1485f;fill-opacity:1;fill-rule:evenodd;stroke:none"
         transform="matrix(0.13333333,0,0,-0.13333333,0,826.26667)" />
      <path
         id="path47"
         d="m 4317.97,3038.06 h 303.32 v 355.62 h -303.32 v -355.62"
         style="fill:#f1485f;fill-opacity:1;fill-rule:evenodd;stroke:none"
         transform="matrix(0.13333333,0,0,-0.13333333,0,826.26667)" />
      <path
         id="path48"
         d="m 2555,4437.9 v 0 c 52.18,55.79 140.52,58.73 196.31,6.55 l 34.98,-32.72 c 55.79,-52.18 58.73,-140.52 6.55,-196.32 v 0 c -52.19,-55.79 -140.53,-58.73 -196.32,-6.55 l -34.98,32.73 c -55.78,52.18 -58.73,140.52 -6.54,196.31"
         style="fill:#ed3849;fill-opacity:1;fill-rule:evenodd;stroke:none"
         transform="matrix(0.13333333,0,0,-0.13333333,0,826.26667)" />
      <path
         id="path49"
         d="m 2452.31,5023.73 h 594.22 l 221.62,-848.4 h -594.23 l -221.61,848.4"
         style="fill:#2e2d2d;fill-opacity:1;fill-rule:evenodd;stroke:none"
         transform="matrix(0.13333333,0,0,-0.13333333,0,826.26667)" />
      <path
         id="path50"
         d="m 2585.42,5053.55 h 312.44 l 23.77,-91.04 H 2609.2 l -23.78,91.04"
         style="fill:#ffffff;fill-opacity:1;fill-rule:evenodd;stroke:none"
         transform="matrix(0.13333333,0,0,-0.13333333,0,826.26667)" />
      <path
         id="path51"
         d="m 2662.39,5086.52 h 141.27 l 23.79,-91.04 h -141.27 l -23.79,91.04"
         style="fill:#ffffff;fill-opacity:1;fill-rule:evenodd;stroke:none"
         transform="matrix(0.13333333,0,0,-0.13333333,0,826.26667)" />
      <path
         id="path52"
         d="m 4338.65,3038.06 97.81,-252.26 c 19.72,-50.83 70,-83.11 124.43,-79.87 79.29,4.75 149.38,53.14 181.92,125.61 14.85,33.13 18.41,70.23 10.1,105.57 -10.34,43.91 -52.33,72.78 -97.05,66.7 l -33.01,46.57 c -30.54,43.04 -84.43,62.87 -135.59,49.89 -52.33,-13.29 -102.42,-34.25 -148.61,-62.21"
         style="fill:#fbc589;fill-opacity:1;fill-rule:evenodd;stroke:none"
         transform="matrix(0.13333333,0,0,-0.13333333,0,826.26667)" />
      <path
         id="path53"
         d="m 2517.93,4351.11 -5.6,4.73 -2.63,4.92 -100.96,188.94 c -15.33,28.66 -16.77,62.74 -3.93,92.6 30.14,70.09 93.58,120.26 168.74,133.42 33.53,5.88 67.99,3.45 100.37,-7.06 14.81,-4.81 26.21,-16.74 30.33,-31.76 4.13,-15.01 0.43,-31.09 -9.83,-42.79 l 36.09,-133.43 c 10.45,-38.6 -6.7,-79.36 -41.59,-98.89 -27.12,-15.17 -52.51,-33.25 -75.75,-53.89 l 12.21,-46.77 -107.45,-10.02"
         style="fill:#fbc589;fill-opacity:1;fill-rule:evenodd;stroke:none"
         transform="matrix(0.13333333,0,0,-0.13333333,0,826.26667)" />
      <path
         id="path54"
         d="m 3529.45,1153.21 -41.56,-42.66 c -43.88,-45.05 -94.78,-82.67 -150.7,-111.448 -24.92,-12.832 -37.89,-41.012 -31.39,-68.293 12.46,-52.317 57.75,-90.278 111.44,-93.387 h 672.95 l -8.14,93.387 -412.07,234.671 -140.53,-12.27"
         style="fill:#1c3b61;fill-opacity:1;fill-rule:evenodd;stroke:none"
         transform="matrix(0.13333333,0,0,-0.13333333,0,826.26667)" />
      <path
         id="path55"
         d="m 4199.77,930.809 -11.82,-93.387 h 560.38 l -30.59,93.387 -140.5,70.631 c -127.39,64.04 -281.85,35.15 -377.47,-70.631"
         style="fill:#26548e;fill-opacity:1;fill-rule:evenodd;stroke:none"
         transform="matrix(0.13333333,0,0,-0.13333333,0,826.26667)" />
      <path
         id="path56"
         d="m 4195.19,5330.41 -319.39,-68.77 32.75,-462.06 319.37,68.77 -32.73,462.06"
         style="fill:#f8b76f;fill-opacity:1;fill-rule:evenodd;stroke:none"
         transform="matrix(0.13333333,0,0,-0.13333333,0,826.26667)" />
      <path
         id="path57"
         d="m 4325.83,5683.11 h -623.48 l -68.09,-475.12 c -24.57,-171.45 95.6,-311.73 267.06,-311.73 v 0 c 171.44,0 331.83,140.28 356.39,311.73 l 68.12,475.12"
         style="fill:#fbc589;fill-opacity:1;fill-rule:evenodd;stroke:none"
         transform="matrix(0.13333333,0,0,-0.13333333,0,826.26667)" />
      <path
         id="path58"
         d="m 3752.58,5106.95 c -8.09,-59.7 33.91,-108.4 93.71,-108.4 v 0 c 59.81,0 115.77,48.7 124.77,108.4 h -218.48"
         style="fill:#ffffff;fill-opacity:1;fill-rule:evenodd;stroke:none"
         transform="matrix(0.13333333,0,0,-0.13333333,0,826.26667)" />
      <path
         id="path59"
         d="m 3670.47,5460.75 -39.41,175.75 c -6.33,73.71 31.3,144.27 96.01,180.11 64.74,35.84 144.48,30.3 203.62,-14.17 h 276.88 c 60,0 112.02,-41.55 125.3,-100.07 l 15.06,-21.92 c 31.47,-45.76 39.58,-103.63 21.94,-156.27 -60.3,-180 -98.43,-325.51 -152.45,-507.49 l -53.36,221.01 -12.35,114.46 h -69.68 l 36.12,176.14 -289.91,-17.82 c -51.04,-2.86 -101.75,9.85 -145.42,36.44 l -12.35,-86.17"
         style="fill:#2e2d2d;fill-opacity:1;fill-rule:evenodd;stroke:none"
         transform="matrix(0.13333333,0,0,-0.13333333,0,826.26667)" />
      <path
         id="path60"
         d="m 4212.59,5427.13 c -34.26,5.65 -70.46,-40.84 -80.86,-103.84 -10.39,-63 8.95,-118.65 43.21,-124.3 34.26,-5.66 70.48,40.83 80.87,103.83 10.41,63 -8.96,118.65 -43.22,124.31"
         style="fill:#fbc589;fill-opacity:1;fill-rule:evenodd;stroke:none"
         transform="matrix(0.13333333,0,0,-0.13333333,0,826.26667)" />
      <path
         id="path61"
         d="m 3884.06,5396.5 92.85,-12.28 c 10.28,-1.35 20.34,-4.65 29.76,-9.75 l 14.12,33.95 c -16.36,12.4 -34.86,20.15 -54.11,22.65 l -79.02,10.22 -3.6,-44.79"
         style="fill:#2e2d2d;fill-opacity:1;fill-rule:evenodd;stroke:none"
         transform="matrix(0.13333333,0,0,-0.13333333,0,826.26667)" />
      <path
         id="path62"
         d="m 3946.92,5275.12 c 19.38,0 35.21,21.04 35.21,46.82 0,25.79 -15.83,46.83 -35.21,46.83 -19.41,0 -35.22,-21.04 -35.22,-46.83 0,-25.78 15.81,-46.82 35.22,-46.82"
         style="fill:#2e2d2d;fill-opacity:1;fill-rule:evenodd;stroke:none"
         transform="matrix(0.13333333,0,0,-0.13333333,0,826.26667)" />
      <path
         id="path63"
         d="m 3792.34,5396.5 -76.43,-12.28 c -8.47,-1.35 -16.74,-4.65 -24.49,-9.75 l -11.61,33.95 c 13.48,12.4 28.68,20.15 44.51,22.65 l 65.03,10.22 2.99,-44.79"
         style="fill:#2e2d2d;fill-opacity:1;fill-rule:evenodd;stroke:none"
         transform="matrix(0.13333333,0,0,-0.13333333,0,826.26667)" />
      <path
         id="path64"
         d="m 3748.17,5275.12 c 17.21,0 31.23,21.04 31.23,46.82 0,25.79 -14.02,46.83 -31.23,46.83 -17.19,0 -31.2,-21.04 -31.2,-46.83 0,-25.78 14.01,-46.82 31.2,-46.82"
         style="fill:#2e2d2d;fill-opacity:1;fill-rule:evenodd;stroke:none"
         transform="matrix(0.13333333,0,0,-0.13333333,0,826.26667)" />
      <path
         id="path65"
         d="m 3798.66,5174.41 c -30.44,0 -47.58,13.31 -47.58,0 0,-13.31 35.98,-45.78 66.42,-45.78 30.43,0 43.8,32.47 43.8,45.78 0,13.31 -32.2,0 -62.64,0"
         style="fill:#eca356;fill-opacity:1;fill-rule:evenodd;stroke:none"
         transform="matrix(0.13333333,0,0,-0.13333333,0,826.26667)" />
      <path
         id="path66"
         d="m 1155.68,5732.11 h 208.77 c 47.04,0 85.55,-38.5 85.55,-85.55 v 0 c 0,-47.05 -38.51,-85.55 -85.55,-85.55 h -208.77 c -47.05,0 -85.55,38.5 -85.55,85.55 v 0 c 0,47.05 38.5,85.55 85.55,85.55 z m -911.981,0 h 208.766 c 47.051,0 85.547,-38.5 85.547,-85.55 v 0 c 0,-47.05 -38.496,-85.55 -85.547,-85.55 H 243.699 c -47.051,0 -85.547,38.5 -85.547,85.55 v 0 c 0,47.05 38.496,85.55 85.547,85.55 z m 455.992,0 c 69.59,0 139.18,0 208.766,0 47.051,0 85.547,-38.5 85.547,-85.55 v 0 c 0,-47.05 -38.496,-85.55 -85.547,-85.55 -69.586,0 -139.176,0 -208.766,0 -47.05,0 -85.546,38.5 -85.546,85.55 v 0 c 0,47.05 38.496,85.55 85.546,85.55 v 0"
         style="fill:#ffffff;fill-opacity:1;fill-rule:evenodd;stroke:none"
         transform="matrix(0.13333333,0,0,-0.13333333,0,826.26667)" />
    </g>
  </g>
</svg>
