<?xml version="1.0" encoding="UTF-8" standalone="no"?>
<!-- Created with Inkscape (http://www.inkscape.org/) -->

<svg
   version="1.1"
   id="svg1"
   width="776.46667"
   height="598.32001"
   viewBox="0 0 776.46667 598.32001"
   sodipodi:docname="car.svg"
   inkscape:version="1.3.2 (091e20ef0f, 2023-11-25, custom)"
   xmlns:inkscape="http://www.inkscape.org/namespaces/inkscape"
   xmlns:sodipodi="http://sodipodi.sourceforge.net/DTD/sodipodi-0.dtd"
   xmlns="http://www.w3.org/2000/svg"
   xmlns:svg="http://www.w3.org/2000/svg">
  <defs
     id="defs1" />
  <sodipodi:namedview
     id="namedview1"
     pagecolor="#505050"
     bordercolor="#ffffff"
     borderopacity="1"
     inkscape:showpageshadow="0"
     inkscape:pageopacity="0"
     inkscape:pagecheckerboard="1"
     inkscape:deskcolor="#d1d1d1"
     inkscape:zoom="1.2936221"
     inkscape:cx="388.05768"
     inkscape:cy="299.16"
     inkscape:window-width="1920"
     inkscape:window-height="1002"
     inkscape:window-x="0"
     inkscape:window-y="0"
     inkscape:window-maximized="1"
     inkscape:current-layer="g1">
    <inkscape:page
       x="0"
       y="0"
       inkscape:label="1"
       id="page1"
       width="776.46667"
       height="598.32001"
       margin="0"
       bleed="0" />
  </sodipodi:namedview>
  <g
     id="g1"
     inkscape:groupmode="layer"
     inkscape:label="1">
    <g
       id="group-R5">
      <path
         id="path2"
         d="m 1869.11,100.27 c 0,7.519 -1.08,14 -3.31,19.3 -2.16,5.379 -5.19,9.532 -9.1,12.461 -3.89,2.84 -8.18,4.309 -12.92,4.309 -7.49,0 -13.83,-3.16 -18.99,-9.301 -5.15,-6.199 -7.73,-15.25 -7.73,-27.2499 0,-11.3203 2.58,-20.1094 7.66,-26.3086 5.15,-6.3086 11.52,-9.4688 19.06,-9.4688 4.51,0 8.73,1.3594 12.6,4.1485 3.8,2.7304 6.9,6.832 9.24,12.2617 2.34,5.5273 3.49,12.0976 3.49,19.8481 z m -53.31,41.371 v -3.422 c 5.1,6.551 10.39,11.453 15.9,14.492 5.53,3.098 11.82,4.66 18.8,4.66 8.35,0 16.06,-2.262 23.1,-6.769 7.03,-4.512 12.59,-11.071 16.7,-19.77 4.08,-8.684 6.09,-18.91 6.09,-30.781 0,-8.7112 -1.14,-16.8401 -3.5,-24.0393 -2.35,-7.332 -5.6,-13.5117 -9.71,-18.4531 -4.12,-4.9492 -9.02,-8.7891 -14.6,-11.4297 -5.64,-2.707 -11.69,-4.0195 -18.08,-4.0195 -7.81,0 -14.34,1.6211 -19.62,4.8828 C 1825.55,50.25 1820.55,55 1815.8,61.3203 V 18.7188 C 1815.8,6.21875 1811.44,0 1802.73,0 c -5.11,0 -8.52,1.58984 -10.13,4.80078 -1.68,3.23828 -2.5,7.94922 -2.5,14.10152 V 141.461 c 0,5.398 1.09,9.449 3.37,12.109 2.3,2.641 5.37,4.012 9.26,4.012 3.86,0 7,-1.371 9.42,-4.141 2.42,-2.75 3.65,-6.699 3.65,-11.8"
         style="fill:#100f0d;fill-opacity:1;fill-rule:nonzero;stroke:none"
         transform="matrix(0.13333333,0,0,-0.13333333,0,598.32)" />
      <path
         id="path3"
         d="M 1988.93,58.1719 V 61.75 c -3.27,-4.2891 -6.68,-7.8711 -10.28,-10.7695 -3.59,-2.961 -7.51,-5.1094 -11.74,-6.5117 -4.29,-1.4102 -9.13,-2.129 -14.58,-2.129 -6.54,0 -12.44,1.4297 -17.67,4.2422 -5.22,2.8399 -9.27,6.7696 -12.08,11.75 -3.44,6.0391 -5.09,14.7071 -5.09,25.9688 V 140.57 c 0,5.641 1.22,9.922 3.69,12.711 2.46,2.809 5.7,4.219 9.73,4.219 4.14,0 7.44,-1.41 9.98,-4.289 2.53,-2.852 3.77,-7.082 3.77,-12.641 V 95.0898 c 0,-6.5312 0.53,-12.0781 1.56,-16.5078 1.11,-4.5 3.02,-7.9922 5.8,-10.5625 2.7,-2.4882 6.46,-3.7578 11.17,-3.7578 4.63,0 8.93,1.4375 12.96,4.2696 4.08,2.8085 7.05,6.5078 8.89,11.0898 1.53,4.0195 2.28,12.8203 2.28,26.4099 v 34.539 c 0,5.559 1.26,9.789 3.81,12.641 2.5,2.879 5.75,4.289 9.83,4.289 4.06,0 7.31,-1.41 9.77,-4.219 2.42,-2.789 3.64,-7.07 3.64,-12.711 V 58.332 c 0,-5.4023 -1.13,-9.4726 -3.5,-12.1523 -2.33,-2.7305 -5.37,-4.0508 -9.1,-4.0508 -3.71,0 -6.77,1.4414 -9.21,4.1719 -2.42,2.8515 -3.63,6.7383 -3.63,11.8711"
         style="fill:#100f0d;fill-opacity:1;fill-rule:nonzero;stroke:none"
         transform="matrix(0.13333333,0,0,-0.13333333,0,598.32)" />
      <path
         id="path4"
         d="m 2067.83,99.1406 c 0,-11.289 2.46,-19.9297 7.38,-26.0195 4.98,-6.0391 11.47,-9.1094 19.53,-9.1094 6.85,0 12.7,3.1172 17.69,9.3086 4.97,6.2188 7.45,15.0586 7.45,26.6485 0,7.5702 -1.04,13.9802 -3.11,19.3712 -2.08,5.441 -5.02,9.621 -8.76,12.539 -3.84,2.941 -8.21,4.461 -13.27,4.461 -5.23,0 -9.77,-1.52 -13.86,-4.461 -4.08,-2.918 -7.24,-7.207 -9.58,-12.809 -2.33,-5.531 -3.47,-12.148 -3.47,-19.9294 z m -1.29,84.3904 v -43.39 c 5.05,5.589 10.3,9.789 15.6,12.808 5.33,2.93 11.93,4.422 19.74,4.422 9.05,0 16.96,-2.262 23.77,-6.68 6.8,-4.562 12.11,-10.992 15.84,-19.492 3.79,-8.469 5.64,-18.547 5.64,-30.187 0,-8.6214 -1.03,-16.4925 -3.1,-23.7112 -2.11,-7.1406 -5.11,-13.332 -9.12,-18.6719 -4.02,-5.2305 -8.86,-9.2578 -14.51,-12.2383 -5.71,-2.8203 -11.97,-4.2812 -18.8,-4.2812 -4.15,0 -8.12,0.5312 -11.83,1.539 -3.68,1.0625 -6.85,2.4219 -9.37,4.1602 -2.63,1.6133 -4.84,3.4219 -6.67,5.1836 -1.82,1.8398 -4.21,4.5078 -7.19,8.1172 V 58.332 c 0,-5.3632 -1.26,-9.3906 -3.72,-12.1523 -2.42,-2.7305 -5.6,-4.0703 -9.34,-4.0703 -3.88,0 -6.93,1.3398 -9.26,4.0703 -2.26,2.8203 -3.4,6.8125 -3.4,12.1523 v 123.969 c 0,5.711 1.1,10.07 3.35,13 2.22,2.961 5.29,4.429 9.31,4.429 4.16,0 7.39,-1.398 9.63,-4.23 2.28,-2.781 3.43,-6.758 3.43,-11.969"
         style="fill:#100f0d;fill-opacity:1;fill-rule:nonzero;stroke:none"
         transform="matrix(0.13333333,0,0,-0.13333333,0,598.32)" />
      <path
         id="path5"
         d="M 2166.33,59.3906 V 182.469 c 0,5.722 1.21,9.98 3.6,12.91 2.47,2.883 5.72,4.351 9.85,4.351 4.12,0 7.42,-1.421 9.96,-4.308 2.48,-2.863 3.8,-7.223 3.8,-12.953 V 59.3906 c 0,-5.7695 -1.32,-10.1015 -3.87,-13 -2.54,-2.8203 -5.85,-4.2812 -9.89,-4.2812 -3.99,0 -7.19,1.5 -9.7,4.4726 -2.5,2.9883 -3.75,7.2383 -3.75,12.8086"
         style="fill:#100f0d;fill-opacity:1;fill-rule:nonzero;stroke:none"
         transform="matrix(0.13333333,0,0,-0.13333333,0,598.32)" />
      <path
         id="path6"
         d="M 2248.8,141.379 V 59.3906 c 0,-5.7304 -1.32,-10.0195 -3.85,-12.9297 -2.62,-2.8515 -5.92,-4.3515 -9.87,-4.3515 -4,0 -7.25,1.5 -9.72,4.4414 -2.47,3.0195 -3.76,7.2695 -3.76,12.8398 V 140.57 c 0,5.559 1.29,9.789 3.76,12.641 2.47,2.879 5.72,4.289 9.72,4.289 3.95,0 7.25,-1.41 9.87,-4.289 2.53,-2.852 3.85,-6.77 3.85,-11.832 z m -13.45,29.34 c -3.79,0 -7,1.222 -9.75,3.711 -2.62,2.41 -4,5.859 -4,10.32 0,3.992 1.38,7.27 4.15,9.922 2.76,2.609 5.95,3.828 9.6,3.828 3.52,0 6.66,-1.141 9.37,-3.488 2.71,-2.352 4.08,-5.821 4.08,-10.262 0,-4.418 -1.33,-7.82 -4,-10.25 -2.66,-2.461 -5.77,-3.781 -9.45,-3.781"
         style="fill:#100f0d;fill-opacity:1;fill-rule:nonzero;stroke:none"
         transform="matrix(0.13333333,0,0,-0.13333333,0,598.32)" />
      <path
         id="path7"
         d="m 2374.33,77.2617 c 0,-3.5195 -1,-7.3203 -3.02,-11.3398 -2.05,-4.0117 -5.13,-7.8203 -9.3,-11.4727 -4.12,-3.6289 -9.36,-6.5586 -15.67,-8.75 -6.31,-2.2773 -13.43,-3.3594 -21.31,-3.3594 -16.82,0 -29.93,5.1211 -39.37,15.3321 -9.41,10.2187 -14.14,23.8867 -14.14,41.0976 0,11.6405 2.15,21.9605 6.45,30.8785 4.31,8.891 10.61,15.864 18.74,20.711 8.15,4.93 17.95,7.371 29.27,7.371 7.07,0 13.54,-1.109 19.42,-3.23 5.87,-2.16 10.85,-4.949 14.93,-8.309 4.08,-3.402 7.2,-7.039 9.37,-10.859 2.18,-3.832 3.23,-7.441 3.23,-10.773 0,-3.348 -1.24,-6.227 -3.63,-8.598 -2.44,-2.379 -5.34,-3.551 -8.81,-3.551 -2.28,0 -4.13,0.66 -5.66,1.871 -1.45,1.168 -3.15,3.078 -5.03,5.84 -3.3,5.238 -6.79,9.231 -10.4,11.91 -3.63,2.61 -8.23,3.961 -13.76,3.961 -8.09,0 -14.56,-3.332 -19.46,-9.871 -4.93,-6.59 -7.36,-15.539 -7.36,-26.9101 0,-5.3007 0.63,-10.2695 1.91,-14.7109 1.25,-4.4883 3.07,-8.2891 5.45,-11.4609 2.4,-3.1602 5.26,-5.5274 8.66,-7.1602 3.39,-1.6601 7.12,-2.4492 11.14,-2.4492 5.48,0 10.13,1.2891 14.02,3.9297 3.9,2.6601 7.33,6.6797 10.31,12.0312 1.67,3.2696 3.45,5.7383 5.39,7.5586 1.95,1.8125 4.31,2.6719 7.09,2.6719 3.31,0 6.07,-1.2813 8.28,-3.9219 2.15,-2.6875 3.26,-5.457 3.26,-8.4375"
         style="fill:#100f0d;fill-opacity:1;fill-rule:nonzero;stroke:none"
         transform="matrix(0.13333333,0,0,-0.13333333,0,598.32)" />
      <path
         id="path8"
         d="m 2419.13,99.9688 c 0,-7.6875 1.14,-14.1993 3.42,-19.6368 2.31,-5.4218 5.4,-9.4414 9.39,-12.1718 4.01,-2.7891 8.37,-4.1485 13.04,-4.1485 4.8,0 9.16,1.3203 13.1,3.8789 3.98,2.6211 7.09,6.6289 9.48,11.9883 2.37,5.3633 3.53,12.082 3.53,20.0899 0,7.6132 -1.16,14.0702 -3.53,19.5312 -2.39,5.449 -5.55,9.602 -9.56,12.531 -4.03,2.84 -8.41,4.309 -13.19,4.309 -4.96,0 -9.4,-1.52 -13.34,-4.461 -3.89,-2.918 -6.97,-7.199 -9.12,-12.707 -2.14,-5.531 -3.22,-11.863 -3.22,-19.2032 z m 53.46,-41.6368 v 2.7774 c -3.66,-4.3672 -7.26,-7.9102 -10.86,-10.6094 -3.49,-2.7695 -7.36,-4.8398 -11.52,-6.2695 -4.13,-1.3907 -8.67,-2.1211 -13.57,-2.1211 -6.5,0 -12.57,1.4609 -18.09,4.2812 -5.53,2.9805 -10.32,7.0313 -14.38,12.3594 -4.04,5.3398 -7.11,11.6094 -9.22,18.8516 -2.12,7.1797 -3.14,14.9804 -3.14,23.4104 0,17.687 4.16,31.59 12.46,41.5 8.32,9.91 19.23,14.859 32.76,14.859 7.83,0 14.45,-1.422 19.82,-4.281 5.37,-2.77 10.63,-7.078 15.74,-12.949 v 41.91 c 0,5.84 1.1,10.238 3.34,13.211 2.21,2.988 5.35,4.468 9.49,4.468 4.11,0 7.28,-1.378 9.53,-4.078 2.21,-2.73 3.36,-6.781 3.36,-12.121 V 58.332 c 0,-5.4023 -1.21,-9.4726 -3.61,-12.1523 -2.41,-2.7305 -5.46,-4.0703 -9.28,-4.0703 -3.68,0 -6.79,1.4023 -9.22,4.1914 -2.41,2.8008 -3.61,6.7812 -3.61,12.0312"
         style="fill:#100f0d;fill-opacity:1;fill-rule:nonzero;stroke:none"
         transform="matrix(0.13333333,0,0,-0.13333333,0,598.32)" />
      <path
         id="path9"
         d="m 2600.12,99.75 c 0,11.531 -2.48,20.57 -7.34,27.02 -4.88,6.41 -11.46,9.66 -19.68,9.66 -5.35,0 -10,-1.45 -14.06,-4.321 -4.04,-2.918 -7.16,-7.16 -9.35,-12.769 -2.18,-5.559 -3.3,-12.07 -3.3,-19.59 0,-7.4297 1.12,-13.8906 3.24,-19.418 2.15,-5.5429 5.25,-9.7929 9.3,-12.7422 3.99,-2.9414 8.76,-4.3906 14.17,-4.3906 8.22,0 14.8,3.2227 19.68,9.6914 4.86,6.461 7.34,15.4492 7.34,26.8594 z m 27.28,0 c 0,-8.4102 -1.28,-16.2109 -3.79,-23.3984 -2.52,-7.0821 -6.17,-13.2305 -10.92,-18.3828 -4.82,-5.1368 -10.53,-8.9688 -17.16,-11.7891 -6.64,-2.7305 -14.17,-4.0703 -22.43,-4.0703 -8.22,0 -15.64,1.3398 -22.19,4.1523 -6.58,2.7696 -12.31,6.7305 -17.13,11.9102 -4.79,5.1679 -8.42,11.2304 -10.95,18.2578 -2.48,7.082 -3.72,14.8125 -3.72,23.3711 0,8.5902 1.28,16.4492 3.77,23.5582 2.53,7.18 6.12,13.231 10.86,18.332 4.72,5.051 10.42,8.95 17.17,11.68 6.72,2.75 14.08,4.129 22.19,4.129 8.25,0 15.72,-1.379 22.43,-4.168 6.68,-2.762 12.43,-6.762 17.2,-11.871 4.82,-5.121 8.44,-11.262 10.88,-18.332 2.55,-7.047 3.79,-14.859 3.79,-23.379"
         style="fill:#100f0d;fill-opacity:1;fill-rule:nonzero;stroke:none"
         transform="matrix(0.13333333,0,0,-0.13333333,0,598.32)" />
      <path
         id="path10"
         d="m 2742.26,123.199 c -2.05,-4.801 -3.01,-13.269 -3.01,-25.4568 V 60.0195 c 0,-5.9375 -1.27,-10.4492 -3.89,-13.4375 -2.58,-2.9726 -6.04,-4.4726 -10.29,-4.4726 -4.08,0 -7.41,1.5 -9.95,4.4726 -2.56,2.9883 -3.81,7.5 -3.81,13.4375 v 45.2695 c 0,7.121 -0.27,12.652 -0.74,16.66 -0.47,3.903 -1.72,7.16 -3.78,9.703 -2.02,2.547 -5.3,3.809 -9.72,3.809 -8.9,0 -14.75,-3.191 -17.6,-9.609 -2.84,-6.352 -4.19,-15.512 -4.19,-27.4536 V 60.0195 c 0,-5.9297 -1.31,-10.3906 -3.83,-13.3398 -2.59,-3.0703 -5.96,-4.5703 -10.09,-4.5703 -4.15,0 -7.56,1.5 -10.16,4.5703 -2.65,2.9492 -3.9,7.4101 -3.9,13.332 v 81.2073 c 0,5.351 1.13,9.422 3.46,12.179 2.39,2.75 5.49,4.184 9.38,4.184 3.71,0 6.82,-1.293 9.29,-3.902 2.48,-2.578 3.73,-6.16 3.73,-10.75 v -2.688 c 4.7,5.887 9.76,10.238 15.12,12.969 5.37,2.781 11.42,4.16 17.94,4.16 6.82,0 12.68,-1.422 17.59,-4.281 4.94,-2.809 8.97,-7.121 12.14,-12.848 4.59,5.77 9.5,10.117 14.77,12.93 5.25,2.82 11.05,4.199 17.4,4.199 7.5,0 13.89,-1.492 19.22,-4.582 5.4,-3.047 9.41,-7.41 12.08,-13.09 2.34,-5.14 3.48,-13.199 3.48,-24.25 V 60.0195 c 0,-5.9375 -1.29,-10.4492 -3.84,-13.4375 -2.65,-2.9726 -6.03,-4.4726 -10.29,-4.4726 -4.13,0 -7.49,1.5 -10.1,4.5703 -2.65,2.9492 -3.97,7.4101 -3.97,13.3398 v 47.7695 c 0,6.102 -0.24,10.973 -0.73,14.652 -0.5,3.707 -1.85,6.75 -4.06,9.258 -2.18,2.5 -5.52,3.762 -9.93,3.762 -3.58,0 -7.01,-1.121 -10.18,-3.289 -3.27,-2.25 -5.71,-5.223 -7.54,-8.973 v 0"
         style="fill:#100f0d;fill-opacity:1;fill-rule:nonzero;stroke:none"
         transform="matrix(0.13333333,0,0,-0.13333333,0,598.32)" />
      <path
         id="path11"
         d="m 2896.27,99.2109 c -4,-1.5586 -9.8,-3.1211 -17.4,-4.8515 -7.62,-1.6992 -12.88,-2.9375 -15.8,-3.75 -2.93,-0.8203 -5.73,-2.3672 -8.34,-4.6602 -2.69,-2.3906 -4.03,-5.6172 -4.03,-9.7773 0,-4.3321 1.59,-7.961 4.67,-10.9805 3.15,-3.0625 7.24,-4.5312 12.29,-4.5312 5.37,0 10.36,1.25 14.89,3.7109 4.55,2.4375 7.92,5.6484 10,9.5 2.47,4.3203 3.72,11.3711 3.72,21.3008 z m 1.77,-41.1093 c -6.59,-5.3516 -12.94,-9.3321 -19.08,-11.9727 -6.12,-2.707 -13.05,-4.0195 -20.65,-4.0195 -7.02,0 -13.09,1.4609 -18.41,4.2812 -5.32,2.8985 -9.34,6.8086 -12.21,11.7813 -2.83,4.9101 -4.29,10.1875 -4.29,15.9804 0,7.7696 2.42,14.3594 7.12,19.8477 4.67,5.4492 11.14,9.129 19.37,11.012 1.73,0.418 6.04,1.32 12.84,2.777 6.91,1.492 12.71,2.793 17.67,4 4.83,1.191 10.16,2.672 15.87,4.391 -0.35,7.519 -1.78,13.011 -4.32,16.59 -2.59,3.46 -7.93,5.171 -15.91,5.171 -6.95,0 -12.11,-0.98 -15.65,-2.992 -3.46,-1.98 -6.47,-5.027 -8.93,-9.097 -2.52,-3.993 -4.24,-6.661 -5.27,-7.922 -1.06,-1.321 -3.28,-1.891 -6.61,-1.891 -3.1,0 -5.72,1 -7.92,3.02 -2.26,2.062 -3.36,4.64 -3.36,7.89 0,4.973 1.7,9.86 5.06,14.512 3.4,4.73 8.69,8.598 15.85,11.711 7.17,3.039 16.13,4.558 26.83,4.558 11.92,0 21.33,-1.519 28.22,-4.449 6.82,-2.922 11.6,-7.551 14.45,-13.972 2.84,-6.34 4.24,-14.84 4.24,-25.36 0,-6.64 0,-12.34 -0.04,-16.949 -0.05,-4.6797 -0.08,-9.8281 -0.15,-15.5078 0,-5.3203 0.84,-10.9024 2.56,-16.6602 1.65,-5.7929 2.49,-9.5429 2.49,-11.1718 0,-2.918 -1.33,-5.5782 -3.93,-7.961 -2.57,-2.3906 -5.58,-3.5898 -8.88,-3.5898 -2.83,0 -5.53,1.3398 -8.3,4.0703 -2.71,2.7617 -5.6,6.75 -8.66,11.9219"
         style="fill:#100f0d;fill-opacity:1;fill-rule:nonzero;stroke:none"
         transform="matrix(0.13333333,0,0,-0.13333333,0,598.32)" />
      <path
         id="path12"
         d="M 2977.77,141.379 V 59.3906 c 0,-5.7304 -1.3,-10.0195 -3.85,-12.9297 -2.59,-2.8515 -5.85,-4.3515 -9.85,-4.3515 -3.98,0 -7.26,1.5 -9.71,4.4414 -2.53,3.0195 -3.78,7.2695 -3.78,12.8398 V 140.57 c 0,5.559 1.25,9.789 3.78,12.641 2.45,2.879 5.73,4.289 9.71,4.289 4,0 7.26,-1.41 9.85,-4.289 2.55,-2.852 3.85,-6.77 3.85,-11.832 z m -13.44,29.34 c -3.74,0 -6.97,1.222 -9.66,3.711 -2.69,2.41 -4.09,5.859 -4.09,10.32 0,3.992 1.41,7.27 4.18,9.922 2.73,2.609 5.96,3.828 9.57,3.828 3.54,0 6.69,-1.141 9.42,-3.488 2.68,-2.352 4.02,-5.821 4.02,-10.262 0,-4.418 -1.3,-7.82 -3.97,-10.25 -2.66,-2.461 -5.81,-3.781 -9.47,-3.781"
         style="fill:#100f0d;fill-opacity:1;fill-rule:nonzero;stroke:none"
         transform="matrix(0.13333333,0,0,-0.13333333,0,598.32)" />
      <path
         id="path13"
         d="m 3030.63,141.789 v -3.391 c 4.75,6.563 9.97,11.403 15.61,14.473 5.69,3.078 12.23,4.629 19.63,4.629 7.13,0 13.57,-1.621 19.26,-4.91 5.58,-3.238 9.83,-7.82 12.58,-13.758 1.82,-3.5 2.94,-7.281 3.52,-11.281 0.49,-3.969 0.8,-9.11 0.8,-15.371 V 59.3906 c 0,-5.7304 -1.29,-10.0195 -3.76,-12.9297 -2.5,-2.8515 -5.74,-4.3515 -9.71,-4.3515 -4.04,0 -7.35,1.5 -9.77,4.4726 -2.56,2.9883 -3.86,7.2383 -3.86,12.8086 v 47.2614 c 0,9.407 -1.21,16.547 -3.69,21.489 -2.54,4.949 -7.52,7.468 -14.96,7.468 -4.83,0 -9.24,-1.539 -13.22,-4.558 -3.98,-2.981 -6.9,-7.141 -8.75,-12.43 -1.34,-4.219 -2.03,-12.082 -2.03,-23.7421 V 59.3906 c 0,-5.7695 -1.25,-10.1015 -3.83,-13 -2.57,-2.8203 -5.87,-4.2812 -9.9,-4.2812 -3.89,0 -7.14,1.5 -9.65,4.4414 -2.57,3.0195 -3.8,7.2695 -3.8,12.8398 v 81.9884 c 0,5.43 1.11,9.422 3.41,12.101 2.2,2.668 5.37,4.02 9.26,4.02 2.35,0 4.54,-0.629 6.43,-1.77 1.99,-1.16 3.48,-2.98 4.65,-5.25 1.13,-2.41 1.78,-5.289 1.78,-8.691"
         style="fill:#100f0d;fill-opacity:1;fill-rule:nonzero;stroke:none"
         transform="matrix(0.13333333,0,0,-0.13333333,0,598.32)" />
      <path
         id="path14"
         d="m 3145.67,139.84 21.97,-64.4494 23.72,67.2614 c 1.88,5.418 3.7,9.2 5.52,11.457 1.82,2.25 4.5,3.391 8.13,3.391 3.46,0 6.39,-1.211 8.87,-3.68 2.37,-2.398 3.59,-5.172 3.59,-8.441 0,-1.219 -0.23,-2.649 -0.66,-4.27 -0.39,-1.699 -0.89,-3.269 -1.49,-4.757 -0.56,-1.403 -1.15,-3.09 -1.94,-4.942 l -26.09,-67.5702 c -0.73,-1.9296 -1.69,-4.4179 -2.83,-7.4101 -1.18,-2.9688 -2.5,-5.4609 -3.88,-7.6602 -1.47,-2.0898 -3.21,-3.6875 -5.28,-4.8789 -2.13,-1.1797 -4.67,-1.7812 -7.66,-1.7812 -3.85,0 -6.91,0.9101 -9.23,2.7226 -2.29,1.8477 -3.99,3.8282 -5.07,6.0664 -1.07,2.1407 -2.96,6.4805 -5.52,12.9414 l -25.93,66.8402 c -0.59,1.629 -1.24,3.312 -1.88,4.98 -0.6,1.66 -1.08,3.32 -1.55,5.082 -0.42,1.77 -0.67,3.258 -0.67,4.449 0,1.981 0.57,3.891 1.72,5.801 1.13,1.918 2.7,3.488 4.68,4.68 2.02,1.199 4.13,1.828 6.5,1.828 4.48,0 7.59,-1.352 9.3,-4.102 1.7,-2.679 3.6,-7.207 5.68,-13.558"
         style="fill:#100f0d;fill-opacity:1;fill-rule:nonzero;stroke:none"
         transform="matrix(0.13333333,0,0,-0.13333333,0,598.32)" />
      <path
         id="path15"
         d="m 3256.9,109.02 h 49.29 c -0.62,9.66 -3.11,16.921 -7.5,21.71 -4.36,4.801 -10.1,7.211 -17.22,7.211 -6.72,0 -12.31,-2.441 -16.64,-7.3 -4.34,-4.871 -6.95,-12.09 -7.93,-21.621 z m 53.21,-16.1606 h -53.21 c 0.01,-6.4571 1.31,-12.1406 3.7,-17.0977 2.46,-4.8711 5.66,-8.5898 9.69,-11.1133 4.01,-2.5195 8.46,-3.7187 13.31,-3.7187 3.25,0 6.25,0.3906 8.9,1.1601 2.68,0.8399 5.31,2.0821 7.86,3.75 2.48,1.711 4.79,3.4805 6.93,5.5 2.1,1.9297 4.94,4.5196 8.28,7.8711 1.4,1.3086 3.41,1.8985 5.96,1.8985 2.85,0 5.07,-0.7774 6.81,-2.418 1.73,-1.5898 2.54,-3.8203 2.54,-6.7305 0,-2.5586 -0.94,-5.5586 -2.88,-9.0312 -1.91,-3.3789 -4.76,-6.6992 -8.71,-9.8906 -3.9,-3.1289 -8.77,-5.6875 -14.65,-7.8282 -5.85,-2.0703 -12.58,-3.1015 -20.28,-3.1015 -17.44,0 -31.04,5.2422 -40.7,15.582 -9.69,10.4492 -14.51,24.5078 -14.51,42.2774 0,8.5002 1.23,16.2112 3.56,23.3712 2.4,7.199 5.86,13.332 10.46,18.449 4.59,5.16 10.2,9.121 16.93,11.82 6.74,2.75 14.14,4.121 22.34,4.121 10.55,0 19.7,-2.339 27.3,-7.039 7.62,-4.679 13.31,-10.691 17.09,-18.089 3.79,-7.461 5.68,-14.981 5.68,-22.731 0,-7.082 -1.9,-11.7108 -5.86,-13.8124 -3.95,-2.1484 -9.43,-3.1992 -16.54,-3.1992"
         style="fill:#100f0d;fill-opacity:1;fill-rule:nonzero;stroke:none"
         transform="matrix(0.13333333,0,0,-0.13333333,0,598.32)" />
      <path
         id="path16"
         d="m 3452.99,77.2617 c 0,-3.5195 -1.01,-7.3203 -3.08,-11.3398 -2.03,-4.0117 -5.06,-7.8203 -9.25,-11.4727 -4.13,-3.6289 -9.4,-6.5586 -15.73,-8.75 -6.27,-2.2773 -13.42,-3.3594 -21.25,-3.3594 -16.86,0 -29.97,5.1211 -39.38,15.3321 -9.41,10.2187 -14.15,23.8867 -14.15,41.0976 0,11.6405 2.14,21.9605 6.49,30.8785 4.33,8.891 10.51,15.864 18.71,20.711 8.14,4.93 17.93,7.371 29.31,7.371 7.03,0 13.47,-1.109 19.39,-3.23 5.86,-2.16 10.8,-4.949 14.94,-8.309 4.09,-3.402 7.17,-7.039 9.36,-10.859 2.14,-3.832 3.21,-7.441 3.21,-10.773 0,-3.348 -1.18,-6.227 -3.68,-8.598 -2.39,-2.379 -5.32,-3.551 -8.78,-3.551 -2.25,0 -4.13,0.66 -5.59,1.871 -1.53,1.168 -3.19,3.078 -5.07,5.84 -3.32,5.238 -6.77,9.231 -10.39,11.91 -3.63,2.61 -8.23,3.961 -13.82,3.961 -7.99,0 -14.48,-3.332 -19.4,-9.871 -4.96,-6.59 -7.4,-15.539 -7.4,-26.9101 0,-5.3007 0.68,-10.2695 1.89,-14.7109 1.27,-4.4883 3.11,-8.2891 5.51,-11.4609 2.39,-3.1602 5.3,-5.5274 8.68,-7.1602 3.33,-1.6601 7.07,-2.4492 11.15,-2.4492 5.43,0 10.12,1.2891 14,3.9297 3.87,2.6601 7.34,6.6797 10.32,12.0312 1.67,3.2696 3.43,5.7383 5.39,7.5586 1.9,1.8125 4.22,2.6719 7.07,2.6719 3.27,0 6.07,-1.2813 8.18,-3.9219 2.25,-2.6875 3.37,-5.457 3.37,-8.4375"
         style="fill:#100f0d;fill-opacity:1;fill-rule:nonzero;stroke:none"
         transform="matrix(0.13333333,0,0,-0.13333333,0,598.32)" />
      <path
         id="path17"
         d="m 3478.24,155.109 h 2.99 v 17.063 c 0,4.539 0.13,8.16 0.37,10.75 0.23,2.609 0.82,4.789 1.94,6.699 1.03,1.91 2.56,3.5 4.59,4.738 1.98,1.18 4.19,1.762 6.66,1.762 3.43,0 6.57,-1.332 9.34,-4.019 1.82,-1.821 3.03,-3.993 3.53,-6.571 0.5,-2.609 0.73,-6.351 0.73,-11.101 v -19.321 h 10 c 3.85,0 6.8,-0.968 8.82,-2.867 2.06,-1.922 3.04,-4.332 3.04,-7.32 0,-3.813 -1.43,-6.524 -4.36,-8.012 -2.87,-1.5 -7.01,-2.269 -12.38,-2.269 h -5.12 V 82.3711 c 0,-4.4609 0.16,-7.8789 0.45,-10.3008 0.35,-2.3984 1.19,-4.3398 2.45,-5.789 1.26,-1.5 3.37,-2.2696 6.32,-2.2696 1.58,0 3.73,0.2696 6.48,0.8867 2.66,0.5821 4.8,0.8829 6.35,0.8829 2.18,0 4.22,-0.9493 5.95,-2.6993 1.72,-1.9023 2.62,-4.1211 2.62,-6.8515 0,-4.5508 -2.34,-8.0508 -7.15,-10.4883 -4.84,-2.4336 -11.69,-3.6328 -20.62,-3.6328 -8.51,0 -14.97,1.5 -19.36,4.4726 -4.35,2.9883 -7.27,7.0782 -8.58,12.418 -1.4,5.2617 -2.07,12.2891 -2.07,21.0898 v 54.5512 h -3.61 c -3.85,0 -6.85,0.968 -8.93,2.918 -2.07,1.933 -3.07,4.371 -3.07,7.363 0,2.988 1.05,5.398 3.19,7.32 2.19,1.899 5.3,2.867 9.43,2.867"
         style="fill:#100f0d;fill-opacity:1;fill-rule:nonzero;stroke:none"
         transform="matrix(0.13333333,0,0,-0.13333333,0,598.32)" />
      <path
         id="path18"
         d="m 3623.44,99.75 c 0,11.531 -2.46,20.57 -7.32,27.02 -4.93,6.41 -11.42,9.66 -19.68,9.66 -5.34,0 -10,-1.45 -14.03,-4.321 -4.08,-2.918 -7.2,-7.16 -9.37,-12.769 -2.19,-5.559 -3.31,-12.07 -3.31,-19.59 0,-7.4297 1.12,-13.8906 3.27,-19.418 2.15,-5.5429 5.21,-9.7929 9.23,-12.7422 4,-2.9414 8.75,-4.3906 14.21,-4.3906 8.26,0 14.75,3.2227 19.68,9.6914 4.86,6.461 7.32,15.4492 7.32,26.8594 z m 27.3,0 c 0,-8.4102 -1.25,-16.2109 -3.82,-23.3984 -2.5,-7.0821 -6.17,-13.2305 -10.92,-18.3828 -4.8,-5.1368 -10.52,-8.9688 -17.13,-11.7891 -6.67,-2.7305 -14.09,-4.0703 -22.43,-4.0703 -8.28,0 -15.69,1.3398 -22.23,4.1523 -6.56,2.7696 -12.29,6.7305 -17.09,11.9102 -4.8,5.1679 -8.46,11.2304 -10.91,18.2578 -2.48,7.082 -3.7,14.8125 -3.7,23.3711 0,8.5902 1.22,16.4492 3.7,23.5582 2.58,7.18 6.15,13.231 10.86,18.332 4.76,5.051 10.45,8.95 17.14,11.68 6.78,2.75 14.16,4.129 22.23,4.129 8.26,0 15.69,-1.379 22.43,-4.168 6.7,-2.762 12.42,-6.762 17.21,-11.871 4.73,-5.121 8.44,-11.262 10.92,-18.332 2.49,-7.047 3.74,-14.859 3.74,-23.379"
         style="fill:#100f0d;fill-opacity:1;fill-rule:nonzero;stroke:none"
         transform="matrix(0.13333333,0,0,-0.13333333,0,598.32)" />
      <path
         id="path19"
         d="M 3699.19,83.0117 V 59.3906 c 0,-5.7695 -1.31,-10.1015 -3.91,-13 -2.59,-2.8203 -5.87,-4.2812 -9.89,-4.2812 -3.87,0 -7.12,1.5 -9.63,4.3515 -2.52,2.9102 -3.76,7.1993 -3.76,12.9297 v 78.9884 c 0,12.762 4.4,19.121 13.23,19.121 4.48,0 7.75,-1.508 9.78,-4.461 1.95,-2.98 3.01,-7.387 3.27,-13.199 3.23,5.812 6.61,10.219 10.04,13.199 3.42,2.953 7.96,4.461 13.64,4.461 5.76,0 11.28,-1.508 16.68,-4.461 5.35,-2.98 8.08,-6.949 8.08,-11.859 0,-3.45 -1.18,-6.36 -3.47,-8.578 -2.26,-2.243 -4.74,-3.411 -7.44,-3.411 -0.98,0 -3.4,0.668 -7.21,1.969 -3.84,1.262 -7.21,1.93 -10.15,1.93 -3.94,0 -7.19,-1.059 -9.69,-3.289 -2.54,-2.219 -4.51,-5.41 -5.9,-9.699 -1.4,-4.352 -2.4,-9.43 -2.9,-15.391 -0.51,-5.8907 -0.77,-13.1016 -0.77,-21.6993"
         style="fill:#100f0d;fill-opacity:1;fill-rule:nonzero;stroke:none"
         transform="matrix(0.13333333,0,0,-0.13333333,0,598.32)" />
      <path
         id="path20"
         d="m 3844.04,79.1914 c 0,-7.8516 -1.82,-14.543 -5.51,-20.1328 -3.68,-5.5977 -9.06,-9.7695 -16.21,-12.6797 -7.16,-2.8086 -15.82,-4.2695 -26.1,-4.2695 -9.68,0 -18.09,1.539 -25.09,4.6992 -6.97,3.1016 -12.13,6.9805 -15.42,11.6523 -3.36,4.6602 -5.07,9.3477 -5.07,14.0508 0,3.1172 1.1,5.7891 3.28,8.0078 2.11,2.2696 4.81,3.3203 8.02,3.3203 2.87,0 5.1,-0.7382 6.61,-2.1484 1.53,-1.5391 2.95,-3.5391 4.39,-6.1797 2.78,-5.0703 6.1,-8.8515 10.05,-11.3398 3.82,-2.5313 9.12,-3.7696 15.89,-3.7696 5.42,0 9.89,1.2891 13.39,3.8165 3.46,2.5312 5.26,5.4101 5.26,8.6718 0,5.0196 -1.84,8.668 -5.43,10.9414 -3.67,2.3282 -9.6,4.5078 -17.9,6.5703 -9.36,2.4297 -17,4.9766 -22.89,7.629 -5.87,2.6797 -10.63,6.2307 -14.11,10.5897 -3.53,4.301 -5.32,9.711 -5.32,16.09 0,5.719 1.65,11.078 4.91,16.121 3.23,5.066 8.1,9.09 14.42,12.117 6.33,3.043 13.98,4.551 22.99,4.551 7,0 13.33,-0.781 18.97,-2.301 5.6,-1.519 10.35,-3.59 14.04,-6.117 3.75,-2.57 6.64,-5.422 8.58,-8.512 1.99,-3.16 2.96,-6.199 2.96,-9.16 0,-3.269 -1.03,-5.879 -3.16,-8.051 -2.1,-2 -5.1,-3.058 -8.89,-3.058 -2.82,0 -5.19,0.82 -7.19,2.519 -1.91,1.641 -4.19,4.129 -6.7,7.41 -2.06,2.782 -4.46,5.02 -7.28,6.68 -2.8,1.629 -6.57,2.5 -11.33,2.5 -4.93,0 -9.05,-1.09 -12.25,-3.289 -3.28,-2.172 -4.92,-4.922 -4.92,-8.172 0,-3 1.21,-5.429 3.57,-7.328 2.42,-1.922 5.62,-3.492 9.69,-4.75 4.09,-1.25 9.64,-2.801 16.75,-4.59 8.46,-2.14 15.32,-4.679 20.68,-7.679 5.35,-2.95 9.39,-6.4926 12.14,-10.5434 2.81,-4.0898 4.18,-8.707 4.18,-13.8672"
         style="fill:#100f0d;fill-opacity:1;fill-rule:nonzero;stroke:none"
         transform="matrix(0.13333333,0,0,-0.13333333,0,598.32)" />
      <path
         id="path21"
         d="m 3874.92,42.1094 c -4.12,0 -7.68,1.3398 -10.63,4.1523 -3.04,2.7696 -4.51,6.668 -4.51,11.6094 0,4.2187 1.39,7.8594 4.22,10.9297 2.87,3.039 6.41,4.5195 10.6,4.5195 4.16,0 7.74,-1.4805 10.63,-4.5117 3,-2.9688 4.49,-6.6797 4.49,-10.9375 0,-4.9023 -1.49,-8.7695 -4.49,-11.5703 -2.89,-2.7891 -6.33,-4.1914 -10.31,-4.1914"
         style="fill:#100f0d;fill-opacity:1;fill-rule:nonzero;stroke:none"
         transform="matrix(0.13333333,0,0,-0.13333333,0,598.32)" />
      <path
         id="path22"
         d="m 3995.18,99.75 c 0,11.531 -2.46,20.57 -7.34,27.02 -4.88,6.41 -11.41,9.66 -19.65,9.66 -5.32,0 -9.95,-1.45 -14.02,-4.321 -4.06,-2.918 -7.18,-7.16 -9.36,-12.769 -2.16,-5.559 -3.28,-12.07 -3.28,-19.59 0,-7.4297 1.05,-13.8906 3.2,-19.418 2.22,-5.5429 5.27,-9.7929 9.3,-12.7422 4.01,-2.9414 8.72,-4.3906 14.16,-4.3906 8.24,0 14.77,3.2227 19.65,9.6914 4.88,6.461 7.34,15.4492 7.34,26.8594 z m 27.32,0 c 0,-8.4102 -1.25,-16.2109 -3.81,-23.3984 -2.54,-7.0821 -6.15,-13.2305 -10.95,-18.3828 -4.82,-5.1368 -10.46,-8.9688 -17.12,-11.7891 -6.63,-2.7305 -14.1,-4.0703 -22.43,-4.0703 -8.22,0 -15.62,1.3398 -22.19,4.1523 -6.59,2.7696 -12.25,6.7305 -17.05,11.9102 -4.9,5.1679 -8.52,11.2304 -11.04,18.2578 -2.44,7.082 -3.69,14.8125 -3.69,23.3711 0,8.5902 1.25,16.4492 3.79,23.5582 2.57,7.18 6.13,13.231 10.82,18.332 4.71,5.051 10.44,8.95 17.17,11.68 6.7,2.75 14.05,4.129 22.19,4.129 8.24,0 15.71,-1.379 22.43,-4.168 6.73,-2.762 12.46,-6.762 17.25,-11.871 4.75,-5.121 8.38,-11.262 10.9,-18.332 2.48,-7.047 3.73,-14.859 3.73,-23.379"
         style="fill:#100f0d;fill-opacity:1;fill-rule:nonzero;stroke:none"
         transform="matrix(0.13333333,0,0,-0.13333333,0,598.32)" />
      <path
         id="path23"
         d="M 4070.94,83.0117 V 59.3906 c 0,-5.7695 -1.3,-10.1015 -3.89,-13 -2.55,-2.8203 -5.88,-4.2812 -9.83,-4.2812 -3.97,0 -7.15,1.5 -9.69,4.3515 -2.56,2.9102 -3.8,7.1993 -3.8,12.9297 v 78.9884 c 0,12.762 4.47,19.121 13.26,19.121 4.52,0 7.76,-1.508 9.74,-4.461 1.96,-2.98 3.12,-7.387 3.36,-13.199 3.19,5.812 6.52,10.219 9.94,13.199 3.44,2.953 8.01,4.461 13.67,4.461 5.81,0 11.35,-1.508 16.67,-4.461 5.38,-2.98 8.1,-6.949 8.1,-11.859 0,-3.45 -1.16,-6.36 -3.43,-8.578 -2.32,-2.243 -4.75,-3.411 -7.47,-3.411 -0.96,0 -3.35,0.668 -7.17,1.969 -3.84,1.262 -7.21,1.93 -10.16,1.93 -3.95,0 -7.18,-1.059 -9.78,-3.289 -2.48,-2.219 -4.44,-5.41 -5.86,-9.699 -1.36,-4.352 -2.33,-9.43 -2.85,-15.391 -0.53,-5.8907 -0.81,-13.1016 -0.81,-21.6993"
         style="fill:#100f0d;fill-opacity:1;fill-rule:nonzero;stroke:none"
         transform="matrix(0.13333333,0,0,-0.13333333,0,598.32)" />
      <path
         id="path24"
         d="m 4149.45,100.719 c 0,-11.4768 2.43,-20.1877 7.26,-26.1096 4.77,-5.8477 11.04,-8.8281 18.63,-8.8281 4.49,0 8.82,1.3085 12.81,3.8398 4.03,2.5273 7.3,6.3398 9.83,11.4375 2.56,5.1016 3.78,11.2617 3.78,18.5312 0,11.5702 -2.46,20.5702 -7.34,26.9922 -4.86,6.508 -11.29,9.758 -19.25,9.758 -7.75,0 -13.99,-3.16 -18.66,-9.301 -4.7,-6.187 -7.06,-14.937 -7.06,-26.32 z m 78.84,36 V 54.25 c 0,-9.4609 -1.03,-17.5586 -2.92,-24.3203 -1.93,-6.8203 -5.01,-12.4375 -9.26,-16.8594 -4.24,-4.42967 -9.84,-7.71874 -16.67,-9.87108 C 4192.56,1.10156 4183.99,0 4173.78,0 c -9.39,0 -17.77,1.33203 -25.1,4.05859 -7.39,2.8125 -13.08,6.30081 -17.05,10.67191 -3.98,4.289 -6,8.75 -6,13.3515 0,3.4688 1.11,6.2774 3.43,8.4571 2.23,2.2304 4.96,3.3203 8.14,3.3203 4,0 7.44,-1.8594 10.49,-5.5078 1.46,-1.9414 2.98,-3.8008 4.5,-5.6914 1.56,-1.9102 3.3,-3.5782 5.17,-4.8985 1.92,-1.3906 4.21,-2.3828 6.87,-3.0508 2.6,-0.6523 5.7,-0.9804 9.17,-0.9804 6.98,0 12.51,1.039 16.37,3.0586 3.88,2.0507 6.62,4.9101 8.2,8.5703 1.48,3.6797 2.49,7.6015 2.65,11.7929 0.32,4.2696 0.5,10.9375 0.69,20.2774 -4.18,-6.0899 -9.09,-10.7383 -14.51,-13.9297 -5.48,-3.1992 -12.03,-4.75 -19.54,-4.75 -9.18,0 -17.13,2.3789 -23.89,7.2617 -6.85,4.8477 -12.08,11.6172 -15.72,20.3789 -3.61,8.7188 -5.48,18.7891 -5.48,30.2384 0,8.57 1.09,16.281 3.36,23.141 2.18,6.832 5.33,12.628 9.52,17.351 4.07,4.711 8.85,8.281 14.22,10.68 5.41,2.347 11.25,3.57 17.75,3.57 7.67,0 14.34,-1.562 19.97,-4.66 5.72,-3.039 10.91,-7.941 15.77,-14.492 v 3.801 c 0,4.96 1.2,8.742 3.5,11.531 2.29,2.66 5.31,4.031 8.95,4.031 5.26,0 8.75,-1.773 10.49,-5.34 1.7,-3.594 2.59,-8.781 2.59,-15.523"
         style="fill:#100f0d;fill-opacity:1;fill-rule:nonzero;stroke:none"
         transform="matrix(0.13333333,0,0,-0.13333333,0,598.32)" />
      <path
         id="path25"
         d="m 3049.58,413.102 h 40.34 c -2.85,-21.75 -11.76,-38.723 -26.58,-50.942 -13.72,-11.969 -30.33,-17.871 -49.73,-17.871 -26.34,0 -47.37,9.262 -63.07,27.723 -14.88,17.57 -22.3,40.258 -22.3,67.957 0,28.402 7.38,51.101 22.09,68.281 14.7,17.121 35.5,25.73 62.38,25.73 20,0 36.91,-5.41 50.63,-16.148 14.54,-11.602 23.44,-27.902 26.58,-48.773 h -40.34 c -3.49,18.222 -14.59,27.273 -33.52,27.273 -31.17,0 -46.79,-18.473 -46.79,-55.422 0,-17.32 4.02,-31.461 12.04,-42.461 8.02,-11.07 19.32,-16.59 33.9,-16.59 21.74,0 33.2,10.43 34.37,31.243 z m -158.79,25.449 c 0,-36.11 11.45,-66.66 34.31,-91.571 22.89,-24.89 50.9,-37.351 84.15,-37.351 33.1,0 61.13,12.461 83.98,37.351 22.92,24.911 34.3,55.461 34.3,91.571 0,36.07 -11.38,66.609 -34.3,91.508 -22.85,24.953 -50.88,37.382 -83.98,37.382 -33.25,0 -61.26,-12.429 -84.15,-37.382 -22.86,-24.899 -34.31,-55.438 -34.31,-91.508 z m -40.98,0 c 0,45.929 15.55,85.14 46.66,117.711 31.15,32.519 68.75,48.789 112.78,48.789 43.92,0 81.46,-16.27 112.64,-48.789 31.14,-32.571 46.73,-71.782 46.73,-117.711 0,-45.981 -15.59,-85.25 -46.73,-117.75 -31.18,-32.551 -68.72,-48.832 -112.64,-48.832 -44.03,0 -81.63,16.281 -112.78,48.832 -31.11,32.5 -46.66,71.769 -46.66,117.75"
         style="fill:#100f0d;fill-opacity:1;fill-rule:nonzero;stroke:none"
         transform="matrix(0.13333333,0,0,-0.13333333,0,598.32)" />
      <path
         id="path26"
         d="m 2914.32,334.121 23.25,-19.719 170.96,219.528 -23.25,19.691 -170.96,-219.5"
         style="fill:#100f0d;fill-opacity:1;fill-rule:nonzero;stroke:none"
         transform="matrix(0.13333333,0,0,-0.13333333,0,598.32)" />
      <path
         id="path27"
         d="m 1638.3,4250.77 -78.84,-104.86 24.73,-10.82 77.34,102.77 z M 4555.05,3166.71 c -24.91,-8.16 -52.19,-16.78 -77.17,-24.32 0,0 -11.54,-3.43 -19.49,-5.8 -7.11,-29.11 -14.4,-64.63 -18.17,-101.32 69.2,31.01 139.01,60.82 210.56,86.11 -50.77,-27.81 -103.02,-52.68 -155.56,-76.88 -14.96,-6.75 -29.9,-13.57 -44.9,-20.18 29.26,-41.79 66.86,-100.08 98.83,-140.49 50.84,38.33 102.25,75.97 155.12,111.51 -11.55,36.76 5.08,81.79 49.9,94.61 -67.34,23.03 -133.48,49.4 -199.12,76.76 m -2942.64,558.51 c 66.45,-0.21 134.25,-0.01 200.58,-1.36 13.91,-0.64 25.54,13.37 22.41,26.94 -4.74,12.08 -5.41,28.15 -18.14,34.85 -5.11,3.28 -14.16,2.62 -19.89,2.83 -12.65,0.21 -47.16,0.77 -60.17,1 -53.49,0.93 -106.97,1.86 -160.46,1.78 -15.71,1.32 -30.17,-13.9 -27.22,-29.71 1.67,-7.52 3.66,-12.66 5.89,-19.88 3.79,-10.9 15.96,-17.5 26.91,-16.38 l 10.03,-0.02 z m 31.81,-162.11 c -88.59,83.42 -197.33,140.19 -313.43,169.58 -0.27,14.64 -0.43,29.27 0,43.9 0.09,5.07 0.79,9.77 2.4,14.59 12.64,38.32 28.02,75.77 42.76,113.37 11.67,30.22 27.97,72.24 40.04,104.25 391.62,-3.82 783.15,-35.37 1172.25,-77.62 14.8,-1.65 58.51,-6.68 101.28,-11.6 16.27,-51.29 40.06,-135.13 50.93,-216.62 0.2,-1.47 0.39,-3.03 0.59,-4.59 -215.6,-1.41 -399.95,-5.87 -501.76,-15.44 -319.49,-30.04 -456.33,-239.89 -476.18,-273.33 -30.93,57.06 -70.84,109.22 -118.88,153.51 m 3965.51,-556.32 c 16.93,44.59 37.98,87.23 63,127.83 -27.78,15.06 -55.02,31.28 -80.28,50.42 -8.46,7.31 -18.62,13.5 -22.28,24.86 -0.32,3.19 0.08,5.83 0.13,8.77 3.36,33.05 12.92,83.7 18.5,116.94 14.2,79.96 30.85,166.96 47.71,246.2 -82.79,63.89 -184.84,113.89 -297.22,153.18 -40.65,-39.86 -82.68,-78.72 -125.71,-116.26 16.08,-11.27 31.78,-23.42 47.04,-36.48 104.49,-86.98 179.06,-207.23 215.34,-337.79 -19.52,64.75 -47.83,126.82 -84.76,183.3 -47.42,73.51 -110.21,137.27 -182.67,186.57 -19.09,-16.57 -38.36,-32.89 -57.8,-48.89 42.4,-25.92 81.75,-57.2 117.17,-93.57 118.85,-122.09 181.15,-287.12 175.64,-465.08 z m -2026.68,138.39 c -255.12,1.77 -530.09,5.12 -806.17,9.44 0.61,-18.9 1.02,-32.42 1.21,-38.82 178.09,-3.99 356.13,-9.81 534.09,-17.91 201.46,-9.69 403.03,-21.86 603.32,-46.42 74.94,-9.9 150.12,-20.69 223.18,-40.51 0.02,-0.01 0.05,-0.01 0.07,-0.02 10.2,130.64 20.44,261.3 20.82,392.41 0.62,90.07 -0.28,182.73 -12.97,272.81 -118.64,2.66 -854.68,18.45 -1397.5,15.12 7.22,-63.03 13.66,-180.47 18.63,-293.26 355.29,29.12 711.3,48.61 1067.81,49.58 97.18,-0.39 194.37,-2.46 291.38,-7.84 -97.07,4.22 -194.24,5.11 -291.38,4.33 -356.39,-3.34 -712.25,-24.65 -1067.51,-53.08 3.96,-90.7 6.96,-177.52 8.64,-229.66 85.3,-1.11 165.72,-2.18 237.17,-3.14 237.07,-1.47 474.39,-11.21 711.38,-5.86 94.37,5.44 189.41,18.12 278.64,50.48 44.3,16.38 87.48,37.92 123.06,69.53 -35.2,-32.05 -78.23,-54.19 -122.46,-71.16 -134.12,-50.09 -279.61,-57.46 -421.41,-56.02 m 2206.36,-166.04 c -7.28,-2.12 -14.85,-2.7 -22.35,-3.45 -110.76,-6.12 -229.32,-1.92 -340.33,-5.19 59.52,-4.02 122.07,-5.49 181.68,-5.36 52.99,0.67 106.32,1.12 158.88,8.67 7.49,1.22 15.06,2.48 22.12,5.33 m -494.58,39.6 c 0,268.74 -218.63,487.39 -487.37,487.39 -268.74,0 -487.38,-218.65 -487.38,-487.39 0,-102.65 24.54,-186.35 77.23,-263.38 l 5.9,4.05 c -51.83,75.78 -75.97,158.18 -75.97,259.33 0,264.8 215.43,480.23 480.22,480.23 264.8,0 480.23,-215.43 480.23,-480.23 0,-53.79 -8.83,-106.58 -26.23,-156.93 l 6.77,-2.35 c 17.66,51.12 26.6,104.69 26.6,159.28 m -112.32,-0.21 c 2.15,157.96 -99.04,309.68 -245.41,368.98 -262.44,109.53 -553.69,-84.67 -553.97,-368.98 0.34,-284.32 291.49,-478.47 553.95,-368.97 146.4,59.28 247.56,211.02 245.43,368.97 m 638.09,-35.01 c -14.77,-21.34 -269.15,-182.17 -472.66,-155.91 l -83.11,33.03 c -65.5,-189.56 -245.54,-325.7 -457.36,-325.7 -166,0 -312.48,83.6 -399.61,210.98 -83.69,21.34 -144.71,104.67 -144.71,104.67 l -19.7,-13.14 -1482.53,-0.97 c 36.12,99.52 19.99,252.25 17.57,272.81 278.67,-6.64 557.18,-17.13 835.37,-34.61 175.51,-13.57 352.93,-23.52 524.59,-64.57 0.09,-0.02 0.15,-0.04 0.23,-0.06 -4.15,-53.14 -8.29,-106.29 -11.76,-159.46 1.43,23.03 4.15,45.97 6.41,68.95 l 7.09,68.91 c 0.66,6.84 1.33,13.7 1.99,20.55 22.91,-6.45 45.77,-13.73 66.58,-25.48 -20.71,12.02 -43.59,19.6 -66.5,26.32 17.11,176.79 29.65,354.4 22.03,532.13 -1.6,44.58 -5.31,89.58 -12.1,134.06 6.23,-0.14 9.86,-0.23 10.54,-0.24 l 0.17,7.15 c -0.72,0.02 -4.77,0.11 -11.87,0.27 -14.46,90.18 -41.95,177.98 -91.45,255.38 13.89,0.31 27.11,0.69 38.68,1.17 -103.89,3.78 -213.48,2.06 -316.96,8.13 -1.56,0.16 -3.24,0.44 -4.7,0.79 -0.17,0.59 -2.14,7.51 -2.14,7.51 -4.84,17.78 -9.99,36.83 -15.32,56.37 4.92,-3.28 9.86,-6.51 14.72,-9.89 -4.86,3.49 -9.88,6.91 -14.84,10.35 -12.58,46.09 -26.08,94.9 -38.22,136.35 9.62,-42.29 20.14,-87.32 31.11,-131.41 -241.45,163.81 -600.41,259.53 -885.77,284.4 -20.28,2.19 -48.18,2.69 -68.93,4 -9.89,0.63 -24.44,0.35 -34.53,0.37 l -34.54,-0.05 h -3.68 c 29.61,-78.91 88.72,-233.59 118.87,-312.31 -27.48,76.34 -82.55,228.73 -111.42,307.12 101.82,0.67 203.87,-10.29 304.17,-27.79 99.42,-17.11 204.43,-42.57 300.95,-72.09 144.41,-45.67 287.91,-100.84 415.05,-184.31 6.14,-24.59 12.4,-48.91 18.75,-72.25 1.96,-3.48 6.4,-3.1 9.65,-3.77 61.23,-5.14 122.76,-3.77 184.08,-4.06 27.21,0.29 62.9,0.64 94.99,1.37 47.34,-78.98 72.53,-165.77 85.8,-255.25 -122.33,2.73 -855.96,18.42 -1397.33,15.07 -0.23,1.89 -0.47,3.73 -0.71,5.49 -10.71,80.37 -33.92,162.97 -50.24,214.78 35.56,-4.08 69.17,-7.95 83.4,-9.55 -14.72,1.83 -48.26,6.08 -83.71,10.57 -9.96,31.54 -17.28,51.43 -17.47,51.94 l -6.71,-2.49 c 0.18,-0.5 6.98,-18.97 16.36,-48.47 -41.56,5.26 -84.05,10.62 -100.68,12.68 -345.78,41.22 -694.69,71.58 -1042.87,80.24 -42.36,1 -84.74,1.55 -127.13,1.85 0.1,0.26 0.2,0.53 0.29,0.8 24.93,10.5 48.46,23.47 70.51,39.05 20.32,14.66 39.52,32.09 52.47,53.73 198.24,-60.16 406.97,-84.13 613.14,-96.35 497.62,-29.72 997.82,-36.97 1496.11,-42.29 -293.07,4.74 -586.82,10.06 -880.3,19.55 -40.63,141.75 -86.32,283.69 -135.89,422.57 49.17,-1.64 98.33,-3.97 147.46,-7.07 53.43,-4.25 111.1,-9.74 163.93,-17.85 310.34,-49.57 611.81,-150.25 897.04,-281.17 56.92,-26.72 112.93,-55.41 167.23,-87.13 53.95,-31.97 107.69,-65.95 152.56,-110.16 -44.66,44.46 -98.25,78.73 -152.06,111 -54.17,32.01 -110.09,61.01 -166.91,88.05 -284.74,132.89 -586.52,233.84 -897.17,284.04 -52.97,8.3 -110.75,13.74 -164.24,18.19 -392.66,25.5 -786.84,1.73 -1178.33,-31.84 -3.44,-0.38 -14.49,-1.34 -17.64,-1.73 -18.24,-2.4 -34.27,-11.41 -50.7,-18.66 -86.65,-42.11 -170.04,-90.27 -253.52,-138.2 54.59,-35.09 114.01,-59.95 174.26,-82.61 27.67,-10.1 55.6,-19.39 83.75,-27.95 -6.55,-9.08 -14.12,-17.3 -22.25,-24.89 -9.93,-9.17 -20.96,-17.04 -32.12,-24.6 -22.97,-15.07 -47.88,-27.75 -73.33,-37.91 -0.82,-2.16 -1.59,-4.34 -2.4,-6.5 -365.16,2.12 -730.747,-22.25 -1091.829,-76.61 -40.028,8.26 -88.125,9.75 -134.196,9.13 77.247,32.83 157.418,67.48 238.786,103.09 139.07,40.46 281.316,69.61 424.261,92.55 131.524,21.25 264.238,35.97 397.428,40.5 19.04,0.51 38.09,0.42 57.15,0.66 -19.05,0.34 -38.1,1.02 -57.17,1.09 -133.54,-0.14 -266.705,-14.63 -398.533,-35.2 -140.089,-23.04 -279.562,-52.34 -414.785,-95.93 189.071,82.81 383.668,170.31 559.762,250.39 -266.094,-110.72 -545.82,-236.06 -808.856,-357.18 -49.882,-0.75 -97.2144,-3.88 -129.0972,-3.51 -5.9141,0.21 -11.832,0.4 -17.7461,0.73 l 785.9063,365.98 -132.727,37.74 c 512.036,101.76 1737.976,193.66 2394.436,98.48 514.83,-74.66 1260.39,-535.02 1260.39,-535.02 0,0 393.89,13.36 810.73,-81.59 452.56,-103.07 654.82,-300.8 654.82,-300.8 l -65.64,-37.74 h -19.69 c -21.33,30.7 -47.98,58.56 -75.88,83.43 -82.25,68.88 -187.06,122.46 -303.69,164.14 5.09,4.99 10.19,9.98 15.23,15.01 -5.78,-4.72 -11.5,-9.52 -17.26,-14.29 -307.02,109.21 -695.43,136 -970.72,140.66 277.42,-11.66 659.12,-38.95 965.12,-145.3 -43.74,-36.51 -86.63,-74.49 -128.31,-113.58 -152.74,104.64 -339.84,130.22 -522.48,88.74 -197.97,-40.66 -387.77,-157.16 -485,-338.18 135.1,239.01 420.71,356.94 687.08,349.85 112.88,-4.28 222.04,-42.65 315.52,-104.99 -18.09,-17.06 -35.96,-34.32 -53.55,-51.77 -96.51,58.74 -208.83,89.56 -327.1,88.5 -157.85,-1.47 -313.47,-66.78 -438.19,-183.88 -119.87,-112.55 -193.54,-258.51 -202.11,-400.45 l 7.15,-0.43 c 18.08,299.37 319.89,574.67 633.22,577.6 116.43,1.22 226.85,-28.97 321.83,-86.48 -0.98,-0.98 -1.99,-1.95 -2.98,-2.94 1.1,0.9 2.21,1.83 3.31,2.74 42.68,-25.87 82.23,-57.25 117.79,-93.79 118.31,-121.51 179.93,-286.13 173.52,-463.52 l -0.14,-3.71 h 305.12 l 50.42,58.16 c 9.05,-11.6 41.7,-55.82 28.92,-74.28 m -816.95,7.7 c 24.91,3.89 49.8,7.98 74.64,12.22 18.79,22.43 38.73,47.26 57.03,70.26 3.48,4.4 19.29,24.71 22.42,28.64 -28.08,74.81 -68.44,150.8 -132.23,201.03 -37.08,29.65 -89.84,43.1 -133.61,20.73 14.89,3.8 30.1,5.42 44.84,3.71 93.74,-11.08 156.47,-138.81 188.71,-220.51 -5.21,-6.61 -12.56,-16 -12.56,-16 -16.04,-20.59 -33.35,-43.36 -48.97,-64.42 -6.59,-1.48 -13.19,-2.96 -19.77,-4.47 1.96,78.71 -0.96,157.42 -5.55,235.97 -50.71,-12.63 -102.77,-24.76 -149.86,-47.95 6.12,18.28 12.1,36.59 17.99,54.94 -11.27,27.01 -24.15,56.13 -36.18,82.96 -2.3,5.11 -13.06,28.48 -15.12,33.09 -79.59,9.43 -165.11,8.58 -239.32,-25.01 -43.39,-19.29 -79.58,-59.96 -79.83,-109.1 3.46,14.94 9,29.21 17.3,41.51 52.93,78.14 195.22,75.13 282.6,66.19 3.49,-7.66 8.42,-18.51 8.42,-18.51 10.9,-23.71 23.18,-49.55 34.71,-73.12 -17.48,-67.03 -33.8,-134.46 -46.13,-202.68 -16.41,23.04 -45.65,36.92 -75.18,30.13 -58.88,33.31 -119.28,63.81 -180.16,93.21 32.07,39.44 78.07,86.98 110.92,123.52 9.84,-13.14 19.86,-26.14 29.8,-39.2 35.45,-45.73 71.46,-90.99 110,-134.19 -41.46,65.07 -87.06,127.32 -133.71,188.72 l -5.21,6.74 -5.6,-6.23 c -21.7,-24.04 -42.7,-48.58 -62.84,-73.93 -16.1,-20.73 -32.6,-41.52 -46.06,-64.12 -6.1,2.94 -12.18,5.88 -18.29,8.8 -28.29,-7.46 -58.89,-16.21 -87.12,-24.43 -5.38,-1.58 -30.01,-9.03 -34.85,-10.43 l -2.04,-7.46 c -21.05,-84.77 -34.6,-199.21 14.2,-276.39 17.19,-26.66 45.72,-45.86 76.82,-50.72 -14.34,5.51 -27.7,12.95 -38.74,22.86 -42.14,37.96 -50.79,103.85 -46.49,168.9 17.04,-24.18 34.6,-47.93 53.02,-71.1 17.62,-21.68 35.18,-43.85 55.74,-62.87 -0.57,-0.43 -1.15,-0.86 -1.72,-1.29 -6.38,-28.55 -12.69,-59.76 -18.36,-88.61 -1.07,-5.49 -5.78,-30.8 -6.75,-35.74 59.31,-53.54 130.08,-102.47 209.82,-117.78 46.56,-9.29 99.6,3.01 128.19,42.97 -11.48,-10.19 -24.23,-18.63 -38.11,-23.88 -88.58,-33.18 -202.63,51.32 -268.95,109.14 1.59,8.26 3.81,19.97 3.81,19.98 4.81,25.64 9.69,53.83 13.89,79.72 46.82,39.28 93.08,79.28 137.83,120.97 8.09,-18.66 23.93,-34.29 47.62,-40.91 11.07,-3.14 22.17,-3.24 32.65,-1.05 12.17,-40.56 25.79,-80.67 40.22,-120.47 -27.81,-42.29 -68.12,-93.66 -96.72,-132.99 -11.13,12.07 -22.43,23.97 -33.68,35.92 -39.97,41.81 -80.49,83.12 -123.28,122.1 47.96,-60.43 99.75,-117.63 152.49,-173.89 l 5.89,-6.16 4.92,6.77 c 32.55,46.26 67.15,93.15 91.8,144.36 8.43,-23.14 17.11,-46.19 25.93,-69.18 25.36,-14.49 53.29,-29.67 79.15,-43.56 4.94,-2.65 27.74,-14.6 32.17,-16.99 68.61,40.92 136.23,94.17 174.34,165.85 22.59,41.75 26.46,96.07 -3.32,135.16 6.36,-13.97 10.68,-28.65 11.6,-43.47 5.74,-94.19 -108.79,-178.63 -183.48,-224.87 -7.32,3.88 -17.98,9.52 -17.98,9.52 -23.15,12.15 -48.7,25.16 -72.25,36.82 -2.5,5.55 -5,11.09 -7.53,16.64 71.75,13.36 142.64,30.86 213.15,49.57 l 8.2,2.26 -3.6,7.53 c -24.51,49.34 -48.5,100.07 -81.68,144.27 m 178.86,27.31 c 1.43,-157.56 -100.02,-308.52 -246.25,-366.98 -260.2,-107.28 -548.22,85.34 -547.38,366.98 -0.78,281.65 287.15,474.24 547.38,366.98 146.23,-58.45 247.66,-209.43 246.25,-366.98 m -157.01,222.25 c -41.75,-9.87 -96.3,-20.68 -137.78,-33.39 -16.62,-49.58 -34.29,-98.82 -54.14,-147.23 7.26,-10.38 11.89,-22.51 12.8,-35.44 -3.07,29.51 -32.95,52.51 -62.13,45.39 -54.08,-12.6 -54.16,-90.74 0,-103.26 29.2,-7.07 59.04,15.95 62.13,45.48 -2.24,-31.54 -26.66,-58.49 -56.9,-65.83 27.87,-51.4 53.17,-104.14 77.39,-157.32 50.89,17.47 102.56,32.5 154.43,46.81 15.86,4.24 31.7,8.55 47.61,12.64 -20.12,42.21 -45.09,99.86 -68.12,142.14 -52.34,-8.12 -104.86,-15.23 -157.64,-20.27 66.12,19.94 133.2,36.48 200.49,51.8 -7.41,56.21 -11.8,112.69 -15.45,169.24 -0.91,16.41 -1.92,32.82 -2.69,49.24 m 647.6,-106.36 c -16.84,-44.51 -37.69,-87.09 -62.59,-127.63 h 127.5 l 48.7,56.21 2.71,-2.35 -0.01,0.01 21.34,41.02 c -39.65,8.76 -97.26,22.96 -137.38,32.59 -0.09,0.04 -0.18,0.1 -0.27,0.15 m -26.63,439.63 c -3.24,2.6 -6.57,5.15 -9.89,7.72 -11.34,-71.61 -29.05,-175.05 -41.31,-247.28 -5.08,-32.5 -14.36,-84.3 -18.23,-116.45 -0.04,-2.29 -0.39,-4.94 -0.25,-6.92 3.32,-8.64 12.63,-14.96 19.64,-20.99 23.86,-18.63 54.34,-36.64 78.18,-51.01 39.97,-10.63 96.86,-26.24 136.14,-37.44 l -6.56,182.17 c 0,0 -85.34,64.01 -123.09,75.5 9.85,42.66 31.18,132.93 31.18,132.93 h 11.5 c -21.95,30.28 -48.95,57.49 -77.31,81.77 m -2875.87,415.9 c -49.63,138.86 -95.27,280.83 -135.99,422.57 -33.02,1.1 -66.07,1.77 -99.1,2.27 20.23,-138.32 36.05,-278.8 46.98,-418.15 62.69,-2.45 125.39,-4.66 188.11,-6.69 M 122.539,3802.45 c 0,-19.69 -86.9843,-321.66 -86.9843,-321.66 v -105.04 l 0.875,3.48 c 4.625,-1.17 452.9653,-113.81 509.8473,-120.51 15.168,89.96 93.664,198.14 201.067,276.62 129.644,94.73 285.546,138.85 438.996,124.27 48.56,-4.62 95.25,-13.63 139.76,-26.66 -0.94,31.27 -1.18,62.55 -0.41,93.84 -97.76,24.14 -200.58,29.02 -300.86,14.05 -211.799,-27.45 -455.389,-137.71 -506.225,-365.09 47.45,229.82 292.27,343.64 505.355,371.54 100.67,15.41 203.86,10.73 301.95,-13.41 1.08,19.32 -0.28,39.32 5.06,58.01 14.13,40.31 45.65,133 60.19,171.68 5.46,15.15 11.11,30.23 16.76,45.31 -160.66,1.41 -321.35,-1.86 -481.881,-11.02 -202.316,-10.97 -406.226,-32.19 -607.09,-59.04 55.52,-11.53 95.375,-36.15 92.461,-86.34 -2.355,-30.39 -17.332,-56.7 -31.609,-82.82 -0.016,-0.84 0.058,-1.68 0,-2.53 -0.461,0.01 -0.918,0.02 -1.367,0.03 -2.235,-4.1 -4.434,-8.18 -6.559,-12.29 -50.562,-91.82 -105.156,-181.58 -168.988,-264.92 l -0.508,-0.66 -0.832,-0.09 c -25.18,-2.79 -50.399,-5.26 -75.602,-7.84 l -75.613,-7.69 75.367,9.83 c 24.836,3.22 49.656,6.53 74.516,9.55 20.699,27.62 40.074,56.34 58.879,85.35 37.918,58.49 73.504,118.48 106.613,179.82 1.516,3 3.102,6.01 4.719,9.04 -84.113,0.96 -168.418,3.7 -251.879,14.6 83.211,-5.76 170.734,-7.36 254.312,-7.71 -0.5,10.57 -4.132,21.05 -9.652,30.52 -35.148,57.31 -129.484,109.91 -198.102,135.18 -1.777,-0.75 -3.585,-1.53 -5.363,-2.28 1.703,0.79 3.426,1.58 5.137,2.37 -3.82,1.4 -7.574,2.73 -11.223,3.96 -33.465,-0.18 -66.9412,-0.61 -100.3552,0.6 -6.6094,0.07 -12.5703,0.3 -17.7461,0.73 0,0 86.9843,-123.08 86.9843,-142.78 M 1370.34,2993.27 c 20.53,3.27 41.06,6.67 61.55,10.17 18.8,22.43 38.74,47.26 57.03,70.26 3.48,4.4 19.29,24.71 22.43,28.64 -28.08,74.81 -68.45,150.8 -132.24,201.03 -37.07,29.65 -89.83,43.1 -133.6,20.73 14.88,3.8 30.09,5.42 44.83,3.71 37.48,-4.43 69.98,-27.55 97.58,-58.88 -28.87,-7.24 -57.5,-15.15 -85.9,-24.06 -18.21,-5.94 -36.61,-11.79 -54.5,-18.84 4.32,13.1 8.6,26.21 12.82,39.34 -11.28,27.01 -24.16,56.13 -36.19,82.96 -2.3,5.11 -13.06,28.48 -15.11,33.09 -79.6,9.43 -165.12,8.58 -239.321,-25.01 -43.387,-19.29 -79.59,-59.96 -79.852,-109.1 3.485,14.94 9.028,29.21 17.324,41.51 52.942,78.14 195.209,75.13 282.589,66.19 3.49,-7.66 8.43,-18.51 8.43,-18.51 10.9,-23.71 23.18,-49.55 34.71,-73.12 -4.3,-16.46 -8.53,-32.96 -12.65,-49.49 -2.89,-1.47 -5.78,-2.96 -8.62,-4.54 2.63,0.9 5.4,1.78 8.16,2.67 -12.44,-50.11 -23.84,-100.49 -33.02,-151.32 -16.42,23.04 -45.66,36.92 -75.19,30.13 -58.86,33.3 -119.245,63.79 -180.116,93.19 31.676,41.73 85.346,96.82 122.316,137.93 9.82,-13.14 19.84,-26.14 29.79,-39.19 35.44,-45.73 71.46,-91 110.01,-134.19 -41.47,65.06 -87.07,127.31 -133.71,188.71 l -5.22,6.74 -5.6,-6.23 c -21.7,-24.04 -42.69,-48.58 -62.84,-73.93 -19.765,-25.43 -40.214,-50.93 -54.785,-79.82 -6.992,3.38 -13.98,6.75 -20.984,10.11 -28.297,-7.46 -58.902,-16.21 -87.125,-24.43 -5.383,-1.58 -30.02,-9.03 -34.852,-10.43 l -2.031,-7.46 c -21.062,-84.77 -34.601,-199.21 14.195,-276.39 17.184,-26.66 45.723,-45.86 76.825,-50.72 -14.336,5.51 -27.707,12.95 -38.75,22.86 -42.137,37.96 -50.793,103.85 -46.489,168.9 17.036,-24.18 34.602,-47.93 53.016,-71.1 17.621,-21.68 35.184,-43.85 55.73,-62.87 -0.566,-0.43 -1.136,-0.86 -1.703,-1.29 -6.386,-28.55 -12.683,-59.76 -18.359,-88.61 -1.074,-5.49 -5.781,-30.8 -6.77,-35.74 59.325,-53.54 130.102,-102.47 209.832,-117.78 46.56,-9.29 99.6,3.01 128.19,42.97 -11.47,-10.19 -24.24,-18.63 -38.11,-23.88 -88.57,-33.18 -202.619,51.32 -268.939,109.14 1.574,8.26 3.809,19.97 3.809,19.98 4.785,25.64 9.683,53.83 13.883,79.72 46.828,39.28 93.087,79.28 137.827,120.97 8.09,-18.66 23.93,-34.29 47.62,-40.91 11.08,-3.14 22.17,-3.24 32.66,-1.05 12.61,-42.03 26.77,-83.58 41.79,-124.79 -25.05,-37.17 -60.54,-80.08 -86.74,-114.41 -11.17,12.11 -22.52,24.04 -33.81,36.05 -39.97,41.82 -80.484,83.13 -123.289,122.1 49.738,-62.55 103.399,-121.82 158.239,-179.89 19.33,25 37.92,50.49 55.19,76.95 11.32,17.71 22.87,35.61 32.1,54.57 7.86,-21.44 15.9,-42.81 24.09,-64.12 25.36,-14.49 53.29,-29.67 79.15,-43.56 4.94,-2.65 27.73,-14.6 32.16,-16.99 68.62,40.92 136.24,94.17 174.34,165.85 22.6,41.75 26.47,96.07 -3.32,135.16 6.36,-13.97 10.67,-28.65 11.61,-43.47 5.74,-94.19 -108.8,-178.63 -183.49,-224.87 -7.33,3.88 -17.97,9.52 -17.97,9.52 -23.15,12.15 -48.7,25.16 -72.26,36.82 -26.75,59.34 -54.57,118.28 -85.62,175.55 30.23,7.34 54.64,34.29 56.88,65.83 -3.07,-29.53 -32.92,-52.55 -62.11,-45.48 -54.17,12.52 -54.1,90.66 0,103.26 29.17,7.12 59.05,-15.88 62.12,-45.39 -0.91,12.93 -5.53,25.06 -12.79,35.44 21.47,52.39 40.4,105.76 58.22,159.48 46.24,12.9 102.5,24.86 145.12,35.44 0.77,-16.39 1.78,-32.77 2.7,-49.15 3.71,-57.73 8.17,-115.42 15.87,-172.79 1.98,71.56 -0.36,143.13 -4.06,214.59 32.78,-44.24 57.43,-98.41 74.01,-140.43 -5.2,-6.61 -12.57,-16 -12.57,-16 -16.03,-20.59 -33.33,-43.36 -48.96,-64.42 -74.09,-16.61 -148,-34.45 -220.76,-56.38 57.18,5.46 114.07,13.34 170.77,22.33 21.76,-38.68 46.5,-91.14 66.18,-129.85 -15.82,-4.08 -31.6,-8.38 -47.39,-12.6 -55.77,-15.38 -111.34,-31.47 -165.95,-50.7 75.95,13.61 150.87,32.11 225.4,51.87 l 8.43,2.33 -3.93,7.65 c -24.02,45.26 -48,91.47 -79.93,131.74 m 165.77,25.26 c 1.43,-157.56 -100.02,-308.52 -246.24,-366.98 -260.2,-107.28 -548.229,85.34 -547.386,366.98 -0.789,281.65 287.146,474.24 547.386,366.98 146.23,-58.45 247.65,-209.43 246.24,-366.98 M 166.523,3940.7 c 2.348,1.08 4.711,2.16 7.067,3.25 -6.035,0 -12.063,0 -18.098,-0.04 3.488,-0.93 7.184,-2.02 11.031,-3.21 M 1173.07,3515.37 c -322.468,23.85 -584.5,-269.48 -521.511,-587.14 -57.149,314.51 201.703,604.18 521.011,580.04 275.04,-17.69 480.8,-264.38 457.36,-537.63 -2.02,-37.56 -10.12,-74.6 -23.24,-109.85 13.74,35.07 22.49,72.11 25.16,109.71 28.21,276.26 -181.08,526.65 -458.78,544.87 m 363.04,-496.84 c 2.15,157.96 -99.04,309.68 -245.41,368.98 -262.43,109.53 -553.692,-84.67 -553.962,-368.98 0.332,-284.32 291.492,-478.47 553.952,-368.97 146.39,59.28 247.56,211.02 245.42,368.97 m -960.614,102.85 c -78.875,29.02 -159.621,46.82 -241.719,61.8 -82.23,14.05 -164.402,25.19 -248.4332,23.99 77.7542,-32.16 158.7772,-51.1 240.9412,-66.26 82.332,-14.08 165.176,-24.24 249.211,-19.53 m 2178.284,-283.65 3.36,-1.25 -1006.58,-0.67 -58.27,-27.89 -91.47,36.36 C 1530.34,2657.14 1349.65,2524 1137.86,2524 c -238.305,0 -437.235,168.55 -484.087,392.95 -149.343,13.12 -519.746,86.26 -629.7066,194.59 l -9.8437,50.86 c 0,0 59.082,9.85 65.6484,27.9 C 86.4336,3208.35 0,3252.67 0,3252.67 v 107.22 l 35.5547,15.86 -0.8672,-3.46 c 19.293,-4.86 472.9145,-118.83 514.3595,-121.01 l 0.191,3.58 3.535,-0.54 c 24.2,159.3 282.852,431.52 632.887,398.16 50.23,-4.78 97.1,-13.93 140.67,-26.73 0.85,-25.46 2.13,-50.9 3.74,-76.33 1.98,23.91 1.84,49.35 1.6,74.74 269.91,-81.64 410.87,-304.66 428.45,-503.1 l 7.13,0.63 c -11.71,132.12 -72.26,258.06 -170.51,354.63 -73.16,71.91 -163.2,124.35 -265.12,155.09 -0.13,13.21 -0.22,26.38 0,39.26 0.15,18.28 -0.35,36.56 -0.73,54.85 114.48,-29.13 221.79,-84.84 309.58,-166.43 48.51,-44.12 88.94,-96.18 120.47,-153.22 -0.24,-0.42 -0.38,-0.7 -0.42,-0.76 l 1.13,-0.61 c 39.4,-71.69 64.76,-151.21 74.24,-232.8 -7.9,80.38 -31.43,159.06 -68.85,230.42 5.67,10.3 137.26,242.13 472.92,273.68 101.77,9.58 286.22,14.03 501.93,15.43 7.26,-62.67 13.71,-180.54 18.7,-293.78 -223.54,-18.41 -446.81,-40.58 -669.7,-64.43 l -144.82,-16.36 c -4.4,-0.4 -9.23,-0.86 -13.62,-2.11 -19.03,-6.09 -34.58,-19.68 -48.88,-33.09 -17.48,-16.92 -33.23,-35.53 -47.67,-55.05 24.32,30.44 68.9,87.31 110.34,88.52 140.56,14.14 295.17,30.09 435.11,42.83 126.44,11.48 252.96,22.52 379.55,32.68 3.94,-90.29 6.93,-176.77 8.62,-229 -296.21,3.86 -649.89,8.28 -894.24,10.26 282.41,-6.22 589.01,-12.18 894.45,-16.96 0.6,-18.58 1.01,-32.03 1.21,-38.77 -323.65,7.17 -647.46,8.23 -971.15,5.41 323.78,-1.88 647.72,-4.3 971.49,-11.93 2.02,-16.95 19.16,-172.32 -17.5,-271.72 M 2543.23,4012.7 c -3.74,70.34 -12.45,211.99 -16.9,282.29 l -0.17,2.68 -2.71,-0.08 c -183.38,-5.02 -393.21,-11.21 -576.03,-18.34 l -1.59,-0.05 -0.63,-1.43 c -24.73,-55.79 -73.53,-168.2 -97.81,-224.23 25.44,54.76 76.38,164.81 101.75,220.73 132.93,3.18 297.1,8.21 430.49,12.73 l 141.32,4.91 c 5.4,-71.16 16.25,-209.82 22.28,-279.21 m -743.19,72.18 c 22.57,45.72 66.12,136.18 87.84,182.33 l 2.21,4.67 -5.09,-0.31 c -43.35,-2.66 -104.91,-5.93 -147.57,-9.6 41.4,0.4 99.52,1.91 142.75,3.35 l -41.75,-85.5 -42.2,-88.69 c -36.18,0.8 -76.48,1.48 -112.51,1.69 l -38.19,0.11 38.11,-2.35 c 37.36,-2.17 79.02,-4.19 116.4,-5.7 m -213.53,41.39 85.68,113.86 -35.86,19.92 -88.03,-117.07 z m 948.8,288.52 c 10.99,-139.36 26.76,-279.84 47.04,-418.14 -117.58,4.59 -235.09,9.98 -352.45,16.39 -230.11,12.51 -463.75,34 -685.01,101.38 0.1,0.17 0.2,0.32 0.29,0.5 l -0.62,0.35 c -0.14,-0.22 -0.3,-0.41 -0.43,-0.62 -16.76,5.11 -33.44,10.46 -50.04,16.11 -68.06,23.86 -137.35,51.16 -198.69,89.02 80.16,45.79 160.52,91.77 243.62,131.97 14.69,6.61 29.92,14.44 45.52,17.72 l 2.91,0.31 5.85,0.6 c 0,0 11.71,1.16 11.71,1.17 309.04,27.04 619.89,47.88 930.3,43.24 M 378.785,3782.66 c 12.137,22.32 24.004,45.45 25.887,70.28 4.68,77.7 -103.156,84.31 -159.91,89.13 -23.309,1.48 -46.664,1.84 -70.032,1.87 -2.617,-1.11 -5.273,-2.24 -7.878,-3.34 71.062,-22.24 198.613,-88.12 211.933,-157.94 m 452.699,-640.27 c 0,0 -11.539,-3.43 -19.492,-5.8 -7.113,-29.11 -14.398,-64.63 -18.164,-101.32 69.207,31.01 139.008,60.82 210.552,86.11 -50.771,-27.81 -103.009,-52.68 -155.556,-76.88 -14.961,-6.75 -29.883,-13.57 -44.906,-20.18 29.25,-41.79 66.867,-100.08 98.832,-140.49 50.84,38.33 102.25,75.97 155.11,111.51 -11.52,36.76 5.09,81.79 49.9,94.61 -67.33,23.03 -133.467,49.4 -199.104,76.76 -24.926,-8.16 -52.195,-16.78 -77.172,-24.32 m 981.506,581.47 c -66.36,1.16 -134.05,3.94 -200.49,6.24 l -20.05,0.71 c 0,0 -10.02,0.35 -10.02,0.36 -9.26,-0.5 -17.77,4.06 -20.89,12.78 -1.63,5.57 -4.02,13.12 -5.22,18.64 -1.94,11.76 8.35,22.62 20.42,21.52 53.49,-0.09 106.97,0.84 160.46,1.77 13,0.23 47.66,0.79 60.17,1 6.66,-0.08 13.54,1.13 19.44,-2.12 12.38,-6.24 13.63,-22.33 18.32,-34.01 3.23,-13.46 -8.32,-27.43 -22.14,-26.89"
         style="fill:#100f0d;fill-opacity:1;fill-rule:nonzero;stroke:none"
         transform="matrix(0.13333333,0,0,-0.13333333,0,598.32)" />
      <path
         id="path28"
         d="m 4807.46,3506.13 c -268.74,0 -487.38,-218.65 -487.38,-487.39 0,-102.65 24.54,-186.35 77.23,-263.38 l 5.9,4.05 c -51.83,75.78 -75.97,158.18 -75.97,259.33 0,264.8 215.43,480.23 480.22,480.23 264.8,0 480.23,-215.43 480.23,-480.23 0,-53.79 -8.83,-106.58 -26.23,-156.93 l 6.75,-2.35 c 17.68,51.12 26.62,104.69 26.62,159.28 0,268.74 -218.63,487.39 -487.37,487.39 m 619.27,-535.63 c 59.52,-4.01 122.07,-5.49 181.68,-5.35 52.99,0.66 106.32,1.11 158.88,8.65 7.49,1.23 15.06,2.48 22.12,5.34 -7.28,-2.11 -14.85,-2.7 -22.35,-3.45 -110.76,-6.13 -229.32,-1.91 -340.33,-5.19 m -3842.54,1164.59 77.34,102.77 -23.22,12.91 -78.85,-104.87 z m 2.32,-8.82 -38.21,16.71 88.03,117.07 35.86,-19.92 z M 5609.73,3006.79 c 16.93,44.59 37.98,87.23 63,127.83 -27.78,15.06 -55.02,31.28 -80.28,50.42 -8.46,7.31 -18.62,13.5 -22.28,24.86 -0.33,3.19 0.08,5.83 0.13,8.77 3.36,33.05 12.92,83.7 18.5,116.94 14.2,79.95 30.85,166.96 47.71,246.2 -82.79,63.88 -184.84,113.9 -297.22,153.17 -40.65,-39.84 -82.68,-78.7 -125.71,-116.25 16.08,-11.27 31.78,-23.42 47.04,-36.48 104.49,-86.98 179.06,-207.23 215.34,-337.79 -19.52,64.74 -47.83,126.81 -84.76,183.3 -47.42,73.51 -110.22,137.27 -182.67,186.57 -19.09,-16.57 -38.36,-32.89 -57.8,-48.9 42.4,-25.91 81.75,-57.18 117.17,-93.56 118.85,-122.09 181.14,-287.12 175.64,-465.08 z m 179.69,53.85 2.7,-2.33 -0.44,-0.51 -50.4,-58.16 h -305.14 l 0.14,3.71 c 6.41,177.39 -55.21,342.01 -173.52,463.52 -35.56,36.54 -75.11,67.92 -117.79,93.79 -1.1,-0.91 -2.21,-1.84 -3.31,-2.74 0.99,0.98 2,1.96 2.98,2.95 -94.98,57.5 -205.4,87.69 -321.83,86.47 -313.33,-2.92 -615.14,-278.23 -633.22,-577.6 l -7.15,0.43 c 8.57,141.94 82.24,287.9 202.11,400.45 124.72,117.1 280.34,182.4 438.19,183.88 118.27,1.06 230.59,-29.76 327.1,-88.51 17.59,17.46 35.46,34.72 53.55,51.78 -93.48,62.34 -202.65,100.71 -315.52,104.98 -266.37,7.1 -551.98,-110.82 -687.08,-349.84 97.23,181.02 287.03,297.52 485,338.18 182.64,41.48 369.74,15.9 522.48,-88.75 41.66,39.1 84.57,77.08 128.31,113.59 -306,106.35 -687.7,133.64 -965.12,145.3 275.29,-4.66 663.7,-31.45 970.72,-140.66 5.76,4.77 11.48,9.57 17.26,14.29 -5.04,-5.03 -10.14,-10.02 -15.23,-15.02 116.63,-41.67 221.44,-95.25 303.69,-164.13 27.91,-24.87 54.53,-52.73 75.88,-83.44 -21.95,30.28 -48.95,57.5 -77.31,81.78 -3.24,2.6 -6.58,5.15 -9.89,7.72 -11.34,-71.61 -29.05,-175.05 -41.3,-247.28 -5.09,-32.51 -14.37,-84.3 -18.24,-116.45 -0.04,-2.29 -0.39,-4.94 -0.25,-6.92 3.32,-8.64 12.64,-14.96 19.65,-20.99 23.85,-18.63 54.33,-36.64 78.17,-51.02 39.97,-10.62 96.86,-26.23 136.14,-37.42 -39.65,8.75 -97.26,22.95 -137.38,32.58 -0.09,0.04 -0.18,0.1 -0.27,0.14 -16.84,-44.5 -37.69,-87.08 -62.59,-127.62 h 127.5 l 48.7,56.21 z m -942.79,-42.11 c 0.05,2.09 -0.04,4.16 -0.25,6.19 0.13,-2.05 0.29,-4.1 0.25,-6.19 m 0,0 c 0.04,-2.09 -0.12,-4.14 -0.25,-6.2 0.21,2.04 0.3,4.11 0.25,6.2 m 197.01,3.78 c -7.41,56.2 -11.8,112.68 -15.45,169.22 -0.91,16.42 -1.92,32.83 -2.69,49.25 -41.75,-9.87 -96.3,-20.69 -137.78,-33.39 -16.62,-49.59 -34.29,-98.82 -54.14,-147.23 7.26,-10.38 11.89,-22.51 12.8,-35.44 -3.07,29.51 -32.95,52.51 -62.11,45.38 -54.1,-12.59 -54.18,-90.73 0,-103.25 29.18,-7.07 59.02,15.95 62.11,45.48 -2.25,-31.54 -26.66,-58.49 -56.9,-65.83 27.87,-51.4 53.17,-104.14 77.39,-157.33 50.89,17.48 102.56,32.51 154.43,46.82 15.86,4.24 31.7,8.55 47.61,12.64 -20.12,42.2 -45.09,99.86 -68.12,142.15 -52.34,-8.13 -104.86,-15.24 -157.64,-20.28 66.12,19.94 133.2,36.48 200.49,51.81 m -289.47,67.64 c -67.34,23.03 -133.48,49.4 -199.11,76.76 -24.92,-8.16 -52.21,-16.78 -77.18,-24.32 0,0 -11.54,-3.43 -19.49,-5.8 -7.11,-29.11 -14.4,-64.63 -18.17,-101.32 69.2,31.01 139.01,60.82 210.56,86.11 -50.77,-27.8 -103.02,-52.68 -155.56,-76.88 -14.96,-6.74 -29.88,-13.57 -44.9,-20.18 29.24,-41.79 66.86,-100.08 98.83,-140.49 50.84,38.33 102.25,75.97 155.1,111.51 -11.53,36.76 5.11,81.8 49.92,94.61 m 324.12,-86.51 c -24.84,-4.24 -49.73,-8.33 -74.64,-12.22 33.18,-44.2 57.17,-94.93 81.68,-144.27 l 3.6,-7.52 -8.2,-2.27 c -70.52,-18.71 -141.4,-36.21 -213.15,-49.57 2.52,-5.55 5.03,-11.09 7.53,-16.64 23.55,-11.66 49.1,-24.67 72.25,-36.82 0,0 10.66,-5.64 17.98,-9.53 74.69,46.25 189.22,130.68 183.5,224.88 -0.94,14.82 -5.26,29.5 -11.62,43.47 29.78,-39.09 25.91,-93.41 3.32,-135.16 -38.11,-71.68 -105.71,-124.93 -174.34,-165.85 -4.43,2.4 -27.22,14.34 -32.17,17 -25.86,13.88 -53.79,29.07 -79.15,43.55 -8.82,22.99 -17.5,46.04 -25.93,69.18 -24.65,-51.21 -59.25,-98.1 -91.8,-144.36 0,0.01 -4.92,-6.77 -4.92,-6.77 l -5.89,6.15 c -52.74,56.26 -104.53,113.48 -152.5,173.89 42.8,-38.97 83.32,-80.28 123.29,-122.09 11.25,-11.95 22.56,-23.86 33.68,-35.92 28.6,39.34 68.91,90.7 96.72,132.99 -14.43,39.8 -28.05,79.9 -40.22,120.47 -10.48,-2.19 -21.58,-2.1 -32.65,1.05 -23.69,6.62 -39.53,22.25 -47.62,40.9 -44.75,-41.68 -91.01,-81.68 -137.83,-120.96 -4.2,-25.9 -9.1,-54.07 -13.89,-79.72 0,0 -2.22,-11.72 -3.81,-19.98 66.32,-57.82 180.37,-142.33 268.95,-109.14 13.88,5.25 26.63,13.69 38.11,23.88 -28.59,-39.97 -81.63,-52.26 -128.19,-42.97 -79.73,15.31 -150.51,64.25 -209.84,117.78 0.99,4.94 5.7,30.24 6.77,35.75 5.67,28.84 11.98,60.05 18.36,88.6 0.57,0.43 1.15,0.85 1.7,1.28 -20.54,19.03 -38.1,41.2 -55.72,62.88 -18.42,23.18 -36,46.91 -53.02,71.1 -4.3,-65.05 4.35,-130.94 46.49,-168.89 11.04,-9.92 24.4,-17.36 38.74,-22.87 -31.09,4.87 -59.63,24.06 -76.82,50.72 -48.8,77.18 -35.25,191.62 -14.2,276.39 l 2.04,7.46 c 4.84,1.4 29.47,8.85 34.85,10.42 28.23,8.23 58.83,16.98 87.14,24.44 6.09,-2.92 12.17,-5.86 18.27,-8.8 13.46,22.6 29.96,43.4 46.06,64.12 20.14,25.35 41.14,49.89 62.84,73.93 l 5.6,6.23 5.21,-6.74 c 46.65,-61.4 92.25,-123.65 133.73,-188.72 -38.56,43.19 -74.59,88.47 -110.02,134.2 -9.96,13.05 -19.97,26.05 -29.8,39.19 -32.85,-36.54 -78.83,-84.08 -110.92,-123.52 60.88,-29.41 121.28,-59.9 180.16,-93.21 29.53,6.79 58.77,-7.09 75.18,-30.13 12.33,68.23 28.67,135.65 46.13,202.68 -11.53,23.57 -23.81,49.41 -34.71,73.12 0,0 -4.93,10.85 -8.42,18.51 -87.38,8.94 -229.67,11.95 -282.6,-66.19 -8.3,-12.3 -13.82,-26.57 -17.32,-41.52 0.27,49.15 36.46,89.82 79.85,109.1 74.21,33.6 159.73,34.45 239.32,25.02 2.06,-4.61 12.82,-27.98 15.12,-33.09 12.03,-26.83 24.91,-55.95 36.18,-82.96 -5.89,-18.35 -11.87,-36.66 -17.99,-54.94 47.09,23.19 99.14,35.32 149.86,47.95 4.59,-78.55 7.5,-157.26 5.55,-235.97 6.58,1.51 13.18,2.99 19.77,4.47 15.64,21.06 32.93,43.83 48.97,64.42 -0.01,0 7.35,9.38 12.56,16 -32.24,81.71 -94.97,209.43 -188.71,220.51 -14.74,1.72 -29.95,0.09 -44.84,-3.7 43.77,22.37 96.53,8.91 133.6,-20.75 63.8,-50.22 104.16,-126.22 132.24,-201.02 -3.13,-3.93 -18.94,-24.24 -22.42,-28.64 -18.3,-23 -38.24,-47.83 -57.03,-70.26 m -141.19,384.07 c -262.44,109.53 -553.7,-84.67 -553.97,-368.98 0.34,-284.32 291.49,-478.47 553.95,-368.97 146.4,59.28 247.56,211.03 245.43,368.97 1.43,-157.56 -100.02,-308.53 -246.25,-366.99 -260.19,-107.28 -548.22,85.35 -547.38,366.99 -0.78,281.65 287.15,474.24 547.38,366.98 146.23,-58.45 247.66,-209.43 246.25,-366.98 2.15,157.95 -99.04,309.68 -245.41,368.98 M 85.3438,3207.17 c 77.7542,-32.16 158.7772,-51.1 240.9412,-66.26 82.332,-14.08 165.176,-24.25 249.207,-19.53 -78.867,29.02 -159.625,46.82 -241.707,61.8 -82.23,14.05 -164.41,25.19 -248.4412,23.99 M 1199.97,3012.33 c 0.22,2.04 0.31,4.11 0.26,6.2 0.04,-2.09 -0.12,-4.14 -0.26,-6.2 m 0.26,6.2 c 0.05,2.09 -0.04,4.16 -0.25,6.19 0.13,-2.05 0.3,-4.1 0.25,-6.19 m -92.47,71.42 c -67.33,23.03 -133.467,49.4 -199.1,76.76 -24.93,-8.16 -52.195,-16.78 -77.176,-24.32 0,0 -11.546,-3.43 -19.492,-5.8 -7.113,-29.11 -14.41,-64.63 -18.164,-101.32 69.207,31.01 139.008,60.82 210.552,86.11 -50.771,-27.8 -103.009,-52.68 -155.556,-76.88 -14.957,-6.74 -29.883,-13.57 -44.914,-20.18 29.258,-41.79 66.871,-100.08 98.84,-140.49 50.84,38.33 102.25,75.97 155.11,111.51 -11.53,36.76 5.1,81.8 49.9,94.61 m 324.13,-86.51 c -20.5,-3.51 -41.02,-6.9 -61.55,-10.17 31.93,-40.27 55.91,-86.48 79.93,-131.74 l 3.93,-7.65 -8.43,-2.33 c -74.53,-19.76 -149.45,-38.26 -225.4,-51.87 54.61,19.24 110.18,35.32 165.95,50.7 15.79,4.22 31.56,8.52 47.4,12.59 -19.69,38.72 -44.43,91.18 -66.19,129.86 -56.7,-8.99 -113.59,-16.87 -170.77,-22.33 72.76,21.94 146.67,39.77 220.76,56.38 15.63,21.06 32.93,43.83 48.96,64.42 0,0 7.37,9.38 12.57,16 -16.58,42.02 -41.23,96.19 -74.01,140.43 3.71,-71.46 6.04,-143.03 4.07,-214.59 -7.71,57.37 -12.17,115.06 -15.87,172.79 -0.93,16.38 -1.94,32.77 -2.7,49.15 -42.63,-10.58 -98.89,-22.54 -145.13,-35.45 -17.81,-53.72 -36.75,-107.08 -58.22,-159.47 7.25,-10.38 11.87,-22.51 12.79,-35.44 -3.07,29.51 -32.95,52.51 -62.12,45.38 -54.1,-12.59 -54.17,-90.73 0.01,-103.25 29.18,-7.07 59.03,15.95 62.1,45.48 -2.24,-31.54 -26.65,-58.49 -56.88,-65.83 31.05,-57.27 58.88,-116.21 85.63,-175.55 23.55,-11.66 49.1,-24.67 72.25,-36.82 0,0 10.64,-5.64 17.97,-9.53 74.68,46.25 189.23,130.68 183.49,224.88 -0.94,14.82 -5.25,29.5 -11.61,43.47 29.78,-39.09 25.92,-93.41 3.32,-135.16 -38.1,-71.68 -105.72,-124.93 -174.34,-165.85 -4.43,2.4 -27.22,14.34 -32.16,17 -25.86,13.88 -53.79,29.07 -79.16,43.55 -8.18,21.31 -16.22,42.68 -24.07,64.12 -9.24,-18.96 -20.79,-36.87 -32.11,-54.57 -17.26,-26.46 -35.86,-51.95 -55.19,-76.95 -54.84,58.07 -108.497,117.34 -158.239,179.88 42.805,-38.96 83.319,-80.27 123.289,-122.09 11.29,-12.01 22.64,-23.94 33.81,-36.05 26.2,34.33 61.69,77.24 86.74,114.41 -15.02,41.21 -29.18,82.76 -41.79,124.79 -10.49,-2.19 -21.58,-2.1 -32.66,1.05 -23.69,6.62 -39.53,22.25 -47.62,40.9 -44.74,-41.68 -90.999,-81.68 -137.824,-120.96 -4.203,-25.9 -9.093,-54.07 -13.886,-79.72 0,0 -2.235,-11.72 -3.813,-19.98 66.324,-57.82 180.363,-142.33 268.943,-109.14 13.87,5.25 26.64,13.69 38.11,23.88 -28.59,-39.97 -81.63,-52.26 -128.18,-42.97 -79.74,15.31 -150.521,64.25 -209.842,117.78 0.993,4.94 5.696,30.24 6.77,35.75 5.676,28.84 11.973,60.05 18.359,88.6 0.567,0.43 1.137,0.85 1.703,1.28 -20.546,19.03 -38.105,41.2 -55.73,62.88 -18.414,23.18 -35.98,46.92 -53.016,71.1 -4.304,-65.05 4.352,-130.94 46.493,-168.89 11.039,-9.92 24.41,-17.36 38.738,-22.87 -31.094,4.87 -59.633,24.06 -76.817,50.72 -48.796,77.18 -35.257,191.62 -14.195,276.39 l 2.024,7.46 c 4.839,1.4 29.476,8.85 34.859,10.42 28.219,8.23 58.828,16.98 87.129,24.44 6.996,-3.36 13.988,-6.73 20.98,-10.11 14.567,28.88 35.024,54.39 54.785,79.83 20.15,25.34 41.14,49.89 62.84,73.92 l 5.6,6.23 5.22,-6.74 c 46.64,-61.4 92.24,-123.66 133.71,-188.71 -38.54,43.19 -74.57,88.46 -110.01,134.19 -9.94,13.05 -19.96,26.05 -29.8,39.19 -36.96,-41.11 -90.63,-96.2 -122.302,-137.92 60.867,-29.41 121.252,-59.9 180.102,-93.2 29.54,6.79 58.78,-7.09 75.2,-30.13 9.19,50.84 20.58,101.21 33.03,151.32 -2.77,-0.89 -5.54,-1.78 -8.17,-2.68 2.84,1.59 5.73,3.08 8.63,4.55 4.11,16.53 8.34,33.02 12.64,49.49 -11.53,23.57 -23.81,49.41 -34.71,73.12 0,0 -4.94,10.85 -8.43,18.51 -87.38,8.94 -229.647,11.95 -282.592,-66.19 -8.293,-12.3 -13.833,-26.57 -17.317,-41.52 0.258,49.15 36.461,89.82 79.848,109.1 74.211,33.6 159.721,34.45 239.321,25.02 2.05,-4.61 12.82,-27.98 15.11,-33.09 12.03,-26.83 24.9,-55.95 36.18,-82.96 -4.21,-13.13 -8.49,-26.24 -12.81,-39.33 17.89,7.04 36.29,12.89 54.5,18.83 28.4,8.91 57.04,16.82 85.9,24.06 -27.6,31.33 -60.1,54.46 -97.58,58.88 -14.74,1.72 -29.95,0.09 -44.83,-3.7 43.76,22.36 96.52,8.91 133.6,-20.75 63.78,-50.22 104.16,-126.22 132.24,-201.02 -3.14,-3.93 -18.95,-24.24 -22.43,-28.64 -18.29,-23 -38.23,-47.83 -57.03,-70.26 m 385.37,782.22 c -5.11,3.27 -14.16,2.61 -19.89,2.82 -12.65,0.21 -47.16,0.77 -60.17,1 -53.48,0.93 -106.97,1.86 -160.45,1.77 -15.72,1.32 -30.18,-13.89 -27.23,-29.69 1.67,-7.54 3.66,-12.67 5.89,-19.89 3.79,-10.9 15.96,-17.49 26.91,-16.38 l 10.03,-0.02 20.06,-0.06 c 66.46,-0.2 134.24,-0.01 200.58,-1.35 -66.36,1.16 -134.05,3.94 -200.49,6.24 l -20.05,0.71 -10.02,0.36 c -9.25,-0.5 -17.77,4.06 -20.9,12.79 -1.62,5.55 -4,13.12 -5.21,18.63 -1.93,11.76 8.35,22.62 20.43,21.52 53.48,-0.08 106.97,0.84 160.45,1.77 13,0.23 47.66,0.79 60.17,1.01 6.66,-0.08 13.55,1.13 19.43,-2.13 12.39,-6.24 13.64,-22.33 18.33,-34.01 3.23,-13.47 -8.32,-27.43 -22.14,-26.89 13.91,-0.64 25.54,13.36 22.42,26.94 -4.75,12.07 -5.42,28.15 -18.15,34.86 M 1290.7,3387.51 c -262.43,109.53 -553.692,-84.67 -553.962,-368.98 0.332,-284.31 291.492,-478.47 553.952,-368.97 146.39,59.28 247.55,211.03 245.42,368.97 1.43,-157.56 -100.02,-308.53 -246.24,-366.99 -260.2,-107.28 -548.233,85.35 -547.39,366.99 -0.785,281.65 287.15,474.24 547.38,366.98 146.23,-58.45 247.66,-209.43 246.25,-366.98 2.15,157.95 -99.03,309.68 -245.41,368.98 m -117.63,127.85 c -322.468,23.86 -584.5,-269.47 -521.511,-587.13 -57.149,314.51 201.699,604.18 521.011,580.04 275.04,-17.69 480.8,-264.38 457.36,-537.63 -2.02,-37.56 -10.13,-74.61 -23.24,-109.85 13.74,35.07 22.48,72.1 25.15,109.71 28.22,276.27 -181.07,526.65 -458.77,544.86 m 623.16,575.77 c -36.18,0.79 -76.48,1.48 -112.51,1.7 l -38.2,0.1 38.12,-2.35 c 37.36,-2.17 79.02,-4.19 116.4,-5.71 22.57,45.73 66.12,136.19 87.83,182.34 l 2.22,4.67 -5.1,-0.3 c -43.34,-2.67 -104.9,-5.93 -147.56,-9.61 41.4,0.41 99.52,1.91 142.75,3.35 l -41.75,-85.5 z m 152.9,183.13 c 132.94,3.19 297.11,8.22 430.5,12.74 l 141.32,4.9 c 5.4,-71.15 16.25,-209.8 22.28,-279.21 -3.74,70.35 -12.45,212 -16.9,282.3 l -0.17,2.68 -2.71,-0.08 c -183.39,-5.02 -393.21,-11.21 -576.03,-18.33 l -1.59,-0.06 -0.63,-1.43 c -24.73,-55.79 -73.53,-168.2 -97.81,-224.22 25.44,54.76 76.38,164.8 101.74,220.71 m 2210.44,-870.91 c 0.62,90.06 -0.28,182.73 -12.97,272.81 -118.64,2.66 -854.68,18.45 -1397.5,15.12 7.22,-63.03 13.65,-180.47 18.62,-293.27 355.3,29.13 711.31,48.61 1067.82,49.59 97.18,-0.39 194.37,-2.46 291.38,-7.84 -97.07,4.22 -194.24,5.11 -291.36,4.33 -356.41,-3.34 -712.27,-24.65 -1067.53,-53.08 3.96,-90.69 6.96,-177.51 8.64,-229.66 85.3,-1.11 165.72,-2.18 237.17,-3.14 237.07,-1.47 474.39,-11.21 711.38,-5.85 94.37,5.43 189.41,18.11 278.64,50.47 44.3,16.37 87.48,37.92 123.06,69.54 -35.19,-32.06 -78.23,-54.2 -122.46,-71.17 -134.12,-50.09 -279.61,-57.46 -421.42,-56.01 -255.11,1.76 -530.08,5.11 -806.16,9.43 0.61,-18.89 1.02,-32.42 1.21,-38.81 178.09,-4 356.13,-9.82 534.09,-17.92 201.46,-9.69 403.03,-21.86 603.32,-46.42 74.94,-9.91 150.1,-20.68 223.18,-40.52 0.02,0 0.05,-0.01 0.07,-0.02 10.2,130.65 20.44,261.31 20.82,392.42 m -1418.53,295.02 c -0.2,1.56 -0.39,3.12 -0.59,4.59 -10.87,81.49 -34.66,165.34 -50.93,216.62 -42.77,4.92 -86.49,9.95 -101.28,11.6 -389.1,42.25 -780.63,73.81 -1172.25,77.62 -12.07,-32.01 -28.37,-74.03 -40.04,-104.25 -14.74,-37.6 -30.12,-75.05 -42.76,-113.37 -1.61,-4.82 -2.31,-9.51 -2.4,-14.59 -0.43,-14.63 -0.27,-29.26 0,-43.9 116.1,-29.39 224.85,-86.17 313.43,-169.58 48.03,-44.29 87.95,-96.45 118.88,-153.51 19.85,33.44 156.69,243.29 476.18,273.33 101.81,9.57 286.15,14.03 501.76,15.44 m -2496.278,243.7 c -23.309,1.48 -46.664,1.84 -70.032,1.87 -2.617,-1.1 -5.265,-2.24 -7.878,-3.35 71.062,-22.23 198.613,-88.11 211.925,-157.93 12.145,22.31 24.004,45.45 25.895,70.28 4.683,77.7 -103.156,84.31 -159.91,89.13 m -78.235,-1.37 c 2.344,1.08 4.711,2.17 7.063,3.25 -6.031,0 -12.063,0 -18.098,-0.03 3.485,-0.94 7.184,-2.03 11.035,-3.22 m 1377.603,173.96 c 0.13,0.21 0.29,0.39 0.43,0.6 l 0.62,-0.34 c -0.09,-0.18 -0.19,-0.33 -0.29,-0.5 221.27,-67.38 454.9,-88.87 685.01,-101.38 117.36,-6.41 234.87,-11.8 352.45,-16.39 -20.28,138.3 -36.05,278.78 -47.04,418.14 -310.41,4.65 -621.26,-16.19 -930.3,-43.24 0,-0.01 -11.71,-1.17 -11.71,-1.17 l -5.84,-0.6 -2.92,-0.31 c -15.61,-3.28 -30.83,-11.11 -45.52,-17.72 -83.1,-40.2 -163.46,-86.18 -243.62,-131.97 61.34,-37.86 130.63,-65.16 198.69,-89.03 16.6,-5.64 33.28,-10.99 50.04,-16.09 m 991.38,300.13 c 20.23,-138.32 36.05,-278.79 46.98,-418.15 62.69,-2.45 125.39,-4.66 188.11,-6.69 -49.63,138.85 -95.27,280.82 -135.99,422.57 -33.03,1.1 -66.06,1.78 -99.1,2.27 M 4142.49,3009.84 c 22.91,-6.72 45.79,-14.3 66.5,-26.32 -20.81,11.75 -43.67,19.03 -66.58,25.48 -0.66,-6.86 -1.33,-13.71 -1.99,-20.55 l -7.09,-68.91 c -2.25,-22.97 -5,-45.92 -6.41,-68.96 3.47,53.18 7.61,106.33 11.76,159.47 -0.08,0.02 -0.15,0.04 -0.23,0.06 -171.66,41.05 -349.08,50.99 -524.59,64.57 -278.19,17.48 -556.7,27.97 -835.36,34.61 2.41,-20.57 18.53,-173.29 -17.58,-272.81 -0.15,-0.4 -0.28,-0.83 -0.43,-1.23 l -3.36,1.23 -3.36,1.25 c 36.67,99.4 19.53,254.78 17.51,271.72 -323.77,7.63 -647.71,10.05 -971.49,11.93 323.69,2.83 647.5,1.76 971.15,-5.41 -0.2,6.74 -0.61,20.19 -1.21,38.77 -305.44,4.78 -612.04,10.74 -894.45,16.97 244.35,-2 598.03,-6.41 894.24,-10.27 -1.7,52.23 -4.68,138.71 -8.62,229 -126.6,-10.16 -253.11,-21.2 -379.55,-32.68 -139.94,-12.74 -294.55,-28.69 -435.11,-42.83 -41.45,-1.21 -86.02,-58.08 -110.34,-88.52 14.44,19.52 30.19,38.13 47.67,55.05 14.3,13.41 29.85,27 48.88,33.09 4.39,1.25 9.22,1.71 13.62,2.12 l 144.82,16.35 c 222.89,23.84 446.15,46.02 669.7,64.43 -4.99,113.24 -11.45,231.12 -18.7,293.78 -215.71,-1.4 -400.16,-5.85 -501.94,-15.43 -335.65,-31.55 -467.24,-263.38 -472.91,-273.68 37.42,-71.36 60.95,-150.04 68.85,-230.42 -9.47,81.59 -34.84,161.1 -74.24,232.81 l -1.13,0.6 c 0.03,0.06 0.18,0.34 0.42,0.75 -31.53,57.05 -71.95,109.11 -120.48,153.23 -87.79,81.59 -195.09,137.3 -309.57,166.43 0.38,-18.29 0.88,-36.57 0.73,-54.85 -0.22,-12.88 -0.13,-26.05 0,-39.26 101.92,-30.74 191.97,-83.18 265.12,-155.09 98.25,-96.57 158.8,-222.51 170.51,-354.63 l -7.13,-0.63 c -17.58,198.44 -158.54,421.46 -428.45,503.1 0.24,-25.39 0.38,-50.83 -1.6,-74.74 -1.6,25.42 -2.89,50.87 -3.74,76.33 -43.57,12.8 -90.44,21.95 -140.67,26.73 -350.035,33.36 -608.687,-238.86 -632.887,-398.16 l -3.535,0.54 -0.191,-3.58 c -41.445,2.18 -495.0665,116.15 -514.3595,121.01 l 0.8672,3.46 v 0 l 0.8789,3.48 c 4.6211,-1.17 452.9644,-113.81 509.8434,-120.5 15.168,89.96 93.664,198.13 201.067,276.61 129.644,94.73 285.546,138.85 438.996,124.27 48.56,-4.62 95.25,-13.63 139.76,-26.66 -0.94,31.27 -1.18,62.56 -0.41,93.84 -97.76,24.14 -200.58,29.02 -300.86,14.05 -211.799,-27.46 -455.389,-137.71 -506.225,-365.09 47.45,229.82 292.27,343.64 505.355,371.54 100.67,15.41 203.86,10.73 301.95,-13.41 1.08,19.31 -0.28,39.32 5.06,58.01 14.13,40.31 45.65,133 60.19,171.68 5.47,15.14 11.11,30.23 16.76,45.31 -160.67,1.41 -321.35,-1.86 -481.881,-11.03 -202.316,-10.96 -406.226,-32.19 -607.09,-59.03 55.52,-11.53 95.375,-36.15 92.461,-86.34 -2.355,-30.39 -17.332,-56.7 -31.609,-82.82 -0.016,-0.84 0.054,-1.68 0,-2.52 -0.461,0 -0.918,0 -1.379,0.01 -2.223,-4.09 -4.422,-8.18 -6.543,-12.28 -50.57,-91.82 -105.164,-181.58 -168.992,-264.92 l -0.508,-0.66 -0.832,-0.09 c -25.18,-2.79 -50.395,-5.27 -75.602,-7.84 l -75.613,-7.68 75.367,9.81 c 24.836,3.23 49.656,6.54 74.516,9.56 20.699,27.61 40.074,56.35 58.883,85.35 37.914,58.49 73.496,118.49 106.617,179.82 1.508,3 3.094,6.01 4.711,9.03 -84.11,0.97 -168.418,3.71 -251.887,14.61 83.215,-5.76 170.742,-7.36 254.32,-7.71 -0.5,10.56 -4.129,21.04 -9.652,30.52 -35.148,57.3 -129.484,109.91 -198.102,135.19 -1.777,-0.76 -3.597,-1.54 -5.363,-2.29 1.703,0.79 3.426,1.58 5.129,2.36 -3.812,1.41 -7.57,2.75 -11.215,3.98 -33.461,-0.2 -66.9412,-0.62 -100.3552,0.59 31.8828,-0.37 79.2152,2.77 129.1012,3.5 263.032,121.13 542.758,246.47 808.852,357.19 C 815.16,4225.11 620.563,4137.61 431.5,4054.8 c 135.211,43.59 274.688,72.89 414.773,95.93 131.832,20.57 264.997,35.06 398.537,35.2 19.06,-0.07 38.12,-0.75 57.17,-1.09 -19.06,-0.24 -38.11,-0.15 -57.15,-0.67 -133.19,-4.53 -265.904,-19.24 -397.428,-40.49 -142.949,-22.95 -285.191,-52.08 -424.265,-92.55 -81.364,-35.61 -161.535,-70.27 -238.782,-103.1 46.075,0.63 94.176,-0.86 134.192,-9.12 361.082,54.37 726.673,78.73 1091.833,76.61 0.81,2.16 1.58,4.35 2.41,6.51 25.44,10.15 50.35,22.82 73.32,37.9 11.16,7.56 22.19,15.43 32.12,24.61 8.14,7.58 15.7,15.81 22.25,24.88 -28.14,8.56 -56.08,17.85 -83.76,27.95 -60.24,22.66 -119.66,47.52 -174.25,82.61 83.48,47.93 166.87,96.1 253.52,138.21 16.43,7.23 32.47,16.26 50.7,18.64 3.14,0.4 14.2,1.36 17.65,1.75 391.48,33.56 785.66,57.34 1178.32,31.83 53.49,-4.44 111.27,-9.89 164.25,-18.19 310.64,-50.2 612.42,-151.15 897.17,-284.04 56.81,-27.03 112.73,-56.03 166.9,-88.05 53.81,-32.27 107.39,-66.54 152.06,-111 -44.87,44.22 -98.61,78.19 -152.56,110.16 -54.3,31.72 -110.31,60.41 -167.23,87.14 -285.23,130.91 -586.7,231.59 -897.04,281.16 -52.83,8.11 -110.5,13.59 -163.93,17.85 -49.13,3.1 -98.29,5.44 -147.46,7.07 49.57,-138.88 95.25,-280.83 135.89,-422.56 293.48,-9.5 587.23,-14.82 880.3,-19.56 -498.29,5.32 -998.49,12.57 -1496.11,42.29 -206.17,12.22 -414.9,36.19 -613.14,96.35 -12.95,-21.64 -32.15,-39.07 -52.47,-53.74 -22.05,-15.57 -45.59,-28.54 -70.5,-39.04 -0.1,-0.27 -0.2,-0.54 -0.3,-0.8 42.38,-0.3 84.77,-0.85 127.13,-1.85 348.19,-8.66 697.08,-39.02 1042.87,-80.24 16.63,-2.06 59.11,-7.42 100.68,-12.68 -9.38,29.5 -16.18,47.98 -16.36,48.47 l 6.71,2.49 c 0.19,-0.51 7.51,-20.4 17.47,-51.94 35.45,-4.49 68.99,-8.74 83.71,-10.57 -14.22,1.6 -47.84,5.47 -83.4,9.55 16.32,-51.81 39.53,-134.41 50.24,-214.77 0.24,-1.77 0.47,-3.61 0.71,-5.5 541.37,3.35 1275,-12.34 1397.33,-15.07 -13.27,89.48 -38.46,176.26 -85.8,255.25 -32.09,-0.73 -67.78,-1.08 -94.99,-1.37 -61.32,0.29 -122.85,-1.08 -184.08,4.05 -3.25,0.68 -7.68,0.3 -9.65,3.78 -6.34,23.35 -12.61,47.66 -18.75,72.26 -127.14,83.46 -270.64,138.62 -415.05,184.3 -96.52,29.52 -201.53,54.98 -300.95,72.09 -100.3,17.5 -202.34,28.46 -304.16,27.79 28.86,-78.39 83.93,-230.78 111.41,-307.13 -30.15,78.73 -89.26,233.41 -118.87,312.32 h 3.68 l 34.54,0.05 c 10.09,-0.02 24.64,0.26 34.53,-0.37 20.75,-1.32 48.65,-1.81 68.93,-4.01 285.36,-24.86 644.32,-120.58 885.77,-284.39 -10.98,44.09 -21.49,89.12 -31.11,131.41 12.14,-41.45 25.64,-90.26 38.22,-136.35 4.96,-3.44 9.98,-6.85 14.84,-10.35 -4.86,3.38 -9.8,6.61 -14.72,9.9 5.33,-19.55 10.48,-38.6 15.31,-56.38 0,0 1.98,-6.92 2.15,-7.52 1.46,-0.34 3.15,-0.62 4.69,-0.78 103.49,-6.08 213.08,-4.34 316.97,-8.13 -11.57,-0.47 -24.79,-0.86 -38.68,-1.17 49.5,-77.41 76.99,-165.2 91.45,-255.38 7.1,-0.16 11.15,-0.25 11.87,-0.27 l -0.17,-7.15 c -0.68,0.02 -4.31,0.1 -10.54,0.24 6.79,-44.48 10.5,-89.48 12.1,-134.06 7.62,-177.73 -4.92,-355.35 -22.03,-532.13 M 35.5547,3945.23 c 5.9141,-0.33 11.832,-0.52 17.7461,-0.73 -6.6094,0.07 -12.5703,0.3 -17.7461,0.73"
         style="fill:#ffffff;fill-opacity:1;fill-rule:nonzero;stroke:none"
         transform="matrix(0.13333333,0,0,-0.13333333,0,598.32)" />
    </g>
  </g>
</svg>
