<?xml version="1.0" encoding="UTF-8" standalone="no"?>
<!-- Created with Inkscape (http://www.inkscape.org/) -->

<svg
   version="1.1"
   id="svg1"
   width="641.52002"
   height="768.90668"
   viewBox="0 0 641.52002 768.90668"
   sodipodi:docname="chef-cuts-the-sausage.svg"
   inkscape:version="1.3.2 (091e20ef0f, 2023-11-25, custom)"
   xmlns:inkscape="http://www.inkscape.org/namespaces/inkscape"
   xmlns:sodipodi="http://sodipodi.sourceforge.net/DTD/sodipodi-0.dtd"
   xmlns="http://www.w3.org/2000/svg"
   xmlns:svg="http://www.w3.org/2000/svg">
  <defs
     id="defs1" />
  <sodipodi:namedview
     id="namedview1"
     pagecolor="#505050"
     bordercolor="#ffffff"
     borderopacity="1"
     inkscape:showpageshadow="0"
     inkscape:pageopacity="0"
     inkscape:pagecheckerboard="1"
     inkscape:deskcolor="#d1d1d1"
     inkscape:zoom="0.9991894"
     inkscape:cx="320.76001"
     inkscape:cy="384.31152"
     inkscape:window-width="1920"
     inkscape:window-height="1002"
     inkscape:window-x="0"
     inkscape:window-y="0"
     inkscape:window-maximized="1"
     inkscape:current-layer="g1">
    <inkscape:page
       x="0"
       y="0"
       inkscape:label="1"
       id="page1"
       width="641.52002"
       height="768.90668"
       margin="0"
       bleed="0" />
  </sodipodi:namedview>
  <g
     id="g1"
     inkscape:groupmode="layer"
     inkscape:label="1">
    <g
       id="group-R5">
      <path
         id="path2"
         d="m 1210.49,100.262 c 0,7.519 -1.08,14.008 -3.31,19.308 -2.16,5.379 -5.19,9.532 -9.1,12.461 -3.89,2.84 -8.18,4.309 -12.91,4.309 -7.5,0 -13.84,-3.168 -18.99,-9.301 -5.16,-6.199 -7.74,-15.25 -7.74,-27.2577 0,-11.3125 2.58,-20.1016 7.66,-26.3008 5.15,-6.3086 11.52,-9.4805 19.07,-9.4805 4.5,0 8.73,1.3711 12.59,4.1523 3.8,2.7383 6.9,6.836 9.24,12.2696 2.35,5.5273 3.49,12.0976 3.49,19.8401 z m -53.31,41.379 v -3.422 c 5.11,6.543 10.39,11.453 15.9,14.48 5.53,3.11 11.82,4.672 18.8,4.672 8.35,0 16.06,-2.262 23.11,-6.781 7.02,-4.508 12.58,-11.059 16.69,-19.758 4.08,-8.684 6.09,-18.922 6.09,-30.781 0,-8.7112 -1.14,-16.8401 -3.5,-24.051 -2.35,-7.3203 -5.6,-13.5 -9.71,-18.4414 -4.12,-4.9492 -9.02,-8.7891 -14.59,-11.4297 -5.65,-2.707 -11.7,-4.0195 -18.09,-4.0195 -7.81,0 -14.34,1.6211 -19.62,4.8828 -5.33,3.25 -10.33,8.0078 -15.08,14.3281 V 18.7188 C 1157.18,6.21875 1152.82,0 1144.12,0 c -5.12,0 -8.53,1.58984 -10.14,4.78906 -1.68,3.25 -2.5,7.95314 -2.5,14.10934 V 141.449 c 0,5.403 1.09,9.461 3.37,12.11 2.3,2.652 5.37,4.023 9.27,4.023 3.85,0 6.99,-1.371 9.41,-4.141 2.42,-2.761 3.65,-6.699 3.65,-11.8"
         style="fill:#100f0d;fill-opacity:1;fill-rule:nonzero;stroke:none"
         transform="matrix(0.13333333,0,0,-0.13333333,0,768.90667)" />
      <path
         id="path3"
         d="M 1330.31,58.1602 V 61.75 c -3.27,-4.2891 -6.68,-7.8711 -10.28,-10.7695 -3.59,-2.961 -7.51,-5.1094 -11.74,-6.5117 -4.29,-1.4102 -9.13,-2.1368 -14.58,-2.1368 -6.54,0 -12.44,1.4375 -17.67,4.25 -5.22,2.8282 -9.27,6.7696 -12.08,11.75 -3.44,6.0274 -5.09,14.7071 -5.09,25.9688 V 140.57 c 0,5.641 1.22,9.922 3.69,12.711 2.46,2.801 5.7,4.219 9.73,4.219 4.14,0 7.44,-1.418 9.98,-4.289 2.53,-2.852 3.77,-7.082 3.77,-12.641 V 95.0898 c 0,-6.539 0.53,-12.0781 1.56,-16.5195 1.12,-4.4883 3.02,-7.9883 5.8,-10.5508 2.7,-2.4882 6.46,-3.7578 11.17,-3.7578 4.63,0 8.94,1.4297 12.96,4.2578 4.09,2.8203 7.05,6.5196 8.89,11.1016 1.53,4.0195 2.29,12.8203 2.29,26.3989 v 34.55 c 0,5.559 1.26,9.789 3.8,12.641 2.5,2.871 5.75,4.289 9.83,4.289 4.06,0 7.31,-1.418 9.77,-4.219 2.43,-2.789 3.64,-7.07 3.64,-12.711 V 58.332 c 0,-5.4023 -1.13,-9.4726 -3.49,-12.1523 -2.34,-2.7305 -5.38,-4.0508 -9.11,-4.0508 -3.71,0 -6.76,1.4297 -9.21,4.1719 -2.42,2.8476 -3.63,6.7383 -3.63,11.8594"
         style="fill:#100f0d;fill-opacity:1;fill-rule:nonzero;stroke:none"
         transform="matrix(0.13333333,0,0,-0.13333333,0,768.90667)" />
      <path
         id="path4"
         d="m 1409.21,99.1406 c 0,-11.289 2.46,-19.9297 7.39,-26.0312 4.97,-6.0274 11.47,-9.1094 19.52,-9.1094 6.85,0 12.7,3.1289 17.69,9.3203 4.97,6.2188 7.45,15.0586 7.45,26.6485 0,7.5702 -1.04,13.9722 -3.11,19.3632 -2.08,5.438 -5.02,9.617 -8.76,12.539 -3.84,2.938 -8.2,4.469 -13.27,4.469 -5.23,0 -9.77,-1.531 -13.85,-4.469 -4.09,-2.922 -7.25,-7.199 -9.59,-12.801 -2.33,-5.539 -3.47,-12.16 -3.47,-19.9294 z m -1.29,84.3794 v -43.379 c 5.05,5.589 10.3,9.789 15.61,12.808 5.32,2.93 11.92,4.422 19.74,4.422 9.04,0 16.95,-2.262 23.76,-6.691 6.8,-4.551 12.11,-10.981 15.85,-19.481 3.79,-8.48 5.64,-18.551 5.64,-30.199 0,-8.6094 -1.03,-16.4805 -3.11,-23.7109 -2.1,-7.1289 -5.11,-13.3282 -9.12,-18.6602 -4.02,-5.2305 -8.86,-9.2695 -14.51,-12.2383 -5.71,-2.832 -11.97,-4.2812 -18.8,-4.2812 -4.15,0 -8.12,0.5312 -11.83,1.5429 -3.67,1.0586 -6.84,2.4063 -9.37,4.1602 -2.63,1.5977 -4.84,3.418 -6.67,5.1797 -1.81,1.8281 -4.21,4.5078 -7.19,8.1094 V 58.332 c 0,-5.3632 -1.25,-9.4023 -3.72,-12.1523 -2.42,-2.7305 -5.6,-4.0703 -9.34,-4.0703 -3.88,0 -6.93,1.3398 -9.25,4.0703 -2.27,2.8125 -3.41,6.8125 -3.41,12.1523 v 123.957 c 0,5.723 1.1,10.07 3.36,13.012 2.21,2.961 5.28,4.429 9.3,4.429 4.16,0 7.4,-1.398 9.63,-4.23 2.28,-2.789 3.43,-6.762 3.43,-11.98"
         style="fill:#100f0d;fill-opacity:1;fill-rule:nonzero;stroke:none"
         transform="matrix(0.13333333,0,0,-0.13333333,0,768.90667)" />
      <path
         id="path5"
         d="M 1507.71,59.3789 V 182.469 c 0,5.711 1.21,9.98 3.6,12.91 2.47,2.883 5.73,4.351 9.85,4.351 4.12,0 7.42,-1.421 9.96,-4.308 2.48,-2.863 3.8,-7.223 3.8,-12.953 V 59.3789 c 0,-5.7578 -1.32,-10.0898 -3.87,-12.9883 -2.53,-2.832 -5.85,-4.2812 -9.89,-4.2812 -3.99,0 -7.19,1.4922 -9.7,4.4726 -2.5,2.9883 -3.75,7.2383 -3.75,12.7969"
         style="fill:#100f0d;fill-opacity:1;fill-rule:nonzero;stroke:none"
         transform="matrix(0.13333333,0,0,-0.13333333,0,768.90667)" />
      <path
         id="path6"
         d="M 1590.19,141.379 V 59.3789 c 0,-5.7187 -1.33,-10.0195 -3.86,-12.9297 -2.61,-2.8476 -5.92,-4.3398 -9.87,-4.3398 -4,0 -7.25,1.4922 -9.72,4.4414 -2.47,3.0195 -3.76,7.2695 -3.76,12.8281 V 140.57 c 0,5.559 1.29,9.789 3.76,12.641 2.47,2.871 5.72,4.289 9.72,4.289 3.95,0 7.26,-1.418 9.87,-4.289 2.53,-2.852 3.86,-6.781 3.86,-11.832 z m -13.46,29.34 c -3.79,0 -6.99,1.211 -9.75,3.703 -2.61,2.41 -4,5.867 -4,10.328 0,3.988 1.39,7.27 4.15,9.922 2.76,2.598 5.95,3.828 9.6,3.828 3.52,0 6.66,-1.148 9.37,-3.488 2.71,-2.352 4.09,-5.821 4.09,-10.262 0,-4.418 -1.34,-7.828 -4,-10.25 -2.66,-2.461 -5.78,-3.781 -9.46,-3.781"
         style="fill:#100f0d;fill-opacity:1;fill-rule:nonzero;stroke:none"
         transform="matrix(0.13333333,0,0,-0.13333333,0,768.90667)" />
      <path
         id="path7"
         d="m 1715.71,77.25 c 0,-3.5117 -1,-7.3086 -3.01,-11.3281 -2.06,-4.0196 -5.14,-7.8321 -9.31,-11.4805 -4.12,-3.6211 -9.36,-6.5508 -15.67,-8.75 -6.3,-2.2695 -13.43,-3.3594 -21.31,-3.3594 -16.82,0 -29.93,5.1289 -39.37,15.3282 -9.41,10.2304 -14.13,23.9023 -14.13,41.1093 0,11.6405 2.14,21.9605 6.44,30.8785 4.31,8.883 10.61,15.864 18.75,20.711 8.15,4.922 17.94,7.36 29.26,7.36 7.07,0 13.54,-1.098 19.42,-3.219 5.87,-2.168 10.85,-4.949 14.93,-8.309 4.09,-3.41 7.2,-7.043 9.37,-10.859 2.18,-3.84 3.23,-7.441 3.23,-10.773 0,-3.348 -1.23,-6.227 -3.63,-8.598 -2.44,-2.391 -5.34,-3.551 -8.8,-3.551 -2.29,0 -4.14,0.66 -5.67,1.871 -1.45,1.168 -3.14,3.071 -5.02,5.84 -3.3,5.238 -6.8,9.219 -10.41,11.91 -3.63,2.61 -8.23,3.961 -13.76,3.961 -8.08,0 -14.56,-3.332 -19.46,-9.883 -4.93,-6.578 -7.35,-15.527 -7.35,-26.8981 0,-5.3007 0.62,-10.2812 1.9,-14.7109 1.25,-4.4883 3.07,-8.2891 5.45,-11.4609 2.4,-3.1602 5.26,-5.5274 8.67,-7.1602 3.38,-1.6601 7.11,-2.4492 11.13,-2.4492 5.49,0 10.13,1.2891 14.02,3.9219 3.9,2.6679 7.34,6.6875 10.31,12.0273 1.67,3.2813 3.46,5.75 5.39,7.5703 1.95,1.8125 4.31,2.6719 7.09,2.6719 3.32,0 6.07,-1.2813 8.29,-3.9219 2.14,-2.6875 3.25,-5.4687 3.25,-8.4492"
         style="fill:#100f0d;fill-opacity:1;fill-rule:nonzero;stroke:none"
         transform="matrix(0.13333333,0,0,-0.13333333,0,768.90667)" />
      <path
         id="path8"
         d="m 1760.51,99.9688 c 0,-7.6993 1.15,-14.1993 3.43,-19.6368 2.31,-5.4218 5.4,-9.4414 9.38,-12.1797 4.01,-2.7812 8.37,-4.1523 13.04,-4.1523 4.8,0 9.16,1.332 13.1,3.8906 3.98,2.6211 7.09,6.6289 9.49,11.9883 2.36,5.3516 3.53,12.082 3.53,20.0899 0,7.6132 -1.17,14.0622 -3.53,19.5312 -2.4,5.449 -5.56,9.602 -9.57,12.531 -4.02,2.84 -8.4,4.309 -13.18,4.309 -4.97,0 -9.41,-1.531 -13.35,-4.469 -3.89,-2.922 -6.97,-7.191 -9.11,-12.699 -2.14,-5.531 -3.23,-11.871 -3.23,-19.2032 z m 53.46,-41.6368 v 2.7696 c -3.66,-4.3594 -7.26,-7.9102 -10.85,-10.6016 -3.5,-2.7812 -7.37,-4.8477 -11.52,-6.2695 -4.14,-1.3907 -8.68,-2.1211 -13.58,-2.1211 -6.5,0 -12.57,1.4492 -18.09,4.2812 -5.53,2.9688 -10.32,7.0313 -14.38,12.3594 -4.04,5.3398 -7.11,11.6094 -9.22,18.8516 -2.12,7.1679 -3.14,14.9804 -3.14,23.3984 0,17.699 4.16,31.602 12.46,41.512 8.32,9.91 19.23,14.859 32.76,14.859 7.83,0 14.45,-1.422 19.82,-4.289 5.37,-2.762 10.63,-7.082 15.74,-12.941 v 41.91 c 0,5.84 1.1,10.23 3.34,13.199 2.22,3 5.36,4.48 9.49,4.48 4.11,0 7.28,-1.378 9.53,-4.089 2.21,-2.719 3.36,-6.77 3.36,-12.121 V 58.332 c 0,-5.4023 -1.21,-9.4726 -3.61,-12.1523 -2.4,-2.7305 -5.46,-4.0703 -9.28,-4.0703 -3.67,0 -6.79,1.3906 -9.22,4.1914 -2.4,2.8008 -3.61,6.7812 -3.61,12.0312"
         style="fill:#100f0d;fill-opacity:1;fill-rule:nonzero;stroke:none"
         transform="matrix(0.13333333,0,0,-0.13333333,0,768.90667)" />
      <path
         id="path9"
         d="m 1941.5,99.75 c 0,11.531 -2.48,20.57 -7.33,27.02 -4.89,6.402 -11.47,9.652 -19.69,9.652 -5.34,0 -10,-1.442 -14.06,-4.313 -4.04,-2.918 -7.15,-7.16 -9.35,-12.777 -2.18,-5.551 -3.3,-12.07 -3.3,-19.582 0,-7.4414 1.12,-13.8906 3.24,-19.418 2.15,-5.5507 5.25,-9.7929 9.3,-12.7422 4,-2.9414 8.76,-4.3906 14.17,-4.3906 8.22,0 14.8,3.211 19.69,9.6914 4.85,6.4492 7.33,15.4492 7.33,26.8594 z m 27.28,0 c 0,-8.4102 -1.28,-16.2187 -3.78,-23.3984 -2.53,-7.0821 -6.18,-13.2422 -10.93,-18.3828 -4.82,-5.1368 -10.53,-8.9766 -17.16,-11.7891 -6.64,-2.7305 -14.17,-4.0703 -22.43,-4.0703 -8.22,0 -15.64,1.3398 -22.19,4.1523 -6.58,2.7578 -12.3,6.7305 -17.12,11.8985 -4.79,5.1796 -8.43,11.2304 -10.96,18.2617 -2.48,7.0781 -3.72,14.8164 -3.72,23.3672 0,8.6019 1.28,16.4609 3.77,23.5699 2.53,7.18 6.13,13.231 10.86,18.332 4.72,5.051 10.42,8.938 17.17,11.68 6.72,2.738 14.08,4.129 22.19,4.129 8.25,0 15.73,-1.391 22.43,-4.168 6.68,-2.762 12.43,-6.762 17.21,-11.883 4.81,-5.109 8.43,-11.258 10.88,-18.328 2.54,-7.051 3.78,-14.851 3.78,-23.371"
         style="fill:#100f0d;fill-opacity:1;fill-rule:nonzero;stroke:none"
         transform="matrix(0.13333333,0,0,-0.13333333,0,768.90667)" />
      <path
         id="path10"
         d="m 2083.64,123.191 c -2.04,-4.793 -3.01,-13.261 -3.01,-25.4605 v -37.711 c 0,-5.9375 -1.27,-10.4492 -3.89,-13.4375 -2.58,-2.9804 -6.04,-4.4726 -10.28,-4.4726 -4.09,0 -7.42,1.4922 -9.96,4.4726 -2.56,2.9883 -3.81,7.5 -3.81,13.4375 v 45.2695 c 0,7.121 -0.27,12.652 -0.74,16.652 -0.47,3.911 -1.72,7.168 -3.78,9.707 -2.02,2.551 -5.29,3.813 -9.72,3.813 -8.9,0 -14.75,-3.199 -17.6,-9.609 -2.84,-6.352 -4.18,-15.512 -4.18,-27.4536 V 60.0195 c 0,-5.9297 -1.32,-10.3906 -3.84,-13.3398 -2.59,-3.0781 -5.95,-4.5703 -10.09,-4.5703 -4.15,0 -7.56,1.4922 -10.16,4.5703 -2.65,2.9492 -3.89,7.4101 -3.89,13.332 v 81.2073 c 0,5.351 1.12,9.41 3.45,12.179 2.4,2.754 5.5,4.184 9.38,4.184 3.71,0 6.82,-1.293 9.29,-3.902 2.49,-2.59 3.73,-6.16 3.73,-10.75 v -2.7 c 4.7,5.899 9.77,10.25 15.12,12.981 5.37,2.781 11.42,4.16 17.94,4.16 6.82,0 12.68,-1.422 17.6,-4.289 4.93,-2.812 8.96,-7.113 12.13,-12.852 4.59,5.77 9.51,10.129 14.77,12.93 5.25,2.832 11.05,4.211 17.4,4.211 7.5,0 13.89,-1.492 19.23,-4.59 5.4,-3.039 9.4,-7.402 12.07,-13.082 2.34,-5.14 3.48,-13.207 3.48,-24.25 V 60.0195 c 0,-5.9375 -1.29,-10.4492 -3.84,-13.4375 -2.65,-2.9804 -6.03,-4.4726 -10.29,-4.4726 -4.13,0 -7.49,1.4922 -10.1,4.5703 -2.65,2.9492 -3.97,7.4101 -3.97,13.3398 v 47.7615 c 0,6.11 -0.24,10.981 -0.72,14.66 -0.51,3.711 -1.86,6.75 -4.07,9.258 -2.18,2.5 -5.52,3.762 -9.93,3.762 -3.58,0 -7,-1.129 -10.17,-3.289 -3.28,-2.25 -5.72,-5.231 -7.55,-8.981 v 0"
         style="fill:#100f0d;fill-opacity:1;fill-rule:nonzero;stroke:none"
         transform="matrix(0.13333333,0,0,-0.13333333,0,768.90667)" />
      <path
         id="path11"
         d="m 2237.66,99.2109 c -4.01,-1.5625 -9.81,-3.1289 -17.41,-4.8593 -7.61,-1.6914 -12.88,-2.9414 -15.8,-3.75 -2.93,-0.8203 -5.72,-2.3594 -8.34,-4.6524 -2.69,-2.3984 -4.03,-5.6172 -4.03,-9.7773 0,-4.3399 1.59,-7.961 4.67,-10.9922 3.15,-3.0508 7.24,-4.5274 12.29,-4.5274 5.37,0 10.36,1.25 14.89,3.7071 4.55,2.4492 7.92,5.6601 10.01,9.5117 2.46,4.3086 3.72,11.3594 3.72,21.2891 z m 1.76,-41.1211 c -6.59,-5.3476 -12.94,-9.3203 -19.08,-11.9609 -6.12,-2.707 -13.05,-4.0195 -20.65,-4.0195 -7.02,0 -13.09,1.4492 -18.41,4.2812 -5.31,2.8985 -9.34,6.8008 -12.21,11.7696 -2.82,4.9218 -4.29,10.1992 -4.29,15.9882 0,7.7618 2.42,14.3516 7.12,19.8438 4.67,5.4492 11.14,9.1288 19.37,11.0198 1.73,0.418 6.04,1.32 12.84,2.769 6.92,1.5 12.72,2.801 17.67,4.008 4.84,1.191 10.16,2.672 15.88,4.391 -0.36,7.519 -1.79,13.011 -4.33,16.582 -2.59,3.468 -7.92,5.179 -15.91,5.179 -6.95,0 -12.11,-0.98 -15.65,-2.992 -3.46,-1.98 -6.47,-5.027 -8.92,-9.097 -2.53,-4 -4.25,-6.661 -5.28,-7.922 -1.06,-1.321 -3.28,-1.899 -6.61,-1.899 -3.1,0 -5.72,1.008 -7.92,3.032 -2.25,2.058 -3.36,4.636 -3.36,7.878 0,4.969 1.7,9.868 5.07,14.508 3.39,4.742 8.68,8.61 15.84,11.711 7.17,3.051 16.13,4.559 26.83,4.559 11.92,0 21.33,-1.508 28.22,-4.438 6.82,-2.922 11.6,-7.551 14.45,-13.972 2.84,-6.34 4.24,-14.84 4.24,-25.368 0,-6.64 0,-12.332 -0.04,-16.941 -0.05,-4.6914 -0.08,-9.8281 -0.14,-15.5195 0,-5.3086 0.84,-10.8985 2.55,-16.6602 1.65,-5.789 2.49,-9.5312 2.49,-11.1601 0,-2.918 -1.32,-5.5782 -3.93,-7.9688 -2.57,-2.3828 -5.58,-3.582 -8.87,-3.582 -2.84,0 -5.54,1.3398 -8.3,4.0703 -2.72,2.75 -5.6,6.75 -8.67,11.9101"
         style="fill:#100f0d;fill-opacity:1;fill-rule:nonzero;stroke:none"
         transform="matrix(0.13333333,0,0,-0.13333333,0,768.90667)" />
      <path
         id="path12"
         d="M 2319.16,141.379 V 59.3789 c 0,-5.7187 -1.31,-10.0195 -3.86,-12.9297 -2.59,-2.8476 -5.85,-4.3398 -9.85,-4.3398 -3.98,0 -7.26,1.4922 -9.71,4.4414 -2.53,3.0195 -3.78,7.2695 -3.78,12.8281 V 140.57 c 0,5.559 1.25,9.789 3.78,12.641 2.45,2.871 5.73,4.289 9.71,4.289 4,0 7.26,-1.418 9.85,-4.289 2.55,-2.852 3.86,-6.781 3.86,-11.832 z m -13.45,29.34 c -3.74,0 -6.96,1.211 -9.66,3.703 -2.69,2.41 -4.09,5.867 -4.09,10.328 0,3.988 1.41,7.27 4.18,9.922 2.73,2.598 5.96,3.828 9.57,3.828 3.54,0 6.69,-1.148 9.42,-3.488 2.68,-2.352 4.03,-5.821 4.03,-10.262 0,-4.418 -1.31,-7.828 -3.98,-10.25 -2.66,-2.461 -5.81,-3.781 -9.47,-3.781"
         style="fill:#100f0d;fill-opacity:1;fill-rule:nonzero;stroke:none"
         transform="matrix(0.13333333,0,0,-0.13333333,0,768.90667)" />
      <path
         id="path13"
         d="m 2372.01,141.789 v -3.391 c 4.75,6.563 9.97,11.391 15.61,14.473 5.7,3.078 12.23,4.629 19.63,4.629 7.13,0 13.58,-1.621 19.26,-4.91 5.58,-3.25 9.83,-7.828 12.59,-13.758 1.81,-3.5 2.94,-7.281 3.51,-11.281 0.49,-3.981 0.8,-9.11 0.8,-15.371 V 59.3789 c 0,-5.7187 -1.29,-10.0195 -3.76,-12.9297 -2.5,-2.8476 -5.74,-4.3398 -9.7,-4.3398 -4.05,0 -7.36,1.4922 -9.78,4.4726 -2.56,2.9883 -3.86,7.2383 -3.86,12.7969 v 47.2691 c 0,9.403 -1.21,16.543 -3.69,21.481 -2.54,4.953 -7.52,7.473 -14.96,7.473 -4.83,0 -9.24,-1.532 -13.22,-4.563 -3.98,-2.969 -6.9,-7.129 -8.75,-12.418 -1.33,-4.23 -2.03,-12.09 -2.03,-23.7421 v -35.5 c 0,-5.7578 -1.25,-10.0898 -3.83,-12.9883 -2.56,-2.832 -5.87,-4.2812 -9.9,-4.2812 -3.89,0 -7.14,1.4922 -9.65,4.4414 -2.57,3.0195 -3.8,7.2695 -3.8,12.8281 v 82.0001 c 0,5.43 1.11,9.422 3.41,12.101 2.2,2.672 5.37,4.02 9.27,4.02 2.34,0 4.54,-0.641 6.43,-1.77 1.98,-1.16 3.47,-2.988 4.64,-5.25 1.13,-2.41 1.78,-5.3 1.78,-8.691"
         style="fill:#100f0d;fill-opacity:1;fill-rule:nonzero;stroke:none"
         transform="matrix(0.13333333,0,0,-0.13333333,0,768.90667)" />
      <path
         id="path14"
         d="m 2487.06,139.832 21.96,-64.4414 23.72,67.2574 c 1.88,5.422 3.7,9.192 5.52,11.461 1.82,2.25 4.5,3.391 8.13,3.391 3.46,0 6.39,-1.211 8.87,-3.68 2.37,-2.41 3.59,-5.168 3.59,-8.441 0,-1.219 -0.23,-2.66 -0.66,-4.277 -0.39,-1.7 -0.89,-3.262 -1.49,-4.75 -0.56,-1.403 -1.15,-3.09 -1.94,-4.942 l -26.08,-67.5702 c -0.74,-1.9375 -1.7,-4.4296 -2.84,-7.4179 -1.18,-2.961 -2.5,-5.4531 -3.88,-7.6524 -1.47,-2.0898 -3.21,-3.6875 -5.28,-4.8789 -2.12,-1.1914 -4.67,-1.7812 -7.66,-1.7812 -3.85,0 -6.91,0.9101 -9.23,2.7109 -2.29,1.8594 -3.98,3.8399 -5.07,6.0781 -1.07,2.1407 -2.96,6.4805 -5.52,12.9414 l -25.92,66.8322 c -0.6,1.629 -1.24,3.308 -1.89,4.98 -0.59,1.657 -1.08,3.317 -1.55,5.09 -0.42,1.77 -0.67,3.25 -0.67,4.438 0,1.992 0.57,3.902 1.72,5.812 1.14,1.918 2.7,3.488 4.68,4.668 2.02,1.199 4.13,1.84 6.51,1.84 4.47,0 7.58,-1.348 9.29,-4.102 1.7,-2.679 3.61,-7.207 5.69,-13.566"
         style="fill:#100f0d;fill-opacity:1;fill-rule:nonzero;stroke:none"
         transform="matrix(0.13333333,0,0,-0.13333333,0,768.90667)" />
      <path
         id="path15"
         d="m 2598.29,109.012 h 49.28 c -0.62,9.668 -3.11,16.929 -7.5,21.718 -4.36,4.801 -10.09,7.211 -17.21,7.211 -6.73,0 -12.32,-2.441 -16.64,-7.312 -4.35,-4.859 -6.96,-12.09 -7.93,-21.617 z m 53.2,-16.1526 h -53.2 c 0.01,-6.461 1.3,-12.1406 3.69,-17.0977 2.46,-4.8711 5.66,-8.5898 9.69,-11.1133 4.01,-2.5195 8.46,-3.7187 13.32,-3.7187 3.24,0 6.25,0.3906 8.89,1.1601 2.68,0.8399 5.31,2.0821 7.86,3.75 2.48,1.711 4.79,3.4805 6.94,5.5 2.1,1.9297 4.93,4.5196 8.27,7.8711 1.4,1.3086 3.42,1.8907 5.97,1.8907 2.84,0 5.06,-0.7696 6.8,-2.4102 1.73,-1.5898 2.54,-3.8203 2.54,-6.7305 0,-2.5703 -0.94,-5.5625 -2.88,-9.0312 -1.9,-3.3789 -4.76,-6.6992 -8.71,-9.8906 -3.9,-3.1289 -8.77,-5.6993 -14.65,-7.8399 -5.85,-2.0703 -12.58,-3.0898 -20.28,-3.0898 -17.43,0 -31.04,5.2304 -40.7,15.5703 -9.68,10.4492 -14.51,24.5195 -14.51,42.2891 0,8.5002 1.23,16.2112 3.57,23.3712 2.39,7.199 5.86,13.332 10.46,18.449 4.59,5.152 10.19,9.121 16.92,11.813 6.74,2.757 14.14,4.117 22.34,4.117 10.55,0 19.7,-2.328 27.3,-7.039 7.63,-4.68 13.31,-10.68 17.09,-18.078 3.79,-7.461 5.68,-14.981 5.68,-22.743 0,-7.078 -1.9,-11.7067 -5.86,-13.8082 -3.95,-2.1406 -9.43,-3.1914 -16.54,-3.1914"
         style="fill:#100f0d;fill-opacity:1;fill-rule:nonzero;stroke:none"
         transform="matrix(0.13333333,0,0,-0.13333333,0,768.90667)" />
      <path
         id="path16"
         d="m 2794.37,77.25 c 0,-3.5117 -1.01,-7.3086 -3.08,-11.3281 -2.03,-4.0196 -5.05,-7.8321 -9.24,-11.4805 -4.13,-3.6211 -9.41,-6.5508 -15.74,-8.75 -6.27,-2.2695 -13.41,-3.3594 -21.25,-3.3594 -16.86,0 -29.97,5.1289 -39.38,15.3282 -9.41,10.2304 -14.15,23.9023 -14.15,41.1093 0,11.6405 2.14,21.9605 6.49,30.8785 4.33,8.883 10.51,15.864 18.71,20.711 8.14,4.922 17.93,7.36 29.31,7.36 7.03,0 13.47,-1.098 19.39,-3.219 5.86,-2.168 10.81,-4.949 14.95,-8.309 4.08,-3.41 7.16,-7.043 9.35,-10.859 2.14,-3.84 3.21,-7.441 3.21,-10.773 0,-3.348 -1.18,-6.227 -3.68,-8.598 -2.39,-2.391 -5.32,-3.551 -8.78,-3.551 -2.25,0 -4.13,0.66 -5.59,1.871 -1.53,1.168 -3.19,3.071 -5.07,5.84 -3.32,5.238 -6.77,9.219 -10.39,11.91 -3.62,2.61 -8.22,3.961 -13.82,3.961 -7.99,0 -14.48,-3.332 -19.39,-9.883 -4.97,-6.578 -7.41,-15.527 -7.41,-26.8981 0,-5.3007 0.68,-10.2812 1.89,-14.7109 1.27,-4.4883 3.11,-8.2891 5.52,-11.4609 2.38,-3.1602 5.29,-5.5274 8.67,-7.1602 3.33,-1.6601 7.07,-2.4492 11.15,-2.4492 5.43,0 10.12,1.2891 14,3.9219 3.87,2.6679 7.34,6.6875 10.33,12.0273 1.67,3.2813 3.42,5.75 5.38,7.5703 1.9,1.8125 4.23,2.6719 7.07,2.6719 3.27,0 6.07,-1.2813 8.18,-3.9219 2.25,-2.6875 3.37,-5.4687 3.37,-8.4492"
         style="fill:#100f0d;fill-opacity:1;fill-rule:nonzero;stroke:none"
         transform="matrix(0.13333333,0,0,-0.13333333,0,768.90667)" />
      <path
         id="path17"
         d="m 2819.62,155.109 h 2.99 v 17.063 c 0,4.539 0.13,8.16 0.37,10.75 0.23,2.609 0.82,4.777 1.95,6.699 1.02,1.899 2.56,3.488 4.59,4.731 1.97,1.187 4.19,1.757 6.65,1.757 3.43,0 6.57,-1.328 9.34,-4.007 1.82,-1.832 3.03,-4 3.53,-6.571 0.51,-2.609 0.73,-6.351 0.73,-11.109 v -19.313 h 10 c 3.85,0 6.8,-0.968 8.82,-2.867 2.06,-1.922 3.05,-4.332 3.05,-7.32 0,-3.82 -1.44,-6.524 -4.37,-8.02 -2.87,-1.492 -7.01,-2.261 -12.38,-2.261 h -5.12 V 82.3594 c 0,-4.4492 0.17,-7.8672 0.45,-10.2891 0.35,-2.3984 1.19,-4.3515 2.45,-5.789 1.26,-1.5118 3.37,-2.2813 6.32,-2.2813 1.58,0 3.73,0.2813 6.48,0.9023 2.66,0.5782 4.8,0.879 6.35,0.879 2.18,0 4.22,-0.961 5.95,-2.6993 1.72,-1.9023 2.63,-4.1328 2.63,-6.8515 0,-4.5508 -2.35,-8.0586 -7.16,-10.4883 -4.84,-2.4336 -11.69,-3.6328 -20.62,-3.6328 -8.5,0 -14.97,1.4922 -19.35,4.4726 -4.36,2.9883 -7.28,7.0782 -8.59,12.4102 -1.39,5.2695 -2.07,12.2969 -2.07,21.0976 V 134.641 H 2819 c -3.85,0 -6.85,0.961 -8.93,2.918 -2.07,1.933 -3.07,4.363 -3.07,7.363 0,2.988 1.05,5.398 3.19,7.32 2.19,1.899 5.3,2.867 9.43,2.867"
         style="fill:#100f0d;fill-opacity:1;fill-rule:nonzero;stroke:none"
         transform="matrix(0.13333333,0,0,-0.13333333,0,768.90667)" />
      <path
         id="path18"
         d="m 2964.82,99.75 c 0,11.531 -2.46,20.57 -7.32,27.02 -4.93,6.402 -11.42,9.652 -19.68,9.652 -5.33,0 -10,-1.442 -14.03,-4.313 -4.08,-2.918 -7.19,-7.16 -9.37,-12.777 -2.19,-5.551 -3.31,-12.07 -3.31,-19.582 0,-7.4414 1.12,-13.8906 3.27,-19.418 2.15,-5.5507 5.21,-9.7929 9.23,-12.7422 4,-2.9414 8.75,-4.3906 14.21,-4.3906 8.26,0 14.75,3.211 19.68,9.6914 4.86,6.4492 7.32,15.4492 7.32,26.8594 z m 27.3,0 c 0,-8.4102 -1.25,-16.2187 -3.81,-23.3984 -2.5,-7.0821 -6.18,-13.2422 -10.93,-18.3828 -4.8,-5.1368 -10.52,-8.9766 -17.13,-11.7891 -6.67,-2.7305 -14.09,-4.0703 -22.43,-4.0703 -8.27,0 -15.69,1.3398 -22.23,4.1523 -6.56,2.7578 -12.28,6.7305 -17.09,11.8985 -4.79,5.1796 -8.46,11.2304 -10.91,18.2617 -2.48,7.0781 -3.7,14.8164 -3.7,23.3672 0,8.6019 1.22,16.4609 3.7,23.5699 2.58,7.18 6.16,13.231 10.86,18.332 4.76,5.051 10.45,8.938 17.14,11.68 6.78,2.738 14.16,4.129 22.23,4.129 8.26,0 15.69,-1.391 22.43,-4.168 6.7,-2.762 12.42,-6.762 17.22,-11.883 4.72,-5.109 8.43,-11.258 10.91,-18.328 2.49,-7.051 3.74,-14.851 3.74,-23.371"
         style="fill:#100f0d;fill-opacity:1;fill-rule:nonzero;stroke:none"
         transform="matrix(0.13333333,0,0,-0.13333333,0,768.90667)" />
      <path
         id="path19"
         d="M 3040.57,83.0117 V 59.3789 c 0,-5.7578 -1.31,-10.0898 -3.9,-12.9883 -2.6,-2.832 -5.87,-4.2812 -9.9,-4.2812 -3.86,0 -7.12,1.4922 -9.63,4.3398 -2.52,2.9102 -3.76,7.211 -3.76,12.9297 v 79.0001 c 0,12.762 4.4,19.121 13.24,19.121 4.47,0 7.74,-1.508 9.77,-4.461 1.95,-2.98 3.01,-7.398 3.27,-13.207 3.24,5.809 6.61,10.227 10.04,13.207 3.42,2.953 7.96,4.461 13.64,4.461 5.77,0 11.28,-1.508 16.68,-4.461 5.36,-2.98 8.08,-6.957 8.08,-11.859 0,-3.461 -1.18,-6.371 -3.47,-8.578 -2.26,-2.243 -4.74,-3.411 -7.44,-3.411 -0.97,0 -3.4,0.661 -7.2,1.969 -3.85,1.262 -7.22,1.922 -10.16,1.922 -3.94,0 -7.19,-1.051 -9.69,-3.293 -2.54,-2.207 -4.51,-5.41 -5.9,-9.687 -1.39,-4.352 -2.4,-9.442 -2.9,-15.391 -0.51,-5.8907 -0.77,-13.1016 -0.77,-21.6993"
         style="fill:#100f0d;fill-opacity:1;fill-rule:nonzero;stroke:none"
         transform="matrix(0.13333333,0,0,-0.13333333,0,768.90667)" />
      <path
         id="path20"
         d="m 3185.42,79.1914 c 0,-7.8516 -1.82,-14.543 -5.51,-20.1289 -3.67,-5.6016 -9.06,-9.7734 -16.2,-12.6836 -7.17,-2.8203 -15.82,-4.2695 -26.11,-4.2695 -9.68,0 -18.09,1.5429 -25.09,4.6992 -6.97,3.1016 -12.12,6.9805 -15.42,11.6523 -3.35,4.6485 -5.06,9.3516 -5.06,14.0508 0,3.1094 1.09,5.7891 3.27,8.0078 2.11,2.2618 4.81,3.3203 8.03,3.3203 2.87,0 5.09,-0.75 6.61,-2.1484 1.52,-1.543 2.95,-3.5508 4.38,-6.1797 2.78,-5.0703 6.1,-8.8515 10.05,-11.3398 3.82,-2.5313 9.12,-3.7735 15.89,-3.7735 5.42,0 9.89,1.293 13.39,3.8204 3.46,2.5312 5.26,5.4101 5.26,8.6718 0,5.0196 -1.83,8.6719 -5.43,10.9414 -3.67,2.3282 -9.6,4.5078 -17.9,6.5664 -9.35,2.4336 -17,4.9805 -22.89,7.6329 -5.87,2.6797 -10.62,6.2307 -14.11,10.5897 -3.53,4.301 -5.31,9.711 -5.31,16.09 0,5.719 1.64,11.078 4.9,16.121 3.23,5.066 8.1,9.09 14.42,12.117 6.33,3.043 13.98,4.551 22.99,4.551 7,0 13.33,-0.781 18.98,-2.309 5.59,-1.511 10.34,-3.582 14.03,-6.109 3.75,-2.582 6.64,-5.422 8.58,-8.512 2,-3.16 2.96,-6.211 2.96,-9.16 0,-3.281 -1.02,-5.879 -3.16,-8.051 -2.1,-2 -5.1,-3.058 -8.89,-3.058 -2.82,0 -5.18,0.82 -7.19,2.519 -1.91,1.641 -4.19,4.121 -6.7,7.399 -2.06,2.793 -4.46,5.023 -7.28,6.683 -2.79,1.629 -6.57,2.5 -11.33,2.5 -4.93,0 -9.05,-1.082 -12.25,-3.293 -3.28,-2.168 -4.92,-4.91 -4.92,-8.16 0,-3 1.21,-5.429 3.57,-7.34 2.42,-1.91 5.62,-3.48 9.69,-4.738 4.09,-1.25 9.64,-2.801 16.75,-4.59 8.46,-2.14 15.33,-4.679 20.69,-7.691 5.34,-2.949 9.38,-6.4806 12.14,-10.5314 2.8,-4.0977 4.17,-8.7188 4.17,-13.8672"
         style="fill:#100f0d;fill-opacity:1;fill-rule:nonzero;stroke:none"
         transform="matrix(0.13333333,0,0,-0.13333333,0,768.90667)" />
      <path
         id="path21"
         d="m 3216.3,42.1094 c -4.12,0 -7.68,1.3398 -10.63,4.1523 -3.04,2.7578 -4.51,6.668 -4.51,11.6094 0,4.2187 1.39,7.8594 4.23,10.9297 2.86,3.0312 6.4,4.5195 10.59,4.5195 4.16,0 7.75,-1.4883 10.64,-4.5117 2.99,-2.9688 4.48,-6.6797 4.48,-10.9375 0,-4.9023 -1.49,-8.7695 -4.48,-11.5703 -2.89,-2.8008 -6.34,-4.1914 -10.32,-4.1914"
         style="fill:#100f0d;fill-opacity:1;fill-rule:nonzero;stroke:none"
         transform="matrix(0.13333333,0,0,-0.13333333,0,768.90667)" />
      <path
         id="path22"
         d="m 3336.56,99.75 c 0,11.531 -2.45,20.57 -7.34,27.02 -4.88,6.402 -11.41,9.652 -19.64,9.652 -5.33,0 -9.96,-1.442 -14.03,-4.313 -4.06,-2.918 -7.18,-7.16 -9.35,-12.777 -2.17,-5.551 -3.28,-12.07 -3.28,-19.582 0,-7.4414 1.04,-13.8906 3.19,-19.418 2.22,-5.5507 5.27,-9.7929 9.31,-12.7422 4,-2.9414 8.72,-4.3906 14.16,-4.3906 8.23,0 14.76,3.211 19.64,9.6914 4.89,6.4492 7.34,15.4492 7.34,26.8594 z m 27.32,0 c 0,-8.4102 -1.25,-16.2187 -3.81,-23.3984 -2.54,-7.0821 -6.15,-13.2422 -10.94,-18.3828 -4.83,-5.1368 -10.47,-8.9766 -17.13,-11.7891 -6.62,-2.7305 -14.09,-4.0703 -22.42,-4.0703 -8.23,0 -15.63,1.3398 -22.2,4.1523 -6.58,2.7578 -12.25,6.7305 -17.05,11.8985 -4.9,5.1796 -8.52,11.2304 -11.04,18.2617 -2.44,7.0781 -3.69,14.8164 -3.69,23.3672 0,8.6019 1.25,16.4609 3.79,23.5699 2.57,7.18 6.13,13.231 10.82,18.332 4.72,5.051 10.44,8.938 17.17,11.68 6.7,2.738 14.05,4.129 22.2,4.129 8.23,0 15.7,-1.391 22.42,-4.168 6.74,-2.762 12.46,-6.762 17.25,-11.883 4.75,-5.109 8.38,-11.258 10.9,-18.328 2.48,-7.051 3.73,-14.851 3.73,-23.371"
         style="fill:#100f0d;fill-opacity:1;fill-rule:nonzero;stroke:none"
         transform="matrix(0.13333333,0,0,-0.13333333,0,768.90667)" />
      <path
         id="path23"
         d="M 3412.32,83.0117 V 59.3789 c 0,-5.7578 -1.3,-10.0898 -3.89,-12.9883 -2.55,-2.832 -5.88,-4.2812 -9.83,-4.2812 -3.97,0 -7.15,1.4922 -9.69,4.3398 -2.56,2.9102 -3.8,7.211 -3.8,12.9297 v 79.0001 c 0,12.762 4.47,19.121 13.26,19.121 4.53,0 7.76,-1.508 9.74,-4.461 1.96,-2.98 3.13,-7.398 3.36,-13.207 3.19,5.809 6.52,10.227 9.94,13.207 3.44,2.953 8.01,4.461 13.67,4.461 5.81,0 11.35,-1.508 16.67,-4.461 5.38,-2.98 8.1,-6.957 8.1,-11.859 0,-3.461 -1.15,-6.371 -3.43,-8.578 -2.31,-2.243 -4.75,-3.411 -7.47,-3.411 -0.96,0 -3.35,0.661 -7.17,1.969 -3.84,1.262 -7.2,1.922 -10.15,1.922 -3.96,0 -7.19,-1.051 -9.79,-3.293 -2.48,-2.207 -4.44,-5.41 -5.86,-9.687 -1.36,-4.352 -2.33,-9.442 -2.85,-15.391 -0.53,-5.8907 -0.81,-13.1016 -0.81,-21.6993"
         style="fill:#100f0d;fill-opacity:1;fill-rule:nonzero;stroke:none"
         transform="matrix(0.13333333,0,0,-0.13333333,0,768.90667)" />
      <path
         id="path24"
         d="m 3490.83,100.719 c 0,-11.4768 2.43,-20.1877 7.26,-26.1096 4.78,-5.8477 11.05,-8.8281 18.63,-8.8281 4.5,0 8.82,1.3085 12.82,3.8398 4.02,2.5273 7.29,6.3398 9.82,11.4297 2.56,5.1094 3.78,11.2578 3.78,18.539 0,11.5702 -2.46,20.5702 -7.33,26.9922 -4.87,6.5 -11.3,9.758 -19.26,9.758 -7.75,0 -13.99,-3.168 -18.65,-9.301 -4.71,-6.187 -7.07,-14.937 -7.07,-26.32 z m 78.84,36 V 54.25 c 0,-9.4687 -1.03,-17.5586 -2.92,-24.3203 -1.93,-6.8281 -5.01,-12.4414 -9.25,-16.8594 -4.25,-4.42967 -9.85,-7.71874 -16.67,-9.87108 C 3533.94,1.08984 3525.38,0 3515.16,0 c -9.38,0 -17.77,1.33203 -25.1,4.0625 -7.39,2.79688 -13.08,6.2969 -17.05,10.668 -3.98,4.2812 -5.99,8.75 -5.99,13.3515 0,3.4688 1.1,6.2696 3.42,8.4493 2.23,2.2382 4.97,3.3203 8.14,3.3203 4,0 7.44,-1.8516 10.49,-5.5118 1.46,-1.9296 2.99,-3.789 4.5,-5.6796 1.56,-1.9102 3.3,-3.5782 5.18,-4.8985 1.91,-1.3906 4.2,-2.3828 6.86,-3.0508 2.6,-0.6523 5.7,-0.9804 9.17,-0.9804 6.98,0 12.51,1.039 16.37,3.0586 3.88,2.0429 6.62,4.9023 8.2,8.5703 1.48,3.6797 2.49,7.5898 2.65,11.7812 0.32,4.2813 0.5,10.9492 0.69,20.2891 -4.18,-6.0977 -9.09,-10.75 -14.51,-13.9297 -5.48,-3.1992 -12.03,-4.75 -19.54,-4.75 -9.18,0 -17.13,2.3789 -23.89,7.2617 -6.84,4.8399 -12.08,11.6172 -15.72,20.3789 -3.61,8.711 -5.48,18.7891 -5.48,30.2384 0,8.57 1.09,16.281 3.36,23.141 2.18,6.832 5.33,12.628 9.52,17.339 4.07,4.723 8.85,8.289 14.22,10.692 5.41,2.351 11.25,3.57 17.75,3.57 7.67,0 14.34,-1.562 19.97,-4.672 5.73,-3.027 10.91,-7.937 15.78,-14.48 v 3.801 c 0,4.96 1.2,8.742 3.49,11.519 2.3,2.672 5.31,4.043 8.95,4.043 5.26,0 8.75,-1.773 10.49,-5.34 1.7,-3.59 2.59,-8.781 2.59,-15.523"
         style="fill:#100f0d;fill-opacity:1;fill-rule:nonzero;stroke:none"
         transform="matrix(0.13333333,0,0,-0.13333333,0,768.90667)" />
      <path
         id="path25"
         d="m 2390.97,413.09 h 40.33 c -2.85,-21.738 -11.75,-38.719 -26.58,-50.93 -13.71,-11.98 -30.33,-17.871 -49.72,-17.871 -26.35,0 -47.38,9.25 -63.08,27.723 -14.87,17.57 -22.3,40.25 -22.3,67.957 0,28.402 7.38,51.09 22.09,68.281 14.71,17.121 35.5,25.719 62.39,25.719 19.99,0 36.91,-5.41 50.62,-16.137 14.54,-11.602 23.44,-27.902 26.58,-48.769 h -40.33 c -3.49,18.207 -14.6,27.269 -33.52,27.269 -31.18,0 -46.8,-18.473 -46.8,-55.422 0,-17.328 4.02,-31.461 12.04,-42.461 8.02,-11.07 19.32,-16.597 33.9,-16.597 21.74,0 33.2,10.429 34.38,31.238 z m -158.8,25.449 c 0,-36.098 11.45,-66.66 34.31,-91.559 22.9,-24.89 50.9,-37.351 84.15,-37.351 33.1,0 61.13,12.461 83.98,37.351 22.92,24.899 34.3,55.461 34.3,91.559 0,36.082 -11.38,66.621 -34.3,91.52 -22.85,24.953 -50.88,37.382 -83.98,37.382 -33.25,0 -61.25,-12.429 -84.15,-37.382 -22.86,-24.899 -34.31,-55.438 -34.31,-91.52 z m -40.98,0 c 0,45.941 15.55,85.152 46.66,117.723 31.15,32.519 68.76,48.789 112.78,48.789 43.92,0 81.46,-16.27 112.65,-48.789 31.13,-32.571 46.72,-71.782 46.72,-117.723 0,-45.969 -15.59,-85.238 -46.72,-117.738 -31.19,-32.551 -68.73,-48.832 -112.65,-48.832 -44.02,0 -81.63,16.281 -112.78,48.832 -31.11,32.5 -46.66,71.769 -46.66,117.738"
         style="fill:#100f0d;fill-opacity:1;fill-rule:nonzero;stroke:none"
         transform="matrix(0.13333333,0,0,-0.13333333,0,768.90667)" />
      <path
         id="path26"
         d="m 2255.7,334.121 23.26,-19.73 170.95,219.531 -23.24,19.699 -170.97,-219.5"
         style="fill:#100f0d;fill-opacity:1;fill-rule:nonzero;stroke:none"
         transform="matrix(0.13333333,0,0,-0.13333333,0,768.90667)" />
      <path
         id="path27"
         d="M 0,955.48 H 4811.36 V 5766.83 H 0 V 955.48"
         style="fill:#8ebae6;fill-opacity:1;fill-rule:evenodd;stroke:none"
         transform="matrix(0.13333333,0,0,-0.13333333,0,768.90667)" />
      <path
         id="path28"
         d="m 2888.33,5301.31 c 308.18,-58.72 558,-326.13 558,-597.27 0,-271.15 -249.82,-443.34 -558,-384.62 -308.17,58.72 -557.99,326.13 -557.99,597.27 0,271.15 249.82,443.35 557.99,384.62"
         style="fill:#ffffff;fill-opacity:1;fill-rule:evenodd;stroke:none"
         transform="matrix(0.13333333,0,0,-0.13333333,0,768.90667)" />
      <path
         id="path29"
         d="m 2405.69,1589.5 c 1042.63,0 1893,39.98 1893,89.02 0,49.03 -850.37,89.01 -1893,89.01 -1042.64,0 -1893.01,-39.98 -1893.01,-89.01 0,-49.04 850.37,-89.02 1893.01,-89.02"
         style="fill:#ffffff;fill-opacity:1;fill-rule:evenodd;stroke:none"
         transform="matrix(0.13333333,0,0,-0.13333333,0,768.90667)" />
      <path
         id="path30"
         d="m 1022.36,2210.61 h 632.39 c 142.18,0 258.51,-116.32 258.51,-258.51 v 0 c 0,-142.19 -116.33,-258.52 -258.51,-258.52 h -632.39 c -142.184,0 -258.516,116.33 -258.516,258.52 v 0 c 0,142.19 116.332,258.51 258.516,258.51"
         style="fill:#bb1d31;fill-opacity:1;fill-rule:evenodd;stroke:none"
         transform="matrix(0.13333333,0,0,-0.13333333,0,768.90667)" />
      <path
         id="path31"
         d="m 2017.22,2229.31 c 255.62,0 464.1,208.49 464.1,464.1 0,255.62 -208.48,464.1 -464.1,464.1 -255.62,0 -464.1,-208.48 -464.1,-464.1 0,-255.61 208.48,-464.1 464.1,-464.1"
         style="fill:#ffffff;fill-opacity:1;fill-rule:evenodd;stroke:none"
         transform="matrix(0.13333333,0,0,-0.13333333,0,768.90667)" />
      <path
         id="path32"
         d="m 1664.57,3041.73 244.21,593.79 c 67.59,164.34 230.02,269.54 407.64,264 h 1126.41 c 149.05,0 283.32,-90.08 339.84,-228 l 360,-849.03 c 69.3,-163.42 22.36,-352.97 -115.17,-465.18 -137.53,-112.2 -332.64,-120.13 -478.82,-19.43 v -644.3 H 2237.33 l -15.95,780.65 -647.62,8.32 90.81,559.18"
         style="fill:#ffffff;fill-opacity:1;fill-rule:evenodd;stroke:none"
         transform="matrix(0.13333333,0,0,-0.13333333,0,768.90667)" />
      <path
         id="path33"
         d="m 2390.53,3899.52 h 714.32 l -357.16,-679.69 z"
         style="fill:#5182c9;fill-opacity:1;fill-rule:evenodd;stroke:none"
         transform="matrix(0.13333333,0,0,-0.13333333,0,768.90667)" />
      <path
         id="path34"
         d="m 1034.6,2170.81 201.06,302.52 259.07,378.71 c 112.43,164.37 324.54,227.66 508.65,151.76 184.11,-75.92 290,-270.3 253.93,-466.14 -36.07,-195.85 -204.26,-339.74 -403.33,-345.07 l -819.38,-21.78"
         style="fill:#e9531d;fill-opacity:1;fill-rule:evenodd;stroke:none"
         transform="matrix(0.13333333,0,0,-0.13333333,0,768.90667)" />
      <path
         id="path35"
         d="m 1143.7,1799.17 c 204.69,0 371.64,166.95 371.64,371.64 0,204.71 -166.95,371.66 -371.64,371.66 -204.708,0 -371.657,-166.95 -371.657,-371.66 0,-204.69 166.949,-371.64 371.657,-371.64"
         style="fill:#e9531d;fill-opacity:1;fill-rule:evenodd;stroke:none"
         transform="matrix(0.13333333,0,0,-0.13333333,0,768.90667)" />
      <path
         id="path36"
         d="m 1346.44,2210.61 h 632.38 c 142.18,0 258.51,-116.32 258.51,-258.51 v 0 c 0,-142.19 -116.33,-258.52 -258.51,-258.52 h -632.38 c -142.19,0 -258.52,116.33 -258.52,258.52 v 0 c 0,142.19 116.33,258.51 258.52,258.51"
         style="fill:#bb1d31;fill-opacity:1;fill-rule:evenodd;stroke:none"
         transform="matrix(0.13333333,0,0,-0.13333333,0,768.90667)" />
      <path
         id="path37"
         d="m 1978.82,2210.61 c 142.18,0 258.51,-116.32 258.51,-258.51 v 0 c 0,-142.19 -116.33,-258.52 -258.51,-258.52 -142.19,0 -258.52,116.33 -258.52,258.52 v 0 c 0,142.19 116.33,258.51 258.52,258.51"
         style="fill:#e52b4c;fill-opacity:1;fill-rule:evenodd;stroke:none"
         transform="matrix(0.13333333,0,0,-0.13333333,0,768.90667)" />
      <path
         id="path38"
         d="m 2088.21,2011.32 c 19.8,0 35.86,-16.06 35.86,-35.86 0,-19.81 -16.06,-35.86 -35.86,-35.86 -19.81,0 -35.86,16.05 -35.86,35.86 0,19.8 16.05,35.86 35.86,35.86 z m -245.66,0 c 29.56,0 53.52,-23.97 53.52,-53.52 0,-29.57 -23.96,-53.53 -53.52,-53.53 -29.56,0 -53.52,23.96 -53.52,53.53 0,29.55 23.96,53.52 53.52,53.52 z m 74.39,-162.72 c 13.3,0 24.09,-10.78 24.09,-24.08 0,-13.3 -10.79,-24.08 -24.09,-24.08 -13.3,0 -24.08,10.78 -24.08,24.08 0,13.3 10.78,24.08 24.08,24.08 z m 148.79,34.26 c 32.22,0 58.34,-26.11 58.34,-58.34 0,-32.21 -26.12,-58.32 -58.34,-58.32 -32.22,0 -58.34,26.11 -58.34,58.32 0,32.23 26.12,58.34 58.34,58.34 z m 58.34,241.91 c 19.8,0 35.86,-16.05 35.86,-35.86 0,-19.8 -16.06,-35.85 -35.86,-35.85 -19.81,0 -35.86,16.05 -35.86,35.85 0,19.81 16.05,35.86 35.86,35.86 z m 40.14,-185.17 c 9.75,0 17.66,-7.91 17.66,-17.66 0,-9.76 -7.91,-17.67 -17.66,-17.67 -9.76,0 -17.66,7.91 -17.66,17.67 0,9.75 7.9,17.66 17.66,17.66 z m -200.17,40.66 c 19.81,0 35.86,-16.05 35.86,-35.84 0,-19.82 -16.05,-35.86 -35.86,-35.86 -19.8,0 -35.86,16.04 -35.86,35.86 0,19.79 16.06,35.84 35.86,35.84 z m -5.35,-200.15 c 9.76,0 17.66,-7.91 17.66,-17.66 0,-9.77 -7.9,-17.68 -17.66,-17.68 -9.75,0 -17.66,7.91 -17.66,17.68 0,9.75 7.91,17.66 17.66,17.66 z m -128.18,308.8 c 11.09,0 20.07,-8.98 20.07,-20.05 0,-11.1 -8.98,-20.08 -20.07,-20.08 -11.09,0 -20.07,8.98 -20.07,20.08 0,11.07 8.98,20.05 20.07,20.05 z m 0,-217.28 c 19.66,0 35.59,-15.94 35.59,-35.59 0,-19.66 -15.93,-35.6 -35.59,-35.6 -19.66,0 -35.59,15.94 -35.59,35.6 0,19.65 15.93,35.59 35.59,35.59 z m 130.32,300.23 c 37.54,0 67.97,-30.43 67.97,-67.96 0,-37.54 -30.43,-67.97 -67.97,-67.97 -37.54,0 -67.97,30.43 -67.97,67.97 0,37.53 30.43,67.96 67.97,67.96 v 0"
         style="fill:#f799b4;fill-opacity:1;fill-rule:evenodd;stroke:none"
         transform="matrix(0.13333333,0,0,-0.13333333,0,768.90667)" />
      <path
         id="path39"
         d="m 2028.83,3519.59 785.95,-318.27 v -972.01 l -392.98,159.14 c -216.13,87.54 -392.97,364.98 -392.97,616.56 v 514.58"
         style="fill:#ffffff;fill-opacity:1;fill-rule:evenodd;stroke:none"
         transform="matrix(0.13333333,0,0,-0.13333333,0,768.90667)" />
      <path
         id="path40"
         d="m 2820.99,3076.32 363.19,4.84 h 458.86 c 199.14,0 371.13,-139.33 412.42,-334.14 41.3,-194.82 -59.34,-391.95 -241.35,-472.77 -182.02,-80.8 -395.75,-23.23 -512.54,138.06 l -480.58,664.01"
         style="fill:#f3652f;fill-opacity:1;fill-rule:evenodd;stroke:none"
         transform="matrix(0.13333333,0,0,-0.13333333,0,768.90667)" />
      <path
         id="path41"
         d="m 3311.2,2399.56 c -3.28,4.18 -6.5,8.42 -9.63,12.75 l -396.68,548.07 c 29.95,7.79 61.36,11.93 93.73,11.93 205.26,0 371.65,-166.38 371.65,-371.64 0,-74.1 -21.7,-143.14 -59.07,-201.11"
         style="fill:#d64420;fill-opacity:1;fill-rule:evenodd;stroke:none"
         transform="matrix(0.13333333,0,0,-0.13333333,0,768.90667)" />
      <path
         id="path42"
         d="m 2545.42,2431.06 360.31,360.3 c 41.49,41.5 109.4,41.5 150.9,0 h 0.01 c 41.49,-41.49 41.49,-109.4 0,-150.9 l -360.31,-360.3 -150.91,150.9"
         style="fill:#882e1b;fill-opacity:1;fill-rule:evenodd;stroke:none"
         transform="matrix(0.13333333,0,0,-0.13333333,0,768.90667)" />
      <path
         id="path43"
         d="m 2545.42,2431.06 -636.64,-636.64 5.86,-5.86 c 126.64,-126.64 333.23,-126.64 459.87,0 l 406.72,406.72 -235.81,235.78"
         style="fill:#98dce3;fill-opacity:1;fill-rule:evenodd;stroke:none"
         transform="matrix(0.13333333,0,0,-0.13333333,0,768.90667)" />
      <path
         id="path44"
         d="m 2261.06,2032.57 341.44,341.44 66.01,-66.03 -341.43,-341.43 c -18.16,-18.16 -47.87,-18.14 -66.02,0 v 0 c -18.16,18.17 -18.16,47.87 0,66.02"
         style="fill:#7bc6cf;fill-opacity:1;fill-rule:evenodd;stroke:none"
         transform="matrix(0.13333333,0,0,-0.13333333,0,768.90667)" />
      <path
         id="path45"
         d="m 1959.32,1844.95 -50.54,-50.53 5.86,-5.86 c 126.64,-126.64 333.23,-126.64 459.87,0 l 406.72,406.72 -56.6,56.58 -377.79,-377.79 c -101.45,-101.44 -263.59,-109.92 -387.52,-29.12"
         style="fill:#c6ecf2;fill-opacity:1;fill-rule:evenodd;stroke:none"
         transform="matrix(0.13333333,0,0,-0.13333333,0,768.90667)" />
      <path
         id="path46"
         d="m 2881.25,2337.88 c 204.68,0 371.64,166.95 371.64,371.64 0,204.69 -166.96,371.64 -371.64,371.64 -204.7,0 -371.66,-166.95 -371.66,-371.64 0,-204.69 166.96,-371.64 371.66,-371.64"
         style="fill:#f3652f;fill-opacity:1;fill-rule:evenodd;stroke:none"
         transform="matrix(0.13333333,0,0,-0.13333333,0,768.90667)" />
      <path
         id="path47"
         d="m 2364.75,2718.62 253.7,253.69 234.35,-234.35 -253.69,-253.69 c -64.46,-64.46 -169.91,-64.46 -234.36,0 v 0 c -64.45,64.45 -64.45,169.9 0,234.35"
         style="fill:#f3652f;fill-opacity:1;fill-rule:evenodd;stroke:none"
         transform="matrix(0.13333333,0,0,-0.13333333,0,768.90667)" />
      <path
         id="path48"
         d="m 1124.97,2216.14 253.69,253.69 234.36,-234.35 -253.7,-253.69 c -64.45,-64.46 -169.91,-64.46 -234.35,0 v 0 c -64.45,64.45 -64.45,169.9 0,234.35"
         style="fill:#e9531d;fill-opacity:1;fill-rule:evenodd;stroke:none"
         transform="matrix(0.13333333,0,0,-0.13333333,0,768.90667)" />
      <path
         id="path49"
         d="m 2747.69,1693.58 h 600 v 147.91 h -600 v -147.91"
         style="fill:#a71b2a;fill-opacity:1;fill-rule:evenodd;stroke:none"
         transform="matrix(0.13333333,0,0,-0.13333333,0,768.90667)" />
      <path
         id="path50"
         d="m 2630.69,1841.49 h 600 v 147.91 h -600 v -147.91"
         style="fill:#bb1d31;fill-opacity:1;fill-rule:evenodd;stroke:none"
         transform="matrix(0.13333333,0,0,-0.13333333,0,768.90667)" />
      <path
         id="path51"
         d="m 2538.78,3899.52 h 454.51 v 679.69 h -454.51 v -679.69"
         style="fill:#d64420;fill-opacity:1;fill-rule:evenodd;stroke:none"
         transform="matrix(0.13333333,0,0,-0.13333333,0,768.90667)" />
      <path
         id="path52"
         d="m 2314.73,4822.69 h 743.29 l -79.3,-487.71 c -33.25,-204.41 -227.68,-371.65 -432.08,-371.65 v 0 c -204.41,0 -344.46,167.24 -311.22,371.65 l 79.31,487.71"
         style="fill:#f3652f;fill-opacity:1;fill-rule:evenodd;stroke:none"
         transform="matrix(0.13333333,0,0,-0.13333333,0,768.90667)" />
      <path
         id="path53"
         d="m 2644.28,4210.3 c -18.66,-73.36 -90.23,-131.32 -165.27,-131.32 v 0 c -75.04,0 -127.77,57.96 -122.58,131.32 h 287.85"
         style="fill:#ffffff;fill-opacity:1;fill-rule:evenodd;stroke:none"
         transform="matrix(0.13333333,0,0,-0.13333333,0,768.90667)" />
      <path
         id="path54"
         d="m 2271.14,4554.62 -40.6,304.36 c -10.3,77.2 30.71,152.16 101.27,185.13 70.57,32.96 154.37,16.32 206.97,-41.13 l 105.5,-6 c 211.59,-12.03 406,-120.38 527.52,-294 l -178.51,-624 -55.48,387 h -171.78 l 48.75,312 -356.98,-51 c -52.87,-7.55 -106.79,1.21 -154.54,25.13 l -32.12,-197.49"
         style="fill:#2e2825;fill-opacity:1;fill-rule:evenodd;stroke:none"
         transform="matrix(0.13333333,0,0,-0.13333333,0,768.90667)" />
      <path
         id="path55"
         d="m 2956.2,4596.48 c 45.36,0 72.37,-66.15 60.34,-147.75 -12.04,-81.6 -58.58,-147.75 -103.94,-147.75 -45.35,0 -72.37,66.15 -60.33,147.75 12.04,81.6 58.56,147.75 103.93,147.75"
         style="fill:#f3652f;fill-opacity:1;fill-rule:evenodd;stroke:none"
         transform="matrix(0.13333333,0,0,-0.13333333,0,768.90667)" />
      <path
         id="path56"
         d="m 2294.32,4627.29 75.06,15.16 c 20.61,4.17 37.47,-9.98 37.47,-31.43 v 0 c 0,-21.46 -16.86,-42.4 -37.47,-46.57 l -75.06,-15.15 c -20.61,-4.17 -37.47,9.97 -37.47,31.43 v 0 c 0,21.45 16.86,42.4 37.47,46.56"
         style="fill:#2e2825;fill-opacity:1;fill-rule:evenodd;stroke:none"
         transform="matrix(0.13333333,0,0,-0.13333333,0,768.90667)" />
      <path
         id="path57"
         d="m 2683.7,4625.41 -126.95,18.92 c -20.98,3.13 -38.14,-11.86 -38.14,-33.31 v 0 c 0,-21.45 17.16,-41.56 38.14,-44.69 l 126.95,-18.91 c 20.98,-3.13 38.15,11.86 38.15,33.31 v 0 c 0,21.45 -17.17,41.56 -38.15,44.68"
         style="fill:#2e2825;fill-opacity:1;fill-rule:evenodd;stroke:none"
         transform="matrix(0.13333333,0,0,-0.13333333,0,768.90667)" />
      <path
         id="path58"
         d="m 2612.73,4538.51 v 0 c 22.07,0 40.13,-18.06 40.13,-40.13 v -42.53 c 0,-22.07 -18.06,-40.12 -40.13,-40.12 v 0 c -22.07,0 -40.13,18.05 -40.13,40.12 v 42.53 c 0,22.07 18.06,40.13 40.13,40.13"
         style="fill:#2e2825;fill-opacity:1;fill-rule:evenodd;stroke:none"
         transform="matrix(0.13333333,0,0,-0.13333333,0,768.90667)" />
      <path
         id="path59"
         d="m 2358.16,4538.51 v 0 c 15.31,0 27.83,-18.06 27.83,-40.13 v -42.53 c 0,-22.07 -12.52,-40.12 -27.83,-40.12 v 0 c -15.3,0 -27.82,18.05 -27.82,40.12 v 42.53 c 0,22.07 12.52,40.13 27.82,40.13"
         style="fill:#2e2825;fill-opacity:1;fill-rule:evenodd;stroke:none"
         transform="matrix(0.13333333,0,0,-0.13333333,0,768.90667)" />
    </g>
  </g>
</svg>
