<?xml version="1.0" encoding="UTF-8" standalone="no"?>
<!-- Created with Inkscape (http://www.inkscape.org/) -->

<svg
   version="1.1"
   id="svg1"
   width="753.98669"
   height="737.97333"
   viewBox="0 0 753.98669 737.97333"
   sodipodi:docname="children-bicycle.svg"
   inkscape:version="1.3.2 (091e20ef0f, 2023-11-25, custom)"
   xmlns:inkscape="http://www.inkscape.org/namespaces/inkscape"
   xmlns:sodipodi="http://sodipodi.sourceforge.net/DTD/sodipodi-0.dtd"
   xmlns="http://www.w3.org/2000/svg"
   xmlns:svg="http://www.w3.org/2000/svg">
  <defs
     id="defs1" />
  <sodipodi:namedview
     id="namedview1"
     pagecolor="#505050"
     bordercolor="#ffffff"
     borderopacity="1"
     inkscape:showpageshadow="0"
     inkscape:pageopacity="0"
     inkscape:pagecheckerboard="1"
     inkscape:deskcolor="#d1d1d1"
     inkscape:zoom="1.0488184"
     inkscape:cx="376.61429"
     inkscape:cy="368.98666"
     inkscape:window-width="1920"
     inkscape:window-height="1002"
     inkscape:window-x="0"
     inkscape:window-y="0"
     inkscape:window-maximized="1"
     inkscape:current-layer="g1">
    <inkscape:page
       x="0"
       y="0"
       inkscape:label="1"
       id="page1"
       width="753.98669"
       height="737.97333"
       margin="0"
       bleed="0" />
  </sodipodi:namedview>
  <g
     id="g1"
     inkscape:groupmode="layer"
     inkscape:label="1">
    <g
       id="group-R5">
      <path
         id="path2"
         d="m 1571.19,100.262 c 0,7.519 -1.07,14.008 -3.3,19.308 -2.16,5.379 -5.2,9.532 -9.11,12.461 -3.89,2.84 -8.17,4.309 -12.91,4.309 -7.5,0 -13.83,-3.168 -18.99,-9.301 -5.16,-6.199 -7.73,-15.25 -7.73,-27.2577 0,-11.3125 2.57,-20.1016 7.65,-26.3008 5.16,-6.3086 11.52,-9.4805 19.07,-9.4805 4.51,0 8.73,1.3711 12.59,4.1484 3.8,2.7422 6.9,6.8438 9.24,12.2735 2.35,5.5273 3.49,12.0976 3.49,19.8401 z m -53.31,41.379 v -3.422 c 5.11,6.543 10.4,11.453 15.9,14.48 5.54,3.11 11.82,4.672 18.8,4.672 8.35,0 16.06,-2.262 23.11,-6.781 7.02,-4.508 12.58,-11.059 16.69,-19.758 4.08,-8.68 6.09,-18.922 6.09,-30.781 0,-8.7112 -1.14,-16.8401 -3.5,-24.0393 -2.35,-7.332 -5.6,-13.5117 -9.71,-18.4492 -4.12,-4.9531 -9.02,-8.793 -14.59,-11.4336 -5.65,-2.707 -11.7,-4.0195 -18.09,-4.0195 -7.81,0 -14.34,1.6211 -19.62,4.8828 -5.32,3.2461 -10.32,8.0078 -15.08,14.3281 V 18.7188 C 1517.88,6.21875 1513.52,0 1504.82,0 c -5.11,0 -8.53,1.58984 -10.14,4.78906 -1.68,3.25 -2.5,7.94924 -2.5,14.11324 V 141.449 c 0,5.403 1.09,9.461 3.38,12.11 2.29,2.652 5.37,4.023 9.26,4.023 3.86,0 7,-1.371 9.41,-4.141 2.42,-2.761 3.65,-6.699 3.65,-11.8"
         style="fill:#100f0d;fill-opacity:1;fill-rule:nonzero;stroke:none"
         transform="matrix(0.13333333,0,0,-0.13333333,0,737.97333)" />
      <path
         id="path3"
         d="M 1691.02,58.1602 V 61.75 c -3.28,-4.2891 -6.69,-7.8711 -10.29,-10.7695 -3.59,-2.961 -7.5,-5.1094 -11.74,-6.5117 -4.29,-1.4063 -9.13,-2.1368 -14.58,-2.1368 -6.53,0 -12.43,1.4375 -17.66,4.25 -5.23,2.8282 -9.27,6.7696 -12.09,11.75 -3.44,6.0274 -5.09,14.7071 -5.09,25.9688 V 140.57 c 0,5.641 1.23,9.922 3.69,12.711 2.46,2.801 5.7,4.219 9.74,4.219 4.13,0 7.43,-1.418 9.97,-4.289 2.53,-2.852 3.78,-7.082 3.78,-12.641 V 95.0898 c 0,-6.539 0.52,-12.0781 1.56,-16.5195 1.11,-4.4883 3.01,-7.9805 5.8,-10.5508 2.7,-2.4882 6.45,-3.7578 11.16,-3.7578 4.64,0 8.94,1.4297 12.96,4.2578 4.09,2.8203 7.05,6.5196 8.89,11.1016 1.53,4.0195 2.29,12.8203 2.29,26.3989 v 34.55 c 0,5.559 1.26,9.789 3.81,12.641 2.5,2.871 5.74,4.289 9.83,4.289 4.05,0 7.3,-1.418 9.76,-4.219 2.43,-2.789 3.64,-7.07 3.64,-12.711 V 58.332 c 0,-5.4023 -1.13,-9.4726 -3.49,-12.1523 -2.33,-2.7305 -5.37,-4.0508 -9.11,-4.0508 -3.7,0 -6.76,1.4297 -9.21,4.1719 -2.41,2.8515 -3.62,6.7383 -3.62,11.8594"
         style="fill:#100f0d;fill-opacity:1;fill-rule:nonzero;stroke:none"
         transform="matrix(0.13333333,0,0,-0.13333333,0,737.97333)" />
      <path
         id="path4"
         d="m 1769.92,99.1406 c 0,-11.289 2.45,-19.9297 7.38,-26.0312 4.97,-6.0274 11.47,-9.1094 19.52,-9.1094 6.85,0 12.71,3.1289 17.69,9.3203 4.98,6.2188 7.45,15.0586 7.45,26.6485 0,7.5702 -1.04,13.9722 -3.1,19.3712 -2.08,5.43 -5.02,9.609 -8.77,12.531 -3.84,2.938 -8.2,4.469 -13.27,4.469 -5.23,0 -9.77,-1.531 -13.85,-4.469 -4.08,-2.922 -7.24,-7.199 -9.59,-12.801 -2.33,-5.539 -3.46,-12.16 -3.46,-19.9294 z m -1.29,84.3794 v -43.379 c 5.05,5.589 10.3,9.789 15.6,12.808 5.32,2.93 11.92,4.422 19.74,4.422 9.05,0 16.95,-2.262 23.76,-6.691 6.8,-4.551 12.11,-10.981 15.85,-19.481 3.79,-8.48 5.64,-18.547 5.64,-30.187 0,-8.6214 -1.03,-16.4925 -3.11,-23.7229 -2.1,-7.1289 -5.11,-13.3282 -9.11,-18.6602 -4.03,-5.2266 -8.87,-9.2695 -14.51,-12.2383 -5.71,-2.832 -11.97,-4.2812 -18.81,-4.2812 -4.14,0 -8.12,0.5312 -11.82,1.539 -3.68,1.0625 -6.85,2.4102 -9.37,4.1602 -2.64,1.6016 -4.84,3.4219 -6.68,5.1836 -1.81,1.8281 -4.2,4.5078 -7.18,8.1094 V 58.332 c 0,-5.3632 -1.26,-9.4023 -3.72,-12.1523 -2.43,-2.7305 -5.6,-4.0703 -9.35,-4.0703 -3.88,0 -6.93,1.3398 -9.25,4.0703 -2.27,2.8086 -3.41,6.8125 -3.41,12.1523 v 123.957 c 0,5.723 1.1,10.07 3.36,13.012 2.21,2.961 5.29,4.429 9.3,4.429 4.17,0 7.4,-1.398 9.63,-4.23 2.29,-2.789 3.44,-6.758 3.44,-11.98"
         style="fill:#100f0d;fill-opacity:1;fill-rule:nonzero;stroke:none"
         transform="matrix(0.13333333,0,0,-0.13333333,0,737.97333)" />
      <path
         id="path5"
         d="M 1868.42,59.3789 V 182.469 c 0,5.711 1.2,9.98 3.6,12.91 2.47,2.883 5.72,4.351 9.84,4.351 4.12,0 7.42,-1.421 9.96,-4.308 2.49,-2.859 3.8,-7.223 3.8,-12.953 V 59.3789 c 0,-5.7578 -1.31,-10.0898 -3.86,-12.9883 -2.54,-2.832 -5.86,-4.2812 -9.9,-4.2812 -3.99,0 -7.19,1.4922 -9.7,4.4726 -2.49,2.9883 -3.74,7.2383 -3.74,12.7969"
         style="fill:#100f0d;fill-opacity:1;fill-rule:nonzero;stroke:none"
         transform="matrix(0.13333333,0,0,-0.13333333,0,737.97333)" />
      <path
         id="path6"
         d="M 1950.89,141.379 V 59.3789 c 0,-5.7187 -1.33,-10.0195 -3.85,-12.9297 -2.62,-2.8476 -5.93,-4.3398 -9.88,-4.3398 -4,0 -7.24,1.4922 -9.72,4.4414 -2.46,3.0195 -3.75,7.2695 -3.75,12.8281 V 140.57 c 0,5.559 1.29,9.789 3.75,12.641 2.48,2.871 5.72,4.289 9.72,4.289 3.95,0 7.26,-1.418 9.88,-4.289 2.52,-2.852 3.85,-6.781 3.85,-11.832 z m -13.45,29.34 c -3.79,0 -7,1.211 -9.75,3.703 -2.62,2.418 -4,5.867 -4,10.328 0,3.992 1.38,7.27 4.15,9.922 2.75,2.598 5.94,3.828 9.6,3.828 3.51,0 6.65,-1.148 9.37,-3.488 2.71,-2.352 4.08,-5.821 4.08,-10.262 0,-4.418 -1.34,-7.828 -4,-10.25 -2.66,-2.461 -5.78,-3.781 -9.45,-3.781"
         style="fill:#100f0d;fill-opacity:1;fill-rule:nonzero;stroke:none"
         transform="matrix(0.13333333,0,0,-0.13333333,0,737.97333)" />
      <path
         id="path7"
         d="m 2076.41,77.2617 c 0,-3.5195 -0.99,-7.3203 -3.01,-11.3398 -2.06,-4.0235 -5.14,-7.8321 -9.3,-11.4805 -4.13,-3.6211 -9.36,-6.5508 -15.68,-8.75 -6.3,-2.2695 -13.42,-3.3594 -21.31,-3.3594 -16.82,0 -29.92,5.1289 -39.37,15.3399 -9.41,10.2187 -14.13,23.8867 -14.13,41.0976 0,11.6405 2.15,21.9605 6.44,30.8825 4.32,8.879 10.61,15.86 18.75,20.707 8.15,4.922 17.95,7.36 29.27,7.36 7.06,0 13.53,-1.098 19.42,-3.219 5.86,-2.168 10.84,-4.949 14.93,-8.309 4.08,-3.41 7.19,-7.039 9.37,-10.859 2.17,-3.844 3.22,-7.441 3.22,-10.773 0,-3.348 -1.23,-6.227 -3.62,-8.598 -2.45,-2.391 -5.35,-3.551 -8.81,-3.551 -2.29,0 -4.14,0.66 -5.67,1.871 -1.45,1.168 -3.14,3.071 -5.02,5.84 -3.3,5.238 -6.8,9.219 -10.41,11.91 -3.62,2.61 -8.22,3.961 -13.76,3.961 -8.08,0 -14.56,-3.332 -19.46,-9.883 -4.93,-6.578 -7.35,-15.527 -7.35,-26.8981 0,-5.3007 0.63,-10.2812 1.9,-14.7109 1.25,-4.4883 3.07,-8.2891 5.45,-11.4609 2.4,-3.1602 5.27,-5.5274 8.67,-7.1602 3.38,-1.6601 7.11,-2.4492 11.14,-2.4492 5.48,0 10.12,1.2891 14.01,3.9219 3.9,2.6679 7.34,6.6875 10.32,12.0273 1.66,3.2813 3.45,5.75 5.38,7.5703 1.95,1.8125 4.31,2.6719 7.09,2.6719 3.32,0 6.07,-1.2813 8.29,-3.9219 2.15,-2.6875 3.25,-5.4687 3.25,-8.4375"
         style="fill:#100f0d;fill-opacity:1;fill-rule:nonzero;stroke:none"
         transform="matrix(0.13333333,0,0,-0.13333333,0,737.97333)" />
      <path
         id="path8"
         d="m 2121.22,99.9688 c 0,-7.6993 1.14,-14.1993 3.42,-19.6368 2.31,-5.4218 5.4,-9.4414 9.38,-12.1836 4.02,-2.7773 8.37,-4.1484 13.05,-4.1484 4.79,0 9.15,1.332 13.1,3.8906 3.97,2.6211 7.09,6.6289 9.48,11.9883 2.36,5.3516 3.53,12.082 3.53,20.0899 0,7.6132 -1.17,14.0622 -3.53,19.5312 -2.39,5.449 -5.56,9.602 -9.56,12.531 -4.03,2.84 -8.41,4.309 -13.19,4.309 -4.97,0 -9.41,-1.531 -13.35,-4.469 -3.89,-2.922 -6.96,-7.191 -9.11,-12.699 -2.14,-5.531 -3.22,-11.871 -3.22,-19.2032 z m 53.45,-41.6368 v 2.7696 c -3.65,-4.3594 -7.25,-7.9102 -10.85,-10.6016 -3.49,-2.7812 -7.37,-4.8516 -11.52,-6.2695 -4.14,-1.3907 -8.67,-2.1211 -13.57,-2.1211 -6.5,0 -12.57,1.4492 -18.1,4.2812 -5.52,2.9688 -10.32,7.0313 -14.38,12.3594 -4.03,5.3398 -7.11,11.6094 -9.22,18.8516 -2.12,7.1679 -3.14,14.9804 -3.14,23.4104 0,17.687 4.16,31.59 12.46,41.5 8.33,9.91 19.23,14.859 32.76,14.859 7.83,0 14.45,-1.422 19.83,-4.281 5.36,-2.77 10.63,-7.078 15.73,-12.949 v 41.91 c 0,5.84 1.1,10.23 3.34,13.199 2.22,3 5.36,4.48 9.49,4.48 4.12,0 7.29,-1.378 9.54,-4.089 2.2,-2.719 3.36,-6.77 3.36,-12.121 V 58.332 c 0,-5.4023 -1.22,-9.4726 -3.62,-12.1523 -2.4,-2.7305 -5.46,-4.0703 -9.28,-4.0703 -3.67,0 -6.79,1.4023 -9.22,4.1914 -2.4,2.8008 -3.61,6.7812 -3.61,12.0312"
         style="fill:#100f0d;fill-opacity:1;fill-rule:nonzero;stroke:none"
         transform="matrix(0.13333333,0,0,-0.13333333,0,737.97333)" />
      <path
         id="path9"
         d="m 2302.2,99.75 c 0,11.531 -2.48,20.57 -7.33,27.02 -4.89,6.402 -11.47,9.66 -19.68,9.66 -5.35,0 -10,-1.45 -14.06,-4.321 -4.05,-2.918 -7.16,-7.16 -9.36,-12.769 -2.18,-5.559 -3.29,-12.078 -3.29,-19.59 0,-7.4414 1.11,-13.8906 3.23,-19.418 2.15,-5.5507 5.26,-9.7929 9.3,-12.7422 4,-2.9375 8.77,-4.3906 14.18,-4.3906 8.21,0 14.79,3.2227 19.68,9.6914 4.85,6.4492 7.33,15.4492 7.33,26.8594 z m 27.29,0 c 0,-8.4102 -1.28,-16.2187 -3.79,-23.3984 -2.53,-7.0821 -6.17,-13.2422 -10.93,-18.3828 -4.82,-5.1368 -10.53,-8.9805 -17.16,-11.7891 -6.63,-2.7305 -14.16,-4.0703 -22.42,-4.0703 -8.22,0 -15.64,1.3398 -22.2,4.1523 -6.58,2.7578 -12.3,6.7305 -17.12,11.8985 -4.79,5.1796 -8.43,11.2304 -10.95,18.2695 -2.49,7.082 -3.72,14.8125 -3.72,23.3594 0,8.6019 1.27,16.4609 3.77,23.5699 2.52,7.18 6.12,13.231 10.85,18.332 4.72,5.051 10.42,8.938 17.17,11.68 6.73,2.738 14.09,4.129 22.2,4.129 8.24,0 15.72,-1.391 22.42,-4.168 6.69,-2.762 12.43,-6.762 17.21,-11.883 4.81,-5.109 8.44,-11.258 10.88,-18.328 2.55,-7.051 3.79,-14.851 3.79,-23.371"
         style="fill:#100f0d;fill-opacity:1;fill-rule:nonzero;stroke:none"
         transform="matrix(0.13333333,0,0,-0.13333333,0,737.97333)" />
      <path
         id="path10"
         d="m 2444.34,123.191 c -2.04,-4.789 -3.01,-13.261 -3.01,-25.4605 v -37.711 c 0,-5.9375 -1.27,-10.4492 -3.89,-13.4375 -2.58,-2.9804 -6.04,-4.4726 -10.28,-4.4726 -4.08,0 -7.41,1.4922 -9.95,4.4726 -2.57,2.9883 -3.82,7.5 -3.82,13.4375 v 45.2695 c 0,7.121 -0.26,12.652 -0.73,16.652 -0.48,3.911 -1.72,7.168 -3.79,9.711 -2.01,2.547 -5.29,3.809 -9.72,3.809 -8.9,0 -14.75,-3.199 -17.59,-9.609 -2.85,-6.352 -4.19,-15.512 -4.19,-27.4497 V 60.0195 c 0,-5.9297 -1.32,-10.3906 -3.84,-13.3398 -2.58,-3.0781 -5.95,-4.5703 -10.09,-4.5703 -4.15,0 -7.56,1.4922 -10.16,4.5703 -2.65,2.9492 -3.89,7.4101 -3.89,13.332 v 81.2073 c 0,5.351 1.12,9.41 3.46,12.183 2.39,2.746 5.49,4.18 9.37,4.18 3.71,0 6.83,-1.293 9.29,-3.902 2.49,-2.59 3.73,-6.16 3.73,-10.75 v -2.7 c 4.71,5.899 9.77,10.25 15.13,12.981 5.37,2.781 11.41,4.16 17.94,4.16 6.82,0 12.67,-1.422 17.59,-4.281 4.93,-2.82 8.96,-7.121 12.13,-12.86 4.6,5.782 9.51,10.129 14.77,12.93 5.26,2.832 11.05,4.211 17.41,4.211 7.49,0 13.88,-1.492 19.22,-4.59 5.4,-3.039 9.4,-7.402 12.07,-13.082 2.34,-5.14 3.48,-13.211 3.48,-24.25 V 60.0195 c 0,-5.9375 -1.29,-10.4492 -3.84,-13.4375 -2.64,-2.9804 -6.03,-4.4726 -10.29,-4.4726 -4.13,0 -7.49,1.4922 -10.09,4.5703 -2.66,2.9492 -3.97,7.4101 -3.97,13.3398 v 47.7615 c 0,6.11 -0.25,10.981 -0.73,14.66 -0.51,3.707 -1.86,6.75 -4.07,9.258 -2.18,2.5 -5.52,3.762 -9.92,3.762 -3.59,0 -7.01,-1.121 -10.18,-3.289 -3.28,-2.25 -5.72,-5.231 -7.55,-8.981 v 0"
         style="fill:#100f0d;fill-opacity:1;fill-rule:nonzero;stroke:none"
         transform="matrix(0.13333333,0,0,-0.13333333,0,737.97333)" />
      <path
         id="path11"
         d="m 2598.36,99.2109 c -4.01,-1.5586 -9.81,-3.1289 -17.41,-4.8593 -7.61,-1.6914 -12.87,-2.9297 -15.8,-3.75 -2.93,-0.8203 -5.72,-2.3594 -8.34,-4.6524 -2.68,-2.3984 -4.03,-5.6172 -4.03,-9.7773 0,-4.3321 1.59,-7.961 4.68,-10.9922 3.14,-3.0508 7.23,-4.5313 12.28,-4.5313 5.37,0 10.37,1.25 14.89,3.711 4.55,2.4531 7.92,5.6601 10.01,9.5117 2.46,4.3086 3.72,11.3594 3.72,21.3008 z m 1.77,-41.1211 c -6.59,-5.3515 -12.95,-9.3203 -19.09,-11.9609 -6.12,-2.707 -13.05,-4.0195 -20.64,-4.0195 -7.03,0 -13.1,1.4492 -18.41,4.2812 -5.32,2.8985 -9.35,6.8008 -12.22,11.7696 -2.82,4.9218 -4.29,10.1992 -4.29,15.9921 0,7.7579 2.42,14.3594 7.12,19.836 4.68,5.4531 11.15,9.1327 19.38,11.0237 1.73,0.418 6.04,1.32 12.83,2.769 6.92,1.5 12.72,2.801 17.68,4.008 4.83,1.191 10.16,2.672 15.87,4.391 -0.35,7.519 -1.79,13.011 -4.33,16.582 -2.59,3.468 -7.92,5.179 -15.91,5.179 -6.94,0 -12.11,-0.98 -15.64,-2.992 -3.47,-1.98 -6.48,-5.027 -8.93,-9.097 -2.52,-4 -4.24,-6.661 -5.28,-7.922 -1.06,-1.321 -3.27,-1.899 -6.6,-1.899 -3.11,0 -5.73,1.008 -7.92,3.028 -2.26,2.062 -3.36,4.64 -3.36,7.882 0,4.969 1.69,9.872 5.06,14.508 3.39,4.742 8.69,8.614 15.84,11.711 7.17,3.051 16.13,4.559 26.83,4.559 11.92,0 21.34,-1.508 28.22,-4.438 6.82,-2.922 11.6,-7.551 14.46,-13.968 2.84,-6.344 4.23,-14.844 4.23,-25.372 0,-6.64 0,-12.332 -0.03,-16.941 -0.06,-4.6914 -0.09,-9.8281 -0.15,-15.5195 0,-5.3086 0.84,-10.8907 2.55,-16.6602 1.65,-5.789 2.5,-9.5312 2.5,-11.1601 0,-2.918 -1.33,-5.5782 -3.94,-7.9688 -2.57,-2.3828 -5.57,-3.582 -8.87,-3.582 -2.84,0 -5.53,1.3398 -8.3,4.0703 -2.72,2.75 -5.6,6.75 -8.66,11.9101"
         style="fill:#100f0d;fill-opacity:1;fill-rule:nonzero;stroke:none"
         transform="matrix(0.13333333,0,0,-0.13333333,0,737.97333)" />
      <path
         id="path12"
         d="M 2679.86,141.379 V 59.3789 c 0,-5.7187 -1.31,-10.0195 -3.85,-12.9297 -2.6,-2.8476 -5.86,-4.3398 -9.86,-4.3398 -3.97,0 -7.25,1.4922 -9.71,4.4414 -2.52,3.0195 -3.77,7.2695 -3.77,12.8281 V 140.57 c 0,5.559 1.25,9.789 3.77,12.641 2.46,2.871 5.74,4.289 9.71,4.289 4,0 7.26,-1.418 9.86,-4.289 2.54,-2.852 3.85,-6.781 3.85,-11.832 z m -13.44,29.34 c -3.75,0 -6.97,1.211 -9.67,3.703 -2.69,2.418 -4.08,5.867 -4.08,10.328 0,3.992 1.41,7.27 4.17,9.922 2.73,2.598 5.97,3.828 9.58,3.828 3.53,0 6.69,-1.148 9.41,-3.488 2.69,-2.352 4.03,-5.821 4.03,-10.262 0,-4.418 -1.31,-7.828 -3.98,-10.25 -2.65,-2.461 -5.81,-3.781 -9.46,-3.781"
         style="fill:#100f0d;fill-opacity:1;fill-rule:nonzero;stroke:none"
         transform="matrix(0.13333333,0,0,-0.13333333,0,737.97333)" />
      <path
         id="path13"
         d="m 2732.71,141.789 v -3.387 c 4.76,6.559 9.98,11.387 15.62,14.469 5.69,3.078 12.22,4.629 19.62,4.629 7.13,0 13.58,-1.621 19.26,-4.91 5.59,-3.25 9.84,-7.828 12.59,-13.758 1.82,-3.5 2.94,-7.281 3.52,-11.281 0.48,-3.981 0.8,-9.11 0.8,-15.371 V 59.3789 c 0,-5.7187 -1.29,-10.0195 -3.76,-12.9297 -2.5,-2.8476 -5.75,-4.3398 -9.71,-4.3398 -4.04,0 -7.35,1.4922 -9.78,4.4726 -2.55,2.9883 -3.85,7.2383 -3.85,12.7969 v 47.2731 c 0,9.399 -1.21,16.539 -3.69,21.477 -2.54,4.961 -7.52,7.473 -14.97,7.473 -4.83,0 -9.24,-1.532 -13.21,-4.563 -3.98,-2.969 -6.91,-7.129 -8.76,-12.418 -1.33,-4.23 -2.03,-12.09 -2.03,-23.7421 v -35.5 c 0,-5.7578 -1.25,-10.0898 -3.82,-12.9883 -2.57,-2.832 -5.87,-4.2812 -9.91,-4.2812 -3.89,0 -7.13,1.4922 -9.64,4.4414 -2.57,3.0195 -3.81,7.2695 -3.81,12.8281 v 82.0001 c 0,5.434 1.12,9.422 3.41,12.101 2.21,2.668 5.37,4.02 9.27,4.02 2.35,0 4.54,-0.641 6.43,-1.77 1.99,-1.16 3.48,-2.992 4.65,-5.25 1.12,-2.41 1.77,-5.3 1.77,-8.691"
         style="fill:#100f0d;fill-opacity:1;fill-rule:nonzero;stroke:none"
         transform="matrix(0.13333333,0,0,-0.13333333,0,737.97333)" />
      <path
         id="path14"
         d="m 2847.76,139.832 21.96,-64.4414 23.72,67.2614 c 1.89,5.418 3.7,9.188 5.52,11.457 1.83,2.25 4.5,3.391 8.13,3.391 3.46,0 6.39,-1.211 8.87,-3.68 2.37,-2.398 3.6,-5.172 3.6,-8.441 0,-1.219 -0.24,-2.66 -0.67,-4.277 -0.39,-1.704 -0.89,-3.262 -1.48,-4.75 -0.57,-1.403 -1.16,-3.09 -1.95,-4.942 l -26.08,-67.5702 c -0.73,-1.9414 -1.7,-4.4296 -2.83,-7.4101 -1.18,-2.9688 -2.5,-5.4609 -3.89,-7.6602 -1.46,-2.0898 -3.2,-3.6875 -5.27,-4.8789 -2.13,-1.1914 -4.68,-1.7812 -7.67,-1.7812 -3.85,0 -6.9,0.9101 -9.23,2.7109 -2.28,1.8594 -3.98,3.8399 -5.07,6.082 -1.07,2.1368 -2.95,6.4766 -5.51,12.9375 l -25.93,66.8322 c -0.6,1.629 -1.24,3.308 -1.89,4.976 -0.59,1.661 -1.08,3.321 -1.55,5.094 -0.42,1.77 -0.66,3.246 -0.66,4.438 0,1.992 0.56,3.902 1.72,5.812 1.13,1.918 2.69,3.488 4.67,4.668 2.03,1.199 4.14,1.84 6.51,1.84 4.47,0 7.59,-1.352 9.3,-4.098 1.69,-2.683 3.6,-7.211 5.68,-13.57"
         style="fill:#100f0d;fill-opacity:1;fill-rule:nonzero;stroke:none"
         transform="matrix(0.13333333,0,0,-0.13333333,0,737.97333)" />
      <path
         id="path15"
         d="m 2958.99,109.012 h 49.29 c -0.63,9.668 -3.12,16.929 -7.5,21.718 -4.37,4.801 -10.1,7.211 -17.22,7.211 -6.73,0 -12.31,-2.441 -16.64,-7.312 -4.35,-4.859 -6.95,-12.09 -7.93,-21.617 z m 53.2,-16.1526 h -53.2 c 0.01,-6.4571 1.31,-12.1406 3.69,-17.0977 2.46,-4.8711 5.66,-8.5898 9.7,-11.1094 4,-2.5234 8.45,-3.7226 13.31,-3.7226 3.24,0 6.25,0.3906 8.89,1.1601 2.68,0.8399 5.32,2.0821 7.87,3.75 2.48,1.711 4.78,3.4805 6.93,5.5 2.1,1.9297 4.93,4.5196 8.27,7.8711 1.41,1.3086 3.42,1.8907 5.97,1.8907 2.84,0 5.07,-0.7696 6.8,-2.4102 1.73,-1.5898 2.54,-3.8203 2.54,-6.7305 0,-2.5703 -0.93,-5.5586 -2.88,-9.0312 -1.9,-3.3789 -4.75,-6.6992 -8.71,-9.8906 -3.89,-3.1289 -8.77,-5.6993 -14.65,-7.8399 -5.85,-2.0703 -12.57,-3.0898 -20.28,-3.0898 -17.43,0 -31.03,5.2304 -40.69,15.5703 -9.69,10.4492 -14.51,24.5195 -14.51,42.2891 0,8.5002 1.23,16.2112 3.56,23.3712 2.39,7.199 5.86,13.332 10.46,18.449 4.59,5.152 10.19,9.121 16.92,11.813 6.74,2.757 14.14,4.117 22.35,4.117 10.54,0 19.69,-2.328 27.29,-7.039 7.63,-4.668 13.31,-10.68 17.09,-18.078 3.79,-7.461 5.68,-14.981 5.68,-22.743 0,-7.078 -1.9,-11.7106 -5.85,-13.8082 -3.96,-2.1406 -9.44,-3.1914 -16.55,-3.1914"
         style="fill:#100f0d;fill-opacity:1;fill-rule:nonzero;stroke:none"
         transform="matrix(0.13333333,0,0,-0.13333333,0,737.97333)" />
      <path
         id="path16"
         d="m 3155.07,77.2617 c 0,-3.5195 -1,-7.3203 -3.07,-11.3398 -2.03,-4.0235 -5.06,-7.8321 -9.25,-11.4805 -4.13,-3.6211 -9.41,-6.5508 -15.73,-8.75 -6.27,-2.2695 -13.42,-3.3594 -21.25,-3.3594 -16.87,0 -29.97,5.1289 -39.39,15.3399 -9.4,10.2187 -14.15,23.8867 -14.15,41.0976 0,11.6405 2.14,21.9605 6.5,30.8825 4.32,8.879 10.5,15.86 18.71,20.707 8.13,4.922 17.93,7.36 29.3,7.36 7.03,0 13.47,-1.098 19.4,-3.219 5.86,-2.168 10.8,-4.949 14.94,-8.309 4.08,-3.41 7.17,-7.039 9.35,-10.859 2.14,-3.844 3.22,-7.441 3.22,-10.773 0,-3.348 -1.18,-6.227 -3.68,-8.598 -2.4,-2.391 -5.33,-3.551 -8.78,-3.551 -2.26,0 -4.13,0.66 -5.6,1.871 -1.52,1.168 -3.18,3.071 -5.07,5.84 -3.32,5.238 -6.77,9.219 -10.39,11.91 -3.62,2.61 -8.22,3.961 -13.82,3.961 -7.98,0 -14.48,-3.332 -19.39,-9.883 -4.96,-6.578 -7.4,-15.527 -7.4,-26.8981 0,-5.3007 0.67,-10.2812 1.88,-14.7109 1.27,-4.4883 3.12,-8.2891 5.52,-11.4609 2.38,-3.1602 5.29,-5.5274 8.67,-7.1602 3.33,-1.6601 7.07,-2.4492 11.15,-2.4492 5.43,0 10.12,1.2891 14.01,3.9219 3.86,2.6679 7.33,6.6875 10.32,12.0273 1.67,3.2813 3.43,5.75 5.38,7.5703 1.9,1.8125 4.23,2.6719 7.07,2.6719 3.27,0 6.07,-1.2813 8.18,-3.9219 2.25,-2.6875 3.37,-5.4687 3.37,-8.4375"
         style="fill:#100f0d;fill-opacity:1;fill-rule:nonzero;stroke:none"
         transform="matrix(0.13333333,0,0,-0.13333333,0,737.97333)" />
      <path
         id="path17"
         d="m 3180.33,155.109 h 2.99 v 17.063 c 0,4.539 0.12,8.16 0.37,10.75 0.22,2.609 0.82,4.777 1.94,6.699 1.03,1.899 2.56,3.488 4.59,4.731 1.97,1.187 4.19,1.757 6.65,1.757 3.44,0 6.57,-1.328 9.35,-4.007 1.81,-1.832 3.02,-4 3.52,-6.571 0.51,-2.609 0.73,-6.351 0.73,-11.109 v -19.313 h 10 c 3.85,0 6.8,-0.968 8.82,-2.867 2.06,-1.922 3.05,-4.332 3.05,-7.32 0,-3.82 -1.44,-6.52 -4.37,-8.024 -2.87,-1.488 -7.01,-2.257 -12.38,-2.257 h -5.12 V 82.3594 c 0,-4.4492 0.17,-7.8672 0.45,-10.2891 0.35,-2.3984 1.19,-4.3515 2.45,-5.789 1.26,-1.5118 3.37,-2.2813 6.32,-2.2813 1.58,0 3.73,0.2813 6.49,0.8984 2.65,0.5821 4.79,0.8829 6.34,0.8829 2.18,0 4.22,-0.961 5.95,-2.6993 1.72,-1.9023 2.63,-4.1328 2.63,-6.8515 0,-4.5508 -2.35,-8.0586 -7.16,-10.4883 -4.83,-2.4336 -11.69,-3.6328 -20.61,-3.6328 -8.51,0 -14.98,1.4922 -19.36,4.4726 -4.36,2.9883 -7.28,7.0782 -8.58,12.4063 -1.4,5.2734 -2.07,12.3008 -2.07,21.1015 v 54.5512 h -3.62 c -3.85,0 -6.84,0.961 -8.92,2.922 -2.07,1.929 -3.08,4.359 -3.08,7.359 0,2.988 1.05,5.398 3.19,7.32 2.19,1.899 5.31,2.867 9.44,2.867"
         style="fill:#100f0d;fill-opacity:1;fill-rule:nonzero;stroke:none"
         transform="matrix(0.13333333,0,0,-0.13333333,0,737.97333)" />
      <path
         id="path18"
         d="m 3325.52,99.75 c 0,11.531 -2.46,20.57 -7.31,27.02 -4.93,6.402 -11.43,9.66 -19.69,9.66 -5.33,0 -10,-1.45 -14.02,-4.321 -4.08,-2.918 -7.2,-7.16 -9.38,-12.769 -2.19,-5.559 -3.31,-12.078 -3.31,-19.59 0,-7.4414 1.12,-13.8906 3.27,-19.418 2.15,-5.5507 5.22,-9.7929 9.23,-12.7422 4.01,-2.9375 8.75,-4.3906 14.21,-4.3906 8.26,0 14.76,3.2227 19.69,9.6914 4.85,6.4492 7.31,15.4492 7.31,26.8594 z m 27.31,0 c 0,-8.4102 -1.25,-16.2187 -3.82,-23.3984 -2.5,-7.0821 -6.17,-13.2422 -10.93,-18.3828 -4.79,-5.1368 -10.52,-8.9805 -17.13,-11.7891 -6.67,-2.7305 -14.09,-4.0703 -22.43,-4.0703 -8.27,0 -15.68,1.3398 -22.23,4.1523 -6.56,2.7578 -12.28,6.7305 -17.09,11.8985 -4.79,5.1796 -8.45,11.2304 -10.9,18.2695 -2.48,7.082 -3.71,14.8125 -3.71,23.3594 0,8.6019 1.23,16.4609 3.71,23.5699 2.57,7.18 6.15,13.231 10.86,18.332 4.75,5.051 10.44,8.938 17.13,11.68 6.78,2.738 14.16,4.129 22.23,4.129 8.26,0 15.69,-1.391 22.43,-4.168 6.7,-2.762 12.42,-6.762 17.22,-11.883 4.73,-5.109 8.44,-11.258 10.92,-18.328 2.49,-7.051 3.74,-14.851 3.74,-23.371"
         style="fill:#100f0d;fill-opacity:1;fill-rule:nonzero;stroke:none"
         transform="matrix(0.13333333,0,0,-0.13333333,0,737.97333)" />
      <path
         id="path19"
         d="M 3401.27,83.0117 V 59.3789 c 0,-5.7578 -1.3,-10.0898 -3.9,-12.9883 -2.6,-2.832 -5.87,-4.2812 -9.89,-4.2812 -3.87,0 -7.12,1.4922 -9.63,4.3398 -2.52,2.9102 -3.76,7.211 -3.76,12.9297 v 79.0001 c 0,12.762 4.39,19.121 13.23,19.121 4.47,0 7.74,-1.508 9.77,-4.461 1.96,-2.976 3.01,-7.398 3.28,-13.207 3.23,5.809 6.61,10.231 10.04,13.207 3.41,2.953 7.95,4.461 13.64,4.461 5.76,0 11.28,-1.508 16.68,-4.461 5.35,-2.976 8.07,-6.957 8.07,-11.859 0,-3.461 -1.18,-6.371 -3.46,-8.578 -2.27,-2.243 -4.75,-3.411 -7.44,-3.411 -0.98,0 -3.4,0.661 -7.21,1.969 -3.85,1.262 -7.22,1.93 -10.16,1.93 -3.93,0 -7.19,-1.059 -9.69,-3.301 -2.53,-2.207 -4.51,-5.41 -5.89,-9.687 -1.4,-4.352 -2.41,-9.442 -2.9,-15.391 -0.51,-5.8907 -0.78,-13.1016 -0.78,-21.6993"
         style="fill:#100f0d;fill-opacity:1;fill-rule:nonzero;stroke:none"
         transform="matrix(0.13333333,0,0,-0.13333333,0,737.97333)" />
      <path
         id="path20"
         d="m 3546.13,79.1914 c 0,-7.8516 -1.83,-14.5391 -5.52,-20.1328 -3.67,-5.5977 -9.05,-9.7695 -16.2,-12.6797 -7.17,-2.8203 -15.82,-4.2695 -26.1,-4.2695 -9.68,0 -18.1,1.539 -25.09,4.7031 -6.97,3.0977 -12.13,6.9766 -15.42,11.6484 -3.36,4.6485 -5.07,9.3477 -5.07,14.0508 0,3.1094 1.09,5.7891 3.27,8.0078 2.11,2.2618 4.82,3.3203 8.03,3.3203 2.87,0 5.1,-0.75 6.61,-2.1484 1.52,-1.5391 2.95,-3.5508 4.38,-6.1797 2.79,-5.0703 6.11,-8.8515 10.05,-11.3398 3.82,-2.5313 9.12,-3.7696 15.89,-3.7696 5.42,0 9.89,1.2891 13.39,3.8165 3.47,2.5312 5.26,5.4101 5.26,8.6718 0,5.0196 -1.83,8.668 -5.43,10.9414 -3.67,2.3282 -9.6,4.5078 -17.9,6.5703 -9.35,2.4297 -17,4.9766 -22.89,7.629 -5.87,2.6797 -10.62,6.2307 -14.11,10.5897 -3.52,4.301 -5.31,9.711 -5.31,16.09 0,5.719 1.64,11.078 4.9,16.121 3.23,5.07 8.11,9.09 14.43,12.117 6.32,3.043 13.97,4.551 22.98,4.551 7.01,0 13.33,-0.781 18.98,-2.309 5.59,-1.511 10.34,-3.582 14.03,-6.109 3.75,-2.582 6.64,-5.422 8.59,-8.512 1.99,-3.16 2.95,-6.211 2.95,-9.16 0,-3.281 -1.02,-5.879 -3.16,-8.051 -2.1,-2 -5.1,-3.058 -8.89,-3.058 -2.82,0 -5.18,0.82 -7.18,2.519 -1.92,1.641 -4.19,4.121 -6.7,7.399 -2.06,2.793 -4.47,5.019 -7.29,6.679 -2.79,1.633 -6.57,2.5 -11.33,2.5 -4.93,0 -9.05,-1.078 -12.24,-3.289 -3.28,-2.168 -4.92,-4.91 -4.92,-8.16 0,-3 1.21,-5.429 3.56,-7.34 2.42,-1.91 5.63,-3.48 9.7,-4.738 4.08,-1.25 9.64,-2.801 16.75,-4.59 8.45,-2.14 15.32,-4.679 20.68,-7.691 5.34,-2.949 9.38,-6.4806 12.14,-10.5275 2.8,-4.1016 4.18,-8.7227 4.18,-13.8711"
         style="fill:#100f0d;fill-opacity:1;fill-rule:nonzero;stroke:none"
         transform="matrix(0.13333333,0,0,-0.13333333,0,737.97333)" />
      <path
         id="path21"
         d="m 3577.01,42.1094 c -4.12,0 -7.69,1.3398 -10.64,4.1523 -3.04,2.7578 -4.51,6.668 -4.51,11.6094 0,4.2187 1.4,7.8594 4.23,10.9297 2.86,3.039 6.41,4.5195 10.59,4.5195 4.16,0 7.75,-1.4805 10.64,-4.5078 3,-2.9727 4.48,-6.6836 4.48,-10.9414 0,-4.9023 -1.48,-8.7695 -4.48,-11.5703 -2.89,-2.7891 -6.34,-4.1914 -10.31,-4.1914"
         style="fill:#100f0d;fill-opacity:1;fill-rule:nonzero;stroke:none"
         transform="matrix(0.13333333,0,0,-0.13333333,0,737.97333)" />
      <path
         id="path22"
         d="m 3697.26,99.75 c 0,11.531 -2.45,20.57 -7.33,27.02 -4.89,6.402 -11.42,9.66 -19.65,9.66 -5.32,0 -9.95,-1.45 -14.03,-4.321 -4.06,-2.918 -7.17,-7.16 -9.35,-12.769 -2.17,-5.559 -3.28,-12.078 -3.28,-19.59 0,-7.4414 1.04,-13.8906 3.19,-19.418 2.23,-5.5507 5.27,-9.7929 9.31,-12.7422 4,-2.9375 8.72,-4.3906 14.16,-4.3906 8.23,0 14.76,3.2227 19.65,9.6914 4.88,6.4492 7.33,15.4492 7.33,26.8594 z m 27.32,0 c 0,-8.4102 -1.25,-16.2187 -3.8,-23.3984 -2.54,-7.0821 -6.16,-13.2422 -10.95,-18.3828 -4.83,-5.1368 -10.47,-8.9805 -17.13,-11.7891 -6.62,-2.7305 -14.09,-4.0703 -22.42,-4.0703 -8.22,0 -15.63,1.3398 -22.2,4.1523 -6.58,2.7578 -12.25,6.7305 -17.05,11.8985 -4.89,5.1796 -8.52,11.2304 -11.03,18.2695 -2.45,7.082 -3.7,14.8125 -3.7,23.3594 0,8.6019 1.25,16.4609 3.79,23.5699 2.57,7.18 6.14,13.231 10.82,18.332 4.72,5.051 10.44,8.938 17.17,11.68 6.7,2.738 14.05,4.129 22.2,4.129 8.23,0 15.7,-1.391 22.42,-4.168 6.74,-2.762 12.46,-6.762 17.26,-11.883 4.74,-5.109 8.37,-11.258 10.89,-18.328 2.48,-7.051 3.73,-14.851 3.73,-23.371"
         style="fill:#100f0d;fill-opacity:1;fill-rule:nonzero;stroke:none"
         transform="matrix(0.13333333,0,0,-0.13333333,0,737.97333)" />
      <path
         id="path23"
         d="M 3773.02,83.0117 V 59.3789 c 0,-5.7578 -1.3,-10.0898 -3.88,-12.9883 -2.55,-2.832 -5.88,-4.2812 -9.84,-4.2812 -3.96,0 -7.15,1.4922 -9.69,4.3398 -2.55,2.9102 -3.79,7.211 -3.79,12.9297 v 79.0001 c 0,12.762 4.47,19.121 13.26,19.121 4.52,0 7.75,-1.508 9.73,-4.461 1.97,-2.976 3.13,-7.398 3.36,-13.207 3.2,5.809 6.53,10.231 9.94,13.207 3.44,2.953 8.01,4.461 13.68,4.461 5.81,0 11.34,-1.508 16.67,-4.461 5.38,-2.976 8.09,-6.957 8.09,-11.859 0,-3.461 -1.15,-6.371 -3.43,-8.578 -2.31,-2.243 -4.74,-3.411 -7.47,-3.411 -0.95,0 -3.35,0.661 -7.16,1.969 -3.84,1.262 -7.21,1.93 -10.16,1.93 -3.96,0 -7.19,-1.059 -9.79,-3.301 -2.48,-2.207 -4.44,-5.41 -5.86,-9.687 -1.35,-4.352 -2.33,-9.442 -2.85,-15.391 -0.52,-5.8907 -0.81,-13.1016 -0.81,-21.6993"
         style="fill:#100f0d;fill-opacity:1;fill-rule:nonzero;stroke:none"
         transform="matrix(0.13333333,0,0,-0.13333333,0,737.97333)" />
      <path
         id="path24"
         d="m 3851.54,100.719 c 0,-11.4768 2.42,-20.1877 7.25,-26.1096 4.78,-5.8477 11.05,-8.8281 18.64,-8.8281 4.49,0 8.82,1.3085 12.81,3.8398 4.02,2.5312 7.29,6.3398 9.82,11.4297 2.56,5.1094 3.78,11.2578 3.78,18.539 0,11.5702 -2.46,20.5702 -7.33,26.9922 -4.86,6.508 -11.3,9.758 -19.26,9.758 -7.74,0 -13.98,-3.168 -18.65,-9.301 -4.71,-6.187 -7.06,-14.937 -7.06,-26.32 z m 78.84,36 V 54.25 c 0,-9.4687 -1.04,-17.5586 -2.92,-24.3203 -1.94,-6.8281 -5.01,-12.4375 -9.26,-16.8594 -4.25,-4.42967 -9.85,-7.71874 -16.67,-9.87108 C 3894.64,1.08984 3886.08,0 3875.86,0 c -9.38,0 -17.77,1.33203 -25.09,4.05859 -7.4,2.80079 -13.09,6.30081 -17.05,10.67191 -3.99,4.2812 -6,8.75 -6,13.3515 0,3.4688 1.1,6.2696 3.43,8.4493 2.22,2.2382 4.96,3.3203 8.13,3.3203 4.01,0 7.44,-1.8516 10.49,-5.5118 1.47,-1.9296 2.99,-3.789 4.5,-5.6796 1.56,-1.9102 3.3,-3.5782 5.18,-4.8985 1.91,-1.3906 4.21,-2.3828 6.86,-3.0508 2.6,-0.6484 5.71,-0.9804 9.17,-0.9804 6.99,0 12.51,1.039 16.37,3.0586 3.89,2.0429 6.62,4.9023 8.2,8.5703 1.49,3.6797 2.49,7.5898 2.65,11.7812 0.32,4.2813 0.51,10.9492 0.69,20.2891 -4.18,-6.0977 -9.09,-10.75 -14.51,-13.9297 -5.48,-3.1992 -12.03,-4.75 -19.54,-4.75 -9.18,0 -17.13,2.3789 -23.89,7.2617 -6.84,4.8399 -12.08,11.6172 -15.72,20.3789 -3.6,8.711 -5.48,18.7891 -5.48,30.2384 0,8.57 1.1,16.281 3.36,23.141 2.18,6.832 5.33,12.632 9.52,17.339 4.08,4.723 8.85,8.293 14.22,10.692 5.41,2.347 11.25,3.57 17.76,3.57 7.66,0 14.33,-1.562 19.97,-4.672 5.72,-3.027 10.91,-7.937 15.77,-14.48 v 3.801 c 0,4.96 1.2,8.742 3.49,11.519 2.3,2.672 5.32,4.043 8.95,4.043 5.26,0 8.75,-1.773 10.5,-5.34 1.7,-3.594 2.59,-8.781 2.59,-15.523"
         style="fill:#100f0d;fill-opacity:1;fill-rule:nonzero;stroke:none"
         transform="matrix(0.13333333,0,0,-0.13333333,0,737.97333)" />
      <path
         id="path25"
         d="m 2751.67,413.09 h 40.34 c -2.85,-21.738 -11.76,-38.719 -26.59,-50.93 -13.71,-11.98 -30.32,-17.871 -49.72,-17.871 -26.35,0 -47.37,9.25 -63.07,27.723 -14.88,17.57 -22.3,40.25 -22.3,67.957 0,28.402 7.37,51.09 22.08,68.281 14.71,17.121 35.51,25.719 62.39,25.719 19.99,0 36.91,-5.41 50.62,-16.137 14.55,-11.602 23.44,-27.902 26.59,-48.773 h -40.34 c -3.49,18.211 -14.6,27.273 -33.52,27.273 -31.17,0 -46.79,-18.473 -46.79,-55.422 0,-17.328 4.02,-31.461 12.03,-42.461 8.02,-11.07 19.32,-16.597 33.9,-16.597 21.74,0 33.21,10.429 34.38,31.238 z m -158.79,25.449 c 0,-36.098 11.45,-66.66 34.3,-91.559 22.9,-24.89 50.91,-37.351 84.15,-37.351 33.1,0 61.14,12.461 83.99,37.351 22.92,24.899 34.29,55.461 34.29,91.559 0,36.082 -11.37,66.621 -34.29,91.52 -22.85,24.953 -50.89,37.382 -83.99,37.382 -33.24,0 -61.25,-12.429 -84.15,-37.382 -22.85,-24.899 -34.3,-55.438 -34.3,-91.52 z m -40.99,0 c 0,45.941 15.56,85.152 46.66,117.723 31.16,32.519 68.76,48.789 112.78,48.789 43.92,0 81.47,-16.27 112.65,-48.789 31.13,-32.571 46.73,-71.782 46.73,-117.723 0,-45.969 -15.6,-85.238 -46.73,-117.738 -31.18,-32.551 -68.73,-48.832 -112.65,-48.832 -44.02,0 -81.62,16.281 -112.78,48.832 -31.1,32.5 -46.66,71.769 -46.66,117.738"
         style="fill:#100f0d;fill-opacity:1;fill-rule:nonzero;stroke:none"
         transform="matrix(0.13333333,0,0,-0.13333333,0,737.97333)" />
      <path
         id="path26"
         d="m 2616.4,334.121 23.26,-19.73 170.95,219.539 -23.24,19.691 -170.97,-219.5"
         style="fill:#100f0d;fill-opacity:1;fill-rule:nonzero;stroke:none"
         transform="matrix(0.13333333,0,0,-0.13333333,0,737.97333)" />
      <path
         id="path27"
         d="m 2827.45,1040.74 c 1557.3,0 2827.42,53.14 2827.42,118.32 0,65.19 -1270.12,118.35 -2827.42,118.35 C 1270.14,1277.41 0,1224.25 0,1159.06 0,1093.88 1270.14,1040.74 2827.45,1040.74"
         style="fill:#a1da78;fill-opacity:1;fill-rule:evenodd;stroke:none"
         transform="matrix(0.13333333,0,0,-0.13333333,0,737.97333)" />
      <path
         id="path28"
         d="m 4341.06,3179.55 -130.68,-68.15 c -260.06,-135.63 -454.34,-371.25 -536.23,-641.86 -7.52,-24.87 -32.93,-41.23 -57.82,-37.21 -24.86,4.04 -40.41,27.01 -35.35,52.34 l 2.27,11.33 c 72.05,360.32 314.55,678.6 649.57,852.53 l 108.24,-168.98"
         style="fill:#1b1919;fill-opacity:1;fill-rule:evenodd;stroke:none"
         transform="matrix(0.13333333,0,0,-0.13333333,0,737.97333)" />
      <path
         id="path29"
         d="m 4358.42,3189.57 118.13,31.16 c 235.02,62.01 485.54,26.06 686.74,-94.06 18.47,-11.05 43.16,-6.9 56.15,9.45 12.99,16.36 9.69,39.11 -7.52,51.8 l -7.74,5.69 c -245.17,180.56 -571.38,240.28 -873.71,159.9 l 27.95,-163.94"
         style="fill:#1b1919;fill-opacity:1;fill-rule:evenodd;stroke:none"
         transform="matrix(0.13333333,0,0,-0.13333333,0,737.97333)" />
      <path
         id="path30"
         d="m 1713.91,2943.62 -178.94,107.4 c -356.06,213.69 -784.24,258.34 -1171.556,130.48 -35.633,-11.74 -74.168,6.48 -87.684,41.46 -13.527,35.02 2.754,74.41 37.04,89.64 l 15.382,6.86 c 488.379,217.16 1052.048,182.12 1509.768,-93.87 l -124.01,-281.97"
         style="fill:#1b1919;fill-opacity:1;fill-rule:evenodd;stroke:none"
         transform="matrix(0.13333333,0,0,-0.13333333,0,737.97333)" />
      <path
         id="path31"
         d="m 2470.71,2062.99 -0.01,-0.02 c -31.1,-31.6 -82.4,-32.01 -114.02,-0.91 l -452.91,445.56 c -31.61,31.11 -32.04,82.42 -0.93,114.02 v 0.02 c 31.1,31.62 82.41,32.02 114.02,0.93 l 452.92,-445.58 c 31.61,-31.1 32.03,-82.4 0.93,-114.02"
         style="fill:#536ebf;fill-opacity:1;fill-rule:evenodd;stroke:none"
         transform="matrix(0.13333333,0,0,-0.13333333,0,737.97333)" />
      <path
         id="path32"
         d="m 2143.92,2471.89 h -374.26 c -65.93,0 -119.86,53.94 -119.86,119.88 v 0 c 0,65.91 53.93,119.85 119.86,119.85 h 374.26 c 65.92,0 119.86,-53.94 119.86,-119.85 v 0 c 0,-65.94 -53.94,-119.88 -119.86,-119.88"
         style="fill:#536ebf;fill-opacity:1;fill-rule:evenodd;stroke:none"
         transform="matrix(0.13333333,0,0,-0.13333333,0,737.97333)" />
      <path
         id="path33"
         d="m 1950.29,3567.31 -157.99,589.61 173.19,46.29 157.99,-589.64 -173.19,-46.26"
         style="fill:#2e2d2d;fill-opacity:1;fill-rule:evenodd;stroke:none"
         transform="matrix(0.13333333,0,0,-0.13333333,0,737.97333)" />
      <path
         id="path34"
         d="m 4696.61,2855.54 c -409.36,0 -741.19,-331.85 -741.19,-741.19 0,-409.36 331.83,-741.21 741.19,-741.21 409.33,0 741.19,331.85 741.19,741.21 0,409.34 -331.86,741.19 -741.19,741.19 z m 0,217.09 c 529.25,0 958.26,-429.04 958.26,-958.28 0,-529.24 -429.01,-958.28 -958.26,-958.28 -529.24,0 -958.28,429.04 -958.28,958.28 0,529.24 429.04,958.28 958.28,958.28 v 0"
         style="fill:#2e2d2d;fill-opacity:1;fill-rule:evenodd;stroke:none"
         transform="matrix(0.13333333,0,0,-0.13333333,0,737.97333)" />
      <path
         id="path35"
         d="m 4201.02,2934.67 c 110.04,66.62 234.55,111.68 367.7,129.44 -38.11,-40.59 -55.86,-96.94 -46.98,-152.89 4.07,-25.56 13.42,-49.45 27.05,-70.43 -77.01,-15.61 -149.64,-43.14 -215.97,-80.59 -19.08,72.06 -65.74,135.39 -131.8,174.47"
         style="fill:#1b1919;fill-opacity:1;fill-rule:evenodd;stroke:none"
         transform="matrix(0.13333333,0,0,-0.13333333,0,737.97333)" />
      <path
         id="path36"
         d="m 4696.61,2911.36 c -440.18,0 -797.03,-356.83 -797.03,-797.01 0,-440.17 356.85,-797.03 797.03,-797.03 440.15,0 797.01,356.86 797.01,797.03 0,440.18 -356.86,797.01 -797.01,797.01 z m 0,-119.41 c 374.22,0 677.61,-303.38 677.61,-677.6 0,-374.23 -303.39,-677.6 -677.61,-677.6 -374.24,0 -677.6,303.37 -677.6,677.6 0,374.22 303.36,677.6 677.6,677.6 v 0"
         style="fill:#cdccca;fill-opacity:1;fill-rule:evenodd;stroke:none"
         transform="matrix(0.13333333,0,0,-0.13333333,0,737.97333)" />
      <path
         id="path37"
         d="m 4342.33,2692.03 c 78.34,48.15 167.23,80.8 262.38,93.69 -38.77,24.31 -67.19,62.55 -79.08,107.2 -75.39,-16.49 -146.8,-43.61 -212.54,-79.77 18.22,-37.33 28.46,-78.6 29.24,-121.12"
         style="fill:#b1b1b0;fill-opacity:1;fill-rule:evenodd;stroke:none"
         transform="matrix(0.13333333,0,0,-0.13333333,0,737.97333)" />
      <path
         id="path38"
         d="m 4696.59,1931.38 c 100.78,0 182.99,82.19 182.99,182.97 0,100.78 -82.21,182.97 -182.99,182.97 -100.76,0 -182.95,-82.19 -182.95,-182.97 0,-100.78 82.19,-182.97 182.95,-182.97"
         style="fill:#cdccca;fill-opacity:1;fill-rule:evenodd;stroke:none"
         transform="matrix(0.13333333,0,0,-0.13333333,0,737.97333)" />
      <path
         id="path39"
         d="m 4740.55,2190.23 c 41.92,-24.27 56.23,-77.92 31.95,-119.84 -24.27,-41.91 -77.92,-56.2 -119.86,-31.93 l -92.24,53.26 c -20.92,12.12 -34.98,31.58 -40.77,53.25 l -0.09,-0.02 L 4060,3859.98 c -12.51,46.86 15.32,94.97 62.15,107.49 46.84,12.51 94.98,-15.32 107.48,-62.14 l 450.16,-1680 60.76,-35.1"
         style="fill:#e8e8e7;fill-opacity:1;fill-rule:evenodd;stroke:none"
         transform="matrix(0.13333333,0,0,-0.13333333,0,737.97333)" />
      <path
         id="path40"
         d="m 4254.89,3132.64 -55.37,206.69 h 25.9 c 16.95,0 87.81,1.81 155.41,1.73 l 55.01,-205.37 c -24.1,25.32 -58.39,39.65 -94.53,38.03 -33.81,-1.49 -64.74,-16.74 -86.42,-41.08"
         style="fill:#cdccca;fill-opacity:1;fill-rule:evenodd;stroke:none"
         transform="matrix(0.13333333,0,0,-0.13333333,0,737.97333)" />
      <path
         id="path41"
         d="m 4187.8,3270.18 -253.91,947.64 226.17,60.44 253.93,-947.64 -226.19,-60.44"
         style="fill:#758ed0;fill-opacity:1;fill-rule:evenodd;stroke:none"
         transform="matrix(0.13333333,0,0,-0.13333333,0,737.97333)" />
      <path
         id="path42"
         d="m 3964.97,4271.56 -128.95,481.27 141.37,37.76 128.94,-481.25 -141.36,-37.78"
         style="fill:#2e2d2d;fill-opacity:1;fill-rule:evenodd;stroke:none"
         transform="matrix(0.13333333,0,0,-0.13333333,0,737.97333)" />
      <path
         id="path43"
         d="m 3945.22,4175.41 c -23.42,-6.25 -47.5,7.65 -53.75,31.07 -6.25,23.43 7.66,47.49 31.09,53.74 l 226.19,60.44 c 23.4,6.26 47.49,-7.64 53.72,-31.07 6.27,-23.42 -7.64,-47.48 -31.06,-53.74 z m 457.44,-802.37 c 23.42,6.26 47.48,-7.67 53.73,-31.1 6.27,-23.41 -7.65,-47.47 -31.07,-53.72 l -226.17,-60.44 c -23.44,-6.26 -47.5,7.65 -53.75,31.07 -6.25,23.42 7.65,47.49 31.07,53.75 l 226.19,60.44 v 0"
         style="fill:#a4b8e4;fill-opacity:1;fill-rule:evenodd;stroke:none"
         transform="matrix(0.13333333,0,0,-0.13333333,0,737.97333)" />
      <path
         id="path44"
         d="m 3775.88,4850.74 207.64,55.64 h 252.5 c 80.06,0 148.56,-57.48 162.46,-136.31 13.89,-78.84 -30.8,-156.27 -106.03,-183.66 -75.24,-27.35 -159.26,3.21 -199.28,72.54 H 4057 l -214.75,-57.54 -66.37,249.33"
         style="fill:#464648;fill-opacity:1;fill-rule:evenodd;stroke:none"
         transform="matrix(0.13333333,0,0,-0.13333333,0,737.97333)" />
      <path
         id="path45"
         d="m 4297.9,4786.91 c 25.11,-31.61 19.86,-77.6 -11.74,-102.73 -31.6,-25.13 -77.58,-19.88 -102.74,11.74 l -350.68,439.25 c -66.06,82.75 -154.67,147.77 -251.43,182.2 -87.34,31.08 -181.13,36.96 -270.11,7.75 l -260,-85.38 c -62.89,-20.65 -106.35,119 -45.24,139.07 l 260.02,85.39 c 121.45,39.87 247.68,32.47 363.97,-8.9 122.65,-43.64 234.45,-125.4 317.26,-229.13 l 350.69,-439.26"
         style="fill:#cdccca;fill-opacity:1;fill-rule:evenodd;stroke:none"
         transform="matrix(0.13333333,0,0,-0.13333333,0,737.97333)" />
      <path
         id="path46"
         d="m 3311.2,5325.12 -373.21,-124.14 c -62.79,-20.88 -106.25,118.76 -45.21,139.07 l 373.2,124.15 45.22,-139.08"
         style="fill:#2e2d2d;fill-opacity:1;fill-rule:evenodd;stroke:none"
         transform="matrix(0.13333333,0,0,-0.13333333,0,737.97333)" />
      <path
         id="path47"
         d="m 3255.59,5533.48 c 43.42,10.24 92.95,-42.2 110.61,-117.13 17.65,-74.93 -3.25,-143.96 -46.66,-154.2 -43.44,-10.23 -92.95,42.21 -110.61,117.14 -17.66,74.93 3.22,143.96 46.66,154.19"
         style="fill:#2e2d2d;fill-opacity:1;fill-rule:evenodd;stroke:none"
         transform="matrix(0.13333333,0,0,-0.13333333,0,737.97333)" />
      <path
         id="path48"
         d="m 2269.37,2168.53 -431.56,1610.6 277.11,74.06 431.56,-1610.59 -277.11,-74.07"
         style="fill:#758ed0;fill-opacity:1;fill-rule:evenodd;stroke:none"
         transform="matrix(0.13333333,0,0,-0.13333333,0,737.97333)" />
      <path
         id="path49"
         d="m 1851.69,3727.19 c -28.69,-7.68 -58.17,9.37 -65.85,38.06 -7.66,28.69 9.38,58.19 38.09,65.85 l 277.11,74.04 c 28.7,7.67 58.17,-9.37 65.84,-38.07 7.66,-28.69 -9.38,-58.19 -38.08,-65.85 z M 2532.6,2294.54 c 28.7,7.68 58.17,-9.38 65.85,-38.08 7.65,-28.68 -9.39,-58.18 -38.08,-65.84 l -277.11,-74.05 c -28.7,-7.65 -58.19,9.39 -65.85,38.09 -7.66,28.69 9.38,58.17 38.08,65.83 l 277.11,74.05 v 0"
         style="fill:#a4b8e4;fill-opacity:1;fill-rule:evenodd;stroke:none"
         transform="matrix(0.13333333,0,0,-0.13333333,0,737.97333)" />
      <path
         id="path50"
         d="m 2218.77,3465.59 c -47.92,-9.53 -9.96,-151.13 37.94,-141.61 l 1819.62,362.23 c 47.84,9.53 9.96,150.94 -37.89,141.41 z M 4150.34,3410 2451.29,2597.8 c -44.12,-21.09 -82.12,120.7 -37.97,141.76 l 1699.34,811.07 c 43.79,20.9 81.43,-119.71 37.68,-140.63 v 0"
         style="fill:#536ebf;fill-opacity:1;fill-rule:evenodd;stroke:none"
         transform="matrix(0.13333333,0,0,-0.13333333,0,737.97333)" />
      <path
         id="path51"
         d="m 958.281,2855.54 c -409.355,0 -741.195,-331.85 -741.195,-741.19 0,-409.36 331.84,-741.21 741.195,-741.21 409.349,0 741.189,331.85 741.189,741.21 0,409.34 -331.84,741.19 -741.189,741.19 z m 0,217.09 c 529.239,0 958.279,-429.04 958.279,-958.28 0,-529.24 -429.04,-958.28 -958.279,-958.28 C 429.031,1156.07 0,1585.11 0,2114.35 c 0,529.24 429.031,958.28 958.281,958.28 v 0"
         style="fill:#2e2d2d;fill-opacity:1;fill-rule:evenodd;stroke:none"
         transform="matrix(0.13333333,0,0,-0.13333333,0,737.97333)" />
      <path
         id="path52"
         d="m 1438.75,2943.62 c 111.35,-64.37 210.8,-151.82 290.46,-260 -53.94,13.87 -111.86,2.3 -156.62,-32.42 -20.44,-15.85 -36.89,-35.57 -48.73,-57.61 -50.73,60 -109.84,110.4 -174.59,150.53 53.98,51.4 87.03,122.8 89.48,199.5"
         style="fill:#1b1919;fill-opacity:1;fill-rule:evenodd;stroke:none"
         transform="matrix(0.13333333,0,0,-0.13333333,0,737.97333)" />
      <path
         id="path53"
         d="m 958.281,2911.36 c -440.179,0 -797.015,-356.83 -797.015,-797.01 0,-440.17 356.836,-797.03 797.015,-797.03 440.179,0 797.009,356.86 797.009,797.03 0,440.18 -356.83,797.01 -797.009,797.01 z m 0,-119.41 c 374.229,0 677.609,-303.38 677.609,-677.6 0,-374.23 -303.38,-677.6 -677.609,-677.6 -374.238,0 -677.601,303.37 -677.601,677.6 0,374.22 303.363,677.6 677.601,677.6 v 0"
         style="fill:#cdccca;fill-opacity:1;fill-rule:evenodd;stroke:none"
         transform="matrix(0.13333333,0,0,-0.13333333,0,737.97333)" />
      <path
         id="path54"
         d="m 1294.09,2702.96 c 79.91,-45.5 151.32,-107.69 208.43,-184.88 2.65,45.67 22.49,89 55.89,120.92 -50.74,58.14 -108.89,107.67 -172.23,147.89 -23.93,-33.93 -55.19,-62.77 -92.09,-83.93"
         style="fill:#b1b1b0;fill-opacity:1;fill-rule:evenodd;stroke:none"
         transform="matrix(0.13333333,0,0,-0.13333333,0,737.97333)" />
      <path
         id="path55"
         d="m 2430,2544.05 c 237.32,0 429.71,-192.37 429.71,-429.7 0,-237.32 -192.39,-429.7 -429.71,-429.7 -26.79,0 -53,2.47 -78.43,7.15 v -0.01 L 947.574,1820.46 c -11.191,0.4 -22.238,1.41 -33.086,3.02 l -0.152,0.03 v 0 c -141.582,21.22 -250.16,143.33 -250.16,290.84 0,147.49 108.578,269.62 250.16,290.82 v 0.02 h 0.152 c 10.848,1.63 21.895,2.65 33.086,3.04 l 1403.996,128.68 v -0.02 c 25.43,4.69 51.64,7.16 78.43,7.16"
         style="fill:#cdccca;fill-opacity:1;fill-rule:evenodd;stroke:none"
         transform="matrix(0.13333333,0,0,-0.13333333,0,737.97333)" />
      <path
         id="path56"
         d="m 2705.32,1784.44 c -41.55,-34.7 -89.77,-61.72 -142.44,-78.82 l -206.2,356.44 348.64,-277.62"
         style="fill:#b1b1b0;fill-opacity:1;fill-rule:evenodd;stroke:none"
         transform="matrix(0.13333333,0,0,-0.13333333,0,737.97333)" />
      <path
         id="path57"
         d="m 958.281,1931.38 c 100.789,0 182.979,82.19 182.979,182.97 0,100.78 -82.19,182.97 -182.979,182.97 -100.777,0 -182.972,-82.19 -182.972,-182.97 0,-100.78 82.195,-182.97 182.972,-182.97"
         style="fill:#2e2d2d;fill-opacity:1;fill-rule:evenodd;stroke:none"
         transform="matrix(0.13333333,0,0,-0.13333333,0,737.97333)" />
      <path
         id="path58"
         d="m 2417.31,1812.13 c 166.45,0 302.21,135.75 302.21,302.22 0,166.45 -135.76,302.21 -302.21,302.21 -166.46,0 -302.22,-135.76 -302.22,-302.21 0,-166.47 135.76,-302.22 302.22,-302.22"
         style="fill:#2e2d2d;fill-opacity:1;fill-rule:evenodd;stroke:none"
         transform="matrix(0.13333333,0,0,-0.13333333,0,737.97333)" />
      <path
         id="path59"
         d="m 2596.58,1871.02 c -29.99,-22.11 -64.2,-38.83 -101.21,-48.71 l -138.69,239.75 239.9,-191.04"
         style="fill:#1b1919;fill-opacity:1;fill-rule:evenodd;stroke:none"
         transform="matrix(0.13333333,0,0,-0.13333333,0,737.97333)" />
      <path
         id="path60"
         d="m 2362.55,2168.49 v 0.02 c 31.11,31.6 82.41,32.01 114.03,0.9 l 452.91,-445.55 c 31.61,-31.1 32.04,-82.42 0.93,-114.03 v -0.01 c -31.11,-31.62 -82.41,-32.03 -114.03,-0.92 l -452.91,445.56 c -31.61,31.11 -32.03,82.41 -0.93,114.03"
         style="fill:#e8e8e7;fill-opacity:1;fill-rule:evenodd;stroke:none"
         transform="matrix(0.13333333,0,0,-0.13333333,0,737.97333)" />
      <path
         id="path61"
         d="m 2689.34,1759.58 h 374.26 c 65.92,0 119.86,-53.93 119.86,-119.87 v 0 c 0,-65.91 -53.94,-119.86 -119.86,-119.86 h -374.26 c -65.93,0 -119.87,53.95 -119.87,119.86 v 0 c 0,65.94 53.94,119.87 119.87,119.87"
         style="fill:#758ed0;fill-opacity:1;fill-rule:evenodd;stroke:none"
         transform="matrix(0.13333333,0,0,-0.13333333,0,737.97333)" />
      <path
         id="path62"
         d="m 1014.38,2067.41 c -25.923,-30.98 -72.056,-35.07 -103.032,-9.16 -30.981,25.92 -35.078,72.05 -9.157,103.02 L 1939.58,3399.33 c 38.41,-7.42 81.02,-101.79 45.55,-170.03 L 1014.38,2067.41"
         style="fill:#536ebf;fill-opacity:1;fill-rule:evenodd;stroke:none"
         transform="matrix(0.13333333,0,0,-0.13333333,0,737.97333)" />
      <path
         id="path63"
         d="m 2546.55,4253.04 -106.51,-74.98 c -87.67,-61.73 -198.6,-80.35 -301.62,-50.61 -156.93,45.29 -325.79,20.36 -462.94,-68.35 -80.06,-51.8 -182.78,-52.93 -263.95,-2.87 -81.16,50.05 -126.31,142.33 -115.98,237.14 4.76,43.71 34.99,80.47 76.98,93.58 h 1120.22 c 31.76,0 60.32,-19.3 72.16,-48.77 11.84,-29.46 7.32,-67.06 -18.36,-85.14"
         style="fill:#536ebf;fill-opacity:1;fill-rule:evenodd;stroke:none"
         transform="matrix(0.13333333,0,0,-0.13333333,0,737.97333)" />
    </g>
  </g>
</svg>
