<?xml version="1.0" encoding="UTF-8" standalone="no"?>
<!-- Created with Inkscape (http://www.inkscape.org/) -->

<svg
   version="1.1"
   id="svg1"
   width="880"
   height="880"
   viewBox="0 0 880 880"
   sodipodi:docname="city-night-landscape.svg"
   inkscape:version="1.4 (e7c3feb100, 2024-10-09)"
   xmlns:inkscape="http://www.inkscape.org/namespaces/inkscape"
   xmlns:sodipodi="http://sodipodi.sourceforge.net/DTD/sodipodi-0.dtd"
   xmlns="http://www.w3.org/2000/svg"
   xmlns:svg="http://www.w3.org/2000/svg">
  <defs
     id="defs1" />
  <sodipodi:namedview
     id="namedview1"
     pagecolor="#505050"
     bordercolor="#ffffff"
     borderopacity="1"
     inkscape:showpageshadow="0"
     inkscape:pageopacity="0"
     inkscape:pagecheckerboard="1"
     inkscape:deskcolor="#d1d1d1"
     inkscape:zoom="0.92613636"
     inkscape:cx="440.53988"
     inkscape:cy="440"
     inkscape:window-width="1920"
     inkscape:window-height="1002"
     inkscape:window-x="0"
     inkscape:window-y="0"
     inkscape:window-maximized="1"
     inkscape:current-layer="g1">
    <inkscape:page
       x="0"
       y="0"
       inkscape:label="1"
       id="page1"
       width="880"
       height="880"
       margin="0"
       bleed="0" />
  </sodipodi:namedview>
  <g
     id="g1"
     inkscape:groupmode="layer"
     inkscape:label="1">
    <g
       id="group-R5">
      <path
         id="path2"
         d="M 0,0 H 6600 V 6600 H 0 V 0"
         style="fill:#2d2b2e;fill-opacity:1;fill-rule:evenodd;stroke:none"
         transform="matrix(0.13333333,0,0,-0.13333333,0,880)" />
      <path
         id="path3"
         d="M 504.355,3112.33 H 3175.42 v 24.26 H 504.355 v -24.26"
         style="fill:#626169;fill-opacity:1;fill-rule:evenodd;stroke:none"
         transform="matrix(0.13333333,0,0,-0.13333333,0,880)" />
      <path
         id="path4"
         d="M 0.0117188,2329.38 H 555.266 v 150.27 H 0.0117188 v -150.27"
         style="fill:#626169;fill-opacity:1;fill-rule:evenodd;stroke:none"
         transform="matrix(0.13333333,0,0,-0.13333333,0,880)" />
      <path
         id="path5"
         d="M 3053.35,3296.69 H 3552 v -278.21 h -498.65 v 278.21"
         style="fill:#1c1a1a;fill-opacity:1;fill-rule:evenodd;stroke:none"
         transform="matrix(0.13333333,0,0,-0.13333333,0,880)" />
      <path
         id="path6"
         d="M 1170.4,3451.99 H 2630.26 V 2979.63 H 1170.4 v 472.36"
         style="fill:#1c1a1a;fill-opacity:1;fill-rule:evenodd;stroke:none"
         transform="matrix(0.13333333,0,0,-0.13333333,0,880)" />
      <path
         id="path7"
         d="M 0.0117188,0 H 555.266 V 2329.38 H 0.0117188 V 0"
         style="fill:#46454b;fill-opacity:1;fill-rule:evenodd;stroke:none"
         transform="matrix(0.13333333,0,0,-0.13333333,0,880)" />
      <path
         id="path8"
         d="M 277.633,2117.47 H 595.758 V 1645.11 H 277.633 v 472.36"
         style="fill:#1c1a1a;fill-opacity:1;fill-rule:evenodd;stroke:none"
         transform="matrix(0.13333333,0,0,-0.13333333,0,880)" />
      <path
         id="path9"
         d="m 277.633,1370.11 c 106.043,0 212.094,0 318.125,0 0,-157.44 0,-314.91 0,-472.34 -106.031,0 -212.082,0 -318.125,0 0,157.43 0,314.9 0,472.34"
         style="fill:#fab40a;fill-opacity:1;fill-rule:evenodd;stroke:none"
         transform="matrix(0.13333333,0,0,-0.13333333,0,880)" />
      <path
         id="path10"
         d="M 277.633,622.77 H 595.758 V 150.41 H 277.633 v 472.36"
         style="fill:#1c1a1a;fill-opacity:1;fill-rule:evenodd;stroke:none"
         transform="matrix(0.13333333,0,0,-0.13333333,0,880)" />
      <path
         id="path11"
         d="m 4861.24,3666.59 c 721.09,0 1309.22,588.12 1309.22,1309.22 0,721.09 -588.13,1309.21 -1309.22,1309.21 -721.09,0 -1309.22,-588.12 -1309.22,-1309.21 0,-721.1 588.13,-1309.22 1309.22,-1309.22"
         style="fill:#46454b;fill-opacity:1;fill-rule:evenodd;stroke:none"
         transform="matrix(0.13333333,0,0,-0.13333333,0,880)" />
      <path
         id="path12"
         d="m 4861.24,5967.94 c 547.94,0 992.14,-444.2 992.14,-992.13 0,-547.94 -444.2,-992.14 -992.14,-992.14 -547.93,0 -992.13,444.2 -992.13,992.14 0,547.93 444.2,992.13 992.13,992.13"
         style="fill:#6b6b73;fill-opacity:1;fill-rule:evenodd;stroke:none"
         transform="matrix(0.13333333,0,0,-0.13333333,0,880)" />
      <path
         id="path13"
         d="m 4861.24,5650.84 c 372.82,0 675.03,-302.22 675.03,-675.03 0,-372.81 -302.21,-675.04 -675.03,-675.04 -372.81,0 -675.05,302.23 -675.05,675.04 0,372.81 302.24,675.03 675.05,675.03"
         style="fill:#93919a;fill-opacity:1;fill-rule:evenodd;stroke:none"
         transform="matrix(0.13333333,0,0,-0.13333333,0,880)" />
      <path
         id="path14"
         d="m 4861.24,4617.86 c 197.16,0 357.95,160.79 357.95,357.95 0,197.15 -160.79,357.95 -357.95,357.95 -197.17,0 -357.97,-160.8 -357.97,-357.95 0,-197.16 160.8,-357.95 357.97,-357.95"
         style="fill:#bcb8c2;fill-opacity:1;fill-rule:evenodd;stroke:none"
         transform="matrix(0.13333333,0,0,-0.13333333,0,880)" />
      <path
         id="path15"
         d="M 555.254,0 H 3296.3 V 2924.63 H 555.254 V 0"
         style="fill:#1c1a1a;fill-opacity:1;fill-rule:evenodd;stroke:none"
         transform="matrix(0.13333333,0,0,-0.13333333,0,880)" />
      <path
         id="path16"
         d="m 3296.3,0 h 825.13 V 2924.63 H 3296.3 V 0"
         style="fill:#46454b;fill-opacity:1;fill-rule:evenodd;stroke:none"
         transform="matrix(0.13333333,0,0,-0.13333333,0,880)" />
      <path
         id="path17"
         d="M 504.363,2924.63 H 3296.3 v 187.7 H 504.363 v -187.7"
         style="fill:#38353b;fill-opacity:1;fill-rule:evenodd;stroke:none"
         transform="matrix(0.13333333,0,0,-0.13333333,0,880)" />
      <path
         id="path18"
         d="m 3296.3,2924.63 h 896.72 v 187.7 H 3296.3 v -187.7"
         style="fill:#626169;fill-opacity:1;fill-rule:evenodd;stroke:none"
         transform="matrix(0.13333333,0,0,-0.13333333,0,880)" />
      <path
         id="path19"
         d="m 3680.23,622.77 h 182.79 V 150.41 h -182.79 v 472.36"
         style="fill:#1c1a1a;fill-opacity:1;fill-rule:evenodd;stroke:none"
         transform="matrix(0.13333333,0,0,-0.13333333,0,880)" />
      <path
         id="path20"
         d="m 3680.23,1328.59 c 60.92,0 121.88,0 182.79,0 0,-157.44 0,-314.89 0,-472.36 -60.91,0 -121.87,0 -182.79,0 0,157.47 0,314.92 0,472.36"
         style="fill:#fab40a;fill-opacity:1;fill-rule:evenodd;stroke:none"
         transform="matrix(0.13333333,0,0,-0.13333333,0,880)" />
      <path
         id="path21"
         d="m 3680.23,2740.26 h 182.79 v -472.35 h -182.79 v 472.35"
         style="fill:#fab40a;fill-opacity:1;fill-rule:evenodd;stroke:none"
         transform="matrix(0.13333333,0,0,-0.13333333,0,880)" />
      <path
         id="path22"
         d="m 3680.23,2034.43 c 60.92,0 121.88,0 182.79,0 0,-157.45 0,-314.9 0,-472.35 -60.91,0 -121.87,0 -182.79,0 0,157.45 0,314.9 0,472.35"
         style="fill:#1c1a1a;fill-opacity:1;fill-rule:evenodd;stroke:none"
         transform="matrix(0.13333333,0,0,-0.13333333,0,880)" />
      <path
         id="path23"
         d="m 1718.06,622.77 c 136.95,0 273.91,0 410.84,0 0,-157.469 0,-314.911 0,-472.36 -136.93,0 -273.89,0 -410.84,0 0,157.449 0,314.891 0,472.36"
         style="fill:#1c1a1a;fill-opacity:1;fill-rule:evenodd;stroke:none"
         transform="matrix(0.13333333,0,0,-0.13333333,0,880)" />
      <path
         id="path24"
         d="m 1718.06,1328.59 c 136.95,0 273.89,0 410.84,0 0,-157.44 0,-314.89 0,-472.36 -136.95,0 -273.89,0 -410.84,0 0,157.47 0,314.92 0,472.36"
         style="fill:#1c1a1a;fill-opacity:1;fill-rule:evenodd;stroke:none"
         transform="matrix(0.13333333,0,0,-0.13333333,0,880)" />
      <path
         id="path25"
         d="m 1718.06,2740.26 c 136.95,0 273.91,0 410.84,0 0,-157.44 0,-314.9 0,-472.35 -136.93,0 -273.89,0 -410.84,0 0,157.45 0,314.91 0,472.35"
         style="fill:#1c1a1a;fill-opacity:1;fill-rule:evenodd;stroke:none"
         transform="matrix(0.13333333,0,0,-0.13333333,0,880)" />
      <path
         id="path26"
         d="M 818.648,622.77 H 1229.51 V 150.41 H 818.648 v 472.36"
         style="fill:#1c1a1a;fill-opacity:1;fill-rule:evenodd;stroke:none"
         transform="matrix(0.13333333,0,0,-0.13333333,0,880)" />
      <path
         id="path27"
         d="m 818.648,1328.59 c 136.954,0 273.902,0 410.862,0 0,-157.44 0,-314.89 0,-472.36 -136.96,0 -273.908,0 -410.862,0 0,157.47 0,314.92 0,472.36"
         style="fill:#755e1e;fill-opacity:1;fill-rule:evenodd;stroke:none"
         transform="matrix(0.13333333,0,0,-0.13333333,0,880)" />
      <path
         id="path28"
         d="M 818.648,2740.26 H 1229.51 V 2267.91 H 818.648 v 472.35"
         style="fill:#1c1a1a;fill-opacity:1;fill-rule:evenodd;stroke:none"
         transform="matrix(0.13333333,0,0,-0.13333333,0,880)" />
      <path
         id="path29"
         d="m 818.648,2034.43 c 136.954,0 273.902,0 410.862,0 0,-157.45 0,-314.9 0,-472.35 -136.96,0 -273.908,0 -410.862,0 0,157.45 0,314.9 0,472.35"
         style="fill:#1c1a1a;fill-opacity:1;fill-rule:evenodd;stroke:none"
         transform="matrix(0.13333333,0,0,-0.13333333,0,880)" />
      <path
         id="path30"
         d="m 2617.48,622.77 h 410.85 V 150.41 h -410.85 v 472.36"
         style="fill:#755e1e;fill-opacity:1;fill-rule:evenodd;stroke:none"
         transform="matrix(0.13333333,0,0,-0.13333333,0,880)" />
      <path
         id="path31"
         d="m 2617.48,1328.59 c 136.95,0 273.9,0 410.85,0 0,-157.44 0,-314.89 0,-472.36 -136.95,0 -273.9,0 -410.85,0 0,157.47 0,314.92 0,472.36"
         style="fill:#1c1a1a;fill-opacity:1;fill-rule:evenodd;stroke:none"
         transform="matrix(0.13333333,0,0,-0.13333333,0,880)" />
      <path
         id="path32"
         d="m 2617.48,2740.26 h 410.85 v -472.35 h -410.85 v 472.35"
         style="fill:#1c1a1a;fill-opacity:1;fill-rule:evenodd;stroke:none"
         transform="matrix(0.13333333,0,0,-0.13333333,0,880)" />
      <path
         id="path33"
         d="m 2617.48,2034.43 c 136.95,0 273.9,0 410.85,0 0,-157.45 0,-314.9 0,-472.35 -136.95,0 -273.9,0 -410.85,0 0,157.45 0,314.9 0,472.35"
         style="fill:#1c1a1a;fill-opacity:1;fill-rule:evenodd;stroke:none"
         transform="matrix(0.13333333,0,0,-0.13333333,0,880)" />
      <path
         id="path34"
         d="m 1718.06,2034.43 c 136.95,0 273.89,0 410.84,0 0,-157.45 0,-314.9 0,-472.35 -136.95,0 -273.89,0 -410.84,0 0,157.45 0,314.9 0,472.35"
         style="fill:#755e1e;fill-opacity:1;fill-rule:evenodd;stroke:none"
         transform="matrix(0.13333333,0,0,-0.13333333,0,880)" />
      <path
         id="path35"
         d="m 542.598,0 h 26.59 v 2924.63 h -26.59 V 0"
         style="fill:#956a1e;fill-opacity:1;fill-rule:evenodd;stroke:none"
         transform="matrix(0.13333333,0,0,-0.13333333,0,880)" />
      <path
         id="path36"
         d="m 3296.3,2924.63 h 896.72 v 17.8 H 3296.3 v -17.8"
         style="fill:#956a1e;fill-opacity:1;fill-rule:evenodd;stroke:none"
         transform="matrix(0.13333333,0,0,-0.13333333,0,880)" />
      <path
         id="path37"
         d="m 2822.91,3451.99 h -192.65 v -339.66 h 192.65 v 339.66"
         style="fill:#38353b;fill-opacity:1;fill-rule:evenodd;stroke:none"
         transform="matrix(0.13333333,0,0,-0.13333333,0,880)" />
      <path
         id="path38"
         d="M 3744.65,3296.69 H 3552 v -184.36 h 192.65 v 184.36"
         style="fill:#38353b;fill-opacity:1;fill-rule:evenodd;stroke:none"
         transform="matrix(0.13333333,0,0,-0.13333333,0,880)" />
      <path
         id="path39"
         d="M 4389.38,0 H 6600 V 1878.03 H 4389.38 V 0"
         style="fill:#1c1a1a;fill-opacity:1;fill-rule:evenodd;stroke:none"
         transform="matrix(0.13333333,0,0,-0.13333333,0,880)" />
      <path
         id="path40"
         d="m 4606.46,1221.26 h 663.24 v 430.27 h -663.24 v -430.27"
         style="fill:#755e1e;fill-opacity:1;fill-rule:evenodd;stroke:none"
         transform="matrix(0.13333333,0,0,-0.13333333,0,880)" />
      <path
         id="path41"
         d="m 5454.1,723.879 h 663.24 V 1154.15 H 5454.1 V 723.879"
         style="fill:#755e1e;fill-opacity:1;fill-rule:evenodd;stroke:none"
         transform="matrix(0.13333333,0,0,-0.13333333,0,880)" />
      <path
         id="path42"
         d="m 5454.1,150.41 h 663.24 V 580.68 H 5454.1 V 150.41"
         style="fill:#755e1e;fill-opacity:1;fill-rule:evenodd;stroke:none"
         transform="matrix(0.13333333,0,0,-0.13333333,0,880)" />
      <path
         id="path43"
         d="m 5056.16,1695.21 h 22.65 v -517.63 h -22.65 z m -258.83,0 H 4820 v -517.63 h -22.67 v 517.63 0"
         style="fill:#1c1a1a;fill-opacity:1;fill-rule:evenodd;stroke:none"
         transform="matrix(0.13333333,0,0,-0.13333333,0,880)" />
      <path
         id="path44"
         d="m 5903.83,1197.83 h 22.63 V 680.191 h -22.63 z m -258.83,0 h 22.65 V 680.191 H 5645 v 517.639 0"
         style="fill:#1c1a1a;fill-opacity:1;fill-rule:evenodd;stroke:none"
         transform="matrix(0.13333333,0,0,-0.13333333,0,880)" />
      <path
         id="path45"
         d="m 5903.83,624.371 h 22.63 V 106.73 h -22.63 z m -258.83,0 h 22.65 V 106.73 H 5645 v 517.641 0"
         style="fill:#1c1a1a;fill-opacity:1;fill-rule:evenodd;stroke:none"
         transform="matrix(0.13333333,0,0,-0.13333333,0,880)" />
      <path
         id="path46"
         d="m 4389.38,0 h 22.12 v 1878.03 h -22.12 V 0"
         style="fill:#956a1e;fill-opacity:1;fill-rule:evenodd;stroke:none"
         transform="matrix(0.13333333,0,0,-0.13333333,0,880)" />
      <path
         id="path47"
         d="M 4331.46,1845.65 H 6600 v 148.82 H 4331.46 v -148.82"
         style="fill:#38353b;fill-opacity:1;fill-rule:evenodd;stroke:none"
         transform="matrix(0.13333333,0,0,-0.13333333,0,880)" />
      <path
         id="path48"
         d="M 4331.46,1994.47 H 6600 v 24.27 H 4331.46 v -24.27"
         style="fill:#626169;fill-opacity:1;fill-rule:evenodd;stroke:none"
         transform="matrix(0.13333333,0,0,-0.13333333,0,880)" />
      <path
         id="path49"
         d="m 4354.15,1994.47 v -148.82 h -22.69 v 173.09 h 22.69 v -24.27"
         style="fill:#956a1e;fill-opacity:1;fill-rule:evenodd;stroke:none"
         transform="matrix(0.13333333,0,0,-0.13333333,0,880)" />
      <path
         id="path50"
         d="m 1609.02,5785.39 14.15,-343.8 343.79,-14.14 -343.79,-14.15 -14.15,-343.81 -14.16,343.81 -343.79,14.15 343.79,14.14 14.16,343.8"
         style="fill:#9c9aa2;fill-opacity:1;fill-rule:evenodd;stroke:none"
         transform="matrix(0.13333333,0,0,-0.13333333,0,880)" />
      <path
         id="path51"
         d="m 812.457,4167.89 14.145,-343.8 343.798,-14.16 -343.798,-14.15 -14.145,-343.79 -14.156,343.79 -343.805,14.15 343.805,14.16 14.156,343.8"
         style="fill:#9c9aa2;fill-opacity:1;fill-rule:evenodd;stroke:none"
         transform="matrix(0.13333333,0,0,-0.13333333,0,880)" />
      <path
         id="path52"
         d="m 5436.77,3337.58 14.16,-343.8 343.79,-14.15 -343.79,-14.16 -14.16,-343.79 -14.15,343.79 -343.81,14.16 343.81,14.15 14.15,343.8"
         style="fill:#9c9aa2;fill-opacity:1;fill-rule:evenodd;stroke:none"
         transform="matrix(0.13333333,0,0,-0.13333333,0,880)" />
      <path
         id="path53"
         d="m 2938.35,4711.01 7.31,-177.85 177.84,-7.32 -177.84,-7.32 -7.31,-177.84 -7.33,177.84 -177.86,7.32 177.86,7.32 7.33,177.85"
         style="fill:#9c9aa2;fill-opacity:1;fill-rule:evenodd;stroke:none"
         transform="matrix(0.13333333,0,0,-0.13333333,0,880)" />
      <path
         id="path54"
         d="m 4797.33,2699.72 7.34,-177.84 177.85,-7.33 -177.85,-7.31 -7.34,-177.86 -7.3,177.86 -177.86,7.31 177.86,7.33 7.3,177.84"
         style="fill:#9c9aa2;fill-opacity:1;fill-rule:evenodd;stroke:none"
         transform="matrix(0.13333333,0,0,-0.13333333,0,880)" />
      <path
         id="path55"
         d="m 3481.46,6153.11 7.31,-177.84 177.86,-7.33 -177.86,-7.32 -7.31,-177.85 -7.33,177.85 -177.83,7.32 177.83,7.33 7.33,177.84"
         style="fill:#9c9aa2;fill-opacity:1;fill-rule:evenodd;stroke:none"
         transform="matrix(0.13333333,0,0,-0.13333333,0,880)" />
      <path
         id="path56"
         d="m 639.664,5065.58 7.316,-177.85 177.848,-7.32 -177.848,-7.33 -7.316,-177.84 -7.32,177.84 -177.848,7.33 177.848,7.32 7.32,177.85"
         style="fill:#9c9aa2;fill-opacity:1;fill-rule:evenodd;stroke:none"
         transform="matrix(0.13333333,0,0,-0.13333333,0,880)" />
      <path
         id="path57"
         d="m 892.031,6470.2 7.321,-177.84 177.848,-7.34 -177.848,-7.31 -7.321,-177.85 -7.328,177.85 -177.84,7.31 177.84,7.34 7.328,177.84"
         style="fill:#9c9aa2;fill-opacity:1;fill-rule:evenodd;stroke:none"
         transform="matrix(0.13333333,0,0,-0.13333333,0,880)" />
      <path
         id="path58"
         d="m 6170.46,2589.69 7.31,-177.84 177.86,-7.33 -177.86,-7.32 -7.31,-177.84 -7.33,177.84 -177.84,7.32 177.84,7.33 7.33,177.84"
         style="fill:#9c9aa2;fill-opacity:1;fill-rule:evenodd;stroke:none"
         transform="matrix(0.13333333,0,0,-0.13333333,0,880)" />
      <path
         id="path59"
         d="m 6241.5,6338.27 7.34,-177.84 177.83,-7.32 -177.83,-7.32 -7.34,-177.85 -7.3,177.85 -177.86,7.32 177.86,7.32 7.3,177.84"
         style="fill:#9c9aa2;fill-opacity:1;fill-rule:evenodd;stroke:none"
         transform="matrix(0.13333333,0,0,-0.13333333,0,880)" />
      <path
         id="path60"
         d="m 2335.23,203.41 c 0,6.551 -0.93,12.199 -2.89,16.84 -1.87,4.711 -4.53,8.309 -7.95,10.871 -3.39,2.488 -7.12,3.758 -11.27,3.758 -6.55,0 -12.07,-2.75 -16.58,-8.09 -4.51,-5.437 -6.75,-13.328 -6.75,-23.82 0,-9.867 2.24,-17.539 6.69,-22.969 4.49,-5.488 10.04,-8.27 16.64,-8.27 3.95,0 7.61,1.2 10.99,3.629 3.33,2.379 6.05,5.961 8.08,10.711 2.05,4.821 3.04,10.578 3.04,17.34 z m -46.55,36.102 v -2.981 c 4.46,5.739 9.09,10 13.9,12.66 4.82,2.7 10.31,4.071 16.4,4.071 7.29,0 14.03,-1.992 20.18,-5.934 6.13,-3.918 10.99,-9.637 14.57,-17.226 3.56,-7.59 5.33,-16.532 5.33,-26.891 0,-7.609 -0.99,-14.68 -3.06,-20.992 -2.05,-6.41 -4.89,-11.789 -8.49,-16.117 -3.6,-4.321 -7.86,-7.672 -12.74,-9.973 -4.93,-2.359 -10.2,-3.508 -15.79,-3.508 -6.82,0 -12.52,1.399 -17.13,4.25 -4.64,2.848 -9.01,7 -13.17,12.52 v -37.18 c 0,-10.93 -3.81,-16.352 -11.39,-16.352 -4.48,0 -7.45,1.383 -8.86,4.192 -1.46,2.82 -2.18,6.918 -2.18,12.308 v 107 c 0,4.711 0.96,8.262 2.95,10.571 1.99,2.32 4.68,3.519 8.09,3.519 3.35,0 6.11,-1.199 8.22,-3.621 2.11,-2.418 3.17,-5.859 3.17,-10.316"
         style="fill:#ffffff;fill-opacity:1;fill-rule:nonzero;stroke:none"
         transform="matrix(0.13333333,0,0,-0.13333333,0,880)" />
      <path
         id="path61"
         d="m 2439.86,166.629 v 3.141 c -2.87,-3.75 -5.84,-6.879 -8.99,-9.399 -3.14,-2.601 -6.55,-4.469 -10.24,-5.699 -3.74,-1.223 -7.97,-1.852 -12.72,-1.852 -5.73,0 -10.88,1.25 -15.43,3.7 -4.57,2.48 -8.09,5.91 -10.57,10.261 -2.98,5.278 -4.45,12.848 -4.45,22.668 v 49.141 c 0,4.93 1.08,8.66 3.23,11.09 2.14,2.449 4.97,3.699 8.51,3.699 3.61,0 6.5,-1.25 8.71,-3.75 2.2,-2.477 3.3,-6.18 3.3,-11.039 v -39.699 c 0,-5.731 0.47,-10.551 1.35,-14.43 0.98,-3.93 2.63,-6.992 5.08,-9.223 2.36,-2.187 5.62,-3.277 9.73,-3.277 4.05,0 7.83,1.25 11.32,3.719 3.58,2.461 6.15,5.699 7.77,9.679 1.35,3.543 2,11.2 2,23.082 v 30.149 c 0,4.859 1.09,8.562 3.31,11.039 2.19,2.5 5.05,3.75 8.58,3.75 3.56,0 6.39,-1.25 8.53,-3.699 2.14,-2.43 3.19,-6.16 3.19,-11.09 v -71.809 c 0,-4.722 -1,-8.269 -3.08,-10.609 -2.02,-2.383 -4.67,-3.531 -7.94,-3.531 -3.23,0 -5.9,1.25 -8.02,3.648 -2.11,2.481 -3.17,5.883 -3.17,10.34"
         style="fill:#ffffff;fill-opacity:1;fill-rule:nonzero;stroke:none"
         transform="matrix(0.13333333,0,0,-0.13333333,0,880)" />
      <path
         id="path62"
         d="m 2508.75,202.422 c 0,-9.863 2.15,-17.41 6.45,-22.731 4.33,-5.281 10,-7.961 17.03,-7.961 5.99,0 11.11,2.731 15.47,8.141 4.33,5.418 6.47,13.149 6.47,23.258 0,6.613 -0.9,12.223 -2.69,16.922 -1.81,4.738 -4.39,8.39 -7.65,10.949 -3.36,2.559 -7.18,3.879 -11.6,3.879 -4.55,0 -8.54,-1.32 -12.09,-3.879 -3.56,-2.559 -6.32,-6.301 -8.36,-11.18 -2.03,-4.828 -3.03,-10.621 -3.03,-17.398 z m -1.13,73.68 v -37.883 c 4.41,4.89 8.99,8.562 13.63,11.179 4.64,2.563 10.4,3.864 17.25,3.864 7.87,0 14.77,-1.992 20.74,-5.852 5.93,-3.961 10.56,-9.59 13.83,-16.988 3.3,-7.422 4.92,-16.203 4.92,-26.383 0,-7.527 -0.91,-14.398 -2.72,-20.687 -1.84,-6.25 -4.48,-11.661 -7.96,-16.301 -3.5,-4.582 -7.72,-8.09 -12.67,-10.692 -4.97,-2.468 -10.44,-3.738 -16.4,-3.738 -3.65,0 -7.09,0.461 -10.33,1.359 -3.23,0.899 -5.98,2.079 -8.2,3.61 -2.29,1.41 -4.21,2.992 -5.8,4.531 -1.61,1.598 -3.69,3.93 -6.29,7.09 v -2.43 c 0,-4.679 -1.1,-8.203 -3.25,-10.609 -2.13,-2.383 -4.88,-3.551 -8.16,-3.551 -3.38,0 -6.03,1.168 -8.07,3.551 -1.99,2.457 -2.98,5.949 -2.98,10.609 V 275.02 c 0,4.992 0.97,8.789 2.93,11.359 1.93,2.59 4.62,3.859 8.12,3.859 3.62,0 6.47,-1.226 8.42,-3.699 1.99,-2.43 2.99,-5.898 2.99,-10.437"
         style="fill:#ffffff;fill-opacity:1;fill-rule:nonzero;stroke:none"
         transform="matrix(0.13333333,0,0,-0.13333333,0,880)" />
      <path
         id="path63"
         d="M 2594.75,167.711 V 275.18 c 0,4.98 1.05,8.711 3.16,11.269 2.13,2.52 4.98,3.789 8.57,3.789 3.6,0 6.49,-1.25 8.72,-3.769 2.16,-2.5 3.29,-6.289 3.29,-11.289 V 167.711 c 0,-5.031 -1.15,-8.82 -3.35,-11.352 -2.23,-2.468 -5.12,-3.738 -8.66,-3.738 -3.47,0 -6.27,1.301 -8.46,3.899 -2.19,2.621 -3.27,6.32 -3.27,11.191"
         style="fill:#ffffff;fill-opacity:1;fill-rule:nonzero;stroke:none"
         transform="matrix(0.13333333,0,0,-0.13333333,0,880)" />
      <path
         id="path64"
         d="m 2666.76,239.289 v -71.578 c 0,-5 -1.15,-8.75 -3.37,-11.289 -2.28,-2.5 -5.17,-3.801 -8.62,-3.801 -3.49,0 -6.31,1.301 -8.48,3.879 -2.17,2.641 -3.27,6.34 -3.27,11.211 v 70.879 c 0,4.859 1.1,8.562 3.27,11.039 2.17,2.5 4.99,3.75 8.48,3.75 3.45,0 6.34,-1.25 8.62,-3.75 2.22,-2.477 3.37,-5.918 3.37,-10.34 z M 2655,264.922 c -3.28,0 -6.1,1.047 -8.5,3.219 -2.28,2.097 -3.48,5.14 -3.48,9.011 0,3.489 1.2,6.36 3.61,8.668 2.38,2.282 5.19,3.352 8.37,3.352 3.09,0 5.82,-1.012 8.2,-3.051 2.36,-2.051 3.56,-5.082 3.56,-8.969 0,-3.843 -1.17,-6.812 -3.48,-8.941 -2.32,-2.16 -5.07,-3.289 -8.28,-3.289"
         style="fill:#ffffff;fill-opacity:1;fill-rule:nonzero;stroke:none"
         transform="matrix(0.13333333,0,0,-0.13333333,0,880)" />
      <path
         id="path65"
         d="m 2776.36,183.301 c 0,-3.082 -0.87,-6.391 -2.63,-9.879 -1.81,-3.524 -4.49,-6.852 -8.12,-10.02 -3.62,-3.183 -8.19,-5.742 -13.69,-7.664 -5.49,-1.968 -11.72,-2.918 -18.6,-2.918 -14.69,0 -26.13,4.469 -34.37,13.379 -8.24,8.942 -12.35,20.871 -12.35,35.891 0,10.16 1.88,19.18 5.63,26.961 3.77,7.781 9.25,13.847 16.36,18.101 7.11,4.289 15.66,6.407 25.55,6.407 6.17,0 11.83,-0.95 16.95,-2.797 5.14,-1.891 9.49,-4.321 13.03,-7.262 3.58,-2.969 6.29,-6.141 8.2,-9.5 1.92,-3.352 2.82,-6.48 2.82,-9.391 0,-2.929 -1.08,-5.429 -3.17,-7.519 -2.13,-2.059 -4.67,-3.102 -7.69,-3.102 -1.99,0 -3.63,0.582 -4.94,1.633 -1.27,1.027 -2.77,2.699 -4.38,5.098 -2.91,4.582 -5.94,8.062 -9.1,10.402 -3.16,2.289 -7.19,3.469 -12.01,3.469 -7.05,0 -12.72,-2.899 -17,-8.61 -4.29,-5.769 -6.42,-13.57 -6.42,-23.5 0,-4.648 0.56,-8.968 1.65,-12.859 1.1,-3.922 2.71,-7.223 4.77,-9.992 2.1,-2.758 4.6,-4.84 7.58,-6.25 2.95,-1.449 6.2,-2.16 9.71,-2.16 4.8,0 8.85,1.133 12.24,3.453 3.41,2.316 6.41,5.828 8.99,10.508 1.49,2.84 3.04,5 4.73,6.601 1.69,1.571 3.75,2.309 6.17,2.309 2.9,0 5.31,-1.11 7.24,-3.41 1.87,-2.34 2.85,-4.77 2.85,-7.379"
         style="fill:#ffffff;fill-opacity:1;fill-rule:nonzero;stroke:none"
         transform="matrix(0.13333333,0,0,-0.13333333,0,880)" />
      <path
         id="path66"
         d="m 2815.48,203.129 c 0,-6.699 0.99,-12.399 3,-17.137 2,-4.73 4.7,-8.254 8.17,-10.633 3.52,-2.429 7.31,-3.629 11.39,-3.629 4.2,0 8,1.161 11.44,3.411 3.46,2.281 6.19,5.769 8.28,10.461 2.05,4.668 3.07,10.539 3.07,17.527 0,6.652 -1.02,12.293 -3.07,17.062 -2.09,4.77 -4.84,8.368 -8.36,10.93 -3.5,2.488 -7.34,3.758 -11.5,3.758 -4.34,0 -8.21,-1.32 -11.66,-3.879 -3.39,-2.559 -6.06,-6.27 -7.94,-11.09 -1.87,-4.828 -2.82,-10.359 -2.82,-16.781 z m 46.66,-36.348 v 2.43 c -3.18,-3.82 -6.33,-6.91 -9.45,-9.281 -3.07,-2.41 -6.45,-4.219 -10.07,-5.469 -3.61,-1.199 -7.59,-1.84 -11.87,-1.84 -5.66,0 -10.96,1.27 -15.78,3.738 -4.82,2.602 -9.02,6.133 -12.55,10.793 -3.53,4.649 -6.21,10.137 -8.06,16.45 -1.84,6.269 -2.74,13.078 -2.74,20.437 0,15.461 3.63,27.59 10.87,36.242 7.27,8.66 16.8,12.981 28.61,12.981 6.85,0 12.63,-1.25 17.31,-3.75 4.69,-2.403 9.28,-6.18 13.73,-11.293 v 36.59 c 0,5.089 0.98,8.933 2.93,11.531 1.93,2.609 4.68,3.898 8.28,3.898 3.59,0 6.35,-1.199 8.32,-3.558 1.94,-2.379 2.94,-5.93 2.94,-10.578 V 166.781 c 0,-4.722 -1.07,-8.269 -3.15,-10.609 -2.09,-2.383 -4.79,-3.551 -8.11,-3.551 -3.2,0 -5.92,1.219 -8.05,3.668 -2.11,2.43 -3.16,5.91 -3.16,10.492"
         style="fill:#ffffff;fill-opacity:1;fill-rule:nonzero;stroke:none"
         transform="matrix(0.13333333,0,0,-0.13333333,0,880)" />
      <path
         id="path67"
         d="m 2973.5,202.949 c 0,10.071 -2.15,17.961 -6.42,23.582 -4.26,5.598 -10,8.449 -17.17,8.449 -4.67,0 -8.73,-1.281 -12.28,-3.781 -3.52,-2.539 -6.25,-6.238 -8.16,-11.148 -1.92,-4.852 -2.88,-10.551 -2.88,-17.102 0,-6.488 0.96,-12.129 2.83,-16.957 1.89,-4.844 4.58,-8.551 8.11,-11.14 3.48,-2.551 7.66,-3.813 12.38,-3.813 7.17,0 12.91,2.801 17.17,8.461 4.27,5.629 6.42,13.48 6.42,23.449 z m 23.81,0 c 0,-7.347 -1.1,-14.16 -3.3,-20.437 -2.2,-6.172 -5.38,-11.551 -9.55,-16.043 -4.19,-4.489 -9.18,-7.84 -14.98,-10.297 -5.8,-2.383 -12.36,-3.551 -19.57,-3.551 -7.19,0 -13.64,1.168 -19.39,3.629 -5.74,2.398 -10.72,5.871 -14.93,10.379 -4.19,4.519 -7.38,9.82 -9.58,15.953 -2.17,6.188 -3.24,12.938 -3.24,20.41 0,7.5 1.11,14.348 3.29,20.567 2.22,6.25 5.37,11.562 9.48,16.011 4.13,4.399 9.1,7.809 14.98,10.2 5.88,2.382 12.31,3.609 19.39,3.609 7.2,0 13.73,-1.227 19.57,-3.649 5.84,-2.421 10.86,-5.89 15.04,-10.371 4.18,-4.48 7.36,-9.82 9.5,-16 2.23,-6.148 3.29,-12.98 3.29,-20.41"
         style="fill:#ffffff;fill-opacity:1;fill-rule:nonzero;stroke:none"
         transform="matrix(0.13333333,0,0,-0.13333333,0,880)" />
      <path
         id="path68"
         d="m 3097.61,223.41 c -1.78,-4.191 -2.64,-11.57 -2.64,-22.219 v -32.929 c 0,-5.18 -1.11,-9.121 -3.4,-11.742 -2.24,-2.598 -5.25,-3.899 -8.96,-3.899 -3.58,0 -6.48,1.301 -8.69,3.899 -2.24,2.621 -3.34,6.562 -3.34,11.742 v 39.519 c 0,6.207 -0.24,11.051 -0.65,14.539 -0.41,3.418 -1.5,6.27 -3.29,8.489 -1.77,2.222 -4.64,3.332 -8.51,3.332 -7.75,0 -12.85,-2.789 -15.35,-8.403 -2.47,-5.547 -3.67,-13.547 -3.67,-23.968 v -33.508 c 0,-5.16 -1.13,-9.082 -3.34,-11.66 -2.24,-2.68 -5.19,-3.981 -8.81,-3.981 -3.61,0 -6.59,1.301 -8.85,3.981 -2.31,2.578 -3.41,6.5 -3.41,11.628 v 70.942 c 0,4.668 0.98,8.207 3.02,10.617 2.09,2.41 4.79,3.66 8.17,3.66 3.24,0 5.96,-1.14 8.12,-3.398 2.18,-2.281 3.27,-5.399 3.27,-9.41 v -2.352 c 4.1,5.16 8.52,8.941 13.2,11.34 4.69,2.41 9.96,3.633 15.66,3.633 5.97,0 11.06,-1.25 15.36,-3.75 4.31,-2.453 7.83,-6.223 10.6,-11.223 4,5.043 8.3,8.863 12.89,11.293 4.59,2.457 9.65,3.68 15.21,3.68 6.54,0 12.1,-1.301 16.79,-4 4.71,-2.672 8.21,-6.461 10.53,-11.442 2.05,-4.48 3.05,-11.519 3.05,-21.172 v -48.386 c 0,-5.18 -1.14,-9.121 -3.36,-11.742 -2.31,-2.598 -5.28,-3.899 -8.99,-3.899 -3.59,0 -6.54,1.301 -8.81,3.981 -2.32,2.578 -3.47,6.5 -3.47,11.66 v 41.699 c 0,5.32 -0.22,9.578 -0.65,12.789 -0.43,3.262 -1.6,5.91 -3.53,8.09 -1.9,2.191 -4.84,3.301 -8.68,3.301 -3.13,0 -6.12,-0.993 -8.89,-2.879 -2.87,-1.973 -5,-4.571 -6.58,-7.852 v 0"
         style="fill:#ffffff;fill-opacity:1;fill-rule:nonzero;stroke:none"
         transform="matrix(0.13333333,0,0,-0.13333333,0,880)" />
      <path
         id="path69"
         d="m 3232.09,202.48 c -3.5,-1.359 -8.55,-2.738 -15.2,-4.25 -6.64,-1.48 -11.25,-2.55 -13.8,-3.269 -2.56,-0.711 -4.98,-2.051 -7.29,-4.07 -2.34,-2.082 -3.5,-4.899 -3.5,-8.539 0,-3.782 1.37,-6.961 4.09,-9.582 2.73,-2.661 6.31,-3.961 10.72,-3.961 4.69,0 9.04,1.089 13.01,3.25 3.96,2.121 6.89,4.929 8.73,8.3 2.15,3.75 3.24,9.911 3.24,18.59 z m 1.54,-35.91 c -5.76,-4.66 -11.31,-8.14 -16.66,-10.441 -5.35,-2.359 -11.38,-3.508 -18.02,-3.508 -6.14,0 -11.45,1.27 -16.08,3.738 -4.63,2.532 -8.16,5.942 -10.66,10.27 -2.48,4.293 -3.75,8.922 -3.75,13.961 0,6.781 2.11,12.539 6.21,17.34 4.08,4.742 9.74,7.961 16.91,9.609 1.53,0.359 5.28,1.152 11.23,2.422 6.02,1.301 11.1,2.449 15.41,3.5 4.24,1.039 8.89,2.328 13.87,3.828 -0.31,6.582 -1.56,11.371 -3.79,14.481 -2.25,3.019 -6.89,4.531 -13.89,4.531 -6.05,0 -10.56,-0.852 -13.65,-2.621 -3.03,-1.731 -5.64,-4.391 -7.79,-7.942 -2.21,-3.488 -3.71,-5.808 -4.61,-6.929 -0.92,-1.129 -2.85,-1.637 -5.78,-1.637 -2.7,0 -4.98,0.867 -6.9,2.629 -1.97,1.801 -2.95,4.07 -2.95,6.89 0,4.348 1.49,8.61 4.44,12.668 2.97,4.141 7.58,7.512 13.83,10.223 6.27,2.668 14.08,3.977 23.41,3.977 10.43,0 18.64,-1.309 24.65,-3.879 5.96,-2.528 10.14,-6.571 12.62,-12.2 2.48,-5.531 3.71,-12.941 3.71,-22.128 0,-5.801 0,-10.782 -0.04,-14.801 -0.06,-4.09 -0.08,-8.602 -0.14,-13.551 0,-4.648 0.75,-9.531 2.23,-14.551 1.45,-5.051 2.19,-8.32 2.19,-9.738 0,-2.551 -1.17,-4.891 -3.44,-6.973 -2.24,-2.066 -4.86,-3.117 -7.75,-3.117 -2.46,0 -4.83,1.168 -7.25,3.551 -2.36,2.406 -4.88,5.887 -7.56,10.398"
         style="fill:#ffffff;fill-opacity:1;fill-rule:nonzero;stroke:none"
         transform="matrix(0.13333333,0,0,-0.13333333,0,880)" />
      <path
         id="path70"
         d="m 3303.26,239.289 v -71.578 c 0,-5 -1.15,-8.75 -3.38,-11.289 -2.26,-2.5 -5.11,-3.801 -8.59,-3.801 -3.48,0 -6.35,1.301 -8.5,3.879 -2.18,2.641 -3.28,6.34 -3.28,11.211 v 70.879 c 0,4.859 1.1,8.562 3.28,11.039 2.15,2.5 5.02,3.75 8.5,3.75 3.48,0 6.33,-1.25 8.59,-3.75 2.23,-2.477 3.38,-5.918 3.38,-10.34 z m -11.74,25.633 c -3.28,0 -6.09,1.047 -8.45,3.219 -2.35,2.097 -3.56,5.14 -3.56,9.011 0,3.489 1.23,6.36 3.65,8.668 2.39,2.282 5.2,3.352 8.36,3.352 3.07,0 5.82,-1.012 8.21,-3.051 2.34,-2.051 3.53,-5.082 3.53,-8.969 0,-3.843 -1.15,-6.812 -3.47,-8.941 -2.33,-2.16 -5.08,-3.289 -8.27,-3.289"
         style="fill:#ffffff;fill-opacity:1;fill-rule:nonzero;stroke:none"
         transform="matrix(0.13333333,0,0,-0.13333333,0,880)" />
      <path
         id="path71"
         d="m 3349.39,239.652 v -2.961 c 4.15,5.719 8.72,9.95 13.64,12.641 4.98,2.68 10.66,4.047 17.15,4.047 6.23,0 11.83,-1.418 16.79,-4.309 4.89,-2.82 8.6,-6.8 11.02,-12.011 1.56,-3.059 2.56,-6.348 3.05,-9.829 0.42,-3.5 0.7,-7.968 0.7,-13.429 v -46.09 c 0,-5 -1.13,-8.75 -3.28,-11.289 -2.17,-2.5 -5.02,-3.801 -8.48,-3.801 -3.52,0 -6.41,1.301 -8.53,3.899 -2.23,2.621 -3.36,6.32 -3.36,11.191 v 41.25 c 0,8.219 -1.06,14.449 -3.23,18.769 -2.22,4.329 -6.56,6.512 -13.06,6.512 -4.22,0 -8.07,-1.32 -11.55,-3.98 -3.47,-2.59 -6.03,-6.231 -7.63,-10.84 -1.17,-3.684 -1.78,-10.563 -1.78,-20.731 v -30.98 c 0,-5.031 -1.09,-8.82 -3.34,-11.352 -2.25,-2.468 -5.12,-3.738 -8.65,-3.738 -3.4,0 -6.23,1.301 -8.42,3.879 -2.25,2.641 -3.32,6.34 -3.32,11.211 v 71.578 c 0,4.731 0.98,8.231 2.97,10.57 1.93,2.34 4.69,3.52 8.08,3.52 2.07,0 3.99,-0.559 5.63,-1.559 1.74,-1.011 3.05,-2.601 4.06,-4.59 0.98,-2.109 1.54,-4.609 1.54,-7.578"
         style="fill:#ffffff;fill-opacity:1;fill-rule:nonzero;stroke:none"
         transform="matrix(0.13333333,0,0,-0.13333333,0,880)" />
      <path
         id="path72"
         d="m 3449.84,237.941 19.18,-56.261 20.71,58.718 c 1.66,4.723 3.24,8.032 4.82,10.024 1.6,1.937 3.93,2.957 7.11,2.957 3.03,0 5.59,-1.07 7.75,-3.219 2.07,-2.097 3.15,-4.519 3.15,-7.359 0,-1.082 -0.22,-2.332 -0.59,-3.742 -0.35,-1.489 -0.78,-2.86 -1.29,-4.149 -0.5,-1.23 -1.01,-2.711 -1.7,-4.32 l -22.79,-59 c -0.64,-1.692 -1.48,-3.871 -2.48,-6.469 -1.03,-2.582 -2.17,-4.781 -3.4,-6.691 -1.27,-1.821 -2.79,-3.219 -4.59,-4.258 -1.85,-1.031 -4.08,-1.551 -6.7,-1.551 -3.36,0 -6.03,0.789 -8.04,2.379 -2.02,1.609 -3.5,3.352 -4.44,5.289 -0.93,1.883 -2.58,5.66 -4.82,11.301 l -22.64,58.351 c -0.53,1.45 -1.07,2.911 -1.64,4.348 -0.53,1.449 -0.96,2.91 -1.37,4.441 -0.35,1.551 -0.56,2.84 -0.56,3.891 0,1.731 0.49,3.399 1.5,5.07 0.98,1.668 2.37,3.047 4.08,4.09 1.76,1.039 3.62,1.598 5.67,1.598 3.92,0 6.64,-1.18 8.12,-3.59 1.49,-2.34 3.15,-6.289 4.96,-11.848"
         style="fill:#ffffff;fill-opacity:1;fill-rule:nonzero;stroke:none"
         transform="matrix(0.13333333,0,0,-0.13333333,0,880)" />
      <path
         id="path73"
         d="m 3546.97,211.031 h 43.05 c -0.57,8.438 -2.73,14.789 -6.56,18.969 -3.81,4.191 -8.81,6.301 -15.02,6.301 -5.88,0 -10.76,-2.129 -14.53,-6.391 -3.81,-4.238 -6.08,-10.551 -6.94,-18.879 z m 46.47,-14.101 h -46.47 c 0.02,-5.66 1.16,-10.59 3.23,-14.93 2.16,-4.262 4.96,-7.488 8.45,-9.699 3.52,-2.192 7.4,-3.25 11.64,-3.25 2.84,0 5.45,0.34 7.78,1.008 2.34,0.742 4.63,1.812 6.85,3.293 2.17,1.476 4.18,3.039 6.06,4.789 1.83,1.668 4.31,3.949 7.2,6.871 1.25,1.136 2.99,1.648 5.24,1.648 2.46,0 4.41,-0.668 5.92,-2.09 1.52,-1.41 2.24,-3.351 2.24,-5.879 0,-2.242 -0.82,-4.871 -2.52,-7.89 -1.68,-2.961 -4.16,-5.852 -7.61,-8.629 -3.4,-2.742 -7.66,-4.992 -12.8,-6.852 -5.1,-1.8 -10.97,-2.699 -17.69,-2.699 -15.24,0 -27.11,4.559 -35.55,13.598 -8.44,9.121 -12.68,21.41 -12.68,36.91 0,7.422 1.08,14.16 3.13,20.41 2.09,6.27 5.12,11.652 9.12,16.113 4,4.508 8.91,7.969 14.79,10.317 5.87,2.39 12.34,3.59 19.51,3.59 9.22,0 17.18,-2.039 23.83,-6.149 6.66,-4.078 11.62,-9.32 14.92,-15.781 3.32,-6.508 4.96,-13.09 4.96,-19.84 0,-6.199 -1.66,-10.25 -5.12,-12.07 -3.46,-1.887 -8.22,-2.789 -14.43,-2.789"
         style="fill:#ffffff;fill-opacity:1;fill-rule:nonzero;stroke:none"
         transform="matrix(0.13333333,0,0,-0.13333333,0,880)" />
      <path
         id="path74"
         d="m 3718.18,183.301 c 0,-3.082 -0.88,-6.391 -2.67,-9.879 -1.78,-3.524 -4.44,-6.852 -8.09,-10.02 -3.61,-3.183 -8.2,-5.742 -13.73,-7.664 -5.49,-1.968 -11.72,-2.918 -18.57,-2.918 -14.71,0 -26.16,4.469 -34.38,13.379 -8.2,8.942 -12.36,20.871 -12.36,35.891 0,10.16 1.87,19.18 5.68,26.961 3.77,7.781 9.18,13.847 16.33,18.101 7.11,4.289 15.66,6.407 25.59,6.407 6.15,0 11.75,-0.95 16.93,-2.797 5.12,-1.891 9.43,-4.321 13.05,-7.262 3.57,-2.969 6.27,-6.141 8.18,-9.5 1.86,-3.352 2.81,-6.48 2.81,-9.391 0,-2.929 -1.03,-5.429 -3.22,-7.519 -2.09,-2.059 -4.65,-3.102 -7.66,-3.102 -1.99,0 -3.61,0.582 -4.88,1.633 -1.35,1.027 -2.79,2.699 -4.45,5.098 -2.89,4.582 -5.9,8.062 -9.06,10.402 -3.17,2.289 -7.19,3.469 -12.07,3.469 -6.98,0 -12.66,-2.899 -16.94,-8.61 -4.31,-5.769 -6.44,-13.57 -6.44,-23.5 0,-4.648 0.58,-8.968 1.64,-12.859 1.11,-3.922 2.71,-7.223 4.8,-9.992 2.09,-2.758 4.63,-4.84 7.58,-6.25 2.91,-1.449 6.17,-2.16 9.73,-2.16 4.74,0 8.84,1.133 12.22,3.453 3.38,2.316 6.41,5.828 9.03,10.508 1.44,2.84 2.98,5 4.68,6.601 1.66,1.571 3.72,2.309 6.18,2.309 2.87,0 5.31,-1.11 7.16,-3.41 1.96,-2.34 2.93,-4.77 2.93,-7.379"
         style="fill:#ffffff;fill-opacity:1;fill-rule:nonzero;stroke:none"
         transform="matrix(0.13333333,0,0,-0.13333333,0,880)" />
      <path
         id="path75"
         d="m 3740.23,251.27 h 2.62 v 14.91 c 0,3.961 0.1,7.129 0.31,9.39 0.2,2.27 0.73,4.192 1.7,5.84 0.9,1.672 2.25,3.07 4.01,4.141 1.72,1.039 3.65,1.539 5.8,1.539 3.01,0 5.74,-1.168 8.16,-3.512 1.6,-1.598 2.66,-3.488 3.09,-5.738 0.45,-2.27 0.64,-5.539 0.64,-9.699 V 251.27 h 8.73 c 3.36,0 5.94,-0.829 7.7,-2.5 1.8,-1.661 2.65,-3.77 2.65,-6.379 0,-3.332 -1.25,-5.7 -3.8,-7 -2.5,-1.309 -6.12,-1.981 -10.82,-1.981 h -4.46 v -45.648 c 0,-3.883 0.14,-6.86 0.39,-8.973 0.3,-2.109 1.04,-3.797 2.15,-5.07 1.1,-1.321 2.93,-1.989 5.51,-1.989 1.39,0 3.26,0.25 5.66,0.79 2.33,0.511 4.18,0.761 5.55,0.761 1.89,0 3.67,-0.832 5.18,-2.359 1.5,-1.641 2.3,-3.594 2.3,-5.973 0,-3.98 -2.05,-7.027 -6.25,-9.168 -4.22,-2.109 -10.19,-3.16 -18.01,-3.16 -7.42,0 -13.06,1.301 -16.89,3.899 -3.81,2.621 -6.35,6.191 -7.5,10.839 -1.21,4.602 -1.8,10.731 -1.8,18.422 v 47.629 h -3.16 c -3.36,0 -5.98,0.832 -7.8,2.551 -1.81,1.68 -2.69,3.82 -2.69,6.43 0,2.609 0.94,4.718 2.79,6.379 1.92,1.671 4.65,2.5 8.24,2.5"
         style="fill:#ffffff;fill-opacity:1;fill-rule:nonzero;stroke:none"
         transform="matrix(0.13333333,0,0,-0.13333333,0,880)" />
      <path
         id="path76"
         d="m 3867.01,202.949 c 0,10.071 -2.15,17.961 -6.38,23.582 -4.3,5.598 -9.99,8.449 -17.19,8.449 -4.65,0 -8.73,-1.281 -12.27,-3.781 -3.55,-2.539 -6.27,-6.238 -8.16,-11.148 -1.92,-4.852 -2.89,-10.551 -2.89,-17.102 0,-6.488 0.97,-12.129 2.85,-16.957 1.87,-4.844 4.55,-8.551 8.07,-11.14 3.49,-2.551 7.61,-3.813 12.4,-3.813 7.2,0 12.89,2.801 17.19,8.461 4.23,5.629 6.38,13.48 6.38,23.449 z m 23.83,0 c 0,-7.347 -1.09,-14.16 -3.32,-20.437 -2.19,-6.172 -5.39,-11.551 -9.55,-16.043 -4.18,-4.489 -9.18,-7.84 -14.96,-10.297 -5.8,-2.383 -12.29,-3.551 -19.57,-3.551 -7.23,0 -13.69,1.168 -19.42,3.629 -5.72,2.398 -10.72,5.871 -14.9,10.379 -4.2,4.519 -7.4,9.82 -9.55,15.953 -2.17,6.188 -3.24,12.938 -3.24,20.41 0,7.5 1.07,14.348 3.24,20.567 2.27,6.25 5.37,11.562 9.49,16.011 4.14,4.399 9.12,7.809 14.96,10.2 5.92,2.382 12.37,3.609 19.42,3.609 7.2,0 13.69,-1.227 19.57,-3.649 5.86,-2.421 10.86,-5.89 15.04,-10.371 4.14,-4.48 7.38,-9.82 9.53,-16 2.17,-6.148 3.26,-12.98 3.26,-20.41"
         style="fill:#ffffff;fill-opacity:1;fill-rule:nonzero;stroke:none"
         transform="matrix(0.13333333,0,0,-0.13333333,0,880)" />
      <path
         id="path77"
         d="m 3933.14,188.34 v -20.629 c 0,-5.031 -1.13,-8.82 -3.39,-11.352 -2.27,-2.468 -5.14,-3.738 -8.64,-3.738 -3.4,0 -6.23,1.301 -8.41,3.801 -2.21,2.539 -3.29,6.289 -3.29,11.289 v 68.961 c 0,11.148 3.83,16.707 11.55,16.707 3.9,0 6.77,-1.34 8.53,-3.918 1.72,-2.59 2.64,-6.449 2.87,-11.52 2.84,5.071 5.77,8.93 8.75,11.52 2.99,2.578 6.96,3.918 11.92,3.918 5.04,0 9.84,-1.34 14.57,-3.918 4.67,-2.59 7.05,-6.051 7.05,-10.34 0,-3.031 -1.04,-5.562 -3.03,-7.492 -1.97,-1.949 -4.14,-2.969 -6.48,-2.969 -0.86,0 -2.97,0.582 -6.31,1.711 -3.34,1.109 -6.29,1.688 -8.85,1.688 -3.46,0 -6.29,-0.938 -8.48,-2.887 -2.2,-1.922 -3.92,-4.723 -5.15,-8.473 -1.21,-3.777 -2.09,-8.219 -2.52,-13.418 -0.45,-5.14 -0.69,-11.441 -0.69,-18.941"
         style="fill:#ffffff;fill-opacity:1;fill-rule:nonzero;stroke:none"
         transform="matrix(0.13333333,0,0,-0.13333333,0,880)" />
      <path
         id="path78"
         d="m 4059.63,184.992 c 0,-6.851 -1.6,-12.691 -4.83,-17.57 -3.2,-4.883 -7.91,-8.531 -14.14,-11.082 -6.25,-2.449 -13.8,-3.719 -22.79,-3.719 -8.46,0 -15.8,1.359 -21.91,4.09 -6.08,2.719 -10.59,6.109 -13.46,10.18 -2.93,4.07 -4.41,8.168 -4.41,12.269 0,2.719 0.95,5.07 2.85,6.988 1.83,1.973 4.2,2.911 7.01,2.911 2.5,0 4.43,-0.637 5.76,-1.887 1.35,-1.332 2.58,-3.09 3.83,-5.371 2.44,-4.449 5.33,-7.742 8.77,-9.93 3.34,-2.199 7.99,-3.269 13.89,-3.269 4.72,0 8.63,1.117 11.68,3.328 3.02,2.199 4.6,4.73 4.6,7.57 0,4.379 -1.62,7.57 -4.74,9.531 -3.2,2.047 -8.38,3.949 -15.65,5.75 -8.16,2.129 -14.82,4.348 -19.96,6.668 -5.13,2.332 -9.29,5.43 -12.34,9.231 -3.07,3.769 -4.63,8.5 -4.63,14.07 0,4.98 1.43,9.672 4.28,14.051 2.83,4.437 7.07,7.961 12.6,10.597 5.52,2.641 12.2,3.981 20.05,3.981 6.14,0 11.66,-0.688 16.59,-2.008 4.88,-1.32 9.02,-3.133 12.24,-5.351 3.28,-2.25 5.8,-4.719 7.5,-7.43 1.74,-2.758 2.58,-5.418 2.58,-8 0,-2.86 -0.9,-5.141 -2.75,-7.031 -1.84,-1.739 -4.46,-2.668 -7.78,-2.668 -2.46,0 -4.51,0.711 -6.25,2.199 -1.68,1.43 -3.67,3.601 -5.86,6.469 -1.79,2.429 -3.9,4.39 -6.36,5.832 -2.45,1.441 -5.75,2.179 -9.91,2.179 -4.29,0 -7.89,-0.949 -10.68,-2.871 -2.85,-1.898 -4.3,-4.277 -4.3,-7.129 0,-2.609 1.06,-4.738 3.13,-6.41 2.11,-1.66 4.9,-3.039 8.46,-4.14 3.55,-1.09 8.41,-2.45 14.62,-4 7.37,-1.86 13.38,-4.098 18.05,-6.719 4.67,-2.582 8.2,-5.653 10.61,-9.199 2.44,-3.571 3.65,-7.602 3.65,-12.11"
         style="fill:#ffffff;fill-opacity:1;fill-rule:nonzero;stroke:none"
         transform="matrix(0.13333333,0,0,-0.13333333,0,880)" />
      <path
         id="path79"
         d="m 4086.58,152.621 c -3.59,0 -6.7,1.168 -9.28,3.629 -2.65,2.398 -3.94,5.809 -3.94,10.141 0,3.668 1.23,6.859 3.69,9.531 2.5,2.648 5.61,3.949 9.26,3.949 3.63,0 6.76,-1.301 9.28,-3.93 2.61,-2.589 3.92,-5.832 3.92,-9.55 0,-4.289 -1.31,-7.672 -3.92,-10.102 -2.52,-2.449 -5.53,-3.668 -9.01,-3.668"
         style="fill:#ffffff;fill-opacity:1;fill-rule:nonzero;stroke:none"
         transform="matrix(0.13333333,0,0,-0.13333333,0,880)" />
      <path
         id="path80"
         d="m 4191.58,202.949 c 0,10.071 -2.15,17.961 -6.4,23.582 -4.26,5.598 -9.97,8.449 -17.15,8.449 -4.65,0 -8.69,-1.281 -12.25,-3.781 -3.55,-2.539 -6.27,-6.238 -8.16,-11.148 -1.9,-4.852 -2.87,-10.551 -2.87,-17.102 0,-6.488 0.91,-12.129 2.79,-16.957 1.93,-4.844 4.61,-8.551 8.12,-11.14 3.5,-2.551 7.62,-3.813 12.37,-3.813 7.18,0 12.89,2.801 17.15,8.461 4.25,5.629 6.4,13.48 6.4,23.449 z m 23.87,0 c 0,-7.347 -1.09,-14.16 -3.34,-20.437 -2.21,-6.172 -5.37,-11.551 -9.55,-16.043 -4.2,-4.489 -9.12,-7.84 -14.96,-10.297 -5.78,-2.383 -12.31,-3.551 -19.57,-3.551 -7.19,0 -13.65,1.168 -19.4,3.629 -5.74,2.398 -10.68,5.871 -14.88,10.379 -4.26,4.519 -7.42,9.82 -9.63,15.953 -2.13,6.188 -3.22,12.938 -3.22,20.41 0,7.5 1.09,14.348 3.3,20.567 2.25,6.25 5.35,11.562 9.45,16.011 4.12,4.399 9.12,7.809 14.98,10.2 5.86,2.382 12.29,3.609 19.4,3.609 7.18,0 13.71,-1.227 19.57,-3.649 5.88,-2.421 10.88,-5.89 15.06,-10.371 4.16,-4.48 7.32,-9.82 9.53,-16 2.17,-6.148 3.26,-12.98 3.26,-20.41"
         style="fill:#ffffff;fill-opacity:1;fill-rule:nonzero;stroke:none"
         transform="matrix(0.13333333,0,0,-0.13333333,0,880)" />
      <path
         id="path81"
         d="m 4257.73,188.34 v -20.629 c 0,-5.031 -1.13,-8.82 -3.37,-11.352 -2.25,-2.468 -5.14,-3.738 -8.6,-3.738 -3.47,0 -6.25,1.301 -8.47,3.801 -2.21,2.539 -3.31,6.289 -3.31,11.289 v 68.961 c 0,11.148 3.91,16.707 11.59,16.707 3.94,0 6.75,-1.34 8.49,-3.918 1.72,-2.59 2.74,-6.449 2.93,-11.52 2.8,5.071 5.71,8.93 8.69,11.52 2.99,2.578 7,3.918 11.94,3.918 5.06,0 9.9,-1.34 14.55,-3.918 4.71,-2.59 7.07,-6.051 7.07,-10.34 0,-3.031 -1.02,-5.562 -2.99,-7.492 -2.03,-1.949 -4.16,-2.969 -6.52,-2.969 -0.84,0 -2.93,0.582 -6.27,1.711 -3.34,1.109 -6.29,1.688 -8.87,1.688 -3.46,0 -6.27,-0.938 -8.54,-2.887 -2.16,-1.922 -3.88,-4.723 -5.11,-8.473 -1.19,-3.777 -2.05,-8.219 -2.5,-13.418 -0.45,-5.14 -0.71,-11.441 -0.71,-18.941"
         style="fill:#ffffff;fill-opacity:1;fill-rule:nonzero;stroke:none"
         transform="matrix(0.13333333,0,0,-0.13333333,0,880)" />
      <path
         id="path82"
         d="m 4326.29,203.801 c 0,-10.02 2.11,-17.629 6.33,-22.789 4.18,-5.121 9.65,-7.731 16.27,-7.731 3.92,0 7.69,1.149 11.19,3.36 3.51,2.218 6.37,5.531 8.59,9.968 2.21,4.469 3.28,9.852 3.28,16.192 0,10.097 -2.15,17.961 -6.4,23.59 -4.24,5.668 -9.87,8.488 -16.8,8.488 -6.76,0 -12.23,-2.75 -16.29,-8.09 -4.12,-5.418 -6.17,-13.047 -6.17,-22.988 z m 68.83,31.429 v -72.019 c 0,-8.242 -0.9,-15.32 -2.54,-21.223 -1.68,-5.957 -4.4,-10.859 -8.09,-14.718 -3.71,-3.879 -8.59,-6.731 -14.55,-8.629 -6.01,-1.821 -13.49,-2.782 -22.4,-2.782 -8.2,0 -15.53,1.153 -21.93,3.539 -6.45,2.461 -11.41,5.493 -14.89,9.301 -3.47,3.75 -5.23,7.653 -5.23,11.672 0,3.031 0.97,5.488 2.99,7.379 1.95,1.949 4.33,2.891 7.11,2.891 3.49,0 6.5,-1.621 9.16,-4.809 1.27,-1.684 2.61,-3.312 3.94,-4.953 1.35,-1.688 2.85,-3.129 4.51,-4.277 1.66,-1.211 3.68,-2.082 6,-2.661 2.26,-0.582 4.96,-0.859 7.99,-0.859 6.11,0 10.94,0.898 14.29,2.68 3.4,1.769 5.79,4.269 7.17,7.468 1.31,3.211 2.17,6.622 2.31,10.309 0.29,3.711 0.45,9.563 0.6,17.68 -3.65,-5.297 -7.93,-9.367 -12.67,-12.149 -4.77,-2.781 -10.49,-4.14 -17.05,-4.14 -8.01,0 -14.96,2.07 -20.86,6.34 -5.98,4.242 -10.55,10.14 -13.73,17.8 -3.15,7.59 -4.79,16.399 -4.79,26.399 0,7.48 0.96,14.211 2.95,20.203 1.89,5.957 4.65,11.019 8.3,15.137 3.56,4.121 7.74,7.23 12.42,9.332 4.73,2.058 9.83,3.121 15.49,3.121 6.7,0 12.54,-1.371 17.46,-4.071 4.98,-2.66 9.51,-6.921 13.75,-12.66 v 3.328 c 0,4.332 1.06,7.621 3.05,10.051 2.03,2.34 4.65,3.539 7.81,3.539 4.61,0 7.66,-1.558 9.18,-4.679 1.49,-3.129 2.25,-7.661 2.25,-13.54"
         style="fill:#ffffff;fill-opacity:1;fill-rule:nonzero;stroke:none"
         transform="matrix(0.13333333,0,0,-0.13333333,0,880)" />
      <path
         id="path83"
         d="m 3365.94,476.539 h 35.23 c -2.5,-18.988 -10.27,-33.82 -23.22,-44.48 -11.97,-10.438 -26.47,-15.598 -43.42,-15.598 -22.99,0 -41.35,8.078 -55.06,24.211 -12.99,15.34 -19.47,35.137 -19.47,59.328 0,24.789 6.45,44.621 19.3,59.621 12.83,14.938 30.99,22.461 54.45,22.461 17.46,0 32.23,-4.73 44.2,-14.102 12.71,-10.121 20.47,-24.351 23.22,-42.582 h -35.23 c -3.03,15.903 -12.74,23.821 -29.26,23.821 -27.21,0 -40.86,-16.129 -40.86,-48.399 0,-15.121 3.52,-27.461 10.51,-37.09 7.01,-9.64 16.87,-14.46 29.61,-14.46 18.98,0 28.98,9.101 30,27.269 z m -138.64,22.223 c 0,-31.52 10,-58.211 29.97,-79.93 19.98,-21.762 44.43,-32.641 73.45,-32.641 28.91,0 53.38,10.879 73.34,32.641 20,21.719 29.94,48.41 29.94,79.93 0,31.5 -9.94,58.16 -29.94,79.91 -19.96,21.769 -44.43,32.637 -73.34,32.637 -29.02,0 -53.47,-10.868 -73.45,-32.637 -19.97,-21.75 -29.97,-48.41 -29.97,-79.91 z m -35.78,0 c 0,40.109 13.58,74.34 40.75,102.777 27.2,28.391 60.02,42.59 98.45,42.59 38.36,0 71.14,-14.199 98.36,-42.59 27.19,-28.437 40.8,-62.668 40.8,-102.777 0,-40.141 -13.61,-74.422 -40.8,-102.801 -27.22,-28.422 -60,-42.629 -98.36,-42.629 -38.43,0 -71.25,14.207 -98.45,42.629 -27.17,28.379 -40.75,62.66 -40.75,102.801"
         style="fill:#ffffff;fill-opacity:1;fill-rule:nonzero;stroke:none"
         transform="matrix(0.13333333,0,0,-0.13333333,0,880)" />
      <path
         id="path84"
         d="m 3247.85,407.582 20.29,-17.223 149.28,191.692 -20.29,17.199 -149.28,-191.668"
         style="fill:#ffffff;fill-opacity:1;fill-rule:nonzero;stroke:none"
         transform="matrix(0.13333333,0,0,-0.13333333,0,880)" />
    </g>
  </g>
</svg>
