<?xml version="1.0" encoding="UTF-8" standalone="no"?>
<!-- Created with Inkscape (http://www.inkscape.org/) -->

<svg
   version="1.1"
   id="svg1"
   width="666.66669"
   height="666.66669"
   viewBox="0 0 666.66669 666.66669"
   sodipodi:docname="cooking-soup-publicdomainvectors.org.svg"
   inkscape:version="1.3.2 (091e20ef0f, 2023-11-25, custom)"
   xmlns:inkscape="http://www.inkscape.org/namespaces/inkscape"
   xmlns:sodipodi="http://sodipodi.sourceforge.net/DTD/sodipodi-0.dtd"
   xmlns="http://www.w3.org/2000/svg"
   xmlns:svg="http://www.w3.org/2000/svg">
  <defs
     id="defs1" />
  <sodipodi:namedview
     id="namedview1"
     pagecolor="#505050"
     bordercolor="#ffffff"
     borderopacity="1"
     inkscape:showpageshadow="0"
     inkscape:pageopacity="0"
     inkscape:pagecheckerboard="1"
     inkscape:deskcolor="#d1d1d1"
     inkscape:zoom="0.96149997"
     inkscape:cx="333.33334"
     inkscape:cy="332.81332"
     inkscape:window-width="1920"
     inkscape:window-height="1002"
     inkscape:window-x="0"
     inkscape:window-y="0"
     inkscape:window-maximized="1"
     inkscape:current-layer="g1">
    <inkscape:page
       x="0"
       y="0"
       inkscape:label="1"
       id="page1"
       width="666.66669"
       height="666.66669"
       margin="0"
       bleed="0" />
  </sodipodi:namedview>
  <g
     id="g1"
     inkscape:groupmode="layer"
     inkscape:label="1">
    <g
       id="group-R5">
      <path
         id="path2"
         d="M 0,0 H 4999.98 V 5000 H 0 V 0"
         style="fill:#9ac421;fill-opacity:1;fill-rule:evenodd;stroke:none"
         transform="matrix(0.13333333,0,0,-0.13333333,0,666.66667)" />
      <path
         id="path3"
         d="m 1754.93,3408.07 c 185,227.04 431.47,401.96 714.02,499.47 l -150.43,215.27 c -28.49,40.74 -85.13,50.78 -125.87,22.31 l -566.08,-395.6 c -40.75,-28.48 -50.77,-85.11 -22.31,-125.86 z M 4220.03,1401.86 C 4035.02,1174.83 3788.58,999.871 3506.01,902.379 l 150.44,-215.27 c 28.46,-40.75 85.1,-50.8 125.84,-22.32 l 566.08,395.591 c 40.75,28.49 50.8,85.13 22.31,125.87 l -150.65,215.61 z M 2987.47,3994.15 c 877.7,0 1589.21,-711.5 1589.21,-1589.2 0,-309.3 -88.46,-597.92 -241.32,-842.06 l 188.43,-269.66 c 87.32,-124.93 56.55,-298.621 -68.41,-385.949 L 3889.31,511.699 c -124.96,-87.328 -298.64,-56.558 -385.96,68.403 l -188.37,269.519 c -105.67,-22.18 -215.21,-33.871 -327.51,-33.871 -877.68,0 -1589.18,711.52 -1589.18,1589.2 0,309.32 88.43,597.92 241.32,842.07 l -188.45,269.65 c -87.32,124.95 -56.53,298.63 68.42,385.95 l 566.07,395.6 c 124.97,87.32 298.64,56.53 385.98,-68.42 l 188.34,-269.51 c 105.67,22.17 215.22,33.86 327.5,33.86 v 0"
         style="fill:#769a2a;fill-opacity:1;fill-rule:evenodd;stroke:none"
         transform="matrix(0.13333333,0,0,-0.13333333,0,666.66667)" />
      <path
         id="path4"
         d="m 721.609,3275.84 c 87.329,-124.96 261.004,-155.75 385.961,-68.42 l 566.07,395.59 c 124.96,87.33 155.75,261.01 68.43,385.96 l -266.79,381.75 c -87.32,124.96 -261.01,155.74 -385.95,68.42 L 523.258,4043.55 C 398.301,3956.23 367.504,3782.54 454.836,3657.59 Z M 2507.01,721.031 c 87.32,-124.972 261.01,-155.742 385.96,-68.41 l 566.08,395.579 c 124.93,87.34 155.74,261 68.41,385.96 l -266.79,381.77 c -87.31,124.94 -260.99,155.73 -385.94,68.41 l -566.07,-395.59 c -124.96,-87.32 -155.75,-261.03 -68.44,-385.96 l 266.79,-381.759 z m 153.11,107.008 -266.79,381.741 c -28.47,40.74 -18.44,97.38 22.32,125.86 l 566.06,395.59 c 40.75,28.49 97.39,18.44 125.88,-22.31 l 266.77,-381.74 c 28.48,-40.74 18.44,-97.4 -22.31,-125.87 L 2785.98,805.719 c -40.76,-28.477 -97.39,-18.43 -125.86,22.32 z M 874.719,3382.83 607.934,3764.58 c -28.481,40.76 -18.43,97.39 22.308,125.87 l 566.078,395.59 c 40.75,28.48 97.38,18.44 125.87,-22.31 l 266.77,-381.75 c 28.47,-40.74 18.45,-97.39 -22.3,-125.87 l -566.08,-395.59 c -40.744,-28.48 -97.389,-18.44 -125.861,22.31 v 0"
         style="fill:#5c433b;fill-opacity:1;fill-rule:evenodd;stroke:none"
         transform="matrix(0.13333333,0,0,-0.13333333,0,666.66667)" />
      <path
         id="path5"
         d="m 1991.16,956.68 c 875.3,0 1589.19,713.91 1589.19,1589.2 0,875.3 -713.89,1589.2 -1589.19,1589.2 -875.31,0 -1589.203,-713.9 -1589.203,-1589.2 0,-875.29 713.893,-1589.2 1589.203,-1589.2"
         style="fill:#ffffff;fill-opacity:1;fill-rule:evenodd;stroke:none"
         transform="matrix(0.13333333,0,0,-0.13333333,0,666.66667)" />
      <path
         id="path6"
         d="m 1991.16,1133.14 c 778.1,0 1412.73,634.63 1412.73,1412.74 0,778.11 -634.63,1412.73 -1412.73,1412.73 -778.11,0 -1412.742,-634.62 -1412.742,-1412.73 0,-778.11 634.632,-1412.74 1412.742,-1412.74"
         style="fill:#f8e3db;fill-opacity:1;fill-rule:evenodd;stroke:none"
         transform="matrix(0.13333333,0,0,-0.13333333,0,666.66667)" />
      <path
         id="path7"
         d="m 1991.16,1377.1 c 643.73,0 1168.77,525.04 1168.77,1168.78 0,643.74 -525.04,1168.79 -1168.77,1168.79 -643.76,0 -1168.793,-525.05 -1168.793,-1168.79 0,-643.74 525.033,-1168.78 1168.793,-1168.78"
         style="fill:#af1c22;fill-opacity:1;fill-rule:evenodd;stroke:none"
         transform="matrix(0.13333333,0,0,-0.13333333,0,666.66667)" />
      <path
         id="path8"
         d="m 2286.08,2235.68 c 170.84,0 310.2,139.36 310.2,310.2 0,170.86 -139.36,310.21 -310.2,310.21 -170.87,0 -310.22,-139.35 -310.22,-310.21 0,-170.84 139.35,-310.2 310.22,-310.2"
         style="fill:#d61e25;fill-opacity:1;fill-rule:evenodd;stroke:none"
         transform="matrix(0.13333333,0,0,-0.13333333,0,666.66667)" />
      <path
         id="path9"
         d="m 2528.58,3000.51 77.33,260.56 83.81,264.28 c 36.64,115.57 150.37,188.68 270.73,174.03 209.24,-25.45 419.19,-44.8 629.58,-58.01 169.21,-10.62 310.18,-133.55 343.73,-299.72 l -1292.39,-612.36 -112.79,271.22"
         style="fill:#f28f61;fill-opacity:1;fill-rule:evenodd;stroke:none"
         transform="matrix(0.13333333,0,0,-0.13333333,0,666.66667)" />
      <path
         id="path10"
         d="m 2174.85,2594.73 1714.58,1089.35 c 475.15,301.89 848.26,-502.23 328.87,-667.04 L 2277.99,2401.37 c -51.22,-16.25 -106.74,6.35 -132.03,53.77 -25.28,47.41 -16.21,110.95 28.89,139.59"
         style="fill:#723818;fill-opacity:1;fill-rule:evenodd;stroke:none"
         transform="matrix(0.13333333,0,0,-0.13333333,0,666.66667)" />
      <path
         id="path11"
         d="m 3889.43,3684.08 c 475.15,301.89 848.26,-502.23 328.87,-667.04 -387.65,-123.01 -631.34,474.86 -328.87,667.04"
         style="fill:#904c1c;fill-opacity:1;fill-rule:evenodd;stroke:none"
         transform="matrix(0.13333333,0,0,-0.13333333,0,666.66667)" />
      <path
         id="path12"
         d="m 3992.58,1925.98 -370.65,241.73 -525.33,-12.9 c -320.55,-7.87 -599.87,216.96 -660.7,531.78 -25.16,130.31 -97.19,245.22 -200.21,324.52 -29.82,22.96 -42.54,59.22 -33.54,95.78 8.97,36.55 37.02,62.8 74.09,69.32 31.4,5.53 68.97,3.38 117.77,-7.8 95.27,-21.83 195.57,-42.64 280.39,-94.72 105.73,-64.93 161.76,-187.3 141.81,-309.75 -7.93,-48.75 12.89,-97.71 53.52,-125.81 40.61,-28.09 93.77,-30.29 136.58,-5.67 l 1024.83,325.2 80.48,-248.51 619.01,-273.95 c 151.37,-66.99 249.29,-216.63 250.13,-382.17 0.8,-165.55 -95.66,-316.14 -246.38,-384.62 -150.71,-68.47 -327.6,-42.08 -451.75,67.41 l -290.05,190.16"
         style="fill:#f28f61;fill-opacity:1;fill-rule:evenodd;stroke:none"
         transform="matrix(0.13333333,0,0,-0.13333333,0,666.66667)" />
      <path
         id="path13"
         d="m 4942.91,1133.14 -1044.69,764.04 c -192.59,140.84 -244.38,404.25 -119.5,607.52 124.91,203.26 383.3,276.09 595.97,167.96 l 443.29,-225.42 124.93,-1314.1"
         style="fill:#ffffff;fill-opacity:1;fill-rule:evenodd;stroke:none"
         transform="matrix(0.13333333,0,0,-0.13333333,0,666.66667)" />
      <path
         id="path14"
         d="m 4999.98,907.52 -945.94,691.82 c -251.13,183.66 -318.67,527.2 -155.82,792.28 162.89,265.11 499.88,360.07 777.19,219.04 l 324.57,-165.04 V 907.52"
         style="fill:#feeae4;fill-opacity:1;fill-rule:evenodd;stroke:none"
         transform="matrix(0.13333333,0,0,-0.13333333,0,666.66667)" />
      <path
         id="path15"
         d="m 2713.35,1626.87 c -198.8,-156.45 -449.61,-249.77 -722.2,-249.77 -645.49,0 -1168.783,523.28 -1168.783,1168.78 0,605.99 461.183,1104.24 1051.703,1162.97 -271.93,-214.01 -446.58,-546.12 -446.58,-919.02 0,-645.49 523.28,-1168.78 1168.79,-1168.78 39.51,0 78.55,1.99 117.07,5.82"
         style="fill:#971a1f;fill-opacity:1;fill-rule:evenodd;stroke:none"
         transform="matrix(0.13333333,0,0,-0.13333333,0,666.66667)" />
      <path
         id="path16"
         d="m 1611.1,117.262 c 0,5.449 -0.78,10.168 -2.4,14.027 -1.57,3.922 -3.78,6.93 -6.62,9.063 -2.83,2.07 -5.95,3.14 -9.39,3.14 -5.45,0 -10.06,-2.312 -13.81,-6.762 -3.75,-4.511 -5.63,-11.101 -5.63,-19.832 0,-8.226 1.88,-14.617 5.57,-19.1363 3.75,-4.582 8.38,-6.8828 13.87,-6.8828 3.28,0 6.34,0.9922 9.16,3.0234 2.76,1.9883 5.02,4.9688 6.71,8.9067 1.71,4.031 2.54,8.812 2.54,14.453 z m -38.77,30.078 v -2.488 c 3.71,4.769 7.56,8.328 11.57,10.539 4.02,2.261 8.59,3.398 13.67,3.398 6.07,0 11.68,-1.648 16.81,-4.93 5.1,-3.277 9.15,-8.05 12.13,-14.379 2.97,-6.32 4.44,-13.761 4.44,-22.378 0,-6.34 -0.83,-12.25 -2.55,-17.4926 -1.71,-5.3281 -4.07,-9.8203 -7.06,-13.418 -3,-3.6016 -6.56,-6.4023 -10.62,-8.3125 -4.1,-1.9687 -8.5,-2.9297 -13.15,-2.9297 -5.69,0 -10.43,1.1797 -14.27,3.5625 -3.88,2.3594 -7.51,5.8203 -10.97,10.418 V 57.9492 c 0,-9.0898 -3.17,-13.6094 -9.5,-13.6094 -3.72,0 -6.2,1.1524 -7.37,3.4805 -1.22,2.3594 -1.82,5.7695 -1.82,10.2617 v 89.129 c 0,3.918 0.79,6.871 2.45,8.809 1.67,1.921 3.91,2.921 6.74,2.921 2.8,0 5.09,-1 6.85,-3.011 1.76,-2.008 2.65,-4.879 2.65,-8.59"
         style="fill:#201e20;fill-opacity:1;fill-rule:nonzero;stroke:none"
         transform="matrix(0.13333333,0,0,-0.13333333,0,666.66667)" />
      <path
         id="path17"
         d="m 1698.25,86.6289 v 2.6133 c -2.38,-3.1211 -4.86,-5.7227 -7.48,-7.832 -2.61,-2.1602 -5.46,-3.7188 -8.53,-4.7383 -3.13,-1.0313 -6.64,-1.5508 -10.61,-1.5508 -4.75,0 -9.04,1.0391 -12.85,3.0781 -3.8,2.0703 -6.74,4.9219 -8.79,8.5508 -2.5,4.3906 -3.7,10.6992 -3.7,18.879 v 40.93 c 0,4.101 0.89,7.222 2.68,9.25 1.79,2.043 4.15,3.07 7.08,3.07 3.01,0 5.41,-1.027 7.26,-3.117 1.84,-2.071 2.74,-5.153 2.74,-9.203 v -33.067 c 0,-4.762 0.39,-8.781 1.14,-12.023 0.81,-3.2581 2.19,-5.8088 4.22,-7.6682 1.96,-1.8203 4.69,-2.7422 8.12,-2.7422 3.37,0 6.5,1.0508 9.43,3.1133 2.96,2.039 5.12,4.7383 6.46,8.0701 1.11,2.93 1.66,9.317 1.66,19.207 v 25.11 c 0,4.05 0.92,7.132 2.77,9.203 1.82,2.09 4.18,3.117 7.15,3.117 2.95,0 5.31,-1.027 7.1,-3.07 1.77,-2.028 2.65,-5.149 2.65,-9.25 V 86.75 c 0,-3.9297 -0.82,-6.8906 -2.54,-8.8281 -1.7,-1.9922 -3.91,-2.9531 -6.62,-2.9531 -2.7,0 -4.92,1.0507 -6.7,3.0429 -1.76,2.0703 -2.64,4.8985 -2.64,8.6172"
         style="fill:#201e20;fill-opacity:1;fill-rule:nonzero;stroke:none"
         transform="matrix(0.13333333,0,0,-0.13333333,0,666.66667)" />
      <path
         id="path18"
         d="m 1755.63,116.441 c 0,-8.222 1.79,-14.511 5.38,-18.9293 3.61,-4.3906 8.34,-6.6328 14.2,-6.6328 4.98,0 9.23,2.2695 12.86,6.7813 3.62,4.5198 5.42,10.9418 5.42,19.3788 0,5.5 -0.76,10.172 -2.26,14.082 -1.51,3.961 -3.65,7 -6.38,9.117 -2.79,2.141 -5.96,3.254 -9.64,3.254 -3.81,0 -7.11,-1.113 -10.08,-3.254 -2.97,-2.117 -5.27,-5.238 -6.98,-9.308 -1.69,-4.032 -2.52,-8.84 -2.52,-14.489 z m -0.93,61.368 V 146.25 c 3.67,4.07 7.49,7.129 11.34,9.32 3.87,2.141 8.68,3.219 14.36,3.219 6.58,0 12.33,-1.648 17.29,-4.867 4.94,-3.313 8.8,-7.992 11.52,-14.16 2.75,-6.18 4.1,-13.5 4.1,-21.973 0,-6.269 -0.75,-11.988 -2.26,-17.238 -1.53,-5.1994 -3.72,-9.6994 -6.63,-13.5822 -2.93,-3.8086 -6.44,-6.7383 -10.55,-8.8985 -4.15,-2.0508 -8.7,-3.1211 -13.67,-3.1211 -3.02,0 -5.91,0.3906 -8.61,1.1328 -2.67,0.7696 -4.98,1.75 -6.81,3.0196 -1.92,1.1679 -3.52,2.4882 -4.86,3.7695 -1.32,1.3281 -3.05,3.2773 -5.22,5.8984 V 86.75 c 0,-3.8984 -0.92,-6.8281 -2.71,-8.8281 -1.77,-1.9922 -4.07,-2.9727 -6.79,-2.9727 -2.83,0 -5.04,0.9805 -6.73,2.9727 -1.65,2.039 -2.48,4.9492 -2.48,8.8281 v 90.16 c 0,4.149 0.8,7.332 2.44,9.461 1.61,2.16 3.85,3.219 6.77,3.219 3.02,0 5.38,-1.02 7,-3.078 1.66,-2.02 2.5,-4.91 2.5,-8.703"
         style="fill:#201e20;fill-opacity:1;fill-rule:nonzero;stroke:none"
         transform="matrix(0.13333333,0,0,-0.13333333,0,666.66667)" />
      <path
         id="path19"
         d="m 1827.28,87.5195 v 89.5195 c 0,4.152 0.87,7.262 2.61,9.391 1.8,2.101 4.16,3.16 7.16,3.16 3,0 5.4,-1.031 7.25,-3.129 1.8,-2.09 2.76,-5.25 2.76,-9.422 V 87.5195 c 0,-4.1875 -0.96,-7.3398 -2.81,-9.4492 -1.85,-2.0508 -4.26,-3.1211 -7.2,-3.1211 -2.9,0 -5.22,1.0899 -7.05,3.25 -1.82,2.1797 -2.72,5.2696 -2.72,9.3203"
         style="fill:#201e20;fill-opacity:1;fill-rule:nonzero;stroke:none"
         transform="matrix(0.13333333,0,0,-0.13333333,0,666.66667)" />
      <path
         id="path20"
         d="M 1887.26,147.148 V 87.5195 c 0,-4.1601 -0.97,-7.289 -2.81,-9.3984 -1.9,-2.082 -4.3,-3.1719 -7.17,-3.1719 -2.91,0 -5.28,1.0899 -7.07,3.2422 -1.8,2.1875 -2.74,5.2774 -2.74,9.3281 v 59.0395 c 0,4.05 0.94,7.132 2.74,9.203 1.79,2.09 4.16,3.117 7.07,3.117 2.87,0 5.27,-1.027 7.17,-3.117 1.84,-2.071 2.81,-4.93 2.81,-8.614 z m -9.79,21.352 c -2.75,0 -5.09,0.871 -7.09,2.68 -1.9,1.761 -2.91,4.281 -2.91,7.511 0,2.911 1.01,5.289 3.02,7.219 2,1.891 4.32,2.781 6.98,2.781 2.56,0 4.84,-0.832 6.82,-2.531 1.97,-1.719 2.97,-4.238 2.97,-7.469 0,-3.199 -0.98,-5.679 -2.91,-7.453 -1.94,-1.789 -4.2,-2.738 -6.88,-2.738"
         style="fill:#201e20;fill-opacity:1;fill-rule:nonzero;stroke:none"
         transform="matrix(0.13333333,0,0,-0.13333333,0,666.66667)" />
      <path
         id="path21"
         d="m 1978.54,100.52 c 0,-2.5591 -0.72,-5.3208 -2.18,-8.2387 -1.5,-2.9219 -3.74,-5.6993 -6.77,-8.3516 -3,-2.6406 -6.81,-4.7695 -11.4,-6.3711 -4.59,-1.6484 -9.76,-2.4375 -15.49,-2.4375 -12.24,0 -21.77,3.7305 -28.64,11.1484 -6.84,7.4414 -10.28,17.3785 -10.28,29.8905 0,8.469 1.56,15.981 4.69,22.461 3.13,6.469 7.71,11.539 13.63,15.07 5.93,3.579 13.06,5.348 21.29,5.348 5.14,0 9.84,-0.797 14.12,-2.34 4.27,-1.57 7.89,-3.597 10.86,-6.051 2.97,-2.476 5.23,-5.109 6.82,-7.898 1.58,-2.789 2.34,-5.41 2.34,-7.828 0,-2.442 -0.9,-4.531 -2.64,-6.262 -1.77,-1.73 -3.88,-2.578 -6.4,-2.578 -1.66,0 -3.01,0.477 -4.12,1.359 -1.06,0.848 -2.29,2.239 -3.66,4.25 -2.4,3.821 -4.94,6.707 -7.57,8.661 -2.63,1.898 -5.98,2.878 -10.01,2.878 -5.87,0 -10.58,-2.421 -14.15,-7.179 -3.58,-4.789 -5.35,-11.289 -5.35,-19.571 0,-3.851 0.46,-7.468 1.39,-10.699 0.91,-3.261 2.24,-6.0193 3.96,-8.3318 1.75,-2.289 3.83,-4.0195 6.3,-5.1992 2.46,-1.2109 5.18,-1.7891 8.11,-1.7891 3.98,0 7.36,0.9414 10.19,2.8594 2.84,1.9297 5.34,4.8594 7.5,8.7497 1.21,2.371 2.51,4.168 3.92,5.5 1.42,1.321 3.13,1.942 5.16,1.942 2.41,0 4.41,-0.942 6.02,-2.852 1.56,-1.949 2.36,-3.969 2.36,-6.14"
         style="fill:#201e20;fill-opacity:1;fill-rule:nonzero;stroke:none"
         transform="matrix(0.13333333,0,0,-0.13333333,0,666.66667)" />
      <path
         id="path22"
         d="m 2011.13,117.039 c 0,-5.59 0.83,-10.328 2.49,-14.289 1.68,-3.9414 3.93,-6.8594 6.83,-8.8477 2.92,-2.0312 6.08,-3.0234 9.48,-3.0234 3.49,0 6.66,0.9727 9.53,2.832 2.89,1.9102 5.16,4.8204 6.9,8.7191 1.72,3.89 2.57,8.781 2.57,14.609 0,5.531 -0.85,10.231 -2.57,14.199 -1.74,3.973 -4.05,6.981 -6.96,9.114 -2.93,2.07 -6.11,3.14 -9.59,3.14 -3.61,0 -6.84,-1.113 -9.7,-3.254 -2.83,-2.117 -5.07,-5.226 -6.63,-9.226 -1.56,-4.032 -2.35,-8.641 -2.35,-13.973 z m 38.88,-30.289 v 2.0195 c -2.66,-3.1679 -5.27,-5.75 -7.89,-7.7187 -2.54,-2.0117 -5.36,-3.5195 -8.38,-4.5625 -3.01,-0.9961 -6.31,-1.5391 -9.87,-1.5391 -4.73,0 -9.14,1.0703 -13.16,3.1211 -4.02,2.1602 -7.51,5.1094 -10.46,8.9883 -2.94,3.8828 -5.17,8.4414 -6.71,13.7034 -1.54,5.23 -2.28,10.898 -2.28,17.027 0,12.871 3.03,22.981 9.06,30.191 6.06,7.211 13.99,10.809 23.83,10.809 5.69,0 10.51,-1.051 14.41,-3.129 3.91,-2 7.74,-5.14 11.45,-9.41 v 30.492 c 0,4.238 0.8,7.438 2.43,9.598 1.61,2.18 3.9,3.25 6.91,3.25 2.98,0 5.29,-1 6.93,-2.969 1.6,-1.98 2.44,-4.93 2.44,-8.812 V 86.75 c 0,-3.9297 -0.88,-6.8906 -2.63,-8.8281 -1.74,-1.9922 -3.97,-2.9727 -6.74,-2.9727 -2.68,0 -4.95,1.0196 -6.71,3.0625 -1.75,2.0274 -2.63,4.918 -2.63,8.7383"
         style="fill:#201e20;fill-opacity:1;fill-rule:nonzero;stroke:none"
         transform="matrix(0.13333333,0,0,-0.13333333,0,666.66667)" />
      <path
         id="path23"
         d="m 2142.76,116.871 c 0,8.391 -1.8,14.969 -5.33,19.649 -3.55,4.66 -8.34,7.031 -14.31,7.031 -3.89,0 -7.28,-1.051 -10.23,-3.141 -2.94,-2.121 -5.2,-5.199 -6.81,-9.289 -1.58,-4.039 -2.39,-8.781 -2.39,-14.25 0,-5.402 0.81,-10.09 2.35,-14.121 1.57,-4.0312 3.82,-7.1211 6.76,-9.2578 2.91,-2.1406 6.38,-3.2031 10.32,-3.2031 5.97,0 10.76,2.3515 14.31,7.0507 3.53,4.6992 5.33,11.2302 5.33,19.5312 z m 19.85,0 c 0,-6.109 -0.93,-11.789 -2.76,-17.0194 -1.83,-5.1407 -4.49,-9.6211 -7.95,-13.3633 -3.5,-3.7383 -7.65,-6.5274 -12.48,-8.5664 -4.82,-1.9922 -10.3,-2.9727 -16.3,-2.9727 -5.98,0 -11.38,0.9805 -16.15,3.0313 -4.78,2 -8.94,4.8906 -12.45,8.6484 -3.48,3.7695 -6.13,8.1602 -7.97,13.2813 -1.8,5.1598 -2.7,10.7698 -2.7,16.9998 0,6.25 0.93,11.969 2.74,17.129 1.84,5.231 4.45,9.633 7.89,13.34 3.44,3.672 7.58,6.512 12.49,8.492 4.9,2 10.25,3.008 16.15,3.008 5.99,0 11.43,-1.008 16.3,-3.039 4.87,-2 9.05,-4.899 12.52,-8.629 3.5,-3.719 6.14,-8.191 7.91,-13.332 1.86,-5.129 2.76,-10.797 2.76,-17.008"
         style="fill:#201e20;fill-opacity:1;fill-rule:nonzero;stroke:none"
         transform="matrix(0.13333333,0,0,-0.13333333,0,666.66667)" />
      <path
         id="path24"
         d="m 2246.14,133.93 c -1.48,-3.489 -2.18,-9.649 -2.18,-18.52 V 87.9805 c 0,-4.3203 -0.93,-7.6016 -2.84,-9.7813 -1.87,-2.1601 -4.39,-3.25 -7.48,-3.25 -2.97,0 -5.39,1.0899 -7.23,3.25 -1.87,2.1797 -2.78,5.461 -2.78,9.7813 V 120.91 c 0,5.172 -0.19,9.199 -0.53,12.11 -0.35,2.839 -1.25,5.21 -2.76,7.062 -1.46,1.848 -3.85,2.77 -7.07,2.77 -6.46,0 -10.72,-2.321 -12.79,-6.993 -2.07,-4.621 -3.05,-11.277 -3.05,-19.968 V 87.9805 c 0,-4.3086 -0.96,-7.5508 -2.79,-9.6992 -1.88,-2.2422 -4.33,-3.3321 -7.34,-3.3321 -3.01,0 -5.49,1.0899 -7.39,3.3321 -1.92,2.1484 -2.83,5.3906 -2.83,9.6875 v 59.0702 c 0,3.902 0.82,6.852 2.52,8.859 1.74,2 3.99,3.043 6.82,3.043 2.69,0 4.96,-0.941 6.75,-2.839 1.81,-1.883 2.72,-4.481 2.72,-7.821 v -1.961 c 3.42,4.289 7.1,7.45 10.99,9.442 3.91,2.008 8.31,3.027 13.05,3.027 4.96,0 9.22,-1.051 12.79,-3.129 3.6,-2.039 6.53,-5.168 8.83,-9.34 3.34,4.2 6.92,7.371 10.74,9.399 3.82,2.051 8.04,3.07 12.66,3.07 5.45,0 10.1,-1.078 13.99,-3.34 3.92,-2.219 6.83,-5.379 8.77,-9.519 1.7,-3.731 2.53,-9.598 2.53,-17.641 V 87.9805 c 0,-4.3203 -0.93,-7.6016 -2.79,-9.7813 -1.92,-2.1601 -4.38,-3.25 -7.48,-3.25 -3.01,0 -5.45,1.0899 -7.34,3.3321 -1.94,2.1484 -2.89,5.3906 -2.89,9.6992 v 34.7305 c 0,4.449 -0.18,7.988 -0.53,10.668 -0.37,2.703 -1.35,4.91 -2.96,6.742 -1.58,1.809 -4.01,2.731 -7.22,2.731 -2.6,0 -5.09,-0.821 -7.4,-2.391 -2.38,-1.641 -4.16,-3.813 -5.49,-6.531 v 0"
         style="fill:#201e20;fill-opacity:1;fill-rule:nonzero;stroke:none"
         transform="matrix(0.13333333,0,0,-0.13333333,0,666.66667)" />
      <path
         id="path25"
         d="m 2358.15,116.48 c -2.91,-1.128 -7.12,-2.269 -12.65,-3.531 -5.54,-1.23 -9.37,-2.129 -11.5,-2.73 -2.12,-0.59 -4.16,-1.707 -6.06,-3.379 -1.95,-1.738 -2.93,-4.09 -2.93,-7.1095 0,-3.1602 1.15,-5.7891 3.4,-7.9883 2.28,-2.2227 5.26,-3.293 8.93,-3.293 3.91,0 7.54,0.9102 10.83,2.6914 3.31,1.7813 5.77,4.1094 7.28,6.918 1.8,3.1324 2.7,8.2614 2.7,15.4804 z m 1.29,-29.898 c -4.79,-3.8828 -9.41,-6.7929 -13.87,-8.7031 -4.46,-1.9687 -9.5,-2.9297 -15.02,-2.9297 -5.11,0 -9.52,1.0703 -13.39,3.1211 -3.87,2.1094 -6.8,4.9492 -8.89,8.5586 -2.05,3.582 -3.11,7.4219 -3.11,11.6211 0,5.66 1.75,10.449 5.17,14.449 3.4,3.949 8.11,6.641 14.09,8 1.26,0.313 4.4,0.961 9.34,2.012 5.03,1.098 9.25,2.051 12.85,2.918 3.52,0.871 7.39,1.953 11.54,3.203 -0.25,5.469 -1.29,9.457 -3.14,12.059 -1.88,2.519 -5.76,3.769 -11.57,3.769 -5.05,0 -8.81,-0.711 -11.38,-2.18 -2.52,-1.441 -4.71,-3.66 -6.49,-6.621 -1.84,-2.898 -3.09,-4.839 -3.84,-5.757 -0.77,-0.961 -2.38,-1.383 -4.81,-1.383 -2.25,0 -4.16,0.73 -5.76,2.203 -1.64,1.5 -2.44,3.379 -2.44,5.726 0,3.622 1.23,7.184 3.68,10.563 2.47,3.437 6.32,6.258 11.53,8.508 5.21,2.222 11.72,3.32 19.51,3.32 8.67,0 15.52,-1.098 20.52,-3.23 4.97,-2.118 8.44,-5.489 10.51,-10.168 2.07,-4.602 3.09,-10.782 3.09,-18.43 0,-4.84 0,-8.981 -0.03,-12.34 -0.04,-3.402 -0.06,-7.152 -0.11,-11.281 0,-3.8595 0.62,-7.9298 1.86,-12.1212 1.2,-4.1993 1.81,-6.9297 1.81,-8.1094 0,-2.1289 -0.96,-4.0586 -2.86,-5.8008 -1.86,-1.7266 -4.05,-2.6094 -6.45,-2.6094 -2.06,0 -4.03,0.9805 -6.04,2.9727 -1.97,2 -4.07,4.8984 -6.3,8.6601"
         style="fill:#201e20;fill-opacity:1;fill-rule:nonzero;stroke:none"
         transform="matrix(0.13333333,0,0,-0.13333333,0,666.66667)" />
      <path
         id="path26"
         d="M 2417.43,147.148 V 87.5195 c 0,-4.1601 -0.95,-7.289 -2.8,-9.3984 -1.89,-2.082 -4.26,-3.1719 -7.17,-3.1719 -2.89,0 -5.27,1.0899 -7.06,3.2422 -1.84,2.1875 -2.74,5.2774 -2.74,9.3281 v 59.0395 c 0,4.05 0.9,7.132 2.74,9.203 1.79,2.09 4.17,3.117 7.06,3.117 2.91,0 5.28,-1.027 7.17,-3.117 1.85,-2.071 2.8,-4.93 2.8,-8.614 z m -9.77,21.352 c -2.73,0 -5.07,0.871 -7.03,2.68 -1.96,1.761 -2.97,4.281 -2.97,7.511 0,2.911 1.02,5.289 3.03,7.219 1.99,1.891 4.34,2.781 6.97,2.781 2.56,0 4.86,-0.832 6.84,-2.531 1.96,-1.719 2.93,-4.238 2.93,-7.469 0,-3.199 -0.95,-5.679 -2.89,-7.453 -1.93,-1.789 -4.23,-2.738 -6.88,-2.738"
         style="fill:#201e20;fill-opacity:1;fill-rule:nonzero;stroke:none"
         transform="matrix(0.13333333,0,0,-0.13333333,0,666.66667)" />
      <path
         id="path27"
         d="m 2455.87,147.449 v -2.461 c 3.46,4.774 7.26,8.282 11.36,10.524 4.14,2.226 8.88,3.367 14.27,3.367 5.19,0 9.88,-1.168 14.01,-3.578 4.06,-2.352 7.15,-5.68 9.16,-10 1.32,-2.551 2.14,-5.289 2.55,-8.199 0.36,-2.903 0.58,-6.633 0.58,-11.18 V 87.5195 c 0,-4.1601 -0.93,-7.289 -2.73,-9.3984 -1.82,-2.082 -4.18,-3.1719 -7.06,-3.1719 -2.94,0 -5.34,1.0899 -7.11,3.25 -1.87,2.1797 -2.8,5.2696 -2.8,9.3203 v 34.3715 c 0,6.847 -0.88,12.039 -2.69,15.629 -1.85,3.601 -5.47,5.429 -10.88,5.429 -3.51,0 -6.73,-1.097 -9.62,-3.308 -2.89,-2.172 -5.02,-5.2 -6.37,-9.032 -0.96,-3.078 -1.47,-8.8 -1.47,-17.269 V 87.5195 c 0,-4.1875 -0.91,-7.3398 -2.78,-9.4492 -1.87,-2.0508 -4.27,-3.1211 -7.2,-3.1211 -2.83,0 -5.2,1.0899 -7.02,3.2422 -1.87,2.1875 -2.77,5.2774 -2.77,9.3281 v 59.6285 c 0,3.954 0.82,6.852 2.49,8.813 1.6,1.937 3.9,2.918 6.73,2.918 1.71,0 3.3,-0.457 4.68,-1.289 1.45,-0.84 2.53,-2.168 3.38,-3.82 0.82,-1.758 1.29,-3.848 1.29,-6.321"
         style="fill:#201e20;fill-opacity:1;fill-rule:nonzero;stroke:none"
         transform="matrix(0.13333333,0,0,-0.13333333,0,666.66667)" />
      <path
         id="path28"
         d="m 2539.54,146.039 15.98,-46.8788 17.24,48.9218 c 1.38,3.93 2.7,6.688 4.02,8.34 1.34,1.629 3.28,2.457 5.93,2.457 2.5,0 4.63,-0.879 6.44,-2.68 1.73,-1.75 2.62,-3.758 2.62,-6.129 0,-0.89 -0.18,-1.941 -0.49,-3.121 -0.28,-1.238 -0.65,-2.367 -1.07,-3.449 -0.42,-1.02 -0.85,-2.25 -1.42,-3.602 L 2569.81,90.75 c -0.53,-1.3906 -1.24,-3.2109 -2.06,-5.3906 -0.86,-2.1485 -1.81,-3.9571 -2.83,-5.5703 -1.05,-1.5078 -2.32,-2.668 -3.83,-3.5391 -1.55,-0.8594 -3.39,-1.3008 -5.57,-1.3008 -2.81,0 -5.02,0.6719 -6.71,1.9805 -1.67,1.3516 -2.9,2.8008 -3.69,4.4219 -0.78,1.5586 -2.15,4.707 -4.02,9.3984 l -18.85,48.621 c -0.43,1.188 -0.9,2.41 -1.37,3.621 -0.44,1.207 -0.79,2.406 -1.13,3.699 -0.31,1.289 -0.48,2.36 -0.48,3.231 0,1.449 0.41,2.828 1.25,4.219 0.82,1.398 1.96,2.55 3.4,3.41 1.47,0.871 3,1.328 4.72,1.328 3.26,0 5.53,-0.981 6.77,-2.981 1.24,-1.949 2.63,-5.25 4.13,-9.859"
         style="fill:#201e20;fill-opacity:1;fill-rule:nonzero;stroke:none"
         transform="matrix(0.13333333,0,0,-0.13333333,0,666.66667)" />
      <path
         id="path29"
         d="m 2620.44,123.609 h 35.85 c -0.46,7.032 -2.27,12.321 -5.46,15.801 -3.17,3.488 -7.34,5.25 -12.52,5.25 -4.89,0 -8.95,-1.781 -12.1,-5.32 -3.16,-3.539 -5.06,-8.789 -5.77,-15.731 z m 38.69,-11.738 h -38.69 c 0.01,-4.711 0.96,-8.832 2.69,-12.4413 1.79,-3.5391 4.12,-6.25 7.05,-8.0781 2.92,-1.8321 6.15,-2.711 9.68,-2.711 2.36,0 4.54,0.2891 6.47,0.8516 1.95,0.6094 3.87,1.5078 5.72,2.7266 1.81,1.2421 3.48,2.5312 5.04,3.9921 1.52,1.4102 3.59,3.2891 6.02,5.7191 1.02,0.961 2.48,1.379 4.34,1.379 2.06,0 3.68,-0.559 4.94,-1.75 1.26,-1.161 1.86,-2.7777 1.86,-4.8871 0,-1.8828 -0.69,-4.0508 -2.1,-6.5703 -1.39,-2.461 -3.46,-4.8828 -6.34,-7.1914 -2.83,-2.2813 -6.38,-4.1485 -10.65,-5.6993 -4.25,-1.5117 -9.14,-2.2617 -14.75,-2.2617 -12.69,0 -22.58,3.8125 -29.6,11.3321 -7.04,7.6093 -10.56,17.8277 -10.56,30.7577 0,6.172 0.9,11.793 2.6,16.992 1.74,5.239 4.26,9.699 7.6,13.418 3.34,3.75 7.42,6.633 12.31,8.59 4.91,2.012 10.29,3 16.25,3 7.68,0 14.33,-1.699 19.86,-5.117 5.54,-3.402 9.67,-7.774 12.43,-13.152 2.75,-5.43 4.13,-10.899 4.13,-16.528 0,-5.16 -1.39,-8.531 -4.27,-10.051 -2.87,-1.562 -6.85,-2.32 -12.03,-2.32"
         style="fill:#201e20;fill-opacity:1;fill-rule:nonzero;stroke:none"
         transform="matrix(0.13333333,0,0,-0.13333333,0,666.66667)" />
      <path
         id="path30"
         d="m 2763.06,100.52 c 0,-2.5591 -0.74,-5.3208 -2.24,-8.2387 -1.48,-2.9219 -3.68,-5.6993 -6.73,-8.3516 -3.01,-2.6406 -6.84,-4.7695 -11.44,-6.3711 -4.56,-1.6484 -9.76,-2.4375 -15.46,-2.4375 -12.26,0 -21.8,3.7305 -28.65,11.1484 -6.83,7.4414 -10.29,17.3785 -10.29,29.8905 0,8.469 1.56,15.981 4.73,22.461 3.14,6.469 7.65,11.539 13.6,15.07 5.92,3.579 13.05,5.348 21.32,5.348 5.12,0 9.8,-0.797 14.1,-2.34 4.27,-1.57 7.86,-3.597 10.87,-6.051 2.97,-2.476 5.22,-5.109 6.81,-7.898 1.55,-2.789 2.34,-5.41 2.34,-7.828 0,-2.442 -0.86,-4.531 -2.68,-6.262 -1.74,-1.73 -3.87,-2.578 -6.38,-2.578 -1.65,0 -3.01,0.477 -4.07,1.359 -1.12,0.848 -2.33,2.239 -3.69,4.25 -2.42,3.821 -4.93,6.707 -7.56,8.661 -2.64,1.898 -5.98,2.878 -10.05,2.878 -5.81,0 -10.54,-2.421 -14.1,-7.179 -3.61,-4.789 -5.38,-11.289 -5.38,-19.571 0,-3.851 0.48,-7.468 1.36,-10.699 0.93,-3.261 2.27,-6.0193 4.02,-8.3318 1.72,-2.289 3.84,-4.0195 6.3,-5.1992 2.43,-1.2109 5.14,-1.7891 8.11,-1.7891 3.96,0 7.36,0.9414 10.19,2.8594 2.81,1.9297 5.33,4.8594 7.51,8.7497 1.21,2.371 2.49,4.168 3.9,5.5 1.39,1.321 3.09,1.942 5.15,1.942 2.38,0 4.42,-0.942 5.96,-2.852 1.63,-1.949 2.45,-3.969 2.45,-6.14"
         style="fill:#201e20;fill-opacity:1;fill-rule:nonzero;stroke:none"
         transform="matrix(0.13333333,0,0,-0.13333333,0,666.66667)" />
      <path
         id="path31"
         d="m 2781.42,157.141 h 2.17 v 12.41 c 0,3.301 0.09,5.941 0.27,7.808 0.16,1.903 0.6,3.493 1.41,4.883 0.76,1.379 1.87,2.547 3.34,3.438 1.44,0.859 3.05,1.281 4.84,1.281 2.5,0 4.78,-0.961 6.79,-2.922 1.33,-1.328 2.21,-2.91 2.57,-4.777 0.37,-1.903 0.54,-4.614 0.54,-8.082 v -14.039 h 7.27 c 2.8,0 4.95,-0.7 6.41,-2.09 1.51,-1.391 2.22,-3.153 2.22,-5.321 0,-2.781 -1.05,-4.742 -3.18,-5.828 -2.09,-1.093 -5.09,-1.652 -9.01,-1.652 h -3.71 v -38.02 c 0,-3.23 0.12,-5.7183 0.32,-7.48 0.26,-1.75 0.87,-3.168 1.79,-4.2187 0.91,-1.0821 2.45,-1.6524 4.59,-1.6524 1.15,0 2.71,0.2031 4.72,0.6524 1.93,0.4179 3.48,0.6406 4.61,0.6406 1.59,0 3.07,-0.7031 4.33,-1.961 1.25,-1.3789 1.91,-3 1.91,-4.9921 0,-3.3086 -1.7,-5.8477 -5.21,-7.6172 -3.52,-1.7696 -8.5,-2.6524 -14.99,-2.6524 -6.19,0 -10.89,1.0899 -14.07,3.25 -3.18,2.1797 -5.3,5.1602 -6.25,9.043 -1.02,3.8164 -1.51,8.9297 -1.51,15.3398 v 39.668 h -2.62 c -2.81,0 -4.98,0.699 -6.5,2.121 -1.5,1.41 -2.23,3.18 -2.23,5.359 0,2.168 0.77,3.93 2.32,5.321 1.59,1.39 3.86,2.09 6.86,2.09"
         style="fill:#201e20;fill-opacity:1;fill-rule:nonzero;stroke:none"
         transform="matrix(0.13333333,0,0,-0.13333333,0,666.66667)" />
      <path
         id="path32"
         d="m 2887.02,116.871 c 0,8.391 -1.8,14.969 -5.32,19.649 -3.58,4.66 -8.31,7.031 -14.32,7.031 -3.87,0 -7.27,-1.051 -10.2,-3.141 -2.97,-2.121 -5.24,-5.199 -6.82,-9.289 -1.59,-4.039 -2.4,-8.781 -2.4,-14.25 0,-5.402 0.81,-10.09 2.37,-14.121 1.56,-4.0312 3.8,-7.1211 6.72,-9.2578 2.91,-2.1406 6.36,-3.2031 10.33,-3.2031 6.01,0 10.74,2.3515 14.32,7.0507 3.52,4.6992 5.32,11.2302 5.32,19.5312 z m 19.86,0 c 0,-6.109 -0.91,-11.789 -2.78,-17.0194 -1.81,-5.1407 -4.49,-9.6211 -7.95,-13.3633 -3.48,-3.7383 -7.64,-6.5274 -12.46,-8.5664 -4.84,-1.9922 -10.24,-2.9727 -16.31,-2.9727 -6.01,0 -11.4,0.9805 -16.17,3.0313 -4.76,2 -8.92,4.8906 -12.42,8.6484 -3.49,3.7695 -6.15,8.1602 -7.94,13.2813 -1.81,5.1598 -2.7,10.7698 -2.7,16.9998 0,6.25 0.89,11.969 2.7,17.129 1.87,5.231 4.47,9.633 7.9,13.34 3.46,3.672 7.6,6.512 12.46,8.492 4.93,2 10.3,3.008 16.17,3.008 6.01,0 11.41,-1.008 16.31,-3.039 4.87,-2 9.03,-4.899 12.52,-8.629 3.45,-3.719 6.14,-8.191 7.95,-13.332 1.81,-5.129 2.72,-10.797 2.72,-17.008"
         style="fill:#201e20;fill-opacity:1;fill-rule:nonzero;stroke:none"
         transform="matrix(0.13333333,0,0,-0.13333333,0,666.66667)" />
      <path
         id="path33"
         d="M 2942.11,104.711 V 87.5195 c 0,-4.1875 -0.95,-7.3398 -2.83,-9.4492 -1.9,-2.0508 -4.28,-3.1211 -7.2,-3.1211 -2.81,0 -5.19,1.0899 -7,3.1719 -1.84,2.1094 -2.74,5.2383 -2.74,9.3984 v 57.4495 c 0,9.293 3.2,13.91 9.62,13.91 3.25,0 5.64,-1.109 7.11,-3.25 1.43,-2.16 2.19,-5.379 2.39,-9.59 2.35,4.211 4.8,7.43 7.29,9.59 2.49,2.141 5.79,3.25 9.92,3.25 4.19,0 8.21,-1.109 12.14,-3.25 3.89,-2.16 5.87,-5.047 5.87,-8.617 0,-2.52 -0.86,-4.633 -2.52,-6.242 -1.65,-1.629 -3.46,-2.481 -5.41,-2.481 -0.71,0 -2.47,0.481 -5.24,1.441 -2.8,0.911 -5.25,1.391 -7.39,1.391 -2.87,0 -5.23,-0.769 -7.05,-2.391 -1.84,-1.609 -3.28,-3.941 -4.28,-7.05 -1.02,-3.16 -1.75,-6.871 -2.11,-11.2 -0.38,-4.281 -0.57,-9.519 -0.57,-15.769"
         style="fill:#201e20;fill-opacity:1;fill-rule:nonzero;stroke:none"
         transform="matrix(0.13333333,0,0,-0.13333333,0,666.66667)" />
      <path
         id="path34"
         d="m 3047.46,101.922 c 0,-5.7111 -1.33,-10.5704 -4.01,-14.6329 -2.67,-4.0782 -6.58,-7.1094 -11.78,-9.2305 -5.21,-2.0391 -11.5,-3.1094 -18.98,-3.1094 -7.05,0 -13.17,1.1328 -18.26,3.4219 -5.06,2.2578 -8.81,5.0781 -11.21,8.4805 -2.44,3.3789 -3.68,6.7968 -3.68,10.207 0,2.2734 0.79,4.2224 2.37,5.8324 1.54,1.64 3.51,2.41 5.84,2.41 2.09,0 3.71,-0.531 4.81,-1.563 1.11,-1.117 2.15,-2.578 3.19,-4.488 2.02,-3.6914 4.44,-6.4414 7.31,-8.25 2.78,-1.8398 6.64,-2.7383 11.56,-2.7383 3.93,0 7.19,0.9297 9.74,2.7774 2.52,1.832 3.82,3.9297 3.82,6.3007 0,3.6602 -1.33,6.3082 -3.94,7.9492 -2.68,1.703 -6.98,3.281 -13.03,4.793 -6.81,1.77 -12.36,3.617 -16.64,5.539 -4.28,1.961 -7.73,4.539 -10.27,7.711 -2.56,3.129 -3.86,7.059 -3.86,11.699 0,4.16 1.19,8.071 3.56,11.719 2.36,3.691 5.89,6.621 10.49,8.82 4.61,2.2 10.17,3.309 16.72,3.309 5.1,0 9.7,-0.57 13.8,-1.668 4.07,-1.109 7.53,-2.609 10.21,-4.461 2.73,-1.871 4.83,-3.93 6.24,-6.191 1.45,-2.289 2.15,-4.508 2.15,-6.661 0,-2.378 -0.74,-4.277 -2.29,-5.859 -1.53,-1.437 -3.71,-2.207 -6.47,-2.207 -2.06,0 -3.78,0.59 -5.22,1.828 -1.4,1.192 -3.06,2.988 -4.87,5.379 -1.51,2.02 -3.26,3.66 -5.31,4.863 -2.03,1.188 -4.78,1.809 -8.24,1.809 -3.58,0 -6.58,-0.781 -8.91,-2.391 -2.38,-1.57 -3.57,-3.558 -3.57,-5.941 0,-2.168 0.88,-3.938 2.59,-5.328 1.77,-1.391 4.09,-2.539 7.05,-3.449 2.97,-0.903 7.01,-2.043 12.19,-3.34 6.14,-1.551 11.14,-3.403 15.04,-5.582 3.88,-2.149 6.82,-4.719 8.82,-7.668 2.04,-2.981 3.04,-6.34 3.04,-10.09"
         style="fill:#201e20;fill-opacity:1;fill-rule:nonzero;stroke:none"
         transform="matrix(0.13333333,0,0,-0.13333333,0,666.66667)" />
      <path
         id="path35"
         d="m 3069.92,74.9492 c -3,0 -5.58,0.9805 -7.73,3.0313 -2.21,2 -3.28,4.8398 -3.28,8.4414 0,3.0703 1.01,5.7187 3.07,7.9492 2.08,2.1992 4.66,3.2891 7.71,3.2891 3.02,0 5.63,-1.0899 7.73,-3.2891 2.18,-2.1523 3.26,-4.8516 3.26,-7.9492 0,-3.5703 -1.08,-6.3828 -3.26,-8.4102 -2.1,-2.0429 -4.61,-3.0625 -7.5,-3.0625"
         style="fill:#201e20;fill-opacity:1;fill-rule:nonzero;stroke:none"
         transform="matrix(0.13333333,0,0,-0.13333333,0,666.66667)" />
      <path
         id="path36"
         d="m 3157.38,116.871 c 0,8.391 -1.78,14.969 -5.33,19.649 -3.55,4.66 -8.31,7.031 -14.29,7.031 -3.87,0 -7.24,-1.051 -10.2,-3.141 -2.96,-2.121 -5.23,-5.199 -6.81,-9.289 -1.57,-4.039 -2.38,-8.781 -2.38,-14.25 0,-5.402 0.76,-10.09 2.32,-14.121 1.61,-4.0312 3.84,-7.1211 6.77,-9.2578 2.91,-2.1406 6.34,-3.2031 10.3,-3.2031 5.98,0 10.74,2.3515 14.29,7.0507 3.55,4.6992 5.33,11.2302 5.33,19.5312 z m 19.88,0 c 0,-6.109 -0.91,-11.789 -2.78,-17.0194 -1.84,-5.1407 -4.47,-9.6211 -7.96,-13.3633 -3.5,-3.7383 -7.6,-6.5274 -12.46,-8.5664 -4.81,-1.9922 -10.24,-2.9727 -16.3,-2.9727 -5.98,0 -11.36,0.9805 -16.15,3.0313 -4.78,2 -8.9,4.8906 -12.4,8.6484 -3.56,3.7695 -6.19,8.1602 -8.03,13.2813 -1.77,5.1598 -2.67,10.7698 -2.67,16.9998 0,6.25 0.9,11.969 2.75,17.129 1.87,5.231 4.45,9.633 7.87,13.34 3.43,3.672 7.59,6.512 12.48,8.492 4.87,2 10.23,3.008 16.15,3.008 5.98,0 11.42,-1.008 16.3,-3.039 4.9,-2 9.07,-4.899 12.55,-8.629 3.46,-3.719 6.1,-8.191 7.93,-13.332 1.81,-5.129 2.72,-10.797 2.72,-17.008"
         style="fill:#201e20;fill-opacity:1;fill-rule:nonzero;stroke:none"
         transform="matrix(0.13333333,0,0,-0.13333333,0,666.66667)" />
      <path
         id="path37"
         d="M 3212.48,104.711 V 87.5195 c 0,-4.1875 -0.94,-7.3398 -2.82,-9.4492 -1.86,-2.0508 -4.28,-3.1211 -7.15,-3.1211 -2.89,0 -5.21,1.0899 -7.05,3.1719 -1.86,2.1094 -2.76,5.2383 -2.76,9.3984 v 57.4495 c 0,9.293 3.25,13.91 9.64,13.91 3.29,0 5.64,-1.109 7.08,-3.25 1.43,-2.16 2.28,-5.379 2.45,-9.59 2.32,4.211 4.74,7.43 7.23,9.59 2.49,2.141 5.82,3.25 9.94,3.25 4.22,0 8.25,-1.109 12.12,-3.25 3.92,-2.16 5.89,-5.047 5.89,-8.617 0,-2.52 -0.84,-4.633 -2.49,-6.242 -1.69,-1.629 -3.46,-2.481 -5.43,-2.481 -0.7,0 -2.44,0.481 -5.21,1.441 -2.8,0.911 -5.25,1.391 -7.4,1.391 -2.88,0 -5.22,-0.769 -7.11,-2.391 -1.8,-1.609 -3.24,-3.941 -4.26,-7.05 -0.99,-3.16 -1.7,-6.871 -2.07,-11.2 -0.39,-4.281 -0.6,-9.519 -0.6,-15.769"
         style="fill:#201e20;fill-opacity:1;fill-rule:nonzero;stroke:none"
         transform="matrix(0.13333333,0,0,-0.13333333,0,666.66667)" />
      <path
         id="path38"
         d="m 3269.59,117.59 c 0,-8.348 1.76,-14.692 5.27,-19.0002 3.48,-4.25 8.04,-6.4179 13.56,-6.4179 3.26,0 6.4,0.9492 9.31,2.789 2.93,1.8477 5.31,4.6094 7.15,8.3201 1.86,3.711 2.75,8.188 2.75,13.481 0,8.418 -1.79,14.957 -5.34,19.64 -3.53,4.719 -8.21,7.09 -14,7.09 -5.63,0 -10.17,-2.312 -13.56,-6.762 -3.43,-4.5 -5.14,-10.871 -5.14,-19.14 z m 57.33,26.18 V 83.7813 c 0,-6.8829 -0.75,-12.7618 -2.12,-17.6797 -1.4,-4.9727 -3.65,-9.0508 -6.73,-12.2696 -3.09,-3.2109 -7.16,-5.6132 -12.12,-7.1718 -5.01,-1.5313 -11.24,-2.3204 -18.66,-2.3204 -6.83,0 -12.93,0.9493 -18.27,2.9493 -5.37,2.0429 -9.51,4.582 -12.4,7.75 -2.89,3.1093 -4.35,6.3711 -4.35,9.7226 0,2.5196 0.8,4.5586 2.49,6.1367 1.62,1.6329 3.6,2.4102 5.91,2.4102 2.91,0 5.41,-1.3477 7.63,-4 1.07,-1.4102 2.18,-2.7695 3.28,-4.1289 1.13,-1.3984 2.39,-2.6094 3.76,-3.5703 1.39,-1.0078 3.07,-1.7305 4.99,-2.2188 1.9,-0.4687 4.15,-0.7187 6.67,-0.7187 5.08,0 9.1,0.7578 11.91,2.2383 2.83,1.4804 4.81,3.5586 5.96,6.2304 1.09,2.668 1.81,5.5196 1.93,8.5703 0.23,3.1094 0.37,7.961 0.5,14.75 -3.04,-4.4218 -6.61,-7.8086 -10.55,-10.1289 -3.99,-2.3203 -8.75,-3.4609 -14.21,-3.4609 -6.68,0 -12.46,1.7305 -17.38,5.2891 -4.97,3.5195 -8.78,8.4492 -11.43,14.8203 -2.63,6.3285 -3.98,13.6605 -3.98,21.9885 0,6.242 0.79,11.84 2.44,16.832 1.58,4.969 3.87,9.187 6.92,12.621 2.96,3.43 6.44,6.008 10.34,7.758 3.94,1.718 8.19,2.609 12.91,2.609 5.58,0 10.43,-1.137 14.53,-3.398 4.16,-2.211 7.93,-5.77 11.47,-10.539 v 2.777 c 0,3.601 0.88,6.34 2.54,8.383 1.68,1.929 3.87,2.929 6.51,2.929 3.83,0 6.36,-1.289 7.63,-3.89 1.24,-2.61 1.88,-6.379 1.88,-11.281"
         style="fill:#201e20;fill-opacity:1;fill-rule:nonzero;stroke:none"
         transform="matrix(0.13333333,0,0,-0.13333333,0,666.66667)" />
      <path
         id="path39"
         d="m 2469.66,344.77 h 29.33 c -2.07,-15.809 -8.55,-28.161 -19.33,-37.051 -9.97,-8.699 -22.05,-12.989 -36.16,-12.989 -19.16,0 -34.46,6.731 -45.87,20.161 -10.82,12.781 -16.22,29.281 -16.22,49.429 0,20.649 5.36,37.149 16.06,49.66 10.69,12.45 25.82,18.711 45.37,18.711 14.54,0 26.85,-3.941 36.82,-11.742 10.58,-8.437 17.05,-20.301 19.33,-35.469 h -29.33 c -2.54,13.239 -10.62,19.821 -24.38,19.821 -22.67,0 -34.03,-13.43 -34.03,-40.301 0,-12.602 2.92,-22.871 8.75,-30.891 5.83,-8.039 14.05,-12.058 24.66,-12.058 15.81,0 24.15,7.59 25,22.719 z m -115.49,18.511 c 0,-26.261 8.33,-48.492 24.95,-66.59 16.65,-18.109 37.02,-27.171 61.2,-27.171 24.07,0 44.47,9.062 61.09,27.171 16.67,18.098 24.94,40.329 24.94,66.59 0,26.239 -8.27,48.449 -24.94,66.559 -16.62,18.152 -37.02,27.191 -61.09,27.191 -24.18,0 -44.55,-9.039 -61.2,-27.191 -16.62,-18.11 -24.95,-40.32 -24.95,-66.559 z m -29.8,0 c 0,33.41 11.3,61.93 33.93,85.621 22.66,23.649 50,35.469 82.02,35.469 31.95,0 59.25,-11.82 81.93,-35.469 22.64,-23.691 33.98,-52.211 33.98,-85.621 0,-33.441 -11.34,-61.992 -33.98,-85.629 -22.68,-23.683 -49.98,-35.511 -81.93,-35.511 -32.02,0 -59.36,11.828 -82.02,35.511 -22.63,23.637 -33.93,52.188 -33.93,85.629"
         style="fill:#201e20;fill-opacity:1;fill-rule:nonzero;stroke:none"
         transform="matrix(0.13333333,0,0,-0.13333333,0,666.66667)" />
      <path
         id="path40"
         d="m 2371.28,287.332 16.91,-14.34 124.34,159.668 -16.9,14.32 -124.35,-159.648"
         style="fill:#201e20;fill-opacity:1;fill-rule:nonzero;stroke:none"
         transform="matrix(0.13333333,0,0,-0.13333333,0,666.66667)" />
    </g>
  </g>
</svg>
