<?xml version="1.0" encoding="UTF-8" standalone="no"?>
<!-- Created with Inkscape (http://www.inkscape.org/) -->

<svg
   version="1.1"
   id="svg1"
   width="666.65332"
   height="666.65332"
   viewBox="0 0 666.65332 666.65332"
   sodipodi:docname="designer-workspace.svg"
   inkscape:version="1.4 (e7c3feb100, 2024-10-09)"
   xmlns:inkscape="http://www.inkscape.org/namespaces/inkscape"
   xmlns:sodipodi="http://sodipodi.sourceforge.net/DTD/sodipodi-0.dtd"
   xmlns="http://www.w3.org/2000/svg"
   xmlns:svg="http://www.w3.org/2000/svg">
  <defs
     id="defs1" />
  <sodipodi:namedview
     id="namedview1"
     pagecolor="#505050"
     bordercolor="#ffffff"
     borderopacity="1"
     inkscape:showpageshadow="0"
     inkscape:pageopacity="0"
     inkscape:pagecheckerboard="1"
     inkscape:deskcolor="#d1d1d1"
     inkscape:zoom="1.2225245"
     inkscape:cx="333.73565"
     inkscape:cy="333.32666"
     inkscape:window-width="1920"
     inkscape:window-height="1002"
     inkscape:window-x="0"
     inkscape:window-y="0"
     inkscape:window-maximized="1"
     inkscape:current-layer="g1">
    <inkscape:page
       x="0"
       y="0"
       inkscape:label="1"
       id="page1"
       width="666.65332"
       height="666.65332"
       margin="0"
       bleed="0" />
  </sodipodi:namedview>
  <g
     id="g1"
     inkscape:groupmode="layer"
     inkscape:label="1">
    <g
       id="group-R5">
      <path
         id="path2"
         d="M 0,0 H 4999.94 V 4999.94 H 0 V 0"
         style="fill:#fbc6a4;fill-opacity:1;fill-rule:evenodd;stroke:none"
         transform="matrix(0.13333333,0,0,-0.13333333,0,666.65333)" />
      <path
         id="path3"
         d="m 1279.91,2748.18 -43.3,178.96 -0.04,-0.01 c -29.47,109.46 -82.72,209.38 -154.42,293.51 -71.77,84.22 -161.998,152.66 -265.337,199.08 -145.407,65.31 -260.192,175.03 -332.688,307.83 -72.516,132.82 -102.754,288.67 -79.082,446.22 23.684,157.58 98.402,297.68 206.766,403.33 108.336,105.63 250.285,176.78 408.431,196.46 158.1,19.67 313.14,-14.5 444.08,-90.35 130.91,-75.83 237.68,-193.36 299.3,-340.39 l -37.55,-15.59 c -58.07,138.56 -158.72,249.32 -282.12,320.82 -123.39,71.47 -269.59,103.66 -418.77,85.09 -149.129,-18.56 -282.946,-85.62 -385.047,-185.16 -102.086,-99.53 -172.496,-231.61 -194.828,-380.25 -22.336,-148.66 6.14,-295.62 74.465,-420.77 68.343,-125.18 176.539,-228.61 313.589,-290.16 109,-48.96 204.101,-121.07 279.671,-209.75 75.64,-88.76 131.79,-194.09 162.84,-309.41 l 0.09,-0.48 43.41,-179.43 -39.46,-9.55"
         style="fill:#2e2825;fill-opacity:1;fill-rule:evenodd;stroke:none"
         transform="matrix(0.13333333,0,0,-0.13333333,0,666.65333)" />
      <path
         id="path4"
         d="m 2895.41,2699.1 -140.82,21.85 c -40.92,6.35 -75.86,27.95 -99.7,58.25 -23.85,30.35 -36.62,69.4 -33.15,110.58 3.46,41.18 22.62,77.56 51.27,103.51 28.57,25.91 66.61,41.37 107.93,40.78 146.71,-2.08 297.07,-3.12 451.01,-3.12 153.95,0 304.31,1.04 451.02,3.12 166.32,2.36 319.81,64.3 438.36,166.7 118.54,102.42 202.13,245.29 228.63,409.51 26.51,164.29 -7.86,326.22 -88.17,460.71 -80.33,134.53 -206.54,241.62 -363.66,296.17 -157.15,54.57 -322.61,48.76 -469.04,-7.04 -146.4,-55.79 -273.77,-161.54 -354.71,-306.82 l -35.5,19.73 c 85.81,154 220.71,266.05 375.73,325.12 154.99,59.06 330.2,65.19 496.73,7.37 166.52,-57.82 300.26,-171.24 385.31,-313.68 85.06,-142.48 121.48,-313.97 93.41,-487.93 -28.09,-174.02 -116.6,-325.38 -242.16,-433.85 -125.57,-108.46 -288.17,-174.07 -464.45,-176.57 -154.09,-2.19 -304.6,-3.28 -451.5,-3.28 -146.89,0 -297.4,1.09 -451.49,3.28 -30.75,0.43 -59.02,-11.04 -80.25,-30.27 -21.16,-19.18 -35.31,-46.16 -37.91,-76.78 -2.56,-30.61 6.89,-59.6 24.59,-82.1 17.72,-22.53 43.64,-38.58 73.92,-43.28 l 140.81,-21.86 -6.21,-40.1"
         style="fill:#2e2825;fill-opacity:1;fill-rule:evenodd;stroke:none"
         transform="matrix(0.13333333,0,0,-0.13333333,0,666.65333)" />
      <path
         id="path5"
         d="m 212.641,2494.77 2110.699,516.38 c 49.14,12.02 99.18,-18.34 111.19,-67.48 l 189.89,-776.16 c 12.03,-49.14 -18.33,-99.17 -67.47,-111.2 L 446.238,1539.93 c -49.133,-12.02 -99.168,18.34 -111.195,67.48 l -189.887,776.15 c -12.019,49.14 18.344,99.18 67.485,111.21"
         style="fill:#463c3b;fill-opacity:1;fill-rule:evenodd;stroke:none"
         transform="matrix(0.13333333,0,0,-0.13333333,0,666.65333)" />
      <path
         id="path6"
         d="m 2265.95,2465.58 c 56.77,13.9 113.54,27.79 170.3,41.68 6.93,1.68 13.96,-2.58 15.65,-9.49 9.51,-38.86 19.01,-77.71 28.52,-116.57 1.68,-6.89 -2.59,-13.94 -9.49,-15.64 -56.77,-13.88 -113.55,-27.77 -170.32,-41.66 -6.9,-1.69 -13.94,2.57 -15.63,9.49 -9.51,38.85 -19.01,77.71 -28.52,116.57 -1.68,6.9 2.58,13.94 9.49,15.62 z m -274.41,-67.11 c 56.78,13.87 113.55,27.76 170.31,41.66 6.91,1.68 13.95,-2.57 15.64,-9.49 7.06,-28.85 21.46,-87.71 28.52,-116.57 1.69,-6.9 -2.58,-13.94 -9.49,-15.63 -56.77,-13.9 -113.55,-27.79 -170.32,-41.67 -6.9,-1.69 -13.94,2.57 -15.62,9.49 -7.07,28.86 -21.47,87.71 -28.52,116.56 -1.7,6.91 2.58,13.95 9.48,15.65 z m -274.41,-67.15 c 56.78,13.88 113.54,27.79 170.32,41.68 6.91,1.68 13.94,-2.59 15.63,-9.5 7.06,-28.84 21.46,-87.72 28.53,-116.57 1.68,-6.91 -2.59,-13.94 -9.49,-15.62 -56.77,-13.89 -113.55,-27.79 -170.32,-41.68 -6.91,-1.68 -13.94,2.59 -15.63,9.49 -7.06,28.85 -21.46,87.72 -28.52,116.57 -1.7,6.92 2.57,13.95 9.48,15.63 z m -274.4,-67.13 c 56.77,13.89 113.54,27.78 170.31,41.67 6.91,1.69 13.94,-2.58 15.64,-9.49 7.05,-28.86 21.45,-87.71 28.52,-116.57 1.69,-6.91 -2.59,-13.94 -9.49,-15.64 -56.78,-13.89 -113.54,-27.76 -170.32,-41.65 -6.91,-1.7 -13.94,2.57 -15.63,9.48 -7.06,28.85 -21.46,87.72 -28.52,116.56 -1.69,6.91 2.58,13.95 9.49,15.64 z m -274.41,-67.13 c 56.77,13.89 113.54,27.78 170.32,41.66 6.91,1.7 13.94,-2.57 15.63,-9.47 7.05,-28.86 21.45,-87.73 28.51,-116.59 1.7,-6.9 -2.57,-13.94 -9.48,-15.62 -56.77,-13.9 -113.54,-27.79 -170.32,-41.67 -6.91,-1.69 -13.94,2.58 -15.63,9.48 -7.06,28.86 -21.46,87.72 -28.52,116.57 -1.69,6.91 2.58,13.95 9.49,15.64 z m -274.41,-67.14 c 56.774,13.89 113.55,27.78 170.32,41.67 6.9,1.68 13.94,-2.58 15.63,-9.48 7.06,-28.86 21.46,-87.73 28.52,-116.57 1.69,-6.92 -2.58,-13.95 -9.49,-15.64 -56.77,-13.89 -113.538,-27.78 -170.304,-41.67 -6.914,-1.69 -13.945,2.58 -15.637,9.49 -7.058,28.85 -21.465,87.72 -28.519,116.58 -1.696,6.9 2.578,13.93 9.48,15.62 z M 345.102,1995.65 c 56.773,13.9 113.546,27.79 170.312,41.67 6.91,1.69 13.941,-2.58 15.633,-9.48 9.512,-38.87 19.016,-77.71 28.523,-116.57 1.692,-6.91 -2.582,-13.95 -9.488,-15.64 -56.777,-13.88 -113.539,-27.77 -170.316,-41.67 -6.907,-1.69 -13.942,2.58 -15.629,9.49 -9.508,38.85 -19.016,77.71 -28.524,116.57 -1.691,6.91 2.578,13.94 9.489,15.63 z m 1975.148,247.98 170.31,41.67 c 6.92,1.69 13.94,-2.59 15.64,-9.48 l 28.52,-116.58 c 1.69,-6.91 -2.58,-13.94 -9.49,-15.63 l -170.32,-41.67 c -6.9,-1.68 -13.94,2.58 -15.63,9.49 L 2310.76,2228 c -1.68,6.91 2.57,13.95 9.49,15.63 z m -274.4,-67.13 c 56.77,13.9 113.53,27.79 170.3,41.66 6.92,1.69 13.94,-2.58 15.65,-9.48 7.05,-28.86 21.45,-87.71 28.5,-116.56 1.7,-6.92 -2.57,-13.95 -9.47,-15.65 -56.78,-13.88 -113.55,-27.76 -170.33,-41.66 -6.9,-1.7 -13.94,2.57 -15.62,9.49 -7.07,28.84 -21.47,87.71 -28.52,116.57 -1.7,6.9 2.58,13.94 9.49,15.63 z m -274.41,-67.13 c 56.77,13.89 113.54,27.77 170.31,41.66 6.9,1.7 13.94,-2.56 15.63,-9.48 7.06,-28.86 21.46,-87.71 28.52,-116.57 1.7,-6.91 -2.57,-13.95 -9.48,-15.64 -56.77,-13.88 -113.54,-27.78 -170.32,-41.67 -6.91,-1.69 -13.94,2.58 -15.63,9.5 -7.07,28.85 -21.46,87.71 -28.52,116.56 -1.7,6.91 2.57,13.94 9.49,15.64 z m -274.41,-67.14 c 56.77,13.89 113.54,27.79 170.32,41.67 6.9,1.68 13.94,-2.58 15.62,-9.49 7.06,-28.85 21.46,-87.71 28.52,-116.56 1.7,-6.91 -2.57,-13.95 -9.49,-15.63 -56.76,-13.89 -113.53,-27.79 -170.31,-41.67 -6.9,-1.69 -13.94,2.57 -15.63,9.49 -7.06,28.84 -21.46,87.71 -28.51,116.56 -1.7,6.91 2.57,13.95 9.48,15.63 z m -274.41,-67.13 c 56.77,13.89 113.55,27.78 170.31,41.67 6.91,1.7 13.95,-2.58 15.63,-9.5 7.07,-28.84 21.47,-87.71 28.53,-116.56 1.69,-6.91 -2.58,-13.94 -9.49,-15.63 -56.77,-13.89 -113.54,-27.78 -170.31,-41.67 -6.91,-1.69 -13.95,2.57 -15.63,9.49 -7.07,28.85 -21.47,87.72 -28.53,116.56 -1.69,6.92 2.58,13.95 9.49,15.64 z m -274.401,-67.13 c 56.771,13.88 113.541,27.78 170.311,41.66 6.91,1.7 13.95,-2.57 15.64,-9.48 7.05,-28.85 21.45,-87.72 28.51,-116.58 1.69,-6.9 -2.58,-13.94 -9.49,-15.62 -56.76,-13.9 -113.54,-27.79 -170.307,-41.67 -6.91,-1.69 -13.942,2.58 -15.637,9.48 -7.058,28.86 -21.461,87.72 -28.516,116.57 -1.687,6.91 2.579,13.95 9.489,15.64 z m -548.817,-134.28 170.321,41.68 c 6.91,1.69 13.937,-2.59 15.629,-9.49 l 28.519,-116.57 c 1.688,-6.91 -2.586,-13.94 -9.492,-15.64 l -170.313,-41.66 c -6.902,-1.69 -13.937,2.58 -15.628,9.49 l -28.52,116.56 c -1.691,6.92 2.578,13.95 9.484,15.63 z m 274.407,67.15 c 56.773,13.89 113.546,27.77 170.316,41.66 6.906,1.69 13.938,-2.58 15.633,-9.48 7.058,-28.86 21.457,-87.73 28.519,-116.58 1.688,-6.9 -2.578,-13.94 -9.488,-15.63 -56.773,-13.89 -113.547,-27.77 -170.312,-41.67 -6.914,-1.69 -13.946,2.59 -15.633,9.49 -7.059,28.86 -21.461,87.72 -28.524,116.57 -1.687,6.91 2.578,13.94 9.489,15.64 z m 1537.831,846.71 170.32,41.67 c 6.91,1.69 13.95,-2.59 15.63,-9.49 l 28.52,-116.57 c 1.69,-6.91 -2.58,-13.94 -9.48,-15.63 l -170.32,-41.67 c -6.9,-1.68 -13.94,2.59 -15.64,9.49 l -28.52,116.56 c -1.68,6.92 2.59,13.95 9.49,15.64 z m -274.4,-67.14 c 56.77,13.89 113.55,27.78 170.31,41.68 6.92,1.68 13.94,-2.58 15.64,-9.49 7.05,-28.86 21.46,-87.73 28.51,-116.57 1.69,-6.92 -2.58,-13.94 -9.48,-15.64 -56.78,-13.88 -113.55,-27.77 -170.32,-41.67 -6.91,-1.68 -13.95,2.59 -15.63,9.49 -7.06,28.85 -21.47,87.72 -28.52,116.58 -1.69,6.9 2.59,13.94 9.49,15.62 z m -274.4,-67.13 c 56.77,13.9 113.54,27.78 170.3,41.66 6.91,1.7 13.94,-2.57 15.63,-9.48 7.07,-28.85 21.47,-87.71 28.53,-116.56 1.69,-6.92 -2.58,-13.94 -9.48,-15.64 -56.78,-13.9 -113.55,-27.77 -170.32,-41.66 -6.91,-1.7 -13.95,2.57 -15.63,9.48 -7.07,28.85 -21.46,87.71 -28.52,116.57 -1.69,6.91 2.57,13.94 9.49,15.63 z m -274.41,-67.13 c 56.77,13.88 113.54,27.78 170.31,41.67 6.91,1.69 13.95,-2.58 15.64,-9.49 7.05,-28.85 21.45,-87.72 28.51,-116.57 1.69,-6.91 -2.58,-13.95 -9.49,-15.63 -56.76,-13.89 -113.54,-27.78 -170.31,-41.67 -6.91,-1.69 -13.94,2.58 -15.63,9.48 -7.06,28.86 -21.46,87.73 -28.52,116.58 -1.69,6.91 2.58,13.93 9.49,15.63 z m -274.42,-67.14 c 56.78,13.89 113.55,27.79 170.32,41.67 6.91,1.68 13.94,-2.58 15.64,-9.49 7.05,-28.85 21.46,-87.71 28.52,-116.56 1.69,-6.92 -2.58,-13.95 -9.49,-15.64 -56.78,-13.88 -113.55,-27.77 -170.32,-41.67 -6.91,-1.69 -13.93,2.58 -15.63,9.49 -7.06,28.85 -21.46,87.72 -28.52,116.58 -1.69,6.9 2.58,13.93 9.48,15.62 z m -274.397,-67.13 c 56.774,13.89 113.539,27.78 170.317,41.66 6.91,1.7 13.94,-2.57 15.63,-9.48 7.06,-28.86 21.46,-87.71 28.52,-116.57 1.69,-6.91 -2.58,-13.94 -9.49,-15.64 -56.77,-13.87 -113.543,-27.77 -170.313,-41.66 -6.91,-1.69 -13.945,2.58 -15.632,9.5 -7.063,28.84 -21.461,87.71 -28.516,116.55 -1.691,6.91 2.574,13.95 9.484,15.64 z m -548.812,-134.26 170.312,41.66 c 6.91,1.7 13.946,-2.58 15.633,-9.49 l 28.52,-116.56 c 1.687,-6.9 -2.586,-13.95 -9.489,-15.64 l -170.312,-41.65 c -6.902,-1.7 -13.942,2.56 -15.629,9.47 l -28.52,116.57 c -1.691,6.91 2.575,13.94 9.485,15.64 z m 274.402,67.12 c 56.774,13.89 113.547,27.79 170.317,41.67 6.906,1.69 13.937,-2.57 15.632,-9.48 7.063,-28.86 21.461,-87.72 28.52,-116.57 1.691,-6.91 -2.578,-13.95 -9.484,-15.63 -56.774,-13.89 -113.547,-27.78 -170.317,-41.67 -6.91,-1.69 -13.941,2.57 -15.633,9.48 -7.054,28.86 -21.461,87.72 -28.519,116.58 -1.692,6.9 2.578,13.94 9.484,15.62 z m 1599.997,592.66 170.31,41.67 c 6.91,1.69 13.94,-2.58 15.63,-9.49 l 21.18,-86.55 c 1.69,-6.91 -2.57,-13.94 -9.49,-15.63 l -170.31,-41.67 c -6.91,-1.69 -13.95,2.58 -15.63,9.48 l -21.18,86.57 c -1.69,6.91 2.58,13.94 9.49,15.62 z m -274.4,-67.13 c 56.77,13.89 113.54,27.78 170.3,41.67 6.91,1.69 13.94,-2.58 15.64,-9.49 7.06,-28.85 14.11,-57.71 21.17,-86.56 1.69,-6.9 -2.57,-13.94 -9.48,-15.63 -56.77,-13.88 -113.54,-27.78 -170.31,-41.67 -6.92,-1.68 -13.95,2.59 -15.64,9.49 -7.06,28.85 -14.12,57.7 -21.17,86.56 -1.7,6.91 2.57,13.94 9.49,15.63 z m -274.42,-67.14 c 56.78,13.89 113.54,27.79 170.31,41.67 6.91,1.69 13.95,-2.57 15.64,-9.48 7.06,-28.85 14.12,-57.71 21.18,-86.56 1.69,-6.92 -2.58,-13.94 -9.49,-15.63 -56.78,-13.89 -113.54,-27.78 -170.31,-41.67 -6.92,-1.69 -13.95,2.58 -15.64,9.48 -7.05,28.85 -14.11,57.71 -21.18,86.56 -1.68,6.91 2.58,13.94 9.49,15.63 z m -274.4,-67.12 c 56.77,13.88 113.54,27.77 170.31,41.66 6.91,1.69 13.95,-2.58 15.63,-9.49 7.07,-28.85 14.12,-57.69 21.18,-86.55 1.69,-6.9 -2.58,-13.94 -9.49,-15.64 -56.76,-13.89 -113.54,-27.77 -170.31,-41.66 -6.91,-1.69 -13.94,2.57 -15.63,9.49 -7.06,28.85 -14.12,57.7 -21.17,86.54 -1.7,6.92 2.57,13.95 9.48,15.65 z m -274.41,-67.14 c 56.78,13.89 113.54,27.77 170.31,41.67 6.91,1.69 13.95,-2.58 15.64,-9.49 7.05,-28.85 14.12,-57.71 21.18,-86.56 1.69,-6.91 -2.59,-13.94 -9.49,-15.62 -56.78,-13.89 -113.54,-27.8 -170.32,-41.68 -6.91,-1.68 -13.94,2.58 -15.63,9.49 -7.06,28.85 -14.12,57.71 -21.18,86.55 -1.69,6.92 2.58,13.95 9.49,15.64 z m -274.406,-67.13 c 56.774,13.89 113.547,27.78 170.313,41.66 6.91,1.69 13.945,-2.58 15.632,-9.49 7.063,-28.85 14.118,-57.7 21.171,-86.55 1.7,-6.92 -2.577,-13.94 -9.483,-15.63 -56.766,-13.89 -113.539,-27.78 -170.309,-41.67 -6.91,-1.69 -13.945,2.58 -15.633,9.49 -7.062,28.85 -14.117,57.69 -21.179,86.55 -1.688,6.91 2.578,13.94 9.488,15.64 z m -548.812,-134.28 170.316,41.68 c 6.91,1.69 13.941,-2.59 15.637,-9.49 l 21.172,-86.56 c 1.687,-6.91 -2.582,-13.95 -9.489,-15.63 l -170.312,-41.67 c -6.91,-1.69 -13.942,2.58 -15.637,9.49 l -21.172,86.55 c -1.687,6.91 2.578,13.95 9.485,15.63 z m 274.41,67.15 c 56.769,13.87 113.543,27.76 170.308,41.66 6.91,1.69 13.942,-2.58 15.633,-9.49 7.059,-28.84 14.121,-57.7 21.18,-86.56 1.683,-6.9 -2.578,-13.93 -9.488,-15.63 -56.77,-13.89 -113.543,-27.78 -170.317,-41.66 -6.906,-1.7 -13.945,2.58 -15.629,9.48 -7.058,28.86 -14.121,57.71 -21.179,86.56 -1.692,6.92 2.582,13.94 9.492,15.64 z m 100.75,-411.82 c 56.765,13.89 113.539,27.77 170.312,41.66 6.91,1.7 13.942,-2.58 15.629,-9.48 7.059,-28.86 21.461,-87.72 28.524,-116.57 1.687,-6.92 -2.582,-13.94 -9.489,-15.64 -56.769,-13.87 -113.547,-27.77 -170.312,-41.66 -6.91,-1.69 -13.946,2.58 -15.637,9.49 -7.059,28.84 -21.461,87.71 -28.516,116.56 -1.695,6.91 2.579,13.95 9.489,15.64 v 0"
         style="fill:#766764;fill-opacity:1;fill-rule:evenodd;stroke:none"
         transform="matrix(0.13333333,0,0,-0.13333333,0,666.65333)" />
      <path
         id="path7"
         d="m 1424.49,611.422 -83.5,939.788 83.87,512.57 c 4.64,28.38 -11.64,56.03 -38.71,65.74 -27.06,9.74 -57.21,-1.26 -71.68,-26.12 -36.86,-63.34 -69.71,-128.94 -98.35,-196.4 l -115.87,76.64 C 989.988,2067.2 645.609,1685.37 833.453,1570.78 L 999.555,1469.46 782.984,693.57 C 748.551,570.18 789.371,438.059 887.406,355.609 985.449,273.16 1122.62,255.59 1238.27,310.68 c 115.65,55.082 197.52,173.468 186.22,300.742"
         style="fill:#f28f61;fill-opacity:1;fill-rule:evenodd;stroke:none"
         transform="matrix(0.13333333,0,0,-0.13333333,0,666.65333)" />
      <path
         id="path8"
         d="m 784.855,2191.83 v 0 c 24.524,26.31 66.106,27.79 92.415,3.27 L 1081.23,2005 c 26.3,-24.52 27.77,-66.11 3.25,-92.42 v 0 c -24.52,-26.31 -66.11,-27.77 -92.417,-3.25 l -203.958,190.09 c -26.308,24.52 -27.773,66.11 -3.25,92.41"
         style="fill:#d96a3c;fill-opacity:1;fill-rule:evenodd;stroke:none"
         transform="matrix(0.13333333,0,0,-0.13333333,0,666.65333)" />
      <path
         id="path9"
         d="m 842.816,2137.82 v 0 c 24.52,26.3 66.11,27.77 92.418,3.25 l 203.956,-190.09 c 26.3,-24.53 27.77,-66.11 3.25,-92.43 v 0 c -24.53,-26.3 -66.11,-27.76 -92.42,-3.24 l -203.95,190.1 c -26.312,24.51 -27.773,66.09 -3.254,92.41"
         style="fill:#f28f61;fill-opacity:1;fill-rule:evenodd;stroke:none"
         transform="matrix(0.13333333,0,0,-0.13333333,0,666.65333)" />
      <path
         id="path10"
         d="m 646.801,2105.12 v 0 c 24.523,26.3 66.113,27.77 92.418,3.24 l 203.957,-190.09 c 26.304,-24.52 27.769,-66.1 3.25,-92.41 v 0 c -24.528,-26.31 -66.11,-27.78 -92.418,-3.26 l -203.953,190.1 c -26.309,24.52 -27.77,66.11 -3.254,92.42"
         style="fill:#d96a3c;fill-opacity:1;fill-rule:evenodd;stroke:none"
         transform="matrix(0.13333333,0,0,-0.13333333,0,666.65333)" />
      <path
         id="path11"
         d="m 602.566,2002.53 v 0 c 24.528,26.31 66.11,27.77 92.418,3.25 l 203.957,-190.1 c 26.309,-24.51 27.774,-66.1 3.247,-92.41 v 0 c -24.516,-26.31 -66.102,-27.77 -92.418,-3.25 l -203.95,190.09 c -26.308,24.52 -27.773,66.11 -3.254,92.42"
         style="fill:#d96a3c;fill-opacity:1;fill-rule:evenodd;stroke:none"
         transform="matrix(0.13333333,0,0,-0.13333333,0,666.65333)" />
      <path
         id="path12"
         d="m 704.766,2051.1 v 0 c 24.519,26.3 66.109,27.77 92.418,3.24 l 203.956,-190.08 c 26.31,-24.53 27.77,-66.12 3.24,-92.43 v 0 c -24.517,-26.3 -66.103,-27.77 -92.411,-3.25 l -203.949,190.1 c -26.317,24.52 -27.778,66.11 -3.254,92.42"
         style="fill:#f28f61;fill-opacity:1;fill-rule:evenodd;stroke:none"
         transform="matrix(0.13333333,0,0,-0.13333333,0,666.65333)" />
      <path
         id="path13"
         d="m 660.531,1948.5 v 0 c 24.52,26.32 66.11,27.79 92.418,3.27 l 203.949,-190.1 c 26.309,-24.52 27.774,-66.11 3.254,-92.42 v 0 c -24.527,-26.31 -66.109,-27.77 -92.418,-3.25 l -203.957,190.09 c -26.304,24.52 -27.765,66.11 -3.246,92.41"
         style="fill:#f28f61;fill-opacity:1;fill-rule:evenodd;stroke:none"
         transform="matrix(0.13333333,0,0,-0.13333333,0,666.65333)" />
      <path
         id="path14"
         d="m 576.531,1748.27 v 0 c 11.379,26.35 42.246,38.6 68.602,27.23 l 204.297,-88.21 c 26.351,-11.37 38.601,-42.23 27.226,-68.59 v 0 c -11.379,-26.36 -42.254,-38.6 -68.605,-27.23 l -204.289,88.21 c -26.356,11.37 -38.606,42.23 -27.231,68.59"
         style="fill:#d96a3c;fill-opacity:1;fill-rule:evenodd;stroke:none"
         transform="matrix(0.13333333,0,0,-0.13333333,0,666.65333)" />
      <path
         id="path15"
         d="m 634.59,1723.21 v 0 c 11.379,26.36 42.246,38.6 68.598,27.23 l 204.296,-88.21 c 26.348,-11.37 38.606,-42.24 27.227,-68.6 v 0 c -11.375,-26.35 -42.246,-38.6 -68.598,-27.23 l -204.293,88.21 c -26.355,11.37 -38.605,42.24 -27.23,68.6"
         style="fill:#f28f61;fill-opacity:1;fill-rule:evenodd;stroke:none"
         transform="matrix(0.13333333,0,0,-0.13333333,0,666.65333)" />
      <path
         id="path16"
         d="m 563.359,0 219.262,825.59 c 39.977,156.012 184.359,262.23 345.199,253.96 160.84,-8.28 293.56,-128.761 317.31,-288.062 L 1533.99,0 H 563.359"
         style="fill:#92351d;fill-opacity:1;fill-rule:evenodd;stroke:none"
         transform="matrix(0.13333333,0,0,-0.13333333,0,666.65333)" />
      <path
         id="path17"
         d="m 3105.21,2859.11 1529.95,-397.95 c 104.02,-27.06 167.01,-134.32 139.95,-238.35 L 4502.99,1176.6 c -27.06,-104.04 -134.32,-167.02 -238.36,-139.96 l -1529.94,397.95 c -104.03,27.05 -167.01,134.32 -139.96,238.36 l 272.14,1046.2 c 27.06,104.04 134.32,167.02 238.34,139.96"
         style="fill:#463c3b;fill-opacity:1;fill-rule:evenodd;stroke:none"
         transform="matrix(0.13333333,0,0,-0.13333333,0,666.65333)" />
      <path
         id="path18"
         d="m 3520.95,2664.85 1084.88,-282.19 c 55.08,-14.32 88.42,-71.1 74.09,-126.19 l -270.6,-1040.36 c -14.34,-55.07 -71.12,-88.42 -126.19,-74.09 L 3198.27,1424.2 c -55.09,14.33 -88.44,71.11 -74.1,126.19 l 270.61,1040.37 c 14.32,55.06 71.1,88.41 126.17,74.09"
         style="fill:#2e2825;fill-opacity:1;fill-rule:evenodd;stroke:none"
         transform="matrix(0.13333333,0,0,-0.13333333,0,666.65333)" />
      <path
         id="path19"
         d="m 3048.79,2312.48 c 97.16,-25.28 155.45,-124.53 130.17,-221.71 -25.26,-97.17 -124.54,-155.46 -221.7,-130.18 -97.16,25.28 -155.45,124.54 -130.17,221.7 25.27,97.18 124.53,155.46 221.7,130.19"
         style="fill:#2e2825;fill-opacity:1;fill-rule:evenodd;stroke:none"
         transform="matrix(0.13333333,0,0,-0.13333333,0,666.65333)" />
      <path
         id="path20"
         d="m 3023.83,2216.51 c 44.16,-11.49 70.66,-56.62 59.17,-100.78 -11.49,-44.16 -56.6,-70.65 -100.78,-59.17 -44.16,11.5 -70.67,56.61 -59.17,100.77 11.48,44.17 56.6,70.66 100.78,59.18"
         style="fill:#766764;fill-opacity:1;fill-rule:evenodd;stroke:none"
         transform="matrix(0.13333333,0,0,-0.13333333,0,666.65333)" />
      <path
         id="path21"
         d="m 3047.29,2724.19 203.41,-52.9 c 32.13,-8.36 51.58,-41.48 43.23,-73.61 v 0 c -8.36,-32.13 -41.49,-51.59 -73.64,-43.23 l -203.39,52.9 c -32.12,8.37 -51.57,41.49 -43.22,73.62 v 0 c 8.36,32.13 41.49,51.58 73.61,43.22"
         style="fill:#2e2825;fill-opacity:1;fill-rule:evenodd;stroke:none"
         transform="matrix(0.13333333,0,0,-0.13333333,0,666.65333)" />
      <path
         id="path22"
         d="m 2998.83,2537.82 203.39,-52.91 c 32.13,-8.36 51.59,-41.48 43.23,-73.61 v 0 c -8.37,-32.14 -41.49,-51.59 -73.62,-43.23 l -203.39,52.91 c -32.15,8.34 -51.58,41.48 -43.23,73.61 v 0 c 8.35,32.13 41.49,51.58 73.62,43.23"
         style="fill:#2e2825;fill-opacity:1;fill-rule:evenodd;stroke:none"
         transform="matrix(0.13333333,0,0,-0.13333333,0,666.65333)" />
      <path
         id="path23"
         d="m 2834.24,1905 203.38,-52.9 c 32.14,-8.36 51.58,-41.49 43.23,-73.62 v 0 c -8.37,-32.13 -41.48,-51.59 -73.61,-43.23 l -203.39,52.91 c -32.15,8.35 -51.59,41.49 -43.23,73.62 v 0 c 8.34,32.12 41.49,51.58 73.62,43.22"
         style="fill:#2e2825;fill-opacity:1;fill-rule:evenodd;stroke:none"
         transform="matrix(0.13333333,0,0,-0.13333333,0,666.65333)" />
      <path
         id="path24"
         d="m 2785.75,1718.62 203.39,-52.91 c 32.13,-8.35 51.59,-41.48 43.22,-73.61 v 0 c -8.36,-32.13 -41.48,-51.58 -73.61,-43.22 l -203.39,52.9 c -32.13,8.36 -51.59,41.48 -43.22,73.62 v 0 c 8.36,32.13 41.48,51.58 73.61,43.22"
         style="fill:#2e2825;fill-opacity:1;fill-rule:evenodd;stroke:none"
         transform="matrix(0.13333333,0,0,-0.13333333,0,666.65333)" />
      <path
         id="path25"
         d="m 3737.61,611.422 83.49,939.788 341.43,-81.75 216.56,-775.89 C 4413.54,570.18 4372.71,438.059 4274.68,355.609 4176.64,273.16 4039.46,255.59 3923.82,310.68 3808.17,365.762 3726.29,484.148 3737.61,611.422"
         style="fill:#f28f61;fill-opacity:1;fill-rule:evenodd;stroke:none"
         transform="matrix(0.13333333,0,0,-0.13333333,0,666.65333)" />
      <path
         id="path26"
         d="m 4598.72,0 -219.25,825.59 c -39.99,156.012 -184.38,262.23 -345.21,253.96 -160.84,-8.28 -293.55,-128.761 -317.3,-288.062 L 3628.1,0 h 970.62"
         style="fill:#92351d;fill-opacity:1;fill-rule:evenodd;stroke:none"
         transform="matrix(0.13333333,0,0,-0.13333333,0,666.65333)" />
      <path
         id="path27"
         d="m 3823.93,1455.12 -219.35,80.33 c -34.96,12.79 -57.51,46.84 -55.67,84.01 2.81,56.82 1.04,113.77 -5.24,170.3 -3.54,31.88 14.5,62.22 44.2,74.33 l 74.49,165.18 c 21.99,48.78 75,75.63 127.34,64.5 l 254.51,-130.18 c 45.08,-23.05 77.43,-65.11 88.14,-114.61 31.12,-143.75 43.86,-290.87 37.89,-437.83 l -346.31,43.97"
         style="fill:#f28f61;fill-opacity:1;fill-rule:evenodd;stroke:none"
         transform="matrix(0.13333333,0,0,-0.13333333,0,666.65333)" />
      <path
         id="path28"
         d="m 3791.8,1908.96 504.79,-183.36 c 34.97,-12.7 53.19,-51.7 40.47,-86.68 v 0 c -12.7,-34.96 -51.7,-53.18 -86.65,-40.47 l -504.81,183.36 c -34.96,12.71 -53.19,51.7 -40.48,86.68 v 0 c 12.7,34.97 51.71,53.19 86.68,40.47"
         style="fill:#463c3b;fill-opacity:1;fill-rule:evenodd;stroke:none"
         transform="matrix(0.13333333,0,0,-0.13333333,0,666.65333)" />
      <path
         id="path29"
         d="m 2388.33,3149.15 c 414.77,0 753.06,338.29 753.06,753.06 0,414.77 -338.29,753.05 -753.06,753.05 -414.78,0 -753.08,-338.28 -753.08,-753.05 0,-414.77 338.3,-753.06 753.08,-753.06"
         style="fill:#2e2825;fill-opacity:1;fill-rule:evenodd;stroke:none"
         transform="matrix(0.13333333,0,0,-0.13333333,0,666.65333)" />
      <path
         id="path30"
         d="m 2972.52,3427.07 c -138.06,-169.58 -348.47,-277.92 -584.2,-277.92 -235.74,0 -446.14,108.34 -584.22,277.92 169.33,61.02 369.57,96.34 584.22,96.34 214.65,0 414.89,-35.32 584.2,-96.34"
         style="fill:#766764;fill-opacity:1;fill-rule:evenodd;stroke:none"
         transform="matrix(0.13333333,0,0,-0.13333333,0,666.65333)" />
      <path
         id="path31"
         d="m 953.266,3792.34 -575.844,575.84 h -63.305 v 87.67 c 0.024,7.7 1.571,15.52 4.711,23.11 9.457,22.81 30.535,36.9 55.235,36.9 H 4402.58 c 24.68,0 45.77,-14.09 55.22,-36.9 3.15,-7.59 4.7,-15.41 4.72,-23.11 h 0.01 v -87.67 h -63.32 l -575.84,-575.84 c -59.78,-59.77 -132.51,-89.9 -217.03,-89.9 H 1170.29 c -84.52,0 -157.26,30.13 -217.024,89.9"
         style="fill:#766764;fill-opacity:1;fill-rule:evenodd;stroke:none"
         transform="matrix(0.13333333,0,0,-0.13333333,0,666.65333)" />
      <path
         id="path32"
         d="m 953.266,3704.67 -621.481,621.49 c -17.453,17.45 -22.398,42.32 -12.957,65.13 9.457,22.82 30.535,36.9 55.235,36.9 H 4402.58 c 24.68,0 45.77,-14.08 55.22,-36.9 9.45,-22.81 4.5,-47.68 -12.95,-65.13 l -621.48,-621.49 c -59.78,-59.76 -132.51,-89.89 -217.03,-89.89 H 1170.29 c -84.52,0 -157.26,30.13 -217.024,89.89"
         style="fill:#463c3b;fill-opacity:1;fill-rule:evenodd;stroke:none"
         transform="matrix(0.13333333,0,0,-0.13333333,0,666.65333)" />
      <path
         id="path33"
         d="M 4335.25,4340.53 H 441.387 l 573.873,-573.87 c 43.3,-43.31 93.79,-64.22 155.03,-64.22 h 2436.05 c 61.24,0 111.73,20.91 155.03,64.22 l 573.88,573.87"
         style="fill:#2e2825;fill-opacity:1;fill-rule:evenodd;stroke:none"
         transform="matrix(0.13333333,0,0,-0.13333333,0,666.65333)" />
      <path
         id="path34"
         d="m 1611.1,117.25 c 0,5.461 -0.78,10.18 -2.4,14.039 -1.57,3.91 -3.78,6.93 -6.62,9.063 -2.83,2.07 -5.95,3.128 -9.39,3.128 -5.45,0 -10.06,-2.3 -13.81,-6.75 -3.75,-4.511 -5.63,-11.101 -5.63,-19.832 0,-8.226 1.88,-14.628 5.57,-19.1363 3.75,-4.582 8.38,-6.8828 13.87,-6.8828 3.28,0 6.34,0.9922 9.16,3.0195 2.76,1.9922 5.02,4.9727 6.71,8.9106 1.71,4.023 2.54,8.812 2.54,14.441 z m -38.77,30.09 v -2.488 c 3.71,4.769 7.56,8.328 11.57,10.539 4.02,2.257 8.59,3.398 13.67,3.398 6.07,0 11.68,-1.648 16.81,-4.93 5.1,-3.289 9.15,-8.05 12.13,-14.379 2.97,-6.32 4.44,-13.761 4.44,-22.378 0,-6.34 -0.83,-12.25 -2.55,-17.4926 -1.71,-5.3281 -4.07,-9.8281 -7.06,-13.418 -3,-3.6016 -6.56,-6.4023 -10.62,-8.3125 -4.1,-1.9687 -8.5,-2.9297 -13.15,-2.9297 -5.69,0 -10.43,1.1797 -14.27,3.5508 -3.88,2.3711 -7.51,5.8203 -10.97,10.4219 V 57.9492 c 0,-9.0898 -3.17,-13.6172 -9.5,-13.6172 -3.72,0 -6.2,1.1563 -7.37,3.4883 -1.22,2.3516 -1.82,5.7695 -1.82,10.25 v 89.1407 c 0,3.918 0.79,6.871 2.45,8.801 1.67,1.929 3.91,2.918 6.74,2.918 2.8,0 5.09,-0.989 6.85,-3 1.76,-2.02 2.65,-4.879 2.65,-8.59"
         style="fill:#9c99a2;fill-opacity:1;fill-rule:nonzero;stroke:none"
         transform="matrix(0.13333333,0,0,-0.13333333,0,666.65333)" />
      <path
         id="path35"
         d="m 1698.25,86.6289 v 2.6094 c -2.38,-3.1172 -4.86,-5.7266 -7.48,-7.8399 -2.61,-2.1484 -5.46,-3.7187 -8.53,-4.7265 -3.13,-1.0313 -6.64,-1.5508 -10.61,-1.5508 -4.75,0 -9.04,1.0391 -12.85,3.0781 -3.8,2.0703 -6.74,4.9219 -8.79,8.5508 -2.5,4.3906 -3.7,10.6992 -3.7,18.879 v 40.93 c 0,4.101 0.89,7.222 2.68,9.25 1.79,2.043 4.15,3.07 7.08,3.07 3.01,0 5.41,-1.027 7.26,-3.117 1.84,-2.071 2.74,-5.16 2.74,-9.203 V 113.48 c 0,-4.75 0.39,-8.769 1.14,-12.011 0.81,-3.2581 2.19,-5.8088 4.22,-7.6682 1.96,-1.8203 4.69,-2.7422 8.12,-2.7422 3.37,0 6.5,1.0508 9.43,3.1133 2.96,2.039 5.12,4.7265 6.46,8.0581 1.11,2.93 1.66,9.329 1.66,19.211 v 25.118 c 0,4.043 0.92,7.132 2.77,9.203 1.82,2.09 4.18,3.117 7.15,3.117 2.95,0 5.31,-1.027 7.1,-3.07 1.77,-2.028 2.65,-5.149 2.65,-9.25 V 86.75 c 0,-3.9297 -0.82,-6.8906 -2.54,-8.8281 -1.7,-1.9922 -3.91,-2.9531 -6.62,-2.9531 -2.7,0 -4.92,1.0429 -6.7,3.0429 -1.76,2.0703 -2.64,4.8985 -2.64,8.6172"
         style="fill:#9c99a2;fill-opacity:1;fill-rule:nonzero;stroke:none"
         transform="matrix(0.13333333,0,0,-0.13333333,0,666.65333)" />
      <path
         id="path36"
         d="m 1755.63,116.43 c 0,-8.211 1.79,-14.5 5.38,-18.9183 3.61,-4.4023 8.34,-6.6328 14.2,-6.6328 4.98,0 9.23,2.2695 12.86,6.7695 3.62,4.5316 5.42,10.9536 5.42,19.3906 0,5.5 -0.76,10.172 -2.26,14.082 -1.51,3.961 -3.65,6.988 -6.38,9.117 -2.79,2.141 -5.96,3.242 -9.64,3.242 -3.81,0 -7.11,-1.101 -10.08,-3.242 -2.97,-2.129 -5.27,-5.238 -6.98,-9.308 -1.69,-4.032 -2.52,-8.84 -2.52,-14.5 z m -0.93,61.379 V 146.25 c 3.67,4.07 7.49,7.129 11.34,9.309 3.87,2.14 8.68,3.23 14.36,3.23 6.58,0 12.33,-1.648 17.29,-4.879 4.94,-3.308 8.8,-7.98 11.52,-14.16 2.75,-6.168 4.1,-13.488 4.1,-21.961 0,-6.269 -0.75,-11.988 -2.26,-17.238 -1.53,-5.1994 -3.72,-9.6994 -6.63,-13.5822 -2.93,-3.8086 -6.44,-6.7383 -10.55,-8.9102 -4.15,-2.0469 -8.7,-3.1094 -13.67,-3.1094 -3.02,0 -5.91,0.3906 -8.61,1.1328 -2.67,0.7578 -4.98,1.75 -6.81,3.0196 -1.92,1.1679 -3.52,2.4882 -4.86,3.7695 -1.32,1.3281 -3.05,3.2773 -5.22,5.8984 V 86.75 c 0,-3.8984 -0.92,-6.8281 -2.71,-8.8281 -1.77,-1.9922 -4.07,-2.9727 -6.79,-2.9727 -2.83,0 -5.04,0.9805 -6.73,2.9727 -1.65,2.039 -2.48,4.9492 -2.48,8.8281 v 90.16 c 0,4.149 0.8,7.328 2.44,9.461 1.61,2.149 3.85,3.219 6.77,3.219 3.02,0 5.38,-1.02 7,-3.078 1.66,-2.024 2.5,-4.91 2.5,-8.703"
         style="fill:#9c99a2;fill-opacity:1;fill-rule:nonzero;stroke:none"
         transform="matrix(0.13333333,0,0,-0.13333333,0,666.65333)" />
      <path
         id="path37"
         d="m 1827.28,87.5195 v 89.5195 c 0,4.152 0.87,7.262 2.61,9.383 1.8,2.098 4.16,3.168 7.16,3.168 3,0 5.4,-1.031 7.25,-3.141 1.8,-2.078 2.76,-5.238 2.76,-9.41 V 87.5195 c 0,-4.1914 -0.96,-7.3476 -2.81,-9.4609 -1.85,-2.0469 -4.26,-3.1094 -7.2,-3.1094 -2.9,0 -5.22,1.0899 -7.05,3.25 -1.82,2.1797 -2.72,5.2696 -2.72,9.3203"
         style="fill:#9c99a2;fill-opacity:1;fill-rule:nonzero;stroke:none"
         transform="matrix(0.13333333,0,0,-0.13333333,0,666.65333)" />
      <path
         id="path38"
         d="M 1887.26,147.148 V 87.5195 c 0,-4.1601 -0.97,-7.289 -2.81,-9.4101 -1.9,-2.0703 -4.3,-3.1602 -7.17,-3.1602 -2.91,0 -5.28,1.0899 -7.07,3.2422 -1.8,2.1875 -2.74,5.2774 -2.74,9.3281 v 59.0395 c 0,4.043 0.94,7.132 2.74,9.203 1.79,2.09 4.16,3.117 7.07,3.117 2.87,0 5.27,-1.027 7.17,-3.117 1.84,-2.071 2.81,-4.934 2.81,-8.614 z m -9.79,21.344 c -2.75,0 -5.09,0.879 -7.09,2.688 -1.9,1.761 -2.91,4.281 -2.91,7.511 0,2.911 1.01,5.289 3.02,7.219 2,1.891 4.32,2.781 6.98,2.781 2.56,0 4.84,-0.832 6.82,-2.531 1.97,-1.719 2.97,-4.238 2.97,-7.469 0,-3.203 -0.98,-5.679 -2.91,-7.453 -1.94,-1.789 -4.2,-2.746 -6.88,-2.746"
         style="fill:#9c99a2;fill-opacity:1;fill-rule:nonzero;stroke:none"
         transform="matrix(0.13333333,0,0,-0.13333333,0,666.65333)" />
      <path
         id="path39"
         d="m 1978.54,100.52 c 0,-2.5591 -0.72,-5.3286 -2.18,-8.2505 -1.5,-2.9179 -3.74,-5.6875 -6.77,-8.3476 -3,-2.6328 -6.81,-4.7617 -11.4,-6.3633 -4.59,-1.6484 -9.76,-2.4375 -15.49,-2.4375 -12.24,0 -21.77,3.7305 -28.64,11.1484 -6.84,7.4414 -10.28,17.3785 -10.28,29.8905 0,8.469 1.56,15.981 4.69,22.461 3.13,6.469 7.71,11.527 13.63,15.07 5.93,3.571 13.06,5.348 21.29,5.348 5.14,0 9.84,-0.801 14.12,-2.34 4.27,-1.57 7.89,-3.609 10.86,-6.051 2.97,-2.476 5.23,-5.109 6.82,-7.898 1.58,-2.789 2.34,-5.41 2.34,-7.828 0,-2.442 -0.9,-4.531 -2.64,-6.262 -1.77,-1.73 -3.88,-2.578 -6.4,-2.578 -1.66,0 -3.01,0.477 -4.12,1.359 -1.06,0.848 -2.29,2.239 -3.66,4.25 -2.4,3.821 -4.94,6.707 -7.57,8.661 -2.63,1.89 -5.98,2.878 -10.01,2.878 -5.87,0 -10.58,-2.421 -14.15,-7.179 -3.58,-4.789 -5.35,-11.301 -5.35,-19.571 0,-3.851 0.46,-7.468 1.39,-10.699 0.91,-3.261 2.24,-6.031 3.96,-8.3318 1.75,-2.3008 3.83,-4.0195 6.3,-5.207 2.46,-1.2109 5.18,-1.7813 8.11,-1.7813 3.98,0 7.36,0.9375 10.19,2.8594 2.84,1.9297 5.34,4.8594 7.5,8.7497 1.21,2.371 2.51,4.168 3.92,5.5 1.42,1.321 3.13,1.942 5.16,1.942 2.41,0 4.41,-0.942 6.02,-2.852 1.56,-1.949 2.36,-3.98 2.36,-6.14"
         style="fill:#9c99a2;fill-opacity:1;fill-rule:nonzero;stroke:none"
         transform="matrix(0.13333333,0,0,-0.13333333,0,666.65333)" />
      <path
         id="path40"
         d="m 2011.13,117.039 c 0,-5.598 0.83,-10.328 2.49,-14.289 1.68,-3.9414 3.93,-6.8594 6.83,-8.8516 2.92,-2.0273 6.08,-3.0195 9.48,-3.0195 3.49,0 6.66,0.9609 9.53,2.832 2.89,1.8985 5.16,4.8086 6.9,8.7191 1.72,3.89 2.57,8.781 2.57,14.609 0,5.531 -0.85,10.223 -2.57,14.199 -1.74,3.961 -4.05,6.981 -6.96,9.114 -2.93,2.07 -6.11,3.128 -9.59,3.128 -3.61,0 -6.84,-1.101 -9.7,-3.242 -2.83,-2.129 -5.07,-5.226 -6.63,-9.238 -1.56,-4.02 -2.35,-8.629 -2.35,-13.961 z m 38.88,-30.289 v 2.0195 c -2.66,-3.1797 -5.27,-5.75 -7.89,-7.7187 -2.54,-2.0117 -5.36,-3.5195 -8.38,-4.5625 -3.01,-1 -6.31,-1.5391 -9.87,-1.5391 -4.73,0 -9.14,1.0625 -13.16,3.1094 -4.02,2.1719 -7.51,5.1211 -10.46,9 -2.94,3.8828 -5.17,8.4414 -6.71,13.7034 -1.54,5.218 -2.28,10.898 -2.28,17.027 0,12.871 3.03,22.981 9.06,30.191 6.06,7.2 13.99,10.809 23.83,10.809 5.69,0 10.51,-1.051 14.41,-3.129 3.91,-2 7.74,-5.14 11.45,-9.41 v 30.488 c 0,4.242 0.8,7.442 2.43,9.602 1.61,2.172 3.9,3.25 6.91,3.25 2.98,0 5.29,-1 6.93,-2.969 1.6,-1.98 2.44,-4.93 2.44,-8.812 V 86.75 c 0,-3.9297 -0.88,-6.8906 -2.63,-8.8281 -1.74,-1.9922 -3.97,-2.9727 -6.74,-2.9727 -2.68,0 -4.95,1.0196 -6.71,3.0625 -1.75,2.0274 -2.63,4.918 -2.63,8.7383"
         style="fill:#9c99a2;fill-opacity:1;fill-rule:nonzero;stroke:none"
         transform="matrix(0.13333333,0,0,-0.13333333,0,666.65333)" />
      <path
         id="path41"
         d="m 2142.76,116.871 c 0,8.391 -1.8,14.961 -5.33,19.649 -3.55,4.66 -8.34,7.031 -14.31,7.031 -3.89,0 -7.28,-1.051 -10.23,-3.141 -2.94,-2.121 -5.2,-5.211 -6.81,-9.289 -1.58,-4.043 -2.39,-8.781 -2.39,-14.25 0,-5.402 0.81,-10.09 2.35,-14.121 1.57,-4.0312 3.82,-7.1211 6.76,-9.2695 2.91,-2.1289 6.38,-3.1914 10.32,-3.1914 5.97,0 10.76,2.3515 14.31,7.0507 3.53,4.6992 5.33,11.2302 5.33,19.5312 z m 19.85,0 c 0,-6.109 -0.93,-11.789 -2.76,-17.0194 -1.83,-5.1407 -4.49,-9.6211 -7.95,-13.3633 -3.5,-3.7383 -7.65,-6.5274 -12.48,-8.5664 -4.82,-1.9922 -10.3,-2.9727 -16.3,-2.9727 -5.98,0 -11.38,0.9805 -16.15,3.0313 -4.78,2 -8.94,4.8906 -12.45,8.6484 -3.48,3.7695 -6.13,8.1602 -7.97,13.2813 -1.8,5.1598 -2.7,10.7698 -2.7,16.9998 0,6.25 0.93,11.969 2.74,17.129 1.84,5.231 4.45,9.633 7.89,13.34 3.44,3.672 7.58,6.512 12.49,8.492 4.9,2 10.25,3.008 16.15,3.008 5.99,0 11.43,-1.008 16.3,-3.039 4.87,-2 9.05,-4.899 12.52,-8.629 3.5,-3.731 6.14,-8.191 7.91,-13.332 1.86,-5.129 2.76,-10.809 2.76,-17.008"
         style="fill:#9c99a2;fill-opacity:1;fill-rule:nonzero;stroke:none"
         transform="matrix(0.13333333,0,0,-0.13333333,0,666.65333)" />
      <path
         id="path42"
         d="m 2246.14,133.922 c -1.48,-3.481 -2.18,-9.641 -2.18,-18.512 V 87.9805 c 0,-4.3203 -0.93,-7.6016 -2.84,-9.7813 -1.87,-2.1601 -4.39,-3.25 -7.48,-3.25 -2.97,0 -5.39,1.0899 -7.23,3.25 -1.87,2.1797 -2.78,5.461 -2.78,9.7813 V 120.91 c 0,5.172 -0.19,9.199 -0.53,12.11 -0.35,2.839 -1.25,5.21 -2.76,7.062 -1.46,1.848 -3.85,2.77 -7.07,2.77 -6.46,0 -10.72,-2.321 -12.79,-6.993 -2.07,-4.621 -3.05,-11.281 -3.05,-19.968 V 87.9805 c 0,-4.3086 -0.96,-7.5508 -2.79,-9.6992 -1.88,-2.2422 -4.33,-3.3321 -7.34,-3.3321 -3.01,0 -5.49,1.0899 -7.39,3.3321 -1.92,2.1484 -2.83,5.3906 -2.83,9.6875 v 59.0702 c 0,3.902 0.82,6.852 2.52,8.859 1.74,2 3.99,3.032 6.82,3.032 2.69,0 4.96,-0.93 6.75,-2.828 1.81,-1.883 2.72,-4.481 2.72,-7.821 v -1.961 c 3.42,4.282 7.1,7.45 10.99,9.442 3.91,2.008 8.31,3.027 13.05,3.027 4.96,0 9.22,-1.051 12.79,-3.129 3.6,-2.039 6.53,-5.172 8.83,-9.34 3.34,4.2 6.92,7.371 10.74,9.399 3.82,2.051 8.04,3.07 12.66,3.07 5.45,0 10.1,-1.09 13.99,-3.34 3.92,-2.219 6.83,-5.379 8.77,-9.519 1.7,-3.731 2.53,-9.598 2.53,-17.641 V 87.9805 c 0,-4.3203 -0.93,-7.6016 -2.79,-9.7813 -1.92,-2.1601 -4.38,-3.25 -7.48,-3.25 -3.01,0 -5.45,1.0899 -7.34,3.3321 -1.94,2.1484 -2.89,5.3906 -2.89,9.6992 v 34.7305 c 0,4.449 -0.18,7.988 -0.53,10.668 -0.37,2.703 -1.35,4.91 -2.96,6.742 -1.58,1.809 -4.01,2.731 -7.22,2.731 -2.6,0 -5.09,-0.821 -7.4,-2.391 -2.38,-1.641 -4.16,-3.813 -5.49,-6.539 v 0"
         style="fill:#9c99a2;fill-opacity:1;fill-rule:nonzero;stroke:none"
         transform="matrix(0.13333333,0,0,-0.13333333,0,666.65333)" />
      <path
         id="path43"
         d="m 2358.15,116.48 c -2.91,-1.128 -7.12,-2.269 -12.65,-3.531 -5.54,-1.23 -9.37,-2.129 -11.5,-2.73 -2.12,-0.59 -4.16,-1.719 -6.06,-3.387 -1.95,-1.73 -2.93,-4.082 -2.93,-7.1015 0,-3.1602 1.15,-5.8008 3.4,-7.9922 2.28,-2.2188 5.26,-3.2891 8.93,-3.2891 3.91,0 7.54,0.9024 10.83,2.6914 3.31,1.7813 5.77,4.1094 7.28,6.918 1.8,3.1324 2.7,8.2614 2.7,15.4804 z m 1.29,-29.898 c -4.79,-3.8906 -9.41,-6.7929 -13.87,-8.7031 -4.46,-1.9687 -9.5,-2.9297 -15.02,-2.9297 -5.11,0 -9.52,1.0625 -13.39,3.1094 -3.87,2.1133 -6.8,4.9609 -8.89,8.5703 -2.05,3.5703 -3.11,7.4219 -3.11,11.6211 0,5.648 1.75,10.449 5.17,14.441 3.4,3.957 8.11,6.641 14.09,8.008 1.26,0.301 4.4,0.961 9.34,2.012 5.03,1.098 9.25,2.039 12.85,2.918 3.52,0.871 7.39,1.953 11.54,3.203 -0.25,5.469 -1.29,9.457 -3.14,12.059 -1.88,2.519 -5.76,3.769 -11.57,3.769 -5.05,0 -8.81,-0.719 -11.38,-2.18 -2.52,-1.449 -4.71,-3.66 -6.49,-6.621 -1.84,-2.898 -3.09,-4.847 -3.84,-5.757 -0.77,-0.961 -2.38,-1.383 -4.81,-1.383 -2.25,0 -4.16,0.73 -5.76,2.203 -1.64,1.5 -2.44,3.379 -2.44,5.726 0,3.622 1.23,7.184 3.68,10.563 2.47,3.437 6.32,6.258 11.53,8.508 5.21,2.222 11.72,3.32 19.51,3.32 8.67,0 15.52,-1.098 20.52,-3.23 4.97,-2.118 8.44,-5.489 10.51,-10.168 2.07,-4.61 3.09,-10.782 3.09,-18.43 0,-4.84 0,-8.981 -0.03,-12.34 -0.04,-3.402 -0.06,-7.152 -0.11,-11.281 0,-3.8595 0.62,-7.9298 1.86,-12.1212 1.2,-4.2071 1.81,-6.9297 1.81,-8.1094 0,-2.1289 -0.96,-4.0586 -2.86,-5.8008 -1.86,-1.7305 -4.05,-2.6094 -6.45,-2.6094 -2.06,0 -4.03,0.9805 -6.04,2.9727 -1.97,2 -4.07,4.8984 -6.3,8.6601"
         style="fill:#9c99a2;fill-opacity:1;fill-rule:nonzero;stroke:none"
         transform="matrix(0.13333333,0,0,-0.13333333,0,666.65333)" />
      <path
         id="path44"
         d="M 2417.43,147.148 V 87.5195 c 0,-4.1601 -0.95,-7.289 -2.8,-9.4101 -1.89,-2.0703 -4.26,-3.1602 -7.17,-3.1602 -2.89,0 -5.27,1.0899 -7.06,3.2422 -1.84,2.1875 -2.74,5.2774 -2.74,9.3281 v 59.0395 c 0,4.043 0.9,7.132 2.74,9.203 1.79,2.09 4.17,3.117 7.06,3.117 2.91,0 5.28,-1.027 7.17,-3.117 1.85,-2.071 2.8,-4.934 2.8,-8.614 z m -9.77,21.344 c -2.73,0 -5.07,0.879 -7.03,2.688 -1.96,1.761 -2.97,4.281 -2.97,7.511 0,2.911 1.02,5.289 3.03,7.219 1.99,1.891 4.34,2.781 6.97,2.781 2.56,0 4.86,-0.832 6.84,-2.531 1.96,-1.719 2.93,-4.238 2.93,-7.469 0,-3.203 -0.95,-5.679 -2.89,-7.453 -1.93,-1.789 -4.23,-2.746 -6.88,-2.746"
         style="fill:#9c99a2;fill-opacity:1;fill-rule:nonzero;stroke:none"
         transform="matrix(0.13333333,0,0,-0.13333333,0,666.65333)" />
      <path
         id="path45"
         d="m 2455.87,147.449 v -2.461 c 3.46,4.762 7.26,8.282 11.36,10.524 4.14,2.226 8.88,3.367 14.27,3.367 5.19,0 9.88,-1.18 14.01,-3.578 4.06,-2.352 7.15,-5.68 9.16,-10 1.32,-2.551 2.14,-5.289 2.55,-8.199 0.36,-2.903 0.58,-6.633 0.58,-11.18 V 87.5195 c 0,-4.1601 -0.93,-7.289 -2.73,-9.4101 -1.82,-2.0703 -4.18,-3.1602 -7.06,-3.1602 -2.94,0 -5.34,1.0899 -7.11,3.25 -1.87,2.1797 -2.8,5.2696 -2.8,9.3203 v 34.3715 c 0,6.847 -0.88,12.031 -2.69,15.629 -1.85,3.601 -5.47,5.429 -10.88,5.429 -3.51,0 -6.73,-1.109 -9.62,-3.308 -2.89,-2.172 -5.02,-5.2 -6.37,-9.039 -0.96,-3.071 -1.47,-8.793 -1.47,-17.262 V 87.5195 c 0,-4.1914 -0.91,-7.3476 -2.78,-9.4609 -1.87,-2.0469 -4.27,-3.1094 -7.2,-3.1094 -2.83,0 -5.2,1.0899 -7.02,3.2422 -1.87,2.1875 -2.77,5.2774 -2.77,9.3281 v 59.6285 c 0,3.954 0.82,6.852 2.49,8.813 1.6,1.937 3.9,2.918 6.73,2.918 1.71,0 3.3,-0.457 4.68,-1.289 1.45,-0.84 2.53,-2.168 3.38,-3.82 0.82,-1.758 1.29,-3.848 1.29,-6.321"
         style="fill:#9c99a2;fill-opacity:1;fill-rule:nonzero;stroke:none"
         transform="matrix(0.13333333,0,0,-0.13333333,0,666.65333)" />
      <path
         id="path46"
         d="m 2539.54,146.031 15.98,-46.8708 17.24,48.9098 c 1.38,3.942 2.7,6.692 4.02,8.34 1.34,1.641 3.28,2.469 5.93,2.469 2.5,0 4.63,-0.879 6.44,-2.68 1.73,-1.75 2.62,-3.758 2.62,-6.129 0,-0.89 -0.18,-1.941 -0.49,-3.121 -0.28,-1.238 -0.65,-2.371 -1.07,-3.457 -0.42,-1.012 -0.85,-2.242 -1.42,-3.594 L 2569.81,90.75 c -0.53,-1.3984 -1.24,-3.2109 -2.06,-5.3906 -0.86,-2.1485 -1.81,-3.961 -2.83,-5.5703 -1.05,-1.5078 -2.32,-2.668 -3.83,-3.5391 -1.55,-0.8594 -3.39,-1.3008 -5.57,-1.3008 -2.81,0 -5.02,0.6602 -6.71,1.9805 -1.67,1.3516 -2.9,2.8008 -3.69,4.4219 -0.78,1.5586 -2.15,4.707 -4.02,9.3984 l -18.85,48.609 c -0.43,1.2 -0.9,2.422 -1.37,3.629 -0.44,1.211 -0.79,2.41 -1.13,3.703 -0.31,1.289 -0.48,2.36 -0.48,3.231 0,1.449 0.41,2.828 1.25,4.219 0.82,1.398 1.96,2.55 3.4,3.41 1.47,0.871 3,1.328 4.72,1.328 3.26,0 5.53,-0.981 6.77,-2.981 1.24,-1.957 2.63,-5.25 4.13,-9.867"
         style="fill:#9c99a2;fill-opacity:1;fill-rule:nonzero;stroke:none"
         transform="matrix(0.13333333,0,0,-0.13333333,0,666.65333)" />
      <path
         id="path47"
         d="m 2620.44,123.609 h 35.85 c -0.46,7.032 -2.27,12.321 -5.46,15.801 -3.17,3.488 -7.34,5.25 -12.52,5.25 -4.89,0 -8.95,-1.781 -12.1,-5.328 -3.16,-3.531 -5.06,-8.781 -5.77,-15.723 z m 38.69,-11.75 h -38.69 c 0.01,-4.699 0.96,-8.82 2.69,-12.4293 1.79,-3.5391 4.12,-6.25 7.05,-8.0781 2.92,-1.8321 6.15,-2.711 9.68,-2.711 2.36,0 4.54,0.2813 6.47,0.8477 1.95,0.6133 3.87,1.5039 5.72,2.7305 1.81,1.2421 3.48,2.5234 5.04,3.9921 1.52,1.4102 3.59,3.2891 6.02,5.7191 1.02,0.961 2.48,1.379 4.34,1.379 2.06,0 3.68,-0.559 4.94,-1.75 1.26,-1.161 1.86,-2.7777 1.86,-4.8871 0,-1.8828 -0.69,-4.0508 -2.1,-6.5703 -1.39,-2.461 -3.46,-4.8828 -6.34,-7.1914 -2.83,-2.2813 -6.38,-4.1485 -10.65,-5.6993 -4.25,-1.5117 -9.14,-2.2617 -14.75,-2.2617 -12.69,0 -22.58,3.8125 -29.6,11.3321 -7.04,7.6093 -10.56,17.8277 -10.56,30.7577 0,6.172 0.9,11.793 2.6,16.992 1.74,5.239 4.26,9.699 7.6,13.418 3.34,3.75 7.42,6.633 12.31,8.59 4.91,2.012 10.29,3 16.25,3 7.68,0 14.33,-1.699 19.86,-5.129 5.54,-3.39 9.67,-7.762 12.43,-13.14 2.75,-5.43 4.13,-10.899 4.13,-16.532 0,-5.156 -1.39,-8.527 -4.27,-10.047 -2.87,-1.562 -6.85,-2.332 -12.03,-2.332"
         style="fill:#9c99a2;fill-opacity:1;fill-rule:nonzero;stroke:none"
         transform="matrix(0.13333333,0,0,-0.13333333,0,666.65333)" />
      <path
         id="path48"
         d="m 2763.06,100.52 c 0,-2.5591 -0.74,-5.3286 -2.24,-8.2505 -1.48,-2.9179 -3.68,-5.6875 -6.73,-8.3476 -3.01,-2.6328 -6.84,-4.7617 -11.44,-6.3633 -4.56,-1.6484 -9.76,-2.4375 -15.46,-2.4375 -12.26,0 -21.8,3.7305 -28.65,11.1484 -6.83,7.4414 -10.29,17.3785 -10.29,29.8905 0,8.469 1.56,15.981 4.73,22.461 3.14,6.469 7.65,11.527 13.6,15.07 5.92,3.571 13.05,5.348 21.32,5.348 5.12,0 9.8,-0.801 14.1,-2.34 4.27,-1.57 7.86,-3.609 10.87,-6.051 2.97,-2.476 5.22,-5.109 6.81,-7.898 1.55,-2.789 2.34,-5.41 2.34,-7.828 0,-2.442 -0.86,-4.531 -2.68,-6.262 -1.74,-1.73 -3.87,-2.578 -6.38,-2.578 -1.65,0 -3.01,0.477 -4.07,1.359 -1.12,0.848 -2.33,2.239 -3.69,4.25 -2.42,3.821 -4.93,6.707 -7.56,8.661 -2.64,1.89 -5.98,2.878 -10.05,2.878 -5.81,0 -10.54,-2.421 -14.1,-7.179 -3.61,-4.789 -5.38,-11.301 -5.38,-19.571 0,-3.851 0.48,-7.468 1.36,-10.699 0.93,-3.261 2.27,-6.031 4.02,-8.3318 1.72,-2.3008 3.84,-4.0195 6.3,-5.207 2.43,-1.2109 5.14,-1.7813 8.11,-1.7813 3.96,0 7.36,0.9375 10.19,2.8594 2.81,1.9297 5.33,4.8594 7.51,8.7497 1.21,2.371 2.49,4.168 3.9,5.5 1.39,1.321 3.09,1.942 5.15,1.942 2.38,0 4.42,-0.942 5.96,-2.852 1.63,-1.949 2.45,-3.98 2.45,-6.14"
         style="fill:#9c99a2;fill-opacity:1;fill-rule:nonzero;stroke:none"
         transform="matrix(0.13333333,0,0,-0.13333333,0,666.65333)" />
      <path
         id="path49"
         d="m 2781.42,157.141 h 2.17 v 12.41 c 0,3.301 0.09,5.937 0.27,7.808 0.16,1.903 0.6,3.493 1.41,4.871 0.76,1.391 1.87,2.551 3.34,3.45 1.44,0.859 3.05,1.281 4.84,1.281 2.5,0 4.78,-0.969 6.79,-2.922 1.33,-1.328 2.21,-2.91 2.57,-4.777 0.37,-1.903 0.54,-4.614 0.54,-8.082 v -14.039 h 7.27 c 2.8,0 4.95,-0.711 6.41,-2.09 1.51,-1.391 2.22,-3.153 2.22,-5.321 0,-2.781 -1.05,-4.742 -3.18,-5.832 -2.09,-1.089 -5.09,-1.656 -9.01,-1.656 h -3.71 V 104.23 c 0,-3.238 0.12,-5.73 0.32,-7.48 0.26,-1.75 0.87,-3.168 1.79,-4.2187 0.91,-1.0899 2.45,-1.6524 4.59,-1.6524 1.15,0 2.71,0.2031 4.72,0.6524 1.93,0.4179 3.48,0.6406 4.61,0.6406 1.59,0 3.07,-0.7031 4.33,-1.9727 1.25,-1.3672 1.91,-2.9883 1.91,-4.9804 0,-3.3086 -1.7,-5.8594 -5.21,-7.6172 -3.52,-1.7735 -8.5,-2.6524 -14.99,-2.6524 -6.19,0 -10.89,1.0899 -14.07,3.25 -3.18,2.1797 -5.3,5.1602 -6.25,9.0313 -1.02,3.8281 -1.51,8.9414 -1.51,15.3515 v 39.66 h -2.62 c -2.81,0 -4.98,0.707 -6.5,2.129 -1.5,1.41 -2.23,3.18 -2.23,5.359 0,2.168 0.77,3.93 2.32,5.321 1.59,1.379 3.86,2.09 6.86,2.09"
         style="fill:#9c99a2;fill-opacity:1;fill-rule:nonzero;stroke:none"
         transform="matrix(0.13333333,0,0,-0.13333333,0,666.65333)" />
      <path
         id="path50"
         d="m 2887.02,116.871 c 0,8.391 -1.8,14.961 -5.32,19.649 -3.58,4.66 -8.31,7.031 -14.32,7.031 -3.87,0 -7.27,-1.051 -10.2,-3.141 -2.97,-2.121 -5.24,-5.211 -6.82,-9.289 -1.59,-4.043 -2.4,-8.781 -2.4,-14.25 0,-5.402 0.81,-10.09 2.37,-14.121 1.56,-4.0312 3.8,-7.1211 6.72,-9.2695 2.91,-2.1289 6.36,-3.1914 10.33,-3.1914 6.01,0 10.74,2.3515 14.32,7.0507 3.52,4.6992 5.32,11.2302 5.32,19.5312 z m 19.86,0 c 0,-6.109 -0.91,-11.789 -2.78,-17.0194 -1.81,-5.1407 -4.49,-9.6211 -7.95,-13.3633 -3.48,-3.7383 -7.64,-6.5274 -12.46,-8.5664 -4.84,-1.9922 -10.24,-2.9727 -16.31,-2.9727 -6.01,0 -11.4,0.9805 -16.17,3.0313 -4.76,2 -8.92,4.8906 -12.42,8.6484 -3.49,3.7695 -6.15,8.1602 -7.94,13.2813 -1.81,5.1598 -2.7,10.7698 -2.7,16.9998 0,6.25 0.89,11.969 2.7,17.129 1.87,5.231 4.47,9.633 7.9,13.34 3.46,3.672 7.6,6.512 12.46,8.492 4.93,2 10.3,3.008 16.17,3.008 6.01,0 11.41,-1.008 16.31,-3.039 4.87,-2 9.03,-4.899 12.52,-8.629 3.45,-3.731 6.14,-8.191 7.95,-13.332 1.81,-5.129 2.72,-10.809 2.72,-17.008"
         style="fill:#9c99a2;fill-opacity:1;fill-rule:nonzero;stroke:none"
         transform="matrix(0.13333333,0,0,-0.13333333,0,666.65333)" />
      <path
         id="path51"
         d="M 2942.11,104.711 V 87.5195 c 0,-4.1914 -0.95,-7.3476 -2.83,-9.4609 -1.9,-2.0469 -4.28,-3.1094 -7.2,-3.1094 -2.81,0 -5.19,1.0899 -7,3.1602 -1.84,2.1211 -2.74,5.25 -2.74,9.4101 v 57.4495 c 0,9.293 3.2,13.91 9.62,13.91 3.25,0 5.64,-1.109 7.11,-3.25 1.43,-2.16 2.19,-5.379 2.39,-9.598 2.35,4.219 4.8,7.438 7.29,9.598 2.49,2.141 5.79,3.25 9.92,3.25 4.19,0 8.21,-1.109 12.14,-3.25 3.89,-2.16 5.87,-5.059 5.87,-8.617 0,-2.524 -0.86,-4.633 -2.52,-6.242 -1.65,-1.629 -3.46,-2.481 -5.41,-2.481 -0.71,0 -2.47,0.481 -5.24,1.441 -2.8,0.911 -5.25,1.391 -7.39,1.391 -2.87,0 -5.23,-0.769 -7.05,-2.391 -1.84,-1.609 -3.28,-3.941 -4.28,-7.05 -1.02,-3.168 -1.75,-6.871 -2.11,-11.2 -0.38,-4.281 -0.57,-9.519 -0.57,-15.769"
         style="fill:#9c99a2;fill-opacity:1;fill-rule:nonzero;stroke:none"
         transform="matrix(0.13333333,0,0,-0.13333333,0,666.65333)" />
      <path
         id="path52"
         d="m 3047.46,101.922 c 0,-5.7111 -1.33,-10.5704 -4.01,-14.6407 -2.67,-4.0704 -6.58,-7.1094 -11.78,-9.2227 -5.21,-2.0469 -11.5,-3.1094 -18.98,-3.1094 -7.05,0 -13.17,1.1328 -18.26,3.4219 -5.06,2.2578 -8.81,5.0781 -11.21,8.4687 -2.44,3.3907 -3.68,6.8086 -3.68,10.2188 0,2.2617 0.79,4.2224 2.37,5.8324 1.54,1.64 3.51,2.41 5.84,2.41 2.09,0 3.71,-0.539 4.81,-1.563 1.11,-1.117 2.15,-2.578 3.19,-4.488 2.02,-3.6914 4.44,-6.4414 7.31,-8.2578 2.78,-1.832 6.64,-2.7305 11.56,-2.7305 3.93,0 7.19,0.9297 9.74,2.7696 2.52,1.8398 3.82,3.9375 3.82,6.3085 0,3.6522 -1.33,6.3082 -3.94,7.9492 -2.68,1.699 -6.98,3.281 -13.03,4.793 -6.81,1.758 -12.36,3.617 -16.64,5.539 -4.28,1.961 -7.73,4.527 -10.27,7.707 -2.56,3.121 -3.86,7.063 -3.86,11.703 0,4.16 1.19,8.059 3.56,11.719 2.36,3.691 5.89,6.621 10.49,8.809 4.61,2.211 10.17,3.32 16.72,3.32 5.1,0 9.7,-0.57 13.8,-1.668 4.07,-1.109 7.53,-2.609 10.21,-4.461 2.73,-1.871 4.83,-3.93 6.24,-6.191 1.45,-2.289 2.15,-4.508 2.15,-6.661 0,-2.378 -0.74,-4.277 -2.29,-5.859 -1.53,-1.437 -3.71,-2.219 -6.47,-2.219 -2.06,0 -3.78,0.602 -5.22,1.84 -1.4,1.192 -3.06,2.988 -4.87,5.379 -1.51,2.02 -3.26,3.652 -5.31,4.859 -2.03,1.192 -4.78,1.813 -8.24,1.813 -3.58,0 -6.58,-0.781 -8.91,-2.391 -2.38,-1.57 -3.57,-3.57 -3.57,-5.941 0,-2.18 0.88,-3.938 2.59,-5.328 1.77,-1.391 4.09,-2.539 7.05,-3.449 2.97,-0.911 7.01,-2.043 12.19,-3.34 6.14,-1.551 11.14,-3.41 15.04,-5.582 3.88,-2.149 6.82,-4.719 8.82,-7.668 2.04,-2.981 3.04,-6.34 3.04,-10.09"
         style="fill:#9c99a2;fill-opacity:1;fill-rule:nonzero;stroke:none"
         transform="matrix(0.13333333,0,0,-0.13333333,0,666.65333)" />
      <path
         id="path53"
         d="m 3069.92,74.9492 c -3,0 -5.58,0.9805 -7.73,3.0313 -2.21,2 -3.28,4.8398 -3.28,8.4297 0,3.0781 1.01,5.7304 3.07,7.9492 2.08,2.2109 4.66,3.289 7.71,3.289 3.02,0 5.63,-1.0781 7.73,-3.2773 2.18,-2.1523 3.26,-4.8516 3.26,-7.9609 0,-3.5586 -1.08,-6.3711 -3.26,-8.3985 -2.1,-2.0429 -4.61,-3.0625 -7.5,-3.0625"
         style="fill:#9c99a2;fill-opacity:1;fill-rule:nonzero;stroke:none"
         transform="matrix(0.13333333,0,0,-0.13333333,0,666.65333)" />
      <path
         id="path54"
         d="m 3157.38,116.871 c 0,8.391 -1.78,14.961 -5.33,19.649 -3.55,4.66 -8.31,7.031 -14.29,7.031 -3.87,0 -7.24,-1.051 -10.2,-3.141 -2.96,-2.121 -5.23,-5.211 -6.81,-9.289 -1.57,-4.043 -2.38,-8.781 -2.38,-14.25 0,-5.402 0.76,-10.09 2.32,-14.121 1.61,-4.0312 3.84,-7.1211 6.77,-9.2695 2.91,-2.1289 6.34,-3.1914 10.3,-3.1914 5.98,0 10.74,2.3515 14.29,7.0507 3.55,4.6992 5.33,11.2302 5.33,19.5312 z m 19.88,0 c 0,-6.109 -0.91,-11.789 -2.78,-17.0194 -1.84,-5.1407 -4.47,-9.6211 -7.96,-13.3633 -3.5,-3.7383 -7.6,-6.5274 -12.46,-8.5664 -4.81,-1.9922 -10.24,-2.9727 -16.3,-2.9727 -5.98,0 -11.36,0.9805 -16.15,3.0313 -4.78,2 -8.9,4.8906 -12.4,8.6484 -3.56,3.7695 -6.19,8.1602 -8.03,13.2813 -1.77,5.1598 -2.67,10.7698 -2.67,16.9998 0,6.25 0.9,11.969 2.75,17.129 1.87,5.231 4.45,9.633 7.87,13.34 3.43,3.672 7.59,6.512 12.48,8.492 4.87,2 10.23,3.008 16.15,3.008 5.98,0 11.42,-1.008 16.3,-3.039 4.9,-2 9.07,-4.899 12.55,-8.629 3.46,-3.731 6.1,-8.191 7.93,-13.332 1.81,-5.129 2.72,-10.809 2.72,-17.008"
         style="fill:#9c99a2;fill-opacity:1;fill-rule:nonzero;stroke:none"
         transform="matrix(0.13333333,0,0,-0.13333333,0,666.65333)" />
      <path
         id="path55"
         d="M 3212.48,104.711 V 87.5195 c 0,-4.1914 -0.94,-7.3476 -2.82,-9.4609 -1.86,-2.0469 -4.28,-3.1094 -7.15,-3.1094 -2.89,0 -5.21,1.0899 -7.05,3.1602 -1.86,2.1211 -2.76,5.25 -2.76,9.4101 v 57.4495 c 0,9.293 3.25,13.91 9.64,13.91 3.29,0 5.64,-1.109 7.08,-3.25 1.43,-2.16 2.28,-5.379 2.45,-9.598 2.32,4.219 4.74,7.438 7.23,9.598 2.49,2.141 5.82,3.25 9.94,3.25 4.22,0 8.25,-1.109 12.12,-3.25 3.92,-2.16 5.89,-5.059 5.89,-8.617 0,-2.524 -0.84,-4.633 -2.49,-6.242 -1.69,-1.629 -3.46,-2.481 -5.43,-2.481 -0.7,0 -2.44,0.481 -5.21,1.441 -2.8,0.911 -5.25,1.391 -7.4,1.391 -2.88,0 -5.22,-0.769 -7.11,-2.391 -1.8,-1.609 -3.24,-3.941 -4.26,-7.05 -0.99,-3.168 -1.7,-6.871 -2.07,-11.2 -0.39,-4.281 -0.6,-9.519 -0.6,-15.769"
         style="fill:#9c99a2;fill-opacity:1;fill-rule:nonzero;stroke:none"
         transform="matrix(0.13333333,0,0,-0.13333333,0,666.65333)" />
      <path
         id="path56"
         d="m 3269.59,117.59 c 0,-8.352 1.76,-14.692 5.27,-19.0002 3.48,-4.2578 8.04,-6.4179 13.56,-6.4179 3.26,0 6.4,0.9492 9.31,2.789 2.93,1.8477 5.31,4.6094 7.15,8.3201 1.86,3.707 2.75,8.188 2.75,13.481 0,8.41 -1.79,14.957 -5.34,19.636 -3.53,4.723 -8.21,7.082 -14,7.082 -5.63,0 -10.17,-2.3 -13.56,-6.75 -3.43,-4.5 -5.14,-10.871 -5.14,-19.14 z m 57.33,26.18 V 83.7813 c 0,-6.8829 -0.75,-12.7696 -2.12,-17.6797 -1.4,-4.9727 -3.65,-9.0508 -6.73,-12.2696 -3.09,-3.2226 -7.16,-5.6132 -12.12,-7.1718 -5.01,-1.5313 -11.24,-2.3282 -18.66,-2.3282 -6.83,0 -12.93,0.9571 -18.27,2.9493 -5.37,2.039 -9.51,4.5781 -12.4,7.7578 -2.89,3.1093 -4.35,6.3593 -4.35,9.7109 0,2.5195 0.8,4.5586 2.49,6.1484 1.62,1.6329 3.6,2.4102 5.91,2.4102 2.91,0 5.41,-1.3477 7.63,-4 1.07,-1.4102 2.18,-2.7695 3.28,-4.1367 1.13,-1.3906 2.39,-2.6016 3.76,-3.5625 1.39,-1.0196 3.07,-1.7305 4.99,-2.2188 1.9,-0.4804 4.15,-0.7187 6.67,-0.7187 5.08,0 9.1,0.7578 11.91,2.2383 2.83,1.4804 4.81,3.5586 5.96,6.2304 1.09,2.668 1.81,5.5078 1.93,8.5703 0.23,3.1094 0.37,7.961 0.5,14.75 -3.04,-4.4296 -6.61,-7.8125 -10.55,-10.1289 -3.99,-2.3203 -8.75,-3.4609 -14.21,-3.4609 -6.68,0 -12.46,1.7305 -17.38,5.2891 -4.97,3.5195 -8.78,8.4414 -11.43,14.8203 -2.63,6.3285 -3.98,13.6605 -3.98,21.9885 0,6.23 0.79,11.84 2.44,16.832 1.58,4.969 3.87,9.187 6.92,12.621 2.96,3.418 6.44,6.008 10.34,7.758 3.94,1.718 8.19,2.609 12.91,2.609 5.58,0 10.43,-1.141 14.53,-3.398 4.16,-2.211 7.93,-5.77 11.47,-10.539 v 2.777 c 0,3.601 0.88,6.34 2.54,8.371 1.68,1.941 3.87,2.93 6.51,2.93 3.83,0 6.36,-1.282 7.63,-3.879 1.24,-2.61 1.88,-6.379 1.88,-11.281"
         style="fill:#9c99a2;fill-opacity:1;fill-rule:nonzero;stroke:none"
         transform="matrix(0.13333333,0,0,-0.13333333,0,666.65333)" />
      <path
         id="path57"
         d="m 2469.66,344.762 h 29.33 c -2.07,-15.813 -8.55,-28.153 -19.33,-37.043 -9.97,-8.699 -22.05,-12.989 -36.16,-12.989 -19.16,0 -34.46,6.731 -45.87,20.161 -10.82,12.769 -16.22,29.281 -16.22,49.418 0,20.66 5.36,37.16 16.06,49.671 10.69,12.442 25.82,18.7 45.37,18.7 14.54,0 26.85,-3.93 36.82,-11.731 10.58,-8.437 17.05,-20.301 19.33,-35.469 h -29.33 c -2.54,13.239 -10.62,19.821 -24.38,19.821 -22.67,0 -34.03,-13.43 -34.03,-40.301 0,-12.602 2.92,-22.871 8.75,-30.891 5.83,-8.039 14.05,-12.058 24.66,-12.058 15.81,0 24.15,7.59 25,22.711 z m -115.49,18.519 c 0,-26.261 8.33,-48.492 24.95,-66.59 16.65,-18.109 37.02,-27.171 61.2,-27.171 24.07,0 44.47,9.062 61.09,27.171 16.67,18.098 24.94,40.329 24.94,66.59 0,26.239 -8.27,48.449 -24.94,66.559 -16.62,18.148 -37.02,27.191 -61.09,27.191 -24.18,0 -44.55,-9.043 -61.2,-27.191 -16.62,-18.11 -24.95,-40.32 -24.95,-66.559 z m -29.8,0 c 0,33.41 11.3,61.918 33.93,85.617 22.66,23.653 50,35.473 82.02,35.473 31.95,0 59.25,-11.82 81.93,-35.473 22.64,-23.699 33.98,-52.207 33.98,-85.617 0,-33.441 -11.34,-61.992 -33.98,-85.633 -22.68,-23.679 -49.98,-35.507 -81.93,-35.507 -32.02,0 -59.36,11.828 -82.02,35.507 -22.63,23.641 -33.93,52.192 -33.93,85.633"
         style="fill:#9c99a2;fill-opacity:1;fill-rule:nonzero;stroke:none"
         transform="matrix(0.13333333,0,0,-0.13333333,0,666.65333)" />
      <path
         id="path58"
         d="m 2371.28,287.332 16.91,-14.344 124.34,159.66 -16.9,14.332 -124.35,-159.648"
         style="fill:#9c99a2;fill-opacity:1;fill-rule:nonzero;stroke:none"
         transform="matrix(0.13333333,0,0,-0.13333333,0,666.65333)" />
    </g>
  </g>
</svg>
