<?xml version="1.0" encoding="UTF-8" standalone="no"?>
<!-- Created with Inkscape (http://www.inkscape.org/) -->

<svg
   version="1.1"
   id="svg1"
   width="825.94666"
   height="801.40002"
   viewBox="0 0 825.94666 801.40002"
   sodipodi:docname="detective.svg"
   inkscape:version="1.4 (e7c3feb100, 2024-10-09)"
   xmlns:inkscape="http://www.inkscape.org/namespaces/inkscape"
   xmlns:sodipodi="http://sodipodi.sourceforge.net/DTD/sodipodi-0.dtd"
   xmlns="http://www.w3.org/2000/svg"
   xmlns:svg="http://www.w3.org/2000/svg">
  <defs
     id="defs1" />
  <sodipodi:namedview
     id="namedview1"
     pagecolor="#505050"
     bordercolor="#ffffff"
     borderopacity="1"
     inkscape:showpageshadow="0"
     inkscape:pageopacity="0"
     inkscape:pagecheckerboard="1"
     inkscape:deskcolor="#d1d1d1"
     inkscape:zoom="1.0169703"
     inkscape:cx="412.99143"
     inkscape:cy="400.70001"
     inkscape:window-width="1920"
     inkscape:window-height="1002"
     inkscape:window-x="0"
     inkscape:window-y="0"
     inkscape:window-maximized="1"
     inkscape:current-layer="g1">
    <inkscape:page
       x="0"
       y="0"
       inkscape:label="1"
       id="page1"
       width="825.94666"
       height="801.40002"
       margin="0"
       bleed="0" />
  </sodipodi:namedview>
  <g
     id="g1"
     inkscape:groupmode="layer"
     inkscape:label="1">
    <g
       id="group-R5">
      <path
         id="path2"
         d="m 2238.16,90.5195 c 0,6.7696 -0.96,12.6015 -2.98,17.4215 -1.94,4.868 -4.69,8.579 -8.22,11.231 -3.51,2.578 -7.38,3.898 -11.66,3.898 -6.76,0 -12.47,-2.859 -17.14,-8.39 -4.66,-5.61 -6.98,-13.75 -6.98,-24.6097 0,-10.2187 2.32,-18.1406 6.92,-23.7578 4.64,-5.6719 10.38,-8.5508 17.2,-8.5508 4.09,0 7.87,1.25 11.37,3.75 3.44,2.4571 6.25,6.1602 8.34,11.0899 2.12,4.9804 3.15,10.9179 3.15,17.9179 z m -48.13,37.3325 v -3.09 c 4.62,5.937 9.4,10.34 14.37,13.09 4.99,2.796 10.66,4.23 16.96,4.23 7.54,0 14.5,-2.062 20.87,-6.16 6.34,-4.051 11.35,-9.961 15.06,-17.813 3.69,-7.847 5.51,-17.078 5.51,-27.8004 0,-7.8789 -1.03,-15.1875 -3.17,-21.707 -2.12,-6.6328 -5.05,-12.1797 -8.77,-16.6524 -3.72,-4.4687 -8.13,-7.9492 -13.18,-10.2969 -5.09,-2.4531 -10.54,-3.6406 -16.32,-3.6406 -7.05,0 -12.95,1.4492 -17.71,4.3985 -4.8,2.9296 -9.31,7.2304 -13.62,12.9414 V 16.8906 C 2190.03,5.58984 2186.1,0 2178.25,0 c -4.63,0 -7.69,1.41016 -9.16,4.33203 -1.5,2.92969 -2.25,7.16797 -2.25,12.72657 V 127.691 c 0,4.86 0.99,8.539 3.05,10.918 2.06,2.403 4.84,3.641 8.36,3.641 3.47,0 6.32,-1.238 8.5,-3.738 2.19,-2.512 3.28,-6.063 3.28,-10.66"
         style="fill:#2d2b2e;fill-opacity:1;fill-rule:nonzero;stroke:none"
         transform="matrix(0.13333333,0,0,-0.13333333,0,801.4)" />
      <path
         id="path3"
         d="M 2346.35,52.4922 V 55.75 c -2.97,-3.8984 -6.04,-7.1211 -9.3,-9.7187 -3.24,-2.6915 -6.78,-4.6407 -10.59,-5.9102 -3.86,-1.25 -8.25,-1.9102 -13.15,-1.9102 -5.93,0 -11.25,1.3008 -15.96,3.8282 -4.72,2.582 -8.35,6.1093 -10.91,10.6093 -3.1,5.4532 -4.61,13.2813 -4.61,23.4336 v 50.809 c 0,5.101 1.11,8.961 3.34,11.461 2.21,2.55 5.14,3.847 8.79,3.847 3.74,0 6.73,-1.297 9.01,-3.89 2.27,-2.567 3.41,-6.411 3.41,-11.418 V 85.8516 c 0,-5.9219 0.49,-10.9102 1.39,-14.9297 1.01,-4.0703 2.72,-7.2305 5.26,-9.5313 2.44,-2.2617 5.81,-3.3906 10.07,-3.3906 4.18,0 8.08,1.2891 11.69,3.8516 3.7,2.5468 6.37,5.8672 8.03,9.9882 1.4,3.6719 2.07,11.6211 2.07,23.879 v 31.1722 c 0,5.007 1.14,8.851 3.43,11.418 2.26,2.593 5.22,3.89 8.87,3.89 3.67,0 6.6,-1.297 8.82,-3.847 2.21,-2.5 3.3,-6.36 3.3,-11.461 V 52.6484 c 0,-4.8789 -1.03,-8.5586 -3.18,-10.957 -2.09,-2.4726 -4.84,-3.6601 -8.21,-3.6601 -3.34,0 -6.11,1.2773 -8.3,3.7695 -2.18,2.5703 -3.27,6.0781 -3.27,10.6914"
         style="fill:#2d2b2e;fill-opacity:1;fill-rule:nonzero;stroke:none"
         transform="matrix(0.13333333,0,0,-0.13333333,0,801.4)" />
      <path
         id="path4"
         d="m 2417.57,89.5 c 0,-10.1914 2.22,-18.0117 6.67,-23.5117 4.48,-5.4492 10.34,-8.2266 17.61,-8.2266 6.2,0 11.48,2.8203 15.99,8.418 4.48,5.6094 6.69,13.582 6.69,24.0508 0,6.8398 -0.93,12.6485 -2.77,17.4885 -1.88,4.902 -4.55,8.679 -7.92,11.34 -3.47,2.632 -7.42,4.011 -11.99,4.011 -4.71,0 -8.83,-1.379 -12.5,-4.011 -3.68,-2.661 -6.54,-6.539 -8.65,-11.559 -2.1,-5 -3.13,-11 -3.13,-18 z m -1.17,76.172 v -39.16 c 4.57,5.058 9.3,8.847 14.1,11.547 4.79,2.66 10.75,4.023 17.83,4.023 8.13,0 15.27,-2.062 21.45,-6.082 6.12,-4.102 10.92,-9.91 14.29,-17.559 3.42,-7.679 5.09,-16.742 5.09,-27.2613 0,-7.7891 -0.94,-14.8984 -2.81,-21.4102 -1.91,-6.4609 -4.63,-12.0507 -8.22,-16.8281 -3.63,-4.7617 -7.99,-8.3828 -13.11,-11.082 -5.14,-2.5508 -10.8,-3.8477 -16.95,-3.8477 -3.78,0 -7.33,0.4571 -10.69,1.4102 -3.34,0.9297 -6.17,2.1367 -8.48,3.707 -2.36,1.4922 -4.35,3.0899 -6,4.6914 -1.65,1.6485 -3.8,4.0781 -6.5,7.3281 v -2.5 c 0,-4.8593 -1.13,-8.4882 -3.36,-10.957 -2.2,-2.4726 -5.04,-3.6797 -8.43,-3.6797 -3.5,0 -6.24,1.2071 -8.35,3.6797 -2.06,2.5508 -3.08,6.1289 -3.08,10.957 V 164.57 c 0,5.141 1,9.078 3.03,11.731 2,2.679 4.78,4 8.4,4 3.74,0 6.68,-1.281 8.7,-3.832 2.06,-2.52 3.09,-6.09 3.09,-10.797"
         style="fill:#2d2b2e;fill-opacity:1;fill-rule:nonzero;stroke:none"
         transform="matrix(0.13333333,0,0,-0.13333333,0,801.4)" />
      <path
         id="path5"
         d="M 2506.49,53.5898 V 164.719 c 0,5.16 1.09,9.023 3.27,11.652 2.2,2.609 5.15,3.93 8.86,3.93 3.72,0 6.71,-1.289 9.01,-3.91 2.24,-2.571 3.4,-6.5 3.4,-11.672 V 53.5898 c 0,-5.1679 -1.18,-9.0976 -3.46,-11.7304 -2.31,-2.5508 -5.29,-3.8477 -8.95,-3.8477 -3.59,0 -6.49,1.3281 -8.75,4.0274 -2.26,2.7109 -3.38,6.5312 -3.38,11.5507"
         style="fill:#2d2b2e;fill-opacity:1;fill-rule:nonzero;stroke:none"
         transform="matrix(0.13333333,0,0,-0.13333333,0,801.4)" />
      <path
         id="path6"
         d="M 2580.94,127.609 V 53.5898 c 0,-5.1601 -1.19,-9.0312 -3.48,-11.6679 -2.35,-2.5821 -5.34,-3.9102 -8.92,-3.9102 -3.6,0 -6.52,1.3281 -8.76,4.0196 -2.24,2.7187 -3.38,6.539 -3.38,11.5585 v 73.3012 c 0,5.007 1.14,8.851 3.38,11.418 2.24,2.593 5.16,3.89 8.76,3.89 3.58,0 6.57,-1.297 8.92,-3.89 2.29,-2.567 3.48,-6.098 3.48,-10.7 z m -12.16,26.52 c -3.39,0 -6.3,1.062 -8.78,3.332 -2.36,2.168 -3.6,5.309 -3.6,9.309 0,3.609 1.24,6.562 3.73,8.972 2.46,2.328 5.36,3.449 8.65,3.449 3.2,0 6.02,-1.043 8.49,-3.16 2.43,-2.121 3.67,-5.25 3.67,-9.261 0,-3.989 -1.21,-7.051 -3.59,-9.25 -2.4,-2.231 -5.24,-3.391 -8.57,-3.391"
         style="fill:#2d2b2e;fill-opacity:1;fill-rule:nonzero;stroke:none"
         transform="matrix(0.13333333,0,0,-0.13333333,0,801.4)" />
      <path
         id="path7"
         d="m 2694.26,69.7305 c 0,-3.1797 -0.9,-6.6016 -2.71,-10.2188 -1.87,-3.6328 -4.65,-7.082 -8.41,-10.3594 -3.73,-3.2812 -8.45,-5.9335 -14.14,-7.9023 -5.69,-2.0508 -12.13,-3.0391 -19.23,-3.0391 -15.19,0 -27.02,4.6211 -35.55,13.8204 -8.51,9.2695 -12.76,21.5976 -12.76,37.1289 0,10.5 1.94,19.8198 5.82,27.8598 3.9,8.05 9.57,14.332 16.92,18.722 7.35,4.43 16.19,6.629 26.42,6.629 6.37,0 12.22,-0.992 17.52,-2.891 5.31,-1.949 9.8,-4.48 13.47,-7.511 3.7,-3.071 6.5,-6.34 8.48,-9.797 1.98,-3.481 2.91,-6.723 2.91,-9.731 0,-3.031 -1.12,-5.609 -3.27,-7.761 -2.2,-2.149 -4.83,-3.219 -7.96,-3.219 -2.06,0 -3.74,0.609 -5.1,1.699 -1.32,1.051 -2.87,2.781 -4.53,5.27 -3.01,4.718 -6.14,8.312 -9.41,10.742 -3.28,2.348 -7.43,3.59 -12.42,3.59 -7.29,0 -13.15,-3.012 -17.58,-8.903 -4.43,-5.957 -6.64,-14.0504 -6.64,-24.2887 0,-4.8086 0.58,-9.3008 1.71,-13.3203 1.15,-4.0391 2.8,-7.4375 4.93,-10.3203 2.17,-2.8594 4.76,-5 7.85,-6.4609 3.04,-1.4766 6.41,-2.2383 10.04,-2.2383 4.95,0 9.14,1.1797 12.65,3.5781 3.52,2.3906 6.63,6.0234 9.29,10.8633 1.54,2.9297 3.14,5.1601 4.89,6.8281 1.74,1.6094 3.87,2.3906 6.38,2.3906 3,0 5.49,-1.1718 7.48,-3.5195 1.94,-2.4297 2.95,-4.9492 2.95,-7.6406"
         style="fill:#2d2b2e;fill-opacity:1;fill-rule:nonzero;stroke:none"
         transform="matrix(0.13333333,0,0,-0.13333333,0,801.4)" />
      <path
         id="path8"
         d="m 2734.71,90.2305 c 0,-6.9297 1.03,-12.8203 3.1,-17.7305 2.07,-4.8906 4.87,-8.5312 8.45,-10.9883 3.64,-2.5 7.55,-3.75 11.77,-3.75 4.35,0 8.28,1.1992 11.84,3.5391 3.57,2.3476 6.4,5.9492 8.56,10.8008 2.12,4.8398 3.17,10.9101 3.17,18.1289 0,6.8593 -1.05,12.7105 -3.17,17.6215 -2.16,4.957 -5.01,8.668 -8.64,11.32 -3.63,2.578 -7.59,3.898 -11.89,3.898 -4.49,0 -8.5,-1.379 -12.06,-4.011 -3.51,-2.661 -6.27,-6.489 -8.21,-11.477 -1.94,-5 -2.92,-10.7109 -2.92,-17.3515 z m 48.24,-37.5821 v 2.5 c -3.28,-3.9375 -6.54,-7.1289 -9.77,-9.5976 -3.17,-2.4805 -6.67,-4.3516 -10.41,-5.6524 -3.73,-1.2265 -7.84,-1.8867 -12.27,-1.8867 -5.85,0 -11.33,1.2969 -16.32,3.8477 -4.98,2.6992 -9.32,6.3515 -12.97,11.1797 -3.66,4.7929 -6.42,10.4726 -8.34,17 -1.9,6.4726 -2.83,13.5195 -2.83,21.1406 0,15.9723 3.76,28.5113 11.24,37.4613 7.51,8.949 17.37,13.441 29.58,13.441 7.08,0 13.06,-1.301 17.89,-3.891 4.85,-2.492 9.6,-6.402 14.2,-11.679 v 37.828 c 0,5.281 1.01,9.23 3.04,11.922 1.99,2.699 4.83,4.039 8.56,4.039 3.72,0 6.56,-1.231 8.6,-3.68 2.01,-2.461 3.04,-6.141 3.04,-10.949 V 52.6484 c 0,-4.8789 -1.1,-8.5586 -3.27,-10.957 -2.15,-2.4726 -4.94,-3.6797 -8.37,-3.6797 -3.31,0 -6.12,1.25 -8.32,3.7891 -2.19,2.5 -3.28,6.1015 -3.28,10.8476"
         style="fill:#2d2b2e;fill-opacity:1;fill-rule:nonzero;stroke:none"
         transform="matrix(0.13333333,0,0,-0.13333333,0,801.4)" />
      <path
         id="path9"
         d="m 2898.09,90.0508 c 0,10.3982 -2.22,18.5512 -6.63,24.3592 -4.4,5.801 -10.34,8.75 -17.75,8.75 -4.83,0 -9.03,-1.328 -12.7,-3.91 -3.64,-2.621 -6.47,-6.441 -8.44,-11.531 -1.98,-5.008 -2.98,-10.9104 -2.98,-17.6682 0,-6.6992 1,-12.5508 2.93,-17.5508 1.95,-4.9883 4.74,-8.8203 8.39,-11.5195 3.59,-2.6094 7.91,-3.9219 12.8,-3.9219 7.41,0 13.35,2.8828 17.75,8.7422 4.41,5.8203 6.63,13.918 6.63,24.25 z m 24.63,0 c 0,-7.6211 -1.14,-14.6406 -3.42,-21.1524 -2.27,-6.3671 -5.56,-11.9296 -9.87,-16.5781 -4.33,-4.6406 -9.49,-8.0781 -15.49,-10.6289 -5.99,-2.4726 -12.78,-3.6797 -20.23,-3.6797 -7.44,0 -14.11,1.2071 -20.06,3.7578 -5.94,2.4805 -11.08,6.0508 -15.43,10.7227 -4.34,4.6875 -7.62,10.1484 -9.91,16.4961 -2.24,6.3906 -3.34,13.3711 -3.34,21.1015 0,7.75 1.14,14.8512 3.4,21.2692 2.29,6.461 5.55,11.95 9.79,16.563 4.28,4.527 9.42,8.066 15.49,10.539 6.08,2.461 12.74,3.738 20.06,3.738 7.44,0 14.2,-1.277 20.23,-3.777 6.04,-2.512 11.23,-6.113 15.55,-10.731 4.32,-4.621 7.6,-10.152 9.83,-16.543 2.3,-6.359 3.4,-13.4175 3.4,-21.0972"
         style="fill:#2d2b2e;fill-opacity:1;fill-rule:nonzero;stroke:none"
         transform="matrix(0.13333333,0,0,-0.13333333,0,801.4)" />
      <path
         id="path10"
         d="m 3026.42,111.191 c -1.83,-4.332 -2.72,-11.941 -2.72,-22.9605 V 54.1797 c 0,-5.3594 -1.15,-9.4297 -3.52,-12.1406 -2.32,-2.6993 -5.43,-4.0274 -9.27,-4.0274 -3.7,0 -6.7,1.3281 -8.99,4.0274 -2.31,2.7109 -3.45,6.7812 -3.45,12.1406 v 40.8516 c 0,6.4297 -0.24,11.4377 -0.67,15.0507 -0.43,3.527 -1.55,6.477 -3.41,8.77 -1.82,2.289 -4.79,3.437 -8.78,3.437 -8.03,0 -13.3,-2.879 -15.88,-8.68 -2.55,-5.757 -3.79,-14.0074 -3.79,-24.7887 V 54.1797 c 0,-5.3477 -1.17,-9.3906 -3.46,-12.0508 -2.32,-2.7891 -5.37,-4.1172 -9.11,-4.1172 -3.74,0 -6.81,1.3281 -9.16,4.1172 -2.38,2.6602 -3.52,6.7031 -3.52,12.0117 v 73.3514 c 0,4.817 1.02,8.496 3.13,10.969 2.16,2.5 4.95,3.789 8.44,3.789 3.36,0 6.16,-1.18 8.4,-3.52 2.26,-2.339 3.37,-5.558 3.37,-9.71 v -2.438 c 4.25,5.316 8.82,9.258 13.66,11.727 4.84,2.48 10.3,3.773 16.19,3.773 6.17,0 11.43,-1.301 15.89,-3.891 4.46,-2.55 8.09,-6.441 10.95,-11.609 4.14,5.207 8.6,9.16 13.33,11.668 4.75,2.539 9.97,3.832 15.72,3.832 6.75,0 12.52,-1.363 17.36,-4.152 4.87,-2.782 8.49,-6.68 10.89,-11.84 2.11,-4.621 3.14,-11.899 3.14,-21.879 V 54.1797 c 0,-5.3594 -1.16,-9.4297 -3.47,-12.1406 -2.38,-2.6993 -5.44,-4.0274 -9.29,-4.0274 -3.72,0 -6.77,1.3281 -9.11,4.1172 -2.4,2.6602 -3.59,6.7031 -3.59,12.0508 v 43.1094 c 0,5.4999 -0.23,9.9019 -0.67,13.2499 -0.44,3.332 -1.66,6.09 -3.65,8.352 -1.97,2.25 -4.98,3.398 -8.97,3.398 -3.23,0 -6.32,-1.027 -9.19,-2.988 -2.96,-2.031 -5.17,-4.719 -6.8,-8.11 v 0"
         style="fill:#2d2b2e;fill-opacity:1;fill-rule:nonzero;stroke:none"
         transform="matrix(0.13333333,0,0,-0.13333333,0,801.4)" />
      <path
         id="path11"
         d="m 3165.45,89.5703 c -3.62,-1.4297 -8.84,-2.8515 -15.71,-4.4219 -6.86,-1.5195 -11.63,-2.6093 -14.28,-3.3593 -2.63,-0.75 -5.14,-2.1172 -7.54,-4.2071 -2.42,-2.1601 -3.61,-5.082 -3.61,-8.8398 0,-3.9024 1.42,-7.1836 4.24,-9.8828 2.82,-2.7774 6.51,-4.1211 11.07,-4.1211 4.85,0 9.36,1.1406 13.45,3.3633 4.11,2.207 7.14,5.0976 9.03,8.5781 2.23,3.8789 3.35,10.2617 3.35,19.2305 z m 1.61,-37.1406 C 3161.1,47.6211 3155.37,44 3149.82,41.6523 c -5.53,-2.4531 -11.76,-3.6406 -18.63,-3.6406 -6.33,0 -11.84,1.2969 -16.62,3.8477 -4.78,2.6328 -8.44,6.1601 -11.03,10.6328 -2.57,4.4375 -3.88,9.2266 -3.88,14.4375 0,7 2.18,12.9609 6.42,17.9297 4.23,4.8906 10.07,8.2109 17.5,9.9297 1.56,0.3711 5.46,1.1914 11.61,2.5 6.21,1.3515 11.47,2.5195 15.92,3.6409 4.38,1.05 9.2,2.39 14.34,3.941 -0.32,6.809 -1.61,11.758 -3.91,14.961 -2.32,3.137 -7.13,4.688 -14.36,4.688 -6.25,0 -10.93,-0.872 -14.12,-2.719 -3.12,-1.762 -5.84,-4.531 -8.06,-8.192 -2.27,-3.609 -3.83,-6 -4.76,-7.179 -0.95,-1.16 -2.96,-1.692 -5.98,-1.692 -2.78,0 -5.14,0.903 -7.13,2.731 -2.04,1.863 -3.05,4.211 -3.05,7.113 0,4.5 1.55,8.898 4.6,13.109 3.05,4.278 7.82,7.778 14.3,10.559 6.47,2.762 14.53,4.121 24.2,4.121 10.78,0 19.27,-1.359 25.48,-4.019 6.16,-2.61 10.5,-6.782 13.04,-12.602 2.58,-5.711 3.86,-13.398 3.86,-22.871 0,-6.0079 0,-11.1602 -0.05,-15.3087 -0.06,-4.2187 -0.07,-8.8906 -0.14,-14.0195 0,-4.8086 0.76,-9.8594 2.3,-15.0391 1.49,-5.2031 2.25,-8.6133 2.25,-10.082 0,-2.6211 -1.21,-5.0508 -3.55,-7.1797 -2.32,-2.1484 -5.02,-3.2383 -8.01,-3.2383 -2.54,0 -4.99,1.2071 -7.5,3.6797 -2.43,2.4688 -5.04,6.0781 -7.8,10.7383"
         style="fill:#2d2b2e;fill-opacity:1;fill-rule:nonzero;stroke:none"
         transform="matrix(0.13333333,0,0,-0.13333333,0,801.4)" />
      <path
         id="path12"
         d="M 3239.04,127.609 V 53.5898 c 0,-5.1601 -1.18,-9.0312 -3.5,-11.6679 -2.34,-2.5821 -5.29,-3.9102 -8.88,-3.9102 -3.6,0 -6.57,1.3281 -8.78,4.0196 -2.26,2.7187 -3.38,6.539 -3.38,11.5585 v 73.3012 c 0,5.007 1.12,8.851 3.38,11.418 2.21,2.593 5.18,3.89 8.78,3.89 3.59,0 6.54,-1.297 8.88,-3.89 2.32,-2.567 3.5,-6.098 3.5,-10.7 z m -12.13,26.52 c -3.4,0 -6.31,1.062 -8.75,3.332 -2.42,2.168 -3.66,5.309 -3.66,9.309 0,3.609 1.26,6.562 3.76,8.972 2.46,2.328 5.37,3.449 8.65,3.449 3.16,0 6.01,-1.043 8.48,-3.16 2.42,-2.121 3.65,-5.25 3.65,-9.261 0,-3.989 -1.19,-7.051 -3.59,-9.25 -2.41,-2.231 -5.26,-3.391 -8.54,-3.391"
         style="fill:#2d2b2e;fill-opacity:1;fill-rule:nonzero;stroke:none"
         transform="matrix(0.13333333,0,0,-0.13333333,0,801.4)" />
      <path
         id="path13"
         d="m 3286.74,127.992 v -3.07 c 4.27,5.918 9.02,10.289 14.11,13.058 5.15,2.801 11.02,4.219 17.74,4.219 6.43,0 12.23,-1.48 17.36,-4.469 5.05,-2.91 8.89,-7.031 11.39,-12.421 1.61,-3.137 2.64,-6.559 3.14,-10.161 0.45,-3.617 0.74,-8.238 0.74,-13.886 V 53.5898 c 0,-5.1601 -1.18,-9.0312 -3.39,-11.6679 -2.26,-2.5821 -5.19,-3.9102 -8.76,-3.9102 -3.65,0 -6.63,1.3281 -8.84,4.0274 -2.3,2.7109 -3.47,6.5312 -3.47,11.5507 v 42.6797 c 0,8.4685 -1.08,14.9215 -3.34,19.4025 -2.3,4.469 -6.77,6.719 -13.49,6.719 -4.37,0 -8.36,-1.371 -11.97,-4.121 -3.59,-2.68 -6.22,-6.43 -7.9,-11.2 -1.2,-3.789 -1.82,-10.9216 -1.82,-21.4294 V 53.5898 c 0,-5.1679 -1.14,-9.0976 -3.46,-11.7304 -2.32,-2.5508 -5.29,-3.8477 -8.94,-3.8477 -3.52,0 -6.45,1.3281 -8.72,4.0196 -2.31,2.7187 -3.42,6.539 -3.42,11.5585 v 74.0192 c 0,4.911 1,8.52 3.06,10.942 2.01,2.41 4.86,3.648 8.36,3.648 2.15,0 4.12,-0.59 5.81,-1.629 1.81,-1.039 3.16,-2.679 4.21,-4.73 1.02,-2.199 1.6,-4.77 1.6,-7.848"
         style="fill:#2d2b2e;fill-opacity:1;fill-rule:nonzero;stroke:none"
         transform="matrix(0.13333333,0,0,-0.13333333,0,801.4)" />
      <path
         id="path14"
         d="m 3390.61,126.219 19.83,-58.1682 21.41,60.7112 c 1.72,4.879 3.35,8.297 4.99,10.359 1.64,2.008 4.05,3.078 7.33,3.078 3.15,0 5.8,-1.129 8.02,-3.34 2.16,-2.187 3.27,-4.668 3.27,-7.609 0,-1.109 -0.22,-2.398 -0.6,-3.871 -0.36,-1.547 -0.82,-2.969 -1.35,-4.297 -0.52,-1.281 -1.04,-2.801 -1.75,-4.461 L 3428.2,57.6211 c -0.67,-1.7422 -1.53,-4 -2.56,-6.6797 -1.08,-2.6719 -2.26,-4.9609 -3.53,-6.9414 -1.3,-1.8711 -2.88,-3.3281 -4.74,-4.3984 -1.92,-1.0508 -4.22,-1.5899 -6.93,-1.5899 -3.46,0 -6.25,0.8086 -8.32,2.4571 -2.09,1.6601 -3.62,3.4531 -4.58,5.4726 -0.98,1.9375 -2.67,5.8477 -5,11.6797 l -23.39,60.3279 c -0.55,1.5 -1.11,3.012 -1.7,4.492 -0.55,1.508 -0.99,3.008 -1.41,4.61 -0.36,1.59 -0.59,2.929 -0.59,4.019 0,1.782 0.51,3.512 1.56,5.219 1.01,1.742 2.44,3.18 4.23,4.242 1.81,1.078 3.72,1.668 5.84,1.668 4.06,0 6.88,-1.238 8.4,-3.738 1.55,-2.41 3.26,-6.492 5.13,-12.242"
         style="fill:#2d2b2e;fill-opacity:1;fill-rule:nonzero;stroke:none"
         transform="matrix(0.13333333,0,0,-0.13333333,0,801.4)" />
      <path
         id="path15"
         d="m 3491.04,98.3906 h 44.51 c -0.58,8.7504 -2.83,15.3084 -6.79,19.6404 -3.94,4.309 -9.11,6.489 -15.52,6.489 -6.09,0 -11.13,-2.2 -15.03,-6.59 -3.95,-4.399 -6.28,-10.918 -7.17,-19.5394 z m 48.05,-14.5508 h -48.05 c 0.02,-5.871 1.19,-10.9804 3.34,-15.4687 2.23,-4.4023 5.13,-7.7305 8.74,-10 3.63,-2.2891 7.66,-3.3711 12.03,-3.3711 2.92,0 5.63,0.3516 8.04,1.0391 2.43,0.7617 4.78,1.8906 7.09,3.4023 2.23,1.5195 4.32,3.1602 6.26,4.957 1.89,1.7227 4.45,4.0704 7.45,7.0899 1.29,1.1914 3.09,1.7109 5.4,1.7109 2.55,0 4.58,-0.6992 6.13,-2.1601 1.57,-1.4375 2.33,-3.4493 2.33,-6.0586 0,-2.3399 -0.86,-5.0586 -2.63,-8.1797 -1.72,-3.0586 -4.29,-6.0391 -7.85,-8.9219 -3.53,-2.8164 -7.93,-5.168 -13.23,-7.0898 -5.28,-1.8594 -11.35,-2.7774 -18.3,-2.7774 -15.76,0 -28.02,4.6992 -36.75,14.0586 -8.73,9.4297 -13.11,22.1211 -13.11,38.1602 0,7.6797 1.1,14.6405 3.23,21.1015 2.16,6.488 5.3,12.039 9.43,16.66 4.15,4.656 9.22,8.238 15.29,10.668 6.07,2.469 12.76,3.711 20.18,3.711 9.52,0 17.76,-2.109 24.64,-6.371 6.86,-4.211 12.01,-9.621 15.41,-16.309 3.44,-6.711 5.13,-13.531 5.13,-20.5113 0,-6.3984 -1.71,-10.5781 -5.29,-12.4805 -3.58,-1.9375 -8.5,-2.8594 -14.91,-2.8594"
         style="fill:#2d2b2e;fill-opacity:1;fill-rule:nonzero;stroke:none"
         transform="matrix(0.13333333,0,0,-0.13333333,0,801.4)" />
      <path
         id="path16"
         d="m 3668.05,69.7305 c 0,-3.1797 -0.89,-6.6016 -2.75,-10.2188 -1.84,-3.6328 -4.59,-7.082 -8.36,-10.3594 -3.74,-3.2812 -8.49,-5.9335 -14.2,-7.9023 -5.66,-2.0508 -12.11,-3.0391 -19.21,-3.0391 -15.2,0 -27.04,4.6211 -35.54,13.8204 -8.48,9.2695 -12.78,21.5976 -12.78,37.1289 0,10.5 1.94,19.8198 5.87,27.8598 3.9,8.05 9.5,14.332 16.89,18.722 7.35,4.43 16.2,6.629 26.46,6.629 6.34,0 12.16,-0.992 17.5,-2.891 5.28,-1.949 9.75,-4.48 13.49,-7.511 3.69,-3.071 6.49,-6.34 8.47,-9.797 1.91,-3.481 2.9,-6.723 2.9,-9.731 0,-3.031 -1.08,-5.609 -3.33,-7.761 -2.17,-2.149 -4.81,-3.219 -7.92,-3.219 -2.06,0 -3.74,0.609 -5.05,1.699 -1.39,1.051 -2.9,2.781 -4.61,5.27 -2.98,4.718 -6.09,8.312 -9.35,10.742 -3.28,2.348 -7.43,3.59 -12.5,3.59 -7.2,0 -13.09,-3.012 -17.5,-8.903 -4.47,-5.957 -6.65,-14.0504 -6.65,-24.2887 0,-4.8086 0.58,-9.3008 1.69,-13.3203 1.15,-4.0391 2.81,-7.4375 4.96,-10.3203 2.17,-2.8594 4.78,-5 7.85,-6.4609 3,-1.4766 6.37,-2.2383 10.05,-2.2383 4.9,0 9.14,1.1797 12.65,3.5781 3.48,2.3906 6.62,6.0234 9.32,10.8633 1.49,2.9297 3.08,5.1601 4.83,6.8281 1.72,1.6094 3.84,2.3906 6.39,2.3906 2.97,0 5.49,-1.1718 7.41,-3.5195 2.03,-2.4297 3.02,-4.9492 3.02,-7.6406"
         style="fill:#2d2b2e;fill-opacity:1;fill-rule:nonzero;stroke:none"
         transform="matrix(0.13333333,0,0,-0.13333333,0,801.4)" />
      <path
         id="path17"
         d="m 3690.85,140.02 h 2.72 v 15.402 c 0,4.098 0.1,7.359 0.31,9.699 0.22,2.348 0.75,4.328 1.77,6.039 0.94,1.731 2.31,3.172 4.14,4.289 1.77,1.071 3.77,1.602 6,1.602 3.11,0 5.93,-1.219 8.44,-3.629 1.64,-1.66 2.74,-3.633 3.2,-5.953 0.44,-2.348 0.66,-5.707 0.66,-10.008 V 140.02 h 9.02 c 3.47,0 6.12,-0.868 7.95,-2.598 1.87,-1.723 2.76,-3.902 2.76,-6.602 0,-3.441 -1.3,-5.898 -3.94,-7.23 -2.59,-1.36 -6.33,-2.07 -11.19,-2.07 h -4.6 V 74.332 c 0,-4.0117 0.13,-7.082 0.39,-9.2617 0.31,-2.1797 1.07,-3.9414 2.22,-5.25 1.14,-1.3515 3.04,-2.0586 5.68,-2.0586 1.46,0 3.38,0.2696 5.87,0.8203 2.41,0.5391 4.34,0.7969 5.75,0.7969 1.97,0 3.78,-0.8672 5.33,-2.4492 1.58,-1.7109 2.4,-3.7188 2.4,-6.168 0,-4.1211 -2.11,-7.2812 -6.47,-9.4804 -4.35,-2.1797 -10.54,-3.2696 -18.61,-3.2696 -7.69,0 -13.52,1.3281 -17.47,4.0274 -3.95,2.7109 -6.57,6.3906 -7.75,11.2109 -1.26,4.75 -1.86,11.082 -1.86,19.0508 V 121.52 h -3.29 c -3.46,0 -6.16,0.871 -8.04,2.66 -1.88,1.742 -2.79,3.941 -2.79,6.64 0,2.7 0.97,4.879 2.9,6.602 1.97,1.73 4.8,2.598 8.5,2.598"
         style="fill:#2d2b2e;fill-opacity:1;fill-rule:nonzero;stroke:none"
         transform="matrix(0.13333333,0,0,-0.13333333,0,801.4)" />
      <path
         id="path18"
         d="m 3821.93,90.0508 c 0,10.3982 -2.22,18.5512 -6.59,24.3592 -4.45,5.801 -10.33,8.75 -17.79,8.75 -4.79,0 -9.01,-1.328 -12.66,-3.91 -3.68,-2.621 -6.5,-6.441 -8.46,-11.531 -1.97,-5.008 -2.97,-10.9104 -2.97,-17.6682 0,-6.6992 1,-12.5508 2.95,-17.5508 1.92,-4.9883 4.7,-8.8203 8.32,-11.5195 3.62,-2.6094 7.88,-3.9219 12.82,-3.9219 7.46,0 13.34,2.8828 17.79,8.7422 4.37,5.8203 6.59,13.918 6.59,24.25 z m 24.65,0 c 0,-7.6211 -1.14,-14.6406 -3.44,-21.1524 -2.27,-6.3671 -5.58,-11.9296 -9.87,-16.5781 -4.33,-4.6406 -9.5,-8.0781 -15.47,-10.6289 -5.99,-2.4726 -12.71,-3.6797 -20.25,-3.6797 -7.46,0 -14.14,1.2071 -20.05,3.7578 -5.94,2.4805 -11.11,6.0508 -15.42,10.7227 -4.34,4.6875 -7.65,10.1484 -9.88,16.4961 -2.23,6.3906 -3.33,13.3711 -3.33,21.1015 0,7.75 1.1,14.8512 3.33,21.2692 2.36,6.461 5.57,11.95 9.83,16.563 4.27,4.527 9.43,8.066 15.47,10.539 6.1,2.461 12.77,3.738 20.05,3.738 7.46,0 14.17,-1.277 20.25,-3.777 6.06,-2.512 11.23,-6.113 15.54,-10.731 4.28,-4.621 7.64,-10.152 9.87,-16.543 2.23,-6.359 3.37,-13.4175 3.37,-21.0972"
         style="fill:#2d2b2e;fill-opacity:1;fill-rule:nonzero;stroke:none"
         transform="matrix(0.13333333,0,0,-0.13333333,0,801.4)" />
      <path
         id="path19"
         d="M 3890.32,74.9414 V 53.5898 c 0,-5.1679 -1.17,-9.0976 -3.52,-11.7304 -2.34,-2.5508 -5.31,-3.8477 -8.93,-3.8477 -3.5,0 -6.44,1.3281 -8.7,3.9102 -2.28,2.6367 -3.39,6.5078 -3.39,11.6679 v 71.3082 c 0,11.543 3.96,17.301 11.94,17.301 4.03,0 7.01,-1.41 8.82,-4.07 1.78,-2.66 2.72,-6.668 2.98,-11.91 2.92,5.242 5.93,9.25 9.03,11.91 3.1,2.66 7.2,4.07 12.31,4.07 5.22,0 10.2,-1.41 15.08,-4.07 4.83,-2.66 7.29,-6.258 7.29,-10.688 0,-3.121 -1.08,-5.75 -3.14,-7.75 -2.03,-2.019 -4.28,-3.062 -6.7,-3.062 -0.89,0 -3.07,0.59 -6.52,1.781 -3.46,1.141 -6.5,1.731 -9.15,1.731 -3.57,0 -6.5,-0.969 -8.76,-2.981 -2.29,-2 -4.06,-4.879 -5.32,-8.738 -1.26,-3.942 -2.17,-8.5236 -2.61,-13.9103 -0.47,-5.3008 -0.71,-11.8125 -0.71,-19.5703"
         style="fill:#2d2b2e;fill-opacity:1;fill-rule:nonzero;stroke:none"
         transform="matrix(0.13333333,0,0,-0.13333333,0,801.4)" />
      <path
         id="path20"
         d="m 4021.09,71.4609 c 0,-7.0625 -1.65,-13.0898 -4.99,-18.1406 -3.31,-5.0508 -8.17,-8.8281 -14.61,-11.4687 -6.47,-2.543 -14.29,-3.8399 -23.57,-3.8399 -8.75,0 -16.34,1.4102 -22.65,4.2188 -6.29,2.832 -10.96,6.3086 -13.93,10.539 -3.01,4.1993 -4.57,8.4414 -4.57,12.6797 0,2.8125 1.01,5.2422 2.96,7.2305 1.91,2.0312 4.35,3.0117 7.25,3.0117 2.59,0 4.59,-0.6601 5.95,-1.9609 1.41,-1.3711 2.67,-3.1914 3.97,-5.5508 2.52,-4.6094 5.51,-8.0078 9.07,-10.25 3.44,-2.2891 8.25,-3.3984 14.35,-3.3984 4.89,0 8.93,1.1406 12.08,3.4609 3.12,2.2383 4.75,4.8789 4.75,7.8086 0,4.5195 -1.66,7.8281 -4.89,9.8476 -3.32,2.1133 -8.66,4.0704 -16.18,5.9414 -8.44,2.2305 -15.33,4.5118 -20.64,6.8985 -5.32,2.414 -9.61,5.6133 -12.76,9.5508 -3.16,3.9099 -4.78,8.7929 -4.78,14.5629 0,5.128 1.47,9.988 4.41,14.507 2.93,4.61 7.31,8.243 13.03,10.95 5.71,2.73 12.62,4.14 20.74,4.14 6.35,0 12.06,-0.75 17.15,-2.09 5.05,-1.379 9.32,-3.23 12.65,-5.527 3.4,-2.332 6.01,-4.883 7.76,-7.691 1.79,-2.86 2.67,-5.602 2.67,-8.27 0,-2.949 -0.93,-5.301 -2.85,-7.262 -1.89,-1.8 -4.61,-2.777 -8.04,-2.777 -2.53,0 -4.66,0.75 -6.45,2.297 -1.74,1.461 -3.8,3.703 -6.06,6.684 -1.86,2.519 -4.04,4.539 -6.59,6.027 -2.53,1.48 -5.94,2.242 -10.24,2.242 -4.44,0 -8.16,-0.961 -11.05,-2.961 -2.95,-1.961 -4.44,-4.43 -4.44,-7.371 0,-2.691 1.09,-4.898 3.22,-6.629 2.2,-1.719 5.08,-3.141 8.75,-4.281 3.68,-1.129 8.71,-2.52 15.13,-4.141 7.61,-1.9177 13.84,-4.2381 18.67,-6.949 4.83,-2.6602 8.48,-5.8281 10.96,-9.5117 2.52,-3.6992 3.77,-7.8594 3.77,-12.5274"
         style="fill:#2d2b2e;fill-opacity:1;fill-rule:nonzero;stroke:none"
         transform="matrix(0.13333333,0,0,-0.13333333,0,801.4)" />
      <path
         id="path21"
         d="m 4048.95,38.0117 c -3.7,0 -6.91,1.2071 -9.58,3.7578 -2.75,2.4805 -4.07,6 -4.07,10.4688 0,3.8008 1.26,7.0937 3.81,9.8711 2.58,2.7304 5.8,4.0703 9.57,4.0703 3.75,0 6.99,-1.3399 9.6,-4.0508 2.7,-2.6875 4.06,-6.0469 4.06,-9.8906 0,-4.4492 -1.36,-7.9375 -4.06,-10.4375 -2.61,-2.5391 -5.72,-3.7891 -9.33,-3.7891"
         style="fill:#2d2b2e;fill-opacity:1;fill-rule:nonzero;stroke:none"
         transform="matrix(0.13333333,0,0,-0.13333333,0,801.4)" />
      <path
         id="path22"
         d="m 4157.52,90.0508 c 0,10.3982 -2.21,18.5512 -6.62,24.3592 -4.4,5.801 -10.3,8.75 -17.73,8.75 -4.81,0 -8.99,-1.328 -12.67,-3.91 -3.67,-2.621 -6.47,-6.441 -8.43,-11.531 -1.96,-5.008 -2.97,-10.9104 -2.97,-17.6682 0,-6.6992 0.94,-12.5508 2.88,-17.5508 2.01,-4.9883 4.77,-8.8203 8.42,-11.5195 3.59,-2.6094 7.87,-3.9219 12.77,-3.9219 7.43,0 13.33,2.8828 17.73,8.7422 4.41,5.8203 6.62,13.918 6.62,24.25 z m 24.68,0 c 0,-7.6211 -1.12,-14.6406 -3.45,-21.1524 -2.28,-6.3671 -5.56,-11.9296 -9.88,-16.5781 -4.33,-4.6406 -9.43,-8.0781 -15.47,-10.6289 -5.97,-2.4726 -12.71,-3.6797 -20.23,-3.6797 -7.43,0 -14.12,1.2071 -20.06,3.7578 -5.93,2.4805 -11.03,6.0508 -15.37,10.7227 -4.41,4.6875 -7.69,10.1484 -9.97,16.4961 -2.2,6.3906 -3.33,13.3711 -3.33,21.1015 0,7.75 1.13,14.8512 3.42,21.2692 2.32,6.461 5.53,11.95 9.77,16.563 4.26,4.527 9.43,8.066 15.48,10.539 6.07,2.461 12.72,3.738 20.06,3.738 7.43,0 14.17,-1.277 20.23,-3.777 6.09,-2.512 11.25,-6.113 15.58,-10.731 4.3,-4.621 7.57,-10.152 9.84,-16.543 2.26,-6.359 3.38,-13.4175 3.38,-21.0972"
         style="fill:#2d2b2e;fill-opacity:1;fill-rule:nonzero;stroke:none"
         transform="matrix(0.13333333,0,0,-0.13333333,0,801.4)" />
      <path
         id="path23"
         d="M 4225.92,74.9414 V 53.5898 c 0,-5.1679 -1.17,-9.0976 -3.49,-11.7304 -2.34,-2.5508 -5.32,-3.8477 -8.88,-3.8477 -3.61,0 -6.47,1.3281 -8.78,3.9102 -2.27,2.6367 -3.41,6.5078 -3.41,11.6679 v 71.3082 c 0,11.543 4.05,17.301 11.98,17.301 4.09,0 7,-1.41 8.79,-4.07 1.77,-2.66 2.83,-6.668 3.02,-11.91 2.9,5.242 5.9,9.25 9,11.91 3.08,2.66 7.22,4.07 12.33,4.07 5.22,0 10.24,-1.41 15.04,-4.07 4.87,-2.66 7.31,-6.258 7.31,-10.688 0,-3.121 -1.04,-5.75 -3.08,-7.75 -2.11,-2.019 -4.3,-3.062 -6.75,-3.062 -0.87,0 -3.03,0.59 -6.5,1.781 -3.43,1.141 -6.48,1.731 -9.15,1.731 -3.57,0 -6.48,-0.969 -8.82,-2.981 -2.24,-2 -4.03,-4.879 -5.29,-8.738 -1.24,-3.942 -2.14,-8.5236 -2.59,-13.9103 -0.47,-5.3008 -0.73,-11.8125 -0.73,-19.5703"
         style="fill:#2d2b2e;fill-opacity:1;fill-rule:nonzero;stroke:none"
         transform="matrix(0.13333333,0,0,-0.13333333,0,801.4)" />
      <path
         id="path24"
         d="m 4296.8,90.9102 c 0,-10.3516 2.18,-18.211 6.55,-23.5704 4.32,-5.2812 9.98,-7.9609 16.81,-7.9609 4.06,0 7.96,1.1719 11.57,3.4609 3.64,2.2891 6.6,5.7188 8.89,10.3008 2.29,4.6211 3.41,10.211 3.41,16.7383 0,10.4531 -2.23,18.5901 -6.63,24.4101 -4.39,5.852 -10.21,8.781 -17.38,8.781 -6.98,0 -12.63,-2.859 -16.83,-8.39 -4.27,-5.59 -6.39,-13.481 -6.39,-23.7698 z m 71.17,32.5198 V 48.9609 c 0,-8.5195 -0.92,-15.8398 -2.63,-21.9296 -1.74,-6.1915 -4.53,-11.2305 -8.36,-15.2422 -3.83,-4.01957 -8.88,-6.95707 -15.05,-8.91801 C 4335.72,0.988281 4327.98,0 4318.78,0 c -8.5,0 -16.06,1.19141 -22.69,3.64844 -6.66,2.55078 -11.78,5.68359 -15.37,9.61326 -3.62,3.8906 -5.42,7.918 -5.42,12.0899 0,3.1093 1,5.6601 3.09,7.6172 2.02,2.0117 4.48,2.9921 7.35,2.9921 3.62,0 6.73,-1.6718 9.47,-4.9804 1.32,-1.7188 2.7,-3.3985 4.08,-5.1094 1.39,-1.7617 2.95,-3.2422 4.67,-4.4219 1.7,-1.2578 3.79,-2.1601 6.19,-2.7695 2.35,-0.5899 5.13,-0.8789 8.26,-0.8789 6.31,0 11.3,0.9414 14.78,2.7812 3.52,1.8282 5.98,4.3985 7.42,7.7188 1.36,3.3086 2.24,6.8281 2.38,10.6484 0.3,3.8399 0.45,9.8828 0.62,18.2813 -3.77,-5.4688 -8.19,-9.6797 -13.1,-12.5508 -4.93,-2.8789 -10.85,-4.2891 -17.63,-4.2891 -8.28,0 -15.47,2.1407 -21.57,6.5586 -6.18,4.3828 -10.9,10.4922 -14.21,18.4102 -3.25,7.8398 -4.94,16.9492 -4.94,27.2812 0,7.7504 0.99,14.6914 3.05,20.8904 1.96,6.16 4.81,11.391 8.57,15.649 3.69,4.269 8.02,7.48 12.86,9.66 4.89,2.121 10.15,3.242 16.02,3.242 6.92,0 12.97,-1.434 18.05,-4.23 5.14,-2.75 9.84,-7.153 14.21,-13.09 v 3.449 c 0,4.469 1.09,7.871 3.15,10.391 2.1,2.41 4.82,3.648 8.09,3.648 4.76,0 7.91,-1.602 9.49,-4.828 1.52,-3.231 2.32,-7.922 2.32,-13.992"
         style="fill:#2d2b2e;fill-opacity:1;fill-rule:nonzero;stroke:none"
         transform="matrix(0.13333333,0,0,-0.13333333,0,801.4)" />
      <path
         id="path25"
         d="m 3303.85,372.922 h 36.44 c -2.59,-19.652 -10.62,-34.973 -24.01,-46 -12.39,-10.781 -27.39,-16.113 -44.91,-16.113 -23.78,0 -42.74,8.343 -56.92,25.023 -13.44,15.848 -20.14,36.328 -20.14,61.359 0,25.618 6.66,46.11 19.96,61.629 13.26,15.45 32.05,23.219 56.3,23.219 18.05,0 33.32,-4.879 45.71,-14.578 13.15,-10.461 21.16,-25.172 24.01,-44.031 h -36.44 c -3.12,16.429 -13.17,24.629 -30.26,24.629 -28.14,0 -42.25,-16.668 -42.25,-50.02 0,-15.641 3.64,-28.398 10.87,-38.359 7.26,-9.969 17.44,-14.969 30.63,-14.969 19.62,0 29.97,9.41 31.01,28.211 z m -143.35,22.969 c 0,-32.59 10.34,-60.18 30.99,-82.641 20.65,-22.488 45.93,-33.738 75.95,-33.738 29.89,0 55.2,11.25 75.84,33.738 20.68,22.461 30.96,50.051 30.96,82.641 0,32.57 -10.28,60.14 -30.96,82.629 -20.64,22.492 -45.95,33.75 -75.84,33.75 -30.02,0 -55.3,-11.258 -75.95,-33.75 -20.65,-22.489 -30.99,-50.059 -30.99,-82.629 z m -36.98,0 c 0,41.468 14.01,76.859 42.12,106.289 28.12,29.332 62.06,44.011 101.8,44.011 39.67,0 73.56,-14.679 101.71,-44.011 28.11,-29.43 42.18,-64.821 42.18,-106.289 0,-41.5 -14.07,-76.95 -42.18,-106.282 -28.15,-29.379 -62.04,-44.078 -101.71,-44.078 -39.74,0 -73.68,14.699 -101.8,44.078 -28.11,29.332 -42.12,64.782 -42.12,106.282"
         style="fill:#2d2b2e;fill-opacity:1;fill-rule:nonzero;stroke:none"
         transform="matrix(0.13333333,0,0,-0.13333333,0,801.4)" />
      <path
         id="path26"
         d="m 3181.75,301.621 20.98,-17.801 154.35,198.192 -20.98,17.777 -154.35,-198.168"
         style="fill:#2d2b2e;fill-opacity:1;fill-rule:nonzero;stroke:none"
         transform="matrix(0.13333333,0,0,-0.13333333,0,801.4)" />
      <path
         id="path27"
         d="m 5714.53,2287.4 152.82,-3.81 -180.57,152.85 250.33,2.68 -449.52,221.84 226.94,-373.56"
         style="fill:#f28f62;fill-opacity:1;fill-rule:evenodd;stroke:none"
         transform="matrix(0.13333333,0,0,-0.13333333,0,801.4)" />
      <path
         id="path28"
         d="m 4856.21,2016.05 334.8,202.54 523.52,68.81 -102.63,551.27 -894.79,-511.89 139.1,-310.73"
         style="fill:#f28f62;fill-opacity:1;fill-rule:evenodd;stroke:none"
         transform="matrix(0.13333333,0,0,-0.13333333,0,801.4)" />
      <path
         id="path29"
         d="m 5554.71,3116.48 219.51,-76.5 -230.71,-661.84 c -21.04,-60.37 -87.63,-92.52 -148.01,-71.48 h -0.02 c -60.35,21.05 -92.53,87.65 -71.48,148.01 l 230.71,661.81"
         style="fill:#985422;fill-opacity:1;fill-rule:evenodd;stroke:none"
         transform="matrix(0.13333333,0,0,-0.13333333,0,801.4)" />
      <path
         id="path30"
         d="m 5511.28,3003.01 226.39,-78.93 44.48,127.6 -226.38,78.94 -44.49,-127.61"
         style="fill:#fab40a;fill-opacity:1;fill-rule:evenodd;stroke:none"
         transform="matrix(0.13333333,0,0,-0.13333333,0,801.4)" />
      <path
         id="path31"
         d="m 5708.75,3077.26 51.45,-17.93 -44.48,-127.61 -51.45,17.95 z m -124.85,43.54 42.53,-14.83 -44.48,-127.61 -42.53,14.84 44.48,127.6 v 0"
         style="fill:#f9de1c;fill-opacity:1;fill-rule:evenodd;stroke:none"
         transform="matrix(0.13333333,0,0,-0.13333333,0,801.4)" />
      <path
         id="path32"
         d="m 6149.42,4127.76 c 73.82,-25.76 55.25,-271.42 -41.41,-548.78 -96.67,-277.35 -234.89,-481.31 -308.69,-455.58 l -212.41,74.04 350.11,1004.35 212.4,-74.03"
         style="fill:#626169;fill-opacity:1;fill-rule:evenodd;stroke:none"
         transform="matrix(0.13333333,0,0,-0.13333333,0,801.4)" />
      <path
         id="path33"
         d="m 5637.38,3179.86 111.47,-38.87 -24.14,-69.27 -111.47,38.84 24.14,69.3"
         style="fill:#46454b;fill-opacity:1;fill-rule:evenodd;stroke:none"
         transform="matrix(0.13333333,0,0,-0.13333333,0,801.4)" />
      <path
         id="path34"
         d="m 5637.38,3179.86 111.47,-38.87 -17.05,-48.92 c -8.15,21.03 -25.13,38.3 -47.75,46.17 -21.34,7.44 -43.98,5.23 -62.8,-4.63 l 16.13,46.25"
         style="fill:#2d2b2e;fill-opacity:1;fill-rule:evenodd;stroke:none"
         transform="matrix(0.13333333,0,0,-0.13333333,0,801.4)" />
      <path
         id="path35"
         d="m 5937.02,4201.79 c 73.81,-25.73 55.27,-271.42 -41.42,-548.76 -96.66,-277.33 -234.89,-481.29 -308.69,-455.59 -73.8,25.72 -55.25,271.42 41.42,548.75 96.67,277.37 234.88,481.31 308.69,455.6"
         style="fill:#7f7e87;fill-opacity:1;fill-rule:evenodd;stroke:none"
         transform="matrix(0.13333333,0,0,-0.13333333,0,801.4)" />
      <path
         id="path36"
         d="m 5902.48,4129.58 c 52.27,-18.22 28.02,-224.18 -54.2,-460.05 -82.22,-235.87 -191.26,-412.27 -243.55,-394.05 -52.26,18.22 -28.03,224.2 54.2,460.05 82.23,235.86 191.26,412.3 243.55,394.05"
         style="fill:#9985ca;fill-opacity:1;fill-rule:evenodd;stroke:none"
         transform="matrix(0.13333333,0,0,-0.13333333,0,801.4)" />
      <path
         id="path37"
         d="m 5917.51,3925.81 c -13.23,-74.21 -36.69,-162.9 -69.23,-256.28 -32.56,-93.37 -69.3,-177.45 -105.09,-243.79 13.24,74.21 36.7,162.91 69.24,256.28 32.56,93.39 69.3,177.44 105.08,243.79"
         style="fill:#cfbce3;fill-opacity:1;fill-rule:evenodd;stroke:none"
         transform="matrix(0.13333333,0,0,-0.13333333,0,801.4)" />
      <path
         id="path38"
         d="m 5883,4050.2 c 28.45,-9.92 20.79,-84.43 -17.12,-166.39 -37.89,-81.97 -91.66,-140.39 -120.1,-130.47 -28.45,9.93 -20.81,84.42 17.1,166.4 37.88,81.97 91.66,140.37 120.12,130.46"
         style="fill:#cfbce3;fill-opacity:1;fill-rule:evenodd;stroke:none"
         transform="matrix(0.13333333,0,0,-0.13333333,0,801.4)" />
      <path
         id="path39"
         d="m 4654.19,2467.38 423.31,164.61 112.41,308.98 478.86,116.45 125.05,-71.35 148.14,-19.51 4.79,-67.6 -125.01,-57.93 -196.54,29.16 -129.34,-69.39 -84.27,-268.97 -649.4,-305.78 -108,241.33"
         style="fill:#f5a683;fill-opacity:1;fill-rule:evenodd;stroke:none"
         transform="matrix(0.13333333,0,0,-0.13333333,0,801.4)" />
      <path
         id="path40"
         d="m 5503.14,2441.15 364.21,-157.56 23.89,145.39 -365.3,91.23 -22.8,-79.06"
         style="fill:#f5a683;fill-opacity:1;fill-rule:evenodd;stroke:none"
         transform="matrix(0.13333333,0,0,-0.13333333,0,801.4)" />
      <path
         id="path41"
         d="m 5540.45,2610.72 396.66,-171.6 26.04,158.38 -397.85,99.35 -24.85,-86.13"
         style="fill:#f28f62;fill-opacity:1;fill-rule:evenodd;stroke:none"
         transform="matrix(0.13333333,0,0,-0.13333333,0,801.4)" />
      <path
         id="path42"
         d="m 5589.31,2671.62 421.84,-93.99 -4.2,160.41 -409.41,22.82 -8.23,-89.24"
         style="fill:#f28f62;fill-opacity:1;fill-rule:evenodd;stroke:none"
         transform="matrix(0.13333333,0,0,-0.13333333,0,801.4)" />
      <path
         id="path43"
         d="m 5526.97,2801.76 373.75,98.24 17.88,-160.37 -372.03,-26.96 -19.6,89.09"
         style="fill:#f5a683;fill-opacity:1;fill-rule:evenodd;stroke:none"
         transform="matrix(0.13333333,0,0,-0.13333333,0,801.4)" />
      <path
         id="path44"
         d="m 5148.74,2493.57 42.27,-274.98 -114.44,249.2 z"
         style="fill:#f5a683;fill-opacity:1;fill-rule:evenodd;stroke:none"
         transform="matrix(0.13333333,0,0,-0.13333333,0,801.4)" />
      <path
         id="path45"
         d="m 4654.19,2529.18 274.36,109.18 211.45,-519.22 -283.16,-132.46 -202.65,542.5"
         style="fill:#ece8f2;fill-opacity:1;fill-rule:evenodd;stroke:none"
         transform="matrix(0.13333333,0,0,-0.13333333,0,801.4)" />
      <path
         id="path46"
         d="m 2870.54,3282.05 818.78,-1093.15 1107.71,445.2 225.83,-618.05 -1376.81,-659.18 -311.51,72.37 -1017.53,1064.31 553.53,788.5"
         style="fill:#3e3c42;fill-opacity:1;fill-rule:evenodd;stroke:none"
         transform="matrix(0.13333333,0,0,-0.13333333,0,801.4)" />
      <path
         id="path47"
         d="m 2870.54,3282.05 478.44,-638.77 c -49.08,-33.79 -95.43,-72.19 -138.28,-115.04 -179,-179.02 -280.91,-418.57 -288.12,-668.11 l -605.57,633.42 553.53,788.5"
         style="fill:#2d2b2e;fill-opacity:1;fill-rule:evenodd;stroke:none"
         transform="matrix(0.13333333,0,0,-0.13333333,0,801.4)" />
      <path
         id="path48"
         d="M 3104.63,4566.53 3554.28,3869.25 3339.22,2995.99 1605.81,747.75 1097.5,3009.04 l 860.21,866.72 -501.8,944.92 1648.72,-254.15"
         style="fill:#4e4d52;fill-opacity:1;fill-rule:evenodd;stroke:none"
         transform="matrix(0.13333333,0,0,-0.13333333,0,801.4)" />
      <path
         id="path49"
         d="M 1455.91,4820.68 3104.63,4566.53 V 3080.72 L 1566.71,1927.28 1918.59,3738.92 1455.91,4820.68"
         style="fill:#3e3c42;fill-opacity:1;fill-rule:evenodd;stroke:none"
         transform="matrix(0.13333333,0,0,-0.13333333,0,801.4)" />
      <path
         id="path50"
         d="m 2658.2,3501.04 174.84,642.42 -588.64,152.6 -149.89,-612.57 563.69,-182.45"
         style="fill:#f28f62;fill-opacity:1;fill-rule:evenodd;stroke:none"
         transform="matrix(0.13333333,0,0,-0.13333333,0,801.4)" />
      <path
         id="path51"
         d="m 1971.88,1641.37 804.27,916.05 -29.98,757.9 61.92,303.03 -733.12,283.49 -619.06,-1508.62 515.97,-751.85"
         style="fill:#2d2b2e;fill-opacity:1;fill-rule:evenodd;stroke:none"
         transform="matrix(0.13333333,0,0,-0.13333333,0,801.4)" />
      <path
         id="path52"
         d="m 308.988,2533.34 896.032,1166.47 361.69,58.67 -110.8,1062.2 1146.93,-1094.81 -39.1,-586.5 L 1618.83,747.75 308.988,2533.34"
         style="fill:#626169;fill-opacity:1;fill-rule:evenodd;stroke:none"
         transform="matrix(0.13333333,0,0,-0.13333333,0,801.4)" />
      <path
         id="path53"
         d="m 1205.02,3699.81 1120.86,-534.36 -759.17,593.03 z"
         style="fill:#7f7e87;fill-opacity:1;fill-rule:evenodd;stroke:none"
         transform="matrix(0.13333333,0,0,-0.13333333,0,801.4)" />
      <path
         id="path54"
         d="m 5053.89,2330.56 -124.22,-59.49 78.11,-213.79 132.22,61.86 -86.11,211.42"
         style="fill:#d5cde2;fill-opacity:1;fill-rule:evenodd;stroke:none"
         transform="matrix(0.13333333,0,0,-0.13333333,0,801.4)" />
      <path
         id="path55"
         d="m 2835.2,4075.4 337.01,-106.02 c 40.31,-12.68 84.09,-7.87 120.69,13.26 36.59,21.13 62.64,56.64 71.8,97.9 L 3507.52,5145.45 2403.54,5347.68 2244.4,4296.06 2835.2,4075.4"
         style="fill:#f28f62;fill-opacity:1;fill-rule:evenodd;stroke:none"
         transform="matrix(0.13333333,0,0,-0.13333333,0,801.4)" />
      <path
         id="path56"
         d="m 3012.69,5388.83 c 577.97,-118.45 1032.3,-283.74 1014.77,-369.19 -17.5,-85.45 -500.23,-58.71 -1078.18,59.72 -577.96,118.46 -1032.28,283.74 -1014.76,369.19 17.5,85.46 500.23,58.71 1078.17,-59.72"
         style="fill:#626169;fill-opacity:1;fill-rule:evenodd;stroke:none"
         transform="matrix(0.13333333,0,0,-0.13333333,0,801.4)" />
      <path
         id="path57"
         d="m 3565.59,5162.03 v 578.85 c 0,47.51 -19.24,88.39 -55.86,118.66 -36.59,30.29 -80.37,41.52 -127.02,32.6 l -159.69,-30.5 c -119.6,-22.83 -229.46,-5.66 -336.37,52.61 l -138.46,75.45 c -46.99,25.61 -98.32,27.67 -147.24,5.89 -48.9,-21.77 -81.72,-61.31 -94.12,-113.38 l -115.72,-485.72 c -12.88,-54.06 1174.48,-315.21 1174.48,-234.46"
         style="fill:#4e4d52;fill-opacity:1;fill-rule:evenodd;stroke:none"
         transform="matrix(0.13333333,0,0,-0.13333333,0,801.4)" />
      <path
         id="path58"
         d="m 3565.59,5162.03 v 186.86 c -168.24,-17.92 -1007.34,166.4 -1130.08,233.95 l -44.4,-186.35 c -12.88,-54.06 1174.48,-315.21 1174.48,-234.46"
         style="fill:#2d2b2e;fill-opacity:1;fill-rule:evenodd;stroke:none"
         transform="matrix(0.13333333,0,0,-0.13333333,0,801.4)" />
      <path
         id="path59"
         d="m 2593.14,5012.49 438.75,-159.16 c 171.55,-7.99 383.95,-32.65 509.41,-7.45 l -30.48,-245.29 c -3.84,-31.03 -29.9,-54.02 -61.16,-54.02 h -5.03 l -33.47,198.92 -52.97,-116.99 c -22.34,-49.33 -70,-78.46 -124.07,-75.85 l -122.43,5.9 c -56.42,2.72 -101.33,46.67 -105.3,103 l -7.98,113.68 -405.27,237.26"
         style="fill:#2d2b2e;fill-opacity:1;fill-rule:evenodd;stroke:none"
         transform="matrix(0.13333333,0,0,-0.13333333,0,801.4)" />
      <path
         id="path60"
         d="m 3444.63,4546.57 18.48,-105.61 c 1.95,-11.17 -1.66,-22.58 -9.7,-30.63 -8.01,-8.03 -19.45,-11.64 -30.63,-9.69 h -112 l 117.12,245.38 16.73,-99.45"
         style="fill:#f28f62;fill-opacity:1;fill-rule:evenodd;stroke:none"
         transform="matrix(0.13333333,0,0,-0.13333333,0,801.4)" />
      <path
         id="path61"
         d="m 2266.5,4442.22 59.38,-15.91 c 22.46,-6.02 46.39,-2.88 66.52,8.74 20.13,11.62 34.81,30.78 40.84,53.24 l 107.74,218.23 317.69,55.39 30.96,237.86 526.21,37.48 -1070.36,246 -78.98,-841.03"
         style="fill:#2d2b2e;fill-opacity:1;fill-rule:evenodd;stroke:none"
         transform="matrix(0.13333333,0,0,-0.13333333,0,801.4)" />
      <path
         id="path62"
         d="m 2602.88,4969.63 c 72,0 130.33,-88.58 130.33,-197.85 0,-109.29 -58.33,-197.86 -130.33,-197.86 -71.98,0 -130.34,88.57 -130.34,197.86 0,109.27 58.36,197.85 130.34,197.85"
         style="fill:#f28f62;fill-opacity:1;fill-rule:evenodd;stroke:none"
         transform="matrix(0.13333333,0,0,-0.13333333,0,801.4)" />
      <path
         id="path63"
         d="M 1477.93,3499.72 0,2840.37 v -903.3 l 297.418,313.81 1387.042,335.49 c -68.85,304.43 -137.69,608.9 -206.53,913.35"
         style="fill:#7f7e87;fill-opacity:1;fill-rule:evenodd;stroke:none"
         transform="matrix(0.13333333,0,0,-0.13333333,0,801.4)" />
      <path
         id="path64"
         d="M 1684.46,2586.37 630.473,2095.08 483.242,2295.8 Z"
         style="fill:#4e4d52;fill-opacity:1;fill-rule:evenodd;stroke:none"
         transform="matrix(0.13333333,0,0,-0.13333333,0,801.4)" />
    </g>
  </g>
</svg>
