<?xml version="1.0" encoding="UTF-8" standalone="no"?>
<!-- Created with Inkscape (http://www.inkscape.org/) -->

<svg
   version="1.1"
   id="svg1"
   width="763.49335"
   height="802.96002"
   viewBox="0 0 763.49335 802.96002"
   sodipodi:docname="filling-out-the-checklist.svg"
   inkscape:version="1.3.2 (091e20ef0f, 2023-11-25, custom)"
   xmlns:inkscape="http://www.inkscape.org/namespaces/inkscape"
   xmlns:sodipodi="http://sodipodi.sourceforge.net/DTD/sodipodi-0.dtd"
   xmlns="http://www.w3.org/2000/svg"
   xmlns:svg="http://www.w3.org/2000/svg">
  <defs
     id="defs1" />
  <sodipodi:namedview
     id="namedview1"
     pagecolor="#505050"
     bordercolor="#ffffff"
     borderopacity="1"
     inkscape:showpageshadow="0"
     inkscape:pageopacity="0"
     inkscape:pagecheckerboard="1"
     inkscape:deskcolor="#d1d1d1"
     inkscape:zoom="0.839562"
     inkscape:cx="381.74667"
     inkscape:cy="401.39978"
     inkscape:window-width="1920"
     inkscape:window-height="1002"
     inkscape:window-x="0"
     inkscape:window-y="0"
     inkscape:window-maximized="1"
     inkscape:current-layer="g1">
    <inkscape:page
       x="0"
       y="0"
       inkscape:label="1"
       id="page1"
       width="763.49335"
       height="802.96002"
       margin="0"
       bleed="0" />
  </sodipodi:namedview>
  <g
     id="g1"
     inkscape:groupmode="layer"
     inkscape:label="1">
    <g
       id="group-R5">
      <path
         id="path2"
         d="m 1668.96,100.262 c 0,7.519 -1.08,14 -3.31,19.308 -2.16,5.379 -5.2,9.532 -9.1,12.461 -3.89,2.84 -8.18,4.301 -12.92,4.301 -7.49,0 -13.83,-3.16 -18.99,-9.293 -5.15,-6.199 -7.73,-15.258 -7.73,-27.2577 0,-11.3204 2.58,-20.1094 7.66,-26.3125 5.15,-6.3086 11.51,-9.4688 19.06,-9.4688 4.51,0 8.73,1.3711 12.6,4.1523 3.79,2.7383 6.9,6.8399 9.23,12.2696 2.35,5.5195 3.5,12.0976 3.5,19.8401 z m -53.32,41.379 v -3.422 c 5.11,6.543 10.4,11.441 15.91,14.48 5.53,3.11 11.81,4.672 18.8,4.672 8.35,0 16.06,-2.269 23.1,-6.781 7.03,-4.508 12.59,-11.059 16.7,-19.758 4.08,-8.68 6.09,-18.922 6.09,-30.781 0,-8.719 -1.14,-16.8401 -3.51,-24.051 -2.34,-7.3203 -5.6,-13.5 -9.7,-18.4414 -4.12,-4.957 -9.03,-8.7891 -14.6,-11.4297 -5.64,-2.7187 -11.69,-4.0195 -18.08,-4.0195 -7.82,0 -14.34,1.6211 -19.62,4.8789 -5.33,3.2539 -10.33,8.0117 -15.09,14.332 V 18.7188 C 1615.64,6.21875 1611.28,0 1602.58,0 c -5.11,0 -8.52,1.58984 -10.13,4.78906 -1.68,3.24219 -2.5,7.95314 -2.5,14.10154 V 141.449 c 0,5.403 1.09,9.461 3.37,12.114 2.3,2.648 5.37,4.019 9.26,4.019 3.86,0 7,-1.371 9.42,-4.152 2.41,-2.75 3.64,-6.688 3.64,-11.789"
         style="fill:#100f0d;fill-opacity:1;fill-rule:nonzero;stroke:none"
         transform="matrix(0.13333333,0,0,-0.13333333,0,802.96)" />
      <path
         id="path3"
         d="m 1788.78,58.1602 v 3.582 c -3.27,-4.2813 -6.69,-7.8711 -10.28,-10.7734 -3.59,-2.9571 -7.51,-5.0977 -11.74,-6.5 -4.29,-1.418 -9.13,-2.1368 -14.58,-2.1368 -6.54,0 -12.44,1.4375 -17.67,4.25 -5.22,2.8282 -9.27,6.7696 -12.08,11.75 -3.45,6.0274 -5.1,14.6993 -5.1,25.9571 v 56.2739 c 0,5.648 1.23,9.929 3.7,12.718 2.46,2.801 5.69,4.219 9.73,4.219 4.14,0 7.44,-1.418 9.98,-4.289 2.53,-2.852 3.77,-7.082 3.77,-12.648 V 95.082 c 0,-6.5312 0.52,-12.082 1.56,-16.5117 1.11,-4.4883 3.02,-7.9883 5.8,-10.5586 2.7,-2.4922 6.46,-3.7617 11.17,-3.7617 4.63,0 8.93,1.4414 12.96,4.2695 4.08,2.8125 7.05,6.5196 8.89,11.1016 1.53,4.0195 2.28,12.8203 2.28,26.3989 v 34.543 c 0,5.566 1.26,9.796 3.81,12.648 2.5,2.871 5.75,4.289 9.83,4.289 4.06,0 7.31,-1.418 9.77,-4.219 2.42,-2.789 3.63,-7.07 3.63,-12.718 V 58.332 c 0,-5.4023 -1.12,-9.4804 -3.49,-12.1523 -2.33,-2.7383 -5.37,-4.0508 -9.1,-4.0508 -3.71,0 -6.77,1.4336 -9.21,4.1719 -2.42,2.8476 -3.63,6.7305 -3.63,11.8594"
         style="fill:#100f0d;fill-opacity:1;fill-rule:nonzero;stroke:none"
         transform="matrix(0.13333333,0,0,-0.13333333,0,802.96)" />
      <path
         id="path4"
         d="m 1867.68,99.1406 c 0,-11.289 2.46,-19.9297 7.38,-26.0312 4.97,-6.0274 11.47,-9.1094 19.52,-9.1094 6.86,0 12.71,3.1289 17.7,9.3203 4.97,6.2188 7.45,15.0586 7.45,26.6485 0,7.5702 -1.04,13.9722 -3.11,19.3632 -2.08,5.438 -5.02,9.617 -8.76,12.539 -3.85,2.942 -8.21,4.461 -13.28,4.461 -5.22,0 -9.77,-1.519 -13.85,-4.461 -4.08,-2.922 -7.24,-7.211 -9.58,-12.801 -2.33,-5.539 -3.47,-12.16 -3.47,-19.9294 z m -1.29,84.3794 v -43.391 c 5.05,5.601 10.3,9.801 15.6,12.82 5.32,2.93 11.93,4.422 19.74,4.422 9.05,0 16.96,-2.269 23.77,-6.691 6.79,-4.551 12.11,-10.989 15.84,-19.481 3.79,-8.476 5.64,-18.558 5.64,-30.199 0,-8.6094 -1.03,-16.4805 -3.1,-23.7109 -2.11,-7.1368 -5.12,-13.3282 -9.12,-18.6602 -4.02,-5.2266 -8.86,-9.2695 -14.51,-12.25 -5.71,-2.8164 -11.97,-4.2695 -18.8,-4.2695 -4.15,0 -8.12,0.5195 -11.83,1.539 -3.68,1.0508 -6.85,2.4141 -9.37,4.1602 -2.63,1.6016 -4.84,3.4219 -6.68,5.1836 -1.81,1.8281 -4.2,4.5078 -7.18,8.1094 V 58.332 c 0,-5.3632 -1.26,-9.4023 -3.72,-12.1523 -2.43,-2.7383 -5.6,-4.0703 -9.34,-4.0703 -3.88,0 -6.93,1.332 -9.26,4.0703 -2.26,2.8125 -3.41,6.8125 -3.41,12.1523 v 123.957 c 0,5.711 1.11,10.07 3.36,13.012 2.22,2.961 5.29,4.418 9.31,4.418 4.16,0 7.39,-1.387 9.62,-4.227 2.29,-2.781 3.44,-6.75 3.44,-11.972"
         style="fill:#100f0d;fill-opacity:1;fill-rule:nonzero;stroke:none"
         transform="matrix(0.13333333,0,0,-0.13333333,0,802.96)" />
      <path
         id="path5"
         d="M 1966.18,59.3789 V 182.469 c 0,5.711 1.21,9.98 3.6,12.91 2.47,2.883 5.72,4.34 9.84,4.34 4.13,0 7.43,-1.41 9.96,-4.297 2.49,-2.863 3.8,-7.223 3.8,-12.953 V 59.3789 c 0,-5.7578 -1.31,-10.0976 -3.86,-13 -2.54,-2.8164 -5.85,-4.2695 -9.9,-4.2695 -3.99,0 -7.18,1.4922 -9.69,4.4726 -2.5,2.9883 -3.75,7.2383 -3.75,12.7969"
         style="fill:#100f0d;fill-opacity:1;fill-rule:nonzero;stroke:none"
         transform="matrix(0.13333333,0,0,-0.13333333,0,802.96)" />
      <path
         id="path6"
         d="M 2048.65,141.371 V 59.3789 c 0,-5.7187 -1.33,-10.0195 -3.85,-12.9297 -2.62,-2.8476 -5.92,-4.3398 -9.87,-4.3398 -4,0 -7.25,1.4922 -9.72,4.4414 -2.47,3.0195 -3.76,7.2695 -3.76,12.8281 v 81.1841 c 0,5.566 1.29,9.796 3.76,12.648 2.47,2.871 5.72,4.289 9.72,4.289 3.95,0 7.25,-1.418 9.87,-4.289 2.52,-2.852 3.85,-6.781 3.85,-11.84 z m -13.45,29.348 c -3.79,0 -7,1.211 -9.75,3.703 -2.62,2.41 -4,5.867 -4,10.32 0,4 1.38,7.278 4.15,9.918 2.75,2.61 5.95,3.832 9.6,3.832 3.52,0 6.66,-1.14 9.37,-3.48 2.71,-2.36 4.08,-5.821 4.08,-10.27 0,-4.41 -1.34,-7.82 -4,-10.242 -2.66,-2.461 -5.77,-3.781 -9.45,-3.781"
         style="fill:#100f0d;fill-opacity:1;fill-rule:nonzero;stroke:none"
         transform="matrix(0.13333333,0,0,-0.13333333,0,802.96)" />
      <path
         id="path7"
         d="m 2174.17,77.25 c 0,-3.5078 -0.99,-7.3086 -3.01,-11.3398 -2.05,-4.0079 -5.13,-7.8204 -9.3,-11.4688 -4.13,-3.6211 -9.36,-6.5508 -15.67,-8.75 -6.31,-2.2812 -13.43,-3.3594 -21.31,-3.3594 -16.82,0 -29.93,5.1289 -39.37,15.3282 -9.41,10.2304 -14.14,23.8984 -14.14,41.1093 0,11.6405 2.15,21.9605 6.45,30.8825 4.31,8.879 10.61,15.848 18.74,20.707 8.15,4.922 17.95,7.364 29.27,7.364 7.07,0 13.54,-1.102 19.42,-3.223 5.87,-2.168 10.85,-4.949 14.93,-8.309 4.08,-3.41 7.2,-7.043 9.37,-10.859 2.18,-3.84 3.23,-7.441 3.23,-10.773 0,-3.348 -1.24,-6.227 -3.63,-8.61 -2.45,-2.379 -5.35,-3.539 -8.81,-3.539 -2.28,0 -4.13,0.653 -5.66,1.86 -1.45,1.179 -3.15,3.082 -5.03,5.839 -3.3,5.25 -6.79,9.231 -10.4,11.922 -3.63,2.61 -8.23,3.949 -13.76,3.949 -8.09,0 -14.56,-3.328 -19.46,-9.871 -4.93,-6.578 -7.36,-15.539 -7.36,-26.8981 0,-5.3086 0.63,-10.2812 1.91,-14.7109 1.25,-4.4883 3.07,-8.2891 5.45,-11.4687 2.4,-3.1524 5.26,-5.5196 8.66,-7.1524 3.39,-1.6601 7.12,-2.457 11.14,-2.457 5.48,0 10.13,1.289 14.02,3.9297 3.9,2.6679 7.33,6.6875 10.31,12.0273 1.67,3.2734 3.45,5.7422 5.39,7.5703 1.95,1.8125 4.31,2.6719 7.09,2.6719 3.31,0 6.07,-1.2813 8.28,-3.9219 2.15,-2.6992 3.25,-5.4687 3.25,-8.4492"
         style="fill:#100f0d;fill-opacity:1;fill-rule:nonzero;stroke:none"
         transform="matrix(0.13333333,0,0,-0.13333333,0,802.96)" />
      <path
         id="path8"
         d="m 2218.98,99.9688 c 0,-7.6993 1.14,-14.1993 3.42,-19.6368 2.31,-5.4218 5.4,-9.4414 9.39,-12.1797 4.01,-2.7812 8.37,-4.1523 13.04,-4.1523 4.79,0 9.15,1.332 13.1,3.8906 3.97,2.6094 7.09,6.6289 9.48,11.9883 2.37,5.3516 3.53,12.082 3.53,20.0899 0,7.6132 -1.16,14.0622 -3.53,19.5312 -2.39,5.449 -5.55,9.602 -9.56,12.531 -4.03,2.84 -8.41,4.301 -13.19,4.301 -4.96,0 -9.41,-1.519 -13.34,-4.461 -3.89,-2.922 -6.97,-7.199 -9.12,-12.699 -2.14,-5.531 -3.22,-11.871 -3.22,-19.2032 z m 53.46,-41.6368 v 2.7696 c -3.66,-4.3594 -7.26,-7.9102 -10.86,-10.6094 -3.49,-2.7695 -7.37,-4.8399 -11.52,-6.2617 -4.13,-1.3907 -8.67,-2.1211 -13.57,-2.1211 -6.5,0 -12.57,1.4531 -18.09,4.2695 -5.53,2.9805 -10.32,7.0313 -14.38,12.3711 -4.04,5.3398 -7.12,11.6094 -9.23,18.8398 -2.11,7.1797 -3.13,14.9922 -3.13,23.4102 0,17.699 4.16,31.59 12.46,41.512 8.32,9.91 19.22,14.859 32.76,14.859 7.83,0 14.45,-1.43 19.82,-4.289 5.37,-2.762 10.63,-7.082 15.74,-12.953 v 41.922 c 0,5.84 1.1,10.23 3.34,13.199 2.21,3 5.35,4.469 9.49,4.469 4.11,0 7.28,-1.367 9.53,-4.078 2.21,-2.719 3.36,-6.782 3.36,-12.121 V 58.332 c 0,-5.4023 -1.21,-9.4804 -3.61,-12.1523 -2.41,-2.7383 -5.46,-4.0703 -9.28,-4.0703 -3.68,0 -6.79,1.3906 -9.23,4.1914 -2.4,2.8008 -3.6,6.7695 -3.6,12.0312"
         style="fill:#100f0d;fill-opacity:1;fill-rule:nonzero;stroke:none"
         transform="matrix(0.13333333,0,0,-0.13333333,0,802.96)" />
      <path
         id="path9"
         d="m 2399.97,99.7422 c 0,11.5388 -2.48,20.5778 -7.34,27.0198 -4.89,6.41 -11.46,9.66 -19.68,9.66 -5.35,0 -10,-1.442 -14.06,-4.313 -4.04,-2.918 -7.16,-7.16 -9.35,-12.777 -2.18,-5.551 -3.3,-12.07 -3.3,-19.5898 0,-7.4297 1.12,-13.8828 3.24,-19.4102 2.15,-5.5507 5.25,-9.8007 9.29,-12.75 4,-2.9297 8.77,-4.3828 14.18,-4.3828 8.22,0 14.79,3.211 19.68,9.6914 4.86,6.4492 7.34,15.4492 7.34,26.8516 z m 27.28,0 c 0,-8.4102 -1.28,-16.2109 -3.79,-23.4024 -2.52,-7.0781 -6.17,-13.2304 -10.93,-18.371 -4.82,-5.1368 -10.52,-8.9766 -17.15,-11.7891 -6.64,-2.7383 -14.17,-4.0703 -22.43,-4.0703 -8.22,0 -15.64,1.332 -22.19,4.1523 -6.59,2.7578 -12.31,6.7305 -17.13,11.8985 -4.79,5.1796 -8.42,11.2304 -10.95,18.2617 -2.48,7.0781 -3.72,14.8203 -3.72,23.3672 0,8.6019 1.27,16.4609 3.77,23.5699 2.52,7.172 6.12,13.231 10.85,18.332 4.73,5.051 10.42,8.938 17.18,11.68 6.72,2.738 14.08,4.129 22.19,4.129 8.25,0 15.72,-1.391 22.43,-4.168 6.68,-2.769 12.43,-6.762 17.2,-11.883 4.82,-5.117 8.44,-11.258 10.88,-18.328 2.55,-7.051 3.79,-14.851 3.79,-23.3788"
         style="fill:#100f0d;fill-opacity:1;fill-rule:nonzero;stroke:none"
         transform="matrix(0.13333333,0,0,-0.13333333,0,802.96)" />
      <path
         id="path10"
         d="m 2542.1,123.191 c -2.04,-4.789 -3,-13.261 -3,-25.4605 v -37.711 c 0,-5.9375 -1.27,-10.4492 -3.89,-13.4375 -2.58,-2.9804 -6.04,-4.4726 -10.29,-4.4726 -4.08,0 -7.41,1.4922 -9.95,4.4726 -2.56,2.9883 -3.81,7.5 -3.81,13.4375 v 45.2695 c 0,7.121 -0.27,12.652 -0.74,16.652 -0.47,3.911 -1.72,7.168 -3.78,9.707 -2.02,2.551 -5.3,3.813 -9.73,3.813 -8.89,0 -14.74,-3.199 -17.59,-9.609 -2.85,-6.352 -4.19,-15.512 -4.19,-27.4497 V 60.0195 c 0,-5.9297 -1.31,-10.3906 -3.84,-13.3398 -2.58,-3.0781 -5.95,-4.5703 -10.08,-4.5703 -4.15,0 -7.56,1.4922 -10.17,4.5703 -2.64,2.9492 -3.89,7.4101 -3.89,13.332 v 81.2073 c 0,5.351 1.13,9.41 3.46,12.183 2.39,2.746 5.49,4.18 9.38,4.18 3.71,0 6.82,-1.293 9.29,-3.902 2.48,-2.59 3.73,-6.16 3.73,-10.75 v -2.7 c 4.7,5.899 9.76,10.25 15.12,12.981 5.37,2.769 11.42,4.16 17.94,4.16 6.82,0 12.68,-1.43 17.59,-4.289 4.94,-2.812 8.97,-7.121 12.14,-12.852 4.59,5.77 9.5,10.129 14.77,12.93 5.25,2.82 11.05,4.211 17.4,4.211 7.49,0 13.89,-1.492 19.22,-4.59 5.4,-3.051 9.41,-7.402 12.08,-13.09 2.34,-5.132 3.47,-13.199 3.47,-24.242 V 60.0195 c 0,-5.9375 -1.28,-10.4492 -3.83,-13.4375 -2.65,-2.9804 -6.03,-4.4726 -10.29,-4.4726 -4.13,0 -7.49,1.4922 -10.1,4.5703 -2.66,2.9492 -3.97,7.4101 -3.97,13.3398 v 47.7615 c 0,6.098 -0.24,10.981 -0.73,14.66 -0.5,3.707 -1.85,6.75 -4.06,9.258 -2.18,2.5 -5.52,3.762 -9.93,3.762 -3.58,0 -7.01,-1.129 -10.18,-3.301 -3.27,-2.238 -5.71,-5.219 -7.55,-8.969 v 0"
         style="fill:#100f0d;fill-opacity:1;fill-rule:nonzero;stroke:none"
         transform="matrix(0.13333333,0,0,-0.13333333,0,802.96)" />
      <path
         id="path11"
         d="m 2696.12,99.2109 c -4.01,-1.5703 -9.8,-3.1289 -17.4,-4.8593 -7.62,-1.6993 -12.88,-2.9414 -15.8,-3.75 -2.93,-0.8203 -5.73,-2.3633 -8.34,-4.6602 -2.69,-2.3906 -4.03,-5.6094 -4.03,-9.7695 0,-4.3399 1.58,-7.961 4.67,-10.9922 3.14,-3.0508 7.24,-4.5274 12.28,-4.5274 5.38,0 10.37,1.25 14.9,3.7071 4.55,2.4414 7.92,5.6601 10,9.5 2.47,4.3203 3.72,11.3711 3.72,21.3008 z m 1.77,-41.1211 c -6.59,-5.3476 -12.94,-9.3203 -19.08,-11.9609 -6.12,-2.7187 -13.05,-4.0195 -20.65,-4.0195 -7.02,0 -13.09,1.4531 -18.41,4.2695 -5.32,2.9024 -9.34,6.8125 -12.22,11.7813 -2.82,4.9101 -4.28,10.1992 -4.28,15.9882 0,7.7618 2.41,14.3516 7.12,19.8438 4.67,5.4492 11.14,9.1288 19.37,11.0198 1.73,0.418 6.04,1.32 12.84,2.769 6.91,1.489 12.71,2.789 17.67,4 4.83,1.199 10.16,2.68 15.87,4.399 -0.35,7.519 -1.78,13.011 -4.32,16.582 -2.6,3.468 -7.93,5.179 -15.92,5.179 -6.94,0 -12.11,-0.98 -15.64,-2.992 -3.46,-1.98 -6.48,-5.027 -8.93,-9.097 -2.52,-4 -4.24,-6.661 -5.27,-7.922 -1.06,-1.321 -3.28,-1.899 -6.61,-1.899 -3.1,0 -5.72,1.008 -7.92,3.028 -2.26,2.062 -3.36,4.64 -3.36,7.882 0,4.969 1.69,9.86 5.06,14.508 3.4,4.742 8.69,8.61 15.85,11.711 7.17,3.051 16.13,4.563 26.82,4.563 11.93,0 21.34,-1.512 28.23,-4.442 6.82,-2.922 11.6,-7.551 14.45,-13.98 2.84,-6.332 4.24,-14.832 4.24,-25.36 0,-6.64 0,-12.332 -0.04,-16.941 -0.05,-4.6875 -0.08,-9.8398 -0.15,-15.5195 0,-5.3086 0.84,-10.8985 2.56,-16.6602 1.65,-5.789 2.49,-9.5312 2.49,-11.1601 0,-2.9219 -1.33,-5.5899 -3.93,-7.9688 -2.57,-2.3828 -5.58,-3.582 -8.88,-3.582 -2.83,0 -5.53,1.332 -8.3,4.0703 -2.71,2.75 -5.6,6.75 -8.66,11.9101"
         style="fill:#100f0d;fill-opacity:1;fill-rule:nonzero;stroke:none"
         transform="matrix(0.13333333,0,0,-0.13333333,0,802.96)" />
      <path
         id="path12"
         d="M 2777.62,141.371 V 59.3789 c 0,-5.7187 -1.3,-10.0195 -3.85,-12.9297 -2.59,-2.8476 -5.85,-4.3398 -9.85,-4.3398 -3.98,0 -7.26,1.4922 -9.72,4.4414 -2.52,3.0195 -3.77,7.2695 -3.77,12.8281 v 81.1841 c 0,5.566 1.25,9.796 3.77,12.648 2.46,2.871 5.74,4.289 9.72,4.289 4,0 7.26,-1.418 9.85,-4.289 2.55,-2.852 3.85,-6.781 3.85,-11.84 z m -13.44,29.348 c -3.75,0 -6.97,1.211 -9.66,3.703 -2.69,2.41 -4.09,5.867 -4.09,10.32 0,4 1.41,7.278 4.17,9.918 2.73,2.61 5.97,3.832 9.58,3.832 3.53,0 6.69,-1.14 9.42,-3.48 2.68,-2.36 4.02,-5.821 4.02,-10.27 0,-4.41 -1.3,-7.82 -3.97,-10.242 -2.66,-2.461 -5.81,-3.781 -9.47,-3.781"
         style="fill:#100f0d;fill-opacity:1;fill-rule:nonzero;stroke:none"
         transform="matrix(0.13333333,0,0,-0.13333333,0,802.96)" />
      <path
         id="path13"
         d="m 2830.47,141.781 v -3.379 c 4.76,6.559 9.98,11.387 15.62,14.469 5.69,3.07 12.23,4.629 19.63,4.629 7.13,0 13.57,-1.621 19.26,-4.918 5.58,-3.242 9.83,-7.82 12.58,-13.75 1.82,-3.5 2.94,-7.281 3.52,-11.281 0.49,-3.981 0.8,-9.121 0.8,-15.379 V 59.3789 c 0,-5.7187 -1.29,-10.0195 -3.76,-12.9297 -2.5,-2.8476 -5.74,-4.3398 -9.71,-4.3398 -4.04,0 -7.35,1.4922 -9.77,4.4726 -2.56,2.9883 -3.86,7.2383 -3.86,12.7969 v 47.2691 c 0,9.403 -1.21,16.543 -3.69,21.481 -2.54,4.953 -7.52,7.473 -14.96,7.473 -4.84,0 -9.25,-1.532 -13.22,-4.563 -3.98,-2.976 -6.9,-7.137 -8.75,-12.418 -1.34,-4.23 -2.04,-12.09 -2.04,-23.7421 v -35.5 c 0,-5.7578 -1.25,-10.0976 -3.82,-13 -2.57,-2.8164 -5.87,-4.2695 -9.9,-4.2695 -3.89,0 -7.14,1.4922 -9.65,4.4414 -2.57,3.0195 -3.8,7.2695 -3.8,12.8281 v 81.9921 c 0,5.43 1.11,9.43 3.4,12.098 2.21,2.679 5.38,4.031 9.27,4.031 2.35,0 4.54,-0.641 6.43,-1.77 1.99,-1.16 3.48,-2.988 4.65,-5.25 1.12,-2.417 1.77,-5.3 1.77,-8.699"
         style="fill:#100f0d;fill-opacity:1;fill-rule:nonzero;stroke:none"
         transform="matrix(0.13333333,0,0,-0.13333333,0,802.96)" />
      <path
         id="path14"
         d="m 2945.52,139.832 21.97,-64.4414 23.72,67.2504 c 1.88,5.422 3.7,9.199 5.51,11.468 1.83,2.243 4.51,3.391 8.14,3.391 3.46,0 6.39,-1.211 8.87,-3.68 2.37,-2.41 3.59,-5.172 3.59,-8.441 0,-1.219 -0.24,-2.656 -0.66,-4.277 -0.4,-1.7 -0.89,-3.262 -1.49,-4.762 -0.57,-1.391 -1.15,-3.078 -1.94,-4.938 l -26.09,-67.57 c -0.73,-1.9297 -1.7,-4.4218 -2.83,-7.4101 -1.18,-2.9727 -2.5,-5.461 -3.89,-7.6524 -1.46,-2.0898 -3.2,-3.6875 -5.27,-4.8906 -2.13,-1.1797 -4.68,-1.7695 -7.66,-1.7695 -3.85,0 -6.91,0.9023 -9.23,2.7109 -2.29,1.8594 -3.99,3.8399 -5.07,6.082 -1.08,2.129 -2.96,6.4766 -5.52,12.9297 l -25.93,66.84 c -0.59,1.629 -1.24,3.308 -1.88,4.98 -0.6,1.661 -1.09,3.321 -1.55,5.086 -0.42,1.774 -0.67,3.254 -0.67,4.442 0,1.98 0.57,3.902 1.72,5.8 1.13,1.93 2.7,3.5 4.68,4.68 2.02,1.199 4.13,1.84 6.5,1.84 4.47,0 7.59,-1.352 9.3,-4.098 1.7,-2.683 3.6,-7.211 5.68,-13.57"
         style="fill:#100f0d;fill-opacity:1;fill-rule:nonzero;stroke:none"
         transform="matrix(0.13333333,0,0,-0.13333333,0,802.96)" />
      <path
         id="path15"
         d="m 3056.75,109.012 h 49.29 c -0.62,9.668 -3.12,16.918 -7.5,21.718 -4.37,4.79 -10.1,7.211 -17.22,7.211 -6.73,0 -12.31,-2.449 -16.64,-7.312 -4.34,-4.859 -6.95,-12.09 -7.93,-21.617 z m 53.21,-16.1526 h -53.21 c 0.01,-6.4688 1.31,-12.1406 3.69,-17.0977 2.47,-4.8711 5.67,-8.6015 9.7,-11.1094 4.01,-2.5234 8.46,-3.7304 13.31,-3.7304 3.24,0 6.25,0.3984 8.9,1.1679 2.67,0.8399 5.31,2.0821 7.86,3.75 2.48,1.711 4.79,3.4727 6.93,5.4922 2.1,1.9375 4.94,4.5274 8.28,7.8789 1.4,1.3008 3.41,1.8907 5.96,1.8907 2.84,0 5.07,-0.7696 6.81,-2.4102 1.73,-1.5898 2.54,-3.8203 2.54,-6.7305 0,-2.5703 -0.94,-5.5703 -2.88,-9.0312 -1.91,-3.3789 -4.76,-6.6992 -8.71,-9.8984 -3.9,-3.1211 -8.77,-5.6915 -14.65,-7.8321 -5.85,-2.0703 -12.58,-3.0898 -20.29,-3.0898 -17.43,0 -31.03,5.2304 -40.69,15.5703 -9.69,10.4492 -14.51,24.5117 -14.51,42.2891 0,8.4922 1.23,16.2112 3.56,23.3712 2.4,7.191 5.86,13.332 10.46,18.441 4.59,5.16 10.2,9.129 16.93,11.821 6.73,2.75 14.14,4.121 22.34,4.121 10.55,0 19.7,-2.332 27.29,-7.043 7.63,-4.68 13.32,-10.68 17.09,-18.09 3.79,-7.461 5.69,-14.981 5.69,-22.731 0,-7.078 -1.91,-11.7067 -5.86,-13.8082 -3.96,-2.1485 -9.43,-3.1914 -16.54,-3.1914"
         style="fill:#100f0d;fill-opacity:1;fill-rule:nonzero;stroke:none"
         transform="matrix(0.13333333,0,0,-0.13333333,0,802.96)" />
      <path
         id="path16"
         d="m 3252.84,77.25 c 0,-3.5078 -1.01,-7.3086 -3.08,-11.3398 -2.03,-4.0079 -5.06,-7.8204 -9.25,-11.4688 -4.13,-3.6211 -9.4,-6.5508 -15.73,-8.75 -6.27,-2.2812 -13.42,-3.3594 -21.25,-3.3594 -16.86,0 -29.97,5.1289 -39.38,15.3282 -9.41,10.2304 -14.15,23.8984 -14.15,41.1093 0,11.6405 2.13,21.9605 6.49,30.8825 4.33,8.879 10.51,15.848 18.71,20.707 8.13,4.922 17.93,7.364 29.31,7.364 7.03,0 13.46,-1.102 19.39,-3.223 5.86,-2.168 10.8,-4.949 14.94,-8.309 4.08,-3.41 7.17,-7.043 9.36,-10.859 2.14,-3.84 3.21,-7.441 3.21,-10.773 0,-3.348 -1.18,-6.227 -3.68,-8.61 -2.39,-2.379 -5.32,-3.539 -8.78,-3.539 -2.26,0 -4.13,0.653 -5.6,1.86 -1.52,1.179 -3.18,3.082 -5.06,5.839 -3.32,5.25 -6.77,9.231 -10.39,11.922 -3.63,2.61 -8.23,3.949 -13.82,3.949 -7.99,0 -14.49,-3.328 -19.4,-9.871 -4.96,-6.578 -7.4,-15.539 -7.4,-26.8981 0,-5.3086 0.67,-10.2812 1.89,-14.7109 1.26,-4.4883 3.11,-8.2891 5.51,-11.4687 2.39,-3.1524 5.3,-5.5196 8.67,-7.1524 3.33,-1.6601 7.07,-2.457 11.16,-2.457 5.43,0 10.11,1.289 14,3.9297 3.87,2.6679 7.33,6.6875 10.32,12.0273 1.67,3.2734 3.43,5.7422 5.38,7.5703 1.91,1.8125 4.23,2.6719 7.07,2.6719 3.28,0 6.08,-1.2813 8.19,-3.9219 2.24,-2.6992 3.37,-5.4687 3.37,-8.4492"
         style="fill:#100f0d;fill-opacity:1;fill-rule:nonzero;stroke:none"
         transform="matrix(0.13333333,0,0,-0.13333333,0,802.96)" />
      <path
         id="path17"
         d="m 3278.09,155.102 h 2.99 v 17.058 c 0,4.551 0.13,8.172 0.37,10.762 0.22,2.598 0.82,4.777 1.94,6.699 1.03,1.899 2.56,3.488 4.59,4.731 1.98,1.179 4.19,1.757 6.65,1.757 3.44,0 6.58,-1.328 9.35,-4.007 1.82,-1.832 3.03,-4 3.52,-6.582 0.51,-2.598 0.74,-6.34 0.74,-11.098 v -19.32 h 10 c 3.84,0 6.79,-0.961 8.82,-2.872 2.06,-1.91 3.04,-4.32 3.04,-7.308 0,-3.82 -1.43,-6.52 -4.36,-8.02 -2.87,-1.492 -7.01,-2.261 -12.39,-2.261 h -5.11 V 82.3594 c 0,-4.4492 0.16,-7.8711 0.45,-10.2891 0.35,-2.4101 1.19,-4.3476 2.45,-5.789 1.26,-1.5118 3.37,-2.2813 6.32,-2.2813 1.58,0 3.73,0.2695 6.48,0.8984 2.66,0.5821 4.8,0.8829 6.35,0.8829 2.18,0 4.22,-0.961 5.95,-2.711 1.71,-1.8906 2.62,-4.1211 2.62,-6.8398 0,-4.5508 -2.34,-8.0586 -7.16,-10.4922 -4.83,-2.4297 -11.69,-3.6289 -20.61,-3.6289 -8.51,0 -14.97,1.4922 -19.36,4.4726 -4.35,2.9883 -7.27,7.0782 -8.58,12.4102 -1.4,5.2578 -2.07,12.2969 -2.07,21.0898 v 54.559 h -3.61 c -3.85,0 -6.85,0.961 -8.93,2.918 -2.07,1.929 -3.08,4.363 -3.08,7.363 0,2.988 1.06,5.398 3.2,7.308 2.18,1.911 5.3,2.872 9.43,2.872"
         style="fill:#100f0d;fill-opacity:1;fill-rule:nonzero;stroke:none"
         transform="matrix(0.13333333,0,0,-0.13333333,0,802.96)" />
      <path
         id="path18"
         d="m 3423.29,99.7422 c 0,11.5388 -2.46,20.5778 -7.32,27.0198 -4.93,6.41 -11.42,9.66 -19.69,9.66 -5.33,0 -10,-1.442 -14.02,-4.313 -4.08,-2.918 -7.2,-7.16 -9.37,-12.777 -2.19,-5.551 -3.31,-12.07 -3.31,-19.5898 0,-7.4297 1.12,-13.8828 3.27,-19.4102 2.15,-5.5507 5.21,-9.8007 9.23,-12.75 4,-2.9297 8.75,-4.3828 14.2,-4.3828 8.27,0 14.76,3.211 19.69,9.6914 4.86,6.4492 7.32,15.4492 7.32,26.8516 z m 27.3,0 c 0,-8.4102 -1.25,-16.2109 -3.82,-23.4024 -2.5,-7.0781 -6.17,-13.2304 -10.93,-18.371 -4.79,-5.1368 -10.51,-8.9766 -17.12,-11.7891 -6.67,-2.7383 -14.1,-4.0703 -22.44,-4.0703 -8.27,0 -15.68,1.332 -22.22,4.1523 -6.56,2.7578 -12.29,6.7305 -17.09,11.8985 -4.8,5.1796 -8.46,11.2304 -10.91,18.2617 -2.48,7.0781 -3.7,14.8203 -3.7,23.3672 0,8.6019 1.22,16.4609 3.7,23.5699 2.58,7.172 6.15,13.231 10.86,18.332 4.75,5.051 10.45,8.938 17.14,11.68 6.77,2.738 14.16,4.129 22.22,4.129 8.27,0 15.7,-1.391 22.44,-4.168 6.7,-2.769 12.42,-6.762 17.21,-11.883 4.73,-5.117 8.44,-11.258 10.92,-18.328 2.49,-7.051 3.74,-14.851 3.74,-23.3788"
         style="fill:#100f0d;fill-opacity:1;fill-rule:nonzero;stroke:none"
         transform="matrix(0.13333333,0,0,-0.13333333,0,802.96)" />
      <path
         id="path19"
         d="M 3499.04,83 V 59.3789 c 0,-5.7578 -1.31,-10.0976 -3.91,-13 -2.6,-2.8164 -5.87,-4.2695 -9.89,-4.2695 -3.87,0 -7.12,1.4922 -9.63,4.3398 -2.52,2.9102 -3.76,7.211 -3.76,12.9297 v 79.0001 c 0,12.762 4.4,19.121 13.23,19.121 4.48,0 7.75,-1.52 9.78,-4.469 1.95,-2.972 3.01,-7.39 3.27,-13.199 3.23,5.809 6.61,10.227 10.04,13.199 3.42,2.949 7.96,4.469 13.64,4.469 5.76,0 11.28,-1.52 16.68,-4.469 5.35,-2.972 8.08,-6.949 8.08,-11.851 0,-3.457 -1.18,-6.367 -3.47,-8.59 -2.27,-2.231 -4.75,-3.399 -7.44,-3.399 -0.98,0 -3.4,0.661 -7.21,1.969 -3.85,1.262 -7.21,1.922 -10.15,1.922 -3.94,0 -7.19,-1.051 -9.69,-3.293 -2.54,-2.207 -4.51,-5.41 -5.9,-9.699 -1.4,-4.34 -2.4,-9.43 -2.9,-15.391 -0.51,-5.8787 -0.77,-13.0896 -0.77,-21.699"
         style="fill:#100f0d;fill-opacity:1;fill-rule:nonzero;stroke:none"
         transform="matrix(0.13333333,0,0,-0.13333333,0,802.96)" />
      <path
         id="path20"
         d="m 3643.89,79.1914 c 0,-7.8594 -1.82,-14.5391 -5.52,-20.1328 -3.67,-5.6094 -9.05,-9.7773 -16.2,-12.6875 -7.17,-2.8086 -15.82,-4.2617 -26.1,-4.2617 -9.68,0 -18.1,1.539 -25.09,4.6914 -6.97,3.1094 -12.13,6.9883 -15.42,11.6484 -3.36,4.6602 -5.07,9.3594 -5.07,14.0625 0,3.1094 1.1,5.7891 3.27,8 2.11,2.2696 4.82,3.3203 8.03,3.3203 2.87,0 5.1,-0.7422 6.61,-2.1406 1.53,-1.5508 2.95,-3.5508 4.39,-6.1914 2.78,-5.0586 6.1,-8.8398 10.05,-11.3281 3.82,-2.5313 9.12,-3.7735 15.89,-3.7735 5.42,0 9.89,1.293 13.38,3.8204 3.47,2.5234 5.27,5.4101 5.27,8.6718 0,5.0196 -1.84,8.668 -5.43,10.9414 -3.67,2.3282 -9.6,4.5078 -17.9,6.5664 -9.36,2.4336 -17,4.9805 -22.89,7.6211 -5.87,2.6915 -10.63,6.2305 -14.11,10.6015 -3.53,4.301 -5.32,9.711 -5.32,16.078 0,5.731 1.64,11.09 4.91,16.133 3.23,5.07 8.1,9.09 14.42,12.117 6.33,3.031 13.97,4.551 22.99,4.551 7,0 13.33,-0.781 18.97,-2.309 5.6,-1.511 10.34,-3.582 14.04,-6.109 3.75,-2.582 6.64,-5.422 8.58,-8.519 1.99,-3.153 2.96,-6.204 2.96,-9.161 0,-3.273 -1.03,-5.882 -3.17,-8.043 -2.1,-2.007 -5.09,-3.058 -8.88,-3.058 -2.82,0 -5.19,0.82 -7.19,2.519 -1.91,1.641 -4.19,4.121 -6.7,7.403 -2.06,2.777 -4.46,5.019 -7.28,6.679 -2.8,1.629 -6.58,2.5 -11.33,2.5 -4.93,0 -9.05,-1.082 -12.25,-3.293 -3.28,-2.168 -4.92,-4.91 -4.92,-8.16 0,-3 1.21,-5.429 3.56,-7.34 2.43,-1.91 5.63,-3.48 9.7,-4.738 4.08,-1.25 9.64,-2.808 16.75,-4.59 8.46,-2.14 15.32,-4.679 20.68,-7.691 5.35,-2.949 9.39,-6.4806 12.14,-10.5392 2.8,-4.0899 4.18,-8.711 4.18,-13.8594"
         style="fill:#100f0d;fill-opacity:1;fill-rule:nonzero;stroke:none"
         transform="matrix(0.13333333,0,0,-0.13333333,0,802.96)" />
      <path
         id="path21"
         d="m 3674.77,42.1094 c -4.12,0 -7.69,1.332 -10.63,4.1523 -3.04,2.7578 -4.52,6.668 -4.52,11.6094 0,4.2187 1.4,7.8594 4.23,10.9297 2.86,3.0312 6.41,4.5195 10.6,4.5195 4.16,0 7.74,-1.4883 10.63,-4.5117 3,-2.9688 4.49,-6.6797 4.49,-10.9375 0,-4.9023 -1.49,-8.7695 -4.49,-11.5703 -2.89,-2.8008 -6.33,-4.1914 -10.31,-4.1914"
         style="fill:#100f0d;fill-opacity:1;fill-rule:nonzero;stroke:none"
         transform="matrix(0.13333333,0,0,-0.13333333,0,802.96)" />
      <path
         id="path22"
         d="m 3795.02,99.7422 c 0,11.5388 -2.45,20.5778 -7.33,27.0198 -4.88,6.41 -11.42,9.66 -19.65,9.66 -5.32,0 -9.95,-1.442 -14.02,-4.313 -4.06,-2.918 -7.18,-7.16 -9.36,-12.777 -2.16,-5.551 -3.28,-12.07 -3.28,-19.5898 0,-7.4297 1.05,-13.8828 3.2,-19.4102 2.22,-5.5507 5.27,-9.8007 9.3,-12.75 4.01,-2.9297 8.72,-4.3828 14.16,-4.3828 8.23,0 14.77,3.211 19.65,9.6914 4.88,6.4492 7.33,15.4492 7.33,26.8516 z m 27.33,0 c 0,-8.4102 -1.25,-16.2109 -3.81,-23.4024 -2.54,-7.0781 -6.15,-13.2304 -10.95,-18.371 -4.82,-5.1368 -10.47,-8.9766 -17.13,-11.7891 -6.62,-2.7383 -14.09,-4.0703 -22.42,-4.0703 -8.22,0 -15.62,1.332 -22.2,4.1523 -6.58,2.7578 -12.24,6.7305 -17.05,11.8985 -4.89,5.1796 -8.51,11.2304 -11.03,18.2617 -2.44,7.0781 -3.69,14.8203 -3.69,23.3672 0,8.6019 1.25,16.4609 3.79,23.5699 2.56,7.172 6.13,13.231 10.82,18.332 4.71,5.051 10.44,8.938 17.16,11.68 6.7,2.738 14.06,4.129 22.2,4.129 8.23,0 15.71,-1.391 22.42,-4.168 6.74,-2.769 12.46,-6.762 17.26,-11.883 4.75,-5.117 8.38,-11.258 10.9,-18.328 2.48,-7.051 3.73,-14.851 3.73,-23.3788"
         style="fill:#100f0d;fill-opacity:1;fill-rule:nonzero;stroke:none"
         transform="matrix(0.13333333,0,0,-0.13333333,0,802.96)" />
      <path
         id="path23"
         d="M 3870.79,83 V 59.3789 c 0,-5.7578 -1.3,-10.0976 -3.89,-13 -2.55,-2.8164 -5.88,-4.2695 -9.83,-4.2695 -3.97,0 -7.15,1.4922 -9.69,4.3398 -2.56,2.9102 -3.8,7.211 -3.8,12.9297 v 79.0001 c 0,12.762 4.47,19.121 13.26,19.121 4.52,0 7.75,-1.52 9.74,-4.469 1.96,-2.972 3.12,-7.39 3.36,-13.199 3.19,5.809 6.52,10.227 9.94,13.199 3.44,2.949 8.01,4.469 13.67,4.469 5.81,0 11.35,-1.52 16.67,-4.469 5.38,-2.972 8.1,-6.949 8.1,-11.851 0,-3.457 -1.16,-6.367 -3.43,-8.59 -2.32,-2.231 -4.75,-3.399 -7.47,-3.399 -0.96,0 -3.35,0.661 -7.17,1.969 -3.84,1.262 -7.21,1.922 -10.16,1.922 -3.95,0 -7.18,-1.051 -9.78,-3.293 -2.48,-2.207 -4.45,-5.41 -5.86,-9.699 -1.36,-4.34 -2.34,-9.43 -2.85,-15.391 -0.53,-5.8787 -0.81,-13.0896 -0.81,-21.699"
         style="fill:#100f0d;fill-opacity:1;fill-rule:nonzero;stroke:none"
         transform="matrix(0.13333333,0,0,-0.13333333,0,802.96)" />
      <path
         id="path24"
         d="m 3949.3,100.719 c 0,-11.4768 2.42,-20.1995 7.26,-26.1096 4.77,-5.8477 11.04,-8.8281 18.63,-8.8281 4.49,0 8.82,1.3085 12.81,3.8398 4.03,2.5312 7.3,6.3281 9.83,11.4297 2.56,5.1094 3.78,11.2617 3.78,18.539 0,11.5702 -2.46,20.5622 -7.34,26.9922 -4.86,6.5 -11.3,9.75 -19.26,9.75 -7.74,0 -13.98,-3.16 -18.65,-9.293 -4.7,-6.187 -7.06,-14.937 -7.06,-26.32 z m 78.84,36 V 54.2422 c 0,-9.4609 -1.04,-17.5508 -2.92,-24.3125 -1.93,-6.8281 -5.01,-12.4375 -9.26,-16.8672 -4.25,-4.42187 -9.84,-7.71094 -16.67,-9.86328 C 3992.41,1.08984 3983.84,0 3973.63,0 c -9.39,0 -17.78,1.33203 -25.1,4.05859 -7.39,2.80079 -13.09,6.30081 -17.05,10.66021 -3.98,4.2929 -6,8.75 -6,13.3515 0,3.4805 1.11,6.2813 3.43,8.461 2.23,2.2382 4.96,3.3203 8.14,3.3203 4,0 7.44,-1.8594 10.48,-5.5118 1.47,-1.9296 2.99,-3.8007 4.51,-5.6796 1.56,-1.918 3.3,-3.5782 5.17,-4.8985 1.92,-1.3906 4.21,-2.3906 6.87,-3.0508 2.59,-0.6523 5.7,-0.9921 9.17,-0.9921 6.98,0 12.51,1.0507 16.36,3.0703 3.89,2.0429 6.63,4.9023 8.21,8.5625 1.48,3.6875 2.49,7.5976 2.64,11.789 0.33,4.2813 0.51,10.9492 0.7,20.2813 -4.18,-6.0899 -9.09,-10.7422 -14.51,-13.9219 -5.48,-3.1992 -12.04,-4.7578 -19.55,-4.7578 -9.18,0 -17.12,2.3867 -23.88,7.2695 -6.85,4.8399 -12.08,11.6172 -15.72,20.3789 -3.61,8.711 -5.48,18.7891 -5.48,30.2304 0,8.578 1.09,16.281 3.36,23.149 2.17,6.82 5.33,12.632 9.52,17.339 4.07,4.723 8.85,8.282 14.22,10.692 5.41,2.347 11.25,3.57 17.75,3.57 7.67,0 14.34,-1.562 19.97,-4.672 5.72,-3.039 10.91,-7.937 15.77,-14.48 v 3.801 c 0,4.96 1.2,8.742 3.5,11.519 2.29,2.672 5.31,4.043 8.94,4.043 5.27,0 8.75,-1.773 10.5,-5.352 1.7,-3.582 2.59,-8.781 2.59,-15.511"
         style="fill:#100f0d;fill-opacity:1;fill-rule:nonzero;stroke:none"
         transform="matrix(0.13333333,0,0,-0.13333333,0,802.96)" />
      <path
         id="path25"
         d="m 2849.43,413.09 h 40.34 c -2.85,-21.75 -11.76,-38.719 -26.58,-50.93 -13.72,-11.98 -30.33,-17.879 -49.73,-17.879 -26.35,0 -47.37,9.258 -63.07,27.731 -14.88,17.57 -22.3,40.25 -22.3,67.957 0,28.402 7.37,51.094 22.09,68.281 14.7,17.121 35.5,25.723 62.38,25.723 19.99,0 36.91,-5.41 50.63,-16.141 14.54,-11.602 23.44,-27.902 26.58,-48.773 h -40.34 c -3.49,18.211 -14.6,27.273 -33.52,27.273 -31.17,0 -46.79,-18.473 -46.79,-55.422 0,-17.328 4.02,-31.461 12.04,-42.469 8.01,-11.062 19.32,-16.589 33.9,-16.589 21.74,0 33.2,10.429 34.37,31.238 z m -158.79,25.449 c 0,-36.098 11.45,-66.66 34.31,-91.559 22.89,-24.89 50.9,-37.351 84.15,-37.351 33.1,0 61.13,12.461 83.98,37.351 22.92,24.899 34.3,55.461 34.3,91.559 0,36.082 -11.38,66.613 -34.3,91.52 -22.85,24.953 -50.88,37.382 -83.98,37.382 -33.25,0 -61.26,-12.429 -84.15,-37.382 -22.86,-24.907 -34.31,-55.438 -34.31,-91.52 z m -40.98,0 c 0,45.941 15.55,85.152 46.66,117.723 31.15,32.519 68.75,48.789 112.78,48.789 43.92,0 81.46,-16.27 112.64,-48.789 31.14,-32.571 46.73,-71.782 46.73,-117.723 0,-45.969 -15.59,-85.238 -46.73,-117.738 -31.18,-32.551 -68.72,-48.832 -112.64,-48.832 -44.03,0 -81.63,16.281 -112.78,48.832 -31.11,32.5 -46.66,71.769 -46.66,117.738"
         style="fill:#100f0d;fill-opacity:1;fill-rule:nonzero;stroke:none"
         transform="matrix(0.13333333,0,0,-0.13333333,0,802.96)" />
      <path
         id="path26"
         d="m 2714.17,334.121 23.25,-19.73 170.95,219.531 -23.24,19.699 -170.96,-219.5"
         style="fill:#100f0d;fill-opacity:1;fill-rule:nonzero;stroke:none"
         transform="matrix(0.13333333,0,0,-0.13333333,0,802.96)" />
      <path
         id="path27"
         d="m 2884.38,5481.01 c 1487.45,0 2693.28,-1205.82 2693.28,-2693.27 0,-631.91 -217.71,-1212.91 -582.11,-1672.3 H 773.199 c -364.383,459.39 -582.094,1040.39 -582.094,1672.3 0,1487.45 1205.825,2693.27 2693.275,2693.27"
         style="fill:#feecd7;fill-opacity:1;fill-rule:evenodd;stroke:none"
         transform="matrix(0.13333333,0,0,-0.13333333,0,802.96)" />
      <path
         id="path28"
         d="m 3280.57,2990.89 137.15,-227.17 601.89,441.89 460.94,-499.04 -76.19,-198.09 c -200.73,-521.89 -681.07,-884 -1238.08,-933.32 l -579.02,841.9 60.94,76.19 c 169.78,212.23 386.17,382.52 632.37,497.64"
         style="fill:#83353c;fill-opacity:1;fill-rule:evenodd;stroke:none"
         transform="matrix(0.13333333,0,0,-0.13333333,0,802.96)" />
      <path
         id="path29"
         d="m 3280.57,2990.89 119.29,-197.58 -10.35,-11.96 C 3186.38,2547 3174.34,2202.68 3360.56,1954.69 l 42.28,28.6 c 235.5,159.18 370.07,430.43 354.26,714.26 L 3964.07,1900.1 C 3740.91,1717.76 3464.6,1601.59 3166.28,1575.16 l -579.02,841.9 60.94,76.19 c 169.78,212.23 386.17,382.52 632.37,497.64"
         style="fill:#612a2e;fill-opacity:1;fill-rule:evenodd;stroke:none"
         transform="matrix(0.13333333,0,0,-0.13333333,0,802.96)" />
      <path
         id="path30"
         d="m 4153.64,3212.73 -25.49,44.78 c -27.65,48.53 -73.56,83.97 -127.51,98.4 -66.63,17.81 -122.57,63.07 -153.91,124.52 -9.7,19.04 -8.91,41.74 2.08,60.06 11.02,18.32 30.68,29.68 52.04,30.05 48.22,0.86 95.78,-11.04 137.91,-34.48 16.08,-8.95 31.18,-19.56 45.04,-31.68 53.38,-46.62 125.39,-65.76 194.88,-51.8 l 25.66,-148.12 -150.7,-91.73"
         style="fill:#612a2e;fill-opacity:1;fill-rule:evenodd;stroke:none"
         transform="matrix(0.13333333,0,0,-0.13333333,0,802.96)" />
      <path
         id="path31"
         d="m 1311.08,4371.3 -57.14,-236.19 -205.71,-64.76 -110.476,-3.81 C 711.215,4058.73 508.813,3922.81 415.859,3716.07 L 61.5859,2988.46 103.492,2912.27 c 157.746,-286.81 475.531,-447.2 799.981,-403.81 V 1115.44 H 2754.85 v 1396.91 c 235.07,39.39 444.9,183.75 563.81,399.92 l 41.9,76.19 -354.28,727.61 c -92.95,206.74 -295.35,342.66 -521.89,350.47 l -110.47,3.81 -262.86,300.95 h -799.98"
         style="fill:#56c48f;fill-opacity:1;fill-rule:evenodd;stroke:none"
         transform="matrix(0.13333333,0,0,-0.13333333,0,802.96)" />
      <path
         id="path32"
         d="M 191.109,2973.23 139.766,2852.66 C -33.1211,2446.67 -46.0859,1990.32 103.492,1575.16 h 426.653 c 410.21,0 832.495,307.03 1115.655,603.85 l -281.39,478.03 -430.461,-68.56 45.715,80 -60.953,68.56 C 736.816,2941.69 458.52,3032.02 191.109,2973.23"
         style="fill:#83353c;fill-opacity:1;fill-rule:evenodd;stroke:none"
         transform="matrix(0.13333333,0,0,-0.13333333,0,802.96)" />
      <path
         id="path33"
         d="M 5300.75,3450.62 H 3722.28 v -1638.6 c 0,-293.61 164.28,-562.54 425.5,-696.58 h 1578.47 c -261.23,134.04 -425.5,402.97 -425.5,696.58 v 1638.6"
         style="fill:#ffffff;fill-opacity:1;fill-rule:evenodd;stroke:none"
         transform="matrix(0.13333333,0,0,-0.13333333,0,802.96)" />
      <path
         id="path34"
         d="m 3969.24,3058.87 h 133.58 c 31.76,0 57.74,-25.99 57.74,-57.75 v -132.73 c 0,-31.77 -25.98,-57.76 -57.74,-57.76 h -133.58 c -31.77,0 -57.76,25.99 -57.76,57.76 v 132.73 c 0,31.76 25.99,57.75 57.76,57.75"
         style="fill:#f2c89d;fill-opacity:1;fill-rule:evenodd;stroke:none"
         transform="matrix(0.13333333,0,0,-0.13333333,0,802.96)" />
      <path
         id="path35"
         d="m 3856.13,2993.76 c -23.24,25.82 -21.15,65.58 4.67,88.82 25.82,23.23 65.59,21.14 88.82,-4.68 l 78.8,-87.33 146.4,220.95 c 19.15,28.94 58.15,36.87 87.09,17.72 28.95,-19.17 36.87,-58.17 17.72,-87.11 L 4089.9,2855.76 c -3.14,-5.19 -7.07,-10 -11.8,-14.27 -25.82,-23.23 -65.6,-21.14 -88.83,4.67 l -133.14,147.6"
         style="fill:#e61d2b;fill-opacity:1;fill-rule:evenodd;stroke:none"
         transform="matrix(0.13333333,0,0,-0.13333333,0,802.96)" />
      <path
         id="path36"
         d="m 4463.99,3058.87 h 588.3 c 27.31,0 49.65,-22.34 49.65,-49.64 v 0 c 0,-27.31 -22.34,-49.65 -49.65,-49.65 h -588.3 c -27.31,0 -49.65,22.34 -49.65,49.65 v 0 c 0,27.3 22.34,49.64 49.65,49.64"
         style="fill:#f2c89d;fill-opacity:1;fill-rule:evenodd;stroke:none"
         transform="matrix(0.13333333,0,0,-0.13333333,0,802.96)" />
      <path
         id="path37"
         d="m 4463.99,2909.93 h 407.37 c 27.31,0 49.63,-22.35 49.63,-49.65 v 0 c 0,-27.3 -22.32,-49.65 -49.63,-49.65 h -407.37 c -27.31,0 -49.65,22.35 -49.65,49.65 v 0 c 0,27.3 22.34,49.65 49.65,49.65"
         style="fill:#f2c89d;fill-opacity:1;fill-rule:evenodd;stroke:none"
         transform="matrix(0.13333333,0,0,-0.13333333,0,802.96)" />
      <path
         id="path38"
         d="m 4081.47,3698.67 -21.15,-74.89 c -25.15,-89.01 -36.98,-181.25 -35.08,-273.73 0.4,-19.89 10.51,-38.35 27.04,-49.41 16.54,-11.07 37.44,-13.36 56,-6.14 21.12,8.21 39.6,22.02 53.44,39.94 l -1.38,-60.29 c -0.67,-29.49 4.24,-58.84 14.49,-86.5 6.96,-18.77 21.83,-33.52 40.65,-40.33 18.84,-6.81 39.69,-4.97 57.05,5.02 45.65,26.28 76.46,72.33 83.34,124.55 l 14.09,-17.2 c 12.19,-14.88 30.03,-24.05 49.23,-25.3 19.21,-1.24 38.09,5.54 52.1,18.73 63.04,59.31 105.95,136.85 122.75,221.75 l -2.41,-61.83 c -1.16,-30.03 -2.33,-60.05 -3.47,-90.08 -0.62,-16.23 8.64,-31.23 23.43,-37.95 14.79,-6.71 32.17,-3.82 44,7.34 69.19,65.27 107.71,156.67 106.11,251.8 -0.56,34.38 -18.94,65.99 -48.52,83.51 -29.58,17.53 -66.14,18.44 -96.56,2.42 -24.9,52.05 -87.38,90.05 -174.18,30.81 -43.32,30.13 -132.25,43.78 -186.26,11.07 -38.95,125.61 -152.92,103.82 -174.71,26.71"
         style="fill:#83353c;fill-opacity:1;fill-rule:evenodd;stroke:none"
         transform="matrix(0.13333333,0,0,-0.13333333,0,802.96)" />
      <path
         id="path39"
         d="m 1251.13,3340.41 -93.65,-103.56 c -10.53,-11.62 -9.62,-29.75 2.01,-40.28 L 1255,3110.2 c 11.64,-10.53 29.76,-9.61 40.28,2.01 l 93.66,103.55 c 10.52,11.64 9.61,29.76 -2.02,40.29 l -95.51,86.38 c -11.64,10.52 -29.75,9.61 -40.28,-2.02"
         style="fill:#ed1569;fill-opacity:1;fill-rule:evenodd;stroke:none"
         transform="matrix(0.13333333,0,0,-0.13333333,0,802.96)" />
      <path
         id="path40"
         d="m 1201.82,3285.88 -44.34,-49.03 c -10.53,-11.62 -9.62,-29.75 2.02,-40.28 l 95.5,-86.37 c 11.64,-10.53 29.76,-9.61 40.28,2.01 l 33.98,37.58 c -58.06,26.71 -104.2,75.3 -127.44,136.09"
         style="fill:#e3125d;fill-opacity:1;fill-rule:evenodd;stroke:none"
         transform="matrix(0.13333333,0,0,-0.13333333,0,802.96)" />
      <path
         id="path41"
         d="m 2104.21,2346.51 127.53,141.02 -764.01,691.02 -127.54,-141 764.02,-691.04"
         style="fill:#cd1e25;fill-opacity:1;fill-rule:evenodd;stroke:none"
         transform="matrix(0.13333333,0,0,-0.13333333,0,802.96)" />
      <path
         id="path42"
         d="m 1437,3144.58 -66.09,-73.07 764.02,-691.02 66.09,73.05 -764.02,691.04"
         style="fill:#e61d2b;fill-opacity:1;fill-rule:evenodd;stroke:none"
         transform="matrix(0.13333333,0,0,-0.13333333,0,802.96)" />
      <path
         id="path43"
         d="m 2231.74,2487.53 147.75,-261.82 -275.28,120.8 z"
         style="fill:#f15030;fill-opacity:1;fill-rule:evenodd;stroke:none"
         transform="matrix(0.13333333,0,0,-0.13333333,0,802.96)" />
      <path
         id="path44"
         d="m 2317.71,2335.2 61.78,-109.49 -115.12,50.53 z"
         style="fill:#2e2d2d;fill-opacity:1;fill-rule:evenodd;stroke:none"
         transform="matrix(0.13333333,0,0,-0.13333333,0,802.96)" />
      <path
         id="path45"
         d="m 2200.52,2452.99 c -92.93,48.99 -143.27,49.4 -71.3,-67.57 -80.74,56.6 -114.86,66.44 -25.01,-38.91 28.51,-4.94 38.76,6.27 31.7,32.79 39.67,8.91 60.91,33.75 64.61,73.69 29.12,-5.03 39.21,6.76 31.22,34.54 -85.16,60.41 -123.35,73.47 -31.22,-34.54"
         style="fill:#f15030;fill-opacity:1;fill-rule:evenodd;stroke:none"
         transform="matrix(0.13333333,0,0,-0.13333333,0,802.96)" />
      <path
         id="path46"
         d="m 1360.6,3292.65 -144.66,-159.93 123.71,-111.88 144.65,159.93 -123.7,111.88"
         style="fill:#66625d;fill-opacity:1;fill-rule:evenodd;stroke:none"
         transform="matrix(0.13333333,0,0,-0.13333333,0,802.96)" />
      <path
         id="path47"
         d="m 1267.83,3190.09 -51.89,-57.37 123.71,-111.88 96.23,106.39 c -11.69,-0.15 -23.49,0.51 -35.32,2.04 -50.5,6.59 -96.39,28.33 -132.73,60.82"
         style="fill:#46423d;fill-opacity:1;fill-rule:evenodd;stroke:none"
         transform="matrix(0.13333333,0,0,-0.13333333,0,802.96)" />
      <path
         id="path48"
         d="m 1444.02,3071.82 v 0 c -5.18,-5.74 -4.74,-14.66 0.99,-19.84 l 89.42,-80.87 c 5.73,-5.19 14.66,-4.74 19.84,1 v 0 c 5.18,5.73 4.73,14.65 -1,19.83 l -89.41,80.87 c -5.73,5.18 -14.66,4.74 -19.84,-0.99"
         style="fill:#2e2d2d;fill-opacity:1;fill-rule:evenodd;stroke:none"
         transform="matrix(0.13333333,0,0,-0.13333333,0,802.96)" />
      <path
         id="path49"
         d="m 1586.31,2943.11 v 0 c -5.18,-5.72 -4.74,-14.65 0.99,-19.82 l 34.3,-31.02 c 5.73,-5.19 14.65,-4.74 19.83,1 v 0 c 5.19,5.72 4.75,14.65 -0.99,19.82 l -34.29,31.02 c -5.73,5.18 -14.65,4.73 -19.84,-1"
         style="fill:#2e2d2d;fill-opacity:1;fill-rule:evenodd;stroke:none"
         transform="matrix(0.13333333,0,0,-0.13333333,0,802.96)" />
      <path
         id="path50"
         d="m 1663.23,2873.55 v 0 c -5.19,-5.73 -4.74,-14.66 0.99,-19.83 l 34.3,-31.02 c 5.72,-5.18 14.64,-4.73 19.83,1 v 0 c 5.18,5.72 4.73,14.65 -1,19.82 l -34.29,31.02 c -5.73,5.19 -14.65,4.74 -19.83,-0.99"
         style="fill:#2e2d2d;fill-opacity:1;fill-rule:evenodd;stroke:none"
         transform="matrix(0.13333333,0,0,-0.13333333,0,802.96)" />
      <path
         id="path51"
         d="m 1740.14,2803.98 v 0 c -5.18,-5.73 -4.73,-14.65 1,-19.83 l 71.46,-64.63 c 5.73,-5.2 14.65,-4.75 19.84,0.97 v 0 c 5.18,5.75 4.74,14.67 -1,19.85 l -71.46,64.64 c -5.74,5.18 -14.66,4.73 -19.84,-1"
         style="fill:#2e2d2d;fill-opacity:1;fill-rule:evenodd;stroke:none"
         transform="matrix(0.13333333,0,0,-0.13333333,0,802.96)" />
      <path
         id="path52"
         d="m 1931.14,2631.22 v 0 c -5.18,-5.73 -4.73,-14.65 1,-19.83 l 15.7,-14.2 c 5.73,-5.19 14.66,-4.74 19.84,1 v 0 c 5.18,5.72 4.74,14.65 -1,19.84 l -15.7,14.2 c -5.73,5.16 -14.66,4.73 -19.84,-1.01"
         style="fill:#2e2d2d;fill-opacity:1;fill-rule:evenodd;stroke:none"
         transform="matrix(0.13333333,0,0,-0.13333333,0,802.96)" />
      <path
         id="path53"
         d="m 1983.38,2583.97 v 0 c -5.18,-5.72 -4.73,-14.65 1,-19.84 l 15.7,-14.18 c 5.74,-5.2 14.66,-4.75 19.84,0.97 v 0 c 5.18,5.75 4.73,14.67 -0.99,19.85 l -15.71,14.2 c -5.72,5.19 -14.66,4.74 -19.84,-1"
         style="fill:#2e2d2d;fill-opacity:1;fill-rule:evenodd;stroke:none"
         transform="matrix(0.13333333,0,0,-0.13333333,0,802.96)" />
      <path
         id="path54"
         d="m 1477.04,3172.73 c 9.71,-8.31 18.68,-17.3 26.86,-26.88 l -28.16,25.46 z m -192,-886.43 -71.46,172.44 c -44.49,107.34 -26.67,277.75 46.45,368.04 56.77,70.1 81.27,123.9 78.12,195.4 l 1.5,-1.34 8.55,9.46 201.3,-182.07 h 432.42 c 171.35,0 184.6,-221.76 35.73,-262.09 l -39.31,-278.38 c -9.59,-65.41 -62.81,-115.66 -128.66,-121.5 -135.66,-12.05 -272.22,-9.65 -407.39,7.13 -63.03,7.83 -133.58,35.84 -157.25,92.91 v 0"
         style="fill:#83353c;fill-opacity:1;fill-rule:evenodd;stroke:none"
         transform="matrix(0.13333333,0,0,-0.13333333,0,802.96)" />
      <path
         id="path55"
         d="m 1333.94,4338.91 377.13,-209.03 c 206.94,-350.37 409.5,-890.2 539.46,-1454.15 64.93,560.34 66.51,1198.14 -192.8,1786.2 h -685.44 l -38.35,-123.02"
         style="fill:#ffffff;fill-opacity:1;fill-rule:evenodd;stroke:none"
         transform="matrix(0.13333333,0,0,-0.13333333,0,802.96)" />
      <path
         id="path56"
         d="m 3969.24,2468.05 c 44.52,0 89.04,0 133.57,0 31.77,0 57.75,-25.99 57.75,-57.75 0,-44.26 0,-88.5 0,-132.73 0,-31.76 -25.98,-57.74 -57.75,-57.74 -44.53,0 -89.05,0 -133.57,0 -31.77,0 -57.76,25.98 -57.76,57.74 0,44.23 0,88.47 0,132.73 0,31.76 25.99,57.75 57.76,57.75"
         style="fill:#f2c89d;fill-opacity:1;fill-rule:evenodd;stroke:none"
         transform="matrix(0.13333333,0,0,-0.13333333,0,802.96)" />
      <path
         id="path57"
         d="m 3856.13,2402.94 c -23.24,25.82 -21.15,65.56 4.67,88.82 25.82,23.25 65.59,21.14 88.82,-4.68 26.26,-29.12 52.53,-58.23 78.8,-87.33 48.8,73.64 97.6,147.29 146.4,220.94 19.15,28.95 58.15,36.88 87.09,17.72 28.95,-19.15 36.87,-58.15 17.72,-87.11 -63.25,-95.45 -126.48,-190.9 -189.73,-286.35 -3.14,-5.2 -7.07,-10.02 -11.8,-14.28 -25.82,-23.22 -65.6,-21.15 -88.83,4.67 -44.38,49.2 -88.78,98.4 -133.14,147.6"
         style="fill:#e61d2b;fill-opacity:1;fill-rule:evenodd;stroke:none"
         transform="matrix(0.13333333,0,0,-0.13333333,0,802.96)" />
      <path
         id="path58"
         d="m 4463.99,2468.05 c 196.1,0 392.22,0 588.32,0 27.29,0 49.63,-22.34 49.63,-49.66 v 0 c 0,-27.31 -22.34,-49.63 -49.63,-49.63 -196.1,0 -392.22,0 -588.32,0 -27.32,0 -49.65,22.32 -49.65,49.63 v 0 c 0,27.32 22.33,49.66 49.65,49.66"
         style="fill:#f2c89d;fill-opacity:1;fill-rule:evenodd;stroke:none"
         transform="matrix(0.13333333,0,0,-0.13333333,0,802.96)" />
      <path
         id="path59"
         d="m 4463.99,2319.11 c 135.78,0 271.57,0 407.36,0 27.32,0 49.64,-22.35 49.64,-49.65 v 0 c 0,-27.3 -22.32,-49.63 -49.64,-49.63 -135.79,0 -271.58,0 -407.36,0 -27.32,0 -49.65,22.33 -49.65,49.63 v 0 c 0,27.3 22.33,49.65 49.65,49.65"
         style="fill:#f2c89d;fill-opacity:1;fill-rule:evenodd;stroke:none"
         transform="matrix(0.13333333,0,0,-0.13333333,0,802.96)" />
      <path
         id="path60"
         d="m 3969.24,1877.23 h 133.58 c 31.76,0 57.74,-25.99 57.74,-57.77 v -132.72 c 0,-31.75 -25.98,-57.73 -57.74,-57.73 h -133.58 c -31.77,0 -57.76,25.98 -57.76,57.73 v 132.72 c 0,31.78 25.99,57.77 57.76,57.77"
         style="fill:#f2c89d;fill-opacity:1;fill-rule:evenodd;stroke:none"
         transform="matrix(0.13333333,0,0,-0.13333333,0,802.96)" />
      <path
         id="path61"
         d="m 3856.13,1812.12 c -23.24,25.82 -21.15,65.58 4.67,88.8 25.82,23.27 65.59,21.16 88.82,-4.66 l 78.8,-87.33 146.4,220.94 c 19.15,28.95 58.15,36.87 87.09,17.71 28.95,-19.16 36.87,-58.14 17.72,-87.09 L 4089.9,1674.13 c -3.14,-5.2 -7.07,-10.02 -11.8,-14.28 -25.82,-23.24 -65.6,-21.15 -88.83,4.67 l -133.14,147.6"
         style="fill:#e61d2b;fill-opacity:1;fill-rule:evenodd;stroke:none"
         transform="matrix(0.13333333,0,0,-0.13333333,0,802.96)" />
      <path
         id="path62"
         d="m 4463.99,1877.23 h 588.3 c 27.31,0 49.65,-22.34 49.65,-49.65 v 0 c 0,-27.3 -22.34,-49.64 -49.65,-49.64 h -588.3 c -27.31,0 -49.65,22.34 -49.65,49.64 v 0 c 0,27.31 22.34,49.65 49.65,49.65"
         style="fill:#f2c89d;fill-opacity:1;fill-rule:evenodd;stroke:none"
         transform="matrix(0.13333333,0,0,-0.13333333,0,802.96)" />
      <path
         id="path63"
         d="m 4463.99,1728.29 h 407.37 c 27.31,0 49.63,-22.35 49.63,-49.65 v 0 c 0,-27.31 -22.32,-49.63 -49.63,-49.63 h -407.37 c -27.31,0 -49.65,22.32 -49.65,49.63 v 0 c 0,27.3 22.34,49.65 49.65,49.65"
         style="fill:#f2c89d;fill-opacity:1;fill-rule:evenodd;stroke:none"
         transform="matrix(0.13333333,0,0,-0.13333333,0,802.96)" />
      <path
         id="path64"
         d="m 791.441,2545.16 -64.757,-13.32 C 381.664,2460.81 158.203,2125.18 225.742,1779.48 l 3.805,28.55 c 43.691,327.84 257.371,608.15 561.894,737.13"
         style="fill:#612a2e;fill-opacity:1;fill-rule:evenodd;stroke:none"
         transform="matrix(0.13333333,0,0,-0.13333333,0,802.96)" />
      <path
         id="path65"
         d="m 1586.05,4716.79 8.4,-134.25 c 4.78,-76.38 1.47,-152.26 -9.71,-226.4 l 323.26,-184.88 116.83,64.86 c -2.51,28.04 -0.5,56.42 6.4,84.05 14.33,57.41 41.97,109.9 80.78,153.42 l -7.49,-0.01 -518.47,243.21"
         style="fill:#83353c;fill-opacity:1;fill-rule:evenodd;stroke:none"
         transform="matrix(0.13333333,0,0,-0.13333333,0,802.96)" />
      <path
         id="path66"
         d="m 2024.85,4236.12 c -2.53,28.04 -0.52,56.42 6.38,84.05 14.33,57.41 41.97,109.9 80.78,153.42 l -7.49,-0.01 -320.89,150.53 -7.71,-41.57 c -22.38,-120.78 12.06,-248.6 93.66,-347.57 16.5,-20.03 34.59,-38.44 53.96,-55.08 l 101.31,56.23"
         style="fill:#612a2e;fill-opacity:1;fill-rule:evenodd;stroke:none"
         transform="matrix(0.13333333,0,0,-0.13333333,0,802.96)" />
      <path
         id="path67"
         d="m 2049.21,5723.98 c 442.49,0 465.02,-360.23 493.94,-822.74 28.93,-462.49 -246.54,-640.55 -402.41,-640.55 -155.89,0 -665.18,178.06 -694.11,640.55 -28.93,462.5 160.1,822.74 602.58,822.74"
         style="fill:#83353c;fill-opacity:1;fill-rule:evenodd;stroke:none"
         transform="matrix(0.13333333,0,0,-0.13333333,0,802.96)" />
      <path
         id="path68"
         d="m 2342.1,4648.73 c -35.29,-119.09 -123.17,-166.07 -168.99,-166.07 -45.83,0 -174.29,46.98 -182.52,166.07 h 351.51"
         style="fill:#ffffff;fill-opacity:1;fill-rule:evenodd;stroke:none"
         transform="matrix(0.13333333,0,0,-0.13333333,0,802.96)" />
      <path
         id="path69"
         d="m 2077.57,5182.06 -5.1,81.45 -28.92,-3.71 c -82.22,-10.53 -160.9,-36.04 -232.22,-75.28 l 23.84,-45.66 c 63.53,19.59 129.27,32.62 196.24,38.88 l 46.16,4.32"
         style="fill:#2e2d2d;fill-opacity:1;fill-rule:evenodd;stroke:none"
         transform="matrix(0.13333333,0,0,-0.13333333,0,802.96)" />
      <path
         id="path70"
         d="m 1995.44,5111.53 c 39.53,0 74.15,-41.11 77.32,-91.82 3.17,-50.7 -26.3,-91.82 -65.84,-91.82 -39.52,0 -74.14,41.12 -77.31,91.82 -3.18,50.72 26.3,91.82 65.83,91.82"
         style="fill:#2e2d2d;fill-opacity:1;fill-rule:evenodd;stroke:none"
         transform="matrix(0.13333333,0,0,-0.13333333,0,802.96)" />
      <path
         id="path71"
         d="m 2277.35,5182.06 -5.1,81.45 22.94,-3.71 c 65.24,-10.53 129.4,-36.04 189.33,-75.28 l -13.5,-45.66 c -51.67,19.59 -104.35,32.62 -157.23,38.88 l -36.44,4.32"
         style="fill:#2e2d2d;fill-opacity:1;fill-rule:evenodd;stroke:none"
         transform="matrix(0.13333333,0,0,-0.13333333,0,802.96)" />
      <path
         id="path72"
         d="m 2349.18,5111.53 c -30.8,0 -53.2,-41.1 -50.02,-91.82 3.17,-50.7 30.71,-91.82 61.51,-91.82 30.79,0 53.19,41.12 50.02,91.83 -3.17,50.7 -30.7,91.82 -61.51,91.81"
         style="fill:#2e2d2d;fill-opacity:1;fill-rule:evenodd;stroke:none"
         transform="matrix(0.13333333,0,0,-0.13333333,0,802.96)" />
      <path
         id="path73"
         d="m 2520.7,5186.79 37.52,258.68 C 2720,6469.55 241.344,6119.67 1595.87,4475.94 l 33.71,216.92 -111.31,330.21 171.43,14.98 -46.11,296.52 c 288.86,136.93 733.57,110.91 853.65,1.86 l 23.46,-149.64"
         style="fill:#2e2d2d;fill-opacity:1;fill-rule:evenodd;stroke:none"
         transform="matrix(0.13333333,0,0,-0.13333333,0,802.96)" />
      <path
         id="path74"
         d="m 1477.7,5137.26 c 63.45,24.49 145.58,-38.62 183.43,-140.93 37.84,-102.32 17.07,-205.12 -46.38,-229.61 -63.45,-24.48 -145.58,38.62 -183.42,140.94 -37.86,102.33 -17.09,205.12 46.37,229.6"
         style="fill:#83353c;fill-opacity:1;fill-rule:evenodd;stroke:none"
         transform="matrix(0.13333333,0,0,-0.13333333,0,802.96)" />
      <path
         id="path75"
         d="m 2289.85,4774.64 c 50.36,0 58.88,34.07 58.89,17.26 0,-16.82 -67.03,-77.23 -117.4,-77.22 -50.36,0 -64.99,60.41 -65,77.22 0.01,16.81 73.15,-17.26 123.51,-17.26"
         style="fill:#612a2e;fill-opacity:1;fill-rule:evenodd;stroke:none"
         transform="matrix(0.13333333,0,0,-0.13333333,0,802.96)" />
      <path
         id="path76"
         d="m 3871.61,4074.93 c 321.13,0 583.03,261.91 583.03,583.04 0,321.11 -261.9,583.02 -583.03,583.02 -321.12,0 -583.03,-261.91 -583.03,-583.02 0,-321.13 261.91,-583.04 583.03,-583.04"
         style="fill:#eac59b;fill-opacity:1;fill-rule:evenodd;stroke:none"
         transform="matrix(0.13333333,0,0,-0.13333333,0,802.96)" />
      <path
         id="path77"
         d="m 3777.15,4195.07 c 303.96,0 551.85,247.9 551.85,551.85 0,303.95 -247.89,551.86 -551.85,551.86 -303.95,0 -551.85,-247.91 -551.85,-551.86 0,-303.95 247.9,-551.85 551.85,-551.85"
         style="fill:#f1485f;fill-opacity:1;fill-rule:evenodd;stroke:none"
         transform="matrix(0.13333333,0,0,-0.13333333,0,802.96)" />
      <path
         id="path78"
         d="m 3777.15,4337.86 c 225.3,0 409.07,183.76 409.07,409.06 0,225.3 -183.77,409.05 -409.07,409.05 -225.3,0 -409.05,-183.75 -409.05,-409.05 0,-225.3 183.75,-409.06 409.05,-409.06"
         style="fill:#ffffff;fill-opacity:1;fill-rule:evenodd;stroke:none"
         transform="matrix(0.13333333,0,0,-0.13333333,0,802.96)" />
      <path
         id="path79"
         d="m 3767.96,4766.13 -254.35,-172.55 270.72,138.34 z"
         style="fill:#f1485f;fill-opacity:1;fill-rule:evenodd;stroke:none"
         transform="matrix(0.13333333,0,0,-0.13333333,0,802.96)" />
      <path
         id="path80"
         d="m 3734.99,5093.49 c 0,23.3 18.88,42.17 42.16,42.17 23.29,0 42.17,-18.87 42.17,-42.17 v -324.47 l 137.74,-94.44 c 19.19,-13.11 24.14,-39.29 11.04,-58.48 -13.1,-19.19 -39.29,-24.13 -58.48,-11.04 l -153.96,105.58 c -12.37,7.35 -20.67,20.84 -20.67,36.28 v 346.57"
         style="fill:#ab2329;fill-opacity:1;fill-rule:evenodd;stroke:none"
         transform="matrix(0.13333333,0,0,-0.13333333,0,802.96)" />
    </g>
  </g>
</svg>
