<?xml version="1.0" encoding="UTF-8" standalone="no"?>
<!-- Created with Inkscape (http://www.inkscape.org/) -->

<svg
   version="1.1"
   id="svg1"
   width="1432.3333"
   height="1211.8933"
   viewBox="0 0 1432.3333 1211.8933"
   sodipodi:docname="handshake.svg"
   inkscape:version="1.3.2 (091e20ef0f, 2023-11-25, custom)"
   xmlns:inkscape="http://www.inkscape.org/namespaces/inkscape"
   xmlns:sodipodi="http://sodipodi.sourceforge.net/DTD/sodipodi-0.dtd"
   xmlns="http://www.w3.org/2000/svg"
   xmlns:svg="http://www.w3.org/2000/svg">
  <defs
     id="defs1" />
  <sodipodi:namedview
     id="namedview1"
     pagecolor="#505050"
     bordercolor="#ffffff"
     borderopacity="1"
     inkscape:showpageshadow="0"
     inkscape:pageopacity="0"
     inkscape:pagecheckerboard="1"
     inkscape:deskcolor="#d1d1d1"
     inkscape:zoom="0.44752157"
     inkscape:cx="716.1666"
     inkscape:cy="605.55741"
     inkscape:window-width="1920"
     inkscape:window-height="1002"
     inkscape:window-x="0"
     inkscape:window-y="0"
     inkscape:window-maximized="1"
     inkscape:current-layer="g1">
    <inkscape:page
       x="0"
       y="0"
       inkscape:label="1"
       id="page1"
       width="1432.3333"
       height="1211.8933"
       margin="0"
       bleed="0" />
  </sodipodi:namedview>
  <g
     id="g1"
     inkscape:groupmode="layer"
     inkscape:label="1">
    <g
       id="group-R5">
      <path
         id="path2"
         d="m 3656.48,150.832 c 0,11.309 -1.63,21.027 -4.96,29.059 -3.28,8.109 -7.81,14.339 -13.74,18.73 -5.83,4.32 -12.27,6.488 -19.42,6.488 -11.21,0 -20.75,-4.699 -28.57,-13.91 -7.71,-9.441 -11.66,-22.988 -11.66,-41.051 0,-17.07 3.95,-30.25 11.6,-39.628 7.73,-9.45 17.25,-14.2583 28.63,-14.2583 6.85,0 13.17,2.0899 18.97,6.2503 5.71,4.148 10.39,10.34 13.89,18.508 3.55,8.332 5.26,18.199 5.26,29.812 z m -80.21,62.297 v -5.188 c 7.67,9.868 15.69,17.219 23.95,21.84 8.32,4.688 17.76,6.969 28.25,6.969 12.56,0 24.15,-3.41 34.77,-10.16 10.58,-6.781 19,-16.66 25.16,-29.762 6.09,-12.988 9.23,-28.457 9.23,-46.297 0,-13.082 -1.84,-25.269 -5.38,-36.133 -3.49,-11.066 -8.38,-20.3863 -14.56,-27.7964 -6.25,-7.5118 -13.61,-13.25 -22.03,-17.1914 -8.43,-4.0821 -17.53,-6 -27.19,-6 -11.76,0 -21.57,2.3711 -29.51,7.2695 -8.03,4.9219 -15.54,12.0586 -22.69,21.5703 V 28.1406 C 3576.27,9.33984 3569.68,0 3556.58,0 c -7.65,0 -12.78,2.33984 -15.23,7.19141 -2.53,4.89839 -3.73,11.98049 -3.73,21.26949 V 212.828 c 0,8.102 1.65,14.262 5.08,18.223 3.42,3.988 8.09,6.097 13.88,6.097 5.87,0 10.57,-2.109 14.19,-6.257 3.65,-4.153 5.5,-10.11 5.5,-17.762"
         style="fill:#211d1d;fill-opacity:1;fill-rule:nonzero;stroke:none"
         transform="matrix(0.13333333,0,0,-0.13333333,0,1211.8933)" />
      <path
         id="path3"
         d="m 3836.85,87.4883 v 5.4336 c -4.98,-6.4805 -10.12,-11.9024 -15.53,-16.2305 -5.38,-4.4414 -11.31,-7.6406 -17.62,-9.8125 -6.48,-2.1406 -13.78,-3.1797 -21.93,-3.1797 -9.89,0 -18.74,2.1524 -26.6,6.3985 -7.91,4.2304 -13.93,10.1718 -18.25,17.6836 -5.12,9.0781 -7.65,22.0897 -7.65,39.0277 v 84.671 c 0,8.571 1.86,14.95 5.57,19.188 3.73,4.141 8.55,6.312 14.66,6.312 6.25,0 11.23,-2.171 15.01,-6.472 3.76,-4.227 5.67,-10.617 5.67,-19.028 v -68.378 c 0,-9.903 0.81,-18.231 2.36,-24.903 1.63,-6.781 4.46,-12.058 8.78,-15.859 3.99,-3.7814 9.67,-5.6291 16.72,-5.6291 7.01,0 13.53,2.1485 19.48,6.3981 6.18,4.231 10.64,9.789 13.46,16.641 2.31,6.09 3.41,19.328 3.41,39.852 v 51.878 c 0,8.411 1.94,14.801 5.72,19.028 3.71,4.301 8.71,6.472 14.82,6.472 6.08,0 10.98,-2.171 14.71,-6.312 3.63,-4.238 5.5,-10.617 5.5,-19.188 V 87.7813 c 0,-8.1719 -1.7,-14.2618 -5.36,-18.3008 -3.51,-4.0821 -8.04,-6.0703 -13.69,-6.0703 -5.57,0 -10.18,2.1601 -13.81,6.2578 -3.66,4.2929 -5.43,10.1523 -5.43,17.8203"
         style="fill:#211d1d;fill-opacity:1;fill-rule:nonzero;stroke:none"
         transform="matrix(0.13333333,0,0,-0.13333333,0,1211.8933)" />
      <path
         id="path4"
         d="m 3955.6,149.191 c 0,-17.031 3.61,-30.043 11.05,-39.171 7.52,-9.071 17.25,-13.7583 29.37,-13.7583 10.31,0 19.17,4.6873 26.61,14.0393 7.52,9.379 11.23,22.687 11.23,40.078 0,11.441 -1.57,21.109 -4.7,29.211 -3.1,8.172 -7.53,14.422 -13.15,18.82 -5.8,4.461 -12.42,6.699 -19.99,6.699 -7.89,0 -14.72,-2.238 -20.82,-6.699 -6.17,-4.398 -10.93,-10.789 -14.43,-19.269 -3.48,-8.332 -5.17,-18.289 -5.17,-29.95 z m -2.02,126.969 v -65.262 c 7.63,8.403 15.52,14.711 23.48,19.262 8.02,4.442 17.99,6.59 29.72,6.59 13.62,0 25.51,-3.41 35.77,-10.012 10.24,-6.847 18.2,-16.578 23.86,-29.308 5.67,-12.762 8.48,-27.95 8.48,-45.489 0,-12.941 -1.56,-24.832 -4.68,-35.601 -3.21,-10.781 -7.74,-20.1603 -13.75,-28.1212 -6.01,-7.8594 -13.31,-13.9493 -21.78,-18.4297 -8.62,-4.2188 -18.06,-6.3789 -28.35,-6.3789 -6.21,0 -12.18,0.7304 -17.75,2.3086 -5.57,1.5507 -10.35,3.5507 -14.21,6.2226 -3.85,2.3867 -7.2,5.1406 -9.97,7.8164 -2.73,2.7617 -6.28,6.7617 -10.82,12.1914 v -4.1679 c 0,-8.1016 -1.9,-14.1211 -5.58,-18.3008 -3.71,-4.0821 -8.41,-6.0703 -14.05,-6.0703 -5.88,0 -10.41,1.9882 -13.91,6.0703 -3.44,4.2695 -5.14,10.2773 -5.14,18.3008 V 274.309 c 0,8.632 1.64,15.082 4.97,19.55 3.43,4.45 8.04,6.7 14.08,6.7 6.23,0 11.14,-2.149 14.5,-6.418 3.42,-4.211 5.13,-10.18 5.13,-17.981"
         style="fill:#211d1d;fill-opacity:1;fill-rule:nonzero;stroke:none"
         transform="matrix(0.13333333,0,0,-0.13333333,0,1211.8933)" />
      <path
         id="path5"
         d="M 4103.73,89.3594 V 274.539 c 0,8.629 1.85,15.09 5.44,19.473 3.7,4.297 8.63,6.547 14.78,6.547 6.26,0 11.24,-2.149 15.03,-6.547 3.71,-4.242 5.74,-10.793 5.74,-19.473 V 89.3594 c 0,-8.7188 -2.03,-15.25 -5.83,-19.5703 -3.87,-4.2188 -8.83,-6.3789 -14.94,-6.3789 -5.95,0 -10.78,2.2187 -14.57,6.6875 -3.8,4.5117 -5.65,10.8437 -5.65,19.2617"
         style="fill:#211d1d;fill-opacity:1;fill-rule:nonzero;stroke:none"
         transform="matrix(0.13333333,0,0,-0.13333333,0,1211.8933)" />
      <path
         id="path6"
         d="M 4227.89,212.668 V 89.3594 c 0,-8.6406 -2.01,-15.0899 -5.81,-19.4805 -3.94,-4.25 -8.92,-6.4687 -14.87,-6.4687 -6.03,0 -10.84,2.2187 -14.64,6.6093 -3.72,4.5899 -5.65,10.9219 -5.65,19.3399 V 211.48 c 0,8.411 1.93,14.801 5.65,19.028 3.8,4.301 8.61,6.472 14.64,6.472 5.96,0 10.93,-2.171 14.87,-6.472 3.8,-4.227 5.81,-10.168 5.81,-17.84 z m -20.32,44.25 c -5.63,0 -10.46,1.762 -14.62,5.492 -3.94,3.649 -6.03,8.938 -6.03,15.551 0,6 2.09,11 6.26,14.937 4.07,3.93 8.9,5.793 14.39,5.793 5.31,0 10.06,-1.722 14.14,-5.281 4.1,-3.48 6.18,-8.769 6.18,-15.449 0,-6.613 -2.08,-11.762 -6.02,-15.41 -4.02,-3.711 -8.78,-5.633 -14.3,-5.633"
         style="fill:#211d1d;fill-opacity:1;fill-rule:nonzero;stroke:none"
         transform="matrix(0.13333333,0,0,-0.13333333,0,1211.8933)" />
      <path
         id="path7"
         d="m 4416.71,116.18 c 0,-5.262 -1.49,-10.93 -4.46,-16.93 -3.12,-6.1211 -7.8,-11.8516 -14.06,-17.332 -6.23,-5.4492 -14.11,-9.8867 -23.55,-13.168 -9.51,-3.4219 -20.2,-5.0508 -32.04,-5.0508 -25.35,0 -45.05,7.7188 -59.26,23.0391 -14.19,15.4027 -21.26,35.9807 -21.26,61.8517 0,17.469 3.2,33.101 9.68,46.469 6.46,13.382 15.97,23.871 28.16,31.222 12.27,7.348 26.98,11 44.07,11 10.65,0 20.39,-1.621 29.23,-4.742 8.83,-3.301 16.36,-7.508 22.44,-12.578 6.2,-5.133 10.86,-10.543 14.13,-16.34 3.28,-5.812 4.86,-11.16 4.86,-16.223 0,-5.07 -1.89,-9.339 -5.45,-12.937 -3.71,-3.563 -8.03,-5.332 -13.29,-5.332 -3.43,0 -6.26,1.019 -8.48,2.812 -2.22,1.797 -4.77,4.598 -7.6,8.758 -4.98,7.879 -10.18,13.91 -15.7,17.922 -5.39,3.938 -12.32,6.02 -20.63,6.02 -12.21,0 -21.96,-5.051 -29.3,-14.86 -7.43,-9.961 -11.09,-23.34 -11.09,-40.523 0,-7.957 1,-15.449 2.85,-22.149 1.91,-6.757 4.67,-12.418 8.24,-17.238 3.64,-4.742 7.88,-8.351 13.09,-10.7226 5.02,-2.5195 10.69,-3.789 16.7,-3.789 8.27,0 15.26,2.0195 21.14,5.9416 5.78,4.039 10.99,10.117 15.46,18.16 2.53,4.898 5.19,8.617 8.11,11.359 2.89,2.758 6.52,3.95 10.69,3.95 4.98,0 9.15,-1.879 12.41,-5.801 3.28,-4.098 4.91,-8.239 4.91,-12.789"
         style="fill:#211d1d;fill-opacity:1;fill-rule:nonzero;stroke:none"
         transform="matrix(0.13333333,0,0,-0.13333333,0,1211.8933)" />
      <path
         id="path8"
         d="m 4484.13,150.379 c 0,-11.508 1.8,-21.359 5.22,-29.52 3.42,-8.168 8.09,-14.199 14.05,-18.347 6.08,-4.1604 12.61,-6.2503 19.62,-6.2503 7.3,0 13.83,2 19.77,5.8793 5.95,3.929 10.65,9.949 14.27,18.05 3.52,8.028 5.28,18.149 5.28,30.188 0,11.441 -1.76,21.18 -5.28,29.441 -3.62,8.18 -8.39,14.41 -14.4,18.801 -6.05,4.32 -12.66,6.488 -19.86,6.488 -7.44,0 -14.14,-2.238 -20.08,-6.699 -5.87,-4.398 -10.46,-10.789 -13.68,-19.101 -3.26,-8.34 -4.91,-17.84 -4.91,-28.93 z m 80.45,-62.5977 v 4.1679 c -5.52,-6.6094 -10.93,-11.8906 -16.28,-15.9687 -5.27,-4.1602 -11.08,-7.3008 -17.41,-9.4688 -6.15,-2.0625 -13.01,-3.1015 -20.34,-3.1015 -9.85,0 -18.98,2.1601 -27.23,6.3789 -8.33,4.4804 -15.61,10.5703 -21.62,18.6015 -6.09,8.0078 -10.78,17.4684 -13.93,28.3084 -3.18,10.84 -4.72,22.52 -4.72,35.242 0,26.68 6.23,47.59 18.7,62.438 12.58,14.961 29.01,22.371 49.29,22.371 11.82,0 21.81,-2.148 29.91,-6.461 8.03,-4.078 15.96,-10.609 23.63,-19.391 v 63.043 c 0,8.758 1.7,15.399 5.04,19.86 3.37,4.508 8.05,6.758 14.28,6.758 6.18,0 10.92,-2.079 14.35,-6.2 3.35,-4.078 5.05,-10.16 5.05,-18.199 V 87.7813 c 0,-8.1719 -1.84,-14.2618 -5.43,-18.3008 -3.64,-4.0821 -8.23,-6.0703 -13.97,-6.0703 -5.5,0 -10.16,1.9882 -13.89,6.2578 -3.55,4.2109 -5.43,10.1523 -5.43,18.1133"
         style="fill:#211d1d;fill-opacity:1;fill-rule:nonzero;stroke:none"
         transform="matrix(0.13333333,0,0,-0.13333333,0,1211.8933)" />
      <path
         id="path9"
         d="m 4756.51,150.098 c 0,17.312 -3.7,30.922 -11.06,40.652 -7.35,9.66 -17.26,14.59 -29.58,14.59 -8.04,0 -15,-2.238 -21.2,-6.559 -6.01,-4.39 -10.75,-10.781 -14.04,-19.191 -3.36,-8.391 -4.97,-18.199 -4.97,-29.492 0,-11.157 1.61,-20.887 4.89,-29.227 3.28,-8.332 7.88,-14.73 13.99,-19.18 6.01,-4.3824 13.16,-6.6207 21.33,-6.6207 12.32,0 22.23,4.8399 29.58,14.5897 7.36,9.719 11.06,23.231 11.06,40.438 z m 41.06,0 c 0,-12.649 -1.94,-24.407 -5.73,-35.27 -3.8,-10.617 -9.29,-19.828 -16.42,-27.5585 -7.22,-7.8086 -15.84,-13.5195 -25.8,-17.789 -10.06,-4.0821 -21.34,-6.0703 -33.75,-6.0703 -12.42,0 -23.48,1.9882 -33.48,6.1718 -9.87,4.168 -18.43,10.1758 -25.71,17.9063 -7.21,7.793 -12.72,16.9297 -16.48,27.5117 -3.73,10.609 -5.59,22.281 -5.59,35.148 0,12.942 1.93,24.782 5.65,35.461 3.86,10.789 9.28,19.95 16.35,27.59 7.15,7.582 15.69,13.461 25.78,17.539 10.12,4.16 21.27,6.242 33.48,6.242 12.41,0 23.62,-2.082 33.75,-6.312 10.02,-4.078 18.67,-10.098 25.86,-17.84 7.22,-7.719 12.71,-16.879 16.42,-27.578 3.8,-10.551 5.67,-22.379 5.67,-35.152"
         style="fill:#211d1d;fill-opacity:1;fill-rule:nonzero;stroke:none"
         transform="matrix(0.13333333,0,0,-0.13333333,0,1211.8933)" />
      <path
         id="path10"
         d="m 4970.42,185.398 c -3.05,-7.277 -4.53,-20 -4.53,-38.367 V 90.3203 c 0,-8.9297 -1.95,-15.7109 -5.88,-20.2226 -3.89,-4.4688 -9.08,-6.6875 -15.46,-6.6875 -6.18,0 -11.16,2.2187 -14.96,6.6875 -3.86,4.5117 -5.79,11.2929 -5.79,20.2226 v 68.0977 c 0,10.711 -0.38,19.004 -1.1,25.051 -0.7,5.871 -2.63,10.761 -5.68,14.633 -3.05,3.796 -8.02,5.738 -14.64,5.738 -13.36,0 -22.16,-4.77 -26.46,-14.5 -4.24,-9.52 -6.32,-23.34 -6.32,-41.262 V 90.3203 c 0,-8.9297 -1.93,-15.7109 -5.78,-20.082 -3.86,-4.6094 -8.93,-6.8281 -15.19,-6.8281 -6.26,0 -11.35,2.2187 -15.24,6.8281 -4.01,4.3711 -5.88,11.1523 -5.88,19.9922 V 212.531 c 0,8.039 1.72,14.129 5.21,18.289 3.64,4.168 8.25,6.328 14.07,6.328 5.57,0 10.25,-2.007 14.05,-5.878 3.7,-3.95 5.57,-9.309 5.57,-16.219 v -4.102 c 7.08,8.942 14.7,15.41 22.74,19.559 8.1,4.183 17.16,6.242 26.98,6.242 10.33,0 19.11,-2.148 26.56,-6.461 7.43,-4.148 13.43,-10.687 18.2,-19.34 6.93,8.731 14.35,15.332 22.24,19.512 7.93,4.23 16.64,6.289 26.18,6.289 11.29,0 20.89,-2.148 28.96,-6.852 8.13,-4.578 14.14,-11.117 18.16,-19.738 3.49,-7.738 5.27,-19.879 5.27,-36.422 V 90.3203 c 0,-8.9297 -1.99,-15.7109 -5.79,-20.2226 -4.03,-4.4688 -9.08,-6.6875 -15.53,-6.6875 -6.19,0 -11.26,2.2187 -15.18,6.8281 -4,4.3711 -6.02,11.1523 -6.02,20.082 v 71.8207 c 0,9.207 -0.31,16.55 -1.05,22.07 -0.8,5.57 -2.81,10.18 -6.09,13.98 -3.25,3.707 -8.31,5.649 -15.01,5.649 -5.36,0 -10.5,-1.699 -15.25,-4.981 -4.98,-3.429 -8.71,-7.82 -11.36,-13.461 v 0"
         style="fill:#211d1d;fill-opacity:1;fill-rule:nonzero;stroke:none"
         transform="matrix(0.13333333,0,0,-0.13333333,0,1211.8933)" />
      <path
         id="path11"
         d="m 5202.21,149.258 c -6.1,-2.297 -14.78,-4.758 -26.23,-7.297 -11.45,-2.582 -19.43,-4.441 -23.79,-5.641 -4.38,-1.25 -8.55,-3.57 -12.57,-6.968 -4.01,-3.571 -6.04,-8.481 -6.04,-14.731 0,-6.543 2.41,-12.062 7.08,-16.5702 4.68,-4.5313 10.86,-6.8516 18.42,-6.8516 8.12,0 15.63,1.9297 22.47,5.6602 6.85,3.6406 11.92,8.4806 15.01,14.3396 3.73,6.399 5.65,17.02 5.65,31.961 z m 2.61,-61.8596 c -9.89,-8.0273 -19.49,-14.0468 -28.7,-17.9882 -9.24,-4.0821 -19.64,-6 -31.07,-6 -10.57,0 -19.71,2.1601 -27.67,6.3789 -8.01,4.3203 -14.12,10.2695 -18.43,17.6992 -4.23,7.3633 -6.47,15.3907 -6.47,24.1017 0,11.648 3.65,21.531 10.71,29.871 7.08,8.199 16.79,13.68 29.14,16.578 2.67,0.602 9.15,1.93 19.41,4.102 10.33,2.289 19.12,4.3 26.53,6.07 7.29,1.801 15.32,4.019 23.94,6.609 -0.59,11.328 -2.74,19.571 -6.54,24.938 -3.85,5.183 -11.88,7.781 -23.92,7.781 -10.43,0 -18.22,-1.469 -23.58,-4.531 -5.22,-2.977 -9.66,-7.578 -13.45,-13.668 -3.73,-6.039 -6.33,-9.969 -7.89,-11.918 -1.63,-1.981 -4.91,-2.813 -9.96,-2.813 -4.68,0 -8.62,1.481 -11.9,4.532 -3.41,3.07 -5.13,7.007 -5.13,11.898 0,7.5 2.6,14.801 7.73,21.789 5.07,7.133 13.03,12.942 23.81,17.633 10.75,4.578 24.23,6.82 40.37,6.82 17.99,0 32.11,-2.242 42.42,-6.613 10.29,-4.387 17.48,-11.367 21.72,-21.027 4.31,-9.61 6.45,-22.313 6.45,-38.153 0,-10.019 0,-18.578 -0.06,-25.558 -0.13,-6.989 -0.13,-14.789 -0.29,-23.352 0,-7.957 1.36,-16.437 3.87,-25.0467 2.47,-8.711 3.78,-14.3399 3.78,-16.8125 0,-4.3907 -1.98,-8.3907 -5.95,-11.9688 -3.86,-3.5586 -8.32,-5.3398 -13.37,-5.3398 -4.16,0 -8.24,1.9882 -12.49,6.0703 -4.01,4.1797 -8.42,10.1289 -13.01,17.9179"
         style="fill:#211d1d;fill-opacity:1;fill-rule:nonzero;stroke:none"
         transform="matrix(0.13333333,0,0,-0.13333333,0,1211.8933)" />
      <path
         id="path12"
         d="M 5324.87,212.668 V 89.3594 c 0,-8.6406 -2,-15.0899 -5.86,-19.4805 -3.86,-4.25 -8.86,-6.4687 -14.79,-6.4687 -6.03,0 -10.94,2.2187 -14.66,6.6093 -3.8,4.5899 -5.62,10.9219 -5.62,19.3399 V 211.48 c 0,8.411 1.83,14.801 5.62,19.028 3.72,4.301 8.63,6.472 14.66,6.472 5.93,0 10.93,-2.171 14.79,-6.472 3.86,-4.227 5.86,-10.168 5.86,-17.84 z m -20.3,44.25 c -5.63,0 -10.46,1.762 -14.56,5.492 -4.01,3.649 -6.07,8.938 -6.07,15.551 0,6 2.06,11 6.3,14.937 4.09,3.93 8.92,5.793 14.33,5.793 5.29,0 10.06,-1.722 14.12,-5.281 4.1,-3.48 6.18,-8.769 6.18,-15.449 0,-6.613 -2,-11.762 -6.02,-15.41 -4.02,-3.711 -8.76,-5.633 -14.28,-5.633"
         style="fill:#211d1d;fill-opacity:1;fill-rule:nonzero;stroke:none"
         transform="matrix(0.13333333,0,0,-0.13333333,0,1211.8933)" />
      <path
         id="path13"
         d="m 5404.36,213.352 v -5.133 c 7.13,9.883 15,17.172 23.54,21.793 8.57,4.59 18.29,6.968 29.53,6.968 10.7,0 20.35,-2.378 28.93,-7.421 8.4,-4.829 14.86,-11.75 19.02,-20.668 2.69,-5.27 4.4,-10.93 5.2,-16.942 0.73,-6.031 1.27,-13.781 1.27,-23.129 V 89.3594 c 0,-8.6406 -2.02,-15.0899 -5.67,-19.4805 -3.77,-4.25 -8.68,-6.4687 -14.63,-6.4687 -6.03,0 -10.98,2.2187 -14.71,6.6875 -3.8,4.5117 -5.8,10.8437 -5.8,19.2617 v 71.0386 c 0,14.211 -1.8,25 -5.49,32.43 -3.87,7.434 -11.4,11.141 -22.63,11.141 -7.21,0 -13.82,-2.231 -19.83,-6.821 -6.03,-4.457 -10.42,-10.73 -13.18,-18.668 -2.01,-6.32 -3.03,-18.21 -3.03,-35.75 V 89.3594 c 0,-8.7188 -1.93,-15.25 -5.81,-19.5703 -3.86,-4.2188 -8.84,-6.3789 -14.86,-6.3789 -5.86,0 -10.79,2.2187 -14.57,6.6093 -3.88,4.5899 -5.71,10.9219 -5.71,19.3399 l -0.02,123.3086 c 0,8.262 1.72,14.203 5.13,18.293 3.36,4.027 8.11,6.019 13.99,6.019 3.55,0 6.84,-0.96 9.66,-2.671 2.97,-1.7 5.21,-4.457 7,-7.95 1.7,-3.57 2.67,-7.879 2.67,-13.007"
         style="fill:#211d1d;fill-opacity:1;fill-rule:nonzero;stroke:none"
         transform="matrix(0.13333333,0,0,-0.13333333,0,1211.8933)" />
      <path
         id="path14"
         d="m 5577.48,210.371 33.1,-96.953 35.67,101.184 c 2.83,8.187 5.59,13.839 8.26,17.328 2.76,3.34 6.83,5.05 12.26,5.05 5.21,0 9.68,-1.839 13.4,-5.5 3.56,-3.621 5.43,-7.8 5.43,-12.699 0,-1.871 -0.39,-4.011 -1.06,-6.48 -0.59,-2.531 -1.33,-4.903 -2.23,-7.141 -0.82,-2.152 -1.71,-4.68 -2.9,-7.422 L 5640.18,96.0391 c -1.14,-2.9102 -2.62,-6.6797 -4.34,-11.1485 -1.77,-4.4804 -3.69,-8.1992 -5.79,-11.539 -2.22,-3.1133 -4.84,-5.5703 -7.95,-7.3438 -3.19,-1.789 -7.06,-2.5976 -11.52,-2.5976 -5.8,0 -10.41,1.3281 -13.93,4.0898 -3.46,2.7383 -6.02,5.7109 -7.63,9.0391 -1.63,3.2812 -4.37,9.75 -8.34,19.5 l -38.95,100.5699 c -0.97,2.461 -1.84,5 -2.9,7.532 -0.87,2.429 -1.55,4.961 -2.31,7.668 -0.59,2.57 -0.94,4.8 -0.94,6.671 0,2.961 0.8,5.872 2.52,8.7 1.69,2.91 4.16,5.261 7.06,7.058 3.04,1.782 6.24,2.742 9.8,2.742 6.77,0 11.4,-1.992 13.97,-6.16 2.54,-4.011 5.44,-10.859 8.55,-20.449"
         style="fill:#211d1d;fill-opacity:1;fill-rule:nonzero;stroke:none"
         transform="matrix(0.13333333,0,0,-0.13333333,0,1211.8933)" />
      <path
         id="path15"
         d="m 5744.9,163.98 h 74.2 c -0.95,14.571 -4.76,25.5 -11.38,32.719 -6.54,7.192 -15.17,10.84 -25.78,10.84 -10.21,0 -18.6,-3.648 -25.13,-11 -6.55,-7.269 -10.47,-18.199 -11.91,-32.559 z m 80.08,-24.222 h -80.08 c 0,-9.817 1.95,-18.297 5.5,-25.809 3.81,-7.289 8.62,-12.879 14.65,-16.6404 6.01,-3.7891 12.71,-5.6602 20.01,-5.6602 4.91,0 9.35,0.6016 13.44,1.7813 4.03,1.2695 7.97,3.1094 11.84,5.6484 3.71,2.5309 7.13,5.2029 10.39,8.2619 3.14,2.91 7.43,6.781 12.42,11.808 2.15,1.93 5.14,2.832 9,2.832 4.25,0 7.64,-1.109 10.19,-3.562 2.67,-2.387 3.94,-5.797 3.94,-10.098 0,-3.902 -1.49,-8.4098 -4.39,-13.6208 -2.9,-5.1289 -7.21,-10.1094 -13.09,-14.8789 -5.86,-4.7617 -13.23,-8.6211 -22.06,-11.8203 -8.78,-3.1211 -18.91,-4.5898 -30.48,-4.5898 -26.34,0 -46.79,7.789 -61.26,23.3281 -14.59,15.7737 -21.87,36.9417 -21.87,63.6407 0,12.781 1.78,24.441 5.37,35.18 3.64,10.839 8.82,20.132 15.75,27.793 6.82,7.718 15.31,13.738 25.42,17.769 10.18,4.149 21.33,6.16 33.67,6.16 15.86,0 29.6,-3.48 41.05,-10.543 11.43,-7.058 20.06,-16.058 25.72,-27.207 5.72,-11.23 8.55,-22.543 8.55,-34.203 0,-10.719 -2.9,-17.699 -8.78,-20.828 -6.01,-3.199 -14.19,-4.742 -24.9,-4.742"
         style="fill:#211d1d;fill-opacity:1;fill-rule:nonzero;stroke:none"
         transform="matrix(0.13333333,0,0,-0.13333333,0,1211.8933)" />
      <path
         id="path16"
         d="m 6039.97,116.18 c 0,-5.262 -1.55,-10.93 -4.62,-16.93 -3.11,-6.1211 -7.64,-11.8516 -13.97,-17.332 -6.17,-5.4492 -14.1,-9.8867 -23.64,-13.168 -9.44,-3.4219 -20.23,-5.0508 -32.04,-5.0508 -25.35,0 -45.04,7.7188 -59.18,23.0391 -14.17,15.4027 -21.31,35.9807 -21.31,61.8517 0,17.469 3.2,33.101 9.72,46.48 6.54,13.371 15.84,23.86 28.17,31.211 12.27,7.348 27,11 44.08,11 10.64,0 20.31,-1.613 29.22,-4.742 8.79,-3.301 16.31,-7.508 22.45,-12.578 6.18,-5.133 10.88,-10.543 14.12,-16.34 3.21,-5.812 4.85,-11.16 4.85,-16.223 0,-5.07 -1.78,-9.339 -5.58,-12.937 -3.57,-3.563 -7.94,-5.332 -13.16,-5.332 -3.43,0 -6.25,1.019 -8.4,2.812 -2.31,1.797 -4.82,4.598 -7.65,8.758 -4.98,7.879 -10.2,13.91 -15.61,17.922 -5.52,3.938 -12.43,6.02 -20.82,6.02 -12.04,0 -21.85,-5.051 -29.22,-14.86 -7.42,-9.961 -11.08,-23.34 -11.08,-40.523 0,-7.957 0.98,-15.449 2.82,-22.149 1.93,-6.757 4.7,-12.418 8.26,-17.238 3.64,-4.742 7.96,-8.351 13.1,-10.7226 4.96,-2.5195 10.62,-3.789 16.7,-3.789 8.18,0 15.33,2.0195 21.12,5.9416 5.79,4.039 11.01,10.117 15.54,18.16 2.45,4.898 5.21,8.617 8.11,11.359 2.82,2.758 6.38,3.95 10.63,3.95 4.91,0 9.13,-1.879 12.32,-5.801 3.37,-4.098 5.07,-8.239 5.07,-12.789"
         style="fill:#211d1d;fill-opacity:1;fill-rule:nonzero;stroke:none"
         transform="matrix(0.13333333,0,0,-0.13333333,0,1211.8933)" />
      <path
         id="path17"
         d="m 6077.96,233.34 h 4.54 v 25.738 c 0,6.754 0.14,12.27 0.52,16.192 0.37,3.871 1.27,7.218 2.9,10.05 1.55,2.891 3.93,5.282 6.91,7.11 2.96,1.8 6.31,2.679 10.03,2.679 5.14,0 9.88,-2.058 14.05,-6.007 2.75,-2.821 4.54,-6.102 5.27,-9.961 0.85,-3.871 1.13,-9.512 1.13,-16.731 v -29.07 h 15.09 c 5.79,0 10.19,-1.41 13.24,-4.32 3.12,-2.809 4.6,-6.461 4.6,-10.918 0,-5.801 -2.17,-9.883 -6.6,-12.094 -4.25,-2.246 -10.49,-3.449 -18.6,-3.449 h -7.73 v -78.641 c 0,-6.699 0.22,-11.828 0.74,-15.457 0.46,-3.66 1.72,-6.551 3.66,-8.6915 1.93,-2.3203 5.04,-3.5078 9.53,-3.5078 2.36,0 5.55,0.4492 9.72,1.4063 4.02,0.8125 7.21,1.2617 9.57,1.2617 3.3,0 6.32,-1.3984 8.92,-4.0781 2.61,-2.75 3.94,-6.1797 3.94,-10.2618 0,-6.8515 -3.48,-12.1289 -10.69,-15.7695 -7.38,-3.6289 -17.62,-5.4101 -31.07,-5.4101 -12.79,0 -22.52,2.2187 -29.13,6.6875 -6.57,4.5117 -10.93,10.6211 -12.95,18.6523 -2.08,7.9609 -3.05,18.52 -3.05,31.73 v 82.079 h -5.51 c -5.8,0 -10.28,1.41 -13.38,4.39 -3.12,2.922 -4.69,6.61 -4.69,11.153 0,4.457 1.65,8.109 4.85,10.918 3.26,2.91 8.03,4.32 14.19,4.32"
         style="fill:#211d1d;fill-opacity:1;fill-rule:nonzero;stroke:none"
         transform="matrix(0.13333333,0,0,-0.13333333,0,1211.8933)" />
      <path
         id="path18"
         d="m 6296.46,150.098 c 0,17.312 -3.74,30.922 -11.01,40.652 -7.43,9.66 -17.24,14.59 -29.67,14.59 -7.94,0 -15,-2.238 -21.11,-6.559 -6.09,-4.39 -10.76,-10.781 -14.03,-19.191 -3.38,-8.391 -5,-18.199 -5,-29.492 0,-11.157 1.62,-20.887 4.9,-29.227 3.28,-8.332 7.88,-14.73 13.9,-19.18 6.02,-4.3824 13.1,-6.6207 21.34,-6.6207 12.43,0 22.24,4.8399 29.67,14.5897 7.27,9.719 11.01,23.231 11.01,40.438 z m 41.1,0 c 0,-12.649 -1.93,-24.407 -5.79,-35.27 -3.71,-10.617 -9.3,-19.828 -16.45,-27.5585 -7.19,-7.8086 -15.82,-13.5195 -25.79,-17.789 -9.95,-4.0821 -21.12,-6.0703 -33.75,-6.0703 -12.4,0 -23.56,1.9882 -33.44,6.1718 -9.83,4.168 -18.43,10.1758 -25.67,17.9063 -7.18,7.793 -12.71,16.9297 -16.4,27.5117 -3.81,10.609 -5.66,22.281 -5.66,35.148 0,12.942 1.85,24.782 5.66,35.461 3.86,10.789 9.23,19.95 16.32,27.59 7.16,7.582 15.7,13.461 25.75,17.539 10.25,4.16 21.34,6.242 33.44,6.242 12.43,0 23.65,-2.082 33.75,-6.312 10.13,-4.078 18.73,-10.098 25.95,-17.84 7.15,-7.719 12.7,-16.879 16.43,-27.578 3.72,-10.551 5.65,-22.379 5.65,-35.152"
         style="fill:#211d1d;fill-opacity:1;fill-rule:nonzero;stroke:none"
         transform="matrix(0.13333333,0,0,-0.13333333,0,1211.8933)" />
      <path
         id="path19"
         d="M 6410.41,124.871 V 89.3594 c 0,-8.7188 -1.93,-15.25 -5.79,-19.5703 -3.96,-4.2188 -8.92,-6.3789 -14.87,-6.3789 -5.87,0 -10.79,2.2187 -14.56,6.4687 -3.78,4.3906 -5.67,10.8399 -5.67,19.4805 V 208.219 c 0,19.191 6.61,28.761 19.94,28.761 6.68,0 11.66,-2.289 14.72,-6.691 2.97,-4.519 4.52,-11.141 4.9,-19.918 4.89,8.777 9.96,15.399 15.09,19.918 5.12,4.402 11.95,6.691 20.52,6.691 8.69,0 16.94,-2.289 25.13,-6.691 8.04,-4.519 12.19,-10.48 12.19,-17.891 0,-5.23 -1.86,-9.527 -5.28,-12.867 -3.36,-3.371 -7.13,-5.14 -11.13,-5.14 -1.53,0 -5.17,1.039 -10.95,2.968 -5.71,1.942 -10.77,2.903 -15.25,2.903 -5.93,0 -10.86,-1.641 -14.57,-4.981 -3.79,-3.332 -6.75,-8.09 -8.84,-14.582 -2.16,-6.519 -3.65,-14.199 -4.38,-23.179 -0.75,-8.84 -1.2,-19.7 -1.2,-32.649"
         style="fill:#211d1d;fill-opacity:1;fill-rule:nonzero;stroke:none"
         transform="matrix(0.13333333,0,0,-0.13333333,0,1211.8933)" />
      <path
         id="path20"
         d="m 6628.38,119.148 c 0,-11.808 -2.67,-21.8394 -8.24,-30.3277 -5.57,-8.4101 -13.69,-14.7109 -24.39,-19.0312 -10.79,-4.2188 -23.79,-6.3789 -39.26,-6.3789 -14.61,0 -27.26,2.3086 -37.84,6.9687 -10.49,4.6797 -18.22,10.5625 -23.18,17.5625 -4.98,7.0586 -7.58,14.0466 -7.58,21.1796 0,4.68 1.63,8.688 4.89,11.957 3.21,3.434 7.24,5.063 12.13,5.063 4.32,0 7.56,-1.11 9.89,-3.262 2.37,-2.238 4.46,-5.348 6.62,-9.207 4.21,-7.664 9.21,-13.391 15.09,-17.1329 5.79,-3.7891 13.82,-5.6407 23.91,-5.6407 8.2,0 14.88,1.9532 20.16,5.7305 5.21,3.7811 7.97,8.1721 7.97,13.0311 0,7.559 -2.84,13.059 -8.19,16.41 -5.51,3.571 -14.4,6.821 -27,9.891 -14.02,3.73 -25.56,7.578 -34.4,11.519 -8.87,4.11 -15.99,9.379 -21.27,15.918 -5.27,6.532 -7.95,14.661 -7.95,24.223 0,8.641 2.47,16.738 7.36,24.238 4.9,7.653 12.2,13.75 21.7,18.301 9.53,4.531 21.04,6.82 34.57,6.82 10.65,0 20.15,-1.179 28.62,-3.429 8.41,-2.281 15.56,-5.41 21.13,-9.199 5.64,-3.942 9.97,-8.192 12.85,-12.872 3.04,-4.742 4.47,-9.289 4.47,-13.742 0,-4.91 -1.57,-8.847 -4.76,-12.129 -3.12,-2.968 -7.65,-4.589 -13.39,-4.589 -4.22,0 -7.72,1.191 -10.79,3.781 -2.9,2.457 -6.3,6.238 -10.1,11.148 -3.04,4.18 -6.7,7.492 -10.91,10.059 -4.27,2.433 -9.89,3.762 -17.12,3.762 -7.35,0 -13.59,-1.641 -18.43,-4.969 -4.91,-3.289 -7.37,-7.371 -7.37,-12.27 0,-4.531 1.8,-8.172 5.34,-11.062 3.65,-2.848 8.5,-5.207 14.59,-7.141 6.18,-1.867 14.57,-4.18 25.21,-6.918 12.7,-3.191 23.12,-7.012 31.15,-11.519 8.02,-4.481 14.13,-9.75 18.26,-15.911 4.26,-6.101 6.26,-13.019 6.26,-20.832"
         style="fill:#211d1d;fill-opacity:1;fill-rule:nonzero;stroke:none"
         transform="matrix(0.13333333,0,0,-0.13333333,0,1211.8933)" />
      <path
         id="path21"
         d="m 6674.91,63.4102 c -6.23,0 -11.59,1.9882 -16.03,6.1718 -4.55,4.168 -6.78,10.0274 -6.78,17.5391 0,6.3203 2.08,11.8086 6.39,16.3399 4.23,4.617 9.62,6.84 15.9,6.84 6.25,0 11.68,-2.223 15.99,-6.762 4.53,-4.4609 6.79,-10.0195 6.79,-16.4179 0,-7.4414 -2.26,-13.2422 -6.79,-17.4531 -4.31,-4.2696 -9.5,-6.2578 -15.47,-6.2578"
         style="fill:#211d1d;fill-opacity:1;fill-rule:nonzero;stroke:none"
         transform="matrix(0.13333333,0,0,-0.13333333,0,1211.8933)" />
      <path
         id="path22"
         d="m 6855.86,150.098 c 0,17.312 -3.7,30.922 -11.07,40.652 -7.36,9.66 -17.18,14.59 -29.58,14.59 -7.95,0 -14.95,-2.238 -21.04,-6.559 -6.18,-4.39 -10.85,-10.781 -14.13,-19.191 -3.26,-8.391 -4.91,-18.199 -4.91,-29.492 0,-11.157 1.58,-20.887 4.83,-29.227 3.28,-8.332 7.89,-14.73 13.98,-19.18 6.02,-4.3824 13.17,-6.6207 21.27,-6.6207 12.4,0 22.22,4.8399 29.58,14.5897 7.37,9.719 11.07,23.231 11.07,40.438 z m 41.12,0 c 0,-12.649 -1.85,-24.407 -5.8,-35.27 -3.78,-10.617 -9.21,-19.828 -16.42,-27.5585 -7.23,-7.8086 -15.69,-13.5195 -25.8,-17.789 -9.96,-4.0821 -21.19,-6.0703 -33.75,-6.0703 -12.35,0 -23.49,1.9882 -33.38,6.1718 -9.9,4.168 -18.43,10.1758 -25.66,17.9063 -7.34,7.793 -12.77,16.9297 -16.57,27.5117 -3.69,10.609 -5.58,22.281 -5.58,35.148 0,12.942 1.89,24.782 5.65,35.461 3.96,10.789 9.23,19.95 16.37,27.59 7.07,7.582 15.67,13.461 25.79,17.539 10.1,4.16 21.18,6.242 33.38,6.242 12.4,0 23.64,-2.082 33.75,-6.312 10.11,-4.078 18.75,-10.098 25.95,-17.84 7.19,-7.719 12.62,-16.879 16.49,-27.578 3.73,-10.551 5.58,-22.379 5.58,-35.152"
         style="fill:#211d1d;fill-opacity:1;fill-rule:nonzero;stroke:none"
         transform="matrix(0.13333333,0,0,-0.13333333,0,1211.8933)" />
      <path
         id="path23"
         d="M 6969.84,124.871 V 89.3594 c 0,-8.7188 -1.93,-15.25 -5.81,-19.5703 -3.86,-4.2188 -8.82,-6.3789 -14.79,-6.3789 -6.03,0 -10.77,2.2187 -14.64,6.4687 -3.8,4.3906 -5.63,10.8399 -5.63,19.4805 V 208.219 c 0,19.191 6.68,28.761 19.91,28.761 6.84,0 11.68,-2.289 14.66,-6.691 2.95,-4.519 4.74,-11.141 5.04,-19.918 4.83,8.777 9.81,15.399 14.94,19.918 5.21,4.402 12.12,6.691 20.58,6.691 8.78,0 17.11,-2.289 25.14,-6.691 8.03,-4.519 12.19,-10.48 12.19,-17.891 0,-5.23 -1.78,-9.527 -5.2,-12.867 -3.5,-3.371 -7.14,-5.14 -11.22,-5.14 -1.48,0 -5.07,1.039 -10.8,2.968 -5.79,1.942 -10.84,2.903 -15.3,2.903 -5.93,0 -10.84,-1.641 -14.71,-4.981 -3.73,-3.332 -6.71,-8.09 -8.78,-14.582 -2.09,-6.519 -3.57,-14.199 -4.39,-23.179 -0.76,-8.84 -1.19,-19.7 -1.19,-32.649"
         style="fill:#211d1d;fill-opacity:1;fill-rule:nonzero;stroke:none"
         transform="matrix(0.13333333,0,0,-0.13333333,0,1211.8933)" />
      <path
         id="path24"
         d="m 7088.05,151.59 c 0,-17.332 3.56,-30.43 10.84,-39.352 7.21,-8.777 16.66,-13.3083 28.04,-13.3083 6.75,0 13.29,2.0193 19.31,5.8003 6.03,3.86 11.01,9.52 14.79,17.2 3.81,7.711 5.66,17.011 5.66,27.941 0,17.399 -3.73,30.918 -11.01,40.668 -7.34,9.723 -17.02,14.57 -28.97,14.57 -11.68,0 -21.05,-4.699 -28.04,-13.91 -7.13,-9.371 -10.62,-22.539 -10.62,-39.609 z m 118.56,54.101 V 81.6094 c 0,-14.1875 -1.54,-26.461 -4.37,-36.5586 -2.9,-10.3399 -7.6,-18.7422 -13.91,-25.4492 -6.4,-6.5938 -14.89,-11.59379 -25.14,-14.87113 C 7152.87,1.62891 7140.01,0 7124.62,0 c -14.14,0 -26.76,1.98828 -37.77,6.07031 -11.16,4.24999 -19.7,9.44919 -25.64,16.07809 -6,6.4414 -9.07,13.1524 -9.07,20.0508 0,5.3125 1.7,9.5313 5.13,12.8125 3.41,3.2578 7.5,4.9766 12.27,4.9766 6.02,0 11.21,-2.8281 15.76,-8.3281 2.23,-2.9102 4.51,-5.7305 6.84,-8.5508 2.28,-2.9102 4.9,-5.3594 7.8,-7.3711 2.81,-2.0781 6.33,-3.5469 10.32,-4.5977 3.87,-0.9609 8.57,-1.4804 13.76,-1.4804 10.56,0 18.89,1.6211 24.68,4.6796 5.8,3.0508 9.88,7.3516 12.28,12.7813 2.3,5.5703 3.78,11.4492 4.01,17.7578 0.51,6.4024 0.73,16.5195 1.04,30.4805 -6.33,-9.0703 -13.68,-16.1289 -21.86,-20.8789 -8.17,-4.8125 -18.07,-7.1524 -29.36,-7.1524 -13.84,0 -25.8,3.5899 -35.99,10.9532 -10.26,7.2773 -18.14,17.4492 -23.61,30.7067 -5.45,12.992 -8.27,28.231 -8.27,45.481 0,12.859 1.61,24.461 5.03,34.801 3.28,10.261 8.05,18.949 14.38,26.082 6.07,7.058 13.31,12.398 21.39,16.058 8.1,3.578 16.88,5.34 26.68,5.34 11.54,0 21.64,-2.281 30.12,-6.969 8.55,-4.621 16.36,-11.972 23.63,-21.84 v 5.789 c 0,7.43 1.86,13.079 5.27,17.321 3.51,3.988 8.04,6.097 13.47,6.097 7.96,0 13.25,-2.679 15.84,-8.128 2.53,-5.34 3.86,-13.141 3.86,-23.329"
         style="fill:#211d1d;fill-opacity:1;fill-rule:nonzero;stroke:none"
         transform="matrix(0.13333333,0,0,-0.13333333,0,1211.8933)" />
      <path
         id="path25"
         d="m 5432.9,621.648 h 60.74 c -4.31,-32.8 -17.68,-58.308 -40.08,-76.66 -20.66,-18.07 -45.66,-26.886 -74.86,-26.886 -39.62,0 -71.21,13.859 -94.86,41.668 -22.38,26.468 -33.58,60.601 -33.58,102.289 0,42.691 11.13,76.882 33.29,102.761 22.08,25.719 53.45,38.66 93.82,38.66 30.08,0 55.53,-8.109 76.19,-24.23 21.95,-17.492 35.32,-42.02 40.08,-73.391 h -60.74 c -5.19,27.371 -22.02,41.051 -50.47,41.051 -46.91,0 -70.41,-27.82 -70.41,-83.41 0,-26.109 6.01,-47.379 18.14,-63.949 12.06,-16.641 29.07,-24.981 51.01,-24.981 32.71,0 49.93,15.692 51.73,47.078 z m -239,38.262 c 0,-54.34 17.23,-100.359 51.66,-137.742 34.39,-37.539 76.57,-56.27 126.62,-56.27 49.79,0 92.01,18.731 126.44,56.27 34.41,37.383 51.59,83.402 51.59,137.742 0,54.281 -17.18,100.219 -51.59,137.688 -34.42,37.562 -76.65,56.281 -126.44,56.281 -50.05,0 -92.23,-18.719 -126.62,-56.281 -34.43,-37.469 -51.66,-83.407 -51.66,-137.688 z m -61.64,0 c 0,69.149 23.41,128.098 70.25,177.18 46.85,48.898 103.41,73.351 169.67,73.351 66.15,0 122.58,-24.453 169.55,-73.351 46.84,-49.082 70.33,-108.031 70.33,-177.18 0,-69.121 -23.49,-128.211 -70.33,-177.219 -46.97,-48.921 -103.4,-73.461 -169.55,-73.461 -66.24,0 -122.82,24.54 -169.65,73.461 -46.86,49.008 -70.27,108.098 -70.27,177.219"
         style="fill:#211d1d;fill-opacity:1;fill-rule:nonzero;stroke:none"
         transform="matrix(0.13333333,0,0,-0.13333333,0,1211.8933)" />
      <path
         id="path26"
         d="m 5229.36,502.77 34.93,-29.68 257.3,330.39 -34.94,29.661 -257.29,-330.371"
         style="fill:#211d1d;fill-opacity:1;fill-rule:nonzero;stroke:none"
         transform="matrix(0.13333333,0,0,-0.13333333,0,1211.8933)" />
      <path
         id="path27"
         d="m 1517.48,6838.16 c 1.93,-11.5 -0.7,-23.04 -7.47,-32.54 -6.73,-9.49 -16.78,-15.8 -28.28,-17.73 -11.47,-1.95 -23.01,0.72 -32.52,7.45 -9.49,6.77 -15.81,16.83 -17.74,28.28 -1.95,11.51 0.71,23.06 7.48,32.57 8.49,11.92 21.93,18.31 35.59,18.31 8.76,0 17.57,-2.64 25.24,-8.06 9.48,-6.76 15.78,-16.79 17.7,-28.28 m 446.1,-355.12 51.63,-34.25 -1.49,-2.09 c -2.37,-3.35 -5.07,-7.06 -7.83,-10.74 l -49.67,36.96 c 2.49,3.37 4.91,6.73 7.36,10.12 m -67.36,-161.36 -38.95,48.16 c 3.24,2.59 6.47,5.26 9.67,7.93 l 39.95,-47.28 c -3.52,-2.97 -7.06,-5.9 -10.67,-8.81 m -134.77,-83.27 -25.67,56.34 c 3.78,1.74 7.56,3.49 11.32,5.32 l 26.85,-55.82 c -4.16,-1.99 -8.32,-3.95 -12.5,-5.84 m -65.34,483.58 c -46.97,14.32 -95.64,23.89 -140.29,44.63 -6.03,2.74 -11.96,5.67 -17.94,8.54 2.07,-2.95 4.32,-5.74 6.35,-8.71 l -3.12,-3.32 c -12.54,7.58 -24.79,15.47 -36.74,23.68 -6.26,-4.26 -13.33,-7.25 -20.98,-8.54 -3.04,-0.54 -6.03,-0.79 -9.01,-0.79 -11.01,0 -21.7,3.41 -30.86,9.89 -3.87,2.79 -7.1,6.11 -10.05,9.68 -13.13,-7.9 -26.29,-15.74 -39.47,-23.57 -52.1,-30.51 -106.19,-57.45 -159.64,-85.54 -106.72,-56.57 -213.73,-112.6 -321.047,-168.04 l -1.106,1.97 c 104.143,61.24 208.553,121.92 313.303,182.06 52.29,30.24 103.91,61.66 157.49,89.51 13.67,6.93 27.29,13.88 40.96,20.8 -0.83,2.54 -1.67,5.07 -2.12,7.77 -1.5,8.8 -0.5,17.56 2.24,25.79 -8.05,6.62 -16.12,13.24 -24.09,19.97 -44.65,37.42 -82.9,81.61 -123.9,122.92 l -122.35,124.58 -117.74,123.02 -2.7,2.53 c 0.04,0.05 0.12,0.09 0.17,0.17 l -0.51,0.49 3.12,3.35 0.54,-0.47 c 2.03,2.19 4.09,4.4 6.16,6.58 l 44.63,-42.97 c -1.16,-1.2 -2.3,-2.45 -3.48,-3.69 l 85.45,-72.4 131.74,-114.61 c 43.69,-38.43 90.1,-73.99 130.14,-116.25 6.94,-7.29 13.79,-14.63 20.64,-22.03 16.87,7.89 37.3,6.96 53.54,-4.57 5.57,-3.94 10.18,-8.88 13.79,-14.5 9.07,4.09 18.15,8.19 27.32,12.05 l 1.11,-1.97 c -8.21,-5.75 -16.56,-11.28 -24.88,-16.8 1.96,-4.26 3.55,-8.68 4.36,-13.42 0.35,-2.04 0.29,-4.07 0.44,-6.08 16.2,-3.61 32.31,-7.54 48.24,-11.9 47.57,-12.69 91.06,-36.57 136.29,-55.7 45.31,-19.02 90.41,-38.47 135.35,-58.43 44.76,-20.43 89.8,-40.04 134.3,-61.18 l -2.01,-5.52 c -47.69,12.31 -94.87,26.14 -142.3,39.12 -6.49,1.87 -12.96,3.9 -19.43,5.77 l 148.79,-105.82 -72.67,-102.13 -207.16,147.31 58.42,82.15 c -16.44,4.92 -32.92,9.58 -49.29,14.62 m -85.78,-530.63 -11.02,60.91 12.31,2.36 12.19,-60.72 c -4.48,-0.91 -9,-1.77 -13.48,-2.55 m -144.43,-9.12 c -4.57,0.25 -9.18,0.51 -13.77,0.87 l 4.51,61.73 c 4.15,-0.28 8.3,-0.55 12.46,-0.76 z m -155.91,27.96 c -4.35,1.36 -8.68,2.81 -13.03,4.24 l 19.63,58.73 11.96,-3.86 z m -143.95,66.07 c -3.87,2.4 -7.73,4.83 -11.6,7.34 l 33.77,51.93 c 3.49,-2.25 6.99,-4.5 10.51,-6.69 z m -123.11,99.49 c -3.17,3.34 -6.31,6.66 -9.42,10.03 l 45.49,41.98 8.65,-9.13 z m -94.524,127.19 c -2.261,3.99 -4.488,8.02 -6.648,12.09 l 54.621,29.2 c 1.949,-3.65 3.981,-7.34 6.011,-10.97 z m -63.218,160.03 60.183,14.66 c 0.957,-4.03 1.992,-8.02 3.074,-12.03 l -59.832,-16.05 c -1.179,4.46 -2.343,8.94 -3.425,13.42 m -18.208,150.8 0.024,6.32 61.922,-0.39 -0.039,-5.77 0.058,-6.82 -61.902,-0.63 z m 21.426,163.4 59.824,-16.04 c -1.074,-4.03 -2.085,-8.02 -3.085,-12.04 l -60.165,14.7 c 1.125,4.44 2.247,8.93 3.426,13.38 m 59.953,146.54 53.951,-30.4 c -2.06,-3.63 -4.048,-7.29 -6.021,-10.95 l -54.57,29.33 c 2.16,4 4.375,8.02 6.64,12.02 m 217.471,226.91 32.58,-52.61 c -3.51,-2.21 -7.02,-4.43 -10.51,-6.69 l -33.77,51.89 c 3.89,2.56 7.75,5 11.7,7.41 m 144.07,65.87 18.4,-59.12 c -3.96,-1.22 -7.89,-2.51 -11.8,-3.84 l -19.8,58.69 c 4.37,1.49 8.8,2.93 13.2,4.27 m 155.79,28.08 3.21,-61.84 c -4.12,-0.23 -8.24,-0.49 -12.37,-0.79 l -4.66,61.76 c 4.6,0.33 9.21,0.63 13.82,0.87 m 144.37,-8.8 c 4.49,-0.83 8.97,-1.71 13.46,-2.58 l -12.01,-60.74 -12.31,2.31 z m 151.22,-47.23 c 4.16,-1.88 8.27,-3.81 12.4,-5.81 l -26.83,-55.82 -11.36,5.35 z m 134.59,-83.21 c 3.61,-2.9 7.19,-5.83 10.71,-8.85 l -39.95,-47.28 c -3.13,2.64 -6.32,5.28 -9.53,7.85 z m 109.98,-114.07 c 2.76,-3.69 5.5,-7.43 8.16,-11.19 l -50.5,-35.82 c -2.42,3.37 -4.85,6.69 -7.34,10.01 z m 77.93,-137.88 c 1.75,-4.3 3.45,-8.56 5.12,-12.83 l -57.83,-22.27 c -1.49,3.86 -3.02,7.74 -4.56,11.59 z m 42.95,-166.63 -61.52,-7.19 c -0.44,4.15 -0.99,8.26 -1.53,12.38 l 61.3,8.51 c 0.66,-4.56 1.23,-9.13 1.75,-13.7 m -1.35,-158.28 -61.37,8.18 c 0.54,4.11 1.04,8.22 1.5,12.37 l 61.57,-6.89 c -0.52,-4.52 -1.07,-9.09 -1.7,-13.66 m -40.79,-153.14 -57.33,23.43 c 1.56,3.8 3.07,7.68 4.57,11.5 l 57.85,-22.05 c -1.64,-4.29 -3.36,-8.6 -5.09,-12.88 m -35.63,-153.05 c 216.03,303.73 144.97,725.08 -158.8,941.1 -303.69,216.05 -725.04,144.95 -941.09,-158.78 -216.05,-303.73 -144.949,-725.06 158.78,-941.09 303.72,-216.06 725.05,-144.96 941.11,158.77 m 8255.94,581.51 -0.1,-0.02 c 0,0.04 0,0.06 0,0.08 z m -266,321.87 -178.95,-101.71 -180.04,-99.76 -181.08,-97.91 -45.39,-24.26 c -13.73,-7.83 -26.69,-11.19 -40.77,-10.78 -57.34,97.15 -113.57,195.02 -168.31,293.46 l 18.27,11.74 -51.83,80.52 -33.66,-21.69 c -8.66,16.04 -17.22,32.11 -25.94,48.08 l -99.7,180.07 -25.44,44.72 -6.35,11.18 -3.16,5.56 -1.66,3.45 c -2.04,4.61 -3.78,9.41 -4.27,14.45 -3.02,20.19 7.49,41.66 25.09,51.14 78.29,45.62 156.34,91.68 234.14,138.09 9.36,-28.59 35.17,-45.64 70.24,-45.64 h 0.5 c 38.54,0.2 85.7,22.4 94.69,57.99 3.69,14.64 3.23,41.98 -35.45,65.82 l 165.22,101.65 43.69,27.2 c 3.97,2.55 6.89,4.17 9.41,5.61 2.79,1.42 5.63,2.84 8.64,3.8 5.9,2.26 12.25,3.19 18.65,3.52 5.46,0.22 10.97,-0.41 16.41,-1.57 l 1.3,-2.23 2.37,1.4 c 6.04,-1.66 11.85,-4.16 17.18,-7.54 5.6,-3.47 10.8,-7.7 15.07,-12.85 2.37,-2.45 3.93,-5.24 6.11,-8.15 l 6.83,-10.92 c 51.04,-81.36 101.77,-162.95 152.24,-244.69 l -37.07,-19.17 43.98,-85.01 43.42,22.46 c 4.8,-7.86 9.68,-15.65 14.47,-23.52 l 106.05,-176.39 26.1,-44.38 c 8.7,-14.7 18.1,-29.34 20.3,-46.52 5.6,-33.72 -11.3,-70.11 -41.3,-87.22 M 4756.49,2673.96 c 28.87,-19.91 57.7,-38.8 95.53,-57.79 -38.38,-18.29 -83.79,-16.32 -124.1,-5.62 -40.99,10.78 -77.04,31.71 -109.29,56.06 -32.25,24.53 -59.7,53.98 -82.53,86.56 -22.45,32.87 -41.38,68.57 -49.81,110.02 37.37,-19 68.93,-40.08 99.36,-61.53 30.18,-21.53 58.67,-43.61 86.87,-64.89 28.2,-21.11 55.25,-43.34 83.97,-62.81 m -877.02,575.59 c -22.45,32.87 -41.38,68.55 -49.81,110 37.37,-19 68.93,-40.04 99.34,-61.53 30.19,-21.54 58.69,-43.62 86.89,-64.9 28.2,-21.1 55.25,-43.32 83.97,-62.78 28.85,-19.93 57.69,-38.83 95.53,-57.81 -38.38,-18.29 -83.79,-16.28 -124.1,-5.59 -41.02,10.76 -77.08,31.67 -109.29,56.03 -32.25,24.55 -59.71,53.97 -82.53,86.58 m -1728.19,956 c -22.45,32.85 -41.42,68.55 -49.84,110 37.38,-19.01 68.96,-40.06 99.36,-61.54 30.18,-21.55 58.71,-43.6 86.87,-64.89 28.24,-21.09 55.28,-43.34 84,-62.77 28.84,-19.94 57.67,-38.84 95.5,-57.82 -38.37,-18.3 -83.77,-16.3 -124.07,-5.6 -41.02,10.77 -77.07,31.68 -109.3,56.04 -32.25,24.55 -59.73,53.98 -82.52,86.58 m 1085.66,-680.41 c -59.6,17.51 -113.92,47.5 -162.64,82.98 -48.62,35.82 -92.04,77.44 -129.84,123.39 -37.46,46.17 -70.72,96.03 -92.78,152.7 50.38,-33.43 95.95,-68.41 141.15,-103.02 44.94,-34.8 89.17,-68.96 133.69,-101.7 44.71,-32.37 89.54,-63.52 136.92,-90.04 47.51,-27.04 96.73,-48.51 155.79,-62.4 -56.52,-23.49 -123.5,-19.59 -182.29,-1.91 m 2688.48,1275.55 c 53.41,-16.34 106.72,-33.27 159.5,-52.83 -56.19,2.82 -111.86,8.29 -167.42,14.33 -27.82,2.65 -55.42,6.61 -83.12,9.99 -27.66,3.44 -55.35,6.98 -82.85,11.3 l -20.84,3.28 -4.57,23.78 c -8.12,42.42 -17.05,84.72 -24.33,127.23 -6.76,36.9 -12.82,73.89 -18.86,110.89 -111.85,92.82 -221.51,188.2 -327.82,287.47 -54.7,51.69 -109.32,103.48 -162.23,157.31 -53.11,53.55 -105.39,108.06 -154.91,165.78 64.49,-40.28 126.3,-83.73 187.23,-128.18 61.13,-44.2 120.56,-90.4 179.94,-136.7 118.09,-93.29 232.66,-190.68 344.88,-290.8 l 12.67,-11.31 1.76,-15.1 c 4.99,-42.83 9.92,-85.68 14.05,-128.66 3.89,-36.08 6.66,-72.29 9.67,-108.49 18.98,-5.13 37.98,-10.27 56.9,-15.74 26.79,-7.79 53.7,-15.03 80.35,-23.55 m -523.49,-585.3 c 53.44,-16.37 106.74,-33.29 159.5,-52.83 -56.19,2.83 -111.85,8.27 -167.41,14.31 -27.82,2.68 -55.4,6.63 -83.1,10.03 -27.71,3.4 -55.34,6.94 -82.86,11.25 l -20.85,3.29 -4.56,23.81 c -8.13,42.41 -17.05,84.69 -24.35,127.2 -6.77,36.92 -12.79,73.91 -18.86,110.91 -111.82,92.83 -221.48,188.18 -327.81,287.45 -54.7,51.69 -109.32,103.53 -162.23,157.32 -53.07,53.54 -105.37,108.07 -154.92,165.79 64.55,-40.29 126.29,-83.75 187.24,-128.2 61.15,-44.19 120.58,-90.39 179.94,-136.68 118.1,-93.3 232.69,-190.66 344.88,-290.77 l 12.69,-11.32 1.75,-15.11 c 4.96,-42.87 9.93,-85.71 14.03,-128.66 3.91,-36.06 6.67,-72.32 9.69,-108.5 18.97,-5.15 37.98,-10.28 56.89,-15.74 26.79,-7.79 53.7,-15.03 80.34,-23.55 m 4201.56,3953.82 16.86,9.96 19.87,-33.68 -16.83,-9.97 z m -39.79,67.36 16.87,9.97 19.89,-33.69 -16.87,-9.96 z m -39.78,67.36 16.85,9.94 19.9,-33.69 -16.86,-9.93 z m -39.75,67.37 16.84,9.93 19.9,-33.68 -16.85,-9.93 z m -39.79,67.32 16.82,9.97 19.91,-33.68 -16.83,-9.95 z m -39.77,67.4 16.85,9.94 19.87,-33.69 -16.85,-9.94 z m -39.79,67.34 16.85,9.97 19.89,-33.68 -16.84,-9.97 z m -39.78,67.36 16.85,9.97 19.9,-33.68 -16.86,-9.97 z m -39.78,67.37 16.87,9.93 19.87,-33.68 -16.86,-9.94 z m -39.76,67.37 16.84,9.92 19.9,-33.68 -16.87,-9.92 z m -39.79,67.32 16.84,9.97 19.9,-33.69 -16.84,-9.96 z m -610.11,-368.52 -16.84,-9.96 -19.9,33.68 16.86,9.97 z m 39.78,-67.37 -16.84,-9.94 -19.89,33.68 16.84,9.94 z m 39.8,-67.36 -16.85,-9.95 -19.89,33.68 16.84,9.95 z m 39.76,-67.32 -16.84,-9.98 -19.9,33.67 16.85,9.99 z m 39.79,-67.37 -16.84,-9.97 -19.89,33.67 16.83,9.98 z m 39.79,-67.37 -16.86,-9.94 -19.9,33.68 16.86,9.94 z m 39.77,-67.38 -16.87,-9.93 -19.89,33.69 16.88,9.94 z m 39.76,-67.31 -16.84,-9.99 -19.9,33.68 16.85,9.96 z m 39.79,-67.38 -16.84,-9.95 -19.9,33.66 16.85,9.97 z m 39.76,-67.37 -16.83,-9.94 -19.88,33.7 16.84,9.92 z m 39.78,-67.37 -16.83,-9.92 -19.89,33.68 16.85,9.93 z m 189.4,1119.42 19.88,-33.65 -16.84,-9.97 -19.87,33.68 z m -639.6,-357.03 12.67,-21.42 -16.87,-9.97 -12.55,21.27 z m -574.04,-4168.11 0.15,0.6 -0.05,-0.6 c -0.04,0 -0.06,0 -0.1,0 M 4180.11,5983.01 c -52.87,-139.77 -200.81,-420.11 -249.07,-445.66 -24.14,-11.06 -42.29,-14.71 -55.64,-14.97 2.32,13.71 7.25,30.57 16.09,51.47 42.95,101.52 99.89,261.38 160.65,442.25 31.48,-17.23 74.1,-33.31 123.9,-33.31 1.34,0 2.74,0.17 4.07,0.22 m -99.44,118.78 c 9.85,29.82 19.78,60.02 29.7,90.46 35.85,-35.25 72.41,-82.74 84.4,-119.54 -48.55,-6.19 -89.55,13.13 -114.1,29.08 m -2965.66,-408.13 15.93,-11.32 -23.01,-32.34 -15.93,11.33 z m 50.27,36.97 -11.33,-15.95 -15.95,11.32 11.34,15.95 z m 935.29,2517.17 -23.02,-32.37 -15.92,11.34 22.99,32.35 z m 27.03,37.99 -4.05,-5.65 -15.92,11.31 4.02,5.68 z m 275.91,-837.99 -11.37,-15.94 -15.93,11.31 11.37,15.95 z m 46.01,64.67 -23.01,-32.33 -15.92,11.31 23,32.34 z m 46.02,64.71 -23.01,-32.34 -15.93,11.32 23.01,32.36 z m 46.01,64.68 -23.01,-32.35 -15.92,11.34 23.01,32.35 z m 45.98,64.69 -22.96,-32.33 -15.93,11.32 22.99,32.35 z m 46.02,64.69 -23,-32.35 -15.91,11.33 23.01,32.36 z m 46.02,64.69 -23.01,-32.34 -15.91,11.32 23.01,32.36 z m 27.04,38 -4.03,-5.67 -15.91,11.34 4.01,5.64 z m -691,288.15 23,32.33 15.93,-11.32 -23.01,-32.33 z m -46,-64.69 22.99,32.32 15.93,-11.3 -23.01,-32.36 z m -46.02,-64.7 23.01,32.35 15.91,-11.32 -22.97,-32.33 z m -46.02,-64.67 23.02,32.31 15.94,-11.3 -23,-32.35 z m -53.08,-108.36 -11.37,-15.95 -15.91,11.34 11.33,15.91 z m 30.07,76 15.96,-11.31 -23.02,-32.36 -15.95,11.32 z m -250.9,-207.24 117.46,-83.57 c -58.47,15.62 -117.99,24.74 -177.56,27.75 11.47,39.23 121.62,161.02 121.62,161.02 0,0 -12.9,11.86 -69.06,49.13 -9.67,-13.62 -242.81,-208.4 -356.78,-248.98 -3.16,-1.12 -6.17,-2.12 -9.12,-3 -1.47,-0.43 -3,-0.96 -4.42,-1.33 l 0.79,0.09 c -2.82,-0.96 -5.65,-1.97 -8.49,-2.95 l 400.51,569.89 c 42.2,-32.25 117.25,-86.8 214.25,-145.85 z m -741.726,-2390.54 23.007,32.32 15.926,-11.33 -23.008,-32.33 z m -27.039,-38.03 4.031,5.68 15.929,-11.35 -4.015,-5.66 z M 666.047,6410.21 c 18.914,18.67 36.648,34.81 50.457,45.6 19.875,-43.51 43.281,-85.6 70.461,-125.67 z m -410.156,-698.5 4.019,5.67 15.91,-11.34 -4.004,-5.65 z m 65.957,59.02 -23.02,-32.35 -15.945,11.34 23.008,32.33 z m 46.011,64.69 -23.004,-32.33 -15.96,11.33 23.019,32.34 z m 46.02,64.69 -23.012,-32.36 -15.906,11.34 23.008,32.35 z m 46.016,64.7 -23.008,-32.35 -15.91,11.34 23.007,32.33 z m 46.023,64.69 -23.02,-32.33 -15.945,11.3 23.008,32.35 z m 45.996,64.69 -22.988,-32.35 -15.946,11.33 23.004,32.34 z m 34.348,48.26 -11.34,-15.91 -15.93,11.3 11.34,15.95 z m 79.785,267.76 -281.887,-396.3 -196.015,147.14 428.125,609.14 c -31.524,-133.54 -90.403,-353 -163.79,-485.88 45.165,-32.13 82.918,-39.01 82.918,-39.01 -10.984,10.25 66.719,101.87 130.649,164.91 m 280.84,-986.66 -23.008,-32.3 -15.949,11.31 23.008,32.33 z m 46.023,64.71 -23.015,-32.35 -15.93,11.34 23.015,32.33 z m 46.02,64.69 -23.01,-32.33 -15.932,11.31 23.012,32.34 z m 45.99,64.69 -23.01,-32.33 -15.92,11.31 23,32.33 z m -13.93,594.06 c -332.33,236.39 -410.123,697.44 -173.732,1029.76 236.402,332.35 697.442,410.12 1029.762,173.73 332.36,-236.37 410.14,-697.43 173.75,-1029.75 -236.4,-332.33 -697.46,-410.12 -1029.78,-173.74 M 5028.62,3064.1 c -1.69,-2.09 -3.41,-4.5 -5.01,-6.01 -45.12,1.44 -240.24,42.77 -339.84,140.64 -38.66,38.05 -56.89,78.38 -55.65,123 44.77,2.56 86.56,5.63 125.9,2.43 48.02,-3.45 89.47,-17.07 123.88,-41.63 34.66,-24.37 63.98,-60.11 89.5,-102.34 21.72,-35.45 40.54,-74.84 61.22,-116.09 m -100.01,290.92 c -52.29,37.65 -120.47,49.13 -178.3,38.38 -40.2,-7.23 -76.83,-22.23 -109.68,-42.51 44.06,93.39 142.91,254.42 254.32,256.67 194.97,3.98 233.59,-144.64 239.58,-174.4 12.54,-62.79 -45.11,-256.96 -88.55,-340.86 1.37,38.59 -3.28,77.47 -14.83,115.67 -16.77,54.8 -49.75,110.11 -102.54,147.05 m -366.4,342.56 c -48.39,11.2 -223.25,92.56 -331.02,214.61 -35.67,40.34 -58.51,79.53 -68.92,117.16 47.33,-5.53 92.02,-9.83 134.17,-19.09 51,-11.46 97.25,-29.36 134.11,-57.99 36.92,-28.46 65.83,-66.81 87.3,-113.27 19.73,-42.05 32.58,-89.79 44.36,-141.42 m 22.03,162.2 c -12.06,61.35 -46.83,122.7 -100.3,162.98 -53.16,41.02 -119.78,57.3 -180.92,56.51 -51.11,-1.27 -99.85,-12.98 -144.63,-32.83 -1.92,10.65 -3.04,21.2 -2.78,31.56 42.36,79.72 164.75,260.99 289.72,263.46 1.13,0.04 2.27,0.04 3.45,0.04 159.36,0 295.45,-221.42 309.71,-292.69 12.09,-60.63 -124.39,-298.42 -184.49,-346.76 17.15,49.3 20.98,103.72 10.24,157.73 m -713.6,-39.43 c 118.73,162.67 221.81,332.1 276.28,483.88 56.57,47.45 111.56,72.72 163.32,83.1 -138.57,-84.8 -232.76,-267.51 -237.83,-277.45 l -3.96,-7.83 -0.65,-8.79 c -7.06,-91.2 36.86,-183.63 130.58,-274.74 122.33,-118.9 311.01,-210.82 374.04,-210.82 1.96,0 3.8,0.09 5.53,0.28 21.84,2.32 54.77,15.67 116.08,99.05 35.6,48.41 92.37,140.2 125.89,224.65 4.13,-36.11 0.54,-66.66 -11.88,-87.57 -10.4,-17.59 -23.25,-39.71 -38.25,-65.54 -25.34,-43.67 -58.08,-99.99 -96.34,-163.84 -42.88,-51.4 -215.57,-313.23 -336.7,-507.2 -0.98,-1.54 -1.85,-3 -2.85,-4.53 -137.03,-180.89 -285.53,-341.09 -421.97,-409.83 -146.68,-73.92 -292.43,-7.97 -388.91,60.37 -163.1,115.52 -274.06,297.98 -288.78,367.96 237.84,154.92 462.05,432.13 636.4,698.85 m -3.15,658.6 c -12.42,57.89 -54.66,110.88 -105.54,141.24 -51.08,31.17 -107.86,43.53 -162.02,45.5 -46.49,1.26 -91.99,-4.77 -135.81,-18.46 -0.41,5.29 -0.72,10.57 -0.58,15.83 42.53,79.71 165.16,261.04 289.73,263.52 1.33,0.02 2.66,0.04 3.97,0.04 153.48,0 268.2,-177.84 283.61,-254.78 12.87,-64.36 -130.87,-327.11 -185.03,-361.65 -40.2,5.42 -214.71,77.36 -319.01,191.61 -40.21,44.07 -63.69,87.78 -70.77,130.49 42.69,-13.05 83.89,-23.19 123.03,-35.06 46.55,-13.84 90.17,-29.96 126.54,-52.36 36.04,-22.6 66.03,-50.36 86.59,-89.98 21.49,-39.13 34.35,-86.88 48.55,-139.34 22.31,49.16 30.2,105.94 16.74,163.4 m -1089.98,127.43 c -32.88,-0.34 -177.56,30.06 -264.4,114.46 -29.72,28.92 -48.25,60.06 -56.4,94.12 31.71,-6.93 61.42,-11.57 89.75,-18.15 37.07,-8.58 71.1,-18.7 100.61,-33.25 29.64,-14.43 54.82,-33.08 76.06,-60.04 20.85,-25.49 37.61,-58.21 54.38,-97.14 m 7.03,129.81 c -7.82,23.16 -22.03,44.08 -38.48,62.99 -9.05,8.41 -17.98,17.5 -28.07,24.63 -10.45,6.54 -20.5,14.36 -31.69,19.02 -44.15,21.59 -92.08,27.29 -136.51,23.23 -34.19,-3.61 -66.79,-13.12 -96.95,-28.28 -0.83,8.33 -1.31,16.74 -0.99,25.39 38.91,78.81 154.08,259.54 278.62,262.03 157.43,2.97 253.24,-106.65 268.26,-181.84 11.54,-57.65 -153.78,-297.94 -215.58,-334.03 15.95,38.71 16.91,84 1.39,126.86 m -254.13,397.88 c 5.87,0.4 12.29,1.33 18.44,2 -108.55,-92 -176.54,-233.98 -180.68,-242.74 l -3.41,-7.33 -0.63,-8.1 c -6.4,-82.5 23.8,-158.76 87.33,-220.5 100.52,-97.72 264.58,-139.36 327.73,-139.36 4,0 7.62,0.14 10.8,0.49 50.5,5.35 120.71,87.6 170.73,155.63 24.85,33.79 68.02,96.43 96.97,159.3 9.21,-118.58 -40.58,-261.1 -115.05,-402.64 -17.36,-22.88 -34.95,-46.16 -52.85,-70.27 -108.3,-145.8 -236.24,-330.54 -327.49,-471.64 -41.97,-49.28 -73.74,-84.23 -87.45,-99.11 -49.5,-15.82 -282.23,-80.98 -448.81,33.54 -116.88,80.31 -178.82,234.08 -184.22,457.2 269.22,407.64 606.71,846.97 688.59,853.53 m 69.89,-1953.59 c -139.11,158.72 -74.15,466.89 -70.62,483.04 8.22,20.63 43.84,80.87 97.77,164.79 104.16,121.56 270.33,330.83 386.73,550.65 219.98,288.73 460.54,561.26 596.24,594.01 4.2,0.99 8.29,1.56 12.42,2.36 -141.11,-83.47 -237.34,-270.29 -242.45,-280.34 l -3.98,-7.85 -0.67,-8.76 c -6.89,-89.19 33.21,-176.81 119.24,-260.45 114.51,-111.31 300.08,-196.48 366.15,-196.48 2.36,0 4.55,0.11 6.57,0.32 21.55,2.28 50.63,14.23 103.02,85.48 47.49,64.6 125.01,200.09 150.36,301.58 11.35,-37.87 15.04,-71.75 10.51,-97.58 -5.39,-30.51 -25.04,-83.67 -56.23,-151.94 l -4.22,-3.69 -3.82,-11.13 c -1.45,-4.13 -3.22,-8.41 -4.71,-12.58 -55.94,-117.89 -142.12,-273.74 -247.49,-435.2 -233.5,-323.31 -538.96,-627.6 -627.73,-698.58 -12.31,-8.2 -24.67,-15.97 -37.03,-23.36 l -2.45,-1.31 -0.02,-0.19 c -79.99,-47.55 -159.94,-78.22 -237.68,-85.56 -140.03,-13.22 -244.37,17.97 -309.91,92.77 m 2313.81,-836.04 c -151.63,-122.6 -314.57,-110.02 -424.59,-77.83 -188.39,55.1 -330.52,196.04 -359.63,275.14 3.78,55.73 131.68,278.02 269.98,500.94 51.86,67.99 101.91,138.75 149.17,208.98 12.46,-42.12 37.13,-81.43 74.13,-117.41 117.91,-114.66 335.47,-164.53 405.29,-164.53 3.92,0 7.39,0.13 10.32,0.46 22.03,2.31 42.05,16.17 61.23,42.25 39.39,53.58 84.85,176.28 108.32,283.35 1.08,-161.99 -15.91,-726.34 -294.22,-951.35 m 258.67,120.91 c -14.76,4.85 -27.74,9.07 -39.91,12.95 185.75,341.74 164.17,840.42 162.93,866.17 l -0.11,0.69 694.75,-728.68 c -26.86,-24.31 -81.72,-71.68 -193.63,-162.59 -170.03,-138.17 -465.37,-40.83 -624.03,11.46 M 6547.06,4859.5 c -40.13,-2.99 -79.37,-9.24 -117.94,-18.4 -38.53,-9.16 -76.4,-21.03 -113.52,-36.09 -37.3,-14.99 -72.98,-34.03 -109.17,-57.15 42.6,-12.96 84.1,-12.11 124.41,-10.49 36.63,2.25 72.49,7.82 107.81,15.56 L 7613.76,3507.84 c -72.25,-199.44 -230.46,-334.24 -361.21,-395.7 -106.26,-50.03 -210.77,-62.01 -281.67,-33.13 l -1090.44,997 c 26.95,7.7 53.65,16.42 79.78,27.41 37.05,15.93 73.45,34.56 107.65,61.9 -42.96,8.48 -83.75,8.39 -123.91,5.73 -40.08,-2.98 -79.37,-9.23 -117.9,-18.39 -38.57,-9.16 -76.41,-21.04 -113.54,-36.1 -37.3,-14.99 -72.98,-34.03 -109.17,-57.13 42.64,-12.98 84.08,-12.13 124.41,-10.5 15.45,0.95 30.67,2.89 45.89,4.86 l 1124.52,-1028.2 c -53.14,-205.4 -277.83,-397.27 -464.54,-451.88 -155.95,-45.6 -295.34,36.25 -339.36,66.3 l -0.28,3.2 -14.63,8.26 -905.62,949.84 c -43.72,57.83 -100.14,108.69 -170.91,129.37 -52.42,15.31 -106.82,12.8 -162.68,-7.15 2.03,3.52 4.19,7.23 6.16,10.62 14.85,25.55 27.54,47.43 37.86,64.83 77.83,131.35 -30.16,406.34 -222.18,565.86 -147.51,122.55 -308.86,148.8 -458.38,79.73 7.82,21.76 12.96,39.23 15.08,51.27 21.02,118.99 -61.53,297.23 -196.24,423.83 -133.11,125.07 -286.79,174.53 -432.77,139.31 -107.11,-25.86 -262.09,-159.05 -462.01,-396.07 21.76,89.23 26.78,174.58 6.35,250.31 -104.45,386.36 -374.37,344.12 -535.65,318.89 -27.24,-4.26 -52.99,-8.28 -74.28,-9.8 -94.33,-6.72 -287.42,-236.11 -460.66,-469.51 l -971.32,729.47 312.24,439 -72.87,48.23 c 43.09,-8.5 86.54,-13.68 129.99,-15.55 l -178.52,-251 60.18,-42.82 c 299.7,320.13 613.56,360.01 655.05,452.2 l -0.55,-0.11 c 38.47,27.32 74.98,58.09 109.08,92.19 l 96.23,-68.39 9.6,13.49 16.61,-11.8 96.27,135.32 -16.61,11.79 9.62,13.54 -87.85,62.47 c 103.04,166.23 142.81,355.64 124.35,538.59 17.05,94.85 54.05,259 119.13,360.05 -25.99,25.3 -63.75,45.31 -63.75,45.31 l -116.04,-163.14 c -22.13,53.79 -49.67,105.54 -82.74,154.38 l 113.33,-80.61 412.8,580.33 c 224.04,19.4 499.86,77.96 769.58,135.31 337.49,71.73 686.45,145.82 832.64,112.68 286.16,-65.04 719.79,-144.94 995.96,-188.33 -335.92,-197.55 -742.07,-449.74 -975.07,-595.68 l -14.16,-8.89 -4.77,-15.99 c -3.71,-12.46 -372.43,-1249.74 -531.83,-1626.52 -20.02,-47.29 -26.38,-85.56 -24.26,-116.6 l -14.95,-10.06 c 0.77,-1.12 7.56,-10.38 20.26,-20.41 8.13,-28.06 23.91,-48.43 41.29,-62.92 -0.91,0.04 -1.78,0 -2.69,0.04 0,0 4.61,-3.16 13.45,-8.06 13.75,-9.49 29.86,-16.88 47.99,-22.45 91.48,-36.42 283.61,-82.42 566.12,3.89 685.66,209.36 989.8,844.21 1185.49,934.5 283.58,130.92 816.25,-337.29 854.97,-376.02 26.32,-26.34 552.84,-526.65 891.7,-849.9 l 578.84,-697.92 c 5.96,-0.54 13.02,3.31 19.52,2.25 17.09,-2.82 35.7,0.55 52.77,-4.39 24.07,-7.1 47.66,-16.15 70.38,-27.41 22.49,-11.54 43.75,-25.58 63.29,-42.42 19.23,-17.13 35.43,-37.81 48.81,-61.26 -6.4,25.96 -16.79,51.85 -31.89,75.51 -15.32,23.3 -33.88,44.96 -54.71,64.35 -19.23,17.4 -40.19,33.1 -62.13,47.37 19.6,9.95 39.7,20.14 60.24,30.56 140.84,58.01 270.19,118.81 388.17,182.8 1.97,-23.56 5.08,-51.43 8.94,-85.34 20.9,-184.11 55.82,-491.78 -48.09,-731.8 -136.85,-225.9 -513.24,-285.75 -805.83,-245.63 l -19.53,2.68 -1124.31,1191.27 c 9.82,3.61 19.74,6.82 29.44,10.91 37.07,15.93 73.46,34.57 107.66,61.91 -42.97,8.48 -83.75,8.39 -123.89,5.73 m 3256.97,1552.21 -16.84,-9.93 -19.88,33.68 16.85,9.93 z m 39.79,-67.37 -16.86,-9.93 -19.9,33.69 16.87,9.93 z m 39.78,-67.37 -16.85,-9.92 -19.89,33.68 16.85,9.92 z m 39.76,-67.36 -16.85,-9.93 -19.87,33.73 16.87,9.88 z m 148.44,1232.52 c 4.7,-9.13 8.6,-18.64 9.7,-29.01 5.3,-34.37 -12.3,-70.77 -42.6,-87.45 l -177.59,-104.08 -176.4,-106.03 -175.35,-107.87 -43.71,-27.19 c -10.42,-7.1 -23.75,-12.88 -37.61,-15.73 10.4,-17.52 20.48,-35.26 30.99,-52.68 40.14,-66.55 80.98,-132.62 123.64,-197.09 21.37,-32.17 43.14,-64.06 65.89,-94.66 11.45,-15.14 23.01,-30.27 35.1,-44.12 11.69,-13.79 25.23,-27.77 35.39,-33.86 25.12,-14.32 64.39,-18.06 100.56,-17.62 37.04,0.64 74.66,5.71 111.59,13.84 73.9,16.46 145.9,44.91 209.7,86.57 63.4,41.44 118.7,98.22 148.6,168.97 21.2,49.19 27.7,103.7 23.1,157.7 l -4.9,8.37 4.1,2.41 c -1.6,13.83 -4.2,27.54 -7.2,41.18 l -16.8,-9.95 -19.9,33.68 16.9,9.97 19.8,-33.62 c -1.3,5.88 -2.5,11.77 -4,17.58 6.1,-18.49 11,-37.58 14.4,-56.98 l 9.5,5.66 19.9,-33.69 -16.8,-9.97 -9.6,16.24 c 6.1,-51.27 2,-103.96 -15.9,-153.46 -26.8,-75.59 -81.6,-138.97 -145.7,-186.28 -64.4,-47.59 -138.1,-81.78 -215.28,-103.74 -38.69,-10.91 -78.44,-18.71 -119.37,-21.81 -19.74,-1.47 -39.85,-1.56 -60.32,0.13 l -14.21,-8.4 -6.49,10.97 c -15.43,2.54 -31.15,6.58 -47.32,14.56 -23.95,13.12 -37.35,28.51 -51.86,43.3 -14.27,14.97 -27.09,30.31 -39.86,45.72 -8.97,11.03 -17.56,22.22 -26.21,33.39 l 269.43,-451.23 -422.43,-266.59 c -9.22,25.06 -19.25,49.59 -29.82,73.74 -37.46,84.51 -80.93,164.84 -126.81,243.54 -46.01,78.59 -94.73,155.3 -145.71,230.38 -25.55,37.51 -51.62,74.59 -78.66,111.02 -13.55,18.21 -27.31,36.22 -41.53,53.92 -7.17,8.79 -14.4,17.51 -21.96,26.01 -7.83,7.93 -14.74,17.9 -25.27,22.31 9.99,-5.18 16.04,-15.6 23.13,-24.08 6.79,-9.01 13.28,-18.25 19.65,-27.58 12.67,-18.64 24.88,-37.64 36.84,-56.81 23.86,-38.29 46.75,-77.25 69.01,-116.48 44.48,-78.51 86.47,-158.38 125.45,-239.45 38.81,-81.07 74.94,-163.44 104.12,-247.1 14.39,-41.79 27.18,-84.02 35.57,-125.81 4.14,-20.82 7.11,-41.59 7.96,-61.26 0.83,-15.91 -2.58,-39.39 -6.34,-54.74 -108.56,-376.47 -371.48,-681.59 -813.52,-937.53 -42.59,-13.83 -125.01,-55.12 -299.93,-142.73 -55.05,-27.56 -109.83,-55.2 -157.15,-79.14 -24.61,-10.12 -81.8,-25.44 -120.27,-37.57 L 6920.15,5784.71 c 35.17,-7.01 70.54,-12.61 105.94,-16.58 64.21,-7.7 129.03,-8.57 192.55,-4 63.69,3.19 126.03,17.48 185.92,33.39 -62.48,-1.35 -123.91,-0.63 -184.05,10.84 -59.99,10.03 -118.54,25.04 -174.75,46.05 -56.28,20.44 -110.6,45.07 -162.35,73.65 -5.2,2.91 -10.24,5.93 -15.39,8.9 11.98,1.35 24.16,2.23 36.05,3.78 63.57,8.11 126.49,18.34 189.12,29.97 125.2,23.25 249.13,52.49 371.12,88.53 121.77,36.42 242.19,79.38 355.42,138.11 56.33,29.51 111.2,63.09 159.02,105.5 47.32,42.01 88.36,95.61 100.45,158.28 -15.85,-61.88 -58.98,-111.39 -107.55,-149.81 -49.11,-38.66 -104.71,-68.38 -161.62,-94.11 -114.33,-51.09 -235.21,-86.39 -357.08,-115.22 -122.09,-28.45 -245.81,-50.09 -370,-65.72 -62.09,-7.83 -124.35,-14.23 -186.4,-18.48 -31.02,-2.22 -61.98,-3.59 -92.59,-4.28 -15.12,-0.08 -30.63,-0.48 -45.04,0.31 -2.89,0.09 -5.38,0.38 -8.17,0.5 -2.21,1.76 -48.43,21.06 -86.78,37.17 -66.78,47.85 -171.3,137.45 -266.85,219.42 -202.27,173.52 -431.52,370.22 -563.58,414.27 -12.95,4.31 -26.14,6.76 -39.56,7.81 -3.61,27.62 -8.31,54.77 -14.01,81.61 -12.88,59.58 -29.8,117.87 -51.54,174.34 -21.56,56.43 -47.97,111.09 -80.18,161.84 -32.15,50.78 -70.88,97.4 -116.23,135.57 40.27,-43.57 72.01,-93.52 96.88,-146.28 24.87,-52.77 43.52,-108.11 57.33,-164.43 13.98,-56.28 23.07,-113.68 28.12,-170.97 2.32,-27.2 3.59,-54.43 3.61,-81.21 -143.94,-45.07 -314.86,-234.25 -533.01,-475.8 -146.03,-161.73 -311.58,-345.04 -486.05,-498.57 -159.7,-140.57 -588.57,-294.26 -759,-263.33 8.93,3.07 18.22,6.68 27.97,11.15 102.26,46.78 307.38,492.74 318.52,576.3 11.88,89.15 -80.12,195.61 -146.4,250.32 129.82,402.79 255.05,820.19 281.89,910.05 523.57,327.63 1370.42,842.26 1465.43,860.12 109.96,-1.42 1227.56,-138.94 1672.88,-205.96 l 8.94,-1.35 6.94,1.81 c 14.02,-2.17 28.06,-4.57 41.76,-7.4 38.42,-7.41 76.36,-17.61 113.95,-29.11 74.97,-23.73 147.29,-56.45 214.54,-98 16.38,-10.99 34.03,-20.43 49.52,-32.74 l 47.04,-36.47 c 15.39,-12.55 29,-27.04 43.69,-40.55 l 21.66,-20.69 19.29,-22.87 c 54.86,-58.85 93.2,-130.58 128.63,-203.42 -28.53,75.46 -60.74,151.89 -111.31,217.17 l -17.73,25.34 -20.27,23.29 c -13.81,15.25 -26.7,31.63 -41.45,46.11 l -45.46,42.38 c -15.08,14.36 -32.39,25.86 -48.57,38.94 -66.43,49.93 -139.57,91.41 -216.65,123.76 -15.08,6.2 -30.34,11.93 -45.68,17.62 251.63,95.61 579.7,284.46 839.57,445.71 l 391.69,-656.03 c 3.41,38.5 25.26,75.33 59.56,94.81 119.08,68.12 238.4,135.81 358.89,201.55 l 181.08,97.91 45.44,24.26 c 3.36,1.86 8.03,4.18 13.19,6.58 5,2.13 10.1,4.09 15.36,5.42 10.45,2.98 21.38,3.89 32.07,3.61 13.91,-0.52 27.53,-4.01 40.12,-9.68 z m 292.7,-539.39 19.9,-33.68 -16.9,-9.92 -19.8,33.68 z m 59.7,-101 -16.9,-9.97 -19.9,33.68 16.9,9.95 z m 39.8,-67.37 -16.9,-9.97 -19.9,33.69 16.9,9.93 z m 39.7,-67.36 -16.8,-9.97 -19.9,33.68 16.9,9.92 z m 39.8,-67.37 -16.8,-9.97 -19.9,33.69 16.8,9.96 z m 39.8,-67.37 -16.9,-9.93 -19.8,33.69 16.8,9.93 z m -358,606.25 -16.8,-9.96 -19.9,33.69 16.8,9.94 z m 39.8,-67.38 -16.9,-9.95 -19.9,33.68 16.9,9.95 z m -318.8,-938.79 -19.89,33.65 16.84,9.97 19.89,-33.69 z m -720.26,2956.8 -868.82,-525.65 79.8,-133.71 c -279.45,-171.74 -642.65,-377.6 -875.8,-443.89 -481.55,71.64 -1569.56,204.59 -1675.51,204.59 -23.05,0 -65.73,-0.02 -437.42,-213.73 -258.08,37.3 -764.56,129.11 -1078.08,200.38 -175.65,39.87 -523.3,-34.01 -891.42,-112.27 -240.66,-51.16 -489.3,-103.99 -695.1,-127.15 l -724.1,515.05 -188,-264.31 c -123.18,77.56 -202.53,142.39 -203.3,143.01 l -77.15,63.84 -567.25,-807.15 C 919.16,7524.03 829.934,7440.65 758.477,7340.21 685,7236.91 634.813,7121.87 609.246,6998.14 L 0,6131.28 266.145,5931.43 102.922,5701.91 l 799.961,-569.04 148.547,208.83 892.8,-670.45 c -97.6,-136.43 -181.1,-261.43 -224.23,-326.94 l -15.62,-23.75 0.38,-28.43 c 3.86,-277.36 85.88,-473.02 243.79,-581.52 87.39,-60.1 194.21,-90.57 317.42,-90.57 39,0 78.81,3.06 118.99,9.08 -16.55,-119.82 -30.71,-375.19 112.24,-538.58 95.84,-109.46 240.22,-156.5 425.84,-139.04 67.28,6.34 137.12,25.8 208.24,57.94 53.74,-115.39 168.38,-265.33 312.66,-367.52 111.1,-78.7 222.65,-118.59 331.64,-118.59 68.57,0 135.14,16.03 197.93,47.68 8.53,4.31 17.2,8.95 25.93,13.89 -11.22,-41.27 -7.31,-62.71 -0.58,-82.92 42.53,-127.65 223.32,-299.71 452.24,-366.67 62.74,-18.36 125.47,-27.66 186.49,-27.66 133.55,0 255.53,43.87 362.54,130.41 36.88,29.82 71.43,65.44 103.06,106.14 8.5,-2.76 17.46,-5.73 26.77,-8.79 107.96,-35.57 271.1,-89.36 434.1,-89.36 128.66,0 236.01,34.2 319,101.65 89.66,72.84 144.86,118.73 180.7,150.34 80.68,-44.8 234.37,-106.54 408.27,-55.64 198.18,57.96 446.42,245.56 539.11,486.68 90.85,-10.15 195.58,10.32 299.66,59.25 194.69,91.55 347.77,256.01 424.96,454.76 305.65,-24.63 701.72,44.73 866.71,321.88 l 5.24,10.22 c 120.04,274.05 82.35,606.17 59.84,804.67 -3.14,27.52 -7.41,65.04 -9.35,91.52 432.96,258.36 704.25,570.35 827.61,951.99 l 3.36,-0.83 10.95,47.47 13.91,48.89 -6.98,2.01 c 0.94,18.04 0.35,36.44 -1.84,54.21 -0.57,4.33 -1.22,8.72 -1.92,13.2 l 371.09,234.22 33,-55.29 835.12,513.57 -1516.46,2608.33"
         style="fill:#100f0d;fill-opacity:1;fill-rule:nonzero;stroke:none"
         transform="matrix(0.13333333,0,0,-0.13333333,0,1211.8933)" />
    </g>
  </g>
</svg>
