<?xml version="1.0" encoding="UTF-8" standalone="no"?>
<!-- Created with Inkscape (http://www.inkscape.org/) -->

<svg
   version="1.1"
   id="svg1"
   width="629.67999"
   height="815.69336"
   viewBox="0 0 629.67999 815.69336"
   sodipodi:docname="idea-of-success-achievement.svg"
   inkscape:version="1.3.2 (091e20ef0f, 2023-11-25, custom)"
   xmlns:inkscape="http://www.inkscape.org/namespaces/inkscape"
   xmlns:sodipodi="http://sodipodi.sourceforge.net/DTD/sodipodi-0.dtd"
   xmlns="http://www.w3.org/2000/svg"
   xmlns:svg="http://www.w3.org/2000/svg">
  <defs
     id="defs1" />
  <sodipodi:namedview
     id="namedview1"
     pagecolor="#505050"
     bordercolor="#ffffff"
     borderopacity="1"
     inkscape:showpageshadow="0"
     inkscape:pageopacity="0"
     inkscape:pagecheckerboard="1"
     inkscape:deskcolor="#d1d1d1"
     inkscape:zoom="0.94888599"
     inkscape:cx="314.57942"
     inkscape:cy="407.84668"
     inkscape:window-width="1920"
     inkscape:window-height="1002"
     inkscape:window-x="0"
     inkscape:window-y="0"
     inkscape:window-maximized="1"
     inkscape:current-layer="g1">
    <inkscape:page
       x="0"
       y="0"
       inkscape:label="1"
       id="page1"
       width="629.67999"
       height="815.69336"
       margin="0"
       bleed="0" />
  </sodipodi:namedview>
  <g
     id="g1"
     inkscape:groupmode="layer"
     inkscape:label="1">
    <g
       id="group-R5">
      <path
         id="path2"
         d="m 1126.08,100.262 c 0,7.519 -1.07,13.996 -3.3,19.308 -2.16,5.379 -5.2,9.532 -9.1,12.461 -3.89,2.84 -8.18,4.297 -12.92,4.297 -7.49,0 -13.83,-3.156 -18.99,-9.289 -5.15,-6.199 -7.73,-15.258 -7.73,-27.2577 0,-11.3204 2.58,-20.1133 7.65,-26.3125 5.16,-6.3086 11.52,-9.4688 19.07,-9.4688 4.51,0 8.73,1.3711 12.59,4.1484 3.8,2.7305 6.9,6.8399 9.24,12.2735 2.35,5.5195 3.49,12.0976 3.49,19.8401 z m -53.31,41.379 v -3.422 c 5.11,6.543 10.4,11.441 15.91,14.48 5.53,3.11 11.81,4.672 18.8,4.672 8.35,0 16.06,-2.269 23.1,-6.781 7.03,-4.512 12.58,-11.059 16.7,-19.758 4.08,-8.691 6.08,-18.922 6.08,-30.793 0,-8.7109 -1.13,-16.8281 -3.5,-24.039 -2.35,-7.3203 -5.6,-13.5 -9.7,-18.4492 -4.12,-4.9492 -9.03,-8.7813 -14.6,-11.4219 -5.64,-2.7187 -11.69,-4.0195 -18.08,-4.0195 -7.82,0 -14.35,1.6211 -19.62,4.8789 -5.33,3.25 -10.33,8.0117 -15.09,14.3203 V 18.7188 C 1072.77,6.21875 1068.41,0 1059.71,0 c -5.11,0 -8.52,1.58984 -10.13,4.78906 -1.68,3.24219 -2.5,7.94924 -2.5,14.10154 V 141.449 c 0,5.403 1.08,9.449 3.37,12.11 2.29,2.652 5.37,4.011 9.26,4.011 3.86,0 7,-1.359 9.42,-4.14 2.41,-2.75 3.64,-6.7 3.64,-11.789"
         style="fill:#100f0d;fill-opacity:1;fill-rule:nonzero;stroke:none"
         transform="matrix(0.13333333,0,0,-0.13333333,0,815.69333)" />
      <path
         id="path3"
         d="m 1245.91,58.1602 v 3.5781 c -3.27,-4.2774 -6.69,-7.8672 -10.28,-10.7695 -3.59,-2.961 -7.51,-5.1094 -11.74,-6.5 -4.3,-1.418 -9.13,-2.1407 -14.58,-2.1407 -6.54,0 -12.44,1.4414 -17.67,4.25 -5.22,2.8321 -9.27,6.7735 -12.08,11.7539 -3.45,6.0274 -5.1,14.6993 -5.1,25.9571 v 56.2699 c 0,5.652 1.23,9.921 3.69,12.722 2.47,2.797 5.7,4.219 9.74,4.219 4.14,0 7.44,-1.422 9.98,-4.289 2.53,-2.852 3.77,-7.082 3.77,-12.652 V 95.0781 c 0,-6.5273 0.52,-12.0781 1.56,-16.5078 1.11,-4.4922 3.02,-7.9922 5.8,-10.5625 2.7,-2.4883 6.45,-3.7578 11.17,-3.7578 4.63,0 8.93,1.4414 12.96,4.2695 4.08,2.8086 7.05,6.5118 8.89,11.0899 1.52,4.0312 2.28,12.832 2.28,26.4106 v 34.539 c 0,5.57 1.26,9.8 3.81,12.652 2.5,2.867 5.75,4.289 9.83,4.289 4.06,0 7.3,-1.422 9.77,-4.219 2.42,-2.801 3.63,-7.07 3.63,-12.722 V 58.332 c 0,-5.4023 -1.13,-9.4804 -3.49,-12.1523 -2.33,-2.7383 -5.37,-4.0586 -9.1,-4.0586 -3.71,0 -6.77,1.4375 -9.21,4.168 -2.42,2.8593 -3.63,6.7422 -3.63,11.8711"
         style="fill:#100f0d;fill-opacity:1;fill-rule:nonzero;stroke:none"
         transform="matrix(0.13333333,0,0,-0.13333333,0,815.69333)" />
      <path
         id="path4"
         d="m 1324.81,99.1406 c 0,-11.289 2.46,-19.9414 7.38,-26.0312 4.97,-6.0274 11.47,-9.1094 19.52,-9.1094 6.85,0 12.71,3.1211 17.69,9.3203 4.98,6.2188 7.46,15.0508 7.46,26.6485 0,7.5622 -1.04,13.9722 -3.11,19.3592 -2.08,5.442 -5.02,9.621 -8.76,12.543 -3.85,2.938 -8.21,4.457 -13.28,4.457 -5.23,0 -9.77,-1.519 -13.85,-4.457 -4.08,-2.922 -7.24,-7.211 -9.58,-12.801 -2.33,-5.539 -3.47,-12.16 -3.47,-19.9294 z m -1.29,84.3794 v -43.391 c 5.05,5.601 10.3,9.801 15.6,12.82 5.32,2.922 11.92,4.422 19.74,4.422 9.05,0 16.96,-2.269 23.77,-6.691 6.79,-4.551 12.11,-10.989 15.84,-19.481 3.79,-8.48 5.64,-18.558 5.64,-30.199 0,-8.6094 -1.03,-16.4805 -3.1,-23.7109 -2.11,-7.1407 -5.12,-13.3282 -9.12,-18.6602 -4.02,-5.2383 -8.86,-9.2695 -14.51,-12.25 -5.71,-2.8203 -11.97,-4.2695 -18.81,-4.2695 -4.14,0 -8.12,0.5195 -11.82,1.539 -3.68,1.0508 -6.85,2.4102 -9.37,4.1602 -2.63,1.6016 -4.84,3.4219 -6.68,5.1719 -1.81,1.8398 -4.2,4.5195 -7.18,8.1211 V 58.332 c 0,-5.3711 -1.26,-9.4023 -3.72,-12.1523 -2.43,-2.7383 -5.6,-4.0703 -9.35,-4.0703 -3.87,0 -6.92,1.332 -9.25,4.0703 -2.26,2.8086 -3.41,6.8008 -3.41,12.1523 v 123.957 c 0,5.711 1.11,10.07 3.36,13.012 2.21,2.961 5.29,4.418 9.3,4.418 4.17,0 7.4,-1.387 9.63,-4.231 2.29,-2.777 3.44,-6.75 3.44,-11.968"
         style="fill:#100f0d;fill-opacity:1;fill-rule:nonzero;stroke:none"
         transform="matrix(0.13333333,0,0,-0.13333333,0,815.69333)" />
      <path
         id="path5"
         d="M 1423.31,59.3789 V 182.469 c 0,5.711 1.21,9.98 3.6,12.91 2.47,2.883 5.72,4.34 9.84,4.34 4.12,0 7.42,-1.41 9.96,-4.297 2.49,-2.871 3.8,-7.223 3.8,-12.953 V 59.3789 c 0,-5.7578 -1.31,-10.0976 -3.86,-13 -2.54,-2.8203 -5.85,-4.2695 -9.9,-4.2695 -3.99,0 -7.18,1.4922 -9.69,4.4687 -2.5,2.9922 -3.75,7.2305 -3.75,12.8008"
         style="fill:#100f0d;fill-opacity:1;fill-rule:nonzero;stroke:none"
         transform="matrix(0.13333333,0,0,-0.13333333,0,815.69333)" />
      <path
         id="path6"
         d="M 1505.78,141.371 V 59.3789 c 0,-5.7187 -1.33,-10.0195 -3.85,-12.9297 -2.62,-2.8476 -5.92,-4.3398 -9.87,-4.3398 -4,0 -7.25,1.4922 -9.73,4.4414 -2.46,3.0195 -3.75,7.2578 -3.75,12.8281 v 81.1801 c 0,5.57 1.29,9.8 3.75,12.652 2.48,2.867 5.73,4.289 9.73,4.289 3.95,0 7.25,-1.422 9.87,-4.289 2.52,-2.852 3.85,-6.781 3.85,-11.84 z m -13.45,29.348 c -3.79,0 -7,1.211 -9.75,3.703 -2.62,2.406 -4,5.867 -4,10.316 0,4 1.38,7.282 4.15,9.922 2.75,2.61 5.95,3.828 9.6,3.828 3.51,0 6.65,-1.136 9.37,-3.476 2.71,-2.364 4.08,-5.821 4.08,-10.274 0,-4.41 -1.34,-7.816 -4,-10.238 -2.66,-2.461 -5.77,-3.781 -9.45,-3.781"
         style="fill:#100f0d;fill-opacity:1;fill-rule:nonzero;stroke:none"
         transform="matrix(0.13333333,0,0,-0.13333333,0,815.69333)" />
      <path
         id="path7"
         d="m 1631.3,77.25 c 0,-3.5117 -0.99,-7.3086 -3.01,-11.3398 -2.05,-4.0118 -5.14,-7.8204 -9.3,-11.4688 -4.13,-3.6211 -9.36,-6.5508 -15.67,-8.75 -6.31,-2.2812 -13.43,-3.3633 -21.31,-3.3633 -16.82,0 -29.93,5.1328 -39.37,15.3321 -9.41,10.2304 -14.14,23.8984 -14.14,41.1093 0,11.6405 2.15,21.9605 6.45,30.8715 4.31,8.89 10.61,15.859 18.74,20.718 8.15,4.922 17.95,7.36 29.27,7.36 7.06,0 13.53,-1.098 19.42,-3.219 5.87,-2.172 10.85,-4.949 14.93,-8.309 4.08,-3.41 7.2,-7.043 9.37,-10.863 2.18,-3.84 3.23,-7.437 3.23,-10.769 0,-3.348 -1.24,-6.227 -3.63,-8.61 -2.45,-2.379 -5.35,-3.539 -8.81,-3.539 -2.28,0 -4.14,0.649 -5.66,1.86 -1.45,1.179 -3.15,3.082 -5.03,5.839 -3.3,5.25 -6.79,9.231 -10.4,11.922 -3.63,2.598 -8.23,3.949 -13.76,3.949 -8.09,0 -14.56,-3.332 -19.47,-9.871 -4.92,-6.578 -7.35,-15.539 -7.35,-26.9098 0,-5.3008 0.63,-10.2695 1.91,-14.6992 1.25,-4.4883 3.07,-8.2891 5.44,-11.4687 2.41,-3.1524 5.27,-5.5196 8.67,-7.1602 3.39,-1.6602 7.12,-2.4531 11.14,-2.4531 5.48,0 10.13,1.2929 14.02,3.9336 3.89,2.6679 7.33,6.6875 10.31,12.0273 1.67,3.2695 3.45,5.7422 5.39,7.5703 1.94,1.8125 4.31,2.6602 7.09,2.6602 3.31,0 6.06,-1.2696 8.28,-3.9102 2.15,-2.6992 3.25,-5.4687 3.25,-8.4492"
         style="fill:#100f0d;fill-opacity:1;fill-rule:nonzero;stroke:none"
         transform="matrix(0.13333333,0,0,-0.13333333,0,815.69333)" />
      <path
         id="path8"
         d="m 1676.11,99.9688 c 0,-7.6993 1.14,-14.1993 3.42,-19.6407 2.31,-5.4179 5.4,-9.4492 9.39,-12.1797 4.01,-2.7773 8.37,-4.1484 13.04,-4.1484 4.79,0 9.15,1.3281 13.1,3.8906 3.97,2.6094 7.09,6.6289 9.48,11.9883 2.36,5.3516 3.53,12.082 3.53,20.0899 0,7.6012 -1.17,14.0622 -3.53,19.5312 -2.39,5.449 -5.56,9.602 -9.56,12.531 -4.03,2.84 -8.41,4.297 -13.19,4.297 -4.96,0 -9.41,-1.519 -13.34,-4.457 -3.89,-2.922 -6.97,-7.203 -9.12,-12.699 -2.14,-5.531 -3.22,-11.871 -3.22,-19.2032 z m 53.46,-41.6368 v 2.7696 c -3.66,-4.3711 -7.26,-7.9102 -10.86,-10.6133 -3.49,-2.7695 -7.37,-4.8399 -11.52,-6.2695 -4.13,-1.379 -8.67,-2.1094 -13.57,-2.1094 -6.5,0 -12.57,1.4492 -18.09,4.2695 -5.53,2.9805 -10.32,7.0313 -14.38,12.3711 -4.04,5.3398 -7.12,11.6094 -9.23,18.8398 -2.12,7.1797 -3.14,14.9805 -3.14,23.4102 0,17.699 4.16,31.59 12.47,41.512 8.32,9.91 19.22,14.859 32.75,14.859 7.84,0 14.46,-1.43 19.83,-4.293 5.36,-2.758 10.63,-7.078 15.74,-12.949 v 41.922 c 0,5.84 1.09,10.23 3.34,13.199 2.21,3 5.35,4.469 9.49,4.469 4.11,0 7.28,-1.367 9.53,-4.078 2.21,-2.719 3.36,-6.782 3.36,-12.121 V 58.332 c 0,-5.4023 -1.21,-9.4804 -3.62,-12.1523 -2.4,-2.7383 -5.45,-4.0703 -9.27,-4.0703 -3.68,0 -6.79,1.3906 -9.23,4.1797 -2.4,2.8125 -3.6,6.7812 -3.6,12.0429"
         style="fill:#100f0d;fill-opacity:1;fill-rule:nonzero;stroke:none"
         transform="matrix(0.13333333,0,0,-0.13333333,0,815.69333)" />
      <path
         id="path9"
         d="m 1857.09,99.7383 c 0,11.5427 -2.48,20.5817 -7.33,27.0197 -4.89,6.414 -11.46,9.66 -19.68,9.66 -5.35,0 -10,-1.438 -14.06,-4.309 -4.04,-2.918 -7.16,-7.16 -9.35,-12.781 -2.18,-5.547 -3.3,-12.066 -3.3,-19.5897 0,-7.4297 1.12,-13.8789 3.24,-19.4102 2.14,-5.5468 5.25,-9.7968 9.29,-12.75 4,-2.9375 8.77,-4.3789 14.18,-4.3789 8.22,0 14.79,3.211 19.68,9.6914 4.85,6.4492 7.33,15.4492 7.33,26.8477 z m 27.29,0 c 0,-8.4102 -1.28,-16.207 -3.79,-23.3985 -2.52,-7.082 -6.17,-13.2304 -10.93,-18.3789 -4.82,-5.1328 -10.52,-8.9726 -17.16,-11.7812 -6.63,-2.7383 -14.16,-4.0703 -22.42,-4.0703 -8.22,0 -15.64,1.332 -22.19,4.1523 -6.59,2.7578 -12.31,6.7188 -17.13,11.8985 -4.79,5.1796 -8.43,11.2304 -10.95,18.2578 -2.49,7.082 -3.72,14.8203 -3.72,23.3711 0,8.5899 1.27,16.4609 3.77,23.5699 2.52,7.172 6.12,13.231 10.85,18.332 4.72,5.039 10.42,8.938 17.18,11.668 6.72,2.75 14.08,4.141 22.19,4.141 8.25,0 15.72,-1.391 22.42,-4.168 6.69,-2.773 12.44,-6.762 17.21,-11.883 4.82,-5.121 8.44,-11.258 10.88,-18.328 2.55,-7.051 3.79,-14.851 3.79,-23.3827"
         style="fill:#100f0d;fill-opacity:1;fill-rule:nonzero;stroke:none"
         transform="matrix(0.13333333,0,0,-0.13333333,0,815.69333)" />
      <path
         id="path10"
         d="m 1999.23,123.191 c -2.04,-4.8 -3,-13.261 -3,-25.4605 v -37.711 c 0,-5.9414 -1.27,-10.4492 -3.9,-13.4414 -2.57,-2.9765 -6.04,-4.4687 -10.28,-4.4687 -4.08,0 -7.41,1.4922 -9.95,4.4687 -2.56,2.9922 -3.81,7.5 -3.81,13.4414 v 45.2695 c 0,7.121 -0.27,12.652 -0.74,16.652 -0.47,3.911 -1.72,7.168 -3.79,9.707 -2.01,2.551 -5.29,3.801 -9.72,3.801 -8.89,0 -14.74,-3.187 -17.59,-9.597 -2.85,-6.352 -4.19,-15.512 -4.19,-27.4614 V 60.0195 c 0,-5.9297 -1.31,-10.3984 -3.84,-13.3398 -2.58,-3.0781 -5.95,-4.5703 -10.09,-4.5703 -4.15,0 -7.55,1.4922 -10.16,4.5703 -2.64,2.9414 -3.89,7.4101 -3.89,13.332 v 81.2073 c 0,5.351 1.13,9.41 3.46,12.172 2.39,2.757 5.49,4.179 9.37,4.179 3.72,0 6.83,-1.289 9.3,-3.89 2.48,-2.59 3.73,-6.16 3.73,-10.75 v -2.7 c 4.7,5.899 9.76,10.239 15.12,12.981 5.37,2.769 11.41,4.16 17.94,4.16 6.82,0 12.67,-1.43 17.59,-4.293 4.94,-2.808 8.97,-7.117 12.13,-12.848 4.6,5.77 9.51,10.129 14.78,12.93 5.25,2.82 11.05,4.211 17.4,4.211 7.49,0 13.88,-1.5 19.22,-4.59 5.4,-3.051 9.41,-7.402 12.08,-13.09 2.34,-5.132 3.47,-13.203 3.47,-24.242 V 60.0195 c 0,-5.9414 -1.29,-10.4492 -3.83,-13.4414 -2.65,-2.9765 -6.04,-4.4687 -10.29,-4.4687 -4.13,0 -7.49,1.4922 -10.1,4.5703 -2.66,2.9414 -3.97,7.4101 -3.97,13.3398 v 47.7615 c 0,6.098 -0.24,10.981 -0.73,14.66 -0.51,3.707 -1.85,6.75 -4.07,9.258 -2.17,2.5 -5.51,3.75 -9.92,3.75 -3.59,0 -7.01,-1.121 -10.18,-3.289 -3.27,-2.238 -5.72,-5.219 -7.55,-8.969 v 0"
         style="fill:#100f0d;fill-opacity:1;fill-rule:nonzero;stroke:none"
         transform="matrix(0.13333333,0,0,-0.13333333,0,815.69333)" />
      <path
         id="path11"
         d="m 2153.25,99.1992 c -4.01,-1.5586 -9.8,-3.1211 -17.41,-4.8476 -7.61,-1.7032 -12.87,-2.9414 -15.8,-3.75 -2.93,-0.8203 -5.72,-2.3633 -8.34,-4.6602 -2.68,-2.3906 -4.02,-5.6133 -4.02,-9.7695 0,-4.3438 1.58,-7.961 4.67,-10.9922 3.14,-3.0586 7.23,-4.5313 12.28,-4.5313 5.37,0 10.37,1.25 14.9,3.711 4.55,2.4414 7.92,5.6601 10,9.5 2.47,4.3203 3.72,11.3711 3.72,21.3008 z m 1.77,-41.1094 c -6.59,-5.3515 -12.94,-9.3203 -19.08,-11.9609 -6.13,-2.7187 -13.05,-4.0195 -20.65,-4.0195 -7.02,0 -13.09,1.4492 -18.41,4.2695 -5.32,2.9024 -9.35,6.8125 -12.22,11.7813 -2.82,4.9101 -4.28,10.1992 -4.28,15.9882 0,7.7618 2.41,14.3516 7.12,19.8399 4.67,5.4531 11.14,9.1327 19.37,11.0237 1.73,0.418 6.04,1.308 12.84,2.769 6.91,1.489 12.71,2.789 17.67,4 4.83,1.188 10.16,2.68 15.87,4.399 -0.35,7.519 -1.79,13.011 -4.32,16.582 -2.6,3.468 -7.93,5.179 -15.92,5.179 -6.94,0 -12.11,-0.98 -15.64,-2.992 -3.46,-1.988 -6.48,-5.027 -8.93,-9.097 -2.52,-4 -4.24,-6.661 -5.28,-7.922 -1.06,-1.321 -3.27,-1.899 -6.6,-1.899 -3.1,0 -5.73,1.008 -7.92,3.028 -2.26,2.062 -3.36,4.64 -3.36,7.882 0,4.969 1.69,9.86 5.06,14.508 3.4,4.742 8.69,8.602 15.85,11.711 7.16,3.051 16.12,4.559 26.82,4.559 11.93,0 21.34,-1.508 28.23,-4.438 6.82,-2.922 11.6,-7.551 14.45,-13.98 2.84,-6.34 4.24,-14.832 4.24,-25.36 0,-6.64 0,-12.332 -0.04,-16.941 -0.06,-4.6914 -0.09,-9.8398 -0.15,-15.5195 0,-5.3086 0.84,-10.9024 2.55,-16.6602 1.66,-5.789 2.5,-9.5312 2.5,-11.1601 0,-2.9219 -1.33,-5.5899 -3.94,-7.9688 -2.56,-2.3828 -5.57,-3.582 -8.87,-3.582 -2.83,0 -5.53,1.332 -8.3,4.0703 -2.71,2.75 -5.6,6.75 -8.66,11.9101"
         style="fill:#100f0d;fill-opacity:1;fill-rule:nonzero;stroke:none"
         transform="matrix(0.13333333,0,0,-0.13333333,0,815.69333)" />
      <path
         id="path12"
         d="M 2234.75,141.371 V 59.3789 c 0,-5.7187 -1.3,-10.0195 -3.85,-12.9297 -2.59,-2.8476 -5.86,-4.3398 -9.86,-4.3398 -3.97,0 -7.25,1.4922 -9.71,4.4414 -2.52,3.0195 -3.77,7.2578 -3.77,12.8281 v 81.1801 c 0,5.57 1.25,9.8 3.77,12.652 2.46,2.867 5.74,4.289 9.71,4.289 4,0 7.27,-1.422 9.86,-4.289 2.55,-2.852 3.85,-6.781 3.85,-11.84 z m -13.44,29.348 c -3.75,0 -6.97,1.211 -9.66,3.703 -2.69,2.406 -4.09,5.867 -4.09,10.316 0,4 1.41,7.282 4.17,9.922 2.73,2.61 5.97,3.828 9.58,3.828 3.53,0 6.69,-1.136 9.42,-3.476 2.68,-2.364 4.02,-5.821 4.02,-10.274 0,-4.41 -1.3,-7.816 -3.97,-10.238 -2.66,-2.461 -5.81,-3.781 -9.47,-3.781"
         style="fill:#100f0d;fill-opacity:1;fill-rule:nonzero;stroke:none"
         transform="matrix(0.13333333,0,0,-0.13333333,0,815.69333)" />
      <path
         id="path13"
         d="m 2287.6,141.781 v -3.39 c 4.76,6.57 9.98,11.398 15.62,14.48 5.69,3.07 12.22,4.629 19.63,4.629 7.13,0 13.57,-1.629 19.25,-4.922 5.59,-3.238 9.84,-7.816 12.59,-13.758 1.82,-3.492 2.94,-7.269 3.52,-11.281 0.49,-3.969 0.8,-9.109 0.8,-15.371 V 59.3789 c 0,-5.7187 -1.29,-10.0195 -3.76,-12.9297 -2.5,-2.8476 -5.74,-4.3398 -9.71,-4.3398 -4.04,0 -7.35,1.4922 -9.77,4.4687 -2.56,2.9922 -3.86,7.2305 -3.86,12.8008 v 47.2691 c 0,9.403 -1.21,16.543 -3.69,21.481 -2.54,4.949 -7.52,7.473 -14.96,7.473 -4.84,0 -9.25,-1.532 -13.22,-4.563 -3.98,-2.98 -6.91,-7.141 -8.76,-12.418 -1.33,-4.23 -2.03,-12.09 -2.03,-23.7421 v -35.5 c 0,-5.7578 -1.25,-10.0976 -3.82,-13 -2.57,-2.8203 -5.87,-4.2695 -9.9,-4.2695 -3.89,0 -7.14,1.4922 -9.65,4.4414 -2.57,3.0195 -3.8,7.2578 -3.8,12.8281 v 81.9921 c 0,5.43 1.11,9.43 3.4,12.098 2.21,2.679 5.37,4.031 9.27,4.031 2.35,0 4.54,-0.641 6.43,-1.77 1.99,-1.16 3.48,-2.992 4.65,-5.261 1.12,-2.41 1.77,-5.289 1.77,-8.688"
         style="fill:#100f0d;fill-opacity:1;fill-rule:nonzero;stroke:none"
         transform="matrix(0.13333333,0,0,-0.13333333,0,815.69333)" />
      <path
         id="path14"
         d="m 2402.65,139.828 21.96,-64.4374 23.72,67.2504 c 1.89,5.418 3.71,9.199 5.52,11.468 1.83,2.243 4.5,3.391 8.14,3.391 3.45,0 6.38,-1.219 8.86,-3.691 2.38,-2.399 3.6,-5.161 3.6,-8.43 0,-1.219 -0.24,-2.66 -0.67,-4.277 -0.39,-1.704 -0.88,-3.262 -1.48,-4.762 -0.57,-1.391 -1.15,-3.078 -1.94,-4.942 l -26.09,-67.5699 c -0.73,-1.9297 -1.7,-4.4179 -2.83,-7.4101 -1.18,-2.9688 -2.5,-5.4571 -3.89,-7.6485 -1.46,-2.0898 -3.2,-3.6992 -5.27,-4.8906 -2.13,-1.1797 -4.68,-1.7695 -7.67,-1.7695 -3.84,0 -6.9,0.8984 -9.22,2.7109 -2.29,1.8594 -3.99,3.8399 -5.07,6.0703 -1.08,2.1407 -2.96,6.4883 -5.52,12.9375 l -25.93,66.8439 c -0.59,1.629 -1.24,3.308 -1.88,4.976 -0.6,1.661 -1.09,3.321 -1.56,5.09 -0.42,1.774 -0.66,3.25 -0.66,4.442 0,1.98 0.57,3.898 1.72,5.8 1.13,1.93 2.69,3.5 4.68,4.68 2.02,1.199 4.13,1.84 6.5,1.84 4.47,0 7.59,-1.352 9.3,-4.109 1.7,-2.672 3.6,-7.2 5.68,-13.563"
         style="fill:#100f0d;fill-opacity:1;fill-rule:nonzero;stroke:none"
         transform="matrix(0.13333333,0,0,-0.13333333,0,815.69333)" />
      <path
         id="path15"
         d="m 2513.88,109.012 h 49.29 c -0.63,9.668 -3.12,16.918 -7.5,21.718 -4.37,4.79 -10.1,7.211 -17.22,7.211 -6.73,0 -12.31,-2.453 -16.64,-7.312 -4.34,-4.859 -6.95,-12.09 -7.93,-21.617 z m 53.2,-16.1526 h -53.2 c 0.01,-6.4688 1.31,-12.1406 3.69,-17.0977 2.46,-4.8828 5.67,-8.6015 9.7,-11.1211 4,-2.5195 8.46,-3.7226 13.31,-3.7226 3.24,0 6.25,0.3906 8.9,1.1718 2.67,0.8399 5.31,2.0821 7.86,3.75 2.48,1.6993 4.78,3.4688 6.93,5.4883 2.1,1.9414 4.93,4.5313 8.27,7.8711 1.41,1.3086 3.42,1.9024 5.97,1.9024 2.84,0 5.07,-0.7735 6.81,-2.4102 1.73,-1.5898 2.54,-3.8203 2.54,-6.7305 0,-2.5703 -0.94,-5.5703 -2.88,-9.0312 -1.91,-3.3789 -4.76,-6.6992 -8.72,-9.8984 -3.89,-3.1211 -8.76,-5.6915 -14.64,-7.8321 -5.85,-2.0703 -12.58,-3.0898 -20.29,-3.0898 -17.43,0 -31.03,5.2304 -40.69,15.5703 -9.69,10.4492 -14.51,24.5117 -14.51,42.2891 0,8.4922 1.23,16.2112 3.56,23.3712 2.39,7.191 5.86,13.332 10.46,18.441 4.59,5.16 10.2,9.117 16.93,11.821 6.73,2.75 14.14,4.117 22.34,4.117 10.55,0 19.7,-2.328 27.29,-7.039 7.63,-4.68 13.31,-10.68 17.09,-18.09 3.79,-7.461 5.69,-14.981 5.69,-22.731 0,-7.078 -1.91,-11.7106 -5.86,-13.8082 -3.96,-2.1524 -9.44,-3.1914 -16.55,-3.1914"
         style="fill:#100f0d;fill-opacity:1;fill-rule:nonzero;stroke:none"
         transform="matrix(0.13333333,0,0,-0.13333333,0,815.69333)" />
      <path
         id="path16"
         d="m 2709.97,77.25 c 0,-3.5117 -1.01,-7.3086 -3.08,-11.3398 -2.03,-4.0118 -5.06,-7.8204 -9.25,-11.4688 -4.13,-3.6211 -9.4,-6.5508 -15.73,-8.75 -6.27,-2.2812 -13.42,-3.3633 -21.25,-3.3633 -16.87,0 -29.97,5.1328 -39.39,15.3321 -9.4,10.2304 -14.15,23.8984 -14.15,41.1093 0,11.6405 2.14,21.9605 6.5,30.8715 4.32,8.89 10.51,15.859 18.71,20.718 8.13,4.922 17.93,7.36 29.31,7.36 7.03,0 13.46,-1.098 19.39,-3.219 5.86,-2.172 10.8,-4.949 14.94,-8.309 4.08,-3.41 7.17,-7.043 9.36,-10.863 2.14,-3.84 3.21,-7.437 3.21,-10.769 0,-3.348 -1.18,-6.227 -3.68,-8.61 -2.39,-2.379 -5.32,-3.539 -8.78,-3.539 -2.26,0 -4.13,0.649 -5.6,1.86 -1.52,1.179 -3.18,3.082 -5.06,5.839 -3.33,5.25 -6.77,9.231 -10.4,11.922 -3.62,2.598 -8.22,3.949 -13.81,3.949 -7.99,0 -14.49,-3.332 -19.4,-9.871 -4.96,-6.578 -7.4,-15.539 -7.4,-26.9098 0,-5.3008 0.67,-10.2695 1.88,-14.6992 1.27,-4.4883 3.12,-8.2891 5.52,-11.4687 2.38,-3.1524 5.29,-5.5196 8.67,-7.1602 3.33,-1.6602 7.07,-2.4531 11.16,-2.4531 5.43,0 10.11,1.2929 14,3.9336 3.87,2.6679 7.33,6.6875 10.32,12.0273 1.67,3.2695 3.43,5.7422 5.38,7.5703 1.91,1.8125 4.23,2.6602 7.07,2.6602 3.27,0 6.08,-1.2696 8.19,-3.9102 2.24,-2.6992 3.37,-5.4687 3.37,-8.4492"
         style="fill:#100f0d;fill-opacity:1;fill-rule:nonzero;stroke:none"
         transform="matrix(0.13333333,0,0,-0.13333333,0,815.69333)" />
      <path
         id="path17"
         d="m 2735.22,155.102 h 2.99 v 17.058 c 0,4.539 0.12,8.168 0.37,10.762 0.22,2.598 0.82,4.777 1.94,6.687 1.03,1.911 2.56,3.5 4.59,4.743 1.97,1.179 4.19,1.757 6.65,1.757 3.44,0 6.57,-1.328 9.35,-4.007 1.81,-1.832 3.03,-4 3.52,-6.582 0.51,-2.598 0.74,-6.34 0.74,-11.098 v -19.32 h 10 c 3.84,0 6.79,-0.961 8.81,-2.872 2.07,-1.91 3.05,-4.32 3.05,-7.308 0,-3.82 -1.43,-6.531 -4.36,-8.024 -2.87,-1.488 -7.02,-2.269 -12.39,-2.269 h -5.11 V 82.3594 c 0,-4.4492 0.16,-7.8711 0.45,-10.2891 0.35,-2.4101 1.19,-4.3515 2.45,-5.789 1.26,-1.5118 3.37,-2.2813 6.31,-2.2813 1.59,0 3.74,0.2695 6.49,0.8984 2.66,0.5704 4.79,0.8829 6.35,0.8829 2.17,0 4.22,-0.961 5.94,-2.711 1.72,-1.8906 2.63,-4.1211 2.63,-6.8398 0,-4.5508 -2.34,-8.0586 -7.16,-10.4922 -4.83,-2.4297 -11.69,-3.6289 -20.61,-3.6289 -8.51,0 -14.97,1.4922 -19.36,4.4687 -4.35,2.9922 -7.27,7.0821 -8.58,12.4102 -1.4,5.2617 -2.07,12.293 -2.07,21.0898 v 54.5509 h -3.62 c -3.84,0 -6.84,0.973 -8.92,2.922 -2.07,1.937 -3.08,4.371 -3.08,7.371 0,2.988 1.06,5.398 3.2,7.308 2.18,1.911 5.3,2.872 9.43,2.872"
         style="fill:#100f0d;fill-opacity:1;fill-rule:nonzero;stroke:none"
         transform="matrix(0.13333333,0,0,-0.13333333,0,815.69333)" />
      <path
         id="path18"
         d="m 2880.42,99.7383 c 0,11.5427 -2.47,20.5817 -7.32,27.0197 -4.93,6.414 -11.43,9.66 -19.69,9.66 -5.33,0 -10,-1.438 -14.02,-4.309 -4.08,-2.918 -7.2,-7.16 -9.38,-12.781 -2.18,-5.547 -3.31,-12.066 -3.31,-19.5897 0,-7.4297 1.13,-13.8789 3.28,-19.4102 2.14,-5.5468 5.21,-9.7968 9.22,-12.75 4.01,-2.9375 8.75,-4.3789 14.21,-4.3789 8.26,0 14.76,3.211 19.69,9.6914 4.85,6.4492 7.32,15.4492 7.32,26.8477 z m 27.3,0 c 0,-8.4102 -1.25,-16.207 -3.82,-23.3985 -2.5,-7.082 -6.17,-13.2304 -10.93,-18.3789 -4.79,-5.1328 -10.51,-8.9726 -17.13,-11.7812 -6.67,-2.7383 -14.09,-4.0703 -22.43,-4.0703 -8.27,0 -15.68,1.332 -22.22,4.1523 -6.57,2.7578 -12.29,6.7188 -17.09,11.8985 -4.8,5.1796 -8.46,11.2304 -10.91,18.2578 -2.48,7.082 -3.7,14.8203 -3.7,23.3711 0,8.5899 1.22,16.4609 3.7,23.5699 2.58,7.172 6.15,13.231 10.86,18.332 4.75,5.039 10.45,8.938 17.14,11.668 6.77,2.75 14.16,4.141 22.22,4.141 8.26,0 15.7,-1.391 22.43,-4.168 6.7,-2.773 12.43,-6.762 17.22,-11.883 4.73,-5.121 8.44,-11.258 10.92,-18.328 2.49,-7.051 3.74,-14.851 3.74,-23.3827"
         style="fill:#100f0d;fill-opacity:1;fill-rule:nonzero;stroke:none"
         transform="matrix(0.13333333,0,0,-0.13333333,0,815.69333)" />
      <path
         id="path19"
         d="M 2956.17,83 V 59.3789 c 0,-5.7578 -1.31,-10.0976 -3.91,-13 -2.6,-2.8203 -5.87,-4.2695 -9.89,-4.2695 -3.87,0 -7.12,1.4922 -9.63,4.3398 -2.52,2.9102 -3.76,7.211 -3.76,12.9297 v 78.9921 c 0,12.77 4.39,19.129 13.23,19.129 4.47,0 7.75,-1.52 9.78,-4.469 1.95,-2.98 3.01,-7.39 3.27,-13.203 3.23,5.813 6.61,10.223 10.04,13.203 3.42,2.949 7.96,4.469 13.64,4.469 5.76,0 11.28,-1.52 16.68,-4.469 5.35,-2.98 8.08,-6.953 8.08,-11.851 0,-3.461 -1.19,-6.371 -3.47,-8.59 -2.27,-2.231 -4.75,-3.399 -7.44,-3.399 -0.98,0 -3.4,0.661 -7.21,1.969 -3.85,1.262 -7.22,1.918 -10.16,1.918 -3.93,0 -7.18,-1.047 -9.68,-3.289 -2.54,-2.219 -4.51,-5.41 -5.9,-9.699 -1.4,-4.34 -2.4,-9.43 -2.9,-15.391 -0.51,-5.8904 -0.77,-13.0896 -0.77,-21.699"
         style="fill:#100f0d;fill-opacity:1;fill-rule:nonzero;stroke:none"
         transform="matrix(0.13333333,0,0,-0.13333333,0,815.69333)" />
      <path
         id="path20"
         d="m 3101.02,79.1914 c 0,-7.8633 -1.83,-14.5508 -5.52,-20.1328 -3.67,-5.6094 -9.05,-9.7773 -16.2,-12.6875 -7.17,-2.8125 -15.82,-4.2617 -26.1,-4.2617 -9.68,0 -18.1,1.539 -25.09,4.6914 -6.97,3.1094 -12.13,6.9805 -15.42,11.6484 -3.36,4.6602 -5.07,9.3594 -5.07,14.0625 0,3.1094 1.1,5.7891 3.27,7.9961 2.11,2.2735 4.82,3.3203 8.03,3.3203 2.87,0 5.1,-0.7383 6.61,-2.1367 1.53,-1.5508 2.95,-3.5508 4.39,-6.1914 2.78,-5.0586 6.1,-8.8398 10.05,-11.3281 3.81,-2.5313 9.12,-3.7735 15.88,-3.7735 5.42,0 9.9,1.293 13.39,3.8125 3.47,2.5274 5.27,5.4102 5.27,8.6797 0,5.0196 -1.84,8.668 -5.43,10.9297 -3.67,2.3399 -9.6,4.5195 -17.9,6.5781 -9.36,2.4297 -17.01,4.9805 -22.89,7.6211 -5.87,2.6915 -10.63,6.2305 -14.12,10.6015 -3.52,4.301 -5.31,9.711 -5.31,16.078 0,5.731 1.64,11.09 4.9,16.133 3.24,5.059 8.11,9.09 14.43,12.117 6.33,3.031 13.97,4.551 22.99,4.551 7,0 13.33,-0.789 18.97,-2.309 5.6,-1.511 10.34,-3.582 14.03,-6.113 3.75,-2.578 6.65,-5.418 8.59,-8.519 1.99,-3.149 2.96,-6.2 2.96,-9.161 0,-3.269 -1.03,-5.878 -3.17,-8.039 -2.1,-2.007 -5.09,-3.058 -8.88,-3.058 -2.83,0 -5.19,0.82 -7.19,2.519 -1.91,1.641 -4.19,4.121 -6.7,7.399 -2.06,2.781 -4.46,5.019 -7.29,6.679 -2.79,1.633 -6.57,2.5 -11.32,2.5 -4.93,0 -9.06,-1.078 -12.25,-3.289 -3.28,-2.168 -4.92,-4.91 -4.92,-8.16 0,-3 1.21,-5.429 3.56,-7.34 2.43,-1.91 5.63,-3.488 9.7,-4.75 4.08,-1.25 9.64,-2.8 16.75,-4.578 8.46,-2.14 15.32,-4.679 20.68,-7.691 5.34,-2.949 9.39,-6.4806 12.14,-10.5392 2.8,-4.0899 4.18,-8.711 4.18,-13.8594"
         style="fill:#100f0d;fill-opacity:1;fill-rule:nonzero;stroke:none"
         transform="matrix(0.13333333,0,0,-0.13333333,0,815.69333)" />
      <path
         id="path21"
         d="m 3131.9,42.1094 c -4.12,0 -7.69,1.332 -10.64,4.1523 -3.03,2.7578 -4.51,6.668 -4.51,11.6094 0,4.2187 1.4,7.8594 4.23,10.918 2.86,3.039 6.41,4.5312 10.6,4.5312 4.16,0 7.74,-1.4922 10.63,-4.5195 3,-2.961 4.48,-6.6797 4.48,-10.9297 0,-4.9102 -1.48,-8.7695 -4.48,-11.582 -2.89,-2.7891 -6.34,-4.1797 -10.31,-4.1797"
         style="fill:#100f0d;fill-opacity:1;fill-rule:nonzero;stroke:none"
         transform="matrix(0.13333333,0,0,-0.13333333,0,815.69333)" />
      <path
         id="path22"
         d="m 3252.15,99.7383 c 0,11.5427 -2.45,20.5817 -7.33,27.0197 -4.88,6.414 -11.42,9.66 -19.65,9.66 -5.32,0 -9.95,-1.438 -14.02,-4.309 -4.07,-2.918 -7.18,-7.16 -9.36,-12.781 -2.17,-5.547 -3.28,-12.066 -3.28,-19.5897 0,-7.4297 1.05,-13.8789 3.19,-19.4102 2.23,-5.5468 5.28,-9.7968 9.31,-12.75 4,-2.9375 8.72,-4.3789 14.16,-4.3789 8.23,0 14.77,3.211 19.65,9.6914 4.88,6.4492 7.33,15.4492 7.33,26.8477 z m 27.33,0 c 0,-8.4102 -1.25,-16.207 -3.81,-23.3985 -2.54,-7.082 -6.15,-13.2304 -10.95,-18.3789 -4.82,-5.1328 -10.47,-8.9726 -17.13,-11.7812 -6.62,-2.7383 -14.09,-4.0703 -22.42,-4.0703 -8.22,0 -15.62,1.332 -22.2,4.1523 -6.58,2.7578 -12.24,6.7188 -17.05,11.8985 -4.89,5.1796 -8.51,11.2304 -11.03,18.2578 -2.44,7.082 -3.69,14.8203 -3.69,23.3711 0,8.5899 1.25,16.4609 3.79,23.5699 2.56,7.172 6.13,13.231 10.82,18.332 4.71,5.039 10.44,8.938 17.16,11.668 6.7,2.75 14.06,4.141 22.2,4.141 8.23,0 15.7,-1.391 22.42,-4.168 6.74,-2.773 12.46,-6.762 17.26,-11.883 4.74,-5.121 8.38,-11.258 10.9,-18.328 2.48,-7.051 3.73,-14.851 3.73,-23.3827"
         style="fill:#100f0d;fill-opacity:1;fill-rule:nonzero;stroke:none"
         transform="matrix(0.13333333,0,0,-0.13333333,0,815.69333)" />
      <path
         id="path23"
         d="M 3327.92,83 V 59.3789 c 0,-5.7578 -1.3,-10.0976 -3.89,-13 -2.55,-2.8203 -5.88,-4.2695 -9.84,-4.2695 -3.96,0 -7.14,1.4922 -9.68,4.3398 -2.56,2.9102 -3.8,7.211 -3.8,12.9297 v 78.9921 c 0,12.77 4.47,19.129 13.26,19.129 4.52,0 7.75,-1.52 9.74,-4.469 1.96,-2.98 3.12,-7.39 3.36,-13.203 3.19,5.813 6.52,10.223 9.94,13.203 3.43,2.949 8,4.469 13.67,4.469 5.81,0 11.35,-1.52 16.67,-4.469 5.38,-2.98 8.09,-6.953 8.09,-11.851 0,-3.461 -1.15,-6.371 -3.42,-8.59 -2.32,-2.231 -4.75,-3.399 -7.47,-3.399 -0.96,0 -3.35,0.661 -7.17,1.969 -3.84,1.262 -7.21,1.918 -10.16,1.918 -3.95,0 -7.19,-1.047 -9.78,-3.289 -2.48,-2.219 -4.45,-5.41 -5.86,-9.699 -1.36,-4.34 -2.34,-9.43 -2.85,-15.391 -0.53,-5.8904 -0.81,-13.0896 -0.81,-21.699"
         style="fill:#100f0d;fill-opacity:1;fill-rule:nonzero;stroke:none"
         transform="matrix(0.13333333,0,0,-0.13333333,0,815.69333)" />
      <path
         id="path24"
         d="m 3406.43,100.719 c 0,-11.4885 2.42,-20.1995 7.26,-26.1096 4.77,-5.8477 11.04,-8.8281 18.63,-8.8281 4.49,0 8.82,1.3085 12.81,3.8281 4.03,2.5312 7.3,6.3398 9.83,11.4414 2.55,5.1094 3.78,11.2578 3.78,18.539 0,11.5702 -2.47,20.5582 -7.34,26.9882 -4.86,6.5 -11.3,9.75 -19.26,9.75 -7.74,0 -13.98,-3.156 -18.65,-9.289 -4.71,-6.187 -7.06,-14.937 -7.06,-26.32 z m 78.84,35.992 V 54.2383 c 0,-9.457 -1.04,-17.5469 -2.92,-24.3086 -1.93,-6.8281 -5.01,-12.4414 -9.26,-16.8711 -4.25,-4.41797 -9.84,-7.70704 -16.67,-9.85938 C 3449.54,1.08984 3440.97,0 3430.76,0 c -9.39,0 -17.78,1.32031 -25.1,4.05859 -7.39,2.80079 -13.09,6.30081 -17.05,10.66021 -3.99,4.2929 -6,8.75 -6,13.3515 0,3.4805 1.11,6.2813 3.43,8.461 2.23,2.2382 4.96,3.3203 8.13,3.3203 4.01,0 7.45,-1.8633 10.49,-5.5118 1.47,-1.9296 2.99,-3.8007 4.51,-5.6796 1.56,-1.9219 3.3,-3.5899 5.17,-4.8985 1.91,-1.3906 4.21,-2.3906 6.87,-3.0508 2.59,-0.6601 5.7,-0.9921 9.17,-0.9921 6.98,0 12.51,1.0507 16.36,3.0703 3.89,2.039 6.62,4.9023 8.21,8.5625 1.48,3.6797 2.49,7.5976 2.64,11.789 0.33,4.2813 0.51,10.9492 0.7,20.2774 -4.18,-6.0899 -9.1,-10.7383 -14.52,-13.918 -5.47,-3.2109 -12.03,-4.7617 -19.54,-4.7617 -9.18,0 -17.13,2.3828 -23.88,7.2734 -6.85,4.8399 -12.08,11.6172 -15.73,20.3789 -3.6,8.711 -5.47,18.7891 -5.47,30.2304 0,8.578 1.09,16.277 3.35,23.149 2.18,6.82 5.34,12.621 9.53,17.339 4.07,4.719 8.84,8.282 14.22,10.68 5.41,2.359 11.25,3.582 17.75,3.582 7.67,0 14.33,-1.562 19.97,-4.672 5.72,-3.039 10.91,-7.937 15.77,-14.48 v 3.801 c 0,4.96 1.2,8.742 3.5,11.519 2.29,2.672 5.31,4.031 8.94,4.031 5.27,0 8.75,-1.761 10.5,-5.34 1.7,-3.582 2.59,-8.781 2.59,-15.519"
         style="fill:#100f0d;fill-opacity:1;fill-rule:nonzero;stroke:none"
         transform="matrix(0.13333333,0,0,-0.13333333,0,815.69333)" />
      <path
         id="path25"
         d="m 2306.56,413.09 h 40.34 c -2.85,-21.75 -11.76,-38.719 -26.58,-50.942 -13.72,-11.968 -30.33,-17.867 -49.73,-17.867 -26.35,0 -47.37,9.258 -63.07,27.731 -14.88,17.57 -22.3,40.25 -22.3,67.957 0,28.39 7.37,51.09 22.08,68.281 14.71,17.121 35.51,25.719 62.39,25.719 19.99,0 36.91,-5.41 50.63,-16.141 14.54,-11.598 23.43,-27.898 26.58,-48.769 h -40.34 c -3.49,18.211 -14.6,27.261 -33.52,27.261 -31.17,0 -46.79,-18.461 -46.79,-55.422 0,-17.32 4.02,-31.449 12.04,-42.457 8.01,-11.062 19.32,-16.589 33.9,-16.589 21.74,0 33.2,10.429 34.37,31.238 z m -158.79,25.449 c 0,-36.098 11.45,-66.66 34.31,-91.559 22.89,-24.89 50.9,-37.359 84.15,-37.359 33.1,0 61.13,12.469 83.98,37.359 22.92,24.899 34.3,55.461 34.3,91.559 0,36.07 -11.38,66.609 -34.3,91.512 -22.85,24.961 -50.88,37.39 -83.98,37.39 -33.25,0 -61.26,-12.429 -84.15,-37.39 -22.86,-24.903 -34.31,-55.442 -34.31,-91.512 z m -40.98,0 c 0,45.941 15.55,85.152 46.66,117.723 31.15,32.519 68.75,48.777 112.78,48.777 43.92,0 81.46,-16.258 112.64,-48.777 31.13,-32.571 46.73,-71.782 46.73,-117.723 0,-45.98 -15.6,-85.238 -46.73,-117.738 -31.18,-32.551 -68.72,-48.832 -112.64,-48.832 -44.03,0 -81.63,16.281 -112.78,48.832 -31.11,32.5 -46.66,71.758 -46.66,117.738"
         style="fill:#100f0d;fill-opacity:1;fill-rule:nonzero;stroke:none"
         transform="matrix(0.13333333,0,0,-0.13333333,0,815.69333)" />
      <path
         id="path26"
         d="m 2171.29,334.121 23.26,-19.73 170.95,219.527 -23.24,19.703 -170.97,-219.5"
         style="fill:#100f0d;fill-opacity:1;fill-rule:nonzero;stroke:none"
         transform="matrix(0.13333333,0,0,-0.13333333,0,815.69333)" />
      <path
         id="path27"
         d="m 2381.99,1307.59 c 1289.17,0 2340.61,1051.45 2340.61,2340.6 0,1289.16 -1051.44,2340.61 -2340.61,2340.61 C 1092.83,5988.8 41.3906,4937.35 41.3906,3648.19 41.3906,2359.04 1092.83,1307.59 2381.99,1307.59"
         style="fill:#fcd5dd;fill-opacity:1;fill-rule:evenodd;stroke:none"
         transform="matrix(0.13333333,0,0,-0.13333333,0,815.69333)" />
      <path
         id="path28"
         d="m 3222.4,4679.23 -231.64,141.18 c -66.19,35.68 -146.59,32.3 -209.55,-8.82 l -88.91,-39.46 c -54.08,-26.17 -89.59,-79.72 -92.66,-139.7 -2.16,-42.4 -3.3,-84.84 -3.38,-127.29 l 432.58,60.48 193.56,113.61"
         style="fill:#f25168;fill-opacity:1;fill-rule:evenodd;stroke:none"
         transform="matrix(0.13333333,0,0,-0.13333333,0,815.69333)" />
      <path
         id="path29"
         d="m 3108.08,3419.9 746.05,379.1 c -41.87,368.25 -251.79,760.7 -631.73,876.06 l -411.79,-81.24 368.84,-568.49 -286.4,-147.29 10.81,-73.08 c 21.88,-147.98 93.99,-283.92 204.22,-385.06"
         style="fill:#ee2836;fill-opacity:1;fill-rule:evenodd;stroke:none"
         transform="matrix(0.13333333,0,0,-0.13333333,0,815.69333)" />
      <path
         id="path30"
         d="M 4389.66,5535.47 3727.98,4034.73 1474.02,3647.07 663.98,1826.99 0,2123.36 l 969.316,2176.09 2249.744,386.94 503.77,1142.6 666.83,-293.52"
         style="fill:#e61d2b;fill-opacity:1;fill-rule:evenodd;stroke:none"
         transform="matrix(0.13333333,0,0,-0.13333333,0,815.69333)" />
      <path
         id="path31"
         d="m 1719.91,2246.48 -24.37,-167.22 c -49.59,-340.3 -42.54,-689.94 20.87,-1035.11 h 613.1 l -54.37,167.21 -61.4,844.03 c -10.96,150.52 -40.5,300.29 -87.96,445.89 l -160.92,529.5 282.05,135.36 -525.42,501.63 c -173.08,-30.1 -308.72,-155.29 -351.64,-324.55 -42.9,-169.25 14.1,-354.3 147.75,-479.66 l 202.31,-617.08"
         style="fill:#1b1919;fill-opacity:1;fill-rule:evenodd;stroke:none"
         transform="matrix(0.13333333,0,0,-0.13333333,0,815.69333)" />
      <path
         id="path32"
         d="m 1175.82,2246.48 -59.67,-167.22 C 994.711,1738.96 927.934,1389.32 918.469,1044.15 l 626.331,-154.412 -32.3,321.622 116.8,844.03 c 20.83,150.52 22.91,300.29 6.19,445.89 l -49.12,529.5 310.64,135.36 -419.52,501.63 c -179.43,-30.1 -341.51,-155.29 -420.15,-324.55 -78.652,-169.25 -60.719,-354.3 46.47,-479.66 l 72.01,-617.08"
         style="fill:#2e2d2d;fill-opacity:1;fill-rule:evenodd;stroke:none"
         transform="matrix(0.13333333,0,0,-0.13333333,0,815.69333)" />
      <path
         id="path33"
         d="m 1416.69,3674.39 1795.63,308.83 c 47.45,-498.27 -52.56,-852.68 -741.19,-939.73 l -360.2,-212.71 c -401.26,0 -729.56,588.39 -694.24,843.61"
         style="fill:#6ed0ec;fill-opacity:1;fill-rule:evenodd;stroke:none"
         transform="matrix(0.13333333,0,0,-0.13333333,0,815.69333)" />
      <path
         id="path34"
         d="m 3106.35,2152.74 -87.76,367.67 70.99,1261 h 33.54 l 70.98,-1261 -87.75,-367.67"
         style="fill:#2d65b2;fill-opacity:1;fill-rule:evenodd;stroke:none"
         transform="matrix(0.13333333,0,0,-0.13333333,0,815.69333)" />
      <path
         id="path35"
         d="m 3263.17,4136.12 200.3,-263.28 -309.32,-297.9 -200.3,263.27 309.32,297.91"
         style="fill:#ed431e;fill-opacity:1;fill-rule:evenodd;stroke:none"
         transform="matrix(0.13333333,0,0,-0.13333333,0,815.69333)" />
      <path
         id="path36"
         d="m 3402.09,4492.28 473.65,-420.99 -269.1,-406.92 c -97.11,-146.85 -283.13,-172.27 -413.37,-56.5 v 0 c -130.26,115.77 -157.38,330.64 -60.28,477.48 l 269.1,406.93"
         style="fill:#f25168;fill-opacity:1;fill-rule:evenodd;stroke:none"
         transform="matrix(0.13333333,0,0,-0.13333333,0,815.69333)" />
      <path
         id="path37"
         d="m 3448.52,3667.5 c -34.17,-50.82 -98.94,-59.46 -144.37,-19.07 v 0 c -45.44,40.38 -55.06,115.15 -21.61,166.6 l 165.98,-147.53"
         style="fill:#ffffff;fill-opacity:1;fill-rule:evenodd;stroke:none"
         transform="matrix(0.13333333,0,0,-0.13333333,0,815.69333)" />
      <path
         id="path38"
         d="m 3749.79,3880.84 148.62,106.91 c 54.58,51.73 73.65,130.73 48.68,201.66 -24.97,70.92 -89.29,120.57 -164.25,126.71 l -210.34,186.97 c -45.6,40.52 -113.17,44.09 -162.76,8.59 l -26.27,-6.48 c -54.78,-13.52 -100.03,-52 -122.17,-103.91 -75.72,-177.47 -138.51,-304.46 -220.37,-479.19 l 183.28,122.59 86.66,78.62 52.97,-47.07 91.48,158.2 208.21,-209.29 c 36.84,-36.64 83.95,-61.22 135.07,-70.5 l -48.81,-73.81"
         style="fill:#2e2d2d;fill-opacity:1;fill-rule:evenodd;stroke:none"
         transform="matrix(0.13333333,0,0,-0.13333333,0,815.69333)" />
      <path
         id="path39"
         d="m 3315.25,4221.36 c 29.85,-18.84 25.96,-78.61 -8.67,-133.49 -34.65,-54.88 -86.95,-84.09 -116.79,-65.25 -29.84,18.84 -25.96,78.61 8.69,133.49 34.64,54.88 86.93,84.09 116.77,65.25"
         style="fill:#f15030;fill-opacity:1;fill-rule:evenodd;stroke:none"
         transform="matrix(0.13333333,0,0,-0.13333333,0,815.69333)" />
      <path
         id="path40"
         d="m 3544.16,3976.26 -78.83,53.36 c -8.74,5.91 -18.6,10.2 -29.2,12.7 l 12.22,35.31 c 20.8,-1.62 40.07,-8.22 56.36,-19.32 l 66.95,-45.59 -27.5,-36.46"
         style="fill:#2e2d2d;fill-opacity:1;fill-rule:evenodd;stroke:none"
         transform="matrix(0.13333333,0,0,-0.13333333,0,815.69333)" />
      <path
         id="path41"
         d="m 3477.68,3997.62 c 14.78,-13.13 12.59,-39.7 -4.86,-59.35 -17.47,-19.64 -43.61,-24.92 -58.38,-11.79 -14.78,13.14 -12.59,39.71 4.86,59.36 17.46,19.64 43.61,24.92 58.38,11.78"
         style="fill:#2e2d2d;fill-opacity:1;fill-rule:evenodd;stroke:none"
         transform="matrix(0.13333333,0,0,-0.13333333,0,815.69333)" />
      <path
         id="path42"
         d="m 3613.85,3914.31 49.76,-60.93 c 5.52,-6.75 9.56,-14.83 12.03,-23.96 l 31.74,17.97 c -1.85,18.51 -8.2,34.68 -18.54,47.25 l -42.49,51.69 -32.5,-32.02"
         style="fill:#2e2d2d;fill-opacity:1;fill-rule:evenodd;stroke:none"
         transform="matrix(0.13333333,0,0,-0.13333333,0,815.69333)" />
      <path
         id="path43"
         d="m 3628.67,3863.42 c -13.11,11.64 -37.88,5.16 -55.34,-14.49 -17.47,-19.65 -21,-45 -7.91,-56.65 13.11,-11.64 37.88,-5.16 55.34,14.49 17.46,19.65 20.99,45.01 7.91,56.65"
         style="fill:#2e2d2d;fill-opacity:1;fill-rule:evenodd;stroke:none"
         transform="matrix(0.13333333,0,0,-0.13333333,0,815.69333)" />
      <path
         id="path44"
         d="m 3459.08,3749.87 c 23.11,-20.56 45.13,-22.02 36.14,-32.13 -8.98,-10.12 -58.26,-10.48 -81.38,10.07 -23.12,20.55 -11.36,54.25 -2.37,64.37 8.99,10.11 24.47,-21.76 47.61,-42.31"
         style="fill:#ee2836;fill-opacity:1;fill-rule:evenodd;stroke:none"
         transform="matrix(0.13333333,0,0,-0.13333333,0,815.69333)" />
      <path
         id="path45"
         d="m 2760.74,3416.36 746.03,379.09 -16.71,147.03 c -47.21,415.38 -376.33,742.36 -792,786.88 l -234.8,-139.09 368.84,-568.48 -286.39,-147.3 10.8,-73.08 c 21.88,-147.98 93.99,-283.93 204.23,-385.05"
         style="fill:#f68194;fill-opacity:1;fill-rule:evenodd;stroke:none"
         transform="matrix(0.13333333,0,0,-0.13333333,0,815.69333)" />
      <path
         id="path46"
         d="m 4252.86,6117.74 174.64,-435.23 174.63,-435.22 -615.53,275.46 -615.55,275.45 440.91,159.77 440.9,159.77"
         style="fill:#e61d2b;fill-opacity:1;fill-rule:evenodd;stroke:none"
         transform="matrix(0.13333333,0,0,-0.13333333,0,815.69333)" />
      <path
         id="path47"
         d="m 2235,1140.91 94.51,-96.76 c 50.66,-51.849 115.72,-87.31 186.74,-101.771 24.22,-4.938 43.94,-22.457 51.69,-45.93 7.75,-23.469 2.33,-49.301 -14.19,-67.679 -34.99,-38.911 -81.25,-65.911 -132.36,-77.211 h -747.8 l 24.26,78.32 18.56,214.271 518.59,96.76"
         style="fill:#1b1919;fill-opacity:1;fill-rule:evenodd;stroke:none"
         transform="matrix(0.13333333,0,0,-0.13333333,0,815.69333)" />
      <path
         id="path48"
         d="m 1322.35,1140.91 94.52,-96.76 c 50.65,-51.849 115.7,-87.31 186.73,-101.771 24.22,-4.938 43.95,-22.457 51.7,-45.93 7.75,-23.469 2.33,-49.301 -14.19,-67.679 -34.99,-38.911 -81.27,-65.911 -132.36,-77.211 H 875.645 l 24.265,78.32 18.559,214.271 403.881,96.76"
         style="fill:#2e2d2d;fill-opacity:1;fill-rule:evenodd;stroke:none"
         transform="matrix(0.13333333,0,0,-0.13333333,0,815.69333)" />
      <path
         id="path49"
         d="m 2648.57,4454.24 -130.16,-28.67 c -32.58,-7.19 -66.17,6.96 -83.83,35.29 -13.53,21.76 -34.82,37.58 -59.55,44.28 -28.59,7.75 -46.28,36.34 -40.46,65.38 5.81,29.05 33.15,48.62 62.52,44.75 l 24.27,114.09 c 4.27,20.06 18.23,36.69 37.27,44.33 19.03,7.65 40.61,5.32 57.58,-6.2 l 204.58,17.29 c 30.73,2.6 61.16,-7.78 83.89,-28.62 22.74,-20.85 35.73,-50.25 35.8,-81.1 l 2.21,-169.92 -194.12,-50.9"
         style="fill:#f68194;fill-opacity:1;fill-rule:evenodd;stroke:none"
         transform="matrix(0.13333333,0,0,-0.13333333,0,815.69333)" />
    </g>
  </g>
</svg>
