<?xml version="1.0" encoding="UTF-8" standalone="no"?>
<!-- Created with Inkscape (http://www.inkscape.org/) -->

<svg
   version="1.1"
   id="svg1"
   width="581.64001"
   height="670.61334"
   viewBox="0 0 581.64001 670.61334"
   sodipodi:docname="impossible-geometric-shapes.svg"
   inkscape:version="1.4 (e7c3feb100, 2024-10-09)"
   xmlns:inkscape="http://www.inkscape.org/namespaces/inkscape"
   xmlns:sodipodi="http://sodipodi.sourceforge.net/DTD/sodipodi-0.dtd"
   xmlns="http://www.w3.org/2000/svg"
   xmlns:svg="http://www.w3.org/2000/svg">
  <defs
     id="defs1" />
  <sodipodi:namedview
     id="namedview1"
     pagecolor="#505050"
     bordercolor="#ffffff"
     borderopacity="1"
     inkscape:showpageshadow="0"
     inkscape:pageopacity="0"
     inkscape:pagecheckerboard="1"
     inkscape:deskcolor="#d1d1d1"
     inkscape:zoom="1.2153054"
     inkscape:cx="290.46198"
     inkscape:cy="335.30667"
     inkscape:window-width="1920"
     inkscape:window-height="1002"
     inkscape:window-x="0"
     inkscape:window-y="0"
     inkscape:window-maximized="1"
     inkscape:current-layer="g1">
    <inkscape:page
       x="0"
       y="0"
       inkscape:label="1"
       id="page1"
       width="581.64001"
       height="670.61334"
       margin="0"
       bleed="0" />
  </sodipodi:namedview>
  <g
     id="g1"
     inkscape:groupmode="layer"
     inkscape:label="1">
    <g
       id="group-R5">
      <path
         id="path2"
         d="m 1063.78,96.5195 c 0,7.2305 -1.05,13.4605 -3.18,18.5895 -2.09,5.18 -5.02,9.161 -8.79,11.981 -3.74,2.75 -7.85,4.14 -12.42,4.14 -7.22,0 -13.3,-3.031 -18.27,-8.91 -4.97,-6.019 -7.45,-14.711 -7.45,-26.2692 0,-10.9024 2.48,-19.3594 7.38,-25.332 4.94,-6.0586 11.07,-9.1172 18.34,-9.1172 4.36,0 8.4,1.3281 12.12,4 3.68,2.6367 6.67,6.5781 8.9,11.8203 2.26,5.3086 3.37,11.6562 3.37,19.0976 z m -51.33,39.8205 v -3.301 c 4.91,6.332 10.03,11.039 15.32,13.973 5.32,2.988 11.37,4.488 18.08,4.488 8.04,0 15.47,-2.191 22.25,-6.539 6.78,-4.32 12.11,-10.652 16.07,-19.012 3.93,-8.359 5.88,-18.219 5.88,-29.6287 0,-8.3906 -1.11,-16.1914 -3.38,-23.1406 -2.26,-7.0703 -5.39,-13.0078 -9.36,-17.7891 -3.98,-4.7695 -8.67,-8.4414 -14.05,-10.9804 -5.42,-2.6016 -11.23,-3.8711 -17.41,-3.8711 -7.52,0 -13.8,1.5507 -18.89,4.6914 -5.12,3.1289 -9.93,7.6992 -14.51,13.8086 V 18.0195 C 1012.45,5.96875 1008.24,0 999.879,0 c -4.922,0 -8.203,1.51953 -9.766,4.62109 -1.601,3.10938 -2.394,7.64061 -2.394,13.57811 V 136.172 c 0,5.187 1.047,9.098 3.254,11.656 2.187,2.563 5.156,3.863 8.906,3.863 3.711,0 6.741,-1.3 9.061,-3.98 2.33,-2.66 3.51,-6.461 3.51,-11.371"
         style="fill:#82cd2e;fill-opacity:1;fill-rule:nonzero;stroke:none"
         transform="matrix(0.13333333,0,0,-0.13333333,0,670.61333)" />
      <path
         id="path3"
         d="m 1179.15,55.9883 v 3.4414 c -3.18,-4.1211 -6.46,-7.5781 -9.94,-10.3516 -3.43,-2.8476 -7.21,-4.9179 -11.29,-6.289 -4.12,-1.3477 -8.78,-2.0274 -14.02,-2.0274 -6.32,0 -11.99,1.3789 -17.01,4.0781 -5.04,2.7305 -8.91,6.5196 -11.65,11.3086 -3.29,5.8204 -4.9,14.1602 -4.9,25 v 54.1796 c 0,5.434 1.18,9.531 3.56,12.223 2.35,2.699 5.49,4.09 9.38,4.09 3.97,0 7.16,-1.391 9.61,-4.141 2.42,-2.738 3.63,-6.82 3.63,-12.172 V 91.5391 c 0,-6.3086 0.51,-11.6172 1.49,-15.8985 1.07,-4.3398 2.88,-7.7109 5.59,-10.1601 2.61,-2.4219 6.21,-3.6094 10.74,-3.6094 4.45,0 8.62,1.3672 12.47,4.0781 3.95,2.7227 6.8,6.2891 8.57,10.6914 1.49,3.8789 2.19,12.3399 2.19,25.4494 v 33.238 c 0,5.352 1.23,9.434 3.67,12.172 2.41,2.75 5.55,4.141 9.47,4.141 3.9,0 7.04,-1.391 9.39,-4.09 2.37,-2.692 3.53,-6.789 3.53,-12.223 V 56.1484 c 0,-5.2187 -1.11,-9.1171 -3.4,-11.6992 -2.24,-2.6211 -5.16,-3.8906 -8.75,-3.8906 -3.56,0 -6.52,1.3711 -8.86,4.0117 -2.32,2.75 -3.47,6.5 -3.47,11.418"
         style="fill:#82cd2e;fill-opacity:1;fill-rule:nonzero;stroke:none"
         transform="matrix(0.13333333,0,0,-0.13333333,0,670.61333)" />
      <path
         id="path4"
         d="m 1255.09,95.4414 c 0,-10.8711 2.37,-19.1914 7.11,-25.0508 4.78,-5.8203 11.03,-8.789 18.78,-8.789 6.59,0 12.25,3.0078 17.04,8.9765 4.79,5.9805 7.15,14.4922 7.15,25.6524 0,7.2815 -1,13.4685 -2.97,18.6485 -2,5.23 -4.83,9.262 -8.44,12.07 -3.7,2.832 -7.91,4.281 -12.78,4.281 -5.03,0 -9.41,-1.449 -13.33,-4.281 -3.92,-2.808 -6.97,-6.929 -9.23,-12.328 -2.23,-5.332 -3.33,-11.711 -3.33,-19.1796 z m -1.26,81.2386 v -41.758 c 4.88,5.387 9.93,9.43 15.03,12.316 5.12,2.832 11.49,4.262 19.03,4.262 8.69,0 16.28,-2.191 22.87,-6.449 6.54,-4.371 11.66,-10.582 15.25,-18.75 3.63,-8.18 5.42,-17.852 5.42,-29.0822 0,-8.2969 -1.01,-15.879 -2.99,-22.8086 -2.04,-6.8789 -4.95,-12.8516 -8.78,-17.9688 -3.86,-5.043 -8.52,-8.9219 -13.97,-11.7812 -5.49,-2.7305 -11.52,-4.1211 -18.09,-4.1211 -4.01,0 -7.82,0.4922 -11.39,1.4922 -3.56,0.9882 -6.59,2.2968 -9.05,3.9804 -2.51,1.5586 -4.63,3.2969 -6.38,5 -1.78,1.7578 -4.07,4.3399 -6.95,7.8086 v -2.6719 c 0,-5.1796 -1.2,-9.039 -3.57,-11.6992 -2.35,-2.6211 -5.38,-3.9101 -9,-3.9101 -3.73,0 -6.66,1.289 -8.88,3.9101 -2.21,2.711 -3.3,6.5625 -3.3,11.6992 V 175.48 c 0,5.508 1.07,9.692 3.22,12.52 2.14,2.871 5.1,4.281 8.96,4.281 4,0 7.12,-1.371 9.28,-4.082 2.2,-2.699 3.29,-6.519 3.29,-11.519"
         style="fill:#82cd2e;fill-opacity:1;fill-rule:nonzero;stroke:none"
         transform="matrix(0.13333333,0,0,-0.13333333,0,670.61333)" />
      <path
         id="path5"
         d="M 1349.91,57.1602 V 175.66 c 0,5.488 1.16,9.61 3.48,12.418 2.36,2.793 5.5,4.203 9.46,4.203 3.96,0 7.15,-1.39 9.61,-4.16 2.38,-2.75 3.63,-6.93 3.63,-12.461 V 57.1602 c 0,-5.5391 -1.27,-9.7188 -3.71,-12.5 -2.44,-2.7305 -5.64,-4.1211 -9.53,-4.1211 -3.84,0 -6.93,1.4297 -9.34,4.3007 -2.4,2.8907 -3.6,6.9493 -3.6,12.3204"
         style="fill:#82cd2e;fill-opacity:1;fill-rule:nonzero;stroke:none"
         transform="matrix(0.13333333,0,0,-0.13333333,0,670.61333)" />
      <path
         id="path6"
         d="M 1429.31,136.09 V 57.1602 c 0,-5.5 -1.28,-9.6407 -3.72,-12.4414 -2.51,-2.75 -5.69,-4.1797 -9.5,-4.1797 -3.85,0 -6.96,1.4297 -9.36,4.2812 -2.38,2.9102 -3.6,6.9688 -3.6,12.3399 v 78.1678 c 0,5.352 1.22,9.434 3.6,12.172 2.4,2.75 5.51,4.141 9.36,4.141 3.81,0 6.99,-1.391 9.5,-4.141 2.44,-2.738 3.72,-6.531 3.72,-11.41 z m -12.97,28.262 c -3.61,0 -6.73,1.148 -9.36,3.558 -2.53,2.32 -3.85,5.66 -3.85,9.942 0,3.828 1.32,6.988 3.98,9.546 2.63,2.5 5.72,3.692 9.23,3.692 3.4,0 6.43,-1.11 9.05,-3.36 2.59,-2.269 3.92,-5.609 3.92,-9.878 0,-4.243 -1.31,-7.524 -3.85,-9.872 -2.55,-2.378 -5.58,-3.628 -9.12,-3.628"
         style="fill:#82cd2e;fill-opacity:1;fill-rule:nonzero;stroke:none"
         transform="matrix(0.13333333,0,0,-0.13333333,0,670.61333)" />
      <path
         id="path7"
         d="m 1550.15,74.3516 c 0,-3.3828 -0.96,-7.0313 -2.89,-10.8828 -2,-3.879 -4.97,-7.5586 -8.97,-11.0469 -3.98,-3.5 -9.02,-6.3321 -15.08,-8.4414 -6.07,-2.1719 -12.95,-3.2188 -20.52,-3.2188 -16.19,0 -28.81,4.918 -37.89,14.7383 -9.08,9.8711 -13.62,23.0117 -13.62,39.5703 0,11.1997 2.07,21.1597 6.2,29.7307 4.16,8.57 10.21,15.269 18.04,19.961 7.86,4.726 17.27,7.066 28.18,7.066 6.8,0 13.03,-1.047 18.69,-3.078 5.67,-2.09 10.45,-4.77 14.36,-8.031 3.95,-3.258 6.95,-6.758 9.04,-10.449 2.11,-3.692 3.11,-7.149 3.11,-10.372 0,-3.218 -1.19,-5.976 -3.5,-8.277 -2.34,-2.269 -5.13,-3.422 -8.47,-3.422 -2.19,0 -4.01,0.641 -5.45,1.801 -1.41,1.129 -3.05,2.961 -4.83,5.621 -3.22,5.039 -6.54,8.891 -10.04,11.469 -3.47,2.519 -7.91,3.82 -13.23,3.82 -7.78,0 -14.03,-3.199 -18.75,-9.488 -4.73,-6.371 -7.07,-14.961 -7.07,-25.922 0,-5.1094 0.61,-9.8789 1.81,-14.1797 1.21,-4.3086 2.99,-7.9492 5.26,-11.0117 2.32,-3.0469 5.07,-5.3281 8.38,-6.8789 3.24,-1.6016 6.83,-2.3984 10.69,-2.3984 5.28,0 9.75,1.25 13.5,3.8085 3.75,2.5586 7.05,6.4297 9.92,11.5821 1.62,3.1484 3.34,5.5273 5.2,7.289 1.85,1.7305 4.14,2.5391 6.81,2.5391 3.19,0 5.84,-1.2187 7.97,-3.75 2.07,-2.5781 3.15,-5.2812 3.15,-8.1484"
         style="fill:#82cd2e;fill-opacity:1;fill-rule:nonzero;stroke:none"
         transform="matrix(0.13333333,0,0,-0.13333333,0,670.61333)" />
      <path
         id="path8"
         d="m 1593.27,96.2305 c 0,-7.4102 1.11,-13.6797 3.32,-18.9102 2.21,-5.2109 5.2,-9.082 9.01,-11.7187 3.86,-2.6719 8.06,-4 12.55,-4 4.63,0 8.83,1.289 12.62,3.7695 3.81,2.5195 6.84,6.3398 9.14,11.5195 2.25,5.1602 3.38,11.6211 3.38,19.3399 0,7.3205 -1.13,13.5505 -3.38,18.8005 -2.3,5.258 -5.35,9.239 -9.22,12.059 -3.86,2.75 -8.1,4.14 -12.69,4.14 -4.77,0 -9.04,-1.449 -12.85,-4.281 -3.73,-2.808 -6.68,-6.918 -8.75,-12.23 -2.07,-5.328 -3.13,-11.418 -3.13,-18.4885 z m 51.47,-40.0821 v 2.6719 c -3.52,-4.2109 -7,-7.6094 -10.43,-10.2305 -3.38,-2.6601 -7.11,-4.6484 -11.12,-6.0195 -3.96,-1.3203 -8.36,-2.0312 -13.06,-2.0312 -6.25,0 -12.09,1.3906 -17.41,4.1211 -5.31,2.8593 -9.96,6.7617 -13.84,11.8984 -3.89,5.1211 -6.86,11.1719 -8.89,18.1211 -2.03,6.9219 -3.01,14.4219 -3.01,22.5391 0,17.0512 3.99,30.4292 11.98,39.9612 8,9.55 18.51,14.32 31.54,14.32 7.56,0 13.92,-1.391 19.08,-4.141 5.18,-2.64 10.23,-6.82 15.16,-12.437 v 40.348 c 0,5.601 1.07,9.839 3.22,12.691 2.13,2.879 5.16,4.32 9.12,4.32 3.96,0 7.01,-1.332 9.18,-3.941 2.15,-2.621 3.24,-6.531 3.24,-11.66 V 56.1484 c 0,-5.2187 -1.17,-9.1171 -3.47,-11.6992 -2.31,-2.6211 -5.28,-3.9101 -8.95,-3.9101 -3.52,0 -6.52,1.332 -8.87,4.0312 -2.32,2.6914 -3.47,6.5195 -3.47,11.5781"
         style="fill:#82cd2e;fill-opacity:1;fill-rule:nonzero;stroke:none"
         transform="matrix(0.13333333,0,0,-0.13333333,0,670.61333)" />
      <path
         id="path9"
         d="m 1767.51,96.0117 c 0,11.1093 -2.36,19.8083 -7.07,26.0193 -4.71,6.168 -11.04,9.309 -18.95,9.309 -5.13,0 -9.61,-1.399 -13.53,-4.16 -3.87,-2.809 -6.9,-6.891 -8.99,-12.301 -2.12,-5.348 -3.18,-11.641 -3.18,-18.8673 0,-7.1328 1.06,-13.3633 3.13,-18.6914 2.07,-5.332 5.05,-9.4101 8.92,-12.2695 3.85,-2.8125 8.46,-4.211 13.65,-4.211 7.91,0 14.24,3.0821 18.95,9.3321 4.71,6.207 7.07,14.8594 7.07,25.8398 z m 26.27,0 c 0,-8.082 -1.23,-15.6015 -3.65,-22.5234 -2.44,-6.8086 -5.94,-12.7266 -10.53,-17.668 -4.61,-4.9609 -10.12,-8.6601 -16.52,-11.3711 -6.39,-2.6211 -13.64,-3.9101 -21.59,-3.9101 -7.91,0 -15.03,1.289 -21.36,3.9922 -6.33,2.6484 -11.82,6.4804 -16.47,11.457 -4.63,4.9805 -8.12,10.8203 -10.56,17.582 -2.39,6.8203 -3.58,14.2578 -3.58,22.5 0,8.2577 1.23,15.8207 3.63,22.6997 2.45,6.871 5.92,12.71 10.45,17.628 4.55,4.852 10.04,8.622 16.53,11.231 6.46,2.641 13.57,4.012 21.36,4.012 7.95,0 15.16,-1.371 21.59,-4.051 6.44,-2.649 11.97,-6.481 16.58,-11.418 4.61,-4.942 8.1,-10.82 10.49,-17.641 2.44,-6.781 3.63,-14.32 3.63,-22.5193"
         style="fill:#82cd2e;fill-opacity:1;fill-rule:nonzero;stroke:none"
         transform="matrix(0.13333333,0,0,-0.13333333,0,670.61333)" />
      <path
         id="path10"
         d="m 1904.35,118.59 c -1.94,-4.629 -2.89,-12.75 -2.89,-24.5119 v -36.289 c 0,-5.7188 -1.24,-10.0586 -3.75,-12.9493 -2.49,-2.871 -5.81,-4.3007 -9.91,-4.3007 -3.92,0 -7.13,1.4297 -9.57,4.3007 -2.48,2.8907 -3.69,7.2305 -3.69,12.9493 V 101.34 c 0,6.859 -0.25,12.191 -0.7,16.039 -0.45,3.769 -1.66,6.91 -3.63,9.371 -1.96,2.43 -5.12,3.66 -9.38,3.66 -8.55,0 -14.18,-3.07 -16.93,-9.262 -2.72,-6.117 -4.05,-14.937 -4.05,-26.4292 V 57.7891 c 0,-5.6993 -1.25,-10.0196 -3.69,-12.8672 -2.46,-2.9531 -5.72,-4.3828 -9.7,-4.3828 -3.99,0 -7.27,1.4297 -9.77,4.3828 -2.54,2.8476 -3.75,7.1679 -3.75,12.8281 v 78.219 c 0,5.14 1.07,9.051 3.34,11.703 2.3,2.656 5.27,4.019 9,4.019 3.56,0 6.57,-1.25 8.95,-3.75 2.4,-2.5 3.59,-5.929 3.59,-10.351 V 135 c 4.53,5.68 9.42,9.84 14.57,12.5 5.16,2.648 10.98,4 17.27,4 6.58,0 12.19,-1.391 16.93,-4.141 4.77,-2.699 8.63,-6.859 11.68,-12.359 4.42,5.539 9.18,9.762 14.22,12.441 5.08,2.707 10.64,4.059 16.76,4.059 7.21,0 13.36,-1.43 18.51,-4.41 5.2,-2.93 9.07,-7.129 11.62,-12.621 2.25,-4.938 3.36,-12.699 3.36,-23.34 V 57.7891 c 0,-5.7188 -1.25,-10.0586 -3.71,-12.9493 -2.54,-2.871 -5.8,-4.3007 -9.9,-4.3007 -3.96,0 -7.23,1.4297 -9.73,4.3828 -2.55,2.8476 -3.82,7.1679 -3.82,12.8672 V 103.75 c 0,5.871 -0.24,10.578 -0.71,14.121 -0.49,3.57 -1.77,6.5 -3.9,8.899 -2.09,2.41 -5.32,3.64 -9.57,3.64 -3.44,0 -6.74,-1.082 -9.79,-3.172 -3.16,-2.187 -5.53,-5.039 -7.26,-8.648 v 0"
         style="fill:#82cd2e;fill-opacity:1;fill-rule:nonzero;stroke:none"
         transform="matrix(0.13333333,0,0,-0.13333333,0,670.61333)" />
      <path
         id="path11"
         d="m 2052.63,95.5 c -3.87,-1.4805 -9.44,-3.0195 -16.76,-4.6797 -7.33,-1.6289 -12.4,-2.8203 -15.24,-3.6015 -2.81,-0.7969 -5.48,-2.2579 -8.02,-4.4883 -2.58,-2.2891 -3.85,-5.4102 -3.85,-9.4102 0,-4.1601 1.5,-7.6797 4.51,-10.5703 3.01,-2.9297 6.94,-4.3789 11.8,-4.3789 5.17,0 9.98,1.2187 14.35,3.5977 4.38,2.3398 7.6,5.4296 9.61,9.1601 2.39,4.1211 3.6,10.9219 3.6,20.4922 z m 1.7,-39.5898 c -6.35,-5.1289 -12.46,-8.961 -18.38,-11.5 -5.9,-2.6016 -12.54,-3.8711 -19.87,-3.8711 -6.75,0 -12.63,1.3906 -17.71,4.1211 -5.12,2.7812 -9.02,6.5507 -11.78,11.3281 -2.73,4.7109 -4.12,9.832 -4.12,15.3711 0,7.5 2.32,13.832 6.84,19.1211 4.51,5.2383 10.74,8.789 18.65,10.6095 1.68,0.39 5.82,1.269 12.38,2.66 6.64,1.441 12.25,2.711 16.99,3.859 4.67,1.161 9.81,2.563 15.3,4.243 -0.35,7.226 -1.74,12.519 -4.18,15.957 -2.46,3.32 -7.6,4.98 -15.32,4.98 -6.66,0 -11.66,-0.937 -15.05,-2.891 -3.34,-1.898 -6.21,-4.847 -8.6,-8.75 -2.42,-3.847 -4.08,-6.41 -5.08,-7.636 -1.01,-1.25 -3.14,-1.821 -6.36,-1.821 -2.97,0 -5.51,0.957 -7.62,2.918 -2.17,1.969 -3.24,4.469 -3.24,7.59 0,4.813 1.64,9.492 4.9,13.973 3.26,4.547 8.34,8.277 15.23,11.269 6.92,2.95 15.53,4.387 25.82,4.387 11.51,0 20.55,-1.437 27.17,-4.277 6.58,-2.789 11.19,-7.242 13.91,-13.449 2.73,-6.102 4.12,-14.262 4.12,-24.403 0,-6.398 0,-11.8904 -0.06,-16.3279 -0.08,-4.4922 -0.08,-9.4727 -0.15,-14.9414 0,-5.1094 0.82,-10.5 2.46,-16.0313 1.58,-5.5703 2.4,-9.1796 2.4,-10.7382 0,-2.8204 -1.29,-5.3907 -3.79,-7.6797 -2.48,-2.2891 -5.35,-3.4414 -8.56,-3.4414 -2.69,0 -5.31,1.289 -7.98,3.9101 -2.58,2.6602 -5.37,6.4805 -8.32,11.461"
         style="fill:#82cd2e;fill-opacity:1;fill-rule:nonzero;stroke:none"
         transform="matrix(0.13333333,0,0,-0.13333333,0,670.61333)" />
      <path
         id="path12"
         d="M 2131.1,136.09 V 57.1602 c 0,-5.5 -1.27,-9.6407 -3.73,-12.4414 -2.5,-2.75 -5.64,-4.1797 -9.49,-4.1797 -3.83,0 -6.99,1.4297 -9.35,4.2812 -2.43,2.9102 -3.62,6.9688 -3.62,12.3399 v 78.1678 c 0,5.352 1.19,9.434 3.62,12.172 2.36,2.75 5.52,4.141 9.35,4.141 3.85,0 6.99,-1.391 9.49,-4.141 2.46,-2.738 3.73,-6.531 3.73,-11.41 z m -12.95,28.262 c -3.63,0 -6.71,1.148 -9.33,3.558 -2.58,2.32 -3.91,5.66 -3.91,9.942 0,3.828 1.35,6.988 4.03,9.546 2.63,2.5 5.72,3.692 9.21,3.692 3.38,0 6.41,-1.11 9.05,-3.36 2.58,-2.269 3.9,-5.609 3.9,-9.878 0,-4.243 -1.27,-7.524 -3.82,-9.872 -2.58,-2.378 -5.61,-3.628 -9.13,-3.628"
         style="fill:#82cd2e;fill-opacity:1;fill-rule:nonzero;stroke:none"
         transform="matrix(0.13333333,0,0,-0.13333333,0,670.61333)" />
      <path
         id="path13"
         d="m 2181.96,136.5 v -3.281 c 4.55,6.332 9.61,10.972 15.06,13.941 5.49,2.949 11.74,4.481 18.89,4.481 6.87,0 13.06,-1.571 18.53,-4.77 5.37,-3.101 9.48,-7.5 12.15,-13.242 1.72,-3.359 2.81,-6.988 3.34,-10.84 0.49,-3.848 0.78,-8.789 0.78,-14.809 V 57.1602 c 0,-5.5 -1.25,-9.6407 -3.61,-12.4414 -2.4,-2.75 -5.53,-4.1797 -9.36,-4.1797 -3.86,0 -7.05,1.4297 -9.41,4.3007 -2.44,2.8907 -3.69,6.9493 -3.69,12.3204 v 45.4878 c 0,9.063 -1.15,15.942 -3.56,20.711 -2.46,4.762 -7.24,7.161 -14.41,7.161 -4.65,0 -8.89,-1.442 -12.73,-4.391 -3.83,-2.848 -6.65,-6.859 -8.42,-11.938 -1.29,-4.062 -1.96,-11.66 -1.96,-22.8707 V 57.1602 c 0,-5.5391 -1.21,-9.7188 -3.69,-12.5 -2.48,-2.7305 -5.64,-4.1211 -9.53,-4.1211 -3.75,0 -6.89,1.4297 -9.3,4.2812 -2.46,2.9102 -3.65,6.9688 -3.65,12.3399 V 136.09 c 0,5.23 1.08,9.082 3.26,11.66 2.15,2.578 5.18,3.891 8.93,3.891 2.29,0 4.39,-0.629 6.19,-1.743 1.94,-1.097 3.36,-2.847 4.49,-5.058 1.08,-2.32 1.7,-5.078 1.7,-8.34"
         style="fill:#82cd2e;fill-opacity:1;fill-rule:nonzero;stroke:none"
         transform="matrix(0.13333333,0,0,-0.13333333,0,670.61333)" />
      <path
         id="path14"
         d="m 2292.72,134.609 21.16,-62.0387 22.83,64.7497 c 1.83,5.2 3.57,8.852 5.31,11.051 1.76,2.129 4.34,3.27 7.83,3.27 3.34,0 6.18,-1.2 8.56,-3.563 2.28,-2.316 3.47,-4.976 3.47,-8.117 0,-1.191 -0.23,-2.563 -0.66,-4.121 -0.37,-1.649 -0.86,-3.149 -1.43,-4.57 -0.54,-1.372 -1.09,-2.989 -1.85,-4.77 L 2332.8,61.4414 c -0.7,-1.8516 -1.62,-4.2617 -2.73,-7.1328 -1.13,-2.8477 -2.38,-5.25 -3.73,-7.3594 -1.41,-2.0078 -3.09,-3.5586 -5.08,-4.7109 -2.03,-1.1289 -4.49,-1.6992 -7.38,-1.6992 -3.69,0 -6.66,0.8593 -8.89,2.6211 -2.21,1.7812 -3.85,3.6914 -4.86,5.8203 -1.06,2.0898 -2.85,6.25 -5.34,12.4609 l -24.96,64.3396 c -0.58,1.598 -1.19,3.219 -1.81,4.797 -0.57,1.602 -1.04,3.203 -1.51,4.902 -0.37,1.7 -0.6,3.129 -0.6,4.282 0,1.918 0.53,3.75 1.64,5.59 1.07,1.828 2.62,3.378 4.51,4.507 1.93,1.153 3.97,1.782 6.25,1.782 4.32,0 7.31,-1.313 8.95,-3.969 1.64,-2.582 3.47,-6.953 5.46,-13.063"
         style="fill:#82cd2e;fill-opacity:1;fill-rule:nonzero;stroke:none"
         transform="matrix(0.13333333,0,0,-0.13333333,0,670.61333)" />
      <path
         id="path15"
         d="m 2399.81,104.941 h 47.48 c -0.62,9.289 -3.02,16.309 -7.24,20.918 -4.2,4.602 -9.71,6.93 -16.54,6.93 -6.51,0 -11.88,-2.348 -16.04,-7.027 -4.22,-4.672 -6.72,-11.641 -7.66,-20.821 z m 51.25,-15.5504 h -51.25 c 0.04,-6.25 1.27,-11.6797 3.56,-16.4609 2.4,-4.6914 5.49,-8.2695 9.34,-10.6914 3.88,-2.418 8.16,-3.5899 12.83,-3.5899 3.12,0 5.99,0.3907 8.57,1.1133 2.58,0.8164 5.1,1.9883 7.56,3.6094 2.4,1.6602 4.61,3.3594 6.68,5.3008 2.01,1.8476 4.75,4.3476 7.93,7.5781 1.39,1.25 3.3,1.8086 5.76,1.8086 2.72,0 4.88,-0.7383 6.54,-2.2969 1.68,-1.5508 2.48,-3.6914 2.48,-6.4922 0,-2.4609 -0.91,-5.3711 -2.79,-8.6914 -1.83,-3.2578 -4.59,-6.457 -8.38,-9.5078 -3.75,-3.0312 -8.45,-5.5117 -14.12,-7.5586 -5.6,-1.9922 -12.09,-2.9726 -19.51,-2.9726 -16.8,0 -29.88,5.0195 -39.18,14.9804 -9.3,10.0586 -13.98,23.6211 -13.98,40.711 0,8.1795 1.17,15.6215 3.45,22.4995 2.31,6.911 5.65,12.848 10.06,17.77 4.4,4.961 9.81,8.77 16.29,11.371 6.48,2.629 13.61,3.957 21.52,3.957 10.16,0 18.95,-2.238 26.27,-6.777 7.33,-4.512 12.82,-10.289 16.45,-17.403 3.65,-7.187 5.47,-14.429 5.47,-21.886 0,-6.8206 -1.84,-11.2932 -5.63,-13.3011 -3.83,-2.0703 -9.08,-3.0703 -15.92,-3.0703"
         style="fill:#82cd2e;fill-opacity:1;fill-rule:nonzero;stroke:none"
         transform="matrix(0.13333333,0,0,-0.13333333,0,670.61333)" />
      <path
         id="path16"
         d="m 2588.58,74.3516 c 0,-3.3828 -0.95,-7.0313 -2.93,-10.8828 -1.97,-3.879 -4.9,-7.5586 -8.92,-11.0469 -3.99,-3.5 -9.04,-6.3321 -15.14,-8.4414 -6.05,-2.1719 -12.93,-3.2188 -20.49,-3.2188 -16.21,0 -28.82,4.918 -37.89,14.7383 -9.06,9.8711 -13.63,23.0117 -13.63,39.5703 0,11.1997 2.07,21.1597 6.25,29.7307 4.16,8.57 10.14,15.269 18.03,19.961 7.83,4.726 17.26,7.066 28.2,7.066 6.78,0 12.97,-1.047 18.67,-3.078 5.63,-2.09 10.41,-4.77 14.38,-8.031 3.94,-3.258 6.91,-6.758 9.02,-10.449 2.05,-3.692 3.11,-7.149 3.11,-10.372 0,-3.218 -1.16,-5.976 -3.56,-8.277 -2.28,-2.269 -5.12,-3.422 -8.44,-3.422 -2.18,0 -3.98,0.641 -5.37,1.801 -1.5,1.129 -3.1,2.961 -4.92,5.621 -3.18,5.039 -6.5,8.891 -9.98,11.469 -3.51,2.519 -7.93,3.82 -13.32,3.82 -7.69,0 -13.96,-3.199 -18.67,-9.488 -4.77,-6.371 -7.11,-14.961 -7.11,-25.922 0,-5.1094 0.64,-9.8789 1.82,-14.1797 1.23,-4.3086 2.98,-7.9492 5.29,-11.0117 2.3,-3.0469 5.1,-5.3281 8.36,-6.8789 3.2,-1.6016 6.79,-2.3984 10.72,-2.3984 5.23,0 9.77,1.25 13.48,3.8085 3.73,2.5586 7.07,6.4297 9.96,11.5821 1.58,3.1484 3.3,5.5273 5.15,7.289 1.84,1.7305 4.11,2.5391 6.82,2.5391 3.16,0 5.84,-1.2187 7.89,-3.75 2.15,-2.5781 3.22,-5.2812 3.22,-8.1484"
         style="fill:#82cd2e;fill-opacity:1;fill-rule:nonzero;stroke:none"
         transform="matrix(0.13333333,0,0,-0.13333333,0,670.61333)" />
      <path
         id="path17"
         d="m 2612.92,149.309 h 2.87 v 16.453 c 0,4.328 0.12,7.847 0.35,10.328 0.22,2.5 0.8,4.629 1.88,6.441 0.99,1.84 2.48,3.379 4.41,4.578 1.88,1.129 4.03,1.692 6.39,1.692 3.32,0 6.35,-1.301 9,-3.86 1.78,-1.781 2.93,-3.871 3.4,-6.351 0.49,-2.5 0.72,-6.09 0.72,-10.68 v -18.601 h 9.63 c 3.69,0 6.53,-0.918 8.46,-2.77 2.01,-1.82 2.95,-4.141 2.95,-7.008 0,-3.691 -1.39,-6.312 -4.2,-7.742 -2.75,-1.437 -6.74,-2.18 -11.93,-2.18 h -4.91 V 79.2695 c 0,-4.2695 0.14,-7.5586 0.43,-9.8789 0.34,-2.3203 1.14,-4.1797 2.37,-5.5898 1.21,-1.461 3.22,-2.1992 6.05,-2.1992 1.54,0 3.59,0.289 6.25,0.8789 2.58,0.539 4.63,0.8398 6.13,0.8398 2.09,0 4.05,-0.9219 5.71,-2.6211 1.66,-1.8008 2.54,-3.9492 2.54,-6.5781 0,-4.4023 -2.25,-7.7617 -6.88,-10.1016 -4.67,-2.3281 -11.27,-3.4804 -19.86,-3.4804 -8.21,0 -14.42,1.4297 -18.64,4.3007 -4.19,2.8907 -6.99,6.8204 -8.26,11.9493 -1.34,5.082 -1.99,11.8203 -1.99,20.3203 v 52.4996 h -3.5 c -3.69,0 -6.58,0.911 -8.57,2.813 -2.01,1.848 -2.99,4.199 -2.99,7.109 0,2.867 1.06,5.188 3.09,7.008 2.11,1.852 5.14,2.77 9.1,2.77"
         style="fill:#82cd2e;fill-opacity:1;fill-rule:nonzero;stroke:none"
         transform="matrix(0.13333333,0,0,-0.13333333,0,670.61333)" />
      <path
         id="path18"
         d="m 2752.71,96.0117 c 0,11.1093 -2.41,19.8083 -7.08,26.0193 -4.72,6.168 -10.99,9.309 -18.94,9.309 -5.12,0 -9.63,-1.399 -13.52,-4.16 -3.9,-2.809 -6.91,-6.891 -9,-12.301 -2.11,-5.348 -3.18,-11.641 -3.18,-18.8673 0,-7.1328 1.07,-13.3633 3.14,-18.6914 2.07,-5.332 5.02,-9.4101 8.89,-12.2695 3.86,-2.8125 8.4,-4.211 13.67,-4.211 7.95,0 14.22,3.0821 18.94,9.3321 4.67,6.207 7.08,14.8594 7.08,25.8398 z m 26.26,0 c 0,-8.082 -1.23,-15.6015 -3.67,-22.5234 -2.4,-6.8086 -5.95,-12.7266 -10.52,-17.668 -4.61,-4.9609 -10.12,-8.6601 -16.51,-11.3711 -6.39,-2.6211 -13.53,-3.9101 -21.58,-3.9101 -7.97,0 -15.08,1.289 -21.41,3.9922 -6.31,2.6484 -11.81,6.4804 -16.42,11.457 -4.63,4.9805 -8.15,10.8203 -10.53,17.582 -2.38,6.8203 -3.57,14.2578 -3.57,22.5 0,8.2577 1.19,15.8207 3.57,22.6997 2.5,6.871 5.94,12.71 10.47,17.628 4.57,4.852 10.06,8.622 16.48,11.231 6.55,2.641 13.64,4.012 21.41,4.012 7.95,0 15.1,-1.371 21.58,-4.051 6.47,-2.649 11.97,-6.481 16.58,-11.418 4.57,-4.942 8.15,-10.82 10.53,-17.641 2.36,-6.781 3.59,-14.32 3.59,-22.5193"
         style="fill:#82cd2e;fill-opacity:1;fill-rule:nonzero;stroke:none"
         transform="matrix(0.13333333,0,0,-0.13333333,0,670.61333)" />
      <path
         id="path19"
         d="M 2825.62,79.9219 V 57.1602 c 0,-5.5391 -1.25,-9.7188 -3.75,-12.5 -2.5,-2.7305 -5.67,-4.1211 -9.52,-4.1211 -3.75,0 -6.87,1.4297 -9.27,4.1797 -2.45,2.8007 -3.66,6.9414 -3.66,12.4414 v 76.0388 c 0,12.301 4.24,18.442 12.76,18.442 4.29,0 7.46,-1.493 9.41,-4.321 1.9,-2.871 2.91,-7.129 3.17,-12.711 3.12,5.582 6.34,9.84 9.62,12.711 3.31,2.828 7.68,4.321 13.15,4.321 5.57,0 10.86,-1.493 16.05,-4.321 5.16,-2.871 7.8,-6.679 7.8,-11.429 0,-3.34 -1.16,-6.11 -3.34,-8.243 -2.17,-2.148 -4.59,-3.277 -7.15,-3.277 -0.96,0 -3.28,0.649 -6.97,1.899 -3.68,1.23 -6.94,1.851 -9.75,1.851 -3.81,0 -6.95,-1.031 -9.34,-3.18 -2.44,-2.132 -4.35,-5.203 -5.68,-9.339 -1.35,-4.18 -2.3,-9.063 -2.79,-14.801 -0.49,-5.6721 -0.74,-12.6213 -0.74,-20.8791"
         style="fill:#82cd2e;fill-opacity:1;fill-rule:nonzero;stroke:none"
         transform="matrix(0.13333333,0,0,-0.13333333,0,670.61333)" />
      <path
         id="path20"
         d="m 2965.07,76.2305 c 0,-7.5586 -1.76,-13.9922 -5.31,-19.3789 -3.54,-5.3907 -8.73,-9.4102 -15.61,-12.211 -6.89,-2.7109 -15.21,-4.1015 -25.12,-4.1015 -9.33,0 -17.42,1.4922 -24.18,4.4922 -6.7,3.0078 -11.68,6.7382 -14.82,11.2382 -3.22,4.4922 -4.86,9 -4.86,13.5313 0,2.9883 1.05,5.5898 3.14,7.6992 2.01,2.1602 4.61,3.2188 7.73,3.2188 2.76,0 4.87,-0.7188 6.35,-2.0899 1.49,-1.4687 2.83,-3.418 4.2,-5.918 2.72,-4.9023 5.9,-8.5312 9.69,-10.9609 3.67,-2.4219 8.81,-3.5898 15.31,-3.5898 5.22,0 9.51,1.2304 12.89,3.6679 3.32,2.4219 5.06,5.2227 5.06,8.3438 0,4.8281 -1.78,8.3398 -5.21,10.5078 -3.54,2.2617 -9.24,4.3516 -17.25,6.332 -9,2.3594 -16.37,4.7969 -22.03,7.3594 -5.67,2.5781 -10.24,5.9999 -13.59,10.1799 -3.4,4.16 -5.12,9.371 -5.12,15.5 0,5.488 1.58,10.668 4.72,15.488 3.11,4.902 7.8,8.789 13.89,11.699 6.09,2.91 13.46,4.403 22.13,4.403 6.76,0 12.85,-0.77 18.28,-2.231 5.37,-1.469 9.94,-3.441 13.5,-5.898 3.61,-2.481 6.38,-5.192 8.26,-8.184 1.91,-3.047 2.85,-5.976 2.85,-8.828 0,-3.141 -1,-5.66 -3.05,-7.73 -2.01,-1.942 -4.9,-2.969 -8.55,-2.969 -2.72,0 -4.98,0.777 -6.9,2.437 -1.85,1.582 -4.06,3.961 -6.46,7.133 -1.97,2.668 -4.32,4.82 -7.03,6.418 -2.68,1.582 -6.33,2.402 -10.9,2.402 -4.75,0 -8.71,-1.031 -11.8,-3.16 -3.14,-2.09 -4.72,-4.73 -4.72,-7.871 0,-2.871 1.15,-5.219 3.43,-7.051 2.33,-1.839 5.41,-3.359 9.32,-4.57 3.95,-1.211 9.3,-2.699 16.13,-4.418 8.13,-2.051 14.77,-4.512 19.91,-7.4022 5.15,-2.8477 9.06,-6.2305 11.69,-10.1485 2.7,-3.9297 4.03,-8.3594 4.03,-13.3398"
         style="fill:#82cd2e;fill-opacity:1;fill-rule:nonzero;stroke:none"
         transform="matrix(0.13333333,0,0,-0.13333333,0,670.61333)" />
      <path
         id="path21"
         d="m 2994.79,40.5391 c -3.96,0 -7.4,1.289 -10.23,3.9922 -2.93,2.6484 -4.35,6.3984 -4.35,11.1875 0,4.0429 1.36,7.5625 4.08,10.4921 2.75,2.9493 6.17,4.3672 10.19,4.3672 4.01,0 7.46,-1.4179 10.24,-4.3281 2.89,-2.8789 4.31,-6.4297 4.31,-10.5312 0,-4.75 -1.42,-8.4571 -4.31,-11.1485 -2.78,-2.6992 -6.1,-4.0312 -9.93,-4.0312"
         style="fill:#82cd2e;fill-opacity:1;fill-rule:nonzero;stroke:none"
         transform="matrix(0.13333333,0,0,-0.13333333,0,670.61333)" />
      <path
         id="path22"
         d="m 3110.56,96.0117 c 0,11.1093 -2.37,19.8083 -7.05,26.0193 -4.71,6.168 -11,9.309 -18.93,9.309 -5.12,0 -9.57,-1.399 -13.5,-4.16 -3.9,-2.809 -6.91,-6.891 -9,-12.301 -2.09,-5.348 -3.16,-11.641 -3.16,-18.8673 0,-7.1328 1.01,-13.3633 3.08,-18.6914 2.13,-5.332 5.08,-9.4101 8.95,-12.2695 3.86,-2.8125 8.42,-4.211 13.63,-4.211 7.93,0 14.22,3.0821 18.93,9.3321 4.68,6.207 7.05,14.8594 7.05,25.8398 z m 26.32,0 c 0,-8.082 -1.21,-15.6015 -3.69,-22.5234 -2.44,-6.8086 -5.91,-12.7266 -10.52,-17.668 -4.63,-4.9609 -10.06,-8.6601 -16.51,-11.3711 -6.37,-2.6211 -13.57,-3.9101 -21.58,-3.9101 -7.93,0 -15.04,1.289 -21.37,3.9922 -6.34,2.6484 -11.79,6.4804 -16.42,11.457 -4.69,4.9805 -8.19,10.8203 -10.61,17.582 -2.34,6.8203 -3.55,14.2578 -3.55,22.5 0,8.2577 1.21,15.8207 3.63,22.6997 2.48,6.871 5.9,12.71 10.43,17.628 4.55,4.852 10.06,8.622 16.52,11.231 6.45,2.641 13.54,4.012 21.37,4.012 7.93,0 15.12,-1.371 21.58,-4.051 6.49,-2.649 11.99,-6.481 16.6,-11.418 4.59,-4.942 8.09,-10.82 10.53,-17.641 2.38,-6.781 3.59,-14.32 3.59,-22.5193"
         style="fill:#82cd2e;fill-opacity:1;fill-rule:nonzero;stroke:none"
         transform="matrix(0.13333333,0,0,-0.13333333,0,670.61333)" />
      <path
         id="path23"
         d="M 3183.51,79.9219 V 57.1602 c 0,-5.5391 -1.25,-9.7188 -3.73,-12.5 -2.49,-2.7305 -5.67,-4.1211 -9.48,-4.1211 -3.83,0 -6.89,1.4297 -9.35,4.1797 -2.42,2.8007 -3.64,6.9414 -3.64,12.4414 v 76.0388 c 0,12.301 4.3,18.442 12.78,18.442 4.35,0 7.44,-1.493 9.35,-4.321 1.92,-2.871 3.03,-7.129 3.25,-12.711 3.08,5.582 6.28,9.84 9.57,12.711 3.3,2.828 7.71,4.321 13.16,4.321 5.59,0 10.92,-1.493 16.05,-4.321 5.18,-2.871 7.8,-6.679 7.8,-11.429 0,-3.34 -1.14,-6.11 -3.3,-8.243 -2.25,-2.148 -4.59,-3.277 -7.19,-3.277 -0.94,0 -3.24,0.649 -6.91,1.899 -3.7,1.23 -6.94,1.851 -9.79,1.851 -3.81,0 -6.91,-1.031 -9.39,-3.18 -2.41,-2.132 -4.3,-5.203 -5.65,-9.339 -1.33,-4.18 -2.26,-9.063 -2.77,-14.801 -0.49,-5.6721 -0.76,-12.6213 -0.76,-20.8791"
         style="fill:#82cd2e;fill-opacity:1;fill-rule:nonzero;stroke:none"
         transform="matrix(0.13333333,0,0,-0.13333333,0,670.61333)" />
      <path
         id="path24"
         d="m 3259.09,96.9688 c 0,-11.0586 2.33,-19.4493 6.97,-25.1407 4.61,-5.6367 10.63,-8.5078 17.93,-8.5078 4.34,0 8.5,1.2695 12.35,3.711 3.88,2.4375 7.03,6.0703 9.47,10.9687 2.44,4.9414 3.63,10.8789 3.63,17.8711 0,11.1169 -2.38,19.7889 -7.07,25.9999 -4.66,6.25 -10.88,9.359 -18.51,9.359 -7.46,0 -13.48,-3.031 -17.97,-8.91 -4.53,-6 -6.8,-14.39 -6.8,-25.3512 z m 75.88,34.6522 V 52.1992 c 0,-9.0781 -1,-16.8906 -2.79,-23.3984 -1.86,-6.582 -4.85,-11.9727 -8.93,-16.2305 -4.08,-4.26952 -9.47,-7.42186 -16.03,-9.51171 C 3300.58,1.05078 3292.33,0 3282.51,0 c -9.04,0 -17.11,1.26953 -24.18,3.89844 -7.11,2.72265 -12.58,6.0625 -16.41,10.26176 -3.82,4.1406 -5.76,8.4296 -5.76,12.8711 0,3.3398 1.08,6.0468 3.28,8.1406 2.15,2.1289 4.79,3.1875 7.84,3.1875 3.86,0 7.18,-1.8008 10.09,-5.3203 1.41,-1.8477 2.89,-3.6485 4.36,-5.4493 1.48,-1.871 3.14,-3.4492 4.98,-4.7187 1.83,-1.332 4.04,-2.293 6.6,-2.9492 2.5,-0.6328 5.47,-0.9414 8.81,-0.9414 6.76,0 12.07,1.0195 15.78,2.9687 3.73,1.9492 6.37,4.711 7.89,8.2227 1.45,3.539 2.4,7.3086 2.54,11.3672 0.33,4.082 0.49,10.5507 0.66,19.4922 -4.02,-5.8399 -8.73,-10.3321 -13.96,-13.3829 -5.25,-3.0781 -11.56,-4.5703 -18.81,-4.5703 -8.83,0 -16.48,2.293 -22.99,6.9922 -6.6,4.668 -11.64,11.1797 -15.13,19.6289 -3.48,8.3594 -5.28,18.0703 -5.28,29.1016 0,8.2502 1.06,15.6682 3.24,22.2892 2.09,6.558 5.12,12.129 9.16,16.68 3.91,4.531 8.52,7.968 13.7,10.289 5.19,2.269 10.82,3.441 17.07,3.441 7.38,0 13.82,-1.5 19.25,-4.488 5.49,-2.934 10.49,-7.641 15.16,-13.973 v 3.691 c 0,4.77 1.17,8.379 3.36,11.079 2.25,2.582 5.12,3.882 8.61,3.882 5.08,0 8.44,-1.691 10.12,-5.152 1.64,-3.437 2.48,-8.437 2.48,-14.918"
         style="fill:#82cd2e;fill-opacity:1;fill-rule:nonzero;stroke:none"
         transform="matrix(0.13333333,0,0,-0.13333333,0,670.61333)" />
      <path
         id="path25"
         d="m 2200.21,397.68 h 38.86 c -2.75,-20.942 -11.33,-37.282 -25.6,-49.032 -13.23,-11.527 -29.2,-17.207 -47.89,-17.207 -25.36,0 -45.61,8.911 -60.71,26.7 -14.33,16.898 -21.48,38.738 -21.48,65.41 0,27.328 7.11,49.199 21.29,65.738 14.14,16.481 34.18,24.762 60.04,24.762 19.25,0 35.52,-5.211 48.75,-15.551 14,-11.148 22.57,-26.84 25.6,-46.941 h -38.86 c -3.33,17.531 -14.05,26.261 -32.27,26.261 -30,0 -45.04,-17.789 -45.04,-53.359 0,-16.672 3.87,-30.27 11.58,-40.902 7.74,-10.618 18.6,-15.95 32.66,-15.95 20.92,0 31.95,10.032 33.07,30.071 z m -152.88,24.5 c 0,-34.758 11.04,-64.18 33.05,-88.121 22.03,-24.008 48.99,-36 81,-36 31.87,0 58.86,11.992 80.88,36 22.05,23.941 33,53.363 33,88.121 0,34.742 -10.95,64.129 -33,88.109 -22.02,24.012 -49.01,35.992 -80.88,35.992 -32.01,0 -58.97,-11.98 -81,-35.992 -22.01,-23.98 -33.05,-53.367 -33.05,-88.109 z m -39.43,0 c 0,44.23 14.96,81.968 44.92,113.32 29.98,31.309 66.17,46.969 108.56,46.969 42.3,0 78.43,-15.66 108.45,-46.969 29.98,-31.352 45,-69.09 45,-113.32 0,-44.239 -15.02,-82.051 -45,-113.36 -30.02,-31.32 -66.15,-46.992 -108.45,-46.992 -42.39,0 -78.58,15.672 -108.56,46.992 -29.96,31.309 -44.92,69.121 -44.92,113.36"
         style="fill:#82cd2e;fill-opacity:1;fill-rule:nonzero;stroke:none"
         transform="matrix(0.13333333,0,0,-0.13333333,0,670.61333)" />
      <path
         id="path26"
         d="m 2069.99,321.66 22.38,-18.988 164.61,211.348 -22.38,18.96 -164.61,-211.32"
         style="fill:#82cd2e;fill-opacity:1;fill-rule:nonzero;stroke:none"
         transform="matrix(0.13333333,0,0,-0.13333333,0,670.61333)" />
      <path
         id="path27"
         d="M 992.488,2533.88 450.961,2140.44 657.668,1504.25 H 1327.3 l 206.73,636.19 z M 1984.97,2287.11 1605.74,1119.98 H 379.23 L 0,2287.11 l 992.488,721.1 992.482,-721.1 v 0"
         style="fill:#4869bb;fill-opacity:1;fill-rule:evenodd;stroke:none"
         transform="matrix(0.13333333,0,0,-0.13333333,0,670.61333)" />
      <path
         id="path28"
         d="m 3284.1,4622.05 -534.75,-534.78 534.75,-534.77 534.79,534.77 z m 135.86,407.56 942.34,-942.34 c -314.12,-314.1 -628.23,-628.21 -942.34,-942.33 h -271.69 c -314.11,314.12 -628.23,628.23 -942.34,942.33 314.11,314.11 628.23,628.22 942.34,942.34 h 271.69 v 0"
         style="fill:#f9de1c;fill-opacity:1;fill-rule:evenodd;stroke:none"
         transform="matrix(0.13333333,0,0,-0.13333333,0,670.61333)" />
      <path
         id="path29"
         d="M 992.488,4379.36 C 843.398,4121.13 694.758,3862.93 545.676,3604.71 h 893.634 c -149.1,258.22 -297.73,516.42 -446.822,774.65 z M 1158.36,4857.3 C 1418.1,4407.42 1677.7,3958.52 1937.44,3508.64 L 1771.58,3220.43 H 213.398 L 47.5313,3508.64 C 307.273,3958.52 566.879,4407.42 826.609,4857.3 h 331.751 v 0"
         style="fill:#448733;fill-opacity:1;fill-rule:evenodd;stroke:none"
         transform="matrix(0.13333333,0,0,-0.13333333,0,670.61333)" />
      <path
         id="path30"
         d="m 2698.54,2041.58 292.3,-506.31 h 586.55 l 292.29,506.31 -292.29,506.29 h -586.55 z m 72.36,890.57 h 1026.43 l 514.15,-890.57 -514.15,-890.59 H 2770.9 l -514.18,890.59 514.18,890.57 v 0"
         style="fill:#e63122;fill-opacity:1;fill-rule:evenodd;stroke:none"
         transform="matrix(0.13333333,0,0,-0.13333333,0,670.61333)" />
      <path
         id="path31"
         d="M 545.676,3604.71 H 323.129 L 1046.78,4857.3 h 111.58 l 779.08,-1348.66 -110.08,-191.28 -723.9,1253.85 -557.784,-966.5"
         style="fill:#6fbc3a;fill-opacity:1;fill-rule:evenodd;stroke:none"
         transform="matrix(0.13333333,0,0,-0.13333333,0,670.61333)" />
      <path
         id="path32"
         d="m 1439.31,3604.71 111.23,-192.14 H 102.82 L 47.5313,3508.64 826.609,4857.3 H 1046.78 L 323.129,3604.71 H 1439.31"
         style="fill:#559d33;fill-opacity:1;fill-rule:evenodd;stroke:none"
         transform="matrix(0.13333333,0,0,-0.13333333,0,670.61333)" />
      <path
         id="path33"
         d="m 3148.27,3416.65 -670.63,670.64 942.32,942.32 h -271.69 l -942.34,-942.34 942.34,-942.33 942.33,942.33 h -271.71 l -670.62,-670.62"
         style="fill:#df8c16;fill-opacity:1;fill-rule:evenodd;stroke:none"
         transform="matrix(0.13333333,0,0,-0.13333333,0,670.61333)" />
      <path
         id="path34"
         d="m 3419.96,4757.91 670.64,-670.64 -942.33,-942.33 h 271.69 l 942.34,942.33 -942.34,942.34 -942.32,-942.34 h 271.71 l 670.61,670.64"
         style="fill:#fab40a;fill-opacity:1;fill-rule:evenodd;stroke:none"
         transform="matrix(0.13333333,0,0,-0.13333333,0,670.61333)" />
      <path
         id="path35"
         d="M 316.809,1312.11 379.23,1119.98 H 1403.7 l 293.77,901.7 -163.44,118.76 -269.93,-828.33 z m 340.859,192.14 H 456.379 l -230.488,709.48 -62.434,192.13 829.031,602.35 163.452,-118.76 -767.233,-557.42 268.961,-827.78 v 0"
         style="fill:#2e4ca2;fill-opacity:1;fill-rule:evenodd;stroke:none"
         transform="matrix(0.13333333,0,0,-0.13333333,0,670.61333)" />
      <path
         id="path36"
         d="m 992.488,2533.88 162.972,118.4 767.07,-557.3 -316.79,-975 H 1403.7 l 293.13,902.14 -704.342,511.76"
         style="fill:#6587cd;fill-opacity:1;fill-rule:evenodd;stroke:none"
         transform="matrix(0.13333333,0,0,-0.13333333,0,670.61333)" />
      <path
         id="path37"
         d="m 4202.48,2233.71 -514.17,-890.57 h -586.53 l -403.24,698.44 292.3,506.29 h -221.87 l -292.31,-506.29 514.18,-890.59 h 808.39 l 514.18,890.59 -110.93,192.13"
         style="fill:#cc2d23;fill-opacity:1;fill-rule:evenodd;stroke:none"
         transform="matrix(0.13333333,0,0,-0.13333333,0,670.61333)" />
      <path
         id="path38"
         d="m 3869.68,2041.58 110.95,192.13 -292.32,506.31 H 2658.06 l -403.26,-698.44 522.98,-905.84 213.06,15.25 -514.18,890.59 292.31,506.29 h 808.42 l 292.29,-506.29"
         style="fill:#f14c2b;fill-opacity:1;fill-rule:evenodd;stroke:none"
         transform="matrix(0.13333333,0,0,-0.13333333,0,670.61333)" />
    </g>
  </g>
</svg>
