<?xml version="1.0" encoding="UTF-8" standalone="no"?>
<!-- Created with Inkscape (http://www.inkscape.org/) -->

<svg
   version="1.1"
   id="svg1"
   width="644.47998"
   height="567.4267"
   viewBox="0 0 644.47998 567.4267"
   sodipodi:docname="industrial-conveyor-belt.svg"
   inkscape:version="1.4 (e7c3feb100, 2024-10-09)"
   xmlns:inkscape="http://www.inkscape.org/namespaces/inkscape"
   xmlns:sodipodi="http://sodipodi.sourceforge.net/DTD/sodipodi-0.dtd"
   xmlns="http://www.w3.org/2000/svg"
   xmlns:svg="http://www.w3.org/2000/svg">
  <defs
     id="defs1" />
  <sodipodi:namedview
     id="namedview1"
     pagecolor="#505050"
     bordercolor="#ffffff"
     borderopacity="1"
     inkscape:showpageshadow="0"
     inkscape:pageopacity="0"
     inkscape:pagecheckerboard="1"
     inkscape:deskcolor="#d1d1d1"
     inkscape:zoom="1.4363089"
     inkscape:cx="322.35406"
     inkscape:cy="283.71335"
     inkscape:window-width="1920"
     inkscape:window-height="1002"
     inkscape:window-x="0"
     inkscape:window-y="0"
     inkscape:window-maximized="1"
     inkscape:current-layer="g1">
    <inkscape:page
       x="0"
       y="0"
       inkscape:label="1"
       id="page1"
       width="644.47998"
       height="567.4267"
       margin="0"
       bleed="0" />
  </sodipodi:namedview>
  <g
     id="g1"
     inkscape:groupmode="layer"
     inkscape:label="1">
    <g
       id="group-R5">
      <path
         id="path2"
         d="m 2441.79,313.84 c 12.06,0 21.91,9.851 21.91,21.922 0,12.078 -9.85,21.929 -21.91,21.929 -12.08,0 -21.93,-9.851 -21.93,-21.929 0,-12.071 9.85,-21.922 21.93,-21.922"
         style="fill:#737f4d;fill-opacity:1;fill-rule:evenodd;stroke:none"
         transform="matrix(0.13333333,0,0,-0.13333333,0,567.42667)" />
      <path
         id="path3"
         d="m 1554.32,72.9219 c 0,5.457 -0.78,10.1797 -2.4,14.0273 -1.57,3.9219 -3.78,6.9414 -6.62,9.0703 -2.83,2.0703 -5.95,3.1289 -9.4,3.1289 -5.45,0 -10.06,-2.2968 -13.81,-6.7578 -3.75,-4.5117 -5.62,-11.0898 -5.62,-19.8203 0,-8.2305 1.87,-14.6289 5.57,-19.1406 3.75,-4.5781 8.38,-6.8906 13.86,-6.8906 3.28,0 6.35,1 9.16,3.0195 2.77,1.9922 5.02,4.9727 6.72,8.9219 1.71,4.0195 2.54,8.8086 2.54,14.4414 z m -38.77,30.0901 v -2.492 c 3.71,4.761 7.56,8.332 11.56,10.539 4.03,2.25 8.6,3.39 13.68,3.39 6.07,0 11.68,-1.648 16.8,-4.929 5.11,-3.282 9.15,-8.04 12.14,-14.3716 2.97,-6.3164 4.44,-13.7578 4.44,-22.3789 0,-6.3398 -0.84,-12.25 -2.55,-17.5 -1.71,-5.3281 -4.08,-9.8203 -7.06,-13.4101 -3,-3.6094 -6.57,-6.3985 -10.62,-8.3086 -4.1,-1.9805 -8.51,-2.9297 -13.15,-2.9297 -5.69,0 -10.43,1.1797 -14.27,3.5508 -3.88,2.3594 -7.51,5.8164 -10.97,10.4179 V 13.6094 C 1515.55,4.51953 1512.38,0 1506.05,0 c -3.72,0 -6.2,1.14844 -7.37,3.48828 -1.22,2.35156 -1.82,5.77344 -1.82,10.25002 v 89.1327 c 0,3.93 0.79,6.879 2.45,8.809 1.67,1.929 3.91,2.922 6.74,2.922 2.8,0 5.09,-0.993 6.85,-3.012 1.75,-2.008 2.65,-4.871 2.65,-8.578"
         style="fill:#737f4d;fill-opacity:1;fill-rule:nonzero;stroke:none"
         transform="matrix(0.13333333,0,0,-0.13333333,0,567.42667)" />
      <path
         id="path4"
         d="m 1641.47,42.3008 v 2.5976 c -2.38,-3.1093 -4.86,-5.7187 -7.48,-7.8281 -2.61,-2.1601 -5.46,-3.7187 -8.54,-4.7305 -3.12,-1.0312 -6.64,-1.5585 -10.6,-1.5585 -4.76,0 -9.04,1.0507 -12.85,3.0898 -3.8,2.0703 -6.74,4.918 -8.79,8.5391 -2.5,4.3984 -3.7,10.7109 -3.7,18.8906 V 102.23 c 0,4.102 0.89,7.211 2.68,9.25 1.79,2.04 4.14,3.059 7.08,3.059 3.01,0 5.41,-1.019 7.26,-3.109 1.83,-2.071 2.74,-5.16 2.74,-9.2 V 69.1484 c 0,-4.75 0.38,-8.7773 1.14,-12.0078 0.81,-3.2617 2.19,-5.8086 4.21,-7.6797 1.97,-1.8125 4.7,-2.7304 8.13,-2.7304 3.37,0 6.49,1.039 9.42,3.1093 2.97,2.0391 5.13,4.7305 6.47,8.0586 1.11,2.9336 1.66,9.3321 1.66,19.211 V 102.23 c 0,4.04 0.92,7.129 2.77,9.2 1.82,2.09 4.18,3.109 7.15,3.109 2.95,0 5.31,-1.019 7.1,-3.059 1.77,-2.039 2.65,-5.148 2.65,-9.25 V 42.4102 c 0,-3.9219 -0.82,-6.8789 -2.54,-8.8204 -1.7,-2 -3.91,-2.9492 -6.62,-2.9492 -2.7,0 -4.93,1.0391 -6.7,3.0313 -1.76,2.0664 -2.64,4.9101 -2.64,8.6289"
         style="fill:#737f4d;fill-opacity:1;fill-rule:nonzero;stroke:none"
         transform="matrix(0.13333333,0,0,-0.13333333,0,567.42667)" />
      <path
         id="path5"
         d="m 1698.85,72.1016 c 0,-8.211 1.79,-14.5 5.37,-18.9219 3.62,-4.3984 8.34,-6.6406 14.2,-6.6406 4.98,0 9.24,2.2812 12.86,6.7812 3.63,4.5195 5.42,10.9492 5.42,19.3906 0,5.4883 -0.75,10.1602 -2.25,14.0782 -1.52,3.9492 -3.65,6.9922 -6.38,9.1211 -2.79,2.1406 -5.97,3.2382 -9.65,3.2382 -3.81,0 -7.11,-1.0976 -10.08,-3.2382 -2.96,-2.1289 -5.26,-5.2383 -6.97,-9.3204 -1.69,-4.0195 -2.52,-8.8281 -2.52,-14.4882 z m -0.93,61.3784 v -31.558 c 3.67,4.066 7.49,7.117 11.34,9.308 3.87,2.141 8.67,3.219 14.36,3.219 6.58,0 12.33,-1.648 17.28,-4.867 4.94,-3.312 8.81,-7.992 11.53,-14.1601 2.75,-6.1719 4.1,-13.4922 4.1,-21.961 0,-6.2695 -0.75,-11.9921 -2.26,-17.25 -1.53,-5.1914 -3.72,-9.6914 -6.63,-13.5703 -2.93,-3.8086 -6.44,-6.7422 -10.56,-8.9101 -4.15,-2.0508 -8.7,-3.1094 -13.67,-3.1094 -3.01,0 -5.91,0.3906 -8.6,1.1289 -2.68,0.7617 -4.98,1.75 -6.82,3.0195 -1.91,1.1719 -3.51,2.4922 -4.85,3.7696 -1.32,1.3203 -3.06,3.2812 -5.22,5.9023 v -2.0312 c 0,-3.8907 -0.92,-6.8204 -2.71,-8.8204 -1.77,-2 -4.07,-2.9687 -6.8,-2.9687 -2.82,0 -5.04,0.9687 -6.73,2.9687 -1.65,2.0391 -2.48,4.9493 -2.48,8.8204 v 90.1718 c 0,4.148 0.8,7.316 2.45,9.449 1.61,2.16 3.84,3.231 6.76,3.231 3.03,0 5.38,-1.02 7.01,-3.082 1.66,-2.02 2.5,-4.91 2.5,-8.7"
         style="fill:#737f4d;fill-opacity:1;fill-rule:nonzero;stroke:none"
         transform="matrix(0.13333333,0,0,-0.13333333,0,567.42667)" />
      <path
         id="path6"
         d="m 1770.49,43.1914 v 89.5196 c 0,4.148 0.88,7.25 2.62,9.379 1.8,2.101 4.16,3.172 7.16,3.172 3,0 5.4,-1.032 7.24,-3.141 1.81,-2.082 2.77,-5.242 2.77,-9.41 V 43.1914 c 0,-4.1914 -0.96,-7.3516 -2.81,-9.4609 -1.85,-2.0508 -4.26,-3.1094 -7.2,-3.1094 -2.9,0 -5.23,1.0898 -7.05,3.25 -1.82,2.1797 -2.73,5.2578 -2.73,9.3203"
         style="fill:#737f4d;fill-opacity:1;fill-rule:nonzero;stroke:none"
         transform="matrix(0.13333333,0,0,-0.13333333,0,567.42667)" />
      <path
         id="path7"
         d="M 1830.47,102.809 V 43.1914 c 0,-4.1719 -0.96,-7.293 -2.8,-9.4101 -1.9,-2.0704 -4.31,-3.1602 -7.18,-3.1602 -2.91,0 -5.27,1.0898 -7.07,3.2383 -1.79,2.1914 -2.73,5.2695 -2.73,9.332 V 102.23 c 0,4.04 0.94,7.129 2.73,9.2 1.8,2.09 4.16,3.109 7.07,3.109 2.87,0 5.28,-1.019 7.18,-3.109 1.84,-2.071 2.8,-4.93 2.8,-8.621 z m -9.78,21.351 c -2.76,0 -5.09,0.879 -7.09,2.692 -1.91,1.757 -2.91,4.269 -2.91,7.507 0,2.911 1,5.289 3.02,7.211 2,1.899 4.32,2.789 6.98,2.789 2.56,0 4.84,-0.828 6.81,-2.527 1.98,-1.723 2.97,-4.242 2.97,-7.473 0,-3.211 -0.97,-5.687 -2.91,-7.449 -1.93,-1.789 -4.2,-2.75 -6.87,-2.75"
         style="fill:#737f4d;fill-opacity:1;fill-rule:nonzero;stroke:none"
         transform="matrix(0.13333333,0,0,-0.13333333,0,567.42667)" />
      <path
         id="path8"
         d="m 1921.76,56.1797 c 0,-2.5586 -0.72,-5.3203 -2.18,-8.2383 -1.5,-2.9219 -3.75,-5.6914 -6.77,-8.3516 -3,-2.6406 -6.81,-4.7578 -11.4,-6.371 -4.59,-1.6485 -9.76,-2.4375 -15.5,-2.4375 -12.23,0 -21.76,3.7304 -28.63,11.1601 -6.85,7.4375 -10.28,17.3789 -10.28,29.8906 0,8.4571 1.56,15.9688 4.68,22.4571 3.14,6.4609 7.72,11.5309 13.64,15.0699 5.93,3.571 13.05,5.352 21.29,5.352 5.13,0 9.84,-0.801 14.12,-2.352 4.27,-1.57 7.89,-3.597 10.86,-6.039 2.97,-2.48 5.23,-5.121 6.81,-7.8981 1.59,-2.793 2.35,-5.4102 2.35,-7.8321 0,-2.4414 -0.9,-4.5312 -2.64,-6.2578 -1.78,-1.7304 -3.89,-2.582 -6.41,-2.582 -1.66,0 -3,0.4805 -4.12,1.3594 -1.05,0.8515 -2.28,2.2304 -3.65,4.25 -2.4,3.8125 -4.94,6.6992 -7.57,8.6601 -2.63,1.8907 -5.98,2.8789 -10.01,2.8789 -5.88,0 -10.58,-2.4179 -14.15,-7.1796 -3.58,-4.7891 -5.35,-11.2969 -5.35,-19.5704 0,-3.8593 0.46,-7.4687 1.39,-10.6992 0.91,-3.2578 2.23,-6.0273 3.96,-8.3281 1.75,-2.3008 3.83,-4.0313 6.3,-5.2109 2.46,-1.211 5.18,-1.7891 8.11,-1.7891 3.98,0 7.36,0.9375 10.19,2.8672 2.83,1.9336 5.33,4.8633 7.5,8.75 1.21,2.3711 2.51,4.1719 3.92,5.4922 1.41,1.3203 3.13,1.9492 5.15,1.9492 2.42,0 4.42,-0.9375 6.03,-2.8477 1.56,-1.9609 2.36,-3.9804 2.36,-6.1523"
         style="fill:#737f4d;fill-opacity:1;fill-rule:nonzero;stroke:none"
         transform="matrix(0.13333333,0,0,-0.13333333,0,567.42667)" />
      <path
         id="path9"
         d="m 1954.35,72.7109 c 0,-5.6015 0.83,-10.3398 2.49,-14.289 1.68,-3.9531 3.93,-6.8711 6.83,-8.8633 2.92,-2.0195 6.08,-3.0195 9.48,-3.0195 3.49,0 6.66,0.9726 9.53,2.8398 2.89,1.9024 5.16,4.8125 6.9,8.7227 1.71,3.8789 2.56,8.7773 2.56,14.6093 0,5.5196 -0.85,10.2188 -2.56,14.1993 -1.74,3.9609 -4.05,6.9804 -6.96,9.1093 -2.93,2.0703 -6.11,3.1289 -9.59,3.1289 -3.61,0 -6.84,-1.0976 -9.7,-3.2382 -2.84,-2.1289 -5.07,-5.2305 -6.64,-9.2383 -1.55,-4.0235 -2.34,-8.6328 -2.34,-13.961 z m 38.88,-30.3007 v 2.0312 c -2.66,-3.1797 -5.28,-5.7617 -7.89,-7.7226 -2.54,-2.0079 -5.36,-3.5274 -8.38,-4.5586 -3.01,-1.0118 -6.31,-1.5391 -9.88,-1.5391 -4.72,0 -9.14,1.0586 -13.15,3.1094 -4.02,2.1679 -7.51,5.1211 -10.46,9 -2.94,3.8711 -5.17,8.4297 -6.71,13.6992 -1.54,5.2187 -2.28,10.9023 -2.28,17.0312 0,12.8711 3.02,22.9805 9.06,30.1801 6.05,7.211 13.98,10.808 23.83,10.808 5.69,0 10.51,-1.039 14.41,-3.117 3.91,-2 7.74,-5.152 11.45,-9.41 v 30.476 c 0,4.243 0.8,7.454 2.43,9.602 1.61,2.18 3.9,3.262 6.9,3.262 2.99,0 5.3,-1 6.94,-2.973 1.6,-1.988 2.44,-4.93 2.44,-8.809 V 42.4102 c 0,-3.9219 -0.88,-6.8789 -2.63,-8.8204 -1.75,-2 -3.97,-2.9687 -6.75,-2.9687 -2.67,0 -4.94,1.0078 -6.71,3.0508 -1.74,2.0273 -2.62,4.9297 -2.62,8.7383"
         style="fill:#737f4d;fill-opacity:1;fill-rule:nonzero;stroke:none"
         transform="matrix(0.13333333,0,0,-0.13333333,0,567.42667)" />
      <path
         id="path10"
         d="m 2085.98,72.5391 c 0,8.3906 -1.81,14.9609 -5.33,19.6523 -3.56,4.6602 -8.34,7.0274 -14.32,7.0274 -3.88,0 -7.27,-1.0469 -10.22,-3.1368 -2.94,-2.1211 -5.21,-5.2109 -6.81,-9.2929 -1.58,-4.0391 -2.39,-8.7774 -2.39,-14.25 0,-5.3985 0.81,-10.0977 2.35,-14.1172 1.57,-4.0313 3.82,-7.1211 6.76,-9.2735 2.91,-2.1367 6.38,-3.1875 10.31,-3.1875 5.98,0 10.76,2.3399 14.32,7.0508 3.52,4.6992 5.33,11.2305 5.33,19.5274 z m 19.85,0 c 0,-6.1094 -0.93,-11.8008 -2.76,-17.0196 -1.83,-5.1484 -4.49,-9.6211 -7.95,-13.3593 -3.5,-3.7383 -7.65,-6.5313 -12.48,-8.5704 -4.82,-2 -10.3,-2.9687 -16.31,-2.9687 -5.97,0 -11.37,0.9687 -16.14,3.0195 -4.78,2.0078 -8.94,4.8985 -12.45,8.6602 -3.49,3.7695 -6.13,8.1601 -7.97,13.2812 -1.81,5.1485 -2.7,10.7696 -2.7,17 0,6.25 0.92,11.9571 2.74,17.1289 1.84,5.2188 4.45,9.6289 7.89,13.3401 3.44,3.668 7.58,6.5 12.49,8.48 4.89,2.008 10.24,3.008 16.14,3.008 6,0 11.44,-1 16.31,-3.027 4.86,-2.012 9.04,-4.91 12.52,-8.641 3.5,-3.7226 6.13,-8.1796 7.91,-13.3319 1.86,-5.1172 2.76,-10.8008 2.76,-17"
         style="fill:#737f4d;fill-opacity:1;fill-rule:nonzero;stroke:none"
         transform="matrix(0.13333333,0,0,-0.13333333,0,567.42667)" />
      <path
         id="path11"
         d="m 2189.36,89.5898 c -1.48,-3.4804 -2.19,-9.6484 -2.19,-18.5078 V 43.6406 c 0,-4.3086 -0.92,-7.5898 -2.83,-9.7695 -1.87,-2.1602 -4.39,-3.25 -7.48,-3.25 -2.97,0 -5.39,1.0898 -7.24,3.25 -1.86,2.1797 -2.77,5.4609 -2.77,9.7695 v 32.9297 c 0,5.1797 -0.19,9.1992 -0.54,12.1094 -0.34,2.8398 -1.25,5.2187 -2.75,7.0586 -1.47,1.8633 -3.85,2.7812 -7.07,2.7812 -6.47,0 -10.72,-2.3281 -12.79,-7 -2.07,-4.6093 -3.05,-11.2695 -3.05,-19.9687 V 43.6406 c 0,-4.3008 -0.96,-7.539 -2.79,-9.6914 -1.88,-2.2383 -4.33,-3.3281 -7.34,-3.3281 -3.02,0 -5.5,1.0898 -7.39,3.3281 -1.92,2.1524 -2.83,5.3906 -2.83,9.6797 v 59.0821 c 0,3.891 0.82,6.84 2.52,8.848 1.74,2.011 3.99,3.043 6.81,3.043 2.7,0 4.96,-0.942 6.76,-2.832 1.81,-1.891 2.72,-4.481 2.72,-7.821 v -1.969 c 3.41,4.29 7.1,7.461 10.99,9.45 3.91,2.011 8.3,3.019 13.05,3.019 4.96,0 9.22,-1.039 12.79,-3.117 3.6,-2.043 6.53,-5.184 8.83,-9.352 3.34,4.2 6.91,7.379 10.74,9.411 3.82,2.05 8.04,3.058 12.66,3.058 5.45,0 10.1,-1.078 13.98,-3.34 3.93,-2.211 6.84,-5.379 8.78,-9.519 1.7,-3.7306 2.53,-9.6017 2.53,-17.6291 V 43.6406 c 0,-4.3086 -0.94,-7.5898 -2.79,-9.7695 -1.92,-2.1602 -4.39,-3.25 -7.48,-3.25 -3.01,0 -5.45,1.0898 -7.35,3.3281 -1.93,2.1524 -2.89,5.3906 -2.89,9.6914 v 34.7383 c 0,4.4414 -0.17,7.9922 -0.52,10.6602 -0.37,2.7109 -1.35,4.9218 -2.96,6.7422 -1.58,1.8203 -4.02,2.7382 -7.22,2.7382 -2.61,0 -5.1,-0.8203 -7.4,-2.3984 -2.38,-1.6406 -4.16,-3.8008 -5.49,-6.5313 v 0"
         style="fill:#737f4d;fill-opacity:1;fill-rule:nonzero;stroke:none"
         transform="matrix(0.13333333,0,0,-0.13333333,0,567.42667)" />
      <path
         id="path12"
         d="m 2301.37,72.1484 c -2.91,-1.1289 -7.13,-2.2773 -12.65,-3.539 -5.54,-1.2305 -9.37,-2.1211 -11.5,-2.7188 -2.13,-0.6015 -4.16,-1.7187 -6.06,-3.3906 -1.96,-1.7383 -2.93,-4.0781 -2.93,-7.1094 0,-3.1523 1.15,-5.789 3.4,-7.9922 2.28,-2.207 5.26,-3.289 8.93,-3.289 3.91,0 7.54,0.9101 10.83,2.6992 3.31,1.7812 5.76,4.1133 7.28,6.9102 1.79,3.1406 2.7,8.2617 2.7,15.4921 z m 1.29,-29.8984 c -4.79,-3.8906 -9.41,-6.7891 -13.88,-8.6992 -4.45,-1.9805 -9.49,-2.9297 -15.02,-2.9297 -5.1,0 -9.52,1.0586 -13.38,3.1094 -3.87,2.1093 -6.8,4.9492 -8.89,8.5703 -2.05,3.5703 -3.12,7.418 -3.12,11.6211 0,5.6484 1.76,10.4492 5.18,14.4375 3.4,3.9609 8.11,6.6406 14.09,8.0117 1.26,0.3008 4.4,0.9609 9.34,2.0078 5.03,1.0899 9.25,2.043 12.85,2.9219 3.51,0.8711 7.39,1.9375 11.54,3.1875 -0.25,5.4726 -1.3,9.4726 -3.14,12.0625 -1.89,2.5195 -5.76,3.7692 -11.57,3.7692 -5.05,0 -8.81,-0.7106 -11.38,-2.1716 -2.52,-1.4492 -4.71,-3.6679 -6.5,-6.6289 -1.83,-2.8984 -3.08,-4.8398 -3.83,-5.7578 -0.78,-0.9531 -2.39,-1.3711 -4.81,-1.3711 -2.25,0 -4.16,0.7305 -5.76,2.1875 -1.64,1.5117 -2.44,3.3828 -2.44,5.7422 0,3.6211 1.23,7.168 3.68,10.5507 2.47,3.449 6.32,6.258 11.52,8.52 5.22,2.218 11.73,3.32 19.52,3.32 8.67,0 15.51,-1.102 20.52,-3.231 4.96,-2.121 8.44,-5.492 10.51,-10.171 2.07,-4.6098 3.09,-10.7777 3.09,-18.4379 0,-4.832 0,-8.9727 -0.03,-12.332 -0.04,-3.3985 -0.06,-7.1485 -0.11,-11.2774 0,-3.8711 0.61,-7.9297 1.86,-12.1211 1.2,-4.2109 1.81,-6.9297 1.81,-8.1211 0,-2.1211 -0.97,-4.0586 -2.86,-5.8007 -1.87,-1.7188 -4.05,-2.5977 -6.45,-2.5977 -2.07,0 -4.03,0.9687 -6.04,2.9687 -1.97,2 -4.07,4.8985 -6.3,8.6602"
         style="fill:#737f4d;fill-opacity:1;fill-rule:nonzero;stroke:none"
         transform="matrix(0.13333333,0,0,-0.13333333,0,567.42667)" />
      <path
         id="path13"
         d="M 2360.65,102.809 V 43.1914 c 0,-4.1719 -0.95,-7.293 -2.8,-9.4101 -1.89,-2.0704 -4.26,-3.1602 -7.17,-3.1602 -2.89,0 -5.27,1.0898 -7.06,3.2383 -1.84,2.1914 -2.75,5.2695 -2.75,9.332 V 102.23 c 0,4.04 0.91,7.129 2.75,9.2 1.79,2.09 4.17,3.109 7.06,3.109 2.91,0 5.28,-1.019 7.17,-3.109 1.85,-2.071 2.8,-4.93 2.8,-8.621 z m -9.78,21.351 c -2.72,0 -5.06,0.879 -7.03,2.692 -1.95,1.757 -2.97,4.269 -2.97,7.507 0,2.911 1.03,5.289 3.04,7.211 1.98,1.899 4.34,2.789 6.96,2.789 2.57,0 4.87,-0.828 6.85,-2.527 1.95,-1.723 2.93,-4.242 2.93,-7.473 0,-3.211 -0.95,-5.687 -2.89,-7.449 -1.93,-1.789 -4.23,-2.75 -6.89,-2.75"
         style="fill:#737f4d;fill-opacity:1;fill-rule:nonzero;stroke:none"
         transform="matrix(0.13333333,0,0,-0.13333333,0,567.42667)" />
      <path
         id="path14"
         d="m 2399.09,103.121 v -2.461 c 3.45,4.762 7.25,8.281 11.35,10.512 4.14,2.238 8.89,3.367 14.28,3.367 5.19,0 9.87,-1.168 14.01,-3.57 4.06,-2.36 7.14,-5.688 9.16,-10 1.31,-2.5471 2.13,-5.2893 2.54,-8.1995 0.37,-2.9101 0.59,-6.6406 0.59,-11.1914 V 43.1914 c 0,-4.1719 -0.94,-7.293 -2.73,-9.4101 -1.82,-2.0704 -4.18,-3.1602 -7.06,-3.1602 -2.94,0 -5.35,1.0898 -7.11,3.25 -1.87,2.1797 -2.81,5.2578 -2.81,9.3203 v 34.3672 c 0,6.8516 -0.88,12.0312 -2.68,15.6328 -1.85,3.5977 -5.47,5.418 -10.88,5.418 -3.52,0 -6.73,-1.0977 -9.62,-3.3086 -2.89,-2.1602 -5.02,-5.1914 -6.37,-9.0313 -0.96,-3.0781 -1.47,-8.8007 -1.47,-17.2578 V 43.1914 c 0,-4.1914 -0.91,-7.3516 -2.79,-9.4609 -1.86,-2.0508 -4.26,-3.1094 -7.19,-3.1094 -2.83,0 -5.2,1.0898 -7.02,3.2383 -1.87,2.1914 -2.77,5.2695 -2.77,9.332 v 59.6176 c 0,3.961 0.81,6.863 2.48,8.812 1.6,1.949 3.91,2.918 6.74,2.918 1.71,0 3.3,-0.461 4.68,-1.289 1.44,-0.84 2.53,-2.16 3.38,-3.809 0.82,-1.761 1.29,-3.851 1.29,-6.32"
         style="fill:#737f4d;fill-opacity:1;fill-rule:nonzero;stroke:none"
         transform="matrix(0.13333333,0,0,-0.13333333,0,567.42667)" />
      <path
         id="path15"
         d="m 2482.76,101.699 15.98,-46.867 17.24,48.906 c 1.38,3.942 2.7,6.692 4.02,8.344 1.33,1.629 3.28,2.457 5.92,2.457 2.51,0 4.64,-0.879 6.45,-2.668 1.73,-1.75 2.62,-3.762 2.62,-6.141 0,-0.878 -0.18,-1.929 -0.49,-3.109 -0.29,-1.242 -0.65,-2.371 -1.08,-3.4608 -0.42,-1.0118 -0.85,-2.2383 -1.41,-3.5899 l -18.98,-49.1484 c -0.53,-1.4024 -1.24,-3.2227 -2.06,-5.3906 -0.86,-2.1524 -1.81,-3.9727 -2.83,-5.5704 -1.06,-1.5117 -2.32,-2.6796 -3.83,-3.539 -1.55,-0.8633 -3.4,-1.3008 -5.57,-1.3008 -2.81,0 -5.02,0.6602 -6.71,1.9805 -1.67,1.3476 -2.9,2.789 -3.7,4.4101 -0.78,1.5703 -2.14,4.7188 -4.01,9.4102 l -18.86,48.6094 c -0.43,1.1875 -0.89,2.4101 -1.36,3.6171 -0.44,1.211 -0.79,2.4216 -1.14,3.7106 -0.3,1.282 -0.47,2.36 -0.47,3.231 0,1.441 0.41,2.832 1.25,4.219 0.82,1.39 1.96,2.55 3.39,3.402 1.48,0.867 3.01,1.328 4.73,1.328 3.26,0 5.53,-0.969 6.77,-2.98 1.24,-1.95 2.62,-5.239 4.13,-9.86"
         style="fill:#737f4d;fill-opacity:1;fill-rule:nonzero;stroke:none"
         transform="matrix(0.13333333,0,0,-0.13333333,0,567.42667)" />
      <path
         id="path16"
         d="m 2563.66,79.2813 h 35.85 c -0.46,7.0273 -2.27,12.3085 -5.46,15.8007 -3.18,3.4883 -7.35,5.238 -12.52,5.238 -4.89,0 -8.96,-1.7692 -12.1,-5.32 -3.17,-3.5312 -5.06,-8.7891 -5.77,-15.7187 z m 38.69,-11.75 h -38.69 c 0.01,-4.711 0.95,-8.8321 2.68,-12.4297 1.8,-3.5508 4.12,-6.25 7.05,-8.0899 2.92,-1.8203 6.16,-2.7031 9.69,-2.7031 2.35,0 4.54,0.2812 6.47,0.8516 1.95,0.6015 3.86,1.5 5.72,2.7187 1.81,1.2422 3.48,2.5313 5.04,4 1.52,1.4024 3.59,3.293 6.01,5.7227 1.03,0.957 2.48,1.3789 4.35,1.3789 2.06,0 3.68,-0.5586 4.94,-1.75 1.26,-1.1602 1.86,-2.7891 1.86,-4.8907 0,-1.8789 -0.69,-4.0585 -2.1,-6.5781 -1.39,-2.4609 -3.46,-4.8711 -6.34,-7.1797 -2.83,-2.2812 -6.38,-4.1523 -10.66,-5.7109 -4.24,-1.5 -9.14,-2.25 -14.74,-2.25 -12.69,0 -22.58,3.8086 -29.6,11.3203 -7.04,7.6094 -10.56,17.8399 -10.56,30.7695 0,6.168 0.9,11.7774 2.6,16.9883 1.74,5.2305 4.26,9.6992 7.6,13.4218 3.34,3.75 7.42,6.629 12.31,8.59 4.9,2 10.28,3 16.25,3 7.68,0 14.33,-1.699 19.85,-5.129 5.55,-3.402 9.68,-7.762 12.44,-13.1406 2.75,-5.4297 4.13,-10.9023 4.13,-16.543 0,-5.1484 -1.39,-8.5195 -4.27,-10.039 -2.87,-1.5703 -6.86,-2.3281 -12.03,-2.3281"
         style="fill:#737f4d;fill-opacity:1;fill-rule:nonzero;stroke:none"
         transform="matrix(0.13333333,0,0,-0.13333333,0,567.42667)" />
      <path
         id="path17"
         d="m 2706.27,56.1797 c 0,-2.5586 -0.73,-5.3203 -2.23,-8.2383 -1.49,-2.9219 -3.68,-5.6914 -6.73,-8.3516 -3.01,-2.6406 -6.85,-4.7578 -11.45,-6.371 -4.56,-1.6485 -9.75,-2.4375 -15.45,-2.4375 -12.26,0 -21.8,3.7304 -28.65,11.1601 -6.83,7.4375 -10.29,17.3789 -10.29,29.8906 0,8.4571 1.56,15.9688 4.73,22.4571 3.14,6.4609 7.64,11.5309 13.6,15.0699 5.92,3.571 13.05,5.352 21.32,5.352 5.12,0 9.79,-0.801 14.1,-2.352 4.27,-1.57 7.86,-3.597 10.87,-6.039 2.97,-2.48 5.21,-5.121 6.81,-7.8981 1.55,-2.793 2.34,-5.4102 2.34,-7.8321 0,-2.4414 -0.86,-4.5312 -2.69,-6.2578 -1.73,-1.7304 -3.86,-2.582 -6.37,-2.582 -1.65,0 -3.01,0.4805 -4.08,1.3594 -1.11,0.8515 -2.32,2.2304 -3.69,4.25 -2.41,3.8125 -4.92,6.6992 -7.56,8.6601 -2.63,1.8907 -5.97,2.8789 -10.04,2.8789 -5.81,0 -10.54,-2.4179 -14.11,-7.1796 -3.6,-4.7891 -5.38,-11.2969 -5.38,-19.5704 0,-3.8593 0.49,-7.4687 1.37,-10.6992 0.93,-3.2578 2.27,-6.0273 4.01,-8.3281 1.73,-2.3008 3.85,-4.0313 6.31,-5.2109 2.42,-1.211 5.14,-1.7891 8.11,-1.7891 3.95,0 7.36,0.9375 10.18,2.8672 2.82,1.9336 5.34,4.8633 7.51,8.75 1.21,2.3711 2.49,4.1719 3.91,5.4922 1.39,1.3203 3.09,1.9492 5.15,1.9492 2.38,0 4.42,-0.9375 5.95,-2.8477 1.63,-1.9609 2.45,-3.9804 2.45,-6.1523"
         style="fill:#737f4d;fill-opacity:1;fill-rule:nonzero;stroke:none"
         transform="matrix(0.13333333,0,0,-0.13333333,0,567.42667)" />
      <path
         id="path18"
         d="m 2724.63,112.801 h 2.18 v 12.418 c 0,3.301 0.09,5.929 0.27,7.812 0.16,1.891 0.6,3.489 1.41,4.867 0.75,1.391 1.87,2.551 3.34,3.454 1.44,0.859 3.05,1.277 4.84,1.277 2.5,0 4.78,-0.969 6.79,-2.918 1.33,-1.332 2.21,-2.91 2.57,-4.789 0.37,-1.891 0.54,-4.613 0.54,-8.07 v -14.051 h 7.26 c 2.81,0 4.95,-0.699 6.42,-2.09 1.5,-1.379 2.22,-3.141 2.22,-5.32 0,-2.77 -1.05,-4.731 -3.18,-5.8324 -2.09,-1.0781 -5.1,-1.6484 -9.01,-1.6484 h -3.71 V 59.8906 c 0,-3.2304 0.11,-5.7187 0.32,-7.4804 0.25,-1.7383 0.87,-3.1602 1.79,-4.2188 0.9,-1.082 2.45,-1.6523 4.59,-1.6523 1.15,0 2.71,0.2109 4.71,0.6601 1.94,0.4219 3.49,0.6289 4.62,0.6289 1.58,0 3.07,-0.6875 4.33,-1.957 1.25,-1.3828 1.9,-3 1.9,-4.9805 0,-3.3086 -1.7,-5.8593 -5.2,-7.6289 -3.52,-1.7617 -8.5,-2.6406 -14.99,-2.6406 -6.19,0 -10.89,1.0898 -14.07,3.25 -3.18,2.1797 -5.3,5.1484 -6.25,9.0273 -1.02,3.8321 -1.51,8.9414 -1.51,15.3399 v 39.6719 h -2.63 c -2.8,0 -4.98,0.6992 -6.49,2.1288 -1.5,1.41 -2.24,3.172 -2.24,5.352 0,2.179 0.78,3.941 2.33,5.32 1.59,1.391 3.86,2.09 6.85,2.09"
         style="fill:#737f4d;fill-opacity:1;fill-rule:nonzero;stroke:none"
         transform="matrix(0.13333333,0,0,-0.13333333,0,567.42667)" />
      <path
         id="path19"
         d="m 2830.24,72.5391 c 0,8.3906 -1.8,14.9609 -5.32,19.6523 -3.59,4.6602 -8.31,7.0274 -14.32,7.0274 -3.88,0 -7.27,-1.0469 -10.2,-3.1368 -2.97,-2.1211 -5.24,-5.2109 -6.82,-9.2929 -1.59,-4.0391 -2.4,-8.7774 -2.4,-14.25 0,-5.3985 0.81,-10.0977 2.37,-14.1172 1.56,-4.0313 3.8,-7.1211 6.72,-9.2735 2.91,-2.1367 6.36,-3.1875 10.33,-3.1875 6.01,0 10.73,2.3399 14.32,7.0508 3.52,4.6992 5.32,11.2305 5.32,19.5274 z m 19.85,0 c 0,-6.1094 -0.91,-11.8008 -2.77,-17.0196 -1.82,-5.1484 -4.49,-9.6211 -7.95,-13.3593 -3.49,-3.7383 -7.65,-6.5313 -12.46,-8.5704 -4.84,-2 -10.24,-2.9687 -16.31,-2.9687 -6.02,0 -11.41,0.9687 -16.17,3.0195 -4.77,2.0078 -8.93,4.8985 -12.42,8.6602 -3.49,3.7695 -6.16,8.1601 -7.94,13.2812 -1.81,5.1485 -2.7,10.7696 -2.7,17 0,6.25 0.89,11.9571 2.7,17.1289 1.87,5.2188 4.47,9.6289 7.9,13.3401 3.45,3.668 7.6,6.5 12.46,8.48 4.93,2.008 10.3,3.008 16.17,3.008 6.01,0 11.41,-1 16.31,-3.027 4.87,-2.012 9.03,-4.91 12.52,-8.641 3.45,-3.7226 6.14,-8.1796 7.95,-13.3319 1.8,-5.1172 2.71,-10.8008 2.71,-17"
         style="fill:#737f4d;fill-opacity:1;fill-rule:nonzero;stroke:none"
         transform="matrix(0.13333333,0,0,-0.13333333,0,567.42667)" />
      <path
         id="path20"
         d="M 2885.33,60.3711 V 43.1914 c 0,-4.1914 -0.95,-7.3516 -2.83,-9.4609 -1.9,-2.0508 -4.28,-3.1094 -7.2,-3.1094 -2.81,0 -5.19,1.0898 -7,3.1602 -1.84,2.1171 -2.74,5.2382 -2.74,9.4101 v 57.4496 c 0,9.281 3.19,13.898 9.62,13.898 3.25,0 5.64,-1.098 7.11,-3.238 1.43,-2.172 2.19,-5.379 2.38,-9.602 2.36,4.223 4.81,7.43 7.3,9.602 2.49,2.14 5.79,3.238 9.92,3.238 4.19,0 8.2,-1.098 12.14,-3.238 3.89,-2.172 5.87,-5.063 5.87,-8.621 0,-2.52 -0.86,-4.6292 -2.52,-6.2386 -1.65,-1.6328 -3.46,-2.4805 -5.41,-2.4805 -0.72,0 -2.47,0.4805 -5.25,1.4297 -2.79,0.918 -5.24,1.3985 -7.38,1.3985 -2.87,0 -5.23,-0.7696 -7.05,-2.3907 -1.85,-1.6171 -3.28,-3.9375 -4.29,-7.0468 -1.01,-3.1719 -1.75,-6.8711 -2.11,-11.211 -0.37,-4.2695 -0.56,-9.5195 -0.56,-15.7695"
         style="fill:#737f4d;fill-opacity:1;fill-rule:nonzero;stroke:none"
         transform="matrix(0.13333333,0,0,-0.13333333,0,567.42667)" />
      <path
         id="path21"
         d="m 2990.68,57.5898 c 0,-5.7109 -1.33,-10.5781 -4.01,-14.6406 -2.67,-4.0703 -6.59,-7.1094 -11.78,-9.2304 -5.22,-2.0391 -11.51,-3.0977 -18.99,-3.0977 -7.04,0 -13.16,1.1289 -18.25,3.4102 -5.07,2.2695 -8.82,5.0781 -11.21,8.4804 -2.44,3.3867 -3.68,6.8086 -3.68,10.2188 0,2.2578 0.79,4.2109 2.37,5.8281 1.54,1.6406 3.51,2.4102 5.84,2.4102 2.09,0 3.7,-0.5391 4.81,-1.5586 1.11,-1.1289 2.14,-2.5782 3.19,-4.5 2.02,-3.6914 4.43,-6.4297 7.3,-8.25 2.79,-1.8282 6.65,-2.7305 11.57,-2.7305 3.93,0 7.18,0.9297 9.73,2.7695 2.52,1.8399 3.83,3.9414 3.83,6.3125 0,3.6485 -1.34,6.3086 -3.94,7.9492 -2.68,1.6993 -6.99,3.2813 -13.03,4.7774 -6.81,1.7734 -12.36,3.6328 -16.64,5.5508 -4.28,1.9492 -7.74,4.5312 -10.28,7.7109 -2.55,3.1211 -3.85,7.0586 -3.85,11.6914 0,4.168 1.19,8.0703 3.56,11.7186 2.36,3.699 5.89,6.621 10.49,8.82 4.61,2.211 10.17,3.309 16.72,3.309 5.1,0 9.7,-0.559 13.8,-1.668 4.07,-1.101 7.53,-2.601 10.21,-4.449 2.73,-1.883 4.83,-3.942 6.24,-6.192 1.45,-2.3003 2.15,-4.5112 2.15,-6.6597 0,-2.3789 -0.74,-4.2812 -2.29,-5.8594 -1.54,-1.4492 -3.71,-2.2226 -6.47,-2.2226 -2.06,0 -3.78,0.6015 -5.22,1.8437 -1.4,1.1875 -3.06,2.9883 -4.88,5.3789 -1.5,2.0196 -3.25,3.6485 -5.3,4.8477 -2.03,1.1914 -4.78,1.8204 -8.24,1.8204 -3.59,0 -6.58,-0.777 -8.91,-2.3907 -2.38,-1.5781 -3.57,-3.5664 -3.57,-5.9375 0,-2.1797 0.88,-3.9492 2.59,-5.332 1.76,-1.3868 4.09,-2.5391 7.05,-3.4493 2.97,-0.9101 7.01,-2.039 12.18,-3.3398 6.15,-1.5508 11.15,-3.4102 15.04,-5.5899 3.89,-2.1484 6.83,-4.7109 8.83,-7.6601 2.04,-2.9805 3.04,-6.3399 3.04,-10.0899"
         style="fill:#737f4d;fill-opacity:1;fill-rule:nonzero;stroke:none"
         transform="matrix(0.13333333,0,0,-0.13333333,0,567.42667)" />
      <path
         id="path22"
         d="m 3013.14,30.6211 c -3,0 -5.59,0.9687 -7.73,3.0195 -2.21,2.0078 -3.29,4.8477 -3.29,8.4414 0,3.0782 1.02,5.7188 3.08,7.9493 2.08,2.207 4.66,3.289 7.71,3.289 3.02,0 5.63,-1.082 7.73,-3.2812 2.18,-2.1602 3.26,-4.8477 3.26,-7.9571 0,-3.5625 -1.08,-6.3828 -3.26,-8.4101 -2.1,-2.043 -4.61,-3.0508 -7.5,-3.0508"
         style="fill:#737f4d;fill-opacity:1;fill-rule:nonzero;stroke:none"
         transform="matrix(0.13333333,0,0,-0.13333333,0,567.42667)" />
      <path
         id="path23"
         d="m 3100.6,72.5391 c 0,8.3906 -1.79,14.9609 -5.33,19.6523 -3.56,4.6602 -8.31,7.0274 -14.29,7.0274 -3.88,0 -7.24,-1.0469 -10.2,-3.1368 -2.96,-2.1211 -5.23,-5.2109 -6.81,-9.2929 -1.57,-4.0391 -2.38,-8.7774 -2.38,-14.25 0,-5.3985 0.76,-10.0977 2.32,-14.1172 1.61,-4.0313 3.84,-7.1211 6.77,-9.2735 2.91,-2.1367 6.34,-3.1875 10.3,-3.1875 5.98,0 10.73,2.3399 14.29,7.0508 3.54,4.6992 5.33,11.2305 5.33,19.5274 z m 19.87,0 c 0,-6.1094 -0.9,-11.8008 -2.77,-17.0196 -1.85,-5.1484 -4.47,-9.6211 -7.96,-13.3593 -3.5,-3.7383 -7.61,-6.5313 -12.46,-8.5704 -4.81,-2 -10.24,-2.9687 -16.3,-2.9687 -5.98,0 -11.37,0.9687 -16.15,3.0195 -4.79,2.0078 -8.91,4.8985 -12.4,8.6602 -3.56,3.7695 -6.19,8.1601 -8.03,13.2812 -1.77,5.1485 -2.68,10.7696 -2.68,17 0,6.25 0.91,11.9571 2.76,17.1289 1.86,5.2188 4.45,9.6289 7.87,13.3401 3.43,3.668 7.59,6.5 12.48,8.48 4.87,2.008 10.22,3.008 16.15,3.008 5.98,0 11.42,-1 16.3,-3.027 4.9,-2.012 9.06,-4.91 12.55,-8.641 3.46,-3.7226 6.09,-8.1796 7.93,-13.3319 1.81,-5.1172 2.71,-10.8008 2.71,-17"
         style="fill:#737f4d;fill-opacity:1;fill-rule:nonzero;stroke:none"
         transform="matrix(0.13333333,0,0,-0.13333333,0,567.42667)" />
      <path
         id="path24"
         d="M 3155.7,60.3711 V 43.1914 c 0,-4.1914 -0.94,-7.3516 -2.82,-9.4609 -1.86,-2.0508 -4.28,-3.1094 -7.15,-3.1094 -2.89,0 -5.21,1.0898 -7.05,3.1602 -1.86,2.1171 -2.77,5.2382 -2.77,9.4101 v 57.4496 c 0,9.281 3.26,13.898 9.65,13.898 3.29,0 5.64,-1.098 7.08,-3.238 1.43,-2.172 2.28,-5.379 2.44,-9.602 2.33,4.223 4.75,7.43 7.24,9.602 2.49,2.14 5.82,3.238 9.94,3.238 4.22,0 8.25,-1.098 12.12,-3.238 3.92,-2.172 5.89,-5.063 5.89,-8.621 0,-2.52 -0.84,-4.6292 -2.49,-6.2386 -1.69,-1.6328 -3.46,-2.4805 -5.43,-2.4805 -0.7,0 -2.44,0.4805 -5.22,1.4297 -2.79,0.918 -5.24,1.3985 -7.39,1.3985 -2.88,0 -5.22,-0.7696 -7.11,-2.3907 -1.8,-1.6171 -3.24,-3.9375 -4.27,-7.0468 -0.98,-3.1719 -1.69,-6.8711 -2.07,-11.211 -0.39,-4.2695 -0.59,-9.5195 -0.59,-15.7695"
         style="fill:#737f4d;fill-opacity:1;fill-rule:nonzero;stroke:none"
         transform="matrix(0.13333333,0,0,-0.13333333,0,567.42667)" />
      <path
         id="path25"
         d="m 3212.81,73.25 c 0,-8.3516 1.76,-14.6797 5.27,-18.9883 3.48,-4.2617 8.04,-6.4336 13.56,-6.4336 3.26,0 6.4,0.961 9.31,2.8008 2.93,1.8399 5.3,4.6094 7.15,8.3203 1.86,3.711 2.74,8.1914 2.74,13.4727 0,8.4179 -1.78,14.957 -5.33,19.6367 -3.53,4.7305 -8.21,7.0898 -14,7.0898 -5.64,0 -10.18,-2.2968 -13.57,-6.7578 -3.42,-4.5 -5.13,-10.8711 -5.13,-19.1406 z m 57.33,26.1914 v -60 c 0,-6.8711 -0.75,-12.7617 -2.12,-17.6719 -1.4,-4.9687 -3.65,-9.0507 -6.74,-12.28122 -3.08,-3.20703 -7.15,-5.59765 -12.11,-7.15625 C 3244.16,0.789063 3237.92,0 3230.5,0 c -6.82,0 -12.93,0.960938 -18.26,2.94922 -5.37,2.03906 -9.51,4.58203 -12.4,7.74998 -2.89,3.1211 -4.36,6.3711 -4.36,9.7227 0,2.5195 0.8,4.5586 2.49,6.1367 1.62,1.6328 3.61,2.4219 5.92,2.4219 2.91,0 5.41,-1.3516 7.63,-4.0117 1.06,-1.3985 2.18,-2.7579 3.28,-4.129 1.13,-1.3984 2.39,-2.6093 3.76,-3.5585 1.39,-1.0196 3.07,-1.7305 4.99,-2.2227 1.89,-0.4766 4.15,-0.7188 6.67,-0.7188 5.08,0 9.1,0.7618 11.9,2.2305 2.84,1.4883 4.82,3.5703 5.97,6.2305 1.08,2.6797 1.81,5.5195 1.92,8.5781 0.24,3.1016 0.38,7.9609 0.51,14.7422 -3.04,-4.4219 -6.61,-7.8125 -10.55,-10.1211 -3.99,-2.3281 -8.75,-3.4609 -14.21,-3.4609 -6.68,0 -12.46,1.7304 -17.39,5.2812 -4.97,3.5313 -8.78,8.4492 -11.42,14.8281 -2.63,6.3321 -3.99,13.6602 -3.99,21.9922 0,6.2305 0.79,11.8399 2.45,16.8282 1.58,4.9726 3.87,9.1912 6.92,12.6092 2.96,3.434 6.43,6.024 10.34,7.774 3.94,1.718 8.18,2.597 12.91,2.597 5.58,0 10.43,-1.14 14.53,-3.39 4.16,-2.207 7.93,-5.778 11.47,-10.539 v 2.769 c 0,3.609 0.88,6.352 2.54,8.383 1.68,1.937 3.86,2.93 6.51,2.93 3.83,0 6.36,-1.293 7.63,-3.891 1.24,-2.602 1.88,-6.371 1.88,-11.2696"
         style="fill:#737f4d;fill-opacity:1;fill-rule:nonzero;stroke:none"
         transform="matrix(0.13333333,0,0,-0.13333333,0,567.42667)" />
      <path
         id="path26"
         d="m 2412.88,300.43 h 29.33 c -2.07,-15.809 -8.55,-28.149 -19.33,-37.039 -9.97,-8.7 -22.05,-13 -36.17,-13 -19.16,0 -34.45,6.738 -45.87,20.168 -10.82,12.773 -16.22,29.281 -16.22,49.421 0,20.661 5.37,37.161 16.07,49.668 10.69,12.442 25.82,18.704 45.37,18.704 14.54,0 26.85,-3.93 36.82,-11.743 10.58,-8.429 17.05,-20.289 19.33,-35.468 h -29.33 c -2.54,13.25 -10.62,19.828 -24.38,19.828 -22.67,0 -34.03,-13.43 -34.03,-40.297 0,-12.602 2.92,-22.883 8.75,-30.891 5.83,-8.043 14.05,-12.062 24.66,-12.062 15.81,0 24.15,7.582 25,22.711 z m -115.49,18.519 c 0,-26.258 8.33,-48.488 24.95,-66.59 16.65,-18.109 37.02,-27.168 61.2,-27.168 24.07,0 44.46,9.059 61.08,27.168 16.67,18.102 24.95,40.332 24.95,66.59 0,26.242 -8.28,48.442 -24.95,66.563 -16.62,18.136 -37.01,27.187 -61.08,27.187 -24.18,0 -44.55,-9.051 -61.2,-27.187 -16.62,-18.121 -24.95,-40.321 -24.95,-66.563 z m -29.81,0 c 0,33.41 11.31,61.922 33.94,85.61 22.65,23.652 50,35.48 82.02,35.48 31.94,0 59.25,-11.828 81.92,-35.48 22.65,-23.688 33.99,-52.2 33.99,-85.61 0,-33.437 -11.34,-62 -33.99,-85.64 -22.67,-23.668 -49.98,-35.508 -81.92,-35.508 -32.02,0 -59.37,11.84 -82.02,35.508 -22.63,23.64 -33.94,52.203 -33.94,85.64"
         style="fill:#737f4d;fill-opacity:1;fill-rule:nonzero;stroke:none"
         transform="matrix(0.13333333,0,0,-0.13333333,0,567.42667)" />
      <path
         id="path27"
         d="m 2314.5,243 16.91,-14.352 124.34,159.672 -16.91,14.328 L 2314.5,243"
         style="fill:#737f4d;fill-opacity:1;fill-rule:nonzero;stroke:none"
         transform="matrix(0.13333333,0,0,-0.13333333,0,567.42667)" />
      <path
         id="path28"
         d="m 2268.54,4255.69 c 960.65,0 1739.42,-778.78 1739.42,-1739.43 0,-346 -101.04,-668.4 -275.21,-939.34 H 804.293 c -174.172,270.94 -275.207,593.34 -275.207,939.34 0,960.65 778.774,1739.43 1739.454,1739.43"
         style="fill:#e0f1fb;fill-opacity:1;fill-rule:evenodd;stroke:none"
         transform="matrix(0.13333333,0,0,-0.13333333,0,567.42667)" />
      <path
         id="path29"
         d="m 2416.81,1505.15 c 1299.68,0 2359.72,32.23 2359.72,71.77 0,39.55 -1060.04,71.8 -2359.72,71.8 -1299.7,0 -2359.7358,-32.25 -2359.7358,-71.8 0,-39.54 1060.0358,-71.77 2359.7358,-71.77"
         style="fill:#737f4d;fill-opacity:1;fill-rule:evenodd;stroke:none"
         transform="matrix(0.13333333,0,0,-0.13333333,0,567.42667)" />
      <path
         id="path30"
         d="m 4461.27,1688.77 h 46.52 v -111.85 h -46.52 v 111.85"
         style="fill:#353a21;fill-opacity:1;fill-rule:evenodd;stroke:none"
         transform="matrix(0.13333333,0,0,-0.13333333,0,567.42667)" />
      <path
         id="path31"
         d="m 4422.7,1688.77 h 123.64 v 610.5 H 4422.7 v -610.5"
         style="fill:#4b542f;fill-opacity:1;fill-rule:evenodd;stroke:none"
         transform="matrix(0.13333333,0,0,-0.13333333,0,567.42667)" />
      <path
         id="path32"
         d="m 2454.85,3664.39 h -828.21 c -53.88,0 -100.06,-28.34 -124.46,-76.38 L 1136.31,2867.7 c -41.5,-81.69 -60.29,-160.2 -60.29,-251.82 V 1576.92 h 828.2 692.61 v 2087.47 h -141.98"
         style="fill:#737f4d;fill-opacity:1;fill-rule:evenodd;stroke:none"
         transform="matrix(0.13333333,0,0,-0.13333333,0,567.42667)" />
      <path
         id="path33"
         d="m 1768.6,1576.92 h 828.23 V 3664.39 H 1768.6 V 1576.92"
         style="fill:#859359;fill-opacity:1;fill-rule:evenodd;stroke:none"
         transform="matrix(0.13333333,0,0,-0.13333333,0,567.42667)" />
      <path
         id="path34"
         d="M 196.754,2692.77 H 3711.59 c 108.22,0 196.75,-88.53 196.75,-196.75 v 0 c 0,-108.22 -88.53,-196.75 -196.75,-196.75 H 196.754 C 88.543,2299.27 0,2387.8 0,2496.02 v 0 c 0,108.22 88.543,196.75 196.754,196.75"
         style="fill:#859359;fill-opacity:1;fill-rule:evenodd;stroke:none"
         transform="matrix(0.13333333,0,0,-0.13333333,0,567.42667)" />
      <path
         id="path35"
         d="m 1121.99,2692.77 h 3514.86 c 108.21,0 196.75,-88.53 196.75,-196.75 v 0 c 0,-108.22 -88.54,-196.75 -196.75,-196.75 H 1121.99 c -108.22,0 -196.736,88.53 -196.736,196.75 v 0 c 0,108.22 88.516,196.75 196.736,196.75"
         style="fill:#d4e985;fill-opacity:1;fill-rule:evenodd;stroke:none"
         transform="matrix(0.13333333,0,0,-0.13333333,0,567.42667)" />
      <path
         id="path36"
         d="m 1121.99,2634.29 h 3514.86 c 76.03,0 138.24,-62.22 138.24,-138.27 v 0 c 0,-76.05 -62.21,-138.25 -138.24,-138.25 H 1121.99 c -76.02,0 -138.244,62.2 -138.244,138.25 v 0 c 0,76.05 62.224,138.27 138.244,138.27"
         style="fill:#b0c75b;fill-opacity:1;fill-rule:evenodd;stroke:none"
         transform="matrix(0.13333333,0,0,-0.13333333,0,567.42667)" />
      <path
         id="path37"
         d="m 4642.5,2574.57 c 43.37,0 78.55,-35.18 78.55,-78.55 0,-43.38 -35.18,-78.56 -78.55,-78.56 -43.37,0 -78.55,35.18 -78.55,78.56 0,43.37 35.18,78.55 78.55,78.55 z m -319.28,0 c 43.39,0 78.56,-35.18 78.56,-78.55 0,-43.38 -35.17,-78.56 -78.56,-78.56 -43.37,0 -78.55,35.18 -78.55,78.56 0,43.37 35.18,78.55 78.55,78.55 z m -319.27,0 c 43.38,0 78.55,-35.18 78.55,-78.55 0,-43.38 -35.17,-78.56 -78.55,-78.56 -43.38,0 -78.55,35.18 -78.55,78.56 0,43.37 35.17,78.55 78.55,78.55 z m -319.27,0 c 43.39,0 78.55,-35.18 78.55,-78.55 0,-43.38 -35.16,-78.56 -78.55,-78.56 -43.38,0 -78.53,35.18 -78.53,78.56 0,43.37 35.15,78.55 78.53,78.55 z m -319.27,0 c 43.37,0 78.55,-35.18 78.55,-78.55 0,-43.38 -35.18,-78.56 -78.55,-78.56 -43.38,0 -78.56,35.18 -78.56,78.56 0,43.37 35.18,78.55 78.56,78.55 z m -319.26,0 c 43.38,0 78.54,-35.18 78.54,-78.55 0,-43.38 -35.16,-78.56 -78.54,-78.56 -43.38,0 -78.56,35.18 -78.56,78.56 0,43.37 35.18,78.55 78.56,78.55 z m -319.29,0 c 43.39,0 78.55,-35.18 78.55,-78.55 0,-43.38 -35.16,-78.56 -78.55,-78.56 -43.38,0 -78.53,35.18 -78.53,78.56 0,43.37 35.15,78.55 78.53,78.55 z m -319.26,0 c 43.38,0 78.56,-35.18 78.56,-78.55 0,-43.38 -35.18,-78.56 -78.56,-78.56 -43.37,0 -78.55,35.18 -78.55,78.56 0,43.37 35.18,78.55 78.55,78.55 z m -319.27,0 c 43.38,0 78.55,-35.18 78.55,-78.55 0,-43.38 -35.17,-78.56 -78.55,-78.56 -43.38,0 -78.54,35.18 -78.54,78.56 0,43.37 35.16,78.55 78.54,78.55 z m -319.27,0 c 43.37,0 78.54,-35.18 78.54,-78.55 0,-43.38 -35.17,-78.56 -78.54,-78.56 -43.39,0 -78.56,35.18 -78.56,78.56 0,43.37 35.17,78.55 78.56,78.55 z m -638.56,0 c 43.39,0 78.56,-35.18 78.56,-78.55 0,-43.38 -35.17,-78.56 -78.56,-78.56 -43.37,0 -78.54,35.18 -78.54,78.56 0,43.37 35.17,78.55 78.54,78.55 z m 319.29,0 c 43.39,0 78.54,-35.18 78.54,-78.55 0,-43.38 -35.15,-78.56 -78.54,-78.56 -43.38,0 -78.54,35.18 -78.54,78.56 0,43.37 35.16,78.55 78.54,78.55 v 0"
         style="fill:#859359;fill-opacity:1;fill-rule:evenodd;stroke:none"
         transform="matrix(0.13333333,0,0,-0.13333333,0,567.42667)" />
      <path
         id="path38"
         d="m 3105.69,3664.39 h 828.21 c 53.88,0 100.06,-28.34 124.45,-76.38 l 365.89,-720.31 c 41.49,-81.69 60.28,-160.2 60.28,-251.82 V 1576.92 h -828.21 v 1038.96 c 0,91.62 -18.79,170.13 -60.28,251.82 l -365.88,720.31 c -24.4,48.04 -70.57,76.38 -124.46,76.38"
         style="fill:#b0c75b;fill-opacity:1;fill-rule:evenodd;stroke:none"
         transform="matrix(0.13333333,0,0,-0.13333333,0,567.42667)" />
      <path
         id="path39"
         d="m 4073.88,3221.25 -169.75,334.18 H 3417.5 l 169.74,-334.18 h 486.64"
         style="fill:#3a3c2f;fill-opacity:1;fill-rule:evenodd;stroke:none"
         transform="matrix(0.13333333,0,0,-0.13333333,0,567.42667)" />
      <path
         id="path40"
         d="m 2963.72,3664.39 h 141.97 c 53.89,0 100.06,-28.34 124.46,-76.38 l 365.88,-720.31 c 41.49,-81.69 60.28,-160.2 60.28,-251.82 V 1576.92 h -692.59 v 2087.47"
         style="fill:#737f4d;fill-opacity:1;fill-rule:evenodd;stroke:none"
         transform="matrix(0.13333333,0,0,-0.13333333,0,567.42667)" />
      <path
         id="path41"
         d="m 4133.31,3106.52 -35.76,70.4 h -102.48 l 35.75,-70.4 z m -129.2,0 c -34.17,0 -68.34,0 -102.49,0 -11.93,23.47 -23.86,46.94 -35.77,70.4 34.17,0 68.32,0 102.49,0 11.93,-23.46 23.84,-46.93 35.77,-70.4 z m -258.41,0 h -102.51 l -35.74,70.4 h 102.49 l 35.76,-70.4 z m 129.2,0 c -11.92,23.47 -23.85,46.94 -35.76,70.4 -34.16,0 -68.33,0 -102.48,0 11.91,-23.46 23.81,-46.93 35.75,-70.4 34.15,0 68.31,0 102.49,0 v 0"
         style="fill:#737f4d;fill-opacity:1;fill-rule:evenodd;stroke:none"
         transform="matrix(0.13333333,0,0,-0.13333333,0,567.42667)" />
      <path
         id="path42"
         d="m 4180.49,3013.64 -35.75,70.38 h -102.48 l 35.74,-70.38 z m -129.2,0 c -34.17,0 -68.34,0 -102.5,0 -11.91,23.45 -23.84,46.9 -35.75,70.38 34.17,0 68.34,0 102.49,0 11.93,-23.48 23.84,-46.93 35.76,-70.38 z m -258.43,0 h -102.48 l -35.75,70.38 h 102.48 l 35.75,-70.38 z m 129.22,0 c -11.91,23.45 -23.84,46.9 -35.77,70.38 -34.17,0 -68.32,0 -102.47,0 11.91,-23.48 23.82,-46.93 35.75,-70.38 34.16,0 68.32,0 102.49,0 v 0"
         style="fill:#737f4d;fill-opacity:1;fill-rule:evenodd;stroke:none"
         transform="matrix(0.13333333,0,0,-0.13333333,0,567.42667)" />
      <path
         id="path43"
         d="m 4227.82,2920.45 -35.75,70.38 c -163.38,0 -326.75,0 -490.11,0 l 35.74,-70.38 c 163.38,0 326.75,0 490.12,0"
         style="fill:#d4e985;fill-opacity:1;fill-rule:evenodd;stroke:none"
         transform="matrix(0.13333333,0,0,-0.13333333,0,567.42667)" />
      <path
         id="path44"
         d="m 4180.49,2087.74 h 243.95 v 532.92 h -243.95 v -532.92"
         style="fill:#c5dc70;fill-opacity:1;fill-rule:evenodd;stroke:none"
         transform="matrix(0.13333333,0,0,-0.13333333,0,567.42667)" />
      <path
         id="path45"
         d="m 4255.83,2303.27 c 20.84,0 37.83,22.57 37.83,50.25 0,27.66 -16.99,50.25 -37.83,50.25 -20.84,0 -37.85,-22.59 -37.85,-50.25 0,-27.68 17.01,-50.25 37.85,-50.25"
         style="fill:#e7f3a5;fill-opacity:1;fill-rule:evenodd;stroke:none"
         transform="matrix(0.13333333,0,0,-0.13333333,0,567.42667)" />
      <path
         id="path46"
         d="m 3546.56,1999.96 h 26.67 v -334.2 h -26.67 z m -50.85,0 c 8.89,0 17.76,0 26.66,0 0,-111.4 0,-222.81 0,-334.2 -8.9,0 -17.77,0 -26.66,0 0,111.39 0,222.8 0,334.2 z m -50.86,0 c 8.9,0 17.76,0 26.66,0 0,-111.4 0,-222.81 0,-334.2 -8.9,0 -17.76,0 -26.66,0 0,111.39 0,222.8 0,334.2 z m -50.85,0 c 8.91,0 17.78,0 26.65,0 0,-111.4 0,-222.81 0,-334.2 -8.87,0 -17.74,0 -26.65,0 0,111.39 0,222.8 0,334.2 z m -50.85,0 c 8.89,0 17.75,0 26.65,0 0,-111.4 0,-222.81 0,-334.2 -8.9,0 -17.76,0 -26.65,0 0,111.39 0,222.8 0,334.2 z m -50.84,0 c 8.88,0 17.76,0 26.64,0 0,-111.4 0,-222.81 0,-334.2 -8.88,0 -17.76,0 -26.64,0 0,111.39 0,222.8 0,334.2 z m -50.87,0 c 8.89,0 17.76,0 26.65,0 0,-111.4 0,-222.81 0,-334.2 -8.89,0 -17.76,0 -26.65,0 0,111.39 0,222.8 0,334.2 z m -50.86,0 c 8.9,0 17.75,0 26.66,0 0,-111.4 0,-222.81 0,-334.2 -8.91,0 -17.76,0 -26.66,0 0,111.39 0,222.8 0,334.2 z m -50.85,0 c 8.89,0 17.77,0 26.65,0 0,-111.4 0,-222.81 0,-334.2 -8.88,0 -17.76,0 -26.65,0 0,111.39 0,222.8 0,334.2 z m -101.7,0 h 26.63 v -334.2 h -26.63 v 334.2 z m 50.83,0 c 8.91,0 17.79,0 26.66,0 0,-111.4 0,-222.81 0,-334.2 -8.87,0 -17.75,0 -26.66,0 0,111.39 0,222.8 0,334.2 v 0"
         style="fill:#555e38;fill-opacity:1;fill-rule:evenodd;stroke:none"
         transform="matrix(0.13333333,0,0,-0.13333333,0,567.42667)" />
      <path
         id="path47"
         d="m 118.074,2602.05 c 7.512,11.63 16.203,22.43 25.903,32.24 h 725.836 c -9.715,-9.81 -18.407,-20.61 -25.875,-32.24 z m 25.903,-244.28 c -9.7,9.8 -18.391,20.59 -25.903,32.23 h 725.864 c 7.468,-11.64 16.16,-22.43 25.875,-32.23 H 143.977 Z M 88.4023,2520.62 H 814.223 c -1,-8.07 -1.52,-16.26 -1.52,-24.6 v 0 c 0,-8.33 0.52,-16.52 1.52,-24.58 H 88.4023 c -1.0312,8.06 -1.5546,16.25 -1.5546,24.58 v 0 c 0,8.34 0.5234,16.53 1.5546,24.6 v 0"
         style="fill:#5b673e;fill-opacity:1;fill-rule:evenodd;stroke:none"
         transform="matrix(0.13333333,0,0,-0.13333333,0,567.42667)" />
      <path
         id="path48"
         d="m 2158.98,1688.77 h 606.2 v 610.5 h -606.2 v -610.5"
         style="fill:#5b673e;fill-opacity:1;fill-rule:evenodd;stroke:none"
         transform="matrix(0.13333333,0,0,-0.13333333,0,567.42667)" />
      <path
         id="path49"
         d="m 2525.89,1688.77 h 239.29 v 610.5 h -239.29 v -610.5"
         style="fill:#4b542f;fill-opacity:1;fill-rule:evenodd;stroke:none"
         transform="matrix(0.13333333,0,0,-0.13333333,0,567.42667)" />
      <path
         id="path50"
         d="m 2501.97,1688.77 h 46.53 v -111.85 h -46.53 z m -283.18,0 h 46.55 v -111.85 h -46.55 v 111.85 0"
         style="fill:#353a21;fill-opacity:1;fill-rule:evenodd;stroke:none"
         transform="matrix(0.13333333,0,0,-0.13333333,0,567.42667)" />
      <path
         id="path51"
         d="m 2501.97,1688.77 h 46.53 v -111.85 h -46.53 z m -283.18,0 h 46.55 v -111.85 h -46.55 v 111.85 0"
         style="fill:#353a21;fill-opacity:1;fill-rule:evenodd;stroke:none"
         transform="matrix(0.13333333,0,0,-0.13333333,0,567.42667)" />
      <path
         id="path52"
         d="m 1201.84,1688.77 h 46.53 v -111.85 h -46.53 v 111.85"
         style="fill:#353a21;fill-opacity:1;fill-rule:evenodd;stroke:none"
         transform="matrix(0.13333333,0,0,-0.13333333,0,567.42667)" />
      <path
         id="path53"
         d="m 1163.3,1688.77 h 123.61 v 610.5 H 1163.3 v -610.5"
         style="fill:#4b542f;fill-opacity:1;fill-rule:evenodd;stroke:none"
         transform="matrix(0.13333333,0,0,-0.13333333,0,567.42667)" />
      <path
         id="path54"
         d="m 401.559,1688.77 h 46.527 v -111.85 h -46.527 v 111.85"
         style="fill:#353a21;fill-opacity:1;fill-rule:evenodd;stroke:none"
         transform="matrix(0.13333333,0,0,-0.13333333,0,567.42667)" />
      <path
         id="path55"
         d="m 363.004,1688.77 h 123.629 v 610.5 H 363.004 v -610.5"
         style="fill:#4b542f;fill-opacity:1;fill-rule:evenodd;stroke:none"
         transform="matrix(0.13333333,0,0,-0.13333333,0,567.42667)" />
      <path
         id="path56"
         d="m 2666.79,1688.77 h 46.54 v -111.85 h -46.54 z m -283.14,0 h 46.53 v -111.85 h -46.53 v 111.85 0"
         style="fill:#353a21;fill-opacity:1;fill-rule:evenodd;stroke:none"
         transform="matrix(0.13333333,0,0,-0.13333333,0,567.42667)" />
      <path
         id="path57"
         d="m 2221.53,3511.29 h 742.19 v -93.06 h -742.19 c -31.02,0 -31.02,93.06 0,93.06 z m 0,-155.55 h 742.19 v -93.05 h -742.19 c -31.02,0 -31.02,93.05 0,93.05 v 0"
         style="fill:#3a3c2f;fill-opacity:1;fill-rule:evenodd;stroke:none"
         transform="matrix(0.13333333,0,0,-0.13333333,0,567.42667)" />
      <path
         id="path58"
         d="m 2378.41,3564.46 h 236.62 v -354.95 h -236.62 c -29.24,0 -53.16,23.92 -53.16,53.18 v 248.6 c 0,29.25 23.92,53.17 53.16,53.17"
         style="fill:#9eac6c;fill-opacity:1;fill-rule:evenodd;stroke:none"
         transform="matrix(0.13333333,0,0,-0.13333333,0,567.42667)" />
      <path
         id="path59"
         d="m 2602.4,3564.46 h 151.57 v -53.17 h -80.93 c -31.01,0 -31.01,-93.06 0,-93.06 h 80.93 v -62.49 h -80.93 c -31.01,0 -31.01,-93.05 0,-93.05 h 80.93 v -53.18 H 2602.4 c -29.25,0 -53.18,23.92 -53.18,53.18 v 248.6 c 0,29.25 23.93,53.17 53.18,53.17"
         style="fill:#737f4d;fill-opacity:1;fill-rule:evenodd;stroke:none"
         transform="matrix(0.13333333,0,0,-0.13333333,0,567.42667)" />
      <path
         id="path60"
         d="m 2420.97,3171.62 h 194.06 v 37.89 h -194.06 v -37.89"
         style="fill:#3a3c2f;fill-opacity:1;fill-rule:evenodd;stroke:none"
         transform="matrix(0.13333333,0,0,-0.13333333,0,567.42667)" />
      <path
         id="path61"
         d="m 700.293,2692.77 h 188.785 v 230.25 H 700.293 v -230.25"
         style="fill:#f3652f;fill-opacity:1;fill-rule:evenodd;stroke:none"
         transform="matrix(0.13333333,0,0,-0.13333333,0,567.42667)" />
      <path
         id="path62"
         d="m 850.512,2692.77 h 188.768 v 230.25 H 850.512 v -230.25"
         style="fill:#d64420;fill-opacity:1;fill-rule:evenodd;stroke:none"
         transform="matrix(0.13333333,0,0,-0.13333333,0,567.42667)" />
      <path
         id="path63"
         d="m 1528.35,2923.02 c 62.93,0 125.85,0 188.77,0 0,-76.74 0,-153.52 0,-230.25 -62.92,0 -125.84,0 -188.77,0 0,76.73 0,153.51 0,230.25"
         style="fill:#f3652f;fill-opacity:1;fill-rule:evenodd;stroke:none"
         transform="matrix(0.13333333,0,0,-0.13333333,0,567.42667)" />
      <path
         id="path64"
         d="m 1678.56,2923.02 c 62.94,0 125.86,0 188.78,0 0,-76.74 0,-153.52 0,-230.25 -62.92,0 -125.84,0 -188.78,0 0,76.73 0,153.51 0,230.25"
         style="fill:#d64420;fill-opacity:1;fill-rule:evenodd;stroke:none"
         transform="matrix(0.13333333,0,0,-0.13333333,0,567.42667)" />
      <path
         id="path65"
         d="m 2356.4,2692.77 h 188.76 v 230.25 H 2356.4 v -230.25"
         style="fill:#f3652f;fill-opacity:1;fill-rule:evenodd;stroke:none"
         transform="matrix(0.13333333,0,0,-0.13333333,0,567.42667)" />
      <path
         id="path66"
         d="m 2506.61,2692.77 h 188.76 v 230.25 h -188.76 v -230.25"
         style="fill:#d64420;fill-opacity:1;fill-rule:evenodd;stroke:none"
         transform="matrix(0.13333333,0,0,-0.13333333,0,567.42667)" />
    </g>
  </g>
</svg>
