<?xml version="1.0" encoding="UTF-8" standalone="no"?>
<!-- Created with Inkscape (http://www.inkscape.org/) -->

<svg
   version="1.1"
   id="svg1"
   width="584.23999"
   height="829.18665"
   viewBox="0 0 584.23999 829.18665"
   sodipodi:docname="inspired-child-has-good-idea.svg"
   inkscape:version="1.3.2 (091e20ef0f, 2023-11-25, custom)"
   xmlns:inkscape="http://www.inkscape.org/namespaces/inkscape"
   xmlns:sodipodi="http://sodipodi.sourceforge.net/DTD/sodipodi-0.dtd"
   xmlns="http://www.w3.org/2000/svg"
   xmlns:svg="http://www.w3.org/2000/svg">
  <defs
     id="defs1" />
  <sodipodi:namedview
     id="namedview1"
     pagecolor="#505050"
     bordercolor="#ffffff"
     borderopacity="1"
     inkscape:showpageshadow="0"
     inkscape:pageopacity="0"
     inkscape:pagecheckerboard="1"
     inkscape:deskcolor="#d1d1d1"
     inkscape:zoom="0.93344485"
     inkscape:cx="291.92941"
     inkscape:cy="414.59332"
     inkscape:window-width="1920"
     inkscape:window-height="1002"
     inkscape:window-x="0"
     inkscape:window-y="0"
     inkscape:window-maximized="1"
     inkscape:current-layer="g1">
    <inkscape:page
       x="0"
       y="0"
       inkscape:label="1"
       id="page1"
       width="584.23999"
       height="829.18665"
       margin="0"
       bleed="0" />
  </sodipodi:namedview>
  <g
     id="g1"
     inkscape:groupmode="layer"
     inkscape:label="1">
    <g
       id="group-R5">
      <path
         id="path2"
         d="m 1058.86,100.262 c 0,7.519 -1.08,14.008 -3.31,19.308 -2.16,5.379 -5.19,9.532 -9.1,12.461 -3.89,2.84 -8.18,4.309 -12.91,4.309 -7.5,0 -13.84,-3.168 -18.99,-9.301 -5.16,-6.199 -7.74,-15.25 -7.74,-27.2577 0,-11.3125 2.58,-20.1016 7.66,-26.3008 5.15,-6.3086 11.52,-9.4805 19.07,-9.4805 4.5,0 8.73,1.3711 12.59,4.1484 3.8,2.7422 6.9,6.8438 9.24,12.2735 2.34,5.5273 3.49,12.0976 3.49,19.8401 z m -53.31,41.379 v -3.422 c 5.1,6.543 10.39,11.453 15.9,14.48 5.53,3.11 11.82,4.672 18.8,4.672 8.35,0 16.06,-2.262 23.1,-6.769 7.03,-4.52 12.59,-11.071 16.7,-19.77 4.08,-8.68 6.09,-18.922 6.09,-30.781 0,-8.7112 -1.14,-16.8401 -3.5,-24.0393 -2.35,-7.332 -5.6,-13.5117 -9.71,-18.4531 -4.12,-4.9492 -9.02,-8.7891 -14.6,-11.4297 -5.64,-2.707 -11.69,-4.0195 -18.08,-4.0195 -7.81,0 -14.34,1.6211 -19.62,4.8828 -5.33,3.2461 -10.33,8.0078 -15.08,14.3281 V 18.7188 C 1005.55,6.21875 1001.19,0 992.484,0 c -5.113,0 -8.523,1.58984 -10.136,4.78906 -1.68,3.25 -2.5,7.94924 -2.5,14.11324 V 141.449 c 0,5.403 1.09,9.461 3.375,12.11 2.297,2.652 5.371,4.023 9.261,4.023 3.86,0 6.996,-1.371 9.416,-4.141 2.42,-2.761 3.65,-6.699 3.65,-11.8"
         style="fill:#100f0d;fill-opacity:1;fill-rule:nonzero;stroke:none"
         transform="matrix(0.13333333,0,0,-0.13333333,0,829.18667)" />
      <path
         id="path3"
         d="M 1178.68,58.1602 V 61.75 c -3.27,-4.2891 -6.68,-7.8711 -10.28,-10.7695 -3.59,-2.961 -7.51,-5.1094 -11.74,-6.5117 -4.29,-1.4063 -9.13,-2.1368 -14.58,-2.1368 -6.54,0 -12.44,1.4375 -17.67,4.25 -5.22,2.8282 -9.27,6.7696 -12.08,11.75 -3.44,6.0274 -5.09,14.7071 -5.09,25.9688 V 140.57 c 0,5.641 1.22,9.922 3.69,12.711 2.46,2.801 5.7,4.219 9.73,4.219 4.14,0 7.44,-1.418 9.98,-4.289 2.53,-2.852 3.77,-7.082 3.77,-12.641 V 95.0898 c 0,-6.539 0.53,-12.0781 1.56,-16.5195 1.11,-4.4883 3.02,-7.9805 5.8,-10.5508 2.7,-2.4882 6.46,-3.7578 11.17,-3.7578 4.63,0 8.94,1.4297 12.96,4.2578 4.09,2.8203 7.05,6.5196 8.89,11.1016 1.53,4.0195 2.29,12.8203 2.29,26.3989 v 34.55 c 0,5.559 1.25,9.789 3.8,12.641 2.5,2.871 5.75,4.289 9.83,4.289 4.06,0 7.31,-1.418 9.77,-4.219 2.43,-2.789 3.64,-7.07 3.64,-12.711 V 58.332 c 0,-5.4023 -1.13,-9.4726 -3.49,-12.1523 -2.34,-2.7305 -5.38,-4.0508 -9.11,-4.0508 -3.71,0 -6.76,1.4297 -9.21,4.1719 -2.42,2.8476 -3.63,6.7383 -3.63,11.8594"
         style="fill:#100f0d;fill-opacity:1;fill-rule:nonzero;stroke:none"
         transform="matrix(0.13333333,0,0,-0.13333333,0,829.18667)" />
      <path
         id="path4"
         d="m 1257.58,99.1406 c 0,-11.289 2.46,-19.9297 7.39,-26.0312 4.97,-6.0274 11.47,-9.1094 19.52,-9.1094 6.85,0 12.7,3.1289 17.69,9.3203 4.97,6.2188 7.45,15.0586 7.45,26.6485 0,7.5702 -1.04,13.9722 -3.11,19.3712 -2.08,5.43 -5.02,9.609 -8.76,12.531 -3.84,2.938 -8.2,4.469 -13.27,4.469 -5.23,0 -9.77,-1.531 -13.86,-4.469 -4.08,-2.922 -7.24,-7.199 -9.58,-12.801 -2.33,-5.539 -3.47,-12.16 -3.47,-19.9294 z m -1.29,84.3794 v -43.379 c 5.05,5.589 10.3,9.789 15.6,12.808 5.33,2.93 11.93,4.422 19.75,4.422 9.04,0 16.95,-2.262 23.76,-6.691 6.8,-4.551 12.11,-10.981 15.85,-19.481 3.78,-8.48 5.63,-18.547 5.63,-30.187 0,-8.6214 -1.03,-16.4925 -3.1,-23.7229 -2.11,-7.1289 -5.11,-13.3282 -9.12,-18.6602 -4.02,-5.2266 -8.86,-9.2695 -14.51,-12.2383 -5.71,-2.832 -11.97,-4.2812 -18.8,-4.2812 -4.15,0 -8.12,0.5312 -11.83,1.539 -3.68,1.0625 -6.84,2.4102 -9.37,4.1602 -2.63,1.6016 -4.84,3.4219 -6.67,5.1836 -1.81,1.8281 -4.21,4.5078 -7.19,8.1094 V 58.332 c 0,-5.3632 -1.26,-9.4023 -3.72,-12.1523 -2.42,-2.7305 -5.6,-4.0703 -9.34,-4.0703 -3.88,0 -6.93,1.3398 -9.26,4.0703 -2.26,2.8086 -3.4,6.8125 -3.4,12.1523 v 123.957 c 0,5.723 1.1,10.07 3.36,13.012 2.21,2.961 5.28,4.429 9.3,4.429 4.16,0 7.4,-1.398 9.63,-4.23 2.28,-2.789 3.43,-6.758 3.43,-11.98"
         style="fill:#100f0d;fill-opacity:1;fill-rule:nonzero;stroke:none"
         transform="matrix(0.13333333,0,0,-0.13333333,0,829.18667)" />
      <path
         id="path5"
         d="M 1356.08,59.3789 V 182.469 c 0,5.711 1.21,9.98 3.6,12.91 2.47,2.883 5.73,4.351 9.85,4.351 4.12,0 7.42,-1.421 9.96,-4.308 2.48,-2.863 3.8,-7.223 3.8,-12.953 V 59.3789 c 0,-5.7578 -1.32,-10.0898 -3.87,-12.9883 -2.54,-2.832 -5.85,-4.2812 -9.89,-4.2812 -3.99,0 -7.19,1.4922 -9.7,4.4726 -2.5,2.9883 -3.75,7.2383 -3.75,12.7969"
         style="fill:#100f0d;fill-opacity:1;fill-rule:nonzero;stroke:none"
         transform="matrix(0.13333333,0,0,-0.13333333,0,829.18667)" />
      <path
         id="path6"
         d="M 1438.55,141.379 V 59.3789 c 0,-5.7187 -1.32,-10.0195 -3.85,-12.9297 -2.62,-2.8476 -5.92,-4.3398 -9.87,-4.3398 -4,0 -7.25,1.4922 -9.72,4.4414 -2.47,3.0195 -3.76,7.2695 -3.76,12.8281 V 140.57 c 0,5.559 1.29,9.789 3.76,12.641 2.47,2.871 5.72,4.289 9.72,4.289 3.95,0 7.25,-1.418 9.87,-4.289 2.53,-2.852 3.85,-6.781 3.85,-11.832 z m -13.45,29.34 c -3.79,0 -6.99,1.211 -9.75,3.703 -2.62,2.418 -4,5.867 -4,10.328 0,3.992 1.38,7.27 4.15,9.922 2.76,2.598 5.95,3.828 9.6,3.828 3.52,0 6.66,-1.148 9.37,-3.488 2.71,-2.352 4.08,-5.821 4.08,-10.262 0,-4.418 -1.33,-7.828 -3.99,-10.25 -2.67,-2.461 -5.78,-3.781 -9.46,-3.781"
         style="fill:#100f0d;fill-opacity:1;fill-rule:nonzero;stroke:none"
         transform="matrix(0.13333333,0,0,-0.13333333,0,829.18667)" />
      <path
         id="path7"
         d="m 1564.08,77.2617 c 0,-3.5195 -1,-7.3203 -3.02,-11.3398 -2.05,-4.0235 -5.13,-7.8203 -9.3,-11.4805 -4.12,-3.6211 -9.36,-6.5508 -15.67,-8.75 -6.3,-2.2695 -13.43,-3.3594 -21.31,-3.3594 -16.82,0 -29.93,5.1289 -39.37,15.3399 -9.41,10.2187 -14.14,23.8867 -14.14,41.0976 0,11.6405 2.15,21.9605 6.45,30.8825 4.31,8.879 10.61,15.86 18.74,20.707 8.15,4.922 17.95,7.36 29.27,7.36 7.07,0 13.54,-1.098 19.42,-3.219 5.87,-2.168 10.85,-4.949 14.93,-8.309 4.09,-3.41 7.2,-7.043 9.37,-10.859 2.18,-3.844 3.23,-7.441 3.23,-10.773 0,-3.348 -1.23,-6.227 -3.63,-8.598 -2.44,-2.391 -5.34,-3.551 -8.81,-3.551 -2.28,0 -4.13,0.66 -5.66,1.871 -1.45,1.168 -3.14,3.071 -5.02,5.84 -3.31,5.238 -6.8,9.231 -10.41,11.91 -3.63,2.61 -8.23,3.961 -13.76,3.961 -8.09,0 -14.56,-3.332 -19.46,-9.883 -4.93,-6.578 -7.36,-15.527 -7.36,-26.8981 0,-5.3007 0.63,-10.2812 1.91,-14.7109 1.25,-4.4883 3.07,-8.2891 5.45,-11.4609 2.4,-3.1602 5.26,-5.5274 8.66,-7.1602 3.39,-1.6601 7.12,-2.4492 11.14,-2.4492 5.49,0 10.13,1.2891 14.02,3.9219 3.9,2.6679 7.33,6.6875 10.31,12.0273 1.67,3.2813 3.46,5.75 5.39,7.5703 1.95,1.8125 4.31,2.6719 7.09,2.6719 3.31,0 6.07,-1.2813 8.29,-3.9219 2.14,-2.6875 3.25,-5.4687 3.25,-8.4375"
         style="fill:#100f0d;fill-opacity:1;fill-rule:nonzero;stroke:none"
         transform="matrix(0.13333333,0,0,-0.13333333,0,829.18667)" />
      <path
         id="path8"
         d="m 1608.88,99.9688 c 0,-7.6993 1.14,-14.1993 3.42,-19.6368 2.31,-5.4218 5.41,-9.4414 9.39,-12.1836 4.01,-2.7773 8.37,-4.1484 13.04,-4.1484 4.8,0 9.16,1.332 13.1,3.8906 3.98,2.6211 7.09,6.6289 9.48,11.9883 2.37,5.3516 3.53,12.082 3.53,20.0899 0,7.6132 -1.16,14.0622 -3.53,19.5312 -2.39,5.449 -5.55,9.602 -9.56,12.531 -4.02,2.84 -8.4,4.309 -13.18,4.309 -4.97,0 -9.41,-1.531 -13.35,-4.469 -3.89,-2.922 -6.97,-7.191 -9.12,-12.699 -2.13,-5.531 -3.22,-11.871 -3.22,-19.2032 z m 53.46,-41.6368 v 2.7696 c -3.66,-4.3594 -7.26,-7.9102 -10.86,-10.6016 -3.49,-2.7812 -7.36,-4.8516 -11.51,-6.2695 -4.14,-1.3907 -8.68,-2.1211 -13.58,-2.1211 -6.5,0 -12.57,1.4492 -18.09,4.2812 -5.53,2.9688 -10.32,7.0313 -14.38,12.3594 -4.04,5.3398 -7.11,11.6094 -9.22,18.8516 -2.12,7.1679 -3.14,14.9804 -3.14,23.4104 0,17.687 4.16,31.59 12.46,41.5 8.32,9.91 19.23,14.859 32.76,14.859 7.83,0 14.45,-1.422 19.82,-4.281 5.37,-2.77 10.63,-7.078 15.74,-12.949 v 41.91 c 0,5.84 1.1,10.23 3.34,13.199 2.22,3 5.36,4.48 9.49,4.48 4.11,0 7.28,-1.378 9.53,-4.089 2.21,-2.719 3.36,-6.77 3.36,-12.121 V 58.332 c 0,-5.4023 -1.21,-9.4726 -3.61,-12.1523 -2.4,-2.7305 -5.46,-4.0703 -9.28,-4.0703 -3.68,0 -6.79,1.4023 -9.22,4.1914 -2.41,2.8008 -3.61,6.7812 -3.61,12.0312"
         style="fill:#100f0d;fill-opacity:1;fill-rule:nonzero;stroke:none"
         transform="matrix(0.13333333,0,0,-0.13333333,0,829.18667)" />
      <path
         id="path9"
         d="m 1789.87,99.75 c 0,11.531 -2.48,20.57 -7.34,27.02 -4.88,6.402 -11.46,9.66 -19.68,9.66 -5.35,0 -10,-1.45 -14.06,-4.321 -4.04,-2.918 -7.15,-7.16 -9.35,-12.769 -2.18,-5.559 -3.3,-12.078 -3.3,-19.59 0,-7.4414 1.12,-13.8906 3.24,-19.418 2.15,-5.5507 5.25,-9.7929 9.3,-12.7422 4,-2.9375 8.76,-4.3906 14.17,-4.3906 8.22,0 14.8,3.2227 19.68,9.6914 4.86,6.461 7.34,15.4492 7.34,26.8594 z m 27.28,0 c 0,-8.4102 -1.28,-16.2187 -3.79,-23.3984 -2.52,-7.0821 -6.17,-13.2422 -10.92,-18.3828 -4.82,-5.1368 -10.53,-8.9805 -17.16,-11.7891 -6.64,-2.7305 -14.17,-4.0703 -22.43,-4.0703 -8.22,0 -15.64,1.3398 -22.19,4.1523 -6.58,2.7578 -12.31,6.7305 -17.12,11.8985 -4.79,5.1796 -8.43,11.2304 -10.96,18.2695 -2.48,7.082 -3.72,14.8125 -3.72,23.3594 0,8.6019 1.28,16.4609 3.77,23.5699 2.53,7.18 6.12,13.231 10.86,18.332 4.72,5.051 10.42,8.938 17.17,11.68 6.72,2.738 14.08,4.129 22.19,4.129 8.25,0 15.72,-1.391 22.43,-4.168 6.68,-2.762 12.43,-6.762 17.21,-11.883 4.81,-5.109 8.43,-11.258 10.87,-18.328 2.55,-7.051 3.79,-14.851 3.79,-23.371"
         style="fill:#100f0d;fill-opacity:1;fill-rule:nonzero;stroke:none"
         transform="matrix(0.13333333,0,0,-0.13333333,0,829.18667)" />
      <path
         id="path10"
         d="M 1932.01,123.191 C 1929.97,118.402 1929,109.93 1929,97.7305 v -37.711 c 0,-5.9375 -1.27,-10.4492 -3.89,-13.4375 -2.58,-2.9804 -6.04,-4.4726 -10.29,-4.4726 -4.08,0 -7.41,1.4922 -9.95,4.4726 -2.56,2.9883 -3.81,7.5 -3.81,13.4375 v 45.2695 c 0,7.121 -0.27,12.652 -0.74,16.652 -0.47,3.911 -1.72,7.168 -3.78,9.707 -2.02,2.551 -5.29,3.813 -9.72,3.813 -8.9,0 -14.75,-3.199 -17.6,-9.609 -2.84,-6.352 -4.19,-15.512 -4.19,-27.4497 V 60.0195 c 0,-5.9297 -1.31,-10.3906 -3.83,-13.3398 -2.59,-3.0781 -5.96,-4.5703 -10.09,-4.5703 -4.15,0 -7.56,1.4922 -10.16,4.5703 -2.65,2.9492 -3.89,7.4101 -3.89,13.332 v 81.2073 c 0,5.351 1.12,9.41 3.45,12.183 2.4,2.746 5.5,4.18 9.38,4.18 3.71,0 6.82,-1.293 9.29,-3.902 2.49,-2.59 3.73,-6.16 3.73,-10.75 v -2.7 c 4.7,5.899 9.77,10.25 15.12,12.981 5.37,2.781 11.42,4.16 17.94,4.16 6.82,0 12.68,-1.422 17.59,-4.281 4.94,-2.82 8.97,-7.121 12.14,-12.86 4.59,5.782 9.51,10.129 14.77,12.93 5.25,2.832 11.05,4.211 17.4,4.211 7.5,0 13.89,-1.492 19.22,-4.59 5.41,-3.039 9.41,-7.402 12.08,-13.082 2.34,-5.14 3.48,-13.211 3.48,-24.25 V 60.0195 c 0,-5.9375 -1.29,-10.4492 -3.84,-13.4375 -2.65,-2.9804 -6.03,-4.4726 -10.29,-4.4726 -4.13,0 -7.49,1.4922 -10.1,4.5703 -2.65,2.9492 -3.97,7.4101 -3.97,13.3398 v 47.7615 c 0,6.11 -0.24,10.981 -0.72,14.66 -0.51,3.707 -1.86,6.75 -4.07,9.258 -2.18,2.5 -5.52,3.762 -9.93,3.762 -3.58,0 -7.01,-1.121 -10.17,-3.289 -3.28,-2.25 -5.72,-5.231 -7.55,-8.981 v 0"
         style="fill:#100f0d;fill-opacity:1;fill-rule:nonzero;stroke:none"
         transform="matrix(0.13333333,0,0,-0.13333333,0,829.18667)" />
      <path
         id="path11"
         d="m 2086.03,99.2109 c -4.01,-1.5586 -9.81,-3.1289 -17.41,-4.8593 -7.61,-1.6914 -12.88,-2.9297 -15.8,-3.75 -2.93,-0.8203 -5.73,-2.3594 -8.34,-4.6524 -2.69,-2.3984 -4.03,-5.6172 -4.03,-9.7773 0,-4.3321 1.59,-7.961 4.67,-10.9922 3.15,-3.0508 7.24,-4.5313 12.29,-4.5313 5.37,0 10.36,1.25 14.89,3.711 4.55,2.4531 7.92,5.6601 10,9.5117 2.47,4.3086 3.73,11.3594 3.73,21.3008 z m 1.76,-41.1093 c -6.59,-5.3633 -12.94,-9.3321 -19.08,-11.9727 -6.12,-2.707 -13.05,-4.0195 -20.65,-4.0195 -7.02,0 -13.09,1.4492 -18.41,4.2812 -5.31,2.8985 -9.34,6.8008 -12.21,11.7696 -2.83,4.9218 -4.29,10.1992 -4.29,15.9882 0,7.7618 2.42,14.3633 7.12,19.8399 4.67,5.4531 11.14,9.1327 19.37,11.0237 1.73,0.418 6.04,1.32 12.84,2.769 6.91,1.5 12.72,2.801 17.67,4.008 4.84,1.191 10.16,2.672 15.88,4.391 -0.36,7.519 -1.79,13.011 -4.33,16.582 -2.59,3.468 -7.93,5.179 -15.91,5.179 -6.95,0 -12.11,-0.98 -15.65,-2.992 -3.46,-1.98 -6.47,-5.027 -8.92,-9.097 -2.53,-4 -4.25,-6.661 -5.28,-7.922 -1.06,-1.321 -3.28,-1.899 -6.61,-1.899 -3.1,0 -5.72,1.008 -7.92,3.028 -2.25,2.062 -3.36,4.64 -3.36,7.882 0,4.969 1.7,9.872 5.07,14.508 3.39,4.742 8.68,8.61 15.84,11.711 7.17,3.051 16.13,4.559 26.83,4.559 11.92,0 21.33,-1.508 28.22,-4.438 6.82,-2.922 11.6,-7.551 14.45,-13.968 2.84,-6.344 4.24,-14.844 4.24,-25.372 0,-6.64 0,-12.332 -0.04,-16.941 -0.05,-4.6914 -0.08,-9.8281 -0.15,-15.5195 0,-5.3086 0.84,-10.8907 2.56,-16.6602 1.65,-5.789 2.49,-9.5312 2.49,-11.1601 0,-2.918 -1.32,-5.5782 -3.93,-7.9688 -2.57,-2.3828 -5.58,-3.582 -8.87,-3.582 -2.84,0 -5.54,1.3398 -8.3,4.0703 -2.72,2.75 -5.61,6.75 -8.67,11.9219"
         style="fill:#100f0d;fill-opacity:1;fill-rule:nonzero;stroke:none"
         transform="matrix(0.13333333,0,0,-0.13333333,0,829.18667)" />
      <path
         id="path12"
         d="M 2167.52,141.379 V 59.3789 c 0,-5.7187 -1.3,-10.0195 -3.85,-12.9297 -2.59,-2.8476 -5.85,-4.3398 -9.85,-4.3398 -3.98,0 -7.26,1.4922 -9.71,4.4414 -2.53,3.0195 -3.78,7.2695 -3.78,12.8281 V 140.57 c 0,5.559 1.25,9.789 3.78,12.641 2.45,2.871 5.73,4.289 9.71,4.289 4,0 7.26,-1.418 9.85,-4.289 2.55,-2.852 3.85,-6.781 3.85,-11.832 z m -13.44,29.34 c -3.74,0 -6.97,1.211 -9.66,3.703 -2.69,2.418 -4.09,5.867 -4.09,10.328 0,3.992 1.41,7.27 4.18,9.922 2.73,2.598 5.96,3.828 9.57,3.828 3.54,0 6.69,-1.148 9.42,-3.488 2.68,-2.352 4.02,-5.821 4.02,-10.262 0,-4.418 -1.3,-7.828 -3.97,-10.25 -2.66,-2.461 -5.81,-3.781 -9.47,-3.781"
         style="fill:#100f0d;fill-opacity:1;fill-rule:nonzero;stroke:none"
         transform="matrix(0.13333333,0,0,-0.13333333,0,829.18667)" />
      <path
         id="path13"
         d="m 2220.38,141.789 v -3.387 c 4.75,6.559 9.97,11.387 15.61,14.469 5.69,3.078 12.23,4.629 19.63,4.629 7.13,0 13.57,-1.621 19.26,-4.91 5.58,-3.238 9.83,-7.828 12.59,-13.758 1.81,-3.5 2.94,-7.281 3.51,-11.281 0.49,-3.981 0.8,-9.11 0.8,-15.371 V 59.3789 c 0,-5.7187 -1.29,-10.0195 -3.76,-12.9297 -2.5,-2.8476 -5.74,-4.3398 -9.7,-4.3398 -4.05,0 -7.36,1.4922 -9.78,4.4726 -2.56,2.9883 -3.86,7.2383 -3.86,12.7969 v 47.2691 c 0,9.403 -1.21,16.543 -3.69,21.481 -2.54,4.961 -7.52,7.473 -14.96,7.473 -4.83,0 -9.24,-1.532 -13.22,-4.563 -3.98,-2.969 -6.9,-7.129 -8.75,-12.418 -1.34,-4.23 -2.03,-12.09 -2.03,-23.7421 v -35.5 c 0,-5.7578 -1.25,-10.0898 -3.83,-12.9883 -2.57,-2.832 -5.87,-4.2812 -9.9,-4.2812 -3.89,0 -7.14,1.4922 -9.65,4.4414 -2.57,3.0195 -3.8,7.2695 -3.8,12.8281 v 82.0001 c 0,5.434 1.11,9.422 3.41,12.101 2.2,2.668 5.37,4.02 9.26,4.02 2.35,0 4.55,-0.641 6.44,-1.77 1.98,-1.16 3.47,-2.992 4.64,-5.25 1.13,-2.41 1.78,-5.3 1.78,-8.691"
         style="fill:#100f0d;fill-opacity:1;fill-rule:nonzero;stroke:none"
         transform="matrix(0.13333333,0,0,-0.13333333,0,829.18667)" />
      <path
         id="path14"
         d="m 2335.42,139.832 21.97,-64.4414 23.72,67.2614 c 1.88,5.418 3.7,9.2 5.52,11.457 1.82,2.25 4.5,3.391 8.13,3.391 3.46,0 6.39,-1.211 8.87,-3.68 2.37,-2.398 3.59,-5.172 3.59,-8.441 0,-1.219 -0.23,-2.66 -0.66,-4.277 -0.39,-1.704 -0.89,-3.262 -1.49,-4.75 -0.56,-1.403 -1.15,-3.09 -1.94,-4.942 l -26.08,-67.5702 c -0.74,-1.9414 -1.7,-4.4296 -2.84,-7.4101 -1.18,-2.9688 -2.5,-5.4609 -3.88,-7.6602 -1.47,-2.0898 -3.21,-3.6875 -5.28,-4.8789 -2.13,-1.1914 -4.67,-1.7812 -7.66,-1.7812 -3.85,0 -6.91,0.9101 -9.23,2.7109 -2.29,1.8594 -3.99,3.8399 -5.07,6.082 -1.07,2.1368 -2.96,6.4766 -5.52,12.9375 l -25.92,66.8322 c -0.6,1.629 -1.24,3.308 -1.89,4.976 -0.59,1.661 -1.08,3.321 -1.55,5.094 -0.42,1.77 -0.67,3.246 -0.67,4.438 0,1.992 0.57,3.902 1.72,5.812 1.14,1.918 2.7,3.488 4.68,4.668 2.02,1.199 4.13,1.84 6.5,1.84 4.48,0 7.59,-1.352 9.3,-4.098 1.7,-2.683 3.6,-7.211 5.68,-13.57"
         style="fill:#100f0d;fill-opacity:1;fill-rule:nonzero;stroke:none"
         transform="matrix(0.13333333,0,0,-0.13333333,0,829.18667)" />
      <path
         id="path15"
         d="m 2446.66,109.012 h 49.28 c -0.62,9.668 -3.11,16.929 -7.5,21.718 -4.36,4.801 -10.1,7.211 -17.21,7.211 -6.73,0 -12.32,-2.441 -16.65,-7.312 -4.34,-4.859 -6.95,-12.09 -7.92,-21.617 z m 53.2,-16.1526 h -53.2 c 0.01,-6.4571 1.3,-12.1406 3.69,-17.0977 2.46,-4.8711 5.66,-8.5898 9.69,-11.1094 4.01,-2.5234 8.46,-3.7226 13.31,-3.7226 3.25,0 6.25,0.3906 8.9,1.1601 2.68,0.8399 5.31,2.0821 7.86,3.75 2.48,1.711 4.79,3.4805 6.94,5.5 2.1,1.9297 4.93,4.5196 8.27,7.8711 1.4,1.3086 3.42,1.8907 5.96,1.8907 2.85,0 5.07,-0.7696 6.81,-2.4102 1.73,-1.5898 2.54,-3.8203 2.54,-6.7305 0,-2.5703 -0.94,-5.5586 -2.88,-9.0312 -1.91,-3.3789 -4.76,-6.6992 -8.71,-9.8906 -3.9,-3.1289 -8.77,-5.6993 -14.65,-7.8399 -5.85,-2.0703 -12.58,-3.0898 -20.28,-3.0898 -17.44,0 -31.04,5.2304 -40.7,15.5703 -9.68,10.4492 -14.51,24.5195 -14.51,42.2891 0,8.5002 1.23,16.2112 3.57,23.3712 2.39,7.199 5.86,13.332 10.45,18.449 4.59,5.152 10.2,9.121 16.93,11.813 6.74,2.757 14.14,4.117 22.34,4.117 10.55,0 19.7,-2.328 27.3,-7.039 7.62,-4.668 13.31,-10.68 17.09,-18.078 3.79,-7.461 5.68,-14.981 5.68,-22.743 0,-7.078 -1.9,-11.7106 -5.86,-13.8082 -3.95,-2.1406 -9.43,-3.1914 -16.54,-3.1914"
         style="fill:#100f0d;fill-opacity:1;fill-rule:nonzero;stroke:none"
         transform="matrix(0.13333333,0,0,-0.13333333,0,829.18667)" />
      <path
         id="path16"
         d="m 2642.74,77.2617 c 0,-3.5195 -1.01,-7.3203 -3.08,-11.3398 -2.03,-4.0235 -5.06,-7.8203 -9.24,-11.4805 -4.14,-3.6211 -9.41,-6.5508 -15.74,-8.75 -6.27,-2.2695 -13.42,-3.3594 -21.25,-3.3594 -16.86,0 -29.97,5.1289 -39.38,15.3399 -9.41,10.2187 -14.15,23.8867 -14.15,41.0976 0,11.6405 2.14,21.9605 6.49,30.8825 4.33,8.879 10.51,15.86 18.71,20.707 8.14,4.922 17.93,7.36 29.31,7.36 7.03,0 13.47,-1.098 19.39,-3.219 5.86,-2.168 10.8,-4.949 14.95,-8.309 4.08,-3.41 7.16,-7.043 9.35,-10.859 2.14,-3.844 3.21,-7.441 3.21,-10.773 0,-3.348 -1.18,-6.227 -3.68,-8.598 -2.39,-2.391 -5.32,-3.551 -8.78,-3.551 -2.25,0 -4.13,0.66 -5.59,1.871 -1.53,1.168 -3.19,3.071 -5.07,5.84 -3.32,5.238 -6.77,9.231 -10.39,11.91 -3.63,2.61 -8.22,3.961 -13.82,3.961 -7.99,0 -14.48,-3.332 -19.4,-9.883 -4.96,-6.578 -7.4,-15.527 -7.4,-26.8981 0,-5.3007 0.68,-10.2812 1.89,-14.7109 1.27,-4.4883 3.11,-8.2891 5.51,-11.4609 2.39,-3.1602 5.3,-5.5274 8.68,-7.1602 3.33,-1.6601 7.07,-2.4492 11.15,-2.4492 5.43,0 10.12,1.2891 14,3.9219 3.87,2.6679 7.34,6.6875 10.33,12.0273 1.67,3.2813 3.42,5.75 5.38,7.5703 1.9,1.8125 4.22,2.6719 7.07,2.6719 3.27,0 6.07,-1.2813 8.18,-3.9219 2.25,-2.6875 3.37,-5.4687 3.37,-8.4375"
         style="fill:#100f0d;fill-opacity:1;fill-rule:nonzero;stroke:none"
         transform="matrix(0.13333333,0,0,-0.13333333,0,829.18667)" />
      <path
         id="path17"
         d="m 2667.99,155.109 h 2.99 v 17.063 c 0,4.539 0.13,8.16 0.37,10.75 0.23,2.609 0.82,4.777 1.95,6.699 1.02,1.899 2.55,3.488 4.59,4.731 1.97,1.187 4.19,1.757 6.65,1.757 3.43,0 6.57,-1.328 9.34,-4.007 1.82,-1.832 3.03,-4 3.53,-6.571 0.51,-2.609 0.73,-6.351 0.73,-11.109 v -19.313 h 10 c 3.85,0 6.8,-0.968 8.82,-2.867 2.06,-1.922 3.04,-4.332 3.04,-7.32 0,-3.82 -1.43,-6.52 -4.36,-8.024 -2.87,-1.488 -7.01,-2.257 -12.38,-2.257 h -5.12 V 82.3594 c 0,-4.4492 0.17,-7.8672 0.45,-10.2891 0.35,-2.3984 1.19,-4.3515 2.45,-5.789 1.26,-1.5118 3.37,-2.2813 6.32,-2.2813 1.58,0 3.73,0.2813 6.48,0.8984 2.66,0.5821 4.8,0.8829 6.35,0.8829 2.18,0 4.22,-0.961 5.95,-2.6993 1.72,-1.9023 2.62,-4.1328 2.62,-6.8515 0,-4.5508 -2.34,-8.0586 -7.15,-10.4883 -4.84,-2.4336 -11.69,-3.6328 -20.62,-3.6328 -8.5,0 -14.97,1.4922 -19.35,4.4726 -4.36,2.9883 -7.28,7.0782 -8.59,12.4063 -1.39,5.2734 -2.07,12.3008 -2.07,21.1015 v 54.5512 h -3.61 c -3.85,0 -6.85,0.961 -8.93,2.918 -2.07,1.933 -3.07,4.363 -3.07,7.363 0,2.988 1.05,5.398 3.19,7.32 2.19,1.899 5.3,2.867 9.43,2.867"
         style="fill:#100f0d;fill-opacity:1;fill-rule:nonzero;stroke:none"
         transform="matrix(0.13333333,0,0,-0.13333333,0,829.18667)" />
      <path
         id="path18"
         d="m 2813.19,99.75 c 0,11.531 -2.46,20.57 -7.32,27.02 -4.93,6.402 -11.42,9.66 -19.68,9.66 -5.34,0 -10,-1.45 -14.03,-4.321 -4.08,-2.918 -7.19,-7.16 -9.37,-12.769 -2.19,-5.559 -3.31,-12.078 -3.31,-19.59 0,-7.4414 1.12,-13.8906 3.27,-19.418 2.15,-5.5507 5.21,-9.7929 9.23,-12.7422 4,-2.9375 8.75,-4.3906 14.21,-4.3906 8.26,0 14.75,3.2227 19.68,9.6914 4.86,6.461 7.32,15.4492 7.32,26.8594 z m 27.3,0 c 0,-8.4102 -1.25,-16.2187 -3.82,-23.3984 -2.5,-7.0821 -6.17,-13.2422 -10.92,-18.3828 -4.8,-5.1368 -10.52,-8.9805 -17.13,-11.7891 -6.67,-2.7305 -14.09,-4.0703 -22.43,-4.0703 -8.27,0 -15.69,1.3398 -22.23,4.1523 -6.56,2.7578 -12.29,6.7305 -17.09,11.8985 -4.79,5.1796 -8.46,11.2304 -10.91,18.2695 -2.48,7.082 -3.7,14.8125 -3.7,23.3594 0,8.6019 1.22,16.4609 3.7,23.5699 2.58,7.18 6.15,13.231 10.86,18.332 4.76,5.051 10.45,8.938 17.14,11.68 6.78,2.738 14.16,4.129 22.23,4.129 8.26,0 15.69,-1.391 22.43,-4.168 6.7,-2.762 12.42,-6.762 17.21,-11.883 4.73,-5.109 8.44,-11.258 10.92,-18.328 2.49,-7.051 3.74,-14.851 3.74,-23.371"
         style="fill:#100f0d;fill-opacity:1;fill-rule:nonzero;stroke:none"
         transform="matrix(0.13333333,0,0,-0.13333333,0,829.18667)" />
      <path
         id="path19"
         d="M 2888.94,83.0117 V 59.3789 c 0,-5.7578 -1.31,-10.0898 -3.91,-12.9883 -2.59,-2.832 -5.86,-4.2812 -9.89,-4.2812 -3.87,0 -7.12,1.4922 -9.63,4.3398 -2.52,2.9102 -3.76,7.211 -3.76,12.9297 v 79.0001 c 0,12.762 4.4,19.121 13.24,19.121 4.47,0 7.74,-1.508 9.77,-4.461 1.95,-2.98 3.01,-7.398 3.27,-13.207 3.23,5.809 6.61,10.227 10.04,13.207 3.42,2.953 7.96,4.461 13.64,4.461 5.77,0 11.28,-1.508 16.68,-4.461 5.36,-2.98 8.08,-6.957 8.08,-11.859 0,-3.461 -1.18,-6.371 -3.47,-8.578 -2.26,-2.243 -4.74,-3.411 -7.44,-3.411 -0.98,0 -3.4,0.661 -7.21,1.969 -3.84,1.262 -7.21,1.93 -10.15,1.93 -3.94,0 -7.19,-1.059 -9.69,-3.301 -2.54,-2.207 -4.51,-5.41 -5.9,-9.687 -1.39,-4.352 -2.4,-9.442 -2.9,-15.391 -0.51,-5.8907 -0.77,-13.1016 -0.77,-21.6993"
         style="fill:#100f0d;fill-opacity:1;fill-rule:nonzero;stroke:none"
         transform="matrix(0.13333333,0,0,-0.13333333,0,829.18667)" />
      <path
         id="path20"
         d="m 3033.79,79.1914 c 0,-7.8516 -1.82,-14.5391 -5.51,-20.1328 -3.68,-5.5977 -9.06,-9.7695 -16.2,-12.6797 -7.17,-2.8203 -15.83,-4.2695 -26.11,-4.2695 -9.68,0 -18.09,1.539 -25.09,4.7031 -6.97,3.0977 -12.13,6.9766 -15.42,11.6484 -3.36,4.6485 -5.06,9.3477 -5.06,14.0508 0,3.1094 1.09,5.7891 3.27,8.0078 2.11,2.2618 4.81,3.3203 8.02,3.3203 2.88,0 5.1,-0.7382 6.62,-2.1484 1.52,-1.5391 2.94,-3.5508 4.38,-6.1797 2.78,-5.0703 6.1,-8.8515 10.05,-11.3398 3.82,-2.5313 9.12,-3.7735 15.89,-3.7735 5.42,0 9.89,1.293 13.39,3.8204 3.46,2.5312 5.26,5.4101 5.26,8.6718 0,5.0196 -1.84,8.668 -5.43,10.9414 -3.67,2.3282 -9.6,4.5078 -17.9,6.5664 -9.36,2.4336 -17,4.9805 -22.89,7.6329 -5.87,2.6797 -10.63,6.2307 -14.11,10.5897 -3.53,4.301 -5.31,9.711 -5.31,16.09 0,5.719 1.64,11.078 4.9,16.121 3.23,5.07 8.1,9.09 14.42,12.117 6.33,3.043 13.98,4.551 22.99,4.551 7,0 13.33,-0.781 18.97,-2.309 5.6,-1.511 10.35,-3.582 14.04,-6.109 3.75,-2.582 6.64,-5.422 8.58,-8.512 1.99,-3.16 2.96,-6.211 2.96,-9.16 0,-3.281 -1.02,-5.879 -3.16,-8.051 -2.1,-2 -5.1,-3.058 -8.89,-3.058 -2.82,0 -5.19,0.82 -7.19,2.519 -1.91,1.641 -4.19,4.121 -6.7,7.399 -2.06,2.793 -4.46,5.019 -7.28,6.679 -2.79,1.633 -6.57,2.5 -11.33,2.5 -4.93,0 -9.05,-1.078 -12.25,-3.289 -3.28,-2.168 -4.92,-4.91 -4.92,-8.16 0,-3 1.21,-5.429 3.57,-7.34 2.42,-1.91 5.62,-3.48 9.69,-4.738 4.09,-1.25 9.64,-2.801 16.75,-4.59 8.46,-2.14 15.32,-4.679 20.69,-7.691 5.34,-2.949 9.38,-6.4806 12.13,-10.5275 2.81,-4.1016 4.18,-8.7109 4.18,-13.8711"
         style="fill:#100f0d;fill-opacity:1;fill-rule:nonzero;stroke:none"
         transform="matrix(0.13333333,0,0,-0.13333333,0,829.18667)" />
      <path
         id="path21"
         d="m 3064.67,42.1094 c -4.12,0 -7.68,1.3398 -10.63,4.1523 -3.04,2.7578 -4.51,6.668 -4.51,11.6094 0,4.2187 1.39,7.8594 4.22,10.9297 2.87,3.039 6.41,4.5195 10.6,4.5195 4.16,0 7.74,-1.4805 10.64,-4.5117 2.99,-2.9688 4.48,-6.6797 4.48,-10.9375 0,-4.9023 -1.49,-8.7695 -4.48,-11.5703 -2.9,-2.7891 -6.34,-4.1914 -10.32,-4.1914"
         style="fill:#100f0d;fill-opacity:1;fill-rule:nonzero;stroke:none"
         transform="matrix(0.13333333,0,0,-0.13333333,0,829.18667)" />
      <path
         id="path22"
         d="m 3184.93,99.75 c 0,11.531 -2.45,20.57 -7.34,27.02 -4.88,6.402 -11.41,9.66 -19.65,9.66 -5.32,0 -9.95,-1.45 -14.02,-4.321 -4.06,-2.918 -7.18,-7.16 -9.35,-12.769 -2.17,-5.559 -3.29,-12.078 -3.29,-19.59 0,-7.4414 1.05,-13.8906 3.2,-19.418 2.22,-5.5507 5.27,-9.7929 9.3,-12.7422 4.01,-2.9375 8.72,-4.3906 14.16,-4.3906 8.24,0 14.77,3.2227 19.65,9.6914 4.89,6.461 7.34,15.4492 7.34,26.8594 z m 27.32,0 c 0,-8.4102 -1.25,-16.2187 -3.81,-23.3984 -2.54,-7.0821 -6.15,-13.2422 -10.94,-18.3828 -4.83,-5.1368 -10.47,-8.9805 -17.13,-11.7891 -6.62,-2.7305 -14.1,-4.0703 -22.43,-4.0703 -8.22,0 -15.62,1.3398 -22.19,4.1523 -6.58,2.7578 -12.25,6.7305 -17.05,11.8985 -4.9,5.1796 -8.52,11.2304 -11.04,18.2695 -2.44,7.082 -3.69,14.8125 -3.69,23.3594 0,8.6019 1.25,16.4609 3.79,23.5699 2.57,7.18 6.13,13.231 10.82,18.332 4.72,5.051 10.44,8.938 17.17,11.68 6.7,2.738 14.05,4.129 22.19,4.129 8.24,0 15.71,-1.391 22.43,-4.168 6.73,-2.762 12.46,-6.762 17.25,-11.883 4.75,-5.109 8.38,-11.258 10.9,-18.328 2.48,-7.051 3.73,-14.851 3.73,-23.371"
         style="fill:#100f0d;fill-opacity:1;fill-rule:nonzero;stroke:none"
         transform="matrix(0.13333333,0,0,-0.13333333,0,829.18667)" />
      <path
         id="path23"
         d="M 3260.69,83.0117 V 59.3789 c 0,-5.7578 -1.3,-10.0898 -3.89,-12.9883 -2.55,-2.832 -5.88,-4.2812 -9.83,-4.2812 -3.97,0 -7.15,1.4922 -9.69,4.3398 -2.56,2.9102 -3.8,7.211 -3.8,12.9297 v 79.0001 c 0,12.762 4.47,19.121 13.26,19.121 4.52,0 7.76,-1.508 9.74,-4.461 1.96,-2.98 3.12,-7.398 3.36,-13.207 3.19,5.809 6.52,10.227 9.94,13.207 3.44,2.953 8.01,4.461 13.67,4.461 5.81,0 11.35,-1.508 16.67,-4.461 5.38,-2.98 8.1,-6.957 8.1,-11.859 0,-3.461 -1.15,-6.371 -3.43,-8.578 -2.31,-2.243 -4.75,-3.411 -7.47,-3.411 -0.96,0 -3.35,0.661 -7.17,1.969 -3.84,1.262 -7.21,1.93 -10.15,1.93 -3.96,0 -7.19,-1.059 -9.79,-3.301 -2.48,-2.207 -4.44,-5.41 -5.86,-9.687 -1.36,-4.352 -2.33,-9.442 -2.85,-15.391 -0.53,-5.8907 -0.81,-13.1016 -0.81,-21.6993"
         style="fill:#100f0d;fill-opacity:1;fill-rule:nonzero;stroke:none"
         transform="matrix(0.13333333,0,0,-0.13333333,0,829.18667)" />
      <path
         id="path24"
         d="m 3339.2,100.719 c 0,-11.4768 2.43,-20.1877 7.26,-26.1096 4.78,-5.8477 11.04,-8.8281 18.63,-8.8281 4.49,0 8.82,1.3085 12.82,3.8398 4.02,2.5312 7.29,6.3398 9.82,11.4297 2.56,5.1094 3.78,11.2578 3.78,18.539 0,11.5702 -2.46,20.5702 -7.34,26.9922 -4.86,6.508 -11.29,9.758 -19.25,9.758 -7.75,0 -13.99,-3.168 -18.66,-9.301 -4.7,-6.187 -7.06,-14.937 -7.06,-26.32 z m 78.84,36 V 54.25 c 0,-9.4687 -1.03,-17.5586 -2.92,-24.3203 -1.93,-6.8281 -5.01,-12.4375 -9.26,-16.8594 -4.24,-4.42967 -9.84,-7.71874 -16.67,-9.87108 C 3382.31,1.08984 3373.75,0 3363.53,0 c -9.38,0 -17.77,1.33203 -25.1,4.05859 -7.39,2.80079 -13.08,6.30081 -17.05,10.67191 -3.98,4.2812 -5.99,8.75 -5.99,13.3515 0,3.4688 1.1,6.2696 3.42,8.4493 2.23,2.2382 4.96,3.3203 8.14,3.3203 4,0 7.44,-1.8516 10.49,-5.5 1.46,-1.9414 2.98,-3.8008 4.5,-5.6914 1.56,-1.9102 3.3,-3.5782 5.17,-4.8985 1.92,-1.3906 4.21,-2.3828 6.87,-3.0508 2.6,-0.6523 5.7,-0.9804 9.17,-0.9804 6.98,0 12.51,1.039 16.37,3.0586 3.88,2.0429 6.62,4.9023 8.2,8.5703 1.48,3.6797 2.49,7.5898 2.65,11.7812 0.32,4.2813 0.5,10.9492 0.69,20.2891 -4.18,-6.0977 -9.09,-10.75 -14.51,-13.9297 -5.48,-3.1992 -12.03,-4.75 -19.54,-4.75 -9.18,0 -17.13,2.3789 -23.89,7.2617 -6.85,4.8399 -12.08,11.6172 -15.72,20.3789 -3.61,8.711 -5.48,18.7891 -5.48,30.2384 0,8.57 1.09,16.281 3.36,23.141 2.18,6.832 5.33,12.632 9.52,17.339 4.07,4.723 8.85,8.293 14.22,10.692 5.41,2.347 11.25,3.57 17.75,3.57 7.67,0 14.34,-1.562 19.97,-4.672 5.73,-3.027 10.91,-7.937 15.77,-14.48 v 3.801 c 0,4.96 1.21,8.742 3.5,11.519 2.3,2.672 5.31,4.043 8.95,4.043 5.26,0 8.75,-1.773 10.49,-5.34 1.7,-3.594 2.59,-8.781 2.59,-15.523"
         style="fill:#100f0d;fill-opacity:1;fill-rule:nonzero;stroke:none"
         transform="matrix(0.13333333,0,0,-0.13333333,0,829.18667)" />
      <path
         id="path25"
         d="m 2239.34,413.102 h 40.33 c -2.85,-21.75 -11.75,-38.731 -26.58,-50.942 -13.71,-11.98 -30.33,-17.871 -49.73,-17.871 -26.34,0 -47.37,9.25 -63.07,27.723 -14.87,17.57 -22.3,40.25 -22.3,67.957 0,28.402 7.38,51.09 22.09,68.281 14.71,17.121 35.5,25.719 62.39,25.719 19.99,0 36.91,-5.41 50.62,-16.137 14.54,-11.602 23.44,-27.902 26.58,-48.773 h -40.33 c -3.5,18.211 -14.6,27.273 -33.52,27.273 -31.18,0 -46.8,-18.473 -46.8,-55.422 0,-17.328 4.02,-31.461 12.04,-42.461 8.02,-11.07 19.32,-16.597 33.9,-16.597 21.74,0 33.2,10.429 34.38,31.25 z m -158.8,25.437 c 0,-36.098 11.45,-66.66 34.31,-91.559 22.89,-24.89 50.9,-37.351 84.15,-37.351 33.1,0 61.13,12.461 83.98,37.351 22.92,24.899 34.3,55.461 34.3,91.559 0,36.082 -11.38,66.621 -34.3,91.52 -22.85,24.953 -50.88,37.382 -83.98,37.382 -33.25,0 -61.26,-12.429 -84.15,-37.382 -22.86,-24.899 -34.31,-55.438 -34.31,-91.52 z m -40.98,0 c 0,45.941 15.55,85.152 46.66,117.723 31.15,32.519 68.76,48.789 112.78,48.789 43.92,0 81.46,-16.27 112.65,-48.789 31.13,-32.571 46.72,-71.782 46.72,-117.723 0,-45.969 -15.59,-85.238 -46.72,-117.738 -31.19,-32.551 -68.73,-48.832 -112.65,-48.832 -44.02,0 -81.63,16.281 -112.78,48.832 -31.11,32.5 -46.66,71.769 -46.66,117.738"
         style="fill:#100f0d;fill-opacity:1;fill-rule:nonzero;stroke:none"
         transform="matrix(0.13333333,0,0,-0.13333333,0,829.18667)" />
      <path
         id="path26"
         d="m 2104.07,334.121 23.25,-19.73 170.96,219.539 -23.25,19.691 -170.96,-219.5"
         style="fill:#100f0d;fill-opacity:1;fill-rule:nonzero;stroke:none"
         transform="matrix(0.13333333,0,0,-0.13333333,0,829.18667)" />
      <path
         id="path27"
         d="m 2190.89,1521.66 c 1206.69,0 2190.9,984.19 2190.9,2190.89 0,1206.7 -984.21,2190.9 -2190.9,2190.9 C 984.188,5903.45 0,4919.25 0,3712.55 0,2505.85 984.188,1521.66 2190.89,1521.66"
         style="fill:#fef7bd;fill-opacity:1;fill-rule:evenodd;stroke:none"
         transform="matrix(0.13333333,0,0,-0.13333333,0,829.18667)" />
      <path
         id="path28"
         d="m 2944.43,1431.32 -303.17,-86.38 40.09,-60.59 c 92.73,-140.09 194.38,-276.69 304.62,-409.319 15.81,-9.222 36.84,-11.539 55.46,-6.109 18.63,5.43 32.19,17.808 35.78,32.699 33.26,137.739 11.44,279.879 -62.63,408.189 l -70.15,121.51"
         style="fill:#1b1919;fill-opacity:1;fill-rule:evenodd;stroke:none"
         transform="matrix(0.13333333,0,0,-0.13333333,0,829.18667)" />
      <path
         id="path29"
         d="m 2783.85,1327.97 c 43.6,23.35 120.16,-9.8 171.01,-74.04 50.86,-64.25 -18.67,-40 -62.28,-63.34 -43.59,-23.35 -44.75,-85.46 -95.6,-21.24 -50.85,64.25 -56.73,135.27 -13.13,158.62"
         style="fill:#ffffff;fill-opacity:1;fill-rule:evenodd;stroke:none"
         transform="matrix(0.13333333,0,0,-0.13333333,0,829.18667)" />
      <path
         id="path30"
         d="m 1882.3,1319.22 v -134.9 c 0,-90.52 9.71,-180.79 28.95,-269.25 l -316.59,26.539 28.26,73.591 c 38.32,99.83 52.78,207.25 42.22,313.69 l 217.16,-9.67"
         style="fill:#ffffff;fill-opacity:1;fill-rule:evenodd;stroke:none"
         transform="matrix(0.13333333,0,0,-0.13333333,0,829.18667)" />
      <path
         id="path31"
         d="m 1453.18,3173.51 15.44,-583.92 c 12.45,-470.82 56.3,-940.29 131.26,-1405.27 h 333.63 l 52.44,474.85 c 50.93,461.24 106.26,921.94 166,1382.11 l -698.77,132.23"
         style="fill:#2c2f7d;fill-opacity:1;fill-rule:evenodd;stroke:none"
         transform="matrix(0.13333333,0,0,-0.13333333,0,829.18667)" />
      <path
         id="path32"
         d="m 2483.46,3218.61 -54.64,-174.77 c -5.84,-18.67 -3.88,-38.9 5.43,-56.11 29.75,-55 81.91,-94.39 142.96,-107.97 11.61,-2.58 23.7,-1.96 34.98,1.81 46.84,15.64 76.95,61.18 72.99,110.39 -1.44,18.03 -11.57,34.23 -27.14,43.43 l 10.26,47.05 c 5.84,26.76 0.23,54.74 -15.46,77.19 -15.71,22.45 -40.04,37.33 -67.18,41.04 l -102.2,17.94"
         style="fill:#f15030;fill-opacity:1;fill-rule:evenodd;stroke:none"
         transform="matrix(0.13333333,0,0,-0.13333333,0,829.18667)" />
      <path
         id="path33"
         d="m 2796.5,3891.55 34.91,-32.08 c 66.36,-60.95 121.85,-132.76 164.09,-212.33 l -28.96,-67.4 c -81.08,-188.69 -229.81,-340.23 -416.96,-424.83 l -66.12,63.7 91.75,366.09 c 10.69,176.8 79.88,213.86 221.29,306.85"
         style="fill:#f15030;fill-opacity:1;fill-rule:evenodd;stroke:none"
         transform="matrix(0.13333333,0,0,-0.13333333,0,829.18667)" />
      <path
         id="path34"
         d="m 1910.26,4160.97 -89.35,87.67 c -57.17,56.08 -139.36,78.47 -217.09,59.14 l -366.45,-103.85 c -37.12,-169.44 -8.61,-323.75 150.77,-421.58 l 274.78,56.69 c 143.95,41.7 244.13,172.09 247.34,321.93"
         style="fill:#f9b00b;fill-opacity:1;fill-rule:evenodd;stroke:none"
         transform="matrix(0.13333333,0,0,-0.13333333,0,829.18667)" />
      <path
         id="path35"
         d="m 2391.15,3214.13 164.37,-989.98 c 183.96,-226.26 324.16,-409.42 422.3,-854.6 -67.96,-125.87 -174.85,-163.63 -320.01,-114.72 l -505.86,656.38 c -179.83,312.94 -220.71,546.19 -412.4,982.56 l 651.6,320.36"
         style="fill:#403e9e;fill-opacity:1;fill-rule:evenodd;stroke:none"
         transform="matrix(0.13333333,0,0,-0.13333333,0,829.18667)" />
      <path
         id="path36"
         d="m 1388.14,3782.35 274.78,56.69 c 33.04,9.57 63.78,23.84 91.57,41.92 l -10.01,126.52 -92.54,-7.13 c -125.15,-9.66 -230.74,-96.91 -263.8,-218"
         style="fill:#f48313;fill-opacity:1;fill-rule:evenodd;stroke:none"
         transform="matrix(0.13333333,0,0,-0.13333333,0,829.18667)" />
      <path
         id="path37"
         d="m 2299.18,4272.23 34.58,-118.85 c 107.76,-370.35 171.17,-779.66 189.07,-1177.36 -327.27,-163.46 -774.16,-163.46 -1101.43,0 17.91,397.7 81.32,807.01 189.07,1177.36 l 34.58,118.85 327.07,112.85 327.06,-112.85"
         style="fill:#f9b00b;fill-opacity:1;fill-rule:evenodd;stroke:none"
         transform="matrix(0.13333333,0,0,-0.13333333,0,829.18667)" />
      <path
         id="path38"
         d="m 2385.29,3959.6 c 38.39,-158.63 69.1,-322.48 92.06,-487.92 -106.94,55.78 -182.83,158.53 -203.72,278.88 l -41.01,236.47 152.67,-27.43"
         style="fill:#f48313;fill-opacity:1;fill-rule:evenodd;stroke:none"
         transform="matrix(0.13333333,0,0,-0.13333333,0,829.18667)" />
      <path
         id="path39"
         d="m 1306.21,3903.8 c -83.36,-46.54 -229.98,-58.52 -324.983,-43.57 l -16.028,74.86 c -44.871,209.6 -31.629,463.61 37.131,712.11 l 70.25,25.06 165.25,-382.03 c 61.28,-71.59 128.26,-234.73 68.38,-386.43"
         style="fill:#f15030;fill-opacity:1;fill-rule:evenodd;stroke:none"
         transform="matrix(0.13333333,0,0,-0.13333333,0,829.18667)" />
      <path
         id="path40"
         d="m 1142.96,4491.42 c -17.51,155.78 -18.6,288.98 -5.37,446.55 5.04,60.11 -54.63,57.32 -66.93,5.78 -7.68,-32.16 -19.13,-81.53 -18.03,-130.47 l -130.974,-41.79 c -20.312,-8.52 -35.968,-25.37 -42.961,-46.26 -15.785,-47.17 -7.343,-99.08 22.578,-138.8 6.809,-9.04 17.344,-14.51 28.649,-14.87 v -14.05 c 0,-22.53 10.375,-43.81 28.121,-57.68 17.75,-13.87 40.895,-18.81 62.757,-13.37 l 122.16,4.96"
         style="fill:#f15030;fill-opacity:1;fill-rule:evenodd;stroke:none"
         transform="matrix(0.13333333,0,0,-0.13333333,0,829.18667)" />
      <path
         id="path41"
         d="m 1140.36,4515.56 c -5.54,53.83 -9.08,105.2 -10.7,156.1 l -80.84,61.85 c -10.57,8.1 -24.59,10.14 -37.03,5.4 -32.614,-12.42 -62.337,-31.38 -87.341,-55.73 -4.297,-4.19 -6.031,-10.34 -4.562,-16.16 1.465,-5.82 5.929,-10.41 11.699,-12.05 32.266,-9.16 66.93,-3.69 94.814,14.95 l 8.15,-16.99 -10.53,-19.71 c -19.94,-37.3 -10.01,-83.55 23.48,-109.39 27.23,-21 63.55,-23.51 92.86,-8.27"
         style="fill:#e73c20;fill-opacity:1;fill-rule:evenodd;stroke:none"
         transform="matrix(0.13333333,0,0,-0.13333333,0,829.18667)" />
      <path
         id="path42"
         d="m 1790.57,4322.41 28.23,11.1 c 36.69,14.44 66.18,54.37 78.85,106.78 12.67,52.39 6.87,110.55 -15.48,155.5 l 90.32,19.46 90.31,-19.46 c -22.35,-44.95 -28.14,-103.11 -15.48,-155.5 12.67,-52.41 42.15,-92.34 78.85,-106.78 l 28.24,-11.1 -181.92,-138.84 -181.92,138.84"
         style="fill:#e73c20;fill-opacity:1;fill-rule:evenodd;stroke:none"
         transform="matrix(0.13333333,0,0,-0.13333333,0,829.18667)" />
      <path
         id="path43"
         d="m 1596.61,5000.68 c -45.15,0 -73.76,-48.51 -63.9,-108.37 9.86,-59.85 54.46,-108.37 99.61,-108.37 45.16,0 73.76,48.52 63.9,108.37 -9.87,59.86 -54.46,108.37 -99.61,108.37 z m 751.75,0 c 45.15,0 73.76,-48.51 63.89,-108.37 -9.86,-59.85 -54.46,-108.37 -99.6,-108.37 -45.15,0 -73.76,48.52 -63.9,108.37 9.87,59.86 54.47,108.37 99.61,108.37 v 0"
         style="fill:#e73c20;fill-opacity:1;fill-rule:evenodd;stroke:none"
         transform="matrix(0.13333333,0,0,-0.13333333,0,829.18667)" />
      <path
         id="path44"
         d="m 1641.16,5249.12 h 662.64 v -391.63 c 32.83,-50.01 51.97,-109.71 51.97,-173.67 v 0 c 0,-174.98 -143.16,-318.14 -318.14,-318.14 h -130.29 c -174.98,0 -318.15,143.16 -318.15,318.14 v 0 c 0,63.96 19.15,123.66 51.97,173.67 v 391.63"
         style="fill:#f15030;fill-opacity:1;fill-rule:evenodd;stroke:none"
         transform="matrix(0.13333333,0,0,-0.13333333,0,829.18667)" />
      <path
         id="path45"
         d="m 2101.14,4572.28 c -1.58,-57.4 -49.01,-103.86 -106.78,-103.86 h -43.75 c -57.77,0 -105.2,46.46 -106.78,103.86 h 257.31"
         style="fill:#ffffff;fill-opacity:1;fill-rule:evenodd;stroke:none"
         transform="matrix(0.13333333,0,0,-0.13333333,0,829.18667)" />
      <path
         id="path46"
         d="m 2303.8,4866.34 84.09,111.53 c 41.79,55.45 54.35,127.63 33.75,193.94 -20.59,66.32 -71.84,118.67 -137.7,140.67 l -38.02,53.24 c -62.56,87.59 -166.03,136.52 -273.43,129.29 -107.4,7.23 -210.88,-41.7 -273.44,-129.29 l -38.02,-53.24 c -65.86,-22 -117.11,-74.35 -137.7,-140.67 -20.6,-66.31 -8.04,-138.49 33.76,-193.94 l 84.07,-111.53 24.93,273.77 c 62.23,-72.41 152.95,-114.08 248.43,-114.08 h 57.97 57.96 c 95.47,0 186.2,41.67 248.43,114.08 l 24.92,-273.77"
         style="fill:#2e2d2d;fill-opacity:1;fill-rule:evenodd;stroke:none"
         transform="matrix(0.13333333,0,0,-0.13333333,0,829.18667)" />
      <path
         id="path47"
         d="m 2128.46,4755.28 c 42.05,0 76.36,41.99 76.36,93.48 0,51.48 -34.31,93.48 -76.36,93.48 -42.06,0 -76.37,-42 -76.37,-93.48 0,-51.49 34.31,-93.48 76.37,-93.48"
         style="fill:#2e2d2d;fill-opacity:1;fill-rule:evenodd;stroke:none"
         transform="matrix(0.13333333,0,0,-0.13333333,0,829.18667)" />
      <path
         id="path48"
         d="m 2124.34,4735.86 c 42.06,0 76.36,39.03 76.36,86.9 0,47.86 -34.3,86.9 -76.36,86.9 -42.06,0 -76.37,-39.04 -76.37,-86.9 0,-47.87 34.31,-86.9 76.37,-86.9"
         style="fill:#ffffff;fill-opacity:1;fill-rule:evenodd;stroke:none"
         transform="matrix(0.13333333,0,0,-0.13333333,0,829.18667)" />
      <path
         id="path49"
         d="m 2119.26,4783.94 c 20.42,0 37.08,25.23 37.08,56.17 0,30.93 -16.66,56.16 -37.08,56.16 -20.41,0 -37.07,-25.23 -37.07,-56.16 0,-30.94 16.66,-56.17 37.07,-56.17"
         style="fill:#2e2d2d;fill-opacity:1;fill-rule:evenodd;stroke:none"
         transform="matrix(0.13333333,0,0,-0.13333333,0,829.18667)" />
      <path
         id="path50"
         d="m 2139.05,4843.53 c 10.21,0 18.54,12.93 18.54,28.77 0,15.86 -8.33,28.79 -18.54,28.79 -10.21,0 -18.54,-12.93 -18.54,-28.79 0,-15.84 8.33,-28.77 18.54,-28.77"
         style="fill:#ffffff;fill-opacity:1;fill-rule:evenodd;stroke:none"
         transform="matrix(0.13333333,0,0,-0.13333333,0,829.18667)" />
      <path
         id="path51"
         d="m 2068.88,5000.68 19.65,5.78 c 49.69,14.62 103.33,-1.84 136.25,-41.83 l -14.57,-20.91 c -21.88,23.77 -100.77,34 -140.7,19.64 l -0.63,37.32"
         style="fill:#2e2d2d;fill-opacity:1;fill-rule:evenodd;stroke:none"
         transform="matrix(0.13333333,0,0,-0.13333333,0,829.18667)" />
      <path
         id="path52"
         d="m 1816.52,4755.28 c 42.06,0 76.37,41.99 76.37,93.48 0,51.48 -34.31,93.48 -76.37,93.48 -42.06,0 -76.36,-42 -76.36,-93.48 0,-51.49 34.3,-93.48 76.36,-93.48"
         style="fill:#2e2d2d;fill-opacity:1;fill-rule:evenodd;stroke:none"
         transform="matrix(0.13333333,0,0,-0.13333333,0,829.18667)" />
      <path
         id="path53"
         d="m 1820.64,4735.86 c 42.06,0 76.37,39.03 76.37,86.9 0,47.86 -34.31,86.9 -76.37,86.9 -42.06,0 -76.36,-39.04 -76.36,-86.9 0,-47.87 34.3,-86.9 76.36,-86.9"
         style="fill:#ffffff;fill-opacity:1;fill-rule:evenodd;stroke:none"
         transform="matrix(0.13333333,0,0,-0.13333333,0,829.18667)" />
      <path
         id="path54"
         d="m 1825.71,4783.94 c 20.42,0 37.08,25.23 37.08,56.17 0,30.93 -16.66,56.16 -37.08,56.16 -20.42,0 -37.07,-25.23 -37.07,-56.16 0,-30.94 16.65,-56.17 37.07,-56.17"
         style="fill:#2e2d2d;fill-opacity:1;fill-rule:evenodd;stroke:none"
         transform="matrix(0.13333333,0,0,-0.13333333,0,829.18667)" />
      <path
         id="path55"
         d="m 1843.83,4843.53 c 10.21,0 18.54,12.93 18.54,28.77 0,15.86 -8.33,28.79 -18.54,28.79 -10.21,0 -18.54,-12.93 -18.54,-28.79 0,-15.84 8.33,-28.77 18.54,-28.77"
         style="fill:#ffffff;fill-opacity:1;fill-rule:evenodd;stroke:none"
         transform="matrix(0.13333333,0,0,-0.13333333,0,829.18667)" />
      <path
         id="path56"
         d="m 1876.09,5000.68 -19.64,5.78 c -49.7,14.62 -103.33,-1.84 -136.26,-41.83 l 14.58,-20.91 c 21.87,23.77 100.76,34 140.68,19.64 l 0.64,37.32"
         style="fill:#2e2d2d;fill-opacity:1;fill-rule:evenodd;stroke:none"
         transform="matrix(0.13333333,0,0,-0.13333333,0,829.18667)" />
      <path
         id="path57"
         d="m 1972.49,4645.62 c 31.55,0 57.12,11.04 57.12,-5.81 0,-16.85 -25.57,-55.22 -57.12,-55.22 -31.56,0 -57.13,38.37 -57.13,55.22 0,16.85 25.57,5.81 57.13,5.81"
         style="fill:#e73c20;fill-opacity:1;fill-rule:evenodd;stroke:none"
         transform="matrix(0.13333333,0,0,-0.13333333,0,829.18667)" />
      <path
         id="path58"
         d="m 2117.69,4690.86 c 50.26,0 91.27,24.49 91.27,54.51 0,30.01 -41.01,54.5 -91.27,54.5 -50.26,0 -91.25,-24.49 -91.25,-54.5 0,-30.02 40.99,-54.51 91.25,-54.51"
         style="fill:#f15030;fill-opacity:1;fill-rule:evenodd;stroke:none"
         transform="matrix(0.13333333,0,0,-0.13333333,0,829.18667)" />
      <path
         id="path59"
         d="m 1827.29,4690.86 c 50.26,0 91.26,24.49 91.26,54.51 0,30.01 -41,54.5 -91.26,54.5 -50.27,0 -91.26,-24.49 -91.26,-54.5 0,-30.02 40.99,-54.51 91.26,-54.51"
         style="fill:#f15030;fill-opacity:1;fill-rule:evenodd;stroke:none"
         transform="matrix(0.13333333,0,0,-0.13333333,0,829.18667)" />
      <path
         id="path60"
         d="m 2138.44,4232.02 117.75,42.47 c 75.35,27.16 159.37,13.28 221.98,-36.68 166.78,-133.1 231.65,-182.83 378.5,-337.64 -36.84,-169.5 -127.05,-297.89 -312.71,-320.43 l -314.79,256.57 c -113.5,97.88 -150.24,258.16 -90.73,395.71"
         style="fill:#f9b00b;fill-opacity:1;fill-rule:evenodd;stroke:none"
         transform="matrix(0.13333333,0,0,-0.13333333,0,829.18667)" />
      <path
         id="path61"
         d="m 1937.8,866.039 -12.52,97.27 -68.94,-2.399 c -100.39,-3.5 -192.67,63.46 -233.58,169.53 l -68.54,-46.47 c -81.63,-55.37 -174.84,-83.76 -269.46,-82.03 -10.75,0.18 -20.89,-5.749 -27.14,-15.858 -6.25,-10.102 -7.8,-23.133 -4.16,-34.812 11.88,-38.141 36.78,-68.961 68.85,-85.231 h 615.49"
         style="fill:#1b1919;fill-opacity:1;fill-rule:evenodd;stroke:none"
         transform="matrix(0.13333333,0,0,-0.13333333,0,829.18667)" />
      <path
         id="path62"
         d="m 3162.1,4348.97 c 63.55,0 115.37,51.82 115.37,115.35 0,63.54 -51.82,115.35 -115.37,115.35 -63.52,0 -115.35,-51.81 -115.35,-115.35 0,-63.53 51.83,-115.35 115.35,-115.35"
         style="fill:#2a2718;fill-opacity:1;fill-rule:evenodd;stroke:none"
         transform="matrix(0.13333333,0,0,-0.13333333,0,829.18667)" />
      <path
         id="path63"
         d="m 3162.1,6218.93 c 332.81,0 602.58,-269.78 602.58,-602.57 0,-174.31 -74.02,-331.32 -192.33,-441.34 -95.65,-88.92 -144.62,-201.31 -144.62,-331.91 v -5.4 H 2896.5 v 5.4 c 0,130.6 -48.97,242.99 -144.61,331.91 -118.32,110.02 -192.34,267.03 -192.34,441.34 0,332.79 269.77,602.57 602.55,602.57"
         style="fill:#f9b00b;fill-opacity:1;fill-rule:evenodd;stroke:none"
         transform="matrix(0.13333333,0,0,-0.13333333,0,829.18667)" />
      <path
         id="path64"
         d="m 3173.91,6106.03 c 132.56,-84.44 143.03,-305.2 23.35,-493.1 -119.67,-187.89 -324.15,-271.77 -456.71,-187.34 -132.58,84.43 -143.02,305.2 -23.35,493.1 119.67,187.89 324.15,271.76 456.71,187.34"
         style="fill:#fbc907;fill-opacity:1;fill-rule:evenodd;stroke:none"
         transform="matrix(0.13333333,0,0,-0.13333333,0,829.18667)" />
      <path
         id="path65"
         d="m 2896.5,4473.43 h 531.23 v 364.28 H 2896.5 v -364.28"
         style="fill:#656437;fill-opacity:1;fill-rule:evenodd;stroke:none"
         transform="matrix(0.13333333,0,0,-0.13333333,0,829.18667)" />
      <path
         id="path66"
         d="m 3040.69,4392.98 h 242.87 l 144.17,80.45 H 2896.5 l 144.19,-80.45"
         style="fill:#4c4a26;fill-opacity:1;fill-rule:evenodd;stroke:none"
         transform="matrix(0.13333333,0,0,-0.13333333,0,829.18667)" />
      <path
         id="path67"
         d="m 2932.39,5596.43 h 100.77 v 82.41 c 0,22.43 -8.69,42.82 -22.95,57.83 -14.36,15.12 -34.29,24.94 -56.59,26.1 -22.36,1.16 -43.2,-6.52 -59.02,-20.06 -15.82,-13.54 -26.65,-32.91 -28.96,-55.1 -2.32,-22.31 4.26,-43.51 16.91,-59.97 12.03,-15.63 29.44,-27.06 49.84,-31.21 z m 358.67,82.41 v -82.41 h 100.77 c 20.41,4.15 37.81,15.58 49.84,31.21 12.65,16.46 19.23,37.67 16.91,59.97 -2.3,22.19 -13.14,41.56 -28.94,55.1 -15.84,13.54 -36.69,21.22 -59.03,20.06 -22.3,-1.16 -42.24,-10.97 -56.6,-26.09 -14.25,-15.02 -22.95,-35.41 -22.95,-57.84 z M 3205,4837.71 v 672.68 h -85.78 v -672.68 h -86.06 v 672.68 h -105.88 l -4.27,0.66 c -44.74,7.02 -82.74,30.86 -108.35,64.15 -25.71,33.41 -39.07,76.26 -34.4,121.15 4.7,45 26.56,84.21 58.54,111.57 31.99,27.36 74.09,42.9 119.19,40.56 45.16,-2.34 85.43,-22.15 114.4,-52.64 29.07,-30.63 46.83,-71.89 46.83,-117 v -82.41 H 3205 v 82.41 c 0,45.11 17.77,86.38 46.83,117 28.96,30.5 69.24,50.3 114.41,52.64 45.09,2.34 87.19,-13.2 119.18,-40.56 31.98,-27.36 53.86,-66.57 58.54,-111.57 4.67,-44.89 -8.7,-87.74 -34.4,-121.15 -25.6,-33.29 -63.63,-57.13 -108.34,-64.15 l -4.27,-0.66 H 3291.06 V 4837.71 H 3205 v 0"
         style="fill:#fcfbc2;fill-opacity:1;fill-rule:evenodd;stroke:none"
         transform="matrix(0.13333333,0,0,-0.13333333,0,829.18667)" />
      <path
         id="path68"
         d="m 2932.39,5596.43 h 100.77 v 82.41 c 0,22.43 -8.69,42.82 -22.95,57.83 -14.36,15.12 -34.29,24.94 -56.59,26.1 -22.36,1.16 -43.2,-6.52 -59.02,-20.06 -15.82,-13.54 -26.65,-32.91 -28.96,-55.1 -2.32,-22.31 4.26,-43.51 16.91,-59.97 12.03,-15.63 29.44,-27.06 49.84,-31.21 z m 272.61,29.05 v 53.36 c 0,45.11 17.77,86.38 46.83,117 7.27,7.65 15.25,14.63 23.84,20.83 -9.55,-62.83 -32.99,-128.6 -70.67,-191.19 z m -171.84,-177.85 v 62.76 h -105.88 l -4.27,0.66 c -44.74,7.02 -82.74,30.86 -108.35,64.15 -25.71,33.41 -39.07,76.26 -34.4,121.15 4.7,45 26.56,84.21 58.54,111.57 31.99,27.36 74.09,42.9 119.19,40.56 45.16,-2.34 85.43,-22.15 114.4,-52.64 29.07,-30.63 46.83,-71.89 46.83,-117 v -82.41 h 67.12 c -43.51,-63.43 -96.78,-113.94 -153.18,-148.8 v 0"
         style="fill:#fffef1;fill-opacity:1;fill-rule:evenodd;stroke:none"
         transform="matrix(0.13333333,0,0,-0.13333333,0,829.18667)" />
      <path
         id="path69"
         d="m 2951.16,4473.43 h 135.08 v 364.28 h -135.08 v -364.28"
         style="fill:#797948;fill-opacity:1;fill-rule:evenodd;stroke:none"
         transform="matrix(0.13333333,0,0,-0.13333333,0,829.18667)" />
      <path
         id="path70"
         d="m 2871.45,4600.56 581.33,55.01 v -66.78 l -581.33,-55.01 z m 0,124.46 581.33,55.01 v -66.78 l -581.33,-55.01 v 66.78 0"
         style="fill:#797948;fill-opacity:1;fill-rule:evenodd;stroke:none"
         transform="matrix(0.13333333,0,0,-0.13333333,0,829.18667)" />
      <path
         id="path71"
         d="m 3058.82,4618.3 v -66.79 l -126.64,-11.98 v 66.78 z m -126.64,112.47 126.64,11.98 v -66.77 l -126.64,-11.99 v 66.78 0"
         style="fill:#8d8d57;fill-opacity:1;fill-rule:evenodd;stroke:none"
         transform="matrix(0.13333333,0,0,-0.13333333,0,829.18667)" />
    </g>
  </g>
</svg>
