<?xml version="1.0" encoding="UTF-8" standalone="no"?>
<!-- Created with Inkscape (http://www.inkscape.org/) -->

<svg
   version="1.1"
   id="svg1"
   width="607.35999"
   height="666.89331"
   viewBox="0 0 607.35999 666.89331"
   sodipodi:docname="japan-gate-clipart.svg"
   inkscape:version="1.4 (e7c3feb100, 2024-10-09)"
   xmlns:inkscape="http://www.inkscape.org/namespaces/inkscape"
   xmlns:sodipodi="http://sodipodi.sourceforge.net/DTD/sodipodi-0.dtd"
   xmlns="http://www.w3.org/2000/svg"
   xmlns:svg="http://www.w3.org/2000/svg">
  <defs
     id="defs1" />
  <sodipodi:namedview
     id="namedview1"
     pagecolor="#505050"
     bordercolor="#ffffff"
     borderopacity="1"
     inkscape:showpageshadow="0"
     inkscape:pageopacity="0"
     inkscape:pagecheckerboard="1"
     inkscape:deskcolor="#d1d1d1"
     inkscape:zoom="1.2220845"
     inkscape:cx="303.57965"
     inkscape:cy="333.44666"
     inkscape:window-width="1920"
     inkscape:window-height="1002"
     inkscape:window-x="0"
     inkscape:window-y="0"
     inkscape:window-maximized="1"
     inkscape:current-layer="g1">
    <inkscape:page
       x="0"
       y="0"
       inkscape:label="1"
       id="page1"
       width="607.35999"
       height="666.89331"
       margin="0"
       bleed="0" />
  </sodipodi:namedview>
  <g
     id="g1"
     inkscape:groupmode="layer"
     inkscape:label="1">
    <g
       id="group-R5">
      <path
         id="path2"
         d="m 1389.17,72.9219 c 0,5.457 -0.78,10.1797 -2.4,14.0273 -1.57,3.9219 -3.78,6.9414 -6.62,9.0703 -2.83,2.0703 -5.95,3.1289 -9.39,3.1289 -5.45,0 -10.06,-2.2968 -13.81,-6.7578 -3.75,-4.5117 -5.63,-11.0898 -5.63,-19.8203 0,-8.2305 1.88,-14.6289 5.57,-19.1406 3.75,-4.5781 8.38,-6.8906 13.87,-6.8906 3.28,0 6.34,1 9.16,3.0195 2.76,1.9922 5.02,4.9727 6.72,8.9219 1.7,4.0195 2.53,8.8086 2.53,14.4414 z m -38.76,30.0901 v -2.492 c 3.71,4.761 7.55,8.332 11.56,10.539 4.02,2.25 8.59,3.39 13.67,3.39 6.07,0 11.68,-1.648 16.81,-4.929 5.1,-3.278 9.15,-8.04 12.13,-14.3716 2.97,-6.3164 4.44,-13.7578 4.44,-22.3867 0,-6.332 -0.83,-12.2422 -2.55,-17.4922 -1.71,-5.3281 -4.07,-9.8203 -7.06,-13.4101 -3,-3.6094 -6.56,-6.3985 -10.62,-8.3086 -4.1,-1.9805 -8.5,-2.9297 -13.15,-2.9297 -5.68,0 -10.43,1.1797 -14.27,3.5508 -3.87,2.3594 -7.51,5.8203 -10.96,10.4179 V 13.6094 C 1350.41,4.51953 1347.23,0 1340.9,0 c -3.72,0 -6.2,1.14844 -7.37,3.49219 -1.22,2.34765 -1.82,5.76953 -1.82,10.25001 v 89.1288 c 0,3.93 0.79,6.879 2.46,8.809 1.66,1.922 3.9,2.922 6.73,2.922 2.81,0 5.09,-1 6.85,-3.012 1.76,-2.008 2.66,-4.871 2.66,-8.578"
         style="fill:#2e2825;fill-opacity:1;fill-rule:nonzero;stroke:none"
         transform="matrix(0.13333333,0,0,-0.13333333,0,666.89333)" />
      <path
         id="path3"
         d="m 1476.32,42.3008 v 2.5976 c -2.38,-3.1093 -4.86,-5.7187 -7.48,-7.8281 -2.6,-2.1601 -5.46,-3.7187 -8.53,-4.7383 -3.13,-1.0234 -6.64,-1.5507 -10.61,-1.5507 -4.75,0 -9.04,1.0507 -12.85,3.0898 -3.8,2.0703 -6.74,4.918 -8.79,8.5391 -2.5,4.3984 -3.7,10.7109 -3.7,18.8906 V 102.23 c 0,4.102 0.89,7.211 2.69,9.25 1.78,2.04 4.14,3.059 7.08,3.059 3,0 5.41,-1.019 7.25,-3.109 1.84,-2.071 2.75,-5.16 2.75,-9.2 V 69.1484 c 0,-4.75 0.38,-8.7773 1.13,-12.0078 0.81,-3.2617 2.2,-5.8086 4.22,-7.6797 1.96,-1.8125 4.69,-2.7304 8.12,-2.7304 3.37,0 6.5,1.039 9.43,3.1015 2.97,2.0469 5.12,4.7383 6.46,8.0664 1.11,2.9336 1.66,9.3321 1.66,19.211 V 102.23 c 0,4.04 0.92,7.129 2.77,9.2 1.82,2.09 4.18,3.109 7.15,3.109 2.95,0 5.32,-1.019 7.1,-3.059 1.77,-2.039 2.65,-5.148 2.65,-9.25 V 42.4102 c 0,-3.918 -0.82,-6.8789 -2.54,-8.8282 -1.7,-1.9922 -3.91,-2.9414 -6.62,-2.9414 -2.7,0 -4.92,1.0391 -6.7,3.0313 -1.76,2.0703 -2.64,4.9101 -2.64,8.6289"
         style="fill:#2e2825;fill-opacity:1;fill-rule:nonzero;stroke:none"
         transform="matrix(0.13333333,0,0,-0.13333333,0,666.89333)" />
      <path
         id="path4"
         d="m 1533.71,72.1016 c 0,-8.211 1.78,-14.5 5.37,-18.9297 3.61,-4.3906 8.34,-6.6328 14.2,-6.6328 4.98,0 9.23,2.2812 12.86,6.7812 3.62,4.5195 5.42,10.9492 5.42,19.3906 0,5.4883 -0.75,10.1602 -2.26,14.0782 -1.51,3.9531 -3.65,6.9922 -6.38,9.1211 -2.79,2.1406 -5.96,3.2382 -9.64,3.2382 -3.81,0 -7.11,-1.0976 -10.08,-3.2382 -2.97,-2.1289 -5.27,-5.2383 -6.97,-9.3204 -1.69,-4.0195 -2.52,-8.8398 -2.52,-14.4882 z m -0.94,61.3784 v -31.558 c 3.67,4.07 7.49,7.117 11.35,9.308 3.86,2.141 8.67,3.219 14.35,3.219 6.58,0 12.34,-1.648 17.29,-4.867 4.94,-3.312 8.81,-7.992 11.52,-14.1601 2.75,-6.1719 4.1,-13.5 4.1,-21.961 0,-6.2695 -0.75,-11.9921 -2.25,-17.25 -1.54,-5.1914 -3.72,-9.6992 -6.63,-13.5703 -2.93,-3.8086 -6.45,-6.7422 -10.56,-8.9101 -4.15,-2.0508 -8.7,-3.1094 -13.67,-3.1094 -3.02,0 -5.91,0.3906 -8.61,1.1289 -2.67,0.7617 -4.98,1.75 -6.81,3.0195 -1.92,1.1719 -3.52,2.4922 -4.86,3.7696 -1.32,1.3203 -3.05,3.2812 -5.22,5.8906 v -2.0195 c 0,-3.8907 -0.92,-6.8204 -2.71,-8.8282 -1.76,-1.9922 -4.07,-2.9609 -6.79,-2.9609 -2.83,0 -5.04,0.9687 -6.73,2.9609 -1.65,2.0469 -2.48,4.9571 -2.48,8.8282 v 90.1718 c 0,4.148 0.8,7.316 2.44,9.449 1.61,2.16 3.85,3.219 6.77,3.219 3.02,0 5.38,-1.012 7,-3.07 1.66,-2.02 2.5,-4.91 2.5,-8.7"
         style="fill:#2e2825;fill-opacity:1;fill-rule:nonzero;stroke:none"
         transform="matrix(0.13333333,0,0,-0.13333333,0,666.89333)" />
      <path
         id="path5"
         d="m 1605.35,43.1797 v 89.5313 c 0,4.148 0.88,7.25 2.61,9.379 1.8,2.101 4.16,3.16 7.16,3.16 3,0 5.4,-1.02 7.25,-3.129 1.8,-2.082 2.76,-5.242 2.76,-9.41 V 43.1797 c 0,-4.1797 -0.96,-7.3399 -2.81,-9.4492 -1.85,-2.0508 -4.26,-3.1094 -7.2,-3.1094 -2.9,0 -5.22,1.0898 -7.05,3.25 -1.82,2.1797 -2.72,5.2578 -2.72,9.3086"
         style="fill:#2e2825;fill-opacity:1;fill-rule:nonzero;stroke:none"
         transform="matrix(0.13333333,0,0,-0.13333333,0,666.89333)" />
      <path
         id="path6"
         d="M 1665.33,102.809 V 43.1797 c 0,-4.1602 -0.97,-7.2813 -2.81,-9.3984 -1.9,-2.0704 -4.3,-3.1602 -7.17,-3.1602 -2.91,0 -5.28,1.0898 -7.07,3.2383 -1.8,2.1914 -2.74,5.2695 -2.74,9.3203 V 102.23 c 0,4.04 0.94,7.129 2.74,9.2 1.79,2.09 4.16,3.109 7.07,3.109 2.87,0 5.27,-1.019 7.17,-3.109 1.84,-2.071 2.81,-4.93 2.81,-8.621 z m -9.79,21.351 c -2.75,0 -5.09,0.879 -7.09,2.692 -1.9,1.75 -2.91,4.269 -2.91,7.507 0,2.911 1.01,5.289 3.02,7.211 2,1.899 4.33,2.789 6.98,2.789 2.56,0 4.85,-0.828 6.82,-2.527 1.97,-1.723 2.97,-4.242 2.97,-7.473 0,-3.211 -0.98,-5.687 -2.91,-7.449 -1.94,-1.789 -4.2,-2.75 -6.88,-2.75"
         style="fill:#2e2825;fill-opacity:1;fill-rule:nonzero;stroke:none"
         transform="matrix(0.13333333,0,0,-0.13333333,0,666.89333)" />
      <path
         id="path7"
         d="m 1756.62,56.1797 c 0,-2.5586 -0.73,-5.3203 -2.19,-8.2383 -1.5,-2.9219 -3.74,-5.6914 -6.77,-8.3516 -3,-2.6406 -6.81,-4.7578 -11.4,-6.371 -4.59,-1.6485 -9.76,-2.4375 -15.49,-2.4375 -12.24,0 -21.77,3.7304 -28.64,11.1484 -6.84,7.4492 -10.28,17.3906 -10.28,29.9023 0,8.4571 1.56,15.9688 4.69,22.4571 3.13,6.4609 7.71,11.5309 13.63,15.0699 5.93,3.571 13.06,5.352 21.29,5.352 5.14,0 9.84,-0.801 14.12,-2.352 4.27,-1.57 7.89,-3.597 10.86,-6.039 2.97,-2.48 5.23,-5.121 6.82,-7.8981 1.58,-2.793 2.34,-5.4102 2.34,-7.8321 0,-2.4414 -0.9,-4.5312 -2.64,-6.2578 -1.77,-1.7304 -3.88,-2.582 -6.4,-2.582 -1.66,0 -3.01,0.4805 -4.12,1.3594 -1.06,0.8515 -2.29,2.2304 -3.66,4.2422 -2.4,3.8203 -4.94,6.707 -7.56,8.6679 -2.64,1.8907 -5.99,2.8789 -10.01,2.8789 -5.88,0 -10.59,-2.4179 -14.15,-7.1796 -3.59,-4.7969 -5.36,-11.2969 -5.36,-19.5704 0,-3.8593 0.46,-7.4687 1.39,-10.6992 0.91,-3.2695 2.24,-6.0273 3.97,-8.3281 1.74,-2.3008 3.82,-4.0313 6.29,-5.2109 2.47,-1.211 5.18,-1.7891 8.11,-1.7891 3.98,0 7.36,0.9375 10.2,2.8672 2.83,1.9336 5.33,4.8633 7.5,8.75 1.21,2.3711 2.51,4.1719 3.91,5.4922 1.42,1.3203 3.14,1.9492 5.16,1.9492 2.41,0 4.41,-0.9414 6.02,-2.8477 1.57,-1.9609 2.37,-3.9804 2.37,-6.1523"
         style="fill:#2e2825;fill-opacity:1;fill-rule:nonzero;stroke:none"
         transform="matrix(0.13333333,0,0,-0.13333333,0,666.89333)" />
      <path
         id="path8"
         d="m 1789.2,72.7109 c 0,-5.6015 0.83,-10.3398 2.49,-14.289 1.68,-3.9531 3.93,-6.8711 6.83,-8.8633 2.92,-2.0195 6.08,-3.0195 9.48,-3.0195 3.49,0 6.66,0.9726 9.53,2.8398 2.89,1.9024 5.16,4.8125 6.9,8.7227 1.72,3.8789 2.57,8.7773 2.57,14.6093 0,5.5196 -0.85,10.2188 -2.57,14.1993 -1.74,3.9609 -4.04,6.9804 -6.95,9.1093 -2.93,2.0703 -6.12,3.1289 -9.59,3.1289 -3.62,0 -6.85,-1.0976 -9.71,-3.2382 -2.83,-2.1289 -5.07,-5.2383 -6.63,-9.2383 -1.55,-4.0235 -2.35,-8.6328 -2.35,-13.961 z m 38.88,-30.3007 v 2.0195 c -2.66,-3.168 -5.27,-5.75 -7.89,-7.7109 -2.54,-2.0079 -5.36,-3.5274 -8.38,-4.5586 -3.01,-1.0118 -6.31,-1.5391 -9.87,-1.5391 -4.73,0 -9.14,1.0586 -13.16,3.1094 -4.02,2.1679 -7.51,5.1211 -10.45,9 -2.94,3.8711 -5.18,8.4297 -6.71,13.6992 -1.55,5.2187 -2.29,10.9023 -2.29,17.0312 0,12.8711 3.03,22.9805 9.06,30.1801 6.06,7.211 13.99,10.808 23.83,10.808 5.7,0 10.51,-1.039 14.42,-3.117 3.9,-2 7.73,-5.152 11.44,-9.41 v 30.476 c 0,4.243 0.8,7.442 2.43,9.602 1.61,2.18 3.9,3.25 6.91,3.25 2.99,0 5.29,-0.988 6.93,-2.961 1.6,-1.988 2.44,-4.937 2.44,-8.809 V 42.4102 c 0,-3.918 -0.88,-6.8789 -2.62,-8.8282 -1.75,-1.9922 -3.98,-2.9609 -6.75,-2.9609 -2.68,0 -4.94,1.0078 -6.71,3.0508 -1.75,2.0273 -2.63,4.9179 -2.63,8.7383"
         style="fill:#2e2825;fill-opacity:1;fill-rule:nonzero;stroke:none"
         transform="matrix(0.13333333,0,0,-0.13333333,0,666.89333)" />
      <path
         id="path9"
         d="m 1920.83,72.5391 c 0,8.3906 -1.8,14.9609 -5.33,19.6523 -3.55,4.6602 -8.34,7.0274 -14.31,7.0274 -3.89,0 -7.28,-1.0469 -10.23,-3.1368 -2.94,-2.1211 -5.2,-5.2109 -6.8,-9.2929 -1.59,-4.0391 -2.4,-8.7774 -2.4,-14.25 0,-5.3985 0.81,-10.0977 2.36,-14.1172 1.56,-4.0313 3.81,-7.1211 6.75,-9.2735 2.91,-2.1367 6.38,-3.1875 10.32,-3.1875 5.97,0 10.76,2.3399 14.31,7.0508 3.53,4.6992 5.33,11.2266 5.33,19.5274 z m 19.85,0 c 0,-6.1094 -0.93,-11.7969 -2.76,-17.0196 -1.83,-5.1484 -4.49,-9.6211 -7.94,-13.3593 -3.51,-3.7383 -7.66,-6.5313 -12.48,-8.5782 -4.83,-1.9922 -10.31,-2.9609 -16.31,-2.9609 -5.98,0 -11.38,0.9687 -16.15,3.0195 -4.78,2.0078 -8.94,4.8985 -12.45,8.6602 -3.48,3.7695 -6.13,8.1601 -7.97,13.2812 -1.8,5.1485 -2.7,10.7696 -2.7,17 0,6.25 0.93,11.9571 2.74,17.1289 1.84,5.2188 4.46,9.6289 7.89,13.3401 3.44,3.668 7.58,6.5 12.49,8.48 4.9,2.008 10.25,3.008 16.15,3.008 5.99,0 11.43,-1 16.31,-3.039 4.86,-2 9.04,-4.898 12.51,-8.629 3.5,-3.7226 6.14,-8.1796 7.91,-13.3319 1.86,-5.1172 2.76,-10.7969 2.76,-17"
         style="fill:#2e2825;fill-opacity:1;fill-rule:nonzero;stroke:none"
         transform="matrix(0.13333333,0,0,-0.13333333,0,666.89333)" />
      <path
         id="path10"
         d="m 2024.21,89.5898 c -1.48,-3.4882 -2.18,-9.6484 -2.18,-18.5078 V 43.6406 c 0,-4.3086 -0.93,-7.5898 -2.84,-9.7695 -1.87,-2.1602 -4.39,-3.25 -7.48,-3.25 -2.96,0 -5.39,1.0898 -7.23,3.25 -1.87,2.1797 -2.78,5.4609 -2.78,9.7695 v 32.9297 c 0,5.1797 -0.19,9.1992 -0.53,12.1094 -0.34,2.8398 -1.25,5.2187 -2.76,7.0625 -1.46,1.8594 -3.84,2.7773 -7.07,2.7773 -6.46,0 -10.72,-2.3281 -12.79,-7 -2.07,-4.6093 -3.05,-11.2695 -3.05,-19.9687 V 43.6406 c 0,-4.3008 -0.95,-7.5508 -2.79,-9.6914 -1.88,-2.2383 -4.33,-3.3281 -7.33,-3.3281 -3.02,0 -5.5,1.0898 -7.4,3.3281 -1.92,2.1406 -2.83,5.3906 -2.83,9.6797 v 59.0821 c 0,3.891 0.82,6.84 2.52,8.848 1.74,2.011 4,3.043 6.82,3.043 2.69,0 4.96,-0.942 6.76,-2.832 1.8,-1.891 2.71,-4.481 2.71,-7.821 v -1.969 c 3.42,4.29 7.1,7.45 11,9.45 3.9,2.011 8.3,3.019 13.04,3.019 4.96,0 9.22,-1.039 12.8,-3.117 3.59,-2.043 6.52,-5.184 8.82,-9.352 3.34,4.2 6.92,7.379 10.75,9.411 3.81,2.05 8.03,3.058 12.65,3.058 5.45,0 10.1,-1.078 13.99,-3.34 3.92,-2.211 6.83,-5.379 8.78,-9.519 1.7,-3.7306 2.53,-9.5978 2.53,-17.6291 V 43.6406 c 0,-4.3086 -0.94,-7.5898 -2.8,-9.7695 -1.92,-2.1602 -4.38,-3.25 -7.48,-3.25 -3.01,0 -5.45,1.0898 -7.34,3.3281 -1.94,2.1406 -2.89,5.3906 -2.89,9.6914 v 34.7383 c 0,4.4414 -0.18,7.9922 -0.53,10.6602 -0.37,2.7109 -1.35,4.9218 -2.96,6.7422 -1.58,1.8203 -4.01,2.7382 -7.22,2.7382 -2.6,0 -5.09,-0.8203 -7.4,-2.3984 -2.38,-1.6406 -4.16,-3.8008 -5.49,-6.5313 v 0"
         style="fill:#2e2825;fill-opacity:1;fill-rule:nonzero;stroke:none"
         transform="matrix(0.13333333,0,0,-0.13333333,0,666.89333)" />
      <path
         id="path11"
         d="m 2136.23,72.1484 c -2.91,-1.1289 -7.13,-2.2773 -12.66,-3.539 -5.54,-1.2305 -9.37,-2.1211 -11.49,-2.7188 -2.13,-0.6015 -4.16,-1.7187 -6.07,-3.3906 -1.95,-1.7383 -2.93,-4.0781 -2.93,-7.1094 0,-3.1484 1.15,-5.789 3.4,-7.9922 2.28,-2.207 5.26,-3.289 8.94,-3.289 3.9,0 7.53,0.9101 10.83,2.6992 3.31,1.7734 5.76,4.1133 7.27,6.9102 1.8,3.1406 2.71,8.2617 2.71,15.4921 z m 1.28,-29.8984 c -4.79,-3.8906 -9.41,-6.7891 -13.87,-8.6992 -4.46,-1.9805 -9.49,-2.9297 -15.02,-2.9297 -5.11,0 -9.52,1.0586 -13.39,3.1094 -3.87,2.1093 -6.8,4.9492 -8.89,8.5703 -2.05,3.5703 -3.11,7.418 -3.11,11.6211 0,5.6484 1.76,10.4492 5.17,14.4375 3.4,3.9609 8.11,6.6406 14.1,8.0117 1.25,0.3008 4.39,0.9609 9.33,2.0078 5.03,1.0899 9.25,2.043 12.85,2.9219 3.52,0.8711 7.4,1.9414 11.55,3.1914 -0.26,5.4687 -1.3,9.4687 -3.15,12.0586 -1.88,2.5195 -5.76,3.7692 -11.57,3.7692 -5.05,0 -8.81,-0.7106 -11.38,-2.1716 -2.52,-1.4492 -4.71,-3.6679 -6.49,-6.6289 -1.84,-2.8984 -3.09,-4.8398 -3.84,-5.7578 -0.77,-0.9531 -2.38,-1.3711 -4.8,-1.3711 -2.26,0 -4.17,0.7305 -5.77,2.1914 -1.64,1.5078 -2.44,3.3789 -2.44,5.7383 0,3.6211 1.23,7.1719 3.68,10.5507 2.47,3.449 6.32,6.258 11.53,8.52 5.21,2.211 11.73,3.32 19.51,3.32 8.67,0 15.52,-1.109 20.53,-3.231 4.96,-2.121 8.43,-5.488 10.5,-10.171 2.07,-4.6098 3.09,-10.7777 3.09,-18.4379 0,-4.832 0,-8.9727 -0.03,-12.332 -0.04,-3.3985 -0.06,-7.1485 -0.11,-11.2774 0,-3.8711 0.62,-7.9297 1.86,-12.1211 1.2,-4.2109 1.82,-6.9297 1.82,-8.1211 0,-2.1211 -0.97,-4.0586 -2.87,-5.8007 -1.86,-1.7188 -4.05,-2.5977 -6.45,-2.5977 -2.06,0 -4.02,0.9687 -6.04,2.9609 -1.97,2.0078 -4.07,4.9102 -6.3,8.668"
         style="fill:#2e2825;fill-opacity:1;fill-rule:nonzero;stroke:none"
         transform="matrix(0.13333333,0,0,-0.13333333,0,666.89333)" />
      <path
         id="path12"
         d="M 2195.5,102.809 V 43.1797 c 0,-4.1602 -0.94,-7.2813 -2.8,-9.3984 -1.88,-2.0704 -4.26,-3.1602 -7.17,-3.1602 -2.89,0 -5.27,1.0898 -7.06,3.2383 -1.83,2.1914 -2.74,5.2695 -2.74,9.3203 V 102.23 c 0,4.04 0.91,7.129 2.74,9.2 1.79,2.09 4.17,3.109 7.06,3.109 2.91,0 5.29,-1.019 7.17,-3.109 1.86,-2.071 2.8,-4.93 2.8,-8.621 z m -9.77,21.351 c -2.73,0 -5.07,0.879 -7.03,2.692 -1.96,1.75 -2.97,4.269 -2.97,7.507 0,2.911 1.02,5.289 3.03,7.211 1.99,1.899 4.34,2.789 6.97,2.789 2.57,0 4.86,-0.828 6.84,-2.527 1.96,-1.723 2.93,-4.242 2.93,-7.473 0,-3.211 -0.94,-5.687 -2.89,-7.449 -1.93,-1.789 -4.23,-2.75 -6.88,-2.75"
         style="fill:#2e2825;fill-opacity:1;fill-rule:nonzero;stroke:none"
         transform="matrix(0.13333333,0,0,-0.13333333,0,666.89333)" />
      <path
         id="path13"
         d="m 2233.94,103.121 v -2.461 c 3.46,4.762 7.26,8.281 11.36,10.512 4.14,2.238 8.88,3.367 14.28,3.367 5.18,0 9.87,-1.168 14,-3.57 4.06,-2.36 7.15,-5.688 9.16,-10 1.32,-2.5471 2.14,-5.2971 2.55,-8.2073 0.36,-2.9023 0.58,-6.6328 0.58,-11.1797 V 43.1797 c 0,-4.1602 -0.93,-7.2813 -2.73,-9.3984 -1.82,-2.0704 -4.18,-3.1602 -7.06,-3.1602 -2.94,0 -5.34,1.0898 -7.11,3.25 -1.87,2.1797 -2.8,5.2578 -2.8,9.3086 v 34.3789 c 0,6.8516 -0.88,12.0312 -2.69,15.6211 -1.84,3.6094 -5.47,5.4297 -10.88,5.4297 -3.51,0 -6.73,-1.0977 -9.62,-3.3086 -2.89,-2.1602 -5.02,-5.1914 -6.36,-9.0313 -0.97,-3.0781 -1.48,-8.8007 -1.48,-17.2695 V 43.1797 c 0,-4.1797 -0.91,-7.3399 -2.78,-9.4492 -1.87,-2.0508 -4.27,-3.1094 -7.2,-3.1094 -2.83,0 -5.19,1.0898 -7.02,3.2383 -1.87,2.1914 -2.76,5.2695 -2.76,9.3203 v 59.6293 c 0,3.961 0.81,6.863 2.48,8.812 1.6,1.949 3.9,2.918 6.73,2.918 1.71,0 3.31,-0.457 4.68,-1.289 1.45,-0.84 2.53,-2.168 3.38,-3.82 0.82,-1.75 1.29,-3.84 1.29,-6.309"
         style="fill:#2e2825;fill-opacity:1;fill-rule:nonzero;stroke:none"
         transform="matrix(0.13333333,0,0,-0.13333333,0,666.89333)" />
      <path
         id="path14"
         d="m 2317.61,101.699 15.98,-46.867 17.24,48.91 c 1.38,3.938 2.7,6.688 4.02,8.34 1.34,1.629 3.28,2.457 5.93,2.457 2.51,0 4.64,-0.879 6.44,-2.668 1.73,-1.75 2.62,-3.762 2.62,-6.141 0,-0.89 -0.18,-1.929 -0.49,-3.109 -0.28,-1.242 -0.64,-2.371 -1.07,-3.4608 -0.42,-1.0118 -0.85,-2.2383 -1.42,-3.5899 l -18.97,-49.1484 c -0.54,-1.4024 -1.24,-3.2227 -2.06,-5.3906 -0.86,-2.1524 -1.82,-3.9727 -2.84,-5.5704 -1.05,-1.5117 -2.32,-2.6796 -3.82,-3.539 -1.56,-0.8633 -3.4,-1.3008 -5.58,-1.3008 -2.8,0 -5.02,0.6602 -6.71,1.9805 -1.67,1.3476 -2.9,2.789 -3.69,4.4101 -0.78,1.5703 -2.15,4.7188 -4.02,9.4102 l -18.85,48.6094 c -0.43,1.1875 -0.9,2.4101 -1.37,3.6171 -0.44,1.211 -0.79,2.4216 -1.13,3.7036 -0.31,1.289 -0.48,2.367 -0.48,3.238 0,1.441 0.41,2.832 1.25,4.219 0.82,1.39 1.96,2.543 3.4,3.402 1.47,0.871 3.01,1.328 4.72,1.328 3.27,0 5.53,-0.969 6.77,-2.98 1.24,-1.95 2.63,-5.239 4.13,-9.86"
         style="fill:#2e2825;fill-opacity:1;fill-rule:nonzero;stroke:none"
         transform="matrix(0.13333333,0,0,-0.13333333,0,666.89333)" />
      <path
         id="path15"
         d="m 2398.51,79.2813 h 35.85 c -0.46,7.0273 -2.27,12.3085 -5.46,15.8007 -3.17,3.4883 -7.34,5.238 -12.52,5.238 -4.89,0 -8.95,-1.7692 -12.1,-5.32 -3.16,-3.5312 -5.06,-8.7891 -5.77,-15.7187 z m 38.69,-11.75 h -38.69 c 0.01,-4.711 0.96,-8.8321 2.69,-12.4297 1.79,-3.5508 4.12,-6.25 7.05,-8.0899 2.92,-1.8203 6.15,-2.7031 9.68,-2.7031 2.36,0 4.55,0.2812 6.47,0.8516 1.95,0.6015 3.87,1.5 5.72,2.7187 1.81,1.2422 3.48,2.5313 5.04,4 1.52,1.4024 3.59,3.293 6.02,5.7227 1.02,0.957 2.48,1.3789 4.34,1.3789 2.06,0 3.68,-0.5586 4.94,-1.75 1.26,-1.1602 1.86,-2.7891 1.86,-4.8985 0,-1.8711 -0.68,-4.0507 -2.1,-6.5703 -1.39,-2.4609 -3.46,-4.8711 -6.34,-7.1797 -2.83,-2.2812 -6.38,-4.1601 -10.65,-5.7109 -4.25,-1.5 -9.14,-2.25 -14.75,-2.25 -12.68,0 -22.58,3.8008 -29.6,11.3203 -7.04,7.6094 -10.55,17.8399 -10.55,30.7695 0,6.168 0.89,11.7813 2.59,16.9883 1.74,5.2305 4.26,9.6992 7.6,13.4218 3.34,3.75 7.42,6.629 12.31,8.59 4.91,2 10.29,3 16.25,3 7.68,0 14.33,-1.699 19.86,-5.129 5.55,-3.402 9.68,-7.762 12.43,-13.1406 2.75,-5.4297 4.13,-10.9023 4.13,-16.543 0,-5.1484 -1.39,-8.5195 -4.27,-10.0468 -2.87,-1.5625 -6.85,-2.3203 -12.03,-2.3203"
         style="fill:#2e2825;fill-opacity:1;fill-rule:nonzero;stroke:none"
         transform="matrix(0.13333333,0,0,-0.13333333,0,666.89333)" />
      <path
         id="path16"
         d="m 2541.13,56.1797 c 0,-2.5586 -0.73,-5.3203 -2.24,-8.2383 -1.48,-2.9219 -3.68,-5.6914 -6.73,-8.3516 -3,-2.6406 -6.84,-4.7578 -11.44,-6.371 -4.56,-1.6485 -9.76,-2.4375 -15.46,-2.4375 -12.26,0 -21.8,3.7304 -28.64,11.1484 -6.84,7.4492 -10.3,17.3906 -10.3,29.9023 0,8.4571 1.57,15.9688 4.73,22.4571 3.14,6.4609 7.65,11.5309 13.6,15.0699 5.92,3.571 13.05,5.352 21.32,5.352 5.12,0 9.8,-0.801 14.1,-2.352 4.27,-1.57 7.86,-3.597 10.87,-6.039 2.97,-2.48 5.22,-5.121 6.81,-7.8981 1.55,-2.793 2.34,-5.4102 2.34,-7.8321 0,-2.4414 -0.86,-4.5312 -2.68,-6.2578 -1.74,-1.7304 -3.87,-2.582 -6.38,-2.582 -1.65,0 -3.01,0.4805 -4.07,1.3594 -1.12,0.8515 -2.33,2.2304 -3.69,4.2422 -2.42,3.8203 -4.93,6.707 -7.56,8.6679 -2.64,1.8907 -5.98,2.8789 -10.05,2.8789 -5.81,0 -10.54,-2.4179 -14.1,-7.1796 -3.61,-4.7969 -5.38,-11.2969 -5.38,-19.5704 0,-3.8593 0.49,-7.4687 1.36,-10.6992 0.93,-3.2695 2.27,-6.0273 4.02,-8.3281 1.73,-2.3008 3.85,-4.0313 6.31,-5.2109 2.42,-1.211 5.13,-1.7891 8.1,-1.7891 3.96,0 7.36,0.9375 10.19,2.8672 2.81,1.9336 5.33,4.8633 7.51,8.75 1.21,2.3711 2.49,4.1719 3.9,5.4922 1.39,1.3203 3.09,1.9492 5.15,1.9492 2.38,0 4.42,-0.9414 5.96,-2.8477 1.63,-1.9609 2.45,-3.9804 2.45,-6.1523"
         style="fill:#2e2825;fill-opacity:1;fill-rule:nonzero;stroke:none"
         transform="matrix(0.13333333,0,0,-0.13333333,0,666.89333)" />
      <path
         id="path17"
         d="m 2559.49,112.801 h 2.18 v 12.418 c 0,3.301 0.08,5.929 0.26,7.812 0.16,1.891 0.6,3.481 1.41,4.867 0.76,1.391 1.87,2.551 3.34,3.454 1.44,0.859 3.05,1.277 4.84,1.277 2.5,0 4.78,-0.969 6.8,-2.918 1.32,-1.332 2.2,-2.91 2.56,-4.789 0.37,-1.891 0.54,-4.613 0.54,-8.07 v -14.051 h 7.27 c 2.8,0 4.95,-0.699 6.41,-2.09 1.51,-1.379 2.22,-3.141 2.22,-5.32 0,-2.77 -1.05,-4.731 -3.17,-5.8324 -2.09,-1.0781 -5.1,-1.6484 -9.02,-1.6484 h -3.71 V 59.8906 c 0,-3.2304 0.12,-5.7187 0.32,-7.4804 0.26,-1.7383 0.87,-3.1602 1.79,-4.2188 0.91,-1.082 2.45,-1.6523 4.59,-1.6523 1.15,0 2.71,0.2109 4.72,0.6601 1.93,0.4219 3.48,0.6328 4.62,0.6328 1.58,0 3.06,-0.6914 4.32,-1.9609 1.25,-1.3789 1.91,-3 1.91,-4.9805 0,-3.3086 -1.7,-5.8593 -5.21,-7.6289 -3.51,-1.7617 -8.49,-2.6406 -14.99,-2.6406 -6.19,0 -10.89,1.0898 -14.07,3.25 -3.17,2.1797 -5.29,5.1484 -6.25,9.0273 -1.02,3.8321 -1.5,8.9414 -1.5,15.3438 v 39.668 h -2.63 c -2.8,0 -4.98,0.6992 -6.5,2.1288 -1.5,1.41 -2.23,3.172 -2.23,5.352 0,2.179 0.77,3.941 2.32,5.32 1.59,1.391 3.86,2.09 6.86,2.09"
         style="fill:#2e2825;fill-opacity:1;fill-rule:nonzero;stroke:none"
         transform="matrix(0.13333333,0,0,-0.13333333,0,666.89333)" />
      <path
         id="path18"
         d="m 2665.09,72.5391 c 0,8.3906 -1.79,14.9609 -5.32,19.6523 -3.58,4.6602 -8.31,7.0274 -14.32,7.0274 -3.87,0 -7.27,-1.0469 -10.2,-3.1368 -2.97,-2.1211 -5.24,-5.2109 -6.82,-9.2929 -1.59,-4.0391 -2.4,-8.7774 -2.4,-14.25 0,-5.3985 0.81,-10.0977 2.37,-14.1172 1.57,-4.0313 3.8,-7.1211 6.72,-9.2735 2.91,-2.1367 6.36,-3.1875 10.33,-3.1875 6.01,0 10.74,2.3399 14.32,7.0508 3.53,4.6992 5.32,11.2266 5.32,19.5274 z m 19.86,0 c 0,-6.1094 -0.91,-11.7969 -2.78,-17.0196 -1.81,-5.1484 -4.49,-9.6211 -7.95,-13.3593 -3.48,-3.7383 -7.64,-6.5313 -12.46,-8.5782 -4.84,-1.9922 -10.24,-2.9609 -16.31,-2.9609 -6.01,0 -11.4,0.9687 -16.17,3.0195 -4.76,2.0078 -8.92,4.8985 -12.42,8.6602 -3.49,3.7695 -6.15,8.1601 -7.94,13.2812 -1.81,5.1485 -2.69,10.7696 -2.69,17 0,6.25 0.88,11.9571 2.69,17.1289 1.88,5.2188 4.47,9.6289 7.9,13.3401 3.46,3.668 7.6,6.5 12.46,8.48 4.93,2.008 10.3,3.008 16.17,3.008 6.01,0 11.41,-1 16.31,-3.039 4.88,-2 9.04,-4.898 12.52,-8.629 3.45,-3.7226 6.14,-8.1796 7.95,-13.3319 1.81,-5.1172 2.72,-10.7969 2.72,-17"
         style="fill:#2e2825;fill-opacity:1;fill-rule:nonzero;stroke:none"
         transform="matrix(0.13333333,0,0,-0.13333333,0,666.89333)" />
      <path
         id="path19"
         d="M 2720.18,60.3711 V 43.1797 c 0,-4.1797 -0.95,-7.3399 -2.83,-9.4492 -1.9,-2.0508 -4.28,-3.1094 -7.2,-3.1094 -2.81,0 -5.18,1.0898 -7,3.1602 -1.84,2.1171 -2.73,5.2382 -2.73,9.3984 v 57.4613 c 0,9.281 3.19,13.898 9.61,13.898 3.26,0 5.64,-1.098 7.11,-3.238 1.43,-2.172 2.19,-5.379 2.39,-9.602 2.35,4.223 4.8,7.43 7.29,9.602 2.49,2.14 5.79,3.238 9.92,3.238 4.19,0 8.21,-1.098 12.14,-3.238 3.89,-2.172 5.87,-5.059 5.87,-8.621 0,-2.52 -0.86,-4.6292 -2.52,-6.2386 -1.65,-1.6328 -3.46,-2.4805 -5.41,-2.4805 -0.71,0 -2.47,0.4688 -5.24,1.4297 -2.8,0.918 -5.25,1.3985 -7.39,1.3985 -2.87,0 -5.23,-0.7696 -7.05,-2.3907 -1.84,-1.6171 -3.28,-3.9375 -4.28,-7.0586 -1.02,-3.1601 -1.75,-6.8593 -2.11,-11.1992 -0.37,-4.2695 -0.57,-9.5195 -0.57,-15.7695"
         style="fill:#2e2825;fill-opacity:1;fill-rule:nonzero;stroke:none"
         transform="matrix(0.13333333,0,0,-0.13333333,0,666.89333)" />
      <path
         id="path20"
         d="m 2825.53,57.5898 c 0,-5.7109 -1.33,-10.5781 -4.01,-14.6406 -2.67,-4.0703 -6.58,-7.1094 -11.78,-9.2304 -5.21,-2.0391 -11.5,-3.0977 -18.98,-3.0977 -7.04,0 -13.17,1.1289 -18.26,3.4102 -5.06,2.2695 -8.81,5.0781 -11.21,8.4804 -2.44,3.3867 -3.68,6.8086 -3.68,10.2188 0,2.2617 0.79,4.2109 2.38,5.8281 1.53,1.6406 3.5,2.4102 5.84,2.4102 2.09,0 3.7,-0.5391 4.8,-1.5586 1.11,-1.1289 2.15,-2.5782 3.19,-4.5 2.02,-3.6914 4.44,-6.4297 7.31,-8.25 2.78,-1.8282 6.64,-2.7305 11.56,-2.7305 3.94,0 7.19,0.9219 9.74,2.7695 2.52,1.8399 3.82,3.9414 3.82,6.3125 0,3.6485 -1.33,6.3086 -3.94,7.9492 -2.68,1.6993 -6.98,3.2774 -13.03,4.7813 -6.8,1.7695 -12.36,3.6289 -16.64,5.5469 -4.28,1.9531 -7.73,4.5312 -10.27,7.7109 -2.56,3.1211 -3.86,7.0586 -3.86,11.6914 0,4.1602 1.19,8.0703 3.57,11.7186 2.35,3.692 5.88,6.621 10.48,8.82 4.61,2.211 10.17,3.309 16.72,3.309 5.1,0 9.7,-0.559 13.8,-1.668 4.07,-1.101 7.53,-2.609 10.22,-4.449 2.72,-1.883 4.82,-3.942 6.24,-6.192 1.44,-2.3003 2.14,-4.5112 2.14,-6.6597 0,-2.3906 -0.74,-4.2812 -2.29,-5.8594 -1.53,-1.4492 -3.71,-2.2187 -6.47,-2.2187 -2.06,0 -3.77,0.5976 -5.22,1.8398 -1.4,1.1875 -3.06,2.9883 -4.87,5.3789 -1.51,2.0196 -3.25,3.6485 -5.31,4.8477 -2.03,1.1914 -4.78,1.8204 -8.24,1.8204 -3.58,0 -6.58,-0.777 -8.9,-2.3907 -2.39,-1.5781 -3.58,-3.5664 -3.58,-5.9375 0,-2.1797 0.88,-3.9492 2.59,-5.332 1.77,-1.3868 4.09,-2.5391 7.05,-3.4493 2.97,-0.9101 7.01,-2.039 12.19,-3.3398 6.14,-1.5508 11.14,-3.4102 15.04,-5.5899 3.88,-2.1484 6.82,-4.7109 8.83,-7.6601 2.04,-2.9805 3.03,-6.3399 3.03,-10.0899"
         style="fill:#2e2825;fill-opacity:1;fill-rule:nonzero;stroke:none"
         transform="matrix(0.13333333,0,0,-0.13333333,0,666.89333)" />
      <path
         id="path21"
         d="m 2847.99,30.6211 c -2.99,0 -5.58,0.9687 -7.73,3.0195 -2.21,2.0078 -3.28,4.8516 -3.28,8.4414 0,3.0782 1.01,5.7188 3.07,7.9493 2.08,2.2109 4.66,3.289 7.71,3.289 3.03,0 5.63,-1.0781 7.73,-3.2812 2.18,-2.1602 3.26,-4.8477 3.26,-7.9571 0,-3.5625 -1.08,-6.3828 -3.26,-8.4101 -2.1,-2.043 -4.61,-3.0508 -7.5,-3.0508"
         style="fill:#2e2825;fill-opacity:1;fill-rule:nonzero;stroke:none"
         transform="matrix(0.13333333,0,0,-0.13333333,0,666.89333)" />
      <path
         id="path22"
         d="m 2935.45,72.5391 c 0,8.3906 -1.78,14.9609 -5.33,19.6523 -3.55,4.6602 -8.31,7.0274 -14.29,7.0274 -3.87,0 -7.24,-1.0469 -10.2,-3.1368 -2.96,-2.1211 -5.22,-5.2109 -6.81,-9.2929 -1.57,-4.0391 -2.38,-8.7774 -2.38,-14.25 0,-5.3985 0.76,-10.0977 2.32,-14.1172 1.62,-4.0313 3.84,-7.1211 6.77,-9.2735 2.91,-2.1367 6.34,-3.1875 10.3,-3.1875 5.98,0 10.74,2.3399 14.29,7.0508 3.55,4.6992 5.33,11.2266 5.33,19.5274 z m 19.88,0 c 0,-6.1094 -0.91,-11.7969 -2.78,-17.0196 -1.84,-5.1484 -4.47,-9.6211 -7.96,-13.3593 -3.5,-3.7383 -7.6,-6.5313 -12.46,-8.5782 -4.81,-1.9922 -10.24,-2.9609 -16.3,-2.9609 -5.98,0 -11.36,0.9687 -16.15,3.0195 -4.78,2.0078 -8.9,4.8985 -12.4,8.6602 -3.55,3.7695 -6.19,8.1601 -8.03,13.2812 -1.76,5.1485 -2.67,10.7696 -2.67,17 0,6.25 0.91,11.9571 2.75,17.1289 1.87,5.2188 4.45,9.6289 7.87,13.3401 3.43,3.668 7.59,6.5 12.48,8.48 4.88,2.008 10.23,3.008 16.15,3.008 5.98,0 11.42,-1 16.3,-3.039 4.91,-2 9.07,-4.898 12.55,-8.629 3.46,-3.7226 6.1,-8.1796 7.93,-13.3319 1.81,-5.1172 2.72,-10.7969 2.72,-17"
         style="fill:#2e2825;fill-opacity:1;fill-rule:nonzero;stroke:none"
         transform="matrix(0.13333333,0,0,-0.13333333,0,666.89333)" />
      <path
         id="path23"
         d="M 2990.55,60.3711 V 43.1797 c 0,-4.1797 -0.94,-7.3399 -2.82,-9.4492 -1.86,-2.0508 -4.28,-3.1094 -7.15,-3.1094 -2.89,0 -5.2,1.0898 -7.05,3.1602 -1.86,2.1171 -2.76,5.2382 -2.76,9.3984 v 57.4613 c 0,9.281 3.25,13.898 9.65,13.898 3.29,0 5.63,-1.098 7.08,-3.238 1.42,-2.172 2.27,-5.379 2.44,-9.602 2.32,4.223 4.74,7.43 7.23,9.602 2.49,2.14 5.82,3.238 9.94,3.238 4.22,0 8.26,-1.098 12.12,-3.238 3.92,-2.172 5.89,-5.059 5.89,-8.621 0,-2.52 -0.84,-4.6292 -2.49,-6.2386 -1.69,-1.6328 -3.46,-2.4805 -5.43,-2.4805 -0.7,0 -2.44,0.4688 -5.21,1.4297 -2.8,0.918 -5.25,1.3985 -7.4,1.3985 -2.88,0 -5.22,-0.7696 -7.1,-2.3907 -1.81,-1.6171 -3.25,-3.9375 -4.27,-7.0586 -0.99,-3.1601 -1.7,-6.8593 -2.07,-11.1992 -0.39,-4.2695 -0.6,-9.5195 -0.6,-15.7695"
         style="fill:#2e2825;fill-opacity:1;fill-rule:nonzero;stroke:none"
         transform="matrix(0.13333333,0,0,-0.13333333,0,666.89333)" />
      <path
         id="path24"
         d="m 3047.66,73.25 c 0,-8.3516 1.76,-14.6797 5.27,-18.9883 3.48,-4.2617 8.04,-6.4297 13.56,-6.4297 3.26,0 6.41,0.9571 9.32,2.7969 2.93,1.8399 5.3,4.6094 7.14,8.3203 1.86,3.711 2.75,8.1914 2.75,13.4727 0,8.4179 -1.79,14.957 -5.33,19.6367 -3.54,4.7305 -8.22,7.0898 -14.01,7.0898 -5.63,0 -10.17,-2.2968 -13.56,-6.7578 -3.43,-4.5 -5.14,-10.8711 -5.14,-19.1406 z M 3105,99.4297 V 39.4414 c 0,-6.8711 -0.76,-12.7617 -2.12,-17.6719 -1.41,-4.9687 -3.66,-9.0507 -6.74,-12.27731 -3.09,-3.21094 -7.16,-5.60156 -12.12,-7.16016 C 3079.01,0.789063 3072.78,0 3065.36,0 c -6.83,0 -12.93,0.960938 -18.27,2.94922 -5.37,2.04297 -9.51,4.58203 -12.4,7.74998 -2.89,3.1211 -4.35,6.3711 -4.35,9.7227 0,2.5195 0.8,4.5586 2.49,6.1367 1.62,1.6328 3.6,2.4219 5.92,2.4219 2.91,0 5.41,-1.3516 7.62,-4.0117 1.07,-1.3985 2.18,-2.7579 3.28,-4.129 1.14,-1.3984 2.4,-2.6093 3.76,-3.5585 1.39,-1.0196 3.07,-1.7305 4.99,-2.2227 1.9,-0.4766 4.15,-0.7188 6.67,-0.7188 5.08,0 9.1,0.7618 11.91,2.2305 2.83,1.4883 4.81,3.5703 5.96,6.2305 1.09,2.6797 1.81,5.5195 1.93,8.5781 0.23,3.1016 0.37,7.9609 0.51,14.7422 -3.05,-4.4219 -6.62,-7.8125 -10.56,-10.1211 -3.99,-2.3281 -8.75,-3.4609 -14.21,-3.4609 -6.68,0 -12.46,1.7304 -17.38,5.2812 -4.97,3.5313 -8.78,8.4492 -11.43,14.8281 -2.63,6.3321 -3.98,13.6602 -3.98,21.9922 0,6.2305 0.79,11.8399 2.44,16.8282 1.58,4.9726 3.88,9.1912 6.92,12.6132 2.96,3.43 6.44,6.02 10.34,7.77 3.94,1.718 8.19,2.597 12.91,2.597 5.58,0 10.43,-1.14 14.54,-3.39 4.16,-2.207 7.93,-5.778 11.46,-10.539 v 2.769 c 0,3.609 0.88,6.352 2.54,8.383 1.68,1.93 3.87,2.93 6.51,2.93 3.83,0 6.36,-1.293 7.63,-3.891 1.24,-2.602 1.89,-6.371 1.89,-11.2813"
         style="fill:#2e2825;fill-opacity:1;fill-rule:nonzero;stroke:none"
         transform="matrix(0.13333333,0,0,-0.13333333,0,666.89333)" />
      <path
         id="path25"
         d="m 2247.73,300.43 h 29.34 c -2.07,-15.809 -8.56,-28.149 -19.34,-37.039 -9.97,-8.7 -22.05,-13 -36.16,-13 -19.16,0 -34.46,6.738 -45.87,20.168 -10.82,12.773 -16.22,29.273 -16.22,49.421 0,20.661 5.36,37.161 16.06,49.668 10.7,12.442 25.82,18.704 45.37,18.704 14.54,0 26.85,-3.93 36.82,-11.743 10.59,-8.437 17.05,-20.289 19.34,-35.468 h -29.34 c -2.54,13.25 -10.62,19.828 -24.38,19.828 -22.67,0 -34.03,-13.43 -34.03,-40.297 0,-12.602 2.92,-22.883 8.75,-30.891 5.83,-8.043 14.05,-12.062 24.66,-12.062 15.81,0 24.15,7.582 25,22.711 z m -115.49,18.519 c 0,-26.258 8.33,-48.488 24.95,-66.597 16.65,-18.102 37.02,-27.161 61.2,-27.161 24.08,0 44.47,9.059 61.09,27.161 16.67,18.109 24.94,40.339 24.94,66.597 0,26.242 -8.27,48.442 -24.94,66.563 -16.62,18.136 -37.01,27.187 -61.09,27.187 -24.18,0 -44.55,-9.051 -61.2,-27.187 -16.62,-18.121 -24.95,-40.321 -24.95,-66.563 z m -29.8,0 c 0,33.403 11.31,61.922 33.93,85.61 22.66,23.652 50,35.48 82.02,35.48 31.95,0 59.25,-11.828 81.93,-35.48 22.64,-23.688 33.98,-52.207 33.98,-85.61 0,-33.437 -11.34,-62 -33.98,-85.64 -22.68,-23.668 -49.98,-35.508 -81.93,-35.508 -32.02,0 -59.36,11.84 -82.02,35.508 -22.62,23.64 -33.93,52.203 -33.93,85.64"
         style="fill:#2e2825;fill-opacity:1;fill-rule:nonzero;stroke:none"
         transform="matrix(0.13333333,0,0,-0.13333333,0,666.89333)" />
      <path
         id="path26"
         d="m 2149.35,243 16.91,-14.352 124.34,159.672 -16.9,14.328 L 2149.35,243"
         style="fill:#2e2825;fill-opacity:1;fill-rule:nonzero;stroke:none"
         transform="matrix(0.13333333,0,0,-0.13333333,0,666.89333)" />
      <path
         id="path27"
         d="m 2277.61,3769.5 c 1082.62,0 1960.27,-877.63 1960.27,-1960.25 0,-370.24 -102.7,-716.47 -281.08,-1011.859 H 598.422 C 420.043,1092.78 317.359,1439.01 317.359,1809.25 317.359,2891.87 1195,3769.5 2277.61,3769.5"
         style="fill:#fef0d3;fill-opacity:1;fill-rule:evenodd;stroke:none"
         transform="matrix(0.13333333,0,0,-0.13333333,0,666.89333)" />
      <path
         id="path28"
         d="m 2277.62,689.551 c 1151.77,0 2091.15,48.449 2091.15,107.84 0,59.429 -939.38,107.871 -2091.15,107.871 -1151.77,0 -2091.167,-48.442 -2091.167,-107.871 0,-59.391 939.397,-107.84 2091.167,-107.84"
         style="fill:#c22024;fill-opacity:1;fill-rule:evenodd;stroke:none"
         transform="matrix(0.13333333,0,0,-0.13333333,0,666.89333)" />
      <path
         id="path29"
         d="m 3452.55,3387.02 -11.74,179.59 292.86,-47.45 292.86,47.45 -11.75,-179.59 c -382.55,-110.56 -179.69,-110.56 -562.23,0"
         style="fill:#a91c22;fill-opacity:1;fill-rule:evenodd;stroke:none"
         transform="matrix(0.13333333,0,0,-0.13333333,0,666.89333)" />
      <path
         id="path30"
         d="m 540.445,3387.02 -11.754,179.59 292.868,-47.45 292.861,47.45 -11.75,-179.59 c -382.541,-110.56 -179.678,-110.56 -562.225,0"
         style="fill:#a91c22;fill-opacity:1;fill-rule:evenodd;stroke:none"
         transform="matrix(0.13333333,0,0,-0.13333333,0,666.89333)" />
      <path
         id="path31"
         d="M 371.418,3241.02 H 4183.81 v 214.81 H 371.418 v -214.81"
         style="fill:#c22024;fill-opacity:1;fill-rule:evenodd;stroke:none"
         transform="matrix(0.13333333,0,0,-0.13333333,0,666.89333)" />
      <path
         id="path32"
         d="M 816.938,797.391 H 1192.88 V 2723.8 H 816.938 V 797.391"
         style="fill:#c22024;fill-opacity:1;fill-rule:evenodd;stroke:none"
         transform="matrix(0.13333333,0,0,-0.13333333,0,666.89333)" />
      <path
         id="path33"
         d="m 816.941,2723.79 h 375.939 v -380.9 c -32.63,74.91 -98.75,128.35 -177,137.75 -77.661,9.34 -152.22,-26.49 -198.939,-90.96 v 334.11"
         style="fill:#a61c22;fill-opacity:1;fill-rule:evenodd;stroke:none"
         transform="matrix(0.13333333,0,0,-0.13333333,0,666.89333)" />
      <path
         id="path34"
         d="M 758.617,2670.43 H 1251.2 v 220.88 H 758.617 v -220.88"
         style="fill:#2e2825;fill-opacity:1;fill-rule:evenodd;stroke:none"
         transform="matrix(0.13333333,0,0,-0.13333333,0,666.89333)" />
      <path
         id="path35"
         d="M 628.969,797.391 H 1004.91 V 3934.13 H 628.969 V 797.391"
         style="fill:#e42d2e;fill-opacity:1;fill-rule:evenodd;stroke:none"
         transform="matrix(0.13333333,0,0,-0.13333333,0,666.89333)" />
      <path
         id="path36"
         d="m 628.977,3934.13 h 375.933 v -380.91 c -32.629,74.92 -98.75,128.35 -177,137.76 -77.656,9.33 -152.219,-26.51 -198.933,-90.97 v 334.12"
         style="fill:#c22024;fill-opacity:1;fill-rule:evenodd;stroke:none"
         transform="matrix(0.13333333,0,0,-0.13333333,0,666.89333)" />
      <path
         id="path37"
         d="M 450.234,797.391 H 826.176 V 2723.8 H 450.234 V 797.391"
         style="fill:#f04146;fill-opacity:1;fill-rule:evenodd;stroke:none"
         transform="matrix(0.13333333,0,0,-0.13333333,0,666.89333)" />
      <path
         id="path38"
         d="m 450.238,2723.79 h 375.946 v -380.9 c -32.633,74.91 -98.758,128.35 -177.008,137.75 -77.656,9.34 -152.211,-26.49 -198.938,-90.96 v 334.11"
         style="fill:#e42d2e;fill-opacity:1;fill-rule:evenodd;stroke:none"
         transform="matrix(0.13333333,0,0,-0.13333333,0,666.89333)" />
      <path
         id="path39"
         d="m 391.918,2670.43 h 492.59 v 220.88 h -492.59 v -220.88"
         style="fill:#2e2825;fill-opacity:1;fill-rule:evenodd;stroke:none"
         transform="matrix(0.13333333,0,0,-0.13333333,0,666.89333)" />
      <path
         id="path40"
         d="m 3362.35,797.391 h 375.94 V 2723.8 H 3362.35 V 797.391"
         style="fill:#c22024;fill-opacity:1;fill-rule:evenodd;stroke:none"
         transform="matrix(0.13333333,0,0,-0.13333333,0,666.89333)" />
      <path
         id="path41"
         d="m 3738.29,2723.79 h -375.94 v -380.9 c 32.63,74.91 98.76,128.35 177,137.75 77.67,9.34 152.22,-26.49 198.94,-90.96 v 334.11"
         style="fill:#a61c22;fill-opacity:1;fill-rule:evenodd;stroke:none"
         transform="matrix(0.13333333,0,0,-0.13333333,0,666.89333)" />
      <path
         id="path42"
         d="m 3304.03,2670.43 h 492.59 v 220.88 h -492.59 v -220.88"
         style="fill:#2e2825;fill-opacity:1;fill-rule:evenodd;stroke:none"
         transform="matrix(0.13333333,0,0,-0.13333333,0,666.89333)" />
      <path
         id="path43"
         d="m 3550.32,797.391 h 375.93 V 3934.13 H 3550.32 V 797.391"
         style="fill:#e42d2e;fill-opacity:1;fill-rule:evenodd;stroke:none"
         transform="matrix(0.13333333,0,0,-0.13333333,0,666.89333)" />
      <path
         id="path44"
         d="m 3926.25,3934.13 h -375.93 v -380.91 c 32.62,74.92 98.75,128.35 177,137.76 77.67,9.33 152.22,-26.51 198.93,-90.97 v 334.12"
         style="fill:#c22024;fill-opacity:1;fill-rule:evenodd;stroke:none"
         transform="matrix(0.13333333,0,0,-0.13333333,0,666.89333)" />
      <path
         id="path45"
         d="m 3729.06,797.391 h 375.93 V 2723.8 H 3729.06 V 797.391"
         style="fill:#f04146;fill-opacity:1;fill-rule:evenodd;stroke:none"
         transform="matrix(0.13333333,0,0,-0.13333333,0,666.89333)" />
      <path
         id="path46"
         d="m 4104.99,2723.79 h -375.93 v -380.9 c 32.62,74.91 98.74,128.35 176.99,137.75 77.66,9.34 152.22,-26.49 198.94,-90.96 v 334.11"
         style="fill:#e42d2e;fill-opacity:1;fill-rule:evenodd;stroke:none"
         transform="matrix(0.13333333,0,0,-0.13333333,0,666.89333)" />
      <path
         id="path47"
         d="m 3670.73,2670.43 h 492.59 v 220.88 h -492.59 v -220.88"
         style="fill:#2e2825;fill-opacity:1;fill-rule:evenodd;stroke:none"
         transform="matrix(0.13333333,0,0,-0.13333333,0,666.89333)" />
      <path
         id="path48"
         d="M 350.922,4352.02 H 4204.31 v -241.67 c 0,-132.92 -108.76,-241.67 -241.68,-241.67 H 592.602 c -132.918,0 -241.68,108.75 -241.68,241.67 v 241.67"
         style="fill:#e42d2e;fill-opacity:1;fill-rule:evenodd;stroke:none"
         transform="matrix(0.13333333,0,0,-0.13333333,0,666.89333)" />
      <path
         id="path49"
         d="m 1040.87,4657.47 c -206.124,0 -408.608,54.26 -587.108,157.32 l -248.688,164.92 c -45.25,30 -104.254,29.26 -148.7302,-1.87 C 11.8594,4946.7 -9.03125,4891.52 3.67578,4838.73 46.0977,4662.46 120.016,4495.3 221.855,4345.3 c 106,-156.12 277.598,-255.19 465.813,-268.93 590.042,0 2589.842,0 3179.882,0 188.23,13.74 359.82,112.81 465.82,268.93 101.84,150 175.76,317.16 218.18,493.43 12.71,52.79 -8.19,107.98 -52.67,139.11 -44.46,31.13 -103.47,31.87 -148.73,1.87 l -248.68,-164.92 c -178.51,-103.06 -381,-157.32 -587.11,-157.32 -354.57,0 -2118.92,0 -2473.49,0"
         style="fill:#463c3b;fill-opacity:1;fill-rule:evenodd;stroke:none"
         transform="matrix(0.13333333,0,0,-0.13333333,0,666.89333)" />
      <path
         id="path50"
         d="m 110.383,4539.04 c 32.238,-67.13 69.476,-131.89 111.472,-193.74 106,-156.12 277.598,-255.19 465.813,-268.93 590.042,0 2589.842,0 3179.882,0 188.23,13.74 359.82,112.81 465.82,268.93 42,61.85 79.23,126.61 111.48,193.74 -32.24,-35.06 -69.48,-68.89 -111.48,-101.19 -106,-81.56 -277.59,-133.31 -465.82,-140.49 -590.04,0 -2589.84,0 -3179.882,0 -188.215,7.18 -359.813,58.93 -465.813,140.49 -41.992,32.3 -79.234,66.13 -111.472,101.19"
         style="fill:#2e2825;fill-opacity:1;fill-rule:evenodd;stroke:none"
         transform="matrix(0.13333333,0,0,-0.13333333,0,666.89333)" />
      <path
         id="path51"
         d="m 2357.69,2204.61 c -12.33,0 -24.71,-16.26 -27.62,-36.3 -2.92,-20.04 4.72,-36.3 17.05,-36.3 12.35,0 24.71,16.26 27.62,36.3 2.92,20.04 -4.72,36.3 -17.05,36.3 z m -160.15,0 c 12.35,0 24.71,-16.26 27.62,-36.3 2.92,-20.04 -4.72,-36.3 -17.05,-36.3 -12.34,0 -24.71,16.26 -27.63,36.3 -2.91,20.04 4.73,36.3 17.06,36.3 v 0"
         style="fill:#d66639;fill-opacity:1;fill-rule:evenodd;stroke:none"
         transform="matrix(0.13333333,0,0,-0.13333333,0,666.89333)" />
      <path
         id="path52"
         d="m 2196.42,1259.86 h 0.01 c 44.65,0 81.19,-36.53 81.19,-81.18 V 878.602 c 0,-44.661 -36.54,-81.211 -81.19,-81.211 h -0.01 c -44.66,0 -81.2,36.55 -81.2,81.211 v 300.078 c 0,44.65 36.54,81.18 81.2,81.18"
         style="fill:#2e2825;fill-opacity:1;fill-rule:evenodd;stroke:none"
         transform="matrix(0.13333333,0,0,-0.13333333,0,666.89333)" />
      <path
         id="path53"
         d="m 2277.61,2054.52 h 0.01 c 109.88,0 199.8,-89.92 199.8,-199.79 v -626.29 c 0,-109.89 -89.92,-199.8 -199.8,-199.8 h -0.01 c -109.89,0 -199.8,89.91 -199.8,199.8 v 626.29 c 0,109.87 89.91,199.79 199.8,199.79"
         style="fill:#2e2825;fill-opacity:1;fill-rule:evenodd;stroke:none"
         transform="matrix(0.13333333,0,0,-0.13333333,0,666.89333)" />
      <path
         id="path54"
         d="M 2124.81,1983.11 1959.2,1773.13 c -20.77,-26.36 -25.86,-61.8 -13.32,-92.92 12.52,-31.12 40.76,-53.15 74,-57.74 h 145.4 c 37.18,0 67.68,29.4 69.1,66.54 1.4,37.13 -26.81,68.75 -63.87,71.55 h -92.7 v 94.17 c 0.65,45.23 15.25,88.12 47,128.38"
         style="fill:#463c3b;fill-opacity:1;fill-rule:evenodd;stroke:none"
         transform="matrix(0.13333333,0,0,-0.13333333,0,666.89333)" />
      <path
         id="path55"
         d="m 2224.14,1662.18 c 35.13,0 63.8,28.67 63.8,63.81 0,35.16 -28.67,63.81 -63.8,63.81 -35.16,0 -63.82,-28.65 -63.82,-63.81 0,-35.14 28.66,-63.81 63.82,-63.81"
         style="fill:#f28f61;fill-opacity:1;fill-rule:evenodd;stroke:none"
         transform="matrix(0.13333333,0,0,-0.13333333,0,666.89333)" />
      <path
         id="path56"
         d="m 2430.42,1983.11 165.61,-209.98 c 20.77,-26.36 25.86,-61.8 13.33,-92.92 -12.54,-31.12 -40.77,-53.15 -74,-57.74 h -145.41 c -37.17,0 -67.7,29.4 -69.1,66.54 -1.4,37.13 26.81,68.75 63.87,71.55 h 92.7 v 94.17 c -0.67,45.23 -15.25,88.12 -47,128.38"
         style="fill:#463c3b;fill-opacity:1;fill-rule:evenodd;stroke:none"
         transform="matrix(0.13333333,0,0,-0.13333333,0,666.89333)" />
      <path
         id="path57"
         d="m 2331.11,1662.18 c 35.14,0 63.81,28.67 63.81,63.81 0,35.16 -28.67,63.81 -63.81,63.81 -35.16,0 -63.82,-28.65 -63.82,-63.81 0,-35.14 28.66,-63.81 63.82,-63.81"
         style="fill:#f28f61;fill-opacity:1;fill-rule:evenodd;stroke:none"
         transform="matrix(0.13333333,0,0,-0.13333333,0,666.89333)" />
      <path
         id="path58"
         d="m 2156.46,908.02 c 50.76,0 91.93,-49.52 91.93,-110.629 h -183.87 c 0,61.109 41.16,110.629 91.94,110.629"
         style="fill:#2e2825;fill-opacity:1;fill-rule:evenodd;stroke:none"
         transform="matrix(0.13333333,0,0,-0.13333333,0,666.89333)" />
      <path
         id="path59"
         d="m 2361.76,1259.86 h -0.01 c -44.66,0 -78.01,-36.53 -74.13,-81.18 l 26.12,-300.078 c 3.88,-44.661 43.6,-81.211 88.27,-81.211 v 0 c 44.66,0 78.02,36.55 74.13,81.211 l -26.12,300.078 c -3.88,44.65 -43.59,81.18 -88.26,81.18"
         style="fill:#2e2825;fill-opacity:1;fill-rule:evenodd;stroke:none"
         transform="matrix(0.13333333,0,0,-0.13333333,0,666.89333)" />
      <path
         id="path60"
         d="m 2432.34,908.02 c -50.77,0 -87.62,-49.52 -82.32,-110.629 h 183.88 c -5.32,61.109 -50.79,110.629 -101.56,110.629"
         style="fill:#2e2825;fill-opacity:1;fill-rule:evenodd;stroke:none"
         transform="matrix(0.13333333,0,0,-0.13333333,0,666.89333)" />
      <path
         id="path61"
         d="m 2230.57,2089.66 h 94.1 c 20.13,0 36.59,-16.48 36.59,-36.6 v -166.62 c 0,-46.01 -37.64,-83.66 -83.64,-83.66 h -0.01 c -46,0 -83.63,37.65 -83.63,83.66 v 166.62 c 0,20.12 16.45,36.6 36.59,36.6"
         style="fill:#463c3b;fill-opacity:1;fill-rule:evenodd;stroke:none"
         transform="matrix(0.13333333,0,0,-0.13333333,0,666.89333)" />
      <path
         id="path62"
         d="m 2234.43,2105.92 h 86.39 v -85.42 c 0,-23.75 -19.45,-43.18 -43.2,-43.18 v 0 c -23.75,0 -43.19,19.43 -43.19,43.18 v 85.42"
         style="fill:#f28f61;fill-opacity:1;fill-rule:evenodd;stroke:none"
         transform="matrix(0.13333333,0,0,-0.13333333,0,666.89333)" />
      <path
         id="path63"
         d="m 2234.43,2105.92 h 86.38 v -85.42 c 0,-1.96 -0.15,-3.92 -0.39,-5.81 -0.79,-0.02 -1.57,-0.02 -2.34,-0.02 v 0 c -46.01,0 -83.65,37.63 -83.65,83.62 v 7.63"
         style="fill:#d66639;fill-opacity:1;fill-rule:evenodd;stroke:none"
         transform="matrix(0.13333333,0,0,-0.13333333,0,666.89333)" />
      <path
         id="path64"
         d="m 2193.98,2239.05 h 167.28 v -113.79 c 0,-46.02 -37.64,-83.65 -83.64,-83.65 h -0.01 c -46,0 -83.63,37.63 -83.63,83.65 v 113.79"
         style="fill:#f28f61;fill-opacity:1;fill-rule:evenodd;stroke:none"
         transform="matrix(0.13333333,0,0,-0.13333333,0,666.89333)" />
      <path
         id="path65"
         d="m 2314.54,2099.24 c -0.86,-19.58 -17.14,-35.32 -36.92,-35.32 v 0 c -19.79,0 -36.07,15.74 -36.92,35.32 h 73.84"
         style="fill:#ffffff;fill-opacity:1;fill-rule:evenodd;stroke:none"
         transform="matrix(0.13333333,0,0,-0.13333333,0,666.89333)" />
      <path
         id="path66"
         d="m 2361.26,2182.17 14.31,56.88 c 4.69,18.69 0.55,38.48 -11.24,53.7 -11.79,15.22 -29.93,24.18 -49.18,24.29 h -37.53 -0.01 -37.52 c -19.26,-0.11 -37.39,-9.07 -49.19,-24.29 -11.78,-15.22 -15.93,-35.01 -11.24,-53.7 l 14.32,-56.88 11.69,45.91 c 16.85,-8.61 35.66,-12.65 54.55,-11.73 l 17.39,0.83 17.39,-0.83 c 18.91,-0.92 37.71,3.12 54.56,11.73 l 11.7,-45.91"
         style="fill:#2e2825;fill-opacity:1;fill-rule:evenodd;stroke:none"
         transform="matrix(0.13333333,0,0,-0.13333333,0,666.89333)" />
    </g>
  </g>
</svg>
