<?xml version="1.0" encoding="UTF-8" standalone="no"?>
<!-- Created with Inkscape (http://www.inkscape.org/) -->

<svg
   version="1.1"
   id="svg1"
   width="809.44"
   height="698.62665"
   viewBox="0 0 809.44 698.62665"
   sodipodi:docname="man-eating-noodles-publicdomainvectors.org.svg"
   inkscape:version="1.3.2 (091e20ef0f, 2023-11-25, custom)"
   xmlns:inkscape="http://www.inkscape.org/namespaces/inkscape"
   xmlns:sodipodi="http://sodipodi.sourceforge.net/DTD/sodipodi-0.dtd"
   xmlns="http://www.w3.org/2000/svg"
   xmlns:svg="http://www.w3.org/2000/svg">
  <defs
     id="defs1" />
  <sodipodi:namedview
     id="namedview1"
     pagecolor="#505050"
     bordercolor="#ffffff"
     borderopacity="1"
     inkscape:showpageshadow="0"
     inkscape:pageopacity="0"
     inkscape:pagecheckerboard="1"
     inkscape:deskcolor="#d1d1d1"
     inkscape:zoom="0.79190551"
     inkscape:cx="404.72"
     inkscape:cy="349.78921"
     inkscape:window-width="1920"
     inkscape:window-height="1002"
     inkscape:window-x="0"
     inkscape:window-y="0"
     inkscape:window-maximized="1"
     inkscape:current-layer="g1">
    <inkscape:page
       x="0"
       y="0"
       inkscape:label="1"
       id="page1"
       width="809.44"
       height="698.62665"
       margin="0"
       bleed="0" />
  </sodipodi:namedview>
  <g
     id="g1"
     inkscape:groupmode="layer"
     inkscape:label="1">
    <g
       id="group-R5">
      <path
         id="path2"
         d="m 2156.56,90.5195 c 0,6.7813 -0.96,12.6095 -2.98,17.4215 -1.94,4.879 -4.69,8.59 -8.22,11.231 -3.51,2.578 -7.38,3.91 -11.66,3.91 -6.77,0 -12.47,-2.863 -17.14,-8.402 -4.67,-5.598 -6.98,-13.75 -6.98,-24.6097 0,-10.2109 2.31,-18.1289 6.92,-23.7617 4.64,-5.6563 10.38,-8.5391 17.2,-8.5391 4.09,0 7.87,1.25 11.37,3.75 3.44,2.461 6.24,6.1602 8.34,11.0821 2.12,4.9804 3.15,10.9297 3.15,17.9179 z m -48.13,37.3395 v -3.089 c 4.62,5.941 9.4,10.332 14.37,13.089 4.99,2.801 10.66,4.223 16.96,4.223 7.53,0 14.5,-2.062 20.87,-6.16 6.34,-4.043 11.35,-9.961 15.06,-17.801 3.69,-7.851 5.51,-17.082 5.51,-27.8007 0,-7.8789 -1.03,-15.1914 -3.17,-21.7109 -2.12,-6.6289 -5.05,-12.1797 -8.77,-16.6485 -3.72,-4.4804 -8.13,-7.9492 -13.18,-10.3125 -5.09,-2.4492 -10.54,-3.6367 -16.32,-3.6367 -7.05,0 -12.95,1.461 -17.71,4.4102 -4.8,2.9297 -9.32,7.2187 -13.62,12.9375 V 16.9023 C 2108.43,5.60156 2104.5,0 2096.65,0 c -4.63,0 -7.69,1.42188 -9.16,4.33984 -1.5,2.92969 -2.25,7.17186 -2.25,12.71876 V 127.699 c 0,4.852 0.99,8.531 3.05,10.922 2.06,2.399 4.84,3.641 8.36,3.641 3.47,0 6.32,-1.242 8.5,-3.742 2.18,-2.508 3.28,-6.071 3.28,-10.661"
         style="fill:#231f20;fill-opacity:1;fill-rule:nonzero;stroke:none"
         transform="matrix(0.13333333,0,0,-0.13333333,0,698.62667)" />
      <path
         id="path3"
         d="m 2264.75,52.4922 v 3.2695 c -2.97,-3.9023 -6.04,-7.1211 -9.3,-9.7226 -3.24,-2.6993 -6.78,-4.6368 -10.6,-5.9102 -3.85,-1.2578 -8.24,-1.9062 -13.14,-1.9062 -5.93,0 -11.25,1.2968 -15.96,3.8164 -4.72,2.582 -8.35,6.1211 -10.92,10.6211 -3.09,5.4492 -4.61,13.2695 -4.61,23.4296 v 50.8122 c 0,5.098 1.12,8.95 3.35,11.45 2.21,2.55 5.14,3.847 8.79,3.847 3.74,0 6.73,-1.297 9.01,-3.89 2.27,-2.559 3.41,-6.399 3.41,-11.407 V 85.8516 c 0,-5.9102 0.48,-10.9024 1.39,-14.9297 1.01,-4.0625 2.72,-7.2227 5.26,-9.5196 2.44,-2.2734 5.81,-3.4023 10.06,-3.4023 4.18,0 8.09,1.3008 11.7,3.8594 3.7,2.5508 6.37,5.8711 8.03,9.9922 1.4,3.6601 2.07,11.6093 2.07,23.8789 v 31.1715 c 0,5.008 1.13,8.848 3.42,11.407 2.26,2.593 5.22,3.89 8.88,3.89 3.67,0 6.6,-1.297 8.81,-3.847 2.22,-2.5 3.31,-6.352 3.31,-11.45 V 52.6602 c 0,-4.8789 -1.04,-8.5586 -3.18,-10.9688 -2.09,-2.4726 -4.84,-3.6601 -8.21,-3.6601 -3.34,0 -6.11,1.289 -8.3,3.7773 -2.19,2.5703 -3.27,6.0703 -3.27,10.6836"
         style="fill:#231f20;fill-opacity:1;fill-rule:nonzero;stroke:none"
         transform="matrix(0.13333333,0,0,-0.13333333,0,698.62667)" />
      <path
         id="path4"
         d="m 2335.97,89.5117 c 0,-10.1914 2.22,-18.0117 6.67,-23.5117 4.48,-5.4492 10.33,-8.2305 17.6,-8.2305 6.21,0 11.49,2.8203 16,8.4219 4.48,5.6094 6.69,13.5781 6.69,24.0508 0,6.8281 -0.93,12.6368 -2.77,17.4878 -1.88,4.891 -4.55,8.68 -7.92,11.34 -3.47,2.621 -7.43,4.012 -12,4.012 -4.7,0 -8.82,-1.391 -12.5,-4.012 -3.67,-2.66 -6.53,-6.55 -8.64,-11.57 -2.1,-5 -3.13,-10.9883 -3.13,-17.9883 z m -1.18,76.1683 v -39.16 c 4.58,5.062 9.31,8.839 14.11,11.55 4.79,2.66 10.75,4.012 17.82,4.012 8.14,0 15.28,-2.062 21.45,-6.07 6.13,-4.102 10.93,-9.91 14.3,-17.571 3.41,-7.671 5.08,-16.742 5.08,-27.2496 0,-7.8008 -0.93,-14.9101 -2.8,-21.4101 -1.91,-6.4727 -4.63,-12.0508 -8.23,-16.8399 -3.62,-4.75 -7.98,-8.3828 -13.1,-11.0703 -5.14,-2.5508 -10.8,-3.8594 -16.96,-3.8594 -3.77,0 -7.32,0.4688 -10.68,1.418 -3.34,0.9297 -6.18,2.1406 -8.48,3.7109 -2.36,1.4805 -4.35,3.0782 -6,4.6914 -1.66,1.6485 -3.8,4.0782 -6.51,7.3282 v -2.5 c 0,-4.8594 -1.12,-8.5 -3.35,-10.9688 -2.2,-2.4726 -5.04,-3.6797 -8.43,-3.6797 -3.5,0 -6.24,1.2071 -8.35,3.6797 -2.06,2.5508 -3.08,6.1406 -3.08,10.9688 V 164.57 c 0,5.149 1,9.09 3.02,11.731 2.01,2.691 4.78,4.012 8.41,4.012 3.74,0 6.68,-1.282 8.7,-3.833 2.05,-2.519 3.08,-6.101 3.08,-10.8"
         style="fill:#231f20;fill-opacity:1;fill-rule:nonzero;stroke:none"
         transform="matrix(0.13333333,0,0,-0.13333333,0,698.62667)" />
      <path
         id="path5"
         d="M 2424.89,53.6016 V 164.73 c 0,5.161 1.09,9.012 3.27,11.649 2.2,2.613 5.15,3.934 8.86,3.934 3.72,0 6.71,-1.293 9.01,-3.915 2.24,-2.578 3.4,-6.496 3.4,-11.668 V 53.6016 c 0,-5.1797 -1.18,-9.1016 -3.46,-11.7305 -2.31,-2.5508 -5.3,-3.8594 -8.95,-3.8594 -3.59,0 -6.49,1.3399 -8.75,4.0274 -2.26,2.7226 -3.38,6.5429 -3.38,11.5625"
         style="fill:#231f20;fill-opacity:1;fill-rule:nonzero;stroke:none"
         transform="matrix(0.13333333,0,0,-0.13333333,0,698.62667)" />
      <path
         id="path6"
         d="M 2499.34,127.609 V 53.6016 c 0,-5.1719 -1.19,-9.043 -3.49,-11.6719 -2.34,-2.5781 -5.33,-3.918 -8.91,-3.918 -3.61,0 -6.52,1.3399 -8.76,4.0196 -2.24,2.7304 -3.39,6.5507 -3.39,11.5703 v 73.3004 c 0,5.008 1.15,8.848 3.39,11.407 2.24,2.593 5.15,3.89 8.76,3.89 3.58,0 6.57,-1.297 8.91,-3.89 2.3,-2.559 3.49,-6.098 3.49,-10.7 z m -12.16,26.52 c -3.39,0 -6.31,1.07 -8.78,3.332 -2.36,2.168 -3.61,5.32 -3.61,9.309 0,3.609 1.25,6.562 3.74,8.98 2.46,2.332 5.36,3.441 8.65,3.441 3.2,0 6.02,-1.031 8.48,-3.152 2.44,-2.117 3.68,-5.258 3.68,-9.269 0,-3.981 -1.21,-7.04 -3.59,-9.25 -2.41,-2.219 -5.24,-3.391 -8.57,-3.391"
         style="fill:#231f20;fill-opacity:1;fill-rule:nonzero;stroke:none"
         transform="matrix(0.13333333,0,0,-0.13333333,0,698.62667)" />
      <path
         id="path7"
         d="m 2612.66,69.7422 c 0,-3.1797 -0.9,-6.6016 -2.71,-10.2227 -1.87,-3.6406 -4.65,-7.0781 -8.41,-10.3711 -3.73,-3.2773 -8.45,-5.9179 -14.14,-7.8984 -5.69,-2.0508 -12.13,-3.0273 -19.24,-3.0273 -15.19,0 -27.01,4.6171 -35.54,13.8086 -8.51,9.2695 -12.76,21.6093 -12.76,37.1289 0,10.5 1.94,19.8318 5.81,27.8708 3.91,8.039 9.57,14.321 16.93,18.719 7.35,4.43 16.18,6.629 26.41,6.629 6.38,0 12.23,-0.988 17.53,-2.887 5.31,-1.961 9.8,-4.492 13.47,-7.512 3.7,-3.07 6.5,-6.339 8.48,-9.808 1.98,-3.473 2.91,-6.723 2.91,-9.723 0,-3.027 -1.12,-5.609 -3.27,-7.769 -2.2,-2.149 -4.83,-3.211 -7.96,-3.211 -2.06,0 -3.74,0.601 -5.11,1.703 -1.31,1.039 -2.86,2.769 -4.52,5.258 -3.01,4.73 -6.14,8.312 -9.41,10.742 -3.28,2.359 -7.43,3.598 -12.42,3.598 -7.29,0 -13.15,-3.008 -17.58,-8.911 -4.44,-5.961 -6.64,-14.0387 -6.64,-24.2887 0,-4.8008 0.58,-9.289 1.71,-13.3203 1.14,-4.0312 2.8,-7.4414 4.93,-10.3203 2.17,-2.8477 4.76,-5 7.84,-6.4492 3.05,-1.4883 6.42,-2.2383 10.04,-2.2383 4.96,0 9.15,1.168 12.66,3.5664 3.52,2.4023 6.63,6.0312 9.29,10.8633 1.54,2.9297 3.14,5.1679 4.89,6.8398 1.74,1.5977 3.87,2.3789 6.38,2.3789 3,0 5.49,-1.1601 7.48,-3.5117 1.94,-2.4297 2.95,-4.9492 2.95,-7.6367"
         style="fill:#231f20;fill-opacity:1;fill-rule:nonzero;stroke:none"
         transform="matrix(0.13333333,0,0,-0.13333333,0,698.62667)" />
      <path
         id="path8"
         d="m 2653.11,90.2422 c 0,-6.9414 1.03,-12.8203 3.1,-17.7422 2.07,-4.8906 4.87,-8.5195 8.45,-10.9805 3.64,-2.5 7.55,-3.75 11.77,-3.75 4.35,0 8.28,1.1993 11.84,3.5313 3.57,2.3594 6.4,5.9609 8.56,10.8008 2.12,4.8476 3.17,10.9101 3.17,18.1406 0,6.8476 -1.05,12.6988 -3.17,17.6168 -2.16,4.961 -5.01,8.672 -8.65,11.313 -3.62,2.578 -7.58,3.91 -11.89,3.91 -4.48,0 -8.49,-1.391 -12.05,-4.012 -3.51,-2.66 -6.27,-6.5 -8.21,-11.488 -1.94,-5 -2.92,-10.7031 -2.92,-17.3398 z m 48.24,-37.582 v 2.5 c -3.28,-3.9493 -6.54,-7.1407 -9.77,-9.6016 -3.17,-2.4766 -6.67,-4.3594 -10.41,-5.6484 -3.73,-1.2305 -7.84,-1.8985 -12.27,-1.8985 -5.85,0 -11.33,1.3086 -16.32,3.8594 -4.98,2.6875 -9.32,6.3516 -12.98,11.168 -3.65,4.8007 -6.42,10.4804 -8.33,17 -1.9,6.4804 -2.83,13.5312 -2.83,21.1523 0,15.9606 3.76,28.4996 11.24,37.4606 7.51,8.938 17.37,13.43 29.58,13.43 7.08,0 13.06,-1.301 17.89,-3.883 4.85,-2.488 9.6,-6.41 14.2,-11.679 v 37.832 c 0,5.269 1.01,9.23 3.03,11.91 2,2.707 4.84,4.051 8.56,4.051 3.73,0 6.57,-1.231 8.61,-3.692 2,-2.461 3.04,-6.141 3.04,-10.941 V 52.6602 c 0,-4.8789 -1.1,-8.5586 -3.27,-10.9688 -2.15,-2.4726 -4.94,-3.6797 -8.38,-3.6797 -3.31,0 -6.11,1.25 -8.32,3.7969 -2.18,2.5 -3.27,6.0898 -3.27,10.8516"
         style="fill:#231f20;fill-opacity:1;fill-rule:nonzero;stroke:none"
         transform="matrix(0.13333333,0,0,-0.13333333,0,698.62667)" />
      <path
         id="path9"
         d="m 2816.49,90.0508 c 0,10.3982 -2.22,18.5582 -6.64,24.3712 -4.4,5.797 -10.33,8.75 -17.75,8.75 -4.82,0 -9.02,-1.332 -12.7,-3.922 -3.63,-2.621 -6.46,-6.43 -8.43,-11.52 -1.99,-5.011 -2.98,-10.9097 -2.98,-17.6792 0,-6.6992 0.99,-12.5508 2.93,-17.5508 1.95,-4.9883 4.74,-8.8086 8.39,-11.5078 3.59,-2.6211 7.91,-3.9336 12.79,-3.9336 7.42,0 13.35,2.8906 17.75,8.7422 4.42,5.8203 6.64,13.9297 6.64,24.25 z m 24.63,0 c 0,-7.6094 -1.14,-14.6406 -3.42,-21.1406 -2.28,-6.3789 -5.56,-11.9297 -9.87,-16.5782 -4.33,-4.6406 -9.49,-8.0898 -15.49,-10.6406 -5.99,-2.4726 -12.78,-3.6797 -20.24,-3.6797 -7.43,0 -14.1,1.2071 -20.05,3.7578 -5.94,2.4805 -11.08,6.0625 -15.43,10.7227 -4.34,4.6875 -7.63,10.1601 -9.91,16.5078 -2.24,6.3789 -3.34,13.3711 -3.34,21.0898 0,7.7618 1.14,14.8592 3.4,21.2692 2.29,6.473 5.54,11.95 9.79,16.563 4.27,4.527 9.42,8.078 15.49,10.539 6.08,2.461 12.74,3.738 20.05,3.738 7.45,0 14.2,-1.277 20.24,-3.777 6.04,-2.512 11.23,-6.102 15.55,-10.723 4.32,-4.617 7.6,-10.16 9.82,-16.539 2.3,-6.359 3.41,-13.4178 3.41,-21.1092"
         style="fill:#231f20;fill-opacity:1;fill-rule:nonzero;stroke:none"
         transform="matrix(0.13333333,0,0,-0.13333333,0,698.62667)" />
      <path
         id="path10"
         d="m 2944.81,111.199 c -1.82,-4.328 -2.71,-11.949 -2.71,-22.9568 V 54.1797 c 0,-5.3594 -1.15,-9.418 -3.53,-12.1406 -2.32,-2.6875 -5.43,-4.0274 -9.26,-4.0274 -3.7,0 -6.7,1.3399 -8.99,4.0274 -2.31,2.7226 -3.45,6.7812 -3.45,12.1406 v 40.8516 c 0,6.4377 -0.24,11.4487 -0.67,15.0507 -0.43,3.539 -1.56,6.488 -3.41,8.77 -1.82,2.3 -4.79,3.449 -8.79,3.449 -8.02,0 -13.29,-2.879 -15.87,-8.68 -2.55,-5.762 -3.79,-14.0194 -3.79,-24.8007 V 54.1797 c 0,-5.3477 -1.18,-9.3789 -3.46,-12.0508 -2.32,-2.7773 -5.37,-4.1172 -9.11,-4.1172 -3.74,0 -6.81,1.3399 -9.16,4.1172 -2.38,2.6719 -3.52,6.7031 -3.52,12.0117 v 73.3514 c 0,4.828 1.02,8.508 3.13,10.977 2.16,2.492 4.95,3.793 8.44,3.793 3.35,0 6.16,-1.18 8.4,-3.532 2.25,-2.332 3.37,-5.55 3.37,-9.699 v -2.441 c 4.24,5.32 8.82,9.25 13.65,11.719 4.85,2.48 10.31,3.773 16.2,3.773 6.17,0 11.43,-1.301 15.88,-3.883 4.47,-2.547 8.09,-6.449 10.96,-11.609 4.14,5.199 8.59,9.16 13.33,11.672 4.75,2.527 9.97,3.82 15.72,3.82 6.75,0 12.51,-1.352 17.36,-4.152 4.87,-2.77 8.48,-6.68 10.89,-11.828 2.11,-4.622 3.14,-11.911 3.14,-21.891 V 54.1797 c 0,-5.3594 -1.16,-9.418 -3.48,-12.1406 -2.37,-2.6875 -5.44,-4.0274 -9.28,-4.0274 -3.72,0 -6.77,1.3399 -9.11,4.1172 -2.4,2.6719 -3.59,6.7031 -3.59,12.0508 v 43.1211 c 0,5.5002 -0.23,9.8902 -0.67,13.2382 -0.44,3.34 -1.66,6.09 -3.65,8.363 -1.97,2.25 -4.99,3.399 -8.97,3.399 -3.23,0 -6.32,-1.039 -9.19,-2.992 -2.96,-2.028 -5.17,-4.727 -6.81,-8.11 v 0"
         style="fill:#231f20;fill-opacity:1;fill-rule:nonzero;stroke:none"
         transform="matrix(0.13333333,0,0,-0.13333333,0,698.62667)" />
      <path
         id="path11"
         d="m 3083.85,89.5703 c -3.61,-1.418 -8.85,-2.8515 -15.72,-4.4101 -6.86,-1.5196 -11.62,-2.6211 -14.27,-3.3711 -2.64,-0.7383 -5.14,-2.1172 -7.53,-4.2071 -2.42,-2.1601 -3.62,-5.082 -3.62,-8.8398 0,-3.8906 1.42,-7.1719 4.24,-9.8828 2.82,-2.7696 6.51,-4.1094 11.07,-4.1094 4.85,0 9.35,1.1289 13.45,3.3594 4.12,2.2109 7.13,5.1015 9.03,8.5703 2.22,3.8906 3.35,10.2695 3.35,19.2305 z m 1.6,-37.1289 c -5.95,-4.8203 -11.69,-8.4297 -17.23,-10.793 -5.53,-2.4492 -11.77,-3.6367 -18.64,-3.6367 -6.33,0 -11.83,1.3086 -16.61,3.8594 -4.78,2.6289 -8.45,6.1484 -11.03,10.6211 -2.57,4.4492 -3.88,9.2266 -3.88,14.4492 0,7 2.18,12.9609 6.42,17.9297 4.23,4.8906 10.07,8.2109 17.5,9.9297 1.56,0.3711 5.45,1.1914 11.61,2.5 6.21,1.3515 11.47,2.5195 15.93,3.6292 4.37,1.062 9.18,2.39 14.33,3.949 -0.33,6.801 -1.62,11.75 -3.9,14.961 -2.33,3.129 -7.15,4.691 -14.38,4.691 -6.25,0 -10.92,-0.871 -14.11,-2.722 -3.13,-1.77 -5.83,-4.528 -8.06,-8.188 -2.27,-3.621 -3.83,-6.012 -4.76,-7.18 -0.95,-1.16 -2.96,-1.691 -5.98,-1.691 -2.79,0 -5.15,0.902 -7.13,2.719 -2.04,1.871 -3.05,4.211 -3.05,7.113 0,4.508 1.55,8.91 4.6,13.117 3.06,4.281 7.82,7.77 14.3,10.563 6.46,2.758 14.54,4.117 24.19,4.117 10.78,0 19.28,-1.359 25.49,-4.027 6.16,-2.602 10.49,-6.77 13.05,-12.59 2.56,-5.723 3.84,-13.403 3.84,-22.883 0,-6.0001 0,-11.1602 -0.05,-15.3087 -0.06,-4.2187 -0.06,-8.8789 -0.14,-14.0078 0,-4.8203 0.76,-9.8633 2.3,-15.043 1.5,-5.2109 2.27,-8.6093 2.27,-10.0898 0,-2.6211 -1.22,-5.0508 -3.56,-7.1797 -2.32,-2.1406 -5.02,-3.2383 -8.01,-3.2383 -2.54,0 -4.99,1.2071 -7.49,3.6797 -2.44,2.4688 -5.06,6.0899 -7.82,10.75"
         style="fill:#231f20;fill-opacity:1;fill-rule:nonzero;stroke:none"
         transform="matrix(0.13333333,0,0,-0.13333333,0,698.62667)" />
      <path
         id="path12"
         d="M 3157.45,127.609 V 53.6016 c 0,-5.1719 -1.2,-9.043 -3.51,-11.6719 -2.33,-2.5781 -5.28,-3.918 -8.88,-3.918 -3.6,0 -6.56,1.3399 -8.79,4.0196 -2.26,2.7304 -3.37,6.5507 -3.37,11.5703 v 73.3004 c 0,5.008 1.11,8.848 3.37,11.407 2.23,2.593 5.19,3.89 8.79,3.89 3.6,0 6.55,-1.297 8.88,-3.89 2.31,-2.559 3.51,-6.098 3.51,-10.7 z m -12.15,26.52 c -3.39,0 -6.29,1.07 -8.74,3.332 -2.43,2.168 -3.66,5.32 -3.66,9.309 0,3.609 1.26,6.562 3.76,8.98 2.47,2.332 5.37,3.441 8.64,3.441 3.16,0 6.01,-1.031 8.48,-3.152 2.42,-2.117 3.67,-5.258 3.67,-9.269 0,-3.981 -1.2,-7.04 -3.6,-9.25 -2.41,-2.219 -5.25,-3.391 -8.55,-3.391"
         style="fill:#231f20;fill-opacity:1;fill-rule:nonzero;stroke:none"
         transform="matrix(0.13333333,0,0,-0.13333333,0,698.62667)" />
      <path
         id="path13"
         d="m 3205.14,127.992 v -3.062 c 4.27,5.91 9.02,10.289 14.11,13.05 5.15,2.801 11.02,4.219 17.74,4.219 6.43,0 12.22,-1.469 17.36,-4.457 5.05,-2.91 8.89,-7.031 11.39,-12.422 1.61,-3.148 2.63,-6.57 3.14,-10.16 0.45,-3.621 0.73,-8.238 0.73,-13.898 V 53.6016 c 0,-5.1719 -1.17,-9.043 -3.38,-11.6719 -2.26,-2.5781 -5.19,-3.918 -8.76,-3.918 -3.65,0 -6.64,1.3399 -8.84,4.0274 -2.3,2.7226 -3.47,6.5429 -3.47,11.5625 v 42.6679 c 0,8.4805 -1.08,14.9295 -3.34,19.4105 -2.3,4.468 -6.78,6.722 -13.49,6.722 -4.37,0 -8.36,-1.371 -11.97,-4.121 -3.59,-2.679 -6.22,-6.429 -7.9,-11.211 -1.2,-3.789 -1.82,-10.9098 -1.82,-21.4177 V 53.6016 c 0,-5.1797 -1.14,-9.1016 -3.46,-11.7305 -2.33,-2.5508 -5.29,-3.8594 -8.94,-3.8594 -3.52,0 -6.45,1.3399 -8.72,4.0196 -2.31,2.7304 -3.43,6.5507 -3.43,11.5703 v 74.0074 c 0,4.911 1.01,8.532 3.07,10.95 2.01,2.402 4.85,3.64 8.36,3.64 2.15,0 4.12,-0.59 5.81,-1.617 1.81,-1.051 3.16,-2.691 4.21,-4.742 1.02,-2.188 1.6,-4.758 1.6,-7.848"
         style="fill:#231f20;fill-opacity:1;fill-rule:nonzero;stroke:none"
         transform="matrix(0.13333333,0,0,-0.13333333,0,698.62667)" />
      <path
         id="path14"
         d="m 3309.01,126.219 19.83,-58.1604 21.41,60.7034 c 1.72,4.89 3.35,8.297 4.99,10.359 1.64,2.02 4.05,3.078 7.33,3.078 3.15,0 5.79,-1.117 8.02,-3.34 2.16,-2.187 3.27,-4.668 3.27,-7.609 0,-1.102 -0.22,-2.398 -0.6,-3.859 -0.36,-1.559 -0.82,-2.969 -1.35,-4.301 -0.52,-1.281 -1.05,-2.801 -1.75,-4.461 L 3346.6,57.6211 c -0.67,-1.7422 -1.54,-3.9922 -2.56,-6.6797 -1.09,-2.6601 -2.26,-4.9492 -3.53,-6.9297 -1.31,-1.8828 -2.88,-3.332 -4.74,-4.4101 -1.92,-1.0391 -4.22,-1.5899 -6.93,-1.5899 -3.46,0 -6.25,0.8086 -8.32,2.4571 -2.09,1.6601 -3.62,3.4609 -4.58,5.4726 -0.98,1.9375 -2.67,5.8477 -5,11.6797 l -23.4,60.3279 c -0.54,1.512 -1.1,3.02 -1.7,4.5 -0.54,1.512 -0.98,3 -1.4,4.602 -0.36,1.601 -0.59,2.929 -0.59,4.031 0,1.777 0.51,3.5 1.56,5.207 1.01,1.742 2.44,3.191 4.22,4.242 1.82,1.078 3.72,1.668 5.85,1.668 4.06,0 6.88,-1.238 8.4,-3.73 1.54,-2.41 3.25,-6.489 5.13,-12.25"
         style="fill:#231f20;fill-opacity:1;fill-rule:nonzero;stroke:none"
         transform="matrix(0.13333333,0,0,-0.13333333,0,698.62667)" />
      <path
         id="path15"
         d="m 3409.44,98.3906 h 44.51 c -0.59,8.7504 -2.83,15.3084 -6.79,19.6404 -3.94,4.321 -9.11,6.5 -15.52,6.5 -6.09,0 -11.13,-2.199 -15.03,-6.601 -3.95,-4.391 -6.28,-10.91 -7.17,-19.5394 z m 48.05,-14.5508 h -48.05 c 0.02,-5.871 1.19,-10.9804 3.34,-15.4687 2.22,-4.3906 5.13,-7.7188 8.74,-10 3.63,-2.2813 7.65,-3.3711 12.03,-3.3711 2.92,0 5.62,0.3594 8.04,1.0508 2.43,0.7578 4.78,1.8789 7.09,3.3984 2.23,1.5196 4.32,3.1524 6.26,4.961 1.89,1.7187 4.45,4.0703 7.45,7.0898 1.29,1.1914 3.08,1.7109 5.4,1.7109 2.55,0 4.58,-0.7109 6.13,-2.1601 1.57,-1.4492 2.33,-3.461 2.33,-6.0703 0,-2.3282 -0.86,-5.0508 -2.63,-8.1719 -1.72,-3.0664 -4.29,-6.0391 -7.85,-8.9297 -3.53,-2.8203 -7.93,-5.1601 -13.24,-7.0898 -5.27,-1.8477 -11.34,-2.7774 -18.29,-2.7774 -15.76,0 -28.02,4.7071 -36.75,14.0586 -8.74,9.4414 -13.11,22.1211 -13.11,38.1719 0,7.668 1.1,14.6368 3.23,21.0898 2.16,6.5 5.3,12.039 9.43,16.66 4.15,4.668 9.21,8.238 15.29,10.68 6.07,2.469 12.76,3.707 20.17,3.707 9.53,0 17.77,-2.109 24.64,-6.367 6.87,-4.223 12.02,-9.621 15.41,-16.321 3.45,-6.711 5.14,-13.519 5.14,-20.5113 0,-6.3906 -1.71,-10.5703 -5.29,-12.4805 -3.58,-1.9297 -8.5,-2.8594 -14.91,-2.8594"
         style="fill:#231f20;fill-opacity:1;fill-rule:nonzero;stroke:none"
         transform="matrix(0.13333333,0,0,-0.13333333,0,698.62667)" />
      <path
         id="path16"
         d="m 3586.45,69.7422 c 0,-3.1797 -0.89,-6.6016 -2.75,-10.2227 -1.84,-3.6406 -4.59,-7.0781 -8.36,-10.3711 -3.74,-3.2773 -8.49,-5.9179 -14.2,-7.8984 -5.67,-2.0508 -12.11,-3.0273 -19.21,-3.0273 -15.21,0 -27.04,4.6171 -35.54,13.8086 -8.48,9.2695 -12.78,21.6093 -12.78,37.1289 0,10.5 1.94,19.8318 5.87,27.8708 3.89,8.039 9.5,14.321 16.89,18.719 7.35,4.43 16.19,6.629 26.46,6.629 6.34,0 12.16,-0.988 17.5,-2.887 5.28,-1.961 9.75,-4.492 13.49,-7.512 3.68,-3.07 6.49,-6.339 8.47,-9.808 1.9,-3.473 2.9,-6.723 2.9,-9.723 0,-3.027 -1.08,-5.609 -3.33,-7.769 -2.17,-2.149 -4.81,-3.211 -7.92,-3.211 -2.06,0 -3.74,0.601 -5.05,1.703 -1.39,1.039 -2.9,2.769 -4.61,5.258 -2.99,4.73 -6.09,8.312 -9.35,10.742 -3.28,2.359 -7.43,3.598 -12.5,3.598 -7.2,0 -13.09,-3.008 -17.5,-8.911 -4.48,-5.961 -6.65,-14.0387 -6.65,-24.2887 0,-4.8008 0.58,-9.289 1.69,-13.3203 1.15,-4.0312 2.81,-7.4414 4.96,-10.3203 2.16,-2.8477 4.78,-5 7.85,-6.4492 3,-1.4883 6.37,-2.2383 10.05,-2.2383 4.9,0 9.14,1.168 12.64,3.5664 3.49,2.4023 6.62,6.0312 9.33,10.8633 1.48,2.9297 3.08,5.1679 4.82,6.8398 1.73,1.5977 3.85,2.3789 6.4,2.3789 2.97,0 5.49,-1.1601 7.41,-3.5117 2.02,-2.4297 3.02,-4.9492 3.02,-7.6367"
         style="fill:#231f20;fill-opacity:1;fill-rule:nonzero;stroke:none"
         transform="matrix(0.13333333,0,0,-0.13333333,0,698.62667)" />
      <path
         id="path17"
         d="m 3609.25,140.02 h 2.72 v 15.402 c 0,4.109 0.1,7.367 0.31,9.707 0.22,2.34 0.75,4.332 1.77,6.043 0.94,1.719 2.31,3.168 4.14,4.277 1.77,1.082 3.77,1.602 5.99,1.602 3.12,0 5.94,-1.219 8.45,-3.629 1.64,-1.66 2.74,-3.621 3.2,-5.953 0.43,-2.34 0.66,-5.707 0.66,-10.008 V 140.02 h 9.02 c 3.47,0 6.12,-0.868 7.95,-2.59 1.87,-1.719 2.76,-3.899 2.76,-6.61 0,-3.429 -1.3,-5.89 -3.94,-7.218 -2.59,-1.36 -6.33,-2.071 -11.19,-2.071 h -4.6 V 74.3398 c 0,-4.0078 0.13,-7.0781 0.39,-9.2695 0.31,-2.1797 1.06,-3.9297 2.22,-5.2383 1.14,-1.3515 3.03,-2.0625 5.68,-2.0625 1.46,0 3.38,0.2618 5.87,0.8203 2.41,0.5313 4.34,0.8008 5.75,0.8008 1.96,0 3.78,-0.8711 5.33,-2.4492 1.58,-1.7109 2.4,-3.7187 2.4,-6.1719 0,-4.1289 -2.11,-7.2773 -6.47,-9.4882 -4.35,-2.1719 -10.55,-3.2696 -18.61,-3.2696 -7.69,0 -13.52,1.3399 -17.47,4.0274 -3.95,2.7226 -6.58,6.3906 -7.75,11.2226 -1.27,4.7383 -1.86,11.0781 -1.86,19.0508 v 49.2185 h -3.29 c -3.46,0 -6.17,0.871 -8.04,2.649 -1.89,1.742 -2.79,3.949 -2.79,6.64 0,2.711 0.97,4.891 2.9,6.61 1.97,1.722 4.8,2.59 8.5,2.59"
         style="fill:#231f20;fill-opacity:1;fill-rule:nonzero;stroke:none"
         transform="matrix(0.13333333,0,0,-0.13333333,0,698.62667)" />
      <path
         id="path18"
         d="m 3740.33,90.0508 c 0,10.3982 -2.22,18.5582 -6.59,24.3712 -4.45,5.797 -10.33,8.75 -17.79,8.75 -4.79,0 -9.01,-1.332 -12.66,-3.922 -3.69,-2.621 -6.5,-6.43 -8.46,-11.52 -1.97,-5.011 -2.97,-10.9097 -2.97,-17.6792 0,-6.6992 1,-12.5508 2.95,-17.5508 1.92,-4.9883 4.7,-8.8086 8.32,-11.5078 3.62,-2.6211 7.88,-3.9336 12.82,-3.9336 7.46,0 13.34,2.8906 17.79,8.7422 4.37,5.8203 6.59,13.9297 6.59,24.25 z m 24.65,0 c 0,-7.6094 -1.14,-14.6406 -3.44,-21.1406 -2.27,-6.3789 -5.58,-11.9297 -9.87,-16.5782 -4.33,-4.6406 -9.5,-8.0898 -15.47,-10.6406 -5.99,-2.4726 -12.71,-3.6797 -20.25,-3.6797 -7.46,0 -14.14,1.2071 -20.06,3.7578 -5.93,2.4805 -11.1,6.0625 -15.41,10.7227 -4.34,4.6875 -7.65,10.1601 -9.88,16.5078 -2.24,6.3789 -3.33,13.3711 -3.33,21.0898 0,7.7618 1.09,14.8592 3.33,21.2692 2.35,6.473 5.57,11.95 9.82,16.563 4.28,4.527 9.44,8.078 15.47,10.539 6.11,2.461 12.78,3.738 20.06,3.738 7.46,0 14.17,-1.277 20.25,-3.777 6.06,-2.512 11.23,-6.102 15.54,-10.723 4.28,-4.617 7.64,-10.16 9.87,-16.539 2.23,-6.359 3.37,-13.4178 3.37,-21.1092"
         style="fill:#231f20;fill-opacity:1;fill-rule:nonzero;stroke:none"
         transform="matrix(0.13333333,0,0,-0.13333333,0,698.62667)" />
      <path
         id="path19"
         d="M 3808.72,74.9492 V 53.6016 c 0,-5.1797 -1.18,-9.1016 -3.52,-11.7305 -2.34,-2.5508 -5.31,-3.8594 -8.94,-3.8594 -3.49,0 -6.43,1.3399 -8.7,3.918 -2.27,2.6289 -3.39,6.5 -3.39,11.6719 V 124.91 c 0,11.539 3.97,17.289 11.95,17.289 4.03,0 7.01,-1.41 8.82,-4.058 1.77,-2.672 2.72,-6.672 2.98,-11.922 2.91,5.25 5.93,9.25 9.03,11.922 3.09,2.648 7.2,4.058 12.31,4.058 5.22,0 10.2,-1.41 15.08,-4.058 4.83,-2.672 7.29,-6.262 7.29,-10.692 0,-3.117 -1.08,-5.758 -3.14,-7.758 -2.03,-2.011 -4.29,-3.062 -6.7,-3.062 -0.9,0 -3.07,0.601 -6.52,1.781 -3.46,1.141 -6.51,1.738 -9.15,1.738 -3.58,0 -6.51,-0.976 -8.76,-2.988 -2.29,-1.988 -4.06,-4.871 -5.32,-8.738 -1.26,-3.93 -2.17,-8.5118 -2.61,-13.9025 -0.47,-5.3086 -0.71,-11.8086 -0.71,-19.5703"
         style="fill:#231f20;fill-opacity:1;fill-rule:nonzero;stroke:none"
         transform="matrix(0.13333333,0,0,-0.13333333,0,698.62667)" />
      <path
         id="path20"
         d="m 3939.49,71.4688 c 0,-7.0586 -1.65,-13.0977 -4.99,-18.1485 -3.31,-5.039 -8.17,-8.8203 -14.61,-11.4609 -6.47,-2.5391 -14.29,-3.8477 -23.58,-3.8477 -8.74,0 -16.33,1.418 -22.64,4.2305 -6.29,2.8164 -10.96,6.3086 -13.93,10.5391 -3.02,4.1992 -4.57,8.4296 -4.57,12.6679 0,2.8203 1.01,5.25 2.96,7.2422 1.9,2.0195 4.35,3.0078 7.25,3.0078 2.58,0 4.59,-0.6679 5.95,-1.9687 1.41,-1.3594 2.67,-3.1914 3.97,-5.5391 2.52,-4.6094 5.51,-8.0117 9.07,-10.2617 3.44,-2.2774 8.25,-3.3984 14.35,-3.3984 4.89,0 8.93,1.1484 12.08,3.4609 3.12,2.25 4.75,4.8789 4.75,7.8086 0,4.5312 -1.66,7.8398 -4.89,9.8594 -3.32,2.1093 -8.66,4.0703 -16.18,5.9414 -8.44,2.2187 -15.33,4.5078 -20.64,6.8984 -5.32,2.4023 -9.62,5.6094 -12.76,9.5508 -3.16,3.9102 -4.79,8.7892 -4.79,14.5512 0,5.14 1.48,9.988 4.42,14.507 2.93,4.61 7.31,8.25 13.03,10.961 5.71,2.719 12.62,4.129 20.74,4.129 6.35,0 12.06,-0.738 17.15,-2.09 5.04,-1.379 9.32,-3.218 12.65,-5.527 3.4,-2.32 6.01,-4.883 7.76,-7.68 1.79,-2.863 2.67,-5.613 2.67,-8.273 0,-2.949 -0.94,-5.309 -2.85,-7.27 -1.89,-1.8 -4.61,-2.769 -8.04,-2.769 -2.54,0 -4.66,0.75 -6.45,2.289 -1.74,1.473 -3.8,3.703 -6.07,6.68 -1.85,2.523 -4.03,4.543 -6.58,6.043 -2.53,1.468 -5.95,2.23 -10.24,2.23 -4.45,0 -8.16,-0.953 -11.05,-2.961 -2.96,-1.961 -4.44,-4.43 -4.44,-7.371 0,-2.68 1.09,-4.891 3.22,-6.629 2.2,-1.719 5.08,-3.129 8.75,-4.281 3.67,-1.129 8.71,-2.52 15.13,-4.141 7.61,-1.9099 13.84,-4.2381 18.67,-6.9373 4.82,-2.6719 8.48,-5.832 10.96,-9.5117 2.52,-3.6992 3.77,-7.8594 3.77,-12.5312"
         style="fill:#231f20;fill-opacity:1;fill-rule:nonzero;stroke:none"
         transform="matrix(0.13333333,0,0,-0.13333333,0,698.62667)" />
      <path
         id="path21"
         d="m 3967.35,38.0117 c -3.7,0 -6.92,1.2071 -9.58,3.7578 -2.76,2.4805 -4.07,6.0118 -4.07,10.4805 0,3.8008 1.26,7.0898 3.8,9.8594 2.59,2.7422 5.81,4.082 9.58,4.082 3.75,0 6.99,-1.3398 9.59,-4.0625 2.71,-2.6797 4.07,-6.0391 4.07,-9.8789 0,-4.4492 -1.36,-7.9414 -4.07,-10.4414 -2.6,-2.5469 -5.71,-3.7969 -9.32,-3.7969"
         style="fill:#231f20;fill-opacity:1;fill-rule:nonzero;stroke:none"
         transform="matrix(0.13333333,0,0,-0.13333333,0,698.62667)" />
      <path
         id="path22"
         d="m 4075.92,90.0508 c 0,10.3982 -2.21,18.5582 -6.62,24.3712 -4.4,5.797 -10.3,8.75 -17.73,8.75 -4.81,0 -8.99,-1.332 -12.67,-3.922 -3.67,-2.621 -6.47,-6.43 -8.44,-11.52 -1.95,-5.011 -2.96,-10.9097 -2.96,-17.6792 0,-6.6992 0.94,-12.5508 2.88,-17.5508 2.01,-4.9883 4.77,-8.8086 8.41,-11.5078 3.6,-2.6211 7.88,-3.9336 12.78,-3.9336 7.43,0 13.33,2.8906 17.73,8.7422 4.41,5.8203 6.62,13.9297 6.62,24.25 z m 24.68,0 c 0,-7.6094 -1.12,-14.6406 -3.45,-21.1406 -2.28,-6.3789 -5.56,-11.9297 -9.88,-16.5782 -4.34,-4.6406 -9.43,-8.0898 -15.47,-10.6406 -5.97,-2.4726 -12.71,-3.6797 -20.23,-3.6797 -7.43,0 -14.12,1.2071 -20.06,3.7578 -5.93,2.4805 -11.04,6.0625 -15.37,10.7227 -4.41,4.6875 -7.69,10.1601 -9.97,16.5078 -2.2,6.3789 -3.33,13.3711 -3.33,21.0898 0,7.7618 1.13,14.8592 3.41,21.2692 2.33,6.473 5.54,11.95 9.78,16.563 4.26,4.527 9.42,8.078 15.48,10.539 6.07,2.461 12.71,3.738 20.06,3.738 7.43,0 14.17,-1.277 20.23,-3.777 6.09,-2.512 11.25,-6.102 15.58,-10.723 4.29,-4.617 7.57,-10.16 9.84,-16.539 2.26,-6.359 3.38,-13.4178 3.38,-21.1092"
         style="fill:#231f20;fill-opacity:1;fill-rule:nonzero;stroke:none"
         transform="matrix(0.13333333,0,0,-0.13333333,0,698.62667)" />
      <path
         id="path23"
         d="M 4144.32,74.9492 V 53.6016 c 0,-5.1797 -1.17,-9.1016 -3.49,-11.7305 -2.34,-2.5508 -5.32,-3.8594 -8.88,-3.8594 -3.62,0 -6.47,1.3399 -8.78,3.918 -2.28,2.6289 -3.41,6.5 -3.41,11.6719 V 124.91 c 0,11.539 4.04,17.289 11.98,17.289 4.09,0 7,-1.41 8.79,-4.058 1.77,-2.672 2.82,-6.672 3.02,-11.922 2.9,5.25 5.9,9.25 8.99,11.922 3.09,2.648 7.23,4.058 12.34,4.058 5.22,0 10.24,-1.41 15.04,-4.058 4.87,-2.672 7.31,-6.262 7.31,-10.692 0,-3.117 -1.04,-5.758 -3.08,-7.758 -2.11,-2.011 -4.3,-3.062 -6.75,-3.062 -0.87,0 -3.03,0.601 -6.5,1.781 -3.43,1.141 -6.48,1.738 -9.15,1.738 -3.57,0 -6.48,-0.976 -8.83,-2.988 -2.23,-1.988 -4.02,-4.871 -5.28,-8.738 -1.24,-3.93 -2.14,-8.5118 -2.6,-13.9025 -0.46,-5.3086 -0.72,-11.8086 -0.72,-19.5703"
         style="fill:#231f20;fill-opacity:1;fill-rule:nonzero;stroke:none"
         transform="matrix(0.13333333,0,0,-0.13333333,0,698.62667)" />
      <path
         id="path24"
         d="m 4215.2,90.9102 c 0,-10.3399 2.18,-18.1993 6.55,-23.5586 4.32,-5.293 9.97,-7.961 16.81,-7.961 4.06,0 7.96,1.168 11.57,3.461 3.63,2.289 6.59,5.7187 8.89,10.3007 2.28,4.6172 3.41,10.1993 3.41,16.7383 0,10.4494 -2.23,18.5894 -6.63,24.3984 -4.39,5.859 -10.21,8.793 -17.38,8.793 -6.98,0 -12.63,-2.863 -16.83,-8.402 -4.27,-5.578 -6.39,-13.481 -6.39,-23.7698 z m 71.17,32.5198 V 48.9688 c 0,-8.5274 -0.93,-15.8399 -2.63,-21.9375 -1.74,-6.1915 -4.54,-11.2305 -8.36,-15.2305 -3.83,-4.01955 -8.88,-6.96096 -15.05,-8.92971 C 4254.12,1 4246.38,0 4237.18,0 c -8.5,0 -16.06,1.19922 -22.69,3.66016 -6.66,2.53906 -11.78,5.67968 -15.37,9.60934 -3.62,3.8828 -5.42,7.9219 -5.42,12.0899 0,3.1094 1,5.6601 3.09,7.6094 2.01,2.0117 4.47,2.9921 7.35,2.9921 3.62,0 6.72,-1.6601 9.47,-4.9687 1.32,-1.7305 2.69,-3.4102 4.08,-5.1211 1.39,-1.7617 2.95,-3.2305 4.67,-4.4102 1.7,-1.2617 3.79,-2.1718 6.19,-2.7695 2.34,-0.5898 5.13,-0.8789 8.26,-0.8789 6.31,0 11.3,0.9297 14.78,2.7773 3.52,1.8321 5.97,4.3907 7.42,7.711 1.36,3.3086 2.24,6.8398 2.38,10.6601 0.29,3.8399 0.45,9.8711 0.62,18.2813 -3.77,-5.4805 -8.2,-9.6914 -13.1,-12.5625 -4.93,-2.8711 -10.85,-4.2891 -17.64,-4.2891 -8.27,0 -15.46,2.1407 -21.56,6.5703 -6.18,4.3711 -10.91,10.4883 -14.21,18.3985 -3.25,7.8515 -4.94,16.9609 -4.94,27.2929 0,7.7387 0.99,14.6877 3.05,20.8867 1.96,6.152 4.81,11.391 8.57,15.641 3.68,4.269 8.02,7.48 12.85,9.66 4.9,2.121 10.16,3.242 16.03,3.242 6.92,0 12.97,-1.422 18.05,-4.223 5.14,-2.757 9.84,-7.148 14.21,-13.089 v 3.449 c 0,4.472 1.09,7.871 3.15,10.39 2.1,2.411 4.81,3.653 8.09,3.653 4.76,0 7.91,-1.602 9.49,-4.832 1.52,-3.239 2.32,-7.918 2.32,-14"
         style="fill:#231f20;fill-opacity:1;fill-rule:nonzero;stroke:none"
         transform="matrix(0.13333333,0,0,-0.13333333,0,698.62667)" />
      <path
         id="path25"
         d="m 3222.25,372.922 h 36.44 c -2.59,-19.641 -10.62,-34.973 -24.01,-45.992 -12.39,-10.778 -27.39,-16.121 -44.91,-16.121 -23.77,0 -42.75,8.343 -56.91,25.023 -13.44,15.848 -20.16,36.328 -20.16,61.359 0,25.629 6.68,46.11 19.96,61.629 13.26,15.45 32.06,23.219 56.31,23.219 18.05,0 33.32,-4.879 45.71,-14.578 13.15,-10.449 21.15,-25.16 24.01,-44.031 h -36.44 c -3.12,16.441 -13.17,24.64 -30.26,24.64 -28.14,0 -42.25,-16.672 -42.25,-50.031 0,-15.629 3.64,-28.398 10.87,-38.359 7.25,-9.969 17.44,-14.961 30.63,-14.961 19.61,0 29.97,9.402 31.01,28.203 z m -143.35,22.969 c 0,-32.59 10.34,-60.172 30.99,-82.629 20.66,-22.492 45.94,-33.742 75.94,-33.742 29.9,0 55.21,11.25 75.84,33.742 20.69,22.457 30.97,50.039 30.97,82.629 0,32.578 -10.28,60.148 -30.97,82.64 -20.63,22.489 -45.94,33.75 -75.84,33.75 -30,0 -55.28,-11.261 -75.94,-33.75 -20.65,-22.492 -30.99,-50.062 -30.99,-82.64 z m -36.98,0 c 0,41.48 14.02,76.871 42.13,106.289 28.11,29.34 62.05,44.019 101.78,44.019 39.68,0 73.57,-14.679 101.71,-44.019 28.12,-29.418 42.19,-64.809 42.19,-106.289 0,-41.489 -14.07,-76.942 -42.19,-106.282 -28.14,-29.367 -62.03,-44.078 -101.71,-44.078 -39.73,0 -73.67,14.711 -101.78,44.078 -28.11,29.34 -42.13,64.793 -42.13,106.282"
         style="fill:#231f20;fill-opacity:1;fill-rule:nonzero;stroke:none"
         transform="matrix(0.13333333,0,0,-0.13333333,0,698.62667)" />
      <path
         id="path26"
         d="m 3100.14,301.621 20.99,-17.801 154.35,198.2 -20.98,17.781 -154.36,-198.18"
         style="fill:#231f20;fill-opacity:1;fill-rule:nonzero;stroke:none"
         transform="matrix(0.13333333,0,0,-0.13333333,0,698.62667)" />
      <path
         id="path27"
         d="m 3035.39,5036.66 c 1676.39,0 3035.39,-1358.96 3035.39,-3035.36 0,-407.85 -80.63,-796.77 -226.49,-1152.011 H 226.484 C 80.625,1204.53 0,1593.45 0,2001.3 0,3677.7 1358.98,5036.66 3035.39,5036.66"
         style="fill:#c1dff5;fill-opacity:1;fill-rule:evenodd;stroke:none"
         transform="matrix(0.13333333,0,0,-0.13333333,0,698.62667)" />
      <path
         id="path28"
         d="m 4212.92,3215.36 -826.35,-694.49 945.57,-1125.12 c 191.01,-227.23 533.15,-256.94 760.41,-65.93 v 0 c 227.26,190.98 256.96,533.15 65.95,760.41 l -945.58,1125.13"
         style="fill:#381516;fill-opacity:1;fill-rule:evenodd;stroke:none"
         transform="matrix(0.13333333,0,0,-0.13333333,0,698.62667)" />
      <path
         id="path29"
         d="M 0,712.152 H 6070.78 V 986.441 H 0 V 712.152"
         style="fill:#dceefa;fill-opacity:1;fill-rule:evenodd;stroke:none"
         transform="matrix(0.13333333,0,0,-0.13333333,0,698.62667)" />
      <path
         id="path30"
         d="m 2189.81,3491.54 797.71,166.28 797.73,-166.28 c 162.79,-33.92 297.37,-114.34 387.02,-221.16 89.58,-106.78 134.16,-239.99 116.92,-379.52 L 4053.81,986.441 H 1921.23 L 1685.85,2890.86 c -17.25,139.53 27.33,272.74 116.95,379.52 89.61,106.82 224.22,187.24 387.01,221.16"
         style="fill:#671d22;fill-opacity:1;fill-rule:evenodd;stroke:none"
         transform="matrix(0.13333333,0,0,-0.13333333,0,698.62667)" />
      <path
         id="path31"
         d="m 2476.73,3551.36 65.68,43.42 c 81.85,54.11 130.45,133.71 141.22,231.21 l 55.03,497.49 h 499.87 l 55,-497.84 c 10.77,-97.58 59.46,-177.22 141.37,-231.33 l 65.77,-43.45 c 9.4,-23.81 14.58,-49.7 14.58,-76.76 v -0.03 c 0,-115.62 -94.58,-210.23 -210.24,-210.23 h -632.84 c -115.62,0 -210.23,94.61 -210.23,210.23 v 0.03 c 0,27.23 5.25,53.34 14.79,77.26"
         style="fill:#f38a65;fill-opacity:1;fill-rule:evenodd;stroke:none"
         transform="matrix(0.13333333,0,0,-0.13333333,0,698.62667)" />
      <path
         id="path32"
         d="m 2744.32,4323.48 h 494.21 l 55,-497.84 c 7.68,-69.47 34.55,-129.85 78.96,-178.39 -53.73,-22.52 -112.65,-35.02 -174.31,-35.02 v 0 c -249.64,0 -453.86,204.22 -453.86,453.84 v 257.41"
         style="fill:#dd7f56;fill-opacity:1;fill-rule:evenodd;stroke:none"
         transform="matrix(0.13333333,0,0,-0.13333333,0,698.62667)" />
      <path
         id="path33"
         d="M 1802.8,3270.38 2461.94,2517.95 1437.46,1620.53 C 1230.53,1439.25 912.945,1460.24 731.672,1667.2 v 0 c -181.266,206.9 -160.281,524.51 46.648,705.76 l 1024.48,897.42"
         style="fill:#671d22;fill-opacity:1;fill-rule:evenodd;stroke:none"
         transform="matrix(0.13333333,0,0,-0.13333333,0,698.62667)" />
      <path
         id="path34"
         d="m 2419.62,2647.06 1592.91,-44.58 c 15.16,-0.42 27.27,-12.86 27.27,-28.03 v -1.44 c 0,-3.9 -1.4,-7.25 -4.14,-10 -2.79,-2.73 -6.16,-4.13 -10.03,-4.1 l -1606.01,8.87 z m 0,-195.83 1592.91,44.55 c 15.16,0.45 27.27,12.9 27.27,28.04 v 1.49 c 0,3.86 -1.4,7.23 -4.14,9.97 -2.79,2.74 -6.16,4.14 -10.03,4.11 l -1606.01,-8.87 v -79.29 0"
         style="fill:#bc4c1f;fill-opacity:1;fill-rule:evenodd;stroke:none"
         transform="matrix(0.13333333,0,0,-0.13333333,0,698.62667)" />
      <path
         id="path35"
         d="m 2171.45,2750.99 h 472.09 c 164.88,0 299.76,-134.88 299.76,-299.76 v 0 c 0,-164.85 -134.88,-299.75 -299.76,-299.75 H 2471.2 c -164.85,0 -299.75,134.9 -299.75,299.75 v 299.76"
         style="fill:#f38a65;fill-opacity:1;fill-rule:evenodd;stroke:none"
         transform="matrix(0.13333333,0,0,-0.13333333,0,698.62667)" />
      <path
         id="path36"
         d="m 2607.56,2750.99 h 313.42 c 64.55,0 117.35,-52.76 117.35,-117.32 v 0 c 0,-64.53 -52.8,-117.32 -117.35,-117.32 h -313.42 v 234.64"
         style="fill:#f38a65;fill-opacity:1;fill-rule:evenodd;stroke:none"
         transform="matrix(0.13333333,0,0,-0.13333333,0,698.62667)" />
      <path
         id="path37"
         d="m 2846.04,2553.85 -81.79,118.03 c -67.19,96.96 -221.24,149.82 -342.31,117.5 l -220.19,-58.84 203.95,-294.31 c 30.61,-44.17 100.76,-68.27 156,-53.51 l 239.7,64.02 c 55.18,14.73 75.27,62.94 44.64,107.11"
         style="fill:#f38a65;fill-opacity:1;fill-rule:evenodd;stroke:none"
         transform="matrix(0.13333333,0,0,-0.13333333,0,698.62667)" />
      <path
         id="path38"
         d="M 2230.41,2078.92 1543.1,1517.46 C 1035.33,1102.71 389.563,2123.24 1180.82,2405.7 l 877.76,313.36 c 448.98,160.26 541.09,-338.48 171.83,-640.14"
         style="fill:#f38a65;fill-opacity:1;fill-rule:evenodd;stroke:none"
         transform="matrix(0.13333333,0,0,-0.13333333,0,698.62667)" />
      <path
         id="path39"
         d="m 4657.38,1889.04 114.16,40.39 c 181.76,64.25 383.04,-31.85 447.28,-213.61 v 0 c 64.29,-181.74 -31.84,-383.02 -213.59,-447.31 l -114.17,-40.35 c -181.75,-64.29 -383.03,31.84 -447.28,213.59 v 0 c -64.25,181.76 31.84,383.04 213.6,447.29"
         style="fill:#f38a65;fill-opacity:1;fill-rule:evenodd;stroke:none"
         transform="matrix(0.13333333,0,0,-0.13333333,0,698.62667)" />
      <path
         id="path40"
         d="m 4587.97,1929.28 h 132.98 c 162.32,0 295.14,-132.8 295.14,-295.15 v 0 c 0,-162.35 -132.82,-295.14 -295.14,-295.14 h -132.98 c -162.31,0 -295.11,132.79 -295.11,295.14 v 0 c 0,162.35 132.8,295.15 295.11,295.15"
         style="fill:#f38a65;fill-opacity:1;fill-rule:evenodd;stroke:none"
         transform="matrix(0.13333333,0,0,-0.13333333,0,698.62667)" />
      <path
         id="path41"
         d="m 4333.9,2151.48 c 0,-220.09 -162.2,-409.93 -396.45,-497.85 h -586.96 c -234.27,87.92 -396.45,277.76 -396.45,497.85 H 4333.9"
         style="fill:#ffffff;fill-opacity:1;fill-rule:evenodd;stroke:none"
         transform="matrix(0.13333333,0,0,-0.13333333,0,698.62667)" />
      <path
         id="path42"
         d="m 4454.76,2060.65 h 0.03 c 78.3,-57.33 95.51,-168.27 38.18,-246.55 L 4331.2,1592.91 c -57.33,-78.33 -168.28,-95.53 -246.55,-38.24 h -0.03 c -78.31,57.29 -95.5,168.24 -38.22,246.54 l 161.82,221.19 c 57.32,78.31 168.24,95.5 246.54,38.25"
         style="fill:#f38a65;fill-opacity:1;fill-rule:evenodd;stroke:none"
         transform="matrix(0.13333333,0,0,-0.13333333,0,698.62667)" />
      <path
         id="path43"
         d="m 4302.53,2208.56 160.15,-154.07 c 32.02,-30.81 33.01,-82.15 2.2,-114.14 v 0 c -30.77,-32.03 -82.14,-33 -114.13,-2.23 l -160.15,154.07 c -31.99,30.77 -32.98,82.14 -2.21,114.16 v 0 c 30.78,31.97 82.15,32.98 114.14,2.21"
         style="fill:#f89c7c;fill-opacity:1;fill-rule:evenodd;stroke:none"
         transform="matrix(0.13333333,0,0,-0.13333333,0,698.62667)" />
      <path
         id="path44"
         d="m 4087.18,2070.02 200.68,-95.45 c 40.11,-19.04 57.32,-67.44 38.28,-107.55 v 0 c -19.11,-40.12 -67.5,-57.33 -107.59,-38.25 l -200.68,95.44 c -40.12,19.06 -57.33,67.44 -38.25,107.56 v 0 c 19.05,40.13 67.47,57.33 107.56,38.25"
         style="fill:#f89c7c;fill-opacity:1;fill-rule:evenodd;stroke:none"
         transform="matrix(0.13333333,0,0,-0.13333333,0,698.62667)" />
      <path
         id="path45"
         d="m 4091.31,1958.21 160.18,-154.1 c 31.99,-30.79 32.98,-82.15 2.21,-114.12 v 0 c -30.81,-32.02 -82.15,-33.03 -114.17,-2.22 l -160.15,154.07 c -31.99,30.77 -32.97,82.14 -2.17,114.13 v 0 c 30.77,31.99 82.11,33.01 114.1,2.24"
         style="fill:#f89c7c;fill-opacity:1;fill-rule:evenodd;stroke:none"
         transform="matrix(0.13333333,0,0,-0.13333333,0,698.62667)" />
      <path
         id="path46"
         d="m 3904.2,1752.49 174.92,-38.33 c 34.94,-7.68 57.25,-42.5 49.58,-77.47 v 0 c -7.65,-34.94 -42.5,-57.26 -77.45,-49.61 l -174.87,38.33 c -34.97,7.68 -57.26,42.5 -49.65,77.47 v 0 c 7.69,34.95 42.53,57.26 77.47,49.61"
         style="fill:#f89c7c;fill-opacity:1;fill-rule:evenodd;stroke:none"
         transform="matrix(0.13333333,0,0,-0.13333333,0,698.62667)" />
      <path
         id="path47"
         d="m 3732.4,2151.48 h 19.4 v 409.54 h -19.4 v -409.54"
         style="fill:#eecf67;fill-opacity:1;fill-rule:evenodd;stroke:none"
         transform="matrix(0.13333333,0,0,-0.13333333,0,698.62667)" />
      <path
         id="path48"
         d="m 3760.48,2561.02 c 6.47,0 12.92,0 19.41,0 0,-136.51 0,-273.03 0,-409.54 -6.49,0 -12.94,0 -19.41,0 0,136.51 0,273.03 0,409.54"
         style="fill:#eecf67;fill-opacity:1;fill-rule:evenodd;stroke:none"
         transform="matrix(0.13333333,0,0,-0.13333333,0,698.62667)" />
      <path
         id="path49"
         d="m 3788.55,2561.02 c 6.46,0 12.95,0 19.4,0 0,-136.51 0,-273.03 0,-409.54 -6.45,0 -12.94,0 -19.4,0 0,136.51 0,273.03 0,409.54"
         style="fill:#eecf67;fill-opacity:1;fill-rule:evenodd;stroke:none"
         transform="matrix(0.13333333,0,0,-0.13333333,0,698.62667)" />
      <path
         id="path50"
         d="m 3816.65,2561.02 c 6.46,0 12.94,0 19.37,0 0,-136.51 0,-273.03 0,-409.54 -6.43,0 -12.91,0 -19.37,0 0,136.51 0,273.03 0,409.54"
         style="fill:#eecf67;fill-opacity:1;fill-rule:evenodd;stroke:none"
         transform="matrix(0.13333333,0,0,-0.13333333,0,698.62667)" />
      <path
         id="path51"
         d="m 3844.74,2561.02 c 6.46,0 12.95,0 19.41,0 0,-136.51 0,-273.03 0,-409.54 -6.46,0 -12.95,0 -19.41,0 0,136.51 0,273.03 0,409.54"
         style="fill:#eecf67;fill-opacity:1;fill-rule:evenodd;stroke:none"
         transform="matrix(0.13333333,0,0,-0.13333333,0,698.62667)" />
      <path
         id="path52"
         d="m 3872.84,2561.02 c 6.45,0 12.95,0 19.4,0 0,-136.51 0,-273.03 0,-409.54 -6.45,0 -12.95,0 -19.4,0 0,136.51 0,273.03 0,409.54"
         style="fill:#eecf67;fill-opacity:1;fill-rule:evenodd;stroke:none"
         transform="matrix(0.13333333,0,0,-0.13333333,0,698.62667)" />
      <path
         id="path53"
         d="m 3900.93,2561.02 c 6.46,0 12.95,0 19.38,0 0,-136.51 0,-273.03 0,-409.54 -6.43,0 -12.92,0 -19.38,0 0,136.51 0,273.03 0,409.54"
         style="fill:#eecf67;fill-opacity:1;fill-rule:evenodd;stroke:none"
         transform="matrix(0.13333333,0,0,-0.13333333,0,698.62667)" />
      <path
         id="path54"
         d="m 3929,2151.48 h 19.4 v 409.54 H 3929 v -409.54"
         style="fill:#eecf67;fill-opacity:1;fill-rule:evenodd;stroke:none"
         transform="matrix(0.13333333,0,0,-0.13333333,0,698.62667)" />
      <path
         id="path55"
         d="m 2648.31,4883.87 h 907.72 v -666.94 c 0,-249.62 -204.23,-453.85 -453.87,-453.85 v 0 c -249.6,0 -453.85,204.23 -453.85,453.85 v 666.94"
         style="fill:#f38a65;fill-opacity:1;fill-rule:evenodd;stroke:none"
         transform="matrix(0.13333333,0,0,-0.13333333,0,698.62667)" />
      <path
         id="path56"
         d="m 3386.57,4112.91 v -16.47 c 0,-104.49 -85.48,-189.95 -189.94,-189.95 v 0 c -104.47,0 -189.94,85.46 -189.94,189.95 v 16.47 h 379.88"
         style="fill:#ffffff;fill-opacity:1;fill-rule:evenodd;stroke:none"
         transform="matrix(0.13333333,0,0,-0.13333333,0,698.62667)" />
      <path
         id="path57"
         d="m 2747.29,5127.14 h 786.24 c 94.28,0 171.43,-77.14 171.43,-171.42 -371.01,0 -188.01,-171.45 -282.26,-171.45 h -675.41 c -94.28,0 -171.46,77.16 -171.46,171.45 v 0 c 0,94.28 77.15,171.42 171.46,171.42"
         style="fill:#463d3b;fill-opacity:1;fill-rule:evenodd;stroke:none"
         transform="matrix(0.13333333,0,0,-0.13333333,0,698.62667)" />
      <path
         id="path58"
         d="m 3477.22,4784.27 h -109.11 c -125.23,0 -227.7,102.49 -227.7,227.72 v 0.04 c 0,125.23 102.47,227.71 227.7,227.71 h 109.11 c 125.27,0 227.74,-102.48 227.74,-227.71 v -0.04 c 0,-125.23 -102.47,-227.72 -227.74,-227.72"
         style="fill:#463d3b;fill-opacity:1;fill-rule:evenodd;stroke:none"
         transform="matrix(0.13333333,0,0,-0.13333333,0,698.62667)" />
      <path
         id="path59"
         d="m 2660.39,4953.42 v 0 c 79.22,0 144.01,-64.79 144.01,-144 v -507.41 c 0,-79.2 -64.79,-143.99 -144.01,-143.99 v 0 c -79.17,0 -143.99,64.79 -143.99,143.99 v 507.41 c 0,79.21 64.82,144 143.99,144"
         style="fill:#463d3b;fill-opacity:1;fill-rule:evenodd;stroke:none"
         transform="matrix(0.13333333,0,0,-0.13333333,0,698.62667)" />
      <path
         id="path60"
         d="m 2702.59,4951.16 h 132.74 c 29.88,0 54.27,-24.42 54.27,-54.28 v -465.14 c 0,-29.87 -24.39,-54.29 -54.27,-54.29 h -132.74 c -29.85,0 -54.28,24.42 -54.28,54.29 v 465.14 c 0,29.86 24.43,54.28 54.28,54.28"
         style="fill:#463d3b;fill-opacity:1;fill-rule:evenodd;stroke:none"
         transform="matrix(0.13333333,0,0,-0.13333333,0,698.62667)" />
      <path
         id="path61"
         d="m 2692.83,4555.38 c 66.19,6.62 133.21,-84.77 149.76,-204.13 16.52,-119.36 -23.75,-221.49 -89.91,-228.11 -66.16,-6.61 -133.22,84.77 -149.73,204.15 -16.52,119.34 23.72,221.47 89.88,228.09"
         style="fill:#f38a65;fill-opacity:1;fill-rule:evenodd;stroke:none"
         transform="matrix(0.13333333,0,0,-0.13333333,0,698.62667)" />
      <path
         id="path62"
         d="m 3070.32,4588.96 h 112.61 v -92.2 c 0,-30.98 -25.35,-56.31 -56.3,-56.31 v 0 c -30.98,0 -56.31,25.33 -56.31,56.31 v 92.2"
         style="fill:#2f2825;fill-opacity:1;fill-rule:evenodd;stroke:none"
         transform="matrix(0.13333333,0,0,-0.13333333,0,698.62667)" />
      <path
         id="path63"
         d="m 3405.49,4588.96 h 85.54 v -105.74 c 0,-23.54 -19.23,-42.77 -42.77,-42.77 v 0 c -23.54,0 -42.77,19.23 -42.77,42.77 v 105.74"
         style="fill:#2f2825;fill-opacity:1;fill-rule:evenodd;stroke:none"
         transform="matrix(0.13333333,0,0,-0.13333333,0,698.62667)" />
      <path
         id="path64"
         d="m 3034.66,4646.02 h 163.69 c 25.36,0 46.08,-20.73 46.08,-46.07 v -0.02 c 0,-25.34 -20.72,-46.08 -46.08,-46.08 h -163.69 c -25.32,0 -46.06,20.74 -46.06,46.08 v 0.02 c 0,25.34 20.74,46.07 46.06,46.07"
         style="fill:#463d3b;fill-opacity:1;fill-rule:evenodd;stroke:none"
         transform="matrix(0.13333333,0,0,-0.13333333,0,698.62667)" />
      <path
         id="path65"
         d="m 3389.48,4646.02 h 102.2 c 25.33,0 46.07,-20.73 46.07,-46.07 v -0.02 c 0,-25.34 -20.74,-46.08 -46.07,-46.08 h -102.2 c -25.35,0 -46.07,20.74 -46.07,46.08 v 0.02 c 0,25.34 20.72,46.07 46.07,46.07"
         style="fill:#463d3b;fill-opacity:1;fill-rule:evenodd;stroke:none"
         transform="matrix(0.13333333,0,0,-0.13333333,0,698.62667)" />
    </g>
  </g>
</svg>
