<?xml version="1.0" encoding="UTF-8" standalone="no"?>
<!-- Created with Inkscape (http://www.inkscape.org/) -->

<svg
   version="1.1"
   id="svg1"
   width="801.22668"
   height="801.22668"
   viewBox="0 0 801.22668 801.22668"
   sodipodi:docname="notebook-papers.svg"
   inkscape:version="1.4 (e7c3feb100, 2024-10-09)"
   xmlns:inkscape="http://www.inkscape.org/namespaces/inkscape"
   xmlns:sodipodi="http://sodipodi.sourceforge.net/DTD/sodipodi-0.dtd"
   xmlns="http://www.w3.org/2000/svg"
   xmlns:svg="http://www.w3.org/2000/svg">
  <defs
     id="defs1" />
  <sodipodi:namedview
     id="namedview1"
     pagecolor="#505050"
     bordercolor="#ffffff"
     borderopacity="1"
     inkscape:showpageshadow="0"
     inkscape:pageopacity="0"
     inkscape:pagecheckerboard="1"
     inkscape:deskcolor="#d1d1d1"
     inkscape:zoom="1.0171903"
     inkscape:cx="400.12179"
     inkscape:cy="400.61334"
     inkscape:window-width="1920"
     inkscape:window-height="1002"
     inkscape:window-x="0"
     inkscape:window-y="0"
     inkscape:window-maximized="1"
     inkscape:current-layer="g1">
    <inkscape:page
       x="0"
       y="0"
       inkscape:label="1"
       id="page1"
       width="801.22668"
       height="801.22668"
       margin="0"
       bleed="0" />
  </sodipodi:namedview>
  <g
     id="g1"
     inkscape:groupmode="layer"
     inkscape:label="1">
    <g
       id="group-R5">
      <path
         id="path2"
         d="M 0,0 H 6009.16 V 6009.17 H 0 V 0"
         style="fill:#7a491e;fill-opacity:1;fill-rule:evenodd;stroke:none"
         transform="matrix(0.13333333,0,0,-0.13333333,0,801.22667)" />
      <path
         id="path3"
         d="M 423.469,2241.53 1595,3333.02 2686.48,2161.48 1514.95,1070 423.469,2241.53"
         style="fill:#c0e365;fill-opacity:1;fill-rule:evenodd;stroke:none"
         transform="matrix(0.13333333,0,0,-0.13333333,0,801.22667)" />
      <path
         id="path4"
         d="M 4043.04,5777.25 5585.7,5348.27 5156.73,3805.61 3614.05,4234.58 4043.04,5777.25"
         style="fill:#faf462;fill-opacity:1;fill-rule:evenodd;stroke:none"
         transform="matrix(0.13333333,0,0,-0.13333333,0,801.22667)" />
      <path
         id="path5"
         d="M 1070.95,3610.89 3632.16,4981.52 5440.42,1602.58 2879.2,231.922 1070.95,3610.89"
         style="fill:#d9e2eb;fill-opacity:1;fill-rule:evenodd;stroke:none"
         transform="matrix(0.13333333,0,0,-0.13333333,0,801.22667)" />
      <path
         id="path6"
         d="m 1189.75,3595.07 177.43,94.95 56.77,-106.06 -177.44,-94.96 -56.76,106.07"
         style="fill:#626c76;fill-opacity:1;fill-rule:evenodd;stroke:none"
         transform="matrix(0.13333333,0,0,-0.13333333,0,801.22667)" />
      <path
         id="path7"
         d="m 1162.63,3754.23 v 0 c 10.77,5.77 24.3,1.67 30.06,-9.1 l 75.03,-140.21 c 5.77,-10.76 1.67,-24.29 -9.1,-30.05 v -0.01 c -10.77,-5.76 -24.29,-1.67 -30.06,9.11 l -75.03,140.2 c -5.76,10.77 -1.66,24.3 9.1,30.06"
         style="fill:#bdc6d1;fill-opacity:1;fill-rule:evenodd;stroke:none"
         transform="matrix(0.13333333,0,0,-0.13333333,0,801.22667)" />
      <path
         id="path8"
         d="m 1249.79,3800.88 h 0.01 c 10.77,5.76 24.3,1.67 30.05,-9.1 l 75.04,-140.21 c 5.76,-10.76 1.66,-24.29 -9.1,-30.06 h -0.01 c -10.77,-5.76 -24.29,-1.67 -30.05,9.1 l -75.04,140.21 c -5.75,10.77 -1.66,24.3 9.1,30.06"
         style="fill:#bdc6d1;fill-opacity:1;fill-rule:evenodd;stroke:none"
         transform="matrix(0.13333333,0,0,-0.13333333,0,801.22667)" />
      <path
         id="path9"
         d="m 1466.27,3743.06 c 59.15,31.65 118.29,63.3 177.44,94.95 18.93,-35.36 37.85,-70.72 56.77,-106.07 -59.14,-31.66 -118.29,-63.31 -177.44,-94.95 -18.91,35.35 -37.84,70.71 -56.77,106.07"
         style="fill:#626c76;fill-opacity:1;fill-rule:evenodd;stroke:none"
         transform="matrix(0.13333333,0,0,-0.13333333,0,801.22667)" />
      <path
         id="path10"
         d="m 1439.17,3902.22 v 0 c 10.77,5.76 24.29,1.67 30.05,-9.1 25.01,-46.74 50.02,-93.48 75.03,-140.21 5.77,-10.77 1.67,-24.29 -9.1,-30.06 v 0 c -10.77,-5.76 -24.29,-1.67 -30.05,9.1 -25.02,46.74 -50.03,93.47 -75.04,140.21 -5.76,10.77 -1.66,24.29 9.11,30.06"
         style="fill:#bdc6d1;fill-opacity:1;fill-rule:evenodd;stroke:none"
         transform="matrix(0.13333333,0,0,-0.13333333,0,801.22667)" />
      <path
         id="path11"
         d="m 1526.33,3948.86 v 0 c 10.77,5.77 24.3,1.67 30.06,-9.09 25.01,-46.75 50.02,-93.48 75.03,-140.21 5.76,-10.77 1.67,-24.29 -9.1,-30.06 v 0 c -10.78,-5.76 -24.3,-1.67 -30.06,9.1 -25.01,46.74 -50.03,93.47 -75.03,140.21 -5.77,10.77 -1.67,24.29 9.1,30.05"
         style="fill:#bdc6d1;fill-opacity:1;fill-rule:evenodd;stroke:none"
         transform="matrix(0.13333333,0,0,-0.13333333,0,801.22667)" />
      <path
         id="path12"
         d="m 1742.81,3891.04 c 59.14,31.66 118.28,63.31 177.43,94.96 18.93,-35.37 37.85,-70.72 56.77,-106.07 -59.15,-31.66 -118.29,-63.31 -177.43,-94.96 -18.93,35.36 -37.85,70.71 -56.77,106.07"
         style="fill:#626c76;fill-opacity:1;fill-rule:evenodd;stroke:none"
         transform="matrix(0.13333333,0,0,-0.13333333,0,801.22667)" />
      <path
         id="path13"
         d="m 1715.69,4050.21 v 0 c 10.77,5.76 24.31,1.66 30.07,-9.11 25,-46.73 50.01,-93.47 75.03,-140.21 5.76,-10.76 1.67,-24.29 -9.11,-30.05 v 0 c -10.77,-5.77 -24.29,-1.67 -30.06,9.1 -25,46.73 -50.02,93.46 -75.03,140.2 -5.76,10.77 -1.67,24.3 9.1,30.07"
         style="fill:#bdc6d1;fill-opacity:1;fill-rule:evenodd;stroke:none"
         transform="matrix(0.13333333,0,0,-0.13333333,0,801.22667)" />
      <path
         id="path14"
         d="m 1802.87,4096.85 v 0 c 10.76,5.76 24.29,1.67 30.05,-9.1 25.01,-46.74 50.02,-93.47 75.03,-140.21 5.77,-10.76 1.67,-24.29 -9.1,-30.05 v 0 c -10.77,-5.77 -24.3,-1.67 -30.06,9.09 -25.02,46.74 -50.03,93.47 -75.03,140.21 -5.76,10.77 -1.67,24.3 9.11,30.06"
         style="fill:#bdc6d1;fill-opacity:1;fill-rule:evenodd;stroke:none"
         transform="matrix(0.13333333,0,0,-0.13333333,0,801.22667)" />
      <path
         id="path15"
         d="m 2019.34,4039.02 c 59.14,31.66 118.28,63.31 177.43,94.96 18.92,-35.36 37.84,-70.72 56.77,-106.07 -59.15,-31.66 -118.3,-63.31 -177.44,-94.96 -18.92,35.37 -37.84,70.72 -56.76,106.07"
         style="fill:#626c76;fill-opacity:1;fill-rule:evenodd;stroke:none"
         transform="matrix(0.13333333,0,0,-0.13333333,0,801.22667)" />
      <path
         id="path16"
         d="m 1992.22,4198.18 v 0 c 10.78,5.77 24.3,1.67 30.06,-9.1 25.01,-46.73 50.02,-93.46 75.03,-140.2 5.77,-10.77 1.67,-24.3 -9.11,-30.06 v 0 c -10.76,-5.76 -24.29,-1.67 -30.05,9.1 -25.01,46.74 -50.02,93.47 -75.03,140.21 -5.76,10.77 -1.67,24.29 9.1,30.05"
         style="fill:#bdc6d1;fill-opacity:1;fill-rule:evenodd;stroke:none"
         transform="matrix(0.13333333,0,0,-0.13333333,0,801.22667)" />
      <path
         id="path17"
         d="m 2079.39,4244.83 v 0 c 10.77,5.77 24.29,1.67 30.06,-9.1 25.01,-46.74 50.02,-93.47 75.03,-140.2 5.76,-10.77 1.67,-24.3 -9.1,-30.06 v 0 c -10.77,-5.76 -24.3,-1.67 -30.06,9.1 -25.01,46.74 -50.02,93.47 -75.04,140.21 -5.76,10.77 -1.66,24.29 9.11,30.05"
         style="fill:#bdc6d1;fill-opacity:1;fill-rule:evenodd;stroke:none"
         transform="matrix(0.13333333,0,0,-0.13333333,0,801.22667)" />
      <path
         id="path18"
         d="m 2295.87,4187.01 c 59.13,31.66 118.29,63.31 177.42,94.95 18.93,-35.35 37.86,-70.71 56.78,-106.07 -59.14,-31.65 -118.29,-63.3 -177.44,-94.95 -18.91,35.36 -37.84,70.71 -56.76,106.07"
         style="fill:#626c76;fill-opacity:1;fill-rule:evenodd;stroke:none"
         transform="matrix(0.13333333,0,0,-0.13333333,0,801.22667)" />
      <path
         id="path19"
         d="m 2268.75,4346.17 v 0 c 10.78,5.76 24.3,1.67 30.06,-9.1 25.01,-46.73 50.03,-93.47 75.03,-140.2 5.77,-10.77 1.67,-24.3 -9.09,-30.07 v 0 c -10.78,-5.76 -24.31,-1.66 -30.07,9.1 -25.01,46.74 -50.02,93.48 -75.03,140.21 -5.76,10.77 -1.67,24.3 9.1,30.06"
         style="fill:#bdc6d1;fill-opacity:1;fill-rule:evenodd;stroke:none"
         transform="matrix(0.13333333,0,0,-0.13333333,0,801.22667)" />
      <path
         id="path20"
         d="m 2355.93,4392.82 v 0 c 10.76,5.76 24.28,1.67 30.05,-9.1 25,-46.74 50.02,-93.47 75.03,-140.21 5.76,-10.77 1.67,-24.3 -9.11,-30.05 v 0 c -10.77,-5.77 -24.28,-1.68 -30.05,9.09 -25.01,46.74 -50.03,93.48 -75.03,140.21 -5.77,10.78 -1.68,24.29 9.11,30.06"
         style="fill:#bdc6d1;fill-opacity:1;fill-rule:evenodd;stroke:none"
         transform="matrix(0.13333333,0,0,-0.13333333,0,801.22667)" />
      <path
         id="path21"
         d="m 2572.4,4335 c 59.14,31.65 118.29,63.3 177.42,94.95 18.93,-35.36 37.85,-70.72 56.78,-106.07 -59.15,-31.65 -118.28,-63.3 -177.43,-94.96 -18.92,35.37 -37.85,70.72 -56.77,106.08"
         style="fill:#626c76;fill-opacity:1;fill-rule:evenodd;stroke:none"
         transform="matrix(0.13333333,0,0,-0.13333333,0,801.22667)" />
      <path
         id="path22"
         d="m 2545.29,4494.16 v 0 c 10.76,5.76 24.29,1.67 30.05,-9.11 25.02,-46.72 50.02,-93.47 75.03,-140.2 5.77,-10.77 1.68,-24.3 -9.11,-30.06 v 0 c -10.76,-5.76 -24.28,-1.67 -30.05,9.1 -25,46.74 -50.02,93.48 -75.03,140.21 -5.76,10.77 -1.66,24.29 9.11,30.06"
         style="fill:#bdc6d1;fill-opacity:1;fill-rule:evenodd;stroke:none"
         transform="matrix(0.13333333,0,0,-0.13333333,0,801.22667)" />
      <path
         id="path23"
         d="m 2632.46,4540.81 v 0 c 10.76,5.76 24.29,1.67 30.04,-9.11 25.01,-46.73 50.03,-93.47 75.04,-140.21 5.76,-10.76 1.67,-24.29 -9.1,-30.04 v 0 c -10.77,-5.78 -24.3,-1.68 -30.06,9.09 -25.01,46.74 -50.03,93.47 -75.03,140.21 -5.77,10.77 -1.68,24.28 9.11,30.06"
         style="fill:#bdc6d1;fill-opacity:1;fill-rule:evenodd;stroke:none"
         transform="matrix(0.13333333,0,0,-0.13333333,0,801.22667)" />
      <path
         id="path24"
         d="m 2848.92,4482.98 c 59.15,31.66 118.29,63.31 177.44,94.95 18.93,-35.35 37.85,-70.71 56.77,-106.07 -59.15,-31.65 -118.3,-63.3 -177.43,-94.96 -18.93,35.37 -37.85,70.72 -56.78,106.08"
         style="fill:#626c76;fill-opacity:1;fill-rule:evenodd;stroke:none"
         transform="matrix(0.13333333,0,0,-0.13333333,0,801.22667)" />
      <path
         id="path25"
         d="m 2821.82,4642.14 v 0 c 10.77,5.77 24.29,1.67 30.06,-9.1 25,-46.73 50.01,-93.47 75.02,-140.2 5.78,-10.77 1.68,-24.3 -9.1,-30.07 v 0 c -10.77,-5.76 -24.29,-1.67 -30.06,9.11 -25.01,46.73 -50.01,93.47 -75.03,140.21 -5.75,10.77 -1.66,24.28 9.11,30.05"
         style="fill:#bdc6d1;fill-opacity:1;fill-rule:evenodd;stroke:none"
         transform="matrix(0.13333333,0,0,-0.13333333,0,801.22667)" />
      <path
         id="path26"
         d="m 2908.98,4688.79 v 0 c 10.77,5.77 24.3,1.67 30.05,-9.1 25.02,-46.74 50.03,-93.47 75.03,-140.21 5.77,-10.76 1.68,-24.29 -9.09,-30.06 v 0 c -10.78,-5.76 -24.3,-1.67 -30.07,9.11 -25,46.73 -50.01,93.47 -75.03,140.21 -5.75,10.77 -1.66,24.28 9.11,30.05"
         style="fill:#bdc6d1;fill-opacity:1;fill-rule:evenodd;stroke:none"
         transform="matrix(0.13333333,0,0,-0.13333333,0,801.22667)" />
      <path
         id="path27"
         d="m 3125.46,4630.97 c 59.13,31.65 118.28,63.3 177.43,94.95 18.92,-35.36 37.85,-70.71 56.76,-106.07 -59.14,-31.66 -118.28,-63.31 -177.43,-94.96 -18.92,35.36 -37.84,70.71 -56.76,106.08"
         style="fill:#626c76;fill-opacity:1;fill-rule:evenodd;stroke:none"
         transform="matrix(0.13333333,0,0,-0.13333333,0,801.22667)" />
      <path
         id="path28"
         d="m 3098.34,4790.12 v 0 c 10.77,5.77 24.3,1.68 30.06,-9.09 25.01,-46.74 50.03,-93.48 75.04,-140.21 5.76,-10.77 1.66,-24.3 -9.1,-30.06 v 0 c -10.78,-5.76 -24.31,-1.67 -30.06,9.1 -25.02,46.73 -50.03,93.47 -75.03,140.2 -5.77,10.78 -1.68,24.3 9.09,30.06"
         style="fill:#bdc6d1;fill-opacity:1;fill-rule:evenodd;stroke:none"
         transform="matrix(0.13333333,0,0,-0.13333333,0,801.22667)" />
      <path
         id="path29"
         d="m 3185.52,4836.78 v 0 c 10.76,5.75 24.28,1.66 30.05,-9.11 25.02,-46.73 50.02,-93.47 75.03,-140.2 5.77,-10.78 1.67,-24.3 -9.11,-30.06 v 0 c -10.77,-5.77 -24.28,-1.67 -30.05,9.1 -25.01,46.73 -50.02,93.47 -75.03,140.2 -5.78,10.78 -1.68,24.3 9.11,30.07"
         style="fill:#bdc6d1;fill-opacity:1;fill-rule:evenodd;stroke:none"
         transform="matrix(0.13333333,0,0,-0.13333333,0,801.22667)" />
      <path
         id="path30"
         d="m 3401.99,4778.95 177.43,94.96 56.77,-106.08 -177.44,-94.95 -56.76,106.07"
         style="fill:#626c76;fill-opacity:1;fill-rule:evenodd;stroke:none"
         transform="matrix(0.13333333,0,0,-0.13333333,0,801.22667)" />
      <path
         id="path31"
         d="m 3374.87,4938.11 v 0 c 10.77,5.77 24.29,1.67 30.06,-9.1 l 75.03,-140.21 c 5.77,-10.77 1.67,-24.29 -9.11,-30.05 v 0 c -10.75,-5.77 -24.29,-1.67 -30.04,9.1 l -75.05,140.2 c -5.75,10.77 -1.66,24.29 9.11,30.06"
         style="fill:#bdc6d1;fill-opacity:1;fill-rule:evenodd;stroke:none"
         transform="matrix(0.13333333,0,0,-0.13333333,0,801.22667)" />
      <path
         id="path32"
         d="m 3462.03,4984.76 v 0 c 10.77,5.76 24.3,1.67 30.07,-9.11 l 75.03,-140.2 c 5.76,-10.77 1.67,-24.29 -9.1,-30.05 v -0.01 c -10.77,-5.77 -24.31,-1.66 -30.06,9.11 l -75.03,140.2 c -5.77,10.77 -1.68,24.29 9.09,30.06"
         style="fill:#bdc6d1;fill-opacity:1;fill-rule:evenodd;stroke:none"
         transform="matrix(0.13333333,0,0,-0.13333333,0,801.22667)" />
      <path
         id="path33"
         d="m 2798.13,3122.86 -331.95,-38.73 68.25,-584.88 331.95,38.73 -68.25,584.88"
         style="fill:#568ad0;fill-opacity:1;fill-rule:evenodd;stroke:none"
         transform="matrix(0.13333333,0,0,-0.13333333,0,801.22667)" />
      <path
         id="path34"
         d="m 2918.79,2317.78 -384.66,-44.89 108.85,-932.64 384.65,44.9 -108.84,932.63"
         style="fill:#edf4fc;fill-opacity:1;fill-rule:evenodd;stroke:none"
         transform="matrix(0.13333333,0,0,-0.13333333,0,801.22667)" />
      <path
         id="path35"
         d="m 2634.41,1339.27 401.77,46.87 8,-68.49 -401.77,-46.87 -8,68.49"
         style="fill:#78aae0;fill-opacity:1;fill-rule:evenodd;stroke:none"
         transform="matrix(0.13333333,0,0,-0.13333333,0,801.22667)" />
      <path
         id="path36"
         d="m 2661.51,1273 363.57,42.42 23.13,-198.24 -363.57,-42.45 -23.13,198.27"
         style="fill:#6398d7;fill-opacity:1;fill-rule:evenodd;stroke:none"
         transform="matrix(0.13333333,0,0,-0.13333333,0,801.22667)" />
      <path
         id="path37"
         d="m 2897.87,2645.81 -418.91,-48.89 45.35,-388.59 418.9,48.88 -45.34,388.6"
         style="fill:#6398d7;fill-opacity:1;fill-rule:evenodd;stroke:none"
         transform="matrix(0.13333333,0,0,-0.13333333,0,801.22667)" />
      <path
         id="path38"
         d="m 5155.14,3019.92 -322.38,88.18 -155.36,-567.99 322.38,-88.18 155.36,567.99"
         style="fill:#769a2a;fill-opacity:1;fill-rule:evenodd;stroke:none"
         transform="matrix(0.13333333,0,0,-0.13333333,0,801.22667)" />
      <path
         id="path39"
         d="m 4966.05,2228.11 -373.54,102.17 -247.74,-905.68 373.52,-102.17 247.76,905.68"
         style="fill:#edf4fc;fill-opacity:1;fill-rule:evenodd;stroke:none"
         transform="matrix(0.13333333,0,0,-0.13333333,0,801.22667)" />
      <path
         id="path40"
         d="m 4336.46,1426.88 390.16,-106.73 -18.2,-66.52 -390.17,106.71 18.21,66.54"
         style="fill:#adda1a;fill-opacity:1;fill-rule:evenodd;stroke:none"
         transform="matrix(0.13333333,0,0,-0.13333333,0,801.22667)" />
      <path
         id="path41"
         d="m 4336.8,1355.28 353.07,-96.59 -52.66,-192.51 -353.06,96.57 52.65,192.53"
         style="fill:#87b027;fill-opacity:1;fill-rule:evenodd;stroke:none"
         transform="matrix(0.13333333,0,0,-0.13333333,0,801.22667)" />
      <path
         id="path42"
         d="m 5069.28,2540.17 -406.8,111.28 -103.23,-377.38 406.8,-111.27 103.23,377.37"
         style="fill:#87b027;fill-opacity:1;fill-rule:evenodd;stroke:none"
         transform="matrix(0.13333333,0,0,-0.13333333,0,801.22667)" />
      <path
         id="path43"
         d="m 1484.26,1978.77 -271.57,194.79 343.2,478.49 271.57,-194.78 -343.2,-478.5"
         style="fill:#da1257;fill-opacity:1;fill-rule:evenodd;stroke:none"
         transform="matrix(0.13333333,0,0,-0.13333333,0,801.22667)" />
      <path
         id="path44"
         d="m 1980.03,2624.46 -314.67,225.71 547.26,762.99 314.68,-225.71 -547.27,-762.99"
         style="fill:#edf4fc;fill-opacity:1;fill-rule:evenodd;stroke:none"
         transform="matrix(0.13333333,0,0,-0.13333333,0,801.22667)" />
      <path
         id="path45"
         d="m 2205.61,3618.19 328.7,-235.77 40.2,56.05 -328.7,235.76 -40.2,-56.04"
         style="fill:#f1438b;fill-opacity:1;fill-rule:evenodd;stroke:none"
         transform="matrix(0.13333333,0,0,-0.13333333,0,801.22667)" />
      <path
         id="path46"
         d="m 2261.44,3663.02 297.43,-213.35 116.34,162.2 -297.44,213.34 -116.33,-162.19"
         style="fill:#ed0e66;fill-opacity:1;fill-rule:evenodd;stroke:none"
         transform="matrix(0.13333333,0,0,-0.13333333,0,801.22667)" />
      <path
         id="path47"
         d="m 1802.73,2347.71 -342.7,245.79 228.03,317.92 342.7,-245.81 -228.03,-317.9"
         style="fill:#ed0e66;fill-opacity:1;fill-rule:evenodd;stroke:none"
         transform="matrix(0.13333333,0,0,-0.13333333,0,801.22667)" />
      <path
         id="path48"
         d="m 4221.74,4039.5 -333.12,27.08 -47.7,-586.91 333.11,-27.08 47.71,586.91"
         style="fill:#df8c16;fill-opacity:1;fill-rule:evenodd;stroke:none"
         transform="matrix(0.13333333,0,0,-0.13333333,0,801.22667)" />
      <path
         id="path49"
         d="m 4182.25,3226.4 -385.98,31.37 -76.07,-935.89 385.97,-31.36 76.08,935.88"
         style="fill:#edf4fc;fill-opacity:1;fill-rule:evenodd;stroke:none"
         transform="matrix(0.13333333,0,0,-0.13333333,0,801.22667)" />
      <path
         id="path50"
         d="m 3711.6,2322.59 403.18,-32.78 -5.6,-68.74 -403.17,32.78 5.59,68.74"
         style="fill:#fbca07;fill-opacity:1;fill-rule:evenodd;stroke:none"
         transform="matrix(0.13333333,0,0,-0.13333333,0,801.22667)" />
      <path
         id="path51"
         d="m 3725.19,2252.29 364.83,-29.64 -16.18,-198.96 -364.84,29.66 16.19,198.94"
         style="fill:#f39c0f;fill-opacity:1;fill-rule:evenodd;stroke:none"
         transform="matrix(0.13333333,0,0,-0.13333333,0,801.22667)" />
      <path
         id="path52"
         d="m 4226.03,3552.15 -420.35,34.17 -31.7,-389.94 420.36,-34.18 31.69,389.95"
         style="fill:#f39c0f;fill-opacity:1;fill-rule:evenodd;stroke:none"
         transform="matrix(0.13333333,0,0,-0.13333333,0,801.22667)" />
      <path
         id="path53"
         d="m 2022.67,234.629 c 0,6.551 -0.95,12.203 -2.89,16.84 -1.88,4.711 -4.55,8.32 -7.96,10.871 -3.4,2.488 -7.13,3.762 -11.28,3.762 -6.54,0 -12.06,-2.75 -16.57,-8.09 -4.51,-5.442 -6.76,-13.332 -6.76,-23.821 0,-9.871 2.25,-17.543 6.7,-22.972 4.48,-5.489 10.05,-8.27 16.63,-8.27 3.96,0 7.62,1.199 11,3.633 3.33,2.379 6.04,5.957 8.07,10.707 2.06,4.82 3.06,10.582 3.06,17.34 z m -46.56,36.101 v -2.98 c 4.46,5.742 9.09,10 13.9,12.66 4.82,2.711 10.3,4.07 16.4,4.07 7.29,0 14.02,-1.992 20.17,-5.929 6.14,-3.922 10.99,-9.641 14.58,-17.231 3.56,-7.59 5.33,-16.531 5.33,-26.89 0,-7.61 -1,-14.68 -3.06,-20.989 -2.05,-6.41 -4.89,-11.793 -8.5,-16.121 -3.59,-4.32 -7.85,-7.672 -12.73,-9.968 -4.92,-2.364 -10.2,-3.512 -15.79,-3.512 -6.83,0 -12.53,1.398 -17.14,4.262 -4.64,2.839 -9,6.988 -13.16,12.519 V 163.43 c 0,-10.93 -3.81,-16.348 -11.4,-16.348 -4.47,0 -7.44,1.379 -8.86,4.188 -1.46,2.82 -2.17,6.921 -2.17,12.308 v 107.004 c 0,4.707 0.95,8.258 2.95,10.566 1.98,2.321 4.67,3.524 8.08,3.524 3.37,0 6.12,-1.203 8.22,-3.621 2.11,-2.422 3.18,-5.852 3.18,-10.321"
         style="fill:#fab40a;fill-opacity:1;fill-rule:nonzero;stroke:none"
         transform="matrix(0.13333333,0,0,-0.13333333,0,801.22667)" />
      <path
         id="path54"
         d="m 2127.29,197.852 v 3.14 c -2.87,-3.75 -5.84,-6.883 -9,-9.402 -3.12,-2.602 -6.54,-4.469 -10.23,-5.699 -3.74,-1.219 -7.98,-1.852 -12.72,-1.852 -5.74,0 -10.88,1.25 -15.44,3.699 -4.57,2.481 -8.07,5.91 -10.56,10.262 -2.98,5.281 -4.45,12.852 -4.45,22.672 v 49.137 c 0,4.933 1.08,8.66 3.23,11.089 2.14,2.454 4.98,3.704 8.51,3.704 3.6,0 6.5,-1.25 8.71,-3.75 2.19,-2.481 3.3,-6.18 3.3,-11.043 v -39.7 c 0,-5.73 0.46,-10.55 1.35,-14.429 0.98,-3.93 2.62,-6.989 5.07,-9.219 2.36,-2.191 5.63,-3.281 9.73,-3.281 4.05,0 7.83,1.25 11.32,3.718 3.58,2.473 6.17,5.704 7.77,9.684 1.35,3.539 2,11.199 2,23.078 v 30.149 c 0,4.863 1.1,8.562 3.31,11.043 2.19,2.5 5.05,3.75 8.59,3.75 3.55,0 6.39,-1.25 8.52,-3.704 2.15,-2.429 3.2,-6.156 3.2,-11.089 V 198 c 0,-4.719 -0.99,-8.27 -3.08,-10.609 -2.03,-2.379 -4.67,-3.532 -7.93,-3.532 -3.25,0 -5.92,1.25 -8.04,3.653 -2.11,2.476 -3.16,5.879 -3.16,10.34"
         style="fill:#fab40a;fill-opacity:1;fill-rule:nonzero;stroke:none"
         transform="matrix(0.13333333,0,0,-0.13333333,0,801.22667)" />
      <path
         id="path55"
         d="m 2196.18,233.641 c 0,-9.86 2.15,-17.411 6.45,-22.731 4.33,-5.281 10,-7.961 17.03,-7.961 5.98,0 11.11,2.731 15.46,8.141 4.33,5.422 6.47,13.152 6.47,23.269 0,6.602 -0.9,12.211 -2.68,16.911 -1.82,4.75 -4.39,8.39 -7.65,10.949 -3.36,2.57 -7.19,3.883 -11.6,3.883 -4.56,0 -8.54,-1.313 -12.09,-3.883 -3.56,-2.559 -6.33,-6.297 -8.37,-11.18 -2.02,-4.828 -3.02,-10.617 -3.02,-17.398 z m -1.14,73.679 v -37.879 c 4.41,4.891 8.99,8.559 13.64,11.188 4.63,2.551 10.39,3.851 17.25,3.851 7.87,0 14.76,-1.992 20.74,-5.851 5.92,-3.957 10.57,-9.59 13.83,-16.988 3.29,-7.422 4.92,-16.2 4.92,-26.379 0,-7.532 -0.92,-14.403 -2.71,-20.692 -1.86,-6.25 -4.5,-11.66 -7.97,-16.3 -3.5,-4.579 -7.73,-8.09 -12.68,-10.688 -4.97,-2.473 -10.43,-3.742 -16.4,-3.742 -3.64,0 -7.09,0.461 -10.33,1.371 -3.23,0.891 -5.96,2.078 -8.2,3.598 -2.28,1.41 -4.21,2.992 -5.79,4.531 -1.61,1.601 -3.69,3.941 -6.3,7.09 V 198 c 0,-4.68 -1.08,-8.199 -3.25,-10.609 -2.13,-2.379 -4.88,-3.551 -8.15,-3.551 -3.39,0 -6.04,1.172 -8.06,3.551 -2,2.461 -2.99,5.949 -2.99,10.609 v 108.238 c 0,4.992 0.97,8.793 2.92,11.364 1.94,2.597 4.62,3.859 8.13,3.859 3.62,0 6.46,-1.231 8.41,-3.699 1.99,-2.43 2.99,-5.891 2.99,-10.442"
         style="fill:#fab40a;fill-opacity:1;fill-rule:nonzero;stroke:none"
         transform="matrix(0.13333333,0,0,-0.13333333,0,801.22667)" />
      <path
         id="path56"
         d="m 2282.18,198.93 v 107.472 c 0,4.977 1.05,8.707 3.16,11.27 2.13,2.527 4.98,3.789 8.58,3.789 3.59,0 6.48,-1.25 8.7,-3.762 2.17,-2.5 3.29,-6.297 3.29,-11.297 V 198.93 c 0,-5.028 -1.13,-8.821 -3.35,-11.348 -2.22,-2.473 -5.12,-3.742 -8.64,-3.742 -3.49,0 -6.29,1.301 -8.48,3.898 -2.19,2.621 -3.26,6.321 -3.26,11.192"
         style="fill:#fab40a;fill-opacity:1;fill-rule:nonzero;stroke:none"
         transform="matrix(0.13333333,0,0,-0.13333333,0,801.22667)" />
      <path
         id="path57"
         d="M 2354.19,270.512 V 198.93 c 0,-5 -1.15,-8.75 -3.38,-11.289 -2.27,-2.5 -5.16,-3.801 -8.61,-3.801 -3.5,0 -6.31,1.301 -8.49,3.879 -2.16,2.64 -3.27,6.34 -3.27,11.211 v 70.879 c 0,4.863 1.11,8.562 3.27,11.043 2.18,2.5 4.99,3.75 8.49,3.75 3.45,0 6.34,-1.25 8.61,-3.75 2.23,-2.481 3.38,-5.922 3.38,-10.34 z m -11.76,25.629 c -3.28,0 -6.11,1.05 -8.49,3.23 -2.3,2.09 -3.5,5.129 -3.5,9 0,3.5 1.2,6.359 3.61,8.668 2.39,2.281 5.19,3.352 8.38,3.352 3.08,0 5.82,-1.012 8.2,-3.051 2.35,-2.051 3.56,-5.078 3.56,-8.969 0,-3.84 -1.18,-6.812 -3.48,-8.941 -2.32,-2.149 -5.08,-3.289 -8.28,-3.289"
         style="fill:#fab40a;fill-opacity:1;fill-rule:nonzero;stroke:none"
         transform="matrix(0.13333333,0,0,-0.13333333,0,801.22667)" />
      <path
         id="path58"
         d="m 2463.78,214.52 c 0,-3.071 -0.87,-6.391 -2.62,-9.879 -1.81,-3.52 -4.49,-6.852 -8.12,-10.02 -3.62,-3.172 -8.19,-5.742 -13.69,-7.66 -5.49,-1.973 -11.73,-2.922 -18.6,-2.922 -14.69,0 -26.13,4.473 -34.37,13.383 -8.25,8.937 -12.36,20.867 -12.36,35.887 0,10.16 1.88,19.179 5.63,26.961 3.78,7.781 9.27,13.851 16.37,18.101 7.11,4.289 15.65,6.418 25.55,6.418 6.17,0 11.82,-0.957 16.96,-2.809 5.13,-1.89 9.47,-4.32 13.02,-7.261 3.58,-2.969 6.29,-6.141 8.21,-9.5 1.91,-3.34 2.81,-6.481 2.81,-9.387 0,-2.934 -1.08,-5.434 -3.17,-7.523 -2.13,-2.059 -4.67,-3.098 -7.7,-3.098 -1.98,0 -3.62,0.578 -4.93,1.641 -1.28,1.019 -2.78,2.687 -4.39,5.089 -2.91,4.579 -5.92,8.059 -9.09,10.399 -3.16,2.289 -7.19,3.469 -12.02,3.469 -7.05,0 -12.72,-2.899 -17,-8.61 -4.28,-5.758 -6.41,-13.57 -6.41,-23.5 0,-4.648 0.55,-8.969 1.64,-12.859 1.11,-3.918 2.72,-7.219 4.77,-9.988 2.11,-2.762 4.61,-4.84 7.6,-6.25 2.94,-1.454 6.19,-2.161 9.7,-2.161 4.79,0 8.84,1.129 12.23,3.45 3.42,2.32 6.41,5.828 9,10.511 1.48,2.84 3.03,5 4.73,6.598 1.68,1.57 3.75,2.309 6.17,2.309 2.89,0 5.3,-1.11 7.23,-3.411 1.87,-2.339 2.85,-4.769 2.85,-7.378"
         style="fill:#fab40a;fill-opacity:1;fill-rule:nonzero;stroke:none"
         transform="matrix(0.13333333,0,0,-0.13333333,0,801.22667)" />
      <path
         id="path59"
         d="m 2502.9,234.359 c 0,-6.707 1,-12.41 3.01,-17.148 1.99,-4.731 4.71,-8.25 8.16,-10.629 3.52,-2.434 7.31,-3.633 11.39,-3.633 4.2,0 8.01,1.16 11.44,3.41 3.46,2.282 6.2,5.77 8.29,10.461 2.05,4.668 3.06,10.539 3.06,17.539 0,6.641 -1.01,12.282 -3.06,17.051 -2.09,4.77 -4.85,8.379 -8.36,10.93 -3.5,2.488 -7.35,3.762 -11.51,3.762 -4.33,0 -8.2,-1.313 -11.66,-3.883 -3.38,-2.559 -6.05,-6.27 -7.93,-11.09 -1.87,-4.828 -2.83,-10.359 -2.83,-16.77 z M 2549.56,198 v 2.43 c -3.16,-3.821 -6.33,-6.899 -9.45,-9.282 -3.07,-2.41 -6.45,-4.218 -10.06,-5.468 -3.61,-1.2 -7.6,-1.84 -11.88,-1.84 -5.66,0 -10.95,1.269 -15.78,3.742 -4.82,2.598 -9.02,6.129 -12.54,10.789 -3.53,4.649 -6.22,10.141 -8.06,16.449 -1.84,6.27 -2.74,13.078 -2.74,20.442 0,15.457 3.63,27.59 10.86,36.238 7.27,8.66 16.8,12.98 28.62,12.98 6.85,0 12.63,-1.25 17.3,-3.75 4.69,-2.398 9.28,-6.179 13.73,-11.289 v 36.598 c 0,5.082 0.98,8.922 2.93,11.52 1.93,2.613 4.69,3.902 8.28,3.902 3.6,0 6.35,-1.199 8.32,-3.563 1.95,-2.378 2.94,-5.929 2.94,-10.578 V 198 c 0,-4.719 -1.05,-8.27 -3.15,-10.609 -2.09,-2.379 -4.79,-3.551 -8.11,-3.551 -3.2,0 -5.92,1.219 -8.05,3.672 -2.1,2.429 -3.16,5.91 -3.16,10.488"
         style="fill:#fab40a;fill-opacity:1;fill-rule:nonzero;stroke:none"
         transform="matrix(0.13333333,0,0,-0.13333333,0,801.22667)" />
      <path
         id="path60"
         d="m 2660.92,234.172 c 0,10.07 -2.15,17.957 -6.41,23.578 -4.26,5.602 -10,8.449 -17.17,8.449 -4.66,0 -8.73,-1.277 -12.28,-3.777 -3.52,-2.543 -6.25,-6.242 -8.17,-11.152 -1.91,-4.848 -2.87,-10.551 -2.87,-17.098 0,-6.481 0.96,-12.133 2.84,-16.961 1.87,-4.84 4.57,-8.551 8.1,-11.141 3.48,-2.539 7.66,-3.808 12.38,-3.808 7.17,0 12.91,2.797 17.17,8.457 4.26,5.633 6.41,13.48 6.41,23.453 z m 23.83,0 c 0,-7.352 -1.12,-14.16 -3.3,-20.442 -2.21,-6.171 -5.4,-11.55 -9.56,-16.031 -4.19,-4.5 -9.18,-7.847 -14.98,-10.308 -5.8,-2.379 -12.36,-3.551 -19.57,-3.551 -7.18,0 -13.65,1.172 -19.39,3.629 -5.74,2.402 -10.72,5.871 -14.94,10.383 -4.18,4.519 -7.37,9.82 -9.57,15.949 -2.17,6.187 -3.24,12.941 -3.24,20.41 0,7.5 1.11,14.348 3.3,20.578 2.2,6.25 5.35,11.551 9.47,16 4.12,4.41 9.1,7.813 14.98,10.203 5.88,2.379 12.3,3.61 19.39,3.61 7.19,0 13.73,-1.231 19.57,-3.653 5.84,-2.41 10.86,-5.89 15.04,-10.367 4.18,-4.48 7.35,-9.82 9.5,-16 2.22,-6.152 3.3,-12.98 3.3,-20.41"
         style="fill:#fab40a;fill-opacity:1;fill-rule:nonzero;stroke:none"
         transform="matrix(0.13333333,0,0,-0.13333333,0,801.22667)" />
      <path
         id="path61"
         d="m 2785.04,254.629 c -1.78,-4.188 -2.64,-11.57 -2.64,-22.219 v -32.93 c 0,-5.179 -1.11,-9.121 -3.4,-11.742 -2.24,-2.597 -5.25,-3.898 -8.96,-3.898 -3.58,0 -6.49,1.301 -8.69,3.898 -2.25,2.621 -3.34,6.563 -3.34,11.742 V 239 c 0,6.211 -0.24,11.051 -0.65,14.539 -0.41,3.422 -1.5,6.27 -3.3,8.492 -1.76,2.219 -4.63,3.328 -8.49,3.328 -7.76,0 -12.86,-2.789 -15.36,-8.398 -2.48,-5.551 -3.67,-13.551 -3.67,-23.969 V 199.48 c 0,-5.16 -1.13,-9.082 -3.34,-11.66 -2.24,-2.679 -5.19,-3.98 -8.81,-3.98 -3.61,0 -6.6,1.301 -8.86,3.98 -2.31,2.578 -3.4,6.5 -3.4,11.629 v 70.942 c 0,4.668 0.98,8.211 3.03,10.621 2.09,2.41 4.78,3.66 8.16,3.66 3.24,0 5.96,-1.133 8.13,-3.402 2.16,-2.282 3.26,-5.399 3.26,-9.399 v -2.359 c 4.1,5.16 8.51,8.937 13.2,11.34 4.69,2.41 9.96,3.628 15.66,3.628 5.96,0 11.06,-1.25 15.36,-3.75 4.31,-2.449 7.83,-6.218 10.6,-11.218 4.01,5.039 8.3,8.859 12.89,11.289 4.59,2.461 9.65,3.679 15.2,3.679 6.54,0 12.11,-1.3 16.79,-4 4.71,-2.671 8.21,-6.46 10.53,-11.441 2.05,-4.48 3.05,-11.519 3.05,-21.168 V 199.48 c 0,-5.179 -1.13,-9.121 -3.36,-11.742 -2.31,-2.597 -5.27,-3.898 -8.99,-3.898 -3.59,0 -6.54,1.301 -8.8,3.98 -2.33,2.578 -3.48,6.5 -3.48,11.66 v 41.7 c 0,5.32 -0.22,9.582 -0.65,12.789 -0.42,3.261 -1.6,5.91 -3.53,8.09 -1.89,2.191 -4.82,3.3 -8.67,3.3 -3.13,0 -6.12,-0.98 -8.89,-2.879 -2.87,-1.968 -5,-4.57 -6.58,-7.851 v 0"
         style="fill:#fab40a;fill-opacity:1;fill-rule:nonzero;stroke:none"
         transform="matrix(0.13333333,0,0,-0.13333333,0,801.22667)" />
      <path
         id="path62"
         d="m 2919.5,233.699 c -3.49,-1.359 -8.55,-2.738 -15.19,-4.25 -6.63,-1.48 -11.24,-2.551 -13.8,-3.269 -2.56,-0.711 -4.98,-2.051 -7.29,-4.071 -2.34,-2.078 -3.49,-4.898 -3.49,-8.539 0,-3.781 1.36,-6.961 4.08,-9.582 2.73,-2.656 6.31,-3.957 10.72,-3.957 4.69,0 9.04,1.09 13,3.25 3.98,2.117 6.89,4.93 8.73,8.301 2.15,3.75 3.24,9.906 3.24,18.59 z m 1.56,-35.91 c -5.76,-4.66 -11.3,-8.141 -16.68,-10.437 -5.34,-2.364 -11.37,-3.512 -18.01,-3.512 -6.14,0 -11.45,1.269 -16.08,3.742 -4.63,2.527 -8.16,5.949 -10.66,10.27 -2.48,4.289 -3.75,8.918 -3.75,13.957 0,6.781 2.11,12.55 6.21,17.339 4.08,4.743 9.75,7.961 16.91,9.614 1.53,0.359 5.28,1.148 11.23,2.418 6.02,1.3 11.1,2.449 15.4,3.5 4.24,1.039 8.89,2.332 13.87,3.84 -0.31,6.57 -1.56,11.359 -3.77,14.472 -2.24,3.028 -6.91,4.528 -13.89,4.528 -6.06,0 -10.57,-0.848 -13.66,-2.622 -3.02,-1.726 -5.64,-4.386 -7.79,-7.937 -2.21,-3.492 -3.71,-5.813 -4.61,-6.93 -0.92,-1.129 -2.85,-1.64 -5.78,-1.64 -2.7,0 -4.98,0.871 -6.89,2.64 -1.98,1.789 -2.95,4.059 -2.95,6.879 0,4.36 1.48,8.61 4.43,12.672 2.97,4.137 7.58,7.52 13.83,10.219 6.27,2.668 14.08,3.988 23.42,3.988 10.42,0 18.64,-1.32 24.63,-3.891 5.96,-2.527 10.16,-6.566 12.62,-12.199 2.48,-5.527 3.73,-12.937 3.73,-22.129 0,-5.8 0,-10.781 -0.06,-14.8 -0.05,-4.079 -0.05,-8.598 -0.13,-13.551 0,-4.649 0.74,-9.528 2.22,-14.547 1.45,-5.051 2.19,-8.32 2.19,-9.742 0,-2.551 -1.17,-4.891 -3.44,-6.969 -2.24,-2.07 -4.84,-3.121 -7.75,-3.121 -2.44,0 -4.82,1.172 -7.25,3.551 -2.34,2.41 -4.88,5.89 -7.54,10.398"
         style="fill:#fab40a;fill-opacity:1;fill-rule:nonzero;stroke:none"
         transform="matrix(0.13333333,0,0,-0.13333333,0,801.22667)" />
      <path
         id="path63"
         d="M 2990.67,270.512 V 198.93 c 0,-5 -1.13,-8.75 -3.38,-11.289 -2.26,-2.5 -5.11,-3.801 -8.59,-3.801 -3.48,0 -6.35,1.301 -8.49,3.879 -2.19,2.64 -3.27,6.34 -3.27,11.211 v 70.879 c 0,4.863 1.08,8.562 3.27,11.043 2.14,2.5 5.01,3.75 8.49,3.75 3.48,0 6.33,-1.25 8.59,-3.75 2.25,-2.481 3.38,-5.922 3.38,-10.34 z m -11.73,25.629 c -3.29,0 -6.1,1.05 -8.46,3.23 -2.35,2.09 -3.54,5.129 -3.54,9 0,3.5 1.21,6.359 3.64,8.668 2.38,2.281 5.19,3.352 8.36,3.352 3.06,0 5.82,-1.012 8.2,-3.051 2.34,-2.051 3.53,-5.078 3.53,-8.969 0,-3.84 -1.15,-6.812 -3.45,-8.941 -2.35,-2.149 -5.1,-3.289 -8.28,-3.289"
         style="fill:#fab40a;fill-opacity:1;fill-rule:nonzero;stroke:none"
         transform="matrix(0.13333333,0,0,-0.13333333,0,801.22667)" />
      <path
         id="path64"
         d="m 3036.81,270.871 v -2.961 c 4.14,5.719 8.73,9.949 13.65,12.641 4.98,2.679 10.66,4.051 17.15,4.051 6.23,0 11.83,-1.422 16.79,-4.313 4.89,-2.82 8.6,-6.797 11.02,-12.008 1.56,-3.062 2.56,-6.351 3.05,-9.832 0.43,-3.5 0.7,-7.969 0.7,-13.429 v -46.09 c 0,-5 -1.13,-8.75 -3.28,-11.289 -2.17,-2.5 -5.02,-3.801 -8.48,-3.801 -3.51,0 -6.4,1.301 -8.53,3.898 -2.23,2.621 -3.36,6.321 -3.36,11.192 v 41.261 c 0,8.207 -1.06,14.438 -3.23,18.77 -2.22,4.32 -6.56,6.5 -13.06,6.5 -4.22,0 -8.07,-1.32 -11.56,-3.981 -3.48,-2.589 -6.02,-6.23 -7.64,-10.839 -1.15,-3.68 -1.76,-10.559 -1.76,-20.731 v -30.98 c 0,-5.028 -1.11,-8.821 -3.36,-11.348 -2.24,-2.473 -5.12,-3.742 -8.63,-3.742 -3.42,0 -6.25,1.301 -8.44,3.879 -2.22,2.64 -3.32,6.34 -3.32,11.211 v 71.582 c 0,4.726 0.98,8.226 2.97,10.566 1.95,2.344 4.69,3.524 8.09,3.524 2.07,0 3.98,-0.563 5.62,-1.563 1.74,-1.008 3.05,-2.598 4.06,-4.59 1,-2.109 1.55,-4.609 1.55,-7.578"
         style="fill:#fab40a;fill-opacity:1;fill-rule:nonzero;stroke:none"
         transform="matrix(0.13333333,0,0,-0.13333333,0,801.22667)" />
      <path
         id="path65"
         d="m 3137.28,269.16 19.18,-56.262 20.7,58.723 c 1.66,4.719 3.24,8.027 4.82,10.02 1.6,1.937 3.93,2.961 7.11,2.961 3.03,0 5.59,-1.063 7.76,-3.223 2.07,-2.098 3.14,-4.508 3.14,-7.359 0,-1.079 -0.21,-2.329 -0.59,-3.739 -0.35,-1.492 -0.78,-2.859 -1.28,-4.152 -0.51,-1.231 -1.02,-2.707 -1.7,-4.32 l -22.8,-59 c -0.64,-1.688 -1.48,-3.86 -2.48,-6.469 -1.03,-2.578 -2.17,-4.781 -3.4,-6.692 -1.27,-1.816 -2.79,-3.218 -4.59,-4.257 -1.85,-1.02 -4.08,-1.551 -6.69,-1.551 -3.36,0 -6.04,0.789 -8.05,2.379 -2.01,1.613 -3.5,3.351 -4.44,5.293 -0.93,1.879 -2.57,5.66 -4.82,11.297 l -22.64,58.351 c -0.52,1.449 -1.07,2.91 -1.64,4.352 -0.52,1.449 -0.95,2.91 -1.36,4.437 -0.36,1.551 -0.57,2.84 -0.57,3.891 0,1.73 0.49,3.402 1.5,5.07 0.98,1.672 2.37,3.051 4.09,4.09 1.75,1.039 3.61,1.602 5.66,1.602 3.93,0 6.64,-1.18 8.12,-3.59 1.49,-2.34 3.15,-6.293 4.97,-11.852"
         style="fill:#fab40a;fill-opacity:1;fill-rule:nonzero;stroke:none"
         transform="matrix(0.13333333,0,0,-0.13333333,0,801.22667)" />
      <path
         id="path66"
         d="m 3234.4,242.25 h 43.05 c -0.57,8.441 -2.73,14.789 -6.56,18.969 -3.81,4.191 -8.81,6.301 -15.02,6.301 -5.88,0 -10.76,-2.129 -14.53,-6.391 -3.81,-4.238 -6.08,-10.547 -6.94,-18.879 z m 46.47,-14.102 h -46.47 c 0.02,-5.66 1.16,-10.589 3.23,-14.929 2.16,-4.258 4.96,-7.489 8.45,-9.688 3.52,-2.199 7.41,-3.261 11.64,-3.261 2.84,0 5.45,0.351 7.78,1.011 2.34,0.739 4.63,1.821 6.85,3.289 2.17,1.481 4.18,3.039 6.06,4.801 1.83,1.668 4.31,3.938 7.21,6.859 1.25,1.141 2.98,1.649 5.23,1.649 2.46,0 4.41,-0.668 5.92,-2.09 1.52,-1.41 2.24,-3.348 2.24,-5.879 0,-2.238 -0.82,-4.871 -2.52,-7.89 -1.68,-2.961 -4.16,-5.848 -7.61,-8.629 -3.4,-2.743 -7.66,-4.993 -12.8,-6.852 -5.09,-1.797 -10.97,-2.699 -17.69,-2.699 -15.24,0 -27.11,4.558 -35.55,13.601 -8.44,9.118 -12.67,21.411 -12.67,36.918 0,7.411 1.07,14.161 3.12,20.411 2.09,6.269 5.12,11.64 9.12,16.101 4.01,4.508 8.91,7.969 14.79,10.32 5.88,2.387 12.34,3.598 19.51,3.598 9.22,0 17.19,-2.051 23.83,-6.16 6.66,-4.078 11.62,-9.32 14.92,-15.777 3.32,-6.512 4.96,-13.082 4.96,-19.84 0,-6.203 -1.66,-10.25 -5.12,-12.071 -3.45,-1.89 -8.22,-2.793 -14.43,-2.793"
         style="fill:#fab40a;fill-opacity:1;fill-rule:nonzero;stroke:none"
         transform="matrix(0.13333333,0,0,-0.13333333,0,801.22667)" />
      <path
         id="path67"
         d="m 3405.62,214.52 c 0,-3.071 -0.88,-6.391 -2.68,-9.879 -1.78,-3.52 -4.43,-6.852 -8.09,-10.02 -3.61,-3.172 -8.2,-5.742 -13.73,-7.66 -5.49,-1.973 -11.72,-2.922 -18.57,-2.922 -14.71,0 -26.15,4.473 -34.38,13.383 -8.2,8.937 -12.36,20.867 -12.36,35.887 0,10.16 1.88,19.179 5.68,26.961 3.77,7.781 9.18,13.851 16.33,18.101 7.11,4.289 15.67,6.418 25.59,6.418 6.15,0 11.76,-0.957 16.93,-2.809 5.12,-1.89 9.44,-4.32 13.05,-7.261 3.57,-2.969 6.27,-6.141 8.18,-9.5 1.86,-3.34 2.81,-6.481 2.81,-9.387 0,-2.934 -1.03,-5.434 -3.22,-7.523 -2.09,-2.059 -4.65,-3.098 -7.65,-3.098 -2,0 -3.62,0.578 -4.89,1.641 -1.34,1.019 -2.79,2.687 -4.45,5.089 -2.89,4.579 -5.9,8.059 -9.06,10.399 -3.17,2.289 -7.19,3.469 -12.07,3.469 -6.98,0 -12.66,-2.899 -16.94,-8.61 -4.31,-5.758 -6.44,-13.57 -6.44,-23.5 0,-4.648 0.58,-8.969 1.64,-12.859 1.11,-3.918 2.71,-7.219 4.8,-9.988 2.09,-2.762 4.63,-4.84 7.58,-6.25 2.91,-1.454 6.17,-2.161 9.73,-2.161 4.74,0 8.85,1.129 12.22,3.45 3.38,2.32 6.41,5.828 9.03,10.511 1.44,2.84 2.99,5 4.69,6.598 1.66,1.57 3.71,2.309 6.17,2.309 2.87,0 5.31,-1.11 7.17,-3.411 1.95,-2.339 2.93,-4.769 2.93,-7.378"
         style="fill:#fab40a;fill-opacity:1;fill-rule:nonzero;stroke:none"
         transform="matrix(0.13333333,0,0,-0.13333333,0,801.22667)" />
      <path
         id="path68"
         d="m 3427.67,282.488 h 2.61 v 14.91 c 0,3.961 0.1,7.133 0.32,9.391 0.19,2.27 0.72,4.191 1.69,5.84 0.9,1.672 2.25,3.07 4.01,4.141 1.72,1.039 3.65,1.539 5.8,1.539 3.01,0 5.74,-1.168 8.16,-3.508 1.61,-1.602 2.66,-3.492 3.09,-5.742 0.45,-2.27 0.64,-5.528 0.64,-9.688 v -16.883 h 8.73 c 3.36,0 5.94,-0.828 7.7,-2.5 1.8,-1.656 2.66,-3.769 2.66,-6.379 0,-3.328 -1.25,-5.699 -3.81,-7 -2.5,-1.308 -6.12,-1.98 -10.82,-1.98 h -4.46 V 218.98 c 0,-3.878 0.14,-6.859 0.39,-8.968 0.3,-2.114 1.04,-3.801 2.15,-5.071 1.1,-1.32 2.93,-1.992 5.51,-1.992 1.39,0 3.26,0.25 5.67,0.789 2.32,0.512 4.17,0.762 5.54,0.762 1.9,0 3.67,-0.828 5.18,-2.359 1.5,-1.641 2.3,-3.59 2.3,-5.969 0,-3.981 -2.05,-7.031 -6.25,-9.172 -4.22,-2.109 -10.19,-3.16 -18.01,-3.16 -7.42,0 -13.06,1.301 -16.89,3.898 -3.81,2.621 -6.35,6.192 -7.5,10.84 -1.21,4.602 -1.8,10.731 -1.8,18.422 v 47.629 h -3.16 c -3.36,0 -5.98,0.832 -7.79,2.551 -1.82,1.679 -2.7,3.82 -2.7,6.429 0,2.61 0.94,4.723 2.79,6.379 1.92,1.672 4.65,2.5 8.25,2.5"
         style="fill:#fab40a;fill-opacity:1;fill-rule:nonzero;stroke:none"
         transform="matrix(0.13333333,0,0,-0.13333333,0,801.22667)" />
      <path
         id="path69"
         d="m 3554.44,234.172 c 0,10.07 -2.15,17.957 -6.38,23.578 -4.3,5.602 -9.98,8.449 -17.19,8.449 -4.65,0 -8.73,-1.277 -12.27,-3.777 -3.55,-2.543 -6.27,-6.242 -8.16,-11.152 -1.91,-4.848 -2.89,-10.551 -2.89,-17.098 0,-6.481 0.98,-12.133 2.85,-16.961 1.88,-4.84 4.55,-8.551 8.07,-11.141 3.49,-2.539 7.61,-3.808 12.4,-3.808 7.21,0 12.89,2.797 17.19,8.457 4.23,5.633 6.38,13.48 6.38,23.453 z m 23.83,0 c 0,-7.352 -1.09,-14.16 -3.32,-20.442 -2.19,-6.171 -5.39,-11.55 -9.55,-16.031 -4.18,-4.5 -9.18,-7.847 -14.96,-10.308 -5.8,-2.379 -12.29,-3.551 -19.57,-3.551 -7.23,0 -13.69,1.172 -19.41,3.629 -5.73,2.402 -10.73,5.871 -14.91,10.383 -4.2,4.519 -7.4,9.82 -9.55,15.949 -2.17,6.187 -3.24,12.941 -3.24,20.41 0,7.5 1.07,14.348 3.24,20.578 2.27,6.25 5.37,11.551 9.49,16 4.14,4.41 9.13,7.813 14.97,10.203 5.91,2.379 12.36,3.61 19.41,3.61 7.21,0 13.69,-1.231 19.57,-3.653 5.86,-2.41 10.86,-5.89 15.04,-10.367 4.14,-4.48 7.38,-9.82 9.53,-16 2.17,-6.152 3.26,-12.98 3.26,-20.41"
         style="fill:#fab40a;fill-opacity:1;fill-rule:nonzero;stroke:none"
         transform="matrix(0.13333333,0,0,-0.13333333,0,801.22667)" />
      <path
         id="path70"
         d="M 3620.58,219.559 V 198.93 c 0,-5.028 -1.14,-8.821 -3.4,-11.348 -2.27,-2.473 -5.14,-3.742 -8.64,-3.742 -3.39,0 -6.23,1.301 -8.41,3.801 -2.21,2.539 -3.28,6.289 -3.28,11.289 v 68.961 c 0,11.148 3.82,16.711 11.54,16.711 3.9,0 6.78,-1.34 8.53,-3.922 1.72,-2.578 2.64,-6.45 2.87,-11.52 2.84,5.07 5.77,8.942 8.75,11.52 2.99,2.582 6.96,3.922 11.92,3.922 5.04,0 9.84,-1.34 14.57,-3.922 4.67,-2.578 7.05,-6.051 7.05,-10.34 0,-3.031 -1.04,-5.551 -3.03,-7.488 -1.97,-1.954 -4.14,-2.973 -6.48,-2.973 -0.86,0 -2.97,0.582 -6.31,1.711 -3.34,1.121 -6.29,1.691 -8.85,1.691 -3.45,0 -6.29,-0.941 -8.47,-2.89 -2.21,-1.922 -3.93,-4.719 -5.16,-8.469 -1.21,-3.781 -2.09,-8.223 -2.52,-13.422 -0.45,-5.141 -0.68,-11.441 -0.68,-18.941"
         style="fill:#fab40a;fill-opacity:1;fill-rule:nonzero;stroke:none"
         transform="matrix(0.13333333,0,0,-0.13333333,0,801.22667)" />
      <path
         id="path71"
         d="m 3747.06,216.211 c 0,-6.84 -1.6,-12.68 -4.82,-17.57 -3.21,-4.879 -7.91,-8.532 -14.14,-11.082 -6.25,-2.45 -13.81,-3.719 -22.8,-3.719 -8.45,0 -15.8,1.371 -21.91,4.09 -6.08,2.718 -10.59,6.109 -13.46,10.191 -2.93,4.059 -4.41,8.16 -4.41,12.258 0,2.73 0.95,5.07 2.85,6.992 1.84,1.969 4.2,2.91 7.01,2.91 2.5,0 4.43,-0.64 5.76,-1.89 1.35,-1.332 2.58,-3.09 3.83,-5.371 2.44,-4.45 5.33,-7.739 8.77,-9.918 3.34,-2.211 7.99,-3.282 13.89,-3.282 4.72,0 8.63,1.121 11.68,3.328 3.02,2.204 4.61,4.731 4.61,7.571 0,4.383 -1.63,7.57 -4.75,9.531 -3.2,2.051 -8.38,3.949 -15.64,5.75 -8.17,2.129 -14.83,4.352 -19.97,6.672 -5.13,2.328 -9.29,5.437 -12.34,9.226 -3.07,3.774 -4.63,8.5 -4.63,14.071 0,4.98 1.43,9.672 4.28,14.051 2.83,4.441 7.07,7.96 12.6,10.609 5.52,2.633 12.2,3.973 20.06,3.973 6.13,0 11.66,-0.692 16.58,-2.012 4.88,-1.32 9.02,-3.129 12.24,-5.348 3.28,-2.254 5.8,-4.722 7.5,-7.433 1.74,-2.758 2.58,-5.418 2.58,-8 0,-2.848 -0.9,-5.137 -2.75,-7.02 -1.84,-1.75 -4.46,-2.68 -7.78,-2.68 -2.46,0 -4.51,0.711 -6.25,2.2 -1.68,1.429 -3.67,3.601 -5.86,6.472 -1.79,2.43 -3.9,4.391 -6.36,5.828 -2.44,1.442 -5.74,2.18 -9.9,2.18 -4.3,0 -7.9,-0.949 -10.69,-2.867 -2.85,-1.902 -4.3,-4.281 -4.3,-7.133 0,-2.609 1.06,-4.738 3.13,-6.41 2.11,-1.66 4.9,-3.027 8.46,-4.141 3.55,-1.09 8.41,-2.449 14.63,-3.996 7.36,-1.863 13.37,-4.101 18.04,-6.722 4.67,-2.579 8.21,-5.641 10.61,-9.2 2.44,-3.57 3.65,-7.601 3.65,-12.109"
         style="fill:#fab40a;fill-opacity:1;fill-rule:nonzero;stroke:none"
         transform="matrix(0.13333333,0,0,-0.13333333,0,801.22667)" />
      <path
         id="path72"
         d="m 3774.01,183.84 c -3.59,0 -6.7,1.172 -9.27,3.629 -2.66,2.402 -3.95,5.812 -3.95,10.14 0,3.672 1.23,6.86 3.69,9.532 2.5,2.648 5.61,3.949 9.26,3.949 3.63,0 6.76,-1.301 9.28,-3.93 2.61,-2.59 3.92,-5.828 3.92,-9.551 0,-4.289 -1.31,-7.668 -3.92,-10.097 -2.52,-2.453 -5.53,-3.672 -9.01,-3.672"
         style="fill:#fab40a;fill-opacity:1;fill-rule:nonzero;stroke:none"
         transform="matrix(0.13333333,0,0,-0.13333333,0,801.22667)" />
      <path
         id="path73"
         d="m 3879.01,234.172 c 0,10.07 -2.14,17.957 -6.4,23.578 -4.26,5.602 -9.96,8.449 -17.15,8.449 -4.65,0 -8.69,-1.277 -12.25,-3.777 -3.55,-2.543 -6.27,-6.242 -8.16,-11.152 -1.9,-4.848 -2.87,-10.551 -2.87,-17.098 0,-6.481 0.92,-12.133 2.79,-16.961 1.93,-4.84 4.61,-8.551 8.13,-11.141 3.49,-2.539 7.61,-3.808 12.36,-3.808 7.19,0 12.89,2.797 17.15,8.457 4.26,5.633 6.4,13.48 6.4,23.453 z m 23.87,0 c 0,-7.352 -1.09,-14.16 -3.34,-20.442 -2.21,-6.171 -5.37,-11.55 -9.55,-16.031 -4.2,-4.5 -9.12,-7.847 -14.96,-10.308 -5.78,-2.379 -12.31,-3.551 -19.57,-3.551 -7.19,0 -13.65,1.172 -19.4,3.629 -5.74,2.402 -10.68,5.871 -14.88,10.383 -4.26,4.519 -7.42,9.82 -9.63,15.949 -2.13,6.187 -3.22,12.941 -3.22,20.41 0,7.5 1.09,14.348 3.3,20.578 2.25,6.25 5.35,11.551 9.45,16 4.13,4.41 9.13,7.813 14.98,10.203 5.86,2.379 12.29,3.61 19.4,3.61 7.19,0 13.71,-1.231 19.57,-3.653 5.88,-2.41 10.88,-5.89 15.06,-10.367 4.16,-4.48 7.32,-9.82 9.53,-16 2.17,-6.152 3.26,-12.98 3.26,-20.41"
         style="fill:#fab40a;fill-opacity:1;fill-rule:nonzero;stroke:none"
         transform="matrix(0.13333333,0,0,-0.13333333,0,801.22667)" />
      <path
         id="path74"
         d="M 3945.17,219.559 V 198.93 c 0,-5.028 -1.14,-8.821 -3.38,-11.348 -2.25,-2.473 -5.14,-3.742 -8.6,-3.742 -3.47,0 -6.25,1.301 -8.47,3.801 -2.21,2.539 -3.3,6.289 -3.3,11.289 v 68.961 c 0,11.148 3.9,16.711 11.58,16.711 3.94,0 6.76,-1.34 8.49,-3.922 1.72,-2.578 2.74,-6.45 2.93,-11.52 2.8,5.07 5.71,8.942 8.7,11.52 2.98,2.582 6.99,3.922 11.93,3.922 5.06,0 9.9,-1.34 14.55,-3.922 4.71,-2.578 7.07,-6.051 7.07,-10.34 0,-3.031 -1.02,-5.551 -2.99,-7.488 -2.03,-1.954 -4.16,-2.973 -6.52,-2.973 -0.84,0 -2.93,0.582 -6.27,1.711 -3.34,1.121 -6.29,1.691 -8.87,1.691 -3.46,0 -6.27,-0.941 -8.53,-2.89 -2.17,-1.922 -3.89,-4.719 -5.12,-8.469 -1.19,-3.781 -2.05,-8.223 -2.5,-13.422 -0.45,-5.141 -0.7,-11.441 -0.7,-18.941"
         style="fill:#fab40a;fill-opacity:1;fill-rule:nonzero;stroke:none"
         transform="matrix(0.13333333,0,0,-0.13333333,0,801.22667)" />
      <path
         id="path75"
         d="m 4013.72,235.02 c 0,-10.02 2.11,-17.629 6.33,-22.79 4.18,-5.121 9.65,-7.73 16.27,-7.73 3.92,0 7.69,1.148 11.19,3.359 3.52,2.223 6.37,5.532 8.59,9.973 2.21,4.469 3.28,9.859 3.28,16.188 0,10.101 -2.14,17.96 -6.4,23.589 -4.24,5.672 -9.86,8.493 -16.8,8.493 -6.76,0 -12.22,-2.75 -16.29,-8.09 -4.12,-5.422 -6.17,-13.051 -6.17,-22.992 z m 68.83,31.441 V 194.43 c 0,-8.239 -0.9,-15.321 -2.54,-21.219 -1.68,-5.961 -4.39,-10.859 -8.09,-14.719 -3.71,-3.883 -8.59,-6.73 -14.55,-8.633 -6.01,-1.82 -13.49,-2.777 -22.4,-2.777 -8.2,0 -15.53,1.148 -21.93,3.547 -6.45,2.453 -11.41,5.48 -14.89,9.293 -3.47,3.75 -5.23,7.648 -5.23,11.668 0,3.031 0.98,5.492 2.99,7.379 1.95,1.953 4.33,2.902 7.11,2.902 3.49,0 6.5,-1.633 9.16,-4.82 1.27,-1.68 2.61,-3.313 3.94,-4.949 1.35,-1.692 2.85,-3.133 4.51,-4.282 1.66,-1.211 3.68,-2.082 6,-2.66 2.27,-0.578 4.96,-0.859 7.99,-0.859 6.11,0 10.94,0.91 14.3,2.679 3.39,1.77 5.78,4.27 7.16,7.469 1.31,3.211 2.17,6.621 2.31,10.313 0.29,3.707 0.45,9.558 0.6,17.679 -3.65,-5.3 -7.93,-9.371 -12.67,-12.152 -4.77,-2.777 -10.49,-4.141 -17.05,-4.141 -8.01,0 -14.96,2.071 -20.86,6.34 -5.98,4.242 -10.55,10.141 -13.73,17.801 -3.15,7.59 -4.79,16.402 -4.79,26.402 0,7.481 0.96,14.207 2.95,20.2 1.9,5.961 4.65,11.019 8.3,15.14 3.56,4.117 7.74,7.231 12.42,9.328 4.73,2.063 9.83,3.121 15.49,3.121 6.7,0 12.54,-1.359 17.46,-4.07 4.98,-2.66 9.52,-6.918 13.75,-12.66 v 3.328 c 0,4.332 1.06,7.621 3.05,10.051 2.03,2.34 4.65,3.543 7.81,3.543 4.61,0 7.66,-1.551 9.18,-4.684 1.49,-3.117 2.25,-7.66 2.25,-13.527"
         style="fill:#fab40a;fill-opacity:1;fill-rule:nonzero;stroke:none"
         transform="matrix(0.13333333,0,0,-0.13333333,0,801.22667)" />
      <path
         id="path76"
         d="m 3053.37,507.762 h 35.23 c -2.5,-18.992 -10.27,-33.813 -23.22,-44.481 -11.97,-10.441 -26.48,-15.59 -43.44,-15.59 -22.98,0 -41.34,8.071 -55.04,24.2 -13,15.339 -19.49,35.14 -19.49,59.328 0,24.801 6.45,44.621 19.32,59.621 12.81,14.941 30.99,22.461 54.45,22.461 17.46,0 32.23,-4.731 44.2,-14.102 12.72,-10.117 20.47,-24.347 23.22,-42.578 h -35.23 c -3.03,15.899 -12.75,23.82 -29.28,23.82 -27.21,0 -40.86,-16.132 -40.86,-48.402 0,-15.117 3.52,-27.457 10.51,-37.09 7.01,-9.64 16.88,-14.457 29.63,-14.457 18.96,0 28.98,9.098 30,27.27 z m -138.65,22.218 c 0,-31.519 10,-58.21 29.98,-79.929 19.98,-21.762 44.41,-32.641 73.43,-32.641 28.93,0 53.4,10.879 73.36,32.641 20,21.719 29.95,48.41 29.95,79.929 0,31.5 -9.95,58.161 -29.95,79.911 -19.96,21.769 -44.43,32.64 -73.36,32.64 -29.02,0 -53.45,-10.871 -73.43,-32.64 -19.98,-21.75 -29.98,-48.411 -29.98,-79.911 z m -35.77,0 c 0,40.11 13.57,74.34 40.75,102.782 27.18,28.386 60.02,42.59 98.43,42.59 38.38,0 71.16,-14.204 98.38,-42.59 27.19,-28.442 40.8,-62.672 40.8,-102.782 0,-40.14 -13.61,-74.421 -40.8,-102.8 -27.22,-28.418 -60,-42.629 -98.38,-42.629 -38.41,0 -71.25,14.211 -98.43,42.629 -27.18,28.379 -40.75,62.66 -40.75,102.8"
         style="fill:#fab40a;fill-opacity:1;fill-rule:nonzero;stroke:none"
         transform="matrix(0.13333333,0,0,-0.13333333,0,801.22667)" />
      <path
         id="path77"
         d="m 2935.26,438.801 20.3,-17.219 149.29,191.688 -20.29,17.199 -149.3,-191.668"
         style="fill:#fab40a;fill-opacity:1;fill-rule:nonzero;stroke:none"
         transform="matrix(0.13333333,0,0,-0.13333333,0,801.22667)" />
    </g>
  </g>
</svg>
