<?xml version="1.0" encoding="UTF-8" standalone="no"?>
<!-- Created with Inkscape (http://www.inkscape.org/) -->

<svg
   version="1.1"
   id="svg1"
   width="716.67999"
   height="816.06665"
   viewBox="0 0 716.67999 816.06665"
   sodipodi:docname="opinion-poll.svg"
   inkscape:version="1.3.2 (091e20ef0f, 2023-11-25, custom)"
   xmlns:inkscape="http://www.inkscape.org/namespaces/inkscape"
   xmlns:sodipodi="http://sodipodi.sourceforge.net/DTD/sodipodi-0.dtd"
   xmlns="http://www.w3.org/2000/svg"
   xmlns:svg="http://www.w3.org/2000/svg">
  <defs
     id="defs1" />
  <sodipodi:namedview
     id="namedview1"
     pagecolor="#505050"
     bordercolor="#ffffff"
     borderopacity="1"
     inkscape:showpageshadow="0"
     inkscape:pageopacity="0"
     inkscape:pagecheckerboard="1"
     inkscape:deskcolor="#d1d1d1"
     inkscape:zoom="0.89440197"
     inkscape:cx="358.34"
     inkscape:cy="408.09391"
     inkscape:window-width="1920"
     inkscape:window-height="1002"
     inkscape:window-x="0"
     inkscape:window-y="0"
     inkscape:window-maximized="1"
     inkscape:current-layer="g1">
    <inkscape:page
       x="0"
       y="0"
       inkscape:label="1"
       id="page1"
       width="716.67999"
       height="816.06665"
       margin="0"
       bleed="0" />
  </sodipodi:namedview>
  <g
     id="g1"
     inkscape:groupmode="layer"
     inkscape:label="1">
    <g
       id="group-R5">
      <path
         id="path2"
         d="m 1512.74,100.262 c 0,7.519 -1.07,14 -3.3,19.308 -2.16,5.379 -5.2,9.532 -9.1,12.461 -3.89,2.84 -8.18,4.301 -12.92,4.301 -7.49,0 -13.83,-3.16 -18.99,-9.293 -5.15,-6.199 -7.73,-15.258 -7.73,-27.2577 0,-11.3204 2.58,-20.1094 7.65,-26.3125 5.16,-6.2969 11.52,-9.4688 19.07,-9.4688 4.51,0 8.73,1.3711 12.59,4.1523 3.8,2.7383 6.9,6.836 9.24,12.2696 2.35,5.5195 3.49,12.0976 3.49,19.8401 z m -53.31,41.379 v -3.422 c 5.11,6.543 10.4,11.453 15.91,14.48 5.53,3.11 11.81,4.672 18.8,4.672 8.35,0 16.06,-2.269 23.1,-6.781 7.03,-4.508 12.58,-11.059 16.7,-19.758 4.08,-8.684 6.08,-18.922 6.08,-30.781 0,-8.719 -1.13,-16.8401 -3.5,-24.051 -2.35,-7.3203 -5.6,-13.5 -9.7,-18.4414 -4.12,-4.957 -9.03,-8.7891 -14.6,-11.4297 -5.64,-2.707 -11.69,-4.0195 -18.08,-4.0195 -7.82,0 -14.35,1.6211 -19.62,4.8789 -5.33,3.2539 -10.33,8.0117 -15.09,14.332 V 18.7188 C 1459.43,6.21875 1455.07,0 1446.37,0 c -5.11,0 -8.52,1.58984 -10.13,4.78906 -1.68,3.24219 -2.5,7.95314 -2.5,14.10154 V 141.449 c 0,5.403 1.08,9.461 3.37,12.114 2.29,2.648 5.37,4.019 9.26,4.019 3.86,0 7,-1.371 9.42,-4.152 2.41,-2.75 3.64,-6.688 3.64,-11.789"
         style="fill:#100f0d;fill-opacity:1;fill-rule:nonzero;stroke:none"
         transform="matrix(0.13333333,0,0,-0.13333333,0,816.06667)" />
      <path
         id="path3"
         d="M 1632.57,58.1602 V 61.75 c -3.27,-4.2891 -6.69,-7.8789 -10.28,-10.7812 -3.59,-2.9571 -7.51,-5.0977 -11.74,-6.5 -4.3,-1.418 -9.13,-2.1368 -14.58,-2.1368 -6.54,0 -12.44,1.4375 -17.67,4.2461 -5.22,2.8321 -9.27,6.7735 -12.08,11.7539 -3.45,6.0274 -5.1,14.6993 -5.1,25.9571 v 56.2699 c 0,5.652 1.23,9.933 3.69,12.722 2.47,2.801 5.7,4.219 9.74,4.219 4.14,0 7.44,-1.418 9.98,-4.289 2.53,-2.852 3.77,-7.082 3.77,-12.652 V 95.082 c 0,-6.5312 0.52,-12.082 1.56,-16.5117 1.11,-4.4922 3.02,-7.9883 5.8,-10.5586 2.7,-2.4922 6.45,-3.7617 11.17,-3.7617 4.63,0 8.93,1.4414 12.96,4.2695 4.08,2.8125 7.05,6.5196 8.89,11.1016 1.53,4.0195 2.28,12.8203 2.28,26.3989 v 34.539 c 0,5.57 1.26,9.8 3.81,12.652 2.5,2.871 5.75,4.289 9.83,4.289 4.06,0 7.3,-1.418 9.77,-4.219 2.42,-2.789 3.63,-7.07 3.63,-12.722 V 58.332 c 0,-5.4023 -1.12,-9.4804 -3.49,-12.1523 -2.33,-2.7383 -5.37,-4.0508 -9.1,-4.0508 -3.71,0 -6.77,1.4336 -9.21,4.1719 -2.42,2.8476 -3.63,6.7305 -3.63,11.8594"
         style="fill:#100f0d;fill-opacity:1;fill-rule:nonzero;stroke:none"
         transform="matrix(0.13333333,0,0,-0.13333333,0,816.06667)" />
      <path
         id="path4"
         d="m 1711.47,99.1406 c 0,-11.289 2.46,-19.9297 7.38,-26.0312 4.97,-6.0274 11.47,-9.1094 19.52,-9.1094 6.85,0 12.71,3.1289 17.69,9.3203 4.98,6.2188 7.46,15.0586 7.46,26.6485 0,7.5702 -1.04,13.9722 -3.11,19.3632 -2.08,5.438 -5.02,9.617 -8.76,12.539 -3.85,2.942 -8.21,4.461 -13.28,4.461 -5.23,0 -9.77,-1.519 -13.85,-4.461 -4.08,-2.922 -7.24,-7.199 -9.58,-12.801 -2.33,-5.539 -3.47,-12.16 -3.47,-19.9294 z m -1.29,84.3794 v -43.391 c 5.05,5.601 10.3,9.801 15.6,12.82 5.32,2.93 11.93,4.422 19.74,4.422 9.05,0 16.96,-2.269 23.77,-6.691 6.79,-4.551 12.11,-10.989 15.84,-19.481 3.79,-8.48 5.64,-18.558 5.64,-30.199 0,-8.6094 -1.03,-16.4805 -3.1,-23.7109 -2.11,-7.1368 -5.12,-13.3282 -9.12,-18.6602 -4.02,-5.2305 -8.86,-9.2695 -14.51,-12.25 -5.71,-2.8164 -11.97,-4.2695 -18.81,-4.2695 -4.14,0 -8.12,0.5195 -11.82,1.539 -3.68,1.0508 -6.85,2.4141 -9.37,4.1602 -2.63,1.6016 -4.84,3.4219 -6.68,5.1836 -1.81,1.8281 -4.2,4.5078 -7.18,8.1094 V 58.332 c 0,-5.3632 -1.26,-9.4023 -3.72,-12.1523 -2.43,-2.7383 -5.6,-4.0703 -9.35,-4.0703 -3.87,0 -6.92,1.332 -9.25,4.0703 -2.26,2.8125 -3.41,6.8125 -3.41,12.1523 v 123.957 c 0,5.711 1.11,10.07 3.36,13.012 2.21,2.961 5.29,4.418 9.3,4.418 4.17,0 7.4,-1.387 9.63,-4.219 2.29,-2.789 3.44,-6.762 3.44,-11.98"
         style="fill:#100f0d;fill-opacity:1;fill-rule:nonzero;stroke:none"
         transform="matrix(0.13333333,0,0,-0.13333333,0,816.06667)" />
      <path
         id="path5"
         d="M 1809.97,59.3789 V 182.469 c 0,5.711 1.21,9.98 3.6,12.91 2.47,2.883 5.72,4.34 9.84,4.34 4.12,0 7.42,-1.41 9.96,-4.297 2.49,-2.863 3.8,-7.223 3.8,-12.953 V 59.3789 c 0,-5.7578 -1.31,-10.0976 -3.86,-13 -2.54,-2.8164 -5.85,-4.2695 -9.9,-4.2695 -3.99,0 -7.18,1.4922 -9.69,4.4687 -2.5,2.9922 -3.75,7.2422 -3.75,12.8008"
         style="fill:#100f0d;fill-opacity:1;fill-rule:nonzero;stroke:none"
         transform="matrix(0.13333333,0,0,-0.13333333,0,816.06667)" />
      <path
         id="path6"
         d="M 1892.44,141.371 V 59.3789 c 0,-5.7187 -1.33,-10.0195 -3.85,-12.9297 -2.62,-2.8476 -5.92,-4.3398 -9.87,-4.3398 -4,0 -7.25,1.4922 -9.73,4.4414 -2.46,3.0195 -3.75,7.2695 -3.75,12.8281 v 81.1801 c 0,5.57 1.29,9.8 3.75,12.652 2.48,2.871 5.73,4.289 9.73,4.289 3.95,0 7.25,-1.418 9.87,-4.289 2.52,-2.852 3.85,-6.781 3.85,-11.84 z m -13.45,29.348 c -3.79,0 -7,1.211 -9.75,3.703 -2.62,2.41 -4,5.867 -4,10.32 0,3.996 1.38,7.278 4.15,9.93 2.75,2.598 5.95,3.82 9.6,3.82 3.51,0 6.65,-1.14 9.37,-3.48 2.71,-2.36 4.08,-5.821 4.08,-10.27 0,-4.414 -1.34,-7.82 -4,-10.242 -2.66,-2.461 -5.77,-3.781 -9.45,-3.781"
         style="fill:#100f0d;fill-opacity:1;fill-rule:nonzero;stroke:none"
         transform="matrix(0.13333333,0,0,-0.13333333,0,816.06667)" />
      <path
         id="path7"
         d="m 2017.96,77.25 c 0,-3.5117 -0.99,-7.3086 -3.01,-11.3281 -2.05,-4.0196 -5.14,-7.8321 -9.3,-11.4805 -4.13,-3.6211 -9.36,-6.5508 -15.67,-8.75 -6.31,-2.2695 -13.43,-3.3594 -21.31,-3.3594 -16.82,0 -29.93,5.1289 -39.37,15.3282 -9.41,10.2304 -14.14,23.8984 -14.14,41.1093 0,11.6405 2.15,21.9605 6.45,30.8785 4.31,8.883 10.61,15.852 18.74,20.711 8.15,4.922 17.95,7.36 29.27,7.36 7.06,0 13.53,-1.098 19.42,-3.219 5.87,-2.168 10.85,-4.949 14.93,-8.309 4.08,-3.41 7.2,-7.043 9.37,-10.863 2.18,-3.836 3.23,-7.437 3.23,-10.769 0,-3.348 -1.24,-6.227 -3.63,-8.61 -2.45,-2.379 -5.35,-3.539 -8.81,-3.539 -2.28,0 -4.13,0.649 -5.66,1.86 -1.45,1.179 -3.15,3.082 -5.03,5.839 -3.3,5.25 -6.79,9.231 -10.4,11.922 -3.63,2.61 -8.23,3.949 -13.76,3.949 -8.09,0 -14.56,-3.328 -19.47,-9.871 -4.92,-6.578 -7.35,-15.539 -7.35,-26.8981 0,-5.3086 0.63,-10.2812 1.91,-14.7109 1.25,-4.4883 3.07,-8.2891 5.44,-11.4687 2.41,-3.1524 5.27,-5.5196 8.67,-7.1524 3.39,-1.6601 7.12,-2.457 11.14,-2.457 5.48,0 10.13,1.289 14.02,3.9297 3.89,2.6679 7.33,6.6875 10.31,12.0273 1.67,3.2734 3.45,5.7422 5.39,7.5703 1.94,1.8125 4.31,2.6719 7.09,2.6719 3.31,0 6.07,-1.2813 8.28,-3.9219 2.15,-2.6992 3.25,-5.4687 3.25,-8.4492"
         style="fill:#100f0d;fill-opacity:1;fill-rule:nonzero;stroke:none"
         transform="matrix(0.13333333,0,0,-0.13333333,0,816.06667)" />
      <path
         id="path8"
         d="m 2062.77,99.9688 c 0,-7.6993 1.14,-14.1993 3.42,-19.6407 2.31,-5.4179 5.4,-9.4375 9.39,-12.1758 4.01,-2.7812 8.37,-4.1523 13.04,-4.1523 4.79,0 9.15,1.3281 13.1,3.8906 3.97,2.6094 7.09,6.6289 9.48,11.9883 2.36,5.3516 3.53,12.082 3.53,20.0899 0,7.6132 -1.17,14.0622 -3.53,19.5312 -2.39,5.449 -5.56,9.602 -9.56,12.531 -4.03,2.84 -8.41,4.301 -13.19,4.301 -4.96,0 -9.41,-1.519 -13.34,-4.461 -3.89,-2.922 -6.97,-7.199 -9.12,-12.699 -2.14,-5.531 -3.22,-11.871 -3.22,-19.2032 z m 53.46,-41.6368 v 2.7696 c -3.66,-4.3594 -7.26,-7.9102 -10.86,-10.6016 -3.49,-2.7812 -7.37,-4.8477 -11.52,-6.2695 -4.13,-1.3907 -8.67,-2.1211 -13.57,-2.1211 -6.5,0 -12.57,1.4531 -18.09,4.2695 -5.53,2.9805 -10.32,7.043 -14.38,12.3711 -4.04,5.3398 -7.12,11.6094 -9.23,18.8398 -2.12,7.1797 -3.14,14.9922 -3.14,23.4102 0,17.699 4.16,31.59 12.47,41.512 8.32,9.91 19.22,14.859 32.75,14.859 7.84,0 14.46,-1.43 19.83,-4.289 5.36,-2.762 10.63,-7.082 15.74,-12.953 v 41.922 c 0,5.84 1.09,10.23 3.34,13.199 2.21,3 5.35,4.469 9.49,4.469 4.11,0 7.28,-1.367 9.53,-4.078 2.21,-2.719 3.36,-6.782 3.36,-12.121 V 58.332 c 0,-5.4023 -1.21,-9.4804 -3.62,-12.1523 -2.4,-2.7383 -5.45,-4.0703 -9.27,-4.0703 -3.68,0 -6.79,1.3906 -9.23,4.1914 -2.4,2.8008 -3.6,6.7695 -3.6,12.0312"
         style="fill:#100f0d;fill-opacity:1;fill-rule:nonzero;stroke:none"
         transform="matrix(0.13333333,0,0,-0.13333333,0,816.06667)" />
      <path
         id="path9"
         d="m 2243.75,99.7422 c 0,11.5388 -2.48,20.5778 -7.33,27.0198 -4.89,6.41 -11.46,9.66 -19.68,9.66 -5.35,0 -10,-1.442 -14.06,-4.313 -4.04,-2.918 -7.16,-7.16 -9.35,-12.777 -2.18,-5.551 -3.3,-12.07 -3.3,-19.5898 0,-7.4297 1.12,-13.8828 3.24,-19.4141 2.15,-5.5468 5.25,-9.7968 9.29,-12.7461 4,-2.9336 8.77,-4.3828 14.18,-4.3828 8.22,0 14.79,3.211 19.68,9.6914 4.85,6.4492 7.33,15.4492 7.33,26.8516 z m 27.29,0 c 0,-8.4102 -1.28,-16.2109 -3.79,-23.4024 -2.52,-7.0781 -6.17,-13.2304 -10.93,-18.371 -4.82,-5.1407 -10.52,-8.9766 -17.15,-11.7891 -6.64,-2.7383 -14.17,-4.0703 -22.43,-4.0703 -8.22,0 -15.64,1.332 -22.19,4.1523 -6.59,2.7578 -12.31,6.7305 -17.13,11.8985 -4.79,5.1796 -8.43,11.2304 -10.95,18.2617 -2.49,7.0781 -3.72,14.8164 -3.72,23.3672 0,8.6019 1.27,16.4609 3.77,23.5699 2.52,7.172 6.12,13.231 10.85,18.332 4.72,5.051 10.42,8.938 17.18,11.68 6.72,2.738 14.08,4.129 22.19,4.129 8.25,0 15.72,-1.391 22.43,-4.168 6.68,-2.773 12.43,-6.762 17.2,-11.883 4.82,-5.117 8.44,-11.258 10.88,-18.328 2.55,-7.051 3.79,-14.851 3.79,-23.3788"
         style="fill:#100f0d;fill-opacity:1;fill-rule:nonzero;stroke:none"
         transform="matrix(0.13333333,0,0,-0.13333333,0,816.06667)" />
      <path
         id="path10"
         d="m 2385.89,123.191 c -2.04,-4.793 -3,-13.261 -3,-25.4605 v -37.711 c 0,-5.9414 -1.27,-10.4492 -3.9,-13.4414 -2.57,-2.9765 -6.04,-4.4687 -10.28,-4.4687 -4.08,0 -7.41,1.4922 -9.95,4.4687 -2.56,2.9922 -3.81,7.5 -3.81,13.4414 v 45.2695 c 0,7.121 -0.27,12.652 -0.74,16.652 -0.47,3.911 -1.72,7.168 -3.79,9.707 -2.01,2.551 -5.29,3.813 -9.72,3.813 -8.89,0 -14.74,-3.199 -17.59,-9.609 -2.85,-6.352 -4.19,-15.512 -4.19,-27.4536 V 60.0195 c 0,-5.9297 -1.31,-10.3906 -3.84,-13.3398 -2.58,-3.0781 -5.95,-4.5703 -10.08,-4.5703 -4.16,0 -7.56,1.4922 -10.17,4.5703 -2.64,2.9492 -3.89,7.4101 -3.89,13.332 v 81.2073 c 0,5.351 1.13,9.41 3.46,12.179 2.39,2.75 5.49,4.184 9.37,4.184 3.72,0 6.83,-1.293 9.3,-3.902 2.48,-2.59 3.73,-6.16 3.73,-10.75 v -2.7 c 4.7,5.899 9.76,10.25 15.12,12.981 5.37,2.769 11.41,4.16 17.94,4.16 6.82,0 12.67,-1.43 17.59,-4.289 4.94,-2.812 8.97,-7.121 12.13,-12.852 4.6,5.77 9.51,10.129 14.78,12.93 5.25,2.82 11.05,4.211 17.4,4.211 7.49,0 13.88,-1.492 19.22,-4.59 5.4,-3.051 9.41,-7.402 12.08,-13.09 2.34,-5.132 3.47,-13.199 3.47,-24.242 V 60.0195 c 0,-5.9414 -1.29,-10.4492 -3.83,-13.4414 -2.65,-2.9765 -6.03,-4.4687 -10.29,-4.4687 -4.13,0 -7.49,1.4922 -10.1,4.5703 -2.66,2.9492 -3.97,7.4101 -3.97,13.3398 v 47.7615 c 0,6.098 -0.24,10.981 -0.73,14.66 -0.51,3.707 -1.85,6.75 -4.07,9.258 -2.17,2.5 -5.51,3.762 -9.92,3.762 -3.59,0 -7.01,-1.129 -10.18,-3.289 -3.27,-2.25 -5.72,-5.231 -7.55,-8.981 v 0"
         style="fill:#100f0d;fill-opacity:1;fill-rule:nonzero;stroke:none"
         transform="matrix(0.13333333,0,0,-0.13333333,0,816.06667)" />
      <path
         id="path11"
         d="m 2539.91,99.2109 c -4.01,-1.5703 -9.8,-3.1289 -17.41,-4.8593 -7.61,-1.6993 -12.87,-2.9414 -15.8,-3.75 -2.93,-0.8203 -5.72,-2.3633 -8.34,-4.6602 -2.68,-2.3906 -4.02,-5.6133 -4.02,-9.7695 0,-4.3399 1.58,-7.961 4.67,-10.9922 3.14,-3.0508 7.24,-4.5274 12.28,-4.5274 5.38,0 10.37,1.25 14.9,3.7071 4.55,2.4414 7.92,5.6601 10,9.5 2.47,4.3203 3.72,11.3711 3.72,21.3008 z m 1.77,-41.1211 c -6.59,-5.3476 -12.94,-9.3203 -19.08,-11.9609 -6.13,-2.707 -13.05,-4.0195 -20.65,-4.0195 -7.02,0 -13.09,1.4531 -18.41,4.2695 -5.32,2.9024 -9.35,6.8125 -12.22,11.7813 -2.82,4.9101 -4.28,10.1992 -4.28,15.9882 0,7.7618 2.41,14.3516 7.12,19.8438 4.67,5.4492 11.14,9.1288 19.37,11.0198 1.73,0.418 6.04,1.32 12.84,2.769 6.91,1.489 12.71,2.789 17.67,4 4.83,1.199 10.16,2.68 15.87,4.399 -0.35,7.519 -1.78,13.011 -4.32,16.582 -2.6,3.468 -7.93,5.179 -15.92,5.179 -6.94,0 -12.11,-0.98 -15.64,-2.992 -3.46,-1.98 -6.48,-5.027 -8.93,-9.097 -2.52,-4 -4.24,-6.661 -5.28,-7.922 -1.06,-1.321 -3.27,-1.899 -6.6,-1.899 -3.1,0 -5.72,1.008 -7.92,3.028 -2.26,2.062 -3.36,4.64 -3.36,7.882 0,4.969 1.69,9.86 5.06,14.508 3.4,4.742 8.69,8.61 15.85,11.711 7.16,3.051 16.12,4.559 26.82,4.559 11.93,0 21.34,-1.508 28.23,-4.438 6.82,-2.922 11.6,-7.551 14.45,-13.98 2.84,-6.332 4.24,-14.832 4.24,-25.36 0,-6.64 0,-12.332 -0.04,-16.941 -0.06,-4.6875 -0.09,-9.8281 -0.15,-15.5195 0,-5.3086 0.84,-10.8985 2.56,-16.6602 1.65,-5.789 2.49,-9.5312 2.49,-11.1601 0,-2.9219 -1.33,-5.5899 -3.94,-7.9688 -2.56,-2.3828 -5.57,-3.582 -8.87,-3.582 -2.83,0 -5.53,1.332 -8.3,4.0703 -2.71,2.75 -5.6,6.75 -8.66,11.9101"
         style="fill:#100f0d;fill-opacity:1;fill-rule:nonzero;stroke:none"
         transform="matrix(0.13333333,0,0,-0.13333333,0,816.06667)" />
      <path
         id="path12"
         d="M 2621.41,141.371 V 59.3789 c 0,-5.7187 -1.3,-10.0195 -3.85,-12.9297 -2.59,-2.8476 -5.86,-4.3398 -9.85,-4.3398 -3.98,0 -7.26,1.4922 -9.72,4.4414 -2.52,3.0195 -3.77,7.2695 -3.77,12.8281 v 81.1801 c 0,5.57 1.25,9.8 3.77,12.652 2.46,2.871 5.74,4.289 9.72,4.289 3.99,0 7.26,-1.418 9.85,-4.289 2.55,-2.852 3.85,-6.781 3.85,-11.84 z m -13.44,29.348 c -3.75,0 -6.97,1.211 -9.66,3.703 -2.69,2.41 -4.09,5.867 -4.09,10.32 0,3.996 1.41,7.278 4.17,9.93 2.73,2.598 5.97,3.82 9.58,3.82 3.53,0 6.69,-1.14 9.42,-3.48 2.68,-2.36 4.02,-5.821 4.02,-10.27 0,-4.414 -1.3,-7.82 -3.97,-10.242 -2.66,-2.461 -5.81,-3.781 -9.47,-3.781"
         style="fill:#100f0d;fill-opacity:1;fill-rule:nonzero;stroke:none"
         transform="matrix(0.13333333,0,0,-0.13333333,0,816.06667)" />
      <path
         id="path13"
         d="m 2674.26,141.781 v -3.383 c 4.76,6.563 9.98,11.391 15.62,14.473 5.69,3.07 12.22,4.629 19.63,4.629 7.13,0 13.57,-1.621 19.25,-4.918 5.59,-3.242 9.84,-7.82 12.59,-13.75 1.82,-3.504 2.94,-7.281 3.52,-11.281 0.49,-3.981 0.8,-9.121 0.8,-15.379 V 59.3789 c 0,-5.7187 -1.29,-10.0195 -3.76,-12.9297 -2.5,-2.8476 -5.74,-4.3398 -9.71,-4.3398 -4.04,0 -7.35,1.4922 -9.77,4.4687 -2.56,2.9922 -3.86,7.2422 -3.86,12.8008 v 47.2691 c 0,9.403 -1.21,16.543 -3.69,21.481 -2.54,4.953 -7.52,7.473 -14.96,7.473 -4.84,0 -9.25,-1.532 -13.22,-4.563 -3.98,-2.98 -6.91,-7.137 -8.76,-12.418 -1.33,-4.23 -2.03,-12.09 -2.03,-23.7421 v -35.5 c 0,-5.7578 -1.25,-10.0976 -3.82,-13 -2.57,-2.8164 -5.87,-4.2695 -9.9,-4.2695 -3.89,0 -7.14,1.4922 -9.65,4.4414 -2.57,3.0195 -3.8,7.2695 -3.8,12.8281 v 81.9921 c 0,5.43 1.11,9.43 3.4,12.098 2.21,2.679 5.37,4.031 9.27,4.031 2.35,0 4.54,-0.641 6.43,-1.77 1.99,-1.16 3.48,-2.988 4.65,-5.25 1.12,-2.421 1.77,-5.3 1.77,-8.699"
         style="fill:#100f0d;fill-opacity:1;fill-rule:nonzero;stroke:none"
         transform="matrix(0.13333333,0,0,-0.13333333,0,816.06667)" />
      <path
         id="path14"
         d="m 2789.31,139.832 21.96,-64.4414 23.73,67.2504 c 1.88,5.418 3.7,9.199 5.51,11.468 1.83,2.243 4.5,3.391 8.14,3.391 3.45,0 6.38,-1.211 8.86,-3.68 2.38,-2.41 3.6,-5.172 3.6,-8.441 0,-1.219 -0.24,-2.66 -0.67,-4.277 -0.39,-1.7 -0.88,-3.262 -1.48,-4.762 -0.57,-1.391 -1.15,-3.078 -1.94,-4.938 l -26.09,-67.57 c -0.73,-1.9297 -1.7,-4.4218 -2.83,-7.4101 -1.18,-2.9727 -2.5,-5.461 -3.89,-7.6524 -1.46,-2.0898 -3.2,-3.6875 -5.27,-4.8906 -2.13,-1.1797 -4.68,-1.7695 -7.67,-1.7695 -3.84,0 -6.9,0.9023 -9.22,2.7109 -2.29,1.8594 -3.99,3.8399 -5.07,6.0781 -1.08,2.1329 -2.96,6.4805 -5.52,12.9336 l -25.93,66.84 c -0.59,1.629 -1.24,3.308 -1.88,4.98 -0.6,1.661 -1.09,3.317 -1.56,5.086 -0.42,1.774 -0.66,3.254 -0.66,4.442 0,1.992 0.57,3.898 1.72,5.8 1.13,1.93 2.69,3.5 4.68,4.68 2.02,1.199 4.13,1.84 6.5,1.84 4.47,0 7.59,-1.352 9.3,-4.102 1.7,-2.679 3.6,-7.207 5.68,-13.566"
         style="fill:#100f0d;fill-opacity:1;fill-rule:nonzero;stroke:none"
         transform="matrix(0.13333333,0,0,-0.13333333,0,816.06667)" />
      <path
         id="path15"
         d="m 2900.54,109.012 h 49.29 c -0.63,9.668 -3.12,16.918 -7.5,21.718 -4.37,4.79 -10.1,7.211 -17.22,7.211 -6.73,0 -12.31,-2.441 -16.64,-7.312 -4.34,-4.859 -6.95,-12.09 -7.93,-21.617 z m 53.21,-16.1526 h -53.21 c 0.01,-6.4688 1.31,-12.1406 3.69,-17.0977 2.46,-4.8711 5.67,-8.5898 9.7,-11.1133 4,-2.5195 8.46,-3.7265 13.31,-3.7265 3.24,0 6.25,0.3984 8.9,1.1679 2.67,0.8399 5.31,2.0821 7.86,3.75 2.48,1.711 4.78,3.4688 6.93,5.4922 2.1,1.9375 4.93,4.5274 8.27,7.8789 1.41,1.3008 3.42,1.8907 5.97,1.8907 2.84,0 5.07,-0.7735 6.81,-2.4102 1.73,-1.5898 2.54,-3.8203 2.54,-6.7305 0,-2.5703 -0.94,-5.5703 -2.88,-9.0312 -1.91,-3.3789 -4.76,-6.6992 -8.72,-9.8984 -3.89,-3.1211 -8.76,-5.6915 -14.64,-7.8321 -5.85,-2.0703 -12.58,-3.0898 -20.29,-3.0898 -17.43,0 -31.03,5.2304 -40.69,15.5703 -9.69,10.4492 -14.51,24.5117 -14.51,42.2891 0,8.4922 1.23,16.2112 3.56,23.3712 2.4,7.191 5.86,13.332 10.46,18.441 4.59,5.16 10.2,9.129 16.93,11.821 6.73,2.75 14.14,4.117 22.34,4.117 10.55,0 19.7,-2.328 27.29,-7.039 7.63,-4.68 13.31,-10.68 17.09,-18.09 3.79,-7.461 5.69,-14.981 5.69,-22.731 0,-7.078 -1.91,-11.7067 -5.86,-13.8082 -3.96,-2.1485 -9.44,-3.1914 -16.54,-3.1914"
         style="fill:#100f0d;fill-opacity:1;fill-rule:nonzero;stroke:none"
         transform="matrix(0.13333333,0,0,-0.13333333,0,816.06667)" />
      <path
         id="path16"
         d="m 3096.63,77.25 c 0,-3.5117 -1.01,-7.3086 -3.08,-11.3281 -2.03,-4.0196 -5.06,-7.8321 -9.25,-11.4805 -4.13,-3.6211 -9.4,-6.5508 -15.73,-8.75 -6.27,-2.2695 -13.42,-3.3594 -21.25,-3.3594 -16.87,0 -29.97,5.1289 -39.39,15.3282 -9.4,10.2304 -14.15,23.8984 -14.15,41.1093 0,11.6405 2.14,21.9605 6.5,30.8785 4.32,8.883 10.51,15.852 18.71,20.711 8.13,4.922 17.93,7.36 29.31,7.36 7.03,0 13.46,-1.098 19.39,-3.219 5.86,-2.168 10.8,-4.949 14.94,-8.309 4.08,-3.41 7.17,-7.043 9.36,-10.863 2.14,-3.836 3.21,-7.437 3.21,-10.769 0,-3.348 -1.18,-6.227 -3.68,-8.61 -2.39,-2.379 -5.32,-3.539 -8.78,-3.539 -2.26,0 -4.13,0.649 -5.6,1.86 -1.52,1.179 -3.18,3.082 -5.06,5.839 -3.33,5.25 -6.77,9.231 -10.4,11.922 -3.62,2.61 -8.22,3.949 -13.81,3.949 -7.99,0 -14.49,-3.328 -19.4,-9.871 -4.96,-6.578 -7.4,-15.539 -7.4,-26.8981 0,-5.3086 0.67,-10.2812 1.88,-14.7109 1.27,-4.4883 3.12,-8.2891 5.52,-11.4687 2.38,-3.1524 5.29,-5.5196 8.67,-7.1524 3.33,-1.6601 7.07,-2.457 11.16,-2.457 5.43,0 10.11,1.289 14,3.9297 3.87,2.6679 7.33,6.6875 10.32,12.0273 1.67,3.2734 3.43,5.7422 5.38,7.5703 1.91,1.8125 4.23,2.6719 7.07,2.6719 3.27,0 6.08,-1.2813 8.19,-3.9219 2.24,-2.6992 3.37,-5.4687 3.37,-8.4492"
         style="fill:#100f0d;fill-opacity:1;fill-rule:nonzero;stroke:none"
         transform="matrix(0.13333333,0,0,-0.13333333,0,816.06667)" />
      <path
         id="path17"
         d="m 3121.88,155.102 h 2.99 v 17.07 c 0,4.539 0.13,8.156 0.37,10.75 0.22,2.598 0.82,4.777 1.94,6.699 1.03,1.899 2.56,3.488 4.59,4.731 1.98,1.179 4.19,1.757 6.65,1.757 3.44,0 6.58,-1.328 9.35,-4.007 1.81,-1.832 3.03,-4 3.52,-6.582 0.51,-2.598 0.74,-6.34 0.74,-11.098 v -19.32 h 10 c 3.84,0 6.79,-0.961 8.81,-2.872 2.07,-1.91 3.05,-4.32 3.05,-7.308 0,-3.82 -1.43,-6.524 -4.36,-8.02 -2.87,-1.492 -7.02,-2.261 -12.39,-2.261 h -5.11 V 82.3594 c 0,-4.4492 0.16,-7.8711 0.45,-10.2891 0.35,-2.3984 1.19,-4.3515 2.45,-5.789 1.26,-1.5118 3.37,-2.2813 6.32,-2.2813 1.58,0 3.73,0.2695 6.48,0.8984 2.66,0.5821 4.79,0.8829 6.35,0.8829 2.17,0 4.22,-0.961 5.94,-2.711 1.72,-1.8906 2.63,-4.1211 2.63,-6.8398 0,-4.5508 -2.34,-8.0586 -7.16,-10.4922 -4.83,-2.4297 -11.69,-3.6289 -20.61,-3.6289 -8.51,0 -14.97,1.4922 -19.36,4.4687 -4.35,2.9922 -7.27,7.0821 -8.58,12.4141 -1.4,5.2578 -2.07,12.2969 -2.07,21.0898 v 54.559 h -3.62 c -3.84,0 -6.84,0.961 -8.92,2.918 -2.07,1.929 -3.08,4.363 -3.08,7.363 0,2.988 1.06,5.398 3.2,7.308 2.18,1.911 5.3,2.872 9.43,2.872"
         style="fill:#100f0d;fill-opacity:1;fill-rule:nonzero;stroke:none"
         transform="matrix(0.13333333,0,0,-0.13333333,0,816.06667)" />
      <path
         id="path18"
         d="m 3267.08,99.7422 c 0,11.5388 -2.47,20.5778 -7.32,27.0198 -4.93,6.41 -11.43,9.66 -19.69,9.66 -5.33,0 -10,-1.442 -14.02,-4.313 -4.08,-2.918 -7.2,-7.16 -9.38,-12.777 -2.18,-5.551 -3.31,-12.07 -3.31,-19.5898 0,-7.4297 1.13,-13.8828 3.28,-19.4141 2.14,-5.5468 5.21,-9.7968 9.22,-12.7461 4.01,-2.9336 8.75,-4.3828 14.21,-4.3828 8.26,0 14.76,3.211 19.69,9.6914 4.85,6.4492 7.32,15.4492 7.32,26.8516 z m 27.3,0 c 0,-8.4102 -1.25,-16.2109 -3.82,-23.4024 -2.5,-7.0781 -6.17,-13.2304 -10.93,-18.371 -4.79,-5.1407 -10.51,-8.9766 -17.13,-11.7891 -6.67,-2.7383 -14.09,-4.0703 -22.43,-4.0703 -8.27,0 -15.68,1.332 -22.22,4.1523 -6.57,2.7578 -12.29,6.7305 -17.09,11.8985 -4.8,5.1796 -8.46,11.2304 -10.91,18.2617 -2.48,7.0781 -3.7,14.8164 -3.7,23.3672 0,8.6019 1.22,16.4609 3.7,23.5699 2.58,7.172 6.15,13.231 10.86,18.332 4.75,5.051 10.45,8.938 17.14,11.68 6.77,2.738 14.16,4.129 22.22,4.129 8.26,0 15.7,-1.391 22.43,-4.168 6.7,-2.773 12.43,-6.762 17.22,-11.883 4.73,-5.117 8.44,-11.258 10.92,-18.328 2.49,-7.051 3.74,-14.851 3.74,-23.3788"
         style="fill:#100f0d;fill-opacity:1;fill-rule:nonzero;stroke:none"
         transform="matrix(0.13333333,0,0,-0.13333333,0,816.06667)" />
      <path
         id="path19"
         d="M 3342.83,83 V 59.3789 c 0,-5.7578 -1.31,-10.0976 -3.91,-13 -2.6,-2.8164 -5.87,-4.2695 -9.89,-4.2695 -3.87,0 -7.12,1.4922 -9.63,4.3398 -2.52,2.9102 -3.76,7.211 -3.76,12.9297 v 79.0001 c 0,12.762 4.39,19.121 13.23,19.121 4.47,0 7.75,-1.52 9.78,-4.469 1.95,-2.972 3.01,-7.39 3.27,-13.199 3.23,5.809 6.61,10.227 10.04,13.199 3.42,2.949 7.96,4.469 13.64,4.469 5.76,0 11.28,-1.52 16.68,-4.469 5.35,-2.972 8.08,-6.949 8.08,-11.851 0,-3.461 -1.19,-6.367 -3.47,-8.59 -2.27,-2.231 -4.75,-3.399 -7.44,-3.399 -0.98,0 -3.4,0.661 -7.21,1.969 -3.85,1.262 -7.22,1.922 -10.16,1.922 -3.93,0 -7.18,-1.051 -9.68,-3.293 -2.54,-2.207 -4.51,-5.41 -5.9,-9.699 -1.4,-4.34 -2.4,-9.43 -2.9,-15.391 -0.51,-5.8787 -0.77,-13.0896 -0.77,-21.699"
         style="fill:#100f0d;fill-opacity:1;fill-rule:nonzero;stroke:none"
         transform="matrix(0.13333333,0,0,-0.13333333,0,816.06667)" />
      <path
         id="path20"
         d="m 3487.68,79.1914 c 0,-7.8594 -1.83,-14.543 -5.52,-20.1328 -3.67,-5.6094 -9.05,-9.7773 -16.2,-12.6875 -7.17,-2.8086 -15.82,-4.2617 -26.1,-4.2617 -9.68,0 -18.1,1.539 -25.09,4.6914 -6.97,3.1094 -12.13,6.9883 -15.42,11.6484 -3.36,4.6602 -5.07,9.3594 -5.07,14.0625 0,3.1094 1.1,5.7891 3.27,8 2.11,2.2696 4.82,3.3203 8.03,3.3203 2.87,0 5.1,-0.7422 6.61,-2.1406 1.53,-1.5508 2.95,-3.5508 4.39,-6.1914 2.78,-5.0586 6.1,-8.8398 10.05,-11.3281 3.81,-2.5313 9.12,-3.7735 15.88,-3.7735 5.42,0 9.9,1.293 13.39,3.8204 3.47,2.5312 5.27,5.4101 5.27,8.6718 0,5.0196 -1.84,8.668 -5.43,10.9414 -3.67,2.3282 -9.6,4.5078 -17.9,6.5664 -9.36,2.4297 -17.01,4.9805 -22.89,7.6211 -5.87,2.6915 -10.63,6.2305 -14.12,10.6015 -3.52,4.301 -5.31,9.711 -5.31,16.078 0,5.731 1.64,11.09 4.9,16.133 3.24,5.066 8.11,9.09 14.43,12.117 6.33,3.031 13.97,4.551 22.99,4.551 7,0 13.33,-0.781 18.97,-2.309 5.6,-1.511 10.34,-3.582 14.03,-6.113 3.75,-2.578 6.65,-5.418 8.59,-8.519 1.99,-3.149 2.96,-6.2 2.96,-9.157 0,-3.273 -1.03,-5.882 -3.17,-8.043 -2.1,-2.007 -5.09,-3.058 -8.88,-3.058 -2.83,0 -5.19,0.82 -7.19,2.519 -1.91,1.641 -4.19,4.121 -6.7,7.399 -2.06,2.781 -4.46,5.023 -7.28,6.683 -2.8,1.629 -6.58,2.5 -11.33,2.5 -4.93,0 -9.06,-1.082 -12.25,-3.293 -3.28,-2.168 -4.92,-4.91 -4.92,-8.16 0,-3 1.21,-5.429 3.56,-7.34 2.43,-1.91 5.63,-3.48 9.7,-4.738 4.08,-1.25 9.64,-2.812 16.75,-4.59 8.46,-2.14 15.32,-4.679 20.68,-7.691 5.34,-2.949 9.39,-6.4806 12.14,-10.5392 2.8,-4.0899 4.18,-8.711 4.18,-13.8594"
         style="fill:#100f0d;fill-opacity:1;fill-rule:nonzero;stroke:none"
         transform="matrix(0.13333333,0,0,-0.13333333,0,816.06667)" />
      <path
         id="path21"
         d="m 3518.56,42.1094 c -4.12,0 -7.69,1.332 -10.64,4.1523 -3.03,2.7578 -4.51,6.668 -4.51,11.6094 0,4.2187 1.4,7.8594 4.23,10.9297 2.86,3.0312 6.41,4.5195 10.6,4.5195 4.16,0 7.74,-1.4883 10.63,-4.5117 3,-2.9688 4.48,-6.6797 4.48,-10.9375 0,-4.9023 -1.48,-8.7695 -4.48,-11.5703 -2.89,-2.8008 -6.34,-4.1914 -10.31,-4.1914"
         style="fill:#100f0d;fill-opacity:1;fill-rule:nonzero;stroke:none"
         transform="matrix(0.13333333,0,0,-0.13333333,0,816.06667)" />
      <path
         id="path22"
         d="m 3638.81,99.7422 c 0,11.5388 -2.45,20.5778 -7.33,27.0198 -4.88,6.41 -11.42,9.66 -19.65,9.66 -5.32,0 -9.95,-1.442 -14.02,-4.313 -4.06,-2.918 -7.18,-7.16 -9.36,-12.777 -2.17,-5.551 -3.28,-12.07 -3.28,-19.5898 0,-7.4297 1.05,-13.8828 3.19,-19.4141 2.23,-5.5468 5.28,-9.7968 9.31,-12.7461 4,-2.9336 8.72,-4.3828 14.16,-4.3828 8.23,0 14.77,3.211 19.65,9.6914 4.88,6.4492 7.33,15.4492 7.33,26.8516 z m 27.33,0 c 0,-8.4102 -1.25,-16.2109 -3.81,-23.4024 -2.54,-7.0781 -6.15,-13.2304 -10.95,-18.371 -4.82,-5.1407 -10.47,-8.9766 -17.13,-11.7891 -6.62,-2.7383 -14.09,-4.0703 -22.42,-4.0703 -8.22,0 -15.62,1.332 -22.2,4.1523 -6.58,2.7578 -12.24,6.7305 -17.05,11.8985 -4.89,5.1796 -8.51,11.2304 -11.03,18.2617 -2.44,7.0781 -3.69,14.8164 -3.69,23.3672 0,8.6019 1.25,16.4609 3.79,23.5699 2.56,7.172 6.13,13.231 10.82,18.332 4.71,5.051 10.44,8.938 17.16,11.68 6.7,2.738 14.06,4.129 22.2,4.129 8.23,0 15.7,-1.391 22.42,-4.168 6.74,-2.773 12.46,-6.762 17.26,-11.883 4.74,-5.117 8.38,-11.258 10.9,-18.328 2.48,-7.051 3.73,-14.851 3.73,-23.3788"
         style="fill:#100f0d;fill-opacity:1;fill-rule:nonzero;stroke:none"
         transform="matrix(0.13333333,0,0,-0.13333333,0,816.06667)" />
      <path
         id="path23"
         d="M 3714.58,83 V 59.3789 c 0,-5.7578 -1.3,-10.0976 -3.89,-13 -2.55,-2.8164 -5.88,-4.2695 -9.84,-4.2695 -3.96,0 -7.14,1.4922 -9.68,4.3398 -2.56,2.9102 -3.8,7.211 -3.8,12.9297 v 79.0001 c 0,12.762 4.47,19.121 13.26,19.121 4.52,0 7.75,-1.52 9.74,-4.469 1.96,-2.972 3.12,-7.39 3.36,-13.199 3.19,5.809 6.52,10.227 9.94,13.199 3.43,2.949 8,4.469 13.67,4.469 5.81,0 11.35,-1.52 16.67,-4.469 5.38,-2.972 8.09,-6.949 8.09,-11.851 0,-3.461 -1.15,-6.367 -3.42,-8.59 -2.32,-2.231 -4.75,-3.399 -7.47,-3.399 -0.96,0 -3.35,0.661 -7.17,1.969 -3.84,1.262 -7.21,1.922 -10.16,1.922 -3.95,0 -7.19,-1.051 -9.78,-3.293 -2.48,-2.207 -4.45,-5.41 -5.86,-9.699 -1.36,-4.34 -2.34,-9.43 -2.85,-15.391 -0.53,-5.8787 -0.81,-13.0896 -0.81,-21.699"
         style="fill:#100f0d;fill-opacity:1;fill-rule:nonzero;stroke:none"
         transform="matrix(0.13333333,0,0,-0.13333333,0,816.06667)" />
      <path
         id="path24"
         d="m 3793.09,100.719 c 0,-11.4768 2.42,-20.1995 7.26,-26.1096 4.77,-5.8477 11.04,-8.8281 18.63,-8.8281 4.49,0 8.82,1.3085 12.81,3.8398 4.03,2.5273 7.3,6.3281 9.83,11.4297 2.55,5.1094 3.78,11.2617 3.78,18.539 0,11.5702 -2.47,20.5622 -7.34,26.9882 -4.86,6.504 -11.3,9.754 -19.26,9.754 -7.74,0 -13.98,-3.16 -18.65,-9.293 -4.71,-6.187 -7.06,-14.937 -7.06,-26.32 z m 78.84,36 V 54.25 c 0,-9.4687 -1.04,-17.5586 -2.92,-24.3203 -1.93,-6.8281 -5.01,-12.4414 -9.26,-16.8711 -4.25,-4.41797 -9.84,-7.70704 -16.67,-9.85938 C 3836.2,1.08984 3827.63,0 3817.42,0 c -9.39,0 -17.78,1.33203 -25.1,4.05859 -7.39,2.80079 -13.09,6.30081 -17.05,10.66021 -3.99,4.2929 -6,8.75 -6,13.3515 0,3.4805 1.11,6.2813 3.43,8.461 2.23,2.2382 4.96,3.3203 8.13,3.3203 4.01,0 7.45,-1.8516 10.49,-5.5118 1.47,-1.9296 2.99,-3.8007 4.51,-5.6796 1.56,-1.9102 3.3,-3.5782 5.17,-4.8985 1.92,-1.3906 4.21,-2.3906 6.87,-3.0508 2.59,-0.6523 5.7,-0.9921 9.17,-0.9921 6.98,0 12.51,1.0507 16.36,3.0703 3.89,2.0429 6.62,4.9023 8.21,8.5625 1.48,3.6875 2.49,7.5976 2.64,11.789 0.33,4.2813 0.51,10.9492 0.7,20.2813 -4.18,-6.0899 -9.1,-10.7422 -14.52,-13.9219 -5.47,-3.1992 -12.03,-4.7578 -19.54,-4.7578 -9.18,0 -17.13,2.3867 -23.88,7.2695 -6.85,4.8399 -12.08,11.6172 -15.73,20.3789 -3.6,8.711 -5.47,18.7891 -5.47,30.2304 0,8.578 1.09,16.281 3.36,23.149 2.17,6.82 5.33,12.628 9.52,17.339 4.07,4.719 8.84,8.282 14.22,10.692 5.41,2.347 11.25,3.57 17.75,3.57 7.67,0 14.34,-1.562 19.97,-4.672 5.72,-3.027 10.91,-7.937 15.77,-14.48 v 3.801 c 0,4.96 1.2,8.742 3.5,11.519 2.29,2.672 5.31,4.043 8.94,4.043 5.27,0 8.75,-1.773 10.5,-5.352 1.7,-3.582 2.59,-8.781 2.59,-15.511"
         style="fill:#100f0d;fill-opacity:1;fill-rule:nonzero;stroke:none"
         transform="matrix(0.13333333,0,0,-0.13333333,0,816.06667)" />
      <path
         id="path25"
         d="m 2693.22,413.09 h 40.34 c -2.85,-21.75 -11.76,-38.719 -26.58,-50.93 -13.72,-11.98 -30.33,-17.879 -49.73,-17.879 -26.35,0 -47.37,9.258 -63.07,27.731 -14.88,17.57 -22.3,40.25 -22.3,67.957 0,28.402 7.37,51.094 22.08,68.281 14.71,17.121 35.51,25.719 62.39,25.719 19.99,0 36.91,-5.406 50.63,-16.141 14.54,-11.598 23.44,-27.898 26.58,-48.769 h -40.34 c -3.49,18.211 -14.6,27.273 -33.52,27.273 -31.17,0 -46.79,-18.473 -46.79,-55.422 0,-17.328 4.02,-31.461 12.04,-42.469 8.01,-11.062 19.32,-16.589 33.9,-16.589 21.74,0 33.2,10.429 34.37,31.238 z m -158.79,25.449 c 0,-36.098 11.45,-66.66 34.31,-91.559 22.89,-24.89 50.9,-37.351 84.15,-37.351 33.1,0 61.13,12.461 83.98,37.351 22.92,24.899 34.3,55.461 34.3,91.559 0,36.082 -11.38,66.613 -34.3,91.52 -22.85,24.953 -50.88,37.382 -83.98,37.382 -33.25,0 -61.26,-12.429 -84.15,-37.382 -22.86,-24.907 -34.31,-55.438 -34.31,-91.52 z m -40.98,0 c 0,45.941 15.55,85.152 46.66,117.723 31.15,32.519 68.75,48.789 112.78,48.789 43.92,0 81.46,-16.27 112.64,-48.789 31.14,-32.571 46.73,-71.782 46.73,-117.723 0,-45.969 -15.59,-85.238 -46.73,-117.738 -31.18,-32.551 -68.72,-48.832 -112.64,-48.832 -44.03,0 -81.63,16.281 -112.78,48.832 -31.11,32.5 -46.66,71.769 -46.66,117.738"
         style="fill:#100f0d;fill-opacity:1;fill-rule:nonzero;stroke:none"
         transform="matrix(0.13333333,0,0,-0.13333333,0,816.06667)" />
      <path
         id="path26"
         d="m 2557.95,334.121 23.26,-19.73 170.95,219.531 -23.24,19.699 -170.97,-219.5"
         style="fill:#100f0d;fill-opacity:1;fill-rule:nonzero;stroke:none"
         transform="matrix(0.13333333,0,0,-0.13333333,0,816.06667)" />
      <path
         id="path27"
         d="m 2687.56,745.391 c 1480.26,0 2687.55,1207.289 2687.55,2687.549 0,1480.26 -1207.29,2687.56 -2687.55,2687.56 C 1207.3,6120.5 0,4913.2 0,3432.94 0,1952.68 1207.3,745.391 2687.56,745.391"
         style="fill:#c8edef;fill-opacity:1;fill-rule:evenodd;stroke:none"
         transform="matrix(0.13333333,0,0,-0.13333333,0,816.06667)" />
      <path
         id="path28"
         d="m 3092.83,4347.14 341.45,-447.92 c 69.81,-91.59 99.11,-207.75 81.08,-321.49 -18.03,-113.74 -81.81,-215.15 -176.54,-280.64 v -429.57 c 0,-243.67 -131.85,-468.26 -344.62,-587 -212.76,-118.74 -473.14,-113.05 -680.51,14.89 -207.38,127.93 -329.3,358.05 -318.65,601.48 v 326.77 l -190.92,429.55 c -72.3,162.68 -60.41,350.44 31.82,502.7 92.23,152.26 253.14,249.74 430.79,260.99 h 631.51 c 70.99,0 152.69,-14.8 194.59,-69.76"
         style="fill:#ffffff;fill-opacity:1;fill-rule:evenodd;stroke:none"
         transform="matrix(0.13333333,0,0,-0.13333333,0,816.06667)" />
      <path
         id="path29"
         d="m 3338.82,3085.44 v -217.92 c 0,-101.19 -22.75,-199.06 -64.58,-287.44 L 2136.02,2454.82 c -96.44,124.02 -148.06,280.09 -140.98,442.07 v 326.77 l -140.61,316.38 203.46,455.56 63.84,-101.13 c 89.16,-418.35 434.26,-653.11 1043.13,-556.07 l 173.96,-252.96"
         style="fill:#e9f8fb;fill-opacity:1;fill-rule:evenodd;stroke:none"
         transform="matrix(0.13333333,0,0,-0.13333333,0,816.06667)" />
      <path
         id="path30"
         d="M 1995.05,2382.88 1757.24,2114.86 C 1505.13,1830.71 1453.73,1420.75 1627.9,1083.15 V 962.512 c 325.16,-139.66 683.34,-217.133 1059.66,-217.133 362.59,0 708.32,71.98 1023.93,202.141 l -415.75,958.39 24.72,476.97 H 1995.05"
         style="fill:#77b3cd;fill-opacity:1;fill-rule:evenodd;stroke:none"
         transform="matrix(0.13333333,0,0,-0.13333333,0,816.06667)" />
      <path
         id="path31"
         d="m 3994.6,3645.89 106.48,-335.21 c 77.35,-243.51 3.96,-509.75 -187.25,-679.23 l -105.04,44.97 c -306.66,131.28 -552.4,373.56 -687.99,678.32 l 873.8,291.15"
         style="fill:#f15030;fill-opacity:1;fill-rule:evenodd;stroke:none"
         transform="matrix(0.13333333,0,0,-0.13333333,0,816.06667)" />
      <path
         id="path32"
         d="M 1995.05,2672.93 H 3320.46 V 2382.88 H 1995.05 v 290.05"
         style="fill:#3a6a87;fill-opacity:1;fill-rule:evenodd;stroke:none"
         transform="matrix(0.13333333,0,0,-0.13333333,0,816.06667)" />
      <path
         id="path33"
         d="m 2675.22,3077.92 v 0 c 31.69,0 57.61,-25.91 57.61,-57.59 v -837.75 l -57.61,-151.25 -57.6,151.25 v 837.75 c 0,31.68 25.92,57.59 57.6,57.59"
         style="fill:#2e2d2d;fill-opacity:1;fill-rule:evenodd;stroke:none"
         transform="matrix(0.13333333,0,0,-0.13333333,0,816.06667)" />
      <path
         id="path34"
         d="m 3408.76,4144.72 c -23.11,-0.23 -49.65,-29.48 -67.4,-74.27 l -54.31,-148.04 193.61,-27.94 0.75,3.78 24.32,246.98 -96.97,-0.51"
         style="fill:#77b3cd;fill-opacity:1;fill-rule:evenodd;stroke:none"
         transform="matrix(0.13333333,0,0,-0.13333333,0,816.06667)" />
      <path
         id="path35"
         d="m 1754.55,3077.92 447.67,-326.67 237.96,112.93 c 77.34,36.7 168.9,25.72 235.37,-28.25 86.9,-70.53 134.42,-178.66 127.61,-290.38 -1.5,-24.56 -16.88,-46.12 -39.6,-55.56 -22.73,-9.43 -48.85,-5.09 -67.3,11.2 l -163.33,-92.77 c -100.3,-56.95 -226.47,-38.7 -306.51,44.38 l -310.55,48.39 c -344.72,53.72 -654.62,240.51 -863.08,520.27 l 399.78,475.91 301.98,-419.45"
         style="fill:#f15030;fill-opacity:1;fill-rule:evenodd;stroke:none"
         transform="matrix(0.13333333,0,0,-0.13333333,0,816.06667)" />
      <path
         id="path36"
         d="M 3317.51,4042.41 H 4293.9 L 3856.52,2823.46 h -976.39 l 437.38,1218.95"
         style="fill:#2e2d2d;fill-opacity:1;fill-rule:evenodd;stroke:none"
         transform="matrix(0.13333333,0,0,-0.13333333,0,816.06667)" />
      <path
         id="path37"
         d="m 3408.87,4144.72 c 57.63,1.14 901.34,0 958.99,0 26.82,0 48.99,-44.05 50.52,-100.43 v -953.72 h -959.34 v 953.72 c -1.53,56.13 -23.51,100.05 -50.17,100.43"
         style="fill:#ffffff;fill-opacity:1;fill-rule:evenodd;stroke:none"
         transform="matrix(0.13333333,0,0,-0.13333333,0,816.06667)" />
      <path
         id="path38"
         d="m 2839.39,5885 c 329.33,0 596.3,-266.98 596.3,-596.31 0,-329.33 -266.97,-596.31 -596.3,-596.31 -329.34,0 -596.32,266.98 -596.32,596.31 0,329.33 266.98,596.31 596.32,596.31"
         style="fill:#2e2d2d;fill-opacity:1;fill-rule:evenodd;stroke:none"
         transform="matrix(0.13333333,0,0,-0.13333333,0,816.06667)" />
      <path
         id="path39"
         d="m 2402.3,5745.59 c 154.95,0 280.57,-125.61 280.57,-280.57 0,-154.95 -125.62,-280.56 -280.57,-280.56 -154.95,0 -280.57,125.61 -280.57,280.56 0,154.96 125.62,280.57 280.57,280.57"
         style="fill:#2e2d2d;fill-opacity:1;fill-rule:evenodd;stroke:none"
         transform="matrix(0.13333333,0,0,-0.13333333,0,816.06667)" />
      <path
         id="path40"
         d="m 2998.81,4307.45 c 45.88,-130.82 37.83,-242.29 -33.03,-289.25 -113.03,-74.96 -343.09,42.64 -513.85,262.66 -28.44,36.64 -53.42,73.82 -74.82,110.68 118.48,75.15 209.75,186.31 260.4,317.16 l 64.77,167.3 301.18,-69.71 c -75.61,-82.49 -123.21,-186.81 -135.93,-298 -6.5,-56.95 17.3,-113.17 62.74,-148.12 l 68.54,-52.72"
         style="fill:#f15030;fill-opacity:1;fill-rule:evenodd;stroke:none"
         transform="matrix(0.13333333,0,0,-0.13333333,0,816.06667)" />
      <path
         id="path41"
         d="m 2902.77,4829.59 100.69,-23.3 c -75.61,-82.49 -123.21,-186.81 -135.93,-298 -6.5,-56.95 17.3,-113.17 62.74,-148.12 l 7.64,-5.88 c -114.15,25.42 -199.28,124.51 -199.28,242.88 0,105.88 68.09,196.31 164.14,232.42"
         style="fill:#f0411e;fill-opacity:1;fill-rule:evenodd;stroke:none"
         transform="matrix(0.13333333,0,0,-0.13333333,0,816.06667)" />
      <path
         id="path42"
         d="m 3051.18,5629.73 c 333.39,0 333.39,-271.42 333.39,-619.89 0,-348.47 -215.94,-482.64 -333.39,-482.64 -117.45,0 -492.8,134.17 -492.8,482.64 0,348.47 159.41,619.89 492.8,619.89"
         style="fill:#f15030;fill-opacity:1;fill-rule:evenodd;stroke:none"
         transform="matrix(0.13333333,0,0,-0.13333333,0,816.06667)" />
      <path
         id="path43"
         d="m 3206.47,4832.26 c -32.2,-89.72 -100.64,-125.12 -135.16,-125.12 -34.52,0 -129.1,35.4 -129.69,125.12 h 264.85"
         style="fill:#ffffff;fill-opacity:1;fill-rule:evenodd;stroke:none"
         transform="matrix(0.13333333,0,0,-0.13333333,0,816.06667)" />
      <path
         id="path44"
         d="m 2544.99,5241.22 c 48.97,18.45 107.87,-29.09 131.56,-106.18 23.7,-77.1 3.21,-154.55 -45.76,-173 -48.96,-18.44 -107.87,29.09 -131.56,106.19 -23.7,77.09 -3.21,154.54 45.76,172.99"
         style="fill:#f15030;fill-opacity:1;fill-rule:evenodd;stroke:none"
         transform="matrix(0.13333333,0,0,-0.13333333,0,816.06667)" />
      <path
         id="path45"
         d="m 3017.25,5270.72 v 65.61 l -23.49,-2.98 c -66.75,-8.49 -131.43,-29.04 -190.85,-60.65 l 16.89,-36.77 c 52.17,15.77 105.78,26.27 160.05,31.31 l 37.4,3.48"
         style="fill:#2e2d2d;fill-opacity:1;fill-rule:evenodd;stroke:none"
         transform="matrix(0.13333333,0,0,-0.13333333,0,816.06667)" />
      <path
         id="path46"
         d="m 2947.53,5213.9 c 31.86,0 57.67,-33.11 57.67,-73.96 0,-40.86 -25.81,-73.97 -57.67,-73.97 -31.83,0 -57.65,33.11 -57.65,73.97 0,40.85 25.82,73.96 57.65,73.96"
         style="fill:#2e2d2d;fill-opacity:1;fill-rule:evenodd;stroke:none"
         transform="matrix(0.13333333,0,0,-0.13333333,0,816.06667)" />
      <path
         id="path47"
         d="m 3178.19,5270.72 v 65.61 l 18.29,-2.98 c 52.02,-8.49 102.41,-29.04 148.72,-60.65 l -13.17,-36.77 c -40.65,15.77 -82.42,26.27 -124.7,31.31 l -29.14,3.48"
         style="fill:#2e2d2d;fill-opacity:1;fill-rule:evenodd;stroke:none"
         transform="matrix(0.13333333,0,0,-0.13333333,0,816.06667)" />
      <path
         id="path48"
         d="m 3232.5,5213.9 c -24.81,0 -44.93,-33.11 -44.93,-73.96 0,-40.86 20.12,-73.97 44.93,-73.97 24.81,0 44.93,33.11 44.93,73.97 0,40.85 -20.12,73.96 -44.93,73.96"
         style="fill:#2e2d2d;fill-opacity:1;fill-rule:evenodd;stroke:none"
         transform="matrix(0.13333333,0,0,-0.13333333,0,816.06667)" />
      <path
         id="path49"
         d="m 2266.73,4416.9 c -235.69,0 -466.52,-67.15 -665.44,-193.58 -224.5,-142.7 -412.37,-336.1 -548.5,-564.63 l 36.3,-80.66 c 121.4,-269.77 372.56,-458.53 665.46,-500.11 l 306.53,278.67 c 210.59,191.45 474.63,548.11 205.65,1060.31"
         style="fill:#ffffff;fill-opacity:1;fill-rule:evenodd;stroke:none"
         transform="matrix(0.13333333,0,0,-0.13333333,0,816.06667)" />
    </g>
  </g>
</svg>
