<?xml version="1.0" encoding="UTF-8" standalone="no"?>
<!-- Created with Inkscape (http://www.inkscape.org/) -->

<svg
   version="1.1"
   id="svg1"
   width="526.35999"
   height="861.65332"
   viewBox="0 0 526.35999 861.65332"
   sodipodi:docname="paperboard-flowchart.svg"
   inkscape:version="1.3.2 (091e20ef0f, 2023-11-25, custom)"
   xmlns:inkscape="http://www.inkscape.org/namespaces/inkscape"
   xmlns:sodipodi="http://sodipodi.sourceforge.net/DTD/sodipodi-0.dtd"
   xmlns="http://www.w3.org/2000/svg"
   xmlns:svg="http://www.w3.org/2000/svg">
  <defs
     id="defs1" />
  <sodipodi:namedview
     id="namedview1"
     pagecolor="#505050"
     bordercolor="#ffffff"
     borderopacity="1"
     inkscape:showpageshadow="0"
     inkscape:pageopacity="0"
     inkscape:pagecheckerboard="1"
     inkscape:deskcolor="#d1d1d1"
     inkscape:zoom="0.8982731"
     inkscape:cx="263.28296"
     inkscape:cy="430.82666"
     inkscape:window-width="1920"
     inkscape:window-height="1002"
     inkscape:window-x="0"
     inkscape:window-y="0"
     inkscape:window-maximized="1"
     inkscape:current-layer="g1">
    <inkscape:page
       x="0"
       y="0"
       inkscape:label="1"
       id="page1"
       width="526.35999"
       height="861.65332"
       margin="0"
       bleed="0" />
  </sodipodi:namedview>
  <g
     id="g1"
     inkscape:groupmode="layer"
     inkscape:label="1">
    <g
       id="group-R5">
      <path
         id="path2"
         d="m 1024.42,87.5508 c 0,6.5508 -0.94,12.1992 -2.89,16.8472 -1.88,4.704 -4.54,8.313 -7.96,10.872 -3.39,2.492 -7.12,3.761 -11.27,3.761 -6.538,0 -12.066,-2.761 -16.577,-8.101 -4.5,-5.438 -6.758,-13.3284 -6.758,-23.8206 0,-9.8711 2.258,-17.5391 6.699,-22.9688 4.492,-5.4922 10.051,-8.2695 16.636,-8.2695 3.95,0 7.62,1.1992 11,3.6289 3.32,2.3906 6.04,5.9609 8.07,10.7188 2.05,4.8125 3.05,10.5703 3.05,17.332 z m -46.549,36.0972 v -2.968 c 4.453,5.73 9.082,10 13.899,12.652 4.812,2.707 10.3,4.066 16.39,4.066 7.3,0 14.03,-1.988 20.18,-5.918 6.14,-3.929 11,-9.652 14.57,-17.238 3.57,-7.59 5.34,-16.5232 5.34,-26.8826 0,-7.6211 -1,-14.6875 -3.07,-21 -2.05,-6.4102 -4.88,-11.7891 -8.48,-16.1094 -3.6,-4.3281 -7.87,-7.6797 -12.74,-9.9687 -4.93,-2.3711 -10.2,-3.5196 -15.8,-3.5196 -6.81,0 -12.515,1.4102 -17.125,4.2578 -4.648,2.8399 -9.004,6.9922 -13.164,12.5196 V 16.3516 C 977.871,5.42188 974.063,0 966.465,0 c -4.461,0 -7.442,1.37891 -8.848,4.19141 -1.465,2.82031 -2.179,6.92969 -2.179,12.32029 V 123.5 c 0,4.719 0.949,8.262 2.941,10.57 1.992,2.321 4.687,3.52 8.086,3.52 3.371,0 6.113,-1.199 8.223,-3.61 2.109,-2.421 3.183,-5.859 3.183,-10.332"
         style="fill:#463d3b;fill-opacity:1;fill-rule:nonzero;stroke:none"
         transform="matrix(0.13333333,0,0,-0.13333333,0,861.65333)" />
      <path
         id="path3"
         d="m 1129.05,50.7695 v 3.1407 c -2.87,-3.75 -5.85,-6.8789 -8.99,-9.3985 -3.14,-2.5898 -6.55,-4.4726 -10.26,-5.6992 -3.73,-1.2227 -7.96,-1.8437 -12.71,-1.8437 -5.72,0 -10.88,1.25 -15.43,3.7031 -4.57,2.4765 -8.09,5.8984 -10.57,10.25 -2.97,5.2773 -4.44,12.8476 -4.44,22.6797 v 49.1364 c 0,4.922 1.07,8.653 3.23,11.082 2.14,2.45 4.97,3.7 8.51,3.7 3.6,0 6.49,-1.25 8.71,-3.75 2.2,-2.481 3.29,-6.18 3.29,-11.032 V 83.0313 c 0,-5.7227 0.47,-10.5508 1.36,-14.4219 0.96,-3.9375 2.63,-7 5.07,-9.2188 2.36,-2.1992 5.63,-3.2812 9.74,-3.2812 4.05,0 7.82,1.25 11.31,3.7226 3.58,2.4571 6.16,5.6875 7.77,9.668 1.35,3.5391 2,11.2109 2,23.082 v 30.156 c 0,4.852 1.1,8.551 3.32,11.032 2.18,2.5 5.04,3.75 8.58,3.75 3.55,0 6.39,-1.25 8.53,-3.7 2.14,-2.429 3.19,-6.16 3.19,-11.082 V 50.9219 c 0,-4.7227 -1,-8.2735 -3.08,-10.6133 -2.03,-2.3789 -4.67,-3.5273 -7.94,-3.5273 -3.23,0 -5.9,1.25 -8.03,3.6484 -2.11,2.4805 -3.16,5.8828 -3.16,10.3398"
         style="fill:#463d3b;fill-opacity:1;fill-rule:nonzero;stroke:none"
         transform="matrix(0.13333333,0,0,-0.13333333,0,861.65333)" />
      <path
         id="path4"
         d="m 1197.93,86.5586 c 0,-9.8594 2.15,-17.4063 6.45,-22.7266 4.33,-5.2734 10,-7.9609 17.04,-7.9609 5.98,0 11.1,2.7383 15.46,8.1484 4.33,5.4219 6.48,13.1407 6.48,23.2618 0,6.5976 -0.9,12.2109 -2.7,16.9097 -1.81,4.75 -4.38,8.391 -7.65,10.95 -3.35,2.57 -7.17,3.89 -11.59,3.89 -4.56,0 -8.54,-1.32 -12.09,-3.89 -3.56,-2.559 -6.32,-6.301 -8.37,-11.172 -2.02,-4.8401 -3.03,-10.6292 -3.03,-17.4104 z m -1.13,73.6914 v -37.879 c 4.41,4.879 9,8.551 13.63,11.18 4.65,2.558 10.41,3.847 17.25,3.847 7.88,0 14.78,-1.988 20.74,-5.839 5.94,-3.969 10.57,-9.59 13.83,-17 3.3,-7.418 4.92,-16.1996 4.92,-26.3676 0,-7.5312 -0.9,-14.4101 -2.71,-20.6992 -1.84,-6.25 -4.48,-11.6602 -7.96,-16.3008 -3.51,-4.582 -7.73,-8.0898 -12.67,-10.6914 -4.98,-2.4687 -10.45,-3.7383 -16.41,-3.7383 -3.64,0 -7.09,0.4571 -10.33,1.3672 -3.22,0.9024 -5.98,2.082 -8.2,3.6016 -2.29,1.4179 -4.2,2.9883 -5.8,4.5312 -1.61,1.5977 -3.68,3.9375 -6.29,7.0899 v -2.4297 c 0,-4.6797 -1.1,-8.1914 -3.25,-10.6133 -2.12,-2.3789 -4.88,-3.5469 -8.15,-3.5469 -3.39,0 -6.04,1.168 -8.07,3.5469 -1.99,2.4727 -2.98,5.9531 -2.98,10.6133 V 159.16 c 0,4.992 0.96,8.789 2.92,11.36 1.93,2.601 4.62,3.871 8.13,3.871 3.62,0 6.46,-1.231 8.41,-3.7 1.99,-2.441 2.99,-5.902 2.99,-10.441"
         style="fill:#463d3b;fill-opacity:1;fill-rule:nonzero;stroke:none"
         transform="matrix(0.13333333,0,0,-0.13333333,0,861.65333)" />
      <path
         id="path5"
         d="M 1283.93,51.8516 V 159.32 c 0,4.981 1.06,8.711 3.16,11.27 2.14,2.531 4.98,3.801 8.58,3.801 3.6,0 6.49,-1.25 8.71,-3.77 2.16,-2.5 3.3,-6.301 3.3,-11.301 V 51.8516 c 0,-5.0313 -1.15,-8.8203 -3.36,-11.3516 -2.22,-2.4687 -5.12,-3.7383 -8.65,-3.7383 -3.48,0 -6.28,1.2969 -8.46,3.9102 -2.19,2.6094 -3.28,6.3086 -3.28,11.1797"
         style="fill:#463d3b;fill-opacity:1;fill-rule:nonzero;stroke:none"
         transform="matrix(0.13333333,0,0,-0.13333333,0,861.65333)" />
      <path
         id="path6"
         d="M 1355.95,123.43 V 51.8516 c 0,-5 -1.16,-8.75 -3.37,-11.293 -2.29,-2.5 -5.18,-3.7969 -8.62,-3.7969 -3.49,0 -6.32,1.2969 -8.49,3.8867 -2.17,2.6329 -3.26,6.3321 -3.26,11.2032 v 70.8864 c 0,4.852 1.09,8.551 3.26,11.032 2.17,2.5 5,3.75 8.49,3.75 3.44,0 6.33,-1.25 8.62,-3.75 2.21,-2.481 3.37,-5.918 3.37,-10.34 z m -11.76,25.629 c -3.29,0 -6.1,1.05 -8.5,3.23 -2.29,2.102 -3.48,5.133 -3.48,9 0,3.5 1.19,6.359 3.61,8.672 2.38,2.277 5.18,3.348 8.37,3.348 3.08,0 5.82,-1 8.19,-3.039 2.37,-2.051 3.57,-5.09 3.57,-8.981 0,-3.84 -1.18,-6.809 -3.49,-8.93 -2.32,-2.16 -5.06,-3.3 -8.27,-3.3"
         style="fill:#463d3b;fill-opacity:1;fill-rule:nonzero;stroke:none"
         transform="matrix(0.13333333,0,0,-0.13333333,0,861.65333)" />
      <path
         id="path7"
         d="m 1465.55,67.4414 c 0,-3.0703 -0.88,-6.3828 -2.64,-9.8789 -1.8,-3.5117 -4.49,-6.8437 -8.12,-10.0234 -3.62,-3.168 -8.19,-5.7383 -13.68,-7.6485 -5.5,-1.9804 -11.73,-2.9218 -18.61,-2.9218 -14.69,0 -26.13,4.4609 -34.37,13.371 -8.23,8.9415 -12.35,20.8711 -12.35,35.8907 0,10.1601 1.88,19.1795 5.63,26.9685 3.77,7.77 9.25,13.84 16.36,18.09 7.11,4.289 15.67,6.422 25.55,6.422 6.17,0 11.84,-0.961 16.95,-2.813 5.14,-1.886 9.5,-4.32 13.03,-7.257 3.58,-2.969 6.29,-6.129 8.2,-9.493 1.92,-3.347 2.82,-6.488 2.82,-9.398 0,-2.93 -1.08,-5.43 -3.17,-7.52 -2.13,-2.0581 -4.67,-3.0894 -7.69,-3.0894 -2,0 -3.62,0.5703 -4.94,1.6289 -1.27,1.0195 -2.76,2.6915 -4.38,5.1015 -2.91,4.578 -5.94,8.051 -9.1,10.399 -3.16,2.281 -7.19,3.46 -12.01,3.46 -7.05,0 -12.72,-2.898 -16.99,-8.609 -4.3,-5.762 -6.43,-13.5624 -6.43,-23.4999 0,-4.6523 0.57,-8.9727 1.66,-12.8594 1.09,-3.9101 2.69,-7.2109 4.77,-9.9922 2.09,-2.7578 4.59,-4.8398 7.57,-6.25 2.95,-1.4375 6.21,-2.1601 9.71,-2.1601 4.81,0 8.85,1.1406 12.25,3.4531 3.39,2.3281 6.4,5.8281 8.98,10.5078 1.49,2.8399 3.05,5 4.73,6.6016 1.7,1.5703 3.75,2.3086 6.17,2.3086 2.91,0 5.31,-1.1094 7.25,-3.3985 1.87,-2.3515 2.85,-4.7812 2.85,-7.3906"
         style="fill:#463d3b;fill-opacity:1;fill-rule:nonzero;stroke:none"
         transform="matrix(0.13333333,0,0,-0.13333333,0,861.65333)" />
      <path
         id="path8"
         d="m 1504.67,87.2813 c 0,-6.711 0.99,-12.4024 2.99,-17.1524 2.01,-4.7266 4.7,-8.2383 8.18,-10.6289 3.52,-2.4297 7.3,-3.6289 11.39,-3.6289 4.2,0 8,1.1602 11.44,3.4102 3.46,2.2773 6.19,5.7695 8.28,10.457 2.05,4.6836 3.07,10.5508 3.07,17.543 0,6.6406 -1.02,12.2773 -3.07,17.0467 -2.09,4.774 -4.84,8.383 -8.36,10.942 -3.51,2.492 -7.34,3.761 -11.5,3.761 -4.34,0 -8.22,-1.32 -11.66,-3.89 -3.4,-2.559 -6.07,-6.27 -7.95,-11.082 -1.87,-4.8402 -2.81,-10.3676 -2.81,-16.7777 z m 46.66,-36.3594 v 2.4297 c -3.19,-3.8203 -6.33,-6.9024 -9.45,-9.2813 -3.07,-2.4101 -6.45,-4.2109 -10.08,-5.4609 -3.6,-1.211 -7.58,-1.8477 -11.86,-1.8477 -5.66,0 -10.96,1.2696 -15.78,3.7383 -4.82,2.6016 -9.02,6.1289 -12.56,10.7891 -3.53,4.6523 -6.21,10.1406 -8.06,16.4609 -1.84,6.2695 -2.74,13.0703 -2.74,20.4414 0,15.4496 3.63,27.5786 10.88,36.2386 7.27,8.648 16.8,12.968 28.61,12.968 6.84,0 12.62,-1.25 17.31,-3.75 4.69,-2.398 9.28,-6.179 13.73,-11.277 v 36.59 c 0,5.09 0.97,8.918 2.93,11.519 1.93,2.61 4.67,3.911 8.28,3.911 3.59,0 6.35,-1.2 8.32,-3.571 1.93,-2.379 2.93,-5.929 2.93,-10.57 V 50.9219 c 0,-4.7227 -1.06,-8.2735 -3.15,-10.6133 -2.09,-2.3789 -4.78,-3.5469 -8.1,-3.5469 -3.2,0 -5.92,1.2188 -8.05,3.668 -2.11,2.4297 -3.16,5.9101 -3.16,10.4922"
         style="fill:#463d3b;fill-opacity:1;fill-rule:nonzero;stroke:none"
         transform="matrix(0.13333333,0,0,-0.13333333,0,861.65333)" />
      <path
         id="path9"
         d="m 1662.68,87.0898 c 0,10.0704 -2.15,17.9612 -6.41,23.5902 -4.26,5.59 -10,8.441 -17.17,8.441 -4.67,0 -8.73,-1.281 -12.28,-3.781 -3.52,-2.531 -6.25,-6.238 -8.17,-11.149 -1.91,-4.8512 -2.87,-10.5504 -2.87,-17.1012 0,-6.4804 0.96,-12.1289 2.83,-16.9609 1.88,-4.8281 4.57,-8.5469 8.11,-11.1289 3.48,-2.5508 7.66,-3.8203 12.38,-3.8203 7.17,0 12.91,2.8008 17.17,8.4609 4.26,5.6289 6.41,13.4805 6.41,23.4492 z m 23.82,0 c 0,-7.3515 -1.11,-14.1601 -3.3,-20.4375 -2.2,-6.1718 -5.39,-11.5507 -9.55,-16.0312 -4.2,-4.4922 -9.18,-7.8398 -14.98,-10.3125 -5.8,-2.3789 -12.36,-3.5469 -19.57,-3.5469 -7.19,0 -13.65,1.168 -19.39,3.6289 -5.75,2.4102 -10.73,5.8711 -14.94,10.3789 -4.18,4.5313 -7.37,9.8203 -9.57,15.9493 -2.17,6.1914 -3.25,12.9414 -3.25,20.4101 0,7.5 1.12,14.3591 3.3,20.5821 2.21,6.25 5.36,11.551 9.48,16 4.12,4.41 9.1,7.82 14.98,10.199 5.88,2.379 12.3,3.61 19.39,3.61 7.19,0 13.73,-1.231 19.57,-3.649 5.84,-2.41 10.86,-5.891 15.04,-10.371 4.18,-4.469 7.34,-9.82 9.49,-16 2.23,-6.148 3.3,-12.9805 3.3,-20.4102"
         style="fill:#463d3b;fill-opacity:1;fill-rule:nonzero;stroke:none"
         transform="matrix(0.13333333,0,0,-0.13333333,0,861.65333)" />
      <path
         id="path10"
         d="m 1786.8,107.551 c -1.78,-4.192 -2.64,-11.5705 -2.64,-22.219 V 52.3984 c 0,-5.1796 -1.11,-9.1171 -3.4,-11.7265 -2.24,-2.6133 -5.25,-3.9102 -8.96,-3.9102 -3.58,0 -6.49,1.2969 -8.69,3.9102 -2.25,2.6094 -3.34,6.5469 -3.34,11.7265 v 39.5313 c 0,6.2109 -0.24,11.0393 -0.65,14.5393 -0.41,3.422 -1.5,6.269 -3.3,8.48 -1.76,2.223 -4.63,3.332 -8.5,3.332 -7.75,0 -12.85,-2.789 -15.35,-8.39 -2.48,-5.563 -3.67,-13.559 -3.67,-23.9808 V 52.3984 c 0,-5.1601 -1.13,-9.0781 -3.34,-11.6562 -2.25,-2.6836 -5.19,-3.9805 -8.81,-3.9805 -3.61,0 -6.6,1.2969 -8.86,3.9805 -2.31,2.5781 -3.4,6.4961 -3.4,11.6367 v 70.9301 c 0,4.671 0.97,8.222 3.02,10.621 2.09,2.41 4.79,3.66 8.17,3.66 3.24,0 5.96,-1.129 8.12,-3.399 2.17,-2.269 3.26,-5.402 3.26,-9.402 v -2.359 c 4.11,5.16 8.52,8.941 13.21,11.34 4.69,2.41 9.96,3.628 15.66,3.628 5.96,0 11.06,-1.25 15.35,-3.75 4.32,-2.449 7.84,-6.218 10.61,-11.218 4,5.039 8.3,8.859 12.89,11.289 4.59,2.461 9.65,3.679 15.2,3.679 6.54,0 12.1,-1.289 16.79,-3.996 4.71,-2.672 8.21,-6.453 10.53,-11.433 2.05,-4.489 3.05,-11.528 3.05,-21.18 V 52.3984 c 0,-5.1796 -1.14,-9.1171 -3.36,-11.7265 -2.31,-2.6133 -5.28,-3.9102 -8.99,-3.9102 -3.59,0 -6.54,1.2969 -8.81,3.9805 -2.32,2.5781 -3.47,6.4961 -3.47,11.6562 v 41.7032 c 0,5.3281 -0.22,9.5784 -0.65,12.7964 -0.43,3.25 -1.6,5.911 -3.53,8.082 -1.9,2.192 -4.83,3.301 -8.67,3.301 -3.13,0 -6.12,-0.98 -8.89,-2.879 -2.87,-1.972 -5,-4.57 -6.58,-7.851 v 0"
         style="fill:#463d3b;fill-opacity:1;fill-rule:nonzero;stroke:none"
         transform="matrix(0.13333333,0,0,-0.13333333,0,861.65333)" />
      <path
         id="path11"
         d="m 1921.25,86.6211 c -3.5,-1.3516 -8.55,-2.7422 -15.2,-4.2422 -6.62,-1.4883 -11.23,-2.5469 -13.78,-3.2773 -2.56,-0.711 -4.98,-2.0508 -7.29,-4.0703 -2.34,-2.0821 -3.5,-4.9024 -3.5,-8.5313 0,-3.7812 1.37,-6.9687 4.09,-9.5781 2.73,-2.6719 6.31,-3.9727 10.72,-3.9727 4.69,0 9.04,1.1016 12.99,3.25 3.98,2.1211 6.89,4.9414 8.73,8.3008 2.15,3.75 3.24,9.9219 3.24,18.5898 z m 1.56,-35.9023 c -5.76,-4.6602 -11.31,-8.1485 -16.68,-10.4375 -5.33,-2.3711 -11.36,-3.5196 -18,-3.5196 -6.14,0 -11.45,1.2696 -16.08,3.7383 -4.63,2.5313 -8.16,5.9492 -10.66,10.2695 -2.48,4.293 -3.75,8.9219 -3.75,13.961 0,6.789 2.11,12.5508 6.21,17.3398 4.08,4.7383 9.74,7.961 16.91,9.6094 1.53,0.3594 5.28,1.1523 11.23,2.4219 6.02,1.3007 11.1,2.457 15.39,3.5 4.24,1.039 8.89,2.3281 13.87,3.8394 -0.31,6.571 -1.56,11.368 -3.77,14.469 -2.25,3.031 -6.91,4.531 -13.89,4.531 -6.05,0 -10.56,-0.851 -13.65,-2.621 -3.03,-1.718 -5.64,-4.39 -7.79,-7.929 -2.21,-3.5 -3.71,-5.821 -4.61,-6.942 -0.92,-1.129 -2.85,-1.636 -5.78,-1.636 -2.7,0 -4.98,0.867 -6.9,2.636 -1.97,1.793 -2.95,4.063 -2.95,6.883 0,4.359 1.49,8.617 4.44,12.668 2.97,4.141 7.58,7.52 13.83,10.219 6.27,2.672 14.08,3.992 23.41,3.992 10.41,0 18.64,-1.32 24.63,-3.891 5.96,-2.531 10.16,-6.57 12.62,-12.199 2.48,-5.519 3.73,-12.941 3.73,-22.1288 0,-5.8008 0,-10.7813 -0.06,-14.8008 -0.06,-4.082 -0.06,-8.5898 -0.13,-13.5508 0,-4.6406 0.74,-9.5312 2.22,-14.5508 1.45,-5.039 2.19,-8.3203 2.19,-9.7382 0,-2.5508 -1.17,-4.8828 -3.44,-6.961 -2.24,-2.082 -4.84,-3.1289 -7.75,-3.1289 -2.44,0 -4.83,1.168 -7.25,3.5469 -2.34,2.4219 -4.88,5.8906 -7.54,10.4102"
         style="fill:#463d3b;fill-opacity:1;fill-rule:nonzero;stroke:none"
         transform="matrix(0.13333333,0,0,-0.13333333,0,861.65333)" />
      <path
         id="path12"
         d="M 1992.43,123.43 V 51.8516 c 0,-5 -1.13,-8.75 -3.38,-11.293 -2.26,-2.5 -5.12,-3.7969 -8.6,-3.7969 -3.48,0 -6.35,1.2969 -8.5,3.8867 -2.18,2.6329 -3.26,6.3321 -3.26,11.2032 v 70.8864 c 0,4.852 1.08,8.551 3.26,11.032 2.15,2.5 5.02,3.75 8.5,3.75 3.48,0 6.34,-1.25 8.6,-3.75 2.25,-2.481 3.38,-5.918 3.38,-10.34 z m -11.75,25.629 c -3.28,0 -6.09,1.05 -8.45,3.23 -2.35,2.102 -3.54,5.133 -3.54,9 0,3.5 1.21,6.359 3.63,8.672 2.39,2.277 5.2,3.348 8.36,3.348 3.07,0 5.83,-1 8.22,-3.039 2.34,-2.051 3.53,-5.09 3.53,-8.981 0,-3.84 -1.15,-6.809 -3.46,-8.93 -2.34,-2.16 -5.1,-3.3 -8.29,-3.3"
         style="fill:#463d3b;fill-opacity:1;fill-rule:nonzero;stroke:none"
         transform="matrix(0.13333333,0,0,-0.13333333,0,861.65333)" />
      <path
         id="path13"
         d="m 2038.56,123.789 v -2.957 c 4.15,5.727 8.73,9.949 13.66,12.637 4.98,2.679 10.66,4.051 17.15,4.051 6.23,0 11.83,-1.411 16.79,-4.301 4.88,-2.828 8.6,-6.809 11.02,-12.02 1.56,-3.051 2.56,-6.34 3.04,-9.828 0.43,-3.5 0.71,-7.969 0.71,-13.4296 V 51.8516 c 0,-5 -1.14,-8.75 -3.28,-11.293 -2.17,-2.5 -5.02,-3.7969 -8.48,-3.7969 -3.52,0 -6.41,1.2969 -8.54,3.9102 -2.22,2.6094 -3.35,6.3086 -3.35,11.1797 v 41.2578 c 0,8.2106 -1.06,14.4416 -3.23,18.7696 -2.22,4.32 -6.56,6.5 -13.06,6.5 -4.22,0 -8.07,-1.32 -11.57,-3.969 -3.47,-2.601 -6.01,-6.23 -7.63,-10.84 -1.16,-3.6794 -1.76,-10.57 -1.76,-20.738 V 51.8516 c 0,-5.0313 -1.11,-8.8203 -3.36,-11.3516 -2.25,-2.4687 -5.12,-3.7383 -8.63,-3.7383 -3.42,0 -6.25,1.2969 -8.44,3.8867 -2.23,2.6329 -3.32,6.3321 -3.32,11.2032 V 123.43 c 0,4.742 0.98,8.23 2.97,10.582 1.95,2.328 4.69,3.508 8.08,3.508 2.07,0 3.99,-0.551 5.63,-1.559 1.74,-1.012 3.05,-2.602 4.06,-4.59 1,-2.109 1.54,-4.609 1.54,-7.582"
         style="fill:#463d3b;fill-opacity:1;fill-rule:nonzero;stroke:none"
         transform="matrix(0.13333333,0,0,-0.13333333,0,861.65333)" />
      <path
         id="path14"
         d="m 2139.03,122.082 19.18,-56.2617 20.71,58.7187 c 1.66,4.723 3.24,8.031 4.82,10.02 1.6,1.953 3.93,2.961 7.11,2.961 3.03,0 5.59,-1.059 7.75,-3.219 2.07,-2.102 3.15,-4.512 3.15,-7.352 0,-1.09 -0.22,-2.34 -0.59,-3.738 -0.35,-1.5 -0.78,-2.871 -1.29,-4.152 -0.5,-1.239 -1.01,-2.719 -1.7,-4.329 l -22.79,-58.9995 c -0.64,-1.6797 -1.48,-3.8594 -2.48,-6.4688 -1.03,-2.582 -2.17,-4.7812 -3.4,-6.6914 -1.27,-1.8203 -2.79,-3.2187 -4.59,-4.2617 -1.85,-1.0195 -4.08,-1.5469 -6.7,-1.5469 -3.36,0 -6.03,0.7891 -8.04,2.3789 -2.02,1.6094 -3.5,3.3516 -4.44,5.3008 -0.94,1.8711 -2.58,5.6484 -4.82,11.2891 l -22.64,58.3515 c -0.53,1.449 -1.07,2.91 -1.64,4.348 -0.53,1.461 -0.96,2.91 -1.37,4.441 -0.35,1.559 -0.56,2.848 -0.56,3.891 0,1.726 0.49,3.398 1.5,5.066 0.98,1.672 2.36,3.063 4.08,4.094 1.76,1.047 3.62,1.598 5.67,1.598 3.92,0 6.64,-1.18 8.12,-3.59 1.49,-2.34 3.15,-6.289 4.96,-11.848"
         style="fill:#463d3b;fill-opacity:1;fill-rule:nonzero;stroke:none"
         transform="matrix(0.13333333,0,0,-0.13333333,0,861.65333)" />
      <path
         id="path15"
         d="m 2236.16,95.1719 h 43.05 c -0.57,8.4491 -2.74,14.7891 -6.56,18.9691 -3.81,4.191 -8.81,6.3 -15.02,6.3 -5.88,0 -10.76,-2.132 -14.53,-6.382 -3.81,-4.239 -6.08,-10.559 -6.94,-18.8871 z m 46.47,-14.0899 h -46.47 c 0.02,-5.6718 1.15,-10.6015 3.22,-14.9414 2.17,-4.25 4.97,-7.4922 8.46,-9.6914 3.52,-2.1992 7.4,-3.25 11.64,-3.25 2.83,0 5.45,0.3399 7.78,1 2.34,0.7422 4.62,1.8203 6.85,3.293 2.17,1.4883 4.18,3.0391 6.06,4.7969 1.83,1.6718 4.31,3.9414 7.2,6.8632 1.25,1.1485 2.99,1.6485 5.24,1.6485 2.46,0 4.41,-0.6719 5.92,-2.0899 1.52,-1.4023 2.24,-3.3515 2.24,-5.8789 0,-2.2422 -0.82,-4.8711 -2.52,-7.8906 -1.68,-2.9609 -4.16,-5.8516 -7.62,-8.6289 -3.39,-2.7305 -7.65,-4.9922 -12.79,-6.8437 -5.1,-1.8086 -10.97,-2.7071 -17.69,-2.7071 -15.24,0 -27.11,4.5586 -35.55,13.5977 -8.44,9.1211 -12.68,21.4101 -12.68,36.9219 0,7.4101 1.08,14.1597 3.13,20.4097 2.09,6.27 5.12,11.637 9.12,16.098 4,4.512 8.91,7.973 14.79,10.32 5.87,2.403 12.34,3.602 19.51,3.602 9.22,0 17.18,-2.039 23.82,-6.152 6.67,-4.09 11.63,-9.329 14.93,-15.789 3.32,-6.508 4.96,-13.079 4.96,-19.8403 0,-6.1992 -1.66,-10.2383 -5.12,-12.0703 -3.46,-1.8906 -8.22,-2.7774 -14.43,-2.7774"
         style="fill:#463d3b;fill-opacity:1;fill-rule:nonzero;stroke:none"
         transform="matrix(0.13333333,0,0,-0.13333333,0,861.65333)" />
      <path
         id="path16"
         d="m 2407.37,67.4414 c 0,-3.0703 -0.88,-6.3828 -2.67,-9.8789 -1.78,-3.5117 -4.44,-6.8437 -8.09,-10.0234 -3.61,-3.168 -8.2,-5.7383 -13.73,-7.6485 -5.49,-1.9804 -11.72,-2.9218 -18.57,-2.9218 -14.71,0 -26.16,4.4609 -34.38,13.371 -8.2,8.9415 -12.36,20.8711 -12.36,35.8907 0,10.1601 1.87,19.1795 5.68,26.9685 3.77,7.77 9.18,13.84 16.33,18.09 7.11,4.289 15.66,6.422 25.59,6.422 6.15,0 11.75,-0.961 16.93,-2.813 5.12,-1.886 9.43,-4.32 13.05,-7.257 3.57,-2.969 6.27,-6.129 8.18,-9.493 1.86,-3.347 2.81,-6.488 2.81,-9.398 0,-2.93 -1.03,-5.43 -3.22,-7.52 -2.09,-2.0581 -4.65,-3.0894 -7.66,-3.0894 -1.99,0 -3.61,0.5703 -4.88,1.6289 -1.35,1.0195 -2.79,2.6915 -4.45,5.1015 -2.89,4.578 -5.9,8.051 -9.06,10.399 -3.17,2.281 -7.19,3.46 -12.08,3.46 -6.97,0 -12.65,-2.898 -16.93,-8.609 -4.32,-5.762 -6.44,-13.5624 -6.44,-23.4999 0,-4.6523 0.58,-8.9727 1.64,-12.8594 1.11,-3.9101 2.71,-7.2109 4.8,-9.9922 2.09,-2.7578 4.63,-4.8398 7.58,-6.25 2.91,-1.4375 6.17,-2.1601 9.73,-2.1601 4.74,0 8.84,1.1406 12.22,3.4531 3.38,2.3281 6.41,5.8281 9.03,10.5078 1.44,2.8399 2.98,5 4.68,6.6016 1.66,1.5703 3.71,2.3086 6.18,2.3086 2.87,0 5.31,-1.1094 7.16,-3.3985 1.96,-2.3515 2.93,-4.7812 2.93,-7.3906"
         style="fill:#463d3b;fill-opacity:1;fill-rule:nonzero;stroke:none"
         transform="matrix(0.13333333,0,0,-0.13333333,0,861.65333)" />
      <path
         id="path17"
         d="m 2429.42,135.41 h 2.62 v 14.91 c 0,3.961 0.1,7.129 0.31,9.391 0.2,2.269 0.73,4.187 1.7,5.84 0.9,1.668 2.25,3.078 4.01,4.14 1.72,1.039 3.65,1.539 5.8,1.539 3.01,0 5.74,-1.167 8.16,-3.5 1.6,-1.601 2.66,-3.5 3.09,-5.75 0.45,-2.269 0.64,-5.531 0.64,-9.691 V 135.41 h 8.73 c 3.36,0 5.94,-0.828 7.7,-2.5 1.79,-1.66 2.65,-3.769 2.65,-6.371 0,-3.328 -1.25,-5.707 -3.8,-7.008 -2.5,-1.312 -6.12,-1.98 -10.82,-1.98 h -4.46 V 71.9102 c 0,-3.8907 0.14,-6.8711 0.39,-8.9805 0.3,-2.1094 1.04,-3.8008 2.15,-5.0703 1.09,-1.3086 2.93,-1.9883 5.51,-1.9883 1.39,0 3.26,0.2578 5.66,0.7891 2.33,0.5117 4.18,0.7617 5.55,0.7617 1.89,0 3.67,-0.8321 5.18,-2.3594 1.5,-1.6406 2.3,-3.582 2.3,-5.9727 0,-3.9804 -2.05,-7.0312 -6.25,-9.1679 -4.22,-2.1133 -10.2,-3.1602 -18.01,-3.1602 -7.42,0 -13.06,1.2969 -16.89,3.9102 -3.81,2.6094 -6.35,6.1797 -7.5,10.8398 -1.21,4.5977 -1.8,10.7188 -1.8,18.4102 v 47.6291 h -3.16 c -3.36,0 -5.98,0.828 -7.8,2.551 -1.81,1.679 -2.69,3.82 -2.69,6.437 0,2.602 0.94,4.711 2.79,6.371 1.92,1.672 4.65,2.5 8.24,2.5"
         style="fill:#463d3b;fill-opacity:1;fill-rule:nonzero;stroke:none"
         transform="matrix(0.13333333,0,0,-0.13333333,0,861.65333)" />
      <path
         id="path18"
         d="m 2556.2,87.0898 c 0,10.0704 -2.15,17.9612 -6.39,23.5902 -4.29,5.59 -9.98,8.441 -17.18,8.441 -4.65,0 -8.73,-1.281 -12.27,-3.781 -3.55,-2.531 -6.27,-6.238 -8.16,-11.149 -1.92,-4.8512 -2.89,-10.5504 -2.89,-17.1012 0,-6.4804 0.97,-12.1289 2.85,-16.9609 1.87,-4.8281 4.55,-8.5469 8.06,-11.1289 3.5,-2.5508 7.62,-3.8203 12.41,-3.8203 7.2,0 12.89,2.8008 17.18,8.4609 4.24,5.6289 6.39,13.4805 6.39,23.4492 z m 23.83,0 c 0,-7.3515 -1.09,-14.1601 -3.32,-20.4375 -2.19,-6.1718 -5.39,-11.5507 -9.55,-16.0312 -4.18,-4.4922 -9.18,-7.8398 -14.96,-10.3125 -5.8,-2.3789 -12.29,-3.5469 -19.57,-3.5469 -7.23,0 -13.69,1.168 -19.42,3.6289 -5.72,2.4102 -10.72,5.8711 -14.9,10.3789 -4.2,4.5313 -7.4,9.8203 -9.55,15.9493 -2.17,6.1914 -3.24,12.9414 -3.24,20.4101 0,7.5 1.07,14.3591 3.24,20.5821 2.27,6.25 5.37,11.551 9.49,16 4.14,4.41 9.12,7.82 14.96,10.199 5.92,2.379 12.37,3.61 19.42,3.61 7.2,0 13.69,-1.231 19.57,-3.649 5.86,-2.41 10.86,-5.891 15.04,-10.371 4.14,-4.469 7.38,-9.82 9.53,-16 2.17,-6.148 3.26,-12.9805 3.26,-20.4102"
         style="fill:#463d3b;fill-opacity:1;fill-rule:nonzero;stroke:none"
         transform="matrix(0.13333333,0,0,-0.13333333,0,861.65333)" />
      <path
         id="path19"
         d="M 2622.33,72.4805 V 51.8516 c 0,-5.0313 -1.13,-8.8203 -3.39,-11.3516 -2.27,-2.4687 -5.14,-3.7383 -8.64,-3.7383 -3.4,0 -6.23,1.2969 -8.42,3.7969 -2.2,2.543 -3.28,6.293 -3.28,11.293 v 68.9574 c 0,11.16 3.83,16.711 11.55,16.711 3.9,0 6.77,-1.34 8.53,-3.911 1.72,-2.589 2.64,-6.457 2.87,-11.527 2.83,5.07 5.76,8.938 8.75,11.527 2.99,2.571 6.96,3.911 11.92,3.911 5.04,0 9.84,-1.34 14.57,-3.911 4.67,-2.589 7.05,-6.058 7.05,-10.347 0,-3.024 -1.04,-5.551 -3.03,-7.492 -1.97,-1.95 -4.14,-2.961 -6.48,-2.961 -0.86,0 -2.97,0.57 -6.31,1.703 -3.34,1.117 -6.29,1.687 -8.85,1.687 -3.46,0 -6.29,-0.929 -8.48,-2.89 -2.2,-1.918 -3.92,-4.707 -5.15,-8.457 -1.21,-3.782 -2.09,-8.2309 -2.52,-13.4301 -0.45,-5.1406 -0.69,-11.4414 -0.69,-18.9414"
         style="fill:#463d3b;fill-opacity:1;fill-rule:nonzero;stroke:none"
         transform="matrix(0.13333333,0,0,-0.13333333,0,861.65333)" />
      <path
         id="path20"
         d="m 2748.82,69.1289 c 0,-6.8398 -1.6,-12.6797 -4.83,-17.5703 -3.2,-4.8789 -7.91,-8.5273 -14.14,-11.0781 -6.25,-2.4492 -13.81,-3.7188 -22.79,-3.7188 -8.46,0 -15.8,1.3672 -21.91,4.0899 -6.08,2.7304 -10.59,6.1172 -13.46,10.1875 -2.93,4.0625 -4.41,8.1601 -4.41,12.2617 0,2.7305 0.95,5.0703 2.85,7 1.83,1.9609 4.2,2.9101 7.01,2.9101 2.5,0 4.43,-0.6484 5.76,-1.8984 1.35,-1.332 2.58,-3.0937 3.83,-5.3711 2.44,-4.4414 5.33,-7.7305 8.77,-9.9219 3.34,-2.207 7.99,-3.2695 13.88,-3.2695 4.73,0 8.64,1.1094 11.68,3.332 3.03,2.1875 4.61,4.7188 4.61,7.5586 0,4.3789 -1.62,7.5703 -4.74,9.5391 -3.21,2.0508 -8.38,3.9414 -15.65,5.7422 -8.16,2.1367 -14.82,4.3476 -19.96,6.6679 -5.13,2.3321 -9.29,5.4415 -12.34,9.2422 -3.07,3.7696 -4.63,8.488 -4.63,14.059 0,4.98 1.43,9.679 4.28,14.05 2.83,4.45 7.07,7.961 12.59,10.61 5.53,2.629 12.21,3.969 20.06,3.969 6.14,0 11.66,-0.692 16.59,-2.008 4.88,-1.321 9.02,-3.121 12.24,-5.352 3.28,-2.25 5.8,-4.719 7.5,-7.422 1.74,-2.769 2.58,-5.418 2.58,-8.008 0,-2.851 -0.9,-5.14 -2.75,-7.019 -1.84,-1.75 -4.46,-2.68 -7.78,-2.68 -2.46,0 -4.51,0.711 -6.25,2.199 -1.68,1.43 -3.67,3.602 -5.86,6.469 -1.79,2.442 -3.9,4.391 -6.36,5.832 -2.45,1.438 -5.75,2.18 -9.91,2.18 -4.29,0 -7.89,-0.949 -10.68,-2.871 -2.85,-1.891 -4.3,-4.281 -4.3,-7.129 0,-2.609 1.06,-4.742 3.13,-6.402 2.11,-1.668 4.9,-3.039 8.45,-4.149 3.56,-1.09 8.42,-2.4491 14.63,-3.9998 7.37,-1.8516 13.38,-4.1016 18.05,-6.7188 4.67,-2.582 8.2,-5.6406 10.61,-9.1992 2.44,-3.5703 3.65,-7.6016 3.65,-12.1133"
         style="fill:#463d3b;fill-opacity:1;fill-rule:nonzero;stroke:none"
         transform="matrix(0.13333333,0,0,-0.13333333,0,861.65333)" />
      <path
         id="path21"
         d="m 2775.77,36.7617 c -3.59,0 -6.7,1.168 -9.28,3.6289 -2.65,2.4102 -3.94,5.8086 -3.94,10.1407 0,3.6679 1.23,6.8593 3.69,9.5312 2.5,2.6563 5.61,3.957 9.26,3.957 3.63,0 6.76,-1.3007 9.28,-3.9375 2.61,-2.5898 3.92,-5.832 3.92,-9.5507 0,-4.2891 -1.31,-7.6719 -3.92,-10.1016 -2.52,-2.4492 -5.53,-3.668 -9.01,-3.668"
         style="fill:#463d3b;fill-opacity:1;fill-rule:nonzero;stroke:none"
         transform="matrix(0.13333333,0,0,-0.13333333,0,861.65333)" />
      <path
         id="path22"
         d="m 2880.77,87.0898 c 0,10.0704 -2.15,17.9612 -6.4,23.5902 -4.26,5.59 -9.97,8.441 -17.15,8.441 -4.65,0 -8.69,-1.281 -12.25,-3.781 -3.55,-2.531 -6.27,-6.238 -8.16,-11.149 -1.9,-4.8512 -2.87,-10.5504 -2.87,-17.1012 0,-6.4804 0.91,-12.1289 2.79,-16.9609 1.93,-4.8281 4.61,-8.5469 8.12,-11.1289 3.5,-2.5508 7.62,-3.8203 12.37,-3.8203 7.18,0 12.89,2.8008 17.15,8.4609 4.25,5.6289 6.4,13.4805 6.4,23.4492 z m 23.87,0 c 0,-7.3515 -1.1,-14.1601 -3.34,-20.4375 -2.21,-6.1718 -5.37,-11.5507 -9.55,-16.0312 -4.2,-4.4922 -9.12,-7.8398 -14.96,-10.3125 -5.78,-2.3789 -12.31,-3.5469 -19.57,-3.5469 -7.19,0 -13.66,1.168 -19.4,3.6289 -5.74,2.4102 -10.68,5.8711 -14.88,10.3789 -4.26,4.5313 -7.42,9.8203 -9.63,15.9493 -2.13,6.1914 -3.22,12.9414 -3.22,20.4101 0,7.5 1.09,14.3591 3.3,20.5821 2.24,6.25 5.35,11.551 9.45,16 4.12,4.41 9.12,7.82 14.98,10.199 5.86,2.379 12.29,3.61 19.4,3.61 7.18,0 13.71,-1.231 19.57,-3.649 5.88,-2.41 10.88,-5.891 15.06,-10.371 4.16,-4.469 7.32,-9.82 9.53,-16 2.16,-6.148 3.26,-12.9805 3.26,-20.4102"
         style="fill:#463d3b;fill-opacity:1;fill-rule:nonzero;stroke:none"
         transform="matrix(0.13333333,0,0,-0.13333333,0,861.65333)" />
      <path
         id="path23"
         d="M 2946.92,72.4805 V 51.8516 c 0,-5.0313 -1.13,-8.8203 -3.38,-11.3516 -2.24,-2.4687 -5.13,-3.7383 -8.59,-3.7383 -3.48,0 -6.25,1.2969 -8.48,3.7969 -2.2,2.543 -3.3,6.293 -3.3,11.293 v 68.9574 c 0,11.16 3.91,16.711 11.59,16.711 3.94,0 6.75,-1.34 8.49,-3.911 1.72,-2.589 2.74,-6.457 2.93,-11.527 2.79,5.07 5.7,8.938 8.69,11.527 2.99,2.571 7,3.911 11.94,3.911 5.06,0 9.9,-1.34 14.55,-3.911 4.7,-2.589 7.07,-6.058 7.07,-10.347 0,-3.024 -1.02,-5.551 -2.99,-7.492 -2.03,-1.95 -4.16,-2.961 -6.52,-2.961 -0.84,0 -2.93,0.57 -6.27,1.703 -3.34,1.117 -6.29,1.687 -8.87,1.687 -3.46,0 -6.27,-0.929 -8.54,-2.89 -2.16,-1.918 -3.88,-4.707 -5.11,-8.457 -1.19,-3.782 -2.05,-8.2309 -2.5,-13.4301 -0.45,-5.1406 -0.71,-11.4414 -0.71,-18.9414"
         style="fill:#463d3b;fill-opacity:1;fill-rule:nonzero;stroke:none"
         transform="matrix(0.13333333,0,0,-0.13333333,0,861.65333)" />
      <path
         id="path24"
         d="m 3015.48,87.9414 c 0,-10.0195 2.11,-17.6328 6.33,-22.793 4.18,-5.1171 9.65,-7.7265 16.27,-7.7265 3.92,0 7.69,1.1601 11.19,3.3594 3.51,2.2187 6.36,5.5312 8.59,9.9687 2.21,4.4805 3.28,9.8594 3.28,16.1992 0,10.0899 -2.15,17.9488 -6.4,23.5818 -4.24,5.668 -9.87,8.5 -16.8,8.5 -6.76,0 -12.23,-2.761 -16.29,-8.101 -4.12,-5.418 -6.17,-13.0511 -6.17,-22.9886 z m 68.83,31.4376 V 47.3594 c 0,-8.25 -0.9,-15.3281 -2.54,-21.2188 -1.68,-5.9687 -4.4,-10.8593 -8.09,-14.7304 -3.71,-3.87895 -8.59,-6.73051 -14.55,-8.62114 C 3053.12,0.960938 3045.63,0 3036.73,0 c -8.2,0 -15.53,1.14844 -21.94,3.55078 -6.44,2.44922 -11.4,5.48828 -14.88,9.28902 -3.47,3.75 -5.23,7.6524 -5.23,11.6719 0,3.0274 0.97,5.4883 2.99,7.3867 1.95,1.9414 4.33,2.8907 7.11,2.8907 3.49,0 6.5,-1.6172 9.16,-4.8203 1.27,-1.6797 2.61,-3.3086 3.94,-4.9493 1.35,-1.6875 2.85,-3.1211 4.51,-4.2773 1.66,-1.2109 3.67,-2.082 6,-2.6641 2.26,-0.5781 4.96,-0.8593 7.99,-0.8593 6.11,0 10.93,0.9101 14.29,2.6796 3.4,1.7735 5.79,4.2735 7.17,7.4805 1.31,3.1992 2.17,6.6211 2.31,10.3008 0.29,3.7109 0.45,9.5586 0.6,17.6797 -3.65,-5.2969 -7.93,-9.3711 -12.67,-12.1406 -4.77,-2.7891 -10.49,-4.1485 -17.05,-4.1485 -8.01,0 -14.97,2.0703 -20.86,6.3399 -5.98,4.2421 -10.55,10.1406 -13.73,17.8086 -3.15,7.582 -4.79,16.3906 -4.79,26.3906 0,7.4804 0.96,14.2106 2.95,20.2106 1.89,5.95 4.65,11.012 8.3,15.129 3.56,4.121 7.73,7.231 12.42,9.332 4.73,2.059 9.83,3.117 15.49,3.117 6.7,0 12.54,-1.359 17.46,-4.066 4.98,-2.652 9.51,-6.922 13.75,-12.652 v 3.332 c 0,4.32 1.06,7.609 3.05,10.047 2.03,2.332 4.65,3.531 7.81,3.531 4.61,0 7.66,-1.551 9.18,-4.68 1.48,-3.121 2.25,-7.648 2.25,-13.531"
         style="fill:#463d3b;fill-opacity:1;fill-rule:nonzero;stroke:none"
         transform="matrix(0.13333333,0,0,-0.13333333,0,861.65333)" />
      <path
         id="path25"
         d="m 2055.13,360.691 h 35.23 c -2.5,-19 -10.27,-33.82 -23.22,-44.492 -11.97,-10.437 -26.49,-15.59 -43.44,-15.59 -22.99,0 -41.36,8.071 -55.05,24.211 -13.01,15.328 -19.49,35.129 -19.49,59.321 0,24.8 6.45,44.621 19.32,59.621 12.81,14.937 31,22.457 54.46,22.457 17.46,0 32.23,-4.719 44.2,-14.098 12.71,-10.121 20.47,-24.34 23.22,-42.582 h -35.23 c -3.03,15.902 -12.76,23.82 -29.28,23.82 -27.21,0 -40.87,-16.129 -40.87,-48.398 0,-15.109 3.53,-27.461 10.52,-37.09 7.01,-9.641 16.87,-14.461 29.63,-14.461 18.96,0 28.98,9.102 30,27.281 z m -138.67,22.211 c 0,-31.523 10,-58.211 29.99,-79.933 19.98,-21.758 44.42,-32.637 73.44,-32.637 28.93,0 53.4,10.879 73.36,32.637 20,21.722 29.94,48.41 29.94,79.933 0,31.508 -9.94,58.168 -29.94,79.907 -19.96,21.773 -44.43,32.64 -73.36,32.64 -29.02,0 -53.46,-10.867 -73.44,-32.64 -19.99,-21.739 -29.99,-48.399 -29.99,-79.907 z m -35.76,0 c 0,40.11 13.58,74.336 40.75,102.789 27.18,28.379 60.01,42.579 98.44,42.579 38.38,0 71.15,-14.2 98.38,-42.579 27.19,-28.453 40.8,-62.679 40.8,-102.789 0,-40.132 -13.61,-74.422 -40.8,-102.8 -27.23,-28.422 -60,-42.633 -98.38,-42.633 -38.43,0 -71.26,14.211 -98.44,42.633 -27.17,28.378 -40.75,62.668 -40.75,102.8"
         style="fill:#463d3b;fill-opacity:1;fill-rule:nonzero;stroke:none"
         transform="matrix(0.13333333,0,0,-0.13333333,0,861.65333)" />
      <path
         id="path26"
         d="m 1937.01,291.719 20.29,-17.219 149.31,191.691 -20.29,17.2 -149.31,-191.672"
         style="fill:#463d3b;fill-opacity:1;fill-rule:nonzero;stroke:none"
         transform="matrix(0.13333333,0,0,-0.13333333,0,861.65333)" />
      <path
         id="path27"
         d="m 1973.86,662.398 c 1087.15,0 1973.85,285.973 1973.85,636.602 0,350.62 -886.7,636.6 -1973.85,636.6 C 886.688,1935.6 0,1649.62 0,1299 0,948.371 886.688,662.398 1973.86,662.398"
         style="fill:#948681;fill-opacity:1;fill-rule:evenodd;stroke:none"
         transform="matrix(0.13333333,0,0,-0.13333333,0,861.65333)" />
      <path
         id="path28"
         d="m 1973.84,1935.6 c 492.73,0 943.27,-58.24 1289.11,-154.52 157.26,-91.39 246.95,-196.55 246.95,-308.48 0,-351.58 -883.72,-636.588 -1973.85,-636.588 -492.72,0 -943.253,58.23 -1289.097,154.508 C 89.6758,1081.92 0,1187.06 0,1299 c 0,351.59 883.715,636.6 1973.84,636.6"
         style="fill:#766864;fill-opacity:1;fill-rule:evenodd;stroke:none"
         transform="matrix(0.13333333,0,0,-0.13333333,0,861.65333)" />
      <path
         id="path29"
         d="M 1014.14,6316.44 C 835.879,6299.52 802.074,6093.14 807.715,5954.32 L 905.844,3538.9 c 4.91,-120.97 -23.903,-249.08 -177.391,-317.02 l 1834.217,362.32 -846.33,2786.03 -702.2,-53.79"
         style="fill:#b79b92;fill-opacity:1;fill-rule:evenodd;stroke:none"
         transform="matrix(0.13333333,0,0,-0.13333333,0,861.65333)" />
      <path
         id="path30"
         d="m 898.926,3709.14 6.918,-170.24 c 4.91,-120.97 -23.903,-249.08 -177.391,-317.02 L 2562.67,3584.2 2223.23,4701.56 c -4.2,0.05 -8.35,0.21 -12.58,0.21 -511.41,0 -1021.08,-408.87 -1311.724,-992.63"
         style="fill:#c7aaa1;fill-opacity:1;fill-rule:evenodd;stroke:none"
         transform="matrix(0.13333333,0,0,-0.13333333,0,861.65333)" />
      <path
         id="path31"
         d="m 1834.31,1685.84 113.22,52.84 365.25,2887.18 H 2184.64 L 1834.31,1685.84"
         style="fill:#b2a29e;fill-opacity:1;fill-rule:evenodd;stroke:none"
         transform="matrix(0.13333333,0,0,-0.13333333,0,861.65333)" />
      <path
         id="path32"
         d="m 2036,2437.97 276.78,2187.89 h -128.14 l -259.28,-2175.74 2.89,-39.6 107.75,27.45"
         style="fill:#948681;fill-opacity:1;fill-rule:evenodd;stroke:none"
         transform="matrix(0.13333333,0,0,-0.13333333,0,861.65333)" />
      <path
         id="path33"
         d="m 1547.09,1829.26 356.57,2796.6 h 311.81 l -381.16,-2940.02 -287.22,143.42"
         style="fill:#d7c9c4;fill-opacity:1;fill-rule:evenodd;stroke:none"
         transform="matrix(0.13333333,0,0,-0.13333333,0,861.65333)" />
      <path
         id="path34"
         d="m 1816.66,3943.56 87,682.3 h 311.81 L 1928.25,2410.52 1816.66,3943.56"
         style="fill:#b2a29e;fill-opacity:1;fill-rule:evenodd;stroke:none"
         transform="matrix(0.13333333,0,0,-0.13333333,0,861.65333)" />
      <path
         id="path35"
         d="m 3279.52,1227.47 100.6,52.84 -526.95,4683.64 -135.46,-49.06 561.81,-4687.42"
         style="fill:#b2a29e;fill-opacity:1;fill-rule:evenodd;stroke:none"
         transform="matrix(0.13333333,0,0,-0.13333333,0,861.65333)" />
      <path
         id="path36"
         d="m 3301.45,1979.59 -260.92,2319.12 -128.23,-7.38 275.61,-2299.59 12.35,-39.59 101.19,27.44"
         style="fill:#948681;fill-opacity:1;fill-rule:evenodd;stroke:none"
         transform="matrix(0.13333333,0,0,-0.13333333,0,861.65333)" />
      <path
         id="path37"
         d="m 2958.04,1370.88 -508.42,4559.11 309.81,52.83 520.09,-4755.35 -321.48,143.41"
         style="fill:#d7c9c4;fill-opacity:1;fill-rule:evenodd;stroke:none"
         transform="matrix(0.13333333,0,0,-0.13333333,0,861.65333)" />
      <path
         id="path38"
         d="m 2884.38,2031.3 -250.25,2244.03 310.1,17.84 256.03,-2341.02 -315.88,79.15"
         style="fill:#b2a29e;fill-opacity:1;fill-rule:evenodd;stroke:none"
         transform="matrix(0.13333333,0,0,-0.13333333,0,861.65333)" />
      <path
         id="path39"
         d="m 1109.67,878.199 113.23,52.84 592.53,4683.641 -147.2,-49.07 -558.56,-4687.411"
         style="fill:#b2a29e;fill-opacity:1;fill-rule:evenodd;stroke:none"
         transform="matrix(0.13333333,0,0,-0.13333333,0,861.65333)" />
      <path
         id="path40"
         d="m 1311.36,1630.31 293.4,2319.13 -129.99,-7.38 -274.03,-2299.59 2.88,-39.59 107.74,27.43"
         style="fill:#948681;fill-opacity:1;fill-rule:evenodd;stroke:none"
         transform="matrix(0.13333333,0,0,-0.13333333,0,861.65333)" />
      <path
         id="path41"
         d="m 822.473,1021.6 581.277,4559.11 322.44,52.84 L 1109.67,878.199 822.473,1021.6"
         style="fill:#d7c9c4;fill-opacity:1;fill-rule:evenodd;stroke:none"
         transform="matrix(0.13333333,0,0,-0.13333333,0,861.65333)" />
      <path
         id="path42"
         d="m 1161.06,3677.3 31.72,248.76 314.36,17.83 -303.52,-2341.01 -42.56,2074.42"
         style="fill:#b2a29e;fill-opacity:1;fill-rule:evenodd;stroke:none"
         transform="matrix(0.13333333,0,0,-0.13333333,0,861.65333)" />
      <path
         id="path43"
         d="m 886.996,5984.54 479.674,-3916.98 2358.45,369.33 75.47,75.5 -2838.11,3547.63 -75.484,-75.48"
         style="fill:#603516;fill-opacity:1;fill-rule:evenodd;stroke:none"
         transform="matrix(0.13333333,0,0,-0.13333333,0,861.65333)" />
      <path
         id="path44"
         d="M 962.48,6060.02 1442.15,2143.05 3800.59,2512.39 3136.35,6241.18 962.48,6060.02"
         style="fill:#874f20;fill-opacity:1;fill-rule:evenodd;stroke:none"
         transform="matrix(0.13333333,0,0,-0.13333333,0,861.65333)" />
      <path
         id="path45"
         d="m 1133.43,5906.63 441,-3601.1 2037.37,319.07 -612.36,3437.52 -1866.01,-155.49"
         style="fill:#3a2316;fill-opacity:1;fill-rule:evenodd;stroke:none"
         transform="matrix(0.13333333,0,0,-0.13333333,0,861.65333)" />
      <path
         id="path46"
         d="m 1146.39,5932.8 441,-3601.09 2037.36,319.06 L 3012.4,6088.3 1146.39,5932.8"
         style="fill:#ede1dc;fill-opacity:1;fill-rule:evenodd;stroke:none"
         transform="matrix(0.13333333,0,0,-0.13333333,0,861.65333)" />
      <path
         id="path47"
         d="m 2060.04,2405.73 1564.71,245.04 -511.84,2873.28 C 2420.14,5379.63 1886.96,4493.16 1886.96,3420.95 c 0,-367.73 62.73,-713.59 173.08,-1015.22"
         style="fill:#f7efed;fill-opacity:1;fill-rule:evenodd;stroke:none"
         transform="matrix(0.13333333,0,0,-0.13333333,0,861.65333)" />
      <path
         id="path48"
         d="m 1366.67,2067.56 75.48,75.49 2358.44,369.34 -75.47,-75.5 -2358.45,-369.33"
         style="fill:#3a2316;fill-opacity:1;fill-rule:evenodd;stroke:none"
         transform="matrix(0.13333333,0,0,-0.13333333,0,861.65333)" />
      <path
         id="path49"
         d="m 1146.39,5932.8 c 237.14,19.76 175.83,407.24 -132.25,383.64 l 1899.5,145.5 c 198.41,15.2 279.02,-358.62 98.76,-373.64 L 1146.39,5932.8"
         style="fill:#e7d1cc;fill-opacity:1;fill-rule:evenodd;stroke:none"
         transform="matrix(0.13333333,0,0,-0.13333333,0,861.65333)" />
      <path
         id="path50"
         d="m 1185.03,5617.31 1842.38,386.71 -15.01,84.28 -1866.01,-155.5 38.64,-315.49"
         style="fill:#d5bfb7;fill-opacity:1;fill-rule:evenodd;stroke:none"
         transform="matrix(0.13333333,0,0,-0.13333333,0,861.65333)" />
      <path
         id="path51"
         d="m 2360.76,5609.22 -552.09,-76.29 45.3,-316.32 571.23,85.91 z M 2478,4899.76 2203.46,5092.33 2016.43,4815.67 2312.61,4562.82 2478,4899.76 Z m 412.65,249.95 -252.77,-31.62 45.26,-316.12 271.98,40.9 -64.47,306.84 z m -1154.87,-200.03 -252.77,-31.63 45.26,-316.1 271.97,40.89 -64.46,306.84 z m 682.67,-611.23 c -8.34,0 -16.68,-0.32 -24.98,-0.96 -65.23,-5.03 -124.15,-28.95 -166.67,-63.52 -41.49,-33.73 -67.15,-77.5 -67.15,-123.32 0,-3.28 0.12,-6.4 0.34,-9.35 3.09,-39.93 26.12,-74.68 62.04,-99.55 37.03,-25.65 87.61,-40.88 144.44,-40.88 8.35,0 16.69,0.31 25,0.95 65.23,5.03 124.15,28.94 166.67,63.52 41.49,33.73 67.15,77.51 67.15,123.32 0,3.29 -0.12,6.41 -0.35,9.36 -3.06,39.93 -26.11,74.66 -62.04,99.55 -37.01,25.65 -87.61,40.88 -144.45,40.88 z m -174.82,-1255.91 -413.99,-57.23 33.53,-234.35 428.19,64.39 -47.73,227.19 z m 526.31,79.69 -414.01,-57.21 33.55,-234.35 428.19,64.38 -47.73,227.18 z m 525.58,74.67 -414.01,-57.21 33.56,-234.36 428.18,64.39 -47.73,227.18 z m -804.48,481.32 0.42,-2.1 h -15.61 l -289.77,-40.05 45.3,-316.31 571.23,85.91 -64.45,306.71 -247.12,-34.16 z m -699.3,1839.3 590.02,81.55 75.37,-358.78 -269.92,-40.6 24.77,-120.73 286.34,-200.85 138.4,19.81 -29.12,203.32 13.52,1.69 290.58,36.35 c 25.15,-119.54 50.26,-239.09 75.34,-358.64 l -326.5,-49.1 -20.04,139.96 -136.69,-19.57 -172.88,-352.22 34.17,-178.6 c 8.68,1.32 17.48,2.34 26.37,3.02 9.24,0.71 18.25,1.07 26.98,1.07 62.31,0 118.22,-17.02 159.62,-45.69 42.48,-29.44 69.79,-71.11 73.52,-119.51 0.29,-3.87 0.44,-7.66 0.44,-11.34 0,-54.22 -29.45,-105.29 -77.06,-144 -36.46,-29.63 -83.7,-52.1 -136.43,-63.08 l 47.27,-237.14 273.34,37.78 75.38,-358.79 -299.77,-45.07 11.41,-67.07 c 171.96,27.08 343.93,54.16 515.9,81.2 l 34.49,-156.14 219.94,30.4 58.67,-279.26 -482.72,-72.6 -41.17,287.55 13.29,1.85 205.51,28.4 -28.62,129.59 -490.82,-77.29 20.96,-123.24 219.32,30.32 58.66,-279.25 -482.71,-72.6 -41.18,287.56 13.29,1.83 206.19,28.48 -20.89,122.75 -542.82,-85.48 15.89,-119.93 267.28,36.94 58.66,-279.25 -482.72,-72.6 -41.17,287.55 13.28,1.83 158.28,21.88 -19.33,145.85 568.17,89.51 -11.43,67.25 -299.61,-45.06 -52.9,369.51 13.28,1.83 290.15,40.09 -47.14,236.37 c -6.17,-0.81 -12.41,-1.46 -18.68,-1.95 -9.25,-0.71 -18.26,-1.06 -27,-1.06 -62.3,0 -118.22,17.02 -159.59,45.69 -42.5,29.43 -69.79,71.11 -73.52,119.5 -0.3,3.87 -0.46,7.66 -0.46,11.34 0,54.23 29.44,105.29 77.07,144.01 34.72,28.21 79.2,49.92 128.91,61.42 l -34.11,178.36 -310.19,264.79 -194.21,-27.17 31.81,-151.45 -326.51,-49.09 -52.94,369.69 13.52,1.7 290.59,36.35 38.02,-181.03 196.07,27.43 194.86,288.25 -24.99,121.81 -329.44,-49.54 -52.9,369.5 13.28,1.84 v 0"
         style="fill:#766864;fill-opacity:1;fill-rule:evenodd;stroke:none"
         transform="matrix(0.13333333,0,0,-0.13333333,0,861.65333)" />
      <path
         id="path52"
         d="m 2890.65,5149.71 -252.77,-31.62 45.26,-316.12 271.98,40.9 z m -472.2,-811.26 c -8.34,0 -16.68,-0.32 -24.98,-0.96 -65.23,-5.03 -124.15,-28.95 -166.67,-63.52 -41.49,-33.73 -67.15,-77.5 -67.15,-123.32 0,-3.28 0.12,-6.4 0.34,-9.35 3.09,-39.93 26.12,-74.68 62.04,-99.55 37.03,-25.65 87.61,-40.88 144.44,-40.88 8.35,0 16.69,0.31 25,0.95 65.23,5.03 124.15,28.94 166.67,63.52 41.49,33.73 67.15,77.51 67.15,123.32 0,3.29 -0.12,6.41 -0.35,9.36 -3.06,39.93 -26.11,74.66 -62.04,99.55 -37.01,25.65 -87.61,40.88 -144.45,40.88 z m 351.49,-1176.22 -414.01,-57.21 33.55,-234.35 428.19,64.38 -47.73,227.18 z m 525.58,74.67 -414.01,-57.21 33.56,-234.36 428.18,64.39 -47.73,227.18 z m -804.48,481.32 0.42,-2.1 h -15.61 l -289.77,-40.05 45.3,-316.31 571.23,85.91 -64.45,306.71 -247.12,-34.16 z m -124.14,1292.07 131.42,-92.18 138.4,19.81 -29.12,203.32 13.52,1.69 290.58,36.35 c 25.15,-119.54 50.26,-239.09 75.34,-358.64 l -326.5,-49.1 -20.04,139.96 -136.69,-19.57 -172.88,-352.22 34.17,-178.6 c 8.68,1.32 17.48,2.34 26.37,3.02 9.24,0.71 18.25,1.07 26.98,1.07 62.31,0 118.22,-17.02 159.62,-45.69 42.48,-29.44 69.79,-71.11 73.52,-119.51 0.29,-3.87 0.44,-7.66 0.44,-11.34 0,-54.22 -29.45,-105.29 -77.06,-144 -36.46,-29.63 -83.7,-52.1 -136.43,-63.08 l 47.27,-237.14 273.34,37.78 75.38,-358.79 -299.77,-45.07 11.41,-67.07 c 171.96,27.08 343.93,54.16 515.9,81.2 l 34.49,-156.14 219.94,30.4 58.67,-279.26 -482.72,-72.6 -41.17,287.55 13.29,1.85 205.51,28.4 -28.62,129.59 -490.82,-77.29 20.96,-123.24 219.32,30.32 58.66,-279.25 -482.71,-72.6 -41.18,287.56 13.29,1.83 206.19,28.48 -20.89,122.75 -542.82,-85.48 15.89,-119.93 267.28,36.94 58.66,-279.25 -369.67,-55.61 c -1.87,8.72 -3.68,17.47 -5.46,26.22 l 343.2,51.62 -47.73,227.19 -333.32,-46.07 c -1.09,8.81 -2.09,17.66 -3.09,26.51 l 63.74,8.8 -19.33,145.85 568.17,89.51 -11.43,67.25 -299.61,-45.06 -52.9,369.51 13.28,1.83 290.15,40.09 -47.14,236.37 c -6.17,-0.81 -12.41,-1.46 -18.68,-1.95 -9.25,-0.71 -18.26,-1.06 -27,-1.06 -62.3,0 -118.22,17.02 -159.59,45.69 -42.5,29.43 -69.79,71.11 -73.52,119.5 -0.3,3.87 -0.46,7.66 -0.46,11.34 0,54.23 29.44,105.29 77.07,144.01 34.72,28.21 79.2,49.92 128.91,61.42 l -34.11,178.36 -149.27,127.43 c 4,8.28 8.02,16.55 12.11,24.73 l 145,-123.78 165.39,336.94 -127.12,89.16 c 5.28,7.2 10.65,14.29 16.02,21.37 v 0"
         style="fill:#9d928d;fill-opacity:1;fill-rule:evenodd;stroke:none"
         transform="matrix(0.13333333,0,0,-0.13333333,0,861.65333)" />
    </g>
  </g>
</svg>
