<?xml version="1.0" encoding="UTF-8" standalone="no"?>
<!-- Created with Inkscape (http://www.inkscape.org/) -->

<svg
   version="1.1"
   id="svg1"
   width="629.01331"
   height="820.23999"
   viewBox="0 0 629.01331 820.23999"
   sodipodi:docname="policeman-screams-into-a-megaphone.svg"
   inkscape:version="1.3.2 (091e20ef0f, 2023-11-25, custom)"
   xmlns:inkscape="http://www.inkscape.org/namespaces/inkscape"
   xmlns:sodipodi="http://sodipodi.sourceforge.net/DTD/sodipodi-0.dtd"
   xmlns="http://www.w3.org/2000/svg"
   xmlns:svg="http://www.w3.org/2000/svg">
  <defs
     id="defs1" />
  <sodipodi:namedview
     id="namedview1"
     pagecolor="#505050"
     bordercolor="#ffffff"
     borderopacity="1"
     inkscape:showpageshadow="0"
     inkscape:pageopacity="0"
     inkscape:pagecheckerboard="1"
     inkscape:deskcolor="#d1d1d1"
     inkscape:zoom="0.94362627"
     inkscape:cx="314.21338"
     inkscape:cy="410.12"
     inkscape:window-width="1920"
     inkscape:window-height="1002"
     inkscape:window-x="0"
     inkscape:window-y="0"
     inkscape:window-maximized="1"
     inkscape:current-layer="g1">
    <inkscape:page
       x="0"
       y="0"
       inkscape:label="1"
       id="page1"
       width="629.01331"
       height="820.23999"
       margin="0"
       bleed="0" />
  </sodipodi:namedview>
  <g
     id="g1"
     inkscape:groupmode="layer"
     inkscape:label="1">
    <g
       id="group-R5">
      <path
         id="path2"
         d="m 1442.19,100.262 c 0,7.519 -1.07,14.008 -3.3,19.308 -2.16,5.379 -5.2,9.532 -9.1,12.461 -3.9,2.84 -8.18,4.309 -12.92,4.309 -7.49,0 -13.83,-3.168 -18.99,-9.301 -5.16,-6.199 -7.73,-15.25 -7.73,-27.2577 0,-11.3125 2.57,-20.1016 7.65,-26.3125 5.16,-6.2969 11.52,-9.4688 19.07,-9.4688 4.51,0 8.73,1.3711 12.59,4.1484 3.8,2.7422 6.9,6.8399 9.24,12.2735 2.35,5.5273 3.49,12.0976 3.49,19.8401 z m -53.31,41.379 v -3.422 c 5.11,6.543 10.4,11.453 15.91,14.48 5.53,3.11 11.81,4.672 18.79,4.672 8.35,0 16.06,-2.262 23.11,-6.781 7.03,-4.512 12.58,-11.059 16.69,-19.758 4.09,-8.684 6.09,-18.922 6.09,-30.781 0,-8.7112 -1.14,-16.8401 -3.5,-24.051 -2.35,-7.3203 -5.6,-13.5 -9.71,-18.4414 -4.12,-4.9492 -9.02,-8.7891 -14.59,-11.4297 -5.64,-2.707 -11.69,-4.0195 -18.09,-4.0195 -7.81,0 -14.34,1.6211 -19.62,4.8789 -5.32,3.25 -10.32,8.0117 -15.08,14.332 V 18.7188 C 1388.88,6.21875 1384.52,0 1375.82,0 c -5.11,0 -8.53,1.58984 -10.14,4.78906 -1.68,3.25 -2.5,7.94924 -2.5,14.10154 V 141.449 c 0,5.403 1.09,9.461 3.38,12.11 2.29,2.652 5.37,4.023 9.26,4.023 3.86,0 7,-1.371 9.41,-4.141 2.42,-2.761 3.65,-6.699 3.65,-11.8"
         style="fill:#100f0d;fill-opacity:1;fill-rule:nonzero;stroke:none"
         transform="matrix(0.13333333,0,0,-0.13333333,0,820.24)" />
      <path
         id="path3"
         d="M 1562.02,58.1602 V 61.75 c -3.27,-4.2891 -6.69,-7.8711 -10.29,-10.7812 -3.59,-2.9493 -7.5,-5.0977 -11.73,-6.5 -4.3,-1.418 -9.14,-2.1407 -14.58,-2.1407 -6.54,0 -12.44,1.4414 -17.67,4.2539 -5.23,2.8282 -9.27,6.7696 -12.09,11.75 -3.44,6.0274 -5.09,14.7071 -5.09,25.9688 v 56.2582 c 0,5.652 1.23,9.933 3.69,12.722 2.46,2.797 5.7,4.219 9.74,4.219 4.13,0 7.44,-1.422 9.97,-4.289 2.53,-2.852 3.78,-7.082 3.78,-12.652 V 95.0898 c 0,-6.539 0.52,-12.0781 1.56,-16.5195 1.11,-4.4883 3.01,-7.9922 5.8,-10.5508 2.7,-2.4882 6.45,-3.7578 11.16,-3.7578 4.64,0 8.94,1.4297 12.96,4.2578 4.09,2.8203 7.05,6.5196 8.9,11.1016 1.52,4.0195 2.28,12.8203 2.28,26.3989 v 34.539 c 0,5.57 1.26,9.8 3.81,12.652 2.5,2.867 5.75,4.289 9.83,4.289 4.06,0 7.3,-1.422 9.76,-4.219 2.43,-2.789 3.64,-7.07 3.64,-12.722 V 58.332 c 0,-5.4023 -1.13,-9.4726 -3.49,-12.1523 -2.33,-2.7305 -5.37,-4.0508 -9.11,-4.0508 -3.7,0 -6.76,1.4297 -9.21,4.1719 -2.41,2.8476 -3.62,6.7383 -3.62,11.8594"
         style="fill:#100f0d;fill-opacity:1;fill-rule:nonzero;stroke:none"
         transform="matrix(0.13333333,0,0,-0.13333333,0,820.24)" />
      <path
         id="path4"
         d="m 1640.92,99.1406 c 0,-11.289 2.45,-19.9297 7.38,-26.0312 4.97,-6.0274 11.47,-9.1094 19.52,-9.1094 6.85,0 12.71,3.1289 17.69,9.3203 4.98,6.2188 7.45,15.0586 7.45,26.6485 0,7.5702 -1.04,13.9722 -3.1,19.3592 -2.08,5.442 -5.02,9.621 -8.77,12.543 -3.84,2.938 -8.2,4.469 -13.27,4.469 -5.23,0 -9.77,-1.531 -13.85,-4.469 -4.08,-2.922 -7.24,-7.199 -9.59,-12.801 -2.32,-5.539 -3.46,-12.16 -3.46,-19.9294 z m -1.29,84.3794 v -43.391 c 5.05,5.601 10.3,9.801 15.6,12.82 5.32,2.93 11.92,4.422 19.74,4.422 9.05,0 16.95,-2.262 23.77,-6.691 6.79,-4.551 12.1,-10.981 15.84,-19.481 3.79,-8.48 5.64,-18.558 5.64,-30.199 0,-8.6094 -1.03,-16.4805 -3.11,-23.7109 -2.1,-7.1407 -5.11,-13.3282 -9.11,-18.6602 -4.03,-5.2305 -8.86,-9.2695 -14.51,-12.25 -5.71,-2.8203 -11.97,-4.2695 -18.81,-4.2695 -4.14,0 -8.12,0.5195 -11.82,1.539 -3.68,1.0625 -6.85,2.4102 -9.37,4.1602 -2.64,1.6016 -4.84,3.4219 -6.68,5.1836 -1.81,1.8281 -4.2,4.5078 -7.18,8.1094 V 58.332 c 0,-5.3632 -1.26,-9.4023 -3.72,-12.1523 -2.43,-2.7305 -5.6,-4.0703 -9.35,-4.0703 -3.87,0 -6.93,1.3398 -9.25,4.0703 -2.27,2.8086 -3.41,6.8125 -3.41,12.1523 v 123.957 c 0,5.723 1.1,10.07 3.36,13.012 2.21,2.961 5.29,4.418 9.3,4.418 4.17,0 7.4,-1.387 9.63,-4.219 2.29,-2.789 3.44,-6.762 3.44,-11.98"
         style="fill:#100f0d;fill-opacity:1;fill-rule:nonzero;stroke:none"
         transform="matrix(0.13333333,0,0,-0.13333333,0,820.24)" />
      <path
         id="path5"
         d="M 1739.42,59.3789 V 182.469 c 0,5.711 1.21,9.98 3.6,12.91 2.47,2.883 5.72,4.34 9.84,4.34 4.12,0 7.42,-1.41 9.96,-4.297 2.49,-2.863 3.8,-7.223 3.8,-12.953 V 59.3789 c 0,-5.7578 -1.31,-10.0898 -3.86,-13 -2.54,-2.8203 -5.86,-4.2695 -9.9,-4.2695 -3.99,0 -7.19,1.4922 -9.7,4.4726 -2.49,2.9883 -3.74,7.2383 -3.74,12.7969"
         style="fill:#100f0d;fill-opacity:1;fill-rule:nonzero;stroke:none"
         transform="matrix(0.13333333,0,0,-0.13333333,0,820.24)" />
      <path
         id="path6"
         d="M 1821.89,141.379 V 59.3789 c 0,-5.7187 -1.33,-10.0195 -3.85,-12.9297 -2.62,-2.8476 -5.93,-4.3398 -9.88,-4.3398 -3.99,0 -7.24,1.4922 -9.72,4.4414 -2.46,3.0195 -3.75,7.2695 -3.75,12.8281 v 81.1801 c 0,5.57 1.29,9.8 3.75,12.652 2.48,2.867 5.73,4.289 9.72,4.289 3.95,0 7.26,-1.422 9.88,-4.289 2.52,-2.852 3.85,-6.781 3.85,-11.832 z m -13.45,29.34 c -3.79,0 -7,1.211 -9.75,3.703 -2.62,2.406 -4,5.867 -4,10.316 0,4 1.38,7.282 4.15,9.934 2.75,2.598 5.95,3.816 9.6,3.816 3.51,0 6.65,-1.136 9.37,-3.476 2.71,-2.364 4.08,-5.821 4.08,-10.274 0,-4.406 -1.34,-7.816 -4,-10.238 -2.66,-2.461 -5.78,-3.781 -9.45,-3.781"
         style="fill:#100f0d;fill-opacity:1;fill-rule:nonzero;stroke:none"
         transform="matrix(0.13333333,0,0,-0.13333333,0,820.24)" />
      <path
         id="path7"
         d="m 1947.41,77.25 c 0,-3.5117 -0.99,-7.3086 -3.01,-11.3281 -2.06,-4.0235 -5.14,-7.8321 -9.3,-11.4805 -4.13,-3.6211 -9.36,-6.5508 -15.68,-8.75 -6.3,-2.2695 -13.42,-3.3633 -21.3,-3.3633 -16.83,0 -29.93,5.1328 -39.37,15.3321 -9.41,10.2304 -14.14,23.8984 -14.14,41.1093 0,11.6405 2.15,21.9605 6.44,30.8785 4.32,8.883 10.62,15.864 18.75,20.711 8.15,4.922 17.95,7.36 29.27,7.36 7.06,0 13.53,-1.098 19.42,-3.219 5.87,-2.172 10.85,-4.949 14.93,-8.309 4.08,-3.41 7.2,-7.043 9.37,-10.859 2.18,-3.844 3.23,-7.441 3.23,-10.773 0,-3.348 -1.24,-6.227 -3.63,-8.598 -2.45,-2.391 -5.35,-3.551 -8.81,-3.551 -2.29,0 -4.14,0.649 -5.66,1.871 -1.46,1.168 -3.15,3.071 -5.03,5.84 -3.3,5.238 -6.8,9.219 -10.4,11.91 -3.63,2.61 -8.23,3.949 -13.76,3.949 -8.09,0 -14.56,-3.332 -19.47,-9.871 -4.92,-6.578 -7.35,-15.539 -7.35,-26.8981 0,-5.3125 0.63,-10.2812 1.9,-14.7109 1.25,-4.4883 3.07,-8.2891 5.45,-11.4609 2.41,-3.1602 5.27,-5.5274 8.67,-7.1602 3.38,-1.6601 7.11,-2.4492 11.14,-2.4492 5.48,0 10.12,1.2891 14.02,3.9219 3.89,2.6679 7.33,6.6875 10.31,12.0273 1.66,3.2695 3.45,5.75 5.38,7.5703 1.95,1.8125 4.32,2.6719 7.09,2.6719 3.32,0 6.07,-1.2813 8.29,-3.9219 2.15,-2.6875 3.25,-5.4687 3.25,-8.4492"
         style="fill:#100f0d;fill-opacity:1;fill-rule:nonzero;stroke:none"
         transform="matrix(0.13333333,0,0,-0.13333333,0,820.24)" />
      <path
         id="path8"
         d="m 1992.22,99.9688 c 0,-7.6993 1.14,-14.1993 3.42,-19.6368 2.31,-5.4218 5.4,-9.4414 9.38,-12.1836 4.02,-2.7773 8.37,-4.1484 13.05,-4.1484 4.79,0 9.15,1.332 13.1,3.8906 3.97,2.6211 7.09,6.6289 9.48,11.9883 2.36,5.3516 3.53,12.082 3.53,20.0899 0,7.6132 -1.17,14.0622 -3.53,19.5312 -2.39,5.449 -5.56,9.602 -9.56,12.531 -4.03,2.84 -8.41,4.309 -13.19,4.309 -4.97,0 -9.41,-1.531 -13.34,-4.469 -3.9,-2.922 -6.97,-7.191 -9.12,-12.699 -2.14,-5.531 -3.22,-11.871 -3.22,-19.2032 z m 53.45,-41.6368 v 2.7696 c -3.65,-4.3594 -7.25,-7.9102 -10.85,-10.6016 -3.49,-2.7812 -7.37,-4.8516 -11.52,-6.2695 -4.13,-1.3907 -8.67,-2.1211 -13.57,-2.1211 -6.5,0 -12.57,1.4492 -18.09,4.2695 -5.53,2.9805 -10.33,7.043 -14.38,12.3711 -4.04,5.3398 -7.12,11.6094 -9.23,18.8516 -2.12,7.1679 -3.14,14.9804 -3.14,23.3984 0,17.699 4.16,31.602 12.46,41.512 8.33,9.91 19.23,14.859 32.76,14.859 7.83,0 14.46,-1.422 19.83,-4.293 5.36,-2.758 10.63,-7.078 15.73,-12.949 v 41.922 c 0,5.84 1.1,10.23 3.34,13.199 2.22,3 5.36,4.469 9.5,4.469 4.11,0 7.28,-1.367 9.53,-4.078 2.2,-2.719 3.36,-6.77 3.36,-12.121 V 58.332 c 0,-5.4023 -1.21,-9.4726 -3.62,-12.1523 -2.4,-2.7305 -5.46,-4.0703 -9.27,-4.0703 -3.68,0 -6.8,1.3906 -9.23,4.1914 -2.4,2.8008 -3.61,6.7695 -3.61,12.0312"
         style="fill:#100f0d;fill-opacity:1;fill-rule:nonzero;stroke:none"
         transform="matrix(0.13333333,0,0,-0.13333333,0,820.24)" />
      <path
         id="path9"
         d="m 2173.2,99.7383 c 0,11.5427 -2.48,20.5817 -7.33,27.0317 -4.89,6.402 -11.47,9.648 -19.68,9.648 -5.35,0 -10,-1.438 -14.06,-4.309 -4.04,-2.918 -7.16,-7.16 -9.36,-12.781 -2.17,-5.547 -3.29,-12.066 -3.29,-19.5897 0,-7.4297 1.12,-13.8789 3.23,-19.4063 2.15,-5.5507 5.26,-9.7929 9.3,-12.7422 4,-2.9414 8.77,-4.3906 14.18,-4.3906 8.21,0 14.79,3.211 19.68,9.6914 4.85,6.4492 7.33,15.4492 7.33,26.8477 z m 27.29,0 c 0,-8.3985 -1.28,-16.207 -3.79,-23.3867 -2.53,-7.0821 -6.17,-13.2422 -10.93,-18.3828 -4.82,-5.1368 -10.53,-8.9805 -17.16,-11.7891 -6.63,-2.7305 -14.16,-4.0703 -22.42,-4.0703 -8.22,0 -15.64,1.3398 -22.2,4.1523 -6.58,2.7578 -12.3,6.7305 -17.12,11.8985 -4.79,5.1796 -8.43,11.2304 -10.95,18.2578 -2.49,7.082 -3.72,14.8203 -3.72,23.3711 0,8.6019 1.27,16.4609 3.77,23.5699 2.52,7.18 6.12,13.231 10.85,18.332 4.72,5.051 10.42,8.938 17.17,11.68 6.73,2.738 14.09,4.129 22.2,4.129 8.24,0 15.72,-1.391 22.42,-4.168 6.69,-2.773 12.43,-6.762 17.21,-11.883 4.81,-5.109 8.44,-11.258 10.88,-18.328 2.55,-7.051 3.79,-14.851 3.79,-23.3827"
         style="fill:#100f0d;fill-opacity:1;fill-rule:nonzero;stroke:none"
         transform="matrix(0.13333333,0,0,-0.13333333,0,820.24)" />
      <path
         id="path10"
         d="m 2315.34,123.191 c -2.04,-4.793 -3.01,-13.261 -3.01,-25.4605 v -37.711 c 0,-5.9375 -1.27,-10.4492 -3.89,-13.4375 -2.58,-2.9804 -6.04,-4.4726 -10.28,-4.4726 -4.08,0 -7.41,1.4922 -9.95,4.4726 -2.57,2.9883 -3.82,7.5 -3.82,13.4375 v 45.2695 c 0,7.121 -0.26,12.652 -0.73,16.652 -0.48,3.911 -1.72,7.168 -3.79,9.707 -2.01,2.551 -5.29,3.813 -9.72,3.813 -8.9,0 -14.74,-3.199 -17.59,-9.609 -2.85,-6.352 -4.19,-15.512 -4.19,-27.4536 V 60.0195 c 0,-5.9297 -1.31,-10.3906 -3.84,-13.3398 -2.58,-3.0781 -5.95,-4.5703 -10.09,-4.5703 -4.15,0 -7.56,1.4922 -10.16,4.5703 -2.64,2.9492 -3.89,7.4101 -3.89,13.332 v 81.2073 c 0,5.351 1.12,9.41 3.46,12.179 2.39,2.75 5.49,4.184 9.37,4.184 3.71,0 6.83,-1.293 9.29,-3.902 2.49,-2.59 3.74,-6.16 3.74,-10.75 v -2.7 c 4.7,5.899 9.76,10.25 15.12,12.981 5.37,2.769 11.41,4.16 17.94,4.16 6.82,0 12.67,-1.422 17.59,-4.293 4.94,-2.808 8.96,-7.109 12.13,-12.848 4.6,5.77 9.51,10.129 14.77,12.93 5.26,2.82 11.05,4.211 17.41,4.211 7.49,0 13.88,-1.492 19.22,-4.59 5.4,-3.051 9.4,-7.402 12.07,-13.082 2.34,-5.14 3.48,-13.211 3.48,-24.25 V 60.0195 c 0,-5.9375 -1.29,-10.4492 -3.84,-13.4375 -2.64,-2.9804 -6.03,-4.4726 -10.28,-4.4726 -4.14,0 -7.49,1.4922 -10.1,4.5703 -2.66,2.9492 -3.97,7.4101 -3.97,13.3398 v 47.7615 c 0,6.098 -0.25,10.981 -0.73,14.66 -0.51,3.707 -1.85,6.75 -4.07,9.258 -2.17,2.5 -5.51,3.762 -9.92,3.762 -3.59,0 -7.01,-1.133 -10.18,-3.289 -3.28,-2.25 -5.72,-5.231 -7.55,-8.981 v 0"
         style="fill:#100f0d;fill-opacity:1;fill-rule:nonzero;stroke:none"
         transform="matrix(0.13333333,0,0,-0.13333333,0,820.24)" />
      <path
         id="path11"
         d="m 2469.36,99.2109 c -4.01,-1.5703 -9.8,-3.1328 -17.41,-4.8593 -7.61,-1.7032 -12.87,-2.9414 -15.8,-3.75 -2.93,-0.8203 -5.72,-2.3633 -8.34,-4.6524 -2.68,-2.3984 -4.03,-5.6172 -4.03,-9.7773 0,-4.3438 1.59,-7.961 4.68,-10.9922 3.14,-3.0508 7.23,-4.5313 12.28,-4.5313 5.37,0 10.37,1.25 14.89,3.711 4.56,2.4414 7.92,5.6601 10.01,9.5117 2.47,4.3086 3.72,11.3594 3.72,21.2891 z m 1.77,-41.1211 c -6.59,-5.3515 -12.95,-9.3203 -19.08,-11.9609 -6.13,-2.707 -13.06,-4.0195 -20.65,-4.0195 -7.02,0 -13.09,1.4492 -18.41,4.2695 -5.32,2.9102 -9.35,6.8125 -12.22,11.7813 -2.82,4.9101 -4.29,10.1992 -4.29,15.9882 0,7.7618 2.42,14.3516 7.12,19.8399 4.68,5.4531 11.15,9.1327 19.38,11.0237 1.73,0.418 6.04,1.32 12.84,2.769 6.91,1.5 12.71,2.789 17.67,4.008 4.83,1.191 10.16,2.672 15.87,4.391 -0.35,7.519 -1.79,13.011 -4.33,16.582 -2.59,3.468 -7.92,5.179 -15.91,5.179 -6.94,0 -12.11,-0.98 -15.64,-2.992 -3.47,-1.98 -6.48,-5.027 -8.93,-9.097 -2.52,-4 -4.24,-6.661 -5.28,-7.922 -1.06,-1.321 -3.27,-1.899 -6.6,-1.899 -3.1,0 -5.73,1.008 -7.92,3.028 -2.26,2.062 -3.36,4.64 -3.36,7.882 0,4.969 1.69,9.86 5.06,14.508 3.39,4.742 8.69,8.61 15.84,11.711 7.17,3.051 16.13,4.559 26.83,4.559 11.92,0 21.34,-1.508 28.22,-4.438 6.83,-2.922 11.61,-7.551 14.46,-13.98 2.84,-6.332 4.24,-14.832 4.24,-25.36 0,-6.64 0,-12.332 -0.04,-16.941 -0.06,-4.6914 -0.09,-9.8281 -0.15,-15.5195 0,-5.3086 0.84,-10.9024 2.55,-16.6602 1.65,-5.789 2.5,-9.5312 2.5,-11.1601 0,-2.9219 -1.33,-5.5899 -3.94,-7.9688 -2.57,-2.3828 -5.57,-3.582 -8.87,-3.582 -2.84,0 -5.53,1.3398 -8.3,4.0703 -2.71,2.75 -5.6,6.75 -8.66,11.9101"
         style="fill:#100f0d;fill-opacity:1;fill-rule:nonzero;stroke:none"
         transform="matrix(0.13333333,0,0,-0.13333333,0,820.24)" />
      <path
         id="path12"
         d="M 2550.86,141.379 V 59.3789 c 0,-5.7187 -1.3,-10.0195 -3.85,-12.9297 -2.6,-2.8476 -5.86,-4.3398 -9.86,-4.3398 -3.97,0 -7.25,1.4922 -9.71,4.4414 -2.52,3.0195 -3.77,7.2695 -3.77,12.8281 v 81.1801 c 0,5.57 1.25,9.8 3.77,12.652 2.46,2.867 5.74,4.289 9.71,4.289 4,0 7.26,-1.422 9.86,-4.289 2.55,-2.852 3.85,-6.781 3.85,-11.832 z m -13.44,29.34 c -3.75,0 -6.97,1.211 -9.67,3.703 -2.69,2.406 -4.08,5.867 -4.08,10.316 0,4 1.41,7.282 4.17,9.934 2.73,2.598 5.97,3.816 9.58,3.816 3.53,0 6.69,-1.136 9.42,-3.476 2.68,-2.364 4.02,-5.821 4.02,-10.274 0,-4.406 -1.3,-7.816 -3.98,-10.238 -2.65,-2.461 -5.81,-3.781 -9.46,-3.781"
         style="fill:#100f0d;fill-opacity:1;fill-rule:nonzero;stroke:none"
         transform="matrix(0.13333333,0,0,-0.13333333,0,820.24)" />
      <path
         id="path13"
         d="m 2603.71,141.789 v -3.391 c 4.76,6.563 9.98,11.391 15.62,14.473 5.69,3.078 12.22,4.629 19.63,4.629 7.12,0 13.57,-1.621 19.25,-4.91 5.59,-3.25 9.84,-7.828 12.59,-13.758 1.82,-3.5 2.94,-7.281 3.52,-11.281 0.48,-3.981 0.8,-9.11 0.8,-15.371 V 59.3789 c 0,-5.7187 -1.29,-10.0195 -3.76,-12.9297 -2.5,-2.8476 -5.74,-4.3398 -9.71,-4.3398 -4.04,0 -7.35,1.4922 -9.77,4.4726 -2.56,2.9883 -3.86,7.2383 -3.86,12.7969 v 47.2691 c 0,9.403 -1.21,16.543 -3.69,21.481 -2.54,4.949 -7.52,7.473 -14.96,7.473 -4.84,0 -9.25,-1.532 -13.22,-4.563 -3.98,-2.98 -6.91,-7.141 -8.76,-12.418 -1.33,-4.23 -2.03,-12.09 -2.03,-23.7421 v -35.5 c 0,-5.7578 -1.25,-10.0898 -3.82,-13 -2.57,-2.8203 -5.87,-4.2695 -9.9,-4.2695 -3.9,0 -7.14,1.4922 -9.65,4.4414 -2.57,3.0195 -3.81,7.2695 -3.81,12.8281 v 82.0001 c 0,5.422 1.12,9.422 3.41,12.09 2.21,2.679 5.37,4.031 9.27,4.031 2.35,0 4.54,-0.641 6.43,-1.77 1.99,-1.16 3.48,-2.992 4.65,-5.25 1.12,-2.421 1.77,-5.3 1.77,-8.691"
         style="fill:#100f0d;fill-opacity:1;fill-rule:nonzero;stroke:none"
         transform="matrix(0.13333333,0,0,-0.13333333,0,820.24)" />
      <path
         id="path14"
         d="m 2718.76,139.828 21.96,-64.4374 23.72,67.2504 c 1.89,5.418 3.7,9.199 5.52,11.468 1.83,2.25 4.5,3.391 8.14,3.391 3.45,0 6.38,-1.211 8.86,-3.68 2.38,-2.41 3.6,-5.172 3.6,-8.441 0,-1.219 -0.24,-2.66 -0.67,-4.277 -0.39,-1.704 -0.89,-3.262 -1.48,-4.75 -0.57,-1.403 -1.15,-3.09 -1.95,-4.954 l -26.08,-67.5582 c -0.73,-1.9414 -1.7,-4.4296 -2.83,-7.4218 -1.18,-2.9571 -2.5,-5.4492 -3.89,-7.6485 -1.46,-2.0898 -3.2,-3.6875 -5.27,-4.8906 -2.13,-1.1797 -4.68,-1.7695 -7.67,-1.7695 -3.84,0 -6.9,0.9101 -9.23,2.7109 -2.28,1.8594 -3.98,3.8399 -5.06,6.0781 -1.08,2.1407 -2.96,6.4805 -5.52,12.9414 l -25.93,66.8322 c -0.6,1.629 -1.24,3.308 -1.88,4.976 -0.6,1.661 -1.09,3.321 -1.56,5.09 -0.42,1.774 -0.66,3.25 -0.66,4.442 0,1.992 0.57,3.902 1.72,5.8 1.13,1.93 2.69,3.5 4.68,4.68 2.02,1.199 4.13,1.84 6.5,1.84 4.47,0 7.59,-1.352 9.3,-4.102 1.7,-2.679 3.6,-7.207 5.68,-13.57"
         style="fill:#100f0d;fill-opacity:1;fill-rule:nonzero;stroke:none"
         transform="matrix(0.13333333,0,0,-0.13333333,0,820.24)" />
      <path
         id="path15"
         d="m 2829.99,109.012 h 49.29 c -0.63,9.668 -3.12,16.929 -7.5,21.718 -4.37,4.801 -10.1,7.211 -17.22,7.211 -6.73,0 -12.31,-2.441 -16.64,-7.312 -4.35,-4.859 -6.95,-12.09 -7.93,-21.617 z m 53.2,-16.1526 h -53.2 c 0.01,-6.4688 1.31,-12.1406 3.69,-17.0977 2.46,-4.8711 5.67,-8.5898 9.7,-11.1133 4,-2.5195 8.46,-3.7187 13.31,-3.7187 3.24,0 6.25,0.3906 8.9,1.1601 2.67,0.8399 5.31,2.0821 7.86,3.75 2.48,1.711 4.78,3.4688 6.93,5.5 2.1,1.9297 4.93,4.5196 8.27,7.8711 1.41,1.3086 3.42,1.8907 5.97,1.8907 2.84,0 5.07,-0.7696 6.81,-2.4102 1.72,-1.5898 2.53,-3.8203 2.53,-6.7305 0,-2.5703 -0.93,-5.5703 -2.88,-9.0312 -1.9,-3.3789 -4.75,-6.6992 -8.71,-9.8906 -3.89,-3.1289 -8.77,-5.6993 -14.65,-7.8399 -5.84,-2.0703 -12.57,-3.0898 -20.28,-3.0898 -17.43,0 -31.03,5.2304 -40.69,15.5703 -9.69,10.4492 -14.51,24.5195 -14.51,42.2891 0,8.5002 1.23,16.2112 3.56,23.3712 2.39,7.199 5.86,13.332 10.46,18.449 4.59,5.152 10.2,9.121 16.92,11.813 6.74,2.757 14.14,4.117 22.35,4.117 10.54,0 19.69,-2.328 27.29,-7.039 7.63,-4.68 13.31,-10.68 17.09,-18.078 3.79,-7.473 5.69,-14.981 5.69,-22.743 0,-7.078 -1.91,-11.7106 -5.86,-13.8082 -3.96,-2.1524 -9.44,-3.1914 -16.55,-3.1914"
         style="fill:#100f0d;fill-opacity:1;fill-rule:nonzero;stroke:none"
         transform="matrix(0.13333333,0,0,-0.13333333,0,820.24)" />
      <path
         id="path16"
         d="m 3026.07,77.25 c 0,-3.5117 -1,-7.3086 -3.07,-11.3281 -2.03,-4.0235 -5.06,-7.8321 -9.25,-11.4805 -4.13,-3.6211 -9.4,-6.5508 -15.73,-8.75 -6.27,-2.2695 -13.42,-3.3633 -21.25,-3.3633 -16.87,0 -29.97,5.1328 -39.39,15.3321 -9.4,10.2304 -14.15,23.8984 -14.15,41.1093 0,11.6405 2.14,21.9605 6.5,30.8785 4.32,8.883 10.5,15.864 18.71,20.711 8.13,4.922 17.93,7.36 29.3,7.36 7.04,0 13.47,-1.098 19.4,-3.219 5.86,-2.172 10.8,-4.949 14.94,-8.309 4.08,-3.41 7.17,-7.043 9.36,-10.859 2.13,-3.844 3.21,-7.441 3.21,-10.773 0,-3.348 -1.18,-6.227 -3.68,-8.598 -2.4,-2.391 -5.33,-3.551 -8.78,-3.551 -2.26,0 -4.13,0.649 -5.6,1.871 -1.52,1.168 -3.18,3.071 -5.07,5.84 -3.32,5.238 -6.76,9.219 -10.39,11.91 -3.62,2.61 -8.22,3.949 -13.82,3.949 -7.98,0 -14.48,-3.332 -19.39,-9.871 -4.96,-6.578 -7.4,-15.539 -7.4,-26.8981 0,-5.3125 0.67,-10.2812 1.88,-14.7109 1.27,-4.4883 3.12,-8.2891 5.52,-11.4609 2.38,-3.1602 5.29,-5.5274 8.67,-7.1602 3.33,-1.6601 7.07,-2.4492 11.15,-2.4492 5.43,0 10.12,1.2891 14.01,3.9219 3.87,2.6679 7.33,6.6875 10.32,12.0273 1.67,3.2695 3.43,5.75 5.38,7.5703 1.91,1.8125 4.23,2.6719 7.07,2.6719 3.27,0 6.08,-1.2813 8.19,-3.9219 2.24,-2.6875 3.36,-5.4687 3.36,-8.4492"
         style="fill:#100f0d;fill-opacity:1;fill-rule:nonzero;stroke:none"
         transform="matrix(0.13333333,0,0,-0.13333333,0,820.24)" />
      <path
         id="path17"
         d="m 3051.33,155.109 h 2.99 v 17.063 c 0,4.539 0.12,8.16 0.37,10.75 0.22,2.609 0.82,4.777 1.94,6.699 1.03,1.899 2.56,3.488 4.59,4.731 1.97,1.187 4.19,1.757 6.65,1.757 3.44,0 6.57,-1.328 9.35,-4.007 1.81,-1.832 3.02,-4 3.52,-6.571 0.51,-2.609 0.73,-6.351 0.73,-11.109 v -19.313 h 10 c 3.85,0 6.8,-0.968 8.82,-2.879 2.06,-1.91 3.05,-4.32 3.05,-7.308 0,-3.82 -1.44,-6.524 -4.37,-8.024 -2.87,-1.488 -7.01,-2.257 -12.38,-2.257 h -5.12 V 82.3594 c 0,-4.4492 0.17,-7.8711 0.45,-10.2891 0.36,-2.3984 1.2,-4.3515 2.46,-5.789 1.25,-1.5118 3.36,-2.2813 6.31,-2.2813 1.59,0 3.73,0.2813 6.49,0.8984 2.65,0.5821 4.79,0.8829 6.35,0.8829 2.17,0 4.21,-0.961 5.94,-2.711 1.72,-1.8906 2.63,-4.1211 2.63,-6.8398 0,-4.5508 -2.34,-8.0586 -7.16,-10.4922 -4.83,-2.4297 -11.69,-3.6289 -20.61,-3.6289 -8.51,0 -14.97,1.4922 -19.36,4.4726 -4.35,2.9883 -7.27,7.0782 -8.58,12.4063 -1.4,5.2734 -2.07,12.3008 -2.07,21.1015 v 54.5512 h -3.62 c -3.84,0 -6.84,0.961 -8.92,2.918 -2.07,1.929 -3.08,4.363 -3.08,7.363 0,2.988 1.06,5.398 3.19,7.308 2.19,1.911 5.31,2.879 9.44,2.879"
         style="fill:#100f0d;fill-opacity:1;fill-rule:nonzero;stroke:none"
         transform="matrix(0.13333333,0,0,-0.13333333,0,820.24)" />
      <path
         id="path18"
         d="m 3196.52,99.7383 c 0,11.5427 -2.46,20.5817 -7.31,27.0317 -4.93,6.402 -11.43,9.648 -19.69,9.648 -5.33,0 -10,-1.438 -14.02,-4.309 -4.08,-2.918 -7.2,-7.16 -9.38,-12.781 -2.18,-5.547 -3.31,-12.066 -3.31,-19.5897 0,-7.4297 1.13,-13.8789 3.27,-19.4063 2.15,-5.5507 5.22,-9.7929 9.23,-12.7422 4.01,-2.9414 8.75,-4.3906 14.21,-4.3906 8.26,0 14.76,3.211 19.69,9.6914 4.85,6.4492 7.31,15.4492 7.31,26.8477 z m 27.31,0 c 0,-8.3985 -1.25,-16.207 -3.82,-23.3867 -2.5,-7.0821 -6.17,-13.2422 -10.93,-18.3828 -4.79,-5.1368 -10.52,-8.9805 -17.13,-11.7891 -6.67,-2.7305 -14.09,-4.0703 -22.43,-4.0703 -8.27,0 -15.68,1.3398 -22.23,4.1523 -6.56,2.7578 -12.28,6.7305 -17.08,11.8985 -4.8,5.1796 -8.46,11.2304 -10.91,18.2578 -2.48,7.082 -3.7,14.8203 -3.7,23.3711 0,8.6019 1.22,16.4609 3.7,23.5699 2.58,7.18 6.15,13.231 10.86,18.332 4.75,5.051 10.45,8.938 17.13,11.68 6.78,2.738 14.17,4.129 22.23,4.129 8.26,0 15.69,-1.391 22.43,-4.168 6.7,-2.773 12.43,-6.762 17.22,-11.883 4.73,-5.109 8.44,-11.258 10.92,-18.328 2.49,-7.051 3.74,-14.851 3.74,-23.3827"
         style="fill:#100f0d;fill-opacity:1;fill-rule:nonzero;stroke:none"
         transform="matrix(0.13333333,0,0,-0.13333333,0,820.24)" />
      <path
         id="path19"
         d="M 3272.28,83.0117 V 59.3789 c 0,-5.7578 -1.31,-10.0898 -3.91,-13 -2.6,-2.8203 -5.87,-4.2695 -9.89,-4.2695 -3.87,0 -7.12,1.4922 -9.63,4.3398 -2.52,2.9102 -3.76,7.211 -3.76,12.9297 v 79.0001 c 0,12.762 4.39,19.121 13.23,19.121 4.47,0 7.74,-1.52 9.78,-4.461 1.95,-2.98 3,-7.398 3.27,-13.211 3.23,5.813 6.61,10.231 10.04,13.211 3.41,2.941 7.96,4.461 13.64,4.461 5.76,0 11.28,-1.52 16.68,-4.461 5.35,-2.98 8.07,-6.961 8.07,-11.859 0,-3.461 -1.18,-6.371 -3.46,-8.578 -2.27,-2.243 -4.75,-3.411 -7.44,-3.411 -0.98,0 -3.4,0.661 -7.21,1.969 -3.85,1.262 -7.22,1.918 -10.16,1.918 -3.93,0 -7.18,-1.047 -9.68,-3.289 -2.54,-2.207 -4.52,-5.41 -5.9,-9.687 -1.4,-4.352 -2.41,-9.442 -2.9,-15.391 -0.51,-5.8907 -0.77,-13.1016 -0.77,-21.6993"
         style="fill:#100f0d;fill-opacity:1;fill-rule:nonzero;stroke:none"
         transform="matrix(0.13333333,0,0,-0.13333333,0,820.24)" />
      <path
         id="path20"
         d="m 3417.13,79.1914 c 0,-7.8516 -1.83,-14.543 -5.52,-20.1328 -3.67,-5.5977 -9.05,-9.7695 -16.2,-12.6797 -7.17,-2.8203 -15.82,-4.2695 -26.1,-4.2695 -9.68,0 -18.1,1.539 -25.09,4.6914 -6.97,3.1094 -12.13,6.9883 -15.42,11.6601 -3.36,4.6485 -5.07,9.3477 -5.07,14.0508 0,3.1094 1.09,5.7891 3.27,8.0078 2.11,2.2618 4.82,3.3203 8.03,3.3203 2.87,0 5.1,-0.75 6.61,-2.1484 1.52,-1.5508 2.95,-3.5508 4.39,-6.1797 2.78,-5.0703 6.1,-8.8515 10.04,-11.3398 3.82,-2.5313 9.13,-3.7735 15.89,-3.7735 5.42,0 9.9,1.293 13.39,3.8204 3.47,2.5312 5.27,5.4101 5.27,8.6718 0,5.0196 -1.84,8.668 -5.43,10.9414 -3.68,2.3282 -9.6,4.5078 -17.9,6.5664 -9.36,2.4336 -17.01,4.9805 -22.9,7.6329 -5.86,2.6797 -10.62,6.2307 -14.11,10.5897 -3.52,4.301 -5.31,9.711 -5.31,16.09 0,5.719 1.64,11.078 4.9,16.121 3.24,5.066 8.11,9.09 14.43,12.117 6.33,3.031 13.97,4.551 22.99,4.551 7,0 13.33,-0.781 18.97,-2.309 5.6,-1.511 10.34,-3.582 14.03,-6.109 3.75,-2.582 6.64,-5.422 8.59,-8.523 1.99,-3.149 2.96,-6.2 2.96,-9.161 0,-3.269 -1.03,-5.867 -3.17,-8.039 -2.1,-2 -5.1,-3.058 -8.88,-3.058 -2.83,0 -5.19,0.82 -7.19,2.519 -1.92,1.641 -4.19,4.121 -6.7,7.399 -2.06,2.793 -4.46,5.019 -7.29,6.679 -2.79,1.633 -6.57,2.5 -11.32,2.5 -4.94,0 -9.06,-1.078 -12.25,-3.289 -3.28,-2.168 -4.92,-4.91 -4.92,-8.16 0,-3 1.21,-5.429 3.56,-7.34 2.42,-1.91 5.63,-3.48 9.7,-4.738 4.08,-1.25 9.64,-2.812 16.75,-4.59 8.45,-2.14 15.32,-4.679 20.68,-7.691 5.34,-2.949 9.39,-6.4806 12.14,-10.5392 2.8,-4.0899 4.18,-8.711 4.18,-13.8594"
         style="fill:#100f0d;fill-opacity:1;fill-rule:nonzero;stroke:none"
         transform="matrix(0.13333333,0,0,-0.13333333,0,820.24)" />
      <path
         id="path21"
         d="m 3448.01,42.1094 c -4.12,0 -7.69,1.3398 -10.64,4.1523 -3.03,2.7578 -4.51,6.668 -4.51,11.6094 0,4.2187 1.4,7.8594 4.23,10.9297 2.86,3.0273 6.41,4.5195 10.6,4.5195 4.16,0 7.74,-1.4922 10.63,-4.5117 3,-2.9688 4.48,-6.6797 4.48,-10.9375 0,-4.9023 -1.48,-8.7695 -4.48,-11.5703 -2.89,-2.8008 -6.34,-4.1914 -10.31,-4.1914"
         style="fill:#100f0d;fill-opacity:1;fill-rule:nonzero;stroke:none"
         transform="matrix(0.13333333,0,0,-0.13333333,0,820.24)" />
      <path
         id="path22"
         d="m 3568.26,99.7383 c 0,11.5427 -2.45,20.5817 -7.33,27.0317 -4.89,6.402 -11.42,9.648 -19.65,9.648 -5.32,0 -9.95,-1.438 -14.02,-4.309 -4.07,-2.918 -7.18,-7.16 -9.36,-12.781 -2.17,-5.547 -3.28,-12.066 -3.28,-19.5897 0,-7.4297 1.04,-13.8789 3.19,-19.4063 2.23,-5.5507 5.28,-9.7929 9.31,-12.7422 4,-2.9414 8.72,-4.3906 14.16,-4.3906 8.23,0 14.76,3.211 19.65,9.6914 4.88,6.4492 7.33,15.4492 7.33,26.8477 z m 27.33,0 c 0,-8.3985 -1.25,-16.207 -3.81,-23.3867 -2.54,-7.0821 -6.15,-13.2422 -10.95,-18.3828 -4.82,-5.1368 -10.47,-8.9805 -17.13,-11.7891 -6.62,-2.7305 -14.09,-4.0703 -22.42,-4.0703 -8.22,0 -15.63,1.3398 -22.2,4.1523 -6.58,2.7578 -12.24,6.7305 -17.05,11.8985 -4.89,5.1796 -8.51,11.2304 -11.03,18.2578 -2.45,7.082 -3.7,14.8203 -3.7,23.3711 0,8.6019 1.25,16.4609 3.79,23.5699 2.57,7.18 6.14,13.231 10.82,18.332 4.72,5.051 10.44,8.938 17.17,11.68 6.7,2.738 14.05,4.129 22.2,4.129 8.23,0 15.7,-1.391 22.42,-4.168 6.74,-2.773 12.46,-6.762 17.26,-11.883 4.74,-5.109 8.38,-11.258 10.9,-18.328 2.48,-7.051 3.73,-14.851 3.73,-23.3827"
         style="fill:#100f0d;fill-opacity:1;fill-rule:nonzero;stroke:none"
         transform="matrix(0.13333333,0,0,-0.13333333,0,820.24)" />
      <path
         id="path23"
         d="M 3644.02,83.0117 V 59.3789 c 0,-5.7578 -1.3,-10.0898 -3.88,-13 -2.55,-2.8203 -5.88,-4.2695 -9.84,-4.2695 -3.96,0 -7.15,1.4922 -9.68,4.3398 -2.56,2.9102 -3.8,7.211 -3.8,12.9297 v 79.0001 c 0,12.762 4.47,19.121 13.26,19.121 4.52,0 7.75,-1.52 9.73,-4.461 1.97,-2.98 3.13,-7.398 3.36,-13.211 3.2,5.813 6.53,10.231 9.95,13.211 3.43,2.941 8,4.461 13.67,4.461 5.81,0 11.34,-1.52 16.67,-4.461 5.38,-2.98 8.09,-6.961 8.09,-11.859 0,-3.461 -1.15,-6.371 -3.42,-8.578 -2.32,-2.243 -4.75,-3.411 -7.48,-3.411 -0.95,0 -3.35,0.661 -7.16,1.969 -3.84,1.262 -7.21,1.918 -10.16,1.918 -3.95,0 -7.19,-1.047 -9.79,-3.289 -2.48,-2.207 -4.44,-5.41 -5.85,-9.687 -1.36,-4.352 -2.34,-9.442 -2.86,-15.391 -0.52,-5.8907 -0.81,-13.1016 -0.81,-21.6993"
         style="fill:#100f0d;fill-opacity:1;fill-rule:nonzero;stroke:none"
         transform="matrix(0.13333333,0,0,-0.13333333,0,820.24)" />
      <path
         id="path24"
         d="m 3722.54,100.719 c 0,-11.4768 2.42,-20.1877 7.25,-26.1096 4.78,-5.8477 11.05,-8.8281 18.64,-8.8281 4.49,0 8.82,1.3085 12.81,3.8398 4.02,2.5273 7.3,6.3398 9.82,11.4297 2.56,5.1094 3.78,11.2578 3.78,18.539 0,11.5702 -2.46,20.5582 -7.33,26.9922 -4.86,6.496 -11.3,9.758 -19.26,9.758 -7.74,0 -13.98,-3.168 -18.65,-9.301 -4.71,-6.187 -7.06,-14.937 -7.06,-26.32 z m 78.84,36 V 54.25 c 0,-9.4687 -1.04,-17.5586 -2.92,-24.3203 -1.94,-6.8281 -5.01,-12.4414 -9.26,-16.8711 -4.25,-4.41797 -9.84,-7.70704 -16.67,-9.85938 C 3765.64,1.08984 3757.08,0 3746.87,0 c -9.39,0 -17.78,1.33203 -25.1,4.05859 -7.39,2.80079 -13.09,6.30081 -17.05,10.66021 -3.99,4.2929 -6,8.75 -6,13.3515 0,3.4805 1.1,6.2813 3.43,8.461 2.23,2.2382 4.96,3.3203 8.13,3.3203 4.01,0 7.44,-1.8516 10.49,-5.5118 1.47,-1.9296 2.99,-3.789 4.5,-5.6796 1.57,-1.9102 3.3,-3.5782 5.18,-4.8985 1.91,-1.3906 4.21,-2.3828 6.86,-3.0508 2.6,-0.6523 5.71,-0.9921 9.17,-0.9921 6.99,0 12.51,1.0507 16.37,3.0703 3.89,2.039 6.62,4.9023 8.2,8.5703 1.49,3.6797 2.49,7.5898 2.65,11.7812 0.32,4.2813 0.51,10.9492 0.69,20.2891 -4.18,-6.1016 -9.09,-10.75 -14.51,-13.9297 -5.48,-3.1992 -12.03,-4.7617 -19.54,-4.7617 -9.18,0 -17.13,2.3906 -23.88,7.2734 -6.85,4.8399 -12.08,11.6172 -15.73,20.3789 -3.6,8.711 -5.48,18.7891 -5.48,30.2384 0,8.57 1.1,16.269 3.36,23.141 2.18,6.832 5.34,12.628 9.52,17.339 4.08,4.723 8.85,8.282 14.22,10.692 5.41,2.347 11.25,3.57 17.76,3.57 7.66,0 14.33,-1.562 19.97,-4.672 5.72,-3.027 10.91,-7.937 15.77,-14.48 v 3.801 c 0,4.96 1.2,8.742 3.5,11.519 2.29,2.672 5.31,4.043 8.94,4.043 5.26,0 8.75,-1.773 10.5,-5.352 1.7,-3.582 2.59,-8.769 2.59,-15.511"
         style="fill:#100f0d;fill-opacity:1;fill-rule:nonzero;stroke:none"
         transform="matrix(0.13333333,0,0,-0.13333333,0,820.24)" />
      <path
         id="path25"
         d="m 2622.67,413.09 h 40.34 c -2.85,-21.738 -11.76,-38.719 -26.58,-50.93 -13.72,-11.98 -30.33,-17.871 -49.73,-17.871 -26.35,0 -47.37,9.25 -63.07,27.723 -14.88,17.57 -22.3,40.25 -22.3,67.957 0,28.402 7.37,51.09 22.08,68.281 14.71,17.121 35.51,25.719 62.39,25.719 19.99,0 36.91,-5.41 50.63,-16.137 14.54,-11.602 23.43,-27.902 26.58,-48.773 h -40.34 c -3.49,18.211 -14.6,27.273 -33.52,27.273 -31.17,0 -46.79,-18.473 -46.79,-55.422 0,-17.332 4.02,-31.461 12.03,-42.461 8.02,-11.07 19.33,-16.597 33.91,-16.597 21.73,0 33.2,10.429 34.37,31.238 z m -158.79,25.449 c 0,-36.098 11.45,-66.66 34.3,-91.559 22.9,-24.89 50.91,-37.351 84.15,-37.351 33.1,0 61.14,12.461 83.99,37.351 22.92,24.899 34.3,55.461 34.3,91.559 0,36.082 -11.38,66.609 -34.3,91.52 -22.85,24.953 -50.89,37.382 -83.99,37.382 -33.24,0 -61.25,-12.429 -84.15,-37.382 -22.85,-24.911 -34.3,-55.438 -34.3,-91.52 z m -40.98,0 c 0,45.941 15.55,85.152 46.66,117.723 31.15,32.519 68.75,48.789 112.77,48.789 43.92,0 81.47,-16.27 112.65,-48.789 31.13,-32.571 46.73,-71.782 46.73,-117.723 0,-45.969 -15.6,-85.238 -46.73,-117.738 -31.18,-32.551 -68.73,-48.832 -112.65,-48.832 -44.02,0 -81.62,16.281 -112.77,48.832 -31.11,32.5 -46.66,71.769 -46.66,117.738"
         style="fill:#100f0d;fill-opacity:1;fill-rule:nonzero;stroke:none"
         transform="matrix(0.13333333,0,0,-0.13333333,0,820.24)" />
      <path
         id="path26"
         d="m 2487.4,334.121 23.26,-19.73 170.95,219.527 -23.24,19.703 -170.97,-219.5"
         style="fill:#100f0d;fill-opacity:1;fill-rule:nonzero;stroke:none"
         transform="matrix(0.13333333,0,0,-0.13333333,0,820.24)" />
      <path
         id="path27"
         d="m 2358.8,1434.2 c 1299.18,0 2358.8,1059.61 2358.8,2358.8 0,1299.18 -1059.62,2358.8 -2358.8,2358.8 C 1059.62,6151.8 0,5092.18 0,3793 0,2493.81 1059.62,1434.2 2358.8,1434.2"
         style="fill:#e3dff2;fill-opacity:1;fill-rule:evenodd;stroke:none"
         transform="matrix(0.13333333,0,0,-0.13333333,0,820.24)" />
      <path
         id="path28"
         d="m 1787.78,5653.56 -57.41,23.15 c -72.82,29.37 -129.22,89.03 -154.44,163.39 -6.78,19.96 -3.85,41.95 7.9,59.46 11.76,17.5 31.01,28.53 52.06,29.81 366.18,22.35 727.32,-94.23 1011.33,-326.45 9.04,-7.38 13.69,-18.87 12.34,-30.47 -1.35,-11.59 -8.51,-21.7 -19,-26.83 -38.04,-18.56 -81.24,-23.72 -122.59,-14.65 l -730.19,122.59"
         style="fill:#17192a;fill-opacity:1;fill-rule:evenodd;stroke:none"
         transform="matrix(0.13333333,0,0,-0.13333333,0,820.24)" />
      <path
         id="path29"
         d="m 1790.12,5490.83 c -39.04,-120.89 20.77,-217.6 -29.28,-272.96 -50.05,-55.37 25.76,-314.32 75.34,-342.95 27.78,-16.02 148.52,28.94 215.03,52.89 l 200.75,-269.05 164.23,212.22 -107.79,129.78 112.97,558.05 -631.25,-67.98"
         style="fill:#f1485f;fill-opacity:1;fill-rule:evenodd;stroke:none"
         transform="matrix(0.13333333,0,0,-0.13333333,0,820.24)" />
      <path
         id="path30"
         d="m 1790.12,5490.83 c -30.55,259.58 733.45,88 675.92,-105.74 26.33,-135.05 -60.5,-276.16 -157.65,-384.32 l -58.61,88.29 c -36.04,54.3 -64.91,113.04 -85.88,174.74 l -125.81,-5.99 27.3,113.47 c 13.43,55.83 -31.64,100.33 -88.87,104.84 l -186.4,14.71"
         style="fill:#2e2d2d;fill-opacity:1;fill-rule:evenodd;stroke:none"
         transform="matrix(0.13333333,0,0,-0.13333333,0,820.24)" />
      <path
         id="path31"
         d="m 2217.53,5378.63 c 38.52,-9.56 55.08,-76.4 37,-149.29 -18.09,-72.91 -63.98,-124.25 -102.51,-114.69 -38.51,9.56 -55.07,76.4 -36.99,149.3 18.1,72.89 63.98,124.24 102.5,114.68"
         style="fill:#f1485f;fill-opacity:1;fill-rule:evenodd;stroke:none"
         transform="matrix(0.13333333,0,0,-0.13333333,0,820.24)" />
      <path
         id="path32"
         d="m 1842.91,5403.42 4.15,-48.18 h 30.26 c 26.36,0 52.43,-5.47 76.56,-16.06 l 11.18,23.52 c -27.61,18.01 -58.66,30.12 -91.19,35.55 l -30.96,5.17"
         style="fill:#2e2d2d;fill-opacity:1;fill-rule:evenodd;stroke:none"
         transform="matrix(0.13333333,0,0,-0.13333333,0,820.24)" />
      <path
         id="path33"
         d="m 1908.39,5330.57 c 19.31,0 34.98,-21.21 34.98,-47.39 0,-26.17 -15.67,-47.39 -34.98,-47.39 -19.32,0 -34.99,21.22 -34.99,47.39 0,26.18 15.67,47.39 34.99,47.39"
         style="fill:#2e2d2d;fill-opacity:1;fill-rule:evenodd;stroke:none"
         transform="matrix(0.13333333,0,0,-0.13333333,0,820.24)" />
      <path
         id="path34"
         d="m 1805.1,5064.24 c 12.08,3.79 27.73,-11.85 34.97,-34.91 7.23,-23.06 3.3,-44.84 -8.77,-48.62 -12.07,-3.79 -27.73,11.84 -34.96,34.9 -7.24,23.06 -3.31,44.84 8.76,48.63"
         style="fill:#ffffff;fill-opacity:1;fill-rule:evenodd;stroke:none"
         transform="matrix(0.13333333,0,0,-0.13333333,0,820.24)" />
      <path
         id="path35"
         d="m 3277.04,3772.04 -6.67,32.17 c -11.77,51.03 -1.39,104.67 28.56,147.62 35.02,50.25 46.8,74.39 33.96,134.27 -6.25,29.14 36.52,20.25 65.12,-21.93 15.36,-22.66 -16.56,-65.69 -0.25,-115.88 100.85,26.61 217.73,95.61 291.72,110.8 24.48,5.01 51.27,-17.19 14.68,-42.83 -37.8,-26.47 -93.17,-41.8 -133.68,-77.36 l 2.54,-5.43 c 44.86,6.56 90.63,27.82 150.76,40.44 45,9.43 68.42,-32.04 12.97,-64.26 15.33,-9.38 19.66,-32.35 7.89,-46.25 -23.81,-28.11 -128.81,-64.09 -180.25,-72.29 l 0.49,-18.23 c 28.38,-4.33 63.23,7.94 99.21,3.32 62.61,-8.05 59.17,-46 2.54,-55.92 -31.04,-5.45 -80.44,-6.81 -114.08,-6.99 -49.87,-14.07 -74.19,-9.52 -124.29,-22.56 -64.59,-16.83 -129.22,18.67 -151.22,81.31"
         style="fill:#e7303f;fill-opacity:1;fill-rule:evenodd;stroke:none"
         transform="matrix(0.13333333,0,0,-0.13333333,0,820.24)" />
      <path
         id="path36"
         d="m 2893.82,4325.53 58.28,-40.22 42.87,-21.07 c 190.02,-93.38 348.87,-239.05 458.27,-419.23 20.95,-34.5 17.92,-76.51 -7.74,-107.64 l -5.64,-6.83 c -26.33,-31.96 -68.62,-42.65 -106.98,-27.06 l -464.35,188.69 c -56.43,22.93 -101.98,66.57 -127.29,121.99 l -46.6,35.57 18.78,37.37 c 45.12,89.79 106.26,170.6 180.4,238.43"
         style="fill:#f1485f;fill-opacity:1;fill-rule:evenodd;stroke:none"
         transform="matrix(0.13333333,0,0,-0.13333333,0,820.24)" />
      <path
         id="path37"
         d="m 2893.82,4325.53 58.28,-40.22 3.61,-1.78 c -48.65,-33.1 -71.25,-94.13 -54.66,-151.62 8.43,-29.22 38.43,-46.58 67.96,-39.31 l -2,-8.19 c -8.54,-34.98 -34.86,-62.88 -69.29,-73.44 l 3.33,-18.97 c 9.8,-55.79 37.23,-106.24 77.36,-144.48 l -109.88,44.65 c -56.43,22.93 -101.98,66.57 -127.29,121.99 l -46.6,35.57 18.78,37.37 c 45.12,89.79 106.26,170.6 180.4,238.43"
         style="fill:#e7303f;fill-opacity:1;fill-rule:evenodd;stroke:none"
         transform="matrix(0.13333333,0,0,-0.13333333,0,820.24)" />
      <path
         id="path38"
         d="M 2549.03,4657.92 2919,4360.56 c 0,-160.36 -67.02,-279.43 -233.17,-342.44 l -392.63,272.04 c -99.18,71.49 -122.72,209.3 -52.91,309.66 69.82,100.37 213.86,134.35 308.74,58.1"
         style="fill:#2d3492;fill-opacity:1;fill-rule:evenodd;stroke:none"
         transform="matrix(0.13333333,0,0,-0.13333333,0,820.24)" />
      <path
         id="path39"
         d="m 2162.89,3325.47 111.92,-991.34 83.99,-183.88 70.57,-847.43 -26.65,-106.61 436.09,-143.91 c 159.17,508.18 167.47,758.36 -42.63,1281.83 l -57.68,924.73 -575.61,66.61"
         style="fill:#17192a;fill-opacity:1;fill-rule:evenodd;stroke:none"
         transform="matrix(0.13333333,0,0,-0.13333333,0,820.24)" />
      <path
         id="path40"
         d="m 2378.75,5020.34 21.31,-71.95 167.89,-250.5 c 122.78,-183.18 184.35,-400.56 175.89,-620.92 -4.64,-120.71 10.66,-241.36 45.3,-357.1 22.63,-75.58 -10.71,-156.69 -79.95,-194.53 l -546.3,-199.87 -87.94,63.96 c -86.3,62.77 -128.82,169.58 -109.27,274.48 l 5.34,450.37 c -180.74,334.64 173.27,688.76 407.73,906.06"
         style="fill:#3e41a0;fill-opacity:1;fill-rule:evenodd;stroke:none"
         transform="matrix(0.13333333,0,0,-0.13333333,0,820.24)" />
      <path
         id="path41"
         d="m 1967.05,3779.14 3.97,335.14 c -32.49,60.16 -47.63,120.95 -49.35,181.46 l 363.12,125.97 -29.31,-167.88 c -33.46,-191.65 -138.19,-360.05 -288.43,-474.69"
         style="fill:#2d3492;fill-opacity:1;fill-rule:evenodd;stroke:none"
         transform="matrix(0.13333333,0,0,-0.13333333,0,820.24)" />
      <path
         id="path42"
         d="m 2709.19,3525.34 86.99,-111.92 c 89.13,-114.7 139.82,-254.58 144.86,-399.74 l 261.16,-644.89 106.6,-181.22 c 158.58,-269.62 266.94,-565.78 319.78,-874.1 -92.24,-113.25 -222.22,-174.57 -399.73,-170.55 l -165.24,229.19 c -174.74,242.4 -286.47,524.46 -325.11,820.78 l -379.7,852.76 -195.91,279.82 546.3,199.87"
         style="fill:#272a55;fill-opacity:1;fill-rule:evenodd;stroke:none"
         transform="matrix(0.13333333,0,0,-0.13333333,0,820.24)" />
      <path
         id="path43"
         d="m 1728.47,4360.56 -6.61,9.54 -282.48,390.41 -123.92,-61 1.33,-190.84 c 1.54,-220.41 95.28,-430.13 258.5,-578.28 h 89.27 l 227.85,154.57 -25.32,54.63 c -34.21,73.84 -81.34,162.75 -138.62,220.97"
         style="fill:#f1485f;fill-opacity:1;fill-rule:evenodd;stroke:none"
         transform="matrix(0.13333333,0,0,-0.13333333,0,820.24)" />
      <path
         id="path44"
         d="m 1750.48,4310.45 -6.66,-105.27 c -6.1,-96.28 -33.15,-190.06 -79.26,-274.79 l 227.85,154.57 -141.93,225.49"
         style="fill:#e7303f;fill-opacity:1;fill-rule:evenodd;stroke:none"
         transform="matrix(0.13333333,0,0,-0.13333333,0,820.24)" />
      <path
         id="path45"
         d="m 2098.45,4657.92 -369.98,-297.36 c 0,-160.36 67.03,-279.43 233.18,-342.44 l 392.63,272.04 c 99.17,71.49 122.72,209.3 52.9,309.66 -69.82,100.37 -213.85,134.35 -308.73,58.1"
         style="fill:#3e41a0;fill-opacity:1;fill-rule:evenodd;stroke:none"
         transform="matrix(0.13333333,0,0,-0.13333333,0,820.24)" />
      <path
         id="path46"
         d="m 2741.94,3548.74 28.19,-101.82 C 2626,3363.45 2385.55,3269.45 2173.49,3231.61 l -38.58,93.86 c 209.3,63.56 413.07,135.74 607.03,223.27"
         style="fill:#b8404d;fill-opacity:1;fill-rule:evenodd;stroke:none"
         transform="matrix(0.13333333,0,0,-0.13333333,0,820.24)" />
      <path
         id="path47"
         d="m 1790.12,5490.83 c 237.8,4.84 422.97,-3.56 675.92,-105.74 l 51.93,145.88 c -237.73,127.61 -460.71,179.95 -730.19,122.59 l 2.34,-162.73"
         style="fill:#272a55;fill-opacity:1;fill-rule:evenodd;stroke:none"
         transform="matrix(0.13333333,0,0,-0.13333333,0,820.24)" />
      <path
         id="path48"
         d="m 1986.08,5489.77 -241.65,-40.08 c -90.41,-14.99 -183.14,-7.21 -269.78,22.66 l 314.31,99.85 40.13,-1.25 c 61.92,-1.94 119.63,-31.78 156.99,-81.18"
         style="fill:#3e41a0;fill-opacity:1;fill-rule:evenodd;stroke:none"
         transform="matrix(0.13333333,0,0,-0.13333333,0,820.24)" />
      <path
         id="path49"
         d="m 1449.49,4745.19 -48.28,133.35 c -16.46,45.48 -58.8,76.48 -107.14,78.46 -34.18,1.4 -68.39,2.41 -102.6,3.02 -43.89,0.78 -81.75,-30.66 -89.02,-73.94 l -37.73,-4.52 c -30.8,-3.7 -56.32,-25.64 -64.59,-55.54 -8.271,-29.9 2.35,-61.84 26.87,-80.83 l 34.7,-148.82 c 8.89,-38.1 43.95,-64.22 82.99,-61.87 73.28,4.44 146.3,12.51 218.79,24.14 l 17.69,-3.72 c 63.95,-23.99 128.69,-30.53 80.82,144.59 l -12.5,45.68"
         style="fill:#f1485f;fill-opacity:1;fill-rule:evenodd;stroke:none"
         transform="matrix(0.13333333,0,0,-0.13333333,0,820.24)" />
      <path
         id="path50"
         d="m 1293.91,4908.42 h 85.28 v 203.33 h -85.28 v -203.33"
         style="fill:#17192a;fill-opacity:1;fill-rule:evenodd;stroke:none"
         transform="matrix(0.13333333,0,0,-0.13333333,0,820.24)" />
      <path
         id="path51"
         d="m 964.801,5155.89 -137.77,15.99 c -214.176,24.85 -406.605,116.07 -534.082,253.16 -17.261,18.57 -48.906,24.94 -75.469,15.19 -26.542,-9.74 -40.546,-32.87 -33.386,-55.14 v -375.02 -375.01 c -7.16,-22.27 6.844,-45.39 33.386,-55.14 26.563,-9.75 58.208,-3.38 75.469,15.19 127.477,137.09 319.906,228.31 534.082,253.16 l 137.77,16 59.529,145.8 -59.529,145.82"
         style="fill:#ada5da;fill-opacity:1;fill-rule:evenodd;stroke:none"
         transform="matrix(0.13333333,0,0,-0.13333333,0,820.24)" />
      <path
         id="path52"
         d="m 964.797,4864.27 h 363.123 v 291.62 H 964.797 v -291.62"
         style="fill:#3e41a0;fill-opacity:1;fill-rule:evenodd;stroke:none"
         transform="matrix(0.13333333,0,0,-0.13333333,0,820.24)" />
      <path
         id="path53"
         d="m 2472.03,1254.47 -69.31,-58.26 c -68.53,-57.58 -151.43,-95.5 -239.83,-109.64 -15.2,-2.43 -28.35,-11.91 -35.43,-25.6 -7.1,-13.64 -7.3,-29.85 -0.55,-43.68 18.17,-37.2 51.81,-64.501 91.94,-74.63 h 632.92 l -7.99,39.981 -4.97,69.659 -366.78,202.17"
         style="fill:#17192a;fill-opacity:1;fill-rule:evenodd;stroke:none"
         transform="matrix(0.13333333,0,0,-0.13333333,0,820.24)" />
      <path
         id="path54"
         d="m 3305.75,1240.64 8,-117.26 c 8.82,-129.31 65.89,-250.579 159.9,-339.81 19.7,-18.679 47.96,-25.32 73.93,-17.289 25.96,8 45.57,29.391 51.32,55.938 15.74,72.84 25.54,146.812 29.31,221.191 3.18,62.64 -14.64,124.55 -50.62,175.89 -25.34,36.16 -43.44,76.88 -53.3,119.93 -11.08,48.28 -50.15,85.1 -98.99,93.29 -48.84,8.16 -97.79,-13.93 -123.98,-55.94 -26.19,-42.05 -24.44,-95.71 4.43,-135.94"
         style="fill:#272a55;fill-opacity:1;fill-rule:evenodd;stroke:none"
         transform="matrix(0.13333333,0,0,-0.13333333,0,820.24)" />
    </g>
  </g>
</svg>
