<?xml version="1.0" encoding="UTF-8" standalone="no"?>
<!-- Created with Inkscape (http://www.inkscape.org/) -->

<svg
   version="1.1"
   id="svg1"
   width="1316.6801"
   height="1282.3467"
   viewBox="0 0 1316.6801 1282.3467"
   sodipodi:docname="programming-language-pdv.svg"
   inkscape:version="1.3.2 (091e20ef0f, 2023-11-25, custom)"
   xmlns:inkscape="http://www.inkscape.org/namespaces/inkscape"
   xmlns:sodipodi="http://sodipodi.sourceforge.net/DTD/sodipodi-0.dtd"
   xmlns="http://www.w3.org/2000/svg"
   xmlns:svg="http://www.w3.org/2000/svg">
  <defs
     id="defs1" />
  <sodipodi:namedview
     id="namedview1"
     pagecolor="#505050"
     bordercolor="#ffffff"
     borderopacity="1"
     inkscape:showpageshadow="0"
     inkscape:pageopacity="0"
     inkscape:pagecheckerboard="1"
     inkscape:deskcolor="#d1d1d1"
     inkscape:zoom="0.48683051"
     inkscape:cx="658.34"
     inkscape:cy="640.88013"
     inkscape:window-width="1920"
     inkscape:window-height="1002"
     inkscape:window-x="0"
     inkscape:window-y="0"
     inkscape:window-maximized="1"
     inkscape:current-layer="g1">
    <inkscape:page
       x="0"
       y="0"
       inkscape:label="1"
       id="page1"
       width="1316.6801"
       height="1282.3467"
       margin="0"
       bleed="0" />
  </sodipodi:namedview>
  <g
     id="g1"
     inkscape:groupmode="layer"
     inkscape:label="1">
    <g
       id="group-R5">
      <path
         id="path2"
         d="m 3290.77,150.832 c 0,11.309 -1.63,21.039 -4.96,29.059 -3.28,8.109 -7.81,14.339 -13.74,18.738 -5.83,4.312 -12.28,6.48 -19.42,6.48 -11.21,0 -20.76,-4.699 -28.57,-13.91 -7.71,-9.437 -11.66,-22.98 -11.66,-41.051 0,-17.07 3.95,-30.25 11.59,-39.628 7.74,-9.438 17.26,-14.2583 28.64,-14.2583 6.84,0 13.17,2.0899 18.97,6.2503 5.7,4.148 10.39,10.34 13.89,18.508 3.54,8.332 5.26,18.199 5.26,29.812 z m -80.21,62.309 v -5.2 c 7.66,9.868 15.69,17.219 23.95,21.848 8.32,4.68 17.76,6.961 28.24,6.961 12.56,0 24.15,-3.41 34.78,-10.16 10.58,-6.77 18.99,-16.66 25.16,-29.762 6.09,-12.988 9.22,-28.457 9.22,-46.297 0,-13.082 -1.83,-25.261 -5.38,-36.121 -3.48,-11.078 -8.38,-20.3905 -14.56,-27.8084 -6.25,-7.5118 -13.6,-13.25 -22.02,-17.1797 -8.44,-4.0899 -17.54,-6.0117 -27.2,-6.0117 -11.75,0 -21.56,2.3711 -29.51,7.2812 -8.03,4.9102 -15.53,12.0586 -22.68,21.5586 V 28.1484 C 3210.56,9.33984 3203.96,0 3190.87,0 c -7.66,0 -12.78,2.35156 -15.24,7.19141 -2.52,4.89839 -3.73,11.98049 -3.73,21.26949 V 212.832 c 0,8.098 1.65,14.258 5.08,18.227 3.43,3.98 8.1,6.089 13.89,6.089 5.87,0 10.57,-2.109 14.19,-6.257 3.65,-4.153 5.5,-10.11 5.5,-17.75"
         style="fill:#211d1d;fill-opacity:1;fill-rule:nonzero;stroke:none"
         transform="matrix(0.13333333,0,0,-0.13333333,0,1282.3467)" />
      <path
         id="path3"
         d="m 3471.13,87.4922 v 5.4297 c -4.98,-6.4805 -10.11,-11.8906 -15.52,-16.2305 -5.39,-4.4414 -11.31,-7.6328 -17.62,-9.8008 -6.49,-2.1523 -13.78,-3.1914 -21.94,-3.1914 -9.89,0 -18.74,2.1524 -26.6,6.4024 -7.91,4.2265 -13.92,10.1797 -18.24,17.6875 -5.13,9.082 -7.66,22.0899 -7.66,39.0199 v 84.679 c 0,8.563 1.87,14.942 5.58,19.192 3.73,4.14 8.55,6.3 14.66,6.3 6.25,0 11.23,-2.16 15.01,-6.468 3.76,-4.231 5.66,-10.621 5.66,-19.024 v -68.386 c 0,-9.891 0.81,-18.223 2.37,-24.891 1.63,-6.789 4.46,-12.07 8.78,-15.859 3.99,-3.7817 9.66,-5.6411 16.71,-5.6411 7.02,0 13.54,2.1485 19.49,6.3981 6.18,4.243 10.64,9.793 13.45,16.641 2.32,6.09 3.42,19.332 3.42,39.852 v 51.886 c 0,8.403 1.94,14.793 5.71,19.024 3.72,4.308 8.72,6.468 14.83,6.468 6.07,0 10.98,-2.16 14.71,-6.3 3.63,-4.25 5.49,-10.629 5.49,-19.192 V 87.7891 c 0,-8.1797 -1.7,-14.2578 -5.36,-18.3086 -3.5,-4.0782 -8.03,-6.0703 -13.68,-6.0703 -5.58,0 -10.18,2.1601 -13.82,6.2578 -3.65,4.3008 -5.43,10.164 -5.43,17.8242"
         style="fill:#211d1d;fill-opacity:1;fill-rule:nonzero;stroke:none"
         transform="matrix(0.13333333,0,0,-0.13333333,0,1282.3467)" />
      <path
         id="path4"
         d="m 3589.88,149.191 c 0,-17.031 3.62,-30.039 11.06,-39.171 7.52,-9.071 17.24,-13.7583 29.36,-13.7583 10.32,0 19.17,4.6873 26.61,14.0473 7.52,9.371 11.23,22.679 11.23,40.07 0,11.441 -1.56,21.121 -4.69,29.211 -3.1,8.18 -7.53,14.43 -13.16,18.82 -5.8,4.461 -12.41,6.699 -19.99,6.699 -7.88,0 -14.71,-2.238 -20.82,-6.699 -6.16,-4.39 -10.93,-10.789 -14.42,-19.269 -3.48,-8.332 -5.18,-18.289 -5.18,-29.95 z m -2.01,126.969 v -65.262 c 7.63,8.403 15.52,14.711 23.48,19.262 8.02,4.442 17.99,6.59 29.71,6.59 13.63,0 25.52,-3.41 35.78,-10.012 10.24,-6.847 18.2,-16.578 23.85,-29.308 5.68,-12.762 8.49,-27.95 8.49,-45.481 0,-12.937 -1.56,-24.84 -4.69,-35.609 -3.2,-10.781 -7.73,-20.1603 -13.75,-28.1212 -6,-7.8594 -13.3,-13.9493 -21.78,-18.418 -8.61,-4.2305 -18.05,-6.3906 -28.34,-6.3906 -6.22,0 -12.18,0.7304 -17.75,2.3086 -5.58,1.5507 -10.35,3.5507 -14.22,6.2304 -3.85,2.3789 -7.19,5.1328 -9.96,7.8125 -2.73,2.7578 -6.29,6.7696 -10.82,12.1992 v -4.1718 c 0,-8.1094 -1.9,-14.1289 -5.58,-18.3086 -3.72,-4.0782 -8.41,-6.0703 -14.06,-6.0703 -5.88,0 -10.41,1.9921 -13.9,6.0703 -3.44,4.2695 -5.14,10.2812 -5.14,18.3086 V 274.309 c 0,8.632 1.64,15.089 4.97,19.55 3.43,4.45 8.04,6.7 14.07,6.7 6.23,0 11.15,-2.149 14.5,-6.418 3.42,-4.211 5.14,-10.172 5.14,-17.981"
         style="fill:#211d1d;fill-opacity:1;fill-rule:nonzero;stroke:none"
         transform="matrix(0.13333333,0,0,-0.13333333,0,1282.3467)" />
      <path
         id="path5"
         d="M 3738.02,89.3594 V 274.539 c 0,8.641 1.84,15.09 5.44,19.481 3.7,4.289 8.63,6.539 14.77,6.539 6.26,0 11.24,-2.149 15.04,-6.539 3.7,-4.25 5.73,-10.801 5.73,-19.481 V 89.3594 c 0,-8.711 -2.03,-15.25 -5.83,-19.5586 -3.86,-4.2305 -8.82,-6.3906 -14.94,-6.3906 -5.94,0 -10.77,2.2304 -14.57,6.6914 -3.8,4.5078 -5.64,10.8398 -5.64,19.2578"
         style="fill:#211d1d;fill-opacity:1;fill-rule:nonzero;stroke:none"
         transform="matrix(0.13333333,0,0,-0.13333333,0,1282.3467)" />
      <path
         id="path6"
         d="M 3862.18,212.672 V 89.3594 c 0,-8.6406 -2.01,-15.0899 -5.81,-19.4688 -3.94,-4.25 -8.92,-6.4804 -14.88,-6.4804 -6.02,0 -10.84,2.2304 -14.63,6.6093 -3.73,4.5899 -5.65,10.9219 -5.65,19.3399 V 211.488 c 0,8.403 1.92,14.793 5.65,19.024 3.79,4.308 8.61,6.468 14.63,6.468 5.97,0 10.94,-2.16 14.88,-6.468 3.8,-4.231 5.81,-10.172 5.81,-17.84 z m -20.32,44.258 c -5.63,0 -10.46,1.75 -14.62,5.48 -3.94,3.66 -6.03,8.942 -6.03,15.551 0,6.008 2.09,11.008 6.26,14.941 4.06,3.926 8.9,5.789 14.39,5.789 5.31,0 10.05,-1.722 14.14,-5.281 4.1,-3.48 6.18,-8.769 6.18,-15.449 0,-6.609 -2.08,-11.762 -6.03,-15.41 -4.01,-3.711 -8.78,-5.621 -14.29,-5.621"
         style="fill:#211d1d;fill-opacity:1;fill-rule:nonzero;stroke:none"
         transform="matrix(0.13333333,0,0,-0.13333333,0,1282.3467)" />
      <path
         id="path7"
         d="m 4051,116.18 c 0,-5.262 -1.49,-10.918 -4.47,-16.93 -3.11,-6.1094 -7.79,-11.8516 -14.05,-17.3203 -6.23,-5.4492 -14.11,-9.8984 -23.55,-13.1797 -9.52,-3.418 -20.2,-5.0508 -32.05,-5.0508 -25.35,0 -45.04,7.7227 -59.25,23.0391 -14.19,15.4027 -21.26,35.9917 -21.26,61.8637 0,17.468 3.2,33.089 9.67,46.457 6.47,13.382 15.98,23.871 28.17,31.222 12.26,7.36 26.98,11.008 44.07,11.008 10.65,0 20.39,-1.617 29.23,-4.75 8.83,-3.301 16.36,-7.508 22.44,-12.578 6.19,-5.121 10.86,-10.531 14.12,-16.332 3.28,-5.82 4.87,-11.168 4.87,-16.231 0,-5.058 -1.89,-9.339 -5.45,-12.929 -3.71,-3.571 -8.03,-5.34 -13.29,-5.34 -3.43,0 -6.26,1.019 -8.48,2.82 -2.23,1.793 -4.78,4.602 -7.6,8.762 -4.98,7.879 -10.18,13.898 -15.7,17.918 -5.39,3.93 -12.33,6.012 -20.64,6.012 -12.2,0 -21.95,-5.051 -29.29,-14.852 -7.44,-9.957 -11.1,-23.34 -11.1,-40.527 0,-7.961 1.01,-15.453 2.85,-22.153 1.92,-6.757 4.68,-12.418 8.25,-17.23 3.64,-4.75 7.88,-8.348 13.09,-10.7267 5.02,-2.5234 10.69,-3.7929 16.7,-3.7929 8.26,0 15.26,2.0312 21.13,5.9416 5.79,4.039 11,10.121 15.46,18.168 2.53,4.902 5.2,8.609 8.12,11.351 2.89,2.77 6.52,3.961 10.69,3.961 4.97,0 9.14,-1.89 12.4,-5.801 3.29,-4.101 4.92,-8.25 4.92,-12.8"
         style="fill:#211d1d;fill-opacity:1;fill-rule:nonzero;stroke:none"
         transform="matrix(0.13333333,0,0,-0.13333333,0,1282.3467)" />
      <path
         id="path8"
         d="m 4118.42,150.379 c 0,-11.508 1.79,-21.348 5.21,-29.52 3.43,-8.168 8.1,-14.199 14.06,-18.347 6.08,-4.1604 12.6,-6.2503 19.61,-6.2503 7.31,0 13.83,2 19.78,5.8793 5.95,3.941 10.64,9.949 14.27,18.058 3.51,8.02 5.28,18.141 5.28,30.18 0,11.441 -1.77,21.18 -5.28,29.453 -3.63,8.168 -8.39,14.398 -14.41,18.797 -6.04,4.312 -12.65,6.48 -19.85,6.48 -7.44,0 -14.14,-2.238 -20.08,-6.699 -5.88,-4.39 -10.47,-10.789 -13.68,-19.101 -3.26,-8.34 -4.91,-17.829 -4.91,-28.93 z m 80.45,-62.5899 v 4.1718 c -5.52,-6.6211 -10.93,-11.9023 -16.28,-15.9804 -5.28,-4.1602 -11.09,-7.3008 -17.41,-9.461 -6.16,-2.0586 -13.01,-3.1093 -20.35,-3.1093 -9.84,0 -18.97,2.1601 -27.22,6.3906 -8.33,4.4687 -15.62,10.5586 -21.62,18.5898 -6.1,8.0078 -10.78,17.4684 -13.93,28.3084 -3.18,10.84 -4.73,22.52 -4.73,35.25 0,26.68 6.23,47.582 18.71,62.442 12.57,14.949 29.01,22.359 49.29,22.359 11.82,0 21.81,-2.148 29.9,-6.449 8.04,-4.09 15.97,-10.621 23.64,-19.403 v 63.051 c 0,8.762 1.7,15.391 5.04,19.852 3.37,4.508 8.04,6.758 14.27,6.758 6.19,0 10.93,-2.079 14.36,-6.188 3.35,-4.082 5.05,-10.172 5.05,-18.211 V 87.7891 c 0,-8.1797 -1.84,-14.2578 -5.43,-18.3086 -3.64,-4.0782 -8.23,-6.0703 -13.98,-6.0703 -5.49,0 -10.15,1.9921 -13.88,6.2578 -3.56,4.2109 -5.43,10.164 -5.43,18.1211"
         style="fill:#211d1d;fill-opacity:1;fill-rule:nonzero;stroke:none"
         transform="matrix(0.13333333,0,0,-0.13333333,0,1282.3467)" />
      <path
         id="path9"
         d="m 4390.8,150.102 c 0,17.308 -3.7,30.929 -11.06,40.648 -7.36,9.66 -17.26,14.59 -29.58,14.59 -8.04,0 -15,-2.238 -21.2,-6.559 -6.01,-4.383 -10.76,-10.781 -14.04,-19.191 -3.37,-8.391 -4.97,-18.199 -4.97,-29.488 0,-11.161 1.6,-20.891 4.88,-29.231 3.29,-8.332 7.88,-14.73 14,-19.18 6,-4.3707 13.15,-6.6207 21.33,-6.6207 12.32,0 22.22,4.8399 29.58,14.5897 7.36,9.731 11.06,23.231 11.06,40.442 z m 41.06,0 c 0,-12.653 -1.94,-24.403 -5.74,-35.262 -3.8,-10.629 -9.28,-19.84 -16.41,-27.5587 -7.22,-7.8125 -15.84,-13.5313 -25.8,-17.8008 -10.06,-4.0782 -21.34,-6.0703 -33.75,-6.0703 -12.43,0 -23.48,1.9921 -33.48,6.1718 -9.87,4.168 -18.44,10.1797 -25.71,17.9102 -7.21,7.7969 -12.73,16.9378 -16.49,27.5078 -3.72,10.621 -5.58,22.289 -5.58,35.148 0,12.942 1.93,24.782 5.65,35.473 3.86,10.777 9.28,19.938 16.35,27.59 7.15,7.57 15.69,13.449 25.78,17.531 10.12,4.156 21.27,6.238 33.48,6.238 12.41,0 23.62,-2.082 33.75,-6.3 10.02,-4.09 18.67,-10.11 25.86,-17.848 7.21,-7.723 12.71,-16.883 16.42,-27.57 3.8,-10.563 5.67,-22.391 5.67,-35.16"
         style="fill:#211d1d;fill-opacity:1;fill-rule:nonzero;stroke:none"
         transform="matrix(0.13333333,0,0,-0.13333333,0,1282.3467)" />
      <path
         id="path10"
         d="m 4604.71,185.402 c -3.05,-7.273 -4.53,-20 -4.53,-38.371 V 90.3203 c 0,-8.9297 -1.96,-15.7109 -5.88,-20.2187 -3.89,-4.461 -9.09,-6.6914 -15.46,-6.6914 -6.18,0 -11.16,2.2304 -14.96,6.6914 -3.86,4.5078 -5.79,11.289 -5.79,20.2187 v 68.0977 c 0,10.711 -0.38,19.004 -1.11,25.051 -0.69,5.871 -2.62,10.761 -5.67,14.633 -3.05,3.808 -8.02,5.738 -14.64,5.738 -13.36,0 -22.16,-4.77 -26.46,-14.5 -4.24,-9.508 -6.32,-23.34 -6.32,-41.262 V 90.3203 c 0,-8.9297 -1.94,-15.7109 -5.78,-20.0703 -3.86,-4.6094 -8.93,-6.8398 -15.19,-6.8398 -6.26,0 -11.36,2.2304 -15.24,6.8398 -4.02,4.3594 -5.88,11.1406 -5.88,19.9883 V 212.531 c 0,8.039 1.72,14.129 5.21,18.289 3.63,4.172 8.24,6.328 14.06,6.328 5.58,0 10.26,-2.007 14.06,-5.878 3.7,-3.938 5.56,-9.301 5.56,-16.219 v -4.102 c 7.08,8.942 14.71,15.41 22.75,19.563 8.09,4.179 17.16,6.238 26.98,6.238 10.33,0 19.11,-2.148 26.55,-6.449 7.43,-4.16 13.44,-10.699 18.21,-19.352 6.93,8.731 14.35,15.332 22.23,19.512 7.94,4.23 16.64,6.289 26.18,6.289 11.29,0 20.89,-2.148 28.97,-6.852 8.12,-4.578 14.14,-11.117 18.15,-19.738 3.5,-7.738 5.28,-19.871 5.28,-36.418 V 90.3203 c 0,-8.9297 -2,-15.7109 -5.79,-20.2187 -4.04,-4.461 -9.09,-6.6914 -15.53,-6.6914 -6.19,0 -11.26,2.2304 -15.19,6.8398 -3.99,4.3594 -6.01,11.1406 -6.01,20.0703 v 71.8207 c 0,9.211 -0.32,16.55 -1.05,22.07 -0.8,5.578 -2.81,10.187 -6.09,13.988 -3.25,3.711 -8.31,5.641 -15.01,5.641 -5.36,0 -10.5,-1.699 -15.26,-4.981 -4.98,-3.429 -8.71,-7.808 -11.35,-13.457 v 0"
         style="fill:#211d1d;fill-opacity:1;fill-rule:nonzero;stroke:none"
         transform="matrix(0.13333333,0,0,-0.13333333,0,1282.3467)" />
      <path
         id="path11"
         d="m 4836.49,149.262 c -6.09,-2.293 -14.77,-4.762 -26.23,-7.293 -11.44,-2.578 -19.42,-4.449 -23.79,-5.649 -4.37,-1.25 -8.54,-3.558 -12.56,-6.968 -4.02,-3.571 -6.04,-8.481 -6.04,-14.731 0,-6.543 2.4,-12.062 7.08,-16.5702 4.68,-4.5313 10.86,-6.8516 18.42,-6.8516 8.11,0 15.62,1.9414 22.47,5.6719 6.85,3.6289 11.91,8.4689 15.01,14.3279 3.73,6.403 5.64,17.02 5.64,31.973 z m 2.62,-61.8636 c -9.89,-8.0195 -19.49,-14.0468 -28.7,-17.9765 -9.24,-4.0899 -19.64,-6.0117 -31.07,-6.0117 -10.57,0 -19.71,2.1601 -27.67,6.3906 -8.02,4.3086 -14.12,10.2578 -18.44,17.6914 -4.23,7.3672 -6.46,15.3868 -6.46,24.0978 0,11.652 3.65,21.539 10.71,29.879 7.08,8.191 16.79,13.672 29.14,16.57 2.67,0.602 9.15,1.93 19.41,4.102 10.33,2.3 19.12,4.308 26.53,6.078 7.28,1.793 15.32,4.011 23.93,6.613 -0.58,11.316 -2.73,19.566 -6.53,24.93 -3.86,5.179 -11.88,7.777 -23.92,7.777 -10.43,0 -18.23,-1.457 -23.58,-4.527 -5.22,-2.981 -9.67,-7.582 -13.46,-13.672 -3.73,-6.039 -6.32,-9.961 -7.89,-11.918 -1.63,-1.981 -4.9,-2.813 -9.96,-2.813 -4.68,0 -8.61,1.493 -11.89,4.532 -3.41,3.07 -5.13,7.007 -5.13,11.91 0,7.5 2.6,14.789 7.73,21.781 5.06,7.129 13.02,12.938 23.8,17.629 10.76,4.578 24.23,6.828 40.38,6.828 17.98,0 32.1,-2.25 42.42,-6.609 10.29,-4.399 17.48,-11.379 21.72,-21.039 4.3,-9.61 6.45,-22.301 6.45,-38.141 0,-10.02 0,-18.59 -0.07,-25.57 -0.12,-6.989 -0.12,-14.789 -0.28,-23.352 0,-7.957 1.36,-16.437 3.87,-25.0467 2.47,-8.711 3.78,-14.3321 3.78,-16.8125 0,-4.3907 -1.99,-8.379 -5.95,-11.9688 -3.86,-3.5586 -8.32,-5.3398 -13.37,-5.3398 -4.16,0 -8.24,1.9921 -12.49,6.0703 -4.01,4.1797 -8.42,10.1289 -13.01,17.9179"
         style="fill:#211d1d;fill-opacity:1;fill-rule:nonzero;stroke:none"
         transform="matrix(0.13333333,0,0,-0.13333333,0,1282.3467)" />
      <path
         id="path12"
         d="M 4959.16,212.672 V 89.3594 c 0,-8.6406 -2,-15.0899 -5.86,-19.4688 -3.87,-4.25 -8.87,-6.4804 -14.79,-6.4804 -6.03,0 -10.94,2.2304 -14.66,6.6093 -3.8,4.5899 -5.63,10.9219 -5.63,19.3399 V 211.488 c 0,8.403 1.84,14.793 5.63,19.024 3.72,4.308 8.63,6.468 14.66,6.468 5.92,0 10.92,-2.16 14.79,-6.468 3.86,-4.231 5.86,-10.172 5.86,-17.84 z m -20.3,44.258 c -5.64,0 -10.46,1.75 -14.56,5.48 -4.02,3.66 -6.08,8.942 -6.08,15.551 0,6.008 2.06,11.008 6.31,14.941 4.08,3.926 8.92,5.789 14.33,5.789 5.29,0 10.06,-1.722 14.12,-5.281 4.1,-3.48 6.18,-8.769 6.18,-15.449 0,-6.609 -2,-11.762 -6.03,-15.41 -4.01,-3.711 -8.75,-5.621 -14.27,-5.621"
         style="fill:#211d1d;fill-opacity:1;fill-rule:nonzero;stroke:none"
         transform="matrix(0.13333333,0,0,-0.13333333,0,1282.3467)" />
      <path
         id="path13"
         d="m 5038.64,213.352 v -5.133 c 7.14,9.883 15,17.172 23.55,21.793 8.57,4.59 18.29,6.968 29.53,6.968 10.69,0 20.35,-2.378 28.92,-7.421 8.4,-4.829 14.87,-11.75 19.03,-20.668 2.68,-5.262 4.39,-10.93 5.19,-16.93 0.74,-6.043 1.27,-13.781 1.27,-23.141 V 89.3594 c 0,-8.6406 -2.01,-15.0899 -5.66,-19.4688 -3.77,-4.25 -8.68,-6.4804 -14.63,-6.4804 -6.04,0 -10.99,2.2304 -14.72,6.6914 -3.8,4.5078 -5.8,10.8398 -5.8,19.2578 v 71.0426 c 0,14.207 -1.79,25 -5.49,32.43 -3.86,7.438 -11.39,11.148 -22.62,11.148 -7.21,0 -13.82,-2.242 -19.84,-6.832 -6.02,-4.457 -10.42,-10.726 -13.17,-18.668 -2.01,-6.32 -3.03,-18.199 -3.03,-35.742 V 89.3594 c 0,-8.711 -1.93,-15.25 -5.81,-19.5586 -3.87,-4.2305 -8.85,-6.3906 -14.86,-6.3906 -5.86,0 -10.79,2.2304 -14.57,6.6093 -3.88,4.5899 -5.72,10.9219 -5.72,19.3399 l -0.01,123.3126 c 0,8.258 1.71,14.207 5.13,18.289 3.36,4.031 8.11,6.019 13.99,6.019 3.55,0 6.83,-0.96 9.65,-2.671 2.97,-1.7 5.22,-4.45 7.01,-7.95 1.7,-3.558 2.66,-7.879 2.66,-13.007"
         style="fill:#211d1d;fill-opacity:1;fill-rule:nonzero;stroke:none"
         transform="matrix(0.13333333,0,0,-0.13333333,0,1282.3467)" />
      <path
         id="path14"
         d="m 5211.77,210.371 33.09,-96.953 35.68,101.184 c 2.83,8.199 5.58,13.839 8.26,17.339 2.75,3.34 6.83,5.039 12.25,5.039 5.22,0 9.68,-1.839 13.4,-5.492 3.57,-3.629 5.43,-7.808 5.43,-12.707 0,-1.859 -0.39,-4.011 -1.05,-6.472 -0.6,-2.539 -1.33,-4.911 -2.23,-7.149 -0.82,-2.148 -1.72,-4.68 -2.9,-7.41 L 5274.46,96.0508 c -1.13,-2.9102 -2.61,-6.6914 -4.33,-11.1602 -1.77,-4.4804 -3.69,-8.1992 -5.79,-11.539 -2.22,-3.1016 -4.84,-5.5625 -7.95,-7.3399 -3.2,-1.7929 -7.06,-2.6015 -11.53,-2.6015 -5.8,0 -10.41,1.3281 -13.92,4.0898 -3.46,2.75 -6.02,5.7188 -7.63,9.0508 -1.63,3.2812 -4.37,9.7383 -8.34,19.5 l -38.95,100.5582 c -0.97,2.461 -1.84,5 -2.9,7.532 -0.87,2.429 -1.56,4.961 -2.31,7.668 -0.6,2.582 -0.95,4.8 -0.95,6.671 0,2.969 0.8,5.872 2.52,8.7 1.7,2.91 4.16,5.261 7.06,7.058 3.05,1.782 6.24,2.742 9.81,2.742 6.77,0 11.39,-1.988 13.96,-6.16 2.55,-4.011 5.44,-10.859 8.56,-20.449"
         style="fill:#211d1d;fill-opacity:1;fill-rule:nonzero;stroke:none"
         transform="matrix(0.13333333,0,0,-0.13333333,0,1282.3467)" />
      <path
         id="path15"
         d="m 5379.19,163.988 h 74.2 c -0.95,14.571 -4.77,25.492 -11.38,32.711 -6.54,7.192 -15.17,10.84 -25.78,10.84 -10.21,0 -18.6,-3.648 -25.14,-10.988 -6.54,-7.281 -10.46,-18.211 -11.9,-32.563 z m 80.08,-24.226 h -80.08 c 0,-9.821 1.94,-18.293 5.5,-25.801 3.81,-7.301 8.62,-12.879 14.65,-16.6407 6.01,-3.8008 12.71,-5.668 20.01,-5.668 4.91,0 9.35,0.5977 13.43,1.7774 4.04,1.2695 7.98,3.1211 11.85,5.6523 3.71,2.527 7.13,5.199 10.39,8.27 3.13,2.91 7.43,6.769 12.42,11.8 2.15,1.938 5.14,2.828 9,2.828 4.24,0 7.64,-1.109 10.19,-3.562 2.67,-2.379 3.94,-5.797 3.94,-10.098 0,-3.89 -1.49,-8.4098 -4.39,-13.6208 -2.9,-5.1289 -7.22,-10.1094 -13.09,-14.8672 -5.86,-4.7734 -13.24,-8.6328 -22.06,-11.832 -8.78,-3.1094 -18.91,-4.5898 -30.48,-4.5898 -26.34,0 -46.79,7.789 -61.26,23.3281 -14.59,15.7737 -21.87,36.9417 -21.87,63.6407 0,12.793 1.78,24.453 5.36,35.18 3.65,10.839 8.83,20.14 15.76,27.793 6.82,7.73 15.31,13.738 25.42,17.777 10.18,4.152 21.32,6.16 33.67,6.16 15.86,0 29.6,-3.488 41.05,-10.551 11.43,-7.058 20.06,-16.047 25.71,-27.207 5.73,-11.23 8.56,-22.539 8.56,-34.199 0,-10.723 -2.9,-17.703 -8.78,-20.832 -6.02,-3.199 -14.19,-4.738 -24.9,-4.738"
         style="fill:#211d1d;fill-opacity:1;fill-rule:nonzero;stroke:none"
         transform="matrix(0.13333333,0,0,-0.13333333,0,1282.3467)" />
      <path
         id="path16"
         d="m 5674.26,116.18 c 0,-5.262 -1.55,-10.918 -4.62,-16.93 -3.12,-6.1094 -7.65,-11.8516 -13.98,-17.3203 -6.16,-5.4492 -14.1,-9.8984 -23.63,-13.1797 -9.44,-3.418 -20.23,-5.0508 -32.04,-5.0508 -25.35,0 -45.04,7.7227 -59.18,23.0391 -14.17,15.4027 -21.32,35.9917 -21.32,61.8637 0,17.468 3.21,33.089 9.73,46.468 6.54,13.371 15.84,23.86 28.16,31.211 12.28,7.36 27,11.008 44.08,11.008 10.65,0 20.32,-1.609 29.22,-4.75 8.79,-3.301 16.31,-7.508 22.45,-12.578 6.19,-5.121 10.88,-10.531 14.13,-16.332 3.21,-5.82 4.85,-11.168 4.85,-16.231 0,-5.058 -1.79,-9.339 -5.59,-12.929 -3.56,-3.571 -7.94,-5.34 -13.15,-5.34 -3.43,0 -6.25,1.019 -8.4,2.82 -2.31,1.793 -4.82,4.602 -7.66,8.762 -4.98,7.879 -10.19,13.898 -15.6,17.918 -5.52,3.93 -12.43,6.012 -20.82,6.012 -12.04,0 -21.86,-5.051 -29.22,-14.852 -7.42,-9.957 -11.08,-23.34 -11.08,-40.527 0,-7.961 0.97,-15.453 2.82,-22.153 1.93,-6.757 4.7,-12.418 8.26,-17.23 3.63,-4.75 7.96,-8.348 13.1,-10.7267 4.96,-2.5234 10.62,-3.7929 16.69,-3.7929 8.19,0 15.34,2.0312 21.13,5.9416 5.79,4.039 11,10.121 15.54,18.168 2.45,4.902 5.21,8.609 8.11,11.351 2.81,2.77 6.38,3.961 10.63,3.961 4.91,0 9.13,-1.89 12.32,-5.801 3.37,-4.101 5.07,-8.25 5.07,-12.8"
         style="fill:#211d1d;fill-opacity:1;fill-rule:nonzero;stroke:none"
         transform="matrix(0.13333333,0,0,-0.13333333,0,1282.3467)" />
      <path
         id="path17"
         d="m 5712.25,233.34 h 4.54 v 25.742 c 0,6.75 0.13,12.27 0.51,16.199 0.38,3.86 1.27,7.211 2.91,10.039 1.55,2.899 3.93,5.282 6.91,7.11 2.96,1.8 6.31,2.679 10.03,2.679 5.14,0 9.88,-2.058 14.05,-6.007 2.75,-2.821 4.53,-6.102 5.26,-9.961 0.85,-3.86 1.14,-9.512 1.14,-16.731 v -29.07 h 15.09 c 5.79,0 10.19,-1.399 13.24,-4.309 3.11,-2.82 4.6,-6.472 4.6,-10.929 0,-5.793 -2.17,-9.883 -6.6,-12.09 -4.25,-2.25 -10.49,-3.453 -18.61,-3.453 h -7.72 v -78.637 c 0,-6.703 0.21,-11.832 0.74,-15.461 0.46,-3.652 1.72,-6.539 3.65,-8.6915 1.94,-2.3203 5.05,-3.5078 9.53,-3.5078 2.37,0 5.56,0.4492 9.73,1.4102 4.01,0.8086 7.21,1.2578 9.57,1.2578 3.3,0 6.32,-1.3984 8.92,-4.0703 2.6,-2.7578 3.94,-6.1875 3.94,-10.2696 0,-6.8398 -3.48,-12.1289 -10.69,-15.7695 -7.38,-3.6289 -17.62,-5.4101 -31.08,-5.4101 -12.78,0 -22.52,2.2304 -29.13,6.6914 -6.56,4.5078 -10.92,10.6172 -12.95,18.6484 -2.08,7.9609 -3.04,18.531 -3.04,31.73 v 82.079 h -5.51 c -5.8,0 -10.28,1.421 -13.38,4.402 -3.12,2.918 -4.7,6.609 -4.7,11.141 0,4.457 1.65,8.109 4.86,10.929 3.26,2.91 8.02,4.309 14.19,4.309"
         style="fill:#211d1d;fill-opacity:1;fill-rule:nonzero;stroke:none"
         transform="matrix(0.13333333,0,0,-0.13333333,0,1282.3467)" />
      <path
         id="path18"
         d="m 5930.74,150.102 c 0,17.308 -3.73,30.929 -11,40.648 -7.44,9.66 -17.24,14.59 -29.67,14.59 -7.94,0 -15,-2.238 -21.11,-6.559 -6.09,-4.383 -10.77,-10.781 -14.03,-19.191 -3.39,-8.391 -5,-18.199 -5,-29.488 0,-11.161 1.61,-20.891 4.89,-29.231 3.29,-8.332 7.89,-14.73 13.91,-19.18 6.02,-4.3707 13.1,-6.6207 21.34,-6.6207 12.43,0 22.23,4.8399 29.67,14.5897 7.27,9.731 11,23.231 11,40.442 z m 41.11,0 c 0,-12.653 -1.93,-24.403 -5.8,-35.262 -3.71,-10.629 -9.29,-19.84 -16.44,-27.5587 -7.19,-7.8125 -15.82,-13.5313 -25.79,-17.8008 -9.95,-4.0782 -21.12,-6.0703 -33.75,-6.0703 -12.4,0 -23.57,1.9921 -33.44,6.1718 -9.83,4.168 -18.44,10.1797 -25.67,17.9102 -7.18,7.7969 -12.71,16.9378 -16.4,27.5078 -3.82,10.621 -5.66,22.289 -5.66,35.148 0,12.942 1.84,24.782 5.66,35.473 3.86,10.777 9.23,19.938 16.32,27.59 7.16,7.57 15.7,13.449 25.75,17.531 10.25,4.156 21.34,6.238 33.44,6.238 12.43,0 23.65,-2.082 33.75,-6.3 10.13,-4.09 18.73,-10.11 25.95,-17.848 7.14,-7.723 12.7,-16.883 16.43,-27.57 3.72,-10.563 5.65,-22.391 5.65,-35.16"
         style="fill:#211d1d;fill-opacity:1;fill-rule:nonzero;stroke:none"
         transform="matrix(0.13333333,0,0,-0.13333333,0,1282.3467)" />
      <path
         id="path19"
         d="M 6044.7,124.879 V 89.3594 c 0,-8.711 -1.94,-15.25 -5.79,-19.5586 -3.96,-4.2305 -8.92,-6.3906 -14.88,-6.3906 -5.87,0 -10.78,2.2304 -14.56,6.4804 -3.78,4.3789 -5.66,10.8282 -5.66,19.4688 V 208.219 c 0,19.191 6.61,28.761 19.94,28.761 6.68,0 11.66,-2.289 14.72,-6.679 2.97,-4.531 4.52,-11.149 4.9,-19.93 4.89,8.781 9.96,15.399 15.09,19.93 5.11,4.39 11.95,6.679 20.51,6.679 8.7,0 16.95,-2.289 25.14,-6.679 8.04,-4.531 12.19,-10.481 12.19,-17.903 0,-5.23 -1.87,-9.527 -5.28,-12.867 -3.36,-3.371 -7.13,-5.133 -11.14,-5.133 -1.52,0 -5.16,1.032 -10.94,2.973 -5.72,1.93 -10.78,2.899 -15.25,2.899 -5.94,0 -10.86,-1.641 -14.57,-4.981 -3.8,-3.328 -6.76,-8.098 -8.85,-14.578 -2.15,-6.531 -3.64,-14.199 -4.37,-23.191 -0.75,-8.84 -1.2,-19.7 -1.2,-32.641"
         style="fill:#211d1d;fill-opacity:1;fill-rule:nonzero;stroke:none"
         transform="matrix(0.13333333,0,0,-0.13333333,0,1282.3467)" />
      <path
         id="path20"
         d="m 6262.67,119.152 c 0,-11.8 -2.67,-21.8317 -8.25,-30.3317 -5.56,-8.4101 -13.69,-14.7109 -24.38,-19.0195 -10.79,-4.2305 -23.79,-6.3906 -39.26,-6.3906 -14.62,0 -27.26,2.3086 -37.84,6.9687 -10.49,4.6797 -18.22,10.5625 -23.18,17.5625 -4.98,7.0586 -7.58,14.0506 -7.58,21.1796 0,4.68 1.63,8.688 4.89,11.969 3.2,3.422 7.24,5.051 12.13,5.051 4.32,0 7.56,-1.11 9.89,-3.262 2.37,-2.231 4.45,-5.348 6.61,-9.207 4.22,-7.66 9.21,-13.383 15.1,-17.1212 5.79,-3.7891 13.82,-5.6524 23.91,-5.6524 8.2,0 14.88,1.9532 20.15,5.7305 5.22,3.7811 7.98,8.1801 7.98,13.0311 0,7.559 -2.84,13.07 -8.19,16.422 -5.51,3.559 -14.41,6.809 -27,9.879 -14.03,3.73 -25.56,7.59 -34.41,11.519 -8.86,4.11 -15.98,9.379 -21.27,15.918 -5.26,6.532 -7.95,14.661 -7.95,24.223 0,8.641 2.47,16.738 7.37,24.25 4.9,7.641 12.19,13.738 21.7,18.289 9.53,4.531 21.04,6.82 34.57,6.82 10.65,0 20.14,-1.179 28.62,-3.421 8.41,-2.289 15.56,-5.411 21.12,-9.207 5.65,-3.942 9.97,-8.192 12.85,-12.864 3.05,-4.75 4.48,-9.297 4.48,-13.738 0,-4.918 -1.58,-8.859 -4.76,-12.129 -3.12,-2.98 -7.66,-4.59 -13.39,-4.59 -4.23,0 -7.72,1.18 -10.79,3.778 -2.9,2.453 -6.31,6.242 -10.11,11.14 -3.03,4.18 -6.7,7.492 -10.9,10.063 -4.27,2.429 -9.9,3.758 -17.12,3.758 -7.36,0 -13.6,-1.629 -18.43,-4.961 -4.91,-3.289 -7.37,-7.379 -7.37,-12.278 0,-4.531 1.79,-8.172 5.34,-11.051 3.65,-2.851 8.49,-5.218 14.59,-7.152 6.18,-1.867 14.57,-4.18 25.2,-6.918 12.71,-3.191 23.13,-7.008 31.15,-11.519 8.03,-4.481 14.14,-9.75 18.27,-15.911 4.25,-6.101 6.26,-13.011 6.26,-20.828"
         style="fill:#211d1d;fill-opacity:1;fill-rule:nonzero;stroke:none"
         transform="matrix(0.13333333,0,0,-0.13333333,0,1282.3467)" />
      <path
         id="path21"
         d="m 6309.2,63.4102 c -6.23,0 -11.59,1.9921 -16.04,6.1718 -4.55,4.168 -6.77,10.0274 -6.77,17.5391 0,6.3203 2.08,11.8086 6.38,16.3399 4.24,4.617 9.62,6.848 15.91,6.848 6.25,0 11.68,-2.231 15.99,-6.758 4.53,-4.469 6.79,-10.0315 6.79,-16.4299 0,-7.4414 -2.26,-13.2422 -6.79,-17.4531 -4.31,-4.2657 -9.5,-6.2578 -15.47,-6.2578"
         style="fill:#211d1d;fill-opacity:1;fill-rule:nonzero;stroke:none"
         transform="matrix(0.13333333,0,0,-0.13333333,0,1282.3467)" />
      <path
         id="path22"
         d="m 6490.15,150.102 c 0,17.308 -3.7,30.929 -11.07,40.648 -7.36,9.66 -17.19,14.59 -29.59,14.59 -7.95,0 -14.94,-2.238 -21.03,-6.559 -6.18,-4.383 -10.85,-10.781 -14.13,-19.191 -3.27,-8.391 -4.92,-18.199 -4.92,-29.488 0,-11.161 1.59,-20.891 4.84,-29.231 3.28,-8.332 7.89,-14.73 13.97,-19.18 6.03,-4.3707 13.18,-6.6207 21.27,-6.6207 12.4,0 22.23,4.8399 29.59,14.5897 7.37,9.731 11.07,23.231 11.07,40.442 z m 41.12,0 c 0,-12.653 -1.86,-24.403 -5.8,-35.262 -3.78,-10.629 -9.21,-19.84 -16.43,-27.5587 -7.22,-7.8125 -15.68,-13.5313 -25.79,-17.8008 -9.96,-4.0782 -21.19,-6.0703 -33.76,-6.0703 -12.34,0 -23.48,1.9921 -33.38,6.1718 -9.89,4.168 -18.42,10.1797 -25.65,17.9102 -7.34,7.7969 -12.77,16.9378 -16.57,27.5078 -3.69,10.621 -5.58,22.289 -5.58,35.148 0,12.942 1.89,24.782 5.65,35.473 3.96,10.777 9.22,19.938 16.37,27.59 7.06,7.57 15.67,13.449 25.78,17.531 10.11,4.156 21.18,6.238 33.38,6.238 12.4,0 23.64,-2.082 33.76,-6.3 10.11,-4.09 18.75,-10.11 25.95,-17.848 7.19,-7.723 12.62,-16.883 16.48,-27.57 3.73,-10.563 5.59,-22.391 5.59,-35.16"
         style="fill:#211d1d;fill-opacity:1;fill-rule:nonzero;stroke:none"
         transform="matrix(0.13333333,0,0,-0.13333333,0,1282.3467)" />
      <path
         id="path23"
         d="M 6604.13,124.879 V 89.3594 c 0,-8.711 -1.93,-15.25 -5.81,-19.5586 -3.87,-4.2305 -8.83,-6.3906 -14.79,-6.3906 -6.03,0 -10.78,2.2304 -14.64,6.4804 -3.8,4.3789 -5.63,10.8282 -5.63,19.4688 V 208.219 c 0,19.191 6.68,28.761 19.9,28.761 6.85,0 11.68,-2.289 14.66,-6.679 2.96,-4.531 4.75,-11.149 5.05,-19.93 4.83,8.781 9.81,15.399 14.93,19.93 5.22,4.39 12.13,6.679 20.59,6.679 8.78,0 17.11,-2.289 25.14,-6.679 8.02,-4.531 12.18,-10.481 12.18,-17.903 0,-5.23 -1.77,-9.527 -5.19,-12.867 -3.5,-3.371 -7.14,-5.133 -11.22,-5.133 -1.49,0 -5.07,1.032 -10.8,2.973 -5.79,1.93 -10.84,2.899 -15.31,2.899 -5.92,0 -10.84,-1.641 -14.7,-4.981 -3.73,-3.328 -6.71,-8.098 -8.78,-14.578 -2.09,-6.531 -3.58,-14.199 -4.4,-23.191 -0.75,-8.84 -1.18,-19.7 -1.18,-32.641"
         style="fill:#211d1d;fill-opacity:1;fill-rule:nonzero;stroke:none"
         transform="matrix(0.13333333,0,0,-0.13333333,0,1282.3467)" />
      <path
         id="path24"
         d="m 6722.33,151.59 c 0,-17.328 3.57,-30.43 10.84,-39.352 7.22,-8.777 16.66,-13.3083 28.05,-13.3083 6.75,0 13.29,2.0193 19.31,5.8003 6.02,3.872 11,9.52 14.78,17.211 3.82,7.7 5.67,17 5.67,27.938 0,17.391 -3.73,30.91 -11.01,40.66 -7.34,9.731 -17.02,14.57 -28.97,14.57 -11.68,0 -21.05,-4.699 -28.04,-13.91 -7.13,-9.371 -10.63,-22.539 -10.63,-39.609 z m 118.57,54.109 V 81.6094 c 0,-14.1875 -1.54,-26.461 -4.38,-36.5586 -2.9,-10.3399 -7.59,-18.7422 -13.9,-25.4492 -6.4,-6.5899 -14.9,-11.58988 -25.14,-14.87113 C 6787.16,1.62891 6774.3,0 6758.91,0 c -14.14,0 -26.76,1.99219 -37.78,6.08203 -11.15,4.23827 -19.69,9.43747 -25.63,16.06637 -6.01,6.4532 -9.07,13.1602 -9.07,20.0508 0,5.3125 1.7,9.5313 5.12,12.8125 3.42,3.2578 7.5,4.9805 12.28,4.9805 6.01,0 11.21,-2.832 15.76,-8.332 2.23,-2.9102 4.51,-5.7305 6.84,-8.5391 2.28,-2.9102 4.9,-5.3594 7.8,-7.3789 2.81,-2.082 6.33,-3.5508 10.32,-4.6016 3.87,-0.9609 8.57,-1.4804 13.76,-1.4804 10.56,0 18.89,1.6211 24.68,4.6796 5.8,3.0508 9.88,7.3516 12.27,12.7813 2.31,5.5781 3.78,11.4609 4.02,17.7695 0.51,6.3907 0.73,16.5078 1.03,30.4688 -6.33,-9.0703 -13.67,-16.1289 -21.85,-20.8789 -8.18,-4.8125 -18.07,-7.1407 -29.36,-7.1407 -13.85,0 -25.8,3.5782 -35.99,10.9415 -10.26,7.2773 -18.14,17.4492 -23.62,30.7187 -5.45,12.98 -8.26,28.219 -8.26,45.469 0,12.871 1.61,24.461 5.03,34.801 3.28,10.261 8.05,18.949 14.37,26.082 6.08,7.058 13.32,12.41 21.4,16.058 8.1,3.582 16.88,5.34 26.68,5.34 11.53,0 21.64,-2.281 30.12,-6.961 8.54,-4.629 16.36,-11.98 23.63,-21.848 v 5.789 c 0,7.43 1.86,13.079 5.26,17.329 3.52,3.98 8.05,6.089 13.48,6.089 7.96,0 13.24,-2.679 15.84,-8.117 2.53,-5.351 3.86,-13.152 3.86,-23.332"
         style="fill:#211d1d;fill-opacity:1;fill-rule:nonzero;stroke:none"
         transform="matrix(0.13333333,0,0,-0.13333333,0,1282.3467)" />
      <path
         id="path25"
         d="m 5067.19,621.652 h 60.74 c -4.32,-32.8 -17.69,-58.312 -40.08,-76.66 -20.66,-18.062 -45.66,-26.89 -74.86,-26.89 -39.62,0 -71.21,13.867 -94.86,41.679 -22.38,26.461 -33.58,60.59 -33.58,102.278 0,42.691 11.12,76.882 33.29,102.773 22.07,25.707 53.45,38.648 93.82,38.648 30.08,0 55.53,-8.109 76.19,-24.23 21.94,-17.488 35.31,-42.02 40.08,-73.391 h -60.74 c -5.2,27.371 -22.02,41.063 -50.47,41.063 -46.92,0 -70.41,-27.832 -70.41,-83.422 0,-26.109 6,-47.371 18.13,-63.949 12.06,-16.641 29.08,-24.981 51.02,-24.981 32.7,0 49.93,15.7 51.73,47.082 z m -239.01,38.258 c 0,-54.34 17.24,-100.359 51.66,-137.742 34.4,-37.539 76.58,-56.27 126.62,-56.27 49.8,0 92.02,18.731 126.45,56.27 34.4,37.383 51.58,83.402 51.58,137.742 0,54.281 -17.18,100.219 -51.58,137.692 -34.42,37.558 -76.65,56.277 -126.45,56.277 -50.04,0 -92.22,-18.719 -126.62,-56.277 -34.42,-37.473 -51.66,-83.411 -51.66,-137.692 z m -61.64,0 c 0,69.149 23.42,128.102 70.26,177.18 46.84,48.898 103.41,73.351 169.66,73.351 66.16,0 122.58,-24.453 169.56,-73.351 46.84,-49.078 70.33,-108.031 70.33,-177.18 0,-69.121 -23.49,-128.211 -70.33,-177.211 -46.98,-48.929 -103.4,-73.469 -169.56,-73.469 -66.24,0 -122.82,24.54 -169.64,73.469 -46.86,49 -70.28,108.09 -70.28,177.211"
         style="fill:#211d1d;fill-opacity:1;fill-rule:nonzero;stroke:none"
         transform="matrix(0.13333333,0,0,-0.13333333,0,1282.3467)" />
      <path
         id="path26"
         d="m 4863.64,502.781 34.93,-29.691 257.31,330.39 -34.94,29.668 -257.3,-330.367"
         style="fill:#211d1d;fill-opacity:1;fill-rule:nonzero;stroke:none"
         transform="matrix(0.13333333,0,0,-0.13333333,0,1282.3467)" />
      <path
         id="path27"
         d="M 2744.23,4654.53 H 9875.07 V 9617.6 H 2744.23 V 4654.53"
         style="fill:#8e969f;fill-opacity:1;fill-rule:evenodd;stroke:none"
         transform="matrix(0.13333333,0,0,-0.13333333,0,1282.3467)" />
      <path
         id="path28"
         d="M 2744.23,8733.38 H 9875.07 V 8857 H 2744.23 v -123.62"
         style="fill:#7d8892;fill-opacity:1;fill-rule:evenodd;stroke:none"
         transform="matrix(0.13333333,0,0,-0.13333333,0,1282.3467)" />
      <path
         id="path29"
         d="M 2744.23,8856.96 H 9875.07 V 9617.6 H 2744.23 v -760.64"
         style="fill:#bbc0c6;fill-opacity:1;fill-rule:evenodd;stroke:none"
         transform="matrix(0.13333333,0,0,-0.13333333,0,1282.3467)" />
      <path
         id="path30"
         d="m 2976.16,9059.01 h 356.56 v 356.56 h -356.56 v -356.56"
         style="fill:#f78d9f;fill-opacity:1;fill-rule:evenodd;stroke:none"
         transform="matrix(0.13333333,0,0,-0.13333333,0,1282.3467)" />
      <path
         id="path31"
         d="m 3372.29,9059.01 h 356.57 v 356.56 h -356.57 v -356.56"
         style="fill:#fabd1f;fill-opacity:1;fill-rule:evenodd;stroke:none"
         transform="matrix(0.13333333,0,0,-0.13333333,0,1282.3467)" />
      <path
         id="path32"
         d="m 3768.47,9059.01 h 356.56 v 356.56 h -356.56 v -356.56"
         style="fill:#b7d8f2;fill-opacity:1;fill-rule:evenodd;stroke:none"
         transform="matrix(0.13333333,0,0,-0.13333333,0,1282.3467)" />
      <path
         id="path33"
         d="M 0,1976.68 H 8018.78 V 7557.75 H 0 V 1976.68"
         style="fill:#464e58;fill-opacity:1;fill-rule:evenodd;stroke:none"
         transform="matrix(0.13333333,0,0,-0.13333333,0,1282.3467)" />
      <path
         id="path34"
         d="m 0,6702.41 h 8018.78 v 855.34 H 0 v -855.34"
         style="fill:#616b76;fill-opacity:1;fill-rule:evenodd;stroke:none"
         transform="matrix(0.13333333,0,0,-0.13333333,0,1282.3467)" />
      <path
         id="path35"
         d="m 0,6563.41 h 8018.78 v 138.98 H 0 v -138.98"
         style="fill:#434a52;fill-opacity:1;fill-rule:evenodd;stroke:none"
         transform="matrix(0.13333333,0,0,-0.13333333,0,1282.3467)" />
      <path
         id="path36"
         d="m 295.691,6384.35 c 26.555,0 48.137,-21.58 48.137,-48.14 0,-26.55 -21.582,-48.13 -48.137,-48.13 -26.55,0 -48.101,21.58 -48.101,48.13 0,26.56 21.551,48.14 48.101,48.14 z m 0,-4001.72 c 26.555,0 48.125,-21.54 48.125,-48.1 0,-26.59 -21.57,-48.13 -48.125,-48.13 -26.558,0 -48.101,21.54 -48.101,48.13 0,26.56 21.543,48.1 48.101,48.1 z m 0,250.1 c 26.555,0 48.125,-21.55 48.125,-48.1 0,-26.59 -21.57,-48.1 -48.125,-48.1 -26.558,0 -48.101,21.51 -48.101,48.1 0,26.55 21.543,48.1 48.101,48.1 z m 0,250.09 c 26.555,0 48.125,-21.54 48.125,-48.09 0,-26.55 -21.57,-48.11 -48.125,-48.11 -26.558,0 -48.101,21.56 -48.101,48.11 0,26.55 21.543,48.09 48.101,48.09 z m 0,250.14 c 26.555,0 48.125,-21.54 48.125,-48.13 0,-26.56 -21.57,-48.1 -48.125,-48.1 -26.558,0 -48.101,21.54 -48.101,48.1 0,26.59 21.543,48.13 48.101,48.13 z m 0,250.1 c 26.555,0 48.137,-21.54 48.125,-48.14 0,-26.55 -21.57,-48.09 -48.125,-48.09 -26.558,0 -48.101,21.54 -48.101,48.09 0,26.6 21.543,48.14 48.101,48.14 z m 0,250.1 c 26.555,0 48.137,-21.55 48.137,-48.1 0,-26.59 -21.582,-48.13 -48.137,-48.13 -26.558,0 -48.101,21.54 -48.101,48.13 0,26.55 21.543,48.1 48.101,48.1 z m 0,250.09 c 26.555,0 48.137,-21.54 48.137,-48.09 0,-26.59 -21.582,-48.11 -48.137,-48.11 -26.558,0 -48.101,21.52 -48.101,48.11 0,26.55 21.543,48.09 48.101,48.09 z m 0,250.1 c 26.555,0 48.137,-21.54 48.137,-48.09 0,-26.56 -21.582,-48.1 -48.137,-48.1 -26.558,0 -48.101,21.54 -48.101,48.1 0,26.55 21.543,48.09 48.101,48.09 z m 0,500.24 c 26.555,0 48.137,-21.55 48.137,-48.1 0,-26.59 -21.582,-48.1 -48.137,-48.1 -26.558,0 -48.101,21.51 -48.101,48.1 0,26.55 21.543,48.1 48.101,48.1 z m 0,250.09 c 26.555,0 48.137,-21.54 48.137,-48.09 0,-26.59 -21.582,-48.11 -48.137,-48.11 -26.558,0 -48.101,21.52 -48.101,48.11 0,26.55 21.543,48.09 48.101,48.09 z m 0,250.1 c 26.555,0 48.137,-21.5 48.137,-48.09 0,-26.6 -21.582,-48.11 -48.137,-48.11 -26.558,0 -48.101,21.51 -48.101,48.11 0,26.59 21.543,48.09 48.101,48.09 z m 0,250.1 c 26.555,0 48.137,-21.5 48.137,-48.1 0,-26.59 -21.582,-48.09 -48.137,-48.09 -26.558,0 -48.101,21.5 -48.101,48.09 0,26.6 21.543,48.1 48.101,48.1 z m 0,250.1 c 26.555,0 48.137,-21.51 48.137,-48.1 0,-26.55 -21.582,-48.09 -48.137,-48.09 -26.558,0 -48.101,21.54 -48.101,48.09 0,26.59 21.543,48.1 48.101,48.1 z m 0,250.13 c 26.555,0 48.137,-21.54 48.137,-48.13 0,-26.55 -21.582,-48.1 -48.137,-48.1 -26.558,0 -48.101,21.55 -48.101,48.1 0,26.59 21.543,48.13 48.101,48.13 z m 0,-1500.62 c 26.555,0 48.137,-21.58 48.137,-48.14 0,-26.55 -21.582,-48.09 -48.137,-48.09 -26.558,0 -48.101,21.54 -48.101,48.09 0,26.56 21.543,48.14 48.101,48.14 z m 0,1750.72 c 26.555,0 48.137,-21.54 48.137,-48.09 0,-26.57 -21.582,-48.14 -48.137,-48.14 -26.55,0 -48.101,21.57 -48.101,48.14 0,26.55 21.551,48.09 48.101,48.09 v 0"
         style="fill:#9ac421;fill-opacity:1;fill-rule:evenodd;stroke:none"
         transform="matrix(0.13333333,0,0,-0.13333333,0,1282.3467)" />
      <path
         id="path37"
         d="m 958.176,4394.17 c 257.894,0 515.784,0 773.714,0 0,-39.23 0,-78.41 0,-117.6 -257.93,0 -515.82,0 -773.714,0 0,39.19 0,78.37 0,117.6 z m 0,-1000.43 c 257.894,0 515.784,0 773.714,0 0,-39.19 0,-78.41 0,-117.6 -257.93,0 -515.82,0 -773.714,0 0,39.19 0,78.41 0,117.6 z m 0,1500.67 H 1731.89 V 4776.77 H 958.176 v 117.64 0"
         style="fill:#f68656;fill-opacity:1;fill-rule:evenodd;stroke:none"
         transform="matrix(0.13333333,0,0,-0.13333333,0,1282.3467)" />
      <path
         id="path38"
         d="M 958.176,6144.89 H 1731.89 V 6027.33 H 958.176 v 117.56"
         style="fill:#f68656;fill-opacity:1;fill-rule:evenodd;stroke:none"
         transform="matrix(0.13333333,0,0,-0.13333333,0,1282.3467)" />
      <path
         id="path39"
         d="m 2437.57,2893.55 h 2505.27 c 0,-39.23 0,-78.42 0,-117.64 H 2437.57 Z M 532.949,6394.99 H 5193.32 V 6277.42 H 532.949 v 117.57 0"
         style="fill:#c0e365;fill-opacity:1;fill-rule:evenodd;stroke:none"
         transform="matrix(0.13333333,0,0,-0.13333333,0,1282.3467)" />
      <path
         id="path40"
         d="m 532.949,4644.27 c 41.414,0 82.832,0 124.207,0 0,-39.23 0,-78.41 0,-117.6 -41.375,0 -82.793,0 -124.207,0 0,39.19 0,78.37 0,117.6"
         style="fill:#c0e365;fill-opacity:1;fill-rule:evenodd;stroke:none"
         transform="matrix(0.13333333,0,0,-0.13333333,0,1282.3467)" />
      <path
         id="path41"
         d="m 3022.83,2643.41 h 485.55 c 0,-39.19 0,-78.38 0,-117.6 h -485.55 v 117.6"
         style="fill:#e8e8e7;fill-opacity:1;fill-rule:evenodd;stroke:none"
         transform="matrix(0.13333333,0,0,-0.13333333,0,1282.3467)" />
      <path
         id="path42"
         d="m 1488.03,2643.41 h 418.34 v -117.6 h -418.34 c 0,39.22 0,78.41 0,117.6"
         style="fill:#e8e8e7;fill-opacity:1;fill-rule:evenodd;stroke:none"
         transform="matrix(0.13333333,0,0,-0.13333333,0,1282.3467)" />
      <path
         id="path43"
         d="m 1390.64,2893.55 h 872.11 v -117.64 h -872.11 v 117.64"
         style="fill:#e8e8e7;fill-opacity:1;fill-rule:evenodd;stroke:none"
         transform="matrix(0.13333333,0,0,-0.13333333,0,1282.3467)" />
      <path
         id="path44"
         d="M 958.176,2893.55 H 1215.86 V 2775.91 H 958.176 c 0,39.22 0,78.41 0,117.64"
         style="fill:#e8e8e7;fill-opacity:1;fill-rule:evenodd;stroke:none"
         transform="matrix(0.13333333,0,0,-0.13333333,0,1282.3467)" />
      <path
         id="path45"
         d="m 4010.14,3143.64 h 567.4 c 0,-39.22 0,-78.4 0,-117.59 l -567.4,-0.01 v 117.6"
         style="fill:#e8e8e7;fill-opacity:1;fill-rule:evenodd;stroke:none"
         transform="matrix(0.13333333,0,0,-0.13333333,0,1282.3467)" />
      <path
         id="path46"
         d="m 2651.37,3143.64 h 1183.95 v -117.6 H 2651.37 v 117.6"
         style="fill:#e8e8e7;fill-opacity:1;fill-rule:evenodd;stroke:none"
         transform="matrix(0.13333333,0,0,-0.13333333,0,1282.3467)" />
      <path
         id="path47"
         d="m 1559.97,3143.64 h 916.62 v -117.6 h -916.62 v 117.6"
         style="fill:#f9de1b;fill-opacity:1;fill-rule:evenodd;stroke:none"
         transform="matrix(0.13333333,0,0,-0.13333333,0,1282.3467)" />
      <path
         id="path48"
         d="m 958.176,3143.64 h 426.974 v -117.6 H 958.176 c 0,39.2 0,78.38 0,117.6"
         style="fill:#e8e8e7;fill-opacity:1;fill-rule:evenodd;stroke:none"
         transform="matrix(0.13333333,0,0,-0.13333333,0,1282.3467)" />
      <path
         id="path49"
         d="m 2366.3,3643.84 h 420.39 c 0,-39.19 0,-78.38 0,-117.6 H 2366.3 v 117.6"
         style="fill:#f68313;fill-opacity:1;fill-rule:evenodd;stroke:none"
         transform="matrix(0.13333333,0,0,-0.13333333,0,1282.3467)" />
      <path
         id="path50"
         d="m 1488.03,3643.84 h 703.44 v -117.6 h -703.44 c 0,39.22 0,78.41 0,117.6"
         style="fill:#e8e8e7;fill-opacity:1;fill-rule:evenodd;stroke:none"
         transform="matrix(0.13333333,0,0,-0.13333333,0,1282.3467)" />
      <path
         id="path51"
         d="m 2951.55,3893.98 h 1678.06 c 0,-39.23 0,-78.42 0,-117.64 H 2951.55 v 117.64"
         style="fill:#e8e8e7;fill-opacity:1;fill-rule:evenodd;stroke:none"
         transform="matrix(0.13333333,0,0,-0.13333333,0,1282.3467)" />
      <path
         id="path52"
         d="m 2009.87,3893.98 h 766.87 v -117.64 h -766.87 v 117.64"
         style="fill:#e8e8e7;fill-opacity:1;fill-rule:evenodd;stroke:none"
         transform="matrix(0.13333333,0,0,-0.13333333,0,1282.3467)" />
      <path
         id="path53"
         d="m 1488.03,3893.98 h 347.06 v -117.64 h -347.06 c 0,39.22 0,78.41 0,117.64"
         style="fill:#e8e8e7;fill-opacity:1;fill-rule:evenodd;stroke:none"
         transform="matrix(0.13333333,0,0,-0.13333333,0,1282.3467)" />
      <path
         id="path54"
         d="m 3203.67,4144.07 h 108.69 c 0,-39.22 0,-78.4 0,-117.6 h -108.69 v 117.6"
         style="fill:#e8e8e7;fill-opacity:1;fill-rule:evenodd;stroke:none"
         transform="matrix(0.13333333,0,0,-0.13333333,0,1282.3467)" />
      <path
         id="path55"
         d="m 2749.28,4144.07 h 279.57 v -117.6 h -279.57 v 117.6"
         style="fill:#e8e8e7;fill-opacity:1;fill-rule:evenodd;stroke:none"
         transform="matrix(0.13333333,0,0,-0.13333333,0,1282.3467)" />
      <path
         id="path56"
         d="m 1488.03,4144.07 h 594.17 v -117.6 h -594.17 c 0,39.19 0,78.38 0,117.6"
         style="fill:#e8e8e7;fill-opacity:1;fill-rule:evenodd;stroke:none"
         transform="matrix(0.13333333,0,0,-0.13333333,0,1282.3467)" />
      <path
         id="path57"
         d="m 2615.6,5144.5 h 1271.37 c 0,-39.22 0,-78.41 0,-117.63 H 2615.6 v 117.63"
         style="fill:#cdccca;fill-opacity:1;fill-rule:evenodd;stroke:none"
         transform="matrix(0.13333333,0,0,-0.13333333,0,1282.3467)" />
      <path
         id="path58"
         d="m 2980.02,2393.31 h 91.78 v -117.59 h -91.78 z m -877.61,0 h 702.8 v -117.59 h -702.8 v 117.59 z m -1144.234,0 H 1927.6 V 2275.72 H 958.176 v 117.59 z M 1488.03,5144.5 h 952.74 v -117.63 h -952.74 v 117.63 0"
         style="fill:#cd5629;fill-opacity:1;fill-rule:evenodd;stroke:none"
         transform="matrix(0.13333333,0,0,-0.13333333,0,1282.3467)" />
      <path
         id="path59"
         d="m 2081.18,2643.41 h 766.83 v -117.6 h -766.83 z m 175.83,1500.66 h 317.44 v -117.6 h -317.44 v 117.6 z m 394.26,1250.53 h 903.25 v -117.63 h -903.25 v 117.63 0"
         style="fill:#f68313;fill-opacity:1;fill-rule:evenodd;stroke:none"
         transform="matrix(0.13333333,0,0,-0.13333333,0,1282.3467)" />
      <path
         id="path60"
         d="m 1842.71,5394.6 h 633.74 v -117.63 h -633.74 v 117.63"
         style="fill:#cdccca;fill-opacity:1;fill-rule:evenodd;stroke:none"
         transform="matrix(0.13333333,0,0,-0.13333333,0,1282.3467)" />
      <path
         id="path61"
         d="m 1488.03,5394.6 h 179.86 v -117.63 h -179.86 v 117.63"
         style="fill:#cdccca;fill-opacity:1;fill-rule:evenodd;stroke:none"
         transform="matrix(0.13333333,0,0,-0.13333333,0,1282.3467)" />
      <path
         id="path62"
         d="m 3319.5,5644.7 h 339.16 V 5527.1 H 3319.5 v 117.6"
         style="fill:#cdccca;fill-opacity:1;fill-rule:evenodd;stroke:none"
         transform="matrix(0.13333333,0,0,-0.13333333,0,1282.3467)" />
      <path
         id="path63"
         d="m 2865.07,5644.7 h 279.61 v -117.6 h -279.61 v 117.6"
         style="fill:#cdccca;fill-opacity:1;fill-rule:evenodd;stroke:none"
         transform="matrix(0.13333333,0,0,-0.13333333,0,1282.3467)" />
      <path
         id="path64"
         d="m 2372.84,5644.7 h 317.44 v -117.6 h -317.44 v 117.6"
         style="fill:#cdccca;fill-opacity:1;fill-rule:evenodd;stroke:none"
         transform="matrix(0.13333333,0,0,-0.13333333,0,1282.3467)" />
      <path
         id="path65"
         d="m 1488.03,5644.7 h 709.99 v -117.6 h -709.99 v 117.6"
         style="fill:#8ebae6;fill-opacity:1;fill-rule:evenodd;stroke:none"
         transform="matrix(0.13333333,0,0,-0.13333333,0,1282.3467)" />
      <path
         id="path66"
         d="m 2972.02,5894.8 h 903.25 v -117.57 h -903.25 v 117.57"
         style="fill:#cdccca;fill-opacity:1;fill-rule:evenodd;stroke:none"
         transform="matrix(0.13333333,0,0,-0.13333333,0,1282.3467)" />
      <path
         id="path67"
         d="M 2163.46,5894.8 H 2797.2 V 5777.23 H 2163.46 V 5894.8"
         style="fill:#cdccca;fill-opacity:1;fill-rule:evenodd;stroke:none"
         transform="matrix(0.13333333,0,0,-0.13333333,0,1282.3467)" />
      <path
         id="path68"
         d="m 1488.03,5894.8 h 500.61 v -117.57 h -500.61 v 117.57"
         style="fill:#cdccca;fill-opacity:1;fill-rule:evenodd;stroke:none"
         transform="matrix(0.13333333,0,0,-0.13333333,0,1282.3467)" />
      <path
         id="path69"
         d="m 260.852,6929.58 h 400.933 v 400.94 H 260.852 v -400.94"
         style="fill:#f1485f;fill-opacity:1;fill-rule:evenodd;stroke:none"
         transform="matrix(0.13333333,0,0,-0.13333333,0,1282.3467)" />
      <path
         id="path70"
         d="m 706.34,6929.58 h 400.94 v 400.94 H 706.34 v -400.94"
         style="fill:#f1a40f;fill-opacity:1;fill-rule:evenodd;stroke:none"
         transform="matrix(0.13333333,0,0,-0.13333333,0,1282.3467)" />
      <path
         id="path71"
         d="m 1151.83,6929.58 h 400.93 v 400.94 h -400.93 v -400.94"
         style="fill:#8ebae6;fill-opacity:1;fill-rule:evenodd;stroke:none"
         transform="matrix(0.13333333,0,0,-0.13333333,0,1282.3467)" />
    </g>
  </g>
</svg>
