<?xml version="1.0" encoding="UTF-8" standalone="no"?>
<!-- Created with Inkscape (http://www.inkscape.org/) -->

<svg
   version="1.1"
   id="svg1"
   width="704.46667"
   height="800.12"
   viewBox="0 0 704.46667 800.12"
   sodipodi:docname="programming-vector.svg"
   inkscape:version="1.4 (e7c3feb100, 2024-10-09)"
   xmlns:inkscape="http://www.inkscape.org/namespaces/inkscape"
   xmlns:sodipodi="http://sodipodi.sourceforge.net/DTD/sodipodi-0.dtd"
   xmlns="http://www.w3.org/2000/svg"
   xmlns:svg="http://www.w3.org/2000/svg">
  <defs
     id="defs1" />
  <sodipodi:namedview
     id="namedview1"
     pagecolor="#505050"
     bordercolor="#ffffff"
     borderopacity="1"
     inkscape:showpageshadow="0"
     inkscape:pageopacity="0"
     inkscape:pagecheckerboard="1"
     inkscape:deskcolor="#d1d1d1"
     inkscape:zoom="1.0185972"
     inkscape:cx="352.44549"
     inkscape:cy="400.06"
     inkscape:window-width="1920"
     inkscape:window-height="1002"
     inkscape:window-x="0"
     inkscape:window-y="0"
     inkscape:window-maximized="1"
     inkscape:current-layer="g1">
    <inkscape:page
       x="0"
       y="0"
       inkscape:label="1"
       id="page1"
       width="704.46667"
       height="800.12"
       margin="0"
       bleed="0" />
  </sodipodi:namedview>
  <g
     id="g1"
     inkscape:groupmode="layer"
     inkscape:label="1">
    <g
       id="group-R5">
      <path
         id="path2"
         d="m 1394.43,100.262 c 0,7.519 -1.07,14.008 -3.3,19.308 -2.16,5.379 -5.2,9.532 -9.1,12.461 -3.9,2.84 -8.18,4.309 -12.92,4.309 -7.49,0 -13.83,-3.168 -18.99,-9.301 -5.15,-6.199 -7.73,-15.25 -7.73,-27.2499 0,-11.3203 2.58,-20.1094 7.65,-26.3086 5.16,-6.3086 11.52,-9.4805 19.07,-9.4805 4.51,0 8.73,1.3711 12.59,4.1602 3.8,2.7304 6.9,6.832 9.24,12.2617 2.35,5.5273 3.49,12.0976 3.49,19.8401 z m -53.31,41.379 v -3.422 c 5.11,6.551 10.4,11.453 15.91,14.492 5.53,3.098 11.81,4.66 18.8,4.66 8.34,0 16.05,-2.262 23.1,-6.769 7.03,-4.512 12.58,-11.071 16.7,-19.77 4.08,-8.684 6.08,-18.91 6.08,-30.781 0,-8.7112 -1.13,-16.8401 -3.5,-24.0393 -2.35,-7.332 -5.6,-13.5117 -9.7,-18.4531 -4.13,-4.9492 -9.03,-8.7891 -14.6,-11.4297 -5.64,-2.707 -11.69,-4.0195 -18.08,-4.0195 -7.82,0 -14.35,1.6211 -19.62,4.8828 -5.33,3.2578 -10.33,8.0078 -15.09,14.3281 V 18.7188 C 1341.12,6.21875 1336.76,0 1328.06,0 c -5.11,0 -8.52,1.58984 -10.14,4.80078 -1.67,3.23828 -2.5,7.94922 -2.5,14.09762 V 141.461 c 0,5.398 1.09,9.449 3.38,12.109 2.29,2.641 5.37,4.008 9.26,4.008 3.86,0 7,-1.367 9.42,-4.137 2.41,-2.761 3.64,-6.703 3.64,-11.8"
         style="fill:#100f0d;fill-opacity:1;fill-rule:nonzero;stroke:none"
         transform="matrix(0.13333333,0,0,-0.13333333,0,800.12)" />
      <path
         id="path3"
         d="M 1514.26,58.1719 V 61.75 c -3.27,-4.2891 -6.69,-7.8711 -10.29,-10.7695 -3.58,-2.961 -7.5,-5.1094 -11.73,-6.5117 -4.3,-1.4102 -9.13,-2.129 -14.58,-2.129 -6.54,0 -12.44,1.4297 -17.67,4.2422 -5.22,2.8399 -9.27,6.7696 -12.08,11.75 -3.45,6.0391 -5.1,14.7071 -5.1,25.9688 V 140.57 c 0,5.641 1.23,9.918 3.69,12.711 2.46,2.809 5.7,4.219 9.74,4.219 4.14,0 7.44,-1.41 9.98,-4.289 2.53,-2.852 3.77,-7.082 3.77,-12.641 V 95.0898 c 0,-6.5312 0.52,-12.0781 1.56,-16.5078 1.11,-4.5 3.02,-7.9922 5.8,-10.5625 2.7,-2.4882 6.45,-3.7578 11.17,-3.7578 4.63,0 8.93,1.4297 12.95,4.2696 4.09,2.8085 7.06,6.5078 8.9,11.0898 1.52,4.0195 2.28,12.8203 2.28,26.4099 v 34.539 c 0,5.559 1.26,9.789 3.81,12.641 2.5,2.879 5.75,4.289 9.83,4.289 4.06,0 7.3,-1.41 9.76,-4.219 2.43,-2.793 3.64,-7.07 3.64,-12.711 V 58.332 c 0,-5.4023 -1.13,-9.4726 -3.49,-12.1523 -2.33,-2.7305 -5.37,-4.0508 -9.11,-4.0508 -3.7,0 -6.76,1.4414 -9.2,4.1719 -2.42,2.8515 -3.63,6.7383 -3.63,11.8711"
         style="fill:#100f0d;fill-opacity:1;fill-rule:nonzero;stroke:none"
         transform="matrix(0.13333333,0,0,-0.13333333,0,800.12)" />
      <path
         id="path4"
         d="m 1593.16,99.1406 c 0,-11.289 2.46,-19.9297 7.38,-26.0195 4.97,-6.0391 11.47,-9.1211 19.52,-9.1211 6.85,0 12.71,3.1289 17.69,9.3203 4.98,6.2188 7.46,15.0586 7.46,26.6485 0,7.5702 -1.04,13.9802 -3.11,19.3712 -2.08,5.441 -5.02,9.621 -8.77,12.539 -3.84,2.941 -8.2,4.461 -13.27,4.461 -5.23,0 -9.77,-1.52 -13.85,-4.461 -4.08,-2.918 -7.24,-7.207 -9.58,-12.809 -2.33,-5.531 -3.47,-12.148 -3.47,-19.9294 z m -1.29,84.3904 v -43.39 c 5.05,5.589 10.3,9.789 15.6,12.808 5.32,2.93 11.92,4.422 19.74,4.422 9.05,0 16.96,-2.262 23.77,-6.691 6.79,-4.551 12.11,-10.981 15.84,-19.481 3.79,-8.469 5.64,-18.551 5.64,-30.187 0,-8.6214 -1.03,-16.4925 -3.1,-23.7112 -2.11,-7.1406 -5.12,-13.332 -9.12,-18.6719 -4.02,-5.2305 -8.86,-9.2578 -14.51,-12.2383 -5.71,-2.8203 -11.97,-4.2812 -18.81,-4.2812 -4.14,0 -8.12,0.5312 -11.82,1.539 -3.68,1.0625 -6.85,2.4219 -9.37,4.1602 -2.63,1.6133 -4.84,3.4219 -6.68,5.1797 -1.81,1.8437 -4.2,4.5117 -7.18,8.1133 V 58.332 c 0,-5.3632 -1.26,-9.3906 -3.72,-12.1523 -2.43,-2.7305 -5.6,-4.0703 -9.35,-4.0703 -3.87,0 -6.92,1.3398 -9.25,4.0703 -2.26,2.8203 -3.41,6.8086 -3.41,12.1523 v 123.969 c 0,5.711 1.11,10.058 3.36,13 2.21,2.961 5.29,4.429 9.3,4.429 4.17,0 7.4,-1.398 9.63,-4.23 2.29,-2.781 3.44,-6.758 3.44,-11.969"
         style="fill:#100f0d;fill-opacity:1;fill-rule:nonzero;stroke:none"
         transform="matrix(0.13333333,0,0,-0.13333333,0,800.12)" />
      <path
         id="path5"
         d="M 1691.66,59.3906 V 182.469 c 0,5.711 1.21,9.98 3.6,12.91 2.47,2.883 5.72,4.351 9.84,4.351 4.12,0 7.42,-1.421 9.96,-4.308 2.49,-2.863 3.8,-7.223 3.8,-12.953 V 59.3906 c 0,-5.7695 -1.31,-10.1015 -3.86,-13 -2.54,-2.8203 -5.85,-4.2812 -9.9,-4.2812 -3.99,0 -7.18,1.4922 -9.69,4.4726 -2.5,2.9883 -3.75,7.2383 -3.75,12.8086"
         style="fill:#100f0d;fill-opacity:1;fill-rule:nonzero;stroke:none"
         transform="matrix(0.13333333,0,0,-0.13333333,0,800.12)" />
      <path
         id="path6"
         d="M 1774.13,141.379 V 59.3906 c 0,-5.7304 -1.33,-10.0195 -3.85,-12.9297 -2.62,-2.8593 -5.92,-4.3515 -9.87,-4.3515 -4,0 -7.25,1.4922 -9.73,4.4414 -2.46,3.0195 -3.75,7.2695 -3.75,12.8398 V 140.57 c 0,5.559 1.29,9.789 3.75,12.641 2.48,2.879 5.73,4.289 9.73,4.289 3.95,0 7.25,-1.41 9.87,-4.289 2.52,-2.852 3.85,-6.77 3.85,-11.832 z m -13.45,29.34 c -3.79,0 -7,1.211 -9.75,3.703 -2.62,2.418 -4,5.867 -4,10.328 0,3.992 1.38,7.27 4.15,9.922 2.75,2.609 5.95,3.828 9.6,3.828 3.51,0 6.65,-1.148 9.37,-3.488 2.71,-2.352 4.08,-5.821 4.08,-10.262 0,-4.418 -1.34,-7.828 -4,-10.25 -2.66,-2.461 -5.77,-3.781 -9.45,-3.781"
         style="fill:#100f0d;fill-opacity:1;fill-rule:nonzero;stroke:none"
         transform="matrix(0.13333333,0,0,-0.13333333,0,800.12)" />
      <path
         id="path7"
         d="m 1899.65,77.2617 c 0,-3.5195 -0.99,-7.3203 -3.01,-11.3398 -2.06,-4.0117 -5.14,-7.8203 -9.3,-11.4805 -4.13,-3.6211 -9.36,-6.5508 -15.67,-8.75 -6.31,-2.2695 -13.43,-3.3516 -21.31,-3.3516 -16.82,0 -29.93,5.1211 -39.37,15.3321 -9.41,10.2187 -14.14,23.8867 -14.14,41.0976 0,11.6405 2.15,21.9605 6.45,30.8785 4.31,8.891 10.61,15.864 18.74,20.711 8.15,4.922 17.95,7.371 29.27,7.371 7.06,0 13.53,-1.109 19.42,-3.23 5.87,-2.16 10.85,-4.949 14.93,-8.309 4.08,-3.41 7.2,-7.039 9.37,-10.859 2.18,-3.832 3.23,-7.441 3.23,-10.773 0,-3.348 -1.24,-6.227 -3.63,-8.598 -2.45,-2.379 -5.35,-3.551 -8.81,-3.551 -2.28,0 -4.14,0.66 -5.66,1.871 -1.45,1.168 -3.15,3.071 -5.03,5.84 -3.3,5.238 -6.8,9.231 -10.4,11.91 -3.63,2.61 -8.23,3.957 -13.76,3.957 -8.09,0 -14.56,-3.328 -19.47,-9.879 -4.92,-6.578 -7.35,-15.531 -7.35,-26.8981 0,-5.3007 0.63,-10.2695 1.9,-14.7109 1.25,-4.4883 3.08,-8.2891 5.45,-11.4609 2.41,-3.1602 5.27,-5.5274 8.67,-7.1602 3.38,-1.6601 7.12,-2.4492 11.14,-2.4492 5.48,0 10.13,1.2891 14.02,3.9219 3.89,2.6679 7.33,6.6875 10.31,12.039 1.66,3.2696 3.45,5.7383 5.39,7.5586 1.94,1.8125 4.31,2.6719 7.09,2.6719 3.31,0 6.06,-1.2813 8.28,-3.9219 2.15,-2.6875 3.25,-5.4609 3.25,-8.4375"
         style="fill:#100f0d;fill-opacity:1;fill-rule:nonzero;stroke:none"
         transform="matrix(0.13333333,0,0,-0.13333333,0,800.12)" />
      <path
         id="path8"
         d="m 1944.46,99.9688 c 0,-7.6875 1.14,-14.1993 3.42,-19.6368 2.31,-5.4218 5.4,-9.4414 9.39,-12.1718 4.01,-2.7891 8.36,-4.1602 13.04,-4.1602 4.79,0 9.15,1.332 13.1,3.8906 3.97,2.6211 7.09,6.6289 9.48,11.9883 2.36,5.3594 3.53,12.082 3.53,20.0899 0,7.6092 -1.17,14.0622 -3.53,19.5312 -2.39,5.449 -5.56,9.602 -9.56,12.531 -4.03,2.84 -8.41,4.309 -13.19,4.309 -4.96,0 -9.41,-1.52 -13.34,-4.461 -3.89,-2.918 -6.97,-7.199 -9.12,-12.707 -2.14,-5.531 -3.22,-11.863 -3.22,-19.2032 z m 53.46,-41.6368 v 2.7696 c -3.66,-4.3633 -7.26,-7.9102 -10.86,-10.6016 -3.49,-2.7695 -7.37,-4.8398 -11.52,-6.2695 -4.13,-1.3907 -8.67,-2.1211 -13.57,-2.1211 -6.5,0 -12.57,1.4609 -18.09,4.2812 -5.53,2.9805 -10.33,7.0313 -14.38,12.3594 -4.04,5.3398 -7.12,11.6094 -9.23,18.8516 -2.12,7.1797 -3.14,14.9765 -3.14,23.4104 0,17.687 4.16,31.59 12.46,41.5 8.33,9.91 19.23,14.859 32.76,14.859 7.84,0 14.46,-1.422 19.83,-4.281 5.36,-2.77 10.63,-7.078 15.74,-12.949 v 41.91 c 0,5.84 1.09,10.238 3.33,13.199 2.22,3 5.36,4.48 9.5,4.48 4.11,0 7.28,-1.378 9.53,-4.082 2.21,-2.726 3.36,-6.777 3.36,-12.117 V 58.332 c 0,-5.4023 -1.21,-9.4726 -3.62,-12.1523 -2.4,-2.7305 -5.45,-4.0703 -9.27,-4.0703 -3.68,0 -6.79,1.4023 -9.23,4.1914 -2.4,2.8008 -3.6,6.7773 -3.6,12.0312"
         style="fill:#100f0d;fill-opacity:1;fill-rule:nonzero;stroke:none"
         transform="matrix(0.13333333,0,0,-0.13333333,0,800.12)" />
      <path
         id="path9"
         d="m 2125.44,99.75 c 0,11.531 -2.48,20.57 -7.33,27.02 -4.89,6.402 -11.46,9.66 -19.68,9.66 -5.35,0 -10,-1.45 -14.06,-4.321 -4.04,-2.918 -7.16,-7.16 -9.36,-12.769 -2.17,-5.559 -3.29,-12.07 -3.29,-19.59 0,-7.4297 1.12,-13.8906 3.24,-19.418 2.14,-5.5429 5.25,-9.7929 9.29,-12.7422 4,-2.9414 8.77,-4.3906 14.18,-4.3906 8.22,0 14.79,3.2227 19.68,9.6914 4.85,6.461 7.33,15.4492 7.33,26.8594 z m 27.29,0 c 0,-8.4102 -1.28,-16.2109 -3.79,-23.3984 -2.52,-7.0821 -6.17,-13.2305 -10.93,-18.3828 -4.82,-5.1368 -10.52,-8.9688 -17.16,-11.7891 -6.63,-2.7305 -14.16,-4.0703 -22.42,-4.0703 -8.22,0 -15.64,1.3398 -22.19,4.1523 -6.59,2.7578 -12.31,6.7266 -17.13,11.9102 -4.79,5.1679 -8.43,11.2265 -10.95,18.2578 -2.49,7.082 -3.72,14.8125 -3.72,23.3711 0,8.5902 1.27,16.4492 3.77,23.5582 2.52,7.18 6.12,13.231 10.85,18.332 4.72,5.047 10.42,8.95 17.18,11.68 6.72,2.738 14.08,4.129 22.19,4.129 8.24,0 15.72,-1.391 22.42,-4.168 6.69,-2.762 12.44,-6.762 17.21,-11.871 4.82,-5.121 8.44,-11.262 10.88,-18.332 2.55,-7.047 3.79,-14.859 3.79,-23.379"
         style="fill:#100f0d;fill-opacity:1;fill-rule:nonzero;stroke:none"
         transform="matrix(0.13333333,0,0,-0.13333333,0,800.12)" />
      <path
         id="path10"
         d="m 2267.58,123.191 c -2.04,-4.793 -3,-13.261 -3,-25.4527 V 60.0195 c 0,-5.9375 -1.27,-10.4492 -3.9,-13.4375 -2.57,-2.9804 -6.04,-4.4726 -10.28,-4.4726 -4.08,0 -7.41,1.4922 -9.95,4.4726 -2.56,2.9883 -3.81,7.5 -3.81,13.4375 v 45.2695 c 0,7.121 -0.27,12.652 -0.74,16.652 -0.48,3.911 -1.72,7.168 -3.79,9.711 -2.01,2.547 -5.29,3.809 -9.72,3.809 -8.89,0 -14.74,-3.191 -17.59,-9.609 -2.85,-6.352 -4.19,-15.512 -4.19,-27.4536 V 60.0195 c 0,-5.9297 -1.31,-10.3906 -3.84,-13.3398 -2.58,-3.0781 -5.95,-4.5703 -10.09,-4.5703 -4.15,0 -7.55,1.4922 -10.16,4.5703 -2.64,2.9492 -3.89,7.4101 -3.89,13.332 v 81.2073 c 0,5.351 1.12,9.422 3.46,12.179 2.39,2.75 5.49,4.18 9.37,4.18 3.71,0 6.83,-1.289 9.3,-3.898 2.48,-2.59 3.73,-6.16 3.73,-10.75 v -2.692 c 4.7,5.891 9.76,10.242 15.12,12.973 5.37,2.777 11.41,4.16 17.94,4.16 6.82,0 12.67,-1.422 17.59,-4.281 4.94,-2.82 8.97,-7.121 12.13,-12.852 4.6,5.774 9.51,10.121 14.77,12.934 5.26,2.816 11.05,4.199 17.41,4.199 7.49,0 13.88,-1.492 19.22,-4.59 5.4,-3.043 9.41,-7.402 12.08,-13.082 2.33,-5.14 3.47,-13.199 3.47,-24.25 V 60.0195 c 0,-5.9375 -1.29,-10.4492 -3.84,-13.4375 -2.64,-2.9804 -6.03,-4.4726 -10.28,-4.4726 -4.13,0 -7.49,1.4922 -10.1,4.5703 -2.66,2.9492 -3.97,7.4101 -3.97,13.3398 v 47.7615 c 0,6.11 -0.24,10.981 -0.73,14.66 -0.51,3.707 -1.85,6.75 -4.07,9.258 -2.17,2.5 -5.51,3.762 -9.92,3.762 -3.59,0 -7.01,-1.121 -10.18,-3.289 -3.27,-2.25 -5.72,-5.231 -7.55,-8.981 v 0"
         style="fill:#100f0d;fill-opacity:1;fill-rule:nonzero;stroke:none"
         transform="matrix(0.13333333,0,0,-0.13333333,0,800.12)" />
      <path
         id="path11"
         d="m 2421.6,99.2109 c -4.01,-1.5625 -9.8,-3.1211 -17.41,-4.8515 -7.61,-1.6992 -12.87,-2.9375 -15.8,-3.75 -2.93,-0.8203 -5.72,-2.3672 -8.34,-4.6602 -2.68,-2.3906 -4.02,-5.6172 -4.02,-9.7773 0,-4.3321 1.58,-7.961 4.67,-10.9805 3.14,-3.0625 7.23,-4.5312 12.28,-4.5312 5.37,0 10.37,1.25 14.9,3.7109 4.55,2.4375 7.92,5.6484 10,9.5 2.47,4.3086 3.72,11.3672 3.72,21.3008 z m 1.77,-41.1093 c -6.59,-5.3516 -12.95,-9.3321 -19.08,-11.9727 -6.13,-2.707 -13.05,-4.0195 -20.65,-4.0195 -7.02,0 -13.09,1.4609 -18.41,4.2812 -5.32,2.8985 -9.35,6.8008 -12.22,11.7813 -2.82,4.9062 -4.28,10.1875 -4.28,15.9804 0,7.7696 2.41,14.3594 7.11,19.8477 4.68,5.4414 11.15,9.129 19.38,11.012 1.73,0.418 6.04,1.316 12.84,2.769 6.91,1.5 12.71,2.797 17.67,4.008 4.83,1.191 10.16,2.672 15.87,4.391 -0.35,7.519 -1.79,13.011 -4.32,16.582 -2.6,3.468 -7.93,5.179 -15.92,5.179 -6.94,0 -12.11,-0.98 -15.64,-2.992 -3.46,-1.98 -6.48,-5.027 -8.93,-9.097 -2.52,-3.993 -4.24,-6.661 -5.28,-7.922 -1.06,-1.321 -3.27,-1.891 -6.6,-1.891 -3.1,0 -5.73,1 -7.92,3.02 -2.26,2.062 -3.36,4.64 -3.36,7.882 0,4.981 1.69,9.868 5.06,14.52 3.39,4.73 8.69,8.598 15.85,11.711 7.16,3.039 16.12,4.558 26.82,4.558 11.93,0 21.34,-1.519 28.22,-4.449 6.83,-2.922 11.61,-7.551 14.46,-13.972 2.84,-6.34 4.24,-14.84 4.24,-25.36 0,-6.64 0,-12.34 -0.04,-16.949 -0.06,-4.6797 -0.09,-9.8281 -0.15,-15.5117 0,-5.3164 0.84,-10.8985 2.55,-16.6563 1.65,-5.8007 2.5,-9.5429 2.5,-11.1718 0,-2.918 -1.33,-5.5821 -3.94,-7.9688 -2.56,-2.3828 -5.57,-3.582 -8.87,-3.582 -2.83,0 -5.53,1.3398 -8.3,4.0703 -2.71,2.7617 -5.6,6.75 -8.66,11.9219"
         style="fill:#100f0d;fill-opacity:1;fill-rule:nonzero;stroke:none"
         transform="matrix(0.13333333,0,0,-0.13333333,0,800.12)" />
      <path
         id="path12"
         d="M 2503.1,141.379 V 59.3906 c 0,-5.7304 -1.3,-10.0195 -3.85,-12.9297 -2.59,-2.8593 -5.86,-4.3515 -9.86,-4.3515 -3.97,0 -7.25,1.4922 -9.71,4.4414 -2.52,3.0195 -3.77,7.2695 -3.77,12.8398 V 140.57 c 0,5.559 1.25,9.789 3.77,12.641 2.46,2.879 5.74,4.289 9.71,4.289 4,0 7.27,-1.41 9.86,-4.289 2.55,-2.852 3.85,-6.77 3.85,-11.832 z m -13.44,29.34 c -3.75,0 -6.97,1.211 -9.66,3.703 -2.7,2.418 -4.09,5.867 -4.09,10.328 0,3.992 1.41,7.27 4.17,9.922 2.73,2.609 5.97,3.828 9.58,3.828 3.53,0 6.69,-1.148 9.42,-3.488 2.68,-2.352 4.02,-5.821 4.02,-10.262 0,-4.418 -1.3,-7.828 -3.97,-10.25 -2.66,-2.461 -5.81,-3.781 -9.47,-3.781"
         style="fill:#100f0d;fill-opacity:1;fill-rule:nonzero;stroke:none"
         transform="matrix(0.13333333,0,0,-0.13333333,0,800.12)" />
      <path
         id="path13"
         d="m 2555.95,141.789 v -3.391 c 4.76,6.563 9.98,11.403 15.62,14.473 5.69,3.078 12.22,4.629 19.63,4.629 7.13,0 13.57,-1.621 19.25,-4.91 5.59,-3.238 9.84,-7.82 12.59,-13.762 1.82,-3.496 2.94,-7.277 3.52,-11.277 0.49,-3.969 0.8,-9.11 0.8,-15.371 V 59.3906 c 0,-5.7304 -1.29,-10.0195 -3.76,-12.9297 -2.5,-2.8593 -5.74,-4.3515 -9.71,-4.3515 -4.04,0 -7.35,1.4922 -9.77,4.4726 -2.56,2.9883 -3.86,7.2383 -3.86,12.8086 v 47.2614 c 0,9.407 -1.21,16.539 -3.69,21.489 -2.54,4.949 -7.52,7.468 -14.96,7.468 -4.84,0 -9.25,-1.539 -13.22,-4.558 -3.98,-2.981 -6.91,-7.141 -8.76,-12.43 -1.33,-4.223 -2.03,-12.09 -2.03,-23.7421 V 59.3906 c 0,-5.7695 -1.25,-10.1015 -3.82,-13 -2.57,-2.8203 -5.87,-4.2812 -9.9,-4.2812 -3.89,0 -7.14,1.4922 -9.65,4.4414 -2.57,3.0195 -3.81,7.2695 -3.81,12.8398 v 81.9884 c 0,5.43 1.12,9.422 3.41,12.101 2.21,2.668 5.37,4.02 9.27,4.02 2.35,0 4.54,-0.629 6.43,-1.77 1.99,-1.16 3.48,-2.98 4.65,-5.25 1.12,-2.41 1.77,-5.289 1.77,-8.691"
         style="fill:#100f0d;fill-opacity:1;fill-rule:nonzero;stroke:none"
         transform="matrix(0.13333333,0,0,-0.13333333,0,800.12)" />
      <path
         id="path14"
         d="m 2671,139.84 21.96,-64.4494 23.72,67.2574 c 1.89,5.422 3.71,9.204 5.52,11.461 1.83,2.25 4.5,3.391 8.14,3.391 3.45,0 6.38,-1.211 8.86,-3.68 2.38,-2.398 3.6,-5.172 3.6,-8.441 0,-1.219 -0.24,-2.649 -0.67,-4.277 -0.39,-1.692 -0.88,-3.262 -1.48,-4.75 -0.57,-1.403 -1.15,-3.09 -1.94,-4.942 l -26.09,-67.5702 c -0.73,-1.9296 -1.7,-4.4179 -2.83,-7.4101 -1.18,-2.9688 -2.5,-5.4609 -3.89,-7.6602 -1.46,-2.0898 -3.2,-3.6914 -5.27,-4.8789 -2.13,-1.1797 -4.68,-1.7812 -7.67,-1.7812 -3.84,0 -6.9,0.9101 -9.22,2.7226 -2.29,1.8477 -3.99,3.8282 -5.07,6.0664 -1.08,2.1407 -2.96,6.4805 -5.52,12.9414 l -25.93,66.8322 c -0.59,1.637 -1.24,3.316 -1.88,4.988 -0.6,1.66 -1.09,3.32 -1.56,5.082 -0.42,1.77 -0.66,3.258 -0.66,4.449 0,1.981 0.57,3.891 1.72,5.797 1.13,1.922 2.69,3.492 4.68,4.684 2.02,1.199 4.13,1.828 6.5,1.828 4.47,0 7.59,-1.352 9.3,-4.102 1.7,-2.679 3.6,-7.207 5.68,-13.558"
         style="fill:#100f0d;fill-opacity:1;fill-rule:nonzero;stroke:none"
         transform="matrix(0.13333333,0,0,-0.13333333,0,800.12)" />
      <path
         id="path15"
         d="m 2782.23,109.012 h 49.29 c -0.63,9.668 -3.12,16.929 -7.5,21.718 -4.37,4.801 -10.1,7.211 -17.22,7.211 -6.73,0 -12.31,-2.441 -16.64,-7.3 -4.34,-4.871 -6.95,-12.09 -7.93,-21.629 z m 53.2,-16.1526 h -53.2 c 0.01,-6.461 1.31,-12.1406 3.69,-17.0977 2.46,-4.8711 5.67,-8.5898 9.7,-11.1133 4,-2.5195 8.46,-3.7187 13.31,-3.7187 3.24,0 6.25,0.3906 8.9,1.1601 2.67,0.8399 5.31,2.0821 7.86,3.75 2.48,1.711 4.78,3.4805 6.93,5.5 2.1,1.9297 4.93,4.5196 8.27,7.8711 1.41,1.3086 3.42,1.8907 5.97,1.8907 2.84,0 5.07,-0.7696 6.81,-2.4102 1.73,-1.5898 2.54,-3.8203 2.54,-6.7305 0,-2.5625 -0.94,-5.5625 -2.88,-9.0312 -1.91,-3.3789 -4.76,-6.6992 -8.72,-9.8906 -3.89,-3.1289 -8.77,-5.6993 -14.64,-7.8282 -5.85,-2.0703 -12.58,-3.1015 -20.29,-3.1015 -17.43,0 -31.03,5.2304 -40.69,15.582 -9.69,10.4492 -14.51,24.5078 -14.51,42.2774 0,8.5002 1.23,16.2112 3.56,23.3712 2.39,7.199 5.86,13.332 10.46,18.449 4.59,5.152 10.2,9.121 16.92,11.813 6.74,2.757 14.15,4.128 22.35,4.128 10.55,0 19.7,-2.339 27.29,-7.05 7.63,-4.668 13.31,-10.68 17.09,-18.078 3.79,-7.461 5.69,-14.981 5.69,-22.743 0,-7.078 -1.91,-11.6988 -5.86,-13.8004 -3.96,-2.1484 -9.44,-3.1992 -16.55,-3.1992"
         style="fill:#100f0d;fill-opacity:1;fill-rule:nonzero;stroke:none"
         transform="matrix(0.13333333,0,0,-0.13333333,0,800.12)" />
      <path
         id="path16"
         d="m 2978.32,77.2617 c 0,-3.5195 -1.01,-7.3203 -3.08,-11.3398 -2.03,-4.0117 -5.06,-7.8203 -9.25,-11.4805 -4.13,-3.6211 -9.4,-6.5508 -15.73,-8.75 -6.27,-2.2695 -13.42,-3.3516 -21.25,-3.3516 -16.87,0 -29.97,5.1211 -39.39,15.3321 -9.4,10.2187 -14.15,23.8867 -14.15,41.0976 0,11.6405 2.14,21.9605 6.5,30.8785 4.32,8.891 10.51,15.864 18.71,20.711 8.13,4.922 17.93,7.371 29.31,7.371 7.03,0 13.46,-1.109 19.39,-3.23 5.86,-2.16 10.8,-4.949 14.94,-8.309 4.08,-3.41 7.17,-7.039 9.36,-10.859 2.14,-3.832 3.21,-7.441 3.21,-10.773 0,-3.348 -1.18,-6.227 -3.68,-8.598 -2.39,-2.379 -5.32,-3.551 -8.78,-3.551 -2.26,0 -4.13,0.66 -5.6,1.871 -1.52,1.168 -3.18,3.071 -5.07,5.84 -3.32,5.238 -6.76,9.231 -10.39,11.91 -3.62,2.61 -8.22,3.957 -13.81,3.957 -7.99,0 -14.49,-3.328 -19.4,-9.879 -4.96,-6.578 -7.4,-15.531 -7.4,-26.8981 0,-5.3007 0.67,-10.2695 1.88,-14.7109 1.27,-4.4883 3.12,-8.2891 5.52,-11.4609 2.38,-3.1602 5.29,-5.5274 8.67,-7.1602 3.33,-1.6601 7.07,-2.4492 11.16,-2.4492 5.43,0 10.11,1.2891 14,3.9219 3.87,2.6679 7.33,6.6875 10.32,12.039 1.67,3.2696 3.43,5.7383 5.38,7.5586 1.91,1.8125 4.23,2.6719 7.07,2.6719 3.27,0 6.08,-1.2813 8.19,-3.9219 2.24,-2.6875 3.37,-5.4609 3.37,-8.4375"
         style="fill:#100f0d;fill-opacity:1;fill-rule:nonzero;stroke:none"
         transform="matrix(0.13333333,0,0,-0.13333333,0,800.12)" />
      <path
         id="path17"
         d="m 3003.57,155.109 h 2.99 v 17.063 c 0,4.539 0.12,8.16 0.37,10.75 0.22,2.609 0.82,4.789 1.94,6.699 1.03,1.899 2.56,3.5 4.59,4.738 1.97,1.18 4.19,1.75 6.65,1.75 3.44,0 6.57,-1.32 9.35,-4.007 1.81,-1.832 3.03,-3.993 3.52,-6.571 0.51,-2.609 0.74,-6.351 0.74,-11.109 v -19.313 h 10 c 3.84,0 6.79,-0.968 8.81,-2.871 2.06,-1.918 3.05,-4.328 3.05,-7.316 0,-3.82 -1.43,-6.524 -4.36,-8.012 -2.88,-1.5 -7.02,-2.269 -12.39,-2.269 h -5.11 V 82.3594 c 0,-4.4492 0.16,-7.8672 0.45,-10.2891 0.35,-2.3984 1.19,-4.3398 2.45,-5.789 1.26,-1.5 3.37,-2.2813 6.31,-2.2813 1.59,0 3.74,0.2813 6.49,0.8984 2.66,0.5821 4.79,0.8829 6.35,0.8829 2.17,0 4.22,-0.9493 5.94,-2.7032 1.72,-1.8984 2.63,-4.1172 2.63,-6.8476 0,-4.5508 -2.34,-8.0586 -7.16,-10.4883 -4.83,-2.4336 -11.69,-3.6328 -20.61,-3.6328 -8.51,0 -14.97,1.4922 -19.36,4.4726 -4.35,2.9883 -7.27,7.0782 -8.58,12.418 -1.4,5.2617 -2.07,12.2891 -2.07,21.0898 v 54.5512 h -3.62 c -3.84,0 -6.84,0.968 -8.92,2.918 -2.07,1.933 -3.08,4.363 -3.08,7.363 0,2.988 1.06,5.398 3.2,7.316 2.18,1.903 5.3,2.871 9.43,2.871"
         style="fill:#100f0d;fill-opacity:1;fill-rule:nonzero;stroke:none"
         transform="matrix(0.13333333,0,0,-0.13333333,0,800.12)" />
      <path
         id="path18"
         d="m 3148.76,99.75 c 0,11.531 -2.46,20.57 -7.31,27.02 -4.93,6.402 -11.43,9.66 -19.69,9.66 -5.33,0 -10,-1.45 -14.02,-4.321 -4.08,-2.918 -7.2,-7.16 -9.38,-12.769 -2.18,-5.559 -3.31,-12.07 -3.31,-19.59 0,-7.4297 1.13,-13.8906 3.28,-19.418 2.14,-5.5429 5.21,-9.7929 9.22,-12.7422 4.01,-2.9414 8.75,-4.3906 14.21,-4.3906 8.26,0 14.76,3.2227 19.69,9.6914 4.85,6.461 7.31,15.4492 7.31,26.8594 z m 27.31,0 c 0,-8.4102 -1.25,-16.2109 -3.82,-23.3984 -2.5,-7.0821 -6.17,-13.2305 -10.93,-18.3828 -4.79,-5.1368 -10.51,-8.9688 -17.13,-11.7891 -6.67,-2.7305 -14.09,-4.0703 -22.43,-4.0703 -8.27,0 -15.68,1.3398 -22.22,4.1523 -6.57,2.7578 -12.29,6.7266 -17.09,11.9102 -4.8,5.1679 -8.46,11.2265 -10.91,18.2578 -2.48,7.082 -3.7,14.8125 -3.7,23.3711 0,8.5902 1.22,16.4492 3.7,23.5582 2.58,7.18 6.15,13.231 10.86,18.332 4.75,5.047 10.45,8.95 17.14,11.68 6.77,2.738 14.16,4.129 22.22,4.129 8.26,0 15.7,-1.391 22.43,-4.168 6.7,-2.762 12.43,-6.762 17.22,-11.871 4.73,-5.121 8.44,-11.262 10.92,-18.332 2.49,-7.047 3.74,-14.859 3.74,-23.379"
         style="fill:#100f0d;fill-opacity:1;fill-rule:nonzero;stroke:none"
         transform="matrix(0.13333333,0,0,-0.13333333,0,800.12)" />
      <path
         id="path19"
         d="M 3224.52,83.0117 V 59.3906 c 0,-5.7695 -1.31,-10.1015 -3.91,-13 -2.6,-2.8203 -5.87,-4.2812 -9.89,-4.2812 -3.87,0 -7.12,1.4922 -9.63,4.3515 -2.52,2.9102 -3.76,7.1993 -3.76,12.9297 v 78.9884 c 0,12.762 4.39,19.121 13.23,19.121 4.47,0 7.75,-1.512 9.78,-4.461 1.95,-2.98 3,-7.391 3.27,-13.199 3.23,5.808 6.61,10.219 10.04,13.199 3.42,2.949 7.96,4.461 13.64,4.461 5.76,0 11.28,-1.512 16.68,-4.461 5.35,-2.98 8.08,-6.949 8.08,-11.859 0,-3.45 -1.19,-6.36 -3.47,-8.578 -2.27,-2.243 -4.75,-3.411 -7.44,-3.411 -0.98,0 -3.4,0.661 -7.21,1.969 -3.85,1.262 -7.22,1.93 -10.16,1.93 -3.93,0 -7.18,-1.059 -9.68,-3.289 -2.54,-2.223 -4.51,-5.41 -5.9,-9.699 -1.4,-4.352 -2.4,-9.43 -2.9,-15.391 -0.51,-5.8907 -0.77,-13.1016 -0.77,-21.6993"
         style="fill:#100f0d;fill-opacity:1;fill-rule:nonzero;stroke:none"
         transform="matrix(0.13333333,0,0,-0.13333333,0,800.12)" />
      <path
         id="path20"
         d="m 3369.37,79.1914 c 0,-7.8516 -1.83,-14.543 -5.52,-20.1328 -3.67,-5.5977 -9.05,-9.7695 -16.2,-12.6797 -7.17,-2.8086 -15.82,-4.2695 -26.1,-4.2695 -9.68,0 -18.1,1.539 -25.09,4.6992 -6.97,3.1016 -12.13,6.9805 -15.42,11.6523 -3.36,4.6602 -5.07,9.3477 -5.07,14.0508 0,3.1172 1.1,5.7891 3.27,8.0078 2.11,2.2618 4.82,3.3203 8.03,3.3203 2.87,0 5.1,-0.7382 6.61,-2.1484 1.53,-1.543 2.95,-3.543 4.39,-6.1797 2.78,-5.0703 6.1,-8.8515 10.05,-11.3398 3.81,-2.5313 9.12,-3.7696 15.88,-3.7696 5.42,0 9.9,1.2891 13.39,3.8165 3.47,2.5312 5.27,5.4101 5.27,8.6718 0,5.0196 -1.84,8.668 -5.43,10.9375 -3.68,2.3321 -9.6,4.5117 -17.9,6.5742 -9.36,2.4297 -17.01,4.9766 -22.89,7.629 -5.87,2.6797 -10.63,6.2307 -14.12,10.5897 -3.52,4.301 -5.31,9.711 -5.31,16.09 0,5.719 1.64,11.078 4.9,16.121 3.24,5.066 8.11,9.09 14.43,12.117 6.33,3.039 13.97,4.551 22.99,4.551 7,0 13.33,-0.781 18.97,-2.301 5.6,-1.519 10.34,-3.59 14.03,-6.117 3.75,-2.582 6.64,-5.422 8.59,-8.512 1.99,-3.16 2.96,-6.199 2.96,-9.16 0,-3.269 -1.03,-5.879 -3.17,-8.051 -2.1,-2 -5.09,-3.058 -8.88,-3.058 -2.83,0 -5.19,0.82 -7.19,2.519 -1.92,1.641 -4.19,4.121 -6.7,7.41 -2.06,2.782 -4.46,5.02 -7.29,6.68 -2.79,1.629 -6.57,2.5 -11.32,2.5 -4.94,0 -9.06,-1.09 -12.25,-3.301 -3.28,-2.16 -4.92,-4.91 -4.92,-8.16 0,-3 1.21,-5.429 3.56,-7.328 2.42,-1.922 5.63,-3.492 9.7,-4.75 4.08,-1.25 9.64,-2.801 16.75,-4.59 8.46,-2.14 15.32,-4.679 20.68,-7.691 5.34,-2.942 9.39,-6.4806 12.14,-10.5314 2.8,-4.0898 4.18,-8.707 4.18,-13.8672"
         style="fill:#100f0d;fill-opacity:1;fill-rule:nonzero;stroke:none"
         transform="matrix(0.13333333,0,0,-0.13333333,0,800.12)" />
      <path
         id="path21"
         d="m 3400.25,42.1094 c -4.12,0 -7.69,1.3398 -10.64,4.1523 -3.03,2.7578 -4.51,6.668 -4.51,11.6094 0,4.2187 1.4,7.8594 4.23,10.9297 2.86,3.039 6.41,4.5195 10.6,4.5195 4.16,0 7.74,-1.4805 10.63,-4.5117 3,-2.9688 4.48,-6.6797 4.48,-10.9375 0,-4.9023 -1.48,-8.7695 -4.48,-11.5703 -2.89,-2.7891 -6.34,-4.1914 -10.31,-4.1914"
         style="fill:#100f0d;fill-opacity:1;fill-rule:nonzero;stroke:none"
         transform="matrix(0.13333333,0,0,-0.13333333,0,800.12)" />
      <path
         id="path22"
         d="m 3520.5,99.75 c 0,11.531 -2.45,20.57 -7.33,27.02 -4.88,6.402 -11.42,9.66 -19.65,9.66 -5.32,0 -9.95,-1.45 -14.02,-4.321 -4.07,-2.918 -7.18,-7.16 -9.36,-12.769 -2.17,-5.559 -3.28,-12.07 -3.28,-19.59 0,-7.4297 1.05,-13.8906 3.19,-19.418 2.23,-5.5429 5.28,-9.7929 9.31,-12.7422 4,-2.9414 8.72,-4.3906 14.16,-4.3906 8.23,0 14.77,3.2227 19.65,9.6914 4.88,6.461 7.33,15.4492 7.33,26.8594 z m 27.33,0 c 0,-8.4102 -1.25,-16.2109 -3.81,-23.3984 -2.54,-7.0821 -6.15,-13.2305 -10.95,-18.3828 -4.82,-5.1368 -10.47,-8.9688 -17.13,-11.7891 -6.62,-2.7305 -14.09,-4.0703 -22.42,-4.0703 -8.22,0 -15.62,1.3398 -22.2,4.1523 -6.58,2.7578 -12.24,6.7266 -17.05,11.9102 -4.89,5.1679 -8.51,11.2265 -11.03,18.2578 -2.44,7.082 -3.69,14.8125 -3.69,23.3711 0,8.5902 1.25,16.4492 3.78,23.5582 2.57,7.18 6.14,13.231 10.83,18.332 4.71,5.047 10.43,8.95 17.16,11.68 6.7,2.738 14.06,4.129 22.2,4.129 8.23,0 15.7,-1.391 22.42,-4.168 6.74,-2.762 12.46,-6.762 17.26,-11.871 4.74,-5.121 8.38,-11.262 10.9,-18.332 2.48,-7.047 3.73,-14.859 3.73,-23.379"
         style="fill:#100f0d;fill-opacity:1;fill-rule:nonzero;stroke:none"
         transform="matrix(0.13333333,0,0,-0.13333333,0,800.12)" />
      <path
         id="path23"
         d="M 3596.26,83.0117 V 59.3906 c 0,-5.7695 -1.29,-10.1015 -3.88,-13 -2.55,-2.8203 -5.88,-4.2812 -9.84,-4.2812 -3.96,0 -7.14,1.4922 -9.68,4.3515 -2.56,2.9102 -3.8,7.1993 -3.8,12.9297 v 78.9884 c 0,12.762 4.47,19.121 13.26,19.121 4.52,0 7.75,-1.512 9.74,-4.461 1.96,-2.98 3.12,-7.391 3.36,-13.199 3.19,5.808 6.52,10.219 9.94,13.199 3.43,2.949 8,4.461 13.67,4.461 5.81,0 11.35,-1.512 16.67,-4.461 5.38,-2.98 8.09,-6.949 8.09,-11.859 0,-3.45 -1.15,-6.36 -3.42,-8.578 -2.32,-2.243 -4.75,-3.411 -7.47,-3.411 -0.96,0 -3.35,0.661 -7.17,1.969 -3.84,1.262 -7.21,1.93 -10.16,1.93 -3.95,0 -7.19,-1.059 -9.78,-3.289 -2.48,-2.223 -4.45,-5.41 -5.86,-9.699 -1.36,-4.352 -2.34,-9.43 -2.85,-15.391 -0.53,-5.8907 -0.82,-13.1016 -0.82,-21.6993"
         style="fill:#100f0d;fill-opacity:1;fill-rule:nonzero;stroke:none"
         transform="matrix(0.13333333,0,0,-0.13333333,0,800.12)" />
      <path
         id="path24"
         d="m 3674.78,100.719 c 0,-11.4807 2.42,-20.1877 7.26,-26.1096 4.77,-5.8477 11.04,-8.8281 18.63,-8.8281 4.49,0 8.82,1.3085 12.81,3.8398 4.02,2.5273 7.3,6.3398 9.83,11.4375 2.55,5.1016 3.77,11.2617 3.77,18.5312 0,11.5702 -2.46,20.5702 -7.33,26.9922 -4.86,6.508 -11.3,9.758 -19.26,9.758 -7.74,0 -13.98,-3.168 -18.65,-9.301 -4.71,-6.187 -7.06,-14.937 -7.06,-26.32 z m 78.84,36 V 54.25 c 0,-9.4609 -1.04,-17.5586 -2.92,-24.3203 -1.94,-6.8203 -5.01,-12.4375 -9.26,-16.8594 -4.25,-4.42967 -9.84,-7.71874 -16.67,-9.87108 C 3717.89,1.08984 3709.32,0 3699.11,0 c -9.39,0 -17.78,1.32813 -25.1,4.05859 -7.39,2.8125 -13.09,6.30081 -17.05,10.67191 -3.99,4.2812 -6,8.75 -6,13.3476 0,3.4727 1.11,6.2813 3.43,8.4532 2.23,2.2382 4.96,3.3203 8.13,3.3203 4.01,0 7.45,-1.8516 10.49,-5.5 1.47,-1.9414 2.99,-3.8008 4.5,-5.6914 1.57,-1.9102 3.31,-3.5821 5.18,-4.8985 1.91,-1.3906 4.21,-2.3828 6.87,-3.0508 2.59,-0.6523 5.7,-0.9804 9.17,-0.9804 6.98,0 12.51,1.039 16.36,3.0586 3.89,2.0507 6.62,4.9101 8.21,8.5703 1.48,3.6797 2.49,7.6015 2.64,11.789 0.32,4.2735 0.51,10.9414 0.7,20.2813 -4.18,-6.0899 -9.1,-10.7383 -14.52,-13.9297 -5.47,-3.1992 -12.03,-4.75 -19.54,-4.75 -9.18,0 -17.13,2.3789 -23.88,7.2617 -6.85,4.8477 -12.08,11.6172 -15.73,20.3789 -3.6,8.711 -5.47,18.7891 -5.47,30.2384 0,8.57 1.09,16.281 3.35,23.141 2.18,6.832 5.34,12.628 9.53,17.351 4.07,4.711 8.84,8.277 14.21,10.68 5.41,2.347 11.25,3.57 17.76,3.57 7.66,0 14.33,-1.562 19.97,-4.66 5.72,-3.039 10.91,-7.941 15.77,-14.492 v 3.801 c 0,4.96 1.2,8.742 3.5,11.531 2.29,2.66 5.31,4.027 8.94,4.027 5.27,0 8.75,-1.769 10.5,-5.34 1.7,-3.59 2.59,-8.777 2.59,-15.519"
         style="fill:#100f0d;fill-opacity:1;fill-rule:nonzero;stroke:none"
         transform="matrix(0.13333333,0,0,-0.13333333,0,800.12)" />
      <path
         id="path25"
         d="m 2574.91,413.102 h 40.34 c -2.85,-21.75 -11.76,-38.723 -26.58,-50.942 -13.72,-11.969 -30.33,-17.871 -49.73,-17.871 -26.35,0 -47.37,9.262 -63.07,27.723 -14.88,17.57 -22.3,40.258 -22.3,67.957 0,28.402 7.37,51.101 22.08,68.281 14.71,17.121 35.51,25.73 62.39,25.73 19.99,0 36.91,-5.41 50.63,-16.148 14.54,-11.602 23.43,-27.902 26.58,-48.773 h -40.34 c -3.49,18.222 -14.6,27.269 -33.52,27.269 -31.17,0 -46.79,-18.469 -46.79,-55.418 0,-17.32 4.02,-31.461 12.04,-42.461 8.01,-11.07 19.32,-16.59 33.9,-16.59 21.74,0 33.2,10.43 34.37,31.243 z m -158.79,25.449 c 0,-36.11 11.45,-66.66 34.3,-91.571 22.9,-24.89 50.91,-37.351 84.16,-37.351 33.1,0 61.13,12.461 83.98,37.351 22.92,24.911 34.3,55.461 34.3,91.571 0,36.07 -11.38,66.609 -34.3,91.508 -22.85,24.953 -50.88,37.382 -83.98,37.382 -33.25,0 -61.26,-12.429 -84.16,-37.382 -22.85,-24.899 -34.3,-55.438 -34.3,-91.508 z m -40.98,0 c 0,45.929 15.55,85.14 46.66,117.711 31.15,32.519 68.75,48.789 112.78,48.789 43.92,0 81.46,-16.27 112.64,-48.789 31.13,-32.571 46.73,-71.782 46.73,-117.711 0,-45.981 -15.6,-85.25 -46.73,-117.75 -31.18,-32.551 -68.72,-48.832 -112.64,-48.832 -44.03,0 -81.63,16.281 -112.78,48.832 -31.11,32.5 -46.66,71.769 -46.66,117.75"
         style="fill:#100f0d;fill-opacity:1;fill-rule:nonzero;stroke:none"
         transform="matrix(0.13333333,0,0,-0.13333333,0,800.12)" />
      <path
         id="path26"
         d="m 2439.64,334.121 23.26,-19.723 170.95,219.532 -23.24,19.691 -170.97,-219.5"
         style="fill:#100f0d;fill-opacity:1;fill-rule:nonzero;stroke:none"
         transform="matrix(0.13333333,0,0,-0.13333333,0,800.12)" />
      <path
         id="path27"
         d="m 2641.76,717.359 c 1455.03,0 2641.75,1186.741 2641.75,2641.771 0,1455.02 -1186.72,2641.75 -2641.75,2641.75 C 1186.73,6000.88 0,4814.15 0,3359.13 0,1904.1 1186.73,717.359 2641.76,717.359"
         style="fill:#e8e8e7;fill-opacity:1;fill-rule:evenodd;stroke:none"
         transform="matrix(0.13333333,0,0,-0.13333333,0,800.12)" />
      <path
         id="path28"
         d="m 1300.32,3010.33 c 223.43,0 447.14,0 670.27,0 223.14,0 446.56,0 669.98,0 223.15,0 446.56,0 669.7,0 223.13,0 446.83,0 670.55,0 48.86,0 98.76,-18.54 109.81,-41.17 30.77,-63.02 62.91,-128.79 96.34,-197.19 34.92,-71.47 71.49,-146.23 109.67,-224.29 40.17,-82.22 82.3,-168.42 126.56,-259 46.62,-95.41 95.72,-195.88 147.71,-302.24 19.87,-40.64 -19.58,-74.02 -86,-74.02 -307.36,0 -615.09,0 -922.44,0 -307.35,0 -614.7,0 -922.05,0 -307.74,0 -615.47,0 -922.82,0 -307.35,0 -614.69,0 -921.655,0 -66.035,0 -102.914,33.05 -83.195,73.35 51.836,105.95 100.984,206.64 147.723,302.26 44.39,90.8 86.679,177.31 127.011,259.87 38.306,78.39 74.956,153.37 109.956,224.95 33.45,68.4 65.54,134.07 96.17,196.74 10.94,22.41 58.72,40.74 106.71,40.74"
         style="fill:#7a7b7d;fill-opacity:1;fill-rule:evenodd;stroke:none"
         transform="matrix(0.13333333,0,0,-0.13333333,0,800.12)" />
      <path
         id="path29"
         d="m 1339.08,4835.3 h 2605.35 c 47.09,0 85.62,-38.53 85.62,-85.63 V 3227.82 c 0,-47.1 -38.53,-85.62 -85.62,-85.62 H 1339.08 c -47.1,0 -85.62,38.52 -85.62,85.62 v 1521.85 c 0,47.1 38.52,85.63 85.62,85.63"
         style="fill:#ffffff;fill-opacity:1;fill-rule:evenodd;stroke:none"
         transform="matrix(0.13333333,0,0,-0.13333333,0,800.12)" />
      <path
         id="path30"
         d="M 1370.34,4718.42 H 3913.17 V 3259.07 H 1370.34 v 1459.35"
         style="fill:#758ed0;fill-opacity:1;fill-rule:evenodd;stroke:none"
         transform="matrix(0.13333333,0,0,-0.13333333,0,800.12)" />
      <path
         id="path31"
         d="m 1300.32,3159.29 c 223.43,0 447.14,0 670.27,0 223.14,0 446.56,0 669.98,0 223.15,0 446.56,0 669.7,0 223.13,0 446.83,0 670.55,0 48.86,0 98.76,-18.56 109.81,-41.16 30.77,-63.03 62.91,-128.8 96.34,-197.19 34.92,-71.5 71.49,-146.24 109.67,-224.31 40.17,-82.22 82.3,-168.42 126.56,-259 46.62,-95.4 95.72,-195.86 147.71,-302.24 19.87,-40.63 -19.58,-74.01 -86,-74.01 -307.36,0 -615.09,0 -922.44,0 -307.35,0 -614.7,0 -922.05,0 -307.74,0 -615.47,0 -922.82,0 -307.35,0 -614.69,0 -921.655,0 -66.035,0 -102.914,33.05 -83.195,73.36 51.836,105.92 100.984,206.63 147.723,302.23 44.39,90.81 86.679,177.33 127.011,259.88 38.306,78.4 74.956,153.39 109.956,224.96 33.45,68.41 65.54,134.07 96.17,196.75 10.94,22.39 58.72,40.73 106.71,40.73"
         style="fill:#b1b1b0;fill-opacity:1;fill-rule:evenodd;stroke:none"
         transform="matrix(0.13333333,0,0,-0.13333333,0,800.12)" />
      <path
         id="path32"
         d="M 2044.78,2061.38 H 1717.6 c -307.35,0 -614.69,0 -921.655,0 -2.523,0 -5.004,0.06 -7.433,0.15 282.588,540.98 873.458,863.68 1494.858,792.87 l -181.69,-393.01 h 158.73 c 40.8,0 78.3,-22.39 97.68,-58.29 13.99,-25.89 13.99,-57.12 0,-83.01 -28.35,-52.53 -76.83,-91.26 -134.31,-107.32 -79.3,-22.13 -144.41,-77.73 -179,-151.39 z m 2437.85,254.65 88.28,-180.64 c 19.87,-40.63 -19.58,-74.01 -86,-74.01 -307.36,0 -615.09,0 -922.44,0 h -125.55 c -50.06,73.46 -126.71,128.78 -210.62,150.82 -61.2,16.05 -117.99,54.93 -157.39,107.73 -19.43,26.05 -25.88,57.45 -17.15,83.55 12.08,36.16 45.22,58.73 86.29,58.8 l 159.78,0.27 -264.11,395.2 c 508.68,60.18 1052.39,-154.25 1448.91,-541.72 v 0"
         style="fill:#949595;fill-opacity:1;fill-rule:evenodd;stroke:none"
         transform="matrix(0.13333333,0,0,-0.13333333,0,800.12)" />
      <path
         id="path33"
         d="m 1285.55,3116.24 c 225.85,0 451.67,-0.1 677.52,-0.1 225.84,0 451.69,-0.05 677.82,-0.11 225.27,-0.04 450.85,-0.11 676.7,-0.11 225.85,0 452.03,-0.11 678.19,-0.11 18.73,-41.05 37.96,-83.24 57.74,-126.58 20.26,-44.38 41.54,-90.24 62.99,-137.25 22.08,-48.41 44.79,-98.53 68.4,-149.87 24.45,-53.18 49.61,-107.92 75.46,-164.56 -270.25,0 -540.45,-0.13 -810.37,-0.13 -269.92,0 -539.82,-0.09 -809.39,-0.09 -269.92,0 -540.2,-0.11 -810.13,-0.11 -269.93,0 -539.85,0 -809.79,-0.13 26.01,56.89 50.69,111.96 74.89,165.25 23.46,51.66 46.69,101.72 69.12,150.41 21.69,47.05 42.56,92.99 62.86,137.35 19.8,43.26 39.31,85.31 57.99,126.14"
         style="fill:#7a7b7d;fill-opacity:1;fill-rule:evenodd;stroke:none"
         transform="matrix(0.13333333,0,0,-0.13333333,0,800.12)" />
      <path
         id="path34"
         d="m 2136.76,2537.25 c -102.12,-0.03 -204.23,-0.03 -306.28,-0.03 -216.56,0 -433.11,0 -649.67,-0.07 302.63,241.44 696.05,363.57 1102.56,317.25 z m 2076.46,0.29 c -254.53,-0.01 -509.01,-0.12 -763.22,-0.12 h -202.22 l -214.06,320.33 c 401.16,47.46 824.12,-75.92 1179.5,-320.21 v 0"
         style="fill:#5e5f62;fill-opacity:1;fill-rule:evenodd;stroke:none"
         transform="matrix(0.13333333,0,0,-0.13333333,0,800.12)" />
      <path
         id="path35"
         d="m 3819.26,2991.63 c 7.9,-20.74 15.92,-41.72 24.05,-63.12 60.42,0 120.51,0 180.62,0 -9.35,21.31 -18.53,42.27 -27.66,63.12 -58.9,0 -117.8,0 -177.01,0 z m -253.45,0.11 c 6.22,-20.85 12.49,-41.71 18.85,-63.12 60.11,0 120.21,0 180.33,0 -7.57,21.29 -15.07,42.27 -22.46,63.01 -58.9,0 -117.8,0 -176.72,0.11 z m -253.14,0 c 4.5,-20.75 9.07,-41.71 13.7,-63.02 60.42,0 120.52,0 180,0 -5.84,21.31 -11.61,42.27 -17.29,63.02 -58.3,0 -117.21,0 -176.41,0 z m -253.74,0.13 c 2.79,-20.65 5.65,-41.73 8.52,-63.03 60.41,0 120.21,0 180.31,0 -4.1,21.3 -8.14,42.26 -12.11,62.9 -58.9,0 -117.8,0.13 -176.72,0.13 z m -253.42,0.09 c 1.11,-20.74 2.21,-41.71 3.34,-63.12 60.1,0 120.22,0 180.62,0 -2.36,21.3 -4.67,42.38 -6.96,63.12 -59.5,0 -118.1,0 -177,0 z m -253.42,0.12 c -0.6,-20.76 -1.21,-41.73 -1.83,-63.14 60.72,0 120.82,0 180.31,0 -0.6,21.31 -1.19,42.28 -1.78,63.02 -58.3,0 -117.18,0.12 -176.7,0.12 z m -253.41,0 c -2.3,-20.76 -4.62,-41.61 -7.01,-63.02 60.11,0 120.21,0 180.31,0 1.15,21.29 2.28,42.26 3.4,63.02 -58.9,0 -117.5,0 -176.7,0 z m -253.09,0.12 c -3.99,-20.66 -8.05,-41.73 -12.17,-63.04 60.1,0 119.89,0 180.6,0 2.9,21.31 5.76,42.28 8.55,62.92 -59.19,0.12 -118.08,0.12 -176.98,0.12 z m -253.41,0.1 c -5.67,-20.65 -11.45,-41.73 -17.35,-63.14 60.41,0 120.82,0 180.3,0 4.66,21.31 9.24,42.38 13.74,63.14 -58.29,0 -117.18,0 -176.69,0 z m -507.07,0.09 c -9.05,-20.63 -18.29,-41.59 -27.7,-62.99 60.1,0 119.88,0 180.6,0 8.18,21.4 16.18,42.25 24.08,62.99 -59.5,0 -118.09,0 -176.98,0 z m 2573.75,-104.72 c 8.43,-22.06 17.31,-44.59 25.94,-67.32 62.17,0 124.65,0 186.82,0 -9.92,22.73 -19.74,45.02 -29.48,67.32 -61.19,0 -122.09,0 -183.28,0 z m -261.96,0 c 6.61,-22.06 13.64,-44.59 20.42,-67.19 62.17,0 124.35,0 186.5,-0.13 -8.07,22.73 -16.07,45.26 -23.95,67.32 -61.18,0 -122.07,0 -182.97,0 z m -261.66,0.21 c 4.81,-22.27 9.66,-44.68 14.61,-67.4 62.79,0 124.65,0 186.49,0 -6.53,22.6 -12.68,45.13 -18.74,67.19 -60.26,0.1 -121.18,0.1 -182.36,0.21 z m -262.28,0 c 2.98,-22.18 6.01,-44.57 9.09,-67.4 62.48,0 124.64,0 186.81,0 -4.36,22.72 -8.66,45.13 -12.93,67.4 -61.2,0 -121.76,0 -182.97,0 z m -261.94,0 c 1.15,-22.07 2.34,-44.57 3.54,-67.29 62.16,0 124.33,0 186.81,0 -2.5,22.72 -4.97,45.22 -7.4,67.29 -61.19,0 -122.07,0 -182.95,0 z m -261.96,0.12 c -0.65,-22.19 -1.31,-44.59 -1.98,-67.32 62.81,0 124.98,-0.09 186.5,-0.09 -0.63,22.72 -1.25,45.22 -1.88,67.29 -60.25,0 -121.13,0.12 -182.64,0.12 z m -261.94,0.11 c -2.47,-22.17 -4.97,-44.7 -7.51,-67.43 62.17,0 124.33,0 186.5,0 1.23,22.73 2.44,45.13 3.65,67.32 -60.88,0.11 -121.76,0.11 -182.64,0.11 z m -261.64,0 c -4.27,-22.07 -8.62,-44.57 -13.02,-67.43 61.84,0 124.01,0 186.82,0 3.09,22.73 6.15,45.26 9.16,67.43 -61.51,0 -122.08,0 -182.96,0 z m -261.92,0.1 c -6.11,-22.17 -12.31,-44.67 -18.86,-67.41 62.8,0 124.96,0 186.78,-0.12 4.97,22.86 9.87,45.36 14.7,67.43 -60.57,0 -121.43,0.1 -182.62,0.1 z m -524.5,0.12 c -9.72,-22.07 -19.6,-44.69 -29.61,-67.42 62.17,0 124.32,0 186.81,0 9.02,22.73 17.61,45.22 26.06,67.42 -61.5,0 -122.38,0 -183.26,0 z m 2662.51,-111.99 c 9,-23.6 18.16,-47.55 27.44,-72.02 64.72,0 129.1,0 193.48,0 -10.69,24.47 -21.21,48.42 -31.57,72.02 -63,0 -126.34,0 -189.35,0 z m -271.12,0.12 c 7.09,-23.72 14.27,-47.67 21.57,-72.04 64.37,-0.1 128.76,-0.1 193.12,-0.1 -8.67,24.47 -17.22,48.42 -25.67,72.14 -63.01,0 -126.01,0 -189.02,0 z m -271.08,0 c 5.47,-23.63 10.67,-47.67 16.3,-72.04 64.38,0 128.75,0 192.81,0 -7.01,24.37 -13.59,48.32 -20.11,72.04 -62.66,0 -125.35,0 -189,0 z m -271.41,0.09 c 3.2,-23.72 6.44,-47.76 9.72,-72.13 64.71,0 129.09,0 193.46,0 -4.68,24.37 -9.28,48.41 -13.85,72.13 -63,0 -126.01,0 -189.33,0 z m -271.08,0 c 1.25,-23.72 2.51,-47.76 3.79,-72.13 64.39,0 128.76,0 193.48,0 -2.68,24.37 -5.34,48.41 -7.93,72.13 -63.33,0 -126.33,0 -189.34,0 z m -271.08,0 c -0.7,-23.6 -1.42,-47.64 -1.8,-72.13 64.72,0 129.09,0 193.14,0 -0.68,24.49 -1.67,48.41 -2.33,72.13 -62.36,0 -125.37,0 -189.01,0 z m -271.4,0.12 c -2.65,-23.72 -5.33,-47.65 -8.06,-72.25 64.71,0 129.09,0 193.47,0 1.33,24.49 2.63,48.53 3.92,72.13 -63.02,0 -126.02,0 -189.33,0.12 z m -270.75,0.11 c -4.59,-23.71 -9.24,-47.76 -13.98,-72.25 64.38,0 128.76,-0.11 193.47,-0.11 3.33,24.6 6.61,48.53 9.84,72.25 -63.33,0.11 -126.33,0.11 -189.33,0.11 z m -271.08,0 c -6.54,-23.71 -13.16,-47.76 -19.9,-72.25 65.04,0 129.42,0 193.8,0 5.34,24.49 10.58,48.54 15.43,72.25 -62.68,0 -125.68,0 -189.33,0 z m -542.48,0 c -10.43,-23.71 -20.99,-47.76 -31.76,-72.25 64.38,0 128.77,0 193.47,0 9.36,24.49 18.55,48.54 27.62,72.25 -63.32,0 -126.32,0 -189.33,0 z m 2757.14,-119.35 c 9.71,-25.48 19.58,-51.37 29.59,-77.72 66.76,0 133.52,0 200.61,0 -11.51,26.35 -22.87,52.24 -34.04,77.72 -65.6,0 -130.88,0 -196.16,0 z m -280.85,0 c 7.61,-25.48 15.36,-51.37 23.21,-77.72 66.75,0 133.51,0 200.61,0 -9.36,26.35 -18.58,52.24 -28,77.72 -65.27,0 -130.54,0 -195.82,0 z m -280.52,0 c 5.53,-25.48 11.15,-51.37 16.84,-77.72 66.76,0 133.52,0 199.93,0 -7.19,26.35 -14.3,52.24 -21.28,77.72 -64.94,0 -130.21,0 -195.49,0 z m -281.54,0 c 3.44,-25.48 6.95,-51.48 10.47,-77.72 67.1,0 133.86,0 200.62,0 -5.04,26.35 -10.02,52.24 -14.91,77.72 -65.27,0 -130.55,0 -196.18,0 z m -280.84,0 c 1.34,-25.48 2.71,-51.48 4.08,-77.72 66.76,0 133.52,0 200.96,0 -3.21,26.24 -6.07,52.24 -8.87,77.72 -65.62,0 -130.9,0 -196.17,0 z m -280.86,-0.11 c -0.75,-25.46 -1.51,-51.37 -2.28,-77.73 67.09,0 133.84,0 200.27,0 -0.72,26.36 -1.44,52.36 -2.17,77.84 -64.94,0 -130.21,-0.11 -195.82,-0.11 z m -281.2,0 c -2.84,-25.46 -5.74,-51.37 -8.67,-77.73 67.1,0 133.86,0 200.62,0 1.43,26.36 2.83,52.27 4.22,77.73 -65.29,0 -130.56,0 -196.17,0 z m -280.53,0 c -4.93,-25.46 -9.94,-51.37 -15.03,-77.73 66.76,0 133.52,0 200.62,0 3.58,26.36 7.11,52.27 10.58,77.73 -65.61,0 -130.89,0 -196.17,0 z m -280.87,0.11 c -7.01,-25.57 -14.15,-51.48 -21.39,-77.84 66.75,0 133.85,0 200.27,0 5.73,26.36 11.4,52.27 16.96,77.73 -64.95,0 -130.22,0.11 -195.84,0.11 z m -562.07,0 c -11.19,-25.48 -22.64,-51.6 -34.2,-77.96 66.77,0 133.19,0 200.63,0 10.06,26.36 20.01,52.48 29.75,77.96 -65.95,0 -130.89,0 -196.18,0 z m 281.21,0 c -9.11,-25.57 -18.42,-51.6 -27.77,-77.84 66.75,0 133.51,0 200.28,0 7.89,26.36 15.68,52.27 23.33,77.84 -65.28,0 -130.57,0 -195.84,0 z m 42.65,119.35 c -8.48,-23.71 -17.39,-47.76 -26.14,-72.25 64.38,0 128.75,0 193.13,0 7.36,24.49 14.58,48.54 21.7,72.25 -63,0 -126,0 -188.69,0 z m 39.81,111.55 c -7.9,-22.2 -15.94,-44.69 -24.07,-67.53 62.17,0 124.01,0 186.18,0 6.83,22.84 13.86,45.24 20.53,67.41 -60.88,0 -121.76,0.12 -182.64,0.12 z m 2280.45,200.91 c 7.47,-19.53 14.98,-39.3 22.57,-59.28 58.17,0 116.38,-0.12 174.86,-0.12 -8.79,20.1 -17.42,39.87 -25.96,59.29 -57.33,0 -114.71,0.11 -171.47,0.11 z m -245.43,0 c 5.83,-19.43 11.72,-39.19 17.71,-59.18 58.17,0 116.35,0 174.51,-0.1 -7.1,19.98 -14.15,39.85 -21.1,59.28 -57.34,0 -114.07,0 -171.12,0 z m -245.43,0.11 c 4.23,-19.54 8.5,-39.3 13.13,-59.17 58.47,0 116.07,-0.12 174.24,-0.12 -5.49,19.99 -11.18,39.75 -16.53,59.18 -56.76,0.11 -113.51,0.11 -170.84,0.11 z m -245.74,0.11 c 2.93,-19.54 5.59,-39.31 8.29,-59.28 58.18,0 116.34,0 174.52,0 -3.83,19.97 -7.62,39.63 -11.39,59.17 -57.04,0.11 -114.09,0.11 -171.42,0.11 z m -245.13,0 c 1.03,-19.54 2.09,-39.2 3.14,-59.17 58.17,0 116.05,-0.11 174.82,-0.11 -2.22,20.08 -4.39,39.74 -6.84,59.28 -57.33,0 -114.38,0 -171.12,0 z m -245.44,0.1 c -0.55,-19.53 -1.12,-39.18 -1.69,-59.17 58.46,0 116.93,-0.1 174.5,-0.1 -0.57,19.97 -1.12,39.63 -1.69,59.17 -56.74,0 -113.79,0.1 -171.12,0.1 z m -245.42,0 c -2.15,-19.42 -4.33,-39.18 -6.54,-59.05 58.47,0 116.33,-0.12 174.5,-0.12 1.07,19.99 2.13,39.64 3.17,59.17 -56.75,0 -113.79,0 -171.13,0 z m -245.12,0 c -3.73,-19.32 -7.52,-39.08 -11.39,-59.05 58.17,0 116.33,0 174.8,0 2.7,19.87 5.37,39.63 8,59.05 -57.33,0 -114.37,0 -171.41,0 z m -245.11,0.12 c -5.34,-19.44 -11.04,-39.2 -16.52,-59.06 58.46,0 116.91,-0.11 174.77,-0.11 4.37,19.97 8.64,39.73 12.87,59.17 -57.04,0 -114.08,0 -171.12,0 z m -491.37,0.21 c -8.54,-19.53 -17.18,-39.19 -25.94,-59.06 58.17,0 116.3,-0.11 174.76,-0.11 7.65,19.98 15.16,39.64 22.55,59.08 -57.33,0 -114.33,0.09 -171.37,0.09 z m 245.96,-0.09 c -6.94,-19.56 -13.93,-39.2 -21.08,-59.18 57.87,0 116.04,0 174.2,0 5.98,19.86 11.88,39.62 17.71,59.18 -57.05,0 -113.79,0 -170.83,0 z m -34.73,-97.41 c -7.69,-20.74 -15.2,-41.71 -22.82,-63.12 60.1,0 120.19,0 180.29,0 6.4,21.3 12.71,42.38 18.88,63.03 -58.86,0.09 -117.75,0.09 -176.35,0.09 v 0"
         style="fill:#949595;fill-opacity:1;fill-rule:evenodd;stroke:none"
         transform="matrix(0.13333333,0,0,-0.13333333,0,800.12)" />
      <path
         id="path36"
         d="m 3359.37,2776.46 c 5.47,-23.63 10.67,-47.67 16.3,-72.04 64.38,0 128.75,0 192.81,0 -7.01,24.37 -13.59,48.32 -20.11,72.04 -62.66,0 -125.35,0 -189,0 z m -1355.72,0.32 c -4.59,-23.71 -9.24,-47.76 -13.98,-72.25 64.38,0 128.76,-0.11 193.47,-0.11 3.33,24.6 6.61,48.53 9.84,72.25 -63.33,0.11 -126.33,0.11 -189.33,0.11 z m -271.08,0 c -6.54,-23.71 -13.16,-47.76 -19.9,-72.25 65.04,0 129.42,0 193.8,0 5.34,24.49 10.58,48.54 15.43,72.25 -62.68,0 -125.68,0 -189.33,0 z m 1933.81,-119.35 c 7.61,-25.48 15.36,-51.37 23.21,-77.72 66.75,0 133.51,0 200.61,0 -9.36,26.35 -18.58,52.24 -28,77.72 -65.27,0 -130.54,0 -195.82,0 z m -280.52,0 c 5.53,-25.48 11.15,-51.37 16.84,-77.72 66.76,0 133.52,0 199.93,0 -7.19,26.35 -14.3,52.24 -21.28,77.72 -64.94,0 -130.21,0 -195.49,0 z m -1685.84,0 c -7.01,-25.57 -14.15,-51.48 -21.39,-77.84 66.75,0 133.85,0 200.27,0 5.73,26.36 11.4,52.27 16.96,77.73 -64.95,0 -130.22,0.11 -195.84,0.11 z m -280.86,0 c -9.11,-25.57 -18.42,-51.6 -27.77,-77.84 66.75,0 133.51,0 200.28,0 7.89,26.36 15.68,52.27 23.33,77.84 -65.28,0 -130.57,0 -195.84,0 z m 1840.81,209.37 c -61.39,2.18 -122.67,0.62 -183.53,-4.75 l 5.61,-41.57 c 62.48,0 124.64,0 186.81,0 l -8.89,46.32 z m 272.73,-33.59 c -63.68,13.29 -127.72,22.86 -191.8,28.49 l 8.95,-41.22 c 62.79,0 124.65,0 186.49,0 -1.23,4.24 -2.43,8.49 -3.64,12.73 z m 298.87,-90.68 c -30.35,12.14 -60.9,23.46 -91.66,33.93 h -109.46 c 7.09,-23.72 14.27,-47.67 21.57,-72.04 64.37,-0.1 128.76,-0.1 193.12,-0.1 -4.55,12.87 -9.07,25.59 -13.57,38.21 z m 317.77,-162.82 c -43.84,27.74 -88.58,53.68 -134.08,77.72 h -68.03 c 9.71,-25.48 19.58,-51.37 29.59,-77.72 h 172.52 z m -981.78,77.72 51.97,-77.72 h 95.88 c -5.04,26.35 -10.02,52.24 -14.91,77.72 h -132.94 z m -79.6,119.12 48.21,-72.13 h 154.97 c -4.68,24.37 -9.28,48.41 -13.85,72.13 h -189.33 z m -1067.69,84.6 c 60.89,3.82 122.5,3.83 184.52,0.04 l -5.51,-40.51 c -62.81,0 -124.98,0 -186.82,0 l 7.81,40.47 z m -263.51,-40.35 c 59.58,14.67 120.32,25.73 181.93,32.98 l -7.21,-33.1 c -57.86,0.1 -116.02,0.12 -174.72,0.12 z m -314.7,-116.27 c 54.54,27.46 110.83,51.58 168.55,72.25 h 39.89 c -7.12,-23.71 -14.34,-47.76 -21.7,-72.25 h -186.74 z m -205.65,-125.06 c 29.66,21.49 60.12,41.86 91.27,61.1 l -23.3,-61.1 h -67.97 z m 934.3,31.23 -14.39,-31.11 h -190.46 c 5.09,26.36 10.1,52.27 15.03,77.73 65.28,0 130.56,0 196.17,0 l -6.35,-46.62 v 0"
         style="fill:#7a7b7d;fill-opacity:1;fill-rule:evenodd;stroke:none"
         transform="matrix(0.13333333,0,0,-0.13333333,0,800.12)" />
      <path
         id="path37"
         d="m 2081.77,2517.89 c 186.39,0 373.13,0 559.52,0 186.39,0 373.13,0 559.87,0 15.06,-96.17 30.96,-197.63 47.79,-304.99 -202.71,0 -405.44,0 -607.78,0 -202.35,0 -405.06,0 -607.41,-0.13 16.88,107.39 32.85,208.83 48.01,305.12"
         style="fill:#949595;fill-opacity:1;fill-rule:evenodd;stroke:none"
         transform="matrix(0.13333333,0,0,-0.13333333,0,800.12)" />
      <path
         id="path38"
         d="m 3209.85,2462.4 39.1,-249.5 h -25.3 c -60.17,16.47 -115.91,55 -154.74,107.03 -19.43,26.05 -25.88,57.45 -17.15,83.55 12.08,36.16 45.22,58.73 86.29,58.8 z m -1128.08,55.49 h 46.03 l -26.12,-56.5 h 158.73 c 40.8,0 78.3,-22.39 97.68,-58.29 13.99,-25.89 13.99,-57.12 0,-83.01 -28.31,-52.44 -76.68,-91.13 -134.05,-107.24 -63.45,-0.02 -126.88,-0.02 -190.28,-0.08 16.88,107.39 32.85,208.83 48.01,305.12 v 0"
         style="fill:#7a7b7d;fill-opacity:1;fill-rule:evenodd;stroke:none"
         transform="matrix(0.13333333,0,0,-0.13333333,0,800.12)" />
      <path
         id="path39"
         d="m 1296.27,2065.28 c 153.18,-92.07 459.07,-54.02 611.8,69.56 91.76,74.23 195.71,185.98 294.67,237.92 206.48,108.38 56.8,284.55 -140.56,203.74 -87.11,-35.66 -128.51,-159.6 -167.6,-5.8 l 153.45,215.36 c 34.16,47.92 80.84,41.7 130.3,33.74 195.38,-31.45 216.47,130.55 134.92,202.09 -38.07,33.39 -84.32,47.87 -131.4,41.09 -39.32,58.72 -173.26,101.46 -271.76,51.74 -111.04,66.1 -179.62,49.36 -246.78,7.97 -86.35,27 -137.99,66.38 -232.16,0.66 -65.02,-45.38 -73.79,-59.88 -128.36,-135.89 -174.17,-242.51 -455.157,-378.07 -678.579,-524.65 -406.875,-266.9 79.922,-889.12 349.125,-515.94 70.094,97.19 85.894,84.81 322.934,118.41"
         style="fill:#f1485f;fill-opacity:1;fill-rule:evenodd;stroke:none"
         transform="matrix(0.13333333,0,0,-0.13333333,0,800.12)" />
      <path
         id="path40"
         d="m 570.227,2513.14 291.351,132.03 c 170.622,77.32 372.042,11.79 464.502,-151.12 92.47,-162.92 29.69,-349.73 -108.4,-476.3 l -209.07,-191.62 -438.383,687.01"
         style="fill:#ffffff;fill-opacity:1;fill-rule:evenodd;stroke:none"
         transform="matrix(0.13333333,0,0,-0.13333333,0,800.12)" />
      <path
         id="path41"
         d="m 185.797,2384.19 432.914,196.17 c 213.785,96.9 466.169,14.78 582.029,-189.33 115.85,-204.12 37.2,-438.21 -135.82,-596.8 L 755.066,1510.25 C 511.465,1758.82 316.5,2055.22 185.797,2384.19"
         style="fill:#2e2d2d;fill-opacity:1;fill-rule:evenodd;stroke:none"
         transform="matrix(0.13333333,0,0,-0.13333333,0,800.12)" />
      <path
         id="path42"
         d="m 3987.23,2065.28 c -153.17,-92.07 -459.05,-54.02 -611.78,69.56 -91.76,74.23 -195.74,185.98 -294.67,237.92 -206.49,108.38 -56.81,284.55 140.54,203.74 87.12,-35.66 128.53,-159.6 167.61,-5.8 l -153.47,215.36 c -34.13,47.92 -80.83,41.7 -130.28,33.74 -195.38,-31.45 -216.46,130.55 -134.92,202.09 38.07,33.39 84.33,47.87 131.41,41.09 39.31,58.72 173.24,101.46 271.75,51.74 111.04,66.1 179.61,49.36 246.78,7.97 86.36,27 138,66.38 232.16,0.66 65.02,-45.38 73.79,-59.88 128.37,-135.89 174.17,-242.51 455.15,-378.07 678.58,-524.65 406.86,-266.9 -79.92,-889.12 -349.13,-515.94 -70.11,97.19 -85.91,84.81 -322.95,118.41"
         style="fill:#f1485f;fill-opacity:1;fill-rule:evenodd;stroke:none"
         transform="matrix(0.13333333,0,0,-0.13333333,0,800.12)" />
      <path
         id="path43"
         d="m 4713.29,2513.14 -291.36,132.03 c -170.62,77.32 -372.03,11.79 -464.5,-151.12 -92.46,-162.92 -29.69,-349.73 108.4,-476.3 l 209.07,-191.62 438.39,687.01"
         style="fill:#ffffff;fill-opacity:1;fill-rule:evenodd;stroke:none"
         transform="matrix(0.13333333,0,0,-0.13333333,0,800.12)" />
      <path
         id="path44"
         d="m 5097.72,2384.19 -432.93,196.17 c -213.77,96.9 -466.16,14.78 -582.01,-189.33 -115.86,-204.12 -37.21,-438.21 135.81,-596.8 l 309.84,-283.98 c 243.63,248.57 438.59,544.97 569.29,873.94"
         style="fill:#2e2d2d;fill-opacity:1;fill-rule:evenodd;stroke:none"
         transform="matrix(0.13333333,0,0,-0.13333333,0,800.12)" />
      <path
         id="path45"
         d="m 2806.16,3451.45 h 276.54 v -57.67 h -276.54 z m -493.28,0 h 206.34 v -57.67 h -206.34 v 57.67 z m -777.74,0 h 349.8 v -57.67 h -349.8 v 57.67 z m 1578.71,1031.04 h 407.81 v -57.68 h -407.81 v 57.68 z m -821.71,0 h 487.17 v -57.68 h -487.17 v 57.68 z m -494.49,0 h 325.99 v -57.68 h -325.99 v 57.68 z m -262.51,0 h 119.65 v -57.68 h -119.65 v 57.68 z m 1053.69,-128.88 h 671.54 v -57.68 h -671.54 v 57.68 z m -501.81,0 h 333.33 v -57.68 h -333.33 v 57.68 z m -289.37,0 h 146.52 v -57.68 h -146.52 v 57.68 z m 1412.66,-128.88 h 207.56 v -57.68 h -207.56 v 57.68 z m -416.35,0 h 247.86 v -57.68 h -247.86 v 57.68 z m -556.76,0 h 247.85 v -57.68 H 2237.2 v 57.68 z m -439.55,0 h 339.42 v -57.68 h -339.42 v 57.68 z m 1256.37,-128.88 h 266.16 v -57.68 h -266.16 v 57.68 z m -322.34,0 h 229.54 v -57.68 h -229.54 v 57.68 z m -452.97,0 h 173.37 v -57.68 h -173.37 v 57.68 z m -481.06,0 h 146.52 v -57.68 h -146.52 v 57.68 z m 1163.57,-128.88 h 205.11 v -57.69 h -205.11 v 57.69 z m -442,0 h 286.94 v -57.69 h -286.94 v 57.69 z m -575.05,0 h 216.09 v -57.69 h -216.09 v 57.69 z m -409.03,0 h 290.57 v -57.69 h -290.57 v 57.69 z m 1767.95,-128.88 h 159.94 v -57.68 h -159.94 v 57.68 z m -689.84,0 h 410.24 v -57.68 h -410.24 v 57.68 z m -641.02,0 h 306.48 v -57.68 h -306.48 v 57.68 z m -437.09,0 h 157.49 v -57.68 h -157.49 v 57.68 z m 1271.02,-128.88 h 423.67 v -57.69 h -423.67 v 57.69 z m -477.4,0 h 156.29 v -57.69 h -156.29 v 57.69 z m -793.62,0 h 349.8 v -57.69 h -349.8 v 57.69 z m 1106.62,902.16 h 579.54 v -57.68 h -579.54 v 57.68 z m -741.55,0 h 459.09 v -57.68 h -459.09 v 57.68 z m -365.07,0 h 208.79 v -57.68 h -208.79 v 57.68 z M 3229.83,3580.32 h 289.96 v -57.67 h -289.96 v 57.67 z m -584.23,0 h 289.97 v -57.67 H 2645.6 v 57.67 z m -508.53,0 h 228.31 v -57.67 h -228.31 v 57.67 z m -601.93,0 h 125.74 v -57.67 h -125.74 v 57.67 0"
         style="fill:#4c68bb;fill-opacity:1;fill-rule:evenodd;stroke:none"
         transform="matrix(0.13333333,0,0,-0.13333333,0,800.12)" />
    </g>
  </g>
</svg>
