<?xml version="1.0" encoding="UTF-8" standalone="no"?>
<!-- Created with Inkscape (http://www.inkscape.org/) -->

<svg
   version="1.1"
   id="svg1"
   width="546.46667"
   height="648.06665"
   viewBox="0 0 546.46667 648.06665"
   sodipodi:docname="restaurant-table-publicdomainvectors.org.svg"
   inkscape:version="1.3.2 (091e20ef0f, 2023-11-25, custom)"
   xmlns:inkscape="http://www.inkscape.org/namespaces/inkscape"
   xmlns:sodipodi="http://sodipodi.sourceforge.net/DTD/sodipodi-0.dtd"
   xmlns="http://www.w3.org/2000/svg"
   xmlns:svg="http://www.w3.org/2000/svg">
  <defs
     id="defs1" />
  <sodipodi:namedview
     id="namedview1"
     pagecolor="#505050"
     bordercolor="#ffffff"
     borderopacity="1"
     inkscape:showpageshadow="0"
     inkscape:pageopacity="0"
     inkscape:pagecheckerboard="1"
     inkscape:deskcolor="#d1d1d1"
     inkscape:zoom="1.1943216"
     inkscape:cx="272.95831"
     inkscape:cy="324.03333"
     inkscape:window-width="1920"
     inkscape:window-height="1002"
     inkscape:window-x="0"
     inkscape:window-y="0"
     inkscape:window-maximized="1"
     inkscape:current-layer="g1">
    <inkscape:page
       x="0"
       y="0"
       inkscape:label="1"
       id="page1"
       width="546.46667"
       height="648.06665"
       margin="0"
       bleed="0" />
  </sodipodi:namedview>
  <g
     id="g1"
     inkscape:groupmode="layer"
     inkscape:label="1">
    <g
       id="group-R5">
      <path
         id="path2"
         d="m 1133.91,72.9219 c 0,5.457 -0.78,10.1797 -2.41,14.039 -1.57,3.9102 -3.78,6.9297 -6.62,9.0586 -2.83,2.0703 -5.94,3.1289 -9.39,3.1289 -5.45,0 -10.06,-2.2968 -13.81,-6.7578 -3.75,-4.5117 -5.63,-11.0898 -5.63,-19.8203 0,-8.2305 1.88,-14.6289 5.57,-19.1406 3.75,-4.5781 8.38,-6.8906 13.87,-6.8906 3.28,0 6.35,1 9.16,3.0195 2.76,1.9922 5.02,4.9727 6.72,8.9219 1.71,4.0195 2.54,8.8086 2.54,14.4414 z m -38.77,30.0901 v -2.492 c 3.71,4.769 7.56,8.332 11.56,10.539 4.02,2.25 8.59,3.402 13.67,3.402 6.08,0 11.68,-1.66 16.81,-4.941 5.11,-3.278 9.15,-8.04 12.14,-14.3716 2.97,-6.3164 4.43,-13.7578 4.43,-22.3789 0,-6.3398 -0.83,-12.25 -2.55,-17.4882 -1.71,-5.3399 -4.07,-9.8321 -7.06,-13.4219 -3,-3.6094 -6.56,-6.3985 -10.61,-8.3086 -4.11,-1.9805 -8.51,-2.9297 -13.16,-2.9297 -5.68,0 -10.43,1.1797 -14.27,3.5508 -3.87,2.3672 -7.51,5.8203 -10.96,10.4179 V 13.6211 C 1095.14,4.51953 1091.96,0 1085.63,0 c -3.72,0 -6.2,1.14844 -7.37,3.49219 -1.22,2.34765 -1.81,5.76953 -1.81,10.25001 v 89.1288 c 0,3.93 0.79,6.879 2.45,8.809 1.67,1.929 3.9,2.922 6.73,2.922 2.81,0 5.09,-0.993 6.85,-3.012 1.76,-2.008 2.66,-4.871 2.66,-8.578"
         style="fill:#948580;fill-opacity:1;fill-rule:nonzero;stroke:none"
         transform="matrix(0.13333333,0,0,-0.13333333,0,648.06667)" />
      <path
         id="path3"
         d="m 1221.05,42.3008 v 2.5976 c -2.38,-3.1093 -4.86,-5.7187 -7.48,-7.8281 -2.6,-2.1601 -5.45,-3.7187 -8.53,-4.7305 -3.13,-1.0312 -6.64,-1.5585 -10.61,-1.5585 -4.75,0 -9.04,1.0507 -12.85,3.0898 -3.8,2.0703 -6.74,4.918 -8.79,8.5391 -2.5,4.3984 -3.7,10.7109 -3.7,18.8906 V 102.23 c 0,4.102 0.89,7.219 2.69,9.25 1.78,2.04 4.14,3.059 7.08,3.059 3.01,0 5.41,-1.019 7.25,-3.109 1.84,-2.071 2.75,-5.16 2.75,-9.2 V 69.1484 c 0,-4.7461 0.38,-8.7773 1.13,-12.0078 0.81,-3.2617 2.2,-5.8086 4.22,-7.6797 1.96,-1.8125 4.7,-2.7304 8.12,-2.7304 3.37,0 6.5,1.0508 9.43,3.1093 2.97,2.0391 5.12,4.7305 6.46,8.0586 1.12,2.9336 1.66,9.3321 1.66,19.211 V 102.23 c 0,4.04 0.92,7.129 2.78,9.2 1.81,2.09 4.18,3.109 7.14,3.109 2.95,0 5.32,-1.019 7.1,-3.059 1.77,-2.031 2.65,-5.148 2.65,-9.25 V 42.4102 c 0,-3.918 -0.82,-6.8789 -2.54,-8.8204 -1.7,-2 -3.9,-2.9492 -6.62,-2.9492 -2.69,0 -4.92,1.0391 -6.7,3.0313 -1.76,2.0664 -2.64,4.9101 -2.64,8.6289"
         style="fill:#948580;fill-opacity:1;fill-rule:nonzero;stroke:none"
         transform="matrix(0.13333333,0,0,-0.13333333,0,648.06667)" />
      <path
         id="path4"
         d="m 1278.44,72.1016 c 0,-8.211 1.78,-14.5 5.37,-18.9219 3.61,-4.3984 8.34,-6.6406 14.2,-6.6406 4.98,0 9.24,2.2812 12.86,6.7812 3.62,4.5195 5.42,10.9492 5.42,19.3906 0,5.5 -0.75,10.1602 -2.26,14.0782 -1.51,3.9492 -3.65,6.9922 -6.37,9.1211 -2.8,2.1406 -5.97,3.2382 -9.65,3.2382 -3.81,0 -7.11,-1.0976 -10.08,-3.2382 -2.97,-2.1289 -5.26,-5.2383 -6.97,-9.3204 -1.69,-4.0195 -2.52,-8.8281 -2.52,-14.4882 z m -0.94,61.3784 v -31.558 c 3.67,4.07 7.49,7.117 11.35,9.308 3.86,2.141 8.67,3.231 14.35,3.231 6.59,0 12.34,-1.66 17.29,-4.879 4.94,-3.312 8.81,-7.992 11.52,-14.1601 2.76,-6.1719 4.1,-13.4922 4.1,-21.961 0,-6.2695 -0.75,-11.9921 -2.25,-17.25 -1.54,-5.1914 -3.72,-9.6914 -6.63,-13.5703 -2.93,-3.8086 -6.45,-6.7422 -10.56,-8.9101 -4.15,-2.0508 -8.7,-3.1094 -13.67,-3.1094 -3.02,0 -5.91,0.3906 -8.61,1.1289 -2.67,0.7617 -4.98,1.75 -6.81,3.0195 -1.92,1.1719 -3.52,2.4922 -4.86,3.7696 -1.31,1.332 -3.05,3.2812 -5.22,5.9023 v -2.0312 c 0,-3.8907 -0.92,-6.8204 -2.71,-8.8204 -1.76,-2 -4.07,-2.9687 -6.79,-2.9687 -2.82,0 -5.04,0.9687 -6.73,2.9687 -1.65,2.0391 -2.48,4.9493 -2.48,8.8204 v 90.1718 c 0,4.148 0.8,7.316 2.44,9.449 1.61,2.16 3.85,3.231 6.77,3.231 3.03,0 5.38,-1.024 7,-3.082 1.66,-2.02 2.5,-4.91 2.5,-8.7"
         style="fill:#948580;fill-opacity:1;fill-rule:nonzero;stroke:none"
         transform="matrix(0.13333333,0,0,-0.13333333,0,648.06667)" />
      <path
         id="path5"
         d="m 1350.08,43.1914 v 89.5196 c 0,4.148 0.88,7.25 2.62,9.379 1.79,2.101 4.16,3.172 7.15,3.172 3,0 5.4,-1.032 7.25,-3.141 1.81,-2.082 2.76,-5.242 2.76,-9.41 V 43.1914 c 0,-4.1914 -0.95,-7.3516 -2.81,-9.4609 -1.84,-2.0508 -4.26,-3.1094 -7.2,-3.1094 -2.9,0 -5.22,1.0898 -7.05,3.25 -1.81,2.1797 -2.72,5.2578 -2.72,9.3203"
         style="fill:#948580;fill-opacity:1;fill-rule:nonzero;stroke:none"
         transform="matrix(0.13333333,0,0,-0.13333333,0,648.06667)" />
      <path
         id="path6"
         d="M 1410.06,102.809 V 43.1914 c 0,-4.1601 -0.97,-7.293 -2.8,-9.4101 -1.91,-2.0704 -4.31,-3.1602 -7.18,-3.1602 -2.91,0 -5.28,1.0898 -7.07,3.2383 -1.8,2.1914 -2.74,5.2695 -2.74,9.332 V 102.23 c 0,4.04 0.94,7.129 2.74,9.2 1.79,2.09 4.16,3.109 7.07,3.109 2.87,0 5.27,-1.019 7.18,-3.109 1.83,-2.071 2.8,-4.93 2.8,-8.621 z m -9.79,21.351 c -2.75,0 -5.08,0.879 -7.09,2.692 -1.9,1.757 -2.91,4.269 -2.91,7.507 0,2.911 1.01,5.289 3.02,7.211 2,1.899 4.33,2.789 6.98,2.789 2.56,0 4.85,-0.828 6.82,-2.527 1.97,-1.723 2.97,-4.242 2.97,-7.473 0,-3.211 -0.98,-5.687 -2.91,-7.449 -1.94,-1.789 -4.2,-2.75 -6.88,-2.75"
         style="fill:#948580;fill-opacity:1;fill-rule:nonzero;stroke:none"
         transform="matrix(0.13333333,0,0,-0.13333333,0,648.06667)" />
      <path
         id="path7"
         d="m 1501.35,56.1797 c 0,-2.5586 -0.72,-5.3203 -2.19,-8.2383 -1.49,-2.9219 -3.74,-5.6914 -6.77,-8.3516 -3,-2.6289 -6.8,-4.7578 -11.39,-6.371 -4.59,-1.6485 -9.77,-2.4375 -15.5,-2.4375 -12.24,0 -21.77,3.7304 -28.63,11.1601 -6.85,7.4375 -10.29,17.3789 -10.29,29.8906 0,8.4571 1.56,15.9688 4.69,22.4571 3.13,6.4609 7.71,11.5309 13.63,15.0699 5.93,3.571 13.06,5.352 21.29,5.352 5.14,0 9.85,-0.801 14.12,-2.34 4.27,-1.582 7.89,-3.609 10.86,-6.051 2.97,-2.48 5.24,-5.121 6.82,-7.8981 1.58,-2.793 2.34,-5.4102 2.34,-7.8321 0,-2.4375 -0.9,-4.5312 -2.63,-6.2578 -1.78,-1.7304 -3.89,-2.582 -6.41,-2.582 -1.66,0 -3.01,0.4805 -4.12,1.3594 -1.06,0.8515 -2.29,2.2304 -3.65,4.25 -2.41,3.8125 -4.95,6.6992 -7.57,8.6601 -2.64,1.8907 -5.99,2.8789 -10.01,2.8789 -5.88,0 -10.59,-2.4179 -14.15,-7.1796 -3.59,-4.7891 -5.35,-11.2969 -5.35,-19.5704 0,-3.8593 0.45,-7.4687 1.38,-10.6992 0.91,-3.2578 2.24,-6.0273 3.97,-8.3281 1.75,-2.3008 3.83,-4.0313 6.3,-5.2109 2.46,-1.211 5.17,-1.7891 8.1,-1.7891 3.99,0 7.36,0.9375 10.2,2.8711 2.83,1.9297 5.33,4.8594 7.5,8.75 1.21,2.3672 2.51,4.168 3.91,5.4883 1.42,1.3203 3.14,1.9492 5.16,1.9492 2.41,0 4.41,-0.9414 6.02,-2.8477 1.57,-1.9609 2.37,-3.9804 2.37,-6.1523"
         style="fill:#948580;fill-opacity:1;fill-rule:nonzero;stroke:none"
         transform="matrix(0.13333333,0,0,-0.13333333,0,648.06667)" />
      <path
         id="path8"
         d="m 1533.94,72.7109 c 0,-5.6015 0.83,-10.3398 2.49,-14.289 1.68,-3.9531 3.92,-6.8711 6.82,-8.8633 2.92,-2.0195 6.09,-3.0195 9.48,-3.0195 3.49,0 6.66,0.9726 9.54,2.8398 2.89,1.9024 5.15,4.8125 6.89,8.7227 1.72,3.8789 2.57,8.7773 2.57,14.6093 0,5.5196 -0.85,10.2188 -2.57,14.1993 -1.74,3.9609 -4.04,6.9804 -6.95,9.1093 -2.93,2.0703 -6.12,3.1289 -9.59,3.1289 -3.62,0 -6.85,-1.0976 -9.71,-3.2382 -2.83,-2.1289 -5.07,-5.2305 -6.63,-9.2383 -1.55,-4.0235 -2.34,-8.6328 -2.34,-13.961 z m 38.87,-30.3007 v 2.0312 c -2.65,-3.1797 -5.27,-5.7617 -7.89,-7.7226 -2.54,-2.0079 -5.36,-3.5196 -8.38,-4.5586 -3,-1.0118 -6.31,-1.5391 -9.87,-1.5391 -4.73,0 -9.14,1.0586 -13.15,3.1094 -4.03,2.1679 -7.51,5.1211 -10.46,9 -2.94,3.8711 -5.18,8.4297 -6.71,13.6992 -1.55,5.2187 -2.29,10.9023 -2.29,17.0312 0,12.8711 3.03,22.9805 9.07,30.1801 6.05,7.211 13.98,10.82 23.82,10.82 5.7,0 10.51,-1.051 14.42,-3.129 3.9,-2 7.73,-5.152 11.44,-9.41 v 30.476 c 0,4.243 0.8,7.454 2.43,9.602 1.62,2.18 3.9,3.262 6.91,3.262 2.99,0 5.29,-1 6.93,-2.973 1.6,-1.988 2.44,-4.93 2.44,-8.809 V 42.4102 c 0,-3.918 -0.88,-6.8789 -2.62,-8.8204 -1.75,-2 -3.98,-2.9687 -6.75,-2.9687 -2.68,0 -4.94,1.0078 -6.71,3.0508 -1.75,2.039 -2.63,4.9297 -2.63,8.7383"
         style="fill:#948580;fill-opacity:1;fill-rule:nonzero;stroke:none"
         transform="matrix(0.13333333,0,0,-0.13333333,0,648.06667)" />
      <path
         id="path9"
         d="m 1665.57,72.5391 c 0,8.3906 -1.81,14.9609 -5.34,19.6523 -3.55,4.6602 -8.34,7.0274 -14.31,7.0274 -3.89,0 -7.28,-1.0469 -10.23,-3.1368 -2.94,-2.1211 -5.2,-5.2109 -6.8,-9.2929 -1.59,-4.0391 -2.4,-8.7774 -2.4,-14.25 0,-5.3985 0.81,-10.0977 2.36,-14.1172 1.56,-4.0313 3.82,-7.1211 6.76,-9.2735 2.91,-2.1367 6.37,-3.1875 10.31,-3.1875 5.97,0 10.76,2.3399 14.31,7.0508 3.53,4.6992 5.34,11.2266 5.34,19.5274 z m 19.84,0 c 0,-6.1094 -0.93,-11.8008 -2.75,-17.0196 -1.84,-5.1484 -4.5,-9.6211 -7.95,-13.3593 -3.51,-3.7383 -7.66,-6.5313 -12.48,-8.5704 -4.83,-2 -10.31,-2.9687 -16.31,-2.9687 -5.98,0 -11.38,0.9687 -16.14,3.0195 -4.79,2.0117 -8.95,4.8985 -12.46,8.6602 -3.48,3.7695 -6.13,8.1601 -7.96,13.2812 -1.81,5.1485 -2.71,10.7696 -2.71,17 0,6.25 0.93,11.9571 2.74,17.1289 1.84,5.2188 4.46,9.6289 7.9,13.3401 3.43,3.668 7.57,6.5 12.49,8.488 4.89,2 10.24,3 16.14,3 5.99,0 11.43,-1 16.31,-3.027 4.86,-2.012 9.04,-4.91 12.52,-8.641 3.49,-3.7226 6.13,-8.1796 7.91,-13.3319 1.85,-5.1172 2.75,-10.7969 2.75,-17"
         style="fill:#948580;fill-opacity:1;fill-rule:nonzero;stroke:none"
         transform="matrix(0.13333333,0,0,-0.13333333,0,648.06667)" />
      <path
         id="path10"
         d="m 1768.95,89.5898 c -1.49,-3.4804 -2.19,-9.6484 -2.19,-18.5078 V 43.6406 c 0,-4.3086 -0.93,-7.5898 -2.83,-9.7695 -1.88,-2.1602 -4.4,-3.25 -7.48,-3.25 -2.97,0 -5.4,1.0898 -7.24,3.25 -1.87,2.1797 -2.77,5.4609 -2.77,9.7695 v 32.9297 c 0,5.1797 -0.2,9.1992 -0.54,12.1094 -0.34,2.8516 -1.25,5.2187 -2.76,7.0586 -1.46,1.8633 -3.84,2.7812 -7.07,2.7812 -6.46,0 -10.72,-2.3281 -12.79,-6.9882 -2.07,-4.6211 -3.05,-11.2813 -3.05,-19.9805 V 43.6406 c 0,-4.3008 -0.95,-7.539 -2.79,-9.6914 -1.87,-2.2383 -4.32,-3.3281 -7.33,-3.3281 -3.02,0 -5.5,1.0898 -7.4,3.3281 -1.92,2.1524 -2.83,5.3906 -2.83,9.6797 v 59.0821 c 0,3.891 0.82,6.84 2.52,8.848 1.74,2.011 4,3.043 6.82,3.043 2.69,0 4.96,-0.942 6.76,-2.832 1.8,-1.891 2.71,-4.481 2.71,-7.821 v -1.969 c 3.42,4.29 7.1,7.461 11,9.45 3.9,2.011 8.3,3.031 13.04,3.031 4.97,0 9.22,-1.051 12.8,-3.129 3.59,-2.043 6.52,-5.184 8.83,-9.352 3.34,4.2 6.91,7.379 10.74,9.411 3.82,2.05 8.03,3.07 12.65,3.07 5.45,0 10.1,-1.09 13.99,-3.34 3.92,-2.223 6.83,-5.391 8.78,-9.531 1.7,-3.7306 2.53,-9.6017 2.53,-17.6291 V 43.6406 c 0,-4.3086 -0.94,-7.5898 -2.8,-9.7695 -1.92,-2.1602 -4.38,-3.25 -7.48,-3.25 -3,0 -5.45,1.0898 -7.34,3.3281 -1.93,2.1524 -2.89,5.3906 -2.89,9.6914 v 34.7383 c 0,4.4414 -0.18,7.9922 -0.53,10.6602 -0.37,2.7109 -1.35,4.9218 -2.96,6.7422 -1.58,1.8203 -4.01,2.7382 -7.21,2.7382 -2.61,0 -5.1,-0.8203 -7.41,-2.3984 -2.38,-1.6406 -4.16,-3.8008 -5.48,-6.5313 v 0"
         style="fill:#948580;fill-opacity:1;fill-rule:nonzero;stroke:none"
         transform="matrix(0.13333333,0,0,-0.13333333,0,648.06667)" />
      <path
         id="path11"
         d="m 1880.96,72.1484 c -2.91,-1.1289 -7.13,-2.2773 -12.66,-3.5273 -5.54,-1.2422 -9.36,-2.1289 -11.49,-2.7305 -2.13,-0.6015 -4.16,-1.7187 -6.07,-3.3906 -1.95,-1.7383 -2.93,-4.0781 -2.93,-7.1094 0,-3.1484 1.15,-5.789 3.4,-7.9922 2.29,-2.207 5.26,-3.289 8.94,-3.289 3.9,0 7.54,0.9101 10.83,2.6992 3.31,1.7812 5.76,4.1133 7.27,6.9102 1.8,3.1406 2.71,8.2617 2.71,15.4921 z m 1.29,-29.8984 c -4.8,-3.8906 -9.42,-6.7891 -13.88,-8.6992 -4.45,-1.9805 -9.49,-2.9297 -15.02,-2.9297 -5.11,0 -9.52,1.0586 -13.39,3.1094 -3.87,2.1093 -6.8,4.9492 -8.89,8.5703 -2.05,3.5703 -3.11,7.418 -3.11,11.6211 0,5.6484 1.76,10.4492 5.17,14.4375 3.4,3.9609 8.11,6.6406 14.1,8.0117 1.26,0.3008 4.39,0.9609 9.33,2.0078 5.03,1.0899 9.25,2.043 12.85,2.9219 3.52,0.8711 7.4,1.9375 11.55,3.1875 -0.26,5.4726 -1.3,9.4726 -3.15,12.0625 -1.88,2.5195 -5.76,3.7692 -11.57,3.7692 -5.05,0 -8.81,-0.7106 -11.38,-2.1677 -2.52,-1.4531 -4.7,-3.6718 -6.49,-6.621 -1.84,-2.9102 -3.09,-4.8516 -3.84,-5.7696 -0.77,-0.9531 -2.38,-1.3711 -4.8,-1.3711 -2.26,0 -4.16,0.7305 -5.77,2.1914 -1.64,1.5078 -2.44,3.3789 -2.44,5.7383 0,3.6211 1.23,7.168 3.69,10.5507 2.47,3.449 6.31,6.258 11.52,8.52 5.21,2.218 11.73,3.32 19.51,3.32 8.67,0 15.52,-1.102 20.53,-3.231 4.96,-2.121 8.44,-5.488 10.51,-10.171 2.07,-4.6098 3.08,-10.7777 3.08,-18.4379 0,-4.832 0,-8.9727 -0.03,-12.332 -0.04,-3.3985 -0.06,-7.1485 -0.11,-11.2774 0,-3.8711 0.62,-7.9297 1.86,-12.1211 1.2,-4.2109 1.82,-6.9297 1.82,-8.1093 0,-2.129 -0.97,-4.0704 -2.86,-5.8125 -1.87,-1.7188 -4.06,-2.5977 -6.46,-2.5977 -2.06,0 -4.02,0.9687 -6.04,2.9687 -1.97,2 -4.07,4.9024 -6.29,8.6602"
         style="fill:#948580;fill-opacity:1;fill-rule:nonzero;stroke:none"
         transform="matrix(0.13333333,0,0,-0.13333333,0,648.06667)" />
      <path
         id="path12"
         d="M 1940.23,102.809 V 43.1914 c 0,-4.1601 -0.94,-7.293 -2.8,-9.4101 -1.88,-2.0704 -4.26,-3.1602 -7.17,-3.1602 -2.89,0 -5.27,1.0898 -7.06,3.2383 -1.83,2.1914 -2.74,5.2695 -2.74,9.332 V 102.23 c 0,4.04 0.91,7.129 2.74,9.2 1.79,2.09 4.17,3.109 7.06,3.109 2.91,0 5.29,-1.019 7.17,-3.109 1.86,-2.071 2.8,-4.93 2.8,-8.621 z m -9.77,21.351 c -2.73,0 -5.07,0.879 -7.03,2.692 -1.96,1.757 -2.97,4.269 -2.97,7.507 0,2.911 1.02,5.289 3.04,7.211 1.98,1.899 4.33,2.789 6.96,2.789 2.57,0 4.86,-0.828 6.84,-2.527 1.96,-1.723 2.93,-4.242 2.93,-7.473 0,-3.211 -0.94,-5.687 -2.89,-7.449 -1.93,-1.789 -4.22,-2.75 -6.88,-2.75"
         style="fill:#948580;fill-opacity:1;fill-rule:nonzero;stroke:none"
         transform="matrix(0.13333333,0,0,-0.13333333,0,648.06667)" />
      <path
         id="path13"
         d="m 1978.67,103.121 v -2.461 c 3.46,4.762 7.26,8.281 11.36,10.512 4.14,2.238 8.89,3.367 14.28,3.367 5.18,0 9.87,-1.168 14,-3.57 4.06,-2.348 7.15,-5.68 9.16,-10 1.32,-2.5471 2.14,-5.2893 2.55,-8.1995 0.36,-2.8984 0.59,-6.6406 0.59,-11.1875 V 43.1914 c 0,-4.1601 -0.94,-7.293 -2.74,-9.4101 -1.82,-2.0704 -4.18,-3.1602 -7.06,-3.1602 -2.94,0 -5.34,1.0898 -7.11,3.25 -1.86,2.1797 -2.8,5.2578 -2.8,9.3203 v 34.3672 c 0,6.8516 -0.88,12.0312 -2.69,15.6328 -1.84,3.5977 -5.47,5.4297 -10.88,5.4297 -3.51,0 -6.72,-1.1094 -9.62,-3.3203 -2.89,-2.1602 -5.01,-5.1914 -6.36,-9.0313 -0.97,-3.0703 -1.48,-8.8007 -1.48,-17.2578 V 43.1914 c 0,-4.1914 -0.91,-7.3516 -2.78,-9.4609 -1.87,-2.0508 -4.27,-3.1094 -7.2,-3.1094 -2.83,0 -5.19,1.0898 -7.02,3.2383 -1.86,2.1914 -2.76,5.2695 -2.76,9.332 v 59.6176 c 0,3.961 0.81,6.863 2.48,8.812 1.6,1.949 3.9,2.918 6.74,2.918 1.71,0 3.3,-0.457 4.67,-1.289 1.45,-0.84 2.53,-2.16 3.38,-3.809 0.82,-1.761 1.29,-3.851 1.29,-6.32"
         style="fill:#948580;fill-opacity:1;fill-rule:nonzero;stroke:none"
         transform="matrix(0.13333333,0,0,-0.13333333,0,648.06667)" />
      <path
         id="path14"
         d="m 2062.34,101.699 15.98,-46.867 17.25,48.91 c 1.37,3.938 2.69,6.688 4.01,8.34 1.34,1.629 3.28,2.457 5.93,2.457 2.51,0 4.64,-0.879 6.44,-2.668 1.73,-1.75 2.62,-3.762 2.62,-6.141 0,-0.878 -0.18,-1.929 -0.49,-3.109 -0.28,-1.242 -0.64,-2.371 -1.07,-3.4608 -0.42,-1.0079 -0.85,-2.2383 -1.42,-3.5899 l -18.97,-49.1484 c -0.54,-1.4024 -1.24,-3.211 -2.06,-5.3906 -0.86,-2.1524 -1.82,-3.9727 -2.84,-5.5704 -1.05,-1.5117 -2.32,-2.6718 -3.82,-3.539 -1.56,-0.8633 -3.4,-1.3008 -5.58,-1.3008 -2.8,0 -5.02,0.6602 -6.71,1.9805 -1.67,1.3476 -2.9,2.789 -3.69,4.4101 -0.78,1.5703 -2.15,4.7188 -4.01,9.4102 l -18.86,48.6094 c -0.43,1.1875 -0.9,2.4101 -1.37,3.6171 -0.44,1.2227 -0.79,2.4216 -1.13,3.7106 -0.3,1.282 -0.48,2.36 -0.48,3.231 0,1.441 0.41,2.832 1.25,4.219 0.82,1.39 1.96,2.55 3.4,3.402 1.47,0.871 3.01,1.328 4.73,1.328 3.26,0 5.52,-0.969 6.76,-2.98 1.24,-1.95 2.63,-5.239 4.13,-9.86"
         style="fill:#948580;fill-opacity:1;fill-rule:nonzero;stroke:none"
         transform="matrix(0.13333333,0,0,-0.13333333,0,648.06667)" />
      <path
         id="path15"
         d="m 2143.24,79.2813 h 35.85 c -0.46,7.0273 -2.26,12.3085 -5.46,15.8007 -3.17,3.4883 -7.34,5.238 -12.52,5.238 -4.89,0 -8.95,-1.7692 -12.1,-5.32 -3.16,-3.5312 -5.05,-8.7891 -5.77,-15.7187 z m 38.69,-11.75 h -38.69 c 0.01,-4.711 0.96,-8.8321 2.69,-12.4297 1.79,-3.5508 4.12,-6.25 7.05,-8.0899 2.92,-1.8203 6.15,-2.7031 9.69,-2.7031 2.35,0 4.54,0.2812 6.46,0.8516 1.95,0.6015 3.87,1.5 5.72,2.7187 1.81,1.2422 3.48,2.5313 5.04,4 1.53,1.4024 3.6,3.293 6.02,5.7227 1.02,0.957 2.48,1.3789 4.34,1.3789 2.06,0 3.69,-0.5586 4.95,-1.75 1.26,-1.1602 1.85,-2.7813 1.85,-4.8907 0,-1.8789 -0.68,-4.0585 -2.1,-6.5781 -1.39,-2.4609 -3.46,-4.8711 -6.34,-7.1797 -2.83,-2.2812 -6.37,-4.1523 -10.65,-5.7109 -4.25,-1.5 -9.14,-2.25 -14.75,-2.25 -12.68,0 -22.58,3.8086 -29.6,11.3281 -7.04,7.6016 -10.55,17.8321 -10.55,30.7617 0,6.168 0.9,11.7774 2.59,16.9883 1.74,5.2305 4.26,9.7031 7.6,13.4218 3.34,3.75 7.42,6.629 12.32,8.59 4.9,2 10.28,3 16.25,3 7.67,0 14.32,-1.699 19.85,-5.129 5.55,-3.402 9.68,-7.762 12.43,-13.1406 2.76,-5.4297 4.13,-10.9023 4.13,-16.543 0,-5.1484 -1.38,-8.5195 -4.27,-10.039 -2.87,-1.5703 -6.85,-2.3281 -12.03,-2.3281"
         style="fill:#948580;fill-opacity:1;fill-rule:nonzero;stroke:none"
         transform="matrix(0.13333333,0,0,-0.13333333,0,648.06667)" />
      <path
         id="path16"
         d="m 2285.86,56.1797 c 0,-2.5586 -0.73,-5.3203 -2.24,-8.2383 -1.48,-2.9219 -3.68,-5.6914 -6.73,-8.3516 -3,-2.6289 -6.84,-4.7578 -11.44,-6.371 -4.56,-1.6485 -9.76,-2.4375 -15.46,-2.4375 -12.26,0 -21.8,3.7304 -28.64,11.1601 -6.84,7.4375 -10.3,17.3789 -10.3,29.8906 0,8.4571 1.57,15.9688 4.73,22.4571 3.15,6.4609 7.65,11.5309 13.6,15.0699 5.92,3.571 13.05,5.352 21.32,5.352 5.12,0 9.8,-0.801 14.1,-2.34 4.27,-1.582 7.87,-3.609 10.87,-6.051 2.97,-2.48 5.22,-5.121 6.81,-7.8981 1.55,-2.793 2.34,-5.4102 2.34,-7.8321 0,-2.4375 -0.86,-4.5312 -2.68,-6.2578 -1.74,-1.7304 -3.87,-2.582 -6.38,-2.582 -1.65,0 -3.01,0.4805 -4.07,1.3594 -1.11,0.8515 -2.32,2.2304 -3.69,4.25 -2.41,3.8125 -4.92,6.6992 -7.56,8.6601 -2.64,1.8907 -5.98,2.8789 -10.05,2.8789 -5.81,0 -10.54,-2.4179 -14.1,-7.1796 -3.6,-4.7891 -5.38,-11.2969 -5.38,-19.5704 0,-3.8593 0.49,-7.4687 1.37,-10.6992 0.92,-3.2578 2.26,-6.0273 4.01,-8.3281 1.73,-2.3008 3.85,-4.0313 6.31,-5.2109 2.42,-1.211 5.13,-1.7891 8.1,-1.7891 3.96,0 7.37,0.9375 10.19,2.8711 2.81,1.9297 5.33,4.8594 7.51,8.75 1.21,2.3672 2.49,4.168 3.9,5.4883 1.39,1.3203 3.09,1.9492 5.15,1.9492 2.38,0 4.43,-0.9414 5.96,-2.8477 1.63,-1.9609 2.45,-3.9804 2.45,-6.1523"
         style="fill:#948580;fill-opacity:1;fill-rule:nonzero;stroke:none"
         transform="matrix(0.13333333,0,0,-0.13333333,0,648.06667)" />
      <path
         id="path17"
         d="m 2304.22,112.801 h 2.18 v 12.418 c 0,3.301 0.08,5.929 0.26,7.812 0.17,1.891 0.61,3.489 1.42,4.867 0.75,1.391 1.86,2.551 3.34,3.454 1.43,0.859 3.04,1.277 4.83,1.277 2.5,0 4.79,-0.969 6.8,-2.918 1.33,-1.332 2.2,-2.91 2.57,-4.789 0.37,-1.891 0.53,-4.613 0.53,-8.07 v -14.051 h 7.27 c 2.8,0 4.95,-0.699 6.41,-2.09 1.51,-1.379 2.22,-3.141 2.22,-5.32 0,-2.77 -1.04,-4.731 -3.17,-5.8324 -2.09,-1.0781 -5.1,-1.6484 -9.02,-1.6484 h -3.71 V 59.8906 c 0,-3.2304 0.12,-5.7187 0.32,-7.4804 0.26,-1.7383 0.87,-3.1602 1.79,-4.211 0.91,-1.0898 2.45,-1.6601 4.59,-1.6601 1.15,0 2.72,0.2109 4.72,0.6601 1.93,0.4219 3.48,0.6328 4.62,0.6328 1.58,0 3.06,-0.6914 4.32,-1.9609 1.25,-1.3828 1.91,-3 1.91,-4.9805 0,-3.3086 -1.7,-5.8593 -5.21,-7.6289 -3.51,-1.7617 -8.49,-2.6406 -14.99,-2.6406 -6.19,0 -10.89,1.0898 -14.07,3.25 -3.17,2.1797 -5.29,5.1602 -6.25,9.0273 -1.02,3.8321 -1.5,8.9414 -1.5,15.3399 v 39.6719 h -2.63 c -2.8,0 -4.98,0.7109 -6.49,2.1288 -1.51,1.41 -2.24,3.172 -2.24,5.352 0,2.179 0.77,3.941 2.32,5.32 1.6,1.391 3.86,2.09 6.86,2.09"
         style="fill:#948580;fill-opacity:1;fill-rule:nonzero;stroke:none"
         transform="matrix(0.13333333,0,0,-0.13333333,0,648.06667)" />
      <path
         id="path18"
         d="m 2409.82,72.5391 c 0,8.3906 -1.79,14.9609 -5.32,19.6523 -3.58,4.6602 -8.31,7.0274 -14.31,7.0274 -3.88,0 -7.28,-1.0469 -10.21,-3.1368 -2.97,-2.1211 -5.23,-5.2109 -6.82,-9.2929 -1.59,-4.0391 -2.4,-8.7774 -2.4,-14.25 0,-5.3985 0.81,-10.0977 2.37,-14.1172 1.57,-4.0313 3.8,-7.1211 6.72,-9.2735 2.91,-2.1367 6.36,-3.1875 10.34,-3.1875 6,0 10.73,2.3399 14.31,7.0508 3.53,4.6992 5.32,11.2266 5.32,19.5274 z m 19.86,0 c 0,-6.1094 -0.91,-11.8008 -2.78,-17.0196 -1.81,-5.1484 -4.49,-9.6211 -7.94,-13.3593 -3.49,-3.7383 -7.65,-6.5313 -12.47,-8.5704 -4.84,-2 -10.24,-2.9687 -16.3,-2.9687 -6.02,0 -11.41,0.9687 -16.18,3.0195 -4.76,2.0117 -8.92,4.8985 -12.42,8.6602 -3.48,3.7695 -6.15,8.1601 -7.94,13.2812 -1.8,5.1485 -2.69,10.7696 -2.69,17 0,6.25 0.89,11.9571 2.69,17.1289 1.88,5.2188 4.48,9.6289 7.9,13.3401 3.46,3.668 7.6,6.5 12.46,8.488 4.94,2 10.31,3 16.18,3 6,0 11.4,-1 16.3,-3.027 4.88,-2.012 9.04,-4.91 12.52,-8.641 3.45,-3.7226 6.15,-8.1796 7.95,-13.3319 1.81,-5.1172 2.72,-10.7969 2.72,-17"
         style="fill:#948580;fill-opacity:1;fill-rule:nonzero;stroke:none"
         transform="matrix(0.13333333,0,0,-0.13333333,0,648.06667)" />
      <path
         id="path19"
         d="M 2464.91,60.3711 V 43.1914 c 0,-4.1914 -0.95,-7.3516 -2.83,-9.4609 -1.89,-2.0508 -4.28,-3.1094 -7.2,-3.1094 -2.81,0 -5.18,1.0898 -7,3.1602 -1.84,2.1171 -2.73,5.25 -2.73,9.4101 v 57.4496 c 0,9.281 3.19,13.898 9.62,13.898 3.25,0 5.63,-1.098 7.11,-3.238 1.42,-2.172 2.18,-5.379 2.38,-9.602 2.35,4.223 4.8,7.43 7.29,9.602 2.49,2.14 5.79,3.238 9.92,3.238 4.19,0 8.21,-1.098 12.14,-3.238 3.89,-2.172 5.87,-5.059 5.87,-8.621 0,-2.52 -0.86,-4.6292 -2.52,-6.2386 -1.65,-1.6328 -3.45,-2.4805 -5.41,-2.4805 -0.71,0 -2.47,0.4805 -5.24,1.4297 -2.79,0.918 -5.25,1.3985 -7.38,1.3985 -2.88,0 -5.24,-0.7696 -7.05,-2.3868 -1.85,-1.6132 -3.29,-3.9414 -4.29,-7.0507 -1.02,-3.1719 -1.75,-6.8711 -2.11,-11.211 -0.37,-4.2695 -0.57,-9.5195 -0.57,-15.7695"
         style="fill:#948580;fill-opacity:1;fill-rule:nonzero;stroke:none"
         transform="matrix(0.13333333,0,0,-0.13333333,0,648.06667)" />
      <path
         id="path20"
         d="m 2570.26,57.5898 c 0,-5.7109 -1.32,-10.5781 -4.01,-14.6406 -2.67,-4.0703 -6.58,-7.1094 -11.78,-9.2304 -5.21,-2.0391 -11.5,-3.0977 -18.98,-3.0977 -7.04,0 -13.17,1.1289 -18.25,3.418 -5.07,2.2617 -8.82,5.0703 -11.21,8.4726 -2.45,3.3867 -3.69,6.8086 -3.69,10.2188 0,2.2617 0.79,4.2187 2.38,5.8281 1.53,1.6406 3.5,2.4102 5.84,2.4102 2.09,0 3.7,-0.5391 4.8,-1.5586 1.11,-1.1289 2.15,-2.5782 3.19,-4.5 2.03,-3.6914 4.44,-6.4297 7.31,-8.25 2.78,-1.8282 6.64,-2.7305 11.56,-2.7305 3.94,0 7.19,0.9297 9.74,2.7695 2.52,1.8399 3.83,3.9414 3.83,6.3125 0,3.6485 -1.34,6.3086 -3.95,7.9492 -2.67,1.6993 -6.98,3.2774 -13.03,4.7774 -6.8,1.7734 -12.36,3.6328 -16.64,5.5508 -4.27,1.9492 -7.73,4.5312 -10.27,7.7109 -2.56,3.1211 -3.86,7.0586 -3.86,11.6992 0,4.1602 1.19,8.0625 3.57,11.7108 2.35,3.699 5.89,6.629 10.48,8.82 4.61,2.211 10.17,3.309 16.72,3.309 5.1,0 9.7,-0.559 13.8,-1.668 4.07,-1.101 7.53,-2.601 10.22,-4.449 2.72,-1.883 4.82,-3.942 6.24,-6.192 1.44,-2.3003 2.15,-4.5112 2.15,-6.6597 0,-2.3789 -0.75,-4.2812 -2.3,-5.8594 -1.53,-1.4492 -3.71,-2.2187 -6.46,-2.2187 -2.06,0 -3.78,0.5976 -5.23,1.8398 -1.39,1.1875 -3.05,2.9883 -4.87,5.3789 -1.51,2.0196 -3.25,3.6485 -5.3,4.8477 -2.04,1.1914 -4.79,1.8204 -8.25,1.8204 -3.58,0 -6.58,-0.777 -8.9,-2.3868 -2.39,-1.582 -3.58,-3.5703 -3.58,-5.9414 0,-2.1797 0.88,-3.9492 2.59,-5.332 1.77,-1.3868 4.09,-2.5391 7.05,-3.4493 2.97,-0.9101 7.01,-2.039 12.19,-3.3398 6.14,-1.5508 11.14,-3.4102 15.04,-5.5899 3.89,-2.1406 6.82,-4.7109 8.83,-7.6601 2.04,-2.9805 3.03,-6.3399 3.03,-10.0899"
         style="fill:#948580;fill-opacity:1;fill-rule:nonzero;stroke:none"
         transform="matrix(0.13333333,0,0,-0.13333333,0,648.06667)" />
      <path
         id="path21"
         d="m 2592.72,30.6211 c -2.99,0 -5.58,0.9687 -7.73,3.0195 -2.21,2.0117 -3.28,4.8516 -3.28,8.4414 0,3.0782 1.01,5.7188 3.08,7.9493 2.08,2.2109 4.65,3.289 7.7,3.289 3.03,0 5.64,-1.0781 7.73,-3.2812 2.18,-2.1602 3.27,-4.8477 3.27,-7.9571 0,-3.5625 -1.09,-6.3711 -3.27,-8.4101 -2.09,-2.043 -4.6,-3.0508 -7.5,-3.0508"
         style="fill:#948580;fill-opacity:1;fill-rule:nonzero;stroke:none"
         transform="matrix(0.13333333,0,0,-0.13333333,0,648.06667)" />
      <path
         id="path22"
         d="m 2680.19,72.5391 c 0,8.3906 -1.79,14.9609 -5.34,19.6523 -3.55,4.6602 -8.31,7.0274 -14.28,7.0274 -3.88,0 -7.25,-1.0469 -10.21,-3.1368 -2.96,-2.1211 -5.22,-5.2109 -6.81,-9.2929 -1.57,-4.0391 -2.38,-8.7774 -2.38,-14.25 0,-5.3985 0.76,-10.0977 2.33,-14.1172 1.61,-4.0313 3.83,-7.1211 6.76,-9.2735 2.91,-2.1367 6.34,-3.1875 10.31,-3.1875 5.97,0 10.73,2.3399 14.28,7.0508 3.55,4.6992 5.34,11.2266 5.34,19.5274 z m 19.87,0 c 0,-6.1094 -0.91,-11.8008 -2.77,-17.0196 -1.85,-5.1484 -4.48,-9.6211 -7.96,-13.3593 -3.51,-3.7383 -7.61,-6.5313 -12.46,-8.5704 -4.82,-2 -10.25,-2.9687 -16.3,-2.9687 -5.99,0 -11.37,0.9687 -16.16,3.0195 -4.78,2.0117 -8.9,4.8985 -12.4,8.6602 -3.55,3.7695 -6.19,8.1601 -8.03,13.2812 -1.76,5.1485 -2.67,10.7696 -2.67,17 0,6.25 0.91,11.9571 2.75,17.1289 1.87,5.2188 4.46,9.6289 7.87,13.3401 3.43,3.668 7.59,6.5 12.48,8.488 4.88,2 10.23,3 16.16,3 5.97,0 11.41,-1 16.3,-3.027 4.9,-2.012 9.06,-4.91 12.54,-8.641 3.46,-3.7226 6.1,-8.1796 7.93,-13.3319 1.81,-5.1172 2.72,-10.7969 2.72,-17"
         style="fill:#948580;fill-opacity:1;fill-rule:nonzero;stroke:none"
         transform="matrix(0.13333333,0,0,-0.13333333,0,648.06667)" />
      <path
         id="path23"
         d="M 2735.28,60.3711 V 43.1914 c 0,-4.1914 -0.93,-7.3516 -2.82,-9.4609 -1.85,-2.0508 -4.28,-3.1094 -7.15,-3.1094 -2.89,0 -5.2,1.0898 -7.05,3.1602 -1.85,2.1171 -2.76,5.25 -2.76,9.4101 v 57.4496 c 0,9.281 3.25,13.898 9.65,13.898 3.29,0 5.63,-1.098 7.08,-3.238 1.42,-2.172 2.27,-5.379 2.44,-9.602 2.32,4.223 4.74,7.43 7.23,9.602 2.49,2.14 5.82,3.238 9.95,3.238 4.21,0 8.25,-1.098 12.11,-3.238 3.92,-2.172 5.89,-5.059 5.89,-8.621 0,-2.52 -0.84,-4.6292 -2.49,-6.2386 -1.69,-1.6328 -3.45,-2.4805 -5.43,-2.4805 -0.7,0 -2.44,0.4805 -5.21,1.4297 -2.79,0.918 -5.25,1.3985 -7.39,1.3985 -2.88,0 -5.23,-0.7696 -7.11,-2.3868 -1.81,-1.6132 -3.25,-3.9414 -4.27,-7.0507 -0.99,-3.1719 -1.7,-6.8711 -2.07,-11.211 -0.39,-4.2695 -0.6,-9.5195 -0.6,-15.7695"
         style="fill:#948580;fill-opacity:1;fill-rule:nonzero;stroke:none"
         transform="matrix(0.13333333,0,0,-0.13333333,0,648.06667)" />
      <path
         id="path24"
         d="m 2792.39,73.25 c 0,-8.3516 1.76,-14.6797 5.28,-18.9883 3.47,-4.2617 8.03,-6.4297 13.55,-6.4297 3.26,0 6.41,0.9571 9.32,2.7969 2.93,1.8399 5.3,4.6133 7.15,8.3203 1.85,3.711 2.74,8.1914 2.74,13.4727 0,8.4179 -1.79,14.957 -5.33,19.6367 -3.54,4.7305 -8.22,7.0898 -14.01,7.0898 -5.63,0 -10.17,-2.2968 -13.56,-6.7578 -3.43,-4.5 -5.14,-10.8593 -5.14,-19.1406 z m 57.34,26.1914 V 39.4492 c 0,-6.8789 -0.76,-12.7695 -2.12,-17.6797 -1.41,-4.9687 -3.65,-9.0507 -6.74,-12.28122 -3.09,-3.20703 -7.16,-5.59765 -12.12,-7.15625 C 2823.74,0.789063 2817.51,0 2810.09,0 c -6.83,0 -12.93,0.960938 -18.26,2.94922 -5.37,2.04297 -9.52,4.58203 -12.41,7.76168 -2.89,3.1094 -4.35,6.3594 -4.35,9.711 0,2.5195 0.8,4.5586 2.49,6.1367 1.62,1.6406 3.6,2.4219 5.92,2.4219 2.91,0 5.41,-1.3516 7.62,-4.0117 1.07,-1.3985 2.18,-2.7579 3.28,-4.129 1.14,-1.3906 2.4,-2.6093 3.76,-3.5585 1.39,-1.0196 3.07,-1.7305 4.99,-2.2227 1.9,-0.4766 4.16,-0.7188 6.67,-0.7188 5.08,0 9.11,0.7618 11.91,2.2305 2.83,1.4883 4.81,3.5703 5.97,6.2305 1.08,2.6797 1.8,5.5195 1.92,8.5781 0.23,3.1016 0.37,7.9609 0.51,14.7422 -3.05,-4.4219 -6.61,-7.8125 -10.56,-10.1211 -3.98,-2.3281 -8.75,-3.4609 -14.21,-3.4609 -6.68,0 -12.46,1.7304 -17.38,5.2812 -4.97,3.5313 -8.78,8.4492 -11.43,14.8281 -2.62,6.3321 -3.98,13.6602 -3.98,21.9922 0,6.2305 0.79,11.8399 2.44,16.8282 1.58,4.9726 3.88,9.1912 6.92,12.6132 2.96,3.43 6.44,6.02 10.35,7.77 3.93,1.718 8.18,2.609 12.91,2.609 5.57,0 10.43,-1.152 14.53,-3.402 4.16,-2.207 7.93,-5.77 11.46,-10.539 v 2.769 c 0,3.613 0.88,6.352 2.54,8.383 1.68,1.937 3.87,2.93 6.51,2.93 3.83,0 6.36,-1.293 7.63,-3.891 1.24,-2.602 1.89,-6.371 1.89,-11.2696"
         style="fill:#948580;fill-opacity:1;fill-rule:nonzero;stroke:none"
         transform="matrix(0.13333333,0,0,-0.13333333,0,648.06667)" />
      <path
         id="path25"
         d="m 1992.46,300.43 h 29.34 c -2.07,-15.809 -8.56,-28.149 -19.34,-37.039 -9.97,-8.7 -22.05,-13 -36.16,-13 -19.16,0 -34.45,6.738 -45.87,20.168 -10.82,12.773 -16.22,29.281 -16.22,49.421 0,20.661 5.36,37.161 16.06,49.668 10.7,12.442 25.82,18.704 45.37,18.704 14.55,0 26.85,-3.93 36.82,-11.743 10.59,-8.429 17.05,-20.289 19.34,-35.468 h -29.34 c -2.54,13.25 -10.61,19.828 -24.37,19.828 -22.68,0 -34.04,-13.43 -34.04,-40.297 0,-12.602 2.92,-22.883 8.75,-30.891 5.83,-8.043 14.06,-12.062 24.66,-12.062 15.81,0 24.15,7.582 25,22.711 z m -115.49,18.519 c 0,-26.258 8.33,-48.488 24.95,-66.59 16.65,-18.109 37.03,-27.168 61.21,-27.168 24.07,0 44.46,9.059 61.08,27.168 16.67,18.102 24.94,40.332 24.94,66.59 0,26.242 -8.27,48.442 -24.94,66.563 -16.62,18.136 -37.01,27.187 -61.08,27.187 -24.18,0 -44.56,-9.051 -61.21,-27.187 -16.62,-18.121 -24.95,-40.321 -24.95,-66.563 z m -29.8,0 c 0,33.41 11.31,61.922 33.93,85.61 22.66,23.652 50,35.48 82.03,35.48 31.94,0 59.24,-11.828 81.92,-35.48 22.65,-23.688 33.98,-52.2 33.98,-85.61 0,-33.437 -11.33,-61.988 -33.98,-85.64 -22.68,-23.668 -49.98,-35.508 -81.92,-35.508 -32.03,0 -59.37,11.84 -82.03,35.508 -22.62,23.652 -33.93,52.203 -33.93,85.64"
         style="fill:#948580;fill-opacity:1;fill-rule:nonzero;stroke:none"
         transform="matrix(0.13333333,0,0,-0.13333333,0,648.06667)" />
      <path
         id="path26"
         d="M 1894.08,243 1911,228.648 2035.33,388.32 2018.43,402.648 1894.08,243"
         style="fill:#948580;fill-opacity:1;fill-rule:nonzero;stroke:none"
         transform="matrix(0.13333333,0,0,-0.13333333,0,648.06667)" />
      <path
         id="path27"
         d="m 2049.24,762.051 c 1128.67,0 2049.22,920.549 2049.22,2049.219 0,1128.68 -920.55,2049.23 -2049.22,2049.23 C 920.547,4860.5 0,3939.95 0,2811.27 0,1682.6 920.547,762.051 2049.24,762.051"
         style="fill:#fab99c;fill-opacity:1;fill-rule:evenodd;stroke:none"
         transform="matrix(0.13333333,0,0,-0.13333333,0,648.06667)" />
      <path
         id="path28"
         d="m 2047.9,992.191 c 401.57,0 753.35,-33.769 948.5,-84.402 h 162.35 V 731.738 c 0,-97.238 -497.34,-176.047 -1110.85,-176.047 -613.52,0 -1110.857,78.809 -1110.857,176.047 v 176.051 h 162.367 c 195.13,50.633 546.91,84.402 948.49,84.402"
         style="fill:#bc7e3d;fill-opacity:1;fill-rule:evenodd;stroke:none"
         transform="matrix(0.13333333,0,0,-0.13333333,0,648.06667)" />
      <path
         id="path29"
         d="m 1334.01,596.871 c -87.96,11.699 -164.3,25.52 -225.89,40.981 v 272.179 c 61.59,15.449 137.93,29.289 225.89,40.989 z m 239.17,-24.34 c -35.61,2.688 -70.23,5.649 -103.64,8.867 v 326.391 h 103.64 V 572.531 Z m 1214.51,27.899 c -68.26,-9.668 -144.08,-18.032 -225.89,-24.789 v 332.148 h 225.89 V 600.43 Z m 208.71,307.359 v 0 h 19.84 V 645.43 c -30.35,-8.539 -65.06,-16.629 -103.65,-24.188 v 286.547 h 83.81 v 0"
         style="fill:#d9964c;fill-opacity:1;fill-rule:evenodd;stroke:none"
         transform="matrix(0.13333333,0,0,-0.13333333,0,648.06667)" />
      <path
         id="path30"
         d="m 2047.9,731.738 c 611.85,0 1110.85,79.102 1110.85,176.051 0,97.011 -499,176.081 -1110.85,176.081 -611.84,0 -1110.857,-79.07 -1110.857,-176.081 0,-96.949 499.017,-176.051 1110.857,-176.051"
         style="fill:#864b1c;fill-opacity:1;fill-rule:evenodd;stroke:none"
         transform="matrix(0.13333333,0,0,-0.13333333,0,648.06667)" />
      <path
         id="path31"
         d="m 2460.98,941.949 c 9.44,-5.578 14.49,-11.461 14.49,-17.508 0,-37.461 -191.44,-67.781 -427.57,-67.781 -236.13,0 -427.57,30.32 -427.57,67.781 0,6.047 5.06,11.93 14.49,17.508 h -0.02 c 178.46,154.561 279.5,368.431 215.58,682.711 l 197.52,-19.55 197.51,19.55 c -63.92,-314.28 37.14,-528.15 215.61,-682.711 h -0.04"
         style="fill:#6f3918;fill-opacity:1;fill-rule:evenodd;stroke:none"
         transform="matrix(0.13333333,0,0,-0.13333333,0,648.06667)" />
      <path
         id="path32"
         d="m 1801.05,1148.39 c 49.02,95.15 74.38,206.31 67.47,337.53 l 357.94,-63.35 c 4.12,-146.31 50.7,-265.94 125.8,-365.39 -164.07,123.94 -389.87,263.76 -551.21,91.21"
         style="fill:#4f2a15;fill-opacity:1;fill-rule:evenodd;stroke:none"
         transform="matrix(0.13333333,0,0,-0.13333333,0,648.06667)" />
      <path
         id="path33"
         d="M 506.52,3344.85 C 449.828,2823.07 393.137,2301.31 336.426,1779.55 c 127.578,-70.26 255.137,-112.22 382.695,-132.9 -1.781,-26.56 -3.547,-53.14 -5.316,-79.7 217.293,-75.09 443.535,-114.51 675.015,-132.9 -1.78,-31.88 -3.54,-63.77 -5.31,-95.65 224.89,-37.45 446.54,-53.14 664.39,-53.14 217.83,0 439.49,15.69 664.39,53.14 -1.76,31.88 -3.55,63.77 -5.32,95.65 231.49,18.39 457.71,57.81 675.02,132.9 -1.77,26.56 -3.53,53.14 -5.32,79.7 127.56,20.68 255.12,62.64 382.69,132.9 -56.7,521.76 -113.38,1043.52 -170.08,1565.3 -513.79,0 -1027.6,0 -1541.38,0 -513.81,0 -1027.6,0 -1541.38,0"
         style="fill:#cc2c23;fill-opacity:1;fill-rule:evenodd;stroke:none"
         transform="matrix(0.13333333,0,0,-0.13333333,0,648.06667)" />
      <path
         id="path34"
         d="m 713.805,1566.95 c 186.156,-46.68 375.195,-54.15 568.405,-5.14 l 216.58,1451.52 -109.97,-1579.28 c -231.48,18.39 -457.722,57.81 -675.015,132.9 z m -377.379,212.6 c 127.578,-70.26 255.137,-112.22 382.695,-132.9 L 805.488,3037.24 624.766,1729.72 c -99.598,-0.78 -195.821,15.17 -288.34,49.83 v 0"
         style="fill:#9e2420;fill-opacity:1;fill-rule:evenodd;stroke:none"
         transform="matrix(0.13333333,0,0,-0.13333333,0,648.06667)" />
      <path
         id="path35"
         d="m 2047.9,3198.69 c 848.96,0 1541.38,65.64 1541.38,146.16 0,80.5 -692.42,146.16 -1541.38,146.16 -848.97,0 -1541.38,-65.66 -1541.38,-146.16 0,-80.52 692.41,-146.16 1541.38,-146.16"
         style="fill:#e83b20;fill-opacity:1;fill-rule:evenodd;stroke:none"
         transform="matrix(0.13333333,0,0,-0.13333333,0,648.06667)" />
      <path
         id="path36"
         d="m 3384.64,1566.95 c -186.14,-46.68 -375.19,-54.15 -568.41,-5.14 l -216.57,1451.52 109.97,-1579.28 c 231.48,18.39 457.7,57.81 675.01,132.9 z m 377.37,212.6 c -127.56,-70.26 -255.12,-112.22 -382.67,-132.9 l -86.37,1390.59 180.7,-1307.52 c 99.59,-0.78 195.84,15.17 288.34,49.83 v 0"
         style="fill:#9e2420;fill-opacity:1;fill-rule:evenodd;stroke:none"
         transform="matrix(0.13333333,0,0,-0.13333333,0,648.06667)" />
      <path
         id="path37"
         d="m 876.914,3117.95 -93.023,-1216.17 133.711,-39.85 92.188,1239.75 -132.876,16.27"
         style="fill:#e13821;fill-opacity:1;fill-rule:evenodd;stroke:none"
         transform="matrix(0.13333333,0,0,-0.13333333,0,648.06667)" />
      <path
         id="path38"
         d="m 516.941,3200.64 -121.906,-1175.29 64.383,-38.51 122.949,1198.06 -65.426,15.74"
         style="fill:#e13821;fill-opacity:1;fill-rule:evenodd;stroke:none"
         transform="matrix(0.13333333,0,0,-0.13333333,0,648.06667)" />
      <path
         id="path39"
         d="M 1587.68,3037.24 1511.21,1781.2 h 300.75 l 59.68,1239.76 -283.96,16.28"
         style="fill:#e13821;fill-opacity:1;fill-rule:evenodd;stroke:none"
         transform="matrix(0.13333333,0,0,-0.13333333,0,648.06667)" />
      <path
         id="path40"
         d="m 2840.45,3037.24 146.93,-1216.17 -131.95,-39.87 -147.12,1239.76 132.14,16.28"
         style="fill:#e13821;fill-opacity:1;fill-rule:evenodd;stroke:none"
         transform="matrix(0.13333333,0,0,-0.13333333,0,648.06667)" />
      <path
         id="path41"
         d="m 3436.13,3200.64 121.92,-1175.29 -64.39,-38.51 -122.95,1198.06 65.42,15.74"
         style="fill:#e13821;fill-opacity:1;fill-rule:evenodd;stroke:none"
         transform="matrix(0.13333333,0,0,-0.13333333,0,648.06667)" />
      <path
         id="path42"
         d="m 2444.74,3344.85 c 0,-11.36 -79.97,-20.57 -178.65,-20.57 -98.64,0 -178.62,9.21 -178.62,20.57 l -81.83,565.11 h 260.45 260.45 l -81.8,-565.11"
         style="fill:#ffffff;fill-opacity:1;fill-rule:evenodd;stroke:none"
         transform="matrix(0.13333333,0,0,-0.13333333,0,648.06667)" />
      <path
         id="path43"
         d="m 1686.18,4090.95 v -732.67 c 0,-47.76 -324.71,-44.86 -324.71,0 v 732.67 c 0,81.31 46.56,131.82 104.41,151.55 v 294.89 h 115.9 V 4242.5 c 57.83,-19.74 104.4,-70.25 104.4,-151.55"
         style="fill:#257737;fill-opacity:1;fill-rule:evenodd;stroke:none"
         transform="matrix(0.13333333,0,0,-0.13333333,0,648.06667)" />
      <path
         id="path44"
         d="m 1601.84,4524.05 c 0,-4.96 -34.94,-8.98 -78.01,-8.98 -43.09,0 -78.02,4.02 -78.02,8.98 v 89.07 h 156.03 v -89.07"
         style="fill:#20632f;fill-opacity:1;fill-rule:evenodd;stroke:none"
         transform="matrix(0.13333333,0,0,-0.13333333,0,648.06667)" />
      <path
         id="path45"
         d="m 1523.83,4622.1 c 43.07,0 78.01,-4.02 78.01,-8.98 0,-4.95 -34.94,-8.98 -78.01,-8.98 -43.09,0 -78.02,4.03 -78.02,8.98 0,4.96 34.93,8.98 78.02,8.98"
         style="fill:#257737;fill-opacity:1;fill-rule:evenodd;stroke:none"
         transform="matrix(0.13333333,0,0,-0.13333333,0,648.06667)" />
      <path
         id="path46"
         d="m 1686.18,4032.64 v -582.95 c 0,-36.64 -324.71,-34.42 -324.71,0 v 582.95 c -7.65,-19.15 316.66,-20.62 324.71,0"
         style="fill:#cc2c23;fill-opacity:1;fill-rule:evenodd;stroke:none"
         transform="matrix(0.13333333,0,0,-0.13333333,0,648.06667)" />
      <path
         id="path47"
         d="m 2266.11,3879.98 c 143.43,0 260.43,13.47 260.43,29.98 0,16.5 -117,29.98 -260.43,29.98 -143.44,0 -260.45,-13.48 -260.45,-29.98 0,-16.51 117.01,-29.98 260.45,-29.98"
         style="fill:#fde0d4;fill-opacity:1;fill-rule:evenodd;stroke:none"
         transform="matrix(0.13333333,0,0,-0.13333333,0,648.06667)" />
      <path
         id="path48"
         d="m 1002.01,3380.51 c 82.16,-0.93 146.35,-8.91 146.35,-18.6 0,-10.34 -72.7,-18.7 -162.407,-18.7 -89.719,0 -162.437,8.36 -162.437,18.7 0,9.69 64.214,17.67 146.382,18.6 v 287.31 h 32.112 v -287.31"
         style="fill:#ffffff;fill-opacity:1;fill-rule:evenodd;stroke:none"
         transform="matrix(0.13333333,0,0,-0.13333333,0,648.06667)" />
      <path
         id="path49"
         d="m 1148.36,3768.65 c 0,-220.41 -324.844,-220.41 -324.844,0 v 185.48 h 324.844 v -185.48"
         style="fill:#fde0d4;fill-opacity:1;fill-rule:evenodd;stroke:none"
         transform="matrix(0.13333333,0,0,-0.13333333,0,648.06667)" />
      <path
         id="path50"
         d="m 985.953,3972.82 c 89.707,0 162.407,-8.36 162.407,-18.69 0,-10.33 -72.7,-18.7 -162.407,-18.7 -89.719,0 -162.437,8.37 -162.437,18.7 0,10.33 72.718,18.69 162.437,18.69"
         style="fill:#ffffff;fill-opacity:1;fill-rule:evenodd;stroke:none"
         transform="matrix(0.13333333,0,0,-0.13333333,0,648.06667)" />
      <path
         id="path51"
         d="m 2863.19,3380.51 c 82.2,-0.93 146.39,-8.91 146.39,-18.6 0,-10.34 -72.7,-18.7 -162.41,-18.7 -89.71,0 -162.44,8.36 -162.44,18.7 0,9.69 64.22,17.67 146.36,18.6 v 287.31 h 32.1 v -287.31"
         style="fill:#ffffff;fill-opacity:1;fill-rule:evenodd;stroke:none"
         transform="matrix(0.13333333,0,0,-0.13333333,0,648.06667)" />
      <path
         id="path52"
         d="m 3009.58,3768.65 c 0,-220.41 -324.85,-220.41 -324.85,0 v 185.48 h 324.85 v -185.48"
         style="fill:#fde0d4;fill-opacity:1;fill-rule:evenodd;stroke:none"
         transform="matrix(0.13333333,0,0,-0.13333333,0,648.06667)" />
      <path
         id="path53"
         d="m 2847.17,3972.82 c 89.71,0 162.41,-8.36 162.41,-18.69 0,-10.33 -72.7,-18.7 -162.41,-18.7 -89.71,0 -162.44,8.37 -162.44,18.7 0,10.33 72.73,18.69 162.44,18.69"
         style="fill:#ffffff;fill-opacity:1;fill-rule:evenodd;stroke:none"
         transform="matrix(0.13333333,0,0,-0.13333333,0,648.06667)" />
      <path
         id="path54"
         d="m 2110.07,3885.95 -40.47,286.23 c -32.57,230.36 -272.38,292.36 -490.06,210.25 213.01,129.53 541.53,128.53 565.61,-176.37 l 25.78,-326.08 -60.86,5.97"
         style="fill:#87b027;fill-opacity:1;fill-rule:evenodd;stroke:none"
         transform="matrix(0.13333333,0,0,-0.13333333,0,648.06667)" />
      <path
         id="path55"
         d="m 2436.67,3888.16 40.49,392.34 c 32.57,315.74 272.38,400.72 490.06,288.19 -213.04,177.52 -541.55,176.16 -565.63,-241.78 l -25.75,-446.93 60.83,8.18"
         style="fill:#87b027;fill-opacity:1;fill-rule:evenodd;stroke:none"
         transform="matrix(0.13333333,0,0,-0.13333333,0,648.06667)" />
      <path
         id="path56"
         d="m 2310.74,3880.41 c 0.04,448.46 -59.05,949.82 -658.14,949.82 501.78,-178.11 545.44,-447.05 549.74,-949.35 l 108.4,-0.47"
         style="fill:#87b027;fill-opacity:1;fill-rule:evenodd;stroke:none"
         transform="matrix(0.13333333,0,0,-0.13333333,0,648.06667)" />
    </g>
  </g>
</svg>
