<?xml version="1.0" encoding="UTF-8" standalone="no"?>
<!-- Created with Inkscape (http://www.inkscape.org/) -->

<svg
   version="1.1"
   id="svg1"
   width="734.45331"
   height="686.50665"
   viewBox="0 0 734.45331 686.50665"
   sodipodi:docname="robotic-arm-assembles-a-puzzle.svg"
   inkscape:version="1.3.2 (091e20ef0f, 2023-11-25, custom)"
   xmlns:inkscape="http://www.inkscape.org/namespaces/inkscape"
   xmlns:sodipodi="http://sodipodi.sourceforge.net/DTD/sodipodi-0.dtd"
   xmlns="http://www.w3.org/2000/svg"
   xmlns:svg="http://www.w3.org/2000/svg">
  <defs
     id="defs1" />
  <sodipodi:namedview
     id="namedview1"
     pagecolor="#505050"
     bordercolor="#ffffff"
     borderopacity="1"
     inkscape:showpageshadow="0"
     inkscape:pageopacity="0"
     inkscape:pagecheckerboard="1"
     inkscape:deskcolor="#d1d1d1"
     inkscape:zoom="0.872758"
     inkscape:cx="367.22665"
     inkscape:cy="343.7379"
     inkscape:window-width="1920"
     inkscape:window-height="1002"
     inkscape:window-x="0"
     inkscape:window-y="0"
     inkscape:window-maximized="1"
     inkscape:current-layer="g1">
    <inkscape:page
       x="0"
       y="0"
       inkscape:label="1"
       id="page1"
       width="734.45331"
       height="686.50665"
       margin="0"
       bleed="0" />
  </sodipodi:namedview>
  <g
     id="g1"
     inkscape:groupmode="layer"
     inkscape:label="1">
    <g
       id="group-R5">
      <path
         id="path2"
         d="m 1449.23,100.262 c 0,7.519 -1.07,14 -3.3,19.308 -2.16,5.379 -5.2,9.532 -9.1,12.461 -3.9,2.84 -8.18,4.301 -12.92,4.301 -7.49,0 -13.83,-3.16 -18.99,-9.293 -5.15,-6.199 -7.73,-15.258 -7.73,-27.2577 0,-11.3204 2.58,-20.1094 7.65,-26.3125 C 1410,67.1602 1416.36,64 1423.91,64 c 4.51,0 8.73,1.3711 12.59,4.1523 3.8,2.7383 6.9,6.8399 9.24,12.2696 2.35,5.5195 3.49,12.0976 3.49,19.8401 z m -53.31,41.379 v -3.422 c 5.11,6.543 10.4,11.441 15.91,14.48 5.53,3.114 11.81,4.672 18.8,4.672 8.34,0 16.05,-2.269 23.1,-6.781 7.03,-4.508 12.58,-11.059 16.69,-19.758 4.09,-8.68 6.09,-18.922 6.09,-30.781 0,-8.719 -1.13,-16.8401 -3.5,-24.051 -2.35,-7.3203 -5.6,-13.5 -9.7,-18.4414 -4.13,-4.957 -9.03,-8.7891 -14.6,-11.4297 -5.64,-2.7187 -11.69,-4.0195 -18.08,-4.0195 -7.82,0 -14.35,1.6211 -19.62,4.8828 -5.33,3.25 -10.33,8.0078 -15.09,14.3281 V 18.7188 C 1395.92,6.21875 1391.56,0 1382.86,0 c -5.11,0 -8.52,1.58984 -10.14,4.78906 -1.68,3.24219 -2.5,7.95314 -2.5,14.10154 V 141.449 c 0,5.403 1.09,9.453 3.38,12.114 2.29,2.648 5.37,4.007 9.26,4.007 3.86,0 7,-1.359 9.42,-4.14 2.41,-2.75 3.64,-6.688 3.64,-11.789"
         style="fill:#100f0d;fill-opacity:1;fill-rule:nonzero;stroke:none"
         transform="matrix(0.13333333,0,0,-0.13333333,0,686.50667)" />
      <path
         id="path3"
         d="m 1569.06,58.1602 v 3.582 c -3.27,-4.2813 -6.69,-7.8711 -10.29,-10.7734 -3.58,-2.9571 -7.5,-5.0977 -11.73,-6.5 -4.3,-1.418 -9.13,-2.1368 -14.58,-2.1368 -6.54,0 -12.44,1.4375 -17.67,4.25 -5.22,2.8282 -9.27,6.7696 -12.08,11.75 -3.45,6.0274 -5.1,14.6993 -5.1,25.9571 v 56.2739 c 0,5.648 1.23,9.929 3.69,12.718 2.46,2.801 5.7,4.219 9.74,4.219 4.14,0 7.44,-1.418 9.98,-4.289 2.52,-2.852 3.77,-7.082 3.77,-12.648 V 95.082 c 0,-6.5312 0.52,-12.082 1.56,-16.5117 1.11,-4.4883 3.02,-7.9883 5.8,-10.5586 2.7,-2.4922 6.45,-3.7617 11.17,-3.7617 4.63,0 8.93,1.4414 12.95,4.2695 4.09,2.8125 7.06,6.5196 8.9,11.1016 1.52,4.0195 2.28,12.8203 2.28,26.3989 v 34.543 c 0,5.566 1.26,9.796 3.81,12.648 2.5,2.871 5.75,4.289 9.83,4.289 4.06,0 7.3,-1.418 9.76,-4.219 2.43,-2.789 3.64,-7.07 3.64,-12.718 V 58.332 c 0,-5.4023 -1.13,-9.4804 -3.49,-12.1523 -2.33,-2.7383 -5.37,-4.0508 -9.11,-4.0508 -3.7,0 -6.76,1.4336 -9.2,4.1719 -2.42,2.8515 -3.63,6.7305 -3.63,11.8594"
         style="fill:#100f0d;fill-opacity:1;fill-rule:nonzero;stroke:none"
         transform="matrix(0.13333333,0,0,-0.13333333,0,686.50667)" />
      <path
         id="path4"
         d="m 1647.96,99.1406 c 0,-11.289 2.46,-19.9297 7.38,-26.0312 4.97,-6.0274 11.47,-9.1094 19.52,-9.1094 6.85,0 12.71,3.1289 17.69,9.3203 4.98,6.2188 7.45,15.0586 7.45,26.6485 0,7.5702 -1.04,13.9722 -3.1,19.3632 -2.08,5.438 -5.02,9.617 -8.77,12.539 -3.84,2.942 -8.2,4.461 -13.27,4.461 -5.23,0 -9.77,-1.519 -13.85,-4.461 -4.08,-2.922 -7.24,-7.211 -9.58,-12.801 -2.33,-5.539 -3.47,-12.16 -3.47,-19.9294 z m -1.29,84.3794 v -43.391 c 5.05,5.601 10.3,9.801 15.6,12.82 5.32,2.93 11.92,4.422 19.74,4.422 9.05,0 16.95,-2.269 23.77,-6.691 6.79,-4.551 12.11,-10.989 15.84,-19.481 3.79,-8.476 5.64,-18.558 5.64,-30.199 0,-8.6094 -1.03,-16.4805 -3.1,-23.7109 -2.11,-7.1368 -5.12,-13.3282 -9.12,-18.6602 -4.02,-5.2266 -8.86,-9.2695 -14.51,-12.25 -5.71,-2.8164 -11.97,-4.2695 -18.81,-4.2695 -4.14,0 -8.12,0.5195 -11.82,1.5429 -3.68,1.0469 -6.85,2.4102 -9.37,4.1563 -2.63,1.6016 -4.84,3.4219 -6.68,5.1836 -1.81,1.8281 -4.2,4.5078 -7.18,8.1094 V 58.332 c 0,-5.3632 -1.26,-9.4023 -3.72,-12.1523 -2.43,-2.7383 -5.6,-4.0703 -9.35,-4.0703 -3.87,0 -6.93,1.332 -9.25,4.0703 -2.27,2.8125 -3.41,6.8125 -3.41,12.1523 v 123.957 c 0,5.711 1.11,10.07 3.36,13.012 2.21,2.961 5.29,4.418 9.3,4.418 4.17,0 7.4,-1.387 9.63,-4.227 2.29,-2.781 3.44,-6.75 3.44,-11.972"
         style="fill:#100f0d;fill-opacity:1;fill-rule:nonzero;stroke:none"
         transform="matrix(0.13333333,0,0,-0.13333333,0,686.50667)" />
      <path
         id="path5"
         d="M 1746.46,59.3789 V 182.469 c 0,5.711 1.21,9.98 3.6,12.91 2.47,2.883 5.72,4.34 9.84,4.34 4.12,0 7.42,-1.406 9.96,-4.297 2.49,-2.863 3.8,-7.223 3.8,-12.953 V 59.3789 c 0,-5.7578 -1.31,-10.0976 -3.86,-13 -2.54,-2.8164 -5.85,-4.2695 -9.9,-4.2695 -3.99,0 -7.19,1.4922 -9.69,4.4726 -2.5,2.9883 -3.75,7.2383 -3.75,12.7969"
         style="fill:#100f0d;fill-opacity:1;fill-rule:nonzero;stroke:none"
         transform="matrix(0.13333333,0,0,-0.13333333,0,686.50667)" />
      <path
         id="path6"
         d="M 1828.93,141.371 V 59.3789 c 0,-5.7187 -1.33,-10.0195 -3.85,-12.9297 -2.62,-2.8476 -5.92,-4.3398 -9.87,-4.3398 -4,0 -7.25,1.4922 -9.73,4.4414 -2.46,3.0195 -3.75,7.2695 -3.75,12.8281 v 81.1841 c 0,5.566 1.29,9.796 3.75,12.648 2.48,2.871 5.73,4.289 9.73,4.289 3.95,0 7.25,-1.418 9.87,-4.289 2.52,-2.852 3.85,-6.781 3.85,-11.84 z m -13.45,29.348 c -3.79,0 -7,1.211 -9.75,3.703 -2.62,2.41 -4,5.867 -4,10.32 0,4 1.38,7.278 4.15,9.918 2.75,2.61 5.95,3.832 9.6,3.832 3.51,0 6.65,-1.14 9.37,-3.48 2.71,-2.36 4.08,-5.821 4.08,-10.27 0,-4.41 -1.34,-7.82 -4,-10.242 -2.66,-2.461 -5.77,-3.781 -9.45,-3.781"
         style="fill:#100f0d;fill-opacity:1;fill-rule:nonzero;stroke:none"
         transform="matrix(0.13333333,0,0,-0.13333333,0,686.50667)" />
      <path
         id="path7"
         d="m 1954.45,77.25 c 0,-3.5078 -0.99,-7.3086 -3.01,-11.3398 -2.06,-4.0079 -5.14,-7.8204 -9.3,-11.4688 -4.13,-3.6211 -9.36,-6.5508 -15.68,-8.75 -6.3,-2.2812 -13.42,-3.3594 -21.3,-3.3594 -16.83,0 -29.93,5.1289 -39.37,15.3282 -9.41,10.2304 -14.14,23.8984 -14.14,41.1093 0,11.6405 2.15,21.9605 6.45,30.8825 4.31,8.879 10.61,15.848 18.74,20.707 8.15,4.922 17.95,7.364 29.27,7.364 7.06,0 13.53,-1.102 19.42,-3.223 5.87,-2.168 10.85,-4.949 14.93,-8.309 4.08,-3.41 7.2,-7.039 9.37,-10.859 2.18,-3.84 3.23,-7.441 3.23,-10.769 0,-3.352 -1.24,-6.231 -3.63,-8.614 -2.45,-2.379 -5.35,-3.539 -8.81,-3.539 -2.29,0 -4.14,0.653 -5.66,1.86 -1.45,1.179 -3.15,3.082 -5.03,5.839 -3.3,5.25 -6.8,9.231 -10.4,11.922 -3.63,2.61 -8.23,3.949 -13.76,3.949 -8.09,0 -14.56,-3.328 -19.47,-9.871 -4.92,-6.578 -7.35,-15.539 -7.35,-26.8981 0,-5.3086 0.63,-10.2812 1.9,-14.7109 1.25,-4.4883 3.08,-8.2891 5.45,-11.4687 2.41,-3.1524 5.27,-5.5196 8.67,-7.1524 3.38,-1.6601 7.11,-2.457 11.14,-2.457 5.48,0 10.13,1.289 14.02,3.9297 3.89,2.6679 7.33,6.6875 10.31,12.0273 1.66,3.2734 3.45,5.7422 5.39,7.5703 1.94,1.8125 4.31,2.6719 7.09,2.6719 3.31,0 6.06,-1.2813 8.28,-3.9219 2.15,-2.6992 3.25,-5.4687 3.25,-8.4492"
         style="fill:#100f0d;fill-opacity:1;fill-rule:nonzero;stroke:none"
         transform="matrix(0.13333333,0,0,-0.13333333,0,686.50667)" />
      <path
         id="path8"
         d="m 1999.26,99.9688 c 0,-7.6993 1.14,-14.1993 3.42,-19.6368 2.31,-5.4218 5.4,-9.4414 9.39,-12.1797 4.01,-2.7812 8.36,-4.1523 13.04,-4.1523 4.79,0 9.15,1.332 13.1,3.8906 3.97,2.6094 7.09,6.6289 9.48,11.9883 2.36,5.3516 3.53,12.082 3.53,20.0899 0,7.6012 -1.17,14.0622 -3.53,19.5312 -2.39,5.449 -5.56,9.602 -9.56,12.531 -4.03,2.84 -8.41,4.301 -13.19,4.301 -4.96,0 -9.41,-1.519 -13.34,-4.461 -3.89,-2.922 -6.97,-7.199 -9.12,-12.699 -2.14,-5.531 -3.22,-11.871 -3.22,-19.2032 z m 53.45,-41.6368 v 2.7696 c -3.65,-4.3594 -7.25,-7.9102 -10.85,-10.6094 -3.49,-2.7695 -7.37,-4.8399 -11.52,-6.2617 -4.13,-1.3907 -8.67,-2.1211 -13.57,-2.1211 -6.5,0 -12.57,1.4531 -18.09,4.2695 -5.53,2.9805 -10.33,7.0313 -14.38,12.3711 -4.04,5.3398 -7.12,11.6094 -9.23,18.8398 -2.12,7.1797 -3.14,14.9805 -3.14,23.4102 0,17.699 4.16,31.59 12.46,41.512 8.33,9.91 19.23,14.859 32.76,14.859 7.84,0 14.46,-1.43 19.83,-4.289 5.36,-2.762 10.63,-7.082 15.73,-12.953 v 41.922 c 0,5.84 1.1,10.23 3.34,13.199 2.22,3 5.36,4.469 9.5,4.469 4.11,0 7.28,-1.367 9.53,-4.078 2.21,-2.719 3.36,-6.782 3.36,-12.121 V 58.332 c 0,-5.4023 -1.21,-9.4804 -3.62,-12.1523 -2.4,-2.7383 -5.45,-4.0703 -9.27,-4.0703 -3.68,0 -6.8,1.3906 -9.23,4.1914 -2.4,2.8008 -3.61,6.7695 -3.61,12.0312"
         style="fill:#100f0d;fill-opacity:1;fill-rule:nonzero;stroke:none"
         transform="matrix(0.13333333,0,0,-0.13333333,0,686.50667)" />
      <path
         id="path9"
         d="m 2180.24,99.7422 c 0,11.5388 -2.48,20.5778 -7.33,27.0198 -4.89,6.41 -11.46,9.66 -19.68,9.66 -5.35,0 -10,-1.442 -14.06,-4.313 -4.04,-2.918 -7.16,-7.16 -9.36,-12.777 -2.17,-5.551 -3.29,-12.07 -3.29,-19.5898 0,-7.4297 1.12,-13.8828 3.24,-19.4102 2.14,-5.5507 5.25,-9.8007 9.29,-12.75 4,-2.9297 8.77,-4.3828 14.18,-4.3828 8.22,0 14.79,3.211 19.68,9.6914 4.85,6.4492 7.33,15.4492 7.33,26.8516 z m 27.29,0 c 0,-8.4102 -1.28,-16.2109 -3.79,-23.4024 -2.52,-7.0781 -6.17,-13.2304 -10.93,-18.371 -4.82,-5.1368 -10.52,-8.9766 -17.16,-11.7891 -6.63,-2.7383 -14.16,-4.0703 -22.42,-4.0703 -8.22,0 -15.64,1.332 -22.19,4.1523 -6.59,2.7578 -12.31,6.7305 -17.13,11.8985 -4.79,5.1796 -8.43,11.2304 -10.95,18.2617 -2.49,7.0781 -3.72,14.8203 -3.72,23.3672 0,8.6019 1.27,16.4609 3.77,23.5699 2.52,7.172 6.12,13.231 10.85,18.332 4.72,5.051 10.42,8.938 17.18,11.68 6.72,2.738 14.08,4.129 22.19,4.129 8.24,0 15.72,-1.391 22.42,-4.168 6.69,-2.769 12.44,-6.762 17.21,-11.883 4.82,-5.117 8.44,-11.258 10.88,-18.328 2.55,-7.051 3.79,-14.851 3.79,-23.3788"
         style="fill:#100f0d;fill-opacity:1;fill-rule:nonzero;stroke:none"
         transform="matrix(0.13333333,0,0,-0.13333333,0,686.50667)" />
      <path
         id="path10"
         d="m 2322.38,123.191 c -2.04,-4.789 -3,-13.261 -3,-25.4605 v -37.711 c 0,-5.9375 -1.27,-10.4492 -3.9,-13.4375 -2.57,-2.9804 -6.04,-4.4726 -10.28,-4.4726 -4.08,0 -7.41,1.4922 -9.95,4.4726 -2.56,2.9883 -3.81,7.5 -3.81,13.4375 v 45.2695 c 0,7.121 -0.27,12.652 -0.74,16.652 -0.48,3.911 -1.72,7.168 -3.79,9.711 -2.01,2.547 -5.29,3.809 -9.72,3.809 -8.89,0 -14.74,-3.199 -17.59,-9.609 -2.85,-6.352 -4.19,-15.512 -4.19,-27.4497 V 60.0195 c 0,-5.9297 -1.31,-10.3906 -3.84,-13.3398 -2.58,-3.0781 -5.95,-4.5703 -10.09,-4.5703 -4.15,0 -7.55,1.4922 -10.16,4.5703 -2.64,2.9492 -3.89,7.4101 -3.89,13.332 v 81.2073 c 0,5.351 1.12,9.41 3.46,12.183 2.39,2.75 5.49,4.168 9.37,4.168 3.71,0 6.83,-1.281 9.3,-3.89 2.48,-2.59 3.73,-6.16 3.73,-10.75 v -2.7 c 4.7,5.899 9.76,10.25 15.12,12.981 5.37,2.769 11.41,4.16 17.94,4.16 6.82,0 12.67,-1.43 17.59,-4.289 4.94,-2.812 8.97,-7.121 12.13,-12.852 4.6,5.77 9.51,10.129 14.77,12.93 5.26,2.82 11.05,4.211 17.41,4.211 7.49,0 13.88,-1.492 19.22,-4.59 5.4,-3.051 9.41,-7.402 12.08,-13.09 2.33,-5.128 3.47,-13.199 3.47,-24.242 V 60.0195 c 0,-5.9375 -1.29,-10.4492 -3.84,-13.4375 -2.64,-2.9804 -6.03,-4.4726 -10.28,-4.4726 -4.13,0 -7.49,1.4922 -10.1,4.5703 -2.66,2.9492 -3.97,7.4101 -3.97,13.3398 v 47.7615 c 0,6.098 -0.25,10.981 -0.73,14.66 -0.51,3.711 -1.85,6.75 -4.07,9.258 -2.17,2.5 -5.51,3.762 -9.92,3.762 -3.59,0 -7.01,-1.129 -10.18,-3.301 -3.27,-2.238 -5.72,-5.219 -7.55,-8.969 v 0"
         style="fill:#100f0d;fill-opacity:1;fill-rule:nonzero;stroke:none"
         transform="matrix(0.13333333,0,0,-0.13333333,0,686.50667)" />
      <path
         id="path11"
         d="m 2476.4,99.2109 c -4.01,-1.5703 -9.8,-3.1289 -17.41,-4.8593 -7.61,-1.6993 -12.87,-2.9414 -15.8,-3.75 -2.93,-0.8203 -5.72,-2.3594 -8.34,-4.6602 -2.68,-2.3906 -4.02,-5.6094 -4.02,-9.7695 0,-4.3399 1.58,-7.961 4.67,-10.9922 3.14,-3.0508 7.23,-4.5274 12.28,-4.5274 5.37,0 10.37,1.25 14.9,3.7071 4.55,2.4414 7.92,5.6601 10,9.5 2.47,4.3203 3.72,11.3711 3.72,21.3008 z m 1.77,-41.1211 c -6.59,-5.3476 -12.95,-9.3203 -19.08,-11.9609 -6.13,-2.7187 -13.05,-4.0195 -20.65,-4.0195 -7.02,0 -13.09,1.4531 -18.41,4.2695 -5.32,2.9024 -9.35,6.8125 -12.22,11.7813 -2.82,4.9101 -4.28,10.1992 -4.28,15.9921 0,7.7579 2.41,14.3477 7.11,19.8399 4.68,5.4492 11.15,9.1288 19.38,11.0198 1.73,0.418 6.04,1.308 12.84,2.769 6.91,1.489 12.71,2.789 17.67,4 4.83,1.199 10.16,2.68 15.87,4.399 -0.35,7.519 -1.79,13.011 -4.32,16.582 -2.6,3.468 -7.93,5.179 -15.92,5.179 -6.94,0 -12.11,-0.98 -15.64,-2.992 -3.46,-1.98 -6.48,-5.027 -8.93,-9.097 -2.52,-4 -4.24,-6.661 -5.28,-7.922 -1.06,-1.321 -3.27,-1.899 -6.6,-1.899 -3.1,0 -5.73,1.008 -7.92,3.028 -2.26,2.062 -3.36,4.64 -3.36,7.882 0,4.969 1.69,9.86 5.06,14.508 3.39,4.742 8.69,8.61 15.85,11.711 7.16,3.051 16.12,4.563 26.82,4.563 11.93,0 21.34,-1.512 28.22,-4.442 6.83,-2.922 11.61,-7.551 14.46,-13.98 2.84,-6.332 4.24,-14.832 4.24,-25.36 0,-6.64 0,-12.332 -0.04,-16.941 -0.06,-4.6875 -0.09,-9.8398 -0.15,-15.5195 0,-5.3086 0.84,-10.8985 2.55,-16.6602 1.65,-5.789 2.5,-9.5312 2.5,-11.1601 0,-2.918 -1.33,-5.5899 -3.94,-7.9688 -2.56,-2.3789 -5.57,-3.582 -8.87,-3.582 -2.84,0 -5.53,1.332 -8.3,4.0703 -2.71,2.75 -5.6,6.75 -8.66,11.9101"
         style="fill:#100f0d;fill-opacity:1;fill-rule:nonzero;stroke:none"
         transform="matrix(0.13333333,0,0,-0.13333333,0,686.50667)" />
      <path
         id="path12"
         d="M 2557.9,141.371 V 59.3789 c 0,-5.7187 -1.3,-10.0195 -3.85,-12.9297 -2.59,-2.8476 -5.86,-4.3398 -9.86,-4.3398 -3.97,0 -7.25,1.4922 -9.71,4.4414 -2.52,3.0195 -3.77,7.2695 -3.77,12.8281 v 81.1841 c 0,5.566 1.25,9.796 3.77,12.648 2.46,2.871 5.74,4.289 9.71,4.289 4,0 7.27,-1.418 9.86,-4.289 2.55,-2.852 3.85,-6.781 3.85,-11.84 z m -13.44,29.348 c -3.75,0 -6.97,1.211 -9.67,3.703 -2.69,2.41 -4.08,5.867 -4.08,10.32 0,4 1.41,7.278 4.17,9.918 2.73,2.61 5.97,3.832 9.58,3.832 3.53,0 6.69,-1.14 9.42,-3.48 2.68,-2.36 4.02,-5.821 4.02,-10.27 0,-4.41 -1.3,-7.82 -3.97,-10.242 -2.66,-2.461 -5.81,-3.781 -9.47,-3.781"
         style="fill:#100f0d;fill-opacity:1;fill-rule:nonzero;stroke:none"
         transform="matrix(0.13333333,0,0,-0.13333333,0,686.50667)" />
      <path
         id="path13"
         d="m 2610.75,141.781 v -3.379 c 4.76,6.559 9.98,11.387 15.62,14.469 5.69,3.07 12.22,4.629 19.63,4.629 7.13,0 13.57,-1.621 19.25,-4.918 5.59,-3.242 9.84,-7.82 12.59,-13.762 1.82,-3.488 2.94,-7.269 3.52,-11.269 0.49,-3.981 0.8,-9.121 0.8,-15.379 V 59.3789 c 0,-5.7187 -1.29,-10.0195 -3.76,-12.9297 -2.5,-2.8476 -5.74,-4.3398 -9.71,-4.3398 -4.04,0 -7.35,1.4922 -9.77,4.4726 -2.56,2.9883 -3.86,7.2383 -3.86,12.7969 v 47.2731 c 0,9.399 -1.21,16.539 -3.69,21.477 -2.54,4.953 -7.52,7.473 -14.96,7.473 -4.84,0 -9.25,-1.532 -13.22,-4.563 -3.98,-2.976 -6.91,-7.137 -8.76,-12.418 -1.33,-4.23 -2.03,-12.09 -2.03,-23.7421 v -35.5 c 0,-5.7578 -1.25,-10.0976 -3.82,-13 -2.57,-2.8164 -5.87,-4.2695 -9.9,-4.2695 -3.89,0 -7.14,1.4922 -9.65,4.4414 -2.57,3.0195 -3.81,7.2695 -3.81,12.8281 v 81.9921 c 0,5.43 1.12,9.43 3.41,12.098 2.21,2.683 5.37,4.031 9.27,4.031 2.35,0 4.54,-0.641 6.43,-1.77 1.99,-1.16 3.48,-2.988 4.65,-5.25 1.12,-2.417 1.77,-5.3 1.77,-8.699"
         style="fill:#100f0d;fill-opacity:1;fill-rule:nonzero;stroke:none"
         transform="matrix(0.13333333,0,0,-0.13333333,0,686.50667)" />
      <path
         id="path14"
         d="m 2725.8,139.832 21.96,-64.4414 23.72,67.2504 c 1.89,5.422 3.71,9.199 5.52,11.468 1.83,2.243 4.5,3.391 8.14,3.391 3.45,0 6.38,-1.211 8.86,-3.68 2.38,-2.41 3.6,-5.168 3.6,-8.441 0,-1.219 -0.24,-2.656 -0.67,-4.277 -0.39,-1.7 -0.89,-3.262 -1.48,-4.762 -0.57,-1.391 -1.15,-3.078 -1.94,-4.938 l -26.09,-67.57 c -0.73,-1.9297 -1.7,-4.4218 -2.83,-7.4101 -1.18,-2.9727 -2.5,-5.461 -3.89,-7.6524 -1.46,-2.0898 -3.2,-3.6992 -5.27,-4.8906 -2.13,-1.1797 -4.68,-1.7695 -7.67,-1.7695 -3.84,0 -6.9,0.9023 -9.22,2.7109 -2.29,1.8594 -3.99,3.8399 -5.07,6.082 -1.08,2.129 -2.96,6.4766 -5.52,12.9297 l -25.93,66.84 c -0.59,1.629 -1.24,3.308 -1.88,4.98 -0.6,1.661 -1.09,3.321 -1.56,5.09 -0.42,1.77 -0.66,3.25 -0.66,4.438 0,1.98 0.57,3.902 1.72,5.8 1.13,1.93 2.69,3.5 4.68,4.68 2.02,1.199 4.13,1.84 6.5,1.84 4.47,0 7.59,-1.348 9.3,-4.098 1.7,-2.683 3.6,-7.211 5.68,-13.57"
         style="fill:#100f0d;fill-opacity:1;fill-rule:nonzero;stroke:none"
         transform="matrix(0.13333333,0,0,-0.13333333,0,686.50667)" />
      <path
         id="path15"
         d="m 2837.03,109.012 h 49.29 c -0.63,9.668 -3.12,16.918 -7.5,21.718 -4.37,4.79 -10.1,7.211 -17.22,7.211 -6.73,0 -12.31,-2.449 -16.64,-7.312 -4.34,-4.859 -6.95,-12.09 -7.93,-21.617 z m 53.2,-16.1526 h -53.2 c 0.01,-6.4688 1.31,-12.1406 3.69,-17.0977 2.46,-4.8711 5.67,-8.6015 9.7,-11.1094 4,-2.5234 8.46,-3.7304 13.31,-3.7304 3.24,0 6.25,0.3984 8.9,1.1679 2.67,0.8399 5.31,2.0821 7.86,3.75 2.48,1.711 4.78,3.4727 6.93,5.4922 2.1,1.9375 4.93,4.5274 8.27,7.8789 1.41,1.3008 3.42,1.8907 5.97,1.8907 2.84,0 5.07,-0.7696 6.81,-2.4102 1.73,-1.5898 2.54,-3.8203 2.54,-6.7305 0,-2.5703 -0.94,-5.5703 -2.88,-9.0312 -1.91,-3.3789 -4.76,-6.6992 -8.72,-9.8984 -3.89,-3.1211 -8.77,-5.6915 -14.64,-7.8321 -5.85,-2.0703 -12.58,-3.0898 -20.29,-3.0898 -17.43,0 -31.03,5.2304 -40.69,15.5703 -9.69,10.4492 -14.51,24.5117 -14.51,42.2891 0,8.4922 1.23,16.2112 3.56,23.3712 2.39,7.191 5.86,13.332 10.46,18.441 4.59,5.16 10.2,9.121 16.92,11.821 6.74,2.75 14.15,4.121 22.35,4.121 10.55,0 19.7,-2.332 27.29,-7.043 7.63,-4.68 13.31,-10.68 17.09,-18.09 3.79,-7.461 5.69,-14.981 5.69,-22.731 0,-7.078 -1.91,-11.7067 -5.86,-13.8082 -3.96,-2.1485 -9.44,-3.1914 -16.55,-3.1914"
         style="fill:#100f0d;fill-opacity:1;fill-rule:nonzero;stroke:none"
         transform="matrix(0.13333333,0,0,-0.13333333,0,686.50667)" />
      <path
         id="path16"
         d="m 3033.12,77.25 c 0,-3.5078 -1.01,-7.3086 -3.08,-11.3398 -2.03,-4.0079 -5.06,-7.8204 -9.25,-11.4688 -4.13,-3.6211 -9.4,-6.5508 -15.73,-8.75 -6.27,-2.2812 -13.42,-3.3594 -21.25,-3.3594 -16.87,0 -29.97,5.1289 -39.39,15.3282 -9.4,10.2304 -14.15,23.8984 -14.15,41.1093 0,11.6405 2.14,21.9605 6.5,30.8825 4.32,8.879 10.51,15.848 18.71,20.707 8.13,4.922 17.93,7.364 29.31,7.364 7.03,0 13.46,-1.102 19.39,-3.223 5.86,-2.168 10.8,-4.949 14.94,-8.309 4.08,-3.41 7.17,-7.039 9.36,-10.859 2.14,-3.84 3.21,-7.441 3.21,-10.769 0,-3.352 -1.18,-6.231 -3.68,-8.614 -2.39,-2.379 -5.32,-3.539 -8.78,-3.539 -2.26,0 -4.13,0.653 -5.6,1.86 -1.52,1.179 -3.18,3.082 -5.07,5.839 -3.32,5.25 -6.76,9.231 -10.39,11.922 -3.62,2.61 -8.22,3.949 -13.81,3.949 -7.99,0 -14.49,-3.328 -19.4,-9.871 -4.96,-6.578 -7.4,-15.539 -7.4,-26.8981 0,-5.3086 0.67,-10.2812 1.88,-14.7109 1.27,-4.4883 3.12,-8.2891 5.52,-11.4687 2.38,-3.1524 5.29,-5.5196 8.67,-7.1524 3.33,-1.6601 7.07,-2.457 11.16,-2.457 5.42,0 10.11,1.289 14,3.9297 3.87,2.6679 7.33,6.6875 10.32,12.0273 1.67,3.2734 3.43,5.7422 5.38,7.5703 1.91,1.8125 4.23,2.6719 7.07,2.6719 3.27,0 6.08,-1.2813 8.19,-3.9219 2.24,-2.6992 3.37,-5.4687 3.37,-8.4492"
         style="fill:#100f0d;fill-opacity:1;fill-rule:nonzero;stroke:none"
         transform="matrix(0.13333333,0,0,-0.13333333,0,686.50667)" />
      <path
         id="path17"
         d="m 3058.37,155.102 h 2.99 v 17.058 c 0,4.551 0.12,8.172 0.37,10.762 0.22,2.598 0.82,4.777 1.94,6.699 1.03,1.899 2.56,3.488 4.59,4.731 1.97,1.179 4.19,1.757 6.65,1.757 3.44,0 6.57,-1.328 9.35,-4.007 1.81,-1.832 3.03,-4 3.52,-6.582 0.51,-2.598 0.74,-6.34 0.74,-11.098 v -19.32 h 10 c 3.84,0 6.79,-0.961 8.81,-2.872 2.06,-1.91 3.05,-4.32 3.05,-7.308 0,-3.82 -1.43,-6.52 -4.36,-8.02 -2.88,-1.492 -7.02,-2.261 -12.39,-2.261 h -5.11 V 82.3594 c 0,-4.4492 0.16,-7.8672 0.44,-10.2891 0.36,-2.4101 1.2,-4.3476 2.46,-5.789 1.26,-1.5118 3.37,-2.2813 6.31,-2.2813 1.59,0 3.73,0.2695 6.49,0.9023 2.66,0.5782 4.79,0.879 6.35,0.879 2.17,0 4.22,-0.961 5.94,-2.711 1.72,-1.8906 2.63,-4.1211 2.63,-6.8398 0,-4.5508 -2.34,-8.0586 -7.16,-10.4883 -4.83,-2.4297 -11.69,-3.6328 -20.61,-3.6328 -8.51,0 -14.97,1.4922 -19.36,4.4726 -4.35,2.9883 -7.27,7.0782 -8.58,12.4102 -1.4,5.2578 -2.07,12.2969 -2.07,21.0898 v 54.559 h -3.62 c -3.84,0 -6.84,0.961 -8.92,2.918 -2.07,1.933 -3.08,4.363 -3.08,7.363 0,2.988 1.06,5.398 3.2,7.308 2.18,1.911 5.3,2.872 9.43,2.872"
         style="fill:#100f0d;fill-opacity:1;fill-rule:nonzero;stroke:none"
         transform="matrix(0.13333333,0,0,-0.13333333,0,686.50667)" />
      <path
         id="path18"
         d="m 3203.56,99.7422 c 0,11.5388 -2.46,20.5778 -7.31,27.0198 -4.93,6.41 -11.43,9.66 -19.69,9.66 -5.33,0 -10,-1.442 -14.02,-4.313 -4.08,-2.918 -7.2,-7.16 -9.38,-12.777 -2.18,-5.551 -3.31,-12.07 -3.31,-19.5898 0,-7.4297 1.13,-13.8828 3.28,-19.4102 2.14,-5.5507 5.21,-9.8007 9.22,-12.75 4.01,-2.9297 8.75,-4.3828 14.21,-4.3828 8.26,0 14.76,3.211 19.69,9.6914 4.85,6.4492 7.31,15.4492 7.31,26.8516 z m 27.31,0 c 0,-8.4102 -1.25,-16.2109 -3.82,-23.4024 -2.5,-7.0781 -6.17,-13.2304 -10.93,-18.371 -4.79,-5.1368 -10.51,-8.9766 -17.13,-11.7891 -6.67,-2.7383 -14.09,-4.0703 -22.43,-4.0703 -8.27,0 -15.68,1.332 -22.22,4.1523 -6.57,2.7578 -12.29,6.7305 -17.09,11.8985 -4.8,5.1796 -8.46,11.2304 -10.91,18.2617 -2.48,7.0781 -3.7,14.8203 -3.7,23.3672 0,8.6019 1.22,16.4609 3.7,23.5699 2.58,7.172 6.15,13.231 10.86,18.332 4.75,5.051 10.45,8.938 17.14,11.68 6.77,2.738 14.16,4.129 22.22,4.129 8.26,0 15.7,-1.391 22.43,-4.168 6.7,-2.769 12.43,-6.762 17.22,-11.883 4.73,-5.117 8.44,-11.258 10.92,-18.328 2.49,-7.051 3.74,-14.851 3.74,-23.3788"
         style="fill:#100f0d;fill-opacity:1;fill-rule:nonzero;stroke:none"
         transform="matrix(0.13333333,0,0,-0.13333333,0,686.50667)" />
      <path
         id="path19"
         d="M 3279.32,83 V 59.3789 c 0,-5.7578 -1.31,-10.0976 -3.91,-13 -2.6,-2.8164 -5.87,-4.2695 -9.89,-4.2695 -3.87,0 -7.12,1.4922 -9.63,4.3398 -2.52,2.9102 -3.76,7.211 -3.76,12.9297 v 79.0001 c 0,12.762 4.39,19.121 13.23,19.121 4.47,0 7.75,-1.52 9.78,-4.469 1.95,-2.972 3,-7.39 3.27,-13.199 3.23,5.809 6.61,10.227 10.04,13.199 3.42,2.949 7.96,4.469 13.64,4.469 5.76,0 11.28,-1.52 16.68,-4.469 5.35,-2.972 8.08,-6.949 8.08,-11.851 0,-3.457 -1.19,-6.367 -3.47,-8.59 -2.27,-2.231 -4.75,-3.399 -7.44,-3.399 -0.98,0 -3.4,0.661 -7.21,1.969 -3.85,1.262 -7.22,1.922 -10.16,1.922 -3.93,0 -7.18,-1.051 -9.68,-3.293 -2.54,-2.219 -4.51,-5.41 -5.9,-9.699 -1.4,-4.34 -2.4,-9.43 -2.9,-15.391 -0.51,-5.8787 -0.77,-13.0896 -0.77,-21.699"
         style="fill:#100f0d;fill-opacity:1;fill-rule:nonzero;stroke:none"
         transform="matrix(0.13333333,0,0,-0.13333333,0,686.50667)" />
      <path
         id="path20"
         d="m 3424.17,79.1914 c 0,-7.8594 -1.83,-14.5391 -5.52,-20.1328 -3.67,-5.6094 -9.05,-9.7773 -16.2,-12.6875 -7.17,-2.8086 -15.82,-4.2617 -26.1,-4.2617 -9.68,0 -18.1,1.5429 -25.09,4.6914 -6.97,3.1094 -12.13,6.9883 -15.42,11.6484 -3.36,4.6602 -5.07,9.3594 -5.07,14.0625 0,3.1094 1.1,5.7891 3.27,8 2.11,2.2696 4.82,3.3203 8.03,3.3203 2.87,0 5.1,-0.7422 6.61,-2.1406 1.53,-1.5508 2.95,-3.5508 4.39,-6.1914 2.78,-5.0586 6.1,-8.8398 10.05,-11.3281 3.81,-2.5313 9.12,-3.7696 15.88,-3.7696 5.42,0 9.9,1.2891 13.39,3.8165 3.47,2.5234 5.27,5.4101 5.27,8.6718 0,5.0196 -1.84,8.668 -5.43,10.9297 -3.68,2.3399 -9.6,4.5195 -17.9,6.582 -9.36,2.4297 -17.01,4.9766 -22.89,7.6172 -5.87,2.6915 -10.63,6.2305 -14.12,10.6015 -3.52,4.301 -5.31,9.711 -5.31,16.078 0,5.731 1.64,11.09 4.9,16.133 3.24,5.07 8.11,9.09 14.43,12.117 6.33,3.031 13.97,4.551 22.99,4.551 7,0 13.33,-0.781 18.97,-2.309 5.6,-1.511 10.34,-3.582 14.03,-6.109 3.75,-2.582 6.64,-5.422 8.59,-8.519 1.99,-3.153 2.96,-6.204 2.96,-9.161 0,-3.273 -1.03,-5.882 -3.17,-8.043 -2.1,-2.007 -5.09,-3.058 -8.88,-3.058 -2.83,0 -5.19,0.82 -7.19,2.519 -1.92,1.641 -4.19,4.121 -6.7,7.403 -2.06,2.777 -4.46,5.019 -7.29,6.679 -2.79,1.629 -6.57,2.5 -11.32,2.5 -4.94,0 -9.06,-1.082 -12.25,-3.293 -3.28,-2.168 -4.92,-4.91 -4.92,-8.16 0,-3 1.21,-5.429 3.56,-7.34 2.42,-1.91 5.63,-3.48 9.7,-4.738 4.08,-1.25 9.64,-2.808 16.75,-4.59 8.46,-2.14 15.32,-4.679 20.68,-7.691 5.34,-2.949 9.39,-6.4806 12.14,-10.5392 2.8,-4.0899 4.18,-8.711 4.18,-13.8594"
         style="fill:#100f0d;fill-opacity:1;fill-rule:nonzero;stroke:none"
         transform="matrix(0.13333333,0,0,-0.13333333,0,686.50667)" />
      <path
         id="path21"
         d="m 3455.05,42.1094 c -4.12,0 -7.69,1.332 -10.64,4.1523 -3.03,2.7578 -4.51,6.668 -4.51,11.6094 0,4.2187 1.4,7.8594 4.23,10.9297 2.86,3.0312 6.41,4.5195 10.6,4.5195 4.16,0 7.74,-1.4883 10.63,-4.5117 3,-2.9688 4.48,-6.6797 4.48,-10.9375 0,-4.9023 -1.48,-8.7695 -4.48,-11.5703 -2.89,-2.8008 -6.34,-4.1914 -10.31,-4.1914"
         style="fill:#100f0d;fill-opacity:1;fill-rule:nonzero;stroke:none"
         transform="matrix(0.13333333,0,0,-0.13333333,0,686.50667)" />
      <path
         id="path22"
         d="m 3575.3,99.7422 c 0,11.5388 -2.45,20.5778 -7.33,27.0198 -4.88,6.41 -11.42,9.66 -19.65,9.66 -5.32,0 -9.95,-1.442 -14.02,-4.313 -4.07,-2.918 -7.18,-7.16 -9.36,-12.777 -2.17,-5.551 -3.28,-12.07 -3.28,-19.5898 0,-7.4297 1.05,-13.8828 3.19,-19.4102 2.23,-5.5507 5.28,-9.8007 9.31,-12.75 4,-2.9297 8.72,-4.3828 14.16,-4.3828 8.23,0 14.77,3.211 19.65,9.6914 4.88,6.4492 7.33,15.4492 7.33,26.8516 z m 27.33,0 c 0,-8.4102 -1.25,-16.2109 -3.81,-23.4024 -2.54,-7.0781 -6.15,-13.2304 -10.95,-18.371 -4.82,-5.1368 -10.47,-8.9766 -17.13,-11.7891 -6.62,-2.7383 -14.09,-4.0703 -22.42,-4.0703 -8.22,0 -15.62,1.332 -22.2,4.1523 -6.58,2.7578 -12.24,6.7305 -17.05,11.8985 -4.89,5.1796 -8.51,11.2304 -11.03,18.2617 -2.44,7.0781 -3.69,14.8203 -3.69,23.3672 0,8.6019 1.25,16.4609 3.78,23.5699 2.57,7.172 6.14,13.231 10.83,18.332 4.71,5.051 10.43,8.938 17.16,11.68 6.7,2.738 14.06,4.129 22.2,4.129 8.23,0 15.7,-1.391 22.42,-4.168 6.74,-2.769 12.46,-6.762 17.26,-11.883 4.74,-5.117 8.38,-11.258 10.9,-18.328 2.48,-7.051 3.73,-14.851 3.73,-23.3788"
         style="fill:#100f0d;fill-opacity:1;fill-rule:nonzero;stroke:none"
         transform="matrix(0.13333333,0,0,-0.13333333,0,686.50667)" />
      <path
         id="path23"
         d="M 3651.06,83 V 59.3789 c 0,-5.7578 -1.29,-10.0976 -3.88,-13 -2.55,-2.8164 -5.88,-4.2695 -9.84,-4.2695 -3.96,0 -7.14,1.4922 -9.68,4.3398 -2.56,2.9102 -3.8,7.211 -3.8,12.9297 v 79.0001 c 0,12.762 4.47,19.121 13.26,19.121 4.52,0 7.75,-1.52 9.74,-4.469 1.96,-2.972 3.12,-7.39 3.35,-13.199 3.2,5.809 6.53,10.227 9.95,13.199 3.43,2.949 8,4.469 13.67,4.469 5.81,0 11.35,-1.52 16.67,-4.469 5.38,-2.972 8.09,-6.949 8.09,-11.851 0,-3.457 -1.15,-6.367 -3.42,-8.59 -2.32,-2.231 -4.75,-3.399 -7.47,-3.399 -0.96,0 -3.35,0.661 -7.17,1.969 -3.84,1.262 -7.21,1.922 -10.16,1.922 -3.95,0 -7.19,-1.051 -9.78,-3.293 -2.48,-2.219 -4.45,-5.41 -5.86,-9.699 -1.36,-4.34 -2.34,-9.43 -2.85,-15.391 -0.53,-5.8787 -0.82,-13.0896 -0.82,-21.699"
         style="fill:#100f0d;fill-opacity:1;fill-rule:nonzero;stroke:none"
         transform="matrix(0.13333333,0,0,-0.13333333,0,686.50667)" />
      <path
         id="path24"
         d="m 3729.58,100.719 c 0,-11.4768 2.42,-20.1995 7.26,-26.1096 4.77,-5.8477 11.04,-8.8281 18.63,-8.8281 4.49,0 8.82,1.3085 12.81,3.8398 4.02,2.5312 7.3,6.3281 9.83,11.4297 2.55,5.1094 3.77,11.2617 3.77,18.539 0,11.5702 -2.46,20.5622 -7.33,26.9922 -4.86,6.5 -11.3,9.75 -19.26,9.75 -7.74,0 -13.98,-3.16 -18.65,-9.293 -4.71,-6.187 -7.06,-14.937 -7.06,-26.32 z m 78.84,36 V 54.2422 c 0,-9.4609 -1.04,-17.5508 -2.92,-24.3125 -1.94,-6.8281 -5.01,-12.4375 -9.26,-16.8672 -4.25,-4.42187 -9.84,-7.71094 -16.67,-9.86328 C 3772.69,1.08984 3764.12,0 3753.91,0 c -9.39,0 -17.78,1.32031 -25.1,4.05859 -7.39,2.80079 -13.09,6.30081 -17.05,10.66411 -3.99,4.289 -6,8.75 -6,13.3476 0,3.4805 1.11,6.2813 3.43,8.461 2.23,2.2382 4.96,3.3203 8.13,3.3203 4.01,0 7.45,-1.8594 10.49,-5.5118 1.47,-1.9296 2.99,-3.8007 4.5,-5.6796 1.57,-1.918 3.31,-3.5899 5.18,-4.8985 1.91,-1.3906 4.21,-2.3906 6.87,-3.0508 2.59,-0.6484 5.7,-0.9882 9.17,-0.9882 6.98,0 12.51,1.0468 16.36,3.0664 3.89,2.0429 6.62,4.9023 8.21,8.5625 1.48,3.6875 2.49,7.5976 2.64,11.789 0.32,4.2813 0.51,10.9492 0.7,20.2813 -4.18,-6.0899 -9.1,-10.7422 -14.52,-13.9219 -5.47,-3.1992 -12.03,-4.7578 -19.54,-4.7578 -9.18,0 -17.13,2.3867 -23.88,7.2695 -6.85,4.8399 -12.08,11.6172 -15.73,20.3789 -3.6,8.711 -5.48,18.7891 -5.48,30.2304 0,8.578 1.1,16.281 3.36,23.149 2.18,6.82 5.34,12.632 9.53,17.339 4.07,4.723 8.84,8.282 14.21,10.692 5.41,2.351 11.25,3.57 17.76,3.57 7.66,0 14.33,-1.558 19.97,-4.672 5.72,-3.039 10.91,-7.937 15.77,-14.48 v 3.801 c 0,4.96 1.2,8.742 3.5,11.519 2.29,2.672 5.31,4.031 8.94,4.031 5.27,0 8.75,-1.757 10.5,-5.34 1.7,-3.578 2.59,-8.781 2.59,-15.511"
         style="fill:#100f0d;fill-opacity:1;fill-rule:nonzero;stroke:none"
         transform="matrix(0.13333333,0,0,-0.13333333,0,686.50667)" />
      <path
         id="path25"
         d="m 2629.71,413.09 h 40.34 c -2.85,-21.75 -11.76,-38.719 -26.58,-50.938 -13.72,-11.972 -30.33,-17.871 -49.73,-17.871 -26.35,0 -47.37,9.258 -63.07,27.731 -14.88,17.57 -22.3,40.25 -22.3,67.957 0,28.402 7.37,51.094 22.08,68.281 14.71,17.121 35.51,25.723 62.39,25.723 19.99,0 36.91,-5.41 50.63,-16.141 14.54,-11.602 23.43,-27.902 26.58,-48.773 h -40.34 c -3.49,18.211 -14.6,27.261 -33.52,27.261 -31.17,0 -46.79,-18.461 -46.79,-55.418 0,-17.32 4.02,-31.453 12.04,-42.461 8.01,-11.062 19.32,-16.589 33.9,-16.589 21.74,0 33.2,10.429 34.37,31.238 z m -158.79,25.449 c 0,-36.098 11.45,-66.66 34.3,-91.559 22.9,-24.89 50.91,-37.351 84.16,-37.351 33.1,0 61.13,12.461 83.98,37.351 22.92,24.899 34.3,55.461 34.3,91.559 0,36.082 -11.38,66.613 -34.3,91.52 -22.85,24.953 -50.88,37.382 -83.98,37.382 -33.25,0 -61.26,-12.429 -84.16,-37.382 -22.85,-24.907 -34.3,-55.438 -34.3,-91.52 z m -40.98,0 c 0,45.941 15.55,85.152 46.66,117.723 31.15,32.519 68.75,48.789 112.78,48.789 43.92,0 81.46,-16.27 112.64,-48.789 31.13,-32.571 46.73,-71.782 46.73,-117.723 0,-45.969 -15.6,-85.238 -46.73,-117.738 -31.18,-32.551 -68.72,-48.832 -112.64,-48.832 -44.03,0 -81.63,16.281 -112.78,48.832 -31.11,32.5 -46.66,71.769 -46.66,117.738"
         style="fill:#100f0d;fill-opacity:1;fill-rule:nonzero;stroke:none"
         transform="matrix(0.13333333,0,0,-0.13333333,0,686.50667)" />
      <path
         id="path26"
         d="m 2494.44,334.121 23.26,-19.73 170.95,219.531 -23.24,19.699 -170.97,-219.5"
         style="fill:#100f0d;fill-opacity:1;fill-rule:nonzero;stroke:none"
         transform="matrix(0.13333333,0,0,-0.13333333,0,686.50667)" />
      <path
         id="path27"
         d="m 2754.18,5148.82 c 1521.09,0 2754.19,-1233.08 2754.19,-2754.18 0,-386.38 -79.68,-754.13 -223.36,-1087.83 H 223.363 C 79.6758,1640.51 0,2008.26 0,2394.64 0,3915.74 1233.09,5148.82 2754.18,5148.82"
         style="fill:#feedda;fill-opacity:1;fill-rule:evenodd;stroke:none"
         transform="matrix(0.13333333,0,0,-0.13333333,0,686.50667)" />
      <path
         id="path28"
         d="m 2545.57,2795.28 c 138.37,0 250.53,-112.17 250.53,-250.55 0,-138.38 -112.16,-250.54 -250.53,-250.54 -138.39,0 -250.56,112.16 -250.56,250.54 0,138.38 112.17,250.55 250.56,250.55 z m -179.89,1863.03 c 415.1,0 751.62,-336.52 751.62,-751.63 0,-415.12 -336.52,-751.63 -751.62,-751.63 -415.12,0 -751.65,336.51 -751.65,751.63 0,415.11 336.53,751.63 751.65,751.63 z m 1736.96,-146.85 c 239.05,0 432.84,-193.8 432.84,-432.85 0,-239.04 -193.79,-432.83 -432.84,-432.83 -239.06,0 -432.85,193.79 -432.85,432.83 0,239.05 193.79,432.85 432.85,432.85 z m 156.05,-1966.73 c 190.4,0 344.77,-154.35 344.77,-344.76 0,-190.42 -154.37,-344.77 -344.77,-344.77 -190.41,0 -344.76,154.35 -344.76,344.77 0,190.41 154.35,344.76 344.76,344.76 z M 2743.54,2043.45 c 70.33,0 127.34,-56.99 127.34,-127.31 0,-70.32 -57.01,-127.32 -127.34,-127.32 -70.32,0 -127.32,57 -127.32,127.32 0,70.32 57,127.31 127.32,127.31 z m 2334.24,501.28 c 127.14,0 230.2,-103.06 230.2,-230.19 0,-127.15 -103.06,-230.21 -230.2,-230.21 -127.15,0 -230.19,103.06 -230.19,230.21 0,127.13 103.04,230.19 230.19,230.19 z M 3247.94,4808.21 c 41.41,0 74.95,-33.56 74.95,-74.95 0,-41.39 -33.54,-74.94 -74.95,-74.94 -41.38,0 -74.94,33.55 -74.94,74.94 0,41.39 33.56,74.95 74.94,74.95 z M 1753.24,3039.4 c 41.39,0 74.95,-33.56 74.95,-74.94 0,-41.41 -33.56,-74.95 -74.95,-74.95 -41.39,0 -74.95,33.54 -74.95,74.95 0,41.38 33.56,74.94 74.95,74.94 z M 596.875,3544.77 c 50.855,0 92.078,-41.22 92.078,-92.08 0,-50.86 -41.223,-92.08 -92.078,-92.08 -50.855,0 -92.078,41.22 -92.078,92.08 0,50.86 41.223,92.08 92.078,92.08 z M 3192.26,2964.46 c 41.38,0 74.95,-33.57 74.95,-74.95 0,-41.4 -33.57,-74.95 -74.95,-74.95 -41.38,0 -74.96,33.55 -74.96,74.95 0,41.38 33.58,74.95 74.96,74.95 z M 839.117,2909.14 c 239.053,0 432.843,-193.78 432.843,-432.84 0,-239.06 -193.79,-432.85 -432.843,-432.85 -239.051,0 -432.832,193.79 -432.832,432.85 0,239.06 193.781,432.84 432.832,432.84 v 0"
         style="fill:#ffffff;fill-opacity:1;fill-rule:evenodd;stroke:none"
         transform="matrix(0.13333333,0,0,-0.13333333,0,686.50667)" />
      <path
         id="path29"
         d="m 3023.84,3622.26 36.08,-74.38 c 12.04,-24.84 34.4,-40.36 61.89,-42.99 l 254.11,-24.33 c 15.09,-1.44 28.86,8.6 32.08,23.41 3.22,14.79 -5.12,29.66 -19.43,34.63 l -224.52,59.56 -47.92,133.14 -92.29,-109.04"
         style="fill:#51471f;fill-opacity:1;fill-rule:evenodd;stroke:none"
         transform="matrix(0.13333333,0,0,-0.13333333,0,686.50667)" />
      <path
         id="path30"
         d="m 3449.3,4040.73 267.35,-80.11 c -25.43,-84.86 22.73,-174.26 107.6,-199.68 84.86,-25.43 174.26,22.75 199.69,107.6 l 267.35,-80.11 -80.11,-267.34 c 84.86,-25.43 133.03,-114.84 107.6,-199.7 -25.43,-84.85 -114.83,-133.03 -199.68,-107.6 l -80.11,-267.36 -267.36,80.12 c 25.43,84.85 -22.74,174.26 -107.6,199.68 -84.86,25.42 -174.26,-22.74 -199.69,-107.61 l -267.35,80.11 252.31,842"
         style="fill:#f9b00b;fill-opacity:1;fill-rule:evenodd;stroke:none"
         transform="matrix(0.13333333,0,0,-0.13333333,0,686.50667)" />
      <path
         id="path31"
         d="m 3117.6,3821.7 73.43,86.78 -463.61,483.1 -114.49,-142.76 -121.88,-136.51 553.1,-377.39 73.45,86.78"
         style="fill:#f9b00b;fill-opacity:1;fill-rule:evenodd;stroke:none"
         transform="matrix(0.13333333,0,0,-0.13333333,0,686.50667)" />
      <path
         id="path32"
         d="m 2548.87,4177.06 -57.82,-64.75 45.1,-30.78 z m 385.83,-1.48 -88.25,91.96 -92.27,7.45 -168.49,-227.25 217.99,-148.74 c -2.3,40.19 2.98,80.85 16.05,119.8 21.26,63.43 61.7,118.04 114.97,156.78 v 0"
         style="fill:#f48313;fill-opacity:1;fill-rule:evenodd;stroke:none"
         transform="matrix(0.13333333,0,0,-0.13333333,0,686.50667)" />
      <path
         id="path33"
         d="m 3298.8,3947.14 -274.96,-324.88 -78.04,66.06 274.95,324.87 78.05,-66.05"
         style="fill:#fbc907;fill-opacity:1;fill-rule:evenodd;stroke:none"
         transform="matrix(0.13333333,0,0,-0.13333333,0,686.50667)" />
      <path
         id="path34"
         d="m 3298.8,3947.14 79.31,-23.28 c 26.5,-7.78 45.5,-27.26 52.64,-53.93 l 66,-246.59 c 3.91,-14.64 -3.7,-29.9 -17.78,-35.52 -14.05,-5.61 -30.11,0.16 -37.36,13.45 l -95.86,211.58 -139.22,25.25 92.27,109.04"
         style="fill:#51471f;fill-opacity:1;fill-rule:evenodd;stroke:none"
         transform="matrix(0.13333333,0,0,-0.13333333,0,686.50667)" />
      <path
         id="path35"
         d="m 2571.65,4381.47 -1387.36,-292.68 161.43,-518.78 1308.48,546.16 -82.55,265.3"
         style="fill:#f9b00b;fill-opacity:1;fill-rule:evenodd;stroke:none"
         transform="matrix(0.13333333,0,0,-0.13333333,0,686.50667)" />
      <path
         id="path36"
         d="m 2628.45,4105.4 25.75,10.77 -5.24,16.89 z m -1283.71,-532.27 0.98,-3.12 8.21,3.41 -9.19,-0.29 z m 1172.3,796.83 -244.28,-51.53 v -0.02 c 29.69,-140.82 -3.52,-285.29 -86.9,-397.73 l 348.23,145.35 24.33,182.77 c -5.27,-10.17 -24.01,64.53 -41.38,121.16 v 0"
         style="fill:#f48313;fill-opacity:1;fill-rule:evenodd;stroke:none"
         transform="matrix(0.13333333,0,0,-0.13333333,0,686.50667)" />
      <path
         id="path37"
         d="M 744.629,2043.45 H 1785.36 v 261.24 H 744.629 v -261.24"
         style="fill:#51471f;fill-opacity:1;fill-rule:evenodd;stroke:none"
         transform="matrix(0.13333333,0,0,-0.13333333,0,686.50667)" />
      <path
         id="path38"
         d="M 458.746,1306.81 H 2071.25 v 406.88 H 458.746 v -406.88"
         style="fill:#f9b00b;fill-opacity:1;fill-rule:evenodd;stroke:none"
         transform="matrix(0.13333333,0,0,-0.13333333,0,686.50667)" />
      <path
         id="path39"
         d="m 1466.53,2373.23 h 283.26 v -659.54 h -283.26 z m -686.319,0 H 1063.47 V 1713.69 H 780.211 v 659.54 0"
         style="fill:#fbc907;fill-opacity:1;fill-rule:evenodd;stroke:none"
         transform="matrix(0.13333333,0,0,-0.13333333,0,686.50667)" />
      <path
         id="path40"
         d="m 1061.71,1970.65 h 406.57 V 3829.39 H 1061.71 V 1970.65"
         style="fill:#f9b00b;fill-opacity:1;fill-rule:evenodd;stroke:none"
         transform="matrix(0.13333333,0,0,-0.13333333,0,686.50667)" />
      <path
         id="path41"
         d="m 1468.28,3577.21 v -302.44 c -47.1,50.01 -110.25,83.28 -179.74,93.13 -80.94,11.46 -162.45,-10.01 -226.83,-58.5 v 254.39 l 406.57,13.42"
         style="fill:#f48313;fill-opacity:1;fill-rule:evenodd;stroke:none"
         transform="matrix(0.13333333,0,0,-0.13333333,0,686.50667)" />
      <path
         id="path42"
         d="m 1265,3451.44 c 208.18,0 377.96,169.78 377.96,377.95 0,208.18 -169.78,377.97 -377.96,377.97 -208.17,0 -377.949,-169.79 -377.949,-377.97 0,-208.17 169.779,-377.95 377.949,-377.95"
         style="fill:#fbc907;fill-opacity:1;fill-rule:evenodd;stroke:none"
         transform="matrix(0.13333333,0,0,-0.13333333,0,686.50667)" />
      <path
         id="path43"
         d="m 1265,3626.12 c 111.97,0 203.28,91.32 203.28,203.27 0,111.98 -91.31,203.29 -203.28,203.29 -111.95,0 -203.28,-91.31 -203.28,-203.29 0,-111.95 91.33,-203.27 203.28,-203.27"
         style="fill:#51471f;fill-opacity:1;fill-rule:evenodd;stroke:none"
         transform="matrix(0.13333333,0,0,-0.13333333,0,686.50667)" />
      <path
         id="path44"
         d="m 3286.19,2185.8 h 279.09 c 0,88.58 71.82,160.4 160.4,160.4 88.59,0 160.4,-71.82 160.4,-160.4 h 279.1 V 1855 c 88.58,0 160.4,-71.83 160.4,-160.41 0,-88.59 -71.82,-160.38 -160.4,-160.38 v -227.4 h -878.99 v 878.99"
         style="fill:#ce193b;fill-opacity:1;fill-rule:evenodd;stroke:none"
         transform="matrix(0.13333333,0,0,-0.13333333,0,686.50667)" />
      <path
         id="path45"
         d="m 4165.18,2185.8 h 279.09 c 0,-88.59 71.81,-160.38 160.4,-160.38 88.58,0 160.4,71.79 160.4,160.38 h 279.09 v -878.99 h -878.98 v 227.4 c 88.58,0 160.4,71.79 160.4,160.38 0,88.58 -71.82,160.41 -160.4,160.41 v 330.8"
         style="fill:#f9b00b;fill-opacity:1;fill-rule:evenodd;stroke:none"
         transform="matrix(0.13333333,0,0,-0.13333333,0,686.50667)" />
      <path
         id="path46"
         d="m 4165.18,3064.78 h 279.09 c 0,88.59 71.81,160.41 160.4,160.41 88.58,0 160.4,-71.82 160.4,-160.41 h 279.09 V 2185.8 h -279.09 c 0,-88.59 -71.82,-160.38 -160.4,-160.38 -88.59,0 -160.4,71.79 -160.4,160.38 h -279.09 v 279.11 c 88.58,0 160.4,71.8 160.4,160.38 0,88.58 -71.82,160.4 -160.4,160.4 v 279.09"
         style="fill:#47a2dd;fill-opacity:1;fill-rule:evenodd;stroke:none"
         transform="matrix(0.13333333,0,0,-0.13333333,0,686.50667)" />
      <path
         id="path47"
         d="m 313.867,1734.49 -225.6092,-33.77 8.2617,-31.05 228.1645,35.82 c 35.742,5.27 70.914,13.45 105.171,24.45 60.465,19.43 118.204,47.68 171.235,84.12 124.09,85.27 223.183,198.31 291.215,327.62 68.082,129.38 105.152,275.07 105.152,425.53 v 235.57 l -0.059,0.76 c -2.183,41.78 8.602,82.09 29.492,116.22 9.57,15.65 21.28,29.97 34.82,42.57 v 39.2 c -24.53,-18 -45.04,-40.5 -60.67,-66.02 -23.856,-38.98 -36.243,-85.02 -33.931,-132.73 v -235.57 c 0,-145.54 -35.816,-286.4 -101.605,-411.43 -65.84,-125.14 -161.625,-234.46 -281.484,-316.82 -50.481,-34.69 -105.579,-61.62 -163.418,-80.2 -34.75,-11.17 -70.461,-19.3 -106.735,-24.27 z M 3117.59,3891.8 2918.81,4067.73 c -12.03,10.66 -20.17,24.43 -23.87,39.26 -3.71,14.84 -3.02,30.81 2.59,45.87 11.08,29.77 14.14,61.41 9.59,91.97 -4.51,30.49 -16.63,59.84 -35.88,85.13 -19.29,25.31 -44.39,44.78 -72.58,57.23 -28.19,12.47 -59.52,17.88 -91.24,15.1 -42.13,-3.7 -84.37,-5.56 -126.57,-5.56 -41.46,0 -82.95,1.79 -124.35,5.36 l -423.37,-91.58 c -30.94,-6.69 -59.46,-20.21 -83.71,-39.11 -24.28,-18.91 -44.39,-43.28 -58.42,-71.58 -14.04,-28.36 -21.26,-59.09 -21.61,-89.84 -0.34,-30.84 6.17,-61.77 19.56,-90.37 32.94,-70.43 35.55,-147.53 12.82,-216.22 -22.72,-68.74 -70.82,-129.09 -139.27,-165.95 -69.6,-37.5 -132.61,-85.18 -187.13,-141.12 -40.67,-41.72 -76.63,-88.05 -107.09,-138.15 v 55.57 c 25.57,36.95 54.14,71.63 85.39,103.68 56.7,58.18 122.19,107.75 194.49,146.69 61.32,33.03 104.43,87.14 124.81,148.77 20.41,61.68 18.09,130.84 -11.4,193.91 -15.34,32.78 -22.8,68.17 -22.41,103.42 0.41,35.37 8.63,70.6 24.69,102.99 16.08,32.43 39.09,60.34 66.95,82.03 27.91,21.75 60.6,37.28 95.92,44.92 l 427.93,92.56 2.23,-0.18 c 41.22,-3.63 82.58,-5.44 123.97,-5.44 41.39,0 82.76,1.81 123.97,5.44 36.83,3.23 73.25,-3.1 106.05,-17.6 32.79,-14.47 62,-37.15 84.43,-66.6 22.44,-29.45 36.56,-63.64 41.83,-99.1 5.25,-35.42 1.67,-72.19 -11.27,-106.92 -3.39,-9.12 -3.79,-18.87 -1.52,-27.96 2.27,-9.1 7.22,-17.51 14.52,-23.98 l 198.76,-175.91 -20.03,-22.66 v 0"
         style="fill:#51471f;fill-opacity:1;fill-rule:evenodd;stroke:none"
         transform="matrix(0.13333333,0,0,-0.13333333,0,686.50667)" />
      <path
         id="path48"
         d="m 2863.64,4326.82 c 43.08,-138.45 -34.25,-285.63 -172.69,-328.71 -138.47,-43.08 -285.65,34.24 -328.74,172.69 -43.08,138.47 34.24,285.65 172.7,328.73 138.47,43.08 285.64,-34.24 328.73,-172.71"
         style="fill:#fbc907;fill-opacity:1;fill-rule:evenodd;stroke:none"
         transform="matrix(0.13333333,0,0,-0.13333333,0,686.50667)" />
      <path
         id="path49"
         d="m 2747.77,4290.77 c 23.17,-74.47 -18.41,-153.62 -92.88,-176.79 -74.47,-23.17 -153.63,18.41 -176.8,92.89 -23.17,74.46 18.4,153.61 92.88,176.78 74.47,23.18 153.63,-18.4 176.8,-92.88"
         style="fill:#51471f;fill-opacity:1;fill-rule:evenodd;stroke:none"
         transform="matrix(0.13333333,0,0,-0.13333333,0,686.50667)" />
    </g>
  </g>
</svg>
