<?xml version="1.0" encoding="UTF-8" standalone="no"?>
<!-- Created with Inkscape (http://www.inkscape.org/) -->

<svg
   version="1.1"
   id="svg1"
   width="666.20001"
   height="666.20001"
   viewBox="0 0 666.20001 666.20001"
   sodipodi:docname="rural-road-with-signpost.svg"
   inkscape:version="1.4 (e7c3feb100, 2024-10-09)"
   xmlns:inkscape="http://www.inkscape.org/namespaces/inkscape"
   xmlns:sodipodi="http://sodipodi.sourceforge.net/DTD/sodipodi-0.dtd"
   xmlns="http://www.w3.org/2000/svg"
   xmlns:svg="http://www.w3.org/2000/svg">
  <defs
     id="defs1" />
  <sodipodi:namedview
     id="namedview1"
     pagecolor="#505050"
     bordercolor="#ffffff"
     borderopacity="1"
     inkscape:showpageshadow="0"
     inkscape:pageopacity="0"
     inkscape:pagecheckerboard="1"
     inkscape:deskcolor="#d1d1d1"
     inkscape:zoom="1.2233563"
     inkscape:cx="333.10001"
     inkscape:cy="333.10001"
     inkscape:window-width="1920"
     inkscape:window-height="1002"
     inkscape:window-x="0"
     inkscape:window-y="0"
     inkscape:window-maximized="1"
     inkscape:current-layer="g1">
    <inkscape:page
       x="0"
       y="0"
       inkscape:label="1"
       id="page1"
       width="666.20001"
       height="666.20001"
       margin="0"
       bleed="0" />
  </sodipodi:namedview>
  <g
     id="g1"
     inkscape:groupmode="layer"
     inkscape:label="1">
    <g
       id="group-R5">
      <path
         id="path2"
         d="M 0,0 H 4996.52 V 4996.48 H 0 V 0"
         style="fill:#def3fc;fill-opacity:1;fill-rule:evenodd;stroke:none"
         transform="matrix(0.13333333,0,0,-0.13333333,0,666.2)" />
      <path
         id="path3"
         d="m 0,4996.48 h 4996.52 v -618.04 c -106.77,-95.48 -247.7,-153.57 -402.18,-153.57 -317.81,0 -578.25,245.63 -601.83,557.4 -72.29,-69.93 -170.72,-112.97 -279.2,-112.97 -72.77,0 -141.02,19.35 -199.88,53.18 -33.14,-203.7 -209.86,-359.21 -422.93,-359.21 -145.04,0 -273.23,72.07 -350.77,182.34 -101.92,-84.56 -232.83,-135.41 -375.6,-135.41 -283.95,0 -520.93,201.07 -576.37,468.58 -106.73,-149.56 -281.7,-247.08 -479.45,-247.08 -78.06,0 -152.58,15.25 -220.74,42.85 0.5,-10.92 0.77,-21.89 0.77,-32.93 0,-393.8 -319.231,-713.04 -713.027,-713.04 -137.723,0 -266.297,39.1 -375.313,106.71 v 961.19"
         style="fill:#5e7d29;fill-opacity:1;fill-rule:evenodd;stroke:none"
         transform="matrix(0.13333333,0,0,-0.13333333,0,666.2)" />
      <path
         id="path4"
         d="M 4996.52,3426.66 V 1656.1 c -91.41,-29.96 -189,-46.23 -290.44,-46.23 -201.99,0 -388.98,64.33 -541.6,173.61 -144.36,-287.51 -441.86,-484.85 -785.51,-484.85 -69.45,0 -137.02,8.1 -201.83,23.35 -113.34,-198.01 -326.68,-331.421 -571.17,-331.421 -211.56,0 -399.75,99.891 -520.08,255.081 -159.29,-152.28 -375.21,-245.812 -612.98,-245.812 -305.08,0 -574.164,154.022 -733.851,388.492 -138.606,-86.78 -302.426,-136.98 -478,-136.98 -90.789,0 -178.4067,13.47 -261.059,38.4 v 1727.48 c 82.6523,24.94 170.27,38.42 261.059,38.42 65.984,0 130.296,-7.16 192.261,-20.61 96.45,196.63 298.594,332.01 532.371,332.01 220.049,0 412.099,-119.93 514.319,-297.98 117.7,306.36 414.67,523.84 762.49,523.84 16.34,0 32.56,-0.55 48.66,-1.49 30.83,191.16 196.55,337.17 396.41,337.17 148.49,0 278.15,-80.6 347.63,-200.43 83.67,34.01 175.15,52.79 271.02,52.79 354.45,0 649.12,-256.06 709.11,-593.29 169.44,175.83 407.32,285.24 670.75,285.24 101.44,0 199.03,-16.28 290.44,-46.23"
         style="fill:#ffffff;fill-opacity:1;fill-rule:evenodd;stroke:none"
         transform="matrix(0.13333333,0,0,-0.13333333,0,666.2)" />
      <path
         id="path5"
         d="m 3139.3,2059.49 c 85.55,0 154.93,-69.38 154.93,-154.94 0,-85.57 -69.38,-154.95 -154.93,-154.95 -52.18,0 -98.34,25.81 -126.41,65.33 -34.12,-36.74 -82.84,-59.74 -136.95,-59.74 -72.1,0 -134.65,40.85 -165.79,100.65 -24.4,-27.5 -60,-44.85 -99.66,-44.85 -57.3,0 -106.11,36.17 -124.93,86.91 -7.39,-1.2 -14.97,-1.82 -22.69,-1.82 -18.59,0 -36.32,3.58 -52.57,10.12 -22.68,-45.79 -69.88,-77.3 -124.44,-77.3 -67.14,0 -123.13,47.68 -136.02,111.03 -19.82,-9.46 -42.01,-14.76 -65.45,-14.76 -34.06,0 -65.51,11.19 -90.87,30.09 -20.02,-29.99 -54.18,-49.74 -92.95,-49.74 -61.68,0 -111.67,49.99 -111.67,111.67 0,61.69 49.99,111.69 111.67,111.69 13.45,0 26.35,-2.39 38.3,-6.75 19.09,62.24 77.02,107.47 145.52,107.47 77.42,0 141.34,-57.78 150.98,-132.59 15.65,6.11 32.67,9.47 50.49,9.47 17.36,0 33.97,-3.18 49.28,-9.01 22.62,47.84 71.3,80.95 127.73,80.95 64.21,0 118.41,-42.89 135.54,-101.6 3.97,0.37 8,0.56 12.08,0.56 40.43,0 76.64,-18.01 101.07,-46.47 31.62,58.36 93.37,97.97 164.38,97.97 73.04,0 136.28,-41.91 167.02,-103.01 26.43,21.04 59.91,33.62 96.34,33.62 z M 0,1885.99 v 279.81 c 33.3008,29.92 77.3398,48.14 125.629,48.14 84.684,0 156.273,-55.97 179.832,-132.93 24.148,16.1 53.133,25.47 84.324,25.47 53.785,0 101.055,-27.87 128.137,-70 26.418,54.69 82.414,92.4 147.211,92.4 63.746,0 118.961,-36.52 145.902,-89.74 18.176,12.81 40.336,20.35 64.27,20.35 25.847,0 49.633,-8.79 68.558,-23.53 8.184,60.06 59.677,106.35 121.977,106.35 53.92,0 99.73,-34.68 116.4,-82.93 59.74,-2.34 107.46,-51.52 107.46,-111.83 0,-61.82 -50.12,-111.93 -111.93,-111.93 -43.51,0 -81.19,24.81 -99.72,61.05 -4.02,-0.39 -8.09,-0.61 -12.21,-0.61 -30.97,0 -59.27,11.45 -80.902,30.33 -9.997,-51.44 -55.27,-90.27 -109.633,-90.27 -30.672,0 -58.446,12.36 -78.625,32.38 -29.762,-40.31 -77.602,-66.45 -131.547,-66.45 -60.07,0 -112.555,32.41 -140.953,80.69 -25.606,-48.02 -76.184,-80.69 -134.395,-80.69 -60.129,0 -112.105,34.86 -136.836,85.47 -33.5,-30.83 -78.207,-49.66 -127.32,-49.66 -48.2892,0 -92.3282,18.21 -125.629,48.13 v 0"
         style="fill:#a8d81b;fill-opacity:1;fill-rule:evenodd;stroke:none"
         transform="matrix(0.13333333,0,0,-0.13333333,0,666.2)" />
      <path
         id="path6"
         d="M 4996.52,1570.44 V 0 L 0,270.691 V 1903.6 c 707.52,77.4 1494.4,99.36 2323.64,54.44 968.33,-52.46 1879.03,-189.82 2672.88,-387.6"
         style="fill:#c1e013;fill-opacity:1;fill-rule:evenodd;stroke:none"
         transform="matrix(0.13333333,0,0,-0.13333333,0,666.2)" />
      <path
         id="path7"
         d="m 1436.94,1981.06 c 80.02,0.21 160.6,-0.19 241.72,-1.24 269.16,-83.91 573.63,-249.45 872.24,-476.66 l -281.23,-89.54 -154.99,129.07 c -222.61,185.32 -456.33,336.26 -677.74,438.37"
         style="fill:#fde4b2;fill-opacity:1;fill-rule:evenodd;stroke:none"
         transform="matrix(0.13333333,0,0,-0.13333333,0,666.2)" />
      <path
         id="path8"
         d="m 0,1690.17 v 445.33 c 112.672,-11.66 200.535,-106.9 200.535,-222.66 l -0.015,-2.19 c 1.921,0.08 3.867,0.14 5.812,0.14 38.434,0 73.219,-15.6 98.375,-40.83 5.664,118.61 103.598,213.01 223.594,213.01 123.633,0 223.863,-100.22 223.863,-223.85 l -0.016,-1.4 c 60.297,-9.09 106.528,-61.12 106.528,-123.96 0,-69.23 -56.125,-125.36 -125.36,-125.36 -41.878,0 -78.945,20.53 -101.714,52.07 -30.903,-16.09 -66.032,-25.21 -103.301,-25.21 -78.473,0 -147.496,40.37 -187.465,101.49 -15.531,-59.78 -69.867,-103.91 -134.504,-103.91 -56.176,0 -104.555,33.35 -126.4648,81.3 C 55.5195,1701.49 28.5586,1693.15 0,1690.17 Z m 4996.52,717.92 v -612.14 c -15.1,-2.25 -30.55,-3.43 -46.29,-3.43 -100.24,0 -189.34,47.67 -245.89,121.56 -32.91,-26.08 -74.51,-41.64 -119.77,-41.64 -18.16,0 -35.74,2.51 -52.41,7.19 -47.95,-73.82 -131.11,-122.64 -225.7,-122.64 -83.07,0 -157.34,37.65 -206.66,96.82 -39.58,-66.62 -112.24,-111.29 -195.35,-111.29 -63.95,0 -121.72,26.47 -162.99,69 -49.21,-55.41 -120.99,-90.33 -200.93,-90.33 -76.14,0 -144.87,31.67 -193.76,82.55 -28.32,-33.13 -70.42,-54.14 -117.42,-54.14 -85.31,0 -154.46,69.17 -154.46,154.47 0,85.3 69.15,154.45 154.46,154.45 17.25,0 33.85,-2.83 49.36,-8.05 27.47,119.2 134.27,208.08 261.82,208.08 90.68,0 170.87,-44.93 219.53,-113.75 39.23,32.38 89.54,51.83 144.39,51.83 60.37,0 115.26,-23.59 155.92,-62.03 41.77,94.41 136.23,160.28 246.09,160.28 67.37,0 128.93,-24.75 176.12,-65.67 29.59,18.45 64.56,29.15 101.99,29.15 31.42,0 61.09,-7.52 87.32,-20.84 50.26,103.02 156.01,174.02 278.34,174.02 15.74,0 31.19,-1.18 46.29,-3.45 v 0"
         style="fill:#7faa29;fill-opacity:1;fill-rule:evenodd;stroke:none"
         transform="matrix(0.13333333,0,0,-0.13333333,0,666.2)" />
      <path
         id="path9"
         d="M 4996.52,1966.95 V 0 L 304.441,254.191 c 0,992.109 2032.189,1704.609 4692.079,1712.759"
         style="fill:#a8d81b;fill-opacity:1;fill-rule:evenodd;stroke:none"
         transform="matrix(0.13333333,0,0,-0.13333333,0,666.2)" />
      <path
         id="path10"
         d="m 2491.49,1716.95 c 60.24,13.23 121.43,25.99 183.55,38.22 244.47,-61.89 457.67,-213.2 596.81,-425 l -442.23,45.73 -40.92,59.8 c -78.05,114.05 -179.45,209.86 -297.21,281.25"
         style="fill:#fcd589;fill-opacity:1;fill-rule:evenodd;stroke:none"
         transform="matrix(0.13333333,0,0,-0.13333333,0,666.2)" />
      <path
         id="path11"
         d="M 4996.52,699.781 V 0 L 0,270.691 V 1756.99 c 175.391,-3.6 353.043,-10.06 532.777,-19.8 C 2357.57,1638.33 3977.76,1238.09 4996.52,699.781"
         style="fill:#93c323;fill-opacity:1;fill-rule:evenodd;stroke:none"
         transform="matrix(0.13333333,0,0,-0.13333333,0,666.2)" />
      <path
         id="path12"
         d="m 1083.72,1697.69 c 164.08,-14.61 326.05,-31.66 485.67,-51 C 1283.38,1344.39 1150.57,923.93 1216.81,507.031 L 384.059,678.441 500.461,983.48 c 113.211,296.6 318.812,546.29 583.259,714.21"
         style="fill:#fbc65f;fill-opacity:1;fill-rule:evenodd;stroke:none"
         transform="matrix(0.13333333,0,0,-0.13333333,0,666.2)" />
      <path
         id="path13"
         d="M 4996.52,1632.58 V 0 H 0 v 616.219 c 957.402,606.391 2777.93,1016.301 4866.66,1016.901 43.41,0.01 86.66,-0.22 129.86,-0.54"
         style="fill:#7faa29;fill-opacity:1;fill-rule:evenodd;stroke:none"
         transform="matrix(0.13333333,0,0,-0.13333333,0,666.2)" />
      <path
         id="path14"
         d="M 3874.38,0 H 1267.79 C 1119.25,341.109 935.816,667.34 719.684,973.309 1099.38,1123.65 1542.16,1253.33 2033.27,1356.91 2720.71,1016.56 3344.18,557.59 3874.38,0"
         style="fill:#fab539;fill-opacity:1;fill-rule:evenodd;stroke:none"
         transform="matrix(0.13333333,0,0,-0.13333333,0,666.2)" />
      <path
         id="path15"
         d="m 3962.43,1124.61 c 376.39,-65.29 729.38,-165.18 1034.09,-373.821 v 574.451 c -228.32,54.81 -456.64,66.05 -684.96,49.23 l -349.13,-249.86"
         style="fill:#5e7d29;fill-opacity:1;fill-rule:evenodd;stroke:none"
         transform="matrix(0.13333333,0,0,-0.13333333,0,666.2)" />
      <path
         id="path16"
         d="m 4483.34,1262.53 -368.5,2480.36 c -17.19,115.78 -351.58,116.37 -349.21,0 l 50.59,-2480.36 c 4.55,-222.27 699.96,-221.14 667.12,0"
         style="fill:#882e1b;fill-opacity:1;fill-rule:evenodd;stroke:none"
         transform="matrix(0.13333333,0,0,-0.13333333,0,666.2)" />
      <path
         id="path17"
         d="m 4297.29,2514.95 -71.86,483.53 -447.69,151.06 12.87,-630.22 c 38.99,109.57 146.87,172.84 268.74,156.5 97.73,-13.09 186.49,-74.96 237.94,-160.87"
         style="fill:#642415;fill-opacity:1;fill-rule:evenodd;stroke:none"
         transform="matrix(0.13333333,0,0,-0.13333333,0,666.2)" />
      <path
         id="path18"
         d="m 4612.52,3759.8 -130.79,70.15 -1322,-683.29 -123.69,-211.11 51.09,-282.87 126.32,-29.85 1558.04,510.39 -158.97,626.58"
         style="fill:#e06329;fill-opacity:1;fill-rule:evenodd;stroke:none"
         transform="matrix(0.13333333,0,0,-0.13333333,0,666.2)" />
      <path
         id="path19"
         d="m 4481.73,3829.95 -1445.69,-680.41 -132.6,-281.95 183.69,-214.91 1553.57,550.69 -158.97,626.58"
         style="fill:#bc4c1f;fill-opacity:1;fill-rule:evenodd;stroke:none"
         transform="matrix(0.13333333,0,0,-0.13333333,0,666.2)" />
      <path
         id="path20"
         d="m 2959.94,2987.76 429.42,158.53 -445.84,-193.46 z m 13.69,-202.3 307.16,101.16 -285.51,-126.49 -21.65,25.33 z m 1616.74,904.8 -81.8,33.85 -692.76,-333.81 702.68,294.86 71.88,5.1 v 0"
         style="fill:#882e1b;fill-opacity:1;fill-rule:evenodd;stroke:none"
         transform="matrix(0.13333333,0,0,-0.13333333,0,666.2)" />
      <path
         id="path21"
         d="m 4683.26,3292.93 -68.93,14.39 -339.6,-117.38 350.15,75.8 58.38,27.19"
         style="fill:#882e1b;fill-opacity:1;fill-rule:evenodd;stroke:none"
         transform="matrix(0.13333333,0,0,-0.13333333,0,666.2)" />
      <path
         id="path22"
         d="m 430.961,3655.84 c -73.035,43.91 -128.77,116.34 -149.184,206 -20.422,89.65 -1.547,179.08 45.274,250.29 97.711,16.85 201.887,-4.57 288.047,-68 86.156,-63.44 137.531,-156.56 150.445,-254.88 -95.332,-16.45 -196.797,3.54 -281.699,63.43 4.168,-71.14 -15.399,-139.83 -52.883,-196.84"
         style="fill:#5e7d29;fill-opacity:1;fill-rule:evenodd;stroke:none"
         transform="matrix(0.13333333,0,0,-0.13333333,0,666.2)" />
      <path
         id="path23"
         d="m 1198.01,4129.25 c -64.86,5.93 -127.27,37.22 -171.13,92.11 -43.837,54.89 -60.595,122.68 -52.056,187.23 61.606,44.09 140.386,64 220.766,49 80.35,-15 146.66,-61.97 188.24,-125.32 -60.12,-43.01 -136.57,-62.99 -214.88,-50.02 26.51,-47.56 35.88,-101.32 29.06,-153"
         style="fill:#5e7d29;fill-opacity:1;fill-rule:evenodd;stroke:none"
         transform="matrix(0.13333333,0,0,-0.13333333,0,666.2)" />
      <path
         id="path24"
         d="m 1852.59,4342.12 c -12.68,63.86 -0.35,132.59 39.88,190.2 40.22,57.59 100.5,92.86 164.83,102.95 59.74,-46.61 101.13,-116.54 109.51,-197.86 8.37,-81.32 -17.93,-158.21 -66.9,-216.02 -58.26,45.48 -99.08,113.14 -108.82,191.92 -38.1,-38.9 -87.01,-63.12 -138.5,-71.19"
         style="fill:#5e7d29;fill-opacity:1;fill-rule:evenodd;stroke:none"
         transform="matrix(0.13333333,0,0,-0.13333333,0,666.2)" />
      <path
         id="path25"
         d="m 2946.14,4301.63 c -6.95,35.05 -0.17,72.78 21.9,104.4 22.08,31.61 55.17,50.96 90.47,56.5 32.79,-25.58 55.51,-63.96 60.1,-108.59 4.59,-44.64 -9.84,-86.85 -36.71,-118.58 -31.99,24.97 -54.39,62.1 -59.72,105.34 -20.92,-21.34 -47.77,-34.64 -76.04,-39.07"
         style="fill:#5e7d29;fill-opacity:1;fill-rule:evenodd;stroke:none"
         transform="matrix(0.13333333,0,0,-0.13333333,0,666.2)" />
      <path
         id="path26"
         d="m 3640.83,4520.92 c -30.67,41.52 -45.03,94.98 -35.64,149.87 9.38,54.89 40.71,100.55 83.43,129.52 58.58,-13.26 111.89,-49.43 145.35,-104.92 33.46,-55.49 40.61,-119.51 24.99,-177.5 -57.13,12.93 -109.25,47.66 -142.86,100.88 -14.18,-40.77 -41.08,-74.65 -75.27,-97.85"
         style="fill:#5e7d29;fill-opacity:1;fill-rule:evenodd;stroke:none"
         transform="matrix(0.13333333,0,0,-0.13333333,0,666.2)" />
      <path
         id="path27"
         d="m 4101.41,4267.43 c -6.97,35.05 -0.21,72.77 21.89,104.39 22.06,31.61 55.15,50.97 90.47,56.51 32.76,-25.58 55.5,-63.96 60.08,-108.6 4.61,-44.64 -9.83,-86.84 -36.7,-118.57 -31.97,24.95 -54.39,62.1 -59.73,105.34 -20.93,-21.35 -47.77,-34.64 -76.01,-39.07"
         style="fill:#5e7d29;fill-opacity:1;fill-rule:evenodd;stroke:none"
         transform="matrix(0.13333333,0,0,-0.13333333,0,666.2)" />
      <path
         id="path28"
         d="m 1604.58,113.742 c 0,5.449 -0.78,10.168 -2.4,14.028 -1.57,3.921 -3.78,6.929 -6.62,9.062 -2.84,2.066 -5.95,3.137 -9.4,3.137 -5.45,0 -10.06,-2.309 -13.81,-6.758 -3.75,-4.512 -5.62,-11.102 -5.62,-19.832 0,-8.231 1.87,-14.6173 5.56,-19.1407 3.75,-4.5781 8.38,-6.8789 13.87,-6.8789 3.28,0 6.35,0.9922 9.16,3.0195 2.77,1.9922 5.02,4.9727 6.72,8.9102 1.71,4.0309 2.54,8.8129 2.54,14.4529 z m -38.77,30.078 v -2.492 c 3.71,4.774 7.56,8.332 11.56,10.543 4.03,2.258 8.6,3.399 13.67,3.399 6.08,0 11.68,-1.649 16.81,-4.93 5.11,-3.281 9.15,-8.051 12.14,-14.379 2.97,-6.32 4.43,-13.762 4.43,-22.379 0,-6.344 -0.83,-12.254 -2.54,-17.4922 -1.71,-5.3281 -4.08,-9.8203 -7.07,-13.4179 -2.99,-3.6016 -6.56,-6.4024 -10.61,-8.3125 -4.1,-1.9688 -8.51,-2.9297 -13.16,-2.9297 -5.68,0 -10.42,1.1797 -14.26,3.5625 -3.88,2.3594 -7.51,5.8164 -10.97,10.418 V 54.4297 c 0,-9.0899 -3.17,-13.6094 -9.5,-13.6094 -3.72,0 -6.2,1.1485 -7.37,3.4805 -1.23,2.3594 -1.82,5.7695 -1.82,10.2578 v 89.1324 c 0,3.918 0.79,6.868 2.45,8.809 1.67,1.922 3.91,2.922 6.74,2.922 2.8,0 5.09,-1 6.84,-3.012 1.76,-2.012 2.66,-4.879 2.66,-8.59"
         style="fill:#b23521;fill-opacity:1;fill-rule:nonzero;stroke:none"
         transform="matrix(0.13333333,0,0,-0.13333333,0,666.2)" />
      <path
         id="path29"
         d="m 1691.73,83.1094 v 2.6094 c -2.38,-3.1172 -4.86,-5.7188 -7.48,-7.8282 -2.61,-2.1601 -5.46,-3.7187 -8.54,-4.7422 -3.12,-1.0273 -6.64,-1.5468 -10.6,-1.5468 -4.76,0 -9.05,1.039 -12.85,3.0781 -3.8,2.0703 -6.74,4.9219 -8.79,8.5508 -2.5,4.3906 -3.7,10.6992 -3.7,18.8785 v 40.93 c 0,4.102 0.88,7.223 2.68,9.25 1.79,2.043 4.14,3.07 7.08,3.07 3.01,0 5.41,-1.027 7.26,-3.121 1.83,-2.066 2.74,-5.148 2.74,-9.199 v -33.07 c 0,-4.758 0.38,-8.778 1.13,-12.0198 0.81,-3.2578 2.2,-5.8086 4.22,-7.6679 1.97,-1.8204 4.7,-2.7422 8.13,-2.7422 3.37,0 6.49,1.0507 9.42,3.1093 2.97,2.043 5.13,4.7422 6.47,8.0704 1.11,2.9292 1.66,9.3202 1.66,19.2112 v 25.109 c 0,4.051 0.91,7.133 2.77,9.199 1.82,2.094 4.18,3.121 7.15,3.121 2.95,0 5.31,-1.027 7.1,-3.07 1.77,-2.027 2.64,-5.148 2.64,-9.25 V 83.2305 c 0,-3.9297 -0.82,-6.8907 -2.53,-8.8321 -1.7,-1.9882 -3.91,-2.9492 -6.63,-2.9492 -2.69,0 -4.92,1.0508 -6.69,3.0391 -1.76,2.0703 -2.64,4.9023 -2.64,8.6211"
         style="fill:#b23521;fill-opacity:1;fill-rule:nonzero;stroke:none"
         transform="matrix(0.13333333,0,0,-0.13333333,0,666.2)" />
      <path
         id="path30"
         d="m 1749.11,112.922 c 0,-8.223 1.79,-14.5118 5.37,-18.9298 3.62,-4.3906 8.34,-6.6328 14.2,-6.6328 4.98,0 9.24,2.2695 12.86,6.7812 3.63,4.5196 5.42,10.9374 5.42,19.3794 0,5.5 -0.75,10.171 -2.25,14.082 -1.52,3.957 -3.66,7 -6.38,9.117 -2.79,2.14 -5.97,3.25 -9.65,3.25 -3.81,0 -7.11,-1.11 -10.08,-3.25 -2.97,-2.117 -5.26,-5.239 -6.97,-9.309 -1.69,-4.031 -2.52,-8.84 -2.52,-14.488 z m -0.94,61.367 V 142.73 c 3.68,4.071 7.49,7.129 11.35,9.321 3.87,2.14 8.67,3.219 14.36,3.219 6.58,0 12.33,-1.649 17.28,-4.872 4.94,-3.308 8.81,-7.988 11.53,-14.156 2.75,-6.183 4.1,-13.5 4.1,-21.972 0,-6.27 -0.75,-11.989 -2.26,-17.2387 -1.53,-5.1993 -3.72,-9.6993 -6.63,-13.5821 -2.93,-3.8086 -6.44,-6.7383 -10.56,-8.8984 -4.15,-2.0508 -8.7,-3.1211 -13.67,-3.1211 -3.02,0 -5.91,0.3906 -8.6,1.1289 -2.68,0.7734 -4.98,1.75 -6.82,3.0234 -1.91,1.168 -3.51,2.4883 -4.85,3.7696 -1.32,1.3281 -3.06,3.2773 -5.23,5.8984 v -2.0195 c 0,-3.8985 -0.91,-6.8321 -2.7,-8.8321 -1.77,-1.9882 -4.07,-2.9687 -6.8,-2.9687 -2.82,0 -5.04,0.9805 -6.73,2.9687 -1.65,2.043 -2.48,4.9532 -2.48,8.8321 v 90.1605 c 0,4.148 0.8,7.328 2.44,9.461 1.62,2.16 3.85,3.218 6.77,3.218 3.03,0 5.38,-1.019 7,-3.082 1.66,-2.019 2.5,-4.906 2.5,-8.699"
         style="fill:#b23521;fill-opacity:1;fill-rule:nonzero;stroke:none"
         transform="matrix(0.13333333,0,0,-0.13333333,0,666.2)" />
      <path
         id="path31"
         d="m 1820.75,84 v 89.52 c 0,4.152 0.88,7.261 2.62,9.39 1.8,2.102 4.16,3.16 7.16,3.16 3,0 5.4,-1.031 7.24,-3.129 1.81,-2.089 2.77,-5.25 2.77,-9.421 V 84 c 0,-4.1914 -0.96,-7.3398 -2.82,-9.4492 -1.84,-2.0508 -4.25,-3.1211 -7.19,-3.1211 -2.9,0 -5.23,1.0898 -7.05,3.25 -1.82,2.1797 -2.73,5.2695 -2.73,9.3203"
         style="fill:#b23521;fill-opacity:1;fill-rule:nonzero;stroke:none"
         transform="matrix(0.13333333,0,0,-0.13333333,0,666.2)" />
      <path
         id="path32"
         d="M 1880.73,143.629 V 84 c 0,-4.1602 -0.96,-7.2891 -2.8,-9.3984 -1.9,-2.0821 -4.31,-3.1719 -7.18,-3.1719 -2.91,0 -5.27,1.0898 -7.07,3.2422 -1.8,2.1875 -2.73,5.2773 -2.73,9.3281 v 59.039 c 0,4.051 0.93,7.133 2.73,9.199 1.8,2.094 4.16,3.121 7.07,3.121 2.87,0 5.28,-1.027 7.18,-3.121 1.84,-2.066 2.8,-4.929 2.8,-8.609 z m -9.78,21.351 c -2.76,0 -5.09,0.872 -7.09,2.68 -1.91,1.762 -2.91,4.281 -2.91,7.512 0,2.91 1,5.289 3.01,7.219 2.01,1.89 4.33,2.781 6.99,2.781 2.56,0 4.84,-0.832 6.81,-2.531 1.98,-1.719 2.97,-4.243 2.97,-7.469 0,-3.203 -0.97,-5.684 -2.91,-7.453 -1.93,-1.789 -4.2,-2.739 -6.87,-2.739"
         style="fill:#b23521;fill-opacity:1;fill-rule:nonzero;stroke:none"
         transform="matrix(0.13333333,0,0,-0.13333333,0,666.2)" />
      <path
         id="path33"
         d="m 1972.02,97 c 0,-2.5586 -0.72,-5.3203 -2.19,-8.2383 -1.49,-2.9219 -3.74,-5.7031 -6.76,-8.3515 -3,-2.6407 -6.81,-4.7696 -11.4,-6.3711 -4.59,-1.6485 -9.77,-2.4375 -15.5,-2.4375 -12.23,0 -21.77,3.7304 -28.63,11.1484 -6.85,7.4414 -10.28,17.379 -10.28,29.891 0,8.468 1.56,15.98 4.68,22.461 3.14,6.468 7.72,11.539 13.64,15.07 5.92,3.578 13.05,5.348 21.29,5.348 5.13,0 9.84,-0.801 14.12,-2.34 4.26,-1.571 7.89,-3.598 10.86,-6.051 2.96,-2.481 5.23,-5.109 6.81,-7.899 1.58,-2.789 2.35,-5.41 2.35,-7.832 0,-2.437 -0.9,-4.527 -2.64,-6.257 -1.78,-1.731 -3.89,-2.582 -6.41,-2.582 -1.66,0 -3,0.48 -4.12,1.363 -1.05,0.848 -2.28,2.238 -3.65,4.25 -2.4,3.816 -4.94,6.707 -7.57,8.66 -2.64,1.898 -5.99,2.879 -10.01,2.879 -5.88,0 -10.58,-2.422 -14.15,-7.18 -3.58,-4.789 -5.35,-11.289 -5.35,-19.57 0,-3.852 0.46,-7.473 1.39,-10.699 0.9,-3.262 2.23,-6.0198 3.96,-8.3323 1.75,-2.2891 3.83,-4.0195 6.3,-5.1992 2.46,-1.211 5.18,-1.7891 8.11,-1.7891 3.98,0 7.36,0.9375 10.19,2.8594 2.83,1.9297 5.33,4.8594 7.5,8.75 1.21,2.3712 2.51,4.1682 3.92,5.5002 1.41,1.32 3.13,1.937 5.15,1.937 2.41,0 4.42,-0.937 6.03,-2.847 1.56,-1.95 2.36,-3.9691 2.36,-6.141"
         style="fill:#b23521;fill-opacity:1;fill-rule:nonzero;stroke:none"
         transform="matrix(0.13333333,0,0,-0.13333333,0,666.2)" />
      <path
         id="path34"
         d="m 2004.61,113.52 c 0,-5.59 0.83,-10.329 2.49,-14.2895 1.68,-3.9414 3.93,-6.8594 6.83,-8.8516 2.92,-2.0273 6.08,-3.0195 9.48,-3.0195 3.48,0 6.66,0.9726 9.53,2.832 2.89,1.9102 5.16,4.8203 6.89,8.7188 1.72,3.8908 2.57,8.7808 2.57,14.6098 0,5.531 -0.85,10.23 -2.57,14.199 -1.73,3.972 -4.04,6.98 -6.95,9.113 -2.93,2.066 -6.11,3.137 -9.59,3.137 -3.61,0 -6.84,-1.11 -9.71,-3.25 -2.83,-2.117 -5.06,-5.227 -6.63,-9.227 -1.55,-4.031 -2.34,-8.64 -2.34,-13.972 z m 38.88,-30.2895 V 85.25 c -2.66,-3.168 -5.28,-5.75 -7.89,-7.7187 -2.54,-2.0118 -5.37,-3.5196 -8.38,-4.5625 -3.01,-1 -6.31,-1.5391 -9.88,-1.5391 -4.72,0 -9.14,1.0703 -13.15,3.1211 -4.02,2.1601 -7.51,5.1094 -10.46,8.9883 -2.94,3.8828 -5.18,8.4414 -6.71,13.6992 -1.54,5.2307 -2.28,10.9027 -2.28,17.0317 0,12.871 3.02,22.98 9.06,30.191 6.05,7.211 13.98,10.809 23.83,10.809 5.69,0 10.5,-1.051 14.41,-3.129 3.91,-2 7.74,-5.141 11.45,-9.411 v 30.489 c 0,4.242 0.8,7.441 2.43,9.601 1.61,2.18 3.89,3.25 6.9,3.25 2.99,0 5.3,-1 6.94,-2.968 1.6,-1.981 2.44,-4.93 2.44,-8.813 V 83.2305 c 0,-3.9297 -0.88,-6.8907 -2.63,-8.8321 -1.75,-1.9882 -3.97,-2.9687 -6.75,-2.9687 -2.67,0 -4.94,1.0195 -6.71,3.0586 -1.74,2.0312 -2.62,4.9219 -2.62,8.7422"
         style="fill:#b23521;fill-opacity:1;fill-rule:nonzero;stroke:none"
         transform="matrix(0.13333333,0,0,-0.13333333,0,666.2)" />
      <path
         id="path35"
         d="m 2136.24,113.352 c 0,8.386 -1.81,14.968 -5.33,19.648 -3.56,4.66 -8.34,7.031 -14.32,7.031 -3.88,0 -7.27,-1.051 -10.22,-3.14 -2.94,-2.121 -5.21,-5.2 -6.81,-9.289 -1.58,-4.043 -2.39,-8.782 -2.39,-14.25 0,-5.403 0.81,-10.09 2.35,-14.1215 1.56,-4.0313 3.82,-7.1211 6.76,-9.2617 2.91,-2.1368 6.38,-3.1993 10.31,-3.1993 5.98,0 10.76,2.3516 14.32,7.0508 3.52,4.6992 5.33,11.2307 5.33,19.5317 z m 19.84,0 c 0,-6.114 -0.92,-11.793 -2.75,-17.0239 -1.84,-5.1367 -4.49,-9.6172 -7.95,-13.3593 -3.5,-3.7383 -7.66,-6.5274 -12.48,-8.5704 -4.82,-1.9882 -10.3,-2.9687 -16.31,-2.9687 -5.97,0 -11.38,0.9805 -16.14,3.0312 -4.79,2 -8.95,4.8907 -12.45,8.6485 -3.49,3.7695 -6.13,8.1601 -7.97,13.2812 -1.81,5.1604 -2.71,10.7694 -2.71,17.0004 0,6.25 0.93,11.968 2.75,17.129 1.83,5.23 4.45,9.628 7.89,13.339 3.44,3.672 7.58,6.512 12.49,8.493 4.89,2 10.24,3.007 16.14,3.007 6,0 11.44,-1.007 16.31,-3.039 4.86,-2 9.04,-4.898 12.52,-8.629 3.5,-3.722 6.13,-8.191 7.91,-13.332 1.86,-5.129 2.75,-10.8 2.75,-17.007"
         style="fill:#b23521;fill-opacity:1;fill-rule:nonzero;stroke:none"
         transform="matrix(0.13333333,0,0,-0.13333333,0,666.2)" />
      <path
         id="path36"
         d="m 2239.62,130.41 c -1.49,-3.488 -2.19,-9.648 -2.19,-18.519 V 84.4609 c 0,-4.3203 -0.93,-7.6015 -2.83,-9.7812 -1.88,-2.1602 -4.39,-3.25 -7.48,-3.25 -2.97,0 -5.39,1.0898 -7.24,3.25 -1.86,2.1797 -2.77,5.4609 -2.77,9.7812 v 32.9301 c 0,5.168 -0.2,9.199 -0.54,12.109 -0.34,2.84 -1.25,5.211 -2.75,7.059 -1.47,1.851 -3.85,2.773 -7.07,2.773 -6.47,0 -10.72,-2.32 -12.79,-6.992 -2.08,-4.621 -3.05,-11.281 -3.05,-19.969 V 84.4609 c 0,-4.3125 -0.96,-7.5507 -2.79,-9.6992 -1.88,-2.2422 -4.33,-3.332 -7.34,-3.332 -3.02,0 -5.5,1.0898 -7.39,3.332 -1.93,2.1485 -2.83,5.3867 -2.83,9.6875 V 143.52 c 0,3.902 0.82,6.851 2.52,8.859 1.73,2 3.99,3.043 6.81,3.043 2.7,0 4.96,-0.942 6.76,-2.844 1.81,-1.879 2.72,-4.476 2.72,-7.816 v -1.961 c 3.41,4.289 7.09,7.449 10.99,9.437 3.91,2.012 8.3,3.032 13.05,3.032 4.96,0 9.22,-1.051 12.79,-3.129 3.59,-2.039 6.52,-5.172 8.83,-9.34 3.34,4.199 6.91,7.371 10.74,9.398 3.82,2.051 8.04,3.071 12.66,3.071 5.45,0 10.1,-1.079 13.98,-3.34 3.93,-2.219 6.84,-5.379 8.78,-9.52 1.7,-3.73 2.53,-9.601 2.53,-17.64 V 84.4609 c 0,-4.3203 -0.94,-7.6015 -2.79,-9.7812 -1.93,-2.1602 -4.39,-3.25 -7.48,-3.25 -3.01,0 -5.45,1.0898 -7.35,3.332 -1.93,2.1485 -2.89,5.3867 -2.89,9.6992 v 34.7301 c 0,4.45 -0.17,7.989 -0.52,10.668 -0.38,2.7 -1.35,4.911 -2.96,6.743 -1.59,1.808 -4.02,2.73 -7.22,2.73 -2.61,0 -5.1,-0.82 -7.4,-2.391 -2.39,-1.64 -4.16,-3.812 -5.49,-6.531 v 0"
         style="fill:#b23521;fill-opacity:1;fill-rule:nonzero;stroke:none"
         transform="matrix(0.13333333,0,0,-0.13333333,0,666.2)" />
      <path
         id="path37"
         d="m 2351.63,112.961 c -2.91,-1.129 -7.13,-2.27 -12.66,-3.531 -5.53,-1.231 -9.36,-2.129 -11.49,-2.731 -2.13,-0.59 -4.16,-1.707 -6.06,-3.379 -1.96,-1.738 -2.93,-4.0895 -2.93,-7.1091 0,-3.1601 1.15,-5.789 3.39,-7.9921 2.29,-2.2188 5.27,-3.2891 8.94,-3.2891 3.91,0 7.54,0.9101 10.83,2.6914 3.31,1.7773 5.76,4.1094 7.28,6.918 1.79,3.1328 2.7,8.2619 2.7,15.4809 z m 1.29,-29.9024 c -4.79,-3.8789 -9.41,-6.7891 -13.88,-8.6992 -4.45,-1.9688 -9.49,-2.9297 -15.02,-2.9297 -5.1,0 -9.52,1.0703 -13.39,3.1211 -3.86,2.1094 -6.79,4.9492 -8.88,8.5586 -2.05,3.582 -3.12,7.4219 -3.12,11.6211 0,5.6605 1.76,10.4495 5.18,14.4495 3.4,3.949 8.1,6.64 14.09,8 1.26,0.312 4.39,0.961 9.34,2.011 5.03,1.098 9.24,2.051 12.85,2.918 3.51,0.871 7.39,1.95 11.54,3.2 -0.25,5.472 -1.3,9.461 -3.14,12.062 -1.89,2.52 -5.77,3.77 -11.58,3.77 -5.04,0 -8.8,-0.711 -11.37,-2.18 -2.52,-1.441 -4.71,-3.66 -6.5,-6.621 -1.83,-2.899 -3.08,-4.84 -3.83,-5.758 -0.78,-0.961 -2.39,-1.383 -4.81,-1.383 -2.26,0 -4.16,0.731 -5.76,2.199 -1.64,1.5 -2.44,3.383 -2.44,5.731 0,3.621 1.23,7.18 3.68,10.562 2.47,3.438 6.32,6.258 11.52,8.508 5.22,2.223 11.73,3.321 19.51,3.321 8.68,0 15.52,-1.098 20.53,-3.231 4.96,-2.117 8.44,-5.488 10.51,-10.168 2.07,-4.601 3.09,-10.781 3.09,-18.43 0,-4.839 0,-8.98 -0.03,-12.339 -0.04,-3.403 -0.06,-7.153 -0.11,-11.282 0,-3.8591 0.61,-7.9294 1.85,-12.1208 1.21,-4.1992 1.82,-6.9297 1.82,-8.1094 0,-2.1289 -0.97,-4.0585 -2.86,-5.8007 -1.87,-1.7305 -4.05,-2.6094 -6.46,-2.6094 -2.06,0 -4.02,0.9805 -6.03,2.9687 -1.97,2 -4.07,4.9024 -6.3,8.6602"
         style="fill:#b23521;fill-opacity:1;fill-rule:nonzero;stroke:none"
         transform="matrix(0.13333333,0,0,-0.13333333,0,666.2)" />
      <path
         id="path38"
         d="M 2410.91,143.629 V 84 c 0,-4.1602 -0.95,-7.2891 -2.8,-9.3984 -1.89,-2.0821 -4.26,-3.1719 -7.17,-3.1719 -2.89,0 -5.28,1.0898 -7.06,3.2422 -1.84,2.1875 -2.75,5.2773 -2.75,9.3281 v 59.039 c 0,4.051 0.91,7.133 2.75,9.199 1.78,2.094 4.17,3.121 7.06,3.121 2.91,0 5.28,-1.027 7.17,-3.121 1.85,-2.066 2.8,-4.929 2.8,-8.609 z m -9.78,21.351 c -2.72,0 -5.07,0.872 -7.03,2.68 -1.95,1.762 -2.97,4.281 -2.97,7.512 0,2.91 1.03,5.289 3.04,7.219 1.98,1.89 4.34,2.781 6.96,2.781 2.57,0 4.87,-0.832 6.85,-2.531 1.95,-1.719 2.93,-4.243 2.93,-7.469 0,-3.203 -0.95,-5.684 -2.89,-7.453 -1.94,-1.789 -4.23,-2.739 -6.89,-2.739"
         style="fill:#b23521;fill-opacity:1;fill-rule:nonzero;stroke:none"
         transform="matrix(0.13333333,0,0,-0.13333333,0,666.2)" />
      <path
         id="path39"
         d="m 2449.35,143.93 v -2.461 c 3.45,4.773 7.25,8.281 11.35,10.519 4.14,2.231 8.89,3.371 14.28,3.371 5.19,0 9.87,-1.168 14,-3.578 4.07,-2.351 7.15,-5.679 9.16,-10 1.32,-2.551 2.14,-5.289 2.55,-8.199 0.36,-2.902 0.59,-6.633 0.59,-11.184 V 84 c 0,-4.1602 -0.94,-7.2891 -2.74,-9.3984 -1.81,-2.0821 -4.17,-3.1719 -7.06,-3.1719 -2.94,0 -5.34,1.0898 -7.1,3.25 -1.87,2.1797 -2.81,5.2695 -2.81,9.3203 v 34.371 c 0,6.848 -0.88,12.039 -2.68,15.629 -1.85,3.602 -5.47,5.43 -10.88,5.43 -3.52,0 -6.73,-1.098 -9.62,-3.309 -2.89,-2.172 -5.02,-5.199 -6.37,-9.031 -0.97,-3.078 -1.47,-8.801 -1.47,-17.27 V 84 c 0,-4.1914 -0.91,-7.3398 -2.79,-9.4492 -1.86,-2.0508 -4.26,-3.1211 -7.19,-3.1211 -2.84,0 -5.2,1.0898 -7.03,3.2422 -1.86,2.1875 -2.76,5.2773 -2.76,9.3281 v 59.629 c 0,3.949 0.81,6.851 2.48,8.812 1.6,1.938 3.91,2.918 6.74,2.918 1.71,0 3.3,-0.461 4.68,-1.289 1.44,-0.84 2.53,-2.172 3.38,-3.82 0.82,-1.762 1.29,-3.852 1.29,-6.32"
         style="fill:#b23521;fill-opacity:1;fill-rule:nonzero;stroke:none"
         transform="matrix(0.13333333,0,0,-0.13333333,0,666.2)" />
      <path
         id="path40"
         d="m 2533.02,142.52 15.97,-46.8794 17.25,48.9184 c 1.38,3.929 2.7,6.691 4.01,8.339 1.34,1.633 3.29,2.461 5.93,2.461 2.51,0 4.64,-0.879 6.45,-2.679 1.73,-1.75 2.61,-3.758 2.61,-6.129 0,-0.891 -0.17,-1.942 -0.48,-3.121 -0.29,-1.239 -0.65,-2.371 -1.08,-3.45 -0.42,-1.019 -0.85,-2.25 -1.41,-3.601 l -18.98,-49.1485 c -0.54,-1.3907 -1.24,-3.211 -2.06,-5.3907 -0.86,-2.1484 -1.82,-3.9609 -2.83,-5.5703 -1.06,-1.5078 -2.33,-2.6679 -3.83,-3.539 -1.55,-0.8594 -3.4,-1.3008 -5.58,-1.3008 -2.8,0 -5.02,0.6719 -6.7,1.9805 -1.67,1.3515 -2.91,2.8007 -3.7,4.4218 -0.78,1.5586 -2.14,4.7071 -4.01,9.3985 l -18.86,48.6215 c -0.43,1.187 -0.9,2.41 -1.36,3.617 -0.44,1.211 -0.8,2.41 -1.14,3.703 -0.3,1.289 -0.48,2.359 -0.48,3.226 0,1.454 0.41,2.832 1.25,4.223 0.82,1.399 1.97,2.551 3.4,3.41 1.48,0.867 3.01,1.328 4.73,1.328 3.26,0 5.53,-0.98 6.77,-2.98 1.24,-1.949 2.62,-5.25 4.13,-9.859"
         style="fill:#b23521;fill-opacity:1;fill-rule:nonzero;stroke:none"
         transform="matrix(0.13333333,0,0,-0.13333333,0,666.2)" />
      <path
         id="path41"
         d="m 2613.92,120.09 h 35.85 c -0.46,7.031 -2.27,12.32 -5.46,15.801 -3.18,3.488 -7.35,5.25 -12.52,5.25 -4.9,0 -8.96,-1.782 -12.1,-5.321 -3.17,-3.539 -5.06,-8.789 -5.77,-15.73 z m 38.69,-11.738 h -38.69 c 0.01,-4.711 0.95,-8.8325 2.68,-12.4418 1.8,-3.5391 4.12,-6.25 7.05,-8.0782 2.92,-1.832 6.15,-2.7109 9.69,-2.7109 2.35,0 4.54,0.2891 6.46,0.8477 1.96,0.6132 3.87,1.5117 5.73,2.7304 1.8,1.2422 3.47,2.5313 5.04,3.9922 1.52,1.4102 3.59,3.2891 6.01,5.7188 1.03,0.9609 2.48,1.3789 4.35,1.3789 2.06,0 3.68,-0.5586 4.94,-1.75 1.26,-1.1602 1.85,-2.7774 1.85,-4.8907 0,-1.8789 -0.68,-4.0468 -2.09,-6.5664 -1.39,-2.4609 -3.46,-4.8828 -6.34,-7.1914 -2.83,-2.2812 -6.38,-4.1484 -10.66,-5.6992 -4.25,-1.5117 -9.14,-2.2617 -14.74,-2.2617 -12.69,0 -22.58,3.8125 -29.6,11.332 -7.04,7.6094 -10.56,17.8283 -10.56,30.7583 0,6.171 0.9,11.789 2.6,16.992 1.74,5.238 4.26,9.699 7.6,13.418 3.34,3.75 7.42,6.629 12.31,8.59 4.9,2.011 10.28,3 16.25,3 7.68,0 14.33,-1.7 19.85,-5.122 5.55,-3.398 9.68,-7.769 12.44,-13.148 2.75,-5.43 4.13,-10.898 4.13,-16.531 0,-5.16 -1.39,-8.528 -4.27,-10.047 -2.87,-1.563 -6.86,-2.32 -12.03,-2.32"
         style="fill:#b23521;fill-opacity:1;fill-rule:nonzero;stroke:none"
         transform="matrix(0.13333333,0,0,-0.13333333,0,666.2)" />
      <path
         id="path42"
         d="m 2756.53,97 c 0,-2.5586 -0.73,-5.3203 -2.23,-8.2383 -1.49,-2.9219 -3.68,-5.7031 -6.73,-8.3515 -3.01,-2.6407 -6.85,-4.7696 -11.45,-6.3711 -4.56,-1.6485 -9.75,-2.4375 -15.46,-2.4375 -12.25,0 -21.79,3.7304 -28.64,11.1484 -6.83,7.4414 -10.29,17.379 -10.29,29.891 0,8.468 1.56,15.98 4.73,22.461 3.14,6.468 7.64,11.539 13.6,15.07 5.92,3.578 13.05,5.348 21.32,5.348 5.11,0 9.79,-0.801 14.1,-2.34 4.27,-1.571 7.86,-3.598 10.87,-6.051 2.97,-2.481 5.21,-5.109 6.8,-7.899 1.56,-2.789 2.35,-5.41 2.35,-7.832 0,-2.437 -0.86,-4.527 -2.69,-6.257 -1.74,-1.731 -3.86,-2.582 -6.37,-2.582 -1.65,0 -3.01,0.48 -4.08,1.363 -1.11,0.848 -2.32,2.238 -3.69,4.25 -2.41,3.816 -4.92,6.707 -7.56,8.66 -2.63,1.898 -5.97,2.879 -10.05,2.879 -5.81,0 -10.53,-2.422 -14.1,-7.18 -3.6,-4.789 -5.38,-11.289 -5.38,-19.57 0,-3.852 0.49,-7.473 1.37,-10.699 0.93,-3.262 2.26,-6.0198 4.01,-8.3323 1.73,-2.2891 3.85,-4.0195 6.31,-5.1992 2.42,-1.211 5.14,-1.7891 8.11,-1.7891 3.95,0 7.36,0.9375 10.18,2.8594 2.82,1.9297 5.33,4.8594 7.51,8.75 1.21,2.3712 2.49,4.1682 3.91,5.5002 1.39,1.32 3.08,1.937 5.15,1.937 2.38,0 4.42,-0.937 5.95,-2.847 1.63,-1.95 2.45,-3.9691 2.45,-6.141"
         style="fill:#b23521;fill-opacity:1;fill-rule:nonzero;stroke:none"
         transform="matrix(0.13333333,0,0,-0.13333333,0,666.2)" />
      <path
         id="path43"
         d="m 2774.89,153.621 h 2.18 v 12.41 c 0,3.301 0.09,5.938 0.26,7.809 0.17,1.898 0.61,3.492 1.42,4.879 0.75,1.383 1.87,2.551 3.34,3.441 1.44,0.86 3.05,1.281 4.83,1.281 2.5,0 4.79,-0.961 6.8,-2.921 1.33,-1.329 2.21,-2.911 2.57,-4.782 0.37,-1.898 0.54,-4.609 0.54,-8.078 v -14.039 h 7.26 c 2.8,0 4.95,-0.699 6.42,-2.09 1.5,-1.39 2.21,-3.152 2.21,-5.32 0,-2.781 -1.04,-4.742 -3.17,-5.832 -2.09,-1.09 -5.1,-1.649 -9.01,-1.649 h -3.71 v -38.019 c 0,-3.2305 0.11,-5.7188 0.32,-7.4805 0.25,-1.75 0.87,-3.1719 1.79,-4.2188 0.9,-1.082 2.45,-1.6523 4.59,-1.6523 1.15,0 2.71,0.1992 4.71,0.6523 1.94,0.418 3.49,0.6367 4.62,0.6367 1.58,0 3.07,-0.6992 4.33,-1.957 1.25,-1.3828 1.9,-3 1.9,-4.9922 0,-3.3086 -1.7,-5.8476 -5.2,-7.6172 -3.52,-1.7734 -8.5,-2.6523 -14.99,-2.6523 -6.19,0 -10.89,1.0898 -14.08,3.25 -3.17,2.1797 -5.29,5.1601 -6.25,9.0391 -1.01,3.8203 -1.5,8.9296 -1.5,15.3398 V 138.73 h -2.63 c -2.8,0 -4.98,0.7 -6.49,2.122 -1.5,1.41 -2.24,3.179 -2.24,5.359 0,2.168 0.77,3.93 2.33,5.32 1.59,1.391 3.85,2.09 6.85,2.09"
         style="fill:#b23521;fill-opacity:1;fill-rule:nonzero;stroke:none"
         transform="matrix(0.13333333,0,0,-0.13333333,0,666.2)" />
      <path
         id="path44"
         d="m 2880.5,113.352 c 0,8.386 -1.8,14.968 -5.32,19.648 -3.59,4.66 -8.31,7.031 -14.32,7.031 -3.88,0 -7.28,-1.051 -10.21,-3.14 -2.96,-2.121 -5.23,-5.2 -6.81,-9.289 -1.59,-4.043 -2.4,-8.782 -2.4,-14.25 0,-5.403 0.81,-10.09 2.37,-14.1215 1.56,-4.0313 3.8,-7.1211 6.72,-9.2617 2.91,-2.1368 6.35,-3.1993 10.33,-3.1993 6.01,0 10.73,2.3516 14.32,7.0508 3.52,4.6992 5.32,11.2307 5.32,19.5317 z m 19.85,0 c 0,-6.114 -0.91,-11.793 -2.77,-17.0239 -1.82,-5.1367 -4.49,-9.6172 -7.95,-13.3593 -3.49,-3.7383 -7.65,-6.5274 -12.46,-8.5704 -4.85,-1.9882 -10.25,-2.9687 -16.31,-2.9687 -6.02,0 -11.41,0.9805 -16.17,3.0312 -4.77,2 -8.93,4.8907 -12.42,8.6485 -3.49,3.7695 -6.16,8.1601 -7.94,13.2812 -1.81,5.1604 -2.7,10.7694 -2.7,17.0004 0,6.25 0.89,11.968 2.7,17.129 1.87,5.23 4.47,9.628 7.9,13.339 3.45,3.672 7.59,6.512 12.46,8.493 4.93,2 10.3,3.007 16.17,3.007 6.01,0 11.41,-1.007 16.31,-3.039 4.87,-2 9.03,-4.898 12.52,-8.629 3.44,-3.722 6.14,-8.191 7.95,-13.332 1.8,-5.129 2.71,-10.8 2.71,-17.007"
         style="fill:#b23521;fill-opacity:1;fill-rule:nonzero;stroke:none"
         transform="matrix(0.13333333,0,0,-0.13333333,0,666.2)" />
      <path
         id="path45"
         d="M 2935.59,101.191 V 84 c 0,-4.1914 -0.95,-7.3398 -2.84,-9.4492 -1.89,-2.0508 -4.27,-3.1211 -7.19,-3.1211 -2.82,0 -5.19,1.0898 -7.01,3.1719 -1.83,2.1093 -2.73,5.2382 -2.73,9.3984 v 57.449 c 0,9.289 3.19,13.91 9.62,13.91 3.25,0 5.63,-1.109 7.11,-3.25 1.42,-2.16 2.19,-5.379 2.38,-9.589 2.36,4.21 4.81,7.429 7.3,9.589 2.49,2.141 5.79,3.25 9.92,3.25 4.19,0 8.2,-1.109 12.14,-3.25 3.88,-2.16 5.87,-5.05 5.87,-8.621 0,-2.519 -0.86,-4.629 -2.52,-6.238 -1.65,-1.629 -3.46,-2.48 -5.41,-2.48 -0.72,0 -2.47,0.48 -5.25,1.441 -2.79,0.91 -5.24,1.391 -7.38,1.391 -2.87,0 -5.23,-0.77 -7.05,-2.391 -1.85,-1.609 -3.28,-3.941 -4.29,-7.051 -1.01,-3.16 -1.75,-6.871 -2.11,-11.199 -0.37,-4.281 -0.56,-9.52 -0.56,-15.77"
         style="fill:#b23521;fill-opacity:1;fill-rule:nonzero;stroke:none"
         transform="matrix(0.13333333,0,0,-0.13333333,0,666.2)" />
      <path
         id="path46"
         d="m 3040.94,98.3984 c 0,-5.707 -1.33,-10.5664 -4.02,-14.6289 -2.66,-4.0781 -6.58,-7.1093 -11.77,-9.2304 -5.22,-2.0391 -11.51,-3.1094 -18.99,-3.1094 -7.04,0 -13.16,1.1289 -18.25,3.4219 -5.07,2.2578 -8.82,5.0781 -11.21,8.4804 -2.44,3.3789 -3.68,6.7969 -3.68,10.2071 0,2.2695 0.79,4.2226 2.37,5.832 1.53,1.6409 3.51,2.4099 5.84,2.4099 2.09,0 3.7,-0.531 4.81,-1.562 1.11,-1.1174 2.14,-2.5784 3.19,-4.4885 2.02,-3.6914 4.43,-6.4414 7.3,-8.25 2.79,-1.8399 6.64,-2.7422 11.57,-2.7422 3.93,0 7.18,0.9336 9.73,2.7812 2.52,1.8321 3.83,3.9297 3.83,6.3008 0,3.6602 -1.34,6.3087 -3.95,7.9497 -2.67,1.699 -6.98,3.281 -13.02,4.789 -6.81,1.773 -12.37,3.621 -16.64,5.543 -4.28,1.957 -7.74,4.539 -10.28,7.707 -2.56,3.132 -3.85,7.062 -3.85,11.703 0,4.16 1.19,8.07 3.56,11.718 2.35,3.692 5.89,6.622 10.49,8.821 4.61,2.199 10.16,3.308 16.72,3.308 5.1,0 9.69,-0.57 13.8,-1.668 4.07,-1.113 7.53,-2.609 10.21,-4.461 2.73,-1.871 4.83,-3.929 6.24,-6.191 1.45,-2.289 2.15,-4.508 2.15,-6.66 0,-2.379 -0.74,-4.277 -2.3,-5.859 -1.53,-1.438 -3.71,-2.211 -6.46,-2.211 -2.06,0 -3.78,0.589 -5.22,1.832 -1.4,1.187 -3.06,2.988 -4.88,5.379 -1.5,2.019 -3.25,3.66 -5.3,4.859 -2.03,1.191 -4.79,1.812 -8.24,1.812 -3.59,0 -6.58,-0.781 -8.91,-2.39 -2.38,-1.571 -3.57,-3.559 -3.57,-5.942 0,-2.168 0.88,-3.937 2.58,-5.328 1.77,-1.39 4.1,-2.543 7.06,-3.453 2.96,-0.898 7.01,-2.039 12.18,-3.34 6.15,-1.547 11.15,-3.398 15.04,-5.578 3.89,-2.148 6.83,-4.719 8.83,-7.672 2.04,-2.976 3.04,-6.34 3.04,-10.0896"
         style="fill:#b23521;fill-opacity:1;fill-rule:nonzero;stroke:none"
         transform="matrix(0.13333333,0,0,-0.13333333,0,666.2)" />
      <path
         id="path47"
         d="m 3063.4,71.4297 c -3,0 -5.59,0.9805 -7.74,3.0312 -2.2,2 -3.28,4.8399 -3.28,8.4375 0,3.0704 1.02,5.7227 3.08,7.9532 2.08,2.1992 4.66,3.289 7.7,3.289 3.03,0 5.64,-1.0898 7.74,-3.289 2.18,-2.1524 3.26,-4.8516 3.26,-7.9532 0,-3.5664 -1.08,-6.3789 -3.26,-8.4101 -2.1,-2.0391 -4.61,-3.0586 -7.5,-3.0586"
         style="fill:#b23521;fill-opacity:1;fill-rule:nonzero;stroke:none"
         transform="matrix(0.13333333,0,0,-0.13333333,0,666.2)" />
      <path
         id="path48"
         d="m 3150.86,113.352 c 0,8.386 -1.79,14.968 -5.33,19.648 -3.56,4.66 -8.31,7.031 -14.29,7.031 -3.88,0 -7.25,-1.051 -10.2,-3.14 -2.96,-2.121 -5.23,-5.2 -6.81,-9.289 -1.57,-4.043 -2.38,-8.782 -2.38,-14.25 0,-5.403 0.76,-10.09 2.32,-14.1215 1.61,-4.0313 3.84,-7.1211 6.77,-9.2617 2.91,-2.1368 6.34,-3.1993 10.3,-3.1993 5.98,0 10.73,2.3516 14.29,7.0508 3.54,4.6992 5.33,11.2307 5.33,19.5317 z m 19.87,0 c 0,-6.114 -0.91,-11.793 -2.77,-17.0239 -1.85,-5.1367 -4.47,-9.6172 -7.96,-13.3593 -3.51,-3.7383 -7.61,-6.5274 -12.46,-8.5704 -4.82,-1.9882 -10.25,-2.9687 -16.3,-2.9687 -5.99,0 -11.37,0.9805 -16.15,3.0312 -4.79,2 -8.91,4.8907 -12.4,8.6485 -3.56,3.7695 -6.2,8.1601 -8.03,13.2812 -1.77,5.1604 -2.68,10.7694 -2.68,17.0004 0,6.25 0.91,11.968 2.76,17.129 1.86,5.23 4.45,9.628 7.87,13.339 3.43,3.672 7.59,6.512 12.48,8.493 4.87,2 10.22,3.007 16.15,3.007 5.98,0 11.42,-1.007 16.3,-3.039 4.9,-2 9.06,-4.898 12.55,-8.629 3.45,-3.722 6.09,-8.191 7.93,-13.332 1.8,-5.129 2.71,-10.8 2.71,-17.007"
         style="fill:#b23521;fill-opacity:1;fill-rule:nonzero;stroke:none"
         transform="matrix(0.13333333,0,0,-0.13333333,0,666.2)" />
      <path
         id="path49"
         d="M 3205.96,101.191 V 84 c 0,-4.1914 -0.94,-7.3398 -2.83,-9.4492 -1.85,-2.0508 -4.27,-3.1211 -7.14,-3.1211 -2.89,0 -5.21,1.0898 -7.05,3.1719 -1.86,2.1093 -2.77,5.2382 -2.77,9.3984 v 57.449 c 0,9.289 3.25,13.91 9.65,13.91 3.29,0 5.64,-1.109 7.08,-3.25 1.43,-2.16 2.28,-5.379 2.44,-9.589 2.33,4.21 4.75,7.429 7.24,9.589 2.49,2.141 5.82,3.25 9.94,3.25 4.22,0 8.25,-1.109 12.12,-3.25 3.91,-2.16 5.89,-5.05 5.89,-8.621 0,-2.519 -0.84,-4.629 -2.49,-6.238 -1.69,-1.629 -3.46,-2.48 -5.43,-2.48 -0.71,0 -2.44,0.48 -5.22,1.441 -2.79,0.91 -5.24,1.391 -7.39,1.391 -2.88,0 -5.22,-0.77 -7.11,-2.391 -1.81,-1.609 -3.24,-3.941 -4.27,-7.051 -0.98,-3.16 -1.7,-6.871 -2.07,-11.199 -0.39,-4.281 -0.59,-9.52 -0.59,-15.77"
         style="fill:#b23521;fill-opacity:1;fill-rule:nonzero;stroke:none"
         transform="matrix(0.13333333,0,0,-0.13333333,0,666.2)" />
      <path
         id="path50"
         d="m 3263.07,114.07 c 0,-8.351 1.75,-14.6911 5.27,-18.9997 3.48,-4.25 8.04,-6.4219 13.55,-6.4219 3.27,0 6.41,0.9532 9.32,2.793 2.93,1.8477 5.3,4.6094 7.15,8.3203 1.85,3.7073 2.74,8.1873 2.74,13.4763 0,8.422 -1.78,14.961 -5.33,19.641 -3.53,4.723 -8.21,7.09 -14,7.09 -5.64,0 -10.18,-2.309 -13.57,-6.758 -3.42,-4.5 -5.13,-10.871 -5.13,-19.141 z m 57.33,26.18 V 80.2617 c 0,-6.8828 -0.75,-12.7617 -2.12,-17.6836 -1.4,-4.9687 -3.65,-9.0468 -6.74,-12.2695 -3.08,-3.207 -7.16,-5.6094 -12.12,-7.168 -5.01,-1.5312 -11.24,-2.3203 -18.66,-2.3203 -6.82,0 -12.93,0.9492 -18.26,2.9492 -5.37,2.0391 -9.51,4.5821 -12.4,7.75 -2.89,3.1094 -4.36,6.3711 -4.36,9.7227 0,2.5195 0.8,4.5586 2.49,6.1367 1.62,1.6328 3.61,2.4102 5.92,2.4102 2.91,0 5.41,-1.3477 7.63,-4 1.06,-1.4102 2.18,-2.7696 3.28,-4.1289 1.13,-1.3985 2.39,-2.6094 3.76,-3.5704 1.39,-1.0078 3.06,-1.7304 4.99,-2.2187 1.89,-0.4727 4.15,-0.7227 6.67,-0.7227 5.08,0 9.1,0.7618 11.9,2.2422 2.83,1.4805 4.82,3.5586 5.97,6.2305 1.08,2.668 1.81,5.5195 1.92,8.5703 0.24,3.1094 0.37,7.957 0.51,14.75 -3.05,-4.4219 -6.61,-7.8125 -10.56,-10.1328 -3.98,-2.3203 -8.75,-3.457 -14.2,-3.457 -6.68,0 -12.47,1.7265 -17.39,5.289 -4.97,3.5196 -8.78,8.4492 -11.42,14.8203 -2.63,6.3282 -3.99,13.6601 -3.99,21.9881 0,6.242 0.79,11.84 2.44,16.832 1.59,4.969 3.88,9.188 6.93,12.617 2.96,3.434 6.43,6.012 10.34,7.762 3.94,1.719 8.18,2.61 12.91,2.61 5.58,0 10.43,-1.141 14.53,-3.399 4.16,-2.211 7.93,-5.769 11.47,-10.543 v 2.781 c 0,3.602 0.87,6.34 2.54,8.383 1.67,1.93 3.86,2.93 6.51,2.93 3.83,0 6.36,-1.293 7.63,-3.891 1.24,-2.609 1.88,-6.383 1.88,-11.281"
         style="fill:#b23521;fill-opacity:1;fill-rule:nonzero;stroke:none"
         transform="matrix(0.13333333,0,0,-0.13333333,0,666.2)" />
      <path
         id="path51"
         d="m 2463.13,341.25 h 29.34 c -2.07,-15.809 -8.55,-28.16 -19.34,-37.051 -9.97,-8.699 -22.05,-12.988 -36.16,-12.988 -19.16,0 -34.45,6.73 -45.87,20.16 -10.82,12.777 -16.22,29.277 -16.22,49.43 0,20.648 5.36,37.148 16.07,49.66 10.69,12.449 25.82,18.711 45.37,18.711 14.54,0 26.84,-3.942 36.81,-11.742 10.59,-8.438 17.06,-20.301 19.34,-35.469 h -29.34 c -2.53,13.238 -10.61,19.82 -24.37,19.82 -22.68,0 -34.03,-13.429 -34.03,-40.301 0,-12.601 2.92,-22.871 8.75,-30.89 5.83,-8.039 14.05,-12.059 24.65,-12.059 15.82,0 24.16,7.59 25,22.719 z m -115.48,18.512 c 0,-26.262 8.33,-48.492 24.95,-66.59 16.65,-18.113 37.02,-27.172 61.2,-27.172 24.07,0 44.46,9.059 61.08,27.172 16.67,18.098 24.94,40.328 24.94,66.59 0,26.238 -8.27,48.449 -24.94,66.558 -16.62,18.149 -37.01,27.192 -61.08,27.192 -24.18,0 -44.55,-9.043 -61.2,-27.192 -16.62,-18.109 -24.95,-40.32 -24.95,-66.558 z m -29.81,0 c 0,33.41 11.31,61.929 33.94,85.617 22.65,23.652 50,35.473 82.02,35.473 31.94,0 59.25,-11.821 81.92,-35.473 22.65,-23.688 33.99,-52.207 33.99,-85.617 0,-33.442 -11.34,-61.992 -33.99,-85.633 -22.67,-23.68 -49.98,-35.508 -81.92,-35.508 -32.02,0 -59.37,11.828 -82.02,35.508 -22.63,23.641 -33.94,52.191 -33.94,85.633"
         style="fill:#b23521;fill-opacity:1;fill-rule:nonzero;stroke:none"
         transform="matrix(0.13333333,0,0,-0.13333333,0,666.2)" />
      <path
         id="path52"
         d="m 2364.76,283.809 16.91,-14.34 124.34,159.672 -16.91,14.32 -124.34,-159.652"
         style="fill:#b23521;fill-opacity:1;fill-rule:nonzero;stroke:none"
         transform="matrix(0.13333333,0,0,-0.13333333,0,666.2)" />
    </g>
  </g>
</svg>
