<?xml version="1.0" encoding="UTF-8" standalone="no"?>
<!-- Created with Inkscape (http://www.inkscape.org/) -->

<svg
   version="1.1"
   id="svg1"
   width="609.96002"
   height="631.25336"
   viewBox="0 0 609.96002 631.25336"
   sodipodi:docname="scrum-task-board-publicdomainvectors.org.svg"
   inkscape:version="1.3.2 (091e20ef0f, 2023-11-25, custom)"
   xmlns:inkscape="http://www.inkscape.org/namespaces/inkscape"
   xmlns:sodipodi="http://sodipodi.sourceforge.net/DTD/sodipodi-0.dtd"
   xmlns="http://www.w3.org/2000/svg"
   xmlns:svg="http://www.w3.org/2000/svg">
  <defs
     id="defs1" />
  <sodipodi:namedview
     id="namedview1"
     pagecolor="#505050"
     bordercolor="#ffffff"
     borderopacity="1"
     inkscape:showpageshadow="0"
     inkscape:pageopacity="0"
     inkscape:pagecheckerboard="1"
     inkscape:deskcolor="#d1d1d1"
     inkscape:zoom="1.0508885"
     inkscape:cx="304.98001"
     inkscape:cy="315.92313"
     inkscape:window-width="1920"
     inkscape:window-height="1002"
     inkscape:window-x="0"
     inkscape:window-y="0"
     inkscape:window-maximized="1"
     inkscape:current-layer="g1">
    <inkscape:page
       x="0"
       y="0"
       inkscape:label="1"
       id="page1"
       width="609.96002"
       height="631.25336"
       margin="0"
       bleed="0" />
  </sodipodi:namedview>
  <g
     id="g1"
     inkscape:groupmode="layer"
     inkscape:label="1">
    <g
       id="group-R5">
      <path
         id="path2"
         d="m 2294.53,208.781 c 12.06,0 21.91,9.848 21.91,21.918 0,12.082 -9.85,21.93 -21.91,21.93 -12.08,0 -21.93,-9.848 -21.93,-21.93 0,-12.07 9.85,-21.918 21.93,-21.918"
         style="fill:#481937;fill-opacity:1;fill-rule:evenodd;stroke:none"
         transform="matrix(0.13333333,0,0,-0.13333333,0,631.25333)" />
      <path
         id="path3"
         d="m 1407.06,72.9219 c 0,5.457 -0.78,10.1797 -2.4,14.0273 -1.57,3.9219 -3.78,6.9414 -6.62,9.0703 -2.83,2.0703 -5.95,3.1289 -9.4,3.1289 -5.45,0 -10.06,-2.2968 -13.81,-6.7578 -3.75,-4.5117 -5.62,-11.0898 -5.62,-19.8203 0,-8.2305 1.87,-14.6289 5.57,-19.1406 3.75,-4.5781 8.37,-6.8906 13.86,-6.8906 3.28,0 6.35,1 9.16,3.0195 2.77,1.9922 5.02,4.9727 6.72,8.9219 1.71,4.0195 2.54,8.8008 2.54,14.4414 z m -38.77,30.0901 v -2.492 c 3.71,4.761 7.56,8.332 11.56,10.531 4.03,2.258 8.6,3.398 13.68,3.398 6.07,0 11.68,-1.648 16.8,-4.929 5.11,-3.282 9.15,-8.051 12.14,-14.3716 2.97,-6.3203 4.43,-13.7578 4.43,-22.3867 0,-6.332 -0.83,-12.2422 -2.54,-17.4922 -1.71,-5.3281 -4.08,-9.8203 -7.07,-13.4101 -2.99,-3.6094 -6.56,-6.3985 -10.61,-8.3203 -4.1,-1.9688 -8.51,-2.9297 -13.15,-2.9297 -5.69,0 -10.43,1.1914 -14.27,3.5625 -3.88,2.3594 -7.51,5.8164 -10.97,10.4179 V 13.6094 C 1368.29,4.51953 1365.12,0 1358.79,0 c -3.72,0 -6.2,1.14844 -7.37,3.48828 -1.22,2.35156 -1.82,5.77344 -1.82,10.25002 v 89.1327 c 0,3.93 0.79,6.879 2.45,8.809 1.67,1.922 3.91,2.922 6.74,2.922 2.8,0 5.09,-1 6.84,-3.012 1.76,-2.008 2.66,-4.871 2.66,-8.578"
         style="fill:#481937;fill-opacity:1;fill-rule:nonzero;stroke:none"
         transform="matrix(0.13333333,0,0,-0.13333333,0,631.25333)" />
      <path
         id="path4"
         d="m 1494.21,42.2891 v 2.6093 c -2.38,-3.1093 -4.86,-5.7187 -7.48,-7.8281 -2.61,-2.1601 -5.46,-3.7187 -8.54,-4.7422 -3.12,-1.0195 -6.64,-1.5468 -10.6,-1.5468 -4.76,0 -9.05,1.0507 -12.85,3.0898 -3.8,2.0703 -6.74,4.918 -8.79,8.5391 -2.5,4.3984 -3.7,10.6992 -3.7,18.8906 V 102.23 c 0,4.098 0.88,7.211 2.68,9.239 1.79,2.051 4.14,3.07 7.08,3.07 3.01,0 5.41,-1.019 7.26,-3.109 1.83,-2.071 2.74,-5.16 2.74,-9.2 V 69.1484 c 0,-4.7578 0.38,-8.7773 1.13,-12.0078 0.82,-3.2617 2.2,-5.8125 4.22,-7.6797 1.97,-1.8125 4.7,-2.7304 8.13,-2.7304 3.37,0 6.49,1.039 9.42,3.0976 2.97,2.043 5.13,4.7422 6.47,8.0703 1.11,2.9336 1.66,9.3321 1.66,19.211 V 102.23 c 0,4.04 0.92,7.129 2.77,9.2 1.82,2.09 4.18,3.109 7.15,3.109 2.95,0 5.31,-1.019 7.1,-3.07 1.77,-2.028 2.65,-5.141 2.65,-9.239 V 42.4102 c 0,-3.9219 -0.83,-6.8789 -2.54,-8.8321 -1.7,-1.9883 -3.91,-2.9492 -6.63,-2.9492 -2.69,0 -4.92,1.0508 -6.69,3.043 -1.76,2.0664 -2.64,4.8984 -2.64,8.6172"
         style="fill:#481937;fill-opacity:1;fill-rule:nonzero;stroke:none"
         transform="matrix(0.13333333,0,0,-0.13333333,0,631.25333)" />
      <path
         id="path5"
         d="m 1551.59,72.1016 c 0,-8.211 1.79,-14.5 5.37,-18.9297 3.62,-4.3906 8.34,-6.6328 14.2,-6.6328 4.98,0 9.24,2.2812 12.86,6.7812 3.63,4.5195 5.42,10.9492 5.42,19.3789 0,5.5 -0.75,10.1719 -2.25,14.0899 -1.52,3.9492 -3.65,6.9922 -6.38,9.1211 -2.79,2.1406 -5.97,3.2382 -9.65,3.2382 -3.81,0 -7.11,-1.0976 -10.08,-3.2382 -2.96,-2.1289 -5.26,-5.25 -6.97,-9.3204 -1.69,-4.0195 -2.52,-8.8398 -2.52,-14.4882 z m -0.94,61.3784 v -31.57 c 3.68,4.078 7.49,7.129 11.35,9.32 3.87,2.141 8.67,3.219 14.36,3.219 6.58,0 12.33,-1.648 17.28,-4.867 4.94,-3.312 8.81,-7.992 11.53,-14.1601 2.75,-6.1719 4.1,-13.5 4.1,-21.961 0,-6.2695 -0.75,-12 -2.26,-17.25 -1.53,-5.1914 -3.72,-9.6992 -6.63,-13.5703 -2.93,-3.8125 -6.44,-6.7422 -10.56,-8.9101 -4.15,-2.0508 -8.7,-3.1211 -13.67,-3.1211 -3.02,0 -5.91,0.4023 -8.6,1.1406 -2.68,0.7617 -4.98,1.75 -6.82,3.0195 -1.91,1.1719 -3.51,2.4922 -4.85,3.7618 -1.32,1.3281 -3.06,3.289 -5.23,5.8984 v -2.0195 c 0,-3.8907 -0.91,-6.8204 -2.7,-8.8321 -1.77,-1.9883 -4.07,-2.9687 -6.8,-2.9687 -2.82,0 -5.04,0.9804 -6.73,2.9687 -1.65,2.043 -2.48,4.9532 -2.48,8.8321 v 90.1678 c 0,4.152 0.8,7.32 2.44,9.453 1.62,2.16 3.85,3.219 6.77,3.219 3.03,0 5.38,-1.012 7,-3.07 1.66,-2.02 2.5,-4.91 2.5,-8.7"
         style="fill:#481937;fill-opacity:1;fill-rule:nonzero;stroke:none"
         transform="matrix(0.13333333,0,0,-0.13333333,0,631.25333)" />
      <path
         id="path6"
         d="m 1623.23,43.1797 v 89.5193 c 0,4.16 0.88,7.262 2.62,9.391 1.8,2.101 4.16,3.16 7.16,3.16 3,0 5.4,-1.02 7.24,-3.129 1.81,-2.082 2.77,-5.25 2.77,-9.422 V 43.1797 c 0,-4.1914 -0.96,-7.3399 -2.81,-9.4492 -1.85,-2.0508 -4.26,-3.1211 -7.2,-3.1211 -2.9,0 -5.23,1.1015 -7.05,3.2617 -1.82,2.168 -2.73,5.2578 -2.73,9.3086"
         style="fill:#481937;fill-opacity:1;fill-rule:nonzero;stroke:none"
         transform="matrix(0.13333333,0,0,-0.13333333,0,631.25333)" />
      <path
         id="path7"
         d="M 1683.21,102.809 V 43.1797 c 0,-4.1602 -0.96,-7.2813 -2.8,-9.3984 -1.9,-2.0704 -4.31,-3.1719 -7.18,-3.1719 -2.91,0 -5.27,1.1015 -7.07,3.25 -1.79,2.1797 -2.73,5.2695 -2.73,9.3203 V 102.23 c 0,4.04 0.94,7.129 2.73,9.2 1.8,2.09 4.16,3.109 7.07,3.109 2.87,0 5.28,-1.019 7.18,-3.109 1.84,-2.071 2.8,-4.942 2.8,-8.621 z m -9.78,21.351 c -2.76,0 -5.09,0.879 -7.09,2.692 -1.91,1.75 -2.91,4.269 -2.91,7.507 0,2.911 1,5.289 3.02,7.211 2,1.899 4.32,2.789 6.98,2.789 2.56,0 4.84,-0.828 6.81,-2.527 1.98,-1.723 2.97,-4.242 2.97,-7.473 0,-3.211 -0.97,-5.687 -2.91,-7.461 -1.93,-1.777 -4.2,-2.738 -6.87,-2.738"
         style="fill:#481937;fill-opacity:1;fill-rule:nonzero;stroke:none"
         transform="matrix(0.13333333,0,0,-0.13333333,0,631.25333)" />
      <path
         id="path8"
         d="m 1774.5,56.1797 c 0,-2.5586 -0.72,-5.3203 -2.19,-8.2383 -1.49,-2.9219 -3.74,-5.6914 -6.76,-8.3516 -3,-2.6406 -6.81,-4.7695 -11.4,-6.371 -4.59,-1.6485 -9.77,-2.4375 -15.5,-2.4375 -12.23,0 -21.77,3.7304 -28.63,11.1484 -6.85,7.4414 -10.28,17.3906 -10.28,29.9023 0,8.4571 1.56,15.9688 4.68,22.4571 3.14,6.4609 7.72,11.5309 13.64,15.0699 5.92,3.571 13.05,5.352 21.29,5.352 5.13,0 9.84,-0.801 14.12,-2.352 4.26,-1.57 7.89,-3.597 10.86,-6.039 2.96,-2.48 5.23,-5.121 6.81,-7.8981 1.58,-2.8008 2.35,-5.4102 2.35,-7.8321 0,-2.4492 -0.9,-4.539 -2.64,-6.2578 -1.78,-1.7304 -3.89,-2.582 -6.41,-2.582 -1.66,0 -3,0.4805 -4.12,1.3594 -1.05,0.8398 -2.28,2.2304 -3.65,4.2422 -2.4,3.8203 -4.94,6.707 -7.57,8.6679 -2.64,1.8907 -5.98,2.8789 -10.01,2.8789 -5.88,0 -10.58,-2.4296 -14.15,-7.1796 -3.58,-4.7969 -5.35,-11.2969 -5.35,-19.5704 0,-3.8593 0.46,-7.4687 1.39,-10.707 0.9,-3.2617 2.23,-6.0195 3.96,-8.332 1.75,-2.2891 3.83,-4.0196 6.3,-5.1992 2.46,-1.211 5.18,-1.7891 8.11,-1.7891 3.98,0 7.36,0.9375 10.19,2.8594 2.83,1.9414 5.33,4.8711 7.5,8.75 1.21,2.3789 2.51,4.1679 3.92,5.5 1.41,1.3203 3.13,1.9492 5.15,1.9492 2.42,0 4.42,-0.9414 6.03,-2.8594 1.56,-1.9492 2.36,-3.9687 2.36,-6.1406"
         style="fill:#481937;fill-opacity:1;fill-rule:nonzero;stroke:none"
         transform="matrix(0.13333333,0,0,-0.13333333,0,631.25333)" />
      <path
         id="path9"
         d="m 1807.09,72.6992 c 0,-5.5898 0.83,-10.3281 2.49,-14.2773 1.68,-3.9531 3.93,-6.8711 6.83,-8.8633 2.92,-2.0195 6.08,-3.0195 9.48,-3.0195 3.49,0 6.66,0.9726 9.53,2.832 2.89,1.9102 5.16,4.8203 6.89,8.7305 1.72,3.8789 2.57,8.7695 2.57,14.5976 0,5.5313 -0.85,10.2305 -2.57,14.1992 -1.73,3.9727 -4.04,6.9922 -6.95,9.1211 -2.93,2.0703 -6.11,3.1289 -9.59,3.1289 -3.61,0 -6.84,-1.0976 -9.71,-3.2382 -2.83,-2.1289 -5.06,-5.2383 -6.63,-9.2383 -1.55,-4.0235 -2.34,-8.6328 -2.34,-13.9727 z m 38.88,-30.289 v 2.0195 c -2.66,-3.168 -5.28,-5.75 -7.89,-7.7109 -2.54,-2.0079 -5.37,-3.5274 -8.38,-4.5586 -3.01,-1.0118 -6.31,-1.5508 -9.88,-1.5508 -4.72,0 -9.14,1.0703 -13.15,3.1211 -4.02,2.1679 -7.51,5.1211 -10.46,8.9883 -2.94,3.8828 -5.17,8.4414 -6.71,13.7109 -1.54,5.2187 -2.28,10.8906 -2.28,17.0312 0,12.8672 3.02,22.9805 9.06,30.1801 6.05,7.211 13.98,10.808 23.83,10.808 5.69,0 10.51,-1.039 14.41,-3.121 3.91,-1.996 7.74,-5.148 11.45,-9.418 v 30.488 c 0,4.243 0.8,7.442 2.43,9.602 1.61,2.18 3.89,3.25 6.9,3.25 2.99,0 5.3,-0.988 6.94,-2.969 1.6,-1.98 2.44,-4.929 2.44,-8.801 V 42.4102 c 0,-3.9219 -0.88,-6.8789 -2.63,-8.8321 -1.75,-1.9883 -3.97,-2.9687 -6.75,-2.9687 -2.67,0 -4.94,1.0195 -6.71,3.0625 -1.74,2.0273 -2.62,4.9179 -2.62,8.7383"
         style="fill:#481937;fill-opacity:1;fill-rule:nonzero;stroke:none"
         transform="matrix(0.13333333,0,0,-0.13333333,0,631.25333)" />
      <path
         id="path10"
         d="m 1938.72,72.5391 c 0,8.3906 -1.81,14.9609 -5.33,19.6523 -3.56,4.6602 -8.34,7.0274 -14.32,7.0274 -3.88,0 -7.27,-1.0586 -10.22,-3.1485 -2.94,-2.1211 -5.21,-5.1992 -6.81,-9.2812 -1.58,-4.0508 -2.39,-8.7774 -2.39,-14.25 0,-5.3985 0.81,-10.0977 2.35,-14.1172 1.56,-4.043 3.82,-7.1211 6.76,-9.2735 2.91,-2.1367 6.38,-3.1875 10.31,-3.1875 5.98,0 10.76,2.3399 14.32,7.0508 3.52,4.6875 5.33,11.2266 5.33,19.5274 z m 19.84,0 c 0,-6.1094 -0.92,-11.8008 -2.75,-17.0196 -1.84,-5.1484 -4.49,-9.6211 -7.95,-13.3593 -3.5,-3.7383 -7.65,-6.5391 -12.48,-8.5821 -4.82,-1.9883 -10.3,-2.9687 -16.31,-2.9687 -5.97,0 -11.37,0.9804 -16.14,3.0312 -4.79,2 -8.95,4.8907 -12.45,8.6485 -3.49,3.7695 -6.13,8.1718 -7.97,13.2929 -1.81,5.1485 -2.71,10.7696 -2.71,16.9961 0,6.25 0.93,11.961 2.75,17.1328 1.83,5.2188 4.45,9.6289 7.89,13.3401 3.44,3.668 7.58,6.5 12.49,8.48 4.89,2 10.24,3.008 16.14,3.008 6,0 11.44,-1.008 16.31,-3.039 4.86,-2 9.04,-4.898 12.52,-8.629 3.5,-3.7226 6.13,-8.1796 7.91,-13.3319 1.86,-5.1289 2.75,-10.8008 2.75,-17"
         style="fill:#481937;fill-opacity:1;fill-rule:nonzero;stroke:none"
         transform="matrix(0.13333333,0,0,-0.13333333,0,631.25333)" />
      <path
         id="path11"
         d="m 2042.1,89.5898 c -1.48,-3.4882 -2.19,-9.6484 -2.19,-18.5195 V 43.6406 c 0,-4.3086 -0.93,-7.6015 -2.83,-9.7695 -1.87,-2.1602 -4.39,-3.2617 -7.48,-3.2617 -2.97,0 -5.39,1.1015 -7.24,3.2617 -1.86,2.168 -2.77,5.4609 -2.77,9.7695 v 32.9297 c 0,5.1797 -0.2,9.1992 -0.54,12.1094 -0.34,2.8398 -1.25,5.2187 -2.75,7.0586 -1.47,1.8633 -3.85,2.7812 -7.07,2.7812 -6.47,0 -10.72,-2.3281 -12.79,-7 -2.07,-4.6211 -3.05,-11.2812 -3.05,-19.9687 V 43.6406 c 0,-4.3008 -0.96,-7.5508 -2.79,-9.6992 -1.88,-2.2305 -4.33,-3.332 -7.34,-3.332 -3.02,0 -5.5,1.1015 -7.39,3.332 -1.92,2.1484 -2.83,5.3984 -2.83,9.6875 v 59.0701 c 0,3.903 0.82,6.852 2.52,8.86 1.73,2 3.99,3.043 6.81,3.043 2.7,0 4.96,-0.942 6.76,-2.832 1.81,-1.891 2.72,-4.489 2.72,-7.829 v -1.961 c 3.41,4.29 7.1,7.45 10.99,9.45 3.91,2.011 8.3,3.019 13.05,3.019 4.96,0 9.22,-1.039 12.79,-3.121 3.6,-2.039 6.53,-5.18 8.83,-9.348 3.34,4.2 6.91,7.379 10.74,9.411 3.82,2.05 8.04,3.058 12.66,3.058 5.45,0 10.1,-1.078 13.98,-3.34 3.93,-2.211 6.84,-5.379 8.78,-9.519 1.7,-3.7306 2.53,-9.6017 2.53,-17.6408 V 43.6406 c 0,-4.3086 -0.94,-7.6015 -2.79,-9.7695 -1.93,-2.1602 -4.39,-3.2617 -7.48,-3.2617 -3.01,0 -5.45,1.1015 -7.35,3.332 -1.93,2.1484 -2.89,5.3984 -2.89,9.6992 v 34.7383 c 0,4.4414 -0.17,7.9922 -0.52,10.6602 -0.38,2.7109 -1.35,4.9101 -2.96,6.7422 -1.58,1.8203 -4.02,2.7382 -7.22,2.7382 -2.61,0 -5.1,-0.8281 -7.4,-2.3984 -2.38,-1.6406 -4.16,-3.8125 -5.49,-6.5313 v 0"
         style="fill:#481937;fill-opacity:1;fill-rule:nonzero;stroke:none"
         transform="matrix(0.13333333,0,0,-0.13333333,0,631.25333)" />
      <path
         id="path12"
         d="m 2154.11,72.1484 c -2.91,-1.1289 -7.13,-2.2773 -12.65,-3.539 -5.54,-1.2305 -9.37,-2.1289 -11.5,-2.7188 -2.13,-0.6015 -4.16,-1.7187 -6.06,-3.3906 -1.96,-1.7383 -2.93,-4.0781 -2.93,-7.1094 0,-3.1523 1.15,-5.789 3.4,-7.9922 2.28,-2.207 5.26,-3.289 8.93,-3.289 3.91,0 7.54,0.9101 10.83,2.6992 3.31,1.7695 5.76,4.1133 7.28,6.9102 1.79,3.1406 2.7,8.2617 2.7,15.4921 z M 2155.4,42.25 c -4.79,-3.8906 -9.41,-6.7891 -13.88,-8.7109 -4.45,-1.9688 -9.49,-2.9297 -15.02,-2.9297 -5.1,0 -9.52,1.0703 -13.38,3.1211 -3.87,2.1093 -6.8,4.9492 -8.89,8.5586 -2.05,3.582 -3.12,7.4297 -3.12,11.6328 0,5.6484 1.76,10.4375 5.18,14.4375 3.4,3.9492 8.1,6.6406 14.09,8.0117 1.26,0.3008 4.4,0.9492 9.34,2.0078 5.03,1.0899 9.24,2.043 12.85,2.9219 3.51,0.8711 7.39,1.9375 11.54,3.1875 -0.25,5.4726 -1.3,9.4609 -3.14,12.0625 -1.89,2.5195 -5.76,3.7692 -11.58,3.7692 -5.04,0 -8.8,-0.7106 -11.37,-2.1794 -2.52,-1.4414 -4.71,-3.6601 -6.5,-6.6211 -1.83,-2.8984 -3.08,-4.8398 -3.83,-5.7578 -0.78,-0.9609 -2.39,-1.3828 -4.81,-1.3828 -2.25,0 -4.16,0.7422 -5.76,2.1992 -1.64,1.5117 -2.44,3.3828 -2.44,5.7305 0,3.6328 1.23,7.1797 3.68,10.5624 2.47,3.449 6.32,6.258 11.52,8.52 5.22,2.211 11.73,3.32 19.51,3.32 8.68,0 15.52,-1.109 20.53,-3.242 4.96,-2.11 8.44,-5.481 10.51,-10.16 2.07,-4.6098 3.09,-10.7777 3.09,-18.4379 0,-4.832 0,-8.9727 -0.03,-12.332 -0.04,-3.3985 -0.06,-7.1485 -0.11,-11.2774 0,-3.8711 0.61,-7.9336 1.85,-12.1211 1.21,-4.2109 1.82,-6.9414 1.82,-8.1211 0,-2.1289 -0.97,-4.0586 -2.86,-5.8007 -1.87,-1.7305 -4.05,-2.6094 -6.46,-2.6094 -2.06,0 -4.02,0.9804 -6.03,2.9687 -1.97,2.0117 -4.07,4.9102 -6.3,8.6719"
         style="fill:#481937;fill-opacity:1;fill-rule:nonzero;stroke:none"
         transform="matrix(0.13333333,0,0,-0.13333333,0,631.25333)" />
      <path
         id="path13"
         d="M 2213.39,102.809 V 43.1797 c 0,-4.1602 -0.95,-7.2813 -2.8,-9.3984 -1.89,-2.0704 -4.26,-3.1719 -7.17,-3.1719 -2.89,0 -5.28,1.1015 -7.06,3.25 -1.84,2.1797 -2.75,5.2695 -2.75,9.3203 V 102.23 c 0,4.04 0.91,7.129 2.75,9.2 1.78,2.09 4.17,3.109 7.06,3.109 2.91,0 5.28,-1.019 7.17,-3.109 1.85,-2.071 2.8,-4.942 2.8,-8.621 z m -9.78,21.351 c -2.72,0 -5.07,0.879 -7.03,2.692 -1.95,1.75 -2.97,4.269 -2.97,7.507 0,2.911 1.03,5.289 3.04,7.211 1.98,1.899 4.34,2.789 6.96,2.789 2.57,0 4.87,-0.828 6.85,-2.527 1.95,-1.723 2.93,-4.242 2.93,-7.473 0,-3.211 -0.95,-5.687 -2.89,-7.461 -1.94,-1.777 -4.23,-2.738 -6.89,-2.738"
         style="fill:#481937;fill-opacity:1;fill-rule:nonzero;stroke:none"
         transform="matrix(0.13333333,0,0,-0.13333333,0,631.25333)" />
      <path
         id="path14"
         d="m 2251.83,103.109 v -2.461 c 3.45,4.774 7.25,8.293 11.35,10.524 4.14,2.238 8.89,3.367 14.28,3.367 5.19,0 9.87,-1.168 14,-3.57 4.07,-2.36 7.15,-5.688 9.17,-10 1.31,-2.5471 2.13,-5.2971 2.54,-8.2073 0.37,-2.9023 0.59,-6.6328 0.59,-11.1836 V 43.1797 c 0,-4.1602 -0.94,-7.2813 -2.73,-9.3984 -1.82,-2.0704 -4.18,-3.1719 -7.07,-3.1719 -2.93,0 -5.34,1.1015 -7.1,3.2617 -1.87,2.168 -2.81,5.2578 -2.81,9.3086 v 34.3789 c 0,6.8398 -0.88,12.0312 -2.68,15.6211 -1.85,3.6094 -5.47,5.4297 -10.88,5.4297 -3.52,0 -6.73,-1.0977 -9.62,-3.3086 -2.89,-2.1719 -5.02,-5.1914 -6.37,-9.0313 -0.96,-3.0781 -1.47,-8.8007 -1.47,-17.2695 V 43.1797 c 0,-4.1914 -0.91,-7.3399 -2.79,-9.4492 -1.86,-2.0508 -4.26,-3.1211 -7.19,-3.1211 -2.84,0 -5.2,1.1015 -7.02,3.25 -1.87,2.1797 -2.77,5.2695 -2.77,9.3203 v 59.6293 c 0,3.961 0.81,6.863 2.48,8.812 1.6,1.938 3.91,2.918 6.74,2.918 1.71,0 3.3,-0.461 4.68,-1.289 1.44,-0.84 2.53,-2.172 3.38,-3.82 0.82,-1.75 1.29,-3.84 1.29,-6.321"
         style="fill:#481937;fill-opacity:1;fill-rule:nonzero;stroke:none"
         transform="matrix(0.13333333,0,0,-0.13333333,0,631.25333)" />
      <path
         id="path15"
         d="m 2335.5,101.699 15.97,-46.8787 17.25,48.9177 c 1.38,3.942 2.7,6.692 4.01,8.344 1.34,1.629 3.29,2.457 5.93,2.457 2.51,0 4.64,-0.879 6.45,-2.68 1.73,-1.738 2.61,-3.75 2.61,-6.129 0,-0.89 -0.17,-1.929 -0.48,-3.109 -0.29,-1.242 -0.65,-2.383 -1.08,-3.4608 -0.42,-1.0196 -0.85,-2.25 -1.41,-3.5899 l -18.98,-49.1484 c -0.54,-1.4024 -1.24,-3.2227 -2.06,-5.3906 -0.86,-2.1524 -1.82,-3.9727 -2.83,-5.5704 -1.06,-1.5195 -2.33,-2.6796 -3.83,-3.5507 -1.55,-0.8594 -3.4,-1.3008 -5.58,-1.3008 -2.8,0 -5.01,0.6719 -6.7,1.9922 -1.67,1.3398 -2.9,2.789 -3.7,4.4101 -0.78,1.5586 -2.14,4.7188 -4.01,9.4102 l -18.86,48.6094 c -0.43,1.1875 -0.9,2.4101 -1.36,3.6171 -0.44,1.211 -0.8,2.4106 -1.14,3.7036 -0.3,1.289 -0.48,2.367 -0.48,3.238 0,1.441 0.41,2.832 1.25,4.211 0.82,1.398 1.97,2.551 3.4,3.41 1.48,0.867 3.01,1.328 4.73,1.328 3.26,0 5.53,-0.98 6.77,-2.98 1.24,-1.95 2.62,-5.239 4.13,-9.86"
         style="fill:#481937;fill-opacity:1;fill-rule:nonzero;stroke:none"
         transform="matrix(0.13333333,0,0,-0.13333333,0,631.25333)" />
      <path
         id="path16"
         d="m 2416.4,79.2813 h 35.85 c -0.46,7.0273 -2.27,12.3085 -5.46,15.7968 -3.18,3.4805 -7.35,5.2419 -12.52,5.2419 -4.89,0 -8.96,-1.7809 -12.1,-5.32 -3.17,-3.5391 -5.06,-8.7891 -5.77,-15.7187 z m 38.69,-11.75 h -38.69 c 0.01,-4.711 0.95,-8.8321 2.68,-12.4297 1.8,-3.5508 4.12,-6.25 7.05,-8.0899 2.92,-1.8203 6.16,-2.7031 9.69,-2.7031 2.35,0 4.54,0.2812 6.47,0.8516 1.95,0.6015 3.86,1.5 5.72,2.7187 1.8,1.2422 3.47,2.5313 5.04,3.9922 1.52,1.4102 3.59,3.3008 6.01,5.7305 1.03,0.9492 2.48,1.3672 4.35,1.3672 2.06,0 3.68,-0.5469 4.94,-1.7383 1.26,-1.1719 1.86,-2.7891 1.86,-4.9024 0,-1.8672 -0.69,-4.0468 -2.1,-6.5664 -1.39,-2.4609 -3.46,-4.8711 -6.34,-7.1914 -2.83,-2.2695 -6.38,-4.1484 -10.66,-5.6992 -4.24,-1.5 -9.14,-2.2617 -14.74,-2.2617 -12.69,0 -22.58,3.8125 -29.6,11.332 -7.04,7.6094 -10.56,17.8399 -10.56,30.7578 0,6.1797 0.9,11.7891 2.6,17 1.74,5.2305 4.26,9.6914 7.6,13.4098 3.34,3.75 7.42,6.641 12.31,8.602 4.9,2 10.28,3 16.25,3 7.68,0 14.33,-1.699 19.85,-5.129 5.55,-3.402 9.68,-7.762 12.44,-13.1406 2.75,-5.4297 4.13,-10.9023 4.13,-16.543 0,-5.1484 -1.39,-8.5195 -4.27,-10.0468 -2.87,-1.5625 -6.86,-2.3203 -12.03,-2.3203"
         style="fill:#481937;fill-opacity:1;fill-rule:nonzero;stroke:none"
         transform="matrix(0.13333333,0,0,-0.13333333,0,631.25333)" />
      <path
         id="path17"
         d="m 2559.01,56.1797 c 0,-2.5586 -0.73,-5.3203 -2.23,-8.2383 -1.49,-2.9219 -3.68,-5.6914 -6.73,-8.3516 -3.01,-2.6406 -6.85,-4.7695 -11.45,-6.371 -4.56,-1.6485 -9.75,-2.4375 -15.46,-2.4375 -12.25,0 -21.79,3.7304 -28.64,11.1484 -6.83,7.4414 -10.29,17.3906 -10.29,29.9023 0,8.4571 1.56,15.9688 4.73,22.4571 3.14,6.4609 7.64,11.5309 13.6,15.0699 5.92,3.571 13.05,5.352 21.32,5.352 5.11,0 9.79,-0.801 14.1,-2.352 4.27,-1.57 7.86,-3.597 10.87,-6.039 2.97,-2.48 5.21,-5.121 6.8,-7.8981 1.56,-2.8008 2.35,-5.4102 2.35,-7.8321 0,-2.4492 -0.86,-4.539 -2.69,-6.2578 -1.74,-1.7304 -3.86,-2.582 -6.37,-2.582 -1.65,0 -3.01,0.4805 -4.08,1.3594 -1.11,0.8398 -2.32,2.2304 -3.69,4.2422 -2.41,3.8203 -4.92,6.707 -7.56,8.6679 -2.63,1.8907 -5.97,2.8789 -10.05,2.8789 -5.81,0 -10.53,-2.4296 -14.1,-7.1796 -3.6,-4.7969 -5.38,-11.2969 -5.38,-19.5704 0,-3.8593 0.49,-7.4687 1.37,-10.707 0.93,-3.2617 2.27,-6.0195 4.01,-8.332 1.73,-2.2891 3.85,-4.0196 6.31,-5.1992 2.42,-1.211 5.14,-1.7891 8.11,-1.7891 3.95,0 7.36,0.9375 10.18,2.8594 2.82,1.9414 5.34,4.8711 7.51,8.75 1.21,2.3789 2.49,4.1679 3.91,5.5 1.39,1.3203 3.08,1.9492 5.15,1.9492 2.38,0 4.42,-0.9414 5.95,-2.8594 1.63,-1.9492 2.45,-3.9687 2.45,-6.1406"
         style="fill:#481937;fill-opacity:1;fill-rule:nonzero;stroke:none"
         transform="matrix(0.13333333,0,0,-0.13333333,0,631.25333)" />
      <path
         id="path18"
         d="m 2577.37,112.801 h 2.18 v 12.41 c 0,3.309 0.09,5.937 0.26,7.82 0.17,1.891 0.61,3.481 1.42,4.867 0.75,1.391 1.87,2.551 3.34,3.454 1.44,0.859 3.05,1.277 4.83,1.277 2.5,0 4.79,-0.969 6.8,-2.918 1.33,-1.332 2.21,-2.91 2.57,-4.789 0.37,-1.891 0.54,-4.613 0.54,-8.07 v -14.051 h 7.26 c 2.81,0 4.95,-0.699 6.42,-2.09 1.5,-1.379 2.22,-3.141 2.22,-5.32 0,-2.77 -1.05,-4.743 -3.18,-5.8324 -2.09,-1.0781 -5.1,-1.6484 -9.01,-1.6484 h -3.71 V 59.8906 c 0,-3.2304 0.11,-5.7187 0.32,-7.4804 0.25,-1.75 0.87,-3.1602 1.79,-4.2188 0.9,-1.082 2.45,-1.6523 4.59,-1.6523 1.15,0 2.71,0.2109 4.71,0.6601 1.94,0.4219 3.49,0.6289 4.62,0.6289 1.58,0 3.07,-0.6875 4.33,-1.957 1.25,-1.3828 1.9,-3 1.9,-4.9805 0,-3.3125 -1.7,-5.8593 -5.2,-7.6289 -3.52,-1.7734 -8.5,-2.6523 -14.99,-2.6523 -6.19,0 -10.89,1.1015 -14.08,3.2617 -3.17,2.168 -5.29,5.1484 -6.25,9.0273 -1.01,3.8321 -1.5,8.9414 -1.5,15.3399 v 39.6719 h -2.63 c -2.8,0 -4.98,0.6992 -6.49,2.1288 -1.5,1.402 -2.24,3.172 -2.24,5.352 0,2.179 0.77,3.941 2.33,5.32 1.59,1.391 3.86,2.09 6.85,2.09"
         style="fill:#481937;fill-opacity:1;fill-rule:nonzero;stroke:none"
         transform="matrix(0.13333333,0,0,-0.13333333,0,631.25333)" />
      <path
         id="path19"
         d="m 2682.98,72.5391 c 0,8.3906 -1.8,14.9609 -5.32,19.6523 -3.59,4.6602 -8.31,7.0274 -14.32,7.0274 -3.88,0 -7.28,-1.0586 -10.21,-3.1485 -2.96,-2.1211 -5.23,-5.1992 -6.81,-9.2812 -1.59,-4.0508 -2.4,-8.7774 -2.4,-14.25 0,-5.3985 0.81,-10.0977 2.37,-14.1172 1.56,-4.043 3.8,-7.1211 6.72,-9.2735 2.91,-2.1367 6.36,-3.1875 10.33,-3.1875 6.01,0 10.73,2.3399 14.32,7.0508 3.52,4.6875 5.32,11.2266 5.32,19.5274 z m 19.85,0 c 0,-6.1094 -0.91,-11.8008 -2.77,-17.0196 -1.82,-5.1484 -4.49,-9.6211 -7.95,-13.3593 -3.49,-3.7383 -7.65,-6.5391 -12.46,-8.5821 -4.85,-1.9883 -10.25,-2.9687 -16.31,-2.9687 -6.02,0 -11.41,0.9804 -16.17,3.0312 -4.77,2 -8.93,4.8907 -12.42,8.6485 -3.49,3.7695 -6.16,8.1718 -7.94,13.2929 -1.81,5.1485 -2.7,10.7696 -2.7,16.9961 0,6.25 0.89,11.961 2.7,17.1328 1.87,5.2188 4.47,9.6289 7.9,13.3401 3.45,3.668 7.59,6.5 12.46,8.48 4.93,2 10.3,3.008 16.17,3.008 6.01,0 11.41,-1.008 16.31,-3.039 4.87,-2 9.03,-4.898 12.52,-8.629 3.45,-3.7226 6.14,-8.1796 7.95,-13.3319 1.8,-5.1289 2.71,-10.8008 2.71,-17"
         style="fill:#481937;fill-opacity:1;fill-rule:nonzero;stroke:none"
         transform="matrix(0.13333333,0,0,-0.13333333,0,631.25333)" />
      <path
         id="path20"
         d="M 2738.07,60.3711 V 43.1797 c 0,-4.1914 -0.95,-7.3399 -2.84,-9.4492 -1.89,-2.0508 -4.27,-3.1211 -7.19,-3.1211 -2.82,0 -5.19,1.1015 -7,3.1719 -1.84,2.1171 -2.74,5.2382 -2.74,9.3984 v 57.4493 c 0,9.293 3.19,13.91 9.62,13.91 3.25,0 5.63,-1.098 7.11,-3.238 1.43,-2.172 2.19,-5.379 2.38,-9.602 2.36,4.223 4.81,7.43 7.3,9.602 2.49,2.14 5.79,3.238 9.92,3.238 4.19,0 8.2,-1.098 12.14,-3.238 3.88,-2.172 5.87,-5.063 5.87,-8.621 0,-2.52 -0.86,-4.6292 -2.52,-6.2386 -1.65,-1.6406 -3.46,-2.4922 -5.41,-2.4922 -0.72,0 -2.47,0.4805 -5.25,1.4414 -2.79,0.918 -5.24,1.3985 -7.38,1.3985 -2.87,0 -5.23,-0.7696 -7.05,-2.3985 -1.85,-1.6093 -3.28,-3.9297 -4.29,-7.0508 -1.01,-3.1601 -1.75,-6.8593 -2.11,-11.1992 -0.37,-4.2812 -0.56,-9.5195 -0.56,-15.7695"
         style="fill:#481937;fill-opacity:1;fill-rule:nonzero;stroke:none"
         transform="matrix(0.13333333,0,0,-0.13333333,0,631.25333)" />
      <path
         id="path21"
         d="m 2843.42,57.5898 c 0,-5.7187 -1.33,-10.5781 -4.02,-14.6406 -2.66,-4.0703 -6.58,-7.1094 -11.77,-9.2304 -5.22,-2.0391 -11.51,-3.1094 -18.99,-3.1094 -7.04,0 -13.16,1.1406 -18.25,3.4219 -5.07,2.2695 -8.82,5.0781 -11.21,8.4804 -2.44,3.3867 -3.68,6.8086 -3.68,10.2071 0,2.2695 0.79,4.2226 2.37,5.832 1.53,1.6406 3.51,2.418 5.84,2.418 2.09,0 3.7,-0.5391 4.81,-1.5704 1.11,-1.1171 2.14,-2.5664 3.19,-4.4882 2.02,-3.6914 4.43,-6.4297 7.3,-8.25 2.79,-1.8399 6.64,-2.7305 11.57,-2.7305 3.93,0 7.18,0.9219 9.73,2.7695 2.52,1.8321 3.83,3.9297 3.83,6.3125 0,3.6485 -1.34,6.3086 -3.94,7.9492 -2.68,1.6993 -6.99,3.2774 -13.03,4.7774 -6.81,1.7734 -12.37,3.6211 -16.64,5.5508 -4.28,1.9492 -7.74,4.5312 -10.28,7.6992 -2.55,3.1328 -3.85,7.0625 -3.85,11.7031 0,4.1602 1.19,8.0703 3.56,11.7186 2.35,3.692 5.89,6.621 10.49,8.82 4.61,2.211 10.17,3.309 16.72,3.309 5.1,0 9.7,-0.57 13.8,-1.668 4.07,-1.101 7.53,-2.609 10.21,-4.449 2.73,-1.883 4.83,-3.942 6.24,-6.192 1.45,-2.3003 2.15,-4.5191 2.15,-6.6597 0,-2.3906 -0.74,-4.2812 -2.29,-5.8594 -1.54,-1.4492 -3.72,-2.2226 -6.47,-2.2226 -2.06,0 -3.78,0.6015 -5.22,1.8437 -1.4,1.1875 -3.06,2.9766 -4.88,5.3789 -1.5,2.0196 -3.25,3.6485 -5.3,4.8477 -2.03,1.1914 -4.78,1.8204 -8.24,1.8204 -3.59,0 -6.58,-0.777 -8.91,-2.3985 -2.38,-1.5703 -3.57,-3.5586 -3.57,-5.9297 0,-2.1797 0.88,-3.9492 2.59,-5.3399 1.76,-1.3828 4.09,-2.5312 7.05,-3.4414 2.96,-0.9101 7.01,-2.039 12.18,-3.3398 6.15,-1.5586 11.15,-3.4102 15.04,-5.5899 3.89,-2.1484 6.83,-4.7187 8.83,-7.6601 2.04,-2.9805 3.04,-6.3399 3.04,-10.0899"
         style="fill:#481937;fill-opacity:1;fill-rule:nonzero;stroke:none"
         transform="matrix(0.13333333,0,0,-0.13333333,0,631.25333)" />
      <path
         id="path22"
         d="m 2865.88,30.6094 c -3,0 -5.59,0.9804 -7.74,3.0312 -2.2,2 -3.28,4.8477 -3.28,8.4414 0,3.0782 1.02,5.7188 3.08,7.9493 2.08,2.207 4.66,3.289 7.7,3.289 3.03,0 5.64,-1.082 7.74,-3.2812 2.18,-2.1602 3.26,-4.8477 3.26,-7.9571 0,-3.5625 -1.08,-6.3828 -3.26,-8.4101 -2.1,-2.043 -4.61,-3.0625 -7.5,-3.0625"
         style="fill:#481937;fill-opacity:1;fill-rule:nonzero;stroke:none"
         transform="matrix(0.13333333,0,0,-0.13333333,0,631.25333)" />
      <path
         id="path23"
         d="m 2953.34,72.5391 c 0,8.3906 -1.79,14.9609 -5.33,19.6523 -3.56,4.6602 -8.31,7.0274 -14.29,7.0274 -3.88,0 -7.25,-1.0586 -10.2,-3.1485 -2.96,-2.1211 -5.23,-5.1992 -6.81,-9.2812 -1.57,-4.0508 -2.38,-8.7774 -2.38,-14.25 0,-5.3985 0.76,-10.0977 2.32,-14.1172 1.61,-4.043 3.84,-7.1211 6.77,-9.2735 2.91,-2.1367 6.34,-3.1875 10.3,-3.1875 5.98,0 10.73,2.3399 14.29,7.0508 3.54,4.6875 5.33,11.2266 5.33,19.5274 z m 19.87,0 c 0,-6.1094 -0.91,-11.8008 -2.77,-17.0196 -1.85,-5.1484 -4.47,-9.6211 -7.96,-13.3593 -3.51,-3.7383 -7.61,-6.5391 -12.46,-8.5821 -4.81,-1.9883 -10.24,-2.9687 -16.3,-2.9687 -5.99,0 -11.37,0.9804 -16.15,3.0312 -4.79,2 -8.91,4.8907 -12.4,8.6485 -3.56,3.7695 -6.2,8.1718 -8.03,13.2929 -1.77,5.1485 -2.68,10.7696 -2.68,16.9961 0,6.25 0.91,11.961 2.76,17.1328 1.86,5.2188 4.45,9.6289 7.87,13.3401 3.43,3.668 7.59,6.5 12.48,8.48 4.87,2 10.22,3.008 16.15,3.008 5.98,0 11.42,-1.008 16.3,-3.039 4.9,-2 9.06,-4.898 12.55,-8.629 3.46,-3.7226 6.09,-8.1796 7.93,-13.3319 1.8,-5.1289 2.71,-10.8008 2.71,-17"
         style="fill:#481937;fill-opacity:1;fill-rule:nonzero;stroke:none"
         transform="matrix(0.13333333,0,0,-0.13333333,0,631.25333)" />
      <path
         id="path24"
         d="M 3008.44,60.3711 V 43.1797 c 0,-4.1914 -0.94,-7.3399 -2.82,-9.4492 -1.86,-2.0508 -4.28,-3.1211 -7.15,-3.1211 -2.89,0 -5.21,1.1015 -7.05,3.1719 -1.86,2.1171 -2.77,5.2382 -2.77,9.3984 v 57.4493 c 0,9.293 3.25,13.91 9.65,13.91 3.29,0 5.64,-1.098 7.08,-3.238 1.43,-2.172 2.28,-5.379 2.44,-9.602 2.33,4.223 4.75,7.43 7.24,9.602 2.49,2.14 5.82,3.238 9.94,3.238 4.22,0 8.25,-1.098 12.12,-3.238 3.92,-2.172 5.89,-5.063 5.89,-8.621 0,-2.52 -0.84,-4.6292 -2.49,-6.2386 -1.69,-1.6406 -3.46,-2.4922 -5.43,-2.4922 -0.71,0 -2.44,0.4805 -5.22,1.4414 -2.79,0.918 -5.24,1.3985 -7.39,1.3985 -2.88,0 -5.22,-0.7696 -7.11,-2.3985 -1.81,-1.6093 -3.24,-3.9297 -4.27,-7.0508 -0.98,-3.1601 -1.7,-6.8593 -2.07,-11.1992 -0.39,-4.2812 -0.59,-9.5195 -0.59,-15.7695"
         style="fill:#481937;fill-opacity:1;fill-rule:nonzero;stroke:none"
         transform="matrix(0.13333333,0,0,-0.13333333,0,631.25333)" />
      <path
         id="path25"
         d="m 3065.55,73.25 c 0,-8.3516 1.75,-14.6914 5.27,-18.9883 3.48,-4.2617 8.04,-6.4336 13.56,-6.4336 3.26,0 6.4,0.961 9.31,2.793 2.93,1.8477 5.3,4.6094 7.15,8.3203 1.86,3.7188 2.74,8.1992 2.74,13.4805 0,8.4179 -1.78,14.957 -5.33,19.6367 -3.53,4.7305 -8.21,7.0898 -14,7.0898 -5.64,0 -10.18,-2.2968 -13.57,-6.7578 -3.42,-4.5 -5.13,-10.8711 -5.13,-19.1406 z m 57.33,26.1797 V 39.4414 c 0,-6.8711 -0.75,-12.7617 -2.12,-17.6719 -1.4,-4.9687 -3.65,-9.0586 -6.74,-12.28122 -3.08,-3.20703 -7.15,-5.59765 -12.12,-7.16797 C 3096.89,0.789063 3090.66,0 3083.24,0 c -6.82,0 -12.93,0.960938 -18.26,2.94922 -5.37,2.03906 -9.51,4.58203 -12.4,7.74998 -2.89,3.1211 -4.36,6.3711 -4.36,9.7227 0,2.5195 0.8,4.5586 2.49,6.1367 1.62,1.6328 3.61,2.4102 5.92,2.4102 2.91,0 5.41,-1.3399 7.63,-4 1.06,-1.4102 2.18,-2.7579 3.28,-4.129 1.13,-1.3984 2.39,-2.6093 3.76,-3.5585 1.39,-1.0196 3.07,-1.7305 4.99,-2.2227 1.89,-0.4766 4.15,-0.7188 6.67,-0.7188 5.08,0 9.1,0.7618 11.9,2.2305 2.84,1.4883 4.82,3.5703 5.97,6.2305 1.08,2.6797 1.81,5.5195 1.92,8.5781 0.24,3.1016 0.38,7.9609 0.51,14.7422 -3.05,-4.4219 -6.61,-7.8125 -10.55,-10.1211 -3.99,-2.3281 -8.75,-3.4609 -14.21,-3.4609 -6.68,0 -12.46,1.7304 -17.39,5.2812 -4.97,3.5313 -8.78,8.4492 -11.42,14.8281 -2.63,6.3204 -3.99,13.6602 -3.99,21.9922 0,6.2305 0.79,11.8282 2.44,16.8203 1.59,4.9805 3.88,9.1871 6.93,12.6171 2.96,3.434 6.43,6.024 10.34,7.774 3.94,1.707 8.18,2.597 12.91,2.597 5.58,0 10.43,-1.14 14.53,-3.398 4.16,-2.199 7.93,-5.77 11.47,-10.531 v 2.769 c 0,3.602 0.88,6.352 2.54,8.383 1.68,1.93 3.86,2.93 6.51,2.93 3.83,0 6.36,-1.293 7.63,-3.891 1.24,-2.602 1.88,-6.371 1.88,-11.2813"
         style="fill:#481937;fill-opacity:1;fill-rule:nonzero;stroke:none"
         transform="matrix(0.13333333,0,0,-0.13333333,0,631.25333)" />
      <path
         id="path26"
         d="m 2265.62,300.43 h 29.33 c -2.07,-15.809 -8.55,-28.149 -19.33,-37.039 -9.98,-8.7 -22.06,-13 -36.17,-13 -19.16,0 -34.45,6.738 -45.87,20.168 -10.82,12.773 -16.22,29.269 -16.22,49.421 0,20.649 5.36,37.161 16.07,49.668 10.69,12.442 25.82,18.704 45.37,18.704 14.54,0 26.84,-3.942 36.82,-11.743 10.58,-8.437 17.05,-20.289 19.33,-35.468 h -29.33 c -2.54,13.238 -10.62,19.828 -24.38,19.828 -22.68,0 -34.03,-13.43 -34.03,-40.309 0,-12.59 2.92,-22.871 8.75,-30.879 5.83,-8.043 14.05,-12.07 24.66,-12.07 15.81,0 24.15,7.59 25,22.719 z m -115.49,18.511 c 0,-26.25 8.33,-48.48 24.95,-66.589 16.65,-18.102 37.02,-27.161 61.2,-27.161 24.07,0 44.46,9.059 61.08,27.161 16.67,18.109 24.94,40.339 24.94,66.589 0,26.25 -8.27,48.45 -24.94,66.571 -16.62,18.136 -37.01,27.179 -61.08,27.179 -24.18,0 -44.55,-9.043 -61.2,-27.179 -16.62,-18.121 -24.95,-40.321 -24.95,-66.571 z m -29.81,0 c 0,33.411 11.31,61.93 33.94,85.618 22.65,23.652 50,35.48 82.02,35.48 31.94,0 59.25,-11.828 81.92,-35.48 22.65,-23.688 33.99,-52.207 33.99,-85.618 0,-33.429 -11.34,-61.992 -33.99,-85.632 -22.67,-23.668 -49.98,-35.508 -81.92,-35.508 -32.02,0 -59.37,11.84 -82.02,35.508 -22.63,23.64 -33.94,52.203 -33.94,85.632"
         style="fill:#481937;fill-opacity:1;fill-rule:nonzero;stroke:none"
         transform="matrix(0.13333333,0,0,-0.13333333,0,631.25333)" />
      <path
         id="path27"
         d="m 2167.24,243 16.91,-14.352 124.34,159.672 -16.91,14.328 L 2167.24,243"
         style="fill:#481937;fill-opacity:1;fill-rule:nonzero;stroke:none"
         transform="matrix(0.13333333,0,0,-0.13333333,0,631.25333)" />
      <path
         id="path28"
         d="M 0,1291.19 H 4574.74 V 4734.36 H 0 V 1291.19"
         style="fill:#bc4c1f;fill-opacity:1;fill-rule:evenodd;stroke:none"
         transform="matrix(0.13333333,0,0,-0.13333333,0,631.25333)" />
      <path
         id="path29"
         d="m 3562.77,3760.49 621.73,160.04 32.83,-72.39 c 80.47,-177.42 109.46,-439.95 251.36,-593.79 L 3868.07,2996.6 c -206.18,211.64 -277.05,492.43 -305.3,763.89"
         style="fill:#92361d;fill-opacity:1;fill-rule:evenodd;stroke:none"
         transform="matrix(0.13333333,0,0,-0.13333333,0,631.25333)" />
      <path
         id="path30"
         d="M 3133.82,1291.19 H 1864.77 c -9.94,62.2 -7.43,125.63 6.07,187.27 l -10.65,45.7 c -12.72,50.04 -14.8,101.69 -7.5,152.35 l -47.23,166.82 -226.69,37.81 c -173.78,28.97 -295.97,169.17 -302.11,346.66 -3.59,104.07 -18.59,206.18 -44.72,304.57 -11.86,44.73 -1.98,94.7 26.89,135.9 28.87,41.2 73.62,69.22 121.7,76.16 l -129.87,163.05 c -86.68,108.82 -145.5,238.34 -172.16,379.13 l 735.03,530.82 49.51,-86.53 c 121.34,-212.06 282.23,-396.7 475.19,-545.32 l -142.09,-147.99 c 33.1,-12 65.92,-24.58 98.48,-37.76 190.09,-76.88 283.8,-283.23 223.98,-493.21 -40.14,-140.94 -57.5,-284.89 -51.38,-426.21 l 53.71,-80.01 c 30.46,-22.17 57.53,-49.47 79.97,-81.73 l 15.5,-21.38 c 74.53,-31.57 139.8,-82.8 188.04,-152.16 l 329.38,-453.94"
         style="fill:#92361d;fill-opacity:1;fill-rule:evenodd;stroke:none"
         transform="matrix(0.13333333,0,0,-0.13333333,0,631.25333)" />
      <path
         id="path31"
         d="M 185.902,1477.09 H 4388.84 V 4548.46 H 185.902 V 1477.09"
         style="fill:#481937;fill-opacity:1;fill-rule:evenodd;stroke:none"
         transform="matrix(0.13333333,0,0,-0.13333333,0,631.25333)" />
      <path
         id="path32"
         d="m 956.344,2572.47 -637.125,-78.94 -4.028,-79.39 c -9.855,-194.57 53.457,-430.44 -22.199,-625.61 l 653.301,-19.7 c 114.267,272.47 83.247,540.7 10.051,803.64"
         style="fill:#100f0d;fill-opacity:1;fill-rule:evenodd;stroke:none"
         transform="matrix(0.13333333,0,0,-0.13333333,0,631.25333)" />
      <path
         id="path33"
         d="M 2998.93,1477.09 H 1870.55 l 0.29,1.37 -10.65,45.7 c -12.72,50.04 -14.8,101.69 -7.5,152.35 l -47.23,166.82 -226.69,37.81 c -173.78,28.97 -295.97,169.17 -302.11,346.66 -3.59,104.07 -18.59,206.18 -44.72,304.57 -11.86,44.73 -1.98,94.7 26.89,135.9 28.87,41.2 73.62,69.22 121.7,76.16 l -129.87,163.05 c -86.68,108.82 -145.5,238.34 -172.16,379.13 l 735.03,530.82 49.51,-86.53 c 121.34,-212.06 282.23,-396.7 475.19,-545.32 l -142.09,-147.99 c 33.1,-12 65.92,-24.58 98.48,-37.76 190.09,-76.88 283.8,-283.23 223.98,-493.21 -40.14,-140.94 -57.5,-284.89 -51.38,-426.21 l 53.71,-80.01 c 30.46,-22.17 57.53,-49.47 79.97,-81.73 l 15.5,-21.38 c 74.53,-31.57 139.8,-82.8 188.04,-152.16 l 194.49,-268.04"
         style="fill:#100f0d;fill-opacity:1;fill-rule:evenodd;stroke:none"
         transform="matrix(0.13333333,0,0,-0.13333333,0,631.25333)" />
      <path
         id="path34"
         d="m 2642.77,2572.47 600.08,-74.36 3.79,-74.77 c 9.28,-183.25 50.52,-371.14 121.77,-554.95 l -615.31,-18.56 c -107.61,256.61 -179.26,474.99 -110.33,722.64"
         style="fill:#c0e365;fill-opacity:1;fill-rule:evenodd;stroke:none"
         transform="matrix(0.13333333,0,0,-0.13333333,0,631.25333)" />
      <path
         id="path35"
         d="m 1103.28,1638.74 v 2748.07 h 56.57 V 1638.74 h -56.57"
         style="fill:#d4c1d0;fill-opacity:1;fill-rule:evenodd;stroke:none"
         transform="matrix(0.13333333,0,0,-0.13333333,0,631.25333)" />
      <path
         id="path36"
         d="m 2259.08,1638.74 c 0,916.03 0,1832.05 0,2748.07 18.86,0 37.72,0 56.57,0 0,-916.02 0,-1832.04 0,-2748.07 -18.85,0 -37.71,0 -56.57,0"
         style="fill:#d4c1d0;fill-opacity:1;fill-rule:evenodd;stroke:none"
         transform="matrix(0.13333333,0,0,-0.13333333,0,631.25333)" />
      <path
         id="path37"
         d="m 3414.89,1638.74 v 2748.07 h 56.57 V 1638.74 h -56.57"
         style="fill:#d4c1d0;fill-opacity:1;fill-rule:evenodd;stroke:none"
         transform="matrix(0.13333333,0,0,-0.13333333,0,631.25333)" />
      <path
         id="path38"
         d="m 1363.26,2930.77 -148.21,163.04 c -98.9,108.82 -172.29,238.34 -214.78,379.13 l 675.36,530.81 59.24,-86.53 c 145.18,-212.06 326.83,-396.69 536.5,-545.31 l -490.19,-578.3 -417.92,137.16"
         style="fill:#9adcc6;fill-opacity:1;fill-rule:evenodd;stroke:none"
         transform="matrix(0.13333333,0,0,-0.13333333,0,631.25333)" />
      <path
         id="path39"
         d="m 2114.04,1461.86 -224.57,567.8 -230.94,37.81 c -177.03,28.97 -314.98,169.17 -341.07,346.67 -15.29,104.06 -41.77,206.18 -78.96,304.57 -16.89,44.71 -12.63,94.68 11.61,135.89 24.25,41.2 65.85,69.22 113.15,76.17 l -21.45,137.76 c -12.52,80.35 14.44,161.8 72.41,218.83 57.97,57.02 139.84,82.64 219.98,68.83 209.94,-36.21 415.75,-93.16 614.43,-170.03 198.72,-76.88 315.64,-283.23 279.44,-493.22 -24.32,-140.92 -25.49,-284.88 -3.48,-426.19 l 424.28,-541.45 -834.83,-263.44"
         style="fill:#f28f61;fill-opacity:1;fill-rule:evenodd;stroke:none"
         transform="matrix(0.13333333,0,0,-0.13333333,0,631.25333)" />
      <path
         id="path40"
         d="m 1980.08,1710.49 c -68.31,186.32 8.21,394.7 180.89,492.53 172.67,97.84 390.77,56.35 515.47,-98.03 l 583.69,-696.5 -904.09,-785.592 -375.96,1087.592"
         style="fill:#f7e6e2;fill-opacity:1;fill-rule:evenodd;stroke:none"
         transform="matrix(0.13333333,0,0,-0.13333333,0,631.25333)" />
      <path
         id="path41"
         d="m 2024.22,1435.59 c -85.87,234.19 10.33,496.13 227.36,619.09 217.03,122.95 491.16,70.83 647.92,-123.23 L 4037.93,550.109 H 2330.31 l -306.09,885.481"
         style="fill:#100f0d;fill-opacity:1;fill-rule:evenodd;stroke:none"
         transform="matrix(0.13333333,0,0,-0.13333333,0,631.25333)" />
      <path
         id="path42"
         d="m 3562.77,3760.49 621.73,160.04 32.83,-72.39 c 62.54,-137.88 94,-327.15 171.51,-476.88 V 3220.07 L 3868.07,2996.6 c -206.18,211.64 -277.05,492.43 -305.3,763.89"
         style="fill:#100f0d;fill-opacity:1;fill-rule:evenodd;stroke:none"
         transform="matrix(0.13333333,0,0,-0.13333333,0,631.25333)" />
      <path
         id="path43"
         d="M 349.574,4120.08 H 4225.17 v 56.58 H 349.574 v -56.58"
         style="fill:#d4c1d0;fill-opacity:1;fill-rule:evenodd;stroke:none"
         transform="matrix(0.13333333,0,0,-0.13333333,0,631.25333)" />
      <path
         id="path44"
         d="m 3562.77,3760.49 621.73,160.04 32.83,-72.39 c 80.47,-177.42 194.32,-346.99 336.24,-500.85 l -600.64,-257.75 c -206.15,211.64 -361.91,399.49 -390.16,670.95"
         style="fill:#fab99c;fill-opacity:1;fill-rule:evenodd;stroke:none"
         transform="matrix(0.13333333,0,0,-0.13333333,0,631.25333)" />
      <path
         id="path45"
         d="m 956.344,2572.47 -637.125,-78.94 -4.028,-79.39 c -9.855,-194.57 -53.632,-394.07 -129.289,-589.23 l 653.309,-19.71 c 114.266,272.48 190.329,504.33 117.133,767.27"
         style="fill:#f9de1b;fill-opacity:1;fill-rule:evenodd;stroke:none"
         transform="matrix(0.13333333,0,0,-0.13333333,0,631.25333)" />
    </g>
  </g>
</svg>
