<?xml version="1.0" encoding="UTF-8" standalone="no"?>
<!-- Created with Inkscape (http://www.inkscape.org/) -->

<svg
   version="1.1"
   id="svg1"
   width="625.18665"
   height="793.25336"
   viewBox="0 0 625.18665 793.25336"
   sodipodi:docname="scrum-board.svg"
   inkscape:version="1.3.2 (091e20ef0f, 2023-11-25, custom)"
   xmlns:inkscape="http://www.inkscape.org/namespaces/inkscape"
   xmlns:sodipodi="http://sodipodi.sourceforge.net/DTD/sodipodi-0.dtd"
   xmlns="http://www.w3.org/2000/svg"
   xmlns:svg="http://www.w3.org/2000/svg">
  <defs
     id="defs1" />
  <sodipodi:namedview
     id="namedview1"
     pagecolor="#505050"
     bordercolor="#ffffff"
     borderopacity="1"
     inkscape:showpageshadow="0"
     inkscape:pageopacity="0"
     inkscape:pagecheckerboard="1"
     inkscape:deskcolor="#d1d1d1"
     inkscape:zoom="0.97572862"
     inkscape:cx="313.09935"
     inkscape:cy="396.62668"
     inkscape:window-width="1920"
     inkscape:window-height="1002"
     inkscape:window-x="0"
     inkscape:window-y="0"
     inkscape:window-maximized="1"
     inkscape:current-layer="g1">
    <inkscape:page
       x="0"
       y="0"
       inkscape:label="1"
       id="page1"
       width="625.18665"
       height="793.25336"
       margin="0"
       bleed="0" />
  </sodipodi:namedview>
  <g
     id="g1"
     inkscape:groupmode="layer"
     inkscape:label="1">
    <g
       id="group-R5">
      <path
         id="path2"
         d="m 1045.97,100.258 c 0,7.523 -1.08,14 -3.31,19.312 -2.16,5.379 -5.19,9.532 -9.1,12.461 -3.89,2.84 -8.18,4.297 -12.92,4.297 -7.49,0 -13.83,-3.16 -18.98,-9.289 -5.16,-6.199 -7.738,-15.258 -7.738,-27.2577 0,-11.3204 2.578,-20.1133 7.658,-26.3125 5.15,-6.3086 11.52,-9.4688 19.06,-9.4688 4.51,0 8.74,1.3711 12.6,4.1484 3.8,2.7422 6.9,6.8399 9.24,12.2735 2.34,5.5195 3.49,12.0976 3.49,19.8361 z m -53.314,41.383 v -3.422 c 5.11,6.539 10.394,11.441 15.904,14.48 5.53,3.11 11.82,4.672 18.8,4.672 8.35,0 16.06,-2.273 23.1,-6.781 7.03,-4.512 12.59,-11.059 16.7,-19.762 4.08,-8.68 6.09,-18.918 6.09,-30.777 0,-8.7229 -1.14,-16.8401 -3.5,-24.051 -2.35,-7.3203 -5.6,-13.5 -9.71,-18.4414 -4.12,-4.9609 -9.02,-8.7891 -14.6,-11.4297 -5.64,-2.7187 -11.69,-4.0195 -18.08,-4.0195 -7.81,0 -14.34,1.6211 -19.62,4.8789 -5.33,3.25 -10.33,8.0117 -15.084,14.3203 V 18.7188 C 992.656,6.21875 988.297,0 979.594,0 c -5.114,0 -8.524,1.58984 -10.137,4.78906 -1.68,3.24219 -2.5,7.94924 -2.5,14.10154 V 141.449 c 0,5.403 1.09,9.449 3.375,12.11 2.297,2.652 5.371,4.011 9.262,4.011 3.859,0 7,-1.359 9.414,-4.14 2.418,-2.75 3.648,-6.7 3.648,-11.789"
         style="fill:#100f0d;fill-opacity:1;fill-rule:nonzero;stroke:none"
         transform="matrix(0.13333333,0,0,-0.13333333,0,793.25333)" />
      <path
         id="path3"
         d="m 1165.79,58.1602 v 3.5781 c -3.27,-4.2774 -6.68,-7.8672 -10.28,-10.7695 -3.59,-2.961 -7.51,-5.0977 -11.74,-6.5 -4.29,-1.418 -9.13,-2.1407 -14.58,-2.1407 -6.54,0 -12.44,1.4414 -17.67,4.25 -5.22,2.8321 -9.27,6.7735 -12.08,11.75 -3.44,6.0313 -5.09,14.7032 -5.09,25.961 v 56.2699 c 0,5.652 1.22,9.921 3.69,12.722 2.46,2.797 5.7,4.219 9.73,4.219 4.14,0 7.44,-1.422 9.98,-4.289 2.53,-2.852 3.77,-7.082 3.77,-12.652 V 95.0781 c 0,-6.5273 0.53,-12.0781 1.56,-16.5078 1.11,-4.4922 3.02,-7.9922 5.8,-10.5625 2.7,-2.4883 6.46,-3.7578 11.17,-3.7578 4.63,0 8.93,1.4414 12.96,4.2695 4.08,2.8086 7.05,6.5196 8.89,11.1016 1.53,4.0195 2.28,12.8203 2.28,26.3989 v 34.539 c 0,5.57 1.26,9.8 3.81,12.652 2.5,2.867 5.75,4.289 9.83,4.289 4.06,0 7.31,-1.422 9.77,-4.219 2.42,-2.801 3.64,-7.07 3.64,-12.722 V 58.3281 c 0,-5.3984 -1.13,-9.4804 -3.5,-12.1484 -2.33,-2.7383 -5.37,-4.0508 -9.1,-4.0508 -3.71,0 -6.76,1.4297 -9.21,4.1719 -2.42,2.8476 -3.63,6.7305 -3.63,11.8594"
         style="fill:#100f0d;fill-opacity:1;fill-rule:nonzero;stroke:none"
         transform="matrix(0.13333333,0,0,-0.13333333,0,793.25333)" />
      <path
         id="path4"
         d="m 1244.69,99.1406 c 0,-11.289 2.46,-19.9297 7.39,-26.0312 4.97,-6.0313 11.46,-9.1094 19.52,-9.1094 6.85,0 12.7,3.1289 17.69,9.3203 4.97,6.2188 7.45,15.0586 7.45,26.6485 0,7.5702 -1.04,13.9722 -3.11,19.3592 -2.08,5.442 -5.02,9.621 -8.76,12.543 -3.84,2.938 -8.2,4.457 -13.27,4.457 -5.23,0 -9.77,-1.519 -13.86,-4.457 -4.08,-2.922 -7.24,-7.211 -9.58,-12.801 -2.33,-5.539 -3.47,-12.16 -3.47,-19.9294 z m -1.29,84.3794 v -43.391 c 5.05,5.601 10.3,9.801 15.6,12.82 5.33,2.93 11.93,4.422 19.75,4.422 9.04,0 16.95,-2.273 23.76,-6.691 6.8,-4.551 12.11,-10.989 15.84,-19.481 3.79,-8.48 5.64,-18.558 5.64,-30.199 0,-8.6094 -1.03,-16.4805 -3.1,-23.7109 -2.11,-7.1407 -5.11,-13.3282 -9.12,-18.6602 -4.02,-5.2305 -8.86,-9.2695 -14.51,-12.25 -5.71,-2.8203 -11.97,-4.2695 -18.8,-4.2695 -4.15,0 -8.12,0.5195 -11.83,1.539 -3.68,1.0508 -6.84,2.4102 -9.37,4.1602 -2.63,1.6016 -4.84,3.4219 -6.67,5.1719 -1.82,1.8398 -4.21,4.5195 -7.19,8.1211 v -2.7735 c 0,-5.3593 -1.26,-9.3984 -3.72,-12.1484 -2.42,-2.7383 -5.6,-4.0703 -9.34,-4.0703 -3.88,0 -6.93,1.332 -9.26,4.0703 -2.26,2.8086 -3.4,6.8008 -3.4,12.1484 V 182.289 c 0,5.711 1.1,10.07 3.36,13.012 2.21,2.961 5.28,4.418 9.3,4.418 4.16,0 7.39,-1.391 9.63,-4.231 2.28,-2.777 3.43,-6.75 3.43,-11.968"
         style="fill:#100f0d;fill-opacity:1;fill-rule:nonzero;stroke:none"
         transform="matrix(0.13333333,0,0,-0.13333333,0,793.25333)" />
      <path
         id="path5"
         d="M 1343.19,59.3789 V 182.469 c 0,5.711 1.21,9.98 3.6,12.91 2.47,2.883 5.72,4.34 9.85,4.34 4.12,0 7.42,-1.41 9.96,-4.297 2.48,-2.863 3.8,-7.223 3.8,-12.953 V 59.3789 c 0,-5.7578 -1.32,-10.0976 -3.87,-13 -2.54,-2.8203 -5.85,-4.2695 -9.89,-4.2695 -3.99,0 -7.19,1.4922 -9.7,4.4687 -2.5,2.9922 -3.75,7.2305 -3.75,12.8008"
         style="fill:#100f0d;fill-opacity:1;fill-rule:nonzero;stroke:none"
         transform="matrix(0.13333333,0,0,-0.13333333,0,793.25333)" />
      <path
         id="path6"
         d="M 1425.66,141.371 V 59.3789 c 0,-5.7187 -1.32,-10.0195 -3.85,-12.9297 -2.62,-2.8476 -5.92,-4.3398 -9.87,-4.3398 -4,0 -7.25,1.4922 -9.72,4.4414 -2.47,3.0195 -3.76,7.2578 -3.76,12.8281 v 81.1801 c 0,5.57 1.29,9.8 3.76,12.652 2.47,2.867 5.72,4.289 9.72,4.289 3.95,0 7.25,-1.422 9.87,-4.289 2.53,-2.852 3.85,-6.781 3.85,-11.84 z m -13.45,29.348 c -3.79,0 -7,1.211 -9.75,3.699 -2.62,2.41 -4,5.871 -4,10.32 0,4 1.38,7.282 4.15,9.922 2.76,2.61 5.95,3.828 9.6,3.828 3.52,0 6.66,-1.136 9.37,-3.476 2.71,-2.364 4.08,-5.821 4.08,-10.274 0,-4.41 -1.33,-7.82 -3.99,-10.238 -2.67,-2.461 -5.78,-3.781 -9.46,-3.781"
         style="fill:#100f0d;fill-opacity:1;fill-rule:nonzero;stroke:none"
         transform="matrix(0.13333333,0,0,-0.13333333,0,793.25333)" />
      <path
         id="path7"
         d="m 1551.19,77.25 c 0,-3.5117 -1,-7.3086 -3.02,-11.3398 -2.05,-4.0118 -5.13,-7.8204 -9.3,-11.4688 -4.12,-3.6211 -9.36,-6.5508 -15.67,-8.75 -6.31,-2.2812 -13.43,-3.3633 -21.31,-3.3633 -16.82,0 -29.93,5.1328 -39.37,15.3321 -9.41,10.2304 -14.14,23.8984 -14.14,41.1093 0,11.6405 2.15,21.9605 6.45,30.8785 4.31,8.883 10.61,15.852 18.74,20.711 8.15,4.922 17.95,7.36 29.27,7.36 7.07,0 13.54,-1.098 19.42,-3.219 5.87,-2.172 10.85,-4.949 14.93,-8.309 4.08,-3.41 7.2,-7.043 9.37,-10.863 2.18,-3.84 3.23,-7.437 3.23,-10.769 0,-3.348 -1.24,-6.231 -3.63,-8.61 -2.44,-2.379 -5.34,-3.539 -8.81,-3.539 -2.28,0 -4.13,0.649 -5.66,1.86 -1.45,1.179 -3.15,3.082 -5.02,5.839 -3.31,5.25 -6.8,9.231 -10.41,11.922 -3.63,2.61 -8.23,3.949 -13.76,3.949 -8.09,0 -14.56,-3.332 -19.46,-9.871 -4.93,-6.578 -7.36,-15.539 -7.36,-26.8981 0,-5.3125 0.63,-10.2812 1.91,-14.7109 1.25,-4.4883 3.07,-8.2891 5.45,-11.4687 2.4,-3.1524 5.26,-5.5196 8.66,-7.1524 3.39,-1.6601 7.12,-2.4609 11.14,-2.4609 5.49,0 10.13,1.2929 14.02,3.9336 3.9,2.6679 7.33,6.6875 10.31,12.0273 1.67,3.2695 3.46,5.7422 5.39,7.5703 1.95,1.8125 4.31,2.6719 7.09,2.6719 3.31,0 6.07,-1.2813 8.28,-3.9219 2.15,-2.6992 3.26,-5.4687 3.26,-8.4492"
         style="fill:#100f0d;fill-opacity:1;fill-rule:nonzero;stroke:none"
         transform="matrix(0.13333333,0,0,-0.13333333,0,793.25333)" />
      <path
         id="path8"
         d="m 1595.99,99.9688 c 0,-7.6993 1.14,-14.1993 3.42,-19.6407 2.31,-5.4179 5.4,-9.4375 9.39,-12.1797 4.01,-2.7773 8.37,-4.1484 13.04,-4.1484 4.8,0 9.16,1.3281 13.1,3.8906 3.98,2.6094 7.09,6.6289 9.48,11.9883 2.37,5.3516 3.53,12.082 3.53,20.0899 0,7.6012 -1.16,14.0622 -3.53,19.5312 -2.39,5.449 -5.55,9.602 -9.56,12.531 -4.03,2.84 -8.4,4.297 -13.19,4.297 -4.96,0 -9.4,-1.519 -13.34,-4.457 -3.89,-2.922 -6.97,-7.203 -9.12,-12.699 -2.13,-5.531 -3.22,-11.871 -3.22,-19.2032 z m 53.46,-41.6407 v 2.7735 c -3.66,-4.3711 -7.26,-7.9102 -10.86,-10.6133 -3.49,-2.7695 -7.36,-4.8399 -11.51,-6.2578 -4.14,-1.3907 -8.68,-2.1211 -13.58,-2.1211 -6.5,0 -12.57,1.4492 -18.09,4.2695 -5.53,2.9805 -10.32,7.0313 -14.38,12.3711 -4.04,5.3398 -7.11,11.6094 -9.22,18.8398 -2.12,7.1797 -3.14,14.9805 -3.14,23.4102 0,17.699 4.16,31.59 12.46,41.512 8.32,9.906 19.23,14.859 32.76,14.859 7.83,0 14.45,-1.43 19.82,-4.293 5.37,-2.758 10.63,-7.078 15.74,-12.949 v 41.922 c 0,5.84 1.1,10.23 3.34,13.199 2.21,3 5.35,4.469 9.49,4.469 4.11,0 7.28,-1.367 9.53,-4.078 2.21,-2.719 3.36,-6.782 3.36,-12.121 V 58.3281 c 0,-5.3984 -1.21,-9.4804 -3.61,-12.1484 -2.4,-2.7383 -5.46,-4.0703 -9.28,-4.0703 -3.68,0 -6.79,1.3906 -9.22,4.1914 -2.41,2.8008 -3.61,6.7695 -3.61,12.0273"
         style="fill:#100f0d;fill-opacity:1;fill-rule:nonzero;stroke:none"
         transform="matrix(0.13333333,0,0,-0.13333333,0,793.25333)" />
      <path
         id="path9"
         d="m 1776.98,99.7383 c 0,11.5427 -2.48,20.5817 -7.34,27.0197 -4.88,6.41 -11.46,9.66 -19.68,9.66 -5.35,0 -10,-1.438 -14.06,-4.309 -4.04,-2.918 -7.15,-7.16 -9.35,-12.781 -2.18,-5.547 -3.3,-12.07 -3.3,-19.5897 0,-7.4297 1.12,-13.8789 3.24,-19.4102 2.15,-5.5468 5.25,-9.7968 9.3,-12.75 4,-2.9297 8.76,-4.3789 14.17,-4.3789 8.22,0 14.8,3.211 19.68,9.6914 4.86,6.4492 7.34,15.4492 7.34,26.8477 z m 27.28,0 c 0,-8.4102 -1.28,-16.207 -3.79,-23.3985 -2.52,-7.082 -6.17,-13.2304 -10.92,-18.371 -4.82,-5.1407 -10.53,-8.9805 -17.16,-11.7891 -6.64,-2.7383 -14.17,-4.0703 -22.43,-4.0703 -8.22,0 -15.64,1.332 -22.19,4.1523 -6.58,2.7578 -12.31,6.7188 -17.13,11.8985 -4.79,5.1796 -8.42,11.2304 -10.95,18.2578 -2.48,7.082 -3.72,14.8203 -3.72,23.3711 0,8.6019 1.28,16.4609 3.77,23.5699 2.53,7.172 6.12,13.231 10.86,18.332 4.72,5.039 10.42,8.938 17.17,11.68 6.72,2.738 14.08,4.129 22.19,4.129 8.25,0 15.72,-1.391 22.43,-4.172 6.68,-2.769 12.43,-6.758 17.2,-11.879 4.82,-5.121 8.44,-11.258 10.88,-18.328 2.55,-7.051 3.79,-14.851 3.79,-23.3827"
         style="fill:#100f0d;fill-opacity:1;fill-rule:nonzero;stroke:none"
         transform="matrix(0.13333333,0,0,-0.13333333,0,793.25333)" />
      <path
         id="path10"
         d="m 1919.12,123.191 c -2.04,-4.793 -3.01,-13.261 -3.01,-25.4605 v -37.711 c 0,-5.9414 -1.27,-10.4492 -3.89,-13.4414 -2.58,-2.9765 -6.04,-4.4687 -10.29,-4.4687 -4.08,0 -7.41,1.4922 -9.95,4.4687 -2.56,2.9922 -3.81,7.5 -3.81,13.4414 v 45.2695 c 0,7.121 -0.27,12.652 -0.74,16.652 -0.47,3.911 -1.72,7.168 -3.78,9.707 -2.02,2.551 -5.3,3.813 -9.72,3.813 -8.9,0 -14.75,-3.203 -17.6,-9.609 -2.84,-6.352 -4.19,-15.512 -4.19,-27.4536 V 60.0195 c 0,-5.9297 -1.31,-10.3906 -3.83,-13.3398 -2.59,-3.0781 -5.96,-4.5703 -10.09,-4.5703 -4.15,0 -7.56,1.4922 -10.16,4.5703 -2.65,2.9492 -3.89,7.4101 -3.89,13.332 v 81.2073 c 0,5.351 1.12,9.41 3.45,12.179 2.39,2.75 5.5,4.172 9.38,4.172 3.71,0 6.82,-1.281 9.29,-3.89 2.48,-2.59 3.73,-6.16 3.73,-10.75 v -2.7 c 4.7,5.899 9.77,10.25 15.12,12.981 5.37,2.769 11.42,4.16 17.94,4.16 6.82,0 12.68,-1.43 17.59,-4.293 4.94,-2.808 8.97,-7.117 12.14,-12.848 4.59,5.77 9.5,10.129 14.77,12.93 5.25,2.82 11.05,4.211 17.4,4.211 7.5,0 13.89,-1.492 19.22,-4.59 5.4,-3.051 9.41,-7.402 12.08,-13.09 2.34,-5.132 3.48,-13.203 3.48,-24.242 V 60.0195 c 0,-5.9414 -1.29,-10.4492 -3.84,-13.4414 -2.65,-2.9765 -6.03,-4.4687 -10.29,-4.4687 -4.13,0 -7.49,1.4922 -10.1,4.5703 -2.65,2.9492 -3.97,7.4101 -3.97,13.3398 v 47.7615 c 0,6.098 -0.24,10.981 -0.73,14.66 -0.5,3.707 -1.85,6.75 -4.06,9.258 -2.18,2.5 -5.52,3.762 -9.93,3.762 -3.58,0 -7.01,-1.133 -10.17,-3.301 -3.28,-2.242 -5.72,-5.219 -7.55,-8.969 v 0"
         style="fill:#100f0d;fill-opacity:1;fill-rule:nonzero;stroke:none"
         transform="matrix(0.13333333,0,0,-0.13333333,0,793.25333)" />
      <path
         id="path11"
         d="m 2073.13,99.2109 c -4,-1.5703 -9.8,-3.1328 -17.4,-4.8593 -7.61,-1.7032 -12.88,-2.9414 -15.8,-3.75 -2.93,-0.8203 -5.73,-2.3633 -8.34,-4.6602 -2.69,-2.3906 -4.03,-5.6133 -4.03,-9.7734 0,-4.3399 1.59,-7.9571 4.67,-10.9883 3.15,-3.0508 7.24,-4.5313 12.29,-4.5313 5.37,0 10.36,1.25 14.89,3.711 4.55,2.4414 7.92,5.6601 10,9.5 2.47,4.3203 3.72,11.3711 3.72,21.3008 z m 1.77,-41.1211 c -6.59,-5.3515 -12.94,-9.3203 -19.08,-11.9609 -6.12,-2.7187 -13.05,-4.0195 -20.65,-4.0195 -7.02,0 -13.09,1.4492 -18.41,4.2695 -5.31,2.9024 -9.34,6.8125 -12.21,11.7813 -2.83,4.9101 -4.29,10.1992 -4.29,15.9882 0,7.7618 2.42,14.3516 7.12,19.8399 4.67,5.4531 11.14,9.1327 19.37,11.0237 1.73,0.418 6.04,1.308 12.84,2.769 6.91,1.489 12.71,2.789 17.67,4 4.83,1.199 10.16,2.68 15.87,4.399 -0.35,7.519 -1.78,13.011 -4.32,16.578 -2.59,3.472 -7.93,5.183 -15.91,5.183 -6.95,0 -12.11,-0.98 -15.65,-2.992 -3.46,-1.98 -6.47,-5.031 -8.92,-9.097 -2.53,-4 -4.25,-6.661 -5.28,-7.922 -1.06,-1.321 -3.28,-1.899 -6.61,-1.899 -3.1,0 -5.72,1.008 -7.92,3.028 -2.26,2.062 -3.36,4.64 -3.36,7.882 0,4.969 1.7,9.86 5.06,14.508 3.4,4.742 8.69,8.61 15.85,11.711 7.17,3.051 16.13,4.559 26.83,4.559 11.92,0 21.33,-1.508 28.22,-4.438 6.82,-2.922 11.6,-7.551 14.45,-13.98 2.84,-6.332 4.24,-14.832 4.24,-25.36 0,-6.64 0,-12.332 -0.04,-16.941 -0.05,-4.6914 -0.08,-9.8398 -0.15,-15.5195 0,-5.3125 0.84,-10.9024 2.56,-16.6602 1.65,-5.789 2.49,-9.5312 2.49,-11.1601 0,-2.9219 -1.33,-5.5899 -3.93,-7.9688 -2.57,-2.3828 -5.58,-3.582 -8.87,-3.582 -2.84,0 -5.54,1.332 -8.31,4.0703 -2.71,2.75 -5.6,6.75 -8.66,11.9101"
         style="fill:#100f0d;fill-opacity:1;fill-rule:nonzero;stroke:none"
         transform="matrix(0.13333333,0,0,-0.13333333,0,793.25333)" />
      <path
         id="path12"
         d="M 2154.63,141.371 V 59.3789 c 0,-5.7187 -1.3,-10.0195 -3.85,-12.9297 -2.59,-2.8476 -5.85,-4.3398 -9.85,-4.3398 -3.98,0 -7.26,1.4922 -9.71,4.4414 -2.53,3.0195 -3.78,7.2578 -3.78,12.8281 v 81.1801 c 0,5.57 1.25,9.8 3.78,12.652 2.45,2.867 5.73,4.289 9.71,4.289 4,0 7.26,-1.422 9.85,-4.289 2.55,-2.852 3.85,-6.781 3.85,-11.84 z m -13.44,29.348 c -3.74,0 -6.97,1.211 -9.66,3.699 -2.69,2.41 -4.09,5.871 -4.09,10.32 0,4 1.41,7.282 4.18,9.922 2.73,2.61 5.96,3.828 9.57,3.828 3.54,0 6.69,-1.136 9.42,-3.476 2.68,-2.364 4.02,-5.821 4.02,-10.274 0,-4.41 -1.3,-7.82 -3.97,-10.238 -2.66,-2.461 -5.81,-3.781 -9.47,-3.781"
         style="fill:#100f0d;fill-opacity:1;fill-rule:nonzero;stroke:none"
         transform="matrix(0.13333333,0,0,-0.13333333,0,793.25333)" />
      <path
         id="path13"
         d="m 2207.49,141.781 v -3.383 c 4.75,6.563 9.97,11.391 15.61,14.473 5.69,3.07 12.23,4.629 19.63,4.629 7.13,0 13.57,-1.621 19.26,-4.922 5.58,-3.238 9.83,-7.82 12.59,-13.758 1.81,-3.492 2.93,-7.269 3.51,-11.269 0.49,-3.981 0.8,-9.121 0.8,-15.383 V 59.3789 c 0,-5.7187 -1.29,-10.0195 -3.76,-12.9297 -2.5,-2.8476 -5.74,-4.3398 -9.71,-4.3398 -4.04,0 -7.35,1.4922 -9.77,4.4687 -2.56,2.9922 -3.86,7.2305 -3.86,12.8008 v 47.2691 c 0,9.403 -1.21,16.543 -3.69,21.481 -2.54,4.949 -7.52,7.473 -14.96,7.473 -4.83,0 -9.24,-1.532 -13.22,-4.563 -3.98,-2.98 -6.9,-7.141 -8.75,-12.418 -1.34,-4.23 -2.03,-12.09 -2.03,-23.7421 v -35.5 c 0,-5.7578 -1.25,-10.0976 -3.83,-13 -2.57,-2.8203 -5.87,-4.2695 -9.9,-4.2695 -3.89,0 -7.14,1.4922 -9.65,4.4414 -2.57,3.0195 -3.8,7.2578 -3.8,12.8281 v 81.9921 c 0,5.43 1.11,9.43 3.41,12.098 2.2,2.679 5.37,4.031 9.26,4.031 2.35,0 4.54,-0.641 6.43,-1.77 1.99,-1.16 3.48,-2.992 4.65,-5.25 1.13,-2.421 1.78,-5.3 1.78,-8.699"
         style="fill:#100f0d;fill-opacity:1;fill-rule:nonzero;stroke:none"
         transform="matrix(0.13333333,0,0,-0.13333333,0,793.25333)" />
      <path
         id="path14"
         d="m 2322.53,139.828 21.97,-64.4374 23.72,67.2504 c 1.88,5.418 3.7,9.199 5.52,11.468 1.82,2.239 4.5,3.391 8.13,3.391 3.46,0 6.39,-1.211 8.87,-3.691 2.37,-2.399 3.59,-5.161 3.59,-8.43 0,-1.219 -0.23,-2.66 -0.66,-4.277 -0.39,-1.704 -0.89,-3.262 -1.49,-4.762 -0.56,-1.391 -1.15,-3.078 -1.94,-4.942 l -26.08,-67.5699 c -0.74,-1.9297 -1.7,-4.4179 -2.84,-7.4101 -1.18,-2.9688 -2.5,-5.4571 -3.88,-7.6485 -1.47,-2.0898 -3.21,-3.6992 -5.28,-4.8906 -2.13,-1.1797 -4.67,-1.7695 -7.66,-1.7695 -3.85,0 -6.91,0.8984 -9.23,2.7109 -2.29,1.8594 -3.99,3.8399 -5.07,6.0781 -1.07,2.1329 -2.96,6.4805 -5.52,12.9297 l -25.93,66.8399 c -0.59,1.633 -1.24,3.312 -1.88,4.98 -0.6,1.661 -1.08,3.321 -1.55,5.09 -0.42,1.774 -0.67,3.25 -0.67,4.442 0,1.98 0.57,3.898 1.72,5.8 1.13,1.93 2.7,3.5 4.68,4.68 2.02,1.199 4.13,1.84 6.5,1.84 4.48,0 7.59,-1.352 9.3,-4.102 1.7,-2.679 3.6,-7.207 5.68,-13.57"
         style="fill:#100f0d;fill-opacity:1;fill-rule:nonzero;stroke:none"
         transform="matrix(0.13333333,0,0,-0.13333333,0,793.25333)" />
      <path
         id="path15"
         d="m 2433.76,109.008 h 49.29 c -0.62,9.672 -3.11,16.922 -7.5,21.722 -4.36,4.79 -10.1,7.211 -17.22,7.211 -6.72,0 -12.31,-2.453 -16.64,-7.312 -4.34,-4.859 -6.95,-12.09 -7.93,-21.621 z m 53.21,-16.1486 h -53.21 c 0.01,-6.4688 1.31,-12.1406 3.7,-17.0977 2.46,-4.8711 5.66,-8.6015 9.69,-11.1133 4.01,-2.5195 8.46,-3.7304 13.31,-3.7304 3.25,0 6.25,0.3906 8.9,1.1718 2.68,0.8399 5.31,2.0821 7.86,3.75 2.48,1.711 4.79,3.4688 6.94,5.4883 2.09,1.9414 4.93,4.5313 8.27,7.8828 1.4,1.2969 3.41,1.8907 5.96,1.8907 2.85,0 5.07,-0.7735 6.81,-2.4102 1.73,-1.5898 2.54,-3.8203 2.54,-6.7305 0,-2.5703 -0.94,-5.5703 -2.88,-9.0312 -1.91,-3.3789 -4.76,-6.6992 -8.71,-9.8984 -3.9,-3.1211 -8.77,-5.6915 -14.65,-7.8321 -5.85,-2.0703 -12.58,-3.0898 -20.28,-3.0898 -17.44,0 -31.04,5.2304 -40.7,15.5703 -9.69,10.4492 -14.51,24.5117 -14.51,42.2891 0,8.4922 1.23,16.2112 3.57,23.3712 2.39,7.191 5.85,13.332 10.45,18.441 4.59,5.16 10.2,9.117 16.93,11.821 6.74,2.746 14.14,4.117 22.34,4.117 10.55,0 19.7,-2.328 27.3,-7.039 7.62,-4.68 13.31,-10.68 17.09,-18.09 3.79,-7.461 5.68,-14.981 5.68,-22.731 0,-7.078 -1.9,-11.7106 -5.86,-13.8082 -3.95,-2.1524 -9.43,-3.1914 -16.54,-3.1914"
         style="fill:#100f0d;fill-opacity:1;fill-rule:nonzero;stroke:none"
         transform="matrix(0.13333333,0,0,-0.13333333,0,793.25333)" />
      <path
         id="path16"
         d="m 2629.85,77.25 c 0,-3.5117 -1.01,-7.3086 -3.08,-11.3398 -2.03,-4.0118 -5.06,-7.8204 -9.25,-11.4688 -4.13,-3.6211 -9.4,-6.5508 -15.73,-8.75 -6.27,-2.2812 -13.42,-3.3633 -21.25,-3.3633 -16.86,0 -29.97,5.1328 -39.38,15.3321 -9.41,10.2304 -14.15,23.8984 -14.15,41.1093 0,11.6405 2.14,21.9605 6.49,30.8785 4.33,8.883 10.51,15.852 18.71,20.711 8.14,4.922 17.93,7.36 29.31,7.36 7.03,0 13.47,-1.098 19.39,-3.219 5.86,-2.172 10.8,-4.949 14.94,-8.309 4.09,-3.41 7.17,-7.043 9.36,-10.863 2.14,-3.84 3.21,-7.437 3.21,-10.769 0,-3.348 -1.18,-6.231 -3.68,-8.61 -2.39,-2.379 -5.32,-3.539 -8.78,-3.539 -2.25,0 -4.13,0.649 -5.59,1.86 -1.53,1.179 -3.19,3.082 -5.07,5.839 -3.32,5.25 -6.77,9.231 -10.39,11.922 -3.63,2.61 -8.23,3.949 -13.82,3.949 -7.99,0 -14.48,-3.332 -19.4,-9.871 -4.96,-6.578 -7.4,-15.539 -7.4,-26.8981 0,-5.3125 0.68,-10.2812 1.89,-14.7109 1.27,-4.4883 3.11,-8.2891 5.51,-11.4687 2.39,-3.1524 5.3,-5.5196 8.68,-7.1524 3.33,-1.6601 7.07,-2.4609 11.15,-2.4609 5.43,0 10.12,1.2929 14,3.9336 3.87,2.6679 7.34,6.6875 10.32,12.0273 1.67,3.2695 3.43,5.7422 5.39,7.5703 1.9,1.8125 4.22,2.6719 7.07,2.6719 3.27,0 6.07,-1.2813 8.18,-3.9219 2.25,-2.6992 3.37,-5.4687 3.37,-8.4492"
         style="fill:#100f0d;fill-opacity:1;fill-rule:nonzero;stroke:none"
         transform="matrix(0.13333333,0,0,-0.13333333,0,793.25333)" />
      <path
         id="path17"
         d="m 2655.1,155.098 h 2.99 v 17.062 c 0,4.551 0.13,8.168 0.37,10.762 0.23,2.598 0.82,4.777 1.95,6.699 1.02,1.899 2.55,3.488 4.59,4.731 1.97,1.179 4.18,1.757 6.65,1.757 3.43,0 6.57,-1.328 9.34,-4.007 1.82,-1.832 3.03,-4 3.53,-6.582 0.5,-2.598 0.73,-6.34 0.73,-11.102 v -19.32 h 10 c 3.85,0 6.8,-0.957 8.82,-2.868 2.06,-1.91 3.04,-4.32 3.04,-7.312 0,-3.816 -1.43,-6.52 -4.36,-8.02 -2.87,-1.488 -7.01,-2.257 -12.38,-2.257 h -5.12 V 82.3594 c 0,-4.4492 0.17,-7.8711 0.45,-10.2891 0.35,-2.4101 1.19,-4.3515 2.45,-5.789 1.26,-1.5118 3.37,-2.2813 6.32,-2.2813 1.58,0 3.73,0.2695 6.48,0.8984 2.66,0.5821 4.8,0.8829 6.35,0.8829 2.18,0 4.22,-0.961 5.95,-2.711 1.72,-1.8906 2.62,-4.1211 2.62,-6.8398 0,-4.5508 -2.34,-8.0625 -7.15,-10.4922 -4.84,-2.4297 -11.69,-3.6289 -20.62,-3.6289 -8.51,0 -14.97,1.4922 -19.35,4.4687 -4.36,2.9922 -7.28,7.0821 -8.59,12.4102 -1.4,5.2617 -2.07,12.3008 -2.07,21.0898 v 54.5629 h -3.61 c -3.85,0 -6.85,0.961 -8.93,2.918 -2.07,1.929 -3.07,4.359 -3.07,7.359 0,2.992 1.05,5.402 3.19,7.312 2.19,1.911 5.3,2.868 9.43,2.868"
         style="fill:#100f0d;fill-opacity:1;fill-rule:nonzero;stroke:none"
         transform="matrix(0.13333333,0,0,-0.13333333,0,793.25333)" />
      <path
         id="path18"
         d="m 2800.3,99.7383 c 0,11.5427 -2.46,20.5817 -7.32,27.0197 -4.93,6.41 -11.42,9.66 -19.68,9.66 -5.34,0 -10,-1.438 -14.03,-4.309 -4.08,-2.918 -7.19,-7.16 -9.37,-12.781 -2.19,-5.547 -3.31,-12.07 -3.31,-19.5897 0,-7.4297 1.12,-13.8789 3.27,-19.4102 2.15,-5.5468 5.21,-9.7968 9.23,-12.75 4,-2.9297 8.75,-4.3789 14.21,-4.3789 8.26,0 14.75,3.211 19.68,9.6914 4.86,6.4492 7.32,15.4492 7.32,26.8477 z m 27.3,0 c 0,-8.4102 -1.25,-16.207 -3.82,-23.3985 -2.5,-7.082 -6.17,-13.2304 -10.92,-18.371 -4.8,-5.1407 -10.52,-8.9805 -17.13,-11.7891 -6.67,-2.7383 -14.09,-4.0703 -22.43,-4.0703 -8.28,0 -15.69,1.332 -22.23,4.1523 -6.56,2.7578 -12.29,6.7188 -17.09,11.8985 -4.8,5.1796 -8.46,11.2304 -10.91,18.2578 -2.48,7.082 -3.7,14.8203 -3.7,23.3711 0,8.6019 1.22,16.4609 3.7,23.5699 2.58,7.172 6.15,13.231 10.86,18.332 4.76,5.039 10.45,8.938 17.14,11.68 6.78,2.738 14.16,4.129 22.23,4.129 8.26,0 15.69,-1.391 22.43,-4.172 6.7,-2.769 12.42,-6.758 17.21,-11.879 4.73,-5.121 8.44,-11.258 10.92,-18.328 2.49,-7.051 3.74,-14.851 3.74,-23.3827"
         style="fill:#100f0d;fill-opacity:1;fill-rule:nonzero;stroke:none"
         transform="matrix(0.13333333,0,0,-0.13333333,0,793.25333)" />
      <path
         id="path19"
         d="M 2876.05,83 V 59.3789 c 0,-5.7578 -1.31,-10.0976 -3.91,-13 -2.59,-2.8203 -5.87,-4.2695 -9.89,-4.2695 -3.87,0 -7.12,1.4922 -9.63,4.3398 -2.52,2.9102 -3.76,7.211 -3.76,12.9297 v 79.0001 c 0,12.762 4.4,19.121 13.23,19.121 4.48,0 7.75,-1.52 9.78,-4.469 1.95,-2.972 3.01,-7.39 3.27,-13.203 3.23,5.813 6.61,10.231 10.04,13.203 3.42,2.949 7.96,4.469 13.64,4.469 5.76,0 11.28,-1.52 16.68,-4.469 5.35,-2.972 8.08,-6.953 8.08,-11.851 0,-3.461 -1.18,-6.371 -3.47,-8.59 -2.26,-2.231 -4.74,-3.399 -7.44,-3.399 -0.98,0 -3.4,0.661 -7.21,1.969 -3.84,1.258 -7.21,1.918 -10.15,1.918 -3.94,0 -7.19,-1.047 -9.69,-3.289 -2.54,-2.219 -4.51,-5.41 -5.9,-9.699 -1.39,-4.34 -2.4,-9.43 -2.9,-15.391 -0.51,-5.8904 -0.77,-13.0896 -0.77,-21.699"
         style="fill:#100f0d;fill-opacity:1;fill-rule:nonzero;stroke:none"
         transform="matrix(0.13333333,0,0,-0.13333333,0,793.25333)" />
      <path
         id="path20"
         d="m 3020.9,79.1914 c 0,-7.8633 -1.82,-14.543 -5.51,-20.1328 -3.68,-5.6094 -9.06,-9.7773 -16.21,-12.6875 -7.16,-2.8125 -15.82,-4.2617 -26.1,-4.2617 -9.68,0 -18.09,1.539 -25.09,4.6914 -6.97,3.1094 -12.13,6.9883 -15.42,11.6484 -3.36,4.6602 -5.07,9.3594 -5.07,14.0625 0,3.1094 1.1,5.7891 3.28,7.9961 2.11,2.2735 4.81,3.3203 8.02,3.3203 2.87,0 5.1,-0.7383 6.62,-2.1367 1.52,-1.5508 2.94,-3.5508 4.38,-6.1914 2.78,-5.0586 6.1,-8.8398 10.05,-11.3281 3.82,-2.5313 9.12,-3.7735 15.89,-3.7735 5.42,0 9.89,1.293 13.39,3.8204 3.46,2.5195 5.26,5.4101 5.26,8.6718 0,5.0196 -1.84,8.668 -5.43,10.9297 -3.67,2.3399 -9.6,4.5195 -17.9,6.5781 -9.36,2.4297 -17,4.9805 -22.89,7.6211 -5.87,2.6915 -10.63,6.2305 -14.11,10.6015 -3.53,4.301 -5.31,9.707 -5.31,16.078 0,5.731 1.64,11.09 4.9,16.129 3.23,5.07 8.1,9.09 14.42,12.121 6.33,3.031 13.98,4.551 22.99,4.551 7,0 13.33,-0.781 18.97,-2.309 5.6,-1.511 10.35,-3.582 14.04,-6.113 3.75,-2.578 6.64,-5.418 8.58,-8.519 1.99,-3.149 2.96,-6.2 2.96,-9.161 0,-3.269 -1.03,-5.878 -3.16,-8.039 -2.1,-2.011 -5.1,-3.058 -8.89,-3.058 -2.82,0 -5.19,0.82 -7.19,2.519 -1.91,1.641 -4.19,4.121 -6.7,7.399 -2.06,2.781 -4.46,5.019 -7.28,6.679 -2.8,1.633 -6.57,2.5 -11.33,2.5 -4.93,0 -9.05,-1.078 -12.25,-3.289 -3.28,-2.168 -4.92,-4.91 -4.92,-8.16 0,-3 1.21,-5.429 3.57,-7.34 2.42,-1.91 5.62,-3.48 9.69,-4.738 4.09,-1.25 9.64,-2.812 16.75,-4.59 8.46,-2.14 15.32,-4.679 20.68,-7.691 5.35,-2.949 9.39,-6.4806 12.14,-10.5392 2.81,-4.0899 4.18,-8.711 4.18,-13.8594"
         style="fill:#100f0d;fill-opacity:1;fill-rule:nonzero;stroke:none"
         transform="matrix(0.13333333,0,0,-0.13333333,0,793.25333)" />
      <path
         id="path21"
         d="m 3051.78,42.1094 c -4.12,0 -7.68,1.332 -10.63,4.1523 -3.04,2.7578 -4.51,6.668 -4.51,11.6094 0,4.2187 1.39,7.8594 4.22,10.9297 2.87,3.0273 6.41,4.5195 10.6,4.5195 4.16,0 7.74,-1.4922 10.63,-4.5117 3,-2.9688 4.49,-6.6797 4.49,-10.9375 0,-4.9023 -1.49,-8.7695 -4.49,-11.5703 -2.89,-2.8008 -6.33,-4.1914 -10.31,-4.1914"
         style="fill:#100f0d;fill-opacity:1;fill-rule:nonzero;stroke:none"
         transform="matrix(0.13333333,0,0,-0.13333333,0,793.25333)" />
      <path
         id="path22"
         d="m 3172.04,99.7383 c 0,11.5427 -2.46,20.5817 -7.34,27.0197 -4.88,6.41 -11.41,9.66 -19.65,9.66 -5.32,0 -9.95,-1.438 -14.02,-4.309 -4.06,-2.918 -7.18,-7.16 -9.36,-12.781 -2.16,-5.547 -3.28,-12.07 -3.28,-19.5897 0,-7.4297 1.05,-13.8789 3.2,-19.4102 2.22,-5.5468 5.27,-9.7968 9.3,-12.75 4.01,-2.9297 8.72,-4.3789 14.16,-4.3789 8.24,0 14.77,3.211 19.65,9.6914 4.88,6.4492 7.34,15.4492 7.34,26.8477 z m 27.32,0 c 0,-8.4102 -1.25,-16.207 -3.81,-23.3985 -2.54,-7.082 -6.15,-13.2304 -10.95,-18.371 -4.82,-5.1407 -10.46,-8.9805 -17.12,-11.7891 -6.63,-2.7383 -14.1,-4.0703 -22.43,-4.0703 -8.22,0 -15.62,1.332 -22.19,4.1523 -6.59,2.7578 -12.25,6.7188 -17.05,11.8985 -4.9,5.1796 -8.52,11.2304 -11.04,18.2578 -2.44,7.082 -3.69,14.8203 -3.69,23.3711 0,8.6019 1.25,16.4609 3.79,23.5699 2.57,7.172 6.13,13.231 10.82,18.332 4.72,5.039 10.44,8.938 17.17,11.68 6.7,2.738 14.05,4.129 22.19,4.129 8.24,0 15.71,-1.391 22.43,-4.172 6.73,-2.769 12.46,-6.758 17.25,-11.879 4.75,-5.121 8.38,-11.258 10.9,-18.328 2.48,-7.051 3.73,-14.851 3.73,-23.3827"
         style="fill:#100f0d;fill-opacity:1;fill-rule:nonzero;stroke:none"
         transform="matrix(0.13333333,0,0,-0.13333333,0,793.25333)" />
      <path
         id="path23"
         d="M 3247.8,83 V 59.3789 c 0,-5.7578 -1.3,-10.0976 -3.89,-13 -2.55,-2.8203 -5.88,-4.2695 -9.83,-4.2695 -3.97,0 -7.15,1.4922 -9.69,4.3398 -2.56,2.9102 -3.8,7.211 -3.8,12.9297 v 79.0001 c 0,12.762 4.47,19.121 13.26,19.121 4.52,0 7.76,-1.52 9.74,-4.469 1.96,-2.972 3.12,-7.39 3.36,-13.203 3.19,5.813 6.52,10.231 9.94,13.203 3.44,2.949 8.01,4.469 13.67,4.469 5.81,0 11.35,-1.52 16.67,-4.469 5.38,-2.972 8.1,-6.953 8.1,-11.851 0,-3.461 -1.16,-6.371 -3.43,-8.59 -2.32,-2.231 -4.75,-3.399 -7.47,-3.399 -0.96,0 -3.35,0.661 -7.17,1.969 -3.84,1.258 -7.21,1.918 -10.16,1.918 -3.95,0 -7.18,-1.047 -9.78,-3.289 -2.48,-2.219 -4.44,-5.41 -5.86,-9.699 -1.36,-4.34 -2.33,-9.43 -2.85,-15.391 -0.53,-5.8904 -0.81,-13.0896 -0.81,-21.699"
         style="fill:#100f0d;fill-opacity:1;fill-rule:nonzero;stroke:none"
         transform="matrix(0.13333333,0,0,-0.13333333,0,793.25333)" />
      <path
         id="path24"
         d="m 3326.31,100.719 c 0,-11.4885 2.43,-20.1995 7.26,-26.1096 4.77,-5.8477 11.04,-8.8281 18.63,-8.8281 4.49,0 8.82,1.3085 12.81,3.8398 4.03,2.5273 7.3,6.3281 9.83,11.4297 2.56,5.1094 3.78,11.2578 3.78,18.539 0,11.5702 -2.46,20.5582 -7.34,26.9882 -4.86,6.5 -11.29,9.75 -19.25,9.75 -7.75,0 -13.99,-3.16 -18.66,-9.289 -4.7,-6.187 -7.06,-14.937 -7.06,-26.32 z m 78.84,36 V 54.2383 c 0,-9.457 -1.03,-17.5469 -2.92,-24.3086 -1.93,-6.8281 -5.01,-12.4414 -9.26,-16.8711 -4.24,-4.41797 -9.84,-7.70704 -16.67,-9.85938 C 3369.42,1.08984 3360.85,0 3350.64,0 c -9.39,0 -17.77,1.32031 -25.1,4.05859 -7.39,2.80079 -13.08,6.30081 -17.05,10.66021 -3.98,4.289 -5.99,8.75 -5.99,13.3515 0,3.4805 1.1,6.2813 3.42,8.461 2.23,2.2382 4.96,3.3203 8.14,3.3203 4,0 7.44,-1.8633 10.49,-5.5118 1.46,-1.9296 2.98,-3.8007 4.5,-5.6796 1.56,-1.9219 3.3,-3.5899 5.17,-4.8985 1.92,-1.3906 4.21,-2.3906 6.87,-3.0508 2.6,-0.6523 5.7,-0.9921 9.17,-0.9921 6.98,0 12.51,1.0507 16.37,3.0703 3.88,2.039 6.62,4.9023 8.2,8.5586 1.48,3.6914 2.49,7.6015 2.65,11.7929 0.32,4.2774 0.5,10.9492 0.69,20.2774 -4.18,-6.0899 -9.09,-10.7383 -14.51,-13.918 -5.48,-3.1992 -12.03,-4.7617 -19.54,-4.7617 -9.18,0 -17.13,2.3906 -23.89,7.2734 -6.85,4.8399 -12.08,11.6172 -15.72,20.3789 -3.61,8.711 -5.48,18.7891 -5.48,30.2304 0,8.578 1.09,16.277 3.36,23.149 2.18,6.82 5.33,12.628 9.52,17.339 4.07,4.719 8.85,8.282 14.22,10.692 5.41,2.347 11.25,3.57 17.75,3.57 7.67,0 14.34,-1.562 19.97,-4.672 5.73,-3.039 10.91,-7.941 15.77,-14.48 v 3.801 c 0,4.96 1.21,8.742 3.5,11.519 2.3,2.672 5.31,4.031 8.95,4.031 5.26,0 8.75,-1.761 10.49,-5.34 1.7,-3.582 2.59,-8.781 2.59,-15.511"
         style="fill:#100f0d;fill-opacity:1;fill-rule:nonzero;stroke:none"
         transform="matrix(0.13333333,0,0,-0.13333333,0,793.25333)" />
      <path
         id="path25"
         d="m 2226.45,413.09 h 40.33 c -2.85,-21.75 -11.76,-38.719 -26.58,-50.942 -13.72,-11.968 -30.33,-17.867 -49.73,-17.867 -26.34,0 -47.37,9.258 -63.07,27.731 -14.88,17.566 -22.3,40.246 -22.3,67.957 0,28.402 7.38,51.09 22.09,68.281 14.7,17.121 35.5,25.719 62.39,25.719 19.99,0 36.9,-5.41 50.62,-16.141 14.54,-11.598 23.44,-27.898 26.58,-48.769 h -40.33 c -3.5,18.211 -14.6,27.261 -33.53,27.261 -31.17,0 -46.79,-18.461 -46.79,-55.422 0,-17.32 4.02,-31.449 12.04,-42.457 8.02,-11.062 19.32,-16.589 33.9,-16.589 21.74,0 33.2,10.429 34.38,31.238 z m -158.8,25.449 c 0,-36.098 11.45,-66.66 34.31,-91.559 22.89,-24.89 50.9,-37.351 84.15,-37.351 33.1,0 61.13,12.461 83.98,37.351 22.92,24.899 34.3,55.461 34.3,91.559 0,36.082 -11.38,66.609 -34.3,91.52 -22.85,24.953 -50.88,37.382 -83.98,37.382 -33.25,0 -61.26,-12.429 -84.15,-37.382 -22.86,-24.911 -34.31,-55.438 -34.31,-91.52 z m -40.98,0 c 0,45.941 15.55,85.152 46.66,117.723 31.15,32.519 68.75,48.789 112.78,48.789 43.92,0 81.46,-16.27 112.64,-48.789 31.14,-32.571 46.73,-71.782 46.73,-117.723 0,-45.98 -15.59,-85.238 -46.73,-117.738 -31.18,-32.551 -68.72,-48.832 -112.64,-48.832 -44.03,0 -81.63,16.281 -112.78,48.832 -31.11,32.5 -46.66,71.758 -46.66,117.738"
         style="fill:#100f0d;fill-opacity:1;fill-rule:nonzero;stroke:none"
         transform="matrix(0.13333333,0,0,-0.13333333,0,793.25333)" />
      <path
         id="path26"
         d="m 2091.18,334.121 23.25,-19.73 170.96,219.527 -23.25,19.703 -170.96,-219.5"
         style="fill:#100f0d;fill-opacity:1;fill-rule:nonzero;stroke:none"
         transform="matrix(0.13333333,0,0,-0.13333333,0,793.25333)" />
      <path
         id="path27"
         d="m 2344.46,1260.49 c 1291.3,0 2344.48,1053.2 2344.48,2344.48 0,1291.29 -1053.18,2344.47 -2344.48,2344.47 C 1053.18,5949.44 0,4896.26 0,3604.97 0,2313.69 1053.18,1260.49 2344.46,1260.49"
         style="fill:#eeb0b7;fill-opacity:1;fill-rule:evenodd;stroke:none"
         transform="matrix(0.13333333,0,0,-0.13333333,0,793.25333)" />
      <path
         id="path28"
         d="M 254.047,2868.11 H 3396.04 V 5509.88 H 254.047 V 2868.11"
         style="fill:#db8d96;fill-opacity:1;fill-rule:evenodd;stroke:none"
         transform="matrix(0.13333333,0,0,-0.13333333,0,793.25333)" />
      <path
         id="path29"
         d="M 387.668,3001.73 H 3262.45 V 5376.28 H 387.668 V 3001.73"
         style="fill:#b7616c;fill-opacity:1;fill-rule:evenodd;stroke:none"
         transform="matrix(0.13333333,0,0,-0.13333333,0,793.25333)" />
      <path
         id="path30"
         d="m 546.07,4989.24 h 2557.97 v 31.69 H 546.07 v -31.69"
         style="fill:#ffffff;fill-opacity:1;fill-rule:evenodd;stroke:none"
         transform="matrix(0.13333333,0,0,-0.13333333,0,793.25333)" />
      <path
         id="path31"
         d="m 2755.42,5206.55 h 45.28 V 3232.62 h -45.28 z m -1270.68,0 c 15.09,0 30.19,0 45.28,0 0,-657.98 0,-1315.95 0,-1973.93 -15.09,0 -30.19,0 -45.28,0 0,657.98 0,1315.95 0,1973.93 z m -635.338,0 h 45.27 V 3232.62 h -45.27 v 1973.93 z m 1270.688,0 c 15.09,0 30.18,0 45.27,0 0,-657.98 0,-1315.95 0,-1973.93 -15.09,0 -30.18,0 -45.27,0 0,657.98 0,1315.95 0,1973.93 v 0"
         style="fill:#ffffff;fill-opacity:1;fill-rule:evenodd;stroke:none"
         transform="matrix(0.13333333,0,0,-0.13333333,0,793.25333)" />
      <path
         id="path32"
         d="m 1007.86,4876.05 c 102.62,0 205.24,0 307.86,0 7.58,-108.05 -1.92,-210.39 -26.04,-307.86 -102.61,0 -205.23,0 -307.856,0 20.136,95.21 31.546,196.05 26.036,307.86"
         style="fill:#fcfbc2;fill-opacity:1;fill-rule:evenodd;stroke:none"
         transform="matrix(0.13333333,0,0,-0.13333333,0,793.25333)" />
      <path
         id="path33"
         d="m 1970.52,4740.07 c -101.66,-13.99 -203.32,-27.99 -304.98,-41.99 7.22,-108.06 30.6,-208.16 67.78,-301.43 101.67,14.01 203.32,28 304.99,41.99 -32.94,91.58 -58,189.92 -67.79,301.43"
         style="fill:#e3f6f8;fill-opacity:1;fill-rule:evenodd;stroke:none"
         transform="matrix(0.13333333,0,0,-0.13333333,0,793.25333)" />
      <path
         id="path34"
         d="m 2345.41,4870.56 c 100.79,-19.25 201.6,-38.5 302.38,-57.74 -12.8,-107.55 -41.33,-206.3 -83.3,-297.51 -100.8,19.24 -201.6,38.49 -302.41,57.73 37.64,89.74 67.78,186.66 83.33,297.52"
         style="fill:#f7914f;fill-opacity:1;fill-rule:evenodd;stroke:none"
         transform="matrix(0.13333333,0,0,-0.13333333,0,793.25333)" />
      <path
         id="path35"
         d="m 493.441,4755.91 h 276.176 v -62.98 H 493.441 Z m 0,114.65 h 276.176 v -62.99 H 493.441 v 62.99 0"
         style="fill:#8d3f48;fill-opacity:1;fill-rule:evenodd;stroke:none"
         transform="matrix(0.13333333,0,0,-0.13333333,0,793.25333)" />
      <path
         id="path36"
         d="m 1684.99,5197.1 c 92.06,0 184.11,0 276.17,0 0,-21 0,-41.99 0,-62.99 -92.06,0 -184.11,0 -276.17,0 0,21 0,41.99 0,62.99 z m 624.78,0 c 92.04,0 184.11,0 276.16,0 0,-21 0,-41.99 0,-62.99 -92.05,0 -184.12,0 -276.16,0 0,21 0,41.99 0,62.99 z m 606.66,0 h 187.61 v -62.99 h -187.61 v 62.99 z m -1874.33,0 h 276.17 v -62.99 H 1042.1 v 62.99 0"
         style="fill:#8d3f48;fill-opacity:1;fill-rule:evenodd;stroke:none"
         transform="matrix(0.13333333,0,0,-0.13333333,0,793.25333)" />
      <path
         id="path37"
         d="m 2803.84,1076.46 -30.71,-14.31 c -63,-29.34 -128.34,-52.83 -195.26,-70.162 -3.65,-0.957 -6.76,-3.449 -8.59,-6.859 -1.84,-3.43 -2.25,-7.508 -1.13,-11.25 9.51,-31.828 27.02,-60.399 50.7,-82.641 h 611.71 l -10.51,76.563 -416.21,108.659"
         style="fill:#2e2d2d;fill-opacity:1;fill-rule:evenodd;stroke:none"
         transform="matrix(0.13333333,0,0,-0.13333333,0,793.25333)" />
      <path
         id="path38"
         d="m 4096.09,1076.46 30.69,-14.31 c 63.02,-29.34 128.35,-52.83 195.28,-70.162 3.66,-0.957 6.74,-3.449 8.6,-6.859 1.83,-3.43 2.24,-7.508 1.12,-11.25 -9.5,-31.828 -27.03,-60.399 -50.7,-82.641 h -611.72 l 10.51,76.563 416.22,108.659"
         style="fill:#2e2d2d;fill-opacity:1;fill-rule:evenodd;stroke:none"
         transform="matrix(0.13333333,0,0,-0.13333333,0,793.25333)" />
      <path
         id="path39"
         d="m 3030.17,3005.1 -51.79,-136.99 c -35.26,-93.3 -41.3,-195.95 -17.25,-293.09 l -107.89,-1408.01 -49.4,-90.55 53.71,-40.76 c 104.66,-79.399 238.12,-104.391 362.5,-67.899 l 229.92,1430.639 229.9,-1430.639 c 124.4,-36.492 257.83,-11.5 362.49,67.899 l 53.73,40.76 -49.42,90.55 -107.88,1408.01 c 24.06,97.14 18.02,199.79 -17.25,293.09 l -51.8,136.99 -419.77,135.84 -419.8,-135.84"
         style="fill:#8e3e47;fill-opacity:1;fill-rule:evenodd;stroke:none"
         transform="matrix(0.13333333,0,0,-0.13333333,0,793.25333)" />
      <path
         id="path40"
         d="m 3449.97,4791.17 v 0 c 94.5,0 171.82,-77.32 171.82,-171.82 v -148.71 c 0,-94.51 -77.32,-171.82 -171.82,-171.82 v 0 c -94.52,0 -171.83,77.31 -171.83,171.82 v 148.71 c 0,94.5 77.31,171.82 171.83,171.82"
         style="fill:#f15030;fill-opacity:1;fill-rule:evenodd;stroke:none"
         transform="matrix(0.13333333,0,0,-0.13333333,0,793.25333)" />
      <path
         id="path41"
         d="m 3264.99,4273.92 -37.88,-68.4 -85.25,-14.22 h -88.53 c -58.56,0 -114.45,-31.32 -154.14,-86.37 -39.68,-55.04 -59.56,-128.79 -54.81,-203.4 l -35.41,-239.96 c -28.18,-190.94 62.55,-377.73 208.94,-430.09 l -31.86,-253.52 70.82,-40.76 c 109.8,-63.18 231.75,-83.63 350.6,-58.85 l 42.5,85.37 42.5,-85.37 c 118.85,-24.78 240.78,-4.33 350.6,58.85 l 70.82,40.76 -31.88,253.52 c 146.39,52.36 237.13,239.15 208.95,430.09 l -35.42,239.96 c 4.76,74.61 -15.12,148.36 -54.79,203.4 -39.7,55.05 -95.6,86.37 -154.13,86.37 h -88.55 l -85.27,14.22 -37.86,68.4 h -369.95"
         style="fill:#ffffff;fill-opacity:1;fill-rule:evenodd;stroke:none"
         transform="matrix(0.13333333,0,0,-0.13333333,0,793.25333)" />
      <path
         id="path42"
         d="m 2835.97,3421.76 c 36.07,-90.14 100.35,-161.09 181.94,-190.28 l 21.98,247.62 c 12.51,141.08 -15.11,282.84 -79.69,408.9 61.12,-164.06 82.63,-575.37 -124.23,-466.24"
         style="fill:#f6d5da;fill-opacity:1;fill-rule:evenodd;stroke:none"
         transform="matrix(0.13333333,0,0,-0.13333333,0,793.25333)" />
      <path
         id="path43"
         d="m 2997.54,3673.46 -16.91,-5.13 c -20.19,-6.13 -34.98,-23.41 -37.9,-44.3 -2.92,-20.89 6.54,-41.58 24.28,-53.02 L 2987.97,3445 c 1.79,-10.78 5.88,-20.96 11.85,-29.86 10.33,-15.42 29.32,-21.57 46.73,-15.11 17.41,6.45 27.81,23.47 25.61,41.91 l -23.73,198.28 c -1.42,12.06 -7.52,21.85 -17.68,28.49 -10.18,6.65 -21.59,8.28 -33.21,4.75"
         style="fill:#f15030;fill-opacity:1;fill-rule:evenodd;stroke:none"
         transform="matrix(0.13333333,0,0,-0.13333333,0,793.25333)" />
      <path
         id="path44"
         d="m 3317.39,4273.92 h 265.13 v 492.35 h -265.13 v -492.35"
         style="fill:#f15030;fill-opacity:1;fill-rule:evenodd;stroke:none"
         transform="matrix(0.13333333,0,0,-0.13333333,0,793.25333)" />
      <path
         id="path45"
         d="m 3618.27,4876.06 -10.19,12.45 c -23.03,28.16 -59.04,42.3 -95.07,37.35 h -233.16 c -30.99,0 -59.6,-16.58 -75.03,-43.46 -15.43,-26.87 -15.3,-59.94 0.32,-86.7 l 46.43,-325.41 c 5.67,-39.84 40.13,-69.19 80.35,-68.48 h 219.58 c 37.89,0 72.7,20.89 90.55,54.33 l 41.86,357.67 c 2.08,17.68 -4.32,35.31 -17.23,47.56 -12.92,12.25 -42.85,7.89 -48.41,14.69"
         style="fill:#2e2d2d;fill-opacity:1;fill-rule:evenodd;stroke:none"
         transform="matrix(0.13333333,0,0,-0.13333333,0,793.25333)" />
      <path
         id="path46"
         d="m 4063.96,3421.76 c -36.07,-90.14 -100.34,-161.09 -181.95,-190.28 l -21.96,247.62 c -12.54,141.08 15.1,282.84 79.67,408.9 -61.1,-164.06 -82.62,-575.37 124.24,-466.24"
         style="fill:#f6d5da;fill-opacity:1;fill-rule:evenodd;stroke:none"
         transform="matrix(0.13333333,0,0,-0.13333333,0,793.25333)" />
    </g>
  </g>
</svg>
