<?xml version="1.0" encoding="UTF-8" standalone="no"?>
<!-- Created with Inkscape (http://www.inkscape.org/) -->

<svg
   version="1.1"
   id="svg1"
   width="882.66669"
   height="882.66669"
   viewBox="0 0 882.66669 882.66669"
   sodipodi:docname="sheets-notes-markers.svg"
   inkscape:version="1.4 (e7c3feb100, 2024-10-09)"
   xmlns:inkscape="http://www.inkscape.org/namespaces/inkscape"
   xmlns:sodipodi="http://sodipodi.sourceforge.net/DTD/sodipodi-0.dtd"
   xmlns="http://www.w3.org/2000/svg"
   xmlns:svg="http://www.w3.org/2000/svg">
  <defs
     id="defs1" />
  <sodipodi:namedview
     id="namedview1"
     pagecolor="#505050"
     bordercolor="#ffffff"
     borderopacity="1"
     inkscape:showpageshadow="0"
     inkscape:pageopacity="0"
     inkscape:pagecheckerboard="1"
     inkscape:deskcolor="#d1d1d1"
     inkscape:zoom="0.92333835"
     inkscape:cx="441.87486"
     inkscape:cy="441.33334"
     inkscape:window-width="1920"
     inkscape:window-height="1002"
     inkscape:window-x="0"
     inkscape:window-y="0"
     inkscape:window-maximized="1"
     inkscape:current-layer="g1">
    <inkscape:page
       x="0"
       y="0"
       inkscape:label="1"
       id="page1"
       width="882.66669"
       height="882.66669"
       margin="0"
       bleed="0" />
  </sodipodi:namedview>
  <g
     id="g1"
     inkscape:groupmode="layer"
     inkscape:label="1">
    <g
       id="group-R5">
      <path
         id="path2"
         d="M 0,0 H 6619.98 V 6620 H 0 V 0"
         style="fill:#46454b;fill-opacity:1;fill-rule:evenodd;stroke:none"
         transform="matrix(0.13333333,0,0,-0.13333333,0,882.66667)" />
      <path
         id="path3"
         d="m 3252.35,1298.14 c 81.16,0 147.39,66.22 147.39,147.39 0,81.18 -66.23,147.39 -147.39,147.39 -81.18,0 -147.39,-66.21 -147.39,-147.39 0,-81.17 66.21,-147.39 147.39,-147.39"
         style="fill:#2d2b2e;fill-opacity:1;fill-rule:evenodd;stroke:none"
         transform="matrix(0.13333333,0,0,-0.13333333,0,882.66667)" />
      <path
         id="path4"
         d="m 2068.22,2216.03 c -2.63,-47.17 -39.65,-83.81 -82.25,-81.42 l -6.8,-121.64 243.22,-13.6 6.78,121.65 c -42.6,2.38 -75.31,42.92 -72.67,90.06 z m 10.48,82.42 78.68,33.61 -6.73,-120.63 -76.58,4.26 4.63,82.76 z M 786.055,4555.6 l -12.032,44.34 -42.183,-11.45 -70.555,260.24 377.805,102.45 57.84,15.67 70.57,-260.24 -57.86,-15.68 -303.702,-82.35 46.164,12.52 12.019,-44.33 415.619,112.68 12.02,-44.33 -535.881,-145.3 -12.024,44.34 42.2,11.44 z m 5340.315,-1071.17 71.28,-47.35 -104.58,-60.55 2.94,-5.07 c -40.86,-23.67 -56.82,-73.26 -35.44,-110.17 l -105.42,-61.06 6.51,-11.27 -51.87,-30.01 -758.78,-439.35 -62.23,-36.02 -15.52,26.8 -131.35,-76.07 -104.08,179.76 131.35,76.06 -15.5,26.79 62.23,36.04 758.79,439.31 51.86,30.05 6.53,-11.28 105.44,61.05 c 21.37,-36.91 72.3,-47.79 113.18,-24.12 l 2.94,-5.08 71.72,41.54 z M 4656.69,1615.3 l -480.5,-278.2 23.02,-39.75 480.51,278.22 -23.03,39.73 z m -14.81,-61.65 23.01,-39.76 -49.11,-28.43 86.94,50.34 135.11,-233.34 -338.76,-196.13 -51.86,-30.05 -135.11,233.34 51.86,30.03 230.94,133.73 -23.01,39.74 69.99,40.53 z m -728.44,3615.02 14.17,-84.38 -115.67,34.9 -1.69,-5.62 c -45.23,13.65 -92.3,-8.62 -104.62,-49.47 l -116.66,35.19 -3.74,-12.47 -57.39,17.32 -839.42,253.25 -68.84,20.76 8.93,29.64 -145.31,43.85 59.98,198.86 145.34,-43.84 8.94,29.64 68.83,-20.77 839.44,-253.25 57.38,-17.32 -3.77,-12.46 116.65,-35.19 c -12.33,-40.85 14.58,-85.45 59.79,-99.09 l -1.69,-5.61 v 0 l 79.35,-23.94 z m 1342.93,630.93 -418.85,-364.48 30.16,-34.66 418.85,364.49 -30.16,34.65 z m -2.83,-63.35 30.16,-34.65 32.99,28.7 176.99,-203.41 -295.29,-256.96 -45.22,-39.35 -176.99,203.4 45.2,39.35 232.44,202.27 29.88,26 -30.16,34.65 z m -3021.49,-3797.44 -48.91,-875.44 -4.01,-71.788 -30.9,1.738 -8.46,-151.55 -207.39,11.57 8.45,151.55 v 0 l -30.9,1.73 4.01,71.8 48.89,875.43 3.34,59.85 269.22,-15.04 -3.34,-59.85 v 0"
         style="fill:#2d2b2e;fill-opacity:1;fill-rule:evenodd;stroke:none"
         transform="matrix(0.13333333,0,0,-0.13333333,0,882.66667)" />
      <path
         id="path5"
         d="M 1459.56,4627.2 3312.42,3785.4 2299.38,1555.57 C 1215.12,1907.45 414.691,2327.37 607.781,2752.4 l 851.779,1874.8"
         style="fill:#2d2b2e;fill-opacity:1;fill-rule:evenodd;stroke:none"
         transform="matrix(0.13333333,0,0,-0.13333333,0,882.66667)" />
      <path
         id="path6"
         d="M 1564.22,4857.55 3417.09,4015.76 2260.72,1470.51 C 1176.47,1822.38 519.355,2557.72 712.449,2982.74 l 851.771,1874.81"
         style="fill:#ffffff;fill-opacity:1;fill-rule:evenodd;stroke:none"
         transform="matrix(0.13333333,0,0,-0.13333333,0,882.66667)" />
      <path
         id="path7"
         d="m 778.691,2778.59 c -5.211,-11.54 -10.414,-23.03 -15.609,-34.57 337.628,-492.74 868.248,-804.29 1417.468,-1098.41 6.3,13.67 12.59,27.33 18.89,40.99 C 1643.37,1978 1119.45,2297.7 778.691,2778.59 Z m 61.598,135.46 c -4.934,-11.84 -10.41,-23.69 -15.875,-34.87 410.696,-501.96 900.256,-830.84 1428.976,-1073.36 6.29,13.88 12.86,27.11 18.61,40.99 -528.71,242.51 -1019.09,570.03 -1431.711,1067.24 z m 61.332,135.14 C 1323,2570.28 1816.12,2249.19 2344.83,2007 c -6.02,-13.87 -12.32,-27.75 -18.62,-41.66 -528.71,242.85 -1021.28,565.64 -1440.198,1048.64 5.211,12.18 10.406,23.72 15.609,35.21 z M 963.223,3184 c 429.597,-460.29 925.457,-774.96 1454.167,-1017.13 -5.75,-13.88 -12.32,-27.44 -18.62,-40.97 -528.71,242.18 -1024.02,558.5 -1451.426,1023.9 5.199,11.52 10.679,22.7 15.879,34.2 z m 61.337,135.83 c 438.09,-442.34 936.94,-750.9 1465.65,-992.75 -6.02,-13.89 -12.3,-27.77 -18.62,-41.33 -528.97,242.18 -1027.02,552.45 -1462.63,998.86 4.92,11.86 10.67,23.36 15.6,35.22 z m 61.33,135.14 c 446.57,-423.72 948.17,-726.17 1477.17,-968.35 -6.3,-13.55 -12.33,-27.43 -18.63,-40.99 -528.99,242.17 -1030.04,546.33 -1474.14,974.12 5.47,11.86 10.67,23.37 15.6,35.22 z m 61.61,134.81 c 454.78,-404.75 959.13,-701.13 1488.1,-942.94 -6.28,-13.56 -12.3,-27.11 -18.6,-41 -529,241.85 -1032.52,539.23 -1485.12,949.39 4.94,11.86 10.41,23.03 15.62,34.55 z m 61.6,135.48 c 463.28,-386.8 970.35,-676.72 1499.34,-918.24 -6.02,-14.22 -12.3,-27.77 -18.62,-41.66 -528.98,241.85 -1035.79,533.81 -1496.6,925.02 4.92,11.85 10.4,23.03 15.88,34.88 z m 61.33,135.15 c -5.47,-11.51 -10.41,-23.04 -15.88,-34.89 469.3,-372.57 978.84,-658.11 1507.83,-899.6 6.58,13.53 12.33,27.44 18.63,40.97 -529.27,241.5 -1039.36,525.35 -1510.58,893.52 z m 61.33,135.15 c -5.2,-11.53 -10.4,-23.05 -15.6,-34.56 477.51,-354.62 990.07,-634.04 1519.32,-875.55 6.02,14.22 12.34,27.44 18.62,41.32 -529.26,241.15 -1042.36,519.23 -1522.34,868.79 z m 61.6,135.48 c -5.47,-11.86 -10.67,-23.38 -15.87,-34.89 486,-336 1001.29,-609 1530.55,-850.5 5.75,13.89 12.05,27.45 18.63,41.33 -529.27,241.16 -1045.11,512.8 -1533.31,844.06 z m 61.61,135.14 c -5.47,-11.85 -10.68,-23.38 -16.15,-34.9 494.76,-317.69 1012.8,-584.6 1542.06,-825.75 5.75,13.88 12.32,27.44 18.63,41.33 -529.55,241.15 -1047.86,506.01 -1544.54,819.32 z m 61.07,135.48 c -5.48,-11.51 -10.41,-23.72 -15.61,-34.89 502.7,-299.42 1023.47,-559.88 1553,-801.05 6.02,13.9 12.34,27.44 18.62,41.32 -529.53,240.84 -1050.84,499.95 -1556.01,794.62 z m 123.2,270.29 c -5.38,-11.53 -10.76,-23.03 -16.14,-34.56 525.32,-250.53 1050.66,-501.05 1575.99,-751.58 6.22,13.66 12.43,27.33 18.62,40.98 -526.15,248.39 -1052.3,496.77 -1578.47,745.16 z m -61.6,-135.15 c 513.37,-276.05 1037.72,-529.06 1567.25,-769.87 -6.3,-13.9 -12.6,-27.43 -18.63,-41.33 -529.52,241.16 -1053.31,495.53 -1564.23,776.31 4.93,11.52 10.13,23.38 15.61,34.89 v 0"
         style="fill:#efecf2;fill-opacity:1;fill-rule:evenodd;stroke:none"
         transform="matrix(0.13333333,0,0,-0.13333333,0,882.66667)" />
      <path
         id="path8"
         d="M 1344.95,1917.21 C 842.402,2268.09 589.023,2687.31 708.152,2972.5 640.523,2798.83 911.055,2739.71 1158.84,2709.35 1100.62,2468.18 1040.6,2146.87 1344.95,1917.21"
         style="fill:#bcb8c2;fill-opacity:1;fill-rule:evenodd;stroke:none"
         transform="matrix(0.13333333,0,0,-0.13333333,0,882.66667)" />
      <path
         id="path9"
         d="m 1844.11,1994.43 269.21,-15.04 -48.9,-875.43 -269.21,15.04 48.9,875.43"
         style="fill:#dce8ac;fill-opacity:1;fill-rule:evenodd;stroke:none"
         transform="matrix(0.13333333,0,0,-0.13333333,0,882.66667)" />
      <path
         id="path10"
         d="m 1795.21,1119 269.21,-15.04 -4,-71.79 -269.21,15.04 4,71.79"
         style="fill:#87b027;fill-opacity:1;fill-rule:evenodd;stroke:none"
         transform="matrix(0.13333333,0,0,-0.13333333,0,882.66667)" />
      <path
         id="path11"
         d="m 1822.12,1045.49 207.39,-11.59 -8.47,-151.572 -207.39,11.602 8.47,151.56"
         style="fill:#769a2a;fill-opacity:1;fill-rule:evenodd;stroke:none"
         transform="matrix(0.13333333,0,0,-0.13333333,0,882.66667)" />
      <path
         id="path12"
         d="m 1844.11,1994.43 269.21,-15.04 3.34,59.86 -269.21,15.02 -3.34,-59.84"
         style="fill:#87b027;fill-opacity:1;fill-rule:evenodd;stroke:none"
         transform="matrix(0.13333333,0,0,-0.13333333,0,882.66667)" />
      <path
         id="path13"
         d="m 1949.49,2256.61 88.29,-4.94 c -2.64,-47.17 30.07,-87.68 72.67,-90.07 l -6.79,-121.64 -243.21,13.59 6.79,121.63 c 42.61,-2.38 79.62,34.26 82.25,81.43"
         style="fill:#dce8ac;fill-opacity:1;fill-rule:evenodd;stroke:none"
         transform="matrix(0.13333333,0,0,-0.13333333,0,882.66667)" />
      <path
         id="path14"
         d="m 1959.98,2339.03 78.68,33.62 -6.74,-120.65 -76.57,4.28 4.63,82.75"
         style="fill:#9ac421;fill-opacity:1;fill-rule:evenodd;stroke:none"
         transform="matrix(0.13333333,0,0,-0.13333333,0,882.66667)" />
      <path
         id="path15"
         d="m 2051.75,1982.83 61.57,-3.44 -48.9,-875.43 -61.56,3.43 48.89,875.44"
         style="fill:#cbdb90;fill-opacity:1;fill-rule:evenodd;stroke:none"
         transform="matrix(0.13333333,0,0,-0.13333333,0,882.66667)" />
      <path
         id="path16"
         d="m 2002.86,1107.39 61.56,-3.43 -4,-71.79 -61.58,3.44 4.02,71.78"
         style="fill:#769a2a;fill-opacity:1;fill-rule:evenodd;stroke:none"
         transform="matrix(0.13333333,0,0,-0.13333333,0,882.66667)" />
      <path
         id="path17"
         d="m 1977.57,1036.8 51.94,-2.9 -8.47,-151.572 -51.93,2.91 8.46,151.562"
         style="fill:#68882a;fill-opacity:1;fill-rule:evenodd;stroke:none"
         transform="matrix(0.13333333,0,0,-0.13333333,0,882.66667)" />
      <path
         id="path18"
         d="m 2051.75,1982.83 61.57,-3.44 3.34,59.86 -61.57,3.44 -3.34,-59.86"
         style="fill:#769a2a;fill-opacity:1;fill-rule:evenodd;stroke:none"
         transform="matrix(0.13333333,0,0,-0.13333333,0,882.66667)" />
      <path
         id="path19"
         d="m 1048.77,4747.19 -70.551,260.25 -57.852,-15.69 70.563,-260.24 57.84,15.68"
         style="fill:#87b027;fill-opacity:1;fill-rule:evenodd;stroke:none"
         transform="matrix(0.13333333,0,0,-0.13333333,0,882.66667)" />
      <path
         id="path20"
         d="m 613.109,4629.08 -70.55,260.24 377.808,102.43 70.563,-260.24 -377.821,-102.43"
         style="fill:#dce8ac;fill-opacity:1;fill-rule:evenodd;stroke:none"
         transform="matrix(0.13333333,0,0,-0.13333333,0,882.66667)" />
      <path
         id="path21"
         d="m 637.164,4540.4 -12.031,44.34 535.887,145.29 12.02,-44.34 -535.876,-145.29"
         style="fill:#87b027;fill-opacity:1;fill-rule:evenodd;stroke:none"
         transform="matrix(0.13333333,0,0,-0.13333333,0,882.66667)" />
      <path
         id="path22"
         d="m 667.328,4596.18 -12.019,44.34 78.066,21.16 12.016,-44.34 -78.063,-21.16"
         style="fill:#769a2a;fill-opacity:1;fill-rule:evenodd;stroke:none"
         transform="matrix(0.13333333,0,0,-0.13333333,0,882.66667)" />
      <path
         id="path23"
         d="m 994.352,4947.92 -16.133,59.52 -57.852,-15.69 16.141,-59.52 57.844,15.69"
         style="fill:#769a2a;fill-opacity:1;fill-rule:evenodd;stroke:none"
         transform="matrix(0.13333333,0,0,-0.13333333,0,882.66667)" />
      <path
         id="path24"
         d="m 558.691,4829.79 -16.132,59.53 377.808,102.43 16.141,-59.52 -377.817,-102.44"
         style="fill:#cbdb90;fill-opacity:1;fill-rule:evenodd;stroke:none"
         transform="matrix(0.13333333,0,0,-0.13333333,0,882.66667)" />
      <path
         id="path25"
         d="M 3778.28,1805.39 H 5813.41 V 4601.02 H 3778.28 V 1805.39"
         style="fill:#ffffff;fill-opacity:1;fill-rule:evenodd;stroke:none"
         transform="matrix(0.13333333,0,0,-0.13333333,0,882.66667)" />
      <path
         id="path26"
         d="m 3923.2,1988.76 h 1745.31 v -45.07 H 3923.2 Z m 0,175.01 c 581.76,0 1163.53,0 1745.31,0 0,-15.04 0,-30.07 0,-45.09 -581.78,0 -1163.55,0 -1745.31,0 0,15.02 0,30.05 0,45.09 z m 0,174.99 c 581.76,0 1163.53,0 1745.31,0 0,-15.02 0,-30.07 0,-45.09 -581.78,0 -1163.55,0 -1745.31,0 0,15.02 0,30.07 0,45.09 z m 0,174.99 c 581.76,0 1163.53,0 1745.31,0 0,-15.02 0,-30.05 0,-45.09 -581.78,0 -1163.55,0 -1745.31,0 0,15.04 0,30.07 0,45.09 z m 0,174.99 c 581.76,0 1163.53,0 1745.31,0 0,-15.02 0,-30.05 0,-45.09 -581.78,0 -1163.55,0 -1745.31,0 0,15.04 0,30.07 0,45.09 z m 0,174.99 c 581.76,0 1163.53,0 1745.31,0 0,-15.02 0,-30.04 0,-45.07 -581.78,0 -1163.55,0 -1745.31,0 0,15.03 0,30.05 0,45.07 z m 0,174.99 c 581.76,0 1163.53,0 1745.31,0 0,-15.02 0,-30.04 0,-45.07 -581.78,0 -1163.55,0 -1745.31,0 0,15.03 0,30.05 0,45.07 z m 0,175 c 581.76,0 1163.53,0 1745.31,0 0,-15.03 0,-30.05 0,-45.08 -581.78,0 -1163.55,0 -1745.31,0 0,15.03 0,30.05 0,45.08 z m 0,175.01 c 581.76,0 1163.53,0 1745.31,0 0,-15.05 0,-30.07 0,-45.09 -581.78,0 -1163.55,0 -1745.31,0 0,15.02 0,30.04 0,45.09 z m 0,174.99 c 581.76,0 1163.53,0 1745.31,0 0,-15.04 0,-30.07 0,-45.09 -581.78,0 -1163.55,0 -1745.31,0 0,15.02 0,30.05 0,45.09 z m 0,174.99 c 581.76,0 1163.53,0 1745.31,0 0,-15.03 0,-30.06 0,-45.08 -581.78,0 -1163.55,0 -1745.31,0 0,15.02 0,30.05 0,45.08 z m 0,174.99 c 581.76,0 1163.53,0 1745.31,0 0,-15.02 0,-30.06 0,-45.08 -581.78,0 -1163.55,0 -1745.31,0 0,15.02 0,30.06 0,45.08 z m 0,174.99 c 581.76,0 1163.53,0 1745.31,0 0,-15.02 0,-30.05 0,-45.08 -581.78,0 -1163.55,0 -1745.31,0 0,15.03 0,30.06 0,45.08 z m 0,349.99 H 5668.51 V 4393.6 H 3923.2 v 45.08 z m 0,-174.99 c 581.76,0 1163.53,0 1745.31,0 0,-15.03 0,-30.06 0,-45.08 -581.78,0 -1163.55,0 -1745.31,0 0,15.02 0,30.05 0,45.08 v 0"
         style="fill:#efecf2;fill-opacity:1;fill-rule:evenodd;stroke:none"
         transform="matrix(0.13333333,0,0,-0.13333333,0,882.66667)" />
      <path
         id="path27"
         d="m 5655.96,3432.86 135.1,-233.34 -758.77,-439.33 -135.1,233.34 758.77,439.33"
         style="fill:#edbaad;fill-opacity:1;fill-rule:evenodd;stroke:none"
         transform="matrix(0.13333333,0,0,-0.13333333,0,882.66667)" />
      <path
         id="path28"
         d="m 4897.19,2993.53 135.1,-233.34 -62.22,-36.04 -135.11,233.36 62.23,36.02"
         style="fill:#f0431f;fill-opacity:1;fill-rule:evenodd;stroke:none"
         transform="matrix(0.13333333,0,0,-0.13333333,0,882.66667)" />
      <path
         id="path29"
         d="m 4850.47,2930.69 104.07,-179.74 -131.35,-76.06 -104.08,179.77 131.36,76.03"
         style="fill:#e63521;fill-opacity:1;fill-rule:evenodd;stroke:none"
         transform="matrix(0.13333333,0,0,-0.13333333,0,882.66667)" />
      <path
         id="path30"
         d="m 5655.96,3432.86 135.1,-233.34 51.89,30.03 -135.11,233.36 -51.88,-30.05"
         style="fill:#f0431f;fill-opacity:1;fill-rule:evenodd;stroke:none"
         transform="matrix(0.13333333,0,0,-0.13333333,0,882.66667)" />
      <path
         id="path31"
         d="m 5932.99,3488.54 44.3,-76.51 c -40.88,-23.65 -56.82,-73.24 -35.44,-110.16 l -105.44,-61.05 -122.04,210.81 105.42,61.05 c 21.37,-36.95 72.32,-47.79 113.2,-24.14"
         style="fill:#edbaad;fill-opacity:1;fill-rule:evenodd;stroke:none"
         transform="matrix(0.13333333,0,0,-0.13333333,0,882.66667)" />
      <path
         id="path32"
         d="m 6007.65,3525.02 71.28,-47.35 -104.57,-60.57 -38.43,66.38 71.72,41.54"
         style="fill:#f0431f;fill-opacity:1;fill-rule:evenodd;stroke:none"
         transform="matrix(0.13333333,0,0,-0.13333333,0,882.66667)" />
      <path
         id="path33"
         d="m 5760.17,3252.89 30.89,-53.37 -758.77,-439.33 -30.91,53.36 758.79,439.34"
         style="fill:#dd9e8e;fill-opacity:1;fill-rule:evenodd;stroke:none"
         transform="matrix(0.13333333,0,0,-0.13333333,0,882.66667)" />
      <path
         id="path34"
         d="m 5001.38,2813.55 30.91,-53.36 -62.22,-36.04 -30.92,53.37 62.23,36.03"
         style="fill:#e63521;fill-opacity:1;fill-rule:evenodd;stroke:none"
         transform="matrix(0.13333333,0,0,-0.13333333,0,882.66667)" />
      <path
         id="path35"
         d="m 4928.49,2795.97 26.05,-45.02 -131.35,-76.06 -26.08,45.02 131.38,76.06"
         style="fill:#cc2d23;fill-opacity:1;fill-rule:evenodd;stroke:none"
         transform="matrix(0.13333333,0,0,-0.13333333,0,882.66667)" />
      <path
         id="path36"
         d="m 5760.17,3252.89 30.89,-53.37 51.89,30.03 -30.92,53.37 -51.86,-30.03"
         style="fill:#e63521;fill-opacity:1;fill-rule:evenodd;stroke:none"
         transform="matrix(0.13333333,0,0,-0.13333333,0,882.66667)" />
      <path
         id="path37"
         d="m 4193.37,1350.21 135.1,-233.34 51.88,30.03 -135.12,233.34 -51.86,-30.03"
         style="fill:#f0431f;fill-opacity:1;fill-rule:evenodd;stroke:none"
         transform="matrix(0.13333333,0,0,-0.13333333,0,882.66667)" />
      <path
         id="path38"
         d="m 4584.01,1576.39 135.1,-233.34 -338.76,-196.15 -135.12,233.34 338.78,196.15"
         style="fill:#edbaad;fill-opacity:1;fill-rule:evenodd;stroke:none"
         transform="matrix(0.13333333,0,0,-0.13333333,0,882.66667)" />
      <path
         id="path39"
         d="m 4537.97,1655.9 23.01,-39.77 -480.49,-278.2 -23.01,39.76 480.49,278.21"
         style="fill:#f0431f;fill-opacity:1;fill-rule:evenodd;stroke:none"
         transform="matrix(0.13333333,0,0,-0.13333333,0,882.66667)" />
      <path
         id="path40"
         d="m 4523.14,1594.24 23.04,-39.76 -70,-40.52 -23.03,39.75 69.99,40.53"
         style="fill:#cc2d23;fill-opacity:1;fill-rule:evenodd;stroke:none"
         transform="matrix(0.13333333,0,0,-0.13333333,0,882.66667)" />
      <path
         id="path41"
         d="m 4297.58,1170.24 30.89,-53.37 51.86,30.03 -30.89,53.37 -51.86,-30.03"
         style="fill:#e63521;fill-opacity:1;fill-rule:evenodd;stroke:none"
         transform="matrix(0.13333333,0,0,-0.13333333,0,882.66667)" />
      <path
         id="path42"
         d="m 4688.22,1396.41 30.89,-53.36 -338.76,-196.15 -30.91,53.37 338.78,196.14"
         style="fill:#dd9e8e;fill-opacity:1;fill-rule:evenodd;stroke:none"
         transform="matrix(0.13333333,0,0,-0.13333333,0,882.66667)" />
      <path
         id="path43"
         d="m 3486.99,5402.86 -77.87,-258.14 -839.43,253.25 77.89,258.15 839.41,-253.26"
         style="fill:#ddeefa;fill-opacity:1;fill-rule:evenodd;stroke:none"
         transform="matrix(0.13333333,0,0,-0.13333333,0,882.66667)" />
      <path
         id="path44"
         d="m 2647.58,5656.12 -77.89,-258.15 -68.82,20.78 77.87,258.13 68.84,-20.76"
         style="fill:#6398d7;fill-opacity:1;fill-rule:evenodd;stroke:none"
         transform="matrix(0.13333333,0,0,-0.13333333,0,882.66667)" />
      <path
         id="path45"
         d="m 2569.79,5647.23 -60,-198.85 -145.32,43.84 60,198.85 145.32,-43.84"
         style="fill:#4e83cb;fill-opacity:1;fill-rule:evenodd;stroke:none"
         transform="matrix(0.13333333,0,0,-0.13333333,0,882.66667)" />
      <path
         id="path46"
         d="m 3486.99,5402.86 -77.87,-258.14 57.37,-17.31 77.89,258.14 -57.39,17.31"
         style="fill:#6398d7;fill-opacity:1;fill-rule:evenodd;stroke:none"
         transform="matrix(0.13333333,0,0,-0.13333333,0,882.66667)" />
      <path
         id="path47"
         d="m 3717.06,5238.8 -25.55,-84.64 c -45.21,13.64 -92.3,-8.63 -104.63,-49.47 l -116.62,35.19 70.37,233.2 116.62,-35.19 c -12.33,-40.85 14.6,-85.44 59.81,-99.09"
         style="fill:#ddeefa;fill-opacity:1;fill-rule:evenodd;stroke:none"
         transform="matrix(0.13333333,0,0,-0.13333333,0,882.66667)" />
      <path
         id="path48"
         d="m 3794.72,5209.24 14.2,-84.37 -115.7,34.91 22.13,73.4 79.37,-23.94"
         style="fill:#6398d7;fill-opacity:1;fill-rule:evenodd;stroke:none"
         transform="matrix(0.13333333,0,0,-0.13333333,0,882.66667)" />
      <path
         id="path49"
         d="m 3426.93,5203.75 -17.81,-59.03 -839.43,253.25 17.83,59.04 839.41,-253.26"
         style="fill:#ccdef0;fill-opacity:1;fill-rule:evenodd;stroke:none"
         transform="matrix(0.13333333,0,0,-0.13333333,0,882.66667)" />
      <path
         id="path50"
         d="m 2587.52,5457.01 -17.83,-59.04 -68.82,20.78 17.8,59.03 68.85,-20.77"
         style="fill:#4e83cb;fill-opacity:1;fill-rule:evenodd;stroke:none"
         transform="matrix(0.13333333,0,0,-0.13333333,0,882.66667)" />
      <path
         id="path51"
         d="m 2524.82,5498.18 -15.03,-49.8 -145.32,43.85 15.03,49.79 145.32,-43.84"
         style="fill:#3f70c0;fill-opacity:1;fill-rule:evenodd;stroke:none"
         transform="matrix(0.13333333,0,0,-0.13333333,0,882.66667)" />
      <path
         id="path52"
         d="m 3426.93,5203.75 -17.81,-59.03 57.37,-17.31 17.83,59.04 -57.39,17.3"
         style="fill:#4e83cb;fill-opacity:1;fill-rule:evenodd;stroke:none"
         transform="matrix(0.13333333,0,0,-0.13333333,0,882.66667)" />
      <path
         id="path53"
         d="m 4857.44,5474.56 177.01,-203.39 45.21,39.34 -176.99,203.4 -45.23,-39.35"
         style="fill:#6398d7;fill-opacity:1;fill-rule:evenodd;stroke:none"
         transform="matrix(0.13333333,0,0,-0.13333333,0,882.66667)" />
      <path
         id="path54"
         d="m 5197.95,5770.88 177.01,-203.4 -295.3,-256.97 -176.99,203.4 295.28,256.97"
         style="fill:#ddeefa;fill-opacity:1;fill-rule:evenodd;stroke:none"
         transform="matrix(0.13333333,0,0,-0.13333333,0,882.66667)" />
      <path
         id="path55"
         d="m 5137.66,5840.18 30.13,-34.65 -418.83,-364.49 -30.16,34.66 418.86,364.48"
         style="fill:#6398d7;fill-opacity:1;fill-rule:evenodd;stroke:none"
         transform="matrix(0.13333333,0,0,-0.13333333,0,882.66667)" />
      <path
         id="path56"
         d="m 5134.82,5776.84 30.16,-34.66 -61.01,-53.1 -30.15,34.66 61,53.1"
         style="fill:#3f70c0;fill-opacity:1;fill-rule:evenodd;stroke:none"
         transform="matrix(0.13333333,0,0,-0.13333333,0,882.66667)" />
      <path
         id="path57"
         d="m 4993.96,5317.68 40.49,-46.52 45.21,39.35 -40.48,46.52 -45.22,-39.35"
         style="fill:#4e83cb;fill-opacity:1;fill-rule:evenodd;stroke:none"
         transform="matrix(0.13333333,0,0,-0.13333333,0,882.66667)" />
      <path
         id="path58"
         d="m 5334.48,5613.99 40.48,-46.51 -295.3,-256.97 -40.48,46.52 295.3,256.96"
         style="fill:#ccdef0;fill-opacity:1;fill-rule:evenodd;stroke:none"
         transform="matrix(0.13333333,0,0,-0.13333333,0,882.66667)" />
      <path
         id="path59"
         d="m 1728.44,4306.25 c 81.19,0 147.39,66.2 147.39,147.38 0,81.18 -66.2,147.39 -147.39,147.39 -81.17,0 -147.39,-66.21 -147.39,-147.39 0,-81.18 66.22,-147.38 147.39,-147.38"
         style="fill:#d23023;fill-opacity:1;fill-rule:evenodd;stroke:none"
         transform="matrix(0.13333333,0,0,-0.13333333,0,882.66667)" />
      <path
         id="path60"
         d="m 1705.68,4576.04 c 50.28,0 85.21,-40.76 78.03,-91.04 -7.2,-50.28 -53.78,-91.04 -104.06,-91.04 -50.28,0 -85.22,40.76 -78.02,91.04 7.18,50.28 53.78,91.04 104.05,91.04"
         style="fill:#e33b20;fill-opacity:1;fill-rule:evenodd;stroke:none"
         transform="matrix(0.13333333,0,0,-0.13333333,0,882.66667)" />
      <path
         id="path61"
         d="m 4242.13,4116.29 c 81.18,0 147.38,66.21 147.38,147.39 0,81.18 -66.2,147.39 -147.38,147.39 -81.18,0 -147.38,-66.21 -147.38,-147.39 0,-81.18 66.2,-147.39 147.38,-147.39"
         style="fill:#87b027;fill-opacity:1;fill-rule:evenodd;stroke:none"
         transform="matrix(0.13333333,0,0,-0.13333333,0,882.66667)" />
      <path
         id="path62"
         d="m 4219.38,4386.1 c 50.28,0 85.21,-40.76 78.01,-91.04 -7.18,-50.28 -53.78,-91.05 -104.06,-91.05 -50.26,0 -85.2,40.77 -78.02,91.05 7.2,50.28 53.78,91.04 104.07,91.04"
         style="fill:#9ac421;fill-opacity:1;fill-rule:evenodd;stroke:none"
         transform="matrix(0.13333333,0,0,-0.13333333,0,882.66667)" />
      <path
         id="path63"
         d="m 4057.48,2077.87 c 81.17,0 147.38,66.23 147.38,147.39 0,81.18 -66.21,147.39 -147.38,147.39 -81.18,0 -147.39,-66.21 -147.39,-147.39 0,-81.16 66.21,-147.39 147.39,-147.39"
         style="fill:#f39c0f;fill-opacity:1;fill-rule:evenodd;stroke:none"
         transform="matrix(0.13333333,0,0,-0.13333333,0,882.66667)" />
      <path
         id="path64"
         d="m 4034.73,2347.67 c 50.26,0 85.19,-40.76 78.01,-91.04 -7.2,-50.29 -53.78,-91.04 -104.06,-91.04 -50.27,0 -85.22,40.75 -78.02,91.04 7.18,50.28 53.77,91.04 104.07,91.04"
         style="fill:#fab40a;fill-opacity:1;fill-rule:evenodd;stroke:none"
         transform="matrix(0.13333333,0,0,-0.13333333,0,882.66667)" />
      <path
         id="path65"
         d="m 3217.73,1323.12 c 81.18,0 147.39,66.22 147.39,147.39 0,81.18 -66.21,147.39 -147.39,147.39 -81.18,0 -147.39,-66.21 -147.39,-147.39 0,-81.17 66.21,-147.39 147.39,-147.39"
         style="fill:#4e83cb;fill-opacity:1;fill-rule:evenodd;stroke:none"
         transform="matrix(0.13333333,0,0,-0.13333333,0,882.66667)" />
      <path
         id="path66"
         d="m 3194.96,1592.92 c 50.28,0 85.22,-40.77 78.03,-91.05 -7.2,-50.28 -53.79,-91.03 -104.06,-91.03 -50.29,0 -85.22,40.75 -78.04,91.03 7.21,50.28 53.8,91.05 104.07,91.05"
         style="fill:#6a9fda;fill-opacity:1;fill-rule:evenodd;stroke:none"
         transform="matrix(0.13333333,0,0,-0.13333333,0,882.66667)" />
      <path
         id="path67"
         d="m 2289.11,243.109 c 0,6.77 -0.97,12.602 -2.99,17.422 -1.94,4.867 -4.68,8.578 -8.22,11.231 -3.51,2.578 -7.37,3.898 -11.66,3.898 -6.76,0 -12.47,-2.859 -17.13,-8.39 -4.67,-5.61 -6.99,-13.75 -6.99,-24.61 0,-10.219 2.32,-18.14 6.92,-23.758 4.64,-5.672 10.38,-8.55 17.2,-8.55 4.09,0 7.87,1.25 11.37,3.75 3.44,2.457 6.25,6.16 8.35,11.089 2.12,4.981 3.15,10.918 3.15,17.918 z m -48.13,37.332 v -3.089 c 4.61,5.937 9.4,10.339 14.37,13.089 4.99,2.797 10.66,4.231 16.95,4.231 7.54,0 14.51,-2.063 20.87,-6.16 6.34,-4.051 11.36,-9.973 15.06,-17.813 3.69,-7.847 5.52,-17.078 5.52,-27.801 0,-7.878 -1.04,-15.187 -3.17,-21.707 -2.12,-6.632 -5.05,-12.179 -8.78,-16.652 -3.72,-4.469 -8.13,-7.949 -13.18,-10.297 -5.08,-2.453 -10.53,-3.64 -16.32,-3.64 -7.05,0 -12.94,1.449 -17.71,4.398 -4.8,2.93 -9.31,7.23 -13.61,12.941 V 169.48 c 0,-11.3 -3.94,-16.89 -11.79,-16.89 -4.62,0 -7.69,1.41 -9.16,4.332 -1.5,2.93 -2.25,7.168 -2.25,12.73 v 110.629 c 0,4.86 0.99,8.539 3.05,10.918 2.06,2.403 4.84,3.641 8.36,3.641 3.48,0 6.32,-1.238 8.51,-3.738 2.18,-2.512 3.28,-6.063 3.28,-10.661"
         style="fill:#efecf2;fill-opacity:1;fill-rule:nonzero;stroke:none"
         transform="matrix(0.13333333,0,0,-0.13333333,0,882.66667)" />
      <path
         id="path68"
         d="m 2397.29,205.082 v 3.258 c -2.97,-3.899 -6.04,-7.121 -9.3,-9.719 -3.24,-2.691 -6.77,-4.641 -10.59,-5.91 -3.86,-1.25 -8.24,-1.91 -13.15,-1.91 -5.92,0 -11.25,1.301 -15.95,3.828 -4.73,2.582 -8.36,6.109 -10.92,10.609 -3.1,5.453 -4.61,13.282 -4.61,23.434 v 50.808 c 0,5.102 1.11,8.961 3.34,11.461 2.22,2.551 5.14,3.848 8.8,3.848 3.73,0 6.72,-1.297 9,-3.887 2.27,-2.57 3.41,-6.414 3.41,-11.422 v -41.039 c 0,-5.921 0.49,-10.91 1.4,-14.929 1.01,-4.071 2.72,-7.231 5.25,-9.532 2.45,-2.261 5.82,-3.39 10.07,-3.39 4.18,0 8.08,1.289 11.7,3.851 3.69,2.547 6.36,5.868 8.02,9.989 1.41,3.672 2.07,11.609 2.07,23.879 v 31.171 c 0,5.008 1.14,8.852 3.43,11.422 2.26,2.59 5.22,3.887 8.87,3.887 3.68,0 6.61,-1.297 8.82,-3.848 2.21,-2.5 3.3,-6.359 3.3,-11.461 v -74.242 c 0,-4.879 -1.03,-8.558 -3.18,-10.957 -2.09,-2.468 -4.84,-3.66 -8.21,-3.66 -3.34,0 -6.11,1.277 -8.3,3.77 -2.18,2.57 -3.27,6.078 -3.27,10.691"
         style="fill:#efecf2;fill-opacity:1;fill-rule:nonzero;stroke:none"
         transform="matrix(0.13333333,0,0,-0.13333333,0,882.66667)" />
      <path
         id="path69"
         d="m 2468.52,242.09 c 0,-10.192 2.21,-18.008 6.66,-23.512 4.48,-5.449 10.34,-8.226 17.61,-8.226 6.2,0 11.49,2.82 15.99,8.418 4.48,5.609 6.69,13.582 6.69,24.05 0,6.84 -0.92,12.649 -2.77,17.489 -1.88,4.902 -4.55,8.679 -7.91,11.339 -3.48,2.633 -7.43,4.012 -12,4.012 -4.71,0 -8.83,-1.379 -12.5,-4.012 -3.68,-2.66 -6.54,-6.539 -8.65,-11.558 -2.09,-5 -3.12,-11 -3.12,-18 z m -1.18,76.172 v -39.16 c 4.57,5.058 9.3,8.847 14.1,11.546 4.8,2.661 10.75,4.024 17.83,4.024 8.14,0 15.28,-2.063 21.45,-6.082 6.13,-4.102 10.92,-9.91 14.29,-17.559 3.42,-7.679 5.09,-16.742 5.09,-27.261 0,-7.79 -0.93,-14.899 -2.81,-21.411 -1.9,-6.457 -4.63,-12.05 -8.22,-16.828 -3.63,-4.761 -7.99,-8.379 -13.11,-11.082 -5.14,-2.551 -10.79,-3.847 -16.95,-3.847 -3.78,0 -7.33,0.457 -10.68,1.41 -3.34,0.929 -6.18,2.136 -8.49,3.707 -2.36,1.492 -4.35,3.09 -6,4.691 -1.65,1.649 -3.8,4.078 -6.5,7.328 v -2.5 c 0,-4.859 -1.13,-8.488 -3.36,-10.957 -2.2,-2.468 -5.04,-3.679 -8.43,-3.679 -3.49,0 -6.24,1.211 -8.34,3.679 -2.06,2.551 -3.09,6.129 -3.09,10.957 V 317.16 c 0,5.141 1.01,9.082 3.03,11.731 2,2.679 4.78,4 8.4,4 3.75,0 6.68,-1.282 8.7,-3.832 2.06,-2.52 3.09,-6.09 3.09,-10.797"
         style="fill:#efecf2;fill-opacity:1;fill-rule:nonzero;stroke:none"
         transform="matrix(0.13333333,0,0,-0.13333333,0,882.66667)" />
      <path
         id="path70"
         d="m 2557.43,206.18 v 111.129 c 0,5.16 1.09,9.023 3.27,11.652 2.2,2.609 5.15,3.93 8.87,3.93 3.71,0 6.7,-1.289 9,-3.911 2.25,-2.57 3.4,-6.5 3.4,-11.671 V 206.18 c 0,-5.168 -1.17,-9.098 -3.46,-11.731 -2.3,-2.551 -5.29,-3.847 -8.94,-3.847 -3.6,0 -6.49,1.328 -8.76,4.027 -2.26,2.711 -3.38,6.531 -3.38,11.551"
         style="fill:#efecf2;fill-opacity:1;fill-rule:nonzero;stroke:none"
         transform="matrix(0.13333333,0,0,-0.13333333,0,882.66667)" />
      <path
         id="path71"
         d="M 2631.88,280.199 V 206.18 c 0,-5.16 -1.19,-9.028 -3.48,-11.668 -2.35,-2.582 -5.34,-3.91 -8.91,-3.91 -3.61,0 -6.53,1.328 -8.77,4.019 -2.24,2.719 -3.38,6.539 -3.38,11.559 v 73.3 c 0,5.008 1.14,8.852 3.38,11.422 2.24,2.59 5.16,3.887 8.77,3.887 3.57,0 6.56,-1.297 8.91,-3.887 2.29,-2.57 3.48,-6.113 3.48,-10.703 z m -12.15,26.52 c -3.4,0 -6.31,1.062 -8.79,3.332 -2.36,2.168 -3.6,5.308 -3.6,9.308 0,3.61 1.24,6.563 3.73,8.973 2.47,2.328 5.37,3.449 8.66,3.449 3.19,0 6.02,-1.043 8.48,-3.16 2.43,-2.121 3.67,-5.25 3.67,-9.262 0,-3.988 -1.21,-7.05 -3.59,-9.25 -2.4,-2.23 -5.24,-3.39 -8.56,-3.39"
         style="fill:#efecf2;fill-opacity:1;fill-rule:nonzero;stroke:none"
         transform="matrix(0.13333333,0,0,-0.13333333,0,882.66667)" />
      <path
         id="path72"
         d="m 2745.21,222.32 c 0,-3.179 -0.9,-6.601 -2.72,-10.218 -1.87,-3.633 -4.65,-7.082 -8.4,-10.36 -3.74,-3.281 -8.46,-5.933 -14.15,-7.902 -5.69,-2.051 -12.13,-3.039 -19.23,-3.039 -15.19,0 -27.02,4.621 -35.54,13.82 -8.52,9.27 -12.77,21.598 -12.77,37.129 0,10.5 1.94,19.82 5.82,27.859 3.9,8.051 9.57,14.332 16.92,18.723 7.35,4.43 16.19,6.629 26.42,6.629 6.37,0 12.22,-0.992 17.52,-2.891 5.31,-1.949 9.81,-4.48 13.47,-7.511 3.7,-3.071 6.5,-6.34 8.49,-9.797 1.97,-3.481 2.9,-6.723 2.9,-9.731 0,-3.031 -1.11,-5.609 -3.27,-7.761 -2.2,-2.149 -4.83,-3.219 -7.96,-3.219 -2.06,0 -3.74,0.609 -5.1,1.699 -1.32,1.051 -2.86,2.781 -4.53,5.27 -3.01,4.718 -6.14,8.312 -9.41,10.742 -3.27,2.347 -7.43,3.59 -12.42,3.59 -7.29,0 -13.14,-3.012 -17.58,-8.903 -4.43,-5.957 -6.63,-14.051 -6.63,-24.289 0,-4.808 0.58,-9.301 1.71,-13.32 1.14,-4.039 2.79,-7.438 4.92,-10.32 2.17,-2.86 4.76,-5 7.85,-6.461 3.05,-1.477 6.41,-2.239 10.04,-2.239 4.95,0 9.14,1.18 12.65,3.582 3.52,2.387 6.63,6.02 9.3,10.86 1.53,2.929 3.14,5.16 4.88,6.828 1.75,1.609 3.88,2.39 6.39,2.39 2.99,0 5.48,-1.171 7.48,-3.519 1.93,-2.43 2.95,-4.949 2.95,-7.641"
         style="fill:#efecf2;fill-opacity:1;fill-rule:nonzero;stroke:none"
         transform="matrix(0.13333333,0,0,-0.13333333,0,882.66667)" />
      <path
         id="path73"
         d="m 2785.65,242.82 c 0,-6.929 1.03,-12.82 3.1,-17.73 2.08,-4.891 4.87,-8.531 8.45,-10.988 3.64,-2.5 7.56,-3.75 11.77,-3.75 4.35,0 8.29,1.199 11.84,3.539 3.57,2.351 6.41,5.949 8.57,10.8 2.11,4.84 3.16,10.911 3.16,18.129 0,6.86 -1.05,12.711 -3.16,17.621 -2.16,4.957 -5.01,8.668 -8.65,11.321 -3.63,2.578 -7.59,3.898 -11.89,3.898 -4.48,0 -8.5,-1.379 -12.06,-4.012 -3.5,-2.66 -6.27,-6.488 -8.21,-11.476 -1.94,-5 -2.92,-10.711 -2.92,-17.352 z m 48.25,-37.582 v 2.5 c -3.28,-3.937 -6.55,-7.129 -9.77,-9.597 -3.18,-2.481 -6.67,-4.352 -10.42,-5.649 -3.72,-1.23 -7.84,-1.89 -12.27,-1.89 -5.85,0 -11.32,1.296 -16.31,3.847 -4.99,2.703 -9.33,6.352 -12.98,11.172 -3.65,4.801 -6.42,10.481 -8.34,17.008 -1.9,6.473 -2.82,13.519 -2.82,21.141 0,15.972 3.76,28.511 11.24,37.46 7.51,8.95 17.36,13.442 29.58,13.442 7.08,0 13.05,-1.301 17.89,-3.891 4.85,-2.492 9.59,-6.41 14.2,-11.679 v 37.828 c 0,5.281 1,9.23 3.03,11.922 2,2.699 4.83,4.039 8.56,4.039 3.72,0 6.56,-1.231 8.6,-3.68 2.01,-2.461 3.04,-6.141 3.04,-10.949 V 205.238 c 0,-4.879 -1.09,-8.558 -3.26,-10.957 -2.16,-2.468 -4.95,-3.679 -8.38,-3.679 -3.31,0 -6.12,1.25 -8.32,3.789 -2.18,2.5 -3.27,6.101 -3.27,10.847"
         style="fill:#efecf2;fill-opacity:1;fill-rule:nonzero;stroke:none"
         transform="matrix(0.13333333,0,0,-0.13333333,0,882.66667)" />
      <path
         id="path74"
         d="m 2949.03,242.641 c 0,10.398 -2.22,18.55 -6.63,24.359 -4.4,5.801 -10.34,8.75 -17.75,8.75 -4.83,0 -9.02,-1.328 -12.7,-3.91 -3.64,-2.621 -6.47,-6.442 -8.43,-11.531 -1.99,-5.008 -2.98,-10.911 -2.98,-17.668 0,-6.7 0.99,-12.551 2.93,-17.551 1.95,-4.988 4.73,-8.82 8.38,-11.52 3.59,-2.609 7.92,-3.918 12.8,-3.918 7.41,0 13.35,2.879 17.75,8.739 4.41,5.82 6.63,13.918 6.63,24.25 z m 24.63,0 c 0,-7.621 -1.14,-14.641 -3.42,-21.153 -2.27,-6.367 -5.56,-11.929 -9.86,-16.578 -4.34,-4.64 -9.5,-8.078 -15.5,-10.629 -5.99,-2.468 -12.78,-3.679 -20.23,-3.679 -7.43,0 -14.1,1.211 -20.06,3.757 -5.93,2.481 -11.07,6.051 -15.43,10.723 -4.34,4.688 -7.62,10.148 -9.91,16.5 -2.24,6.387 -3.34,13.367 -3.34,21.098 0,7.75 1.14,14.851 3.41,21.269 2.29,6.461 5.54,11.953 9.79,16.563 4.27,4.527 9.41,8.066 15.48,10.527 6.08,2.473 12.74,3.75 20.06,3.75 7.44,0 14.2,-1.277 20.23,-3.777 6.04,-2.512 11.23,-6.114 15.55,-10.731 4.33,-4.621 7.61,-10.152 9.83,-16.539 2.3,-6.363 3.4,-13.422 3.4,-21.101"
         style="fill:#efecf2;fill-opacity:1;fill-rule:nonzero;stroke:none"
         transform="matrix(0.13333333,0,0,-0.13333333,0,882.66667)" />
      <path
         id="path75"
         d="m 3077.36,263.781 c -1.83,-4.332 -2.72,-11.941 -2.72,-22.961 v -34.05 c 0,-5.36 -1.15,-9.43 -3.52,-12.141 -2.32,-2.699 -5.43,-4.027 -9.27,-4.027 -3.7,0 -6.69,1.328 -8.99,4.027 -2.31,2.711 -3.45,6.781 -3.45,12.141 v 40.851 c 0,6.43 -0.24,11.438 -0.66,15.051 -0.43,3.527 -1.56,6.476 -3.41,8.769 -1.83,2.289 -4.79,3.438 -8.79,3.438 -8.02,0 -13.29,-2.879 -15.88,-8.68 -2.55,-5.758 -3.79,-14.008 -3.79,-24.789 v -34.64 c 0,-5.348 -1.17,-9.391 -3.46,-12.051 -2.32,-2.789 -5.37,-4.117 -9.1,-4.117 -3.74,0 -6.82,1.328 -9.16,4.117 -2.39,2.66 -3.53,6.703 -3.53,12.011 v 73.352 c 0,4.816 1.03,8.496 3.13,10.969 2.16,2.488 4.95,3.789 8.44,3.789 3.36,0 6.17,-1.18 8.41,-3.52 2.25,-2.34 3.37,-5.558 3.37,-9.711 v -2.437 c 4.24,5.316 8.81,9.258 13.65,11.73 4.85,2.477 10.3,3.77 16.19,3.77 6.18,0 11.43,-1.301 15.89,-3.891 4.46,-2.551 8.09,-6.441 10.95,-11.609 4.15,5.199 8.6,9.16 13.33,11.668 4.76,2.539 9.98,3.832 15.72,3.832 6.76,0 12.52,-1.363 17.36,-4.152 4.87,-2.782 8.49,-6.68 10.89,-11.84 2.11,-4.621 3.14,-11.899 3.14,-21.879 V 206.77 c 0,-5.36 -1.15,-9.43 -3.47,-12.141 -2.38,-2.699 -5.44,-4.027 -9.28,-4.027 -3.72,0 -6.78,1.328 -9.12,4.117 -2.4,2.66 -3.59,6.703 -3.59,12.051 v 43.109 c 0,5.5 -0.22,9.902 -0.66,13.242 -0.45,3.34 -1.66,6.098 -3.66,8.359 -1.96,2.25 -4.98,3.399 -8.97,3.399 -3.23,0 -6.32,-1.027 -9.18,-2.988 -2.96,-2.032 -5.18,-4.719 -6.81,-8.11 v 0"
         style="fill:#efecf2;fill-opacity:1;fill-rule:nonzero;stroke:none"
         transform="matrix(0.13333333,0,0,-0.13333333,0,882.66667)" />
      <path
         id="path76"
         d="m 3216.4,242.16 c -3.62,-1.43 -8.85,-2.847 -15.72,-4.422 -6.86,-1.519 -11.63,-2.609 -14.27,-3.367 -2.65,-0.742 -5.15,-2.109 -7.54,-4.199 -2.42,-2.16 -3.61,-5.082 -3.61,-8.84 0,-3.902 1.41,-7.184 4.23,-9.883 2.82,-2.777 6.52,-4.121 11.08,-4.121 4.84,0 9.35,1.141 13.44,3.363 4.12,2.207 7.14,5.098 9.04,8.579 2.22,3.878 3.35,10.261 3.35,19.23 z m 1.6,-37.14 c -5.96,-4.809 -11.69,-8.43 -17.24,-10.778 -5.53,-2.453 -11.76,-3.64 -18.64,-3.64 -6.32,0 -11.83,1.296 -16.61,3.847 -4.78,2.633 -8.44,6.16 -11.03,10.633 -2.57,4.438 -3.87,9.231 -3.87,14.438 0,7 2.17,12.96 6.41,17.929 4.23,4.891 10.07,8.211 17.5,9.93 1.56,0.371 5.46,1.191 11.62,2.5 6.2,1.351 11.46,2.519 15.92,3.641 4.38,1.05 9.19,2.39 14.34,3.941 -0.33,6.809 -1.62,11.758 -3.91,14.961 -2.32,3.141 -7.14,4.687 -14.37,4.687 -6.25,0 -10.92,-0.867 -14.12,-2.718 -3.13,-1.762 -5.83,-4.532 -8.06,-8.192 -2.26,-3.609 -3.83,-6 -4.76,-7.179 -0.95,-1.161 -2.95,-1.692 -5.97,-1.692 -2.79,0 -5.16,0.902 -7.13,2.731 -2.04,1.863 -3.06,4.211 -3.06,7.113 0,4.5 1.55,8.898 4.6,13.109 3.06,4.278 7.82,7.782 14.3,10.559 6.47,2.762 14.54,4.121 24.2,4.121 10.78,0 19.27,-1.359 25.48,-4.02 6.17,-2.609 10.5,-6.781 13.05,-12.601 2.57,-5.711 3.85,-13.399 3.85,-22.871 0,-6.008 0,-11.156 -0.06,-15.309 -0.05,-4.219 -0.06,-8.89 -0.13,-14.019 0,-4.809 0.76,-9.86 2.3,-15.039 1.49,-5.2 2.26,-8.61 2.26,-10.082 0,-2.618 -1.22,-5.051 -3.56,-7.18 -2.32,-2.149 -5.02,-3.238 -8.01,-3.238 -2.54,0 -4.99,1.211 -7.49,3.679 -2.44,2.469 -5.05,6.078 -7.81,10.739"
         style="fill:#efecf2;fill-opacity:1;fill-rule:nonzero;stroke:none"
         transform="matrix(0.13333333,0,0,-0.13333333,0,882.66667)" />
      <path
         id="path77"
         d="M 3289.99,280.199 V 206.18 c 0,-5.16 -1.19,-9.028 -3.51,-11.668 -2.33,-2.582 -5.28,-3.91 -8.88,-3.91 -3.6,0 -6.56,1.328 -8.78,4.019 -2.26,2.719 -3.38,6.539 -3.38,11.559 v 73.3 c 0,5.008 1.12,8.852 3.38,11.422 2.22,2.59 5.18,3.887 8.78,3.887 3.6,0 6.55,-1.297 8.88,-3.887 2.32,-2.57 3.51,-6.113 3.51,-10.703 z m -12.14,26.52 c -3.4,0 -6.3,1.062 -8.75,3.332 -2.43,2.168 -3.66,5.308 -3.66,9.308 0,3.61 1.26,6.563 3.76,8.973 2.47,2.328 5.37,3.449 8.65,3.449 3.16,0 6.01,-1.043 8.48,-3.16 2.42,-2.121 3.66,-5.25 3.66,-9.262 0,-3.988 -1.2,-7.05 -3.59,-9.25 -2.42,-2.23 -5.26,-3.39 -8.55,-3.39"
         style="fill:#efecf2;fill-opacity:1;fill-rule:nonzero;stroke:none"
         transform="matrix(0.13333333,0,0,-0.13333333,0,882.66667)" />
      <path
         id="path78"
         d="m 3337.69,280.582 v -3.07 c 4.26,5.918 9.01,10.289 14.11,13.058 5.14,2.801 11.01,4.219 17.73,4.219 6.44,0 12.23,-1.48 17.36,-4.469 5.05,-2.91 8.89,-7.031 11.39,-12.422 1.61,-3.136 2.64,-6.558 3.15,-10.16 0.45,-3.617 0.73,-8.238 0.73,-13.886 V 206.18 c 0,-5.16 -1.17,-9.028 -3.39,-11.668 -2.26,-2.582 -5.19,-3.91 -8.76,-3.91 -3.64,0 -6.63,1.328 -8.84,4.027 -2.29,2.711 -3.46,6.531 -3.46,11.551 v 42.679 c 0,8.469 -1.09,14.922 -3.34,19.403 -2.31,4.468 -6.78,6.718 -13.5,6.718 -4.37,0 -8.36,-1.371 -11.96,-4.121 -3.6,-2.679 -6.22,-6.429 -7.9,-11.199 -1.21,-3.789 -1.83,-10.918 -1.83,-21.43 v -32.05 c 0,-5.168 -1.13,-9.098 -3.46,-11.731 -2.32,-2.551 -5.29,-3.847 -8.93,-3.847 -3.53,0 -6.46,1.328 -8.72,4.019 -2.32,2.719 -3.43,6.539 -3.43,11.559 v 74.019 c 0,4.91 1,8.52 3.07,10.942 2.01,2.398 4.85,3.648 8.35,3.648 2.15,0 4.13,-0.59 5.82,-1.629 1.8,-1.039 3.15,-2.68 4.2,-4.73 1.02,-2.2 1.61,-4.77 1.61,-7.848"
         style="fill:#efecf2;fill-opacity:1;fill-rule:nonzero;stroke:none"
         transform="matrix(0.13333333,0,0,-0.13333333,0,882.66667)" />
      <path
         id="path79"
         d="m 3441.55,278.809 19.84,-58.168 21.4,60.711 c 1.72,4.878 3.35,8.3 4.99,10.359 1.64,2.008 4.06,3.078 7.34,3.078 3.14,0 5.79,-1.129 8.01,-3.34 2.16,-2.187 3.28,-4.668 3.28,-7.609 0,-1.11 -0.23,-2.399 -0.61,-3.871 -0.36,-1.547 -0.82,-2.969 -1.35,-4.297 -0.51,-1.281 -1.04,-2.801 -1.74,-4.461 l -23.57,-61 c -0.66,-1.742 -1.53,-4 -2.56,-6.68 -1.08,-2.672 -2.25,-4.961 -3.52,-6.941 -1.31,-1.871 -2.88,-3.328 -4.75,-4.399 -1.91,-1.05 -4.22,-1.589 -6.92,-1.589 -3.47,0 -6.25,0.808 -8.32,2.461 -2.09,1.656 -3.63,3.449 -4.58,5.468 -0.99,1.938 -2.68,5.84 -5,11.68 l -23.4,60.328 c -0.55,1.5 -1.11,3.012 -1.7,4.492 -0.55,1.508 -0.99,3.008 -1.41,4.61 -0.36,1.589 -0.58,2.929 -0.58,4.019 0,1.781 0.5,3.512 1.55,5.219 1.01,1.742 2.44,3.18 4.23,4.242 1.81,1.078 3.72,1.668 5.85,1.668 4.05,0 6.87,-1.25 8.4,-3.738 1.54,-2.41 3.25,-6.492 5.12,-12.242"
         style="fill:#efecf2;fill-opacity:1;fill-rule:nonzero;stroke:none"
         transform="matrix(0.13333333,0,0,-0.13333333,0,882.66667)" />
      <path
         id="path80"
         d="m 3541.98,250.98 h 44.51 c -0.58,8.75 -2.83,15.309 -6.78,19.641 -3.95,4.309 -9.11,6.488 -15.53,6.488 -6.08,0 -11.12,-2.199 -15.03,-6.589 -3.94,-4.399 -6.28,-10.918 -7.17,-19.54 z m 48.05,-14.55 h -48.05 c 0.02,-5.867 1.19,-10.981 3.34,-15.469 2.23,-4.402 5.13,-7.731 8.74,-10 3.64,-2.289 7.66,-3.371 12.03,-3.371 2.92,0 5.63,0.351 8.04,1.039 2.43,0.762 4.79,1.891 7.09,3.402 2.24,1.52 4.33,3.16 6.26,4.957 1.9,1.723 4.45,4.071 7.45,7.094 1.29,1.188 3.09,1.707 5.4,1.707 2.55,0 4.58,-0.699 6.13,-2.16 1.58,-1.438 2.33,-3.449 2.33,-6.059 0,-2.34 -0.86,-5.058 -2.63,-8.179 -1.72,-3.059 -4.28,-6.039 -7.85,-8.922 -3.52,-2.817 -7.93,-5.168 -13.23,-7.09 -5.28,-1.859 -11.35,-2.777 -18.29,-2.777 -15.76,0 -28.03,4.699 -36.76,14.058 -8.73,9.43 -13.11,22.121 -13.11,38.16 0,7.68 1.11,14.641 3.24,21.102 2.15,6.488 5.29,12.039 9.42,16.66 4.15,4.656 9.22,8.238 15.29,10.668 6.08,2.469 12.77,3.711 20.18,3.711 9.52,0 17.76,-2.109 24.64,-6.371 6.86,-4.219 12.01,-9.621 15.41,-16.309 3.44,-6.711 5.13,-13.531 5.13,-20.511 0,-6.399 -1.7,-10.579 -5.29,-12.481 -3.57,-1.937 -8.49,-2.859 -14.91,-2.859"
         style="fill:#efecf2;fill-opacity:1;fill-rule:nonzero;stroke:none"
         transform="matrix(0.13333333,0,0,-0.13333333,0,882.66667)" />
      <path
         id="path81"
         d="m 3718.99,222.32 c 0,-3.179 -0.88,-6.601 -2.75,-10.218 -1.84,-3.633 -4.59,-7.082 -8.36,-10.36 -3.74,-3.281 -8.49,-5.933 -14.2,-7.902 -5.66,-2.051 -12.11,-3.039 -19.21,-3.039 -15.2,0 -27.04,4.621 -35.53,13.82 -8.49,9.27 -12.79,21.598 -12.79,37.129 0,10.5 1.95,19.82 5.87,27.859 3.9,8.051 9.5,14.332 16.9,18.723 7.34,4.43 16.19,6.629 26.45,6.629 6.34,0 12.16,-0.992 17.5,-2.891 5.28,-1.949 9.76,-4.48 13.5,-7.511 3.68,-3.071 6.48,-6.34 8.46,-9.797 1.91,-3.481 2.9,-6.723 2.9,-9.731 0,-3.031 -1.08,-5.609 -3.33,-7.761 -2.16,-2.149 -4.81,-3.219 -7.92,-3.219 -2.06,0 -3.74,0.609 -5.04,1.699 -1.4,1.051 -2.9,2.781 -4.61,5.27 -2.99,4.718 -6.1,8.312 -9.36,10.742 -3.28,2.347 -7.43,3.59 -12.5,3.59 -7.2,0 -13.09,-3.012 -17.5,-8.903 -4.47,-5.957 -6.65,-14.051 -6.65,-24.289 0,-4.808 0.59,-9.301 1.69,-13.32 1.15,-4.039 2.81,-7.438 4.96,-10.32 2.17,-2.86 4.79,-5 7.85,-6.461 3,-1.477 6.37,-2.239 10.05,-2.239 4.9,0 9.14,1.18 12.65,3.582 3.48,2.387 6.62,6.02 9.32,10.86 1.49,2.929 3.08,5.16 4.83,6.828 1.73,1.609 3.85,2.39 6.39,2.39 2.97,0 5.49,-1.171 7.42,-3.519 2.02,-2.43 3.01,-4.949 3.01,-7.641"
         style="fill:#efecf2;fill-opacity:1;fill-rule:nonzero;stroke:none"
         transform="matrix(0.13333333,0,0,-0.13333333,0,882.66667)" />
      <path
         id="path82"
         d="m 3741.8,292.609 h 2.71 v 15.403 c 0,4.097 0.1,7.359 0.31,9.699 0.22,2.348 0.76,4.328 1.77,6.039 0.94,1.73 2.32,3.172 4.14,4.289 1.77,1.07 3.77,1.602 6,1.602 3.11,0 5.94,-1.219 8.45,-3.629 1.64,-1.66 2.73,-3.633 3.19,-5.953 0.44,-2.348 0.66,-5.707 0.66,-10.008 v -17.442 h 9.03 c 3.46,0 6.11,-0.867 7.95,-2.597 1.86,-1.723 2.75,-3.903 2.75,-6.602 0,-3.441 -1.3,-5.898 -3.94,-7.23 -2.58,-1.36 -6.32,-2.071 -11.19,-2.071 h -4.6 v -47.187 c 0,-4.012 0.13,-7.082 0.39,-9.262 0.32,-2.18 1.07,-3.941 2.22,-5.25 1.14,-1.351 3.04,-2.058 5.68,-2.058 1.46,0 3.38,0.269 5.87,0.82 2.42,0.539 4.34,0.797 5.76,0.797 1.96,0 3.77,-0.867 5.33,-2.449 1.57,-1.711 2.39,-3.719 2.39,-6.168 0,-4.122 -2.11,-7.282 -6.46,-9.481 -4.36,-2.18 -10.55,-3.269 -18.62,-3.269 -7.68,0 -13.51,1.328 -17.47,4.027 -3.94,2.711 -6.57,6.391 -7.74,11.211 -1.27,4.75 -1.87,11.082 -1.87,19.051 v 49.218 h -3.29 c -3.46,0 -6.16,0.871 -8.04,2.661 -1.88,1.742 -2.79,3.941 -2.79,6.64 0,2.699 0.98,4.879 2.9,6.602 1.97,1.73 4.81,2.597 8.51,2.597"
         style="fill:#efecf2;fill-opacity:1;fill-rule:nonzero;stroke:none"
         transform="matrix(0.13333333,0,0,-0.13333333,0,882.66667)" />
      <path
         id="path83"
         d="m 3872.87,242.641 c 0,10.398 -2.22,18.55 -6.59,24.359 -4.44,5.801 -10.32,8.75 -17.78,8.75 -4.8,0 -9.02,-1.328 -12.67,-3.91 -3.68,-2.621 -6.49,-6.442 -8.46,-11.531 -1.97,-5.008 -2.97,-10.911 -2.97,-17.668 0,-6.7 1,-12.551 2.95,-17.551 1.93,-4.988 4.7,-8.82 8.32,-11.52 3.63,-2.609 7.88,-3.918 12.83,-3.918 7.46,0 13.34,2.879 17.78,8.739 4.37,5.82 6.59,13.918 6.59,24.25 z m 24.65,0 c 0,-7.621 -1.13,-14.641 -3.44,-21.153 -2.26,-6.367 -5.57,-11.929 -9.87,-16.578 -4.33,-4.64 -9.49,-8.078 -15.47,-10.629 -5.99,-2.468 -12.7,-3.679 -20.24,-3.679 -7.46,0 -14.14,1.211 -20.06,3.757 -5.94,2.481 -11.11,6.051 -15.41,10.723 -4.35,4.688 -7.66,10.148 -9.89,16.5 -2.23,6.387 -3.33,13.367 -3.33,21.098 0,7.75 1.1,14.851 3.33,21.269 2.36,6.461 5.57,11.953 9.83,16.563 4.28,4.527 9.43,8.066 15.47,10.527 6.1,2.473 12.77,3.75 20.06,3.75 7.46,0 14.17,-1.277 20.24,-3.777 6.06,-2.512 11.23,-6.114 15.55,-10.731 4.27,-4.621 7.63,-10.152 9.86,-16.539 2.24,-6.363 3.37,-13.422 3.37,-21.101"
         style="fill:#efecf2;fill-opacity:1;fill-rule:nonzero;stroke:none"
         transform="matrix(0.13333333,0,0,-0.13333333,0,882.66667)" />
      <path
         id="path84"
         d="M 3941.26,227.531 V 206.18 c 0,-5.168 -1.17,-9.098 -3.52,-11.731 -2.34,-2.551 -5.31,-3.847 -8.93,-3.847 -3.5,0 -6.44,1.328 -8.7,3.91 -2.28,2.64 -3.39,6.508 -3.39,11.668 v 71.312 c 0,11.539 3.96,17.297 11.94,17.297 4.04,0 7.01,-1.41 8.82,-4.07 1.78,-2.656 2.73,-6.668 2.98,-11.91 2.92,5.242 5.94,9.254 9.03,11.91 3.1,2.66 7.2,4.07 12.32,4.07 5.21,0 10.19,-1.41 15.07,-4.07 4.83,-2.656 7.29,-6.258 7.29,-10.688 0,-3.121 -1.07,-5.75 -3.13,-7.75 -2.04,-2.019 -4.29,-3.062 -6.7,-3.062 -0.9,0 -3.08,0.59 -6.53,1.781 -3.45,1.141 -6.5,1.73 -9.15,1.73 -3.57,0 -6.5,-0.968 -8.76,-2.98 -2.28,-2 -4.06,-4.879 -5.32,-8.738 -1.26,-3.942 -2.17,-8.52 -2.61,-13.91 -0.47,-5.301 -0.71,-11.813 -0.71,-19.571"
         style="fill:#efecf2;fill-opacity:1;fill-rule:nonzero;stroke:none"
         transform="matrix(0.13333333,0,0,-0.13333333,0,882.66667)" />
      <path
         id="path85"
         d="m 4072.03,224.051 c 0,-7.063 -1.65,-13.09 -4.99,-18.141 -3.31,-5.051 -8.16,-8.828 -14.61,-11.469 -6.46,-2.543 -14.29,-3.839 -23.57,-3.839 -8.74,0 -16.34,1.41 -22.65,4.218 -6.29,2.832 -10.96,6.309 -13.92,10.539 -3.02,4.2 -4.58,8.442 -4.58,12.68 0,2.813 1.01,5.242 2.96,7.231 1.91,2.019 4.35,3.011 7.25,3.011 2.59,0 4.59,-0.66 5.96,-1.961 1.4,-1.371 2.66,-3.199 3.96,-5.55 2.52,-4.61 5.51,-8.008 9.07,-10.25 3.44,-2.29 8.26,-3.399 14.35,-3.399 4.89,0 8.94,1.141 12.08,3.461 3.12,2.238 4.76,4.879 4.76,7.809 0,4.519 -1.66,7.828 -4.9,9.847 -3.32,2.114 -8.66,4.071 -16.18,5.942 -8.44,2.23 -15.33,4.511 -20.63,6.898 -5.33,2.414 -9.62,5.613 -12.77,9.551 -3.16,3.91 -4.78,8.793 -4.78,14.562 0,5.129 1.47,9.989 4.41,14.508 2.93,4.614 7.32,8.242 13.03,10.949 5.71,2.731 12.63,4.141 20.74,4.141 6.35,0 12.06,-0.75 17.15,-2.09 5.05,-1.379 9.33,-3.23 12.66,-5.527 3.39,-2.332 6,-4.883 7.75,-7.692 1.8,-2.859 2.68,-5.601 2.68,-8.269 0,-2.949 -0.94,-5.301 -2.86,-7.262 -1.89,-1.797 -4.61,-2.777 -8.03,-2.777 -2.54,0 -4.67,0.75 -6.46,2.297 -1.74,1.461 -3.8,3.703 -6.06,6.683 -1.86,2.52 -4.04,4.539 -6.58,6.028 -2.53,1.48 -5.95,2.242 -10.25,2.242 -4.44,0 -8.15,-0.961 -11.04,-2.961 -2.96,-1.961 -4.45,-4.43 -4.45,-7.371 0,-2.692 1.1,-4.899 3.23,-6.629 2.19,-1.719 5.07,-3.141 8.75,-4.281 3.67,-1.141 8.71,-2.52 15.12,-4.141 7.61,-1.918 13.84,-4.238 18.67,-6.949 4.83,-2.66 8.48,-5.828 10.96,-9.508 2.52,-3.703 3.77,-7.863 3.77,-12.531"
         style="fill:#efecf2;fill-opacity:1;fill-rule:nonzero;stroke:none"
         transform="matrix(0.13333333,0,0,-0.13333333,0,882.66667)" />
      <path
         id="path86"
         d="m 4099.89,190.602 c -3.7,0 -6.91,1.211 -9.58,3.757 -2.75,2.481 -4.07,6 -4.07,10.469 0,3.801 1.26,7.094 3.81,9.871 2.59,2.731 5.8,4.071 9.57,4.071 3.75,0 6.99,-1.34 9.6,-4.051 2.7,-2.688 4.06,-6.047 4.06,-9.891 0,-4.449 -1.36,-7.937 -4.06,-10.437 -2.61,-2.539 -5.71,-3.789 -9.33,-3.789"
         style="fill:#efecf2;fill-opacity:1;fill-rule:nonzero;stroke:none"
         transform="matrix(0.13333333,0,0,-0.13333333,0,882.66667)" />
      <path
         id="path87"
         d="m 4208.47,242.641 c 0,10.398 -2.22,18.55 -6.62,24.359 -4.41,5.801 -10.31,8.75 -17.74,8.75 -4.8,0 -8.98,-1.328 -12.66,-3.91 -3.68,-2.621 -6.48,-6.442 -8.44,-11.531 -1.96,-5.008 -2.97,-10.911 -2.97,-17.668 0,-6.7 0.95,-12.551 2.88,-17.551 2.01,-4.988 4.78,-8.82 8.42,-11.52 3.59,-2.609 7.87,-3.918 12.77,-3.918 7.43,0 13.33,2.879 17.74,8.739 4.4,5.82 6.62,13.918 6.62,24.25 z m 24.67,0 c 0,-7.621 -1.12,-14.641 -3.44,-21.153 -2.29,-6.367 -5.57,-11.929 -9.89,-16.578 -4.33,-4.64 -9.43,-8.078 -15.46,-10.629 -5.98,-2.468 -12.72,-3.679 -20.24,-3.679 -7.43,0 -14.12,1.211 -20.06,3.757 -5.92,2.481 -11.03,6.051 -15.37,10.723 -4.4,4.688 -7.68,10.148 -9.97,16.5 -2.2,6.387 -3.33,13.367 -3.33,21.098 0,7.75 1.13,14.851 3.42,21.269 2.32,6.461 5.54,11.953 9.77,16.563 4.26,4.527 9.43,8.066 15.48,10.527 6.08,2.473 12.72,3.75 20.06,3.75 7.43,0 14.17,-1.277 20.24,-3.777 6.08,-2.512 11.25,-6.114 15.57,-10.731 4.3,-4.621 7.57,-10.152 9.85,-16.539 2.25,-6.363 3.37,-13.422 3.37,-21.101"
         style="fill:#efecf2;fill-opacity:1;fill-rule:nonzero;stroke:none"
         transform="matrix(0.13333333,0,0,-0.13333333,0,882.66667)" />
      <path
         id="path88"
         d="M 4276.87,227.531 V 206.18 c 0,-5.168 -1.18,-9.098 -3.5,-11.731 -2.33,-2.551 -5.31,-3.847 -8.88,-3.847 -3.61,0 -6.46,1.328 -8.78,3.91 -2.27,2.64 -3.41,6.508 -3.41,11.668 v 71.312 c 0,11.539 4.05,17.297 11.99,17.297 4.08,0 6.99,-1.41 8.79,-4.07 1.76,-2.656 2.82,-6.668 3.01,-11.91 2.9,5.242 5.9,9.254 9,11.91 3.08,2.66 7.22,4.07 12.33,4.07 5.23,0 10.25,-1.41 15.04,-4.07 4.87,-2.656 7.32,-6.258 7.32,-10.688 0,-3.121 -1.05,-5.75 -3.09,-7.75 -2.11,-2.019 -4.3,-3.062 -6.75,-3.062 -0.87,0 -3.03,0.59 -6.49,1.781 -3.44,1.141 -6.49,1.73 -9.15,1.73 -3.58,0 -6.49,-0.968 -8.83,-2.98 -2.24,-2 -4.02,-4.879 -5.28,-8.738 -1.24,-3.942 -2.14,-8.52 -2.6,-13.91 -0.47,-5.301 -0.72,-11.813 -0.72,-19.571"
         style="fill:#efecf2;fill-opacity:1;fill-rule:nonzero;stroke:none"
         transform="matrix(0.13333333,0,0,-0.13333333,0,882.66667)" />
      <path
         id="path89"
         d="m 4347.74,243.5 c 0,-10.352 2.18,-18.211 6.56,-23.57 4.31,-5.278 9.97,-7.961 16.8,-7.961 4.07,0 7.96,1.172 11.58,3.461 3.63,2.289 6.59,5.718 8.88,10.3 2.29,4.622 3.41,10.211 3.41,16.739 0,10.453 -2.23,18.59 -6.63,24.402 -4.38,5.859 -10.21,8.789 -17.37,8.789 -6.99,0 -12.64,-2.859 -16.84,-8.39 -4.27,-5.59 -6.39,-13.481 -6.39,-23.77 z m 71.18,32.52 v -74.469 c 0,-8.52 -0.93,-15.84 -2.64,-21.93 -1.74,-6.191 -4.53,-11.23 -8.36,-15.242 -3.83,-4.02 -8.88,-6.957 -15.05,-8.918 -6.21,-1.883 -13.94,-2.871 -23.14,-2.871 -8.51,0 -16.07,1.191 -22.7,3.652 -6.66,2.547 -11.78,5.68 -15.37,9.61 -3.61,3.89 -5.42,7.918 -5.42,12.089 0,3.11 1.01,5.661 3.1,7.622 2.01,2.007 4.47,2.976 7.34,2.976 3.62,0 6.73,-1.66 9.47,-4.969 1.32,-1.718 2.7,-3.398 4.08,-5.109 1.39,-1.762 2.95,-3.242 4.67,-4.422 1.7,-1.258 3.79,-2.168 6.19,-2.769 2.35,-0.59 5.13,-0.879 8.27,-0.879 6.3,0 11.29,0.941 14.77,2.781 3.53,1.828 5.98,4.398 7.42,7.719 1.36,3.308 2.24,6.828 2.39,10.648 0.29,3.84 0.44,9.883 0.61,18.281 -3.77,-5.468 -8.19,-9.679 -13.09,-12.55 -4.94,-2.879 -10.85,-4.29 -17.64,-4.29 -8.27,0 -15.47,2.141 -21.56,6.559 -6.19,4.383 -10.91,10.492 -14.21,18.41 -3.26,7.84 -4.94,16.949 -4.94,27.281 0,7.75 0.98,14.692 3.04,20.891 1.97,6.16 4.82,11.391 8.58,15.649 3.68,4.269 8.01,7.48 12.85,9.66 4.89,2.109 10.15,3.242 16.02,3.242 6.93,0 12.97,-1.434 18.05,-4.231 5.15,-2.75 9.84,-7.152 14.21,-13.089 v 3.449 c 0,4.469 1.09,7.871 3.15,10.39 2.1,2.411 4.82,3.649 8.09,3.649 4.77,0 7.91,-1.602 9.49,-4.828 1.53,-3.231 2.33,-7.922 2.33,-13.992"
         style="fill:#efecf2;fill-opacity:1;fill-rule:nonzero;stroke:none"
         transform="matrix(0.13333333,0,0,-0.13333333,0,882.66667)" />
      <path
         id="path90"
         d="m 3354.79,525.512 h 36.44 c -2.59,-19.653 -10.61,-34.973 -24,-46 -12.4,-10.782 -27.4,-16.11 -44.92,-16.11 -23.77,0 -42.74,8.34 -56.91,25.02 -13.44,15.848 -20.15,36.328 -20.15,61.359 0,25.617 6.67,46.11 19.96,61.629 13.26,15.449 32.06,23.219 56.3,23.219 18.05,0 33.32,-4.879 45.72,-14.578 13.14,-10.461 21.15,-25.172 24,-44.031 h -36.44 c -3.12,16.429 -13.17,24.628 -30.26,24.628 -28.13,0 -42.24,-16.668 -42.24,-50.027 0,-15.629 3.63,-28.391 10.86,-38.351 7.26,-9.981 17.45,-14.969 30.63,-14.969 19.62,0 29.97,9.41 31.01,28.211 z m -143.34,22.968 c 0,-32.589 10.34,-60.179 30.98,-82.64 20.66,-22.488 45.93,-33.738 75.95,-33.738 29.89,0 55.2,11.25 75.84,33.738 20.68,22.461 30.97,50.051 30.97,82.64 0,32.571 -10.29,60.141 -30.97,82.629 -20.64,22.493 -45.95,33.75 -75.84,33.75 -30.02,0 -55.29,-11.257 -75.95,-33.75 -20.64,-22.488 -30.98,-50.058 -30.98,-82.629 z m -36.99,0 c 0,41.469 14.02,76.86 42.13,106.29 28.12,29.332 62.05,44.011 101.79,44.011 39.68,0 73.56,-14.679 101.71,-44.011 28.11,-29.43 42.19,-64.821 42.19,-106.29 0,-41.5 -14.08,-76.949 -42.19,-106.281 -28.15,-29.379 -62.03,-44.078 -101.71,-44.078 -39.74,0 -73.67,14.699 -101.79,44.078 -28.11,29.332 -42.13,64.781 -42.13,106.281"
         style="fill:#efecf2;fill-opacity:1;fill-rule:nonzero;stroke:none"
         transform="matrix(0.13333333,0,0,-0.13333333,0,882.66667)" />
      <path
         id="path91"
         d="m 3232.69,454.211 20.98,-17.801 154.36,198.192 -20.99,17.777 -154.35,-198.168"
         style="fill:#efecf2;fill-opacity:1;fill-rule:nonzero;stroke:none"
         transform="matrix(0.13333333,0,0,-0.13333333,0,882.66667)" />
    </g>
  </g>
</svg>
