<?xml version="1.0" encoding="UTF-8" standalone="no"?>
<!-- Created with Inkscape (http://www.inkscape.org/) -->

<svg
   version="1.1"
   id="svg1"
   width="725.54669"
   height="686.8667"
   viewBox="0 0 725.54669 686.8667"
   sodipodi:docname="system-update.svg"
   inkscape:version="1.4.4 (dcaf3e7d9e, 2026-05-05)"
   xmlns:inkscape="http://www.inkscape.org/namespaces/inkscape"
   xmlns:sodipodi="http://sodipodi.sourceforge.net/DTD/sodipodi-0.dtd"
   xmlns="http://www.w3.org/2000/svg"
   xmlns:svg="http://www.w3.org/2000/svg">
  <defs
     id="defs1" />
  <sodipodi:namedview
     id="namedview1"
     pagecolor="#505050"
     bordercolor="#ffffff"
     borderopacity="1"
     inkscape:showpageshadow="0"
     inkscape:pageopacity="0"
     inkscape:pagecheckerboard="1"
     inkscape:deskcolor="#d1d1d1"
     inkscape:zoom="1.1865476"
     inkscape:cx="362.39593"
     inkscape:cy="343.43335"
     inkscape:window-width="1920"
     inkscape:window-height="1002"
     inkscape:window-x="0"
     inkscape:window-y="0"
     inkscape:window-maximized="1"
     inkscape:current-layer="g1">
    <inkscape:page
       x="0"
       y="0"
       inkscape:label="1"
       id="page1"
       width="725.54669"
       height="686.8667"
       margin="0"
       bleed="0" />
  </sodipodi:namedview>
  <g
     id="g1"
     inkscape:groupmode="layer"
     inkscape:label="1">
    <g
       id="group-R5">
      <path
         id="path2"
         d="m 1751.93,100.27 c 0,7.511 -1.07,14 -3.3,19.3 -2.16,5.379 -5.2,9.532 -9.1,12.461 -3.9,2.84 -8.18,4.309 -12.92,4.309 -7.49,0 -13.83,-3.16 -18.99,-9.301 -5.15,-6.199 -7.73,-15.25 -7.73,-27.2499 0,-11.3203 2.58,-20.1094 7.65,-26.3086 5.16,-6.3125 11.52,-9.4727 19.07,-9.4727 4.51,0 8.73,1.3633 12.59,4.1524 3.8,2.7304 6.9,6.8281 9.24,12.2617 2.35,5.5273 3.49,12.0976 3.49,19.8481 z m -53.31,41.371 v -3.422 c 5.11,6.551 10.4,11.449 15.91,14.492 5.53,3.098 11.81,4.66 18.8,4.66 8.34,0 16.05,-2.262 23.1,-6.769 7.03,-4.512 12.58,-11.071 16.7,-19.774 4.08,-8.68 6.08,-18.91 6.08,-30.777 0,-8.7112 -1.13,-16.8401 -3.5,-24.0393 -2.35,-7.332 -5.6,-13.5117 -9.7,-18.4531 -4.13,-4.9492 -9.03,-8.7891 -14.6,-11.4297 -5.64,-2.7109 -11.69,-4.0195 -18.08,-4.0195 -7.82,0 -14.35,1.6211 -19.62,4.8789 -5.33,3.2617 -10.33,8.0117 -15.09,14.332 V 18.7188 C 1698.62,6.21875 1694.26,0 1685.56,0 c -5.11,0 -8.52,1.58984 -10.14,4.80078 -1.67,3.23828 -2.5,7.94922 -2.5,14.09762 V 141.461 c 0,5.398 1.09,9.449 3.38,12.109 2.29,2.641 5.37,4.008 9.26,4.008 3.86,0 7,-1.367 9.42,-4.137 2.41,-2.75 3.64,-6.703 3.64,-11.8"
         style="fill:#100f0d;fill-opacity:1;fill-rule:nonzero;stroke:none"
         transform="matrix(0.13333333,0,0,-0.13333333,0,686.86667)" />
      <path
         id="path3"
         d="m 1871.76,58.168 v 3.582 c -3.27,-4.2891 -6.69,-7.8711 -10.29,-10.7695 -3.58,-2.961 -7.5,-5.1094 -11.73,-6.5117 -4.3,-1.4102 -9.13,-2.129 -14.58,-2.129 -6.54,0 -12.44,1.4297 -17.67,4.2383 -5.22,2.8399 -9.27,6.7735 -12.08,11.75 -3.45,6.043 -5.1,14.711 -5.1,25.9727 V 140.57 c 0,5.641 1.23,9.918 3.69,12.711 2.46,2.809 5.7,4.219 9.74,4.219 4.14,0 7.44,-1.41 9.98,-4.289 2.53,-2.852 3.77,-7.082 3.77,-12.641 V 95.0898 c 0,-6.5312 0.52,-12.082 1.56,-16.5117 1.11,-4.5 3.02,-7.9883 5.8,-10.5586 2.7,-2.4882 6.45,-3.7617 11.17,-3.7617 4.63,0 8.93,1.4336 12.95,4.2735 4.09,2.8085 7.06,6.5078 8.9,11.0898 1.52,4.0195 2.28,12.8203 2.28,26.4099 v 34.539 c 0,5.559 1.26,9.789 3.81,12.641 2.5,2.879 5.75,4.289 9.83,4.289 4.06,0 7.3,-1.41 9.76,-4.219 2.43,-2.793 3.64,-7.07 3.64,-12.711 V 58.3281 c 0,-5.3984 -1.13,-9.4687 -3.49,-12.1484 -2.33,-2.7305 -5.37,-4.0508 -9.11,-4.0508 -3.7,0 -6.76,1.4414 -9.2,4.1719 -2.42,2.8476 -3.63,6.7383 -3.63,11.8672"
         style="fill:#100f0d;fill-opacity:1;fill-rule:nonzero;stroke:none"
         transform="matrix(0.13333333,0,0,-0.13333333,0,686.86667)" />
      <path
         id="path4"
         d="m 1950.66,99.1406 c 0,-11.289 2.46,-19.9297 7.38,-26.0195 4.97,-6.043 11.47,-9.1133 19.52,-9.1133 6.85,0 12.71,3.1211 17.69,9.3125 4.98,6.2188 7.46,15.0586 7.46,26.6485 0,7.5702 -1.04,13.9802 -3.11,19.3712 -2.08,5.441 -5.02,9.621 -8.77,12.539 -3.84,2.941 -8.2,4.461 -13.27,4.461 -5.23,0 -9.77,-1.52 -13.85,-4.461 -4.08,-2.918 -7.24,-7.211 -9.58,-12.809 -2.33,-5.531 -3.47,-12.152 -3.47,-19.9294 z m -1.29,84.3904 v -43.39 c 5.05,5.589 10.3,9.789 15.6,12.808 5.32,2.93 11.92,4.422 19.74,4.422 9.05,0 16.96,-2.262 23.77,-6.68 6.79,-4.562 12.11,-10.992 15.84,-19.492 3.79,-8.469 5.64,-18.551 5.64,-30.187 0,-8.6214 -1.03,-16.4925 -3.1,-23.7112 -2.11,-7.1406 -5.12,-13.332 -9.12,-18.6719 -4.02,-5.2305 -8.86,-9.2578 -14.51,-12.2383 -5.71,-2.8203 -11.97,-4.2812 -18.81,-4.2812 -4.14,0 -8.12,0.5312 -11.82,1.539 -3.68,1.0625 -6.85,2.4219 -9.37,4.1602 -2.63,1.6094 -4.84,3.4219 -6.68,5.1797 -1.81,1.8398 -4.2,4.5117 -7.18,8.1133 v -2.7735 c 0,-5.3593 -1.26,-9.3867 -3.72,-12.1484 -2.43,-2.7305 -5.6,-4.0703 -9.35,-4.0703 -3.87,0 -6.92,1.3398 -9.25,4.0703 -2.26,2.8203 -3.41,6.8086 -3.41,12.1484 V 182.301 c 0,5.707 1.11,10.058 3.36,13 2.21,2.961 5.29,4.429 9.3,4.429 4.17,0 7.4,-1.402 9.63,-4.23 2.29,-2.781 3.44,-6.762 3.44,-11.969"
         style="fill:#100f0d;fill-opacity:1;fill-rule:nonzero;stroke:none"
         transform="matrix(0.13333333,0,0,-0.13333333,0,686.86667)" />
      <path
         id="path5"
         d="M 2049.16,59.3906 V 182.469 c 0,5.722 1.21,9.98 3.6,12.91 2.47,2.883 5.72,4.351 9.84,4.351 4.12,0 7.42,-1.421 9.96,-4.308 2.49,-2.863 3.8,-7.223 3.8,-12.953 V 59.3906 c 0,-5.7695 -1.31,-10.1015 -3.86,-13 -2.54,-2.8203 -5.85,-4.2812 -9.9,-4.2812 -3.99,0 -7.18,1.4922 -9.69,4.4687 -2.5,2.9922 -3.75,7.2422 -3.75,12.8125"
         style="fill:#100f0d;fill-opacity:1;fill-rule:nonzero;stroke:none"
         transform="matrix(0.13333333,0,0,-0.13333333,0,686.86667)" />
      <path
         id="path6"
         d="M 2131.63,141.379 V 59.3906 c 0,-5.7304 -1.33,-10.0195 -3.85,-12.9297 -2.62,-2.8593 -5.92,-4.3515 -9.87,-4.3515 -4,0 -7.25,1.4922 -9.73,4.4414 -2.46,3.0195 -3.75,7.2695 -3.75,12.8398 V 140.57 c 0,5.559 1.29,9.789 3.75,12.641 2.48,2.879 5.73,4.289 9.73,4.289 3.95,0 7.25,-1.41 9.87,-4.289 2.52,-2.852 3.85,-6.77 3.85,-11.832 z m -13.45,29.34 c -3.79,0 -7,1.222 -9.75,3.711 -2.62,2.41 -4,5.859 -4,10.32 0,3.988 1.38,7.27 4.15,9.918 2.75,2.613 5.95,3.832 9.6,3.832 3.51,0 6.65,-1.148 9.37,-3.488 2.71,-2.352 4.08,-5.821 4.08,-10.262 0,-4.422 -1.34,-7.82 -4,-10.25 -2.66,-2.461 -5.77,-3.781 -9.45,-3.781"
         style="fill:#100f0d;fill-opacity:1;fill-rule:nonzero;stroke:none"
         transform="matrix(0.13333333,0,0,-0.13333333,0,686.86667)" />
      <path
         id="path7"
         d="m 2257.15,77.2617 c 0,-3.5234 -0.99,-7.3203 -3.01,-11.3437 -2.06,-4.0078 -5.14,-7.8164 -9.3,-11.4766 -4.13,-3.6211 -9.36,-6.5508 -15.67,-8.75 -6.31,-2.2734 -13.43,-3.3516 -21.31,-3.3516 -16.82,0 -29.93,5.1211 -39.37,15.3282 -9.41,10.2226 -14.14,23.8906 -14.14,41.1015 0,11.6405 2.15,21.9605 6.45,30.8785 4.31,8.891 10.61,15.86 18.74,20.711 8.15,4.922 17.95,7.371 29.27,7.371 7.06,0 13.53,-1.109 19.42,-3.23 5.87,-2.16 10.85,-4.949 14.93,-8.309 4.08,-3.41 7.2,-7.043 9.37,-10.863 2.18,-3.828 3.23,-7.437 3.23,-10.769 0,-3.348 -1.24,-6.231 -3.63,-8.598 -2.45,-2.383 -5.35,-3.551 -8.81,-3.551 -2.28,0 -4.14,0.66 -5.66,1.871 -1.45,1.168 -3.15,3.071 -5.03,5.84 -3.3,5.238 -6.8,9.231 -10.4,11.91 -3.63,2.61 -8.23,3.957 -13.76,3.957 -8.09,0 -14.56,-3.328 -19.47,-9.879 -4.92,-6.578 -7.35,-15.531 -7.35,-26.8981 0,-5.3007 0.63,-10.2695 1.9,-14.7109 1.25,-4.4883 3.08,-8.2891 5.45,-11.4609 2.41,-3.1602 5.27,-5.5274 8.67,-7.1602 3.38,-1.6601 7.12,-2.4492 11.14,-2.4492 5.48,0 10.13,1.2891 14.02,3.9219 3.89,2.6679 7.33,6.6875 10.31,12.039 1.66,3.2696 3.45,5.7383 5.39,7.5586 1.94,1.8125 4.31,2.6719 7.09,2.6719 3.31,0 6.06,-1.2813 8.28,-3.9219 2.15,-2.6914 3.25,-5.4609 3.25,-8.4375"
         style="fill:#100f0d;fill-opacity:1;fill-rule:nonzero;stroke:none"
         transform="matrix(0.13333333,0,0,-0.13333333,0,686.86667)" />
      <path
         id="path8"
         d="m 2301.96,99.9688 c 0,-7.6875 1.14,-14.1993 3.42,-19.6407 2.31,-5.4179 5.4,-9.4375 9.39,-12.1679 4.01,-2.7891 8.36,-4.1524 13.04,-4.1524 4.79,0 9.15,1.3203 13.1,3.8828 3.97,2.6172 7.09,6.6289 9.48,11.9883 2.36,5.3594 3.53,12.082 3.53,20.0899 0,7.6092 -1.17,14.0622 -3.53,19.5312 -2.39,5.449 -5.56,9.602 -9.56,12.531 -4.03,2.84 -8.41,4.309 -13.19,4.309 -4.96,0 -9.41,-1.52 -13.34,-4.461 -3.89,-2.918 -6.97,-7.199 -9.12,-12.707 -2.14,-5.531 -3.22,-11.863 -3.22,-19.2032 z m 53.46,-41.6407 v 2.7735 c -3.66,-4.3633 -7.26,-7.9102 -10.86,-10.6016 -3.49,-2.7695 -7.37,-4.8398 -11.52,-6.2695 -4.13,-1.3907 -8.67,-2.1211 -13.57,-2.1211 -6.5,0 -12.57,1.4609 -18.09,4.2812 -5.53,2.9805 -10.33,7.0274 -14.38,12.3594 -4.04,5.3398 -7.12,11.6094 -9.23,18.8516 -2.12,7.1797 -3.14,14.9765 -3.14,23.4104 0,17.687 4.16,31.59 12.46,41.5 8.33,9.906 19.23,14.859 32.76,14.859 7.84,0 14.46,-1.422 19.83,-4.281 5.36,-2.77 10.63,-7.078 15.74,-12.949 v 41.91 c 0,5.84 1.09,10.238 3.33,13.207 2.22,2.992 5.36,4.472 9.5,4.472 4.11,0 7.28,-1.378 9.53,-4.082 2.21,-2.726 3.36,-6.777 3.36,-12.117 V 58.3281 c 0,-5.3984 -1.21,-9.4687 -3.62,-12.1484 -2.4,-2.7305 -5.45,-4.0703 -9.27,-4.0703 -3.68,0 -6.79,1.4023 -9.23,4.1914 -2.4,2.8008 -3.6,6.7773 -3.6,12.0273"
         style="fill:#100f0d;fill-opacity:1;fill-rule:nonzero;stroke:none"
         transform="matrix(0.13333333,0,0,-0.13333333,0,686.86667)" />
      <path
         id="path9"
         d="m 2482.94,99.75 c 0,11.531 -2.48,20.57 -7.33,27.02 -4.89,6.41 -11.46,9.66 -19.68,9.66 -5.35,0 -10,-1.45 -14.06,-4.321 -4.04,-2.918 -7.16,-7.16 -9.36,-12.769 -2.17,-5.559 -3.29,-12.07 -3.29,-19.59 0,-7.4297 1.12,-13.8906 3.24,-19.4219 2.14,-5.539 5.25,-9.789 9.29,-12.7383 4,-2.9414 8.77,-4.3906 14.18,-4.3906 8.22,0 14.79,3.2188 19.68,9.6914 4.85,6.461 7.33,15.4492 7.33,26.8594 z m 27.29,0 c 0,-8.4102 -1.28,-16.2109 -3.79,-23.3984 -2.52,-7.0821 -6.17,-13.2305 -10.93,-18.3828 -4.82,-5.1407 -10.52,-8.9688 -17.16,-11.7891 -6.63,-2.7305 -14.16,-4.0703 -22.42,-4.0703 -8.22,0 -15.64,1.3398 -22.19,4.1523 -6.59,2.7578 -12.31,6.7266 -17.13,11.9063 -4.79,5.1718 -8.43,11.2304 -10.95,18.2617 -2.49,7.082 -3.72,14.8086 -3.72,23.3711 0,8.5902 1.27,16.4492 3.77,23.5582 2.52,7.18 6.12,13.231 10.85,18.332 4.72,5.047 10.42,8.95 17.18,11.68 6.72,2.738 14.08,4.129 22.19,4.129 8.24,0 15.72,-1.391 22.42,-4.172 6.69,-2.758 12.44,-6.758 17.21,-11.867 4.82,-5.121 8.44,-11.262 10.88,-18.332 2.55,-7.051 3.79,-14.859 3.79,-23.379"
         style="fill:#100f0d;fill-opacity:1;fill-rule:nonzero;stroke:none"
         transform="matrix(0.13333333,0,0,-0.13333333,0,686.86667)" />
      <path
         id="path10"
         d="m 2625.08,123.191 c -2.04,-4.793 -3,-13.261 -3,-25.4527 V 60.0195 c 0,-5.9414 -1.27,-10.4492 -3.9,-13.4414 -2.57,-2.9765 -6.04,-4.4687 -10.28,-4.4687 -4.08,0 -7.41,1.4922 -9.95,4.4687 -2.56,2.9922 -3.81,7.5 -3.81,13.4414 v 45.2695 c 0,7.121 -0.27,12.652 -0.74,16.652 -0.48,3.911 -1.72,7.168 -3.79,9.707 -2.01,2.551 -5.29,3.813 -9.72,3.813 -8.89,0 -14.74,-3.191 -17.59,-9.609 -2.85,-6.352 -4.19,-15.512 -4.19,-27.4536 V 60.0195 c 0,-5.9297 -1.31,-10.3906 -3.84,-13.3398 -2.58,-3.0781 -5.95,-4.5703 -10.09,-4.5703 -4.15,0 -7.55,1.4922 -10.16,4.5703 -2.64,2.9492 -3.89,7.4101 -3.89,13.332 v 81.2073 c 0,5.351 1.12,9.422 3.46,12.179 2.39,2.75 5.49,4.18 9.37,4.18 3.71,0 6.83,-1.289 9.3,-3.898 2.48,-2.578 3.73,-6.16 3.73,-10.75 v -2.692 c 4.7,5.891 9.76,10.242 15.12,12.973 5.37,2.777 11.41,4.16 17.94,4.16 6.82,0 12.67,-1.422 17.59,-4.281 4.94,-2.82 8.97,-7.121 12.13,-12.852 4.6,5.774 9.51,10.121 14.77,12.93 5.26,2.82 11.05,4.203 17.41,4.203 7.49,0 13.88,-1.492 19.22,-4.59 5.4,-3.043 9.41,-7.402 12.08,-13.082 2.33,-5.14 3.47,-13.199 3.47,-24.25 V 60.0195 c 0,-5.9414 -1.29,-10.4492 -3.84,-13.4414 -2.64,-2.9765 -6.03,-4.4687 -10.28,-4.4687 -4.13,0 -7.49,1.4922 -10.1,4.5703 -2.66,2.9492 -3.97,7.4101 -3.97,13.3398 v 47.7615 c 0,6.11 -0.24,10.981 -0.73,14.66 -0.51,3.707 -1.85,6.75 -4.07,9.258 -2.17,2.5 -5.51,3.762 -9.92,3.762 -3.59,0 -7.01,-1.121 -10.18,-3.293 -3.27,-2.25 -5.72,-5.227 -7.55,-8.977 v 0"
         style="fill:#100f0d;fill-opacity:1;fill-rule:nonzero;stroke:none"
         transform="matrix(0.13333333,0,0,-0.13333333,0,686.86667)" />
      <path
         id="path11"
         d="m 2779.1,99.2109 c -4.01,-1.5625 -9.8,-3.1211 -17.41,-4.8515 -7.61,-1.6992 -12.87,-2.9414 -15.8,-3.75 -2.93,-0.8203 -5.72,-2.3711 -8.34,-4.6602 -2.68,-2.3906 -4.02,-5.6211 -4.02,-9.7812 0,-4.3282 1.58,-7.9571 4.67,-10.9766 3.14,-3.0625 7.23,-4.5312 12.28,-4.5312 5.37,0 10.37,1.25 14.9,3.7109 4.55,2.4375 7.92,5.6484 10,9.5 2.47,4.3203 3.72,11.3672 3.72,21.2969 z m 1.77,-41.1093 c -6.59,-5.3516 -12.95,-9.3321 -19.08,-11.9727 -6.13,-2.7109 -13.05,-4.0195 -20.65,-4.0195 -7.02,0 -13.09,1.4609 -18.41,4.2812 -5.32,2.8985 -9.35,6.8008 -12.22,11.7774 -2.82,4.9101 -4.28,10.1914 -4.28,15.9804 0,7.7696 2.41,14.3633 7.11,19.8516 4.68,5.4414 11.15,9.129 19.38,11.012 1.73,0.418 6.04,1.316 12.84,2.769 6.91,1.5 12.71,2.797 17.67,4.008 4.83,1.191 10.16,2.672 15.87,4.391 -0.35,7.519 -1.79,13.011 -4.32,16.59 -2.6,3.46 -7.93,5.171 -15.92,5.171 -6.94,0 -12.11,-0.98 -15.64,-2.992 -3.46,-1.98 -6.48,-5.031 -8.93,-9.097 -2.52,-3.993 -4.24,-6.661 -5.28,-7.922 -1.06,-1.321 -3.27,-1.891 -6.6,-1.891 -3.1,0 -5.73,1 -7.92,3.02 -2.26,2.062 -3.36,4.64 -3.36,7.882 0,4.977 1.69,9.868 5.06,14.52 3.39,4.73 8.69,8.598 15.85,11.707 7.16,3.043 16.12,4.562 26.82,4.562 11.93,0 21.34,-1.519 28.22,-4.449 6.83,-2.922 11.61,-7.551 14.46,-13.972 2.84,-6.34 4.24,-14.84 4.24,-25.36 0,-6.64 0,-12.34 -0.04,-16.949 -0.06,-4.6797 -0.09,-9.832 -0.15,-15.5117 0,-5.3203 0.84,-10.8985 2.55,-16.6602 1.65,-5.7968 2.5,-9.539 2.5,-11.1679 0,-2.9219 -1.33,-5.5821 -3.94,-7.9688 -2.56,-2.3828 -5.57,-3.582 -8.87,-3.582 -2.83,0 -5.53,1.3398 -8.3,4.0703 -2.71,2.7617 -5.6,6.75 -8.66,11.9219"
         style="fill:#100f0d;fill-opacity:1;fill-rule:nonzero;stroke:none"
         transform="matrix(0.13333333,0,0,-0.13333333,0,686.86667)" />
      <path
         id="path12"
         d="M 2860.6,141.379 V 59.3906 c 0,-5.7304 -1.3,-10.0195 -3.85,-12.9297 -2.59,-2.8593 -5.86,-4.3515 -9.86,-4.3515 -3.97,0 -7.25,1.4922 -9.71,4.4414 -2.52,3.0195 -3.77,7.2695 -3.77,12.8398 V 140.57 c 0,5.559 1.25,9.789 3.77,12.641 2.46,2.879 5.74,4.289 9.71,4.289 4,0 7.27,-1.41 9.86,-4.289 2.55,-2.852 3.85,-6.77 3.85,-11.832 z m -13.44,29.34 c -3.75,0 -6.97,1.222 -9.66,3.711 -2.7,2.41 -4.09,5.859 -4.09,10.32 0,3.988 1.41,7.27 4.17,9.918 2.73,2.613 5.97,3.832 9.58,3.832 3.53,0 6.69,-1.148 9.42,-3.488 2.68,-2.352 4.02,-5.821 4.02,-10.262 0,-4.422 -1.3,-7.82 -3.97,-10.25 -2.66,-2.461 -5.81,-3.781 -9.47,-3.781"
         style="fill:#100f0d;fill-opacity:1;fill-rule:nonzero;stroke:none"
         transform="matrix(0.13333333,0,0,-0.13333333,0,686.86667)" />
      <path
         id="path13"
         d="m 2913.45,141.789 v -3.391 c 4.76,6.563 9.98,11.403 15.62,14.473 5.69,3.078 12.22,4.629 19.63,4.629 7.13,0 13.57,-1.621 19.25,-4.91 5.59,-3.238 9.84,-7.82 12.59,-13.762 1.82,-3.5 2.94,-7.277 3.52,-11.277 0.49,-3.973 0.8,-9.11 0.8,-15.371 V 59.3906 c 0,-5.7304 -1.29,-10.0195 -3.76,-12.9297 -2.5,-2.8593 -5.74,-4.3515 -9.71,-4.3515 -4.04,0 -7.35,1.4922 -9.77,4.4687 -2.56,2.9922 -3.86,7.2422 -3.86,12.8125 v 47.2574 c 0,9.411 -1.21,16.543 -3.69,21.493 -2.54,4.949 -7.52,7.468 -14.96,7.468 -4.84,0 -9.25,-1.539 -13.22,-4.558 -3.98,-2.981 -6.91,-7.141 -8.76,-12.43 -1.33,-4.223 -2.03,-12.09 -2.03,-23.7421 V 59.3906 c 0,-5.7695 -1.25,-10.1015 -3.82,-13 -2.57,-2.8203 -5.87,-4.2812 -9.9,-4.2812 -3.89,0 -7.14,1.4922 -9.65,4.4414 -2.57,3.0195 -3.81,7.2695 -3.81,12.8398 v 81.9884 c 0,5.43 1.12,9.422 3.41,12.101 2.21,2.668 5.37,4.02 9.27,4.02 2.35,0 4.54,-0.629 6.43,-1.77 1.99,-1.16 3.48,-2.98 4.65,-5.25 1.12,-2.41 1.77,-5.289 1.77,-8.691"
         style="fill:#100f0d;fill-opacity:1;fill-rule:nonzero;stroke:none"
         transform="matrix(0.13333333,0,0,-0.13333333,0,686.86667)" />
      <path
         id="path14"
         d="m 3028.5,139.84 21.96,-64.4494 23.72,67.2574 c 1.89,5.422 3.71,9.204 5.52,11.461 1.83,2.25 4.5,3.391 8.14,3.391 3.45,0 6.38,-1.211 8.86,-3.68 2.38,-2.402 3.6,-5.172 3.6,-8.441 0,-1.219 -0.24,-2.649 -0.67,-4.277 -0.39,-1.692 -0.88,-3.262 -1.48,-4.75 -0.57,-1.403 -1.15,-3.09 -1.94,-4.942 l -26.09,-67.5702 c -0.73,-1.9296 -1.7,-4.4218 -2.83,-7.4101 -1.18,-2.9688 -2.5,-5.4609 -3.89,-7.6602 -1.46,-2.0898 -3.2,-3.6914 -5.27,-4.8789 -2.13,-1.1797 -4.68,-1.7812 -7.67,-1.7812 -3.84,0 -6.9,0.9101 -9.22,2.7187 -2.29,1.8516 -3.99,3.8321 -5.07,6.0703 -1.08,2.1407 -2.96,6.4805 -5.52,12.9414 l -25.93,66.8402 c -0.59,1.629 -1.24,3.308 -1.88,4.98 -0.6,1.66 -1.09,3.32 -1.56,5.078 -0.42,1.774 -0.66,3.262 -0.66,4.453 0,1.977 0.57,3.887 1.72,5.797 1.13,1.922 2.69,3.492 4.68,4.68 2.02,1.203 4.13,1.832 6.5,1.832 4.47,0 7.59,-1.352 9.3,-4.102 1.7,-2.679 3.6,-7.207 5.68,-13.558"
         style="fill:#100f0d;fill-opacity:1;fill-rule:nonzero;stroke:none"
         transform="matrix(0.13333333,0,0,-0.13333333,0,686.86667)" />
      <path
         id="path15"
         d="m 3139.73,109.02 h 49.29 c -0.63,9.66 -3.12,16.921 -7.5,21.71 -4.37,4.801 -10.1,7.211 -17.22,7.211 -6.73,0 -12.31,-2.441 -16.64,-7.3 -4.34,-4.871 -6.95,-12.09 -7.93,-21.621 z m 53.2,-16.1606 h -53.2 c 0.01,-6.461 1.31,-12.1406 3.69,-17.0977 2.46,-4.8711 5.67,-8.5937 9.7,-11.1133 4,-2.5195 8.46,-3.7187 13.31,-3.7187 3.24,0 6.25,0.3906 8.9,1.1601 2.67,0.8399 5.31,2.0821 7.86,3.75 2.48,1.711 4.78,3.4805 6.93,5.5 2.1,1.9297 4.93,4.5196 8.27,7.8711 1.41,1.3086 3.42,1.8907 5.97,1.8907 2.84,0 5.07,-0.7735 6.81,-2.4102 1.73,-1.5898 2.54,-3.8203 2.54,-6.7305 0,-2.5625 -0.94,-5.5625 -2.88,-9.0312 -1.91,-3.3789 -4.76,-6.6992 -8.72,-9.8906 -3.89,-3.1289 -8.77,-5.6875 -14.64,-7.8282 -5.85,-2.0703 -12.58,-3.1015 -20.29,-3.1015 -17.43,0 -31.03,5.2422 -40.69,15.582 -9.69,10.4492 -14.51,24.5078 -14.51,42.2774 0,8.5002 1.23,16.2112 3.56,23.3712 2.39,7.199 5.86,13.332 10.46,18.449 4.59,5.152 10.2,9.121 16.92,11.813 6.74,2.757 14.15,4.128 22.35,4.128 10.55,0 19.7,-2.339 27.29,-7.039 7.63,-4.679 13.31,-10.691 17.09,-18.089 3.79,-7.461 5.69,-14.981 5.69,-22.743 0,-7.078 -1.91,-11.6988 -5.86,-13.8004 -3.96,-2.1484 -9.44,-3.1992 -16.55,-3.1992"
         style="fill:#100f0d;fill-opacity:1;fill-rule:nonzero;stroke:none"
         transform="matrix(0.13333333,0,0,-0.13333333,0,686.86667)" />
      <path
         id="path16"
         d="m 3335.82,77.2617 c 0,-3.5234 -1.01,-7.3203 -3.08,-11.3437 -2.03,-4.0078 -5.06,-7.8164 -9.25,-11.4766 -4.13,-3.6211 -9.4,-6.5508 -15.73,-8.75 -6.27,-2.2734 -13.42,-3.3516 -21.25,-3.3516 -16.87,0 -29.97,5.1211 -39.39,15.3282 -9.4,10.2226 -14.15,23.8906 -14.15,41.1015 0,11.6405 2.14,21.9605 6.5,30.8785 4.32,8.891 10.51,15.86 18.71,20.711 8.13,4.922 17.93,7.371 29.31,7.371 7.03,0 13.46,-1.109 19.39,-3.23 5.86,-2.16 10.8,-4.949 14.94,-8.309 4.08,-3.41 7.17,-7.043 9.36,-10.863 2.14,-3.828 3.21,-7.437 3.21,-10.769 0,-3.348 -1.18,-6.231 -3.68,-8.598 -2.39,-2.383 -5.32,-3.551 -8.78,-3.551 -2.26,0 -4.13,0.66 -5.6,1.871 -1.52,1.168 -3.18,3.071 -5.07,5.84 -3.32,5.238 -6.76,9.231 -10.39,11.91 -3.62,2.61 -8.22,3.957 -13.81,3.957 -7.99,0 -14.49,-3.328 -19.4,-9.879 -4.96,-6.578 -7.4,-15.531 -7.4,-26.8981 0,-5.3007 0.67,-10.2695 1.88,-14.7109 1.27,-4.4883 3.12,-8.2891 5.52,-11.4609 2.38,-3.1602 5.29,-5.5274 8.67,-7.1602 3.33,-1.6601 7.07,-2.4492 11.16,-2.4492 5.43,0 10.11,1.2891 14,3.9219 3.87,2.6679 7.33,6.6875 10.32,12.039 1.67,3.2696 3.43,5.7383 5.38,7.5586 1.91,1.8125 4.23,2.6719 7.07,2.6719 3.27,0 6.08,-1.2813 8.19,-3.9219 2.24,-2.6914 3.37,-5.4609 3.37,-8.4375"
         style="fill:#100f0d;fill-opacity:1;fill-rule:nonzero;stroke:none"
         transform="matrix(0.13333333,0,0,-0.13333333,0,686.86667)" />
      <path
         id="path17"
         d="m 3361.07,155.109 h 2.99 v 17.059 c 0,4.543 0.12,8.16 0.37,10.754 0.22,2.609 0.82,4.789 1.94,6.699 1.03,1.899 2.56,3.5 4.59,4.738 1.97,1.18 4.19,1.75 6.65,1.75 3.44,0 6.57,-1.32 9.35,-4.007 1.81,-1.832 3.03,-3.993 3.52,-6.571 0.51,-2.609 0.74,-6.351 0.74,-11.101 v -19.321 h 10 c 3.84,0 6.79,-0.968 8.81,-2.871 2.06,-1.918 3.05,-4.328 3.05,-7.32 0,-3.816 -1.43,-6.52 -4.36,-8.008 -2.88,-1.5 -7.02,-2.269 -12.39,-2.269 h -5.11 V 82.3594 c 0,-4.4492 0.16,-7.8711 0.45,-10.2891 0.35,-2.4023 1.19,-4.3398 2.45,-5.789 1.26,-1.5 3.37,-2.2735 6.31,-2.2735 1.59,0 3.74,0.2735 6.49,0.8906 2.66,0.5821 4.79,0.8829 6.35,0.8829 2.17,0 4.22,-0.9532 5.94,-2.7032 1.72,-1.8984 2.63,-4.1172 2.63,-6.8476 0,-4.5508 -2.34,-8.0508 -7.16,-10.4922 -4.83,-2.4297 -11.69,-3.6289 -20.61,-3.6289 -8.51,0 -14.97,1.4922 -19.36,4.4687 -4.35,2.9922 -7.27,7.0821 -8.58,12.4219 -1.4,5.2578 -2.07,12.2891 -2.07,21.0898 v 54.5512 h -3.62 c -3.84,0 -6.84,0.968 -8.92,2.918 -2.07,1.929 -3.08,4.371 -3.08,7.359 0,2.992 1.06,5.402 3.2,7.32 2.18,1.903 5.3,2.871 9.43,2.871"
         style="fill:#100f0d;fill-opacity:1;fill-rule:nonzero;stroke:none"
         transform="matrix(0.13333333,0,0,-0.13333333,0,686.86667)" />
      <path
         id="path18"
         d="m 3506.26,99.75 c 0,11.531 -2.46,20.57 -7.31,27.02 -4.93,6.41 -11.43,9.66 -19.69,9.66 -5.33,0 -10,-1.45 -14.02,-4.321 -4.08,-2.918 -7.2,-7.16 -9.38,-12.769 -2.18,-5.559 -3.31,-12.07 -3.31,-19.59 0,-7.4297 1.13,-13.8906 3.28,-19.4219 2.14,-5.539 5.21,-9.789 9.22,-12.7383 4.01,-2.9414 8.75,-4.3906 14.21,-4.3906 8.26,0 14.76,3.2188 19.69,9.6914 4.85,6.461 7.31,15.4492 7.31,26.8594 z m 27.31,0 c 0,-8.4102 -1.25,-16.2109 -3.82,-23.3984 -2.5,-7.0821 -6.17,-13.2305 -10.93,-18.3828 -4.79,-5.1407 -10.51,-8.9688 -17.13,-11.7891 -6.67,-2.7305 -14.09,-4.0703 -22.43,-4.0703 -8.27,0 -15.68,1.3398 -22.22,4.1523 -6.57,2.7578 -12.29,6.7266 -17.09,11.9063 -4.8,5.1718 -8.46,11.2304 -10.91,18.2617 -2.48,7.082 -3.7,14.8086 -3.7,23.3711 0,8.5902 1.22,16.4492 3.7,23.5582 2.58,7.18 6.15,13.231 10.86,18.332 4.75,5.047 10.45,8.95 17.14,11.68 6.77,2.738 14.16,4.129 22.22,4.129 8.26,0 15.7,-1.391 22.43,-4.172 6.7,-2.758 12.43,-6.758 17.22,-11.867 4.73,-5.121 8.44,-11.262 10.92,-18.332 2.49,-7.051 3.74,-14.859 3.74,-23.379"
         style="fill:#100f0d;fill-opacity:1;fill-rule:nonzero;stroke:none"
         transform="matrix(0.13333333,0,0,-0.13333333,0,686.86667)" />
      <path
         id="path19"
         d="M 3582.02,83.0078 V 59.3906 c 0,-5.7695 -1.31,-10.1015 -3.91,-13 -2.6,-2.8203 -5.87,-4.2812 -9.89,-4.2812 -3.87,0 -7.12,1.4922 -9.63,4.3515 -2.52,2.9102 -3.76,7.1993 -3.76,12.9297 v 78.9884 c 0,12.762 4.39,19.121 13.23,19.121 4.47,0 7.75,-1.512 9.78,-4.461 1.95,-2.98 3,-7.391 3.27,-13.199 3.23,5.808 6.61,10.219 10.04,13.199 3.42,2.949 7.96,4.461 13.64,4.461 5.76,0 11.28,-1.512 16.68,-4.461 5.35,-2.98 8.08,-6.949 8.08,-11.859 0,-3.45 -1.19,-6.36 -3.47,-8.578 -2.27,-2.243 -4.75,-3.411 -7.44,-3.411 -0.98,0 -3.4,0.661 -7.21,1.969 -3.85,1.258 -7.22,1.93 -10.16,1.93 -3.93,0 -7.18,-1.059 -9.68,-3.289 -2.54,-2.223 -4.51,-5.41 -5.9,-9.699 -1.4,-4.352 -2.4,-9.434 -2.9,-15.391 -0.51,-5.8907 -0.77,-13.1016 -0.77,-21.7032"
         style="fill:#100f0d;fill-opacity:1;fill-rule:nonzero;stroke:none"
         transform="matrix(0.13333333,0,0,-0.13333333,0,686.86667)" />
      <path
         id="path20"
         d="m 3726.87,79.1914 c 0,-7.8516 -1.83,-14.543 -5.52,-20.1328 -3.67,-5.5977 -9.05,-9.7695 -16.2,-12.6797 -7.17,-2.8086 -15.82,-4.2695 -26.1,-4.2695 -9.68,0 -18.1,1.539 -25.09,4.6992 -6.97,3.1016 -12.13,6.9805 -15.42,11.6523 -3.36,4.6602 -5.07,9.3477 -5.07,14.0508 0,3.1172 1.1,5.7891 3.27,8.0078 2.11,2.2618 4.82,3.3203 8.03,3.3203 2.87,0 5.1,-0.7382 6.61,-2.1484 1.53,-1.543 2.95,-3.543 4.39,-6.1836 2.78,-5.0664 6.1,-8.8476 10.05,-11.3359 3.81,-2.5313 9.12,-3.7735 15.88,-3.7735 5.42,0 9.9,1.293 13.39,3.8204 3.47,2.5312 5.27,5.4101 5.27,8.6718 0,5.0196 -1.84,8.668 -5.43,10.9375 -3.68,2.3321 -9.6,4.5117 -17.9,6.5703 -9.36,2.4297 -17.01,4.9805 -22.89,7.6329 -5.87,2.6797 -10.63,6.2267 -14.12,10.5897 -3.52,4.301 -5.31,9.707 -5.31,16.09 0,5.719 1.64,11.078 4.9,16.117 3.24,5.07 8.11,9.09 14.43,12.121 6.33,3.039 13.97,4.551 22.99,4.551 7,0 13.33,-0.781 18.97,-2.301 5.6,-1.519 10.34,-3.59 14.03,-6.121 3.75,-2.57 6.64,-5.418 8.59,-8.508 1.99,-3.16 2.96,-6.199 2.96,-9.16 0,-3.269 -1.03,-5.879 -3.17,-8.051 -2.1,-2 -5.09,-3.058 -8.88,-3.058 -2.83,0 -5.19,0.82 -7.19,2.519 -1.92,1.641 -4.19,4.121 -6.7,7.41 -2.06,2.778 -4.46,5.02 -7.29,6.68 -2.79,1.629 -6.57,2.5 -11.32,2.5 -4.94,0 -9.06,-1.09 -12.25,-3.301 -3.28,-2.16 -4.92,-4.91 -4.92,-8.16 0,-3 1.21,-5.429 3.56,-7.328 2.42,-1.922 5.63,-3.492 9.7,-4.75 4.08,-1.25 9.64,-2.801 16.75,-4.59 8.46,-2.14 15.32,-4.679 20.68,-7.679 5.34,-2.954 9.39,-6.4926 12.14,-10.5434 2.8,-4.0898 4.18,-8.707 4.18,-13.8672"
         style="fill:#100f0d;fill-opacity:1;fill-rule:nonzero;stroke:none"
         transform="matrix(0.13333333,0,0,-0.13333333,0,686.86667)" />
      <path
         id="path21"
         d="m 3757.75,42.1094 c -4.12,0 -7.69,1.3398 -10.64,4.1523 -3.03,2.7578 -4.51,6.668 -4.51,11.6094 0,4.2187 1.4,7.8594 4.23,10.9297 2.86,3.039 6.41,4.5195 10.6,4.5195 4.16,0 7.74,-1.4805 10.63,-4.5117 3,-2.9688 4.48,-6.6797 4.48,-10.9375 0,-4.9023 -1.48,-8.7695 -4.48,-11.5703 -2.89,-2.7891 -6.34,-4.1914 -10.31,-4.1914"
         style="fill:#100f0d;fill-opacity:1;fill-rule:nonzero;stroke:none"
         transform="matrix(0.13333333,0,0,-0.13333333,0,686.86667)" />
      <path
         id="path22"
         d="m 3878,99.75 c 0,11.531 -2.45,20.57 -7.33,27.02 -4.88,6.41 -11.42,9.66 -19.65,9.66 -5.32,0 -9.95,-1.45 -14.02,-4.321 -4.07,-2.918 -7.18,-7.16 -9.36,-12.769 -2.17,-5.559 -3.28,-12.07 -3.28,-19.59 0,-7.4297 1.05,-13.8906 3.19,-19.4219 2.23,-5.539 5.28,-9.789 9.31,-12.7383 4,-2.9414 8.72,-4.3906 14.16,-4.3906 8.23,0 14.77,3.2188 19.65,9.6914 4.88,6.461 7.33,15.4492 7.33,26.8594 z m 27.33,0 c 0,-8.4102 -1.25,-16.2109 -3.81,-23.3984 -2.54,-7.0821 -6.15,-13.2305 -10.95,-18.3828 -4.82,-5.1407 -10.47,-8.9688 -17.13,-11.7891 -6.62,-2.7305 -14.09,-4.0703 -22.42,-4.0703 -8.22,0 -15.62,1.3398 -22.2,4.1523 -6.58,2.7578 -12.24,6.7266 -17.05,11.9063 -4.89,5.1718 -8.51,11.2304 -11.03,18.2617 -2.44,7.082 -3.69,14.8086 -3.69,23.3711 0,8.5902 1.25,16.4492 3.78,23.5582 2.57,7.18 6.14,13.231 10.83,18.332 4.71,5.047 10.43,8.95 17.16,11.68 6.7,2.738 14.06,4.129 22.2,4.129 8.23,0 15.7,-1.391 22.42,-4.172 6.74,-2.758 12.46,-6.758 17.26,-11.867 4.74,-5.121 8.38,-11.262 10.9,-18.332 2.48,-7.051 3.73,-14.859 3.73,-23.379"
         style="fill:#100f0d;fill-opacity:1;fill-rule:nonzero;stroke:none"
         transform="matrix(0.13333333,0,0,-0.13333333,0,686.86667)" />
      <path
         id="path23"
         d="M 3953.76,83.0078 V 59.3906 c 0,-5.7695 -1.29,-10.1015 -3.88,-13 -2.55,-2.8203 -5.88,-4.2812 -9.84,-4.2812 -3.96,0 -7.14,1.4922 -9.68,4.3515 -2.56,2.9102 -3.8,7.1993 -3.8,12.9297 v 78.9884 c 0,12.762 4.47,19.121 13.26,19.121 4.52,0 7.75,-1.512 9.74,-4.461 1.96,-2.98 3.12,-7.391 3.36,-13.199 3.19,5.808 6.52,10.219 9.94,13.199 3.43,2.949 8,4.461 13.67,4.461 5.81,0 11.35,-1.512 16.67,-4.461 5.38,-2.98 8.09,-6.949 8.09,-11.859 0,-3.45 -1.15,-6.36 -3.42,-8.578 -2.32,-2.243 -4.75,-3.411 -7.47,-3.411 -0.96,0 -3.35,0.661 -7.17,1.969 -3.84,1.258 -7.21,1.93 -10.16,1.93 -3.95,0 -7.19,-1.059 -9.78,-3.289 -2.48,-2.223 -4.45,-5.41 -5.86,-9.699 -1.36,-4.352 -2.34,-9.434 -2.85,-15.391 -0.53,-5.8907 -0.82,-13.1016 -0.82,-21.7032"
         style="fill:#100f0d;fill-opacity:1;fill-rule:nonzero;stroke:none"
         transform="matrix(0.13333333,0,0,-0.13333333,0,686.86667)" />
      <path
         id="path24"
         d="m 4032.28,100.719 c 0,-11.4807 2.42,-20.1877 7.26,-26.1096 4.77,-5.8477 11.04,-8.8281 18.63,-8.8281 4.49,0 8.82,1.3085 12.81,3.8398 4.02,2.5273 7.3,6.3398 9.83,11.4375 2.55,5.1016 3.77,11.2617 3.77,18.5312 0,11.5702 -2.46,20.5702 -7.33,26.9882 -4.86,6.512 -11.3,9.762 -19.26,9.762 -7.74,0 -13.98,-3.16 -18.65,-9.301 -4.71,-6.187 -7.06,-14.937 -7.06,-26.32 z m 78.84,36 V 54.25 c 0,-9.4609 -1.04,-17.5586 -2.92,-24.3203 -1.94,-6.8203 -5.01,-12.4414 -9.26,-16.8594 -4.25,-4.42967 -9.84,-7.71874 -16.67,-9.87108 C 4075.39,1.10156 4066.82,0 4056.61,0 c -9.39,0 -17.78,1.32813 -25.1,4.05859 -7.39,2.8125 -13.09,6.30081 -17.05,10.67191 -3.99,4.289 -6,8.75 -6,13.3476 0,3.4727 1.11,6.2813 3.43,8.4532 2.23,2.2382 4.96,3.3203 8.13,3.3203 4.01,0 7.45,-1.8516 10.49,-5.5 1.47,-1.9414 2.99,-3.8008 4.5,-5.6914 1.57,-1.9102 3.31,-3.5821 5.18,-4.8985 1.91,-1.3906 4.21,-2.3828 6.87,-3.0508 2.59,-0.6523 5.7,-0.9804 9.17,-0.9804 6.98,0 12.51,1.039 16.36,3.0586 3.89,2.0507 6.62,4.9101 8.21,8.5703 1.48,3.6797 2.49,7.6015 2.64,11.789 0.32,4.2696 0.51,10.9414 0.7,20.2813 -4.18,-6.0899 -9.1,-10.7383 -14.52,-13.9297 -5.47,-3.1992 -12.03,-4.75 -19.54,-4.75 -9.18,0 -17.13,2.3789 -23.88,7.2617 -6.85,4.8477 -12.08,11.6172 -15.73,20.3789 -3.6,8.711 -5.47,18.7891 -5.47,30.2384 0,8.57 1.09,16.281 3.35,23.141 2.18,6.832 5.34,12.628 9.53,17.351 4.07,4.707 8.84,8.277 14.21,10.68 5.41,2.347 11.25,3.57 17.76,3.57 7.66,0 14.33,-1.562 19.97,-4.66 5.72,-3.043 10.91,-7.941 15.77,-14.492 v 3.801 c 0,4.96 1.2,8.742 3.5,11.531 2.29,2.66 5.31,4.027 8.94,4.027 5.27,0 8.75,-1.769 10.5,-5.34 1.7,-3.59 2.59,-8.777 2.59,-15.519"
         style="fill:#100f0d;fill-opacity:1;fill-rule:nonzero;stroke:none"
         transform="matrix(0.13333333,0,0,-0.13333333,0,686.86667)" />
      <path
         id="path25"
         d="m 2932.41,413.102 h 40.34 c -2.85,-21.75 -11.76,-38.723 -26.58,-50.942 -13.72,-11.969 -30.33,-17.871 -49.73,-17.871 -26.35,0 -47.37,9.262 -63.07,27.723 -14.88,17.566 -22.3,40.258 -22.3,67.957 0,28.402 7.37,51.101 22.08,68.281 14.71,17.121 35.51,25.73 62.39,25.73 19.99,0 36.91,-5.41 50.63,-16.152 14.54,-11.598 23.43,-27.898 26.58,-48.769 h -40.34 c -3.49,18.222 -14.6,27.269 -33.52,27.269 -31.17,0 -46.79,-18.469 -46.79,-55.418 0,-17.32 4.02,-31.461 12.04,-42.461 8.01,-11.07 19.32,-16.59 33.9,-16.59 21.74,0 33.2,10.43 34.37,31.243 z m -158.79,25.449 c 0,-36.11 11.45,-66.66 34.3,-91.571 22.9,-24.89 50.91,-37.351 84.16,-37.351 33.1,0 61.13,12.461 83.98,37.351 22.92,24.911 34.3,55.461 34.3,91.571 0,36.07 -11.38,66.609 -34.3,91.508 -22.85,24.953 -50.88,37.382 -83.98,37.382 -33.25,0 -61.26,-12.429 -84.16,-37.382 -22.85,-24.899 -34.3,-55.438 -34.3,-91.508 z m -40.98,0 c 0,45.929 15.55,85.14 46.66,117.711 31.15,32.519 68.75,48.789 112.78,48.789 43.92,0 81.46,-16.27 112.64,-48.789 31.13,-32.571 46.73,-71.782 46.73,-117.711 0,-45.981 -15.6,-85.25 -46.73,-117.75 -31.18,-32.551 -68.72,-48.832 -112.64,-48.832 -44.03,0 -81.63,16.281 -112.78,48.832 -31.11,32.5 -46.66,71.769 -46.66,117.75"
         style="fill:#100f0d;fill-opacity:1;fill-rule:nonzero;stroke:none"
         transform="matrix(0.13333333,0,0,-0.13333333,0,686.86667)" />
      <path
         id="path26"
         d="m 2797.14,334.121 23.26,-19.723 170.95,219.532 -23.24,19.691 -170.97,-219.5"
         style="fill:#100f0d;fill-opacity:1;fill-rule:nonzero;stroke:none"
         transform="matrix(0.13333333,0,0,-0.13333333,0,686.86667)" />
      <path
         id="path27"
         d="m 2701.43,5067.53 c 1385.1,0 2507.94,-1122.85 2507.94,-2507.95 0,-404.08 -95.7,-785.76 -265.47,-1123.83 H 458.949 c -169.765,338.07 -265.465,719.75 -265.465,1123.83 0,1385.1 1122.846,2507.95 2507.946,2507.95"
         style="fill:#cdeefb;fill-opacity:1;fill-rule:evenodd;stroke:none"
         transform="matrix(0.13333333,0,0,-0.13333333,0,686.86667)" />
      <path
         id="path28"
         d="m 3948.81,2533.82 c -216.44,26.8 -442.11,-48.75 -599.46,-222.79 -157.36,-174.1 -209.83,-406.19 -161.4,-618.83 216.44,-26.82 442.1,48.73 599.46,222.79 157.36,174.08 209.83,406.18 161.4,618.83 z m -2494.76,0 c 216.44,26.8 442.09,-48.75 599.46,-222.79 157.36,-174.1 209.83,-406.19 161.39,-618.83 -216.44,-26.82 -442.09,48.73 -599.46,222.79 -157.36,174.08 -209.83,406.18 -161.39,618.83 v 0"
         style="fill:#edf9fe;fill-opacity:1;fill-rule:evenodd;stroke:none"
         transform="matrix(0.13333333,0,0,-0.13333333,0,686.86667)" />
      <path
         id="path29"
         d="m 3666.23,4828.64 c 69.06,-227.66 29.8,-484.25 -128.05,-685.74 -157.84,-201.49 -397.56,-301.03 -635.13,-288.5 -69.06,227.66 -29.8,484.24 128.04,685.74 157.85,201.49 397.57,301.04 635.14,288.5"
         style="fill:#edf9fe;fill-opacity:1;fill-rule:evenodd;stroke:none"
         transform="matrix(0.13333333,0,0,-0.13333333,0,686.86667)" />
      <path
         id="path30"
         d="m 2157.56,4584.23 c -69.05,-227.65 -29.8,-484.23 128.05,-685.73 157.85,-201.5 397.56,-301.04 635.13,-288.49 69.06,227.65 29.8,484.23 -128.05,685.73 -157.84,201.49 -397.57,301.03 -635.13,288.49"
         style="fill:#edf9fe;fill-opacity:1;fill-rule:evenodd;stroke:none"
         transform="matrix(0.13333333,0,0,-0.13333333,0,686.86667)" />
      <path
         id="path31"
         d="m 427.715,3050.99 c 216.445,26.81 442.094,-48.73 599.465,-222.8 157.36,-174.08 209.83,-406.19 161.39,-618.82 -216.441,-26.82 -442.093,48.73 -599.465,222.81 -157.359,174.06 -209.828,406.17 -161.39,618.81"
         style="fill:#edf9fe;fill-opacity:1;fill-rule:evenodd;stroke:none"
         transform="matrix(0.13333333,0,0,-0.13333333,0,686.86667)" />
      <path
         id="path32"
         d="M 1030.14,3271.88 H 741.832 l -52.762,403.25 h 393.83 z m 741.83,594.75 -144.15,-249.69 -375.61,155.94 196.92,341.07 322.84,-247.32 z M 0,4556.77 144.156,4806.45 519.766,4650.52 322.844,4309.45 0,4556.77 Z m 1627.82,249.68 144.15,-249.68 -322.84,-247.32 -196.92,341.07 375.61,155.93 z M 144.156,3616.94 0,3866.63 322.844,4113.95 519.766,3772.88 144.156,3616.94 Z m 597.676,1534.58 h 288.308 l 52.76,-403.26 H 689.07 l 52.762,403.26 v 0"
         style="fill:#7fc1e4;fill-opacity:1;fill-rule:evenodd;stroke:none"
         transform="matrix(0.13333333,0,0,-0.13333333,0,686.86667)" />
      <path
         id="path33"
         d="m 885.984,4642.75 c -238.062,0 -431.058,-192.98 -431.058,-431.05 0,-238.07 192.996,-431.06 431.058,-431.06 238.066,0 431.066,192.99 431.066,431.06 0,238.07 -193,431.05 -431.066,431.05 z m 0,358.03 c 435.796,0 789.076,-353.29 789.076,-789.08 0,-435.8 -353.28,-789.08 -789.076,-789.08 -435.793,0 -789.0738,353.28 -789.0738,789.08 0,435.79 353.2808,789.08 789.0738,789.08 v 0"
         style="fill:#a4daf3;fill-opacity:1;fill-rule:evenodd;stroke:none"
         transform="matrix(0.13333333,0,0,-0.13333333,0,686.86667)" />
      <path
         id="path34"
         d="m 4699.79,1433.35 h -288.31 l -52.76,403.24 h 393.83 z m 741.84,594.75 -144.16,-249.69 -375.61,155.94 196.92,341.07 322.85,-247.32 z m -1771.98,690.13 144.15,249.69 375.61,-155.94 -196.91,-341.06 -322.85,247.31 z m 1627.82,249.69 144.16,-249.69 -322.85,-247.31 -196.92,341.06 375.61,155.94 z M 3813.8,1778.41 3669.65,2028.1 3992.5,2275.42 4189.41,1934.35 3813.8,1778.41 Z m 597.68,1534.57 h 288.31 l 52.76,-403.24 h -393.83 l 52.76,403.24 v 0"
         style="fill:#7fc1e4;fill-opacity:1;fill-rule:evenodd;stroke:none"
         transform="matrix(0.13333333,0,0,-0.13333333,0,686.86667)" />
      <path
         id="path35"
         d="m 4555.63,2804.22 c -238.06,0 -431.05,-193 -431.05,-431.05 0,-238.08 192.99,-431.07 431.05,-431.07 238.08,0 431.06,192.99 431.06,431.07 0,238.05 -192.98,431.05 -431.06,431.05 z m 0,358.02 c 435.8,0 789.08,-353.28 789.08,-789.07 0,-435.82 -353.28,-789.08 -789.08,-789.08 -435.79,0 -789.07,353.26 -789.07,789.08 0,435.79 353.28,789.07 789.07,789.07 v 0"
         style="fill:#a4daf3;fill-opacity:1;fill-rule:evenodd;stroke:none"
         transform="matrix(0.13333333,0,0,-0.13333333,0,686.86667)" />
      <path
         id="path36"
         d="M 967.813,4415.41 H 4435.03 c 66.34,0 120.6,-54.27 120.6,-120.6 V 2222.02 c 0,-66.34 -54.26,-120.62 -120.6,-120.62 H 967.813 c -66.333,0 -120.602,54.28 -120.602,120.62 v 2072.79 c 0,66.33 54.269,120.6 120.602,120.6"
         style="fill:#ffffff;fill-opacity:1;fill-rule:evenodd;stroke:none"
         transform="matrix(0.13333333,0,0,-0.13333333,0,686.86667)" />
      <path
         id="path37"
         d="M 982.895,2237.1 H 4419.97 V 4279.73 H 982.895 V 2237.1"
         style="fill:#5faddd;fill-opacity:1;fill-rule:evenodd;stroke:none"
         transform="matrix(0.13333333,0,0,-0.13333333,0,686.86667)" />
      <path
         id="path38"
         d="M 1815.88,2431.07 H 1695.8 l -21.98,167.95 h 164.03 z m 308.98,247.73 -60.04,-104 -156.45,64.94 82.03,142.07 134.46,-103.01 z m -738.05,287.45 60.04,104 156.45,-64.96 -82.02,-142.06 -134.47,103.02 z m 678.01,104 60.04,-104 -134.46,-103.02 -82.03,142.06 156.45,64.96 z m -617.97,-495.45 -60.04,104 134.47,103.01 82.02,-142.07 -156.45,-64.94 z m 248.95,639.17 h 120.08 l 21.97,-167.96 h -164.03 l 21.98,167.96 v 0"
         style="fill:#397db6;fill-opacity:1;fill-rule:evenodd;stroke:none"
         transform="matrix(0.13333333,0,0,-0.13333333,0,686.86667)" />
      <path
         id="path39"
         d="m 1755.84,3002.06 c -99.16,0 -179.55,-80.39 -179.55,-179.54 0,-99.16 80.39,-179.54 179.55,-179.54 99.15,0 179.55,80.38 179.55,179.54 0,99.15 -80.4,179.54 -179.55,179.54 z m 0,149.12 c 181.51,0 328.66,-147.15 328.66,-328.66 0,-181.51 -147.15,-328.66 -328.66,-328.66 -181.52,0 -328.67,147.15 -328.67,328.66 0,181.51 147.15,328.66 328.67,328.66 v 0"
         style="fill:#4a96cc;fill-opacity:1;fill-rule:evenodd;stroke:none"
         transform="matrix(0.13333333,0,0,-0.13333333,0,686.86667)" />
      <path
         id="path40"
         d="m 4049.7,2196.09 c 11.97,0 21.66,-9.71 21.66,-21.66 0,-11.98 -9.69,-21.68 -21.66,-21.68 -11.97,0 -21.68,9.7 -21.68,21.68 0,11.95 9.71,21.66 21.68,21.66 z m 116.19,0 c 11.98,0 21.66,-9.71 21.66,-21.66 0,-11.98 -9.68,-21.68 -21.66,-21.68 -11.96,0 -21.67,9.7 -21.67,21.68 0,11.95 9.71,21.66 21.67,21.66 z m 232.4,0 c 11.97,0 21.68,-9.71 21.68,-21.66 0,-11.98 -9.71,-21.68 -21.68,-21.68 -11.97,0 -21.67,9.7 -21.67,21.68 0,11.95 9.7,21.66 21.67,21.66 z m -116.2,0 c 11.97,0 21.66,-9.71 21.66,-21.66 0,-11.98 -9.69,-21.68 -21.66,-21.68 -11.97,0 -21.67,9.7 -21.67,21.68 0,11.95 9.7,21.66 21.67,21.66 v 0"
         style="fill:#cdeefb;fill-opacity:1;fill-rule:evenodd;stroke:none"
         transform="matrix(0.13333333,0,0,-0.13333333,0,686.86667)" />
      <path
         id="path41"
         d="m 2426.3,1533.72 h 550.25 V 2101.4 H 2426.3 v -567.68"
         style="fill:#5faddd;fill-opacity:1;fill-rule:evenodd;stroke:none"
         transform="matrix(0.13333333,0,0,-0.13333333,0,686.86667)" />
      <path
         id="path42"
         d="m 2701.43,1631.71 c 325.96,0 616.17,-76.68 802.74,-195.96 H 1898.68 c 186.57,119.28 476.78,195.96 802.75,195.96"
         style="fill:#ffffff;fill-opacity:1;fill-rule:evenodd;stroke:none"
         transform="matrix(0.13333333,0,0,-0.13333333,0,686.86667)" />
      <path
         id="path43"
         d="m 2426.3,2101.4 h 550.25 v -155.67 c -87.52,12.25 -179.79,18.81 -275.12,18.81 -95.34,0 -187.61,-6.56 -275.13,-18.81 v 155.67"
         style="fill:#4a96cc;fill-opacity:1;fill-rule:evenodd;stroke:none"
         transform="matrix(0.13333333,0,0,-0.13333333,0,686.86667)" />
      <path
         id="path44"
         d="m 3564.2,3258.41 h -120.07 l -21.99,167.96 h 164.06 z m 308.99,247.73 -60.04,-104 -156.45,64.95 82.04,142.06 134.45,-103.01 z m -738.06,287.45 60.06,104 156.44,-64.95 -82.03,-142.06 -134.47,103.01 z m 678.02,104 60.04,-104 -134.45,-103.01 -82.04,142.06 156.45,64.95 z m -617.96,-495.45 -60.06,104 134.47,103.01 82.03,-142.06 -156.44,-64.95 z m 248.94,639.17 h 120.07 l 22,-167.95 h -164.06 l 21.99,167.95 v 0"
         style="fill:#397db6;fill-opacity:1;fill-rule:evenodd;stroke:none"
         transform="matrix(0.13333333,0,0,-0.13333333,0,686.86667)" />
      <path
         id="path45"
         d="m 3504.17,3829.41 c -99.17,0 -179.55,-80.39 -179.55,-179.55 0,-99.15 80.38,-179.54 179.55,-179.54 99.16,0 179.55,80.39 179.55,179.54 0,99.16 -80.39,179.55 -179.55,179.55 z m 0,149.12 c 181.52,0 328.66,-147.15 328.66,-328.67 0,-181.51 -147.14,-328.66 -328.66,-328.66 -181.52,0 -328.66,147.15 -328.66,328.66 0,181.52 147.14,328.67 328.66,328.67 v 0"
         style="fill:#4a96cc;fill-opacity:1;fill-rule:evenodd;stroke:none"
         transform="matrix(0.13333333,0,0,-0.13333333,0,686.86667)" />
      <path
         id="path46"
         d="M 1734.05,3542.26 H 3668.8 c 156.12,0 283.84,-127.73 283.84,-283.85 v 0 c 0,-156.11 -127.72,-283.85 -283.84,-283.85 H 1734.05 c -156.11,0 -283.84,127.74 -283.84,283.85 v 0 c 0,156.12 127.73,283.85 283.84,283.85"
         style="fill:#ffffff;fill-opacity:1;fill-rule:evenodd;stroke:none"
         transform="matrix(0.13333333,0,0,-0.13333333,0,686.86667)" />
      <path
         id="path47"
         d="M 1734.05,3401.84 H 3668.8 c 78.89,0 143.43,-64.54 143.43,-143.43 v 0 c 0,-78.89 -64.54,-143.43 -143.43,-143.43 H 1734.05 c -78.88,0 -143.42,64.54 -143.42,143.43 v 0 c 0,78.89 64.54,143.43 143.42,143.43"
         style="fill:#5faddd;fill-opacity:1;fill-rule:evenodd;stroke:none"
         transform="matrix(0.13333333,0,0,-0.13333333,0,686.86667)" />
      <path
         id="path48"
         d="m 2999.78,3362.3 h 222.04 v -207.78 h -222.04 z m -272.91,0 h 222.04 v -207.78 h -222.04 v 207.78 z m -272.92,0 H 2676 v -207.78 h -222.05 v 207.78 z m -272.92,0 h 222.04 v -207.78 h -222.04 v 207.78 z m -272.92,0 h 222.04 v -207.78 h -222.04 v 207.78 z m -174.06,0 h 123.18 v -207.78 h -123.18 c -57.14,0 -103.88,46.76 -103.88,103.89 v 0 c 0,57.14 46.74,103.89 103.88,103.89 v 0"
         style="fill:#97daf6;fill-opacity:1;fill-rule:evenodd;stroke:none"
         transform="matrix(0.13333333,0,0,-0.13333333,0,686.86667)" />
      <path
         id="path49"
         d="M 982.895,2237.08 H 4419.97 v 136.09 H 982.895 v -136.09"
         style="fill:#4a96cc;fill-opacity:1;fill-rule:evenodd;stroke:none"
         transform="matrix(0.13333333,0,0,-0.13333333,0,686.86667)" />
      <path
         id="path50"
         d="M 982.895,4143.67 H 4419.97 v 136.06 H 982.895 v -136.06"
         style="fill:#82cbf0;fill-opacity:1;fill-rule:evenodd;stroke:none"
         transform="matrix(0.13333333,0,0,-0.13333333,0,686.86667)" />
      <path
         id="path51"
         d="m 2102.13,3973.76 c -57.72,0 -104.51,-46.8 -104.51,-104.53 0,-57.72 46.79,-104.52 104.51,-104.52 57.73,0 104.53,46.8 104.53,104.52 0,57.73 -46.8,104.53 -104.53,104.53 z m -34.95,123.36 h 69.91 l 5.34,-40.81 c 39.87,-8.55 75.13,-29.51 101.53,-58.65 l 38.06,15.79 34.95,-60.54 -32.67,-25.03 c 5.95,-18.48 9.17,-38.18 9.17,-58.65 0,-20.45 -3.22,-40.16 -9.17,-58.64 l 32.67,-25.02 -34.95,-60.55 -38.06,15.8 c -26.4,-29.14 -61.66,-50.1 -101.52,-58.65 l -5.35,-40.82 h -69.91 l -5.34,40.82 c -39.87,8.55 -75.14,29.5 -101.53,58.65 l -38.05,-15.8 -34.96,60.55 32.68,25.02 c -5.95,18.48 -9.17,38.19 -9.17,58.64 0,20.47 3.22,40.17 9.17,58.65 l -32.68,25.03 34.96,60.54 38.05,-15.79 c 26.4,29.14 61.66,50.1 101.53,58.65 l 5.34,40.81 v 0"
         style="fill:#82cbf0;fill-opacity:1;fill-rule:evenodd;stroke:none"
         transform="matrix(0.13333333,0,0,-0.13333333,0,686.86667)" />
      <path
         id="path52"
         d="m 3176.28,2749.05 c -41.53,0 -75.19,-33.65 -75.19,-75.18 0,-41.53 33.66,-75.19 75.19,-75.19 41.53,0 75.19,33.66 75.19,75.19 0,41.53 -33.66,75.18 -75.19,75.18 z m -25.13,88.75 h 50.28 l 3.84,-29.37 c 28.68,-6.14 54.05,-21.21 73.05,-42.19 l 27.37,11.37 25.14,-43.56 -23.5,-17.99 c 4.28,-13.29 6.6,-27.47 6.6,-42.19 0,-14.72 -2.32,-28.9 -6.6,-42.2 l 23.5,-18 -25.14,-43.54 -27.37,11.36 c -19,-20.97 -44.37,-36.05 -73.05,-42.19 l -3.84,-29.37 h -50.28 l -3.86,29.37 c -28.68,6.14 -54.03,21.22 -73.04,42.19 l -27.37,-11.36 -25.14,43.54 23.51,18 c -4.28,13.3 -6.6,27.48 -6.6,42.2 0,14.72 2.32,28.9 6.6,42.19 l -23.51,17.99 25.14,43.56 27.37,-11.37 c 19.01,20.98 44.36,36.05 73.04,42.19 l 3.86,29.37 v 0"
         style="fill:#82cbf0;fill-opacity:1;fill-rule:evenodd;stroke:none"
         transform="matrix(0.13333333,0,0,-0.13333333,0,686.86667)" />
      <path
         id="path53"
         d="m 1289.12,3164.91 c -22.95,0 -41.57,-18.61 -41.57,-41.57 0,-22.96 18.62,-41.57 41.57,-41.57 22.95,0 41.57,18.61 41.57,41.57 0,22.96 -18.62,41.57 -41.57,41.57 z m -13.9,49.06 h 27.8 l 2.13,-16.23 c 15.85,-3.4 29.87,-11.74 40.38,-23.32 l 15.13,6.27 13.89,-24.08 -12.98,-9.95 c 2.36,-7.35 3.64,-15.18 3.64,-23.32 0,-8.13 -1.28,-15.97 -3.64,-23.32 l 12.98,-9.95 -13.89,-24.08 -15.13,6.29 c -10.51,-11.59 -24.53,-19.93 -40.38,-23.33 l -2.13,-16.24 h -27.8 l -2.13,16.24 c -15.85,3.4 -29.88,11.73 -40.38,23.33 l -15.13,-6.29 -13.9,24.08 12.99,9.95 c -2.36,7.35 -3.64,15.19 -3.64,23.32 0,8.14 1.28,15.97 3.64,23.32 l -12.99,9.95 13.9,24.08 15.13,-6.27 c 10.5,11.58 24.53,19.92 40.38,23.32 l 2.13,16.23 v 0"
         style="fill:#bbe9fb;fill-opacity:1;fill-rule:evenodd;stroke:none"
         transform="matrix(0.13333333,0,0,-0.13333333,0,686.86667)" />
      <path
         id="path54"
         d="m 2597.48,2773.46 c -22.95,0 -41.56,-18.62 -41.56,-41.57 0,-22.96 18.61,-41.57 41.56,-41.57 22.95,0 41.58,18.61 41.58,41.57 0,22.95 -18.63,41.57 -41.58,41.57 z m -13.9,49.06 h 27.8 l 2.14,-16.24 c 15.85,-3.4 29.87,-11.74 40.37,-23.32 l 15.12,6.28 13.91,-24.07 -13,-9.96 c 2.37,-7.35 3.66,-15.19 3.66,-23.32 0,-8.13 -1.29,-15.98 -3.66,-23.32 l 13,-9.97 -13.91,-24.08 -15.12,6.29 c -10.5,-11.58 -24.52,-19.92 -40.37,-23.32 l -2.14,-16.23 h -27.8 l -2.12,16.23 c -15.86,3.4 -29.89,11.74 -40.39,23.32 l -15.12,-6.29 -13.9,24.08 12.99,9.97 c -2.37,7.34 -3.65,15.19 -3.65,23.32 0,8.13 1.28,15.97 3.65,23.32 l -12.99,9.96 13.9,24.07 15.12,-6.28 c 10.52,11.58 24.53,19.92 40.39,23.32 l 2.12,16.24 v 0"
         style="fill:#bbe9fb;fill-opacity:1;fill-rule:evenodd;stroke:none"
         transform="matrix(0.13333333,0,0,-0.13333333,0,686.86667)" />
      <path
         id="path55"
         d="m 4054.34,2910.74 c -22.96,0 -41.56,-18.62 -41.56,-41.57 0,-22.96 18.6,-41.56 41.56,-41.56 22.96,0 41.57,18.6 41.57,41.56 0,22.95 -18.61,41.57 -41.57,41.57 z m -13.91,49.06 h 27.82 l 2.13,-16.23 c 15.85,-3.4 29.87,-11.74 40.37,-23.32 l 15.13,6.27 13.91,-24.08 -13,-9.95 c 2.36,-7.34 3.64,-15.18 3.64,-23.32 0,-8.12 -1.28,-15.98 -3.64,-23.32 l 13,-9.96 -13.91,-24.08 -15.13,6.29 c -10.5,-11.58 -24.52,-19.92 -40.37,-23.32 l -2.13,-16.23 h -27.82 l -2.11,16.23 c -15.85,3.4 -29.89,11.74 -40.38,23.32 l -15.13,-6.29 -13.91,24.08 13,9.96 c -2.36,7.34 -3.64,15.2 -3.64,23.32 0,8.14 1.27,15.98 3.64,23.32 l -13,9.95 13.91,24.08 15.13,-6.27 c 10.5,11.58 24.53,19.92 40.38,23.32 l 2.11,16.23 v 0"
         style="fill:#bbe9fb;fill-opacity:1;fill-rule:evenodd;stroke:none"
         transform="matrix(0.13333333,0,0,-0.13333333,0,686.86667)" />
      <path
         id="path56"
         d="m 1033.07,1781.46 c 45.05,0 81.58,-36.53 81.58,-81.59 0,-45.03 -36.53,-81.58 -81.58,-81.58 -45.058,0 -81.578,36.55 -81.578,81.58 0,45.06 36.52,81.59 81.578,81.59 z m -256.324,36.11 c 65,0 117.692,-52.7 117.692,-117.7 0,-65 -52.692,-117.69 -117.692,-117.69 -65.004,0 -117.691,52.69 -117.691,117.69 0,65 52.687,117.7 117.691,117.7 v 0"
         style="fill:#ffffff;fill-opacity:1;fill-rule:evenodd;stroke:none"
         transform="matrix(0.13333333,0,0,-0.13333333,0,686.86667)" />
      <path
         id="path57"
         d="m 2945.38,4748.74 c 31.29,0 56.64,-25.36 56.64,-56.64 0,-31.28 -25.35,-56.64 -56.64,-56.64 -31.29,0 -56.64,25.36 -56.64,56.64 0,31.28 25.35,56.64 56.64,56.64 z m -177.98,25.08 c 45.14,0 81.72,-36.59 81.72,-81.72 0,-45.13 -36.58,-81.71 -81.72,-81.71 -45.13,0 -81.71,36.58 -81.71,81.71 0,45.13 36.58,81.72 81.71,81.72 v 0"
         style="fill:#ffffff;fill-opacity:1;fill-rule:evenodd;stroke:none"
         transform="matrix(0.13333333,0,0,-0.13333333,0,686.86667)" />
      <path
         id="path58"
         d="m 4486.93,1889.7 c 31.29,0 56.64,-25.35 56.64,-56.64 0,-31.29 -25.35,-56.66 -56.64,-56.66 -31.28,0 -56.64,25.37 -56.64,56.66 0,31.29 25.36,56.64 56.64,56.64 z m -177.97,25.08 c 45.14,0 81.72,-36.59 81.72,-81.72 0,-45.14 -36.58,-81.72 -81.72,-81.72 -45.14,0 -81.72,36.58 -81.72,81.72 0,45.13 36.58,81.72 81.72,81.72 v 0"
         style="fill:#ffffff;fill-opacity:1;fill-rule:evenodd;stroke:none"
         transform="matrix(0.13333333,0,0,-0.13333333,0,686.86667)" />
    </g>
  </g>
</svg>
