<?xml version="1.0" encoding="UTF-8" standalone="no"?>
<!-- Created with Inkscape (http://www.inkscape.org/) -->

<svg
   version="1.1"
   id="svg1"
   width="680.34668"
   height="819.71997"
   viewBox="0 0 680.34668 819.71997"
   sodipodi:docname="tasks-on-the-dashboard.svg"
   inkscape:version="1.3.2 (091e20ef0f, 2023-11-25, custom)"
   xmlns:inkscape="http://www.inkscape.org/namespaces/inkscape"
   xmlns:sodipodi="http://sodipodi.sourceforge.net/DTD/sodipodi-0.dtd"
   xmlns="http://www.w3.org/2000/svg"
   xmlns:svg="http://www.w3.org/2000/svg">
  <defs
     id="defs1" />
  <sodipodi:namedview
     id="namedview1"
     pagecolor="#505050"
     bordercolor="#ffffff"
     borderopacity="1"
     inkscape:showpageshadow="0"
     inkscape:pageopacity="0"
     inkscape:pagecheckerboard="1"
     inkscape:deskcolor="#d1d1d1"
     inkscape:zoom="0.94216672"
     inkscape:cx="340.17334"
     inkscape:cy="409.69394"
     inkscape:window-width="1920"
     inkscape:window-height="1002"
     inkscape:window-x="0"
     inkscape:window-y="0"
     inkscape:window-maximized="1"
     inkscape:current-layer="g1">
    <inkscape:page
       x="0"
       y="0"
       inkscape:label="1"
       id="page1"
       width="680.34668"
       height="819.71997"
       margin="0"
       bleed="0" />
  </sodipodi:namedview>
  <g
     id="g1"
     inkscape:groupmode="layer"
     inkscape:label="1">
    <g
       id="group-R5">
      <path
         id="path2"
         d="m 1508.94,100.262 c 0,7.519 -1.08,14 -3.31,19.308 -2.16,5.379 -5.2,9.532 -9.1,12.461 -3.89,2.84 -8.18,4.297 -12.92,4.297 -7.49,0 -13.83,-3.156 -18.99,-9.289 -5.15,-6.199 -7.73,-15.258 -7.73,-27.2577 0,-11.3204 2.58,-20.1133 7.66,-26.3125 5.15,-6.3086 11.51,-9.4688 19.06,-9.4688 4.51,0 8.73,1.3711 12.6,4.1484 3.79,2.7305 6.9,6.8438 9.23,12.2735 2.35,5.5195 3.5,12.0976 3.5,19.8401 z m -53.31,41.379 v -3.422 c 5.1,6.543 10.39,11.441 15.9,14.48 5.53,3.11 11.81,4.672 18.8,4.672 8.35,0 16.06,-2.269 23.1,-6.781 7.03,-4.508 12.59,-11.059 16.7,-19.758 4.08,-8.691 6.09,-18.922 6.09,-30.793 0,-8.7109 -1.14,-16.8281 -3.51,-24.039 -2.34,-7.3203 -5.6,-13.5 -9.7,-18.4492 -4.12,-4.9492 -9.03,-8.7813 -14.6,-11.4219 -5.64,-2.7187 -11.69,-4.0195 -18.08,-4.0195 -7.82,0 -14.34,1.6211 -19.62,4.8828 -5.33,3.2461 -10.33,8.0078 -15.08,14.3164 V 18.7188 C 1455.63,6.21875 1451.26,0 1442.56,0 c -5.11,0 -8.52,1.58984 -10.13,4.78906 -1.68,3.24219 -2.5,7.94924 -2.5,14.10154 V 141.449 c 0,5.403 1.09,9.449 3.37,12.11 2.3,2.652 5.37,4.011 9.26,4.011 3.86,0 7,-1.359 9.42,-4.14 2.41,-2.75 3.65,-6.7 3.65,-11.789"
         style="fill:#100f0d;fill-opacity:1;fill-rule:nonzero;stroke:none"
         transform="matrix(0.13333333,0,0,-0.13333333,0,819.72)" />
      <path
         id="path3"
         d="m 1628.76,58.1602 v 3.5781 c -3.27,-4.2774 -6.68,-7.8672 -10.28,-10.7695 -3.59,-2.9571 -7.51,-5.1094 -11.74,-6.5 -4.29,-1.418 -9.13,-2.1368 -14.58,-2.1368 -6.54,0 -12.44,1.4375 -17.67,4.25 -5.22,2.8282 -9.27,6.7696 -12.08,11.75 -3.45,6.0274 -5.1,14.6993 -5.1,25.9571 v 56.2699 c 0,5.652 1.23,9.921 3.7,12.722 2.46,2.801 5.69,4.219 9.73,4.219 4.14,0 7.44,-1.418 9.98,-4.289 2.53,-2.852 3.77,-7.082 3.77,-12.652 V 95.0781 c 0,-6.5273 0.52,-12.0781 1.56,-16.5078 1.11,-4.4883 3.02,-7.9922 5.8,-10.5586 2.7,-2.4922 6.46,-3.7617 11.17,-3.7617 4.63,0 8.93,1.4414 12.96,4.2695 4.08,2.8086 7.05,6.5118 8.89,11.0899 1.53,4.0312 2.28,12.832 2.28,26.4106 v 34.539 c 0,5.57 1.26,9.8 3.81,12.652 2.5,2.871 5.75,4.289 9.83,4.289 4.06,0 7.31,-1.418 9.77,-4.219 2.42,-2.801 3.63,-7.07 3.63,-12.722 V 58.332 c 0,-5.4023 -1.12,-9.4804 -3.49,-12.1523 -2.33,-2.7383 -5.37,-4.0586 -9.1,-4.0586 -3.71,0 -6.77,1.4375 -9.21,4.168 -2.42,2.8593 -3.63,6.7422 -3.63,11.8711"
         style="fill:#100f0d;fill-opacity:1;fill-rule:nonzero;stroke:none"
         transform="matrix(0.13333333,0,0,-0.13333333,0,819.72)" />
      <path
         id="path4"
         d="m 1707.66,99.1406 c 0,-11.289 2.46,-19.9414 7.38,-26.0312 4.97,-6.0274 11.47,-9.1094 19.53,-9.1094 6.85,0 12.7,3.1211 17.69,9.3203 4.97,6.2188 7.45,15.0508 7.45,26.6485 0,7.5622 -1.04,13.9722 -3.11,19.3592 -2.08,5.442 -5.02,9.621 -8.76,12.543 -3.85,2.938 -8.21,4.457 -13.27,4.457 -5.23,0 -9.78,-1.519 -13.86,-4.457 -4.08,-2.922 -7.24,-7.211 -9.58,-12.801 -2.33,-5.539 -3.47,-12.16 -3.47,-19.9294 z m -1.29,84.3794 v -43.391 c 5.05,5.601 10.3,9.801 15.6,12.812 5.32,2.93 11.93,4.43 19.74,4.43 9.05,0 16.96,-2.269 23.77,-6.691 6.8,-4.551 12.11,-10.989 15.84,-19.481 3.79,-8.48 5.64,-18.558 5.64,-30.199 0,-8.6094 -1.03,-16.4805 -3.1,-23.7109 -2.11,-7.1407 -5.11,-13.3282 -9.12,-18.6602 -4.02,-5.2383 -8.86,-9.2695 -14.51,-12.25 -5.71,-2.8203 -11.97,-4.2695 -18.8,-4.2695 -4.15,0 -8.12,0.5195 -11.83,1.539 -3.68,1.0508 -6.85,2.4102 -9.37,4.1602 -2.63,1.6016 -4.84,3.4219 -6.68,5.1719 -1.81,1.8398 -4.2,4.5195 -7.18,8.1211 V 58.332 c 0,-5.3711 -1.26,-9.4023 -3.72,-12.1523 -2.43,-2.7383 -5.6,-4.0703 -9.34,-4.0703 -3.88,0 -6.93,1.332 -9.26,4.0703 -2.26,2.8086 -3.41,6.8008 -3.41,12.1523 v 123.957 c 0,5.711 1.11,10.07 3.36,13.012 2.22,2.961 5.29,4.418 9.31,4.418 4.16,0 7.39,-1.387 9.62,-4.231 2.29,-2.777 3.44,-6.746 3.44,-11.968"
         style="fill:#100f0d;fill-opacity:1;fill-rule:nonzero;stroke:none"
         transform="matrix(0.13333333,0,0,-0.13333333,0,819.72)" />
      <path
         id="path5"
         d="M 1806.16,59.3789 V 182.469 c 0,5.711 1.21,9.98 3.6,12.91 2.47,2.883 5.72,4.34 9.84,4.34 4.13,0 7.43,-1.41 9.97,-4.297 2.48,-2.871 3.79,-7.223 3.79,-12.953 V 59.3789 c 0,-5.7578 -1.31,-10.0976 -3.86,-13 -2.54,-2.8203 -5.85,-4.2695 -9.9,-4.2695 -3.98,0 -7.18,1.4922 -9.69,4.4726 -2.5,2.9883 -3.75,7.2266 -3.75,12.7969"
         style="fill:#100f0d;fill-opacity:1;fill-rule:nonzero;stroke:none"
         transform="matrix(0.13333333,0,0,-0.13333333,0,819.72)" />
      <path
         id="path6"
         d="M 1888.63,141.371 V 59.3789 c 0,-5.7187 -1.33,-10.0195 -3.85,-12.9297 -2.62,-2.8476 -5.92,-4.3398 -9.87,-4.3398 -4,0 -7.25,1.4922 -9.72,4.4414 -2.47,3.0195 -3.76,7.2578 -3.76,12.8281 v 81.1801 c 0,5.57 1.29,9.8 3.76,12.652 2.47,2.871 5.72,4.289 9.72,4.289 3.95,0 7.25,-1.418 9.87,-4.289 2.52,-2.852 3.85,-6.781 3.85,-11.84 z m -13.45,29.348 c -3.79,0 -7,1.211 -9.75,3.703 -2.62,2.406 -4,5.867 -4,10.316 0,4.004 1.38,7.282 4.15,9.922 2.75,2.61 5.95,3.828 9.6,3.828 3.52,0 6.66,-1.136 9.37,-3.476 2.71,-2.364 4.08,-5.821 4.08,-10.274 0,-4.406 -1.34,-7.816 -4,-10.238 -2.66,-2.461 -5.77,-3.781 -9.45,-3.781"
         style="fill:#100f0d;fill-opacity:1;fill-rule:nonzero;stroke:none"
         transform="matrix(0.13333333,0,0,-0.13333333,0,819.72)" />
      <path
         id="path7"
         d="m 2014.16,77.25 c 0,-3.5078 -1,-7.3086 -3.02,-11.3398 -2.05,-4.0118 -5.13,-7.8204 -9.3,-11.4688 -4.13,-3.6211 -9.36,-6.5508 -15.67,-8.75 -6.31,-2.2812 -13.43,-3.3594 -21.31,-3.3594 -16.82,0 -29.93,5.1289 -39.37,15.3282 -9.41,10.2304 -14.14,23.8984 -14.14,41.1093 0,11.6405 2.15,21.9605 6.45,30.8715 4.31,8.89 10.61,15.859 18.74,20.718 8.15,4.922 17.95,7.36 29.27,7.36 7.07,0 13.54,-1.098 19.42,-3.219 5.87,-2.168 10.85,-4.949 14.93,-8.309 4.08,-3.41 7.2,-7.043 9.37,-10.859 2.18,-3.844 3.23,-7.441 3.23,-10.773 0,-3.348 -1.24,-6.227 -3.63,-8.61 -2.45,-2.379 -5.35,-3.539 -8.81,-3.539 -2.28,0 -4.13,0.649 -5.66,1.86 -1.45,1.171 -3.15,3.082 -5.03,5.839 -3.3,5.25 -6.79,9.231 -10.4,11.922 -3.63,2.598 -8.23,3.949 -13.76,3.949 -8.09,0 -14.56,-3.332 -19.46,-9.871 -4.93,-6.578 -7.36,-15.539 -7.36,-26.9098 0,-5.3008 0.63,-10.2695 1.91,-14.6992 1.25,-4.4883 3.07,-8.2891 5.45,-11.4687 2.4,-3.1524 5.26,-5.5196 8.66,-7.1602 3.39,-1.6602 7.12,-2.4531 11.14,-2.4531 5.48,0 10.13,1.2929 14.02,3.9336 3.9,2.6679 7.33,6.6875 10.31,12.0273 1.67,3.2695 3.45,5.7422 5.39,7.5703 1.95,1.8125 4.31,2.6602 7.09,2.6602 3.31,0 6.07,-1.2696 8.28,-3.9102 2.15,-2.6992 3.26,-5.4687 3.26,-8.4492"
         style="fill:#100f0d;fill-opacity:1;fill-rule:nonzero;stroke:none"
         transform="matrix(0.13333333,0,0,-0.13333333,0,819.72)" />
      <path
         id="path8"
         d="m 2058.96,99.9688 c 0,-7.6993 1.14,-14.1993 3.42,-19.6368 2.31,-5.4218 5.4,-9.4531 9.39,-12.1836 4.01,-2.7773 8.37,-4.1484 13.04,-4.1484 4.79,0 9.15,1.332 13.1,3.8906 3.97,2.6094 7.09,6.6289 9.48,11.9883 2.37,5.3516 3.53,12.082 3.53,20.0899 0,7.6012 -1.16,14.0622 -3.53,19.5312 -2.39,5.449 -5.55,9.602 -9.56,12.531 -4.03,2.84 -8.41,4.297 -13.19,4.297 -4.96,0 -9.41,-1.519 -13.34,-4.457 -3.89,-2.922 -6.97,-7.203 -9.12,-12.699 -2.14,-5.531 -3.22,-11.871 -3.22,-19.2032 z m 53.46,-41.6368 v 2.7696 c -3.66,-4.3711 -7.26,-7.9102 -10.86,-10.6133 -3.49,-2.7695 -7.37,-4.8399 -11.52,-6.2695 -4.13,-1.379 -8.67,-2.1094 -13.57,-2.1094 -6.5,0 -12.57,1.4492 -18.09,4.2695 -5.53,2.9805 -10.32,7.0313 -14.38,12.3711 -4.04,5.3398 -7.12,11.6094 -9.22,18.8398 -2.12,7.1797 -3.14,14.9805 -3.14,23.4102 0,17.699 4.16,31.59 12.46,41.512 8.32,9.91 19.23,14.859 32.76,14.859 7.83,0 14.45,-1.43 19.82,-4.293 5.37,-2.758 10.63,-7.078 15.74,-12.949 v 41.922 c 0,5.84 1.1,10.23 3.34,13.199 2.21,3 5.35,4.469 9.49,4.469 4.11,0 7.28,-1.367 9.53,-4.078 2.21,-2.719 3.36,-6.782 3.36,-12.121 V 58.332 c 0,-5.4023 -1.21,-9.4804 -3.61,-12.1523 -2.41,-2.7383 -5.46,-4.0703 -9.28,-4.0703 -3.68,0 -6.79,1.3906 -9.22,4.1797 -2.41,2.8125 -3.61,6.7812 -3.61,12.0429"
         style="fill:#100f0d;fill-opacity:1;fill-rule:nonzero;stroke:none"
         transform="matrix(0.13333333,0,0,-0.13333333,0,819.72)" />
      <path
         id="path9"
         d="m 2239.95,99.7383 c 0,11.5317 -2.48,20.5817 -7.34,27.0237 -4.89,6.41 -11.46,9.66 -19.68,9.66 -5.35,0 -10,-1.442 -14.06,-4.313 -4.04,-2.918 -7.16,-7.16 -9.35,-12.781 -2.18,-5.558 -3.3,-12.066 -3.3,-19.5897 0,-7.4297 1.12,-13.8789 3.24,-19.4063 2.15,-5.5507 5.25,-9.8007 9.29,-12.7539 4,-2.9375 8.77,-4.3789 14.18,-4.3789 8.22,0 14.79,3.211 19.68,9.6914 4.86,6.4492 7.34,15.4492 7.34,26.8477 z m 27.28,0 c 0,-8.4102 -1.28,-16.207 -3.79,-23.3985 -2.52,-7.0781 -6.17,-13.2304 -10.93,-18.3789 -4.81,-5.1289 -10.52,-8.9726 -17.15,-11.7812 -6.64,-2.7383 -14.17,-4.0703 -22.43,-4.0703 -8.22,0 -15.64,1.332 -22.19,4.1523 -6.58,2.7578 -12.31,6.7188 -17.13,11.8985 -4.79,5.1796 -8.42,11.2304 -10.95,18.2617 -2.48,7.0781 -3.72,14.8203 -3.72,23.3672 0,8.5899 1.27,16.4609 3.77,23.5699 2.52,7.172 6.12,13.231 10.85,18.332 4.73,5.039 10.42,8.938 17.18,11.668 6.72,2.75 14.08,4.141 22.19,4.141 8.25,0 15.72,-1.391 22.43,-4.168 6.68,-2.773 12.43,-6.762 17.2,-11.883 4.82,-5.121 8.44,-11.258 10.88,-18.328 2.55,-7.051 3.79,-14.851 3.79,-23.3827"
         style="fill:#100f0d;fill-opacity:1;fill-rule:nonzero;stroke:none"
         transform="matrix(0.13333333,0,0,-0.13333333,0,819.72)" />
      <path
         id="path10"
         d="m 2382.08,123.191 c -2.04,-4.8 -3,-13.261 -3,-25.4605 v -37.711 c 0,-5.9375 -1.27,-10.4492 -3.89,-13.4375 -2.58,-2.9804 -6.04,-4.4726 -10.29,-4.4726 -4.08,0 -7.41,1.4922 -9.95,4.4726 -2.56,2.9883 -3.81,7.5 -3.81,13.4375 v 45.2695 c 0,7.121 -0.27,12.652 -0.74,16.652 -0.47,3.911 -1.72,7.168 -3.78,9.707 -2.02,2.543 -5.3,3.801 -9.73,3.801 -8.89,0 -14.74,-3.187 -17.59,-9.597 -2.84,-6.352 -4.19,-15.512 -4.19,-27.4614 V 60.0195 c 0,-5.9297 -1.31,-10.3984 -3.84,-13.3398 -2.58,-3.0781 -5.95,-4.5703 -10.08,-4.5703 -4.15,0 -7.56,1.4922 -10.16,4.5703 -2.65,2.9414 -3.9,7.4101 -3.9,13.332 v 81.2073 c 0,5.351 1.13,9.41 3.46,12.172 2.39,2.757 5.49,4.179 9.38,4.179 3.71,0 6.82,-1.289 9.29,-3.89 2.48,-2.59 3.73,-6.16 3.73,-10.75 v -2.7 c 4.7,5.899 9.76,10.239 15.12,12.981 5.37,2.769 11.42,4.16 17.94,4.16 6.82,0 12.68,-1.43 17.59,-4.293 4.94,-2.808 8.97,-7.117 12.14,-12.848 4.59,5.77 9.5,10.129 14.77,12.93 5.25,2.82 11.05,4.211 17.4,4.211 7.49,0 13.89,-1.5 19.22,-4.59 5.4,-3.051 9.41,-7.402 12.08,-13.09 2.34,-5.132 3.47,-13.203 3.47,-24.25 V 60.0195 c 0,-5.9375 -1.28,-10.4492 -3.83,-13.4375 -2.65,-2.9804 -6.03,-4.4726 -10.29,-4.4726 -4.13,0 -7.49,1.4922 -10.1,4.5703 -2.66,2.9414 -3.97,7.4101 -3.97,13.3398 v 47.7615 c 0,6.098 -0.24,10.981 -0.73,14.66 -0.5,3.707 -1.85,6.75 -4.06,9.25 -2.18,2.5 -5.52,3.758 -9.93,3.758 -3.58,0 -7.01,-1.121 -10.18,-3.289 -3.27,-2.238 -5.71,-5.219 -7.55,-8.969 v 0"
         style="fill:#100f0d;fill-opacity:1;fill-rule:nonzero;stroke:none"
         transform="matrix(0.13333333,0,0,-0.13333333,0,819.72)" />
      <path
         id="path11"
         d="m 2536.1,99.1992 c -4.01,-1.5586 -9.8,-3.1172 -17.4,-4.8476 -7.62,-1.7032 -12.88,-2.9414 -15.8,-3.75 -2.93,-0.8203 -5.73,-2.3594 -8.34,-4.6602 -2.69,-2.3906 -4.03,-5.6094 -4.03,-9.7695 0,-4.3438 1.58,-7.961 4.67,-10.9922 3.14,-3.0586 7.24,-4.5313 12.29,-4.5313 5.37,0 10.36,1.25 14.89,3.711 4.55,2.4414 7.92,5.6601 10,9.5 2.47,4.3203 3.72,11.3711 3.72,21.3008 z m 1.77,-41.1094 c -6.59,-5.3515 -12.94,-9.3203 -19.08,-11.9609 -6.12,-2.7187 -13.05,-4.0195 -20.65,-4.0195 -7.02,0 -13.09,1.4492 -18.41,4.2695 -5.32,2.9024 -9.34,6.8125 -12.22,11.7813 -2.82,4.9101 -4.28,10.1992 -4.28,15.9882 0,7.7618 2.41,14.3516 7.12,19.8399 4.67,5.4531 11.14,9.1327 19.37,11.0237 1.73,0.418 6.04,1.308 12.84,2.769 6.91,1.489 12.71,2.789 17.67,4 4.83,1.188 10.16,2.68 15.87,4.399 -0.35,7.519 -1.78,13.011 -4.32,16.582 -2.6,3.468 -7.93,5.179 -15.92,5.179 -6.94,0 -12.11,-0.98 -15.64,-2.992 -3.46,-1.988 -6.47,-5.027 -8.93,-9.097 -2.52,-4 -4.24,-6.661 -5.27,-7.922 -1.06,-1.321 -3.28,-1.899 -6.61,-1.899 -3.1,0 -5.72,1.008 -7.92,3.028 -2.26,2.062 -3.36,4.64 -3.36,7.882 0,4.969 1.69,9.86 5.06,14.508 3.4,4.742 8.69,8.602 15.85,11.711 7.17,3.051 16.13,4.559 26.82,4.559 11.93,0 21.34,-1.508 28.23,-4.438 6.82,-2.922 11.6,-7.551 14.45,-13.98 2.84,-6.34 4.24,-14.832 4.24,-25.36 0,-6.64 0,-12.332 -0.04,-16.941 -0.05,-4.6914 -0.08,-9.8398 -0.15,-15.5195 0,-5.3086 0.84,-10.9024 2.56,-16.6602 1.65,-5.789 2.49,-9.5312 2.49,-11.1601 0,-2.918 -1.33,-5.5899 -3.93,-7.9688 -2.57,-2.3828 -5.58,-3.582 -8.88,-3.582 -2.83,0 -5.53,1.332 -8.3,4.0703 -2.71,2.75 -5.6,6.75 -8.66,11.9101"
         style="fill:#100f0d;fill-opacity:1;fill-rule:nonzero;stroke:none"
         transform="matrix(0.13333333,0,0,-0.13333333,0,819.72)" />
      <path
         id="path12"
         d="M 2617.6,141.371 V 59.3789 c 0,-5.7187 -1.3,-10.0195 -3.85,-12.9297 -2.59,-2.8476 -5.85,-4.3398 -9.85,-4.3398 -3.98,0 -7.26,1.4922 -9.72,4.4414 -2.52,3.0195 -3.77,7.2578 -3.77,12.8281 v 81.1801 c 0,5.57 1.25,9.8 3.77,12.652 2.46,2.871 5.74,4.289 9.72,4.289 4,0 7.26,-1.418 9.85,-4.289 2.55,-2.852 3.85,-6.781 3.85,-11.84 z m -13.44,29.348 c -3.74,0 -6.97,1.211 -9.66,3.703 -2.69,2.406 -4.09,5.867 -4.09,10.316 0,4.004 1.41,7.282 4.17,9.922 2.73,2.61 5.97,3.828 9.58,3.828 3.54,0 6.69,-1.136 9.42,-3.476 2.68,-2.364 4.02,-5.821 4.02,-10.274 0,-4.406 -1.3,-7.816 -3.97,-10.238 -2.66,-2.461 -5.81,-3.781 -9.47,-3.781"
         style="fill:#100f0d;fill-opacity:1;fill-rule:nonzero;stroke:none"
         transform="matrix(0.13333333,0,0,-0.13333333,0,819.72)" />
      <path
         id="path13"
         d="m 2670.45,141.781 v -3.39 c 4.76,6.57 9.98,11.398 15.62,14.48 5.69,3.07 12.23,4.629 19.63,4.629 7.13,0 13.57,-1.629 19.26,-4.922 5.58,-3.238 9.83,-7.816 12.58,-13.758 1.82,-3.488 2.94,-7.269 3.52,-11.281 0.49,-3.969 0.8,-9.109 0.8,-15.371 V 59.3789 c 0,-5.7187 -1.29,-10.0195 -3.76,-12.9297 -2.5,-2.8476 -5.74,-4.3398 -9.71,-4.3398 -4.04,0 -7.35,1.4922 -9.77,4.4726 -2.56,2.9883 -3.86,7.2266 -3.86,12.7969 v 47.2691 c 0,9.403 -1.21,16.543 -3.69,21.481 -2.54,4.949 -7.52,7.473 -14.96,7.473 -4.84,0 -9.24,-1.532 -13.22,-4.563 -3.98,-2.98 -6.9,-7.141 -8.75,-12.418 -1.34,-4.23 -2.04,-12.09 -2.04,-23.7421 v -35.5 c 0,-5.7578 -1.25,-10.0976 -3.82,-13 -2.57,-2.8203 -5.87,-4.2695 -9.9,-4.2695 -3.89,0 -7.14,1.4922 -9.65,4.4414 -2.57,3.0195 -3.8,7.2578 -3.8,12.8281 v 81.9921 c 0,5.43 1.11,9.43 3.4,12.098 2.21,2.679 5.38,4.031 9.27,4.031 2.35,0 4.54,-0.641 6.43,-1.77 1.99,-1.16 3.48,-2.992 4.65,-5.261 1.12,-2.41 1.77,-5.289 1.77,-8.688"
         style="fill:#100f0d;fill-opacity:1;fill-rule:nonzero;stroke:none"
         transform="matrix(0.13333333,0,0,-0.13333333,0,819.72)" />
      <path
         id="path14"
         d="m 2785.5,139.832 21.97,-64.4414 23.72,67.2504 c 1.88,5.418 3.7,9.199 5.51,11.468 1.83,2.243 4.51,3.391 8.14,3.391 3.46,0 6.39,-1.219 8.87,-3.691 2.37,-2.399 3.59,-5.161 3.59,-8.43 0,-1.219 -0.23,-2.66 -0.66,-4.277 -0.39,-1.704 -0.89,-3.262 -1.49,-4.762 -0.57,-1.391 -1.15,-3.078 -1.94,-4.942 l -26.09,-67.5699 c -0.73,-1.9297 -1.7,-4.4179 -2.83,-7.4062 -1.18,-2.9727 -2.5,-5.461 -3.88,-7.6524 -1.47,-2.0898 -3.21,-3.6992 -5.28,-4.8906 -2.13,-1.1797 -4.68,-1.7695 -7.66,-1.7695 -3.85,0 -6.91,0.9023 -9.23,2.7109 -2.29,1.8594 -3.99,3.8399 -5.07,6.0703 -1.08,2.1407 -2.96,6.4883 -5.52,12.9375 l -25.93,66.8439 c -0.59,1.629 -1.24,3.308 -1.88,4.976 -0.6,1.661 -1.09,3.321 -1.55,5.094 -0.42,1.77 -0.67,3.246 -0.67,4.438 0,1.98 0.57,3.902 1.72,5.8 1.13,1.93 2.7,3.5 4.68,4.68 2.02,1.199 4.13,1.84 6.5,1.84 4.48,0 7.59,-1.352 9.3,-4.109 1.7,-2.672 3.6,-7.2 5.68,-13.559"
         style="fill:#100f0d;fill-opacity:1;fill-rule:nonzero;stroke:none"
         transform="matrix(0.13333333,0,0,-0.13333333,0,819.72)" />
      <path
         id="path15"
         d="m 2896.73,109.012 h 49.29 c -0.62,9.668 -3.11,16.918 -7.5,21.718 -4.36,4.79 -10.1,7.211 -17.22,7.211 -6.72,0 -12.31,-2.453 -16.64,-7.312 -4.34,-4.859 -6.95,-12.09 -7.93,-21.617 z m 53.21,-16.1526 h -53.21 c 0.01,-6.4688 1.31,-12.1406 3.69,-17.0977 2.47,-4.8828 5.67,-8.6015 9.7,-11.1211 4.01,-2.5195 8.46,-3.7226 13.31,-3.7226 3.24,0 6.25,0.3906 8.9,1.1718 2.67,0.8399 5.31,2.0821 7.86,3.75 2.48,1.6993 4.79,3.4688 6.93,5.4883 2.1,1.9414 4.94,4.5313 8.28,7.8711 1.4,1.3125 3.41,1.9024 5.96,1.9024 2.84,0 5.07,-0.7696 6.81,-2.4102 1.73,-1.5898 2.54,-3.8203 2.54,-6.7305 0,-2.5703 -0.94,-5.5703 -2.88,-9.0312 -1.91,-3.3789 -4.76,-6.6992 -8.71,-9.8984 -3.9,-3.1211 -8.77,-5.6915 -14.65,-7.8321 -5.85,-2.0703 -12.58,-3.0898 -20.29,-3.0898 -17.43,0 -31.03,5.2304 -40.69,15.5703 -9.69,10.4492 -14.51,24.5117 -14.51,42.2891 0,8.4922 1.23,16.2112 3.56,23.3712 2.4,7.191 5.86,13.332 10.46,18.441 4.59,5.16 10.2,9.117 16.93,11.821 6.74,2.75 14.14,4.117 22.34,4.117 10.55,0 19.7,-2.328 27.3,-7.039 7.62,-4.68 13.31,-10.68 17.09,-18.09 3.78,-7.461 5.68,-14.981 5.68,-22.731 0,-7.078 -1.91,-11.7106 -5.86,-13.8082 -3.96,-2.1524 -9.43,-3.1914 -16.54,-3.1914"
         style="fill:#100f0d;fill-opacity:1;fill-rule:nonzero;stroke:none"
         transform="matrix(0.13333333,0,0,-0.13333333,0,819.72)" />
      <path
         id="path16"
         d="m 3092.82,77.25 c 0,-3.5078 -1.01,-7.3086 -3.08,-11.3398 -2.03,-4.0118 -5.06,-7.8204 -9.25,-11.4688 -4.13,-3.6211 -9.4,-6.5508 -15.73,-8.75 -6.27,-2.2812 -13.42,-3.3594 -21.25,-3.3594 -16.86,0 -29.97,5.1289 -39.38,15.3282 -9.41,10.2304 -14.15,23.8984 -14.15,41.1093 0,11.6405 2.13,21.9605 6.49,30.8715 4.33,8.89 10.51,15.859 18.71,20.718 8.14,4.922 17.93,7.36 29.31,7.36 7.03,0 13.46,-1.098 19.39,-3.219 5.86,-2.168 10.8,-4.949 14.94,-8.309 4.09,-3.41 7.17,-7.043 9.36,-10.859 2.14,-3.844 3.21,-7.441 3.21,-10.773 0,-3.348 -1.18,-6.227 -3.68,-8.61 -2.39,-2.379 -5.32,-3.539 -8.78,-3.539 -2.26,0 -4.13,0.649 -5.6,1.86 -1.52,1.171 -3.18,3.082 -5.06,5.839 -3.32,5.25 -6.77,9.231 -10.39,11.922 -3.63,2.598 -8.23,3.949 -13.82,3.949 -7.99,0 -14.48,-3.332 -19.4,-9.871 -4.96,-6.578 -7.4,-15.539 -7.4,-26.9098 0,-5.3008 0.67,-10.2695 1.89,-14.6992 1.27,-4.4883 3.11,-8.2891 5.51,-11.4687 2.39,-3.1524 5.3,-5.5196 8.67,-7.1602 3.34,-1.6602 7.08,-2.4531 11.16,-2.4531 5.43,0 10.11,1.2929 14,3.9336 3.87,2.6679 7.34,6.6875 10.32,12.0273 1.67,3.2695 3.43,5.7422 5.38,7.5703 1.91,1.8125 4.23,2.6602 7.07,2.6602 3.28,0 6.08,-1.2696 8.19,-3.9102 2.24,-2.6992 3.37,-5.4687 3.37,-8.4492"
         style="fill:#100f0d;fill-opacity:1;fill-rule:nonzero;stroke:none"
         transform="matrix(0.13333333,0,0,-0.13333333,0,819.72)" />
      <path
         id="path17"
         d="m 3118.07,155.102 h 2.99 v 17.058 c 0,4.539 0.13,8.172 0.37,10.762 0.23,2.598 0.82,4.777 1.94,6.687 1.03,1.911 2.56,3.5 4.59,4.743 1.98,1.179 4.19,1.757 6.65,1.757 3.44,0 6.58,-1.328 9.35,-4.007 1.82,-1.832 3.03,-4 3.53,-6.582 0.5,-2.598 0.73,-6.34 0.73,-11.098 v -19.32 h 10 c 3.85,0 6.79,-0.961 8.82,-2.872 2.06,-1.91 3.04,-4.32 3.04,-7.308 0,-3.82 -1.43,-6.531 -4.36,-8.024 -2.87,-1.488 -7.01,-2.269 -12.39,-2.269 h -5.11 V 82.3594 c 0,-4.4492 0.16,-7.8672 0.45,-10.2891 0.35,-2.4101 1.19,-4.3515 2.45,-5.8008 1.26,-1.5 3.37,-2.2695 6.32,-2.2695 1.58,0 3.73,0.2695 6.48,0.8984 2.66,0.5704 4.8,0.8829 6.35,0.8829 2.18,0 4.22,-0.961 5.95,-2.711 1.71,-1.8906 2.62,-4.1211 2.62,-6.8398 0,-4.5508 -2.34,-8.0586 -7.16,-10.4883 -4.83,-2.4336 -11.68,-3.6328 -20.61,-3.6328 -8.51,0 -14.97,1.4922 -19.36,4.4726 -4.35,2.9883 -7.27,7.0782 -8.58,12.4063 -1.4,5.2617 -2.07,12.293 -2.07,21.0898 v 54.5509 h -3.61 c -3.85,0 -6.85,0.973 -8.93,2.922 -2.07,1.941 -3.08,4.371 -3.08,7.371 0,2.988 1.06,5.398 3.2,7.308 2.19,1.911 5.3,2.872 9.43,2.872"
         style="fill:#100f0d;fill-opacity:1;fill-rule:nonzero;stroke:none"
         transform="matrix(0.13333333,0,0,-0.13333333,0,819.72)" />
      <path
         id="path18"
         d="m 3263.27,99.7383 c 0,11.5317 -2.46,20.5817 -7.32,27.0237 -4.93,6.41 -11.42,9.66 -19.69,9.66 -5.33,0 -10,-1.442 -14.02,-4.313 -4.08,-2.918 -7.2,-7.16 -9.37,-12.781 -2.19,-5.558 -3.31,-12.066 -3.31,-19.5897 0,-7.4297 1.12,-13.8789 3.27,-19.4063 2.15,-5.5507 5.21,-9.8007 9.23,-12.7539 4,-2.9375 8.75,-4.3789 14.2,-4.3789 8.27,0 14.76,3.211 19.69,9.6914 4.86,6.4492 7.32,15.4492 7.32,26.8477 z m 27.3,0 c 0,-8.4102 -1.25,-16.207 -3.82,-23.3985 -2.5,-7.0781 -6.17,-13.2304 -10.92,-18.3789 -4.8,-5.1289 -10.52,-8.9726 -17.13,-11.7812 -6.67,-2.7383 -14.1,-4.0703 -22.44,-4.0703 -8.27,0 -15.68,1.332 -22.22,4.1523 -6.56,2.7578 -12.29,6.7188 -17.09,11.8985 -4.8,5.1796 -8.46,11.2304 -10.91,18.2617 -2.48,7.0781 -3.7,14.8203 -3.7,23.3672 0,8.5899 1.22,16.4609 3.7,23.5699 2.58,7.172 6.15,13.231 10.86,18.332 4.76,5.039 10.45,8.938 17.14,11.668 6.78,2.75 14.16,4.141 22.22,4.141 8.27,0 15.7,-1.391 22.44,-4.168 6.7,-2.773 12.42,-6.762 17.21,-11.883 4.73,-5.121 8.44,-11.258 10.92,-18.328 2.49,-7.051 3.74,-14.851 3.74,-23.3827"
         style="fill:#100f0d;fill-opacity:1;fill-rule:nonzero;stroke:none"
         transform="matrix(0.13333333,0,0,-0.13333333,0,819.72)" />
      <path
         id="path19"
         d="M 3339.02,83 V 59.3789 c 0,-5.7578 -1.31,-10.0976 -3.91,-13 -2.6,-2.8203 -5.87,-4.2695 -9.89,-4.2695 -3.87,0 -7.12,1.4922 -9.63,4.3398 -2.52,2.9102 -3.76,7.211 -3.76,12.9297 v 78.9921 c 0,12.77 4.4,19.129 13.23,19.129 4.48,0 7.75,-1.52 9.78,-4.469 1.95,-2.98 3.01,-7.39 3.27,-13.199 3.23,5.809 6.61,10.219 10.04,13.199 3.42,2.949 7.96,4.469 13.64,4.469 5.76,0 11.28,-1.52 16.68,-4.469 5.35,-2.98 8.08,-6.949 8.08,-11.851 0,-3.461 -1.18,-6.371 -3.47,-8.59 -2.26,-2.231 -4.75,-3.399 -7.44,-3.399 -0.98,0 -3.4,0.661 -7.21,1.969 -3.85,1.262 -7.21,1.918 -10.15,1.918 -3.94,0 -7.19,-1.047 -9.69,-3.289 -2.54,-2.219 -4.51,-5.41 -5.9,-9.699 -1.4,-4.34 -2.4,-9.43 -2.9,-15.391 -0.51,-5.8904 -0.77,-13.0896 -0.77,-21.699"
         style="fill:#100f0d;fill-opacity:1;fill-rule:nonzero;stroke:none"
         transform="matrix(0.13333333,0,0,-0.13333333,0,819.72)" />
      <path
         id="path20"
         d="m 3483.87,79.1914 c 0,-7.8633 -1.82,-14.5508 -5.52,-20.1328 -3.67,-5.6094 -9.05,-9.7773 -16.2,-12.6875 -7.16,-2.8125 -15.82,-4.2617 -26.1,-4.2617 -9.68,0 -18.1,1.539 -25.09,4.6914 -6.97,3.1094 -12.13,6.9805 -15.42,11.6484 -3.36,4.6602 -5.07,9.3594 -5.07,14.0625 0,3.1094 1.1,5.7891 3.28,8 2.1,2.2696 4.81,3.3164 8.02,3.3164 2.87,0 5.1,-0.7383 6.61,-2.1367 1.53,-1.5508 2.95,-3.5508 4.39,-6.1914 2.78,-5.0586 6.1,-8.8398 10.05,-11.3281 3.82,-2.5313 9.12,-3.7735 15.89,-3.7735 5.42,0 9.89,1.293 13.38,3.8125 3.47,2.5274 5.27,5.4102 5.27,8.6797 0,5.0196 -1.84,8.668 -5.43,10.9297 -3.67,2.3399 -9.6,4.5195 -17.9,6.5781 -9.36,2.4336 -17,4.9805 -22.89,7.6211 -5.87,2.6915 -10.63,6.2305 -14.11,10.6015 -3.53,4.301 -5.32,9.711 -5.32,16.078 0,5.731 1.64,11.09 4.91,16.133 3.23,5.059 8.1,9.09 14.42,12.109 6.33,3.039 13.97,4.559 22.99,4.559 7,0 13.33,-0.789 18.97,-2.309 5.6,-1.511 10.34,-3.582 14.04,-6.109 3.75,-2.582 6.64,-5.422 8.58,-8.523 1.99,-3.149 2.96,-6.2 2.96,-9.161 0,-3.269 -1.03,-5.878 -3.16,-8.039 -2.1,-2.007 -5.1,-3.058 -8.89,-3.058 -2.82,0 -5.19,0.82 -7.19,2.519 -1.91,1.641 -4.19,4.121 -6.7,7.399 -2.06,2.781 -4.46,5.019 -7.28,6.679 -2.8,1.633 -6.58,2.5 -11.33,2.5 -4.93,0 -9.05,-1.078 -12.25,-3.289 -3.28,-2.168 -4.92,-4.91 -4.92,-8.168 0,-2.992 1.21,-5.421 3.56,-7.332 2.43,-1.91 5.63,-3.488 9.7,-4.75 4.08,-1.25 9.64,-2.8 16.75,-4.589 8.46,-2.129 15.32,-4.668 20.68,-7.68 5.35,-2.949 9.39,-6.4806 12.14,-10.5392 2.81,-4.0899 4.18,-8.711 4.18,-13.8594"
         style="fill:#100f0d;fill-opacity:1;fill-rule:nonzero;stroke:none"
         transform="matrix(0.13333333,0,0,-0.13333333,0,819.72)" />
      <path
         id="path21"
         d="m 3514.75,42.1094 c -4.12,0 -7.68,1.332 -10.63,4.1523 -3.04,2.7578 -4.52,6.668 -4.52,11.6094 0,4.2187 1.4,7.8594 4.23,10.918 2.86,3.039 6.41,4.5312 10.6,4.5312 4.16,0 7.74,-1.4922 10.63,-4.5195 3,-2.961 4.49,-6.6797 4.49,-10.9297 0,-4.9102 -1.49,-8.7695 -4.49,-11.582 -2.89,-2.7891 -6.33,-4.1797 -10.31,-4.1797"
         style="fill:#100f0d;fill-opacity:1;fill-rule:nonzero;stroke:none"
         transform="matrix(0.13333333,0,0,-0.13333333,0,819.72)" />
      <path
         id="path22"
         d="m 3635,99.7383 c 0,11.5317 -2.45,20.5817 -7.33,27.0237 -4.88,6.41 -11.42,9.66 -19.65,9.66 -5.32,0 -9.95,-1.442 -14.02,-4.313 -4.06,-2.918 -7.18,-7.16 -9.36,-12.781 -2.16,-5.558 -3.28,-12.066 -3.28,-19.5897 0,-7.4297 1.05,-13.8789 3.2,-19.4063 2.22,-5.5507 5.27,-9.8007 9.3,-12.7539 4.01,-2.9375 8.72,-4.3789 14.16,-4.3789 8.23,0 14.77,3.211 19.65,9.6914 4.88,6.4492 7.33,15.4492 7.33,26.8477 z m 27.33,0 c 0,-8.4102 -1.25,-16.207 -3.81,-23.3985 -2.54,-7.0781 -6.15,-13.2304 -10.95,-18.3789 -4.82,-5.1289 -10.47,-8.9726 -17.13,-11.7812 -6.62,-2.7383 -14.09,-4.0703 -22.42,-4.0703 -8.22,0 -15.62,1.332 -22.19,4.1523 -6.59,2.7578 -12.25,6.7188 -17.06,11.8985 -4.89,5.1796 -8.51,11.2304 -11.03,18.2617 -2.44,7.0781 -3.69,14.8203 -3.69,23.3672 0,8.5899 1.25,16.4609 3.79,23.5699 2.57,7.172 6.13,13.231 10.82,18.332 4.71,5.039 10.44,8.938 17.17,11.668 6.69,2.75 14.05,4.141 22.19,4.141 8.23,0 15.71,-1.391 22.42,-4.168 6.74,-2.773 12.47,-6.762 17.26,-11.883 4.75,-5.121 8.38,-11.258 10.9,-18.328 2.48,-7.051 3.73,-14.851 3.73,-23.3827"
         style="fill:#100f0d;fill-opacity:1;fill-rule:nonzero;stroke:none"
         transform="matrix(0.13333333,0,0,-0.13333333,0,819.72)" />
      <path
         id="path23"
         d="M 3710.77,83 V 59.3789 c 0,-5.7578 -1.3,-10.0976 -3.89,-13 -2.55,-2.8203 -5.88,-4.2695 -9.83,-4.2695 -3.97,0 -7.15,1.4922 -9.69,4.3398 -2.56,2.9102 -3.8,7.211 -3.8,12.9297 v 78.9921 c 0,12.77 4.47,19.129 13.26,19.129 4.52,0 7.76,-1.52 9.74,-4.469 1.96,-2.98 3.12,-7.39 3.36,-13.199 3.19,5.809 6.52,10.219 9.94,13.199 3.44,2.949 8.01,4.469 13.67,4.469 5.81,0 11.35,-1.52 16.67,-4.469 5.38,-2.98 8.1,-6.949 8.1,-11.851 0,-3.461 -1.16,-6.371 -3.43,-8.59 -2.32,-2.231 -4.75,-3.399 -7.47,-3.399 -0.96,0 -3.35,0.661 -7.17,1.969 -3.84,1.262 -7.21,1.918 -10.16,1.918 -3.95,0 -7.18,-1.047 -9.78,-3.289 -2.48,-2.219 -4.45,-5.41 -5.86,-9.699 -1.36,-4.34 -2.34,-9.43 -2.85,-15.391 -0.53,-5.8904 -0.81,-13.0896 -0.81,-21.699"
         style="fill:#100f0d;fill-opacity:1;fill-rule:nonzero;stroke:none"
         transform="matrix(0.13333333,0,0,-0.13333333,0,819.72)" />
      <path
         id="path24"
         d="m 3789.28,100.719 c 0,-11.4885 2.42,-20.1995 7.26,-26.1096 4.77,-5.8477 11.04,-8.8281 18.63,-8.8281 4.49,0 8.82,1.3085 12.81,3.8281 4.03,2.5312 7.3,6.3398 9.83,11.4414 2.56,5.1094 3.78,11.2578 3.78,18.539 0,11.5702 -2.46,20.5582 -7.34,26.9922 -4.86,6.496 -11.3,9.746 -19.25,9.746 -7.75,0 -13.99,-3.156 -18.66,-9.289 -4.7,-6.187 -7.06,-14.937 -7.06,-26.32 z m 78.84,35.992 V 54.2383 c 0,-9.457 -1.04,-17.5469 -2.92,-24.3086 -1.93,-6.8281 -5.01,-12.4375 -9.26,-16.8711 -4.25,-4.41797 -9.84,-7.70704 -16.67,-9.85938 C 3832.39,1.08984 3823.82,0 3813.61,0 c -9.39,0 -17.78,1.32031 -25.1,4.05859 -7.39,2.80079 -13.09,6.30081 -17.05,10.66021 -3.98,4.2929 -6,8.75 -6,13.3515 0,3.4805 1.11,6.2813 3.43,8.461 2.23,2.2382 4.96,3.3203 8.14,3.3203 4,0 7.44,-1.8633 10.48,-5.5118 1.47,-1.9296 2.99,-3.8007 4.51,-5.6796 1.56,-1.9219 3.3,-3.5899 5.17,-4.8985 1.92,-1.3906 4.21,-2.3906 6.87,-3.0508 2.6,-0.6601 5.7,-0.9921 9.17,-0.9921 6.98,0 12.51,1.0507 16.36,3.0703 3.89,2.0429 6.63,4.9023 8.21,8.5625 1.48,3.6797 2.49,7.5976 2.64,11.789 0.33,4.2813 0.51,10.9492 0.7,20.2774 -4.18,-6.086 -9.09,-10.7383 -14.51,-13.918 -5.48,-3.2109 -12.04,-4.7617 -19.55,-4.7617 -9.17,0 -17.12,2.3828 -23.88,7.2734 -6.85,4.8399 -12.08,11.6172 -15.72,20.3789 -3.61,8.711 -5.48,18.7891 -5.48,30.2304 0,8.578 1.09,16.277 3.36,23.149 2.17,6.82 5.33,12.621 9.52,17.339 4.07,4.723 8.85,8.282 14.22,10.68 5.41,2.359 11.25,3.582 17.75,3.582 7.67,0 14.34,-1.562 19.97,-4.672 5.72,-3.039 10.91,-7.937 15.77,-14.48 v 3.801 c 0,4.96 1.2,8.742 3.5,11.519 2.29,2.672 5.31,4.031 8.94,4.031 5.27,0 8.75,-1.761 10.5,-5.34 1.7,-3.582 2.59,-8.781 2.59,-15.519"
         style="fill:#100f0d;fill-opacity:1;fill-rule:nonzero;stroke:none"
         transform="matrix(0.13333333,0,0,-0.13333333,0,819.72)" />
      <path
         id="path25"
         d="m 2689.41,413.09 h 40.34 c -2.85,-21.75 -11.76,-38.719 -26.58,-50.942 -13.72,-11.968 -30.33,-17.867 -49.73,-17.867 -26.35,0 -47.37,9.258 -63.07,27.731 -14.88,17.57 -22.3,40.25 -22.3,67.957 0,28.39 7.37,51.09 22.09,68.281 14.7,17.121 35.5,25.719 62.38,25.719 19.99,0 36.91,-5.41 50.63,-16.137 14.54,-11.602 23.44,-27.902 26.58,-48.773 h -40.34 c -3.49,18.211 -14.6,27.261 -33.52,27.261 -31.17,0 -46.79,-18.461 -46.79,-55.422 0,-17.316 4.02,-31.449 12.04,-42.457 8.02,-11.062 19.32,-16.589 33.9,-16.589 21.74,0 33.2,10.429 34.37,31.238 z m -158.79,25.449 c 0,-36.098 11.45,-66.66 34.31,-91.559 22.89,-24.89 50.9,-37.359 84.15,-37.359 33.1,0 61.13,12.469 83.98,37.359 22.92,24.899 34.3,55.461 34.3,91.559 0,36.07 -11.38,66.609 -34.3,91.512 -22.85,24.961 -50.88,37.39 -83.98,37.39 -33.25,0 -61.26,-12.429 -84.15,-37.39 -22.86,-24.903 -34.31,-55.442 -34.31,-91.512 z m -40.98,0 c 0,45.941 15.55,85.152 46.66,117.723 31.15,32.508 68.75,48.777 112.78,48.777 43.92,0 81.46,-16.269 112.64,-48.777 31.14,-32.571 46.73,-71.782 46.73,-117.723 0,-45.98 -15.59,-85.238 -46.73,-117.738 -31.18,-32.551 -68.72,-48.832 -112.64,-48.832 -44.03,0 -81.63,16.281 -112.78,48.832 -31.11,32.5 -46.66,71.758 -46.66,117.738"
         style="fill:#100f0d;fill-opacity:1;fill-rule:nonzero;stroke:none"
         transform="matrix(0.13333333,0,0,-0.13333333,0,819.72)" />
      <path
         id="path26"
         d="m 2554.15,334.121 23.25,-19.73 170.95,219.531 -23.24,19.699 -170.96,-219.5"
         style="fill:#100f0d;fill-opacity:1;fill-rule:nonzero;stroke:none"
         transform="matrix(0.13333333,0,0,-0.13333333,0,819.72)" />
      <path
         id="path27"
         d="m 2377.49,1392.96 c 1309.47,0 2377.5,1068.02 2377.5,2377.49 0,1309.48 -1068.03,2377.49 -2377.5,2377.49 C 1068.01,6147.94 0,5079.93 0,3770.45 0,2460.98 1068.01,1392.96 2377.49,1392.96"
         style="fill:#fbc589;fill-opacity:1;fill-rule:evenodd;stroke:none"
         transform="matrix(0.13333333,0,0,-0.13333333,0,819.72)" />
      <path
         id="path28"
         d="m 3249.27,4186.1 c -423.69,-38.4 -858.92,122.36 -1156.17,470.54 -297.26,348.18 -387.75,803.24 -283.37,1215.68 423.7,38.39 858.93,-122.36 1156.18,-470.55 297.25,-348.18 387.76,-803.25 283.36,-1215.67"
         style="fill:#f5b065;fill-opacity:1;fill-rule:evenodd;stroke:none"
         transform="matrix(0.13333333,0,0,-0.13333333,0,819.72)" />
      <path
         id="path29"
         d="m 1990.93,5634.61 c -5.93,6.94 -5.1,17.37 1.84,23.31 6.94,5.92 17.38,5.09 23.3,-1.85 l 195.39,-228.87 21.35,204.18 c 0.94,9.05 9.04,15.64 18.09,14.69 9.06,-0.94 15.65,-9.04 14.7,-18.1 l -24.6,-235.37 219.61,-257.23 35.63,340.97 c 0.95,9.06 9.05,15.64 18.11,14.7 9.05,-0.95 15.64,-9.05 14.69,-18.1 l -38.89,-372.18 274.12,-321.1 35.65,340.99 c 0.93,9.05 9.04,15.63 18.1,14.69 9.05,-0.94 15.63,-9.05 14.69,-18.1 l -38.89,-372.18 162.78,-190.67 21.34,204.17 c 0.94,9.06 9.05,15.64 18.11,14.7 9.04,-0.94 15.62,-9.06 14.69,-18.11 l -24.61,-235.36 152.19,-178.26 c 5.93,-6.94 5.1,-17.38 -1.84,-23.3 -6.94,-5.93 -17.38,-5.11 -23.3,1.83 l -152.19,178.27 -236.31,12.61 c -9.1,0.5 -16.07,8.26 -15.57,17.36 0.48,9.09 8.25,16.07 17.35,15.57 l 205,-10.95 -162.79,190.67 -373.67,19.97 c -9.09,0.49 -16.06,8.26 -15.57,17.35 0.49,9.1 8.26,16.06 17.35,15.58 l 342.36,-18.3 -274.14,321.11 -373.66,19.96 c -9.09,0.49 -16.07,8.26 -15.58,17.35 0.49,9.09 8.26,16.07 17.36,15.58 l 342.34,-18.29 -219.61,257.24 -236.3,12.62 c -9.1,0.49 -16.07,8.26 -15.58,17.35 0.49,9.1 8.26,16.07 17.35,15.57 l 205,-10.94 -195.39,228.87"
         style="fill:#e29544;fill-opacity:1;fill-rule:evenodd;stroke:none"
         transform="matrix(0.13333333,0,0,-0.13333333,0,819.72)" />
      <path
         id="path30"
         d="m 3137.51,4180.53 c 284.62,-316.2 416.72,-760.97 316.08,-1207.59 -100.65,-446.61 -410.73,-791.74 -803.47,-955.29 -284.63,316.18 -416.72,760.97 -316.08,1207.58 100.64,446.61 410.73,791.74 803.47,955.3"
         style="fill:#f5b065;fill-opacity:1;fill-rule:evenodd;stroke:none"
         transform="matrix(0.13333333,0,0,-0.13333333,0,819.72)" />
      <path
         id="path31"
         d="m 2731.85,2305.14 c -2,-8.9 -10.86,-14.49 -19.76,-12.48 -8.9,2 -14.5,10.84 -12.49,19.75 l 66.16,293.58 -176.26,-105.26 c -7.81,-4.69 -17.93,-2.13 -22.61,5.67 -4.67,7.82 -2.12,17.96 5.69,22.63 l 203.17,121.33 74.36,329.96 -294.35,-175.78 c -7.81,-4.68 -17.94,-2.13 -22.61,5.67 -4.67,7.82 -2.12,17.95 5.69,22.63 l 321.27,191.86 92.81,411.87 -294.35,-175.78 c -7.8,-4.68 -17.94,-2.13 -22.61,5.69 -4.66,7.81 -2.12,17.93 5.7,22.61 l 321.26,191.86 55.12,244.58 -176.26,-105.26 c -7.8,-4.67 -17.94,-2.12 -22.61,5.69 -4.67,7.81 -2.12,17.94 5.69,22.61 l 203.17,121.34 51.54,228.65 c 2,8.91 10.85,14.5 19.74,12.5 8.91,-2.01 14.5,-10.86 12.5,-19.77 l -51.52,-228.65 131.49,-196.75 c 5.06,-7.57 3.02,-17.81 -4.56,-22.86 -7.57,-5.06 -17.81,-3.02 -22.87,4.55 l -114.06,170.68 -55.12,-244.58 207.92,-311.11 c 5.06,-7.56 3.02,-17.81 -4.56,-22.87 -7.57,-5.05 -17.8,-3.01 -22.86,4.56 l -190.5,285.05 -92.81,-411.88 207.93,-311.12 c 5.05,-7.57 3,-17.8 -4.56,-22.86 -7.57,-5.06 -17.82,-3.01 -22.87,4.55 l -190.5,285.05 -74.36,-329.96 131.51,-196.76 c 5.05,-7.56 3,-17.81 -4.56,-22.87 -7.58,-5.03 -17.83,-3 -22.87,4.58 L 2798,2598.71 2731.85,2305.14"
         style="fill:#e29544;fill-opacity:1;fill-rule:evenodd;stroke:none"
         transform="matrix(0.13333333,0,0,-0.13333333,0,819.72)" />
      <path
         id="path32"
         d="m 3376.59,4155.81 c -162.81,-299.37 -182.82,-670.48 -21.18,-999.64 161.63,-329.17 467.51,-540.26 803.95,-594.48 162.81,299.38 182.81,670.48 21.19,999.65 -161.64,329.17 -467.53,540.24 -803.96,594.47"
         style="fill:#fcd9b0;fill-opacity:1;fill-rule:evenodd;stroke:none"
         transform="matrix(0.13333333,0,0,-0.13333333,0,819.72)" />
      <path
         id="path33"
         d="m 4042.11,2770.44 c 3.23,-6.56 11.17,-9.27 17.73,-6.05 6.56,3.22 9.27,11.16 6.03,17.72 l -106.24,216.36 156.93,-49.15 c 6.96,-2.18 14.37,1.69 16.56,8.65 2.17,6.96 -1.69,14.38 -8.65,16.56 l -180.89,56.66 -119.42,243.18 262.07,-82.08 c 6.94,-2.18 14.37,1.68 16.55,8.64 2.18,6.96 -1.69,14.38 -8.64,16.56 l -286.05,89.6 -149.05,303.56 262.06,-82.09 c 6.95,-2.19 14.36,1.68 16.55,8.64 2.18,6.97 -1.69,14.38 -8.64,16.57 l -286.04,89.59 -88.51,180.26 156.91,-49.15 c 6.96,-2.19 14.38,1.68 16.56,8.64 2.19,6.95 -1.68,14.37 -8.64,16.56 l -180.89,56.65 -82.76,168.53 c -3.22,6.56 -11.15,9.27 -17.72,6.05 -6.56,-3.22 -9.26,-11.16 -6.05,-17.73 l 82.75,-168.52 -65.76,-177.78 c -2.53,-6.84 0.97,-14.44 7.81,-16.96 6.84,-2.53 14.44,0.97 16.97,7.81 l 57.05,154.22 88.51,-180.25 -104,-281.12 c -2.52,-6.84 0.99,-14.44 7.82,-16.97 6.84,-2.52 14.45,0.98 16.98,7.82 l 95.27,257.56 149.06,-303.56 -103.99,-281.13 c -2.53,-6.84 0.96,-14.43 7.8,-16.96 6.86,-2.53 14.44,0.98 16.97,7.81 l 95.29,257.56 119.4,-243.18 -65.76,-177.79 c -2.53,-6.84 0.96,-14.44 7.81,-16.96 6.85,-2.53 14.44,0.97 16.96,7.82 l 57.05,154.21 106.25,-216.36"
         style="fill:#ffffff;fill-opacity:1;fill-rule:evenodd;stroke:none"
         transform="matrix(0.13333333,0,0,-0.13333333,0,819.72)" />
      <path
         id="path34"
         d="M 2433.33,3496.51 H 5102.62 V 5543.16 H 2433.33 V 3496.51"
         style="fill:#5f2e15;fill-opacity:1;fill-rule:evenodd;stroke:none"
         transform="matrix(0.13333333,0,0,-0.13333333,0,819.72)" />
      <path
         id="path35"
         d="M 2519.82,3583 H 5016.14 V 5456.68 H 2519.82 V 3583"
         style="fill:#935c29;fill-opacity:1;fill-rule:evenodd;stroke:none"
         transform="matrix(0.13333333,0,0,-0.13333333,0,819.72)" />
      <path
         id="path36"
         d="m 2700.03,5275.68 c 110.88,0 221.77,0 332.65,0 -7.33,-144.59 -21.96,-259.25 -42.31,-350.51 -130.8,-10.27 -248.27,-2.84 -346.81,29.67 47.55,98.23 63.44,206.07 56.47,320.84"
         style="fill:#d0edba;fill-opacity:1;fill-rule:evenodd;stroke:none"
         transform="matrix(0.13333333,0,0,-0.13333333,0,819.72)" />
      <path
         id="path37"
         d="m 4722.07,5198.04 c -108.59,-22.51 -217.16,-45.03 -325.74,-67.54 36.55,-140.09 74.16,-249.39 112.61,-334.62 130.16,16.5 243.66,47.63 333.56,99.48 -66.51,86.52 -103.95,188.89 -120.43,302.68"
         style="fill:#fcd0ca;fill-opacity:1;fill-rule:evenodd;stroke:none"
         transform="matrix(0.13333333,0,0,-0.13333333,0,819.72)" />
      <path
         id="path38"
         d="m 3104.72,4077.67 c 110.89,0 221.77,0 332.65,0 -7.33,-144.59 -21.95,-259.25 -42.31,-350.52 -130.81,-10.26 -248.26,-2.83 -346.81,29.68 47.56,98.23 63.43,206.06 56.47,320.84"
         style="fill:#fbc589;fill-opacity:1;fill-rule:evenodd;stroke:none"
         transform="matrix(0.13333333,0,0,-0.13333333,0,819.72)" />
      <path
         id="path39"
         d="m 3764.68,4742.93 c 110.88,0 221.78,0 332.66,0 -7.34,-144.59 -21.97,-259.24 -42.32,-350.51 -130.8,-10.27 -248.27,-2.84 -346.8,29.67 47.54,98.23 63.44,206.06 56.46,320.84"
         style="fill:#f4f24b;fill-opacity:1;fill-rule:evenodd;stroke:none"
         transform="matrix(0.13333333,0,0,-0.13333333,0,819.72)" />
      <path
         id="path40"
         d="m 4781.86,4479.82 c -108.58,-22.51 -217.16,-45.02 -325.73,-67.53 36.54,-140.09 74.15,-249.39 112.61,-334.63 130.15,16.51 243.66,47.64 333.56,99.48 -66.51,86.53 -103.96,188.89 -120.44,302.68"
         style="fill:#c8edef;fill-opacity:1;fill-rule:evenodd;stroke:none"
         transform="matrix(0.13333333,0,0,-0.13333333,0,819.72)" />
      <path
         id="path41"
         d="m 2861.65,4589.2 c 108.56,-22.51 217.14,-45.03 325.71,-67.55 -36.53,-140.09 -74.14,-249.38 -112.6,-334.61 -130.16,16.5 -243.66,47.63 -333.55,99.47 66.5,86.53 103.95,188.89 120.44,302.69"
         style="fill:#c8edef;fill-opacity:1;fill-rule:evenodd;stroke:none"
         transform="matrix(0.13333333,0,0,-0.13333333,0,819.72)" />
      <path
         id="path42"
         d="m 3436.57,5372.88 c 110.89,0 221.76,0 332.65,0 -7.33,-144.59 -21.97,-259.25 -42.32,-350.52 -130.79,-10.25 -248.25,-2.83 -346.81,29.68 47.55,98.23 63.45,206.07 56.48,320.84"
         style="fill:#fbc589;fill-opacity:1;fill-rule:evenodd;stroke:none"
         transform="matrix(0.13333333,0,0,-0.13333333,0,819.72)" />
      <path
         id="path43"
         d="m 4222.72,4076.56 c -108.57,-22.52 -217.14,-45.03 -325.71,-67.55 36.52,-140.09 74.14,-249.39 112.58,-334.61 130.18,16.49 243.68,47.63 333.57,99.46 -66.49,86.54 -103.96,188.9 -120.44,302.7"
         style="fill:#fcd0ca;fill-opacity:1;fill-rule:evenodd;stroke:none"
         transform="matrix(0.13333333,0,0,-0.13333333,0,819.72)" />
      <path
         id="path44"
         d="m 2053.45,3306.8 31.43,-2264.39 -437.29,-89.918 -212.16,1472.168 357.92,829.36 260.1,52.78"
         style="fill:#100f0d;fill-opacity:1;fill-rule:evenodd;stroke:none"
         transform="matrix(0.13333333,0,0,-0.13333333,0,819.72)" />
      <path
         id="path45"
         d="m 1603.02,5578.09 -242.53,60.94 c -27.96,7.02 -57.53,-1.63 -77.28,-22.62 -19.6,-20.82 -26.55,-50.55 -18.21,-77.9 l -23.89,13.82 c -20.64,11.96 -46.48,10.21 -65.34,-4.4 -10.39,-8.05 -20.87,-16.02 -31.42,-23.88 -11.31,-8.44 -15.06,-23.72 -8.93,-36.44 6.13,-12.72 20.41,-19.31 34.07,-15.7 19.61,5.16 38.42,12.98 55.92,23.24 l 275.83,-50.26 101.78,133.2"
         style="fill:#ea7417;fill-opacity:1;fill-rule:evenodd;stroke:none"
         transform="matrix(0.13333333,0,0,-0.13333333,0,819.72)" />
      <path
         id="path46"
         d="m 2053.45,3306.8 -250.04,-339.28 -637.57,-2015.028 -393.684,49.348 242.104,1955.63 -11.33,223.67 398.36,444.84 683.59,-85.45 -31.43,-233.73"
         style="fill:#1b1919;fill-opacity:1;fill-rule:evenodd;stroke:none"
         transform="matrix(0.13333333,0,0,-0.13333333,0,819.72)" />
      <path
         id="path47"
         d="m 1301.1,4781.89 99.94,102.51 c 82.73,84.87 190.77,140.61 307.89,158.84 l 155.09,140.72 -350.39,215.41 c -2.36,72.36 26.25,165.55 82.35,209.66 l 310.4,-62.47 c 189.72,-38.17 322.03,-157.07 422.65,-322.38 17.18,-28.22 17.18,-63.68 0,-91.91 -180.3,-296.21 -396.28,-569.18 -643.08,-812.78 v 8.62 l -384.85,453.78"
         style="fill:#ffffff;fill-opacity:1;fill-rule:evenodd;stroke:none"
         transform="matrix(0.13333333,0,0,-0.13333333,0,819.72)" />
      <path
         id="path48"
         d="m 1701.48,4730.28 c 145.67,-324.52 292.23,-648.48 442.44,-971.1 89.78,-192.82 81.12,-326.7 -90.47,-452.38 -159.86,165.06 -688.23,-45.28 -1050.52,-125.66 -30.032,93.58 -14.067,259.31 43.25,373.86 l -126.125,933.01 c -14.547,107.62 29.285,255.02 131.965,290.43 l 299.51,103.28 c 138.73,47.84 289.86,-17.56 349.95,-151.44"
         style="fill:#5f2e15;fill-opacity:1;fill-rule:evenodd;stroke:none"
         transform="matrix(0.13333333,0,0,-0.13333333,0,819.72)" />
      <path
         id="path49"
         d="m 1116.67,3585.63 85.44,71.34 c 34.71,28.97 81.49,41.73 133.2,36.31 13.76,-1.44 27.55,-13.29 32.55,-27.98 5,-14.69 -0.28,-27.85 -12.44,-31.08 l 18.81,-110.15 c 5.48,-32.08 -9.91,-57.58 -37.66,-62.39 -17.94,-3.12 -38.09,0.1 -57.81,9.25 l -70.37,-43.38 c -19.08,-11.76 -46.44,-8.87 -70.99,7.5 -24.54,16.39 -42.22,43.53 -45.87,70.46 -4.46,32.95 4.2,62.64 25.14,80.12"
         style="fill:#f68b27;fill-opacity:1;fill-rule:evenodd;stroke:none"
         transform="matrix(0.13333333,0,0,-0.13333333,0,819.72)" />
      <path
         id="path50"
         d="m 1199.82,4220.53 -386.3,-366.91 350.39,-215.4 c 2.36,-72.36 -26.26,-165.56 -82.35,-209.66 l -310.404,62.46 C 581.43,3529.19 449.125,3648.1 348.5,3813.41 c -17.176,28.22 -17.176,63.68 0,91.9 180.305,296.22 396.285,569.19 643.082,812.79 0,-9.47 272.718,-236 208.238,-497.57"
         style="fill:#ffffff;fill-opacity:1;fill-rule:evenodd;stroke:none"
         transform="matrix(0.13333333,0,0,-0.13333333,0,819.72)" />
      <path
         id="path51"
         d="m 1134.02,4806.71 0.52,55.46 c 49.28,20.82 160.57,40.16 252.13,29.23 241.46,-213.21 402.93,-559.13 379.01,-934.33 -150.58,351.62 -424.81,792.73 -631.66,849.64"
         style="fill:#ffffff;fill-opacity:1;fill-rule:evenodd;stroke:none"
         transform="matrix(0.13333333,0,0,-0.13333333,0,819.72)" />
      <path
         id="path52"
         d="m 1690.36,4448.49 c 57.78,-150.74 86.38,-317.94 75.32,-491.42 -66.08,154.3 -155.97,325.82 -253.52,474.55 -8.77,77.13 -22.41,154.78 -44.83,237.94 l -42.73,22.62 -8.79,62.05 22.64,7.63 61.39,-51.31 -2.35,-28.43 c 76.17,-80.4 141.35,-155.17 192.87,-233.63"
         style="fill:#e61d2b;fill-opacity:1;fill-rule:evenodd;stroke:none"
         transform="matrix(0.13333333,0,0,-0.13333333,0,819.72)" />
      <path
         id="path53"
         d="m 1514.77,5191.16 h -278.24 l -58.08,-375.81 235.09,-45.87 43.16,45.87 58.07,375.81"
         style="fill:#f68b27;fill-opacity:1;fill-rule:evenodd;stroke:none"
         transform="matrix(0.13333333,0,0,-0.13333333,0,819.72)" />
      <path
         id="path54"
         d="m 1456.7,4815.35 50.7,328.14 c -205.26,40.21 -306.18,-305.61 -50.7,-328.14"
         style="fill:#ea7417;fill-opacity:1;fill-rule:evenodd;stroke:none"
         transform="matrix(0.13333333,0,0,-0.13333333,0,819.72)" />
      <path
         id="path55"
         d="m 1515.43,5425.2 c -136.08,0 -322.98,-127.49 -305.17,-284.75 17.81,-157.27 142.56,-284.75 278.64,-284.75 136.07,0 231.95,127.48 214.15,284.75 -17.81,157.26 -51.55,284.75 -187.62,284.75"
         style="fill:#f68b27;fill-opacity:1;fill-rule:evenodd;stroke:none"
         transform="matrix(0.13333333,0,0,-0.13333333,0,819.72)" />
      <path
         id="path56"
         d="m 1690.69,5225.61 14.49,160.59 c 6.34,70.32 -26.89,138.36 -86.26,176.59 -59.38,38.22 -135.06,40.31 -196.46,5.43 l -167.73,-20.8 c -48.11,-5.96 -88.29,-39.53 -102.72,-85.81 l -18.2,-19.5 c -22.66,-24.29 -34.81,-56.53 -33.81,-89.72 4.35,-143.5 37.42,-284.66 97.29,-415.14 25.25,66.15 54.91,135.34 74.34,203.2 l 84.52,21.77 -42.91,164.16 28.76,-15.6 c 101.02,-54.81 224.04,-49.4 319.88,14.04 l 28.81,-99.21"
         style="fill:#2e2d2d;fill-opacity:1;fill-rule:evenodd;stroke:none"
         transform="matrix(0.13333333,0,0,-0.13333333,0,819.72)" />
      <path
         id="path57"
         d="m 1227.34,5249.66 c -33.11,-6.07 -52.55,-59.9 -43.42,-120.22 9.12,-60.31 43.37,-104.28 76.49,-98.2 33.11,6.07 52.56,59.9 43.43,120.22 -9.14,60.31 -43.38,104.28 -76.5,98.2"
         style="fill:#f68b27;fill-opacity:1;fill-rule:evenodd;stroke:none"
         transform="matrix(0.13333333,0,0,-0.13333333,0,819.72)" />
      <path
         id="path58"
         d="m 1522.33,4990.66 c -18.29,0 -40.76,-18.19 -50.21,-40.64 -9.43,-22.46 -2.26,-40.66 16.02,-40.66 18.29,0 40.76,18.2 50.21,40.66 9.44,22.45 2.27,40.64 -16.02,40.64"
         style="fill:#ffffff;fill-opacity:1;fill-rule:evenodd;stroke:none"
         transform="matrix(0.13333333,0,0,-0.13333333,0,819.72)" />
      <path
         id="path59"
         d="m 1543.51,5226.07 -72.26,-9.55 c -8,-1.06 -15.83,-3.63 -23.17,-7.59 l -10.97,26.42 c 12.73,9.65 27.12,15.68 42.08,17.61 l 61.51,7.97 2.81,-34.86"
         style="fill:#2e2d2d;fill-opacity:1;fill-rule:evenodd;stroke:none"
         transform="matrix(0.13333333,0,0,-0.13333333,0,819.72)" />
      <path
         id="path60"
         d="m 1494.59,5131.61 c 15.1,0 27.41,16.37 27.41,36.44 0,20.07 -12.31,36.44 -27.41,36.44 -15.09,0 -27.41,-16.37 -27.41,-36.44 0,-20.07 12.32,-36.44 27.41,-36.44"
         style="fill:#2e2d2d;fill-opacity:1;fill-rule:evenodd;stroke:none"
         transform="matrix(0.13333333,0,0,-0.13333333,0,819.72)" />
      <path
         id="path61"
         d="m 1614.9,5226.07 59.47,-9.55 c 6.59,-1.06 13.02,-3.63 19.07,-7.59 l 9.03,26.42 c -10.48,9.65 -22.33,15.68 -34.64,17.61 l -50.62,7.97 -2.31,-34.86"
         style="fill:#2e2d2d;fill-opacity:1;fill-rule:evenodd;stroke:none"
         transform="matrix(0.13333333,0,0,-0.13333333,0,819.72)" />
      <path
         id="path62"
         d="m 1649.26,5131.61 c 13.38,0 24.3,16.37 24.3,36.44 0,20.07 -10.92,36.44 -24.3,36.44 -13.38,0 -24.29,-16.37 -24.29,-36.44 0,-20.07 10.91,-36.44 24.29,-36.44"
         style="fill:#2e2d2d;fill-opacity:1;fill-rule:evenodd;stroke:none"
         transform="matrix(0.13333333,0,0,-0.13333333,0,819.72)" />
      <path
         id="path63"
         d="m 1609.97,5053.23 c 23.7,0 37.03,10.36 37.03,0 0,-10.36 -28,-35.63 -51.7,-35.63 -23.68,0 -34.09,25.27 -34.09,35.63 0,10.36 25.07,0 48.76,0"
         style="fill:#ea7417;fill-opacity:1;fill-rule:evenodd;stroke:none"
         transform="matrix(0.13333333,0,0,-0.13333333,0,819.72)" />
      <path
         id="path64"
         d="m 1948.94,1197.56 60.31,-60.31 c 55.56,-55.55 123.66,-96.92 198.55,-120.62 20.02,-6.35 36.27,-21.13 44.49,-40.45 8.21,-19.34 7.57,-41.27 -1.77,-60.098 -15.99,-32.23 -42.62,-57.992 -75.39,-72.883 h -542.85 l 15.31,109.293 301.35,245.068"
         style="fill:#100f0d;fill-opacity:1;fill-rule:evenodd;stroke:none"
         transform="matrix(0.13333333,0,0,-0.13333333,0,819.72)" />
      <path
         id="path65"
         d="m 928.668,1197.56 -47.477,-60.31 c -43.726,-55.55 -97.312,-96.92 -156.265,-120.62 -15.754,-6.35 -28.543,-21.13 -35.016,-40.45 -6.457,-19.34 -5.957,-41.27 1.391,-60.098 12.59,-32.23 33.543,-57.992 59.34,-72.883 H 1177.9 l -12.06,109.293 -237.172,245.068"
         style="fill:#1b1919;fill-opacity:1;fill-rule:evenodd;stroke:none"
         transform="matrix(0.13333333,0,0,-0.13333333,0,819.72)" />
      <path
         id="path66"
         d="m 3603.31,2425.87 c 64.19,0 116.23,-52.03 116.23,-116.23 0,-64.18 -52.04,-116.2 -116.23,-116.2 -64.19,0 -116.22,52.02 -116.22,116.2 0,64.2 52.03,116.23 116.22,116.23 z M 2150.48,4319.49 c 27.5,0 49.79,-22.3 49.79,-49.8 0,-27.5 -22.29,-49.8 -49.79,-49.8 -27.51,0 -49.8,22.3 -49.8,49.8 0,27.5 22.29,49.8 49.8,49.8 z m -1377.675,790.5 c 40.941,0 74.133,-33.19 74.133,-74.13 0,-40.96 -33.192,-74.15 -74.133,-74.15 -40.946,0 -74.145,33.19 -74.145,74.15 0,40.94 33.199,74.13 74.145,74.13 z m 2384.385,767.89 c 64.19,0 116.23,-52.04 116.23,-116.22 0,-64.19 -52.04,-116.23 -116.23,-116.23 -64.19,0 -116.22,52.04 -116.22,116.23 0,64.18 52.03,116.22 116.22,116.22 z M 516.449,3036.59 c 40.946,0 74.141,-33.2 74.141,-74.13 0,-40.95 -33.195,-74.14 -74.141,-74.14 -40.941,0 -74.14,33.19 -74.14,74.14 0,40.93 33.199,74.13 74.14,74.13 v 0"
         style="fill:#fcd9b0;fill-opacity:1;fill-rule:evenodd;stroke:none"
         transform="matrix(0.13333333,0,0,-0.13333333,0,819.72)" />
    </g>
  </g>
</svg>
