<?xml version="1.0" encoding="UTF-8" standalone="no"?>
<!-- Created with Inkscape (http://www.inkscape.org/) -->

<svg
   version="1.1"
   id="svg1"
   width="662.65198"
   height="608.58398"
   viewBox="0 0 662.65198 608.58397"
   sodipodi:docname="time-management.svg"
   inkscape:version="1.3.2 (091e20ef0f, 2023-11-25, custom)"
   xmlns:inkscape="http://www.inkscape.org/namespaces/inkscape"
   xmlns:sodipodi="http://sodipodi.sourceforge.net/DTD/sodipodi-0.dtd"
   xmlns="http://www.w3.org/2000/svg"
   xmlns:svg="http://www.w3.org/2000/svg">
  <defs
     id="defs1" />
  <sodipodi:namedview
     id="namedview1"
     pagecolor="#505050"
     bordercolor="#ffffff"
     borderopacity="1"
     inkscape:showpageshadow="0"
     inkscape:pageopacity="0"
     inkscape:pagecheckerboard="1"
     inkscape:deskcolor="#d1d1d1"
     inkscape:zoom="0.49086755"
     inkscape:cx="331.04653"
     inkscape:cy="472.63259"
     inkscape:window-width="1920"
     inkscape:window-height="1002"
     inkscape:window-x="0"
     inkscape:window-y="0"
     inkscape:window-maximized="1"
     inkscape:current-layer="g1">
    <inkscape:page
       x="0"
       y="0"
       inkscape:label="1"
       id="page1"
       width="662.65198"
       height="608.58398"
       margin="0"
       bleed="0" />
  </sodipodi:namedview>
  <g
     id="g1"
     inkscape:groupmode="layer"
     inkscape:label="1"
     transform="translate(0,-968.21603)">
    <g
       id="group-R5">
      <path
         id="path19"
         d="m 1601.85,69.1016 c 0,5.0976 -0.74,9.5976 -2.28,13.3007 -1.48,3.6993 -3.57,6.5 -6.27,8.5977 -2.67,1.8984 -5.63,2.9023 -8.9,2.9023 -5.16,0 -9.52,-2.2031 -13.07,-6.4023 -3.56,-4.3008 -5.33,-10.5 -5.33,-18.8008 0,-7.7969 1.77,-13.7969 5.27,-18.0976 3.55,-4.3008 7.94,-6.5 13.13,-6.5 3.11,0 6.02,0.8984 8.68,2.7968 2.62,1.9024 4.75,4.8008 6.36,8.5 1.62,3.8008 2.41,8.3008 2.41,13.7032 z m -36.72,28.5 v -2.4024 c 3.51,4.5 7.16,7.9028 10.95,9.9998 3.81,2.102 8.14,3.203 12.95,3.203 5.76,0 11.06,-1.601 15.92,-4.703 4.84,-3.097 8.66,-7.5974 11.5,-13.5974 2.81,-6 4.19,-13 4.19,-21.1993 0,-6.0039 -0.78,-11.6015 -2.41,-16.5 -1.62,-5.1015 -3.86,-9.3007 -6.69,-12.7031 -2.83,-3.5 -6.21,-6.0976 -10.05,-7.8984 C 1597.6,29.9023 1593.43,29 1589.03,29 c -5.38,0 -9.88,1.1016 -13.51,3.4023 -3.67,2.1993 -7.12,5.4961 -10.39,9.7969 V 12.8984 c 0,-8.59762 -3.01,-12.8984 -9,-12.8984 -3.52,0 -5.87,1.10156 -6.98,3.30078 -1.16,2.19922 -1.72,5.5 -1.72,9.69922 v 84.4023 c 0,3.7967 0.75,6.4997 2.32,8.3987 1.58,1.801 3.7,2.699 6.38,2.699 2.66,0 4.82,-0.898 6.48,-2.801 1.67,-1.898 2.52,-4.597 2.52,-8.0974"
         style="fill:#612a2e;fill-opacity:1;fill-rule:nonzero;stroke:none"
         transform="matrix(0.13333333,0,0,-0.13333333,0,1576.8)" />
      <path
         id="path20"
         d="M 1684.38,40.1016 V 42.5 c -2.25,-2.8984 -4.6,-5.3984 -7.08,-7.3984 -2.47,-2 -5.17,-3.5 -8.08,-4.5 -2.96,-0.9024 -6.29,-1.4024 -10.05,-1.4024 -4.5,0 -8.56,1 -12.16,2.9024 -3.6,1.8984 -6.39,4.6992 -8.33,8.0976 -2.37,4.1016 -3.51,10.1016 -3.51,17.9024 v 38.6992 c 0,3.8982 0.85,6.8982 2.54,8.8012 1.7,1.898 3.93,2.898 6.71,2.898 2.85,0 5.13,-1 6.87,-3 1.75,-1.898 2.61,-4.801 2.61,-8.6992 V 65.5 c 0,-4.5 0.35,-8.3008 1.07,-11.3984 0.76,-3.1016 2.08,-5.5 3.99,-7.2032 1.87,-1.7968 4.45,-2.5976 7.69,-2.5976 3.2,0 6.16,0.8984 8.93,2.8984 2.81,1.9024 4.85,4.5 6.13,7.6016 1.05,2.8008 1.57,8.8984 1.57,18.1992 v 23.8008 c 0,3.8982 0.87,6.8012 2.62,8.6992 1.73,2 3.96,3 6.77,3 2.79,0 5.04,-1 6.73,-2.898 1.67,-1.903 2.51,-4.903 2.51,-8.8012 V 40.1992 c 0,-3.6992 -0.78,-6.5 -2.41,-8.3984 -1.6,-1.8985 -3.7,-2.8008 -6.27,-2.8008 -2.56,0 -4.66,1 -6.35,2.8984 -1.66,2.0039 -2.5,4.6016 -2.5,8.2032"
         style="fill:#612a2e;fill-opacity:1;fill-rule:nonzero;stroke:none"
         transform="matrix(0.13333333,0,0,-0.13333333,0,1576.8)" />
      <path
         id="path21"
         d="m 1738.74,68.3008 c 0,-7.8008 1.68,-13.6992 5.08,-17.9024 3.43,-4.1992 7.9,-6.2968 13.45,-6.2968 4.71,0 8.75,2.0976 12.18,6.3984 3.43,4.3008 5.13,10.4023 5.13,18.4023 0,5.1993 -0.71,9.5977 -2.13,13.2969 -1.44,3.8008 -3.46,6.6016 -6.04,8.6016 -2.65,2.0976 -5.65,3.1015 -9.14,3.1015 -3.6,0 -6.73,-1.0039 -9.55,-3.1015 -2.81,-2 -4.98,-4.8985 -6.6,-8.8008 -1.6,-3.8008 -2.38,-8.3984 -2.38,-13.6992 z m -0.9,58.1012 V 96.5 c 3.48,3.898 7.1,6.801 10.75,8.898 3.67,2.004 8.22,3.004 13.6,3.004 6.23,0 11.68,-1.601 16.37,-4.601 4.68,-3.102 8.34,-7.6018 10.92,-13.4026 2.6,-5.8984 3.88,-12.7968 3.88,-20.7968 0,-6 -0.71,-11.4024 -2.14,-16.4024 -1.45,-4.8984 -3.52,-9.0976 -6.28,-12.8008 -2.77,-3.5976 -6.1,-6.3984 -9.99,-8.5 C 1771.01,30 1766.7,29 1761.99,29 c -2.85,0 -5.59,0.3984 -8.15,1.1016 -2.53,0.6992 -4.71,1.5976 -6.45,2.7968 -1.81,1.1016 -3.33,2.4024 -4.6,3.6016 -1.24,1.3008 -2.89,3.1016 -4.95,5.6016 v -1.9024 c 0,-3.6992 -0.86,-6.5 -2.56,-8.3984 -1.67,-1.8985 -3.85,-2.8008 -6.43,-2.8008 -2.68,0 -4.77,0.9023 -6.37,2.8008 -1.57,2 -2.36,4.6992 -2.36,8.3984 v 85.4028 c 0,3.898 0.76,6.898 2.32,8.898 1.52,2.102 3.64,3.102 6.41,3.102 2.87,0 5.09,-1 6.63,-2.903 1.57,-2 2.36,-4.699 2.36,-8.297"
         style="fill:#612a2e;fill-opacity:1;fill-rule:nonzero;stroke:none"
         transform="matrix(0.13333333,0,0,-0.13333333,0,1576.8)" />
      <path
         id="path22"
         d="m 1806.58,40.9023 v 84.7967 c 0,3.903 0.84,6.903 2.48,8.903 1.7,2 3.94,3 6.78,3 2.84,0 5.12,-1 6.87,-3 1.7,-2 2.61,-5 2.61,-8.903 V 40.9023 c 0,-4.0039 -0.91,-7 -2.66,-9.0039 C 1820.91,30 1818.63,29 1815.84,29 c -2.74,0 -4.95,1 -6.67,3.1016 -1.72,2 -2.59,5 -2.59,8.8007"
         style="fill:#612a2e;fill-opacity:1;fill-rule:nonzero;stroke:none"
         transform="matrix(0.13333333,0,0,-0.13333333,0,1576.8)" />
      <path
         id="path23"
         d="m 1863.39,97.4023 v -56.5 C 1863.39,37 1862.48,34 1860.74,32 c -1.8,-2 -4.08,-3 -6.8,-3 -2.76,0 -4.99,1 -6.7,3.1016 -1.7,2 -2.59,5 -2.59,8.8007 v 55.8985 c 0,3.8982 0.89,6.8012 2.59,8.6992 1.71,2 3.94,3 6.7,3 2.72,0 5,-1 6.8,-3 1.74,-1.898 2.65,-4.598 2.65,-8.0977 z m -9.27,20.1997 c -2.6,0 -4.81,0.8 -6.71,2.597 -1.81,1.602 -2.76,4 -2.76,7.102 0,2.699 0.95,5 2.86,6.801 1.9,1.8 4.1,2.597 6.61,2.597 2.43,0 4.59,-0.797 6.46,-2.398 1.87,-1.602 2.81,-4 2.81,-7 0,-3.102 -0.92,-5.403 -2.76,-7.102 -1.83,-1.699 -3.97,-2.597 -6.51,-2.597"
         style="fill:#612a2e;fill-opacity:1;fill-rule:nonzero;stroke:none"
         transform="matrix(0.13333333,0,0,-0.13333333,0,1576.8)" />
      <path
         id="path24"
         d="m 1949.85,53.1992 c 0,-2.3984 -0.68,-5 -2.07,-7.8008 -1.42,-2.7968 -3.54,-5.3984 -6.41,-7.8984 -2.84,-2.5 -6.45,-4.5 -10.8,-6 -4.34,-1.5977 -9.25,-2.3008 -14.68,-2.3008 -11.58,0 -20.61,3.5 -27.11,10.5 -6.49,7.1016 -9.74,16.5 -9.74,28.3008 0,8 1.48,15.1992 4.44,21.3008 2.97,6.0976 7.31,10.8982 12.91,14.3012 5.61,3.398 12.36,5 20.16,5 4.87,0 9.32,-0.704 13.38,-2.2 4.04,-1.5 7.47,-3.402 10.28,-5.703 2.82,-2.2967 4.96,-4.7967 6.46,-7.4998 1.5,-2.5976 2.22,-5.0976 2.22,-7.3984 0,-2.3008 -0.85,-4.3008 -2.5,-5.8985 -1.68,-1.7031 -3.68,-2.5 -6.07,-2.5 -1.57,0 -2.84,0.4961 -3.9,1.2969 -1,0.8008 -2.16,2.1016 -3.46,4 -2.28,3.7031 -4.68,6.4024 -7.17,8.3008 -2.5,1.6992 -5.66,2.6992 -9.47,2.6992 -5.57,0 -10.03,-2.2969 -13.41,-6.8008 -3.39,-4.5976 -5.07,-10.6992 -5.07,-18.5976 0,-3.6016 0.44,-7 1.32,-10.1016 0.86,-3.0976 2.11,-5.6992 3.75,-7.8984 1.66,-2.1992 3.63,-3.8008 5.97,-4.9024 2.33,-1.1992 4.9,-1.6992 7.67,-1.6992 3.78,0 6.98,0.9024 9.66,2.7031 2.68,1.7969 5.05,4.5977 7.1,8.2969 1.14,2.1992 2.38,3.9024 3.71,5.2031 1.34,1.1993 2.97,1.7969 4.88,1.7969 2.29,0 4.18,-0.7969 5.71,-2.6992 1.48,-1.8008 2.24,-3.6992 2.24,-5.8008"
         style="fill:#612a2e;fill-opacity:1;fill-rule:nonzero;stroke:none"
         transform="matrix(0.13333333,0,0,-0.13333333,0,1576.8)" />
      <path
         id="path25"
         d="m 1980.72,68.9023 c 0,-5.3007 0.78,-9.8007 2.35,-13.6015 1.59,-3.6992 3.72,-6.5 6.47,-8.4024 2.76,-1.8984 5.76,-2.7968 8.98,-2.7968 3.3,0 6.3,0.8984 9.02,2.6992 2.74,1.8008 4.89,4.5 6.54,8.1992 1.62,3.6992 2.42,8.4023 2.42,13.9023 0,5.1993 -0.8,9.5977 -2.42,13.3985 -1.65,3.8008 -3.84,6.6015 -6.59,8.6992 -2.78,1.8984 -5.79,2.9023 -9.08,2.9023 -3.43,0 -6.49,-1.0039 -9.2,-3.1015 -2.68,-2 -4.8,-4.8985 -6.28,-8.6992 -1.47,-3.8008 -2.21,-8.1993 -2.21,-13.1993 z m 36.81,-28.7031 v 1.9024 c -2.52,-3 -4.99,-5.5 -7.47,-7.3008 -2.4,-1.9024 -5.08,-3.3985 -7.94,-4.3008 -2.84,-1 -5.97,-1.5 -9.35,-1.5 -4.47,0 -8.65,1 -12.46,2.8984 -3.81,2.1016 -7.11,4.9024 -9.9,8.6016 -2.78,3.6992 -4.9,8 -6.35,13 -1.46,4.9023 -2.17,10.3008 -2.17,16.1016 0,12.1992 2.87,21.6992 8.59,28.5976 5.73,6.8008 13.24,10.2028 22.56,10.2028 5.4,0 9.95,-1 13.65,-2.902 3.7,-2 7.33,-4.898 10.84,-9 v 28.898 c 0,4 0.76,7.004 2.31,9.102 1.52,2.102 3.69,3.102 6.54,3.102 2.83,0 5.01,-1 6.56,-2.801 1.52,-1.903 2.31,-4.699 2.31,-8.399 V 40.1992 c 0,-3.6992 -0.83,-6.5 -2.49,-8.3984 C 2031.11,29.9023 2029,29 2026.38,29 c -2.54,0 -4.68,1 -6.36,2.8984 -1.66,1.9024 -2.49,4.7032 -2.49,8.3008"
         style="fill:#612a2e;fill-opacity:1;fill-rule:nonzero;stroke:none"
         transform="matrix(0.13333333,0,0,-0.13333333,0,1576.8)" />
      <path
         id="path26"
         d="m 2105.38,68.6992 c 0,8 -1.71,14.1992 -5.05,18.6016 -3.37,4.3984 -7.9,6.6992 -13.56,6.6992 -3.68,0 -6.89,-1 -9.68,-3 -2.79,-2 -4.94,-4.8984 -6.45,-8.8008 -1.5,-3.7969 -2.27,-8.2969 -2.27,-13.5 0,-5.0976 0.77,-9.5976 2.24,-13.3984 1.47,-3.8008 3.61,-6.6992 6.4,-8.6992 2.75,-2.1016 6.03,-3.1016 9.76,-3.1016 5.66,0 10.19,2.3008 13.56,6.6992 3.34,4.5 5.05,10.7031 5.05,18.5 z m 18.79,0 c 0,-5.8008 -0.88,-11.0976 -2.6,-16.0976 -1.74,-4.9024 -4.26,-9.1016 -7.54,-12.6993 -3.31,-3.5 -7.24,-6.1015 -11.81,-8.1015 C 2097.65,29.9023 2092.46,29 2086.77,29 c -5.66,0 -10.77,0.9023 -15.29,2.8984 -4.53,1.9024 -8.47,4.6016 -11.79,8.2032 -3.3,3.5 -5.8,7.6992 -7.54,12.5976 -1.72,4.8008 -2.57,10.1992 -2.57,16 0,6 0.88,11.4024 2.6,16.3008 1.74,4.9023 4.22,9.1016 7.48,12.6016 3.25,3.5004 7.17,6.1994 11.82,8.0004 4.64,1.898 9.7,2.898 15.29,2.898 5.68,0 10.83,-1 15.45,-2.898 4.6,-1.903 8.57,-4.602 11.85,-8.1997 3.32,-3.5 5.81,-7.7031 7.5,-12.6015 1.75,-4.8008 2.6,-10.1992 2.6,-16.1016"
         style="fill:#612a2e;fill-opacity:1;fill-rule:nonzero;stroke:none"
         transform="matrix(0.13333333,0,0,-0.13333333,0,1576.8)" />
      <path
         id="path27"
         d="m 2203.29,84.9023 c -1.41,-3.3007 -2.07,-9.2031 -2.07,-17.6015 V 41.4023 c 0,-4.1015 -0.88,-7.3007 -2.68,-9.3007 C 2196.76,30 2194.38,29 2191.45,29 c -2.81,0 -5.1,1 -6.85,3.1016 -1.77,2 -2.63,5.1992 -2.63,9.3007 V 72.5 c 0,4.9023 -0.18,8.6992 -0.51,11.5 -0.32,2.6992 -1.18,4.9023 -2.6,6.6992 -1.39,1.7031 -3.65,2.6016 -6.7,2.6016 -6.13,0 -10.16,-2.1992 -12.12,-6.6016 -1.96,-4.3984 -2.88,-10.6992 -2.88,-18.8984 V 41.4023 c 0,-4.1015 -0.91,-7.2031 -2.64,-9.2031 C 2152.73,30 2150.42,29 2147.56,29 c -2.86,0 -5.21,1 -7,3.1992 -1.81,2 -2.67,5.1016 -2.67,9.1016 v 56 c 0,3.6992 0.77,6.5002 2.37,8.3982 1.65,1.903 3.79,2.801 6.46,2.801 2.56,0 4.71,-0.801 6.4,-2.598 1.71,-1.8 2.57,-4.3 2.57,-7.402 v -1.8984 c 3.24,4.0974 6.73,7.0004 10.42,8.8984 3.7,2 7.86,2.902 12.36,2.902 4.69,0 8.73,-1 12.11,-2.902 3.4,-2 6.18,-4.898 8.36,-8.8984 3.16,4.0004 6.55,7.0004 10.18,8.8984 3.61,2 7.61,2.902 11.98,2.902 5.16,0 9.57,-1 13.25,-3.203 3.71,-2.097 6.47,-5 8.31,-8.9998 1.61,-3.5 2.4,-9.0976 2.4,-16.6992 V 41.4023 c 0,-4.1015 -0.89,-7.3007 -2.65,-9.3007 C 2240.59,30 2238.26,29 2235.32,29 c -2.84,0 -5.15,1 -6.95,3.1992 -1.83,2 -2.74,5.1016 -2.74,9.2031 v 32.7969 c 0,4.3008 -0.16,7.6016 -0.49,10.1016 -0.35,2.5976 -1.28,4.6992 -2.81,6.3984 -1.5,1.7031 -3.8,2.6016 -6.84,2.6016 -2.46,0 -4.82,-0.8008 -7,-2.3008 -2.26,-1.5 -3.94,-3.5977 -5.2,-6.0977 v 0"
         style="fill:#612a2e;fill-opacity:1;fill-rule:nonzero;stroke:none"
         transform="matrix(0.13333333,0,0,-0.13333333,0,1576.8)" />
      <path
         id="path28"
         d="m 2309.38,68.3008 c -2.76,-1 -6.76,-2.1016 -11.99,-3.3008 -5.25,-1.1992 -8.87,-2 -10.89,-2.5977 -2.01,-0.6015 -3.94,-1.6015 -5.74,-3.2031 -1.85,-1.5976 -2.78,-3.8984 -2.78,-6.6992 0,-3 1.09,-5.5 3.22,-7.5977 2.17,-2.1015 4.99,-3.1015 8.46,-3.1015 3.71,0 7.15,0.8008 10.26,2.5 3.14,1.6992 5.46,3.8984 6.9,6.6015 1.69,3 2.56,7.7969 2.56,14.6993 z M 2310.6,40 c -4.55,-3.6992 -8.92,-6.3984 -13.15,-8.1992 C 2293.23,29.9023 2288.46,29 2283.23,29 c -4.84,0 -9.02,1 -12.68,2.8984 -3.67,2.0039 -6.44,4.7032 -8.42,8.2032 -1.94,3.3984 -2.95,7 -2.95,11 0,5.3007 1.66,9.8984 4.9,13.5976 3.22,3.8008 7.68,6.3008 13.35,7.6016 1.19,0.3008 4.16,0.8984 8.84,1.8984 4.77,1.1016 8.76,2 12.17,2.8008 3.33,0.8008 7,1.9023 10.94,3 -0.24,5.1992 -1.24,9 -2.98,11.5 -1.79,2.3008 -5.46,3.5 -10.97,3.5 -4.78,0 -8.33,-0.6992 -10.77,-2 -2.38,-1.3984 -4.45,-3.5 -6.15,-6.3008 -1.74,-2.7969 -2.92,-4.5976 -3.63,-5.5 -0.73,-0.8984 -2.26,-1.2969 -4.55,-1.2969 -2.14,0 -3.95,0.6993 -5.46,2.0977 -1.55,1.4023 -2.31,3.1992 -2.31,5.4023 0,3.5 1.17,6.7969 3.48,10 2.34,3.2967 5.99,5.9997 10.92,8.0977 4.93,2.102 11.11,3.102 18.47,3.102 8.22,0 14.7,-1 19.44,-3 4.71,-2 8,-5.204 9.96,-9.602 1.96,-4.3984 2.92,-10.3008 2.92,-17.5 0,-4.5977 0,-8.5 -0.03,-11.6992 -0.03,-3.1992 -0.05,-6.6992 -0.1,-10.6992 0,-3.6016 0.58,-7.5 1.76,-11.4024 1.14,-4 1.72,-6.5976 1.72,-7.6992 0,-2 -0.91,-3.8984 -2.71,-5.5 -1.77,-1.6992 -3.84,-2.5 -6.11,-2.5 -1.95,0 -3.81,0.9023 -5.72,2.8008 -1.87,1.8984 -3.85,4.6992 -5.96,8.1992"
         style="fill:#612a2e;fill-opacity:1;fill-rule:nonzero;stroke:none"
         transform="matrix(0.13333333,0,0,-0.13333333,0,1576.8)" />
      <path
         id="path29"
         d="m 2365.51,97.4023 v -56.5 C 2365.51,37 2364.61,34 2362.86,32 c -1.79,-2 -4.03,-3 -6.79,-3 -2.74,0 -5,1 -6.69,3.1016 -1.73,2 -2.59,5 -2.59,8.8007 v 55.8985 c 0,3.8982 0.86,6.8012 2.59,8.6992 1.69,2 3.95,3 6.69,3 2.76,0 5,-1 6.79,-3 1.75,-1.898 2.65,-4.598 2.65,-8.0977 z m -9.26,20.1997 c -2.57,0 -4.79,0.8 -6.65,2.597 -1.86,1.602 -2.81,4 -2.81,7.102 0,2.699 0.97,5 2.87,6.801 1.88,1.8 4.11,2.597 6.59,2.597 2.44,0 4.61,-0.797 6.49,-2.398 1.85,-1.602 2.77,-4 2.77,-7 0,-3.102 -0.9,-5.403 -2.74,-7.102 -1.82,-1.699 -3.99,-2.597 -6.52,-2.597"
         style="fill:#612a2e;fill-opacity:1;fill-rule:nonzero;stroke:none"
         transform="matrix(0.13333333,0,0,-0.13333333,0,1576.8)" />
      <path
         id="path30"
         d="m 2401.92,97.6992 v -2.3984 c 3.28,4.5 6.87,7.8982 10.76,10.0002 3.92,2.101 8.41,3.199 13.51,3.199 4.91,0 9.35,-1.098 13.27,-3.398 3.85,-2.204 6.78,-5.4028 8.68,-9.5004 1.25,-2.4024 2.02,-5 2.42,-7.7032 0.33,-2.7968 0.55,-6.2968 0.55,-10.5976 V 40.9023 C 2451.11,37 2450.22,34 2448.52,32 c -1.73,-2 -3.96,-3 -6.69,-3 -2.79,0 -5.06,1 -6.73,3.1016 -1.76,2 -2.66,5 -2.66,8.8007 V 73.5 c 0,6.4023 -0.84,11.4023 -2.55,14.8008 -1.75,3.3984 -5.17,5.1015 -10.3,5.1015 -3.33,0 -6.37,-1.1015 -9.11,-3.1015 -2.73,-2.1016 -4.75,-5 -6.03,-8.6016 -0.91,-2.8984 -1.39,-8.2969 -1.39,-16.3008 V 40.9023 c 0,-4.0039 -0.87,-7 -2.64,-9.0039 C 2398.66,30 2396.38,29 2393.6,29 c -2.68,0 -4.91,1 -6.65,3.1016 -1.76,2 -2.61,5 -2.61,8.8007 v 56.5 c 0,3.6997 0.77,6.4997 2.34,8.2967 1.52,1.903 3.7,2.801 6.39,2.801 1.61,0 3.12,-0.398 4.43,-1.199 1.37,-0.801 2.39,-2.102 3.2,-3.699 0.77,-1.602 1.22,-3.602 1.22,-5.9028"
         style="fill:#612a2e;fill-opacity:1;fill-rule:nonzero;stroke:none"
         transform="matrix(0.13333333,0,0,-0.13333333,0,1576.8)" />
      <path
         id="path31"
         d="m 2481.16,96.3008 15.13,-44.4024 16.34,46.4024 c 1.31,3.6992 2.56,6.3012 3.81,7.8982 1.25,1.5 3.1,2.301 5.6,2.301 2.38,0 4.39,-0.801 6.11,-2.5 1.64,-1.699 2.47,-3.598 2.47,-5.801 0,-0.8982 -0.17,-1.8982 -0.46,-2.9998 C 2529.89,96 2529.56,95 2529.15,93.9023 2528.75,93 2528.34,91.8008 2527.81,90.5 L 2509.83,44 c -0.49,-1.3984 -1.16,-3.0977 -1.95,-5.0977 -0.8,-2.1015 -1.72,-3.8007 -2.68,-5.3007 -1.01,-1.4024 -2.21,-2.5 -3.63,-3.4024 C 2500.1,29.3984 2498.35,29 2496.29,29 c -2.64,0 -4.75,0.6016 -6.35,1.9023 -1.58,1.2969 -2.75,2.5977 -3.49,4.1993 C 2485.71,36.5 2484.4,39.5 2482.64,44 l -17.85,46 c -0.41,1.1016 -0.86,2.3008 -1.3,3.4023 -0.41,1.1993 -0.75,2.2969 -1.06,3.4961 -0.31,1.3008 -0.46,2.3008 -0.46,3.1016 0,1.402 0.38,2.699 1.18,4 0.78,1.301 1.85,2.402 3.22,3.199 1.39,0.903 2.85,1.301 4.47,1.301 3.09,0 5.24,-0.898 6.41,-2.801 1.17,-1.898 2.49,-5 3.91,-9.3982"
         style="fill:#612a2e;fill-opacity:1;fill-rule:nonzero;stroke:none"
         transform="matrix(0.13333333,0,0,-0.13333333,0,1576.8)" />
      <path
         id="path32"
         d="m 2557.78,75.1016 h 33.96 c -0.43,6.6992 -2.16,11.6992 -5.17,15 -3.01,3.3007 -6.96,4.8984 -11.86,4.8984 -4.63,0 -8.47,-1.6992 -11.46,-5 -2.99,-3.3984 -4.8,-8.3008 -5.47,-14.8984 z M 2594.43,64 h -36.65 c 0.02,-4.5 0.9,-8.3984 2.55,-11.8008 1.69,-3.3984 3.89,-5.8984 6.69,-7.6992 2.75,-1.6992 5.82,-2.5 9.16,-2.5 2.22,0 4.29,0.1992 6.13,0.8008 1.84,0.6015 3.65,1.3984 5.41,2.5976 1.7,1.1016 3.29,2.3008 4.78,3.7032 1.45,1.3984 3.4,3.0976 5.69,5.5 0.98,0.8984 2.36,1.3007 4.11,1.3007 1.96,0 3.5,-0.6015 4.7,-1.7031 1.18,-1.0976 1.74,-2.5976 1.74,-4.5976 0,-1.8008 -0.65,-3.9024 -2,-6.1993 -1.29,-2.4023 -3.26,-4.7031 -5.99,-6.9023 -2.68,-2.1016 -6.04,-3.8984 -10.09,-5.3984 C 2586.65,29.6992 2582,29 2576.7,29 c -12.02,0 -21.38,3.6016 -28.04,10.6992 -6.68,7.1992 -10,16.9024 -10,29.2031 0,5.7969 0.86,11.0977 2.47,16.0977 1.64,4.9023 4.03,9.1016 7.2,12.6992 3.16,3.4998 7.02,6.2028 11.66,8.1018 4.64,1.898 9.74,2.801 15.39,2.801 7.26,0 13.56,-1.602 18.79,-4.801 5.27,-3.199 9.17,-7.3987 11.77,-12.5002 2.62,-5.1016 3.92,-10.3008 3.92,-15.6016 0,-4.8984 -1.3,-8.0976 -4.03,-9.5 -2.72,-1.5 -6.51,-2.1992 -11.4,-2.1992"
         style="fill:#612a2e;fill-opacity:1;fill-rule:nonzero;stroke:none"
         transform="matrix(0.13333333,0,0,-0.13333333,0,1576.8)" />
      <path
         id="path33"
         d="m 2692.86,53.1992 c 0,-2.3984 -0.71,-5 -2.13,-7.8008 -1.41,-2.7968 -3.48,-5.3984 -6.37,-7.8984 -2.85,-2.5 -6.48,-4.5 -10.84,-6 -4.32,-1.5977 -9.24,-2.3008 -14.64,-2.3008 -11.61,0 -20.63,3.5 -27.12,10.5 -6.48,7.1016 -9.75,16.5 -9.75,28.3008 0,8 1.47,15.1992 4.48,21.3008 2.97,6.0976 7.24,10.8982 12.89,14.3012 5.59,3.398 12.34,5 20.18,5 4.84,0 9.27,-0.704 13.36,-2.2 4.04,-1.5 7.44,-3.402 10.29,-5.703 2.81,-2.2967 4.94,-4.7967 6.44,-7.4998 1.49,-2.5976 2.23,-5.0976 2.23,-7.3984 0,-2.3008 -0.83,-4.3008 -2.56,-5.8985 -1.64,-1.7031 -3.65,-2.5 -6.03,-2.5 -1.57,0 -2.86,0.4961 -3.87,1.2969 -1.04,0.8008 -2.19,2.1016 -3.48,4 -2.28,3.7031 -4.67,6.4024 -7.16,8.3008 -2.51,1.6992 -5.66,2.6992 -9.52,2.6992 -5.51,0 -9.97,-2.2969 -13.36,-6.8008 -3.41,-4.5976 -5.09,-10.6992 -5.09,-18.5976 0,-3.6016 0.46,-7 1.3,-10.1016 0.86,-3.0976 2.13,-5.6992 3.79,-7.8984 1.64,-2.1992 3.65,-3.8008 5.97,-4.9024 2.3,-1.1992 4.87,-1.6992 7.69,-1.6992 3.74,0 6.97,0.9024 9.64,2.7031 2.66,1.7969 5.06,4.5977 7.11,8.2969 1.16,2.1992 2.37,3.9024 3.71,5.2031 1.31,1.1993 2.91,1.7969 4.87,1.7969 2.26,0 4.18,-0.7969 5.64,-2.6992 1.55,-1.8008 2.33,-3.6992 2.33,-5.8008"
         style="fill:#612a2e;fill-opacity:1;fill-rule:nonzero;stroke:none"
         transform="matrix(0.13333333,0,0,-0.13333333,0,1576.8)" />
      <path
         id="path34"
         d="m 2710.25,106.801 h 2.06 v 11.801 c 0,3.097 0.08,5.597 0.25,7.398 0.15,1.801 0.57,3.301 1.33,4.602 0.72,1.296 1.76,2.398 3.17,3.3 1.35,0.797 2.89,1.2 4.59,1.2 2.36,0 4.51,-0.903 6.42,-2.801 1.25,-1.199 2.09,-2.699 2.44,-4.5 0.35,-1.801 0.49,-4.399 0.49,-7.602 v -13.398 h 6.9 c 2.65,0 4.68,-0.602 6.07,-1.899 1.43,-1.402 2.11,-3.004 2.11,-5.1012 0,-2.6016 -1,-4.5 -3.01,-5.5 -1.99,-1 -4.84,-1.6016 -8.53,-1.6016 H 2731 v -36 c 0,-3 0.13,-5.3984 0.31,-7.0976 0.25,-1.6016 0.82,-2.9024 1.7,-3.9024 0.86,-1.0976 2.31,-1.5976 4.35,-1.5976 1.08,0 2.57,0.1992 4.46,0.5976 1.84,0.4024 3.32,0.6016 4.38,0.6016 1.5,0 2.91,-0.6016 4.1,-1.8008 1.19,-1.3984 1.79,-2.8984 1.79,-4.8008 0,-3.0976 -1.6,-5.5 -4.92,-7.1992 -3.32,-1.6992 -8.04,-2.5 -14.2,-2.5 -5.86,0 -10.31,1 -13.34,3.1016 -2.99,2 -5,4.8984 -5.89,8.5 -0.98,3.6992 -1.43,8.5 -1.43,14.5976 v 37.5 h -2.49 c -2.65,0 -4.72,0.7031 -6.14,2.1016 -1.44,1.3008 -2.13,3 -2.13,5 0,2.0972 0.72,3.6992 2.2,5.1012 1.51,1.297 3.64,1.899 6.5,1.899"
         style="fill:#612a2e;fill-opacity:1;fill-rule:nonzero;stroke:none"
         transform="matrix(0.13333333,0,0,-0.13333333,0,1576.8)" />
      <path
         id="path35"
         d="m 2810.26,68.6992 c 0,8 -1.7,14.1992 -5.04,18.6016 -3.4,4.3984 -7.87,6.6992 -13.57,6.6992 -3.68,0 -6.88,-1 -9.65,-3 -2.82,-2 -4.96,-4.8984 -6.47,-8.8008 -1.5,-3.7969 -2.26,-8.2969 -2.26,-13.5 0,-5.0976 0.76,-9.5976 2.24,-13.3984 1.49,-3.8008 3.6,-6.6992 6.37,-8.6992 2.75,-2.1016 6.02,-3.1016 9.77,-3.1016 5.7,0 10.17,2.3008 13.57,6.6992 3.34,4.5 5.04,10.7031 5.04,18.5 z m 18.81,0 c 0,-5.8008 -0.86,-11.0976 -2.64,-16.0976 -1.72,-4.9024 -4.26,-9.1016 -7.52,-12.6993 -3.3,-3.5 -7.24,-6.1015 -11.8,-8.1015 C 2802.5,29.9023 2797.39,29 2791.65,29 c -5.69,0 -10.81,0.9023 -15.3,2.8984 -4.53,1.9024 -8.47,4.6016 -11.77,8.2032 -3.31,3.5 -5.83,7.6992 -7.52,12.5976 -1.7,4.8008 -2.54,10.1992 -2.54,16 0,6 0.84,11.4024 2.54,16.3008 1.77,4.9023 4.23,9.1016 7.5,12.6016 3.26,3.5004 7.18,6.1994 11.79,8.0004 4.67,1.898 9.75,2.898 15.3,2.898 5.7,0 10.84,-1 15.46,-2.898 4.61,-1.903 8.56,-4.602 11.86,-8.1997 3.24,-3.5 5.82,-7.7031 7.52,-12.6015 1.72,-4.8008 2.58,-10.1992 2.58,-16.1016"
         style="fill:#612a2e;fill-opacity:1;fill-rule:nonzero;stroke:none"
         transform="matrix(0.13333333,0,0,-0.13333333,0,1576.8)" />
      <path
         id="path36"
         d="M 2862.43,57.1992 V 40.9023 c 0,-4.0039 -0.9,-7 -2.68,-9.0039 C 2857.95,30 2855.71,29 2852.93,29 c -2.65,0 -4.92,1 -6.64,3 -1.71,2 -2.59,5 -2.59,8.9023 v 54.3985 c 0,8.8012 3.02,13.1992 9.12,13.1992 3.08,0 5.33,-1 6.74,-3.102 1.34,-1.996 2.07,-5.097 2.24,-9.0972 2.23,4.0002 4.55,7.1012 6.94,9.0972 2.34,2.102 5.46,3.102 9.37,3.102 3.98,0 7.77,-1 11.5,-3.102 3.7,-1.996 5.57,-4.796 5.57,-8.1988 0,-2.2969 -0.82,-4.3008 -2.4,-5.8984 -1.54,-1.5 -3.26,-2.3008 -5.12,-2.3008 -0.66,0 -2.34,0.3984 -4.96,1.3008 -2.66,0.8984 -4.96,1.3984 -6.99,1.3984 -2.72,0 -4.96,-0.6992 -6.68,-2.3008 -1.76,-1.5 -3.11,-3.6992 -4.06,-6.6992 -0.96,-3 -1.66,-6.5 -2,-10.5976 -0.35,-4 -0.54,-9 -0.54,-14.9024"
         style="fill:#612a2e;fill-opacity:1;fill-rule:nonzero;stroke:none"
         transform="matrix(0.13333333,0,0,-0.13333333,0,1576.8)" />
      <path
         id="path37"
         d="m 2962.21,54.6016 c 0,-5.5 -1.25,-10.1016 -3.81,-13.9024 -2.52,-3.8984 -6.23,-6.7969 -11.15,-8.8008 C 2942.33,30 2936.35,29 2929.28,29 c -6.68,0 -12.46,1.1016 -17.28,3.1992 -4.81,2.1992 -8.36,4.9024 -10.63,8.1016 -2.32,3.1992 -3.49,6.3984 -3.49,9.6015 0,2.1993 0.76,4 2.24,5.5977 1.47,1.5 3.32,2.1992 5.53,2.1992 1.99,0 3.52,-0.5 4.57,-1.3984 1.05,-1.1016 2.03,-2.5 3.03,-4.3008 1.91,-3.5 4.2,-6.0977 6.91,-7.8008 2.64,-1.6992 6.29,-2.5976 10.94,-2.5976 3.75,0 6.82,0.8984 9.24,2.5976 2.36,1.8008 3.61,3.8008 3.61,6 0,3.5 -1.27,6 -3.75,7.5 -2.52,1.6992 -6.6,3.2031 -12.32,4.6016 -6.45,1.6015 -11.72,3.3984 -15.77,5.1992 -4.04,1.8984 -7.32,4.3008 -9.72,7.3008 -2.42,3 -3.65,6.6992 -3.65,11.1015 0,3.8985 1.13,7.5977 3.37,11.0977 2.23,3.5 5.57,6.301 9.95,8.398 4.35,2.102 9.61,3.102 15.82,3.102 4.82,0 9.18,-0.5 13.06,-1.602 3.87,-0.996 7.15,-2.5 9.69,-4.199 2.58,-1.797 4.57,-3.699 5.9,-5.8982 1.37,-2.1016 2.03,-4.1992 2.03,-6.3008 0,-2.1992 -0.7,-4 -2.17,-5.5 -1.44,-1.3984 -3.51,-2.1016 -6.13,-2.1016 -1.95,0 -3.58,0.5039 -4.94,1.7032 -1.33,1.0976 -2.89,2.8007 -4.61,5.0976 -1.43,1.9024 -3.09,3.5 -5.02,4.6016 -1.94,1.0976 -4.53,1.6992 -7.81,1.6992 -3.4,0 -6.23,-0.6992 -8.44,-2.1992 -2.25,-1.5 -3.38,-3.4024 -3.38,-5.6992 0,-2 0.84,-3.7032 2.46,-5 1.66,-1.3008 3.87,-2.4024 6.68,-3.3008 2.79,-0.8008 6.62,-1.9024 11.52,-3.1016 5.84,-1.5 10.57,-3.2969 14.24,-5.2969 3.69,-2.1015 6.49,-4.5039 8.38,-7.3007 1.91,-2.8008 2.87,-6 2.87,-9.5"
         style="fill:#612a2e;fill-opacity:1;fill-rule:nonzero;stroke:none"
         transform="matrix(0.13333333,0,0,-0.13333333,0,1576.8)" />
      <path
         id="path38"
         d="m 2983.48,29 c -2.83,0 -5.29,0.9023 -7.32,2.8984 -2.09,1.9024 -3.11,4.6016 -3.11,8.0039 0,2.8985 0.96,5.3985 2.91,7.5 1.97,2.0977 4.42,3.0977 7.31,3.0977 2.85,0 5.33,-1 7.32,-3.0977 2.05,-2.0039 3.07,-4.6015 3.07,-7.5 0,-3.4023 -1.02,-6.1015 -3.07,-8.0039 C 2988.6,30 2986.22,29 2983.48,29"
         style="fill:#612a2e;fill-opacity:1;fill-rule:nonzero;stroke:none"
         transform="matrix(0.13333333,0,0,-0.13333333,0,1576.8)" />
      <path
         id="path39"
         d="m 3066.31,68.6992 c 0,8 -1.68,14.1992 -5.06,18.6016 -3.35,4.3984 -7.85,6.6992 -13.53,6.6992 -3.65,0 -6.84,-1 -9.65,-3 -2.81,-2 -4.94,-4.8984 -6.44,-8.8008 -1.51,-3.7969 -2.27,-8.2969 -2.27,-13.5 0,-5.0976 0.72,-9.5976 2.21,-13.3984 1.54,-3.8008 3.63,-6.6992 6.4,-8.6992 2.76,-2.1016 6.02,-3.1016 9.75,-3.1016 5.68,0 10.18,2.3008 13.53,6.6992 3.38,4.5 5.06,10.7031 5.06,18.5 z m 18.83,0 c 0,-5.8008 -0.86,-11.0976 -2.62,-16.0976 -1.75,-4.9024 -4.23,-9.1016 -7.55,-12.6993 -3.32,-3.5 -7.21,-6.1015 -11.8,-8.1015 C 3058.62,29.9023 3053.46,29 3047.72,29 c -5.64,0 -10.76,0.9023 -15.27,2.8984 -4.53,1.9024 -8.44,4.6016 -11.76,8.2032 -3.36,3.5 -5.86,7.6992 -7.6,12.5976 -1.68,4.8008 -2.54,10.1992 -2.54,16 0,6 0.86,11.4024 2.62,16.3008 1.76,4.9023 4.22,9.1016 7.44,12.6016 3.24,3.5004 7.19,6.1994 11.84,8.0004 4.61,1.898 9.66,2.898 15.27,2.898 5.68,0 10.82,-1 15.45,-2.898 4.65,-1.903 8.59,-4.602 11.89,-8.1997 3.27,-3.5 5.77,-7.7031 7.5,-12.6015 1.72,-4.8008 2.58,-10.1992 2.58,-16.1016"
         style="fill:#612a2e;fill-opacity:1;fill-rule:nonzero;stroke:none"
         transform="matrix(0.13333333,0,0,-0.13333333,0,1576.8)" />
      <path
         id="path40"
         d="M 3118.5,57.1992 V 40.9023 c 0,-4.0039 -0.9,-7 -2.67,-9.0039 C 3114.07,30 3111.78,29 3109.05,29 c -2.74,0 -4.92,1 -6.68,3 -1.76,2 -2.6,5 -2.6,8.9023 v 54.3985 c 0,8.8012 3.07,13.1992 9.12,13.1992 3.13,0 5.35,-1 6.7,-3.102 1.37,-1.996 2.17,-5.097 2.33,-9.0972 2.2,4.0002 4.49,7.1012 6.85,9.0972 2.36,2.102 5.51,3.102 9.41,3.102 4.01,0 7.82,-1 11.49,-3.102 3.71,-1.996 5.57,-4.796 5.57,-8.1988 0,-2.2969 -0.81,-4.3008 -2.35,-5.8984 -1.62,-1.5 -3.28,-2.3008 -5.15,-2.3008 -0.67,0 -2.31,0.3984 -4.95,1.3008 -2.63,0.8984 -4.96,1.3984 -6.99,1.3984 -2.71,0 -4.96,-0.6992 -6.74,-2.3008 -1.72,-1.5 -3.04,-3.6992 -4.04,-6.6992 -0.92,-3 -1.6,-6.5 -1.95,-10.5976 -0.37,-4 -0.57,-9 -0.57,-14.9024"
         style="fill:#612a2e;fill-opacity:1;fill-rule:nonzero;stroke:none"
         transform="matrix(0.13333333,0,0,-0.13333333,0,1576.8)" />
      <path
         id="path41"
         d="m 3172.58,69.3984 c 0,-7.8984 1.68,-13.8984 5,-17.9961 3.28,-4 7.62,-6.1015 12.84,-6.1015 3.08,0 6.07,0.8984 8.82,2.6992 2.78,1.6992 5.04,4.3008 6.76,7.8008 1.78,3.5976 2.62,7.8008 2.62,12.8008 0,8 -1.7,14.1992 -5.06,18.5976 -3.34,4.5 -7.77,6.7031 -13.26,6.7031 -5.33,0 -9.63,-2.2031 -12.85,-6.4023 -3.25,-4.3008 -4.87,-10.3008 -4.87,-18.1016 z m 54.3,24.8008 V 37.4023 c 0,-6.5 -0.7,-12.1015 -1.99,-16.8007 -1.33,-4.6993 -3.46,-8.5 -6.39,-11.6016 -2.93,-3 -6.78,-5.30078 -11.48,-6.80078 C 3202.29,0.800781 3196.37,0 3189.34,0 c -6.46,0 -12.25,0.902344 -17.28,2.80078 -5.1,1.89844 -9.03,4.30078 -11.76,7.30082 -2.74,3 -4.12,6.0976 -4.12,9.1992 0,2.3984 0.76,4.3984 2.36,5.8984 1.52,1.5 3.42,2.3008 5.61,2.3008 2.75,0 5.11,-1.3008 7.2,-3.8008 1.02,-1.3984 2.07,-2.6992 3.13,-4 1.07,-1.2969 2.26,-2.3984 3.55,-3.2969 1.33,-1.0039 2.91,-1.7031 4.73,-2.1015 1.8,-0.5 3.92,-0.6992 6.33,-0.6992 4.8,0 8.59,0.6992 11.27,2.0976 2.67,1.4024 4.55,3.4024 5.64,5.9024 1.04,2.5 1.72,5.1992 1.82,8.0976 0.23,3 0.35,7.6016 0.49,14 -2.88,-4.1992 -6.27,-7.3984 -10,-9.5976 -3.77,-2.2032 -8.29,-3.3008 -13.46,-3.3008 -6.33,0 -11.8,1.6992 -16.45,5 -4.72,3.3984 -8.34,8 -10.84,14.1015 -2.48,6 -3.77,12.8985 -3.77,20.7969 0,5.9024 0.75,11.1992 2.33,15.9024 1.48,4.6992 3.65,8.6992 6.54,12 2.81,3.1994 6.09,5.6994 9.79,7.3004 3.73,1.7 7.75,2.5 12.24,2.5 5.28,0 9.87,-1.101 13.75,-3.203 3.95,-2.097 7.5,-5.4998 10.86,-9.9998 v 2.6016 c 0,3.3982 0.84,6.1012 2.4,8.0002 1.61,1.801 3.68,2.699 6.18,2.699 3.63,0 6.01,-1.199 7.22,-3.598 1.19,-2.5 1.78,-6.1012 1.78,-10.7028"
         style="fill:#612a2e;fill-opacity:1;fill-rule:nonzero;stroke:none"
         transform="matrix(0.13333333,0,0,-0.13333333,0,1576.8)" />
      <path
         id="path42"
         d="m 2414.98,284.5 h 27.79 c -1.96,-14.898 -8.1,-26.602 -18.31,-35 -9.46,-8.301 -20.9,-12.301 -34.25,-12.301 -18.15,0 -32.64,6.301 -43.45,19 -10.25,12.203 -15.36,27.801 -15.36,46.903 0,19.5 5.08,35.199 15.21,47 10.13,11.796 24.45,17.699 42.97,17.699 13.77,0 25.42,-3.699 34.88,-11.102 10,-8 16.15,-19.199 18.31,-33.597 h -27.79 c -2.4,12.5 -10.05,18.796 -23.09,18.796 -21.47,0 -32.23,-12.699 -32.23,-38.199 0,-11.898 2.77,-21.699 8.29,-29.199 5.52,-7.699 13.31,-11.5 23.35,-11.5 14.98,0 22.87,7.199 23.68,21.5 z m -109.38,17.602 c 0,-24.903 7.89,-45.903 23.63,-63.102 15.77,-17.102 35.07,-25.699 57.96,-25.699 22.81,0 42.11,8.597 57.85,25.699 15.79,17.199 23.62,38.199 23.62,63.102 0,24.796 -7.83,45.898 -23.62,63 -15.74,17.199 -35.04,25.8 -57.85,25.8 -22.89,0 -42.19,-8.601 -57.96,-25.8 -15.74,-17.102 -23.63,-38.204 -23.63,-63 z m -28.23,0 c 0,31.597 10.71,58.597 32.14,81.097 21.46,22.403 47.36,33.602 77.68,33.602 30.26,0 56.12,-11.199 77.6,-33.602 21.45,-22.5 32.18,-49.5 32.18,-81.097 0,-31.704 -10.73,-58.7 -32.18,-81.102 -21.48,-22.5 -47.34,-33.699 -77.6,-33.699 -30.32,0 -56.22,11.199 -77.68,33.699 -21.43,22.402 -32.14,49.398 -32.14,81.102"
         style="fill:#612a2e;fill-opacity:1;fill-rule:nonzero;stroke:none"
         transform="matrix(0.13333333,0,0,-0.13333333,0,1576.8)" />
      <path
         id="path43"
         d="m 2321.81,230.199 16.01,-13.597 117.76,151.199 -16.01,13.601 -117.76,-151.203"
         style="fill:#612a2e;fill-opacity:1;fill-rule:nonzero;stroke:none"
         transform="matrix(0.13333333,0,0,-0.13333333,0,1576.8)" />
      <path
         id="path44"
         d="m 2484.95,4468.91 c 1372.4,0 2484.94,-1112.55 2484.94,-2484.95 0,-464.76 -127.7,-899.56 -349.73,-1271.558 H 349.73 C 127.703,1084.4 0,1519.2 0,1983.96 0,3356.36 1112.54,4468.91 2484.95,4468.91"
         style="fill:#feecf0;fill-opacity:1;fill-rule:evenodd;stroke:none"
         transform="matrix(0.13333333,0,0,-0.13333333,0,1576.8)" />
      <path
         id="path45"
         d="m 934.355,2117 c 437.685,0 794.655,356.96 794.655,794.63 0,437.68 -356.97,794.64 -794.655,794.64 -437.671,0 -794.636,-356.96 -794.636,-794.64 0,-437.67 356.965,-794.63 794.636,-794.63"
         style="fill:#eac5c9;fill-opacity:1;fill-rule:evenodd;stroke:none"
         transform="matrix(0.13333333,0,0,-0.13333333,0,1576.8)" />
      <path
         id="path46"
         d="m 794.648,2228.1 c 437.672,0 794.642,356.97 794.642,794.65 0,437.67 -356.97,794.64 -794.642,794.64 C 356.973,3817.39 0.00390625,3460.42 0.00390625,3022.75 0.00390625,2585.07 356.973,2228.1 794.648,2228.1"
         style="fill:#612a2e;fill-opacity:1;fill-rule:evenodd;stroke:none"
         transform="matrix(0.13333333,0,0,-0.13333333,0,1576.8)" />
      <path
         id="path47"
         d="m 794.648,2403.2 c 341.242,0 619.552,278.32 619.552,619.55 0,341.24 -278.31,619.55 -619.552,619.55 -341.242,0 -619.554,-278.31 -619.554,-619.55 0,-341.23 278.312,-619.55 619.554,-619.55"
         style="fill:#8a424a;fill-opacity:1;fill-rule:evenodd;stroke:none"
         transform="matrix(0.13333333,0,0,-0.13333333,0,1576.8)" />
      <path
         id="path48"
         d="m 731.016,3534.55 c 0,35.14 28.492,63.63 63.632,63.63 35.137,0 63.622,-28.49 63.622,-63.63 v -475.24 l 266.58,-153.91 c 30.34,-17.56 40.68,-56.41 23.11,-86.74 -17.56,-30.34 -56.41,-40.7 -86.74,-23.12 l -294.372,169.95 c -21.219,10.32 -35.832,32.08 -35.832,57.26 v 511.8"
         style="fill:#ffffff;fill-opacity:1;fill-rule:evenodd;stroke:none"
         transform="matrix(0.13333333,0,0,-0.13333333,0,1576.8)" />
      <path
         id="path49"
         d="M 934.355,1076 H 3601.13 V 712.402 H 934.355 Z m 0,3488.38 H 3601.13 V 4200.74 H 934.355 v 363.64 0"
         style="fill:#612a2e;fill-opacity:1;fill-rule:evenodd;stroke:none"
         transform="matrix(0.13333333,0,0,-0.13333333,0,1576.8)" />
      <path
         id="path50"
         d="m 1109.44,4200.74 v -318.7 c 0,-499.92 324.1,-920.77 754.25,-979.38 114.91,-15.65 200.01,-130.82 195.29,-264.28 4.72,-133.45 -80.38,-248.62 -195.29,-264.27 -430.15,-58.62 -754.25,-479.47 -754.25,-979.41 V 1076 h 1158.31 1158.28 v 318.7 c 0,499.94 -324.1,920.79 -754.23,979.41 -114.93,15.65 -200.03,130.82 -195.3,264.27 -4.73,133.46 80.37,248.63 195.3,264.28 430.13,58.61 754.23,479.46 754.23,979.38 v 318.7 H 2267.75 1109.44"
         style="fill:#eac5c9;fill-opacity:1;fill-rule:evenodd;stroke:none"
         transform="matrix(0.13333333,0,0,-0.13333333,0,1576.8)" />
      <path
         id="path51"
         d="m 1257.6,4200.74 v -318.7 c 0,-374.3 229.89,-778.6 626.09,-832.58 200.31,-27.3 328.04,-216.16 323.51,-411.08 4.53,-194.92 -123.19,-383.78 -323.51,-411.08 C 1487.49,2173.31 1257.6,1769 1257.6,1394.7 V 1076 h 2020.29 v 318.7 c 0,374.3 -229.9,778.61 -626.09,832.6 -200.33,27.3 -328.05,216.16 -323.5,411.08 -4.55,194.92 123.17,383.78 323.5,411.08 396.19,53.98 626.09,458.28 626.09,832.58 v 318.7 H 1257.6"
         style="fill:#e0b4b8;fill-opacity:1;fill-rule:evenodd;stroke:none"
         transform="matrix(0.13333333,0,0,-0.13333333,0,1576.8)" />
      <path
         id="path52"
         d="m 1526.97,4200.74 v -318.7 c 0,-374.3 168.57,-778.6 459.13,-832.58 146.89,-27.3 240.57,-216.16 237.23,-411.08 3.34,-194.92 -90.34,-383.78 -237.23,-411.08 -290.56,-53.99 -459.13,-458.3 -459.13,-832.6 V 1076 h 483.73 v 318.7 c 0,374.3 58.49,778.61 159.32,832.6 50.97,27.3 83.46,216.16 82.32,411.08 1.14,194.92 -31.35,383.78 -82.32,411.08 -100.83,53.98 -159.32,458.28 -159.32,832.58 v 318.7 h -483.73"
         style="fill:#f9dadf;fill-opacity:1;fill-rule:evenodd;stroke:none"
         transform="matrix(0.13333333,0,0,-0.13333333,0,1576.8)" />
      <path
         id="path53"
         d="m 1311.88,3564.35 c 89.86,-258.13 288.21,-476.26 571.81,-514.89 193.6,-26.39 319.39,-203.69 323.51,-391.53 v -19.55 -906.48 l -280.64,-296 -341.17,-359.9 h 682.36 682.34 l -341.17,359.9 -280.62,296 v 906.48 19.55 c 4.09,187.84 129.88,365.14 323.5,391.53 283.59,38.63 481.95,256.76 571.81,514.89 H 1311.88"
         style="fill:#aa737a;fill-opacity:1;fill-rule:evenodd;stroke:none"
         transform="matrix(0.13333333,0,0,-0.13333333,0,1576.8)" />
      <path
         id="path54"
         d="m 2013.11,1527.2 -86.55,-91.3 -341.17,-359.9 h 425.31 v 318.7 c 0,44 0.81,88.3 2.41,132.5 z m 194.09,963.84 v -208.71 c 28.98,75.47 45.97,214.15 45.14,356.05 1.14,194.92 -31.35,383.78 -82.32,411.08 -72.16,38.63 -122.65,256.76 -145.51,514.89 h -457.74 c 65.89,-258.13 211.36,-476.26 419.33,-514.89 146.89,-27.3 240.57,-216.16 237.23,-411.08 0.86,-50.42 -4.78,-100.43 -16.13,-147.34 v 0"
         style="fill:#d38e96;fill-opacity:1;fill-rule:evenodd;stroke:none"
         transform="matrix(0.13333333,0,0,-0.13333333,0,1576.8)" />
      <path
         id="path55"
         d="m 1719.77,3511.01 c 47.29,0 85.86,89.24 85.86,198.66 0,109.42 -38.57,198.66 -85.86,198.66 -47.29,0 -85.86,-89.24 -85.86,-198.66 0,-109.42 38.57,-198.66 85.86,-198.66"
         style="fill:#ffffff;fill-opacity:1;fill-rule:evenodd;stroke:none"
         transform="matrix(0.13333333,0,0,-0.13333333,0,1576.8)" />
      <path
         id="path56"
         d="m 1719.77,3997.57 c 29.28,0 53.15,37.83 53.15,84.23 0,46.39 -23.87,84.22 -53.15,84.22 -29.29,0 -53.16,-37.83 -53.16,-84.22 0,-46.4 23.87,-84.23 53.16,-84.23"
         style="fill:#ffffff;fill-opacity:1;fill-rule:evenodd;stroke:none"
         transform="matrix(0.13333333,0,0,-0.13333333,0,1576.8)" />
      <path
         id="path57"
         d="m 3558.24,2989.09 h 916.7 v -447.83 h -916.7 z M 2572.5,3494.17 H 4474.94 V 3046.34 H 2572.5 v 447.83 0"
         style="fill:#612a2e;fill-opacity:1;fill-rule:evenodd;stroke:none"
         transform="matrix(0.13333333,0,0,-0.13333333,0,1576.8)" />
      <path
         id="path58"
         d="m 2717.29,3906.64 h 1612.86 c 61.11,0 111.11,-50 111.11,-111.12 V 823.5 c 0,-61.098 -50,-111.098 -111.11,-111.098 H 2717.29 c -61.12,0 -111.12,50 -111.12,111.098 v 2972.02 c 0,61.12 50,111.12 111.12,111.12"
         style="fill:#321819;fill-opacity:1;fill-rule:evenodd;stroke:none"
         transform="matrix(0.13333333,0,0,-0.13333333,0,1576.8)" />
      <path
         id="path59"
         d="m 2717.3,3806.79 h 1612.85 c 6.19,0 11.25,-5.08 11.25,-11.27 V 823.5 c 0,-6.199 -5.06,-11.301 -11.25,-11.301 H 2717.3 c -6.2,0 -11.27,5.102 -11.27,11.301 v 2972.02 c 0,6.19 5.07,11.27 11.27,11.27"
         style="fill:#9b4c56;fill-opacity:1;fill-rule:evenodd;stroke:none"
         transform="matrix(0.13333333,0,0,-0.13333333,0,1576.8)" />
      <path
         id="path60"
         d="m 2717.3,3806.79 h 1612.85 c 6.19,0 11.25,-5.08 11.25,-11.27 V 3606.97 H 2706.03 v 188.55 c 0,6.19 5.07,11.27 11.27,11.27"
         style="fill:#d38e96;fill-opacity:1;fill-rule:evenodd;stroke:none"
         transform="matrix(0.13333333,0,0,-0.13333333,0,1576.8)" />
      <path
         id="path61"
         d="m 1330.88,1076 h 437.95 V 712.402 h -437.95 z m 0,3488.38 h 437.95 v -363.64 h -437.95 v 363.64 0"
         style="fill:#8a424a;fill-opacity:1;fill-rule:evenodd;stroke:none"
         transform="matrix(0.13333333,0,0,-0.13333333,0,1576.8)" />
      <path
         id="path62"
         d="m 2865.46,3154.04 h 246.69 v 246.68 h -246.69 v -246.68"
         style="fill:#eac5c9;fill-opacity:1;fill-rule:evenodd;stroke:none"
         transform="matrix(0.13333333,0,0,-0.13333333,0,1576.8)" />
      <path
         id="path63"
         d="m 3353.7,3300.66 h 737.41 v 100.06 H 3353.7 v -100.06"
         style="fill:#eac5c9;fill-opacity:1;fill-rule:evenodd;stroke:none"
         transform="matrix(0.13333333,0,0,-0.13333333,0,1576.8)" />
      <path
         id="path64"
         d="m 3353.7,3154.04 h 611.14 V 3254.1 H 3353.7 v -100.06"
         style="fill:#eac5c9;fill-opacity:1;fill-rule:evenodd;stroke:none"
         transform="matrix(0.13333333,0,0,-0.13333333,0,1576.8)" />
      <path
         id="path65"
         d="m 2865.46,2869.97 c 82.23,0 164.46,0 246.69,0 0,-82.22 0,-164.45 0,-246.68 -82.23,0 -164.46,0 -246.69,0 0,82.23 0,164.46 0,246.68"
         style="fill:#eac5c9;fill-opacity:1;fill-rule:evenodd;stroke:none"
         transform="matrix(0.13333333,0,0,-0.13333333,0,1576.8)" />
      <path
         id="path66"
         d="m 3353.7,2869.97 c 245.8,0 491.6,0 737.41,0 0,-33.35 0,-66.7 0,-100.05 -245.81,0 -491.61,0 -737.41,0 0,33.35 0,66.7 0,100.05"
         style="fill:#eac5c9;fill-opacity:1;fill-rule:evenodd;stroke:none"
         transform="matrix(0.13333333,0,0,-0.13333333,0,1576.8)" />
      <path
         id="path67"
         d="m 3353.7,2723.35 c 203.71,0 407.42,0 611.14,0 0,-33.36 0,-66.71 0,-100.06 -203.72,0 -407.43,0 -611.14,0 0,33.35 0,66.7 0,100.06"
         style="fill:#eac5c9;fill-opacity:1;fill-rule:evenodd;stroke:none"
         transform="matrix(0.13333333,0,0,-0.13333333,0,1576.8)" />
      <path
         id="path68"
         d="m 2865.46,2339.23 c 82.23,0 164.46,0 246.69,0 0,-82.22 0,-164.45 0,-246.68 -82.23,0 -164.46,0 -246.69,0 0,82.23 0,164.46 0,246.68"
         style="fill:#eac5c9;fill-opacity:1;fill-rule:evenodd;stroke:none"
         transform="matrix(0.13333333,0,0,-0.13333333,0,1576.8)" />
      <path
         id="path69"
         d="m 3353.7,2339.23 c 245.8,0 491.6,0 737.41,0 0,-33.37 0,-66.71 0,-100.07 -245.81,0 -491.61,0 -737.41,0 0,33.36 0,66.7 0,100.07"
         style="fill:#eac5c9;fill-opacity:1;fill-rule:evenodd;stroke:none"
         transform="matrix(0.13333333,0,0,-0.13333333,0,1576.8)" />
      <path
         id="path70"
         d="m 3353.7,2192.61 c 203.71,0 407.42,0 611.14,0 0,-33.36 0,-66.72 0,-100.07 -203.72,0 -407.43,0 -611.14,0 0,33.35 0,66.71 0,100.07"
         style="fill:#eac5c9;fill-opacity:1;fill-rule:evenodd;stroke:none"
         transform="matrix(0.13333333,0,0,-0.13333333,0,1576.8)" />
      <path
         id="path71"
         d="m 2865.46,1808.5 c 82.23,0 164.46,0 246.69,0 0,-82.2 0,-164.5 0,-246.7 -82.23,0 -164.46,0 -246.69,0 0,82.2 0,164.5 0,246.7"
         style="fill:#eac5c9;fill-opacity:1;fill-rule:evenodd;stroke:none"
         transform="matrix(0.13333333,0,0,-0.13333333,0,1576.8)" />
      <path
         id="path72"
         d="m 3353.7,1808.5 c 245.8,0 491.6,0 737.41,0 0,-33.4 0,-66.7 0,-100.1 -245.81,0 -491.61,0 -737.41,0 0,33.4 0,66.7 0,100.1"
         style="fill:#eac5c9;fill-opacity:1;fill-rule:evenodd;stroke:none"
         transform="matrix(0.13333333,0,0,-0.13333333,0,1576.8)" />
      <path
         id="path73"
         d="m 3353.7,1661.9 c 203.71,0 407.42,0 611.14,0 0,-33.4 0,-66.7 0,-100.1 -203.72,0 -407.43,0 -611.14,0 0,33.4 0,66.7 0,100.1"
         style="fill:#eac5c9;fill-opacity:1;fill-rule:evenodd;stroke:none"
         transform="matrix(0.13333333,0,0,-0.13333333,0,1576.8)" />
      <path
         id="path74"
         d="m 2865.46,1031.1 h 246.69 v 246.6 h -246.69 v -246.6"
         style="fill:#eac5c9;fill-opacity:1;fill-rule:evenodd;stroke:none"
         transform="matrix(0.13333333,0,0,-0.13333333,0,1576.8)" />
      <path
         id="path75"
         d="m 3353.7,1177.7 h 737.41 v 100 H 3353.7 v -100"
         style="fill:#eac5c9;fill-opacity:1;fill-rule:evenodd;stroke:none"
         transform="matrix(0.13333333,0,0,-0.13333333,0,1576.8)" />
      <path
         id="path76"
         d="m 3353.7,1031.1 h 611.14 v 100 H 3353.7 v -100"
         style="fill:#eac5c9;fill-opacity:1;fill-rule:evenodd;stroke:none"
         transform="matrix(0.13333333,0,0,-0.13333333,0,1576.8)" />
      <path
         id="path77"
         d="m 2868.18,3385.05 113.98,-113.03 143,218.62 66.49,-43.5 -196.2,-299.98 -183.2,181.65 55.93,56.24"
         style="fill:#ffffff;fill-opacity:1;fill-rule:evenodd;stroke:none"
         transform="matrix(0.13333333,0,0,-0.13333333,0,1576.8)" />
      <path
         id="path78"
         d="m 2868.18,2851.21 c 38,-37.68 75.99,-75.36 113.98,-113.03 47.67,72.87 95.34,145.74 143,218.62 22.16,-14.51 44.33,-29 66.49,-43.5 -65.4,-99.99 -130.81,-199.99 -196.2,-299.99 -61.07,60.55 -122.13,121.11 -183.2,181.66 18.63,18.75 37.28,37.49 55.93,56.24"
         style="fill:#ffffff;fill-opacity:1;fill-rule:evenodd;stroke:none"
         transform="matrix(0.13333333,0,0,-0.13333333,0,1576.8)" />
      <path
         id="path79"
         d="m 2868.18,2317.38 c 38,-37.69 75.99,-75.37 113.98,-113.04 47.67,72.88 95.34,145.74 143,218.62 22.16,-14.5 44.33,-28.99 66.49,-43.5 -65.4,-99.98 -130.81,-199.99 -196.2,-299.97 -61.07,60.54 -122.13,121.09 -183.2,181.64 18.63,18.75 37.28,37.5 55.93,56.25"
         style="fill:#ffffff;fill-opacity:1;fill-rule:evenodd;stroke:none"
         transform="matrix(0.13333333,0,0,-0.13333333,0,1576.8)" />
      <path
         id="path80"
         d="m 2868.18,1783.5 c 38,-37.6 75.99,-75.3 113.98,-113 47.67,72.9 95.34,145.8 143,218.62 22.16,-14.51 44.33,-29 66.49,-43.49 -65.4,-100.03 -130.81,-200.03 -196.2,-300.03 -61.07,60.6 -122.13,121.2 -183.2,181.7 18.63,18.7 37.28,37.5 55.93,56.2"
         style="fill:#ffffff;fill-opacity:1;fill-rule:evenodd;stroke:none"
         transform="matrix(0.13333333,0,0,-0.13333333,0,1576.8)" />
      <path
         id="path81"
         d="m 2868.18,1249.7 113.98,-113 143,218.6 66.49,-43.5 -196.2,-300 -183.2,181.7 55.93,56.2"
         style="fill:#ffffff;fill-opacity:1;fill-rule:evenodd;stroke:none"
         transform="matrix(0.13333333,0,0,-0.13333333,0,1576.8)" />
    </g>
  </g>
</svg>
