<?xml version="1.0" encoding="UTF-8" standalone="no"?>
<!-- Created with Inkscape (http://www.inkscape.org/) -->

<svg
   version="1.1"
   id="svg1"
   width="703.56"
   height="741.70667"
   viewBox="0 0 703.56 741.70667"
   sodipodi:docname="tomato-red.svg"
   inkscape:version="1.4.2 (ebf0e940d0, 2025-05-08)"
   xmlns:inkscape="http://www.inkscape.org/namespaces/inkscape"
   xmlns:sodipodi="http://sodipodi.sourceforge.net/DTD/sodipodi-0.dtd"
   xmlns="http://www.w3.org/2000/svg"
   xmlns:svg="http://www.w3.org/2000/svg">
  <defs
     id="defs1" />
  <sodipodi:namedview
     id="namedview1"
     pagecolor="#505050"
     bordercolor="#ffffff"
     borderopacity="1"
     inkscape:showpageshadow="0"
     inkscape:pageopacity="0"
     inkscape:pagecheckerboard="1"
     inkscape:deskcolor="#d1d1d1"
     inkscape:zoom="1.0988172"
     inkscape:cx="351.74187"
     inkscape:cy="370.85333"
     inkscape:window-width="1920"
     inkscape:window-height="1002"
     inkscape:window-x="0"
     inkscape:window-y="0"
     inkscape:window-maximized="1"
     inkscape:current-layer="g1">
    <inkscape:page
       x="0"
       y="0"
       inkscape:label="1"
       id="page1"
       width="703.56"
       height="741.70667"
       margin="0"
       bleed="0" />
  </sodipodi:namedview>
  <g
     id="g1"
     inkscape:groupmode="layer"
     inkscape:label="1">
    <g
       id="group-R5">
      <path
         id="path2"
         d="m 1302.43,87.5508 c 0,6.5508 -0.95,12.1992 -2.89,16.8512 -1.88,4.7 -4.54,8.309 -7.96,10.868 -3.4,2.492 -7.12,3.761 -11.27,3.761 -6.55,0 -12.07,-2.761 -16.57,-8.101 -4.51,-5.438 -6.76,-13.3284 -6.76,-23.8206 0,-9.8672 2.25,-17.5391 6.69,-22.9688 4.49,-5.4922 10.05,-8.2695 16.64,-8.2695 3.95,0 7.61,1.1992 10.99,3.6289 3.33,2.3906 6.05,5.9609 8.08,10.7227 2.05,4.8086 3.05,10.5664 3.05,17.3281 z m -46.56,36.0972 v -2.968 c 4.46,5.73 9.1,10 13.91,12.652 4.81,2.707 10.3,4.066 16.39,4.066 7.3,0 14.03,-1.988 20.18,-5.918 6.14,-3.929 10.99,-9.648 14.57,-17.238 3.57,-7.59 5.34,-16.5193 5.34,-26.8826 0,-7.6172 -1.01,-14.6875 -3.07,-21 -2.05,-6.4102 -4.88,-11.7891 -8.49,-16.1094 -3.6,-4.3281 -7.86,-7.6797 -12.74,-9.9687 -4.92,-2.3711 -10.19,-3.5196 -15.79,-3.5196 -6.82,0 -12.52,1.4102 -17.13,4.2578 -4.65,2.8399 -9.01,6.9922 -13.17,12.5196 V 16.3516 C 1255.87,5.42188 1252.07,0 1244.47,0 c -4.46,0 -7.43,1.37891 -8.85,4.19141 -1.46,2.82031 -2.17,6.91799 -2.17,12.32029 V 123.5 c 0,4.711 0.94,8.262 2.94,10.57 1.99,2.321 4.68,3.52 8.08,3.52 3.37,0 6.12,-1.199 8.23,-3.61 2.11,-2.429 3.17,-5.859 3.17,-10.332"
         style="fill:#ed3f1f;fill-opacity:1;fill-rule:nonzero;stroke:none"
         transform="matrix(0.13333333,0,0,-0.13333333,0,741.70667)" />
      <path
         id="path3"
         d="m 1407.06,50.7695 v 3.1407 c -2.87,-3.75 -5.85,-6.8789 -9,-9.3985 -3.13,-2.5898 -6.55,-4.4726 -10.24,-5.6992 -3.74,-1.2227 -7.98,-1.8516 -12.72,-1.8516 -5.73,0 -10.88,1.25 -15.43,3.711 -4.57,2.4804 -8.08,5.8984 -10.57,10.25 -2.98,5.2773 -4.44,12.8476 -4.44,22.6797 v 49.1404 c 0,4.918 1.07,8.649 3.23,11.078 2.14,2.45 4.97,3.7 8.51,3.7 3.6,0 6.5,-1.25 8.71,-3.75 2.19,-2.481 3.29,-6.18 3.29,-11.028 V 83.0313 c 0,-5.7188 0.47,-10.5508 1.36,-14.4219 0.97,-3.9375 2.62,-7 5.06,-9.2188 2.37,-2.1992 5.64,-3.2812 9.75,-3.2812 4.04,0 7.81,1.25 11.31,3.7226 3.57,2.4571 6.16,5.6875 7.77,9.668 1.35,3.5391 1.99,11.1992 1.99,23.082 v 30.16 c 0,4.848 1.11,8.547 3.32,11.028 2.19,2.5 5.04,3.75 8.59,3.75 3.54,0 6.39,-1.25 8.52,-3.7 2.14,-2.429 3.2,-6.16 3.2,-11.078 V 50.9219 c 0,-4.7227 -1,-8.2696 -3.08,-10.6133 -2.03,-2.3789 -4.68,-3.5273 -7.94,-3.5273 -3.24,0 -5.91,1.25 -8.04,3.6484 -2.1,2.4805 -3.15,5.8828 -3.15,10.3398"
         style="fill:#ed3f1f;fill-opacity:1;fill-rule:nonzero;stroke:none"
         transform="matrix(0.13333333,0,0,-0.13333333,0,741.70667)" />
      <path
         id="path4"
         d="m 1475.94,86.5586 c 0,-9.8594 2.15,-17.4063 6.45,-22.7266 4.33,-5.2695 10,-7.9609 17.03,-7.9609 5.99,0 11.11,2.7383 15.46,8.1484 4.34,5.4219 6.48,13.1407 6.48,23.2618 0,6.5976 -0.9,12.2109 -2.69,16.9097 -1.81,4.75 -4.38,8.391 -7.65,10.95 -3.35,2.57 -7.18,3.89 -11.6,3.89 -4.56,0 -8.53,-1.32 -12.09,-3.89 -3.55,-2.559 -6.32,-6.301 -8.37,-11.168 -2.02,-4.8441 -3.02,-10.6332 -3.02,-17.4144 z m -1.14,73.6914 v -37.891 c 4.42,4.891 9,8.563 13.64,11.192 4.64,2.558 10.4,3.847 17.25,3.847 7.87,0 14.77,-1.988 20.74,-5.847 5.93,-3.961 10.57,-9.59 13.83,-16.992 3.29,-7.418 4.92,-16.1996 4.92,-26.3676 0,-7.5312 -0.91,-14.4101 -2.71,-20.6992 -1.85,-6.25 -4.49,-11.6602 -7.96,-16.3008 -3.51,-4.582 -7.73,-8.0898 -12.68,-10.6914 -4.97,-2.4687 -10.44,-3.7383 -16.4,-3.7383 -3.64,0 -7.09,0.4571 -10.33,1.3672 -3.23,0.9024 -5.97,2.082 -8.21,3.6016 -2.28,1.4218 -4.2,2.9883 -5.79,4.5312 -1.61,1.5977 -3.68,3.9375 -6.3,7.0899 v -2.4297 c 0,-4.6797 -1.08,-8.1914 -3.24,-10.6133 -2.13,-2.3789 -4.88,-3.5469 -8.15,-3.5469 -3.39,0 -6.05,1.168 -8.07,3.5469 -1.99,2.4727 -2.99,5.9531 -2.99,10.6133 V 159.16 c 0,4.992 0.98,8.789 2.92,11.36 1.94,2.601 4.63,3.871 8.14,3.871 3.62,0 6.45,-1.231 8.41,-3.7 1.99,-2.441 2.98,-5.902 2.98,-10.441"
         style="fill:#ed3f1f;fill-opacity:1;fill-rule:nonzero;stroke:none"
         transform="matrix(0.13333333,0,0,-0.13333333,0,741.70667)" />
      <path
         id="path5"
         d="M 1561.94,51.8516 V 159.32 c 0,4.981 1.06,8.711 3.16,11.27 2.14,2.531 4.98,3.801 8.58,3.801 3.6,0 6.49,-1.25 8.7,-3.77 2.17,-2.5 3.3,-6.301 3.3,-11.301 V 51.8516 c 0,-5.0313 -1.14,-8.8203 -3.36,-11.3516 -2.21,-2.4687 -5.11,-3.7383 -8.64,-3.7383 -3.48,0 -6.28,1.3008 -8.47,3.9102 -2.19,2.6094 -3.27,6.3086 -3.27,11.1797"
         style="fill:#ed3f1f;fill-opacity:1;fill-rule:nonzero;stroke:none"
         transform="matrix(0.13333333,0,0,-0.13333333,0,741.70667)" />
      <path
         id="path6"
         d="M 1633.96,123.43 V 51.8516 c 0,-5 -1.16,-8.75 -3.38,-11.2891 -2.27,-2.5 -5.16,-3.8008 -8.62,-3.8008 -3.49,0 -6.31,1.3008 -8.48,3.8906 -2.17,2.629 -3.27,6.3282 -3.27,11.1993 v 70.8904 c 0,4.848 1.1,8.547 3.27,11.028 2.17,2.5 4.99,3.75 8.48,3.75 3.46,0 6.35,-1.25 8.62,-3.75 2.22,-2.481 3.38,-5.918 3.38,-10.34 z m -11.76,25.629 c -3.29,0 -6.11,1.05 -8.5,3.23 -2.29,2.102 -3.49,5.133 -3.49,9 0,3.5 1.2,6.363 3.61,8.672 2.39,2.281 5.18,3.348 8.38,3.348 3.07,0 5.82,-0.996 8.19,-3.039 2.36,-2.059 3.57,-5.09 3.57,-8.981 0,-3.84 -1.19,-6.809 -3.49,-8.93 -2.32,-2.16 -5.06,-3.3 -8.27,-3.3"
         style="fill:#ed3f1f;fill-opacity:1;fill-rule:nonzero;stroke:none"
         transform="matrix(0.13333333,0,0,-0.13333333,0,741.70667)" />
      <path
         id="path7"
         d="m 1743.55,67.4414 c 0,-3.0703 -0.87,-6.3789 -2.63,-9.8789 -1.8,-3.5234 -4.49,-6.8516 -8.12,-10.0234 -3.62,-3.168 -8.19,-5.7383 -13.68,-7.6602 -5.5,-1.9687 -11.73,-2.918 -18.61,-2.918 -14.68,0 -26.13,4.4688 -34.37,13.3789 -8.23,8.9415 -12.35,20.8711 -12.35,35.8907 0,10.1601 1.87,19.1795 5.62,26.9685 3.78,7.77 9.27,13.84 16.37,18.09 7.12,4.293 15.66,6.422 25.55,6.422 6.17,0 11.83,-0.961 16.96,-2.813 5.13,-1.886 9.48,-4.316 13.02,-7.257 3.58,-2.969 6.29,-6.129 8.21,-9.489 1.91,-3.351 2.81,-6.492 2.81,-9.402 0,-2.93 -1.08,-5.43 -3.16,-7.52 -2.13,-2.0581 -4.67,-3.0894 -7.7,-3.0894 -1.99,0 -3.62,0.5703 -4.94,1.6289 -1.27,1.0195 -2.77,2.6915 -4.38,5.0895 -2.91,4.59 -5.93,8.063 -9.1,10.411 -3.16,2.281 -7.19,3.46 -12.01,3.46 -7.05,0 -12.71,-2.898 -17,-8.609 -4.29,-5.762 -6.42,-13.5702 -6.42,-23.4999 0,-4.6523 0.56,-8.9688 1.65,-12.8594 1.1,-3.9101 2.71,-7.2226 4.77,-9.9922 2.1,-2.7578 4.6,-4.8398 7.59,-6.25 2.95,-1.4375 6.2,-2.1601 9.7,-2.1601 4.8,0 8.85,1.1406 12.24,3.4531 3.41,2.3164 6.42,5.8281 8.99,10.5078 1.49,2.8399 3.04,5 4.73,6.6016 1.69,1.5703 3.75,2.3086 6.17,2.3086 2.9,0 5.31,-1.1094 7.24,-3.3985 1.87,-2.3515 2.85,-4.7812 2.85,-7.3906"
         style="fill:#ed3f1f;fill-opacity:1;fill-rule:nonzero;stroke:none"
         transform="matrix(0.13333333,0,0,-0.13333333,0,741.70667)" />
      <path
         id="path8"
         d="m 1782.67,87.2813 c 0,-6.711 1,-12.4102 3,-17.1524 2,-4.7266 4.71,-8.2383 8.17,-10.6289 3.52,-2.4297 7.31,-3.6289 11.39,-3.6289 4.2,0 8.01,1.1602 11.44,3.4102 3.46,2.2773 6.2,5.7695 8.29,10.4609 2.05,4.6797 3.06,10.5391 3.06,17.5391 0,6.6406 -1.01,12.2773 -3.06,17.0507 -2.09,4.77 -4.85,8.379 -8.36,10.938 -3.51,2.492 -7.35,3.761 -11.51,3.761 -4.33,0 -8.21,-1.32 -11.66,-3.89 -3.39,-2.559 -6.06,-6.27 -7.94,-11.09 -1.87,-4.8322 -2.82,-10.3596 -2.82,-16.7697 z m 46.66,-36.3594 v 2.4297 c -3.17,-3.8203 -6.33,-6.9024 -9.45,-9.2813 -3.07,-2.4101 -6.45,-4.2109 -10.07,-5.4609 -3.6,-1.211 -7.59,-1.8477 -11.87,-1.8477 -5.66,0 -10.95,1.2696 -15.78,3.7383 -4.82,2.6016 -9.02,6.1289 -12.55,10.7891 -3.53,4.6523 -6.21,10.1406 -8.06,16.4609 -1.84,6.2695 -2.74,13.0703 -2.74,20.4414 0,15.4496 3.64,27.5786 10.87,36.2386 7.27,8.652 16.8,12.968 28.62,12.968 6.84,0 12.62,-1.25 17.3,-3.75 4.69,-2.398 9.28,-6.179 13.73,-11.289 v 36.602 c 0,5.078 0.98,8.918 2.93,11.519 1.93,2.61 4.68,3.911 8.28,3.911 3.6,0 6.35,-1.2 8.32,-3.571 1.95,-2.379 2.94,-5.929 2.94,-10.57 V 50.9219 c 0,-4.7227 -1.05,-8.2696 -3.15,-10.6133 -2.09,-2.3789 -4.79,-3.5469 -8.11,-3.5469 -3.2,0 -5.92,1.2188 -8.04,3.668 -2.11,2.4297 -3.17,5.9101 -3.17,10.4922"
         style="fill:#ed3f1f;fill-opacity:1;fill-rule:nonzero;stroke:none"
         transform="matrix(0.13333333,0,0,-0.13333333,0,741.70667)" />
      <path
         id="path9"
         d="m 1940.69,87.0898 c 0,10.0704 -2.15,17.9612 -6.41,23.5902 -4.26,5.59 -10,8.441 -17.17,8.441 -4.66,0 -8.73,-1.281 -12.28,-3.781 -3.52,-2.539 -6.25,-6.238 -8.16,-11.149 -1.92,-4.8512 -2.88,-10.5504 -2.88,-17.1012 0,-6.4804 0.96,-12.1289 2.84,-16.9609 1.87,-4.8398 4.57,-8.5469 8.1,-11.1289 3.48,-2.5508 7.66,-3.8203 12.38,-3.8203 7.17,0 12.91,2.8008 17.17,8.4609 4.26,5.6289 6.41,13.4805 6.41,23.4492 z m 23.83,0 c 0,-7.3476 -1.12,-14.1601 -3.3,-20.4375 -2.21,-6.1718 -5.39,-11.5507 -9.55,-16.0312 -4.2,-4.5 -9.18,-7.8398 -14.99,-10.3125 -5.8,-2.3789 -12.36,-3.5469 -19.57,-3.5469 -7.18,0 -13.65,1.168 -19.39,3.6289 -5.74,2.3985 -10.72,5.8711 -14.94,10.3789 -4.18,4.5196 -7.36,9.8203 -9.57,15.9493 -2.17,6.1914 -3.24,12.9414 -3.24,20.4101 0,7.5 1.11,14.3631 3.3,20.5821 2.2,6.25 5.35,11.551 9.47,16 4.12,4.41 9.1,7.82 14.98,10.199 5.88,2.379 12.3,3.61 19.39,3.61 7.19,0 13.73,-1.231 19.57,-3.649 5.84,-2.41 10.86,-5.891 15.04,-10.371 4.18,-4.469 7.35,-9.82 9.5,-16 2.22,-6.148 3.3,-12.9805 3.3,-20.4102"
         style="fill:#ed3f1f;fill-opacity:1;fill-rule:nonzero;stroke:none"
         transform="matrix(0.13333333,0,0,-0.13333333,0,741.70667)" />
      <path
         id="path10"
         d="m 2064.81,107.551 c -1.78,-4.192 -2.64,-11.5705 -2.64,-22.219 V 52.3984 c 0,-5.1796 -1.11,-9.1171 -3.4,-11.7265 -2.24,-2.6094 -5.25,-3.9102 -8.96,-3.9102 -3.57,0 -6.48,1.3008 -8.69,3.9102 -2.25,2.6094 -3.34,6.5469 -3.34,11.7265 v 39.5313 c 0,6.2109 -0.24,11.0393 -0.65,14.5433 -0.41,3.406 -1.5,6.269 -3.3,8.476 -1.75,2.223 -4.63,3.332 -8.49,3.332 -7.76,0 -12.85,-2.789 -15.35,-8.402 -2.49,-5.547 -3.68,-13.547 -3.68,-23.9688 V 52.3984 c 0,-5.1562 -1.13,-9.0781 -3.34,-11.6562 -2.24,-2.6797 -5.19,-3.9805 -8.8,-3.9805 -3.62,0 -6.61,1.3008 -8.87,3.9805 -2.31,2.5781 -3.4,6.5 -3.4,11.6289 v 70.9379 c 0,4.671 0.98,8.222 3.03,10.621 2.09,2.41 4.78,3.66 8.16,3.66 3.24,0 5.96,-1.129 8.13,-3.399 2.16,-2.269 3.26,-5.402 3.26,-9.402 v -2.359 c 4.1,5.16 8.51,8.941 13.2,11.34 4.69,2.41 9.96,3.628 15.66,3.628 5.96,0 11.06,-1.25 15.36,-3.75 4.31,-2.449 7.83,-6.218 10.6,-11.218 4.01,5.039 8.3,8.859 12.89,11.289 4.59,2.461 9.65,3.679 15.2,3.679 6.54,0 12.11,-1.289 16.79,-3.996 4.71,-2.672 8.21,-6.453 10.53,-11.441 2.05,-4.481 3.05,-11.52 3.05,-21.172 V 52.3984 c 0,-5.1796 -1.13,-9.1171 -3.36,-11.7265 -2.31,-2.6094 -5.27,-3.9102 -8.98,-3.9102 -3.6,0 -6.55,1.3008 -8.81,3.9805 -2.33,2.5781 -3.48,6.5 -3.48,11.6562 v 41.7032 c 0,5.3281 -0.21,9.5784 -0.64,12.8004 -0.43,3.25 -1.61,5.899 -3.54,8.078 -1.89,2.192 -4.82,3.301 -8.67,3.301 -3.13,0 -6.11,-0.98 -8.89,-2.879 -2.87,-1.972 -5,-4.57 -6.58,-7.851 v 0"
         style="fill:#ed3f1f;fill-opacity:1;fill-rule:nonzero;stroke:none"
         transform="matrix(0.13333333,0,0,-0.13333333,0,741.70667)" />
      <path
         id="path11"
         d="m 2199.26,86.6211 c -3.49,-1.3516 -8.55,-2.7422 -15.19,-4.25 -6.62,-1.4805 -11.23,-2.5391 -13.79,-3.2695 -2.56,-0.711 -4.98,-2.0508 -7.29,-4.0703 -2.34,-2.0821 -3.49,-4.9024 -3.49,-8.5313 0,-3.7773 1.36,-6.9687 4.08,-9.5781 2.73,-2.6719 6.31,-3.9727 10.72,-3.9727 4.69,0 9.04,1.0899 12.99,3.25 3.98,2.1211 6.89,4.9297 8.73,8.3008 2.15,3.75 3.24,9.9219 3.24,18.5898 z m 1.57,-35.9102 c -5.77,-4.6484 -11.31,-8.1406 -16.68,-10.4296 -5.34,-2.3711 -11.37,-3.5196 -18.01,-3.5196 -6.14,0 -11.45,1.2696 -16.08,3.7383 -4.63,2.5313 -8.16,5.9492 -10.66,10.2695 -2.48,4.293 -3.75,8.9219 -3.75,13.961 0,6.789 2.11,12.5508 6.21,17.3398 4.08,4.7422 9.75,7.961 16.91,9.6094 1.53,0.3594 5.28,1.1523 11.23,2.4219 6.02,1.3007 11.1,2.4492 15.4,3.5 4.23,1.039 8.88,2.3281 13.86,3.8394 -0.31,6.571 -1.56,11.36 -3.77,14.469 -2.24,3.031 -6.91,4.531 -13.88,4.531 -6.06,0 -10.57,-0.851 -13.66,-2.621 -3.02,-1.718 -5.64,-4.39 -7.79,-7.941 -2.21,-3.488 -3.71,-5.809 -4.61,-6.93 -0.92,-1.129 -2.85,-1.636 -5.78,-1.636 -2.69,0 -4.98,0.867 -6.89,2.636 -1.98,1.793 -2.95,4.063 -2.95,6.883 0,4.359 1.48,8.617 4.43,12.668 2.97,4.141 7.58,7.52 13.83,10.219 6.27,2.672 14.08,3.992 23.42,3.992 10.41,0 18.63,-1.32 24.63,-3.891 5.95,-2.531 10.15,-6.57 12.61,-12.199 2.48,-5.519 3.73,-12.941 3.73,-22.1288 0,-5.8008 0,-10.7813 -0.06,-14.8008 -0.05,-4.082 -0.05,-8.5898 -0.13,-13.5508 0,-4.6406 0.74,-9.5312 2.22,-14.5508 1.45,-5.0507 2.19,-8.3203 2.19,-9.7382 0,-2.5508 -1.17,-4.8907 -3.44,-6.9727 -2.24,-2.0703 -4.84,-3.1172 -7.75,-3.1172 -2.44,0 -4.82,1.168 -7.25,3.5469 -2.34,2.4219 -4.88,5.8906 -7.53,10.4023"
         style="fill:#ed3f1f;fill-opacity:1;fill-rule:nonzero;stroke:none"
         transform="matrix(0.13333333,0,0,-0.13333333,0,741.70667)" />
      <path
         id="path12"
         d="M 2270.43,123.43 V 51.8516 c 0,-5 -1.13,-8.75 -3.37,-11.2891 -2.27,-2.5 -5.12,-3.8008 -8.6,-3.8008 -3.47,0 -6.35,1.3008 -8.49,3.8906 -2.19,2.629 -3.27,6.3282 -3.27,11.1993 v 70.8904 c 0,4.848 1.08,8.547 3.27,11.028 2.14,2.5 5.02,3.75 8.49,3.75 3.48,0 6.33,-1.25 8.6,-3.75 2.24,-2.481 3.37,-5.918 3.37,-10.34 z m -11.73,25.629 c -3.28,0 -6.1,1.05 -8.46,3.23 -2.34,2.102 -3.54,5.133 -3.54,9 0,3.5 1.22,6.363 3.64,8.672 2.38,2.281 5.19,3.348 8.36,3.348 3.06,0 5.82,-0.996 8.2,-3.039 2.34,-2.059 3.53,-5.09 3.53,-8.981 0,-3.84 -1.15,-6.809 -3.45,-8.93 -2.35,-2.16 -5.1,-3.3 -8.28,-3.3"
         style="fill:#ed3f1f;fill-opacity:1;fill-rule:nonzero;stroke:none"
         transform="matrix(0.13333333,0,0,-0.13333333,0,741.70667)" />
      <path
         id="path13"
         d="m 2316.58,123.789 v -2.957 c 4.14,5.719 8.73,9.949 13.65,12.637 4.98,2.679 10.66,4.051 17.15,4.051 6.23,0 11.83,-1.411 16.79,-4.309 4.89,-2.82 8.6,-6.801 11.02,-12.012 1.56,-3.047 2.56,-6.34 3.05,-9.828 0.43,-3.5 0.7,-7.969 0.7,-13.4296 V 51.8516 c 0,-5 -1.13,-8.75 -3.28,-11.2891 -2.17,-2.5 -5.02,-3.8008 -8.48,-3.8008 -3.51,0 -6.4,1.3008 -8.53,3.9102 -2.23,2.6094 -3.36,6.3086 -3.36,11.1797 v 41.2578 c 0,8.2106 -1.06,14.4416 -3.22,18.7696 -2.23,4.32 -6.57,6.5 -13.07,6.5 -4.22,0 -8.07,-1.32 -11.56,-3.969 -3.48,-2.597 -6.02,-6.23 -7.64,-10.84 -1.15,-3.6911 -1.76,-10.57 -1.76,-20.738 V 51.8516 c 0,-5.0313 -1.11,-8.8203 -3.36,-11.3516 -2.24,-2.4687 -5.11,-3.7383 -8.63,-3.7383 -3.42,0 -6.25,1.3008 -8.45,3.8906 -2.22,2.629 -3.32,6.3282 -3.32,11.1993 V 123.43 c 0,4.742 0.98,8.23 2.97,10.582 1.96,2.328 4.7,3.508 8.1,3.508 2.07,0 3.98,-0.559 5.62,-1.559 1.74,-1.012 3.05,-2.602 4.06,-4.59 1,-2.109 1.55,-4.609 1.55,-7.582"
         style="fill:#ed3f1f;fill-opacity:1;fill-rule:nonzero;stroke:none"
         transform="matrix(0.13333333,0,0,-0.13333333,0,741.70667)" />
      <path
         id="path14"
         d="m 2417.05,122.082 19.18,-56.2617 20.7,58.7187 c 1.66,4.723 3.24,8.031 4.82,10.02 1.6,1.953 3.93,2.961 7.11,2.961 3.03,0 5.59,-1.059 7.76,-3.219 2.07,-2.102 3.14,-4.512 3.14,-7.352 0,-1.09 -0.21,-2.34 -0.59,-3.75 -0.35,-1.488 -0.78,-2.859 -1.28,-4.148 -0.51,-1.231 -1.02,-2.711 -1.7,-4.321 l -22.8,-58.9995 c -0.64,-1.6914 -1.48,-3.8594 -2.48,-6.4688 -1.03,-2.582 -2.16,-4.7812 -3.4,-6.6914 -1.26,-1.8203 -2.79,-3.2187 -4.59,-4.2617 -1.85,-1.0195 -4.08,-1.5469 -6.69,-1.5469 -3.36,0 -6.04,0.7891 -8.05,2.3789 -2.01,1.6094 -3.5,3.3516 -4.43,5.3008 -0.94,1.8711 -2.58,5.6484 -4.83,11.2891 l -22.64,58.3515 c -0.52,1.449 -1.07,2.91 -1.64,4.348 -0.52,1.449 -0.95,2.91 -1.36,4.441 -0.36,1.559 -0.57,2.84 -0.57,3.891 0,1.73 0.49,3.398 1.5,5.07 0.98,1.668 2.37,3.047 4.09,4.09 1.75,1.039 3.61,1.598 5.66,1.598 3.93,0 6.64,-1.18 8.12,-3.59 1.49,-2.34 3.15,-6.289 4.97,-11.848"
         style="fill:#ed3f1f;fill-opacity:1;fill-rule:nonzero;stroke:none"
         transform="matrix(0.13333333,0,0,-0.13333333,0,741.70667)" />
      <path
         id="path15"
         d="m 2514.17,95.1719 h 43.05 c -0.56,8.4371 -2.73,14.7891 -6.56,18.9691 -3.81,4.191 -8.81,6.3 -15.02,6.3 -5.88,0 -10.76,-2.132 -14.53,-6.39 -3.81,-4.231 -6.08,-10.551 -6.94,-18.8791 z m 46.47,-14.0899 h -46.47 c 0.02,-5.6718 1.16,-10.6015 3.23,-14.9414 2.17,-4.25 4.96,-7.4922 8.45,-9.6914 3.52,-2.1992 7.41,-3.25 11.65,-3.25 2.83,0 5.44,0.3399 7.77,1 2.34,0.7422 4.63,1.8203 6.85,3.293 2.17,1.4883 4.18,3.0391 6.06,4.7969 1.83,1.6718 4.32,3.9414 7.21,6.8632 1.25,1.1368 2.98,1.6485 5.23,1.6485 2.46,0 4.41,-0.6719 5.92,-2.0899 1.52,-1.3984 2.24,-3.3515 2.24,-5.8789 0,-2.2422 -0.82,-4.8711 -2.52,-7.8906 -1.68,-2.9609 -4.16,-5.8516 -7.61,-8.6289 -3.4,-2.7305 -7.66,-4.9922 -12.8,-6.8516 -5.09,-1.8007 -10.97,-2.6992 -17.69,-2.6992 -15.24,0 -27.11,4.5586 -35.55,13.5977 -8.44,9.1211 -12.67,21.4101 -12.67,36.9219 0,7.4101 1.07,14.1597 3.12,20.4097 2.09,6.27 5.12,11.641 9.12,16.098 4.01,4.512 8.91,7.973 14.79,10.32 5.88,2.403 12.34,3.602 19.51,3.602 9.22,0 17.19,-2.039 23.83,-6.16 6.66,-4.082 11.62,-9.321 14.92,-15.781 3.32,-6.508 4.96,-13.079 4.96,-19.8403 0,-6.1992 -1.66,-10.2383 -5.12,-12.0703 -3.45,-1.8906 -8.22,-2.7774 -14.43,-2.7774"
         style="fill:#ed3f1f;fill-opacity:1;fill-rule:nonzero;stroke:none"
         transform="matrix(0.13333333,0,0,-0.13333333,0,741.70667)" />
      <path
         id="path16"
         d="m 2685.39,67.4414 c 0,-3.0703 -0.88,-6.3789 -2.68,-9.8789 -1.78,-3.5234 -4.43,-6.8516 -8.09,-10.0234 -3.61,-3.168 -8.2,-5.7383 -13.73,-7.6602 -5.48,-1.9687 -11.72,-2.918 -18.57,-2.918 -14.71,0 -26.15,4.4688 -34.38,13.3789 -8.2,8.9415 -12.36,20.8711 -12.36,35.8907 0,10.1601 1.88,19.1795 5.68,26.9685 3.77,7.77 9.18,13.84 16.33,18.09 7.11,4.293 15.67,6.422 25.59,6.422 6.15,0 11.76,-0.961 16.93,-2.813 5.12,-1.886 9.44,-4.316 13.05,-7.257 3.57,-2.969 6.27,-6.129 8.18,-9.489 1.86,-3.351 2.82,-6.492 2.82,-9.402 0,-2.93 -1.04,-5.43 -3.23,-7.52 -2.09,-2.0581 -4.65,-3.0894 -7.65,-3.0894 -2,0 -3.62,0.5703 -4.89,1.6289 -1.34,1.0195 -2.79,2.6915 -4.45,5.0895 -2.89,4.59 -5.9,8.063 -9.06,10.411 -3.17,2.281 -7.19,3.46 -12.07,3.46 -6.98,0 -12.66,-2.898 -16.94,-8.609 -4.31,-5.762 -6.44,-13.5702 -6.44,-23.4999 0,-4.6523 0.58,-8.9688 1.64,-12.8594 1.11,-3.9101 2.71,-7.2226 4.8,-9.9922 2.09,-2.7578 4.63,-4.8398 7.58,-6.25 2.91,-1.4375 6.17,-2.1601 9.73,-2.1601 4.74,0 8.85,1.1406 12.23,3.4531 3.37,2.3164 6.4,5.8281 9.02,10.5078 1.44,2.8399 2.99,5 4.69,6.6016 1.66,1.5703 3.71,2.3086 6.17,2.3086 2.87,0 5.31,-1.1094 7.17,-3.3985 1.95,-2.3515 2.93,-4.7812 2.93,-7.3906"
         style="fill:#ed3f1f;fill-opacity:1;fill-rule:nonzero;stroke:none"
         transform="matrix(0.13333333,0,0,-0.13333333,0,741.70667)" />
      <path
         id="path17"
         d="m 2707.44,135.41 h 2.61 v 14.91 c 0,3.961 0.1,7.129 0.32,9.391 0.19,2.269 0.72,4.191 1.7,5.84 0.89,1.668 2.24,3.07 4,4.14 1.72,1.039 3.65,1.539 5.8,1.539 3.01,0 5.74,-1.167 8.16,-3.5 1.61,-1.609 2.66,-3.5 3.09,-5.75 0.45,-2.269 0.64,-5.531 0.64,-9.691 V 135.41 h 8.74 c 3.35,0 5.93,-0.828 7.69,-2.5 1.8,-1.66 2.66,-3.769 2.66,-6.379 0,-3.332 -1.25,-5.699 -3.81,-7 -2.5,-1.312 -6.12,-1.98 -10.82,-1.98 h -4.46 V 71.9102 c 0,-3.8907 0.14,-6.8711 0.4,-8.9805 0.29,-2.1094 1.03,-3.8008 2.14,-5.0703 1.1,-1.3203 2.93,-1.9883 5.51,-1.9883 1.39,0 3.26,0.25 5.67,0.7891 2.32,0.5117 4.18,0.7617 5.54,0.7617 1.9,0 3.67,-0.8321 5.18,-2.3594 1.5,-1.6406 2.3,-3.582 2.3,-5.9727 0,-3.9804 -2.05,-7.0312 -6.25,-9.1679 -4.22,-2.1133 -10.19,-3.1602 -18,-3.1602 -7.43,0 -13.07,1.3008 -16.9,3.9102 -3.81,2.6094 -6.35,6.1797 -7.5,10.8398 -1.21,4.5977 -1.8,10.7188 -1.8,18.4102 v 47.6291 h -3.16 c -3.36,0 -5.98,0.828 -7.79,2.551 -1.82,1.679 -2.7,3.82 -2.7,6.429 0,2.61 0.94,4.719 2.79,6.379 1.92,1.672 4.65,2.5 8.25,2.5"
         style="fill:#ed3f1f;fill-opacity:1;fill-rule:nonzero;stroke:none"
         transform="matrix(0.13333333,0,0,-0.13333333,0,741.70667)" />
      <path
         id="path18"
         d="m 2834.21,87.0898 c 0,10.0704 -2.14,17.9612 -6.38,23.5902 -4.3,5.59 -9.98,8.441 -17.19,8.441 -4.65,0 -8.73,-1.281 -12.27,-3.781 -3.55,-2.539 -6.27,-6.238 -8.16,-11.149 -1.91,-4.8512 -2.89,-10.5504 -2.89,-17.1012 0,-6.4804 0.98,-12.1289 2.85,-16.9609 1.88,-4.8398 4.55,-8.5469 8.07,-11.1289 3.49,-2.5508 7.61,-3.8203 12.4,-3.8203 7.21,0 12.89,2.8008 17.19,8.4609 4.24,5.6289 6.38,13.4805 6.38,23.4492 z m 23.83,0 c 0,-7.3476 -1.09,-14.1601 -3.32,-20.4375 -2.19,-6.1718 -5.39,-11.5507 -9.55,-16.0312 -4.18,-4.5 -9.18,-7.8398 -14.96,-10.3125 -5.8,-2.3789 -12.29,-3.5469 -19.57,-3.5469 -7.23,0 -13.69,1.168 -19.41,3.6289 -5.73,2.3985 -10.73,5.8711 -14.91,10.3789 -4.2,4.5196 -7.4,9.8203 -9.55,15.9493 -2.17,6.1914 -3.24,12.9414 -3.24,20.4101 0,7.5 1.07,14.3631 3.24,20.5821 2.27,6.25 5.37,11.551 9.49,16 4.15,4.41 9.13,7.82 14.97,10.199 5.91,2.379 12.36,3.61 19.41,3.61 7.21,0 13.69,-1.231 19.57,-3.649 5.86,-2.41 10.86,-5.891 15.04,-10.371 4.14,-4.469 7.38,-9.82 9.53,-16 2.17,-6.148 3.26,-12.9805 3.26,-20.4102"
         style="fill:#ed3f1f;fill-opacity:1;fill-rule:nonzero;stroke:none"
         transform="matrix(0.13333333,0,0,-0.13333333,0,741.70667)" />
      <path
         id="path19"
         d="M 2900.35,72.4805 V 51.8516 c 0,-5.0313 -1.14,-8.8203 -3.4,-11.3516 -2.27,-2.4687 -5.14,-3.7383 -8.63,-3.7383 -3.4,0 -6.24,1.3008 -8.42,3.8008 -2.21,2.5391 -3.28,6.2891 -3.28,11.2891 v 68.9574 c 0,11.152 3.82,16.711 11.54,16.711 3.91,0 6.78,-1.34 8.53,-3.911 1.72,-2.589 2.64,-6.457 2.88,-11.527 2.83,5.07 5.76,8.938 8.75,11.527 2.98,2.571 6.95,3.911 11.91,3.911 5.04,0 9.84,-1.34 14.57,-3.911 4.67,-2.589 7.05,-6.058 7.05,-10.347 0,-3.02 -1.03,-5.551 -3.03,-7.492 -1.97,-1.95 -4.14,-2.969 -6.48,-2.969 -0.86,0 -2.97,0.578 -6.31,1.711 -3.34,1.117 -6.29,1.687 -8.85,1.687 -3.45,0 -6.29,-0.929 -8.47,-2.89 -2.21,-1.918 -3.93,-4.707 -5.16,-8.457 -1.21,-3.782 -2.09,-8.2309 -2.52,-13.4301 -0.45,-5.1406 -0.68,-11.4414 -0.68,-18.9414"
         style="fill:#ed3f1f;fill-opacity:1;fill-rule:nonzero;stroke:none"
         transform="matrix(0.13333333,0,0,-0.13333333,0,741.70667)" />
      <path
         id="path20"
         d="m 3026.83,69.1289 c 0,-6.8398 -1.6,-12.6797 -4.82,-17.5703 -3.21,-4.8789 -7.91,-8.5273 -14.14,-11.0781 -6.25,-2.4492 -13.81,-3.7188 -22.8,-3.7188 -8.45,0 -15.8,1.3672 -21.91,4.0899 -6.08,2.7304 -10.59,6.1093 -13.46,10.1875 -2.93,4.0625 -4.41,8.1601 -4.41,12.2617 0,2.7305 0.96,5.0703 2.85,6.9883 1.84,1.9726 4.2,2.9101 7.01,2.9101 2.5,0 4.43,-0.6367 5.76,-1.8867 1.35,-1.332 2.58,-3.0937 3.83,-5.3711 2.44,-4.4414 5.33,-7.7422 8.77,-9.9219 3.34,-2.207 7.99,-3.2695 13.89,-3.2695 4.72,0 8.63,1.1094 11.68,3.332 3.02,2.1875 4.61,4.7188 4.61,7.5586 0,4.3789 -1.62,7.5703 -4.75,9.5391 -3.2,2.0508 -8.38,3.9414 -15.64,5.7422 -8.17,2.1406 -14.83,4.3476 -19.97,6.6679 -5.13,2.3321 -9.29,5.4415 -12.34,9.2422 -3.07,3.7696 -4.63,8.488 -4.63,14.059 0,4.98 1.43,9.679 4.28,14.05 2.83,4.438 7.07,7.961 12.6,10.61 5.52,2.629 12.2,3.969 20.06,3.969 6.13,0 11.66,-0.688 16.58,-2.008 4.88,-1.321 9.02,-3.133 12.24,-5.352 3.29,-2.25 5.8,-4.719 7.5,-7.418 1.74,-2.773 2.58,-5.422 2.58,-8.012 0,-2.851 -0.9,-5.14 -2.75,-7.019 -1.84,-1.75 -4.45,-2.68 -7.78,-2.68 -2.46,0 -4.51,0.711 -6.25,2.199 -1.67,1.43 -3.67,3.602 -5.85,6.469 -1.8,2.43 -3.91,4.391 -6.37,5.832 -2.44,1.438 -5.74,2.18 -9.9,2.18 -4.3,0 -7.89,-0.949 -10.69,-2.871 -2.85,-1.891 -4.29,-4.281 -4.29,-7.129 0,-2.609 1.05,-4.742 3.12,-6.41 2.11,-1.66 4.9,-3.031 8.46,-4.141 3.55,-1.09 8.42,-2.4491 14.63,-3.9998 7.36,-1.8594 13.38,-4.0977 18.04,-6.7188 4.67,-2.582 8.21,-5.6406 10.61,-9.1992 2.44,-3.5703 3.65,-7.6016 3.65,-12.1133"
         style="fill:#ed3f1f;fill-opacity:1;fill-rule:nonzero;stroke:none"
         transform="matrix(0.13333333,0,0,-0.13333333,0,741.70667)" />
      <path
         id="path21"
         d="m 3053.78,36.7617 c -3.59,0 -6.7,1.168 -9.27,3.6289 -2.66,2.3985 -3.95,5.8086 -3.95,10.1407 0,3.6679 1.23,6.8593 3.69,9.5312 2.5,2.6602 5.61,3.957 9.26,3.957 3.63,0 6.76,-1.2968 9.28,-3.9375 2.62,-2.5898 3.92,-5.832 3.92,-9.5507 0,-4.2891 -1.3,-7.6719 -3.92,-10.1016 -2.52,-2.4492 -5.53,-3.668 -9.01,-3.668"
         style="fill:#ed3f1f;fill-opacity:1;fill-rule:nonzero;stroke:none"
         transform="matrix(0.13333333,0,0,-0.13333333,0,741.70667)" />
      <path
         id="path22"
         d="m 3158.78,87.0898 c 0,10.0704 -2.14,17.9612 -6.4,23.5902 -4.26,5.59 -9.96,8.441 -17.15,8.441 -4.65,0 -8.69,-1.281 -12.25,-3.781 -3.55,-2.539 -6.27,-6.238 -8.16,-11.149 -1.9,-4.8512 -2.87,-10.5504 -2.87,-17.1012 0,-6.4804 0.92,-12.1289 2.79,-16.9609 1.93,-4.8398 4.61,-8.5469 8.13,-11.1289 3.49,-2.5508 7.61,-3.8203 12.36,-3.8203 7.19,0 12.89,2.8008 17.15,8.4609 4.26,5.6289 6.4,13.4805 6.4,23.4492 z m 23.87,0 c 0,-7.3476 -1.09,-14.1601 -3.34,-20.4375 -2.21,-6.1718 -5.37,-11.5507 -9.55,-16.0312 -4.2,-4.5 -9.12,-7.8398 -14.96,-10.3125 -5.78,-2.3789 -12.3,-3.5469 -19.57,-3.5469 -7.19,0 -13.65,1.168 -19.4,3.6289 -5.74,2.3985 -10.68,5.8711 -14.88,10.3789 -4.26,4.5196 -7.42,9.8203 -9.63,15.9493 -2.13,6.1914 -3.22,12.9414 -3.22,20.4101 0,7.5 1.09,14.3631 3.3,20.5821 2.25,6.25 5.35,11.551 9.45,16 4.13,4.41 9.13,7.82 14.98,10.199 5.86,2.379 12.29,3.61 19.4,3.61 7.19,0 13.71,-1.231 19.57,-3.649 5.88,-2.41 10.88,-5.891 15.06,-10.371 4.16,-4.469 7.32,-9.82 9.53,-16 2.17,-6.148 3.26,-12.9805 3.26,-20.4102"
         style="fill:#ed3f1f;fill-opacity:1;fill-rule:nonzero;stroke:none"
         transform="matrix(0.13333333,0,0,-0.13333333,0,741.70667)" />
      <path
         id="path23"
         d="M 3224.94,72.4805 V 51.8516 c 0,-5.0313 -1.14,-8.8203 -3.38,-11.3516 -2.25,-2.4687 -5.14,-3.7383 -8.6,-3.7383 -3.47,0 -6.25,1.3008 -8.47,3.8008 -2.21,2.5391 -3.3,6.2891 -3.3,11.2891 v 68.9574 c 0,11.152 3.9,16.711 11.58,16.711 3.94,0 6.76,-1.34 8.49,-3.911 1.72,-2.589 2.74,-6.457 2.93,-11.527 2.8,5.07 5.71,8.938 8.7,11.527 2.98,2.571 6.99,3.911 11.93,3.911 5.06,0 9.9,-1.34 14.55,-3.911 4.71,-2.589 7.07,-6.058 7.07,-10.347 0,-3.02 -1.02,-5.551 -2.99,-7.492 -2.03,-1.95 -4.16,-2.969 -6.52,-2.969 -0.84,0 -2.93,0.578 -6.27,1.711 -3.34,1.117 -6.29,1.687 -8.87,1.687 -3.46,0 -6.27,-0.929 -8.53,-2.89 -2.17,-1.918 -3.89,-4.707 -5.12,-8.457 -1.19,-3.782 -2.05,-8.2309 -2.5,-13.4301 -0.45,-5.1406 -0.7,-11.4414 -0.7,-18.9414"
         style="fill:#ed3f1f;fill-opacity:1;fill-rule:nonzero;stroke:none"
         transform="matrix(0.13333333,0,0,-0.13333333,0,741.70667)" />
      <path
         id="path24"
         d="m 3293.49,87.9414 c 0,-10.0195 2.11,-17.6328 6.33,-22.7891 4.18,-5.121 9.65,-7.7304 16.27,-7.7304 3.92,0 7.69,1.1601 11.19,3.3594 3.52,2.2187 6.37,5.5312 8.59,9.9687 2.21,4.4805 3.29,9.8594 3.29,16.1992 0,10.0899 -2.15,17.9488 -6.41,23.5818 -4.24,5.668 -9.86,8.5 -16.8,8.5 -6.76,0 -12.22,-2.761 -16.29,-8.101 -4.12,-5.418 -6.17,-13.0511 -6.17,-22.9886 z m 68.83,31.4376 V 47.3594 c 0,-8.25 -0.9,-15.3281 -2.54,-21.2305 -1.68,-5.957 -4.39,-10.8476 -8.09,-14.7187 -3.71,-3.87895 -8.59,-6.73051 -14.55,-8.62895 C 3331.13,0.960938 3323.65,0 3314.74,0 c -8.2,0 -15.53,1.14844 -21.93,3.55078 -6.45,2.44922 -11.41,5.48047 -14.89,9.28902 -3.47,3.75 -5.23,7.6524 -5.23,11.6719 0,3.0274 0.98,5.4883 2.99,7.3906 1.95,1.9375 4.33,2.8868 7.11,2.8868 3.49,0 6.5,-1.6172 9.16,-4.8203 1.27,-1.6797 2.62,-3.3086 3.94,-4.9493 1.35,-1.6875 2.86,-3.1172 4.52,-4.2773 1.66,-1.2109 3.67,-2.082 5.99,-2.6602 2.27,-0.582 4.96,-0.8632 7.99,-0.8632 6.11,0 10.94,0.9101 14.3,2.6796 3.39,1.7735 5.78,4.2735 7.16,7.4727 1.31,3.2109 2.17,6.6289 2.31,10.3086 0.29,3.7109 0.45,9.5625 0.6,17.6797 -3.65,-5.2969 -7.93,-9.3672 -12.67,-12.1485 -4.77,-2.7812 -10.49,-4.1406 -17.05,-4.1406 -8.01,0 -14.96,2.0703 -20.86,6.3399 -5.98,4.2421 -10.55,10.1406 -13.73,17.8007 -3.15,7.5899 -4.79,16.3985 -4.79,26.3985 0,7.4804 0.96,14.2106 2.95,20.2106 1.9,5.95 4.65,11.012 8.3,15.129 3.56,4.121 7.74,7.231 12.42,9.332 4.73,2.059 9.83,3.117 15.49,3.117 6.7,0 12.54,-1.359 17.46,-4.066 4.98,-2.652 9.52,-6.922 13.75,-12.652 v 3.332 c 0,4.32 1.06,7.609 3.05,10.039 2.03,2.34 4.65,3.539 7.81,3.539 4.61,0 7.66,-1.551 9.18,-4.68 1.49,-3.121 2.25,-7.648 2.25,-13.531"
         style="fill:#ed3f1f;fill-opacity:1;fill-rule:nonzero;stroke:none"
         transform="matrix(0.13333333,0,0,-0.13333333,0,741.70667)" />
      <path
         id="path25"
         d="m 2333.14,360.691 h 35.23 c -2.5,-19 -10.27,-33.82 -23.22,-44.492 -11.97,-10.437 -26.48,-15.59 -43.44,-15.59 -22.99,0 -41.35,8.071 -55.04,24.211 -13.01,15.332 -19.5,35.129 -19.5,59.321 0,24.8 6.45,44.621 19.32,59.621 12.81,14.937 31,22.457 54.46,22.457 17.46,0 32.23,-4.719 44.2,-14.098 12.72,-10.121 20.47,-24.34 23.22,-42.582 h -35.23 c -3.03,15.902 -12.75,23.82 -29.28,23.82 -27.21,0 -40.87,-16.129 -40.87,-48.398 0,-15.109 3.52,-27.461 10.51,-37.09 7.01,-9.641 16.88,-14.461 29.64,-14.461 18.96,0 28.98,9.102 30,27.281 z m -138.66,22.211 c 0,-31.523 10,-58.211 29.98,-79.933 19.98,-21.758 44.41,-32.637 73.44,-32.637 28.93,0 53.4,10.879 73.36,32.637 20,21.722 29.95,48.41 29.95,79.933 0,31.508 -9.95,58.168 -29.95,79.907 -19.96,21.773 -44.43,32.64 -73.36,32.64 -29.03,0 -53.46,-10.867 -73.44,-32.64 -19.98,-21.739 -29.98,-48.399 -29.98,-79.907 z m -35.76,0 c 0,40.11 13.57,74.34 40.74,102.789 27.19,28.379 60.02,42.579 98.44,42.579 38.38,0 71.16,-14.2 98.38,-42.579 27.19,-28.449 40.8,-62.679 40.8,-102.789 0,-40.132 -13.61,-74.422 -40.8,-102.8 -27.22,-28.422 -60,-42.633 -98.38,-42.633 -38.42,0 -71.25,14.211 -98.44,42.633 -27.17,28.378 -40.74,62.668 -40.74,102.8"
         style="fill:#ed3f1f;fill-opacity:1;fill-rule:nonzero;stroke:none"
         transform="matrix(0.13333333,0,0,-0.13333333,0,741.70667)" />
      <path
         id="path26"
         d="m 2215.02,291.719 20.3,-17.219 149.3,191.691 -20.29,17.2 -149.31,-191.672"
         style="fill:#ed3f1f;fill-opacity:1;fill-rule:nonzero;stroke:none"
         transform="matrix(0.13333333,0,0,-0.13333333,0,741.70667)" />
      <path
         id="path27"
         d="m 3074.41,3640.02 c 1229.74,0 2215.66,-593.22 2202.17,-1325.01 C 5263.06,1583.2 4255.23,989.949 3025.49,989.949 1795.78,989.949 809.801,1583.2 823.316,2315.01 836.832,3046.8 1844.66,3640.02 3074.41,3640.02"
         style="fill:#d7c9c4;fill-opacity:1;fill-rule:evenodd;stroke:none"
         transform="matrix(0.13333333,0,0,-0.13333333,0,741.70667)" />
      <path
         id="path28"
         d="M 1264.93,1479.78 C 540.25,1556.5 -15.4883,2260.58 0.332031,3117.94 10.4609,3667.01 252.75,4153.2 616.723,4452.05 c 265.304,429.96 700.687,711.79 1187.997,711.79 187.17,0 365.11,-41.62 527.48,-117.19 157.54,67.82 327.51,105.06 504.37,105.06 491.6,0 919.83,-286.77 1168.34,-723.14 437.45,-279.32 727.63,-821.32 716.14,-1444.2 C 4704.96,2112.75 4103.99,1399.54 3359.52,1342.91 3097.29,1055.07 2743.49,877.77 2357,877.77 c -444.53,0 -837.22,234.48 -1092.07,602.01"
         style="fill:#ed3f1f;fill-opacity:1;fill-rule:evenodd;stroke:none"
         transform="matrix(0.13333333,0,0,-0.13333333,0,741.70667)" />
      <path
         id="path29"
         d="m 1264.93,1479.78 c -203.79,21.58 -394.242,92.76 -562.356,203.03 -263.097,782.89 95.41,1914.68 695.486,2426.4 -17.8,-46.6 232.81,-158.85 185.86,-181.25 C 830.824,3568.48 1070.39,2148.85 1381.67,1369.77 l -11,-25.79 c -37.43,42.88 -72.75,88.21 -105.74,135.8"
         style="fill:#df3721;fill-opacity:1;fill-rule:evenodd;stroke:none"
         transform="matrix(0.13333333,0,0,-0.13333333,0,741.70667)" />
      <path
         id="path30"
         d="m 3482.08,4972.03 c 212.54,-126.77 392.44,-314.5 522.83,-543.46 437.45,-279.32 727.63,-821.32 716.14,-1444.2 C 4704.96,2112.75 4103.99,1399.54 3359.52,1342.91 3097.29,1055.07 2743.49,877.77 2357,877.77 c -55.99,0 -111.17,3.73 -165.35,10.96 l -165.37,176.99 c 1833.16,54.04 1200.07,3559.35 -680.98,2784.75 95.54,108.91 191.09,217.79 286.65,326.72 133.98,131.54 267.93,263.08 401.9,394.61 2.07,12.57 4.17,25.13 6.24,37.7 l 1441.99,362.53"
         style="fill:#df3721;fill-opacity:1;fill-rule:evenodd;stroke:none"
         transform="matrix(0.13333333,0,0,-0.13333333,0,741.70667)" />
      <path
         id="path31"
         d="m 616.723,4452.05 c 265.304,429.96 700.687,711.79 1187.997,711.79 187.17,0 365.11,-41.62 527.48,-117.19 157.54,67.82 327.51,105.06 504.37,105.06 491.6,0 919.83,-286.77 1168.34,-723.14 437.45,-279.32 727.63,-821.32 716.14,-1444.2 C 4704.96,2112.75 4103.99,1399.54 3359.52,1342.91 3097.29,1055.07 2743.49,877.77 2357,877.77 c -444.53,0 -837.22,234.48 -1092.07,602.01 722.5,-754.178 1795.43,-406.1 1968.5,175.06 1614.35,421.25 1076.82,2980.68 -539.8,2659.07 409.13,-118.43 474.32,-425.48 452.21,-825.65 -389.91,836.72 -1720.53,810 -2008.34,60.72 34.18,593.99 377.26,873.27 890.56,886.35 -456.19,777.4 -1037.314,438.82 -1411.337,16.72"
         style="fill:#c23122;fill-opacity:1;fill-rule:evenodd;stroke:none"
         transform="matrix(0.13333333,0,0,-0.13333333,0,741.70667)" />
      <path
         id="path32"
         d="M 4066.26,4386.95 C 4469.25,4097.53 4732,3577.65 4721.05,2984.37 4704.96,2112.75 4103.99,1399.54 3359.52,1342.91 3097.29,1055.07 2743.49,877.77 2357,877.77 c -137.41,0 -269.86,22.429 -394.81,64.242 505.52,-109.903 952.76,59.268 1346.73,483.458 1289.62,163.59 1724.59,1949.99 757.34,2961.48"
         style="fill:#a82b21;fill-opacity:1;fill-rule:evenodd;stroke:none"
         transform="matrix(0.13333333,0,0,-0.13333333,0,741.70667)" />
      <path
         id="path33"
         d="m 3880.21,4615.76 c 45.39,-58.66 87.11,-121.23 124.7,-187.19 -360.33,261.85 -724.56,310.56 -1091.6,208.18 328.56,138.8 652.58,172.09 966.9,-20.99"
         style="fill:#9e281f;fill-opacity:1;fill-rule:evenodd;stroke:none"
         transform="matrix(0.13333333,0,0,-0.13333333,0,741.70667)" />
      <path
         id="path34"
         d="M 251.449,2156.61 C 87.2852,2427.02 -6.30078,2759.03 0.332031,3117.94 10.4609,3667.01 252.75,4153.2 616.723,4452.05 128.801,3905.41 -92.5117,3006.76 251.449,2156.61"
         style="fill:#f9ab87;fill-opacity:1;fill-rule:evenodd;stroke:none"
         transform="matrix(0.13333333,0,0,-0.13333333,0,741.70667)" />
      <path
         id="path35"
         d="m 2052.01,3178.65 c 410.74,0 736.1,-411.8 726.74,-919.77 -9.37,-507.94 -349.96,-919.73 -760.67,-919.73 -410.74,0 -736.08,411.79 -726.72,919.73 9.37,507.97 349.93,919.77 760.65,919.77"
         style="fill:#f25c27;fill-opacity:1;fill-rule:evenodd;stroke:none"
         transform="matrix(0.13333333,0,0,-0.13333333,0,741.70667)" />
      <path
         id="path36"
         d="m 2001.5,4333 c -614.15,326.27 -1231.66,468.8 -1858.066,131.1 444.043,396.97 1069.476,498.96 1781.746,193.2 -29.76,605.63 -207.63,786.17 -387.77,815.4 246.19,57.21 485.15,-60.74 699.64,-772.82 446.34,642.09 807.3,925.39 1083.26,851.42 -329.14,-7.73 -577.61,-387.38 -777.98,-988.96 711.82,211.2 1209.17,15.87 1414.22,-733.53 -277.7,690.7 -872.87,705.11 -1569.09,504.31 -355.15,-205.33 187.38,-604.6 -422.95,-1270.59 306.71,620.24 -212.33,1069.53 36.99,1270.47"
         style="fill:#87b027;fill-opacity:1;fill-rule:evenodd;stroke:none"
         transform="matrix(0.13333333,0,0,-0.13333333,0,741.70667)" />
      <path
         id="path37"
         d="m 3956.55,3828.81 c -219.34,691.12 -871.36,852.93 -1622.89,604.18 -365.52,-511.56 150.31,-550.15 -369.15,-1370.46 610.33,665.99 67.8,1065.26 422.95,1270.59 696.22,200.8 1291.39,186.39 1569.09,-504.31 z M 3299.4,5556.12 c -327.09,18.54 -631.84,-470.7 -934.22,-1013.4 59.05,6.52 118.1,13.08 177.15,19.62 195.18,586.09 436.09,961.45 752.72,987.55 l 4.68,6.15 -0.33,0.08 z M 1925.15,4657.3 c 49.86,-20.73 99.71,-41.46 149.54,-62.21 -81.65,500.37 -228.29,862.14 -537.26,877.61 180.12,-29.23 357.99,-209.77 387.72,-815.4 z M 2001.5,4333 c 38.48,22.41 76.95,44.82 115.43,67.25 C 1449.58,4735.18 789.047,4845.39 143.434,4464.1 769.84,4801.8 1387.37,4659.27 2001.5,4333 Z m 146.95,205.53 -57.83,321.77 123.13,-318.73 176.65,277.74 -107.57,-318.73 161.22,18.23 -186.32,-60.72 -126.51,-195.78 49.24,201.85 -259.16,103.22 227.15,-28.85 v 0"
         style="fill:#769a2a;fill-opacity:1;fill-rule:evenodd;stroke:none"
         transform="matrix(0.13333333,0,0,-0.13333333,0,741.70667)" />
      <path
         id="path38"
         d="m 1264.93,1479.78 c -58.82,6.23 -116.49,16.64 -172.85,30.87 -230.385,543.32 -306.471,1324.1 -21.54,1853.13 -207.899,-619.34 -29.42,-1448.05 194.39,-1884 z m 1968.5,175.06 c 202.82,376.36 196.15,864.03 94.31,1402.36 214.22,-510.58 296.39,-991 155.92,-1420.61 -83.42,6.09 -166.83,12.17 -250.23,18.25 v 0"
         style="fill:#c23122;fill-opacity:1;fill-rule:evenodd;stroke:none"
         transform="matrix(0.13333333,0,0,-0.13333333,0,741.70667)" />
    </g>
  </g>
</svg>
