<?xml version="1.0" encoding="UTF-8" standalone="no"?>
<!-- Created with Inkscape (http://www.inkscape.org/) -->

<svg
   version="1.1"
   id="svg1"
   width="546.54669"
   height="813.25336"
   viewBox="0 0 546.54669 813.25336"
   sodipodi:docname="woman-in-predicament.svg"
   inkscape:version="1.4 (e7c3feb100, 2024-10-09)"
   xmlns:inkscape="http://www.inkscape.org/namespaces/inkscape"
   xmlns:sodipodi="http://sodipodi.sourceforge.net/DTD/sodipodi-0.dtd"
   xmlns="http://www.w3.org/2000/svg"
   xmlns:svg="http://www.w3.org/2000/svg">
  <defs
     id="defs1" />
  <sodipodi:namedview
     id="namedview1"
     pagecolor="#505050"
     bordercolor="#ffffff"
     borderopacity="1"
     inkscape:showpageshadow="0"
     inkscape:pageopacity="0"
     inkscape:pagecheckerboard="1"
     inkscape:deskcolor="#d1d1d1"
     inkscape:zoom="1.0021477"
     inkscape:cx="273.41278"
     inkscape:cy="406.62668"
     inkscape:window-width="1920"
     inkscape:window-height="1002"
     inkscape:window-x="0"
     inkscape:window-y="0"
     inkscape:window-maximized="1"
     inkscape:current-layer="g1">
    <inkscape:page
       x="0"
       y="0"
       inkscape:label="1"
       id="page1"
       width="546.54669"
       height="813.25336"
       margin="0"
       bleed="0" />
  </sodipodi:namedview>
  <g
     id="g1"
     inkscape:groupmode="layer"
     inkscape:label="1">
    <g
       id="group-R5">
      <path
         id="path2"
         d="m 743.637,100.27 c 0,7.519 -1.074,14 -3.305,19.3 -2.156,5.391 -5.195,9.539 -9.102,12.469 -3.89,2.84 -8.179,4.301 -12.914,4.301 -7.496,0 -13.836,-3.16 -18.992,-9.289 -5.152,-6.211 -7.73,-15.262 -7.73,-27.2619 0,-11.3203 2.578,-20.1094 7.652,-26.3086 5.156,-6.3086 11.52,-9.4688 19.07,-9.4688 4.504,0 8.731,1.3672 12.59,4.1485 3.801,2.7304 6.903,6.8281 9.239,12.2617 2.351,5.5273 3.492,12.0976 3.492,19.8481 z m -53.309,41.378 v -3.418 c 5.106,6.54 10.395,11.442 15.902,14.481 5.532,3.109 11.817,4.668 18.797,4.668 8.352,0 16.063,-2.27 23.11,-6.777 7.023,-4.512 12.582,-11.063 16.691,-19.774 4.082,-8.68 6.09,-18.91 6.09,-30.777 0,-8.7112 -1.137,-16.8322 -3.5,-24.0393 -2.352,-7.3203 -5.602,-13.5117 -9.707,-18.4531 -4.121,-4.9492 -9.023,-8.7891 -14.598,-11.418 -5.64,-2.7187 -11.691,-4.0312 -18.086,-4.0312 -7.808,0 -14.339,1.6211 -19.617,4.8906 -5.328,3.25 -10.328,8 -15.082,14.3203 V 18.7305 C 690.328,6.23047 685.969,0 677.266,0 c -5.114,0 -8.528,1.60156 -10.137,4.80078 -1.68,3.23828 -2.5,7.94922 -2.5,14.09762 V 141.461 c 0,5.398 1.09,9.449 3.375,12.109 2.293,2.649 5.371,4.012 9.262,4.012 3.855,0 6.996,-1.363 9.414,-4.141 2.418,-2.75 3.648,-6.703 3.648,-11.793"
         style="fill:#100f0d;fill-opacity:1;fill-rule:nonzero;stroke:none"
         transform="matrix(0.13333333,0,0,-0.13333333,0,813.25333)" />
      <path
         id="path3"
         d="m 863.461,58.168 v 3.582 c -3.27,-4.2812 -6.684,-7.8711 -10.281,-10.7695 -3.59,-2.961 -7.504,-5.1094 -11.739,-6.5 -4.293,-1.4219 -9.132,-2.1407 -14.582,-2.1407 -6.539,0 -12.433,1.4297 -17.664,4.25 -5.226,2.8282 -9.273,6.7618 -12.086,11.7383 -3.441,6.043 -5.093,14.711 -5.093,25.9727 V 140.57 c 0,5.649 1.226,9.918 3.691,12.719 2.461,2.801 5.699,4.211 9.738,4.211 4.133,0 7.438,-1.41 9.977,-4.281 2.527,-2.848 3.773,-7.078 3.773,-12.649 V 95.0898 c 0,-6.5312 0.524,-12.0781 1.559,-16.5117 1.109,-4.4883 3.016,-7.9883 5.801,-10.5586 2.699,-2.4882 6.453,-3.7578 11.164,-3.7578 4.636,0 8.937,1.4375 12.961,4.2696 4.086,2.8085 7.05,6.5078 8.89,11.0898 1.528,4.0273 2.285,12.8281 2.285,26.4099 v 34.539 c 0,5.571 1.258,9.801 3.809,12.649 2.5,2.871 5.746,4.281 9.828,4.281 4.059,0 7.305,-1.41 9.766,-4.211 2.43,-2.801 3.637,-7.07 3.637,-12.719 V 58.3281 c 0,-5.3984 -1.125,-9.4687 -3.489,-12.1367 -2.336,-2.7422 -5.371,-4.0625 -9.105,-4.0625 -3.707,0 -6.766,1.4414 -9.211,4.1719 -2.418,2.8476 -3.629,6.7383 -3.629,11.8672"
         style="fill:#100f0d;fill-opacity:1;fill-rule:nonzero;stroke:none"
         transform="matrix(0.13333333,0,0,-0.13333333,0,813.25333)" />
      <path
         id="path4"
         d="m 942.363,99.1484 c 0,-11.289 2.457,-19.9375 7.383,-26.0273 4.973,-6.043 11.469,-9.1094 19.524,-9.1094 6.847,0 12.703,3.1172 17.687,9.3086 4.977,6.2305 7.453,15.0586 7.453,26.6602 0,7.5585 -1.043,13.9685 -3.105,19.3595 -2.082,5.441 -5.02,9.621 -8.766,12.539 -3.844,2.941 -8.203,4.461 -13.269,4.461 -5.231,0 -9.774,-1.52 -13.856,-4.461 -4.082,-2.918 -7.238,-7.207 -9.586,-12.801 -2.328,-5.539 -3.465,-12.16 -3.465,-19.9296 z m -1.289,84.3826 v -43.39 c 5.047,5.597 10.297,9.8 15.602,12.808 5.32,2.93 11.922,4.43 19.742,4.43 9.047,0 16.949,-2.27 23.762,-6.688 6.8,-4.55 12.11,-10.992 15.85,-19.48 3.78,-8.481 5.64,-18.563 5.64,-30.199 0,-8.6136 -1.04,-16.4807 -3.11,-23.7112 -2.1,-7.1406 -5.11,-13.332 -9.12,-18.6602 -4.02,-5.2422 -8.86,-9.2695 -14.506,-12.25 -5.711,-2.8203 -11.969,-4.2812 -18.805,-4.2812 -4.149,0 -8.121,0.5312 -11.828,1.5508 -3.676,1.0507 -6.844,2.4101 -9.367,4.1601 -2.633,1.5977 -4.84,3.4102 -6.676,5.168 -1.813,1.8398 -4.203,4.5117 -7.184,8.1211 v -2.7813 c 0,-5.3593 -1.261,-9.3867 -3.719,-12.1367 -2.429,-2.7422 -5.601,-4.082 -9.347,-4.082 -3.875,0 -6.93,1.3398 -9.254,4.082 -2.266,2.8086 -3.406,6.7969 -3.406,12.1367 V 182.301 c 0,5.711 1.101,10.07 3.359,13.008 2.211,2.961 5.285,4.421 9.301,4.421 4.164,0 7.398,-1.402 9.629,-4.23 2.285,-2.781 3.437,-6.762 3.437,-11.969"
         style="fill:#100f0d;fill-opacity:1;fill-rule:nonzero;stroke:none"
         transform="matrix(0.13333333,0,0,-0.13333333,0,813.25333)" />
      <path
         id="path5"
         d="M 1040.86,59.3906 V 182.48 c 0,5.711 1.21,9.981 3.6,12.911 2.47,2.879 5.73,4.339 9.85,4.339 4.12,0 7.42,-1.41 9.96,-4.308 2.48,-2.863 3.8,-7.211 3.8,-12.942 V 59.3906 c 0,-5.7617 -1.32,-10.1015 -3.87,-13 -2.53,-2.8203 -5.85,-4.2812 -9.89,-4.2812 -3.99,0 -7.19,1.5 -9.7,4.4804 -2.5,2.9805 -3.75,7.2305 -3.75,12.8008"
         style="fill:#100f0d;fill-opacity:1;fill-rule:nonzero;stroke:none"
         transform="matrix(0.13333333,0,0,-0.13333333,0,813.25333)" />
      <path
         id="path6"
         d="M 1123.33,141.379 V 59.3906 c 0,-5.7187 -1.32,-10.0195 -3.85,-12.9297 -2.61,-2.8515 -5.92,-4.3515 -9.87,-4.3515 -4,0 -7.25,1.5 -9.72,4.4492 -2.47,3.0117 -3.76,7.2617 -3.76,12.832 V 140.57 c 0,5.571 1.29,9.801 3.76,12.649 2.47,2.871 5.72,4.281 9.72,4.281 3.95,0 7.26,-1.41 9.87,-4.281 2.53,-2.848 3.85,-6.778 3.85,-11.84 z m -13.45,29.351 c -3.79,0 -6.99,1.211 -9.75,3.7 -2.62,2.41 -4,5.871 -4,10.32 0,3.988 1.38,7.281 4.15,9.922 2.76,2.609 5.95,3.828 9.6,3.828 3.52,0 6.66,-1.141 9.37,-3.488 2.71,-2.352 4.08,-5.821 4.08,-10.262 0,-4.41 -1.33,-7.82 -3.99,-10.238 -2.67,-2.461 -5.78,-3.782 -9.46,-3.782"
         style="fill:#100f0d;fill-opacity:1;fill-rule:nonzero;stroke:none"
         transform="matrix(0.13333333,0,0,-0.13333333,0,813.25333)" />
      <path
         id="path7"
         d="m 1248.86,77.2617 c 0,-3.5234 -1,-7.3125 -3.02,-11.3398 -2.05,-4.0117 -5.13,-7.8203 -9.3,-11.4727 -4.12,-3.6289 -9.36,-6.5508 -15.67,-8.75 -6.3,-2.2773 -13.43,-3.3594 -21.31,-3.3594 -16.82,0 -29.93,5.129 -39.37,15.3321 -9.41,10.2265 -14.14,23.8984 -14.14,41.0976 0,11.6405 2.15,21.9685 6.45,30.8785 4.31,8.891 10.61,15.864 18.75,20.723 8.14,4.918 17.94,7.359 29.26,7.359 7.07,0 13.54,-1.101 19.42,-3.218 5.87,-2.172 10.85,-4.953 14.93,-8.313 4.09,-3.41 7.2,-7.051 9.37,-10.859 2.18,-3.84 3.23,-7.442 3.23,-10.77 0,-3.351 -1.23,-6.242 -3.63,-8.609 -2.44,-2.383 -5.34,-3.539 -8.81,-3.539 -2.28,0 -4.13,0.648 -5.66,1.859 -1.45,1.168 -3.14,3.078 -5.02,5.84 -3.3,5.25 -6.8,9.231 -10.41,11.918 -3.63,2.602 -8.23,3.953 -13.76,3.953 -8.09,0 -14.56,-3.332 -19.46,-9.871 -4.93,-6.582 -7.36,-15.539 -7.36,-26.9101 0,-5.3007 0.63,-10.2695 1.91,-14.6992 1.25,-4.5 3.07,-8.2929 5.45,-11.4726 2.4,-3.1485 5.26,-5.5274 8.67,-7.1602 3.38,-1.6601 7.11,-2.4492 11.13,-2.4492 5.49,0 10.13,1.2891 14.02,3.9297 3.9,2.6601 7.34,6.6914 10.31,12.0312 1.67,3.2696 3.46,5.7383 5.39,7.5703 1.95,1.8008 4.31,2.6602 7.09,2.6602 3.31,0 6.07,-1.2813 8.29,-3.9102 2.14,-2.6992 3.25,-5.4726 3.25,-8.4492"
         style="fill:#100f0d;fill-opacity:1;fill-rule:nonzero;stroke:none"
         transform="matrix(0.13333333,0,0,-0.13333333,0,813.25333)" />
      <path
         id="path8"
         d="m 1293.66,99.9805 c 0,-7.6992 1.14,-14.1992 3.42,-19.6407 2.31,-5.4179 5.41,-9.4492 9.39,-12.1796 4.01,-2.7813 8.37,-4.1485 13.04,-4.1485 4.8,0 9.16,1.3281 13.1,3.8867 3.98,2.6133 7.09,6.6329 9.48,11.9922 2.37,5.3477 3.54,12.0782 3.54,20.0899 0,7.6015 -1.17,14.0585 -3.54,19.5315 -2.39,5.449 -5.55,9.597 -9.56,12.527 -4.02,2.84 -8.4,4.301 -13.18,4.301 -4.97,0 -9.41,-1.52 -13.35,-4.461 -3.89,-2.918 -6.97,-7.199 -9.12,-12.707 -2.13,-5.524 -3.22,-11.863 -3.22,-19.1915 z m 53.46,-41.6524 v 2.7813 c -3.66,-4.3711 -7.26,-7.9102 -10.86,-10.6094 -3.49,-2.7695 -7.36,-4.8398 -11.51,-6.2695 -4.14,-1.3789 -8.68,-2.1211 -13.58,-2.1211 -6.5,0 -12.57,1.4609 -18.09,4.2812 -5.53,2.9805 -10.32,7.0313 -14.38,12.3594 -4.04,5.3516 -7.11,11.6211 -9.22,18.8516 -2.12,7.1797 -3.14,14.9804 -3.14,23.4104 0,17.699 4.16,31.59 12.46,41.5 8.32,9.918 19.23,14.867 32.76,14.867 7.83,0 14.45,-1.43 19.82,-4.289 5.37,-2.762 10.63,-7.078 15.74,-12.949 v 41.918 c 0,5.839 1.1,10.23 3.34,13.203 2.22,3 5.36,4.468 9.49,4.468 4.11,0 7.28,-1.378 9.53,-4.082 2.21,-2.726 3.36,-6.777 3.36,-12.117 V 58.3281 c 0,-5.3984 -1.21,-9.4687 -3.61,-12.1367 -2.4,-2.7422 -5.46,-4.082 -9.28,-4.082 -3.68,0 -6.79,1.4023 -9.22,4.1914 -2.4,2.8086 -3.61,6.7812 -3.61,12.0273"
         style="fill:#100f0d;fill-opacity:1;fill-rule:nonzero;stroke:none"
         transform="matrix(0.13333333,0,0,-0.13333333,0,813.25333)" />
      <path
         id="path9"
         d="m 1474.65,99.75 c 0,11.531 -2.48,20.578 -7.34,27.02 -4.88,6.41 -11.46,9.66 -19.68,9.66 -5.34,0 -10,-1.45 -14.06,-4.321 -4.04,-2.918 -7.15,-7.148 -9.35,-12.769 -2.18,-5.559 -3.3,-12.07 -3.3,-19.59 0,-7.4297 1.12,-13.8906 3.24,-19.4102 2.15,-5.5507 5.25,-9.8007 9.3,-12.75 4,-2.9414 8.76,-4.3789 14.17,-4.3789 8.22,0 14.8,3.211 19.68,9.6875 4.86,6.4532 7.34,15.4414 7.34,26.8516 z m 27.28,0 c 0,-8.4102 -1.28,-16.2109 -3.79,-23.3984 -2.52,-7.0821 -6.17,-13.2305 -10.92,-18.3828 -4.82,-5.129 -10.53,-8.9688 -17.16,-11.7774 -6.64,-2.7422 -14.17,-4.082 -22.43,-4.082 -8.22,0 -15.64,1.3398 -22.19,4.1523 -6.58,2.7696 -12.31,6.7266 -17.12,11.9063 -4.79,5.1718 -8.43,11.2304 -10.96,18.2617 -2.48,7.082 -3.72,14.8086 -3.72,23.3711 0,8.5902 1.28,16.4492 3.77,23.5582 2.53,7.18 6.13,13.243 10.86,18.332 4.72,5.047 10.42,8.95 17.17,11.68 6.72,2.75 14.08,4.129 22.19,4.129 8.25,0 15.72,-1.379 22.43,-4.172 6.68,-2.758 12.43,-6.75 17.21,-11.867 4.81,-5.121 8.43,-11.262 10.87,-18.332 2.55,-7.051 3.79,-14.848 3.79,-23.379"
         style="fill:#100f0d;fill-opacity:1;fill-rule:nonzero;stroke:none"
         transform="matrix(0.13333333,0,0,-0.13333333,0,813.25333)" />
      <path
         id="path10"
         d="m 1616.79,123.199 c -2.04,-4.801 -3.01,-13.258 -3.01,-25.4607 V 60.0195 c 0,-5.9297 -1.27,-10.4492 -3.89,-13.4297 -2.58,-2.9804 -6.04,-4.4804 -10.29,-4.4804 -4.08,0 -7.41,1.5 -9.95,4.4804 -2.56,2.9805 -3.81,7.5 -3.81,13.4297 v 45.2815 c 0,7.121 -0.27,12.64 -0.74,16.648 -0.47,3.903 -1.72,7.172 -3.78,9.699 -2.02,2.551 -5.29,3.813 -9.72,3.813 -8.9,0 -14.75,-3.191 -17.6,-9.609 -2.84,-6.34 -4.19,-15.5 -4.19,-27.4536 V 60.0195 c 0,-5.9179 -1.31,-10.3906 -3.83,-13.3398 -2.59,-3.0703 -5.96,-4.5703 -10.09,-4.5703 -4.15,0 -7.56,1.5 -10.16,4.5703 -2.65,2.9492 -3.89,7.4219 -3.89,13.332 V 141.23 c 0,5.348 1.12,9.411 3.45,12.168 2.4,2.762 5.5,4.184 9.38,4.184 3.71,0 6.82,-1.293 9.29,-3.891 2.49,-2.589 3.73,-6.171 3.73,-10.761 v -2.692 c 4.7,5.903 9.77,10.242 15.12,12.981 5.37,2.773 11.42,4.16 17.94,4.16 6.82,0 12.68,-1.43 17.59,-4.289 4.94,-2.809 8.97,-7.121 12.14,-12.852 4.59,5.774 9.51,10.133 14.77,12.93 5.25,2.824 11.05,4.211 17.4,4.211 7.5,0 13.89,-1.5 19.23,-4.59 5.4,-3.047 9.4,-7.398 12.07,-13.09 2.34,-5.129 3.48,-13.199 3.48,-24.25 V 60.0195 c 0,-5.9297 -1.29,-10.4492 -3.84,-13.4297 -2.65,-2.9804 -6.03,-4.4804 -10.29,-4.4804 -4.13,0 -7.49,1.5 -10.1,4.5703 -2.65,2.9492 -3.97,7.4219 -3.97,13.3398 v 47.7695 c 0,6.102 -0.24,10.973 -0.72,14.66 -0.51,3.711 -1.86,6.742 -4.07,9.25 -2.18,2.5 -5.52,3.762 -9.93,3.762 -3.58,0 -7.01,-1.121 -10.17,-3.289 -3.28,-2.242 -5.72,-5.223 -7.55,-8.973 v 0"
         style="fill:#100f0d;fill-opacity:1;fill-rule:nonzero;stroke:none"
         transform="matrix(0.13333333,0,0,-0.13333333,0,813.25333)" />
      <path
         id="path11"
         d="m 1770.81,99.2109 c -4.01,-1.5625 -9.81,-3.1211 -17.41,-4.8515 -7.61,-1.6992 -12.88,-2.9375 -15.8,-3.75 -2.93,-0.8203 -5.72,-2.3594 -8.34,-4.6602 -2.69,-2.3906 -4.03,-5.6094 -4.03,-9.7695 0,-4.3399 1.59,-7.9609 4.67,-10.9883 3.15,-3.0625 7.24,-4.5312 12.29,-4.5312 5.37,0 10.36,1.25 14.89,3.7109 4.55,2.4375 7.92,5.6484 10,9.5 2.47,4.3203 3.73,11.3672 3.73,21.3008 z m 1.76,-41.1093 c -6.59,-5.3516 -12.94,-9.3321 -19.08,-11.961 -6.12,-2.7187 -13.05,-4.0312 -20.65,-4.0312 -7.02,0 -13.09,1.4609 -18.41,4.2812 -5.31,2.8985 -9.34,6.8086 -12.21,11.7774 -2.83,4.914 -4.29,10.1914 -4.29,15.9804 0,7.7696 2.42,14.3633 7.12,19.8516 4.67,5.4492 11.14,9.129 19.37,11.012 1.73,0.418 6.04,1.32 12.84,2.777 6.91,1.492 12.72,2.793 17.67,4 4.84,1.191 10.16,2.68 15.88,4.402 -0.36,7.52 -1.79,13 -4.33,16.579 -2.59,3.46 -7.93,5.171 -15.91,5.171 -6.95,0 -12.11,-0.972 -15.65,-2.98 -3.46,-1.992 -6.47,-5.031 -8.92,-9.109 -2.53,-3.993 -4.25,-6.661 -5.28,-7.922 -1.06,-1.309 -3.28,-1.891 -6.61,-1.891 -3.1,0 -5.72,1.012 -7.92,3.031 -2.25,2.059 -3.36,4.641 -3.36,7.879 0,4.969 1.7,9.86 5.07,14.512 3.39,4.738 8.68,8.598 15.84,11.707 7.17,3.051 16.13,4.562 26.83,4.562 11.92,0 21.33,-1.511 28.22,-4.441 6.82,-2.918 11.6,-7.551 14.45,-13.98 2.84,-6.34 4.24,-14.829 4.24,-25.36 0,-6.64 0,-12.328 -0.04,-16.9373 -0.05,-4.6914 -0.08,-9.8398 -0.15,-15.5234 0,-5.3086 0.84,-10.8985 2.56,-16.6602 1.65,-5.789 2.49,-9.5273 2.49,-11.1562 0,-2.9219 -1.32,-5.5899 -3.93,-7.9727 -2.57,-2.3789 -5.58,-3.5898 -8.87,-3.5898 -2.84,0 -5.54,1.3398 -8.3,4.082 -2.72,2.75 -5.61,6.7383 -8.67,11.9102"
         style="fill:#100f0d;fill-opacity:1;fill-rule:nonzero;stroke:none"
         transform="matrix(0.13333333,0,0,-0.13333333,0,813.25333)" />
      <path
         id="path12"
         d="M 1852.3,141.379 V 59.3906 c 0,-5.7187 -1.3,-10.0195 -3.85,-12.9297 -2.59,-2.8515 -5.85,-4.3515 -9.85,-4.3515 -3.98,0 -7.26,1.5 -9.71,4.4492 -2.53,3.0117 -3.78,7.2617 -3.78,12.832 V 140.57 c 0,5.571 1.25,9.801 3.78,12.649 2.45,2.871 5.73,4.281 9.71,4.281 4,0 7.26,-1.41 9.85,-4.281 2.55,-2.848 3.85,-6.778 3.85,-11.84 z m -13.44,29.351 c -3.74,0 -6.97,1.211 -9.66,3.7 -2.69,2.41 -4.09,5.871 -4.09,10.32 0,3.988 1.41,7.281 4.18,9.922 2.73,2.609 5.96,3.828 9.57,3.828 3.54,0 6.69,-1.141 9.42,-3.488 2.68,-2.352 4.02,-5.821 4.02,-10.262 0,-4.41 -1.3,-7.82 -3.97,-10.238 -2.66,-2.461 -5.81,-3.782 -9.47,-3.782"
         style="fill:#100f0d;fill-opacity:1;fill-rule:nonzero;stroke:none"
         transform="matrix(0.13333333,0,0,-0.13333333,0,813.25333)" />
      <path
         id="path13"
         d="m 1905.16,141.789 v -3.391 c 4.75,6.571 9.97,11.403 15.61,14.481 5.69,3.07 12.23,4.621 19.63,4.621 7.13,0 13.57,-1.621 19.26,-4.91 5.58,-3.238 9.83,-7.82 12.59,-13.758 1.81,-3.492 2.94,-7.273 3.51,-11.281 0.49,-3.973 0.8,-9.11 0.8,-15.371 V 59.3906 c 0,-5.7187 -1.29,-10.0195 -3.76,-12.9297 -2.5,-2.8515 -5.74,-4.3515 -9.7,-4.3515 -4.05,0 -7.36,1.5 -9.78,4.4804 -2.56,2.9805 -3.86,7.2305 -3.86,12.8008 v 47.2574 c 0,9.411 -1.21,16.551 -3.69,21.493 -2.54,4.949 -7.52,7.468 -14.96,7.468 -4.83,0 -9.24,-1.531 -13.22,-4.558 -3.98,-2.981 -6.9,-7.141 -8.75,-12.422 -1.34,-4.231 -2.03,-12.09 -2.03,-23.7384 v -35.5 c 0,-5.7617 -1.25,-10.1015 -3.83,-13 -2.56,-2.8203 -5.87,-4.2812 -9.9,-4.2812 -3.89,0 -7.14,1.5 -9.65,4.4492 -2.57,3.0117 -3.8,7.2617 -3.8,12.832 v 81.9884 c 0,5.43 1.11,9.43 3.41,12.101 2.2,2.68 5.37,4.02 9.26,4.02 2.35,0 4.55,-0.629 6.44,-1.762 1.98,-1.168 3.47,-2.988 4.64,-5.258 1.13,-2.41 1.78,-5.289 1.78,-8.691"
         style="fill:#100f0d;fill-opacity:1;fill-rule:nonzero;stroke:none"
         transform="matrix(0.13333333,0,0,-0.13333333,0,813.25333)" />
      <path
         id="path14"
         d="m 2020.21,139.84 21.96,-64.4416 23.72,67.2496 c 1.88,5.422 3.7,9.204 5.52,11.473 1.82,2.238 4.5,3.379 8.13,3.379 3.46,0 6.39,-1.211 8.87,-3.68 2.37,-2.398 3.59,-5.16 3.59,-8.429 0,-1.231 -0.23,-2.661 -0.66,-4.282 -0.39,-1.699 -0.89,-3.257 -1.49,-4.757 -0.56,-1.391 -1.15,-3.082 -1.94,-4.942 l -26.08,-67.5702 c -0.74,-1.9296 -1.7,-4.4218 -2.84,-7.4101 -1.18,-2.9688 -2.5,-5.4609 -3.88,-7.6602 -1.47,-2.0898 -3.21,-3.6875 -5.28,-4.8789 -2.12,-1.1797 -4.67,-1.7812 -7.66,-1.7812 -3.85,0 -6.91,0.9101 -9.23,2.7187 -2.29,1.8516 -3.98,3.8438 -5.07,6.0703 -1.07,2.1407 -2.96,6.4922 -5.52,12.9414 l -25.92,66.8402 c -0.6,1.629 -1.24,3.308 -1.89,4.98 -0.59,1.66 -1.08,3.32 -1.55,5.09 -0.42,1.762 -0.67,3.25 -0.67,4.441 0,1.981 0.57,3.899 1.72,5.801 1.14,1.918 2.7,3.496 4.68,4.676 2.02,1.203 4.13,1.832 6.5,1.832 4.48,0 7.59,-1.34 9.3,-4.102 1.7,-2.668 3.61,-7.199 5.69,-13.558"
         style="fill:#100f0d;fill-opacity:1;fill-rule:nonzero;stroke:none"
         transform="matrix(0.13333333,0,0,-0.13333333,0,813.25333)" />
      <path
         id="path15"
         d="m 2131.44,109.02 h 49.28 c -0.62,9.671 -3.11,16.921 -7.5,21.718 -4.36,4.793 -10.09,7.203 -17.21,7.203 -6.73,0 -12.32,-2.441 -16.64,-7.3 -4.35,-4.86 -6.96,-12.09 -7.93,-21.621 z m 53.2,-16.1489 h -53.2 c 0.01,-6.4727 1.3,-12.1406 3.69,-17.1016 2.46,-4.8789 5.66,-8.5976 9.69,-11.1211 4.01,-2.5195 8.46,-3.7187 13.31,-3.7187 3.25,0 6.25,0.3906 8.9,1.1601 2.68,0.8399 5.31,2.0821 7.86,3.75 2.48,1.711 4.79,3.4805 6.94,5.5 2.1,1.9415 4.93,4.5196 8.27,7.8711 1.4,1.3086 3.42,1.8985 5.96,1.8985 2.85,0 5.07,-0.7696 6.81,-2.4102 1.73,-1.5976 2.54,-3.8203 2.54,-6.7304 0,-2.5704 -0.94,-5.5704 -2.88,-9.0391 -1.9,-3.3711 -4.76,-6.6992 -8.71,-9.8906 -3.9,-3.1172 -8.77,-5.6875 -14.65,-7.8282 -5.85,-2.0703 -12.58,-3.1015 -20.28,-3.1015 -17.43,0 -31.04,5.2422 -40.7,15.582 -9.68,10.4492 -14.51,24.5078 -14.51,42.2891 0,8.4885 1.23,16.2105 3.57,23.3595 2.39,7.199 5.86,13.332 10.46,18.449 4.58,5.16 10.19,9.121 16.92,11.82 6.74,2.75 14.14,4.121 22.34,4.121 10.55,0 19.7,-2.332 27.3,-7.039 7.62,-4.679 13.31,-10.691 17.09,-18.089 3.79,-7.461 5.68,-14.981 5.68,-22.731 0,-7.082 -1.9,-11.7108 -5.86,-13.8124 -3.95,-2.1484 -9.43,-3.1875 -16.54,-3.1875"
         style="fill:#100f0d;fill-opacity:1;fill-rule:nonzero;stroke:none"
         transform="matrix(0.13333333,0,0,-0.13333333,0,813.25333)" />
      <path
         id="path16"
         d="m 2327.52,77.2617 c 0,-3.5234 -1.01,-7.3125 -3.08,-11.3398 -2.03,-4.0117 -5.06,-7.8203 -9.24,-11.4727 -4.14,-3.6289 -9.41,-6.5508 -15.74,-8.75 -6.27,-2.2773 -13.42,-3.3594 -21.25,-3.3594 -16.86,0 -29.97,5.129 -39.38,15.3321 -9.41,10.2265 -14.15,23.8984 -14.15,41.0976 0,11.6405 2.14,21.9685 6.49,30.8785 4.33,8.891 10.51,15.864 18.71,20.723 8.14,4.918 17.93,7.359 29.31,7.359 7.03,0 13.47,-1.101 19.39,-3.218 5.86,-2.172 10.8,-4.953 14.95,-8.313 4.08,-3.41 7.16,-7.051 9.35,-10.859 2.14,-3.84 3.21,-7.442 3.21,-10.77 0,-3.351 -1.18,-6.242 -3.68,-8.609 -2.39,-2.383 -5.32,-3.539 -8.78,-3.539 -2.25,0 -4.13,0.648 -5.59,1.859 -1.53,1.168 -3.19,3.078 -5.07,5.84 -3.32,5.25 -6.77,9.231 -10.39,11.918 -3.62,2.602 -8.22,3.953 -13.82,3.953 -7.99,0 -14.48,-3.332 -19.39,-9.871 -4.97,-6.582 -7.41,-15.539 -7.41,-26.9101 0,-5.3007 0.68,-10.2695 1.89,-14.6992 1.27,-4.5 3.11,-8.2929 5.52,-11.4726 2.38,-3.1485 5.29,-5.5274 8.67,-7.1602 3.33,-1.6601 7.07,-2.4492 11.15,-2.4492 5.43,0 10.12,1.2891 14,3.9297 3.87,2.6601 7.34,6.6914 10.33,12.0312 1.67,3.2696 3.42,5.7383 5.38,7.5703 1.9,1.8008 4.23,2.6602 7.07,2.6602 3.27,0 6.07,-1.2813 8.18,-3.9102 2.25,-2.6992 3.37,-5.4726 3.37,-8.4492"
         style="fill:#100f0d;fill-opacity:1;fill-rule:nonzero;stroke:none"
         transform="matrix(0.13333333,0,0,-0.13333333,0,813.25333)" />
      <path
         id="path17"
         d="m 2352.77,155.109 h 2.99 v 17.063 c 0,4.539 0.13,8.168 0.37,10.75 0.23,2.609 0.82,4.789 1.95,6.699 1.02,1.91 2.55,3.5 4.59,4.738 1.97,1.18 4.19,1.762 6.65,1.762 3.43,0 6.57,-1.332 9.34,-4.019 1.82,-1.821 3.03,-3.993 3.53,-6.571 0.51,-2.609 0.73,-6.351 0.73,-11.101 v -19.321 h 10 c 3.85,0 6.8,-0.961 8.82,-2.867 2.06,-1.914 3.05,-4.332 3.05,-7.312 0,-3.821 -1.44,-6.532 -4.37,-8.02 -2.87,-1.5 -7.01,-2.269 -12.38,-2.269 h -5.12 V 82.3711 c 0,-4.4609 0.17,-7.8711 0.45,-10.3008 0.35,-2.3984 1.19,-4.3398 2.45,-5.789 1.26,-1.5 3.37,-2.2696 6.32,-2.2696 1.58,0 3.73,0.2696 6.48,0.8985 2.66,0.5703 4.8,0.8789 6.35,0.8789 2.18,0 4.22,-0.961 5.95,-2.7071 1.72,-1.8906 2.62,-4.1211 2.62,-6.8515 0,-4.5508 -2.34,-8.0508 -7.15,-10.4805 -4.84,-2.4297 -11.69,-3.6406 -20.62,-3.6406 -8.5,0 -14.97,1.5 -19.35,4.4804 -4.36,2.9805 -7.28,7.0821 -8.59,12.4102 -1.39,5.2617 -2.07,12.2891 -2.07,21.0898 v 54.5512 h -3.61 c -3.85,0 -6.85,0.968 -8.93,2.918 -2.07,1.941 -3.07,4.371 -3.07,7.371 0,2.98 1.05,5.398 3.19,7.312 2.19,1.906 5.3,2.867 9.43,2.867"
         style="fill:#100f0d;fill-opacity:1;fill-rule:nonzero;stroke:none"
         transform="matrix(0.13333333,0,0,-0.13333333,0,813.25333)" />
      <path
         id="path18"
         d="m 2497.97,99.75 c 0,11.531 -2.46,20.578 -7.32,27.02 -4.93,6.41 -11.42,9.66 -19.68,9.66 -5.34,0 -10,-1.45 -14.03,-4.321 -4.08,-2.918 -7.19,-7.148 -9.37,-12.769 -2.19,-5.559 -3.31,-12.07 -3.31,-19.59 0,-7.4297 1.12,-13.8906 3.27,-19.4102 2.15,-5.5507 5.21,-9.8007 9.23,-12.75 4,-2.9414 8.75,-4.3789 14.21,-4.3789 8.26,0 14.75,3.211 19.68,9.6875 4.86,6.4532 7.32,15.4414 7.32,26.8516 z m 27.3,0 c 0,-8.4102 -1.25,-16.2109 -3.81,-23.3984 -2.5,-7.0821 -6.18,-13.2305 -10.93,-18.3828 -4.8,-5.129 -10.52,-8.9688 -17.13,-11.7774 -6.67,-2.7422 -14.09,-4.082 -22.43,-4.082 -8.27,0 -15.69,1.3398 -22.23,4.1523 -6.56,2.7696 -12.28,6.7266 -17.09,11.9063 -4.79,5.1718 -8.46,11.2304 -10.91,18.2617 -2.48,7.082 -3.7,14.8086 -3.7,23.3711 0,8.5902 1.22,16.4492 3.7,23.5582 2.58,7.18 6.15,13.243 10.86,18.332 4.76,5.047 10.45,8.95 17.14,11.68 6.78,2.75 14.16,4.129 22.23,4.129 8.26,0 15.69,-1.379 22.43,-4.172 6.7,-2.758 12.42,-6.75 17.22,-11.867 4.72,-5.121 8.43,-11.262 10.91,-18.332 2.49,-7.051 3.74,-14.848 3.74,-23.379"
         style="fill:#100f0d;fill-opacity:1;fill-rule:nonzero;stroke:none"
         transform="matrix(0.13333333,0,0,-0.13333333,0,813.25333)" />
      <path
         id="path19"
         d="M 2573.72,83.0117 V 59.3906 c 0,-5.7617 -1.31,-10.1015 -3.91,-13 -2.59,-2.8203 -5.86,-4.2812 -9.89,-4.2812 -3.87,0 -7.12,1.5 -9.63,4.3515 -2.52,2.9102 -3.76,7.211 -3.76,12.9297 v 78.9884 c 0,12.769 4.4,19.121 13.24,19.121 4.47,0 7.74,-1.508 9.77,-4.461 1.95,-2.98 3.01,-7.391 3.27,-13.199 3.23,5.808 6.61,10.219 10.04,13.199 3.42,2.953 7.96,4.461 13.64,4.461 5.77,0 11.28,-1.508 16.68,-4.461 5.36,-2.98 8.08,-6.949 8.08,-11.848 0,-3.461 -1.18,-6.371 -3.47,-8.589 -2.26,-2.231 -4.74,-3.411 -7.44,-3.411 -0.97,0 -3.4,0.668 -7.21,1.981 -3.84,1.258 -7.21,1.918 -10.15,1.918 -3.94,0 -7.19,-1.051 -9.69,-3.289 -2.54,-2.219 -4.51,-5.41 -5.9,-9.699 -1.39,-4.34 -2.4,-9.434 -2.9,-15.391 -0.51,-5.8907 -0.77,-13.0899 -0.77,-21.6993"
         style="fill:#100f0d;fill-opacity:1;fill-rule:nonzero;stroke:none"
         transform="matrix(0.13333333,0,0,-0.13333333,0,813.25333)" />
      <path
         id="path20"
         d="m 2718.57,79.1914 c 0,-7.8516 -1.82,-14.543 -5.51,-20.1211 -3.68,-5.6094 -9.06,-9.7812 -16.2,-12.6914 -7.17,-2.8086 -15.82,-4.2695 -26.11,-4.2695 -9.68,0 -18.09,1.5508 -25.09,4.6992 -6.97,3.1133 -12.12,6.9805 -15.42,11.6523 -3.36,4.6602 -5.06,9.3594 -5.06,14.0508 0,3.1172 1.09,5.7969 3.27,8.0078 2.11,2.2696 4.81,3.3203 8.02,3.3203 2.88,0 5.1,-0.7382 6.62,-2.1484 1.52,-1.543 2.95,-3.543 4.38,-6.1797 2.78,-5.0703 6.1,-8.8515 10.05,-11.3398 3.82,-2.5235 9.12,-3.7735 15.89,-3.7735 5.42,0 9.89,1.293 13.39,3.8204 3.46,2.5312 5.26,5.4101 5.26,8.6796 0,5.0118 -1.84,8.6719 -5.43,10.9336 -3.67,2.3399 -9.6,4.5078 -17.9,6.5664 -9.35,2.4414 -17,4.9922 -22.89,7.6329 -5.87,2.6877 -10.63,6.2307 -14.11,10.5977 -3.53,4.293 -5.31,9.699 -5.31,16.082 0,5.719 1.64,11.09 4.9,16.117 3.23,5.07 8.1,9.102 14.42,12.121 6.33,3.043 13.98,4.551 22.99,4.551 7,0 13.33,-0.781 18.98,-2.301 5.59,-1.508 10.34,-3.578 14.03,-6.109 3.75,-2.578 6.64,-5.418 8.58,-8.52 1.99,-3.148 2.96,-6.199 2.96,-9.16 0,-3.269 -1.02,-5.879 -3.16,-8.051 -2.1,-2 -5.1,-3.05 -8.89,-3.05 -2.82,0 -5.19,0.82 -7.19,2.519 -1.91,1.641 -4.19,4.121 -6.7,7.402 -2.06,2.782 -4.46,5.02 -7.28,6.68 -2.79,1.629 -6.57,2.5 -11.33,2.5 -4.93,0 -9.05,-1.09 -12.25,-3.289 -3.28,-2.172 -4.92,-4.91 -4.92,-8.172 0,-2.988 1.21,-5.429 3.57,-7.328 2.42,-1.91 5.62,-3.492 9.69,-4.75 4.09,-1.25 9.64,-2.801 16.75,-4.59 8.46,-2.133 15.32,-4.672 20.69,-7.679 5.34,-2.954 9.38,-6.4926 12.13,-10.5434 2.81,-4.0898 4.18,-8.707 4.18,-13.8672"
         style="fill:#100f0d;fill-opacity:1;fill-rule:nonzero;stroke:none"
         transform="matrix(0.13333333,0,0,-0.13333333,0,813.25333)" />
      <path
         id="path21"
         d="m 2749.45,42.1094 c -4.12,0 -7.68,1.3398 -10.63,4.1523 -3.04,2.7696 -4.51,6.668 -4.51,11.6172 0,4.2109 1.39,7.8594 4.23,10.9219 2.86,3.039 6.4,4.5195 10.59,4.5195 4.16,0 7.75,-1.4805 10.64,-4.5117 2.99,-2.9688 4.48,-6.6797 4.48,-10.9297 0,-4.9101 -1.49,-8.7695 -4.48,-11.5781 -2.89,-2.7891 -6.34,-4.1914 -10.32,-4.1914"
         style="fill:#100f0d;fill-opacity:1;fill-rule:nonzero;stroke:none"
         transform="matrix(0.13333333,0,0,-0.13333333,0,813.25333)" />
      <path
         id="path22"
         d="m 2869.71,99.75 c 0,11.531 -2.45,20.578 -7.34,27.02 -4.88,6.41 -11.41,9.66 -19.65,9.66 -5.32,0 -9.95,-1.45 -14.02,-4.321 -4.06,-2.918 -7.18,-7.148 -9.35,-12.769 -2.17,-5.559 -3.29,-12.07 -3.29,-19.59 0,-7.4297 1.05,-13.8906 3.2,-19.4102 2.22,-5.5507 5.27,-9.8007 9.3,-12.75 4.01,-2.9414 8.73,-4.3789 14.16,-4.3789 8.24,0 14.77,3.211 19.65,9.6875 4.89,6.4532 7.34,15.4414 7.34,26.8516 z m 27.32,0 c 0,-8.4102 -1.25,-16.2109 -3.81,-23.3984 -2.54,-7.0821 -6.15,-13.2305 -10.94,-18.3828 -4.83,-5.129 -10.47,-8.9688 -17.13,-11.7774 -6.62,-2.7422 -14.1,-4.082 -22.43,-4.082 -8.22,0 -15.62,1.3398 -22.19,4.1523 -6.58,2.7696 -12.25,6.7266 -17.05,11.9063 -4.9,5.1718 -8.52,11.2304 -11.04,18.2617 -2.44,7.082 -3.69,14.8086 -3.69,23.3711 0,8.5902 1.25,16.4492 3.79,23.5582 2.57,7.18 6.13,13.243 10.82,18.332 4.72,5.047 10.44,8.95 17.17,11.68 6.7,2.75 14.05,4.129 22.19,4.129 8.24,0 15.71,-1.379 22.43,-4.172 6.73,-2.758 12.46,-6.75 17.25,-11.867 4.75,-5.121 8.38,-11.262 10.9,-18.332 2.48,-7.051 3.73,-14.848 3.73,-23.379"
         style="fill:#100f0d;fill-opacity:1;fill-rule:nonzero;stroke:none"
         transform="matrix(0.13333333,0,0,-0.13333333,0,813.25333)" />
      <path
         id="path23"
         d="M 2945.47,83.0117 V 59.3906 c 0,-5.7617 -1.3,-10.1015 -3.89,-13 -2.55,-2.8203 -5.88,-4.2812 -9.83,-4.2812 -3.97,0 -7.15,1.5 -9.69,4.3515 -2.56,2.9102 -3.8,7.211 -3.8,12.9297 v 78.9884 c 0,12.769 4.47,19.121 13.26,19.121 4.52,0 7.76,-1.508 9.74,-4.461 1.96,-2.98 3.12,-7.391 3.36,-13.199 3.19,5.808 6.52,10.219 9.94,13.199 3.44,2.953 8.01,4.461 13.67,4.461 5.81,0 11.35,-1.508 16.67,-4.461 5.38,-2.98 8.1,-6.949 8.1,-11.848 0,-3.461 -1.15,-6.371 -3.43,-8.589 -2.31,-2.231 -4.75,-3.411 -7.47,-3.411 -0.96,0 -3.35,0.668 -7.17,1.981 -3.84,1.258 -7.21,1.918 -10.15,1.918 -3.96,0 -7.19,-1.051 -9.79,-3.289 -2.48,-2.219 -4.44,-5.41 -5.86,-9.699 -1.36,-4.34 -2.33,-9.434 -2.85,-15.391 -0.53,-5.8907 -0.81,-13.0899 -0.81,-21.6993"
         style="fill:#100f0d;fill-opacity:1;fill-rule:nonzero;stroke:none"
         transform="matrix(0.13333333,0,0,-0.13333333,0,813.25333)" />
      <path
         id="path24"
         d="m 3023.98,100.73 c 0,-11.4917 2.43,-20.1987 7.26,-26.1206 4.78,-5.8477 11.05,-8.8203 18.63,-8.8203 4.5,0 8.82,1.3007 12.82,3.832 4.02,2.5273 7.29,6.3398 9.82,11.4375 2.56,5.1133 3.78,11.2617 3.78,18.5312 0,11.5822 -2.46,20.5702 -7.33,27.0002 -4.87,6.5 -11.3,9.75 -19.26,9.75 -7.75,0 -13.99,-3.16 -18.66,-9.289 -4.7,-6.199 -7.06,-14.949 -7.06,-26.321 z m 78.84,35.989 V 54.25 c 0,-9.4609 -1.03,-17.5586 -2.92,-24.3086 -1.93,-6.832 -5.01,-12.4531 -9.26,-16.8711 C 3086.4,8.64844 3080.8,5.35938 3073.97,3.21094 3067.09,1.10156 3058.53,0 3048.31,0 c -9.38,0 -17.77,1.33203 -25.1,4.07031 -7.39,2.80078 -13.08,6.30079 -17.05,10.66019 -3.98,4.289 -5.99,8.75 -5.99,13.3515 0,3.4766 1.1,6.2774 3.42,8.4571 2.23,2.2304 4.96,3.3203 8.14,3.3203 4,0 7.44,-1.8594 10.49,-5.5078 1.46,-1.9297 2.99,-3.8008 4.5,-5.6797 1.56,-1.9219 3.3,-3.5899 5.17,-4.9102 1.92,-1.3828 4.21,-2.3828 6.87,-3.0429 2.6,-0.6602 5.7,-0.9883 9.17,-0.9883 6.98,0 12.51,1.0508 16.37,3.0703 3.88,2.039 6.62,4.8984 8.2,8.5586 1.48,3.6797 2.49,7.6015 2.65,11.789 0.32,4.2813 0.5,10.9532 0.69,20.2813 -4.18,-6.0899 -9.09,-10.7383 -14.51,-13.918 -5.48,-3.2109 -12.03,-4.7617 -19.54,-4.7617 -9.18,0 -17.13,2.3789 -23.89,7.2695 -6.85,4.8399 -12.08,11.6211 -15.72,20.3789 -3.61,8.711 -5.48,18.793 -5.48,30.2306 0,8.582 1.09,16.281 3.36,23.152 2.18,6.821 5.33,12.617 9.52,17.34 4.07,4.719 8.85,8.277 14.22,10.68 5.41,2.359 11.25,3.578 17.75,3.578 7.67,0 14.34,-1.559 19.97,-4.668 5.73,-3.039 10.91,-7.941 15.77,-14.481 v 3.801 c 0,4.957 1.21,8.739 3.5,11.52 2.3,2.668 5.31,4.031 8.95,4.031 5.26,0 8.75,-1.762 10.49,-5.34 1.7,-3.582 2.59,-8.781 2.59,-15.523"
         style="fill:#100f0d;fill-opacity:1;fill-rule:nonzero;stroke:none"
         transform="matrix(0.13333333,0,0,-0.13333333,0,813.25333)" />
      <path
         id="path25"
         d="m 1924.12,413.102 h 40.33 c -2.85,-21.75 -11.75,-38.723 -26.58,-50.942 -13.71,-11.969 -30.33,-17.871 -49.73,-17.871 -26.34,0 -47.37,9.262 -63.07,27.731 -14.87,17.558 -22.3,40.25 -22.3,67.96 0,28.391 7.38,51.09 22.09,68.282 14.71,17.117 35.5,25.718 62.39,25.718 19.99,0 36.91,-5.41 50.62,-16.14 14.54,-11.61 23.44,-27.899 26.58,-48.77 h -40.33 c -3.49,18.211 -14.6,27.262 -33.52,27.262 -31.18,0 -46.8,-18.461 -46.8,-55.422 0,-17.32 4.02,-31.449 12.04,-42.461 8.02,-11.058 19.32,-16.59 33.9,-16.59 21.74,0 33.2,10.43 34.38,31.243 z m -158.8,25.449 c 0,-36.102 11.45,-66.66 34.31,-91.563 22.89,-24.898 50.9,-37.359 84.15,-37.359 33.1,0 61.13,12.461 83.98,37.359 22.92,24.903 34.3,55.461 34.3,91.563 0,36.07 -11.38,66.609 -34.3,91.508 -22.85,24.953 -50.88,37.39 -83.98,37.39 -33.25,0 -61.26,-12.437 -84.15,-37.39 -22.86,-24.899 -34.31,-55.438 -34.31,-91.508 z m -40.98,0 c 0,45.937 15.55,85.148 46.66,117.711 31.15,32.519 68.76,48.789 112.78,48.789 43.92,0 81.46,-16.27 112.65,-48.789 31.13,-32.563 46.72,-71.774 46.72,-117.711 0,-45.981 -15.59,-85.242 -46.72,-117.742 -31.19,-32.547 -68.73,-48.829 -112.65,-48.829 -44.02,0 -81.63,16.282 -112.78,48.829 -31.11,32.5 -46.66,71.761 -46.66,117.742"
         style="fill:#100f0d;fill-opacity:1;fill-rule:nonzero;stroke:none"
         transform="matrix(0.13333333,0,0,-0.13333333,0,813.25333)" />
      <path
         id="path26"
         d="m 1788.85,334.129 23.25,-19.731 170.96,219.532 -23.25,19.699 -170.96,-219.5"
         style="fill:#100f0d;fill-opacity:1;fill-rule:nonzero;stroke:none"
         transform="matrix(0.13333333,0,0,-0.13333333,0,813.25333)" />
      <path
         id="path27"
         d="m 2049.55,4585.38 c 1131.93,0 2049.55,-917.61 2049.55,-2049.55 0,-636.37 -290.04,-1205.01 -745.14,-1580.92 H 745.145 C 290.043,1330.82 0,1899.46 0,2535.83 0,3667.77 917.617,4585.38 2049.55,4585.38"
         style="fill:#fddbb6;fill-opacity:1;fill-rule:evenodd;stroke:none"
         transform="matrix(0.13333333,0,0,-0.13333333,0,813.25333)" />
      <path
         id="path28"
         d="m 2043.02,5164.74 c -116.12,48.85 -252.55,3.13 -314.7,-109.39 -47.11,-85.3 -105.97,-163.54 -174.85,-232.46 -101.06,-101.11 -128.79,-254.32 -69.56,-384.44 59.23,-130.12 192.97,-209.84 335.59,-200.04 l 218.85,-88.87 c -0.23,-1.83 0.18,-2.96 1.7,-3.11 l 2.97,1.21 2.97,-1.21 c 1.56,0.15 1.95,1.28 1.72,3.11 l 218.85,88.87 c 142.63,-9.8 276.36,69.92 335.6,200.04 59.21,130.12 31.49,283.33 -69.57,384.44 -68.87,68.92 -127.74,147.16 -174.85,232.46 -62.14,112.52 -198.6,158.24 -314.72,109.39"
         style="fill:#2e2d2d;fill-opacity:1;fill-rule:evenodd;stroke:none"
         transform="matrix(0.13333333,0,0,-0.13333333,0,813.25333)" />
      <path
         id="path29"
         d="m 1863.07,4859.95 c -26.91,0 -44.63,-28.32 -39.59,-63.28 5.04,-34.94 30.94,-63.27 57.83,-63.27 26.89,0 44.62,28.33 39.57,63.27 -5.04,34.96 -30.92,63.28 -57.81,63.28 z m 369.1,0 c 26.88,0 44.61,-28.32 39.57,-63.28 -5.04,-34.94 -30.93,-63.27 -57.83,-63.27 -26.9,0 -44.62,28.33 -39.57,63.27 5.04,34.96 30.91,63.28 57.83,63.28 v 0"
         style="fill:#ed401e;fill-opacity:1;fill-rule:evenodd;stroke:none"
         transform="matrix(0.13333333,0,0,-0.13333333,0,813.25333)" />
      <path
         id="path30"
         d="m 1935.15,1019.75 h 82.4 v 1683.23 h -82.4 V 1019.75"
         style="fill:#2e2d2d;fill-opacity:1;fill-rule:evenodd;stroke:none"
         transform="matrix(0.13333333,0,0,-0.13333333,0,813.25333)" />
      <path
         id="path31"
         d="m 1619.63,1639.34 h 713.45 c 21.85,0 39.72,-17.87 39.72,-39.72 v 0 c 0,-21.85 -17.87,-39.72 -39.72,-39.72 h -713.45 c -21.86,0 -39.73,17.87 -39.73,39.72 v 0 c 0,21.85 17.87,39.72 39.73,39.72"
         style="fill:#464648;fill-opacity:1;fill-rule:evenodd;stroke:none"
         transform="matrix(0.13333333,0,0,-0.13333333,0,813.25333)" />
      <path
         id="path32"
         d="m 2308.76,1293.46 c -56.43,49.75 -80.22,126.88 -61.6,199.76 14.49,56.73 5.43,116.89 -25.13,166.84 -40.87,66.86 36.94,82.98 61.61,100.56 l 65.1,-45.03 139.42,-342.48 40.67,-82.53 c 10.38,-21.07 8,-46.2 -6.18,-64.93 -14.17,-18.73 -37.71,-27.85 -60.78,-23.58 -80.38,14.85 -91.8,37.38 -153.11,91.39"
         style="fill:#f48313;fill-opacity:1;fill-rule:evenodd;stroke:none"
         transform="matrix(0.13333333,0,0,-0.13333333,0,813.25333)" />
      <path
         id="path33"
         d="m 2492.95,1857.5 -23.57,-152 c -17.18,-110.87 -10.8,-224.14 18.78,-332.39 l -66.97,8.37 c -36.74,4.58 -69.52,25.32 -89.41,56.55 -19.88,31.2 -24.82,69.68 -13.45,104.9 23.83,73.96 10.96,154.82 -34.69,217.69 l 78.95,126.78 130.36,-29.9"
         style="fill:#eb3c1f;fill-opacity:1;fill-rule:evenodd;stroke:none"
         transform="matrix(0.13333333,0,0,-0.13333333,0,813.25333)" />
      <path
         id="path34"
         d="m 2045.99,4654.49 -59.49,-14.59 7.31,-85.95 c 3.3,-38.89 -23.16,-74.05 -61.44,-81.66 l -112.87,-67.5 226.49,-142.7 226.5,142.7 -112.85,67.5 c -38.3,7.61 -64.75,42.77 -61.45,81.66 l 7.31,85.95 -59.51,14.59"
         style="fill:#f15030;fill-opacity:1;fill-rule:evenodd;stroke:none"
         transform="matrix(0.13333333,0,0,-0.13333333,0,813.25333)" />
      <path
         id="path35"
         d="m 2045.99,4654.49 -0.39,-0.1 c -22.72,-16.92 -37.12,-41.98 -37.12,-69.94 0,-51 47.86,-92.33 106.91,-92.33 2.02,0 4.01,0.05 6.01,0.14 -16.13,15.55 -25.24,37.93 -23.21,61.7 l 7.31,85.94 -59.51,14.59"
         style="fill:#ed401e;fill-opacity:1;fill-rule:evenodd;stroke:none"
         transform="matrix(0.13333333,0,0,-0.13333333,0,813.25333)" />
      <path
         id="path36"
         d="m 2045.99,4359.86 56.27,2.73 c 25.54,1.23 47.93,15.35 59.53,37.52 11.58,22.16 10.78,49.33 -2.15,72.18 l 72.54,14.84 c 123.67,25.26 252.03,-47.5 298.16,-169.02 l 81.13,-144.4 C 2573.58,4098.55 2494.58,4052 2403,4036.48 l -67.42,112.6 c 19.82,-101.97 41.64,-191.56 40.59,-296.69 -86.54,-32.04 -202.6,-51.64 -330.18,-51.64 -127.57,0 -243.62,19.6 -330.18,51.64 -1.03,105.13 20.79,194.72 40.62,296.69 l -67.44,-112.6 c -91.59,15.52 -170.57,62.07 -208.49,137.23 l 81.14,144.4 c 46.14,121.52 174.5,194.28 298.17,169.02 l 72.56,-14.84 c -12.94,-22.85 -13.76,-50.02 -2.16,-72.18 11.58,-22.17 33.99,-36.29 59.53,-37.52 l 56.25,-2.73"
         style="fill:#ffffff;fill-opacity:1;fill-rule:evenodd;stroke:none"
         transform="matrix(0.13333333,0,0,-0.13333333,0,813.25333)" />
      <path
         id="path37"
         d="m 2944.77,4360.55 17.98,5.5 c 17.89,5.46 36.42,8.47 55.12,8.94 15.15,0.39 29.94,4.52 43.12,12.02 9.12,5.21 19.81,6.99 30.12,5.03 3.11,-0.59 5.78,-2.54 7.33,-5.29 1.53,-2.77 1.75,-6.07 0.6,-9.02 -3.29,-8.41 -10.42,-14.73 -19.17,-16.96 -11.72,-2.98 -22.06,-9.95 -29.22,-19.69 l -67.46,-7.26 -38.42,26.73"
         style="fill:#ec431e;fill-opacity:1;fill-rule:evenodd;stroke:none"
         transform="matrix(0.13333333,0,0,-0.13333333,0,813.25333)" />
      <path
         id="path38"
         d="m 3000.9,4350.76 c 0.75,-0.14 1.49,-0.27 2.25,-0.41 l 46.56,-4.4 c 12.76,-2.32 25.88,-1.92 38.49,1.17 23.68,5.83 47.91,9.25 72.3,10.21 11.88,0.47 23.55,-3.42 32.77,-10.94 2.95,-2.4 4.39,-6.2 3.76,-9.95 -0.62,-3.75 -3.2,-6.88 -6.78,-8.21 -11.37,-4.21 -23.04,-7.65 -34.9,-10.3 l -146.41,11.2 -8.04,21.63"
         style="fill:#ec431e;fill-opacity:1;fill-rule:evenodd;stroke:none"
         transform="matrix(0.13333333,0,0,-0.13333333,0,813.25333)" />
      <path
         id="path39"
         d="m 3044.42,4337.86 c 0.77,-0.14 1.51,-0.28 2.27,-0.41 l 46.55,-4.39 c 12.77,-2.33 25.88,-1.93 38.49,1.16 23.69,5.82 47.92,9.25 72.3,10.21 11.89,0.47 23.56,-3.42 32.78,-10.94 2.95,-2.41 4.38,-6.21 3.76,-9.96 -0.63,-3.75 -3.21,-6.88 -6.78,-8.2 -11.38,-4.21 -23.05,-7.65 -34.9,-10.3 l -146.42,11.2 -8.05,21.63"
         style="fill:#ec431e;fill-opacity:1;fill-rule:evenodd;stroke:none"
         transform="matrix(0.13333333,0,0,-0.13333333,0,813.25333)" />
      <path
         id="path40"
         d="m 2598.96,4170.59 34.27,-65.26 275.54,210.25 34.88,-35.79 -60.19,-147.14 c -60.26,-147.27 -141.94,-261.2 -284.5,-331.9 -61.87,50.1 -142.54,145.19 -187.9,248.25 l 12.82,30.39 c 28.9,68.48 102.4,106.76 175.08,91.2"
         style="fill:#f15030;fill-opacity:1;fill-rule:evenodd;stroke:none"
         transform="matrix(0.13333333,0,0,-0.13333333,0,813.25333)" />
      <path
         id="path41"
         d="m 2494.69,3910.34 c -32.02,41.67 -61.9,89.24 -83.63,138.66 l 12.82,30.39 c 22.03,52.19 69.95,86.83 123.69,93.47 -53.37,-77.71 -71.49,-172.72 -52.88,-262.52"
         style="fill:#ed401e;fill-opacity:1;fill-rule:evenodd;stroke:none"
         transform="matrix(0.13333333,0,0,-0.13333333,0,813.25333)" />
      <path
         id="path42"
         d="m 2896.49,4297.9 13.49,31.46 c 9.23,21.51 34.13,36.29 57.26,33.97 31.43,-3.14 60.93,-11.28 87.25,-24.08 30.4,-14.77 68.04,-17.89 106.03,-8.8 19.38,4.64 38.72,4.36 55.77,-0.8 6.38,-1.94 9.96,-7.52 9.05,-14.06 -0.93,-6.55 -6.17,-12.73 -13.21,-15.58 -23.81,-9.63 -48.77,-13.94 -72.47,-12.51 l -73.8,-1.46 -156.55,-20.87 -12.82,32.73"
         style="fill:#f15030;fill-opacity:1;fill-rule:evenodd;stroke:none"
         transform="matrix(0.13333333,0,0,-0.13333333,0,813.25333)" />
      <path
         id="path43"
         d="m 1147.23,4360.55 -18,5.5 c -17.88,5.46 -36.41,8.47 -55.1,8.94 -15.15,0.39 -29.96,4.52 -43.12,12.02 -9.12,5.21 -19.81,6.99 -30.14,5.03 -3.097,-0.59 -5.776,-2.54 -7.315,-5.29 -1.524,-2.77 -1.742,-6.07 -0.594,-9.02 3.269,-8.41 10.409,-14.73 19.169,-16.96 11.72,-2.98 22.04,-9.95 29.21,-19.69 l 67.47,-7.26 38.42,26.73"
         style="fill:#ec431e;fill-opacity:1;fill-rule:evenodd;stroke:none"
         transform="matrix(0.13333333,0,0,-0.13333333,0,813.25333)" />
      <path
         id="path44"
         d="m 1091.1,4350.76 c -0.75,-0.14 -1.51,-0.27 -2.26,-0.41 l -46.55,-4.4 c -12.77,-2.32 -25.89,-1.92 -38.5,1.17 -23.696,5.83 -47.907,9.25 -72.29,10.21 -11.898,0.47 -23.555,-3.42 -32.785,-10.94 -2.949,-2.4 -4.383,-6.2 -3.758,-9.95 0.625,-3.75 3.211,-6.88 6.777,-8.21 11.391,-4.21 23.047,-7.65 34.903,-10.3 l 146.423,11.2 8.04,21.63"
         style="fill:#ec431e;fill-opacity:1;fill-rule:evenodd;stroke:none"
         transform="matrix(0.13333333,0,0,-0.13333333,0,813.25333)" />
      <path
         id="path45"
         d="m 1047.57,4337.86 c -0.76,-0.14 -1.51,-0.28 -2.26,-0.41 l -46.548,-4.39 c -12.778,-2.33 -25.891,-1.93 -38.496,1.16 -23.7,5.82 -47.918,9.25 -72.297,10.21 -11.899,0.47 -23.555,-3.42 -32.789,-10.94 -2.95,-2.41 -4.383,-6.21 -3.758,-9.96 0.625,-3.75 3.203,-6.88 6.777,-8.2 11.379,-4.21 23.051,-7.65 34.903,-10.3 l 146.428,11.2 8.04,21.63"
         style="fill:#ec431e;fill-opacity:1;fill-rule:evenodd;stroke:none"
         transform="matrix(0.13333333,0,0,-0.13333333,0,813.25333)" />
      <path
         id="path46"
         d="m 1493.04,4170.59 -34.27,-65.26 -275.55,210.25 -34.89,-35.79 60.21,-147.14 c 60.26,-147.27 141.93,-261.2 284.5,-331.9 61.87,50.1 142.55,145.19 187.9,248.25 l -12.82,30.39 c -28.92,68.48 -102.41,106.76 -175.08,91.2"
         style="fill:#f15030;fill-opacity:1;fill-rule:evenodd;stroke:none"
         transform="matrix(0.13333333,0,0,-0.13333333,0,813.25333)" />
      <path
         id="path47"
         d="m 1597.31,3910.34 c 32.02,41.67 61.88,89.24 83.63,138.66 l -12.82,30.39 c -22.04,52.19 -69.96,86.83 -123.68,93.47 53.36,-77.71 71.47,-172.72 52.87,-262.52"
         style="fill:#ed401e;fill-opacity:1;fill-rule:evenodd;stroke:none"
         transform="matrix(0.13333333,0,0,-0.13333333,0,813.25333)" />
      <path
         id="path48"
         d="m 1195.5,4297.9 -13.48,31.46 c -9.23,21.51 -34.13,36.29 -57.26,33.97 -31.43,-3.14 -60.94,-11.28 -87.27,-24.08 -30.4,-14.77 -68.017,-17.89 -106.013,-8.8 -19.383,4.64 -38.727,4.36 -55.77,-0.8 -6.383,-1.94 -9.969,-7.52 -9.051,-14.06 0.918,-6.55 6.172,-12.73 13.215,-15.58 23.813,-9.63 48.762,-13.94 72.453,-12.51 l 73.816,-1.46 156.54,-20.87 12.82,32.73"
         style="fill:#f15030;fill-opacity:1;fill-rule:evenodd;stroke:none"
         transform="matrix(0.13333333,0,0,-0.13333333,0,813.25333)" />
      <path
         id="path49"
         d="m 2319.54,3298.06 736.34,-208.92 c 69.56,-19.74 81.16,-37.42 55.77,-111.31 l -72.7,-211.61 C 2930,2477.9 2766.45,2204.99 2572.18,1953.86 l -224.49,-290.23 -78.13,61.6 63.03,220.53 72.68,346.99 c 39.02,186.22 133.16,364.89 269.94,512.38 h -768.57 l 412.9,492.93"
         style="fill:#eb3c1f;fill-opacity:1;fill-rule:evenodd;stroke:none"
         transform="matrix(0.13333333,0,0,-0.13333333,0,813.25333)" />
      <path
         id="path50"
         d="m 1510.99,2600.84 h 930.72 v 204.3 h -930.72 v -204.3"
         style="fill:#2e2d2d;fill-opacity:1;fill-rule:evenodd;stroke:none"
         transform="matrix(0.13333333,0,0,-0.13333333,0,813.25333)" />
      <path
         id="path51"
         d="m 2010.4,3298.06 768.41,-208.92 c 72.6,-19.74 86.89,-37.42 72.83,-111.31 l -40.22,-211.61 c -64.73,-288.32 -186.41,-561.23 -342.14,-812.36 l -179.97,-290.23 -87.58,61.6 29.19,220.53 19.46,346.99 c 10.45,186.22 77.17,364.89 191.33,512.38 h -768.58 l 337.27,492.93"
         style="fill:#f15030;fill-opacity:1;fill-rule:evenodd;stroke:none"
         transform="matrix(0.13333333,0,0,-0.13333333,0,813.25333)" />
      <path
         id="path52"
         d="m 1799.62,3716.4 -126.49,-243.22 c -107.96,-207.63 -117.48,-452.66 -25.93,-668.05 h 499.41 l -19.45,100.54 c -24.26,125.3 28.94,252.95 135.02,323.93 l 155.88,41.77 -134.62,168.72 -26.3,218.4 -457.52,57.91"
         style="fill:#f9b00b;fill-opacity:1;fill-rule:evenodd;stroke:none"
         transform="matrix(0.13333333,0,0,-0.13333333,0,813.25333)" />
      <path
         id="path53"
         d="m 1829.6,3975.82 8.11,-79.44 c 6.37,-62.49 -6.94,-125.43 -38.09,-179.98 215.4,-128.65 382.67,-173.61 457.52,-57.91 v 73.77 c 0,92.25 -53.24,173.1 -18.67,258.62 l -408.87,-15.06"
         style="fill:#f15030;fill-opacity:1;fill-rule:evenodd;stroke:none"
         transform="matrix(0.13333333,0,0,-0.13333333,0,813.25333)" />
      <path
         id="path54"
         d="m 1832.62,3946.25 5.09,-49.87 c 6.05,-59.36 -5.65,-119.1 -33.54,-171.69 l 55.02,29.96 c 112.93,68.12 236.35,84.33 336.05,44.14 25.16,-10.13 45.91,-26.82 61.23,-48.39 -5.48,77.81 -43.24,148.04 -24.49,220.78 l -172.5,13.12 -209.88,-7.73 -16.98,-30.32"
         style="fill:#ed401e;fill-opacity:1;fill-rule:evenodd;stroke:none"
         transform="matrix(0.13333333,0,0,-0.13333333,0,813.25333)" />
      <path
         id="path55"
         d="m 2257.14,3658.49 -19.73,-96.95 c -20.19,-99.4 -68.62,-190.87 -139.43,-263.48 l 164.2,-68.46 155.88,41.77 -134.62,168.72 -26.3,218.4"
         style="fill:#f48313;fill-opacity:1;fill-rule:evenodd;stroke:none"
         transform="matrix(0.13333333,0,0,-0.13333333,0,813.25333)" />
      <path
         id="path56"
         d="m 1751.75,3866.64 c 186.4,29.2 376.54,24.32 561.18,-14.4 l -32.61,173.78 -479.64,5.94 -48.93,-165.32"
         style="fill:#ffffff;fill-opacity:1;fill-rule:evenodd;stroke:none"
         transform="matrix(0.13333333,0,0,-0.13333333,0,813.25333)" />
      <path
         id="path57"
         d="m 2200.77,1293.46 c -56.42,49.75 -80.22,126.88 -61.6,199.76 14.49,56.73 5.44,116.89 -25.14,166.84 -40.88,66.86 36.96,82.98 61.62,100.56 l 65.08,-45.03 139.44,-342.48 40.66,-82.53 c 10.39,-21.07 8,-46.2 -6.18,-64.93 -14.16,-18.73 -37.69,-27.85 -60.78,-23.58 -80.36,14.85 -91.79,37.38 -153.1,91.39"
         style="fill:#f9b00b;fill-opacity:1;fill-rule:evenodd;stroke:none"
         transform="matrix(0.13333333,0,0,-0.13333333,0,813.25333)" />
      <path
         id="path58"
         d="m 2384.95,1857.5 -23.55,-152 c -17.19,-110.87 -10.78,-224.14 18.77,-332.39 l -66.98,8.37 c -36.73,4.58 -69.51,25.32 -89.41,56.55 -19.87,31.2 -24.81,69.68 -13.45,104.9 23.86,73.96 10.96,154.82 -34.68,217.69 l 78.94,126.78 130.36,-29.9"
         style="fill:#f15030;fill-opacity:1;fill-rule:evenodd;stroke:none"
         transform="matrix(0.13333333,0,0,-0.13333333,0,813.25333)" />
      <path
         id="path59"
         d="m 1976.36,1084.61 c 231.33,0 428.26,-54.07 502.38,-129.7 H 1473.97 c 74.12,75.63 271.06,129.7 502.39,129.7"
         style="fill:#ffffff;fill-opacity:1;fill-rule:evenodd;stroke:none"
         transform="matrix(0.13333333,0,0,-0.13333333,0,813.25333)" />
      <path
         id="path60"
         d="m 2047.61,5055.35 c 214.35,0 191.03,-174.94 191.03,-319.49 0,-144.53 -143.28,-203.95 -191.03,-203.95 -47.76,0 -191.03,59.42 -191.03,203.95 0,144.55 -23.3,319.49 191.03,319.49"
         style="fill:#f15030;fill-opacity:1;fill-rule:evenodd;stroke:none"
         transform="matrix(0.13333333,0,0,-0.13333333,0,813.25333)" />
      <path
         id="path61"
         d="m 2121.4,4663.85 c -3.38,-52.11 -55.9,-73.66 -73.79,-73.66 -17.89,0 -70.41,21.55 -73.78,73.66 h 147.57"
         style="fill:#ffffff;fill-opacity:1;fill-rule:evenodd;stroke:none"
         transform="matrix(0.13333333,0,0,-0.13333333,0,813.25333)" />
      <path
         id="path62"
         d="m 2043.02,5029.59 -34.54,-19.04 c -37.02,-20.4 -60.76,-53.43 -64.52,-89.78 -3.15,-30.28 -26.87,-56.53 -61.37,-67.88 -34.49,-11.36 -73.88,-5.89 -101.83,14.14 l -11.65,151 204.72,105.43 69.19,-2.04 69.22,2.04 204.7,-105.43 -11.65,-151 c -27.96,-20.03 -67.34,-25.5 -101.82,-14.14 -34.5,11.35 -58.23,37.6 -61.37,67.88 -3.77,36.35 -27.48,69.38 -64.51,89.78 l -34.57,19.04"
         style="fill:#2e2d2d;fill-opacity:1;fill-rule:evenodd;stroke:none"
         transform="matrix(0.13333333,0,0,-0.13333333,0,813.25333)" />
      <path
         id="path63"
         d="m 2095.95,4871.35 -0.26,-23.26 h 55.98 c 7.79,0 16.25,0 23.25,-2.04 l 4.76,11.52 c -17.11,9.94 -37.16,14.97 -57.5,14.45 l -26.23,-0.67"
         style="fill:#2e2d2d;fill-opacity:1;fill-rule:evenodd;stroke:none"
         transform="matrix(0.13333333,0,0,-0.13333333,0,813.25333)" />
      <path
         id="path64"
         d="m 2132.55,4772.1 c 14.8,0 26.86,13.54 26.86,30.15 0,16.6 -12.06,30.15 -26.86,30.15 -14.81,0 -26.88,-13.55 -26.88,-30.15 0,-16.61 12.07,-30.15 26.88,-30.15"
         style="fill:#2e2d2d;fill-opacity:1;fill-rule:evenodd;stroke:none"
         transform="matrix(0.13333333,0,0,-0.13333333,0,813.25333)" />
      <path
         id="path65"
         d="m 1999.29,4871.35 0.23,-23.26 h -55.98 c -7.79,0 -16.23,0 -23.25,-2.04 l -4.73,11.52 c 17.09,9.94 37.15,14.97 57.48,14.45 l 26.25,-0.67"
         style="fill:#2e2d2d;fill-opacity:1;fill-rule:evenodd;stroke:none"
         transform="matrix(0.13333333,0,0,-0.13333333,0,813.25333)" />
      <path
         id="path66"
         d="m 1962.69,4772.1 c 14.78,0 26.85,13.54 26.85,30.15 0,16.6 -12.07,30.15 -26.85,30.15 -14.81,0 -26.88,-13.55 -26.88,-30.15 0,-16.61 12.07,-30.15 26.88,-30.15"
         style="fill:#2e2d2d;fill-opacity:1;fill-rule:evenodd;stroke:none"
         transform="matrix(0.13333333,0,0,-0.13333333,0,813.25333)" />
      <path
         id="path67"
         d="m 2047.61,4714.22 c 19.78,0 35.8,4.59 35.8,-4.9 0,-9.5 -16.02,-36.76 -35.8,-36.76 -19.78,0 -35.79,27.26 -35.79,36.76 0,9.49 16.01,4.9 35.79,4.9"
         style="fill:#ed401e;fill-opacity:1;fill-rule:evenodd;stroke:none"
         transform="matrix(0.13333333,0,0,-0.13333333,0,813.25333)" />
      <path
         id="path68"
         d="m 2290.47,5478.39 c -61.18,0 -110.79,-49.6 -110.79,-110.8 0,-61.2 49.61,-110.8 110.79,-110.8 61.2,0 110.81,49.6 110.81,110.8 0,61.2 -49.61,110.8 -110.81,110.8 z m 386.16,620.97 c 198.63,0 359.67,-161.04 359.67,-359.67 0,-198.64 -161.04,-359.68 -359.67,-359.68 -198.65,0 -359.69,161.04 -359.69,359.68 0,198.63 161.04,359.67 359.69,359.67 v 0"
         style="fill:#ebb880;fill-opacity:1;fill-rule:evenodd;stroke:none"
         transform="matrix(0.13333333,0,0,-0.13333333,0,813.25333)" />
      <path
         id="path69"
         d="m 2628.86,5591.31 h 94.47 v -94.49 h -94.47 z m 1.76,43.68 c 0,22.66 2.26,45.67 8.58,67.49 5.03,17.38 11.62,34.85 20.91,50.45 9.4,15.76 20.08,30.94 30.97,45.46 7.22,10 14.47,20.15 21.13,30.54 4.97,7.74 8.95,16 11.97,24.69 3.18,9.18 4.53,18.76 4.53,28.47 v 0.35 c 0,13.79 -2.71,28.38 -12.41,38.81 -9.17,9.85 -21.51,13.05 -34.66,13.05 -14.2,0 -25.78,-4.5 -34.38,-16.01 -10.59,-14.19 -13.24,-34.15 -13.39,-51.25 v -11.02 h -92.16 v 11.35 c 0.88,27.93 5.8,56.26 18.26,81.49 10.98,22.27 26.83,40.44 48.22,53.11 22.19,13.15 47.16,18.29 72.76,18.29 25.71,0 51.54,-4.33 74.54,-16.25 21.16,-10.96 37.62,-27.05 48.85,-48.07 12.1,-22.67 16.41,-48.37 16.41,-73.85 v -0.35 c 0,-15.89 -1.9,-31.89 -6.82,-47.04 -4.09,-12.62 -9.43,-25.03 -16.53,-36.26 -7.8,-12.31 -16.38,-24.2 -25.32,-35.71 -9.46,-12.18 -18.95,-24.78 -27.15,-37.86 -7.33,-11.7 -12.58,-24.94 -16.55,-38.12 -5.03,-16.63 -6.66,-34.44 -6.66,-51.76 v -10.67 h -91.1 v 10.67 0"
         style="fill:#ffffff;fill-opacity:1;fill-rule:evenodd;stroke:none"
         transform="matrix(0.13333333,0,0,-0.13333333,0,813.25333)" />
    </g>
  </g>
</svg>
