<?xml version="1.0" encoding="UTF-8" standalone="no"?>
<!-- Created with Inkscape (http://www.inkscape.org/) -->

<svg
   version="1.1"
   id="svg1"
   width="595.09332"
   height="640.25336"
   viewBox="0 0 595.09332 640.25336"
   sodipodi:docname="workplace-rpogrammer.svg"
   inkscape:version="1.4 (e7c3feb100, 2024-10-09)"
   xmlns:inkscape="http://www.inkscape.org/namespaces/inkscape"
   xmlns:sodipodi="http://sodipodi.sourceforge.net/DTD/sodipodi-0.dtd"
   xmlns="http://www.w3.org/2000/svg"
   xmlns:svg="http://www.w3.org/2000/svg">
  <defs
     id="defs1" />
  <sodipodi:namedview
     id="namedview1"
     pagecolor="#505050"
     bordercolor="#ffffff"
     borderopacity="1"
     inkscape:showpageshadow="0"
     inkscape:pageopacity="0"
     inkscape:pagecheckerboard="1"
     inkscape:deskcolor="#d1d1d1"
     inkscape:zoom="1.2729336"
     inkscape:cx="297.73745"
     inkscape:cy="320.12668"
     inkscape:window-width="1920"
     inkscape:window-height="1002"
     inkscape:window-x="0"
     inkscape:window-y="0"
     inkscape:window-maximized="1"
     inkscape:current-layer="g1">
    <inkscape:page
       x="0"
       y="0"
       inkscape:label="1"
       id="page1"
       width="595.09332"
       height="640.25336"
       margin="0"
       bleed="0" />
  </sodipodi:namedview>
  <g
     id="g1"
     inkscape:groupmode="layer"
     inkscape:label="1">
    <g
       id="group-R5">
      <path
         id="path2"
         d="m 1370.98,72.9219 c 0,5.457 -0.78,10.1797 -2.41,14.039 -1.57,3.9102 -3.78,6.9297 -6.62,9.0586 -2.83,2.0703 -5.94,3.1289 -9.39,3.1289 -5.45,0 -10.06,-2.2968 -13.81,-6.75 -3.75,-4.5078 -5.62,-11.0976 -5.62,-19.8281 0,-8.2305 1.87,-14.6289 5.56,-19.1406 3.75,-4.5781 8.38,-6.8789 13.87,-6.8789 3.28,0 6.35,0.9883 9.16,3.0195 2.76,1.9883 5.02,4.9688 6.72,8.9102 1.71,4.0195 2.54,8.8086 2.54,14.4414 z m -38.77,30.0901 v -2.492 c 3.71,4.769 7.56,8.332 11.56,10.539 4.02,2.261 8.59,3.402 13.67,3.402 6.08,0 11.68,-1.652 16.81,-4.93 5.11,-3.293 9.15,-8.051 12.14,-14.3826 2.97,-6.3203 4.43,-13.7578 4.43,-22.3789 0,-6.3398 -0.83,-12.25 -2.55,-17.4882 -1.71,-5.3321 -4.07,-9.8321 -7.06,-13.4219 -3,-3.5977 -6.56,-6.3985 -10.61,-8.3086 -4.11,-1.9727 -8.51,-2.9297 -13.16,-2.9297 -5.68,0 -10.43,1.1797 -14.27,3.5508 -3.87,2.3672 -7.51,5.8164 -10.96,10.4179 V 13.6211 C 1332.21,4.53125 1329.03,0 1322.71,0 c -3.73,0 -6.21,1.16016 -7.38,3.48828 -1.22,2.35156 -1.81,5.77344 -1.81,10.25002 v 89.1407 c 0,3.922 0.79,6.871 2.45,8.801 1.67,1.929 3.9,2.922 6.74,2.922 2.8,0 5.08,-0.993 6.84,-3 1.76,-2.02 2.66,-4.883 2.66,-8.59"
         style="fill:#e4a754;fill-opacity:1;fill-rule:nonzero;stroke:none"
         transform="matrix(0.13333333,0,0,-0.13333333,0,640.25333)" />
      <path
         id="path3"
         d="m 1458.13,42.3008 v 2.6094 c -2.39,-3.1211 -4.87,-5.7305 -7.49,-7.8399 -2.6,-2.1484 -5.45,-3.7187 -8.53,-4.7305 -3.13,-1.0312 -6.64,-1.5507 -10.61,-1.5507 -4.75,0 -9.04,1.0429 -12.85,3.082 -3.8,2.0703 -6.74,4.918 -8.79,8.5508 -2.5,4.3867 -3.7,10.6992 -3.7,18.8789 V 102.23 c 0,4.098 0.89,7.219 2.69,9.25 1.78,2.04 4.14,3.071 7.08,3.071 3.01,0 5.41,-1.031 7.25,-3.121 1.84,-2.071 2.75,-5.16 2.75,-9.2 V 69.1484 c 0,-4.75 0.38,-8.7695 1.13,-12.0078 0.81,-3.2617 2.2,-5.8125 4.22,-7.6718 1.96,-1.8204 4.7,-2.7383 8.12,-2.7383 3.37,0 6.5,1.0508 9.43,3.1093 2.97,2.0391 5.13,4.7305 6.46,8.0586 1.12,2.9336 1.66,9.3321 1.66,19.211 V 102.23 c 0,4.04 0.92,7.129 2.78,9.2 1.81,2.09 4.18,3.121 7.15,3.121 2.94,0 5.31,-1.031 7.09,-3.071 1.77,-2.031 2.65,-5.152 2.65,-9.25 V 42.4219 c 0,-3.9336 -0.82,-6.8906 -2.54,-8.8321 -1.7,-1.9882 -3.9,-2.9492 -6.62,-2.9492 -2.69,0 -4.92,1.0391 -6.7,3.0391 -1.76,2.0703 -2.63,4.8984 -2.63,8.6211"
         style="fill:#e4a754;fill-opacity:1;fill-rule:nonzero;stroke:none"
         transform="matrix(0.13333333,0,0,-0.13333333,0,640.25333)" />
      <path
         id="path4"
         d="m 1515.51,72.1016 c 0,-8.211 1.78,-14.5 5.37,-18.9219 3.61,-4.3984 8.34,-6.6289 14.2,-6.6289 4.98,0 9.24,2.2695 12.86,6.7695 3.62,4.5313 5.42,10.9492 5.42,19.3906 0,5.5 -0.75,10.168 -2.26,14.0782 -1.51,3.9609 -3.65,6.9922 -6.37,9.1211 -2.8,2.1406 -5.97,3.2382 -9.65,3.2382 -3.81,0 -7.11,-1.0976 -10.08,-3.2382 -2.97,-2.1289 -5.26,-5.2383 -6.97,-9.3086 -1.69,-4.0313 -2.52,-8.8399 -2.52,-14.5 z m -0.94,61.3784 v -31.558 c 3.67,4.066 7.49,7.129 11.35,9.308 3.87,2.141 8.67,3.231 14.35,3.231 6.59,0 12.34,-1.652 17.29,-4.879 4.94,-3.312 8.81,-7.98 11.52,-14.1601 2.76,-6.1719 4.1,-13.4922 4.1,-21.961 0,-6.2695 -0.75,-11.9921 -2.25,-17.2421 -1.54,-5.1993 -3.72,-9.6993 -6.63,-13.5782 -2.93,-3.8125 -6.45,-6.7422 -10.56,-8.9101 -4.15,-2.0508 -8.7,-3.1094 -13.67,-3.1094 -3.02,0 -5.91,0.3906 -8.61,1.1289 -2.67,0.7617 -4.98,1.75 -6.81,3.0195 -1.92,1.1719 -3.52,2.4922 -4.86,3.7696 -1.31,1.332 -3.05,3.2812 -5.22,5.9023 v -2.0195 c 0,-3.9024 -0.92,-6.8321 -2.7,-8.8321 -1.77,-1.9882 -4.08,-2.9687 -6.8,-2.9687 -2.82,0 -5.04,0.9805 -6.73,2.9687 -1.65,2.0391 -2.48,4.9493 -2.48,8.8321 v 90.1561 c 0,4.152 0.8,7.332 2.44,9.461 1.61,2.152 3.85,3.223 6.77,3.223 3.03,0 5.38,-1.024 7,-3.082 1.66,-2.02 2.5,-4.91 2.5,-8.7"
         style="fill:#e4a754;fill-opacity:1;fill-rule:nonzero;stroke:none"
         transform="matrix(0.13333333,0,0,-0.13333333,0,640.25333)" />
      <path
         id="path5"
         d="m 1587.15,43.1914 v 89.5196 c 0,4.148 0.88,7.258 2.62,9.379 1.79,2.101 4.16,3.172 7.15,3.172 3,0 5.4,-1.032 7.25,-3.141 1.81,-2.082 2.76,-5.242 2.76,-9.41 V 43.1914 c 0,-4.1914 -0.95,-7.3516 -2.81,-9.4609 -1.84,-2.0508 -4.26,-3.1094 -7.2,-3.1094 -2.9,0 -5.22,1.0898 -7.05,3.25 -1.81,2.1797 -2.72,5.2695 -2.72,9.3203"
         style="fill:#e4a754;fill-opacity:1;fill-rule:nonzero;stroke:none"
         transform="matrix(0.13333333,0,0,-0.13333333,0,640.25333)" />
      <path
         id="path6"
         d="M 1647.13,102.82 V 43.1914 c 0,-4.1601 -0.97,-7.293 -2.8,-9.4101 -1.91,-2.0704 -4.31,-3.1602 -7.18,-3.1602 -2.91,0 -5.27,1.0898 -7.07,3.2383 -1.8,2.1914 -2.74,5.2812 -2.74,9.332 V 102.23 c 0,4.04 0.94,7.129 2.74,9.2 1.8,2.09 4.16,3.121 7.07,3.121 2.87,0 5.27,-1.031 7.18,-3.121 1.83,-2.071 2.8,-4.93 2.8,-8.61 z m -9.79,21.34 c -2.75,0 -5.08,0.879 -7.09,2.692 -1.9,1.757 -2.91,4.277 -2.91,7.507 0,2.911 1.01,5.289 3.02,7.219 2,1.891 4.33,2.781 6.98,2.781 2.56,0 4.85,-0.828 6.82,-2.527 1.97,-1.723 2.97,-4.242 2.97,-7.473 0,-3.199 -0.98,-5.679 -2.91,-7.449 -1.93,-1.789 -4.2,-2.75 -6.88,-2.75"
         style="fill:#e4a754;fill-opacity:1;fill-rule:nonzero;stroke:none"
         transform="matrix(0.13333333,0,0,-0.13333333,0,640.25333)" />
      <path
         id="path7"
         d="m 1738.42,56.1914 c 0,-2.5625 -0.72,-5.332 -2.19,-8.25 -1.49,-2.9219 -3.74,-5.6914 -6.77,-8.3516 -3,-2.6289 -6.8,-4.7617 -11.39,-6.3593 -4.59,-1.6524 -9.77,-2.4414 -15.5,-2.4414 -12.24,0 -21.77,3.7304 -28.63,11.1523 -6.85,7.4375 -10.29,17.3789 -10.29,29.8906 0,8.4688 1.56,15.9766 4.69,22.4571 3.13,6.4729 7.71,11.5309 13.63,15.0699 5.93,3.571 13.06,5.352 21.29,5.352 5.14,0 9.85,-0.801 14.12,-2.34 4.27,-1.57 7.89,-3.609 10.86,-6.051 2.97,-2.48 5.24,-5.109 6.82,-7.8981 1.58,-2.793 2.34,-5.4102 2.34,-7.8321 0,-2.4414 -0.9,-4.5312 -2.63,-6.2578 -1.78,-1.7304 -3.89,-2.582 -6.41,-2.582 -1.66,0 -3.01,0.4805 -4.12,1.3594 -1.06,0.8515 -2.29,2.2422 -3.65,4.25 -2.41,3.8203 -4.95,6.7109 -7.57,8.6601 -2.64,1.8907 -5.99,2.8789 -10.01,2.8789 -5.88,0 -10.59,-2.4179 -14.15,-7.1796 -3.59,-4.7891 -5.35,-11.2969 -5.35,-19.5704 0,-3.8476 0.45,-7.4687 1.38,-10.6992 0.91,-3.2578 2.24,-6.0273 3.97,-8.3281 1.75,-2.3008 3.83,-4.0195 6.3,-5.2109 2.46,-1.211 5.17,-1.7813 8.1,-1.7813 3.99,0 7.37,0.9414 10.2,2.8594 2.83,1.9336 5.33,4.8633 7.5,8.75 1.21,2.3711 2.51,4.1719 3.91,5.5 1.42,1.3203 3.14,1.9414 5.16,1.9414 2.41,0 4.41,-0.9414 6.02,-2.8516 1.57,-1.9492 2.37,-3.9765 2.37,-6.1367"
         style="fill:#e4a754;fill-opacity:1;fill-rule:nonzero;stroke:none"
         transform="matrix(0.13333333,0,0,-0.13333333,0,640.25333)" />
      <path
         id="path8"
         d="m 1771.01,72.7109 c 0,-5.6015 0.83,-10.332 2.49,-14.289 1.68,-3.9414 3.92,-6.8633 6.82,-8.8516 2.92,-2.0312 6.09,-3.0195 9.48,-3.0195 3.49,0 6.66,0.9609 9.54,2.8281 2.89,1.9024 5.15,4.8125 6.89,8.7227 1.72,3.8867 2.57,8.7773 2.57,14.6093 0,5.5274 -0.85,10.2188 -2.57,14.1993 -1.74,3.9609 -4.04,6.9804 -6.95,9.1093 -2.93,2.0703 -6.12,3.1289 -9.59,3.1289 -3.62,0 -6.85,-1.0976 -9.71,-3.2382 -2.83,-2.1289 -5.07,-5.2305 -6.63,-9.2383 -1.55,-4.0235 -2.34,-8.6328 -2.34,-13.961 z m 38.87,-30.289 v 2.0195 c -2.65,-3.1797 -5.27,-5.75 -7.89,-7.7226 -2.54,-2.0079 -5.36,-3.5196 -8.38,-4.5586 -3,-1 -6.31,-1.5391 -9.87,-1.5391 -4.73,0 -9.14,1.0586 -13.15,3.1094 -4.03,2.1679 -7.51,5.1211 -10.46,9 -2.94,3.8789 -5.18,8.4414 -6.71,13.6992 -1.54,5.2187 -2.29,10.8984 -2.29,17.0312 0,12.8672 3.03,22.9805 9.07,30.1871 6.05,7.204 13.98,10.813 23.82,10.813 5.7,0 10.51,-1.051 14.42,-3.133 3.9,-1.996 7.73,-5.137 11.44,-9.406 v 30.488 c 0,4.238 0.8,7.442 2.43,9.602 1.62,2.168 3.9,3.25 6.91,3.25 2.99,0 5.29,-1 6.93,-2.973 1.6,-1.98 2.44,-4.93 2.44,-8.809 V 42.4219 c 0,-3.9336 -0.88,-6.8906 -2.62,-8.8321 -1.75,-1.9882 -3.98,-2.9687 -6.75,-2.9687 -2.68,0 -4.94,1.0195 -6.71,3.0586 -1.75,2.0312 -2.63,4.9219 -2.63,8.7422"
         style="fill:#e4a754;fill-opacity:1;fill-rule:nonzero;stroke:none"
         transform="matrix(0.13333333,0,0,-0.13333333,0,640.25333)" />
      <path
         id="path9"
         d="m 1902.64,72.5391 c 0,8.3906 -1.81,14.9609 -5.34,19.6523 -3.55,4.6602 -8.34,7.0274 -14.31,7.0274 -3.89,0 -7.28,-1.0469 -10.23,-3.1407 -2.94,-2.1172 -5.2,-5.207 -6.8,-9.289 -1.58,-4.0391 -2.4,-8.7774 -2.4,-14.25 0,-5.3985 0.82,-10.0899 2.36,-14.1172 1.56,-4.0313 3.82,-7.1211 6.76,-9.2735 2.91,-2.1289 6.37,-3.1875 10.31,-3.1875 5.97,0 10.76,2.3477 14.31,7.0508 3.53,4.6992 5.34,11.2266 5.34,19.5274 z m 19.84,0 c 0,-6.1094 -0.93,-11.7891 -2.75,-17.0196 -1.84,-5.1406 -4.5,-9.6211 -7.95,-13.3593 -3.51,-3.7383 -7.66,-6.5313 -12.48,-8.5704 -4.83,-1.9882 -10.31,-2.9687 -16.31,-2.9687 -5.98,0 -11.38,0.9805 -16.14,3.0273 -4.79,2 -8.95,4.8907 -12.46,8.6524 -3.48,3.7695 -6.13,8.1601 -7.96,13.2812 -1.81,5.1563 -2.71,10.7696 -2.71,16.9961 0,6.25 0.93,11.9727 2.74,17.1328 1.84,5.2305 4.46,9.6289 7.9,13.3401 3.43,3.668 7.57,6.508 12.49,8.488 4.89,2 10.24,3.012 16.14,3.012 5.99,0 11.43,-1.012 16.31,-3.039 4.86,-2 9.04,-4.903 12.52,-8.633 3.49,-3.7306 6.13,-8.1876 7.91,-13.3282 1.85,-5.1289 2.75,-10.8125 2.75,-17.0117"
         style="fill:#e4a754;fill-opacity:1;fill-rule:nonzero;stroke:none"
         transform="matrix(0.13333333,0,0,-0.13333333,0,640.25333)" />
      <path
         id="path10"
         d="m 2006.02,89.5898 c -1.49,-3.4804 -2.19,-9.6406 -2.19,-18.5117 V 43.6484 c 0,-4.3164 -0.93,-7.5976 -2.83,-9.7773 -1.88,-2.1602 -4.4,-3.25 -7.48,-3.25 -2.97,0 -5.39,1.0898 -7.24,3.25 -1.87,2.1797 -2.77,5.4609 -2.77,9.7773 v 32.9297 c 0,5.1719 -0.2,9.2032 -0.54,12.1133 -0.34,2.8399 -1.25,5.207 -2.76,7.0586 -1.46,1.8516 -3.84,2.7695 -7.07,2.7695 -6.46,0 -10.72,-2.3203 -12.79,-6.9882 -2.07,-4.6211 -3.05,-11.2813 -3.05,-19.9727 V 43.6484 c 0,-4.3086 -0.95,-7.5468 -2.79,-9.6992 -1.87,-2.2383 -4.32,-3.3281 -7.33,-3.3281 -3.02,0 -5.5,1.0898 -7.39,3.3281 -1.93,2.1524 -2.84,5.3906 -2.84,9.6914 v 59.0704 c 0,3.898 0.82,6.848 2.52,8.859 1.74,2 4,3.032 6.82,3.032 2.69,0 4.96,-0.93 6.76,-2.832 1.8,-1.879 2.71,-4.481 2.71,-7.821 v -1.961 c 3.42,4.282 7.1,7.453 11,9.442 3.9,2.011 8.3,3.031 13.04,3.031 4.97,0 9.22,-1.051 12.8,-3.133 3.59,-2.039 6.52,-5.168 8.83,-9.34 3.34,4.203 6.91,7.371 10.74,9.403 3.82,2.05 8.04,3.07 12.65,3.07 5.45,0 10.1,-1.09 13.99,-3.34 3.92,-2.223 6.83,-5.383 8.78,-9.519 1.7,-3.7309 2.53,-9.602 2.53,-17.6411 V 43.6484 c 0,-4.3164 -0.94,-7.5976 -2.8,-9.7773 -1.92,-2.1602 -4.38,-3.25 -7.48,-3.25 -3,0 -5.45,1.0898 -7.34,3.3281 -1.93,2.1524 -2.89,5.3906 -2.89,9.6992 v 34.7305 c 0,4.4492 -0.18,7.9922 -0.53,10.6719 -0.37,2.6992 -1.35,4.9101 -2.96,6.7383 -1.58,1.8125 -4.01,2.7304 -7.21,2.7304 -2.61,0 -5.1,-0.8203 -7.41,-2.3906 -2.38,-1.6406 -4.16,-3.8086 -5.48,-6.5391 v 0"
         style="fill:#e4a754;fill-opacity:1;fill-rule:nonzero;stroke:none"
         transform="matrix(0.13333333,0,0,-0.13333333,0,640.25333)" />
      <path
         id="path11"
         d="m 2118.03,72.1484 c -2.91,-1.1289 -7.13,-2.2695 -12.66,-3.5273 -5.54,-1.2305 -9.36,-2.1328 -11.49,-2.7305 -2.13,-0.5898 -4.16,-1.7187 -6.07,-3.3906 -1.95,-1.7305 -2.93,-4.0781 -2.93,-7.1016 0,-3.1601 1.16,-5.7968 3.4,-7.9882 2.29,-2.2188 5.26,-3.2891 8.94,-3.2891 3.9,0 7.54,0.8984 10.83,2.6875 3.31,1.7812 5.76,4.1133 7.27,6.9219 1.8,3.1289 2.71,8.2578 2.71,15.4804 z m 1.29,-29.8984 c -4.8,-3.8906 -9.42,-6.7891 -13.88,-8.6992 -4.45,-1.9727 -9.49,-2.9297 -15.02,-2.9297 -5.11,0 -9.52,1.0586 -13.39,3.1094 -3.87,2.1093 -6.8,4.9609 -8.89,8.5703 -2.05,3.5703 -3.11,7.418 -3.11,11.6211 0,5.6484 1.76,10.4492 5.18,14.4375 3.39,3.9609 8.1,6.6406 14.09,8.0117 1.26,0.3008 4.39,0.957 9.33,2.0078 5.03,1.1016 9.25,2.043 12.85,2.9219 3.52,0.8711 7.4,1.9492 11.55,3.1992 -0.26,5.4688 -1.3,9.4609 -3.15,12.0586 -1.88,2.5195 -5.76,3.7694 -11.57,3.7694 -5.05,0 -8.81,-0.7186 -11.38,-2.1796 -2.52,-1.4492 -4.7,-3.6601 -6.49,-6.6171 -1.84,-2.9024 -3.09,-4.8516 -3.84,-5.7618 -0.77,-0.9609 -2.38,-1.3789 -4.8,-1.3789 -2.26,0 -4.16,0.7305 -5.76,2.1992 -1.65,1.5 -2.45,3.379 -2.45,5.7305 0,3.6211 1.23,7.1797 3.69,10.5587 2.47,3.441 6.31,6.262 11.52,8.512 5.21,2.218 11.73,3.32 19.51,3.32 8.67,0 15.52,-1.102 20.53,-3.231 4.96,-2.121 8.44,-5.492 10.51,-10.171 2.07,-4.6098 3.08,-10.7777 3.08,-18.4301 0,-4.8398 0,-8.9805 -0.03,-12.3398 -0.04,-3.3985 -0.06,-7.1485 -0.11,-11.2774 0,-3.8633 0.62,-7.9336 1.86,-12.1211 1.2,-4.2109 1.82,-6.9297 1.82,-8.1093 0,-2.1329 -0.97,-4.0625 -2.86,-5.8008 -1.87,-1.7305 -4.06,-2.6094 -6.46,-2.6094 -2.06,0 -4.02,0.9805 -6.03,2.9687 -1.98,2 -4.08,4.8985 -6.3,8.6602"
         style="fill:#e4a754;fill-opacity:1;fill-rule:nonzero;stroke:none"
         transform="matrix(0.13333333,0,0,-0.13333333,0,640.25333)" />
      <path
         id="path12"
         d="M 2177.3,102.82 V 43.1914 c 0,-4.1601 -0.94,-7.293 -2.8,-9.4101 -1.88,-2.0704 -4.26,-3.1602 -7.17,-3.1602 -2.89,0 -5.27,1.0898 -7.06,3.2383 -1.83,2.1914 -2.74,5.2812 -2.74,9.332 V 102.23 c 0,4.04 0.91,7.129 2.74,9.2 1.79,2.09 4.17,3.121 7.06,3.121 2.91,0 5.29,-1.031 7.17,-3.121 1.86,-2.071 2.8,-4.93 2.8,-8.61 z m -9.77,21.34 c -2.73,0 -5.07,0.879 -7.03,2.692 -1.96,1.757 -2.97,4.277 -2.97,7.507 0,2.911 1.02,5.289 3.04,7.219 1.98,1.891 4.33,2.781 6.96,2.781 2.57,0 4.86,-0.828 6.85,-2.527 1.95,-1.723 2.92,-4.242 2.92,-7.473 0,-3.199 -0.94,-5.679 -2.89,-7.449 -1.93,-1.789 -4.22,-2.75 -6.88,-2.75"
         style="fill:#e4a754;fill-opacity:1;fill-rule:nonzero;stroke:none"
         transform="matrix(0.13333333,0,0,-0.13333333,0,640.25333)" />
      <path
         id="path13"
         d="m 2215.74,103.121 v -2.461 c 3.46,4.762 7.26,8.281 11.36,10.52 4.14,2.23 8.89,3.371 14.28,3.371 5.18,0 9.87,-1.18 14,-3.582 4.06,-2.348 7.15,-5.68 9.16,-10 1.32,-2.5471 2.14,-5.2893 2.55,-8.1995 0.36,-2.8984 0.59,-6.6289 0.59,-11.1797 V 43.1914 c 0,-4.1601 -0.94,-7.293 -2.74,-9.4101 -1.81,-2.0704 -4.18,-3.1602 -7.06,-3.1602 -2.94,0 -5.34,1.0898 -7.11,3.25 -1.86,2.1797 -2.8,5.2695 -2.8,9.3203 v 34.3672 c 0,6.8516 -0.88,12.0312 -2.69,15.6328 -1.84,3.5977 -5.47,5.4297 -10.88,5.4297 -3.51,0 -6.72,-1.1094 -9.61,-3.3125 -2.9,-2.168 -5.02,-5.1992 -6.37,-9.0391 -0.97,-3.0703 -1.48,-8.789 -1.48,-17.2578 V 43.1914 c 0,-4.1914 -0.9,-7.3516 -2.78,-9.4609 -1.87,-2.0508 -4.27,-3.1094 -7.2,-3.1094 -2.83,0 -5.19,1.0898 -7.02,3.2383 -1.86,2.1914 -2.76,5.2812 -2.76,9.332 V 102.82 c 0,3.95 0.81,6.852 2.48,8.809 1.6,1.941 3.9,2.922 6.74,2.922 1.71,0 3.3,-0.461 4.67,-1.289 1.45,-0.84 2.53,-2.172 3.38,-3.821 0.82,-1.761 1.29,-3.851 1.29,-6.32"
         style="fill:#e4a754;fill-opacity:1;fill-rule:nonzero;stroke:none"
         transform="matrix(0.13333333,0,0,-0.13333333,0,640.25333)" />
      <path
         id="path14"
         d="m 2299.41,101.699 15.98,-46.8709 17.25,48.9099 c 1.37,3.942 2.69,6.692 4.01,8.344 1.34,1.637 3.28,2.469 5.93,2.469 2.51,0 4.64,-0.879 6.44,-2.68 1.73,-1.75 2.62,-3.762 2.62,-6.133 0,-0.886 -0.18,-1.937 -0.49,-3.117 -0.28,-1.242 -0.64,-2.371 -1.07,-3.4608 -0.42,-1.0118 -0.85,-2.2383 -1.42,-3.5899 l -18.97,-49.1484 c -0.54,-1.4024 -1.24,-3.211 -2.06,-5.3906 -0.86,-2.1524 -1.82,-3.961 -2.84,-5.5704 -1.05,-1.5117 -2.32,-2.6718 -3.82,-3.539 -1.56,-0.8633 -3.4,-1.3008 -5.58,-1.3008 -2.8,0 -5.02,0.6602 -6.71,1.9805 -1.67,1.3476 -2.9,2.7968 -3.69,4.4179 -0.78,1.5586 -2.15,4.711 -4.01,9.4024 l -18.86,48.6094 c -0.43,1.1992 -0.9,2.4179 -1.37,3.6289 -0.44,1.2109 -0.79,2.4098 -1.13,3.6988 -0.3,1.289 -0.48,2.36 -0.48,3.231 0,1.449 0.41,2.832 1.25,4.219 0.82,1.402 1.96,2.55 3.4,3.41 1.47,0.871 3.01,1.332 4.73,1.332 3.26,0 5.52,-0.981 6.76,-2.981 1.24,-1.961 2.63,-5.25 4.13,-9.871"
         style="fill:#e4a754;fill-opacity:1;fill-rule:nonzero;stroke:none"
         transform="matrix(0.13333333,0,0,-0.13333333,0,640.25333)" />
      <path
         id="path15"
         d="m 2380.31,79.2813 h 35.85 c -0.46,7.0273 -2.26,12.3203 -5.46,15.7968 -3.17,3.4922 -7.34,5.2499 -12.52,5.2499 -4.89,0 -8.95,-1.7772 -12.1,-5.328 -3.16,-3.5312 -5.05,-8.7812 -5.77,-15.7187 z m 38.69,-11.75 h -38.69 c 0.01,-4.7032 0.96,-8.8204 2.69,-12.4297 1.79,-3.543 4.12,-6.25 7.05,-8.0821 2.92,-1.8281 6.15,-2.7109 9.69,-2.7109 2.35,0 4.54,0.2812 6.46,0.8516 1.95,0.6093 3.87,1.5 5.72,2.7304 1.81,1.2383 3.48,2.5196 5.04,3.9883 1.53,1.4102 3.6,3.293 6.02,5.7227 1.02,0.957 2.48,1.3789 4.34,1.3789 2.06,0 3.69,-0.5586 4.95,-1.75 1.26,-1.1602 1.85,-2.7813 1.85,-4.8907 0,-1.8789 -0.68,-4.0507 -2.1,-6.5703 -1.39,-2.4609 -3.46,-4.8789 -6.34,-7.1914 -2.83,-2.2773 -6.37,-4.1484 -10.65,-5.6992 -4.25,-1.5078 -9.14,-2.2578 -14.75,-2.2578 -12.68,0 -22.57,3.8086 -29.6,11.3281 -7.04,7.6094 -10.55,17.8321 -10.55,30.7617 0,6.168 0.9,11.7891 2.59,16.9883 1.74,5.2422 4.26,9.6992 7.6,13.4218 3.34,3.75 7.42,6.629 12.32,8.59 4.9,2.008 10.28,3 16.25,3 7.67,0 14.32,-1.699 19.85,-5.129 5.55,-3.391 9.68,-7.762 12.43,-13.1406 2.76,-5.4297 4.13,-10.9023 4.13,-16.5312 0,-5.1602 -1.38,-8.5313 -4.26,-10.0508 -2.88,-1.5586 -6.86,-2.3281 -12.04,-2.3281"
         style="fill:#e4a754;fill-opacity:1;fill-rule:nonzero;stroke:none"
         transform="matrix(0.13333333,0,0,-0.13333333,0,640.25333)" />
      <path
         id="path16"
         d="m 2522.93,56.1914 c 0,-2.5625 -0.73,-5.332 -2.24,-8.25 -1.48,-2.9219 -3.68,-5.6914 -6.73,-8.3516 -3,-2.6289 -6.84,-4.7617 -11.44,-6.3593 -4.56,-1.6524 -9.76,-2.4414 -15.46,-2.4414 -12.26,0 -21.8,3.7304 -28.64,11.1523 -6.84,7.4375 -10.29,17.3789 -10.29,29.8906 0,8.4688 1.56,15.9766 4.72,22.4571 3.15,6.4729 7.65,11.5309 13.61,15.0699 5.91,3.571 13.04,5.352 21.31,5.352 5.12,0 9.8,-0.801 14.11,-2.34 4.26,-1.57 7.86,-3.609 10.86,-6.051 2.97,-2.48 5.22,-5.109 6.81,-7.8981 1.55,-2.793 2.34,-5.4102 2.34,-7.8321 0,-2.4414 -0.85,-4.5312 -2.68,-6.2578 -1.74,-1.7304 -3.87,-2.582 -6.38,-2.582 -1.65,0 -3.01,0.4805 -4.07,1.3594 -1.11,0.8515 -2.32,2.2422 -3.69,4.25 -2.41,3.8203 -4.92,6.7109 -7.56,8.6601 -2.64,1.8907 -5.98,2.8789 -10.05,2.8789 -5.81,0 -10.54,-2.4179 -14.1,-7.1796 -3.6,-4.7891 -5.38,-11.2969 -5.38,-19.5704 0,-3.8476 0.49,-7.4687 1.37,-10.6992 0.92,-3.2578 2.26,-6.0273 4.01,-8.3281 1.73,-2.3008 3.85,-4.0195 6.31,-5.2109 2.42,-1.211 5.13,-1.7813 8.1,-1.7813 3.96,0 7.37,0.9414 10.19,2.8594 2.81,1.9336 5.33,4.8633 7.51,8.75 1.21,2.3711 2.49,4.1719 3.91,5.5 1.38,1.3203 3.08,1.9414 5.14,1.9414 2.38,0 4.43,-0.9414 5.96,-2.8516 1.63,-1.9492 2.45,-3.9765 2.45,-6.1367"
         style="fill:#e4a754;fill-opacity:1;fill-rule:nonzero;stroke:none"
         transform="matrix(0.13333333,0,0,-0.13333333,0,640.25333)" />
      <path
         id="path17"
         d="m 2541.29,112.809 h 2.18 v 12.41 c 0,3.301 0.08,5.941 0.26,7.812 0.17,1.899 0.61,3.489 1.42,4.867 0.75,1.391 1.86,2.551 3.34,3.454 1.43,0.859 3.04,1.277 4.83,1.277 2.5,0 4.79,-0.969 6.8,-2.918 1.33,-1.332 2.2,-2.91 2.57,-4.781 0.37,-1.899 0.53,-4.61 0.53,-8.078 v -14.043 h 7.27 c 2.8,0 4.95,-0.707 6.41,-2.09 1.51,-1.387 2.22,-3.149 2.22,-5.321 0,-2.777 -1.04,-4.738 -3.17,-5.8277 -2.09,-1.0898 -5.1,-1.6601 -9.02,-1.6601 h -3.71 V 59.8984 c 0,-3.2382 0.12,-5.7265 0.32,-7.4765 0.26,-1.75 0.87,-3.1719 1.79,-4.2227 0.91,-1.0898 2.45,-1.6484 4.59,-1.6484 1.15,0 2.72,0.1992 4.72,0.6484 1.93,0.4219 3.49,0.6406 4.62,0.6406 1.58,0 3.06,-0.6992 4.32,-1.9687 1.25,-1.3711 1.91,-2.9922 1.91,-4.9805 0,-3.3125 -1.7,-5.8593 -5.21,-7.6211 -3.51,-1.7695 -8.49,-2.6484 -14.99,-2.6484 -6.19,0 -10.89,1.0898 -14.07,3.25 -3.17,2.1797 -5.29,5.1602 -6.25,9.0273 -1.01,3.8321 -1.5,8.9414 -1.5,15.3516 v 39.6602 h -2.63 c -2.8,0 -4.98,0.7109 -6.49,2.1288 -1.51,1.41 -2.24,3.18 -2.24,5.359 0,2.172 0.77,3.934 2.32,5.321 1.6,1.383 3.86,2.09 6.86,2.09"
         style="fill:#e4a754;fill-opacity:1;fill-rule:nonzero;stroke:none"
         transform="matrix(0.13333333,0,0,-0.13333333,0,640.25333)" />
      <path
         id="path18"
         d="m 2646.89,72.5391 c 0,8.3906 -1.79,14.9609 -5.32,19.6523 -3.58,4.6602 -8.31,7.0274 -14.31,7.0274 -3.88,0 -7.28,-1.0469 -10.21,-3.1407 -2.97,-2.1172 -5.23,-5.207 -6.82,-9.289 -1.59,-4.0391 -2.4,-8.7774 -2.4,-14.25 0,-5.3985 0.81,-10.0899 2.38,-14.1172 1.56,-4.0313 3.79,-7.1211 6.71,-9.2735 2.91,-2.1289 6.36,-3.1875 10.34,-3.1875 6,0 10.73,2.3477 14.31,7.0508 3.53,4.6992 5.32,11.2266 5.32,19.5274 z m 19.86,0 c 0,-6.1094 -0.91,-11.7891 -2.78,-17.0196 -1.81,-5.1406 -4.49,-9.6211 -7.94,-13.3593 -3.49,-3.7383 -7.65,-6.5313 -12.47,-8.5704 -4.84,-1.9882 -10.24,-2.9687 -16.3,-2.9687 -6.02,0 -11.41,0.9805 -16.18,3.0273 -4.76,2 -8.92,4.8907 -12.42,8.6524 -3.48,3.7695 -6.15,8.1601 -7.94,13.2812 -1.8,5.1563 -2.69,10.7696 -2.69,16.9961 0,6.25 0.89,11.9727 2.69,17.1328 1.88,5.2305 4.48,9.6289 7.9,13.3401 3.46,3.668 7.6,6.508 12.46,8.488 4.94,2 10.31,3.012 16.18,3.012 6,0 11.4,-1.012 16.3,-3.039 4.88,-2 9.04,-4.903 12.52,-8.633 3.45,-3.7306 6.15,-8.1876 7.95,-13.3282 1.81,-5.1289 2.72,-10.8125 2.72,-17.0117"
         style="fill:#e4a754;fill-opacity:1;fill-rule:nonzero;stroke:none"
         transform="matrix(0.13333333,0,0,-0.13333333,0,640.25333)" />
      <path
         id="path19"
         d="M 2701.98,60.3789 V 43.1914 c 0,-4.1914 -0.94,-7.3516 -2.83,-9.4609 -1.89,-2.0508 -4.28,-3.1094 -7.2,-3.1094 -2.81,0 -5.18,1.0898 -7,3.1602 -1.83,2.1171 -2.73,5.25 -2.73,9.4101 v 57.4496 c 0,9.289 3.19,13.91 9.62,13.91 3.25,0 5.63,-1.11 7.11,-3.25 1.42,-2.16 2.18,-5.379 2.38,-9.602 2.35,4.223 4.8,7.442 7.29,9.602 2.49,2.14 5.79,3.25 9.92,3.25 4.19,0 8.21,-1.11 12.14,-3.25 3.89,-2.16 5.87,-5.063 5.87,-8.621 0,-2.52 -0.86,-4.6292 -2.52,-6.2386 -1.65,-1.6328 -3.45,-2.4805 -5.41,-2.4805 -0.71,0 -2.47,0.4805 -5.24,1.4375 -2.79,0.9102 -5.25,1.3907 -7.38,1.3907 -2.87,0 -5.24,-0.7696 -7.05,-2.3907 -1.85,-1.6093 -3.29,-3.9375 -4.29,-7.0468 -1.02,-3.1719 -1.75,-6.8711 -2.11,-11.2032 -0.37,-4.2773 -0.57,-9.5195 -0.57,-15.7695"
         style="fill:#e4a754;fill-opacity:1;fill-rule:nonzero;stroke:none"
         transform="matrix(0.13333333,0,0,-0.13333333,0,640.25333)" />
      <path
         id="path20"
         d="m 2807.33,57.5898 c 0,-5.7109 -1.32,-10.5703 -4.01,-14.6406 -2.67,-4.0703 -6.58,-7.1094 -11.78,-9.2187 -5.21,-2.0508 -11.5,-3.1094 -18.98,-3.1094 -7.04,0 -13.17,1.1289 -18.25,3.418 -5.07,2.2617 -8.82,5.082 -11.21,8.4726 -2.45,3.3867 -3.69,6.8086 -3.69,10.2188 0,2.2578 0.8,4.2187 2.38,5.8281 1.53,1.6406 3.5,2.4102 5.84,2.4102 2.09,0 3.7,-0.5391 4.8,-1.5586 1.11,-1.1211 2.15,-2.5782 3.2,-4.4883 2.02,-3.6914 4.43,-6.4414 7.3,-8.2617 2.78,-1.8321 6.64,-2.7305 11.56,-2.7305 3.94,0 7.19,0.9297 9.74,2.7695 2.52,1.8399 3.83,3.9414 3.83,6.3125 0,3.6485 -1.34,6.3086 -3.95,7.9492 -2.67,1.6993 -6.98,3.2774 -13.03,4.7891 -6.8,1.7617 -12.36,3.6211 -16.64,5.5391 -4.27,1.9609 -7.73,4.5312 -10.27,7.7109 -2.56,3.1211 -3.86,7.0586 -3.86,11.6992 0,4.1602 1.19,8.0625 3.57,11.7228 2.35,3.687 5.89,6.617 10.49,8.808 4.6,2.211 10.16,3.321 16.71,3.321 5.1,0 9.7,-0.571 13.8,-1.672 4.08,-1.109 7.53,-2.609 10.22,-4.457 2.72,-1.871 4.82,-3.934 6.24,-6.192 1.44,-2.2886 2.15,-4.5112 2.15,-6.6597 0,-2.3789 -0.75,-4.2812 -2.3,-5.8594 -1.53,-1.4414 -3.71,-2.2226 -6.46,-2.2226 -2.06,0 -3.78,0.6015 -5.23,1.8437 -1.39,1.1875 -3.05,2.9883 -4.87,5.3789 -1.5,2.0196 -3.25,3.6485 -5.3,4.8594 -2.04,1.1917 -4.79,1.8087 -8.25,1.8087 -3.58,0 -6.58,-0.777 -8.9,-2.3907 -2.39,-1.5664 -3.58,-3.5664 -3.58,-5.9375 0,-2.1797 0.88,-3.9414 2.59,-5.332 1.77,-1.3907 4.09,-2.5391 7.05,-3.4493 2.97,-0.9101 7.01,-2.039 12.19,-3.3398 6.14,-1.5508 11.14,-3.4102 15.04,-5.5781 3.89,-2.1524 6.82,-4.7227 8.83,-7.6719 2.04,-2.9805 3.03,-6.3399 3.03,-10.0899"
         style="fill:#e4a754;fill-opacity:1;fill-rule:nonzero;stroke:none"
         transform="matrix(0.13333333,0,0,-0.13333333,0,640.25333)" />
      <path
         id="path21"
         d="m 2829.79,30.6211 c -2.99,0 -5.58,0.9805 -7.73,3.0273 -2.21,2 -3.28,4.8399 -3.28,8.4336 0,3.0782 1.01,5.7266 3.08,7.9493 2.08,2.207 4.65,3.289 7.7,3.289 3.03,0 5.64,-1.082 7.73,-3.2812 2.18,-2.1485 3.27,-4.8477 3.27,-7.9571 0,-3.5625 -1.09,-6.3711 -3.27,-8.4023 -2.09,-2.0391 -4.6,-3.0586 -7.5,-3.0586"
         style="fill:#e4a754;fill-opacity:1;fill-rule:nonzero;stroke:none"
         transform="matrix(0.13333333,0,0,-0.13333333,0,640.25333)" />
      <path
         id="path22"
         d="m 2917.26,72.5391 c 0,8.3906 -1.79,14.9609 -5.34,19.6523 -3.55,4.6602 -8.31,7.0274 -14.28,7.0274 -3.88,0 -7.25,-1.0469 -10.21,-3.1407 -2.96,-2.1172 -5.22,-5.207 -6.8,-9.289 -1.58,-4.0391 -2.39,-8.7774 -2.39,-14.25 0,-5.3985 0.76,-10.0899 2.33,-14.1172 1.61,-4.0313 3.83,-7.1211 6.76,-9.2735 2.91,-2.1289 6.34,-3.1875 10.31,-3.1875 5.97,0 10.73,2.3477 14.28,7.0508 3.55,4.6992 5.34,11.2266 5.34,19.5274 z m 19.87,0 c 0,-6.1094 -0.91,-11.7891 -2.77,-17.0196 -1.85,-5.1406 -4.48,-9.6211 -7.96,-13.3593 -3.51,-3.7383 -7.61,-6.5313 -12.46,-8.5704 -4.82,-1.9882 -10.25,-2.9687 -16.3,-2.9687 -5.99,0 -11.37,0.9805 -16.16,3.0273 -4.78,2 -8.9,4.8907 -12.4,8.6524 -3.55,3.7695 -6.19,8.1601 -8.03,13.2812 -1.76,5.1563 -2.67,10.7696 -2.67,16.9961 0,6.25 0.91,11.9727 2.75,17.1328 1.87,5.2305 4.46,9.6289 7.87,13.3401 3.43,3.668 7.59,6.508 12.48,8.488 4.88,2 10.23,3.012 16.16,3.012 5.97,0 11.41,-1.012 16.3,-3.039 4.9,-2 9.06,-4.903 12.54,-8.633 3.46,-3.7306 6.1,-8.1876 7.93,-13.3282 1.81,-5.1289 2.72,-10.8125 2.72,-17.0117"
         style="fill:#e4a754;fill-opacity:1;fill-rule:nonzero;stroke:none"
         transform="matrix(0.13333333,0,0,-0.13333333,0,640.25333)" />
      <path
         id="path23"
         d="M 2972.35,60.3789 V 43.1914 c 0,-4.1914 -0.93,-7.3516 -2.82,-9.4609 -1.85,-2.0508 -4.28,-3.1094 -7.15,-3.1094 -2.89,0 -5.2,1.0898 -7.05,3.1602 -1.85,2.1171 -2.76,5.25 -2.76,9.4101 v 57.4496 c 0,9.289 3.25,13.91 9.65,13.91 3.29,0 5.63,-1.11 7.08,-3.25 1.42,-2.16 2.27,-5.379 2.44,-9.602 2.32,4.223 4.74,7.442 7.23,9.602 2.49,2.14 5.82,3.25 9.95,3.25 4.21,0 8.25,-1.11 12.12,-3.25 3.91,-2.16 5.88,-5.063 5.88,-8.621 0,-2.52 -0.84,-4.6292 -2.49,-6.2386 -1.69,-1.6328 -3.45,-2.4805 -5.43,-2.4805 -0.7,0 -2.44,0.4805 -5.21,1.4375 -2.79,0.9102 -5.25,1.3907 -7.39,1.3907 -2.88,0 -5.23,-0.7696 -7.11,-2.3907 -1.81,-1.6093 -3.25,-3.9375 -4.27,-7.0468 -0.99,-3.1719 -1.7,-6.8711 -2.07,-11.2032 -0.39,-4.2773 -0.6,-9.5195 -0.6,-15.7695"
         style="fill:#e4a754;fill-opacity:1;fill-rule:nonzero;stroke:none"
         transform="matrix(0.13333333,0,0,-0.13333333,0,640.25333)" />
      <path
         id="path24"
         d="m 3029.46,73.2617 c 0,-8.3515 1.76,-14.6914 5.28,-19 3.47,-4.2617 8.03,-6.4219 13.55,-6.4219 3.26,0 6.41,0.9493 9.32,2.7891 2.93,1.8516 5.3,4.6094 7.15,8.3203 1.85,3.711 2.74,8.1914 2.74,13.4805 0,8.4101 -1.79,14.9609 -5.33,19.6406 -3.54,4.7188 -8.21,7.0781 -14.01,7.0781 -5.63,0 -10.17,-2.2968 -13.56,-6.75 -3.43,-4.5 -5.14,-10.8671 -5.14,-19.1367 z m 57.34,26.1797 V 39.4492 c 0,-6.8789 -0.76,-12.7695 -2.12,-17.6797 -1.41,-4.9687 -3.65,-9.0507 -6.74,-12.2695 -3.09,-3.21875 -7.16,-5.60937 -12.12,-7.17187 C 3060.81,0.800781 3054.58,0 3047.16,0 c -6.83,0 -12.93,0.960938 -18.26,2.94922 -5.37,2.03906 -9.52,4.58203 -12.41,7.76168 -2.89,3.1094 -4.35,6.3594 -4.35,9.711 0,2.5195 0.8,4.5586 2.49,6.1484 1.62,1.6289 3.6,2.4102 5.92,2.4102 2.91,0 5.41,-1.3516 7.62,-4 1.07,-1.4102 2.18,-2.7696 3.29,-4.1407 1.13,-1.3906 2.39,-2.6015 3.75,-3.5585 1.39,-1.0196 3.07,-1.7305 5,-2.2227 1.89,-0.4766 4.15,-0.7188 6.67,-0.7188 5.07,0 9.1,0.7618 11.9,2.2383 2.83,1.4805 4.81,3.5625 5.97,6.2305 1.08,2.6719 1.8,5.5117 1.92,8.5703 0.23,3.1094 0.37,7.9609 0.51,14.75 -3.05,-4.4297 -6.61,-7.8086 -10.56,-10.1289 -3.98,-2.3203 -8.75,-3.4609 -14.21,-3.4609 -6.68,0 -12.46,1.7304 -17.38,5.289 -4.97,3.5235 -8.78,8.4414 -11.43,14.8203 -2.62,6.3321 -3.98,13.6602 -3.98,21.9922 0,6.2305 0.79,11.8399 2.44,16.8282 1.58,4.9726 3.88,9.1912 6.92,12.6212 2.96,3.422 6.44,6.012 10.35,7.762 3.93,1.718 8.18,2.609 12.91,2.609 5.57,0 10.43,-1.141 14.53,-3.402 4.16,-2.207 7.93,-5.77 11.46,-10.539 v 2.781 c 0,3.597 0.88,6.34 2.54,8.371 1.68,1.937 3.87,2.93 6.52,2.93 3.82,0 6.35,-1.282 7.62,-3.883 1.24,-2.61 1.89,-6.379 1.89,-11.2776"
         style="fill:#e4a754;fill-opacity:1;fill-rule:nonzero;stroke:none"
         transform="matrix(0.13333333,0,0,-0.13333333,0,640.25333)" />
      <path
         id="path25"
         d="m 2229.53,300.43 h 29.34 c -2.07,-15.809 -8.56,-28.149 -19.34,-37.039 -9.97,-8.7 -22.05,-12.993 -36.16,-12.993 -19.16,0 -34.45,6.731 -45.87,20.161 -10.82,12.773 -16.22,29.281 -16.22,49.421 0,20.661 5.36,37.161 16.06,49.668 10.7,12.442 25.82,18.704 45.37,18.704 14.55,0 26.85,-3.93 36.82,-11.731 10.59,-8.441 17.05,-20.301 19.34,-35.473 h -29.34 c -2.54,13.243 -10.61,19.821 -24.37,19.821 -22.68,0 -34.04,-13.43 -34.04,-40.297 0,-12.602 2.92,-22.871 8.75,-30.891 5.83,-8.043 14.06,-12.062 24.66,-12.062 15.81,0 24.15,7.59 25,22.711 z m -115.49,18.519 c 0,-26.258 8.33,-48.488 24.95,-66.59 16.65,-18.109 37.03,-27.168 61.21,-27.168 24.07,0 44.46,9.059 61.08,27.168 16.67,18.102 24.94,40.332 24.94,66.59 0,26.242 -8.27,48.449 -24.94,66.563 -16.62,18.148 -37.01,27.187 -61.08,27.187 -24.18,0 -44.56,-9.039 -61.21,-27.187 -16.62,-18.114 -24.95,-40.321 -24.95,-66.563 z m -29.8,0 c 0,33.41 11.31,61.922 33.93,85.621 22.66,23.649 50,35.469 82.03,35.469 31.94,0 59.24,-11.82 81.92,-35.469 22.65,-23.699 33.98,-52.211 33.98,-85.621 0,-33.437 -11.33,-61.988 -33.98,-85.629 -22.68,-23.679 -49.98,-35.511 -81.92,-35.511 -32.03,0 -59.37,11.832 -82.03,35.511 -22.62,23.641 -33.93,52.192 -33.93,85.629"
         style="fill:#e4a754;fill-opacity:1;fill-rule:nonzero;stroke:none"
         transform="matrix(0.13333333,0,0,-0.13333333,0,640.25333)" />
      <path
         id="path26"
         d="m 2131.15,243 16.92,-14.34 124.33,159.66 -16.9,14.328 L 2131.15,243"
         style="fill:#e4a754;fill-opacity:1;fill-rule:nonzero;stroke:none"
         transform="matrix(0.13333333,0,0,-0.13333333,0,640.25333)" />
      <path
         id="path27"
         d="M 314.535,942.789 H 4173.59 V 4801.86 H 314.535 V 942.789"
         style="fill:#e9cfaf;fill-opacity:1;fill-rule:evenodd;stroke:none"
         transform="matrix(0.13333333,0,0,-0.13333333,0,640.25333)" />
      <path
         id="path28"
         d="m 4463.24,3424.97 c 0,19.2 -7.63,37.62 -21.23,51.21 -13.54,13.59 -32.01,21.21 -51.22,21.21 -528.84,0 -3789.52,0 -4318.3603,0 -19.2109,0 -37.6289,-7.62 -51.2188,-21.21 C 7.625,3462.59 0,3444.17 0,3424.97 0,3179.68 0,2381.95 0,2136.66 c 0,-19.21 7.625,-37.63 21.2109,-51.23 13.5899,-13.57 32.0079,-21.2 51.2188,-21.2 528.8403,0 3789.5203,0 4318.3603,0 19.21,0 37.68,7.63 51.22,21.2 13.6,13.6 21.23,32.02 21.23,51.23 v 1288.31"
         style="fill:#d7ab8d;fill-opacity:1;fill-rule:evenodd;stroke:none"
         transform="matrix(0.13333333,0,0,-0.13333333,0,640.25333)" />
      <path
         id="path29"
         d="m 4463.24,3497.18 c 0,19.21 -7.63,37.63 -21.23,51.22 -13.54,13.59 -32.01,21.21 -51.22,21.21 -528.84,0 -3789.52,0 -4318.3603,0 -19.2109,0 -37.6289,-7.62 -51.2188,-21.21 C 7.625,3534.81 0,3516.39 0,3497.18 v -1288.3 c 0,-19.22 7.625,-37.63 21.2109,-51.22 13.5899,-13.58 32.0079,-21.22 51.2188,-21.22 528.8403,0 3789.5203,0 4318.3603,0 19.21,0 37.68,7.64 51.22,21.22 13.6,13.59 21.23,32 21.23,51.22 0,245.29 0,1043.01 0,1288.3"
         style="fill:#c48d69;fill-opacity:1;fill-rule:evenodd;stroke:none"
         transform="matrix(0.13333333,0,0,-0.13333333,0,640.25333)" />
      <path
         id="path30"
         d="m 2565.63,3211.08 c 0,15.27 -6.02,29.92 -16.85,40.73 -10.81,10.8 -25.43,16.86 -40.72,16.86 -126.34,0 -426.56,0 -552.87,0 -15.31,0 -29.96,-6.06 -40.74,-16.86 -10.83,-10.81 -16.9,-25.46 -16.9,-40.73 0,-74.74 0,-204.36 0,-279.08 0,-15.28 6.07,-29.93 16.9,-40.73 10.78,-10.8 25.43,-16.88 40.74,-16.88 126.31,0 426.53,0 552.87,0 15.29,0 29.91,6.08 40.72,16.88 10.83,10.8 16.85,25.45 16.85,40.73 0,74.72 0,204.34 0,279.08"
         style="fill:#fffdfc;fill-opacity:1;fill-rule:evenodd;stroke:none"
         transform="matrix(0.13333333,0,0,-0.13333333,0,640.25333)" />
      <path
         id="path31"
         d="m 2565.63,3287.7 c 0,15.28 -6.02,29.93 -16.85,40.74 -10.81,10.8 -25.43,16.87 -40.72,16.87 -126.34,0 -426.56,0 -552.87,0 -15.31,0 -29.96,-6.07 -40.74,-16.87 -10.83,-10.81 -16.9,-25.46 -16.9,-40.74 0,-74.71 0,-204.34 0,-279.08 0,-15.27 6.07,-29.92 16.9,-40.72 10.78,-10.8 25.43,-16.87 40.74,-16.87 126.31,0 426.53,0 552.87,0 15.29,0 29.91,6.07 40.72,16.87 10.83,10.8 16.85,25.45 16.85,40.72 0,74.74 0,204.37 0,279.08"
         style="fill:#fbe7da;fill-opacity:1;fill-rule:evenodd;stroke:none"
         transform="matrix(0.13333333,0,0,-0.13333333,0,640.25333)" />
      <path
         id="path32"
         d="m 1897.57,3137.24 h 668.08 v 57.98 h -668.08 v -57.98"
         style="fill:#e4bea4;fill-opacity:1;fill-rule:evenodd;stroke:none"
         transform="matrix(0.13333333,0,0,-0.13333333,0,640.25333)" />
      <path
         id="path33"
         d="m 3126.43,4364.53 c 0,41.11 -33.35,74.45 -74.5,74.45 -290.97,0 -1349.66,0 -1640.68,0 -41.11,0 -74.46,-33.34 -74.46,-74.45 0,-216.25 0,-842.61 0,-1058.86 0,-41.13 33.35,-74.47 74.46,-74.47 291.02,0 1349.71,0 1640.68,0 41.15,0 74.5,33.34 74.5,74.47 0,216.25 0,842.61 0,1058.86"
         style="fill:#fbe7da;fill-opacity:1;fill-rule:evenodd;stroke:none"
         transform="matrix(0.13333333,0,0,-0.13333333,0,640.25333)" />
      <path
         id="path34"
         d="m 3126.43,4328.54 c 0,41.13 -33.35,74.46 -74.5,74.46 -290.97,0 -1349.66,0 -1640.68,0 -41.11,0 -74.46,-33.33 -74.46,-74.46 0,-216.25 0,-842.6 0,-1058.86 0,-41.13 33.35,-74.46 74.46,-74.46 291.02,0 1349.71,0 1640.68,0 41.15,0 74.5,33.33 74.5,74.46 0,216.26 0,842.61 0,1058.86"
         style="fill:#fffdfc;fill-opacity:1;fill-rule:evenodd;stroke:none"
         transform="matrix(0.13333333,0,0,-0.13333333,0,640.25333)" />
      <path
         id="path35"
         d="M 3088.16,4328.54 V 3269.68 c 0,-19.99 -16.21,-36.2 -36.23,-36.2 -290.97,0 -1349.66,0 -1640.68,0 -19.99,0 -36.2,16.21 -36.2,36.2 0,216.26 0,842.61 0,1058.86 0,20 16.21,36.21 36.2,36.21 291.02,0 1349.71,0 1640.68,0 20.02,0 36.23,-16.21 36.23,-36.21"
         style="fill:#5a4d46;fill-opacity:1;fill-rule:evenodd;stroke:none"
         transform="matrix(0.13333333,0,0,-0.13333333,0,640.25333)" />
      <path
         id="path36"
         d="m 1539.87,3233.47 h 1383.47 v 952.99 H 1539.87 v -952.99"
         style="fill:#7f746d;fill-opacity:1;fill-rule:evenodd;stroke:none"
         transform="matrix(0.13333333,0,0,-0.13333333,0,640.25333)" />
      <path
         id="path37"
         d="m 1539.87,4028.22 h 1383.48 v 158.25 H 1539.87 v -158.25"
         style="fill:#9c8f86;fill-opacity:1;fill-rule:evenodd;stroke:none"
         transform="matrix(0.13333333,0,0,-0.13333333,0,640.25333)" />
      <path
         id="path38"
         d="m 1730.18,3233.48 h 1002.84 v 635.91 H 1730.18 v -635.91"
         style="fill:#c7bbb1;fill-opacity:1;fill-rule:evenodd;stroke:none"
         transform="matrix(0.13333333,0,0,-0.13333333,0,640.25333)" />
      <path
         id="path39"
         d="m 2490.99,3786.63 h 101.23 v -31.41 h -101.23 z m -136.07,-31.41 h -320.51 v 31.41 h 320.51 v -31.41 z m -406.79,31.41 v -31.41 h -77.14 v 31.41 h 77.14 z m 572.19,-99.25 h -255.01 v 31.4 h 255.01 v -31.4 z m -371.16,31.4 v -31.4 h -278.17 v 31.4 h 278.17 z m 273.79,-67.84 h 169.27 v -31.4 h -169.27 v 31.4 z m -157.64,-31.4 h -230.9 v 31.4 h 230.9 v -31.4 z m -317.18,31.4 v -31.4 h -77.14 v 31.4 h 77.14 z m 572.19,-67.84 h 71.9 v -31.41 h -71.9 v 31.41 z m -61.85,-31.41 h -272.24 v 31.41 h 272.24 v -31.41 z m -348.59,31.41 v -31.41 h -238.89 v 31.41 h 238.89 z m 313.07,-67.84 h 169.27 v -31.4 h -169.27 v 31.4 z m -102.82,-31.4 h -245.76 v 31.4 h 245.76 v -31.4 z m -328.87,31.4 v -31.4 h -120.27 v 31.4 h 120.27 z m 535.1,-67.84 h 65.86 v -31.39 h -65.86 v 31.39 z m -73.94,-31.39 h -183.95 v 31.39 h 183.95 v -31.39 z m -334.9,0 h -169.39 v 31.39 h 169.39 v -31.39 z m -193.43,31.39 v -31.39 h -53.1 v 31.39 h 53.1 z m 498.86,-67.84 h 169.27 v -31.4 h -169.27 v 31.4 z m -102.82,-31.4 h -245.76 v 31.4 h 245.76 v -31.4 z m -328.87,31.4 v -31.4 h -120.27 v 31.4 h 120.27 z m 498.12,-99.24 h -245.29 v 31.39 h 245.29 v -31.39 z m -371.86,31.39 v -31.39 h -246.53 v 31.39 h 246.53 v 0"
         style="fill:#7f746d;fill-opacity:1;fill-rule:evenodd;stroke:none"
         transform="matrix(0.13333333,0,0,-0.13333333,0,640.25333)" />
      <path
         id="path40"
         d="m 3010.19,2716.82 c 0,20.69 -16.75,37.47 -37.45,37.47 H 1490.47 c -20.68,0 -37.44,-16.78 -37.44,-37.47 v -364.36 c 0,-20.69 16.76,-37.47 37.44,-37.47 h 1482.27 c 20.7,0 37.45,16.78 37.45,37.47 v 364.36"
         style="fill:#fbe7da;fill-opacity:1;fill-rule:evenodd;stroke:none"
         transform="matrix(0.13333333,0,0,-0.13333333,0,640.25333)" />
      <path
         id="path41"
         d="m 3010.19,2743.23 c 0,20.69 -16.75,37.45 -37.45,37.45 H 1490.47 c -20.68,0 -37.44,-16.76 -37.44,-37.45 v -364.38 c 0,-20.69 16.76,-37.46 37.44,-37.46 h 1482.27 c 20.7,0 37.45,16.77 37.45,37.46 v 364.38"
         style="fill:#ffffff;fill-opacity:1;fill-rule:evenodd;stroke:none"
         transform="matrix(0.13333333,0,0,-0.13333333,0,640.25333)" />
      <path
         id="path42"
         d="m 1565.97,2739 c 0,4.06 -1.62,7.94 -4.48,10.81 -2.87,2.87 -6.77,4.48 -10.82,4.48 -14.79,0 -37.06,0 -51.84,0 -4.06,0 -7.96,-1.61 -10.83,-4.48 -2.86,-2.87 -4.48,-6.75 -4.48,-10.81 0,-11.95 0,-28.46 0,-40.42 0,-4.05 1.62,-7.94 4.48,-10.81 2.87,-2.87 6.77,-4.48 10.83,-4.48 14.78,0 37.05,0 51.84,0 4.05,0 7.95,1.61 10.82,4.48 2.86,2.87 4.48,6.76 4.48,10.81 0,11.96 0,28.47 0,40.42 z m 1060.3,0 c 0,4.06 -1.62,7.94 -4.48,10.81 -2.88,2.87 -6.78,4.48 -10.82,4.48 -14.79,0 -37.07,0 -51.86,0 -4.07,0 -7.93,-1.61 -10.81,-4.48 -2.89,-2.87 -4.48,-6.75 -4.48,-10.81 0,-11.95 0,-28.46 0,-40.42 0,-4.05 1.59,-7.94 4.48,-10.81 2.88,-2.87 6.74,-4.48 10.81,-4.48 14.79,0 37.07,0 51.86,0 4.04,0 7.94,1.61 10.82,4.48 2.86,2.87 4.48,6.76 4.48,10.81 0,11.96 0,28.47 0,40.42 z m -235.64,0 c 0,4.06 -1.6,7.94 -4.48,10.81 -2.85,2.87 -6.75,4.48 -10.82,4.48 -14.78,0 -37.03,0 -51.85,0 -4.04,0 -7.93,-1.61 -10.79,-4.48 -2.89,-2.87 -4.51,-6.75 -4.51,-10.81 0,-11.95 0,-28.46 0,-40.42 0,-4.05 1.62,-7.94 4.51,-10.81 2.86,-2.87 6.75,-4.48 10.79,-4.48 14.82,0 37.07,0 51.85,0 4.07,0 7.97,1.61 10.82,4.48 2.88,2.87 4.48,6.76 4.48,10.81 0,11.96 0,28.47 0,40.42 z m 117.83,0 c 0,4.06 -1.6,7.94 -4.49,10.81 -2.88,2.87 -6.75,4.48 -10.81,4.48 -14.8,0 -37.08,0 -51.86,0 -4.04,0 -7.94,-1.61 -10.82,-4.48 -2.85,-2.87 -4.48,-6.75 -4.48,-10.81 0,-11.95 0,-28.46 0,-40.42 0,-4.05 1.63,-7.94 4.48,-10.81 2.88,-2.87 6.78,-4.48 10.82,-4.48 14.78,0 37.06,0 51.86,0 4.06,0 7.93,1.61 10.81,4.48 2.89,2.87 4.49,6.76 4.49,10.81 0,11.96 0,28.47 0,40.42 z m 235.59,0 c 0,4.06 -1.6,7.94 -4.48,10.81 -2.84,2.87 -6.74,4.48 -10.81,4.48 -14.76,0 -37.04,0 -51.83,0 -4.07,0 -7.97,-1.61 -10.81,-4.48 -2.88,-2.87 -4.48,-6.75 -4.48,-10.81 0,-11.95 0,-28.46 0,-40.42 0,-4.05 1.6,-7.94 4.48,-10.81 2.84,-2.87 6.74,-4.48 10.81,-4.48 14.79,0 37.07,0 51.83,0 4.07,0 7.97,1.61 10.81,4.48 2.88,2.87 4.48,6.76 4.48,10.81 0,11.96 0,28.47 0,40.42 z m -1060.27,0 c 0,4.06 -1.61,7.94 -4.48,10.81 -2.87,2.87 -6.76,4.48 -10.82,4.48 -14.78,0 -37.07,0 -51.84,0 -4.06,0 -7.95,-1.61 -10.82,-4.48 -2.87,-2.87 -4.48,-6.75 -4.48,-10.81 0,-11.95 0,-28.46 0,-40.42 0,-4.05 1.61,-7.94 4.48,-10.81 2.87,-2.87 6.76,-4.48 10.82,-4.48 14.77,0 37.06,0 51.84,0 4.06,0 7.95,1.61 10.82,4.48 2.87,2.87 4.48,6.76 4.48,10.81 0,11.96 0,28.47 0,40.42 z m 235.62,0 c 0,4.06 -1.61,7.94 -4.48,10.81 -2.87,2.87 -6.76,4.48 -10.81,4.48 -14.8,0 -37.08,0 -51.85,0 -4.06,0 -7.94,-1.61 -10.81,-4.48 -2.88,-2.87 -4.5,-6.75 -4.5,-10.81 0,-11.95 0,-28.46 0,-40.42 0,-4.05 1.62,-7.94 4.5,-10.81 2.87,-2.87 6.75,-4.48 10.81,-4.48 14.77,0 37.05,0 51.85,0 4.05,0 7.94,1.61 10.81,4.48 2.87,2.87 4.48,6.76 4.48,10.81 0,11.96 0,28.47 0,40.42 z m -117.81,0 c 0,4.06 -1.62,7.94 -4.5,10.81 -2.85,2.87 -6.75,4.48 -10.81,4.48 -14.77,0 -37.05,0 -51.83,0 -4.07,0 -7.96,-1.61 -10.83,-4.48 -2.86,-2.87 -4.48,-6.75 -4.48,-10.81 0,-11.95 0,-28.46 0,-40.42 0,-4.05 1.62,-7.94 4.48,-10.81 2.87,-2.87 6.76,-4.48 10.83,-4.48 14.78,0 37.06,0 51.83,0 4.06,0 7.96,1.61 10.81,4.48 2.88,2.87 4.5,6.76 4.5,10.81 0,11.96 0,28.47 0,40.42 z m 353.43,0 c 0,4.06 -1.62,7.94 -4.48,10.81 -2.88,2.87 -6.78,4.48 -10.81,4.48 -14.79,0 -37.07,0 -51.86,0 -4.07,0 -7.93,-1.61 -10.82,-4.48 -2.87,-2.87 -4.47,-6.75 -4.47,-10.81 0,-11.95 0,-28.46 0,-40.42 0,-4.05 1.6,-7.94 4.47,-10.81 2.89,-2.87 6.75,-4.48 10.82,-4.48 14.79,0 37.07,0 51.86,0 4.03,0 7.93,1.61 10.81,4.48 2.86,2.87 4.48,6.76 4.48,10.81 0,11.96 0,28.47 0,40.42 z m -117.81,0 c 0,4.06 -1.62,7.94 -4.48,10.81 -2.87,2.87 -6.76,4.48 -10.82,4.48 -14.78,0 -37.05,0 -51.85,0 -4.05,0 -7.95,-1.61 -10.82,-4.48 -2.87,-2.87 -4.47,-6.75 -4.47,-10.81 0,-11.95 0,-28.46 0,-40.42 0,-4.05 1.6,-7.94 4.47,-10.81 2.87,-2.87 6.77,-4.48 10.82,-4.48 14.8,0 37.07,0 51.85,0 4.06,0 7.95,1.61 10.82,4.48 2.86,2.87 4.48,6.76 4.48,10.81 0,11.96 0,28.47 0,40.42 z m 942.49,0 c 0,4.06 -1.63,7.94 -4.49,10.81 -2.88,2.87 -6.74,4.48 -10.82,4.48 -14.78,0 -37.06,0 -51.84,0 -4.05,0 -7.95,-1.61 -10.83,-4.48 -2.84,-2.87 -4.48,-6.75 -4.48,-10.81 0,-11.95 0,-28.46 0,-40.42 0,-4.05 1.64,-7.94 4.48,-10.81 2.88,-2.87 6.78,-4.48 10.83,-4.48 14.78,0 37.06,0 51.84,0 4.08,0 7.94,1.61 10.82,4.48 2.86,2.87 4.49,6.76 4.49,10.81 0,11.96 0,28.47 0,40.42 z m -706.86,0 c 0,4.06 -1.63,7.94 -4.5,10.81 -2.86,2.87 -6.76,4.48 -10.79,4.48 -14.83,0 -37.07,0 -51.86,0 -4.07,0 -7.97,-1.61 -10.82,-4.48 -2.88,-2.87 -4.47,-6.75 -4.47,-10.81 0,-11.95 0,-28.46 0,-40.42 0,-4.05 1.59,-7.94 4.47,-10.81 2.85,-2.87 6.75,-4.48 10.82,-4.48 14.79,0 37.03,0 51.86,0 4.03,0 7.93,1.61 10.79,4.48 2.87,2.87 4.5,6.76 4.5,10.81 0,11.96 0,28.47 0,40.42 z m 589.04,0 c 0,4.06 -1.6,7.94 -4.49,10.81 -2.84,2.87 -6.74,4.48 -10.81,4.48 -14.78,0 -37.07,0 -51.85,0 -4.05,0 -7.94,-1.61 -10.82,-4.48 -2.87,-2.87 -4.49,-6.75 -4.49,-10.81 0,-11.95 0,-28.46 0,-40.42 0,-4.05 1.62,-7.94 4.49,-10.81 2.88,-2.87 6.77,-4.48 10.82,-4.48 14.78,0 37.07,0 51.85,0 4.07,0 7.97,1.61 10.81,4.48 2.89,2.87 4.49,6.76 4.49,10.81 0,11.96 0,28.47 0,40.42 z M 1565.97,2633.82 c 0,4.06 -1.62,7.94 -4.48,10.81 -2.87,2.87 -6.77,4.49 -10.82,4.49 -14.79,0 -37.06,0 -51.84,0 -4.06,0 -7.96,-1.62 -10.83,-4.49 -2.86,-2.87 -4.48,-6.75 -4.48,-10.81 0,-11.94 0,-28.46 0,-40.4 0,-4.06 1.62,-7.95 4.48,-10.82 2.87,-2.86 6.77,-4.48 10.83,-4.48 14.78,0 37.05,0 51.84,0 4.05,0 7.95,1.62 10.82,4.48 2.86,2.87 4.48,6.76 4.48,10.82 0,11.94 0,28.46 0,40.4 z m 1060.3,0 c 0,4.06 -1.62,7.94 -4.48,10.81 -2.88,2.87 -6.78,4.49 -10.82,4.49 -14.79,0 -37.07,0 -51.86,0 -4.07,0 -7.93,-1.62 -10.81,-4.49 -2.89,-2.87 -4.48,-6.75 -4.48,-10.81 0,-11.94 0,-28.46 0,-40.4 0,-4.06 1.59,-7.95 4.48,-10.82 2.88,-2.86 6.74,-4.48 10.81,-4.48 14.79,0 37.07,0 51.86,0 4.04,0 7.94,1.62 10.82,4.48 2.86,2.87 4.48,6.76 4.48,10.82 0,11.94 0,28.46 0,40.4 z m -235.64,0 c 0,4.06 -1.6,7.94 -4.48,10.81 -2.85,2.87 -6.75,4.49 -10.82,4.49 -14.78,0 -37.03,0 -51.85,0 -4.04,0 -7.93,-1.62 -10.79,-4.49 -2.89,-2.87 -4.51,-6.75 -4.51,-10.81 0,-11.94 0,-28.46 0,-40.4 0,-4.06 1.62,-7.95 4.51,-10.82 2.86,-2.86 6.75,-4.48 10.79,-4.48 14.82,0 37.07,0 51.85,0 4.07,0 7.97,1.62 10.82,4.48 2.88,2.87 4.48,6.76 4.48,10.82 0,11.94 0,28.46 0,40.4 z m 117.83,0 c 0,4.06 -1.6,7.94 -4.49,10.81 -2.88,2.87 -6.75,4.49 -10.81,4.49 -14.8,0 -37.08,0 -51.86,0 -4.04,0 -7.94,-1.62 -10.82,-4.49 -2.85,-2.87 -4.48,-6.75 -4.48,-10.81 0,-11.94 0,-28.46 0,-40.4 0,-4.06 1.63,-7.95 4.48,-10.82 2.88,-2.86 6.78,-4.48 10.82,-4.48 14.78,0 37.06,0 51.86,0 4.06,0 7.93,1.62 10.81,4.48 2.89,2.87 4.49,6.76 4.49,10.82 0,11.94 0,28.46 0,40.4 z m 235.59,0 c 0,4.06 -1.6,7.94 -4.48,10.81 -2.84,2.87 -6.74,4.49 -10.81,4.49 -14.76,0 -37.04,0 -51.83,0 -4.07,0 -7.97,-1.62 -10.81,-4.49 -2.88,-2.87 -4.48,-6.75 -4.48,-10.81 0,-11.94 0,-28.46 0,-40.4 0,-4.06 1.6,-7.95 4.48,-10.82 2.84,-2.86 6.74,-4.48 10.81,-4.48 14.79,0 37.07,0 51.83,0 4.07,0 7.97,1.62 10.81,4.48 2.88,2.87 4.48,6.76 4.48,10.82 0,11.94 0,28.46 0,40.4 z m -1060.27,0 c 0,4.06 -1.61,7.94 -4.48,10.81 -2.87,2.87 -6.76,4.49 -10.82,4.49 -14.78,0 -37.07,0 -51.84,0 -4.06,0 -7.95,-1.62 -10.82,-4.49 -2.87,-2.87 -4.48,-6.75 -4.48,-10.81 0,-11.94 0,-28.46 0,-40.4 0,-4.06 1.61,-7.95 4.48,-10.82 2.87,-2.86 6.76,-4.48 10.82,-4.48 14.77,0 37.06,0 51.84,0 4.06,0 7.95,1.62 10.82,4.48 2.87,2.87 4.48,6.76 4.48,10.82 0,11.94 0,28.46 0,40.4 z m 117.81,0 c 0,4.06 -1.62,7.94 -4.5,10.81 -2.85,2.87 -6.75,4.49 -10.81,4.49 -14.77,0 -37.05,0 -51.83,0 -4.07,0 -7.96,-1.62 -10.83,-4.49 -2.86,-2.87 -4.48,-6.75 -4.48,-10.81 0,-11.94 0,-28.46 0,-40.4 0,-4.06 1.62,-7.95 4.48,-10.82 2.87,-2.86 6.76,-4.48 10.83,-4.48 14.78,0 37.06,0 51.83,0 4.06,0 7.96,1.62 10.81,4.48 2.88,2.87 4.5,6.76 4.5,10.82 0,11.94 0,28.46 0,40.4 z m 117.81,0 c 0,4.06 -1.61,7.94 -4.48,10.81 -2.87,2.87 -6.76,4.49 -10.81,4.49 -14.8,0 -37.08,0 -51.85,0 -4.06,0 -7.94,-1.62 -10.81,-4.49 -2.88,-2.87 -4.5,-6.75 -4.5,-10.81 0,-11.94 0,-28.46 0,-40.4 0,-4.06 1.62,-7.95 4.5,-10.82 2.87,-2.86 6.75,-4.48 10.81,-4.48 14.77,0 37.05,0 51.85,0 4.05,0 7.94,1.62 10.81,4.48 2.87,2.87 4.48,6.76 4.48,10.82 0,11.94 0,28.46 0,40.4 z m 117.81,0 c 0,4.06 -1.62,7.94 -4.48,10.81 -2.87,2.87 -6.76,4.49 -10.82,4.49 -14.78,0 -37.05,0 -51.85,0 -4.05,0 -7.95,-1.62 -10.82,-4.49 -2.87,-2.87 -4.47,-6.75 -4.47,-10.81 0,-11.94 0,-28.46 0,-40.4 0,-4.06 1.6,-7.95 4.47,-10.82 2.87,-2.86 6.77,-4.48 10.82,-4.48 14.8,0 37.07,0 51.85,0 4.06,0 7.95,1.62 10.82,4.48 2.86,2.87 4.48,6.76 4.48,10.82 0,11.94 0,28.46 0,40.4 z m 117.81,0 c 0,4.06 -1.62,7.94 -4.48,10.81 -2.88,2.87 -6.78,4.49 -10.81,4.49 -14.79,0 -37.07,0 -51.86,0 -4.07,0 -7.93,-1.62 -10.82,-4.49 -2.87,-2.87 -4.47,-6.75 -4.47,-10.81 0,-11.94 0,-28.46 0,-40.4 0,-4.06 1.6,-7.95 4.47,-10.82 2.89,-2.86 6.75,-4.48 10.82,-4.48 14.79,0 37.07,0 51.86,0 4.03,0 7.93,1.62 10.81,4.48 2.86,2.87 4.48,6.76 4.48,10.82 0,11.94 0,28.46 0,40.4 z m 706.86,0 c 0,4.06 -1.6,7.94 -4.49,10.81 -2.84,2.87 -6.74,4.49 -10.81,4.49 -14.78,0 -37.07,0 -51.85,0 -4.05,0 -7.94,-1.62 -10.82,-4.49 -2.87,-2.87 -4.49,-6.75 -4.49,-10.81 0,-11.94 0,-28.46 0,-40.4 0,-4.06 1.62,-7.95 4.49,-10.82 2.88,-2.86 6.77,-4.48 10.82,-4.48 14.78,0 37.07,0 51.85,0 4.07,0 7.97,1.62 10.81,4.48 2.89,2.87 4.49,6.76 4.49,10.82 0,11.94 0,28.46 0,40.4 z m -589.04,0 c 0,4.06 -1.63,7.94 -4.5,10.81 -2.86,2.87 -6.76,4.49 -10.79,4.49 -14.83,0 -37.07,0 -51.86,0 -4.07,0 -7.97,-1.62 -10.82,-4.49 -2.88,-2.87 -4.47,-6.75 -4.47,-10.81 0,-11.94 0,-28.46 0,-40.4 0,-4.06 1.59,-7.95 4.47,-10.82 2.85,-2.86 6.75,-4.48 10.82,-4.48 14.79,0 37.03,0 51.86,0 4.03,0 7.93,1.62 10.79,4.48 2.87,2.87 4.5,6.76 4.5,10.82 0,11.94 0,28.46 0,40.4 z m 706.86,0 c 0,4.06 -1.63,7.94 -4.49,10.81 -2.88,2.87 -6.74,4.49 -10.82,4.49 -14.78,0 -37.06,0 -51.84,0 -4.05,0 -7.95,-1.62 -10.83,-4.49 -2.84,-2.87 -4.48,-6.75 -4.48,-10.81 0,-11.94 0,-28.46 0,-40.4 0,-4.06 1.64,-7.95 4.48,-10.82 2.88,-2.86 6.78,-4.48 10.83,-4.48 14.78,0 37.06,0 51.84,0 4.08,0 7.94,1.62 10.82,4.48 2.86,2.87 4.49,6.76 4.49,10.82 0,11.94 0,28.46 0,40.4 z M 1565.97,2528.66 c 0,4.05 -1.62,7.94 -4.48,10.81 -2.87,2.87 -6.77,4.48 -10.82,4.48 -14.79,0 -37.06,0 -51.84,0 -4.06,0 -7.96,-1.61 -10.83,-4.48 -2.86,-2.87 -4.48,-6.76 -4.48,-10.81 0,-11.95 0,-28.47 0,-40.42 0,-4.05 1.62,-7.94 4.48,-10.81 2.87,-2.87 6.77,-4.48 10.83,-4.48 14.78,0 37.05,0 51.84,0 4.05,0 7.95,1.61 10.82,4.48 2.86,2.87 4.48,6.76 4.48,10.81 0,11.95 0,28.47 0,40.42 z m 824.66,0 c 0,4.05 -1.6,7.94 -4.48,10.81 -2.85,2.87 -6.75,4.48 -10.82,4.48 -14.78,0 -37.03,0 -51.85,0 -4.04,0 -7.93,-1.61 -10.79,-4.48 -2.89,-2.87 -4.51,-6.76 -4.51,-10.81 0,-11.95 0,-28.47 0,-40.42 0,-4.05 1.62,-7.94 4.51,-10.81 2.86,-2.87 6.75,-4.48 10.79,-4.48 14.82,0 37.07,0 51.85,0 4.07,0 7.97,1.61 10.82,4.48 2.88,2.87 4.48,6.76 4.48,10.81 0,11.95 0,28.47 0,40.42 z m 117.83,0 c 0,4.05 -1.6,7.94 -4.49,10.81 -2.88,2.87 -6.75,4.48 -10.81,4.48 -14.8,0 -37.08,0 -51.86,0 -4.04,0 -7.94,-1.61 -10.82,-4.48 -2.85,-2.87 -4.48,-6.76 -4.48,-10.81 0,-11.95 0,-28.47 0,-40.42 0,-4.05 1.63,-7.94 4.48,-10.81 2.88,-2.87 6.78,-4.48 10.82,-4.48 14.78,0 37.06,0 51.86,0 4.06,0 7.93,1.61 10.81,4.48 2.89,2.87 4.49,6.76 4.49,10.81 0,11.95 0,28.47 0,40.42 z m 235.59,0 c 0,4.05 -1.6,7.94 -4.48,10.81 -2.84,2.87 -6.74,4.48 -10.81,4.48 -14.76,0 -37.04,0 -51.83,0 -4.07,0 -7.97,-1.61 -10.81,-4.48 -2.88,-2.87 -4.48,-6.76 -4.48,-10.81 0,-11.95 0,-28.47 0,-40.42 0,-4.05 1.6,-7.94 4.48,-10.81 2.84,-2.87 6.74,-4.48 10.81,-4.48 14.79,0 37.07,0 51.83,0 4.07,0 7.97,1.61 10.81,4.48 2.88,2.87 4.48,6.76 4.48,10.81 0,11.95 0,28.47 0,40.42 z m -1060.27,0 c 0,4.05 -1.61,7.94 -4.48,10.81 -2.87,2.87 -6.76,4.48 -10.82,4.48 -14.78,0 -37.07,0 -51.84,0 -4.06,0 -7.95,-1.61 -10.82,-4.48 -2.87,-2.87 -4.48,-6.76 -4.48,-10.81 0,-11.95 0,-28.47 0,-40.42 0,-4.05 1.61,-7.94 4.48,-10.81 2.87,-2.87 6.76,-4.48 10.82,-4.48 14.77,0 37.06,0 51.84,0 4.06,0 7.95,1.61 10.82,4.48 2.87,2.87 4.48,6.76 4.48,10.81 0,11.95 0,28.47 0,40.42 z m 942.49,0 c 0,4.05 -1.62,7.94 -4.48,10.81 -2.88,2.87 -6.78,4.48 -10.82,4.48 -14.79,0 -37.07,0 -51.86,0 -4.07,0 -7.93,-1.61 -10.81,-4.48 -2.89,-2.87 -4.48,-6.76 -4.48,-10.81 0,-11.95 0,-28.47 0,-40.42 0,-4.05 1.59,-7.94 4.48,-10.81 2.88,-2.87 6.74,-4.48 10.81,-4.48 14.79,0 37.07,0 51.86,0 4.04,0 7.94,1.61 10.82,4.48 2.86,2.87 4.48,6.76 4.48,10.81 0,11.95 0,28.47 0,40.42 z m -824.68,0 c 0,4.05 -1.62,7.94 -4.5,10.81 -2.85,2.87 -6.75,4.48 -10.81,4.48 -14.77,0 -37.05,0 -51.83,0 -4.07,0 -7.96,-1.61 -10.83,-4.48 -2.86,-2.87 -4.48,-6.76 -4.48,-10.81 0,-11.95 0,-28.47 0,-40.42 0,-4.05 1.62,-7.94 4.48,-10.81 2.87,-2.87 6.76,-4.48 10.83,-4.48 14.78,0 37.06,0 51.83,0 4.06,0 7.96,1.61 10.81,4.48 2.88,2.87 4.5,6.76 4.5,10.81 0,11.95 0,28.47 0,40.42 z m 117.81,0 c 0,4.05 -1.61,7.94 -4.48,10.81 -2.87,2.87 -6.76,4.48 -10.81,4.48 -14.8,0 -37.08,0 -51.85,0 -4.06,0 -7.94,-1.61 -10.81,-4.48 -2.88,-2.87 -4.5,-6.76 -4.5,-10.81 0,-11.95 0,-28.47 0,-40.42 0,-4.05 1.62,-7.94 4.5,-10.81 2.87,-2.87 6.75,-4.48 10.81,-4.48 14.77,0 37.05,0 51.85,0 4.05,0 7.94,1.61 10.81,4.48 2.87,2.87 4.48,6.76 4.48,10.81 0,11.95 0,28.47 0,40.42 z m 117.81,0 c 0,4.05 -1.62,7.94 -4.48,10.81 -2.87,2.87 -6.76,4.48 -10.82,4.48 -14.78,0 -37.05,0 -51.85,0 -4.05,0 -7.95,-1.61 -10.82,-4.48 -2.87,-2.87 -4.47,-6.76 -4.47,-10.81 0,-11.95 0,-28.47 0,-40.42 0,-4.05 1.6,-7.94 4.47,-10.81 2.87,-2.87 6.77,-4.48 10.82,-4.48 14.8,0 37.07,0 51.85,0 4.06,0 7.95,1.61 10.82,4.48 2.86,2.87 4.48,6.76 4.48,10.81 0,11.95 0,28.47 0,40.42 z m 117.81,0 c 0,4.05 -1.62,7.94 -4.48,10.81 -2.88,2.87 -6.78,4.48 -10.81,4.48 -14.79,0 -37.07,0 -51.86,0 -4.07,0 -7.93,-1.61 -10.82,-4.48 -2.87,-2.87 -4.47,-6.76 -4.47,-10.81 0,-11.95 0,-28.47 0,-40.42 0,-4.05 1.6,-7.94 4.47,-10.81 2.89,-2.87 6.75,-4.48 10.82,-4.48 14.79,0 37.07,0 51.86,0 4.03,0 7.93,1.61 10.81,4.48 2.86,2.87 4.48,6.76 4.48,10.81 0,11.95 0,28.47 0,40.42 z m 117.82,0 c 0,4.05 -1.63,7.94 -4.5,10.81 -2.86,2.87 -6.76,4.48 -10.79,4.48 -14.83,0 -37.07,0 -51.86,0 -4.07,0 -7.97,-1.61 -10.82,-4.48 -2.88,-2.87 -4.47,-6.76 -4.47,-10.81 0,-11.95 0,-28.47 0,-40.42 0,-4.05 1.59,-7.94 4.47,-10.81 2.85,-2.87 6.75,-4.48 10.82,-4.48 14.79,0 37.03,0 51.86,0 4.03,0 7.93,1.61 10.79,4.48 2.87,2.87 4.5,6.76 4.5,10.81 0,11.95 0,28.47 0,40.42 z m 589.04,0 c 0,4.05 -1.6,7.94 -4.49,10.81 -2.84,2.87 -6.74,4.48 -10.81,4.48 -14.78,0 -37.07,0 -51.85,0 -4.05,0 -7.94,-1.61 -10.82,-4.48 -2.87,-2.87 -4.49,-6.76 -4.49,-10.81 0,-11.95 0,-28.47 0,-40.42 0,-4.05 1.62,-7.94 4.49,-10.81 2.88,-2.87 6.77,-4.48 10.82,-4.48 14.78,0 37.07,0 51.85,0 4.07,0 7.97,1.61 10.81,4.48 2.89,2.87 4.49,6.76 4.49,10.81 0,11.95 0,28.47 0,40.42 z m 117.82,0 c 0,4.05 -1.63,7.94 -4.49,10.81 -2.88,2.87 -6.74,4.48 -10.82,4.48 -14.78,0 -37.06,0 -51.84,0 -4.05,0 -7.95,-1.61 -10.83,-4.48 -2.84,-2.87 -4.48,-6.76 -4.48,-10.81 0,-11.95 0,-28.47 0,-40.42 0,-4.05 1.64,-7.94 4.48,-10.81 2.88,-2.87 6.78,-4.48 10.83,-4.48 14.78,0 37.06,0 51.84,0 4.08,0 7.94,1.61 10.82,4.48 2.86,2.87 4.49,6.76 4.49,10.81 0,11.95 0,28.47 0,40.42 z M 1565.97,2423.49 c 0,4.06 -1.62,7.95 -4.48,10.82 -2.87,2.87 -6.77,4.47 -10.82,4.47 -14.79,0 -37.06,0 -51.84,0 -4.06,0 -7.96,-1.6 -10.83,-4.47 -2.86,-2.87 -4.48,-6.76 -4.48,-10.82 0,-11.95 0,-28.47 0,-40.41 0,-4.06 1.62,-7.95 4.48,-10.82 2.87,-2.87 6.77,-4.47 10.83,-4.47 14.78,0 37.05,0 51.84,0 4.05,0 7.95,1.6 10.82,4.47 2.86,2.87 4.48,6.76 4.48,10.82 0,11.94 0,28.46 0,40.41 z m 1060.3,0 c 0,4.06 -1.62,7.95 -4.48,10.82 -2.88,2.87 -6.78,4.47 -10.82,4.47 -14.79,0 -37.07,0 -51.86,0 -4.07,0 -7.93,-1.6 -10.81,-4.47 -2.89,-2.87 -4.48,-6.76 -4.48,-10.82 0,-11.95 0,-28.47 0,-40.41 0,-4.06 1.59,-7.95 4.48,-10.82 2.88,-2.87 6.74,-4.47 10.81,-4.47 14.79,0 37.07,0 51.86,0 4.04,0 7.94,1.6 10.82,4.47 2.86,2.87 4.48,6.76 4.48,10.82 0,11.94 0,28.46 0,40.41 z m -235.64,0 c 0,4.06 -1.6,7.95 -4.48,10.82 -2.85,2.87 -6.75,4.47 -10.82,4.47 -14.78,0 -37.03,0 -51.85,0 -4.04,0 -7.93,-1.6 -10.79,-4.47 -2.89,-2.87 -4.51,-6.76 -4.51,-10.82 0,-11.95 0,-28.47 0,-40.41 0,-4.06 1.62,-7.95 4.51,-10.82 2.86,-2.87 6.75,-4.47 10.79,-4.47 14.82,0 37.07,0 51.85,0 4.07,0 7.97,1.6 10.82,4.47 2.88,2.87 4.48,6.76 4.48,10.82 0,11.94 0,28.46 0,40.41 z m 117.83,0 c 0,4.06 -1.6,7.95 -4.49,10.82 -2.88,2.87 -6.75,4.47 -10.81,4.47 -14.8,0 -37.08,0 -51.86,0 -4.04,0 -7.94,-1.6 -10.82,-4.47 -2.85,-2.87 -4.48,-6.76 -4.48,-10.82 0,-11.95 0,-28.47 0,-40.41 0,-4.06 1.63,-7.95 4.48,-10.82 2.88,-2.87 6.78,-4.47 10.82,-4.47 14.78,0 37.06,0 51.86,0 4.06,0 7.93,1.6 10.81,4.47 2.89,2.87 4.49,6.76 4.49,10.82 0,11.94 0,28.46 0,40.41 z m 235.59,0 c 0,4.06 -1.6,7.95 -4.48,10.82 -2.84,2.87 -6.74,4.47 -10.81,4.47 -14.76,0 -37.04,0 -51.83,0 -4.07,0 -7.97,-1.6 -10.81,-4.47 -2.88,-2.87 -4.48,-6.76 -4.48,-10.82 0,-11.95 0,-28.47 0,-40.41 0,-4.06 1.6,-7.95 4.48,-10.82 2.84,-2.87 6.74,-4.47 10.81,-4.47 14.79,0 37.07,0 51.83,0 4.07,0 7.97,1.6 10.81,4.47 2.88,2.87 4.48,6.76 4.48,10.82 0,11.94 0,28.46 0,40.41 z m -1060.27,0 c 0,4.06 -1.61,7.95 -4.48,10.82 -2.87,2.87 -6.76,4.47 -10.82,4.47 -14.78,0 -37.07,0 -51.84,0 -4.06,0 -7.95,-1.6 -10.82,-4.47 -2.87,-2.87 -4.48,-6.76 -4.48,-10.82 0,-11.95 0,-28.47 0,-40.41 0,-4.06 1.61,-7.95 4.48,-10.82 2.87,-2.87 6.76,-4.47 10.82,-4.47 14.77,0 37.06,0 51.84,0 4.06,0 7.95,1.6 10.82,4.47 2.87,2.87 4.48,6.76 4.48,10.82 0,11.94 0,28.46 0,40.41 z m 117.81,0 c 0,4.06 -1.62,7.95 -4.5,10.82 -2.85,2.87 -6.75,4.47 -10.81,4.47 -14.77,0 -37.05,0 -51.83,0 -4.07,0 -7.96,-1.6 -10.83,-4.47 -2.86,-2.87 -4.48,-6.76 -4.48,-10.82 0,-11.95 0,-28.47 0,-40.41 0,-4.06 1.62,-7.95 4.48,-10.82 2.87,-2.87 6.76,-4.47 10.83,-4.47 14.78,0 37.06,0 51.83,0 4.06,0 7.96,1.6 10.81,4.47 2.88,2.87 4.5,6.76 4.5,10.82 0,11.94 0,28.46 0,40.41 z m 117.81,0 c 0,4.06 -1.61,7.95 -4.48,10.82 -2.87,2.87 -6.76,4.47 -10.81,4.47 -14.8,0 -37.08,0 -51.85,0 -4.06,0 -7.94,-1.6 -10.81,-4.47 -2.88,-2.87 -4.5,-6.76 -4.5,-10.82 0,-11.95 0,-28.47 0,-40.41 0,-4.06 1.62,-7.95 4.5,-10.82 2.87,-2.87 6.75,-4.47 10.81,-4.47 14.77,0 37.05,0 51.85,0 4.05,0 7.94,1.6 10.81,4.47 2.87,2.87 4.48,6.76 4.48,10.82 0,11.94 0,28.46 0,40.41 z m 117.81,0 c 0,4.06 -1.62,7.95 -4.48,10.82 -2.87,2.87 -6.76,4.47 -10.82,4.47 -14.78,0 -37.05,0 -51.85,0 -4.05,0 -7.95,-1.6 -10.82,-4.47 -2.87,-2.87 -4.47,-6.76 -4.47,-10.82 0,-11.95 0,-28.47 0,-40.41 0,-4.06 1.6,-7.95 4.47,-10.82 2.87,-2.87 6.77,-4.47 10.82,-4.47 14.8,0 37.07,0 51.85,0 4.06,0 7.95,1.6 10.82,4.47 2.86,2.87 4.48,6.76 4.48,10.82 0,11.94 0,28.46 0,40.41 z m 117.81,0 c 0,4.06 -1.62,7.95 -4.48,10.82 -2.88,2.87 -6.78,4.47 -10.81,4.47 -14.79,0 -37.07,0 -51.86,0 -4.07,0 -7.93,-1.6 -10.82,-4.47 -2.87,-2.87 -4.47,-6.76 -4.47,-10.82 0,-11.95 0,-28.47 0,-40.41 0,-4.06 1.6,-7.95 4.47,-10.82 2.89,-2.87 6.75,-4.47 10.82,-4.47 14.79,0 37.07,0 51.86,0 4.03,0 7.93,1.6 10.81,4.47 2.86,2.87 4.48,6.76 4.48,10.82 0,11.94 0,28.46 0,40.41 z m 117.82,0 c 0,4.06 -1.63,7.95 -4.5,10.82 -2.86,2.87 -6.76,4.47 -10.79,4.47 -14.83,0 -37.07,0 -51.86,0 -4.07,0 -7.97,-1.6 -10.82,-4.47 -2.88,-2.87 -4.47,-6.76 -4.47,-10.82 0,-11.95 0,-28.47 0,-40.41 0,-4.06 1.59,-7.95 4.47,-10.82 2.85,-2.87 6.75,-4.47 10.82,-4.47 14.79,0 37.03,0 51.86,0 4.03,0 7.93,1.6 10.79,4.47 2.87,2.87 4.5,6.76 4.5,10.82 0,11.94 0,28.46 0,40.41 z m 589.04,0 c 0,4.06 -1.6,7.95 -4.49,10.82 -2.84,2.87 -6.74,4.47 -10.81,4.47 -14.78,0 -37.07,0 -51.85,0 -4.05,0 -7.94,-1.6 -10.82,-4.47 -2.87,-2.87 -4.49,-6.76 -4.49,-10.82 0,-11.95 0,-28.47 0,-40.41 0,-4.06 1.62,-7.95 4.49,-10.82 2.88,-2.87 6.77,-4.47 10.82,-4.47 14.78,0 37.07,0 51.85,0 4.07,0 7.97,1.6 10.81,4.47 2.89,2.87 4.49,6.76 4.49,10.82 0,11.94 0,28.46 0,40.41 z m 117.82,0 c 0,4.06 -1.63,7.95 -4.49,10.82 -2.88,2.87 -6.74,4.47 -10.82,4.47 -14.78,0 -37.06,0 -51.84,0 -4.05,0 -7.95,-1.6 -10.83,-4.47 -2.84,-2.87 -4.48,-6.76 -4.48,-10.82 0,-11.95 0,-28.47 0,-40.41 0,-4.06 1.64,-7.95 4.48,-10.82 2.88,-2.87 6.78,-4.47 10.83,-4.47 14.78,0 37.06,0 51.84,0 4.08,0 7.94,1.6 10.82,4.47 2.86,2.87 4.49,6.76 4.49,10.82 0,11.94 0,28.46 0,40.41 v 0"
         style="fill:#fbe7da;fill-opacity:1;fill-rule:evenodd;stroke:none"
         transform="matrix(0.13333333,0,0,-0.13333333,0,640.25333)" />
      <path
         id="path43"
         d="m 3406.87,2491.77 c -0.43,66.62 -48.06,120.31 -106.38,119.94 -58.33,-0.39 -105.27,-54.69 -104.82,-121.31 0.42,-66.61 48.06,-120.31 106.38,-119.94 58.31,0.39 105.24,54.7 104.82,121.31"
         style="fill:#ffffff;fill-opacity:1;fill-rule:evenodd;stroke:none"
         transform="matrix(0.13333333,0,0,-0.13333333,0,640.25333)" />
      <path
         id="path44"
         d="m 3056,2159.88 100.46,311.8 c 0,0 75.77,-16.06 123.41,-87.01 l -6.54,-455.51 c -12.31,-36.75 -39.32,-66.77 -74.58,-82.84 -35.31,-16.05 -75.66,-16.71 -111.48,-1.82 l -596.09,248.02 c -71.15,29.6 -104.85,111.38 -75.25,182.5 29.58,71.14 111.36,104.86 182.5,75.27 L 3056,2159.88"
         style="fill:#dfb784;fill-opacity:1;fill-rule:evenodd;stroke:none"
         transform="matrix(0.13333333,0,0,-0.13333333,0,640.25333)" />
      <path
         id="path45"
         d="m 3393.8,2471.7 c -34.58,70.68 -113.63,103.01 -176.57,72.23 -62.95,-30.79 -85.94,-113.05 -51.37,-183.73 34.57,-70.66 113.63,-103 176.57,-72.22 62.94,30.79 85.94,113.05 51.37,183.72"
         style="fill:#dfb784;fill-opacity:1;fill-rule:evenodd;stroke:none"
         transform="matrix(0.13333333,0,0,-0.13333333,0,640.25333)" />
      <path
         id="path46"
         d="m 1620.87,2700.44 c -58.73,-52.36 -68.52,-137.21 -21.88,-189.5 46.65,-52.3 132.05,-52.23 190.78,0.13 58.7,52.38 68.5,137.23 21.87,189.52 -46.64,52.29 -132.06,52.23 -190.77,-0.15"
         style="fill:#dfb784;fill-opacity:1;fill-rule:evenodd;stroke:none"
         transform="matrix(0.13333333,0,0,-0.13333333,0,640.25333)" />
      <path
         id="path47"
         d="M 1547.89,2244.48 1902,2355.96 c 74.25,20.5 151.18,-23.16 171.69,-97.41 20.49,-74.27 -23.16,-151.21 -97.44,-171.7 l -595.23,-164.29 c -55.53,-15.33 -114.77,5.05 -149.16,51.29 -34.36,46.24 -36.8,108.84 -6.11,157.62 l 358.54,521.06 90.65,-180.85 -127.05,-227.2"
         style="fill:#dfb784;fill-opacity:1;fill-rule:evenodd;stroke:none"
         transform="matrix(0.13333333,0,0,-0.13333333,0,640.25333)" />
      <path
         id="path48"
         d="m 2701.89,2106.25 c 0,182.94 -148.31,331.24 -331.25,331.24 h -278.07 c -182.93,0 -331.23,-148.3 -331.23,-331.24 v -897.92 h 940.55 v 897.92"
         style="fill:#6069bb;fill-opacity:1;fill-rule:evenodd;stroke:none"
         transform="matrix(0.13333333,0,0,-0.13333333,0,640.25333)" />
      <path
         id="path49"
         d="m 2860.2,1713.11 c 0,69.02 -27.44,135.22 -76.25,184.03 -48.82,48.82 -115.03,76.24 -184.03,76.24 h -736.65 c -68.99,0 -135.19,-27.42 -184.02,-76.24 -48.81,-48.81 -76.22,-115.01 -76.22,-184.03 V 607.488 H 2860.2 V 1713.11"
         style="fill:#40322a;fill-opacity:1;fill-rule:evenodd;stroke:none"
         transform="matrix(0.13333333,0,0,-0.13333333,0,640.25333)" />
      <path
         id="path50"
         d="m 2860.2,1584.4 c 0,69.02 -27.44,135.21 -76.25,184.03 -48.82,48.82 -115.03,76.22 -184.03,76.22 h -736.65 c -68.99,0 -135.19,-27.4 -184.02,-76.22 -48.81,-48.82 -76.22,-115.01 -76.22,-184.03 V 478.77 H 2860.2 V 1584.4"
         style="fill:#24211f;fill-opacity:1;fill-rule:evenodd;stroke:none"
         transform="matrix(0.13333333,0,0,-0.13333333,0,640.25333)" />
      <path
         id="path51"
         d="m 2299.41,3020.3 h 20.09 c 48.37,0 87.61,-39.22 87.61,-87.61 0,-86.96 0,-207.33 0,-207.33 0,-115.74 -79.6,-209.58 -177.73,-209.58 -7.68,0 -15.35,0 -22.98,0 -98.19,0 -177.79,93.84 -177.79,209.58 V 3018 c 0,48.33 39.2,87.53 87.52,87.53 40.74,0 88.1,0 124.5,0 32.44,0 58.78,-26.33 58.78,-58.8 0,-14.72 0,-26.43 0,-26.43"
         style="fill:#d1a56a;fill-opacity:1;fill-rule:evenodd;stroke:none"
         transform="matrix(0.13333333,0,0,-0.13333333,0,640.25333)" />
      <path
         id="path52"
         d="m 2092.59,2437.49 c 24.93,0 45.14,20.21 45.14,45.16 0,62.15 0,166.47 0,166.47 h 187.75 v -166.47 c 0,-24.95 20.21,-45.16 45.16,-45.16 v 0 c 15.71,0 31.18,-1.09 46.31,-3.21 4.85,-0.71 9.02,-3.82 11.05,-8.28 2.04,-4.45 1.7,-9.64 -0.95,-13.77 -48.87,-77.17 -341.99,-77.17 -390.88,0.01 -2.63,4.12 -3.01,9.31 -0.96,13.76 2.04,4.46 6.2,7.57 11.05,8.28 15.13,2.12 30.6,3.21 46.33,3.21 v 0"
         style="fill:#dfb784;fill-opacity:1;fill-rule:evenodd;stroke:none"
         transform="matrix(0.13333333,0,0,-0.13333333,0,640.25333)" />
      <path
         id="path53"
         d="m 2321.52,3105.04 h 49.3 c 48.38,0 87.61,-39.22 87.61,-87.61 0,-86.96 0,-207.33 0,-207.33 0,-115.75 -101.18,-209.59 -225.95,-209.59 -9.75,0 -19.5,0 -29.2,0 -124.83,0 -225.99,93.84 -225.99,209.59 v 292.64 c 0,48.33 39.16,87.53 87.49,87.53 62.02,0 143.59,0 197.96,0 15.59,0 30.53,-6.21 41.56,-17.22 11.02,-11.04 17.22,-25.99 17.22,-41.58 0,-14.73 0,-26.43 0,-26.43"
         style="fill:#24211f;fill-opacity:1;fill-rule:evenodd;stroke:none"
         transform="matrix(0.13333333,0,0,-0.13333333,0,640.25333)" />
      <path
         id="path54"
         d="m 1037.29,2593.17 320.91,169.71 -239.21,452.32 -320.92,-169.72 239.22,-452.31"
         style="fill:#ffffff;fill-opacity:1;fill-rule:evenodd;stroke:none"
         transform="matrix(0.13333333,0,0,-0.13333333,0,640.25333)" />
      <path
         id="path55"
         d="m 434.805,2326.71 355.73,-72.48 102.16,501.37 -355.73,72.49 -102.16,-501.38"
         style="fill:#ffffff;fill-opacity:1;fill-rule:evenodd;stroke:none"
         transform="matrix(0.13333333,0,0,-0.13333333,0,640.25333)" />
      <path
         id="path56"
         d="m 3557.02,3020.86 c -3.47,7.73 -9.84,13.8 -17.78,16.82 -7.93,3.01 -16.7,2.77 -24.44,-0.7 l -143.99,-64.49 c -7.74,-3.46 -13.8,-9.86 -16.82,-17.79 -2.99,-7.91 -2.77,-16.71 0.7,-24.45 l 132.09,-294.94 c 3.46,-7.75 9.88,-13.78 17.78,-16.81 7.93,-3.02 16.73,-2.77 24.47,0.69 l 143.99,64.5 c 7.74,3.46 13.76,9.84 16.78,17.76 3.04,7.93 2.78,16.73 -0.69,24.47 l -132.09,294.94"
         style="fill:#ffffff;fill-opacity:1;fill-rule:evenodd;stroke:none"
         transform="matrix(0.13333333,0,0,-0.13333333,0,640.25333)" />
      <path
         id="path57"
         d="M 3547.62,3016.64 3679.7,2721.7 c 2.35,-5.24 2.49,-11.19 0.47,-16.56 -2.05,-5.36 -6.14,-9.68 -11.37,-12.03 l -144,-64.47 c -5.23,-2.34 -11.18,-2.52 -16.54,-0.48 -5.39,2.04 -9.71,6.13 -12.04,11.38 -29.77,66.46 -102.33,228.47 -132.09,294.94 -2.35,5.23 -2.53,11.18 -0.46,16.55 2.05,5.38 6.13,9.69 11.36,12.03 l 143.99,64.49 c 5.24,2.34 11.18,2.5 16.56,0.47 5.33,-2.05 9.68,-6.13 12.04,-11.38"
         style="fill:#24211f;fill-opacity:1;fill-rule:evenodd;stroke:none"
         transform="matrix(0.13333333,0,0,-0.13333333,0,640.25333)" />
    </g>
  </g>
</svg>
