<?xml version="1.0" encoding="UTF-8" standalone="no"?>
<!-- Created with Inkscape (http://www.inkscape.org/) -->

<svg
   version="1.1"
   id="svg1"
   width="770.70667"
   height="694.77332"
   viewBox="0 0 770.70667 694.77332"
   sodipodi:docname="worker-takes-measurements.svg"
   inkscape:version="1.4 (e7c3feb100, 2024-10-09)"
   xmlns:inkscape="http://www.inkscape.org/namespaces/inkscape"
   xmlns:sodipodi="http://sodipodi.sourceforge.net/DTD/sodipodi-0.dtd"
   xmlns="http://www.w3.org/2000/svg"
   xmlns:svg="http://www.w3.org/2000/svg">
  <defs
     id="defs1" />
  <sodipodi:namedview
     id="namedview1"
     pagecolor="#505050"
     bordercolor="#ffffff"
     borderopacity="1"
     inkscape:showpageshadow="0"
     inkscape:pageopacity="0"
     inkscape:pagecheckerboard="1"
     inkscape:deskcolor="#d1d1d1"
     inkscape:zoom="1.1730445"
     inkscape:cx="385.32213"
     inkscape:cy="347.38666"
     inkscape:window-width="1920"
     inkscape:window-height="1002"
     inkscape:window-x="0"
     inkscape:window-y="0"
     inkscape:window-maximized="1"
     inkscape:current-layer="g1">
    <inkscape:page
       x="0"
       y="0"
       inkscape:label="1"
       id="page1"
       width="770.70667"
       height="694.77332"
       margin="0"
       bleed="0" />
  </sodipodi:namedview>
  <g
     id="g1"
     inkscape:groupmode="layer"
     inkscape:label="1">
    <g
       id="group-R5">
      <path
         id="path2"
         d="m 1746.13,100.262 c 0,7.519 -1.08,14.008 -3.31,19.308 -2.16,5.379 -5.19,9.532 -9.1,12.461 -3.89,2.84 -8.18,4.309 -12.91,4.309 -7.5,0 -13.84,-3.168 -18.99,-9.301 -5.16,-6.199 -7.74,-15.25 -7.74,-27.2499 0,-11.3203 2.58,-20.1094 7.66,-26.3086 5.15,-6.3086 11.52,-9.4805 19.07,-9.4805 4.5,0 8.73,1.3711 12.59,4.1484 3.8,2.7422 6.9,6.8438 9.24,12.2735 2.35,5.5273 3.49,12.0976 3.49,19.8401 z m -53.31,41.379 v -3.422 c 5.1,6.551 10.39,11.453 15.9,14.48 5.53,3.11 11.82,4.672 18.8,4.672 8.35,0 16.06,-2.262 23.11,-6.769 7.02,-4.52 12.58,-11.071 16.69,-19.77 4.08,-8.684 6.09,-18.922 6.09,-30.781 0,-8.7112 -1.14,-16.8401 -3.5,-24.0393 -2.35,-7.332 -5.6,-13.5117 -9.71,-18.4531 -4.12,-4.9492 -9.02,-8.7891 -14.59,-11.4297 -5.65,-2.707 -11.7,-4.0195 -18.09,-4.0195 -7.81,0 -14.34,1.6211 -19.62,4.8828 -5.33,3.2461 -10.33,8.0078 -15.08,14.3281 V 18.7188 C 1692.82,6.21875 1688.46,0 1679.76,0 c -5.12,0 -8.53,1.58984 -10.14,4.78906 -1.68,3.25 -2.5,7.94924 -2.5,14.11324 V 141.449 c 0,5.41 1.09,9.461 3.37,12.11 2.3,2.652 5.37,4.023 9.27,4.023 3.85,0 6.99,-1.371 9.41,-4.141 2.42,-2.761 3.65,-6.699 3.65,-11.8"
         style="fill:#100f0d;fill-opacity:1;fill-rule:nonzero;stroke:none"
         transform="matrix(0.13333333,0,0,-0.13333333,0,694.77333)" />
      <path
         id="path3"
         d="M 1865.95,58.1602 V 61.75 c -3.27,-4.2891 -6.68,-7.8711 -10.28,-10.7695 -3.59,-2.961 -7.51,-5.1094 -11.74,-6.5117 -4.29,-1.4063 -9.13,-2.1368 -14.58,-2.1368 -6.54,0 -12.44,1.4375 -17.67,4.25 -5.22,2.8282 -9.27,6.7696 -12.08,11.75 -3.44,6.0391 -5.09,14.7071 -5.09,25.9688 V 140.57 c 0,5.641 1.22,9.922 3.69,12.711 2.46,2.801 5.7,4.219 9.73,4.219 4.14,0 7.44,-1.418 9.98,-4.289 2.53,-2.852 3.77,-7.082 3.77,-12.641 V 95.0898 c 0,-6.539 0.53,-12.0781 1.56,-16.5195 1.12,-4.4883 3.02,-7.9805 5.8,-10.5508 2.7,-2.4882 6.46,-3.7578 11.17,-3.7578 4.63,0 8.94,1.4297 12.96,4.2696 4.09,2.8085 7.05,6.5078 8.89,11.0898 1.53,4.0195 2.29,12.8203 2.29,26.4099 v 34.539 c 0,5.559 1.26,9.789 3.8,12.641 2.5,2.871 5.75,4.289 9.83,4.289 4.06,0 7.31,-1.418 9.77,-4.219 2.43,-2.789 3.64,-7.07 3.64,-12.711 V 58.332 c 0,-5.4023 -1.13,-9.4726 -3.49,-12.1523 -2.34,-2.7305 -5.38,-4.0508 -9.11,-4.0508 -3.71,0 -6.76,1.4297 -9.21,4.1719 -2.42,2.8476 -3.63,6.7383 -3.63,11.8594"
         style="fill:#100f0d;fill-opacity:1;fill-rule:nonzero;stroke:none"
         transform="matrix(0.13333333,0,0,-0.13333333,0,694.77333)" />
      <path
         id="path4"
         d="m 1944.85,99.1406 c 0,-11.289 2.46,-19.9297 7.39,-26.0195 4.97,-6.0391 11.47,-9.1211 19.52,-9.1211 6.85,0 12.7,3.1289 17.69,9.3203 4.97,6.2188 7.45,15.0586 7.45,26.6485 0,7.5702 -1.04,13.9802 -3.11,19.3712 -2.08,5.441 -5.02,9.609 -8.76,12.531 -3.84,2.938 -8.2,4.469 -13.27,4.469 -5.23,0 -9.77,-1.531 -13.85,-4.469 -4.09,-2.922 -7.25,-7.199 -9.59,-12.801 -2.33,-5.531 -3.47,-12.16 -3.47,-19.9294 z m -1.29,84.3904 v -43.39 c 5.05,5.589 10.3,9.789 15.61,12.808 5.32,2.93 11.92,4.422 19.74,4.422 9.04,0 16.95,-2.262 23.76,-6.691 6.8,-4.551 12.11,-10.981 15.85,-19.481 3.78,-8.48 5.64,-18.547 5.64,-30.187 0,-8.6214 -1.03,-16.4925 -3.11,-23.7229 -2.1,-7.1289 -5.11,-13.3282 -9.12,-18.6602 -4.02,-5.2266 -8.86,-9.2578 -14.51,-12.2383 -5.71,-2.832 -11.97,-4.2812 -18.8,-4.2812 -4.15,0 -8.12,0.5312 -11.83,1.539 -3.67,1.0625 -6.84,2.4102 -9.37,4.1602 -2.63,1.6016 -4.84,3.4219 -6.67,5.1836 -1.81,1.8281 -4.21,4.5078 -7.19,8.1094 V 58.332 c 0,-5.3632 -1.26,-9.3906 -3.72,-12.1523 -2.42,-2.7305 -5.6,-4.0703 -9.34,-4.0703 -3.88,0 -6.93,1.3398 -9.25,4.0703 -2.27,2.8086 -3.41,6.8125 -3.41,12.1523 v 123.957 c 0,5.723 1.1,10.07 3.36,13.012 2.21,2.961 5.28,4.429 9.3,4.429 4.16,0 7.4,-1.398 9.63,-4.23 2.28,-2.789 3.43,-6.762 3.43,-11.969"
         style="fill:#100f0d;fill-opacity:1;fill-rule:nonzero;stroke:none"
         transform="matrix(0.13333333,0,0,-0.13333333,0,694.77333)" />
      <path
         id="path5"
         d="M 2043.35,59.3789 V 182.469 c 0,5.711 1.21,9.98 3.6,12.91 2.47,2.883 5.73,4.351 9.85,4.351 4.12,0 7.42,-1.421 9.96,-4.308 2.48,-2.863 3.8,-7.223 3.8,-12.953 V 59.3789 c 0,-5.7578 -1.32,-10.0898 -3.87,-12.9883 -2.53,-2.832 -5.85,-4.2812 -9.89,-4.2812 -3.99,0 -7.19,1.4922 -9.7,4.4726 -2.5,2.9883 -3.75,7.2383 -3.75,12.7969"
         style="fill:#100f0d;fill-opacity:1;fill-rule:nonzero;stroke:none"
         transform="matrix(0.13333333,0,0,-0.13333333,0,694.77333)" />
      <path
         id="path6"
         d="M 2125.83,141.379 V 59.3789 c 0,-5.7187 -1.33,-10.0078 -3.86,-12.9297 -2.61,-2.8476 -5.92,-4.3398 -9.87,-4.3398 -4,0 -7.25,1.4922 -9.72,4.4414 -2.47,3.0195 -3.76,7.2695 -3.76,12.8281 V 140.57 c 0,5.559 1.29,9.789 3.76,12.641 2.47,2.871 5.72,4.289 9.72,4.289 3.95,0 7.26,-1.418 9.87,-4.289 2.53,-2.852 3.86,-6.77 3.86,-11.832 z m -13.46,29.34 c -3.79,0 -6.99,1.211 -9.75,3.703 -2.62,2.418 -4,5.867 -4,10.328 0,3.988 1.38,7.27 4.15,9.922 2.76,2.609 5.95,3.828 9.6,3.828 3.52,0 6.66,-1.148 9.37,-3.488 2.71,-2.352 4.09,-5.821 4.09,-10.262 0,-4.418 -1.34,-7.828 -4,-10.25 -2.66,-2.461 -5.78,-3.781 -9.46,-3.781"
         style="fill:#100f0d;fill-opacity:1;fill-rule:nonzero;stroke:none"
         transform="matrix(0.13333333,0,0,-0.13333333,0,694.77333)" />
      <path
         id="path7"
         d="m 2251.35,77.2617 c 0,-3.5195 -1,-7.3203 -3.02,-11.3398 -2.05,-4.0235 -5.13,-7.8203 -9.3,-11.4805 -4.12,-3.6211 -9.36,-6.5508 -15.67,-8.75 -6.3,-2.2695 -13.43,-3.3594 -21.31,-3.3594 -16.82,0 -29.93,5.1289 -39.37,15.3399 -9.41,10.2187 -14.14,23.8867 -14.14,41.0976 0,11.6405 2.15,21.9605 6.45,30.8785 4.31,8.891 10.61,15.864 18.75,20.711 8.14,4.922 17.94,7.36 29.26,7.36 7.07,0 13.54,-1.098 19.42,-3.219 5.87,-2.168 10.85,-4.949 14.93,-8.309 4.09,-3.41 7.2,-7.043 9.37,-10.859 2.18,-3.84 3.23,-7.441 3.23,-10.773 0,-3.348 -1.23,-6.227 -3.63,-8.598 -2.44,-2.391 -5.34,-3.551 -8.81,-3.551 -2.28,0 -4.13,0.66 -5.66,1.871 -1.45,1.168 -3.14,3.071 -5.02,5.84 -3.3,5.238 -6.8,9.231 -10.41,11.91 -3.63,2.61 -8.23,3.961 -13.76,3.961 -8.08,0 -14.56,-3.332 -19.46,-9.883 -4.93,-6.578 -7.36,-15.527 -7.36,-26.8981 0,-5.3007 0.63,-10.2695 1.91,-14.7109 1.25,-4.4883 3.07,-8.2891 5.45,-11.4609 2.4,-3.1602 5.26,-5.5274 8.67,-7.1602 3.38,-1.6601 7.11,-2.4492 11.13,-2.4492 5.49,0 10.13,1.2891 14.02,3.9219 3.9,2.6679 7.34,6.6875 10.31,12.0273 1.67,3.2813 3.46,5.75 5.39,7.5703 1.95,1.8125 4.31,2.6719 7.09,2.6719 3.32,0 6.07,-1.2813 8.29,-3.9219 2.14,-2.6875 3.25,-5.4687 3.25,-8.4375"
         style="fill:#100f0d;fill-opacity:1;fill-rule:nonzero;stroke:none"
         transform="matrix(0.13333333,0,0,-0.13333333,0,694.77333)" />
      <path
         id="path8"
         d="m 2296.15,99.9688 c 0,-7.6875 1.14,-14.1993 3.43,-19.6368 2.3,-5.4218 5.4,-9.4414 9.38,-12.1836 C 2312.97,65.3711 2317.33,64 2322,64 c 4.8,0 9.16,1.332 13.1,3.8906 3.98,2.6211 7.09,6.6289 9.48,11.9883 2.37,5.3516 3.54,12.082 3.54,20.0899 0,7.6132 -1.17,14.0622 -3.54,19.5312 -2.39,5.449 -5.55,9.602 -9.56,12.531 -4.02,2.84 -8.4,4.309 -13.18,4.309 -4.97,0 -9.41,-1.531 -13.35,-4.469 -3.89,-2.922 -6.97,-7.191 -9.11,-12.699 -2.14,-5.531 -3.23,-11.871 -3.23,-19.2032 z m 53.46,-41.6368 v 2.7696 c -3.66,-4.3594 -7.26,-7.9102 -10.86,-10.6016 -3.49,-2.7812 -7.36,-4.8516 -11.51,-6.2695 -4.14,-1.3907 -8.68,-2.1211 -13.58,-2.1211 -6.5,0 -12.57,1.4492 -18.09,4.2812 -5.53,2.9805 -10.32,7.0313 -14.38,12.3594 -4.04,5.3398 -7.11,11.6094 -9.22,18.8516 -2.12,7.1797 -3.14,14.9804 -3.14,23.4104 0,17.687 4.16,31.59 12.46,41.5 8.32,9.91 19.23,14.859 32.76,14.859 7.83,0 14.45,-1.422 19.82,-4.281 5.37,-2.77 10.63,-7.078 15.74,-12.949 v 41.91 c 0,5.84 1.1,10.238 3.34,13.199 2.22,3 5.36,4.48 9.49,4.48 4.11,0 7.28,-1.378 9.53,-4.089 2.21,-2.719 3.36,-6.77 3.36,-12.11 V 58.332 c 0,-5.4023 -1.21,-9.4726 -3.61,-12.1523 -2.4,-2.7305 -5.46,-4.0703 -9.28,-4.0703 -3.68,0 -6.79,1.4023 -9.22,4.1914 -2.4,2.8008 -3.61,6.7812 -3.61,12.0312"
         style="fill:#100f0d;fill-opacity:1;fill-rule:nonzero;stroke:none"
         transform="matrix(0.13333333,0,0,-0.13333333,0,694.77333)" />
      <path
         id="path9"
         d="m 2477.14,99.75 c 0,11.531 -2.48,20.57 -7.34,27.02 -4.88,6.402 -11.46,9.66 -19.68,9.66 -5.34,0 -10,-1.45 -14.06,-4.321 -4.04,-2.918 -7.15,-7.16 -9.35,-12.769 -2.18,-5.559 -3.3,-12.07 -3.3,-19.59 0,-7.4414 1.12,-13.8906 3.24,-19.418 2.15,-5.5429 5.25,-9.7929 9.3,-12.7422 4,-2.9375 8.76,-4.3906 14.17,-4.3906 8.22,0 14.8,3.2227 19.68,9.6914 4.86,6.461 7.34,15.4492 7.34,26.8594 z m 27.28,0 c 0,-8.4102 -1.28,-16.2109 -3.79,-23.3984 -2.52,-7.0821 -6.17,-13.2305 -10.92,-18.3828 -4.82,-5.1368 -10.53,-8.9805 -17.16,-11.7891 -6.64,-2.7305 -14.17,-4.0703 -22.43,-4.0703 -8.22,0 -15.64,1.3398 -22.19,4.1523 -6.58,2.7578 -12.3,6.7305 -17.12,11.8985 -4.79,5.1796 -8.43,11.2304 -10.96,18.2695 -2.48,7.082 -3.72,14.8086 -3.72,23.3594 0,8.6019 1.28,16.4609 3.77,23.5699 2.53,7.18 6.13,13.231 10.86,18.332 4.72,5.051 10.42,8.938 17.17,11.68 6.72,2.738 14.08,4.129 22.19,4.129 8.25,0 15.72,-1.391 22.43,-4.168 6.68,-2.762 12.43,-6.762 17.21,-11.883 4.81,-5.109 8.43,-11.25 10.87,-18.328 2.55,-7.051 3.79,-14.851 3.79,-23.371"
         style="fill:#100f0d;fill-opacity:1;fill-rule:nonzero;stroke:none"
         transform="matrix(0.13333333,0,0,-0.13333333,0,694.77333)" />
      <path
         id="path10"
         d="m 2619.28,123.191 c -2.04,-4.793 -3.01,-13.261 -3.01,-25.4605 v -37.711 c 0,-5.9375 -1.27,-10.4492 -3.89,-13.4375 -2.58,-2.9804 -6.04,-4.4726 -10.29,-4.4726 -4.08,0 -7.41,1.4922 -9.95,4.4726 -2.56,2.9883 -3.81,7.5 -3.81,13.4375 v 45.2695 c 0,7.121 -0.27,12.652 -0.74,16.652 -0.47,3.911 -1.72,7.168 -3.78,9.707 -2.02,2.551 -5.29,3.813 -9.72,3.813 -8.9,0 -14.75,-3.191 -17.6,-9.609 -2.84,-6.352 -4.19,-15.512 -4.19,-27.4536 V 60.0195 c 0,-5.9297 -1.31,-10.3906 -3.83,-13.3398 -2.59,-3.0781 -5.96,-4.5703 -10.09,-4.5703 -4.15,0 -7.56,1.4922 -10.16,4.5703 -2.65,2.9492 -3.89,7.4101 -3.89,13.332 v 81.2073 c 0,5.351 1.12,9.41 3.45,12.179 2.4,2.754 5.5,4.184 9.38,4.184 3.71,0 6.82,-1.293 9.29,-3.902 2.49,-2.59 3.73,-6.16 3.73,-10.75 v -2.7 c 4.7,5.899 9.77,10.25 15.12,12.981 5.37,2.781 11.42,4.16 17.94,4.16 6.82,0 12.68,-1.422 17.59,-4.281 4.94,-2.82 8.97,-7.121 12.14,-12.86 4.59,5.782 9.51,10.129 14.77,12.93 5.25,2.832 11.05,4.211 17.4,4.211 7.5,0 13.89,-1.492 19.23,-4.59 5.4,-3.039 9.4,-7.402 12.07,-13.082 2.34,-5.14 3.48,-13.207 3.48,-24.25 V 60.0195 c 0,-5.9375 -1.29,-10.4492 -3.84,-13.4375 -2.65,-2.9804 -6.03,-4.4726 -10.29,-4.4726 -4.13,0 -7.49,1.4922 -10.1,4.5703 -2.65,2.9492 -3.97,7.4101 -3.97,13.3398 v 47.7615 c 0,6.11 -0.24,10.981 -0.72,14.66 -0.51,3.711 -1.86,6.75 -4.07,9.258 -2.18,2.5 -5.52,3.762 -9.93,3.762 -3.58,0 -7,-1.121 -10.17,-3.289 -3.28,-2.25 -5.72,-5.231 -7.55,-8.981 v 0"
         style="fill:#100f0d;fill-opacity:1;fill-rule:nonzero;stroke:none"
         transform="matrix(0.13333333,0,0,-0.13333333,0,694.77333)" />
      <path
         id="path11"
         d="m 2773.3,99.2109 c -4.01,-1.5586 -9.81,-3.1289 -17.41,-4.8515 -7.61,-1.6992 -12.88,-2.9375 -15.8,-3.75 -2.93,-0.8203 -5.72,-2.3672 -8.34,-4.6602 -2.69,-2.3984 -4.03,-5.6172 -4.03,-9.7773 0,-4.3321 1.59,-7.961 4.67,-10.9805 3.15,-3.0625 7.24,-4.543 12.29,-4.543 5.37,0 10.36,1.25 14.89,3.7227 4.55,2.4414 7.92,5.6484 10.01,9.5 2.46,4.3086 3.72,11.3594 3.72,21.3008 z m 1.76,-41.1093 c -6.59,-5.3633 -12.94,-9.3321 -19.08,-11.9727 -6.12,-2.707 -13.05,-4.0195 -20.65,-4.0195 -7.02,0 -13.09,1.4492 -18.41,4.2812 -5.31,2.8985 -9.34,6.8008 -12.21,11.7696 -2.83,4.9218 -4.29,10.1992 -4.29,15.9882 0,7.7618 2.42,14.3633 7.12,19.8438 4.67,5.4492 11.14,9.1288 19.37,11.0198 1.73,0.418 6.04,1.32 12.84,2.769 6.92,1.5 12.72,2.801 17.67,4.008 4.84,1.191 10.16,2.672 15.88,4.391 -0.36,7.519 -1.79,13.011 -4.33,16.582 -2.59,3.468 -7.93,5.179 -15.91,5.179 -6.95,0 -12.11,-0.98 -15.65,-2.992 -3.46,-1.98 -6.47,-5.027 -8.92,-9.097 -2.53,-3.993 -4.25,-6.661 -5.28,-7.922 -1.06,-1.321 -3.28,-1.891 -6.61,-1.891 -3.1,0 -5.72,1 -7.92,3.02 -2.25,2.062 -3.36,4.64 -3.36,7.882 0,4.969 1.7,9.868 5.07,14.508 3.39,4.742 8.68,8.61 15.84,11.711 7.17,3.051 16.13,4.559 26.83,4.559 11.92,0 21.33,-1.508 28.22,-4.438 6.82,-2.922 11.6,-7.551 14.45,-13.972 2.84,-6.34 4.24,-14.84 4.24,-25.36 0,-6.648 0,-12.34 -0.04,-16.949 -0.05,-4.6914 -0.08,-9.8281 -0.14,-15.5195 0,-5.3086 0.84,-10.8907 2.55,-16.6602 1.65,-5.789 2.49,-9.5312 2.49,-11.1601 0,-2.918 -1.32,-5.5782 -3.93,-7.9688 -2.57,-2.3828 -5.58,-3.582 -8.87,-3.582 -2.84,0 -5.54,1.3398 -8.3,4.0703 -2.72,2.7617 -5.6,6.75 -8.67,11.9219"
         style="fill:#100f0d;fill-opacity:1;fill-rule:nonzero;stroke:none"
         transform="matrix(0.13333333,0,0,-0.13333333,0,694.77333)" />
      <path
         id="path12"
         d="M 2854.79,141.379 V 59.3789 c 0,-5.7187 -1.3,-10.0078 -3.85,-12.9297 -2.59,-2.8476 -5.85,-4.3398 -9.85,-4.3398 -3.98,0 -7.26,1.4922 -9.71,4.4414 -2.53,3.0195 -3.78,7.2695 -3.78,12.8281 V 140.57 c 0,5.559 1.25,9.789 3.78,12.641 2.45,2.871 5.73,4.289 9.71,4.289 4,0 7.26,-1.418 9.85,-4.289 2.55,-2.852 3.85,-6.77 3.85,-11.832 z m -13.44,29.34 c -3.74,0 -6.97,1.211 -9.66,3.703 -2.69,2.418 -4.09,5.867 -4.09,10.328 0,3.988 1.41,7.27 4.18,9.922 2.73,2.609 5.96,3.828 9.57,3.828 3.54,0 6.69,-1.148 9.42,-3.488 2.68,-2.352 4.02,-5.821 4.02,-10.262 0,-4.418 -1.3,-7.828 -3.97,-10.25 -2.66,-2.461 -5.81,-3.781 -9.47,-3.781"
         style="fill:#100f0d;fill-opacity:1;fill-rule:nonzero;stroke:none"
         transform="matrix(0.13333333,0,0,-0.13333333,0,694.77333)" />
      <path
         id="path13"
         d="m 2907.65,141.789 v -3.391 c 4.75,6.563 9.97,11.391 15.61,14.473 5.7,3.078 12.23,4.629 19.63,4.629 7.13,0 13.57,-1.621 19.26,-4.91 5.58,-3.238 9.83,-7.82 12.59,-13.758 1.81,-3.5 2.94,-7.281 3.51,-11.281 0.49,-3.981 0.8,-9.11 0.8,-15.371 V 59.3789 c 0,-5.7187 -1.29,-10.0078 -3.76,-12.9297 -2.5,-2.8476 -5.74,-4.3398 -9.7,-4.3398 -4.05,0 -7.36,1.4922 -9.78,4.4726 -2.56,2.9883 -3.86,7.2383 -3.86,12.7969 v 47.2691 c 0,9.403 -1.21,16.543 -3.69,21.481 -2.54,4.961 -7.52,7.48 -14.96,7.48 -4.83,0 -9.24,-1.539 -13.22,-4.57 -3.98,-2.969 -6.9,-7.129 -8.75,-12.418 -1.33,-4.23 -2.03,-12.09 -2.03,-23.7421 v -35.5 c 0,-5.7578 -1.25,-10.0898 -3.83,-12.9883 -2.56,-2.832 -5.87,-4.2812 -9.9,-4.2812 -3.89,0 -7.14,1.4922 -9.65,4.4414 -2.57,3.0195 -3.8,7.2695 -3.8,12.8281 v 82.0001 c 0,5.43 1.11,9.422 3.41,12.101 2.2,2.672 5.37,4.02 9.26,4.02 2.35,0 4.55,-0.629 6.44,-1.77 1.98,-1.16 3.47,-2.988 4.64,-5.25 1.13,-2.41 1.78,-5.289 1.78,-8.691"
         style="fill:#100f0d;fill-opacity:1;fill-rule:nonzero;stroke:none"
         transform="matrix(0.13333333,0,0,-0.13333333,0,694.77333)" />
      <path
         id="path14"
         d="m 3022.7,139.832 21.96,-64.4414 23.72,67.2614 c 1.88,5.418 3.7,9.2 5.52,11.457 1.82,2.25 4.5,3.391 8.13,3.391 3.46,0 6.39,-1.211 8.87,-3.68 2.37,-2.398 3.59,-5.168 3.59,-8.441 0,-1.219 -0.23,-2.66 -0.66,-4.277 -0.39,-1.704 -0.89,-3.262 -1.49,-4.75 -0.56,-1.403 -1.15,-3.09 -1.94,-4.942 l -26.08,-67.5702 c -0.74,-1.9414 -1.7,-4.4296 -2.84,-7.4101 -1.18,-2.9688 -2.5,-5.4609 -3.88,-7.6602 -1.47,-2.0898 -3.21,-3.6875 -5.28,-4.8789 -2.12,-1.1914 -4.67,-1.7812 -7.66,-1.7812 -3.85,0 -6.91,0.9101 -9.23,2.7109 -2.29,1.8594 -3.98,3.8399 -5.07,6.082 -1.07,2.1368 -2.96,6.4766 -5.52,12.9375 l -25.92,66.8322 c -0.6,1.629 -1.24,3.308 -1.89,4.976 -0.59,1.661 -1.08,3.321 -1.55,5.094 -0.42,1.77 -0.67,3.25 -0.67,4.449 0,1.981 0.57,3.891 1.72,5.801 1.14,1.918 2.7,3.488 4.68,4.668 2.02,1.211 4.13,1.84 6.5,1.84 4.48,0 7.59,-1.348 9.3,-4.102 1.7,-2.679 3.61,-7.207 5.69,-13.566"
         style="fill:#100f0d;fill-opacity:1;fill-rule:nonzero;stroke:none"
         transform="matrix(0.13333333,0,0,-0.13333333,0,694.77333)" />
      <path
         id="path15"
         d="m 3133.93,109.012 h 49.28 c -0.62,9.668 -3.11,16.929 -7.5,21.718 -4.36,4.801 -10.09,7.211 -17.21,7.211 -6.73,0 -12.32,-2.441 -16.64,-7.312 -4.35,-4.859 -6.96,-12.09 -7.93,-21.617 z m 53.2,-16.1526 h -53.2 c 0.01,-6.4571 1.3,-12.1406 3.69,-17.0977 2.46,-4.8711 5.66,-8.5898 9.69,-11.1094 4.01,-2.5234 8.46,-3.7226 13.32,-3.7226 3.24,0 6.25,0.3906 8.89,1.1601 2.68,0.8399 5.31,2.0821 7.86,3.75 2.48,1.711 4.79,3.4805 6.94,5.5 2.1,1.9297 4.93,4.5196 8.27,7.8711 1.4,1.3086 3.42,1.8907 5.96,1.8907 2.85,0 5.07,-0.7696 6.81,-2.4102 1.73,-1.5898 2.54,-3.8203 2.54,-6.7305 0,-2.5703 -0.94,-5.5586 -2.88,-9.0312 -1.9,-3.3789 -4.76,-6.6992 -8.71,-9.8906 -3.9,-3.1289 -8.77,-5.6993 -14.65,-7.8399 -5.85,-2.0703 -12.58,-3.0898 -20.28,-3.0898 -17.43,0 -31.04,5.2304 -40.7,15.582 -9.68,10.4375 -14.51,24.5078 -14.51,42.2774 0,8.5002 1.23,16.2112 3.57,23.3712 2.39,7.199 5.86,13.332 10.46,18.449 4.59,5.152 10.19,9.121 16.92,11.813 6.74,2.757 14.14,4.117 22.34,4.117 10.55,0 19.7,-2.328 27.3,-7.039 7.62,-4.668 13.31,-10.68 17.09,-18.078 3.79,-7.461 5.68,-14.981 5.68,-22.743 0,-7.078 -1.9,-11.7106 -5.86,-13.8082 -3.95,-2.1406 -9.43,-3.1914 -16.54,-3.1914"
         style="fill:#100f0d;fill-opacity:1;fill-rule:nonzero;stroke:none"
         transform="matrix(0.13333333,0,0,-0.13333333,0,694.77333)" />
      <path
         id="path16"
         d="m 3330.01,77.2617 c 0,-3.5195 -1.01,-7.3203 -3.08,-11.3398 -2.03,-4.0235 -5.05,-7.8203 -9.24,-11.4805 -4.14,-3.6211 -9.41,-6.5508 -15.74,-8.75 -6.27,-2.2695 -13.41,-3.3594 -21.25,-3.3594 -16.86,0 -29.97,5.1289 -39.38,15.3399 -9.41,10.2187 -14.15,23.8867 -14.15,41.0976 0,11.6405 2.14,21.9605 6.49,30.8785 4.33,8.891 10.51,15.864 18.71,20.711 8.14,4.922 17.93,7.36 29.31,7.36 7.03,0 13.47,-1.098 19.39,-3.219 5.86,-2.168 10.81,-4.949 14.95,-8.309 4.08,-3.41 7.16,-7.043 9.35,-10.859 2.14,-3.84 3.21,-7.441 3.21,-10.773 0,-3.348 -1.18,-6.227 -3.68,-8.598 -2.39,-2.391 -5.32,-3.551 -8.78,-3.551 -2.25,0 -4.13,0.66 -5.59,1.871 -1.53,1.168 -3.19,3.071 -5.07,5.84 -3.32,5.238 -6.77,9.231 -10.39,11.91 -3.62,2.61 -8.22,3.961 -13.82,3.961 -7.99,0 -14.48,-3.332 -19.39,-9.883 -4.97,-6.578 -7.41,-15.527 -7.41,-26.8981 0,-5.3007 0.68,-10.2695 1.89,-14.7109 1.27,-4.4883 3.11,-8.2891 5.52,-11.4609 2.38,-3.1602 5.29,-5.5274 8.67,-7.1602 3.33,-1.6601 7.07,-2.4492 11.15,-2.4492 5.43,0 10.12,1.2891 14,3.9219 3.87,2.6679 7.34,6.6875 10.33,12.0273 1.67,3.2813 3.42,5.75 5.38,7.5703 1.9,1.8125 4.23,2.6719 7.07,2.6719 3.27,0 6.07,-1.2813 8.18,-3.9219 2.25,-2.6875 3.37,-5.4687 3.37,-8.4375"
         style="fill:#100f0d;fill-opacity:1;fill-rule:nonzero;stroke:none"
         transform="matrix(0.13333333,0,0,-0.13333333,0,694.77333)" />
      <path
         id="path17"
         d="m 3355.26,155.109 h 2.99 v 17.063 c 0,4.539 0.13,8.16 0.37,10.75 0.23,2.609 0.82,4.777 1.95,6.699 1.02,1.899 2.56,3.5 4.59,4.738 1.97,1.18 4.19,1.75 6.65,1.75 3.43,0 6.57,-1.32 9.34,-4.007 1.82,-1.832 3.03,-3.993 3.53,-6.571 0.51,-2.609 0.73,-6.351 0.73,-11.109 v -19.313 h 10 c 3.85,0 6.8,-0.968 8.82,-2.867 2.06,-1.922 3.05,-4.332 3.05,-7.32 0,-3.82 -1.44,-6.524 -4.37,-8.024 -2.87,-1.488 -7.01,-2.257 -12.38,-2.257 h -5.12 V 82.3594 c 0,-4.4492 0.17,-7.8672 0.45,-10.2891 0.35,-2.3984 1.19,-4.3515 2.45,-5.789 1.26,-1.5 3.37,-2.2813 6.32,-2.2813 1.58,0 3.73,0.2813 6.48,0.8984 2.66,0.5821 4.8,0.8829 6.35,0.8829 2.18,0 4.22,-0.961 5.95,-2.6993 1.72,-1.9023 2.63,-4.1328 2.63,-6.8515 0,-4.5508 -2.35,-8.0586 -7.16,-10.4883 -4.84,-2.4336 -11.69,-3.6328 -20.62,-3.6328 -8.5,0 -14.97,1.4922 -19.35,4.4726 -4.36,2.9883 -7.28,7.0782 -8.59,12.4063 -1.39,5.2734 -2.07,12.3008 -2.07,21.1015 v 54.5512 h -3.61 c -3.85,0 -6.85,0.968 -8.93,2.918 -2.07,1.933 -3.07,4.363 -3.07,7.363 0,2.988 1.05,5.398 3.19,7.32 2.19,1.899 5.3,2.867 9.43,2.867"
         style="fill:#100f0d;fill-opacity:1;fill-rule:nonzero;stroke:none"
         transform="matrix(0.13333333,0,0,-0.13333333,0,694.77333)" />
      <path
         id="path18"
         d="m 3500.46,99.75 c 0,11.531 -2.46,20.57 -7.32,27.02 -4.93,6.402 -11.42,9.66 -19.68,9.66 -5.33,0 -10,-1.45 -14.03,-4.321 -4.08,-2.918 -7.19,-7.16 -9.37,-12.769 -2.19,-5.559 -3.31,-12.07 -3.31,-19.59 0,-7.4414 1.12,-13.8906 3.27,-19.418 2.15,-5.5429 5.21,-9.7929 9.23,-12.7422 4,-2.9375 8.75,-4.3906 14.21,-4.3906 8.26,0 14.75,3.2227 19.68,9.6914 4.86,6.461 7.32,15.4492 7.32,26.8594 z m 27.3,0 c 0,-8.4102 -1.25,-16.2109 -3.81,-23.3984 -2.5,-7.0821 -6.18,-13.2305 -10.93,-18.3828 -4.8,-5.1368 -10.52,-8.9805 -17.13,-11.7891 -6.67,-2.7305 -14.09,-4.0703 -22.43,-4.0703 -8.27,0 -15.69,1.3398 -22.23,4.1523 -6.56,2.7578 -12.28,6.7305 -17.09,11.8985 -4.79,5.1796 -8.46,11.2304 -10.91,18.2695 -2.48,7.082 -3.7,14.8086 -3.7,23.3594 0,8.6019 1.22,16.4609 3.7,23.5699 2.58,7.18 6.15,13.231 10.86,18.332 4.76,5.051 10.45,8.938 17.14,11.68 6.78,2.738 14.16,4.129 22.23,4.129 8.26,0 15.69,-1.391 22.43,-4.168 6.7,-2.762 12.42,-6.762 17.22,-11.883 4.72,-5.109 8.43,-11.25 10.91,-18.328 2.49,-7.051 3.74,-14.851 3.74,-23.371"
         style="fill:#100f0d;fill-opacity:1;fill-rule:nonzero;stroke:none"
         transform="matrix(0.13333333,0,0,-0.13333333,0,694.77333)" />
      <path
         id="path19"
         d="M 3576.21,83.0117 V 59.3789 c 0,-5.7578 -1.31,-10.0898 -3.91,-12.9883 -2.59,-2.832 -5.86,-4.2812 -9.89,-4.2812 -3.87,0 -7.12,1.4922 -9.63,4.3398 -2.52,2.9219 -3.76,7.211 -3.76,12.9297 v 79.0001 c 0,12.762 4.4,19.121 13.24,19.121 4.47,0 7.74,-1.508 9.77,-4.461 1.95,-2.98 3.01,-7.398 3.27,-13.207 3.24,5.809 6.61,10.227 10.04,13.207 3.42,2.953 7.96,4.461 13.64,4.461 5.77,0 11.28,-1.508 16.68,-4.461 5.36,-2.98 8.08,-6.957 8.08,-11.859 0,-3.461 -1.18,-6.371 -3.47,-8.578 -2.26,-2.243 -4.74,-3.411 -7.44,-3.411 -0.97,0 -3.4,0.661 -7.2,1.969 -3.85,1.262 -7.22,1.93 -10.16,1.93 -3.94,0 -7.19,-1.059 -9.69,-3.301 -2.54,-2.207 -4.51,-5.41 -5.9,-9.687 -1.39,-4.352 -2.4,-9.442 -2.9,-15.391 -0.51,-5.8907 -0.77,-13.1016 -0.77,-21.6993"
         style="fill:#100f0d;fill-opacity:1;fill-rule:nonzero;stroke:none"
         transform="matrix(0.13333333,0,0,-0.13333333,0,694.77333)" />
      <path
         id="path20"
         d="m 3721.06,79.1914 c 0,-7.8516 -1.82,-14.5391 -5.51,-20.1328 -3.67,-5.5977 -9.06,-9.7695 -16.2,-12.6797 -7.17,-2.8203 -15.82,-4.2695 -26.11,-4.2695 -9.68,0 -18.09,1.539 -25.09,4.7031 -6.97,3.0977 -12.12,6.9766 -15.42,11.6484 -3.35,4.6602 -5.06,9.3477 -5.06,14.0508 0,3.1094 1.09,5.7891 3.27,8.0078 2.11,2.2618 4.81,3.3203 8.02,3.3203 2.88,0 5.1,-0.7382 6.62,-2.1484 1.52,-1.5391 2.95,-3.5508 4.38,-6.1797 2.78,-5.0703 6.1,-8.8515 10.05,-11.3398 3.82,-2.5313 9.12,-3.7735 15.89,-3.7735 5.42,0 9.89,1.293 13.39,3.8204 3.46,2.5312 5.26,5.4101 5.26,8.6718 0,5.0196 -1.84,8.668 -5.43,10.9414 -3.67,2.3282 -9.6,4.5078 -17.9,6.5664 -9.35,2.4336 -17,4.9805 -22.89,7.6329 -5.87,2.6797 -10.62,6.2307 -14.11,10.5897 -3.53,4.301 -5.31,9.711 -5.31,16.09 0,5.719 1.64,11.078 4.9,16.121 3.23,5.066 8.1,9.09 14.42,12.117 6.33,3.043 13.98,4.551 22.99,4.551 7,0 13.33,-0.781 18.98,-2.301 5.59,-1.519 10.34,-3.59 14.03,-6.117 3.75,-2.582 6.64,-5.422 8.58,-8.512 1.99,-3.16 2.96,-6.199 2.96,-9.16 0,-3.281 -1.02,-5.879 -3.16,-8.051 -2.1,-2 -5.1,-3.058 -8.89,-3.058 -2.82,0 -5.18,0.82 -7.19,2.519 -1.91,1.641 -4.19,4.121 -6.7,7.399 -2.06,2.793 -4.46,5.023 -7.28,6.679 -2.79,1.641 -6.57,2.5 -11.33,2.5 -4.93,0 -9.05,-1.078 -12.25,-3.289 -3.28,-2.16 -4.92,-4.91 -4.92,-8.16 0,-3 1.21,-5.429 3.57,-7.328 2.42,-1.922 5.62,-3.492 9.69,-4.75 4.09,-1.25 9.64,-2.801 16.75,-4.59 8.46,-2.14 15.32,-4.679 20.69,-7.691 5.34,-2.949 9.38,-6.4806 12.13,-10.5314 2.81,-4.0977 4.18,-8.707 4.18,-13.8672"
         style="fill:#100f0d;fill-opacity:1;fill-rule:nonzero;stroke:none"
         transform="matrix(0.13333333,0,0,-0.13333333,0,694.77333)" />
      <path
         id="path21"
         d="m 3751.94,42.1094 c -4.12,0 -7.68,1.3398 -10.63,4.1523 -3.04,2.7578 -4.51,6.668 -4.51,11.6094 0,4.2187 1.39,7.8594 4.23,10.9297 2.86,3.039 6.4,4.5195 10.59,4.5195 4.16,0 7.75,-1.4805 10.64,-4.5117 2.99,-2.9688 4.48,-6.6797 4.48,-10.9375 0,-4.9023 -1.49,-8.7695 -4.48,-11.5703 -2.89,-2.7891 -6.34,-4.1914 -10.32,-4.1914"
         style="fill:#100f0d;fill-opacity:1;fill-rule:nonzero;stroke:none"
         transform="matrix(0.13333333,0,0,-0.13333333,0,694.77333)" />
      <path
         id="path22"
         d="m 3872.2,99.75 c 0,11.531 -2.45,20.57 -7.34,27.02 -4.88,6.402 -11.41,9.66 -19.65,9.66 -5.32,0 -9.95,-1.45 -14.02,-4.321 -4.06,-2.918 -7.18,-7.16 -9.35,-12.769 -2.17,-5.559 -3.29,-12.07 -3.29,-19.59 0,-7.4414 1.05,-13.8906 3.2,-19.418 2.22,-5.5429 5.27,-9.7929 9.3,-12.7422 4.01,-2.9375 8.73,-4.3906 14.16,-4.3906 8.24,0 14.77,3.2227 19.65,9.6914 4.89,6.461 7.34,15.4492 7.34,26.8594 z m 27.32,0 c 0,-8.4102 -1.25,-16.2109 -3.81,-23.3984 -2.54,-7.0821 -6.15,-13.2305 -10.94,-18.3828 -4.83,-5.1368 -10.47,-8.9805 -17.13,-11.7891 -6.62,-2.7305 -14.1,-4.0703 -22.43,-4.0703 -8.22,0 -15.62,1.3398 -22.19,4.1523 -6.58,2.7578 -12.25,6.7305 -17.05,11.8985 -4.9,5.1796 -8.52,11.2304 -11.04,18.2695 -2.44,7.082 -3.69,14.8086 -3.69,23.3594 0,8.6019 1.25,16.4609 3.79,23.5699 2.57,7.18 6.13,13.231 10.82,18.332 4.72,5.051 10.44,8.938 17.17,11.68 6.7,2.738 14.05,4.129 22.19,4.129 8.24,0 15.71,-1.391 22.43,-4.168 6.74,-2.762 12.46,-6.762 17.25,-11.883 4.75,-5.109 8.38,-11.25 10.9,-18.328 2.48,-7.051 3.73,-14.851 3.73,-23.371"
         style="fill:#100f0d;fill-opacity:1;fill-rule:nonzero;stroke:none"
         transform="matrix(0.13333333,0,0,-0.13333333,0,694.77333)" />
      <path
         id="path23"
         d="M 3947.96,83.0117 V 59.3789 c 0,-5.7578 -1.3,-10.0898 -3.89,-12.9883 -2.55,-2.832 -5.88,-4.2812 -9.83,-4.2812 -3.97,0 -7.15,1.4922 -9.69,4.3398 -2.56,2.9219 -3.8,7.211 -3.8,12.9297 v 79.0001 c 0,12.762 4.47,19.121 13.26,19.121 4.53,0 7.76,-1.508 9.74,-4.461 1.96,-2.98 3.13,-7.398 3.36,-13.207 3.19,5.809 6.52,10.227 9.94,13.207 3.44,2.953 8.01,4.461 13.67,4.461 5.81,0 11.35,-1.508 16.67,-4.461 5.38,-2.98 8.1,-6.957 8.1,-11.859 0,-3.461 -1.15,-6.371 -3.43,-8.578 -2.31,-2.243 -4.75,-3.411 -7.47,-3.411 -0.96,0 -3.35,0.661 -7.17,1.969 -3.84,1.262 -7.21,1.93 -10.15,1.93 -3.96,0 -7.19,-1.059 -9.79,-3.301 -2.48,-2.207 -4.44,-5.41 -5.86,-9.687 -1.36,-4.352 -2.33,-9.442 -2.85,-15.391 -0.53,-5.8907 -0.81,-13.1016 -0.81,-21.6993"
         style="fill:#100f0d;fill-opacity:1;fill-rule:nonzero;stroke:none"
         transform="matrix(0.13333333,0,0,-0.13333333,0,694.77333)" />
      <path
         id="path24"
         d="m 4026.47,100.719 c 0,-11.4768 2.43,-20.1877 7.26,-26.1096 4.78,-5.8477 11.05,-8.8281 18.63,-8.8281 4.5,0 8.82,1.3085 12.82,3.8398 4.02,2.5312 7.29,6.3398 9.82,11.4297 2.56,5.1094 3.78,11.2578 3.78,18.539 0,11.5702 -2.46,20.5702 -7.33,26.9922 -4.87,6.508 -11.3,9.758 -19.26,9.758 -7.75,0 -13.99,-3.168 -18.65,-9.301 -4.71,-6.187 -7.07,-14.937 -7.07,-26.32 z m 78.84,36 V 54.25 c 0,-9.4609 -1.03,-17.5586 -2.92,-24.3203 -1.93,-6.8203 -5.01,-12.4375 -9.26,-16.8594 -4.24,-4.42967 -9.84,-7.71874 -16.67,-9.87108 C 4069.58,1.08984 4061.02,0 4050.8,0 c -9.38,0 -17.77,1.33203 -25.1,4.05859 -7.39,2.8125 -13.08,6.30081 -17.05,10.67191 -3.98,4.2812 -5.99,8.75 -5.99,13.3515 0,3.4688 1.1,6.2774 3.42,8.4493 2.23,2.2382 4.96,3.3203 8.14,3.3203 4,0 7.44,-1.8516 10.49,-5.5 1.46,-1.9414 2.99,-3.8008 4.5,-5.6914 1.56,-1.9102 3.3,-3.5782 5.17,-4.8985 1.92,-1.3906 4.21,-2.3828 6.87,-3.0508 2.6,-0.6523 5.7,-0.9804 9.17,-0.9804 6.98,0 12.51,1.039 16.37,3.0586 3.88,2.0429 6.62,4.9101 8.2,8.5703 1.48,3.6797 2.49,7.5898 2.65,11.7812 0.32,4.2813 0.5,10.9492 0.69,20.2891 -4.18,-6.0977 -9.09,-10.7383 -14.51,-13.9297 -5.48,-3.1992 -12.03,-4.75 -19.54,-4.75 -9.18,0 -17.13,2.3789 -23.89,7.2617 -6.85,4.8477 -12.08,11.6172 -15.72,20.3789 -3.61,8.711 -5.48,18.7891 -5.48,30.2384 0,8.57 1.09,16.281 3.36,23.141 2.18,6.832 5.33,12.628 9.52,17.351 4.07,4.711 8.85,8.281 14.22,10.68 5.41,2.351 11.25,3.57 17.75,3.57 7.67,0 14.34,-1.562 19.97,-4.672 5.73,-3.027 10.91,-7.929 15.78,-14.48 v 3.801 c 0,4.96 1.2,8.742 3.49,11.519 2.3,2.672 5.31,4.043 8.95,4.043 5.26,0 8.75,-1.773 10.49,-5.34 1.7,-3.59 2.59,-8.781 2.59,-15.523"
         style="fill:#100f0d;fill-opacity:1;fill-rule:nonzero;stroke:none"
         transform="matrix(0.13333333,0,0,-0.13333333,0,694.77333)" />
      <path
         id="path25"
         d="m 2926.61,413.102 h 40.33 c -2.85,-21.75 -11.75,-38.731 -26.58,-50.942 -13.71,-11.969 -30.33,-17.871 -49.73,-17.871 -26.34,0 -47.37,9.25 -63.07,27.723 -14.87,17.57 -22.3,40.258 -22.3,67.957 0,28.402 7.38,51.09 22.09,68.281 14.71,17.121 35.5,25.719 62.39,25.719 19.99,0 36.91,-5.41 50.62,-16.137 14.54,-11.602 23.44,-27.902 26.58,-48.773 h -40.33 c -3.49,18.222 -14.6,27.273 -33.52,27.273 -31.18,0 -46.8,-18.473 -46.8,-55.422 0,-17.328 4.02,-31.461 12.04,-42.461 8.02,-11.07 19.32,-16.59 33.9,-16.59 21.74,0 33.2,10.43 34.38,31.243 z m -158.8,25.437 c 0,-36.098 11.45,-66.66 34.31,-91.559 22.89,-24.89 50.9,-37.351 84.15,-37.351 33.1,0 61.13,12.461 83.98,37.351 22.92,24.899 34.3,55.461 34.3,91.559 0,36.082 -11.38,66.621 -34.3,91.52 -22.85,24.953 -50.88,37.382 -83.98,37.382 -33.25,0 -61.26,-12.429 -84.15,-37.382 -22.86,-24.899 -34.31,-55.438 -34.31,-91.52 z m -40.98,0 c 0,45.941 15.55,85.152 46.66,117.723 31.15,32.519 68.76,48.789 112.78,48.789 43.92,0 81.46,-16.27 112.65,-48.789 31.13,-32.571 46.72,-71.782 46.72,-117.723 0,-45.969 -15.59,-85.238 -46.72,-117.738 -31.19,-32.551 -68.73,-48.832 -112.65,-48.832 -44.02,0 -81.63,16.281 -112.78,48.832 -31.11,32.5 -46.66,71.769 -46.66,117.738"
         style="fill:#100f0d;fill-opacity:1;fill-rule:nonzero;stroke:none"
         transform="matrix(0.13333333,0,0,-0.13333333,0,694.77333)" />
      <path
         id="path26"
         d="m 2791.34,334.121 23.25,-19.73 170.96,219.539 -23.25,19.691 -170.96,-219.5"
         style="fill:#100f0d;fill-opacity:1;fill-rule:nonzero;stroke:none"
         transform="matrix(0.13333333,0,0,-0.13333333,0,694.77333)" />
      <path
         id="path27"
         d="m 3042.05,5210.83 c 1497.02,0 2710.6,-1213.57 2710.6,-2710.59 0,-434.94 -102.6,-845.84 -284.66,-1210.09 H 616.113 c -182.054,364.25 -284.66,775.15 -284.66,1210.09 0,1497.02 1213.577,2710.59 2710.597,2710.59"
         style="fill:#fef2e3;fill-opacity:1;fill-rule:evenodd;stroke:none"
         transform="matrix(0.13333333,0,0,-0.13333333,0,694.77333)" />
      <path
         id="path28"
         d="m 2890.15,1226.02 c 1591.82,0 2890.14,28.8 2890.14,64.13 0,35.31 -1298.32,64.12 -2890.14,64.12 C 1298.31,1354.27 0,1325.46 0,1290.15 c 0,-35.33 1298.31,-64.13 2890.15,-64.13"
         style="fill:#5f2e15;fill-opacity:1;fill-rule:evenodd;stroke:none"
         transform="matrix(0.13333333,0,0,-0.13333333,0,694.77333)" />
      <path
         id="path29"
         d="m 869.941,1632.97 -151.867,114.96 -37.386,47.79 -132.309,-83.67 c -38.414,-24.3 -67.34,-61.94 -81.656,-106.32 -18.403,-57 -65.524,-98.76 -122.489,-108.53 -85.836,-14.75 -144.714,-98.09 -132.703,-187.83 l 47.215,-1.32 59.965,-13.29 c 27.766,-6.16 56.457,-6.16 84.215,0 137.308,30.44 278.937,33.14 417.23,7.96 l 43.633,48.3 -34.707,72.65 c -34.039,71.28 -17.203,157.53 40.859,209.3"
         style="fill:#935c29;fill-opacity:1;fill-rule:evenodd;stroke:none"
         transform="matrix(0.13333333,0,0,-0.13333333,0,694.77333)" />
      <path
         id="path30"
         d="m 2239.31,1392.52 24.87,84.76 3.87,105.01 c 1.29,35.31 23.18,66.57 55.91,79.88 32.73,13.3 70.22,6.17 95.78,-18.22 54.88,-52.36 109.29,-64.42 176.93,-30.11 l 22.82,78.95 39.41,-17.97 18.52,-59.27 c 27.04,-86.53 103.41,-148.35 193.69,-156.78 30.02,-2.81 60.13,-4.45 90.27,-4.95 8.38,-0.13 16.2,-4.24 21.06,-11.06 4.87,-6.81 6.22,-15.54 3.63,-23.5 l -7.41,-72.84 13.96,-52.09 h -771.65 l 18.34,98.19"
         style="fill:#935c29;fill-opacity:1;fill-rule:evenodd;stroke:none"
         transform="matrix(0.13333333,0,0,-0.13333333,0,694.77333)" />
      <path
         id="path31"
         d="m 2060.48,2513.21 -805.88,383.73 c -243.93,-292.85 -123.51,-715.83 84.18,-803.39 l 63.36,-26.73 191.44,-280.69 c -213.16,9.47 -274.58,61.57 -470.8,-23.21 L 852.543,1646.15 c -136.195,-47.71 -133.895,-341.07 -84.516,-356 l 1147.563,18.51 c 80.58,2.04 156.44,40.07 208.22,104.41 51.8,64.33 74.52,148.78 62.4,231.77 l -125.73,868.37"
         style="fill:#251a17;fill-opacity:1;fill-rule:evenodd;stroke:none"
         transform="matrix(0.13333333,0,0,-0.13333333,0,694.77333)" />
      <path
         id="path32"
         d="m 1413.85,3027.1 -165.59,-344.63 c -79.81,-166.09 -53.9,-363.69 66.05,-503.58 226.46,-264.16 624.55,-149.21 887.24,-1.74 l 66.84,37.51 c -51.86,-121.97 -58.69,-139.44 -47.43,-287.51 l 29.89,-393.29 c 57.36,-63.08 317.64,36.97 345.82,79.98 l 311.48,1077.33 c 21.74,77.63 9.05,160.85 -34.84,228.46 -43.9,67.62 -114.74,113.09 -194.49,124.84 L 1413.85,3027.1"
         style="fill:#392924;fill-opacity:1;fill-rule:evenodd;stroke:none"
         transform="matrix(0.13333333,0,0,-0.13333333,0,694.77333)" />
      <path
         id="path33"
         d="m 2243.06,3452.59 c 190.21,-40.56 377.29,80.75 417.85,270.96 40.56,190.22 -80.76,377.3 -270.97,417.86 -190.21,40.56 -377.29,-80.76 -417.85,-270.98 -40.56,-190.21 80.75,-377.28 270.97,-417.84"
         style="fill:#ae2722;fill-opacity:1;fill-rule:evenodd;stroke:none"
         transform="matrix(0.13333333,0,0,-0.13333333,0,694.77333)" />
      <path
         id="path34"
         d="m 1923.42,3743.21 491.24,-240.25 371.06,758.72 -491.24,240.25 -371.06,-758.72"
         style="fill:#ae2722;fill-opacity:1;fill-rule:evenodd;stroke:none"
         transform="matrix(0.13333333,0,0,-0.13333333,0,694.77333)" />
      <path
         id="path35"
         d="m 2785.72,4261.68 550.17,340.94 -1.73,129.17 -232.22,64.16 c -304.3,84.07 -628.46,-33.97 -807.46,-294.02 l 166.57,-295.32 324.67,55.07"
         style="fill:#ae2722;fill-opacity:1;fill-rule:evenodd;stroke:none"
         transform="matrix(0.13333333,0,0,-0.13333333,0,694.77333)" />
      <path
         id="path36"
         d="m 1370.4,3308.01 599.46,637.11 c 79.46,82.86 202.78,106.13 306.97,57.92 313.66,-145.16 479.23,-493.34 393.84,-828.25 -45.05,-176.73 -178.93,-317.18 -353.3,-370.68 l -295.38,-182.45 c -188.47,-151.73 -459.56,-142.9 -637.74,20.79 -178.19,163.71 -179.66,489.34 -13.85,665.56"
         style="fill:#cc2c23;fill-opacity:1;fill-rule:evenodd;stroke:none"
         transform="matrix(0.13333333,0,0,-0.13333333,0,694.77333)" />
      <path
         id="path37"
         d="m 2484.79,4315.81 h 483.62 l 28.86,-386.61 c 9.93,-133 -90.76,-241.81 -223.75,-241.81 v 0 c -133,0 -249.94,108.81 -259.87,241.81 l -28.86,386.61"
         style="fill:#f68656;fill-opacity:1;fill-rule:evenodd;stroke:none"
         transform="matrix(0.13333333,0,0,-0.13333333,0,694.77333)" />
      <path
         id="path38"
         d="m 2472.83,3584.39 c 194.15,11.5 360.86,-136.57 372.36,-330.72 11.5,-194.15 -136.56,-360.86 -330.72,-372.36 -194.14,-11.5 -360.85,136.55 -372.35,330.72 -11.5,194.15 136.56,360.86 330.71,372.36"
         style="fill:#cc2c23;fill-opacity:1;fill-rule:evenodd;stroke:none"
         transform="matrix(0.13333333,0,0,-0.13333333,0,694.77333)" />
      <path
         id="path39"
         d="m 2113.13,3345.12 521.78,163.67 252.78,-805.89 -521.78,-163.65 -252.78,805.87"
         style="fill:#cc2c23;fill-opacity:1;fill-rule:evenodd;stroke:none"
         transform="matrix(0.13333333,0,0,-0.13333333,0,694.77333)" />
      <path
         id="path40"
         d="m 2887.69,2702.9 492.65,-419.78 -21.12,-127.43 -239.24,-28.51 c -313.48,-37.39 -616.2,128.05 -754.07,412.07 l 209.07,266.91 312.71,-103.26"
         style="fill:#cc2c23;fill-opacity:1;fill-rule:evenodd;stroke:none"
         transform="matrix(0.13333333,0,0,-0.13333333,0,694.77333)" />
      <path
         id="path41"
         d="m 2331.88,3908.93 276.57,264.97 165.07,-366.34 -221.55,-240.36 -220.09,341.73"
         style="fill:#f68656;fill-opacity:1;fill-rule:evenodd;stroke:none"
         transform="matrix(0.13333333,0,0,-0.13333333,0,694.77333)" />
      <path
         id="path42"
         d="m 2253.69,3976.98 133.21,24.61 78.2,-62.26 c 97.88,-77.94 171.93,-181.79 213.72,-299.73 l -63.14,-238.91 -361.99,576.29"
         style="fill:#cc2c23;fill-opacity:1;fill-rule:evenodd;stroke:none"
         transform="matrix(0.13333333,0,0,-0.13333333,0,694.77333)" />
      <path
         id="path43"
         d="m 2978.36,4182.63 19.59,108.56 c 14.03,77.74 -21.7,156.03 -89.65,196.35 -67.93,40.32 -153.77,34.2 -215.3,-15.35 h -140.3 c -43.57,0 -80.46,-32.14 -86.44,-75.3 l -19.95,-10.14 c -32.36,-16.44 -51.75,-50.66 -49.23,-86.87 l 31.76,-298.06 37.42,-0.23 86.66,-67.25 32.04,6.44 c 48.32,9.72 91.29,37.08 120.54,76.74 l 35.87,63.71 h 117.61 l -15.92,50.68 c -5.38,17.12 -0.68,35.83 12.16,48.37 12.86,12.54 31.66,16.8 48.65,11 l 74.49,-8.65"
         style="fill:#392924;fill-opacity:1;fill-rule:evenodd;stroke:none"
         transform="matrix(0.13333333,0,0,-0.13333333,0,694.77333)" />
      <path
         id="path44"
         d="m 2690.56,4187.6 c 30.64,7.66 67.01,-32.23 81.24,-89.11 14.24,-56.89 0.95,-109.22 -29.69,-116.89 -30.63,-7.66 -67,32.23 -81.24,89.12 -14.23,56.88 -0.94,109.21 29.69,116.88"
         style="fill:#f68656;fill-opacity:1;fill-rule:evenodd;stroke:none"
         transform="matrix(0.13333333,0,0,-0.13333333,0,694.77333)" />
      <path
         id="path45"
         d="m 3541.95,4634.76 2.35,-2355.66 -27.3,-0.03 -2.34,2355.66 27.29,0.03"
         style="fill:#fbc907;fill-opacity:1;fill-rule:evenodd;stroke:none"
         transform="matrix(0.13333333,0,0,-0.13333333,0,694.77333)" />
      <path
         id="path46"
         d="m 3512.86,4677.09 c 37.38,-11.45 58.41,-51.03 46.96,-88.41 -11.44,-37.38 -51.01,-58.41 -88.38,-46.96 -37.4,11.44 -58.42,51.02 -46.98,88.4 11.45,37.38 51.03,58.4 88.4,46.97"
         style="fill:#392924;fill-opacity:1;fill-rule:evenodd;stroke:none"
         transform="matrix(0.13333333,0,0,-0.13333333,0,694.77333)" />
      <path
         id="path47"
         d="m 3295.41,4580.31 38.49,-44.47 c 19.77,-22.85 47.5,-37.32 77.55,-40.47 22.61,-2.38 42.99,-14.74 55.53,-33.74 7.67,-11.58 21.95,-16.88 35.31,-13.08 13.35,3.8 22.71,15.83 23.11,29.7 0.87,29.25 -13.76,56.77 -38.47,72.44 -7.29,4.62 -10.82,13.4 -8.73,21.78 2.09,8.39 9.34,14.48 17.94,15.14 31.69,2.4 63.52,2.44 95.2,0.13 19.11,-1.4 36.36,11.43 40.51,30.14 4.15,18.7 -6.03,37.61 -23.94,44.43 l -32.34,116.39 c -12.15,43.75 -56.54,70.23 -100.79,60.14 -65.16,-14.83 -126.86,-42.04 -181.76,-80.13 -29.39,-20.39 -46.72,-54.05 -46.24,-89.83 0.48,-35.77 26.11,-62.55 48.63,-88.57"
         style="fill:#f68656;fill-opacity:1;fill-rule:evenodd;stroke:none"
         transform="matrix(0.13333333,0,0,-0.13333333,0,694.77333)" />
      <path
         id="path48"
         d="m 3318.19,2291.57 30.09,50.54 c 15.47,25.96 40.22,45.07 69.25,53.44 21.86,6.3 39.76,22.06 48.78,42.95 5.5,12.74 18.64,20.45 32.46,19.06 13.82,-1.41 25.14,-11.59 27.97,-25.2 5.97,-28.64 -3.6,-58.29 -25.18,-78.03 -6.38,-5.84 -8.3,-15.1 -4.77,-22.98 3.52,-7.89 11.7,-12.62 20.31,-11.77 31.61,3.18 62.95,8.71 93.74,16.55 18.56,4.73 37.79,-4.86 45.16,-22.57 7.36,-17.68 0.65,-38.09 -15.78,-47.94 l -11.44,-120.26 c -4.31,-45.18 -43.36,-79.04 -88.7,-76.87 -66.74,3.18 -132.26,19.16 -192.97,47.03 -32.52,14.92 -55.49,45.04 -61.28,80.34 -5.8,35.32 14.76,66.16 32.36,95.71"
         style="fill:#f68656;fill-opacity:1;fill-rule:evenodd;stroke:none"
         transform="matrix(0.13333333,0,0,-0.13333333,0,694.77333)" />
      <path
         id="path49"
         d="M 3733.12,1294.33 H 5449.24 V 4823.69 H 3733.12 V 1294.33"
         style="fill:#5f2e15;fill-opacity:1;fill-rule:evenodd;stroke:none"
         transform="matrix(0.13333333,0,0,-0.13333333,0,694.77333)" />
      <path
         id="path50"
         d="M 3884.93,2187.47 H 5297.4 V 4514.05 H 3884.93 V 2187.47"
         style="fill:#3e2214;fill-opacity:1;fill-rule:evenodd;stroke:none"
         transform="matrix(0.13333333,0,0,-0.13333333,0,694.77333)" />
      <path
         id="path51"
         d="m 3884.93,2187.47 h 302.6 v 2326.58 h -302.6 V 2187.47"
         style="fill:#271913;fill-opacity:1;fill-rule:evenodd;stroke:none"
         transform="matrix(0.13333333,0,0,-0.13333333,0,694.77333)" />
    </g>
  </g>
</svg>
