<svg xmlns="http://www.w3.org/2000/svg" xmlns:xlink="http://www.w3.org/1999/xlink" contentStyleType="text/css" height="430px" preserveAspectRatio="none" style="width:488px;height:430px;background:#FFFFFF;" version="1.1" viewBox="0 0 488 430" width="488px" zoomAndPan="magnify"><defs><filter height="300%" id="flskkicoyhg15" width="300%" x="-1" y="-1"><feGaussianBlur result="blurOut" stdDeviation="4.0"/><feColorMatrix in="blurOut" result="blurOut2" type="matrix" values="0 0 0 0 0 0 0 0 0 0 0 0 0 0 0 0 0 0 .4 0"/><feOffset dx="8.0" dy="8.0" in="blurOut2" result="blurOut3"/><feBlend in="SourceGraphic" in2="blurOut3" mode="normal"/></filter></defs><g><!--entity user--><g id="elem_user"><ellipse cx="83" cy="28" fill="#FEFECE" filter="url(#flskkicoyhg15)" rx="16" ry="16" style="stroke:#A80036;stroke-width:4.0;"/><path d="M83,44 L83,98 M57,60 L109,60 M83,98 L57,128 M83,98 L109,128 " fill="none" filter="url(#flskkicoyhg15)" style="stroke:#A80036;stroke-width:4.0;"/><text fill="#000000" font-family="sans-serif" font-size="28" lengthAdjust="spacing" textLength="58.0718" x="53.9641" y="171.9319">user</text></g><g id="elem_sign up"><ellipse cx="367.7285" cy="78.0716" fill="#FEFECE" filter="url(#flskkicoyhg15)" rx="93.7085" ry="33.6516" style="stroke:#A80036;stroke-width:2.0;"/><text fill="#000000" font-family="sans-serif" font-size="28" lengthAdjust="spacing" textLength="96.9636" x="313.2467" y="87.5375">sign up</text></g><g id="elem_log in"><ellipse cx="367.7256" cy="216.0866" fill="#FEFECE" filter="url(#flskkicoyhg15)" rx="75.7456" ry="33.3666" style="stroke:#A80036;stroke-width:2.0;"/><text fill="#000000" font-family="sans-serif" font-size="28" lengthAdjust="spacing" textLength="73.1917" x="325.1297" y="225.5525">log in</text></g><g id="elem_log out"><ellipse cx="367.7244" cy="352.072" fill="#FEFECE" filter="url(#flskkicoyhg15)" rx="90.7244" ry="33.612" style="stroke:#A80036;stroke-width:2.0;"/><text fill="#000000" font-family="sans-serif" font-size="28" lengthAdjust="spacing" textLength="93.0157" x="315.2166" y="361.5379">log out</text></g><!--entity moderator--><g id="elem_moderator"><ellipse cx="83.0078" cy="270" fill="#FEFECE" filter="url(#flskkicoyhg15)" rx="16" ry="16" style="stroke:#A80036;stroke-width:4.0;"/><path d="M83.0078,286 L83.0078,340 M57.0078,302 L109.0078,302 M83.0078,340 L57.0078,370 M83.0078,340 L109.0078,370 " fill="none" filter="url(#flskkicoyhg15)" style="stroke:#A80036;stroke-width:4.0;"/><text fill="#000000" font-family="sans-serif" font-size="28" lengthAdjust="spacing" textLength="142.0155" x="12" y="413.9319">moderator</text></g><!--link user to sign up--><g id="link_user_sign up"><path d="M114,92.42 C151.54,90.28 206.7594,87.1216 262.2994,83.9616 " fill="none" id="user-to-sign up" style="stroke:#A80036;stroke-width:2.0;"/><polygon fill="#A80036" points="274.28,83.28,255.8546,76.3154,264.2961,83.848,256.7635,92.2896,274.28,83.28" style="stroke:#A80036;stroke-width:2.0;"/></g><!--link user to log in--><g id="link_user_log in"><path d="M114,106.66 C160.64,126.94 242.0947,162.3362 301.0347,187.9562 " fill="none" id="user-to-log in" style="stroke:#A80036;stroke-width:2.0;"/><polygon fill="#A80036" points="312.04,192.74,298.7213,178.2275,302.869,188.7535,292.3429,192.9012,312.04,192.74" style="stroke:#A80036;stroke-width:2.0;"/></g><!--link user to log out--><g id="link_user_log out"><path d="M113.78,125.78 C149.72,164.74 213.84,232.02 274.02,284.08 C289.3,297.3 297.2773,303.719 312.9973,315.159 " fill="none" id="user-to-log out" style="stroke:#A80036;stroke-width:2.0;"/><polygon fill="#A80036" points="322.7,322.22,312.8533,305.16,314.6144,316.3358,303.4386,318.097,322.7,322.22" style="stroke:#A80036;stroke-width:2.0;"/></g><!--link moderator to sign up--><g id="link_moderator_sign up"><path d="M154.68,262.38 C189.48,226.72 232.86,183.98 274.02,148.08 C289.72,134.38 298.2,127.46 314.12,115.52 " fill="none" id="moderator-to-sign up" style="stroke:#A80036;stroke-width:2.0;"/><polygon fill="#A80036" points="323.72,108.32,304.52,112.72,315.72,114.32,314.12,125.52,323.72,108.32" style="stroke:#A80036;stroke-width:2.0;"/></g><!--link moderator to log in--><g id="link_moderator_log in"><path d="M154.4,306.4 C203.1,285.58 256.2467,262.8787 301.0467,243.7187 " fill="none" id="moderator-to-log in" style="stroke:#A80036;stroke-width:2.0;"/><polygon fill="#A80036" points="312.08,239,292.3842,238.7225,302.8856,242.9323,298.6758,253.4336,312.08,239" style="stroke:#A80036;stroke-width:2.0;"/></g><!--link moderator to log out--><g id="link_moderator_log out"><path d="M154.4,340.02 C191.58,342.14 225.7994,344.098 265.4994,346.358 " fill="none" id="moderator-to-log out" style="stroke:#A80036;stroke-width:2.0;"/><polygon fill="#A80036" points="277.48,347.04,259.9638,338.0299,267.4962,346.4717,259.0544,354.004,277.48,347.04" style="stroke:#A80036;stroke-width:2.0;"/></g><!--SRC=[ROmx3e0m3CNsdkADCB0mCd0N1A54b0ObwVr134XyLbksZKCYjC5Mpb0n2ebcXmkKu-AOM6bqbXn2LuoqGzFqg8nZHjdh1qmImVdBf7XzvfjCf8FBz_4sz-XFNBS3]--></g></svg>