<svg xmlns="http://www.w3.org/2000/svg" xmlns:xlink="http://www.w3.org/1999/xlink" contentStyleType="text/css" height="254px" preserveAspectRatio="none" style="width:496px;height:254px;background:#FFFFFF;" version="1.1" viewBox="0 0 496 254" width="496px" zoomAndPan="magnify"><defs><filter height="300%" id="fhfmvx61swp5y" width="300%" x="-1" y="-1"><feGaussianBlur result="blurOut" stdDeviation="4.0"/><feColorMatrix in="blurOut" result="blurOut2" type="matrix" values="0 0 0 0 0 0 0 0 0 0 0 0 0 0 0 0 0 0 .4 0"/><feOffset dx="8.0" dy="8.0" in="blurOut2" result="blurOut3"/><feBlend in="SourceGraphic" in2="blurOut3" mode="normal"/></filter></defs><g><polygon fill="#FEFECE" filter="url(#fhfmvx61swp5y)" points="181.6955,29.4097,301.2427,29.4097,325.2427,53.4097,301.2427,77.4097,181.6955,77.4097,157.6955,53.4097,181.6955,29.4097" style="stroke:#A80036;stroke-width:3.0;"/><text fill="#000000" font-family="sans-serif" font-size="22" lengthAdjust="spacing" textLength="119.5472" x="181.6955" y="61.9457">is it boring?</text><text fill="#000000" font-family="sans-serif" font-size="22" lengthAdjust="spacing" textLength="34.1657" x="123.5298" y="46.9638">yes</text><text fill="#000000" font-family="sans-serif" font-size="22" lengthAdjust="spacing" textLength="26.9058" x="325.2427" y="46.9638">no</text><rect fill="#FEFECE" filter="url(#fhfmvx61swp5y)" height="72.6882" rx="25" ry="25" style="stroke:#A80036;stroke-width:3.0;" width="197.9691" x="22" y="97.4097"/><text fill="#000000" font-family="sans-serif" font-size="24" lengthAdjust="spacing" textLength="157.9691" x="42" y="143.0659">action on true</text><rect fill="#FEFECE" filter="url(#fhfmvx61swp5y)" height="72.6882" rx="25" ry="25" style="stroke:#A80036;stroke-width:3.0;" width="203.9692" x="259.9691" y="97.4097"/><text fill="#000000" font-family="sans-serif" font-size="24" lengthAdjust="spacing" textLength="163.9692" x="279.9691" y="143.0659">action on false</text><polygon fill="#FEFECE" filter="url(#fhfmvx61swp5y)" points="241.4691,182.098,265.4691,206.098,241.4691,230.098,217.4691,206.098,241.4691,182.098" style="stroke:#A80036;stroke-width:3.0;"/><line style="stroke:#A80036;stroke-width:3.0;" x1="157.6955" x2="120.9846" y1="53.4097" y2="53.4097"/><line style="stroke:#A80036;stroke-width:3.0;" x1="120.9846" x2="120.9846" y1="53.4097" y2="97.4097"/><polygon fill="#A80036" points="112.9846,77.4097,120.9846,97.4097,128.9846,77.4097,120.9846,85.4097" style="stroke:#A80036;stroke-width:2.0;"/><line style="stroke:#A80036;stroke-width:3.0;" x1="325.2427" x2="361.9537" y1="53.4097" y2="53.4097"/><line style="stroke:#A80036;stroke-width:3.0;" x1="361.9537" x2="361.9537" y1="53.4097" y2="97.4097"/><polygon fill="#A80036" points="353.9537,77.4097,361.9537,97.4097,369.9537,77.4097,361.9537,85.4097" style="stroke:#A80036;stroke-width:2.0;"/><line style="stroke:#A80036;stroke-width:3.0;" x1="120.9846" x2="120.9846" y1="170.098" y2="206.098"/><line style="stroke:#A80036;stroke-width:3.0;" x1="120.9846" x2="217.4691" y1="206.098" y2="206.098"/><polygon fill="#A80036" points="197.4691,198.098,217.4691,206.098,197.4691,214.098,205.4691,206.098" style="stroke:#A80036;stroke-width:2.0;"/><line style="stroke:#A80036;stroke-width:3.0;" x1="361.9537" x2="361.9537" y1="170.098" y2="206.098"/><line style="stroke:#A80036;stroke-width:3.0;" x1="361.9537" x2="265.4691" y1="206.098" y2="206.098"/><polygon fill="#A80036" points="285.4691,198.098,265.4691,206.098,285.4691,214.098,277.4691,206.098" style="stroke:#A80036;stroke-width:2.0;"/><!--SRC=[JOan3e0m3CJslEB6TcM4WRSKI26YIgIc3FoUZ4XURFijYcxEv7jfZ8b8Af8uP62pBdgk6Q7fPSyO5olDPHzYYc3qXnVYveoabl-hbgZnz93w0G00]--></g></svg>