<svg xmlns="http://www.w3.org/2000/svg" xmlns:xlink="http://www.w3.org/1999/xlink" contentStyleType="text/css" height="808px" preserveAspectRatio="none" style="width:498px;height:808px;background:#FFFFFF;" version="1.1" viewBox="0 0 498 808" width="498px" zoomAndPan="magnify"><defs><filter height="300%" id="f1bbk6pt33xutx" width="300%" x="-1" y="-1"><feGaussianBlur result="blurOut" stdDeviation="4.0"/><feColorMatrix in="blurOut" result="blurOut2" type="matrix" values="0 0 0 0 0 0 0 0 0 0 0 0 0 0 0 0 0 0 .4 0"/><feOffset dx="8.0" dy="8.0" in="blurOut2" result="blurOut3"/><feBlend in="SourceGraphic" in2="blurOut3" mode="normal"/></filter></defs><g><rect fill="none" height="49.0317" style="stroke:none;stroke-width:2.0;" width="433.2056" x="30" y="27.5479"/><ellipse cx="139.9674" cy="106.5796" fill="#000000" filter="url(#f1bbk6pt33xutx)" rx="20" ry="20" style="stroke:#000000;stroke-width:2.0;"/><rect fill="#FEFECE" filter="url(#f1bbk6pt33xutx)" height="72.6882" rx="25" ry="25" style="stroke:#A80036;stroke-width:3.0;" width="91.0244" x="94.4552" y="166.5796"/><text fill="#000000" font-family="sans-serif" font-size="24" lengthAdjust="spacing" textLength="51.0244" x="114.4552" y="212.2358">foo1</text><rect fill="#FEFECE" filter="url(#f1bbk6pt33xutx)" height="72.6882" rx="25" ry="25" style="stroke:#A80036;stroke-width:3.0;" width="91.0244" x="94.4552" y="504.6443"/><text fill="#000000" font-family="sans-serif" font-size="24" lengthAdjust="spacing" textLength="51.0244" x="114.4552" y="550.3005">foo4</text><line style="stroke:#000000;stroke-width:4.0;" x1="30" x2="30" y1="27.5479" y2="774.0208"/><rect fill="#FAEBD7" height="746.4728" style="stroke:#FAEBD7;stroke-width:2.0;" width="202.5909" x="257.9347" y="27.5479"/><rect fill="#FEFECE" filter="url(#f1bbk6pt33xutx)" height="72.6882" rx="25" ry="25" style="stroke:#A80036;stroke-width:3.0;" width="91.0244" x="309.718" y="279.2679"/><text fill="#000000" font-family="sans-serif" font-size="24" lengthAdjust="spacing" textLength="51.0244" x="329.718" y="324.924">foo2</text><rect fill="#FEFECE" filter="url(#f1bbk6pt33xutx)" height="72.6882" rx="25" ry="25" style="stroke:#A80036;stroke-width:3.0;" width="91.0244" x="309.718" y="391.9561"/><text fill="#000000" font-family="sans-serif" font-size="24" lengthAdjust="spacing" textLength="51.0244" x="329.718" y="437.6123">foo3</text><rect fill="#FEFECE" filter="url(#f1bbk6pt33xutx)" height="72.6882" rx="25" ry="25" style="stroke:#A80036;stroke-width:3.0;" width="91.0244" x="309.718" y="617.3325"/><text fill="#000000" font-family="sans-serif" font-size="24" lengthAdjust="spacing" textLength="51.0244" x="329.718" y="662.9887">foo5</text><ellipse cx="355.2302" cy="752.0208" fill="none" filter="url(#f1bbk6pt33xutx)" rx="22" ry="22" style="stroke:#000000;stroke-width:2.0;"/><ellipse cx="355.2302" cy="752.0208" fill="#000000" rx="12" ry="12" style="stroke:#000000;stroke-width:2.0;"/><line style="stroke:#000000;stroke-width:4.0;" x1="257.9347" x2="257.9347" y1="27.5479" y2="774.0208"/><line style="stroke:#000000;stroke-width:4.0;" x1="460.5256" x2="460.5256" y1="27.5479" y2="774.0208"/><line style="stroke:#A80036;stroke-width:3.0;" x1="139.9674" x2="139.9674" y1="126.5796" y2="166.5796"/><polygon fill="#A80036" points="131.9674,146.5796,139.9674,166.5796,147.9674,146.5796,139.9674,154.5796" style="stroke:#A80036;stroke-width:2.0;"/><line style="stroke:#A80036;stroke-width:3.0;" x1="355.2302" x2="355.2302" y1="351.9561" y2="391.9561"/><polygon fill="#A80036" points="347.2302,371.9561,355.2302,391.9561,363.2302,371.9561,355.2302,379.9561" style="stroke:#A80036;stroke-width:2.0;"/><line style="stroke:#A80036;stroke-width:3.0;" x1="355.2302" x2="355.2302" y1="690.0208" y2="730.0208"/><polygon fill="#A80036" points="347.2302,710.0208,355.2302,730.0208,363.2302,710.0208,355.2302,718.0208" style="stroke:#A80036;stroke-width:2.0;"/><line style="stroke:#A80036;stroke-width:3.0;" x1="139.9674" x2="139.9674" y1="239.2679" y2="249.2679"/><line style="stroke:#A80036;stroke-width:3.0;" x1="139.9674" x2="355.2302" y1="249.2679" y2="249.2679"/><line style="stroke:#A80036;stroke-width:3.0;" x1="355.2302" x2="355.2302" y1="249.2679" y2="279.2679"/><polygon fill="#A80036" points="347.2302,259.2679,355.2302,279.2679,363.2302,259.2679,355.2302,267.2679" style="stroke:#A80036;stroke-width:2.0;"/><line style="stroke:#A80036;stroke-width:3.0;" x1="355.2302" x2="355.2302" y1="464.6443" y2="474.6443"/><line style="stroke:#A80036;stroke-width:3.0;" x1="355.2302" x2="139.9674" y1="474.6443" y2="474.6443"/><line style="stroke:#A80036;stroke-width:3.0;" x1="139.9674" x2="139.9674" y1="474.6443" y2="504.6443"/><polygon fill="#A80036" points="131.9674,484.6443,139.9674,504.6443,147.9674,484.6443,139.9674,492.6443" style="stroke:#A80036;stroke-width:2.0;"/><line style="stroke:#A80036;stroke-width:3.0;" x1="139.9674" x2="139.9674" y1="577.3325" y2="587.3325"/><line style="stroke:#A80036;stroke-width:3.0;" x1="139.9674" x2="355.2302" y1="587.3325" y2="587.3325"/><line style="stroke:#A80036;stroke-width:3.0;" x1="355.2302" x2="355.2302" y1="587.3325" y2="617.3325"/><polygon fill="#A80036" points="347.2302,597.3325,355.2302,617.3325,363.2302,597.3325,355.2302,605.3325" style="stroke:#A80036;stroke-width:2.0;"/><text fill="#000000" font-family="sans-serif" font-size="36" lengthAdjust="spacing" textLength="207.9347" x="40" y="66.0317">regular user</text><text fill="#000000" font-family="sans-serif" font-size="36" lengthAdjust="spacing" textLength="182.5909" x="267.9347" y="66.0317">moderator</text><!--SRC=[NOov3O0m301xJn692VWQKZ45TGG68Y06s-aoF0abrKcdqydXWs4I19dTYQQ1nBZ5qx69Wfn0rB72i1BL5b8r1lLFn6dtYkcY1TafvQm4ZVtGsl-Zs2xRNz_RVAVx1G00]--></g></svg>