<svg xmlns="http://www.w3.org/2000/svg" xmlns:xlink="http://www.w3.org/1999/xlink" contentStyleType="text/css" height="188px" preserveAspectRatio="none" style="width:490px;height:188px;background:#FFFFFF;" version="1.1" viewBox="0 0 490 188" width="490px" zoomAndPan="magnify"><defs><filter height="300%" id="fatl3chgpsbyd" width="300%" x="-1" y="-1"><feGaussianBlur result="blurOut" stdDeviation="4.0"/><feColorMatrix in="blurOut" result="blurOut2" type="matrix" values="0 0 0 0 0 0 0 0 0 0 0 0 0 0 0 0 0 0 .4 0"/><feOffset dx="8.0" dy="8.0" in="blurOut2" result="blurOut3"/><feBlend in="SourceGraphic" in2="blurOut3" mode="normal"/></filter></defs><g><!--entity actor--><g id="elem_actor"><ellipse cx="45.8799" cy="28" fill="#FEFECE" filter="url(#fatl3chgpsbyd)" rx="16" ry="16" style="stroke:#A80036;stroke-width:4.0;"/><path d="M45.8799,44 L45.8799,98 M19.8799,60 L71.8799,60 M45.8799,98 L19.8799,128 M45.8799,98 L71.8799,128 " fill="none" filter="url(#fatl3chgpsbyd)" style="stroke:#A80036;stroke-width:4.0;"/><text fill="#000000" font-family="sans-serif" font-size="28" lengthAdjust="spacing" textLength="67.7598" x="12" y="171.9319">actor</text></g><g id="elem_GMN3"><path d="M150.74,48.66 L150.74,86.08 L80.68,94.08 L150.74,102.08 L150.74,139.4841 A0,0 0 0 0 150.74,139.4841 L473.0202,139.4841 A0,0 0 0 0 473.0202,139.4841 L473.0202,68.66 L453.0202,48.66 L150.74,48.66 A0,0 0 0 0 150.74,48.66 " fill="#FBFB77" filter="url(#fatl3chgpsbyd)" style="stroke:#A80036;stroke-width:2.0;"/><path d="M453.0202,48.66 L453.0202,68.66 L473.0202,68.66 L453.0202,48.66 " fill="#FBFB77" style="stroke:#A80036;stroke-width:2.0;"/><text fill="#000000" font-family="sans-serif" font-size="26" lengthAdjust="spacing" textLength="280.2802" x="162.74" y="86.454">Not necessarily human</text><text fill="#000000" font-family="sans-serif" font-size="26" lengthAdjust="spacing" textLength="182.1302" x="162.74" y="121.8661">(This is a note.)</text></g><!--SRC=[7Sih3e1034LHtrKy2GQ1d4MWa9XcKfW6Q9Ff8DWzd-Igazp8V0X6YbqDrKE84kVcDH6PDq7LhJJuYb-HC7c3IPO8hdhSADV9jbWt5msyCRvlwEa1]--></g></svg>