<svg xmlns="http://www.w3.org/2000/svg" xmlns:xlink="http://www.w3.org/1999/xlink" contentStyleType="text/css" height="400px" preserveAspectRatio="none" style="width:938px;height:400px;background:#FFFFFF;" version="1.1" viewBox="0 0 938 400" width="938px" zoomAndPan="magnify"><defs><filter height="300%" id="f5d12ygp80ncl" width="300%" x="-1" y="-1"><feGaussianBlur result="blurOut" stdDeviation="4.0"/><feColorMatrix in="blurOut" result="blurOut2" type="matrix" values="0 0 0 0 0 0 0 0 0 0 0 0 0 0 0 0 0 0 .4 0"/><feOffset dx="8.0" dy="8.0" in="blurOut2" result="blurOut3"/><feBlend in="SourceGraphic" in2="blurOut3" mode="normal"/></filter></defs><g><!--entity web UI--><g id="elem_web UI"><rect fill="#FEFECE" filter="url(#f5d12ygp80ncl)" height="98.1358" style="stroke:#A80036;stroke-width:2.0;" width="172.2596" x="201.7" y="14"/><rect fill="#FEFECE" height="20" style="stroke:#A80036;stroke-width:2.0;" width="30" x="333.9596" y="24"/><rect fill="#FEFECE" height="4" style="stroke:#A80036;stroke-width:2.0;" width="8" x="329.9596" y="28"/><rect fill="#FEFECE" height="4" style="stroke:#A80036;stroke-width:2.0;" width="8" x="329.9596" y="36"/><text fill="#000000" font-family="sans-serif" font-size="28" lengthAdjust="spacing" textLength="92.2596" x="231.7" y="83.9319">web UI</text></g><!--entity REST--><g id="elem_REST"><ellipse cx="287.82" cy="319.22" fill="#FEFECE" filter="url(#f5d12ygp80ncl)" rx="16" ry="16" style="stroke:#A80036;stroke-width:2.0;"/><text fill="#000000" font-family="sans-serif" font-size="28" lengthAdjust="spacing" textLength="63.9237" x="255.8581" y="383.1519">REST</text></g><!--entity login manager--><g id="elem_login manager"><rect fill="#FEFECE" filter="url(#f5d12ygp80ncl)" height="98.1358" style="stroke:#A80036;stroke-width:2.0;" width="272.6673" x="375.5" y="270.14"/><rect fill="#FEFECE" height="20" style="stroke:#A80036;stroke-width:2.0;" width="30" x="608.1673" y="280.14"/><rect fill="#FEFECE" height="4" style="stroke:#A80036;stroke-width:2.0;" width="8" x="604.1673" y="284.14"/><rect fill="#FEFECE" height="4" style="stroke:#A80036;stroke-width:2.0;" width="8" x="604.1673" y="292.14"/><text fill="#000000" font-family="sans-serif" font-size="28" lengthAdjust="spacing" textLength="192.6673" x="405.5" y="340.0719">login manager</text></g><g id="elem_GMN7"><path d="M717.94,291.5 L717.94,311.22 L648.98,319.22 L717.94,327.22 L717.94,346.912 A0,0 0 0 0 717.94,346.912 L921.7122,346.912 A0,0 0 0 0 921.7122,346.912 L921.7122,311.5 L901.7122,291.5 L717.94,291.5 A0,0 0 0 0 717.94,291.5 " fill="#FBFB77" filter="url(#f5d12ygp80ncl)" style="stroke:#A80036;stroke-width:2.0;"/><path d="M901.7122,291.5 L901.7122,311.5 L921.7122,311.5 L901.7122,291.5 " fill="#FBFB77" style="stroke:#A80036;stroke-width:2.0;"/><text fill="#000000" font-family="sans-serif" font-size="26" lengthAdjust="spacing" textLength="161.7722" x="729.94" y="329.294">a component</text></g><g id="elem_GMN10"><path d="M12,291.5 L12,346.912 A0,0 0 0 0 12,346.912 L199.6521,346.912 A0,0 0 0 0 199.6521,346.912 L199.6521,327.5 L269.38,319.22 L199.6521,311.5 L199.6521,311.5 L179.6521,291.5 L12,291.5 A0,0 0 0 0 12,291.5 " fill="#FBFB77" filter="url(#f5d12ygp80ncl)" style="stroke:#A80036;stroke-width:2.0;"/><path d="M179.6521,291.5 L179.6521,311.5 L199.6521,311.5 L179.6521,291.5 " fill="#FBFB77" style="stroke:#A80036;stroke-width:2.0;"/><text fill="#000000" font-family="sans-serif" font-size="26" lengthAdjust="spacing" textLength="145.6521" x="24" y="329.294">an interface</text></g><!--link web UI to REST--><g id="link_web UI_REST"><path d="M287.82,113.1 C287.82,170.24 287.82,250.68 287.82,288.38 " fill="none" id="web UI-to-REST" style="stroke:#A80036;stroke-width:2.0;stroke-dasharray:7.0,7.0;"/><polygon fill="#A80036" points="287.82,300.38,295.82,282.38,287.82,290.38,279.82,282.38,287.82,300.38" style="stroke:#A80036;stroke-width:2.0;"/><text fill="#000000" font-family="sans-serif" font-size="26" lengthAdjust="spacing" textLength="43.186" x="289.82" y="201.934">use</text></g><!--link REST to login manager--><g id="link_REST_login manager"><path d="M306.2,319.22 C329.22,319.22 352.26,319.22 375.28,319.22 " fill="none" id="REST-login manager" style="stroke:#A80036;stroke-width:2.0;"/></g><!--SRC=[POmx3i8m40NxFSMx02aeAUWeqlAfeXIBMHiBPnVPZd9zuY3Hq3rfPbvvHKMs8bGS9y6UXaNkkFKZkkw8y-bonG7pocdREmp9mjfCh1maZwHM1Jc6PuNvFmemd4rlKz5AeWyq_nibyLlJZfkeY5ebUtRoCpy0]--></g></svg>