<svg xmlns="http://www.w3.org/2000/svg" xmlns:xlink="http://www.w3.org/1999/xlink" contentStyleType="text/css" height="878px" preserveAspectRatio="none" style="width:1136px;height:878px;background:#FFFFFF;" version="1.1" viewBox="0 0 1136 878" width="1136px" zoomAndPan="magnify"><defs><filter height="300%" id="f1w8f02xk1ro3p" width="300%" x="-1" y="-1"><feGaussianBlur result="blurOut" stdDeviation="4.0"/><feColorMatrix in="blurOut" result="blurOut2" type="matrix" values="0 0 0 0 0 0 0 0 0 0 0 0 0 0 0 0 0 0 .4 0"/><feOffset dx="8.0" dy="8.0" in="blurOut2" result="blurOut3"/><feBlend in="SourceGraphic" in2="blurOut3" mode="normal"/></filter></defs><g><rect fill="none" filter="url(#f1w8f02xk1ro3p)" height="390.436" style="stroke:#000000;stroke-width:4.0;" width="1088.4545" x="20" y="279.5479"/><line style="stroke:#A80036;stroke-width:2.0;stroke-dasharray:5.0,5.0;" x1="74" x2="74" y1="182.1358" y2="703.9838"/><line style="stroke:#A80036;stroke-width:2.0;stroke-dasharray:5.0,5.0;" x1="421.6506" x2="421.6506" y1="182.1358" y2="703.9838"/><line style="stroke:#A80036;stroke-width:2.0;stroke-dasharray:5.0,5.0;" x1="1021.5789" x2="1021.5789" y1="182.1358" y2="703.9838"/><text fill="#000000" font-family="sans-serif" font-size="28" lengthAdjust="spacing" textLength="58.0718" x="40" y="173.9319">user</text><ellipse cx="75.0359" cy="30" fill="#FEFECE" filter="url(#f1w8f02xk1ro3p)" rx="16" ry="16" style="stroke:#A80036;stroke-width:4.0;"/><path d="M75.0359,46 L75.0359,100 M49.0359,62 L101.0359,62 M75.0359,100 L49.0359,130 M75.0359,100 L101.0359,130 " fill="none" filter="url(#f1w8f02xk1ro3p)" style="stroke:#A80036;stroke-width:4.0;"/><text fill="#000000" font-family="sans-serif" font-size="28" lengthAdjust="spacing" textLength="58.0718" x="40" y="731.9157">user</text><ellipse cx="75.0359" cy="760.1197" fill="#FEFECE" filter="url(#f1w8f02xk1ro3p)" rx="16" ry="16" style="stroke:#A80036;stroke-width:4.0;"/><path d="M75.0359,776.1197 L75.0359,830.1197 M49.0359,792.1197 L101.0359,792.1197 M75.0359,830.1197 L49.0359,860.1197 M75.0359,830.1197 L101.0359,860.1197 " fill="none" filter="url(#f1w8f02xk1ro3p)" style="stroke:#A80036;stroke-width:4.0;"/><rect fill="#FEFECE" filter="url(#f1w8f02xk1ro3p)" height="66.1358" style="stroke:#A80036;stroke-width:3.0;" width="220.6673" x="307.6506" y="106"/><text fill="#000000" font-family="sans-serif" font-size="28" lengthAdjust="spacing" textLength="192.6673" x="321.6506" y="149.9319">login manager</text><rect fill="#FEFECE" filter="url(#f1w8f02xk1ro3p)" height="66.1358" style="stroke:#A80036;stroke-width:3.0;" width="220.6673" x="307.6506" y="701.9838"/><text fill="#000000" font-family="sans-serif" font-size="28" lengthAdjust="spacing" textLength="192.6673" x="321.6506" y="745.9157">login manager</text><text fill="#000000" font-family="sans-serif" font-size="28" lengthAdjust="spacing" textLength="120.8756" x="955.5789" y="173.9319">database</text><path d="M986.0167,72 C986.0167,52 1022.0167,52 1022.0167,52 C1022.0167,52 1058.0167,52 1058.0167,72 L1058.0167,124 C1058.0167,144 1022.0167,144 1022.0167,144 C1022.0167,144 986.0167,144 986.0167,124 L986.0167,72 " fill="#FEFECE" filter="url(#f1w8f02xk1ro3p)" style="stroke:#A80036;stroke-width:3.0;"/><path d="M986.0167,72 C986.0167,92 1022.0167,92 1022.0167,92 C1022.0167,92 1058.0167,92 1058.0167,72 " fill="none" style="stroke:#A80036;stroke-width:3.0;"/><text fill="#000000" font-family="sans-serif" font-size="28" lengthAdjust="spacing" textLength="120.8756" x="955.5789" y="731.9157">database</text><path d="M986.0167,760.1197 C986.0167,740.1197 1022.0167,740.1197 1022.0167,740.1197 C1022.0167,740.1197 1058.0167,740.1197 1058.0167,760.1197 L1058.0167,812.1197 C1058.0167,832.1197 1022.0167,832.1197 1022.0167,832.1197 C1022.0167,832.1197 986.0167,832.1197 986.0167,812.1197 L986.0167,760.1197 " fill="#FEFECE" filter="url(#f1w8f02xk1ro3p)" style="stroke:#A80036;stroke-width:3.0;"/><path d="M986.0167,760.1197 C986.0167,780.1197 1022.0167,780.1197 1022.0167,780.1197 C1022.0167,780.1197 1058.0167,780.1197 1058.0167,760.1197 " fill="none" style="stroke:#A80036;stroke-width:3.0;"/><polygon fill="#A80036" points="397.9842,241.5479,417.9842,249.5479,397.9842,257.5479,405.9842,249.5479" style="stroke:#A80036;stroke-width:2.0;"/><line style="stroke:#A80036;stroke-width:2.0;" x1="75.0359" x2="409.9842" y1="249.5479" y2="249.5479"/><text fill="#000000" font-family="sans-serif" font-size="26" lengthAdjust="spacing" textLength="286.0783" x="89.0359" y="237.9299">Authentication Request</text><path d="M20,279.5479 L182.254,279.5479 L182.254,298.9599 L162.254,318.9599 L20,318.9599 L20,279.5479 " fill="#EEEEEE" style="stroke:#000000;stroke-width:2.0;"/><rect fill="none" height="390.436" style="stroke:#000000;stroke-width:4.0;" width="1088.4545" x="20" y="279.5479"/><text fill="#000000" font-family="sans-serif" font-size="26" font-weight="bold" lengthAdjust="spacing" textLength="65.494" x="50" y="309.3419">login</text><text fill="#000000" font-family="sans-serif" font-size="22" font-weight="bold" lengthAdjust="spacing" textLength="127.1151" x="212.254" y="307.0657">[successful]</text><polygon fill="#A80036" points="998.0167,358.3719,1018.0167,366.3719,998.0167,374.3719,1006.0167,366.3719" style="stroke:#A80036;stroke-width:2.0;"/><line style="stroke:#A80036;stroke-width:2.0;" x1="421.9842" x2="1010.0167" y1="366.3719" y2="366.3719"/><text fill="#000000" font-family="sans-serif" font-size="26" lengthAdjust="spacing" textLength="351.9623" x="435.9842" y="354.7539">query username &amp; password</text><polygon fill="#A80036" points="443.9842,421.784,423.9842,429.784,443.9842,437.784,435.9842,429.784" style="stroke:#A80036;stroke-width:2.0;"/><line style="stroke:#A80036;stroke-width:2.0;" x1="431.9842" x2="1020.0167" y1="429.784" y2="429.784"/><text fill="#000000" font-family="sans-serif" font-size="26" lengthAdjust="spacing" textLength="450.9444" x="455.9842" y="418.166">user exists with the given credentials</text><polygon fill="#A80036" points="97.0359,485.196,77.0359,493.196,97.0359,501.196,89.0359,493.196" style="stroke:#A80036;stroke-width:2.0;"/><line style="stroke:#A80036;stroke-width:2.0;" x1="85.0359" x2="419.9842" y1="493.196" y2="493.196"/><text fill="#000000" font-family="sans-serif" font-size="26" lengthAdjust="spacing" textLength="298.9483" x="109.0359" y="481.578">Authentication Accepted</text><line style="stroke:#000000;stroke-width:2.0;stroke-dasharray:2.0,2.0;" x1="20" x2="1108.4545" y1="511.196" y2="511.196"/><text fill="#000000" font-family="sans-serif" font-size="22" font-weight="bold" lengthAdjust="spacing" textLength="342.3174" x="30" y="534.7138">[wrong username or password]</text><polygon fill="#A80036" points="443.9842,582.5718,423.9842,590.5718,443.9842,598.5718,435.9842,590.5718" style="stroke:#A80036;stroke-width:2.0;"/><line style="stroke:#A80036;stroke-width:2.0;" x1="431.9842" x2="1020.0167" y1="590.5718" y2="590.5718"/><text fill="#000000" font-family="sans-serif" font-size="26" lengthAdjust="spacing" textLength="552.0325" x="455.9842" y="578.9538">user does not exist with the given credentials</text><polygon fill="#A80036" points="97.0359,645.9838,77.0359,653.9838,97.0359,661.9838,89.0359,653.9838" style="stroke:#A80036;stroke-width:2.0;"/><line style="stroke:#A80036;stroke-width:2.0;" x1="85.0359" x2="419.9842" y1="653.9838" y2="653.9838"/><text fill="#000000" font-family="sans-serif" font-size="26" lengthAdjust="spacing" textLength="269.6463" x="109.0359" y="642.3658">Authentication Failure</text><!--SRC=[fP6nJWGX48RxUOh95NOsbbUOREC3s1gBMPZZY2oiCuEhRt_3NeoNcDX80ma_t_y16gWmFe2-vOhIb06cO4smAmkIxZEi99P3NgaQ7afBdbseKc8vZ4nP89BHJCheutRjkt46s6dtZvuyujJjpDLvPBbLVERtpce0aAJr5Q_u5-qXiEgfbrU0GIhB0CJvY9wNhrsiqi9uXokfRatYdelpTz5UofzPJN7BTaRlnPG_k68GZiE1YjxInubVWfEBhCOHW8jVQfDMqq-xFzLVzR6nOcrszVYFnXFbqiN_Xsky0000]--></g></svg>