<?xml version="1.0" encoding="us-ascii" standalone="no"?><svg xmlns="http://www.w3.org/2000/svg" xmlns:xlink="http://www.w3.org/1999/xlink" contentStyleType="text/css" height="956px" preserveAspectRatio="none" style="width:800px;height:956px;background:#FFFFFF;" version="1.1" viewBox="0 0 800 956" width="800px" zoomAndPan="magnify"><defs><filter height="300%" id="f1ily5avxtnmda" width="300%" x="-1" y="-1"><feGaussianBlur result="blurOut" stdDeviation="8.0"/><feColorMatrix in="blurOut" result="blurOut2" type="matrix" values="0 0 0 0 0 0 0 0 0 0 0 0 0 0 0 0 0 0 .4 0"/><feOffset dx="16.0" dy="16.0" in="blurOut2" result="blurOut3"/><feBlend in="SourceGraphic" in2="blurOut3" mode="normal"/></filter></defs><g><!--cluster stopwatch--><g id="cluster_stopwatch"><polygon fill="none" filter="url(#f1ily5avxtnmda)" points="320,26.4079,636,26.4079,664,126.6796,735.28,126.6796,735.28,922.4079,320,922.4079,320,26.4079" style="stroke:#000000;stroke-width:6.0;"/><line style="stroke:#000000;stroke-width:6.0;" x1="320" x2="664" y1="126.6796" y2="126.6796"/><text fill="#000000" font-family="sans-serif" font-size="56" font-weight="bold" lengthAdjust="spacing" textLength="292" x="336" y="94.2717">stopwatch</text></g><g id="elem_start"><ellipse cx="527.6372" cy="790.4124" fill="#FEFECE" filter="url(#f1ily5avxtnmda)" rx="134.5972" ry="66.3645" style="stroke:#A80036;stroke-width:4.0;"/><text fill="#000000" font-family="sans-serif" font-size="56" lengthAdjust="spacing" textLength="124" x="454.7266" y="808.9786">start</text></g><g id="elem_stop"><ellipse cx="527.6229" cy="518.4059" fill="#FEFECE" filter="url(#f1ily5avxtnmda)" rx="128.6229" ry="66.2379" style="stroke:#A80036;stroke-width:4.0;"/><text fill="#000000" font-family="sans-serif" font-size="56" lengthAdjust="spacing" textLength="116" x="460.8795" y="536.2001">stop</text></g><g id="elem_reset"><ellipse cx="527.6495" cy="246.4193" fill="#FEFECE" filter="url(#f1ily5avxtnmda)" rx="143.6495" ry="66.5713" style="stroke:#A80036;stroke-width:4.0;"/><text fill="#000000" font-family="sans-serif" font-size="56" lengthAdjust="spacing" textLength="136" x="447.6495" y="265.3511">reset</text></g><!--entity user--><g id="elem_user"><ellipse cx="84" cy="386.2879" fill="#FEFECE" filter="url(#f1ily5avxtnmda)" rx="32" ry="32" style="stroke:#A80036;stroke-width:8.0;"/><path d="M84,418.2879 L84,526.2879 M32,450.2879 L136,450.2879 M84,526.2879 L32,586.2879 M84,526.2879 L136,586.2879 " fill="none" filter="url(#f1ily5avxtnmda)" style="stroke:#A80036;stroke-width:8.0;"/><text fill="#000000" font-family="sans-serif" font-size="56" lengthAdjust="spacing" textLength="120" x="24" y="674.1517">user</text></g><!--link user to start--><g id="link_user_start"><path d="M145,558.8079 C184.64,586.4879 238.92,623.6079 288,654.4079 C335.6,684.2879 368.9949,703.9437 413.4349,729.1037 " fill="none" id="user-to-start" style="stroke:#A80036;stroke-width:4.0;"/><polygon fill="#A80036" points="434.32,740.9279,410.8752,709.2682,416.9157,731.0744,395.1095,737.115,434.32,740.9279" style="stroke:#A80036;stroke-width:4.0;"/></g><!--link user to stop--><g id="link_user_stop"><path d="M144.96,518.4079 C209.08,518.4079 291.2,518.4079 374.84,518.4079 " fill="none" id="user-to-stop" style="stroke:#A80036;stroke-width:4.0;"/><polygon fill="#A80036" points="398.84,518.4079,362.84,502.4079,378.84,518.4079,362.84,534.4079,398.84,518.4079" style="stroke:#A80036;stroke-width:4.0;"/></g><!--link user to reset--><g id="link_user_reset"><path d="M145,478.0079 C184.64,450.3279 238.92,413.2079 288,382.4079 C334.8,353.0479 367.1968,333.9154 411.1968,308.9954 " fill="none" id="user-to-reset" style="stroke:#A80036;stroke-width:4.0;"/><polygon fill="#A80036" points="432.08,297.1679,392.8701,300.987,414.6773,307.0242,408.6401,328.8314,432.08,297.1679" style="stroke:#A80036;stroke-width:4.0;"/></g><!--SRC=[NOmz3i9G38Dtdy8NwCRCNQ8GsgTMpLCIn82uEor2YEBDdtzIPJ6Ua7DR6Pw6nQx5SaORf-AbXMarNm7Hyk0jBO0kEijepF9-bzA93t3JbghapYNgZtW_WB2qmXFO7paCvy_enswBhtlNNm00]--></g></svg>