<svg xmlns="http://www.w3.org/2000/svg" xmlns:xlink="http://www.w3.org/1999/xlink" contentStyleType="text/css" height="1368px" preserveAspectRatio="none" style="width:696px;height:1368px;background:#FFFFFF;" version="1.1" viewBox="0 0 696 1368" width="696px" zoomAndPan="magnify"><defs><filter height="300%" id="f18udjnji56v9b" width="300%" x="-1" y="-1"><feGaussianBlur result="blurOut" stdDeviation="8.0"/><feColorMatrix in="blurOut" result="blurOut2" type="matrix" values="0 0 0 0 0 0 0 0 0 0 0 0 0 0 0 0 0 0 .4 0"/><feOffset dx="16.0" dy="16.0" in="blurOut2" result="blurOut3"/><feBlend in="SourceGraphic" in2="blurOut3" mode="normal"/></filter></defs><g><ellipse cx="128" cy="64" fill="#000000" filter="url(#f18udjnji56v9b)" rx="40" ry="40" style="stroke:#000000;stroke-width:4.0;"/><g id="idle"><rect fill="#FEFECE" filter="url(#f18udjnji56v9b)" height="200" rx="50" ry="50" style="stroke:#A80036;stroke-width:4.0;" width="200" x="28" y="344"/><line style="stroke:#A80036;stroke-width:4.0;" x1="28" x2="228" y1="460.2717" y2="460.2717"/><text fill="#000000" font-family="sans-serif" font-size="56" lengthAdjust="spacing" textLength="94.9196" x="80.5402" y="423.8637">idle</text></g><ellipse cx="312" cy="1268" fill="none" filter="url(#f18udjnji56v9b)" rx="44" ry="44" style="stroke:#000000;stroke-width:4.0;"/><ellipse cx="312" cy="1268" fill="#000000" rx="24" ry="24" style="stroke:#000000;stroke-width:4.0;"/><g id="started"><rect fill="#FEFECE" filter="url(#f18udjnji56v9b)" height="200" rx="50" ry="50" style="stroke:#A80036;stroke-width:4.0;" width="267.8234" x="366.08" y="344"/><line style="stroke:#A80036;stroke-width:4.0;" x1="366.08" x2="633.9034" y1="460.2717" y2="460.2717"/><text fill="#000000" font-family="sans-serif" font-size="56" lengthAdjust="spacing" textLength="187.8234" x="406.08" y="423.8637">started</text></g><g id="stopped"><rect fill="#FEFECE" filter="url(#f18udjnji56v9b)" height="200" rx="50" ry="50" style="stroke:#A80036;stroke-width:4.0;" width="295.8232" x="348.08" y="784"/><line style="stroke:#A80036;stroke-width:4.0;" x1="348.08" x2="643.9032" y1="900.2717" y2="900.2717"/><text fill="#000000" font-family="sans-serif" font-size="56" lengthAdjust="spacing" textLength="215.8232" x="388.08" y="863.8637">stopped</text></g><!--link *start* to idle--><g id="link_*start*_idle"><path d="M128,105.04 C128,159.8 128,240.28 128,318.08 " fill="none" id="*start*-to-idle" style="stroke:#A80036;stroke-width:4.0;"/><polygon fill="#A80036" points="128,342.08,144,306.08,128,322.08,112,306.08,128,342.08" style="stroke:#A80036;stroke-width:4.0;"/></g><!--link idle to *end*--><g id="link_idle_*end*"><path d="M149.84,544.8 C190.2,723.8 269.6433,1076.1473 297.5633,1200.0273 " fill="none" id="idle-to-*end*" style="stroke:#A80036;stroke-width:4.0;"/><polygon fill="#A80036" points="302.84,1223.44,310.5334,1184.8031,298.4427,1203.9294,279.3164,1191.8387,302.84,1223.44" style="stroke:#A80036;stroke-width:4.0;"/></g><!--link idle to started--><g id="link_idle_started"><path d="M229.72,444 C274.76,444 295.8,444 340.84,444 " fill="none" id="idle-to-started" style="stroke:#A80036;stroke-width:4.0;"/><polygon fill="#A80036" points="364.84,444,328.84,428,344.84,444,328.84,460,364.84,444" style="stroke:#A80036;stroke-width:4.0;"/></g><!--link started to stopped--><g id="link_started_stopped"><path d="M454.44,544.96 C443.32,616.08 439.1471,688.547 448.9871,759.587 " fill="none" id="started-to-stopped" style="stroke:#A80036;stroke-width:4.0;"/><polygon fill="#A80036" points="452.28,783.36,463.1894,745.5052,449.5359,763.5491,431.492,749.8957,452.28,783.36" style="stroke:#A80036;stroke-width:4.0;"/></g><!--link stopped to started--><g id="link_stopped_started"><path d="M541.48,783.36 C552.68,712.32 556.8361,639.8553 547.0361,568.7353 " fill="none" id="stopped-to-started" style="stroke:#A80036;stroke-width:4.0;"/><polygon fill="#A80036" points="543.76,544.96,532.824,582.8071,546.4901,564.7728,564.5244,578.4389,543.76,544.96" style="stroke:#A80036;stroke-width:4.0;"/></g><!--link stopped to *end*--><g id="link_stopped_*end*"><path d="M448.6,984.84 C409.84,1064.04 367.713,1150.1646 340.473,1205.8046 " fill="none" id="stopped-to-*end*" style="stroke:#A80036;stroke-width:4.0;"/><polygon fill="#A80036" points="329.92,1227.36,360.1197,1202.0623,338.7142,1209.3972,331.3792,1187.9916,329.92,1227.36" style="stroke:#A80036;stroke-width:4.0;"/></g><!--link stopped to idle--><g id="link_stopped_idle"><path d="M413.68,783.36 C353.16,712.32 286.7656,634.3478 226.1656,563.2278 " fill="none" id="stopped-to-idle" style="stroke:#A80036;stroke-width:4.0;"/><polygon fill="#A80036" points="210.6,544.96,221.7699,582.7387,223.5714,560.1831,246.1269,561.9846,210.6,544.96" style="stroke:#A80036;stroke-width:4.0;"/></g><!--SRC=[AqvEp4bLCE4gpixCKoZABqxbuehMYbNGrRLJo4p9IULI1v5M2kM9cIN52cdvHGgbnQb5N211i1gWMYuepqwXk2Ing2GrXGjAWnKKb-GN5835m3H24x80GYDK368v0000]--></g></svg>