<svg xmlns="http://www.w3.org/2000/svg" xmlns:xlink="http://www.w3.org/1999/xlink" contentStyleType="text/css" height="177px" preserveAspectRatio="none" style="width:529px;height:177px;background:#FFFFFF;" version="1.1" viewBox="0 0 529 177" width="529px" zoomAndPan="magnify"><defs><filter height="300%" id="f1wtud2yemwvmr" width="300%" x="-1" y="-1"><feGaussianBlur result="blurOut" stdDeviation="2.0"/><feColorMatrix in="blurOut" result="blurOut2" type="matrix" values="0 0 0 0 0 0 0 0 0 0 0 0 0 0 0 0 0 0 .4 0"/><feOffset dx="4.0" dy="4.0" in="blurOut2" result="blurOut3"/><feBlend in="SourceGraphic" in2="blurOut3" mode="normal"/></filter></defs><g><!--class Shape--><g id="elem_Shape"><rect codeLine="3" fill="#FEFECE" filter="url(#f1wtud2yemwvmr)" height="48" id="Shape" style="stroke:#A80036;stroke-width:1.0;" width="72.6978" x="218.52" y="7"/><ellipse cx="233.52" cy="23" fill="#ADD1B2" rx="11" ry="11" style="stroke:#A80036;stroke-width:1.0;"/><path d="M232.9888,29.9219 Q231.2388,29.9219 230.0981,29.1875 Q228.9731,28.4375 228.4106,27.0938 Q227.8638,25.7344 227.8638,23.9375 Q227.8638,21.9063 228.52,20.4531 Q229.1763,19 230.4575,18.2188 Q231.7388,17.4375 233.6138,17.4375 Q234.5044,17.4375 235.1763,17.625 Q235.8481,17.7969 236.5356,18.1406 L235.7231,20.1563 Q235.0981,19.8438 234.5513,19.7188 Q234.02,19.5938 233.5356,19.5938 Q232.3638,19.5938 231.6606,20.125 Q230.9575,20.6563 230.6606,21.6094 Q230.3638,22.5625 230.3638,23.8281 Q230.3638,25.8438 231.0825,26.8125 Q231.8013,27.7656 233.395,27.7656 Q233.9888,27.7656 234.6138,27.6094 Q235.2388,27.4531 236.0669,27.0781 L236.0669,29.2969 Q235.3325,29.6094 234.5356,29.7656 Q233.7544,29.9219 232.9888,29.9219 Z " fill="#000000"/><text fill="#000000" font-family="sans-serif" font-size="14" lengthAdjust="spacing" textLength="40.6978" x="247.52" y="28.432">Shape</text><line style="stroke:#A80036;stroke-width:1.0;" x1="219.52" x2="290.2178" y1="39" y2="39"/><line style="stroke:#A80036;stroke-width:1.0;" x1="219.52" x2="290.2178" y1="47" y2="47"/></g><!--class BlueCircle--><g id="elem_BlueCircle"><rect codeLine="6" fill="#FEFECE" filter="url(#f1wtud2yemwvmr)" height="48" id="BlueCircle" style="stroke:#A80036;stroke-width:1.0;" width="97.7297" x="7" y="115"/><ellipse cx="22" cy="131" fill="#ADD1B2" rx="11" ry="11" style="stroke:#A80036;stroke-width:1.0;"/><path d="M21.4688,137.9219 Q19.7188,137.9219 18.5781,137.1875 Q17.4531,136.4375 16.8906,135.0938 Q16.3438,133.7344 16.3438,131.9375 Q16.3438,129.9063 17,128.4531 Q17.6563,127 18.9375,126.2188 Q20.2188,125.4375 22.0938,125.4375 Q22.9844,125.4375 23.6563,125.625 Q24.3281,125.7969 25.0156,126.1406 L24.2031,128.1563 Q23.5781,127.8438 23.0313,127.7188 Q22.5,127.5938 22.0156,127.5938 Q20.8438,127.5938 20.1406,128.125 Q19.4375,128.6563 19.1406,129.6094 Q18.8438,130.5625 18.8438,131.8281 Q18.8438,133.8438 19.5625,134.8125 Q20.2813,135.7656 21.875,135.7656 Q22.4688,135.7656 23.0938,135.6094 Q23.7188,135.4531 24.5469,135.0781 L24.5469,137.2969 Q23.8125,137.6094 23.0156,137.7656 Q22.2344,137.9219 21.4688,137.9219 Z " fill="#000000"/><text fill="#000000" font-family="sans-serif" font-size="14" lengthAdjust="spacing" textLength="65.7297" x="36" y="136.432">BlueCircle</text><line style="stroke:#A80036;stroke-width:1.0;" x1="8" x2="103.7297" y1="147" y2="147"/><line style="stroke:#A80036;stroke-width:1.0;" x1="8" x2="103.7297" y1="155" y2="155"/></g><!--class RedCircle--><g id="elem_RedCircle"><rect codeLine="9" fill="#FEFECE" filter="url(#f1wtud2yemwvmr)" height="48" id="RedCircle" style="stroke:#A80036;stroke-width:1.0;" width="93.6837" x="140.02" y="115"/><ellipse cx="155.02" cy="131" fill="#ADD1B2" rx="11" ry="11" style="stroke:#A80036;stroke-width:1.0;"/><path d="M154.4888,137.9219 Q152.7388,137.9219 151.5981,137.1875 Q150.4731,136.4375 149.9106,135.0938 Q149.3638,133.7344 149.3638,131.9375 Q149.3638,129.9063 150.02,128.4531 Q150.6763,127 151.9575,126.2188 Q153.2388,125.4375 155.1138,125.4375 Q156.0044,125.4375 156.6763,125.625 Q157.3481,125.7969 158.0356,126.1406 L157.2231,128.1563 Q156.5981,127.8438 156.0513,127.7188 Q155.52,127.5938 155.0356,127.5938 Q153.8638,127.5938 153.1606,128.125 Q152.4575,128.6563 152.1606,129.6094 Q151.8638,130.5625 151.8638,131.8281 Q151.8638,133.8438 152.5825,134.8125 Q153.3013,135.7656 154.895,135.7656 Q155.4888,135.7656 156.1138,135.6094 Q156.7388,135.4531 157.5669,135.0781 L157.5669,137.2969 Q156.8325,137.6094 156.0356,137.7656 Q155.2544,137.9219 154.4888,137.9219 Z " fill="#000000"/><text fill="#000000" font-family="sans-serif" font-size="14" lengthAdjust="spacing" textLength="61.6837" x="169.02" y="136.432">RedCircle</text><line style="stroke:#A80036;stroke-width:1.0;" x1="141.02" x2="232.7037" y1="147" y2="147"/><line style="stroke:#A80036;stroke-width:1.0;" x1="141.02" x2="232.7037" y1="155" y2="155"/></g><!--class BlueSquare--><g id="elem_BlueSquare"><rect codeLine="12" fill="#FEFECE" filter="url(#f1wtud2yemwvmr)" height="48" id="BlueSquare" style="stroke:#A80036;stroke-width:1.0;" width="107.7397" x="268.99" y="115"/><ellipse cx="283.99" cy="131" fill="#ADD1B2" rx="11" ry="11" style="stroke:#A80036;stroke-width:1.0;"/><path d="M283.4588,137.9219 Q281.7088,137.9219 280.5681,137.1875 Q279.4431,136.4375 278.8806,135.0938 Q278.3338,133.7344 278.3338,131.9375 Q278.3338,129.9063 278.99,128.4531 Q279.6463,127 280.9275,126.2188 Q282.2088,125.4375 284.0838,125.4375 Q284.9744,125.4375 285.6463,125.625 Q286.3181,125.7969 287.0056,126.1406 L286.1931,128.1563 Q285.5681,127.8438 285.0213,127.7188 Q284.49,127.5938 284.0056,127.5938 Q282.8338,127.5938 282.1306,128.125 Q281.4275,128.6563 281.1306,129.6094 Q280.8338,130.5625 280.8338,131.8281 Q280.8338,133.8438 281.5525,134.8125 Q282.2713,135.7656 283.865,135.7656 Q284.4588,135.7656 285.0838,135.6094 Q285.7088,135.4531 286.5369,135.0781 L286.5369,137.2969 Q285.8025,137.6094 285.0056,137.7656 Q284.2244,137.9219 283.4588,137.9219 Z " fill="#000000"/><text fill="#000000" font-family="sans-serif" font-size="14" lengthAdjust="spacing" textLength="75.7397" x="297.99" y="136.432">BlueSquare</text><line style="stroke:#A80036;stroke-width:1.0;" x1="269.99" x2="375.7297" y1="147" y2="147"/><line style="stroke:#A80036;stroke-width:1.0;" x1="269.99" x2="375.7297" y1="155" y2="155"/></g><!--class RedSquare--><g id="elem_RedSquare"><rect codeLine="15" fill="#FEFECE" filter="url(#f1wtud2yemwvmr)" height="48" id="RedSquare" style="stroke:#A80036;stroke-width:1.0;" width="103.6937" x="412.02" y="115"/><ellipse cx="427.02" cy="131" fill="#ADD1B2" rx="11" ry="11" style="stroke:#A80036;stroke-width:1.0;"/><path d="M426.4888,137.9219 Q424.7388,137.9219 423.5981,137.1875 Q422.4731,136.4375 421.9106,135.0938 Q421.3638,133.7344 421.3638,131.9375 Q421.3638,129.9063 422.02,128.4531 Q422.6763,127 423.9575,126.2188 Q425.2388,125.4375 427.1138,125.4375 Q428.0044,125.4375 428.6763,125.625 Q429.3481,125.7969 430.0356,126.1406 L429.2231,128.1563 Q428.5981,127.8438 428.0513,127.7188 Q427.52,127.5938 427.0356,127.5938 Q425.8638,127.5938 425.1606,128.125 Q424.4575,128.6563 424.1606,129.6094 Q423.8638,130.5625 423.8638,131.8281 Q423.8638,133.8438 424.5825,134.8125 Q425.3013,135.7656 426.895,135.7656 Q427.4888,135.7656 428.1138,135.6094 Q428.7388,135.4531 429.5669,135.0781 L429.5669,137.2969 Q428.8325,137.6094 428.0356,137.7656 Q427.2544,137.9219 426.4888,137.9219 Z " fill="#000000"/><text fill="#000000" font-family="sans-serif" font-size="14" lengthAdjust="spacing" textLength="71.6937" x="441.02" y="136.432">RedSquare</text><line style="stroke:#A80036;stroke-width:1.0;" x1="413.02" x2="514.7137" y1="147" y2="147"/><line style="stroke:#A80036;stroke-width:1.0;" x1="413.02" x2="514.7137" y1="155" y2="155"/></g><!--reverse link Shape to BlueCircle--><g id="link_Shape_BlueCircle"><path codeLine="18" d="M202.4828,59.9015 C169.0428,77.7115 135.36,95.65 99.77,114.61 " fill="none" id="Shape-backto-BlueCircle" style="stroke:#A80036;stroke-width:1.0;"/><polygon fill="none" points="218.37,51.44,199.6623,54.6057,205.3033,65.1972,218.37,51.44" style="stroke:#A80036;stroke-width:1.0;"/></g><!--reverse link Shape to RedCircle--><g id="link_Shape_RedCircle"><path codeLine="19" d="M230.222,70.4112 C218.882,88.0912 213.08,97.13 201.75,114.79 " fill="none" id="Shape-backto-RedCircle" style="stroke:#A80036;stroke-width:1.0;"/><polygon fill="none" points="239.94,55.26,225.1716,67.1719,235.2724,73.6506,239.94,55.26" style="stroke:#A80036;stroke-width:1.0;"/></g><!--reverse link Shape to BlueSquare--><g id="link_Shape_BlueSquare"><path codeLine="20" d="M279.508,70.4112 C290.848,88.0912 296.65,97.13 307.98,114.79 " fill="none" id="Shape-backto-BlueSquare" style="stroke:#A80036;stroke-width:1.0;"/><polygon fill="none" points="269.79,55.26,274.4576,73.6506,284.5584,67.1719,269.79,55.26" style="stroke:#A80036;stroke-width:1.0;"/></g><!--reverse link Shape to RedSquare--><g id="link_Shape_RedSquare"><path codeLine="21" d="M307.3228,58.603 C342.4128,76.403 379.58,95.25 417.64,114.56 " fill="none" id="Shape-backto-RedSquare" style="stroke:#A80036;stroke-width:1.0;"/><polygon fill="none" points="291.27,50.46,304.6084,63.954,310.0371,53.2521,291.27,50.46" style="stroke:#A80036;stroke-width:1.0;"/></g><!--SRC=[AyxEp5CeoYzEvU9ApaaiBbO8paWiI5Mevgg52JZbbAOwPnObvw281gMcO0g2b0ONbYOMeIj55eHOO5EZgujaDB8et6XqfH1Jq9H21040]--></g></svg>