<svg xmlns="http://www.w3.org/2000/svg" xmlns:xlink="http://www.w3.org/1999/xlink" contentStyleType="text/css" height="177px" preserveAspectRatio="none" style="width:393px;height:177px;background:#FFFFFF;" version="1.1" viewBox="0 0 393 177" width="393px" zoomAndPan="magnify"><defs><filter height="300%" id="frm2n89vcpyky" width="300%" x="-1" y="-1"><feGaussianBlur result="blurOut" stdDeviation="2.0"/><feColorMatrix in="blurOut" result="blurOut2" type="matrix" values="0 0 0 0 0 0 0 0 0 0 0 0 0 0 0 0 0 0 .4 0"/><feOffset dx="4.0" dy="4.0" in="blurOut2" result="blurOut3"/><feBlend in="SourceGraphic" in2="blurOut3" mode="normal"/></filter></defs><g><!--class Shape--><g id="elem_Shape"><rect codeLine="3" fill="#FEFECE" filter="url(#frm2n89vcpyky)" height="48" id="Shape" style="stroke:#A80036;stroke-width:1.0;" width="72.6978" x="115.89" y="7"/><ellipse cx="130.89" cy="23" fill="#ADD1B2" rx="11" ry="11" style="stroke:#A80036;stroke-width:1.0;"/><path d="M130.3588,29.9219 Q128.6088,29.9219 127.4681,29.1875 Q126.3431,28.4375 125.7806,27.0938 Q125.2337,25.7344 125.2337,23.9375 Q125.2337,21.9063 125.89,20.4531 Q126.5462,19 127.8275,18.2188 Q129.1088,17.4375 130.9838,17.4375 Q131.8744,17.4375 132.5463,17.625 Q133.2181,17.7969 133.9056,18.1406 L133.0931,20.1563 Q132.4681,19.8438 131.9213,19.7188 Q131.39,19.5938 130.9056,19.5938 Q129.7338,19.5938 129.0306,20.125 Q128.3275,20.6563 128.0306,21.6094 Q127.7337,22.5625 127.7337,23.8281 Q127.7337,25.8438 128.4525,26.8125 Q129.1713,27.7656 130.765,27.7656 Q131.3588,27.7656 131.9838,27.6094 Q132.6088,27.4531 133.4369,27.0781 L133.4369,29.2969 Q132.7025,29.6094 131.9056,29.7656 Q131.1244,29.9219 130.3588,29.9219 Z " fill="#000000"/><text fill="#000000" font-family="sans-serif" font-size="14" lengthAdjust="spacing" textLength="40.6978" x="144.89" y="28.432">Shape</text><line style="stroke:#A80036;stroke-width:1.0;" x1="116.89" x2="187.5878" y1="39" y2="39"/><line style="stroke:#A80036;stroke-width:1.0;" x1="116.89" x2="187.5878" y1="47" y2="47"/></g><!--class Square--><g id="elem_Square"><rect codeLine="6" fill="#FEFECE" filter="url(#frm2n89vcpyky)" height="48" id="Square" style="stroke:#A80036;stroke-width:1.0;" width="78.4798" x="7" y="115"/><ellipse cx="22" cy="131" fill="#ADD1B2" rx="11" ry="11" style="stroke:#A80036;stroke-width:1.0;"/><path d="M21.4688,137.9219 Q19.7188,137.9219 18.5781,137.1875 Q17.4531,136.4375 16.8906,135.0938 Q16.3438,133.7344 16.3438,131.9375 Q16.3438,129.9063 17,128.4531 Q17.6563,127 18.9375,126.2188 Q20.2188,125.4375 22.0938,125.4375 Q22.9844,125.4375 23.6563,125.625 Q24.3281,125.7969 25.0156,126.1406 L24.2031,128.1563 Q23.5781,127.8438 23.0313,127.7188 Q22.5,127.5938 22.0156,127.5938 Q20.8438,127.5938 20.1406,128.125 Q19.4375,128.6563 19.1406,129.6094 Q18.8438,130.5625 18.8438,131.8281 Q18.8438,133.8438 19.5625,134.8125 Q20.2813,135.7656 21.875,135.7656 Q22.4688,135.7656 23.0938,135.6094 Q23.7188,135.4531 24.5469,135.0781 L24.5469,137.2969 Q23.8125,137.6094 23.0156,137.7656 Q22.2344,137.9219 21.4688,137.9219 Z " fill="#000000"/><text fill="#000000" font-family="sans-serif" font-size="14" lengthAdjust="spacing" textLength="46.4798" x="36" y="136.432">Square</text><line style="stroke:#A80036;stroke-width:1.0;" x1="8" x2="84.4798" y1="147" y2="147"/><line style="stroke:#A80036;stroke-width:1.0;" x1="8" x2="84.4798" y1="155" y2="155"/></g><!--class Circle--><g id="elem_Circle"><rect codeLine="9" fill="#FEFECE" filter="url(#frm2n89vcpyky)" height="48" id="Circle" style="stroke:#A80036;stroke-width:1.0;" width="68.4698" x="120.01" y="115"/><ellipse cx="135.01" cy="131" fill="#ADD1B2" rx="11" ry="11" style="stroke:#A80036;stroke-width:1.0;"/><path d="M134.4788,137.9219 Q132.7288,137.9219 131.5881,137.1875 Q130.4631,136.4375 129.9006,135.0938 Q129.3538,133.7344 129.3538,131.9375 Q129.3538,129.9063 130.01,128.4531 Q130.6663,127 131.9475,126.2188 Q133.2288,125.4375 135.1038,125.4375 Q135.9944,125.4375 136.6663,125.625 Q137.3381,125.7969 138.0256,126.1406 L137.2131,128.1563 Q136.5881,127.8438 136.0413,127.7188 Q135.51,127.5938 135.0256,127.5938 Q133.8538,127.5938 133.1506,128.125 Q132.4475,128.6563 132.1506,129.6094 Q131.8538,130.5625 131.8538,131.8281 Q131.8538,133.8438 132.5725,134.8125 Q133.2913,135.7656 134.885,135.7656 Q135.4788,135.7656 136.1038,135.6094 Q136.7288,135.4531 137.5569,135.0781 L137.5569,137.2969 Q136.8225,137.6094 136.0256,137.7656 Q135.2444,137.9219 134.4788,137.9219 Z " fill="#000000"/><text fill="#000000" font-family="sans-serif" font-size="14" lengthAdjust="spacing" textLength="36.4698" x="149.01" y="136.432">Circle</text><line style="stroke:#A80036;stroke-width:1.0;" x1="121.01" x2="187.4798" y1="147" y2="147"/><line style="stroke:#A80036;stroke-width:1.0;" x1="121.01" x2="187.4798" y1="155" y2="155"/></g><!--class Color--><g id="elem_Color"><rect codeLine="12" fill="#FEFECE" filter="url(#frm2n89vcpyky)" height="48" id="Color" style="stroke:#A80036;stroke-width:1.0;" width="67.1819" x="223.65" y="7"/><ellipse cx="238.65" cy="23" fill="#ADD1B2" rx="11" ry="11" style="stroke:#A80036;stroke-width:1.0;"/><path d="M238.1188,29.9219 Q236.3688,29.9219 235.2281,29.1875 Q234.1031,28.4375 233.5406,27.0938 Q232.9938,25.7344 232.9938,23.9375 Q232.9938,21.9063 233.65,20.4531 Q234.3063,19 235.5875,18.2188 Q236.8688,17.4375 238.7438,17.4375 Q239.6344,17.4375 240.3063,17.625 Q240.9781,17.7969 241.6656,18.1406 L240.8531,20.1563 Q240.2281,19.8438 239.6813,19.7188 Q239.15,19.5938 238.6656,19.5938 Q237.4938,19.5938 236.7906,20.125 Q236.0875,20.6563 235.7906,21.6094 Q235.4938,22.5625 235.4938,23.8281 Q235.4938,25.8438 236.2125,26.8125 Q236.9313,27.7656 238.525,27.7656 Q239.1188,27.7656 239.7438,27.6094 Q240.3688,27.4531 241.1969,27.0781 L241.1969,29.2969 Q240.4625,29.6094 239.6656,29.7656 Q238.8844,29.9219 238.1188,29.9219 Z " fill="#000000"/><text fill="#000000" font-family="sans-serif" font-size="14" lengthAdjust="spacing" textLength="35.1819" x="252.65" y="28.432">Color</text><line style="stroke:#A80036;stroke-width:1.0;" x1="224.65" x2="289.8319" y1="39" y2="39"/><line style="stroke:#A80036;stroke-width:1.0;" x1="224.65" x2="289.8319" y1="47" y2="47"/></g><!--class Red--><g id="elem_Red"><rect codeLine="15" fill="#FEFECE" filter="url(#frm2n89vcpyky)" height="48" id="Red" style="stroke:#A80036;stroke-width:1.0;" width="57.2139" x="226.63" y="115"/><ellipse cx="241.63" cy="131" fill="#ADD1B2" rx="11" ry="11" style="stroke:#A80036;stroke-width:1.0;"/><path d="M241.0988,137.9219 Q239.3488,137.9219 238.2081,137.1875 Q237.0831,136.4375 236.5206,135.0938 Q235.9738,133.7344 235.9738,131.9375 Q235.9738,129.9063 236.63,128.4531 Q237.2863,127 238.5675,126.2188 Q239.8488,125.4375 241.7238,125.4375 Q242.6144,125.4375 243.2863,125.625 Q243.9581,125.7969 244.6456,126.1406 L243.8331,128.1563 Q243.2081,127.8438 242.6613,127.7188 Q242.13,127.5938 241.6456,127.5938 Q240.4738,127.5938 239.7706,128.125 Q239.0675,128.6563 238.7706,129.6094 Q238.4738,130.5625 238.4738,131.8281 Q238.4738,133.8438 239.1925,134.8125 Q239.9113,135.7656 241.505,135.7656 Q242.0988,135.7656 242.7238,135.6094 Q243.3488,135.4531 244.1769,135.0781 L244.1769,137.2969 Q243.4425,137.6094 242.6456,137.7656 Q241.8644,137.9219 241.0988,137.9219 Z " fill="#000000"/><text fill="#000000" font-family="sans-serif" font-size="14" lengthAdjust="spacing" textLength="25.2139" x="255.63" y="136.432">Red</text><line style="stroke:#A80036;stroke-width:1.0;" x1="227.63" x2="282.8439" y1="147" y2="147"/><line style="stroke:#A80036;stroke-width:1.0;" x1="227.63" x2="282.8439" y1="155" y2="155"/></g><!--class Blue--><g id="elem_Blue"><rect codeLine="18" fill="#FEFECE" filter="url(#frm2n89vcpyky)" height="48" id="Blue" style="stroke:#A80036;stroke-width:1.0;" width="61.2599" x="318.61" y="115"/><ellipse cx="333.61" cy="131" fill="#ADD1B2" rx="11" ry="11" style="stroke:#A80036;stroke-width:1.0;"/><path d="M333.0788,137.9219 Q331.3288,137.9219 330.1881,137.1875 Q329.0631,136.4375 328.5006,135.0938 Q327.9538,133.7344 327.9538,131.9375 Q327.9538,129.9063 328.61,128.4531 Q329.2663,127 330.5475,126.2188 Q331.8288,125.4375 333.7038,125.4375 Q334.5944,125.4375 335.2663,125.625 Q335.9381,125.7969 336.6256,126.1406 L335.8131,128.1563 Q335.1881,127.8438 334.6413,127.7188 Q334.11,127.5938 333.6256,127.5938 Q332.4538,127.5938 331.7506,128.125 Q331.0475,128.6563 330.7506,129.6094 Q330.4538,130.5625 330.4538,131.8281 Q330.4538,133.8438 331.1725,134.8125 Q331.8913,135.7656 333.485,135.7656 Q334.0788,135.7656 334.7038,135.6094 Q335.3288,135.4531 336.1569,135.0781 L336.1569,137.2969 Q335.4225,137.6094 334.6256,137.7656 Q333.8444,137.9219 333.0788,137.9219 Z " fill="#000000"/><text fill="#000000" font-family="sans-serif" font-size="14" lengthAdjust="spacing" textLength="29.2599" x="347.61" y="136.432">Blue</text><line style="stroke:#A80036;stroke-width:1.0;" x1="319.61" x2="378.8699" y1="147" y2="147"/><line style="stroke:#A80036;stroke-width:1.0;" x1="319.61" x2="378.8699" y1="155" y2="155"/></g><!--reverse link Shape to Circle--><g id="link_Shape_Circle"><path codeLine="21" d="M153.0159,73.2569 C153.3459,90.9369 153.47,97.13 153.8,114.79 " fill="none" id="Shape-backto-Circle" style="stroke:#A80036;stroke-width:1.0;"/><polygon fill="none" points="152.68,55.26,147.017,73.3688,159.0149,73.1449,152.68,55.26" style="stroke:#A80036;stroke-width:1.0;"/></g><!--reverse link Shape to Square--><g id="link_Shape_Square"><path codeLine="22" d="M116.2521,67.9879 C98.5721,85.6679 87.11,97.13 69.45,114.79 " fill="none" id="Shape-backto-Square" style="stroke:#A80036;stroke-width:1.0;"/><polygon fill="none" points="128.98,55.26,112.0094,63.7453,120.4947,72.2306,128.98,55.26" style="stroke:#A80036;stroke-width:1.0;"/></g><!--reverse link Color to Blue--><g id="link_Color_Blue"><path codeLine="23" d="M289.2264,68.8558 C304.5664,86.5358 313.77,97.13 329.1,114.79 " fill="none" id="Color-backto-Blue" style="stroke:#A80036;stroke-width:1.0;"/><polygon fill="none" points="277.43,55.26,284.6944,72.7879,293.7583,64.9237,277.43,55.26" style="stroke:#A80036;stroke-width:1.0;"/></g><!--reverse link Color to Red--><g id="link_Color_Red"><path codeLine="24" d="M256.4641,73.2569 C256.1341,90.9369 256.01,97.13 255.68,114.79 " fill="none" id="Color-backto-Red" style="stroke:#A80036;stroke-width:1.0;"/><polygon fill="none" points="256.8,55.26,250.4651,73.1449,262.463,73.3688,256.8,55.26" style="stroke:#A80036;stroke-width:1.0;"/></g><!--reverse link Shape to Color--><g id="link_Shape_Color"><path codeLine="26" d="M200.74,31 C212.25,31 211.75,31 223.26,31 " fill="none" id="Shape-backto-Color" style="stroke:#A80036;stroke-width:1.0;"/><polygon fill="none" points="188.74,31,194.74,35,200.74,31,194.74,27,188.74,31" style="stroke:#A80036;stroke-width:1.0;"/></g><!--SRC=[AyxEp5CeoYzEvU9ApaaiBbO8paWiI5Mevgg52nIM9XQXY3Xd5YNde8hav-GN8Gi4fQOWSvroIg7g8SRRrEZgGer15e5OnGKn3Im2qeZC1veBCoDV5s8j0000]--></g></svg>