<svg xmlns="http://www.w3.org/2000/svg" xmlns:xlink="http://www.w3.org/1999/xlink" contentStyleType="text/css" height="207px" preserveAspectRatio="none" style="width:442px;height:207px;background:#FFFFFF;" version="1.1" viewBox="0 0 442 207" width="442px" zoomAndPan="magnify"><defs><filter height="300%" id="f1x4c49qcnuu50" width="300%" x="-1" y="-1"><feGaussianBlur result="blurOut" stdDeviation="2.0"/><feColorMatrix in="blurOut" result="blurOut2" type="matrix" values="0 0 0 0 0 0 0 0 0 0 0 0 0 0 0 0 0 0 .4 0"/><feOffset dx="4.0" dy="4.0" in="blurOut2" result="blurOut3"/><feBlend in="SourceGraphic" in2="blurOut3" mode="normal"/></filter></defs><g><g id="cluster_##2"><rect fill="none" filter="url(#f1x4c49qcnuu50)" height="188" style="stroke:#A80036;stroke-width:1.0;" width="213" x="7" y="7"/></g><g id="cluster_##7"><rect fill="none" filter="url(#f1x4c49qcnuu50)" height="188" style="stroke:#A80036;stroke-width:1.0;" width="186" x="244" y="7"/></g><!--class Shape--><g id="elem_Shape"><rect codeLine="4" fill="#FEFECE" filter="url(#f1x4c49qcnuu50)" height="48" id="Shape" style="stroke:#A80036;stroke-width:1.0;" width="72.6978" x="131.65" y="23"/><ellipse cx="146.65" cy="39" fill="#ADD1B2" rx="11" ry="11" style="stroke:#A80036;stroke-width:1.0;"/><path d="M146.1188,45.9219 Q144.3688,45.9219 143.2281,45.1875 Q142.1031,44.4375 141.5406,43.0938 Q140.9938,41.7344 140.9938,39.9375 Q140.9938,37.9063 141.65,36.4531 Q142.3063,35 143.5875,34.2188 Q144.8688,33.4375 146.7438,33.4375 Q147.6344,33.4375 148.3063,33.625 Q148.9781,33.7969 149.6656,34.1406 L148.8531,36.1563 Q148.2281,35.8438 147.6813,35.7188 Q147.15,35.5938 146.6656,35.5938 Q145.4938,35.5938 144.7906,36.125 Q144.0875,36.6563 143.7906,37.6094 Q143.4938,38.5625 143.4938,39.8281 Q143.4938,41.8438 144.2125,42.8125 Q144.9313,43.7656 146.525,43.7656 Q147.1188,43.7656 147.7438,43.6094 Q148.3688,43.4531 149.1969,43.0781 L149.1969,45.2969 Q148.4625,45.6094 147.6656,45.7656 Q146.8844,45.9219 146.1188,45.9219 Z " fill="#000000"/><text fill="#000000" font-family="sans-serif" font-size="14" lengthAdjust="spacing" textLength="40.6978" x="160.65" y="44.432">Shape</text><line style="stroke:#A80036;stroke-width:1.0;" x1="132.65" x2="203.3478" y1="55" y2="55"/><line style="stroke:#A80036;stroke-width:1.0;" x1="132.65" x2="203.3478" y1="63" y2="63"/></g><!--class Square--><g id="elem_Square"><rect codeLine="7" fill="#FEFECE" filter="url(#f1x4c49qcnuu50)" height="48" id="Square" style="stroke:#A80036;stroke-width:1.0;" width="78.4798" x="22.76" y="131"/><ellipse cx="37.76" cy="147" fill="#ADD1B2" rx="11" ry="11" style="stroke:#A80036;stroke-width:1.0;"/><path d="M37.2288,153.9219 Q35.4788,153.9219 34.3381,153.1875 Q33.2131,152.4375 32.6506,151.0938 Q32.1038,149.7344 32.1038,147.9375 Q32.1038,145.9063 32.76,144.4531 Q33.4163,143 34.6975,142.2188 Q35.9788,141.4375 37.8538,141.4375 Q38.7444,141.4375 39.4163,141.625 Q40.0881,141.7969 40.7756,142.1406 L39.9631,144.1563 Q39.3381,143.8438 38.7913,143.7188 Q38.26,143.5938 37.7756,143.5938 Q36.6038,143.5938 35.9006,144.125 Q35.1975,144.6563 34.9006,145.6094 Q34.6038,146.5625 34.6038,147.8281 Q34.6038,149.8438 35.3225,150.8125 Q36.0413,151.7656 37.635,151.7656 Q38.2288,151.7656 38.8538,151.6094 Q39.4788,151.4531 40.3069,151.0781 L40.3069,153.2969 Q39.5725,153.6094 38.7756,153.7656 Q37.9944,153.9219 37.2288,153.9219 Z " fill="#000000"/><text fill="#000000" font-family="sans-serif" font-size="14" lengthAdjust="spacing" textLength="46.4798" x="51.76" y="152.432">Square</text><line style="stroke:#A80036;stroke-width:1.0;" x1="23.76" x2="100.2398" y1="163" y2="163"/><line style="stroke:#A80036;stroke-width:1.0;" x1="23.76" x2="100.2398" y1="171" y2="171"/></g><!--class Circle--><g id="elem_Circle"><rect codeLine="10" fill="#FEFECE" filter="url(#f1x4c49qcnuu50)" height="48" id="Circle" style="stroke:#A80036;stroke-width:1.0;" width="68.4698" x="135.77" y="131"/><ellipse cx="150.77" cy="147" fill="#ADD1B2" rx="11" ry="11" style="stroke:#A80036;stroke-width:1.0;"/><path d="M150.2388,153.9219 Q148.4888,153.9219 147.3481,153.1875 Q146.2231,152.4375 145.6606,151.0938 Q145.1138,149.7344 145.1138,147.9375 Q145.1138,145.9063 145.77,144.4531 Q146.4263,143 147.7075,142.2188 Q148.9888,141.4375 150.8638,141.4375 Q151.7544,141.4375 152.4263,141.625 Q153.0981,141.7969 153.7856,142.1406 L152.9731,144.1563 Q152.3481,143.8438 151.8013,143.7188 Q151.27,143.5938 150.7856,143.5938 Q149.6138,143.5938 148.9106,144.125 Q148.2075,144.6563 147.9106,145.6094 Q147.6138,146.5625 147.6138,147.8281 Q147.6138,149.8438 148.3325,150.8125 Q149.0513,151.7656 150.645,151.7656 Q151.2388,151.7656 151.8638,151.6094 Q152.4888,151.4531 153.3169,151.0781 L153.3169,153.2969 Q152.5825,153.6094 151.7856,153.7656 Q151.0044,153.9219 150.2388,153.9219 Z " fill="#000000"/><text fill="#000000" font-family="sans-serif" font-size="14" lengthAdjust="spacing" textLength="36.4698" x="164.77" y="152.432">Circle</text><line style="stroke:#A80036;stroke-width:1.0;" x1="136.77" x2="203.2398" y1="163" y2="163"/><line style="stroke:#A80036;stroke-width:1.0;" x1="136.77" x2="203.2398" y1="171" y2="171"/></g><!--class Color--><g id="elem_Color"><rect codeLine="15" fill="#FEFECE" filter="url(#f1x4c49qcnuu50)" height="48" id="Color" style="stroke:#A80036;stroke-width:1.0;" width="67.1819" x="260.41" y="23"/><ellipse cx="275.41" cy="39" fill="#ADD1B2" rx="11" ry="11" style="stroke:#A80036;stroke-width:1.0;"/><path d="M274.8788,45.9219 Q273.1288,45.9219 271.9881,45.1875 Q270.8631,44.4375 270.3006,43.0938 Q269.7538,41.7344 269.7538,39.9375 Q269.7538,37.9063 270.41,36.4531 Q271.0663,35 272.3475,34.2188 Q273.6288,33.4375 275.5038,33.4375 Q276.3944,33.4375 277.0663,33.625 Q277.7381,33.7969 278.4256,34.1406 L277.6131,36.1563 Q276.9881,35.8438 276.4413,35.7188 Q275.91,35.5938 275.4256,35.5938 Q274.2538,35.5938 273.5506,36.125 Q272.8475,36.6563 272.5506,37.6094 Q272.2538,38.5625 272.2538,39.8281 Q272.2538,41.8438 272.9725,42.8125 Q273.6913,43.7656 275.285,43.7656 Q275.8788,43.7656 276.5038,43.6094 Q277.1288,43.4531 277.9569,43.0781 L277.9569,45.2969 Q277.2225,45.6094 276.4256,45.7656 Q275.6444,45.9219 274.8788,45.9219 Z " fill="#000000"/><text fill="#000000" font-family="sans-serif" font-size="14" lengthAdjust="spacing" textLength="35.1819" x="289.41" y="44.432">Color</text><line style="stroke:#A80036;stroke-width:1.0;" x1="261.41" x2="326.5919" y1="55" y2="55"/><line style="stroke:#A80036;stroke-width:1.0;" x1="261.41" x2="326.5919" y1="63" y2="63"/></g><!--class Red--><g id="elem_Red"><rect codeLine="18" fill="#FEFECE" filter="url(#f1x4c49qcnuu50)" height="48" id="Red" style="stroke:#A80036;stroke-width:1.0;" width="57.2139" x="260.39" y="131"/><ellipse cx="275.39" cy="147" fill="#ADD1B2" rx="11" ry="11" style="stroke:#A80036;stroke-width:1.0;"/><path d="M274.8588,153.9219 Q273.1088,153.9219 271.9681,153.1875 Q270.8431,152.4375 270.2806,151.0938 Q269.7338,149.7344 269.7338,147.9375 Q269.7338,145.9063 270.39,144.4531 Q271.0463,143 272.3275,142.2188 Q273.6088,141.4375 275.4838,141.4375 Q276.3744,141.4375 277.0463,141.625 Q277.7181,141.7969 278.4056,142.1406 L277.5931,144.1563 Q276.9681,143.8438 276.4213,143.7188 Q275.89,143.5938 275.4056,143.5938 Q274.2338,143.5938 273.5306,144.125 Q272.8275,144.6563 272.5306,145.6094 Q272.2338,146.5625 272.2338,147.8281 Q272.2338,149.8438 272.9525,150.8125 Q273.6713,151.7656 275.265,151.7656 Q275.8588,151.7656 276.4838,151.6094 Q277.1088,151.4531 277.9369,151.0781 L277.9369,153.2969 Q277.2025,153.6094 276.4056,153.7656 Q275.6244,153.9219 274.8588,153.9219 Z " fill="#000000"/><text fill="#000000" font-family="sans-serif" font-size="14" lengthAdjust="spacing" textLength="25.2139" x="289.39" y="152.432">Red</text><line style="stroke:#A80036;stroke-width:1.0;" x1="261.39" x2="316.6039" y1="163" y2="163"/><line style="stroke:#A80036;stroke-width:1.0;" x1="261.39" x2="316.6039" y1="171" y2="171"/></g><!--class Blue--><g id="elem_Blue"><rect codeLine="21" fill="#FEFECE" filter="url(#f1x4c49qcnuu50)" height="48" id="Blue" style="stroke:#A80036;stroke-width:1.0;" width="61.2599" x="352.37" y="131"/><ellipse cx="367.37" cy="147" fill="#ADD1B2" rx="11" ry="11" style="stroke:#A80036;stroke-width:1.0;"/><path d="M366.8388,153.9219 Q365.0888,153.9219 363.9481,153.1875 Q362.8231,152.4375 362.2606,151.0938 Q361.7138,149.7344 361.7138,147.9375 Q361.7138,145.9063 362.37,144.4531 Q363.0263,143 364.3075,142.2188 Q365.5888,141.4375 367.4638,141.4375 Q368.3544,141.4375 369.0263,141.625 Q369.6981,141.7969 370.3856,142.1406 L369.5731,144.1563 Q368.9481,143.8438 368.4013,143.7188 Q367.87,143.5938 367.3856,143.5938 Q366.2138,143.5938 365.5106,144.125 Q364.8075,144.6563 364.5106,145.6094 Q364.2138,146.5625 364.2138,147.8281 Q364.2138,149.8438 364.9325,150.8125 Q365.6513,151.7656 367.245,151.7656 Q367.8388,151.7656 368.4638,151.6094 Q369.0888,151.4531 369.9169,151.0781 L369.9169,153.2969 Q369.1825,153.6094 368.3856,153.7656 Q367.6044,153.9219 366.8388,153.9219 Z " fill="#000000"/><text fill="#000000" font-family="sans-serif" font-size="14" lengthAdjust="spacing" textLength="29.2599" x="381.37" y="152.432">Blue</text><line style="stroke:#A80036;stroke-width:1.0;" x1="353.37" x2="412.6299" y1="163" y2="163"/><line style="stroke:#A80036;stroke-width:1.0;" x1="353.37" x2="412.6299" y1="171" y2="171"/></g><!--reverse link Shape to Circle--><g id="link_Shape_Circle"><path codeLine="25" d="M168.7759,89.2569 C169.1059,106.9369 169.23,113.13 169.56,130.79 " fill="none" id="Shape-backto-Circle" style="stroke:#A80036;stroke-width:1.0;"/><polygon fill="none" points="168.44,71.26,162.777,89.3688,174.7749,89.1449,168.44,71.26" style="stroke:#A80036;stroke-width:1.0;"/></g><!--reverse link Shape to Square--><g id="link_Shape_Square"><path codeLine="26" d="M132.0121,83.9879 C114.3321,101.6679 102.87,113.13 85.21,130.79 " fill="none" id="Shape-backto-Square" style="stroke:#A80036;stroke-width:1.0;"/><polygon fill="none" points="144.74,71.26,127.7694,79.7453,136.2547,88.2306,144.74,71.26" style="stroke:#A80036;stroke-width:1.0;"/></g><!--reverse link Color to Blue--><g id="link_Color_Blue"><path codeLine="27" d="M325.1023,85.047 C339.9423,102.727 348.69,113.13 363.51,130.79 " fill="none" id="Color-backto-Blue" style="stroke:#A80036;stroke-width:1.0;"/><polygon fill="none" points="313.53,71.26,320.5067,88.9044,329.698,81.1895,313.53,71.26" style="stroke:#A80036;stroke-width:1.0;"/></g><!--reverse link Color to Red--><g id="link_Color_Red"><path codeLine="28" d="M292.0559,89.2402 C291.2259,106.9202 290.93,113.13 290.09,130.79 " fill="none" id="Color-backto-Red" style="stroke:#A80036;stroke-width:1.0;"/><polygon fill="none" points="292.9,71.26,286.0625,88.9588,298.0493,89.5216,292.9,71.26" style="stroke:#A80036;stroke-width:1.0;"/></g><!--reverse link Shape to Color--><g id="link_Shape_Color"><path codeLine="30" d="M216.42,47 C234.97,47 241.51,47 260.06,47 " fill="none" id="Shape-backto-Color" style="stroke:#A80036;stroke-width:1.0;"/><polygon fill="none" points="204.42,47,210.42,51,216.42,47,210.42,43,204.42,47" style="stroke:#A80036;stroke-width:1.0;"/></g><!--SRC=[AyxEp5CeoYzEvU8gIaqkISnBpqbLgEPI08BadCJYOeNWZCG2c4Wj5x94OMbY4LOPvyoYv1o4J2qkevtpS_ABi1aGb9g2JTWffnJ5L8ZJR6fqTQ5M8ej0dCS5iGCi0jAEp0VQ0ZCZNnVY6000]--></g></svg>