<svg xmlns="http://www.w3.org/2000/svg" xmlns:xlink="http://www.w3.org/1999/xlink" contentStyleType="text/css" data-diagram-type="CLASS" height="704px" preserveAspectRatio="none" style="width:1142px;height:704px;background:#FFFFFF;" version="1.1" viewBox="0 0 1142 704" width="1142px" zoomAndPan="magnify"><?plantuml $version$?><defs><filter height="300%" id="f1g81idfxgqkxl" width="300%" x="-1" y="-1"><feGaussianBlur result="blurOut" stdDeviation="4"/><feColorMatrix in="blurOut" result="blurOut2" type="matrix" values="0 0 0 0 0 0 0 0 0 0 0 0 0 0 0 0 0 0 .4 0"/><feOffset dx="8" dy="8" in="blurOut2" result="blurOut3"/><feBlend in="SourceGraphic" in2="blurOut3" mode="normal"/></filter></defs><g><!--class Observable--><g class="entity" data-qualified-name="Observable" data-source-line="4" id="ent0001"><rect fill="#FEFECE" filter="url(#f1g81idfxgqkxl)" height="248.5433" style="stroke:#A80036;stroke-width:2;" width="292.8831" x="14" y="120.48"/><ellipse cx="79.4868" cy="152.48" fill="#ADD1B2" rx="22" ry="22" style="stroke:#A80036;stroke-width:2;"/><path d="M78.4243,166.3237 Q74.9243,166.3237 72.6431,164.855 Q70.3931,163.355 69.2681,160.6675 Q68.1743,157.9487 68.1743,154.355 Q68.1743,150.2925 69.4868,147.3862 Q70.7993,144.48 73.3618,142.9175 Q75.9243,141.355 79.6743,141.355 Q81.4556,141.355 82.7993,141.73 Q84.1431,142.0737 85.5181,142.7612 L83.8931,146.7925 Q82.6431,146.1675 81.5493,145.9175 Q80.4868,145.6675 79.5181,145.6675 Q77.1743,145.6675 75.7681,146.73 Q74.3618,147.7925 73.7681,149.6987 Q73.1743,151.605 73.1743,154.1362 Q73.1743,158.1675 74.6118,160.105 Q76.0493,162.0112 79.2368,162.0112 Q80.4243,162.0112 81.6743,161.6987 Q82.9243,161.3862 84.5806,160.6362 L84.5806,165.0737 Q83.1118,165.6987 81.5181,166.0112 Q79.9556,166.3237 78.4243,166.3237 Z " fill="#000000"/><text fill="#000000" font-family="sans-serif" font-size="28" lengthAdjust="spacing" textLength="150.0234" x="115.3728" y="163.344">Observable</text><line style="stroke:#A80036;stroke-width:2;" x1="16" x2="304.8831" y1="184.48" y2="184.48"/><g data-visibility-modifier="PRIVATE_FIELD"><rect fill="none" height="12" style="stroke:#C82930;stroke-width:2;" width="12" x="30" y="208.5479"/></g><text fill="#000000" font-family="sans-serif" font-size="28" lengthAdjust="spacing" textLength="169.9874" x="54" y="222.4119">subscribers[]</text><line style="stroke:#A80036;stroke-width:2;" x1="16" x2="304.8831" y1="238.6158" y2="238.6158"/><g data-visibility-modifier="PUBLIC_METHOD"><ellipse cx="36" cy="268.6838" fill="#84BE84" rx="6" ry="6" style="stroke:#038048;stroke-width:2;"/></g><text fill="#000000" font-family="sans-serif" font-size="28" lengthAdjust="spacing" textLength="206.2752" x="54" y="276.5477">void subscribe()</text><g data-visibility-modifier="PUBLIC_METHOD"><ellipse cx="36" cy="306.8196" fill="#84BE84" rx="6" ry="6" style="stroke:#038048;stroke-width:2;"/></g><text fill="#000000" font-family="sans-serif" font-size="28" lengthAdjust="spacing" textLength="240.8831" x="54" y="314.6835">void unsubscribe()</text><g data-visibility-modifier="PUBLIC_METHOD"><ellipse cx="36" cy="344.9554" fill="#84BE84" rx="6" ry="6" style="stroke:#038048;stroke-width:2;"/></g><text fill="#000000" font-family="sans-serif" font-size="28" lengthAdjust="spacing" textLength="155.1754" x="54" y="352.8194">void notify()</text></g><!--class Subscriber--><g class="entity" data-qualified-name="Subscriber" data-source-line="11" id="ent0002"><rect fill="#FEFECE" filter="url(#f1g81idfxgqkxl)" height="134.1358" style="stroke:#A80036;stroke-width:2;" width="225.0393" x="725.92" y="177.68"/><ellipse cx="769.4199" cy="209.68" fill="#B4A7E5" rx="22" ry="22" style="stroke:#A80036;stroke-width:2;"/><path d="M761.4824,222.68 L761.4824,219.2737 L766.2012,218.7425 L766.2012,202.3362 L761.4824,201.805 L761.4824,198.3987 L775.7637,198.3987 L775.7637,201.805 L770.9199,202.3362 L770.9199,218.7425 L775.7637,219.2737 L775.7637,222.68 L761.4824,222.68 Z " fill="#000000"/><text fill="#000000" font-family="sans-serif" font-size="28" font-style="italic" lengthAdjust="spacing" textLength="131.0395" x="800.4199" y="220.544">Subscriber</text><line style="stroke:#A80036;stroke-width:2;" x1="727.92" x2="948.9593" y1="241.68" y2="241.68"/><line style="stroke:#A80036;stroke-width:2;" x1="727.92" x2="948.9593" y1="257.68" y2="257.68"/><g data-visibility-modifier="PUBLIC_METHOD"><ellipse cx="747.92" cy="287.7479" fill="#84BE84" rx="6" ry="6" style="stroke:#038048;stroke-width:2;"/></g><text fill="#000000" font-family="sans-serif" font-size="28" lengthAdjust="spacing" textLength="173.0393" x="765.92" y="295.6119">void update()</text></g><!--class subscribe1--><g class="entity" data-qualified-name="subscribe1" data-source-line="15" id="ent0003"><rect fill="#FEFECE" filter="url(#f1g81idfxgqkxl)" height="172.2717" style="stroke:#A80036;stroke-width:2;" width="225.0393" x="577.92" y="489.02"/><ellipse cx="616.2161" cy="521.02" fill="#ADD1B2" rx="22" ry="22" style="stroke:#A80036;stroke-width:2;"/><path d="M615.1536,534.8638 Q611.6536,534.8638 609.3724,533.395 Q607.1224,531.895 605.9974,529.2075 Q604.9036,526.4888 604.9036,522.895 Q604.9036,518.8325 606.2161,515.9263 Q607.5286,513.02 610.0911,511.4575 Q612.6536,509.895 616.4036,509.895 Q618.1849,509.895 619.5286,510.27 Q620.8724,510.6138 622.2474,511.3013 L620.6224,515.3325 Q619.3724,514.7075 618.2786,514.4575 Q617.2161,514.2075 616.2474,514.2075 Q613.9036,514.2075 612.4974,515.27 Q611.0911,516.3325 610.4974,518.2388 Q609.9036,520.145 609.9036,522.6763 Q609.9036,526.7075 611.3411,528.645 Q612.7786,530.5513 615.9661,530.5513 Q617.1536,530.5513 618.4036,530.2388 Q619.6536,529.9263 621.3099,529.1763 L621.3099,533.6138 Q619.8411,534.2388 618.2474,534.5513 Q616.6849,534.8638 615.1536,534.8638 Z " fill="#000000"/><text fill="#000000" font-family="sans-serif" font-size="28" lengthAdjust="spacing" textLength="142.6035" x="646.0597" y="531.884">subscribe1</text><line style="stroke:#A80036;stroke-width:2;" x1="579.92" x2="800.9593" y1="553.02" y2="553.02"/><g data-visibility-modifier="PRIVATE_FIELD"><rect fill="none" height="12" style="stroke:#C82930;stroke-width:2;" width="12" x="593.92" y="577.0879"/></g><text fill="#000000" font-family="sans-serif" font-size="28" lengthAdjust="spacing" textLength="65.1278" x="617.92" y="590.9519">state</text><line style="stroke:#A80036;stroke-width:2;" x1="579.92" x2="800.9593" y1="607.1558" y2="607.1558"/><g data-visibility-modifier="PUBLIC_METHOD"><ellipse cx="599.92" cy="637.2238" fill="#84BE84" rx="6" ry="6" style="stroke:#038048;stroke-width:2;"/></g><text fill="#000000" font-family="sans-serif" font-size="28" lengthAdjust="spacing" textLength="173.0393" x="617.92" y="645.0877">void update()</text></g><!--class subscribe2--><g class="entity" data-qualified-name="subscribe2" data-source-line="20" id="ent0004"><rect fill="#FEFECE" filter="url(#f1g81idfxgqkxl)" height="172.2717" style="stroke:#A80036;stroke-width:2;" width="225.0393" x="873.92" y="489.02"/><ellipse cx="912.2161" cy="521.02" fill="#ADD1B2" rx="22" ry="22" style="stroke:#A80036;stroke-width:2;"/><path d="M911.1536,534.8638 Q907.6536,534.8638 905.3724,533.395 Q903.1224,531.895 901.9974,529.2075 Q900.9036,526.4888 900.9036,522.895 Q900.9036,518.8325 902.2161,515.9263 Q903.5286,513.02 906.0911,511.4575 Q908.6536,509.895 912.4036,509.895 Q914.1849,509.895 915.5286,510.27 Q916.8724,510.6138 918.2474,511.3013 L916.6224,515.3325 Q915.3724,514.7075 914.2786,514.4575 Q913.2161,514.2075 912.2474,514.2075 Q909.9036,514.2075 908.4974,515.27 Q907.0911,516.3325 906.4974,518.2388 Q905.9036,520.145 905.9036,522.6763 Q905.9036,526.7075 907.3411,528.645 Q908.7786,530.5513 911.9661,530.5513 Q913.1536,530.5513 914.4036,530.2388 Q915.6536,529.9263 917.3099,529.1763 L917.3099,533.6138 Q915.8411,534.2388 914.2474,534.5513 Q912.6849,534.8638 911.1536,534.8638 Z " fill="#000000"/><text fill="#000000" font-family="sans-serif" font-size="28" lengthAdjust="spacing" textLength="142.6035" x="942.0597" y="531.884">subscribe2</text><line style="stroke:#A80036;stroke-width:2;" x1="875.92" x2="1096.9593" y1="553.02" y2="553.02"/><g data-visibility-modifier="PRIVATE_FIELD"><rect fill="none" height="12" style="stroke:#C82930;stroke-width:2;" width="12" x="889.92" y="577.0879"/></g><text fill="#000000" font-family="sans-serif" font-size="28" lengthAdjust="spacing" textLength="65.1278" x="913.92" y="590.9519">state</text><line style="stroke:#A80036;stroke-width:2;" x1="875.92" x2="1096.9593" y1="607.1558" y2="607.1558"/><g data-visibility-modifier="PUBLIC_METHOD"><ellipse cx="895.92" cy="637.2238" fill="#84BE84" rx="6" ry="6" style="stroke:#038048;stroke-width:2;"/></g><text fill="#000000" font-family="sans-serif" font-size="28" lengthAdjust="spacing" textLength="173.0393" x="913.92" y="645.0877">void update()</text></g><path d="M376.12,189.34 L376.12,226.752 L209.1754,341.9554 L376.12,242.752 L376.12,280.1641 A0,0 0 0 0 376.12,280.1641 L656.7482,280.1641 A0,0 0 0 0 656.7482,280.1641 L656.7482,209.34 L636.7482,189.34 L376.12,189.34 A0,0 0 0 0 376.12,189.34" fill="#FBFB77" filter="url(#f1g81idfxgqkxl)" style="stroke:#A80036;stroke-width:2;"/><path d="M636.7482,189.34 L636.7482,209.34 L656.7482,209.34 L636.7482,189.34" fill="#FBFB77" style="stroke:#A80036;stroke-width:2;"/><text fill="#000000" font-family="sans-serif" font-size="26" lengthAdjust="spacing" textLength="238.6282" x="388.12" y="227.134">for s in subscribers:</text><text fill="#000000" font-family="sans-serif" font-size="26" lengthAdjust="spacing" textLength="121.7061" x="401.64" y="262.5461">s.update()</text><!--reverse link Subscriber to subscribe1--><g class="link" data-entity-1="ent0002" data-entity-2="ent0003" data-link-type="extension" data-source-line="25" id="lnk5"><path codeLine="25" d="M793.6285,345.6047 C770.6485,396.2647 753.64,433.8 728.8,488.58" fill="none" id="Subscriber-backto-subscribe1" style="stroke:#A80036;stroke-width:2;stroke-dasharray:14,14;"/><polygon fill="none" points="808.5,312.82,782.7002,340.6475,804.5567,350.5619,808.5,312.82" style="stroke:#A80036;stroke-width:2;stroke-linejoin:miter;stroke-miterlimit:10;"/></g><!--reverse link Subscriber to subscribe2--><g class="link" data-entity-1="ent0002" data-entity-2="ent0004" data-link-type="extension" data-source-line="26" id="lnk6"><path codeLine="26" d="M883.2608,345.6096 C906.2208,396.2696 923.24,433.8 948.08,488.58" fill="none" id="Subscriber-backto-subscribe2" style="stroke:#A80036;stroke-width:2;stroke-dasharray:14,14;"/><polygon fill="none" points="868.4,312.82,872.331,350.5632,894.1907,340.656,868.4,312.82" style="stroke:#A80036;stroke-width:2;stroke-linejoin:miter;stroke-miterlimit:10;"/></g><!--reverse link Observable to Subscriber--><g class="link" data-entity-1="ent0001" data-entity-2="ent0002" data-link-type="dependency" data-source-line="28" id="lnk7"><path codeLine="28" d="M284.4614,113.4099 C314.0814,89.1899 339.94,73.62 375.44,60.48 C493,17 541.86,12 657.44,60.48 C713.68,84.08 761.24,134.6 793.48,176.8" fill="none" id="Observable-backto-Subscriber" style="stroke:#A80036;stroke-width:2;stroke-dasharray:14,14;"/><polygon fill="#A80036" points="276.72,119.74,295.7187,114.539,284.4614,113.4099,285.5905,102.1527,276.72,119.74" style="stroke:#A80036;stroke-width:2;stroke-linejoin:miter;stroke-miterlimit:10;"/><text fill="#000000" font-family="sans-serif" font-size="26" lengthAdjust="spacing" textLength="43.1341" x="245.8021" y="97.1956">0..*</text></g><?plantuml-src ZP4z3i8m38LtdyBgn8-8e6FLEp0m8eOaTI6YIb2SLaB0tObQQBDKQiPd-_dv2z-DHU-OWBLi27C0tKXcF2ectqaLjHTWV3laLh7sHf7dywNNjjWvKqs5rJgLMpjJi2wO-Xcr3u2nWNmjDU5fjFzj_DiyAXbew1woZRQ7ALk8FGkdycLJIPxoBKIoTRuKyINWihqGcmnBuStr5aHo8K1aGDZhwEg4Tb4CT6AgsdbaZF-JW2_wj2p6e6HxdWHV?></g></svg>