<svg xmlns="http://www.w3.org/2000/svg" xmlns:xlink="http://www.w3.org/1999/xlink" contentStyleType="text/css" height="368px" preserveAspectRatio="none" style="width:696px;height:368px;background:#FFFFFF;" version="1.1" viewBox="0 0 696 368" width="696px" zoomAndPan="magnify"><defs><filter height="300%" id="f1tqhs9b0xsh1p" width="300%" x="-1" y="-1"><feGaussianBlur result="blurOut" stdDeviation="2.0"/><feColorMatrix in="blurOut" result="blurOut2" type="matrix" values="0 0 0 0 0 0 0 0 0 0 0 0 0 0 0 0 0 0 .4 0"/><feOffset dx="4.0" dy="4.0" in="blurOut2" result="blurOut3"/><feBlend in="SourceGraphic" in2="blurOut3" mode="normal"/></filter></defs><g><!--cluster before--><g id="cluster_before"><rect fill="none" filter="url(#f1tqhs9b0xsh1p)" height="172" style="stroke:#A80036;stroke-width:1.0;" width="333" x="7" y="7"/><text fill="#000000" font-family="sans-serif" font-size="14" font-weight="bold" lengthAdjust="spacing" textLength="45.8498" x="150.5751" y="23.9659">before</text></g><!--cluster A--><g id="cluster_A"><polygon fill="none" filter="url(#f1tqhs9b0xsh1p)" points="31,53,45.946,53,52.946,78.0679,133,78.0679,133,155,31,155,31,53" style="stroke:#000000;stroke-width:1.5;"/><line style="stroke:#000000;stroke-width:1.5;" x1="31" x2="52.946" y1="78.0679" y2="78.0679"/><text fill="#000000" font-family="sans-serif" font-size="14" lengthAdjust="spacing" textLength="8.946" x="35" y="69.9659">A</text></g><!--cluster B--><g id="cluster_B"><polygon fill="none" filter="url(#f1tqhs9b0xsh1p)" points="202,53,217.1,53,224.1,78.0679,316,78.0679,316,155,202,155,202,53" style="stroke:#000000;stroke-width:1.5;"/><line style="stroke:#000000;stroke-width:1.5;" x1="202" x2="224.1" y1="78.0679" y2="78.0679"/><text fill="#000000" font-family="sans-serif" font-size="14" lengthAdjust="spacing" textLength="9.1" x="206" y="69.9659">B</text></g><!--cluster after--><g id="cluster_after"><rect fill="none" filter="url(#f1tqhs9b0xsh1p)" height="349" style="stroke:#A80036;stroke-width:1.0;" width="320" x="364" y="7"/><text fill="#000000" font-family="sans-serif" font-size="14" font-weight="bold" lengthAdjust="spacing" textLength="34.5799" x="506.7101" y="23.9659">after</text></g><!--cluster A--><g id="cluster_A"><polygon fill="none" filter="url(#f1tqhs9b0xsh1p)" points="388,53,402.946,53,409.946,78.0679,522,78.0679,522,332,388,332,388,53" style="stroke:#000000;stroke-width:1.5;"/><line style="stroke:#000000;stroke-width:1.5;" x1="388" x2="409.946" y1="78.0679" y2="78.0679"/><text fill="#000000" font-family="sans-serif" font-size="14" lengthAdjust="spacing" textLength="8.946" x="392" y="69.9659">A</text></g><!--cluster B--><g id="cluster_B"><polygon fill="none" filter="url(#f1tqhs9b0xsh1p)" points="546,230,561.1,230,568.1,255.0679,660,255.0679,660,332,546,332,546,230" style="stroke:#000000;stroke-width:1.5;"/><line style="stroke:#000000;stroke-width:1.5;" x1="546" x2="568.1" y1="255.0679" y2="255.0679"/><text fill="#000000" font-family="sans-serif" font-size="14" lengthAdjust="spacing" textLength="9.1" x="550" y="246.9659">B</text></g><!--class Apple--><g id="elem_Apple"><rect codeLine="4" fill="#FEFECE" filter="url(#f1tqhs9b0xsh1p)" height="48" id="Apple" style="stroke:#A80036;stroke-width:1.0;" width="69.6739" x="47.16" y="91"/><ellipse cx="62.16" cy="107" fill="#ADD1B2" rx="11" ry="11" style="stroke:#A80036;stroke-width:1.0;"/><path d="M61.6288,113.9219 Q59.8788,113.9219 58.7381,113.1875 Q57.6131,112.4375 57.0506,111.0938 Q56.5038,109.7344 56.5038,107.9375 Q56.5038,105.9063 57.16,104.4531 Q57.8163,103 59.0975,102.2188 Q60.3788,101.4375 62.2538,101.4375 Q63.1444,101.4375 63.8163,101.625 Q64.4881,101.7969 65.1756,102.1406 L64.3631,104.1563 Q63.7381,103.8438 63.1913,103.7188 Q62.66,103.5938 62.1756,103.5938 Q61.0038,103.5938 60.3006,104.125 Q59.5975,104.6563 59.3006,105.6094 Q59.0038,106.5625 59.0038,107.8281 Q59.0038,109.8438 59.7225,110.8125 Q60.4413,111.7656 62.035,111.7656 Q62.6288,111.7656 63.2538,111.6094 Q63.8788,111.4531 64.7069,111.0781 L64.7069,113.2969 Q63.9725,113.6094 63.1756,113.7656 Q62.3944,113.9219 61.6288,113.9219 Z " fill="#000000"/><text fill="#000000" font-family="sans-serif" font-size="14" lengthAdjust="spacing" textLength="37.6739" x="76.16" y="112.432">Apple</text><line style="stroke:#A80036;stroke-width:1.0;" x1="48.16" x2="115.8339" y1="123" y2="123"/><line style="stroke:#A80036;stroke-width:1.0;" x1="48.16" x2="115.8339" y1="131" y2="131"/></g><!--class Banana--><g id="elem_Banana"><rect codeLine="7" fill="#FEFECE" filter="url(#f1tqhs9b0xsh1p)" height="48" id="Banana" style="stroke:#A80036;stroke-width:1.0;" width="81.9658" x="218.02" y="91"/><ellipse cx="233.02" cy="107" fill="#ADD1B2" rx="11" ry="11" style="stroke:#A80036;stroke-width:1.0;"/><path d="M232.4888,113.9219 Q230.7388,113.9219 229.5981,113.1875 Q228.4731,112.4375 227.9106,111.0938 Q227.3638,109.7344 227.3638,107.9375 Q227.3638,105.9063 228.02,104.4531 Q228.6763,103 229.9575,102.2188 Q231.2388,101.4375 233.1138,101.4375 Q234.0044,101.4375 234.6763,101.625 Q235.3481,101.7969 236.0356,102.1406 L235.2231,104.1563 Q234.5981,103.8438 234.0513,103.7188 Q233.52,103.5938 233.0356,103.5938 Q231.8638,103.5938 231.1606,104.125 Q230.4575,104.6563 230.1606,105.6094 Q229.8638,106.5625 229.8638,107.8281 Q229.8638,109.8438 230.5825,110.8125 Q231.3013,111.7656 232.895,111.7656 Q233.4888,111.7656 234.1138,111.6094 Q234.7388,111.4531 235.5669,111.0781 L235.5669,113.2969 Q234.8325,113.6094 234.0356,113.7656 Q233.2544,113.9219 232.4888,113.9219 Z " fill="#000000"/><text fill="#000000" font-family="sans-serif" font-size="14" lengthAdjust="spacing" textLength="49.9658" x="247.02" y="112.432">Banana</text><line style="stroke:#A80036;stroke-width:1.0;" x1="219.02" x2="298.9858" y1="123" y2="123"/><line style="stroke:#A80036;stroke-width:1.0;" x1="219.02" x2="298.9858" y1="131" y2="131"/></g><!--class Apple--><g id="elem_Apple"><rect codeLine="13" fill="#FEFECE" filter="url(#f1tqhs9b0xsh1p)" height="48" id="Apple" style="stroke:#A80036;stroke-width:1.0;" width="69.6739" x="404.16" y="91"/><ellipse cx="419.16" cy="107" fill="#ADD1B2" rx="11" ry="11" style="stroke:#A80036;stroke-width:1.0;"/><path d="M418.6288,113.9219 Q416.8788,113.9219 415.7381,113.1875 Q414.6131,112.4375 414.0506,111.0938 Q413.5038,109.7344 413.5038,107.9375 Q413.5038,105.9063 414.16,104.4531 Q414.8163,103 416.0975,102.2188 Q417.3788,101.4375 419.2538,101.4375 Q420.1444,101.4375 420.8163,101.625 Q421.4881,101.7969 422.1756,102.1406 L421.3631,104.1563 Q420.7381,103.8438 420.1913,103.7188 Q419.66,103.5938 419.1756,103.5938 Q418.0038,103.5938 417.3006,104.125 Q416.5975,104.6563 416.3006,105.6094 Q416.0038,106.5625 416.0038,107.8281 Q416.0038,109.8438 416.7225,110.8125 Q417.4413,111.7656 419.035,111.7656 Q419.6288,111.7656 420.2538,111.6094 Q420.8788,111.4531 421.7069,111.0781 L421.7069,113.2969 Q420.9725,113.6094 420.1756,113.7656 Q419.3944,113.9219 418.6288,113.9219 Z " fill="#000000"/><text fill="#000000" font-family="sans-serif" font-size="14" lengthAdjust="spacing" textLength="37.6739" x="433.16" y="112.432">Apple</text><line style="stroke:#A80036;stroke-width:1.0;" x1="405.16" x2="472.8339" y1="123" y2="123"/><line style="stroke:#A80036;stroke-width:1.0;" x1="405.16" x2="472.8339" y1="131" y2="131"/></g><!--class Interface--><g id="elem_Interface"><rect codeLine="14" fill="#FEFECE" filter="url(#f1tqhs9b0xsh1p)" height="48" id="Interface" style="stroke:#A80036;stroke-width:1.0;" width="87.5798" x="411.21" y="268"/><ellipse cx="426.21" cy="284" fill="#B4A7E5" rx="11" ry="11" style="stroke:#A80036;stroke-width:1.0;"/><path d="M422.2413,290.5 L422.2413,288.7969 L424.6006,288.5313 L424.6006,280.3281 L422.2413,280.0625 L422.2413,278.3594 L429.3819,278.3594 L429.3819,280.0625 L426.96,280.3281 L426.96,288.5313 L429.3819,288.7969 L429.3819,290.5 L422.2413,290.5 Z " fill="#000000"/><text fill="#000000" font-family="sans-serif" font-size="14" font-style="italic" lengthAdjust="spacing" textLength="55.5798" x="440.21" y="289.432">Interface</text><line style="stroke:#A80036;stroke-width:1.0;" x1="412.21" x2="497.7898" y1="300" y2="300"/><line style="stroke:#A80036;stroke-width:1.0;" x1="412.21" x2="497.7898" y1="308" y2="308"/></g><!--class Banana--><g id="elem_Banana"><rect codeLine="17" fill="#FEFECE" filter="url(#f1tqhs9b0xsh1p)" height="48" id="Banana" style="stroke:#A80036;stroke-width:1.0;" width="81.9658" x="562.02" y="268"/><ellipse cx="577.02" cy="284" fill="#ADD1B2" rx="11" ry="11" style="stroke:#A80036;stroke-width:1.0;"/><path d="M576.4888,290.9219 Q574.7388,290.9219 573.5981,290.1875 Q572.4731,289.4375 571.9106,288.0938 Q571.3638,286.7344 571.3638,284.9375 Q571.3638,282.9063 572.02,281.4531 Q572.6763,280 573.9575,279.2188 Q575.2388,278.4375 577.1138,278.4375 Q578.0044,278.4375 578.6763,278.625 Q579.3481,278.7969 580.0356,279.1406 L579.2231,281.1563 Q578.5981,280.8438 578.0513,280.7188 Q577.52,280.5938 577.0356,280.5938 Q575.8638,280.5938 575.1606,281.125 Q574.4575,281.6563 574.1606,282.6094 Q573.8638,283.5625 573.8638,284.8281 Q573.8638,286.8438 574.5825,287.8125 Q575.3013,288.7656 576.895,288.7656 Q577.4888,288.7656 578.1138,288.6094 Q578.7388,288.4531 579.5669,288.0781 L579.5669,290.2969 Q578.8325,290.6094 578.0356,290.7656 Q577.2544,290.9219 576.4888,290.9219 Z " fill="#000000"/><text fill="#000000" font-family="sans-serif" font-size="14" lengthAdjust="spacing" textLength="49.9658" x="591.02" y="289.432">Banana</text><line style="stroke:#A80036;stroke-width:1.0;" x1="563.02" x2="642.9858" y1="300" y2="300"/><line style="stroke:#A80036;stroke-width:1.0;" x1="563.02" x2="642.9858" y1="308" y2="308"/></g><!--link Apple to Banana--><g id="link_Apple_Banana"><path codeLine="9" d="M116.97,115 C145.88,115 169.01,115 199.57,115 " fill="none" id="Apple-to-Banana" style="stroke:#A80036;stroke-width:1.0;"/><polygon fill="none" points="217.57,115,199.57,109,199.57,121,217.57,115" style="stroke:#A80036;stroke-width:1.0;"/><text fill="#000000" font-family="sans-serif" font-size="13" lengthAdjust="spacing" textLength="65.039" x="134.93" y="107.897">references</text></g><!--link Apple to Interface--><g id="link_Apple_Interface"><path codeLine="19" d="M441.12,139.24 C444.18,172.71 448.1588,216.215 451.2288,249.745 " fill="none" id="Apple-to-Interface" style="stroke:#A80036;stroke-width:1.0;"/><polygon fill="none" points="452.87,267.67,457.2038,249.1979,445.2538,250.292,452.87,267.67" style="stroke:#A80036;stroke-width:1.0;"/><text fill="#000000" font-family="sans-serif" font-size="13" lengthAdjust="spacing" textLength="65.039" x="448.96" y="209.897">references</text></g><!--link Banana to Interface--><g id="link_Banana_Interface"><path codeLine="20" d="M561.65,292 C540.84,292 526.04,292 505.23,292 " fill="none" id="Banana-to-Interface" style="stroke:#A80036;stroke-width:1.0;"/><polygon fill="#A80036" points="499.23,292,508.23,296,504.23,292,508.23,288,499.23,292" style="stroke:#A80036;stroke-width:1.0;"/></g><!--SRC=[XOz13e8m44NtFSM_03s02nFOUOon_bO2AMHAuaAvkmLIrCHekfdq_PbvaxesGeT4etIJnD0JP_f1YRiPnNKIY3hNWEib9TJZsDFCEslUM2CnlmnhkyPGQHkkK_Kueh4RF43fgOoEAGTVIyLFr9yxWJRcZ1T7d4hrpsGTQtUVot2BYqxvtkTyU6sqA9ShldIP-Ga0]--></g></svg>