<svg xmlns="http://www.w3.org/2000/svg" xmlns:xlink="http://www.w3.org/1999/xlink" contentStyleType="text/css" height="196px" preserveAspectRatio="none" style="width:271px;height:196px;background:#FFFFFF;" version="1.1" viewBox="0 0 271 196" width="271px" zoomAndPan="magnify"><defs><filter height="300%" id="f1fxdzqhelpetd" width="300%" x="-1" y="-1"><feGaussianBlur result="blurOut" stdDeviation="2.0"/><feColorMatrix in="blurOut" result="blurOut2" type="matrix" values="0 0 0 0 0 0 0 0 0 0 0 0 0 0 0 0 0 0 .4 0"/><feOffset dx="4.0" dy="4.0" in="blurOut2" result="blurOut3"/><feBlend in="SourceGraphic" in2="blurOut3" mode="normal"/></filter></defs><g><!--class ShapeArea--><g id="elem_ShapeArea"><rect codeLine="2" fill="#FEFECE" filter="url(#f1fxdzqhelpetd)" height="67.0679" id="ShapeArea" style="stroke:#A80036;stroke-width:1.0;" width="98.5977" x="7" y="7"/><ellipse cx="22" cy="23" fill="#B4A7E5" rx="11" ry="11" style="stroke:#A80036;stroke-width:1.0;"/><path d="M18.0313,29.5 L18.0313,27.7969 L20.3906,27.5313 L20.3906,19.3281 L18.0313,19.0625 L18.0313,17.3594 L25.1719,17.3594 L25.1719,19.0625 L22.75,19.3281 L22.75,27.5313 L25.1719,27.7969 L25.1719,29.5 L18.0313,29.5 Z " fill="#000000"/><text fill="#000000" font-family="sans-serif" font-size="14" font-style="italic" lengthAdjust="spacing" textLength="66.5977" x="36" y="28.432">ShapeArea</text><line style="stroke:#A80036;stroke-width:1.0;" x1="8" x2="104.5977" y1="39" y2="39"/><line style="stroke:#A80036;stroke-width:1.0;" x1="8" x2="104.5977" y1="47" y2="47"/><ellipse cx="18" cy="62.034" fill="#84BE84" rx="3" ry="3" style="stroke:#038048;stroke-width:1.0;"/><text fill="#000000" font-family="sans-serif" font-size="14" lengthAdjust="spacing" textLength="37.7859" x="27" y="65.9659">area()</text></g><!--class ShapeVolume--><g id="elem_ShapeVolume"><rect codeLine="6" fill="#FEFECE" filter="url(#f1fxdzqhelpetd)" height="67.0679" id="ShapeVolume" style="stroke:#A80036;stroke-width:1.0;" width="116.7837" x="140.91" y="7"/><ellipse cx="155.91" cy="23" fill="#B4A7E5" rx="11" ry="11" style="stroke:#A80036;stroke-width:1.0;"/><path d="M151.9413,29.5 L151.9413,27.7969 L154.3006,27.5313 L154.3006,19.3281 L151.9413,19.0625 L151.9413,17.3594 L159.0819,17.3594 L159.0819,19.0625 L156.66,19.3281 L156.66,27.5313 L159.0819,27.7969 L159.0819,29.5 L151.9413,29.5 Z " fill="#000000"/><text fill="#000000" font-family="sans-serif" font-size="14" font-style="italic" lengthAdjust="spacing" textLength="84.7837" x="169.91" y="28.432">ShapeVolume</text><line style="stroke:#A80036;stroke-width:1.0;" x1="141.91" x2="256.6937" y1="39" y2="39"/><line style="stroke:#A80036;stroke-width:1.0;" x1="141.91" x2="256.6937" y1="47" y2="47"/><ellipse cx="151.91" cy="62.034" fill="#84BE84" rx="3" ry="3" style="stroke:#038048;stroke-width:1.0;"/><text fill="#000000" font-family="sans-serif" font-size="14" lengthAdjust="spacing" textLength="57.2318" x="160.91" y="65.9659">volume()</text></g><!--class Square--><g id="elem_Square"><rect codeLine="10" fill="#FEFECE" filter="url(#f1fxdzqhelpetd)" height="48" id="Square" style="stroke:#A80036;stroke-width:1.0;" width="78.4798" x="17.06" y="134.07"/><ellipse cx="32.06" cy="150.07" fill="#ADD1B2" rx="11" ry="11" style="stroke:#A80036;stroke-width:1.0;"/><path d="M31.5288,156.9919 Q29.7788,156.9919 28.6381,156.2575 Q27.5131,155.5075 26.9506,154.1638 Q26.4038,152.8044 26.4038,151.0075 Q26.4038,148.9763 27.06,147.5231 Q27.7163,146.07 28.9975,145.2888 Q30.2788,144.5075 32.1538,144.5075 Q33.0444,144.5075 33.7163,144.695 Q34.3881,144.8669 35.0756,145.2106 L34.2631,147.2263 Q33.6381,146.9138 33.0913,146.7888 Q32.56,146.6638 32.0756,146.6638 Q30.9038,146.6638 30.2006,147.195 Q29.4975,147.7263 29.2006,148.6794 Q28.9038,149.6325 28.9038,150.8981 Q28.9038,152.9138 29.6225,153.8825 Q30.3413,154.8356 31.935,154.8356 Q32.5288,154.8356 33.1538,154.6794 Q33.7788,154.5231 34.6069,154.1481 L34.6069,156.3669 Q33.8725,156.6794 33.0756,156.8356 Q32.2944,156.9919 31.5288,156.9919 Z " fill="#000000"/><text fill="#000000" font-family="sans-serif" font-size="14" lengthAdjust="spacing" textLength="46.4798" x="46.06" y="155.502">Square</text><line style="stroke:#A80036;stroke-width:1.0;" x1="18.06" x2="94.5398" y1="166.07" y2="166.07"/><line style="stroke:#A80036;stroke-width:1.0;" x1="18.06" x2="94.5398" y1="174.07" y2="174.07"/></g><!--class Cube--><g id="elem_Cube"><rect codeLine="11" fill="#FEFECE" filter="url(#f1fxdzqhelpetd)" height="48" id="Cube" style="stroke:#A80036;stroke-width:1.0;" width="66.0059" x="148.3" y="134.07"/><ellipse cx="163.3" cy="150.07" fill="#ADD1B2" rx="11" ry="11" style="stroke:#A80036;stroke-width:1.0;"/><path d="M162.7688,156.9919 Q161.0188,156.9919 159.8781,156.2575 Q158.7531,155.5075 158.1906,154.1638 Q157.6438,152.8044 157.6438,151.0075 Q157.6438,148.9763 158.3,147.5231 Q158.9563,146.07 160.2375,145.2888 Q161.5188,144.5075 163.3938,144.5075 Q164.2844,144.5075 164.9563,144.695 Q165.6281,144.8669 166.3156,145.2106 L165.5031,147.2263 Q164.8781,146.9138 164.3313,146.7888 Q163.8,146.6638 163.3156,146.6638 Q162.1438,146.6638 161.4406,147.195 Q160.7375,147.7263 160.4406,148.6794 Q160.1438,149.6325 160.1438,150.8981 Q160.1438,152.9138 160.8625,153.8825 Q161.5813,154.8356 163.175,154.8356 Q163.7688,154.8356 164.3938,154.6794 Q165.0188,154.5231 165.8469,154.1481 L165.8469,156.3669 Q165.1125,156.6794 164.3156,156.8356 Q163.5344,156.9919 162.7688,156.9919 Z " fill="#000000"/><text fill="#000000" font-family="sans-serif" font-size="14" lengthAdjust="spacing" textLength="34.0059" x="177.3" y="155.502">Cube</text><line style="stroke:#A80036;stroke-width:1.0;" x1="149.3" x2="213.3059" y1="166.07" y2="166.07"/><line style="stroke:#A80036;stroke-width:1.0;" x1="149.3" x2="213.3059" y1="174.07" y2="174.07"/></g><!--reverse link ShapeArea to Cube--><g id="link_ShapeArea_Cube"><path codeLine="13" d="M104.9978,86.5484 C125.4978,105.4984 137.58,116.66 156.05,133.73 " fill="none" id="ShapeArea-backto-Cube" style="stroke:#A80036;stroke-width:1.0;"/><polygon fill="none" points="91.78,74.33,100.925,90.9543,109.0706,82.1425,91.78,74.33" style="stroke:#A80036;stroke-width:1.0;"/></g><!--reverse link ShapeVolume to Cube--><g id="link_ShapeVolume_Cube"><path codeLine="14" d="M191.4212,92.1158 C188.4712,111.0658 187.59,116.66 184.93,133.73 " fill="none" id="ShapeVolume-backto-Cube" style="stroke:#A80036;stroke-width:1.0;"/><polygon fill="none" points="194.19,74.33,185.4926,91.1929,197.3498,93.0387,194.19,74.33" style="stroke:#A80036;stroke-width:1.0;"/></g><!--reverse link ShapeArea to Square--><g id="link_ShapeArea_Square"><path codeLine="15" d="M56.3,92.33 C56.3,111.28 56.3,116.66 56.3,133.73 " fill="none" id="ShapeArea-backto-Square" style="stroke:#A80036;stroke-width:1.0;"/><polygon fill="none" points="56.3,74.33,50.3,92.33,62.3,92.33,56.3,74.33" style="stroke:#A80036;stroke-width:1.0;"/></g><!--SRC=[AyxEp5CeoYzEvShCAqajIajCJbK8paWiI7KiIasivb9Gq4u4CZGqkMgvq5M4vUUKvgQ2rPI1cH1LoJc9nSKAmOMbG8rGZdDfKYeN5uXKq2qjqAsnGrY1AGenbWjY0APw0000]--></g></svg>