<svg xmlns="http://www.w3.org/2000/svg" xmlns:xlink="http://www.w3.org/1999/xlink" contentStyleType="text/css" height="215px" preserveAspectRatio="none" style="width:307px;height:215px;background:#FFFFFF;" version="1.1" viewBox="0 0 307 215" width="307px" zoomAndPan="magnify"><defs><filter height="300%" id="f1vme8jnz860s5" width="300%" x="-1" y="-1"><feGaussianBlur result="blurOut" stdDeviation="2.0"/><feColorMatrix in="blurOut" result="blurOut2" type="matrix" values="0 0 0 0 0 0 0 0 0 0 0 0 0 0 0 0 0 0 .4 0"/><feOffset dx="4.0" dy="4.0" in="blurOut2" result="blurOut3"/><feBlend in="SourceGraphic" in2="blurOut3" mode="normal"/></filter></defs><g><!--class ShapeProperties--><g id="elem_ShapeProperties"><rect codeLine="3" fill="#FEFECE" filter="url(#f1vme8jnz860s5)" height="86.1358" id="ShapeProperties" style="stroke:#A80036;stroke-width:1.0;" width="133.5696" x="80.22" y="7"/><ellipse cx="95.22" cy="23" fill="#B4A7E5" rx="11" ry="11" style="stroke:#A80036;stroke-width:1.0;"/><path d="M91.2513,29.5 L91.2513,27.7969 L93.6106,27.5313 L93.6106,19.3281 L91.2513,19.0625 L91.2513,17.3594 L98.3919,17.3594 L98.3919,19.0625 L95.97,19.3281 L95.97,27.5313 L98.3919,27.7969 L98.3919,29.5 L91.2513,29.5 Z " fill="#000000"/><text fill="#000000" font-family="sans-serif" font-size="14" font-style="italic" lengthAdjust="spacing" textLength="101.5696" x="109.22" y="28.432">ShapeProperties</text><line style="stroke:#A80036;stroke-width:1.0;" x1="81.22" x2="212.7896" y1="39" y2="39"/><line style="stroke:#A80036;stroke-width:1.0;" x1="81.22" x2="212.7896" y1="47" y2="47"/><ellipse cx="91.22" cy="62.034" fill="#84BE84" rx="3" ry="3" style="stroke:#038048;stroke-width:1.0;"/><text fill="#000000" font-family="sans-serif" font-size="14" lengthAdjust="spacing" textLength="37.7859" x="100.22" y="65.9659">area()</text><ellipse cx="91.22" cy="81.1019" fill="#84BE84" rx="3" ry="3" style="stroke:#038048;stroke-width:1.0;"/><text fill="#000000" font-family="sans-serif" font-size="14" lengthAdjust="spacing" textLength="57.2318" x="100.22" y="85.0339">volume()</text></g><!--class Square--><g id="elem_Square"><rect codeLine="8" fill="#FEFECE" filter="url(#f1vme8jnz860s5)" height="48" id="Square" style="stroke:#A80036;stroke-width:1.0;" width="78.4798" x="214.76" y="153.14"/><ellipse cx="229.76" cy="169.14" fill="#ADD1B2" rx="11" ry="11" style="stroke:#A80036;stroke-width:1.0;"/><path d="M229.2288,176.0619 Q227.4788,176.0619 226.3381,175.3275 Q225.2131,174.5775 224.6506,173.2338 Q224.1038,171.8744 224.1038,170.0775 Q224.1038,168.0463 224.76,166.5931 Q225.4163,165.14 226.6975,164.3588 Q227.9788,163.5775 229.8538,163.5775 Q230.7444,163.5775 231.4163,163.765 Q232.0881,163.9369 232.7756,164.2806 L231.9631,166.2963 Q231.3381,165.9838 230.7913,165.8588 Q230.26,165.7338 229.7756,165.7338 Q228.6038,165.7338 227.9006,166.265 Q227.1975,166.7963 226.9006,167.7494 Q226.6038,168.7025 226.6038,169.9681 Q226.6038,171.9838 227.3225,172.9525 Q228.0413,173.9056 229.635,173.9056 Q230.2288,173.9056 230.8538,173.7494 Q231.4788,173.5931 232.3069,173.2181 L232.3069,175.4369 Q231.5725,175.7494 230.7756,175.9056 Q229.9944,176.0619 229.2288,176.0619 Z " fill="#000000"/><text fill="#000000" font-family="sans-serif" font-size="14" lengthAdjust="spacing" textLength="46.4798" x="243.76" y="174.572">Square</text><line style="stroke:#A80036;stroke-width:1.0;" x1="215.76" x2="292.2398" y1="185.14" y2="185.14"/><line style="stroke:#A80036;stroke-width:1.0;" x1="215.76" x2="292.2398" y1="193.14" y2="193.14"/></g><!--class Cube--><g id="elem_Cube"><rect codeLine="9" fill="#FEFECE" filter="url(#f1vme8jnz860s5)" height="48" id="Cube" style="stroke:#A80036;stroke-width:1.0;" width="66.0059" x="7" y="153.14"/><ellipse cx="22" cy="169.14" fill="#ADD1B2" rx="11" ry="11" style="stroke:#A80036;stroke-width:1.0;"/><path d="M21.4688,176.0619 Q19.7188,176.0619 18.5781,175.3275 Q17.4531,174.5775 16.8906,173.2338 Q16.3438,171.8744 16.3438,170.0775 Q16.3438,168.0463 17,166.5931 Q17.6563,165.14 18.9375,164.3588 Q20.2188,163.5775 22.0938,163.5775 Q22.9844,163.5775 23.6563,163.765 Q24.3281,163.9369 25.0156,164.2806 L24.2031,166.2963 Q23.5781,165.9838 23.0313,165.8588 Q22.5,165.7338 22.0156,165.7338 Q20.8438,165.7338 20.1406,166.265 Q19.4375,166.7963 19.1406,167.7494 Q18.8438,168.7025 18.8438,169.9681 Q18.8438,171.9838 19.5625,172.9525 Q20.2813,173.9056 21.875,173.9056 Q22.4688,173.9056 23.0938,173.7494 Q23.7188,173.5931 24.5469,173.2181 L24.5469,175.4369 Q23.8125,175.7494 23.0156,175.9056 Q22.2344,176.0619 21.4688,176.0619 Z " fill="#000000"/><text fill="#000000" font-family="sans-serif" font-size="14" lengthAdjust="spacing" textLength="34.0059" x="36" y="174.572">Cube</text><line style="stroke:#A80036;stroke-width:1.0;" x1="8" x2="72.0059" y1="185.14" y2="185.14"/><line style="stroke:#A80036;stroke-width:1.0;" x1="8" x2="72.0059" y1="193.14" y2="193.14"/></g><g id="elem_GMN9"><path d="M108.01,163.29 L108.01,190.996 A0,0 0 0 0 108.01,190.996 L179.996,190.996 A0,0 0 0 0 179.996,190.996 L179.996,181.29 L214.45,177.14 L179.996,173.29 L179.996,173.29 L169.996,163.29 L108.01,163.29 A0,0 0 0 0 108.01,163.29 " fill="#FBFB77" filter="url(#f1vme8jnz860s5)" style="stroke:#A80036;stroke-width:1.0;"/><path d="M169.996,163.29 L169.996,173.29 L179.996,173.29 L169.996,163.29 " fill="#FBFB77" style="stroke:#A80036;stroke-width:1.0;"/><text fill="#000000" font-family="sans-serif" font-size="13" lengthAdjust="spacing" textLength="50.986" x="114.01" y="182.187">volume?</text></g><!--reverse link ShapeProperties to Cube--><g id="link_ShapeProperties_Cube"><path codeLine="11" d="M99.0794,107.0883 C82.0994,126.9383 74.23,136.14 59.97,152.8 " fill="none" id="ShapeProperties-backto-Cube" style="stroke:#A80036;stroke-width:1.0;"/><polygon fill="none" points="110.78,93.41,94.52,103.1881,103.6388,110.9885,110.78,93.41" style="stroke:#A80036;stroke-width:1.0;"/></g><!--reverse link ShapeProperties to Square--><g id="link_ShapeProperties_Square"><path codeLine="12" d="M194.9266,107.0917 C211.8966,126.9417 219.78,136.14 234.03,152.8 " fill="none" id="ShapeProperties-backto-Square" style="stroke:#A80036;stroke-width:1.0;"/><polygon fill="none" points="183.23,93.41,190.3661,110.9906,199.4872,103.1928,183.23,93.41" style="stroke:#A80036;stroke-width:1.0;"/></g><!--SRC=[TOqn3i8m54FtVmgF8DGhq84B8FK4eJXgH4Z2Jy82t9r4XGM9nR9bwpbVN836J14N2jMQcPWMatZKcAZ5CJy4s1cbsMoxkqTVhsp-9J9xapEcMstr9npggS6wOgXfUEv_SRBE_xKIOY4yRK6qNpImlex2S4PVo1i0]--></g></svg>