<svg xmlns="http://www.w3.org/2000/svg" xmlns:xlink="http://www.w3.org/1999/xlink" contentStyleType="text/css" height="215px" preserveAspectRatio="none" style="width:338px;height:215px;background:#FFFFFF;" version="1.1" viewBox="0 0 338 215" width="338px" zoomAndPan="magnify"><defs><filter height="300%" id="f2qccr6rh09zx" width="300%" x="-1" y="-1"><feGaussianBlur result="blurOut" stdDeviation="2.0"/><feColorMatrix in="blurOut" result="blurOut2" type="matrix" values="0 0 0 0 0 0 0 0 0 0 0 0 0 0 0 0 0 0 .4 0"/><feOffset dx="4.0" dy="4.0" in="blurOut2" result="blurOut3"/><feBlend in="SourceGraphic" in2="blurOut3" mode="normal"/></filter></defs><g><!--class Shape--><g id="elem_Shape"><rect codeLine="2" fill="#FEFECE" filter="url(#f2qccr6rh09zx)" height="48" id="Shape" style="stroke:#A80036;stroke-width:1.0;" width="72.6978" x="171.12" y="16.54"/><ellipse cx="186.12" cy="32.54" fill="#ADD1B2" rx="11" ry="11" style="stroke:#A80036;stroke-width:1.0;"/><path d="M185.5888,39.4619 Q183.8388,39.4619 182.6981,38.7275 Q181.5731,37.9775 181.0106,36.6337 Q180.4638,35.2744 180.4638,33.4775 Q180.4638,31.4462 181.12,29.9931 Q181.7763,28.54 183.0575,27.7587 Q184.3388,26.9775 186.2138,26.9775 Q187.1044,26.9775 187.7763,27.165 Q188.4481,27.3369 189.1356,27.6806 L188.3231,29.6962 Q187.6981,29.3837 187.1513,29.2587 Q186.62,29.1337 186.1356,29.1337 Q184.9638,29.1337 184.2606,29.665 Q183.5575,30.1962 183.2606,31.1494 Q182.9638,32.1025 182.9638,33.3681 Q182.9638,35.3837 183.6825,36.3525 Q184.4013,37.3056 185.995,37.3056 Q186.5888,37.3056 187.2138,37.1494 Q187.8388,36.9931 188.6669,36.6181 L188.6669,38.8369 Q187.9325,39.1494 187.1356,39.3056 Q186.3544,39.4619 185.5888,39.4619 Z " fill="#000000"/><text fill="#000000" font-family="sans-serif" font-size="14" lengthAdjust="spacing" textLength="40.6978" x="200.12" y="37.972">Shape</text><line style="stroke:#A80036;stroke-width:1.0;" x1="172.12" x2="242.8178" y1="48.54" y2="48.54"/><line style="stroke:#A80036;stroke-width:1.0;" x1="172.12" x2="242.8178" y1="56.54" y2="56.54"/></g><!--class Square--><g id="elem_Square"><rect codeLine="4" fill="#FEFECE" filter="url(#f2qccr6rh09zx)" height="67.0679" id="Square" style="stroke:#A80036;stroke-width:1.0;" width="96.3777" x="92.28" y="134.07"/><ellipse cx="115.3341" cy="150.07" fill="#ADD1B2" rx="11" ry="11" style="stroke:#A80036;stroke-width:1.0;"/><path d="M114.8028,156.9919 Q113.0528,156.9919 111.9122,156.2575 Q110.7872,155.5075 110.2247,154.1638 Q109.6778,152.8044 109.6778,151.0075 Q109.6778,148.9763 110.3341,147.5231 Q110.9903,146.07 112.2716,145.2888 Q113.5528,144.5075 115.4278,144.5075 Q116.3184,144.5075 116.9903,144.695 Q117.6622,144.8669 118.3497,145.2106 L117.5372,147.2263 Q116.9122,146.9138 116.3653,146.7888 Q115.8341,146.6638 115.3497,146.6638 Q114.1778,146.6638 113.4747,147.195 Q112.7716,147.7263 112.4747,148.6794 Q112.1778,149.6325 112.1778,150.8981 Q112.1778,152.9138 112.8966,153.8825 Q113.6153,154.8356 115.2091,154.8356 Q115.8028,154.8356 116.4278,154.6794 Q117.0528,154.5231 117.8809,154.1481 L117.8809,156.3669 Q117.1466,156.6794 116.3497,156.8356 Q115.5684,156.9919 114.8028,156.9919 Z " fill="#000000"/><text fill="#000000" font-family="sans-serif" font-size="14" lengthAdjust="spacing" textLength="46.4798" x="131.1238" y="155.502">Square</text><line style="stroke:#A80036;stroke-width:1.0;" x1="93.28" x2="187.6577" y1="166.07" y2="166.07"/><ellipse cx="103.28" cy="181.104" fill="none" rx="3" ry="3" style="stroke:#038048;stroke-width:1.0;"/><text fill="#000000" font-family="sans-serif" font-size="14" lengthAdjust="spacing" textLength="70.3777" x="112.28" y="185.0359">float width</text><line style="stroke:#A80036;stroke-width:1.0;" x1="93.28" x2="187.6577" y1="193.1379" y2="193.1379"/></g><!--class Circle--><g id="elem_Circle"><rect codeLine="8" fill="#FEFECE" filter="url(#f2qccr6rh09zx)" height="67.0679" id="Circle" style="stroke:#A80036;stroke-width:1.0;" width="100.6617" x="224.14" y="134.07"/><ellipse cx="253.6263" cy="150.07" fill="#ADD1B2" rx="11" ry="11" style="stroke:#A80036;stroke-width:1.0;"/><path d="M253.0951,156.9919 Q251.3451,156.9919 250.2045,156.2575 Q249.0795,155.5075 248.517,154.1638 Q247.9701,152.8044 247.9701,151.0075 Q247.9701,148.9763 248.6263,147.5231 Q249.2826,146.07 250.5638,145.2888 Q251.8451,144.5075 253.7201,144.5075 Q254.6107,144.5075 255.2826,144.695 Q255.9545,144.8669 256.642,145.2106 L255.8295,147.2263 Q255.2045,146.9138 254.6576,146.7888 Q254.1263,146.6638 253.642,146.6638 Q252.4701,146.6638 251.767,147.195 Q251.0638,147.7263 250.767,148.6794 Q250.4701,149.6325 250.4701,150.8981 Q250.4701,152.9138 251.1888,153.8825 Q251.9076,154.8356 253.5013,154.8356 Q254.0951,154.8356 254.7201,154.6794 Q255.3451,154.5231 256.1732,154.1481 L256.1732,156.3669 Q255.4388,156.6794 254.642,156.8356 Q253.8607,156.9919 253.0951,156.9919 Z " fill="#000000"/><text fill="#000000" font-family="sans-serif" font-size="14" lengthAdjust="spacing" textLength="36.4698" x="270.8455" y="155.502">Circle</text><line style="stroke:#A80036;stroke-width:1.0;" x1="225.14" x2="323.8017" y1="166.07" y2="166.07"/><ellipse cx="235.14" cy="181.104" fill="none" rx="3" ry="3" style="stroke:#038048;stroke-width:1.0;"/><text fill="#000000" font-family="sans-serif" font-size="14" lengthAdjust="spacing" textLength="74.6617" x="244.14" y="185.0359">float radius</text><line style="stroke:#A80036;stroke-width:1.0;" x1="225.14" x2="323.8017" y1="193.1379" y2="193.1379"/></g><!--class AreaCalculator--><g id="elem_AreaCalculator"><rect codeLine="12" fill="#FEFECE" filter="url(#f2qccr6rh09zx)" height="67.0679" id="AreaCalculator" style="stroke:#A80036;stroke-width:1.0;" width="128.9356" x="7" y="7"/><ellipse cx="22" cy="23" fill="#ADD1B2" rx="11" ry="11" style="stroke:#A80036;stroke-width:1.0;"/><path d="M21.4688,29.9219 Q19.7188,29.9219 18.5781,29.1875 Q17.4531,28.4375 16.8906,27.0938 Q16.3438,25.7344 16.3438,23.9375 Q16.3438,21.9063 17,20.4531 Q17.6563,19 18.9375,18.2188 Q20.2188,17.4375 22.0938,17.4375 Q22.9844,17.4375 23.6563,17.625 Q24.3281,17.7969 25.0156,18.1406 L24.2031,20.1563 Q23.5781,19.8438 23.0313,19.7188 Q22.5,19.5938 22.0156,19.5938 Q20.8438,19.5938 20.1406,20.125 Q19.4375,20.6563 19.1406,21.6094 Q18.8438,22.5625 18.8438,23.8281 Q18.8438,25.8438 19.5625,26.8125 Q20.2813,27.7656 21.875,27.7656 Q22.4688,27.7656 23.0938,27.6094 Q23.7188,27.4531 24.5469,27.0781 L24.5469,29.2969 Q23.8125,29.6094 23.0156,29.7656 Q22.2344,29.9219 21.4688,29.9219 Z " fill="#000000"/><text fill="#000000" font-family="sans-serif" font-size="14" lengthAdjust="spacing" textLength="96.9356" x="36" y="28.432">AreaCalculator</text><line style="stroke:#A80036;stroke-width:1.0;" x1="8" x2="134.9356" y1="39" y2="39"/><line style="stroke:#A80036;stroke-width:1.0;" x1="8" x2="134.9356" y1="47" y2="47"/><ellipse cx="18" cy="62.034" fill="#84BE84" rx="3" ry="3" style="stroke:#038048;stroke-width:1.0;"/><text fill="#000000" font-family="sans-serif" font-size="14" lengthAdjust="spacing" textLength="36.8479" x="27" y="65.9659">sum()</text></g><!--reverse link Shape to Square--><g id="link_Shape_Square"><path codeLine="16" d="M186.5209,80.6371 C176.1509,99.9971 169.76,111.93 158.15,133.6 " fill="none" id="Shape-backto-Square" style="stroke:#A80036;stroke-width:1.0;"/><polygon fill="none" points="195.02,64.77,181.2319,77.8041,191.81,83.4702,195.02,64.77" style="stroke:#A80036;stroke-width:1.0;"/></g><!--reverse link Shape to Circle--><g id="link_Shape_Circle"><path codeLine="17" d="M228.4091,80.6371 C238.7791,99.9971 245.18,111.93 256.78,133.6 " fill="none" id="Shape-backto-Circle" style="stroke:#A80036;stroke-width:1.0;"/><polygon fill="none" points="219.91,64.77,223.12,83.4702,233.6981,77.8041,219.91,64.77" style="stroke:#A80036;stroke-width:1.0;"/></g><!--link AreaCalculator to Shape--><g id="link_AreaCalculator_Shape"><path codeLine="18" d="M136.28,40.54 C147.77,40.54 159.27,40.54 170.76,40.54 " fill="none" id="AreaCalculator-Shape" style="stroke:#A80036;stroke-width:1.0;"/></g><!--SRC=[NSrH2i8m383XzvuYZmxf5OIn8tY2q5KRZ7Oc3JweTvVH5jaUatpyqHizGB965nXLuPnmYQuFJqE9y7O0nmjdBF2YkIJtxM0Y2Rm1WZEP_iKe4IVaO8mbIvLgzyEmajRtjlZFgRrkoSrk5_52rrHyFVu0]--></g></svg>